<?xml version="1.0" encoding="utf-8" standalone="no"?>
<!DOCTYPE svg PUBLIC "-//W3C//DTD SVG 1.1//EN"
  "http://www.w3.org/Graphics/SVG/1.1/DTD/svg11.dtd">
<svg xmlns:xlink="http://www.w3.org/1999/xlink" width="460.8pt" height="345.6pt" viewBox="0 0 460.8 345.6" xmlns="http://www.w3.org/2000/svg" version="1.1">
 <metadata>
  <rdf:RDF xmlns:dc="http://purl.org/dc/elements/1.1/" xmlns:cc="http://creativecommons.org/ns#" xmlns:rdf="http://www.w3.org/1999/02/22-rdf-syntax-ns#">
   <cc:Work>
    <dc:type rdf:resource="http://purl.org/dc/dcmitype/StillImage"/>
    <dc:date>2023-08-18T15:54:12.911774</dc:date>
    <dc:format>image/svg+xml</dc:format>
    <dc:creator>
     <cc:Agent>
      <dc:title>Matplotlib v3.7.1, https://matplotlib.org/</dc:title>
     </cc:Agent>
    </dc:creator>
   </cc:Work>
  </rdf:RDF>
 </metadata>
 <defs>
  <style type="text/css">*{stroke-linejoin: round; stroke-linecap: butt}</style>
 </defs>
 <g id="figure_1">
  <g id="patch_1">
   <path d="M 0 345.6 
L 460.8 345.6 
L 460.8 0 
L 0 0 
z
" style="fill: #ffffff"/>
  </g>
  <g id="axes_1">
   <g id="patch_2">
    <path d="M 57.6 307.584 
L 414.72 307.584 
L 414.72 41.472 
L 57.6 41.472 
z
" style="fill: #ffffff"/>
   </g>
   <g id="matplotlib.axis_1">
    <g id="xtick_1">
     <g id="line2d_1">
      <defs>
       <path id="m852f50b31f" d="M 0 0 
L 0 3.5 
" style="stroke: #000000; stroke-width: 0.8"/>
      </defs>
      <g>
       <use xlink:href="#m852f50b31f" x="73.760618" y="307.584" style="stroke: #000000; stroke-width: 0.8"/>
      </g>
     </g>
     <g id="text_1">
      <!-- 0 -->
      <g transform="translate(70.579368 322.182437) scale(0.1 -0.1)">
       <defs>
        <path id="DejaVuSans-30" d="M 2034 4250 
Q 1547 4250 1301 3770 
Q 1056 3291 1056 2328 
Q 1056 1369 1301 889 
Q 1547 409 2034 409 
Q 2525 409 2770 889 
Q 3016 1369 3016 2328 
Q 3016 3291 2770 3770 
Q 2525 4250 2034 4250 
z
M 2034 4750 
Q 2819 4750 3233 4129 
Q 3647 3509 3647 2328 
Q 3647 1150 3233 529 
Q 2819 -91 2034 -91 
Q 1250 -91 836 529 
Q 422 1150 422 2328 
Q 422 3509 836 4129 
Q 1250 4750 2034 4750 
z
" transform="scale(0.015625)"/>
       </defs>
       <use xlink:href="#DejaVuSans-30"/>
      </g>
     </g>
    </g>
    <g id="xtick_2">
     <g id="line2d_2">
      <g>
       <use xlink:href="#m852f50b31f" x="139.314287" y="307.584" style="stroke: #000000; stroke-width: 0.8"/>
      </g>
     </g>
     <g id="text_2">
      <!-- 10000 -->
      <g transform="translate(123.408037 322.182437) scale(0.1 -0.1)">
       <defs>
        <path id="DejaVuSans-31" d="M 794 531 
L 1825 531 
L 1825 4091 
L 703 3866 
L 703 4441 
L 1819 4666 
L 2450 4666 
L 2450 531 
L 3481 531 
L 3481 0 
L 794 0 
L 794 531 
z
" transform="scale(0.015625)"/>
       </defs>
       <use xlink:href="#DejaVuSans-31"/>
       <use xlink:href="#DejaVuSans-30" x="63.623047"/>
       <use xlink:href="#DejaVuSans-30" x="127.246094"/>
       <use xlink:href="#DejaVuSans-30" x="190.869141"/>
       <use xlink:href="#DejaVuSans-30" x="254.492188"/>
      </g>
     </g>
    </g>
    <g id="xtick_3">
     <g id="line2d_3">
      <g>
       <use xlink:href="#m852f50b31f" x="204.867956" y="307.584" style="stroke: #000000; stroke-width: 0.8"/>
      </g>
     </g>
     <g id="text_3">
      <!-- 20000 -->
      <g transform="translate(188.961706 322.182437) scale(0.1 -0.1)">
       <defs>
        <path id="DejaVuSans-32" d="M 1228 531 
L 3431 531 
L 3431 0 
L 469 0 
L 469 531 
Q 828 903 1448 1529 
Q 2069 2156 2228 2338 
Q 2531 2678 2651 2914 
Q 2772 3150 2772 3378 
Q 2772 3750 2511 3984 
Q 2250 4219 1831 4219 
Q 1534 4219 1204 4116 
Q 875 4013 500 3803 
L 500 4441 
Q 881 4594 1212 4672 
Q 1544 4750 1819 4750 
Q 2544 4750 2975 4387 
Q 3406 4025 3406 3419 
Q 3406 3131 3298 2873 
Q 3191 2616 2906 2266 
Q 2828 2175 2409 1742 
Q 1991 1309 1228 531 
z
" transform="scale(0.015625)"/>
       </defs>
       <use xlink:href="#DejaVuSans-32"/>
       <use xlink:href="#DejaVuSans-30" x="63.623047"/>
       <use xlink:href="#DejaVuSans-30" x="127.246094"/>
       <use xlink:href="#DejaVuSans-30" x="190.869141"/>
       <use xlink:href="#DejaVuSans-30" x="254.492188"/>
      </g>
     </g>
    </g>
    <g id="xtick_4">
     <g id="line2d_4">
      <g>
       <use xlink:href="#m852f50b31f" x="270.421625" y="307.584" style="stroke: #000000; stroke-width: 0.8"/>
      </g>
     </g>
     <g id="text_4">
      <!-- 30000 -->
      <g transform="translate(254.515375 322.182437) scale(0.1 -0.1)">
       <defs>
        <path id="DejaVuSans-33" d="M 2597 2516 
Q 3050 2419 3304 2112 
Q 3559 1806 3559 1356 
Q 3559 666 3084 287 
Q 2609 -91 1734 -91 
Q 1441 -91 1130 -33 
Q 819 25 488 141 
L 488 750 
Q 750 597 1062 519 
Q 1375 441 1716 441 
Q 2309 441 2620 675 
Q 2931 909 2931 1356 
Q 2931 1769 2642 2001 
Q 2353 2234 1838 2234 
L 1294 2234 
L 1294 2753 
L 1863 2753 
Q 2328 2753 2575 2939 
Q 2822 3125 2822 3475 
Q 2822 3834 2567 4026 
Q 2313 4219 1838 4219 
Q 1578 4219 1281 4162 
Q 984 4106 628 3988 
L 628 4550 
Q 988 4650 1302 4700 
Q 1616 4750 1894 4750 
Q 2613 4750 3031 4423 
Q 3450 4097 3450 3541 
Q 3450 3153 3228 2886 
Q 3006 2619 2597 2516 
z
" transform="scale(0.015625)"/>
       </defs>
       <use xlink:href="#DejaVuSans-33"/>
       <use xlink:href="#DejaVuSans-30" x="63.623047"/>
       <use xlink:href="#DejaVuSans-30" x="127.246094"/>
       <use xlink:href="#DejaVuSans-30" x="190.869141"/>
       <use xlink:href="#DejaVuSans-30" x="254.492188"/>
      </g>
     </g>
    </g>
    <g id="xtick_5">
     <g id="line2d_5">
      <g>
       <use xlink:href="#m852f50b31f" x="335.975294" y="307.584" style="stroke: #000000; stroke-width: 0.8"/>
      </g>
     </g>
     <g id="text_5">
      <!-- 40000 -->
      <g transform="translate(320.069044 322.182437) scale(0.1 -0.1)">
       <defs>
        <path id="DejaVuSans-34" d="M 2419 4116 
L 825 1625 
L 2419 1625 
L 2419 4116 
z
M 2253 4666 
L 3047 4666 
L 3047 1625 
L 3713 1625 
L 3713 1100 
L 3047 1100 
L 3047 0 
L 2419 0 
L 2419 1100 
L 313 1100 
L 313 1709 
L 2253 4666 
z
" transform="scale(0.015625)"/>
       </defs>
       <use xlink:href="#DejaVuSans-34"/>
       <use xlink:href="#DejaVuSans-30" x="63.623047"/>
       <use xlink:href="#DejaVuSans-30" x="127.246094"/>
       <use xlink:href="#DejaVuSans-30" x="190.869141"/>
       <use xlink:href="#DejaVuSans-30" x="254.492188"/>
      </g>
     </g>
    </g>
    <g id="xtick_6">
     <g id="line2d_6">
      <g>
       <use xlink:href="#m852f50b31f" x="401.528963" y="307.584" style="stroke: #000000; stroke-width: 0.8"/>
      </g>
     </g>
     <g id="text_6">
      <!-- 50000 -->
      <g transform="translate(385.622713 322.182437) scale(0.1 -0.1)">
       <defs>
        <path id="DejaVuSans-35" d="M 691 4666 
L 3169 4666 
L 3169 4134 
L 1269 4134 
L 1269 2991 
Q 1406 3038 1543 3061 
Q 1681 3084 1819 3084 
Q 2600 3084 3056 2656 
Q 3513 2228 3513 1497 
Q 3513 744 3044 326 
Q 2575 -91 1722 -91 
Q 1428 -91 1123 -41 
Q 819 9 494 109 
L 494 744 
Q 775 591 1075 516 
Q 1375 441 1709 441 
Q 2250 441 2565 725 
Q 2881 1009 2881 1497 
Q 2881 1984 2565 2268 
Q 2250 2553 1709 2553 
Q 1456 2553 1204 2497 
Q 953 2441 691 2322 
L 691 4666 
z
" transform="scale(0.015625)"/>
       </defs>
       <use xlink:href="#DejaVuSans-35"/>
       <use xlink:href="#DejaVuSans-30" x="63.623047"/>
       <use xlink:href="#DejaVuSans-30" x="127.246094"/>
       <use xlink:href="#DejaVuSans-30" x="190.869141"/>
       <use xlink:href="#DejaVuSans-30" x="254.492188"/>
      </g>
     </g>
    </g>
    <g id="text_7">
     <!-- timesteps -->
     <g transform="translate(211.443594 335.860562) scale(0.1 -0.1)">
      <defs>
       <path id="DejaVuSans-74" d="M 1172 4494 
L 1172 3500 
L 2356 3500 
L 2356 3053 
L 1172 3053 
L 1172 1153 
Q 1172 725 1289 603 
Q 1406 481 1766 481 
L 2356 481 
L 2356 0 
L 1766 0 
Q 1100 0 847 248 
Q 594 497 594 1153 
L 594 3053 
L 172 3053 
L 172 3500 
L 594 3500 
L 594 4494 
L 1172 4494 
z
" transform="scale(0.015625)"/>
       <path id="DejaVuSans-69" d="M 603 3500 
L 1178 3500 
L 1178 0 
L 603 0 
L 603 3500 
z
M 603 4863 
L 1178 4863 
L 1178 4134 
L 603 4134 
L 603 4863 
z
" transform="scale(0.015625)"/>
       <path id="DejaVuSans-6d" d="M 3328 2828 
Q 3544 3216 3844 3400 
Q 4144 3584 4550 3584 
Q 5097 3584 5394 3201 
Q 5691 2819 5691 2113 
L 5691 0 
L 5113 0 
L 5113 2094 
Q 5113 2597 4934 2840 
Q 4756 3084 4391 3084 
Q 3944 3084 3684 2787 
Q 3425 2491 3425 1978 
L 3425 0 
L 2847 0 
L 2847 2094 
Q 2847 2600 2669 2842 
Q 2491 3084 2119 3084 
Q 1678 3084 1418 2786 
Q 1159 2488 1159 1978 
L 1159 0 
L 581 0 
L 581 3500 
L 1159 3500 
L 1159 2956 
Q 1356 3278 1631 3431 
Q 1906 3584 2284 3584 
Q 2666 3584 2933 3390 
Q 3200 3197 3328 2828 
z
" transform="scale(0.015625)"/>
       <path id="DejaVuSans-65" d="M 3597 1894 
L 3597 1613 
L 953 1613 
Q 991 1019 1311 708 
Q 1631 397 2203 397 
Q 2534 397 2845 478 
Q 3156 559 3463 722 
L 3463 178 
Q 3153 47 2828 -22 
Q 2503 -91 2169 -91 
Q 1331 -91 842 396 
Q 353 884 353 1716 
Q 353 2575 817 3079 
Q 1281 3584 2069 3584 
Q 2775 3584 3186 3129 
Q 3597 2675 3597 1894 
z
M 3022 2063 
Q 3016 2534 2758 2815 
Q 2500 3097 2075 3097 
Q 1594 3097 1305 2825 
Q 1016 2553 972 2059 
L 3022 2063 
z
" transform="scale(0.015625)"/>
       <path id="DejaVuSans-73" d="M 2834 3397 
L 2834 2853 
Q 2591 2978 2328 3040 
Q 2066 3103 1784 3103 
Q 1356 3103 1142 2972 
Q 928 2841 928 2578 
Q 928 2378 1081 2264 
Q 1234 2150 1697 2047 
L 1894 2003 
Q 2506 1872 2764 1633 
Q 3022 1394 3022 966 
Q 3022 478 2636 193 
Q 2250 -91 1575 -91 
Q 1294 -91 989 -36 
Q 684 19 347 128 
L 347 722 
Q 666 556 975 473 
Q 1284 391 1588 391 
Q 1994 391 2212 530 
Q 2431 669 2431 922 
Q 2431 1156 2273 1281 
Q 2116 1406 1581 1522 
L 1381 1569 
Q 847 1681 609 1914 
Q 372 2147 372 2553 
Q 372 3047 722 3315 
Q 1072 3584 1716 3584 
Q 2034 3584 2315 3537 
Q 2597 3491 2834 3397 
z
" transform="scale(0.015625)"/>
       <path id="DejaVuSans-70" d="M 1159 525 
L 1159 -1331 
L 581 -1331 
L 581 3500 
L 1159 3500 
L 1159 2969 
Q 1341 3281 1617 3432 
Q 1894 3584 2278 3584 
Q 2916 3584 3314 3078 
Q 3713 2572 3713 1747 
Q 3713 922 3314 415 
Q 2916 -91 2278 -91 
Q 1894 -91 1617 61 
Q 1341 213 1159 525 
z
M 3116 1747 
Q 3116 2381 2855 2742 
Q 2594 3103 2138 3103 
Q 1681 3103 1420 2742 
Q 1159 2381 1159 1747 
Q 1159 1113 1420 752 
Q 1681 391 2138 391 
Q 2594 391 2855 752 
Q 3116 1113 3116 1747 
z
" transform="scale(0.015625)"/>
      </defs>
      <use xlink:href="#DejaVuSans-74"/>
      <use xlink:href="#DejaVuSans-69" x="39.208984"/>
      <use xlink:href="#DejaVuSans-6d" x="66.992188"/>
      <use xlink:href="#DejaVuSans-65" x="164.404297"/>
      <use xlink:href="#DejaVuSans-73" x="225.927734"/>
      <use xlink:href="#DejaVuSans-74" x="278.027344"/>
      <use xlink:href="#DejaVuSans-65" x="317.236328"/>
      <use xlink:href="#DejaVuSans-70" x="378.759766"/>
      <use xlink:href="#DejaVuSans-73" x="442.236328"/>
     </g>
    </g>
   </g>
   <g id="matplotlib.axis_2">
    <g id="ytick_1">
     <g id="line2d_7">
      <defs>
       <path id="m4cd680de94" d="M 0 0 
L -3.5 0 
" style="stroke: #000000; stroke-width: 0.8"/>
      </defs>
      <g>
       <use xlink:href="#m4cd680de94" x="57.6" y="296.405851" style="stroke: #000000; stroke-width: 0.8"/>
      </g>
     </g>
     <g id="text_8">
      <!-- 0 -->
      <g transform="translate(44.2375 300.20507) scale(0.1 -0.1)">
       <use xlink:href="#DejaVuSans-30"/>
      </g>
     </g>
    </g>
    <g id="ytick_2">
     <g id="line2d_8">
      <g>
       <use xlink:href="#m4cd680de94" x="57.6" y="238.713231" style="stroke: #000000; stroke-width: 0.8"/>
      </g>
     </g>
     <g id="text_9">
      <!-- 50 -->
      <g transform="translate(37.875 242.512449) scale(0.1 -0.1)">
       <use xlink:href="#DejaVuSans-35"/>
       <use xlink:href="#DejaVuSans-30" x="63.623047"/>
      </g>
     </g>
    </g>
    <g id="ytick_3">
     <g id="line2d_9">
      <g>
       <use xlink:href="#m4cd680de94" x="57.6" y="181.02061" style="stroke: #000000; stroke-width: 0.8"/>
      </g>
     </g>
     <g id="text_10">
      <!-- 100 -->
      <g transform="translate(31.5125 184.819829) scale(0.1 -0.1)">
       <use xlink:href="#DejaVuSans-31"/>
       <use xlink:href="#DejaVuSans-30" x="63.623047"/>
       <use xlink:href="#DejaVuSans-30" x="127.246094"/>
      </g>
     </g>
    </g>
    <g id="ytick_4">
     <g id="line2d_10">
      <g>
       <use xlink:href="#m4cd680de94" x="57.6" y="123.32799" style="stroke: #000000; stroke-width: 0.8"/>
      </g>
     </g>
     <g id="text_11">
      <!-- 150 -->
      <g transform="translate(31.5125 127.127208) scale(0.1 -0.1)">
       <use xlink:href="#DejaVuSans-31"/>
       <use xlink:href="#DejaVuSans-35" x="63.623047"/>
       <use xlink:href="#DejaVuSans-30" x="127.246094"/>
      </g>
     </g>
    </g>
    <g id="ytick_5">
     <g id="line2d_11">
      <g>
       <use xlink:href="#m4cd680de94" x="57.6" y="65.635369" style="stroke: #000000; stroke-width: 0.8"/>
      </g>
     </g>
     <g id="text_12">
      <!-- 200 -->
      <g transform="translate(31.5125 69.434588) scale(0.1 -0.1)">
       <use xlink:href="#DejaVuSans-32"/>
       <use xlink:href="#DejaVuSans-30" x="63.623047"/>
       <use xlink:href="#DejaVuSans-30" x="127.246094"/>
      </g>
     </g>
    </g>
    <g id="text_13">
     <!-- rewards -->
     <g transform="translate(25.432812 194.447531) rotate(-90) scale(0.1 -0.1)">
      <defs>
       <path id="DejaVuSans-72" d="M 2631 2963 
Q 2534 3019 2420 3045 
Q 2306 3072 2169 3072 
Q 1681 3072 1420 2755 
Q 1159 2438 1159 1844 
L 1159 0 
L 581 0 
L 581 3500 
L 1159 3500 
L 1159 2956 
Q 1341 3275 1631 3429 
Q 1922 3584 2338 3584 
Q 2397 3584 2469 3576 
Q 2541 3569 2628 3553 
L 2631 2963 
z
" transform="scale(0.015625)"/>
       <path id="DejaVuSans-77" d="M 269 3500 
L 844 3500 
L 1563 769 
L 2278 3500 
L 2956 3500 
L 3675 769 
L 4391 3500 
L 4966 3500 
L 4050 0 
L 3372 0 
L 2619 2869 
L 1863 0 
L 1184 0 
L 269 3500 
z
" transform="scale(0.015625)"/>
       <path id="DejaVuSans-61" d="M 2194 1759 
Q 1497 1759 1228 1600 
Q 959 1441 959 1056 
Q 959 750 1161 570 
Q 1363 391 1709 391 
Q 2188 391 2477 730 
Q 2766 1069 2766 1631 
L 2766 1759 
L 2194 1759 
z
M 3341 1997 
L 3341 0 
L 2766 0 
L 2766 531 
Q 2569 213 2275 61 
Q 1981 -91 1556 -91 
Q 1019 -91 701 211 
Q 384 513 384 1019 
Q 384 1609 779 1909 
Q 1175 2209 1959 2209 
L 2766 2209 
L 2766 2266 
Q 2766 2663 2505 2880 
Q 2244 3097 1772 3097 
Q 1472 3097 1187 3025 
Q 903 2953 641 2809 
L 641 3341 
Q 956 3463 1253 3523 
Q 1550 3584 1831 3584 
Q 2591 3584 2966 3190 
Q 3341 2797 3341 1997 
z
" transform="scale(0.015625)"/>
       <path id="DejaVuSans-64" d="M 2906 2969 
L 2906 4863 
L 3481 4863 
L 3481 0 
L 2906 0 
L 2906 525 
Q 2725 213 2448 61 
Q 2172 -91 1784 -91 
Q 1150 -91 751 415 
Q 353 922 353 1747 
Q 353 2572 751 3078 
Q 1150 3584 1784 3584 
Q 2172 3584 2448 3432 
Q 2725 3281 2906 2969 
z
M 947 1747 
Q 947 1113 1208 752 
Q 1469 391 1925 391 
Q 2381 391 2643 752 
Q 2906 1113 2906 1747 
Q 2906 2381 2643 2742 
Q 2381 3103 1925 3103 
Q 1469 3103 1208 2742 
Q 947 2381 947 1747 
z
" transform="scale(0.015625)"/>
      </defs>
      <use xlink:href="#DejaVuSans-72"/>
      <use xlink:href="#DejaVuSans-65" x="38.863281"/>
      <use xlink:href="#DejaVuSans-77" x="100.386719"/>
      <use xlink:href="#DejaVuSans-61" x="182.173828"/>
      <use xlink:href="#DejaVuSans-72" x="243.453125"/>
      <use xlink:href="#DejaVuSans-64" x="282.816406"/>
      <use xlink:href="#DejaVuSans-73" x="346.292969"/>
     </g>
    </g>
   </g>
   <g id="line2d_12">
    <path d="M 73.832727 285.646994 
L 73.917947 283.656174 
L 74.009722 284.531949 
L 74.108053 284.173747 
L 74.212939 285.692748 
L 74.32438 281.858127 
L 74.442376 286.685432 
L 74.809477 278.25712 
L 75.065136 285.975188 
L 75.196244 279.933086 
L 75.340462 283.987186 
L 75.642009 272.38815 
L 75.720673 285.558632 
L 75.884557 276.320751 
L 76.054997 285.145901 
L 76.133661 284.469011 
L 76.245102 281.854457 
L 76.317211 286.416828 
L 76.408986 284.87771 
L 76.487651 287.533231 
L 76.697423 261.709839 
L 76.920305 284.751957 
L 76.998969 284.09103 
L 77.130077 285.705339 
L 77.228407 280.316658 
L 77.346404 283.007876 
L 77.497177 278.379869 
L 77.602063 283.673853 
L 77.765947 268.271688 
L 78.041273 283.253687 
L 78.159269 285.513542 
L 78.296932 278.107846 
L 78.408373 288.679269 
L 78.585368 280.545745 
L 78.926247 202.599178 
L 79.109798 286.611025 
L 79.306459 257.276708 
L 79.444121 282.028433 
L 79.608006 283.552484 
L 79.77189 271.902811 
L 79.883331 285.444954 
L 80.132435 273.776723 
L 80.342207 285.820565 
L 80.499535 281.780986 
L 80.571644 288.051554 
L 80.702752 283.830405 
L 80.807638 286.541502 
L 80.978077 271.588426 
L 81.128851 291.883693 
L 81.318956 263.585285 
L 81.515617 281.498067 
L 81.613948 285.186982 
L 81.784387 265.545072 
L 81.941716 286.458229 
L 82.026936 285.29341 
L 82.400592 268.401555 
L 82.485812 286.81908 
L 82.689028 250.57751 
L 82.787358 289.630681 
L 82.990575 260.924689 
L 83.115127 283.728038 
L 83.292122 263.66696 
L 83.567447 270.823524 
L 83.816551 284.95289 
L 83.927992 279.774842 
L 84.013212 285.848621 
L 84.209873 279.945461 
L 84.295093 283.266035 
L 84.445866 282.304731 
L 84.590084 272.526409 
L 84.760524 287.133023 
L 84.86541 279.759831 
L 85.009628 287.350712 
L 85.140735 287.150072 
L 85.422616 272.960615 
L 85.534057 283.138115 
L 85.67172 278.183268 
L 85.822493 276.836955 
L 85.979822 270.621532 
L 86.202705 284.449597 
L 86.451809 251.354887 
L 86.609137 289.267124 
L 86.753355 260.941102 
L 86.825464 284.678262 
L 86.91724 281.701936 
L 87.113901 277.11941 
L 87.304006 287.752952 
L 87.448224 267.113333 
L 87.55311 284.054549 
L 87.730105 260.669394 
L 88.103761 274.287712 
L 88.44464 243.843138 
L 88.62819 289.390994 
L 88.733076 282.564057 
L 88.975625 246.866213 
L 89.054289 286.105412 
L 89.277172 261.720588 
L 89.460722 286.649879 
L 89.572163 274.769967 
L 89.847489 281.599454 
L 90.063816 275.811141 
L 90.135925 286.681715 
L 90.463693 244.884961 
L 90.653799 288.509995 
L 90.798017 270.137954 
L 90.916013 280.596794 
L 91.079898 272.878911 
L 91.289669 274.872188 
L 91.466664 256.59616 
L 91.610882 280.762346 
L 91.899318 262.412581 
L 92.168088 290.59955 
L 92.240198 285.699536 
L 92.541744 213.807903 
L 92.718739 281.246938 
L 93.105506 180.640462 
L 93.400497 276.680379 
L 93.590603 273.016912 
L 93.774153 283.308576 
L 93.918371 264.901669 
L 94.141254 288.543618 
L 94.33136 256.206937 
L 94.521465 286.892706 
L 94.665683 272.196351 
L 94.731237 287.183902 
L 95.019673 271.409861 
L 95.072116 289.742217 
L 95.334331 278.940895 
L 95.399884 288.957457 
L 95.485104 285.301917 
L 95.563769 284.603106 
L 95.747319 267.775849 
L 95.891537 267.296032 
L 95.996423 285.519762 
L 96.153752 280.067199 
L 96.29797 284.2242 
L 96.573295 279.380988 
L 96.724068 269.292546 
L 96.83551 282.038624 
L 97.071503 254.720759 
L 97.255053 263.642326 
L 97.405827 281.447174 
L 97.622154 277.585584 
L 97.707374 285.356773 
L 98.048253 197.863198 
L 98.330133 286.619324 
L 98.539905 259.921019 
L 98.7169 288.495724 
L 98.821786 283.050321 
L 98.88734 287.215672 
L 98.992225 281.88687 
L 99.090556 289.81632 
L 99.182331 288.287077 
L 99.477323 275.047299 
L 99.667428 280.919665 
L 99.929643 267.18467 
L 100.001752 286.531188 
L 100.172191 285.078951 
L 100.421295 285.288893 
L 100.486849 287.119636 
L 100.696621 266.696819 
L 100.794951 280.645849 
L 100.899837 278.327648 
L 100.958835 288.34824 
L 101.260382 262.701457 
L 101.522597 288.652104 
L 101.647149 282.084836 
L 101.74548 284.045838 
L 102.033916 258.53855 
L 102.119135 287.8495 
L 102.29613 278.985003 
L 102.519013 249.03879 
L 102.722229 256.89716 
L 102.840226 279.21391 
L 103.154883 287.616296 
L 103.44332 241.991671 
L 103.528539 286.461777 
L 103.620314 285.755204 
L 103.692423 288.255543 
L 103.934972 271.401843 
L 104.16441 289.862078 
L 104.420069 273.443031 
L 104.485623 289.058869 
L 104.590509 284.207496 
L 104.682284 289.970784 
L 104.774059 282.969559 
L 105.15427 186.192315 
L 105.770475 284.625852 
L 106.052356 227.172633 
L 106.334236 283.68653 
L 106.511231 269.715133 
L 106.57023 289.452719 
L 106.688226 282.995482 
L 106.760335 288.796638 
L 106.983218 253.631192 
L 107.186434 286.494077 
L 107.278209 282.424512 
L 107.37654 283.820386 
L 107.47487 283.086023 
L 107.546979 285.589135 
L 107.769862 277.141455 
L 108.01241 284.679379 
L 108.169739 270.788286 
L 108.248403 287.041338 
L 108.54995 240.175965 
L 108.615504 287.871493 
L 108.707279 286.122251 
L 109.061269 258.35282 
L 109.389037 276.01464 
L 109.533255 274.161382 
L 109.61192 288.701431 
L 109.906911 241.70313 
L 109.992131 288.679144 
L 110.123238 274.685939 
L 110.24779 273.684951 
L 110.457562 276.866338 
L 110.569003 283.691042 
L 110.719777 281.257098 
L 110.975436 232.867613 
L 111.086877 277.570293 
L 111.22454 280.365027 
L 111.709637 261.925742 
L 111.952186 241.011416 
L 112.076738 281.12631 
L 112.227511 270.660233 
L 112.338952 285.067392 
L 112.496281 283.414016 
L 112.627389 283.641038 
L 112.869937 264.545021 
L 112.987934 286.490044 
L 113.420588 240.574348 
L 113.499252 284.185584 
L 113.617249 274.922512 
L 113.81391 273.971863 
L 113.971239 284.607763 
L 114.26623 212.151842 
L 114.462891 254.740671 
L 115.308534 168.810532 
L 115.400309 283.293419 
L 115.537971 281.554733 
L 115.642857 278.716767 
L 115.708411 286.583479 
L 115.970626 233.668701 
L 116.324615 270.872791 
L 116.495055 277.123761 
L 116.560609 288.798551 
L 116.652384 285.71009 
L 116.763825 284.386327 
L 117.03915 268.05324 
L 117.216145 272.812458 
L 117.524248 259.124808 
L 117.766796 269.79015 
L 117.983123 289.311622 
L 118.133897 274.234231 
L 118.514108 182.846132 
L 118.612439 280.145156 
L 118.900875 243.724947 
L 118.979539 285.424128 
L 119.104091 283.737619 
L 119.254864 273.880506 
L 119.53019 270.307396 
L 119.739962 285.025865 
L 119.956289 282.375813 
L 120.107062 286.205066 
L 120.211948 279.752996 
L 120.290612 288.840833 
L 120.375832 288.82227 
L 120.526606 277.538356 
L 120.677379 277.109955 
L 120.749488 288.90711 
L 120.854374 281.002529 
L 121.037924 281.815079 
L 121.103478 288.743377 
L 121.59513 240.451456 
L 121.739349 284.853242 
L 121.831124 284.285925 
L 121.988452 282.707572 
L 122.270333 272.567403 
L 122.401441 272.839186 
L 122.578436 266.981472 
L 122.807873 264.768897 
L 123.043867 274.12334 
L 123.207751 288.071662 
L 123.358524 275.383755 
L 123.483076 283.720913 
L 123.607628 280.60731 
L 123.850177 287.924961 
L 124.08617 282.328946 
L 124.145168 288.393004 
L 124.26972 281.11193 
L 124.328718 288.64616 
L 124.545046 271.388496 
L 124.70893 275.6638 
L 124.79415 285.988695 
L 124.931812 273.775798 
L 125.187472 237.982376 
L 125.279247 283.476739 
L 125.469352 269.294263 
L 125.672569 272.077781 
L 125.810231 282.390332 
L 126.072446 279.805263 
L 126.157666 283.962507 
L 126.334661 277.165206 
L 126.419881 285.720017 
L 126.819758 262.361117 
L 127.009864 283.773618 
L 127.291744 264.556866 
L 127.449073 275.995673 
L 128.052167 55.846985 
L 128.275049 253.944307 
L 128.596262 264.648302 
L 128.858477 284.362612 
L 129.09447 249.735839 
L 129.173135 289.380685 
L 129.330463 264.731556 
L 129.500903 288.88168 
L 129.789339 278.445232 
L 129.913891 276.13247 
L 130.025332 285.889764 
L 130.235104 257.189575 
L 130.484208 284.902428 
L 130.582538 282.220943 
L 130.667758 286.59102 
L 130.752978 283.39036 
L 130.851309 287.724716 
L 130.943084 287.205897 
L 131.185632 272.9646 
L 131.388849 281.258392 
L 131.624842 271.31815 
L 131.762505 275.095741 
L 131.900167 283.796481 
L 131.998498 281.330888 
L 132.077162 288.690402 
L 132.182048 286.795294 
L 132.280379 281.772355 
L 132.372154 286.679824 
L 132.634368 281.341675 
L 132.84414 255.768097 
L 133.086689 264.481777 
L 133.257128 260.139541 
L 133.316126 288.107624 
L 133.598007 244.080297 
L 133.696338 286.313717 
L 133.794668 285.445788 
L 134.00444 249.377469 
L 134.083104 287.669282 
L 134.384651 279.431439 
L 134.476426 280.516602 
L 134.548535 286.993924 
L 134.843527 252.880847 
L 135.046743 285.840052 
L 135.26307 268.250609 
L 135.590839 225.577063 
L 135.846498 277.20637 
L 136.023493 286.464001 
L 136.220154 262.245977 
L 136.311929 282.60051 
L 136.41026 279.741857 
L 137.072352 288.192114 
L 137.367343 279.327663 
L 137.459118 284.647515 
L 137.557449 280.56583 
L 137.799997 285.546371 
L 137.924549 282.297785 
L 138.075323 266.439597 
L 138.153987 283.765807 
L 138.330982 276.736379 
L 138.455534 281.321978 
L 138.625974 267.960728 
L 138.796413 287.240875 
L 138.861967 288.136601 
L 138.953742 283.059329 
L 139.202846 252.84873 
L 139.392952 260.157001 
L 139.609279 284.181514 
L 139.760052 275.183747 
L 139.832161 286.57358 
L 140.120597 285.084851 
L 140.218928 280.630827 
L 140.350035 280.498429 
L 140.435255 289.197071 
L 140.533585 284.252342 
L 140.763023 253.434119 
L 140.867909 288.208597 
L 140.96624 286.01055 
L 141.169456 275.519247 
L 141.228454 289.572565 
L 141.307119 284.685904 
L 141.471003 274.924778 
L 141.536557 288.198447 
L 141.779105 281.723223 
L 142.008543 247.060833 
L 142.093763 281.719139 
L 142.198649 281.041378 
L 142.342867 273.538026 
L 142.421531 286.97861 
L 142.532972 286.628321 
L 142.768966 264.220128 
L 142.893518 276.018775 
L 143.109845 260.593616 
L 143.168843 289.86215 
L 143.260618 284.071588 
L 143.378615 282.29641 
L 143.503167 284.207044 
L 143.975153 184.501275 
L 144.158703 288.551838 
L 144.453695 282.335015 
L 144.578247 285.056747 
L 144.89946 251.237356 
L 145.024012 274.369191 
L 145.194451 259.495863 
L 145.397668 288.489311 
L 145.568107 280.779146 
L 145.633661 287.099575 
L 145.70577 286.006546 
L 145.764768 289.010224 
L 145.856543 283.120084 
L 145.928652 288.018203 
L 146.184312 269.965911 
L 146.256421 285.633614 
L 146.446526 276.454943 
L 146.761184 287.167093 
L 146.872625 283.328595 
L 146.9644 286.97723 
L 147.187283 280.979279 
L 147.259392 286.533707 
L 147.331501 286.192104 
L 147.48883 267.493185 
L 147.554383 291.338139 
L 147.829709 269.744972 
L 148.11159 284.930488 
L 148.400026 261.573621 
L 148.596687 263.383489 
L 148.655685 288.479202 
L 148.767126 282.641247 
L 148.9179 281.35091 
L 149.01623 287.679311 
L 149.193225 267.722575 
L 149.429218 282.116505 
L 149.612769 259.929999 
L 149.783208 269.954184 
L 149.874983 286.501399 
L 150.209307 247.281808 
L 150.314193 283.835824 
L 150.432189 282.728005 
L 150.858288 194.886951 
L 150.950063 281.854556 
L 151.127058 255.192939 
L 151.2385 285.046137 
L 151.389273 283.018438 
L 151.553157 286.359014 
L 151.684265 275.117326 
L 151.756374 286.412379 
L 151.939924 289.778418 
L 152.051365 282.472987 
L 152.195583 288.844867 
L 152.333246 270.312555 
L 152.425021 281.312136 
L 152.543018 280.095591 
L 152.68068 270.736625 
L 152.85112 286.483719 
L 153.047781 275.141263 
L 153.165777 275.879679 
L 153.309996 268.505224 
L 153.421437 282.040961 
L 153.631208 273.034349 
L 153.716428 284.418966 
L 153.873757 267.812317 
L 153.985198 278.634997 
L 154.116306 277.614064 
L 154.332633 282.8169 
L 154.46374 271.786997 
L 154.614514 274.899072 
L 154.758732 272.881635 
L 154.824285 289.803186 
L 155.034057 283.828239 
L 155.112721 286.752732 
L 155.224163 276.817227 
L 155.342159 284.536364 
L 155.610929 273.336273 
L 155.70926 280.336738 
L 155.958364 279.271233 
L 156.34513 173.503585 
L 156.528681 280.865708 
L 156.679454 277.282527 
L 156.817117 278.140085 
L 156.948224 275.830622 
L 157.085887 285.966257 
L 157.190773 281.07549 
L 157.256326 287.393591 
L 157.348102 284.738031 
L 157.466098 274.438605 
L 157.564429 280.099852 
L 157.800422 276.313067 
L 157.905308 277.380947 
L 157.997083 289.011637 
L 158.416626 207.330418 
L 158.501846 289.186305 
L 158.685396 277.841058 
L 158.757505 286.848115 
L 158.92139 268.171966 
L 159.072163 269.147369 
L 159.229492 287.581066 
L 159.360599 281.312594 
L 159.563816 257.802651 
L 159.688367 282.516591 
L 159.871918 269.611093 
L 159.99647 284.225507 
L 160.219352 243.860335 
L 160.317683 286.809154 
L 160.494678 263.368075 
L 160.697894 288.739491 
L 160.809335 279.779243 
L 160.914221 281.002147 
L 161.032218 276.941827 
L 161.222323 278.201696 
L 161.353431 279.915116 
L 161.628756 256.474642 
L 161.845083 284.664463 
L 161.976191 287.483581 
L 162.133519 267.603526 
L 162.290848 262.593436 
L 162.395734 282.72971 
L 162.76939 257.184266 
L 162.939829 289.466915 
L 163.143046 262.079059 
L 163.261042 276.929481 
L 163.438037 265.406836 
L 163.503591 286.253639 
L 163.641254 284.565209 
L 163.824804 263.966777 
L 164.11324 287.054309 
L 164.224681 286.937605 
L 164.342678 274.638201 
L 164.401676 289.003893 
L 164.716334 274.02069 
L 164.853997 289.738184 
L 165.18832 231.580438 
L 165.391537 280.161965 
L 165.594753 269.332242 
L 165.830746 287.402763 
L 165.961854 273.870188 
L 166.073295 282.274021 
L 166.230624 267.468716 
L 166.302733 284.660554 
L 166.414174 284.157538 
L 166.525615 279.745553 
L 166.656723 279.703245 
L 166.735387 285.084351 
L 166.945159 266.352618 
L 167.161486 287.767189 
L 167.266372 287.621634 
L 167.371257 286.926022 
L 167.620361 271.596063 
L 167.77769 268.907847 
L 168.026794 234.844701 
L 168.269343 279.250052 
L 168.348007 284.767119 
L 168.466004 279.027713 
L 168.734774 284.095869 
L 168.833104 279.406981 
L 168.931435 285.542963 
L 169.193649 273.95681 
L 169.423087 252.071142 
L 169.613193 276.471347 
L 169.770522 278.545501 
L 169.888518 276.658671 
L 170.019626 278.836395 
L 170.176955 287.702189 
L 170.301506 282.66225 
L 170.380171 284.659572 
L 170.563721 278.901215 
L 170.727605 285.549066 
L 170.970154 252.994755 
L 171.166815 261.165026 
L 171.324144 260.971566 
L 171.658467 288.145371 
L 171.769909 284.505437 
L 171.914127 284.582517 
L 171.97968 287.614795 
L 172.33367 202.37431 
L 172.536887 275.580015 
L 172.694215 272.586092 
L 172.759769 287.427501 
L 172.943319 271.640871 
L 173.074427 291.38123 
L 173.271088 264.215711 
L 173.474304 265.794237 
L 174.097064 144.228215 
L 174.260948 277.269511 
L 174.431388 261.16108 
L 174.503497 286.928466 
L 174.634604 272.670396 
L 174.785377 270.334429 
L 174.850931 288.349823 
L 175.001705 277.595586 
L 175.36225 226.009823 
L 175.473691 284.429468 
L 175.768682 260.340322 
L 175.926011 268.379604 
L 176.142338 263.344794 
L 176.214447 284.668807 
L 176.404553 254.44267 
L 176.640546 243.022292 
L 176.876539 287.95056 
L 176.97487 286.262984 
L 177.164976 276.442635 
L 177.315749 275.757197 
L 177.387858 288.360582 
L 177.51241 276.782248 
L 177.676294 289.379644 
L 177.892621 274.730791 
L 178.082727 257.452994 
L 178.469494 287.165448 
L 178.548158 285.465476 
L 178.659599 278.835877 
L 178.738264 283.850805 
L 178.823483 282.61185 
L 179.013589 260.806876 
L 179.085698 288.276894 
L 179.708458 53.568 
L 179.813344 279.022879 
L 180.147668 206.696872 
L 180.291886 278.199793 
L 180.429548 272.528392 
L 180.508213 284.749531 
L 180.672097 272.074055 
L 180.790094 273.624466 
L 180.868758 285.780936 
L 180.967088 279.837347 
L 181.111307 288.004371 
L 181.288301 279.527221 
L 181.366966 285.949913 
L 181.478407 276.400294 
L 181.557071 286.040051 
L 181.878284 210.745048 
L 182.074945 263.842277 
L 182.494489 285.028368 
L 182.573153 288.269012 
L 182.782925 249.786342 
L 183.084472 287.202347 
L 183.163136 287.535429 
L 183.268022 282.436603 
L 183.340131 285.461268 
L 183.438462 282.633002 
L 183.517126 287.835346 
L 183.68101 284.569955 
L 183.976002 234.612055 
L 184.093998 286.251078 
L 184.21855 282.809872 
L 184.362768 287.265034 
L 184.493876 277.901373 
L 184.579096 284.005583 
L 184.867532 271.913692 
L 185.241188 277.481882 
L 185.339518 284.579059 
L 185.457515 277.881776 
L 185.562401 279.427439 
L 185.700063 278.626275 
L 185.870503 286.925299 
L 186.008166 270.586106 
L 186.27038 283.425213 
L 186.375266 281.45391 
L 186.545706 287.287315 
L 186.611259 286.340832 
L 186.89314 240.327407 
L 186.971805 285.791939 
L 187.043914 285.738072 
L 187.102912 291.396595 
L 187.188132 286.791567 
L 187.260241 287.778682 
L 187.437236 283.794422 
L 187.5159 287.785873 
L 187.653563 277.088751 
L 187.732227 288.751967 
L 187.824002 285.592958 
L 188.197658 260.625935 
L 188.289433 285.720773 
L 188.381208 282.119273 
L 188.807307 179.133877 
L 188.866306 290.017378 
L 188.984302 276.318746 
L 189.069522 284.045251 
L 189.272738 270.154292 
L 189.508731 285.467936 
L 189.561174 290.568845 
L 189.803723 262.313365 
L 189.947941 264.289341 
L 190.144602 282.663222 
L 190.229822 285.11991 
L 190.478926 273.134459 
L 190.610033 274.72585 
L 190.714919 279.454501 
L 190.832916 276.510874 
L 191.016466 288.470348 
L 191.18035 287.606904 
L 191.26557 284.022703 
L 191.324568 289.305003 
L 191.573672 270.836402 
L 191.744112 287.696312 
L 191.842442 282.925649 
L 191.914551 287.607884 
L 192.039103 275.826201 
L 192.111212 286.450126 
L 192.261986 271.187414 
L 192.530756 231.597227 
L 192.602865 286.615769 
L 192.707751 282.653973 
L 193.127294 211.007573 
L 193.212514 287.036936 
L 193.291178 285.021877 
L 193.41573 278.675615 
L 193.527171 281.799391 
L 193.59928 288.911701 
L 193.972936 190.024247 
L 194.22204 284.031312 
L 194.451478 282.467894 
L 194.556364 285.996227 
L 194.641584 285.267077 
L 194.739914 279.559823 
L 194.812023 285.628994 
L 194.995574 272.109675 
L 195.061127 287.011642 
L 195.225011 272.931563 
L 195.349563 275.112861 
L 195.415117 287.703092 
L 195.493781 284.662381 
L 195.546224 290.238154 
L 195.723219 265.881626 
L 195.828105 285.315619 
L 195.91988 282.138717 
L 196.044432 280.56011 
L 196.286981 282.991789 
L 196.372201 288.258463 
L 196.673748 259.693837 
L 196.739301 287.138228 
L 196.870409 275.090101 
L 196.962184 287.119696 
L 197.06707 278.617897 
L 197.185066 281.361028 
L 197.316173 268.009267 
L 197.407949 282.153205 
L 197.512834 282.028784 
L 197.598054 285.394115 
L 197.807826 281.523362 
L 197.893046 282.438277 
L 197.965155 286.969069 
L 198.089707 282.001567 
L 198.174927 283.964383 
L 198.312589 278.793724 
L 198.41092 280.606082 
L 198.528916 277.815136 
L 198.620691 282.801602 
L 198.889462 234.69087 
L 199.184453 221.804654 
L 199.538443 286.684126 
L 199.66955 270.550574 
L 199.721993 289.603448 
L 199.833434 279.158286 
L 200.102204 285.498381 
L 200.364419 253.365198 
L 200.587302 286.158969 
L 200.718409 286.206544 
L 200.797073 287.200794 
L 200.91507 281.686452 
L 201.072399 283.102154 
L 201.177285 282.784602 
L 201.26906 282.885464 
L 201.570607 275.729866 
L 201.727935 286.255532 
L 201.944262 275.704561 
L 202.180256 287.301305 
L 202.265475 286.09002 
L 202.376917 276.097106 
L 202.560467 276.326987 
L 202.61291 289.248813 
L 202.704685 284.871035 
L 202.789905 284.447848 
L 202.894791 282.809875 
L 202.999677 275.859518 
L 203.183227 286.457132 
L 203.347111 260.072357 
L 203.412665 286.428873 
L 203.484774 286.219387 
L 203.701101 272.202887 
L 203.923983 287.595712 
L 203.989537 288.544251 
L 204.068201 287.208345 
L 204.166532 282.391853 
L 204.232086 286.481366 
L 204.330416 279.526153 
L 204.40908 282.935817 
L 204.500856 280.32702 
L 204.586075 286.627504 
L 204.782736 281.811963 
L 204.874511 287.626556 
L 204.940065 287.165547 
L 205.090839 284.473864 
L 205.162948 285.957279 
L 205.307166 282.277909 
L 205.38583 284.982686 
L 205.549714 274.47183 
L 205.674266 277.329063 
L 205.73982 286.859355 
L 205.956147 282.022399 
L 206.015145 289.191883 
L 206.218362 289.607088 
L 206.36258 287.337009 
L 206.415023 289.448608 
L 206.736236 278.59722 
L 206.828011 281.466761 
L 206.893564 290.353558 
L 207.005006 277.116358 
L 207.070559 287.268021 
L 207.234444 267.289956 
L 207.306553 287.636263 
L 207.398328 280.756875 
L 207.496658 283.853773 
L 207.614655 271.996551 
L 207.732651 274.034253 
L 207.870314 280.093851 
L 207.942423 288.212903 
L 208.15875 272.297639 
L 208.368522 285.415012 
L 208.538962 284.243409 
L 208.663514 267.457292 
L 208.853619 286.347158 
L 209.010948 287.361323 
L 209.148611 283.311278 
L 209.22072 286.236785 
L 209.430491 267.992885 
L 209.496045 290.41375 
L 209.57471 286.518615 
L 209.850035 280.030635 
L 210.013919 271.712754 
L 210.145026 287.746916 
L 210.387575 260.629346 
L 210.485906 284.834856 
L 210.577681 280.432141 
L 210.702233 285.219412 
L 211.043112 203.640617 
L 211.147998 285.359413 
L 211.27255 278.185857 
L 211.436434 278.657531 
L 211.593763 266.139678 
L 211.652761 290.032196 
L 211.783868 269.811363 
L 211.914976 268.555131 
L 212.039528 283.709805 
L 212.183746 268.867091 
L 212.268965 284.945608 
L 212.354185 282.11698 
L 212.419739 287.53169 
L 212.727841 276.184133 
L 212.852393 285.704311 
L 213.081831 276.164141 
L 213.278492 287.571442 
L 213.350601 286.252504 
L 213.435821 286.206019 
L 213.652148 254.811212 
L 213.796366 284.804906 
L 213.894696 281.22022 
L 214.071691 284.170703 
L 214.235575 274.342438 
L 214.307684 287.670377 
L 214.379793 285.873607 
L 214.491235 277.953479 
L 214.563344 287.585112 
L 214.635453 285.202005 
L 214.746894 284.938821 
L 214.963221 281.608193 
L 215.03533 285.877378 
L 215.212325 284.494508 
L 215.336877 289.322479 
L 215.408986 285.385849 
L 215.566315 289.127568 
L 215.703978 273.998312 
L 215.789197 285.989432 
L 215.861306 285.804 
L 215.939971 285.576054 
L 216.19563 264.370341 
L 216.516843 210.096606 
L 216.779058 285.607913 
L 216.936387 269.398136 
L 217.028162 284.223788 
L 217.211712 274.679329 
L 217.572257 211.690999 
L 217.998356 279.067204 
L 218.149129 259.182905 
L 218.273681 277.730776 
L 218.588339 285.544121 
L 218.712891 274.157911 
L 218.863664 286.97473 
L 218.942329 284.042606 
L 219.099658 268.949913 
L 219.178322 284.95898 
L 219.289763 278.571171 
L 219.427426 279.243733 
L 219.558533 271.577187 
L 219.67653 283.116058 
L 219.807637 271.702525 
L 219.984632 275.94094 
L 220.187849 287.72762 
L 220.318956 279.117953 
L 220.515617 284.101703 
L 220.65328 273.406102 
L 220.777832 273.990589 
L 220.869607 284.17322 
L 220.948271 283.51572 
L 221.079378 273.894925 
L 221.158043 285.766067 
L 221.741471 195.910164 
L 221.905355 289.410446 
L 221.99713 284.255307 
L 222.167569 261.271795 
L 222.403563 282.575257 
L 222.495338 284.577845 
L 222.685443 254.426895 
L 222.757552 288.373344 
L 222.88866 284.151142 
L 222.960769 284.683839 
L 223.059099 286.997636 
L 223.380312 278.535554 
L 223.452421 287.524239 
L 223.531086 286.060403 
L 223.727747 281.705572 
L 223.806411 287.355016 
L 223.871965 286.758479 
L 223.937518 287.746052 
L 224.134179 266.08407 
L 224.23251 279.339803 
L 224.389839 281.253706 
L 224.475059 284.756064 
L 224.67172 266.518056 
L 224.750384 287.709891 
L 225.025709 277.540889 
L 225.235481 256.782497 
L 225.320701 286.543698 
L 225.419031 280.822302 
L 225.504251 282.823898 
L 225.687801 259.87644 
L 225.969682 267.676856 
L 226.048347 283.495785 
L 226.205675 264.782423 
L 226.304006 281.530135 
L 226.408892 279.335479 
L 226.500667 288.061218 
L 226.625219 287.130396 
L 226.82188 283.162052 
L 226.979209 268.548249 
L 227.077539 284.164648 
L 227.503638 168.836961 
L 227.582302 285.008186 
L 227.687188 283.232805 
L 227.785519 283.101471 
L 227.942848 272.672474 
L 228.021512 284.818789 
L 228.218173 268.287063 
L 228.296837 289.995933 
L 228.467277 267.195004 
L 228.61805 281.094678 
L 228.801601 255.09742 
L 228.893376 282.000718 
L 229.044149 270.845354 
L 229.306364 241.372537 
L 229.417805 284.365969 
L 229.68002 272.964069 
L 229.935679 252.971457 
L 230.001233 291.35431 
L 230.31589 206.005997 
L 230.48633 289.202208 
L 230.610882 279.662914 
L 230.833764 289.424393 
L 231.089424 282.379935 
L 231.482746 287.747863 
L 231.705628 248.097974 
L 231.790848 282.591976 
L 231.889178 280.801339 
L 232.197281 209.230933 
L 232.315277 275.249983 
L 232.45294 284.649076 
L 232.577492 278.99068 
L 232.728265 289.950912 
L 232.964259 256.114548 
L 233.056034 286.634387 
L 233.180586 282.697984 
L 233.423134 266.866155 
L 233.587018 267.522767 
L 233.69846 288.500253 
L 233.947564 275.035746 
L 234.045894 281.620483 
L 234.465438 153.795082 
L 234.537547 288.345541 
L 234.648988 284.762109 
L 234.845649 254.419421 
L 235.061976 247.976323 
L 235.179973 286.317245 
L 235.586405 251.203914 
L 235.756845 288.812633 
L 235.868286 275.776718 
L 235.953506 285.258063 
L 236.28783 238.221332 
L 236.392716 280.104605 
L 236.504157 278.640949 
L 236.65493 289.719157 
L 236.858147 276.452256 
L 236.930256 284.41654 
L 237.133472 281.343526 
L 237.271135 271.705188 
L 237.657901 196.180235 
L 237.933227 227.145841 
L 238.084 277.423006 
L 238.234774 287.492793 
L 238.529765 277.881872 
L 238.647762 283.441087 
L 239.06075 165.46676 
L 239.224634 266.984371 
L 239.454072 262.113068 
L 239.676954 281.01319 
L 239.853949 283.991005 
L 240.13583 267.775895 
L 240.286603 267.40446 
L 240.457043 286.384454 
L 240.601261 276.998715 
L 240.765145 248.859932 
L 241.092914 237.568151 
L 241.433793 288.851107 
L 241.663231 272.887822 
L 241.814004 283.336462 
L 241.951667 275.649915 
L 242.194215 237.39923 
L 242.299101 279.330581 
L 242.436764 285.864007 
L 242.63998 237.310111 
L 242.764532 282.138332 
L 242.934972 262.783453 
L 243.020191 287.803136 
L 243.118522 277.543766 
L 243.210297 286.652112 
L 243.413513 270.106978 
L 243.524955 283.178499 
L 243.937943 191.940935 
L 244.344376 173.556346 
L 244.626256 286.288195 
L 244.718031 280.127194 
L 244.836028 279.834204 
L 244.993357 287.918608 
L 245.176907 276.94673 
L 245.406345 278.103237 
L 245.76689 200.795633 
L 245.838999 289.892963 
L 245.930774 283.066155 
L 246.03566 278.458488 
L 246.186434 276.724492 
L 246.435538 282.631459 
L 246.546979 290.291066 
L 246.769861 276.863735 
L 246.887858 277.291413 
L 247.300846 230.294654 
L 247.438509 287.793372 
L 247.54995 280.625229 
L 247.674502 281.867734 
L 247.949827 274.332673 
L 248.225153 218.407251 
L 248.303817 288.631235 
L 248.664362 269.413082 
L 249.051129 167.246105 
L 249.287122 286.864221 
L 249.405119 280.636957 
L 249.595224 249.243361 
L 249.687 280.718972 
L 249.804996 269.276751 
L 249.87055 286.384674 
L 250.126209 262.477896 
L 250.217984 282.304786 
L 250.427756 272.32007 
L 250.663749 278.608789 
L 250.834189 291.145679 
L 251.12918 285.469573 
L 251.207845 286.752766 
L 251.39795 276.928812 
L 251.476615 286.387577 
L 251.555279 285.658123 
L 251.915824 249.613773 
L 251.974823 291.359446 
L 252.119041 270.513841 
L 252.355034 259.260134 
L 252.433698 285.481154 
L 252.636915 241.860774 
L 252.905685 225.235432 
L 253.036792 281.916055 
L 253.174455 280.998392 
L 253.259675 284.941829 
L 253.371116 276.060121 
L 253.521889 290.239529 
L 253.751327 276.720221 
L 253.869324 282.819968 
L 253.97421 279.389222 
L 254.092206 287.559451 
L 254.328199 278.469961 
L 254.498639 278.942873 
L 254.61008 280.274995 
L 254.885406 213.905854 
L 254.957515 288.159678 
L 255.095177 286.953232 
L 255.259061 270.286088 
L 255.33117 288.320355 
L 255.422946 286.324499 
L 255.527831 279.041932 
L 255.67205 292.76926 
L 256.026039 192.906455 
L 256.648799 257.539221 
L 256.871682 232.692264 
L 256.983123 285.679488 
L 257.120786 291.199879 
L 257.684547 224.144344 
L 258.09098 203.574414 
L 258.195866 276.16363 
L 258.576077 208.267323 
L 258.687518 278.694616 
L 258.89729 244.280015 
L 259.107062 245.670307 
L 259.270946 286.154462 
L 259.388943 287.886428 
L 259.939593 238.863558 
L 260.123144 253.391975 
L 260.175587 289.493767 
L 260.405024 239.954841 
L 260.562353 286.786591 
L 260.909788 274.693747 
L 261.001563 279.9994 
L 261.21789 247.531752 
L 261.381774 265.126153 
L 261.57188 257.244527 
L 261.794762 286.999839 
L 261.945536 281.469813 
L 262.089754 270.27129 
L 262.371635 209.298833 
L 262.574851 290.182157 
L 262.758401 267.940444 
L 262.850176 285.487693 
L 263.053393 235.365486 
L 263.145168 286.685424 
L 263.545045 168.384126 
L 263.800705 217.801011 
L 263.90559 277.497268 
L 264.010476 276.976907 
L 264.508684 165.109643 
L 264.672568 286.35662 
L 265.000337 243.675304 
L 265.216664 269.926429 
L 265.714872 166.856933 
L 265.845979 291.303638 
L 266.186858 213.728149 
L 266.652289 166.423627 
L 266.76373 273.82005 
L 266.966947 237.066545 
L 267.111165 266.47119 
L 267.353713 224.79879 
L 267.484821 274.597017 
L 268.022361 154.630667 
L 268.101025 286.550592 
L 268.389461 290.757066 
L 269.012221 221.832808 
L 269.182661 270.084697 
L 269.379322 258.61758 
L 269.589093 289.662737 
L 269.772644 260.675207 
L 270.002082 284.815813 
L 270.113523 281.971327 
L 270.5134 172.339625 
L 270.847724 200.259068 
L 271.031274 291.333238 
L 271.398375 205.420937 
L 271.522927 287.948741 
L 271.719588 238.020291 
L 271.909693 287.294718 
L 271.988358 282.463083 
L 272.375124 292.311748 
L 272.512787 280.039188 
L 272.722559 235.168796 
L 273.056883 285.966708 
L 273.135547 286.716445 
L 273.260099 285.016326 
L 273.646866 222.936932 
L 273.771418 277.2707 
L 273.981189 234.533615 
L 274.315513 201.750099 
L 274.538395 233.185704 
L 274.748167 289.091912 
L 275.075936 191.153107 
L 275.266041 239.652695 
L 275.672474 188.067586 
L 275.928133 287.591296 
L 276.085462 257.222604 
L 276.164126 286.829718 
L 276.799997 200.612366 
L 277.094989 217.278887 
L 277.180208 282.031084 
L 277.770191 226.279882 
L 277.907854 294.651201 
L 277.993074 286.155155 
L 278.09796 279.70364 
L 278.524059 295.471991 
L 278.786273 219.609443 
L 278.923936 274.073496 
L 279.140263 232.693756 
L 279.658137 171.200391 
L 279.887575 289.007053 
L 279.999016 286.969774 
L 280.294008 211.511375 
L 280.654553 186.457413 
L 281.034764 287.324477 
L 281.152761 274.493807 
L 281.382199 229.957648 
L 281.532972 288.472606 
L 282.096734 118.469948 
L 282.247507 252.261714 
L 282.424502 243.367583 
L 282.588386 286.64431 
L 282.909599 199.954474 
L 283.19148 211.591722 
L 283.401252 291.346706 
L 283.735575 290.362143 
L 284.09612 219.480945 
L 284.325558 229.224733 
L 284.659882 205.279884 
L 284.915541 270.719892 
L 285.433415 216.229124 
L 286.23317 84.256736 
L 286.442942 236.279539 
L 286.94115 165.609365 
L 287.288584 252.351643 
L 287.570465 212.393557 
L 287.878567 228.735381 
L 288.042451 247.030418 
L 288.547215 220.150716 
L 288.999535 291.548869 
L 289.163419 292.072692 
L 289.419078 227.544212 
L 289.891065 173.999257 
L 290.048394 293.047467 
L 290.245055 290.185624 
L 290.507269 220.434512 
L 290.70393 282.381963 
L 291.044809 191.606733 
L 291.418465 285.949062 
L 291.706901 210.136472 
L 292.139556 189.817396 
L 292.250997 273.634474 
L 292.532878 211.734967 
L 292.788537 226.865234 
L 293.430963 204.591172 
L 293.621069 289.689397 
L 293.883283 279.302921 
L 294.014391 282.850305 
L 294.152053 295.488 
L 294.545375 195.075629 
L 294.768258 231.189305 
L 294.925587 288.886889 
L 295.233689 207.625631 
L 295.312353 287.431057 
L 295.895781 241.249343 
L 296.072776 273.763186 
L 296.249771 243.46401 
L 296.348101 286.50681 
L 296.702091 208.779928 
L 297.324851 286.354313 
L 297.698507 261.352894 
L 297.967277 224.517035 
L 298.157382 240.597171 
L 298.498261 212.117117 
L 298.701478 237.634451 
L 298.989914 230.260823 
L 299.19313 237.202523 
L 299.44879 217.274491 
L 299.645451 287.947716 
L 299.953553 221.343021 
L 300.104326 295.18928 
L 300.602534 174.277439 
L 300.923747 210.400842 
L 301.362957 277.378902 
L 302.339706 181.453512 
L 303.277124 246.665113 
L 303.486896 233.804885 
L 304.109656 270.358548 
L 304.358759 225.340926 
L 305.119182 236.485361 
L 305.453506 206.21927 
L 305.899271 251.302231 
L 306.076266 243.631676 
L 306.371257 258.275806 
L 306.666249 213.938715 
L 307.184123 292.843758 
L 307.407005 228.617757 
L 307.675775 283.143565 
L 307.85277 291.945475 
L 308.075653 231.79031 
L 308.298535 231.214844 
L 308.449308 292.681825 
L 308.672191 288.313864 
L 309.321172 214.854309 
L 309.511278 287.705315 
L 310.337254 216.463005 
L 310.481472 294.846299 
L 310.651912 244.484662 
L 311.228784 224.134184 
L 311.884321 216.689308 
L 312.146535 229.852692 
L 312.271087 290.021883 
L 312.520191 223.021411 
L 312.972512 232.385123 
L 313.12984 293.103032 
L 313.293725 292.846385 
L 313.48383 291.836309 
L 313.634604 287.325619 
L 314.355694 200.751925 
L 314.55891 236.108616 
L 314.755571 239.067567 
L 314.926011 245.735314 
L 315.109561 241.740451 
L 315.273445 247.853672 
L 315.470106 286.513356 
L 315.738876 215.366417 
L 315.915871 291.479514 
L 316.145309 226.668696 
L 316.689405 160.109943 
L 317.017173 226.632043 
L 317.253166 222.031375 
L 317.613711 246.267494 
L 317.823483 287.892811 
L 318.026699 235.55576 
L 318.918229 146.884094 
L 319.075558 290.453977 
L 319.377105 204.465979 
L 319.567211 239.239943 
L 319.934311 214.000366 
L 320.209637 216.060858 
L 320.419408 287.310505 
L 320.642291 232.207926 
L 321.127388 181.768168 
L 321.33716 231.90862 
L 321.533821 238.72018 
L 321.796035 222.225441 
L 321.940253 295.287936 
L 322.386018 233.879158 
L 322.641678 221.593442 
L 323.618427 147.672279 
L 323.946196 274.510847 
L 324.155968 233.517122 
L 324.332962 244.364892 
L 324.509957 243.83187 
L 324.798393 232.727887 
L 324.988499 238.579109 
L 325.139273 293.905843 
L 325.316267 243.39006 
L 325.512928 238.06767 
L 325.650591 293.887539 
L 325.899695 224.569057 
L 326.070135 286.212675 
L 326.26024 289.923747 
L 326.463457 280.934488 
L 326.633896 290.730647 
L 326.869889 277.655851 
L 327.525426 215.743421 
L 327.695866 246.562775 
L 328.082632 187.376871 
L 328.272738 239.873221 
L 328.561174 214.382833 
L 328.803723 223.684623 
L 328.987273 243.014027 
L 329.446149 210.691025 
L 329.708363 280.887017 
L 330.055798 263.834916 
L 330.213127 292.916448 
L 330.429454 290.183755 
L 330.731001 204.93809 
L 330.947328 231.81122 
L 331.098101 294.756319 
L 331.25543 249.588855 
L 331.465202 290.27602 
L 331.62253 249.981519 
L 331.825747 237.043361 
L 332.015852 240.172224 
L 332.24529 227.049935 
L 332.592725 260.322394 
L 332.802496 233.554003 
L 332.972936 245.134777 
L 333.163042 241.007695 
L 333.326926 290.557796 
L 333.785801 183.241638 
L 334.166013 209.96794 
L 334.323342 267.938877 
L 334.487226 246.481207 
L 334.677331 240.299355 
L 334.860882 240.68821 
L 335.195205 223.007776 
L 335.418088 230.686239 
L 335.72619 200.844302 
L 336.001515 220.74851 
L 336.1654 293.629299 
L 336.322728 250.517483 
L 336.624275 279.470058 
L 336.840602 288.724552 
L 337.030708 291.730678 
L 337.214258 240.577611 
L 337.417475 290.900794 
L 337.797686 230.006808 
L 337.994347 238.709859 
L 338.361448 242.911726 
L 338.518776 249.826122 
L 338.807213 230.515167 
L 339.12187 226.116693 
L 339.495526 244.347245 
L 339.783962 209.455265 
L 340.144507 225.317831 
L 340.321502 244.837798 
L 340.564051 225.522955 
L 340.727935 290.119362 
L 340.911485 241.088583 
L 341.134368 230.916904 
L 341.311363 243.413058 
L 341.61291 205.086083 
L 342.052119 237.963177 
L 342.268446 288.707205 
L 342.491329 231.401076 
L 342.930538 197.938238 
L 343.173087 287.967087 
L 343.376303 237.213774 
L 343.586075 234.747479 
L 343.808957 227.802084 
L 343.999063 241.06062 
L 344.425162 224.410415 
L 344.818484 240.505826 
L 344.975813 293.501417 
L 345.165918 240.544417 
L 345.323247 249.785483 
L 345.519908 235.58903 
L 345.683792 290.668819 
L 345.860787 244.749511 
L 346.136113 220.536663 
L 346.411438 268.10046 
L 346.588433 243.705361 
L 346.896535 250.518052 
L 346.994866 290.065134 
L 347.3423 207.758763 
L 347.52585 241.896086 
L 348.279718 190.377072 
L 348.482934 234.104265 
L 348.653374 245.982191 
L 348.863145 234.122681 
L 349.033585 291.163303 
L 349.217135 242.864884 
L 349.407241 238.744627 
L 349.892338 222.486246 
L 350.141442 220.19728 
L 350.338103 238.83225 
L 350.521653 242.642136 
L 350.790423 230.385682 
L 350.973973 242.16216 
L 351.164079 290.130261 
L 351.367295 237.101483 
L 351.550846 242.09246 
L 351.79995 220.055483 
L 351.9835 291.142526 
L 352.147384 246.77594 
L 352.468597 221.738989 
L 352.658703 240.026077 
L 352.934028 225.325366 
L 353.097912 247.904796 
L 353.281463 241.012163 
L 354.186103 153.882832 
L 354.363098 292.76266 
L 354.546648 243.13953 
L 354.749865 242.006371 
L 355.149742 236.818686 
L 355.313626 247.713666 
L 355.497177 241.811951 
L 355.687282 240.115619 
L 355.890499 237.200668 
L 356.041272 251.14454 
L 356.198601 248.957882 
L 356.375596 242.372692 
L 356.867248 198.831596 
L 357.063909 235.600517 
L 357.398233 249.656641 
L 357.575228 243.855287 
L 357.758778 242.383035 
L 357.96855 236.062064 
L 358.296318 195.033571 
L 358.565088 228.801961 
L 358.77486 231.583175 
L 359.561504 260.684733 
L 359.738499 243.920515 
L 360.171153 192.049182 
L 360.380925 233.505595 
L 360.564475 241.796174 
L 361.003685 191.440544 
L 361.318342 205.172133 
L 361.927992 177.659726 
L 362.367201 286.903164 
L 362.531085 247.382177 
L 362.740857 234.86208 
L 363.035849 231.044907 
L 363.225954 240.598241 
L 363.494724 216.847439 
L 363.697941 286.652882 
L 363.888046 240.460524 
L 364.268258 262.702507 
L 365.120455 241.125944 
L 365.395781 212.631839 
L 365.553109 248.972825 
L 365.743215 238.978149 
L 365.939876 238.632153 
L 366.254534 205.135514 
L 366.451195 238.929347 
L 367.237839 211.711734 
L 367.401723 292.627443 
L 367.585273 241.38906 
L 368.017927 221.840499 
L 368.234255 232.384073 
L 368.476803 282.629034 
L 368.653798 244.195253 
L 368.883236 229.043024 
L 369.079897 239.403777 
L 369.407665 266.51362 
L 369.623992 230.932873 
L 370.213975 167.684119 
L 370.358193 252.519695 
L 370.613853 226.88802 
L 371.007175 240.010883 
L 371.177614 245.610802 
L 371.393941 232.597647 
L 371.485716 286.665394 
L 371.662711 244.249749 
L 371.859372 239.30919 
L 372.023257 247.372564 
L 372.233028 233.79787 
L 373.281887 209.696531 
L 373.491659 286.280181 
L 373.694875 234.586858 
L 373.898092 234.905677 
L 374.101308 236.884257 
L 374.284858 242.918238 
L 374.488075 234.230791 
L 374.710957 236.637275 
L 374.887952 290.769525 
L 375.241942 220.69661 
L 375.582821 265.388965 
L 375.83848 225.617975 
L 375.995809 249.338027 
L 376.172804 242.693514 
L 376.323577 250.861833 
L 376.480906 292.85191 
L 376.657901 243.727266 
L 376.81523 248.915432 
L 377.156109 202.48965 
L 377.339659 243.128522 
L 378.368852 176.10443 
L 378.578623 236.087646 
L 378.742508 246.865129 
L 379.745479 199.826039 
L 379.922474 243.833662 
L 380.132245 235.2749 
L 380.335462 237.134345 
L 380.525567 290.300787 
L 380.715673 240.401679 
L 380.945111 227.852975 
L 381.141772 237.915803 
L 381.358099 231.797718 
L 381.620314 231.485266 
L 381.882528 217.808291 
L 382.138188 217.329618 
L 382.492178 231.093662 
L 382.669172 243.995244 
L 382.859278 241.489653 
L 383.121493 232.408034 
L 383.291932 244.798879 
L 383.508259 229.073586 
L 383.711476 237.056025 
L 383.927803 233.244937 
L 384.308014 241.351834 
L 384.504675 289.293802 
L 384.721002 233.645511 
L 384.943885 228.702277 
L 385.271653 213.654949 
L 385.527312 221.582891 
L 386.412287 191.144945 
L 386.589282 244.290261 
L 387.1006 180.285341 
L 387.80858 182.794075 
L 388.044573 228.189797 
L 388.24779 237.252714 
L 388.451006 236.817739 
L 389.342536 145.502448 
L 389.512975 244.295113 
L 389.716192 235.436855 
L 389.919408 236.249156 
L 390.122625 235.92775 
L 390.299619 243.805395 
L 391.250148 214.279956 
L 391.420587 246.093067 
L 391.709023 222.015036 
L 392.082679 245.16257 
L 392.351449 229.030874 
L 392.54811 238.459014 
L 392.915211 219.92969 
L 393.111872 239.163891 
L 393.295422 241.786505 
L 393.773964 210.990773 
L 394.239395 241.22804 
L 394.462277 229.669458 
L 394.724492 235.258011 
L 394.888376 247.086376 
L 395.275143 236.208823 
L 395.517692 221.232297 
L 395.773351 215.959988 
L 396.094564 218.936696 
L 396.29778 237.399054 
L 396.514107 231.518784 
L 396.769767 218.945339 
L 396.999204 283.810854 
L 397.228642 284.739493 
L 397.418748 239.998074 
L 397.766182 246.081412 
L 398.074285 217.835587 
L 398.290612 233.502791 
L 398.487273 238.365667 
L 398.487273 238.365667 
" clip-path="url(#p532587fd08)" style="fill: none; stroke: #1f77b4; stroke-width: 1.5; stroke-linecap: square"/>
   </g>
   <g id="patch_3">
    <path d="M 57.6 307.584 
L 57.6 41.472 
" style="fill: none; stroke: #000000; stroke-width: 0.8; stroke-linejoin: miter; stroke-linecap: square"/>
   </g>
   <g id="patch_4">
    <path d="M 414.72 307.584 
L 414.72 41.472 
" style="fill: none; stroke: #000000; stroke-width: 0.8; stroke-linejoin: miter; stroke-linecap: square"/>
   </g>
   <g id="patch_5">
    <path d="M 57.6 307.584 
L 414.72 307.584 
" style="fill: none; stroke: #000000; stroke-width: 0.8; stroke-linejoin: miter; stroke-linecap: square"/>
   </g>
   <g id="patch_6">
    <path d="M 57.6 41.472 
L 414.72 41.472 
" style="fill: none; stroke: #000000; stroke-width: 0.8; stroke-linejoin: miter; stroke-linecap: square"/>
   </g>
   <g id="text_14">
    <!-- learning curve -->
    <g transform="translate(192.96375 35.472) scale(0.12 -0.12)">
     <defs>
      <path id="DejaVuSans-6c" d="M 603 4863 
L 1178 4863 
L 1178 0 
L 603 0 
L 603 4863 
z
" transform="scale(0.015625)"/>
      <path id="DejaVuSans-6e" d="M 3513 2113 
L 3513 0 
L 2938 0 
L 2938 2094 
Q 2938 2591 2744 2837 
Q 2550 3084 2163 3084 
Q 1697 3084 1428 2787 
Q 1159 2491 1159 1978 
L 1159 0 
L 581 0 
L 581 3500 
L 1159 3500 
L 1159 2956 
Q 1366 3272 1645 3428 
Q 1925 3584 2291 3584 
Q 2894 3584 3203 3211 
Q 3513 2838 3513 2113 
z
" transform="scale(0.015625)"/>
      <path id="DejaVuSans-67" d="M 2906 1791 
Q 2906 2416 2648 2759 
Q 2391 3103 1925 3103 
Q 1463 3103 1205 2759 
Q 947 2416 947 1791 
Q 947 1169 1205 825 
Q 1463 481 1925 481 
Q 2391 481 2648 825 
Q 2906 1169 2906 1791 
z
M 3481 434 
Q 3481 -459 3084 -895 
Q 2688 -1331 1869 -1331 
Q 1566 -1331 1297 -1286 
Q 1028 -1241 775 -1147 
L 775 -588 
Q 1028 -725 1275 -790 
Q 1522 -856 1778 -856 
Q 2344 -856 2625 -561 
Q 2906 -266 2906 331 
L 2906 616 
Q 2728 306 2450 153 
Q 2172 0 1784 0 
Q 1141 0 747 490 
Q 353 981 353 1791 
Q 353 2603 747 3093 
Q 1141 3584 1784 3584 
Q 2172 3584 2450 3431 
Q 2728 3278 2906 2969 
L 2906 3500 
L 3481 3500 
L 3481 434 
z
" transform="scale(0.015625)"/>
      <path id="DejaVuSans-20" transform="scale(0.015625)"/>
      <path id="DejaVuSans-63" d="M 3122 3366 
L 3122 2828 
Q 2878 2963 2633 3030 
Q 2388 3097 2138 3097 
Q 1578 3097 1268 2742 
Q 959 2388 959 1747 
Q 959 1106 1268 751 
Q 1578 397 2138 397 
Q 2388 397 2633 464 
Q 2878 531 3122 666 
L 3122 134 
Q 2881 22 2623 -34 
Q 2366 -91 2075 -91 
Q 1284 -91 818 406 
Q 353 903 353 1747 
Q 353 2603 823 3093 
Q 1294 3584 2113 3584 
Q 2378 3584 2631 3529 
Q 2884 3475 3122 3366 
z
" transform="scale(0.015625)"/>
      <path id="DejaVuSans-75" d="M 544 1381 
L 544 3500 
L 1119 3500 
L 1119 1403 
Q 1119 906 1312 657 
Q 1506 409 1894 409 
Q 2359 409 2629 706 
Q 2900 1003 2900 1516 
L 2900 3500 
L 3475 3500 
L 3475 0 
L 2900 0 
L 2900 538 
Q 2691 219 2414 64 
Q 2138 -91 1772 -91 
Q 1169 -91 856 284 
Q 544 659 544 1381 
z
M 1991 3584 
L 1991 3584 
z
" transform="scale(0.015625)"/>
      <path id="DejaVuSans-76" d="M 191 3500 
L 800 3500 
L 1894 563 
L 2988 3500 
L 3597 3500 
L 2284 0 
L 1503 0 
L 191 3500 
z
" transform="scale(0.015625)"/>
     </defs>
     <use xlink:href="#DejaVuSans-6c"/>
     <use xlink:href="#DejaVuSans-65" x="27.783203"/>
     <use xlink:href="#DejaVuSans-61" x="89.306641"/>
     <use xlink:href="#DejaVuSans-72" x="150.585938"/>
     <use xlink:href="#DejaVuSans-6e" x="189.949219"/>
     <use xlink:href="#DejaVuSans-69" x="253.328125"/>
     <use xlink:href="#DejaVuSans-6e" x="281.111328"/>
     <use xlink:href="#DejaVuSans-67" x="344.490234"/>
     <use xlink:href="#DejaVuSans-20" x="407.966797"/>
     <use xlink:href="#DejaVuSans-63" x="439.753906"/>
     <use xlink:href="#DejaVuSans-75" x="494.734375"/>
     <use xlink:href="#DejaVuSans-72" x="558.113281"/>
     <use xlink:href="#DejaVuSans-76" x="599.226562"/>
     <use xlink:href="#DejaVuSans-65" x="658.40625"/>
    </g>
   </g>
  </g>
 </g>
 <defs>
  <clipPath id="p532587fd08">
   <rect x="57.6" y="41.472" width="357.12" height="266.112"/>
  </clipPath>
 </defs>
</svg>
