<?xml version="1.0" encoding="utf-8" standalone="no"?>
<!DOCTYPE svg PUBLIC "-//W3C//DTD SVG 1.1//EN"
  "http://www.w3.org/Graphics/SVG/1.1/DTD/svg11.dtd">
<svg xmlns:xlink="http://www.w3.org/1999/xlink" width="460.8pt" height="345.6pt" viewBox="0 0 460.8 345.6" xmlns="http://www.w3.org/2000/svg" version="1.1">
 <metadata>
  <rdf:RDF xmlns:dc="http://purl.org/dc/elements/1.1/" xmlns:cc="http://creativecommons.org/ns#" xmlns:rdf="http://www.w3.org/1999/02/22-rdf-syntax-ns#">
   <cc:Work>
    <dc:type rdf:resource="http://purl.org/dc/dcmitype/StillImage"/>
    <dc:date>2023-08-18T17:59:34.140671</dc:date>
    <dc:format>image/svg+xml</dc:format>
    <dc:creator>
     <cc:Agent>
      <dc:title>Matplotlib v3.7.1, https://matplotlib.org/</dc:title>
     </cc:Agent>
    </dc:creator>
   </cc:Work>
  </rdf:RDF>
 </metadata>
 <defs>
  <style type="text/css">*{stroke-linejoin: round; stroke-linecap: butt}</style>
 </defs>
 <g id="figure_1">
  <g id="patch_1">
   <path d="M 0 345.6 
L 460.8 345.6 
L 460.8 0 
L 0 0 
z
" style="fill: #ffffff"/>
  </g>
  <g id="axes_1">
   <g id="patch_2">
    <path d="M 57.6 307.584 
L 414.72 307.584 
L 414.72 41.472 
L 57.6 41.472 
z
" style="fill: #ffffff"/>
   </g>
   <g id="matplotlib.axis_1">
    <g id="xtick_1">
     <g id="line2d_1">
      <defs>
       <path id="m79d06f1394" d="M 0 0 
L 0 3.5 
" style="stroke: #000000; stroke-width: 0.8"/>
      </defs>
      <g>
       <use xlink:href="#m79d06f1394" x="73.735302" y="307.584" style="stroke: #000000; stroke-width: 0.8"/>
      </g>
     </g>
     <g id="text_1">
      <!-- 0 -->
      <g transform="translate(70.554052 322.182437) scale(0.1 -0.1)">
       <defs>
        <path id="DejaVuSans-30" d="M 2034 4250 
Q 1547 4250 1301 3770 
Q 1056 3291 1056 2328 
Q 1056 1369 1301 889 
Q 1547 409 2034 409 
Q 2525 409 2770 889 
Q 3016 1369 3016 2328 
Q 3016 3291 2770 3770 
Q 2525 4250 2034 4250 
z
M 2034 4750 
Q 2819 4750 3233 4129 
Q 3647 3509 3647 2328 
Q 3647 1150 3233 529 
Q 2819 -91 2034 -91 
Q 1250 -91 836 529 
Q 422 1150 422 2328 
Q 422 3509 836 4129 
Q 1250 4750 2034 4750 
z
" transform="scale(0.015625)"/>
       </defs>
       <use xlink:href="#DejaVuSans-30"/>
      </g>
     </g>
    </g>
    <g id="xtick_2">
     <g id="line2d_2">
      <g>
       <use xlink:href="#m79d06f1394" x="138.685696" y="307.584" style="stroke: #000000; stroke-width: 0.8"/>
      </g>
     </g>
     <g id="text_2">
      <!-- 10000 -->
      <g transform="translate(122.779446 322.182437) scale(0.1 -0.1)">
       <defs>
        <path id="DejaVuSans-31" d="M 794 531 
L 1825 531 
L 1825 4091 
L 703 3866 
L 703 4441 
L 1819 4666 
L 2450 4666 
L 2450 531 
L 3481 531 
L 3481 0 
L 794 0 
L 794 531 
z
" transform="scale(0.015625)"/>
       </defs>
       <use xlink:href="#DejaVuSans-31"/>
       <use xlink:href="#DejaVuSans-30" x="63.623047"/>
       <use xlink:href="#DejaVuSans-30" x="127.246094"/>
       <use xlink:href="#DejaVuSans-30" x="190.869141"/>
       <use xlink:href="#DejaVuSans-30" x="254.492188"/>
      </g>
     </g>
    </g>
    <g id="xtick_3">
     <g id="line2d_3">
      <g>
       <use xlink:href="#m79d06f1394" x="203.63609" y="307.584" style="stroke: #000000; stroke-width: 0.8"/>
      </g>
     </g>
     <g id="text_3">
      <!-- 20000 -->
      <g transform="translate(187.72984 322.182437) scale(0.1 -0.1)">
       <defs>
        <path id="DejaVuSans-32" d="M 1228 531 
L 3431 531 
L 3431 0 
L 469 0 
L 469 531 
Q 828 903 1448 1529 
Q 2069 2156 2228 2338 
Q 2531 2678 2651 2914 
Q 2772 3150 2772 3378 
Q 2772 3750 2511 3984 
Q 2250 4219 1831 4219 
Q 1534 4219 1204 4116 
Q 875 4013 500 3803 
L 500 4441 
Q 881 4594 1212 4672 
Q 1544 4750 1819 4750 
Q 2544 4750 2975 4387 
Q 3406 4025 3406 3419 
Q 3406 3131 3298 2873 
Q 3191 2616 2906 2266 
Q 2828 2175 2409 1742 
Q 1991 1309 1228 531 
z
" transform="scale(0.015625)"/>
       </defs>
       <use xlink:href="#DejaVuSans-32"/>
       <use xlink:href="#DejaVuSans-30" x="63.623047"/>
       <use xlink:href="#DejaVuSans-30" x="127.246094"/>
       <use xlink:href="#DejaVuSans-30" x="190.869141"/>
       <use xlink:href="#DejaVuSans-30" x="254.492188"/>
      </g>
     </g>
    </g>
    <g id="xtick_4">
     <g id="line2d_4">
      <g>
       <use xlink:href="#m79d06f1394" x="268.586484" y="307.584" style="stroke: #000000; stroke-width: 0.8"/>
      </g>
     </g>
     <g id="text_4">
      <!-- 30000 -->
      <g transform="translate(252.680234 322.182437) scale(0.1 -0.1)">
       <defs>
        <path id="DejaVuSans-33" d="M 2597 2516 
Q 3050 2419 3304 2112 
Q 3559 1806 3559 1356 
Q 3559 666 3084 287 
Q 2609 -91 1734 -91 
Q 1441 -91 1130 -33 
Q 819 25 488 141 
L 488 750 
Q 750 597 1062 519 
Q 1375 441 1716 441 
Q 2309 441 2620 675 
Q 2931 909 2931 1356 
Q 2931 1769 2642 2001 
Q 2353 2234 1838 2234 
L 1294 2234 
L 1294 2753 
L 1863 2753 
Q 2328 2753 2575 2939 
Q 2822 3125 2822 3475 
Q 2822 3834 2567 4026 
Q 2313 4219 1838 4219 
Q 1578 4219 1281 4162 
Q 984 4106 628 3988 
L 628 4550 
Q 988 4650 1302 4700 
Q 1616 4750 1894 4750 
Q 2613 4750 3031 4423 
Q 3450 4097 3450 3541 
Q 3450 3153 3228 2886 
Q 3006 2619 2597 2516 
z
" transform="scale(0.015625)"/>
       </defs>
       <use xlink:href="#DejaVuSans-33"/>
       <use xlink:href="#DejaVuSans-30" x="63.623047"/>
       <use xlink:href="#DejaVuSans-30" x="127.246094"/>
       <use xlink:href="#DejaVuSans-30" x="190.869141"/>
       <use xlink:href="#DejaVuSans-30" x="254.492188"/>
      </g>
     </g>
    </g>
    <g id="xtick_5">
     <g id="line2d_5">
      <g>
       <use xlink:href="#m79d06f1394" x="333.536879" y="307.584" style="stroke: #000000; stroke-width: 0.8"/>
      </g>
     </g>
     <g id="text_5">
      <!-- 40000 -->
      <g transform="translate(317.630629 322.182437) scale(0.1 -0.1)">
       <defs>
        <path id="DejaVuSans-34" d="M 2419 4116 
L 825 1625 
L 2419 1625 
L 2419 4116 
z
M 2253 4666 
L 3047 4666 
L 3047 1625 
L 3713 1625 
L 3713 1100 
L 3047 1100 
L 3047 0 
L 2419 0 
L 2419 1100 
L 313 1100 
L 313 1709 
L 2253 4666 
z
" transform="scale(0.015625)"/>
       </defs>
       <use xlink:href="#DejaVuSans-34"/>
       <use xlink:href="#DejaVuSans-30" x="63.623047"/>
       <use xlink:href="#DejaVuSans-30" x="127.246094"/>
       <use xlink:href="#DejaVuSans-30" x="190.869141"/>
       <use xlink:href="#DejaVuSans-30" x="254.492188"/>
      </g>
     </g>
    </g>
    <g id="xtick_6">
     <g id="line2d_6">
      <g>
       <use xlink:href="#m79d06f1394" x="398.487273" y="307.584" style="stroke: #000000; stroke-width: 0.8"/>
      </g>
     </g>
     <g id="text_6">
      <!-- 50000 -->
      <g transform="translate(382.581023 322.182437) scale(0.1 -0.1)">
       <defs>
        <path id="DejaVuSans-35" d="M 691 4666 
L 3169 4666 
L 3169 4134 
L 1269 4134 
L 1269 2991 
Q 1406 3038 1543 3061 
Q 1681 3084 1819 3084 
Q 2600 3084 3056 2656 
Q 3513 2228 3513 1497 
Q 3513 744 3044 326 
Q 2575 -91 1722 -91 
Q 1428 -91 1123 -41 
Q 819 9 494 109 
L 494 744 
Q 775 591 1075 516 
Q 1375 441 1709 441 
Q 2250 441 2565 725 
Q 2881 1009 2881 1497 
Q 2881 1984 2565 2268 
Q 2250 2553 1709 2553 
Q 1456 2553 1204 2497 
Q 953 2441 691 2322 
L 691 4666 
z
" transform="scale(0.015625)"/>
       </defs>
       <use xlink:href="#DejaVuSans-35"/>
       <use xlink:href="#DejaVuSans-30" x="63.623047"/>
       <use xlink:href="#DejaVuSans-30" x="127.246094"/>
       <use xlink:href="#DejaVuSans-30" x="190.869141"/>
       <use xlink:href="#DejaVuSans-30" x="254.492188"/>
      </g>
     </g>
    </g>
    <g id="text_7">
     <!-- timesteps -->
     <g transform="translate(211.443594 335.860562) scale(0.1 -0.1)">
      <defs>
       <path id="DejaVuSans-74" d="M 1172 4494 
L 1172 3500 
L 2356 3500 
L 2356 3053 
L 1172 3053 
L 1172 1153 
Q 1172 725 1289 603 
Q 1406 481 1766 481 
L 2356 481 
L 2356 0 
L 1766 0 
Q 1100 0 847 248 
Q 594 497 594 1153 
L 594 3053 
L 172 3053 
L 172 3500 
L 594 3500 
L 594 4494 
L 1172 4494 
z
" transform="scale(0.015625)"/>
       <path id="DejaVuSans-69" d="M 603 3500 
L 1178 3500 
L 1178 0 
L 603 0 
L 603 3500 
z
M 603 4863 
L 1178 4863 
L 1178 4134 
L 603 4134 
L 603 4863 
z
" transform="scale(0.015625)"/>
       <path id="DejaVuSans-6d" d="M 3328 2828 
Q 3544 3216 3844 3400 
Q 4144 3584 4550 3584 
Q 5097 3584 5394 3201 
Q 5691 2819 5691 2113 
L 5691 0 
L 5113 0 
L 5113 2094 
Q 5113 2597 4934 2840 
Q 4756 3084 4391 3084 
Q 3944 3084 3684 2787 
Q 3425 2491 3425 1978 
L 3425 0 
L 2847 0 
L 2847 2094 
Q 2847 2600 2669 2842 
Q 2491 3084 2119 3084 
Q 1678 3084 1418 2786 
Q 1159 2488 1159 1978 
L 1159 0 
L 581 0 
L 581 3500 
L 1159 3500 
L 1159 2956 
Q 1356 3278 1631 3431 
Q 1906 3584 2284 3584 
Q 2666 3584 2933 3390 
Q 3200 3197 3328 2828 
z
" transform="scale(0.015625)"/>
       <path id="DejaVuSans-65" d="M 3597 1894 
L 3597 1613 
L 953 1613 
Q 991 1019 1311 708 
Q 1631 397 2203 397 
Q 2534 397 2845 478 
Q 3156 559 3463 722 
L 3463 178 
Q 3153 47 2828 -22 
Q 2503 -91 2169 -91 
Q 1331 -91 842 396 
Q 353 884 353 1716 
Q 353 2575 817 3079 
Q 1281 3584 2069 3584 
Q 2775 3584 3186 3129 
Q 3597 2675 3597 1894 
z
M 3022 2063 
Q 3016 2534 2758 2815 
Q 2500 3097 2075 3097 
Q 1594 3097 1305 2825 
Q 1016 2553 972 2059 
L 3022 2063 
z
" transform="scale(0.015625)"/>
       <path id="DejaVuSans-73" d="M 2834 3397 
L 2834 2853 
Q 2591 2978 2328 3040 
Q 2066 3103 1784 3103 
Q 1356 3103 1142 2972 
Q 928 2841 928 2578 
Q 928 2378 1081 2264 
Q 1234 2150 1697 2047 
L 1894 2003 
Q 2506 1872 2764 1633 
Q 3022 1394 3022 966 
Q 3022 478 2636 193 
Q 2250 -91 1575 -91 
Q 1294 -91 989 -36 
Q 684 19 347 128 
L 347 722 
Q 666 556 975 473 
Q 1284 391 1588 391 
Q 1994 391 2212 530 
Q 2431 669 2431 922 
Q 2431 1156 2273 1281 
Q 2116 1406 1581 1522 
L 1381 1569 
Q 847 1681 609 1914 
Q 372 2147 372 2553 
Q 372 3047 722 3315 
Q 1072 3584 1716 3584 
Q 2034 3584 2315 3537 
Q 2597 3491 2834 3397 
z
" transform="scale(0.015625)"/>
       <path id="DejaVuSans-70" d="M 1159 525 
L 1159 -1331 
L 581 -1331 
L 581 3500 
L 1159 3500 
L 1159 2969 
Q 1341 3281 1617 3432 
Q 1894 3584 2278 3584 
Q 2916 3584 3314 3078 
Q 3713 2572 3713 1747 
Q 3713 922 3314 415 
Q 2916 -91 2278 -91 
Q 1894 -91 1617 61 
Q 1341 213 1159 525 
z
M 3116 1747 
Q 3116 2381 2855 2742 
Q 2594 3103 2138 3103 
Q 1681 3103 1420 2742 
Q 1159 2381 1159 1747 
Q 1159 1113 1420 752 
Q 1681 391 2138 391 
Q 2594 391 2855 752 
Q 3116 1113 3116 1747 
z
" transform="scale(0.015625)"/>
      </defs>
      <use xlink:href="#DejaVuSans-74"/>
      <use xlink:href="#DejaVuSans-69" x="39.208984"/>
      <use xlink:href="#DejaVuSans-6d" x="66.992188"/>
      <use xlink:href="#DejaVuSans-65" x="164.404297"/>
      <use xlink:href="#DejaVuSans-73" x="225.927734"/>
      <use xlink:href="#DejaVuSans-74" x="278.027344"/>
      <use xlink:href="#DejaVuSans-65" x="317.236328"/>
      <use xlink:href="#DejaVuSans-70" x="378.759766"/>
      <use xlink:href="#DejaVuSans-73" x="442.236328"/>
     </g>
    </g>
   </g>
   <g id="matplotlib.axis_2">
    <g id="ytick_1">
     <g id="line2d_7">
      <defs>
       <path id="m3c3578a02e" d="M 0 0 
L -3.5 0 
" style="stroke: #000000; stroke-width: 0.8"/>
      </defs>
      <g>
       <use xlink:href="#m3c3578a02e" x="57.6" y="295.252088" style="stroke: #000000; stroke-width: 0.8"/>
      </g>
     </g>
     <g id="text_8">
      <!-- 0 -->
      <g transform="translate(44.2375 299.051307) scale(0.1 -0.1)">
       <use xlink:href="#DejaVuSans-30"/>
      </g>
     </g>
    </g>
    <g id="ytick_2">
     <g id="line2d_8">
      <g>
       <use xlink:href="#m3c3578a02e" x="57.6" y="265.587364" style="stroke: #000000; stroke-width: 0.8"/>
      </g>
     </g>
     <g id="text_9">
      <!-- 100 -->
      <g transform="translate(31.5125 269.386582) scale(0.1 -0.1)">
       <use xlink:href="#DejaVuSans-31"/>
       <use xlink:href="#DejaVuSans-30" x="63.623047"/>
       <use xlink:href="#DejaVuSans-30" x="127.246094"/>
      </g>
     </g>
    </g>
    <g id="ytick_3">
     <g id="line2d_9">
      <g>
       <use xlink:href="#m3c3578a02e" x="57.6" y="235.922639" style="stroke: #000000; stroke-width: 0.8"/>
      </g>
     </g>
     <g id="text_10">
      <!-- 200 -->
      <g transform="translate(31.5125 239.721858) scale(0.1 -0.1)">
       <use xlink:href="#DejaVuSans-32"/>
       <use xlink:href="#DejaVuSans-30" x="63.623047"/>
       <use xlink:href="#DejaVuSans-30" x="127.246094"/>
      </g>
     </g>
    </g>
    <g id="ytick_4">
     <g id="line2d_10">
      <g>
       <use xlink:href="#m3c3578a02e" x="57.6" y="206.257914" style="stroke: #000000; stroke-width: 0.8"/>
      </g>
     </g>
     <g id="text_11">
      <!-- 300 -->
      <g transform="translate(31.5125 210.057133) scale(0.1 -0.1)">
       <use xlink:href="#DejaVuSans-33"/>
       <use xlink:href="#DejaVuSans-30" x="63.623047"/>
       <use xlink:href="#DejaVuSans-30" x="127.246094"/>
      </g>
     </g>
    </g>
    <g id="ytick_5">
     <g id="line2d_11">
      <g>
       <use xlink:href="#m3c3578a02e" x="57.6" y="176.59319" style="stroke: #000000; stroke-width: 0.8"/>
      </g>
     </g>
     <g id="text_12">
      <!-- 400 -->
      <g transform="translate(31.5125 180.392408) scale(0.1 -0.1)">
       <use xlink:href="#DejaVuSans-34"/>
       <use xlink:href="#DejaVuSans-30" x="63.623047"/>
       <use xlink:href="#DejaVuSans-30" x="127.246094"/>
      </g>
     </g>
    </g>
    <g id="ytick_6">
     <g id="line2d_12">
      <g>
       <use xlink:href="#m3c3578a02e" x="57.6" y="146.928465" style="stroke: #000000; stroke-width: 0.8"/>
      </g>
     </g>
     <g id="text_13">
      <!-- 500 -->
      <g transform="translate(31.5125 150.727684) scale(0.1 -0.1)">
       <use xlink:href="#DejaVuSans-35"/>
       <use xlink:href="#DejaVuSans-30" x="63.623047"/>
       <use xlink:href="#DejaVuSans-30" x="127.246094"/>
      </g>
     </g>
    </g>
    <g id="ytick_7">
     <g id="line2d_13">
      <g>
       <use xlink:href="#m3c3578a02e" x="57.6" y="117.26374" style="stroke: #000000; stroke-width: 0.8"/>
      </g>
     </g>
     <g id="text_14">
      <!-- 600 -->
      <g transform="translate(31.5125 121.062959) scale(0.1 -0.1)">
       <defs>
        <path id="DejaVuSans-36" d="M 2113 2584 
Q 1688 2584 1439 2293 
Q 1191 2003 1191 1497 
Q 1191 994 1439 701 
Q 1688 409 2113 409 
Q 2538 409 2786 701 
Q 3034 994 3034 1497 
Q 3034 2003 2786 2293 
Q 2538 2584 2113 2584 
z
M 3366 4563 
L 3366 3988 
Q 3128 4100 2886 4159 
Q 2644 4219 2406 4219 
Q 1781 4219 1451 3797 
Q 1122 3375 1075 2522 
Q 1259 2794 1537 2939 
Q 1816 3084 2150 3084 
Q 2853 3084 3261 2657 
Q 3669 2231 3669 1497 
Q 3669 778 3244 343 
Q 2819 -91 2113 -91 
Q 1303 -91 875 529 
Q 447 1150 447 2328 
Q 447 3434 972 4092 
Q 1497 4750 2381 4750 
Q 2619 4750 2861 4703 
Q 3103 4656 3366 4563 
z
" transform="scale(0.015625)"/>
       </defs>
       <use xlink:href="#DejaVuSans-36"/>
       <use xlink:href="#DejaVuSans-30" x="63.623047"/>
       <use xlink:href="#DejaVuSans-30" x="127.246094"/>
      </g>
     </g>
    </g>
    <g id="ytick_8">
     <g id="line2d_14">
      <g>
       <use xlink:href="#m3c3578a02e" x="57.6" y="87.599016" style="stroke: #000000; stroke-width: 0.8"/>
      </g>
     </g>
     <g id="text_15">
      <!-- 700 -->
      <g transform="translate(31.5125 91.398234) scale(0.1 -0.1)">
       <defs>
        <path id="DejaVuSans-37" d="M 525 4666 
L 3525 4666 
L 3525 4397 
L 1831 0 
L 1172 0 
L 2766 4134 
L 525 4134 
L 525 4666 
z
" transform="scale(0.015625)"/>
       </defs>
       <use xlink:href="#DejaVuSans-37"/>
       <use xlink:href="#DejaVuSans-30" x="63.623047"/>
       <use xlink:href="#DejaVuSans-30" x="127.246094"/>
      </g>
     </g>
    </g>
    <g id="ytick_9">
     <g id="line2d_15">
      <g>
       <use xlink:href="#m3c3578a02e" x="57.6" y="57.934291" style="stroke: #000000; stroke-width: 0.8"/>
      </g>
     </g>
     <g id="text_16">
      <!-- 800 -->
      <g transform="translate(31.5125 61.73351) scale(0.1 -0.1)">
       <defs>
        <path id="DejaVuSans-38" d="M 2034 2216 
Q 1584 2216 1326 1975 
Q 1069 1734 1069 1313 
Q 1069 891 1326 650 
Q 1584 409 2034 409 
Q 2484 409 2743 651 
Q 3003 894 3003 1313 
Q 3003 1734 2745 1975 
Q 2488 2216 2034 2216 
z
M 1403 2484 
Q 997 2584 770 2862 
Q 544 3141 544 3541 
Q 544 4100 942 4425 
Q 1341 4750 2034 4750 
Q 2731 4750 3128 4425 
Q 3525 4100 3525 3541 
Q 3525 3141 3298 2862 
Q 3072 2584 2669 2484 
Q 3125 2378 3379 2068 
Q 3634 1759 3634 1313 
Q 3634 634 3220 271 
Q 2806 -91 2034 -91 
Q 1263 -91 848 271 
Q 434 634 434 1313 
Q 434 1759 690 2068 
Q 947 2378 1403 2484 
z
M 1172 3481 
Q 1172 3119 1398 2916 
Q 1625 2713 2034 2713 
Q 2441 2713 2670 2916 
Q 2900 3119 2900 3481 
Q 2900 3844 2670 4047 
Q 2441 4250 2034 4250 
Q 1625 4250 1398 4047 
Q 1172 3844 1172 3481 
z
" transform="scale(0.015625)"/>
       </defs>
       <use xlink:href="#DejaVuSans-38"/>
       <use xlink:href="#DejaVuSans-30" x="63.623047"/>
       <use xlink:href="#DejaVuSans-30" x="127.246094"/>
      </g>
     </g>
    </g>
    <g id="text_17">
     <!-- mean episode rewards -->
     <g transform="translate(25.432812 231.360031) rotate(-90) scale(0.1 -0.1)">
      <defs>
       <path id="DejaVuSans-61" d="M 2194 1759 
Q 1497 1759 1228 1600 
Q 959 1441 959 1056 
Q 959 750 1161 570 
Q 1363 391 1709 391 
Q 2188 391 2477 730 
Q 2766 1069 2766 1631 
L 2766 1759 
L 2194 1759 
z
M 3341 1997 
L 3341 0 
L 2766 0 
L 2766 531 
Q 2569 213 2275 61 
Q 1981 -91 1556 -91 
Q 1019 -91 701 211 
Q 384 513 384 1019 
Q 384 1609 779 1909 
Q 1175 2209 1959 2209 
L 2766 2209 
L 2766 2266 
Q 2766 2663 2505 2880 
Q 2244 3097 1772 3097 
Q 1472 3097 1187 3025 
Q 903 2953 641 2809 
L 641 3341 
Q 956 3463 1253 3523 
Q 1550 3584 1831 3584 
Q 2591 3584 2966 3190 
Q 3341 2797 3341 1997 
z
" transform="scale(0.015625)"/>
       <path id="DejaVuSans-6e" d="M 3513 2113 
L 3513 0 
L 2938 0 
L 2938 2094 
Q 2938 2591 2744 2837 
Q 2550 3084 2163 3084 
Q 1697 3084 1428 2787 
Q 1159 2491 1159 1978 
L 1159 0 
L 581 0 
L 581 3500 
L 1159 3500 
L 1159 2956 
Q 1366 3272 1645 3428 
Q 1925 3584 2291 3584 
Q 2894 3584 3203 3211 
Q 3513 2838 3513 2113 
z
" transform="scale(0.015625)"/>
       <path id="DejaVuSans-20" transform="scale(0.015625)"/>
       <path id="DejaVuSans-6f" d="M 1959 3097 
Q 1497 3097 1228 2736 
Q 959 2375 959 1747 
Q 959 1119 1226 758 
Q 1494 397 1959 397 
Q 2419 397 2687 759 
Q 2956 1122 2956 1747 
Q 2956 2369 2687 2733 
Q 2419 3097 1959 3097 
z
M 1959 3584 
Q 2709 3584 3137 3096 
Q 3566 2609 3566 1747 
Q 3566 888 3137 398 
Q 2709 -91 1959 -91 
Q 1206 -91 779 398 
Q 353 888 353 1747 
Q 353 2609 779 3096 
Q 1206 3584 1959 3584 
z
" transform="scale(0.015625)"/>
       <path id="DejaVuSans-64" d="M 2906 2969 
L 2906 4863 
L 3481 4863 
L 3481 0 
L 2906 0 
L 2906 525 
Q 2725 213 2448 61 
Q 2172 -91 1784 -91 
Q 1150 -91 751 415 
Q 353 922 353 1747 
Q 353 2572 751 3078 
Q 1150 3584 1784 3584 
Q 2172 3584 2448 3432 
Q 2725 3281 2906 2969 
z
M 947 1747 
Q 947 1113 1208 752 
Q 1469 391 1925 391 
Q 2381 391 2643 752 
Q 2906 1113 2906 1747 
Q 2906 2381 2643 2742 
Q 2381 3103 1925 3103 
Q 1469 3103 1208 2742 
Q 947 2381 947 1747 
z
" transform="scale(0.015625)"/>
       <path id="DejaVuSans-72" d="M 2631 2963 
Q 2534 3019 2420 3045 
Q 2306 3072 2169 3072 
Q 1681 3072 1420 2755 
Q 1159 2438 1159 1844 
L 1159 0 
L 581 0 
L 581 3500 
L 1159 3500 
L 1159 2956 
Q 1341 3275 1631 3429 
Q 1922 3584 2338 3584 
Q 2397 3584 2469 3576 
Q 2541 3569 2628 3553 
L 2631 2963 
z
" transform="scale(0.015625)"/>
       <path id="DejaVuSans-77" d="M 269 3500 
L 844 3500 
L 1563 769 
L 2278 3500 
L 2956 3500 
L 3675 769 
L 4391 3500 
L 4966 3500 
L 4050 0 
L 3372 0 
L 2619 2869 
L 1863 0 
L 1184 0 
L 269 3500 
z
" transform="scale(0.015625)"/>
      </defs>
      <use xlink:href="#DejaVuSans-6d"/>
      <use xlink:href="#DejaVuSans-65" x="97.412109"/>
      <use xlink:href="#DejaVuSans-61" x="158.935547"/>
      <use xlink:href="#DejaVuSans-6e" x="220.214844"/>
      <use xlink:href="#DejaVuSans-20" x="283.59375"/>
      <use xlink:href="#DejaVuSans-65" x="315.380859"/>
      <use xlink:href="#DejaVuSans-70" x="376.904297"/>
      <use xlink:href="#DejaVuSans-69" x="440.380859"/>
      <use xlink:href="#DejaVuSans-73" x="468.164062"/>
      <use xlink:href="#DejaVuSans-6f" x="520.263672"/>
      <use xlink:href="#DejaVuSans-64" x="581.445312"/>
      <use xlink:href="#DejaVuSans-65" x="644.921875"/>
      <use xlink:href="#DejaVuSans-20" x="706.445312"/>
      <use xlink:href="#DejaVuSans-72" x="738.232422"/>
      <use xlink:href="#DejaVuSans-65" x="777.095703"/>
      <use xlink:href="#DejaVuSans-77" x="838.619141"/>
      <use xlink:href="#DejaVuSans-61" x="920.40625"/>
      <use xlink:href="#DejaVuSans-72" x="981.685547"/>
      <use xlink:href="#DejaVuSans-64" x="1021.048828"/>
      <use xlink:href="#DejaVuSans-73" x="1084.525391"/>
     </g>
    </g>
   </g>
   <g id="line2d_16">
    <path d="M 73.832727 293.402564 
L 74.157479 292.800501 
L 74.456251 283.416314 
L 74.527696 293.592982 
L 74.592647 293.200189 
L 74.826468 290.904442 
L 74.982349 291.467449 
L 75.079775 290.89294 
L 75.274626 291.969804 
L 75.514942 291.689587 
L 75.644843 292.899185 
L 75.748764 291.414305 
L 75.839694 292.210836 
L 76.054031 288.721278 
L 76.203417 293.364553 
L 76.385278 286.994233 
L 76.489198 293.522032 
L 76.68405 284.024117 
L 76.77498 293.159404 
L 76.969831 291.960384 
L 77.158187 285.789254 
L 77.359534 285.624423 
L 77.664801 282.365233 
L 78.015533 293.091696 
L 78.158424 292.039008 
L 78.294819 289.726667 
L 78.444205 290.900358 
L 78.496166 293.633653 
L 78.632561 289.042424 
L 78.833908 290.682607 
L 78.911848 292.67618 
L 79.022264 290.815146 
L 79.411966 276.991433 
L 79.496402 291.653113 
L 79.905589 265.788904 
L 80.003015 291.749732 
L 80.119925 292.688578 
L 80.555093 273.806089 
L 80.723964 289.284355 
L 80.905825 289.416167 
L 81.061706 290.987034 
L 81.113666 293.83404 
L 81.185112 293.424546 
L 81.425428 289.748954 
L 81.587804 293.270839 
L 81.73719 287.424695 
L 81.854101 292.232326 
L 81.990497 292.951589 
L 82.152873 292.95697 
L 82.672476 261.06018 
L 82.847842 289.268039 
L 83.075168 291.616599 
L 83.185584 291.31349 
L 83.276515 292.029515 
L 83.367445 291.301228 
L 83.536316 287.179992 
L 83.659722 290.378922 
L 83.977979 284.378328 
L 84.081899 291.983756 
L 84.18582 291.432466 
L 84.302731 291.714342 
L 84.672948 282.432799 
L 84.796354 292.839177 
L 84.991205 289.377996 
L 85.186056 288.885636 
L 85.251007 293.409976 
L 85.367917 290.429903 
L 85.562768 292.207747 
L 85.666689 292.084472 
L 85.74463 292.927145 
L 85.842055 292.512862 
L 85.952471 291.089434 
L 86.205777 285.338665 
L 86.361658 292.290604 
L 86.472074 290.793607 
L 86.556509 292.120823 
L 86.653935 292.05216 
L 86.855281 288.912553 
L 87.024152 293.679916 
L 87.128073 291.615719 
L 87.206013 292.25331 
L 87.374884 290.594685 
L 87.504785 290.767581 
L 87.660666 285.993582 
L 87.823042 288.566064 
L 88.037378 283.790154 
L 88.147794 292.661954 
L 88.264705 291.450494 
L 88.355635 292.009548 
L 88.537497 285.176295 
L 88.745338 292.323189 
L 88.810288 293.111824 
L 88.881734 292.74213 
L 89.316901 277.598592 
L 89.511752 292.379773 
L 89.628663 292.389563 
L 89.90795 289.560475 
L 90.044346 293.038631 
L 90.245692 289.533809 
L 90.466523 292.526426 
L 90.78478 289.221498 
L 90.849731 293.196017 
L 90.973136 292.332089 
L 91.278403 282.111087 
L 91.453769 293.145082 
L 91.655115 291.779942 
L 91.823986 293.703924 
L 91.999353 290.56339 
L 92.090283 292.931087 
L 92.350085 291.711072 
L 92.441015 291.622139 
L 92.525451 293.074421 
L 92.694322 291.882062 
L 92.856698 292.353402 
L 93.051549 284.887136 
L 93.226915 291.737868 
L 93.701053 266.691947 
L 93.902399 293.460944 
L 94.04529 292.349323 
L 94.305092 280.470177 
L 94.409012 291.577335 
L 94.577883 290.146439 
L 94.681804 292.580688 
L 94.779229 292.099501 
L 94.89614 290.857883 
L 95.019546 290.762399 
L 95.142952 292.456329 
L 95.461209 282.084586 
L 95.65606 292.972471 
L 95.753485 292.013395 
L 95.837921 292.156966 
L 95.993802 292.965512 
L 96.071742 292.925225 
L 96.357524 287.92544 
L 96.50691 293.630538 
L 96.610831 293.365052 
L 96.734236 289.156674 
L 96.799187 293.592547 
L 96.987543 292.136551 
L 97.097958 292.475505 
L 97.208374 292.126451 
L 97.33178 289.513315 
L 97.448691 291.153065 
L 97.546116 291.065805 
L 97.695502 286.868217 
L 97.935819 293.398881 
L 98.020254 292.950291 
L 98.241085 287.499535 
L 98.357996 291.726007 
L 98.474907 291.676016 
L 98.598313 292.91203 
L 98.897084 291.603713 
L 99.03348 290.105018 
L 99.091936 293.47866 
L 99.156886 293.099183 
L 99.286787 291.091358 
L 99.397202 294.755306 
L 99.527103 291.608778 
L 99.631024 292.019419 
L 99.929796 288.639245 
L 100.040211 292.118176 
L 100.144132 290.111858 
L 100.274033 292.513644 
L 100.650745 284.197992 
L 100.891062 293.549814 
L 100.962507 293.007758 
L 101.066428 291.098643 
L 101.39118 269.049732 
L 101.631496 293.341385 
L 101.722427 292.192421 
L 101.969238 285.270183 
L 102.26801 286.7579 
L 102.475851 278.749576 
L 102.865553 288.171956 
L 103.086385 288.438005 
L 103.307216 289.559073 
L 103.534543 293.044065 
L 103.651453 292.232204 
L 103.735889 292.358599 
L 103.95672 288.431081 
L 104.248997 292.807235 
L 104.417868 289.520073 
L 104.736125 287.286044 
L 104.911491 293.216291 
L 105.099847 293.411012 
L 105.268718 286.757428 
L 105.450579 288.845007 
L 105.723371 286.562857 
L 105.820796 292.588314 
L 105.957192 289.40039 
L 106.145548 293.668777 
L 106.216994 293.006533 
L 106.372875 292.695238 
L 106.606696 286.289867 
L 106.911963 293.102859 
L 107.100319 290.231954 
L 107.301665 291.727008 
L 107.697863 273.185551 
L 108.087565 266.838696 
L 108.314892 292.373901 
L 108.392832 292.900823 
L 108.594178 286.695493 
L 108.795524 284.122113 
L 109.087801 278.141942 
L 109.230692 289.95482 
L 109.360593 289.494719 
L 109.574929 290.793973 
L 109.71782 290.460125 
L 109.854216 289.15553 
L 110.049067 288.926929 
L 110.198453 292.318298 
L 110.419284 284.822804 
L 110.60764 293.269159 
L 110.731046 290.306631 
L 110.893422 289.983708 
L 110.984353 291.132507 
L 111.257144 289.7048 
L 111.458491 281.750707 
L 111.549421 291.662388 
L 111.666332 289.788987 
L 111.763757 293.38318 
L 111.861183 291.663598 
L 111.971599 292.198483 
L 112.030054 293.834277 
L 112.185935 289.87424 
L 112.497697 271.788048 
L 112.692548 292.760941 
L 112.835439 290.967345 
L 112.984825 293.422899 
L 113.199161 290.602485 
L 113.445973 293.008532 
L 113.660309 288.10767 
L 113.744745 292.776578 
L 114.322803 252.431348 
L 114.485179 287.189429 
L 115.212623 225.399715 
L 115.46593 293.884731 
L 115.595831 290.104443 
L 115.693256 292.98475 
L 115.829652 289.281043 
L 115.966048 293.086598 
L 116.199869 281.488005 
L 116.388226 285.007897 
L 116.550602 292.139828 
L 116.667512 290.715104 
L 116.751948 293.406185 
L 117.083195 277.946956 
L 117.342996 292.973418 
L 117.420937 292.204383 
L 117.531352 290.877502 
L 117.745689 290.549361 
L 117.94054 287.49301 
L 118.070441 291.717757 
L 118.232817 286.232224 
L 118.551074 292.696931 
L 118.661489 290.723291 
L 118.966756 272.062237 
L 119.285013 292.204648 
L 119.466874 289.481803 
L 119.53832 293.129789 
L 119.61626 292.510064 
L 119.66822 293.523354 
L 120.064418 281.224829 
L 120.239784 293.095729 
L 120.382675 292.193696 
L 120.44113 293.324229 
L 120.558041 293.002687 
L 120.661961 290.743171 
L 120.856813 291.738642 
L 121.272495 281.651821 
L 121.519307 290.738096 
L 121.707663 282.335672 
L 121.792098 291.585869 
L 121.915504 291.371633 
L 122.220771 280.839685 
L 122.305206 291.795663 
L 122.474077 291.889892 
L 122.584493 290.201317 
L 122.694909 291.125316 
L 122.772849 294.114762 
L 122.8378 293.032482 
L 122.948215 293.346713 
L 123.305443 288.302008 
L 123.467819 292.717467 
L 123.578234 292.287345 
L 123.682155 291.217216 
L 123.889996 283.054224 
L 123.980927 291.943943 
L 124.084847 291.309305 
L 124.162788 293.0073 
L 124.390114 286.868308 
L 124.48754 290.914683 
L 124.610945 290.98208 
L 124.753836 288.943639 
L 124.916212 288.398262 
L 125.033123 292.144427 
L 125.137044 290.506007 
L 125.28643 292.393478 
L 125.409835 292.477316 
L 125.539736 290.417721 
L 125.624172 293.617367 
L 125.754072 291.393472 
L 125.877478 292.571034 
L 126.020369 290.04184 
L 126.12429 291.756128 
L 126.351616 287.552173 
L 126.617913 280.413657 
L 126.728328 291.025802 
L 126.851734 290.990899 
L 126.98813 291.105297 
L 127.215456 291.725657 
L 127.358347 293.662936 
L 127.442783 292.512585 
L 127.533713 293.544998 
L 127.709079 288.84724 
L 127.910425 287.543101 
L 128.150742 291.995416 
L 128.235177 292.907905 
L 128.371573 290.260909 
L 128.488484 293.049981 
L 128.670345 286.245113 
L 128.897671 288.125329 
L 129.047057 293.599682 
L 129.189948 291.788309 
L 129.248404 293.729029 
L 129.326344 292.822153 
L 129.495215 290.217621 
L 129.592641 292.391601 
L 129.742027 288.364242 
L 130.060284 292.680956 
L 130.157709 293.881183 
L 130.31359 286.936612 
L 130.417511 290.82657 
L 130.579887 285.455325 
L 130.690302 292.455683 
L 130.904639 289.777019 
L 131.06052 290.288713 
L 131.352796 278.02225 
L 131.593113 281.063472 
L 131.651568 293.211498 
L 131.839924 286.982982 
L 131.930855 293.016233 
L 132.086736 290.67452 
L 132.177666 293.741868 
L 132.346537 292.797705 
L 132.905111 283.119156 
L 133.041507 293.769856 
L 133.158417 291.565309 
L 133.262338 292.402646 
L 133.398734 292.403615 
L 133.509149 292.860845 
L 133.61307 293.913005 
L 133.879367 287.457809 
L 133.957307 293.090111 
L 134.223604 287.243222 
L 134.444435 291.13453 
L 134.561346 292.509978 
L 134.684752 290.949589 
L 134.736712 293.838151 
L 134.808157 292.823225 
L 134.944553 290.383173 
L 135.003009 293.594052 
L 135.080949 292.419603 
L 135.321265 291.075435 
L 135.405701 292.388726 
L 135.594057 281.896772 
L 135.782413 293.283531 
L 135.847364 293.668511 
L 135.983759 287.628007 
L 136.094175 291.555386 
L 136.405937 291.673075 
L 136.542333 291.609995 
L 136.633263 292.894906 
L 136.763164 292.560374 
L 137.087916 286.030756 
L 137.204827 293.341387 
L 137.302252 292.404698 
L 137.373698 293.016529 
L 137.72443 291.431471 
L 137.984232 293.52596 
L 138.133618 288.937125 
L 138.263518 290.060389 
L 138.45837 285.439997 
L 138.718171 292.911176 
L 138.919517 286.57979 
L 139.114368 288.540342 
L 139.289735 286.304031 
L 139.367675 292.376595 
L 139.458606 291.781534 
L 139.789853 283.882442 
L 139.913258 292.227553 
L 140.036664 289.174412 
L 140.192545 293.097523 
L 140.348426 289.489226 
L 140.582247 287.661923 
L 140.686168 292.585596 
L 141.199276 283.501717 
L 141.679909 260.493567 
L 141.933216 290.744575 
L 142.017651 293.063768 
L 142.387868 271.355262 
L 142.446324 293.28493 
L 142.537254 292.277103 
L 142.836026 271.048145 
L 143.251709 268.190582 
L 143.492025 275.83861 
L 143.764817 289.605592 
L 143.959668 279.901209 
L 144.401331 267.378321 
L 144.752063 267.331577 
L 145.089805 274.237188 
L 145.349606 274.068714 
L 145.570438 277.8872 
L 145.90818 270.618159 
L 146.148496 275.828547 
L 146.401803 290.037901 
L 146.622634 277.869199 
L 147.298118 270.259637 
L 147.5839 272.967067 
L 147.811226 277.997319 
L 148.012572 279.040097 
L 148.291859 273.238482 
L 148.532176 276.247008 
L 148.765997 275.68929 
L 148.999818 276.500026 
L 149.214155 278.209359 
L 149.460966 277.266264 
L 149.714273 275.025194 
L 150.04552 266.670115 
L 150.292331 275.200067 
L 150.552133 273.899697 
L 151.110706 253.95813 
L 151.351023 275.736693 
L 151.539379 279.797107 
L 151.753715 277.87948 
L 152.058982 269.728962 
L 152.253833 279.051739 
L 152.604565 265.789909 
L 152.896842 270.760168 
L 153.176129 272.188188 
L 153.604801 257.872479 
L 153.994504 261.671234 
L 154.332246 267.105742 
L 154.598542 273.412638 
L 155.150621 246.184838 
L 155.566303 258.820699 
L 156.053431 251.656458 
L 156.417154 265.174671 
L 156.943252 249.535274 
L 157.449865 252.432639 
L 157.930498 255.856596 
L 158.476081 249.635668 
L 158.982694 252.778361 
L 159.658178 237.158408 
L 160.431088 229.470594 
L 161.080592 237.639011 
L 161.58071 254.59188 
L 162.204234 242.644211 
L 162.873223 236.983587 
L 163.496746 238.008133 
L 164.165736 235.702377 
L 164.776269 240.923126 
L 165.425773 237.969771 
L 166.029812 246.282809 
L 166.653336 240.964807 
L 167.30284 244.452103 
L 167.958839 237.262382 
L 168.601847 238.917586 
L 169.270837 235.305734 
L 169.965806 235.086621 
L 170.634795 231.75258 
L 171.329764 230.124417 
L 171.979268 236.601243 
L 172.745683 228.429006 
L 173.473127 229.364347 
L 174.220057 229.585826 
L 174.947501 238.798185 
L 175.6035 232.744178 
L 176.285479 230.467921 
L 176.928488 231.612149 
L 177.629952 230.242266 
L 178.279456 244.670905 
L 178.922465 231.312434 
L 179.597949 229.13775 
L 180.279928 230.214408 
L 181.059333 231.976716 
L 181.871213 225.286142 
L 182.527212 230.643529 
L 183.189706 231.060213 
L 183.884675 227.011415 
L 184.592635 225.797135 
L 185.943603 232.417916 
L 186.612592 230.960222 
L 187.281581 225.875414 
L 187.931085 228.498561 
L 188.600074 229.444123 
L 189.282053 228.324993 
L 190.015992 223.192079 
L 190.704467 228.608983 
L 191.405931 222.363429 
L 192.08791 224.866845 
L 192.821849 223.325527 
L 193.575274 209.688287 
L 194.341689 212.083409 
L 195.225014 206.856853 
L 196.069369 213.43354 
L 196.874754 210.244679 
L 197.855505 200.00645 
L 198.901206 199.558894 
L 199.829997 205.30939 
L 200.784768 203.420294 
L 201.590153 222.943809 
L 202.622864 192.997579 
L 203.519179 219.037771 
L 204.272604 227.013083 
L 205.058504 222.976561 
L 205.980799 210.341251 
L 207.020006 210.693404 
L 207.663015 244.918117 
L 208.241073 252.31519 
L 209.3842 202.399334 
L 210.897544 247.453638 
L 211.962731 208.128057 
L 213.612471 189.369791 
L 215.385616 197.467167 
L 216.762565 227.039166 
L 217.243198 276.049468 
L 218.061573 248.420104 
L 218.50973 279.498523 
L 219.016343 276.35924 
L 219.477491 277.468431 
L 220.003589 270.060363 
L 220.581648 265.700175 
L 221.192182 265.603155 
L 221.523429 285.338274 
L 221.919626 281.850134 
L 222.393764 275.597659 
L 223.017288 262.133709 
L 223.796692 266.115805 
L 224.173405 282.152644 
L 224.699503 275.062459 
L 225.06972 280.866206 
L 225.394472 283.54984 
L 226.73245 231.960877 
L 229.97997 94.255228 
L 233.22749 54.565026 
L 234.520003 161.629178 
L 236.64388 63.743171 
L 237.799997 180.384633 
L 239.404272 124.784399 
L 240.307083 205.858498 
L 241.404744 182.507012 
L 242.385495 201.834892 
L 243.366246 199.75064 
L 244.236582 208.564526 
L 245.087432 210.489355 
L 245.970757 209.592089 
L 246.795627 211.502314 
L 247.665962 206.343571 
L 248.607743 205.424942 
L 249.569009 203.83587 
L 250.400374 212.764812 
L 251.212254 214.513231 
L 252.933439 207.733434 
L 253.745319 215.859237 
L 254.641635 205.485948 
L 255.466505 213.144076 
L 256.317355 211.073561 
L 257.21367 205.006396 
L 258.096996 206.774431 
L 258.954341 209.432274 
L 259.792201 210.392599 
L 260.733982 205.78983 
L 261.604317 209.069837 
L 262.507127 205.515843 
L 263.422928 207.877339 
L 265.157103 211.742727 
L 266.040429 206.119074 
L 266.897774 211.042925 
L 267.755119 208.651105 
L 268.612464 207.779308 
L 269.541255 206.298549 
L 270.528501 201.728963 
L 271.541727 203.260188 
L 272.477013 208.060729 
L 273.470754 203.83489 
L 274.412535 207.047298 
L 275.198434 220.176793 
L 276.237641 204.578607 
L 277.224887 210.125825 
L 277.945836 228.094018 
L 278.868132 213.477311 
L 279.751457 217.061294 
L 280.634782 217.641221 
L 281.583058 210.468842 
L 282.550819 212.39866 
L 283.434144 217.596068 
L 284.33046 214.607747 
L 285.096875 224.897003 
L 285.999685 215.492332 
L 286.915486 216.551139 
L 287.6819 226.590156 
L 288.597701 218.573549 
L 289.507006 216.627533 
L 291.156746 226.16598 
L 291.910171 227.683195 
L 292.676586 228.077516 
L 293.514446 226.452452 
L 294.209415 231.982632 
L 294.982325 228.340255 
L 295.722759 228.674762 
L 296.469689 227.830193 
L 297.307549 221.86492 
L 298.794913 231.207438 
L 300.165366 234.248678 
L 300.87982 230.577718 
L 301.672215 228.827928 
L 302.41265 229.601633 
L 303.185559 229.135647 
L 304.042905 221.59406 
L 304.724884 231.991905 
L 305.374388 234.734028 
L 306.127812 230.041155 
L 306.790306 233.509943 
L 307.459295 231.95035 
L 308.147769 231.58009 
L 308.803768 232.799829 
L 309.459767 234.449215 
L 310.161232 228.295205 
L 310.888676 226.658462 
L 311.681071 219.99538 
L 312.564396 209.537329 
L 313.324316 223.385394 
L 314.02578 229.308528 
L 314.77271 223.684953 
L 315.506649 226.631822 
L 316.312034 217.235767 
L 317.117419 219.740383 
L 317.818883 228.656532 
L 318.604783 220.629641 
L 319.455633 214.923126 
L 320.196068 224.457482 
L 321.033928 215.8714 
L 321.806837 221.37656 
L 322.534282 225.546275 
L 323.235746 227.251159 
L 324.060616 215.214967 
L 324.7361 230.258967 
L 325.489525 219.855971 
L 326.171504 230.211685 
L 326.957404 215.486691 
L 327.775779 213.409271 
L 328.568173 217.391515 
L 329.328093 221.836696 
L 330.230903 211.228276 
L 330.854427 236.757218 
L 331.659812 213.496036 
L 332.543137 206.478443 
L 333.406978 209.941505 
L 334.244838 210.073094 
L 335.095688 208.848515 
L 335.966023 208.875043 
L 336.849349 206.354314 
L 337.784634 205.947272 
L 338.538059 220.871356 
L 339.362929 213.164005 
L 339.986453 235.798413 
L 340.837303 208.98031 
L 342.03239 187.75505 
L 342.77932 217.882354 
L 343.60419 209.298017 
L 344.54597 206.1809 
L 345.35785 215.827075 
L 346.286641 208.594365 
L 347.306362 203.087473 
L 348.189687 206.635043 
L 349.105488 203.806301 
L 349.975823 211.133714 
L 350.820178 206.61483 
L 351.684019 208.333407 
L 353.762431 198.89474 
L 354.548331 211.629445 
L 355.340726 213.003788 
L 356.211061 209.237882 
L 357.048921 211.04237 
L 358.159573 200.151057 
L 359.114344 204.006417 
L 360.023649 205.424447 
L 360.855014 205.892422 
L 361.679884 208.087128 
L 362.732081 202.324215 
L 363.634891 201.877221 
L 364.589662 206.798272 
L 365.511958 204.419217 
L 366.447243 206.09894 
L 367.376034 207.113245 
L 368.32431 206.103317 
L 369.26609 206.672421 
L 370.279317 201.837054 
L 371.214602 204.76889 
L 372.162878 205.211079 
L 373.117649 207.096233 
L 374.07242 201.234839 
L 374.864814 213.463571 
L 375.858555 202.797446 
L 376.741881 206.03645 
L 377.586236 203.992192 
L 378.521522 205.273644 
L 379.417837 200.575431 
L 380.262192 206.849487 
L 381.113042 206.471453 
L 381.950902 205.338246 
L 382.847218 205.407432 
L 383.691573 206.338264 
L 384.568403 203.632805 
L 385.341313 212.805462 
L 386.179173 209.188349 
L 387.036518 204.836457 
L 387.861388 206.380876 
L 389.537108 210.077947 
L 390.348988 210.380811 
L 391.219324 204.376323 
L 392.076669 203.009372 
L 392.959994 201.874874 
L 393.9992 201.31811 
L 394.77211 213.870483 
L 395.577495 211.629049 
L 396.40886 207.781146 
L 397.188265 212.46068 
L 398.01963 208.084049 
L 398.01963 208.084049 
" clip-path="url(#p290e5b9c46)" style="fill: none; stroke: #1f77b4; stroke-width: 1.5; stroke-linecap: square"/>
   </g>
   <g id="line2d_17">
    <path d="M 76.982821 283.044615 
L 80.230341 283.11027 
L 83.477861 283.123509 
L 86.725381 282.941332 
L 89.9729 283.042004 
L 93.22042 283.073942 
L 96.46794 283.066548 
L 99.715459 283.038129 
L 102.962979 283.01366 
L 106.210499 283.022785 
L 109.458018 282.870586 
L 112.705538 283.045446 
L 115.953058 282.911574 
L 119.200578 282.94962 
L 122.448097 282.980745 
L 125.695617 282.977002 
L 128.943137 282.998938 
L 132.190656 282.904869 
L 135.438176 283.047633 
L 138.685696 283.08275 
L 141.933216 267.293077 
L 145.180735 277.931975 
L 148.428255 280.75252 
L 151.675775 281.42446 
L 154.923294 250.796895 
L 158.170814 246.536117 
L 161.418334 235.231963 
L 164.665854 234.375992 
L 167.913373 235.88881 
L 171.160893 231.358007 
L 174.408413 230.534858 
L 177.655932 231.977996 
L 180.903452 232.071391 
L 184.150972 223.921668 
L 187.398492 225.044572 
L 190.646011 218.915015 
L 193.893531 216.974987 
L 197.141051 204.11326 
L 200.38857 199.596365 
L 203.63609 186.932623 
L 206.88361 176.410174 
L 210.13113 233.321571 
L 213.378649 252.00161 
L 216.626169 261.200617 
L 219.873689 270.988015 
L 223.121208 273.194633 
L 226.368728 151.435219 
L 229.616248 135.783704 
L 232.863767 53.568 
L 236.111287 197.12923 
L 239.358807 183.144354 
L 242.606327 206.105217 
L 245.853846 217.019462 
L 249.101366 204.845854 
L 252.348886 207.462701 
L 255.596405 212.367899 
L 258.843925 202.96345 
L 262.091445 204.715464 
L 265.338965 209.924442 
L 268.586484 203.320159 
L 271.834004 204.000398 
L 275.081524 224.754072 
L 278.329043 224.134244 
L 281.576563 218.546028 
L 284.824083 215.910953 
L 288.071603 227.222261 
L 291.319122 228.851177 
L 294.566642 227.920242 
L 297.814162 229.845016 
L 301.061681 232.432334 
L 304.309201 234.196941 
L 307.556721 229.577185 
L 310.804241 221.70563 
L 314.05176 231.432845 
L 317.29928 225.069442 
L 320.5468 217.782349 
L 323.794319 211.53222 
L 327.041839 167.497226 
L 330.289359 227.695323 
L 333.536879 209.324096 
L 336.784398 209.666618 
L 340.031918 204.812532 
L 343.279438 212.922089 
L 346.526957 207.261665 
L 349.774477 209.898922 
L 353.021997 200.392787 
L 356.269516 194.884106 
L 359.517036 210.478607 
L 362.764556 209.114249 
L 366.012076 207.754 
L 369.259595 206.424276 
L 372.507115 204.423161 
L 375.754635 203.621769 
L 379.002154 207.550946 
L 382.249674 206.206899 
L 385.497194 204.373295 
L 388.744714 207.652712 
L 391.992233 208.5332 
L 395.239753 212.260988 
L 398.487273 199.637492 
" clip-path="url(#p290e5b9c46)" style="fill: none; stroke: #ff7f0e; stroke-width: 1.5; stroke-linecap: square"/>
   </g>
   <g id="line2d_18">
    <path d="M 73.858707 290.214221 
L 73.982113 290.255454 
L 74.053559 293.34332 
L 74.202945 287.807852 
L 74.534192 287.349907 
L 74.690072 292.698452 
L 74.793993 291.834503 
L 74.865439 292.964435 
L 75.06029 291.152682 
L 75.15122 293.235177 
L 75.216171 292.712097 
L 75.488962 285.736429 
L 75.586388 290.841883 
L 75.826704 283.842857 
L 76.008565 292.761213 
L 76.151456 290.815885 
L 76.339812 290.190586 
L 76.430743 292.137729 
L 76.580129 291.936349 
L 76.742505 290.469337 
L 76.956841 291.774047 
L 77.125712 291.732982 
L 77.236128 292.597421 
L 77.346544 290.923724 
L 77.541395 293.618583 
L 77.61284 292.499869 
L 77.950582 273.354882 
L 78.041513 292.37755 
L 78.288324 291.49613 
L 78.431215 289.489703 
L 78.496166 292.895333 
L 78.944323 254.890232 
L 79.067729 289.657505 
L 79.256085 289.535228 
L 79.327531 292.642909 
L 79.509392 292.327836 
L 79.626302 290.826875 
L 79.905589 291.579317 
L 80.03549 288.658709 
L 80.139411 290.878127 
L 80.256321 290.758396 
L 80.379727 291.776896 
L 80.548598 285.974323 
L 80.639529 291.466588 
L 80.801905 289.976014 
L 80.91232 293.90061 
L 81.094181 292.212694 
L 81.178617 293.153632 
L 81.457904 273.457211 
L 81.71121 283.478826 
L 81.795646 293.051325 
L 81.938536 291.600885 
L 82.009982 293.073566 
L 82.120398 290.434156 
L 82.185348 293.846088 
L 82.263288 292.056135 
L 82.49711 292.779926 
L 82.620516 289.276635 
L 82.860832 292.923866 
L 83.101149 286.958724 
L 83.185584 292.698572 
L 83.33497 289.930672 
L 83.529821 290.095771 
L 83.750652 280.755667 
L 83.854573 292.213723 
L 83.964989 291.197927 
L 84.17283 287.301191 
L 84.270256 292.958355 
L 84.406651 292.035754 
L 84.549542 291.9703 
L 84.659958 292.269332 
L 84.828829 287.289348 
L 85.231521 292.976991 
L 85.445858 290.497618 
L 85.601739 289.705419 
L 85.712154 290.636074 
L 85.79659 292.905342 
L 85.984946 288.998286 
L 86.153817 291.958395 
L 86.413619 288.666468 
L 86.498054 292.026757 
L 86.627955 288.503093 
L 86.881261 289.79255 
L 86.965697 292.095764 
L 87.186528 283.027238 
L 87.303439 290.212869 
L 87.4853 288.259377 
L 87.563241 293.348491 
L 87.634686 292.571739 
L 87.719122 292.498179 
L 87.803557 292.932981 
L 87.959438 291.844693 
L 88.23223 277.935096 
L 88.394606 291.479659 
L 88.505021 290.237505 
L 88.576467 293.201578 
L 88.771318 288.378194 
L 88.881734 289.495905 
L 89.050605 288.7394 
L 89.238961 287.348796 
L 89.349376 291.066175 
L 89.589693 291.948053 
L 89.758564 289.116548 
L 89.93393 290.7653 
L 90.167751 291.187851 
L 90.271672 292.276614 
L 90.498998 289.934727 
L 90.674364 292.723686 
L 90.79777 289.733711 
L 90.901691 293.877821 
L 91.122522 291.534996 
L 91.200463 292.814173 
L 91.401809 290.8736 
L 91.473254 293.167893 
L 91.694086 289.503759 
L 91.888937 283.699378 
L 91.979867 292.591175 
L 92.083788 292.300986 
L 92.155233 293.534872 
L 92.376065 285.193188 
L 92.48648 290.721024 
L 92.609886 290.767733 
L 92.934638 292.194871 
L 93.064539 287.958902 
L 93.25939 291.037774 
L 93.363311 290.37831 
L 93.493212 290.994409 
L 93.804973 288.618671 
L 93.98034 283.875186 
L 94.05828 292.684791 
L 94.188181 292.463246 
L 94.285606 291.700834 
L 94.499943 288.713908 
L 94.655824 289.699322 
L 94.727269 292.71252 
L 94.85717 289.549849 
L 95.123466 294.216427 
L 95.266357 290.517361 
L 95.409248 290.511735 
L 95.487189 293.146389 
L 95.727505 282.691999 
L 95.967822 292.120236 
L 96.208138 291.884181 
L 96.331544 289.391793 
L 96.448455 290.324255 
L 96.526395 292.176705 
L 96.727741 287.901743 
L 96.877127 288.518684 
L 97.039503 292.450959 
L 97.27982 291.382759 
L 97.39673 289.902586 
L 97.526631 290.024496 
L 97.727977 293.404459 
L 97.942314 282.670647 
L 98.13067 293.328177 
L 98.377481 288.65511 
L 98.598313 292.957501 
L 98.838629 291.378267 
L 98.923065 292.113187 
L 99.312767 286.099866 
L 99.436173 292.722521 
L 99.585559 290.837908 
L 99.74144 291.783968 
L 99.929796 287.355117 
L 100.248053 292.480873 
L 100.358468 291.476515 
L 100.72219 293.507016 
L 100.956012 287.544169 
L 101.170348 292.915309 
L 101.326229 290.97583 
L 101.43015 291.593824 
L 101.527575 291.271912 
L 101.618506 293.563756 
L 101.754902 291.574816 
L 101.819852 293.14129 
L 102.066664 289.53288 
L 102.157594 292.423125 
L 102.25502 292.261536 
L 102.417396 285.848259 
L 102.631732 292.174275 
L 102.755138 289.74687 
L 102.898029 290.072107 
L 102.975969 292.564624 
L 103.164325 287.439512 
L 103.625473 292.468975 
L 103.89177 285.983905 
L 104.054146 290.034212 
L 104.404878 286.111446 
L 104.502303 291.76684 
L 104.645194 290.693673 
L 104.71664 293.427906 
L 104.950461 280.575218 
L 105.041392 292.072754 
L 105.145312 291.153957 
L 105.346659 287.2713 
L 105.671411 286.835532 
L 105.931212 292.418736 
L 106.132558 291.77708 
L 106.255964 289.510592 
L 106.320914 292.911992 
L 106.45731 288.761103 
L 106.756082 293.123797 
L 106.937943 283.711814 
L 107.009389 292.717709 
L 107.139289 290.902881 
L 107.236715 291.05363 
L 107.418576 289.567075 
L 107.684873 283.264519 
L 107.847249 286.456679 
L 108.035605 287.649532 
L 108.13303 292.272835 
L 108.230456 291.727966 
L 108.295406 293.278149 
L 108.490258 291.528256 
L 108.711089 286.896451 
L 108.834495 290.525263 
L 109.055326 281.633501 
L 109.263167 280.957863 
L 109.347603 292.770562 
L 109.542454 287.615933 
L 109.66586 289.196204 
L 109.750295 292.212323 
L 109.899681 288.942117 
L 110.230928 291.282873 
L 110.445264 290.760486 
L 110.536195 292.05587 
L 110.731046 288.761056 
L 111.120749 292.546696 
L 111.32859 291.302811 
L 111.536431 293.063631 
L 111.594886 293.241868 
L 111.984589 286.263386 
L 112.19243 289.266415 
L 112.348311 288.442546 
L 112.530172 292.30395 
L 112.627598 291.284697 
L 112.809459 293.034681 
L 112.919875 290.030025 
L 113.023795 291.893518 
L 113.244626 289.600763 
L 113.329062 291.493706 
L 113.452468 289.839516 
L 113.640824 293.092342 
L 114.043516 289.534331 
L 114.660545 260.63921 
L 114.933337 292.729024 
L 115.082723 292.039251 
L 115.206128 289.021428 
L 115.374999 287.945913 
L 115.42696 293.756348 
L 115.5049 292.073368 
L 115.660781 292.594076 
L 115.823157 289.177642 
L 115.998523 292.298581 
L 116.082959 292.316076 
L 116.212859 290.931871 
L 116.485651 293.488636 
L 116.712978 287.625809 
L 116.914324 291.911066 
L 117.135155 290.03508 
L 117.239076 291.75419 
L 117.544343 288.879833 
L 117.726204 293.102763 
L 118.102916 289.192715 
L 118.265292 293.028104 
L 118.343232 292.884081 
L 118.551074 286.747383 
L 118.648499 292.608646 
L 118.73943 292.035362 
L 118.882321 291.74529 
L 119.005726 290.514465 
L 119.252538 289.306424 
L 119.55131 274.811435 
L 119.66822 291.496164 
L 119.882557 286.728706 
L 119.960497 292.912109 
L 120.051428 292.083902 
L 120.226794 291.848915 
L 120.519071 286.158996 
L 120.603506 292.476976 
L 120.752892 290.467546 
L 120.934753 292.639102 
L 121.181565 284.430059 
L 121.408891 292.307245 
L 121.499822 291.396436 
L 121.616732 293.345857 
L 122.07788 288.484905 
L 122.389642 291.734011 
L 122.584493 285.932405 
L 122.655939 292.41639 
L 122.792334 292.204982 
L 122.948215 288.629783 
L 123.188532 291.39304 
L 123.311938 291.147313 
L 123.454828 292.935299 
L 123.584729 292.329283 
L 123.76659 289.509029 
L 123.954946 292.216676 
L 124.032887 293.153345 
L 124.117322 292.022827 
L 124.617441 255.65518 
L 124.708371 292.230846 
L 124.838272 291.255721 
L 124.948688 291.429349 
L 125.28643 292.479547 
L 125.396845 291.015671 
L 125.656647 284.73273 
L 125.922943 286.206562 
L 126.15027 290.713465 
L 126.364606 282.743157 
L 126.501002 289.145432 
L 126.669873 291.13049 
L 126.851734 290.545355 
L 127.105041 288.463883 
L 127.325872 292.435028 
L 127.644129 289.814646 
L 127.87795 284.316919 
L 128.001356 292.658824 
L 128.163732 286.656856 
L 128.481989 293.520451 
L 128.592405 291.797197 
L 128.787256 285.429066 
L 128.904167 292.051796 
L 129.086028 293.139605 
L 129.241909 289.266739 
L 129.306859 293.133179 
L 129.612126 281.311273 
L 129.696561 293.293196 
L 129.793987 291.2173 
L 129.871927 292.920719 
L 130.099254 290.62935 
L 130.32658 279.853905 
L 130.417511 292.431097 
L 130.508441 291.604115 
L 130.599372 293.21925 
L 130.683807 292.413228 
L 130.833193 288.523694 
L 131.008559 290.250135 
L 131.144955 292.935988 
L 131.287846 292.695781 
L 131.463212 291.68694 
L 131.632083 292.254786 
L 131.748994 290.817422 
L 131.833429 292.599755 
L 132.0023 288.483243 
L 132.184161 288.948155 
L 132.294577 290.710979 
L 132.424478 289.944967 
L 132.671289 291.525528 
L 132.833665 287.517716 
L 133.281823 265.530825 
L 133.619565 277.791846 
L 133.723486 291.80159 
L 133.853387 290.250502 
L 133.963802 290.946818 
L 134.217109 284.981464 
L 134.405465 287.867945 
L 134.574336 292.983101 
L 134.723722 290.089975 
L 134.847128 291.382703 
L 135.145899 281.416983 
L 135.31477 291.619054 
L 135.548592 284.998381 
L 135.613542 292.833446 
L 135.944789 287.991989 
L 136.029225 294.048841 
L 136.133145 290.943104 
L 136.191601 293.592025 
L 136.327997 289.235948 
L 136.457897 291.734359 
L 136.607283 291.266482 
L 136.691719 291.857584 
L 136.815125 290.446014 
L 137.035956 292.534959 
L 137.126886 293.081466 
L 137.399678 282.78943 
L 137.568549 293.037794 
L 137.821856 285.510331 
L 137.893301 293.291821 
L 138.49734 279.441004 
L 138.705181 292.399337 
L 138.835082 291.786323 
L 139.114368 288.046391 
L 139.536546 293.171126 
L 139.698922 288.880803 
L 140.257495 253.107412 
L 140.432861 293.142952 
L 140.536782 290.899996 
L 140.608228 292.508669 
L 140.98494 277.412268 
L 141.095356 291.569177 
L 141.244741 290.835821 
L 141.433098 292.617806 
L 141.705889 274.644141 
L 141.777335 292.248077 
L 141.88775 292.188458 
L 142.017651 288.55506 
L 142.59571 266.853071 
L 142.732105 289.99877 
L 143.030877 271.443127 
L 143.141293 292.742868 
L 143.5245 264.459358 
L 143.699866 281.642585 
L 143.940183 276.396225 
L 144.25844 275.659603 
L 144.998874 241.310304 
L 145.213211 279.098667 
L 145.375586 287.405238 
L 145.596418 278.502443 
L 146.167981 262.61513 
L 146.401803 276.284735 
L 146.635624 277.584249 
L 146.82398 280.449044 
L 147.863187 234.111554 
L 148.129483 273.752123 
L 148.4997 286.439002 
L 148.681562 281.129712 
L 148.863423 281.25657 
L 149.051779 280.869989 
L 149.499937 255.685407 
L 149.850669 266.899267 
L 150.039025 280.693839 
L 150.318311 277.243418 
L 150.740489 257.57673 
L 150.987301 275.332054 
L 151.195142 278.794396 
L 151.78619 238.129724 
L 151.981042 280.265444 
L 152.52013 241.992547 
L 153.481396 255.885935 
L 153.676247 280.476705 
L 154.306266 237.356127 
L 154.916799 234.108571 
L 155.481868 237.524588 
L 156.059926 243.366748 
L 156.624995 242.36619 
L 157.196558 240.060743 
L 157.761627 241.375697 
L 158.26824 248.037252 
L 158.833308 240.467029 
L 159.359406 247.590705 
L 159.924475 240.363411 
L 160.470058 241.093172 
L 161.067602 239.521275 
L 161.626175 242.122172 
L 162.178253 242.284524 
L 162.736827 241.683924 
L 163.353856 232.855852 
L 163.957894 238.299928 
L 164.516468 239.822793 
L 165.107516 239.171571 
L 165.672585 240.599912 
L 166.231158 240.497078 
L 166.802722 240.631584 
L 167.361295 241.379113 
L 167.939353 237.920667 
L 168.497927 238.506756 
L 169.121451 233.780021 
L 169.706004 237.297926 
L 170.258083 241.492005 
L 170.823151 239.860887 
L 171.388219 239.728356 
L 171.953288 240.082382 
L 172.498871 241.059916 
L 173.07693 238.151244 
L 173.629008 241.349664 
L 174.187581 239.603865 
L 174.746155 242.040813 
L 175.304728 238.770013 
L 175.863302 239.168076 
L 176.44136 237.135862 
L 177.012924 236.910842 
L 177.597477 236.326495 
L 178.15605 239.038126 
L 178.714624 238.85653 
L 179.286187 236.993341 
L 179.877236 235.918333 
L 180.435809 238.535138 
L 181.033353 235.530607 
L 181.591926 239.361297 
L 182.16349 236.916577 
L 182.761033 233.803918 
L 183.339092 237.382099 
L 184.527684 236.091063 
L 185.105743 237.538371 
L 185.683801 236.070069 
L 186.27485 235.848974 
L 186.846413 238.827973 
L 187.437462 236.663126 
L 188.060986 231.255294 
L 188.678014 232.692158 
L 189.347003 232.7714 
L 189.912072 238.895411 
L 190.47714 237.787266 
L 191.061694 237.630054 
L 191.620267 239.615652 
L 192.185336 238.14661 
L 192.815354 231.232839 
L 193.406403 239.811666 
L 193.990957 239.090469 
L 194.56252 240.065209 
L 195.140579 238.699764 
L 195.848538 231.018688 
L 196.400616 241.699771 
L 196.946199 240.889093 
L 197.530753 237.736416 
L 198.082831 239.648321 
L 198.680375 237.074046 
L 199.232453 239.255449 
L 199.778037 239.787308 
L 200.33661 239.0272 
L 200.947144 235.789239 
L 201.505717 241.227303 
L 202.155221 234.86342 
L 202.765755 237.119871 
L 203.337318 240.215353 
L 204.168683 226.509229 
L 204.753237 243.001856 
L 205.370266 233.948409 
L 205.974304 237.561654 
L 206.584838 237.691277 
L 207.188877 233.804814 
L 207.825391 227.444119 
L 208.49438 224.000277 
L 209.728437 236.601426 
L 210.403921 221.412817 
L 211.813345 149.013039 
L 212.579759 206.72401 
L 213.554015 199.716145 
L 214.33342 210.638518 
L 215.099835 210.984933 
L 215.989655 203.159222 
L 216.814525 216.095379 
L 217.477019 224.145381 
L 218.600661 186.108625 
L 219.198205 260.065251 
L 220.075035 191.87624 
L 220.964855 204.163831 
L 221.80921 202.284595 
L 222.731506 201.418066 
L 223.556376 206.251926 
L 224.374751 205.001687 
L 225.186631 202.77029 
L 226.005006 205.185957 
L 226.803896 204.533461 
L 227.622271 206.009028 
L 228.434151 206.469578 
L 229.304486 204.536954 
L 230.135851 205.319672 
L 231.006186 202.25375 
L 231.779096 209.76303 
L 232.616956 204.436443 
L 233.422341 206.42937 
L 234.273191 204.448483 
L 235.091566 205.267635 
L 235.942416 205.108544 
L 236.858217 207.450294 
L 237.676592 205.713877 
L 238.481977 206.209663 
L 239.313342 202.819067 
L 240.170687 202.656062 
L 241.034527 201.810535 
L 241.859397 204.315471 
L 242.703752 202.04224 
L 243.522127 205.133994 
L 245.256303 200.631927 
L 246.113648 201.928557 
L 247.035944 197.829464 
L 247.906279 201.035969 
L 248.711664 208.133965 
L 249.607979 199.590554 
L 250.51079 201.265692 
L 251.472055 197.814151 
L 252.420331 198.851257 
L 253.368607 197.9968 
L 254.511734 189.539799 
L 255.330109 203.214952 
L 256.200444 200.693134 
L 257.12274 198.989061 
L 258.045035 198.392131 
L 259.233628 188.036465 
L 260.285824 191.931679 
L 260.441705 294.562622 
L 260.578101 294.799419 
L 261.727723 190.278614 
L 261.857623 294.945944 
L 262.11093 295.225707 
L 262.227841 295.488 
L 262.364237 294.975331 
L 262.611048 295.486768 
L 262.838374 295.362678 
L 262.968275 295.192253 
L 263.338492 295.410524 
L 263.461898 295.376842 
L 263.73469 295.033141 
L 263.877581 295.241133 
L 264.156867 295.05339 
L 264.306253 294.991752 
L 264.455639 294.798178 
L 264.605025 294.92706 
L 264.773896 294.288111 
L 264.916787 295.008248 
L 265.066173 294.847641 
L 265.215559 294.925446 
L 265.37144 294.640234 
L 265.527321 294.610637 
L 265.994964 294.77985 
L 266.150845 294.660028 
L 266.306725 294.816049 
L 266.462606 294.436094 
L 266.637972 294.351099 
L 266.780863 294.675387 
L 266.956229 294.106397 
L 267.1251 294.421221 
L 267.456347 294.016276 
L 267.605733 294.601426 
L 267.781099 294.033837 
L 268.125337 293.70066 
L 268.333178 293.315254 
L 268.541019 293.247346 
L 268.77484 292.268099 
L 268.956702 293.693713 
L 269.112583 294.013098 
L 269.45682 293.674133 
L 269.59971 294.338155 
L 270.093333 293.86883 
L 270.262204 293.815483 
L 270.450561 293.42022 
L 270.794798 293.640171 
L 270.976659 293.157775 
L 271.1845 293.074558 
L 271.450797 291.177999 
L 271.619668 293.696239 
L 271.795034 293.5197 
L 272.002875 293.05508 
L 272.191231 293.247139 
L 272.366597 294.065605 
L 272.548458 293.223296 
L 272.944656 292.648442 
L 273.126517 293.165348 
L 273.334358 292.492753 
L 273.548694 292.268508 
L 273.756536 292.597359 
L 273.951387 292.576588 
L 274.178713 292.157002 
L 274.399545 292.18618 
L 274.600891 292.079004 
L 275.191939 289.494495 
L 275.536176 288.688011 
L 275.757008 292.106859 
L 276.114235 287.836381 
L 276.432492 289.109131 
L 276.744254 289.866135 
L 277.069006 288.561028 
L 277.458708 285.686316 
L 277.789955 288.609047 
L 278.894112 253.595092 
L 279.179894 290.402437 
L 280.004764 282.363659 
L 280.329516 288.352792 
L 280.660763 288.597601 
L 283.908282 134.924697 
L 285.545032 188.637138 
L 287.045386 193.613926 
L 288.259959 205.598992 
L 290.234451 170.585319 
L 291.117776 206.003554 
L 292.124507 198.310032 
L 293.845693 204.570293 
L 294.657573 205.903139 
L 295.410997 209.487518 
L 296.125451 216.428124 
L 296.878876 209.122819 
L 297.651786 207.255969 
L 298.40521 209.861883 
L 299.13915 211.783307 
L 299.892574 211.735392 
L 300.658989 208.586594 
L 301.373443 215.089973 
L 302.100888 214.258131 
L 302.834827 212.983088 
L 303.555777 213.995521 
L 304.289716 212.916027 
L 304.984685 217.208189 
L 305.69914 216.74601 
L 306.394109 218.747275 
L 307.063098 222.02913 
L 307.751572 220.521284 
L 308.433551 220.675786 
L 309.122025 220.300987 
L 309.816995 219.36064 
L 310.485984 223.347998 
L 311.135488 225.038382 
L 311.797982 223.667469 
L 312.492951 219.587157 
L 313.194415 218.418253 
L 313.830929 228.072338 
L 314.493423 223.661018 
L 315.129937 227.63753 
L 315.733975 232.51339 
L 316.480905 216.337062 
L 317.175874 220.193136 
L 317.812388 227.954133 
L 318.448902 227.582261 
L 319.091911 228.073014 
L 319.806365 219.526814 
L 320.423394 231.168427 
L 321.059908 228.737049 
L 321.748382 221.084144 
L 322.384896 227.619162 
L 323.09935 222.000803 
L 323.735864 228.137158 
L 324.450318 218.955752 
L 325.099822 228.604722 
L 325.723346 230.849232 
L 326.39883 224.745547 
L 327.18473 210.00626 
L 327.964135 215.630915 
L 328.633124 223.004176 
L 329.360568 215.790341 
L 330.088013 216.468494 
L 330.860922 212.094515 
L 331.601357 216.265837 
L 332.309316 219.145455 
L 333.030265 218.124195 
L 333.803175 211.037689 
L 334.796916 190.995512 
L 335.608796 205.487878 
L 336.524597 199.330097 
L 337.349467 206.94215 
L 338.278257 188.093845 
L 339.142098 196.47865 
L 339.953977 198.890939 
L 340.889263 194.627275 
L 341.986925 172.035381 
L 342.889735 192.868048 
L 343.863991 181.596797 
L 345.020108 161.419532 
L 346.013849 181.036462 
L 346.98161 186.109446 
L 347.825965 205.553133 
L 348.787231 180.515244 
L 350.339546 151.450783 
L 351.489167 150.756628 
L 352.859621 150.13108 
L 354.210589 159.304855 
L 355.444646 174.783788 
L 356.373437 197.421275 
L 357.302228 198.178245 
L 358.081632 208.045032 
L 358.977948 201.484803 
L 359.945709 200.369584 
L 361.218737 174.138549 
L 362.355368 179.649531 
L 363.271169 201.466852 
L 364.245425 198.323502 
L 365.258651 197.246805 
L 366.297857 191.138306 
L 367.492945 168.697262 
L 368.733497 187.628282 
L 369.902604 172.702536 
L 371.006761 198.108539 
L 372.227828 166.864187 
L 373.176104 195.292797 
L 374.364696 170.232719 
L 375.793605 151.867083 
L 377.280969 152.286831 
L 378.800808 156.556201 
L 380.76231 104.939298 
L 382.249674 142.070867 
L 384.263136 118.042624 
L 386.029787 133.968541 
L 387.880873 127.909869 
L 389.647524 148.064694 
L 391.238809 137.541594 
L 394.486328 92.527762 
L 396.876503 94.872123 
L 396.876503 94.872123 
" clip-path="url(#p290e5b9c46)" style="fill: none; stroke: #2ca02c; stroke-width: 1.5; stroke-linecap: square"/>
   </g>
   <g id="patch_3">
    <path d="M 57.6 307.584 
L 57.6 41.472 
" style="fill: none; stroke: #000000; stroke-width: 0.8; stroke-linejoin: miter; stroke-linecap: square"/>
   </g>
   <g id="patch_4">
    <path d="M 414.72 307.584 
L 414.72 41.472 
" style="fill: none; stroke: #000000; stroke-width: 0.8; stroke-linejoin: miter; stroke-linecap: square"/>
   </g>
   <g id="patch_5">
    <path d="M 57.6 307.584 
L 414.72 307.584 
" style="fill: none; stroke: #000000; stroke-width: 0.8; stroke-linejoin: miter; stroke-linecap: square"/>
   </g>
   <g id="patch_6">
    <path d="M 57.6 41.472 
L 414.72 41.472 
" style="fill: none; stroke: #000000; stroke-width: 0.8; stroke-linejoin: miter; stroke-linecap: square"/>
   </g>
   <g id="text_18">
    <!-- learning curve -->
    <g transform="translate(192.96375 35.472) scale(0.12 -0.12)">
     <defs>
      <path id="DejaVuSans-6c" d="M 603 4863 
L 1178 4863 
L 1178 0 
L 603 0 
L 603 4863 
z
" transform="scale(0.015625)"/>
      <path id="DejaVuSans-67" d="M 2906 1791 
Q 2906 2416 2648 2759 
Q 2391 3103 1925 3103 
Q 1463 3103 1205 2759 
Q 947 2416 947 1791 
Q 947 1169 1205 825 
Q 1463 481 1925 481 
Q 2391 481 2648 825 
Q 2906 1169 2906 1791 
z
M 3481 434 
Q 3481 -459 3084 -895 
Q 2688 -1331 1869 -1331 
Q 1566 -1331 1297 -1286 
Q 1028 -1241 775 -1147 
L 775 -588 
Q 1028 -725 1275 -790 
Q 1522 -856 1778 -856 
Q 2344 -856 2625 -561 
Q 2906 -266 2906 331 
L 2906 616 
Q 2728 306 2450 153 
Q 2172 0 1784 0 
Q 1141 0 747 490 
Q 353 981 353 1791 
Q 353 2603 747 3093 
Q 1141 3584 1784 3584 
Q 2172 3584 2450 3431 
Q 2728 3278 2906 2969 
L 2906 3500 
L 3481 3500 
L 3481 434 
z
" transform="scale(0.015625)"/>
      <path id="DejaVuSans-63" d="M 3122 3366 
L 3122 2828 
Q 2878 2963 2633 3030 
Q 2388 3097 2138 3097 
Q 1578 3097 1268 2742 
Q 959 2388 959 1747 
Q 959 1106 1268 751 
Q 1578 397 2138 397 
Q 2388 397 2633 464 
Q 2878 531 3122 666 
L 3122 134 
Q 2881 22 2623 -34 
Q 2366 -91 2075 -91 
Q 1284 -91 818 406 
Q 353 903 353 1747 
Q 353 2603 823 3093 
Q 1294 3584 2113 3584 
Q 2378 3584 2631 3529 
Q 2884 3475 3122 3366 
z
" transform="scale(0.015625)"/>
      <path id="DejaVuSans-75" d="M 544 1381 
L 544 3500 
L 1119 3500 
L 1119 1403 
Q 1119 906 1312 657 
Q 1506 409 1894 409 
Q 2359 409 2629 706 
Q 2900 1003 2900 1516 
L 2900 3500 
L 3475 3500 
L 3475 0 
L 2900 0 
L 2900 538 
Q 2691 219 2414 64 
Q 2138 -91 1772 -91 
Q 1169 -91 856 284 
Q 544 659 544 1381 
z
M 1991 3584 
L 1991 3584 
z
" transform="scale(0.015625)"/>
      <path id="DejaVuSans-76" d="M 191 3500 
L 800 3500 
L 1894 563 
L 2988 3500 
L 3597 3500 
L 2284 0 
L 1503 0 
L 191 3500 
z
" transform="scale(0.015625)"/>
     </defs>
     <use xlink:href="#DejaVuSans-6c"/>
     <use xlink:href="#DejaVuSans-65" x="27.783203"/>
     <use xlink:href="#DejaVuSans-61" x="89.306641"/>
     <use xlink:href="#DejaVuSans-72" x="150.585938"/>
     <use xlink:href="#DejaVuSans-6e" x="189.949219"/>
     <use xlink:href="#DejaVuSans-69" x="253.328125"/>
     <use xlink:href="#DejaVuSans-6e" x="281.111328"/>
     <use xlink:href="#DejaVuSans-67" x="344.490234"/>
     <use xlink:href="#DejaVuSans-20" x="407.966797"/>
     <use xlink:href="#DejaVuSans-63" x="439.753906"/>
     <use xlink:href="#DejaVuSans-75" x="494.734375"/>
     <use xlink:href="#DejaVuSans-72" x="558.113281"/>
     <use xlink:href="#DejaVuSans-76" x="599.226562"/>
     <use xlink:href="#DejaVuSans-65" x="658.40625"/>
    </g>
   </g>
   <g id="legend_1">
    <g id="patch_7">
     <path d="M 64.6 93.506375 
L 166.614062 93.506375 
Q 168.614062 93.506375 168.614062 91.506375 
L 168.614062 48.472 
Q 168.614062 46.472 166.614062 46.472 
L 64.6 46.472 
Q 62.6 46.472 62.6 48.472 
L 62.6 91.506375 
Q 62.6 93.506375 64.6 93.506375 
z
" style="fill: #ffffff; opacity: 0.8; stroke: #cccccc; stroke-linejoin: miter"/>
    </g>
    <g id="line2d_19">
     <path d="M 66.6 54.570438 
L 76.6 54.570438 
L 86.6 54.570438 
" style="fill: none; stroke: #1f77b4; stroke-width: 1.5; stroke-linecap: square"/>
    </g>
    <g id="text_19">
     <!-- source-source -->
     <g transform="translate(94.6 58.070438) scale(0.1 -0.1)">
      <defs>
       <path id="DejaVuSans-2d" d="M 313 2009 
L 1997 2009 
L 1997 1497 
L 313 1497 
L 313 2009 
z
" transform="scale(0.015625)"/>
      </defs>
      <use xlink:href="#DejaVuSans-73"/>
      <use xlink:href="#DejaVuSans-6f" x="52.099609"/>
      <use xlink:href="#DejaVuSans-75" x="113.28125"/>
      <use xlink:href="#DejaVuSans-72" x="176.660156"/>
      <use xlink:href="#DejaVuSans-63" x="215.523438"/>
      <use xlink:href="#DejaVuSans-65" x="270.503906"/>
      <use xlink:href="#DejaVuSans-2d" x="332.027344"/>
      <use xlink:href="#DejaVuSans-73" x="368.111328"/>
      <use xlink:href="#DejaVuSans-6f" x="420.210938"/>
      <use xlink:href="#DejaVuSans-75" x="481.392578"/>
      <use xlink:href="#DejaVuSans-72" x="544.771484"/>
      <use xlink:href="#DejaVuSans-63" x="583.634766"/>
      <use xlink:href="#DejaVuSans-65" x="638.615234"/>
     </g>
    </g>
    <g id="line2d_20">
     <path d="M 66.6 69.248563 
L 76.6 69.248563 
L 86.6 69.248563 
" style="fill: none; stroke: #ff7f0e; stroke-width: 1.5; stroke-linecap: square"/>
    </g>
    <g id="text_20">
     <!-- source-target -->
     <g transform="translate(94.6 72.748563) scale(0.1 -0.1)">
      <use xlink:href="#DejaVuSans-73"/>
      <use xlink:href="#DejaVuSans-6f" x="52.099609"/>
      <use xlink:href="#DejaVuSans-75" x="113.28125"/>
      <use xlink:href="#DejaVuSans-72" x="176.660156"/>
      <use xlink:href="#DejaVuSans-63" x="215.523438"/>
      <use xlink:href="#DejaVuSans-65" x="270.503906"/>
      <use xlink:href="#DejaVuSans-2d" x="332.027344"/>
      <use xlink:href="#DejaVuSans-74" x="368.111328"/>
      <use xlink:href="#DejaVuSans-61" x="407.320312"/>
      <use xlink:href="#DejaVuSans-72" x="468.599609"/>
      <use xlink:href="#DejaVuSans-67" x="507.962891"/>
      <use xlink:href="#DejaVuSans-65" x="571.439453"/>
      <use xlink:href="#DejaVuSans-74" x="632.962891"/>
     </g>
    </g>
    <g id="line2d_21">
     <path d="M 66.6 83.926688 
L 76.6 83.926688 
L 86.6 83.926688 
" style="fill: none; stroke: #2ca02c; stroke-width: 1.5; stroke-linecap: square"/>
    </g>
    <g id="text_21">
     <!-- target-target -->
     <g transform="translate(94.6 87.426688) scale(0.1 -0.1)">
      <use xlink:href="#DejaVuSans-74"/>
      <use xlink:href="#DejaVuSans-61" x="39.208984"/>
      <use xlink:href="#DejaVuSans-72" x="100.488281"/>
      <use xlink:href="#DejaVuSans-67" x="139.851562"/>
      <use xlink:href="#DejaVuSans-65" x="203.328125"/>
      <use xlink:href="#DejaVuSans-74" x="264.851562"/>
      <use xlink:href="#DejaVuSans-2d" x="304.060547"/>
      <use xlink:href="#DejaVuSans-74" x="340.144531"/>
      <use xlink:href="#DejaVuSans-61" x="379.353516"/>
      <use xlink:href="#DejaVuSans-72" x="440.632812"/>
      <use xlink:href="#DejaVuSans-67" x="479.996094"/>
      <use xlink:href="#DejaVuSans-65" x="543.472656"/>
      <use xlink:href="#DejaVuSans-74" x="604.996094"/>
     </g>
    </g>
   </g>
  </g>
 </g>
 <defs>
  <clipPath id="p290e5b9c46">
   <rect x="57.6" y="41.472" width="357.12" height="266.112"/>
  </clipPath>
 </defs>
</svg>
