<?xml version="1.0" encoding="utf-8" standalone="no"?>
<!DOCTYPE svg PUBLIC "-//W3C//DTD SVG 1.1//EN"
  "http://www.w3.org/Graphics/SVG/1.1/DTD/svg11.dtd">
<svg xmlns:xlink="http://www.w3.org/1999/xlink" width="460.8pt" height="345.6pt" viewBox="0 0 460.8 345.6" xmlns="http://www.w3.org/2000/svg" version="1.1">
 <metadata>
  <rdf:RDF xmlns:dc="http://purl.org/dc/elements/1.1/" xmlns:cc="http://creativecommons.org/ns#" xmlns:rdf="http://www.w3.org/1999/02/22-rdf-syntax-ns#">
   <cc:Work>
    <dc:type rdf:resource="http://purl.org/dc/dcmitype/StillImage"/>
    <dc:date>2023-08-19T13:56:05.657301</dc:date>
    <dc:format>image/svg+xml</dc:format>
    <dc:creator>
     <cc:Agent>
      <dc:title>Matplotlib v3.7.1, https://matplotlib.org/</dc:title>
     </cc:Agent>
    </dc:creator>
   </cc:Work>
  </rdf:RDF>
 </metadata>
 <defs>
  <style type="text/css">*{stroke-linejoin: round; stroke-linecap: butt}</style>
 </defs>
 <g id="figure_1">
  <g id="patch_1">
   <path d="M 0 345.6 
L 460.8 345.6 
L 460.8 0 
L 0 0 
z
" style="fill: #ffffff"/>
  </g>
  <g id="axes_1">
   <g id="patch_2">
    <path d="M 57.6 307.584 
L 414.72 307.584 
L 414.72 41.472 
L 57.6 41.472 
z
" style="fill: #ffffff"/>
   </g>
   <g id="matplotlib.axis_1">
    <g id="xtick_1">
     <g id="line2d_1">
      <defs>
       <path id="mefd7d4f8b9" d="M 0 0 
L 0 3.5 
" style="stroke: #000000; stroke-width: 0.8"/>
      </defs>
      <g>
       <use xlink:href="#mefd7d4f8b9" x="73.611812" y="307.584" style="stroke: #000000; stroke-width: 0.8"/>
      </g>
     </g>
     <g id="text_1">
      <!-- 0 -->
      <g transform="translate(70.430562 322.182437) scale(0.1 -0.1)">
       <defs>
        <path id="DejaVuSans-30" d="M 2034 4250 
Q 1547 4250 1301 3770 
Q 1056 3291 1056 2328 
Q 1056 1369 1301 889 
Q 1547 409 2034 409 
Q 2525 409 2770 889 
Q 3016 1369 3016 2328 
Q 3016 3291 2770 3770 
Q 2525 4250 2034 4250 
z
M 2034 4750 
Q 2819 4750 3233 4129 
Q 3647 3509 3647 2328 
Q 3647 1150 3233 529 
Q 2819 -91 2034 -91 
Q 1250 -91 836 529 
Q 422 1150 422 2328 
Q 422 3509 836 4129 
Q 1250 4750 2034 4750 
z
" transform="scale(0.015625)"/>
       </defs>
       <use xlink:href="#DejaVuSans-30"/>
      </g>
     </g>
    </g>
    <g id="xtick_2">
     <g id="line2d_2">
      <g>
       <use xlink:href="#mefd7d4f8b9" x="138.586904" y="307.584" style="stroke: #000000; stroke-width: 0.8"/>
      </g>
     </g>
     <g id="text_2">
      <!-- 100000 -->
      <g transform="translate(119.499404 322.182437) scale(0.1 -0.1)">
       <defs>
        <path id="DejaVuSans-31" d="M 794 531 
L 1825 531 
L 1825 4091 
L 703 3866 
L 703 4441 
L 1819 4666 
L 2450 4666 
L 2450 531 
L 3481 531 
L 3481 0 
L 794 0 
L 794 531 
z
" transform="scale(0.015625)"/>
       </defs>
       <use xlink:href="#DejaVuSans-31"/>
       <use xlink:href="#DejaVuSans-30" x="63.623047"/>
       <use xlink:href="#DejaVuSans-30" x="127.246094"/>
       <use xlink:href="#DejaVuSans-30" x="190.869141"/>
       <use xlink:href="#DejaVuSans-30" x="254.492188"/>
       <use xlink:href="#DejaVuSans-30" x="318.115234"/>
      </g>
     </g>
    </g>
    <g id="xtick_3">
     <g id="line2d_3">
      <g>
       <use xlink:href="#mefd7d4f8b9" x="203.561996" y="307.584" style="stroke: #000000; stroke-width: 0.8"/>
      </g>
     </g>
     <g id="text_3">
      <!-- 200000 -->
      <g transform="translate(184.474496 322.182437) scale(0.1 -0.1)">
       <defs>
        <path id="DejaVuSans-32" d="M 1228 531 
L 3431 531 
L 3431 0 
L 469 0 
L 469 531 
Q 828 903 1448 1529 
Q 2069 2156 2228 2338 
Q 2531 2678 2651 2914 
Q 2772 3150 2772 3378 
Q 2772 3750 2511 3984 
Q 2250 4219 1831 4219 
Q 1534 4219 1204 4116 
Q 875 4013 500 3803 
L 500 4441 
Q 881 4594 1212 4672 
Q 1544 4750 1819 4750 
Q 2544 4750 2975 4387 
Q 3406 4025 3406 3419 
Q 3406 3131 3298 2873 
Q 3191 2616 2906 2266 
Q 2828 2175 2409 1742 
Q 1991 1309 1228 531 
z
" transform="scale(0.015625)"/>
       </defs>
       <use xlink:href="#DejaVuSans-32"/>
       <use xlink:href="#DejaVuSans-30" x="63.623047"/>
       <use xlink:href="#DejaVuSans-30" x="127.246094"/>
       <use xlink:href="#DejaVuSans-30" x="190.869141"/>
       <use xlink:href="#DejaVuSans-30" x="254.492188"/>
       <use xlink:href="#DejaVuSans-30" x="318.115234"/>
      </g>
     </g>
    </g>
    <g id="xtick_4">
     <g id="line2d_4">
      <g>
       <use xlink:href="#mefd7d4f8b9" x="268.537088" y="307.584" style="stroke: #000000; stroke-width: 0.8"/>
      </g>
     </g>
     <g id="text_4">
      <!-- 300000 -->
      <g transform="translate(249.449588 322.182437) scale(0.1 -0.1)">
       <defs>
        <path id="DejaVuSans-33" d="M 2597 2516 
Q 3050 2419 3304 2112 
Q 3559 1806 3559 1356 
Q 3559 666 3084 287 
Q 2609 -91 1734 -91 
Q 1441 -91 1130 -33 
Q 819 25 488 141 
L 488 750 
Q 750 597 1062 519 
Q 1375 441 1716 441 
Q 2309 441 2620 675 
Q 2931 909 2931 1356 
Q 2931 1769 2642 2001 
Q 2353 2234 1838 2234 
L 1294 2234 
L 1294 2753 
L 1863 2753 
Q 2328 2753 2575 2939 
Q 2822 3125 2822 3475 
Q 2822 3834 2567 4026 
Q 2313 4219 1838 4219 
Q 1578 4219 1281 4162 
Q 984 4106 628 3988 
L 628 4550 
Q 988 4650 1302 4700 
Q 1616 4750 1894 4750 
Q 2613 4750 3031 4423 
Q 3450 4097 3450 3541 
Q 3450 3153 3228 2886 
Q 3006 2619 2597 2516 
z
" transform="scale(0.015625)"/>
       </defs>
       <use xlink:href="#DejaVuSans-33"/>
       <use xlink:href="#DejaVuSans-30" x="63.623047"/>
       <use xlink:href="#DejaVuSans-30" x="127.246094"/>
       <use xlink:href="#DejaVuSans-30" x="190.869141"/>
       <use xlink:href="#DejaVuSans-30" x="254.492188"/>
       <use xlink:href="#DejaVuSans-30" x="318.115234"/>
      </g>
     </g>
    </g>
    <g id="xtick_5">
     <g id="line2d_5">
      <g>
       <use xlink:href="#mefd7d4f8b9" x="333.512181" y="307.584" style="stroke: #000000; stroke-width: 0.8"/>
      </g>
     </g>
     <g id="text_5">
      <!-- 400000 -->
      <g transform="translate(314.424681 322.182437) scale(0.1 -0.1)">
       <defs>
        <path id="DejaVuSans-34" d="M 2419 4116 
L 825 1625 
L 2419 1625 
L 2419 4116 
z
M 2253 4666 
L 3047 4666 
L 3047 1625 
L 3713 1625 
L 3713 1100 
L 3047 1100 
L 3047 0 
L 2419 0 
L 2419 1100 
L 313 1100 
L 313 1709 
L 2253 4666 
z
" transform="scale(0.015625)"/>
       </defs>
       <use xlink:href="#DejaVuSans-34"/>
       <use xlink:href="#DejaVuSans-30" x="63.623047"/>
       <use xlink:href="#DejaVuSans-30" x="127.246094"/>
       <use xlink:href="#DejaVuSans-30" x="190.869141"/>
       <use xlink:href="#DejaVuSans-30" x="254.492188"/>
       <use xlink:href="#DejaVuSans-30" x="318.115234"/>
      </g>
     </g>
    </g>
    <g id="xtick_6">
     <g id="line2d_6">
      <g>
       <use xlink:href="#mefd7d4f8b9" x="398.487273" y="307.584" style="stroke: #000000; stroke-width: 0.8"/>
      </g>
     </g>
     <g id="text_6">
      <!-- 500000 -->
      <g transform="translate(379.399773 322.182437) scale(0.1 -0.1)">
       <defs>
        <path id="DejaVuSans-35" d="M 691 4666 
L 3169 4666 
L 3169 4134 
L 1269 4134 
L 1269 2991 
Q 1406 3038 1543 3061 
Q 1681 3084 1819 3084 
Q 2600 3084 3056 2656 
Q 3513 2228 3513 1497 
Q 3513 744 3044 326 
Q 2575 -91 1722 -91 
Q 1428 -91 1123 -41 
Q 819 9 494 109 
L 494 744 
Q 775 591 1075 516 
Q 1375 441 1709 441 
Q 2250 441 2565 725 
Q 2881 1009 2881 1497 
Q 2881 1984 2565 2268 
Q 2250 2553 1709 2553 
Q 1456 2553 1204 2497 
Q 953 2441 691 2322 
L 691 4666 
z
" transform="scale(0.015625)"/>
       </defs>
       <use xlink:href="#DejaVuSans-35"/>
       <use xlink:href="#DejaVuSans-30" x="63.623047"/>
       <use xlink:href="#DejaVuSans-30" x="127.246094"/>
       <use xlink:href="#DejaVuSans-30" x="190.869141"/>
       <use xlink:href="#DejaVuSans-30" x="254.492188"/>
       <use xlink:href="#DejaVuSans-30" x="318.115234"/>
      </g>
     </g>
    </g>
    <g id="text_7">
     <!-- timesteps -->
     <g transform="translate(211.443594 335.860562) scale(0.1 -0.1)">
      <defs>
       <path id="DejaVuSans-74" d="M 1172 4494 
L 1172 3500 
L 2356 3500 
L 2356 3053 
L 1172 3053 
L 1172 1153 
Q 1172 725 1289 603 
Q 1406 481 1766 481 
L 2356 481 
L 2356 0 
L 1766 0 
Q 1100 0 847 248 
Q 594 497 594 1153 
L 594 3053 
L 172 3053 
L 172 3500 
L 594 3500 
L 594 4494 
L 1172 4494 
z
" transform="scale(0.015625)"/>
       <path id="DejaVuSans-69" d="M 603 3500 
L 1178 3500 
L 1178 0 
L 603 0 
L 603 3500 
z
M 603 4863 
L 1178 4863 
L 1178 4134 
L 603 4134 
L 603 4863 
z
" transform="scale(0.015625)"/>
       <path id="DejaVuSans-6d" d="M 3328 2828 
Q 3544 3216 3844 3400 
Q 4144 3584 4550 3584 
Q 5097 3584 5394 3201 
Q 5691 2819 5691 2113 
L 5691 0 
L 5113 0 
L 5113 2094 
Q 5113 2597 4934 2840 
Q 4756 3084 4391 3084 
Q 3944 3084 3684 2787 
Q 3425 2491 3425 1978 
L 3425 0 
L 2847 0 
L 2847 2094 
Q 2847 2600 2669 2842 
Q 2491 3084 2119 3084 
Q 1678 3084 1418 2786 
Q 1159 2488 1159 1978 
L 1159 0 
L 581 0 
L 581 3500 
L 1159 3500 
L 1159 2956 
Q 1356 3278 1631 3431 
Q 1906 3584 2284 3584 
Q 2666 3584 2933 3390 
Q 3200 3197 3328 2828 
z
" transform="scale(0.015625)"/>
       <path id="DejaVuSans-65" d="M 3597 1894 
L 3597 1613 
L 953 1613 
Q 991 1019 1311 708 
Q 1631 397 2203 397 
Q 2534 397 2845 478 
Q 3156 559 3463 722 
L 3463 178 
Q 3153 47 2828 -22 
Q 2503 -91 2169 -91 
Q 1331 -91 842 396 
Q 353 884 353 1716 
Q 353 2575 817 3079 
Q 1281 3584 2069 3584 
Q 2775 3584 3186 3129 
Q 3597 2675 3597 1894 
z
M 3022 2063 
Q 3016 2534 2758 2815 
Q 2500 3097 2075 3097 
Q 1594 3097 1305 2825 
Q 1016 2553 972 2059 
L 3022 2063 
z
" transform="scale(0.015625)"/>
       <path id="DejaVuSans-73" d="M 2834 3397 
L 2834 2853 
Q 2591 2978 2328 3040 
Q 2066 3103 1784 3103 
Q 1356 3103 1142 2972 
Q 928 2841 928 2578 
Q 928 2378 1081 2264 
Q 1234 2150 1697 2047 
L 1894 2003 
Q 2506 1872 2764 1633 
Q 3022 1394 3022 966 
Q 3022 478 2636 193 
Q 2250 -91 1575 -91 
Q 1294 -91 989 -36 
Q 684 19 347 128 
L 347 722 
Q 666 556 975 473 
Q 1284 391 1588 391 
Q 1994 391 2212 530 
Q 2431 669 2431 922 
Q 2431 1156 2273 1281 
Q 2116 1406 1581 1522 
L 1381 1569 
Q 847 1681 609 1914 
Q 372 2147 372 2553 
Q 372 3047 722 3315 
Q 1072 3584 1716 3584 
Q 2034 3584 2315 3537 
Q 2597 3491 2834 3397 
z
" transform="scale(0.015625)"/>
       <path id="DejaVuSans-70" d="M 1159 525 
L 1159 -1331 
L 581 -1331 
L 581 3500 
L 1159 3500 
L 1159 2969 
Q 1341 3281 1617 3432 
Q 1894 3584 2278 3584 
Q 2916 3584 3314 3078 
Q 3713 2572 3713 1747 
Q 3713 922 3314 415 
Q 2916 -91 2278 -91 
Q 1894 -91 1617 61 
Q 1341 213 1159 525 
z
M 3116 1747 
Q 3116 2381 2855 2742 
Q 2594 3103 2138 3103 
Q 1681 3103 1420 2742 
Q 1159 2381 1159 1747 
Q 1159 1113 1420 752 
Q 1681 391 2138 391 
Q 2594 391 2855 752 
Q 3116 1113 3116 1747 
z
" transform="scale(0.015625)"/>
      </defs>
      <use xlink:href="#DejaVuSans-74"/>
      <use xlink:href="#DejaVuSans-69" x="39.208984"/>
      <use xlink:href="#DejaVuSans-6d" x="66.992188"/>
      <use xlink:href="#DejaVuSans-65" x="164.404297"/>
      <use xlink:href="#DejaVuSans-73" x="225.927734"/>
      <use xlink:href="#DejaVuSans-74" x="278.027344"/>
      <use xlink:href="#DejaVuSans-65" x="317.236328"/>
      <use xlink:href="#DejaVuSans-70" x="378.759766"/>
      <use xlink:href="#DejaVuSans-73" x="442.236328"/>
     </g>
    </g>
   </g>
   <g id="matplotlib.axis_2">
    <g id="ytick_1">
     <g id="line2d_7">
      <defs>
       <path id="m3516405300" d="M 0 0 
L -3.5 0 
" style="stroke: #000000; stroke-width: 0.8"/>
      </defs>
      <g>
       <use xlink:href="#m3516405300" x="57.6" y="297.676806" style="stroke: #000000; stroke-width: 0.8"/>
      </g>
     </g>
     <g id="text_8">
      <!-- 0 -->
      <g transform="translate(44.2375 301.476025) scale(0.1 -0.1)">
       <use xlink:href="#DejaVuSans-30"/>
      </g>
     </g>
    </g>
    <g id="ytick_2">
     <g id="line2d_8">
      <g>
       <use xlink:href="#m3516405300" x="57.6" y="254.468962" style="stroke: #000000; stroke-width: 0.8"/>
      </g>
     </g>
     <g id="text_9">
      <!-- 200 -->
      <g transform="translate(31.5125 258.268181) scale(0.1 -0.1)">
       <use xlink:href="#DejaVuSans-32"/>
       <use xlink:href="#DejaVuSans-30" x="63.623047"/>
       <use xlink:href="#DejaVuSans-30" x="127.246094"/>
      </g>
     </g>
    </g>
    <g id="ytick_3">
     <g id="line2d_9">
      <g>
       <use xlink:href="#m3516405300" x="57.6" y="211.261118" style="stroke: #000000; stroke-width: 0.8"/>
      </g>
     </g>
     <g id="text_10">
      <!-- 400 -->
      <g transform="translate(31.5125 215.060337) scale(0.1 -0.1)">
       <use xlink:href="#DejaVuSans-34"/>
       <use xlink:href="#DejaVuSans-30" x="63.623047"/>
       <use xlink:href="#DejaVuSans-30" x="127.246094"/>
      </g>
     </g>
    </g>
    <g id="ytick_4">
     <g id="line2d_10">
      <g>
       <use xlink:href="#m3516405300" x="57.6" y="168.053274" style="stroke: #000000; stroke-width: 0.8"/>
      </g>
     </g>
     <g id="text_11">
      <!-- 600 -->
      <g transform="translate(31.5125 171.852493) scale(0.1 -0.1)">
       <defs>
        <path id="DejaVuSans-36" d="M 2113 2584 
Q 1688 2584 1439 2293 
Q 1191 2003 1191 1497 
Q 1191 994 1439 701 
Q 1688 409 2113 409 
Q 2538 409 2786 701 
Q 3034 994 3034 1497 
Q 3034 2003 2786 2293 
Q 2538 2584 2113 2584 
z
M 3366 4563 
L 3366 3988 
Q 3128 4100 2886 4159 
Q 2644 4219 2406 4219 
Q 1781 4219 1451 3797 
Q 1122 3375 1075 2522 
Q 1259 2794 1537 2939 
Q 1816 3084 2150 3084 
Q 2853 3084 3261 2657 
Q 3669 2231 3669 1497 
Q 3669 778 3244 343 
Q 2819 -91 2113 -91 
Q 1303 -91 875 529 
Q 447 1150 447 2328 
Q 447 3434 972 4092 
Q 1497 4750 2381 4750 
Q 2619 4750 2861 4703 
Q 3103 4656 3366 4563 
z
" transform="scale(0.015625)"/>
       </defs>
       <use xlink:href="#DejaVuSans-36"/>
       <use xlink:href="#DejaVuSans-30" x="63.623047"/>
       <use xlink:href="#DejaVuSans-30" x="127.246094"/>
      </g>
     </g>
    </g>
    <g id="ytick_5">
     <g id="line2d_11">
      <g>
       <use xlink:href="#m3516405300" x="57.6" y="124.84543" style="stroke: #000000; stroke-width: 0.8"/>
      </g>
     </g>
     <g id="text_12">
      <!-- 800 -->
      <g transform="translate(31.5125 128.644649) scale(0.1 -0.1)">
       <defs>
        <path id="DejaVuSans-38" d="M 2034 2216 
Q 1584 2216 1326 1975 
Q 1069 1734 1069 1313 
Q 1069 891 1326 650 
Q 1584 409 2034 409 
Q 2484 409 2743 651 
Q 3003 894 3003 1313 
Q 3003 1734 2745 1975 
Q 2488 2216 2034 2216 
z
M 1403 2484 
Q 997 2584 770 2862 
Q 544 3141 544 3541 
Q 544 4100 942 4425 
Q 1341 4750 2034 4750 
Q 2731 4750 3128 4425 
Q 3525 4100 3525 3541 
Q 3525 3141 3298 2862 
Q 3072 2584 2669 2484 
Q 3125 2378 3379 2068 
Q 3634 1759 3634 1313 
Q 3634 634 3220 271 
Q 2806 -91 2034 -91 
Q 1263 -91 848 271 
Q 434 634 434 1313 
Q 434 1759 690 2068 
Q 947 2378 1403 2484 
z
M 1172 3481 
Q 1172 3119 1398 2916 
Q 1625 2713 2034 2713 
Q 2441 2713 2670 2916 
Q 2900 3119 2900 3481 
Q 2900 3844 2670 4047 
Q 2441 4250 2034 4250 
Q 1625 4250 1398 4047 
Q 1172 3844 1172 3481 
z
" transform="scale(0.015625)"/>
       </defs>
       <use xlink:href="#DejaVuSans-38"/>
       <use xlink:href="#DejaVuSans-30" x="63.623047"/>
       <use xlink:href="#DejaVuSans-30" x="127.246094"/>
      </g>
     </g>
    </g>
    <g id="ytick_6">
     <g id="line2d_12">
      <g>
       <use xlink:href="#m3516405300" x="57.6" y="81.637586" style="stroke: #000000; stroke-width: 0.8"/>
      </g>
     </g>
     <g id="text_13">
      <!-- 1000 -->
      <g transform="translate(25.15 85.436805) scale(0.1 -0.1)">
       <use xlink:href="#DejaVuSans-31"/>
       <use xlink:href="#DejaVuSans-30" x="63.623047"/>
       <use xlink:href="#DejaVuSans-30" x="127.246094"/>
       <use xlink:href="#DejaVuSans-30" x="190.869141"/>
      </g>
     </g>
    </g>
    <g id="text_14">
     <!-- mean episode rewards -->
     <g transform="translate(19.070312 231.360031) rotate(-90) scale(0.1 -0.1)">
      <defs>
       <path id="DejaVuSans-61" d="M 2194 1759 
Q 1497 1759 1228 1600 
Q 959 1441 959 1056 
Q 959 750 1161 570 
Q 1363 391 1709 391 
Q 2188 391 2477 730 
Q 2766 1069 2766 1631 
L 2766 1759 
L 2194 1759 
z
M 3341 1997 
L 3341 0 
L 2766 0 
L 2766 531 
Q 2569 213 2275 61 
Q 1981 -91 1556 -91 
Q 1019 -91 701 211 
Q 384 513 384 1019 
Q 384 1609 779 1909 
Q 1175 2209 1959 2209 
L 2766 2209 
L 2766 2266 
Q 2766 2663 2505 2880 
Q 2244 3097 1772 3097 
Q 1472 3097 1187 3025 
Q 903 2953 641 2809 
L 641 3341 
Q 956 3463 1253 3523 
Q 1550 3584 1831 3584 
Q 2591 3584 2966 3190 
Q 3341 2797 3341 1997 
z
" transform="scale(0.015625)"/>
       <path id="DejaVuSans-6e" d="M 3513 2113 
L 3513 0 
L 2938 0 
L 2938 2094 
Q 2938 2591 2744 2837 
Q 2550 3084 2163 3084 
Q 1697 3084 1428 2787 
Q 1159 2491 1159 1978 
L 1159 0 
L 581 0 
L 581 3500 
L 1159 3500 
L 1159 2956 
Q 1366 3272 1645 3428 
Q 1925 3584 2291 3584 
Q 2894 3584 3203 3211 
Q 3513 2838 3513 2113 
z
" transform="scale(0.015625)"/>
       <path id="DejaVuSans-20" transform="scale(0.015625)"/>
       <path id="DejaVuSans-6f" d="M 1959 3097 
Q 1497 3097 1228 2736 
Q 959 2375 959 1747 
Q 959 1119 1226 758 
Q 1494 397 1959 397 
Q 2419 397 2687 759 
Q 2956 1122 2956 1747 
Q 2956 2369 2687 2733 
Q 2419 3097 1959 3097 
z
M 1959 3584 
Q 2709 3584 3137 3096 
Q 3566 2609 3566 1747 
Q 3566 888 3137 398 
Q 2709 -91 1959 -91 
Q 1206 -91 779 398 
Q 353 888 353 1747 
Q 353 2609 779 3096 
Q 1206 3584 1959 3584 
z
" transform="scale(0.015625)"/>
       <path id="DejaVuSans-64" d="M 2906 2969 
L 2906 4863 
L 3481 4863 
L 3481 0 
L 2906 0 
L 2906 525 
Q 2725 213 2448 61 
Q 2172 -91 1784 -91 
Q 1150 -91 751 415 
Q 353 922 353 1747 
Q 353 2572 751 3078 
Q 1150 3584 1784 3584 
Q 2172 3584 2448 3432 
Q 2725 3281 2906 2969 
z
M 947 1747 
Q 947 1113 1208 752 
Q 1469 391 1925 391 
Q 2381 391 2643 752 
Q 2906 1113 2906 1747 
Q 2906 2381 2643 2742 
Q 2381 3103 1925 3103 
Q 1469 3103 1208 2742 
Q 947 2381 947 1747 
z
" transform="scale(0.015625)"/>
       <path id="DejaVuSans-72" d="M 2631 2963 
Q 2534 3019 2420 3045 
Q 2306 3072 2169 3072 
Q 1681 3072 1420 2755 
Q 1159 2438 1159 1844 
L 1159 0 
L 581 0 
L 581 3500 
L 1159 3500 
L 1159 2956 
Q 1341 3275 1631 3429 
Q 1922 3584 2338 3584 
Q 2397 3584 2469 3576 
Q 2541 3569 2628 3553 
L 2631 2963 
z
" transform="scale(0.015625)"/>
       <path id="DejaVuSans-77" d="M 269 3500 
L 844 3500 
L 1563 769 
L 2278 3500 
L 2956 3500 
L 3675 769 
L 4391 3500 
L 4966 3500 
L 4050 0 
L 3372 0 
L 2619 2869 
L 1863 0 
L 1184 0 
L 269 3500 
z
" transform="scale(0.015625)"/>
      </defs>
      <use xlink:href="#DejaVuSans-6d"/>
      <use xlink:href="#DejaVuSans-65" x="97.412109"/>
      <use xlink:href="#DejaVuSans-61" x="158.935547"/>
      <use xlink:href="#DejaVuSans-6e" x="220.214844"/>
      <use xlink:href="#DejaVuSans-20" x="283.59375"/>
      <use xlink:href="#DejaVuSans-65" x="315.380859"/>
      <use xlink:href="#DejaVuSans-70" x="376.904297"/>
      <use xlink:href="#DejaVuSans-69" x="440.380859"/>
      <use xlink:href="#DejaVuSans-73" x="468.164062"/>
      <use xlink:href="#DejaVuSans-6f" x="520.263672"/>
      <use xlink:href="#DejaVuSans-64" x="581.445312"/>
      <use xlink:href="#DejaVuSans-65" x="644.921875"/>
      <use xlink:href="#DejaVuSans-20" x="706.445312"/>
      <use xlink:href="#DejaVuSans-72" x="738.232422"/>
      <use xlink:href="#DejaVuSans-65" x="777.095703"/>
      <use xlink:href="#DejaVuSans-77" x="838.619141"/>
      <use xlink:href="#DejaVuSans-61" x="920.40625"/>
      <use xlink:href="#DejaVuSans-72" x="981.685547"/>
      <use xlink:href="#DejaVuSans-64" x="1021.048828"/>
      <use xlink:href="#DejaVuSans-73" x="1084.525391"/>
     </g>
    </g>
   </g>
   <g id="line2d_13">
    <path d="M 73.832727 295.415313 
L 74.144608 294.903862 
L 74.469483 294.43632 
L 74.625423 294.079232 
L 74.898319 294.144983 
L 75.158219 293.700967 
L 75.392129 293.61231 
L 75.691015 293.322527 
L 75.846955 293.397608 
L 76.01589 293.05054 
L 76.210816 293.341787 
L 76.652646 293.136024 
L 77.289402 293.486966 
L 77.432347 293.849857 
L 77.588288 293.550171 
L 77.900168 293.686956 
L 77.965143 294.141547 
L 78.341999 293.960609 
L 78.627889 293.932247 
L 78.744844 293.61837 
L 78.99175 293.777071 
L 79.316625 293.925933 
L 79.45957 293.597712 
L 79.550535 293.799167 
L 79.979371 293.537777 
L 80.135311 293.818796 
L 80.226276 293.738654 
L 80.798057 294.320634 
L 81.083948 293.982249 
L 81.304863 294.170204 
L 81.538773 294.288502 
L 81.993599 294.066453 
L 82.123549 293.634977 
L 82.318474 293.717716 
L 82.448424 293.937252 
L 82.79929 293.650107 
L 83.08518 293.122389 
L 83.306096 293.126651 
L 83.397061 292.802985 
L 83.617976 292.74638 
L 83.721936 292.995733 
L 84.046812 292.716408 
L 84.241737 292.931028 
L 84.579608 292.534516 
L 84.891488 292.50899 
L 85.112403 292.931235 
L 85.749159 291.84609 
L 86.06104 291.44645 
L 86.29495 291.648567 
L 86.671805 291.397677 
L 87.074651 290.750908 
L 87.451507 290.83617 
L 88.387148 289.081891 
L 88.699028 289.159121 
L 88.984919 289.026501 
L 89.60868 287.569261 
L 89.959545 287.176185 
L 90.284421 286.092182 
L 90.635286 285.854095 
L 91.077117 285.232048 
L 91.518947 284.405789 
L 92.051743 282.166545 
L 92.441594 281.307967 
L 92.597534 281.366511 
L 93.000379 281.272615 
L 93.28627 280.628769 
L 94.195921 280.919299 
L 94.572777 280.915842 
L 94.806687 281.440102 
L 95.209533 281.602228 
L 96.742945 279.436834 
L 97.054825 278.681812 
L 98.133412 277.081484 
L 99.731799 275.824901 
L 100.58947 275.533627 
L 101.252216 274.111875 
L 101.603082 273.033959 
L 102.122882 271.834812 
L 103.227459 267.537167 
L 103.812235 266.210962 
L 104.864831 262.333324 
L 105.423617 261.670122 
L 105.956413 259.912403 
L 106.489209 259.223005 
L 107.047994 258.160943 
L 107.65876 257.589662 
L 108.152571 257.412206 
L 108.867297 257.443398 
L 109.257148 256.92863 
L 110.400709 257.386555 
L 111.12843 256.687884 
L 112.207017 256.948528 
L 112.726817 257.142444 
L 115.442776 257.468935 
L 116.040547 257.471388 
L 116.521363 257.720597 
L 117.599949 257.729288 
L 118.691531 257.986566 
L 120.861699 258.062522 
L 121.953281 258.050688 
L 123.005877 258.131721 
L 124.123449 258.152226 
L 124.682234 258.304912 
L 126.319607 258.357158 
L 126.891388 258.1823 
L 128.47678 257.995014 
L 130.192122 257.601835 
L 131.309694 257.392236 
L 131.764519 257.152455 
L 132.453255 257.22677 
L 133.609812 256.566137 
L 134.064638 256.245271 
L 135.93592 255.751644 
L 137.443342 254.56051 
L 138.275024 254.222767 
L 138.742844 253.590301 
L 139.45757 252.890299 
L 140.068336 251.439839 
L 140.653112 250.638407 
L 141.328853 249.94466 
L 142.58937 247.574671 
L 143.278106 246.826487 
L 144.720553 243.035255 
L 145.474264 242.059836 
L 146.11102 241.032432 
L 146.851736 240.62444 
L 150.724251 233.476994 
L 151.490957 233.282613 
L 152.075733 232.663376 
L 153.687116 231.715385 
L 154.375852 231.504889 
L 155.792309 231.894701 
L 156.455054 232.520511 
L 157.273741 233.042049 
L 157.780546 234.014823 
L 159.482894 236.311636 
L 160.01569 236.395654 
L 160.717421 237.106161 
L 161.328186 238.805362 
L 162.536723 239.011333 
L 163.134494 236.711624 
L 163.87521 237.597751 
L 165.343647 238.353531 
L 166.162333 238.271428 
L 167.21493 237.958753 
L 168.033616 236.815412 
L 169.255148 235.858155 
L 169.891904 232.91349 
L 171.087445 230.804377 
L 172.101057 233.059495 
L 174.18026 227.76927 
L 175.453771 220.959021 
L 176.428398 212.019298 
L 179.105372 203.936698 
L 180.482844 202.215896 
L 181.067619 198.901311 
L 182.432096 198.403705 
L 183.276772 198.885156 
L 184.550284 197.493127 
L 185.394961 200.365826 
L 186.408572 205.224218 
L 187.591119 211.985464 
L 188.513765 214.577908 
L 190.566978 217.826969 
L 191.606579 220.315643 
L 192.711156 221.088844 
L 193.308927 221.351714 
L 194.608429 221.617621 
L 195.323155 222.242707 
L 198.234039 222.803168 
L 198.98775 223.161194 
L 199.949381 222.967581 
L 200.742077 223.472511 
L 201.612744 223.701658 
L 202.48341 223.127475 
L 203.302096 222.785724 
L 204.926473 222.342018 
L 205.836124 222.350964 
L 206.602831 222.038225 
L 207.512482 221.955111 
L 208.305178 222.493625 
L 209.162849 221.890576 
L 210.033515 221.532735 
L 210.878192 221.696013 
L 211.670888 221.398326 
L 212.554549 221.331875 
L 213.28227 221.41229 
L 215.946249 220.611974 
L 216.72595 220.042982 
L 217.622606 219.924475 
L 218.389312 220.094768 
L 219.350944 219.94564 
L 220.000695 220.415985 
L 221.664057 220.992821 
L 222.586703 221.309607 
L 223.314424 221.749803 
L 224.250066 222.174822 
L 224.899817 222.253791 
L 226.550184 223.239623 
L 227.39486 224.10936 
L 228.135576 224.318522 
L 229.006242 224.23022 
L 229.720968 224.381513 
L 232.177027 225.62912 
L 232.839773 226.41377 
L 233.710439 226.560194 
L 234.451155 227.112763 
L 235.373801 227.063168 
L 237.063154 228.286384 
L 237.634935 229.129007 
L 238.661541 229.690621 
L 239.233322 230.403249 
L 240.233938 230.920325 
L 240.844704 231.594006 
L 241.6374 232.675178 
L 242.300146 233.180201 
L 243.105837 234.449554 
L 244.561279 236.055154 
L 245.172045 236.512372 
L 246.029716 236.9952 
L 246.614492 237.162871 
L 247.498154 237.738778 
L 247.991964 238.335279 
L 248.862631 238.380887 
L 249.369436 238.838177 
L 250.772898 239.002335 
L 252.137375 240.1906 
L 253.047026 240.567029 
L 253.670787 241.220026 
L 256.386746 242.417285 
L 257.023502 242.36992 
L 257.686248 242.526969 
L 259.01174 242.413868 
L 259.687481 242.587595 
L 260.363222 242.189535 
L 260.986983 242.364011 
L 261.649729 241.918633 
L 262.195519 242.218545 
L 263.001211 242.80101 
L 263.391061 243.597034 
L 264.664573 244.270003 
L 266.13301 243.817639 
L 267.562462 243.734675 
L 268.472113 242.631824 
L 269.069884 240.566628 
L 269.99253 238.67255 
L 270.642281 236.448278 
L 271.564928 234.105664 
L 272.136709 232.310755 
L 273.15032 230.780382 
L 273.657126 229.106163 
L 274.644747 228.038714 
L 275.242518 226.219715 
L 276.087194 226.19295 
L 276.8539 225.671143 
L 277.529641 225.90419 
L 278.426297 225.844123 
L 279.128028 226.033469 
L 279.725799 226.361482 
L 280.713421 226.675502 
L 281.389162 226.56779 
L 282.272823 226.208897 
L 282.909579 226.32002 
L 283.8972 226.307275 
L 284.533956 226.523261 
L 285.508582 226.007949 
L 286.184323 225.925039 
L 287.18494 226.075485 
L 287.756721 225.587432 
L 288.835307 224.97697 
L 289.212163 225.740653 
L 290.875525 226.162311 
L 292.019087 226.100143 
L 294.163265 226.472536 
L 295.228856 226.890579 
L 295.774647 227.600936 
L 296.905214 228.285617 
L 297.295064 228.193801 
L 298.542586 228.548808 
L 298.867461 229.185509 
L 300.166963 229.931417 
L 300.452854 230.596907 
L 301.804336 231.442534 
L 302.103221 231.939014 
L 304.962125 233.360284 
L 305.118065 234.065092 
L 306.729448 234.806782 
L 309.549367 235.203068 
L 309.848252 235.794726 
L 311.056789 236.066971 
L 311.407654 236.373174 
L 312.915076 236.925242 
L 314.097623 236.958063 
L 314.422498 237.311468 
L 315.553065 237.784986 
L 315.968906 238.144671 
L 317.073482 238.261938 
L 317.554298 237.990577 
L 318.606894 238.13743 
L 318.918775 240.080866 
L 320.036346 241.119938 
L 321.504784 241.480319 
L 321.881639 241.643099 
L 322.570375 242.542472 
L 323.363071 242.719259 
L 324.064802 242.556131 
L 324.935468 242.743846 
L 325.650194 242.255363 
L 327.092641 238.651373 
L 328.119248 237.986957 
L 328.665039 237.354644 
L 329.665655 236.894061 
L 330.198451 235.404103 
L 331.264042 234.467079 
L 331.822828 233.549466 
L 332.99238 232.486084 
L 333.486191 231.54849 
L 334.525792 231.041725 
L 335.201533 230.017379 
L 336.163164 229.266752 
L 336.87789 227.869679 
L 337.904497 226.382896 
L 338.814148 224.670313 
L 339.580854 223.889894 
L 341.257212 223.234932 
L 342.387778 222.339713 
L 343.206464 219.475345 
L 344.259061 217.489807 
L 346.377249 212.433542 
L 347.46883 210.193508 
L 348.937267 206.543808 
L 349.496053 203.049047 
L 351.367336 199.45898 
L 352.263992 194.120599 
L 353.771414 188.908292 
L 354.720051 186.420186 
L 357.267074 181.569302 
L 357.812865 174.074928 
L 360.996645 167.544453 
L 363.179808 162.576187 
L 364.778195 155.51947 
L 366.480542 148.51849 
L 367.948979 145.728295 
L 369.534372 146.335928 
L 370.911844 143.364005 
L 372.419266 142.101406 
L 373.679783 144.101192 
L 375.4601 143.990754 
L 376.746607 142.702715 
L 378.383979 145.263154 
L 381.099938 154.006251 
L 382.32147 155.82433 
L 384.712553 153.977192 
L 385.336314 154.178146 
L 387.753388 153.635635 
L 390.222441 148.321197 
L 391.807833 138.709602 
L 393.081345 138.321757 
L 394.549782 138.389761 
L 396.265125 138.203555 
L 397.577621 136.599542 
L 397.577621 136.599542 
" clip-path="url(#pc108ad601b)" style="fill: none; stroke: #1f77b4; stroke-width: 1.5; stroke-linecap: square"/>
   </g>
   <g id="line2d_14">
    <path d="M 80.109321 255.202587 
L 86.60683 276.603969 
L 93.10434 286.49056 
L 99.601849 259.564595 
L 106.099358 259.447181 
L 112.596867 259.184652 
L 119.094376 258.057969 
L 125.591886 258.895316 
L 132.089395 257.32564 
L 138.586904 245.930692 
L 145.084413 235.199887 
L 151.581923 224.373806 
L 158.079432 245.997754 
L 164.576941 247.452772 
L 171.07445 53.568 
L 177.571959 169.398823 
L 184.069469 222.962684 
L 190.566978 221.581992 
L 197.064487 223.944989 
L 203.561996 221.858491 
L 210.059505 221.637393 
L 216.557015 221.735651 
L 223.054524 217.929089 
L 229.552033 227.234704 
L 236.049542 228.373749 
L 242.547052 241.645568 
L 249.044561 237.056907 
L 255.54207 243.334042 
L 262.039579 247.562994 
L 268.537088 230.762193 
L 275.034598 237.562578 
L 281.532107 221.025361 
L 288.029616 224.6793 
L 294.527125 231.281058 
L 301.024634 234.419307 
L 307.522144 235.015368 
L 314.019653 239.921977 
L 320.517162 243.371152 
L 327.014671 235.277493 
L 333.512181 228.776052 
L 340.00969 223.895449 
L 346.507199 188.904102 
L 353.004708 197.397633 
L 359.502217 178.087692 
L 365.999727 155.61518 
L 372.497236 157.628967 
L 378.994745 158.532073 
L 385.492254 176.151723 
L 391.989764 100.268262 
L 398.487273 176.798851 
" clip-path="url(#pc108ad601b)" style="fill: none; stroke: #ff7f0e; stroke-width: 1.5; stroke-linecap: square"/>
   </g>
   <g id="line2d_15">
    <path d="M 73.845722 295.488 
L 74.131613 294.487436 
L 74.274558 294.592288 
L 74.443493 294.319139 
L 74.599433 294.411984 
L 74.963294 294.060948 
L 75.275174 294.030487 
L 75.41812 293.861617 
L 75.80797 293.938605 
L 76.09386 293.841847 
L 76.431731 294.064999 
L 76.678636 293.851613 
L 77.042497 294.022616 
L 77.315392 293.61224 
L 77.432347 293.508884 
L 77.627273 293.512716 
L 77.796208 293.376423 
L 78.121083 293.454904 
L 78.251034 293.06032 
L 78.406974 293.230375 
L 78.510934 293.020255 
L 78.692864 293.156306 
L 78.809819 292.755846 
L 78.913779 293.151247 
L 79.19967 293.162535 
L 79.446575 293.233934 
L 79.654496 293.755269 
L 79.732466 293.377495 
L 80.252266 293.998675 
L 80.356227 293.884977 
L 80.720087 293.832788 
L 80.850037 293.850231 
L 81.109938 294.133638 
L 81.421818 294.039877 
L 81.577758 293.81839 
L 81.733698 293.978398 
L 82.162534 293.805397 
L 82.435429 293.027216 
L 82.578375 292.818951 
L 82.682335 292.912968 
L 82.994215 292.801648 
L 83.176146 293.221807 
L 83.371071 293.054012 
L 83.553001 293.112911 
L 83.760921 292.788125 
L 83.968842 292.847386 
L 84.878493 291.426854 
L 85.099408 291.337542 
L 85.489259 290.85661 
L 86.177995 290.937739 
L 86.463885 291.262108 
L 86.710791 290.887971 
L 86.957696 290.2062 
L 87.321556 289.79205 
L 87.802372 288.58037 
L 88.361158 288.372475 
L 88.802989 288.245933 
L 89.049894 287.186694 
L 89.322789 286.668425 
L 89.73863 286.551083 
L 90.18046 286.147215 
L 90.466351 284.56082 
L 91.479962 283.533932 
L 91.843823 282.694158 
L 92.142708 281.586726 
L 93.18231 279.976416 
L 93.455205 279.212269 
L 94.403841 277.494424 
L 94.741712 277.627939 
L 95.313493 277.213542 
L 96.002229 275.300004 
L 96.70396 274.857569 
L 96.898885 274.419587 
L 97.522646 274.453146 
L 98.029452 273.277516 
L 98.484277 271.923991 
L 99.017073 271.666622 
L 101.486126 267.493857 
L 103.305429 262.377878 
L 104.11112 261.723261 
L 104.643916 259.750423 
L 105.397627 258.621139 
L 105.865448 256.887104 
L 106.710124 256.165948 
L 107.086979 254.829914 
L 108.412471 253.007294 
L 109.166182 253.311614 
L 109.724968 253.07239 
L 110.97249 252.993644 
L 112.194022 252.629626 
L 113.324588 253.151323 
L 114.559115 253.3813 
L 115.286836 253.082489 
L 115.793642 253.243329 
L 116.521363 253.313959 
L 116.950198 253.579057 
L 118.132745 253.839324 
L 120.056008 254.044417 
L 120.458853 254.643975 
L 121.173579 255.227815 
L 121.654395 255.420524 
L 123.525678 255.777435 
L 123.902533 256.283978 
L 124.669239 256.433691 
L 125.05909 256.640494 
L 125.747826 256.730004 
L 126.878393 256.585017 
L 127.995964 256.839312 
L 128.45079 257.123555 
L 129.165516 257.077122 
L 129.659326 256.923504 
L 130.763903 257.162625 
L 131.426649 257.179408 
L 133.739762 256.545782 
L 134.285553 256.305005 
L 135.429115 256.223067 
L 136.559681 255.914633 
L 137.326387 255.664854 
L 137.755223 255.407099 
L 138.924775 254.962149 
L 139.704476 255.063 
L 140.081331 254.762239 
L 140.939002 254.246806 
L 141.367838 253.720685 
L 142.186524 253.207331 
L 142.654345 252.658416 
L 143.499021 252.315184 
L 143.888872 251.875807 
L 144.824513 251.47291 
L 145.214364 250.71454 
L 146.11102 249.952037 
L 146.630821 249.038768 
L 148.086263 247.63922 
L 150.360391 244.094354 
L 152.543554 240.81008 
L 153.505185 239.232509 
L 155.870279 236.270806 
L 156.64998 235.743575 
L 157.650596 234.868376 
L 158.261362 233.72979 
L 159.404924 233.053955 
L 159.911729 232.380725 
L 160.938336 231.933889 
L 161.692047 231.881878 
L 162.601698 231.468819 
L 164.395011 229.829573 
L 165.252682 229.7202 
L 165.980403 229.315444 
L 166.929039 229.452603 
L 167.57879 229.122665 
L 168.696362 229.208159 
L 170.333734 228.529308 
L 171.191405 228.501316 
L 172.036082 228.901802 
L 173.634469 229.085393 
L 174.583105 229.688282 
L 178.01379 230.631225 
L 178.780496 230.886184 
L 179.885073 231.016346 
L 181.48346 231.88899 
L 183.133827 232.358281 
L 184.862165 232.429064 
L 185.823796 232.120991 
L 186.564512 232.01844 
L 189.267476 232.434056 
L 189.969207 232.227344 
L 191.554599 232.24162 
L 192.568211 232.631193 
L 193.217962 233.230059 
L 194.894319 233.885318 
L 195.88194 233.645519 
L 196.583671 233.334601 
L 197.519313 233.180166 
L 198.273024 232.9278 
L 199.182675 232.747624 
L 200.755072 231.479727 
L 201.664724 230.491427 
L 202.40544 230.094767 
L 203.419051 229.914219 
L 205.186374 230.479059 
L 205.797139 230.056305 
L 206.940701 229.934344 
L 207.603447 229.081775 
L 208.617058 228.191957 
L 209.37077 228.10769 
L 210.358391 227.61015 
L 211.164082 227.357085 
L 212.554549 226.595678 
L 212.853434 225.197308 
L 214.152936 224.680998 
L 214.542787 224.3683 
L 215.959244 224.430652 
L 216.154169 225.072203 
L 217.960477 226.168067 
L 219.701809 226.758977 
L 220.858366 227.42587 
L 221.313191 228.429152 
L 222.625688 228.918306 
L 222.937569 229.301794 
L 224.380016 229.210448 
L 224.535956 229.088525 
L 226.121348 229.083395 
L 227.966641 229.257264 
L 229.149188 228.599592 
L 229.630003 228.502119 
L 231.280371 227.674592 
L 232.358957 227.105342 
L 233.931354 226.668557 
L 236.127512 225.368777 
L 238.908446 225.208347 
L 239.441242 225.074527 
L 240.480844 225.240191 
L 241.026634 225.020869 
L 242.638017 224.905541 
L 243.729598 225.213896 
L 244.275389 224.969955 
L 245.340981 224.931754 
L 245.977736 224.48308 
L 246.991348 224.415211 
L 247.511149 224.642175 
L 248.62872 224.891937 
L 249.122531 224.797337 
L 250.305078 225.008515 
L 251.94245 224.691509 
L 252.384281 224.436308 
L 254.034648 224.167535 
L 255.269175 223.58768 
L 255.736995 222.676245 
L 258.686864 220.756036 
L 259.16768 219.988182 
L 260.831042 219.509668 
L 262.494405 219.850689 
L 263.572991 220.215487 
L 264.092792 220.82201 
L 265.704174 222.24604 
L 266.795756 222.575493 
L 267.354542 223.308643 
L 268.991914 224.608382 
L 269.927555 224.915157 
L 270.577306 225.428796 
L 272.227674 226.381821 
L 273.163315 226.348739 
L 273.891036 226.00125 
L 276.477045 225.99515 
L 278.751173 226.401422 
L 280.37555 226.445103 
L 283.728265 226.256368 
L 284.624921 226.265864 
L 287.067985 225.186999 
L 289.653993 224.800143 
L 290.49867 224.800957 
L 292.175027 224.418968 
L 293.123663 224.061281 
L 294.813016 223.944259 
L 295.683682 223.553076 
L 297.399024 222.508443 
L 299.192337 221.746835 
L 300.101988 221.734064 
L 301.869311 220.995857 
L 302.726982 220.807037 
L 303.649628 220.434084 
L 304.468314 219.969189 
L 306.261627 219.770792 
L 306.729448 222.240947 
L 307.756054 222.972921 
L 309.497387 223.284254 
L 311.342679 222.549467 
L 312.12238 222.168853 
L 313.161982 222.05438 
L 313.928688 221.47971 
L 314.994279 220.884264 
L 315.69601 217.646296 
L 316.787592 216.535278 
L 317.528308 215.367917 
L 319.373601 213.815627 
L 320.465182 213.234038 
L 321.179908 212.557147 
L 324.857498 210.515818 
L 328.600064 208.839931 
L 329.743625 208.696513 
L 330.523326 208.447755 
L 336.137174 207.630968 
L 337.215761 207.772896 
L 337.956477 207.671929 
L 339.009073 207.673561 
L 339.801769 207.811781 
L 342.959559 207.265384 
L 343.94718 205.37228 
L 345.259677 204.355943 
L 346.078363 202.904518 
L 347.273905 201.711404 
L 348.300512 200.425622 
L 350.327734 199.089715 
L 351.614241 198.426947 
L 352.380947 198.237755 
L 353.537504 198.067947 
L 354.291215 200.204193 
L 355.538737 201.589335 
L 356.292448 203.226362 
L 357.48799 204.229082 
L 358.332666 205.846315 
L 359.671153 206.222786 
L 360.281919 207.021356 
L 361.6334 208.322755 
L 362.426097 207.279016 
L 363.725598 207.047155 
L 364.544285 207.035665 
L 365.674851 205.768046 
L 366.571507 206.095563 
L 367.546134 205.731431 
L 369.612342 206.007846 
L 370.470013 205.914694 
L 371.535605 206.270405 
L 372.523226 208.577059 
L 373.575822 209.722856 
L 375.421115 212.508488 
L 376.109851 212.848635 
L 378.007124 214.259283 
L 379.293631 215.677478 
L 379.748456 216.435752 
L 381.281868 216.64213 
L 381.710704 216.405411 
L 383.062186 216.357799 
L 383.724932 215.06869 
L 385.128394 214.09748 
L 387.623437 213.369173 
L 388.676034 212.873985 
L 389.65066 211.780738 
L 390.547316 211.124874 
L 392.392609 211.366925 
L 393.471196 212.402648 
L 394.393842 212.601991 
L 396.174159 213.374305 
L 397.135791 212.524518 
L 398.019452 211.981133 
L 398.019452 211.981133 
" clip-path="url(#pc108ad601b)" style="fill: none; stroke: #2ca02c; stroke-width: 1.5; stroke-linecap: square"/>
   </g>
   <g id="patch_3">
    <path d="M 57.6 307.584 
L 57.6 41.472 
" style="fill: none; stroke: #000000; stroke-width: 0.8; stroke-linejoin: miter; stroke-linecap: square"/>
   </g>
   <g id="patch_4">
    <path d="M 414.72 307.584 
L 414.72 41.472 
" style="fill: none; stroke: #000000; stroke-width: 0.8; stroke-linejoin: miter; stroke-linecap: square"/>
   </g>
   <g id="patch_5">
    <path d="M 57.6 307.584 
L 414.72 307.584 
" style="fill: none; stroke: #000000; stroke-width: 0.8; stroke-linejoin: miter; stroke-linecap: square"/>
   </g>
   <g id="patch_6">
    <path d="M 57.6 41.472 
L 414.72 41.472 
" style="fill: none; stroke: #000000; stroke-width: 0.8; stroke-linejoin: miter; stroke-linecap: square"/>
   </g>
   <g id="text_15">
    <!-- learning curve -->
    <g transform="translate(192.96375 35.472) scale(0.12 -0.12)">
     <defs>
      <path id="DejaVuSans-6c" d="M 603 4863 
L 1178 4863 
L 1178 0 
L 603 0 
L 603 4863 
z
" transform="scale(0.015625)"/>
      <path id="DejaVuSans-67" d="M 2906 1791 
Q 2906 2416 2648 2759 
Q 2391 3103 1925 3103 
Q 1463 3103 1205 2759 
Q 947 2416 947 1791 
Q 947 1169 1205 825 
Q 1463 481 1925 481 
Q 2391 481 2648 825 
Q 2906 1169 2906 1791 
z
M 3481 434 
Q 3481 -459 3084 -895 
Q 2688 -1331 1869 -1331 
Q 1566 -1331 1297 -1286 
Q 1028 -1241 775 -1147 
L 775 -588 
Q 1028 -725 1275 -790 
Q 1522 -856 1778 -856 
Q 2344 -856 2625 -561 
Q 2906 -266 2906 331 
L 2906 616 
Q 2728 306 2450 153 
Q 2172 0 1784 0 
Q 1141 0 747 490 
Q 353 981 353 1791 
Q 353 2603 747 3093 
Q 1141 3584 1784 3584 
Q 2172 3584 2450 3431 
Q 2728 3278 2906 2969 
L 2906 3500 
L 3481 3500 
L 3481 434 
z
" transform="scale(0.015625)"/>
      <path id="DejaVuSans-63" d="M 3122 3366 
L 3122 2828 
Q 2878 2963 2633 3030 
Q 2388 3097 2138 3097 
Q 1578 3097 1268 2742 
Q 959 2388 959 1747 
Q 959 1106 1268 751 
Q 1578 397 2138 397 
Q 2388 397 2633 464 
Q 2878 531 3122 666 
L 3122 134 
Q 2881 22 2623 -34 
Q 2366 -91 2075 -91 
Q 1284 -91 818 406 
Q 353 903 353 1747 
Q 353 2603 823 3093 
Q 1294 3584 2113 3584 
Q 2378 3584 2631 3529 
Q 2884 3475 3122 3366 
z
" transform="scale(0.015625)"/>
      <path id="DejaVuSans-75" d="M 544 1381 
L 544 3500 
L 1119 3500 
L 1119 1403 
Q 1119 906 1312 657 
Q 1506 409 1894 409 
Q 2359 409 2629 706 
Q 2900 1003 2900 1516 
L 2900 3500 
L 3475 3500 
L 3475 0 
L 2900 0 
L 2900 538 
Q 2691 219 2414 64 
Q 2138 -91 1772 -91 
Q 1169 -91 856 284 
Q 544 659 544 1381 
z
M 1991 3584 
L 1991 3584 
z
" transform="scale(0.015625)"/>
      <path id="DejaVuSans-76" d="M 191 3500 
L 800 3500 
L 1894 563 
L 2988 3500 
L 3597 3500 
L 2284 0 
L 1503 0 
L 191 3500 
z
" transform="scale(0.015625)"/>
     </defs>
     <use xlink:href="#DejaVuSans-6c"/>
     <use xlink:href="#DejaVuSans-65" x="27.783203"/>
     <use xlink:href="#DejaVuSans-61" x="89.306641"/>
     <use xlink:href="#DejaVuSans-72" x="150.585938"/>
     <use xlink:href="#DejaVuSans-6e" x="189.949219"/>
     <use xlink:href="#DejaVuSans-69" x="253.328125"/>
     <use xlink:href="#DejaVuSans-6e" x="281.111328"/>
     <use xlink:href="#DejaVuSans-67" x="344.490234"/>
     <use xlink:href="#DejaVuSans-20" x="407.966797"/>
     <use xlink:href="#DejaVuSans-63" x="439.753906"/>
     <use xlink:href="#DejaVuSans-75" x="494.734375"/>
     <use xlink:href="#DejaVuSans-72" x="558.113281"/>
     <use xlink:href="#DejaVuSans-76" x="599.226562"/>
     <use xlink:href="#DejaVuSans-65" x="658.40625"/>
    </g>
   </g>
   <g id="legend_1">
    <g id="patch_7">
     <path d="M 305.705938 93.506375 
L 407.72 93.506375 
Q 409.72 93.506375 409.72 91.506375 
L 409.72 48.472 
Q 409.72 46.472 407.72 46.472 
L 305.705938 46.472 
Q 303.705938 46.472 303.705938 48.472 
L 303.705938 91.506375 
Q 303.705938 93.506375 305.705938 93.506375 
z
" style="fill: #ffffff; opacity: 0.8; stroke: #cccccc; stroke-linejoin: miter"/>
    </g>
    <g id="line2d_16">
     <path d="M 307.705938 54.570438 
L 317.705938 54.570438 
L 327.705938 54.570438 
" style="fill: none; stroke: #1f77b4; stroke-width: 1.5; stroke-linecap: square"/>
    </g>
    <g id="text_16">
     <!-- source-source -->
     <g transform="translate(335.705938 58.070438) scale(0.1 -0.1)">
      <defs>
       <path id="DejaVuSans-2d" d="M 313 2009 
L 1997 2009 
L 1997 1497 
L 313 1497 
L 313 2009 
z
" transform="scale(0.015625)"/>
      </defs>
      <use xlink:href="#DejaVuSans-73"/>
      <use xlink:href="#DejaVuSans-6f" x="52.099609"/>
      <use xlink:href="#DejaVuSans-75" x="113.28125"/>
      <use xlink:href="#DejaVuSans-72" x="176.660156"/>
      <use xlink:href="#DejaVuSans-63" x="215.523438"/>
      <use xlink:href="#DejaVuSans-65" x="270.503906"/>
      <use xlink:href="#DejaVuSans-2d" x="332.027344"/>
      <use xlink:href="#DejaVuSans-73" x="368.111328"/>
      <use xlink:href="#DejaVuSans-6f" x="420.210938"/>
      <use xlink:href="#DejaVuSans-75" x="481.392578"/>
      <use xlink:href="#DejaVuSans-72" x="544.771484"/>
      <use xlink:href="#DejaVuSans-63" x="583.634766"/>
      <use xlink:href="#DejaVuSans-65" x="638.615234"/>
     </g>
    </g>
    <g id="line2d_17">
     <path d="M 307.705938 69.248563 
L 317.705938 69.248563 
L 327.705938 69.248563 
" style="fill: none; stroke: #ff7f0e; stroke-width: 1.5; stroke-linecap: square"/>
    </g>
    <g id="text_17">
     <!-- source-target -->
     <g transform="translate(335.705938 72.748563) scale(0.1 -0.1)">
      <use xlink:href="#DejaVuSans-73"/>
      <use xlink:href="#DejaVuSans-6f" x="52.099609"/>
      <use xlink:href="#DejaVuSans-75" x="113.28125"/>
      <use xlink:href="#DejaVuSans-72" x="176.660156"/>
      <use xlink:href="#DejaVuSans-63" x="215.523438"/>
      <use xlink:href="#DejaVuSans-65" x="270.503906"/>
      <use xlink:href="#DejaVuSans-2d" x="332.027344"/>
      <use xlink:href="#DejaVuSans-74" x="368.111328"/>
      <use xlink:href="#DejaVuSans-61" x="407.320312"/>
      <use xlink:href="#DejaVuSans-72" x="468.599609"/>
      <use xlink:href="#DejaVuSans-67" x="507.962891"/>
      <use xlink:href="#DejaVuSans-65" x="571.439453"/>
      <use xlink:href="#DejaVuSans-74" x="632.962891"/>
     </g>
    </g>
    <g id="line2d_18">
     <path d="M 307.705938 83.926688 
L 317.705938 83.926688 
L 327.705938 83.926688 
" style="fill: none; stroke: #2ca02c; stroke-width: 1.5; stroke-linecap: square"/>
    </g>
    <g id="text_18">
     <!-- target-target -->
     <g transform="translate(335.705938 87.426688) scale(0.1 -0.1)">
      <use xlink:href="#DejaVuSans-74"/>
      <use xlink:href="#DejaVuSans-61" x="39.208984"/>
      <use xlink:href="#DejaVuSans-72" x="100.488281"/>
      <use xlink:href="#DejaVuSans-67" x="139.851562"/>
      <use xlink:href="#DejaVuSans-65" x="203.328125"/>
      <use xlink:href="#DejaVuSans-74" x="264.851562"/>
      <use xlink:href="#DejaVuSans-2d" x="304.060547"/>
      <use xlink:href="#DejaVuSans-74" x="340.144531"/>
      <use xlink:href="#DejaVuSans-61" x="379.353516"/>
      <use xlink:href="#DejaVuSans-72" x="440.632812"/>
      <use xlink:href="#DejaVuSans-67" x="479.996094"/>
      <use xlink:href="#DejaVuSans-65" x="543.472656"/>
      <use xlink:href="#DejaVuSans-74" x="604.996094"/>
     </g>
    </g>
   </g>
  </g>
 </g>
 <defs>
  <clipPath id="pc108ad601b">
   <rect x="57.6" y="41.472" width="357.12" height="266.112"/>
  </clipPath>
 </defs>
</svg>
