<?xml version="1.0" encoding="utf-8" standalone="no"?>
<!DOCTYPE svg PUBLIC "-//W3C//DTD SVG 1.1//EN"
  "http://www.w3.org/Graphics/SVG/1.1/DTD/svg11.dtd">
<svg xmlns:xlink="http://www.w3.org/1999/xlink" width="460.8pt" height="345.6pt" viewBox="0 0 460.8 345.6" xmlns="http://www.w3.org/2000/svg" version="1.1">
 <metadata>
  <rdf:RDF xmlns:dc="http://purl.org/dc/elements/1.1/" xmlns:cc="http://creativecommons.org/ns#" xmlns:rdf="http://www.w3.org/1999/02/22-rdf-syntax-ns#">
   <cc:Work>
    <dc:type rdf:resource="http://purl.org/dc/dcmitype/StillImage"/>
    <dc:date>2023-08-19T13:46:23.612453</dc:date>
    <dc:format>image/svg+xml</dc:format>
    <dc:creator>
     <cc:Agent>
      <dc:title>Matplotlib v3.7.1, https://matplotlib.org/</dc:title>
     </cc:Agent>
    </dc:creator>
   </cc:Work>
  </rdf:RDF>
 </metadata>
 <defs>
  <style type="text/css">*{stroke-linejoin: round; stroke-linecap: butt}</style>
 </defs>
 <g id="figure_1">
  <g id="patch_1">
   <path d="M 0 345.6 
L 460.8 345.6 
L 460.8 0 
L 0 0 
z
" style="fill: #ffffff"/>
  </g>
  <g id="axes_1">
   <g id="patch_2">
    <path d="M 57.6 307.584 
L 414.72 307.584 
L 414.72 41.472 
L 57.6 41.472 
z
" style="fill: #ffffff"/>
   </g>
   <g id="matplotlib.axis_1">
    <g id="xtick_1">
     <g id="line2d_1">
      <defs>
       <path id="md384298bd6" d="M 0 0 
L 0 3.5 
" style="stroke: #000000; stroke-width: 0.8"/>
      </defs>
      <g>
       <use xlink:href="#md384298bd6" x="73.167452" y="307.584" style="stroke: #000000; stroke-width: 0.8"/>
      </g>
     </g>
     <g id="text_1">
      <!-- 0 -->
      <g transform="translate(69.986202 322.182437) scale(0.1 -0.1)">
       <defs>
        <path id="DejaVuSans-30" d="M 2034 4250 
Q 1547 4250 1301 3770 
Q 1056 3291 1056 2328 
Q 1056 1369 1301 889 
Q 1547 409 2034 409 
Q 2525 409 2770 889 
Q 3016 1369 3016 2328 
Q 3016 3291 2770 3770 
Q 2525 4250 2034 4250 
z
M 2034 4750 
Q 2819 4750 3233 4129 
Q 3647 3509 3647 2328 
Q 3647 1150 3233 529 
Q 2819 -91 2034 -91 
Q 1250 -91 836 529 
Q 422 1150 422 2328 
Q 422 3509 836 4129 
Q 1250 4750 2034 4750 
z
" transform="scale(0.015625)"/>
       </defs>
       <use xlink:href="#DejaVuSans-30"/>
      </g>
     </g>
    </g>
    <g id="xtick_2">
     <g id="line2d_2">
      <g>
       <use xlink:href="#md384298bd6" x="139.695022" y="307.584" style="stroke: #000000; stroke-width: 0.8"/>
      </g>
     </g>
     <g id="text_2">
      <!-- 1000 -->
      <g transform="translate(126.970022 322.182437) scale(0.1 -0.1)">
       <defs>
        <path id="DejaVuSans-31" d="M 794 531 
L 1825 531 
L 1825 4091 
L 703 3866 
L 703 4441 
L 1819 4666 
L 2450 4666 
L 2450 531 
L 3481 531 
L 3481 0 
L 794 0 
L 794 531 
z
" transform="scale(0.015625)"/>
       </defs>
       <use xlink:href="#DejaVuSans-31"/>
       <use xlink:href="#DejaVuSans-30" x="63.623047"/>
       <use xlink:href="#DejaVuSans-30" x="127.246094"/>
       <use xlink:href="#DejaVuSans-30" x="190.869141"/>
      </g>
     </g>
    </g>
    <g id="xtick_3">
     <g id="line2d_3">
      <g>
       <use xlink:href="#md384298bd6" x="206.222593" y="307.584" style="stroke: #000000; stroke-width: 0.8"/>
      </g>
     </g>
     <g id="text_3">
      <!-- 2000 -->
      <g transform="translate(193.497593 322.182437) scale(0.1 -0.1)">
       <defs>
        <path id="DejaVuSans-32" d="M 1228 531 
L 3431 531 
L 3431 0 
L 469 0 
L 469 531 
Q 828 903 1448 1529 
Q 2069 2156 2228 2338 
Q 2531 2678 2651 2914 
Q 2772 3150 2772 3378 
Q 2772 3750 2511 3984 
Q 2250 4219 1831 4219 
Q 1534 4219 1204 4116 
Q 875 4013 500 3803 
L 500 4441 
Q 881 4594 1212 4672 
Q 1544 4750 1819 4750 
Q 2544 4750 2975 4387 
Q 3406 4025 3406 3419 
Q 3406 3131 3298 2873 
Q 3191 2616 2906 2266 
Q 2828 2175 2409 1742 
Q 1991 1309 1228 531 
z
" transform="scale(0.015625)"/>
       </defs>
       <use xlink:href="#DejaVuSans-32"/>
       <use xlink:href="#DejaVuSans-30" x="63.623047"/>
       <use xlink:href="#DejaVuSans-30" x="127.246094"/>
       <use xlink:href="#DejaVuSans-30" x="190.869141"/>
      </g>
     </g>
    </g>
    <g id="xtick_4">
     <g id="line2d_4">
      <g>
       <use xlink:href="#md384298bd6" x="272.750164" y="307.584" style="stroke: #000000; stroke-width: 0.8"/>
      </g>
     </g>
     <g id="text_4">
      <!-- 3000 -->
      <g transform="translate(260.025164 322.182437) scale(0.1 -0.1)">
       <defs>
        <path id="DejaVuSans-33" d="M 2597 2516 
Q 3050 2419 3304 2112 
Q 3559 1806 3559 1356 
Q 3559 666 3084 287 
Q 2609 -91 1734 -91 
Q 1441 -91 1130 -33 
Q 819 25 488 141 
L 488 750 
Q 750 597 1062 519 
Q 1375 441 1716 441 
Q 2309 441 2620 675 
Q 2931 909 2931 1356 
Q 2931 1769 2642 2001 
Q 2353 2234 1838 2234 
L 1294 2234 
L 1294 2753 
L 1863 2753 
Q 2328 2753 2575 2939 
Q 2822 3125 2822 3475 
Q 2822 3834 2567 4026 
Q 2313 4219 1838 4219 
Q 1578 4219 1281 4162 
Q 984 4106 628 3988 
L 628 4550 
Q 988 4650 1302 4700 
Q 1616 4750 1894 4750 
Q 2613 4750 3031 4423 
Q 3450 4097 3450 3541 
Q 3450 3153 3228 2886 
Q 3006 2619 2597 2516 
z
" transform="scale(0.015625)"/>
       </defs>
       <use xlink:href="#DejaVuSans-33"/>
       <use xlink:href="#DejaVuSans-30" x="63.623047"/>
       <use xlink:href="#DejaVuSans-30" x="127.246094"/>
       <use xlink:href="#DejaVuSans-30" x="190.869141"/>
      </g>
     </g>
    </g>
    <g id="xtick_5">
     <g id="line2d_5">
      <g>
       <use xlink:href="#md384298bd6" x="339.277735" y="307.584" style="stroke: #000000; stroke-width: 0.8"/>
      </g>
     </g>
     <g id="text_5">
      <!-- 4000 -->
      <g transform="translate(326.552735 322.182437) scale(0.1 -0.1)">
       <defs>
        <path id="DejaVuSans-34" d="M 2419 4116 
L 825 1625 
L 2419 1625 
L 2419 4116 
z
M 2253 4666 
L 3047 4666 
L 3047 1625 
L 3713 1625 
L 3713 1100 
L 3047 1100 
L 3047 0 
L 2419 0 
L 2419 1100 
L 313 1100 
L 313 1709 
L 2253 4666 
z
" transform="scale(0.015625)"/>
       </defs>
       <use xlink:href="#DejaVuSans-34"/>
       <use xlink:href="#DejaVuSans-30" x="63.623047"/>
       <use xlink:href="#DejaVuSans-30" x="127.246094"/>
       <use xlink:href="#DejaVuSans-30" x="190.869141"/>
      </g>
     </g>
    </g>
    <g id="xtick_6">
     <g id="line2d_6">
      <g>
       <use xlink:href="#md384298bd6" x="405.805306" y="307.584" style="stroke: #000000; stroke-width: 0.8"/>
      </g>
     </g>
     <g id="text_6">
      <!-- 5000 -->
      <g transform="translate(393.080306 322.182437) scale(0.1 -0.1)">
       <defs>
        <path id="DejaVuSans-35" d="M 691 4666 
L 3169 4666 
L 3169 4134 
L 1269 4134 
L 1269 2991 
Q 1406 3038 1543 3061 
Q 1681 3084 1819 3084 
Q 2600 3084 3056 2656 
Q 3513 2228 3513 1497 
Q 3513 744 3044 326 
Q 2575 -91 1722 -91 
Q 1428 -91 1123 -41 
Q 819 9 494 109 
L 494 744 
Q 775 591 1075 516 
Q 1375 441 1709 441 
Q 2250 441 2565 725 
Q 2881 1009 2881 1497 
Q 2881 1984 2565 2268 
Q 2250 2553 1709 2553 
Q 1456 2553 1204 2497 
Q 953 2441 691 2322 
L 691 4666 
z
" transform="scale(0.015625)"/>
       </defs>
       <use xlink:href="#DejaVuSans-35"/>
       <use xlink:href="#DejaVuSans-30" x="63.623047"/>
       <use xlink:href="#DejaVuSans-30" x="127.246094"/>
       <use xlink:href="#DejaVuSans-30" x="190.869141"/>
      </g>
     </g>
    </g>
    <g id="text_7">
     <!-- episodes -->
     <g transform="translate(214.000625 335.860562) scale(0.1 -0.1)">
      <defs>
       <path id="DejaVuSans-65" d="M 3597 1894 
L 3597 1613 
L 953 1613 
Q 991 1019 1311 708 
Q 1631 397 2203 397 
Q 2534 397 2845 478 
Q 3156 559 3463 722 
L 3463 178 
Q 3153 47 2828 -22 
Q 2503 -91 2169 -91 
Q 1331 -91 842 396 
Q 353 884 353 1716 
Q 353 2575 817 3079 
Q 1281 3584 2069 3584 
Q 2775 3584 3186 3129 
Q 3597 2675 3597 1894 
z
M 3022 2063 
Q 3016 2534 2758 2815 
Q 2500 3097 2075 3097 
Q 1594 3097 1305 2825 
Q 1016 2553 972 2059 
L 3022 2063 
z
" transform="scale(0.015625)"/>
       <path id="DejaVuSans-70" d="M 1159 525 
L 1159 -1331 
L 581 -1331 
L 581 3500 
L 1159 3500 
L 1159 2969 
Q 1341 3281 1617 3432 
Q 1894 3584 2278 3584 
Q 2916 3584 3314 3078 
Q 3713 2572 3713 1747 
Q 3713 922 3314 415 
Q 2916 -91 2278 -91 
Q 1894 -91 1617 61 
Q 1341 213 1159 525 
z
M 3116 1747 
Q 3116 2381 2855 2742 
Q 2594 3103 2138 3103 
Q 1681 3103 1420 2742 
Q 1159 2381 1159 1747 
Q 1159 1113 1420 752 
Q 1681 391 2138 391 
Q 2594 391 2855 752 
Q 3116 1113 3116 1747 
z
" transform="scale(0.015625)"/>
       <path id="DejaVuSans-69" d="M 603 3500 
L 1178 3500 
L 1178 0 
L 603 0 
L 603 3500 
z
M 603 4863 
L 1178 4863 
L 1178 4134 
L 603 4134 
L 603 4863 
z
" transform="scale(0.015625)"/>
       <path id="DejaVuSans-73" d="M 2834 3397 
L 2834 2853 
Q 2591 2978 2328 3040 
Q 2066 3103 1784 3103 
Q 1356 3103 1142 2972 
Q 928 2841 928 2578 
Q 928 2378 1081 2264 
Q 1234 2150 1697 2047 
L 1894 2003 
Q 2506 1872 2764 1633 
Q 3022 1394 3022 966 
Q 3022 478 2636 193 
Q 2250 -91 1575 -91 
Q 1294 -91 989 -36 
Q 684 19 347 128 
L 347 722 
Q 666 556 975 473 
Q 1284 391 1588 391 
Q 1994 391 2212 530 
Q 2431 669 2431 922 
Q 2431 1156 2273 1281 
Q 2116 1406 1581 1522 
L 1381 1569 
Q 847 1681 609 1914 
Q 372 2147 372 2553 
Q 372 3047 722 3315 
Q 1072 3584 1716 3584 
Q 2034 3584 2315 3537 
Q 2597 3491 2834 3397 
z
" transform="scale(0.015625)"/>
       <path id="DejaVuSans-6f" d="M 1959 3097 
Q 1497 3097 1228 2736 
Q 959 2375 959 1747 
Q 959 1119 1226 758 
Q 1494 397 1959 397 
Q 2419 397 2687 759 
Q 2956 1122 2956 1747 
Q 2956 2369 2687 2733 
Q 2419 3097 1959 3097 
z
M 1959 3584 
Q 2709 3584 3137 3096 
Q 3566 2609 3566 1747 
Q 3566 888 3137 398 
Q 2709 -91 1959 -91 
Q 1206 -91 779 398 
Q 353 888 353 1747 
Q 353 2609 779 3096 
Q 1206 3584 1959 3584 
z
" transform="scale(0.015625)"/>
       <path id="DejaVuSans-64" d="M 2906 2969 
L 2906 4863 
L 3481 4863 
L 3481 0 
L 2906 0 
L 2906 525 
Q 2725 213 2448 61 
Q 2172 -91 1784 -91 
Q 1150 -91 751 415 
Q 353 922 353 1747 
Q 353 2572 751 3078 
Q 1150 3584 1784 3584 
Q 2172 3584 2448 3432 
Q 2725 3281 2906 2969 
z
M 947 1747 
Q 947 1113 1208 752 
Q 1469 391 1925 391 
Q 2381 391 2643 752 
Q 2906 1113 2906 1747 
Q 2906 2381 2643 2742 
Q 2381 3103 1925 3103 
Q 1469 3103 1208 2742 
Q 947 2381 947 1747 
z
" transform="scale(0.015625)"/>
      </defs>
      <use xlink:href="#DejaVuSans-65"/>
      <use xlink:href="#DejaVuSans-70" x="61.523438"/>
      <use xlink:href="#DejaVuSans-69" x="125"/>
      <use xlink:href="#DejaVuSans-73" x="152.783203"/>
      <use xlink:href="#DejaVuSans-6f" x="204.882812"/>
      <use xlink:href="#DejaVuSans-64" x="266.064453"/>
      <use xlink:href="#DejaVuSans-65" x="329.541016"/>
      <use xlink:href="#DejaVuSans-73" x="391.064453"/>
     </g>
    </g>
   </g>
   <g id="matplotlib.axis_2">
    <g id="ytick_1">
     <g id="line2d_7">
      <defs>
       <path id="m4847c889f8" d="M 0 0 
L -3.5 0 
" style="stroke: #000000; stroke-width: 0.8"/>
      </defs>
      <g>
       <use xlink:href="#m4847c889f8" x="57.6" y="298.932876" style="stroke: #000000; stroke-width: 0.8"/>
      </g>
     </g>
     <g id="text_8">
      <!-- 0 -->
      <g transform="translate(44.2375 302.732094) scale(0.1 -0.1)">
       <use xlink:href="#DejaVuSans-30"/>
      </g>
     </g>
    </g>
    <g id="ytick_2">
     <g id="line2d_8">
      <g>
       <use xlink:href="#m4847c889f8" x="57.6" y="266.024174" style="stroke: #000000; stroke-width: 0.8"/>
      </g>
     </g>
     <g id="text_9">
      <!-- 100 -->
      <g transform="translate(31.5125 269.823393) scale(0.1 -0.1)">
       <use xlink:href="#DejaVuSans-31"/>
       <use xlink:href="#DejaVuSans-30" x="63.623047"/>
       <use xlink:href="#DejaVuSans-30" x="127.246094"/>
      </g>
     </g>
    </g>
    <g id="ytick_3">
     <g id="line2d_9">
      <g>
       <use xlink:href="#m4847c889f8" x="57.6" y="233.115472" style="stroke: #000000; stroke-width: 0.8"/>
      </g>
     </g>
     <g id="text_10">
      <!-- 200 -->
      <g transform="translate(31.5125 236.914691) scale(0.1 -0.1)">
       <use xlink:href="#DejaVuSans-32"/>
       <use xlink:href="#DejaVuSans-30" x="63.623047"/>
       <use xlink:href="#DejaVuSans-30" x="127.246094"/>
      </g>
     </g>
    </g>
    <g id="ytick_4">
     <g id="line2d_10">
      <g>
       <use xlink:href="#m4847c889f8" x="57.6" y="200.206771" style="stroke: #000000; stroke-width: 0.8"/>
      </g>
     </g>
     <g id="text_11">
      <!-- 300 -->
      <g transform="translate(31.5125 204.005989) scale(0.1 -0.1)">
       <use xlink:href="#DejaVuSans-33"/>
       <use xlink:href="#DejaVuSans-30" x="63.623047"/>
       <use xlink:href="#DejaVuSans-30" x="127.246094"/>
      </g>
     </g>
    </g>
    <g id="ytick_5">
     <g id="line2d_11">
      <g>
       <use xlink:href="#m4847c889f8" x="57.6" y="167.298069" style="stroke: #000000; stroke-width: 0.8"/>
      </g>
     </g>
     <g id="text_12">
      <!-- 400 -->
      <g transform="translate(31.5125 171.097288) scale(0.1 -0.1)">
       <use xlink:href="#DejaVuSans-34"/>
       <use xlink:href="#DejaVuSans-30" x="63.623047"/>
       <use xlink:href="#DejaVuSans-30" x="127.246094"/>
      </g>
     </g>
    </g>
    <g id="ytick_6">
     <g id="line2d_12">
      <g>
       <use xlink:href="#m4847c889f8" x="57.6" y="134.389367" style="stroke: #000000; stroke-width: 0.8"/>
      </g>
     </g>
     <g id="text_13">
      <!-- 500 -->
      <g transform="translate(31.5125 138.188586) scale(0.1 -0.1)">
       <use xlink:href="#DejaVuSans-35"/>
       <use xlink:href="#DejaVuSans-30" x="63.623047"/>
       <use xlink:href="#DejaVuSans-30" x="127.246094"/>
      </g>
     </g>
    </g>
    <g id="ytick_7">
     <g id="line2d_13">
      <g>
       <use xlink:href="#m4847c889f8" x="57.6" y="101.480666" style="stroke: #000000; stroke-width: 0.8"/>
      </g>
     </g>
     <g id="text_14">
      <!-- 600 -->
      <g transform="translate(31.5125 105.279884) scale(0.1 -0.1)">
       <defs>
        <path id="DejaVuSans-36" d="M 2113 2584 
Q 1688 2584 1439 2293 
Q 1191 2003 1191 1497 
Q 1191 994 1439 701 
Q 1688 409 2113 409 
Q 2538 409 2786 701 
Q 3034 994 3034 1497 
Q 3034 2003 2786 2293 
Q 2538 2584 2113 2584 
z
M 3366 4563 
L 3366 3988 
Q 3128 4100 2886 4159 
Q 2644 4219 2406 4219 
Q 1781 4219 1451 3797 
Q 1122 3375 1075 2522 
Q 1259 2794 1537 2939 
Q 1816 3084 2150 3084 
Q 2853 3084 3261 2657 
Q 3669 2231 3669 1497 
Q 3669 778 3244 343 
Q 2819 -91 2113 -91 
Q 1303 -91 875 529 
Q 447 1150 447 2328 
Q 447 3434 972 4092 
Q 1497 4750 2381 4750 
Q 2619 4750 2861 4703 
Q 3103 4656 3366 4563 
z
" transform="scale(0.015625)"/>
       </defs>
       <use xlink:href="#DejaVuSans-36"/>
       <use xlink:href="#DejaVuSans-30" x="63.623047"/>
       <use xlink:href="#DejaVuSans-30" x="127.246094"/>
      </g>
     </g>
    </g>
    <g id="ytick_8">
     <g id="line2d_14">
      <g>
       <use xlink:href="#m4847c889f8" x="57.6" y="68.571964" style="stroke: #000000; stroke-width: 0.8"/>
      </g>
     </g>
     <g id="text_15">
      <!-- 700 -->
      <g transform="translate(31.5125 72.371183) scale(0.1 -0.1)">
       <defs>
        <path id="DejaVuSans-37" d="M 525 4666 
L 3525 4666 
L 3525 4397 
L 1831 0 
L 1172 0 
L 2766 4134 
L 525 4134 
L 525 4666 
z
" transform="scale(0.015625)"/>
       </defs>
       <use xlink:href="#DejaVuSans-37"/>
       <use xlink:href="#DejaVuSans-30" x="63.623047"/>
       <use xlink:href="#DejaVuSans-30" x="127.246094"/>
      </g>
     </g>
    </g>
    <g id="text_16">
     <!-- mean episode rewards -->
     <g transform="translate(25.432812 231.360031) rotate(-90) scale(0.1 -0.1)">
      <defs>
       <path id="DejaVuSans-6d" d="M 3328 2828 
Q 3544 3216 3844 3400 
Q 4144 3584 4550 3584 
Q 5097 3584 5394 3201 
Q 5691 2819 5691 2113 
L 5691 0 
L 5113 0 
L 5113 2094 
Q 5113 2597 4934 2840 
Q 4756 3084 4391 3084 
Q 3944 3084 3684 2787 
Q 3425 2491 3425 1978 
L 3425 0 
L 2847 0 
L 2847 2094 
Q 2847 2600 2669 2842 
Q 2491 3084 2119 3084 
Q 1678 3084 1418 2786 
Q 1159 2488 1159 1978 
L 1159 0 
L 581 0 
L 581 3500 
L 1159 3500 
L 1159 2956 
Q 1356 3278 1631 3431 
Q 1906 3584 2284 3584 
Q 2666 3584 2933 3390 
Q 3200 3197 3328 2828 
z
" transform="scale(0.015625)"/>
       <path id="DejaVuSans-61" d="M 2194 1759 
Q 1497 1759 1228 1600 
Q 959 1441 959 1056 
Q 959 750 1161 570 
Q 1363 391 1709 391 
Q 2188 391 2477 730 
Q 2766 1069 2766 1631 
L 2766 1759 
L 2194 1759 
z
M 3341 1997 
L 3341 0 
L 2766 0 
L 2766 531 
Q 2569 213 2275 61 
Q 1981 -91 1556 -91 
Q 1019 -91 701 211 
Q 384 513 384 1019 
Q 384 1609 779 1909 
Q 1175 2209 1959 2209 
L 2766 2209 
L 2766 2266 
Q 2766 2663 2505 2880 
Q 2244 3097 1772 3097 
Q 1472 3097 1187 3025 
Q 903 2953 641 2809 
L 641 3341 
Q 956 3463 1253 3523 
Q 1550 3584 1831 3584 
Q 2591 3584 2966 3190 
Q 3341 2797 3341 1997 
z
" transform="scale(0.015625)"/>
       <path id="DejaVuSans-6e" d="M 3513 2113 
L 3513 0 
L 2938 0 
L 2938 2094 
Q 2938 2591 2744 2837 
Q 2550 3084 2163 3084 
Q 1697 3084 1428 2787 
Q 1159 2491 1159 1978 
L 1159 0 
L 581 0 
L 581 3500 
L 1159 3500 
L 1159 2956 
Q 1366 3272 1645 3428 
Q 1925 3584 2291 3584 
Q 2894 3584 3203 3211 
Q 3513 2838 3513 2113 
z
" transform="scale(0.015625)"/>
       <path id="DejaVuSans-20" transform="scale(0.015625)"/>
       <path id="DejaVuSans-72" d="M 2631 2963 
Q 2534 3019 2420 3045 
Q 2306 3072 2169 3072 
Q 1681 3072 1420 2755 
Q 1159 2438 1159 1844 
L 1159 0 
L 581 0 
L 581 3500 
L 1159 3500 
L 1159 2956 
Q 1341 3275 1631 3429 
Q 1922 3584 2338 3584 
Q 2397 3584 2469 3576 
Q 2541 3569 2628 3553 
L 2631 2963 
z
" transform="scale(0.015625)"/>
       <path id="DejaVuSans-77" d="M 269 3500 
L 844 3500 
L 1563 769 
L 2278 3500 
L 2956 3500 
L 3675 769 
L 4391 3500 
L 4966 3500 
L 4050 0 
L 3372 0 
L 2619 2869 
L 1863 0 
L 1184 0 
L 269 3500 
z
" transform="scale(0.015625)"/>
      </defs>
      <use xlink:href="#DejaVuSans-6d"/>
      <use xlink:href="#DejaVuSans-65" x="97.412109"/>
      <use xlink:href="#DejaVuSans-61" x="158.935547"/>
      <use xlink:href="#DejaVuSans-6e" x="220.214844"/>
      <use xlink:href="#DejaVuSans-20" x="283.59375"/>
      <use xlink:href="#DejaVuSans-65" x="315.380859"/>
      <use xlink:href="#DejaVuSans-70" x="376.904297"/>
      <use xlink:href="#DejaVuSans-69" x="440.380859"/>
      <use xlink:href="#DejaVuSans-73" x="468.164062"/>
      <use xlink:href="#DejaVuSans-6f" x="520.263672"/>
      <use xlink:href="#DejaVuSans-64" x="581.445312"/>
      <use xlink:href="#DejaVuSans-65" x="644.921875"/>
      <use xlink:href="#DejaVuSans-20" x="706.445312"/>
      <use xlink:href="#DejaVuSans-72" x="738.232422"/>
      <use xlink:href="#DejaVuSans-65" x="777.095703"/>
      <use xlink:href="#DejaVuSans-77" x="838.619141"/>
      <use xlink:href="#DejaVuSans-61" x="920.40625"/>
      <use xlink:href="#DejaVuSans-72" x="981.685547"/>
      <use xlink:href="#DejaVuSans-64" x="1021.048828"/>
      <use xlink:href="#DejaVuSans-73" x="1084.525391"/>
     </g>
    </g>
   </g>
   <g id="line2d_15">
    <path d="M 73.832727 295.488 
L 75.163279 294.70892 
L 76.49383 293.996725 
L 77.159106 293.452783 
L 78.489657 293.55294 
L 79.154933 293.115694 
L 81.15076 292.439967 
L 81.816036 292.300114 
L 82.481311 292.414482 
L 83.146587 291.885802 
L 83.811863 292.329451 
L 85.80769 292.016018 
L 87.138241 292.144533 
L 87.803517 292.449503 
L 88.468793 292.592933 
L 89.134069 292.550599 
L 89.799344 293.103381 
L 90.46462 292.646878 
L 91.129896 292.857529 
L 91.795171 292.855239 
L 92.460447 293.547705 
L 93.125723 293.302418 
L 95.12155 293.228884 
L 95.786826 292.750763 
L 97.117377 292.992508 
L 97.782653 293.037894 
L 98.447928 293.219266 
L 99.113204 292.719296 
L 99.77848 293.026167 
L 101.774307 292.627999 
L 102.439583 293.056067 
L 103.104858 292.933989 
L 103.770134 293.234911 
L 105.100686 293.481528 
L 105.765961 293.820504 
L 107.096513 293.305051 
L 107.761788 293.36816 
L 109.09234 293.753346 
L 110.422891 293.703589 
L 111.088167 293.480226 
L 111.753443 293.433317 
L 112.418718 292.77606 
L 113.083994 292.902095 
L 113.74927 293.236507 
L 115.079821 292.799107 
L 115.745097 292.220334 
L 116.410373 291.995248 
L 117.075648 292.00174 
L 117.740924 291.508708 
L 118.4062 291.422484 
L 119.071475 291.802316 
L 120.402027 291.376827 
L 121.067303 291.703753 
L 121.732578 291.242965 
L 122.397854 291.099757 
L 123.728405 291.060873 
L 124.393681 291.704068 
L 125.058957 291.275444 
L 126.389508 290.051095 
L 127.054784 289.883382 
L 127.72006 289.442333 
L 128.385335 289.750213 
L 129.715887 289.368038 
L 131.046438 288.382832 
L 131.711714 288.512709 
L 133.042265 287.337044 
L 133.707541 286.830845 
L 134.372817 285.840461 
L 135.038092 285.958104 
L 135.703368 285.756086 
L 137.03392 283.536311 
L 137.699195 282.937549 
L 138.364471 281.286313 
L 139.029747 280.923641 
L 139.695022 279.976093 
L 140.360298 278.717475 
L 141.690849 275.306491 
L 142.356125 273.998641 
L 143.021401 274.08782 
L 143.686677 273.944791 
L 144.351952 272.964036 
L 145.017228 273.163999 
L 145.682504 273.076806 
L 146.347779 273.406594 
L 147.013055 273.401328 
L 147.678331 274.199919 
L 148.343607 274.446882 
L 149.674158 273.302246 
L 150.339434 272.457198 
L 151.669985 269.998286 
L 153.665812 267.560549 
L 155.661639 266.69616 
L 156.326915 265.973567 
L 157.657466 265.347779 
L 158.322742 265.202737 
L 158.988018 263.037019 
L 160.318569 259.568427 
L 161.649121 253.021934 
L 162.314396 251.001759 
L 162.979672 247.595884 
L 163.644948 245.095053 
L 164.310224 244.084814 
L 164.975499 241.407326 
L 165.640775 240.357184 
L 166.306051 238.739372 
L 166.971326 237.869154 
L 167.636602 237.598841 
L 168.301878 237.646354 
L 168.967154 236.86222 
L 169.632429 237.343348 
L 170.297705 237.559766 
L 170.962981 236.495499 
L 171.628256 236.600866 
L 172.958808 237.187919 
L 176.285186 237.685254 
L 176.950462 237.688991 
L 177.615738 238.068605 
L 178.281013 237.981457 
L 178.946289 238.081843 
L 180.276841 238.473748 
L 182.272668 238.616997 
L 184.268495 238.571424 
L 184.93377 238.703759 
L 186.929598 238.726094 
L 187.594873 238.958677 
L 189.5907 239.038262 
L 190.255976 238.771905 
L 190.921252 238.726139 
L 195.578182 237.568421 
L 196.243458 237.203167 
L 196.908733 237.31637 
L 197.574009 236.974829 
L 198.239285 236.310045 
L 198.90456 235.821278 
L 200.235112 235.158575 
L 200.900387 235.069349 
L 201.565663 234.54903 
L 202.230939 233.616732 
L 202.896215 233.254925 
L 203.56149 232.740449 
L 204.892042 230.710734 
L 205.557317 228.501286 
L 206.887869 226.223719 
L 208.21842 222.613575 
L 208.883696 221.473885 
L 210.214247 215.698798 
L 211.544799 212.647949 
L 212.210075 212.026466 
L 212.87535 210.176389 
L 214.871177 203.352971 
L 215.536453 201.138945 
L 216.201729 200.842849 
L 217.53228 199.105324 
L 218.197556 198.45553 
L 218.862832 198.134888 
L 220.193383 198.728678 
L 221.523934 200.476404 
L 222.18921 201.958206 
L 223.519762 205.456882 
L 224.185037 205.584864 
L 224.850313 206.667162 
L 225.515589 209.255511 
L 226.180864 209.569261 
L 226.84614 206.066173 
L 227.511416 207.415987 
L 228.841967 208.567249 
L 229.507243 208.442182 
L 230.172519 207.965893 
L 231.50307 204.766106 
L 232.168346 200.280573 
L 232.833621 197.067814 
L 233.498897 200.502979 
L 234.164173 192.444515 
L 234.829449 182.070636 
L 235.494724 168.452984 
L 236.16 161.271733 
L 236.825276 156.140967 
L 237.490551 153.519713 
L 238.155827 148.470691 
L 238.821103 147.712701 
L 239.486379 148.446083 
L 240.151654 146.32564 
L 240.81693 150.701549 
L 241.482206 158.102213 
L 242.147481 168.401446 
L 242.812757 172.35045 
L 244.143308 177.299662 
L 244.808584 181.090595 
L 245.47386 182.268393 
L 246.804411 183.073865 
L 247.469687 184.026042 
L 249.465514 184.879779 
L 250.13079 185.42515 
L 250.796066 185.130224 
L 251.461341 185.899372 
L 252.126617 186.248424 
L 252.791893 185.373786 
L 253.457168 184.853206 
L 254.78772 184.17732 
L 255.452996 184.190947 
L 256.118271 183.714561 
L 256.783547 183.587955 
L 257.448823 184.408259 
L 258.114098 183.489651 
L 258.779374 182.944561 
L 259.44465 183.193277 
L 260.109925 182.739818 
L 260.775201 182.638595 
L 261.440477 182.761089 
L 263.436304 181.541989 
L 264.10158 180.675257 
L 264.766855 180.494739 
L 265.432131 180.754142 
L 266.097407 180.526979 
L 267.427958 181.844864 
L 268.093234 182.122123 
L 268.75851 182.604675 
L 270.089061 183.922635 
L 270.754337 184.042926 
L 271.419613 185.008412 
L 272.084888 185.544619 
L 272.750164 186.869467 
L 273.41544 187.188078 
L 274.080715 187.05357 
L 274.745991 187.284031 
L 275.411267 188.023871 
L 276.741818 189.184479 
L 277.407094 190.379716 
L 278.07237 190.60276 
L 278.737645 191.444475 
L 279.402921 191.368926 
L 280.068197 192.090355 
L 282.7293 196.456786 
L 283.394575 197.244436 
L 284.059851 198.270636 
L 284.725127 199.917559 
L 285.390402 200.686847 
L 286.055678 202.620419 
L 287.38623 205.066189 
L 288.716781 206.498138 
L 289.382057 206.753547 
L 290.712608 208.539445 
L 291.377884 208.608919 
L 292.043159 209.305497 
L 293.373711 209.555555 
L 294.038987 210.571182 
L 294.704262 211.365608 
L 295.369538 211.939013 
L 296.034814 212.933707 
L 298.030641 214.527343 
L 298.695917 214.757461 
L 299.361192 214.685311 
L 300.026468 214.92454 
L 301.357019 214.752255 
L 302.022295 215.01689 
L 302.687571 214.410535 
L 303.352846 214.67631 
L 304.018122 213.997877 
L 304.683398 214.454724 
L 305.348674 215.341979 
L 306.013949 216.554542 
L 306.679225 217.201213 
L 307.344501 217.579659 
L 308.009776 217.146159 
L 308.675052 216.890584 
L 309.340328 216.888578 
L 310.005604 216.764207 
L 310.670879 215.084263 
L 313.997258 199.362442 
L 315.327809 194.480969 
L 315.993085 192.854951 
L 316.658361 190.084117 
L 317.323636 190.043347 
L 317.988912 189.248492 
L 318.654188 189.603486 
L 319.319463 189.511987 
L 319.984739 189.800413 
L 321.315291 190.778405 
L 321.980566 190.61433 
L 322.645842 190.067637 
L 323.311118 190.236908 
L 323.976393 190.217494 
L 324.641669 190.5465 
L 325.306945 189.76154 
L 325.972221 189.635244 
L 326.637496 189.864414 
L 327.302772 189.120976 
L 327.968048 188.191075 
L 328.633323 189.354374 
L 329.298599 189.871789 
L 329.963875 189.996675 
L 330.629151 189.901976 
L 332.624978 190.469232 
L 333.290253 191.106027 
L 334.620805 193.231052 
L 335.28608 193.091191 
L 335.951356 193.631964 
L 337.281908 195.738057 
L 337.947183 196.751782 
L 338.612459 198.039903 
L 339.277735 198.796179 
L 339.94301 199.742869 
L 340.608286 199.869983 
L 341.938838 202.034779 
L 342.604113 202.891044 
L 343.934665 203.40503 
L 344.59994 203.523937 
L 345.265216 203.768228 
L 345.930492 204.669486 
L 347.261043 205.550621 
L 347.926319 206.129487 
L 348.591595 206.391572 
L 349.25687 206.441568 
L 349.922146 206.979901 
L 350.587422 207.701199 
L 351.252697 208.249097 
L 351.917973 208.427727 
L 352.583249 208.01437 
L 353.248525 208.238067 
L 353.9138 211.198453 
L 354.579076 212.781245 
L 355.244352 212.874775 
L 355.909627 213.330205 
L 356.574903 213.578163 
L 357.240179 214.948155 
L 357.905455 215.217449 
L 358.57073 214.968961 
L 359.236006 215.254903 
L 359.901282 214.510809 
L 360.566557 211.390791 
L 361.231833 209.020943 
L 362.562385 207.045669 
L 363.22766 206.344075 
L 363.892936 204.074461 
L 366.554039 198.201303 
L 367.219314 197.429361 
L 367.88459 195.869001 
L 368.549866 194.725591 
L 369.880417 190.332686 
L 370.545693 187.723952 
L 371.210969 186.53516 
L 371.876244 186.126252 
L 372.54152 185.537473 
L 373.206796 184.173808 
L 373.872072 179.81059 
L 374.537347 176.786072 
L 375.202623 172.388771 
L 376.533174 165.671805 
L 378.529001 149.320173 
L 379.859553 133.248581 
L 380.524829 129.458513 
L 381.190104 122.069285 
L 381.85538 110.653296 
L 383.185931 100.705591 
L 383.851207 93.137559 
L 385.181759 71.723829 
L 385.847034 67.473596 
L 386.51231 68.399188 
L 387.177586 63.872134 
L 387.842861 61.948848 
L 388.508137 64.995072 
L 389.173413 64.826844 
L 389.838689 62.864808 
L 390.503964 66.765059 
L 391.16924 72.736049 
L 391.834516 80.083195 
L 392.499791 82.852628 
L 393.165067 80.03893 
L 393.830343 80.345038 
L 394.495618 79.518645 
L 395.160894 71.423298 
L 395.82617 56.782201 
L 396.491446 56.191406 
L 397.156721 56.294995 
L 397.821997 56.011352 
L 398.487273 53.568 
L 398.487273 53.568 
" clip-path="url(#pcac3abc93e)" style="fill: none; stroke: #1f77b4; stroke-width: 1.5; stroke-linecap: square"/>
   </g>
   <g id="patch_3">
    <path d="M 57.6 307.584 
L 57.6 41.472 
" style="fill: none; stroke: #000000; stroke-width: 0.8; stroke-linejoin: miter; stroke-linecap: square"/>
   </g>
   <g id="patch_4">
    <path d="M 414.72 307.584 
L 414.72 41.472 
" style="fill: none; stroke: #000000; stroke-width: 0.8; stroke-linejoin: miter; stroke-linecap: square"/>
   </g>
   <g id="patch_5">
    <path d="M 57.6 307.584 
L 414.72 307.584 
" style="fill: none; stroke: #000000; stroke-width: 0.8; stroke-linejoin: miter; stroke-linecap: square"/>
   </g>
   <g id="patch_6">
    <path d="M 57.6 41.472 
L 414.72 41.472 
" style="fill: none; stroke: #000000; stroke-width: 0.8; stroke-linejoin: miter; stroke-linecap: square"/>
   </g>
   <g id="text_17">
    <!-- episode learning curve -->
    <g transform="translate(167.59125 35.472) scale(0.12 -0.12)">
     <defs>
      <path id="DejaVuSans-6c" d="M 603 4863 
L 1178 4863 
L 1178 0 
L 603 0 
L 603 4863 
z
" transform="scale(0.015625)"/>
      <path id="DejaVuSans-67" d="M 2906 1791 
Q 2906 2416 2648 2759 
Q 2391 3103 1925 3103 
Q 1463 3103 1205 2759 
Q 947 2416 947 1791 
Q 947 1169 1205 825 
Q 1463 481 1925 481 
Q 2391 481 2648 825 
Q 2906 1169 2906 1791 
z
M 3481 434 
Q 3481 -459 3084 -895 
Q 2688 -1331 1869 -1331 
Q 1566 -1331 1297 -1286 
Q 1028 -1241 775 -1147 
L 775 -588 
Q 1028 -725 1275 -790 
Q 1522 -856 1778 -856 
Q 2344 -856 2625 -561 
Q 2906 -266 2906 331 
L 2906 616 
Q 2728 306 2450 153 
Q 2172 0 1784 0 
Q 1141 0 747 490 
Q 353 981 353 1791 
Q 353 2603 747 3093 
Q 1141 3584 1784 3584 
Q 2172 3584 2450 3431 
Q 2728 3278 2906 2969 
L 2906 3500 
L 3481 3500 
L 3481 434 
z
" transform="scale(0.015625)"/>
      <path id="DejaVuSans-63" d="M 3122 3366 
L 3122 2828 
Q 2878 2963 2633 3030 
Q 2388 3097 2138 3097 
Q 1578 3097 1268 2742 
Q 959 2388 959 1747 
Q 959 1106 1268 751 
Q 1578 397 2138 397 
Q 2388 397 2633 464 
Q 2878 531 3122 666 
L 3122 134 
Q 2881 22 2623 -34 
Q 2366 -91 2075 -91 
Q 1284 -91 818 406 
Q 353 903 353 1747 
Q 353 2603 823 3093 
Q 1294 3584 2113 3584 
Q 2378 3584 2631 3529 
Q 2884 3475 3122 3366 
z
" transform="scale(0.015625)"/>
      <path id="DejaVuSans-75" d="M 544 1381 
L 544 3500 
L 1119 3500 
L 1119 1403 
Q 1119 906 1312 657 
Q 1506 409 1894 409 
Q 2359 409 2629 706 
Q 2900 1003 2900 1516 
L 2900 3500 
L 3475 3500 
L 3475 0 
L 2900 0 
L 2900 538 
Q 2691 219 2414 64 
Q 2138 -91 1772 -91 
Q 1169 -91 856 284 
Q 544 659 544 1381 
z
M 1991 3584 
L 1991 3584 
z
" transform="scale(0.015625)"/>
      <path id="DejaVuSans-76" d="M 191 3500 
L 800 3500 
L 1894 563 
L 2988 3500 
L 3597 3500 
L 2284 0 
L 1503 0 
L 191 3500 
z
" transform="scale(0.015625)"/>
     </defs>
     <use xlink:href="#DejaVuSans-65"/>
     <use xlink:href="#DejaVuSans-70" x="61.523438"/>
     <use xlink:href="#DejaVuSans-69" x="125"/>
     <use xlink:href="#DejaVuSans-73" x="152.783203"/>
     <use xlink:href="#DejaVuSans-6f" x="204.882812"/>
     <use xlink:href="#DejaVuSans-64" x="266.064453"/>
     <use xlink:href="#DejaVuSans-65" x="329.541016"/>
     <use xlink:href="#DejaVuSans-20" x="391.064453"/>
     <use xlink:href="#DejaVuSans-6c" x="422.851562"/>
     <use xlink:href="#DejaVuSans-65" x="450.634766"/>
     <use xlink:href="#DejaVuSans-61" x="512.158203"/>
     <use xlink:href="#DejaVuSans-72" x="573.4375"/>
     <use xlink:href="#DejaVuSans-6e" x="612.800781"/>
     <use xlink:href="#DejaVuSans-69" x="676.179688"/>
     <use xlink:href="#DejaVuSans-6e" x="703.962891"/>
     <use xlink:href="#DejaVuSans-67" x="767.341797"/>
     <use xlink:href="#DejaVuSans-20" x="830.818359"/>
     <use xlink:href="#DejaVuSans-63" x="862.605469"/>
     <use xlink:href="#DejaVuSans-75" x="917.585938"/>
     <use xlink:href="#DejaVuSans-72" x="980.964844"/>
     <use xlink:href="#DejaVuSans-76" x="1022.078125"/>
     <use xlink:href="#DejaVuSans-65" x="1081.257812"/>
    </g>
   </g>
  </g>
 </g>
 <defs>
  <clipPath id="pcac3abc93e">
   <rect x="57.6" y="41.472" width="357.12" height="266.112"/>
  </clipPath>
 </defs>
</svg>
