<?xml version="1.0" encoding="utf-8" standalone="no"?>
<!DOCTYPE svg PUBLIC "-//W3C//DTD SVG 1.1//EN"
  "http://www.w3.org/Graphics/SVG/1.1/DTD/svg11.dtd">
<svg xmlns:xlink="http://www.w3.org/1999/xlink" width="460.8pt" height="345.6pt" viewBox="0 0 460.8 345.6" xmlns="http://www.w3.org/2000/svg" version="1.1">
 <metadata>
  <rdf:RDF xmlns:dc="http://purl.org/dc/elements/1.1/" xmlns:cc="http://creativecommons.org/ns#" xmlns:rdf="http://www.w3.org/1999/02/22-rdf-syntax-ns#">
   <cc:Work>
    <dc:type rdf:resource="http://purl.org/dc/dcmitype/StillImage"/>
    <dc:date>2023-08-19T13:56:04.926208</dc:date>
    <dc:format>image/svg+xml</dc:format>
    <dc:creator>
     <cc:Agent>
      <dc:title>Matplotlib v3.7.1, https://matplotlib.org/</dc:title>
     </cc:Agent>
    </dc:creator>
   </cc:Work>
  </rdf:RDF>
 </metadata>
 <defs>
  <style type="text/css">*{stroke-linejoin: round; stroke-linecap: butt}</style>
 </defs>
 <g id="figure_1">
  <g id="patch_1">
   <path d="M 0 345.6 
L 460.8 345.6 
L 460.8 0 
L 0 0 
z
" style="fill: #ffffff"/>
  </g>
  <g id="axes_1">
   <g id="patch_2">
    <path d="M 57.6 307.584 
L 414.72 307.584 
L 414.72 41.472 
L 57.6 41.472 
z
" style="fill: #ffffff"/>
   </g>
   <g id="matplotlib.axis_1">
    <g id="xtick_1">
     <g id="line2d_1">
      <defs>
       <path id="m2f28238c2e" d="M 0 0 
L 0 3.5 
" style="stroke: #000000; stroke-width: 0.8"/>
      </defs>
      <g>
       <use xlink:href="#m2f28238c2e" x="67.048346" y="307.584" style="stroke: #000000; stroke-width: 0.8"/>
      </g>
     </g>
     <g id="text_1">
      <!-- 0 -->
      <g transform="translate(63.867096 322.182437) scale(0.1 -0.1)">
       <defs>
        <path id="DejaVuSans-30" d="M 2034 4250 
Q 1547 4250 1301 3770 
Q 1056 3291 1056 2328 
Q 1056 1369 1301 889 
Q 1547 409 2034 409 
Q 2525 409 2770 889 
Q 3016 1369 3016 2328 
Q 3016 3291 2770 3770 
Q 2525 4250 2034 4250 
z
M 2034 4750 
Q 2819 4750 3233 4129 
Q 3647 3509 3647 2328 
Q 3647 1150 3233 529 
Q 2819 -91 2034 -91 
Q 1250 -91 836 529 
Q 422 1150 422 2328 
Q 422 3509 836 4129 
Q 1250 4750 2034 4750 
z
" transform="scale(0.015625)"/>
       </defs>
       <use xlink:href="#DejaVuSans-30"/>
      </g>
     </g>
    </g>
    <g id="xtick_2">
     <g id="line2d_2">
      <g>
       <use xlink:href="#m2f28238c2e" x="133.431723" y="307.584" style="stroke: #000000; stroke-width: 0.8"/>
      </g>
     </g>
     <g id="text_2">
      <!-- 100000 -->
      <g transform="translate(114.344223 322.182437) scale(0.1 -0.1)">
       <defs>
        <path id="DejaVuSans-31" d="M 794 531 
L 1825 531 
L 1825 4091 
L 703 3866 
L 703 4441 
L 1819 4666 
L 2450 4666 
L 2450 531 
L 3481 531 
L 3481 0 
L 794 0 
L 794 531 
z
" transform="scale(0.015625)"/>
       </defs>
       <use xlink:href="#DejaVuSans-31"/>
       <use xlink:href="#DejaVuSans-30" x="63.623047"/>
       <use xlink:href="#DejaVuSans-30" x="127.246094"/>
       <use xlink:href="#DejaVuSans-30" x="190.869141"/>
       <use xlink:href="#DejaVuSans-30" x="254.492188"/>
       <use xlink:href="#DejaVuSans-30" x="318.115234"/>
      </g>
     </g>
    </g>
    <g id="xtick_3">
     <g id="line2d_3">
      <g>
       <use xlink:href="#m2f28238c2e" x="199.815101" y="307.584" style="stroke: #000000; stroke-width: 0.8"/>
      </g>
     </g>
     <g id="text_3">
      <!-- 200000 -->
      <g transform="translate(180.727601 322.182437) scale(0.1 -0.1)">
       <defs>
        <path id="DejaVuSans-32" d="M 1228 531 
L 3431 531 
L 3431 0 
L 469 0 
L 469 531 
Q 828 903 1448 1529 
Q 2069 2156 2228 2338 
Q 2531 2678 2651 2914 
Q 2772 3150 2772 3378 
Q 2772 3750 2511 3984 
Q 2250 4219 1831 4219 
Q 1534 4219 1204 4116 
Q 875 4013 500 3803 
L 500 4441 
Q 881 4594 1212 4672 
Q 1544 4750 1819 4750 
Q 2544 4750 2975 4387 
Q 3406 4025 3406 3419 
Q 3406 3131 3298 2873 
Q 3191 2616 2906 2266 
Q 2828 2175 2409 1742 
Q 1991 1309 1228 531 
z
" transform="scale(0.015625)"/>
       </defs>
       <use xlink:href="#DejaVuSans-32"/>
       <use xlink:href="#DejaVuSans-30" x="63.623047"/>
       <use xlink:href="#DejaVuSans-30" x="127.246094"/>
       <use xlink:href="#DejaVuSans-30" x="190.869141"/>
       <use xlink:href="#DejaVuSans-30" x="254.492188"/>
       <use xlink:href="#DejaVuSans-30" x="318.115234"/>
      </g>
     </g>
    </g>
    <g id="xtick_4">
     <g id="line2d_4">
      <g>
       <use xlink:href="#m2f28238c2e" x="266.198478" y="307.584" style="stroke: #000000; stroke-width: 0.8"/>
      </g>
     </g>
     <g id="text_4">
      <!-- 300000 -->
      <g transform="translate(247.110978 322.182437) scale(0.1 -0.1)">
       <defs>
        <path id="DejaVuSans-33" d="M 2597 2516 
Q 3050 2419 3304 2112 
Q 3559 1806 3559 1356 
Q 3559 666 3084 287 
Q 2609 -91 1734 -91 
Q 1441 -91 1130 -33 
Q 819 25 488 141 
L 488 750 
Q 750 597 1062 519 
Q 1375 441 1716 441 
Q 2309 441 2620 675 
Q 2931 909 2931 1356 
Q 2931 1769 2642 2001 
Q 2353 2234 1838 2234 
L 1294 2234 
L 1294 2753 
L 1863 2753 
Q 2328 2753 2575 2939 
Q 2822 3125 2822 3475 
Q 2822 3834 2567 4026 
Q 2313 4219 1838 4219 
Q 1578 4219 1281 4162 
Q 984 4106 628 3988 
L 628 4550 
Q 988 4650 1302 4700 
Q 1616 4750 1894 4750 
Q 2613 4750 3031 4423 
Q 3450 4097 3450 3541 
Q 3450 3153 3228 2886 
Q 3006 2619 2597 2516 
z
" transform="scale(0.015625)"/>
       </defs>
       <use xlink:href="#DejaVuSans-33"/>
       <use xlink:href="#DejaVuSans-30" x="63.623047"/>
       <use xlink:href="#DejaVuSans-30" x="127.246094"/>
       <use xlink:href="#DejaVuSans-30" x="190.869141"/>
       <use xlink:href="#DejaVuSans-30" x="254.492188"/>
       <use xlink:href="#DejaVuSans-30" x="318.115234"/>
      </g>
     </g>
    </g>
    <g id="xtick_5">
     <g id="line2d_5">
      <g>
       <use xlink:href="#m2f28238c2e" x="332.581856" y="307.584" style="stroke: #000000; stroke-width: 0.8"/>
      </g>
     </g>
     <g id="text_5">
      <!-- 400000 -->
      <g transform="translate(313.494356 322.182437) scale(0.1 -0.1)">
       <defs>
        <path id="DejaVuSans-34" d="M 2419 4116 
L 825 1625 
L 2419 1625 
L 2419 4116 
z
M 2253 4666 
L 3047 4666 
L 3047 1625 
L 3713 1625 
L 3713 1100 
L 3047 1100 
L 3047 0 
L 2419 0 
L 2419 1100 
L 313 1100 
L 313 1709 
L 2253 4666 
z
" transform="scale(0.015625)"/>
       </defs>
       <use xlink:href="#DejaVuSans-34"/>
       <use xlink:href="#DejaVuSans-30" x="63.623047"/>
       <use xlink:href="#DejaVuSans-30" x="127.246094"/>
       <use xlink:href="#DejaVuSans-30" x="190.869141"/>
       <use xlink:href="#DejaVuSans-30" x="254.492188"/>
       <use xlink:href="#DejaVuSans-30" x="318.115234"/>
      </g>
     </g>
    </g>
    <g id="xtick_6">
     <g id="line2d_6">
      <g>
       <use xlink:href="#m2f28238c2e" x="398.965233" y="307.584" style="stroke: #000000; stroke-width: 0.8"/>
      </g>
     </g>
     <g id="text_6">
      <!-- 500000 -->
      <g transform="translate(379.877733 322.182437) scale(0.1 -0.1)">
       <defs>
        <path id="DejaVuSans-35" d="M 691 4666 
L 3169 4666 
L 3169 4134 
L 1269 4134 
L 1269 2991 
Q 1406 3038 1543 3061 
Q 1681 3084 1819 3084 
Q 2600 3084 3056 2656 
Q 3513 2228 3513 1497 
Q 3513 744 3044 326 
Q 2575 -91 1722 -91 
Q 1428 -91 1123 -41 
Q 819 9 494 109 
L 494 744 
Q 775 591 1075 516 
Q 1375 441 1709 441 
Q 2250 441 2565 725 
Q 2881 1009 2881 1497 
Q 2881 1984 2565 2268 
Q 2250 2553 1709 2553 
Q 1456 2553 1204 2497 
Q 953 2441 691 2322 
L 691 4666 
z
" transform="scale(0.015625)"/>
       </defs>
       <use xlink:href="#DejaVuSans-35"/>
       <use xlink:href="#DejaVuSans-30" x="63.623047"/>
       <use xlink:href="#DejaVuSans-30" x="127.246094"/>
       <use xlink:href="#DejaVuSans-30" x="190.869141"/>
       <use xlink:href="#DejaVuSans-30" x="254.492188"/>
       <use xlink:href="#DejaVuSans-30" x="318.115234"/>
      </g>
     </g>
    </g>
    <g id="text_7">
     <!-- timesteps -->
     <g transform="translate(211.443594 335.860562) scale(0.1 -0.1)">
      <defs>
       <path id="DejaVuSans-74" d="M 1172 4494 
L 1172 3500 
L 2356 3500 
L 2356 3053 
L 1172 3053 
L 1172 1153 
Q 1172 725 1289 603 
Q 1406 481 1766 481 
L 2356 481 
L 2356 0 
L 1766 0 
Q 1100 0 847 248 
Q 594 497 594 1153 
L 594 3053 
L 172 3053 
L 172 3500 
L 594 3500 
L 594 4494 
L 1172 4494 
z
" transform="scale(0.015625)"/>
       <path id="DejaVuSans-69" d="M 603 3500 
L 1178 3500 
L 1178 0 
L 603 0 
L 603 3500 
z
M 603 4863 
L 1178 4863 
L 1178 4134 
L 603 4134 
L 603 4863 
z
" transform="scale(0.015625)"/>
       <path id="DejaVuSans-6d" d="M 3328 2828 
Q 3544 3216 3844 3400 
Q 4144 3584 4550 3584 
Q 5097 3584 5394 3201 
Q 5691 2819 5691 2113 
L 5691 0 
L 5113 0 
L 5113 2094 
Q 5113 2597 4934 2840 
Q 4756 3084 4391 3084 
Q 3944 3084 3684 2787 
Q 3425 2491 3425 1978 
L 3425 0 
L 2847 0 
L 2847 2094 
Q 2847 2600 2669 2842 
Q 2491 3084 2119 3084 
Q 1678 3084 1418 2786 
Q 1159 2488 1159 1978 
L 1159 0 
L 581 0 
L 581 3500 
L 1159 3500 
L 1159 2956 
Q 1356 3278 1631 3431 
Q 1906 3584 2284 3584 
Q 2666 3584 2933 3390 
Q 3200 3197 3328 2828 
z
" transform="scale(0.015625)"/>
       <path id="DejaVuSans-65" d="M 3597 1894 
L 3597 1613 
L 953 1613 
Q 991 1019 1311 708 
Q 1631 397 2203 397 
Q 2534 397 2845 478 
Q 3156 559 3463 722 
L 3463 178 
Q 3153 47 2828 -22 
Q 2503 -91 2169 -91 
Q 1331 -91 842 396 
Q 353 884 353 1716 
Q 353 2575 817 3079 
Q 1281 3584 2069 3584 
Q 2775 3584 3186 3129 
Q 3597 2675 3597 1894 
z
M 3022 2063 
Q 3016 2534 2758 2815 
Q 2500 3097 2075 3097 
Q 1594 3097 1305 2825 
Q 1016 2553 972 2059 
L 3022 2063 
z
" transform="scale(0.015625)"/>
       <path id="DejaVuSans-73" d="M 2834 3397 
L 2834 2853 
Q 2591 2978 2328 3040 
Q 2066 3103 1784 3103 
Q 1356 3103 1142 2972 
Q 928 2841 928 2578 
Q 928 2378 1081 2264 
Q 1234 2150 1697 2047 
L 1894 2003 
Q 2506 1872 2764 1633 
Q 3022 1394 3022 966 
Q 3022 478 2636 193 
Q 2250 -91 1575 -91 
Q 1294 -91 989 -36 
Q 684 19 347 128 
L 347 722 
Q 666 556 975 473 
Q 1284 391 1588 391 
Q 1994 391 2212 530 
Q 2431 669 2431 922 
Q 2431 1156 2273 1281 
Q 2116 1406 1581 1522 
L 1381 1569 
Q 847 1681 609 1914 
Q 372 2147 372 2553 
Q 372 3047 722 3315 
Q 1072 3584 1716 3584 
Q 2034 3584 2315 3537 
Q 2597 3491 2834 3397 
z
" transform="scale(0.015625)"/>
       <path id="DejaVuSans-70" d="M 1159 525 
L 1159 -1331 
L 581 -1331 
L 581 3500 
L 1159 3500 
L 1159 2969 
Q 1341 3281 1617 3432 
Q 1894 3584 2278 3584 
Q 2916 3584 3314 3078 
Q 3713 2572 3713 1747 
Q 3713 922 3314 415 
Q 2916 -91 2278 -91 
Q 1894 -91 1617 61 
Q 1341 213 1159 525 
z
M 3116 1747 
Q 3116 2381 2855 2742 
Q 2594 3103 2138 3103 
Q 1681 3103 1420 2742 
Q 1159 2381 1159 1747 
Q 1159 1113 1420 752 
Q 1681 391 2138 391 
Q 2594 391 2855 752 
Q 3116 1113 3116 1747 
z
" transform="scale(0.015625)"/>
      </defs>
      <use xlink:href="#DejaVuSans-74"/>
      <use xlink:href="#DejaVuSans-69" x="39.208984"/>
      <use xlink:href="#DejaVuSans-6d" x="66.992188"/>
      <use xlink:href="#DejaVuSans-65" x="164.404297"/>
      <use xlink:href="#DejaVuSans-73" x="225.927734"/>
      <use xlink:href="#DejaVuSans-74" x="278.027344"/>
      <use xlink:href="#DejaVuSans-65" x="317.236328"/>
      <use xlink:href="#DejaVuSans-70" x="378.759766"/>
      <use xlink:href="#DejaVuSans-73" x="442.236328"/>
     </g>
    </g>
   </g>
   <g id="matplotlib.axis_2">
    <g id="ytick_1">
     <g id="line2d_7">
      <defs>
       <path id="ma0a9260226" d="M 0 0 
L -3.5 0 
" style="stroke: #000000; stroke-width: 0.8"/>
      </defs>
      <g>
       <use xlink:href="#ma0a9260226" x="57.6" y="281.987467" style="stroke: #000000; stroke-width: 0.8"/>
      </g>
     </g>
     <g id="text_8">
      <!-- −150 -->
      <g transform="translate(23.132812 285.786686) scale(0.1 -0.1)">
       <defs>
        <path id="DejaVuSans-2212" d="M 678 2272 
L 4684 2272 
L 4684 1741 
L 678 1741 
L 678 2272 
z
" transform="scale(0.015625)"/>
       </defs>
       <use xlink:href="#DejaVuSans-2212"/>
       <use xlink:href="#DejaVuSans-31" x="83.789062"/>
       <use xlink:href="#DejaVuSans-35" x="147.412109"/>
       <use xlink:href="#DejaVuSans-30" x="211.035156"/>
      </g>
     </g>
    </g>
    <g id="ytick_2">
     <g id="line2d_8">
      <g>
       <use xlink:href="#ma0a9260226" x="57.6" y="243.639012" style="stroke: #000000; stroke-width: 0.8"/>
      </g>
     </g>
     <g id="text_9">
      <!-- −100 -->
      <g transform="translate(23.132812 247.438231) scale(0.1 -0.1)">
       <use xlink:href="#DejaVuSans-2212"/>
       <use xlink:href="#DejaVuSans-31" x="83.789062"/>
       <use xlink:href="#DejaVuSans-30" x="147.412109"/>
       <use xlink:href="#DejaVuSans-30" x="211.035156"/>
      </g>
     </g>
    </g>
    <g id="ytick_3">
     <g id="line2d_9">
      <g>
       <use xlink:href="#ma0a9260226" x="57.6" y="205.290557" style="stroke: #000000; stroke-width: 0.8"/>
      </g>
     </g>
     <g id="text_10">
      <!-- −50 -->
      <g transform="translate(29.495313 209.089776) scale(0.1 -0.1)">
       <use xlink:href="#DejaVuSans-2212"/>
       <use xlink:href="#DejaVuSans-35" x="83.789062"/>
       <use xlink:href="#DejaVuSans-30" x="147.412109"/>
      </g>
     </g>
    </g>
    <g id="ytick_4">
     <g id="line2d_10">
      <g>
       <use xlink:href="#ma0a9260226" x="57.6" y="166.942103" style="stroke: #000000; stroke-width: 0.8"/>
      </g>
     </g>
     <g id="text_11">
      <!-- 0 -->
      <g transform="translate(44.2375 170.741321) scale(0.1 -0.1)">
       <use xlink:href="#DejaVuSans-30"/>
      </g>
     </g>
    </g>
    <g id="ytick_5">
     <g id="line2d_11">
      <g>
       <use xlink:href="#ma0a9260226" x="57.6" y="128.593648" style="stroke: #000000; stroke-width: 0.8"/>
      </g>
     </g>
     <g id="text_12">
      <!-- 50 -->
      <g transform="translate(37.875 132.392867) scale(0.1 -0.1)">
       <use xlink:href="#DejaVuSans-35"/>
       <use xlink:href="#DejaVuSans-30" x="63.623047"/>
      </g>
     </g>
    </g>
    <g id="ytick_6">
     <g id="line2d_12">
      <g>
       <use xlink:href="#ma0a9260226" x="57.6" y="90.245193" style="stroke: #000000; stroke-width: 0.8"/>
      </g>
     </g>
     <g id="text_13">
      <!-- 100 -->
      <g transform="translate(31.5125 94.044412) scale(0.1 -0.1)">
       <use xlink:href="#DejaVuSans-31"/>
       <use xlink:href="#DejaVuSans-30" x="63.623047"/>
       <use xlink:href="#DejaVuSans-30" x="127.246094"/>
      </g>
     </g>
    </g>
    <g id="ytick_7">
     <g id="line2d_13">
      <g>
       <use xlink:href="#ma0a9260226" x="57.6" y="51.896739" style="stroke: #000000; stroke-width: 0.8"/>
      </g>
     </g>
     <g id="text_14">
      <!-- 150 -->
      <g transform="translate(31.5125 55.695957) scale(0.1 -0.1)">
       <use xlink:href="#DejaVuSans-31"/>
       <use xlink:href="#DejaVuSans-35" x="63.623047"/>
       <use xlink:href="#DejaVuSans-30" x="127.246094"/>
      </g>
     </g>
    </g>
    <g id="text_15">
     <!-- SAC losses -->
     <g transform="translate(17.053125 201.548313) rotate(-90) scale(0.1 -0.1)">
      <defs>
       <path id="DejaVuSans-53" d="M 3425 4513 
L 3425 3897 
Q 3066 4069 2747 4153 
Q 2428 4238 2131 4238 
Q 1616 4238 1336 4038 
Q 1056 3838 1056 3469 
Q 1056 3159 1242 3001 
Q 1428 2844 1947 2747 
L 2328 2669 
Q 3034 2534 3370 2195 
Q 3706 1856 3706 1288 
Q 3706 609 3251 259 
Q 2797 -91 1919 -91 
Q 1588 -91 1214 -16 
Q 841 59 441 206 
L 441 856 
Q 825 641 1194 531 
Q 1563 422 1919 422 
Q 2459 422 2753 634 
Q 3047 847 3047 1241 
Q 3047 1584 2836 1778 
Q 2625 1972 2144 2069 
L 1759 2144 
Q 1053 2284 737 2584 
Q 422 2884 422 3419 
Q 422 4038 858 4394 
Q 1294 4750 2059 4750 
Q 2388 4750 2728 4690 
Q 3069 4631 3425 4513 
z
" transform="scale(0.015625)"/>
       <path id="DejaVuSans-41" d="M 2188 4044 
L 1331 1722 
L 3047 1722 
L 2188 4044 
z
M 1831 4666 
L 2547 4666 
L 4325 0 
L 3669 0 
L 3244 1197 
L 1141 1197 
L 716 0 
L 50 0 
L 1831 4666 
z
" transform="scale(0.015625)"/>
       <path id="DejaVuSans-43" d="M 4122 4306 
L 4122 3641 
Q 3803 3938 3442 4084 
Q 3081 4231 2675 4231 
Q 1875 4231 1450 3742 
Q 1025 3253 1025 2328 
Q 1025 1406 1450 917 
Q 1875 428 2675 428 
Q 3081 428 3442 575 
Q 3803 722 4122 1019 
L 4122 359 
Q 3791 134 3420 21 
Q 3050 -91 2638 -91 
Q 1578 -91 968 557 
Q 359 1206 359 2328 
Q 359 3453 968 4101 
Q 1578 4750 2638 4750 
Q 3056 4750 3426 4639 
Q 3797 4528 4122 4306 
z
" transform="scale(0.015625)"/>
       <path id="DejaVuSans-20" transform="scale(0.015625)"/>
       <path id="DejaVuSans-6c" d="M 603 4863 
L 1178 4863 
L 1178 0 
L 603 0 
L 603 4863 
z
" transform="scale(0.015625)"/>
       <path id="DejaVuSans-6f" d="M 1959 3097 
Q 1497 3097 1228 2736 
Q 959 2375 959 1747 
Q 959 1119 1226 758 
Q 1494 397 1959 397 
Q 2419 397 2687 759 
Q 2956 1122 2956 1747 
Q 2956 2369 2687 2733 
Q 2419 3097 1959 3097 
z
M 1959 3584 
Q 2709 3584 3137 3096 
Q 3566 2609 3566 1747 
Q 3566 888 3137 398 
Q 2709 -91 1959 -91 
Q 1206 -91 779 398 
Q 353 888 353 1747 
Q 353 2609 779 3096 
Q 1206 3584 1959 3584 
z
" transform="scale(0.015625)"/>
      </defs>
      <use xlink:href="#DejaVuSans-53"/>
      <use xlink:href="#DejaVuSans-41" x="65.351562"/>
      <use xlink:href="#DejaVuSans-43" x="132.009766"/>
      <use xlink:href="#DejaVuSans-20" x="201.833984"/>
      <use xlink:href="#DejaVuSans-6c" x="233.621094"/>
      <use xlink:href="#DejaVuSans-6f" x="261.404297"/>
      <use xlink:href="#DejaVuSans-73" x="322.585938"/>
      <use xlink:href="#DejaVuSans-73" x="374.685547"/>
      <use xlink:href="#DejaVuSans-65" x="426.785156"/>
      <use xlink:href="#DejaVuSans-73" x="488.308594"/>
     </g>
    </g>
   </g>
   <g id="line2d_14">
    <path d="M 73.832727 168.948608 
L 74.204474 170.276966 
L 75.027628 170.890608 
L 75.571972 171.195225 
L 77.41743 172.091103 
L 77.629856 172.30176 
L 77.908667 172.335651 
L 78.21403 172.62055 
L 78.41318 172.69814 
L 78.559224 172.620924 
L 78.784927 172.936185 
L 79.395654 173.306794 
L 79.608081 173.508657 
L 80.178978 173.515342 
L 80.431235 173.970156 
L 80.683492 173.876961 
L 81.280942 174.266832 
L 81.812009 174.708079 
L 82.117373 174.639558 
L 82.56878 174.786517 
L 82.821037 175.179196 
L 83.099847 175.283758 
L 83.5247 175.843258 
L 83.976107 175.673953 
L 84.268194 176.053844 
L 84.732878 176.390921 
L 85.303775 176.504816 
L 85.675522 176.711959 
L 85.980885 177.138664 
L 86.591612 176.984695 
L 87.043019 177.958727 
L 87.826343 178.135773 
L 88.63622 179.108803 
L 89.220394 179.133344 
L 89.645248 179.580929 
L 89.924058 179.470876 
L 90.840149 180.537948 
L 91.995219 180.675987 
L 92.459903 181.448927 
L 93.58842 182.180736 
L 93.946891 182.23827 
L 94.411574 182.903801 
L 94.982471 182.925149 
L 96.190649 184.538374 
L 97.013803 184.655673 
L 97.38555 185.369274 
L 98.208703 185.522807 
L 100.001055 186.468693 
L 100.864039 187.636565 
L 101.249062 187.507483 
L 102.178429 187.952528 
L 102.603283 188.613348 
L 103.37333 189.464406 
L 103.944227 189.870273 
L 104.674444 189.594899 
L 105.949005 190.955394 
L 106.466796 191.867223 
L 107.236843 191.975148 
L 107.621866 192.46985 
L 108.391914 192.766416 
L 108.883151 192.736529 
L 109.626644 193.057057 
L 110.144435 193.835753 
L 110.887929 194.089796 
L 111.326059 194.832335 
L 113.330837 196.414388 
L 113.75569 196.385402 
L 114.499184 196.843768 
L 114.910761 196.32725 
L 115.640978 198.19504 
L 116.132215 198.029015 
L 116.862432 197.984637 
L 117.274009 198.952389 
L 118.044057 198.899462 
L 118.42908 199.522666 
L 119.212404 200.09604 
L 120.314368 200.332924 
L 120.779052 201.421548 
L 121.469439 202.120133 
L 121.934123 202.076528 
L 123.075917 201.402118 
L 123.806134 203.09819 
L 124.310647 203.589365 
L 124.934651 203.09276 
L 125.439165 204.175871 
L 126.116275 204.662371 
L 126.620789 204.024525 
L 127.271346 204.704663 
L 127.81569 205.589976 
L 128.479524 205.366024 
L 129.037144 205.982967 
L 129.634594 205.842636 
L 130.205491 206.633397 
L 130.869325 206.913257 
L 131.360562 206.269644 
L 132.143886 206.484125 
L 132.582016 208.304088 
L 133.352063 207.8838 
L 133.776917 208.834179 
L 134.573518 208.568415 
L 134.958541 209.218278 
L 135.834802 209.231906 
L 136.272932 210.201188 
L 137.109363 210.000502 
L 138.450307 210.75889 
L 138.848607 211.567235 
L 139.804528 212.093932 
L 140.202828 211.129709 
L 141.118919 212.8936 
L 141.649986 212.826038 
L 142.459863 213.985614 
L 143.136973 213.570078 
L 143.933574 213.270899 
L 144.584131 215.057108 
L 145.460391 215.404202 
L 146.124225 215.09344 
L 146.934102 215.208913 
L 147.690873 216.131527 
L 148.673347 216.81668 
L 149.456671 216.531565 
L 150.239995 216.717503 
L 151.089702 218.836176 
L 151.886302 217.347956 
L 152.908606 219.658776 
L 153.53261 219.75199 
L 154.700958 219.719444 
L 155.218748 220.42454 
L 156.267605 220.983084 
L 157.037652 220.772541 
L 157.96702 222.549182 
L 158.896387 222.617826 
L 159.799201 223.843074 
L 160.675462 223.400828 
L 161.418955 224.002779 
L 162.388153 223.657183 
L 163.051986 226.01241 
L 165.056764 225.457505 
L 165.866642 225.618059 
L 166.742902 225.49114 
L 167.605886 227.562463 
L 168.46887 226.525663 
L 169.238917 227.882476 
L 170.208115 228.576641 
L 170.938332 228.721413 
L 171.947359 228.086606 
L 172.717406 229.295288 
L 173.713157 231.419363 
L 174.496481 230.349016 
L 175.624998 230.813696 
L 176.302109 232.062841 
L 177.258029 232.572116 
L 178.17412 233.236836 
L 178.944167 231.419714 
L 179.953194 233.868957 
L 180.709965 231.46346 
L 181.692439 233.32847 
L 182.449209 233.555199 
L 183.551173 235.283436 
L 184.215007 235.895662 
L 185.210758 236.069914 
L 185.927698 236.343847 
L 186.950002 236.366879 
L 187.547453 236.909109 
L 188.583033 234.504987 
L 189.246867 235.717039 
L 190.309001 238.641039 
L 191.968586 238.088317 
L 192.685526 238.288637 
L 193.641447 240.65342 
L 194.411494 238.037186 
L 195.340861 241.378223 
L 196.150738 241.16665 
L 196.947339 240.544956 
L 197.876706 241.342142 
L 198.633477 241.380318 
L 199.669057 239.576952 
L 200.412551 241.838783 
L 201.474685 243.404062 
L 202.098689 242.799315 
L 203.267037 243.086992 
L 203.944147 240.934339 
L 204.979728 243.854406 
L 205.749775 242.241923 
L 206.758802 245.4402 
L 207.581956 245.206708 
L 209.00256 243.184104 
L 209.307924 246.564849 
L 210.635591 245.816651 
L 211.033892 246.694144 
L 212.481049 245.952278 
L 212.680199 246.009529 
L 214.180464 247.567891 
L 214.525657 249.29583 
L 215.866602 249.764179 
L 216.304732 250.947466 
L 217.486356 249.356967 
L 217.95104 248.249265 
L 219.291984 248.526825 
L 219.610624 248.983658 
L 221.084335 249.160555 
L 221.243655 249.30098 
L 222.677536 248.051454 
L 222.86341 250.113479 
L 224.270737 249.947618 
L 224.748697 251.571822 
L 225.956875 252.084958 
L 226.448112 251.986741 
L 227.576629 252.067931 
L 228.13425 252.672672 
L 229.236214 256.603828 
L 229.820387 251.277491 
L 230.842691 252.376457 
L 231.533079 252.392473 
L 232.608489 251.813782 
L 233.08645 253.393871 
L 234.214967 252.994956 
L 234.706204 249.866692 
L 235.927658 251.979479 
L 236.472002 255.957505 
L 237.534136 253.032072 
L 238.091756 254.724908 
L 239.220274 254.996266 
L 239.738064 253.07683 
L 240.853305 257.565594 
L 241.410925 255.725072 
L 242.499613 257.579275 
L 243.15017 254.247144 
L 244.18575 257.065647 
L 245.858611 257.639697 
L 246.363125 257.068648 
L 247.571303 254.142689 
L 247.969603 256.248512 
L 249.244164 261.628356 
L 249.695571 260.667608 
L 250.930301 259.797184 
L 251.381708 262.37942 
L 252.642993 259.770191 
L 253.120953 258.099064 
L 254.36896 262.766182 
L 254.820367 261.864265 
L 256.134758 260.240881 
L 256.625995 261.813971 
L 258.32541 261.128619 
L 259.453927 260.804867 
L 260.024824 262.761383 
L 261.126788 265.21491 
L 261.657855 266.769726 
L 262.759819 264.704202 
L 263.304163 262.392943 
L 264.419404 269.393403 
L 264.990301 264.162574 
L 266.025881 265.641052 
L 266.663162 264.290003 
L 268.282916 265.488128 
L 269.252114 265.207034 
L 269.969054 266.464465 
L 270.924975 268.588656 
L 271.668469 269.220128 
L 272.637666 261.814703 
L 273.354606 269.35703 
L 274.310527 268.658336 
L 275.014191 267.434645 
L 275.930281 267.92877 
L 276.633945 271.676837 
L 277.550036 265.754852 
L 278.29353 270.086268 
L 279.236174 265.870606 
L 280.006221 271.739835 
L 280.935588 271.329784 
L 281.718912 271.349445 
L 282.635003 269.480965 
L 283.458156 267.251727 
L 284.374247 270.268238 
L 285.131017 269.594203 
L 286.060385 269.978811 
L 286.870262 275.125015 
L 287.773076 270.87545 
L 288.63606 271.410769 
L 289.565427 269.273213 
L 290.348751 273.331094 
L 291.317948 272.968909 
L 292.101272 268.252733 
L 293.043916 269.822669 
L 293.933453 272.476516 
L 294.862821 273.366824 
L 295.685975 274.803954 
L 298.447523 272.816922 
L 299.33706 273.664326 
L 300.253151 277.78517 
L 301.129411 275.824493 
L 302.072055 275.045926 
L 302.908486 275.225778 
L 303.837853 278.363124 
L 304.740667 279.097231 
L 305.218627 275.54554 
L 306.267485 275.303966 
L 306.971149 274.704947 
L 308.046559 275.913822 
L 308.869713 277.265649 
L 309.931847 272.407375 
L 310.728448 279.379308 
L 311.790582 280.27157 
L 312.573906 280.606979 
L 313.662593 276.82798 
L 314.379534 278.034573 
L 315.494774 280.337996 
L 316.251545 279.303496 
L 317.353509 283.154468 
L 318.136833 277.817763 
L 319.252073 283.503534 
L 319.982291 280.057311 
L 321.163915 278.578623 
L 321.894132 283.018737 
L 323.009373 282.450672 
L 323.73959 278.697256 
L 324.947767 281.542378 
L 325.704538 279.259282 
L 326.872885 282.622519 
L 327.563272 278.859016 
L 328.73162 280.660555 
L 329.52822 279.576867 
L 330.696568 283.740427 
L 331.413508 277.983852 
L 332.581856 280.490042 
L 333.351903 275.816979 
L 334.493697 281.574584 
L 335.263744 281.501394 
L 336.365708 282.766572 
L 337.122479 282.504319 
L 338.197889 279.583678 
L 340.096454 282.991001 
L 340.946161 283.366258 
L 342.233999 281.960409 
L 343.243026 285.367182 
L 344.58397 283.924036 
L 345.420401 285.307496 
L 346.641855 281.797574 
L 347.690712 287.669014 
L 348.832506 285.509467 
L 349.761874 281.979626 
L 351.076265 283.078188 
L 351.859588 285.984071 
L 353.041213 282.450239 
L 353.81126 285.710537 
L 355.085821 286.746687 
L 355.855868 280.573204 
L 357.077322 288.716738 
L 357.940306 285.946528 
L 359.307803 288.588473 
L 359.931807 285.821399 
L 361.312581 289.86086 
L 362.122459 284.695744 
L 363.450126 286.448178 
L 364.286557 286.995376 
L 365.441627 289.105665 
L 366.357718 290.167316 
L 367.353469 287.827952 
L 368.389049 287.860955 
L 369.46446 285.86332 
L 370.340721 285.655427 
L 372.438435 292.705396 
L 373.513846 293.954553 
L 374.164403 288.706334 
L 375.399134 287.039216 
L 376.102798 288.635273 
L 377.337529 290.579894 
L 378.041192 287.953842 
L 379.355583 287.764557 
L 379.820267 291.011829 
L 381.386915 289.661839 
L 381.825045 290.8812 
L 383.205819 293.316762 
L 383.88293 295.488 
L 385.316811 286.455797 
L 386.020474 291.173682 
L 387.109162 288.926866 
L 387.865932 292.072275 
L 388.941343 286.947218 
L 389.937094 292.448503 
L 390.853184 287.916345 
L 391.875488 291.483812 
L 392.738472 292.14653 
L 393.840436 292.405378 
L 394.78308 292.353019 
L 395.712448 295.026456 
L 396.601985 294.084153 
L 397.584459 290.68707 
L 398.487273 292.800636 
L 398.487273 292.800636 
" clip-path="url(#p0456299044)" style="fill: none; stroke: #1f77b4; stroke-width: 1.5; stroke-linecap: square"/>
   </g>
   <g id="line2d_15">
    <path d="M 73.832727 162.768733 
L 74.058431 165.183639 
L 74.204474 165.377841 
L 74.310688 166.035334 
L 74.708988 165.98668 
L 74.815201 166.216112 
L 75.027628 166.394288 
L 75.186948 166.168856 
L 75.784399 166.319228 
L 75.917165 166.506288 
L 76.209252 166.372808 
L 76.315466 166.480554 
L 76.527892 166.499797 
L 76.634106 166.367547 
L 76.819979 166.619954 
L 77.019129 166.407341 
L 77.205003 166.397026 
L 77.41743 166.556297 
L 77.629856 166.210408 
L 77.908667 166.250396 
L 78.21403 166.516131 
L 78.41318 166.177259 
L 78.559224 166.314402 
L 78.784927 166.080681 
L 79.183227 166.486429 
L 79.395654 166.273675 
L 79.608081 166.497847 
L 79.886891 166.481133 
L 80.178978 166.110889 
L 80.683492 166.507541 
L 81.546476 165.192297 
L 81.812009 165.904326 
L 82.117373 165.417943 
L 82.821037 165.748826 
L 83.099847 166.288563 
L 83.5247 166.360157 
L 83.976107 165.869722 
L 84.268194 165.072328 
L 84.732878 165.498978 
L 85.303775 165.686011 
L 85.675522 166.50799 
L 85.980885 164.853042 
L 86.591612 165.224017 
L 87.32183 164.115191 
L 87.826343 163.99431 
L 88.291027 165.04666 
L 88.63622 164.249034 
L 89.220394 164.632114 
L 89.645248 165.323983 
L 89.924058 165.39265 
L 90.640998 163.454084 
L 90.840149 163.857812 
L 91.477429 161.602392 
L 91.995219 164.441793 
L 92.459903 163.330082 
L 93.004247 163.64775 
L 93.58842 163.717727 
L 93.946891 160.630627 
L 94.411574 163.449434 
L 94.982471 160.527073 
L 95.526815 164.464436 
L 96.190649 160.158132 
L 97.013803 163.150163 
L 97.38555 156.985787 
L 98.208703 163.428128 
L 98.753047 161.365649 
L 99.523094 155.420543 
L 100.001055 160.882173 
L 100.864039 163.271406 
L 101.249062 161.293958 
L 102.178429 160.215229 
L 102.603283 164.308172 
L 103.37333 161.361364 
L 103.944227 160.620856 
L 104.674444 158.44728 
L 105.218788 164.01203 
L 105.949005 160.686157 
L 106.466796 162.727069 
L 107.621866 158.489739 
L 108.391914 159.251182 
L 108.883151 163.466142 
L 109.626644 161.833402 
L 110.887929 160.33055 
L 111.326059 150.646994 
L 112.534236 163.589958 
L 113.330837 158.953289 
L 113.75569 154.85494 
L 114.499184 152.943423 
L 114.910761 158.609536 
L 115.640978 161.541925 
L 116.132215 163.034533 
L 116.862432 155.551308 
L 117.274009 162.995421 
L 118.044057 158.583429 
L 118.42908 162.912247 
L 119.212404 146.128312 
L 119.610704 153.436357 
L 120.779052 159.632934 
L 121.469439 165.621951 
L 121.934123 162.90135 
L 122.611233 155.65574 
L 123.075917 137.275872 
L 123.806134 155.589463 
L 124.310647 161.739386 
L 124.934651 164.069155 
L 125.439165 152.608923 
L 126.116275 155.153342 
L 126.620789 155.254079 
L 127.271346 153.901577 
L 127.81569 163.691682 
L 128.479524 163.232887 
L 129.037144 149.760739 
L 129.634594 157.300694 
L 130.205491 161.84446 
L 130.869325 157.611804 
L 131.360562 152.992912 
L 132.143886 157.505863 
L 132.582016 151.595526 
L 133.352063 162.735115 
L 133.776917 153.119602 
L 134.573518 161.459814 
L 134.958541 161.495974 
L 135.834802 155.101659 
L 136.272932 160.59459 
L 137.109363 147.007634 
L 137.587323 144.489166 
L 138.450307 162.333453 
L 138.848607 164.072804 
L 139.804528 161.523991 
L 140.202828 148.537659 
L 141.649986 159.553898 
L 142.459863 163.9051 
L 143.136973 163.629449 
L 143.933574 151.929909 
L 144.584131 154.323132 
L 145.460391 152.883931 
L 146.124225 146.752391 
L 146.934102 148.333936 
L 147.690873 158.500156 
L 148.673347 158.843342 
L 149.456671 155.648175 
L 150.239995 163.30578 
L 151.089702 152.525928 
L 151.886302 161.794882 
L 152.908606 154.92644 
L 153.53261 162.533375 
L 154.700958 134.734257 
L 155.218748 161.711377 
L 156.267605 156.301284 
L 157.037652 148.734015 
L 157.96702 159.610553 
L 158.896387 146.903998 
L 159.799201 149.123026 
L 160.675462 136.725512 
L 161.418955 157.847079 
L 162.388153 156.272638 
L 163.051986 163.758638 
L 164.193781 160.640067 
L 165.056764 154.660427 
L 166.742902 163.05782 
L 167.605886 158.080757 
L 168.46887 139.683216 
L 169.238917 161.56694 
L 170.208115 154.226864 
L 170.938332 154.060963 
L 171.947359 155.545782 
L 172.717406 162.853374 
L 173.713157 145.449317 
L 174.496481 158.160767 
L 175.624998 155.146579 
L 176.302109 155.719417 
L 177.258029 154.79695 
L 178.17412 161.780978 
L 178.944167 131.452643 
L 179.953194 160.550684 
L 181.692439 149.742007 
L 182.449209 122.961125 
L 183.551173 141.453306 
L 184.215007 123.275243 
L 185.210758 159.203504 
L 185.927698 126.495291 
L 186.950002 153.347306 
L 187.547453 139.185363 
L 189.246867 161.932034 
L 190.309001 115.206968 
L 190.959558 151.075472 
L 191.968586 132.624408 
L 192.685526 154.244658 
L 193.641447 160.888125 
L 194.411494 131.427142 
L 196.150738 159.221698 
L 196.947339 163.221513 
L 197.876706 128.664539 
L 198.633477 162.528599 
L 199.669057 131.392036 
L 200.412551 135.977659 
L 201.474685 162.083824 
L 202.098689 154.352846 
L 203.267037 160.656373 
L 203.944147 156.68429 
L 204.979728 154.673298 
L 205.749775 160.771184 
L 206.758802 158.652889 
L 207.581956 124.5137 
L 209.00256 148.382913 
L 209.307924 145.133763 
L 210.635591 160.8135 
L 211.033892 159.895953 
L 212.481049 159.998385 
L 212.680199 133.036108 
L 214.180464 157.870085 
L 214.525657 151.24177 
L 215.866602 160.422372 
L 216.304732 145.677605 
L 217.486356 159.849235 
L 217.95104 150.728773 
L 219.291984 157.825289 
L 219.610624 153.322333 
L 221.084335 81.450474 
L 221.243655 146.441847 
L 222.677536 162.3871 
L 222.86341 160.383722 
L 224.270737 157.193938 
L 224.748697 161.028287 
L 225.956875 160.520356 
L 226.448112 159.325288 
L 227.576629 152.417295 
L 228.13425 159.30256 
L 229.236214 161.64916 
L 229.820387 138.976617 
L 230.842691 136.245621 
L 231.533079 135.549379 
L 232.608489 154.16431 
L 233.08645 158.219431 
L 234.214967 111.290728 
L 234.706204 161.713595 
L 235.927658 125.404329 
L 236.472002 160.037409 
L 237.534136 156.897477 
L 238.091756 129.756346 
L 239.220274 126.857201 
L 239.738064 159.074484 
L 240.853305 158.525956 
L 241.410925 136.014223 
L 242.499613 159.23093 
L 244.18575 148.812469 
L 244.716817 156.310503 
L 245.858611 161.889023 
L 246.363125 82.065719 
L 247.571303 123.907864 
L 247.969603 117.210612 
L 249.244164 129.812307 
L 249.695571 141.498459 
L 250.930301 132.679985 
L 251.381708 161.252282 
L 253.120953 106.078127 
L 254.36896 146.737037 
L 254.820367 119.067291 
L 256.134758 159.484232 
L 256.625995 160.097874 
L 257.860726 119.230776 
L 258.32541 147.938438 
L 259.453927 157.623023 
L 260.024824 110.722201 
L 261.126788 162.903779 
L 261.657855 161.076229 
L 262.759819 123.97207 
L 263.304163 60.06451 
L 264.419404 150.456447 
L 264.990301 148.527226 
L 266.025881 158.68193 
L 266.663162 160.490971 
L 267.619083 147.755583 
L 268.282916 158.855704 
L 269.252114 158.397879 
L 269.969054 114.425528 
L 270.924975 124.660658 
L 271.668469 158.82412 
L 272.637666 131.959118 
L 273.354606 159.535589 
L 274.310527 157.367255 
L 275.014191 133.792548 
L 275.930281 108.979153 
L 276.633945 162.513442 
L 277.550036 160.898564 
L 278.29353 160.291797 
L 279.236174 134.122628 
L 280.006221 154.846593 
L 280.935588 162.524091 
L 281.718912 161.512456 
L 282.635003 160.109317 
L 283.458156 151.492037 
L 284.374247 153.073416 
L 285.131017 157.689907 
L 286.060385 139.905863 
L 286.870262 140.076864 
L 287.773076 137.768628 
L 288.63606 159.188977 
L 289.565427 123.355294 
L 290.348751 131.815384 
L 291.317948 117.302984 
L 292.101272 157.640009 
L 293.043916 161.393863 
L 293.933453 157.676765 
L 294.862821 150.716398 
L 295.685975 134.737242 
L 296.641895 155.182983 
L 297.518156 159.839147 
L 298.447523 157.305533 
L 299.33706 157.568383 
L 300.253151 162.788589 
L 301.129411 155.028658 
L 302.072055 161.408587 
L 302.908486 161.284739 
L 303.837853 156.191695 
L 304.740667 160.694604 
L 306.267485 157.859492 
L 306.971149 93.866552 
L 308.046559 102.336285 
L 308.869713 159.901581 
L 309.931847 159.057607 
L 310.728448 151.566272 
L 311.790582 147.04309 
L 312.573906 132.020579 
L 313.662593 161.193638 
L 314.379534 158.708745 
L 315.494774 157.875792 
L 316.251545 158.942958 
L 317.353509 128.141259 
L 318.136833 161.399969 
L 319.252073 161.216882 
L 319.982291 136.717583 
L 321.163915 153.379396 
L 321.894132 161.264723 
L 323.009373 107.355892 
L 323.73959 162.550204 
L 325.704538 159.6423 
L 326.872885 157.011278 
L 327.563272 96.948004 
L 328.73162 160.488431 
L 329.52822 159.150671 
L 330.696568 160.824698 
L 331.413508 159.347002 
L 332.581856 67.47959 
L 333.351903 144.223181 
L 334.493697 157.357075 
L 335.263744 158.05531 
L 336.365708 135.284958 
L 337.122479 152.816163 
L 338.197889 152.193303 
L 339.007767 152.376064 
L 340.096454 143.202876 
L 340.946161 157.429328 
L 342.233999 143.604339 
L 343.243026 161.687069 
L 344.58397 128.578481 
L 345.420401 159.281066 
L 346.641855 158.078297 
L 347.690712 159.32706 
L 348.832506 160.113933 
L 349.761874 153.506079 
L 351.076265 157.625409 
L 351.859588 159.308527 
L 353.041213 156.758116 
L 353.81126 156.539534 
L 355.085821 159.876816 
L 355.855868 143.57296 
L 357.077322 156.837543 
L 357.940306 158.57074 
L 359.307803 126.673101 
L 359.931807 153.038829 
L 362.122459 160.917674 
L 363.450126 159.544151 
L 364.286557 156.566134 
L 365.441627 139.467497 
L 366.357718 131.69472 
L 367.353469 156.266624 
L 368.389049 114.177307 
L 369.46446 152.926018 
L 370.340721 80.240176 
L 371.429408 158.065823 
L 372.438435 152.906607 
L 373.513846 155.481233 
L 374.164403 155.328725 
L 375.399134 135.220816 
L 376.102798 152.602589 
L 377.337529 160.78802 
L 378.041192 160.103126 
L 379.355583 66.848446 
L 379.820267 162.199231 
L 381.386915 159.066341 
L 381.825045 154.887606 
L 383.205819 155.831535 
L 383.88293 106.291929 
L 385.316811 155.010045 
L 386.020474 158.465715 
L 387.109162 53.568 
L 387.865932 157.734866 
L 388.941343 160.191042 
L 389.937094 105.425133 
L 390.853184 146.011202 
L 391.875488 157.63629 
L 392.738472 151.418533 
L 393.840436 161.825312 
L 394.78308 157.689179 
L 395.712448 117.885341 
L 396.601985 159.215591 
L 397.584459 161.978151 
L 398.487273 155.371164 
L 398.487273 155.371164 
" clip-path="url(#p0456299044)" style="fill: none; stroke: #ff7f0e; stroke-width: 1.5; stroke-linecap: square"/>
   </g>
   <g id="patch_3">
    <path d="M 57.6 307.584 
L 57.6 41.472 
" style="fill: none; stroke: #000000; stroke-width: 0.8; stroke-linejoin: miter; stroke-linecap: square"/>
   </g>
   <g id="patch_4">
    <path d="M 414.72 307.584 
L 414.72 41.472 
" style="fill: none; stroke: #000000; stroke-width: 0.8; stroke-linejoin: miter; stroke-linecap: square"/>
   </g>
   <g id="patch_5">
    <path d="M 57.6 307.584 
L 414.72 307.584 
" style="fill: none; stroke: #000000; stroke-width: 0.8; stroke-linejoin: miter; stroke-linecap: square"/>
   </g>
   <g id="patch_6">
    <path d="M 57.6 41.472 
L 414.72 41.472 
" style="fill: none; stroke: #000000; stroke-width: 0.8; stroke-linejoin: miter; stroke-linecap: square"/>
   </g>
   <g id="text_16">
    <!-- actor and critic loss -->
    <g transform="translate(177.345 35.472) scale(0.12 -0.12)">
     <defs>
      <path id="DejaVuSans-61" d="M 2194 1759 
Q 1497 1759 1228 1600 
Q 959 1441 959 1056 
Q 959 750 1161 570 
Q 1363 391 1709 391 
Q 2188 391 2477 730 
Q 2766 1069 2766 1631 
L 2766 1759 
L 2194 1759 
z
M 3341 1997 
L 3341 0 
L 2766 0 
L 2766 531 
Q 2569 213 2275 61 
Q 1981 -91 1556 -91 
Q 1019 -91 701 211 
Q 384 513 384 1019 
Q 384 1609 779 1909 
Q 1175 2209 1959 2209 
L 2766 2209 
L 2766 2266 
Q 2766 2663 2505 2880 
Q 2244 3097 1772 3097 
Q 1472 3097 1187 3025 
Q 903 2953 641 2809 
L 641 3341 
Q 956 3463 1253 3523 
Q 1550 3584 1831 3584 
Q 2591 3584 2966 3190 
Q 3341 2797 3341 1997 
z
" transform="scale(0.015625)"/>
      <path id="DejaVuSans-63" d="M 3122 3366 
L 3122 2828 
Q 2878 2963 2633 3030 
Q 2388 3097 2138 3097 
Q 1578 3097 1268 2742 
Q 959 2388 959 1747 
Q 959 1106 1268 751 
Q 1578 397 2138 397 
Q 2388 397 2633 464 
Q 2878 531 3122 666 
L 3122 134 
Q 2881 22 2623 -34 
Q 2366 -91 2075 -91 
Q 1284 -91 818 406 
Q 353 903 353 1747 
Q 353 2603 823 3093 
Q 1294 3584 2113 3584 
Q 2378 3584 2631 3529 
Q 2884 3475 3122 3366 
z
" transform="scale(0.015625)"/>
      <path id="DejaVuSans-72" d="M 2631 2963 
Q 2534 3019 2420 3045 
Q 2306 3072 2169 3072 
Q 1681 3072 1420 2755 
Q 1159 2438 1159 1844 
L 1159 0 
L 581 0 
L 581 3500 
L 1159 3500 
L 1159 2956 
Q 1341 3275 1631 3429 
Q 1922 3584 2338 3584 
Q 2397 3584 2469 3576 
Q 2541 3569 2628 3553 
L 2631 2963 
z
" transform="scale(0.015625)"/>
      <path id="DejaVuSans-6e" d="M 3513 2113 
L 3513 0 
L 2938 0 
L 2938 2094 
Q 2938 2591 2744 2837 
Q 2550 3084 2163 3084 
Q 1697 3084 1428 2787 
Q 1159 2491 1159 1978 
L 1159 0 
L 581 0 
L 581 3500 
L 1159 3500 
L 1159 2956 
Q 1366 3272 1645 3428 
Q 1925 3584 2291 3584 
Q 2894 3584 3203 3211 
Q 3513 2838 3513 2113 
z
" transform="scale(0.015625)"/>
      <path id="DejaVuSans-64" d="M 2906 2969 
L 2906 4863 
L 3481 4863 
L 3481 0 
L 2906 0 
L 2906 525 
Q 2725 213 2448 61 
Q 2172 -91 1784 -91 
Q 1150 -91 751 415 
Q 353 922 353 1747 
Q 353 2572 751 3078 
Q 1150 3584 1784 3584 
Q 2172 3584 2448 3432 
Q 2725 3281 2906 2969 
z
M 947 1747 
Q 947 1113 1208 752 
Q 1469 391 1925 391 
Q 2381 391 2643 752 
Q 2906 1113 2906 1747 
Q 2906 2381 2643 2742 
Q 2381 3103 1925 3103 
Q 1469 3103 1208 2742 
Q 947 2381 947 1747 
z
" transform="scale(0.015625)"/>
     </defs>
     <use xlink:href="#DejaVuSans-61"/>
     <use xlink:href="#DejaVuSans-63" x="61.279297"/>
     <use xlink:href="#DejaVuSans-74" x="116.259766"/>
     <use xlink:href="#DejaVuSans-6f" x="155.46875"/>
     <use xlink:href="#DejaVuSans-72" x="216.650391"/>
     <use xlink:href="#DejaVuSans-20" x="257.763672"/>
     <use xlink:href="#DejaVuSans-61" x="289.550781"/>
     <use xlink:href="#DejaVuSans-6e" x="350.830078"/>
     <use xlink:href="#DejaVuSans-64" x="414.208984"/>
     <use xlink:href="#DejaVuSans-20" x="477.685547"/>
     <use xlink:href="#DejaVuSans-63" x="509.472656"/>
     <use xlink:href="#DejaVuSans-72" x="564.453125"/>
     <use xlink:href="#DejaVuSans-69" x="605.566406"/>
     <use xlink:href="#DejaVuSans-74" x="633.349609"/>
     <use xlink:href="#DejaVuSans-69" x="672.558594"/>
     <use xlink:href="#DejaVuSans-63" x="700.341797"/>
     <use xlink:href="#DejaVuSans-20" x="755.322266"/>
     <use xlink:href="#DejaVuSans-6c" x="787.109375"/>
     <use xlink:href="#DejaVuSans-6f" x="814.892578"/>
     <use xlink:href="#DejaVuSans-73" x="876.074219"/>
     <use xlink:href="#DejaVuSans-73" x="928.173828"/>
    </g>
   </g>
   <g id="legend_1">
    <g id="patch_7">
     <path d="M 64.6 78.82825 
L 144.870313 78.82825 
Q 146.870313 78.82825 146.870313 76.82825 
L 146.870313 48.472 
Q 146.870313 46.472 144.870313 46.472 
L 64.6 46.472 
Q 62.6 46.472 62.6 48.472 
L 62.6 76.82825 
Q 62.6 78.82825 64.6 78.82825 
z
" style="fill: #ffffff; opacity: 0.8; stroke: #cccccc; stroke-linejoin: miter"/>
    </g>
    <g id="line2d_16">
     <path d="M 66.6 54.570437 
L 76.6 54.570437 
L 86.6 54.570437 
" style="fill: none; stroke: #1f77b4; stroke-width: 1.5; stroke-linecap: square"/>
    </g>
    <g id="text_17">
     <!-- actor loss -->
     <g transform="translate(94.6 58.070437) scale(0.1 -0.1)">
      <use xlink:href="#DejaVuSans-61"/>
      <use xlink:href="#DejaVuSans-63" x="61.279297"/>
      <use xlink:href="#DejaVuSans-74" x="116.259766"/>
      <use xlink:href="#DejaVuSans-6f" x="155.46875"/>
      <use xlink:href="#DejaVuSans-72" x="216.650391"/>
      <use xlink:href="#DejaVuSans-20" x="257.763672"/>
      <use xlink:href="#DejaVuSans-6c" x="289.550781"/>
      <use xlink:href="#DejaVuSans-6f" x="317.333984"/>
      <use xlink:href="#DejaVuSans-73" x="378.515625"/>
      <use xlink:href="#DejaVuSans-73" x="430.615234"/>
     </g>
    </g>
    <g id="line2d_17">
     <path d="M 66.6 69.248562 
L 76.6 69.248562 
L 86.6 69.248562 
" style="fill: none; stroke: #ff7f0e; stroke-width: 1.5; stroke-linecap: square"/>
    </g>
    <g id="text_18">
     <!-- critic loss -->
     <g transform="translate(94.6 72.748562) scale(0.1 -0.1)">
      <use xlink:href="#DejaVuSans-63"/>
      <use xlink:href="#DejaVuSans-72" x="54.980469"/>
      <use xlink:href="#DejaVuSans-69" x="96.09375"/>
      <use xlink:href="#DejaVuSans-74" x="123.876953"/>
      <use xlink:href="#DejaVuSans-69" x="163.085938"/>
      <use xlink:href="#DejaVuSans-63" x="190.869141"/>
      <use xlink:href="#DejaVuSans-20" x="245.849609"/>
      <use xlink:href="#DejaVuSans-6c" x="277.636719"/>
      <use xlink:href="#DejaVuSans-6f" x="305.419922"/>
      <use xlink:href="#DejaVuSans-73" x="366.601562"/>
      <use xlink:href="#DejaVuSans-73" x="418.701172"/>
     </g>
    </g>
   </g>
  </g>
 </g>
 <defs>
  <clipPath id="p0456299044">
   <rect x="57.6" y="41.472" width="357.12" height="266.112"/>
  </clipPath>
 </defs>
</svg>
