<?xml version="1.0" encoding="utf-8" standalone="no"?>
<!DOCTYPE svg PUBLIC "-//W3C//DTD SVG 1.1//EN"
  "http://www.w3.org/Graphics/SVG/1.1/DTD/svg11.dtd">
<svg xmlns:xlink="http://www.w3.org/1999/xlink" width="460.8pt" height="345.6pt" viewBox="0 0 460.8 345.6" xmlns="http://www.w3.org/2000/svg" version="1.1">
 <metadata>
  <rdf:RDF xmlns:dc="http://purl.org/dc/elements/1.1/" xmlns:cc="http://creativecommons.org/ns#" xmlns:rdf="http://www.w3.org/1999/02/22-rdf-syntax-ns#">
   <cc:Work>
    <dc:type rdf:resource="http://purl.org/dc/dcmitype/StillImage"/>
    <dc:date>2023-08-19T13:56:52.614113</dc:date>
    <dc:format>image/svg+xml</dc:format>
    <dc:creator>
     <cc:Agent>
      <dc:title>Matplotlib v3.7.1, https://matplotlib.org/</dc:title>
     </cc:Agent>
    </dc:creator>
   </cc:Work>
  </rdf:RDF>
 </metadata>
 <defs>
  <style type="text/css">*{stroke-linejoin: round; stroke-linecap: butt}</style>
 </defs>
 <g id="figure_1">
  <g id="patch_1">
   <path d="M 0 345.6 
L 460.8 345.6 
L 460.8 0 
L 0 0 
z
" style="fill: #ffffff"/>
  </g>
  <g id="axes_1">
   <g id="patch_2">
    <path d="M 57.6 307.584 
L 414.72 307.584 
L 414.72 41.472 
L 57.6 41.472 
z
" style="fill: #ffffff"/>
   </g>
   <g id="matplotlib.axis_1">
    <g id="xtick_1">
     <g id="line2d_1">
      <defs>
       <path id="mbc63b9f87a" d="M 0 0 
L 0 3.5 
" style="stroke: #000000; stroke-width: 0.8"/>
      </defs>
      <g>
       <use xlink:href="#mbc63b9f87a" x="73.611812" y="307.584" style="stroke: #000000; stroke-width: 0.8"/>
      </g>
     </g>
     <g id="text_1">
      <!-- 0 -->
      <g transform="translate(70.430562 322.182437) scale(0.1 -0.1)">
       <defs>
        <path id="DejaVuSans-30" d="M 2034 4250 
Q 1547 4250 1301 3770 
Q 1056 3291 1056 2328 
Q 1056 1369 1301 889 
Q 1547 409 2034 409 
Q 2525 409 2770 889 
Q 3016 1369 3016 2328 
Q 3016 3291 2770 3770 
Q 2525 4250 2034 4250 
z
M 2034 4750 
Q 2819 4750 3233 4129 
Q 3647 3509 3647 2328 
Q 3647 1150 3233 529 
Q 2819 -91 2034 -91 
Q 1250 -91 836 529 
Q 422 1150 422 2328 
Q 422 3509 836 4129 
Q 1250 4750 2034 4750 
z
" transform="scale(0.015625)"/>
       </defs>
       <use xlink:href="#DejaVuSans-30"/>
      </g>
     </g>
    </g>
    <g id="xtick_2">
     <g id="line2d_2">
      <g>
       <use xlink:href="#mbc63b9f87a" x="138.586904" y="307.584" style="stroke: #000000; stroke-width: 0.8"/>
      </g>
     </g>
     <g id="text_2">
      <!-- 100000 -->
      <g transform="translate(119.499404 322.182437) scale(0.1 -0.1)">
       <defs>
        <path id="DejaVuSans-31" d="M 794 531 
L 1825 531 
L 1825 4091 
L 703 3866 
L 703 4441 
L 1819 4666 
L 2450 4666 
L 2450 531 
L 3481 531 
L 3481 0 
L 794 0 
L 794 531 
z
" transform="scale(0.015625)"/>
       </defs>
       <use xlink:href="#DejaVuSans-31"/>
       <use xlink:href="#DejaVuSans-30" x="63.623047"/>
       <use xlink:href="#DejaVuSans-30" x="127.246094"/>
       <use xlink:href="#DejaVuSans-30" x="190.869141"/>
       <use xlink:href="#DejaVuSans-30" x="254.492188"/>
       <use xlink:href="#DejaVuSans-30" x="318.115234"/>
      </g>
     </g>
    </g>
    <g id="xtick_3">
     <g id="line2d_3">
      <g>
       <use xlink:href="#mbc63b9f87a" x="203.561996" y="307.584" style="stroke: #000000; stroke-width: 0.8"/>
      </g>
     </g>
     <g id="text_3">
      <!-- 200000 -->
      <g transform="translate(184.474496 322.182437) scale(0.1 -0.1)">
       <defs>
        <path id="DejaVuSans-32" d="M 1228 531 
L 3431 531 
L 3431 0 
L 469 0 
L 469 531 
Q 828 903 1448 1529 
Q 2069 2156 2228 2338 
Q 2531 2678 2651 2914 
Q 2772 3150 2772 3378 
Q 2772 3750 2511 3984 
Q 2250 4219 1831 4219 
Q 1534 4219 1204 4116 
Q 875 4013 500 3803 
L 500 4441 
Q 881 4594 1212 4672 
Q 1544 4750 1819 4750 
Q 2544 4750 2975 4387 
Q 3406 4025 3406 3419 
Q 3406 3131 3298 2873 
Q 3191 2616 2906 2266 
Q 2828 2175 2409 1742 
Q 1991 1309 1228 531 
z
" transform="scale(0.015625)"/>
       </defs>
       <use xlink:href="#DejaVuSans-32"/>
       <use xlink:href="#DejaVuSans-30" x="63.623047"/>
       <use xlink:href="#DejaVuSans-30" x="127.246094"/>
       <use xlink:href="#DejaVuSans-30" x="190.869141"/>
       <use xlink:href="#DejaVuSans-30" x="254.492188"/>
       <use xlink:href="#DejaVuSans-30" x="318.115234"/>
      </g>
     </g>
    </g>
    <g id="xtick_4">
     <g id="line2d_4">
      <g>
       <use xlink:href="#mbc63b9f87a" x="268.537088" y="307.584" style="stroke: #000000; stroke-width: 0.8"/>
      </g>
     </g>
     <g id="text_4">
      <!-- 300000 -->
      <g transform="translate(249.449588 322.182437) scale(0.1 -0.1)">
       <defs>
        <path id="DejaVuSans-33" d="M 2597 2516 
Q 3050 2419 3304 2112 
Q 3559 1806 3559 1356 
Q 3559 666 3084 287 
Q 2609 -91 1734 -91 
Q 1441 -91 1130 -33 
Q 819 25 488 141 
L 488 750 
Q 750 597 1062 519 
Q 1375 441 1716 441 
Q 2309 441 2620 675 
Q 2931 909 2931 1356 
Q 2931 1769 2642 2001 
Q 2353 2234 1838 2234 
L 1294 2234 
L 1294 2753 
L 1863 2753 
Q 2328 2753 2575 2939 
Q 2822 3125 2822 3475 
Q 2822 3834 2567 4026 
Q 2313 4219 1838 4219 
Q 1578 4219 1281 4162 
Q 984 4106 628 3988 
L 628 4550 
Q 988 4650 1302 4700 
Q 1616 4750 1894 4750 
Q 2613 4750 3031 4423 
Q 3450 4097 3450 3541 
Q 3450 3153 3228 2886 
Q 3006 2619 2597 2516 
z
" transform="scale(0.015625)"/>
       </defs>
       <use xlink:href="#DejaVuSans-33"/>
       <use xlink:href="#DejaVuSans-30" x="63.623047"/>
       <use xlink:href="#DejaVuSans-30" x="127.246094"/>
       <use xlink:href="#DejaVuSans-30" x="190.869141"/>
       <use xlink:href="#DejaVuSans-30" x="254.492188"/>
       <use xlink:href="#DejaVuSans-30" x="318.115234"/>
      </g>
     </g>
    </g>
    <g id="xtick_5">
     <g id="line2d_5">
      <g>
       <use xlink:href="#mbc63b9f87a" x="333.512181" y="307.584" style="stroke: #000000; stroke-width: 0.8"/>
      </g>
     </g>
     <g id="text_5">
      <!-- 400000 -->
      <g transform="translate(314.424681 322.182437) scale(0.1 -0.1)">
       <defs>
        <path id="DejaVuSans-34" d="M 2419 4116 
L 825 1625 
L 2419 1625 
L 2419 4116 
z
M 2253 4666 
L 3047 4666 
L 3047 1625 
L 3713 1625 
L 3713 1100 
L 3047 1100 
L 3047 0 
L 2419 0 
L 2419 1100 
L 313 1100 
L 313 1709 
L 2253 4666 
z
" transform="scale(0.015625)"/>
       </defs>
       <use xlink:href="#DejaVuSans-34"/>
       <use xlink:href="#DejaVuSans-30" x="63.623047"/>
       <use xlink:href="#DejaVuSans-30" x="127.246094"/>
       <use xlink:href="#DejaVuSans-30" x="190.869141"/>
       <use xlink:href="#DejaVuSans-30" x="254.492188"/>
       <use xlink:href="#DejaVuSans-30" x="318.115234"/>
      </g>
     </g>
    </g>
    <g id="xtick_6">
     <g id="line2d_6">
      <g>
       <use xlink:href="#mbc63b9f87a" x="398.487273" y="307.584" style="stroke: #000000; stroke-width: 0.8"/>
      </g>
     </g>
     <g id="text_6">
      <!-- 500000 -->
      <g transform="translate(379.399773 322.182437) scale(0.1 -0.1)">
       <defs>
        <path id="DejaVuSans-35" d="M 691 4666 
L 3169 4666 
L 3169 4134 
L 1269 4134 
L 1269 2991 
Q 1406 3038 1543 3061 
Q 1681 3084 1819 3084 
Q 2600 3084 3056 2656 
Q 3513 2228 3513 1497 
Q 3513 744 3044 326 
Q 2575 -91 1722 -91 
Q 1428 -91 1123 -41 
Q 819 9 494 109 
L 494 744 
Q 775 591 1075 516 
Q 1375 441 1709 441 
Q 2250 441 2565 725 
Q 2881 1009 2881 1497 
Q 2881 1984 2565 2268 
Q 2250 2553 1709 2553 
Q 1456 2553 1204 2497 
Q 953 2441 691 2322 
L 691 4666 
z
" transform="scale(0.015625)"/>
       </defs>
       <use xlink:href="#DejaVuSans-35"/>
       <use xlink:href="#DejaVuSans-30" x="63.623047"/>
       <use xlink:href="#DejaVuSans-30" x="127.246094"/>
       <use xlink:href="#DejaVuSans-30" x="190.869141"/>
       <use xlink:href="#DejaVuSans-30" x="254.492188"/>
       <use xlink:href="#DejaVuSans-30" x="318.115234"/>
      </g>
     </g>
    </g>
    <g id="text_7">
     <!-- timesteps -->
     <g transform="translate(211.443594 335.860562) scale(0.1 -0.1)">
      <defs>
       <path id="DejaVuSans-74" d="M 1172 4494 
L 1172 3500 
L 2356 3500 
L 2356 3053 
L 1172 3053 
L 1172 1153 
Q 1172 725 1289 603 
Q 1406 481 1766 481 
L 2356 481 
L 2356 0 
L 1766 0 
Q 1100 0 847 248 
Q 594 497 594 1153 
L 594 3053 
L 172 3053 
L 172 3500 
L 594 3500 
L 594 4494 
L 1172 4494 
z
" transform="scale(0.015625)"/>
       <path id="DejaVuSans-69" d="M 603 3500 
L 1178 3500 
L 1178 0 
L 603 0 
L 603 3500 
z
M 603 4863 
L 1178 4863 
L 1178 4134 
L 603 4134 
L 603 4863 
z
" transform="scale(0.015625)"/>
       <path id="DejaVuSans-6d" d="M 3328 2828 
Q 3544 3216 3844 3400 
Q 4144 3584 4550 3584 
Q 5097 3584 5394 3201 
Q 5691 2819 5691 2113 
L 5691 0 
L 5113 0 
L 5113 2094 
Q 5113 2597 4934 2840 
Q 4756 3084 4391 3084 
Q 3944 3084 3684 2787 
Q 3425 2491 3425 1978 
L 3425 0 
L 2847 0 
L 2847 2094 
Q 2847 2600 2669 2842 
Q 2491 3084 2119 3084 
Q 1678 3084 1418 2786 
Q 1159 2488 1159 1978 
L 1159 0 
L 581 0 
L 581 3500 
L 1159 3500 
L 1159 2956 
Q 1356 3278 1631 3431 
Q 1906 3584 2284 3584 
Q 2666 3584 2933 3390 
Q 3200 3197 3328 2828 
z
" transform="scale(0.015625)"/>
       <path id="DejaVuSans-65" d="M 3597 1894 
L 3597 1613 
L 953 1613 
Q 991 1019 1311 708 
Q 1631 397 2203 397 
Q 2534 397 2845 478 
Q 3156 559 3463 722 
L 3463 178 
Q 3153 47 2828 -22 
Q 2503 -91 2169 -91 
Q 1331 -91 842 396 
Q 353 884 353 1716 
Q 353 2575 817 3079 
Q 1281 3584 2069 3584 
Q 2775 3584 3186 3129 
Q 3597 2675 3597 1894 
z
M 3022 2063 
Q 3016 2534 2758 2815 
Q 2500 3097 2075 3097 
Q 1594 3097 1305 2825 
Q 1016 2553 972 2059 
L 3022 2063 
z
" transform="scale(0.015625)"/>
       <path id="DejaVuSans-73" d="M 2834 3397 
L 2834 2853 
Q 2591 2978 2328 3040 
Q 2066 3103 1784 3103 
Q 1356 3103 1142 2972 
Q 928 2841 928 2578 
Q 928 2378 1081 2264 
Q 1234 2150 1697 2047 
L 1894 2003 
Q 2506 1872 2764 1633 
Q 3022 1394 3022 966 
Q 3022 478 2636 193 
Q 2250 -91 1575 -91 
Q 1294 -91 989 -36 
Q 684 19 347 128 
L 347 722 
Q 666 556 975 473 
Q 1284 391 1588 391 
Q 1994 391 2212 530 
Q 2431 669 2431 922 
Q 2431 1156 2273 1281 
Q 2116 1406 1581 1522 
L 1381 1569 
Q 847 1681 609 1914 
Q 372 2147 372 2553 
Q 372 3047 722 3315 
Q 1072 3584 1716 3584 
Q 2034 3584 2315 3537 
Q 2597 3491 2834 3397 
z
" transform="scale(0.015625)"/>
       <path id="DejaVuSans-70" d="M 1159 525 
L 1159 -1331 
L 581 -1331 
L 581 3500 
L 1159 3500 
L 1159 2969 
Q 1341 3281 1617 3432 
Q 1894 3584 2278 3584 
Q 2916 3584 3314 3078 
Q 3713 2572 3713 1747 
Q 3713 922 3314 415 
Q 2916 -91 2278 -91 
Q 1894 -91 1617 61 
Q 1341 213 1159 525 
z
M 3116 1747 
Q 3116 2381 2855 2742 
Q 2594 3103 2138 3103 
Q 1681 3103 1420 2742 
Q 1159 2381 1159 1747 
Q 1159 1113 1420 752 
Q 1681 391 2138 391 
Q 2594 391 2855 752 
Q 3116 1113 3116 1747 
z
" transform="scale(0.015625)"/>
      </defs>
      <use xlink:href="#DejaVuSans-74"/>
      <use xlink:href="#DejaVuSans-69" x="39.208984"/>
      <use xlink:href="#DejaVuSans-6d" x="66.992188"/>
      <use xlink:href="#DejaVuSans-65" x="164.404297"/>
      <use xlink:href="#DejaVuSans-73" x="225.927734"/>
      <use xlink:href="#DejaVuSans-74" x="278.027344"/>
      <use xlink:href="#DejaVuSans-65" x="317.236328"/>
      <use xlink:href="#DejaVuSans-70" x="378.759766"/>
      <use xlink:href="#DejaVuSans-73" x="442.236328"/>
     </g>
    </g>
   </g>
   <g id="matplotlib.axis_2">
    <g id="ytick_1">
     <g id="line2d_7">
      <defs>
       <path id="m12353e412a" d="M 0 0 
L -3.5 0 
" style="stroke: #000000; stroke-width: 0.8"/>
      </defs>
      <g>
       <use xlink:href="#m12353e412a" x="57.6" y="297.015284" style="stroke: #000000; stroke-width: 0.8"/>
      </g>
     </g>
     <g id="text_8">
      <!-- 0 -->
      <g transform="translate(44.2375 300.814503) scale(0.1 -0.1)">
       <use xlink:href="#DejaVuSans-30"/>
      </g>
     </g>
    </g>
    <g id="ytick_2">
     <g id="line2d_8">
      <g>
       <use xlink:href="#m12353e412a" x="57.6" y="264.020292" style="stroke: #000000; stroke-width: 0.8"/>
      </g>
     </g>
     <g id="text_9">
      <!-- 200 -->
      <g transform="translate(31.5125 267.819511) scale(0.1 -0.1)">
       <use xlink:href="#DejaVuSans-32"/>
       <use xlink:href="#DejaVuSans-30" x="63.623047"/>
       <use xlink:href="#DejaVuSans-30" x="127.246094"/>
      </g>
     </g>
    </g>
    <g id="ytick_3">
     <g id="line2d_9">
      <g>
       <use xlink:href="#m12353e412a" x="57.6" y="231.025301" style="stroke: #000000; stroke-width: 0.8"/>
      </g>
     </g>
     <g id="text_10">
      <!-- 400 -->
      <g transform="translate(31.5125 234.82452) scale(0.1 -0.1)">
       <use xlink:href="#DejaVuSans-34"/>
       <use xlink:href="#DejaVuSans-30" x="63.623047"/>
       <use xlink:href="#DejaVuSans-30" x="127.246094"/>
      </g>
     </g>
    </g>
    <g id="ytick_4">
     <g id="line2d_10">
      <g>
       <use xlink:href="#m12353e412a" x="57.6" y="198.030309" style="stroke: #000000; stroke-width: 0.8"/>
      </g>
     </g>
     <g id="text_11">
      <!-- 600 -->
      <g transform="translate(31.5125 201.829528) scale(0.1 -0.1)">
       <defs>
        <path id="DejaVuSans-36" d="M 2113 2584 
Q 1688 2584 1439 2293 
Q 1191 2003 1191 1497 
Q 1191 994 1439 701 
Q 1688 409 2113 409 
Q 2538 409 2786 701 
Q 3034 994 3034 1497 
Q 3034 2003 2786 2293 
Q 2538 2584 2113 2584 
z
M 3366 4563 
L 3366 3988 
Q 3128 4100 2886 4159 
Q 2644 4219 2406 4219 
Q 1781 4219 1451 3797 
Q 1122 3375 1075 2522 
Q 1259 2794 1537 2939 
Q 1816 3084 2150 3084 
Q 2853 3084 3261 2657 
Q 3669 2231 3669 1497 
Q 3669 778 3244 343 
Q 2819 -91 2113 -91 
Q 1303 -91 875 529 
Q 447 1150 447 2328 
Q 447 3434 972 4092 
Q 1497 4750 2381 4750 
Q 2619 4750 2861 4703 
Q 3103 4656 3366 4563 
z
" transform="scale(0.015625)"/>
       </defs>
       <use xlink:href="#DejaVuSans-36"/>
       <use xlink:href="#DejaVuSans-30" x="63.623047"/>
       <use xlink:href="#DejaVuSans-30" x="127.246094"/>
      </g>
     </g>
    </g>
    <g id="ytick_5">
     <g id="line2d_11">
      <g>
       <use xlink:href="#m12353e412a" x="57.6" y="165.035318" style="stroke: #000000; stroke-width: 0.8"/>
      </g>
     </g>
     <g id="text_12">
      <!-- 800 -->
      <g transform="translate(31.5125 168.834537) scale(0.1 -0.1)">
       <defs>
        <path id="DejaVuSans-38" d="M 2034 2216 
Q 1584 2216 1326 1975 
Q 1069 1734 1069 1313 
Q 1069 891 1326 650 
Q 1584 409 2034 409 
Q 2484 409 2743 651 
Q 3003 894 3003 1313 
Q 3003 1734 2745 1975 
Q 2488 2216 2034 2216 
z
M 1403 2484 
Q 997 2584 770 2862 
Q 544 3141 544 3541 
Q 544 4100 942 4425 
Q 1341 4750 2034 4750 
Q 2731 4750 3128 4425 
Q 3525 4100 3525 3541 
Q 3525 3141 3298 2862 
Q 3072 2584 2669 2484 
Q 3125 2378 3379 2068 
Q 3634 1759 3634 1313 
Q 3634 634 3220 271 
Q 2806 -91 2034 -91 
Q 1263 -91 848 271 
Q 434 634 434 1313 
Q 434 1759 690 2068 
Q 947 2378 1403 2484 
z
M 1172 3481 
Q 1172 3119 1398 2916 
Q 1625 2713 2034 2713 
Q 2441 2713 2670 2916 
Q 2900 3119 2900 3481 
Q 2900 3844 2670 4047 
Q 2441 4250 2034 4250 
Q 1625 4250 1398 4047 
Q 1172 3844 1172 3481 
z
" transform="scale(0.015625)"/>
       </defs>
       <use xlink:href="#DejaVuSans-38"/>
       <use xlink:href="#DejaVuSans-30" x="63.623047"/>
       <use xlink:href="#DejaVuSans-30" x="127.246094"/>
      </g>
     </g>
    </g>
    <g id="ytick_6">
     <g id="line2d_12">
      <g>
       <use xlink:href="#m12353e412a" x="57.6" y="132.040326" style="stroke: #000000; stroke-width: 0.8"/>
      </g>
     </g>
     <g id="text_13">
      <!-- 1000 -->
      <g transform="translate(25.15 135.839545) scale(0.1 -0.1)">
       <use xlink:href="#DejaVuSans-31"/>
       <use xlink:href="#DejaVuSans-30" x="63.623047"/>
       <use xlink:href="#DejaVuSans-30" x="127.246094"/>
       <use xlink:href="#DejaVuSans-30" x="190.869141"/>
      </g>
     </g>
    </g>
    <g id="ytick_7">
     <g id="line2d_13">
      <g>
       <use xlink:href="#m12353e412a" x="57.6" y="99.045335" style="stroke: #000000; stroke-width: 0.8"/>
      </g>
     </g>
     <g id="text_14">
      <!-- 1200 -->
      <g transform="translate(25.15 102.844554) scale(0.1 -0.1)">
       <use xlink:href="#DejaVuSans-31"/>
       <use xlink:href="#DejaVuSans-32" x="63.623047"/>
       <use xlink:href="#DejaVuSans-30" x="127.246094"/>
       <use xlink:href="#DejaVuSans-30" x="190.869141"/>
      </g>
     </g>
    </g>
    <g id="ytick_8">
     <g id="line2d_14">
      <g>
       <use xlink:href="#m12353e412a" x="57.6" y="66.050343" style="stroke: #000000; stroke-width: 0.8"/>
      </g>
     </g>
     <g id="text_15">
      <!-- 1400 -->
      <g transform="translate(25.15 69.849562) scale(0.1 -0.1)">
       <use xlink:href="#DejaVuSans-31"/>
       <use xlink:href="#DejaVuSans-34" x="63.623047"/>
       <use xlink:href="#DejaVuSans-30" x="127.246094"/>
       <use xlink:href="#DejaVuSans-30" x="190.869141"/>
      </g>
     </g>
    </g>
    <g id="text_16">
     <!-- mean episode rewards -->
     <g transform="translate(19.070312 231.360031) rotate(-90) scale(0.1 -0.1)">
      <defs>
       <path id="DejaVuSans-61" d="M 2194 1759 
Q 1497 1759 1228 1600 
Q 959 1441 959 1056 
Q 959 750 1161 570 
Q 1363 391 1709 391 
Q 2188 391 2477 730 
Q 2766 1069 2766 1631 
L 2766 1759 
L 2194 1759 
z
M 3341 1997 
L 3341 0 
L 2766 0 
L 2766 531 
Q 2569 213 2275 61 
Q 1981 -91 1556 -91 
Q 1019 -91 701 211 
Q 384 513 384 1019 
Q 384 1609 779 1909 
Q 1175 2209 1959 2209 
L 2766 2209 
L 2766 2266 
Q 2766 2663 2505 2880 
Q 2244 3097 1772 3097 
Q 1472 3097 1187 3025 
Q 903 2953 641 2809 
L 641 3341 
Q 956 3463 1253 3523 
Q 1550 3584 1831 3584 
Q 2591 3584 2966 3190 
Q 3341 2797 3341 1997 
z
" transform="scale(0.015625)"/>
       <path id="DejaVuSans-6e" d="M 3513 2113 
L 3513 0 
L 2938 0 
L 2938 2094 
Q 2938 2591 2744 2837 
Q 2550 3084 2163 3084 
Q 1697 3084 1428 2787 
Q 1159 2491 1159 1978 
L 1159 0 
L 581 0 
L 581 3500 
L 1159 3500 
L 1159 2956 
Q 1366 3272 1645 3428 
Q 1925 3584 2291 3584 
Q 2894 3584 3203 3211 
Q 3513 2838 3513 2113 
z
" transform="scale(0.015625)"/>
       <path id="DejaVuSans-20" transform="scale(0.015625)"/>
       <path id="DejaVuSans-6f" d="M 1959 3097 
Q 1497 3097 1228 2736 
Q 959 2375 959 1747 
Q 959 1119 1226 758 
Q 1494 397 1959 397 
Q 2419 397 2687 759 
Q 2956 1122 2956 1747 
Q 2956 2369 2687 2733 
Q 2419 3097 1959 3097 
z
M 1959 3584 
Q 2709 3584 3137 3096 
Q 3566 2609 3566 1747 
Q 3566 888 3137 398 
Q 2709 -91 1959 -91 
Q 1206 -91 779 398 
Q 353 888 353 1747 
Q 353 2609 779 3096 
Q 1206 3584 1959 3584 
z
" transform="scale(0.015625)"/>
       <path id="DejaVuSans-64" d="M 2906 2969 
L 2906 4863 
L 3481 4863 
L 3481 0 
L 2906 0 
L 2906 525 
Q 2725 213 2448 61 
Q 2172 -91 1784 -91 
Q 1150 -91 751 415 
Q 353 922 353 1747 
Q 353 2572 751 3078 
Q 1150 3584 1784 3584 
Q 2172 3584 2448 3432 
Q 2725 3281 2906 2969 
z
M 947 1747 
Q 947 1113 1208 752 
Q 1469 391 1925 391 
Q 2381 391 2643 752 
Q 2906 1113 2906 1747 
Q 2906 2381 2643 2742 
Q 2381 3103 1925 3103 
Q 1469 3103 1208 2742 
Q 947 2381 947 1747 
z
" transform="scale(0.015625)"/>
       <path id="DejaVuSans-72" d="M 2631 2963 
Q 2534 3019 2420 3045 
Q 2306 3072 2169 3072 
Q 1681 3072 1420 2755 
Q 1159 2438 1159 1844 
L 1159 0 
L 581 0 
L 581 3500 
L 1159 3500 
L 1159 2956 
Q 1341 3275 1631 3429 
Q 1922 3584 2338 3584 
Q 2397 3584 2469 3576 
Q 2541 3569 2628 3553 
L 2631 2963 
z
" transform="scale(0.015625)"/>
       <path id="DejaVuSans-77" d="M 269 3500 
L 844 3500 
L 1563 769 
L 2278 3500 
L 2956 3500 
L 3675 769 
L 4391 3500 
L 4966 3500 
L 4050 0 
L 3372 0 
L 2619 2869 
L 1863 0 
L 1184 0 
L 269 3500 
z
" transform="scale(0.015625)"/>
      </defs>
      <use xlink:href="#DejaVuSans-6d"/>
      <use xlink:href="#DejaVuSans-65" x="97.412109"/>
      <use xlink:href="#DejaVuSans-61" x="158.935547"/>
      <use xlink:href="#DejaVuSans-6e" x="220.214844"/>
      <use xlink:href="#DejaVuSans-20" x="283.59375"/>
      <use xlink:href="#DejaVuSans-65" x="315.380859"/>
      <use xlink:href="#DejaVuSans-70" x="376.904297"/>
      <use xlink:href="#DejaVuSans-69" x="440.380859"/>
      <use xlink:href="#DejaVuSans-73" x="468.164062"/>
      <use xlink:href="#DejaVuSans-6f" x="520.263672"/>
      <use xlink:href="#DejaVuSans-64" x="581.445312"/>
      <use xlink:href="#DejaVuSans-65" x="644.921875"/>
      <use xlink:href="#DejaVuSans-20" x="706.445312"/>
      <use xlink:href="#DejaVuSans-72" x="738.232422"/>
      <use xlink:href="#DejaVuSans-65" x="777.095703"/>
      <use xlink:href="#DejaVuSans-77" x="838.619141"/>
      <use xlink:href="#DejaVuSans-61" x="920.40625"/>
      <use xlink:href="#DejaVuSans-72" x="981.685547"/>
      <use xlink:href="#DejaVuSans-64" x="1021.048828"/>
      <use xlink:href="#DejaVuSans-73" x="1084.525391"/>
     </g>
    </g>
   </g>
   <g id="line2d_15">
    <path d="M 73.832727 295.488 
L 74.131613 294.808298 
L 74.521463 294.265013 
L 74.794359 294.310782 
L 75.054259 294.350168 
L 75.197204 294.331941 
L 75.288169 294.19392 
L 75.54807 294.322523 
L 75.78198 294.567275 
L 76.379751 294.605837 
L 76.509701 294.507483 
L 76.691631 294.548548 
L 77.055492 294.252779 
L 77.484327 294.237485 
L 77.848188 294.00622 
L 78.004128 293.938291 
L 78.160068 293.742964 
L 78.471949 293.729122 
L 78.770834 293.30436 
L 79.030735 293.328686 
L 79.628505 293.353559 
L 79.927391 293.723931 
L 80.031351 294.11829 
L 80.421202 294.123015 
L 80.603132 294.270545 
L 80.772067 294.220278 
L 80.966992 294.039741 
L 81.135928 294.142071 
L 81.746693 293.386481 
L 82.123549 293.027046 
L 82.552385 292.424387 
L 83.228126 292.248529 
L 83.410056 292.539654 
L 83.955847 291.797201 
L 84.202752 291.394582 
L 84.800523 291.001625 
L 85.957079 288.545056 
L 86.52886 286.795925 
L 86.827746 286.147702 
L 88.049277 284.673238 
L 88.543088 284.897321 
L 89.205834 284.730159 
L 89.53071 284.479882 
L 89.907565 284.518541 
L 90.466351 283.535037 
L 91.531942 280.577596 
L 92.298648 279.044517 
L 92.623524 277.265967 
L 93.377235 275.756999 
L 93.67612 274.266129 
L 94.494807 272.69419 
L 94.793692 271.053485 
L 95.547403 270.293493 
L 95.859284 269.605583 
L 96.62599 269.031684 
L 96.96386 267.968168 
L 99.160018 267.534663 
L 100.342565 267.319413 
L 101.057291 267.225674 
L 103.279439 267.491672 
L 104.955796 267.372625 
L 105.514582 267.167051 
L 106.671139 267.298341 
L 107.19094 266.965697 
L 108.971257 266.432147 
L 111.414321 265.879309 
L 111.817166 265.612154 
L 112.635852 264.811979 
L 113.025703 264.856266 
L 113.779414 264.552709 
L 114.325205 263.636825 
L 115.585721 262.375188 
L 116.352428 261.274206 
L 117.028169 260.096298 
L 117.83386 259.050828 
L 118.782496 257.023227 
L 119.536207 254.071124 
L 120.562814 251.175361 
L 120.991649 248.296842 
L 122.187191 246.131833 
L 122.823947 243.719616 
L 123.876543 241.889188 
L 124.526294 239.935654 
L 125.578891 238.207493 
L 126.033716 236.742816 
L 127.151288 236.444855 
L 127.645099 237.685396 
L 128.723685 237.981412 
L 129.269476 238.920599 
L 130.335067 238.853622 
L 130.789893 239.658997 
L 131.99843 239.159027 
L 132.44026 239.494948 
L 133.583822 240.505446 
L 133.999663 240.444877 
L 135.117234 240.937735 
L 135.54607 240.615637 
L 136.715621 240.540798 
L 137.118467 241.089903 
L 138.223044 241.787453 
L 138.768834 241.523664 
L 139.899401 241.911734 
L 140.367222 242.468195 
L 141.471798 242.11247 
L 142.004594 242.191189 
L 143.122166 241.638006 
L 143.693946 241.941441 
L 144.876493 241.977016 
L 145.331319 241.669152 
L 146.39691 242.133213 
L 147.189606 242.609521 
L 148.839974 242.717188 
L 149.50272 242.849388 
L 150.425366 243.849246 
L 151.244052 244.273965 
L 152.075733 244.085757 
L 152.985385 244.171205 
L 154.583772 242.647452 
L 155.493423 242.925811 
L 156.338099 242.994255 
L 157.16978 242.377641 
L 158.014457 242.297084 
L 158.820148 241.232276 
L 159.794774 240.557252 
L 160.392545 240.519364 
L 161.964942 241.822645 
L 162.952564 242.053436 
L 163.576325 241.94425 
L 164.485976 242.381526 
L 165.109737 243.342177 
L 166.201318 243.562634 
L 166.643149 244.156716 
L 168.306511 244.755252 
L 169.567028 244.255673 
L 169.865913 244.41333 
L 171.2044 244.288378 
L 171.594251 243.901868 
L 172.945733 243.824858 
L 173.270608 243.11872 
L 174.49214 242.605498 
L 175.128896 241.798071 
L 176.051542 241.639895 
L 176.883223 240.982892 
L 177.662925 240.639894 
L 178.572576 241.217508 
L 179.430247 240.418104 
L 181.054624 240.106023 
L 181.678385 239.811055 
L 182.717987 239.945192 
L 183.419718 239.8305 
L 184.485309 239.796129 
L 185.200035 240.771995 
L 186.174662 240.596779 
L 187.136293 239.195887 
L 187.838024 239.862327 
L 188.63072 239.976856 
L 189.215496 240.622888 
L 190.463018 240.253578 
L 190.878858 240.295503 
L 192.243335 239.850593 
L 192.919076 239.441471 
L 193.880708 237.430941 
L 195.4661 238.865187 
L 196.089861 238.935465 
L 197.142457 240.871126 
L 198.104089 243.54507 
L 199.19567 248.293908 
L 199.897401 250.570513 
L 200.300247 254.668231 
L 201.248883 255.559556 
L 201.651729 256.926025 
L 202.5094 258.75012 
L 203.600981 259.496575 
L 204.367687 259.443836 
L 205.082413 259.188363 
L 205.667189 258.320974 
L 206.407905 257.687744 
L 207.161616 255.789226 
L 207.759387 255.383926 
L 208.435128 255.776122 
L 209.37077 255.129368 
L 209.73463 254.52733 
L 210.761236 254.413323 
L 211.151087 253.251368 
L 212.190689 253.001157 
L 213.555165 251.566988 
L 214.243901 252.454376 
L 215.387463 251.006099 
L 216.063204 247.558768 
L 217.206766 245.163654 
L 217.609611 243.619589 
L 219.013073 240.839677 
L 219.623839 238.202927 
L 220.988316 235.86489 
L 221.261211 235.006029 
L 222.677668 233.284244 
L 222.989549 231.89926 
L 224.094125 232.104333 
L 224.354026 234.935481 
L 225.627538 236.332151 
L 226.095358 236.446662 
L 227.810701 240.152912 
L 228.538422 240.992148 
L 229.188173 242.174248 
L 230.279754 243.540257 
L 230.981485 241.705371 
L 232.034082 241.876817 
L 232.787793 239.125448 
L 233.775414 237.985485 
L 234.56811 237.556723 
L 235.607712 235.77842 
L 235.971572 235.639774 
L 237.336049 234.984033 
L 237.842855 232.623976 
L 238.960426 231.760973 
L 239.909063 232.80575 
L 240.506834 232.390005 
L 241.442475 233.542566 
L 242.235171 233.98706 
L 243.157817 234.088267 
L 243.560663 235.148658 
L 244.574274 236.377081 
L 244.89915 238.390027 
L 246.042712 240.704262 
L 246.341597 242.393096 
L 247.719069 242.825756 
L 248.134909 242.52704 
L 249.135526 242.677298 
L 249.577357 243.796447 
L 250.577973 244.946757 
L 253.254947 245.660171 
L 255.087244 243.246699 
L 255.49009 235.704033 
L 256.932537 230.953196 
L 258.374984 231.255827 
L 258.569909 231.805617 
L 259.869411 231.351447 
L 260.285252 230.196628 
L 261.870644 228.895632 
L 262.091559 227.151095 
L 263.598981 226.446935 
L 263.754922 232.283892 
L 265.249349 235.190504 
L 265.457269 234.608494 
L 267.419517 233.022864 
L 268.576073 229.168543 
L 270.018521 225.73966 
L 271.201067 222.373922 
L 272.253664 218.369654 
L 273.189305 216.125302 
L 275.047593 214.339265 
L 275.372468 211.066196 
L 277.191771 208.486844 
L 277.607611 204.847336 
L 279.063053 203.560455 
L 279.699809 204.564355 
L 281.207231 204.610755 
L 282.103888 204.872353 
L 283.58532 206.055235 
L 284.741876 205.121895 
L 286.574174 204.174935 
L 287.41885 200.508209 
L 290.459685 196.4059 
L 290.953495 191.74179 
L 293.474529 185.432822 
L 296.164498 176.799055 
L 297.80187 175.163915 
L 300.361889 171.337152 
L 300.855699 170.983018 
L 302.726982 173.237257 
L 303.363738 176.273754 
L 305.10507 179.762124 
L 305.728831 185.197638 
L 307.847019 188.604365 
L 308.093925 190.000121 
L 310.575973 189.669139 
L 311.225724 187.332087 
L 313.122997 188.634106 
L 313.798738 188.436616 
L 315.74799 188.165759 
L 316.462716 187.127046 
L 318.139074 187.116226 
L 318.72385 186.672452 
L 320.426197 187.299877 
L 321.023968 189.206798 
L 322.58337 190.750862 
L 323.376066 193.826851 
L 325.247349 194.591654 
L 325.832125 195.055785 
L 327.391527 196.628091 
L 327.872343 198.309561 
L 329.23682 200.259922 
L 330.146471 201.294892 
L 330.991147 201.394332 
L 332.368619 202.066702 
L 333.889036 200.725059 
L 336.734945 196.948471 
L 337.813532 197.894759 
L 340.2436 195.484049 
L 341.699042 193.295666 
L 343.68728 191.785188 
L 344.440991 188.763171 
L 345.857448 187.024046 
L 346.832074 187.740621 
L 348.833307 188.865365 
L 349.859914 189.276961 
L 351.926122 186.5213 
L 352.757803 184.396318 
L 355.694677 182.02977 
L 356.968189 174.436543 
L 359.437242 168.413315 
L 361.282535 166.116236 
L 367.143288 152.906593 
L 368.884621 151.459098 
L 370.106152 149.964031 
L 370.716918 155.604832 
L 372.003425 160.593237 
L 373.718768 169.03435 
L 377.253413 172.66042 
L 379.748456 165.81744 
L 381.359838 166.558736 
L 383.750922 178.245979 
L 385.427279 181.21542 
L 388.065268 179.205814 
L 390.937167 171.937513 
L 393.848051 155.929418 
L 395.069583 144.914971 
L 397.577621 140.11937 
L 397.577621 140.11937 
" clip-path="url(#p49d612edab)" style="fill: none; stroke: #1f77b4; stroke-width: 1.5; stroke-linecap: square"/>
   </g>
   <g id="line2d_16">
    <path d="M 80.109321 291.526805 
L 86.60683 286.384463 
L 93.10434 269.501767 
L 99.601849 271.270191 
L 106.099358 267.89544 
L 112.596867 263.635605 
L 119.094376 236.140318 
L 125.591886 240.217815 
L 132.089395 240.943801 
L 138.586904 247.379518 
L 145.084413 245.700418 
L 151.581923 243.062987 
L 158.079432 244.76719 
L 164.576941 243.161172 
L 171.07445 238.80265 
L 177.571959 239.060017 
L 184.069469 266.832417 
L 190.566978 238.936002 
L 197.064487 265.722794 
L 203.561996 252.996061 
L 210.059505 244.753772 
L 216.557015 245.088786 
L 223.054524 260.867083 
L 229.552033 240.357595 
L 236.049542 237.747585 
L 242.547052 251.371502 
L 249.044561 246.963738 
L 255.54207 230.747117 
L 262.039579 230.713571 
L 268.537088 231.957245 
L 275.034598 201.956276 
L 281.532107 216.685565 
L 288.029616 175.073241 
L 294.527125 203.603258 
L 301.024634 204.019892 
L 307.522144 197.952164 
L 314.019653 199.058475 
L 320.517162 200.161707 
L 327.014671 201.178771 
L 333.512181 191.451174 
L 340.00969 200.825439 
L 346.507199 196.554948 
L 353.004708 193.860029 
L 359.502217 151.456368 
L 365.999727 156.040329 
L 372.497236 184.654064 
L 378.994745 244.361828 
L 385.492254 112.261607 
L 391.989764 53.568 
L 398.487273 182.220481 
" clip-path="url(#p49d612edab)" style="fill: none; stroke: #ff7f0e; stroke-width: 1.5; stroke-linecap: square"/>
   </g>
   <g id="line2d_17">
    <path d="M 73.832727 295.212104 
L 74.157603 294.986649 
L 74.482478 294.480314 
L 74.638418 294.234178 
L 75.067254 294.192796 
L 75.210199 293.788448 
L 75.60005 293.396212 
L 75.75599 293.21756 
L 75.91193 293.209163 
L 76.080865 293.0358 
L 76.379751 293.160997 
L 76.470716 292.937884 
L 76.665641 292.961999 
L 76.977522 293.364603 
L 77.250417 293.643828 
L 77.458337 293.594528 
L 77.718238 293.795309 
L 78.484944 293.852243 
L 78.640884 293.756335 
L 78.835809 293.496794 
L 79.238655 293.688664 
L 79.394595 293.58791 
L 79.667491 293.866764 
L 80.057341 294.05686 
L 80.200286 294.277458 
L 80.356227 294.155098 
L 80.499172 294.280191 
L 80.603132 294.16385 
L 80.733082 294.296781 
L 81.304863 294.233922 
L 81.603748 293.843812 
L 81.811669 293.909163 
L 81.967609 293.715932 
L 82.110554 293.301435 
L 82.98122 293.02996 
L 83.150155 292.757307 
L 83.371071 292.151502 
L 83.591986 292.33622 
L 83.864882 291.939836 
L 84.176762 291.932635 
L 84.397677 291.726794 
L 84.748543 291.009159 
L 85.112403 290.699128 
L 85.450274 289.463526 
L 86.048045 288.786691 
L 86.437895 288.851185 
L 86.879726 287.827984 
L 87.269576 287.513138 
L 87.776382 286.353591 
L 88.270193 285.707814 
L 88.595068 285.521335 
L 88.958929 284.671047 
L 89.244819 284.800494 
L 90.310411 283.772804 
L 90.648281 283.678449 
L 90.791226 283.450397 
L 91.181077 283.809967 
L 91.739863 283.842636 
L 92.909414 281.271981 
L 93.247285 279.374062 
L 93.975006 277.507574 
L 94.338866 275.943432 
L 95.157553 273.826835 
L 95.482428 271.973677 
L 96.340099 270.357651 
L 96.80792 268.32458 
L 97.665591 266.092279 
L 98.055442 264.672724 
L 100.09566 264.255942 
L 100.316575 264.331752 
L 101.447141 264.306885 
L 101.603082 263.8966 
L 102.681668 263.57139 
L 102.889588 263.338269 
L 104.03315 263.263735 
L 104.254065 263.079877 
L 105.475597 262.823848 
L 105.631537 261.968034 
L 106.736114 261.572785 
L 106.866064 261.004669 
L 108.139576 260.329139 
L 109.413088 259.470913 
L 109.556033 258.591272 
L 110.933505 257.832046 
L 112.207017 257.682302 
L 112.375952 258.011944 
L 113.571494 257.486212 
L 113.766419 256.795353 
L 115.052926 256.562786 
L 115.325821 255.668778 
L 116.755273 255.528934 
L 118.01579 255.471378 
L 118.184725 255.24031 
L 119.497222 254.863453 
L 119.705142 254.234823 
L 121.212564 253.599705 
L 122.784962 253.429386 
L 125.669856 252.438582 
L 125.877776 251.814614 
L 127.294233 250.965687 
L 127.814034 250.10194 
L 129.009576 249.066446 
L 129.347446 248.149063 
L 130.529993 247.426832 
L 131.010808 246.955457 
L 132.20635 246.896882 
L 132.505235 246.195974 
L 133.869712 245.524407 
L 134.051643 245.133319 
L 135.44211 245.372963 
L 135.507085 245.891813 
L 137.040497 246.283596 
L 137.131462 246.443619 
L 138.716854 246.487015 
L 140.276257 245.635469 
L 140.367222 245.227663 
L 142.004594 244.711774 
L 142.056574 243.983878 
L 143.589986 243.431722 
L 143.693946 242.981045 
L 145.201368 242.802947 
L 145.383299 242.505549 
L 146.773766 242.12455 
L 147.020671 241.914966 
L 148.450123 241.885194 
L 148.710023 241.728744 
L 150.0745 242.399045 
L 150.269426 243.094728 
L 151.620908 243.59657 
L 151.867813 243.091064 
L 153.271275 243.171999 
L 153.427215 243.520787 
L 154.986617 243.895458 
L 156.403074 244.815052 
L 156.585005 245.509281 
L 159.404924 245.897771 
L 159.612844 246.769287 
L 160.860366 247.289407 
L 161.120266 247.571838 
L 162.432763 247.62978 
L 164.252066 246.817829 
L 165.837458 247.150448 
L 167.18894 247.046475 
L 167.513815 246.540541 
L 168.800322 246.200719 
L 169.151187 245.583343 
L 170.801555 244.834359 
L 172.127047 244.798616 
L 172.386947 244.256163 
L 173.790409 243.485023 
L 174.063304 242.821874 
L 175.440776 242.044035 
L 175.752657 241.400053 
L 177.039164 241.663726 
L 177.429014 241.38398 
L 178.715521 241.740599 
L 179.131362 241.578917 
L 180.339898 241.526171 
L 180.781729 241.652733 
L 182.003261 241.702876 
L 182.406106 242.195586 
L 183.601648 242.976872 
L 184.056474 243.607114 
L 185.148055 243.183228 
L 185.693846 243.652835 
L 186.733447 243.363435 
L 187.357208 243.493142 
L 188.37082 242.967073 
L 188.968591 243.136944 
L 189.943217 243.241929 
L 190.670938 242.546165 
L 193.243952 241.000208 
L 193.932688 240.433035 
L 194.894319 240.370937 
L 195.62204 240.082707 
L 196.570676 240.356823 
L 196.973522 240.882407 
L 198.727849 240.87172 
L 199.910396 240.621399 
L 200.404207 240.749786 
L 201.612744 240.753051 
L 202.028584 240.283282 
L 203.523011 239.188575 
L 203.925857 238.013554 
L 205.433279 236.839075 
L 205.823129 234.750979 
L 207.356542 233.195643 
L 207.694412 232.176956 
L 209.084879 231.272925 
L 209.50072 230.457221 
L 211.255047 231.895647 
L 212.359624 231.745882 
L 212.91841 232.579855 
L 214.126946 233.147341 
L 215.998229 233.049446 
L 216.64798 233.611481 
L 217.700576 233.262875 
L 218.519262 233.190995 
L 219.636834 231.078287 
L 220.416535 230.056304 
L 221.430147 230.334792 
L 222.157868 229.594646 
L 223.262444 228.68979 
L 223.990165 229.123973 
L 225.341647 229.042397 
L 226.069368 228.015091 
L 227.21293 227.723704 
L 227.784711 227.265816 
L 229.136193 227.465814 
L 229.811933 226.372579 
L 230.747575 226.080589 
L 231.566261 227.44294 
L 232.436927 228.55168 
L 233.346579 229.015092 
L 234.477145 229.307998 
L 235.217861 230.487224 
L 236.205483 230.916329 
L 237.128129 231.748427 
L 238.024785 232.860799 
L 238.791491 234.22085 
L 239.766118 234.701525 
L 241.58542 233.460896 
L 242.248166 233.341514 
L 243.404723 233.783978 
L 244.080464 232.929807 
L 244.990115 234.079631 
L 246.133677 233.265897 
L 246.705457 233.531617 
L 247.939984 233.748183 
L 248.55075 233.602432 
L 249.603347 233.49095 
L 250.500003 234.019569 
L 250.863863 235.706422 
L 252.059405 236.282494 
L 252.891086 237.003127 
L 253.735762 236.176955 
L 254.684399 236.259927 
L 255.503085 235.928618 
L 257.140457 236.664375 
L 257.647263 237.232312 
L 258.842805 238.088983 
L 259.102705 237.600607 
L 260.999978 235.395768 
L 261.441808 232.703684 
L 262.858265 233.040649 
L 263.417051 232.621044 
L 264.625588 232.474473 
L 265.093409 231.738067 
L 266.21098 231.455568 
L 266.990681 231.458611 
L 267.653427 230.777864 
L 268.602064 230.268732 
L 270.421366 234.778885 
L 271.318022 234.004805 
L 272.006758 234.956897 
L 273.22829 235.057551 
L 273.735096 234.830349 
L 274.579772 236.17789 
L 275.320488 236.87283 
L 276.113184 238.142173 
L 276.93187 237.631949 
L 277.971472 237.853452 
L 278.582238 238.367725 
L 279.894735 239.121712 
L 280.206615 238.764313 
L 281.129261 239.491911 
L 281.610077 242.436219 
L 282.584703 242.297303 
L 282.909579 243.286128 
L 284.144106 243.857031 
L 284.339031 244.930408 
L 285.508582 245.98824 
L 285.859448 247.632911 
L 286.860064 248.687574 
L 287.2889 250.688141 
L 288.341497 251.037978 
L 288.848302 249.881065 
L 290.030849 248.099911 
L 290.667605 246.132184 
L 291.746191 245.052177 
L 292.291982 244.30224 
L 293.227623 242.570079 
L 294.25423 241.1501 
L 295.124896 239.710178 
L 296.853234 234.860945 
L 297.67192 234.152334 
L 298.542586 235.053277 
L 299.595182 232.605416 
L 300.517829 229.978035 
L 301.55743 227.929016 
L 303.415718 225.667972 
L 304.234404 225.544163 
L 305.416951 225.6516 
L 306.066702 225.309032 
L 307.275238 224.272214 
L 307.834024 223.418866 
L 309.302461 224.63998 
L 310.030182 224.456263 
L 311.264709 224.448098 
L 311.96644 224.184257 
L 313.135992 224.062637 
L 314.344528 223.648882 
L 315.111234 222.905873 
L 317.190437 222.281873 
L 318.152069 221.393216 
L 319.126695 221.273382 
L 320.127312 222.188838 
L 321.179908 222.915198 
L 321.998594 223.307708 
L 323.077181 223.639941 
L 323.895867 224.072434 
L 325.351309 225.096731 
L 327.599447 222.975342 
L 328.340163 220.522966 
L 330.055506 218.562577 
L 331.173077 215.966378 
L 332.459584 212.696677 
L 333.499186 211.613612 
L 336.916875 206.967725 
L 337.878507 206.317853 
L 339.009073 207.03019 
L 339.749789 209.8471 
L 341.010306 211.703129 
L 341.764017 213.202916 
L 343.388395 214.521632 
L 344.116116 213.555243 
L 345.857448 211.964625 
L 346.546184 210.304715 
L 348.222541 209.519585 
L 349.171178 208.611317 
L 350.340729 208.07695 
L 351.588251 206.581286 
L 352.939733 203.817923 
L 354.17426 202.261031 
L 356.227473 200.793991 
L 357.526975 197.13627 
L 358.670536 195.327225 
L 360.437859 194.230001 
L 363.127828 188.700184 
L 365.194036 184.619492 
L 366.623488 179.921792 
L 367.780044 179.568747 
L 369.508382 178.577653 
L 370.755903 178.067713 
L 373.432877 179.776426 
L 374.940299 180.025032 
L 376.291781 181.371743 
L 378.942765 180.528888 
L 379.839421 179.668901 
L 381.619739 179.431132 
L 383.101171 176.823804 
L 384.634583 173.548024 
L 386.297945 171.322063 
L 387.922323 171.274535 
L 389.39076 168.946854 
L 392.340629 165.32855 
L 393.744091 165.359938 
L 395.771314 165.824821 
L 397.031831 166.660999 
L 397.031831 166.660999 
" clip-path="url(#p49d612edab)" style="fill: none; stroke: #2ca02c; stroke-width: 1.5; stroke-linecap: square"/>
   </g>
   <g id="patch_3">
    <path d="M 57.6 307.584 
L 57.6 41.472 
" style="fill: none; stroke: #000000; stroke-width: 0.8; stroke-linejoin: miter; stroke-linecap: square"/>
   </g>
   <g id="patch_4">
    <path d="M 414.72 307.584 
L 414.72 41.472 
" style="fill: none; stroke: #000000; stroke-width: 0.8; stroke-linejoin: miter; stroke-linecap: square"/>
   </g>
   <g id="patch_5">
    <path d="M 57.6 307.584 
L 414.72 307.584 
" style="fill: none; stroke: #000000; stroke-width: 0.8; stroke-linejoin: miter; stroke-linecap: square"/>
   </g>
   <g id="patch_6">
    <path d="M 57.6 41.472 
L 414.72 41.472 
" style="fill: none; stroke: #000000; stroke-width: 0.8; stroke-linejoin: miter; stroke-linecap: square"/>
   </g>
   <g id="text_17">
    <!-- learning curve -->
    <g transform="translate(192.96375 35.472) scale(0.12 -0.12)">
     <defs>
      <path id="DejaVuSans-6c" d="M 603 4863 
L 1178 4863 
L 1178 0 
L 603 0 
L 603 4863 
z
" transform="scale(0.015625)"/>
      <path id="DejaVuSans-67" d="M 2906 1791 
Q 2906 2416 2648 2759 
Q 2391 3103 1925 3103 
Q 1463 3103 1205 2759 
Q 947 2416 947 1791 
Q 947 1169 1205 825 
Q 1463 481 1925 481 
Q 2391 481 2648 825 
Q 2906 1169 2906 1791 
z
M 3481 434 
Q 3481 -459 3084 -895 
Q 2688 -1331 1869 -1331 
Q 1566 -1331 1297 -1286 
Q 1028 -1241 775 -1147 
L 775 -588 
Q 1028 -725 1275 -790 
Q 1522 -856 1778 -856 
Q 2344 -856 2625 -561 
Q 2906 -266 2906 331 
L 2906 616 
Q 2728 306 2450 153 
Q 2172 0 1784 0 
Q 1141 0 747 490 
Q 353 981 353 1791 
Q 353 2603 747 3093 
Q 1141 3584 1784 3584 
Q 2172 3584 2450 3431 
Q 2728 3278 2906 2969 
L 2906 3500 
L 3481 3500 
L 3481 434 
z
" transform="scale(0.015625)"/>
      <path id="DejaVuSans-63" d="M 3122 3366 
L 3122 2828 
Q 2878 2963 2633 3030 
Q 2388 3097 2138 3097 
Q 1578 3097 1268 2742 
Q 959 2388 959 1747 
Q 959 1106 1268 751 
Q 1578 397 2138 397 
Q 2388 397 2633 464 
Q 2878 531 3122 666 
L 3122 134 
Q 2881 22 2623 -34 
Q 2366 -91 2075 -91 
Q 1284 -91 818 406 
Q 353 903 353 1747 
Q 353 2603 823 3093 
Q 1294 3584 2113 3584 
Q 2378 3584 2631 3529 
Q 2884 3475 3122 3366 
z
" transform="scale(0.015625)"/>
      <path id="DejaVuSans-75" d="M 544 1381 
L 544 3500 
L 1119 3500 
L 1119 1403 
Q 1119 906 1312 657 
Q 1506 409 1894 409 
Q 2359 409 2629 706 
Q 2900 1003 2900 1516 
L 2900 3500 
L 3475 3500 
L 3475 0 
L 2900 0 
L 2900 538 
Q 2691 219 2414 64 
Q 2138 -91 1772 -91 
Q 1169 -91 856 284 
Q 544 659 544 1381 
z
M 1991 3584 
L 1991 3584 
z
" transform="scale(0.015625)"/>
      <path id="DejaVuSans-76" d="M 191 3500 
L 800 3500 
L 1894 563 
L 2988 3500 
L 3597 3500 
L 2284 0 
L 1503 0 
L 191 3500 
z
" transform="scale(0.015625)"/>
     </defs>
     <use xlink:href="#DejaVuSans-6c"/>
     <use xlink:href="#DejaVuSans-65" x="27.783203"/>
     <use xlink:href="#DejaVuSans-61" x="89.306641"/>
     <use xlink:href="#DejaVuSans-72" x="150.585938"/>
     <use xlink:href="#DejaVuSans-6e" x="189.949219"/>
     <use xlink:href="#DejaVuSans-69" x="253.328125"/>
     <use xlink:href="#DejaVuSans-6e" x="281.111328"/>
     <use xlink:href="#DejaVuSans-67" x="344.490234"/>
     <use xlink:href="#DejaVuSans-20" x="407.966797"/>
     <use xlink:href="#DejaVuSans-63" x="439.753906"/>
     <use xlink:href="#DejaVuSans-75" x="494.734375"/>
     <use xlink:href="#DejaVuSans-72" x="558.113281"/>
     <use xlink:href="#DejaVuSans-76" x="599.226562"/>
     <use xlink:href="#DejaVuSans-65" x="658.40625"/>
    </g>
   </g>
   <g id="legend_1">
    <g id="patch_7">
     <path d="M 64.6 93.506375 
L 166.614062 93.506375 
Q 168.614062 93.506375 168.614062 91.506375 
L 168.614062 48.472 
Q 168.614062 46.472 166.614062 46.472 
L 64.6 46.472 
Q 62.6 46.472 62.6 48.472 
L 62.6 91.506375 
Q 62.6 93.506375 64.6 93.506375 
z
" style="fill: #ffffff; opacity: 0.8; stroke: #cccccc; stroke-linejoin: miter"/>
    </g>
    <g id="line2d_18">
     <path d="M 66.6 54.570438 
L 76.6 54.570438 
L 86.6 54.570438 
" style="fill: none; stroke: #1f77b4; stroke-width: 1.5; stroke-linecap: square"/>
    </g>
    <g id="text_18">
     <!-- source-source -->
     <g transform="translate(94.6 58.070438) scale(0.1 -0.1)">
      <defs>
       <path id="DejaVuSans-2d" d="M 313 2009 
L 1997 2009 
L 1997 1497 
L 313 1497 
L 313 2009 
z
" transform="scale(0.015625)"/>
      </defs>
      <use xlink:href="#DejaVuSans-73"/>
      <use xlink:href="#DejaVuSans-6f" x="52.099609"/>
      <use xlink:href="#DejaVuSans-75" x="113.28125"/>
      <use xlink:href="#DejaVuSans-72" x="176.660156"/>
      <use xlink:href="#DejaVuSans-63" x="215.523438"/>
      <use xlink:href="#DejaVuSans-65" x="270.503906"/>
      <use xlink:href="#DejaVuSans-2d" x="332.027344"/>
      <use xlink:href="#DejaVuSans-73" x="368.111328"/>
      <use xlink:href="#DejaVuSans-6f" x="420.210938"/>
      <use xlink:href="#DejaVuSans-75" x="481.392578"/>
      <use xlink:href="#DejaVuSans-72" x="544.771484"/>
      <use xlink:href="#DejaVuSans-63" x="583.634766"/>
      <use xlink:href="#DejaVuSans-65" x="638.615234"/>
     </g>
    </g>
    <g id="line2d_19">
     <path d="M 66.6 69.248563 
L 76.6 69.248563 
L 86.6 69.248563 
" style="fill: none; stroke: #ff7f0e; stroke-width: 1.5; stroke-linecap: square"/>
    </g>
    <g id="text_19">
     <!-- source-target -->
     <g transform="translate(94.6 72.748563) scale(0.1 -0.1)">
      <use xlink:href="#DejaVuSans-73"/>
      <use xlink:href="#DejaVuSans-6f" x="52.099609"/>
      <use xlink:href="#DejaVuSans-75" x="113.28125"/>
      <use xlink:href="#DejaVuSans-72" x="176.660156"/>
      <use xlink:href="#DejaVuSans-63" x="215.523438"/>
      <use xlink:href="#DejaVuSans-65" x="270.503906"/>
      <use xlink:href="#DejaVuSans-2d" x="332.027344"/>
      <use xlink:href="#DejaVuSans-74" x="368.111328"/>
      <use xlink:href="#DejaVuSans-61" x="407.320312"/>
      <use xlink:href="#DejaVuSans-72" x="468.599609"/>
      <use xlink:href="#DejaVuSans-67" x="507.962891"/>
      <use xlink:href="#DejaVuSans-65" x="571.439453"/>
      <use xlink:href="#DejaVuSans-74" x="632.962891"/>
     </g>
    </g>
    <g id="line2d_20">
     <path d="M 66.6 83.926688 
L 76.6 83.926688 
L 86.6 83.926688 
" style="fill: none; stroke: #2ca02c; stroke-width: 1.5; stroke-linecap: square"/>
    </g>
    <g id="text_20">
     <!-- target-target -->
     <g transform="translate(94.6 87.426688) scale(0.1 -0.1)">
      <use xlink:href="#DejaVuSans-74"/>
      <use xlink:href="#DejaVuSans-61" x="39.208984"/>
      <use xlink:href="#DejaVuSans-72" x="100.488281"/>
      <use xlink:href="#DejaVuSans-67" x="139.851562"/>
      <use xlink:href="#DejaVuSans-65" x="203.328125"/>
      <use xlink:href="#DejaVuSans-74" x="264.851562"/>
      <use xlink:href="#DejaVuSans-2d" x="304.060547"/>
      <use xlink:href="#DejaVuSans-74" x="340.144531"/>
      <use xlink:href="#DejaVuSans-61" x="379.353516"/>
      <use xlink:href="#DejaVuSans-72" x="440.632812"/>
      <use xlink:href="#DejaVuSans-67" x="479.996094"/>
      <use xlink:href="#DejaVuSans-65" x="543.472656"/>
      <use xlink:href="#DejaVuSans-74" x="604.996094"/>
     </g>
    </g>
   </g>
  </g>
 </g>
 <defs>
  <clipPath id="p49d612edab">
   <rect x="57.6" y="41.472" width="357.12" height="266.112"/>
  </clipPath>
 </defs>
</svg>
