<?xml version="1.0" encoding="utf-8" standalone="no"?>
<!DOCTYPE svg PUBLIC "-//W3C//DTD SVG 1.1//EN"
  "http://www.w3.org/Graphics/SVG/1.1/DTD/svg11.dtd">
<svg xmlns:xlink="http://www.w3.org/1999/xlink" width="460.8pt" height="345.6pt" viewBox="0 0 460.8 345.6" xmlns="http://www.w3.org/2000/svg" version="1.1">
 <metadata>
  <rdf:RDF xmlns:dc="http://purl.org/dc/elements/1.1/" xmlns:cc="http://creativecommons.org/ns#" xmlns:rdf="http://www.w3.org/1999/02/22-rdf-syntax-ns#">
   <cc:Work>
    <dc:type rdf:resource="http://purl.org/dc/dcmitype/StillImage"/>
    <dc:date>2023-08-19T13:47:20.206796</dc:date>
    <dc:format>image/svg+xml</dc:format>
    <dc:creator>
     <cc:Agent>
      <dc:title>Matplotlib v3.7.1, https://matplotlib.org/</dc:title>
     </cc:Agent>
    </dc:creator>
   </cc:Work>
  </rdf:RDF>
 </metadata>
 <defs>
  <style type="text/css">*{stroke-linejoin: round; stroke-linecap: butt}</style>
 </defs>
 <g id="figure_1">
  <g id="patch_1">
   <path d="M 0 345.6 
L 460.8 345.6 
L 460.8 0 
L 0 0 
z
" style="fill: #ffffff"/>
  </g>
  <g id="axes_1">
   <g id="patch_2">
    <path d="M 57.6 307.584 
L 414.72 307.584 
L 414.72 41.472 
L 57.6 41.472 
z
" style="fill: #ffffff"/>
   </g>
   <g id="matplotlib.axis_1">
    <g id="xtick_1">
     <g id="line2d_1">
      <defs>
       <path id="mdc64d375e7" d="M 0 0 
L 0 3.5 
" style="stroke: #000000; stroke-width: 0.8"/>
      </defs>
      <g>
       <use xlink:href="#mdc64d375e7" x="67.12032" y="307.584" style="stroke: #000000; stroke-width: 0.8"/>
      </g>
     </g>
     <g id="text_1">
      <!-- 0 -->
      <g transform="translate(63.93907 322.182437) scale(0.1 -0.1)">
       <defs>
        <path id="DejaVuSans-30" d="M 2034 4250 
Q 1547 4250 1301 3770 
Q 1056 3291 1056 2328 
Q 1056 1369 1301 889 
Q 1547 409 2034 409 
Q 2525 409 2770 889 
Q 3016 1369 3016 2328 
Q 3016 3291 2770 3770 
Q 2525 4250 2034 4250 
z
M 2034 4750 
Q 2819 4750 3233 4129 
Q 3647 3509 3647 2328 
Q 3647 1150 3233 529 
Q 2819 -91 2034 -91 
Q 1250 -91 836 529 
Q 422 1150 422 2328 
Q 422 3509 836 4129 
Q 1250 4750 2034 4750 
z
" transform="scale(0.015625)"/>
       </defs>
       <use xlink:href="#DejaVuSans-30"/>
      </g>
     </g>
    </g>
    <g id="xtick_2">
     <g id="line2d_2">
      <g>
       <use xlink:href="#mdc64d375e7" x="133.579797" y="307.584" style="stroke: #000000; stroke-width: 0.8"/>
      </g>
     </g>
     <g id="text_2">
      <!-- 100000 -->
      <g transform="translate(114.492297 322.182437) scale(0.1 -0.1)">
       <defs>
        <path id="DejaVuSans-31" d="M 794 531 
L 1825 531 
L 1825 4091 
L 703 3866 
L 703 4441 
L 1819 4666 
L 2450 4666 
L 2450 531 
L 3481 531 
L 3481 0 
L 794 0 
L 794 531 
z
" transform="scale(0.015625)"/>
       </defs>
       <use xlink:href="#DejaVuSans-31"/>
       <use xlink:href="#DejaVuSans-30" x="63.623047"/>
       <use xlink:href="#DejaVuSans-30" x="127.246094"/>
       <use xlink:href="#DejaVuSans-30" x="190.869141"/>
       <use xlink:href="#DejaVuSans-30" x="254.492188"/>
       <use xlink:href="#DejaVuSans-30" x="318.115234"/>
      </g>
     </g>
    </g>
    <g id="xtick_3">
     <g id="line2d_3">
      <g>
       <use xlink:href="#mdc64d375e7" x="200.039274" y="307.584" style="stroke: #000000; stroke-width: 0.8"/>
      </g>
     </g>
     <g id="text_3">
      <!-- 200000 -->
      <g transform="translate(180.951774 322.182437) scale(0.1 -0.1)">
       <defs>
        <path id="DejaVuSans-32" d="M 1228 531 
L 3431 531 
L 3431 0 
L 469 0 
L 469 531 
Q 828 903 1448 1529 
Q 2069 2156 2228 2338 
Q 2531 2678 2651 2914 
Q 2772 3150 2772 3378 
Q 2772 3750 2511 3984 
Q 2250 4219 1831 4219 
Q 1534 4219 1204 4116 
Q 875 4013 500 3803 
L 500 4441 
Q 881 4594 1212 4672 
Q 1544 4750 1819 4750 
Q 2544 4750 2975 4387 
Q 3406 4025 3406 3419 
Q 3406 3131 3298 2873 
Q 3191 2616 2906 2266 
Q 2828 2175 2409 1742 
Q 1991 1309 1228 531 
z
" transform="scale(0.015625)"/>
       </defs>
       <use xlink:href="#DejaVuSans-32"/>
       <use xlink:href="#DejaVuSans-30" x="63.623047"/>
       <use xlink:href="#DejaVuSans-30" x="127.246094"/>
       <use xlink:href="#DejaVuSans-30" x="190.869141"/>
       <use xlink:href="#DejaVuSans-30" x="254.492188"/>
       <use xlink:href="#DejaVuSans-30" x="318.115234"/>
      </g>
     </g>
    </g>
    <g id="xtick_4">
     <g id="line2d_4">
      <g>
       <use xlink:href="#mdc64d375e7" x="266.498751" y="307.584" style="stroke: #000000; stroke-width: 0.8"/>
      </g>
     </g>
     <g id="text_4">
      <!-- 300000 -->
      <g transform="translate(247.411251 322.182437) scale(0.1 -0.1)">
       <defs>
        <path id="DejaVuSans-33" d="M 2597 2516 
Q 3050 2419 3304 2112 
Q 3559 1806 3559 1356 
Q 3559 666 3084 287 
Q 2609 -91 1734 -91 
Q 1441 -91 1130 -33 
Q 819 25 488 141 
L 488 750 
Q 750 597 1062 519 
Q 1375 441 1716 441 
Q 2309 441 2620 675 
Q 2931 909 2931 1356 
Q 2931 1769 2642 2001 
Q 2353 2234 1838 2234 
L 1294 2234 
L 1294 2753 
L 1863 2753 
Q 2328 2753 2575 2939 
Q 2822 3125 2822 3475 
Q 2822 3834 2567 4026 
Q 2313 4219 1838 4219 
Q 1578 4219 1281 4162 
Q 984 4106 628 3988 
L 628 4550 
Q 988 4650 1302 4700 
Q 1616 4750 1894 4750 
Q 2613 4750 3031 4423 
Q 3450 4097 3450 3541 
Q 3450 3153 3228 2886 
Q 3006 2619 2597 2516 
z
" transform="scale(0.015625)"/>
       </defs>
       <use xlink:href="#DejaVuSans-33"/>
       <use xlink:href="#DejaVuSans-30" x="63.623047"/>
       <use xlink:href="#DejaVuSans-30" x="127.246094"/>
       <use xlink:href="#DejaVuSans-30" x="190.869141"/>
       <use xlink:href="#DejaVuSans-30" x="254.492188"/>
       <use xlink:href="#DejaVuSans-30" x="318.115234"/>
      </g>
     </g>
    </g>
    <g id="xtick_5">
     <g id="line2d_5">
      <g>
       <use xlink:href="#mdc64d375e7" x="332.958228" y="307.584" style="stroke: #000000; stroke-width: 0.8"/>
      </g>
     </g>
     <g id="text_5">
      <!-- 400000 -->
      <g transform="translate(313.870728 322.182437) scale(0.1 -0.1)">
       <defs>
        <path id="DejaVuSans-34" d="M 2419 4116 
L 825 1625 
L 2419 1625 
L 2419 4116 
z
M 2253 4666 
L 3047 4666 
L 3047 1625 
L 3713 1625 
L 3713 1100 
L 3047 1100 
L 3047 0 
L 2419 0 
L 2419 1100 
L 313 1100 
L 313 1709 
L 2253 4666 
z
" transform="scale(0.015625)"/>
       </defs>
       <use xlink:href="#DejaVuSans-34"/>
       <use xlink:href="#DejaVuSans-30" x="63.623047"/>
       <use xlink:href="#DejaVuSans-30" x="127.246094"/>
       <use xlink:href="#DejaVuSans-30" x="190.869141"/>
       <use xlink:href="#DejaVuSans-30" x="254.492188"/>
       <use xlink:href="#DejaVuSans-30" x="318.115234"/>
      </g>
     </g>
    </g>
    <g id="xtick_6">
     <g id="line2d_6">
      <g>
       <use xlink:href="#mdc64d375e7" x="399.417705" y="307.584" style="stroke: #000000; stroke-width: 0.8"/>
      </g>
     </g>
     <g id="text_6">
      <!-- 500000 -->
      <g transform="translate(380.330205 322.182437) scale(0.1 -0.1)">
       <defs>
        <path id="DejaVuSans-35" d="M 691 4666 
L 3169 4666 
L 3169 4134 
L 1269 4134 
L 1269 2991 
Q 1406 3038 1543 3061 
Q 1681 3084 1819 3084 
Q 2600 3084 3056 2656 
Q 3513 2228 3513 1497 
Q 3513 744 3044 326 
Q 2575 -91 1722 -91 
Q 1428 -91 1123 -41 
Q 819 9 494 109 
L 494 744 
Q 775 591 1075 516 
Q 1375 441 1709 441 
Q 2250 441 2565 725 
Q 2881 1009 2881 1497 
Q 2881 1984 2565 2268 
Q 2250 2553 1709 2553 
Q 1456 2553 1204 2497 
Q 953 2441 691 2322 
L 691 4666 
z
" transform="scale(0.015625)"/>
       </defs>
       <use xlink:href="#DejaVuSans-35"/>
       <use xlink:href="#DejaVuSans-30" x="63.623047"/>
       <use xlink:href="#DejaVuSans-30" x="127.246094"/>
       <use xlink:href="#DejaVuSans-30" x="190.869141"/>
       <use xlink:href="#DejaVuSans-30" x="254.492188"/>
       <use xlink:href="#DejaVuSans-30" x="318.115234"/>
      </g>
     </g>
    </g>
    <g id="text_7">
     <!-- timesteps -->
     <g transform="translate(211.443594 335.860562) scale(0.1 -0.1)">
      <defs>
       <path id="DejaVuSans-74" d="M 1172 4494 
L 1172 3500 
L 2356 3500 
L 2356 3053 
L 1172 3053 
L 1172 1153 
Q 1172 725 1289 603 
Q 1406 481 1766 481 
L 2356 481 
L 2356 0 
L 1766 0 
Q 1100 0 847 248 
Q 594 497 594 1153 
L 594 3053 
L 172 3053 
L 172 3500 
L 594 3500 
L 594 4494 
L 1172 4494 
z
" transform="scale(0.015625)"/>
       <path id="DejaVuSans-69" d="M 603 3500 
L 1178 3500 
L 1178 0 
L 603 0 
L 603 3500 
z
M 603 4863 
L 1178 4863 
L 1178 4134 
L 603 4134 
L 603 4863 
z
" transform="scale(0.015625)"/>
       <path id="DejaVuSans-6d" d="M 3328 2828 
Q 3544 3216 3844 3400 
Q 4144 3584 4550 3584 
Q 5097 3584 5394 3201 
Q 5691 2819 5691 2113 
L 5691 0 
L 5113 0 
L 5113 2094 
Q 5113 2597 4934 2840 
Q 4756 3084 4391 3084 
Q 3944 3084 3684 2787 
Q 3425 2491 3425 1978 
L 3425 0 
L 2847 0 
L 2847 2094 
Q 2847 2600 2669 2842 
Q 2491 3084 2119 3084 
Q 1678 3084 1418 2786 
Q 1159 2488 1159 1978 
L 1159 0 
L 581 0 
L 581 3500 
L 1159 3500 
L 1159 2956 
Q 1356 3278 1631 3431 
Q 1906 3584 2284 3584 
Q 2666 3584 2933 3390 
Q 3200 3197 3328 2828 
z
" transform="scale(0.015625)"/>
       <path id="DejaVuSans-65" d="M 3597 1894 
L 3597 1613 
L 953 1613 
Q 991 1019 1311 708 
Q 1631 397 2203 397 
Q 2534 397 2845 478 
Q 3156 559 3463 722 
L 3463 178 
Q 3153 47 2828 -22 
Q 2503 -91 2169 -91 
Q 1331 -91 842 396 
Q 353 884 353 1716 
Q 353 2575 817 3079 
Q 1281 3584 2069 3584 
Q 2775 3584 3186 3129 
Q 3597 2675 3597 1894 
z
M 3022 2063 
Q 3016 2534 2758 2815 
Q 2500 3097 2075 3097 
Q 1594 3097 1305 2825 
Q 1016 2553 972 2059 
L 3022 2063 
z
" transform="scale(0.015625)"/>
       <path id="DejaVuSans-73" d="M 2834 3397 
L 2834 2853 
Q 2591 2978 2328 3040 
Q 2066 3103 1784 3103 
Q 1356 3103 1142 2972 
Q 928 2841 928 2578 
Q 928 2378 1081 2264 
Q 1234 2150 1697 2047 
L 1894 2003 
Q 2506 1872 2764 1633 
Q 3022 1394 3022 966 
Q 3022 478 2636 193 
Q 2250 -91 1575 -91 
Q 1294 -91 989 -36 
Q 684 19 347 128 
L 347 722 
Q 666 556 975 473 
Q 1284 391 1588 391 
Q 1994 391 2212 530 
Q 2431 669 2431 922 
Q 2431 1156 2273 1281 
Q 2116 1406 1581 1522 
L 1381 1569 
Q 847 1681 609 1914 
Q 372 2147 372 2553 
Q 372 3047 722 3315 
Q 1072 3584 1716 3584 
Q 2034 3584 2315 3537 
Q 2597 3491 2834 3397 
z
" transform="scale(0.015625)"/>
       <path id="DejaVuSans-70" d="M 1159 525 
L 1159 -1331 
L 581 -1331 
L 581 3500 
L 1159 3500 
L 1159 2969 
Q 1341 3281 1617 3432 
Q 1894 3584 2278 3584 
Q 2916 3584 3314 3078 
Q 3713 2572 3713 1747 
Q 3713 922 3314 415 
Q 2916 -91 2278 -91 
Q 1894 -91 1617 61 
Q 1341 213 1159 525 
z
M 3116 1747 
Q 3116 2381 2855 2742 
Q 2594 3103 2138 3103 
Q 1681 3103 1420 2742 
Q 1159 2381 1159 1747 
Q 1159 1113 1420 752 
Q 1681 391 2138 391 
Q 2594 391 2855 752 
Q 3116 1113 3116 1747 
z
" transform="scale(0.015625)"/>
      </defs>
      <use xlink:href="#DejaVuSans-74"/>
      <use xlink:href="#DejaVuSans-69" x="39.208984"/>
      <use xlink:href="#DejaVuSans-6d" x="66.992188"/>
      <use xlink:href="#DejaVuSans-65" x="164.404297"/>
      <use xlink:href="#DejaVuSans-73" x="225.927734"/>
      <use xlink:href="#DejaVuSans-74" x="278.027344"/>
      <use xlink:href="#DejaVuSans-65" x="317.236328"/>
      <use xlink:href="#DejaVuSans-70" x="378.759766"/>
      <use xlink:href="#DejaVuSans-73" x="442.236328"/>
     </g>
    </g>
   </g>
   <g id="matplotlib.axis_2">
    <g id="ytick_1">
     <g id="line2d_7">
      <defs>
       <path id="m30c209ded0" d="M 0 0 
L -3.5 0 
" style="stroke: #000000; stroke-width: 0.8"/>
      </defs>
      <g>
       <use xlink:href="#m30c209ded0" x="57.6" y="278.343725" style="stroke: #000000; stroke-width: 0.8"/>
      </g>
     </g>
     <g id="text_8">
      <!-- −150 -->
      <g transform="translate(23.132812 282.142944) scale(0.1 -0.1)">
       <defs>
        <path id="DejaVuSans-2212" d="M 678 2272 
L 4684 2272 
L 4684 1741 
L 678 1741 
L 678 2272 
z
" transform="scale(0.015625)"/>
       </defs>
       <use xlink:href="#DejaVuSans-2212"/>
       <use xlink:href="#DejaVuSans-31" x="83.789062"/>
       <use xlink:href="#DejaVuSans-35" x="147.412109"/>
       <use xlink:href="#DejaVuSans-30" x="211.035156"/>
      </g>
     </g>
    </g>
    <g id="ytick_2">
     <g id="line2d_8">
      <g>
       <use xlink:href="#m30c209ded0" x="57.6" y="245.093316" style="stroke: #000000; stroke-width: 0.8"/>
      </g>
     </g>
     <g id="text_9">
      <!-- −100 -->
      <g transform="translate(23.132812 248.892535) scale(0.1 -0.1)">
       <use xlink:href="#DejaVuSans-2212"/>
       <use xlink:href="#DejaVuSans-31" x="83.789062"/>
       <use xlink:href="#DejaVuSans-30" x="147.412109"/>
       <use xlink:href="#DejaVuSans-30" x="211.035156"/>
      </g>
     </g>
    </g>
    <g id="ytick_3">
     <g id="line2d_9">
      <g>
       <use xlink:href="#m30c209ded0" x="57.6" y="211.842908" style="stroke: #000000; stroke-width: 0.8"/>
      </g>
     </g>
     <g id="text_10">
      <!-- −50 -->
      <g transform="translate(29.495313 215.642126) scale(0.1 -0.1)">
       <use xlink:href="#DejaVuSans-2212"/>
       <use xlink:href="#DejaVuSans-35" x="83.789062"/>
       <use xlink:href="#DejaVuSans-30" x="147.412109"/>
      </g>
     </g>
    </g>
    <g id="ytick_4">
     <g id="line2d_10">
      <g>
       <use xlink:href="#m30c209ded0" x="57.6" y="178.592499" style="stroke: #000000; stroke-width: 0.8"/>
      </g>
     </g>
     <g id="text_11">
      <!-- 0 -->
      <g transform="translate(44.2375 182.391718) scale(0.1 -0.1)">
       <use xlink:href="#DejaVuSans-30"/>
      </g>
     </g>
    </g>
    <g id="ytick_5">
     <g id="line2d_11">
      <g>
       <use xlink:href="#m30c209ded0" x="57.6" y="145.342091" style="stroke: #000000; stroke-width: 0.8"/>
      </g>
     </g>
     <g id="text_12">
      <!-- 50 -->
      <g transform="translate(37.875 149.141309) scale(0.1 -0.1)">
       <use xlink:href="#DejaVuSans-35"/>
       <use xlink:href="#DejaVuSans-30" x="63.623047"/>
      </g>
     </g>
    </g>
    <g id="ytick_6">
     <g id="line2d_12">
      <g>
       <use xlink:href="#m30c209ded0" x="57.6" y="112.091682" style="stroke: #000000; stroke-width: 0.8"/>
      </g>
     </g>
     <g id="text_13">
      <!-- 100 -->
      <g transform="translate(31.5125 115.890901) scale(0.1 -0.1)">
       <use xlink:href="#DejaVuSans-31"/>
       <use xlink:href="#DejaVuSans-30" x="63.623047"/>
       <use xlink:href="#DejaVuSans-30" x="127.246094"/>
      </g>
     </g>
    </g>
    <g id="ytick_7">
     <g id="line2d_13">
      <g>
       <use xlink:href="#m30c209ded0" x="57.6" y="78.841273" style="stroke: #000000; stroke-width: 0.8"/>
      </g>
     </g>
     <g id="text_14">
      <!-- 150 -->
      <g transform="translate(31.5125 82.640492) scale(0.1 -0.1)">
       <use xlink:href="#DejaVuSans-31"/>
       <use xlink:href="#DejaVuSans-35" x="63.623047"/>
       <use xlink:href="#DejaVuSans-30" x="127.246094"/>
      </g>
     </g>
    </g>
    <g id="ytick_8">
     <g id="line2d_14">
      <g>
       <use xlink:href="#m30c209ded0" x="57.6" y="45.590865" style="stroke: #000000; stroke-width: 0.8"/>
      </g>
     </g>
     <g id="text_15">
      <!-- 200 -->
      <g transform="translate(31.5125 49.390084) scale(0.1 -0.1)">
       <use xlink:href="#DejaVuSans-32"/>
       <use xlink:href="#DejaVuSans-30" x="63.623047"/>
       <use xlink:href="#DejaVuSans-30" x="127.246094"/>
      </g>
     </g>
    </g>
    <g id="text_16">
     <!-- SAC losses -->
     <g transform="translate(17.053125 201.548313) rotate(-90) scale(0.1 -0.1)">
      <defs>
       <path id="DejaVuSans-53" d="M 3425 4513 
L 3425 3897 
Q 3066 4069 2747 4153 
Q 2428 4238 2131 4238 
Q 1616 4238 1336 4038 
Q 1056 3838 1056 3469 
Q 1056 3159 1242 3001 
Q 1428 2844 1947 2747 
L 2328 2669 
Q 3034 2534 3370 2195 
Q 3706 1856 3706 1288 
Q 3706 609 3251 259 
Q 2797 -91 1919 -91 
Q 1588 -91 1214 -16 
Q 841 59 441 206 
L 441 856 
Q 825 641 1194 531 
Q 1563 422 1919 422 
Q 2459 422 2753 634 
Q 3047 847 3047 1241 
Q 3047 1584 2836 1778 
Q 2625 1972 2144 2069 
L 1759 2144 
Q 1053 2284 737 2584 
Q 422 2884 422 3419 
Q 422 4038 858 4394 
Q 1294 4750 2059 4750 
Q 2388 4750 2728 4690 
Q 3069 4631 3425 4513 
z
" transform="scale(0.015625)"/>
       <path id="DejaVuSans-41" d="M 2188 4044 
L 1331 1722 
L 3047 1722 
L 2188 4044 
z
M 1831 4666 
L 2547 4666 
L 4325 0 
L 3669 0 
L 3244 1197 
L 1141 1197 
L 716 0 
L 50 0 
L 1831 4666 
z
" transform="scale(0.015625)"/>
       <path id="DejaVuSans-43" d="M 4122 4306 
L 4122 3641 
Q 3803 3938 3442 4084 
Q 3081 4231 2675 4231 
Q 1875 4231 1450 3742 
Q 1025 3253 1025 2328 
Q 1025 1406 1450 917 
Q 1875 428 2675 428 
Q 3081 428 3442 575 
Q 3803 722 4122 1019 
L 4122 359 
Q 3791 134 3420 21 
Q 3050 -91 2638 -91 
Q 1578 -91 968 557 
Q 359 1206 359 2328 
Q 359 3453 968 4101 
Q 1578 4750 2638 4750 
Q 3056 4750 3426 4639 
Q 3797 4528 4122 4306 
z
" transform="scale(0.015625)"/>
       <path id="DejaVuSans-20" transform="scale(0.015625)"/>
       <path id="DejaVuSans-6c" d="M 603 4863 
L 1178 4863 
L 1178 0 
L 603 0 
L 603 4863 
z
" transform="scale(0.015625)"/>
       <path id="DejaVuSans-6f" d="M 1959 3097 
Q 1497 3097 1228 2736 
Q 959 2375 959 1747 
Q 959 1119 1226 758 
Q 1494 397 1959 397 
Q 2419 397 2687 759 
Q 2956 1122 2956 1747 
Q 2956 2369 2687 2733 
Q 2419 3097 1959 3097 
z
M 1959 3584 
Q 2709 3584 3137 3096 
Q 3566 2609 3566 1747 
Q 3566 888 3137 398 
Q 2709 -91 1959 -91 
Q 1206 -91 779 398 
Q 353 888 353 1747 
Q 353 2609 779 3096 
Q 1206 3584 1959 3584 
z
" transform="scale(0.015625)"/>
      </defs>
      <use xlink:href="#DejaVuSans-53"/>
      <use xlink:href="#DejaVuSans-41" x="65.351562"/>
      <use xlink:href="#DejaVuSans-43" x="132.009766"/>
      <use xlink:href="#DejaVuSans-20" x="201.833984"/>
      <use xlink:href="#DejaVuSans-6c" x="233.621094"/>
      <use xlink:href="#DejaVuSans-6f" x="261.404297"/>
      <use xlink:href="#DejaVuSans-73" x="322.585938"/>
      <use xlink:href="#DejaVuSans-73" x="374.685547"/>
      <use xlink:href="#DejaVuSans-65" x="426.785156"/>
      <use xlink:href="#DejaVuSans-73" x="488.308594"/>
     </g>
    </g>
   </g>
   <g id="line2d_15">
    <path d="M 73.832727 181.275444 
L 74.27136 181.726278 
L 74.444154 181.939004 
L 74.935955 182.005305 
L 75.441047 182.269406 
L 75.627133 182.142894 
L 76.58415 182.349431 
L 77.142409 182.45787 
L 78.564642 182.779647 
L 79.04315 182.703157 
L 79.402031 183.102593 
L 79.747621 183.14534 
L 80.026751 183.306386 
L 80.332464 183.157553 
L 80.638178 183.436687 
L 81.661654 183.497674 
L 81.887616 183.897607 
L 82.180038 184.14652 
L 82.392708 184.097952 
L 82.791465 184.43365 
L 83.070595 184.292426 
L 83.402892 184.368047 
L 83.788357 184.584945 
L 84.359908 185.108326 
L 84.851709 185.255026 
L 85.157422 185.022986 
L 85.449844 185.915468 
L 86.234066 185.703894 
L 86.566363 185.870326 
L 87.337293 186.796431 
L 87.643007 186.126286 
L 88.78611 187.602033 
L 89.55704 187.496467 
L 89.876045 187.207314 
L 91.005856 188.552781 
L 91.776786 188.998497 
L 92.162251 188.998186 
L 92.959765 189.764784 
L 93.252186 189.612664 
L 94.036408 190.038639 
L 94.461749 190.539881 
L 95.192803 190.875353 
L 96.322614 191.024857 
L 96.734663 191.560422 
L 97.465717 191.400614 
L 97.944226 192.127975 
L 98.582237 192.411472 
L 99.180372 192.885577 
L 99.751923 193.012796 
L 100.270307 193.27516 
L 100.934902 193.877509 
L 101.466578 193.879328 
L 102.064713 194.526652 
L 102.543221 194.66881 
L 103.287568 195.120691 
L 104.417379 196.199975 
L 105.108557 195.975484 
L 105.786444 196.346909 
L 106.198493 196.315718 
L 111.528543 199.786422 
L 112.35264 199.92062 
L 113.322949 200.887376 
L 114.093878 200.548193 
L 115.143938 201.458827 
L 115.582571 201.515768 
L 116.805425 203.967892 
L 117.456728 202.53016 
L 118.533372 204.349564 
L 119.197966 204.168023 
L 120.27461 204.622918 
L 120.739826 204.944787 
L 121.882929 205.372513 
L 122.388021 206.419856 
L 123.491249 208.126542 
L 124.049508 206.102664 
L 125.139444 208.044134 
L 125.60466 208.442767 
L 126.840806 210.211534 
L 127.292731 208.335214 
L 128.462417 210.367035 
L 128.887758 210.180661 
L 130.469494 210.677784 
L 131.665764 211.643835 
L 133.207624 213.47835 
L 133.765884 213.065267 
L 135.400787 214.304268 
L 136.530598 215.728435 
L 137.075566 215.271719 
L 138.218669 214.864323 
L 138.803512 215.76928 
L 140.013075 215.174349 
L 140.478291 216.397081 
L 141.568226 217.130002 
L 142.379032 218.276846 
L 144.067103 216.76351 
L 144.744989 219.804832 
L 145.688714 220.432775 
L 146.526103 220.147014 
L 147.376785 220.732813 
L 148.307217 222.784802 
L 149.118023 221.456013 
L 149.94212 221.374018 
L 150.872553 222.444682 
L 151.736526 221.649952 
L 152.587208 222.373753 
L 153.451181 223.867327 
L 154.275278 226.730411 
L 155.27217 224.134133 
L 155.883598 225.414053 
L 156.787447 224.151789 
L 159.140112 226.414198 
L 160.070545 227.15217 
L 160.708556 226.465178 
L 161.825075 228.927127 
L 162.276999 226.762496 
L 163.579605 228.911272 
L 163.978362 228.969238 
L 165.267676 231.331485 
L 165.573389 229.356978 
L 166.942455 228.217922 
L 167.341212 230.511919 
L 168.723569 230.343531 
L 169.055866 229.813603 
L 170.305304 232.508522 
L 170.956607 231.546433 
L 171.900332 232.564544 
L 172.751013 232.034423 
L 173.548527 232.855465 
L 174.478959 233.572671 
L 175.356224 233.501295 
L 176.127154 234.40659 
L 177.017711 234.493338 
L 177.655722 234.909465 
L 178.719074 236.77113 
L 179.436836 236.143347 
L 180.526772 235.39982 
L 181.257826 234.19258 
L 182.254718 235.358723 
L 183.238318 235.174277 
L 183.956081 237.267628 
L 184.766886 237.121387 
L 185.365022 236.83351 
L 186.641044 237.112021 
L 187.066384 238.615727 
L 188.462033 236.180471 
L 189.153212 237.846289 
L 190.907742 238.825217 
L 191.758423 239.30418 
L 192.396434 238.651587 
L 193.247116 241.336166 
L 193.473078 240.120281 
L 194.456678 240.773341 
L 194.868727 239.316961 
L 195.573197 239.378362 
L 196.29096 242.698938 
L 196.703008 241.358541 
L 197.673317 239.67325 
L 198.085366 242.060033 
L 198.962631 241.239407 
L 199.467723 242.92272 
L 200.07915 244.450231 
L 200.863372 244.133389 
L 201.594426 242.057989 
L 202.192561 245.287367 
L 202.950199 241.273314 
L 203.721129 244.322138 
L 204.332556 244.772086 
L 205.023735 244.767048 
L 205.980751 241.365451 
L 206.352925 244.835029 
L 207.402984 245.400762 
L 207.801741 244.672085 
L 208.865093 246.773686 
L 209.383477 246.678606 
L 210.260742 245.614209 
L 210.965212 246.037373 
L 212.134899 247.60041 
L 212.826078 246.841647 
L 213.995764 245.097527 
L 214.407813 245.884683 
L 215.843338 245.392862 
L 216.468057 246.838613 
L 217.863706 247.545341 
L 218.142836 248.466252 
L 219.591652 248.22869 
L 219.910658 251.855119 
L 221.040469 250.601207 
L 221.306307 251.065929 
L 222.608913 248.967804 
L 223.087421 251.445516 
L 224.124189 252.793219 
L 224.841951 253.182406 
L 225.586297 253.029137 
L 226.250892 250.521089 
L 227.367411 250.283578 
L 228.085174 252.251469 
L 229.161817 254.83144 
L 229.932747 254.725838 
L 230.942931 255.224041 
L 232.817088 253.283502 
L 233.189261 251.740983 
L 234.58491 252.077282 
L 235.103294 254.473086 
L 236.246397 254.736818 
L 237.216706 254.409083 
L 237.828133 259.231011 
L 238.785149 256.286125 
L 239.595955 255.695476 
L 240.53968 251.876342 
L 240.951728 253.556255 
L 241.988496 255.584095 
L 242.320794 255.783412 
L 243.49048 258.914585 
L 243.796194 257.730313 
L 245.205135 255.714857 
L 245.630475 257.028821 
L 246.653951 258.757481 
L 247.105876 258.096242 
L 248.129352 258.034999 
L 250.867482 256.522272 
L 252.74164 260.503198 
L 253.153688 256.404264 
L 254.482878 261.407042 
L 254.629089 262.907267 
L 256.104489 258.539686 
L 256.303867 259.471459 
L 258.058398 261.417995 
L 259.680009 260.529114 
L 259.905971 259.976963 
L 261.447831 259.713897 
L 261.607334 258.067054 
L 263.135902 258.726303 
L 263.348572 259.096357 
L 265.355648 260.434131 
L 266.538627 260.673215 
L 268.014027 265.847424 
L 269.22359 261.537312 
L 270.300233 263.471747 
L 271.25725 264.653299 
L 273.157991 265.987821 
L 273.490288 264.534293 
L 275.351154 264.175071 
L 275.776494 263.705184 
L 277.265187 261.241155 
L 277.916489 264.561771 
L 279.458349 266.253354 
L 280.37549 268.017985 
L 281.890766 266.70251 
L 283.073745 268.033369 
L 284.947902 269.812085 
L 285.811875 268.36499 
L 288.922179 272.143114 
L 289.427271 270.066192 
L 292.005899 269.529881 
L 293.574342 272.173607 
L 294.757321 273.619017 
L 296.4321 273.151717 
L 297.349241 273.529884 
L 299.050603 276.18392 
L 299.555695 274.066662 
L 301.469728 273.691905 
L 302.121031 274.308642 
L 303.902145 275.682698 
L 304.540156 274.177662 
L 306.706735 272.097736 
L 306.959281 274.957415 
L 309.498033 274.386817 
L 310.162628 277.916405 
L 312.103244 280.533251 
L 312.794423 277.289124 
L 314.788207 277.79822 
L 315.519262 282.24392 
L 317.233916 280.298729 
L 317.832051 276.452953 
L 319.57329 276.584765 
L 320.184717 276.787466 
L 321.779744 280.218444 
L 322.59055 278.899468 
L 324.504583 281.825814 
L 325.102718 280.264391 
L 326.697746 281.997312 
L 327.189546 283.061025 
L 328.585195 283.093943 
L 329.515627 280.877019 
L 330.379601 281.529465 
L 331.788542 276.460482 
L 333.343693 280.407679 
L 336.254618 282.976144 
L 337.357846 281.437095 
L 339.032625 280.990647 
L 339.84343 282.540178 
L 341.332122 282.700647 
L 343.365782 276.772753 
L 344.136712 283.248505 
L 345.585529 282.622767 
L 346.582421 280.589305 
L 348.629373 281.680841 
L 349.679433 285.108998 
L 351.792844 284.283745 
L 352.643525 285.39107 
L 355.647494 290.037766 
L 356.9501 289.184365 
L 359.47556 287.726554 
L 361.363009 287.730288 
L 363.370085 288.88905 
L 365.908837 287.767366 
L 367.357654 287.502341 
L 369.138768 283.27845 
L 370.388206 293.937566 
L 371.012925 286.94741 
L 372.328823 289.349521 
L 374.083353 290.0091 
L 377.698748 291.067952 
L 380.250792 290.357951 
L 381.898987 292.492257 
L 382.975631 290.808508 
L 384.344696 289.015484 
L 386.059351 292.882701 
L 388.757605 290.647299 
L 391.695114 294.648744 
L 394.672499 291.516662 
L 395.921937 293.810066 
L 398.487273 295.488 
L 398.487273 295.488 
" clip-path="url(#pd344e4f0cb)" style="fill: none; stroke: #1f77b4; stroke-width: 1.5; stroke-linecap: square"/>
   </g>
   <g id="line2d_16">
    <path d="M 73.832727 177.044168 
L 74.085273 178.013084 
L 74.27136 178.384514 
L 75.441047 178.386701 
L 75.826512 178.351994 
L 76.58415 178.375117 
L 76.810112 178.458186 
L 76.956323 178.212636 
L 77.142409 178.372858 
L 78.245637 178.264034 
L 78.564642 178.358062 
L 79.402031 178.306423 
L 79.747621 178.354669 
L 80.026751 178.109498 
L 81.036935 178.414762 
L 81.196437 178.059963 
L 81.887616 178.250421 
L 82.180038 178.143981 
L 82.392708 178.285839 
L 82.791465 178.088944 
L 83.070595 178.36285 
L 83.402892 178.164175 
L 84.359908 178.28935 
L 84.851709 178.077527 
L 85.157422 177.402335 
L 85.449844 177.81138 
L 86.234066 177.960885 
L 87.337293 177.24199 
L 87.643007 177.31689 
L 88.480396 177.121911 
L 89.55704 177.583139 
L 89.876045 177.31685 
L 90.660267 177.613143 
L 91.005856 177.14343 
L 91.776786 178.177549 
L 92.162251 177.228186 
L 92.959765 176.713929 
L 93.252186 177.215644 
L 94.036408 176.016941 
L 94.461749 177.018554 
L 95.192803 177.80941 
L 95.604852 177.140118 
L 96.322614 177.691005 
L 96.734663 176.401495 
L 97.465717 174.718257 
L 98.582237 177.16366 
L 99.180372 177.185357 
L 99.751923 176.789432 
L 100.270307 175.269048 
L 100.934902 176.833228 
L 101.466578 176.052827 
L 102.064713 174.253307 
L 102.543221 176.823175 
L 103.287568 177.217722 
L 103.79266 176.393377 
L 104.417379 176.952083 
L 105.786444 176.132341 
L 106.198493 176.497657 
L 107.035882 177.012751 
L 108.205569 175.760337 
L 108.763828 176.748784 
L 109.468299 177.742222 
L 110.053142 175.86647 
L 110.837364 175.529298 
L 111.528543 175.835173 
L 112.35264 176.587258 
L 113.322949 176.911757 
L 114.093878 172.505045 
L 115.143938 174.569137 
L 115.582571 174.101708 
L 116.805425 177.241255 
L 117.456728 176.128409 
L 118.533372 177.327385 
L 119.197966 174.706034 
L 120.27461 173.081184 
L 120.739826 177.273019 
L 121.882929 173.822179 
L 122.388021 175.664079 
L 123.491249 175.649856 
L 124.049508 166.76366 
L 125.139444 174.514541 
L 125.60466 175.334171 
L 126.840806 177.001505 
L 127.292731 175.665323 
L 128.462417 173.871001 
L 128.887758 174.979456 
L 130.030861 162.494831 
L 130.469494 173.597417 
L 131.665764 176.358837 
L 132.077813 173.787054 
L 133.207624 174.60783 
L 133.765884 176.252333 
L 134.922279 171.796614 
L 135.400787 174.735062 
L 136.530598 174.49934 
L 137.075566 176.632231 
L 138.218669 172.652138 
L 138.803512 176.776048 
L 140.013075 175.191846 
L 140.478291 175.374981 
L 141.568226 174.89046 
L 142.379032 173.820127 
L 143.030335 174.776538 
L 144.067103 170.507054 
L 144.744989 176.315878 
L 145.688714 173.763153 
L 146.526103 166.070418 
L 147.376785 171.046568 
L 148.307217 173.503661 
L 149.118023 156.974711 
L 149.94212 173.845458 
L 150.872553 165.731129 
L 151.736526 169.014378 
L 152.587208 161.474438 
L 153.451181 169.148769 
L 154.275278 173.663648 
L 155.27217 173.960931 
L 155.883598 174.278318 
L 156.787447 168.078855 
L 157.491917 175.130743 
L 158.502101 174.820159 
L 159.140112 173.653896 
L 160.070545 174.286021 
L 160.708556 174.316918 
L 161.825075 174.765962 
L 162.276999 175.193871 
L 163.579605 173.800895 
L 163.978362 172.639838 
L 165.267676 174.096194 
L 165.573389 173.131696 
L 166.942455 171.0379 
L 167.341212 175.997922 
L 168.723569 172.709159 
L 169.055866 175.257158 
L 170.305304 162.334628 
L 170.956607 175.469375 
L 171.900332 173.958118 
L 172.751013 167.933117 
L 173.548527 171.458011 
L 174.478959 171.321208 
L 175.356224 159.141266 
L 176.127154 175.550984 
L 177.017711 172.261685 
L 177.655722 174.807337 
L 178.719074 174.080385 
L 179.436836 174.988504 
L 180.526772 171.197589 
L 181.257826 154.196473 
L 182.254718 170.358958 
L 183.238318 159.148448 
L 183.956081 165.4895 
L 184.766886 170.80916 
L 185.365022 169.5879 
L 186.641044 174.575339 
L 187.066384 169.435534 
L 188.462033 173.960223 
L 189.153212 175.066337 
L 190.136812 173.591312 
L 190.907742 165.19404 
L 191.758423 168.395407 
L 192.396434 174.862034 
L 193.473078 173.259844 
L 194.456678 174.000601 
L 194.868727 161.090819 
L 195.573197 161.172823 
L 196.29096 169.716237 
L 196.703008 157.479272 
L 197.673317 171.390385 
L 198.085366 170.107914 
L 198.962631 173.347698 
L 199.467723 161.907611 
L 200.07915 170.479674 
L 200.863372 171.327014 
L 201.594426 175.367635 
L 202.192561 157.721792 
L 202.950199 174.822284 
L 203.721129 166.655791 
L 204.332556 174.059811 
L 205.023735 172.711882 
L 205.980751 166.763726 
L 206.352925 168.562124 
L 207.402984 174.979445 
L 207.801741 175.072657 
L 208.865093 169.039238 
L 209.383477 173.102645 
L 210.260742 112.325646 
L 210.965212 174.452092 
L 212.134899 108.741598 
L 212.826078 173.648482 
L 213.995764 151.014714 
L 214.407813 172.324363 
L 215.843338 166.441407 
L 216.468057 167.697305 
L 217.863706 169.130618 
L 218.142836 161.589591 
L 219.591652 173.62197 
L 219.910658 167.707691 
L 221.306307 173.461755 
L 222.608913 164.003029 
L 224.124189 173.327409 
L 224.841951 170.230167 
L 225.586297 172.522177 
L 226.250892 175.424283 
L 227.367411 174.249256 
L 228.085174 170.905797 
L 229.161817 151.718644 
L 229.932747 162.872807 
L 230.942931 172.407278 
L 231.753737 174.500012 
L 232.817088 146.115948 
L 233.189261 169.7388 
L 234.58491 172.741496 
L 235.103294 174.324173 
L 236.246397 166.039215 
L 237.216706 167.884547 
L 237.828133 173.709386 
L 238.785149 169.314672 
L 239.595955 175.394346 
L 240.951728 167.283568 
L 241.988496 135.274811 
L 242.320794 158.108728 
L 243.49048 144.291643 
L 243.796194 168.340441 
L 245.205135 174.08187 
L 245.630475 171.219382 
L 246.653951 171.55522 
L 247.105876 174.466315 
L 248.129352 172.953535 
L 250.867482 172.713174 
L 252.74164 174.558777 
L 253.153688 173.937344 
L 254.482878 172.699995 
L 254.629089 170.518911 
L 256.104489 171.625678 
L 256.303867 170.667484 
L 257.633057 173.630723 
L 258.058398 172.739589 
L 259.680009 146.519138 
L 259.905971 162.889427 
L 261.447831 175.135105 
L 261.607334 173.056507 
L 263.135902 173.878851 
L 263.348572 166.331089 
L 265.355648 173.89008 
L 266.538627 170.067457 
L 268.014027 171.192529 
L 269.22359 153.840194 
L 270.300233 173.370191 
L 271.25725 171.783894 
L 273.157991 172.861818 
L 273.490288 141.619692 
L 275.351154 156.886425 
L 275.776494 167.130966 
L 277.265187 127.596298 
L 277.916489 172.83834 
L 279.458349 168.347875 
L 280.37549 173.462095 
L 281.890766 171.608083 
L 283.073745 171.141005 
L 284.947902 149.341292 
L 285.811875 142.930802 
L 288.922179 173.015897 
L 289.427271 173.601251 
L 292.005899 163.578284 
L 293.574342 172.307428 
L 294.757321 173.349457 
L 296.4321 172.003633 
L 297.349241 171.669823 
L 299.050603 172.236778 
L 299.555695 168.484303 
L 301.469728 168.765948 
L 302.121031 175.443101 
L 303.902145 164.827451 
L 304.540156 146.390806 
L 306.706735 145.834261 
L 306.959281 173.757164 
L 309.498033 145.558906 
L 310.162628 171.26718 
L 312.103244 152.823587 
L 312.794423 172.443617 
L 314.788207 170.721529 
L 315.519262 169.345527 
L 317.233916 171.036138 
L 317.832051 167.926341 
L 319.57329 170.98668 
L 320.184717 167.389425 
L 321.779744 164.398 
L 322.59055 168.534421 
L 324.504583 171.638381 
L 325.102718 172.384116 
L 326.697746 139.486744 
L 327.189546 149.908441 
L 328.585195 173.243184 
L 329.515627 53.568 
L 330.379601 172.202422 
L 331.788542 157.830305 
L 334.659591 173.636036 
L 336.254618 158.382679 
L 337.357846 172.904921 
L 339.032625 171.724362 
L 339.84343 174.656518 
L 341.332122 170.054735 
L 343.365782 171.607713 
L 344.136712 173.969112 
L 345.585529 173.420591 
L 346.582421 171.045788 
L 348.629373 110.892402 
L 349.679433 174.35536 
L 351.792844 164.765824 
L 352.643525 170.728513 
L 355.647494 169.664345 
L 356.9501 169.858567 
L 359.47556 170.742334 
L 361.363009 173.89547 
L 363.370085 172.230408 
L 365.908837 173.054165 
L 367.357654 151.954617 
L 369.138768 85.217461 
L 370.388206 173.367498 
L 371.012925 171.212939 
L 372.328823 170.140777 
L 374.083353 169.045866 
L 377.698748 169.52533 
L 380.250792 167.438374 
L 381.898987 171.545312 
L 382.975631 170.773072 
L 384.344696 91.701656 
L 386.059351 173.271122 
L 388.757605 167.83549 
L 391.695114 171.408419 
L 394.672499 166.172526 
L 395.921937 133.951563 
L 398.487273 172.188056 
L 398.487273 172.188056 
" clip-path="url(#pd344e4f0cb)" style="fill: none; stroke: #ff7f0e; stroke-width: 1.5; stroke-linecap: square"/>
   </g>
   <g id="patch_3">
    <path d="M 57.6 307.584 
L 57.6 41.472 
" style="fill: none; stroke: #000000; stroke-width: 0.8; stroke-linejoin: miter; stroke-linecap: square"/>
   </g>
   <g id="patch_4">
    <path d="M 414.72 307.584 
L 414.72 41.472 
" style="fill: none; stroke: #000000; stroke-width: 0.8; stroke-linejoin: miter; stroke-linecap: square"/>
   </g>
   <g id="patch_5">
    <path d="M 57.6 307.584 
L 414.72 307.584 
" style="fill: none; stroke: #000000; stroke-width: 0.8; stroke-linejoin: miter; stroke-linecap: square"/>
   </g>
   <g id="patch_6">
    <path d="M 57.6 41.472 
L 414.72 41.472 
" style="fill: none; stroke: #000000; stroke-width: 0.8; stroke-linejoin: miter; stroke-linecap: square"/>
   </g>
   <g id="text_17">
    <!-- actor and critic loss -->
    <g transform="translate(177.345 35.472) scale(0.12 -0.12)">
     <defs>
      <path id="DejaVuSans-61" d="M 2194 1759 
Q 1497 1759 1228 1600 
Q 959 1441 959 1056 
Q 959 750 1161 570 
Q 1363 391 1709 391 
Q 2188 391 2477 730 
Q 2766 1069 2766 1631 
L 2766 1759 
L 2194 1759 
z
M 3341 1997 
L 3341 0 
L 2766 0 
L 2766 531 
Q 2569 213 2275 61 
Q 1981 -91 1556 -91 
Q 1019 -91 701 211 
Q 384 513 384 1019 
Q 384 1609 779 1909 
Q 1175 2209 1959 2209 
L 2766 2209 
L 2766 2266 
Q 2766 2663 2505 2880 
Q 2244 3097 1772 3097 
Q 1472 3097 1187 3025 
Q 903 2953 641 2809 
L 641 3341 
Q 956 3463 1253 3523 
Q 1550 3584 1831 3584 
Q 2591 3584 2966 3190 
Q 3341 2797 3341 1997 
z
" transform="scale(0.015625)"/>
      <path id="DejaVuSans-63" d="M 3122 3366 
L 3122 2828 
Q 2878 2963 2633 3030 
Q 2388 3097 2138 3097 
Q 1578 3097 1268 2742 
Q 959 2388 959 1747 
Q 959 1106 1268 751 
Q 1578 397 2138 397 
Q 2388 397 2633 464 
Q 2878 531 3122 666 
L 3122 134 
Q 2881 22 2623 -34 
Q 2366 -91 2075 -91 
Q 1284 -91 818 406 
Q 353 903 353 1747 
Q 353 2603 823 3093 
Q 1294 3584 2113 3584 
Q 2378 3584 2631 3529 
Q 2884 3475 3122 3366 
z
" transform="scale(0.015625)"/>
      <path id="DejaVuSans-72" d="M 2631 2963 
Q 2534 3019 2420 3045 
Q 2306 3072 2169 3072 
Q 1681 3072 1420 2755 
Q 1159 2438 1159 1844 
L 1159 0 
L 581 0 
L 581 3500 
L 1159 3500 
L 1159 2956 
Q 1341 3275 1631 3429 
Q 1922 3584 2338 3584 
Q 2397 3584 2469 3576 
Q 2541 3569 2628 3553 
L 2631 2963 
z
" transform="scale(0.015625)"/>
      <path id="DejaVuSans-6e" d="M 3513 2113 
L 3513 0 
L 2938 0 
L 2938 2094 
Q 2938 2591 2744 2837 
Q 2550 3084 2163 3084 
Q 1697 3084 1428 2787 
Q 1159 2491 1159 1978 
L 1159 0 
L 581 0 
L 581 3500 
L 1159 3500 
L 1159 2956 
Q 1366 3272 1645 3428 
Q 1925 3584 2291 3584 
Q 2894 3584 3203 3211 
Q 3513 2838 3513 2113 
z
" transform="scale(0.015625)"/>
      <path id="DejaVuSans-64" d="M 2906 2969 
L 2906 4863 
L 3481 4863 
L 3481 0 
L 2906 0 
L 2906 525 
Q 2725 213 2448 61 
Q 2172 -91 1784 -91 
Q 1150 -91 751 415 
Q 353 922 353 1747 
Q 353 2572 751 3078 
Q 1150 3584 1784 3584 
Q 2172 3584 2448 3432 
Q 2725 3281 2906 2969 
z
M 947 1747 
Q 947 1113 1208 752 
Q 1469 391 1925 391 
Q 2381 391 2643 752 
Q 2906 1113 2906 1747 
Q 2906 2381 2643 2742 
Q 2381 3103 1925 3103 
Q 1469 3103 1208 2742 
Q 947 2381 947 1747 
z
" transform="scale(0.015625)"/>
     </defs>
     <use xlink:href="#DejaVuSans-61"/>
     <use xlink:href="#DejaVuSans-63" x="61.279297"/>
     <use xlink:href="#DejaVuSans-74" x="116.259766"/>
     <use xlink:href="#DejaVuSans-6f" x="155.46875"/>
     <use xlink:href="#DejaVuSans-72" x="216.650391"/>
     <use xlink:href="#DejaVuSans-20" x="257.763672"/>
     <use xlink:href="#DejaVuSans-61" x="289.550781"/>
     <use xlink:href="#DejaVuSans-6e" x="350.830078"/>
     <use xlink:href="#DejaVuSans-64" x="414.208984"/>
     <use xlink:href="#DejaVuSans-20" x="477.685547"/>
     <use xlink:href="#DejaVuSans-63" x="509.472656"/>
     <use xlink:href="#DejaVuSans-72" x="564.453125"/>
     <use xlink:href="#DejaVuSans-69" x="605.566406"/>
     <use xlink:href="#DejaVuSans-74" x="633.349609"/>
     <use xlink:href="#DejaVuSans-69" x="672.558594"/>
     <use xlink:href="#DejaVuSans-63" x="700.341797"/>
     <use xlink:href="#DejaVuSans-20" x="755.322266"/>
     <use xlink:href="#DejaVuSans-6c" x="787.109375"/>
     <use xlink:href="#DejaVuSans-6f" x="814.892578"/>
     <use xlink:href="#DejaVuSans-73" x="876.074219"/>
     <use xlink:href="#DejaVuSans-73" x="928.173828"/>
    </g>
   </g>
   <g id="legend_1">
    <g id="patch_7">
     <path d="M 64.6 78.82825 
L 144.870313 78.82825 
Q 146.870313 78.82825 146.870313 76.82825 
L 146.870313 48.472 
Q 146.870313 46.472 144.870313 46.472 
L 64.6 46.472 
Q 62.6 46.472 62.6 48.472 
L 62.6 76.82825 
Q 62.6 78.82825 64.6 78.82825 
z
" style="fill: #ffffff; opacity: 0.8; stroke: #cccccc; stroke-linejoin: miter"/>
    </g>
    <g id="line2d_17">
     <path d="M 66.6 54.570437 
L 76.6 54.570437 
L 86.6 54.570437 
" style="fill: none; stroke: #1f77b4; stroke-width: 1.5; stroke-linecap: square"/>
    </g>
    <g id="text_18">
     <!-- actor loss -->
     <g transform="translate(94.6 58.070437) scale(0.1 -0.1)">
      <use xlink:href="#DejaVuSans-61"/>
      <use xlink:href="#DejaVuSans-63" x="61.279297"/>
      <use xlink:href="#DejaVuSans-74" x="116.259766"/>
      <use xlink:href="#DejaVuSans-6f" x="155.46875"/>
      <use xlink:href="#DejaVuSans-72" x="216.650391"/>
      <use xlink:href="#DejaVuSans-20" x="257.763672"/>
      <use xlink:href="#DejaVuSans-6c" x="289.550781"/>
      <use xlink:href="#DejaVuSans-6f" x="317.333984"/>
      <use xlink:href="#DejaVuSans-73" x="378.515625"/>
      <use xlink:href="#DejaVuSans-73" x="430.615234"/>
     </g>
    </g>
    <g id="line2d_18">
     <path d="M 66.6 69.248562 
L 76.6 69.248562 
L 86.6 69.248562 
" style="fill: none; stroke: #ff7f0e; stroke-width: 1.5; stroke-linecap: square"/>
    </g>
    <g id="text_19">
     <!-- critic loss -->
     <g transform="translate(94.6 72.748562) scale(0.1 -0.1)">
      <use xlink:href="#DejaVuSans-63"/>
      <use xlink:href="#DejaVuSans-72" x="54.980469"/>
      <use xlink:href="#DejaVuSans-69" x="96.09375"/>
      <use xlink:href="#DejaVuSans-74" x="123.876953"/>
      <use xlink:href="#DejaVuSans-69" x="163.085938"/>
      <use xlink:href="#DejaVuSans-63" x="190.869141"/>
      <use xlink:href="#DejaVuSans-20" x="245.849609"/>
      <use xlink:href="#DejaVuSans-6c" x="277.636719"/>
      <use xlink:href="#DejaVuSans-6f" x="305.419922"/>
      <use xlink:href="#DejaVuSans-73" x="366.601562"/>
      <use xlink:href="#DejaVuSans-73" x="418.701172"/>
     </g>
    </g>
   </g>
  </g>
 </g>
 <defs>
  <clipPath id="pd344e4f0cb">
   <rect x="57.6" y="41.472" width="357.12" height="266.112"/>
  </clipPath>
 </defs>
</svg>
