<?xml version="1.0" encoding="utf-8" standalone="no"?>
<!DOCTYPE svg PUBLIC "-//W3C//DTD SVG 1.1//EN"
  "http://www.w3.org/Graphics/SVG/1.1/DTD/svg11.dtd">
<svg xmlns:xlink="http://www.w3.org/1999/xlink" width="460.8pt" height="345.6pt" viewBox="0 0 460.8 345.6" xmlns="http://www.w3.org/2000/svg" version="1.1">
 <metadata>
  <rdf:RDF xmlns:dc="http://purl.org/dc/elements/1.1/" xmlns:cc="http://creativecommons.org/ns#" xmlns:rdf="http://www.w3.org/1999/02/22-rdf-syntax-ns#">
   <cc:Work>
    <dc:type rdf:resource="http://purl.org/dc/dcmitype/StillImage"/>
    <dc:date>2023-08-18T20:05:39.453611</dc:date>
    <dc:format>image/svg+xml</dc:format>
    <dc:creator>
     <cc:Agent>
      <dc:title>Matplotlib v3.7.1, https://matplotlib.org/</dc:title>
     </cc:Agent>
    </dc:creator>
   </cc:Work>
  </rdf:RDF>
 </metadata>
 <defs>
  <style type="text/css">*{stroke-linejoin: round; stroke-linecap: butt}</style>
 </defs>
 <g id="figure_1">
  <g id="patch_1">
   <path d="M 0 345.6 
L 460.8 345.6 
L 460.8 0 
L 0 0 
z
" style="fill: #ffffff"/>
  </g>
  <g id="axes_1">
   <g id="patch_2">
    <path d="M 57.6 307.584 
L 414.72 307.584 
L 414.72 41.472 
L 57.6 41.472 
z
" style="fill: #ffffff"/>
   </g>
   <g id="matplotlib.axis_1">
    <g id="xtick_1">
     <g id="line2d_1">
      <defs>
       <path id="md455710561" d="M 0 0 
L 0 3.5 
" style="stroke: #000000; stroke-width: 0.8"/>
      </defs>
      <g>
       <use xlink:href="#md455710561" x="73.735259" y="307.584" style="stroke: #000000; stroke-width: 0.8"/>
      </g>
     </g>
     <g id="text_1">
      <!-- 0 -->
      <g transform="translate(70.554009 322.182437) scale(0.1 -0.1)">
       <defs>
        <path id="DejaVuSans-30" d="M 2034 4250 
Q 1547 4250 1301 3770 
Q 1056 3291 1056 2328 
Q 1056 1369 1301 889 
Q 1547 409 2034 409 
Q 2525 409 2770 889 
Q 3016 1369 3016 2328 
Q 3016 3291 2770 3770 
Q 2525 4250 2034 4250 
z
M 2034 4750 
Q 2819 4750 3233 4129 
Q 3647 3509 3647 2328 
Q 3647 1150 3233 529 
Q 2819 -91 2034 -91 
Q 1250 -91 836 529 
Q 422 1150 422 2328 
Q 422 3509 836 4129 
Q 1250 4750 2034 4750 
z
" transform="scale(0.015625)"/>
       </defs>
       <use xlink:href="#DejaVuSans-30"/>
      </g>
     </g>
    </g>
    <g id="xtick_2">
     <g id="line2d_2">
      <g>
       <use xlink:href="#md455710561" x="138.714252" y="307.584" style="stroke: #000000; stroke-width: 0.8"/>
      </g>
     </g>
     <g id="text_2">
      <!-- 10000 -->
      <g transform="translate(122.808002 322.182437) scale(0.1 -0.1)">
       <defs>
        <path id="DejaVuSans-31" d="M 794 531 
L 1825 531 
L 1825 4091 
L 703 3866 
L 703 4441 
L 1819 4666 
L 2450 4666 
L 2450 531 
L 3481 531 
L 3481 0 
L 794 0 
L 794 531 
z
" transform="scale(0.015625)"/>
       </defs>
       <use xlink:href="#DejaVuSans-31"/>
       <use xlink:href="#DejaVuSans-30" x="63.623047"/>
       <use xlink:href="#DejaVuSans-30" x="127.246094"/>
       <use xlink:href="#DejaVuSans-30" x="190.869141"/>
       <use xlink:href="#DejaVuSans-30" x="254.492188"/>
      </g>
     </g>
    </g>
    <g id="xtick_3">
     <g id="line2d_3">
      <g>
       <use xlink:href="#md455710561" x="203.693246" y="307.584" style="stroke: #000000; stroke-width: 0.8"/>
      </g>
     </g>
     <g id="text_3">
      <!-- 20000 -->
      <g transform="translate(187.786996 322.182437) scale(0.1 -0.1)">
       <defs>
        <path id="DejaVuSans-32" d="M 1228 531 
L 3431 531 
L 3431 0 
L 469 0 
L 469 531 
Q 828 903 1448 1529 
Q 2069 2156 2228 2338 
Q 2531 2678 2651 2914 
Q 2772 3150 2772 3378 
Q 2772 3750 2511 3984 
Q 2250 4219 1831 4219 
Q 1534 4219 1204 4116 
Q 875 4013 500 3803 
L 500 4441 
Q 881 4594 1212 4672 
Q 1544 4750 1819 4750 
Q 2544 4750 2975 4387 
Q 3406 4025 3406 3419 
Q 3406 3131 3298 2873 
Q 3191 2616 2906 2266 
Q 2828 2175 2409 1742 
Q 1991 1309 1228 531 
z
" transform="scale(0.015625)"/>
       </defs>
       <use xlink:href="#DejaVuSans-32"/>
       <use xlink:href="#DejaVuSans-30" x="63.623047"/>
       <use xlink:href="#DejaVuSans-30" x="127.246094"/>
       <use xlink:href="#DejaVuSans-30" x="190.869141"/>
       <use xlink:href="#DejaVuSans-30" x="254.492188"/>
      </g>
     </g>
    </g>
    <g id="xtick_4">
     <g id="line2d_4">
      <g>
       <use xlink:href="#md455710561" x="268.672239" y="307.584" style="stroke: #000000; stroke-width: 0.8"/>
      </g>
     </g>
     <g id="text_4">
      <!-- 30000 -->
      <g transform="translate(252.765989 322.182437) scale(0.1 -0.1)">
       <defs>
        <path id="DejaVuSans-33" d="M 2597 2516 
Q 3050 2419 3304 2112 
Q 3559 1806 3559 1356 
Q 3559 666 3084 287 
Q 2609 -91 1734 -91 
Q 1441 -91 1130 -33 
Q 819 25 488 141 
L 488 750 
Q 750 597 1062 519 
Q 1375 441 1716 441 
Q 2309 441 2620 675 
Q 2931 909 2931 1356 
Q 2931 1769 2642 2001 
Q 2353 2234 1838 2234 
L 1294 2234 
L 1294 2753 
L 1863 2753 
Q 2328 2753 2575 2939 
Q 2822 3125 2822 3475 
Q 2822 3834 2567 4026 
Q 2313 4219 1838 4219 
Q 1578 4219 1281 4162 
Q 984 4106 628 3988 
L 628 4550 
Q 988 4650 1302 4700 
Q 1616 4750 1894 4750 
Q 2613 4750 3031 4423 
Q 3450 4097 3450 3541 
Q 3450 3153 3228 2886 
Q 3006 2619 2597 2516 
z
" transform="scale(0.015625)"/>
       </defs>
       <use xlink:href="#DejaVuSans-33"/>
       <use xlink:href="#DejaVuSans-30" x="63.623047"/>
       <use xlink:href="#DejaVuSans-30" x="127.246094"/>
       <use xlink:href="#DejaVuSans-30" x="190.869141"/>
       <use xlink:href="#DejaVuSans-30" x="254.492188"/>
      </g>
     </g>
    </g>
    <g id="xtick_5">
     <g id="line2d_5">
      <g>
       <use xlink:href="#md455710561" x="333.651233" y="307.584" style="stroke: #000000; stroke-width: 0.8"/>
      </g>
     </g>
     <g id="text_5">
      <!-- 40000 -->
      <g transform="translate(317.744983 322.182437) scale(0.1 -0.1)">
       <defs>
        <path id="DejaVuSans-34" d="M 2419 4116 
L 825 1625 
L 2419 1625 
L 2419 4116 
z
M 2253 4666 
L 3047 4666 
L 3047 1625 
L 3713 1625 
L 3713 1100 
L 3047 1100 
L 3047 0 
L 2419 0 
L 2419 1100 
L 313 1100 
L 313 1709 
L 2253 4666 
z
" transform="scale(0.015625)"/>
       </defs>
       <use xlink:href="#DejaVuSans-34"/>
       <use xlink:href="#DejaVuSans-30" x="63.623047"/>
       <use xlink:href="#DejaVuSans-30" x="127.246094"/>
       <use xlink:href="#DejaVuSans-30" x="190.869141"/>
       <use xlink:href="#DejaVuSans-30" x="254.492188"/>
      </g>
     </g>
    </g>
    <g id="xtick_6">
     <g id="line2d_6">
      <g>
       <use xlink:href="#md455710561" x="398.630227" y="307.584" style="stroke: #000000; stroke-width: 0.8"/>
      </g>
     </g>
     <g id="text_6">
      <!-- 50000 -->
      <g transform="translate(382.723977 322.182437) scale(0.1 -0.1)">
       <defs>
        <path id="DejaVuSans-35" d="M 691 4666 
L 3169 4666 
L 3169 4134 
L 1269 4134 
L 1269 2991 
Q 1406 3038 1543 3061 
Q 1681 3084 1819 3084 
Q 2600 3084 3056 2656 
Q 3513 2228 3513 1497 
Q 3513 744 3044 326 
Q 2575 -91 1722 -91 
Q 1428 -91 1123 -41 
Q 819 9 494 109 
L 494 744 
Q 775 591 1075 516 
Q 1375 441 1709 441 
Q 2250 441 2565 725 
Q 2881 1009 2881 1497 
Q 2881 1984 2565 2268 
Q 2250 2553 1709 2553 
Q 1456 2553 1204 2497 
Q 953 2441 691 2322 
L 691 4666 
z
" transform="scale(0.015625)"/>
       </defs>
       <use xlink:href="#DejaVuSans-35"/>
       <use xlink:href="#DejaVuSans-30" x="63.623047"/>
       <use xlink:href="#DejaVuSans-30" x="127.246094"/>
       <use xlink:href="#DejaVuSans-30" x="190.869141"/>
       <use xlink:href="#DejaVuSans-30" x="254.492188"/>
      </g>
     </g>
    </g>
    <g id="text_7">
     <!-- timesteps -->
     <g transform="translate(211.443594 335.860562) scale(0.1 -0.1)">
      <defs>
       <path id="DejaVuSans-74" d="M 1172 4494 
L 1172 3500 
L 2356 3500 
L 2356 3053 
L 1172 3053 
L 1172 1153 
Q 1172 725 1289 603 
Q 1406 481 1766 481 
L 2356 481 
L 2356 0 
L 1766 0 
Q 1100 0 847 248 
Q 594 497 594 1153 
L 594 3053 
L 172 3053 
L 172 3500 
L 594 3500 
L 594 4494 
L 1172 4494 
z
" transform="scale(0.015625)"/>
       <path id="DejaVuSans-69" d="M 603 3500 
L 1178 3500 
L 1178 0 
L 603 0 
L 603 3500 
z
M 603 4863 
L 1178 4863 
L 1178 4134 
L 603 4134 
L 603 4863 
z
" transform="scale(0.015625)"/>
       <path id="DejaVuSans-6d" d="M 3328 2828 
Q 3544 3216 3844 3400 
Q 4144 3584 4550 3584 
Q 5097 3584 5394 3201 
Q 5691 2819 5691 2113 
L 5691 0 
L 5113 0 
L 5113 2094 
Q 5113 2597 4934 2840 
Q 4756 3084 4391 3084 
Q 3944 3084 3684 2787 
Q 3425 2491 3425 1978 
L 3425 0 
L 2847 0 
L 2847 2094 
Q 2847 2600 2669 2842 
Q 2491 3084 2119 3084 
Q 1678 3084 1418 2786 
Q 1159 2488 1159 1978 
L 1159 0 
L 581 0 
L 581 3500 
L 1159 3500 
L 1159 2956 
Q 1356 3278 1631 3431 
Q 1906 3584 2284 3584 
Q 2666 3584 2933 3390 
Q 3200 3197 3328 2828 
z
" transform="scale(0.015625)"/>
       <path id="DejaVuSans-65" d="M 3597 1894 
L 3597 1613 
L 953 1613 
Q 991 1019 1311 708 
Q 1631 397 2203 397 
Q 2534 397 2845 478 
Q 3156 559 3463 722 
L 3463 178 
Q 3153 47 2828 -22 
Q 2503 -91 2169 -91 
Q 1331 -91 842 396 
Q 353 884 353 1716 
Q 353 2575 817 3079 
Q 1281 3584 2069 3584 
Q 2775 3584 3186 3129 
Q 3597 2675 3597 1894 
z
M 3022 2063 
Q 3016 2534 2758 2815 
Q 2500 3097 2075 3097 
Q 1594 3097 1305 2825 
Q 1016 2553 972 2059 
L 3022 2063 
z
" transform="scale(0.015625)"/>
       <path id="DejaVuSans-73" d="M 2834 3397 
L 2834 2853 
Q 2591 2978 2328 3040 
Q 2066 3103 1784 3103 
Q 1356 3103 1142 2972 
Q 928 2841 928 2578 
Q 928 2378 1081 2264 
Q 1234 2150 1697 2047 
L 1894 2003 
Q 2506 1872 2764 1633 
Q 3022 1394 3022 966 
Q 3022 478 2636 193 
Q 2250 -91 1575 -91 
Q 1294 -91 989 -36 
Q 684 19 347 128 
L 347 722 
Q 666 556 975 473 
Q 1284 391 1588 391 
Q 1994 391 2212 530 
Q 2431 669 2431 922 
Q 2431 1156 2273 1281 
Q 2116 1406 1581 1522 
L 1381 1569 
Q 847 1681 609 1914 
Q 372 2147 372 2553 
Q 372 3047 722 3315 
Q 1072 3584 1716 3584 
Q 2034 3584 2315 3537 
Q 2597 3491 2834 3397 
z
" transform="scale(0.015625)"/>
       <path id="DejaVuSans-70" d="M 1159 525 
L 1159 -1331 
L 581 -1331 
L 581 3500 
L 1159 3500 
L 1159 2969 
Q 1341 3281 1617 3432 
Q 1894 3584 2278 3584 
Q 2916 3584 3314 3078 
Q 3713 2572 3713 1747 
Q 3713 922 3314 415 
Q 2916 -91 2278 -91 
Q 1894 -91 1617 61 
Q 1341 213 1159 525 
z
M 3116 1747 
Q 3116 2381 2855 2742 
Q 2594 3103 2138 3103 
Q 1681 3103 1420 2742 
Q 1159 2381 1159 1747 
Q 1159 1113 1420 752 
Q 1681 391 2138 391 
Q 2594 391 2855 752 
Q 3116 1113 3116 1747 
z
" transform="scale(0.015625)"/>
      </defs>
      <use xlink:href="#DejaVuSans-74"/>
      <use xlink:href="#DejaVuSans-69" x="39.208984"/>
      <use xlink:href="#DejaVuSans-6d" x="66.992188"/>
      <use xlink:href="#DejaVuSans-65" x="164.404297"/>
      <use xlink:href="#DejaVuSans-73" x="225.927734"/>
      <use xlink:href="#DejaVuSans-74" x="278.027344"/>
      <use xlink:href="#DejaVuSans-65" x="317.236328"/>
      <use xlink:href="#DejaVuSans-70" x="378.759766"/>
      <use xlink:href="#DejaVuSans-73" x="442.236328"/>
     </g>
    </g>
   </g>
   <g id="matplotlib.axis_2">
    <g id="ytick_1">
     <g id="line2d_7">
      <defs>
       <path id="m7a9f223873" d="M 0 0 
L -3.5 0 
" style="stroke: #000000; stroke-width: 0.8"/>
      </defs>
      <g>
       <use xlink:href="#m7a9f223873" x="57.6" y="296.34312" style="stroke: #000000; stroke-width: 0.8"/>
      </g>
     </g>
     <g id="text_8">
      <!-- 0 -->
      <g transform="translate(44.2375 300.142339) scale(0.1 -0.1)">
       <use xlink:href="#DejaVuSans-30"/>
      </g>
     </g>
    </g>
    <g id="ytick_2">
     <g id="line2d_8">
      <g>
       <use xlink:href="#m7a9f223873" x="57.6" y="259.01483" style="stroke: #000000; stroke-width: 0.8"/>
      </g>
     </g>
     <g id="text_9">
      <!-- 200 -->
      <g transform="translate(31.5125 262.814049) scale(0.1 -0.1)">
       <use xlink:href="#DejaVuSans-32"/>
       <use xlink:href="#DejaVuSans-30" x="63.623047"/>
       <use xlink:href="#DejaVuSans-30" x="127.246094"/>
      </g>
     </g>
    </g>
    <g id="ytick_3">
     <g id="line2d_9">
      <g>
       <use xlink:href="#m7a9f223873" x="57.6" y="221.68654" style="stroke: #000000; stroke-width: 0.8"/>
      </g>
     </g>
     <g id="text_10">
      <!-- 400 -->
      <g transform="translate(31.5125 225.485759) scale(0.1 -0.1)">
       <use xlink:href="#DejaVuSans-34"/>
       <use xlink:href="#DejaVuSans-30" x="63.623047"/>
       <use xlink:href="#DejaVuSans-30" x="127.246094"/>
      </g>
     </g>
    </g>
    <g id="ytick_4">
     <g id="line2d_10">
      <g>
       <use xlink:href="#m7a9f223873" x="57.6" y="184.35825" style="stroke: #000000; stroke-width: 0.8"/>
      </g>
     </g>
     <g id="text_11">
      <!-- 600 -->
      <g transform="translate(31.5125 188.157469) scale(0.1 -0.1)">
       <defs>
        <path id="DejaVuSans-36" d="M 2113 2584 
Q 1688 2584 1439 2293 
Q 1191 2003 1191 1497 
Q 1191 994 1439 701 
Q 1688 409 2113 409 
Q 2538 409 2786 701 
Q 3034 994 3034 1497 
Q 3034 2003 2786 2293 
Q 2538 2584 2113 2584 
z
M 3366 4563 
L 3366 3988 
Q 3128 4100 2886 4159 
Q 2644 4219 2406 4219 
Q 1781 4219 1451 3797 
Q 1122 3375 1075 2522 
Q 1259 2794 1537 2939 
Q 1816 3084 2150 3084 
Q 2853 3084 3261 2657 
Q 3669 2231 3669 1497 
Q 3669 778 3244 343 
Q 2819 -91 2113 -91 
Q 1303 -91 875 529 
Q 447 1150 447 2328 
Q 447 3434 972 4092 
Q 1497 4750 2381 4750 
Q 2619 4750 2861 4703 
Q 3103 4656 3366 4563 
z
" transform="scale(0.015625)"/>
       </defs>
       <use xlink:href="#DejaVuSans-36"/>
       <use xlink:href="#DejaVuSans-30" x="63.623047"/>
       <use xlink:href="#DejaVuSans-30" x="127.246094"/>
      </g>
     </g>
    </g>
    <g id="ytick_5">
     <g id="line2d_11">
      <g>
       <use xlink:href="#m7a9f223873" x="57.6" y="147.02996" style="stroke: #000000; stroke-width: 0.8"/>
      </g>
     </g>
     <g id="text_12">
      <!-- 800 -->
      <g transform="translate(31.5125 150.829178) scale(0.1 -0.1)">
       <defs>
        <path id="DejaVuSans-38" d="M 2034 2216 
Q 1584 2216 1326 1975 
Q 1069 1734 1069 1313 
Q 1069 891 1326 650 
Q 1584 409 2034 409 
Q 2484 409 2743 651 
Q 3003 894 3003 1313 
Q 3003 1734 2745 1975 
Q 2488 2216 2034 2216 
z
M 1403 2484 
Q 997 2584 770 2862 
Q 544 3141 544 3541 
Q 544 4100 942 4425 
Q 1341 4750 2034 4750 
Q 2731 4750 3128 4425 
Q 3525 4100 3525 3541 
Q 3525 3141 3298 2862 
Q 3072 2584 2669 2484 
Q 3125 2378 3379 2068 
Q 3634 1759 3634 1313 
Q 3634 634 3220 271 
Q 2806 -91 2034 -91 
Q 1263 -91 848 271 
Q 434 634 434 1313 
Q 434 1759 690 2068 
Q 947 2378 1403 2484 
z
M 1172 3481 
Q 1172 3119 1398 2916 
Q 1625 2713 2034 2713 
Q 2441 2713 2670 2916 
Q 2900 3119 2900 3481 
Q 2900 3844 2670 4047 
Q 2441 4250 2034 4250 
Q 1625 4250 1398 4047 
Q 1172 3844 1172 3481 
z
" transform="scale(0.015625)"/>
       </defs>
       <use xlink:href="#DejaVuSans-38"/>
       <use xlink:href="#DejaVuSans-30" x="63.623047"/>
       <use xlink:href="#DejaVuSans-30" x="127.246094"/>
      </g>
     </g>
    </g>
    <g id="ytick_6">
     <g id="line2d_12">
      <g>
       <use xlink:href="#m7a9f223873" x="57.6" y="109.70167" style="stroke: #000000; stroke-width: 0.8"/>
      </g>
     </g>
     <g id="text_13">
      <!-- 1000 -->
      <g transform="translate(25.15 113.500888) scale(0.1 -0.1)">
       <use xlink:href="#DejaVuSans-31"/>
       <use xlink:href="#DejaVuSans-30" x="63.623047"/>
       <use xlink:href="#DejaVuSans-30" x="127.246094"/>
       <use xlink:href="#DejaVuSans-30" x="190.869141"/>
      </g>
     </g>
    </g>
    <g id="ytick_7">
     <g id="line2d_13">
      <g>
       <use xlink:href="#m7a9f223873" x="57.6" y="72.37338" style="stroke: #000000; stroke-width: 0.8"/>
      </g>
     </g>
     <g id="text_14">
      <!-- 1200 -->
      <g transform="translate(25.15 76.172598) scale(0.1 -0.1)">
       <use xlink:href="#DejaVuSans-31"/>
       <use xlink:href="#DejaVuSans-32" x="63.623047"/>
       <use xlink:href="#DejaVuSans-30" x="127.246094"/>
       <use xlink:href="#DejaVuSans-30" x="190.869141"/>
      </g>
     </g>
    </g>
    <g id="text_15">
     <!-- rewards -->
     <g transform="translate(19.070312 194.447531) rotate(-90) scale(0.1 -0.1)">
      <defs>
       <path id="DejaVuSans-72" d="M 2631 2963 
Q 2534 3019 2420 3045 
Q 2306 3072 2169 3072 
Q 1681 3072 1420 2755 
Q 1159 2438 1159 1844 
L 1159 0 
L 581 0 
L 581 3500 
L 1159 3500 
L 1159 2956 
Q 1341 3275 1631 3429 
Q 1922 3584 2338 3584 
Q 2397 3584 2469 3576 
Q 2541 3569 2628 3553 
L 2631 2963 
z
" transform="scale(0.015625)"/>
       <path id="DejaVuSans-77" d="M 269 3500 
L 844 3500 
L 1563 769 
L 2278 3500 
L 2956 3500 
L 3675 769 
L 4391 3500 
L 4966 3500 
L 4050 0 
L 3372 0 
L 2619 2869 
L 1863 0 
L 1184 0 
L 269 3500 
z
" transform="scale(0.015625)"/>
       <path id="DejaVuSans-61" d="M 2194 1759 
Q 1497 1759 1228 1600 
Q 959 1441 959 1056 
Q 959 750 1161 570 
Q 1363 391 1709 391 
Q 2188 391 2477 730 
Q 2766 1069 2766 1631 
L 2766 1759 
L 2194 1759 
z
M 3341 1997 
L 3341 0 
L 2766 0 
L 2766 531 
Q 2569 213 2275 61 
Q 1981 -91 1556 -91 
Q 1019 -91 701 211 
Q 384 513 384 1019 
Q 384 1609 779 1909 
Q 1175 2209 1959 2209 
L 2766 2209 
L 2766 2266 
Q 2766 2663 2505 2880 
Q 2244 3097 1772 3097 
Q 1472 3097 1187 3025 
Q 903 2953 641 2809 
L 641 3341 
Q 956 3463 1253 3523 
Q 1550 3584 1831 3584 
Q 2591 3584 2966 3190 
Q 3341 2797 3341 1997 
z
" transform="scale(0.015625)"/>
       <path id="DejaVuSans-64" d="M 2906 2969 
L 2906 4863 
L 3481 4863 
L 3481 0 
L 2906 0 
L 2906 525 
Q 2725 213 2448 61 
Q 2172 -91 1784 -91 
Q 1150 -91 751 415 
Q 353 922 353 1747 
Q 353 2572 751 3078 
Q 1150 3584 1784 3584 
Q 2172 3584 2448 3432 
Q 2725 3281 2906 2969 
z
M 947 1747 
Q 947 1113 1208 752 
Q 1469 391 1925 391 
Q 2381 391 2643 752 
Q 2906 1113 2906 1747 
Q 2906 2381 2643 2742 
Q 2381 3103 1925 3103 
Q 1469 3103 1208 2742 
Q 947 2381 947 1747 
z
" transform="scale(0.015625)"/>
      </defs>
      <use xlink:href="#DejaVuSans-72"/>
      <use xlink:href="#DejaVuSans-65" x="38.863281"/>
      <use xlink:href="#DejaVuSans-77" x="100.386719"/>
      <use xlink:href="#DejaVuSans-61" x="182.173828"/>
      <use xlink:href="#DejaVuSans-72" x="243.453125"/>
      <use xlink:href="#DejaVuSans-64" x="282.816406"/>
      <use xlink:href="#DejaVuSans-73" x="346.292969"/>
     </g>
    </g>
   </g>
   <g id="line2d_14">
    <path d="M 73.832727 293.565239 
L 73.9172 293.991305 
L 74.060154 293.585334 
L 74.131631 295.211367 
L 74.261589 292.557265 
L 74.378551 293.448494 
L 74.502011 293.436051 
L 74.651463 292.170822 
L 74.820408 292.291919 
L 74.976358 294.869889 
L 75.073826 294.362494 
L 75.301253 290.139523 
L 75.541675 289.064864 
L 75.626147 294.810656 
L 75.769101 292.947866 
L 75.983532 292.304221 
L 76.405895 290.607601 
L 76.581339 294.825868 
L 76.704799 294.137939 
L 76.834757 291.477467 
L 77.0102 295.112864 
L 77.283112 286.750636 
L 77.484547 294.687993 
L 77.569019 294.237661 
L 77.841931 289.697265 
L 78.231805 289.311307 
L 78.30978 294.285685 
L 78.446236 294.475267 
L 78.699654 291.682615 
L 78.777629 294.828895 
L 78.881595 293.218109 
L 79.070034 294.615293 
L 79.264971 293.974126 
L 79.641849 290.937804 
L 79.713326 295.233418 
L 79.843284 293.174688 
L 79.947251 294.004735 
L 80.1032 292.825572 
L 80.161681 295.06532 
L 80.356618 292.980145 
L 80.47358 294.489127 
L 80.551555 294.422985 
L 80.739994 290.377359 
L 80.804973 294.954667 
L 80.928433 292.836238 
L 80.99991 295.239394 
L 81.55873 276.593968 
L 81.779658 294.154812 
L 81.870629 295.065557 
L 81.974595 294.943007 
L 82.189026 293.761308 
L 82.29949 294.817915 
L 82.364469 294.809357 
L 82.624385 293.101333 
L 82.695862 294.792684 
L 82.786833 294.713282 
L 82.845314 294.966923 
L 83.033753 289.294467 
L 83.111728 294.679698 
L 83.469112 284.409411 
L 83.586074 292.878703 
L 83.72253 293.954108 
L 83.936961 293.262275 
L 84.040927 294.606306 
L 84.151391 293.935057 
L 84.37232 295.110516 
L 84.794683 279.412505 
L 85.015612 293.889907 
L 85.14557 294.842997 
L 85.26903 294.055606 
L 85.463967 294.587047 
L 85.645908 289.926194 
L 85.821352 294.869769 
L 85.886331 294.905647 
L 86.120255 294.196312 
L 86.237217 293.05896 
L 86.471142 291.950375 
L 86.997471 278.653578 
L 87.120931 294.2053 
L 87.244392 294.24098 
L 87.393843 293.471054 
L 87.49781 293.742848 
L 87.595278 295.10041 
L 87.861692 291.751641 
L 88.030637 294.855877 
L 88.160595 293.850334 
L 88.245068 294.284014 
L 88.414013 293.092926 
L 88.706419 283.770522 
L 88.927347 295.229105 
L 89.01182 294.680352 
L 89.213255 291.744566 
L 89.349711 293.572176 
L 89.590133 289.844341 
L 89.739585 295.085675 
L 89.869543 292.485808 
L 89.999501 295.0831 
L 90.122961 294.406223 
L 90.473848 288.868136 
L 90.694776 288.373947 
L 90.779249 294.561567 
L 90.870219 293.918504 
L 91.013173 291.21269 
L 91.305579 283.409546 
L 91.481022 294.809956 
L 91.558997 294.384156 
L 91.727942 295.024045 
L 91.89039 294.402491 
L 92.364736 286.47812 
L 92.585665 294.262972 
L 92.66364 294.164851 
L 93.053514 288.115908 
L 93.475877 294.812111 
L 93.891743 285.571227 
L 94.028198 293.99285 
L 94.385583 286.075721 
L 94.632503 294.686582 
L 94.755963 294.218163 
L 94.944402 291.467236 
L 95.041871 294.317778 
L 95.483728 274.250722 
L 95.730648 293.737528 
L 95.938581 292.567107 
L 96.088033 295.12081 
L 96.191999 293.929612 
L 96.263476 294.735839 
L 96.412928 291.709478 
L 96.588371 294.912293 
L 96.672844 294.53168 
L 96.809299 293.140302 
L 96.913266 294.538625 
L 97.05622 293.130339 
L 97.160186 294.547984 
L 97.342127 292.249359 
L 97.511073 294.527679 
L 97.693014 292.466194 
L 97.803478 293.505389 
L 98.303816 285.200521 
L 98.57023 293.040919 
L 98.732678 291.406786 
L 98.830146 293.815214 
L 98.94061 293.496943 
L 99.012087 295.039232 
L 99.135547 294.161235 
L 99.259007 294.250628 
L 99.356476 293.784731 
L 99.440949 294.772837 
L 99.74635 285.154115 
L 99.915295 294.855411 
L 99.999768 294.488738 
L 100.571583 270.402563 
L 100.883482 289.307458 
L 101.117407 291.191922 
L 101.208377 294.833061 
L 101.442302 293.070265 
L 101.669728 288.092415 
L 101.988125 294.921763 
L 102.150573 292.940414 
L 102.397493 294.747539 
L 102.631417 294.357774 
L 102.969308 284.829764 
L 103.073274 294.319031 
L 103.33319 292.533862 
L 103.495638 295.097279 
L 103.671081 293.036553 
L 103.956989 293.811474 
L 104.203909 288.671621 
L 104.372854 295.090466 
L 104.66526 293.482513 
L 104.75623 294.502535 
L 104.91218 292.119085 
L 105.100619 290.952175 
L 105.269564 294.566986 
L 105.347539 294.613851 
L 105.43851 293.832455 
L 105.509987 294.652053 
L 105.633447 293.549129 
L 105.795894 294.079296 
L 106.0883 291.755372 
L 106.17927 294.657605 
L 106.354714 293.774893 
L 106.45868 293.956623 
L 106.666613 291.239326 
L 106.725094 294.996201 
L 107.186445 292.295615 
L 107.277415 294.221508 
L 107.498344 291.617681 
L 107.667289 292.376624 
L 107.797247 295.182934 
L 108.018176 291.680006 
L 108.447037 294.735818 
L 108.563999 294.403549 
L 108.628978 294.976822 
L 108.921384 292.99196 
L 108.992861 294.968311 
L 109.116321 293.002846 
L 109.291764 293.125172 
L 109.369739 295.259525 
L 109.558178 290.986977 
L 109.720625 291.860254 
L 109.792102 295.14581 
L 110.104001 288.476945 
L 110.207968 294.269106 
L 110.318432 294.15886 
L 110.441892 292.947378 
L 110.526365 294.367281 
L 110.636829 293.036345 
L 110.792779 293.662958 
L 110.864256 294.870478 
L 111.020205 293.413525 
L 111.169657 293.273677 
L 111.371092 294.027622 
L 111.520544 293.387271 
L 112.144342 278.687951 
L 112.215819 294.686952 
L 112.319785 294.552825 
L 112.462739 292.412364 
L 112.540714 294.519677 
L 112.846115 293.988793 
L 112.92409 294.700864 
L 113.028056 293.095742 
L 113.106031 294.907798 
L 113.203499 293.607018 
L 113.333457 293.434425 
L 113.521897 295.154528 
L 113.645357 293.110198 
L 113.879281 293.059629 
L 113.989745 293.154201 
L 114.126201 293.60734 
L 114.230168 294.441629 
L 114.483586 290.032719 
L 114.56156 294.904214 
L 114.866962 282.263754 
L 115.269831 293.86804 
L 115.360802 294.138655 
L 115.510254 293.781892 
L 115.633714 292.882681 
L 115.939115 294.956574 
L 116.160044 291.980322 
L 116.367976 294.358692 
L 116.601901 293.790973 
L 116.731859 294.157052 
L 116.965783 292.479083 
L 117.063252 294.884461 
L 117.16072 293.775785 
L 117.232197 294.658476 
L 117.609075 292.460108 
L 117.752029 294.863545 
L 117.920974 292.370387 
L 117.998949 294.878564 
L 118.141903 291.958777 
L 118.297853 294.408566 
L 118.401819 294.401003 
L 118.525279 292.675097 
L 118.609752 294.881656 
L 118.687727 294.748488 
L 118.798191 294.548698 
L 118.869668 294.982868 
L 119.012621 292.354496 
L 119.097094 294.949187 
L 119.305027 293.248916 
L 119.564943 290.049235 
L 119.649416 294.779072 
L 119.909332 293.571318 
L 120.104269 291.537166 
L 120.16275 295.150454 
L 120.240724 294.669787 
L 120.351189 293.772047 
L 120.396674 295.407893 
L 120.728067 288.529259 
L 120.832033 293.902863 
L 121.02697 293.590326 
L 121.221907 291.910186 
L 121.332372 294.065376 
L 121.527309 294.263903 
L 121.605283 294.676954 
L 121.748237 294.321416 
L 122.261571 269.443122 
L 122.365538 293.960694 
L 122.521487 293.111714 
L 122.612458 294.505526 
L 122.787901 293.675382 
L 122.85288 294.859603 
L 123.554653 286.958004 
L 123.678113 294.673707 
L 123.886046 292.833591 
L 123.964021 294.465286 
L 124.041996 294.458905 
L 124.113472 294.711413 
L 124.191447 294.400818 
L 124.301912 294.452223 
L 124.373388 294.654125 
L 124.516342 294.26351 
L 124.587819 294.872237 
L 124.815246 291.280848 
L 125.003685 294.701493 
L 125.257103 294.211366 
L 125.41955 292.887151 
L 125.633981 294.506983 
L 125.737947 293.747166 
L 125.848412 294.149795 
L 126.108328 293.263726 
L 126.166809 294.93141 
L 126.303265 294.195065 
L 126.407231 294.552659 
L 126.537189 293.351482 
L 126.654151 294.502673 
L 126.972548 284.643425 
L 127.070017 294.64049 
L 127.225966 295.411748 
L 127.498878 294.186986 
L 127.667823 294.90441 
L 127.856263 289.706012 
L 127.966727 294.347109 
L 128.207149 292.144674 
L 128.272128 295.245775 
L 128.499555 289.374224 
L 128.603521 293.202726 
L 128.752973 291.779673 
L 128.817952 294.925006 
L 128.967403 291.129358 
L 129.136349 293.674083 
L 129.279302 293.506844 
L 129.526223 292.262984 
L 129.708164 292.586676 
L 129.916097 293.757972 
L 130.065548 293.017282 
L 130.208502 294.420958 
L 130.33846 292.879246 
L 130.70884 282.562071 
L 130.806309 293.798375 
L 131.007744 294.114009 
L 131.150697 291.780664 
L 131.527576 278.911667 
L 131.612048 294.725113 
L 131.696521 294.607116 
L 131.930445 289.934882 
L 131.995424 295.488 
L 132.333315 291.469559 
L 132.463273 294.410929 
L 132.716691 285.821032 
L 133.093569 294.332599 
L 133.262515 295.121583 
L 133.470448 292.227926 
L 133.580912 295.02077 
L 133.658887 294.421493 
L 133.730364 294.655413 
L 133.899309 290.15565 
L 133.977284 294.528771 
L 134.126735 292.413926 
L 134.321672 294.971566 
L 134.438635 293.272734 
L 134.562095 293.352261 
L 134.640069 294.623527 
L 134.880492 292.733405 
L 135.036441 293.225683 
L 135.218382 291.385589 
L 135.283361 295.284127 
L 135.400324 293.400721 
L 135.562771 293.899719 
L 135.647244 294.894641 
L 135.777202 294.230807 
L 135.965641 294.561637 
L 136.550452 265.736161 
L 136.784376 294.848526 
L 136.946824 293.265643 
L 137.024798 294.962919 
L 137.102773 294.956628 
L 137.180748 294.978123 
L 137.271719 294.276419 
L 137.434166 290.579507 
L 137.811044 294.753686 
L 138.148935 290.068636 
L 138.259399 295.153624 
L 138.50632 290.9801 
L 138.694759 289.839073 
L 138.922185 289.66825 
L 139.104126 293.887032 
L 139.429021 291.167203 
L 139.64995 293.163901 
L 139.838389 294.18738 
L 139.955351 294.15861 
L 140.046322 293.968275 
L 140.325731 288.341714 
L 140.540162 291.31606 
L 140.644128 294.800402 
L 140.884551 294.265929 
L 141.352399 286.487427 
L 141.553834 286.6147 
L 141.891725 281.870693 
L 142.262105 280.809409 
L 142.664975 290.726459 
L 143.178309 279.098914 
L 143.76312 283.329677 
L 144.380421 258.551965 
L 144.69232 281.775373 
L 145.270633 258.47957 
L 145.848946 259.867205 
L 146.440255 258.068441 
L 147.031564 257.619277 
L 147.596881 259.686843 
L 148.149202 262.674943 
L 148.708022 262.54908 
L 149.240849 262.976713 
L 149.812664 264.22107 
L 150.416969 258.83635 
L 151.567097 260.798835 
L 152.138912 259.447328 
L 152.697732 261.353756 
L 153.256551 260.719779 
L 153.893345 259.807196 
L 155.062967 261.988656 
L 155.680268 260.275738 
L 156.232589 260.290117 
L 156.8174 261.55347 
L 157.376219 261.726466 
L 158.026009 258.54935 
L 158.597824 263.146191 
L 159.182635 262.361943 
L 159.728459 264.87384 
L 160.352257 259.981411 
L 161.008545 259.020594 
L 161.70382 257.084917 
L 162.314623 257.027233 
L 163.042388 254.011289 
L 163.705173 257.894706 
L 164.348465 254.885217 
L 165.024247 252.464477 
L 165.719522 254.120396 
L 166.310831 257.524134 
L 166.960621 253.364657 
L 167.597415 254.65986 
L 168.253703 253.147553 
L 168.922986 250.353848 
L 169.605266 250.598926 
L 170.229064 253.734758 
L 170.924339 254.946405 
L 171.606619 248.841714 
L 172.275902 250.229551 
L 172.938688 249.55112 
L 173.620968 247.891459 
L 174.257762 252.500589 
L 174.953037 249.476409 
L 175.583333 253.649855 
L 176.226625 251.498061 
L 176.928398 245.671521 
L 177.60418 248.480102 
L 178.227978 254.240968 
L 178.851777 254.647275 
L 179.566546 246.024381 
L 180.261821 248.899889 
L 180.963594 247.44208 
L 181.678363 246.533677 
L 182.406128 245.042158 
L 183.114399 245.917466 
L 183.829168 245.720953 
L 184.569928 244.256429 
L 185.206722 252.819744 
L 185.960479 241.321098 
L 186.597273 253.661487 
L 187.201577 256.170669 
L 187.825376 254.78603 
L 188.540145 245.407883 
L 189.20293 252.149319 
L 189.88521 247.702059 
L 190.457025 259.11394 
L 191.048334 257.460508 
L 191.652638 255.041411 
L 192.354412 245.686492 
L 193.030193 248.753722 
L 193.634498 255.560977 
L 194.342769 244.689336 
L 195.642349 254.424469 
L 196.253151 252.715099 
L 196.889945 256.067201 
L 197.546233 249.976634 
L 198.228513 248.153084 
L 198.832817 258.565851 
L 199.495603 249.32434 
L 200.171384 248.578667 
L 200.814676 250.798048 
L 201.496956 245.36218 
L 202.107758 255.671815 
L 202.770544 248.28319 
L 203.316368 262.493129 
L 203.946664 254.024269 
L 204.518479 261.436481 
L 205.252742 246.529274 
L 205.369704 293.404763 
L 206.084473 248.890021 
L 206.812238 246.169263 
L 207.494517 246.65691 
L 208.079328 260.979599 
L 208.761607 248.562572 
L 209.463381 245.925365 
L 210.165154 244.321017 
L 210.847433 246.387065 
L 211.549206 245.978155 
L 212.231486 247.399819 
L 212.874778 256.006659 
L 213.563555 247.002091 
L 214.200349 253.135079 
L 214.824147 253.339941 
L 215.512925 246.96509 
L 216.162715 252.505142 
L 216.877484 244.806432 
L 217.585755 247.413522 
L 218.346009 243.745073 
L 219.067276 246.297531 
L 219.821032 245.240925 
L 220.522805 253.361678 
L 221.211583 249.591614 
L 222.101795 246.169663 
L 222.784074 250.18192 
L 223.511839 246.033725 
L 224.252599 244.371034 
L 224.947875 249.651517 
L 225.649648 247.412299 
L 226.305936 252.945493 
L 226.936232 256.416862 
L 227.579524 252.818801 
L 228.287795 247.087861 
L 228.950581 252.378826 
L 229.626362 250.013078 
L 230.295646 252.586186 
L 230.984423 249.725894 
L 231.70569 245.310333 
L 232.413961 247.048471 
L 233.109236 247.780009 
L 233.830503 245.626421 
L 234.538774 246.407225 
L 235.279535 241.551152 
L 235.994304 246.087882 
L 236.676583 248.808724 
L 237.36536 249.457039 
L 238.028146 249.817223 
L 238.768907 244.578538 
L 239.451186 248.582936 
L 240.139963 247.301935 
L 240.854732 244.689654 
L 241.608489 241.401055 
L 242.303764 247.307353 
L 243.025031 244.318504 
L 243.759293 242.787133 
L 244.454569 246.627046 
L 245.156342 246.148214 
L 245.890604 245.100697 
L 246.579382 248.380047 
L 247.287653 247.624129 
L 248.002422 250.430644 
L 248.736684 242.525515 
L 249.464449 244.053261 
L 250.146728 247.462151 
L 250.816012 248.173733 
L 251.530781 249.154948 
L 252.271541 242.116382 
L 252.992808 243.442356 
L 253.688084 245.643761 
L 255.130617 243.02997 
L 255.858382 244.470844 
L 256.586147 241.753785 
L 257.274924 246.309018 
L 258.749947 243.251656 
L 259.45172 245.421173 
L 260.231468 237.418841 
L 261.784466 241.409292 
L 262.564214 236.609461 
L 263.363456 235.48406 
L 264.117212 240.824345 
L 264.955441 238.928 
L 265.787172 240.723656 
L 266.521435 243.24785 
L 267.379157 239.109802 
L 268.275868 237.59712 
L 269.107599 239.532197 
L 269.952326 237.862475 
L 270.732074 239.417955 
L 271.5768 238.857039 
L 272.454017 238.598387 
L 273.318237 238.125064 
L 274.071994 240.777065 
L 274.832248 241.357206 
L 275.624992 244.001847 
L 276.567187 237.547397 
L 277.333939 240.608196 
L 278.094193 241.607433 
L 278.893435 239.642298 
L 279.673183 240.053323 
L 280.543902 239.072558 
L 281.323649 240.24798 
L 282.116393 239.476449 
L 282.902639 239.982921 
L 283.721374 237.755453 
L 284.527114 238.2678 
L 285.326355 237.316742 
L 286.125597 241.235697 
L 286.898847 243.476661 
L 287.672097 240.068606 
L 288.484335 239.402691 
L 289.355053 237.19006 
L 290.115307 239.228745 
L 290.869064 242.423924 
L 291.642314 242.003718 
L 292.604003 234.834684 
L 293.364257 244.337971 
L 294.111515 243.246648 
L 294.858774 241.732351 
L 295.619028 241.992142 
L 296.372784 239.753776 
L 297.15903 238.596275 
L 297.945276 238.744904 
L 298.770509 238.506528 
L 299.556755 243.530058 
L 300.323507 239.178082 
L 301.103255 240.003625 
L 301.908995 239.808461 
L 302.662751 240.075806 
L 303.416507 239.709308 
L 304.267732 240.97425 
L 305.092965 239.052308 
L 305.82073 250.003837 
L 306.652461 238.47431 
L 307.464699 243.814599 
L 308.432886 235.305167 
L 309.225629 241.430097 
L 310.08985 239.214774 
L 312.318629 223.805768 
L 312.591541 289.674735 
L 313.475255 237.589527 
L 314.047071 284.227462 
L 315.561081 203.673109 
L 316.509774 271.901995 
L 317.477961 270.71484 
L 318.335684 272.186289 
L 320.473493 155.163054 
L 321.981006 215.561785 
L 322.520331 283.266931 
L 324.073329 224.787694 
L 325.899239 174.930461 
L 327.10135 237.316433 
L 329.200172 204.505781 
L 330.499752 227.502531 
L 331.545914 217.221164 
L 332.566084 218.166032 
L 333.540769 224.814302 
L 336.380351 53.568 
L 338.999004 103.261969 
L 340.597487 180.801298 
L 343.268124 117.695285 
L 345.314962 180.992806 
L 348.563912 81.088643 
L 351.611427 70.400791 
L 353.281387 161.825241 
L 355.191769 142.872581 
L 357.829916 78.114867 
L 359.681818 143.484435 
L 361.455744 147.645642 
L 362.781316 177.153206 
L 364.132879 170.78969 
L 365.250518 200.457081 
L 366.965963 151.700617 
L 368.096597 200.583097 
L 368.207062 292.466106 
L 369.415671 189.313335 
L 370.273394 239.592632 
L 371.033648 242.854968 
L 372.105801 204.705906 
L 373.405381 181.237708 
L 374.704961 188.694455 
L 375.900575 192.024534 
L 377.271631 173.474453 
L 378.597203 173.30986 
L 379.864293 178.027916 
L 380.98843 204.941908 
L 382.586913 150.253779 
L 384.263371 151.301708 
L 386.823543 65.153436 
L 388.623462 145.566077 
L 391.872411 54.695293 
L 395.121361 65.938672 
L 396.264991 184.573548 
L 397.551575 174.052111 
L 398.487273 209.909708 
L 398.487273 209.909708 
" clip-path="url(#p6df7e69323)" style="fill: none; stroke: #1f77b4; stroke-width: 1.5; stroke-linecap: square"/>
   </g>
   <g id="patch_3">
    <path d="M 57.6 307.584 
L 57.6 41.472 
" style="fill: none; stroke: #000000; stroke-width: 0.8; stroke-linejoin: miter; stroke-linecap: square"/>
   </g>
   <g id="patch_4">
    <path d="M 414.72 307.584 
L 414.72 41.472 
" style="fill: none; stroke: #000000; stroke-width: 0.8; stroke-linejoin: miter; stroke-linecap: square"/>
   </g>
   <g id="patch_5">
    <path d="M 57.6 307.584 
L 414.72 307.584 
" style="fill: none; stroke: #000000; stroke-width: 0.8; stroke-linejoin: miter; stroke-linecap: square"/>
   </g>
   <g id="patch_6">
    <path d="M 57.6 41.472 
L 414.72 41.472 
" style="fill: none; stroke: #000000; stroke-width: 0.8; stroke-linejoin: miter; stroke-linecap: square"/>
   </g>
   <g id="text_16">
    <!-- learning curve -->
    <g transform="translate(192.96375 35.472) scale(0.12 -0.12)">
     <defs>
      <path id="DejaVuSans-6c" d="M 603 4863 
L 1178 4863 
L 1178 0 
L 603 0 
L 603 4863 
z
" transform="scale(0.015625)"/>
      <path id="DejaVuSans-6e" d="M 3513 2113 
L 3513 0 
L 2938 0 
L 2938 2094 
Q 2938 2591 2744 2837 
Q 2550 3084 2163 3084 
Q 1697 3084 1428 2787 
Q 1159 2491 1159 1978 
L 1159 0 
L 581 0 
L 581 3500 
L 1159 3500 
L 1159 2956 
Q 1366 3272 1645 3428 
Q 1925 3584 2291 3584 
Q 2894 3584 3203 3211 
Q 3513 2838 3513 2113 
z
" transform="scale(0.015625)"/>
      <path id="DejaVuSans-67" d="M 2906 1791 
Q 2906 2416 2648 2759 
Q 2391 3103 1925 3103 
Q 1463 3103 1205 2759 
Q 947 2416 947 1791 
Q 947 1169 1205 825 
Q 1463 481 1925 481 
Q 2391 481 2648 825 
Q 2906 1169 2906 1791 
z
M 3481 434 
Q 3481 -459 3084 -895 
Q 2688 -1331 1869 -1331 
Q 1566 -1331 1297 -1286 
Q 1028 -1241 775 -1147 
L 775 -588 
Q 1028 -725 1275 -790 
Q 1522 -856 1778 -856 
Q 2344 -856 2625 -561 
Q 2906 -266 2906 331 
L 2906 616 
Q 2728 306 2450 153 
Q 2172 0 1784 0 
Q 1141 0 747 490 
Q 353 981 353 1791 
Q 353 2603 747 3093 
Q 1141 3584 1784 3584 
Q 2172 3584 2450 3431 
Q 2728 3278 2906 2969 
L 2906 3500 
L 3481 3500 
L 3481 434 
z
" transform="scale(0.015625)"/>
      <path id="DejaVuSans-20" transform="scale(0.015625)"/>
      <path id="DejaVuSans-63" d="M 3122 3366 
L 3122 2828 
Q 2878 2963 2633 3030 
Q 2388 3097 2138 3097 
Q 1578 3097 1268 2742 
Q 959 2388 959 1747 
Q 959 1106 1268 751 
Q 1578 397 2138 397 
Q 2388 397 2633 464 
Q 2878 531 3122 666 
L 3122 134 
Q 2881 22 2623 -34 
Q 2366 -91 2075 -91 
Q 1284 -91 818 406 
Q 353 903 353 1747 
Q 353 2603 823 3093 
Q 1294 3584 2113 3584 
Q 2378 3584 2631 3529 
Q 2884 3475 3122 3366 
z
" transform="scale(0.015625)"/>
      <path id="DejaVuSans-75" d="M 544 1381 
L 544 3500 
L 1119 3500 
L 1119 1403 
Q 1119 906 1312 657 
Q 1506 409 1894 409 
Q 2359 409 2629 706 
Q 2900 1003 2900 1516 
L 2900 3500 
L 3475 3500 
L 3475 0 
L 2900 0 
L 2900 538 
Q 2691 219 2414 64 
Q 2138 -91 1772 -91 
Q 1169 -91 856 284 
Q 544 659 544 1381 
z
M 1991 3584 
L 1991 3584 
z
" transform="scale(0.015625)"/>
      <path id="DejaVuSans-76" d="M 191 3500 
L 800 3500 
L 1894 563 
L 2988 3500 
L 3597 3500 
L 2284 0 
L 1503 0 
L 191 3500 
z
" transform="scale(0.015625)"/>
     </defs>
     <use xlink:href="#DejaVuSans-6c"/>
     <use xlink:href="#DejaVuSans-65" x="27.783203"/>
     <use xlink:href="#DejaVuSans-61" x="89.306641"/>
     <use xlink:href="#DejaVuSans-72" x="150.585938"/>
     <use xlink:href="#DejaVuSans-6e" x="189.949219"/>
     <use xlink:href="#DejaVuSans-69" x="253.328125"/>
     <use xlink:href="#DejaVuSans-6e" x="281.111328"/>
     <use xlink:href="#DejaVuSans-67" x="344.490234"/>
     <use xlink:href="#DejaVuSans-20" x="407.966797"/>
     <use xlink:href="#DejaVuSans-63" x="439.753906"/>
     <use xlink:href="#DejaVuSans-75" x="494.734375"/>
     <use xlink:href="#DejaVuSans-72" x="558.113281"/>
     <use xlink:href="#DejaVuSans-76" x="599.226562"/>
     <use xlink:href="#DejaVuSans-65" x="658.40625"/>
    </g>
   </g>
  </g>
 </g>
 <defs>
  <clipPath id="p6df7e69323">
   <rect x="57.6" y="41.472" width="357.12" height="266.112"/>
  </clipPath>
 </defs>
</svg>
