<?xml version="1.0" encoding="utf-8" standalone="no"?>
<!DOCTYPE svg PUBLIC "-//W3C//DTD SVG 1.1//EN"
  "http://www.w3.org/Graphics/SVG/1.1/DTD/svg11.dtd">
<svg xmlns:xlink="http://www.w3.org/1999/xlink" width="460.8pt" height="345.6pt" viewBox="0 0 460.8 345.6" xmlns="http://www.w3.org/2000/svg" version="1.1">
 <metadata>
  <rdf:RDF xmlns:dc="http://purl.org/dc/elements/1.1/" xmlns:cc="http://creativecommons.org/ns#" xmlns:rdf="http://www.w3.org/1999/02/22-rdf-syntax-ns#">
   <cc:Work>
    <dc:type rdf:resource="http://purl.org/dc/dcmitype/StillImage"/>
    <dc:date>2023-08-19T14:24:03.093784</dc:date>
    <dc:format>image/svg+xml</dc:format>
    <dc:creator>
     <cc:Agent>
      <dc:title>Matplotlib v3.7.1, https://matplotlib.org/</dc:title>
     </cc:Agent>
    </dc:creator>
   </cc:Work>
  </rdf:RDF>
 </metadata>
 <defs>
  <style type="text/css">*{stroke-linejoin: round; stroke-linecap: butt}</style>
 </defs>
 <g id="figure_1">
  <g id="patch_1">
   <path d="M 0 345.6 
L 460.8 345.6 
L 460.8 0 
L 0 0 
z
" style="fill: #ffffff"/>
  </g>
  <g id="axes_1">
   <g id="patch_2">
    <path d="M 57.6 307.584 
L 414.72 307.584 
L 414.72 41.472 
L 57.6 41.472 
z
" style="fill: #ffffff"/>
   </g>
   <g id="matplotlib.axis_1">
    <g id="xtick_1">
     <g id="line2d_1">
      <defs>
       <path id="ma6dc3c69f8" d="M 0 0 
L 0 3.5 
" style="stroke: #000000; stroke-width: 0.8"/>
      </defs>
      <g>
       <use xlink:href="#ma6dc3c69f8" x="73.585802" y="307.584" style="stroke: #000000; stroke-width: 0.8"/>
      </g>
     </g>
     <g id="text_1">
      <!-- 0 -->
      <g transform="translate(70.404552 322.182437) scale(0.1 -0.1)">
       <defs>
        <path id="DejaVuSans-30" d="M 2034 4250 
Q 1547 4250 1301 3770 
Q 1056 3291 1056 2328 
Q 1056 1369 1301 889 
Q 1547 409 2034 409 
Q 2525 409 2770 889 
Q 3016 1369 3016 2328 
Q 3016 3291 2770 3770 
Q 2525 4250 2034 4250 
z
M 2034 4750 
Q 2819 4750 3233 4129 
Q 3647 3509 3647 2328 
Q 3647 1150 3233 529 
Q 2819 -91 2034 -91 
Q 1250 -91 836 529 
Q 422 1150 422 2328 
Q 422 3509 836 4129 
Q 1250 4750 2034 4750 
z
" transform="scale(0.015625)"/>
       </defs>
       <use xlink:href="#DejaVuSans-30"/>
      </g>
     </g>
    </g>
    <g id="xtick_2">
     <g id="line2d_2">
      <g>
       <use xlink:href="#ma6dc3c69f8" x="138.566096" y="307.584" style="stroke: #000000; stroke-width: 0.8"/>
      </g>
     </g>
     <g id="text_2">
      <!-- 100000 -->
      <g transform="translate(119.478596 322.182437) scale(0.1 -0.1)">
       <defs>
        <path id="DejaVuSans-31" d="M 794 531 
L 1825 531 
L 1825 4091 
L 703 3866 
L 703 4441 
L 1819 4666 
L 2450 4666 
L 2450 531 
L 3481 531 
L 3481 0 
L 794 0 
L 794 531 
z
" transform="scale(0.015625)"/>
       </defs>
       <use xlink:href="#DejaVuSans-31"/>
       <use xlink:href="#DejaVuSans-30" x="63.623047"/>
       <use xlink:href="#DejaVuSans-30" x="127.246094"/>
       <use xlink:href="#DejaVuSans-30" x="190.869141"/>
       <use xlink:href="#DejaVuSans-30" x="254.492188"/>
       <use xlink:href="#DejaVuSans-30" x="318.115234"/>
      </g>
     </g>
    </g>
    <g id="xtick_3">
     <g id="line2d_3">
      <g>
       <use xlink:href="#ma6dc3c69f8" x="203.54639" y="307.584" style="stroke: #000000; stroke-width: 0.8"/>
      </g>
     </g>
     <g id="text_3">
      <!-- 200000 -->
      <g transform="translate(184.45889 322.182437) scale(0.1 -0.1)">
       <defs>
        <path id="DejaVuSans-32" d="M 1228 531 
L 3431 531 
L 3431 0 
L 469 0 
L 469 531 
Q 828 903 1448 1529 
Q 2069 2156 2228 2338 
Q 2531 2678 2651 2914 
Q 2772 3150 2772 3378 
Q 2772 3750 2511 3984 
Q 2250 4219 1831 4219 
Q 1534 4219 1204 4116 
Q 875 4013 500 3803 
L 500 4441 
Q 881 4594 1212 4672 
Q 1544 4750 1819 4750 
Q 2544 4750 2975 4387 
Q 3406 4025 3406 3419 
Q 3406 3131 3298 2873 
Q 3191 2616 2906 2266 
Q 2828 2175 2409 1742 
Q 1991 1309 1228 531 
z
" transform="scale(0.015625)"/>
       </defs>
       <use xlink:href="#DejaVuSans-32"/>
       <use xlink:href="#DejaVuSans-30" x="63.623047"/>
       <use xlink:href="#DejaVuSans-30" x="127.246094"/>
       <use xlink:href="#DejaVuSans-30" x="190.869141"/>
       <use xlink:href="#DejaVuSans-30" x="254.492188"/>
       <use xlink:href="#DejaVuSans-30" x="318.115234"/>
      </g>
     </g>
    </g>
    <g id="xtick_4">
     <g id="line2d_4">
      <g>
       <use xlink:href="#ma6dc3c69f8" x="268.526684" y="307.584" style="stroke: #000000; stroke-width: 0.8"/>
      </g>
     </g>
     <g id="text_4">
      <!-- 300000 -->
      <g transform="translate(249.439184 322.182437) scale(0.1 -0.1)">
       <defs>
        <path id="DejaVuSans-33" d="M 2597 2516 
Q 3050 2419 3304 2112 
Q 3559 1806 3559 1356 
Q 3559 666 3084 287 
Q 2609 -91 1734 -91 
Q 1441 -91 1130 -33 
Q 819 25 488 141 
L 488 750 
Q 750 597 1062 519 
Q 1375 441 1716 441 
Q 2309 441 2620 675 
Q 2931 909 2931 1356 
Q 2931 1769 2642 2001 
Q 2353 2234 1838 2234 
L 1294 2234 
L 1294 2753 
L 1863 2753 
Q 2328 2753 2575 2939 
Q 2822 3125 2822 3475 
Q 2822 3834 2567 4026 
Q 2313 4219 1838 4219 
Q 1578 4219 1281 4162 
Q 984 4106 628 3988 
L 628 4550 
Q 988 4650 1302 4700 
Q 1616 4750 1894 4750 
Q 2613 4750 3031 4423 
Q 3450 4097 3450 3541 
Q 3450 3153 3228 2886 
Q 3006 2619 2597 2516 
z
" transform="scale(0.015625)"/>
       </defs>
       <use xlink:href="#DejaVuSans-33"/>
       <use xlink:href="#DejaVuSans-30" x="63.623047"/>
       <use xlink:href="#DejaVuSans-30" x="127.246094"/>
       <use xlink:href="#DejaVuSans-30" x="190.869141"/>
       <use xlink:href="#DejaVuSans-30" x="254.492188"/>
       <use xlink:href="#DejaVuSans-30" x="318.115234"/>
      </g>
     </g>
    </g>
    <g id="xtick_5">
     <g id="line2d_5">
      <g>
       <use xlink:href="#ma6dc3c69f8" x="333.506979" y="307.584" style="stroke: #000000; stroke-width: 0.8"/>
      </g>
     </g>
     <g id="text_5">
      <!-- 400000 -->
      <g transform="translate(314.419479 322.182437) scale(0.1 -0.1)">
       <defs>
        <path id="DejaVuSans-34" d="M 2419 4116 
L 825 1625 
L 2419 1625 
L 2419 4116 
z
M 2253 4666 
L 3047 4666 
L 3047 1625 
L 3713 1625 
L 3713 1100 
L 3047 1100 
L 3047 0 
L 2419 0 
L 2419 1100 
L 313 1100 
L 313 1709 
L 2253 4666 
z
" transform="scale(0.015625)"/>
       </defs>
       <use xlink:href="#DejaVuSans-34"/>
       <use xlink:href="#DejaVuSans-30" x="63.623047"/>
       <use xlink:href="#DejaVuSans-30" x="127.246094"/>
       <use xlink:href="#DejaVuSans-30" x="190.869141"/>
       <use xlink:href="#DejaVuSans-30" x="254.492188"/>
       <use xlink:href="#DejaVuSans-30" x="318.115234"/>
      </g>
     </g>
    </g>
    <g id="xtick_6">
     <g id="line2d_6">
      <g>
       <use xlink:href="#ma6dc3c69f8" x="398.487273" y="307.584" style="stroke: #000000; stroke-width: 0.8"/>
      </g>
     </g>
     <g id="text_6">
      <!-- 500000 -->
      <g transform="translate(379.399773 322.182437) scale(0.1 -0.1)">
       <defs>
        <path id="DejaVuSans-35" d="M 691 4666 
L 3169 4666 
L 3169 4134 
L 1269 4134 
L 1269 2991 
Q 1406 3038 1543 3061 
Q 1681 3084 1819 3084 
Q 2600 3084 3056 2656 
Q 3513 2228 3513 1497 
Q 3513 744 3044 326 
Q 2575 -91 1722 -91 
Q 1428 -91 1123 -41 
Q 819 9 494 109 
L 494 744 
Q 775 591 1075 516 
Q 1375 441 1709 441 
Q 2250 441 2565 725 
Q 2881 1009 2881 1497 
Q 2881 1984 2565 2268 
Q 2250 2553 1709 2553 
Q 1456 2553 1204 2497 
Q 953 2441 691 2322 
L 691 4666 
z
" transform="scale(0.015625)"/>
       </defs>
       <use xlink:href="#DejaVuSans-35"/>
       <use xlink:href="#DejaVuSans-30" x="63.623047"/>
       <use xlink:href="#DejaVuSans-30" x="127.246094"/>
       <use xlink:href="#DejaVuSans-30" x="190.869141"/>
       <use xlink:href="#DejaVuSans-30" x="254.492188"/>
       <use xlink:href="#DejaVuSans-30" x="318.115234"/>
      </g>
     </g>
    </g>
    <g id="text_7">
     <!-- timesteps -->
     <g transform="translate(211.443594 335.860562) scale(0.1 -0.1)">
      <defs>
       <path id="DejaVuSans-74" d="M 1172 4494 
L 1172 3500 
L 2356 3500 
L 2356 3053 
L 1172 3053 
L 1172 1153 
Q 1172 725 1289 603 
Q 1406 481 1766 481 
L 2356 481 
L 2356 0 
L 1766 0 
Q 1100 0 847 248 
Q 594 497 594 1153 
L 594 3053 
L 172 3053 
L 172 3500 
L 594 3500 
L 594 4494 
L 1172 4494 
z
" transform="scale(0.015625)"/>
       <path id="DejaVuSans-69" d="M 603 3500 
L 1178 3500 
L 1178 0 
L 603 0 
L 603 3500 
z
M 603 4863 
L 1178 4863 
L 1178 4134 
L 603 4134 
L 603 4863 
z
" transform="scale(0.015625)"/>
       <path id="DejaVuSans-6d" d="M 3328 2828 
Q 3544 3216 3844 3400 
Q 4144 3584 4550 3584 
Q 5097 3584 5394 3201 
Q 5691 2819 5691 2113 
L 5691 0 
L 5113 0 
L 5113 2094 
Q 5113 2597 4934 2840 
Q 4756 3084 4391 3084 
Q 3944 3084 3684 2787 
Q 3425 2491 3425 1978 
L 3425 0 
L 2847 0 
L 2847 2094 
Q 2847 2600 2669 2842 
Q 2491 3084 2119 3084 
Q 1678 3084 1418 2786 
Q 1159 2488 1159 1978 
L 1159 0 
L 581 0 
L 581 3500 
L 1159 3500 
L 1159 2956 
Q 1356 3278 1631 3431 
Q 1906 3584 2284 3584 
Q 2666 3584 2933 3390 
Q 3200 3197 3328 2828 
z
" transform="scale(0.015625)"/>
       <path id="DejaVuSans-65" d="M 3597 1894 
L 3597 1613 
L 953 1613 
Q 991 1019 1311 708 
Q 1631 397 2203 397 
Q 2534 397 2845 478 
Q 3156 559 3463 722 
L 3463 178 
Q 3153 47 2828 -22 
Q 2503 -91 2169 -91 
Q 1331 -91 842 396 
Q 353 884 353 1716 
Q 353 2575 817 3079 
Q 1281 3584 2069 3584 
Q 2775 3584 3186 3129 
Q 3597 2675 3597 1894 
z
M 3022 2063 
Q 3016 2534 2758 2815 
Q 2500 3097 2075 3097 
Q 1594 3097 1305 2825 
Q 1016 2553 972 2059 
L 3022 2063 
z
" transform="scale(0.015625)"/>
       <path id="DejaVuSans-73" d="M 2834 3397 
L 2834 2853 
Q 2591 2978 2328 3040 
Q 2066 3103 1784 3103 
Q 1356 3103 1142 2972 
Q 928 2841 928 2578 
Q 928 2378 1081 2264 
Q 1234 2150 1697 2047 
L 1894 2003 
Q 2506 1872 2764 1633 
Q 3022 1394 3022 966 
Q 3022 478 2636 193 
Q 2250 -91 1575 -91 
Q 1294 -91 989 -36 
Q 684 19 347 128 
L 347 722 
Q 666 556 975 473 
Q 1284 391 1588 391 
Q 1994 391 2212 530 
Q 2431 669 2431 922 
Q 2431 1156 2273 1281 
Q 2116 1406 1581 1522 
L 1381 1569 
Q 847 1681 609 1914 
Q 372 2147 372 2553 
Q 372 3047 722 3315 
Q 1072 3584 1716 3584 
Q 2034 3584 2315 3537 
Q 2597 3491 2834 3397 
z
" transform="scale(0.015625)"/>
       <path id="DejaVuSans-70" d="M 1159 525 
L 1159 -1331 
L 581 -1331 
L 581 3500 
L 1159 3500 
L 1159 2969 
Q 1341 3281 1617 3432 
Q 1894 3584 2278 3584 
Q 2916 3584 3314 3078 
Q 3713 2572 3713 1747 
Q 3713 922 3314 415 
Q 2916 -91 2278 -91 
Q 1894 -91 1617 61 
Q 1341 213 1159 525 
z
M 3116 1747 
Q 3116 2381 2855 2742 
Q 2594 3103 2138 3103 
Q 1681 3103 1420 2742 
Q 1159 2381 1159 1747 
Q 1159 1113 1420 752 
Q 1681 391 2138 391 
Q 2594 391 2855 752 
Q 3116 1113 3116 1747 
z
" transform="scale(0.015625)"/>
      </defs>
      <use xlink:href="#DejaVuSans-74"/>
      <use xlink:href="#DejaVuSans-69" x="39.208984"/>
      <use xlink:href="#DejaVuSans-6d" x="66.992188"/>
      <use xlink:href="#DejaVuSans-65" x="164.404297"/>
      <use xlink:href="#DejaVuSans-73" x="225.927734"/>
      <use xlink:href="#DejaVuSans-74" x="278.027344"/>
      <use xlink:href="#DejaVuSans-65" x="317.236328"/>
      <use xlink:href="#DejaVuSans-70" x="378.759766"/>
      <use xlink:href="#DejaVuSans-73" x="442.236328"/>
     </g>
    </g>
   </g>
   <g id="matplotlib.axis_2">
    <g id="ytick_1">
     <g id="line2d_7">
      <defs>
       <path id="m6315cd8dfc" d="M 0 0 
L -3.5 0 
" style="stroke: #000000; stroke-width: 0.8"/>
      </defs>
      <g>
       <use xlink:href="#m6315cd8dfc" x="57.6" y="301.172981" style="stroke: #000000; stroke-width: 0.8"/>
      </g>
     </g>
     <g id="text_8">
      <!-- 0 -->
      <g transform="translate(44.2375 304.972199) scale(0.1 -0.1)">
       <use xlink:href="#DejaVuSans-30"/>
      </g>
     </g>
    </g>
    <g id="ytick_2">
     <g id="line2d_8">
      <g>
       <use xlink:href="#m6315cd8dfc" x="57.6" y="249.124799" style="stroke: #000000; stroke-width: 0.8"/>
      </g>
     </g>
     <g id="text_9">
      <!-- 100 -->
      <g transform="translate(31.5125 252.924017) scale(0.1 -0.1)">
       <use xlink:href="#DejaVuSans-31"/>
       <use xlink:href="#DejaVuSans-30" x="63.623047"/>
       <use xlink:href="#DejaVuSans-30" x="127.246094"/>
      </g>
     </g>
    </g>
    <g id="ytick_3">
     <g id="line2d_9">
      <g>
       <use xlink:href="#m6315cd8dfc" x="57.6" y="197.076617" style="stroke: #000000; stroke-width: 0.8"/>
      </g>
     </g>
     <g id="text_10">
      <!-- 200 -->
      <g transform="translate(31.5125 200.875835) scale(0.1 -0.1)">
       <use xlink:href="#DejaVuSans-32"/>
       <use xlink:href="#DejaVuSans-30" x="63.623047"/>
       <use xlink:href="#DejaVuSans-30" x="127.246094"/>
      </g>
     </g>
    </g>
    <g id="ytick_4">
     <g id="line2d_10">
      <g>
       <use xlink:href="#m6315cd8dfc" x="57.6" y="145.028435" style="stroke: #000000; stroke-width: 0.8"/>
      </g>
     </g>
     <g id="text_11">
      <!-- 300 -->
      <g transform="translate(31.5125 148.827653) scale(0.1 -0.1)">
       <use xlink:href="#DejaVuSans-33"/>
       <use xlink:href="#DejaVuSans-30" x="63.623047"/>
       <use xlink:href="#DejaVuSans-30" x="127.246094"/>
      </g>
     </g>
    </g>
    <g id="ytick_5">
     <g id="line2d_11">
      <g>
       <use xlink:href="#m6315cd8dfc" x="57.6" y="92.980253" style="stroke: #000000; stroke-width: 0.8"/>
      </g>
     </g>
     <g id="text_12">
      <!-- 400 -->
      <g transform="translate(31.5125 96.779471) scale(0.1 -0.1)">
       <use xlink:href="#DejaVuSans-34"/>
       <use xlink:href="#DejaVuSans-30" x="63.623047"/>
       <use xlink:href="#DejaVuSans-30" x="127.246094"/>
      </g>
     </g>
    </g>
    <g id="text_13">
     <!-- mean episode rewards -->
     <g transform="translate(25.432812 231.360031) rotate(-90) scale(0.1 -0.1)">
      <defs>
       <path id="DejaVuSans-61" d="M 2194 1759 
Q 1497 1759 1228 1600 
Q 959 1441 959 1056 
Q 959 750 1161 570 
Q 1363 391 1709 391 
Q 2188 391 2477 730 
Q 2766 1069 2766 1631 
L 2766 1759 
L 2194 1759 
z
M 3341 1997 
L 3341 0 
L 2766 0 
L 2766 531 
Q 2569 213 2275 61 
Q 1981 -91 1556 -91 
Q 1019 -91 701 211 
Q 384 513 384 1019 
Q 384 1609 779 1909 
Q 1175 2209 1959 2209 
L 2766 2209 
L 2766 2266 
Q 2766 2663 2505 2880 
Q 2244 3097 1772 3097 
Q 1472 3097 1187 3025 
Q 903 2953 641 2809 
L 641 3341 
Q 956 3463 1253 3523 
Q 1550 3584 1831 3584 
Q 2591 3584 2966 3190 
Q 3341 2797 3341 1997 
z
" transform="scale(0.015625)"/>
       <path id="DejaVuSans-6e" d="M 3513 2113 
L 3513 0 
L 2938 0 
L 2938 2094 
Q 2938 2591 2744 2837 
Q 2550 3084 2163 3084 
Q 1697 3084 1428 2787 
Q 1159 2491 1159 1978 
L 1159 0 
L 581 0 
L 581 3500 
L 1159 3500 
L 1159 2956 
Q 1366 3272 1645 3428 
Q 1925 3584 2291 3584 
Q 2894 3584 3203 3211 
Q 3513 2838 3513 2113 
z
" transform="scale(0.015625)"/>
       <path id="DejaVuSans-20" transform="scale(0.015625)"/>
       <path id="DejaVuSans-6f" d="M 1959 3097 
Q 1497 3097 1228 2736 
Q 959 2375 959 1747 
Q 959 1119 1226 758 
Q 1494 397 1959 397 
Q 2419 397 2687 759 
Q 2956 1122 2956 1747 
Q 2956 2369 2687 2733 
Q 2419 3097 1959 3097 
z
M 1959 3584 
Q 2709 3584 3137 3096 
Q 3566 2609 3566 1747 
Q 3566 888 3137 398 
Q 2709 -91 1959 -91 
Q 1206 -91 779 398 
Q 353 888 353 1747 
Q 353 2609 779 3096 
Q 1206 3584 1959 3584 
z
" transform="scale(0.015625)"/>
       <path id="DejaVuSans-64" d="M 2906 2969 
L 2906 4863 
L 3481 4863 
L 3481 0 
L 2906 0 
L 2906 525 
Q 2725 213 2448 61 
Q 2172 -91 1784 -91 
Q 1150 -91 751 415 
Q 353 922 353 1747 
Q 353 2572 751 3078 
Q 1150 3584 1784 3584 
Q 2172 3584 2448 3432 
Q 2725 3281 2906 2969 
z
M 947 1747 
Q 947 1113 1208 752 
Q 1469 391 1925 391 
Q 2381 391 2643 752 
Q 2906 1113 2906 1747 
Q 2906 2381 2643 2742 
Q 2381 3103 1925 3103 
Q 1469 3103 1208 2742 
Q 947 2381 947 1747 
z
" transform="scale(0.015625)"/>
       <path id="DejaVuSans-72" d="M 2631 2963 
Q 2534 3019 2420 3045 
Q 2306 3072 2169 3072 
Q 1681 3072 1420 2755 
Q 1159 2438 1159 1844 
L 1159 0 
L 581 0 
L 581 3500 
L 1159 3500 
L 1159 2956 
Q 1341 3275 1631 3429 
Q 1922 3584 2338 3584 
Q 2397 3584 2469 3576 
Q 2541 3569 2628 3553 
L 2631 2963 
z
" transform="scale(0.015625)"/>
       <path id="DejaVuSans-77" d="M 269 3500 
L 844 3500 
L 1563 769 
L 2278 3500 
L 2956 3500 
L 3675 769 
L 4391 3500 
L 4966 3500 
L 4050 0 
L 3372 0 
L 2619 2869 
L 1863 0 
L 1184 0 
L 269 3500 
z
" transform="scale(0.015625)"/>
      </defs>
      <use xlink:href="#DejaVuSans-6d"/>
      <use xlink:href="#DejaVuSans-65" x="97.412109"/>
      <use xlink:href="#DejaVuSans-61" x="158.935547"/>
      <use xlink:href="#DejaVuSans-6e" x="220.214844"/>
      <use xlink:href="#DejaVuSans-20" x="283.59375"/>
      <use xlink:href="#DejaVuSans-65" x="315.380859"/>
      <use xlink:href="#DejaVuSans-70" x="376.904297"/>
      <use xlink:href="#DejaVuSans-69" x="440.380859"/>
      <use xlink:href="#DejaVuSans-73" x="468.164062"/>
      <use xlink:href="#DejaVuSans-6f" x="520.263672"/>
      <use xlink:href="#DejaVuSans-64" x="581.445312"/>
      <use xlink:href="#DejaVuSans-65" x="644.921875"/>
      <use xlink:href="#DejaVuSans-20" x="706.445312"/>
      <use xlink:href="#DejaVuSans-72" x="738.232422"/>
      <use xlink:href="#DejaVuSans-65" x="777.095703"/>
      <use xlink:href="#DejaVuSans-77" x="838.619141"/>
      <use xlink:href="#DejaVuSans-61" x="920.40625"/>
      <use xlink:href="#DejaVuSans-72" x="981.685547"/>
      <use xlink:href="#DejaVuSans-64" x="1021.048828"/>
      <use xlink:href="#DejaVuSans-73" x="1084.525391"/>
     </g>
    </g>
   </g>
   <g id="line2d_12">
    <path d="M 73.858719 293.929069 
L 74.001676 291.775623 
L 74.287589 292.890016 
L 74.391558 291.720671 
L 74.547511 292.265939 
L 74.729455 292.315762 
L 75.249298 291.882888 
L 75.34027 292.408276 
L 75.483227 292.558718 
L 75.639179 292.453268 
L 75.730152 293.226314 
L 75.886105 293.202606 
L 76.042057 292.912585 
L 76.314975 293.48712 
L 76.483923 293.422839 
L 76.847813 292.483792 
L 77.003766 292.152686 
L 77.146722 292.471786 
L 77.237695 292.368343 
L 77.406643 292.661953 
L 77.523608 292.530791 
L 77.796525 292.652861 
L 78.082439 293.396784 
L 78.173411 292.682922 
L 78.576289 292.891189 
L 78.693253 293.0655 
L 79.005159 293.011673 
L 79.239088 293.134783 
L 79.408037 293.428518 
L 79.525001 294.149577 
L 79.706946 294.398498 
L 80.018851 293.108034 
L 80.135816 291.176298 
L 80.239784 291.610769 
L 80.395737 291.325614 
L 80.460717 291.51854 
L 80.668654 291.530826 
L 80.759627 291.221434 
L 80.889587 291.470599 
L 81.019548 291.28358 
L 81.500402 293.437287 
L 81.981256 291.531888 
L 82.488102 287.218096 
L 83.150901 281.182217 
L 83.774712 273.951093 
L 84.281559 271.144542 
L 84.424515 271.290841 
L 84.710429 273.96759 
L 85.152295 277.843076 
L 85.4642 278.989479 
L 85.698129 278.994984 
L 85.750113 278.806404 
L 86.101007 278.580665 
L 86.347932 278.09682 
L 86.425908 277.601086 
L 86.763806 276.957996 
L 87.17968 275.522934 
L 87.335632 275.515395 
L 87.60855 275.242687 
L 87.881467 275.465167 
L 88.16738 274.690534 
L 88.414305 274.598675 
L 88.765199 273.294603 
L 89.427998 269.907557 
L 89.661927 263.606962 
L 90.454687 259.024381 
L 90.506671 252.953949 
L 91.546355 249.081431 
L 91.611336 240.983961 
L 92.573044 236.214999 
L 92.664017 231.073523 
L 93.638721 224.622619 
L 93.716697 220.435758 
L 94.678406 218.215268 
L 94.79537 217.21443 
L 95.71809 216.542051 
L 95.822059 215.211432 
L 96.770771 215.056089 
L 96.809759 215.916208 
L 97.758472 216.291475 
L 97.901428 215.586907 
L 98.837144 215.386022 
L 98.993097 215.208147 
L 100.097762 215.039484 
L 100.981494 214.386025 
L 101.033478 215.2537 
L 101.904214 218.103823 
L 102.112151 218.027274 
L 102.995883 217.139582 
L 103.164832 217.334616 
L 105.296186 217.210378 
L 106.322874 216.740342 
L 106.387855 214.914912 
L 107.414543 211.950429 
L 107.466528 211.180999 
L 108.428236 211.885745 
L 108.571193 211.719777 
L 109.454925 212.523073 
L 109.70185 212.367142 
L 110.221692 212.882155 
L 110.832507 214.442009 
L 111.248381 214.85493 
L 111.898184 215.712592 
L 112.508998 213.478325 
L 113.639655 212.368701 
L 114.055529 211.947357 
L 114.731324 210.935204 
L 115.368131 209.574022 
L 116.576765 205.233579 
L 116.927658 204.610882 
L 117.473493 204.700414 
L 118.227264 204.565715 
L 119.344925 203.677546 
L 119.916752 201.983579 
L 120.670523 197.443639 
L 120.891456 194.505027 
L 122.178066 193.158157 
L 122.411995 187.253877 
L 123.412692 185.211894 
L 123.932534 180.359476 
L 124.920235 177.249289 
L 125.583034 171.815364 
L 126.336805 168.106343 
L 127.168553 162.600067 
L 128.598119 156.810833 
L 129.702784 150.73302 
L 130.235623 151.507979 
L 131.327292 147.017683 
L 131.79515 143.938568 
L 132.886819 142.749043 
L 133.393665 142.901723 
L 134.511326 140.191506 
L 134.940196 139.946637 
L 136.356766 142.693023 
L 137.5654 145.409822 
L 137.877305 145.027612 
L 139.111931 146.450686 
L 139.462824 148.017219 
L 140.76243 148.022745 
L 140.944375 143.357288 
L 142.321957 145.77224 
L 142.464914 148.09449 
L 143.76452 147.735991 
L 144.063429 148.071205 
L 145.311051 148.106261 
L 145.752917 147.618691 
L 146.701629 148.62955 
L 147.442404 148.3726 
L 148.144192 150.106342 
L 148.897963 153.796634 
L 149.755703 152.865143 
L 150.496478 151.243292 
L 151.458187 150.63078 
L 152.198962 147.683509 
L 152.991722 148.919755 
L 153.862458 147.766629 
L 154.44728 147.238204 
L 155.24004 151.979743 
L 155.954823 149.779261 
L 156.851551 150.075885 
L 157.397386 150.905826 
L 158.359094 151.272692 
L 158.969909 152.999152 
L 159.931617 154.580847 
L 160.58142 152.393862 
L 161.517136 153.781544 
L 162.270908 151.653596 
L 163.076663 147.146679 
L 163.77845 147.551967 
L 165.182025 147.390856 
L 166.078753 148.677357 
L 166.546611 149.737328 
L 167.612288 150.784086 
L 168.00217 152.810356 
L 169.184811 152.449129 
L 169.48372 152.777048 
L 170.718346 152.725767 
L 171.030251 153.611932 
L 172.316861 153.306063 
L 172.537794 152.31293 
L 173.928372 150.669858 
L 175.266966 150.088406 
L 176.917466 152.136187 
L 178.360028 151.846129 
L 179.620646 153.001987 
L 179.737611 155.736083 
L 181.076205 156.184589 
L 181.154181 154.860511 
L 182.427795 157.584232 
L 182.544759 159.910318 
L 184.013314 160.015897 
L 184.117282 158.609339 
L 185.273932 162.563067 
L 185.455877 164.523231 
L 186.820463 163.162909 
L 186.963419 160.936674 
L 188.263025 161.518142 
L 188.548939 160.616143 
L 189.822552 158.782894 
L 190.134458 154.068719 
L 191.291107 152.246591 
L 191.745969 152.274314 
L 193.058571 146.789297 
L 193.266508 140.812911 
L 194.241212 144.156554 
L 195.13794 142.313872 
L 195.891712 140.18522 
L 196.48953 141.012835 
L 197.542211 138.679521 
L 197.893105 141.233541 
L 198.971778 141.281059 
L 199.530608 140.103772 
L 200.492317 142.578762 
L 201.168112 143.640725 
L 202.090832 138.252604 
L 202.792619 138.753425 
L 203.585379 140.051558 
L 204.40413 138.865882 
L 205.26187 138.675865 
L 205.911673 136.198804 
L 206.847389 134.791738 
L 207.562173 135.548327 
L 208.406916 134.898432 
L 209.082711 136.30376 
L 209.875471 138.686796 
L 210.60325 139.808633 
L 211.422002 140.443556 
L 212.18877 141.721061 
L 212.890557 143.34841 
L 213.774289 144.173965 
L 214.554052 146.009744 
L 215.346812 144.763296 
L 216.204552 145.434795 
L 217.777075 141.476959 
L 218.634815 140.651244 
L 219.37559 139.230318 
L 221.09107 137.742834 
L 221.818849 136.292286 
L 222.637601 135.081835 
L 223.443356 136.021449 
L 224.210124 135.530115 
L 225.041872 136.495337 
L 225.808639 136.137333 
L 226.757351 135.463381 
L 227.329178 134.899687 
L 228.27789 134.215249 
L 228.654776 136.471372 
L 230.396248 140.510944 
L 231.227996 141.60804 
L 231.929783 141.754326 
L 232.982464 139.514302 
L 233.398338 139.479846 
L 234.632963 140.828699 
L 234.983857 139.794266 
L 235.984553 140.081602 
L 236.660348 138.681857 
L 237.765013 134.445696 
L 238.284856 131.768699 
L 239.454501 129.721707 
L 240.013331 126.552491 
L 241.520874 129.174476 
L 243.158378 129.326276 
L 244.237051 127.662615 
L 244.925842 125.87398 
L 245.692609 126.745591 
L 246.446381 128.837042 
L 247.408089 128.295496 
L 248.057892 129.711306 
L 248.88964 130.435953 
L 249.643411 129.814219 
L 250.566131 127.808054 
L 251.267918 131.326177 
L 252.255619 129.666064 
L 252.866434 127.828187 
L 253.724173 127.958241 
L 254.568917 127.355473 
L 255.426657 128.402448 
L 256.219417 129.1746 
L 257.051165 127.617514 
L 259.546408 125.210762 
L 261.079943 130.436699 
L 261.963675 130.705031 
L 262.717446 129.922122 
L 263.523202 129.258412 
L 264.523898 127.676055 
L 265.082729 127.244035 
L 266.304358 128.858607 
L 266.733228 128.833379 
L 267.811901 128.163834 
L 268.396724 126.939833 
L 269.241468 126.849532 
L 269.852282 128.208541 
L 270.645042 133.171159 
L 271.333833 135.684916 
L 272.009628 140.257462 
L 273.595147 143.646581 
L 274.517868 144.082736 
L 275.245647 142.607326 
L 276.272336 142.909647 
L 277.922835 137.292667 
L 280.574031 123.24357 
L 281.197842 121.573356 
L 282.016594 120.137496 
L 282.601416 122.951089 
L 283.732073 124.611348 
L 284.290904 124.44202 
L 285.434557 125.969543 
L 285.967395 126.963359 
L 287.150037 127.355086 
L 287.643887 126.928712 
L 288.865517 128.661217 
L 289.307383 130.077414 
L 290.451036 127.818423 
L 290.944886 126.385449 
L 292.166515 124.232674 
L 292.621378 121.823057 
L 293.739039 122.404729 
L 294.310865 122.156729 
L 295.454518 122.13946 
L 295.90938 123.641153 
L 297.468907 126.532761 
L 298.599565 128.239985 
L 299.002442 127.688081 
L 300.26306 128.571116 
L 300.639946 130.667059 
L 301.783599 133.294107 
L 302.251457 134.788823 
L 302.927252 139.630503 
L 303.746004 142.957947 
L 304.538763 143.668279 
L 305.253547 144.145097 
L 305.747397 152.101612 
L 306.358212 155.05172 
L 307.293928 157.775388 
L 307.644822 161.120267 
L 308.710498 161.754288 
L 309.191353 163.241703 
L 310.127069 162.052237 
L 310.685899 161.842289 
L 311.504651 162.883309 
L 312.154454 164.371427 
L 313.571024 157.625674 
L 314.519737 158.93758 
L 315.182536 158.482109 
L 316.599106 160.151181 
L 317.352877 160.156136 
L 318.184625 158.498849 
L 318.951393 157.751408 
L 319.497227 157.637846 
L 320.562904 155.584568 
L 320.93979 156.549009 
L 321.914494 153.956729 
L 322.551301 151.931154 
L 323.253088 149.278969 
L 323.993864 148.834275 
L 324.890592 147.058381 
L 325.501406 147.545758 
L 326.34615 146.878329 
L 327.086926 144.593414 
L 327.892681 142.528849 
L 328.672445 141.661121 
L 329.361236 142.48537 
L 330.309948 142.35119 
L 331.024731 140.299651 
L 331.921459 137.010234 
L 332.272353 140.08881 
L 333.506979 139.090934 
L 333.740908 137.979548 
L 335.11849 138.297061 
L 335.456387 137.816992 
L 336.704009 139.170874 
L 337.015914 138.428718 
L 338.328516 138.851907 
L 338.588438 139.295397 
L 339.875047 140.031318 
L 340.121973 137.137869 
L 341.525547 137.26003 
L 341.74648 137.488204 
L 342.812157 137.604508 
L 343.513944 137.200176 
L 344.38468 135.490778 
L 345.177439 134.236448 
L 345.970199 132.338041 
L 346.697978 133.193349 
L 348.244509 131.875589 
L 349.089253 131.583291 
L 349.946993 130.844783 
L 350.739753 129.273526 
L 351.519516 129.626836 
L 352.36426 128.635529 
L 353.209004 128.698036 
L 354.040752 129.568085 
L 354.807519 130.19894 
L 355.8602 129.055033 
L 356.458018 127.048973 
L 357.666652 124.990561 
L 358.173498 123.198251 
L 359.278163 123.366218 
L 359.707033 124.074172 
L 360.889675 124.652554 
L 361.26656 124.436505 
L 362.566166 124.973687 
L 362.891068 123.373335 
L 364.138689 123.638075 
L 364.580555 124.965093 
L 365.698216 125.342148 
L 366.140082 128.003153 
L 367.231751 128.6115 
L 367.790582 128.414791 
L 368.869255 130.349577 
L 369.259136 130.728342 
L 370.454774 130.994675 
L 370.909636 131.726083 
L 372.014301 132.025082 
L 372.586127 131.436712 
L 373.638808 132.381369 
L 374.197639 131.245895 
L 374.795457 134.59499 
L 375.094367 144.859882 
L 376.484945 143.684194 
L 376.822843 142.191777 
L 378.174433 140.822702 
L 378.460346 139.843984 
L 379.86392 138.854353 
L 380.097849 139.013897 
L 381.787337 138.651008 
L 383.047955 135.247901 
L 383.346864 126.00649 
L 385.127324 123.797465 
L 386.543895 123.355521 
L 386.972765 121.352859 
L 388.051437 121.120463 
L 388.766221 121.280101 
L 389.909874 118.972814 
L 390.494697 117.170168 
L 391.612358 114.434921 
L 392.327141 111.226188 
L 393.41881 110.817879 
L 394.952345 114.027423 
L 395.420203 118.019934 
L 396.693817 117.87361 
L 397.226655 116.385146 
L 398.370308 118.001516 
L 398.370308 118.001516 
" clip-path="url(#pe163a5f903)" style="fill: none; stroke: #1f77b4; stroke-width: 1.5; stroke-linecap: square"/>
   </g>
   <g id="line2d_13">
    <path d="M 80.083832 241.81298 
L 86.581861 279.83001 
L 93.07989 211.016157 
L 99.57792 211.140666 
L 106.075949 203.432743 
L 112.573979 226.580484 
L 119.072008 181.328743 
L 125.570037 135.750082 
L 132.068067 145.923834 
L 138.566096 151.2852 
L 145.064126 118.108396 
L 151.562155 130.575351 
L 158.060185 138.252792 
L 164.558214 141.780564 
L 171.056243 191.886652 
L 177.554273 157.490521 
L 184.052302 164.07149 
L 190.550332 134.670594 
L 197.048361 131.771421 
L 203.54639 135.99398 
L 210.04442 147.973968 
L 216.542449 142.045541 
L 223.040479 121.346589 
L 229.538508 133.434006 
L 236.036537 107.223874 
L 242.534567 121.60608 
L 249.032596 119.896676 
L 255.530626 106.976473 
L 262.028655 121.468957 
L 268.526684 162.51039 
L 275.024714 133.065783 
L 281.522743 126.707967 
L 288.020773 122.112059 
L 294.518802 103.916314 
L 301.016832 149.650494 
L 307.514861 178.522412 
L 314.01289 153.831316 
L 320.51092 122.644581 
L 327.008949 119.028018 
L 333.506979 201.283205 
L 340.005008 112.248329 
L 346.503037 109.197593 
L 353.001067 111.041844 
L 359.499096 115.900031 
L 365.997126 127.10438 
L 372.495155 116.131288 
L 378.993184 111.384449 
L 385.491214 120.208319 
L 391.989243 109.87805 
L 398.487273 115.84402 
" clip-path="url(#pe163a5f903)" style="fill: none; stroke: #ff7f0e; stroke-width: 1.5; stroke-linecap: square"/>
   </g>
   <g id="line2d_14">
    <path d="M 73.832727 295.488 
L 73.910704 294.8097 
L 74.209613 294.377533 
L 74.339574 292.811323 
L 74.48253 293.064077 
L 74.612491 292.685977 
L 74.703463 292.748868 
L 74.898404 292.863895 
L 75.600191 292.127569 
L 75.717156 292.565959 
L 75.860112 292.233038 
L 76.029061 292.372234 
L 76.19801 291.994192 
L 76.457931 291.154237 
L 76.665868 291.142308 
L 77.068746 290.585737 
L 77.406643 290.808099 
L 77.5496 290.540148 
L 77.809521 291.491568 
L 78.095435 291.044914 
L 78.329364 291.038352 
L 78.485316 291.542609 
L 78.654265 291.578113 
L 78.784226 291.847087 
L 78.940178 291.027018 
L 79.044147 291.073337 
L 79.226092 291.202096 
L 79.33006 291.571402 
L 79.667958 291.979747 
L 79.810914 291.382228 
L 79.953871 291.279468 
L 80.265776 291.552576 
L 80.486709 291.416404 
L 80.824607 291.474846 
L 81.175501 290.690984 
L 81.40943 291.256892 
L 81.630363 290.874171 
L 81.747327 291.042596 
L 81.929272 291.759161 
L 82.618063 288.336703 
L 83.488799 281.041805 
L 83.631756 278.934912 
L 83.891677 277.454094 
L 84.424515 272.249476 
L 84.632452 271.425698 
L 85.39922 275.765657 
L 85.633149 276.084498 
L 86.101007 277.689907 
L 86.308944 277.473592 
L 86.841782 276.516811 
L 86.958747 276.986949 
L 87.140692 277.242637 
L 87.751506 276.214378 
L 87.946447 276.309704 
L 88.128392 275.288102 
L 88.427301 275.103163 
L 88.609246 274.670681 
L 88.726211 274.084767 
L 89.02512 274.022179 
L 89.596947 271.923865 
L 90.051809 265.910557 
L 90.727604 259.874196 
L 91.065501 253.825352 
L 91.819273 248.08743 
L 92.183162 242.841193 
L 92.936934 236.780323 
L 93.313819 231.036934 
L 94.067591 225.081876 
L 94.379496 218.784943 
L 95.185252 213.684084 
L 96.315909 213.278691 
L 96.588826 212.843331 
L 97.290613 212.696637 
L 97.745476 212.727766 
L 98.434267 212.641313 
L 98.863137 212.896236 
L 99.564924 212.853198 
L 99.954806 213.454609 
L 100.695581 213.519503 
L 100.92951 214.030686 
L 101.943203 215.250177 
L 102.826935 214.674251 
L 102.969891 216.436165 
L 103.788643 217.281296 
L 104.087552 217.049024 
L 104.945292 216.703857 
L 105.192217 215.538441 
L 106.166922 214.818321 
L 106.296882 213.172475 
L 107.271587 212.97278 
L 107.388551 212.410161 
L 108.48022 211.561005 
L 108.623177 208.682961 
L 109.571889 207.869527 
L 109.675858 208.586888 
L 110.650562 209.074693 
L 110.676554 209.676396 
L 112.04114 208.136455 
L 112.262073 205.806231 
L 113.314754 202.465709 
L 113.509695 200.163788 
L 114.835293 198.207703 
L 115.056226 193.300613 
L 116.355832 190.434968 
L 116.576765 184.760469 
L 117.993335 179.601792 
L 118.188276 170.813786 
L 118.838079 166.102849 
L 119.786791 163.695566 
L 120.618539 159.60125 
L 121.164374 159.670509 
L 122.360011 155.960126 
L 122.853861 151.800196 
L 124.426384 145.568416 
L 125.245136 143.590443 
L 126.08988 145.792468 
L 126.739683 144.58949 
L 127.740379 142.125565 
L 128.468159 139.637188 
L 129.429867 134.480349 
L 130.001694 132.768696 
L 131.015386 134.334944 
L 131.509236 138.429842 
L 132.912811 135.453896 
L 133.21172 134.17567 
L 136.382758 125.939057 
L 138.046254 119.942261 
L 138.579092 118.47304 
L 140.021655 122.032637 
L 140.814414 123.851585 
L 141.646162 125.464583 
L 142.425926 127.681644 
L 143.556583 140.356653 
L 144.388331 145.716093 
L 145.259067 147.118733 
L 145.999842 151.660735 
L 146.805598 148.60059 
L 147.624349 142.450534 
L 148.417109 140.811214 
L 149.1059 139.734463 
L 149.989632 139.735916 
L 150.743403 134.713847 
L 151.601143 131.469527 
L 152.367911 130.242498 
L 153.329619 131.386654 
L 153.979422 130.781626 
L 154.798174 133.76662 
L 155.188056 138.627101 
L 156.747583 142.962291 
L 157.761275 143.864299 
L 158.385086 145.841871 
L 159.255822 145.425213 
L 160.022589 144.882664 
L 161.426164 145.64016 
L 162.452852 144.485118 
L 162.959699 140.984407 
L 164.116348 138.840957 
L 164.584206 136.532379 
L 165.480934 140.308535 
L 166.117741 139.601121 
L 167.651276 139.887765 
L 168.794929 139.622309 
L 169.314771 137.652986 
L 170.40644 136.403955 
L 170.965271 135.235218 
L 171.836007 135.269049 
L 172.602774 137.315142 
L 173.434522 131.11894 
L 174.188294 129.569873 
L 175.085022 129.516792 
L 175.773813 130.172232 
L 177.255363 130.168448 
L 178.295048 129.852789 
L 178.879871 128.751951 
L 179.54267 130.272963 
L 180.543366 129.884235 
L 180.933248 132.277853 
L 182.128885 131.826378 
L 182.518767 131.110862 
L 183.870357 131.268954 
L 184.130279 131.692812 
L 185.559845 130.647145 
L 185.74179 130.197077 
L 187.223341 131.21153 
L 187.444274 128.225473 
L 188.678899 128.064029 
L 189.107769 126.302655 
L 190.303406 127.197782 
L 190.71928 127.990065 
L 191.979898 127.175229 
L 192.213827 127.38263 
L 193.513433 130.458892 
L 195.059964 129.253252 
L 195.618795 130.604607 
L 196.72346 131.747718 
L 197.269294 130.845836 
L 198.347967 130.950382 
L 198.919793 130.252533 
L 199.998466 130.197663 
L 200.570293 130.858077 
L 201.583986 128.540914 
L 202.1948 129.990887 
L 203.793316 131.071797 
L 204.897981 130.192809 
L 205.391831 131.120502 
L 206.535484 132.47206 
L 207.04233 132.158989 
L 208.172987 132.222035 
L 208.69283 130.352799 
L 209.771503 130.815356 
L 210.304341 131.675981 
L 211.292041 133.000882 
L 211.967837 132.499684 
L 212.955537 132.15534 
L 213.488375 132.680944 
L 214.580044 131.645251 
L 215.099887 131.607546 
L 216.360504 131.064688 
L 216.750386 130.228945 
L 217.998008 129.910291 
L 218.51785 126.916549 
L 219.479559 127.182504 
L 220.155354 126.299828 
L 221.844841 125.557898 
L 222.546628 124.460428 
L 223.508337 123.878181 
L 224.340085 125.554122 
L 225.405761 123.655583 
L 226.198521 120.148564 
L 226.952292 120.080403 
L 227.875013 118.064698 
L 228.719756 115.718701 
L 229.655473 112.600574 
L 230.539205 112.097274 
L 231.474921 108.777581 
L 232.124724 105.570964 
L 232.852503 105.838665 
L 233.827207 107.39011 
L 234.697943 107.265705 
L 235.594671 103.970576 
L 236.582372 98.821272 
L 237.4791 98.088785 
L 238.388824 98.447375 
L 239.116603 97.634233 
L 240.130296 100.861264 
L 240.988036 100.869211 
L 242.170677 93.758616 
L 242.937445 89.953772 
L 243.756196 91.106592 
L 244.743897 90.636978 
L 245.588641 93.965851 
L 246.420388 94.861344 
L 247.382097 92.14659 
L 248.265829 88.864969 
L 249.045592 85.100647 
L 250.163253 84.353953 
L 250.943017 85.262887 
L 251.917721 88.274772 
L 252.710481 87.269516 
L 253.594213 90.405822 
L 254.386972 91.398348 
L 255.270704 93.520282 
L 256.921204 102.630643 
L 257.441046 112.527669 
L 258.64968 117.722663 
L 259.091546 122.022312 
L 260.313175 123.77119 
L 260.651073 127.753459 
L 261.729746 129.55034 
L 261.872702 137.246704 
L 263.471218 138.596515 
L 263.614174 137.437208 
L 265.147709 136.930985 
L 265.251678 135.259366 
L 266.20039 132.818607 
L 266.837197 136.456059 
L 267.759917 140.534395 
L 268.4747 140.103163 
L 269.410416 139.264659 
L 269.670338 134.492388 
L 271.099904 133.139711 
L 271.41181 133.674742 
L 272.841376 131.204448 
L 273.114293 131.275438 
L 274.60884 130.129819 
L 274.842769 125.543745 
L 276.584241 118.458416 
L 278.195752 121.36487 
L 279.014504 125.254017 
L 279.924228 125.235542 
L 281.626712 126.10198 
L 282.367487 125.343609 
L 283.342192 125.700653 
L 284.082967 125.158067 
L 285.109656 124.85133 
L 285.785451 121.460748 
L 286.864123 117.596997 
L 287.552915 111.237863 
L 288.618591 111.187705 
L 289.320379 110.560274 
L 290.269091 110.768705 
L 291.113835 110.365833 
L 291.997567 111.416801 
L 292.894295 110.940655 
L 293.778027 111.084025 
L 294.648763 107.024558 
L 295.766424 105.940909 
L 296.286266 102.385938 
L 297.520892 101.716286 
L 298.105714 100.263675 
L 300.016135 91.75215 
L 301.328737 89.274439 
L 301.965544 86.95215 
L 303.031221 85.354142 
L 304.044913 86.35541 
L 304.928645 86.865942 
L 305.552456 91.679468 
L 306.488172 94.103035 
L 307.436885 97.69319 
L 308.424585 96.857845 
L 309.425282 95.271445 
L 310.127069 93.539604 
L 311.075781 95.996397 
L 311.907529 94.933184 
L 313.038186 98.885035 
L 313.129158 105.385066 
L 315.039579 100.008771 
L 315.104559 91.02172 
L 316.962996 87.511845 
L 317.066964 86.809074 
L 317.833732 89.142229 
L 318.678475 95.257362 
L 319.627188 97.240768 
L 320.614888 95.607254 
L 321.108738 91.477939 
L 322.590289 80.067901 
L 323.071143 79.719929 
L 324.487714 82.789551 
L 324.851603 80.694816 
L 326.28117 85.028383 
L 326.77502 83.095986 
L 327.437819 89.610244 
L 328.62046 85.922412 
L 330.413917 93.063346 
L 330.985743 101.613946 
L 332.246361 105.605831 
L 332.883168 106.028684 
L 334.065809 107.406936 
L 334.312734 106.251358 
L 335.885257 110.931166 
L 336.080198 100.830874 
L 337.522761 103.472071 
L 337.75669 107.550926 
L 339.277229 109.587936 
L 339.628122 104.739306 
L 340.277925 109.372309 
L 341.538543 111.764615 
L 342.17535 110.844234 
L 343.331999 110.548454 
L 343.838845 111.569579 
L 345.099463 113.282809 
L 345.762262 110.428272 
L 346.944903 107.663968 
L 347.698675 101.736715 
L 349.011277 99.449273 
L 349.401159 92.794801 
L 350.752749 92.126359 
L 351.402552 90.891323 
L 352.754142 89.507553 
L 353.260988 84.312671 
L 354.807519 80.349427 
L 355.158413 81.920318 
L 356.120121 80.603119 
L 356.873892 84.373407 
L 357.952565 85.327878 
L 358.810305 85.655987 
L 359.927966 80.852855 
L 360.40882 82.62765 
L 361.929359 84.538193 
L 362.397217 83.156317 
L 363.592855 82.406242 
L 364.20367 78.646804 
L 365.542264 79.718456 
L 366.205063 71.993428 
L 367.179767 72.43645 
L 368.141475 71.681377 
L 369.11618 71.405029 
L 371.130569 66.436809 
L 371.858348 70.593765 
L 372.690096 73.23444 
L 373.859741 71.005203 
L 374.704485 67.550094 
L 376.186036 67.143019 
L 376.705878 61.49866 
L 377.732567 67.992428 
L 378.421358 71.318148 
L 379.66898 72.601748 
L 380.279794 71.843555 
L 381.566404 67.916467 
L 382.255195 64.587963 
L 383.593789 64.990232 
L 384.269584 64.562474 
L 385.595182 65.412095 
L 386.374946 65.740423 
L 387.518599 57.901643 
L 388.389335 54.382706 
L 389.455012 54.723354 
L 390.442712 54.257621 
L 391.586365 53.568 
L 392.223172 54.113671 
L 393.379822 55.751025 
L 394.237561 59.192707 
L 395.303238 62.06701 
L 395.888061 67.044675 
L 397.070702 71.516088 
L 397.811478 73.769829 
L 397.811478 73.769829 
" clip-path="url(#pe163a5f903)" style="fill: none; stroke: #2ca02c; stroke-width: 1.5; stroke-linecap: square"/>
   </g>
   <g id="patch_3">
    <path d="M 57.6 307.584 
L 57.6 41.472 
" style="fill: none; stroke: #000000; stroke-width: 0.8; stroke-linejoin: miter; stroke-linecap: square"/>
   </g>
   <g id="patch_4">
    <path d="M 414.72 307.584 
L 414.72 41.472 
" style="fill: none; stroke: #000000; stroke-width: 0.8; stroke-linejoin: miter; stroke-linecap: square"/>
   </g>
   <g id="patch_5">
    <path d="M 57.6 307.584 
L 414.72 307.584 
" style="fill: none; stroke: #000000; stroke-width: 0.8; stroke-linejoin: miter; stroke-linecap: square"/>
   </g>
   <g id="patch_6">
    <path d="M 57.6 41.472 
L 414.72 41.472 
" style="fill: none; stroke: #000000; stroke-width: 0.8; stroke-linejoin: miter; stroke-linecap: square"/>
   </g>
   <g id="text_14">
    <!-- learning curve -->
    <g transform="translate(192.96375 35.472) scale(0.12 -0.12)">
     <defs>
      <path id="DejaVuSans-6c" d="M 603 4863 
L 1178 4863 
L 1178 0 
L 603 0 
L 603 4863 
z
" transform="scale(0.015625)"/>
      <path id="DejaVuSans-67" d="M 2906 1791 
Q 2906 2416 2648 2759 
Q 2391 3103 1925 3103 
Q 1463 3103 1205 2759 
Q 947 2416 947 1791 
Q 947 1169 1205 825 
Q 1463 481 1925 481 
Q 2391 481 2648 825 
Q 2906 1169 2906 1791 
z
M 3481 434 
Q 3481 -459 3084 -895 
Q 2688 -1331 1869 -1331 
Q 1566 -1331 1297 -1286 
Q 1028 -1241 775 -1147 
L 775 -588 
Q 1028 -725 1275 -790 
Q 1522 -856 1778 -856 
Q 2344 -856 2625 -561 
Q 2906 -266 2906 331 
L 2906 616 
Q 2728 306 2450 153 
Q 2172 0 1784 0 
Q 1141 0 747 490 
Q 353 981 353 1791 
Q 353 2603 747 3093 
Q 1141 3584 1784 3584 
Q 2172 3584 2450 3431 
Q 2728 3278 2906 2969 
L 2906 3500 
L 3481 3500 
L 3481 434 
z
" transform="scale(0.015625)"/>
      <path id="DejaVuSans-63" d="M 3122 3366 
L 3122 2828 
Q 2878 2963 2633 3030 
Q 2388 3097 2138 3097 
Q 1578 3097 1268 2742 
Q 959 2388 959 1747 
Q 959 1106 1268 751 
Q 1578 397 2138 397 
Q 2388 397 2633 464 
Q 2878 531 3122 666 
L 3122 134 
Q 2881 22 2623 -34 
Q 2366 -91 2075 -91 
Q 1284 -91 818 406 
Q 353 903 353 1747 
Q 353 2603 823 3093 
Q 1294 3584 2113 3584 
Q 2378 3584 2631 3529 
Q 2884 3475 3122 3366 
z
" transform="scale(0.015625)"/>
      <path id="DejaVuSans-75" d="M 544 1381 
L 544 3500 
L 1119 3500 
L 1119 1403 
Q 1119 906 1312 657 
Q 1506 409 1894 409 
Q 2359 409 2629 706 
Q 2900 1003 2900 1516 
L 2900 3500 
L 3475 3500 
L 3475 0 
L 2900 0 
L 2900 538 
Q 2691 219 2414 64 
Q 2138 -91 1772 -91 
Q 1169 -91 856 284 
Q 544 659 544 1381 
z
M 1991 3584 
L 1991 3584 
z
" transform="scale(0.015625)"/>
      <path id="DejaVuSans-76" d="M 191 3500 
L 800 3500 
L 1894 563 
L 2988 3500 
L 3597 3500 
L 2284 0 
L 1503 0 
L 191 3500 
z
" transform="scale(0.015625)"/>
     </defs>
     <use xlink:href="#DejaVuSans-6c"/>
     <use xlink:href="#DejaVuSans-65" x="27.783203"/>
     <use xlink:href="#DejaVuSans-61" x="89.306641"/>
     <use xlink:href="#DejaVuSans-72" x="150.585938"/>
     <use xlink:href="#DejaVuSans-6e" x="189.949219"/>
     <use xlink:href="#DejaVuSans-69" x="253.328125"/>
     <use xlink:href="#DejaVuSans-6e" x="281.111328"/>
     <use xlink:href="#DejaVuSans-67" x="344.490234"/>
     <use xlink:href="#DejaVuSans-20" x="407.966797"/>
     <use xlink:href="#DejaVuSans-63" x="439.753906"/>
     <use xlink:href="#DejaVuSans-75" x="494.734375"/>
     <use xlink:href="#DejaVuSans-72" x="558.113281"/>
     <use xlink:href="#DejaVuSans-76" x="599.226562"/>
     <use xlink:href="#DejaVuSans-65" x="658.40625"/>
    </g>
   </g>
   <g id="legend_1">
    <g id="patch_7">
     <path d="M 64.6 93.506375 
L 166.614062 93.506375 
Q 168.614062 93.506375 168.614062 91.506375 
L 168.614062 48.472 
Q 168.614062 46.472 166.614062 46.472 
L 64.6 46.472 
Q 62.6 46.472 62.6 48.472 
L 62.6 91.506375 
Q 62.6 93.506375 64.6 93.506375 
z
" style="fill: #ffffff; opacity: 0.8; stroke: #cccccc; stroke-linejoin: miter"/>
    </g>
    <g id="line2d_15">
     <path d="M 66.6 54.570438 
L 76.6 54.570438 
L 86.6 54.570438 
" style="fill: none; stroke: #1f77b4; stroke-width: 1.5; stroke-linecap: square"/>
    </g>
    <g id="text_15">
     <!-- source-source -->
     <g transform="translate(94.6 58.070438) scale(0.1 -0.1)">
      <defs>
       <path id="DejaVuSans-2d" d="M 313 2009 
L 1997 2009 
L 1997 1497 
L 313 1497 
L 313 2009 
z
" transform="scale(0.015625)"/>
      </defs>
      <use xlink:href="#DejaVuSans-73"/>
      <use xlink:href="#DejaVuSans-6f" x="52.099609"/>
      <use xlink:href="#DejaVuSans-75" x="113.28125"/>
      <use xlink:href="#DejaVuSans-72" x="176.660156"/>
      <use xlink:href="#DejaVuSans-63" x="215.523438"/>
      <use xlink:href="#DejaVuSans-65" x="270.503906"/>
      <use xlink:href="#DejaVuSans-2d" x="332.027344"/>
      <use xlink:href="#DejaVuSans-73" x="368.111328"/>
      <use xlink:href="#DejaVuSans-6f" x="420.210938"/>
      <use xlink:href="#DejaVuSans-75" x="481.392578"/>
      <use xlink:href="#DejaVuSans-72" x="544.771484"/>
      <use xlink:href="#DejaVuSans-63" x="583.634766"/>
      <use xlink:href="#DejaVuSans-65" x="638.615234"/>
     </g>
    </g>
    <g id="line2d_16">
     <path d="M 66.6 69.248563 
L 76.6 69.248563 
L 86.6 69.248563 
" style="fill: none; stroke: #ff7f0e; stroke-width: 1.5; stroke-linecap: square"/>
    </g>
    <g id="text_16">
     <!-- source-target -->
     <g transform="translate(94.6 72.748563) scale(0.1 -0.1)">
      <use xlink:href="#DejaVuSans-73"/>
      <use xlink:href="#DejaVuSans-6f" x="52.099609"/>
      <use xlink:href="#DejaVuSans-75" x="113.28125"/>
      <use xlink:href="#DejaVuSans-72" x="176.660156"/>
      <use xlink:href="#DejaVuSans-63" x="215.523438"/>
      <use xlink:href="#DejaVuSans-65" x="270.503906"/>
      <use xlink:href="#DejaVuSans-2d" x="332.027344"/>
      <use xlink:href="#DejaVuSans-74" x="368.111328"/>
      <use xlink:href="#DejaVuSans-61" x="407.320312"/>
      <use xlink:href="#DejaVuSans-72" x="468.599609"/>
      <use xlink:href="#DejaVuSans-67" x="507.962891"/>
      <use xlink:href="#DejaVuSans-65" x="571.439453"/>
      <use xlink:href="#DejaVuSans-74" x="632.962891"/>
     </g>
    </g>
    <g id="line2d_17">
     <path d="M 66.6 83.926688 
L 76.6 83.926688 
L 86.6 83.926688 
" style="fill: none; stroke: #2ca02c; stroke-width: 1.5; stroke-linecap: square"/>
    </g>
    <g id="text_17">
     <!-- target-target -->
     <g transform="translate(94.6 87.426688) scale(0.1 -0.1)">
      <use xlink:href="#DejaVuSans-74"/>
      <use xlink:href="#DejaVuSans-61" x="39.208984"/>
      <use xlink:href="#DejaVuSans-72" x="100.488281"/>
      <use xlink:href="#DejaVuSans-67" x="139.851562"/>
      <use xlink:href="#DejaVuSans-65" x="203.328125"/>
      <use xlink:href="#DejaVuSans-74" x="264.851562"/>
      <use xlink:href="#DejaVuSans-2d" x="304.060547"/>
      <use xlink:href="#DejaVuSans-74" x="340.144531"/>
      <use xlink:href="#DejaVuSans-61" x="379.353516"/>
      <use xlink:href="#DejaVuSans-72" x="440.632812"/>
      <use xlink:href="#DejaVuSans-67" x="479.996094"/>
      <use xlink:href="#DejaVuSans-65" x="543.472656"/>
      <use xlink:href="#DejaVuSans-74" x="604.996094"/>
     </g>
    </g>
   </g>
  </g>
 </g>
 <defs>
  <clipPath id="pe163a5f903">
   <rect x="57.6" y="41.472" width="357.12" height="266.112"/>
  </clipPath>
 </defs>
</svg>
