<?xml version="1.0" encoding="utf-8" standalone="no"?>
<!DOCTYPE svg PUBLIC "-//W3C//DTD SVG 1.1//EN"
  "http://www.w3.org/Graphics/SVG/1.1/DTD/svg11.dtd">
<svg xmlns:xlink="http://www.w3.org/1999/xlink" width="460.8pt" height="345.6pt" viewBox="0 0 460.8 345.6" xmlns="http://www.w3.org/2000/svg" version="1.1">
 <metadata>
  <rdf:RDF xmlns:dc="http://purl.org/dc/elements/1.1/" xmlns:cc="http://creativecommons.org/ns#" xmlns:rdf="http://www.w3.org/1999/02/22-rdf-syntax-ns#">
   <cc:Work>
    <dc:type rdf:resource="http://purl.org/dc/dcmitype/StillImage"/>
    <dc:date>2023-08-19T14:14:54.756382</dc:date>
    <dc:format>image/svg+xml</dc:format>
    <dc:creator>
     <cc:Agent>
      <dc:title>Matplotlib v3.7.1, https://matplotlib.org/</dc:title>
     </cc:Agent>
    </dc:creator>
   </cc:Work>
  </rdf:RDF>
 </metadata>
 <defs>
  <style type="text/css">*{stroke-linejoin: round; stroke-linecap: butt}</style>
 </defs>
 <g id="figure_1">
  <g id="patch_1">
   <path d="M 0 345.6 
L 460.8 345.6 
L 460.8 0 
L 0 0 
z
" style="fill: #ffffff"/>
  </g>
  <g id="axes_1">
   <g id="patch_2">
    <path d="M 57.6 307.584 
L 414.72 307.584 
L 414.72 41.472 
L 57.6 41.472 
z
" style="fill: #ffffff"/>
   </g>
   <g id="matplotlib.axis_1">
    <g id="xtick_1">
     <g id="line2d_1">
      <defs>
       <path id="maac5af1213" d="M 0 0 
L 0 3.5 
" style="stroke: #000000; stroke-width: 0.8"/>
      </defs>
      <g>
       <use xlink:href="#maac5af1213" x="73.192383" y="307.584" style="stroke: #000000; stroke-width: 0.8"/>
      </g>
     </g>
     <g id="text_1">
      <!-- 0 -->
      <g transform="translate(70.011133 322.182437) scale(0.1 -0.1)">
       <defs>
        <path id="DejaVuSans-30" d="M 2034 4250 
Q 1547 4250 1301 3770 
Q 1056 3291 1056 2328 
Q 1056 1369 1301 889 
Q 1547 409 2034 409 
Q 2525 409 2770 889 
Q 3016 1369 3016 2328 
Q 3016 3291 2770 3770 
Q 2525 4250 2034 4250 
z
M 2034 4750 
Q 2819 4750 3233 4129 
Q 3647 3509 3647 2328 
Q 3647 1150 3233 529 
Q 2819 -91 2034 -91 
Q 1250 -91 836 529 
Q 422 1150 422 2328 
Q 422 3509 836 4129 
Q 1250 4750 2034 4750 
z
" transform="scale(0.015625)"/>
       </defs>
       <use xlink:href="#DejaVuSans-30"/>
      </g>
     </g>
    </g>
    <g id="xtick_2">
     <g id="line2d_2">
      <g>
       <use xlink:href="#maac5af1213" x="137.22681" y="307.584" style="stroke: #000000; stroke-width: 0.8"/>
      </g>
     </g>
     <g id="text_2">
      <!-- 1000 -->
      <g transform="translate(124.50181 322.182437) scale(0.1 -0.1)">
       <defs>
        <path id="DejaVuSans-31" d="M 794 531 
L 1825 531 
L 1825 4091 
L 703 3866 
L 703 4441 
L 1819 4666 
L 2450 4666 
L 2450 531 
L 3481 531 
L 3481 0 
L 794 0 
L 794 531 
z
" transform="scale(0.015625)"/>
       </defs>
       <use xlink:href="#DejaVuSans-31"/>
       <use xlink:href="#DejaVuSans-30" x="63.623047"/>
       <use xlink:href="#DejaVuSans-30" x="127.246094"/>
       <use xlink:href="#DejaVuSans-30" x="190.869141"/>
      </g>
     </g>
    </g>
    <g id="xtick_3">
     <g id="line2d_3">
      <g>
       <use xlink:href="#maac5af1213" x="201.261237" y="307.584" style="stroke: #000000; stroke-width: 0.8"/>
      </g>
     </g>
     <g id="text_3">
      <!-- 2000 -->
      <g transform="translate(188.536237 322.182437) scale(0.1 -0.1)">
       <defs>
        <path id="DejaVuSans-32" d="M 1228 531 
L 3431 531 
L 3431 0 
L 469 0 
L 469 531 
Q 828 903 1448 1529 
Q 2069 2156 2228 2338 
Q 2531 2678 2651 2914 
Q 2772 3150 2772 3378 
Q 2772 3750 2511 3984 
Q 2250 4219 1831 4219 
Q 1534 4219 1204 4116 
Q 875 4013 500 3803 
L 500 4441 
Q 881 4594 1212 4672 
Q 1544 4750 1819 4750 
Q 2544 4750 2975 4387 
Q 3406 4025 3406 3419 
Q 3406 3131 3298 2873 
Q 3191 2616 2906 2266 
Q 2828 2175 2409 1742 
Q 1991 1309 1228 531 
z
" transform="scale(0.015625)"/>
       </defs>
       <use xlink:href="#DejaVuSans-32"/>
       <use xlink:href="#DejaVuSans-30" x="63.623047"/>
       <use xlink:href="#DejaVuSans-30" x="127.246094"/>
       <use xlink:href="#DejaVuSans-30" x="190.869141"/>
      </g>
     </g>
    </g>
    <g id="xtick_4">
     <g id="line2d_4">
      <g>
       <use xlink:href="#maac5af1213" x="265.295664" y="307.584" style="stroke: #000000; stroke-width: 0.8"/>
      </g>
     </g>
     <g id="text_4">
      <!-- 3000 -->
      <g transform="translate(252.570664 322.182437) scale(0.1 -0.1)">
       <defs>
        <path id="DejaVuSans-33" d="M 2597 2516 
Q 3050 2419 3304 2112 
Q 3559 1806 3559 1356 
Q 3559 666 3084 287 
Q 2609 -91 1734 -91 
Q 1441 -91 1130 -33 
Q 819 25 488 141 
L 488 750 
Q 750 597 1062 519 
Q 1375 441 1716 441 
Q 2309 441 2620 675 
Q 2931 909 2931 1356 
Q 2931 1769 2642 2001 
Q 2353 2234 1838 2234 
L 1294 2234 
L 1294 2753 
L 1863 2753 
Q 2328 2753 2575 2939 
Q 2822 3125 2822 3475 
Q 2822 3834 2567 4026 
Q 2313 4219 1838 4219 
Q 1578 4219 1281 4162 
Q 984 4106 628 3988 
L 628 4550 
Q 988 4650 1302 4700 
Q 1616 4750 1894 4750 
Q 2613 4750 3031 4423 
Q 3450 4097 3450 3541 
Q 3450 3153 3228 2886 
Q 3006 2619 2597 2516 
z
" transform="scale(0.015625)"/>
       </defs>
       <use xlink:href="#DejaVuSans-33"/>
       <use xlink:href="#DejaVuSans-30" x="63.623047"/>
       <use xlink:href="#DejaVuSans-30" x="127.246094"/>
       <use xlink:href="#DejaVuSans-30" x="190.869141"/>
      </g>
     </g>
    </g>
    <g id="xtick_5">
     <g id="line2d_5">
      <g>
       <use xlink:href="#maac5af1213" x="329.330091" y="307.584" style="stroke: #000000; stroke-width: 0.8"/>
      </g>
     </g>
     <g id="text_5">
      <!-- 4000 -->
      <g transform="translate(316.605091 322.182437) scale(0.1 -0.1)">
       <defs>
        <path id="DejaVuSans-34" d="M 2419 4116 
L 825 1625 
L 2419 1625 
L 2419 4116 
z
M 2253 4666 
L 3047 4666 
L 3047 1625 
L 3713 1625 
L 3713 1100 
L 3047 1100 
L 3047 0 
L 2419 0 
L 2419 1100 
L 313 1100 
L 313 1709 
L 2253 4666 
z
" transform="scale(0.015625)"/>
       </defs>
       <use xlink:href="#DejaVuSans-34"/>
       <use xlink:href="#DejaVuSans-30" x="63.623047"/>
       <use xlink:href="#DejaVuSans-30" x="127.246094"/>
       <use xlink:href="#DejaVuSans-30" x="190.869141"/>
      </g>
     </g>
    </g>
    <g id="xtick_6">
     <g id="line2d_6">
      <g>
       <use xlink:href="#maac5af1213" x="393.364519" y="307.584" style="stroke: #000000; stroke-width: 0.8"/>
      </g>
     </g>
     <g id="text_6">
      <!-- 5000 -->
      <g transform="translate(380.639519 322.182437) scale(0.1 -0.1)">
       <defs>
        <path id="DejaVuSans-35" d="M 691 4666 
L 3169 4666 
L 3169 4134 
L 1269 4134 
L 1269 2991 
Q 1406 3038 1543 3061 
Q 1681 3084 1819 3084 
Q 2600 3084 3056 2656 
Q 3513 2228 3513 1497 
Q 3513 744 3044 326 
Q 2575 -91 1722 -91 
Q 1428 -91 1123 -41 
Q 819 9 494 109 
L 494 744 
Q 775 591 1075 516 
Q 1375 441 1709 441 
Q 2250 441 2565 725 
Q 2881 1009 2881 1497 
Q 2881 1984 2565 2268 
Q 2250 2553 1709 2553 
Q 1456 2553 1204 2497 
Q 953 2441 691 2322 
L 691 4666 
z
" transform="scale(0.015625)"/>
       </defs>
       <use xlink:href="#DejaVuSans-35"/>
       <use xlink:href="#DejaVuSans-30" x="63.623047"/>
       <use xlink:href="#DejaVuSans-30" x="127.246094"/>
       <use xlink:href="#DejaVuSans-30" x="190.869141"/>
      </g>
     </g>
    </g>
    <g id="text_7">
     <!-- episodes -->
     <g transform="translate(214.000625 335.860562) scale(0.1 -0.1)">
      <defs>
       <path id="DejaVuSans-65" d="M 3597 1894 
L 3597 1613 
L 953 1613 
Q 991 1019 1311 708 
Q 1631 397 2203 397 
Q 2534 397 2845 478 
Q 3156 559 3463 722 
L 3463 178 
Q 3153 47 2828 -22 
Q 2503 -91 2169 -91 
Q 1331 -91 842 396 
Q 353 884 353 1716 
Q 353 2575 817 3079 
Q 1281 3584 2069 3584 
Q 2775 3584 3186 3129 
Q 3597 2675 3597 1894 
z
M 3022 2063 
Q 3016 2534 2758 2815 
Q 2500 3097 2075 3097 
Q 1594 3097 1305 2825 
Q 1016 2553 972 2059 
L 3022 2063 
z
" transform="scale(0.015625)"/>
       <path id="DejaVuSans-70" d="M 1159 525 
L 1159 -1331 
L 581 -1331 
L 581 3500 
L 1159 3500 
L 1159 2969 
Q 1341 3281 1617 3432 
Q 1894 3584 2278 3584 
Q 2916 3584 3314 3078 
Q 3713 2572 3713 1747 
Q 3713 922 3314 415 
Q 2916 -91 2278 -91 
Q 1894 -91 1617 61 
Q 1341 213 1159 525 
z
M 3116 1747 
Q 3116 2381 2855 2742 
Q 2594 3103 2138 3103 
Q 1681 3103 1420 2742 
Q 1159 2381 1159 1747 
Q 1159 1113 1420 752 
Q 1681 391 2138 391 
Q 2594 391 2855 752 
Q 3116 1113 3116 1747 
z
" transform="scale(0.015625)"/>
       <path id="DejaVuSans-69" d="M 603 3500 
L 1178 3500 
L 1178 0 
L 603 0 
L 603 3500 
z
M 603 4863 
L 1178 4863 
L 1178 4134 
L 603 4134 
L 603 4863 
z
" transform="scale(0.015625)"/>
       <path id="DejaVuSans-73" d="M 2834 3397 
L 2834 2853 
Q 2591 2978 2328 3040 
Q 2066 3103 1784 3103 
Q 1356 3103 1142 2972 
Q 928 2841 928 2578 
Q 928 2378 1081 2264 
Q 1234 2150 1697 2047 
L 1894 2003 
Q 2506 1872 2764 1633 
Q 3022 1394 3022 966 
Q 3022 478 2636 193 
Q 2250 -91 1575 -91 
Q 1294 -91 989 -36 
Q 684 19 347 128 
L 347 722 
Q 666 556 975 473 
Q 1284 391 1588 391 
Q 1994 391 2212 530 
Q 2431 669 2431 922 
Q 2431 1156 2273 1281 
Q 2116 1406 1581 1522 
L 1381 1569 
Q 847 1681 609 1914 
Q 372 2147 372 2553 
Q 372 3047 722 3315 
Q 1072 3584 1716 3584 
Q 2034 3584 2315 3537 
Q 2597 3491 2834 3397 
z
" transform="scale(0.015625)"/>
       <path id="DejaVuSans-6f" d="M 1959 3097 
Q 1497 3097 1228 2736 
Q 959 2375 959 1747 
Q 959 1119 1226 758 
Q 1494 397 1959 397 
Q 2419 397 2687 759 
Q 2956 1122 2956 1747 
Q 2956 2369 2687 2733 
Q 2419 3097 1959 3097 
z
M 1959 3584 
Q 2709 3584 3137 3096 
Q 3566 2609 3566 1747 
Q 3566 888 3137 398 
Q 2709 -91 1959 -91 
Q 1206 -91 779 398 
Q 353 888 353 1747 
Q 353 2609 779 3096 
Q 1206 3584 1959 3584 
z
" transform="scale(0.015625)"/>
       <path id="DejaVuSans-64" d="M 2906 2969 
L 2906 4863 
L 3481 4863 
L 3481 0 
L 2906 0 
L 2906 525 
Q 2725 213 2448 61 
Q 2172 -91 1784 -91 
Q 1150 -91 751 415 
Q 353 922 353 1747 
Q 353 2572 751 3078 
Q 1150 3584 1784 3584 
Q 2172 3584 2448 3432 
Q 2725 3281 2906 2969 
z
M 947 1747 
Q 947 1113 1208 752 
Q 1469 391 1925 391 
Q 2381 391 2643 752 
Q 2906 1113 2906 1747 
Q 2906 2381 2643 2742 
Q 2381 3103 1925 3103 
Q 1469 3103 1208 2742 
Q 947 2381 947 1747 
z
" transform="scale(0.015625)"/>
      </defs>
      <use xlink:href="#DejaVuSans-65"/>
      <use xlink:href="#DejaVuSans-70" x="61.523438"/>
      <use xlink:href="#DejaVuSans-69" x="125"/>
      <use xlink:href="#DejaVuSans-73" x="152.783203"/>
      <use xlink:href="#DejaVuSans-6f" x="204.882812"/>
      <use xlink:href="#DejaVuSans-64" x="266.064453"/>
      <use xlink:href="#DejaVuSans-65" x="329.541016"/>
      <use xlink:href="#DejaVuSans-73" x="391.064453"/>
     </g>
    </g>
   </g>
   <g id="matplotlib.axis_2">
    <g id="ytick_1">
     <g id="line2d_7">
      <defs>
       <path id="m3fc6bea2f0" d="M 0 0 
L -3.5 0 
" style="stroke: #000000; stroke-width: 0.8"/>
      </defs>
      <g>
       <use xlink:href="#m3fc6bea2f0" x="57.6" y="304.41532" style="stroke: #000000; stroke-width: 0.8"/>
      </g>
     </g>
     <g id="text_8">
      <!-- 0 -->
      <g transform="translate(44.2375 308.214539) scale(0.1 -0.1)">
       <use xlink:href="#DejaVuSans-30"/>
      </g>
     </g>
    </g>
    <g id="ytick_2">
     <g id="line2d_8">
      <g>
       <use xlink:href="#m3fc6bea2f0" x="57.6" y="270.121133" style="stroke: #000000; stroke-width: 0.8"/>
      </g>
     </g>
     <g id="text_9">
      <!-- 50 -->
      <g transform="translate(37.875 273.920352) scale(0.1 -0.1)">
       <use xlink:href="#DejaVuSans-35"/>
       <use xlink:href="#DejaVuSans-30" x="63.623047"/>
      </g>
     </g>
    </g>
    <g id="ytick_3">
     <g id="line2d_9">
      <g>
       <use xlink:href="#m3fc6bea2f0" x="57.6" y="235.826946" style="stroke: #000000; stroke-width: 0.8"/>
      </g>
     </g>
     <g id="text_10">
      <!-- 100 -->
      <g transform="translate(31.5125 239.626164) scale(0.1 -0.1)">
       <use xlink:href="#DejaVuSans-31"/>
       <use xlink:href="#DejaVuSans-30" x="63.623047"/>
       <use xlink:href="#DejaVuSans-30" x="127.246094"/>
      </g>
     </g>
    </g>
    <g id="ytick_4">
     <g id="line2d_10">
      <g>
       <use xlink:href="#m3fc6bea2f0" x="57.6" y="201.532758" style="stroke: #000000; stroke-width: 0.8"/>
      </g>
     </g>
     <g id="text_11">
      <!-- 150 -->
      <g transform="translate(31.5125 205.331977) scale(0.1 -0.1)">
       <use xlink:href="#DejaVuSans-31"/>
       <use xlink:href="#DejaVuSans-35" x="63.623047"/>
       <use xlink:href="#DejaVuSans-30" x="127.246094"/>
      </g>
     </g>
    </g>
    <g id="ytick_5">
     <g id="line2d_11">
      <g>
       <use xlink:href="#m3fc6bea2f0" x="57.6" y="167.238571" style="stroke: #000000; stroke-width: 0.8"/>
      </g>
     </g>
     <g id="text_12">
      <!-- 200 -->
      <g transform="translate(31.5125 171.03779) scale(0.1 -0.1)">
       <use xlink:href="#DejaVuSans-32"/>
       <use xlink:href="#DejaVuSans-30" x="63.623047"/>
       <use xlink:href="#DejaVuSans-30" x="127.246094"/>
      </g>
     </g>
    </g>
    <g id="ytick_6">
     <g id="line2d_12">
      <g>
       <use xlink:href="#m3fc6bea2f0" x="57.6" y="132.944384" style="stroke: #000000; stroke-width: 0.8"/>
      </g>
     </g>
     <g id="text_13">
      <!-- 250 -->
      <g transform="translate(31.5125 136.743602) scale(0.1 -0.1)">
       <use xlink:href="#DejaVuSans-32"/>
       <use xlink:href="#DejaVuSans-35" x="63.623047"/>
       <use xlink:href="#DejaVuSans-30" x="127.246094"/>
      </g>
     </g>
    </g>
    <g id="ytick_7">
     <g id="line2d_13">
      <g>
       <use xlink:href="#m3fc6bea2f0" x="57.6" y="98.650196" style="stroke: #000000; stroke-width: 0.8"/>
      </g>
     </g>
     <g id="text_14">
      <!-- 300 -->
      <g transform="translate(31.5125 102.449415) scale(0.1 -0.1)">
       <use xlink:href="#DejaVuSans-33"/>
       <use xlink:href="#DejaVuSans-30" x="63.623047"/>
       <use xlink:href="#DejaVuSans-30" x="127.246094"/>
      </g>
     </g>
    </g>
    <g id="ytick_8">
     <g id="line2d_14">
      <g>
       <use xlink:href="#m3fc6bea2f0" x="57.6" y="64.356009" style="stroke: #000000; stroke-width: 0.8"/>
      </g>
     </g>
     <g id="text_15">
      <!-- 350 -->
      <g transform="translate(31.5125 68.155228) scale(0.1 -0.1)">
       <use xlink:href="#DejaVuSans-33"/>
       <use xlink:href="#DejaVuSans-35" x="63.623047"/>
       <use xlink:href="#DejaVuSans-30" x="127.246094"/>
      </g>
     </g>
    </g>
    <g id="text_16">
     <!-- mean episode rewards -->
     <g transform="translate(25.432812 231.360031) rotate(-90) scale(0.1 -0.1)">
      <defs>
       <path id="DejaVuSans-6d" d="M 3328 2828 
Q 3544 3216 3844 3400 
Q 4144 3584 4550 3584 
Q 5097 3584 5394 3201 
Q 5691 2819 5691 2113 
L 5691 0 
L 5113 0 
L 5113 2094 
Q 5113 2597 4934 2840 
Q 4756 3084 4391 3084 
Q 3944 3084 3684 2787 
Q 3425 2491 3425 1978 
L 3425 0 
L 2847 0 
L 2847 2094 
Q 2847 2600 2669 2842 
Q 2491 3084 2119 3084 
Q 1678 3084 1418 2786 
Q 1159 2488 1159 1978 
L 1159 0 
L 581 0 
L 581 3500 
L 1159 3500 
L 1159 2956 
Q 1356 3278 1631 3431 
Q 1906 3584 2284 3584 
Q 2666 3584 2933 3390 
Q 3200 3197 3328 2828 
z
" transform="scale(0.015625)"/>
       <path id="DejaVuSans-61" d="M 2194 1759 
Q 1497 1759 1228 1600 
Q 959 1441 959 1056 
Q 959 750 1161 570 
Q 1363 391 1709 391 
Q 2188 391 2477 730 
Q 2766 1069 2766 1631 
L 2766 1759 
L 2194 1759 
z
M 3341 1997 
L 3341 0 
L 2766 0 
L 2766 531 
Q 2569 213 2275 61 
Q 1981 -91 1556 -91 
Q 1019 -91 701 211 
Q 384 513 384 1019 
Q 384 1609 779 1909 
Q 1175 2209 1959 2209 
L 2766 2209 
L 2766 2266 
Q 2766 2663 2505 2880 
Q 2244 3097 1772 3097 
Q 1472 3097 1187 3025 
Q 903 2953 641 2809 
L 641 3341 
Q 956 3463 1253 3523 
Q 1550 3584 1831 3584 
Q 2591 3584 2966 3190 
Q 3341 2797 3341 1997 
z
" transform="scale(0.015625)"/>
       <path id="DejaVuSans-6e" d="M 3513 2113 
L 3513 0 
L 2938 0 
L 2938 2094 
Q 2938 2591 2744 2837 
Q 2550 3084 2163 3084 
Q 1697 3084 1428 2787 
Q 1159 2491 1159 1978 
L 1159 0 
L 581 0 
L 581 3500 
L 1159 3500 
L 1159 2956 
Q 1366 3272 1645 3428 
Q 1925 3584 2291 3584 
Q 2894 3584 3203 3211 
Q 3513 2838 3513 2113 
z
" transform="scale(0.015625)"/>
       <path id="DejaVuSans-20" transform="scale(0.015625)"/>
       <path id="DejaVuSans-72" d="M 2631 2963 
Q 2534 3019 2420 3045 
Q 2306 3072 2169 3072 
Q 1681 3072 1420 2755 
Q 1159 2438 1159 1844 
L 1159 0 
L 581 0 
L 581 3500 
L 1159 3500 
L 1159 2956 
Q 1341 3275 1631 3429 
Q 1922 3584 2338 3584 
Q 2397 3584 2469 3576 
Q 2541 3569 2628 3553 
L 2631 2963 
z
" transform="scale(0.015625)"/>
       <path id="DejaVuSans-77" d="M 269 3500 
L 844 3500 
L 1563 769 
L 2278 3500 
L 2956 3500 
L 3675 769 
L 4391 3500 
L 4966 3500 
L 4050 0 
L 3372 0 
L 2619 2869 
L 1863 0 
L 1184 0 
L 269 3500 
z
" transform="scale(0.015625)"/>
      </defs>
      <use xlink:href="#DejaVuSans-6d"/>
      <use xlink:href="#DejaVuSans-65" x="97.412109"/>
      <use xlink:href="#DejaVuSans-61" x="158.935547"/>
      <use xlink:href="#DejaVuSans-6e" x="220.214844"/>
      <use xlink:href="#DejaVuSans-20" x="283.59375"/>
      <use xlink:href="#DejaVuSans-65" x="315.380859"/>
      <use xlink:href="#DejaVuSans-70" x="376.904297"/>
      <use xlink:href="#DejaVuSans-69" x="440.380859"/>
      <use xlink:href="#DejaVuSans-73" x="468.164062"/>
      <use xlink:href="#DejaVuSans-6f" x="520.263672"/>
      <use xlink:href="#DejaVuSans-64" x="581.445312"/>
      <use xlink:href="#DejaVuSans-65" x="644.921875"/>
      <use xlink:href="#DejaVuSans-20" x="706.445312"/>
      <use xlink:href="#DejaVuSans-72" x="738.232422"/>
      <use xlink:href="#DejaVuSans-65" x="777.095703"/>
      <use xlink:href="#DejaVuSans-77" x="838.619141"/>
      <use xlink:href="#DejaVuSans-61" x="920.40625"/>
      <use xlink:href="#DejaVuSans-72" x="981.685547"/>
      <use xlink:href="#DejaVuSans-64" x="1021.048828"/>
      <use xlink:href="#DejaVuSans-73" x="1084.525391"/>
     </g>
    </g>
   </g>
   <g id="line2d_15">
    <path d="M 73.832727 294.869394 
L 74.473072 292.031613 
L 75.113416 292.99607 
L 75.75376 293.500143 
L 76.394104 291.959197 
L 77.034449 292.677744 
L 77.674793 292.743399 
L 78.955481 292.355279 
L 79.595826 292.491474 
L 80.23617 292.172964 
L 80.876514 292.865314 
L 81.516859 293.063564 
L 82.157203 292.924604 
L 82.797547 293.943312 
L 83.437891 293.91207 
L 84.078236 293.529885 
L 85.358924 294.287 
L 85.999268 294.202291 
L 87.279957 293.284763 
L 88.560646 292.5285 
L 89.20099 292.949006 
L 89.841334 292.81269 
L 90.481678 293.199606 
L 91.122023 293.026762 
L 92.402711 293.187624 
L 93.043055 293.97911 
L 93.6834 294.167956 
L 94.323744 293.227239 
L 96.244777 293.50169 
L 96.885121 293.731394 
L 97.525465 293.621097 
L 99.446498 293.822694 
L 100.086842 294.209775 
L 100.727187 295.159976 
L 101.367531 295.488 
L 102.007875 294.399851 
L 102.648219 293.787445 
L 103.288564 291.24183 
L 103.928908 291.81437 
L 104.569252 291.438596 
L 105.209597 291.692831 
L 105.849941 291.709022 
L 106.490285 291.301309 
L 107.130629 291.629656 
L 107.770974 291.383205 
L 108.411318 292.199835 
L 109.051662 292.413866 
L 109.692006 294.22133 
L 110.332351 292.768322 
L 110.972695 291.710421 
L 111.613039 287.696511 
L 112.253384 286.025766 
L 114.814761 270.917031 
L 116.095449 266.565317 
L 116.735793 265.175423 
L 117.376138 264.844259 
L 118.016482 265.03705 
L 118.656826 266.406707 
L 119.937515 270.586312 
L 121.218203 273.671495 
L 122.498892 275.182208 
L 123.139236 275.189462 
L 124.419925 274.79994 
L 125.060269 274.643478 
L 126.981302 272.743624 
L 127.621646 272.505149 
L 128.26199 271.38299 
L 128.902335 270.614043 
L 129.542679 270.604109 
L 130.823367 270.244738 
L 131.463712 270.537919 
L 132.104056 269.622227 
L 133.384744 269.396067 
L 134.025089 267.677579 
L 134.665433 263.214178 
L 135.305777 254.91134 
L 135.946122 248.872479 
L 136.586466 240.872947 
L 137.22681 235.769796 
L 137.867154 225.099063 
L 139.147843 212.039225 
L 139.788187 203.538312 
L 140.428531 198.020924 
L 141.068876 195.094794 
L 141.70922 193.775903 
L 142.349564 192.889852 
L 142.989909 191.13638 
L 143.630253 190.931671 
L 144.270597 192.065124 
L 144.910941 192.559645 
L 145.551286 191.631175 
L 147.472318 190.875003 
L 148.112663 190.909789 
L 148.753007 190.048671 
L 149.393351 191.19208 
L 150.033696 194.947932 
L 150.67404 194.847058 
L 151.314384 193.67727 
L 151.954728 193.934282 
L 152.595073 193.817982 
L 153.235417 193.8558 
L 153.875761 193.584446 
L 154.516105 193.770564 
L 155.15645 193.151157 
L 155.796794 190.745629 
L 156.437138 186.839076 
L 157.077483 185.825131 
L 157.717827 186.753835 
L 158.358171 186.535125 
L 158.998515 187.593698 
L 159.63886 187.388214 
L 160.279204 188.066891 
L 160.919548 190.122445 
L 161.559892 190.666587 
L 162.200237 191.796801 
L 162.840581 188.852515 
L 164.761614 186.835027 
L 165.401958 185.501226 
L 166.042302 183.707479 
L 166.682647 181.238126 
L 167.322991 177.987703 
L 167.963335 177.167122 
L 168.603679 177.285106 
L 169.244024 177.107601 
L 169.884368 176.666192 
L 170.524712 175.937184 
L 171.165056 173.704898 
L 171.805401 167.722228 
L 172.445745 163.849766 
L 173.086089 162.07488 
L 173.726434 154.294301 
L 174.366778 151.603403 
L 175.007122 145.208955 
L 175.647466 141.110393 
L 176.287811 133.949641 
L 176.928155 129.061945 
L 177.568499 121.805851 
L 178.208843 117.524968 
L 178.849188 114.176879 
L 179.489532 106.16762 
L 180.129876 107.188851 
L 180.770221 101.2716 
L 181.410565 97.213986 
L 182.050909 95.646445 
L 182.691253 95.847646 
L 183.331598 92.276159 
L 183.971942 91.953474 
L 184.612286 94.505622 
L 185.25263 95.572623 
L 185.892975 99.152783 
L 186.533319 98.649112 
L 187.814008 102.588775 
L 188.454352 102.596057 
L 189.094696 96.447982 
L 190.375385 102.690602 
L 191.015729 102.218177 
L 191.656073 102.659917 
L 192.296417 102.706114 
L 192.936762 102.063601 
L 193.577106 103.395696 
L 194.21745 103.057092 
L 194.857795 105.341792 
L 195.498139 110.204809 
L 196.138483 108.977303 
L 196.778827 106.84005 
L 197.419172 106.03289 
L 198.059516 102.149017 
L 198.69986 103.778124 
L 199.340204 102.258551 
L 199.980549 101.5622 
L 200.620893 107.810535 
L 201.261237 104.91077 
L 201.901581 105.301656 
L 202.541926 106.395342 
L 203.18227 106.878793 
L 204.462959 111.238233 
L 205.103303 108.356255 
L 205.743647 110.184922 
L 206.383991 107.380743 
L 207.024336 101.44159 
L 207.66468 101.975673 
L 208.305024 101.762496 
L 208.945368 101.763362 
L 210.226057 104.855511 
L 210.866401 106.234914 
L 211.506746 108.905105 
L 212.14709 108.429084 
L 212.787434 108.861212 
L 213.427778 108.793635 
L 214.068123 109.96141 
L 214.708467 109.558341 
L 215.348811 108.249604 
L 215.989155 106.463877 
L 216.6295 106.084386 
L 217.269844 105.318157 
L 217.910188 105.543952 
L 218.550533 107.302826 
L 219.190877 108.016695 
L 219.831221 107.603969 
L 220.471565 107.63446 
L 221.11191 109.157634 
L 221.752254 112.760588 
L 222.392598 113.351622 
L 223.032942 111.606771 
L 224.313631 118.261337 
L 224.953975 118.400468 
L 225.59432 116.546924 
L 226.234664 121.757093 
L 226.875008 124.340169 
L 227.515352 122.547556 
L 228.155697 119.613855 
L 228.796041 120.380105 
L 229.436385 119.191463 
L 230.076729 116.775633 
L 230.717074 110.563358 
L 231.357418 108.162184 
L 231.997762 108.198716 
L 233.278451 93.095037 
L 233.918795 97.501244 
L 235.199484 92.267875 
L 235.839828 93.358495 
L 236.480172 90.283685 
L 237.120516 93.649338 
L 237.760861 93.711957 
L 238.401205 92.160544 
L 239.041549 95.422051 
L 239.681893 96.821492 
L 240.322238 89.721101 
L 240.962582 90.381076 
L 241.602926 92.091737 
L 242.243271 90.52927 
L 242.883615 90.278868 
L 243.523959 87.014631 
L 244.164303 85.16042 
L 244.804648 86.157441 
L 245.444992 85.30102 
L 246.085336 87.152941 
L 246.72568 90.293273 
L 247.366025 91.771614 
L 248.006369 92.608307 
L 248.646713 94.291786 
L 249.287058 96.436283 
L 249.927402 97.524189 
L 250.567746 99.943353 
L 251.20809 98.3008 
L 251.848435 99.185692 
L 253.129123 93.970111 
L 253.769467 92.881995 
L 254.409812 91.009519 
L 255.6905 89.049333 
L 256.971189 85.542705 
L 257.611533 86.780915 
L 258.251877 86.133442 
L 258.892222 87.405399 
L 259.532566 86.933625 
L 261.453599 84.40073 
L 262.734287 90.554889 
L 263.374632 92.69711 
L 264.014976 94.142848 
L 264.65532 94.335622 
L 265.295664 91.383749 
L 265.936009 91.338343 
L 266.576353 93.115843 
L 267.216697 91.752682 
L 267.857041 92.131329 
L 268.497386 90.286765 
L 269.13773 84.704411 
L 269.778074 81.176701 
L 270.418419 78.479202 
L 271.058763 74.302853 
L 271.699107 76.891571 
L 272.339451 77.758069 
L 273.62014 77.95811 
L 274.900828 73.408721 
L 275.541173 74.557318 
L 276.181517 77.313403 
L 276.821861 76.599762 
L 277.462205 78.465496 
L 278.10255 79.420426 
L 278.742894 78.601113 
L 279.383238 75.957417 
L 280.023583 80.593551 
L 281.304271 75.983948 
L 281.944615 76.155331 
L 282.58496 75.361012 
L 283.225304 76.740701 
L 283.865648 77.758232 
L 284.505992 75.706326 
L 285.146337 74.572177 
L 285.786681 73.816745 
L 286.427025 72.534742 
L 287.707714 79.42141 
L 288.348058 79.775013 
L 289.628747 77.868679 
L 290.269091 75.78347 
L 290.909435 75.214161 
L 291.549779 77.341821 
L 292.190124 77.308576 
L 292.830468 76.426259 
L 293.470812 74.813288 
L 294.111157 74.69429 
L 294.751501 76.485173 
L 295.391845 83.024842 
L 296.032189 86.337436 
L 296.672534 92.363074 
L 297.953222 96.829209 
L 298.593566 97.403968 
L 299.233911 95.459693 
L 299.874255 95.858087 
L 300.514599 92.810401 
L 301.154944 88.456109 
L 302.435632 77.673224 
L 303.075976 69.942403 
L 304.356665 65.849262 
L 304.997009 69.556975 
L 305.637353 71.744842 
L 306.277698 71.521704 
L 306.918042 73.534652 
L 307.558386 74.84429 
L 308.198731 75.360502 
L 308.839075 74.798633 
L 309.479419 77.081704 
L 310.119763 78.947948 
L 310.760108 75.971081 
L 311.400452 74.082728 
L 312.68114 68.07047 
L 313.321485 68.83699 
L 313.961829 68.510179 
L 314.602173 68.487422 
L 315.242517 70.466332 
L 315.882862 73.359501 
L 316.523206 74.276853 
L 317.16355 76.52661 
L 317.803895 75.799319 
L 318.444239 76.962969 
L 319.084583 79.724974 
L 319.724927 83.186862 
L 320.365272 85.156579 
L 321.005616 91.536877 
L 321.64596 95.921737 
L 322.286304 96.857802 
L 322.926649 97.486146 
L 323.566993 107.971132 
L 325.488026 119.855791 
L 326.12837 120.691295 
L 326.768714 122.65139 
L 327.409059 121.083928 
L 328.049403 120.807262 
L 328.689747 122.179103 
L 329.330091 124.140124 
L 329.970436 118.285196 
L 330.61078 115.250664 
L 331.251124 116.979476 
L 331.891469 116.379263 
L 333.172157 118.578743 
L 333.812501 118.585272 
L 334.452846 116.401322 
L 335.09319 115.416355 
L 335.733534 115.266704 
L 336.373878 112.560923 
L 337.014223 113.83185 
L 337.654567 110.415779 
L 338.294911 107.746504 
L 338.935256 104.251492 
L 339.5756 103.665481 
L 340.215944 101.325231 
L 340.856288 101.967491 
L 341.496633 101.087962 
L 342.777321 95.356277 
L 343.417665 94.212797 
L 344.05801 95.298981 
L 344.698354 95.12216 
L 345.338698 92.41867 
L 345.979042 88.083923 
L 346.619387 92.140827 
L 347.900075 89.361271 
L 348.54042 89.779686 
L 349.180764 89.147057 
L 349.821108 90.931184 
L 350.461452 89.953181 
L 351.742141 91.095279 
L 352.382485 92.065066 
L 353.022829 88.252118 
L 353.663174 88.413101 
L 354.303518 88.713785 
L 354.943862 88.867049 
L 355.584207 88.334226 
L 356.224551 86.081605 
L 356.864895 84.428665 
L 357.505239 81.926971 
L 358.145584 83.054084 
L 358.785928 82.056793 
L 359.426272 81.317558 
L 360.066616 80.932373 
L 360.706961 79.959176 
L 361.347305 77.888596 
L 361.987649 78.354183 
L 362.627994 77.047852 
L 363.268338 77.130222 
L 363.908682 78.276762 
L 364.549026 79.108093 
L 365.189371 77.600669 
L 367.110403 69.882682 
L 367.750748 70.104027 
L 369.031436 71.799143 
L 369.671781 71.514437 
L 370.312125 72.222328 
L 370.952469 70.113406 
L 371.592813 70.462277 
L 372.233158 72.211003 
L 372.873502 72.70788 
L 373.513846 76.214516 
L 374.15419 77.016188 
L 374.794535 76.756966 
L 375.434879 79.3066 
L 376.075223 79.805732 
L 376.715568 80.156703 
L 377.355912 81.120542 
L 377.996256 81.514558 
L 378.6366 80.739212 
L 379.276945 81.984068 
L 379.917289 80.487756 
L 380.557633 84.901147 
L 381.197977 98.42808 
L 381.838322 96.878775 
L 383.11901 93.107941 
L 384.399699 90.514077 
L 385.040043 90.724322 
L 385.680387 90.295569 
L 386.320732 90.246112 
L 386.961076 85.761544 
L 387.60142 73.583342 
L 388.241764 71.360467 
L 389.522453 70.089931 
L 390.162797 67.45085 
L 390.803141 67.144602 
L 391.443486 67.354971 
L 392.08383 64.31446 
L 392.724174 61.938958 
L 394.004863 54.106063 
L 394.645207 53.568 
L 395.285551 54.86414 
L 395.925896 57.797492 
L 396.56624 63.058768 
L 397.206584 62.865945 
L 397.846928 60.904467 
L 398.487273 63.034497 
L 398.487273 63.034497 
" clip-path="url(#pe929b6436a)" style="fill: none; stroke: #1f77b4; stroke-width: 1.5; stroke-linecap: square"/>
   </g>
   <g id="patch_3">
    <path d="M 57.6 307.584 
L 57.6 41.472 
" style="fill: none; stroke: #000000; stroke-width: 0.8; stroke-linejoin: miter; stroke-linecap: square"/>
   </g>
   <g id="patch_4">
    <path d="M 414.72 307.584 
L 414.72 41.472 
" style="fill: none; stroke: #000000; stroke-width: 0.8; stroke-linejoin: miter; stroke-linecap: square"/>
   </g>
   <g id="patch_5">
    <path d="M 57.6 307.584 
L 414.72 307.584 
" style="fill: none; stroke: #000000; stroke-width: 0.8; stroke-linejoin: miter; stroke-linecap: square"/>
   </g>
   <g id="patch_6">
    <path d="M 57.6 41.472 
L 414.72 41.472 
" style="fill: none; stroke: #000000; stroke-width: 0.8; stroke-linejoin: miter; stroke-linecap: square"/>
   </g>
   <g id="text_17">
    <!-- episode learning curve -->
    <g transform="translate(167.59125 35.472) scale(0.12 -0.12)">
     <defs>
      <path id="DejaVuSans-6c" d="M 603 4863 
L 1178 4863 
L 1178 0 
L 603 0 
L 603 4863 
z
" transform="scale(0.015625)"/>
      <path id="DejaVuSans-67" d="M 2906 1791 
Q 2906 2416 2648 2759 
Q 2391 3103 1925 3103 
Q 1463 3103 1205 2759 
Q 947 2416 947 1791 
Q 947 1169 1205 825 
Q 1463 481 1925 481 
Q 2391 481 2648 825 
Q 2906 1169 2906 1791 
z
M 3481 434 
Q 3481 -459 3084 -895 
Q 2688 -1331 1869 -1331 
Q 1566 -1331 1297 -1286 
Q 1028 -1241 775 -1147 
L 775 -588 
Q 1028 -725 1275 -790 
Q 1522 -856 1778 -856 
Q 2344 -856 2625 -561 
Q 2906 -266 2906 331 
L 2906 616 
Q 2728 306 2450 153 
Q 2172 0 1784 0 
Q 1141 0 747 490 
Q 353 981 353 1791 
Q 353 2603 747 3093 
Q 1141 3584 1784 3584 
Q 2172 3584 2450 3431 
Q 2728 3278 2906 2969 
L 2906 3500 
L 3481 3500 
L 3481 434 
z
" transform="scale(0.015625)"/>
      <path id="DejaVuSans-63" d="M 3122 3366 
L 3122 2828 
Q 2878 2963 2633 3030 
Q 2388 3097 2138 3097 
Q 1578 3097 1268 2742 
Q 959 2388 959 1747 
Q 959 1106 1268 751 
Q 1578 397 2138 397 
Q 2388 397 2633 464 
Q 2878 531 3122 666 
L 3122 134 
Q 2881 22 2623 -34 
Q 2366 -91 2075 -91 
Q 1284 -91 818 406 
Q 353 903 353 1747 
Q 353 2603 823 3093 
Q 1294 3584 2113 3584 
Q 2378 3584 2631 3529 
Q 2884 3475 3122 3366 
z
" transform="scale(0.015625)"/>
      <path id="DejaVuSans-75" d="M 544 1381 
L 544 3500 
L 1119 3500 
L 1119 1403 
Q 1119 906 1312 657 
Q 1506 409 1894 409 
Q 2359 409 2629 706 
Q 2900 1003 2900 1516 
L 2900 3500 
L 3475 3500 
L 3475 0 
L 2900 0 
L 2900 538 
Q 2691 219 2414 64 
Q 2138 -91 1772 -91 
Q 1169 -91 856 284 
Q 544 659 544 1381 
z
M 1991 3584 
L 1991 3584 
z
" transform="scale(0.015625)"/>
      <path id="DejaVuSans-76" d="M 191 3500 
L 800 3500 
L 1894 563 
L 2988 3500 
L 3597 3500 
L 2284 0 
L 1503 0 
L 191 3500 
z
" transform="scale(0.015625)"/>
     </defs>
     <use xlink:href="#DejaVuSans-65"/>
     <use xlink:href="#DejaVuSans-70" x="61.523438"/>
     <use xlink:href="#DejaVuSans-69" x="125"/>
     <use xlink:href="#DejaVuSans-73" x="152.783203"/>
     <use xlink:href="#DejaVuSans-6f" x="204.882812"/>
     <use xlink:href="#DejaVuSans-64" x="266.064453"/>
     <use xlink:href="#DejaVuSans-65" x="329.541016"/>
     <use xlink:href="#DejaVuSans-20" x="391.064453"/>
     <use xlink:href="#DejaVuSans-6c" x="422.851562"/>
     <use xlink:href="#DejaVuSans-65" x="450.634766"/>
     <use xlink:href="#DejaVuSans-61" x="512.158203"/>
     <use xlink:href="#DejaVuSans-72" x="573.4375"/>
     <use xlink:href="#DejaVuSans-6e" x="612.800781"/>
     <use xlink:href="#DejaVuSans-69" x="676.179688"/>
     <use xlink:href="#DejaVuSans-6e" x="703.962891"/>
     <use xlink:href="#DejaVuSans-67" x="767.341797"/>
     <use xlink:href="#DejaVuSans-20" x="830.818359"/>
     <use xlink:href="#DejaVuSans-63" x="862.605469"/>
     <use xlink:href="#DejaVuSans-75" x="917.585938"/>
     <use xlink:href="#DejaVuSans-72" x="980.964844"/>
     <use xlink:href="#DejaVuSans-76" x="1022.078125"/>
     <use xlink:href="#DejaVuSans-65" x="1081.257812"/>
    </g>
   </g>
  </g>
 </g>
 <defs>
  <clipPath id="pe929b6436a">
   <rect x="57.6" y="41.472" width="357.12" height="266.112"/>
  </clipPath>
 </defs>
</svg>
