<?xml version="1.0" encoding="utf-8" standalone="no"?>
<!DOCTYPE svg PUBLIC "-//W3C//DTD SVG 1.1//EN"
  "http://www.w3.org/Graphics/SVG/1.1/DTD/svg11.dtd">
<svg xmlns:xlink="http://www.w3.org/1999/xlink" width="460.8pt" height="345.6pt" viewBox="0 0 460.8 345.6" xmlns="http://www.w3.org/2000/svg" version="1.1">
 <metadata>
  <rdf:RDF xmlns:dc="http://purl.org/dc/elements/1.1/" xmlns:cc="http://creativecommons.org/ns#" xmlns:rdf="http://www.w3.org/1999/02/22-rdf-syntax-ns#">
   <cc:Work>
    <dc:type rdf:resource="http://purl.org/dc/dcmitype/StillImage"/>
    <dc:date>2023-08-19T14:14:54.637960</dc:date>
    <dc:format>image/svg+xml</dc:format>
    <dc:creator>
     <cc:Agent>
      <dc:title>Matplotlib v3.7.1, https://matplotlib.org/</dc:title>
     </cc:Agent>
    </dc:creator>
   </cc:Work>
  </rdf:RDF>
 </metadata>
 <defs>
  <style type="text/css">*{stroke-linejoin: round; stroke-linecap: butt}</style>
 </defs>
 <g id="figure_1">
  <g id="patch_1">
   <path d="M 0 345.6 
L 460.8 345.6 
L 460.8 0 
L 0 0 
z
" style="fill: #ffffff"/>
  </g>
  <g id="axes_1">
   <g id="patch_2">
    <path d="M 57.6 307.584 
L 414.72 307.584 
L 414.72 41.472 
L 57.6 41.472 
z
" style="fill: #ffffff"/>
   </g>
   <g id="matplotlib.axis_1">
    <g id="xtick_1">
     <g id="line2d_1">
      <defs>
       <path id="m14485e019a" d="M 0 0 
L 0 3.5 
" style="stroke: #000000; stroke-width: 0.8"/>
      </defs>
      <g>
       <use xlink:href="#m14485e019a" x="73.55969" y="307.584" style="stroke: #000000; stroke-width: 0.8"/>
      </g>
     </g>
     <g id="text_1">
      <!-- 0 -->
      <g transform="translate(70.37844 322.182437) scale(0.1 -0.1)">
       <defs>
        <path id="DejaVuSans-30" d="M 2034 4250 
Q 1547 4250 1301 3770 
Q 1056 3291 1056 2328 
Q 1056 1369 1301 889 
Q 1547 409 2034 409 
Q 2525 409 2770 889 
Q 3016 1369 3016 2328 
Q 3016 3291 2770 3770 
Q 2525 4250 2034 4250 
z
M 2034 4750 
Q 2819 4750 3233 4129 
Q 3647 3509 3647 2328 
Q 3647 1150 3233 529 
Q 2819 -91 2034 -91 
Q 1250 -91 836 529 
Q 422 1150 422 2328 
Q 422 3509 836 4129 
Q 1250 4750 2034 4750 
z
" transform="scale(0.015625)"/>
       </defs>
       <use xlink:href="#DejaVuSans-30"/>
      </g>
     </g>
    </g>
    <g id="xtick_2">
     <g id="line2d_2">
      <g>
       <use xlink:href="#m14485e019a" x="138.56861" y="307.584" style="stroke: #000000; stroke-width: 0.8"/>
      </g>
     </g>
     <g id="text_2">
      <!-- 100000 -->
      <g transform="translate(119.48111 322.182437) scale(0.1 -0.1)">
       <defs>
        <path id="DejaVuSans-31" d="M 794 531 
L 1825 531 
L 1825 4091 
L 703 3866 
L 703 4441 
L 1819 4666 
L 2450 4666 
L 2450 531 
L 3481 531 
L 3481 0 
L 794 0 
L 794 531 
z
" transform="scale(0.015625)"/>
       </defs>
       <use xlink:href="#DejaVuSans-31"/>
       <use xlink:href="#DejaVuSans-30" x="63.623047"/>
       <use xlink:href="#DejaVuSans-30" x="127.246094"/>
       <use xlink:href="#DejaVuSans-30" x="190.869141"/>
       <use xlink:href="#DejaVuSans-30" x="254.492188"/>
       <use xlink:href="#DejaVuSans-30" x="318.115234"/>
      </g>
     </g>
    </g>
    <g id="xtick_3">
     <g id="line2d_3">
      <g>
       <use xlink:href="#m14485e019a" x="203.577529" y="307.584" style="stroke: #000000; stroke-width: 0.8"/>
      </g>
     </g>
     <g id="text_3">
      <!-- 200000 -->
      <g transform="translate(184.490029 322.182437) scale(0.1 -0.1)">
       <defs>
        <path id="DejaVuSans-32" d="M 1228 531 
L 3431 531 
L 3431 0 
L 469 0 
L 469 531 
Q 828 903 1448 1529 
Q 2069 2156 2228 2338 
Q 2531 2678 2651 2914 
Q 2772 3150 2772 3378 
Q 2772 3750 2511 3984 
Q 2250 4219 1831 4219 
Q 1534 4219 1204 4116 
Q 875 4013 500 3803 
L 500 4441 
Q 881 4594 1212 4672 
Q 1544 4750 1819 4750 
Q 2544 4750 2975 4387 
Q 3406 4025 3406 3419 
Q 3406 3131 3298 2873 
Q 3191 2616 2906 2266 
Q 2828 2175 2409 1742 
Q 1991 1309 1228 531 
z
" transform="scale(0.015625)"/>
       </defs>
       <use xlink:href="#DejaVuSans-32"/>
       <use xlink:href="#DejaVuSans-30" x="63.623047"/>
       <use xlink:href="#DejaVuSans-30" x="127.246094"/>
       <use xlink:href="#DejaVuSans-30" x="190.869141"/>
       <use xlink:href="#DejaVuSans-30" x="254.492188"/>
       <use xlink:href="#DejaVuSans-30" x="318.115234"/>
      </g>
     </g>
    </g>
    <g id="xtick_4">
     <g id="line2d_4">
      <g>
       <use xlink:href="#m14485e019a" x="268.586449" y="307.584" style="stroke: #000000; stroke-width: 0.8"/>
      </g>
     </g>
     <g id="text_4">
      <!-- 300000 -->
      <g transform="translate(249.498949 322.182437) scale(0.1 -0.1)">
       <defs>
        <path id="DejaVuSans-33" d="M 2597 2516 
Q 3050 2419 3304 2112 
Q 3559 1806 3559 1356 
Q 3559 666 3084 287 
Q 2609 -91 1734 -91 
Q 1441 -91 1130 -33 
Q 819 25 488 141 
L 488 750 
Q 750 597 1062 519 
Q 1375 441 1716 441 
Q 2309 441 2620 675 
Q 2931 909 2931 1356 
Q 2931 1769 2642 2001 
Q 2353 2234 1838 2234 
L 1294 2234 
L 1294 2753 
L 1863 2753 
Q 2328 2753 2575 2939 
Q 2822 3125 2822 3475 
Q 2822 3834 2567 4026 
Q 2313 4219 1838 4219 
Q 1578 4219 1281 4162 
Q 984 4106 628 3988 
L 628 4550 
Q 988 4650 1302 4700 
Q 1616 4750 1894 4750 
Q 2613 4750 3031 4423 
Q 3450 4097 3450 3541 
Q 3450 3153 3228 2886 
Q 3006 2619 2597 2516 
z
" transform="scale(0.015625)"/>
       </defs>
       <use xlink:href="#DejaVuSans-33"/>
       <use xlink:href="#DejaVuSans-30" x="63.623047"/>
       <use xlink:href="#DejaVuSans-30" x="127.246094"/>
       <use xlink:href="#DejaVuSans-30" x="190.869141"/>
       <use xlink:href="#DejaVuSans-30" x="254.492188"/>
       <use xlink:href="#DejaVuSans-30" x="318.115234"/>
      </g>
     </g>
    </g>
    <g id="xtick_5">
     <g id="line2d_5">
      <g>
       <use xlink:href="#m14485e019a" x="333.595369" y="307.584" style="stroke: #000000; stroke-width: 0.8"/>
      </g>
     </g>
     <g id="text_5">
      <!-- 400000 -->
      <g transform="translate(314.507869 322.182437) scale(0.1 -0.1)">
       <defs>
        <path id="DejaVuSans-34" d="M 2419 4116 
L 825 1625 
L 2419 1625 
L 2419 4116 
z
M 2253 4666 
L 3047 4666 
L 3047 1625 
L 3713 1625 
L 3713 1100 
L 3047 1100 
L 3047 0 
L 2419 0 
L 2419 1100 
L 313 1100 
L 313 1709 
L 2253 4666 
z
" transform="scale(0.015625)"/>
       </defs>
       <use xlink:href="#DejaVuSans-34"/>
       <use xlink:href="#DejaVuSans-30" x="63.623047"/>
       <use xlink:href="#DejaVuSans-30" x="127.246094"/>
       <use xlink:href="#DejaVuSans-30" x="190.869141"/>
       <use xlink:href="#DejaVuSans-30" x="254.492188"/>
       <use xlink:href="#DejaVuSans-30" x="318.115234"/>
      </g>
     </g>
    </g>
    <g id="xtick_6">
     <g id="line2d_6">
      <g>
       <use xlink:href="#m14485e019a" x="398.604289" y="307.584" style="stroke: #000000; stroke-width: 0.8"/>
      </g>
     </g>
     <g id="text_6">
      <!-- 500000 -->
      <g transform="translate(379.516789 322.182437) scale(0.1 -0.1)">
       <defs>
        <path id="DejaVuSans-35" d="M 691 4666 
L 3169 4666 
L 3169 4134 
L 1269 4134 
L 1269 2991 
Q 1406 3038 1543 3061 
Q 1681 3084 1819 3084 
Q 2600 3084 3056 2656 
Q 3513 2228 3513 1497 
Q 3513 744 3044 326 
Q 2575 -91 1722 -91 
Q 1428 -91 1123 -41 
Q 819 9 494 109 
L 494 744 
Q 775 591 1075 516 
Q 1375 441 1709 441 
Q 2250 441 2565 725 
Q 2881 1009 2881 1497 
Q 2881 1984 2565 2268 
Q 2250 2553 1709 2553 
Q 1456 2553 1204 2497 
Q 953 2441 691 2322 
L 691 4666 
z
" transform="scale(0.015625)"/>
       </defs>
       <use xlink:href="#DejaVuSans-35"/>
       <use xlink:href="#DejaVuSans-30" x="63.623047"/>
       <use xlink:href="#DejaVuSans-30" x="127.246094"/>
       <use xlink:href="#DejaVuSans-30" x="190.869141"/>
       <use xlink:href="#DejaVuSans-30" x="254.492188"/>
       <use xlink:href="#DejaVuSans-30" x="318.115234"/>
      </g>
     </g>
    </g>
    <g id="text_7">
     <!-- timesteps -->
     <g transform="translate(211.443594 335.860562) scale(0.1 -0.1)">
      <defs>
       <path id="DejaVuSans-74" d="M 1172 4494 
L 1172 3500 
L 2356 3500 
L 2356 3053 
L 1172 3053 
L 1172 1153 
Q 1172 725 1289 603 
Q 1406 481 1766 481 
L 2356 481 
L 2356 0 
L 1766 0 
Q 1100 0 847 248 
Q 594 497 594 1153 
L 594 3053 
L 172 3053 
L 172 3500 
L 594 3500 
L 594 4494 
L 1172 4494 
z
" transform="scale(0.015625)"/>
       <path id="DejaVuSans-69" d="M 603 3500 
L 1178 3500 
L 1178 0 
L 603 0 
L 603 3500 
z
M 603 4863 
L 1178 4863 
L 1178 4134 
L 603 4134 
L 603 4863 
z
" transform="scale(0.015625)"/>
       <path id="DejaVuSans-6d" d="M 3328 2828 
Q 3544 3216 3844 3400 
Q 4144 3584 4550 3584 
Q 5097 3584 5394 3201 
Q 5691 2819 5691 2113 
L 5691 0 
L 5113 0 
L 5113 2094 
Q 5113 2597 4934 2840 
Q 4756 3084 4391 3084 
Q 3944 3084 3684 2787 
Q 3425 2491 3425 1978 
L 3425 0 
L 2847 0 
L 2847 2094 
Q 2847 2600 2669 2842 
Q 2491 3084 2119 3084 
Q 1678 3084 1418 2786 
Q 1159 2488 1159 1978 
L 1159 0 
L 581 0 
L 581 3500 
L 1159 3500 
L 1159 2956 
Q 1356 3278 1631 3431 
Q 1906 3584 2284 3584 
Q 2666 3584 2933 3390 
Q 3200 3197 3328 2828 
z
" transform="scale(0.015625)"/>
       <path id="DejaVuSans-65" d="M 3597 1894 
L 3597 1613 
L 953 1613 
Q 991 1019 1311 708 
Q 1631 397 2203 397 
Q 2534 397 2845 478 
Q 3156 559 3463 722 
L 3463 178 
Q 3153 47 2828 -22 
Q 2503 -91 2169 -91 
Q 1331 -91 842 396 
Q 353 884 353 1716 
Q 353 2575 817 3079 
Q 1281 3584 2069 3584 
Q 2775 3584 3186 3129 
Q 3597 2675 3597 1894 
z
M 3022 2063 
Q 3016 2534 2758 2815 
Q 2500 3097 2075 3097 
Q 1594 3097 1305 2825 
Q 1016 2553 972 2059 
L 3022 2063 
z
" transform="scale(0.015625)"/>
       <path id="DejaVuSans-73" d="M 2834 3397 
L 2834 2853 
Q 2591 2978 2328 3040 
Q 2066 3103 1784 3103 
Q 1356 3103 1142 2972 
Q 928 2841 928 2578 
Q 928 2378 1081 2264 
Q 1234 2150 1697 2047 
L 1894 2003 
Q 2506 1872 2764 1633 
Q 3022 1394 3022 966 
Q 3022 478 2636 193 
Q 2250 -91 1575 -91 
Q 1294 -91 989 -36 
Q 684 19 347 128 
L 347 722 
Q 666 556 975 473 
Q 1284 391 1588 391 
Q 1994 391 2212 530 
Q 2431 669 2431 922 
Q 2431 1156 2273 1281 
Q 2116 1406 1581 1522 
L 1381 1569 
Q 847 1681 609 1914 
Q 372 2147 372 2553 
Q 372 3047 722 3315 
Q 1072 3584 1716 3584 
Q 2034 3584 2315 3537 
Q 2597 3491 2834 3397 
z
" transform="scale(0.015625)"/>
       <path id="DejaVuSans-70" d="M 1159 525 
L 1159 -1331 
L 581 -1331 
L 581 3500 
L 1159 3500 
L 1159 2969 
Q 1341 3281 1617 3432 
Q 1894 3584 2278 3584 
Q 2916 3584 3314 3078 
Q 3713 2572 3713 1747 
Q 3713 922 3314 415 
Q 2916 -91 2278 -91 
Q 1894 -91 1617 61 
Q 1341 213 1159 525 
z
M 3116 1747 
Q 3116 2381 2855 2742 
Q 2594 3103 2138 3103 
Q 1681 3103 1420 2742 
Q 1159 2381 1159 1747 
Q 1159 1113 1420 752 
Q 1681 391 2138 391 
Q 2594 391 2855 752 
Q 3116 1113 3116 1747 
z
" transform="scale(0.015625)"/>
      </defs>
      <use xlink:href="#DejaVuSans-74"/>
      <use xlink:href="#DejaVuSans-69" x="39.208984"/>
      <use xlink:href="#DejaVuSans-6d" x="66.992188"/>
      <use xlink:href="#DejaVuSans-65" x="164.404297"/>
      <use xlink:href="#DejaVuSans-73" x="225.927734"/>
      <use xlink:href="#DejaVuSans-74" x="278.027344"/>
      <use xlink:href="#DejaVuSans-65" x="317.236328"/>
      <use xlink:href="#DejaVuSans-70" x="378.759766"/>
      <use xlink:href="#DejaVuSans-73" x="442.236328"/>
     </g>
    </g>
   </g>
   <g id="matplotlib.axis_2">
    <g id="ytick_1">
     <g id="line2d_7">
      <defs>
       <path id="mdb36203a11" d="M 0 0 
L -3.5 0 
" style="stroke: #000000; stroke-width: 0.8"/>
      </defs>
      <g>
       <use xlink:href="#mdb36203a11" x="57.6" y="304.41532" style="stroke: #000000; stroke-width: 0.8"/>
      </g>
     </g>
     <g id="text_8">
      <!-- 0 -->
      <g transform="translate(44.2375 308.214539) scale(0.1 -0.1)">
       <use xlink:href="#DejaVuSans-30"/>
      </g>
     </g>
    </g>
    <g id="ytick_2">
     <g id="line2d_8">
      <g>
       <use xlink:href="#mdb36203a11" x="57.6" y="270.121133" style="stroke: #000000; stroke-width: 0.8"/>
      </g>
     </g>
     <g id="text_9">
      <!-- 50 -->
      <g transform="translate(37.875 273.920352) scale(0.1 -0.1)">
       <use xlink:href="#DejaVuSans-35"/>
       <use xlink:href="#DejaVuSans-30" x="63.623047"/>
      </g>
     </g>
    </g>
    <g id="ytick_3">
     <g id="line2d_9">
      <g>
       <use xlink:href="#mdb36203a11" x="57.6" y="235.826946" style="stroke: #000000; stroke-width: 0.8"/>
      </g>
     </g>
     <g id="text_10">
      <!-- 100 -->
      <g transform="translate(31.5125 239.626164) scale(0.1 -0.1)">
       <use xlink:href="#DejaVuSans-31"/>
       <use xlink:href="#DejaVuSans-30" x="63.623047"/>
       <use xlink:href="#DejaVuSans-30" x="127.246094"/>
      </g>
     </g>
    </g>
    <g id="ytick_4">
     <g id="line2d_10">
      <g>
       <use xlink:href="#mdb36203a11" x="57.6" y="201.532758" style="stroke: #000000; stroke-width: 0.8"/>
      </g>
     </g>
     <g id="text_11">
      <!-- 150 -->
      <g transform="translate(31.5125 205.331977) scale(0.1 -0.1)">
       <use xlink:href="#DejaVuSans-31"/>
       <use xlink:href="#DejaVuSans-35" x="63.623047"/>
       <use xlink:href="#DejaVuSans-30" x="127.246094"/>
      </g>
     </g>
    </g>
    <g id="ytick_5">
     <g id="line2d_11">
      <g>
       <use xlink:href="#mdb36203a11" x="57.6" y="167.238571" style="stroke: #000000; stroke-width: 0.8"/>
      </g>
     </g>
     <g id="text_12">
      <!-- 200 -->
      <g transform="translate(31.5125 171.03779) scale(0.1 -0.1)">
       <use xlink:href="#DejaVuSans-32"/>
       <use xlink:href="#DejaVuSans-30" x="63.623047"/>
       <use xlink:href="#DejaVuSans-30" x="127.246094"/>
      </g>
     </g>
    </g>
    <g id="ytick_6">
     <g id="line2d_12">
      <g>
       <use xlink:href="#mdb36203a11" x="57.6" y="132.944384" style="stroke: #000000; stroke-width: 0.8"/>
      </g>
     </g>
     <g id="text_13">
      <!-- 250 -->
      <g transform="translate(31.5125 136.743602) scale(0.1 -0.1)">
       <use xlink:href="#DejaVuSans-32"/>
       <use xlink:href="#DejaVuSans-35" x="63.623047"/>
       <use xlink:href="#DejaVuSans-30" x="127.246094"/>
      </g>
     </g>
    </g>
    <g id="ytick_7">
     <g id="line2d_13">
      <g>
       <use xlink:href="#mdb36203a11" x="57.6" y="98.650196" style="stroke: #000000; stroke-width: 0.8"/>
      </g>
     </g>
     <g id="text_14">
      <!-- 300 -->
      <g transform="translate(31.5125 102.449415) scale(0.1 -0.1)">
       <use xlink:href="#DejaVuSans-33"/>
       <use xlink:href="#DejaVuSans-30" x="63.623047"/>
       <use xlink:href="#DejaVuSans-30" x="127.246094"/>
      </g>
     </g>
    </g>
    <g id="ytick_8">
     <g id="line2d_14">
      <g>
       <use xlink:href="#mdb36203a11" x="57.6" y="64.356009" style="stroke: #000000; stroke-width: 0.8"/>
      </g>
     </g>
     <g id="text_15">
      <!-- 350 -->
      <g transform="translate(31.5125 68.155228) scale(0.1 -0.1)">
       <use xlink:href="#DejaVuSans-33"/>
       <use xlink:href="#DejaVuSans-35" x="63.623047"/>
       <use xlink:href="#DejaVuSans-30" x="127.246094"/>
      </g>
     </g>
    </g>
    <g id="text_16">
     <!-- mean episode rewards -->
     <g transform="translate(25.432812 231.360031) rotate(-90) scale(0.1 -0.1)">
      <defs>
       <path id="DejaVuSans-61" d="M 2194 1759 
Q 1497 1759 1228 1600 
Q 959 1441 959 1056 
Q 959 750 1161 570 
Q 1363 391 1709 391 
Q 2188 391 2477 730 
Q 2766 1069 2766 1631 
L 2766 1759 
L 2194 1759 
z
M 3341 1997 
L 3341 0 
L 2766 0 
L 2766 531 
Q 2569 213 2275 61 
Q 1981 -91 1556 -91 
Q 1019 -91 701 211 
Q 384 513 384 1019 
Q 384 1609 779 1909 
Q 1175 2209 1959 2209 
L 2766 2209 
L 2766 2266 
Q 2766 2663 2505 2880 
Q 2244 3097 1772 3097 
Q 1472 3097 1187 3025 
Q 903 2953 641 2809 
L 641 3341 
Q 956 3463 1253 3523 
Q 1550 3584 1831 3584 
Q 2591 3584 2966 3190 
Q 3341 2797 3341 1997 
z
" transform="scale(0.015625)"/>
       <path id="DejaVuSans-6e" d="M 3513 2113 
L 3513 0 
L 2938 0 
L 2938 2094 
Q 2938 2591 2744 2837 
Q 2550 3084 2163 3084 
Q 1697 3084 1428 2787 
Q 1159 2491 1159 1978 
L 1159 0 
L 581 0 
L 581 3500 
L 1159 3500 
L 1159 2956 
Q 1366 3272 1645 3428 
Q 1925 3584 2291 3584 
Q 2894 3584 3203 3211 
Q 3513 2838 3513 2113 
z
" transform="scale(0.015625)"/>
       <path id="DejaVuSans-20" transform="scale(0.015625)"/>
       <path id="DejaVuSans-6f" d="M 1959 3097 
Q 1497 3097 1228 2736 
Q 959 2375 959 1747 
Q 959 1119 1226 758 
Q 1494 397 1959 397 
Q 2419 397 2687 759 
Q 2956 1122 2956 1747 
Q 2956 2369 2687 2733 
Q 2419 3097 1959 3097 
z
M 1959 3584 
Q 2709 3584 3137 3096 
Q 3566 2609 3566 1747 
Q 3566 888 3137 398 
Q 2709 -91 1959 -91 
Q 1206 -91 779 398 
Q 353 888 353 1747 
Q 353 2609 779 3096 
Q 1206 3584 1959 3584 
z
" transform="scale(0.015625)"/>
       <path id="DejaVuSans-64" d="M 2906 2969 
L 2906 4863 
L 3481 4863 
L 3481 0 
L 2906 0 
L 2906 525 
Q 2725 213 2448 61 
Q 2172 -91 1784 -91 
Q 1150 -91 751 415 
Q 353 922 353 1747 
Q 353 2572 751 3078 
Q 1150 3584 1784 3584 
Q 2172 3584 2448 3432 
Q 2725 3281 2906 2969 
z
M 947 1747 
Q 947 1113 1208 752 
Q 1469 391 1925 391 
Q 2381 391 2643 752 
Q 2906 1113 2906 1747 
Q 2906 2381 2643 2742 
Q 2381 3103 1925 3103 
Q 1469 3103 1208 2742 
Q 947 2381 947 1747 
z
" transform="scale(0.015625)"/>
       <path id="DejaVuSans-72" d="M 2631 2963 
Q 2534 3019 2420 3045 
Q 2306 3072 2169 3072 
Q 1681 3072 1420 2755 
Q 1159 2438 1159 1844 
L 1159 0 
L 581 0 
L 581 3500 
L 1159 3500 
L 1159 2956 
Q 1341 3275 1631 3429 
Q 1922 3584 2338 3584 
Q 2397 3584 2469 3576 
Q 2541 3569 2628 3553 
L 2631 2963 
z
" transform="scale(0.015625)"/>
       <path id="DejaVuSans-77" d="M 269 3500 
L 844 3500 
L 1563 769 
L 2278 3500 
L 2956 3500 
L 3675 769 
L 4391 3500 
L 4966 3500 
L 4050 0 
L 3372 0 
L 2619 2869 
L 1863 0 
L 1184 0 
L 269 3500 
z
" transform="scale(0.015625)"/>
      </defs>
      <use xlink:href="#DejaVuSans-6d"/>
      <use xlink:href="#DejaVuSans-65" x="97.412109"/>
      <use xlink:href="#DejaVuSans-61" x="158.935547"/>
      <use xlink:href="#DejaVuSans-6e" x="220.214844"/>
      <use xlink:href="#DejaVuSans-20" x="283.59375"/>
      <use xlink:href="#DejaVuSans-65" x="315.380859"/>
      <use xlink:href="#DejaVuSans-70" x="376.904297"/>
      <use xlink:href="#DejaVuSans-69" x="440.380859"/>
      <use xlink:href="#DejaVuSans-73" x="468.164062"/>
      <use xlink:href="#DejaVuSans-6f" x="520.263672"/>
      <use xlink:href="#DejaVuSans-64" x="581.445312"/>
      <use xlink:href="#DejaVuSans-65" x="644.921875"/>
      <use xlink:href="#DejaVuSans-20" x="706.445312"/>
      <use xlink:href="#DejaVuSans-72" x="738.232422"/>
      <use xlink:href="#DejaVuSans-65" x="777.095703"/>
      <use xlink:href="#DejaVuSans-77" x="838.619141"/>
      <use xlink:href="#DejaVuSans-61" x="920.40625"/>
      <use xlink:href="#DejaVuSans-72" x="981.685547"/>
      <use xlink:href="#DejaVuSans-64" x="1021.048828"/>
      <use xlink:href="#DejaVuSans-73" x="1084.525391"/>
     </g>
    </g>
   </g>
   <g id="line2d_15">
    <path d="M 73.832727 294.869394 
L 73.975747 292.031613 
L 74.261786 293.500143 
L 74.3658 291.959197 
L 74.521822 292.677744 
L 74.703847 292.743399 
L 74.846866 292.601643 
L 74.924877 292.355279 
L 75.0939 292.491474 
L 75.223918 292.172964 
L 75.314931 292.865314 
L 75.45795 293.063564 
L 75.613972 292.924604 
L 75.704984 293.943312 
L 75.861006 293.91207 
L 76.017027 293.529885 
L 76.290064 294.287 
L 76.459088 294.202291 
L 76.823138 292.964828 
L 76.979159 292.5285 
L 77.122179 292.949006 
L 77.213191 292.81269 
L 77.382214 293.199606 
L 77.49923 293.026762 
L 77.772268 293.187624 
L 78.058307 294.167956 
L 78.14932 293.227239 
L 78.552375 293.50169 
L 78.669391 293.731394 
L 78.838414 293.621097 
L 79.215466 293.822694 
L 79.384489 294.209775 
L 79.501505 295.159976 
L 79.68353 295.488 
L 79.995573 293.787445 
L 80.112589 291.24183 
L 80.216603 291.81437 
L 80.372625 291.438596 
L 80.437634 291.692831 
L 80.645662 291.709022 
L 80.736675 291.301309 
L 80.866692 291.629656 
L 80.99671 291.383205 
L 81.477776 294.22133 
L 81.958842 291.710421 
L 82.465912 286.025766 
L 83.129003 278.071768 
L 83.753088 268.542692 
L 84.260158 264.844259 
L 84.403178 265.03705 
L 84.689217 268.564432 
L 85.131278 273.671495 
L 85.44332 275.182208 
L 85.677352 275.189462 
L 85.72936 274.940955 
L 86.015399 274.79994 
L 86.327442 274.005875 
L 86.405452 273.352604 
L 86.743499 272.505149 
L 87.159556 270.614043 
L 87.315577 270.604109 
L 87.588615 270.244738 
L 87.861652 270.537919 
L 88.147691 269.517119 
L 88.394725 269.396067 
L 88.745773 267.677579 
L 89.408864 263.214178 
L 89.642897 254.91134 
L 90.436005 248.872479 
L 90.488013 240.872947 
L 91.528155 235.769796 
L 91.593164 225.099063 
L 92.555296 218.814591 
L 92.646309 212.039225 
L 93.621442 203.538312 
L 93.699453 198.020924 
L 94.661585 195.094794 
L 94.778601 193.775903 
L 95.701728 192.889852 
L 95.805742 191.13638 
L 96.754872 190.931671 
L 96.793878 192.065124 
L 97.743008 192.559645 
L 97.886028 191.631175 
L 98.822156 191.366452 
L 98.978177 191.132051 
L 100.083329 190.909789 
L 100.96745 190.048671 
L 101.019458 191.19208 
L 101.890577 194.947932 
L 102.098606 194.847058 
L 102.982727 193.67727 
L 103.15175 193.934282 
L 105.128021 193.584446 
L 105.284043 193.770564 
L 106.311184 193.151157 
L 106.376193 190.745629 
L 107.403333 186.839076 
L 107.455341 185.825131 
L 108.417473 186.753835 
L 108.560492 186.535125 
L 109.444614 187.593698 
L 109.691647 187.388214 
L 110.211719 188.066891 
L 110.822803 190.122445 
L 111.23886 190.666587 
L 111.888949 191.796801 
L 112.500033 188.852515 
L 113.098115 188.178809 
L 114.047245 186.835027 
L 114.723338 185.501226 
L 115.360425 183.707479 
L 116.569591 177.987703 
L 116.920639 177.167122 
L 117.466714 177.285106 
L 118.220818 177.107601 
L 118.584868 176.666192 
L 119.338971 175.937184 
L 119.91105 173.704898 
L 120.665153 167.722228 
L 120.886183 163.849766 
L 122.17336 162.07488 
L 122.407392 154.294301 
L 123.40853 151.603403 
L 123.928601 145.208955 
L 124.916736 141.110393 
L 125.579827 133.949641 
L 126.333931 129.061945 
L 127.166045 121.805851 
L 128.596241 114.176879 
L 129.701393 106.16762 
L 130.234466 107.188851 
L 131.326616 101.2716 
L 131.79468 97.213986 
L 132.88683 95.646445 
L 133.3939 95.847646 
L 134.512053 92.276159 
L 134.941112 91.953474 
L 136.358306 95.572623 
L 137.567472 99.152783 
L 137.879515 98.649112 
L 139.114685 100.52442 
L 139.465733 102.588775 
L 140.765911 102.596057 
L 140.947936 96.447982 
L 142.326125 99.630373 
L 142.469145 102.690602 
L 143.769323 102.218177 
L 144.068364 102.659917 
L 145.316535 102.706114 
L 145.758596 102.063601 
L 146.707726 103.395696 
L 147.448828 103.057092 
L 148.150924 105.341792 
L 148.905028 110.204809 
L 149.763146 108.977303 
L 150.504247 106.84005 
L 151.466379 106.03289 
L 152.207481 102.149017 
L 153.00059 103.778124 
L 153.871709 102.258551 
L 154.45679 101.5622 
L 155.249898 107.810535 
L 155.964997 104.91077 
L 156.86212 105.301656 
L 157.408195 106.395342 
L 158.370327 106.878793 
L 158.98141 109.153898 
L 159.943542 111.238233 
L 160.593632 108.356255 
L 161.52976 110.184922 
L 162.283864 107.380743 
L 163.089974 101.44159 
L 163.79207 101.975673 
L 164.676192 101.762496 
L 165.196263 101.763362 
L 166.093386 103.458696 
L 166.56145 104.855511 
L 167.627597 106.234914 
L 168.01765 108.905105 
L 169.200813 108.429084 
L 169.499854 108.861212 
L 170.735023 108.793635 
L 171.047066 109.96141 
L 172.334243 109.558341 
L 172.555273 108.249604 
L 173.946464 106.084386 
L 175.285648 105.318157 
L 175.428667 105.543952 
L 176.676838 107.302826 
L 176.936874 108.016695 
L 178.380072 107.63446 
L 179.641245 109.157634 
L 179.758261 112.760588 
L 181.097445 113.351622 
L 181.175456 111.606771 
L 182.44963 115.196053 
L 182.566647 118.261337 
L 184.035848 118.400468 
L 184.139862 116.546924 
L 185.297021 121.757093 
L 185.479046 124.340169 
L 186.844233 122.547556 
L 186.987253 119.613855 
L 188.287431 120.380105 
L 188.573471 119.191463 
L 189.847646 116.775633 
L 190.159688 110.563358 
L 191.316847 108.162184 
L 191.77191 108.198716 
L 193.08509 100.970637 
L 193.293118 93.095037 
L 194.268252 97.501244 
L 195.165375 95.072983 
L 195.919479 92.267875 
L 196.517561 93.358495 
L 197.570705 90.283685 
L 197.921753 93.649338 
L 199.000901 93.711957 
L 199.559978 92.160544 
L 200.52211 95.422051 
L 201.198203 96.821492 
L 202.12133 89.721101 
L 202.823426 90.381076 
L 203.616535 92.091737 
L 204.435647 90.52927 
L 205.293765 90.278868 
L 205.943854 87.014631 
L 206.879983 85.16042 
L 207.595081 86.157441 
L 208.440197 85.30102 
L 209.116289 87.152941 
L 209.909398 90.293273 
L 210.637498 91.771614 
L 211.45661 92.608307 
L 212.223716 94.291786 
L 212.925812 96.436283 
L 213.809933 97.524189 
L 214.59004 99.943353 
L 215.383149 98.3008 
L 216.241267 99.185692 
L 217.814483 93.970111 
L 218.672601 92.881995 
L 219.413702 91.009519 
L 221.129938 89.049333 
L 221.858038 87.137821 
L 222.67715 85.542705 
L 223.483261 86.780915 
L 224.250366 86.133442 
L 225.08248 87.405399 
L 225.849585 86.933625 
L 226.798716 86.045501 
L 227.370794 85.302673 
L 228.319924 84.40073 
L 228.696976 87.373817 
L 230.439215 92.69711 
L 231.271329 94.142848 
L 231.973426 94.335622 
L 233.02657 91.383749 
L 233.442627 91.338343 
L 234.677797 93.115843 
L 235.028845 91.752682 
L 236.029982 92.131329 
L 236.706075 90.286765 
L 237.811227 84.704411 
L 238.331298 81.176701 
L 239.501458 78.479202 
L 240.060535 74.302853 
L 241.568742 77.758069 
L 243.206967 77.95811 
L 244.286115 75.765759 
L 244.97521 73.408721 
L 245.742315 74.557318 
L 246.496418 77.313403 
L 247.45855 76.599762 
L 248.108639 78.465496 
L 248.940754 79.420426 
L 249.694857 78.601113 
L 250.617984 75.957417 
L 251.32008 80.593551 
L 252.308216 78.405877 
L 252.9193 75.983948 
L 253.777417 76.155331 
L 254.622533 75.361012 
L 255.480651 76.740701 
L 256.27376 77.758232 
L 257.105874 75.706326 
L 259.602216 72.534742 
L 261.136427 79.42141 
L 262.020548 79.775013 
L 262.774652 78.743307 
L 263.580762 77.868679 
L 264.5819 75.78347 
L 265.140976 75.214161 
L 266.363144 77.341821 
L 266.792203 77.308576 
L 267.871351 76.426259 
L 268.456431 74.813288 
L 269.301547 74.69429 
L 269.912631 76.485173 
L 270.70574 83.024842 
L 271.394835 86.337436 
L 272.070927 92.363074 
L 273.657145 96.829209 
L 274.580272 97.403968 
L 275.308372 95.459693 
L 276.335512 95.858087 
L 277.986739 88.456109 
L 280.639103 69.942403 
L 281.263189 67.741419 
L 282.082301 65.849262 
L 282.667381 69.556975 
L 283.798536 71.744842 
L 284.357613 71.521704 
L 285.50177 73.534652 
L 286.034843 74.84429 
L 287.218006 75.360502 
L 287.712073 74.798633 
L 288.934241 77.081704 
L 289.376302 78.947948 
L 290.520459 75.971081 
L 291.014527 74.082728 
L 292.236694 71.24583 
L 292.691757 68.07047 
L 293.80991 68.83699 
L 294.381989 68.510179 
L 295.526146 68.487422 
L 295.981208 70.466332 
L 297.541422 74.276853 
L 298.672577 76.52661 
L 299.075633 75.799319 
L 300.336806 76.962969 
L 300.713857 79.724974 
L 301.858014 83.186862 
L 302.326079 85.156579 
L 303.002171 91.536877 
L 303.821284 95.921737 
L 304.614393 96.857802 
L 305.329491 97.486146 
L 305.823558 107.971132 
L 306.434642 111.858743 
L 307.370771 115.447955 
L 307.721819 119.855791 
L 308.787965 120.691295 
L 309.269031 122.65139 
L 310.20516 121.083928 
L 310.764236 120.807262 
L 311.583349 122.179103 
L 312.233438 124.140124 
L 313.650632 115.250664 
L 314.599763 116.979476 
L 315.262854 116.379263 
L 316.680048 118.578743 
L 317.434152 118.585272 
L 318.266266 116.401322 
L 319.033371 115.416355 
L 319.579446 115.266704 
L 320.645592 112.560923 
L 321.022644 113.83185 
L 321.997778 110.415779 
L 322.634865 107.746504 
L 323.336961 104.251492 
L 324.078063 103.665481 
L 324.975186 101.325231 
L 325.58627 101.967491 
L 326.431386 101.087962 
L 327.172488 98.076933 
L 327.978598 95.356277 
L 328.758705 94.212797 
L 329.4478 95.298981 
L 330.39693 95.12216 
L 331.112028 92.41867 
L 332.009151 88.083923 
L 332.3602 92.140827 
L 333.595369 90.82584 
L 333.829401 89.361271 
L 335.20759 89.779686 
L 335.545637 89.147057 
L 336.793808 90.931184 
L 337.105851 89.953181 
L 338.419031 90.510854 
L 338.679067 91.095279 
L 339.966243 92.065066 
L 340.213277 88.252118 
L 341.61747 88.413101 
L 341.8385 88.713785 
L 342.904646 88.867049 
L 343.606743 88.334226 
L 344.477862 86.081605 
L 345.270971 84.428665 
L 346.06408 81.926971 
L 346.79218 83.054084 
L 348.339392 81.317558 
L 349.184508 80.932373 
L 350.042626 79.959176 
L 350.835735 77.888596 
L 351.615842 78.354183 
L 352.460958 77.047852 
L 353.306073 77.130222 
L 354.138188 78.276762 
L 354.905293 79.108093 
L 355.958437 77.600669 
L 356.556519 74.95711 
L 357.765685 72.244564 
L 358.272755 69.882682 
L 359.377907 70.104027 
L 359.806965 71.036959 
L 360.990128 71.799143 
L 361.36718 71.514437 
L 362.667358 72.222328 
L 362.992403 70.113406 
L 364.240574 70.462277 
L 364.682634 72.211003 
L 365.800788 72.70788 
L 366.242849 76.214516 
L 367.334998 77.016188 
L 367.894075 76.756966 
L 368.973223 79.3066 
L 369.363277 79.805732 
L 370.559441 80.156703 
L 371.014503 81.120542 
L 372.119655 81.514558 
L 372.691733 80.739212 
L 373.744878 81.984068 
L 374.303955 80.487756 
L 374.902037 84.901147 
L 375.201078 98.42808 
L 376.592269 96.878775 
L 376.930315 94.912089 
L 378.2825 93.107941 
L 378.56854 91.818199 
L 379.972732 90.514077 
L 380.206764 90.724322 
L 381.896996 90.246112 
L 383.158169 85.761544 
L 383.45721 73.583342 
L 385.238455 70.672319 
L 386.655649 70.089931 
L 387.084708 67.45085 
L 388.163856 67.144602 
L 388.878954 67.354971 
L 390.023111 64.31446 
L 390.608192 61.938958 
L 391.726345 58.334488 
L 392.441443 54.106063 
L 393.533593 53.568 
L 395.067804 57.797492 
L 395.535868 63.058768 
L 396.810043 62.865945 
L 397.343116 60.904467 
L 398.487273 63.034497 
L 398.487273 63.034497 
" clip-path="url(#pdf95ec90c5)" style="fill: none; stroke: #1f77b4; stroke-width: 1.5; stroke-linecap: square"/>
   </g>
   <g id="patch_3">
    <path d="M 57.6 307.584 
L 57.6 41.472 
" style="fill: none; stroke: #000000; stroke-width: 0.8; stroke-linejoin: miter; stroke-linecap: square"/>
   </g>
   <g id="patch_4">
    <path d="M 414.72 307.584 
L 414.72 41.472 
" style="fill: none; stroke: #000000; stroke-width: 0.8; stroke-linejoin: miter; stroke-linecap: square"/>
   </g>
   <g id="patch_5">
    <path d="M 57.6 307.584 
L 414.72 307.584 
" style="fill: none; stroke: #000000; stroke-width: 0.8; stroke-linejoin: miter; stroke-linecap: square"/>
   </g>
   <g id="patch_6">
    <path d="M 57.6 41.472 
L 414.72 41.472 
" style="fill: none; stroke: #000000; stroke-width: 0.8; stroke-linejoin: miter; stroke-linecap: square"/>
   </g>
   <g id="text_17">
    <!-- learning curve -->
    <g transform="translate(192.96375 35.472) scale(0.12 -0.12)">
     <defs>
      <path id="DejaVuSans-6c" d="M 603 4863 
L 1178 4863 
L 1178 0 
L 603 0 
L 603 4863 
z
" transform="scale(0.015625)"/>
      <path id="DejaVuSans-67" d="M 2906 1791 
Q 2906 2416 2648 2759 
Q 2391 3103 1925 3103 
Q 1463 3103 1205 2759 
Q 947 2416 947 1791 
Q 947 1169 1205 825 
Q 1463 481 1925 481 
Q 2391 481 2648 825 
Q 2906 1169 2906 1791 
z
M 3481 434 
Q 3481 -459 3084 -895 
Q 2688 -1331 1869 -1331 
Q 1566 -1331 1297 -1286 
Q 1028 -1241 775 -1147 
L 775 -588 
Q 1028 -725 1275 -790 
Q 1522 -856 1778 -856 
Q 2344 -856 2625 -561 
Q 2906 -266 2906 331 
L 2906 616 
Q 2728 306 2450 153 
Q 2172 0 1784 0 
Q 1141 0 747 490 
Q 353 981 353 1791 
Q 353 2603 747 3093 
Q 1141 3584 1784 3584 
Q 2172 3584 2450 3431 
Q 2728 3278 2906 2969 
L 2906 3500 
L 3481 3500 
L 3481 434 
z
" transform="scale(0.015625)"/>
      <path id="DejaVuSans-63" d="M 3122 3366 
L 3122 2828 
Q 2878 2963 2633 3030 
Q 2388 3097 2138 3097 
Q 1578 3097 1268 2742 
Q 959 2388 959 1747 
Q 959 1106 1268 751 
Q 1578 397 2138 397 
Q 2388 397 2633 464 
Q 2878 531 3122 666 
L 3122 134 
Q 2881 22 2623 -34 
Q 2366 -91 2075 -91 
Q 1284 -91 818 406 
Q 353 903 353 1747 
Q 353 2603 823 3093 
Q 1294 3584 2113 3584 
Q 2378 3584 2631 3529 
Q 2884 3475 3122 3366 
z
" transform="scale(0.015625)"/>
      <path id="DejaVuSans-75" d="M 544 1381 
L 544 3500 
L 1119 3500 
L 1119 1403 
Q 1119 906 1312 657 
Q 1506 409 1894 409 
Q 2359 409 2629 706 
Q 2900 1003 2900 1516 
L 2900 3500 
L 3475 3500 
L 3475 0 
L 2900 0 
L 2900 538 
Q 2691 219 2414 64 
Q 2138 -91 1772 -91 
Q 1169 -91 856 284 
Q 544 659 544 1381 
z
M 1991 3584 
L 1991 3584 
z
" transform="scale(0.015625)"/>
      <path id="DejaVuSans-76" d="M 191 3500 
L 800 3500 
L 1894 563 
L 2988 3500 
L 3597 3500 
L 2284 0 
L 1503 0 
L 191 3500 
z
" transform="scale(0.015625)"/>
     </defs>
     <use xlink:href="#DejaVuSans-6c"/>
     <use xlink:href="#DejaVuSans-65" x="27.783203"/>
     <use xlink:href="#DejaVuSans-61" x="89.306641"/>
     <use xlink:href="#DejaVuSans-72" x="150.585938"/>
     <use xlink:href="#DejaVuSans-6e" x="189.949219"/>
     <use xlink:href="#DejaVuSans-69" x="253.328125"/>
     <use xlink:href="#DejaVuSans-6e" x="281.111328"/>
     <use xlink:href="#DejaVuSans-67" x="344.490234"/>
     <use xlink:href="#DejaVuSans-20" x="407.966797"/>
     <use xlink:href="#DejaVuSans-63" x="439.753906"/>
     <use xlink:href="#DejaVuSans-75" x="494.734375"/>
     <use xlink:href="#DejaVuSans-72" x="558.113281"/>
     <use xlink:href="#DejaVuSans-76" x="599.226562"/>
     <use xlink:href="#DejaVuSans-65" x="658.40625"/>
    </g>
   </g>
  </g>
 </g>
 <defs>
  <clipPath id="pdf95ec90c5">
   <rect x="57.6" y="41.472" width="357.12" height="266.112"/>
  </clipPath>
 </defs>
</svg>
