<?xml version="1.0" encoding="utf-8" standalone="no"?>
<!DOCTYPE svg PUBLIC "-//W3C//DTD SVG 1.1//EN"
  "http://www.w3.org/Graphics/SVG/1.1/DTD/svg11.dtd">
<svg xmlns:xlink="http://www.w3.org/1999/xlink" width="460.8pt" height="345.6pt" viewBox="0 0 460.8 345.6" xmlns="http://www.w3.org/2000/svg" version="1.1">
 <metadata>
  <rdf:RDF xmlns:dc="http://purl.org/dc/elements/1.1/" xmlns:cc="http://creativecommons.org/ns#" xmlns:rdf="http://www.w3.org/1999/02/22-rdf-syntax-ns#">
   <cc:Work>
    <dc:type rdf:resource="http://purl.org/dc/dcmitype/StillImage"/>
    <dc:date>2023-08-19T14:14:54.857117</dc:date>
    <dc:format>image/svg+xml</dc:format>
    <dc:creator>
     <cc:Agent>
      <dc:title>Matplotlib v3.7.1, https://matplotlib.org/</dc:title>
     </cc:Agent>
    </dc:creator>
   </cc:Work>
  </rdf:RDF>
 </metadata>
 <defs>
  <style type="text/css">*{stroke-linejoin: round; stroke-linecap: butt}</style>
 </defs>
 <g id="figure_1">
  <g id="patch_1">
   <path d="M 0 345.6 
L 460.8 345.6 
L 460.8 0 
L 0 0 
z
" style="fill: #ffffff"/>
  </g>
  <g id="axes_1">
   <g id="patch_2">
    <path d="M 57.6 307.584 
L 414.72 307.584 
L 414.72 41.472 
L 57.6 41.472 
z
" style="fill: #ffffff"/>
   </g>
   <g id="matplotlib.axis_1">
    <g id="xtick_1">
     <g id="line2d_1">
      <defs>
       <path id="mf9fd9c49e8" d="M 0 0 
L 0 3.5 
" style="stroke: #000000; stroke-width: 0.8"/>
      </defs>
      <g>
       <use xlink:href="#mf9fd9c49e8" x="73.192383" y="307.584" style="stroke: #000000; stroke-width: 0.8"/>
      </g>
     </g>
     <g id="text_1">
      <!-- 0 -->
      <g transform="translate(70.011133 322.182437) scale(0.1 -0.1)">
       <defs>
        <path id="DejaVuSans-30" d="M 2034 4250 
Q 1547 4250 1301 3770 
Q 1056 3291 1056 2328 
Q 1056 1369 1301 889 
Q 1547 409 2034 409 
Q 2525 409 2770 889 
Q 3016 1369 3016 2328 
Q 3016 3291 2770 3770 
Q 2525 4250 2034 4250 
z
M 2034 4750 
Q 2819 4750 3233 4129 
Q 3647 3509 3647 2328 
Q 3647 1150 3233 529 
Q 2819 -91 2034 -91 
Q 1250 -91 836 529 
Q 422 1150 422 2328 
Q 422 3509 836 4129 
Q 1250 4750 2034 4750 
z
" transform="scale(0.015625)"/>
       </defs>
       <use xlink:href="#DejaVuSans-30"/>
      </g>
     </g>
    </g>
    <g id="xtick_2">
     <g id="line2d_2">
      <g>
       <use xlink:href="#mf9fd9c49e8" x="137.22681" y="307.584" style="stroke: #000000; stroke-width: 0.8"/>
      </g>
     </g>
     <g id="text_2">
      <!-- 1000 -->
      <g transform="translate(124.50181 322.182437) scale(0.1 -0.1)">
       <defs>
        <path id="DejaVuSans-31" d="M 794 531 
L 1825 531 
L 1825 4091 
L 703 3866 
L 703 4441 
L 1819 4666 
L 2450 4666 
L 2450 531 
L 3481 531 
L 3481 0 
L 794 0 
L 794 531 
z
" transform="scale(0.015625)"/>
       </defs>
       <use xlink:href="#DejaVuSans-31"/>
       <use xlink:href="#DejaVuSans-30" x="63.623047"/>
       <use xlink:href="#DejaVuSans-30" x="127.246094"/>
       <use xlink:href="#DejaVuSans-30" x="190.869141"/>
      </g>
     </g>
    </g>
    <g id="xtick_3">
     <g id="line2d_3">
      <g>
       <use xlink:href="#mf9fd9c49e8" x="201.261237" y="307.584" style="stroke: #000000; stroke-width: 0.8"/>
      </g>
     </g>
     <g id="text_3">
      <!-- 2000 -->
      <g transform="translate(188.536237 322.182437) scale(0.1 -0.1)">
       <defs>
        <path id="DejaVuSans-32" d="M 1228 531 
L 3431 531 
L 3431 0 
L 469 0 
L 469 531 
Q 828 903 1448 1529 
Q 2069 2156 2228 2338 
Q 2531 2678 2651 2914 
Q 2772 3150 2772 3378 
Q 2772 3750 2511 3984 
Q 2250 4219 1831 4219 
Q 1534 4219 1204 4116 
Q 875 4013 500 3803 
L 500 4441 
Q 881 4594 1212 4672 
Q 1544 4750 1819 4750 
Q 2544 4750 2975 4387 
Q 3406 4025 3406 3419 
Q 3406 3131 3298 2873 
Q 3191 2616 2906 2266 
Q 2828 2175 2409 1742 
Q 1991 1309 1228 531 
z
" transform="scale(0.015625)"/>
       </defs>
       <use xlink:href="#DejaVuSans-32"/>
       <use xlink:href="#DejaVuSans-30" x="63.623047"/>
       <use xlink:href="#DejaVuSans-30" x="127.246094"/>
       <use xlink:href="#DejaVuSans-30" x="190.869141"/>
      </g>
     </g>
    </g>
    <g id="xtick_4">
     <g id="line2d_4">
      <g>
       <use xlink:href="#mf9fd9c49e8" x="265.295664" y="307.584" style="stroke: #000000; stroke-width: 0.8"/>
      </g>
     </g>
     <g id="text_4">
      <!-- 3000 -->
      <g transform="translate(252.570664 322.182437) scale(0.1 -0.1)">
       <defs>
        <path id="DejaVuSans-33" d="M 2597 2516 
Q 3050 2419 3304 2112 
Q 3559 1806 3559 1356 
Q 3559 666 3084 287 
Q 2609 -91 1734 -91 
Q 1441 -91 1130 -33 
Q 819 25 488 141 
L 488 750 
Q 750 597 1062 519 
Q 1375 441 1716 441 
Q 2309 441 2620 675 
Q 2931 909 2931 1356 
Q 2931 1769 2642 2001 
Q 2353 2234 1838 2234 
L 1294 2234 
L 1294 2753 
L 1863 2753 
Q 2328 2753 2575 2939 
Q 2822 3125 2822 3475 
Q 2822 3834 2567 4026 
Q 2313 4219 1838 4219 
Q 1578 4219 1281 4162 
Q 984 4106 628 3988 
L 628 4550 
Q 988 4650 1302 4700 
Q 1616 4750 1894 4750 
Q 2613 4750 3031 4423 
Q 3450 4097 3450 3541 
Q 3450 3153 3228 2886 
Q 3006 2619 2597 2516 
z
" transform="scale(0.015625)"/>
       </defs>
       <use xlink:href="#DejaVuSans-33"/>
       <use xlink:href="#DejaVuSans-30" x="63.623047"/>
       <use xlink:href="#DejaVuSans-30" x="127.246094"/>
       <use xlink:href="#DejaVuSans-30" x="190.869141"/>
      </g>
     </g>
    </g>
    <g id="xtick_5">
     <g id="line2d_5">
      <g>
       <use xlink:href="#mf9fd9c49e8" x="329.330091" y="307.584" style="stroke: #000000; stroke-width: 0.8"/>
      </g>
     </g>
     <g id="text_5">
      <!-- 4000 -->
      <g transform="translate(316.605091 322.182437) scale(0.1 -0.1)">
       <defs>
        <path id="DejaVuSans-34" d="M 2419 4116 
L 825 1625 
L 2419 1625 
L 2419 4116 
z
M 2253 4666 
L 3047 4666 
L 3047 1625 
L 3713 1625 
L 3713 1100 
L 3047 1100 
L 3047 0 
L 2419 0 
L 2419 1100 
L 313 1100 
L 313 1709 
L 2253 4666 
z
" transform="scale(0.015625)"/>
       </defs>
       <use xlink:href="#DejaVuSans-34"/>
       <use xlink:href="#DejaVuSans-30" x="63.623047"/>
       <use xlink:href="#DejaVuSans-30" x="127.246094"/>
       <use xlink:href="#DejaVuSans-30" x="190.869141"/>
      </g>
     </g>
    </g>
    <g id="xtick_6">
     <g id="line2d_6">
      <g>
       <use xlink:href="#mf9fd9c49e8" x="393.364519" y="307.584" style="stroke: #000000; stroke-width: 0.8"/>
      </g>
     </g>
     <g id="text_6">
      <!-- 5000 -->
      <g transform="translate(380.639519 322.182437) scale(0.1 -0.1)">
       <defs>
        <path id="DejaVuSans-35" d="M 691 4666 
L 3169 4666 
L 3169 4134 
L 1269 4134 
L 1269 2991 
Q 1406 3038 1543 3061 
Q 1681 3084 1819 3084 
Q 2600 3084 3056 2656 
Q 3513 2228 3513 1497 
Q 3513 744 3044 326 
Q 2575 -91 1722 -91 
Q 1428 -91 1123 -41 
Q 819 9 494 109 
L 494 744 
Q 775 591 1075 516 
Q 1375 441 1709 441 
Q 2250 441 2565 725 
Q 2881 1009 2881 1497 
Q 2881 1984 2565 2268 
Q 2250 2553 1709 2553 
Q 1456 2553 1204 2497 
Q 953 2441 691 2322 
L 691 4666 
z
" transform="scale(0.015625)"/>
       </defs>
       <use xlink:href="#DejaVuSans-35"/>
       <use xlink:href="#DejaVuSans-30" x="63.623047"/>
       <use xlink:href="#DejaVuSans-30" x="127.246094"/>
       <use xlink:href="#DejaVuSans-30" x="190.869141"/>
      </g>
     </g>
    </g>
    <g id="text_7">
     <!-- episodes -->
     <g transform="translate(214.000625 335.860562) scale(0.1 -0.1)">
      <defs>
       <path id="DejaVuSans-65" d="M 3597 1894 
L 3597 1613 
L 953 1613 
Q 991 1019 1311 708 
Q 1631 397 2203 397 
Q 2534 397 2845 478 
Q 3156 559 3463 722 
L 3463 178 
Q 3153 47 2828 -22 
Q 2503 -91 2169 -91 
Q 1331 -91 842 396 
Q 353 884 353 1716 
Q 353 2575 817 3079 
Q 1281 3584 2069 3584 
Q 2775 3584 3186 3129 
Q 3597 2675 3597 1894 
z
M 3022 2063 
Q 3016 2534 2758 2815 
Q 2500 3097 2075 3097 
Q 1594 3097 1305 2825 
Q 1016 2553 972 2059 
L 3022 2063 
z
" transform="scale(0.015625)"/>
       <path id="DejaVuSans-70" d="M 1159 525 
L 1159 -1331 
L 581 -1331 
L 581 3500 
L 1159 3500 
L 1159 2969 
Q 1341 3281 1617 3432 
Q 1894 3584 2278 3584 
Q 2916 3584 3314 3078 
Q 3713 2572 3713 1747 
Q 3713 922 3314 415 
Q 2916 -91 2278 -91 
Q 1894 -91 1617 61 
Q 1341 213 1159 525 
z
M 3116 1747 
Q 3116 2381 2855 2742 
Q 2594 3103 2138 3103 
Q 1681 3103 1420 2742 
Q 1159 2381 1159 1747 
Q 1159 1113 1420 752 
Q 1681 391 2138 391 
Q 2594 391 2855 752 
Q 3116 1113 3116 1747 
z
" transform="scale(0.015625)"/>
       <path id="DejaVuSans-69" d="M 603 3500 
L 1178 3500 
L 1178 0 
L 603 0 
L 603 3500 
z
M 603 4863 
L 1178 4863 
L 1178 4134 
L 603 4134 
L 603 4863 
z
" transform="scale(0.015625)"/>
       <path id="DejaVuSans-73" d="M 2834 3397 
L 2834 2853 
Q 2591 2978 2328 3040 
Q 2066 3103 1784 3103 
Q 1356 3103 1142 2972 
Q 928 2841 928 2578 
Q 928 2378 1081 2264 
Q 1234 2150 1697 2047 
L 1894 2003 
Q 2506 1872 2764 1633 
Q 3022 1394 3022 966 
Q 3022 478 2636 193 
Q 2250 -91 1575 -91 
Q 1294 -91 989 -36 
Q 684 19 347 128 
L 347 722 
Q 666 556 975 473 
Q 1284 391 1588 391 
Q 1994 391 2212 530 
Q 2431 669 2431 922 
Q 2431 1156 2273 1281 
Q 2116 1406 1581 1522 
L 1381 1569 
Q 847 1681 609 1914 
Q 372 2147 372 2553 
Q 372 3047 722 3315 
Q 1072 3584 1716 3584 
Q 2034 3584 2315 3537 
Q 2597 3491 2834 3397 
z
" transform="scale(0.015625)"/>
       <path id="DejaVuSans-6f" d="M 1959 3097 
Q 1497 3097 1228 2736 
Q 959 2375 959 1747 
Q 959 1119 1226 758 
Q 1494 397 1959 397 
Q 2419 397 2687 759 
Q 2956 1122 2956 1747 
Q 2956 2369 2687 2733 
Q 2419 3097 1959 3097 
z
M 1959 3584 
Q 2709 3584 3137 3096 
Q 3566 2609 3566 1747 
Q 3566 888 3137 398 
Q 2709 -91 1959 -91 
Q 1206 -91 779 398 
Q 353 888 353 1747 
Q 353 2609 779 3096 
Q 1206 3584 1959 3584 
z
" transform="scale(0.015625)"/>
       <path id="DejaVuSans-64" d="M 2906 2969 
L 2906 4863 
L 3481 4863 
L 3481 0 
L 2906 0 
L 2906 525 
Q 2725 213 2448 61 
Q 2172 -91 1784 -91 
Q 1150 -91 751 415 
Q 353 922 353 1747 
Q 353 2572 751 3078 
Q 1150 3584 1784 3584 
Q 2172 3584 2448 3432 
Q 2725 3281 2906 2969 
z
M 947 1747 
Q 947 1113 1208 752 
Q 1469 391 1925 391 
Q 2381 391 2643 752 
Q 2906 1113 2906 1747 
Q 2906 2381 2643 2742 
Q 2381 3103 1925 3103 
Q 1469 3103 1208 2742 
Q 947 2381 947 1747 
z
" transform="scale(0.015625)"/>
      </defs>
      <use xlink:href="#DejaVuSans-65"/>
      <use xlink:href="#DejaVuSans-70" x="61.523438"/>
      <use xlink:href="#DejaVuSans-69" x="125"/>
      <use xlink:href="#DejaVuSans-73" x="152.783203"/>
      <use xlink:href="#DejaVuSans-6f" x="204.882812"/>
      <use xlink:href="#DejaVuSans-64" x="266.064453"/>
      <use xlink:href="#DejaVuSans-65" x="329.541016"/>
      <use xlink:href="#DejaVuSans-73" x="391.064453"/>
     </g>
    </g>
   </g>
   <g id="matplotlib.axis_2">
    <g id="ytick_1">
     <g id="line2d_7">
      <defs>
       <path id="m5074910db3" d="M 0 0 
L -3.5 0 
" style="stroke: #000000; stroke-width: 0.8"/>
      </defs>
      <g>
       <use xlink:href="#m5074910db3" x="57.6" y="288.179918" style="stroke: #000000; stroke-width: 0.8"/>
      </g>
     </g>
     <g id="text_8">
      <!-- 20 -->
      <g transform="translate(37.875 291.979137) scale(0.1 -0.1)">
       <use xlink:href="#DejaVuSans-32"/>
       <use xlink:href="#DejaVuSans-30" x="63.623047"/>
      </g>
     </g>
    </g>
    <g id="ytick_2">
     <g id="line2d_8">
      <g>
       <use xlink:href="#m5074910db3" x="57.6" y="246.95484" style="stroke: #000000; stroke-width: 0.8"/>
      </g>
     </g>
     <g id="text_9">
      <!-- 40 -->
      <g transform="translate(37.875 250.754059) scale(0.1 -0.1)">
       <use xlink:href="#DejaVuSans-34"/>
       <use xlink:href="#DejaVuSans-30" x="63.623047"/>
      </g>
     </g>
    </g>
    <g id="ytick_3">
     <g id="line2d_9">
      <g>
       <use xlink:href="#m5074910db3" x="57.6" y="205.729762" style="stroke: #000000; stroke-width: 0.8"/>
      </g>
     </g>
     <g id="text_10">
      <!-- 60 -->
      <g transform="translate(37.875 209.528981) scale(0.1 -0.1)">
       <defs>
        <path id="DejaVuSans-36" d="M 2113 2584 
Q 1688 2584 1439 2293 
Q 1191 2003 1191 1497 
Q 1191 994 1439 701 
Q 1688 409 2113 409 
Q 2538 409 2786 701 
Q 3034 994 3034 1497 
Q 3034 2003 2786 2293 
Q 2538 2584 2113 2584 
z
M 3366 4563 
L 3366 3988 
Q 3128 4100 2886 4159 
Q 2644 4219 2406 4219 
Q 1781 4219 1451 3797 
Q 1122 3375 1075 2522 
Q 1259 2794 1537 2939 
Q 1816 3084 2150 3084 
Q 2853 3084 3261 2657 
Q 3669 2231 3669 1497 
Q 3669 778 3244 343 
Q 2819 -91 2113 -91 
Q 1303 -91 875 529 
Q 447 1150 447 2328 
Q 447 3434 972 4092 
Q 1497 4750 2381 4750 
Q 2619 4750 2861 4703 
Q 3103 4656 3366 4563 
z
" transform="scale(0.015625)"/>
       </defs>
       <use xlink:href="#DejaVuSans-36"/>
       <use xlink:href="#DejaVuSans-30" x="63.623047"/>
      </g>
     </g>
    </g>
    <g id="ytick_4">
     <g id="line2d_10">
      <g>
       <use xlink:href="#m5074910db3" x="57.6" y="164.504684" style="stroke: #000000; stroke-width: 0.8"/>
      </g>
     </g>
     <g id="text_11">
      <!-- 80 -->
      <g transform="translate(37.875 168.303903) scale(0.1 -0.1)">
       <defs>
        <path id="DejaVuSans-38" d="M 2034 2216 
Q 1584 2216 1326 1975 
Q 1069 1734 1069 1313 
Q 1069 891 1326 650 
Q 1584 409 2034 409 
Q 2484 409 2743 651 
Q 3003 894 3003 1313 
Q 3003 1734 2745 1975 
Q 2488 2216 2034 2216 
z
M 1403 2484 
Q 997 2584 770 2862 
Q 544 3141 544 3541 
Q 544 4100 942 4425 
Q 1341 4750 2034 4750 
Q 2731 4750 3128 4425 
Q 3525 4100 3525 3541 
Q 3525 3141 3298 2862 
Q 3072 2584 2669 2484 
Q 3125 2378 3379 2068 
Q 3634 1759 3634 1313 
Q 3634 634 3220 271 
Q 2806 -91 2034 -91 
Q 1263 -91 848 271 
Q 434 634 434 1313 
Q 434 1759 690 2068 
Q 947 2378 1403 2484 
z
M 1172 3481 
Q 1172 3119 1398 2916 
Q 1625 2713 2034 2713 
Q 2441 2713 2670 2916 
Q 2900 3119 2900 3481 
Q 2900 3844 2670 4047 
Q 2441 4250 2034 4250 
Q 1625 4250 1398 4047 
Q 1172 3844 1172 3481 
z
" transform="scale(0.015625)"/>
       </defs>
       <use xlink:href="#DejaVuSans-38"/>
       <use xlink:href="#DejaVuSans-30" x="63.623047"/>
      </g>
     </g>
    </g>
    <g id="ytick_5">
     <g id="line2d_11">
      <g>
       <use xlink:href="#m5074910db3" x="57.6" y="123.279607" style="stroke: #000000; stroke-width: 0.8"/>
      </g>
     </g>
     <g id="text_12">
      <!-- 100 -->
      <g transform="translate(31.5125 127.078825) scale(0.1 -0.1)">
       <use xlink:href="#DejaVuSans-31"/>
       <use xlink:href="#DejaVuSans-30" x="63.623047"/>
       <use xlink:href="#DejaVuSans-30" x="127.246094"/>
      </g>
     </g>
    </g>
    <g id="ytick_6">
     <g id="line2d_12">
      <g>
       <use xlink:href="#m5074910db3" x="57.6" y="82.054529" style="stroke: #000000; stroke-width: 0.8"/>
      </g>
     </g>
     <g id="text_13">
      <!-- 120 -->
      <g transform="translate(31.5125 85.853748) scale(0.1 -0.1)">
       <use xlink:href="#DejaVuSans-31"/>
       <use xlink:href="#DejaVuSans-32" x="63.623047"/>
       <use xlink:href="#DejaVuSans-30" x="127.246094"/>
      </g>
     </g>
    </g>
    <g id="text_14">
     <!-- mean episode length -->
     <g transform="translate(25.432812 227.378) rotate(-90) scale(0.1 -0.1)">
      <defs>
       <path id="DejaVuSans-6d" d="M 3328 2828 
Q 3544 3216 3844 3400 
Q 4144 3584 4550 3584 
Q 5097 3584 5394 3201 
Q 5691 2819 5691 2113 
L 5691 0 
L 5113 0 
L 5113 2094 
Q 5113 2597 4934 2840 
Q 4756 3084 4391 3084 
Q 3944 3084 3684 2787 
Q 3425 2491 3425 1978 
L 3425 0 
L 2847 0 
L 2847 2094 
Q 2847 2600 2669 2842 
Q 2491 3084 2119 3084 
Q 1678 3084 1418 2786 
Q 1159 2488 1159 1978 
L 1159 0 
L 581 0 
L 581 3500 
L 1159 3500 
L 1159 2956 
Q 1356 3278 1631 3431 
Q 1906 3584 2284 3584 
Q 2666 3584 2933 3390 
Q 3200 3197 3328 2828 
z
" transform="scale(0.015625)"/>
       <path id="DejaVuSans-61" d="M 2194 1759 
Q 1497 1759 1228 1600 
Q 959 1441 959 1056 
Q 959 750 1161 570 
Q 1363 391 1709 391 
Q 2188 391 2477 730 
Q 2766 1069 2766 1631 
L 2766 1759 
L 2194 1759 
z
M 3341 1997 
L 3341 0 
L 2766 0 
L 2766 531 
Q 2569 213 2275 61 
Q 1981 -91 1556 -91 
Q 1019 -91 701 211 
Q 384 513 384 1019 
Q 384 1609 779 1909 
Q 1175 2209 1959 2209 
L 2766 2209 
L 2766 2266 
Q 2766 2663 2505 2880 
Q 2244 3097 1772 3097 
Q 1472 3097 1187 3025 
Q 903 2953 641 2809 
L 641 3341 
Q 956 3463 1253 3523 
Q 1550 3584 1831 3584 
Q 2591 3584 2966 3190 
Q 3341 2797 3341 1997 
z
" transform="scale(0.015625)"/>
       <path id="DejaVuSans-6e" d="M 3513 2113 
L 3513 0 
L 2938 0 
L 2938 2094 
Q 2938 2591 2744 2837 
Q 2550 3084 2163 3084 
Q 1697 3084 1428 2787 
Q 1159 2491 1159 1978 
L 1159 0 
L 581 0 
L 581 3500 
L 1159 3500 
L 1159 2956 
Q 1366 3272 1645 3428 
Q 1925 3584 2291 3584 
Q 2894 3584 3203 3211 
Q 3513 2838 3513 2113 
z
" transform="scale(0.015625)"/>
       <path id="DejaVuSans-20" transform="scale(0.015625)"/>
       <path id="DejaVuSans-6c" d="M 603 4863 
L 1178 4863 
L 1178 0 
L 603 0 
L 603 4863 
z
" transform="scale(0.015625)"/>
       <path id="DejaVuSans-67" d="M 2906 1791 
Q 2906 2416 2648 2759 
Q 2391 3103 1925 3103 
Q 1463 3103 1205 2759 
Q 947 2416 947 1791 
Q 947 1169 1205 825 
Q 1463 481 1925 481 
Q 2391 481 2648 825 
Q 2906 1169 2906 1791 
z
M 3481 434 
Q 3481 -459 3084 -895 
Q 2688 -1331 1869 -1331 
Q 1566 -1331 1297 -1286 
Q 1028 -1241 775 -1147 
L 775 -588 
Q 1028 -725 1275 -790 
Q 1522 -856 1778 -856 
Q 2344 -856 2625 -561 
Q 2906 -266 2906 331 
L 2906 616 
Q 2728 306 2450 153 
Q 2172 0 1784 0 
Q 1141 0 747 490 
Q 353 981 353 1791 
Q 353 2603 747 3093 
Q 1141 3584 1784 3584 
Q 2172 3584 2450 3431 
Q 2728 3278 2906 2969 
L 2906 3500 
L 3481 3500 
L 3481 434 
z
" transform="scale(0.015625)"/>
       <path id="DejaVuSans-74" d="M 1172 4494 
L 1172 3500 
L 2356 3500 
L 2356 3053 
L 1172 3053 
L 1172 1153 
Q 1172 725 1289 603 
Q 1406 481 1766 481 
L 2356 481 
L 2356 0 
L 1766 0 
Q 1100 0 847 248 
Q 594 497 594 1153 
L 594 3053 
L 172 3053 
L 172 3500 
L 594 3500 
L 594 4494 
L 1172 4494 
z
" transform="scale(0.015625)"/>
       <path id="DejaVuSans-68" d="M 3513 2113 
L 3513 0 
L 2938 0 
L 2938 2094 
Q 2938 2591 2744 2837 
Q 2550 3084 2163 3084 
Q 1697 3084 1428 2787 
Q 1159 2491 1159 1978 
L 1159 0 
L 581 0 
L 581 4863 
L 1159 4863 
L 1159 2956 
Q 1366 3272 1645 3428 
Q 1925 3584 2291 3584 
Q 2894 3584 3203 3211 
Q 3513 2838 3513 2113 
z
" transform="scale(0.015625)"/>
      </defs>
      <use xlink:href="#DejaVuSans-6d"/>
      <use xlink:href="#DejaVuSans-65" x="97.412109"/>
      <use xlink:href="#DejaVuSans-61" x="158.935547"/>
      <use xlink:href="#DejaVuSans-6e" x="220.214844"/>
      <use xlink:href="#DejaVuSans-20" x="283.59375"/>
      <use xlink:href="#DejaVuSans-65" x="315.380859"/>
      <use xlink:href="#DejaVuSans-70" x="376.904297"/>
      <use xlink:href="#DejaVuSans-69" x="440.380859"/>
      <use xlink:href="#DejaVuSans-73" x="468.164062"/>
      <use xlink:href="#DejaVuSans-6f" x="520.263672"/>
      <use xlink:href="#DejaVuSans-64" x="581.445312"/>
      <use xlink:href="#DejaVuSans-65" x="644.921875"/>
      <use xlink:href="#DejaVuSans-20" x="706.445312"/>
      <use xlink:href="#DejaVuSans-6c" x="738.232422"/>
      <use xlink:href="#DejaVuSans-65" x="766.015625"/>
      <use xlink:href="#DejaVuSans-6e" x="827.539062"/>
      <use xlink:href="#DejaVuSans-67" x="890.917969"/>
      <use xlink:href="#DejaVuSans-74" x="954.394531"/>
      <use xlink:href="#DejaVuSans-68" x="993.603516"/>
     </g>
    </g>
   </g>
   <g id="line2d_13">
    <path d="M 73.832727 295.488 
L 74.473072 289.210545 
L 75.113416 290.241172 
L 75.75376 289.989799 
L 76.394104 286.077439 
L 77.034449 286.96344 
L 77.674793 287.208184 
L 78.315137 285.500288 
L 78.955481 285.431579 
L 79.595826 285.211712 
L 80.23617 284.510886 
L 80.876514 285.541513 
L 81.516859 285.623963 
L 82.157203 285.356 
L 82.797547 287.376029 
L 83.437891 287.314191 
L 84.078236 286.613365 
L 84.71858 288.241756 
L 85.999268 287.973793 
L 87.279957 285.706413 
L 87.920301 285.1911 
L 88.560646 284.923137 
L 89.20099 285.623963 
L 89.841334 285.562126 
L 90.481678 286.40724 
L 91.122023 285.809476 
L 91.762367 286.036214 
L 93.043055 288.138693 
L 93.6834 288.344818 
L 94.323744 286.963778 
L 95.604432 286.943166 
L 96.244777 287.005003 
L 96.885121 287.396642 
L 97.525465 287.479092 
L 98.16581 287.685217 
L 98.806154 287.314191 
L 100.086842 288.921969 
L 100.727187 290.488522 
L 101.367531 290.818323 
L 102.007875 288.757069 
L 102.648219 287.70583 
L 103.288564 284.181085 
L 103.928908 284.902524 
L 104.569252 284.098635 
L 105.209597 284.119248 
L 105.849941 283.913122 
L 106.490285 282.532082 
L 107.130629 283.191684 
L 107.770974 282.552695 
L 108.411318 284.407823 
L 109.051662 285.459063 
L 109.692006 288.303593 
L 110.332351 286.118664 
L 110.972695 283.232909 
L 111.613039 277.729361 
L 112.253384 274.905443 
L 112.893728 269.937821 
L 113.534072 263.733447 
L 114.814761 254.478417 
L 115.455105 251.675112 
L 116.095449 249.428345 
L 116.735793 249.696308 
L 118.016482 254.973118 
L 118.656826 259.033788 
L 119.937515 269.340057 
L 121.218203 277.15221 
L 122.498892 281.37778 
L 123.139236 281.480843 
L 123.77958 281.398393 
L 125.060269 281.027367 
L 126.981302 278.347737 
L 127.621646 277.997324 
L 128.26199 276.410158 
L 128.902335 275.400144 
L 129.542679 275.503207 
L 130.823367 275.070343 
L 131.463712 275.606269 
L 132.104056 274.369517 
L 133.384744 274.122166 
L 134.025089 271.628049 
L 134.665433 265.155712 
L 135.305777 253.056152 
L 135.946122 244.337048 
L 136.586466 232.587901 
L 137.22681 225.270449 
L 137.867154 210.01717 
L 139.147843 191.239147 
L 139.788187 179.057137 
L 140.428531 171.162535 
L 141.068876 166.998802 
L 141.70922 165.267348 
L 142.349564 164.051209 
L 142.989909 161.763217 
L 143.630253 161.639542 
L 144.270597 163.082419 
L 144.910941 163.783246 
L 145.551286 162.814456 
L 147.472318 161.825054 
L 148.112663 161.804442 
L 148.753007 160.97994 
L 149.393351 162.443431 
L 150.033696 167.287377 
L 150.67404 167.246152 
L 151.314384 165.865112 
L 151.954728 165.968175 
L 153.235417 165.988787 
L 153.875761 165.679599 
L 154.516105 166.030012 
L 155.15645 165.246736 
L 155.796794 162.855681 
L 156.437138 157.640709 
L 157.077483 156.383344 
L 157.717827 157.393359 
L 158.358171 157.352133 
L 158.998515 158.568273 
L 159.63886 158.444598 
L 160.279204 159.557675 
L 160.919548 162.27853 
L 161.559892 162.917519 
L 162.200237 163.803858 
L 162.840581 161.247903 
L 164.121269 159.722575 
L 164.761614 159.372162 
L 166.042302 156.713145 
L 166.682647 154.301478 
L 167.322991 150.797346 
L 167.963335 150.405708 
L 168.603679 150.921021 
L 169.244024 151.024084 
L 170.524712 149.725494 
L 171.165056 147.787915 
L 171.805401 143.314994 
L 172.445745 139.996376 
L 173.086089 138.656561 
L 173.726434 131.978098 
L 174.366778 129.051118 
L 175.007122 123.403282 
L 175.647466 119.425062 
L 176.928155 110.108194 
L 177.568499 103.82137 
L 178.208843 99.7607 
L 178.849188 96.565756 
L 179.489532 89.681168 
L 180.129876 90.42322 
L 180.770221 85.455598 
L 181.410565 82.054529 
L 182.050909 80.240625 
L 182.691253 78.921423 
L 183.331598 77.107519 
L 183.971942 77.004457 
L 184.612286 78.550397 
L 185.25263 78.529785 
L 185.892975 81.477378 
L 186.533319 80.261238 
L 187.173663 82.281267 
L 187.814008 83.93027 
L 188.454352 83.621082 
L 189.094696 80.158175 
L 189.73504 82.095754 
L 190.375385 83.394344 
L 191.015729 82.817193 
L 191.656073 83.126381 
L 192.936762 82.817193 
L 193.577106 84.053945 
L 194.21745 83.744757 
L 195.498139 89.392593 
L 196.138483 87.640527 
L 196.778827 87.001538 
L 197.419172 86.094586 
L 198.059516 83.785982 
L 198.69986 83.889045 
L 199.980549 79.581024 
L 200.620893 85.208247 
L 201.261237 82.46678 
L 201.901581 82.528617 
L 202.541926 82.87903 
L 203.18227 82.837805 
L 204.462959 86.651125 
L 205.103303 85.043347 
L 205.743647 87.413789 
L 206.383991 86.053361 
L 207.024336 80.364301 
L 207.66468 81.16819 
L 208.305024 81.786566 
L 208.945368 82.817193 
L 210.226057 86.816025 
L 210.866401 88.011553 
L 211.506746 90.917921 
L 212.14709 90.732408 
L 212.787434 91.577522 
L 213.427778 91.845485 
L 214.068123 93.288363 
L 214.708467 93.226525 
L 215.989155 90.526282 
L 216.6295 90.010969 
L 217.269844 89.165855 
L 217.910188 88.877279 
L 218.550533 90.567507 
L 219.190877 91.330171 
L 219.831221 90.897308 
L 220.471565 90.959146 
L 221.11191 91.783647 
L 221.752254 95.061041 
L 222.392598 95.679417 
L 223.032942 95.019816 
L 223.673287 97.41087 
L 224.313631 99.162936 
L 224.953975 99.204161 
L 225.59432 96.957394 
L 226.234664 101.430315 
L 226.875008 103.532794 
L 227.515352 102.254817 
L 228.155697 100.111113 
L 228.796041 100.647039 
L 230.076729 98.359047 
L 230.717074 94.73124 
L 231.357418 93.205912 
L 231.997762 94.48389 
L 232.638107 89.557493 
L 233.278451 83.146993 
L 233.918795 87.248889 
L 234.559139 85.22886 
L 235.199484 82.817193 
L 235.839828 84.053945 
L 236.480172 81.642278 
L 237.120516 84.486808 
L 237.760861 84.033333 
L 238.401205 82.528617 
L 239.681893 87.187051 
L 240.322238 81.910241 
L 240.962582 82.384329 
L 241.602926 84.053945 
L 242.243271 82.693517 
L 242.883615 82.322492 
L 243.523959 79.745924 
L 244.164303 78.632847 
L 244.804648 79.003873 
L 245.444992 77.396095 
L 246.085336 77.890796 
L 246.72568 78.65346 
L 247.366025 79.704699 
L 248.006369 80.1994 
L 248.646713 81.374315 
L 249.287058 83.002706 
L 249.927402 83.497407 
L 250.567746 85.249472 
L 251.20809 83.724144 
L 251.848435 84.507421 
L 252.488779 82.404942 
L 253.129123 80.982677 
L 253.769467 80.467363 
L 254.409812 78.942035 
L 255.050156 77.890796 
L 255.6905 77.27242 
L 256.330845 75.582192 
L 256.971189 74.324827 
L 257.611533 75.293616 
L 258.251877 75.00504 
L 258.892222 76.13873 
L 259.532566 75.97383 
L 260.17291 75.293616 
L 260.813254 74.84014 
L 261.453599 74.118701 
L 262.093943 76.777719 
L 262.734287 80.178788 
L 263.374632 82.054529 
L 264.014976 84.424971 
L 264.65532 84.754771 
L 265.295664 82.63168 
L 265.936009 82.672905 
L 266.576353 85.455598 
L 267.216697 84.816609 
L 267.857041 85.47621 
L 268.497386 84.301296 
L 269.13773 80.343688 
L 271.058763 71.377234 
L 271.699107 73.685838 
L 272.339451 74.427889 
L 272.979796 73.520938 
L 273.62014 73.232362 
L 274.260484 71.377234 
L 274.900828 69.151079 
L 275.541173 69.439655 
L 276.181517 72.139898 
L 276.821861 71.954385 
L 277.462205 73.2942 
L 278.10255 73.768288 
L 278.742894 73.067462 
L 279.383238 71.068046 
L 280.023583 74.901978 
L 280.663927 73.2942 
L 281.304271 72.304798 
L 281.944615 72.32541 
L 282.58496 71.459684 
L 283.865648 73.335425 
L 284.505992 71.500909 
L 285.146337 70.367219 
L 285.786681 69.64578 
L 286.427025 68.676991 
L 287.707714 73.108687 
L 288.348058 73.335425 
L 288.988402 72.449086 
L 289.628747 71.830709 
L 290.269091 69.954968 
L 290.909435 69.56333 
L 291.549779 71.397846 
L 292.190124 71.686422 
L 292.830468 71.171108 
L 293.470812 69.996194 
L 294.111157 70.222931 
L 294.751501 71.954385 
L 295.391845 77.478545 
L 296.032189 79.993275 
L 296.672534 85.208247 
L 297.953222 88.526866 
L 298.593566 88.279516 
L 299.233911 86.321324 
L 299.874255 86.630512 
L 300.514599 83.724144 
L 301.795288 75.211166 
L 302.435632 70.69702 
L 303.075976 64.513258 
L 304.356665 61.318315 
L 304.997009 64.760609 
L 305.637353 66.63635 
L 306.277698 65.976748 
L 306.918042 67.337176 
L 307.558386 68.058615 
L 308.198731 68.079227 
L 308.839075 67.893715 
L 310.119763 71.02682 
L 310.760108 68.656378 
L 312.040796 64.719384 
L 312.68114 62.472617 
L 313.321485 63.276506 
L 314.602173 63.441406 
L 315.242517 64.946121 
L 315.882862 67.069213 
L 316.523206 67.831877 
L 317.16355 69.707618 
L 317.803895 69.192305 
L 318.444239 69.954968 
L 319.084583 71.851322 
L 319.724927 74.221764 
L 320.365272 75.747092 
L 321.005616 80.632264 
L 321.64596 84.383746 
L 322.286304 85.002122 
L 322.926649 85.043347 
L 323.566993 95.78248 
L 325.488026 105.429148 
L 326.12837 106.150587 
L 326.768714 107.531627 
L 327.409059 106.150587 
L 328.049403 105.552823 
L 328.689747 106.768963 
L 329.330091 108.768379 
L 329.970436 101.615828 
L 330.61078 99.039261 
L 331.251124 100.131725 
L 331.891469 99.451512 
L 333.172157 101.636441 
L 333.812501 101.677666 
L 334.452846 99.946213 
L 335.09319 99.101098 
L 335.733534 99.080486 
L 336.373878 97.039845 
L 337.014223 98.359047 
L 337.654567 96.503919 
L 338.294911 95.205329 
L 338.935256 92.13406 
L 339.5756 91.783647 
L 340.215944 90.361382 
L 340.856288 91.124046 
L 341.496633 91.082821 
L 342.136977 88.939117 
L 343.417665 87.166438 
L 344.05801 87.599302 
L 344.698354 87.413789 
L 345.338698 85.55866 
L 345.979042 82.281267 
L 346.619387 85.702948 
L 347.259731 84.960897 
L 347.900075 83.538632 
L 348.54042 84.01272 
L 349.180764 82.425554 
L 349.821108 83.889045 
L 350.461452 83.126381 
L 351.101797 83.600469 
L 351.742141 83.889045 
L 352.382485 84.754771 
L 353.022829 81.642278 
L 353.663174 81.662891 
L 354.303518 82.095754 
L 354.943862 81.951466 
L 355.584207 81.559828 
L 356.864895 78.426722 
L 357.505239 76.262405 
L 358.145584 77.334257 
L 358.785928 76.468531 
L 359.426272 75.850155 
L 360.066616 75.664642 
L 360.706961 74.634015 
L 361.347305 73.088074 
L 361.987649 73.4591 
L 362.627994 72.263573 
L 363.268338 72.613986 
L 363.908682 73.768288 
L 364.549026 74.530952 
L 365.189371 73.232362 
L 367.110403 66.698187 
L 367.750748 66.80125 
L 368.391092 67.563914 
L 369.031436 68.038002 
L 369.671781 67.770039 
L 370.312125 68.388415 
L 370.952469 66.615737 
L 371.592813 66.96615 
L 372.233158 68.367803 
L 372.873502 68.738829 
L 373.513846 71.624584 
L 374.15419 72.304798 
L 374.794535 72.07806 
L 375.434879 74.283602 
L 376.715568 74.75769 
L 377.355912 75.644029 
L 377.996256 76.13873 
L 378.6366 75.520354 
L 379.276945 76.654044 
L 379.917289 75.520354 
L 380.557633 79.519187 
L 381.197977 91.185884 
L 382.478666 88.568091 
L 383.11901 86.960313 
L 384.399699 84.816609 
L 385.040043 84.981509 
L 385.680387 84.651709 
L 386.320732 84.692934 
L 386.961076 80.343688 
L 387.60142 69.810681 
L 388.241764 67.831877 
L 388.882109 67.151663 
L 389.522453 67.007375 
L 390.162797 64.822446 
L 390.803141 64.657546 
L 391.443486 65.028572 
L 393.364519 57.690508 
L 394.004863 54.165764 
L 394.645207 53.568 
L 395.285551 54.742915 
L 395.925896 56.927844 
L 396.56624 61.35954 
L 397.206584 61.112189 
L 397.846928 59.050935 
L 398.487273 60.39075 
L 398.487273 60.39075 
" clip-path="url(#pc6e39672aa)" style="fill: none; stroke: #1f77b4; stroke-width: 1.5; stroke-linecap: square"/>
   </g>
   <g id="patch_3">
    <path d="M 57.6 307.584 
L 57.6 41.472 
" style="fill: none; stroke: #000000; stroke-width: 0.8; stroke-linejoin: miter; stroke-linecap: square"/>
   </g>
   <g id="patch_4">
    <path d="M 414.72 307.584 
L 414.72 41.472 
" style="fill: none; stroke: #000000; stroke-width: 0.8; stroke-linejoin: miter; stroke-linecap: square"/>
   </g>
   <g id="patch_5">
    <path d="M 57.6 307.584 
L 414.72 307.584 
" style="fill: none; stroke: #000000; stroke-width: 0.8; stroke-linejoin: miter; stroke-linecap: square"/>
   </g>
   <g id="patch_6">
    <path d="M 57.6 41.472 
L 414.72 41.472 
" style="fill: none; stroke: #000000; stroke-width: 0.8; stroke-linejoin: miter; stroke-linecap: square"/>
   </g>
   <g id="text_15">
    <!-- episodes length -->
    <g transform="translate(188.536875 35.472) scale(0.12 -0.12)">
     <use xlink:href="#DejaVuSans-65"/>
     <use xlink:href="#DejaVuSans-70" x="61.523438"/>
     <use xlink:href="#DejaVuSans-69" x="125"/>
     <use xlink:href="#DejaVuSans-73" x="152.783203"/>
     <use xlink:href="#DejaVuSans-6f" x="204.882812"/>
     <use xlink:href="#DejaVuSans-64" x="266.064453"/>
     <use xlink:href="#DejaVuSans-65" x="329.541016"/>
     <use xlink:href="#DejaVuSans-73" x="391.064453"/>
     <use xlink:href="#DejaVuSans-20" x="443.164062"/>
     <use xlink:href="#DejaVuSans-6c" x="474.951172"/>
     <use xlink:href="#DejaVuSans-65" x="502.734375"/>
     <use xlink:href="#DejaVuSans-6e" x="564.257812"/>
     <use xlink:href="#DejaVuSans-67" x="627.636719"/>
     <use xlink:href="#DejaVuSans-74" x="691.113281"/>
     <use xlink:href="#DejaVuSans-68" x="730.322266"/>
    </g>
   </g>
  </g>
 </g>
 <defs>
  <clipPath id="pc6e39672aa">
   <rect x="57.6" y="41.472" width="357.12" height="266.112"/>
  </clipPath>
 </defs>
</svg>
