<?xml version="1.0" encoding="utf-8" standalone="no"?>
<!DOCTYPE svg PUBLIC "-//W3C//DTD SVG 1.1//EN"
  "http://www.w3.org/Graphics/SVG/1.1/DTD/svg11.dtd">
<svg xmlns:xlink="http://www.w3.org/1999/xlink" width="460.8pt" height="345.6pt" viewBox="0 0 460.8 345.6" xmlns="http://www.w3.org/2000/svg" version="1.1">
 <metadata>
  <rdf:RDF xmlns:dc="http://purl.org/dc/elements/1.1/" xmlns:cc="http://creativecommons.org/ns#" xmlns:rdf="http://www.w3.org/1999/02/22-rdf-syntax-ns#">
   <cc:Work>
    <dc:type rdf:resource="http://purl.org/dc/dcmitype/StillImage"/>
    <dc:date>2023-08-19T14:14:55.090509</dc:date>
    <dc:format>image/svg+xml</dc:format>
    <dc:creator>
     <cc:Agent>
      <dc:title>Matplotlib v3.7.1, https://matplotlib.org/</dc:title>
     </cc:Agent>
    </dc:creator>
   </cc:Work>
  </rdf:RDF>
 </metadata>
 <defs>
  <style type="text/css">*{stroke-linejoin: round; stroke-linecap: butt}</style>
 </defs>
 <g id="figure_1">
  <g id="patch_1">
   <path d="M 0 345.6 
L 460.8 345.6 
L 460.8 0 
L 0 0 
z
" style="fill: #ffffff"/>
  </g>
  <g id="axes_1">
   <g id="patch_2">
    <path d="M 57.6 307.584 
L 414.72 307.584 
L 414.72 41.472 
L 57.6 41.472 
z
" style="fill: #ffffff"/>
   </g>
   <g id="matplotlib.axis_1">
    <g id="xtick_1">
     <g id="line2d_1">
      <defs>
       <path id="me409510c2e" d="M 0 0 
L 0 3.5 
" style="stroke: #000000; stroke-width: 0.8"/>
      </defs>
      <g>
       <use xlink:href="#me409510c2e" x="67.150574" y="307.584" style="stroke: #000000; stroke-width: 0.8"/>
      </g>
     </g>
     <g id="text_1">
      <!-- 0 -->
      <g transform="translate(63.969324 322.182437) scale(0.1 -0.1)">
       <defs>
        <path id="DejaVuSans-30" d="M 2034 4250 
Q 1547 4250 1301 3770 
Q 1056 3291 1056 2328 
Q 1056 1369 1301 889 
Q 1547 409 2034 409 
Q 2525 409 2770 889 
Q 3016 1369 3016 2328 
Q 3016 3291 2770 3770 
Q 2525 4250 2034 4250 
z
M 2034 4750 
Q 2819 4750 3233 4129 
Q 3647 3509 3647 2328 
Q 3647 1150 3233 529 
Q 2819 -91 2034 -91 
Q 1250 -91 836 529 
Q 422 1150 422 2328 
Q 422 3509 836 4129 
Q 1250 4750 2034 4750 
z
" transform="scale(0.015625)"/>
       </defs>
       <use xlink:href="#DejaVuSans-30"/>
      </g>
     </g>
    </g>
    <g id="xtick_2">
     <g id="line2d_2">
      <g>
       <use xlink:href="#me409510c2e" x="133.441778" y="307.584" style="stroke: #000000; stroke-width: 0.8"/>
      </g>
     </g>
     <g id="text_2">
      <!-- 100000 -->
      <g transform="translate(114.354278 322.182437) scale(0.1 -0.1)">
       <defs>
        <path id="DejaVuSans-31" d="M 794 531 
L 1825 531 
L 1825 4091 
L 703 3866 
L 703 4441 
L 1819 4666 
L 2450 4666 
L 2450 531 
L 3481 531 
L 3481 0 
L 794 0 
L 794 531 
z
" transform="scale(0.015625)"/>
       </defs>
       <use xlink:href="#DejaVuSans-31"/>
       <use xlink:href="#DejaVuSans-30" x="63.623047"/>
       <use xlink:href="#DejaVuSans-30" x="127.246094"/>
       <use xlink:href="#DejaVuSans-30" x="190.869141"/>
       <use xlink:href="#DejaVuSans-30" x="254.492188"/>
       <use xlink:href="#DejaVuSans-30" x="318.115234"/>
      </g>
     </g>
    </g>
    <g id="xtick_3">
     <g id="line2d_3">
      <g>
       <use xlink:href="#me409510c2e" x="199.732983" y="307.584" style="stroke: #000000; stroke-width: 0.8"/>
      </g>
     </g>
     <g id="text_3">
      <!-- 200000 -->
      <g transform="translate(180.645483 322.182437) scale(0.1 -0.1)">
       <defs>
        <path id="DejaVuSans-32" d="M 1228 531 
L 3431 531 
L 3431 0 
L 469 0 
L 469 531 
Q 828 903 1448 1529 
Q 2069 2156 2228 2338 
Q 2531 2678 2651 2914 
Q 2772 3150 2772 3378 
Q 2772 3750 2511 3984 
Q 2250 4219 1831 4219 
Q 1534 4219 1204 4116 
Q 875 4013 500 3803 
L 500 4441 
Q 881 4594 1212 4672 
Q 1544 4750 1819 4750 
Q 2544 4750 2975 4387 
Q 3406 4025 3406 3419 
Q 3406 3131 3298 2873 
Q 3191 2616 2906 2266 
Q 2828 2175 2409 1742 
Q 1991 1309 1228 531 
z
" transform="scale(0.015625)"/>
       </defs>
       <use xlink:href="#DejaVuSans-32"/>
       <use xlink:href="#DejaVuSans-30" x="63.623047"/>
       <use xlink:href="#DejaVuSans-30" x="127.246094"/>
       <use xlink:href="#DejaVuSans-30" x="190.869141"/>
       <use xlink:href="#DejaVuSans-30" x="254.492188"/>
       <use xlink:href="#DejaVuSans-30" x="318.115234"/>
      </g>
     </g>
    </g>
    <g id="xtick_4">
     <g id="line2d_4">
      <g>
       <use xlink:href="#me409510c2e" x="266.024188" y="307.584" style="stroke: #000000; stroke-width: 0.8"/>
      </g>
     </g>
     <g id="text_4">
      <!-- 300000 -->
      <g transform="translate(246.936688 322.182437) scale(0.1 -0.1)">
       <defs>
        <path id="DejaVuSans-33" d="M 2597 2516 
Q 3050 2419 3304 2112 
Q 3559 1806 3559 1356 
Q 3559 666 3084 287 
Q 2609 -91 1734 -91 
Q 1441 -91 1130 -33 
Q 819 25 488 141 
L 488 750 
Q 750 597 1062 519 
Q 1375 441 1716 441 
Q 2309 441 2620 675 
Q 2931 909 2931 1356 
Q 2931 1769 2642 2001 
Q 2353 2234 1838 2234 
L 1294 2234 
L 1294 2753 
L 1863 2753 
Q 2328 2753 2575 2939 
Q 2822 3125 2822 3475 
Q 2822 3834 2567 4026 
Q 2313 4219 1838 4219 
Q 1578 4219 1281 4162 
Q 984 4106 628 3988 
L 628 4550 
Q 988 4650 1302 4700 
Q 1616 4750 1894 4750 
Q 2613 4750 3031 4423 
Q 3450 4097 3450 3541 
Q 3450 3153 3228 2886 
Q 3006 2619 2597 2516 
z
" transform="scale(0.015625)"/>
       </defs>
       <use xlink:href="#DejaVuSans-33"/>
       <use xlink:href="#DejaVuSans-30" x="63.623047"/>
       <use xlink:href="#DejaVuSans-30" x="127.246094"/>
       <use xlink:href="#DejaVuSans-30" x="190.869141"/>
       <use xlink:href="#DejaVuSans-30" x="254.492188"/>
       <use xlink:href="#DejaVuSans-30" x="318.115234"/>
      </g>
     </g>
    </g>
    <g id="xtick_5">
     <g id="line2d_5">
      <g>
       <use xlink:href="#me409510c2e" x="332.315392" y="307.584" style="stroke: #000000; stroke-width: 0.8"/>
      </g>
     </g>
     <g id="text_5">
      <!-- 400000 -->
      <g transform="translate(313.227892 322.182437) scale(0.1 -0.1)">
       <defs>
        <path id="DejaVuSans-34" d="M 2419 4116 
L 825 1625 
L 2419 1625 
L 2419 4116 
z
M 2253 4666 
L 3047 4666 
L 3047 1625 
L 3713 1625 
L 3713 1100 
L 3047 1100 
L 3047 0 
L 2419 0 
L 2419 1100 
L 313 1100 
L 313 1709 
L 2253 4666 
z
" transform="scale(0.015625)"/>
       </defs>
       <use xlink:href="#DejaVuSans-34"/>
       <use xlink:href="#DejaVuSans-30" x="63.623047"/>
       <use xlink:href="#DejaVuSans-30" x="127.246094"/>
       <use xlink:href="#DejaVuSans-30" x="190.869141"/>
       <use xlink:href="#DejaVuSans-30" x="254.492188"/>
       <use xlink:href="#DejaVuSans-30" x="318.115234"/>
      </g>
     </g>
    </g>
    <g id="xtick_6">
     <g id="line2d_6">
      <g>
       <use xlink:href="#me409510c2e" x="398.606597" y="307.584" style="stroke: #000000; stroke-width: 0.8"/>
      </g>
     </g>
     <g id="text_6">
      <!-- 500000 -->
      <g transform="translate(379.519097 322.182437) scale(0.1 -0.1)">
       <defs>
        <path id="DejaVuSans-35" d="M 691 4666 
L 3169 4666 
L 3169 4134 
L 1269 4134 
L 1269 2991 
Q 1406 3038 1543 3061 
Q 1681 3084 1819 3084 
Q 2600 3084 3056 2656 
Q 3513 2228 3513 1497 
Q 3513 744 3044 326 
Q 2575 -91 1722 -91 
Q 1428 -91 1123 -41 
Q 819 9 494 109 
L 494 744 
Q 775 591 1075 516 
Q 1375 441 1709 441 
Q 2250 441 2565 725 
Q 2881 1009 2881 1497 
Q 2881 1984 2565 2268 
Q 2250 2553 1709 2553 
Q 1456 2553 1204 2497 
Q 953 2441 691 2322 
L 691 4666 
z
" transform="scale(0.015625)"/>
       </defs>
       <use xlink:href="#DejaVuSans-35"/>
       <use xlink:href="#DejaVuSans-30" x="63.623047"/>
       <use xlink:href="#DejaVuSans-30" x="127.246094"/>
       <use xlink:href="#DejaVuSans-30" x="190.869141"/>
       <use xlink:href="#DejaVuSans-30" x="254.492188"/>
       <use xlink:href="#DejaVuSans-30" x="318.115234"/>
      </g>
     </g>
    </g>
    <g id="text_7">
     <!-- timesteps -->
     <g transform="translate(211.443594 335.860562) scale(0.1 -0.1)">
      <defs>
       <path id="DejaVuSans-74" d="M 1172 4494 
L 1172 3500 
L 2356 3500 
L 2356 3053 
L 1172 3053 
L 1172 1153 
Q 1172 725 1289 603 
Q 1406 481 1766 481 
L 2356 481 
L 2356 0 
L 1766 0 
Q 1100 0 847 248 
Q 594 497 594 1153 
L 594 3053 
L 172 3053 
L 172 3500 
L 594 3500 
L 594 4494 
L 1172 4494 
z
" transform="scale(0.015625)"/>
       <path id="DejaVuSans-69" d="M 603 3500 
L 1178 3500 
L 1178 0 
L 603 0 
L 603 3500 
z
M 603 4863 
L 1178 4863 
L 1178 4134 
L 603 4134 
L 603 4863 
z
" transform="scale(0.015625)"/>
       <path id="DejaVuSans-6d" d="M 3328 2828 
Q 3544 3216 3844 3400 
Q 4144 3584 4550 3584 
Q 5097 3584 5394 3201 
Q 5691 2819 5691 2113 
L 5691 0 
L 5113 0 
L 5113 2094 
Q 5113 2597 4934 2840 
Q 4756 3084 4391 3084 
Q 3944 3084 3684 2787 
Q 3425 2491 3425 1978 
L 3425 0 
L 2847 0 
L 2847 2094 
Q 2847 2600 2669 2842 
Q 2491 3084 2119 3084 
Q 1678 3084 1418 2786 
Q 1159 2488 1159 1978 
L 1159 0 
L 581 0 
L 581 3500 
L 1159 3500 
L 1159 2956 
Q 1356 3278 1631 3431 
Q 1906 3584 2284 3584 
Q 2666 3584 2933 3390 
Q 3200 3197 3328 2828 
z
" transform="scale(0.015625)"/>
       <path id="DejaVuSans-65" d="M 3597 1894 
L 3597 1613 
L 953 1613 
Q 991 1019 1311 708 
Q 1631 397 2203 397 
Q 2534 397 2845 478 
Q 3156 559 3463 722 
L 3463 178 
Q 3153 47 2828 -22 
Q 2503 -91 2169 -91 
Q 1331 -91 842 396 
Q 353 884 353 1716 
Q 353 2575 817 3079 
Q 1281 3584 2069 3584 
Q 2775 3584 3186 3129 
Q 3597 2675 3597 1894 
z
M 3022 2063 
Q 3016 2534 2758 2815 
Q 2500 3097 2075 3097 
Q 1594 3097 1305 2825 
Q 1016 2553 972 2059 
L 3022 2063 
z
" transform="scale(0.015625)"/>
       <path id="DejaVuSans-73" d="M 2834 3397 
L 2834 2853 
Q 2591 2978 2328 3040 
Q 2066 3103 1784 3103 
Q 1356 3103 1142 2972 
Q 928 2841 928 2578 
Q 928 2378 1081 2264 
Q 1234 2150 1697 2047 
L 1894 2003 
Q 2506 1872 2764 1633 
Q 3022 1394 3022 966 
Q 3022 478 2636 193 
Q 2250 -91 1575 -91 
Q 1294 -91 989 -36 
Q 684 19 347 128 
L 347 722 
Q 666 556 975 473 
Q 1284 391 1588 391 
Q 1994 391 2212 530 
Q 2431 669 2431 922 
Q 2431 1156 2273 1281 
Q 2116 1406 1581 1522 
L 1381 1569 
Q 847 1681 609 1914 
Q 372 2147 372 2553 
Q 372 3047 722 3315 
Q 1072 3584 1716 3584 
Q 2034 3584 2315 3537 
Q 2597 3491 2834 3397 
z
" transform="scale(0.015625)"/>
       <path id="DejaVuSans-70" d="M 1159 525 
L 1159 -1331 
L 581 -1331 
L 581 3500 
L 1159 3500 
L 1159 2969 
Q 1341 3281 1617 3432 
Q 1894 3584 2278 3584 
Q 2916 3584 3314 3078 
Q 3713 2572 3713 1747 
Q 3713 922 3314 415 
Q 2916 -91 2278 -91 
Q 1894 -91 1617 61 
Q 1341 213 1159 525 
z
M 3116 1747 
Q 3116 2381 2855 2742 
Q 2594 3103 2138 3103 
Q 1681 3103 1420 2742 
Q 1159 2381 1159 1747 
Q 1159 1113 1420 752 
Q 1681 391 2138 391 
Q 2594 391 2855 752 
Q 3116 1113 3116 1747 
z
" transform="scale(0.015625)"/>
      </defs>
      <use xlink:href="#DejaVuSans-74"/>
      <use xlink:href="#DejaVuSans-69" x="39.208984"/>
      <use xlink:href="#DejaVuSans-6d" x="66.992188"/>
      <use xlink:href="#DejaVuSans-65" x="164.404297"/>
      <use xlink:href="#DejaVuSans-73" x="225.927734"/>
      <use xlink:href="#DejaVuSans-74" x="278.027344"/>
      <use xlink:href="#DejaVuSans-65" x="317.236328"/>
      <use xlink:href="#DejaVuSans-70" x="378.759766"/>
      <use xlink:href="#DejaVuSans-73" x="442.236328"/>
     </g>
    </g>
   </g>
   <g id="matplotlib.axis_2">
    <g id="ytick_1">
     <g id="line2d_7">
      <defs>
       <path id="mf091f94e19" d="M 0 0 
L -3.5 0 
" style="stroke: #000000; stroke-width: 0.8"/>
      </defs>
      <g>
       <use xlink:href="#mf091f94e19" x="57.6" y="306.402214" style="stroke: #000000; stroke-width: 0.8"/>
      </g>
     </g>
     <g id="text_8">
      <!-- −150 -->
      <g transform="translate(23.132812 310.201433) scale(0.1 -0.1)">
       <defs>
        <path id="DejaVuSans-2212" d="M 678 2272 
L 4684 2272 
L 4684 1741 
L 678 1741 
L 678 2272 
z
" transform="scale(0.015625)"/>
       </defs>
       <use xlink:href="#DejaVuSans-2212"/>
       <use xlink:href="#DejaVuSans-31" x="83.789062"/>
       <use xlink:href="#DejaVuSans-35" x="147.412109"/>
       <use xlink:href="#DejaVuSans-30" x="211.035156"/>
      </g>
     </g>
    </g>
    <g id="ytick_2">
     <g id="line2d_8">
      <g>
       <use xlink:href="#mf091f94e19" x="57.6" y="258.963713" style="stroke: #000000; stroke-width: 0.8"/>
      </g>
     </g>
     <g id="text_9">
      <!-- −100 -->
      <g transform="translate(23.132812 262.762932) scale(0.1 -0.1)">
       <use xlink:href="#DejaVuSans-2212"/>
       <use xlink:href="#DejaVuSans-31" x="83.789062"/>
       <use xlink:href="#DejaVuSans-30" x="147.412109"/>
       <use xlink:href="#DejaVuSans-30" x="211.035156"/>
      </g>
     </g>
    </g>
    <g id="ytick_3">
     <g id="line2d_9">
      <g>
       <use xlink:href="#mf091f94e19" x="57.6" y="211.525213" style="stroke: #000000; stroke-width: 0.8"/>
      </g>
     </g>
     <g id="text_10">
      <!-- −50 -->
      <g transform="translate(29.495313 215.324432) scale(0.1 -0.1)">
       <use xlink:href="#DejaVuSans-2212"/>
       <use xlink:href="#DejaVuSans-35" x="83.789062"/>
       <use xlink:href="#DejaVuSans-30" x="147.412109"/>
      </g>
     </g>
    </g>
    <g id="ytick_4">
     <g id="line2d_10">
      <g>
       <use xlink:href="#mf091f94e19" x="57.6" y="164.086713" style="stroke: #000000; stroke-width: 0.8"/>
      </g>
     </g>
     <g id="text_11">
      <!-- 0 -->
      <g transform="translate(44.2375 167.885931) scale(0.1 -0.1)">
       <use xlink:href="#DejaVuSans-30"/>
      </g>
     </g>
    </g>
    <g id="ytick_5">
     <g id="line2d_11">
      <g>
       <use xlink:href="#mf091f94e19" x="57.6" y="116.648212" style="stroke: #000000; stroke-width: 0.8"/>
      </g>
     </g>
     <g id="text_12">
      <!-- 50 -->
      <g transform="translate(37.875 120.447431) scale(0.1 -0.1)">
       <use xlink:href="#DejaVuSans-35"/>
       <use xlink:href="#DejaVuSans-30" x="63.623047"/>
      </g>
     </g>
    </g>
    <g id="ytick_6">
     <g id="line2d_12">
      <g>
       <use xlink:href="#mf091f94e19" x="57.6" y="69.209712" style="stroke: #000000; stroke-width: 0.8"/>
      </g>
     </g>
     <g id="text_13">
      <!-- 100 -->
      <g transform="translate(31.5125 73.008931) scale(0.1 -0.1)">
       <use xlink:href="#DejaVuSans-31"/>
       <use xlink:href="#DejaVuSans-30" x="63.623047"/>
       <use xlink:href="#DejaVuSans-30" x="127.246094"/>
      </g>
     </g>
    </g>
    <g id="text_14">
     <!-- SAC losses -->
     <g transform="translate(17.053125 201.548313) rotate(-90) scale(0.1 -0.1)">
      <defs>
       <path id="DejaVuSans-53" d="M 3425 4513 
L 3425 3897 
Q 3066 4069 2747 4153 
Q 2428 4238 2131 4238 
Q 1616 4238 1336 4038 
Q 1056 3838 1056 3469 
Q 1056 3159 1242 3001 
Q 1428 2844 1947 2747 
L 2328 2669 
Q 3034 2534 3370 2195 
Q 3706 1856 3706 1288 
Q 3706 609 3251 259 
Q 2797 -91 1919 -91 
Q 1588 -91 1214 -16 
Q 841 59 441 206 
L 441 856 
Q 825 641 1194 531 
Q 1563 422 1919 422 
Q 2459 422 2753 634 
Q 3047 847 3047 1241 
Q 3047 1584 2836 1778 
Q 2625 1972 2144 2069 
L 1759 2144 
Q 1053 2284 737 2584 
Q 422 2884 422 3419 
Q 422 4038 858 4394 
Q 1294 4750 2059 4750 
Q 2388 4750 2728 4690 
Q 3069 4631 3425 4513 
z
" transform="scale(0.015625)"/>
       <path id="DejaVuSans-41" d="M 2188 4044 
L 1331 1722 
L 3047 1722 
L 2188 4044 
z
M 1831 4666 
L 2547 4666 
L 4325 0 
L 3669 0 
L 3244 1197 
L 1141 1197 
L 716 0 
L 50 0 
L 1831 4666 
z
" transform="scale(0.015625)"/>
       <path id="DejaVuSans-43" d="M 4122 4306 
L 4122 3641 
Q 3803 3938 3442 4084 
Q 3081 4231 2675 4231 
Q 1875 4231 1450 3742 
Q 1025 3253 1025 2328 
Q 1025 1406 1450 917 
Q 1875 428 2675 428 
Q 3081 428 3442 575 
Q 3803 722 4122 1019 
L 4122 359 
Q 3791 134 3420 21 
Q 3050 -91 2638 -91 
Q 1578 -91 968 557 
Q 359 1206 359 2328 
Q 359 3453 968 4101 
Q 1578 4750 2638 4750 
Q 3056 4750 3426 4639 
Q 3797 4528 4122 4306 
z
" transform="scale(0.015625)"/>
       <path id="DejaVuSans-20" transform="scale(0.015625)"/>
       <path id="DejaVuSans-6c" d="M 603 4863 
L 1178 4863 
L 1178 0 
L 603 0 
L 603 4863 
z
" transform="scale(0.015625)"/>
       <path id="DejaVuSans-6f" d="M 1959 3097 
Q 1497 3097 1228 2736 
Q 959 2375 959 1747 
Q 959 1119 1226 758 
Q 1494 397 1959 397 
Q 2419 397 2687 759 
Q 2956 1122 2956 1747 
Q 2956 2369 2687 2733 
Q 2419 3097 1959 3097 
z
M 1959 3584 
Q 2709 3584 3137 3096 
Q 3566 2609 3566 1747 
Q 3566 888 3137 398 
Q 2709 -91 1959 -91 
Q 1206 -91 779 398 
Q 353 888 353 1747 
Q 353 2609 779 3096 
Q 1206 3584 1959 3584 
z
" transform="scale(0.015625)"/>
      </defs>
      <use xlink:href="#DejaVuSans-53"/>
      <use xlink:href="#DejaVuSans-41" x="65.351562"/>
      <use xlink:href="#DejaVuSans-43" x="132.009766"/>
      <use xlink:href="#DejaVuSans-20" x="201.833984"/>
      <use xlink:href="#DejaVuSans-6c" x="233.621094"/>
      <use xlink:href="#DejaVuSans-6f" x="261.404297"/>
      <use xlink:href="#DejaVuSans-73" x="322.585938"/>
      <use xlink:href="#DejaVuSans-73" x="374.685547"/>
      <use xlink:href="#DejaVuSans-65" x="426.785156"/>
      <use xlink:href="#DejaVuSans-73" x="488.308594"/>
     </g>
    </g>
   </g>
   <g id="line2d_13">
    <path d="M 73.832727 165.689361 
L 73.938793 165.935271 
L 74.097892 166.677815 
L 74.164183 167.911689 
L 74.376315 167.071934 
L 74.469123 167.134662 
L 74.734288 166.728344 
L 75.012711 166.521552 
L 75.224843 166.296674 
L 76.232469 166.026428 
L 76.616958 166.07106 
L 76.908639 166.271948 
L 77.107513 166.152181 
L 77.770425 166.583868 
L 77.903007 166.598552 
L 78.062106 166.756077 
L 78.207947 166.598919 
L 78.499628 167.006935 
L 78.791309 167.022078 
L 79.149282 167.22744 
L 79.507254 167.200404 
L 79.560287 167.516014 
L 79.91826 167.45142 
L 80.249716 167.630737 
L 80.59443 167.847383 
L 81.018694 168.212904 
L 81.177793 168.197071 
L 81.456216 168.489605 
L 81.893738 168.638961 
L 82.02632 168.598203 
L 82.278227 168.935086 
L 82.636199 168.70932 
L 83.31237 169.485311 
L 83.551018 169.564193 
L 84.359771 170.324049 
L 84.412804 170.225306 
L 85.539754 170.953802 
L 86.520864 170.875057 
L 86.613672 171.288145 
L 87.60804 171.840111 
L 87.687589 172.162914 
L 89.835424 173.48658 
L 90.803276 173.742088 
L 90.84305 173.979281 
L 91.810902 174.635833 
L 91.956743 174.277371 
L 93.070435 175.415292 
L 94.01177 175.058332 
L 94.197385 176.030824 
L 95.151979 176.170942 
L 96.040281 177.45496 
L 96.252413 177.212049 
L 97.153973 177.569617 
L 97.32633 177.926459 
L 98.241149 178.203939 
L 98.413506 178.503061 
L 99.341583 178.699915 
L 99.500682 179.571106 
L 100.548083 179.702047 
L 100.614374 179.99141 
L 101.661775 181.071114 
L 101.714808 180.729059 
L 102.695918 181.489277 
L 102.841758 181.446637 
L 103.743319 181.890638 
L 103.995225 181.741141 
L 104.525555 182.317082 
L 105.148692 182.25478 
L 105.572956 183.241012 
L 106.235868 183.624486 
L 106.859005 185.018077 
L 107.468884 184.667409 
L 108.012472 184.210388 
L 108.436736 185.023052 
L 109.126165 185.194619 
L 109.775818 186.341814 
L 110.306148 186.140168 
L 111.008835 186.636606 
L 111.923653 187.820362 
L 112.692631 187.425465 
L 113.063862 186.802368 
L 113.83284 187.701797 
L 114.416203 188.649517 
L 115.185181 188.044002 
L 115.410571 189.358655 
L 116.723137 189.698262 
L 116.961785 190.406847 
L 117.98267 190.992524 
L 118.512999 190.435688 
L 119.520625 192.330232 
L 120.196796 191.970105 
L 121.814301 192.535976 
L 122.596537 193.551395 
L 123.272708 193.763962 
L 124.399658 194.744292 
L 124.943246 195.539931 
L 126.056938 195.158192 
L 126.534235 196.119782 
L 127.647927 197.494974 
L 128.164999 197.398224 
L 129.742729 197.485484 
L 130.843163 198.902964 
L 131.187878 200.270712 
L 132.420894 200.97546 
L 132.739092 199.981145 
L 133.998625 200.893639 
L 134.356597 201.930267 
L 135.868037 202.709344 
L 137.27341 202.599173 
L 137.419251 203.695986 
L 138.745075 204.274533 
L 139.050014 202.923525 
L 140.322805 204.133693 
L 140.773586 205.991859 
L 141.741437 205.003291 
L 142.497157 206.351263 
L 143.213102 206.406385 
L 143.98208 205.316261 
L 144.857124 208.366513 
L 145.612844 207.905374 
L 146.593953 206.239812 
L 147.349673 209.573797 
L 148.158426 207.850676 
L 149.046728 210.591535 
L 149.643349 210.304896 
L 150.452102 210.6721 
L 151.181305 210.601745 
L 152.096123 211.345965 
L 152.65297 209.455251 
L 153.634079 213.084112 
L 154.257217 212.328713 
L 155.238327 210.636559 
L 155.901239 212.358615 
L 156.855832 213.107127 
L 157.62481 214.787591 
L 158.446821 215.865768 
L 159.162766 216.356917 
L 160.064326 214.664156 
L 160.594656 215.815152 
L 161.509474 215.632701 
L 161.986771 216.800231 
L 163.073947 217.057123 
L 163.471694 218.639001 
L 164.678194 217.392014 
L 164.983134 218.61013 
L 166.242666 219.910802 
L 166.560864 219.331748 
L 167.87343 220.827031 
L 168.09882 218.864395 
L 169.345095 222.715628 
L 169.517452 221.478496 
L 170.883051 221.803459 
L 171.028891 222.813866 
L 172.301683 222.265354 
L 172.566847 223.691094 
L 173.879413 223.286072 
L 174.038512 222.564675 
L 175.324562 222.201329 
L 175.443886 223.652715 
L 176.809485 224.72964 
L 176.889034 225.483016 
L 178.188342 225.585427 
L 178.307666 224.392182 
L 179.805847 224.829245 
L 179.911913 225.191064 
L 181.091896 227.259368 
L 181.277512 225.54382 
L 182.669627 229.666979 
L 184.141292 226.953185 
L 184.432973 230.471702 
L 185.732281 228.30465 
L 186.050478 229.811627 
L 187.230462 230.648135 
L 187.6945 232.714492 
L 189.033583 233.590659 
L 189.245714 232.140657 
L 190.240083 232.128083 
L 191.154901 232.521266 
L 191.923879 232.582678 
L 192.533758 231.995799 
L 193.607676 232.327983 
L 193.965648 231.774785 
L 195.066082 233.716176 
L 195.636187 235.38539 
L 196.617296 235.133815 
L 197.306725 236.920214 
L 198.24806 233.846694 
L 198.964005 233.847027 
L 199.772758 237.429171 
L 200.608027 234.826307 
L 201.483071 239.160651 
L 202.145983 238.263 
L 203.100576 240.261033 
L 203.82978 237.986654 
L 204.691565 237.835028 
L 205.380994 242.248642 
L 206.189746 244.11557 
L 206.932208 238.743907 
L 207.767477 240.601447 
L 208.549713 243.866673 
L 210.167219 241.449167 
L 210.962713 243.080611 
L 211.771466 244.434753 
L 212.64651 245.35559 
L 213.442004 243.880158 
L 214.250757 245.663286 
L 215.125801 245.680485 
L 215.881521 250.158999 
L 216.650498 245.249603 
L 217.631608 246.205148 
L 218.37407 249.348108 
L 219.209339 248.810929 
L 220.03135 247.031703 
L 220.813586 247.860045 
L 221.662114 249.581761 
L 222.44435 245.5963 
L 223.412201 249.654776 
L 223.995564 249.206986 
L 224.963416 254.482825 
L 225.347905 248.796807 
L 227.124509 252.047505 
L 227.973036 250.53216 
L 228.688981 251.815864 
L 229.762899 252.979974 
L 230.187162 253.625934 
L 231.446695 253.703003 
L 231.804668 257.207209 
L 232.825552 253.266005 
L 233.514981 257.212385 
L 234.641931 254.394189 
L 235.172261 257.42915 
L 236.365503 250.804488 
L 236.935607 257.267825 
L 238.102332 258.363638 
L 238.473563 259.316824 
L 239.640288 259.278489 
L 240.144101 258.451189 
L 241.244535 259.690159 
L 241.947222 257.185559 
L 242.729458 257.742579 
L 243.498436 261.702712 
L 244.479546 260.754919 
L 245.142458 259.739642 
L 245.990986 265.570778 
L 246.759964 262.983731 
L 247.701299 260.735448 
L 248.417244 261.429725 
L 249.42487 256.217418 
L 250.048007 262.890622 
L 250.923051 260.435729 
L 251.784837 266.140922 
L 252.659881 264.505547 
L 253.468634 261.126691 
L 254.317161 265.353593 
L 255.218721 268.402582 
L 255.934666 264.265076 
L 256.862743 265.427571 
L 257.605205 270.440181 
L 258.427216 268.670329 
L 259.328776 264.823182 
L 260.097754 266.549653 
L 260.919765 268.761961 
L 261.940649 267.500805 
L 262.510754 267.924491 
L 263.757028 269.520995 
L 264.19455 266.417478 
L 265.294984 269.549913 
L 265.891605 270.906828 
L 266.753391 268.511725 
L 267.376528 271.418766 
L 268.185281 268.349234 
L 268.887968 268.216031 
L 269.577396 267.479249 
L 270.425924 269.056888 
L 271.194902 268.627455 
L 272.136237 273.5903 
L 272.878698 271.734164 
L 273.926099 266.712065 
L 274.642044 270.555845 
L 275.609896 268.466643 
L 276.418649 274.765817 
L 277.253918 269.807988 
L 278.314577 265.913625 
L 278.950973 270.385646 
L 279.786242 277.253464 
L 280.382863 275.375165 
L 281.53633 281.373917 
L 282.106434 272.098588 
L 283.273159 274.500329 
L 283.816747 271.784523 
L 285.023247 274.613301 
L 285.52706 271.53168 
L 286.773335 272.80596 
L 287.224115 275.119782 
L 288.39084 276.86102 
L 288.894653 276.70015 
L 290.140928 273.981876 
L 290.604966 279.496681 
L 291.745175 274.460271 
L 292.328538 270.942622 
L 293.495263 276.375068 
L 293.959301 274.415247 
L 295.126027 273.382988 
L 295.55029 278.186961 
L 296.703757 271.655669 
L 297.114763 278.957518 
L 298.400812 278.343162 
L 298.785301 273.337059 
L 299.952026 280.707059 
L 300.429323 277.22058 
L 301.118751 274.33183 
L 301.954021 282.563919 
L 302.762773 278.615823 
L 303.491977 278.36799 
L 303.99579 276.042862 
L 304.618927 280.53872 
L 305.57352 277.332415 
L 305.931493 280.20136 
L 307.018669 281.736901 
L 307.509224 282.748675 
L 308.463817 281.007307 
L 309.033921 282.603253 
L 309.86919 278.013859 
L 310.532102 280.671344 
L 311.513212 276.517703 
L 311.977251 279.640373 
L 312.945102 279.170476 
L 313.621273 282.850695 
L 314.310701 280.000288 
L 315.066421 283.713319 
L 315.835399 282.786496 
L 316.683926 279.364672 
L 317.466162 275.735376 
L 318.023009 282.216056 
L 319.110184 283.215127 
L 319.494673 276.356783 
L 320.489041 279.956915 
L 321.138695 283.862918 
L 321.85464 284.055014 
L 322.61036 282.307877 
L 323.525179 285.864433 
L 324.148316 279.15044 
L 325.010102 282.727814 
L 325.765821 285.254484 
L 326.587832 284.77349 
L 327.383327 286.448409 
L 328.086013 284.485129 
L 329.053865 282.878288 
L 329.783068 277.105784 
L 330.697887 281.868382 
L 331.055859 276.001182 
L 332.315392 279.381849 
L 332.554041 282.394399 
L 333.959414 287.104655 
L 334.304128 282.308427 
L 335.57692 281.820122 
L 335.895117 286.284557 
L 337.2342 287.653337 
L 337.499364 284.920194 
L 338.81193 286.151846 
L 339.063837 279.024938 
L 340.495727 283.816693 
L 340.721117 281.694888 
L 341.808293 284.765224 
L 342.524238 278.286231 
L 343.41254 283.512421 
L 344.221293 277.297815 
L 345.030045 283.03425 
L 345.772507 281.454858 
L 346.687325 284.685086 
L 347.350237 280.139377 
L 348.212023 278.053685 
L 349.087067 283.063479 
L 350.691314 278.318826 
L 351.5531 282.047521 
L 352.414886 280.617214 
L 353.263413 281.800955 
L 354.045649 288.601339 
L 355.119567 284.503022 
L 355.729446 281.66922 
L 356.962462 285.77993 
L 357.479534 285.944882 
L 358.606484 287.996487 
L 359.044006 279.731072 
L 360.250506 285.075946 
L 360.634995 282.010684 
L 361.960819 284.036469 
L 362.292275 288.964424 
L 363.565066 281.225556 
L 364.015846 284.378273 
L 365.156055 282.089591 
L 365.606835 285.859308 
L 366.720527 284.510688 
L 367.290632 284.101949 
L 368.788813 286.448554 
L 370.008571 283.653189 
L 370.47261 286.412897 
L 372.182923 286.967181 
L 373.25684 287.017025 
L 373.826945 285.125783 
L 374.436824 282.393306 
L 374.741763 285.601008 
L 376.160395 282.308087 
L 376.505109 281.090036 
L 377.883966 283.925893 
L 378.175648 282.458062 
L 379.607538 295.488 
L 379.846186 285.604294 
L 381.278076 286.679796 
L 381.569757 283.477545 
L 382.855807 281.450617 
L 383.160746 285.727668 
L 384.645669 283.271081 
L 384.977125 280.663223 
L 386.422273 287.242955 
L 387.960229 280.195758 
L 388.689433 293.616432 
L 389.856158 283.593094 
L 390.452779 280.557692 
L 391.592987 279.828047 
L 392.322191 284.666534 
L 393.435883 284.930682 
L 393.91318 286.830937 
L 395.000355 282.653568 
L 395.477652 284.812875 
L 396.77696 287.714242 
L 397.320548 286.918176 
L 398.487273 287.316049 
L 398.487273 287.316049 
" clip-path="url(#pf008fe7450)" style="fill: none; stroke: #1f77b4; stroke-width: 1.5; stroke-linecap: square"/>
   </g>
   <g id="line2d_14">
    <path d="M 73.832727 161.296691 
L 73.938793 157.57877 
L 74.164183 162.525588 
L 74.469123 163.83776 
L 74.734288 163.968057 
L 75.450233 164.045896 
L 79.851969 163.950945 
L 79.91826 163.849926 
L 80.170166 163.833104 
L 80.249716 163.956845 
L 80.846337 163.867535 
L 81.336892 163.833615 
L 81.456216 163.777247 
L 82.02632 163.817064 
L 82.278227 163.65905 
L 82.636199 163.567191 
L 83.551018 163.690918 
L 84.359771 163.14407 
L 84.412804 163.762083 
L 86.520864 163.450139 
L 86.613672 163.524165 
L 87.687589 163.344972 
L 88.788023 163.336228 
L 89.729358 163.064367 
L 89.835424 163.554499 
L 90.803276 162.674908 
L 90.84305 162.902606 
L 91.810902 162.62769 
L 91.956743 162.954914 
L 92.911336 162.432176 
L 93.070435 163.459051 
L 94.01177 162.815394 
L 94.197385 162.87193 
L 95.151979 162.593243 
L 96.040281 162.690224 
L 96.252413 163.175916 
L 97.153973 161.766686 
L 97.32633 163.124417 
L 98.241149 162.106346 
L 98.413506 162.47249 
L 99.341583 162.185248 
L 99.500682 162.479362 
L 100.548083 161.763228 
L 100.614374 162.10553 
L 101.661775 162.076504 
L 101.714808 162.448953 
L 102.841758 162.354303 
L 103.743319 161.534049 
L 103.995225 162.523912 
L 104.525555 162.561488 
L 105.148692 163.101106 
L 105.572956 161.17668 
L 106.859005 162.987503 
L 107.468884 161.959928 
L 108.012472 159.364738 
L 108.436736 161.97621 
L 109.126165 160.478755 
L 109.775818 160.800087 
L 110.306148 159.883475 
L 111.008835 159.987317 
L 111.366807 159.554814 
L 111.923653 160.90747 
L 112.692631 161.098109 
L 113.063862 162.353293 
L 113.83284 157.499843 
L 114.416203 162.641379 
L 115.185181 160.20439 
L 115.410571 161.202476 
L 116.723137 159.004607 
L 116.961785 162.63431 
L 117.98267 159.507967 
L 118.512999 161.170565 
L 119.520625 159.486739 
L 120.196796 154.813491 
L 120.965774 162.99725 
L 121.814301 158.540669 
L 122.596537 157.204562 
L 123.272708 159.878411 
L 124.399658 160.146327 
L 126.056938 153.482308 
L 126.534235 158.951889 
L 127.647927 155.214853 
L 128.164999 156.927131 
L 129.305207 157.798361 
L 129.742729 158.291899 
L 130.843163 158.206618 
L 131.187878 159.904575 
L 132.420894 161.720108 
L 132.739092 157.25038 
L 133.998625 148.26264 
L 134.356597 155.47915 
L 135.682421 160.804916 
L 135.868037 156.548685 
L 137.27341 161.038301 
L 137.419251 159.325908 
L 138.745075 150.630463 
L 139.050014 160.388432 
L 140.322805 157.780106 
L 140.773586 161.340462 
L 141.741437 159.964699 
L 142.497157 159.383369 
L 143.213102 157.129982 
L 143.98208 157.330762 
L 144.857124 156.828907 
L 145.612844 148.557415 
L 146.593953 159.944673 
L 147.349673 156.036176 
L 148.158426 137.622202 
L 149.046728 158.380753 
L 149.643349 154.270917 
L 150.452102 158.321129 
L 151.181305 142.800647 
L 152.096123 156.987134 
L 152.65297 145.071805 
L 154.257217 155.551966 
L 155.238327 158.147675 
L 155.901239 142.693799 
L 156.855832 158.039505 
L 157.62481 141.534485 
L 158.446821 160.679879 
L 159.162766 153.350788 
L 160.064326 158.521776 
L 160.594656 160.431122 
L 161.509474 155.304048 
L 161.986771 159.286882 
L 163.073947 155.336519 
L 163.471694 158.829089 
L 164.678194 153.570183 
L 164.983134 158.086173 
L 166.242666 154.502076 
L 166.560864 138.200128 
L 168.09882 160.024641 
L 169.345095 157.13153 
L 169.517452 157.327882 
L 170.883051 141.98224 
L 171.028891 151.941555 
L 172.301683 156.904115 
L 172.566847 157.32343 
L 173.879413 155.791854 
L 174.038512 151.84523 
L 175.324562 152.040418 
L 175.443886 147.59445 
L 176.809485 146.552099 
L 176.889034 156.851399 
L 178.188342 153.526377 
L 178.307666 154.710785 
L 179.805847 159.612575 
L 179.911913 155.233905 
L 181.091896 158.77468 
L 181.277512 157.005454 
L 182.669627 154.915514 
L 182.815468 132.65694 
L 184.141292 155.705016 
L 184.432973 155.246133 
L 185.732281 154.488962 
L 186.050478 127.88149 
L 187.6945 156.336635 
L 189.033583 158.779183 
L 189.245714 146.920673 
L 190.240083 157.78851 
L 191.154901 160.318219 
L 192.533758 147.884372 
L 193.607676 145.84361 
L 193.965648 134.459355 
L 195.066082 128.922562 
L 195.636187 150.693384 
L 196.617296 156.443007 
L 197.306725 154.590994 
L 198.24806 132.647736 
L 198.964005 157.22137 
L 199.772758 145.596514 
L 200.608027 156.931113 
L 201.483071 152.332298 
L 202.145983 142.04034 
L 203.100576 153.917927 
L 203.82978 135.739445 
L 204.691565 140.912329 
L 205.380994 128.259027 
L 206.189746 154.744755 
L 206.932208 154.070844 
L 207.767477 148.06961 
L 208.549713 150.25695 
L 209.265658 153.0022 
L 210.167219 146.733267 
L 210.962713 127.603798 
L 211.771466 149.570252 
L 212.64651 157.424242 
L 213.442004 115.11041 
L 215.125801 157.826729 
L 215.881521 157.381548 
L 216.650498 144.83497 
L 217.631608 144.804637 
L 218.37407 119.882385 
L 219.209339 140.525559 
L 220.03135 143.281925 
L 220.813586 149.897039 
L 221.662114 151.590341 
L 222.44435 147.743943 
L 223.412201 151.74645 
L 223.995564 157.464423 
L 224.963416 153.327593 
L 225.347905 152.727306 
L 226.408564 124.272191 
L 227.124509 155.082732 
L 227.973036 141.046184 
L 228.688981 152.232131 
L 229.762899 152.003677 
L 230.187162 149.307789 
L 231.446695 150.668138 
L 231.804668 143.710231 
L 232.825552 128.88595 
L 233.514981 151.425456 
L 234.641931 144.132179 
L 235.172261 133.000912 
L 236.365503 154.974838 
L 236.935607 155.328316 
L 238.102332 142.215214 
L 238.473563 150.745816 
L 239.640288 153.800683 
L 240.144101 158.447593 
L 241.244535 154.176068 
L 241.947222 150.2519 
L 242.729458 152.161847 
L 243.498436 152.646002 
L 244.479546 148.584962 
L 245.142458 105.376017 
L 245.990986 136.419179 
L 246.759964 146.847867 
L 247.701299 115.665066 
L 248.417244 153.964733 
L 249.42487 142.29528 
L 250.048007 153.685377 
L 250.923051 155.182995 
L 251.784837 155.275867 
L 252.659881 154.465071 
L 253.468634 131.406442 
L 254.317161 138.088806 
L 255.218721 147.156499 
L 255.934666 140.298946 
L 256.862743 155.621513 
L 257.605205 151.31128 
L 258.427216 157.030289 
L 259.328776 146.735011 
L 260.097754 134.521773 
L 260.919765 149.449274 
L 261.940649 149.710485 
L 262.510754 151.027238 
L 263.757028 148.865875 
L 264.19455 141.044031 
L 265.294984 151.319302 
L 265.891605 130.513883 
L 266.753391 146.889341 
L 267.376528 128.520834 
L 268.185281 130.945094 
L 268.887968 145.323045 
L 269.577396 148.747733 
L 270.425924 140.533945 
L 271.194902 147.375351 
L 272.136237 153.56303 
L 272.878698 142.556533 
L 273.926099 152.767358 
L 274.642044 150.829729 
L 275.609896 149.295841 
L 276.418649 149.358484 
L 277.253918 111.378656 
L 278.314577 144.91319 
L 278.950973 151.207948 
L 279.786242 152.062637 
L 280.382863 138.073469 
L 281.53633 153.333489 
L 282.106434 106.900866 
L 283.273159 146.149902 
L 283.816747 97.646167 
L 285.023247 153.130449 
L 285.52706 151.165785 
L 286.773335 151.553339 
L 287.224115 153.436022 
L 288.39084 151.048387 
L 288.894653 146.35706 
L 290.140928 140.144649 
L 290.604966 146.667376 
L 291.745175 145.237634 
L 292.328538 140.38821 
L 293.495263 150.758621 
L 293.959301 151.867157 
L 295.126027 150.304941 
L 295.55029 132.619379 
L 296.703757 91.294536 
L 297.114763 144.003606 
L 298.400812 148.51398 
L 298.785301 128.209175 
L 299.952026 110.043283 
L 300.429323 150.402288 
L 301.118751 142.452178 
L 301.954021 143.007912 
L 302.762773 149.293727 
L 303.491977 142.741939 
L 303.99579 144.935 
L 304.618927 141.339461 
L 305.57352 133.134343 
L 305.931493 140.458849 
L 307.018669 120.32825 
L 307.509224 53.568 
L 308.463817 144.337679 
L 309.033921 135.011554 
L 309.86919 129.262021 
L 310.532102 144.995243 
L 311.513212 152.523623 
L 311.977251 140.268282 
L 312.945102 89.520051 
L 313.621273 120.433853 
L 314.310701 117.927711 
L 315.066421 137.726327 
L 315.835399 148.127493 
L 316.683926 139.336414 
L 317.466162 140.627692 
L 318.023009 149.598459 
L 319.110184 139.048537 
L 319.494673 146.568069 
L 320.489041 120.902603 
L 321.138695 124.628805 
L 321.85464 116.015995 
L 322.61036 146.642 
L 323.525179 146.551883 
L 324.148316 142.055877 
L 325.010102 142.756376 
L 325.765821 110.48571 
L 326.587832 132.302863 
L 327.383327 147.159512 
L 328.086013 146.191672 
L 329.053865 147.184952 
L 329.783068 124.325354 
L 330.697887 147.265994 
L 331.055859 118.415118 
L 332.315392 132.219131 
L 332.554041 149.348152 
L 333.959414 141.287065 
L 334.304128 145.616668 
L 335.57692 148.002748 
L 335.895117 136.926961 
L 337.2342 134.571876 
L 337.499364 121.398418 
L 338.81193 134.39784 
L 339.063837 128.133525 
L 340.495727 135.887577 
L 340.721117 127.712539 
L 341.808293 146.171784 
L 342.524238 145.726581 
L 343.41254 134.653559 
L 344.221293 145.664793 
L 345.030045 143.207844 
L 345.772507 99.403258 
L 346.687325 123.252476 
L 347.350237 131.062061 
L 348.212023 125.757101 
L 349.087067 135.351858 
L 349.89582 150.617242 
L 350.691314 147.162172 
L 351.5531 132.284271 
L 352.414886 138.927728 
L 353.263413 133.492944 
L 354.045649 101.183483 
L 355.119567 150.515473 
L 355.729446 151.79 
L 356.962462 135.084651 
L 357.479534 148.767592 
L 358.606484 107.399312 
L 359.044006 147.741997 
L 360.250506 137.477634 
L 360.634995 141.544067 
L 361.960819 124.818107 
L 362.292275 129.835082 
L 363.565066 134.332738 
L 364.015846 153.868444 
L 365.156055 149.103665 
L 365.606835 145.177677 
L 366.720527 142.646503 
L 367.290632 146.723967 
L 368.391066 146.042544 
L 368.788813 137.254295 
L 370.008571 119.293219 
L 370.47261 130.878836 
L 371.59956 149.928474 
L 372.182923 127.086926 
L 373.25684 139.930258 
L 373.826945 79.61135 
L 374.436824 149.213097 
L 374.741763 144.517626 
L 376.160395 144.654532 
L 376.505109 134.394302 
L 377.883966 138.16189 
L 378.175648 131.994364 
L 379.607538 154.329172 
L 379.846186 148.764628 
L 381.278076 144.76391 
L 381.569757 143.416222 
L 382.855807 149.822384 
L 383.160746 148.367577 
L 384.645669 132.249674 
L 384.977125 146.406278 
L 386.422273 149.455814 
L 386.859795 132.363728 
L 387.960229 150.680805 
L 388.689433 146.97969 
L 389.856158 145.513298 
L 390.452779 137.44564 
L 392.322191 153.090712 
L 393.435883 152.129935 
L 393.91318 156.565551 
L 395.000355 139.99627 
L 395.477652 147.744723 
L 396.77696 151.373607 
L 397.320548 145.02917 
L 398.487273 147.25459 
L 398.487273 147.25459 
" clip-path="url(#pf008fe7450)" style="fill: none; stroke: #ff7f0e; stroke-width: 1.5; stroke-linecap: square"/>
   </g>
   <g id="patch_3">
    <path d="M 57.6 307.584 
L 57.6 41.472 
" style="fill: none; stroke: #000000; stroke-width: 0.8; stroke-linejoin: miter; stroke-linecap: square"/>
   </g>
   <g id="patch_4">
    <path d="M 414.72 307.584 
L 414.72 41.472 
" style="fill: none; stroke: #000000; stroke-width: 0.8; stroke-linejoin: miter; stroke-linecap: square"/>
   </g>
   <g id="patch_5">
    <path d="M 57.6 307.584 
L 414.72 307.584 
" style="fill: none; stroke: #000000; stroke-width: 0.8; stroke-linejoin: miter; stroke-linecap: square"/>
   </g>
   <g id="patch_6">
    <path d="M 57.6 41.472 
L 414.72 41.472 
" style="fill: none; stroke: #000000; stroke-width: 0.8; stroke-linejoin: miter; stroke-linecap: square"/>
   </g>
   <g id="text_15">
    <!-- actor and critic loss -->
    <g transform="translate(177.345 35.472) scale(0.12 -0.12)">
     <defs>
      <path id="DejaVuSans-61" d="M 2194 1759 
Q 1497 1759 1228 1600 
Q 959 1441 959 1056 
Q 959 750 1161 570 
Q 1363 391 1709 391 
Q 2188 391 2477 730 
Q 2766 1069 2766 1631 
L 2766 1759 
L 2194 1759 
z
M 3341 1997 
L 3341 0 
L 2766 0 
L 2766 531 
Q 2569 213 2275 61 
Q 1981 -91 1556 -91 
Q 1019 -91 701 211 
Q 384 513 384 1019 
Q 384 1609 779 1909 
Q 1175 2209 1959 2209 
L 2766 2209 
L 2766 2266 
Q 2766 2663 2505 2880 
Q 2244 3097 1772 3097 
Q 1472 3097 1187 3025 
Q 903 2953 641 2809 
L 641 3341 
Q 956 3463 1253 3523 
Q 1550 3584 1831 3584 
Q 2591 3584 2966 3190 
Q 3341 2797 3341 1997 
z
" transform="scale(0.015625)"/>
      <path id="DejaVuSans-63" d="M 3122 3366 
L 3122 2828 
Q 2878 2963 2633 3030 
Q 2388 3097 2138 3097 
Q 1578 3097 1268 2742 
Q 959 2388 959 1747 
Q 959 1106 1268 751 
Q 1578 397 2138 397 
Q 2388 397 2633 464 
Q 2878 531 3122 666 
L 3122 134 
Q 2881 22 2623 -34 
Q 2366 -91 2075 -91 
Q 1284 -91 818 406 
Q 353 903 353 1747 
Q 353 2603 823 3093 
Q 1294 3584 2113 3584 
Q 2378 3584 2631 3529 
Q 2884 3475 3122 3366 
z
" transform="scale(0.015625)"/>
      <path id="DejaVuSans-72" d="M 2631 2963 
Q 2534 3019 2420 3045 
Q 2306 3072 2169 3072 
Q 1681 3072 1420 2755 
Q 1159 2438 1159 1844 
L 1159 0 
L 581 0 
L 581 3500 
L 1159 3500 
L 1159 2956 
Q 1341 3275 1631 3429 
Q 1922 3584 2338 3584 
Q 2397 3584 2469 3576 
Q 2541 3569 2628 3553 
L 2631 2963 
z
" transform="scale(0.015625)"/>
      <path id="DejaVuSans-6e" d="M 3513 2113 
L 3513 0 
L 2938 0 
L 2938 2094 
Q 2938 2591 2744 2837 
Q 2550 3084 2163 3084 
Q 1697 3084 1428 2787 
Q 1159 2491 1159 1978 
L 1159 0 
L 581 0 
L 581 3500 
L 1159 3500 
L 1159 2956 
Q 1366 3272 1645 3428 
Q 1925 3584 2291 3584 
Q 2894 3584 3203 3211 
Q 3513 2838 3513 2113 
z
" transform="scale(0.015625)"/>
      <path id="DejaVuSans-64" d="M 2906 2969 
L 2906 4863 
L 3481 4863 
L 3481 0 
L 2906 0 
L 2906 525 
Q 2725 213 2448 61 
Q 2172 -91 1784 -91 
Q 1150 -91 751 415 
Q 353 922 353 1747 
Q 353 2572 751 3078 
Q 1150 3584 1784 3584 
Q 2172 3584 2448 3432 
Q 2725 3281 2906 2969 
z
M 947 1747 
Q 947 1113 1208 752 
Q 1469 391 1925 391 
Q 2381 391 2643 752 
Q 2906 1113 2906 1747 
Q 2906 2381 2643 2742 
Q 2381 3103 1925 3103 
Q 1469 3103 1208 2742 
Q 947 2381 947 1747 
z
" transform="scale(0.015625)"/>
     </defs>
     <use xlink:href="#DejaVuSans-61"/>
     <use xlink:href="#DejaVuSans-63" x="61.279297"/>
     <use xlink:href="#DejaVuSans-74" x="116.259766"/>
     <use xlink:href="#DejaVuSans-6f" x="155.46875"/>
     <use xlink:href="#DejaVuSans-72" x="216.650391"/>
     <use xlink:href="#DejaVuSans-20" x="257.763672"/>
     <use xlink:href="#DejaVuSans-61" x="289.550781"/>
     <use xlink:href="#DejaVuSans-6e" x="350.830078"/>
     <use xlink:href="#DejaVuSans-64" x="414.208984"/>
     <use xlink:href="#DejaVuSans-20" x="477.685547"/>
     <use xlink:href="#DejaVuSans-63" x="509.472656"/>
     <use xlink:href="#DejaVuSans-72" x="564.453125"/>
     <use xlink:href="#DejaVuSans-69" x="605.566406"/>
     <use xlink:href="#DejaVuSans-74" x="633.349609"/>
     <use xlink:href="#DejaVuSans-69" x="672.558594"/>
     <use xlink:href="#DejaVuSans-63" x="700.341797"/>
     <use xlink:href="#DejaVuSans-20" x="755.322266"/>
     <use xlink:href="#DejaVuSans-6c" x="787.109375"/>
     <use xlink:href="#DejaVuSans-6f" x="814.892578"/>
     <use xlink:href="#DejaVuSans-73" x="876.074219"/>
     <use xlink:href="#DejaVuSans-73" x="928.173828"/>
    </g>
   </g>
   <g id="legend_1">
    <g id="patch_7">
     <path d="M 327.449688 78.82825 
L 407.72 78.82825 
Q 409.72 78.82825 409.72 76.82825 
L 409.72 48.472 
Q 409.72 46.472 407.72 46.472 
L 327.449688 46.472 
Q 325.449688 46.472 325.449688 48.472 
L 325.449688 76.82825 
Q 325.449688 78.82825 327.449688 78.82825 
z
" style="fill: #ffffff; opacity: 0.8; stroke: #cccccc; stroke-linejoin: miter"/>
    </g>
    <g id="line2d_15">
     <path d="M 329.449688 54.570437 
L 339.449688 54.570437 
L 349.449688 54.570437 
" style="fill: none; stroke: #1f77b4; stroke-width: 1.5; stroke-linecap: square"/>
    </g>
    <g id="text_16">
     <!-- actor loss -->
     <g transform="translate(357.449688 58.070437) scale(0.1 -0.1)">
      <use xlink:href="#DejaVuSans-61"/>
      <use xlink:href="#DejaVuSans-63" x="61.279297"/>
      <use xlink:href="#DejaVuSans-74" x="116.259766"/>
      <use xlink:href="#DejaVuSans-6f" x="155.46875"/>
      <use xlink:href="#DejaVuSans-72" x="216.650391"/>
      <use xlink:href="#DejaVuSans-20" x="257.763672"/>
      <use xlink:href="#DejaVuSans-6c" x="289.550781"/>
      <use xlink:href="#DejaVuSans-6f" x="317.333984"/>
      <use xlink:href="#DejaVuSans-73" x="378.515625"/>
      <use xlink:href="#DejaVuSans-73" x="430.615234"/>
     </g>
    </g>
    <g id="line2d_16">
     <path d="M 329.449688 69.248562 
L 339.449688 69.248562 
L 349.449688 69.248562 
" style="fill: none; stroke: #ff7f0e; stroke-width: 1.5; stroke-linecap: square"/>
    </g>
    <g id="text_17">
     <!-- critic loss -->
     <g transform="translate(357.449688 72.748562) scale(0.1 -0.1)">
      <use xlink:href="#DejaVuSans-63"/>
      <use xlink:href="#DejaVuSans-72" x="54.980469"/>
      <use xlink:href="#DejaVuSans-69" x="96.09375"/>
      <use xlink:href="#DejaVuSans-74" x="123.876953"/>
      <use xlink:href="#DejaVuSans-69" x="163.085938"/>
      <use xlink:href="#DejaVuSans-63" x="190.869141"/>
      <use xlink:href="#DejaVuSans-20" x="245.849609"/>
      <use xlink:href="#DejaVuSans-6c" x="277.636719"/>
      <use xlink:href="#DejaVuSans-6f" x="305.419922"/>
      <use xlink:href="#DejaVuSans-73" x="366.601562"/>
      <use xlink:href="#DejaVuSans-73" x="418.701172"/>
     </g>
    </g>
   </g>
  </g>
 </g>
 <defs>
  <clipPath id="pf008fe7450">
   <rect x="57.6" y="41.472" width="357.12" height="266.112"/>
  </clipPath>
 </defs>
</svg>
