<?xml version="1.0" encoding="utf-8" standalone="no"?>
<!DOCTYPE svg PUBLIC "-//W3C//DTD SVG 1.1//EN"
  "http://www.w3.org/Graphics/SVG/1.1/DTD/svg11.dtd">
<svg xmlns:xlink="http://www.w3.org/1999/xlink" width="460.8pt" height="345.6pt" viewBox="0 0 460.8 345.6" xmlns="http://www.w3.org/2000/svg" version="1.1">
 <metadata>
  <rdf:RDF xmlns:dc="http://purl.org/dc/elements/1.1/" xmlns:cc="http://creativecommons.org/ns#" xmlns:rdf="http://www.w3.org/1999/02/22-rdf-syntax-ns#">
   <cc:Work>
    <dc:type rdf:resource="http://purl.org/dc/dcmitype/StillImage"/>
    <dc:date>2023-08-19T14:24:02.348174</dc:date>
    <dc:format>image/svg+xml</dc:format>
    <dc:creator>
     <cc:Agent>
      <dc:title>Matplotlib v3.7.1, https://matplotlib.org/</dc:title>
     </cc:Agent>
    </dc:creator>
   </cc:Work>
  </rdf:RDF>
 </metadata>
 <defs>
  <style type="text/css">*{stroke-linejoin: round; stroke-linecap: butt}</style>
 </defs>
 <g id="figure_1">
  <g id="patch_1">
   <path d="M 0 345.6 
L 460.8 345.6 
L 460.8 0 
L 0 0 
z
" style="fill: #ffffff"/>
  </g>
  <g id="axes_1">
   <g id="patch_2">
    <path d="M 57.6 307.584 
L 414.72 307.584 
L 414.72 41.472 
L 57.6 41.472 
z
" style="fill: #ffffff"/>
   </g>
   <g id="matplotlib.axis_1">
    <g id="xtick_1">
     <g id="line2d_1">
      <defs>
       <path id="m137010ecaa" d="M 0 0 
L 0 3.5 
" style="stroke: #000000; stroke-width: 0.8"/>
      </defs>
      <g>
       <use xlink:href="#m137010ecaa" x="67.152374" y="307.584" style="stroke: #000000; stroke-width: 0.8"/>
      </g>
     </g>
     <g id="text_1">
      <!-- 0 -->
      <g transform="translate(63.971124 322.182437) scale(0.1 -0.1)">
       <defs>
        <path id="DejaVuSans-30" d="M 2034 4250 
Q 1547 4250 1301 3770 
Q 1056 3291 1056 2328 
Q 1056 1369 1301 889 
Q 1547 409 2034 409 
Q 2525 409 2770 889 
Q 3016 1369 3016 2328 
Q 3016 3291 2770 3770 
Q 2525 4250 2034 4250 
z
M 2034 4750 
Q 2819 4750 3233 4129 
Q 3647 3509 3647 2328 
Q 3647 1150 3233 529 
Q 2819 -91 2034 -91 
Q 1250 -91 836 529 
Q 422 1150 422 2328 
Q 422 3509 836 4129 
Q 1250 4750 2034 4750 
z
" transform="scale(0.015625)"/>
       </defs>
       <use xlink:href="#DejaVuSans-30"/>
      </g>
     </g>
    </g>
    <g id="xtick_2">
     <g id="line2d_2">
      <g>
       <use xlink:href="#m137010ecaa" x="133.557476" y="307.584" style="stroke: #000000; stroke-width: 0.8"/>
      </g>
     </g>
     <g id="text_2">
      <!-- 100000 -->
      <g transform="translate(114.469976 322.182437) scale(0.1 -0.1)">
       <defs>
        <path id="DejaVuSans-31" d="M 794 531 
L 1825 531 
L 1825 4091 
L 703 3866 
L 703 4441 
L 1819 4666 
L 2450 4666 
L 2450 531 
L 3481 531 
L 3481 0 
L 794 0 
L 794 531 
z
" transform="scale(0.015625)"/>
       </defs>
       <use xlink:href="#DejaVuSans-31"/>
       <use xlink:href="#DejaVuSans-30" x="63.623047"/>
       <use xlink:href="#DejaVuSans-30" x="127.246094"/>
       <use xlink:href="#DejaVuSans-30" x="190.869141"/>
       <use xlink:href="#DejaVuSans-30" x="254.492188"/>
       <use xlink:href="#DejaVuSans-30" x="318.115234"/>
      </g>
     </g>
    </g>
    <g id="xtick_3">
     <g id="line2d_3">
      <g>
       <use xlink:href="#m137010ecaa" x="199.962579" y="307.584" style="stroke: #000000; stroke-width: 0.8"/>
      </g>
     </g>
     <g id="text_3">
      <!-- 200000 -->
      <g transform="translate(180.875079 322.182437) scale(0.1 -0.1)">
       <defs>
        <path id="DejaVuSans-32" d="M 1228 531 
L 3431 531 
L 3431 0 
L 469 0 
L 469 531 
Q 828 903 1448 1529 
Q 2069 2156 2228 2338 
Q 2531 2678 2651 2914 
Q 2772 3150 2772 3378 
Q 2772 3750 2511 3984 
Q 2250 4219 1831 4219 
Q 1534 4219 1204 4116 
Q 875 4013 500 3803 
L 500 4441 
Q 881 4594 1212 4672 
Q 1544 4750 1819 4750 
Q 2544 4750 2975 4387 
Q 3406 4025 3406 3419 
Q 3406 3131 3298 2873 
Q 3191 2616 2906 2266 
Q 2828 2175 2409 1742 
Q 1991 1309 1228 531 
z
" transform="scale(0.015625)"/>
       </defs>
       <use xlink:href="#DejaVuSans-32"/>
       <use xlink:href="#DejaVuSans-30" x="63.623047"/>
       <use xlink:href="#DejaVuSans-30" x="127.246094"/>
       <use xlink:href="#DejaVuSans-30" x="190.869141"/>
       <use xlink:href="#DejaVuSans-30" x="254.492188"/>
       <use xlink:href="#DejaVuSans-30" x="318.115234"/>
      </g>
     </g>
    </g>
    <g id="xtick_4">
     <g id="line2d_4">
      <g>
       <use xlink:href="#m137010ecaa" x="266.367681" y="307.584" style="stroke: #000000; stroke-width: 0.8"/>
      </g>
     </g>
     <g id="text_4">
      <!-- 300000 -->
      <g transform="translate(247.280181 322.182437) scale(0.1 -0.1)">
       <defs>
        <path id="DejaVuSans-33" d="M 2597 2516 
Q 3050 2419 3304 2112 
Q 3559 1806 3559 1356 
Q 3559 666 3084 287 
Q 2609 -91 1734 -91 
Q 1441 -91 1130 -33 
Q 819 25 488 141 
L 488 750 
Q 750 597 1062 519 
Q 1375 441 1716 441 
Q 2309 441 2620 675 
Q 2931 909 2931 1356 
Q 2931 1769 2642 2001 
Q 2353 2234 1838 2234 
L 1294 2234 
L 1294 2753 
L 1863 2753 
Q 2328 2753 2575 2939 
Q 2822 3125 2822 3475 
Q 2822 3834 2567 4026 
Q 2313 4219 1838 4219 
Q 1578 4219 1281 4162 
Q 984 4106 628 3988 
L 628 4550 
Q 988 4650 1302 4700 
Q 1616 4750 1894 4750 
Q 2613 4750 3031 4423 
Q 3450 4097 3450 3541 
Q 3450 3153 3228 2886 
Q 3006 2619 2597 2516 
z
" transform="scale(0.015625)"/>
       </defs>
       <use xlink:href="#DejaVuSans-33"/>
       <use xlink:href="#DejaVuSans-30" x="63.623047"/>
       <use xlink:href="#DejaVuSans-30" x="127.246094"/>
       <use xlink:href="#DejaVuSans-30" x="190.869141"/>
       <use xlink:href="#DejaVuSans-30" x="254.492188"/>
       <use xlink:href="#DejaVuSans-30" x="318.115234"/>
      </g>
     </g>
    </g>
    <g id="xtick_5">
     <g id="line2d_5">
      <g>
       <use xlink:href="#m137010ecaa" x="332.772783" y="307.584" style="stroke: #000000; stroke-width: 0.8"/>
      </g>
     </g>
     <g id="text_5">
      <!-- 400000 -->
      <g transform="translate(313.685283 322.182437) scale(0.1 -0.1)">
       <defs>
        <path id="DejaVuSans-34" d="M 2419 4116 
L 825 1625 
L 2419 1625 
L 2419 4116 
z
M 2253 4666 
L 3047 4666 
L 3047 1625 
L 3713 1625 
L 3713 1100 
L 3047 1100 
L 3047 0 
L 2419 0 
L 2419 1100 
L 313 1100 
L 313 1709 
L 2253 4666 
z
" transform="scale(0.015625)"/>
       </defs>
       <use xlink:href="#DejaVuSans-34"/>
       <use xlink:href="#DejaVuSans-30" x="63.623047"/>
       <use xlink:href="#DejaVuSans-30" x="127.246094"/>
       <use xlink:href="#DejaVuSans-30" x="190.869141"/>
       <use xlink:href="#DejaVuSans-30" x="254.492188"/>
       <use xlink:href="#DejaVuSans-30" x="318.115234"/>
      </g>
     </g>
    </g>
    <g id="xtick_6">
     <g id="line2d_6">
      <g>
       <use xlink:href="#m137010ecaa" x="399.177886" y="307.584" style="stroke: #000000; stroke-width: 0.8"/>
      </g>
     </g>
     <g id="text_6">
      <!-- 500000 -->
      <g transform="translate(380.090386 322.182437) scale(0.1 -0.1)">
       <defs>
        <path id="DejaVuSans-35" d="M 691 4666 
L 3169 4666 
L 3169 4134 
L 1269 4134 
L 1269 2991 
Q 1406 3038 1543 3061 
Q 1681 3084 1819 3084 
Q 2600 3084 3056 2656 
Q 3513 2228 3513 1497 
Q 3513 744 3044 326 
Q 2575 -91 1722 -91 
Q 1428 -91 1123 -41 
Q 819 9 494 109 
L 494 744 
Q 775 591 1075 516 
Q 1375 441 1709 441 
Q 2250 441 2565 725 
Q 2881 1009 2881 1497 
Q 2881 1984 2565 2268 
Q 2250 2553 1709 2553 
Q 1456 2553 1204 2497 
Q 953 2441 691 2322 
L 691 4666 
z
" transform="scale(0.015625)"/>
       </defs>
       <use xlink:href="#DejaVuSans-35"/>
       <use xlink:href="#DejaVuSans-30" x="63.623047"/>
       <use xlink:href="#DejaVuSans-30" x="127.246094"/>
       <use xlink:href="#DejaVuSans-30" x="190.869141"/>
       <use xlink:href="#DejaVuSans-30" x="254.492188"/>
       <use xlink:href="#DejaVuSans-30" x="318.115234"/>
      </g>
     </g>
    </g>
    <g id="text_7">
     <!-- timesteps -->
     <g transform="translate(211.443594 335.860562) scale(0.1 -0.1)">
      <defs>
       <path id="DejaVuSans-74" d="M 1172 4494 
L 1172 3500 
L 2356 3500 
L 2356 3053 
L 1172 3053 
L 1172 1153 
Q 1172 725 1289 603 
Q 1406 481 1766 481 
L 2356 481 
L 2356 0 
L 1766 0 
Q 1100 0 847 248 
Q 594 497 594 1153 
L 594 3053 
L 172 3053 
L 172 3500 
L 594 3500 
L 594 4494 
L 1172 4494 
z
" transform="scale(0.015625)"/>
       <path id="DejaVuSans-69" d="M 603 3500 
L 1178 3500 
L 1178 0 
L 603 0 
L 603 3500 
z
M 603 4863 
L 1178 4863 
L 1178 4134 
L 603 4134 
L 603 4863 
z
" transform="scale(0.015625)"/>
       <path id="DejaVuSans-6d" d="M 3328 2828 
Q 3544 3216 3844 3400 
Q 4144 3584 4550 3584 
Q 5097 3584 5394 3201 
Q 5691 2819 5691 2113 
L 5691 0 
L 5113 0 
L 5113 2094 
Q 5113 2597 4934 2840 
Q 4756 3084 4391 3084 
Q 3944 3084 3684 2787 
Q 3425 2491 3425 1978 
L 3425 0 
L 2847 0 
L 2847 2094 
Q 2847 2600 2669 2842 
Q 2491 3084 2119 3084 
Q 1678 3084 1418 2786 
Q 1159 2488 1159 1978 
L 1159 0 
L 581 0 
L 581 3500 
L 1159 3500 
L 1159 2956 
Q 1356 3278 1631 3431 
Q 1906 3584 2284 3584 
Q 2666 3584 2933 3390 
Q 3200 3197 3328 2828 
z
" transform="scale(0.015625)"/>
       <path id="DejaVuSans-65" d="M 3597 1894 
L 3597 1613 
L 953 1613 
Q 991 1019 1311 708 
Q 1631 397 2203 397 
Q 2534 397 2845 478 
Q 3156 559 3463 722 
L 3463 178 
Q 3153 47 2828 -22 
Q 2503 -91 2169 -91 
Q 1331 -91 842 396 
Q 353 884 353 1716 
Q 353 2575 817 3079 
Q 1281 3584 2069 3584 
Q 2775 3584 3186 3129 
Q 3597 2675 3597 1894 
z
M 3022 2063 
Q 3016 2534 2758 2815 
Q 2500 3097 2075 3097 
Q 1594 3097 1305 2825 
Q 1016 2553 972 2059 
L 3022 2063 
z
" transform="scale(0.015625)"/>
       <path id="DejaVuSans-73" d="M 2834 3397 
L 2834 2853 
Q 2591 2978 2328 3040 
Q 2066 3103 1784 3103 
Q 1356 3103 1142 2972 
Q 928 2841 928 2578 
Q 928 2378 1081 2264 
Q 1234 2150 1697 2047 
L 1894 2003 
Q 2506 1872 2764 1633 
Q 3022 1394 3022 966 
Q 3022 478 2636 193 
Q 2250 -91 1575 -91 
Q 1294 -91 989 -36 
Q 684 19 347 128 
L 347 722 
Q 666 556 975 473 
Q 1284 391 1588 391 
Q 1994 391 2212 530 
Q 2431 669 2431 922 
Q 2431 1156 2273 1281 
Q 2116 1406 1581 1522 
L 1381 1569 
Q 847 1681 609 1914 
Q 372 2147 372 2553 
Q 372 3047 722 3315 
Q 1072 3584 1716 3584 
Q 2034 3584 2315 3537 
Q 2597 3491 2834 3397 
z
" transform="scale(0.015625)"/>
       <path id="DejaVuSans-70" d="M 1159 525 
L 1159 -1331 
L 581 -1331 
L 581 3500 
L 1159 3500 
L 1159 2969 
Q 1341 3281 1617 3432 
Q 1894 3584 2278 3584 
Q 2916 3584 3314 3078 
Q 3713 2572 3713 1747 
Q 3713 922 3314 415 
Q 2916 -91 2278 -91 
Q 1894 -91 1617 61 
Q 1341 213 1159 525 
z
M 3116 1747 
Q 3116 2381 2855 2742 
Q 2594 3103 2138 3103 
Q 1681 3103 1420 2742 
Q 1159 2381 1159 1747 
Q 1159 1113 1420 752 
Q 1681 391 2138 391 
Q 2594 391 2855 752 
Q 3116 1113 3116 1747 
z
" transform="scale(0.015625)"/>
      </defs>
      <use xlink:href="#DejaVuSans-74"/>
      <use xlink:href="#DejaVuSans-69" x="39.208984"/>
      <use xlink:href="#DejaVuSans-6d" x="66.992188"/>
      <use xlink:href="#DejaVuSans-65" x="164.404297"/>
      <use xlink:href="#DejaVuSans-73" x="225.927734"/>
      <use xlink:href="#DejaVuSans-74" x="278.027344"/>
      <use xlink:href="#DejaVuSans-65" x="317.236328"/>
      <use xlink:href="#DejaVuSans-70" x="378.759766"/>
      <use xlink:href="#DejaVuSans-73" x="442.236328"/>
     </g>
    </g>
   </g>
   <g id="matplotlib.axis_2">
    <g id="ytick_1">
     <g id="line2d_7">
      <defs>
       <path id="ma98107d00c" d="M 0 0 
L -3.5 0 
" style="stroke: #000000; stroke-width: 0.8"/>
      </defs>
      <g>
       <use xlink:href="#ma98107d00c" x="57.6" y="307.104435" style="stroke: #000000; stroke-width: 0.8"/>
      </g>
     </g>
     <g id="text_8">
      <!-- −150 -->
      <g transform="translate(23.132812 310.903654) scale(0.1 -0.1)">
       <defs>
        <path id="DejaVuSans-2212" d="M 678 2272 
L 4684 2272 
L 4684 1741 
L 678 1741 
L 678 2272 
z
" transform="scale(0.015625)"/>
       </defs>
       <use xlink:href="#DejaVuSans-2212"/>
       <use xlink:href="#DejaVuSans-31" x="83.789062"/>
       <use xlink:href="#DejaVuSans-35" x="147.412109"/>
       <use xlink:href="#DejaVuSans-30" x="211.035156"/>
      </g>
     </g>
    </g>
    <g id="ytick_2">
     <g id="line2d_8">
      <g>
       <use xlink:href="#ma98107d00c" x="57.6" y="264.333245" style="stroke: #000000; stroke-width: 0.8"/>
      </g>
     </g>
     <g id="text_9">
      <!-- −100 -->
      <g transform="translate(23.132812 268.132464) scale(0.1 -0.1)">
       <use xlink:href="#DejaVuSans-2212"/>
       <use xlink:href="#DejaVuSans-31" x="83.789062"/>
       <use xlink:href="#DejaVuSans-30" x="147.412109"/>
       <use xlink:href="#DejaVuSans-30" x="211.035156"/>
      </g>
     </g>
    </g>
    <g id="ytick_3">
     <g id="line2d_9">
      <g>
       <use xlink:href="#ma98107d00c" x="57.6" y="221.562055" style="stroke: #000000; stroke-width: 0.8"/>
      </g>
     </g>
     <g id="text_10">
      <!-- −50 -->
      <g transform="translate(29.495313 225.361274) scale(0.1 -0.1)">
       <use xlink:href="#DejaVuSans-2212"/>
       <use xlink:href="#DejaVuSans-35" x="83.789062"/>
       <use xlink:href="#DejaVuSans-30" x="147.412109"/>
      </g>
     </g>
    </g>
    <g id="ytick_4">
     <g id="line2d_10">
      <g>
       <use xlink:href="#ma98107d00c" x="57.6" y="178.790865" style="stroke: #000000; stroke-width: 0.8"/>
      </g>
     </g>
     <g id="text_11">
      <!-- 0 -->
      <g transform="translate(44.2375 182.590084) scale(0.1 -0.1)">
       <use xlink:href="#DejaVuSans-30"/>
      </g>
     </g>
    </g>
    <g id="ytick_5">
     <g id="line2d_11">
      <g>
       <use xlink:href="#ma98107d00c" x="57.6" y="136.019676" style="stroke: #000000; stroke-width: 0.8"/>
      </g>
     </g>
     <g id="text_12">
      <!-- 50 -->
      <g transform="translate(37.875 139.818894) scale(0.1 -0.1)">
       <use xlink:href="#DejaVuSans-35"/>
       <use xlink:href="#DejaVuSans-30" x="63.623047"/>
      </g>
     </g>
    </g>
    <g id="ytick_6">
     <g id="line2d_12">
      <g>
       <use xlink:href="#ma98107d00c" x="57.6" y="93.248486" style="stroke: #000000; stroke-width: 0.8"/>
      </g>
     </g>
     <g id="text_13">
      <!-- 100 -->
      <g transform="translate(31.5125 97.047705) scale(0.1 -0.1)">
       <use xlink:href="#DejaVuSans-31"/>
       <use xlink:href="#DejaVuSans-30" x="63.623047"/>
       <use xlink:href="#DejaVuSans-30" x="127.246094"/>
      </g>
     </g>
    </g>
    <g id="ytick_7">
     <g id="line2d_13">
      <g>
       <use xlink:href="#ma98107d00c" x="57.6" y="50.477296" style="stroke: #000000; stroke-width: 0.8"/>
      </g>
     </g>
     <g id="text_14">
      <!-- 150 -->
      <g transform="translate(31.5125 54.276515) scale(0.1 -0.1)">
       <use xlink:href="#DejaVuSans-31"/>
       <use xlink:href="#DejaVuSans-35" x="63.623047"/>
       <use xlink:href="#DejaVuSans-30" x="127.246094"/>
      </g>
     </g>
    </g>
    <g id="text_15">
     <!-- SAC losses -->
     <g transform="translate(17.053125 201.548313) rotate(-90) scale(0.1 -0.1)">
      <defs>
       <path id="DejaVuSans-53" d="M 3425 4513 
L 3425 3897 
Q 3066 4069 2747 4153 
Q 2428 4238 2131 4238 
Q 1616 4238 1336 4038 
Q 1056 3838 1056 3469 
Q 1056 3159 1242 3001 
Q 1428 2844 1947 2747 
L 2328 2669 
Q 3034 2534 3370 2195 
Q 3706 1856 3706 1288 
Q 3706 609 3251 259 
Q 2797 -91 1919 -91 
Q 1588 -91 1214 -16 
Q 841 59 441 206 
L 441 856 
Q 825 641 1194 531 
Q 1563 422 1919 422 
Q 2459 422 2753 634 
Q 3047 847 3047 1241 
Q 3047 1584 2836 1778 
Q 2625 1972 2144 2069 
L 1759 2144 
Q 1053 2284 737 2584 
Q 422 2884 422 3419 
Q 422 4038 858 4394 
Q 1294 4750 2059 4750 
Q 2388 4750 2728 4690 
Q 3069 4631 3425 4513 
z
" transform="scale(0.015625)"/>
       <path id="DejaVuSans-41" d="M 2188 4044 
L 1331 1722 
L 3047 1722 
L 2188 4044 
z
M 1831 4666 
L 2547 4666 
L 4325 0 
L 3669 0 
L 3244 1197 
L 1141 1197 
L 716 0 
L 50 0 
L 1831 4666 
z
" transform="scale(0.015625)"/>
       <path id="DejaVuSans-43" d="M 4122 4306 
L 4122 3641 
Q 3803 3938 3442 4084 
Q 3081 4231 2675 4231 
Q 1875 4231 1450 3742 
Q 1025 3253 1025 2328 
Q 1025 1406 1450 917 
Q 1875 428 2675 428 
Q 3081 428 3442 575 
Q 3803 722 4122 1019 
L 4122 359 
Q 3791 134 3420 21 
Q 3050 -91 2638 -91 
Q 1578 -91 968 557 
Q 359 1206 359 2328 
Q 359 3453 968 4101 
Q 1578 4750 2638 4750 
Q 3056 4750 3426 4639 
Q 3797 4528 4122 4306 
z
" transform="scale(0.015625)"/>
       <path id="DejaVuSans-20" transform="scale(0.015625)"/>
       <path id="DejaVuSans-6c" d="M 603 4863 
L 1178 4863 
L 1178 0 
L 603 0 
L 603 4863 
z
" transform="scale(0.015625)"/>
       <path id="DejaVuSans-6f" d="M 1959 3097 
Q 1497 3097 1228 2736 
Q 959 2375 959 1747 
Q 959 1119 1226 758 
Q 1494 397 1959 397 
Q 2419 397 2687 759 
Q 2956 1122 2956 1747 
Q 2956 2369 2687 2733 
Q 2419 3097 1959 3097 
z
M 1959 3584 
Q 2709 3584 3137 3096 
Q 3566 2609 3566 1747 
Q 3566 888 3137 398 
Q 2709 -91 1959 -91 
Q 1206 -91 779 398 
Q 353 888 353 1747 
Q 353 2609 779 3096 
Q 1206 3584 1959 3584 
z
" transform="scale(0.015625)"/>
      </defs>
      <use xlink:href="#DejaVuSans-53"/>
      <use xlink:href="#DejaVuSans-41" x="65.351562"/>
      <use xlink:href="#DejaVuSans-43" x="132.009766"/>
      <use xlink:href="#DejaVuSans-20" x="201.833984"/>
      <use xlink:href="#DejaVuSans-6c" x="233.621094"/>
      <use xlink:href="#DejaVuSans-6f" x="261.404297"/>
      <use xlink:href="#DejaVuSans-73" x="322.585938"/>
      <use xlink:href="#DejaVuSans-73" x="374.685547"/>
      <use xlink:href="#DejaVuSans-65" x="426.785156"/>
      <use xlink:href="#DejaVuSans-73" x="488.308594"/>
     </g>
    </g>
   </g>
   <g id="line2d_14">
    <path d="M 73.832727 176.176427 
L 74.085067 180.941712 
L 74.204596 182.180452 
L 74.377249 181.44054 
L 75.147548 180.729539 
L 76.010815 180.524464 
L 77.272512 180.588504 
L 78.228745 181.0276 
L 78.441241 180.957492 
L 78.919358 181.26906 
L 79.224822 181.392807 
L 79.809186 181.583648 
L 80.154493 181.93945 
L 80.526362 181.822429 
L 80.818544 182.02181 
L 81.004478 181.798976 
L 81.402909 182.326336 
L 81.628686 182.382892 
L 81.827902 182.615702 
L 82.013836 182.589465 
L 82.505234 183.066349 
L 82.624763 182.896153 
L 82.930226 182.964626 
L 83.979427 183.610219 
L 84.67004 183.973392 
L 85.015347 184.301983 
L 85.785646 184.770938 
L 86.157514 184.60707 
L 86.927813 185.101877 
L 87.312963 185.019279 
L 88.083262 185.985404 
L 88.402007 185.840774 
L 89.22543 186.094487 
L 89.517612 186.946272 
L 90.380879 186.791832 
L 91.376955 187.853409 
L 91.841791 187.69788 
L 92.983959 188.152908 
L 93.701134 188.664725 
L 94.856583 190.076021 
L 95.095641 188.905862 
L 96.131561 190.150613 
L 97.03467 190.861844 
L 97.180761 190.488532 
L 98.017466 191.485077 
L 98.322929 191.38155 
L 99.199476 191.258069 
L 99.451816 191.947687 
L 100.580703 192.475713 
L 101.696308 192.750063 
L 102.958005 194.227947 
L 103.92752 194.487352 
L 104.033768 195.144972 
L 105.029844 194.76314 
L 105.056406 195.191139 
L 106.450914 195.877005 
L 106.676691 196.35373 
L 107.752454 196.282312 
L 107.951669 196.408864 
L 109.306333 197.838044 
L 109.53211 197.423083 
L 110.860212 199.101835 
L 111.08599 197.755936 
L 112.533621 200.375384 
L 112.732836 199.50723 
L 113.396887 200.327069 
L 114.366402 201.111287 
L 115.216387 201.139889 
L 115.77419 201.68129 
L 117.500723 203.019313 
L 118.722576 204.169121 
L 119.107726 203.717658 
L 119.94443 204.480651 
L 120.807697 204.817316 
L 121.471748 205.811714 
L 122.494386 206.823929 
L 123.238123 205.798807 
L 124.220919 207.632148 
L 124.805284 208.099579 
L 125.841203 208.274916 
L 126.345882 207.800982 
L 127.780232 208.502011 
L 128.085696 209.69908 
L 129.427079 210.179852 
L 129.878634 211.821905 
L 131.326265 212.181047 
L 131.857506 212.055774 
L 133.026236 213.910812 
L 133.570757 214.093808 
L 135.044951 214.376138 
L 135.855093 215.501617 
L 136.705078 215.993662 
L 137.501939 216.08135 
L 137.993337 216.695132 
L 138.657388 216.68175 
L 139.507374 219.758944 
L 140.397202 217.94282 
L 141.15422 216.734695 
L 141.977643 218.784274 
L 142.814348 218.698945 
L 143.62449 219.557143 
L 144.328384 218.837549 
L 145.231493 220.659655 
L 146.001793 221.32892 
L 146.87834 222.432186 
L 147.66192 224.626416 
L 148.644716 221.748239 
L 149.308767 225.207513 
L 150.543902 223.648303 
L 151.818879 224.813504 
L 152.137624 226.736465 
L 153.173544 226.539293 
L 153.811033 226.958178 
L 154.700861 225.431133 
L 155.484441 227.485062 
L 156.334426 227.633592 
L 156.918791 226.641702 
L 157.967992 228.233959 
L 158.485952 230.961657 
L 159.667963 230.156959 
L 160.146079 229.58752 
L 161.06247 229.853819 
L 161.71324 230.802319 
L 162.722597 231.282104 
L 163.2804 230.926085 
L 164.44913 231.150954 
L 164.980371 232.000928 
L 166.095976 232.996692 
L 166.66706 232.122811 
L 167.556889 232.835614 
L 168.340469 231.81043 
L 169.190454 233.154235 
L 169.960753 235.423743 
L 170.877144 232.743296 
L 171.581038 236.265043 
L 172.404461 236.529191 
L 173.095074 236.25977 
L 174.157556 239.738949 
L 174.755202 235.725365 
L 175.432534 239.940816 
L 176.455172 237.477727 
L 176.853603 239.31298 
L 178.075457 238.144493 
L 178.473888 239.66836 
L 179.855114 240.651179 
L 180.120734 241.945657 
L 181.581646 241.037513 
L 181.767581 243.226567 
L 183.281617 243.095427 
L 183.507394 238.619769 
L 184.769091 238.500232 
L 185.207365 241.356026 
L 186.429219 241.871727 
L 186.854211 243.571656 
L 188.14247 244.243081 
L 188.381529 245.132919 
L 189.709631 244.005939 
L 190.134624 245.887269 
L 191.290072 243.605208 
L 191.861156 245.332893 
L 192.990043 245.752734 
L 193.547846 245.145691 
L 195.234535 246.610123 
L 196.33686 247.907368 
L 196.921225 245.987892 
L 197.957145 248.2495 
L 198.581353 245.317765 
L 199.710239 246.674629 
L 200.214918 246.967767 
L 201.848484 251.301698 
L 203.535173 249.278336 
L 204.690622 250.563579 
L 205.221863 253.381207 
L 206.324188 251.939951 
L 206.868709 248.316924 
L 207.878067 253.590677 
L 208.56868 249.995087 
L 209.578038 252.852154 
L 210.122559 255.710049 
L 211.238165 252.417942 
L 211.769406 253.903395 
L 213.057665 252.03397 
L 213.456096 254.223957 
L 214.731073 256.443156 
L 215.262314 254.159274 
L 216.24511 256.070572 
L 216.935723 250.962301 
L 217.878675 256.190906 
L 218.662256 254.246186 
L 219.379431 256.477589 
L 220.362226 257.127041 
L 221.212211 260.644713 
L 222.301255 253.772737 
L 223.111397 258.332839 
L 223.881697 257.05651 
L 224.824649 257.583645 
L 225.687915 258.802274 
L 226.644149 257.993338 
L 227.547258 258.334497 
L 228.503492 259.481656 
L 229.167543 256.948754 
L 229.91128 258.256474 
L 230.907356 262.302886 
L 231.797185 261.057362 
L 232.713575 259.350339 
L 233.722933 261.339033 
L 234.639323 258.667289 
L 235.568995 261.407965 
L 236.312732 258.868915 
L 237.348651 261.41485 
L 238.225199 259.792415 
L 239.433772 262.255198 
L 240.217352 264.989713 
L 241.054056 263.487245 
L 242.063414 264.466631 
L 242.92668 264.914614 
L 243.776665 265.174409 
L 244.759461 261.485661 
L 245.66257 266.294862 
L 246.459431 265.168163 
L 248.39846 265.189289 
L 249.394537 261.68063 
L 250.204679 266.834657 
L 251.107789 269.100892 
L 251.917931 267.040114 
L 252.82104 266.204354 
L 254.50773 272.82513 
L 255.038971 268.540871 
L 256.274106 269.051337 
L 256.72566 267.061285 
L 257.974076 268.03868 
L 258.319383 271.605248 
L 259.421707 269.727978 
L 259.567799 267.044402 
L 261.201364 266.738589 
L 261.347455 270.860309 
L 262.914616 268.710426 
L 263.020864 270.101815 
L 263.990378 266.444909 
L 264.641148 270.637016 
L 265.584101 271.771442 
L 266.314557 273.399737 
L 267.27079 271.688224 
L 267.536411 272.889121 
L 268.997323 269.953803 
L 269.316068 267.30868 
L 270.77698 274.141668 
L 271.055881 273.010779 
L 272.583199 272.925493 
L 272.822257 270.838322 
L 274.323012 273.979161 
L 274.601914 275.791807 
L 275.637833 273.442407 
L 276.24876 275.15255 
L 277.085465 272.652377 
L 278.015136 271.171636 
L 278.798716 273.178755 
L 279.75495 272.565524 
L 280.511968 275.711402 
L 281.508044 276.566565 
L 282.265063 278.18126 
L 283.314263 276.461791 
L 284.004876 274.402383 
L 285.107201 274.329444 
L 285.811095 273.622965 
L 286.900139 274.507288 
L 287.617314 272.49145 
L 288.586828 278.658213 
L 289.450095 275.400702 
L 290.353204 278.389614 
L 291.269594 276.498939 
L 292.172704 277.081169 
L 293.062532 275.697573 
L 294.2047 275.875077 
L 294.735941 276.628826 
L 295.997638 279.301647 
L 296.595284 278.830431 
L 298.029634 278.399149 
L 298.547594 279.238642 
L 299.888977 278.532626 
L 300.539747 274.675322 
L 301.62879 280.536853 
L 302.66471 276.982321 
L 303.567819 276.633291 
L 304.205308 281.873466 
L 305.161542 279.885829 
L 306.131056 284.252379 
L 307.140414 277.31493 
L 308.163052 283.121079 
L 308.880228 280.888461 
L 309.849742 280.176885 
L 310.699727 278.377018 
L 311.855176 282.825421 
L 311.948143 282.452851 
L 313.900453 276.547351 
L 313.966858 284.834543 
L 315.866044 285.432855 
L 315.972293 279.888837 
L 316.755873 285.192743 
L 317.619139 278.361009 
L 318.588654 283.091873 
L 319.598011 281.477368 
L 320.10269 285.463404 
L 322.108124 279.190086 
L 323.555755 279.058331 
L 323.927624 283.713751 
L 325.388536 286.337703 
L 325.893215 280.881694 
L 326.570547 280.340938 
L 327.77912 286.758842 
L 328.42989 282.072364 
L 329.611901 283.944282 
L 330.196265 285.304448 
L 331.484524 284.030332 
L 332.135294 287.843218 
L 333.343867 284.438165 
L 333.596207 287.331622 
L 335.20321 286.37983 
L 335.402425 286.639071 
L 336.876619 289.21226 
L 337.115677 287.560032 
L 338.669557 281.236245 
L 339.028144 281.988036 
L 339.692195 287.836606 
L 341.631224 283.447319 
L 342.813235 286.152993 
L 343.331195 285.67931 
L 344.619454 286.247319 
L 345.296786 285.995871 
L 347.275658 283.685394 
L 348.617041 285.374959 
L 349.015471 285.369079 
L 350.396698 286.235167 
L 351.060749 284.404456 
L 352.441975 286.008232 
L 352.959935 289.955756 
L 354.898964 283.318018 
L 355.881759 287.321454 
L 356.652058 286.433477 
L 357.754383 287.558179 
L 358.63093 290.047674 
L 359.773098 289.058655 
L 360.264496 286.634424 
L 361.818375 287.587723 
L 362.296492 284.461686 
L 363.518346 285.597887 
L 364.142554 293.331532 
L 365.510499 289.439142 
L 366.187831 291.798646 
L 367.183907 291.284342 
L 368.166703 286.746292 
L 369.16278 288.965028 
L 370.07917 289.486041 
L 371.221338 284.64691 
L 371.965075 290.605391 
L 372.81506 286.951729 
L 374.010352 291.600022 
L 374.873618 290.830289 
L 376.387655 288.961478 
L 376.918895 286.957381 
L 377.968096 288.163179 
L 378.67199 289.164983 
L 379.946968 291.645341 
L 380.571176 291.479062 
L 381.885997 295.488 
L 382.589891 288.991956 
L 383.957836 289.285851 
L 384.648449 292.495218 
L 386.003113 287.546973 
L 386.799975 293.058456 
L 387.968705 289.106807 
L 388.858533 285.228834 
L 389.947577 291.890693 
L 390.956934 287.039241 
L 392.125664 292.734813 
L 392.776434 286.751592 
L 393.958445 284.005617 
L 394.834992 291.088394 
L 395.924036 286.641825 
L 396.521682 290.126147 
L 397.730255 292.110802 
L 398.487273 292.15351 
L 398.487273 292.15351 
" clip-path="url(#pf879fcf2a8)" style="fill: none; stroke: #1f77b4; stroke-width: 1.5; stroke-linecap: square"/>
   </g>
   <g id="line2d_15">
    <path d="M 73.832727 90.04143 
L 74.085067 176.349051 
L 74.204596 177.789141 
L 74.377249 178.465507 
L 74.709275 178.720287 
L 76.010815 178.77015 
L 79.46388 178.691718 
L 79.941997 178.611858 
L 80.393551 178.649128 
L 80.526362 178.68384 
L 80.818544 178.538377 
L 81.216975 178.639021 
L 81.827902 178.700845 
L 82.013836 178.446856 
L 83.979427 178.56062 
L 84.67004 178.191651 
L 85.015347 178.429183 
L 86.157514 178.539015 
L 86.927813 177.999921 
L 87.312963 178.398043 
L 88.083262 178.014565 
L 88.402007 178.579683 
L 89.22543 178.208105 
L 89.517612 177.70817 
L 90.380879 178.13003 
L 90.65978 178.396511 
L 91.376955 178.385288 
L 91.841791 178.142882 
L 92.545685 178.014404 
L 92.983959 177.758327 
L 93.701134 177.826145 
L 94.099565 177.566275 
L 95.095641 177.688896 
L 95.972188 177.549609 
L 96.131561 178.051705 
L 97.03467 178.247049 
L 97.180761 177.843724 
L 98.017466 177.555924 
L 98.322929 177.25212 
L 99.199476 177.458476 
L 99.451816 176.094993 
L 100.580703 177.339069 
L 101.576779 177.86592 
L 101.696308 177.794145 
L 102.811914 176.377279 
L 102.958005 174.914836 
L 103.92752 175.751788 
L 104.033768 177.982134 
L 105.029844 176.026801 
L 105.056406 176.74885 
L 106.450914 175.703044 
L 106.676691 177.465213 
L 107.752454 175.423577 
L 107.951669 176.681639 
L 109.306333 173.33143 
L 109.53211 176.110037 
L 110.860212 175.201162 
L 111.08599 173.752979 
L 112.533621 174.396173 
L 112.732836 175.937837 
L 113.396887 176.199276 
L 114.366402 175.369428 
L 115.216387 172.962653 
L 115.77419 174.336379 
L 116.996044 176.520717 
L 117.500723 175.197588 
L 118.722576 175.142651 
L 119.107726 175.798896 
L 119.94443 172.219493 
L 120.807697 172.520491 
L 121.471748 170.473304 
L 122.494386 174.860241 
L 123.238123 176.469224 
L 124.220919 175.258056 
L 124.805284 170.363485 
L 125.841203 172.452123 
L 126.345882 175.103098 
L 127.780232 176.719337 
L 128.085696 175.498051 
L 129.427079 174.226632 
L 129.878634 172.961564 
L 131.326265 171.629956 
L 131.857506 174.499015 
L 133.026236 173.534545 
L 133.570757 175.832316 
L 134.341057 174.873143 
L 135.044951 170.513933 
L 135.855093 177.074046 
L 136.705078 175.924754 
L 137.501939 172.609928 
L 137.993337 174.67854 
L 138.657388 164.620833 
L 139.507374 175.607917 
L 140.397202 165.763887 
L 141.15422 173.798858 
L 141.977643 175.729002 
L 142.814348 174.297786 
L 143.62449 175.664297 
L 144.328384 175.656127 
L 145.231493 163.566532 
L 146.001793 170.575101 
L 146.87834 174.648504 
L 147.66192 168.662209 
L 148.644716 171.456824 
L 149.308767 160.98184 
L 150.145471 171.869559 
L 150.543902 166.58362 
L 151.818879 173.979118 
L 152.137624 161.798148 
L 153.173544 173.997737 
L 153.811033 170.612571 
L 154.700861 170.994781 
L 155.484441 162.181661 
L 156.334426 171.848873 
L 156.918791 174.6889 
L 157.967992 171.173578 
L 158.485952 172.834363 
L 159.667963 175.13483 
L 160.146079 169.853097 
L 161.06247 169.484474 
L 161.71324 170.716202 
L 162.722597 173.976844 
L 163.2804 174.17635 
L 164.44913 168.978987 
L 164.980371 172.050105 
L 166.095976 175.415215 
L 166.66706 168.058556 
L 167.556889 173.230097 
L 168.340469 169.70987 
L 169.190454 172.609466 
L 169.960753 169.673392 
L 170.877144 168.157815 
L 171.581038 171.878289 
L 172.404461 173.396611 
L 173.095074 174.382385 
L 174.157556 169.376341 
L 174.755202 160.46401 
L 175.432534 173.742575 
L 176.455172 172.136007 
L 176.853603 169.703353 
L 178.075457 174.807869 
L 178.473888 174.453455 
L 179.855114 170.384573 
L 180.120734 172.783439 
L 181.581646 170.008193 
L 181.767581 166.516968 
L 183.281617 172.809713 
L 183.507394 168.564914 
L 184.769091 169.794996 
L 185.207365 170.817872 
L 186.429219 165.502635 
L 186.854211 165.978419 
L 188.14247 173.639416 
L 188.381529 158.371979 
L 189.709631 156.250889 
L 190.134624 168.37907 
L 191.290072 160.054862 
L 191.861156 166.064014 
L 192.990043 160.849234 
L 193.547846 171.951939 
L 194.650171 164.673035 
L 195.234535 172.093222 
L 196.33686 169.208571 
L 196.921225 168.809611 
L 197.957145 174.46533 
L 198.581353 168.653388 
L 199.710239 161.937551 
L 200.214918 170.39179 
L 201.343805 174.167672 
L 201.848484 173.741972 
L 203.017213 164.958997 
L 203.535173 174.332041 
L 204.690622 170.972739 
L 205.221863 174.247753 
L 206.324188 172.766565 
L 206.868709 169.43953 
L 207.878067 154.827571 
L 208.56868 172.576015 
L 209.578038 130.838126 
L 210.122559 173.335972 
L 211.238165 167.357449 
L 211.769406 143.213963 
L 213.456096 173.530332 
L 214.731073 160.017709 
L 215.262314 168.232447 
L 216.24511 165.881256 
L 216.935723 172.216434 
L 217.878675 168.606376 
L 218.662256 163.266179 
L 219.379431 165.827669 
L 220.362226 163.968412 
L 221.212211 172.131415 
L 222.301255 165.380676 
L 223.111397 170.635697 
L 223.881697 165.878099 
L 224.824649 150.521211 
L 225.687915 165.40897 
L 226.644149 171.271977 
L 227.547258 171.68095 
L 228.503492 168.613794 
L 229.167543 174.438549 
L 229.91128 159.860654 
L 230.907356 166.707841 
L 231.797185 170.312041 
L 232.713575 173.46141 
L 233.722933 162.817975 
L 234.639323 173.203133 
L 235.568995 167.836023 
L 236.312732 157.148941 
L 237.348651 169.254878 
L 238.225199 158.842198 
L 239.433772 168.248767 
L 240.217352 162.037058 
L 241.054056 168.190075 
L 242.063414 167.19187 
L 242.92668 171.448277 
L 243.776665 164.663891 
L 244.759461 144.531897 
L 245.66257 161.574316 
L 246.459431 162.510246 
L 247.601599 149.374695 
L 248.39846 171.033739 
L 249.394537 150.120469 
L 250.204679 155.049318 
L 251.107789 162.715872 
L 251.917931 168.578924 
L 252.82104 162.326889 
L 253.631182 171.342659 
L 254.50773 165.29933 
L 255.038971 168.101336 
L 256.274106 155.316909 
L 256.72566 167.889914 
L 257.974076 146.879414 
L 258.319383 167.409673 
L 259.421707 169.020401 
L 259.567799 170.676614 
L 261.201364 161.751406 
L 261.347455 163.559521 
L 262.914616 129.208359 
L 263.020864 150.477116 
L 263.990378 169.373098 
L 264.641148 171.087847 
L 265.584101 157.0203 
L 266.314557 162.2271 
L 267.27079 167.565261 
L 267.536411 155.967822 
L 268.997323 105.62207 
L 269.316068 170.320831 
L 270.77698 162.87295 
L 271.055881 158.04926 
L 272.583199 167.973762 
L 272.822257 164.886721 
L 274.323012 169.777734 
L 274.601914 166.794934 
L 275.637833 167.116937 
L 276.24876 158.603061 
L 277.085465 169.030396 
L 278.015136 129.717308 
L 278.798716 166.023881 
L 279.75495 167.625748 
L 280.511968 172.187768 
L 281.508044 167.146694 
L 282.265063 145.647142 
L 283.314263 161.79649 
L 284.004876 160.874624 
L 285.107201 158.315571 
L 285.811095 166.504285 
L 286.900139 139.651787 
L 287.617314 152.120415 
L 288.586828 165.67032 
L 289.450095 165.042818 
L 290.353204 125.128307 
L 291.269594 169.45352 
L 292.172704 94.941777 
L 293.062532 168.831132 
L 294.2047 163.552087 
L 294.735941 165.453709 
L 295.997638 166.737993 
L 296.595284 166.744734 
L 298.029634 165.539644 
L 298.547594 157.590738 
L 299.888977 163.226785 
L 300.539747 169.989591 
L 301.62879 169.959614 
L 302.66471 154.911771 
L 303.567819 165.23377 
L 304.205308 170.110563 
L 305.161542 158.301652 
L 306.131056 168.120289 
L 307.140414 137.566881 
L 308.163052 170.690282 
L 309.849742 155.205138 
L 310.699727 167.561555 
L 311.855176 169.691746 
L 311.948143 167.314365 
L 313.900453 169.452104 
L 313.966858 167.572958 
L 315.866044 163.885542 
L 315.972293 166.621423 
L 316.755873 169.185801 
L 317.619139 152.310129 
L 318.588654 155.326791 
L 319.598011 126.634687 
L 320.10269 128.454906 
L 321.616726 159.568392 
L 322.108124 166.862364 
L 323.555755 161.661499 
L 323.927624 152.946748 
L 325.388536 170.659449 
L 325.893215 166.886641 
L 326.570547 155.529799 
L 327.77912 171.670845 
L 328.42989 164.083554 
L 329.611901 167.147985 
L 330.196265 162.326607 
L 331.484524 157.406406 
L 332.135294 167.944321 
L 333.343867 158.002989 
L 333.596207 171.144171 
L 335.20321 53.568 
L 335.402425 164.555242 
L 336.876619 170.511257 
L 337.115677 169.078982 
L 338.669557 158.189067 
L 339.028144 126.796296 
L 339.692195 110.746768 
L 340.980454 132.246239 
L 341.631224 170.42004 
L 342.813235 165.696006 
L 343.331195 169.677724 
L 344.619454 166.406636 
L 345.296786 166.610902 
L 346.505359 165.036525 
L 347.275658 161.047355 
L 348.617041 116.09196 
L 349.015471 164.926249 
L 350.396698 170.099471 
L 351.060749 121.943923 
L 352.441975 169.020793 
L 352.959935 165.902436 
L 354.540376 138.454127 
L 354.898964 162.519905 
L 355.881759 163.614921 
L 356.652058 166.867959 
L 357.754383 153.326473 
L 358.63093 158.970237 
L 359.773098 167.274131 
L 360.264496 168.830011 
L 361.818375 170.671672 
L 362.296492 153.400989 
L 363.518346 165.454884 
L 364.142554 167.972205 
L 365.510499 124.614434 
L 366.187831 171.108888 
L 367.183907 145.239348 
L 368.166703 164.774934 
L 369.16278 159.232431 
L 370.07917 156.925312 
L 371.221338 160.273404 
L 371.965075 164.941503 
L 372.81506 164.48525 
L 374.010352 159.834544 
L 374.873618 169.160072 
L 376.387655 167.395173 
L 376.918895 158.675885 
L 377.968096 151.066264 
L 378.67199 167.769849 
L 379.946968 170.972023 
L 380.571176 148.607668 
L 381.885997 168.151889 
L 382.589891 141.075674 
L 383.957836 158.991799 
L 384.648449 170.0462 
L 386.003113 165.74306 
L 386.799975 168.889897 
L 387.968705 161.744817 
L 388.858533 155.564199 
L 389.947577 158.804783 
L 390.956934 107.425919 
L 392.125664 158.543049 
L 392.776434 150.725434 
L 393.958445 163.153772 
L 394.834992 168.097522 
L 395.924036 166.512003 
L 396.521682 161.222751 
L 397.730255 78.658626 
L 398.487273 145.879963 
L 398.487273 145.879963 
" clip-path="url(#pf879fcf2a8)" style="fill: none; stroke: #ff7f0e; stroke-width: 1.5; stroke-linecap: square"/>
   </g>
   <g id="patch_3">
    <path d="M 57.6 307.584 
L 57.6 41.472 
" style="fill: none; stroke: #000000; stroke-width: 0.8; stroke-linejoin: miter; stroke-linecap: square"/>
   </g>
   <g id="patch_4">
    <path d="M 414.72 307.584 
L 414.72 41.472 
" style="fill: none; stroke: #000000; stroke-width: 0.8; stroke-linejoin: miter; stroke-linecap: square"/>
   </g>
   <g id="patch_5">
    <path d="M 57.6 307.584 
L 414.72 307.584 
" style="fill: none; stroke: #000000; stroke-width: 0.8; stroke-linejoin: miter; stroke-linecap: square"/>
   </g>
   <g id="patch_6">
    <path d="M 57.6 41.472 
L 414.72 41.472 
" style="fill: none; stroke: #000000; stroke-width: 0.8; stroke-linejoin: miter; stroke-linecap: square"/>
   </g>
   <g id="text_16">
    <!-- actor and critic loss -->
    <g transform="translate(177.345 35.472) scale(0.12 -0.12)">
     <defs>
      <path id="DejaVuSans-61" d="M 2194 1759 
Q 1497 1759 1228 1600 
Q 959 1441 959 1056 
Q 959 750 1161 570 
Q 1363 391 1709 391 
Q 2188 391 2477 730 
Q 2766 1069 2766 1631 
L 2766 1759 
L 2194 1759 
z
M 3341 1997 
L 3341 0 
L 2766 0 
L 2766 531 
Q 2569 213 2275 61 
Q 1981 -91 1556 -91 
Q 1019 -91 701 211 
Q 384 513 384 1019 
Q 384 1609 779 1909 
Q 1175 2209 1959 2209 
L 2766 2209 
L 2766 2266 
Q 2766 2663 2505 2880 
Q 2244 3097 1772 3097 
Q 1472 3097 1187 3025 
Q 903 2953 641 2809 
L 641 3341 
Q 956 3463 1253 3523 
Q 1550 3584 1831 3584 
Q 2591 3584 2966 3190 
Q 3341 2797 3341 1997 
z
" transform="scale(0.015625)"/>
      <path id="DejaVuSans-63" d="M 3122 3366 
L 3122 2828 
Q 2878 2963 2633 3030 
Q 2388 3097 2138 3097 
Q 1578 3097 1268 2742 
Q 959 2388 959 1747 
Q 959 1106 1268 751 
Q 1578 397 2138 397 
Q 2388 397 2633 464 
Q 2878 531 3122 666 
L 3122 134 
Q 2881 22 2623 -34 
Q 2366 -91 2075 -91 
Q 1284 -91 818 406 
Q 353 903 353 1747 
Q 353 2603 823 3093 
Q 1294 3584 2113 3584 
Q 2378 3584 2631 3529 
Q 2884 3475 3122 3366 
z
" transform="scale(0.015625)"/>
      <path id="DejaVuSans-72" d="M 2631 2963 
Q 2534 3019 2420 3045 
Q 2306 3072 2169 3072 
Q 1681 3072 1420 2755 
Q 1159 2438 1159 1844 
L 1159 0 
L 581 0 
L 581 3500 
L 1159 3500 
L 1159 2956 
Q 1341 3275 1631 3429 
Q 1922 3584 2338 3584 
Q 2397 3584 2469 3576 
Q 2541 3569 2628 3553 
L 2631 2963 
z
" transform="scale(0.015625)"/>
      <path id="DejaVuSans-6e" d="M 3513 2113 
L 3513 0 
L 2938 0 
L 2938 2094 
Q 2938 2591 2744 2837 
Q 2550 3084 2163 3084 
Q 1697 3084 1428 2787 
Q 1159 2491 1159 1978 
L 1159 0 
L 581 0 
L 581 3500 
L 1159 3500 
L 1159 2956 
Q 1366 3272 1645 3428 
Q 1925 3584 2291 3584 
Q 2894 3584 3203 3211 
Q 3513 2838 3513 2113 
z
" transform="scale(0.015625)"/>
      <path id="DejaVuSans-64" d="M 2906 2969 
L 2906 4863 
L 3481 4863 
L 3481 0 
L 2906 0 
L 2906 525 
Q 2725 213 2448 61 
Q 2172 -91 1784 -91 
Q 1150 -91 751 415 
Q 353 922 353 1747 
Q 353 2572 751 3078 
Q 1150 3584 1784 3584 
Q 2172 3584 2448 3432 
Q 2725 3281 2906 2969 
z
M 947 1747 
Q 947 1113 1208 752 
Q 1469 391 1925 391 
Q 2381 391 2643 752 
Q 2906 1113 2906 1747 
Q 2906 2381 2643 2742 
Q 2381 3103 1925 3103 
Q 1469 3103 1208 2742 
Q 947 2381 947 1747 
z
" transform="scale(0.015625)"/>
     </defs>
     <use xlink:href="#DejaVuSans-61"/>
     <use xlink:href="#DejaVuSans-63" x="61.279297"/>
     <use xlink:href="#DejaVuSans-74" x="116.259766"/>
     <use xlink:href="#DejaVuSans-6f" x="155.46875"/>
     <use xlink:href="#DejaVuSans-72" x="216.650391"/>
     <use xlink:href="#DejaVuSans-20" x="257.763672"/>
     <use xlink:href="#DejaVuSans-61" x="289.550781"/>
     <use xlink:href="#DejaVuSans-6e" x="350.830078"/>
     <use xlink:href="#DejaVuSans-64" x="414.208984"/>
     <use xlink:href="#DejaVuSans-20" x="477.685547"/>
     <use xlink:href="#DejaVuSans-63" x="509.472656"/>
     <use xlink:href="#DejaVuSans-72" x="564.453125"/>
     <use xlink:href="#DejaVuSans-69" x="605.566406"/>
     <use xlink:href="#DejaVuSans-74" x="633.349609"/>
     <use xlink:href="#DejaVuSans-69" x="672.558594"/>
     <use xlink:href="#DejaVuSans-63" x="700.341797"/>
     <use xlink:href="#DejaVuSans-20" x="755.322266"/>
     <use xlink:href="#DejaVuSans-6c" x="787.109375"/>
     <use xlink:href="#DejaVuSans-6f" x="814.892578"/>
     <use xlink:href="#DejaVuSans-73" x="876.074219"/>
     <use xlink:href="#DejaVuSans-73" x="928.173828"/>
    </g>
   </g>
   <g id="legend_1">
    <g id="patch_7">
     <path d="M 64.6 78.82825 
L 144.870313 78.82825 
Q 146.870313 78.82825 146.870313 76.82825 
L 146.870313 48.472 
Q 146.870313 46.472 144.870313 46.472 
L 64.6 46.472 
Q 62.6 46.472 62.6 48.472 
L 62.6 76.82825 
Q 62.6 78.82825 64.6 78.82825 
z
" style="fill: #ffffff; opacity: 0.8; stroke: #cccccc; stroke-linejoin: miter"/>
    </g>
    <g id="line2d_16">
     <path d="M 66.6 54.570437 
L 76.6 54.570437 
L 86.6 54.570437 
" style="fill: none; stroke: #1f77b4; stroke-width: 1.5; stroke-linecap: square"/>
    </g>
    <g id="text_17">
     <!-- actor loss -->
     <g transform="translate(94.6 58.070437) scale(0.1 -0.1)">
      <use xlink:href="#DejaVuSans-61"/>
      <use xlink:href="#DejaVuSans-63" x="61.279297"/>
      <use xlink:href="#DejaVuSans-74" x="116.259766"/>
      <use xlink:href="#DejaVuSans-6f" x="155.46875"/>
      <use xlink:href="#DejaVuSans-72" x="216.650391"/>
      <use xlink:href="#DejaVuSans-20" x="257.763672"/>
      <use xlink:href="#DejaVuSans-6c" x="289.550781"/>
      <use xlink:href="#DejaVuSans-6f" x="317.333984"/>
      <use xlink:href="#DejaVuSans-73" x="378.515625"/>
      <use xlink:href="#DejaVuSans-73" x="430.615234"/>
     </g>
    </g>
    <g id="line2d_17">
     <path d="M 66.6 69.248562 
L 76.6 69.248562 
L 86.6 69.248562 
" style="fill: none; stroke: #ff7f0e; stroke-width: 1.5; stroke-linecap: square"/>
    </g>
    <g id="text_18">
     <!-- critic loss -->
     <g transform="translate(94.6 72.748562) scale(0.1 -0.1)">
      <use xlink:href="#DejaVuSans-63"/>
      <use xlink:href="#DejaVuSans-72" x="54.980469"/>
      <use xlink:href="#DejaVuSans-69" x="96.09375"/>
      <use xlink:href="#DejaVuSans-74" x="123.876953"/>
      <use xlink:href="#DejaVuSans-69" x="163.085938"/>
      <use xlink:href="#DejaVuSans-63" x="190.869141"/>
      <use xlink:href="#DejaVuSans-20" x="245.849609"/>
      <use xlink:href="#DejaVuSans-6c" x="277.636719"/>
      <use xlink:href="#DejaVuSans-6f" x="305.419922"/>
      <use xlink:href="#DejaVuSans-73" x="366.601562"/>
      <use xlink:href="#DejaVuSans-73" x="418.701172"/>
     </g>
    </g>
   </g>
  </g>
 </g>
 <defs>
  <clipPath id="pf879fcf2a8">
   <rect x="57.6" y="41.472" width="357.12" height="266.112"/>
  </clipPath>
 </defs>
</svg>
