<?xml version="1.0" encoding="utf-8" standalone="no"?>
<!DOCTYPE svg PUBLIC "-//W3C//DTD SVG 1.1//EN"
  "http://www.w3.org/Graphics/SVG/1.1/DTD/svg11.dtd">
<svg xmlns:xlink="http://www.w3.org/1999/xlink" width="460.8pt" height="345.6pt" viewBox="0 0 460.8 345.6" xmlns="http://www.w3.org/2000/svg" version="1.1">
 <metadata>
  <rdf:RDF xmlns:dc="http://purl.org/dc/elements/1.1/" xmlns:cc="http://creativecommons.org/ns#" xmlns:rdf="http://www.w3.org/1999/02/22-rdf-syntax-ns#">
   <cc:Work>
    <dc:type rdf:resource="http://purl.org/dc/dcmitype/StillImage"/>
    <dc:date>2023-08-18T16:38:28.072314</dc:date>
    <dc:format>image/svg+xml</dc:format>
    <dc:creator>
     <cc:Agent>
      <dc:title>Matplotlib v3.7.1, https://matplotlib.org/</dc:title>
     </cc:Agent>
    </dc:creator>
   </cc:Work>
  </rdf:RDF>
 </metadata>
 <defs>
  <style type="text/css">*{stroke-linejoin: round; stroke-linecap: butt}</style>
 </defs>
 <g id="figure_1">
  <g id="patch_1">
   <path d="M 0 345.6 
L 460.8 345.6 
L 460.8 0 
L 0 0 
z
" style="fill: #ffffff"/>
  </g>
  <g id="axes_1">
   <g id="patch_2">
    <path d="M 57.6 307.584 
L 414.72 307.584 
L 414.72 41.472 
L 57.6 41.472 
z
" style="fill: #ffffff"/>
   </g>
   <g id="matplotlib.axis_1">
    <g id="xtick_1">
     <g id="line2d_1">
      <defs>
       <path id="m4606197df5" d="M 0 0 
L 0 3.5 
" style="stroke: #000000; stroke-width: 0.8"/>
      </defs>
      <g>
       <use xlink:href="#m4606197df5" x="71.741555" y="307.584" style="stroke: #000000; stroke-width: 0.8"/>
      </g>
     </g>
     <g id="text_1">
      <!-- 0 -->
      <g transform="translate(68.560305 322.182437) scale(0.1 -0.1)">
       <defs>
        <path id="DejaVuSans-30" d="M 2034 4250 
Q 1547 4250 1301 3770 
Q 1056 3291 1056 2328 
Q 1056 1369 1301 889 
Q 1547 409 2034 409 
Q 2525 409 2770 889 
Q 3016 1369 3016 2328 
Q 3016 3291 2770 3770 
Q 2525 4250 2034 4250 
z
M 2034 4750 
Q 2819 4750 3233 4129 
Q 3647 3509 3647 2328 
Q 3647 1150 3233 529 
Q 2819 -91 2034 -91 
Q 1250 -91 836 529 
Q 422 1150 422 2328 
Q 422 3509 836 4129 
Q 1250 4750 2034 4750 
z
" transform="scale(0.015625)"/>
       </defs>
       <use xlink:href="#DejaVuSans-30"/>
      </g>
     </g>
    </g>
    <g id="xtick_2">
     <g id="line2d_2">
      <g>
       <use xlink:href="#m4606197df5" x="137.090698" y="307.584" style="stroke: #000000; stroke-width: 0.8"/>
      </g>
     </g>
     <g id="text_2">
      <!-- 10000 -->
      <g transform="translate(121.184448 322.182437) scale(0.1 -0.1)">
       <defs>
        <path id="DejaVuSans-31" d="M 794 531 
L 1825 531 
L 1825 4091 
L 703 3866 
L 703 4441 
L 1819 4666 
L 2450 4666 
L 2450 531 
L 3481 531 
L 3481 0 
L 794 0 
L 794 531 
z
" transform="scale(0.015625)"/>
       </defs>
       <use xlink:href="#DejaVuSans-31"/>
       <use xlink:href="#DejaVuSans-30" x="63.623047"/>
       <use xlink:href="#DejaVuSans-30" x="127.246094"/>
       <use xlink:href="#DejaVuSans-30" x="190.869141"/>
       <use xlink:href="#DejaVuSans-30" x="254.492188"/>
      </g>
     </g>
    </g>
    <g id="xtick_3">
     <g id="line2d_3">
      <g>
       <use xlink:href="#m4606197df5" x="202.439842" y="307.584" style="stroke: #000000; stroke-width: 0.8"/>
      </g>
     </g>
     <g id="text_3">
      <!-- 20000 -->
      <g transform="translate(186.533592 322.182437) scale(0.1 -0.1)">
       <defs>
        <path id="DejaVuSans-32" d="M 1228 531 
L 3431 531 
L 3431 0 
L 469 0 
L 469 531 
Q 828 903 1448 1529 
Q 2069 2156 2228 2338 
Q 2531 2678 2651 2914 
Q 2772 3150 2772 3378 
Q 2772 3750 2511 3984 
Q 2250 4219 1831 4219 
Q 1534 4219 1204 4116 
Q 875 4013 500 3803 
L 500 4441 
Q 881 4594 1212 4672 
Q 1544 4750 1819 4750 
Q 2544 4750 2975 4387 
Q 3406 4025 3406 3419 
Q 3406 3131 3298 2873 
Q 3191 2616 2906 2266 
Q 2828 2175 2409 1742 
Q 1991 1309 1228 531 
z
" transform="scale(0.015625)"/>
       </defs>
       <use xlink:href="#DejaVuSans-32"/>
       <use xlink:href="#DejaVuSans-30" x="63.623047"/>
       <use xlink:href="#DejaVuSans-30" x="127.246094"/>
       <use xlink:href="#DejaVuSans-30" x="190.869141"/>
       <use xlink:href="#DejaVuSans-30" x="254.492188"/>
      </g>
     </g>
    </g>
    <g id="xtick_4">
     <g id="line2d_4">
      <g>
       <use xlink:href="#m4606197df5" x="267.788986" y="307.584" style="stroke: #000000; stroke-width: 0.8"/>
      </g>
     </g>
     <g id="text_4">
      <!-- 30000 -->
      <g transform="translate(251.882736 322.182437) scale(0.1 -0.1)">
       <defs>
        <path id="DejaVuSans-33" d="M 2597 2516 
Q 3050 2419 3304 2112 
Q 3559 1806 3559 1356 
Q 3559 666 3084 287 
Q 2609 -91 1734 -91 
Q 1441 -91 1130 -33 
Q 819 25 488 141 
L 488 750 
Q 750 597 1062 519 
Q 1375 441 1716 441 
Q 2309 441 2620 675 
Q 2931 909 2931 1356 
Q 2931 1769 2642 2001 
Q 2353 2234 1838 2234 
L 1294 2234 
L 1294 2753 
L 1863 2753 
Q 2328 2753 2575 2939 
Q 2822 3125 2822 3475 
Q 2822 3834 2567 4026 
Q 2313 4219 1838 4219 
Q 1578 4219 1281 4162 
Q 984 4106 628 3988 
L 628 4550 
Q 988 4650 1302 4700 
Q 1616 4750 1894 4750 
Q 2613 4750 3031 4423 
Q 3450 4097 3450 3541 
Q 3450 3153 3228 2886 
Q 3006 2619 2597 2516 
z
" transform="scale(0.015625)"/>
       </defs>
       <use xlink:href="#DejaVuSans-33"/>
       <use xlink:href="#DejaVuSans-30" x="63.623047"/>
       <use xlink:href="#DejaVuSans-30" x="127.246094"/>
       <use xlink:href="#DejaVuSans-30" x="190.869141"/>
       <use xlink:href="#DejaVuSans-30" x="254.492188"/>
      </g>
     </g>
    </g>
    <g id="xtick_5">
     <g id="line2d_5">
      <g>
       <use xlink:href="#m4606197df5" x="333.138129" y="307.584" style="stroke: #000000; stroke-width: 0.8"/>
      </g>
     </g>
     <g id="text_5">
      <!-- 40000 -->
      <g transform="translate(317.231879 322.182437) scale(0.1 -0.1)">
       <defs>
        <path id="DejaVuSans-34" d="M 2419 4116 
L 825 1625 
L 2419 1625 
L 2419 4116 
z
M 2253 4666 
L 3047 4666 
L 3047 1625 
L 3713 1625 
L 3713 1100 
L 3047 1100 
L 3047 0 
L 2419 0 
L 2419 1100 
L 313 1100 
L 313 1709 
L 2253 4666 
z
" transform="scale(0.015625)"/>
       </defs>
       <use xlink:href="#DejaVuSans-34"/>
       <use xlink:href="#DejaVuSans-30" x="63.623047"/>
       <use xlink:href="#DejaVuSans-30" x="127.246094"/>
       <use xlink:href="#DejaVuSans-30" x="190.869141"/>
       <use xlink:href="#DejaVuSans-30" x="254.492188"/>
      </g>
     </g>
    </g>
    <g id="xtick_6">
     <g id="line2d_6">
      <g>
       <use xlink:href="#m4606197df5" x="398.487273" y="307.584" style="stroke: #000000; stroke-width: 0.8"/>
      </g>
     </g>
     <g id="text_6">
      <!-- 50000 -->
      <g transform="translate(382.581023 322.182437) scale(0.1 -0.1)">
       <defs>
        <path id="DejaVuSans-35" d="M 691 4666 
L 3169 4666 
L 3169 4134 
L 1269 4134 
L 1269 2991 
Q 1406 3038 1543 3061 
Q 1681 3084 1819 3084 
Q 2600 3084 3056 2656 
Q 3513 2228 3513 1497 
Q 3513 744 3044 326 
Q 2575 -91 1722 -91 
Q 1428 -91 1123 -41 
Q 819 9 494 109 
L 494 744 
Q 775 591 1075 516 
Q 1375 441 1709 441 
Q 2250 441 2565 725 
Q 2881 1009 2881 1497 
Q 2881 1984 2565 2268 
Q 2250 2553 1709 2553 
Q 1456 2553 1204 2497 
Q 953 2441 691 2322 
L 691 4666 
z
" transform="scale(0.015625)"/>
       </defs>
       <use xlink:href="#DejaVuSans-35"/>
       <use xlink:href="#DejaVuSans-30" x="63.623047"/>
       <use xlink:href="#DejaVuSans-30" x="127.246094"/>
       <use xlink:href="#DejaVuSans-30" x="190.869141"/>
       <use xlink:href="#DejaVuSans-30" x="254.492188"/>
      </g>
     </g>
    </g>
    <g id="text_7">
     <!-- timesteps -->
     <g transform="translate(211.443594 335.860562) scale(0.1 -0.1)">
      <defs>
       <path id="DejaVuSans-74" d="M 1172 4494 
L 1172 3500 
L 2356 3500 
L 2356 3053 
L 1172 3053 
L 1172 1153 
Q 1172 725 1289 603 
Q 1406 481 1766 481 
L 2356 481 
L 2356 0 
L 1766 0 
Q 1100 0 847 248 
Q 594 497 594 1153 
L 594 3053 
L 172 3053 
L 172 3500 
L 594 3500 
L 594 4494 
L 1172 4494 
z
" transform="scale(0.015625)"/>
       <path id="DejaVuSans-69" d="M 603 3500 
L 1178 3500 
L 1178 0 
L 603 0 
L 603 3500 
z
M 603 4863 
L 1178 4863 
L 1178 4134 
L 603 4134 
L 603 4863 
z
" transform="scale(0.015625)"/>
       <path id="DejaVuSans-6d" d="M 3328 2828 
Q 3544 3216 3844 3400 
Q 4144 3584 4550 3584 
Q 5097 3584 5394 3201 
Q 5691 2819 5691 2113 
L 5691 0 
L 5113 0 
L 5113 2094 
Q 5113 2597 4934 2840 
Q 4756 3084 4391 3084 
Q 3944 3084 3684 2787 
Q 3425 2491 3425 1978 
L 3425 0 
L 2847 0 
L 2847 2094 
Q 2847 2600 2669 2842 
Q 2491 3084 2119 3084 
Q 1678 3084 1418 2786 
Q 1159 2488 1159 1978 
L 1159 0 
L 581 0 
L 581 3500 
L 1159 3500 
L 1159 2956 
Q 1356 3278 1631 3431 
Q 1906 3584 2284 3584 
Q 2666 3584 2933 3390 
Q 3200 3197 3328 2828 
z
" transform="scale(0.015625)"/>
       <path id="DejaVuSans-65" d="M 3597 1894 
L 3597 1613 
L 953 1613 
Q 991 1019 1311 708 
Q 1631 397 2203 397 
Q 2534 397 2845 478 
Q 3156 559 3463 722 
L 3463 178 
Q 3153 47 2828 -22 
Q 2503 -91 2169 -91 
Q 1331 -91 842 396 
Q 353 884 353 1716 
Q 353 2575 817 3079 
Q 1281 3584 2069 3584 
Q 2775 3584 3186 3129 
Q 3597 2675 3597 1894 
z
M 3022 2063 
Q 3016 2534 2758 2815 
Q 2500 3097 2075 3097 
Q 1594 3097 1305 2825 
Q 1016 2553 972 2059 
L 3022 2063 
z
" transform="scale(0.015625)"/>
       <path id="DejaVuSans-73" d="M 2834 3397 
L 2834 2853 
Q 2591 2978 2328 3040 
Q 2066 3103 1784 3103 
Q 1356 3103 1142 2972 
Q 928 2841 928 2578 
Q 928 2378 1081 2264 
Q 1234 2150 1697 2047 
L 1894 2003 
Q 2506 1872 2764 1633 
Q 3022 1394 3022 966 
Q 3022 478 2636 193 
Q 2250 -91 1575 -91 
Q 1294 -91 989 -36 
Q 684 19 347 128 
L 347 722 
Q 666 556 975 473 
Q 1284 391 1588 391 
Q 1994 391 2212 530 
Q 2431 669 2431 922 
Q 2431 1156 2273 1281 
Q 2116 1406 1581 1522 
L 1381 1569 
Q 847 1681 609 1914 
Q 372 2147 372 2553 
Q 372 3047 722 3315 
Q 1072 3584 1716 3584 
Q 2034 3584 2315 3537 
Q 2597 3491 2834 3397 
z
" transform="scale(0.015625)"/>
       <path id="DejaVuSans-70" d="M 1159 525 
L 1159 -1331 
L 581 -1331 
L 581 3500 
L 1159 3500 
L 1159 2969 
Q 1341 3281 1617 3432 
Q 1894 3584 2278 3584 
Q 2916 3584 3314 3078 
Q 3713 2572 3713 1747 
Q 3713 922 3314 415 
Q 2916 -91 2278 -91 
Q 1894 -91 1617 61 
Q 1341 213 1159 525 
z
M 3116 1747 
Q 3116 2381 2855 2742 
Q 2594 3103 2138 3103 
Q 1681 3103 1420 2742 
Q 1159 2381 1159 1747 
Q 1159 1113 1420 752 
Q 1681 391 2138 391 
Q 2594 391 2855 752 
Q 3116 1113 3116 1747 
z
" transform="scale(0.015625)"/>
      </defs>
      <use xlink:href="#DejaVuSans-74"/>
      <use xlink:href="#DejaVuSans-69" x="39.208984"/>
      <use xlink:href="#DejaVuSans-6d" x="66.992188"/>
      <use xlink:href="#DejaVuSans-65" x="164.404297"/>
      <use xlink:href="#DejaVuSans-73" x="225.927734"/>
      <use xlink:href="#DejaVuSans-74" x="278.027344"/>
      <use xlink:href="#DejaVuSans-65" x="317.236328"/>
      <use xlink:href="#DejaVuSans-70" x="378.759766"/>
      <use xlink:href="#DejaVuSans-73" x="442.236328"/>
     </g>
    </g>
   </g>
   <g id="matplotlib.axis_2">
    <g id="ytick_1">
     <g id="line2d_7">
      <defs>
       <path id="md3c41c70d5" d="M 0 0 
L -3.5 0 
" style="stroke: #000000; stroke-width: 0.8"/>
      </defs>
      <g>
       <use xlink:href="#md3c41c70d5" x="57.6" y="305.778853" style="stroke: #000000; stroke-width: 0.8"/>
      </g>
     </g>
     <g id="text_8">
      <!-- 0 -->
      <g transform="translate(44.2375 309.578072) scale(0.1 -0.1)">
       <use xlink:href="#DejaVuSans-30"/>
      </g>
     </g>
    </g>
    <g id="ytick_2">
     <g id="line2d_8">
      <g>
       <use xlink:href="#md3c41c70d5" x="57.6" y="273.317427" style="stroke: #000000; stroke-width: 0.8"/>
      </g>
     </g>
     <g id="text_9">
      <!-- 25 -->
      <g transform="translate(37.875 277.116646) scale(0.1 -0.1)">
       <use xlink:href="#DejaVuSans-32"/>
       <use xlink:href="#DejaVuSans-35" x="63.623047"/>
      </g>
     </g>
    </g>
    <g id="ytick_3">
     <g id="line2d_9">
      <g>
       <use xlink:href="#md3c41c70d5" x="57.6" y="240.856001" style="stroke: #000000; stroke-width: 0.8"/>
      </g>
     </g>
     <g id="text_10">
      <!-- 50 -->
      <g transform="translate(37.875 244.65522) scale(0.1 -0.1)">
       <use xlink:href="#DejaVuSans-35"/>
       <use xlink:href="#DejaVuSans-30" x="63.623047"/>
      </g>
     </g>
    </g>
    <g id="ytick_4">
     <g id="line2d_10">
      <g>
       <use xlink:href="#md3c41c70d5" x="57.6" y="208.394575" style="stroke: #000000; stroke-width: 0.8"/>
      </g>
     </g>
     <g id="text_11">
      <!-- 75 -->
      <g transform="translate(37.875 212.193794) scale(0.1 -0.1)">
       <defs>
        <path id="DejaVuSans-37" d="M 525 4666 
L 3525 4666 
L 3525 4397 
L 1831 0 
L 1172 0 
L 2766 4134 
L 525 4134 
L 525 4666 
z
" transform="scale(0.015625)"/>
       </defs>
       <use xlink:href="#DejaVuSans-37"/>
       <use xlink:href="#DejaVuSans-35" x="63.623047"/>
      </g>
     </g>
    </g>
    <g id="ytick_5">
     <g id="line2d_11">
      <g>
       <use xlink:href="#md3c41c70d5" x="57.6" y="175.93315" style="stroke: #000000; stroke-width: 0.8"/>
      </g>
     </g>
     <g id="text_12">
      <!-- 100 -->
      <g transform="translate(31.5125 179.732368) scale(0.1 -0.1)">
       <use xlink:href="#DejaVuSans-31"/>
       <use xlink:href="#DejaVuSans-30" x="63.623047"/>
       <use xlink:href="#DejaVuSans-30" x="127.246094"/>
      </g>
     </g>
    </g>
    <g id="ytick_6">
     <g id="line2d_12">
      <g>
       <use xlink:href="#md3c41c70d5" x="57.6" y="143.471724" style="stroke: #000000; stroke-width: 0.8"/>
      </g>
     </g>
     <g id="text_13">
      <!-- 125 -->
      <g transform="translate(31.5125 147.270943) scale(0.1 -0.1)">
       <use xlink:href="#DejaVuSans-31"/>
       <use xlink:href="#DejaVuSans-32" x="63.623047"/>
       <use xlink:href="#DejaVuSans-35" x="127.246094"/>
      </g>
     </g>
    </g>
    <g id="ytick_7">
     <g id="line2d_13">
      <g>
       <use xlink:href="#md3c41c70d5" x="57.6" y="111.010298" style="stroke: #000000; stroke-width: 0.8"/>
      </g>
     </g>
     <g id="text_14">
      <!-- 150 -->
      <g transform="translate(31.5125 114.809517) scale(0.1 -0.1)">
       <use xlink:href="#DejaVuSans-31"/>
       <use xlink:href="#DejaVuSans-35" x="63.623047"/>
       <use xlink:href="#DejaVuSans-30" x="127.246094"/>
      </g>
     </g>
    </g>
    <g id="ytick_8">
     <g id="line2d_14">
      <g>
       <use xlink:href="#md3c41c70d5" x="57.6" y="78.548872" style="stroke: #000000; stroke-width: 0.8"/>
      </g>
     </g>
     <g id="text_15">
      <!-- 175 -->
      <g transform="translate(31.5125 82.348091) scale(0.1 -0.1)">
       <use xlink:href="#DejaVuSans-31"/>
       <use xlink:href="#DejaVuSans-37" x="63.623047"/>
       <use xlink:href="#DejaVuSans-35" x="127.246094"/>
      </g>
     </g>
    </g>
    <g id="ytick_9">
     <g id="line2d_15">
      <g>
       <use xlink:href="#md3c41c70d5" x="57.6" y="46.087446" style="stroke: #000000; stroke-width: 0.8"/>
      </g>
     </g>
     <g id="text_16">
      <!-- 200 -->
      <g transform="translate(31.5125 49.886665) scale(0.1 -0.1)">
       <use xlink:href="#DejaVuSans-32"/>
       <use xlink:href="#DejaVuSans-30" x="63.623047"/>
       <use xlink:href="#DejaVuSans-30" x="127.246094"/>
      </g>
     </g>
    </g>
    <g id="text_17">
     <!-- mean episode rewards -->
     <g transform="translate(25.432812 231.360031) rotate(-90) scale(0.1 -0.1)">
      <defs>
       <path id="DejaVuSans-61" d="M 2194 1759 
Q 1497 1759 1228 1600 
Q 959 1441 959 1056 
Q 959 750 1161 570 
Q 1363 391 1709 391 
Q 2188 391 2477 730 
Q 2766 1069 2766 1631 
L 2766 1759 
L 2194 1759 
z
M 3341 1997 
L 3341 0 
L 2766 0 
L 2766 531 
Q 2569 213 2275 61 
Q 1981 -91 1556 -91 
Q 1019 -91 701 211 
Q 384 513 384 1019 
Q 384 1609 779 1909 
Q 1175 2209 1959 2209 
L 2766 2209 
L 2766 2266 
Q 2766 2663 2505 2880 
Q 2244 3097 1772 3097 
Q 1472 3097 1187 3025 
Q 903 2953 641 2809 
L 641 3341 
Q 956 3463 1253 3523 
Q 1550 3584 1831 3584 
Q 2591 3584 2966 3190 
Q 3341 2797 3341 1997 
z
" transform="scale(0.015625)"/>
       <path id="DejaVuSans-6e" d="M 3513 2113 
L 3513 0 
L 2938 0 
L 2938 2094 
Q 2938 2591 2744 2837 
Q 2550 3084 2163 3084 
Q 1697 3084 1428 2787 
Q 1159 2491 1159 1978 
L 1159 0 
L 581 0 
L 581 3500 
L 1159 3500 
L 1159 2956 
Q 1366 3272 1645 3428 
Q 1925 3584 2291 3584 
Q 2894 3584 3203 3211 
Q 3513 2838 3513 2113 
z
" transform="scale(0.015625)"/>
       <path id="DejaVuSans-20" transform="scale(0.015625)"/>
       <path id="DejaVuSans-6f" d="M 1959 3097 
Q 1497 3097 1228 2736 
Q 959 2375 959 1747 
Q 959 1119 1226 758 
Q 1494 397 1959 397 
Q 2419 397 2687 759 
Q 2956 1122 2956 1747 
Q 2956 2369 2687 2733 
Q 2419 3097 1959 3097 
z
M 1959 3584 
Q 2709 3584 3137 3096 
Q 3566 2609 3566 1747 
Q 3566 888 3137 398 
Q 2709 -91 1959 -91 
Q 1206 -91 779 398 
Q 353 888 353 1747 
Q 353 2609 779 3096 
Q 1206 3584 1959 3584 
z
" transform="scale(0.015625)"/>
       <path id="DejaVuSans-64" d="M 2906 2969 
L 2906 4863 
L 3481 4863 
L 3481 0 
L 2906 0 
L 2906 525 
Q 2725 213 2448 61 
Q 2172 -91 1784 -91 
Q 1150 -91 751 415 
Q 353 922 353 1747 
Q 353 2572 751 3078 
Q 1150 3584 1784 3584 
Q 2172 3584 2448 3432 
Q 2725 3281 2906 2969 
z
M 947 1747 
Q 947 1113 1208 752 
Q 1469 391 1925 391 
Q 2381 391 2643 752 
Q 2906 1113 2906 1747 
Q 2906 2381 2643 2742 
Q 2381 3103 1925 3103 
Q 1469 3103 1208 2742 
Q 947 2381 947 1747 
z
" transform="scale(0.015625)"/>
       <path id="DejaVuSans-72" d="M 2631 2963 
Q 2534 3019 2420 3045 
Q 2306 3072 2169 3072 
Q 1681 3072 1420 2755 
Q 1159 2438 1159 1844 
L 1159 0 
L 581 0 
L 581 3500 
L 1159 3500 
L 1159 2956 
Q 1341 3275 1631 3429 
Q 1922 3584 2338 3584 
Q 2397 3584 2469 3576 
Q 2541 3569 2628 3553 
L 2631 2963 
z
" transform="scale(0.015625)"/>
       <path id="DejaVuSans-77" d="M 269 3500 
L 844 3500 
L 1563 769 
L 2278 3500 
L 2956 3500 
L 3675 769 
L 4391 3500 
L 4966 3500 
L 4050 0 
L 3372 0 
L 2619 2869 
L 1863 0 
L 1184 0 
L 269 3500 
z
" transform="scale(0.015625)"/>
      </defs>
      <use xlink:href="#DejaVuSans-6d"/>
      <use xlink:href="#DejaVuSans-65" x="97.412109"/>
      <use xlink:href="#DejaVuSans-61" x="158.935547"/>
      <use xlink:href="#DejaVuSans-6e" x="220.214844"/>
      <use xlink:href="#DejaVuSans-20" x="283.59375"/>
      <use xlink:href="#DejaVuSans-65" x="315.380859"/>
      <use xlink:href="#DejaVuSans-70" x="376.904297"/>
      <use xlink:href="#DejaVuSans-69" x="440.380859"/>
      <use xlink:href="#DejaVuSans-73" x="468.164062"/>
      <use xlink:href="#DejaVuSans-6f" x="520.263672"/>
      <use xlink:href="#DejaVuSans-64" x="581.445312"/>
      <use xlink:href="#DejaVuSans-65" x="644.921875"/>
      <use xlink:href="#DejaVuSans-20" x="706.445312"/>
      <use xlink:href="#DejaVuSans-72" x="738.232422"/>
      <use xlink:href="#DejaVuSans-65" x="777.095703"/>
      <use xlink:href="#DejaVuSans-77" x="838.619141"/>
      <use xlink:href="#DejaVuSans-61" x="920.40625"/>
      <use xlink:href="#DejaVuSans-72" x="981.685547"/>
      <use xlink:href="#DejaVuSans-64" x="1021.048828"/>
      <use xlink:href="#DejaVuSans-73" x="1084.525391"/>
     </g>
    </g>
   </g>
   <g id="line2d_16">
    <path d="M 73.832727 295.488 
L 75.401107 293.756267 
L 76.969486 290.713092 
L 78.799262 288.94557 
L 80.106245 289.055489 
L 81.28253 283.751322 
L 82.720211 284.68542 
L 83.896495 285.001092 
L 84.680685 285.92043 
L 86.249065 286.567394 
L 87.556047 285.519604 
L 88.86303 283.471722 
L 90.039315 284.02228 
L 91.346298 284.049772 
L 92.783979 283.25144 
L 93.960264 286.656189 
L 95.267246 286.189872 
L 96.051436 286.077661 
L 97.489117 285.730876 
L 98.665402 285.83935 
L 100.625876 285.942035 
L 101.932859 286.778743 
L 103.631937 284.953095 
L 105.200316 284.551933 
L 106.507299 284.79158 
L 107.94498 284.221341 
L 109.51336 284.417134 
L 110.689644 283.857977 
L 112.388722 283.594203 
L 114.349196 282.405772 
L 115.394783 281.893433 
L 116.963162 282.683829 
L 118.66224 283.011132 
L 120.099921 281.427291 
L 122.321792 281.009517 
L 123.759473 280.510903 
L 125.197154 281.031877 
L 127.157628 279.395375 
L 128.987404 277.164866 
L 130.294387 273.965351 
L 131.732069 274.946353 
L 133.16975 272.687903 
L 134.607431 272.966683 
L 135.914414 274.944358 
L 136.96 274.657013 
L 138.920474 275.583157 
L 139.704664 274.621264 
L 141.011647 277.209234 
L 143.102819 279.233477 
L 144.017708 282.749981 
L 145.455389 282.124543 
L 147.023768 284.862497 
L 148.200053 284.96009 
L 149.637734 284.197329 
L 151.075415 285.217377 
L 152.774493 283.461194 
L 154.081476 282.387807 
L 155.780553 282.238004 
L 157.741028 282.137282 
L 159.178709 281.080599 
L 161.531278 280.655164 
L 163.622451 278.317349 
L 164.668037 276.757523 
L 166.497813 274.772825 
L 169.242477 274.36296 
L 170.680158 274.223633 
L 173.294124 272.4201 
L 175.777391 270.305498 
L 176.692279 264.688354 
L 178.91415 265.61088 
L 180.613228 263.989666 
L 182.835099 261.928458 
L 184.795573 263.817001 
L 187.148142 265.488369 
L 188.84722 260.917208 
L 191.069091 260.83671 
L 193.552358 261.425041 
L 196.689117 258.036769 
L 198.649592 261.382732 
L 200.871462 256.958232 
L 203.616126 256.749856 
L 206.752885 255.089422 
L 209.758946 250.900652 
L 213.157101 248.082443 
L 214.464084 247.008887 
L 219.299921 242.476891 
L 221.913887 237.682845 
L 226.619025 236.126974 
L 230.147879 230.734139 
L 233.023241 225.869657 
L 237.336285 220.524514 
L 240.211647 219.104846 
L 243.871199 216.84167 
L 249.09913 208.01194 
L 252.235889 206.550455 
L 255.895441 203.443065 
L 260.077787 200.516369 
L 263.737339 198.066111 
L 266.743399 194.151224 
L 270.795046 193.498235 
L 276.284374 192.550128 
L 280.336021 179.950796 
L 285.302556 172.203773 
L 291.183979 171.328457 
L 296.150514 161.737021 
L 302.55473 149.013214 
L 307.521265 138.647229 
L 313.794783 124.796614 
L 318.761318 111.581229 
L 324.64274 98.156963 
L 329.870672 83.239392 
L 336.797681 78.661708 
L 341.502819 70.677002 
L 347.776337 62.120287 
L 352.481476 56.582147 
L 358.624295 55.68294 
L 363.982925 54.444381 
L 370.648538 53.867229 
L 375.222978 54.700774 
L 382.019289 56.142607 
L 386.070935 57.111671 
L 392.867246 58.177808 
L 398.225876 57.435805 
" clip-path="url(#pe02e9f99a2)" style="fill: none; stroke: #1f77b4; stroke-width: 1.5; stroke-linecap: square"/>
   </g>
   <g id="line2d_17">
    <path d="M 137.090698 252.642349 
L 202.439842 189.558757 
L 267.788986 233.554749 
L 333.138129 67.099376 
L 398.487273 72.422684 
" clip-path="url(#pe02e9f99a2)" style="fill: none; stroke: #ff7f0e; stroke-width: 1.5; stroke-linecap: square"/>
   </g>
   <g id="line2d_18">
    <path d="M 74.35552 291.725754 
L 75.793202 286.760906 
L 77.230883 287.056232 
L 79.191357 285.214284 
L 80.49834 285.050086 
L 82.066719 283.542927 
L 83.896495 284.365618 
L 85.334177 283.631471 
L 86.902556 282.709759 
L 88.601634 282.360765 
L 89.516522 282.305548 
L 90.954203 282.569163 
L 93.176074 282.144073 
L 94.090962 282.512755 
L 95.659341 280.867223 
L 96.835626 280.880794 
L 98.01191 280.268886 
L 99.710988 280.57798 
L 100.887273 280.811585 
L 102.455652 281.71588 
L 104.024032 281.541407 
L 105.200316 280.978308 
L 105.984506 281.739517 
L 107.94498 281.420577 
L 109.51336 283.028102 
L 110.820343 284.155044 
L 112.127325 284.635298 
L 113.172912 284.655629 
L 114.871989 284.295755 
L 116.178972 283.949739 
L 117.224559 283.551237 
L 118.923636 284.526476 
L 120.230619 283.25581 
L 121.406904 283.404919 
L 122.975283 283.120214 
L 124.412964 282.8716 
L 125.719947 282.781239 
L 127.680422 282.227669 
L 128.987404 283.242046 
L 130.425086 283.075044 
L 131.862767 281.151064 
L 133.300448 280.828295 
L 134.607431 281.894438 
L 136.17581 282.647001 
L 137.613491 282.268068 
L 139.181871 282.481368 
L 140.358155 281.932444 
L 141.665138 283.081642 
L 143.887009 281.293896 
L 144.540501 280.413882 
L 146.370277 282.280042 
L 147.807958 281.721755 
L 149.114941 281.643687 
L 150.552622 279.85146 
L 151.598208 280.119712 
L 153.427984 280.531291 
L 154.47357 279.644425 
L 156.172648 279.632707 
L 157.218235 281.331971 
L 159.570804 282.033121 
L 161.139183 281.524322 
L 163.099657 280.431897 
L 164.537339 279.89807 
L 166.367115 280.388493 
L 168.196891 278.572984 
L 170.157365 277.662969 
L 172.379236 276.231056 
L 174.078314 273.352849 
L 176.430883 271.054702 
L 177.868564 269.536594 
L 179.306245 270.033773 
L 181.005323 268.722279 
L 184.27278 269.139138 
L 185.841159 267.125176 
L 188.455125 263.71561 
L 190.546298 261.605854 
L 192.768169 261.354295 
L 195.120738 262.089332 
L 197.734704 261.620085 
L 200.871462 259.050102 
L 203.224032 256.452859 
L 205.053808 252.463448 
L 207.537075 250.187526 
L 210.935231 248.770599 
L 214.333386 247.158309 
L 217.600843 245.613314 
L 220.8683 242.500283 
L 224.658551 240.232084 
L 227.664611 234.7827 
L 232.500448 230.363614 
L 236.552095 227.943015 
L 240.473043 224.095453 
L 246.485165 215.706096 
L 250.406113 203.597049 
L 255.24195 201.910678 
L 259.81639 193.043372 
L 263.083847 183.251279 
L 266.220606 172.25479 
L 274.715995 168.009355 
L 278.11415 159.278179 
L 284.126271 150.188824 
L 290.399789 142.051575 
L 295.889117 130.944301 
L 302.816126 126.72377 
L 307.91336 112.578899 
L 316.931542 100.929519 
L 319.937602 92.755109 
L 326.603215 83.463895 
L 331.56975 75.968734 
L 336.274888 75.766733 
L 342.940501 66.947366 
L 348.168432 62.778021 
L 354.180553 61.241621 
L 360.192675 57.401292 
L 365.812701 56.346659 
L 372.73971 57.427157 
L 377.183452 58.232876 
L 383.718366 59.506376 
L 388.815599 57.653582 
L 395.350514 53.568 
" clip-path="url(#pe02e9f99a2)" style="fill: none; stroke: #2ca02c; stroke-width: 1.5; stroke-linecap: square"/>
   </g>
   <g id="patch_3">
    <path d="M 57.6 307.584 
L 57.6 41.472 
" style="fill: none; stroke: #000000; stroke-width: 0.8; stroke-linejoin: miter; stroke-linecap: square"/>
   </g>
   <g id="patch_4">
    <path d="M 414.72 307.584 
L 414.72 41.472 
" style="fill: none; stroke: #000000; stroke-width: 0.8; stroke-linejoin: miter; stroke-linecap: square"/>
   </g>
   <g id="patch_5">
    <path d="M 57.6 307.584 
L 414.72 307.584 
" style="fill: none; stroke: #000000; stroke-width: 0.8; stroke-linejoin: miter; stroke-linecap: square"/>
   </g>
   <g id="patch_6">
    <path d="M 57.6 41.472 
L 414.72 41.472 
" style="fill: none; stroke: #000000; stroke-width: 0.8; stroke-linejoin: miter; stroke-linecap: square"/>
   </g>
   <g id="text_18">
    <!-- learning curve -->
    <g transform="translate(192.96375 35.472) scale(0.12 -0.12)">
     <defs>
      <path id="DejaVuSans-6c" d="M 603 4863 
L 1178 4863 
L 1178 0 
L 603 0 
L 603 4863 
z
" transform="scale(0.015625)"/>
      <path id="DejaVuSans-67" d="M 2906 1791 
Q 2906 2416 2648 2759 
Q 2391 3103 1925 3103 
Q 1463 3103 1205 2759 
Q 947 2416 947 1791 
Q 947 1169 1205 825 
Q 1463 481 1925 481 
Q 2391 481 2648 825 
Q 2906 1169 2906 1791 
z
M 3481 434 
Q 3481 -459 3084 -895 
Q 2688 -1331 1869 -1331 
Q 1566 -1331 1297 -1286 
Q 1028 -1241 775 -1147 
L 775 -588 
Q 1028 -725 1275 -790 
Q 1522 -856 1778 -856 
Q 2344 -856 2625 -561 
Q 2906 -266 2906 331 
L 2906 616 
Q 2728 306 2450 153 
Q 2172 0 1784 0 
Q 1141 0 747 490 
Q 353 981 353 1791 
Q 353 2603 747 3093 
Q 1141 3584 1784 3584 
Q 2172 3584 2450 3431 
Q 2728 3278 2906 2969 
L 2906 3500 
L 3481 3500 
L 3481 434 
z
" transform="scale(0.015625)"/>
      <path id="DejaVuSans-63" d="M 3122 3366 
L 3122 2828 
Q 2878 2963 2633 3030 
Q 2388 3097 2138 3097 
Q 1578 3097 1268 2742 
Q 959 2388 959 1747 
Q 959 1106 1268 751 
Q 1578 397 2138 397 
Q 2388 397 2633 464 
Q 2878 531 3122 666 
L 3122 134 
Q 2881 22 2623 -34 
Q 2366 -91 2075 -91 
Q 1284 -91 818 406 
Q 353 903 353 1747 
Q 353 2603 823 3093 
Q 1294 3584 2113 3584 
Q 2378 3584 2631 3529 
Q 2884 3475 3122 3366 
z
" transform="scale(0.015625)"/>
      <path id="DejaVuSans-75" d="M 544 1381 
L 544 3500 
L 1119 3500 
L 1119 1403 
Q 1119 906 1312 657 
Q 1506 409 1894 409 
Q 2359 409 2629 706 
Q 2900 1003 2900 1516 
L 2900 3500 
L 3475 3500 
L 3475 0 
L 2900 0 
L 2900 538 
Q 2691 219 2414 64 
Q 2138 -91 1772 -91 
Q 1169 -91 856 284 
Q 544 659 544 1381 
z
M 1991 3584 
L 1991 3584 
z
" transform="scale(0.015625)"/>
      <path id="DejaVuSans-76" d="M 191 3500 
L 800 3500 
L 1894 563 
L 2988 3500 
L 3597 3500 
L 2284 0 
L 1503 0 
L 191 3500 
z
" transform="scale(0.015625)"/>
     </defs>
     <use xlink:href="#DejaVuSans-6c"/>
     <use xlink:href="#DejaVuSans-65" x="27.783203"/>
     <use xlink:href="#DejaVuSans-61" x="89.306641"/>
     <use xlink:href="#DejaVuSans-72" x="150.585938"/>
     <use xlink:href="#DejaVuSans-6e" x="189.949219"/>
     <use xlink:href="#DejaVuSans-69" x="253.328125"/>
     <use xlink:href="#DejaVuSans-6e" x="281.111328"/>
     <use xlink:href="#DejaVuSans-67" x="344.490234"/>
     <use xlink:href="#DejaVuSans-20" x="407.966797"/>
     <use xlink:href="#DejaVuSans-63" x="439.753906"/>
     <use xlink:href="#DejaVuSans-75" x="494.734375"/>
     <use xlink:href="#DejaVuSans-72" x="558.113281"/>
     <use xlink:href="#DejaVuSans-76" x="599.226562"/>
     <use xlink:href="#DejaVuSans-65" x="658.40625"/>
    </g>
   </g>
   <g id="legend_1">
    <g id="patch_7">
     <path d="M 64.6 93.506375 
L 166.614062 93.506375 
Q 168.614062 93.506375 168.614062 91.506375 
L 168.614062 48.472 
Q 168.614062 46.472 166.614062 46.472 
L 64.6 46.472 
Q 62.6 46.472 62.6 48.472 
L 62.6 91.506375 
Q 62.6 93.506375 64.6 93.506375 
z
" style="fill: #ffffff; opacity: 0.8; stroke: #cccccc; stroke-linejoin: miter"/>
    </g>
    <g id="line2d_19">
     <path d="M 66.6 54.570438 
L 76.6 54.570438 
L 86.6 54.570438 
" style="fill: none; stroke: #1f77b4; stroke-width: 1.5; stroke-linecap: square"/>
    </g>
    <g id="text_19">
     <!-- source-source -->
     <g transform="translate(94.6 58.070438) scale(0.1 -0.1)">
      <defs>
       <path id="DejaVuSans-2d" d="M 313 2009 
L 1997 2009 
L 1997 1497 
L 313 1497 
L 313 2009 
z
" transform="scale(0.015625)"/>
      </defs>
      <use xlink:href="#DejaVuSans-73"/>
      <use xlink:href="#DejaVuSans-6f" x="52.099609"/>
      <use xlink:href="#DejaVuSans-75" x="113.28125"/>
      <use xlink:href="#DejaVuSans-72" x="176.660156"/>
      <use xlink:href="#DejaVuSans-63" x="215.523438"/>
      <use xlink:href="#DejaVuSans-65" x="270.503906"/>
      <use xlink:href="#DejaVuSans-2d" x="332.027344"/>
      <use xlink:href="#DejaVuSans-73" x="368.111328"/>
      <use xlink:href="#DejaVuSans-6f" x="420.210938"/>
      <use xlink:href="#DejaVuSans-75" x="481.392578"/>
      <use xlink:href="#DejaVuSans-72" x="544.771484"/>
      <use xlink:href="#DejaVuSans-63" x="583.634766"/>
      <use xlink:href="#DejaVuSans-65" x="638.615234"/>
     </g>
    </g>
    <g id="line2d_20">
     <path d="M 66.6 69.248563 
L 76.6 69.248563 
L 86.6 69.248563 
" style="fill: none; stroke: #ff7f0e; stroke-width: 1.5; stroke-linecap: square"/>
    </g>
    <g id="text_20">
     <!-- source-target -->
     <g transform="translate(94.6 72.748563) scale(0.1 -0.1)">
      <use xlink:href="#DejaVuSans-73"/>
      <use xlink:href="#DejaVuSans-6f" x="52.099609"/>
      <use xlink:href="#DejaVuSans-75" x="113.28125"/>
      <use xlink:href="#DejaVuSans-72" x="176.660156"/>
      <use xlink:href="#DejaVuSans-63" x="215.523438"/>
      <use xlink:href="#DejaVuSans-65" x="270.503906"/>
      <use xlink:href="#DejaVuSans-2d" x="332.027344"/>
      <use xlink:href="#DejaVuSans-74" x="368.111328"/>
      <use xlink:href="#DejaVuSans-61" x="407.320312"/>
      <use xlink:href="#DejaVuSans-72" x="468.599609"/>
      <use xlink:href="#DejaVuSans-67" x="507.962891"/>
      <use xlink:href="#DejaVuSans-65" x="571.439453"/>
      <use xlink:href="#DejaVuSans-74" x="632.962891"/>
     </g>
    </g>
    <g id="line2d_21">
     <path d="M 66.6 83.926688 
L 76.6 83.926688 
L 86.6 83.926688 
" style="fill: none; stroke: #2ca02c; stroke-width: 1.5; stroke-linecap: square"/>
    </g>
    <g id="text_21">
     <!-- target-target -->
     <g transform="translate(94.6 87.426688) scale(0.1 -0.1)">
      <use xlink:href="#DejaVuSans-74"/>
      <use xlink:href="#DejaVuSans-61" x="39.208984"/>
      <use xlink:href="#DejaVuSans-72" x="100.488281"/>
      <use xlink:href="#DejaVuSans-67" x="139.851562"/>
      <use xlink:href="#DejaVuSans-65" x="203.328125"/>
      <use xlink:href="#DejaVuSans-74" x="264.851562"/>
      <use xlink:href="#DejaVuSans-2d" x="304.060547"/>
      <use xlink:href="#DejaVuSans-74" x="340.144531"/>
      <use xlink:href="#DejaVuSans-61" x="379.353516"/>
      <use xlink:href="#DejaVuSans-72" x="440.632812"/>
      <use xlink:href="#DejaVuSans-67" x="479.996094"/>
      <use xlink:href="#DejaVuSans-65" x="543.472656"/>
      <use xlink:href="#DejaVuSans-74" x="604.996094"/>
     </g>
    </g>
   </g>
  </g>
 </g>
 <defs>
  <clipPath id="pe02e9f99a2">
   <rect x="57.6" y="41.472" width="357.12" height="266.112"/>
  </clipPath>
 </defs>
</svg>
