<?xml version="1.0" encoding="utf-8" standalone="no"?>
<!DOCTYPE svg PUBLIC "-//W3C//DTD SVG 1.1//EN"
  "http://www.w3.org/Graphics/SVG/1.1/DTD/svg11.dtd">
<svg xmlns:xlink="http://www.w3.org/1999/xlink" width="460.8pt" height="345.6pt" viewBox="0 0 460.8 345.6" xmlns="http://www.w3.org/2000/svg" version="1.1">
 <metadata>
  <rdf:RDF xmlns:dc="http://purl.org/dc/elements/1.1/" xmlns:cc="http://creativecommons.org/ns#" xmlns:rdf="http://www.w3.org/1999/02/22-rdf-syntax-ns#">
   <cc:Work>
    <dc:type rdf:resource="http://purl.org/dc/dcmitype/StillImage"/>
    <dc:date>2023-08-18T16:38:28.176145</dc:date>
    <dc:format>image/svg+xml</dc:format>
    <dc:creator>
     <cc:Agent>
      <dc:title>Matplotlib v3.7.1, https://matplotlib.org/</dc:title>
     </cc:Agent>
    </dc:creator>
   </cc:Work>
  </rdf:RDF>
 </metadata>
 <defs>
  <style type="text/css">*{stroke-linejoin: round; stroke-linecap: butt}</style>
 </defs>
 <g id="figure_1">
  <g id="patch_1">
   <path d="M 0 345.6 
L 460.8 345.6 
L 460.8 0 
L 0 0 
z
" style="fill: #ffffff"/>
  </g>
  <g id="axes_1">
   <g id="patch_2">
    <path d="M 57.6 307.584 
L 414.72 307.584 
L 414.72 41.472 
L 57.6 41.472 
z
" style="fill: #ffffff"/>
   </g>
   <g id="matplotlib.axis_1">
    <g id="xtick_1">
     <g id="line2d_1">
      <defs>
       <path id="m6eb5f3fe1e" d="M 0 0 
L 0 3.5 
" style="stroke: #000000; stroke-width: 0.8"/>
      </defs>
      <g>
       <use xlink:href="#m6eb5f3fe1e" x="73.774279" y="307.584" style="stroke: #000000; stroke-width: 0.8"/>
      </g>
     </g>
     <g id="text_1">
      <!-- 0 -->
      <g transform="translate(70.593029 322.182437) scale(0.1 -0.1)">
       <defs>
        <path id="DejaVuSans-30" d="M 2034 4250 
Q 1547 4250 1301 3770 
Q 1056 3291 1056 2328 
Q 1056 1369 1301 889 
Q 1547 409 2034 409 
Q 2525 409 2770 889 
Q 3016 1369 3016 2328 
Q 3016 3291 2770 3770 
Q 2525 4250 2034 4250 
z
M 2034 4750 
Q 2819 4750 3233 4129 
Q 3647 3509 3647 2328 
Q 3647 1150 3233 529 
Q 2819 -91 2034 -91 
Q 1250 -91 836 529 
Q 422 1150 422 2328 
Q 422 3509 836 4129 
Q 1250 4750 2034 4750 
z
" transform="scale(0.015625)"/>
       </defs>
       <use xlink:href="#DejaVuSans-30"/>
      </g>
     </g>
    </g>
    <g id="xtick_2">
     <g id="line2d_2">
      <g>
       <use xlink:href="#m6eb5f3fe1e" x="138.716878" y="307.584" style="stroke: #000000; stroke-width: 0.8"/>
      </g>
     </g>
     <g id="text_2">
      <!-- 10000 -->
      <g transform="translate(122.810628 322.182437) scale(0.1 -0.1)">
       <defs>
        <path id="DejaVuSans-31" d="M 794 531 
L 1825 531 
L 1825 4091 
L 703 3866 
L 703 4441 
L 1819 4666 
L 2450 4666 
L 2450 531 
L 3481 531 
L 3481 0 
L 794 0 
L 794 531 
z
" transform="scale(0.015625)"/>
       </defs>
       <use xlink:href="#DejaVuSans-31"/>
       <use xlink:href="#DejaVuSans-30" x="63.623047"/>
       <use xlink:href="#DejaVuSans-30" x="127.246094"/>
       <use xlink:href="#DejaVuSans-30" x="190.869141"/>
       <use xlink:href="#DejaVuSans-30" x="254.492188"/>
      </g>
     </g>
    </g>
    <g id="xtick_3">
     <g id="line2d_3">
      <g>
       <use xlink:href="#m6eb5f3fe1e" x="203.659476" y="307.584" style="stroke: #000000; stroke-width: 0.8"/>
      </g>
     </g>
     <g id="text_3">
      <!-- 20000 -->
      <g transform="translate(187.753226 322.182437) scale(0.1 -0.1)">
       <defs>
        <path id="DejaVuSans-32" d="M 1228 531 
L 3431 531 
L 3431 0 
L 469 0 
L 469 531 
Q 828 903 1448 1529 
Q 2069 2156 2228 2338 
Q 2531 2678 2651 2914 
Q 2772 3150 2772 3378 
Q 2772 3750 2511 3984 
Q 2250 4219 1831 4219 
Q 1534 4219 1204 4116 
Q 875 4013 500 3803 
L 500 4441 
Q 881 4594 1212 4672 
Q 1544 4750 1819 4750 
Q 2544 4750 2975 4387 
Q 3406 4025 3406 3419 
Q 3406 3131 3298 2873 
Q 3191 2616 2906 2266 
Q 2828 2175 2409 1742 
Q 1991 1309 1228 531 
z
" transform="scale(0.015625)"/>
       </defs>
       <use xlink:href="#DejaVuSans-32"/>
       <use xlink:href="#DejaVuSans-30" x="63.623047"/>
       <use xlink:href="#DejaVuSans-30" x="127.246094"/>
       <use xlink:href="#DejaVuSans-30" x="190.869141"/>
       <use xlink:href="#DejaVuSans-30" x="254.492188"/>
      </g>
     </g>
    </g>
    <g id="xtick_4">
     <g id="line2d_4">
      <g>
       <use xlink:href="#m6eb5f3fe1e" x="268.602075" y="307.584" style="stroke: #000000; stroke-width: 0.8"/>
      </g>
     </g>
     <g id="text_4">
      <!-- 30000 -->
      <g transform="translate(252.695825 322.182437) scale(0.1 -0.1)">
       <defs>
        <path id="DejaVuSans-33" d="M 2597 2516 
Q 3050 2419 3304 2112 
Q 3559 1806 3559 1356 
Q 3559 666 3084 287 
Q 2609 -91 1734 -91 
Q 1441 -91 1130 -33 
Q 819 25 488 141 
L 488 750 
Q 750 597 1062 519 
Q 1375 441 1716 441 
Q 2309 441 2620 675 
Q 2931 909 2931 1356 
Q 2931 1769 2642 2001 
Q 2353 2234 1838 2234 
L 1294 2234 
L 1294 2753 
L 1863 2753 
Q 2328 2753 2575 2939 
Q 2822 3125 2822 3475 
Q 2822 3834 2567 4026 
Q 2313 4219 1838 4219 
Q 1578 4219 1281 4162 
Q 984 4106 628 3988 
L 628 4550 
Q 988 4650 1302 4700 
Q 1616 4750 1894 4750 
Q 2613 4750 3031 4423 
Q 3450 4097 3450 3541 
Q 3450 3153 3228 2886 
Q 3006 2619 2597 2516 
z
" transform="scale(0.015625)"/>
       </defs>
       <use xlink:href="#DejaVuSans-33"/>
       <use xlink:href="#DejaVuSans-30" x="63.623047"/>
       <use xlink:href="#DejaVuSans-30" x="127.246094"/>
       <use xlink:href="#DejaVuSans-30" x="190.869141"/>
       <use xlink:href="#DejaVuSans-30" x="254.492188"/>
      </g>
     </g>
    </g>
    <g id="xtick_5">
     <g id="line2d_5">
      <g>
       <use xlink:href="#m6eb5f3fe1e" x="333.544674" y="307.584" style="stroke: #000000; stroke-width: 0.8"/>
      </g>
     </g>
     <g id="text_5">
      <!-- 40000 -->
      <g transform="translate(317.638424 322.182437) scale(0.1 -0.1)">
       <defs>
        <path id="DejaVuSans-34" d="M 2419 4116 
L 825 1625 
L 2419 1625 
L 2419 4116 
z
M 2253 4666 
L 3047 4666 
L 3047 1625 
L 3713 1625 
L 3713 1100 
L 3047 1100 
L 3047 0 
L 2419 0 
L 2419 1100 
L 313 1100 
L 313 1709 
L 2253 4666 
z
" transform="scale(0.015625)"/>
       </defs>
       <use xlink:href="#DejaVuSans-34"/>
       <use xlink:href="#DejaVuSans-30" x="63.623047"/>
       <use xlink:href="#DejaVuSans-30" x="127.246094"/>
       <use xlink:href="#DejaVuSans-30" x="190.869141"/>
       <use xlink:href="#DejaVuSans-30" x="254.492188"/>
      </g>
     </g>
    </g>
    <g id="xtick_6">
     <g id="line2d_6">
      <g>
       <use xlink:href="#m6eb5f3fe1e" x="398.487273" y="307.584" style="stroke: #000000; stroke-width: 0.8"/>
      </g>
     </g>
     <g id="text_6">
      <!-- 50000 -->
      <g transform="translate(382.581023 322.182437) scale(0.1 -0.1)">
       <defs>
        <path id="DejaVuSans-35" d="M 691 4666 
L 3169 4666 
L 3169 4134 
L 1269 4134 
L 1269 2991 
Q 1406 3038 1543 3061 
Q 1681 3084 1819 3084 
Q 2600 3084 3056 2656 
Q 3513 2228 3513 1497 
Q 3513 744 3044 326 
Q 2575 -91 1722 -91 
Q 1428 -91 1123 -41 
Q 819 9 494 109 
L 494 744 
Q 775 591 1075 516 
Q 1375 441 1709 441 
Q 2250 441 2565 725 
Q 2881 1009 2881 1497 
Q 2881 1984 2565 2268 
Q 2250 2553 1709 2553 
Q 1456 2553 1204 2497 
Q 953 2441 691 2322 
L 691 4666 
z
" transform="scale(0.015625)"/>
       </defs>
       <use xlink:href="#DejaVuSans-35"/>
       <use xlink:href="#DejaVuSans-30" x="63.623047"/>
       <use xlink:href="#DejaVuSans-30" x="127.246094"/>
       <use xlink:href="#DejaVuSans-30" x="190.869141"/>
       <use xlink:href="#DejaVuSans-30" x="254.492188"/>
      </g>
     </g>
    </g>
    <g id="text_7">
     <!-- timesteps -->
     <g transform="translate(211.443594 335.860562) scale(0.1 -0.1)">
      <defs>
       <path id="DejaVuSans-74" d="M 1172 4494 
L 1172 3500 
L 2356 3500 
L 2356 3053 
L 1172 3053 
L 1172 1153 
Q 1172 725 1289 603 
Q 1406 481 1766 481 
L 2356 481 
L 2356 0 
L 1766 0 
Q 1100 0 847 248 
Q 594 497 594 1153 
L 594 3053 
L 172 3053 
L 172 3500 
L 594 3500 
L 594 4494 
L 1172 4494 
z
" transform="scale(0.015625)"/>
       <path id="DejaVuSans-69" d="M 603 3500 
L 1178 3500 
L 1178 0 
L 603 0 
L 603 3500 
z
M 603 4863 
L 1178 4863 
L 1178 4134 
L 603 4134 
L 603 4863 
z
" transform="scale(0.015625)"/>
       <path id="DejaVuSans-6d" d="M 3328 2828 
Q 3544 3216 3844 3400 
Q 4144 3584 4550 3584 
Q 5097 3584 5394 3201 
Q 5691 2819 5691 2113 
L 5691 0 
L 5113 0 
L 5113 2094 
Q 5113 2597 4934 2840 
Q 4756 3084 4391 3084 
Q 3944 3084 3684 2787 
Q 3425 2491 3425 1978 
L 3425 0 
L 2847 0 
L 2847 2094 
Q 2847 2600 2669 2842 
Q 2491 3084 2119 3084 
Q 1678 3084 1418 2786 
Q 1159 2488 1159 1978 
L 1159 0 
L 581 0 
L 581 3500 
L 1159 3500 
L 1159 2956 
Q 1356 3278 1631 3431 
Q 1906 3584 2284 3584 
Q 2666 3584 2933 3390 
Q 3200 3197 3328 2828 
z
" transform="scale(0.015625)"/>
       <path id="DejaVuSans-65" d="M 3597 1894 
L 3597 1613 
L 953 1613 
Q 991 1019 1311 708 
Q 1631 397 2203 397 
Q 2534 397 2845 478 
Q 3156 559 3463 722 
L 3463 178 
Q 3153 47 2828 -22 
Q 2503 -91 2169 -91 
Q 1331 -91 842 396 
Q 353 884 353 1716 
Q 353 2575 817 3079 
Q 1281 3584 2069 3584 
Q 2775 3584 3186 3129 
Q 3597 2675 3597 1894 
z
M 3022 2063 
Q 3016 2534 2758 2815 
Q 2500 3097 2075 3097 
Q 1594 3097 1305 2825 
Q 1016 2553 972 2059 
L 3022 2063 
z
" transform="scale(0.015625)"/>
       <path id="DejaVuSans-73" d="M 2834 3397 
L 2834 2853 
Q 2591 2978 2328 3040 
Q 2066 3103 1784 3103 
Q 1356 3103 1142 2972 
Q 928 2841 928 2578 
Q 928 2378 1081 2264 
Q 1234 2150 1697 2047 
L 1894 2003 
Q 2506 1872 2764 1633 
Q 3022 1394 3022 966 
Q 3022 478 2636 193 
Q 2250 -91 1575 -91 
Q 1294 -91 989 -36 
Q 684 19 347 128 
L 347 722 
Q 666 556 975 473 
Q 1284 391 1588 391 
Q 1994 391 2212 530 
Q 2431 669 2431 922 
Q 2431 1156 2273 1281 
Q 2116 1406 1581 1522 
L 1381 1569 
Q 847 1681 609 1914 
Q 372 2147 372 2553 
Q 372 3047 722 3315 
Q 1072 3584 1716 3584 
Q 2034 3584 2315 3537 
Q 2597 3491 2834 3397 
z
" transform="scale(0.015625)"/>
       <path id="DejaVuSans-70" d="M 1159 525 
L 1159 -1331 
L 581 -1331 
L 581 3500 
L 1159 3500 
L 1159 2969 
Q 1341 3281 1617 3432 
Q 1894 3584 2278 3584 
Q 2916 3584 3314 3078 
Q 3713 2572 3713 1747 
Q 3713 922 3314 415 
Q 2916 -91 2278 -91 
Q 1894 -91 1617 61 
Q 1341 213 1159 525 
z
M 3116 1747 
Q 3116 2381 2855 2742 
Q 2594 3103 2138 3103 
Q 1681 3103 1420 2742 
Q 1159 2381 1159 1747 
Q 1159 1113 1420 752 
Q 1681 391 2138 391 
Q 2594 391 2855 752 
Q 3116 1113 3116 1747 
z
" transform="scale(0.015625)"/>
      </defs>
      <use xlink:href="#DejaVuSans-74"/>
      <use xlink:href="#DejaVuSans-69" x="39.208984"/>
      <use xlink:href="#DejaVuSans-6d" x="66.992188"/>
      <use xlink:href="#DejaVuSans-65" x="164.404297"/>
      <use xlink:href="#DejaVuSans-73" x="225.927734"/>
      <use xlink:href="#DejaVuSans-74" x="278.027344"/>
      <use xlink:href="#DejaVuSans-65" x="317.236328"/>
      <use xlink:href="#DejaVuSans-70" x="378.759766"/>
      <use xlink:href="#DejaVuSans-73" x="442.236328"/>
     </g>
    </g>
   </g>
   <g id="matplotlib.axis_2">
    <g id="ytick_1">
     <g id="line2d_7">
      <defs>
       <path id="mfa4203e6b7" d="M 0 0 
L -3.5 0 
" style="stroke: #000000; stroke-width: 0.8"/>
      </defs>
      <g>
       <use xlink:href="#mfa4203e6b7" x="57.6" y="296.813941" style="stroke: #000000; stroke-width: 0.8"/>
      </g>
     </g>
     <g id="text_8">
      <!-- 0 -->
      <g transform="translate(44.2375 300.61316) scale(0.1 -0.1)">
       <use xlink:href="#DejaVuSans-30"/>
      </g>
     </g>
    </g>
    <g id="ytick_2">
     <g id="line2d_8">
      <g>
       <use xlink:href="#mfa4203e6b7" x="57.6" y="258.902956" style="stroke: #000000; stroke-width: 0.8"/>
      </g>
     </g>
     <g id="text_9">
      <!-- 50 -->
      <g transform="translate(37.875 262.702175) scale(0.1 -0.1)">
       <use xlink:href="#DejaVuSans-35"/>
       <use xlink:href="#DejaVuSans-30" x="63.623047"/>
      </g>
     </g>
    </g>
    <g id="ytick_3">
     <g id="line2d_9">
      <g>
       <use xlink:href="#mfa4203e6b7" x="57.6" y="220.991971" style="stroke: #000000; stroke-width: 0.8"/>
      </g>
     </g>
     <g id="text_10">
      <!-- 100 -->
      <g transform="translate(31.5125 224.79119) scale(0.1 -0.1)">
       <use xlink:href="#DejaVuSans-31"/>
       <use xlink:href="#DejaVuSans-30" x="63.623047"/>
       <use xlink:href="#DejaVuSans-30" x="127.246094"/>
      </g>
     </g>
    </g>
    <g id="ytick_4">
     <g id="line2d_10">
      <g>
       <use xlink:href="#mfa4203e6b7" x="57.6" y="183.080986" style="stroke: #000000; stroke-width: 0.8"/>
      </g>
     </g>
     <g id="text_11">
      <!-- 150 -->
      <g transform="translate(31.5125 186.880205) scale(0.1 -0.1)">
       <use xlink:href="#DejaVuSans-31"/>
       <use xlink:href="#DejaVuSans-35" x="63.623047"/>
       <use xlink:href="#DejaVuSans-30" x="127.246094"/>
      </g>
     </g>
    </g>
    <g id="ytick_5">
     <g id="line2d_11">
      <g>
       <use xlink:href="#mfa4203e6b7" x="57.6" y="145.170001" style="stroke: #000000; stroke-width: 0.8"/>
      </g>
     </g>
     <g id="text_12">
      <!-- 200 -->
      <g transform="translate(31.5125 148.96922) scale(0.1 -0.1)">
       <use xlink:href="#DejaVuSans-32"/>
       <use xlink:href="#DejaVuSans-30" x="63.623047"/>
       <use xlink:href="#DejaVuSans-30" x="127.246094"/>
      </g>
     </g>
    </g>
    <g id="ytick_6">
     <g id="line2d_12">
      <g>
       <use xlink:href="#mfa4203e6b7" x="57.6" y="107.259016" style="stroke: #000000; stroke-width: 0.8"/>
      </g>
     </g>
     <g id="text_13">
      <!-- 250 -->
      <g transform="translate(31.5125 111.058234) scale(0.1 -0.1)">
       <use xlink:href="#DejaVuSans-32"/>
       <use xlink:href="#DejaVuSans-35" x="63.623047"/>
       <use xlink:href="#DejaVuSans-30" x="127.246094"/>
      </g>
     </g>
    </g>
    <g id="ytick_7">
     <g id="line2d_13">
      <g>
       <use xlink:href="#mfa4203e6b7" x="57.6" y="69.348031" style="stroke: #000000; stroke-width: 0.8"/>
      </g>
     </g>
     <g id="text_14">
      <!-- 300 -->
      <g transform="translate(31.5125 73.147249) scale(0.1 -0.1)">
       <use xlink:href="#DejaVuSans-33"/>
       <use xlink:href="#DejaVuSans-30" x="63.623047"/>
       <use xlink:href="#DejaVuSans-30" x="127.246094"/>
      </g>
     </g>
    </g>
    <g id="text_15">
     <!-- mean episode rewards -->
     <g transform="translate(25.432812 231.360031) rotate(-90) scale(0.1 -0.1)">
      <defs>
       <path id="DejaVuSans-61" d="M 2194 1759 
Q 1497 1759 1228 1600 
Q 959 1441 959 1056 
Q 959 750 1161 570 
Q 1363 391 1709 391 
Q 2188 391 2477 730 
Q 2766 1069 2766 1631 
L 2766 1759 
L 2194 1759 
z
M 3341 1997 
L 3341 0 
L 2766 0 
L 2766 531 
Q 2569 213 2275 61 
Q 1981 -91 1556 -91 
Q 1019 -91 701 211 
Q 384 513 384 1019 
Q 384 1609 779 1909 
Q 1175 2209 1959 2209 
L 2766 2209 
L 2766 2266 
Q 2766 2663 2505 2880 
Q 2244 3097 1772 3097 
Q 1472 3097 1187 3025 
Q 903 2953 641 2809 
L 641 3341 
Q 956 3463 1253 3523 
Q 1550 3584 1831 3584 
Q 2591 3584 2966 3190 
Q 3341 2797 3341 1997 
z
" transform="scale(0.015625)"/>
       <path id="DejaVuSans-6e" d="M 3513 2113 
L 3513 0 
L 2938 0 
L 2938 2094 
Q 2938 2591 2744 2837 
Q 2550 3084 2163 3084 
Q 1697 3084 1428 2787 
Q 1159 2491 1159 1978 
L 1159 0 
L 581 0 
L 581 3500 
L 1159 3500 
L 1159 2956 
Q 1366 3272 1645 3428 
Q 1925 3584 2291 3584 
Q 2894 3584 3203 3211 
Q 3513 2838 3513 2113 
z
" transform="scale(0.015625)"/>
       <path id="DejaVuSans-20" transform="scale(0.015625)"/>
       <path id="DejaVuSans-6f" d="M 1959 3097 
Q 1497 3097 1228 2736 
Q 959 2375 959 1747 
Q 959 1119 1226 758 
Q 1494 397 1959 397 
Q 2419 397 2687 759 
Q 2956 1122 2956 1747 
Q 2956 2369 2687 2733 
Q 2419 3097 1959 3097 
z
M 1959 3584 
Q 2709 3584 3137 3096 
Q 3566 2609 3566 1747 
Q 3566 888 3137 398 
Q 2709 -91 1959 -91 
Q 1206 -91 779 398 
Q 353 888 353 1747 
Q 353 2609 779 3096 
Q 1206 3584 1959 3584 
z
" transform="scale(0.015625)"/>
       <path id="DejaVuSans-64" d="M 2906 2969 
L 2906 4863 
L 3481 4863 
L 3481 0 
L 2906 0 
L 2906 525 
Q 2725 213 2448 61 
Q 2172 -91 1784 -91 
Q 1150 -91 751 415 
Q 353 922 353 1747 
Q 353 2572 751 3078 
Q 1150 3584 1784 3584 
Q 2172 3584 2448 3432 
Q 2725 3281 2906 2969 
z
M 947 1747 
Q 947 1113 1208 752 
Q 1469 391 1925 391 
Q 2381 391 2643 752 
Q 2906 1113 2906 1747 
Q 2906 2381 2643 2742 
Q 2381 3103 1925 3103 
Q 1469 3103 1208 2742 
Q 947 2381 947 1747 
z
" transform="scale(0.015625)"/>
       <path id="DejaVuSans-72" d="M 2631 2963 
Q 2534 3019 2420 3045 
Q 2306 3072 2169 3072 
Q 1681 3072 1420 2755 
Q 1159 2438 1159 1844 
L 1159 0 
L 581 0 
L 581 3500 
L 1159 3500 
L 1159 2956 
Q 1341 3275 1631 3429 
Q 1922 3584 2338 3584 
Q 2397 3584 2469 3576 
Q 2541 3569 2628 3553 
L 2631 2963 
z
" transform="scale(0.015625)"/>
       <path id="DejaVuSans-77" d="M 269 3500 
L 844 3500 
L 1563 769 
L 2278 3500 
L 2956 3500 
L 3675 769 
L 4391 3500 
L 4966 3500 
L 4050 0 
L 3372 0 
L 2619 2869 
L 1863 0 
L 1184 0 
L 269 3500 
z
" transform="scale(0.015625)"/>
      </defs>
      <use xlink:href="#DejaVuSans-6d"/>
      <use xlink:href="#DejaVuSans-65" x="97.412109"/>
      <use xlink:href="#DejaVuSans-61" x="158.935547"/>
      <use xlink:href="#DejaVuSans-6e" x="220.214844"/>
      <use xlink:href="#DejaVuSans-20" x="283.59375"/>
      <use xlink:href="#DejaVuSans-65" x="315.380859"/>
      <use xlink:href="#DejaVuSans-70" x="376.904297"/>
      <use xlink:href="#DejaVuSans-69" x="440.380859"/>
      <use xlink:href="#DejaVuSans-73" x="468.164062"/>
      <use xlink:href="#DejaVuSans-6f" x="520.263672"/>
      <use xlink:href="#DejaVuSans-64" x="581.445312"/>
      <use xlink:href="#DejaVuSans-65" x="644.921875"/>
      <use xlink:href="#DejaVuSans-20" x="706.445312"/>
      <use xlink:href="#DejaVuSans-72" x="738.232422"/>
      <use xlink:href="#DejaVuSans-65" x="777.095703"/>
      <use xlink:href="#DejaVuSans-77" x="838.619141"/>
      <use xlink:href="#DejaVuSans-61" x="920.40625"/>
      <use xlink:href="#DejaVuSans-72" x="981.685547"/>
      <use xlink:href="#DejaVuSans-64" x="1021.048828"/>
      <use xlink:href="#DejaVuSans-73" x="1084.525391"/>
     </g>
    </g>
   </g>
   <g id="line2d_14">
    <path d="M 73.839222 291.782724 
L 73.904164 290.790846 
L 73.975601 292.476522 
L 74.047038 290.079486 
L 74.118475 291.065566 
L 74.274337 290.804958 
L 74.358762 288.233089 
L 74.449682 292.246625 
L 74.55359 289.479419 
L 74.774395 293.471123 
L 74.897786 289.14133 
L 75.027671 289.737538 
L 75.099108 291.774497 
L 75.157556 291.25808 
L 75.235487 290.532026 
L 75.397844 285.941168 
L 75.495258 288.157015 
L 75.60566 287.962324 
L 75.683591 289.559215 
L 76.060258 271.112647 
L 76.26158 289.134214 
L 76.346006 289.442918 
L 76.462903 288.123647 
L 76.579799 289.277602 
L 76.83957 276.019031 
L 77.021409 275.512924 
L 77.287674 250.594914 
L 77.482501 291.934904 
L 77.716295 262.686056 
L 77.826697 288.629708 
L 78.10595 293.991115 
L 78.268307 284.890928 
L 78.450146 281.101091 
L 78.541066 292.558722 
L 78.63848 291.711848 
L 78.859284 286.96082 
L 79.002158 291.014761 
L 79.183997 279.580191 
L 79.372331 290.267206 
L 79.586642 276.551337 
L 79.755492 292.198631 
L 79.846412 289.473167 
L 80.145148 263.447665 
L 80.495838 283.415567 
L 80.878999 272.600894 
L 81.340092 221.85691 
L 81.456988 283.22495 
L 81.74923 290.870106 
L 82.106414 220.135888 
L 82.340208 292.253697 
L 82.599978 286.899902 
L 82.697392 288.248619 
L 82.853254 283.894245 
L 83.054576 282.079208 
L 83.126013 290.145484 
L 83.236416 283.446921 
L 83.320841 291.525572 
L 83.398772 289.858114 
L 83.665037 285.576018 
L 83.814405 288.105381 
L 83.94429 283.724888 
L 84.041704 287.131092 
L 84.217049 284.918781 
L 84.320957 288.72908 
L 84.730095 280.827299 
L 84.944406 293.58328 
L 85.022337 289.611076 
L 85.126245 291.165997 
L 85.288602 289.301049 
L 85.373027 291.32896 
L 85.522395 278.348034 
L 85.619809 289.805743 
L 85.736706 284.419159 
L 85.814637 289.209604 
L 85.931533 283.847135 
L 86.028947 291.616958 
L 86.132855 288.427134 
L 86.210787 288.760588 
L 86.373143 291.461099 
L 86.464063 290.963236 
L 86.632913 289.199551 
L 86.697856 291.266045 
L 86.990098 277.312826 
L 87.178431 292.251843 
L 87.269351 290.402634 
L 87.399236 288.234634 
L 87.697972 255.747871 
L 87.853834 291.500416 
L 87.98372 279.840103 
L 88.068145 289.569107 
L 88.19803 290.68969 
L 88.672111 264.861638 
L 89.081249 281.070729 
L 89.165675 289.345316 
L 89.444928 248.311251 
L 89.522859 288.263287 
L 89.659239 277.299939 
L 89.730675 291.069916 
L 89.828089 290.156164 
L 89.919009 291.205718 
L 89.99694 289.755702 
L 90.276193 280.836097 
L 90.412573 287.497769 
L 90.509987 286.320125 
L 90.607401 290.368034 
L 90.756769 282.898525 
L 91.04901 245.05121 
L 91.250332 290.572779 
L 91.360735 283.222355 
L 91.516597 284.683907 
L 91.620505 290.989308 
L 91.756885 286.93651 
L 91.880275 290.03807 
L 92.081598 292.102207 
L 92.419299 283.476733 
L 92.711541 259.893313 
L 92.867403 285.730692 
L 93.036254 273.785954 
L 93.114185 291.576791 
L 93.250564 288.995828 
L 93.373955 281.929557 
L 93.451886 289.298557 
L 93.542806 288.77483 
L 93.601254 291.59889 
L 93.744128 292.827808 
L 93.906485 281.977121 
L 93.997404 290.987618 
L 94.120795 282.650238 
L 94.231198 291.075509 
L 94.302634 291.028353 
L 94.419531 285.494303 
L 94.653324 259.558149 
L 94.757233 291.868239 
L 94.848152 289.743448 
L 94.932578 289.014164 
L 95.04298 283.463601 
L 95.120911 290.676593 
L 95.231314 284.859469 
L 95.296256 292.353645 
L 95.53005 281.336632 
L 95.640452 287.589861 
L 95.763843 284.144952 
L 95.893728 285.910308 
L 96.101544 265.718025 
L 96.172981 292.136209 
L 96.244418 291.285764 
L 96.4912 283.318978 
L 96.737982 289.999028 
L 96.893844 287.152656 
L 96.971775 292.097685 
L 97.069189 284.42069 
L 97.212063 291.095981 
L 97.45235 283.050728 
L 97.63419 290.230843 
L 97.770569 279.760611 
L 97.835512 291.419153 
L 97.93942 286.873164 
L 98.004363 290.643589 
L 98.082294 290.228982 
L 98.212179 287.182408 
L 98.296604 290.15947 
L 98.510915 289.806314 
L 98.816145 287.766524 
L 98.952524 293.510848 
L 99.101892 287.873784 
L 99.25126 290.998304 
L 99.355169 291.260511 
L 99.47856 288.057264 
L 99.543502 290.934231 
L 99.634422 288.830524 
L 99.900686 262.00936 
L 100.030572 290.199579 
L 100.205917 279.51882 
L 100.329308 281.071115 
L 100.407239 290.29291 
L 100.478676 290.112687 
L 100.563101 288.620909 
L 100.829366 255.382011 
L 101.037182 291.075554 
L 101.49178 269.071562 
L 101.725573 292.377468 
L 101.822987 292.394334 
L 102.115229 286.227839 
L 102.212643 290.779295 
L 102.504885 252.393144 
L 102.595804 289.719664 
L 102.972471 247.129495 
L 103.323161 220.680009 
L 103.517989 292.144829 
L 103.621897 289.874665 
L 103.881668 267.607185 
L 104.108967 278.922142 
L 104.271323 280.068288 
L 104.492128 290.29739 
L 104.881784 268.170302 
L 105.04414 280.89948 
L 105.414313 259.752074 
L 105.57667 290.05226 
L 105.752015 287.828133 
L 105.888394 281.973535 
L 106.14167 278.265617 
L 106.310521 292.667212 
L 106.479372 282.994747 
L 106.544314 292.432558 
L 106.667705 288.876964 
L 106.810579 291.533451 
L 106.953453 280.780998 
L 107.115809 278.891331 
L 107.219717 291.265688 
L 107.460005 290.13463 
L 107.719775 279.959198 
L 107.901615 291.974204 
L 108.012017 290.379065 
L 108.258799 270.693709 
L 108.33673 289.889394 
L 108.499086 287.301718 
L 108.700409 277.627235 
L 108.784834 288.222123 
L 108.966673 270.770898 
L 109.148512 290.504697 
L 109.219949 292.795428 
L 109.921329 272.469907 
L 110.031732 289.309872 
L 110.155123 282.357857 
L 110.252537 290.026582 
L 110.434376 289.091356 
L 110.499319 291.784404 
L 110.785066 240.474404 
L 110.856503 290.480936 
L 111.064319 288.770758 
L 111.161733 292.423117 
L 111.272135 291.091133 
L 111.622825 281.05011 
L 111.694262 292.64369 
L 111.830642 280.54651 
L 111.954033 281.571748 
L 112.148861 284.588865 
L 112.278746 283.488808 
L 112.428114 275.602768 
L 112.63593 291.74905 
L 112.733344 288.505134 
L 112.921677 286.802154 
L 113.29185 263.000057 
L 113.538632 262.674766 
L 113.713977 293.119625 
L 114.123116 266.519531 
L 114.311449 290.826546 
L 114.454323 283.66168 
L 114.506277 292.40651 
L 114.655645 289.082471 
L 114.941392 240.133417 
L 115.012829 292.300335 
L 115.103749 289.745819 
L 115.18168 289.921048 
L 115.324554 291.922981 
L 115.506393 287.129704 
L 115.753175 267.874574 
L 115.902543 291.737126 
L 115.986968 291.749376 
L 116.058405 292.296945 
L 116.14283 290.230735 
L 116.344152 281.96826 
L 116.53898 290.261884 
L 117.032544 258.518804 
L 117.110475 292.969677 
L 117.168923 291.278089 
L 117.33128 287.739976 
L 117.72743 220.71193 
L 118.019671 285.961549 
L 118.104097 290.643559 
L 118.240476 290.425915 
L 118.915879 156.458505 
L 119.149673 290.477455 
L 119.318523 282.601638 
L 119.383466 292.148638 
L 119.688696 277.91391 
L 119.844558 278.862455 
L 119.980938 285.521114 
L 120.162777 274.12704 
L 120.396571 289.697371 
L 120.48749 288.893044 
L 120.740766 282.025373 
L 121.065479 260.017491 
L 121.162893 291.254149 
L 121.344733 281.748729 
L 121.448641 290.3139 
L 121.559043 287.406815 
L 121.708411 288.467025 
L 121.916227 283.774442 
L 122.02663 285.592206 
L 122.214963 275.732703 
L 122.461745 289.526831 
L 122.766975 244.725954 
L 122.851401 290.573282 
L 122.968297 289.264484 
L 123.039734 290.34796 
L 123.16962 287.118075 
L 123.305999 280.953071 
L 123.526804 292.412131 
L 123.578758 293.120755 
L 123.708643 286.935164 
L 123.838528 290.93408 
L 123.961919 291.145245 
L 124.345081 219.421178 
L 124.403529 292.244114 
L 124.533414 285.327277 
L 124.721748 290.286682 
L 124.975024 267.701931 
L 125.072438 287.789754 
L 125.27376 276.727849 
L 125.832266 224.136043 
L 126.247899 242.819805 
L 126.351807 285.448741 
L 126.488186 281.020368 
L 126.929796 193.08223 
L 127.105141 293.346213 
L 127.215543 289.698991 
L 127.293475 292.697342 
L 127.618188 255.142274 
L 127.68313 292.117585 
L 127.780544 290.590166 
L 127.864969 292.013877 
L 128.07928 277.4331 
L 128.176694 286.751803 
L 128.293591 285.637798 
L 128.365027 292.182486 
L 128.449453 290.098565 
L 128.68974 273.766965 
L 129.579454 76.781632 
L 129.702845 288.99419 
L 129.871696 287.932151 
L 129.995087 285.452308 
L 130.073018 290.320409 
L 130.150949 290.032245 
L 130.261351 292.528999 
L 130.345777 289.838254 
L 130.676984 271.466827 
L 130.871812 292.298793 
L 130.962731 291.75459 
L 131.060145 289.063044 
L 131.138076 292.269467 
L 131.378364 266.531362 
L 131.449801 290.082823 
L 131.599169 279.259255 
L 131.761525 291.852634 
L 132.125204 259.614756 
L 132.248595 284.428503 
L 132.781124 194.21683 
L 132.956469 292.096071 
L 133.456527 208.416723 
L 133.560435 289.966415 
L 133.683826 288.276618 
L 133.800723 284.497765 
L 133.963079 283.082223 
L 134.060493 288.468166 
L 134.190379 288.376948 
L 134.391701 277.034714 
L 134.515092 286.439532 
L 134.677448 279.289548 
L 134.846299 279.808252 
L 135.028138 276.652263 
L 135.222966 293.202063 
L 135.456759 284.029167 
L 135.541185 292.891423 
L 135.820438 271.653437 
L 136.093197 289.281807 
L 136.352967 273.292482 
L 136.450381 291.594801 
L 136.573772 283.191643 
L 137.093313 219.907914 
L 137.197221 290.480619 
L 137.314118 293.199944 
L 137.405037 286.683567 
L 137.46998 292.047826 
L 137.593371 282.138591 
L 137.77521 290.783538 
L 137.957049 292.507404 
L 138.1259 287.859562 
L 138.255785 279.674751 
L 138.392165 291.013565 
L 138.52205 284.433563 
L 138.762338 261.131303 
L 139.080556 290.541974 
L 139.288373 290.252633 
L 139.418258 290.263964 
L 139.535154 282.917118 
L 139.691017 284.163143 
L 139.827396 287.847677 
L 140.054695 276.052445 
L 140.165098 289.5732 
L 140.2755 287.585632 
L 140.431362 278.237757 
L 140.496305 290.949074 
L 140.632684 289.336763 
L 140.730098 289.745995 
L 140.924926 284.439866 
L 140.996363 291.134899 
L 141.191191 291.198886 
L 141.262628 291.485309 
L 141.606823 272.985245 
L 141.801651 290.821209 
L 142.106881 276.411384 
L 142.249755 278.836063 
L 142.373146 288.03908 
L 142.503031 282.583532 
L 142.723836 287.276613 
L 142.853721 287.769086 
L 143.035561 282.847276 
L 143.106997 290.786801 
L 143.327802 287.391998 
L 143.464182 292.896938 
L 143.639527 274.526355 
L 143.723952 291.857461 
L 143.996711 278.225071 
L 144.236999 288.726574 
L 144.340907 291.817737 
L 144.503263 287.097146 
L 144.678608 271.34345 
L 144.737057 291.54724 
L 145.022804 256.958763 
L 145.074758 292.560339 
L 145.172172 290.746727 
L 145.263092 288.232465 
L 145.431942 293.810347 
L 145.522862 289.241892 
L 145.691713 293.440938 
L 145.912518 286.348778 
L 146.009932 286.192794 
L 146.087863 290.720419 
L 146.165794 290.244239 
L 146.334645 290.38554 
L 146.685335 237.18392 
L 146.873668 293.657277 
L 147.062002 279.364702 
L 147.159416 291.139824 
L 147.477634 270.036988 
L 147.672462 271.278027 
L 147.73091 292.34857 
L 148.0816 273.616177 
L 148.192003 286.59151 
L 148.347865 288.232371 
L 148.43229 291.020774 
L 148.555681 283.18324 
L 148.757003 291.373157 
L 148.854417 288.316615 
L 149.341487 221.371013 
L 149.601257 290.6175 
L 149.692177 286.774376 
L 149.809074 293.022835 
L 150.172752 260.856828 
L 150.289649 288.428669 
L 150.426028 280.891266 
L 150.510454 291.437561 
L 150.575396 291.020003 
L 150.659822 288.783666 
L 150.828672 293.078028 
L 150.932581 285.954472 
L 151.101431 289.407864 
L 151.231316 284.027706 
L 151.302753 293.530359 
L 151.594995 243.71414 
L 151.659938 290.675796 
L 151.867754 279.867479 
L 152.114536 285.218803 
L 152.549651 217.214035 
L 152.763962 289.259551 
L 153.030226 283.969437 
L 153.212066 269.384532 
L 153.419882 291.988655 
L 153.666664 282.109648 
L 153.978388 232.117303 
L 154.134251 287.523555 
L 154.27063 282.894753 
L 154.491435 289.388261 
L 154.777182 284.815623 
L 155.004481 290.566972 
L 155.101895 287.09791 
L 155.303217 274.130284 
L 155.446091 277.216959 
L 155.608448 288.96051 
L 155.933161 285.598456 
L 156.082529 285.615761 
L 156.199425 288.155088 
L 156.355288 276.559757 
L 156.478678 289.345035 
L 156.608564 286.764557 
L 156.913794 284.729477 
L 157.128104 273.455243 
L 157.206036 290.072372 
L 157.374886 278.928804 
L 157.511266 280.87724 
L 157.602185 290.961698 
L 157.732071 287.168454 
L 157.82299 291.210236 
L 158.024312 257.117607 
L 158.160692 281.856602 
L 158.394485 249.431597 
L 158.498393 289.654254 
L 158.654256 284.930851 
L 158.771152 293.044817 
L 158.842589 291.825946 
L 159.069888 286.061786 
L 159.297187 276.590931 
L 159.602417 240.961537 
L 159.75828 293.349737 
L 160.141441 277.741155 
L 160.271326 280.828947 
L 160.686959 242.20327 
L 160.76489 291.810626 
L 161.005178 288.814 
L 161.381845 269.227998 
L 161.609144 290.07029 
L 161.868914 260.699537 
L 162.083225 272.742744 
L 162.174144 287.256761 
L 162.667708 290.926293 
L 162.95995 234.064081 
L 163.044375 288.768064 
L 163.648341 230.681094 
L 163.830181 277.57787 
L 164.122422 246.125256 
L 164.206848 288.257858 
L 164.466618 250.03606 
L 164.544549 291.286948 
L 164.693917 285.693372 
L 164.895239 267.331565 
L 164.979665 291.459171 
L 165.356332 250.358776 
L 165.882367 159.970753 
L 166.012252 289.184454 
L 166.142137 289.999392 
L 166.285011 281.13205 
L 166.492827 292.039929 
L 166.694149 288.988834 
L 166.856506 288.556859 
L 167.057828 291.757407 
L 167.174724 285.57199 
L 167.434495 249.695118 
L 167.765702 270.973023 
L 167.837139 290.744719 
L 168.018978 292.360635 
L 168.181335 278.634279 
L 168.31122 289.181895 
L 168.583979 262.055797 
L 168.759324 288.143701 
L 168.941163 260.526133 
L 169.207428 260.752797 
L 169.402256 283.63027 
L 169.746451 243.679691 
L 169.843865 285.516143 
L 170.142601 239.239408 
L 170.382889 246.355569 
L 170.636165 260.768594 
L 170.759556 290.797128 
L 171.155706 219.450374 
L 171.324557 281.572774 
L 171.792143 293.76361 
L 171.928523 278.467076 
L 172.090879 275.675349 
L 172.246741 293.824968 
L 172.480535 263.715392 
L 172.629903 287.048389 
L 173.000076 228.448372 
L 173.3118 274.598714 
L 173.519616 253.725931 
L 173.701456 286.723755 
L 174.272951 227.510788 
L 174.50025 273.927087 
L 174.688583 270.842217 
L 174.980825 232.996993 
L 175.11071 287.911525 
L 175.72117 157.103317 
L 176.045883 289.995589 
L 176.377091 236.286961 
L 176.591401 290.263126 
L 176.766746 284.29766 
L 176.838183 290.36773 
L 177.039505 268.944708 
L 177.325253 290.897938 
L 177.56554 282.33859 
L 177.74738 292.669603 
L 178.026633 278.738367 
L 178.150024 278.908717 
L 178.31238 290.030757 
L 178.572151 246.157696 
L 178.79945 292.408744 
L 178.9683 278.280243 
L 179.176117 287.833941 
L 179.572267 214.7391 
L 179.948934 272.635486 
L 180.182727 248.660896 
L 180.260658 292.795754 
L 180.377555 285.177833 
L 180.5529 288.956901 
L 181.1179 190.03681 
L 181.436119 239.941789 
L 181.566004 289.334627 
L 181.86474 284.076898 
L 182.066062 292.732738 
L 182.182959 291.477824 
L 182.501178 265.326783 
L 182.61158 288.353347 
L 182.793419 264.368295 
L 183.033707 290.371964 
L 183.261006 283.786687 
L 183.436351 283.696066 
L 183.527271 287.109462 
L 183.793535 248.548721 
L 184.001352 290.451114 
L 184.19618 265.816106 
L 184.41049 286.135822 
L 184.637789 251.044608 
L 184.8521 291.196543 
L 184.936525 290.335004 
L 185.033939 290.896189 
L 185.241755 254.07332 
L 185.521009 271.302589 
L 185.865204 254.70879 
L 185.94963 290.718522 
L 186.358768 219.568588 
L 186.60555 244.828238 
L 186.936757 235.556209 
L 186.995206 293.356897 
L 187.345896 282.664019 
L 187.910896 192.857645 
L 188.216126 231.167214 
L 188.527851 232.313912 
L 188.599288 289.713111 
L 188.75515 274.493317 
L 188.969461 288.315468 
L 189.190265 281.614328 
L 189.320151 290.852964 
L 189.469519 291.974662 
L 189.703312 277.604513 
L 189.917623 287.712704 
L 190.073485 287.157469 
L 190.586531 243.337631 
L 191.047624 223.874597 
L 191.203486 287.83962 
L 191.456762 265.869916 
L 191.554176 287.533479 
L 191.761992 287.940369 
L 191.904866 285.600882 
L 192.249062 258.382658 
L 192.326993 289.31367 
L 192.742626 277.324964 
L 192.846534 290.783265 
L 193.09981 243.974422 
L 193.385557 251.261315 
L 193.918087 152.97146 
L 194.515559 236.765552 
L 194.768835 246.147525 
L 195.061076 250.090452 
L 195.314353 244.659011 
L 195.788433 294.800416 
L 196.333951 264.713606 
L 196.515791 283.897562 
L 196.885963 245.39578 
L 196.970389 288.964482 
L 197.087285 282.942924 
L 197.256136 294.110539 
L 197.418493 291.122052 
L 197.821137 218.947614 
L 197.964011 281.856602 
L 198.327689 219.806442 
L 198.49654 272.543006 
L 199.081023 189.424434 
L 199.223897 292.47131 
L 199.483667 242.727651 
L 199.59407 289.774475 
L 199.814875 291.878823 
L 200.029185 283.407911 
L 200.483783 186.310805 
L 200.574703 288.059488 
L 200.711082 280.679631 
L 200.983841 239.429543 
L 201.100738 286.957639 
L 201.405968 280.417409 
L 201.548842 290.452439 
L 201.880049 280.221741 
L 202.224245 263.396098 
L 202.698326 190.186786 
L 203.555568 214.685729 
L 203.724419 291.185859 
L 203.932235 284.495409 
L 204.230971 284.62975 
L 204.432293 282.711409 
L 204.672581 249.883122 
L 204.938846 243.065824 
L 205.127179 257.513124 
L 205.334995 293.520178 
L 205.731145 232.491912 
L 206.023387 278.132563 
L 206.555916 249.607476 
L 206.776721 277.171936 
L 207.081951 237.775847 
L 207.250802 276.617327 
L 207.530055 243.826743 
L 207.815803 278.414763 
L 208.224941 295.488 
L 208.575631 256.081022 
L 208.815919 284.489376 
L 209.036724 275.600386 
L 209.614713 165.760708 
L 210.309599 200.409172 
L 210.523909 262.398948 
L 210.90707 207.726215 
L 211.192818 290.038539 
L 211.692876 232.032401 
L 211.933164 247.966911 
L 212.394256 223.900138 
L 212.58259 259.1502 
L 213.134602 202.981847 
L 213.277475 277.143373 
L 213.511269 284.249504 
L 213.829487 234.227201 
L 214.115235 243.488941 
L 214.29058 293.632974 
L 214.615293 234.604676 
L 214.99196 275.311534 
L 215.212765 252.717582 
L 215.810237 176.902504 
L 216.505122 286.176895 
L 216.875295 226.739443 
L 217.167537 238.743494 
L 217.479261 232.218316 
L 217.790986 279.910944 
L 217.972825 261.444067 
L 218.297538 247.403607 
L 218.472883 272.115099 
L 218.869033 261.219008 
L 218.972941 285.593048 
L 219.330126 218.316608 
L 219.895126 144.046592 
L 220.271793 263.735343 
L 220.531564 242.622781 
L 221.025127 215.55497 
L 221.362829 223.6448 
L 221.713519 224.955004 
L 221.921335 294.547282 
L 222.194094 284.564171 
L 222.460359 240.697601 
L 222.700646 248.049845 
L 223.304613 206.867601 
L 223.772199 196.132601 
L 223.947544 274.336224 
L 224.278752 223.44273 
L 224.480074 287.933306 
L 224.681396 274.05957 
L 225.090534 226.886997 
L 225.467201 228.746849 
L 226.337432 201.668886 
L 226.512777 293.071019 
L 226.720593 268.160849 
L 227.220651 255.392985 
L 227.740192 202.313892 
L 228.415595 202.204629 
L 228.844216 292.2659 
L 229.519619 186.083111 
L 229.681976 263.487649 
L 230.448298 144.482728 
L 230.792494 220.275962 
L 231.052265 244.283563 
L 231.584794 231.217067 
L 232.117323 189.47914 
L 232.390082 242.236923 
L 232.63037 247.794469 
L 232.974566 242.502171 
L 233.260313 234.899457 
L 233.559049 248.754474 
L 233.851291 285.60781 
L 234.188992 236.995184 
L 234.351349 263.328632 
L 234.896866 188.362722 
L 235.065717 294.601775 
L 235.325488 265.951721 
L 235.507327 259.915708 
L 235.591752 290.991489 
L 236.052845 203.389996 
L 236.436006 265.443669 
L 236.897098 217.149521 
L 237.267271 213.080426 
L 237.695892 216.180188 
L 237.962157 287.64419 
L 238.202445 288.757971 
L 238.462215 242.408057 
L 238.916813 230.075185 
L 239.29348 240.135639 
L 239.64417 223.886554 
L 239.858481 252.658814 
L 240.144228 239.311117 
L 240.566355 236.509817 
L 240.975494 208.571203 
L 241.469057 289.53612 
L 241.683368 253.43187 
L 242.63153 153.203558 
L 242.897795 242.773258 
L 243.806991 148.045071 
L 244.235612 202.795176 
L 244.709693 207.840848 
L 245.553947 138.942272 
L 245.865671 241.825248 
L 246.170902 231.649356 
L 246.703431 158.753886 
L 247.054121 232.509905 
L 247.547685 258.212487 
L 247.885386 264.952734 
L 248.125674 289.783338 
L 248.573778 185.827887 
L 248.710157 281.792423 
L 249.190732 231.626086 
L 249.38556 258.362168 
L 249.762227 213.807703 
L 250.814297 236.69386 
L 250.996137 270.049501 
L 251.27539 245.420354 
L 251.632574 253.96175 
L 252.009241 231.502648 
L 252.626196 201.870512 
L 253.02884 202.315822 
L 253.47045 190.668688 
L 253.671772 255.602466 
L 254.048439 225.03779 
L 254.38614 242.088411 
L 254.78229 240.247044 
L 255.827866 119.245241 
L 256.003211 275.988019 
L 256.334418 236.251507 
L 256.724074 204.687344 
L 257.204649 209.516976 
L 257.425454 250.330967 
L 257.652753 249.651406 
L 258.068386 197.246918 
L 258.659363 207.153188 
L 258.958099 233.357458 
L 259.276318 237.636736 
L 259.601031 228.81372 
L 260.016664 228.679728 
L 260.198503 259.771611 
L 260.432296 249.736499 
L 260.62063 258.720718 
L 260.906377 235.55123 
L 261.140171 248.349196 
L 261.594769 185.648697 
L 261.828562 249.210252 
L 262.28316 183.154988 
L 262.555919 240.206441 
L 263.140403 141.275815 
L 263.679426 200.740109 
L 264.114542 211.079424 
L 264.549657 202.294201 
L 264.789945 249.499191 
L 265.335462 239.074851 
L 266.121268 171.321378 
L 266.27713 264.237252 
L 266.510924 249.171815 
L 267.02397 179.363018 
L 267.309717 234.605146 
L 267.67989 220.43151 
L 268.037075 231.869816 
L 268.387765 226.673183 
L 268.608569 251.159952 
L 268.881328 251.997273 
L 269.335927 189.670962 
L 269.654145 225.423955 
L 270.004835 279.732431 
L 270.277594 238.06493 
L 270.660756 233.382047 
L 271.225756 140.825038 
L 271.849205 145.343982 
L 272.706447 106.881999 
L 273.264954 168.463041 
L 273.524724 242.264113 
L 273.765012 265.89331 
L 274.239093 176.725573 
L 275.434037 83.190446 
L 275.888635 230.237008 
L 276.388693 166.667144 
L 276.849785 205.975832 
L 277.20697 215.154824 
L 277.46674 244.100051 
L 278.51881 90.533478 
L 278.8695 219.978186 
L 279.168236 231.106948 
L 279.863122 131.051199 
L 280.174846 249.312419 
L 280.700881 181.708601 
L 281.006112 236.267634 
L 281.408756 206.814185 
L 281.986745 176.595395 
L 282.304964 229.866448 
L 282.90893 134.472772 
L 283.129735 251.084748 
L 284.071402 183.95077 
L 284.305196 249.369617 
L 285.155944 136.641417 
L 285.571576 242.823888 
L 285.831347 246.72011 
L 286.389853 172.331091 
L 287.07175 133.911651 
L 287.305544 249.193895 
L 287.682211 211.811166 
L 288.078361 229.515862 
L 288.974568 130.018625 
L 289.520086 156.076059 
L 290.260432 143.051368 
L 290.753996 177.778687 
L 291.299513 153.280442 
L 291.50733 253.862127 
L 292.416526 109.118216 
L 292.897101 182.113725 
L 293.533539 147.579479 
L 293.780321 245.244572 
L 294.605092 113.839203 
L 295.241529 135.056298 
L 295.864978 132.214786 
L 296.410496 159.396606 
L 297.001474 139.785989 
L 297.319692 229.48614 
L 297.969118 135.952703 
L 298.52113 148.107882 
L 299.112108 142.699895 
L 299.696591 142.005124 
L 299.923891 249.599858 
L 300.527857 138.211182 
L 301.424065 101.977462 
L 301.989065 158.994772 
L 302.586537 140.804581 
L 303.184009 142.646699 
L 304.034757 154.39366 
L 304.625735 148.612258 
L 305.171253 150.163439 
L 306.405162 136.075239 
L 306.898726 177.563088 
L 307.470221 161.137137 
L 308.054704 139.155135 
L 308.619705 142.277203 
L 309.184705 157.515842 
L 309.788671 142.34382 
L 310.353672 149.059903 
L 310.931661 154.114324 
L 311.620053 129.016358 
L 312.198042 145.382795 
L 312.827985 129.456239 
L 313.574825 116.261798 
L 314.133331 155.4667 
L 314.678849 155.641675 
L 315.230861 160.172159 
L 315.847816 136.628808 
L 316.445288 138.159084 
L 317.016783 144.11352 
L 317.627243 133.343237 
L 318.211726 141.243871 
L 318.783221 154.442527 
L 319.354716 145.510616 
L 319.89374 151.49532 
L 320.497706 133.869191 
L 321.095178 153.414996 
L 321.64719 148.497069 
L 322.218685 145.942634 
L 322.809662 146.440102 
L 323.342192 157.723488 
L 323.881215 157.19231 
L 324.478687 140.000732 
L 325.10863 144.370109 
L 326.199666 156.144897 
L 326.764667 145.851595 
L 327.290702 160.50363 
L 327.842714 149.010111 
L 328.472657 142.873687 
L 329.044152 154.713811 
L 329.661107 131.975962 
L 330.349498 153.554015 
L 330.953464 130.388083 
L 331.55743 134.167012 
L 332.08996 159.170331 
L 332.641972 147.478704 
L 333.206972 146.148294 
L 333.739502 155.479203 
L 334.291514 147.065975 
L 334.863009 156.580343 
L 335.402032 154.92311 
L 335.960539 157.422346 
L 336.532034 154.240371 
L 337.064563 160.419937 
L 337.79192 134.542642 
L 338.343932 153.346801 
L 338.928415 152.510068 
L 339.506405 138.879484 
L 340.051922 150.504304 
L 340.610429 148.159896 
L 341.013073 214.955079 
L 341.565085 146.415907 
L 342.110603 149.198923 
L 342.675603 145.335376 
L 343.23411 169.782897 
L 344.33164 147.128884 
L 344.890146 147.278845 
L 345.442158 155.660054 
L 346.007159 145.872734 
L 346.539688 157.97825 
L 347.130666 141.33325 
L 347.741126 149.863601 
L 348.28015 152.801634 
L 348.832162 153.988414 
L 349.37768 169.062542 
L 349.929692 153.458275 
L 350.475209 149.919747 
L 351.053199 159.375088 
L 351.598716 156.917743 
L 352.144234 160.236645 
L 352.683258 160.110432 
L 353.215787 155.874706 
L 353.741822 160.251173 
L 354.300329 146.285372 
L 354.852341 149.035708 
L 355.391364 155.087742 
L 355.962859 143.099591 
L 356.495388 156.472956 
L 357.040906 153.697683 
L 357.592918 157.425955 
L 358.118953 158.585804 
L 359.255449 143.196582 
L 359.839932 139.937966 
L 361.073842 138.274084 
L 361.684302 134.321522 
L 362.236314 152.568512 
L 362.801315 145.890272 
L 363.353327 155.106212 
L 363.911833 153.903744 
L 364.450857 156.654686 
L 365.054823 143.876599 
L 365.678272 134.088173 
L 366.262755 156.755606 
L 366.892698 146.963077 
L 367.451205 158.460296 
L 367.990228 154.871839 
L 368.574712 142.041548 
L 369.152701 149.086357 
L 369.698219 150.768983 
L 370.243737 151.982537 
L 370.834714 141.12803 
L 371.432186 139.066454 
L 371.964715 156.222911 
L 372.497245 156.84575 
L 373.02328 156.263915 
L 373.542821 161.426353 
L 374.101327 142.841432 
L 375.185868 161.461739 
L 375.731386 155.770329 
L 376.341847 145.892069 
L 376.887364 152.28775 
L 377.419894 162.640497 
L 378.004377 139.140691 
L 378.536906 156.326392 
L 379.082424 153.480165 
L 379.614954 154.165944 
L 380.153977 156.573701 
L 380.751449 141.276543 
L 381.296967 161.496632 
L 381.83599 156.510981 
L 382.381508 160.773738 
L 382.953003 153.115613 
L 383.498521 150.941046 
L 384.057027 146.486012 
L 384.596051 159.11285 
L 385.180534 148.851961 
L 385.778006 148.180505 
L 386.323524 153.711877 
L 386.895019 142.001537 
L 387.434042 158.265699 
L 387.973066 154.114681 
L 388.544561 150.919156 
L 389.12255 142.284702 
L 389.674562 156.219317 
L 390.272034 150.268793 
L 390.804563 155.203515 
L 391.350081 155.659167 
L 391.941059 137.203963 
L 392.538531 149.815439 
L 393.136003 143.909354 
L 393.752957 141.128515 
L 393.752957 141.128515 
" clip-path="url(#pfa1e735869)" style="fill: none; stroke: #1f77b4; stroke-width: 1.5; stroke-linecap: square"/>
   </g>
   <g id="line2d_15">
    <path d="M 138.716878 265.785465 
L 203.659476 228.948495 
L 268.602075 254.63947 
L 333.544674 157.439686 
L 398.487273 160.548173 
" clip-path="url(#pfa1e735869)" style="fill: none; stroke: #ff7f0e; stroke-width: 1.5; stroke-linecap: square"/>
   </g>
   <g id="line2d_16">
    <path d="M 73.832727 291.953592 
L 73.89767 290.935222 
L 73.969107 291.870691 
L 74.163935 286.210132 
L 74.267843 286.306329 
L 74.371751 291.832067 
L 74.501636 287.834311 
L 74.631521 289.996116 
L 74.761406 281.743131 
L 74.832843 290.885531 
L 74.9952 274.697916 
L 75.157556 288.788348 
L 75.326407 284.596766 
L 75.495258 273.625229 
L 75.897902 288.429769 
L 76.09273 270.387296 
L 76.164167 292.467435 
L 76.30704 285.379199 
L 76.391466 290.573683 
L 76.605776 286.491755 
L 76.826581 278.255305 
L 76.891524 291.910596 
L 77.170777 282.691701 
L 77.391582 289.02102 
L 77.534455 283.973804 
L 77.631869 287.181858 
L 77.9371 259.896942 
L 78.125433 291.128217 
L 78.281295 285.317039 
L 78.378709 287.537327 
L 78.508594 284.197681 
L 78.696928 270.43065 
L 78.956698 274.39249 
L 79.209974 286.88981 
L 79.398308 268.2836 
L 79.573653 278.884235 
L 79.64509 291.523268 
L 79.723021 289.686972 
L 79.982791 286.76352 
L 80.288022 283.72114 
L 80.39193 289.745626 
L 80.580263 282.047021 
L 80.664689 288.360462 
L 81.106298 242.415351 
L 81.534919 287.02962 
L 81.632333 289.876487 
L 81.729747 288.82091 
L 81.859632 281.958559 
L 82.002506 288.483827 
L 82.301242 275.446357 
L 82.502564 276.546115 
L 82.75584 288.40452 
L 82.970151 278.671855 
L 83.100036 289.349504 
L 83.184461 288.216666 
L 83.262393 290.715314 
L 83.431243 288.604243 
L 83.522163 293.160312 
L 83.652048 284.358517 
L 83.80791 293.09775 
L 84.132623 276.939096 
L 84.541762 268.56012 
L 84.756072 281.616508 
L 84.957394 277.287489 
L 85.145728 270.130126 
L 85.230153 291.590804 
L 85.476935 285.152059 
L 85.678257 276.405592 
L 85.912051 290.336677 
L 86.028947 287.147151 
L 86.587454 219.919151 
L 86.665385 290.450836 
L 86.782281 289.808988 
L 86.88619 288.202214 
L 87.230385 277.177689 
L 87.477167 273.667544 
L 87.581075 289.714654 
L 87.730443 280.711118 
L 87.873317 286.995077 
L 88.055156 276.049437 
L 88.159065 289.780686 
L 88.301938 287.160617 
L 88.412341 287.660109 
L 88.6851 257.968394 
L 88.763031 289.035443 
L 88.860445 288.204611 
L 88.951364 288.853554 
L 89.016307 290.932036 
L 89.217629 284.533724 
L 89.334526 289.08876 
L 89.464411 286.544565 
L 89.542342 291.952005 
L 89.69171 284.50835 
L 89.750158 292.11751 
L 89.983952 286.737168 
L 90.146308 289.226081 
L 90.321653 276.896478 
L 90.613895 291.319889 
L 90.685332 289.586208 
L 90.74378 292.335864 
L 90.899642 287.962231 
L 91.13993 270.794635 
L 91.419183 266.194406 
L 91.717919 288.000953 
L 91.84131 281.081794 
L 91.984184 281.594385 
L 92.133552 286.778418 
L 92.243954 286.306825 
L 92.406311 281.631168 
L 92.705046 242.344507 
L 92.912863 288.070905 
L 93.055737 278.619667 
L 93.179127 286.184435 
L 93.451886 286.803132 
L 93.542806 290.263203 
L 93.653208 282.947926 
L 93.919473 288.846773 
L 94.08183 275.111223 
L 94.224703 282.187544 
L 94.302634 291.815405 
L 94.43252 286.404726 
L 94.503956 291.154487 
L 94.581888 289.096811 
L 94.659819 289.415237 
L 94.750738 288.693992 
L 95.354705 164.911077 
L 95.562521 289.848798 
L 95.828785 276.062458 
L 95.906717 289.251682 
L 96.166487 264.045024 
L 96.276889 285.362059 
L 96.549648 262.599884 
L 96.699016 291.043265 
L 96.835396 281.073643 
L 96.939304 285.574804 
L 97.406891 271.174784 
L 97.491316 291.84463 
L 97.601718 283.448053 
L 97.705627 289.62309 
L 97.80304 286.426451 
L 97.887466 291.70019 
L 98.231662 257.992441 
L 98.387524 282.359688 
L 98.543386 282.93981 
L 98.653789 289.216331 
L 98.94603 280.068713 
L 99.056433 291.271349 
L 99.134364 291.051552 
L 99.199306 291.725043 
L 99.316203 288.431372 
L 99.627927 239.00486 
L 99.874709 289.638845 
L 100.238388 275.058692 
L 100.368273 286.977701 
L 100.608561 283.05686 
L 100.731952 283.59326 
L 100.933274 287.781708 
L 101.238504 253.958674 
L 101.322929 291.710503 
L 101.433332 286.22036 
L 101.485286 292.325784 
L 101.556723 289.533456 
L 101.725573 286.216594 
L 101.93339 293.061219 
L 102.355517 269.340938 
L 102.439942 288.905172 
L 102.602299 291.150724 
L 102.745172 282.752853 
L 102.842586 287.983672 
L 102.998448 281.32027 
L 103.154311 290.553546 
L 103.284196 285.051117 
L 103.440058 286.979301 
L 103.608909 284.874307 
L 103.758277 290.783387 
L 104.160921 273.906314 
L 104.212875 292.516289 
L 104.310289 289.866283 
L 104.472645 288.026414 
L 104.557071 288.749217 
L 104.686956 284.338073 
L 104.953221 258.673652 
L 105.251957 291.779459 
L 105.407819 275.529956 
L 105.570175 290.052052 
L 106.206613 260.572558 
L 106.291038 293.335951 
L 106.498854 284.481153 
L 106.700177 275.953025 
L 106.778108 289.444159 
L 107.349602 258.530644 
L 107.414545 292.245973 
L 107.485982 290.158469 
L 107.570407 288.702273 
L 107.661327 291.632096 
L 107.823683 274.943098 
L 107.992534 276.012764 
L 108.213339 288.396607 
L 108.323741 284.161507 
L 108.590006 286.306214 
L 108.752363 275.264986 
L 108.979662 291.152351 
L 109.187478 275.541954 
L 109.34334 288.157477 
L 109.43426 287.989198 
L 109.518685 289.765154 
L 109.69403 281.871622 
L 109.836904 282.527844 
L 109.986272 285.712659 
L 110.200583 280.886594 
L 110.304491 289.866066 
L 110.434376 283.75062 
L 110.499319 291.029949 
L 110.603227 286.602348 
L 110.700641 291.785298 
L 110.830526 285.296414 
L 110.953917 287.818819 
L 111.194204 285.959511 
L 111.343572 280.099912 
L 111.408515 291.17764 
L 111.486446 288.965922 
L 111.668285 277.869968 
L 111.765699 290.762875 
L 111.863113 287.106053 
L 112.038458 286.551395 
L 112.174838 293.029543 
L 112.23978 292.143715 
L 112.343688 283.692326 
L 112.408631 290.883665 
L 112.648919 276.960516 
L 112.850241 286.83342 
L 112.967137 285.413789 
L 113.486678 261.146013 
L 113.636046 280.41999 
L 113.765931 282.423111 
L 113.947771 287.483162 
L 114.058173 284.072103 
L 114.454323 228.869093 
L 114.69461 291.04516 
L 114.772542 289.158297 
L 114.843978 289.400064 
L 114.980358 279.375832 
L 115.077772 289.493067 
L 115.220645 280.866874 
L 115.460933 284.87046 
L 115.551853 290.640116 
L 115.688232 280.215265 
L 115.759669 290.50906 
L 115.876566 284.555148 
L 116.038922 285.019723 
L 116.214267 277.521847 
L 116.318175 284.655179 
L 116.454555 284.225558 
L 116.577946 282.287444 
L 116.727314 282.766469 
L 116.909153 277.194725 
L 117.006567 290.659767 
L 117.078004 290.145983 
L 117.181912 287.75158 
L 117.396223 274.079747 
L 117.480648 290.678221 
L 117.59105 285.494273 
L 117.720936 285.818511 
L 117.844326 283.892088 
L 117.909269 291.037672 
L 118.026166 283.918505 
L 118.110591 290.501184 
L 118.220994 289.157251 
L 118.331396 289.965367 
L 118.389844 291.350747 
L 118.454787 291.0844 
L 118.552201 286.179152 
L 118.623638 291.561015 
L 118.740534 290.648964 
L 118.99381 258.768527 
L 119.208121 289.376808 
L 119.325018 283.464036 
L 119.454903 285.098429 
L 119.857547 227.009514 
L 120.104329 291.099744 
L 120.266685 275.245817 
L 120.53295 271.260363 
L 120.643352 289.707806 
L 120.812203 273.393786 
L 121.007031 289.136954 
L 121.195365 282.173922 
L 121.422664 265.628119 
L 121.623986 291.486845 
L 121.714905 288.146559 
L 121.805825 289.539951 
L 121.916227 287.887683 
L 122.065595 278.216621 
L 122.266917 276.040462 
L 122.37732 284.374719 
L 122.59163 274.71078 
L 122.831918 286.665523 
L 123.059217 290.649605 
L 123.234562 281.406913 
L 123.318988 289.437591 
L 123.416401 287.798746 
L 123.533298 283.741883 
L 123.741114 291.137839 
L 124.026862 279.266483 
L 124.280138 273.574872 
L 124.39054 287.23368 
L 124.513931 285.855758 
L 124.598357 288.459217 
L 124.903587 280.058216 
L 124.994507 291.546697 
L 125.208817 278.762505 
L 125.31922 286.133172 
L 125.520542 284.114247 
L 125.585484 290.692493 
L 125.806289 287.028536 
L 126.085542 259.08382 
L 126.436232 278.557806 
L 126.624566 290.438729 
L 126.67652 292.245083 
L 126.871348 280.245902 
L 127.007727 290.041903 
L 127.183072 274.131617 
L 127.293475 290.316768 
L 127.455831 278.663358 
L 127.644165 278.344461 
L 127.838992 282.893082 
L 127.962383 280.053831 
L 128.157211 288.545216 
L 128.306579 286.397382 
L 128.436464 280.101377 
L 128.605315 290.99023 
L 128.761177 280.424788 
L 128.981982 291.074533 
L 129.118362 285.431354 
L 129.391121 257.098763 
L 129.456063 290.259563 
L 129.57296 285.448054 
L 129.631408 291.951647 
L 129.871696 278.376808 
L 129.988592 289.728341 
L 130.22888 282.15281 
L 130.352271 289.444042 
L 130.430202 289.082641 
L 130.53411 289.445329 
L 130.631524 287.586722 
L 130.962731 273.240301 
L 131.410835 212.596831 
L 131.742043 290.227869 
L 132.086238 257.087257 
L 132.384974 289.329808 
L 132.488882 287.958289 
L 132.612273 283.671819 
L 132.670722 291.505386 
L 132.768136 290.251302 
L 132.917504 277.689747 
L 133.229228 289.369195 
L 133.339631 287.074447 
L 133.625378 263.217966 
L 133.696815 291.980725 
L 134.041011 279.939779 
L 134.151413 290.906351 
L 134.320264 280.518332 
L 134.450149 279.919866 
L 134.541069 287.081388 
L 134.729402 277.177595 
L 134.943713 286.603379 
L 135.073598 288.271427 
L 135.255437 286.514821 
L 135.482736 291.484097 
L 135.807449 284.230771 
L 135.872392 290.679548 
L 135.963312 289.388133 
L 136.060725 284.280452 
L 136.145151 289.670594 
L 136.482852 276.423594 
L 136.573772 288.983877 
L 136.749117 288.868711 
L 136.81406 290.618804 
L 136.956933 283.144537 
L 137.021876 291.429203 
L 137.171244 285.953899 
L 137.236186 291.565343 
L 137.586876 230.274711 
L 137.697279 287.201268 
L 137.892107 269.334265 
L 138.093429 288.040561 
L 138.281762 282.165201 
L 138.333716 292.611432 
L 138.574004 284.009239 
L 138.658429 290.206404 
L 138.924694 271.818956 
L 139.041591 285.223981 
L 139.22343 271.629775 
L 139.515672 267.041392 
L 139.736476 286.483998 
L 140.087167 291.538778 
L 140.18458 289.007091 
L 140.256017 290.113983 
L 140.418374 288.804614 
L 140.476822 292.27833 
L 140.574236 284.86359 
L 140.834006 275.491475 
L 141.02234 289.895038 
L 141.204179 288.443883 
L 141.308087 291.154397 
L 141.502915 275.64238 
L 141.619812 284.42857 
L 142.360157 210.713117 
L 142.444583 288.030557 
L 142.574468 286.743763 
L 142.723836 286.869817 
L 142.86671 288.64499 
L 142.990101 283.753072 
L 143.197917 280.488042 
L 143.373262 274.178748 
L 143.620044 289.445915 
L 143.931768 253.974583 
L 144.016194 290.335328 
L 144.165562 290.674914 
L 144.249987 290.625581 
L 144.405849 276.234972 
L 144.470792 290.470235 
L 144.866942 237.620427 
L 144.912402 292.999258 
L 145.165678 273.681121 
L 145.256597 288.32793 
L 145.347517 286.914177 
L 145.438437 290.176874 
L 145.503379 289.9549 
L 145.607287 286.670373 
L 145.698207 291.548078 
L 145.802115 287.948666 
L 145.893035 290.433216 
L 146.250219 235.094016 
L 146.451541 290.544905 
L 146.685335 283.278347 
L 146.834703 293.374514 
L 146.997059 277.683672 
L 147.159416 288.051525 
L 147.458151 273.818923 
L 147.646485 272.656863 
L 147.834819 276.65473 
L 147.899761 291.395417 
L 148.036141 281.774852 
L 148.159532 284.364259 
L 148.445279 258.814199 
L 148.666084 288.673473 
L 148.763498 289.533511 
L 148.938843 275.390686 
L 149.062234 288.42461 
L 149.244073 273.670717 
L 149.341487 289.560528 
L 149.503843 273.797833 
L 149.874016 280.18772 
L 149.990913 289.125019 
L 150.439017 226.696274 
L 150.633845 288.057273 
L 150.770224 289.897321 
L 150.861144 286.70475 
L 150.945569 290.565724 
L 151.062466 285.292151 
L 151.133903 290.553119 
L 151.257294 286.626414 
L 151.452121 290.575543 
L 151.582007 281.15074 
L 151.72488 292.4605 
L 152.108042 277.380647 
L 152.263904 278.831738 
L 152.400283 278.856013 
L 152.465226 290.725748 
L 152.699019 276.380213 
L 152.854881 276.856866 
L 152.945801 287.9118 
L 153.134135 277.127718 
L 153.238043 289.888362 
L 153.361434 283.509606 
L 153.556262 289.955125 
L 153.867986 234.837192 
L 153.978388 287.856515 
L 154.140745 283.39341 
L 154.231665 286.880062 
L 154.400515 281.031096 
L 154.543389 283.788862 
L 154.692757 276.885236 
L 154.829136 279.206958 
L 154.900573 290.145206 
L 155.010976 283.464684 
L 155.160344 290.623652 
L 155.270746 283.830052 
L 155.491551 280.405291 
L 155.757816 287.451061 
L 155.85523 286.953806 
L 156.082529 288.559021 
L 156.225402 288.236812 
L 156.355288 285.402095 
L 156.491667 288.883684 
L 156.602069 283.955979 
L 156.699483 287.267236 
L 156.848851 283.203598 
L 156.946265 286.213984 
L 157.128104 277.13067 
L 157.329426 288.354707 
L 157.42684 288.996715 
L 157.51776 291.300928 
L 157.732071 271.88136 
L 157.86845 284.906634 
L 158.011324 285.971021 
L 158.238623 291.184623 
L 158.485405 247.921069 
L 158.556842 291.364797 
L 158.70621 283.585533 
L 158.836095 287.909217 
L 159.076382 270.210956 
L 159.238739 288.103243 
L 159.453049 276.636448 
L 159.771268 272.454458 
L 159.836211 291.626603 
L 160.186901 283.613048 
L 160.303798 287.214578 
L 160.790867 245.517596 
L 160.875292 287.834894 
L 161.200005 262.140911 
L 161.46627 252.424329 
L 161.81696 291.473073 
L 162.037765 273.078059 
L 162.284547 279.874528 
L 162.453398 288.361944 
L 162.576788 282.9126 
L 162.82357 262.724566 
L 162.95995 287.143991 
L 163.180755 270.235763 
L 163.362594 285.887465 
L 163.492479 280.530804 
L 163.648341 288.693117 
L 163.862652 268.9074 
L 164.01202 281.198357 
L 164.148399 281.337058 
L 164.427653 285.295083 
L 164.590009 286.192767 
L 164.856274 247.966653 
L 164.947193 288.839351 
L 165.083573 278.975779 
L 165.187481 287.956636 
L 165.395297 270.529246 
L 165.492711 290.524098 
L 165.635585 282.736528 
L 165.823918 287.762049 
L 165.934321 287.327973 
L 166.038229 290.654071 
L 166.129149 288.503809 
L 166.609724 217.676519 
L 166.863 286.518866 
L 167.012368 282.671217 
L 167.226679 263.957423 
L 167.395529 290.044732 
L 167.479955 289.058451 
L 167.622828 286.201956 
L 167.902082 239.58894 
L 168.135875 291.244542 
L 168.603462 264.950251 
L 168.746335 286.889924 
L 168.928175 278.125222 
L 169.252888 249.12284 
L 169.551624 252.068061 
L 169.642543 291.220288 
L 169.85036 256.366433 
L 170.356912 282.64876 
L 170.915418 239.753796 
L 171.058292 284.067841 
L 171.220648 275.770145 
L 171.415476 285.181566 
L 171.805132 223.616958 
L 171.870074 290.390689 
L 172.097373 260.36407 
L 172.253236 283.859342 
L 172.454558 269.117359 
L 172.56496 286.231746 
L 172.746799 287.537776 
L 172.902662 293.882825 
L 173.285823 216.250952 
L 173.363754 289.262001 
L 173.467662 284.030418 
L 173.733927 290.032444 
L 174.01318 278.952677 
L 174.279445 276.161703 
L 174.552204 244.436989 
L 174.773009 272.295671 
L 175.162664 224.903687 
L 175.428929 288.605256 
L 175.578297 288.008222 
L 176.065366 237.343085 
L 176.149792 289.582799 
L 176.286171 288.349172 
L 176.519964 276.699489 
L 176.675827 285.353497 
L 177.143413 243.658638 
L 177.26031 288.961794 
L 177.409678 287.100467 
L 177.474621 292.111148 
L 177.714908 281.347398 
L 177.812322 286.483102 
L 177.968184 283.780127 
L 178.156518 290.849533 
L 178.44876 237.19002 
L 178.565656 287.195756 
L 178.916346 229.350782 
L 179.481347 191.107856 
L 179.585255 286.421292 
L 179.689163 284.764745 
L 179.780083 287.509541 
L 179.916462 278.07782 
L 180.117784 283.854733 
L 180.195716 290.478183 
L 180.286635 287.675789 
L 180.371061 292.346527 
L 180.513934 278.306324 
L 180.630831 287.765488 
L 180.76721 282.280034 
L 180.955544 289.81697 
L 181.169855 287.27152 
L 181.410142 289.783669 
L 181.916694 229.929589 
L 182.21543 287.775927 
L 182.877845 233.228451 
L 183.131121 284.937251 
L 183.196064 290.805001 
L 183.293477 287.90134 
L 183.702616 218.465253 
L 183.890949 264.958574 
L 184.235145 227.421492 
L 184.475433 278.43932 
L 184.80664 256.980279 
L 185.014456 265.25269 
L 185.131353 289.482026 
L 185.696354 211.997507 
L 186.274343 193.0954 
L 186.358768 289.521472 
L 186.488653 286.974709 
L 186.663998 277.6109 
L 186.800378 288.254319 
L 186.975723 270.332879 
L 187.391355 203.575771 
L 187.475781 289.064084 
L 188.086241 227.543005 
L 188.216126 285.221516 
L 188.443426 289.980568 
L 188.930495 259.682649 
L 189.053886 289.730535 
L 189.229231 270.185091 
L 189.664346 201.775803 
L 189.774749 284.074505 
L 190.054002 238.931821 
L 190.131933 290.516132 
L 190.20337 290.24055 
L 190.534577 262.600796 
L 190.657968 287.149196 
L 190.885267 264.512094 
L 191.073601 271.853773 
L 191.333371 262.997989 
L 191.463256 287.954673 
L 191.65159 291.293125 
L 191.852912 292.2409 
L 191.989291 288.049922 
L 192.080211 289.876105 
L 192.216591 279.616735 
L 192.6582 234.530098 
L 192.833545 271.114189 
L 193.021879 281.762001 
L 193.210212 285.322246 
L 193.736247 226.857263 
L 193.859638 281.947431 
L 194.398662 196.260444 
L 194.911708 287.255555 
L 195.132513 284.667755 
L 195.418261 237.887737 
L 195.833893 290.096142 
L 196.204066 228.926505 
L 196.3924 290.404625 
L 196.658664 253.793579 
L 196.762572 289.935374 
L 197.041826 286.195222 
L 197.48993 207.762592 
L 197.632803 285.925898 
L 198.002976 222.044074 
L 198.321195 231.673475 
L 198.464069 290.811618 
L 198.775793 232.484618 
L 199.003092 253.131432 
L 199.165449 287.813892 
L 199.28884 279.083173 
L 199.860334 209.095838 
L 199.970737 288.635789 
L 200.262979 281.158335 
L 200.490278 264.736276 
L 200.568209 290.214116 
L 200.808496 283.820738 
L 201.100738 285.330866 
L 201.2566 281.4021 
L 201.399474 286.904322 
L 201.724187 235.684063 
L 201.847578 286.802684 
L 202.477521 130.929748 
L 202.620395 284.097561 
L 203.087982 186.781932 
L 203.347752 282.785068 
L 203.945224 212.76045 
L 204.120569 288.7009 
L 204.321891 289.619456 
L 204.432293 284.238734 
L 205.016777 178.876165 
L 205.218099 281.769169 
L 205.445398 251.370448 
L 205.69218 249.072039 
L 205.796088 290.699464 
L 206.04287 287.420726 
L 206.231203 279.246568 
L 206.490974 259.394102 
L 206.679307 279.801997 
L 206.841664 277.865798 
L 207.055974 276.892705 
L 207.458618 223.390114 
L 207.620975 277.471336 
L 207.815803 288.703182 
L 208.367815 205.499495 
L 208.712011 220.813627 
L 208.919827 293.18228 
L 209.147126 273.263531 
L 209.536782 225.32434 
L 209.829023 240.88471 
L 210.017357 267.37119 
L 210.452472 232.140773 
L 210.712243 268.741426 
L 211.231783 234.173177 
L 211.588968 252.818089 
L 211.829255 249.878683 
L 212.121497 238.032694 
L 212.485176 230.094148 
L 212.686498 278.39279 
L 212.913797 266.206834 
L 212.991728 289.746753 
L 213.342418 230.497229 
L 213.602188 276.421997 
L 214.121729 166.275668 
L 214.238626 288.714975 
L 214.569833 267.436465 
L 214.803626 289.564578 
L 215.420581 180.119956 
L 215.628397 283.559429 
L 216.310295 230.901549 
L 216.453168 280.760021 
L 216.725927 241.709293 
L 216.901272 272.222597 
L 217.167537 278.980346 
L 217.433802 244.287449 
L 217.920871 221.243442 
L 218.258573 239.086672 
L 218.706677 250.098651 
L 219.109321 230.600313 
L 219.304148 270.532197 
L 219.544436 250.881306 
L 219.745758 289.865511 
L 219.960069 285.370928 
L 220.141908 290.676649 
L 220.356219 278.385764 
L 220.823805 260.534443 
L 221.116047 279.175484 
L 221.538174 210.047456 
L 222.005761 220.976814 
L 222.116163 287.856875 
L 222.330474 287.162423 
L 222.609727 270.068022 
L 223.200704 200.99376 
L 223.661797 223.814285 
L 224.421625 126.60691 
L 224.986626 187.817418 
L 225.181454 280.181998 
L 225.512661 228.778012 
L 225.707489 274.853642 
L 225.934788 251.584284 
L 226.201052 245.148138 
L 226.473811 246.025088 
L 227.298582 194.254847 
L 227.675249 218.877471 
L 228.188296 207.822415 
L 228.642894 205.838667 
L 228.94163 256.242358 
L 229.584562 187.743127 
L 229.896286 275.783552 
L 230.17554 282.335602 
L 230.493758 273.258996 
L 230.773011 281.893461 
L 231.162667 210.89352 
L 231.389966 291.016819 
L 231.48738 285.975764 
L 232.065369 211.128867 
L 232.403071 228.796592 
L 232.825198 228.988376 
L 233.461635 220.747286 
L 234.137038 140.171392 
L 234.468245 227.914202 
L 234.792958 230.401584 
L 235.046234 285.550061 
L 235.617729 194.942378 
L 235.955431 239.369781 
L 236.247673 239.142909 
L 236.565891 241.575995 
L 236.773708 257.107616 
L 237.14388 273.944996 
L 237.591984 227.006367 
L 237.877732 237.740764 
L 238.28687 228.002683 
L 238.618077 228.107681 
L 239.03371 214.169897 
L 239.488308 193.079531 
L 240.22216 126.6288 
L 240.663769 205.337767 
L 241.098885 198.366801 
L 241.585954 192.749045 
L 242.092506 172.203422 
L 242.345783 258.421112 
L 243.24199 118.650107 
L 244.138198 107.382355 
L 244.605785 260.045568 
L 245.053889 189.782132 
L 245.48251 264.240615 
L 246.13843 178.589641 
L 246.573546 228.753184 
L 246.97619 288.534407 
L 247.222972 249.898594 
L 247.684064 205.08655 
L 247.89188 257.548406 
L 248.37895 265.379918 
L 248.846537 189.735736 
L 249.145273 263.232419 
L 250.52855 129.032758 
L 250.651941 281.582371 
L 251.262401 139.780492 
L 251.574126 242.259897 
L 251.794931 253.385809 
L 252.158609 220.806435 
L 252.405391 248.226343 
L 253.230162 173.444249 
L 253.873094 134.222044 
L 254.295221 214.309246 
L 254.840739 157.537702 
L 255.31482 186.18281 
L 255.97074 153.79911 
L 256.425338 229.764331 
L 257.139707 121.809267 
L 257.334534 259.613564 
L 257.659247 238.034138 
L 258.009937 234.890798 
L 258.68534 133.58755 
L 259.230858 213.336632 
L 259.860801 130.053109 
L 260.263446 211.103796 
L 260.640113 217.843426 
L 260.841435 257.702497 
L 261.328504 177.961964 
L 261.97793 138.58506 
L 262.426034 190.412531 
L 262.802701 215.493855 
L 263.237817 206.172567 
L 263.484598 247.749916 
L 263.971668 180.967487 
L 264.302875 227.804242 
L 264.653565 237.869775 
L 265.452359 214.340223 
L 265.718624 245.02056 
L 266.153739 202.992927 
L 266.478452 241.003095 
L 267.16035 144.799914 
L 267.705867 155.045115 
L 268.16696 189.25683 
L 268.647535 189.314962 
L 269.400869 156.443477 
L 269.894433 202.109275 
L 270.478916 153.243009 
L 270.784147 232.106714 
L 271.420584 164.577271 
L 271.712826 239.4921 
L 272.245355 160.825524 
L 272.823344 149.530189 
L 274.31053 109.472403 
L 274.752139 192.824261 
L 274.92099 274.694697 
L 275.18076 244.680885 
L 275.498979 231.850956 
L 276.083463 213.753976 
L 276.46013 224.434008 
L 277.642085 80.134957 
L 277.960304 233.319858 
L 278.505822 192.897687 
L 278.850017 230.867897 
L 279.155248 237.496147 
L 279.947547 113.200349 
L 280.441111 208.242795 
L 280.720364 238.929478 
L 281.265882 168.894817 
L 281.921802 132.705839 
L 282.668642 139.344735 
L 282.915424 250.386648 
L 284.272724 53.568 
L 284.902667 134.815434 
L 285.298817 228.157978 
L 286.311922 94.917049 
L 286.974336 132.106899 
L 287.578303 157.096979 
L 288.253706 141.232331 
L 288.818706 153.833586 
L 290.637099 121.184001 
L 290.909858 242.946594 
L 291.968422 91.807582 
L 292.572388 140.639312 
L 293.163366 147.309826 
L 293.676413 174.307664 
L 294.118022 204.736052 
L 294.520666 205.009359 
L 295.248023 134.910538 
L 295.507794 245.377219 
L 296.118254 134.835762 
L 296.494921 215.044625 
L 296.865094 225.693426 
L 297.618428 121.16657 
L 298.430211 115.386979 
L 299.040671 136.817665 
L 299.832971 111.912961 
L 300.436937 136.458587 
L 301.014926 147.184424 
L 301.307168 238.352536 
L 301.937111 140.635559 
L 302.573549 140.061587 
L 303.106078 164.271003 
L 303.736021 131.865959 
L 304.35947 132.313514 
L 305.002402 135.369352 
L 305.911598 109.510443 
L 306.515564 135.445697 
L 307.080565 148.213343 
L 307.671543 145.085391 
L 308.269015 140.941607 
L 308.9639 142.286241 
L 309.574361 146.984216 
L 310.126373 153.394478 
L 310.743328 135.917787 
L 311.035569 235.940982 
L 311.652524 140.746524 
L 312.269479 132.438309 
L 313.061778 112.486865 
L 313.633273 154.697865 
L 314.256722 130.507958 
L 314.990574 134.055455 
L 315.542586 157.667683 
L 316.127069 143.587126 
L 316.711552 145.907097 
L 317.276553 152.371723 
L 318.698796 112.642376 
L 319.328739 137.62642 
L 319.913222 141.056598 
L 320.367821 203.326578 
L 321.2965 117.450603 
L 321.517305 253.095028 
L 321.835523 242.965262 
L 322.413513 160.275405 
L 322.95903 155.592701 
L 323.588974 138.771461 
L 324.186445 138.889189 
L 324.8034 158.276352 
L 325.478803 140.731913 
L 326.069781 144.15385 
L 326.706218 145.117509 
L 327.25823 160.857218 
L 327.842714 147.494824 
L 328.44668 142.342099 
L 329.076623 145.427318 
L 329.661107 157.257464 
L 330.083233 229.488627 
L 330.680705 144.19882 
L 330.933981 248.630995 
L 331.278177 238.595751 
L 332.018523 125.568839 
L 332.603006 149.080898 
L 333.232949 134.748794 
L 333.836916 137.600997 
L 334.408411 149.527922 
L 334.966917 156.519739 
L 335.538412 151.150633 
L 336.122895 155.653692 
L 336.759333 135.091472 
L 337.30485 160.45709 
L 337.876345 153.234646 
L 338.44784 152.275209 
L 338.999852 154.208814 
L 339.610313 136.780899 
L 340.162325 154.593633 
L 340.857211 121.711252 
L 341.4352 144.280912 
L 342.04566 133.694277 
L 342.656121 140.536096 
L 343.240604 139.960501 
L 343.454915 252.130098 
L 344.136812 135.845536 
L 344.727789 147.165332 
L 345.33825 136.646171 
L 345.929228 145.159962 
L 346.507217 148.955261 
L 347.072217 151.00733 
L 347.656701 141.790927 
L 348.202219 154.067482 
L 348.786702 144.553341 
L 349.358197 147.623281 
L 349.94268 154.061439 
L 350.501187 152.999567 
L 351.08567 140.477986 
L 351.722107 138.457922 
L 352.313085 150.35448 
L 352.878086 150.617347 
L 353.44958 158.659533 
L 354.034064 144.192148 
L 354.63803 139.674826 
L 355.235502 140.23051 
L 355.813491 146.144434 
L 356.397974 147.349071 
L 357.027918 130.066401 
L 357.618895 145.196387 
L 358.222861 140.81484 
L 358.820333 143.289502 
L 359.391828 149.207498 
L 359.969817 146.268388 
L 360.541312 149.327319 
L 361.112807 154.422222 
L 361.684302 149.840672 
L 362.307751 132.351698 
L 362.879246 147.880758 
L 363.437752 151.212966 
L 364.054707 138.29037 
L 364.645685 142.768666 
L 365.210685 159.734666 
L 365.821146 141.290706 
L 366.4381 134.506589 
L 367.061549 150.523077 
L 367.646033 145.506976 
L 368.224022 155.98229 
L 368.795517 152.116203 
L 369.347529 159.767034 
L 369.938506 145.117509 
L 370.529484 154.123848 
L 371.081496 157.140455 
L 371.685462 148.801487 
L 372.263451 148.432014 
L 372.815463 157.230395 
L 373.406441 145.553971 
L 373.964947 151.712042 
L 374.503971 161.550193 
L 375.062477 153.5487 
L 375.627478 153.666998 
L 376.185984 157.234065 
L 376.770468 145.064836 
L 377.348457 145.47319 
L 377.926446 148.61548 
L 379.010987 170.229117 
L 379.588976 150.982771 
L 380.153977 150.360295 
L 380.712483 154.630285 
L 381.283978 152.944899 
L 381.848979 158.786012 
L 382.41398 162.259272 
L 382.985474 151.842334 
L 383.582946 159.004652 
L 384.134958 158.638083 
L 384.719442 145.28453 
L 385.284442 151.085578 
L 385.849443 150.217492 
L 386.433926 154.841904 
L 387.005421 153.114566 
L 387.563928 152.210048 
L 388.141917 143.399838 
L 388.693929 155.377898 
L 389.265424 146.58421 
L 389.843413 149.174371 
L 390.421402 146.753535 
L 390.999391 144.991379 
L 391.544909 157.309144 
L 392.096921 155.959149 
L 392.655427 161.813826 
L 392.655427 161.813826 
" clip-path="url(#pfa1e735869)" style="fill: none; stroke: #2ca02c; stroke-width: 1.5; stroke-linecap: square"/>
   </g>
   <g id="patch_3">
    <path d="M 57.6 307.584 
L 57.6 41.472 
" style="fill: none; stroke: #000000; stroke-width: 0.8; stroke-linejoin: miter; stroke-linecap: square"/>
   </g>
   <g id="patch_4">
    <path d="M 414.72 307.584 
L 414.72 41.472 
" style="fill: none; stroke: #000000; stroke-width: 0.8; stroke-linejoin: miter; stroke-linecap: square"/>
   </g>
   <g id="patch_5">
    <path d="M 57.6 307.584 
L 414.72 307.584 
" style="fill: none; stroke: #000000; stroke-width: 0.8; stroke-linejoin: miter; stroke-linecap: square"/>
   </g>
   <g id="patch_6">
    <path d="M 57.6 41.472 
L 414.72 41.472 
" style="fill: none; stroke: #000000; stroke-width: 0.8; stroke-linejoin: miter; stroke-linecap: square"/>
   </g>
   <g id="text_16">
    <!-- learning curve -->
    <g transform="translate(192.96375 35.472) scale(0.12 -0.12)">
     <defs>
      <path id="DejaVuSans-6c" d="M 603 4863 
L 1178 4863 
L 1178 0 
L 603 0 
L 603 4863 
z
" transform="scale(0.015625)"/>
      <path id="DejaVuSans-67" d="M 2906 1791 
Q 2906 2416 2648 2759 
Q 2391 3103 1925 3103 
Q 1463 3103 1205 2759 
Q 947 2416 947 1791 
Q 947 1169 1205 825 
Q 1463 481 1925 481 
Q 2391 481 2648 825 
Q 2906 1169 2906 1791 
z
M 3481 434 
Q 3481 -459 3084 -895 
Q 2688 -1331 1869 -1331 
Q 1566 -1331 1297 -1286 
Q 1028 -1241 775 -1147 
L 775 -588 
Q 1028 -725 1275 -790 
Q 1522 -856 1778 -856 
Q 2344 -856 2625 -561 
Q 2906 -266 2906 331 
L 2906 616 
Q 2728 306 2450 153 
Q 2172 0 1784 0 
Q 1141 0 747 490 
Q 353 981 353 1791 
Q 353 2603 747 3093 
Q 1141 3584 1784 3584 
Q 2172 3584 2450 3431 
Q 2728 3278 2906 2969 
L 2906 3500 
L 3481 3500 
L 3481 434 
z
" transform="scale(0.015625)"/>
      <path id="DejaVuSans-63" d="M 3122 3366 
L 3122 2828 
Q 2878 2963 2633 3030 
Q 2388 3097 2138 3097 
Q 1578 3097 1268 2742 
Q 959 2388 959 1747 
Q 959 1106 1268 751 
Q 1578 397 2138 397 
Q 2388 397 2633 464 
Q 2878 531 3122 666 
L 3122 134 
Q 2881 22 2623 -34 
Q 2366 -91 2075 -91 
Q 1284 -91 818 406 
Q 353 903 353 1747 
Q 353 2603 823 3093 
Q 1294 3584 2113 3584 
Q 2378 3584 2631 3529 
Q 2884 3475 3122 3366 
z
" transform="scale(0.015625)"/>
      <path id="DejaVuSans-75" d="M 544 1381 
L 544 3500 
L 1119 3500 
L 1119 1403 
Q 1119 906 1312 657 
Q 1506 409 1894 409 
Q 2359 409 2629 706 
Q 2900 1003 2900 1516 
L 2900 3500 
L 3475 3500 
L 3475 0 
L 2900 0 
L 2900 538 
Q 2691 219 2414 64 
Q 2138 -91 1772 -91 
Q 1169 -91 856 284 
Q 544 659 544 1381 
z
M 1991 3584 
L 1991 3584 
z
" transform="scale(0.015625)"/>
      <path id="DejaVuSans-76" d="M 191 3500 
L 800 3500 
L 1894 563 
L 2988 3500 
L 3597 3500 
L 2284 0 
L 1503 0 
L 191 3500 
z
" transform="scale(0.015625)"/>
     </defs>
     <use xlink:href="#DejaVuSans-6c"/>
     <use xlink:href="#DejaVuSans-65" x="27.783203"/>
     <use xlink:href="#DejaVuSans-61" x="89.306641"/>
     <use xlink:href="#DejaVuSans-72" x="150.585938"/>
     <use xlink:href="#DejaVuSans-6e" x="189.949219"/>
     <use xlink:href="#DejaVuSans-69" x="253.328125"/>
     <use xlink:href="#DejaVuSans-6e" x="281.111328"/>
     <use xlink:href="#DejaVuSans-67" x="344.490234"/>
     <use xlink:href="#DejaVuSans-20" x="407.966797"/>
     <use xlink:href="#DejaVuSans-63" x="439.753906"/>
     <use xlink:href="#DejaVuSans-75" x="494.734375"/>
     <use xlink:href="#DejaVuSans-72" x="558.113281"/>
     <use xlink:href="#DejaVuSans-76" x="599.226562"/>
     <use xlink:href="#DejaVuSans-65" x="658.40625"/>
    </g>
   </g>
   <g id="legend_1">
    <g id="patch_7">
     <path d="M 305.705938 93.506375 
L 407.72 93.506375 
Q 409.72 93.506375 409.72 91.506375 
L 409.72 48.472 
Q 409.72 46.472 407.72 46.472 
L 305.705938 46.472 
Q 303.705938 46.472 303.705938 48.472 
L 303.705938 91.506375 
Q 303.705938 93.506375 305.705938 93.506375 
z
" style="fill: #ffffff; opacity: 0.8; stroke: #cccccc; stroke-linejoin: miter"/>
    </g>
    <g id="line2d_17">
     <path d="M 307.705938 54.570438 
L 317.705938 54.570438 
L 327.705938 54.570438 
" style="fill: none; stroke: #1f77b4; stroke-width: 1.5; stroke-linecap: square"/>
    </g>
    <g id="text_17">
     <!-- source-source -->
     <g transform="translate(335.705938 58.070438) scale(0.1 -0.1)">
      <defs>
       <path id="DejaVuSans-2d" d="M 313 2009 
L 1997 2009 
L 1997 1497 
L 313 1497 
L 313 2009 
z
" transform="scale(0.015625)"/>
      </defs>
      <use xlink:href="#DejaVuSans-73"/>
      <use xlink:href="#DejaVuSans-6f" x="52.099609"/>
      <use xlink:href="#DejaVuSans-75" x="113.28125"/>
      <use xlink:href="#DejaVuSans-72" x="176.660156"/>
      <use xlink:href="#DejaVuSans-63" x="215.523438"/>
      <use xlink:href="#DejaVuSans-65" x="270.503906"/>
      <use xlink:href="#DejaVuSans-2d" x="332.027344"/>
      <use xlink:href="#DejaVuSans-73" x="368.111328"/>
      <use xlink:href="#DejaVuSans-6f" x="420.210938"/>
      <use xlink:href="#DejaVuSans-75" x="481.392578"/>
      <use xlink:href="#DejaVuSans-72" x="544.771484"/>
      <use xlink:href="#DejaVuSans-63" x="583.634766"/>
      <use xlink:href="#DejaVuSans-65" x="638.615234"/>
     </g>
    </g>
    <g id="line2d_18">
     <path d="M 307.705938 69.248563 
L 317.705938 69.248563 
L 327.705938 69.248563 
" style="fill: none; stroke: #ff7f0e; stroke-width: 1.5; stroke-linecap: square"/>
    </g>
    <g id="text_18">
     <!-- source-target -->
     <g transform="translate(335.705938 72.748563) scale(0.1 -0.1)">
      <use xlink:href="#DejaVuSans-73"/>
      <use xlink:href="#DejaVuSans-6f" x="52.099609"/>
      <use xlink:href="#DejaVuSans-75" x="113.28125"/>
      <use xlink:href="#DejaVuSans-72" x="176.660156"/>
      <use xlink:href="#DejaVuSans-63" x="215.523438"/>
      <use xlink:href="#DejaVuSans-65" x="270.503906"/>
      <use xlink:href="#DejaVuSans-2d" x="332.027344"/>
      <use xlink:href="#DejaVuSans-74" x="368.111328"/>
      <use xlink:href="#DejaVuSans-61" x="407.320312"/>
      <use xlink:href="#DejaVuSans-72" x="468.599609"/>
      <use xlink:href="#DejaVuSans-67" x="507.962891"/>
      <use xlink:href="#DejaVuSans-65" x="571.439453"/>
      <use xlink:href="#DejaVuSans-74" x="632.962891"/>
     </g>
    </g>
    <g id="line2d_19">
     <path d="M 307.705938 83.926688 
L 317.705938 83.926688 
L 327.705938 83.926688 
" style="fill: none; stroke: #2ca02c; stroke-width: 1.5; stroke-linecap: square"/>
    </g>
    <g id="text_19">
     <!-- target-target -->
     <g transform="translate(335.705938 87.426688) scale(0.1 -0.1)">
      <use xlink:href="#DejaVuSans-74"/>
      <use xlink:href="#DejaVuSans-61" x="39.208984"/>
      <use xlink:href="#DejaVuSans-72" x="100.488281"/>
      <use xlink:href="#DejaVuSans-67" x="139.851562"/>
      <use xlink:href="#DejaVuSans-65" x="203.328125"/>
      <use xlink:href="#DejaVuSans-74" x="264.851562"/>
      <use xlink:href="#DejaVuSans-2d" x="304.060547"/>
      <use xlink:href="#DejaVuSans-74" x="340.144531"/>
      <use xlink:href="#DejaVuSans-61" x="379.353516"/>
      <use xlink:href="#DejaVuSans-72" x="440.632812"/>
      <use xlink:href="#DejaVuSans-67" x="479.996094"/>
      <use xlink:href="#DejaVuSans-65" x="543.472656"/>
      <use xlink:href="#DejaVuSans-74" x="604.996094"/>
     </g>
    </g>
   </g>
  </g>
 </g>
 <defs>
  <clipPath id="pfa1e735869">
   <rect x="57.6" y="41.472" width="357.12" height="266.112"/>
  </clipPath>
 </defs>
</svg>
