<?xml version="1.0" encoding="utf-8" standalone="no"?>
<!DOCTYPE svg PUBLIC "-//W3C//DTD SVG 1.1//EN"
  "http://www.w3.org/Graphics/SVG/1.1/DTD/svg11.dtd">
<svg xmlns:xlink="http://www.w3.org/1999/xlink" width="460.8pt" height="345.6pt" viewBox="0 0 460.8 345.6" xmlns="http://www.w3.org/2000/svg" version="1.1">
 <metadata>
  <rdf:RDF xmlns:dc="http://purl.org/dc/elements/1.1/" xmlns:cc="http://creativecommons.org/ns#" xmlns:rdf="http://www.w3.org/1999/02/22-rdf-syntax-ns#">
   <cc:Work>
    <dc:type rdf:resource="http://purl.org/dc/dcmitype/StillImage"/>
    <dc:date>2023-08-18T16:38:24.569747</dc:date>
    <dc:format>image/svg+xml</dc:format>
    <dc:creator>
     <cc:Agent>
      <dc:title>Matplotlib v3.7.1, https://matplotlib.org/</dc:title>
     </cc:Agent>
    </dc:creator>
   </cc:Work>
  </rdf:RDF>
 </metadata>
 <defs>
  <style type="text/css">*{stroke-linejoin: round; stroke-linecap: butt}</style>
 </defs>
 <g id="figure_1">
  <g id="patch_1">
   <path d="M 0 345.6 
L 460.8 345.6 
L 460.8 0 
L 0 0 
z
" style="fill: #ffffff"/>
  </g>
  <g id="axes_1">
   <g id="patch_2">
    <path d="M 57.6 307.584 
L 414.72 307.584 
L 414.72 41.472 
L 57.6 41.472 
z
" style="fill: #ffffff"/>
   </g>
   <g id="matplotlib.axis_1">
    <g id="xtick_1">
     <g id="line2d_1">
      <defs>
       <path id="m3d09e8f47e" d="M 0 0 
L 0 3.5 
" style="stroke: #000000; stroke-width: 0.8"/>
      </defs>
      <g>
       <use xlink:href="#m3d09e8f47e" x="73.77321" y="307.584" style="stroke: #000000; stroke-width: 0.8"/>
      </g>
     </g>
     <g id="text_1">
      <!-- 0 -->
      <g transform="translate(70.59196 322.182437) scale(0.1 -0.1)">
       <defs>
        <path id="DejaVuSans-30" d="M 2034 4250 
Q 1547 4250 1301 3770 
Q 1056 3291 1056 2328 
Q 1056 1369 1301 889 
Q 1547 409 2034 409 
Q 2525 409 2770 889 
Q 3016 1369 3016 2328 
Q 3016 3291 2770 3770 
Q 2525 4250 2034 4250 
z
M 2034 4750 
Q 2819 4750 3233 4129 
Q 3647 3509 3647 2328 
Q 3647 1150 3233 529 
Q 2819 -91 2034 -91 
Q 1250 -91 836 529 
Q 422 1150 422 2328 
Q 422 3509 836 4129 
Q 1250 4750 2034 4750 
z
" transform="scale(0.015625)"/>
       </defs>
       <use xlink:href="#DejaVuSans-30"/>
      </g>
     </g>
    </g>
    <g id="xtick_2">
     <g id="line2d_2">
      <g>
       <use xlink:href="#m3d09e8f47e" x="139.903726" y="307.584" style="stroke: #000000; stroke-width: 0.8"/>
      </g>
     </g>
     <g id="text_2">
      <!-- 10000 -->
      <g transform="translate(123.997476 322.182437) scale(0.1 -0.1)">
       <defs>
        <path id="DejaVuSans-31" d="M 794 531 
L 1825 531 
L 1825 4091 
L 703 3866 
L 703 4441 
L 1819 4666 
L 2450 4666 
L 2450 531 
L 3481 531 
L 3481 0 
L 794 0 
L 794 531 
z
" transform="scale(0.015625)"/>
       </defs>
       <use xlink:href="#DejaVuSans-31"/>
       <use xlink:href="#DejaVuSans-30" x="63.623047"/>
       <use xlink:href="#DejaVuSans-30" x="127.246094"/>
       <use xlink:href="#DejaVuSans-30" x="190.869141"/>
       <use xlink:href="#DejaVuSans-30" x="254.492188"/>
      </g>
     </g>
    </g>
    <g id="xtick_3">
     <g id="line2d_3">
      <g>
       <use xlink:href="#m3d09e8f47e" x="206.034243" y="307.584" style="stroke: #000000; stroke-width: 0.8"/>
      </g>
     </g>
     <g id="text_3">
      <!-- 20000 -->
      <g transform="translate(190.127993 322.182437) scale(0.1 -0.1)">
       <defs>
        <path id="DejaVuSans-32" d="M 1228 531 
L 3431 531 
L 3431 0 
L 469 0 
L 469 531 
Q 828 903 1448 1529 
Q 2069 2156 2228 2338 
Q 2531 2678 2651 2914 
Q 2772 3150 2772 3378 
Q 2772 3750 2511 3984 
Q 2250 4219 1831 4219 
Q 1534 4219 1204 4116 
Q 875 4013 500 3803 
L 500 4441 
Q 881 4594 1212 4672 
Q 1544 4750 1819 4750 
Q 2544 4750 2975 4387 
Q 3406 4025 3406 3419 
Q 3406 3131 3298 2873 
Q 3191 2616 2906 2266 
Q 2828 2175 2409 1742 
Q 1991 1309 1228 531 
z
" transform="scale(0.015625)"/>
       </defs>
       <use xlink:href="#DejaVuSans-32"/>
       <use xlink:href="#DejaVuSans-30" x="63.623047"/>
       <use xlink:href="#DejaVuSans-30" x="127.246094"/>
       <use xlink:href="#DejaVuSans-30" x="190.869141"/>
       <use xlink:href="#DejaVuSans-30" x="254.492188"/>
      </g>
     </g>
    </g>
    <g id="xtick_4">
     <g id="line2d_4">
      <g>
       <use xlink:href="#m3d09e8f47e" x="272.16476" y="307.584" style="stroke: #000000; stroke-width: 0.8"/>
      </g>
     </g>
     <g id="text_4">
      <!-- 30000 -->
      <g transform="translate(256.25851 322.182437) scale(0.1 -0.1)">
       <defs>
        <path id="DejaVuSans-33" d="M 2597 2516 
Q 3050 2419 3304 2112 
Q 3559 1806 3559 1356 
Q 3559 666 3084 287 
Q 2609 -91 1734 -91 
Q 1441 -91 1130 -33 
Q 819 25 488 141 
L 488 750 
Q 750 597 1062 519 
Q 1375 441 1716 441 
Q 2309 441 2620 675 
Q 2931 909 2931 1356 
Q 2931 1769 2642 2001 
Q 2353 2234 1838 2234 
L 1294 2234 
L 1294 2753 
L 1863 2753 
Q 2328 2753 2575 2939 
Q 2822 3125 2822 3475 
Q 2822 3834 2567 4026 
Q 2313 4219 1838 4219 
Q 1578 4219 1281 4162 
Q 984 4106 628 3988 
L 628 4550 
Q 988 4650 1302 4700 
Q 1616 4750 1894 4750 
Q 2613 4750 3031 4423 
Q 3450 4097 3450 3541 
Q 3450 3153 3228 2886 
Q 3006 2619 2597 2516 
z
" transform="scale(0.015625)"/>
       </defs>
       <use xlink:href="#DejaVuSans-33"/>
       <use xlink:href="#DejaVuSans-30" x="63.623047"/>
       <use xlink:href="#DejaVuSans-30" x="127.246094"/>
       <use xlink:href="#DejaVuSans-30" x="190.869141"/>
       <use xlink:href="#DejaVuSans-30" x="254.492188"/>
      </g>
     </g>
    </g>
    <g id="xtick_5">
     <g id="line2d_5">
      <g>
       <use xlink:href="#m3d09e8f47e" x="338.295276" y="307.584" style="stroke: #000000; stroke-width: 0.8"/>
      </g>
     </g>
     <g id="text_5">
      <!-- 40000 -->
      <g transform="translate(322.389026 322.182437) scale(0.1 -0.1)">
       <defs>
        <path id="DejaVuSans-34" d="M 2419 4116 
L 825 1625 
L 2419 1625 
L 2419 4116 
z
M 2253 4666 
L 3047 4666 
L 3047 1625 
L 3713 1625 
L 3713 1100 
L 3047 1100 
L 3047 0 
L 2419 0 
L 2419 1100 
L 313 1100 
L 313 1709 
L 2253 4666 
z
" transform="scale(0.015625)"/>
       </defs>
       <use xlink:href="#DejaVuSans-34"/>
       <use xlink:href="#DejaVuSans-30" x="63.623047"/>
       <use xlink:href="#DejaVuSans-30" x="127.246094"/>
       <use xlink:href="#DejaVuSans-30" x="190.869141"/>
       <use xlink:href="#DejaVuSans-30" x="254.492188"/>
      </g>
     </g>
    </g>
    <g id="xtick_6">
     <g id="line2d_6">
      <g>
       <use xlink:href="#m3d09e8f47e" x="404.425793" y="307.584" style="stroke: #000000; stroke-width: 0.8"/>
      </g>
     </g>
     <g id="text_6">
      <!-- 50000 -->
      <g transform="translate(388.519543 322.182437) scale(0.1 -0.1)">
       <defs>
        <path id="DejaVuSans-35" d="M 691 4666 
L 3169 4666 
L 3169 4134 
L 1269 4134 
L 1269 2991 
Q 1406 3038 1543 3061 
Q 1681 3084 1819 3084 
Q 2600 3084 3056 2656 
Q 3513 2228 3513 1497 
Q 3513 744 3044 326 
Q 2575 -91 1722 -91 
Q 1428 -91 1123 -41 
Q 819 9 494 109 
L 494 744 
Q 775 591 1075 516 
Q 1375 441 1709 441 
Q 2250 441 2565 725 
Q 2881 1009 2881 1497 
Q 2881 1984 2565 2268 
Q 2250 2553 1709 2553 
Q 1456 2553 1204 2497 
Q 953 2441 691 2322 
L 691 4666 
z
" transform="scale(0.015625)"/>
       </defs>
       <use xlink:href="#DejaVuSans-35"/>
       <use xlink:href="#DejaVuSans-30" x="63.623047"/>
       <use xlink:href="#DejaVuSans-30" x="127.246094"/>
       <use xlink:href="#DejaVuSans-30" x="190.869141"/>
       <use xlink:href="#DejaVuSans-30" x="254.492188"/>
      </g>
     </g>
    </g>
    <g id="text_7">
     <!-- timesteps -->
     <g transform="translate(211.443594 335.860562) scale(0.1 -0.1)">
      <defs>
       <path id="DejaVuSans-74" d="M 1172 4494 
L 1172 3500 
L 2356 3500 
L 2356 3053 
L 1172 3053 
L 1172 1153 
Q 1172 725 1289 603 
Q 1406 481 1766 481 
L 2356 481 
L 2356 0 
L 1766 0 
Q 1100 0 847 248 
Q 594 497 594 1153 
L 594 3053 
L 172 3053 
L 172 3500 
L 594 3500 
L 594 4494 
L 1172 4494 
z
" transform="scale(0.015625)"/>
       <path id="DejaVuSans-69" d="M 603 3500 
L 1178 3500 
L 1178 0 
L 603 0 
L 603 3500 
z
M 603 4863 
L 1178 4863 
L 1178 4134 
L 603 4134 
L 603 4863 
z
" transform="scale(0.015625)"/>
       <path id="DejaVuSans-6d" d="M 3328 2828 
Q 3544 3216 3844 3400 
Q 4144 3584 4550 3584 
Q 5097 3584 5394 3201 
Q 5691 2819 5691 2113 
L 5691 0 
L 5113 0 
L 5113 2094 
Q 5113 2597 4934 2840 
Q 4756 3084 4391 3084 
Q 3944 3084 3684 2787 
Q 3425 2491 3425 1978 
L 3425 0 
L 2847 0 
L 2847 2094 
Q 2847 2600 2669 2842 
Q 2491 3084 2119 3084 
Q 1678 3084 1418 2786 
Q 1159 2488 1159 1978 
L 1159 0 
L 581 0 
L 581 3500 
L 1159 3500 
L 1159 2956 
Q 1356 3278 1631 3431 
Q 1906 3584 2284 3584 
Q 2666 3584 2933 3390 
Q 3200 3197 3328 2828 
z
" transform="scale(0.015625)"/>
       <path id="DejaVuSans-65" d="M 3597 1894 
L 3597 1613 
L 953 1613 
Q 991 1019 1311 708 
Q 1631 397 2203 397 
Q 2534 397 2845 478 
Q 3156 559 3463 722 
L 3463 178 
Q 3153 47 2828 -22 
Q 2503 -91 2169 -91 
Q 1331 -91 842 396 
Q 353 884 353 1716 
Q 353 2575 817 3079 
Q 1281 3584 2069 3584 
Q 2775 3584 3186 3129 
Q 3597 2675 3597 1894 
z
M 3022 2063 
Q 3016 2534 2758 2815 
Q 2500 3097 2075 3097 
Q 1594 3097 1305 2825 
Q 1016 2553 972 2059 
L 3022 2063 
z
" transform="scale(0.015625)"/>
       <path id="DejaVuSans-73" d="M 2834 3397 
L 2834 2853 
Q 2591 2978 2328 3040 
Q 2066 3103 1784 3103 
Q 1356 3103 1142 2972 
Q 928 2841 928 2578 
Q 928 2378 1081 2264 
Q 1234 2150 1697 2047 
L 1894 2003 
Q 2506 1872 2764 1633 
Q 3022 1394 3022 966 
Q 3022 478 2636 193 
Q 2250 -91 1575 -91 
Q 1294 -91 989 -36 
Q 684 19 347 128 
L 347 722 
Q 666 556 975 473 
Q 1284 391 1588 391 
Q 1994 391 2212 530 
Q 2431 669 2431 922 
Q 2431 1156 2273 1281 
Q 2116 1406 1581 1522 
L 1381 1569 
Q 847 1681 609 1914 
Q 372 2147 372 2553 
Q 372 3047 722 3315 
Q 1072 3584 1716 3584 
Q 2034 3584 2315 3537 
Q 2597 3491 2834 3397 
z
" transform="scale(0.015625)"/>
       <path id="DejaVuSans-70" d="M 1159 525 
L 1159 -1331 
L 581 -1331 
L 581 3500 
L 1159 3500 
L 1159 2969 
Q 1341 3281 1617 3432 
Q 1894 3584 2278 3584 
Q 2916 3584 3314 3078 
Q 3713 2572 3713 1747 
Q 3713 922 3314 415 
Q 2916 -91 2278 -91 
Q 1894 -91 1617 61 
Q 1341 213 1159 525 
z
M 3116 1747 
Q 3116 2381 2855 2742 
Q 2594 3103 2138 3103 
Q 1681 3103 1420 2742 
Q 1159 2381 1159 1747 
Q 1159 1113 1420 752 
Q 1681 391 2138 391 
Q 2594 391 2855 752 
Q 3116 1113 3116 1747 
z
" transform="scale(0.015625)"/>
      </defs>
      <use xlink:href="#DejaVuSans-74"/>
      <use xlink:href="#DejaVuSans-69" x="39.208984"/>
      <use xlink:href="#DejaVuSans-6d" x="66.992188"/>
      <use xlink:href="#DejaVuSans-65" x="164.404297"/>
      <use xlink:href="#DejaVuSans-73" x="225.927734"/>
      <use xlink:href="#DejaVuSans-74" x="278.027344"/>
      <use xlink:href="#DejaVuSans-65" x="317.236328"/>
      <use xlink:href="#DejaVuSans-70" x="378.759766"/>
      <use xlink:href="#DejaVuSans-73" x="442.236328"/>
     </g>
    </g>
   </g>
   <g id="matplotlib.axis_2">
    <g id="ytick_1">
     <g id="line2d_7">
      <defs>
       <path id="mdad643f692" d="M 0 0 
L -3.5 0 
" style="stroke: #000000; stroke-width: 0.8"/>
      </defs>
      <g>
       <use xlink:href="#mdad643f692" x="57.6" y="298.438695" style="stroke: #000000; stroke-width: 0.8"/>
      </g>
     </g>
     <g id="text_8">
      <!-- 0 -->
      <g transform="translate(44.2375 302.237913) scale(0.1 -0.1)">
       <use xlink:href="#DejaVuSans-30"/>
      </g>
     </g>
    </g>
    <g id="ytick_2">
     <g id="line2d_8">
      <g>
       <use xlink:href="#mdad643f692" x="57.6" y="260.274484" style="stroke: #000000; stroke-width: 0.8"/>
      </g>
     </g>
     <g id="text_9">
      <!-- 50 -->
      <g transform="translate(37.875 264.073703) scale(0.1 -0.1)">
       <use xlink:href="#DejaVuSans-35"/>
       <use xlink:href="#DejaVuSans-30" x="63.623047"/>
      </g>
     </g>
    </g>
    <g id="ytick_3">
     <g id="line2d_9">
      <g>
       <use xlink:href="#mdad643f692" x="57.6" y="222.110274" style="stroke: #000000; stroke-width: 0.8"/>
      </g>
     </g>
     <g id="text_10">
      <!-- 100 -->
      <g transform="translate(31.5125 225.909493) scale(0.1 -0.1)">
       <use xlink:href="#DejaVuSans-31"/>
       <use xlink:href="#DejaVuSans-30" x="63.623047"/>
       <use xlink:href="#DejaVuSans-30" x="127.246094"/>
      </g>
     </g>
    </g>
    <g id="ytick_4">
     <g id="line2d_10">
      <g>
       <use xlink:href="#mdad643f692" x="57.6" y="183.946064" style="stroke: #000000; stroke-width: 0.8"/>
      </g>
     </g>
     <g id="text_11">
      <!-- 150 -->
      <g transform="translate(31.5125 187.745282) scale(0.1 -0.1)">
       <use xlink:href="#DejaVuSans-31"/>
       <use xlink:href="#DejaVuSans-35" x="63.623047"/>
       <use xlink:href="#DejaVuSans-30" x="127.246094"/>
      </g>
     </g>
    </g>
    <g id="ytick_5">
     <g id="line2d_11">
      <g>
       <use xlink:href="#mdad643f692" x="57.6" y="145.781853" style="stroke: #000000; stroke-width: 0.8"/>
      </g>
     </g>
     <g id="text_12">
      <!-- 200 -->
      <g transform="translate(31.5125 149.581072) scale(0.1 -0.1)">
       <use xlink:href="#DejaVuSans-32"/>
       <use xlink:href="#DejaVuSans-30" x="63.623047"/>
       <use xlink:href="#DejaVuSans-30" x="127.246094"/>
      </g>
     </g>
    </g>
    <g id="ytick_6">
     <g id="line2d_12">
      <g>
       <use xlink:href="#mdad643f692" x="57.6" y="107.617643" style="stroke: #000000; stroke-width: 0.8"/>
      </g>
     </g>
     <g id="text_13">
      <!-- 250 -->
      <g transform="translate(31.5125 111.416862) scale(0.1 -0.1)">
       <use xlink:href="#DejaVuSans-32"/>
       <use xlink:href="#DejaVuSans-35" x="63.623047"/>
       <use xlink:href="#DejaVuSans-30" x="127.246094"/>
      </g>
     </g>
    </g>
    <g id="ytick_7">
     <g id="line2d_13">
      <g>
       <use xlink:href="#mdad643f692" x="57.6" y="69.453433" style="stroke: #000000; stroke-width: 0.8"/>
      </g>
     </g>
     <g id="text_14">
      <!-- 300 -->
      <g transform="translate(31.5125 73.252651) scale(0.1 -0.1)">
       <use xlink:href="#DejaVuSans-33"/>
       <use xlink:href="#DejaVuSans-30" x="63.623047"/>
       <use xlink:href="#DejaVuSans-30" x="127.246094"/>
      </g>
     </g>
    </g>
    <g id="text_15">
     <!-- rewards -->
     <g transform="translate(25.432812 194.447531) rotate(-90) scale(0.1 -0.1)">
      <defs>
       <path id="DejaVuSans-72" d="M 2631 2963 
Q 2534 3019 2420 3045 
Q 2306 3072 2169 3072 
Q 1681 3072 1420 2755 
Q 1159 2438 1159 1844 
L 1159 0 
L 581 0 
L 581 3500 
L 1159 3500 
L 1159 2956 
Q 1341 3275 1631 3429 
Q 1922 3584 2338 3584 
Q 2397 3584 2469 3576 
Q 2541 3569 2628 3553 
L 2631 2963 
z
" transform="scale(0.015625)"/>
       <path id="DejaVuSans-77" d="M 269 3500 
L 844 3500 
L 1563 769 
L 2278 3500 
L 2956 3500 
L 3675 769 
L 4391 3500 
L 4966 3500 
L 4050 0 
L 3372 0 
L 2619 2869 
L 1863 0 
L 1184 0 
L 269 3500 
z
" transform="scale(0.015625)"/>
       <path id="DejaVuSans-61" d="M 2194 1759 
Q 1497 1759 1228 1600 
Q 959 1441 959 1056 
Q 959 750 1161 570 
Q 1363 391 1709 391 
Q 2188 391 2477 730 
Q 2766 1069 2766 1631 
L 2766 1759 
L 2194 1759 
z
M 3341 1997 
L 3341 0 
L 2766 0 
L 2766 531 
Q 2569 213 2275 61 
Q 1981 -91 1556 -91 
Q 1019 -91 701 211 
Q 384 513 384 1019 
Q 384 1609 779 1909 
Q 1175 2209 1959 2209 
L 2766 2209 
L 2766 2266 
Q 2766 2663 2505 2880 
Q 2244 3097 1772 3097 
Q 1472 3097 1187 3025 
Q 903 2953 641 2809 
L 641 3341 
Q 956 3463 1253 3523 
Q 1550 3584 1831 3584 
Q 2591 3584 2966 3190 
Q 3341 2797 3341 1997 
z
" transform="scale(0.015625)"/>
       <path id="DejaVuSans-64" d="M 2906 2969 
L 2906 4863 
L 3481 4863 
L 3481 0 
L 2906 0 
L 2906 525 
Q 2725 213 2448 61 
Q 2172 -91 1784 -91 
Q 1150 -91 751 415 
Q 353 922 353 1747 
Q 353 2572 751 3078 
Q 1150 3584 1784 3584 
Q 2172 3584 2448 3432 
Q 2725 3281 2906 2969 
z
M 947 1747 
Q 947 1113 1208 752 
Q 1469 391 1925 391 
Q 2381 391 2643 752 
Q 2906 1113 2906 1747 
Q 2906 2381 2643 2742 
Q 2381 3103 1925 3103 
Q 1469 3103 1208 2742 
Q 947 2381 947 1747 
z
" transform="scale(0.015625)"/>
      </defs>
      <use xlink:href="#DejaVuSans-72"/>
      <use xlink:href="#DejaVuSans-65" x="38.863281"/>
      <use xlink:href="#DejaVuSans-77" x="100.386719"/>
      <use xlink:href="#DejaVuSans-61" x="182.173828"/>
      <use xlink:href="#DejaVuSans-72" x="243.453125"/>
      <use xlink:href="#DejaVuSans-64" x="282.816406"/>
      <use xlink:href="#DejaVuSans-73" x="346.292969"/>
     </g>
    </g>
   </g>
   <g id="line2d_14">
    <path d="M 73.832727 293.545881 
L 73.898858 292.520708 
L 73.971601 293.462426 
L 74.169993 287.764057 
L 74.275802 287.860897 
L 74.381611 293.423544 
L 74.513872 289.399085 
L 74.646133 291.57533 
L 74.778394 283.26722 
L 74.851137 292.470685 
L 75.016464 276.174946 
L 75.18179 290.359495 
L 75.353729 286.139914 
L 75.525668 275.095094 
L 75.935678 289.99852 
L 76.134069 271.835533 
L 76.206813 294.063155 
L 76.3523 286.927574 
L 76.43827 292.156755 
L 76.6565 288.047561 
L 76.881344 279.756096 
L 76.947475 293.502598 
L 77.231836 284.222125 
L 77.45668 290.593721 
L 77.602167 285.512792 
L 77.701362 288.742274 
L 78.012176 261.275109 
L 78.203954 292.714993 
L 78.362668 286.864999 
L 78.461863 289.100118 
L 78.594124 285.738164 
L 78.785903 271.879176 
L 79.050425 275.86748 
L 79.308334 288.448275 
L 79.500113 269.717785 
L 79.678665 280.389227 
L 79.751409 293.112682 
L 79.830765 291.264121 
L 80.095287 288.321142 
L 80.406101 285.25844 
L 80.511909 291.323167 
L 80.703688 283.573139 
L 80.789658 289.92875 
L 81.239345 243.676751 
L 81.675807 288.589019 
L 81.775002 291.454902 
L 81.874198 290.392274 
L 82.006459 283.484086 
L 82.151946 290.052939 
L 82.456147 276.928386 
L 82.661151 278.035489 
L 82.91906 289.973103 
L 83.137291 280.175428 
L 83.269552 290.924399 
L 83.355522 289.783994 
L 83.434878 292.299332 
L 83.606818 290.174159 
L 83.6994 294.760661 
L 83.831661 285.900075 
L 83.990375 294.697681 
L 84.321027 278.431096 
L 84.737649 269.996153 
L 84.95588 283.13975 
L 85.160885 278.781816 
L 85.352663 271.576646 
L 85.438633 293.18067 
L 85.689929 286.698917 
L 85.894934 277.894028 
L 86.133003 291.918165 
L 86.252038 288.707335 
L 86.820761 221.030288 
L 86.900117 292.033087 
L 87.019152 291.386952 
L 87.124961 289.769445 
L 87.475453 278.671282 
L 87.726749 275.137692 
L 87.832558 291.291987 
L 87.984658 282.228313 
L 88.130145 288.554245 
L 88.31531 277.535494 
L 88.421119 291.358461 
L 88.566606 288.720891 
L 88.679028 289.223719 
L 88.956776 259.33368 
L 89.036133 290.60824 
L 89.135329 289.771858 
L 89.227912 290.425136 
L 89.294042 292.517502 
L 89.499047 286.076452 
L 89.618082 290.661913 
L 89.750343 288.100724 
L 89.829699 293.544283 
L 89.981799 286.050908 
L 90.041317 293.710894 
L 90.279387 288.294614 
L 90.444713 290.800151 
L 90.623265 278.388193 
L 90.920853 292.907945 
L 90.993596 291.162683 
L 91.053114 293.930706 
L 91.211827 289.52786 
L 91.45651 272.245593 
L 91.740871 267.614637 
L 92.045072 289.56684 
L 92.17072 282.601465 
L 92.316207 283.11748 
L 92.468307 288.336139 
L 92.580729 287.861396 
L 92.746055 283.154508 
L 93.050255 243.605433 
L 93.149451 289.485479 
L 93.261873 289.637259 
L 93.40736 280.122892 
L 93.533008 287.738188 
L 93.810756 288.361018 
L 93.903339 291.844201 
L 94.015761 284.480061 
L 94.286896 290.418309 
L 94.452222 276.591013 
L 94.59771 283.714601 
L 94.677066 293.406771 
L 94.809327 287.959951 
L 94.882071 292.741438 
L 94.961427 290.670018 
L 95.040784 290.99057 
L 95.133367 290.264508 
L 95.74838 165.65479 
L 95.959998 291.427028 
L 96.231133 277.548603 
L 96.31049 290.825923 
L 96.575012 265.450898 
L 96.687434 286.910319 
L 96.965182 263.996105 
L 97.117282 292.629473 
L 97.256156 282.593259 
L 97.361965 287.124485 
L 97.838105 272.628281 
L 97.924074 293.43619 
L 98.036496 284.983529 
L 98.142305 291.199812 
L 98.241501 287.981822 
L 98.327471 293.290786 
L 98.677962 259.357887 
L 98.836676 283.887895 
L 98.995389 284.471891 
L 99.107811 290.790336 
L 99.405398 281.581617 
L 99.51782 292.85908 
L 99.597177 292.637815 
L 99.663307 293.315805 
L 99.782342 290.000134 
L 100.099768 240.243479 
L 100.351064 291.215672 
L 100.721395 276.538131 
L 100.853656 288.536753 
L 101.098339 284.589723 
L 101.223987 285.129706 
L 101.428992 289.34613 
L 101.739805 255.297177 
L 101.825775 293.301168 
L 101.938197 287.774353 
L 101.991101 293.920559 
L 102.063845 291.109579 
L 102.235784 287.770562 
L 102.447402 294.660906 
L 102.87725 270.782186 
L 102.96322 290.477098 
L 103.128546 292.73765 
L 103.274033 284.283685 
L 103.373229 289.549443 
L 103.531942 282.841534 
L 103.690656 292.136483 
L 103.822917 286.5973 
L 103.98163 288.538364 
L 104.153569 286.419309 
L 104.305669 292.367859 
L 104.715679 275.378057 
L 104.768583 294.112336 
L 104.867779 291.44463 
L 105.033105 289.592471 
L 105.119075 290.320102 
L 105.251336 285.879494 
L 105.522471 260.043648 
L 105.826671 293.370584 
L 105.985384 277.012544 
L 106.150711 291.63164 
L 106.79879 261.955238 
L 106.88476 294.937473 
L 107.096377 286.02353 
L 107.301382 277.438439 
L 107.380738 291.019686 
L 107.962687 259.899685 
L 108.028817 293.840215 
L 108.101561 291.738767 
L 108.187531 290.272844 
L 108.280113 293.222237 
L 108.44544 276.421765 
L 108.617379 277.498576 
L 108.842223 289.965137 
L 108.954645 285.701748 
L 109.22578 287.860781 
L 109.391106 276.745803 
L 109.622563 292.739288 
L 109.834181 277.024622 
L 109.992894 289.724409 
L 110.085477 289.555006 
L 110.171446 291.342825 
L 110.349999 283.396569 
L 110.495486 284.057174 
L 110.647586 287.263261 
L 110.865817 282.404961 
L 110.971625 291.444411 
L 111.103886 285.288117 
L 111.170017 292.616068 
L 111.275826 288.158893 
L 111.375022 293.376463 
L 111.507283 286.844236 
L 111.632931 289.383489 
L 111.877614 287.511762 
L 112.029714 281.613025 
L 112.095844 292.764746 
L 112.175201 290.538254 
L 112.360366 279.368185 
L 112.459562 292.347211 
L 112.558758 288.665962 
L 112.73731 288.1076 
L 112.876184 294.629018 
L 112.942315 293.737273 
L 113.048124 285.229434 
L 113.114254 292.468807 
L 113.358937 278.452659 
L 113.563942 288.391509 
L 113.682977 286.962395 
L 114.212021 262.532523 
L 114.364121 281.935241 
L 114.496382 283.951741 
L 114.681547 289.045591 
L 114.793969 285.611747 
L 115.197365 230.040011 
L 115.442048 292.631381 
L 115.521405 290.731915 
L 115.594149 290.975296 
L 115.733023 280.884108 
L 115.832218 291.068921 
L 115.977706 282.38511 
L 116.222388 286.415437 
L 116.314971 292.223631 
L 116.453845 281.729148 
L 116.526589 292.0917 
L 116.645624 286.098019 
L 116.81095 286.565697 
L 116.989502 279.017739 
L 117.095311 286.198718 
L 117.234185 285.766227 
L 117.359833 283.815168 
L 117.511934 284.297393 
L 117.697099 278.688432 
L 117.796295 292.243413 
L 117.869038 291.726198 
L 117.974847 289.315801 
L 118.193078 275.552648 
L 118.279048 292.261991 
L 118.391469 287.043416 
L 118.52373 287.36982 
L 118.649378 285.43053 
L 118.715509 292.623843 
L 118.834544 285.457124 
L 118.920514 292.083771 
L 119.032935 290.730861 
L 119.145357 291.544375 
L 119.204875 292.939009 
L 119.271005 292.670883 
L 119.370201 287.73287 
L 119.442945 293.150681 
L 119.56198 292.232538 
L 119.819889 260.139157 
L 120.038119 290.951885 
L 120.157154 284.999619 
L 120.289415 286.644928 
L 120.699424 228.16801 
L 120.95072 292.686329 
L 121.116047 276.726507 
L 121.387182 272.714432 
L 121.499604 291.285094 
L 121.671543 274.862105 
L 121.869935 290.710429 
L 122.061713 283.700887 
L 122.29317 267.044567 
L 122.498174 293.076016 
L 122.590757 289.713419 
L 122.68334 291.116118 
L 122.795762 289.452814 
L 122.947862 279.717153 
L 123.152867 277.526459 
L 123.265288 285.916385 
L 123.483519 276.187896 
L 123.728202 288.22249 
L 123.959659 292.233184 
L 124.138211 282.928756 
L 124.224181 291.013074 
L 124.323377 289.363282 
L 124.442412 285.279321 
L 124.654029 292.724679 
L 124.945004 280.774029 
L 125.202913 275.0444 
L 125.315334 288.794442 
L 125.440982 287.407316 
L 125.526952 290.028165 
L 125.837766 281.571049 
L 125.930348 293.136267 
L 126.148579 280.266684 
L 126.261001 287.686583 
L 126.466005 285.654173 
L 126.532136 292.276358 
L 126.75698 288.587928 
L 127.041341 260.456556 
L 127.246346 269.032992 
L 127.643129 293.839319 
L 127.84152 281.75999 
L 127.980394 291.621422 
L 128.158947 275.604864 
L 128.271369 291.898124 
L 128.436695 280.166874 
L 128.628473 279.845848 
L 128.826865 284.424851 
L 128.952513 281.566635 
L 129.150904 290.114738 
L 129.303005 287.952558 
L 129.435266 281.614499 
L 129.607205 292.576083 
L 129.765918 281.94007 
L 129.990762 292.66095 
L 130.129636 286.980077 
L 130.407384 258.45824 
L 130.473515 291.840536 
L 130.59255 286.996889 
L 130.652067 293.543923 
L 130.89675 279.878411 
L 131.015785 291.305766 
L 131.260468 283.679634 
L 131.386116 291.019568 
L 131.465473 290.655753 
L 131.571281 291.020864 
L 131.670477 289.149842 
L 132.007743 274.707595 
L 132.464043 213.659058 
L 132.801309 291.808631 
L 133.151801 258.446657 
L 133.456001 290.904571 
L 133.56181 289.523891 
L 133.687458 285.208789 
L 133.746975 293.094681 
L 133.846171 291.83222 
L 133.998271 279.18676 
L 134.315698 290.944221 
L 134.42812 288.634146 
L 134.719094 264.618316 
L 134.791838 293.573195 
L 135.142329 281.451821 
L 135.254751 292.491645 
L 135.42669 282.034239 
L 135.558952 281.431776 
L 135.651534 288.641133 
L 135.843313 278.671188 
L 136.061543 288.159931 
L 136.193804 289.839121 
L 136.37897 288.070782 
L 136.610427 293.073249 
L 136.941079 285.771476 
L 137.00721 292.263326 
L 137.099793 290.963285 
L 137.198988 285.821488 
L 137.284958 291.247634 
L 137.628837 277.91215 
L 137.721419 290.55633 
L 137.899972 290.440394 
L 137.966102 292.202177 
L 138.111589 284.677986 
L 138.17772 293.017989 
L 138.32982 287.506112 
L 138.395951 293.155038 
L 138.753055 231.455017 
L 138.865477 288.761813 
L 139.063869 270.775468 
L 139.268874 289.606712 
L 139.460652 283.692108 
L 139.513556 294.208114 
L 139.758239 285.548464 
L 139.844209 291.787022 
L 140.115344 273.276756 
L 140.234379 286.771319 
L 140.419545 273.086311 
L 140.717132 268.467281 
L 140.941976 288.039753 
L 141.29908 293.128296 
L 141.398276 290.579698 
L 141.47102 291.693984 
L 141.636346 290.375869 
L 141.695863 293.872788 
L 141.795059 286.408521 
L 142.059581 276.973805 
L 142.25136 291.473577 
L 142.436525 290.012728 
L 142.542334 292.741347 
L 142.740726 277.125719 
L 142.859761 285.970595 
L 143.613648 211.762763 
L 143.699618 289.596642 
L 143.831879 288.301253 
L 143.983979 288.428149 
L 144.129466 290.215179 
L 144.255114 285.290585 
L 144.466732 282.003747 
L 144.645285 275.65231 
L 144.89658 291.021454 
L 145.214007 255.313192 
L 145.299977 291.916807 
L 145.452077 292.258662 
L 145.538046 292.208999 
L 145.69676 277.722269 
L 145.76289 292.052615 
L 146.166286 238.849799 
L 146.212578 294.598531 
L 146.470487 275.151359 
L 146.563069 289.896001 
L 146.655652 288.472805 
L 146.748235 291.757295 
L 146.814365 291.533838 
L 146.920174 288.227372 
L 147.012757 293.137658 
L 147.118566 289.514204 
L 147.211149 292.015349 
L 147.574866 236.306513 
L 147.667449 291.665215 
L 147.779871 292.127784 
L 148.017941 284.81269 
L 148.170041 294.976293 
L 148.335367 279.180645 
L 148.500694 289.61775 
L 148.804894 275.290081 
L 148.996673 274.12026 
L 149.188451 278.14483 
L 149.254582 292.983977 
L 149.393456 283.299152 
L 149.519104 285.905855 
L 149.810078 260.185134 
L 150.034922 290.243852 
L 150.134117 291.109635 
L 150.31267 276.872344 
L 150.438318 289.993327 
L 150.623483 275.140886 
L 150.722679 291.136832 
L 150.888005 275.268851 
L 151.264949 281.701419 
L 151.383984 290.698414 
L 151.840285 227.852679 
L 152.038676 289.623536 
L 152.17755 291.475875 
L 152.270133 288.261979 
L 152.356103 292.148743 
L 152.475138 286.839945 
L 152.547881 292.136053 
L 152.673529 288.183119 
L 152.871921 292.158626 
L 153.004182 282.670872 
L 153.149669 294.056175 
L 153.539839 278.875596 
L 153.698552 280.33638 
L 153.837426 280.360816 
L 153.903557 292.309835 
L 154.141627 277.86848 
L 154.30034 278.348316 
L 154.392923 289.477091 
L 154.584701 278.620978 
L 154.69051 291.466856 
L 154.816158 285.045493 
L 155.01455 291.534065 
L 155.331976 236.047973 
L 155.444398 289.421437 
L 155.609724 284.928521 
L 155.702307 288.438462 
L 155.874246 282.550428 
L 156.019733 285.326615 
L 156.171834 278.376876 
L 156.310708 280.714106 
L 156.383451 291.725415 
L 156.495873 285.000272 
L 156.647973 292.207058 
L 156.760395 285.36808 
L 156.985239 281.920443 
L 157.256374 289.013275 
L 157.35557 288.512699 
L 157.587027 290.128635 
L 157.732514 289.804275 
L 157.864775 286.950623 
L 158.003649 290.455467 
L 158.116071 285.494848 
L 158.215267 288.828222 
L 158.367367 284.737441 
L 158.466562 287.767935 
L 158.651728 278.62395 
L 158.856733 289.922957 
L 158.955928 290.569253 
L 159.048511 292.888857 
L 159.266742 273.339576 
L 159.405616 286.451853 
L 159.551103 287.52335 
L 159.78256 292.771775 
L 160.033856 249.219244 
L 160.106599 292.953153 
L 160.258699 285.121928 
L 160.390961 289.474491 
L 160.635643 271.658016 
L 160.80097 289.669813 
L 161.0192 278.126426 
L 161.34324 273.916503 
L 161.40937 293.216707 
L 161.766475 285.149626 
L 161.88551 288.775213 
L 162.381489 246.799717 
L 162.467459 289.399672 
L 162.798111 263.534067 
L 163.069246 253.752583 
L 163.426351 293.062151 
L 163.651195 274.544269 
L 163.902491 281.386135 
L 164.07443 289.930242 
L 164.200078 284.444499 
L 164.451374 264.12162 
L 164.590248 288.704154 
L 164.815092 271.682988 
L 165.000258 287.439235 
L 165.132519 282.046794 
L 165.291232 290.263628 
L 165.509463 270.345752 
L 165.661563 282.718806 
L 165.800437 282.858434 
L 166.084798 286.842896 
L 166.250124 287.746577 
L 166.521259 249.265132 
L 166.613842 290.410838 
L 166.752716 280.481383 
L 166.858525 289.522227 
L 167.070143 271.978431 
L 167.169338 292.106838 
L 167.314826 284.267252 
L 167.506604 289.32634 
L 167.619026 288.889365 
L 167.724835 292.23768 
L 167.817418 290.073055 
L 168.306783 218.772676 
L 168.564692 288.074854 
L 168.716793 284.201504 
L 168.935023 265.362712 
L 169.106963 291.62427 
L 169.192932 290.631402 
L 169.338419 287.755827 
L 169.622781 240.83146 
L 169.860851 292.832094 
L 170.33699 266.362172 
L 170.482477 288.44839 
L 170.667643 279.625144 
L 170.998295 250.429042 
L 171.302496 253.393935 
L 171.395079 292.807678 
L 171.606696 257.721018 
L 172.122514 284.178897 
L 172.691237 240.997418 
L 172.836724 285.607457 
L 173.00205 277.254337 
L 173.200442 286.728621 
L 173.597225 224.752794 
L 173.663355 291.972538 
L 173.894812 261.745357 
L 174.053525 285.397566 
L 174.25853 270.557113 
L 174.370952 287.785815 
L 174.556117 289.100569 
L 174.71483 295.488 
L 175.105 217.337588 
L 175.184357 290.836311 
L 175.290166 285.569784 
L 175.561301 291.6119 
L 175.845662 280.458127 
L 176.116797 277.64851 
L 176.394546 245.711892 
L 176.619389 273.756656 
L 177.016172 226.048118 
L 177.287308 290.175179 
L 177.439408 289.574158 
L 177.935387 238.570605 
L 178.021356 291.159252 
L 178.16023 289.917385 
L 178.3983 278.189888 
L 178.557013 286.9017 
L 179.033153 244.928342 
L 179.152188 290.534099 
L 179.304288 288.660339 
L 179.370419 293.704489 
L 179.615102 282.868842 
L 179.714298 288.038851 
L 179.873011 285.317821 
L 180.064789 292.434447 
L 180.362377 238.416517 
L 180.481411 288.756265 
L 180.838516 230.524917 
L 181.413852 192.026549 
L 181.519661 287.976628 
L 181.625469 286.309015 
L 181.718052 289.072146 
L 181.856926 279.577426 
L 182.061931 285.392926 
L 182.141287 292.060616 
L 182.23387 289.239504 
L 182.31984 293.941441 
L 182.465327 279.807456 
L 182.584362 289.329802 
L 182.723236 283.807708 
L 182.915015 291.394987 
L 183.133245 288.832535 
L 183.377928 291.361463 
L 183.893746 231.10759 
L 184.197947 289.340311 
L 184.872478 234.428486 
L 185.130387 286.482674 
L 185.196517 292.389617 
L 185.295713 289.466561 
L 185.712335 219.566678 
L 185.904114 266.37055 
L 186.254606 228.582741 
L 186.499289 279.94134 
L 186.836554 258.338965 
L 187.048172 266.666631 
L 187.167207 291.057805 
L 187.742542 213.055731 
L 188.331104 194.027369 
L 188.417073 291.097516 
L 188.549335 288.533741 
L 188.727887 279.107387 
L 188.866761 289.821898 
L 189.045313 271.780752 
L 189.468549 204.577743 
L 189.554518 290.637072 
L 190.176145 228.705065 
L 190.308406 286.768838 
L 190.539863 291.559677 
L 191.035842 261.059385 
L 191.16149 291.307974 
L 191.340042 271.631978 
L 191.783117 202.765752 
L 191.895539 285.614165 
L 192.1799 240.169952 
L 192.259257 292.098819 
L 192.332 291.821397 
L 192.669266 263.997024 
L 192.794914 288.709394 
L 193.026371 265.921088 
L 193.218149 273.311806 
L 193.482671 264.396869 
L 193.614932 289.520251 
L 193.806711 292.881002 
L 194.011715 293.835107 
L 194.150589 289.616136 
L 194.243172 291.454517 
L 194.382046 281.12662 
L 194.831734 235.738828 
L 195.010286 272.567281 
L 195.202065 283.286215 
L 195.393843 286.870241 
L 195.9295 228.014743 
L 196.055148 283.472883 
L 196.604031 197.213554 
L 197.126463 288.816464 
L 197.351306 286.211378 
L 197.642281 239.118895 
L 198.065516 291.676024 
L 198.44246 230.097807 
L 198.634238 291.986568 
L 198.905373 255.130979 
L 199.011182 291.514182 
L 199.295543 287.749047 
L 199.751844 208.792529 
L 199.897331 287.477925 
L 200.274275 223.169404 
L 200.598315 232.863124 
L 200.743802 292.396278 
L 201.061228 233.679686 
L 201.292685 254.464409 
L 201.458011 289.378529 
L 201.583659 280.589494 
L 202.165608 210.134681 
L 202.27803 290.205916 
L 202.575617 282.678517 
L 202.807074 266.146768 
L 202.886431 291.794786 
L 203.131113 285.358703 
L 203.428701 286.878919 
L 203.587414 282.92391 
L 203.732901 288.462884 
L 204.063554 236.900501 
L 204.189202 288.360567 
L 204.830668 131.446483 
L 204.976155 285.637376 
L 205.452295 187.67173 
L 205.716817 284.316116 
L 206.325217 213.823771 
L 206.50377 290.271462 
L 206.708774 291.196153 
L 206.821196 285.779492 
L 207.416371 179.713157 
L 207.621376 283.293431 
L 207.852832 252.691662 
L 208.104128 250.377902 
L 208.209937 292.283376 
L 208.461233 288.982737 
L 208.653012 280.75398 
L 208.917534 260.768911 
L 209.109312 281.31312 
L 209.274638 279.363988 
L 209.492869 278.384395 
L 209.902878 224.524435 
L 210.068205 278.966891 
L 210.266596 290.273759 
L 210.828706 206.514317 
L 211.179197 221.930739 
L 211.390815 294.782775 
L 211.622272 274.73098 
L 212.019055 226.471581 
L 212.316642 242.135886 
L 212.508421 268.799281 
L 212.951495 233.333544 
L 213.216017 270.178669 
L 213.745061 235.379523 
L 214.108779 254.148973 
L 214.353462 251.189934 
L 214.651049 239.264819 
L 215.02138 231.273249 
L 215.226385 279.894499 
L 215.457842 267.627148 
L 215.537198 291.324301 
L 215.894303 231.679022 
L 216.158825 277.910543 
L 216.687869 167.028495 
L 216.806904 290.285631 
L 217.14417 268.864992 
L 217.38224 291.140909 
L 218.01048 180.965256 
L 218.222097 285.095649 
L 218.916468 232.086043 
L 219.061955 282.277542 
L 219.339703 242.965977 
L 219.518255 273.683093 
L 219.789391 280.485981 
L 220.060526 245.561353 
L 220.556505 222.363425 
L 220.900383 240.325838 
L 221.356684 251.411371 
L 221.766693 231.782795 
L 221.965085 271.981402 
L 222.209768 252.199253 
L 222.414772 291.443852 
L 222.633003 286.919247 
L 222.818168 292.260408 
L 223.036399 279.887427 
L 223.512539 261.916868 
L 223.810126 280.682422 
L 224.239974 211.092656 
L 224.716114 222.095016 
L 224.828536 289.4218 
L 225.046767 288.722709 
L 225.331128 271.514127 
L 225.932916 201.978485 
L 226.402442 224.951439 
L 227.176169 127.094771 
L 227.751505 188.714132 
L 227.949896 281.695659 
L 228.287162 229.948321 
L 228.485554 276.331712 
L 228.71701 252.906927 
L 228.988145 246.427791 
L 229.265894 247.310598 
L 230.105751 195.19456 
L 230.489308 219.98165 
L 231.011739 208.852752 
L 231.474653 206.855754 
L 231.778853 257.596115 
L 232.433545 188.639346 
L 232.750972 277.267833 
L 233.035333 283.863648 
L 233.359373 274.726414 
L 233.643734 283.418554 
L 234.040517 211.944371 
L 234.271974 292.60285 
L 234.37117 287.528124 
L 234.959731 212.18129 
L 235.30361 229.967025 
L 235.733458 230.160091 
L 236.381537 221.863954 
L 237.069295 140.749856 
L 237.40656 229.078742 
L 237.737213 231.582738 
L 237.995122 287.099577 
L 238.57707 195.886683 
L 238.920949 240.610837 
L 239.218536 240.382451 
L 239.542576 242.831788 
L 239.754194 258.467152 
L 240.131138 275.416997 
L 240.587438 228.164843 
L 240.878412 238.97094 
L 241.295035 229.167813 
L 241.6323 229.273513 
L 242.055536 215.242632 
L 242.518449 194.011393 
L 243.265724 127.116807 
L 243.715412 206.351508 
L 244.158486 199.33398 
L 244.654465 193.678701 
L 245.170283 172.995843 
L 245.428192 259.789422 
L 246.340793 119.08482 
L 247.253394 107.741806 
L 247.729534 261.424728 
L 248.185834 190.691969 
L 248.622296 265.647796 
L 249.290214 179.424719 
L 249.733289 229.923327 
L 250.143298 290.103857 
L 250.394594 251.209977 
L 250.86412 206.098613 
L 251.075738 258.910886 
L 251.571717 266.794708 
L 252.047857 190.645264 
L 252.352057 264.632865 
L 253.760637 129.536822 
L 253.886285 283.105385 
L 254.507912 140.356345 
L 254.825338 243.520259 
L 255.050182 254.720485 
L 255.420513 221.923498 
L 255.671809 249.526557 
L 256.511667 174.244958 
L 257.166359 134.76077 
L 257.596207 215.382912 
L 258.151703 158.232164 
L 258.634456 187.068606 
L 259.302374 154.4686 
L 259.765288 230.941228 
L 260.492724 122.265082 
L 260.691115 260.989839 
L 261.021768 239.266273 
L 261.378873 236.101937 
L 262.06663 134.122038 
L 262.622126 214.403801 
L 263.263592 130.563989 
L 263.673601 212.156051 
L 264.057158 218.940698 
L 264.262163 259.066007 
L 264.758142 178.79285 
L 265.419447 139.152928 
L 265.875748 191.326579 
L 266.259305 216.575433 
L 266.702379 207.191884 
L 266.953675 249.046948 
L 267.449654 181.818447 
L 267.78692 228.968047 
L 268.144024 239.100812 
L 268.95743 215.414096 
L 269.228565 246.299361 
L 269.671639 203.991006 
L 270.002292 242.255062 
L 270.696662 145.409294 
L 271.252159 155.722928 
L 271.721685 190.163159 
L 272.211051 190.22168 
L 272.978165 157.13063 
L 273.480757 203.101452 
L 274.075932 153.908785 
L 274.386745 233.299257 
L 275.034824 165.318754 
L 275.332412 240.733973 
L 275.874682 161.541947 
L 276.463243 150.171165 
L 277.977632 109.845815 
L 278.42732 193.754418 
L 278.599259 276.171705 
L 278.863781 245.957417 
L 279.187821 233.041791 
L 279.782995 214.823932 
L 280.166552 225.575302 
L 281.370128 80.31241 
L 281.694167 234.520504 
L 282.249664 193.828335 
L 282.600155 232.052165 
L 282.910969 238.724689 
L 283.717761 113.598662 
L 284.220353 209.27594 
L 284.504714 240.167594 
L 285.060211 169.665138 
L 285.728129 133.234438 
L 286.48863 139.917678 
L 286.739926 251.701291 
L 288.122053 53.568 
L 288.763519 135.358124 
L 289.166916 229.324146 
L 290.198552 95.193239 
L 290.873083 132.631497 
L 291.488097 157.788497 
L 292.175854 141.817882 
L 292.75119 154.503307 
L 294.602844 121.63564 
L 294.880592 244.211542 
L 295.95852 92.063002 
L 296.573533 141.220902 
L 297.175321 147.935971 
L 297.697752 175.11414 
L 298.14744 205.745774 
L 298.557449 206.020907 
L 299.298111 135.453862 
L 299.562633 246.658402 
L 300.18426 135.378587 
L 300.567817 216.123202 
L 300.944761 226.843132 
L 301.711875 121.618092 
L 302.538506 115.799897 
L 303.160133 137.373728 
L 303.966925 112.302674 
L 304.581939 137.012252 
L 305.170501 147.809732 
L 305.468088 239.586799 
L 306.109554 141.217124 
L 306.757633 140.639318 
L 307.299903 165.01044 
L 307.941369 132.388948 
L 308.576222 132.839492 
L 309.230914 135.915741 
L 310.156742 109.884109 
L 310.771755 135.992596 
L 311.347091 148.845523 
L 311.948879 145.696678 
L 312.557279 141.525216 
L 313.264876 142.878832 
L 313.886503 147.608186 
L 314.448612 154.061266 
L 315.076852 136.46784 
L 315.374439 237.159136 
L 316.002679 141.32883 
L 316.630919 132.965121 
L 317.437712 112.880411 
L 318.01966 155.373359 
L 318.654513 131.021876 
L 319.401788 134.593069 
L 319.963897 158.363013 
L 320.559072 144.188406 
L 321.154247 146.523872 
L 321.729582 153.031679 
L 322.357822 136.923581 
L 323.17784 113.036961 
L 323.819306 138.187885 
L 324.414481 141.640975 
L 324.877395 204.326885 
L 325.823061 117.877305 
L 326.047905 254.427762 
L 326.371944 244.230334 
L 326.960506 160.988154 
L 327.516002 156.274172 
L 328.157468 139.340574 
L 328.765869 139.459089 
L 329.394109 158.975748 
L 330.081866 141.314122 
L 330.683654 144.758915 
L 331.331733 145.729011 
L 331.893842 161.573852 
L 332.489017 148.122205 
L 333.104031 142.935063 
L 333.745497 146.040889 
L 334.340672 157.950054 
L 334.77052 230.663683 
L 335.378921 144.804185 
L 335.63683 249.933911 
L 335.987321 239.831638 
L 336.741209 126.049766 
L 337.336384 149.718873 
L 337.97785 135.291039 
L 338.592864 138.162292 
L 339.174812 150.168883 
L 339.743535 157.207401 
L 340.325483 151.802433 
L 340.920658 156.33557 
L 341.568737 135.636005 
L 342.124233 161.171052 
L 342.706182 153.900366 
L 343.28813 152.934521 
L 343.85024 154.881041 
L 344.471867 137.336717 
L 345.033976 155.26843 
L 345.741573 122.166412 
L 346.330134 144.886826 
L 346.951761 134.229478 
L 347.573388 141.116996 
L 348.168563 140.537557 
L 348.386793 253.456387 
L 349.081164 136.395106 
L 349.682951 147.790512 
L 350.304578 137.201089 
L 350.906366 145.771747 
L 351.494928 149.592397 
L 352.070263 151.658172 
L 352.665438 142.380209 
L 353.220934 154.738765 
L 353.816109 145.161074 
L 354.398057 148.25152 
L 354.993232 154.732681 
L 355.561954 153.663717 
L 356.157129 141.058498 
L 356.805208 139.024941 
L 357.406996 151.000962 
L 357.982331 151.265585 
L 358.56428 159.361488 
L 359.159454 144.797469 
L 359.774468 140.249974 
L 360.382869 140.80937 
L 360.971431 146.762796 
L 361.566605 147.975479 
L 362.208071 130.577369 
L 362.809859 145.808416 
L 363.424873 141.397602 
L 364.033274 143.888794 
L 364.615222 149.846319 
L 365.203784 146.887577 
L 365.785732 149.966941 
L 366.367681 155.095875 
L 366.949629 150.483722 
L 367.584482 132.877931 
L 368.166431 148.510716 
L 368.735153 151.865183 
L 369.363393 138.85627 
L 369.965181 143.364479 
L 370.540516 160.443803 
L 371.162143 141.876647 
L 371.790383 135.047215 
L 372.425236 151.170686 
L 373.020411 146.12108 
L 373.608972 156.666362 
L 374.190921 152.774453 
L 374.75303 160.476387 
L 375.354818 145.729011 
L 375.956606 154.795507 
L 376.518715 157.832264 
L 377.133729 149.437595 
L 377.72229 149.065655 
L 378.2844 157.922805 
L 378.886188 146.168388 
L 379.45491 152.367592 
L 380.003793 162.271456 
L 380.572516 154.216518 
L 381.147851 154.335605 
L 381.716574 157.926499 
L 382.311748 145.675986 
L 382.90031 146.087068 
L 383.488872 149.250347 
L 384.593251 171.008351 
L 385.181813 151.63345 
L 385.757148 151.006816 
L 386.325871 155.305327 
L 386.907819 153.608684 
L 387.483155 159.488812 
L 388.05849 162.985272 
L 388.640439 152.498754 
L 389.24884 159.708913 
L 389.810949 159.339895 
L 390.406124 145.897147 
L 390.981459 151.736943 
L 391.556795 150.863059 
L 392.151969 155.51836 
L 392.733918 153.779484 
L 393.30264 152.868924 
L 393.891202 143.999867 
L 394.453311 156.057933 
L 395.03526 147.205508 
L 395.623821 149.812971 
L 396.212383 147.375965 
L 396.800945 145.602039 
L 397.356441 158.002079 
L 397.91855 156.643067 
L 398.487273 162.53685 
L 398.487273 162.53685 
" clip-path="url(#p581cc4e900)" style="fill: none; stroke: #1f77b4; stroke-width: 1.5; stroke-linecap: square"/>
   </g>
   <g id="patch_3">
    <path d="M 57.6 307.584 
L 57.6 41.472 
" style="fill: none; stroke: #000000; stroke-width: 0.8; stroke-linejoin: miter; stroke-linecap: square"/>
   </g>
   <g id="patch_4">
    <path d="M 414.72 307.584 
L 414.72 41.472 
" style="fill: none; stroke: #000000; stroke-width: 0.8; stroke-linejoin: miter; stroke-linecap: square"/>
   </g>
   <g id="patch_5">
    <path d="M 57.6 307.584 
L 414.72 307.584 
" style="fill: none; stroke: #000000; stroke-width: 0.8; stroke-linejoin: miter; stroke-linecap: square"/>
   </g>
   <g id="patch_6">
    <path d="M 57.6 41.472 
L 414.72 41.472 
" style="fill: none; stroke: #000000; stroke-width: 0.8; stroke-linejoin: miter; stroke-linecap: square"/>
   </g>
   <g id="text_16">
    <!-- learning curve -->
    <g transform="translate(192.96375 35.472) scale(0.12 -0.12)">
     <defs>
      <path id="DejaVuSans-6c" d="M 603 4863 
L 1178 4863 
L 1178 0 
L 603 0 
L 603 4863 
z
" transform="scale(0.015625)"/>
      <path id="DejaVuSans-6e" d="M 3513 2113 
L 3513 0 
L 2938 0 
L 2938 2094 
Q 2938 2591 2744 2837 
Q 2550 3084 2163 3084 
Q 1697 3084 1428 2787 
Q 1159 2491 1159 1978 
L 1159 0 
L 581 0 
L 581 3500 
L 1159 3500 
L 1159 2956 
Q 1366 3272 1645 3428 
Q 1925 3584 2291 3584 
Q 2894 3584 3203 3211 
Q 3513 2838 3513 2113 
z
" transform="scale(0.015625)"/>
      <path id="DejaVuSans-67" d="M 2906 1791 
Q 2906 2416 2648 2759 
Q 2391 3103 1925 3103 
Q 1463 3103 1205 2759 
Q 947 2416 947 1791 
Q 947 1169 1205 825 
Q 1463 481 1925 481 
Q 2391 481 2648 825 
Q 2906 1169 2906 1791 
z
M 3481 434 
Q 3481 -459 3084 -895 
Q 2688 -1331 1869 -1331 
Q 1566 -1331 1297 -1286 
Q 1028 -1241 775 -1147 
L 775 -588 
Q 1028 -725 1275 -790 
Q 1522 -856 1778 -856 
Q 2344 -856 2625 -561 
Q 2906 -266 2906 331 
L 2906 616 
Q 2728 306 2450 153 
Q 2172 0 1784 0 
Q 1141 0 747 490 
Q 353 981 353 1791 
Q 353 2603 747 3093 
Q 1141 3584 1784 3584 
Q 2172 3584 2450 3431 
Q 2728 3278 2906 2969 
L 2906 3500 
L 3481 3500 
L 3481 434 
z
" transform="scale(0.015625)"/>
      <path id="DejaVuSans-20" transform="scale(0.015625)"/>
      <path id="DejaVuSans-63" d="M 3122 3366 
L 3122 2828 
Q 2878 2963 2633 3030 
Q 2388 3097 2138 3097 
Q 1578 3097 1268 2742 
Q 959 2388 959 1747 
Q 959 1106 1268 751 
Q 1578 397 2138 397 
Q 2388 397 2633 464 
Q 2878 531 3122 666 
L 3122 134 
Q 2881 22 2623 -34 
Q 2366 -91 2075 -91 
Q 1284 -91 818 406 
Q 353 903 353 1747 
Q 353 2603 823 3093 
Q 1294 3584 2113 3584 
Q 2378 3584 2631 3529 
Q 2884 3475 3122 3366 
z
" transform="scale(0.015625)"/>
      <path id="DejaVuSans-75" d="M 544 1381 
L 544 3500 
L 1119 3500 
L 1119 1403 
Q 1119 906 1312 657 
Q 1506 409 1894 409 
Q 2359 409 2629 706 
Q 2900 1003 2900 1516 
L 2900 3500 
L 3475 3500 
L 3475 0 
L 2900 0 
L 2900 538 
Q 2691 219 2414 64 
Q 2138 -91 1772 -91 
Q 1169 -91 856 284 
Q 544 659 544 1381 
z
M 1991 3584 
L 1991 3584 
z
" transform="scale(0.015625)"/>
      <path id="DejaVuSans-76" d="M 191 3500 
L 800 3500 
L 1894 563 
L 2988 3500 
L 3597 3500 
L 2284 0 
L 1503 0 
L 191 3500 
z
" transform="scale(0.015625)"/>
     </defs>
     <use xlink:href="#DejaVuSans-6c"/>
     <use xlink:href="#DejaVuSans-65" x="27.783203"/>
     <use xlink:href="#DejaVuSans-61" x="89.306641"/>
     <use xlink:href="#DejaVuSans-72" x="150.585938"/>
     <use xlink:href="#DejaVuSans-6e" x="189.949219"/>
     <use xlink:href="#DejaVuSans-69" x="253.328125"/>
     <use xlink:href="#DejaVuSans-6e" x="281.111328"/>
     <use xlink:href="#DejaVuSans-67" x="344.490234"/>
     <use xlink:href="#DejaVuSans-20" x="407.966797"/>
     <use xlink:href="#DejaVuSans-63" x="439.753906"/>
     <use xlink:href="#DejaVuSans-75" x="494.734375"/>
     <use xlink:href="#DejaVuSans-72" x="558.113281"/>
     <use xlink:href="#DejaVuSans-76" x="599.226562"/>
     <use xlink:href="#DejaVuSans-65" x="658.40625"/>
    </g>
   </g>
  </g>
 </g>
 <defs>
  <clipPath id="p581cc4e900">
   <rect x="57.6" y="41.472" width="357.12" height="266.112"/>
  </clipPath>
 </defs>
</svg>
