<?xml version="1.0" encoding="utf-8" standalone="no"?>
<!DOCTYPE svg PUBLIC "-//W3C//DTD SVG 1.1//EN"
  "http://www.w3.org/Graphics/SVG/1.1/DTD/svg11.dtd">
<svg xmlns:xlink="http://www.w3.org/1999/xlink" width="460.8pt" height="345.6pt" viewBox="0 0 460.8 345.6" xmlns="http://www.w3.org/2000/svg" version="1.1">
 <metadata>
  <rdf:RDF xmlns:dc="http://purl.org/dc/elements/1.1/" xmlns:cc="http://creativecommons.org/ns#" xmlns:rdf="http://www.w3.org/1999/02/22-rdf-syntax-ns#">
   <cc:Work>
    <dc:type rdf:resource="http://purl.org/dc/dcmitype/StillImage"/>
    <dc:date>2023-08-19T13:56:58.674256</dc:date>
    <dc:format>image/svg+xml</dc:format>
    <dc:creator>
     <cc:Agent>
      <dc:title>Matplotlib v3.7.1, https://matplotlib.org/</dc:title>
     </cc:Agent>
    </dc:creator>
   </cc:Work>
  </rdf:RDF>
 </metadata>
 <defs>
  <style type="text/css">*{stroke-linejoin: round; stroke-linecap: butt}</style>
 </defs>
 <g id="figure_1">
  <g id="patch_1">
   <path d="M 0 345.6 
L 460.8 345.6 
L 460.8 0 
L 0 0 
z
" style="fill: #ffffff"/>
  </g>
  <g id="axes_1">
   <g id="patch_2">
    <path d="M 57.6 307.584 
L 414.72 307.584 
L 414.72 41.472 
L 57.6 41.472 
z
" style="fill: #ffffff"/>
   </g>
   <g id="matplotlib.axis_1">
    <g id="xtick_1">
     <g id="line2d_1">
      <defs>
       <path id="m214a1ef93a" d="M 0 0 
L 0 3.5 
" style="stroke: #000000; stroke-width: 0.8"/>
      </defs>
      <g>
       <use xlink:href="#m214a1ef93a" x="73.611812" y="307.584" style="stroke: #000000; stroke-width: 0.8"/>
      </g>
     </g>
     <g id="text_1">
      <!-- 0 -->
      <g transform="translate(70.430562 322.182437) scale(0.1 -0.1)">
       <defs>
        <path id="DejaVuSans-30" d="M 2034 4250 
Q 1547 4250 1301 3770 
Q 1056 3291 1056 2328 
Q 1056 1369 1301 889 
Q 1547 409 2034 409 
Q 2525 409 2770 889 
Q 3016 1369 3016 2328 
Q 3016 3291 2770 3770 
Q 2525 4250 2034 4250 
z
M 2034 4750 
Q 2819 4750 3233 4129 
Q 3647 3509 3647 2328 
Q 3647 1150 3233 529 
Q 2819 -91 2034 -91 
Q 1250 -91 836 529 
Q 422 1150 422 2328 
Q 422 3509 836 4129 
Q 1250 4750 2034 4750 
z
" transform="scale(0.015625)"/>
       </defs>
       <use xlink:href="#DejaVuSans-30"/>
      </g>
     </g>
    </g>
    <g id="xtick_2">
     <g id="line2d_2">
      <g>
       <use xlink:href="#m214a1ef93a" x="138.586904" y="307.584" style="stroke: #000000; stroke-width: 0.8"/>
      </g>
     </g>
     <g id="text_2">
      <!-- 100000 -->
      <g transform="translate(119.499404 322.182437) scale(0.1 -0.1)">
       <defs>
        <path id="DejaVuSans-31" d="M 794 531 
L 1825 531 
L 1825 4091 
L 703 3866 
L 703 4441 
L 1819 4666 
L 2450 4666 
L 2450 531 
L 3481 531 
L 3481 0 
L 794 0 
L 794 531 
z
" transform="scale(0.015625)"/>
       </defs>
       <use xlink:href="#DejaVuSans-31"/>
       <use xlink:href="#DejaVuSans-30" x="63.623047"/>
       <use xlink:href="#DejaVuSans-30" x="127.246094"/>
       <use xlink:href="#DejaVuSans-30" x="190.869141"/>
       <use xlink:href="#DejaVuSans-30" x="254.492188"/>
       <use xlink:href="#DejaVuSans-30" x="318.115234"/>
      </g>
     </g>
    </g>
    <g id="xtick_3">
     <g id="line2d_3">
      <g>
       <use xlink:href="#m214a1ef93a" x="203.561996" y="307.584" style="stroke: #000000; stroke-width: 0.8"/>
      </g>
     </g>
     <g id="text_3">
      <!-- 200000 -->
      <g transform="translate(184.474496 322.182437) scale(0.1 -0.1)">
       <defs>
        <path id="DejaVuSans-32" d="M 1228 531 
L 3431 531 
L 3431 0 
L 469 0 
L 469 531 
Q 828 903 1448 1529 
Q 2069 2156 2228 2338 
Q 2531 2678 2651 2914 
Q 2772 3150 2772 3378 
Q 2772 3750 2511 3984 
Q 2250 4219 1831 4219 
Q 1534 4219 1204 4116 
Q 875 4013 500 3803 
L 500 4441 
Q 881 4594 1212 4672 
Q 1544 4750 1819 4750 
Q 2544 4750 2975 4387 
Q 3406 4025 3406 3419 
Q 3406 3131 3298 2873 
Q 3191 2616 2906 2266 
Q 2828 2175 2409 1742 
Q 1991 1309 1228 531 
z
" transform="scale(0.015625)"/>
       </defs>
       <use xlink:href="#DejaVuSans-32"/>
       <use xlink:href="#DejaVuSans-30" x="63.623047"/>
       <use xlink:href="#DejaVuSans-30" x="127.246094"/>
       <use xlink:href="#DejaVuSans-30" x="190.869141"/>
       <use xlink:href="#DejaVuSans-30" x="254.492188"/>
       <use xlink:href="#DejaVuSans-30" x="318.115234"/>
      </g>
     </g>
    </g>
    <g id="xtick_4">
     <g id="line2d_4">
      <g>
       <use xlink:href="#m214a1ef93a" x="268.537088" y="307.584" style="stroke: #000000; stroke-width: 0.8"/>
      </g>
     </g>
     <g id="text_4">
      <!-- 300000 -->
      <g transform="translate(249.449588 322.182437) scale(0.1 -0.1)">
       <defs>
        <path id="DejaVuSans-33" d="M 2597 2516 
Q 3050 2419 3304 2112 
Q 3559 1806 3559 1356 
Q 3559 666 3084 287 
Q 2609 -91 1734 -91 
Q 1441 -91 1130 -33 
Q 819 25 488 141 
L 488 750 
Q 750 597 1062 519 
Q 1375 441 1716 441 
Q 2309 441 2620 675 
Q 2931 909 2931 1356 
Q 2931 1769 2642 2001 
Q 2353 2234 1838 2234 
L 1294 2234 
L 1294 2753 
L 1863 2753 
Q 2328 2753 2575 2939 
Q 2822 3125 2822 3475 
Q 2822 3834 2567 4026 
Q 2313 4219 1838 4219 
Q 1578 4219 1281 4162 
Q 984 4106 628 3988 
L 628 4550 
Q 988 4650 1302 4700 
Q 1616 4750 1894 4750 
Q 2613 4750 3031 4423 
Q 3450 4097 3450 3541 
Q 3450 3153 3228 2886 
Q 3006 2619 2597 2516 
z
" transform="scale(0.015625)"/>
       </defs>
       <use xlink:href="#DejaVuSans-33"/>
       <use xlink:href="#DejaVuSans-30" x="63.623047"/>
       <use xlink:href="#DejaVuSans-30" x="127.246094"/>
       <use xlink:href="#DejaVuSans-30" x="190.869141"/>
       <use xlink:href="#DejaVuSans-30" x="254.492188"/>
       <use xlink:href="#DejaVuSans-30" x="318.115234"/>
      </g>
     </g>
    </g>
    <g id="xtick_5">
     <g id="line2d_5">
      <g>
       <use xlink:href="#m214a1ef93a" x="333.512181" y="307.584" style="stroke: #000000; stroke-width: 0.8"/>
      </g>
     </g>
     <g id="text_5">
      <!-- 400000 -->
      <g transform="translate(314.424681 322.182437) scale(0.1 -0.1)">
       <defs>
        <path id="DejaVuSans-34" d="M 2419 4116 
L 825 1625 
L 2419 1625 
L 2419 4116 
z
M 2253 4666 
L 3047 4666 
L 3047 1625 
L 3713 1625 
L 3713 1100 
L 3047 1100 
L 3047 0 
L 2419 0 
L 2419 1100 
L 313 1100 
L 313 1709 
L 2253 4666 
z
" transform="scale(0.015625)"/>
       </defs>
       <use xlink:href="#DejaVuSans-34"/>
       <use xlink:href="#DejaVuSans-30" x="63.623047"/>
       <use xlink:href="#DejaVuSans-30" x="127.246094"/>
       <use xlink:href="#DejaVuSans-30" x="190.869141"/>
       <use xlink:href="#DejaVuSans-30" x="254.492188"/>
       <use xlink:href="#DejaVuSans-30" x="318.115234"/>
      </g>
     </g>
    </g>
    <g id="xtick_6">
     <g id="line2d_6">
      <g>
       <use xlink:href="#m214a1ef93a" x="398.487273" y="307.584" style="stroke: #000000; stroke-width: 0.8"/>
      </g>
     </g>
     <g id="text_6">
      <!-- 500000 -->
      <g transform="translate(379.399773 322.182437) scale(0.1 -0.1)">
       <defs>
        <path id="DejaVuSans-35" d="M 691 4666 
L 3169 4666 
L 3169 4134 
L 1269 4134 
L 1269 2991 
Q 1406 3038 1543 3061 
Q 1681 3084 1819 3084 
Q 2600 3084 3056 2656 
Q 3513 2228 3513 1497 
Q 3513 744 3044 326 
Q 2575 -91 1722 -91 
Q 1428 -91 1123 -41 
Q 819 9 494 109 
L 494 744 
Q 775 591 1075 516 
Q 1375 441 1709 441 
Q 2250 441 2565 725 
Q 2881 1009 2881 1497 
Q 2881 1984 2565 2268 
Q 2250 2553 1709 2553 
Q 1456 2553 1204 2497 
Q 953 2441 691 2322 
L 691 4666 
z
" transform="scale(0.015625)"/>
       </defs>
       <use xlink:href="#DejaVuSans-35"/>
       <use xlink:href="#DejaVuSans-30" x="63.623047"/>
       <use xlink:href="#DejaVuSans-30" x="127.246094"/>
       <use xlink:href="#DejaVuSans-30" x="190.869141"/>
       <use xlink:href="#DejaVuSans-30" x="254.492188"/>
       <use xlink:href="#DejaVuSans-30" x="318.115234"/>
      </g>
     </g>
    </g>
    <g id="text_7">
     <!-- timesteps -->
     <g transform="translate(211.443594 335.860562) scale(0.1 -0.1)">
      <defs>
       <path id="DejaVuSans-74" d="M 1172 4494 
L 1172 3500 
L 2356 3500 
L 2356 3053 
L 1172 3053 
L 1172 1153 
Q 1172 725 1289 603 
Q 1406 481 1766 481 
L 2356 481 
L 2356 0 
L 1766 0 
Q 1100 0 847 248 
Q 594 497 594 1153 
L 594 3053 
L 172 3053 
L 172 3500 
L 594 3500 
L 594 4494 
L 1172 4494 
z
" transform="scale(0.015625)"/>
       <path id="DejaVuSans-69" d="M 603 3500 
L 1178 3500 
L 1178 0 
L 603 0 
L 603 3500 
z
M 603 4863 
L 1178 4863 
L 1178 4134 
L 603 4134 
L 603 4863 
z
" transform="scale(0.015625)"/>
       <path id="DejaVuSans-6d" d="M 3328 2828 
Q 3544 3216 3844 3400 
Q 4144 3584 4550 3584 
Q 5097 3584 5394 3201 
Q 5691 2819 5691 2113 
L 5691 0 
L 5113 0 
L 5113 2094 
Q 5113 2597 4934 2840 
Q 4756 3084 4391 3084 
Q 3944 3084 3684 2787 
Q 3425 2491 3425 1978 
L 3425 0 
L 2847 0 
L 2847 2094 
Q 2847 2600 2669 2842 
Q 2491 3084 2119 3084 
Q 1678 3084 1418 2786 
Q 1159 2488 1159 1978 
L 1159 0 
L 581 0 
L 581 3500 
L 1159 3500 
L 1159 2956 
Q 1356 3278 1631 3431 
Q 1906 3584 2284 3584 
Q 2666 3584 2933 3390 
Q 3200 3197 3328 2828 
z
" transform="scale(0.015625)"/>
       <path id="DejaVuSans-65" d="M 3597 1894 
L 3597 1613 
L 953 1613 
Q 991 1019 1311 708 
Q 1631 397 2203 397 
Q 2534 397 2845 478 
Q 3156 559 3463 722 
L 3463 178 
Q 3153 47 2828 -22 
Q 2503 -91 2169 -91 
Q 1331 -91 842 396 
Q 353 884 353 1716 
Q 353 2575 817 3079 
Q 1281 3584 2069 3584 
Q 2775 3584 3186 3129 
Q 3597 2675 3597 1894 
z
M 3022 2063 
Q 3016 2534 2758 2815 
Q 2500 3097 2075 3097 
Q 1594 3097 1305 2825 
Q 1016 2553 972 2059 
L 3022 2063 
z
" transform="scale(0.015625)"/>
       <path id="DejaVuSans-73" d="M 2834 3397 
L 2834 2853 
Q 2591 2978 2328 3040 
Q 2066 3103 1784 3103 
Q 1356 3103 1142 2972 
Q 928 2841 928 2578 
Q 928 2378 1081 2264 
Q 1234 2150 1697 2047 
L 1894 2003 
Q 2506 1872 2764 1633 
Q 3022 1394 3022 966 
Q 3022 478 2636 193 
Q 2250 -91 1575 -91 
Q 1294 -91 989 -36 
Q 684 19 347 128 
L 347 722 
Q 666 556 975 473 
Q 1284 391 1588 391 
Q 1994 391 2212 530 
Q 2431 669 2431 922 
Q 2431 1156 2273 1281 
Q 2116 1406 1581 1522 
L 1381 1569 
Q 847 1681 609 1914 
Q 372 2147 372 2553 
Q 372 3047 722 3315 
Q 1072 3584 1716 3584 
Q 2034 3584 2315 3537 
Q 2597 3491 2834 3397 
z
" transform="scale(0.015625)"/>
       <path id="DejaVuSans-70" d="M 1159 525 
L 1159 -1331 
L 581 -1331 
L 581 3500 
L 1159 3500 
L 1159 2969 
Q 1341 3281 1617 3432 
Q 1894 3584 2278 3584 
Q 2916 3584 3314 3078 
Q 3713 2572 3713 1747 
Q 3713 922 3314 415 
Q 2916 -91 2278 -91 
Q 1894 -91 1617 61 
Q 1341 213 1159 525 
z
M 3116 1747 
Q 3116 2381 2855 2742 
Q 2594 3103 2138 3103 
Q 1681 3103 1420 2742 
Q 1159 2381 1159 1747 
Q 1159 1113 1420 752 
Q 1681 391 2138 391 
Q 2594 391 2855 752 
Q 3116 1113 3116 1747 
z
" transform="scale(0.015625)"/>
      </defs>
      <use xlink:href="#DejaVuSans-74"/>
      <use xlink:href="#DejaVuSans-69" x="39.208984"/>
      <use xlink:href="#DejaVuSans-6d" x="66.992188"/>
      <use xlink:href="#DejaVuSans-65" x="164.404297"/>
      <use xlink:href="#DejaVuSans-73" x="225.927734"/>
      <use xlink:href="#DejaVuSans-74" x="278.027344"/>
      <use xlink:href="#DejaVuSans-65" x="317.236328"/>
      <use xlink:href="#DejaVuSans-70" x="378.759766"/>
      <use xlink:href="#DejaVuSans-73" x="442.236328"/>
     </g>
    </g>
   </g>
   <g id="matplotlib.axis_2">
    <g id="ytick_1">
     <g id="line2d_7">
      <defs>
       <path id="m37145c2375" d="M 0 0 
L -3.5 0 
" style="stroke: #000000; stroke-width: 0.8"/>
      </defs>
      <g>
       <use xlink:href="#m37145c2375" x="57.6" y="296.936795" style="stroke: #000000; stroke-width: 0.8"/>
      </g>
     </g>
     <g id="text_8">
      <!-- 0 -->
      <g transform="translate(44.2375 300.736014) scale(0.1 -0.1)">
       <use xlink:href="#DejaVuSans-30"/>
      </g>
     </g>
    </g>
    <g id="ytick_2">
     <g id="line2d_8">
      <g>
       <use xlink:href="#m37145c2375" x="57.6" y="260.580843" style="stroke: #000000; stroke-width: 0.8"/>
      </g>
     </g>
     <g id="text_9">
      <!-- 200 -->
      <g transform="translate(31.5125 264.380062) scale(0.1 -0.1)">
       <use xlink:href="#DejaVuSans-32"/>
       <use xlink:href="#DejaVuSans-30" x="63.623047"/>
       <use xlink:href="#DejaVuSans-30" x="127.246094"/>
      </g>
     </g>
    </g>
    <g id="ytick_3">
     <g id="line2d_9">
      <g>
       <use xlink:href="#m37145c2375" x="57.6" y="224.224892" style="stroke: #000000; stroke-width: 0.8"/>
      </g>
     </g>
     <g id="text_10">
      <!-- 400 -->
      <g transform="translate(31.5125 228.02411) scale(0.1 -0.1)">
       <use xlink:href="#DejaVuSans-34"/>
       <use xlink:href="#DejaVuSans-30" x="63.623047"/>
       <use xlink:href="#DejaVuSans-30" x="127.246094"/>
      </g>
     </g>
    </g>
    <g id="ytick_4">
     <g id="line2d_10">
      <g>
       <use xlink:href="#m37145c2375" x="57.6" y="187.86894" style="stroke: #000000; stroke-width: 0.8"/>
      </g>
     </g>
     <g id="text_11">
      <!-- 600 -->
      <g transform="translate(31.5125 191.668159) scale(0.1 -0.1)">
       <defs>
        <path id="DejaVuSans-36" d="M 2113 2584 
Q 1688 2584 1439 2293 
Q 1191 2003 1191 1497 
Q 1191 994 1439 701 
Q 1688 409 2113 409 
Q 2538 409 2786 701 
Q 3034 994 3034 1497 
Q 3034 2003 2786 2293 
Q 2538 2584 2113 2584 
z
M 3366 4563 
L 3366 3988 
Q 3128 4100 2886 4159 
Q 2644 4219 2406 4219 
Q 1781 4219 1451 3797 
Q 1122 3375 1075 2522 
Q 1259 2794 1537 2939 
Q 1816 3084 2150 3084 
Q 2853 3084 3261 2657 
Q 3669 2231 3669 1497 
Q 3669 778 3244 343 
Q 2819 -91 2113 -91 
Q 1303 -91 875 529 
Q 447 1150 447 2328 
Q 447 3434 972 4092 
Q 1497 4750 2381 4750 
Q 2619 4750 2861 4703 
Q 3103 4656 3366 4563 
z
" transform="scale(0.015625)"/>
       </defs>
       <use xlink:href="#DejaVuSans-36"/>
       <use xlink:href="#DejaVuSans-30" x="63.623047"/>
       <use xlink:href="#DejaVuSans-30" x="127.246094"/>
      </g>
     </g>
    </g>
    <g id="ytick_5">
     <g id="line2d_11">
      <g>
       <use xlink:href="#m37145c2375" x="57.6" y="151.512988" style="stroke: #000000; stroke-width: 0.8"/>
      </g>
     </g>
     <g id="text_12">
      <!-- 800 -->
      <g transform="translate(31.5125 155.312207) scale(0.1 -0.1)">
       <defs>
        <path id="DejaVuSans-38" d="M 2034 2216 
Q 1584 2216 1326 1975 
Q 1069 1734 1069 1313 
Q 1069 891 1326 650 
Q 1584 409 2034 409 
Q 2484 409 2743 651 
Q 3003 894 3003 1313 
Q 3003 1734 2745 1975 
Q 2488 2216 2034 2216 
z
M 1403 2484 
Q 997 2584 770 2862 
Q 544 3141 544 3541 
Q 544 4100 942 4425 
Q 1341 4750 2034 4750 
Q 2731 4750 3128 4425 
Q 3525 4100 3525 3541 
Q 3525 3141 3298 2862 
Q 3072 2584 2669 2484 
Q 3125 2378 3379 2068 
Q 3634 1759 3634 1313 
Q 3634 634 3220 271 
Q 2806 -91 2034 -91 
Q 1263 -91 848 271 
Q 434 634 434 1313 
Q 434 1759 690 2068 
Q 947 2378 1403 2484 
z
M 1172 3481 
Q 1172 3119 1398 2916 
Q 1625 2713 2034 2713 
Q 2441 2713 2670 2916 
Q 2900 3119 2900 3481 
Q 2900 3844 2670 4047 
Q 2441 4250 2034 4250 
Q 1625 4250 1398 4047 
Q 1172 3844 1172 3481 
z
" transform="scale(0.015625)"/>
       </defs>
       <use xlink:href="#DejaVuSans-38"/>
       <use xlink:href="#DejaVuSans-30" x="63.623047"/>
       <use xlink:href="#DejaVuSans-30" x="127.246094"/>
      </g>
     </g>
    </g>
    <g id="ytick_6">
     <g id="line2d_12">
      <g>
       <use xlink:href="#m37145c2375" x="57.6" y="115.157037" style="stroke: #000000; stroke-width: 0.8"/>
      </g>
     </g>
     <g id="text_13">
      <!-- 1000 -->
      <g transform="translate(25.15 118.956256) scale(0.1 -0.1)">
       <use xlink:href="#DejaVuSans-31"/>
       <use xlink:href="#DejaVuSans-30" x="63.623047"/>
       <use xlink:href="#DejaVuSans-30" x="127.246094"/>
       <use xlink:href="#DejaVuSans-30" x="190.869141"/>
      </g>
     </g>
    </g>
    <g id="ytick_7">
     <g id="line2d_13">
      <g>
       <use xlink:href="#m37145c2375" x="57.6" y="78.801085" style="stroke: #000000; stroke-width: 0.8"/>
      </g>
     </g>
     <g id="text_14">
      <!-- 1200 -->
      <g transform="translate(25.15 82.600304) scale(0.1 -0.1)">
       <use xlink:href="#DejaVuSans-31"/>
       <use xlink:href="#DejaVuSans-32" x="63.623047"/>
       <use xlink:href="#DejaVuSans-30" x="127.246094"/>
       <use xlink:href="#DejaVuSans-30" x="190.869141"/>
      </g>
     </g>
    </g>
    <g id="ytick_8">
     <g id="line2d_14">
      <g>
       <use xlink:href="#m37145c2375" x="57.6" y="42.445134" style="stroke: #000000; stroke-width: 0.8"/>
      </g>
     </g>
     <g id="text_15">
      <!-- 1400 -->
      <g transform="translate(25.15 46.244352) scale(0.1 -0.1)">
       <use xlink:href="#DejaVuSans-31"/>
       <use xlink:href="#DejaVuSans-34" x="63.623047"/>
       <use xlink:href="#DejaVuSans-30" x="127.246094"/>
       <use xlink:href="#DejaVuSans-30" x="190.869141"/>
      </g>
     </g>
    </g>
    <g id="text_16">
     <!-- mean episode rewards -->
     <g transform="translate(19.070312 231.360031) rotate(-90) scale(0.1 -0.1)">
      <defs>
       <path id="DejaVuSans-61" d="M 2194 1759 
Q 1497 1759 1228 1600 
Q 959 1441 959 1056 
Q 959 750 1161 570 
Q 1363 391 1709 391 
Q 2188 391 2477 730 
Q 2766 1069 2766 1631 
L 2766 1759 
L 2194 1759 
z
M 3341 1997 
L 3341 0 
L 2766 0 
L 2766 531 
Q 2569 213 2275 61 
Q 1981 -91 1556 -91 
Q 1019 -91 701 211 
Q 384 513 384 1019 
Q 384 1609 779 1909 
Q 1175 2209 1959 2209 
L 2766 2209 
L 2766 2266 
Q 2766 2663 2505 2880 
Q 2244 3097 1772 3097 
Q 1472 3097 1187 3025 
Q 903 2953 641 2809 
L 641 3341 
Q 956 3463 1253 3523 
Q 1550 3584 1831 3584 
Q 2591 3584 2966 3190 
Q 3341 2797 3341 1997 
z
" transform="scale(0.015625)"/>
       <path id="DejaVuSans-6e" d="M 3513 2113 
L 3513 0 
L 2938 0 
L 2938 2094 
Q 2938 2591 2744 2837 
Q 2550 3084 2163 3084 
Q 1697 3084 1428 2787 
Q 1159 2491 1159 1978 
L 1159 0 
L 581 0 
L 581 3500 
L 1159 3500 
L 1159 2956 
Q 1366 3272 1645 3428 
Q 1925 3584 2291 3584 
Q 2894 3584 3203 3211 
Q 3513 2838 3513 2113 
z
" transform="scale(0.015625)"/>
       <path id="DejaVuSans-20" transform="scale(0.015625)"/>
       <path id="DejaVuSans-6f" d="M 1959 3097 
Q 1497 3097 1228 2736 
Q 959 2375 959 1747 
Q 959 1119 1226 758 
Q 1494 397 1959 397 
Q 2419 397 2687 759 
Q 2956 1122 2956 1747 
Q 2956 2369 2687 2733 
Q 2419 3097 1959 3097 
z
M 1959 3584 
Q 2709 3584 3137 3096 
Q 3566 2609 3566 1747 
Q 3566 888 3137 398 
Q 2709 -91 1959 -91 
Q 1206 -91 779 398 
Q 353 888 353 1747 
Q 353 2609 779 3096 
Q 1206 3584 1959 3584 
z
" transform="scale(0.015625)"/>
       <path id="DejaVuSans-64" d="M 2906 2969 
L 2906 4863 
L 3481 4863 
L 3481 0 
L 2906 0 
L 2906 525 
Q 2725 213 2448 61 
Q 2172 -91 1784 -91 
Q 1150 -91 751 415 
Q 353 922 353 1747 
Q 353 2572 751 3078 
Q 1150 3584 1784 3584 
Q 2172 3584 2448 3432 
Q 2725 3281 2906 2969 
z
M 947 1747 
Q 947 1113 1208 752 
Q 1469 391 1925 391 
Q 2381 391 2643 752 
Q 2906 1113 2906 1747 
Q 2906 2381 2643 2742 
Q 2381 3103 1925 3103 
Q 1469 3103 1208 2742 
Q 947 2381 947 1747 
z
" transform="scale(0.015625)"/>
       <path id="DejaVuSans-72" d="M 2631 2963 
Q 2534 3019 2420 3045 
Q 2306 3072 2169 3072 
Q 1681 3072 1420 2755 
Q 1159 2438 1159 1844 
L 1159 0 
L 581 0 
L 581 3500 
L 1159 3500 
L 1159 2956 
Q 1341 3275 1631 3429 
Q 1922 3584 2338 3584 
Q 2397 3584 2469 3576 
Q 2541 3569 2628 3553 
L 2631 2963 
z
" transform="scale(0.015625)"/>
       <path id="DejaVuSans-77" d="M 269 3500 
L 844 3500 
L 1563 769 
L 2278 3500 
L 2956 3500 
L 3675 769 
L 4391 3500 
L 4966 3500 
L 4050 0 
L 3372 0 
L 2619 2869 
L 1863 0 
L 1184 0 
L 269 3500 
z
" transform="scale(0.015625)"/>
      </defs>
      <use xlink:href="#DejaVuSans-6d"/>
      <use xlink:href="#DejaVuSans-65" x="97.412109"/>
      <use xlink:href="#DejaVuSans-61" x="158.935547"/>
      <use xlink:href="#DejaVuSans-6e" x="220.214844"/>
      <use xlink:href="#DejaVuSans-20" x="283.59375"/>
      <use xlink:href="#DejaVuSans-65" x="315.380859"/>
      <use xlink:href="#DejaVuSans-70" x="376.904297"/>
      <use xlink:href="#DejaVuSans-69" x="440.380859"/>
      <use xlink:href="#DejaVuSans-73" x="468.164062"/>
      <use xlink:href="#DejaVuSans-6f" x="520.263672"/>
      <use xlink:href="#DejaVuSans-64" x="581.445312"/>
      <use xlink:href="#DejaVuSans-65" x="644.921875"/>
      <use xlink:href="#DejaVuSans-20" x="706.445312"/>
      <use xlink:href="#DejaVuSans-72" x="738.232422"/>
      <use xlink:href="#DejaVuSans-65" x="777.095703"/>
      <use xlink:href="#DejaVuSans-77" x="838.619141"/>
      <use xlink:href="#DejaVuSans-61" x="920.40625"/>
      <use xlink:href="#DejaVuSans-72" x="981.685547"/>
      <use xlink:href="#DejaVuSans-64" x="1021.048828"/>
      <use xlink:href="#DejaVuSans-73" x="1084.525391"/>
     </g>
    </g>
   </g>
   <g id="line2d_15">
    <path d="M 73.832727 295.488 
L 73.975672 294.919906 
L 74.066638 294.948187 
L 74.573443 294.303014 
L 74.950299 294.0037 
L 75.080249 294.109993 
L 75.249184 294.023192 
L 75.405125 294.068221 
L 75.535075 293.95679 
L 75.67802 294.014622 
L 75.768985 293.731601 
L 76.04188 293.777967 
L 76.470716 293.984459 
L 76.613661 293.668881 
L 76.769601 293.618916 
L 76.873562 293.36173 
L 77.055492 293.36269 
L 77.263412 293.849448 
L 77.627273 293.885701 
L 77.744228 293.554343 
L 77.822198 293.906328 
L 77.991133 294.038899 
L 78.095093 294.376491 
L 78.861799 294.125968 
L 79.14769 293.825152 
L 79.368605 293.809578 
L 79.576525 293.488605 
L 79.719471 293.279541 
L 79.862416 293.341251 
L 80.265261 293.232504 
L 80.473182 294.004897 
L 80.668107 293.95203 
L 80.824047 294.059672 
L 80.953997 293.857193 
L 81.122933 294.023017 
L 81.486793 293.745279 
L 81.642733 293.438441 
L 81.824664 293.381075 
L 81.954614 293.184699 
L 82.097559 292.714204 
L 82.422434 292.607632 
L 82.56538 292.77813 
L 82.72132 292.362012 
L 83.072185 292.41006 
L 83.306096 292.136987 
L 83.501021 292.088607 
L 83.617976 292.194422 
L 84.332702 291.904833 
L 84.514632 291.641603 
L 84.891488 291.54769 
L 85.385299 290.319543 
L 85.619209 290.165089 
L 85.879109 289.821144 
L 86.55485 288.603919 
L 86.697796 287.815809 
L 87.308561 287.66308 
L 87.685417 286.721911 
L 87.893337 285.879117 
L 88.465118 285.574852 
L 88.712023 284.878807 
L 90.479346 282.667558 
L 90.960162 281.504013 
L 91.986768 281.73893 
L 93.741096 278.816741 
L 94.104956 277.768716 
L 94.520797 277.758185 
L 95.131562 277.07247 
L 95.612378 274.966961 
L 96.106189 273.726672 
L 97.236755 270.36568 
L 97.951481 268.690887 
L 98.341332 266.966285 
L 99.030068 266.064161 
L 99.523879 265.227857 
L 100.654445 262.548095 
L 101.317191 262.817728 
L 101.720037 262.32793 
L 102.798623 262.520835 
L 106.125348 263.448889 
L 107.957646 263.449478 
L 108.334501 263.706308 
L 109.426083 263.790415 
L 113.584489 263.954525 
L 113.961344 263.837478 
L 116.872228 263.492556 
L 117.314059 263.37006 
L 119.107371 263.439083 
L 119.588187 263.576287 
L 121.888305 263.107591 
L 124.85117 261.531623 
L 125.500921 260.86615 
L 126.657477 259.357917 
L 127.736064 258.423875 
L 128.801655 257.991409 
L 129.191506 256.552164 
L 130.010192 255.785842 
L 130.387047 255.717543 
L 131.387664 254.920655 
L 131.84249 254.410196 
L 132.869096 253.458072 
L 133.336917 251.872288 
L 134.220578 251.441228 
L 134.662409 250.765954 
L 135.59805 250.882859 
L 136.182826 251.815024 
L 137.105472 251.291993 
L 137.768218 249.971379 
L 138.625889 249.278709 
L 139.210665 248.491048 
L 140.133311 249.030131 
L 140.549152 249.875042 
L 141.666723 249.552061 
L 143.213131 248.412413 
L 143.628971 247.495366 
L 144.785528 247.449465 
L 146.903716 246.910281 
L 148.008292 246.213955 
L 148.333168 246.246604 
L 149.71064 245.610652 
L 150.035515 245.086131 
L 151.309027 244.602002 
L 151.594918 244.253699 
L 152.764469 244.495187 
L 153.23229 245.135189 
L 155.831294 245.531814 
L 156.286119 244.983527 
L 157.364706 244.775995 
L 157.819531 244.459361 
L 159.430914 244.071626 
L 160.48351 243.229871 
L 161.029301 242.392355 
L 162.068902 241.634577 
L 162.679668 240.456083 
L 163.680285 239.859666 
L 165.369637 238.276426 
L 166.019388 238.283017 
L 167.058989 237.15148 
L 167.669755 236.032575 
L 168.839307 234.992629 
L 169.346113 233.545106 
L 170.983485 232.299204 
L 172.373952 230.953215 
L 172.802788 229.278308 
L 174.18026 228.531058 
L 174.557115 227.179535 
L 175.934587 226.497813 
L 176.558348 225.443413 
L 178.364656 223.290439 
L 179.677152 222.340004 
L 180.170963 221.61434 
L 181.015639 223.287686 
L 181.678385 226.025041 
L 182.925907 225.925322 
L 183.588653 225.072175 
L 184.7712 225.174822 
L 185.446941 225.472195 
L 186.512532 226.496266 
L 186.941368 227.414968 
L 188.26686 228.454128 
L 188.86463 228.742655 
L 190.034182 227.554741 
L 190.631953 225.131558 
L 191.905465 225.341879 
L 192.38628 225.926676 
L 193.672787 226.07336 
L 194.101623 226.577479 
L 195.33615 227.20005 
L 195.80397 226.884026 
L 197.038497 226.933059 
L 197.623273 226.670471 
L 199.416585 226.494514 
L 200.495172 226.765588 
L 201.170913 227.155197 
L 202.288484 227.320166 
L 203.00321 227.622472 
L 204.029817 226.967383 
L 204.783528 227.016776 
L 205.95308 226.638518 
L 206.589836 226.640488 
L 207.759387 226.946763 
L 208.357158 227.236943 
L 209.461735 227.121282 
L 210.410371 226.377454 
L 211.514948 225.869088 
L 213.33425 224.678412 
L 214.581772 222.847627 
L 215.413453 220.36695 
L 216.634985 218.943547 
L 217.804536 216.305533 
L 219.156018 212.808493 
L 220.000695 211.245932 
L 221.196236 209.700997 
L 222.053907 208.016287 
L 223.418384 206.243247 
L 224.535956 204.171359 
L 225.575557 203.489039 
L 226.446224 203.911972 
L 227.823696 202.926742 
L 228.317506 204.514274 
L 229.694978 206.360417 
L 230.65661 206.133715 
L 231.735196 206.967013 
L 232.488907 208.027858 
L 233.632469 208.890069 
L 234.54212 210.730918 
L 236.452388 213.477474 
L 237.388029 215.178119 
L 239.194337 216.368924 
L 239.961043 217.884145 
L 241.013639 219.517641 
L 242.066236 219.6021 
L 242.702992 220.961487 
L 243.703608 222.78607 
L 244.314374 224.710575 
L 245.496921 225.861546 
L 246.003726 226.852986 
L 247.264243 227.264391 
L 247.849019 228.080408 
L 249.005576 228.609934 
L 249.785277 228.356761 
L 250.629953 228.569658 
L 251.448639 229.238376 
L 252.12438 230.186389 
L 253.787743 229.365457 
L 254.957294 228.693007 
L 255.56806 229.574327 
L 256.724617 229.757644 
L 257.387363 229.527921 
L 258.80382 229.419981 
L 259.14169 228.121024 
L 260.480177 227.687865 
L 260.960993 226.441499 
L 262.58537 226.158264 
L 263.741927 227.832601 
L 264.430663 227.104311 
L 266.26296 227.779628 
L 267.549467 226.752766 
L 268.199218 227.061346 
L 268.991914 227.308168 
L 270.018521 226.787569 
L 270.707256 225.101391 
L 271.564928 227.362997 
L 272.760469 226.65322 
L 273.345245 226.036909 
L 274.202916 224.857331 
L 274.930637 226.502982 
L 276.074199 227.314443 
L 277.425681 227.701556 
L 278.296347 225.707942 
L 279.491889 223.332704 
L 280.258595 222.378467 
L 281.363172 217.335179 
L 283.74126 212.28513 
L 284.871827 210.204682 
L 285.911428 205.441588 
L 286.873059 204.363545 
L 287.730731 204.846144 
L 289.160183 204.110708 
L 289.874909 204.023649 
L 291.590251 202.943651 
L 292.473912 202.083065 
L 293.955344 201.64559 
L 295.059921 200.708288 
L 296.372418 198.999551 
L 297.788875 196.595254 
L 299.010407 194.186435 
L 300.465849 189.284725 
L 301.60941 185.864264 
L 303.025867 182.735695 
L 304.650245 179.781477 
L 305.871776 176.807466 
L 307.353208 174.88447 
L 308.28885 175.408984 
L 310.186122 173.649805 
L 311.199734 172.405352 
L 312.772131 171.034826 
L 313.863713 171.946004 
L 315.61804 172.268897 
L 316.202816 173.156404 
L 317.749223 175.751503 
L 318.95776 178.314231 
L 320.387212 178.333418 
L 321.491789 176.415047 
L 322.999211 178.678958 
L 323.882872 180.928091 
L 325.611209 182.246999 
L 326.18299 182.401538 
L 328.859964 184.420928 
L 330.965157 182.411524 
L 331.432978 182.631023 
L 333.733096 184.564764 
L 334.447822 182.557689 
L 336.54002 178.557708 
L 337.852517 175.354869 
L 339.100038 173.011915 
L 341.179241 169.859269 
L 342.517728 166.737916 
L 344.220076 164.630475 
L 345.649528 163.750295 
L 347.221925 161.677566 
L 349.405088 156.084603 
L 351.770181 152.650306 
L 353.108668 148.636851 
L 354.888986 145.270463 
L 356.968189 142.561018 
L 358.982417 141.140474 
L 360.203948 139.226249 
L 362.621022 136.97721 
L 363.465698 132.729901 
L 367.117298 129.666598 
L 369.443407 130.59723 
L 370.807883 133.610285 
L 373.056022 135.448065 
L 374.602429 133.405455 
L 375.758985 133.393507 
L 377.500318 137.14602 
L 378.87779 139.047494 
L 380.164297 144.504625 
L 381.684714 145.845242 
L 383.231121 147.812838 
L 386.739776 149.086756 
L 389.169845 149.158828 
L 390.729247 149.81318 
L 393.35424 147.318841 
L 395.160548 141.551763 
L 397.434676 134.969444 
L 397.434676 134.969444 
" clip-path="url(#p624a2abd0b)" style="fill: none; stroke: #1f77b4; stroke-width: 1.5; stroke-linecap: square"/>
   </g>
   <g id="line2d_16">
    <path d="M 80.109321 293.439992 
L 86.60683 282.197351 
L 93.10434 286.557671 
L 99.601849 264.178811 
L 106.099358 264.35366 
L 112.596867 263.180788 
L 119.094376 262.811336 
L 125.591886 247.304785 
L 132.089395 238.856981 
L 138.586904 246.883028 
L 145.084413 241.664365 
L 151.581923 247.825627 
L 158.079432 242.222132 
L 164.576941 235.924977 
L 171.07445 233.381358 
L 177.571959 225.075411 
L 184.069469 224.793563 
L 190.566978 228.801202 
L 197.064487 226.775636 
L 203.561996 229.161783 
L 210.059505 225.628331 
L 216.557015 226.191835 
L 223.054524 213.602535 
L 229.552033 219.029846 
L 236.049542 222.319908 
L 242.547052 225.804563 
L 249.044561 218.835238 
L 255.54207 253.427523 
L 262.039579 226.922226 
L 268.537088 254.460031 
L 275.034598 236.711365 
L 281.532107 221.786555 
L 288.029616 206.892 
L 294.527125 165.263757 
L 301.024634 220.035403 
L 307.522144 182.210759 
L 314.019653 205.769107 
L 320.517162 215.25625 
L 327.014671 183.297723 
L 333.512181 144.743883 
L 340.00969 182.351635 
L 346.507199 53.568 
L 353.004708 174.088336 
L 359.502217 168.548622 
L 365.999727 204.75451 
L 372.497236 179.598466 
L 378.994745 169.255738 
L 385.492254 155.1472 
L 391.989764 179.249094 
L 398.487273 116.538906 
" clip-path="url(#p624a2abd0b)" style="fill: none; stroke: #ff7f0e; stroke-width: 1.5; stroke-linecap: square"/>
   </g>
   <g id="line2d_17">
    <path d="M 73.871712 295.145609 
L 73.975672 294.413291 
L 74.144608 294.433856 
L 74.235573 294.267786 
L 74.365523 294.367936 
L 75.665025 293.714906 
L 75.80797 293.637741 
L 76.483711 293.983242 
L 76.574676 293.76036 
L 76.886557 294.107499 
L 76.977522 294.26698 
L 77.120467 294.265918 
L 77.250417 294.131981 
L 77.419352 294.166078 
L 77.601283 294.069235 
L 77.718238 293.744804 
L 78.277024 293.563093 
L 78.510934 293.379958 
L 78.666874 293.566117 
L 78.913779 293.627769 
L 79.06972 293.869221 
L 79.420585 293.816302 
L 79.667491 293.721044 
L 79.823431 293.844887 
L 80.122316 293.550448 
L 80.538157 293.543001 
L 80.759072 293.525273 
L 80.928007 293.650208 
L 81.408823 293.384733 
L 81.655728 293.539647 
L 82.019589 293.391817 
L 82.227509 293.173902 
L 82.838275 293.716047 
L 82.98122 293.758467 
L 83.397061 293.579479 
L 83.527011 293.512935 
L 83.708941 293.598074 
L 83.916862 293.510231 
L 84.189757 293.068787 
L 85.125398 292.487015 
L 86.074035 291.34832 
L 86.37292 291.205987 
L 86.63282 290.345853 
L 86.905716 290.199178 
L 87.308561 289.647608 
L 87.997297 288.055716 
L 89.049894 286.609355 
L 89.413754 285.443253 
L 89.829595 284.94255 
L 91.583922 281.437109 
L 93.143325 279.680628 
L 93.611145 279.924944 
L 94.143941 278.961194 
L 94.715722 278.348067 
L 95.040597 277.087935 
L 95.469433 276.480367 
L 96.158169 275.698985 
L 96.62599 273.934775 
L 97.431681 272.348285 
L 98.653212 267.86431 
L 99.199003 266.078346 
L 100.43353 263.029405 
L 101.135261 261.874149 
L 101.668057 260.657523 
L 102.304813 259.517679 
L 103.578324 259.212755 
L 104.13711 258.845193 
L 104.760871 258.796347 
L 106.463219 259.182231 
L 108.867297 259.571851 
L 109.452073 259.766735 
L 109.984869 260.242712 
L 110.608629 260.550625 
L 111.15442 260.475449 
L 112.297982 261.029698 
L 113.441543 261.694966 
L 114.5981 262.059996 
L 115.741662 262.485021 
L 116.859233 262.501076 
L 118.392645 262.607579 
L 119.510217 262.613682 
L 120.185958 262.741147 
L 121.32952 262.327105 
L 121.84932 262.372423 
L 122.486076 262.283345 
L 123.694613 261.631796 
L 124.279389 261.154571 
L 124.90315 260.989395 
L 125.42295 260.528219 
L 126.696462 260.368954 
L 127.372203 259.67203 
L 129.165516 258.539017 
L 129.880242 258.277086 
L 131.127764 257.477296 
L 131.699544 257.332535 
L 133.064021 255.820251 
L 133.570827 255.922639 
L 134.298548 255.704016 
L 134.896319 255.657551 
L 135.62404 255.398957 
L 137.014507 255.282178 
L 137.482328 254.797441 
L 138.872795 254.753126 
L 139.613511 255.363669 
L 140.224276 255.128589 
L 140.977988 255.022927 
L 141.575758 254.782728 
L 142.355459 254.683637 
L 142.888255 254.495132 
L 143.732931 254.746576 
L 144.148772 254.998923 
L 144.967458 255.267569 
L 145.448274 255.250799 
L 146.21498 254.747254 
L 146.942701 255.019461 
L 147.501487 254.771108 
L 148.956929 253.149595 
L 149.86658 252.575399 
L 150.477346 251.695209 
L 151.361007 251.529107 
L 152.023753 250.063559 
L 153.609145 247.769092 
L 155.285503 245.539178 
L 156.156169 245.397577 
L 156.870895 245.148965 
L 157.689581 244.68004 
L 158.365322 244.516679 
L 159.274973 243.32403 
L 159.846754 242.967035 
L 160.834376 242.992004 
L 162.328803 242.686184 
L 162.952564 242.925335 
L 163.87521 242.748825 
L 164.395011 243.377593 
L 165.304662 243.893283 
L 165.837458 243.889149 
L 166.903049 244.239522 
L 167.331885 244.673166 
L 168.384481 244.47728 
L 168.813317 244.905519 
L 170.307744 245.22328 
L 171.373336 245.288804 
L 171.789176 245.104929 
L 174.297215 245.457788 
L 174.609095 246.618185 
L 175.804637 246.575946 
L 176.142507 246.182847 
L 177.662925 246.643461 
L 178.663541 247.415364 
L 179.118367 247.23054 
L 180.105988 247.218402 
L 180.547819 247.856237 
L 181.53544 248.331231 
L 182.003261 247.717054 
L 183.484693 249.530718 
L 184.407339 249.450674 
L 185.00511 249.586477 
L 185.836791 249.413129 
L 186.473547 249.52546 
L 187.409188 249.194935 
L 188.89062 248.342412 
L 189.566361 248.116081 
L 190.917843 247.441455 
L 192.477246 247.263752 
L 193.594817 247.398806 
L 194.023653 247.207529 
L 195.063254 247.559038 
L 196.648646 247.202321 
L 197.246417 246.915819 
L 198.117084 247.289053 
L 198.88379 247.380405 
L 199.585521 247.656242 
L 200.521162 247.758414 
L 201.196903 247.689657 
L 202.028584 247.426669 
L 202.71732 246.880651 
L 203.613976 246.626429 
L 204.302712 246.924795 
L 205.199369 246.887808 
L 205.914095 246.237217 
L 206.745776 245.987535 
L 207.499487 245.484244 
L 208.253198 244.787409 
L 210.696261 243.546221 
L 212.333634 242.702428 
L 213.009375 242.565848 
L 214.568777 242.916359 
L 215.478428 242.654147 
L 216.193154 242.021822 
L 217.076815 241.660923 
L 217.830527 241.759654 
L 218.688198 242.124885 
L 219.467899 242.295379 
L 220.338565 242.136457 
L 221.196236 242.137248 
L 222.833609 240.211898 
L 223.756255 239.746114 
L 224.535956 240.110096 
L 225.354642 239.610496 
L 226.134343 239.327661 
L 229.487058 235.587011 
L 230.305744 235.137773 
L 232.021087 234.541126 
L 232.787793 233.999988 
L 234.399175 233.030825 
L 235.373801 232.996431 
L 236.010557 233.226274 
L 237.037164 233.38446 
L 237.64793 233.607505 
L 238.661541 233.678355 
L 239.324287 233.84473 
L 240.961659 234.512484 
L 242.560047 235.612398 
L 243.378733 236.020238 
L 244.197419 236.077452 
L 244.938135 236.520788 
L 246.588502 236.968782 
L 247.394193 237.373543 
L 248.18689 237.43628 
L 249.122531 237.631163 
L 249.811267 237.091691 
L 250.655943 236.815183 
L 251.487624 236.215386 
L 252.28032 236.27989 
L 253.124997 236.04254 
L 254.814349 236.025409 
L 255.529075 235.670037 
L 256.334766 235.83579 
L 257.153452 235.885334 
L 257.946148 236.543049 
L 258.77783 236.690925 
L 259.518546 237.792069 
L 262.039579 238.834839 
L 262.71532 239.320015 
L 263.715937 239.69561 
L 264.391678 239.374591 
L 266.00306 239.265396 
L 267.081646 239.464038 
L 267.653427 239.095032 
L 268.693029 239.130482 
L 269.134859 239.323459 
L 271.889803 239.353636 
L 272.370619 239.57463 
L 273.449205 239.77149 
L 273.891036 240.009244 
L 275.060588 240.024236 
L 275.541403 239.89908 
L 277.100806 239.898578 
L 278.660208 239.840903 
L 279.413919 240.456956 
L 280.232605 240.22062 
L 281.142256 240.300907 
L 283.988165 237.155104 
L 284.845837 235.705344 
L 285.950413 234.062618 
L 286.730114 231.794367 
L 287.795706 230.086058 
L 288.627387 228.118009 
L 289.602013 226.97604 
L 290.52466 224.73345 
L 291.538271 224.03431 
L 295.761652 219.335779 
L 297.074149 218.805151 
L 297.918825 216.704588 
L 299.166347 216.509823 
L 299.998028 215.297602 
L 301.06362 215.151426 
L 302.220176 214.124675 
L 303.376733 212.666613 
L 304.286384 213.234086 
L 305.572891 213.715781 
L 306.222642 213.693005 
L 308.431795 214.059827 
L 310.121147 212.62162 
L 310.653943 211.462716 
L 312.20035 211.21917 
L 312.707156 212.396484 
L 314.760369 212.678695 
L 316.124846 211.886825 
L 317.086477 210.438433 
L 318.67187 209.861773 
L 319.529541 209.379314 
L 321.179908 209.661262 
L 322.063569 208.625406 
L 324.038812 204.771995 
L 326.325935 203.662544 
L 327.482492 202.446735 
L 329.587685 202.06084 
L 330.731247 202.501501 
L 332.043743 201.85218 
L 332.901415 203.720312 
L 334.317872 205.078978 
L 335.344478 204.662778 
L 336.51403 205.772215 
L 337.436676 205.242793 
L 339.022068 205.347609 
L 341.296197 204.350542 
L 342.153868 203.149506 
L 343.73926 202.661887 
L 344.402006 201.385294 
L 345.974403 200.866291 
L 346.650144 201.105062 
L 347.975636 199.976971 
L 350.353724 199.190981 
L 350.899515 200.734056 
L 352.640848 202.289587 
L 353.394559 201.680025 
L 354.953961 201.445641 
L 355.447772 203.30237 
L 357.267074 203.200396 
L 357.64393 202.655284 
L 359.008407 204.269281 
L 359.580188 207.308699 
L 361.360505 212.543909 
L 363.335748 211.175337 
L 363.790574 211.47096 
L 365.635866 211.489726 
L 366.077697 210.08252 
L 368.23487 209.941159 
L 368.59873 209.046358 
L 370.703923 206.601717 
L 371.197734 201.842654 
L 373.056022 198.370588 
L 373.575822 195.378803 
L 375.30416 194.966442 
L 377.747223 194.834484 
L 378.461949 193.426506 
L 379.943381 194.762128 
L 381.112933 194.52239 
L 383.776912 193.069261 
L 385.232354 192.446696 
L 386.362921 192.125017 
L 387.792373 191.478581 
L 388.857964 190.730913 
L 390.235436 190.772496 
L 390.924172 192.012301 
L 392.496569 190.258763 
L 393.497186 191.290745 
L 394.991613 192.191133 
L 395.862279 193.621745 
L 397.148786 195.081244 
L 397.148786 195.081244 
" clip-path="url(#p624a2abd0b)" style="fill: none; stroke: #2ca02c; stroke-width: 1.5; stroke-linecap: square"/>
   </g>
   <g id="patch_3">
    <path d="M 57.6 307.584 
L 57.6 41.472 
" style="fill: none; stroke: #000000; stroke-width: 0.8; stroke-linejoin: miter; stroke-linecap: square"/>
   </g>
   <g id="patch_4">
    <path d="M 414.72 307.584 
L 414.72 41.472 
" style="fill: none; stroke: #000000; stroke-width: 0.8; stroke-linejoin: miter; stroke-linecap: square"/>
   </g>
   <g id="patch_5">
    <path d="M 57.6 307.584 
L 414.72 307.584 
" style="fill: none; stroke: #000000; stroke-width: 0.8; stroke-linejoin: miter; stroke-linecap: square"/>
   </g>
   <g id="patch_6">
    <path d="M 57.6 41.472 
L 414.72 41.472 
" style="fill: none; stroke: #000000; stroke-width: 0.8; stroke-linejoin: miter; stroke-linecap: square"/>
   </g>
   <g id="text_17">
    <!-- learning curve -->
    <g transform="translate(192.96375 35.472) scale(0.12 -0.12)">
     <defs>
      <path id="DejaVuSans-6c" d="M 603 4863 
L 1178 4863 
L 1178 0 
L 603 0 
L 603 4863 
z
" transform="scale(0.015625)"/>
      <path id="DejaVuSans-67" d="M 2906 1791 
Q 2906 2416 2648 2759 
Q 2391 3103 1925 3103 
Q 1463 3103 1205 2759 
Q 947 2416 947 1791 
Q 947 1169 1205 825 
Q 1463 481 1925 481 
Q 2391 481 2648 825 
Q 2906 1169 2906 1791 
z
M 3481 434 
Q 3481 -459 3084 -895 
Q 2688 -1331 1869 -1331 
Q 1566 -1331 1297 -1286 
Q 1028 -1241 775 -1147 
L 775 -588 
Q 1028 -725 1275 -790 
Q 1522 -856 1778 -856 
Q 2344 -856 2625 -561 
Q 2906 -266 2906 331 
L 2906 616 
Q 2728 306 2450 153 
Q 2172 0 1784 0 
Q 1141 0 747 490 
Q 353 981 353 1791 
Q 353 2603 747 3093 
Q 1141 3584 1784 3584 
Q 2172 3584 2450 3431 
Q 2728 3278 2906 2969 
L 2906 3500 
L 3481 3500 
L 3481 434 
z
" transform="scale(0.015625)"/>
      <path id="DejaVuSans-63" d="M 3122 3366 
L 3122 2828 
Q 2878 2963 2633 3030 
Q 2388 3097 2138 3097 
Q 1578 3097 1268 2742 
Q 959 2388 959 1747 
Q 959 1106 1268 751 
Q 1578 397 2138 397 
Q 2388 397 2633 464 
Q 2878 531 3122 666 
L 3122 134 
Q 2881 22 2623 -34 
Q 2366 -91 2075 -91 
Q 1284 -91 818 406 
Q 353 903 353 1747 
Q 353 2603 823 3093 
Q 1294 3584 2113 3584 
Q 2378 3584 2631 3529 
Q 2884 3475 3122 3366 
z
" transform="scale(0.015625)"/>
      <path id="DejaVuSans-75" d="M 544 1381 
L 544 3500 
L 1119 3500 
L 1119 1403 
Q 1119 906 1312 657 
Q 1506 409 1894 409 
Q 2359 409 2629 706 
Q 2900 1003 2900 1516 
L 2900 3500 
L 3475 3500 
L 3475 0 
L 2900 0 
L 2900 538 
Q 2691 219 2414 64 
Q 2138 -91 1772 -91 
Q 1169 -91 856 284 
Q 544 659 544 1381 
z
M 1991 3584 
L 1991 3584 
z
" transform="scale(0.015625)"/>
      <path id="DejaVuSans-76" d="M 191 3500 
L 800 3500 
L 1894 563 
L 2988 3500 
L 3597 3500 
L 2284 0 
L 1503 0 
L 191 3500 
z
" transform="scale(0.015625)"/>
     </defs>
     <use xlink:href="#DejaVuSans-6c"/>
     <use xlink:href="#DejaVuSans-65" x="27.783203"/>
     <use xlink:href="#DejaVuSans-61" x="89.306641"/>
     <use xlink:href="#DejaVuSans-72" x="150.585938"/>
     <use xlink:href="#DejaVuSans-6e" x="189.949219"/>
     <use xlink:href="#DejaVuSans-69" x="253.328125"/>
     <use xlink:href="#DejaVuSans-6e" x="281.111328"/>
     <use xlink:href="#DejaVuSans-67" x="344.490234"/>
     <use xlink:href="#DejaVuSans-20" x="407.966797"/>
     <use xlink:href="#DejaVuSans-63" x="439.753906"/>
     <use xlink:href="#DejaVuSans-75" x="494.734375"/>
     <use xlink:href="#DejaVuSans-72" x="558.113281"/>
     <use xlink:href="#DejaVuSans-76" x="599.226562"/>
     <use xlink:href="#DejaVuSans-65" x="658.40625"/>
    </g>
   </g>
   <g id="legend_1">
    <g id="patch_7">
     <path d="M 64.6 93.506375 
L 166.614062 93.506375 
Q 168.614062 93.506375 168.614062 91.506375 
L 168.614062 48.472 
Q 168.614062 46.472 166.614062 46.472 
L 64.6 46.472 
Q 62.6 46.472 62.6 48.472 
L 62.6 91.506375 
Q 62.6 93.506375 64.6 93.506375 
z
" style="fill: #ffffff; opacity: 0.8; stroke: #cccccc; stroke-linejoin: miter"/>
    </g>
    <g id="line2d_18">
     <path d="M 66.6 54.570438 
L 76.6 54.570438 
L 86.6 54.570438 
" style="fill: none; stroke: #1f77b4; stroke-width: 1.5; stroke-linecap: square"/>
    </g>
    <g id="text_18">
     <!-- source-source -->
     <g transform="translate(94.6 58.070438) scale(0.1 -0.1)">
      <defs>
       <path id="DejaVuSans-2d" d="M 313 2009 
L 1997 2009 
L 1997 1497 
L 313 1497 
L 313 2009 
z
" transform="scale(0.015625)"/>
      </defs>
      <use xlink:href="#DejaVuSans-73"/>
      <use xlink:href="#DejaVuSans-6f" x="52.099609"/>
      <use xlink:href="#DejaVuSans-75" x="113.28125"/>
      <use xlink:href="#DejaVuSans-72" x="176.660156"/>
      <use xlink:href="#DejaVuSans-63" x="215.523438"/>
      <use xlink:href="#DejaVuSans-65" x="270.503906"/>
      <use xlink:href="#DejaVuSans-2d" x="332.027344"/>
      <use xlink:href="#DejaVuSans-73" x="368.111328"/>
      <use xlink:href="#DejaVuSans-6f" x="420.210938"/>
      <use xlink:href="#DejaVuSans-75" x="481.392578"/>
      <use xlink:href="#DejaVuSans-72" x="544.771484"/>
      <use xlink:href="#DejaVuSans-63" x="583.634766"/>
      <use xlink:href="#DejaVuSans-65" x="638.615234"/>
     </g>
    </g>
    <g id="line2d_19">
     <path d="M 66.6 69.248563 
L 76.6 69.248563 
L 86.6 69.248563 
" style="fill: none; stroke: #ff7f0e; stroke-width: 1.5; stroke-linecap: square"/>
    </g>
    <g id="text_19">
     <!-- source-target -->
     <g transform="translate(94.6 72.748563) scale(0.1 -0.1)">
      <use xlink:href="#DejaVuSans-73"/>
      <use xlink:href="#DejaVuSans-6f" x="52.099609"/>
      <use xlink:href="#DejaVuSans-75" x="113.28125"/>
      <use xlink:href="#DejaVuSans-72" x="176.660156"/>
      <use xlink:href="#DejaVuSans-63" x="215.523438"/>
      <use xlink:href="#DejaVuSans-65" x="270.503906"/>
      <use xlink:href="#DejaVuSans-2d" x="332.027344"/>
      <use xlink:href="#DejaVuSans-74" x="368.111328"/>
      <use xlink:href="#DejaVuSans-61" x="407.320312"/>
      <use xlink:href="#DejaVuSans-72" x="468.599609"/>
      <use xlink:href="#DejaVuSans-67" x="507.962891"/>
      <use xlink:href="#DejaVuSans-65" x="571.439453"/>
      <use xlink:href="#DejaVuSans-74" x="632.962891"/>
     </g>
    </g>
    <g id="line2d_20">
     <path d="M 66.6 83.926688 
L 76.6 83.926688 
L 86.6 83.926688 
" style="fill: none; stroke: #2ca02c; stroke-width: 1.5; stroke-linecap: square"/>
    </g>
    <g id="text_20">
     <!-- target-target -->
     <g transform="translate(94.6 87.426688) scale(0.1 -0.1)">
      <use xlink:href="#DejaVuSans-74"/>
      <use xlink:href="#DejaVuSans-61" x="39.208984"/>
      <use xlink:href="#DejaVuSans-72" x="100.488281"/>
      <use xlink:href="#DejaVuSans-67" x="139.851562"/>
      <use xlink:href="#DejaVuSans-65" x="203.328125"/>
      <use xlink:href="#DejaVuSans-74" x="264.851562"/>
      <use xlink:href="#DejaVuSans-2d" x="304.060547"/>
      <use xlink:href="#DejaVuSans-74" x="340.144531"/>
      <use xlink:href="#DejaVuSans-61" x="379.353516"/>
      <use xlink:href="#DejaVuSans-72" x="440.632812"/>
      <use xlink:href="#DejaVuSans-67" x="479.996094"/>
      <use xlink:href="#DejaVuSans-65" x="543.472656"/>
      <use xlink:href="#DejaVuSans-74" x="604.996094"/>
     </g>
    </g>
   </g>
  </g>
 </g>
 <defs>
  <clipPath id="p624a2abd0b">
   <rect x="57.6" y="41.472" width="357.12" height="266.112"/>
  </clipPath>
 </defs>
</svg>
