<?xml version="1.0" encoding="utf-8" standalone="no"?>
<!DOCTYPE svg PUBLIC "-//W3C//DTD SVG 1.1//EN"
  "http://www.w3.org/Graphics/SVG/1.1/DTD/svg11.dtd">
<svg xmlns:xlink="http://www.w3.org/1999/xlink" width="460.8pt" height="345.6pt" viewBox="0 0 460.8 345.6" xmlns="http://www.w3.org/2000/svg" version="1.1">
 <metadata>
  <rdf:RDF xmlns:dc="http://purl.org/dc/elements/1.1/" xmlns:cc="http://creativecommons.org/ns#" xmlns:rdf="http://www.w3.org/1999/02/22-rdf-syntax-ns#">
   <cc:Work>
    <dc:type rdf:resource="http://purl.org/dc/dcmitype/StillImage"/>
    <dc:date>2023-08-19T13:47:16.769717</dc:date>
    <dc:format>image/svg+xml</dc:format>
    <dc:creator>
     <cc:Agent>
      <dc:title>Matplotlib v3.7.1, https://matplotlib.org/</dc:title>
     </cc:Agent>
    </dc:creator>
   </cc:Work>
  </rdf:RDF>
 </metadata>
 <defs>
  <style type="text/css">*{stroke-linejoin: round; stroke-linecap: butt}</style>
 </defs>
 <g id="figure_1">
  <g id="patch_1">
   <path d="M 0 345.6 
L 460.8 345.6 
L 460.8 0 
L 0 0 
z
" style="fill: #ffffff"/>
  </g>
  <g id="axes_1">
   <g id="patch_2">
    <path d="M 57.6 307.584 
L 414.72 307.584 
L 414.72 41.472 
L 57.6 41.472 
z
" style="fill: #ffffff"/>
   </g>
   <g id="matplotlib.axis_1">
    <g id="xtick_1">
     <g id="line2d_1">
      <defs>
       <path id="mb2ef70cf5a" d="M 0 0 
L 0 3.5 
" style="stroke: #000000; stroke-width: 0.8"/>
      </defs>
      <g>
       <use xlink:href="#mb2ef70cf5a" x="73.044731" y="307.584" style="stroke: #000000; stroke-width: 0.8"/>
      </g>
     </g>
     <g id="text_1">
      <!-- 0 -->
      <g transform="translate(69.863481 322.182437) scale(0.1 -0.1)">
       <defs>
        <path id="DejaVuSans-30" d="M 2034 4250 
Q 1547 4250 1301 3770 
Q 1056 3291 1056 2328 
Q 1056 1369 1301 889 
Q 1547 409 2034 409 
Q 2525 409 2770 889 
Q 3016 1369 3016 2328 
Q 3016 3291 2770 3770 
Q 2525 4250 2034 4250 
z
M 2034 4750 
Q 2819 4750 3233 4129 
Q 3647 3509 3647 2328 
Q 3647 1150 3233 529 
Q 2819 -91 2034 -91 
Q 1250 -91 836 529 
Q 422 1150 422 2328 
Q 422 3509 836 4129 
Q 1250 4750 2034 4750 
z
" transform="scale(0.015625)"/>
       </defs>
       <use xlink:href="#DejaVuSans-30"/>
      </g>
     </g>
    </g>
    <g id="xtick_2">
     <g id="line2d_2">
      <g>
       <use xlink:href="#mb2ef70cf5a" x="151.844378" y="307.584" style="stroke: #000000; stroke-width: 0.8"/>
      </g>
     </g>
     <g id="text_2">
      <!-- 1000 -->
      <g transform="translate(139.119378 322.182437) scale(0.1 -0.1)">
       <defs>
        <path id="DejaVuSans-31" d="M 794 531 
L 1825 531 
L 1825 4091 
L 703 3866 
L 703 4441 
L 1819 4666 
L 2450 4666 
L 2450 531 
L 3481 531 
L 3481 0 
L 794 0 
L 794 531 
z
" transform="scale(0.015625)"/>
       </defs>
       <use xlink:href="#DejaVuSans-31"/>
       <use xlink:href="#DejaVuSans-30" x="63.623047"/>
       <use xlink:href="#DejaVuSans-30" x="127.246094"/>
       <use xlink:href="#DejaVuSans-30" x="190.869141"/>
      </g>
     </g>
    </g>
    <g id="xtick_3">
     <g id="line2d_3">
      <g>
       <use xlink:href="#mb2ef70cf5a" x="230.644025" y="307.584" style="stroke: #000000; stroke-width: 0.8"/>
      </g>
     </g>
     <g id="text_3">
      <!-- 2000 -->
      <g transform="translate(217.919025 322.182437) scale(0.1 -0.1)">
       <defs>
        <path id="DejaVuSans-32" d="M 1228 531 
L 3431 531 
L 3431 0 
L 469 0 
L 469 531 
Q 828 903 1448 1529 
Q 2069 2156 2228 2338 
Q 2531 2678 2651 2914 
Q 2772 3150 2772 3378 
Q 2772 3750 2511 3984 
Q 2250 4219 1831 4219 
Q 1534 4219 1204 4116 
Q 875 4013 500 3803 
L 500 4441 
Q 881 4594 1212 4672 
Q 1544 4750 1819 4750 
Q 2544 4750 2975 4387 
Q 3406 4025 3406 3419 
Q 3406 3131 3298 2873 
Q 3191 2616 2906 2266 
Q 2828 2175 2409 1742 
Q 1991 1309 1228 531 
z
" transform="scale(0.015625)"/>
       </defs>
       <use xlink:href="#DejaVuSans-32"/>
       <use xlink:href="#DejaVuSans-30" x="63.623047"/>
       <use xlink:href="#DejaVuSans-30" x="127.246094"/>
       <use xlink:href="#DejaVuSans-30" x="190.869141"/>
      </g>
     </g>
    </g>
    <g id="xtick_4">
     <g id="line2d_4">
      <g>
       <use xlink:href="#mb2ef70cf5a" x="309.443672" y="307.584" style="stroke: #000000; stroke-width: 0.8"/>
      </g>
     </g>
     <g id="text_4">
      <!-- 3000 -->
      <g transform="translate(296.718672 322.182437) scale(0.1 -0.1)">
       <defs>
        <path id="DejaVuSans-33" d="M 2597 2516 
Q 3050 2419 3304 2112 
Q 3559 1806 3559 1356 
Q 3559 666 3084 287 
Q 2609 -91 1734 -91 
Q 1441 -91 1130 -33 
Q 819 25 488 141 
L 488 750 
Q 750 597 1062 519 
Q 1375 441 1716 441 
Q 2309 441 2620 675 
Q 2931 909 2931 1356 
Q 2931 1769 2642 2001 
Q 2353 2234 1838 2234 
L 1294 2234 
L 1294 2753 
L 1863 2753 
Q 2328 2753 2575 2939 
Q 2822 3125 2822 3475 
Q 2822 3834 2567 4026 
Q 2313 4219 1838 4219 
Q 1578 4219 1281 4162 
Q 984 4106 628 3988 
L 628 4550 
Q 988 4650 1302 4700 
Q 1616 4750 1894 4750 
Q 2613 4750 3031 4423 
Q 3450 4097 3450 3541 
Q 3450 3153 3228 2886 
Q 3006 2619 2597 2516 
z
" transform="scale(0.015625)"/>
       </defs>
       <use xlink:href="#DejaVuSans-33"/>
       <use xlink:href="#DejaVuSans-30" x="63.623047"/>
       <use xlink:href="#DejaVuSans-30" x="127.246094"/>
       <use xlink:href="#DejaVuSans-30" x="190.869141"/>
      </g>
     </g>
    </g>
    <g id="xtick_5">
     <g id="line2d_5">
      <g>
       <use xlink:href="#mb2ef70cf5a" x="388.243319" y="307.584" style="stroke: #000000; stroke-width: 0.8"/>
      </g>
     </g>
     <g id="text_5">
      <!-- 4000 -->
      <g transform="translate(375.518319 322.182437) scale(0.1 -0.1)">
       <defs>
        <path id="DejaVuSans-34" d="M 2419 4116 
L 825 1625 
L 2419 1625 
L 2419 4116 
z
M 2253 4666 
L 3047 4666 
L 3047 1625 
L 3713 1625 
L 3713 1100 
L 3047 1100 
L 3047 0 
L 2419 0 
L 2419 1100 
L 313 1100 
L 313 1709 
L 2253 4666 
z
" transform="scale(0.015625)"/>
       </defs>
       <use xlink:href="#DejaVuSans-34"/>
       <use xlink:href="#DejaVuSans-30" x="63.623047"/>
       <use xlink:href="#DejaVuSans-30" x="127.246094"/>
       <use xlink:href="#DejaVuSans-30" x="190.869141"/>
      </g>
     </g>
    </g>
    <g id="text_6">
     <!-- episodes -->
     <g transform="translate(214.000625 335.860562) scale(0.1 -0.1)">
      <defs>
       <path id="DejaVuSans-65" d="M 3597 1894 
L 3597 1613 
L 953 1613 
Q 991 1019 1311 708 
Q 1631 397 2203 397 
Q 2534 397 2845 478 
Q 3156 559 3463 722 
L 3463 178 
Q 3153 47 2828 -22 
Q 2503 -91 2169 -91 
Q 1331 -91 842 396 
Q 353 884 353 1716 
Q 353 2575 817 3079 
Q 1281 3584 2069 3584 
Q 2775 3584 3186 3129 
Q 3597 2675 3597 1894 
z
M 3022 2063 
Q 3016 2534 2758 2815 
Q 2500 3097 2075 3097 
Q 1594 3097 1305 2825 
Q 1016 2553 972 2059 
L 3022 2063 
z
" transform="scale(0.015625)"/>
       <path id="DejaVuSans-70" d="M 1159 525 
L 1159 -1331 
L 581 -1331 
L 581 3500 
L 1159 3500 
L 1159 2969 
Q 1341 3281 1617 3432 
Q 1894 3584 2278 3584 
Q 2916 3584 3314 3078 
Q 3713 2572 3713 1747 
Q 3713 922 3314 415 
Q 2916 -91 2278 -91 
Q 1894 -91 1617 61 
Q 1341 213 1159 525 
z
M 3116 1747 
Q 3116 2381 2855 2742 
Q 2594 3103 2138 3103 
Q 1681 3103 1420 2742 
Q 1159 2381 1159 1747 
Q 1159 1113 1420 752 
Q 1681 391 2138 391 
Q 2594 391 2855 752 
Q 3116 1113 3116 1747 
z
" transform="scale(0.015625)"/>
       <path id="DejaVuSans-69" d="M 603 3500 
L 1178 3500 
L 1178 0 
L 603 0 
L 603 3500 
z
M 603 4863 
L 1178 4863 
L 1178 4134 
L 603 4134 
L 603 4863 
z
" transform="scale(0.015625)"/>
       <path id="DejaVuSans-73" d="M 2834 3397 
L 2834 2853 
Q 2591 2978 2328 3040 
Q 2066 3103 1784 3103 
Q 1356 3103 1142 2972 
Q 928 2841 928 2578 
Q 928 2378 1081 2264 
Q 1234 2150 1697 2047 
L 1894 2003 
Q 2506 1872 2764 1633 
Q 3022 1394 3022 966 
Q 3022 478 2636 193 
Q 2250 -91 1575 -91 
Q 1294 -91 989 -36 
Q 684 19 347 128 
L 347 722 
Q 666 556 975 473 
Q 1284 391 1588 391 
Q 1994 391 2212 530 
Q 2431 669 2431 922 
Q 2431 1156 2273 1281 
Q 2116 1406 1581 1522 
L 1381 1569 
Q 847 1681 609 1914 
Q 372 2147 372 2553 
Q 372 3047 722 3315 
Q 1072 3584 1716 3584 
Q 2034 3584 2315 3537 
Q 2597 3491 2834 3397 
z
" transform="scale(0.015625)"/>
       <path id="DejaVuSans-6f" d="M 1959 3097 
Q 1497 3097 1228 2736 
Q 959 2375 959 1747 
Q 959 1119 1226 758 
Q 1494 397 1959 397 
Q 2419 397 2687 759 
Q 2956 1122 2956 1747 
Q 2956 2369 2687 2733 
Q 2419 3097 1959 3097 
z
M 1959 3584 
Q 2709 3584 3137 3096 
Q 3566 2609 3566 1747 
Q 3566 888 3137 398 
Q 2709 -91 1959 -91 
Q 1206 -91 779 398 
Q 353 888 353 1747 
Q 353 2609 779 3096 
Q 1206 3584 1959 3584 
z
" transform="scale(0.015625)"/>
       <path id="DejaVuSans-64" d="M 2906 2969 
L 2906 4863 
L 3481 4863 
L 3481 0 
L 2906 0 
L 2906 525 
Q 2725 213 2448 61 
Q 2172 -91 1784 -91 
Q 1150 -91 751 415 
Q 353 922 353 1747 
Q 353 2572 751 3078 
Q 1150 3584 1784 3584 
Q 2172 3584 2448 3432 
Q 2725 3281 2906 2969 
z
M 947 1747 
Q 947 1113 1208 752 
Q 1469 391 1925 391 
Q 2381 391 2643 752 
Q 2906 1113 2906 1747 
Q 2906 2381 2643 2742 
Q 2381 3103 1925 3103 
Q 1469 3103 1208 2742 
Q 947 2381 947 1747 
z
" transform="scale(0.015625)"/>
      </defs>
      <use xlink:href="#DejaVuSans-65"/>
      <use xlink:href="#DejaVuSans-70" x="61.523438"/>
      <use xlink:href="#DejaVuSans-69" x="125"/>
      <use xlink:href="#DejaVuSans-73" x="152.783203"/>
      <use xlink:href="#DejaVuSans-6f" x="204.882812"/>
      <use xlink:href="#DejaVuSans-64" x="266.064453"/>
      <use xlink:href="#DejaVuSans-65" x="329.541016"/>
      <use xlink:href="#DejaVuSans-73" x="391.064453"/>
     </g>
    </g>
   </g>
   <g id="matplotlib.axis_2">
    <g id="ytick_1">
     <g id="line2d_6">
      <defs>
       <path id="m5e596283f2" d="M 0 0 
L -3.5 0 
" style="stroke: #000000; stroke-width: 0.8"/>
      </defs>
      <g>
       <use xlink:href="#m5e596283f2" x="57.6" y="297.601674" style="stroke: #000000; stroke-width: 0.8"/>
      </g>
     </g>
     <g id="text_7">
      <!-- 0 -->
      <g transform="translate(44.2375 301.400893) scale(0.1 -0.1)">
       <use xlink:href="#DejaVuSans-30"/>
      </g>
     </g>
    </g>
    <g id="ytick_2">
     <g id="line2d_7">
      <g>
       <use xlink:href="#m5e596283f2" x="57.6" y="244.561285" style="stroke: #000000; stroke-width: 0.8"/>
      </g>
     </g>
     <g id="text_8">
      <!-- 200 -->
      <g transform="translate(31.5125 248.360503) scale(0.1 -0.1)">
       <use xlink:href="#DejaVuSans-32"/>
       <use xlink:href="#DejaVuSans-30" x="63.623047"/>
       <use xlink:href="#DejaVuSans-30" x="127.246094"/>
      </g>
     </g>
    </g>
    <g id="ytick_3">
     <g id="line2d_8">
      <g>
       <use xlink:href="#m5e596283f2" x="57.6" y="191.520895" style="stroke: #000000; stroke-width: 0.8"/>
      </g>
     </g>
     <g id="text_9">
      <!-- 400 -->
      <g transform="translate(31.5125 195.320114) scale(0.1 -0.1)">
       <use xlink:href="#DejaVuSans-34"/>
       <use xlink:href="#DejaVuSans-30" x="63.623047"/>
       <use xlink:href="#DejaVuSans-30" x="127.246094"/>
      </g>
     </g>
    </g>
    <g id="ytick_4">
     <g id="line2d_9">
      <g>
       <use xlink:href="#m5e596283f2" x="57.6" y="138.480505" style="stroke: #000000; stroke-width: 0.8"/>
      </g>
     </g>
     <g id="text_10">
      <!-- 600 -->
      <g transform="translate(31.5125 142.279724) scale(0.1 -0.1)">
       <defs>
        <path id="DejaVuSans-36" d="M 2113 2584 
Q 1688 2584 1439 2293 
Q 1191 2003 1191 1497 
Q 1191 994 1439 701 
Q 1688 409 2113 409 
Q 2538 409 2786 701 
Q 3034 994 3034 1497 
Q 3034 2003 2786 2293 
Q 2538 2584 2113 2584 
z
M 3366 4563 
L 3366 3988 
Q 3128 4100 2886 4159 
Q 2644 4219 2406 4219 
Q 1781 4219 1451 3797 
Q 1122 3375 1075 2522 
Q 1259 2794 1537 2939 
Q 1816 3084 2150 3084 
Q 2853 3084 3261 2657 
Q 3669 2231 3669 1497 
Q 3669 778 3244 343 
Q 2819 -91 2113 -91 
Q 1303 -91 875 529 
Q 447 1150 447 2328 
Q 447 3434 972 4092 
Q 1497 4750 2381 4750 
Q 2619 4750 2861 4703 
Q 3103 4656 3366 4563 
z
" transform="scale(0.015625)"/>
       </defs>
       <use xlink:href="#DejaVuSans-36"/>
       <use xlink:href="#DejaVuSans-30" x="63.623047"/>
       <use xlink:href="#DejaVuSans-30" x="127.246094"/>
      </g>
     </g>
    </g>
    <g id="ytick_5">
     <g id="line2d_10">
      <g>
       <use xlink:href="#m5e596283f2" x="57.6" y="85.440115" style="stroke: #000000; stroke-width: 0.8"/>
      </g>
     </g>
     <g id="text_11">
      <!-- 800 -->
      <g transform="translate(31.5125 89.239334) scale(0.1 -0.1)">
       <defs>
        <path id="DejaVuSans-38" d="M 2034 2216 
Q 1584 2216 1326 1975 
Q 1069 1734 1069 1313 
Q 1069 891 1326 650 
Q 1584 409 2034 409 
Q 2484 409 2743 651 
Q 3003 894 3003 1313 
Q 3003 1734 2745 1975 
Q 2488 2216 2034 2216 
z
M 1403 2484 
Q 997 2584 770 2862 
Q 544 3141 544 3541 
Q 544 4100 942 4425 
Q 1341 4750 2034 4750 
Q 2731 4750 3128 4425 
Q 3525 4100 3525 3541 
Q 3525 3141 3298 2862 
Q 3072 2584 2669 2484 
Q 3125 2378 3379 2068 
Q 3634 1759 3634 1313 
Q 3634 634 3220 271 
Q 2806 -91 2034 -91 
Q 1263 -91 848 271 
Q 434 634 434 1313 
Q 434 1759 690 2068 
Q 947 2378 1403 2484 
z
M 1172 3481 
Q 1172 3119 1398 2916 
Q 1625 2713 2034 2713 
Q 2441 2713 2670 2916 
Q 2900 3119 2900 3481 
Q 2900 3844 2670 4047 
Q 2441 4250 2034 4250 
Q 1625 4250 1398 4047 
Q 1172 3844 1172 3481 
z
" transform="scale(0.015625)"/>
       </defs>
       <use xlink:href="#DejaVuSans-38"/>
       <use xlink:href="#DejaVuSans-30" x="63.623047"/>
       <use xlink:href="#DejaVuSans-30" x="127.246094"/>
      </g>
     </g>
    </g>
    <g id="text_12">
     <!-- mean episode rewards -->
     <g transform="translate(25.432812 231.360031) rotate(-90) scale(0.1 -0.1)">
      <defs>
       <path id="DejaVuSans-6d" d="M 3328 2828 
Q 3544 3216 3844 3400 
Q 4144 3584 4550 3584 
Q 5097 3584 5394 3201 
Q 5691 2819 5691 2113 
L 5691 0 
L 5113 0 
L 5113 2094 
Q 5113 2597 4934 2840 
Q 4756 3084 4391 3084 
Q 3944 3084 3684 2787 
Q 3425 2491 3425 1978 
L 3425 0 
L 2847 0 
L 2847 2094 
Q 2847 2600 2669 2842 
Q 2491 3084 2119 3084 
Q 1678 3084 1418 2786 
Q 1159 2488 1159 1978 
L 1159 0 
L 581 0 
L 581 3500 
L 1159 3500 
L 1159 2956 
Q 1356 3278 1631 3431 
Q 1906 3584 2284 3584 
Q 2666 3584 2933 3390 
Q 3200 3197 3328 2828 
z
" transform="scale(0.015625)"/>
       <path id="DejaVuSans-61" d="M 2194 1759 
Q 1497 1759 1228 1600 
Q 959 1441 959 1056 
Q 959 750 1161 570 
Q 1363 391 1709 391 
Q 2188 391 2477 730 
Q 2766 1069 2766 1631 
L 2766 1759 
L 2194 1759 
z
M 3341 1997 
L 3341 0 
L 2766 0 
L 2766 531 
Q 2569 213 2275 61 
Q 1981 -91 1556 -91 
Q 1019 -91 701 211 
Q 384 513 384 1019 
Q 384 1609 779 1909 
Q 1175 2209 1959 2209 
L 2766 2209 
L 2766 2266 
Q 2766 2663 2505 2880 
Q 2244 3097 1772 3097 
Q 1472 3097 1187 3025 
Q 903 2953 641 2809 
L 641 3341 
Q 956 3463 1253 3523 
Q 1550 3584 1831 3584 
Q 2591 3584 2966 3190 
Q 3341 2797 3341 1997 
z
" transform="scale(0.015625)"/>
       <path id="DejaVuSans-6e" d="M 3513 2113 
L 3513 0 
L 2938 0 
L 2938 2094 
Q 2938 2591 2744 2837 
Q 2550 3084 2163 3084 
Q 1697 3084 1428 2787 
Q 1159 2491 1159 1978 
L 1159 0 
L 581 0 
L 581 3500 
L 1159 3500 
L 1159 2956 
Q 1366 3272 1645 3428 
Q 1925 3584 2291 3584 
Q 2894 3584 3203 3211 
Q 3513 2838 3513 2113 
z
" transform="scale(0.015625)"/>
       <path id="DejaVuSans-20" transform="scale(0.015625)"/>
       <path id="DejaVuSans-72" d="M 2631 2963 
Q 2534 3019 2420 3045 
Q 2306 3072 2169 3072 
Q 1681 3072 1420 2755 
Q 1159 2438 1159 1844 
L 1159 0 
L 581 0 
L 581 3500 
L 1159 3500 
L 1159 2956 
Q 1341 3275 1631 3429 
Q 1922 3584 2338 3584 
Q 2397 3584 2469 3576 
Q 2541 3569 2628 3553 
L 2631 2963 
z
" transform="scale(0.015625)"/>
       <path id="DejaVuSans-77" d="M 269 3500 
L 844 3500 
L 1563 769 
L 2278 3500 
L 2956 3500 
L 3675 769 
L 4391 3500 
L 4966 3500 
L 4050 0 
L 3372 0 
L 2619 2869 
L 1863 0 
L 1184 0 
L 269 3500 
z
" transform="scale(0.015625)"/>
      </defs>
      <use xlink:href="#DejaVuSans-6d"/>
      <use xlink:href="#DejaVuSans-65" x="97.412109"/>
      <use xlink:href="#DejaVuSans-61" x="158.935547"/>
      <use xlink:href="#DejaVuSans-6e" x="220.214844"/>
      <use xlink:href="#DejaVuSans-20" x="283.59375"/>
      <use xlink:href="#DejaVuSans-65" x="315.380859"/>
      <use xlink:href="#DejaVuSans-70" x="376.904297"/>
      <use xlink:href="#DejaVuSans-69" x="440.380859"/>
      <use xlink:href="#DejaVuSans-73" x="468.164062"/>
      <use xlink:href="#DejaVuSans-6f" x="520.263672"/>
      <use xlink:href="#DejaVuSans-64" x="581.445312"/>
      <use xlink:href="#DejaVuSans-65" x="644.921875"/>
      <use xlink:href="#DejaVuSans-20" x="706.445312"/>
      <use xlink:href="#DejaVuSans-72" x="738.232422"/>
      <use xlink:href="#DejaVuSans-65" x="777.095703"/>
      <use xlink:href="#DejaVuSans-77" x="838.619141"/>
      <use xlink:href="#DejaVuSans-61" x="920.40625"/>
      <use xlink:href="#DejaVuSans-72" x="981.685547"/>
      <use xlink:href="#DejaVuSans-64" x="1021.048828"/>
      <use xlink:href="#DejaVuSans-73" x="1084.525391"/>
     </g>
    </g>
   </g>
   <g id="line2d_11">
    <path d="M 73.832727 295.488 
L 74.620724 294.659197 
L 75.40872 294.700457 
L 76.196717 294.34912 
L 76.984713 294.155081 
L 77.77271 293.759202 
L 79.348703 293.56457 
L 80.136699 293.322526 
L 80.924695 293.4776 
L 81.712692 293.350964 
L 82.500688 293.416657 
L 83.288685 293.254089 
L 84.076681 293.338461 
L 84.864678 292.925556 
L 85.652674 292.861191 
L 87.228667 293.145456 
L 88.016664 293.428643 
L 88.80466 293.294456 
L 89.592657 292.834052 
L 90.380653 292.761158 
L 91.16865 292.385944 
L 91.956646 292.387345 
L 92.744643 292.824215 
L 93.532639 293.097486 
L 95.108632 293.172504 
L 95.896628 293.150375 
L 96.684625 292.666951 
L 97.472621 293.180468 
L 98.260618 293.373879 
L 99.048614 293.866399 
L 102.988597 293.500905 
L 103.776593 293.040171 
L 105.352586 293.039319 
L 106.140583 292.645723 
L 106.928579 292.571044 
L 107.716575 292.266038 
L 108.504572 292.356067 
L 110.080565 292.232092 
L 110.868561 292.197415 
L 112.444554 293.324272 
L 113.232551 293.247144 
L 114.020547 293.404185 
L 114.808544 293.108784 
L 115.59654 293.350708 
L 116.384537 293.222022 
L 117.172533 292.945511 
L 117.96053 292.49786 
L 118.748526 292.414167 
L 119.536523 292.12767 
L 120.324519 291.441257 
L 121.900512 291.285776 
L 122.688508 291.53452 
L 123.476505 290.927436 
L 124.264501 291.027097 
L 125.052498 290.997534 
L 125.840494 290.599143 
L 126.628491 290.52856 
L 127.416487 290.682936 
L 128.99248 290.469765 
L 129.780477 290.260449 
L 130.568473 289.876418 
L 131.35647 289.739407 
L 132.144466 288.52994 
L 132.932462 287.94764 
L 133.720459 287.722303 
L 134.508455 287.220515 
L 136.872445 284.294894 
L 137.660441 284.072075 
L 139.236434 281.469417 
L 140.024431 281.02552 
L 140.812427 280.010046 
L 144.75241 276.784013 
L 145.540406 275.086495 
L 147.904395 275.42922 
L 149.480388 273.330469 
L 150.268385 272.567559 
L 151.844378 269.636999 
L 152.632374 269.621635 
L 153.420371 268.621233 
L 154.208367 265.549465 
L 154.996364 263.739984 
L 155.78436 260.70706 
L 156.572357 258.836569 
L 158.14835 253.877127 
L 159.724342 251.340901 
L 160.512339 249.103473 
L 161.300335 247.431345 
L 162.088332 247.824719 
L 162.876328 247.110142 
L 164.452321 247.391576 
L 166.028314 247.999032 
L 166.816311 248.026093 
L 167.604307 248.210673 
L 168.392304 248.600962 
L 169.1803 248.745531 
L 169.968297 248.722139 
L 170.756293 248.551885 
L 171.544289 248.746391 
L 172.332286 249.121084 
L 173.120282 249.119814 
L 174.696275 249.319123 
L 175.484272 249.26738 
L 176.272268 249.336996 
L 177.060265 249.554404 
L 179.424254 249.483213 
L 181.000247 249.231574 
L 181.788244 249.237833 
L 184.152233 248.809238 
L 184.940229 248.630526 
L 187.304219 248.731225 
L 188.092215 248.931394 
L 191.244201 248.247606 
L 195.184184 245.948395 
L 195.97218 244.977524 
L 196.760177 243.598631 
L 198.336169 241.922369 
L 199.912162 240.78351 
L 200.700159 238.683769 
L 201.488155 237.565767 
L 202.276152 237.466123 
L 203.064148 236.303528 
L 203.852145 235.55881 
L 204.640141 234.169738 
L 205.428138 231.856208 
L 206.216134 231.227325 
L 207.004131 230.242157 
L 207.792127 230.412711 
L 208.580124 231.772664 
L 209.36812 231.009604 
L 210.156117 229.082935 
L 211.732109 226.923252 
L 212.520106 227.70973 
L 213.308102 228.942388 
L 214.884095 227.968055 
L 216.460088 225.470633 
L 217.248085 225.403667 
L 218.036081 225.160421 
L 218.824078 224.72195 
L 219.612074 224.617041 
L 220.400071 223.601157 
L 221.188067 223.64879 
L 222.76406 221.955754 
L 223.552056 221.249449 
L 224.340053 220.741304 
L 225.128049 221.093614 
L 225.916046 222.027326 
L 227.492039 222.510799 
L 228.280035 222.60597 
L 229.068032 221.806063 
L 229.856028 221.50329 
L 230.644025 221.041348 
L 232.220018 220.475673 
L 234.584007 216.920216 
L 235.372004 215.200889 
L 236.947996 213.399826 
L 237.735993 212.020945 
L 238.523989 212.030562 
L 240.887979 207.230152 
L 241.675975 205.118333 
L 242.463972 203.730297 
L 243.251968 203.300663 
L 244.039965 201.336975 
L 244.827961 198.893421 
L 245.615958 197.803243 
L 246.403954 195.83148 
L 247.191951 194.836904 
L 247.979947 193.298619 
L 248.767944 191.100657 
L 249.55594 190.157604 
L 250.343936 188.770997 
L 251.131933 187.712311 
L 251.919929 190.153587 
L 252.707926 194.147167 
L 253.495922 194.001685 
L 254.283919 192.757013 
L 255.071915 192.906767 
L 255.859912 193.340609 
L 258.223901 197.691009 
L 259.011898 198.111945 
L 259.799894 196.378875 
L 260.587891 192.843648 
L 261.375887 193.150489 
L 262.163883 194.003661 
L 262.95188 194.217661 
L 263.739876 194.95313 
L 264.527873 195.86141 
L 265.315869 195.400356 
L 266.103866 195.471891 
L 266.891862 195.088797 
L 268.467855 194.832091 
L 269.255852 195.227565 
L 270.043848 195.795974 
L 270.831845 196.036649 
L 271.619841 196.477689 
L 272.407838 195.521968 
L 273.195834 195.594028 
L 273.983831 195.04218 
L 274.771827 195.045055 
L 276.34782 195.915233 
L 277.135816 195.746494 
L 277.923813 194.661308 
L 279.499806 193.241583 
L 280.287802 192.182544 
L 281.075799 189.511578 
L 281.863795 185.89247 
L 282.651792 183.815841 
L 283.439788 179.967192 
L 284.227785 174.865293 
L 286.591774 167.873853 
L 287.379771 165.287132 
L 288.167767 162.264415 
L 288.955763 161.268966 
L 289.74376 161.88599 
L 290.531756 160.44862 
L 291.319753 162.764699 
L 292.107749 165.458073 
L 292.895746 165.127334 
L 293.683742 166.343047 
L 294.471739 167.890735 
L 295.259735 169.148631 
L 296.047732 171.834279 
L 297.623725 175.841283 
L 298.411721 178.322386 
L 299.987714 180.059675 
L 301.563707 184.653398 
L 302.351703 184.776617 
L 303.1397 186.759852 
L 304.715693 192.229468 
L 306.291686 195.355072 
L 307.079682 195.955278 
L 307.867679 197.14578 
L 308.655675 197.918317 
L 309.443672 197.548958 
L 310.231668 197.859557 
L 311.019665 198.835163 
L 311.807661 200.218238 
L 312.595658 199.483721 
L 313.383654 199.020564 
L 314.17165 198.039513 
L 314.959647 199.325288 
L 315.747643 199.592732 
L 316.53564 199.257585 
L 317.323636 199.10011 
L 318.111633 197.205037 
L 318.899629 196.573093 
L 319.687626 194.754746 
L 321.263619 194.341528 
L 322.051615 196.784251 
L 322.839612 195.721734 
L 323.627608 196.37172 
L 324.415605 196.706968 
L 325.203601 195.208859 
L 326.779594 196.019146 
L 327.56759 195.259634 
L 328.355587 192.799637 
L 329.143583 196.099137 
L 330.719576 194.164482 
L 331.507573 192.443573 
L 332.295569 194.844444 
L 333.083566 196.0283 
L 333.871562 196.593067 
L 334.659559 193.684546 
L 335.447555 190.219266 
L 336.235552 188.827111 
L 337.023548 181.469362 
L 337.811545 177.461746 
L 339.387538 171.066544 
L 340.175534 164.117576 
L 340.96353 162.544798 
L 341.751527 163.248871 
L 342.539523 162.17593 
L 343.32752 162.048917 
L 344.115516 160.473288 
L 344.903513 159.217763 
L 345.691509 158.579522 
L 346.479506 157.212075 
L 347.267502 154.719165 
L 348.843495 147.697219 
L 349.631492 140.54602 
L 351.207485 130.991517 
L 352.783477 122.34271 
L 353.571474 119.537214 
L 354.35947 120.302439 
L 355.147467 117.735939 
L 356.72346 113.920896 
L 357.511456 115.250231 
L 358.299453 115.721305 
L 359.087449 117.016107 
L 360.663442 124.540959 
L 361.451439 124.56895 
L 362.239435 121.770203 
L 363.815428 128.354369 
L 364.603425 130.278549 
L 365.391421 130.504009 
L 366.179417 132.939155 
L 366.967414 133.450135 
L 367.75541 130.518578 
L 368.543407 130.838809 
L 369.331403 133.65998 
L 370.1194 130.73182 
L 370.907396 124.896171 
L 371.695393 120.223489 
L 372.483389 116.805309 
L 374.059382 107.652052 
L 374.847379 104.577467 
L 375.635375 103.293354 
L 376.423372 100.269411 
L 377.211368 92.109731 
L 377.999365 87.099369 
L 378.787361 81.244064 
L 379.575357 76.332777 
L 380.363354 72.379916 
L 381.15135 70.307456 
L 381.939347 67.514758 
L 382.727343 64.233591 
L 383.51534 58.037111 
L 384.303336 54.883422 
L 385.091333 53.568 
L 385.879329 54.925718 
L 386.667326 59.32152 
L 387.455322 62.002693 
L 388.243319 59.02269 
L 389.031315 59.00526 
L 389.819312 64.479872 
L 390.607308 67.253969 
L 391.395305 75.215481 
L 392.183301 77.171332 
L 392.971297 80.041896 
L 393.759294 81.119637 
L 394.54729 81.900438 
L 395.335287 82.005585 
L 396.123283 82.960232 
L 396.91128 79.321194 
L 398.487273 61.304423 
L 398.487273 61.304423 
" clip-path="url(#p65fc99d26e)" style="fill: none; stroke: #1f77b4; stroke-width: 1.5; stroke-linecap: square"/>
   </g>
   <g id="patch_3">
    <path d="M 57.6 307.584 
L 57.6 41.472 
" style="fill: none; stroke: #000000; stroke-width: 0.8; stroke-linejoin: miter; stroke-linecap: square"/>
   </g>
   <g id="patch_4">
    <path d="M 414.72 307.584 
L 414.72 41.472 
" style="fill: none; stroke: #000000; stroke-width: 0.8; stroke-linejoin: miter; stroke-linecap: square"/>
   </g>
   <g id="patch_5">
    <path d="M 57.6 307.584 
L 414.72 307.584 
" style="fill: none; stroke: #000000; stroke-width: 0.8; stroke-linejoin: miter; stroke-linecap: square"/>
   </g>
   <g id="patch_6">
    <path d="M 57.6 41.472 
L 414.72 41.472 
" style="fill: none; stroke: #000000; stroke-width: 0.8; stroke-linejoin: miter; stroke-linecap: square"/>
   </g>
   <g id="text_13">
    <!-- episode learning curve -->
    <g transform="translate(167.59125 35.472) scale(0.12 -0.12)">
     <defs>
      <path id="DejaVuSans-6c" d="M 603 4863 
L 1178 4863 
L 1178 0 
L 603 0 
L 603 4863 
z
" transform="scale(0.015625)"/>
      <path id="DejaVuSans-67" d="M 2906 1791 
Q 2906 2416 2648 2759 
Q 2391 3103 1925 3103 
Q 1463 3103 1205 2759 
Q 947 2416 947 1791 
Q 947 1169 1205 825 
Q 1463 481 1925 481 
Q 2391 481 2648 825 
Q 2906 1169 2906 1791 
z
M 3481 434 
Q 3481 -459 3084 -895 
Q 2688 -1331 1869 -1331 
Q 1566 -1331 1297 -1286 
Q 1028 -1241 775 -1147 
L 775 -588 
Q 1028 -725 1275 -790 
Q 1522 -856 1778 -856 
Q 2344 -856 2625 -561 
Q 2906 -266 2906 331 
L 2906 616 
Q 2728 306 2450 153 
Q 2172 0 1784 0 
Q 1141 0 747 490 
Q 353 981 353 1791 
Q 353 2603 747 3093 
Q 1141 3584 1784 3584 
Q 2172 3584 2450 3431 
Q 2728 3278 2906 2969 
L 2906 3500 
L 3481 3500 
L 3481 434 
z
" transform="scale(0.015625)"/>
      <path id="DejaVuSans-63" d="M 3122 3366 
L 3122 2828 
Q 2878 2963 2633 3030 
Q 2388 3097 2138 3097 
Q 1578 3097 1268 2742 
Q 959 2388 959 1747 
Q 959 1106 1268 751 
Q 1578 397 2138 397 
Q 2388 397 2633 464 
Q 2878 531 3122 666 
L 3122 134 
Q 2881 22 2623 -34 
Q 2366 -91 2075 -91 
Q 1284 -91 818 406 
Q 353 903 353 1747 
Q 353 2603 823 3093 
Q 1294 3584 2113 3584 
Q 2378 3584 2631 3529 
Q 2884 3475 3122 3366 
z
" transform="scale(0.015625)"/>
      <path id="DejaVuSans-75" d="M 544 1381 
L 544 3500 
L 1119 3500 
L 1119 1403 
Q 1119 906 1312 657 
Q 1506 409 1894 409 
Q 2359 409 2629 706 
Q 2900 1003 2900 1516 
L 2900 3500 
L 3475 3500 
L 3475 0 
L 2900 0 
L 2900 538 
Q 2691 219 2414 64 
Q 2138 -91 1772 -91 
Q 1169 -91 856 284 
Q 544 659 544 1381 
z
M 1991 3584 
L 1991 3584 
z
" transform="scale(0.015625)"/>
      <path id="DejaVuSans-76" d="M 191 3500 
L 800 3500 
L 1894 563 
L 2988 3500 
L 3597 3500 
L 2284 0 
L 1503 0 
L 191 3500 
z
" transform="scale(0.015625)"/>
     </defs>
     <use xlink:href="#DejaVuSans-65"/>
     <use xlink:href="#DejaVuSans-70" x="61.523438"/>
     <use xlink:href="#DejaVuSans-69" x="125"/>
     <use xlink:href="#DejaVuSans-73" x="152.783203"/>
     <use xlink:href="#DejaVuSans-6f" x="204.882812"/>
     <use xlink:href="#DejaVuSans-64" x="266.064453"/>
     <use xlink:href="#DejaVuSans-65" x="329.541016"/>
     <use xlink:href="#DejaVuSans-20" x="391.064453"/>
     <use xlink:href="#DejaVuSans-6c" x="422.851562"/>
     <use xlink:href="#DejaVuSans-65" x="450.634766"/>
     <use xlink:href="#DejaVuSans-61" x="512.158203"/>
     <use xlink:href="#DejaVuSans-72" x="573.4375"/>
     <use xlink:href="#DejaVuSans-6e" x="612.800781"/>
     <use xlink:href="#DejaVuSans-69" x="676.179688"/>
     <use xlink:href="#DejaVuSans-6e" x="703.962891"/>
     <use xlink:href="#DejaVuSans-67" x="767.341797"/>
     <use xlink:href="#DejaVuSans-20" x="830.818359"/>
     <use xlink:href="#DejaVuSans-63" x="862.605469"/>
     <use xlink:href="#DejaVuSans-75" x="917.585938"/>
     <use xlink:href="#DejaVuSans-72" x="980.964844"/>
     <use xlink:href="#DejaVuSans-76" x="1022.078125"/>
     <use xlink:href="#DejaVuSans-65" x="1081.257812"/>
    </g>
   </g>
  </g>
 </g>
 <defs>
  <clipPath id="p65fc99d26e">
   <rect x="57.6" y="41.472" width="357.12" height="266.112"/>
  </clipPath>
 </defs>
</svg>
