<?xml version="1.0" encoding="utf-8" standalone="no"?>
<!DOCTYPE svg PUBLIC "-//W3C//DTD SVG 1.1//EN"
  "http://www.w3.org/Graphics/SVG/1.1/DTD/svg11.dtd">
<svg xmlns:xlink="http://www.w3.org/1999/xlink" width="460.8pt" height="345.6pt" viewBox="0 0 460.8 345.6" xmlns="http://www.w3.org/2000/svg" version="1.1">
 <metadata>
  <rdf:RDF xmlns:dc="http://purl.org/dc/elements/1.1/" xmlns:cc="http://creativecommons.org/ns#" xmlns:rdf="http://www.w3.org/1999/02/22-rdf-syntax-ns#">
   <cc:Work>
    <dc:type rdf:resource="http://purl.org/dc/dcmitype/StillImage"/>
    <dc:date>2023-08-19T13:47:16.485294</dc:date>
    <dc:format>image/svg+xml</dc:format>
    <dc:creator>
     <cc:Agent>
      <dc:title>Matplotlib v3.7.1, https://matplotlib.org/</dc:title>
     </cc:Agent>
    </dc:creator>
   </cc:Work>
  </rdf:RDF>
 </metadata>
 <defs>
  <style type="text/css">*{stroke-linejoin: round; stroke-linecap: butt}</style>
 </defs>
 <g id="figure_1">
  <g id="patch_1">
   <path d="M 0 345.6 
L 460.8 345.6 
L 460.8 0 
L 0 0 
z
" style="fill: #ffffff"/>
  </g>
  <g id="axes_1">
   <g id="patch_2">
    <path d="M 57.6 307.584 
L 414.72 307.584 
L 414.72 41.472 
L 57.6 41.472 
z
" style="fill: #ffffff"/>
   </g>
   <g id="matplotlib.axis_1">
    <g id="xtick_1">
     <g id="line2d_1">
      <defs>
       <path id="m82e07c6540" d="M 0 0 
L 0 3.5 
" style="stroke: #000000; stroke-width: 0.8"/>
      </defs>
      <g>
       <use xlink:href="#m82e07c6540" x="73.826844" y="307.584" style="stroke: #000000; stroke-width: 0.8"/>
      </g>
     </g>
     <g id="text_1">
      <!-- 0 -->
      <g transform="translate(70.645594 322.182437) scale(0.1 -0.1)">
       <defs>
        <path id="DejaVuSans-30" d="M 2034 4250 
Q 1547 4250 1301 3770 
Q 1056 3291 1056 2328 
Q 1056 1369 1301 889 
Q 1547 409 2034 409 
Q 2525 409 2770 889 
Q 3016 1369 3016 2328 
Q 3016 3291 2770 3770 
Q 2525 4250 2034 4250 
z
M 2034 4750 
Q 2819 4750 3233 4129 
Q 3647 3509 3647 2328 
Q 3647 1150 3233 529 
Q 2819 -91 2034 -91 
Q 1250 -91 836 529 
Q 422 1150 422 2328 
Q 422 3509 836 4129 
Q 1250 4750 2034 4750 
z
" transform="scale(0.015625)"/>
       </defs>
       <use xlink:href="#DejaVuSans-30"/>
      </g>
     </g>
    </g>
    <g id="xtick_2">
     <g id="line2d_2">
      <g>
       <use xlink:href="#m82e07c6540" x="139.201253" y="307.584" style="stroke: #000000; stroke-width: 0.8"/>
      </g>
     </g>
     <g id="text_2">
      <!-- 100000 -->
      <g transform="translate(120.113753 322.182437) scale(0.1 -0.1)">
       <defs>
        <path id="DejaVuSans-31" d="M 794 531 
L 1825 531 
L 1825 4091 
L 703 3866 
L 703 4441 
L 1819 4666 
L 2450 4666 
L 2450 531 
L 3481 531 
L 3481 0 
L 794 0 
L 794 531 
z
" transform="scale(0.015625)"/>
       </defs>
       <use xlink:href="#DejaVuSans-31"/>
       <use xlink:href="#DejaVuSans-30" x="63.623047"/>
       <use xlink:href="#DejaVuSans-30" x="127.246094"/>
       <use xlink:href="#DejaVuSans-30" x="190.869141"/>
       <use xlink:href="#DejaVuSans-30" x="254.492188"/>
       <use xlink:href="#DejaVuSans-30" x="318.115234"/>
      </g>
     </g>
    </g>
    <g id="xtick_3">
     <g id="line2d_3">
      <g>
       <use xlink:href="#m82e07c6540" x="204.575662" y="307.584" style="stroke: #000000; stroke-width: 0.8"/>
      </g>
     </g>
     <g id="text_3">
      <!-- 200000 -->
      <g transform="translate(185.488162 322.182437) scale(0.1 -0.1)">
       <defs>
        <path id="DejaVuSans-32" d="M 1228 531 
L 3431 531 
L 3431 0 
L 469 0 
L 469 531 
Q 828 903 1448 1529 
Q 2069 2156 2228 2338 
Q 2531 2678 2651 2914 
Q 2772 3150 2772 3378 
Q 2772 3750 2511 3984 
Q 2250 4219 1831 4219 
Q 1534 4219 1204 4116 
Q 875 4013 500 3803 
L 500 4441 
Q 881 4594 1212 4672 
Q 1544 4750 1819 4750 
Q 2544 4750 2975 4387 
Q 3406 4025 3406 3419 
Q 3406 3131 3298 2873 
Q 3191 2616 2906 2266 
Q 2828 2175 2409 1742 
Q 1991 1309 1228 531 
z
" transform="scale(0.015625)"/>
       </defs>
       <use xlink:href="#DejaVuSans-32"/>
       <use xlink:href="#DejaVuSans-30" x="63.623047"/>
       <use xlink:href="#DejaVuSans-30" x="127.246094"/>
       <use xlink:href="#DejaVuSans-30" x="190.869141"/>
       <use xlink:href="#DejaVuSans-30" x="254.492188"/>
       <use xlink:href="#DejaVuSans-30" x="318.115234"/>
      </g>
     </g>
    </g>
    <g id="xtick_4">
     <g id="line2d_4">
      <g>
       <use xlink:href="#m82e07c6540" x="269.950071" y="307.584" style="stroke: #000000; stroke-width: 0.8"/>
      </g>
     </g>
     <g id="text_4">
      <!-- 300000 -->
      <g transform="translate(250.862571 322.182437) scale(0.1 -0.1)">
       <defs>
        <path id="DejaVuSans-33" d="M 2597 2516 
Q 3050 2419 3304 2112 
Q 3559 1806 3559 1356 
Q 3559 666 3084 287 
Q 2609 -91 1734 -91 
Q 1441 -91 1130 -33 
Q 819 25 488 141 
L 488 750 
Q 750 597 1062 519 
Q 1375 441 1716 441 
Q 2309 441 2620 675 
Q 2931 909 2931 1356 
Q 2931 1769 2642 2001 
Q 2353 2234 1838 2234 
L 1294 2234 
L 1294 2753 
L 1863 2753 
Q 2328 2753 2575 2939 
Q 2822 3125 2822 3475 
Q 2822 3834 2567 4026 
Q 2313 4219 1838 4219 
Q 1578 4219 1281 4162 
Q 984 4106 628 3988 
L 628 4550 
Q 988 4650 1302 4700 
Q 1616 4750 1894 4750 
Q 2613 4750 3031 4423 
Q 3450 4097 3450 3541 
Q 3450 3153 3228 2886 
Q 3006 2619 2597 2516 
z
" transform="scale(0.015625)"/>
       </defs>
       <use xlink:href="#DejaVuSans-33"/>
       <use xlink:href="#DejaVuSans-30" x="63.623047"/>
       <use xlink:href="#DejaVuSans-30" x="127.246094"/>
       <use xlink:href="#DejaVuSans-30" x="190.869141"/>
       <use xlink:href="#DejaVuSans-30" x="254.492188"/>
       <use xlink:href="#DejaVuSans-30" x="318.115234"/>
      </g>
     </g>
    </g>
    <g id="xtick_5">
     <g id="line2d_5">
      <g>
       <use xlink:href="#m82e07c6540" x="335.32448" y="307.584" style="stroke: #000000; stroke-width: 0.8"/>
      </g>
     </g>
     <g id="text_5">
      <!-- 400000 -->
      <g transform="translate(316.23698 322.182437) scale(0.1 -0.1)">
       <defs>
        <path id="DejaVuSans-34" d="M 2419 4116 
L 825 1625 
L 2419 1625 
L 2419 4116 
z
M 2253 4666 
L 3047 4666 
L 3047 1625 
L 3713 1625 
L 3713 1100 
L 3047 1100 
L 3047 0 
L 2419 0 
L 2419 1100 
L 313 1100 
L 313 1709 
L 2253 4666 
z
" transform="scale(0.015625)"/>
       </defs>
       <use xlink:href="#DejaVuSans-34"/>
       <use xlink:href="#DejaVuSans-30" x="63.623047"/>
       <use xlink:href="#DejaVuSans-30" x="127.246094"/>
       <use xlink:href="#DejaVuSans-30" x="190.869141"/>
       <use xlink:href="#DejaVuSans-30" x="254.492188"/>
       <use xlink:href="#DejaVuSans-30" x="318.115234"/>
      </g>
     </g>
    </g>
    <g id="xtick_6">
     <g id="line2d_6">
      <g>
       <use xlink:href="#m82e07c6540" x="400.698889" y="307.584" style="stroke: #000000; stroke-width: 0.8"/>
      </g>
     </g>
     <g id="text_6">
      <!-- 500000 -->
      <g transform="translate(381.611389 322.182437) scale(0.1 -0.1)">
       <defs>
        <path id="DejaVuSans-35" d="M 691 4666 
L 3169 4666 
L 3169 4134 
L 1269 4134 
L 1269 2991 
Q 1406 3038 1543 3061 
Q 1681 3084 1819 3084 
Q 2600 3084 3056 2656 
Q 3513 2228 3513 1497 
Q 3513 744 3044 326 
Q 2575 -91 1722 -91 
Q 1428 -91 1123 -41 
Q 819 9 494 109 
L 494 744 
Q 775 591 1075 516 
Q 1375 441 1709 441 
Q 2250 441 2565 725 
Q 2881 1009 2881 1497 
Q 2881 1984 2565 2268 
Q 2250 2553 1709 2553 
Q 1456 2553 1204 2497 
Q 953 2441 691 2322 
L 691 4666 
z
" transform="scale(0.015625)"/>
       </defs>
       <use xlink:href="#DejaVuSans-35"/>
       <use xlink:href="#DejaVuSans-30" x="63.623047"/>
       <use xlink:href="#DejaVuSans-30" x="127.246094"/>
       <use xlink:href="#DejaVuSans-30" x="190.869141"/>
       <use xlink:href="#DejaVuSans-30" x="254.492188"/>
       <use xlink:href="#DejaVuSans-30" x="318.115234"/>
      </g>
     </g>
    </g>
    <g id="text_7">
     <!-- timesteps -->
     <g transform="translate(211.443594 335.860562) scale(0.1 -0.1)">
      <defs>
       <path id="DejaVuSans-74" d="M 1172 4494 
L 1172 3500 
L 2356 3500 
L 2356 3053 
L 1172 3053 
L 1172 1153 
Q 1172 725 1289 603 
Q 1406 481 1766 481 
L 2356 481 
L 2356 0 
L 1766 0 
Q 1100 0 847 248 
Q 594 497 594 1153 
L 594 3053 
L 172 3053 
L 172 3500 
L 594 3500 
L 594 4494 
L 1172 4494 
z
" transform="scale(0.015625)"/>
       <path id="DejaVuSans-69" d="M 603 3500 
L 1178 3500 
L 1178 0 
L 603 0 
L 603 3500 
z
M 603 4863 
L 1178 4863 
L 1178 4134 
L 603 4134 
L 603 4863 
z
" transform="scale(0.015625)"/>
       <path id="DejaVuSans-6d" d="M 3328 2828 
Q 3544 3216 3844 3400 
Q 4144 3584 4550 3584 
Q 5097 3584 5394 3201 
Q 5691 2819 5691 2113 
L 5691 0 
L 5113 0 
L 5113 2094 
Q 5113 2597 4934 2840 
Q 4756 3084 4391 3084 
Q 3944 3084 3684 2787 
Q 3425 2491 3425 1978 
L 3425 0 
L 2847 0 
L 2847 2094 
Q 2847 2600 2669 2842 
Q 2491 3084 2119 3084 
Q 1678 3084 1418 2786 
Q 1159 2488 1159 1978 
L 1159 0 
L 581 0 
L 581 3500 
L 1159 3500 
L 1159 2956 
Q 1356 3278 1631 3431 
Q 1906 3584 2284 3584 
Q 2666 3584 2933 3390 
Q 3200 3197 3328 2828 
z
" transform="scale(0.015625)"/>
       <path id="DejaVuSans-65" d="M 3597 1894 
L 3597 1613 
L 953 1613 
Q 991 1019 1311 708 
Q 1631 397 2203 397 
Q 2534 397 2845 478 
Q 3156 559 3463 722 
L 3463 178 
Q 3153 47 2828 -22 
Q 2503 -91 2169 -91 
Q 1331 -91 842 396 
Q 353 884 353 1716 
Q 353 2575 817 3079 
Q 1281 3584 2069 3584 
Q 2775 3584 3186 3129 
Q 3597 2675 3597 1894 
z
M 3022 2063 
Q 3016 2534 2758 2815 
Q 2500 3097 2075 3097 
Q 1594 3097 1305 2825 
Q 1016 2553 972 2059 
L 3022 2063 
z
" transform="scale(0.015625)"/>
       <path id="DejaVuSans-73" d="M 2834 3397 
L 2834 2853 
Q 2591 2978 2328 3040 
Q 2066 3103 1784 3103 
Q 1356 3103 1142 2972 
Q 928 2841 928 2578 
Q 928 2378 1081 2264 
Q 1234 2150 1697 2047 
L 1894 2003 
Q 2506 1872 2764 1633 
Q 3022 1394 3022 966 
Q 3022 478 2636 193 
Q 2250 -91 1575 -91 
Q 1294 -91 989 -36 
Q 684 19 347 128 
L 347 722 
Q 666 556 975 473 
Q 1284 391 1588 391 
Q 1994 391 2212 530 
Q 2431 669 2431 922 
Q 2431 1156 2273 1281 
Q 2116 1406 1581 1522 
L 1381 1569 
Q 847 1681 609 1914 
Q 372 2147 372 2553 
Q 372 3047 722 3315 
Q 1072 3584 1716 3584 
Q 2034 3584 2315 3537 
Q 2597 3491 2834 3397 
z
" transform="scale(0.015625)"/>
       <path id="DejaVuSans-70" d="M 1159 525 
L 1159 -1331 
L 581 -1331 
L 581 3500 
L 1159 3500 
L 1159 2969 
Q 1341 3281 1617 3432 
Q 1894 3584 2278 3584 
Q 2916 3584 3314 3078 
Q 3713 2572 3713 1747 
Q 3713 922 3314 415 
Q 2916 -91 2278 -91 
Q 1894 -91 1617 61 
Q 1341 213 1159 525 
z
M 3116 1747 
Q 3116 2381 2855 2742 
Q 2594 3103 2138 3103 
Q 1681 3103 1420 2742 
Q 1159 2381 1159 1747 
Q 1159 1113 1420 752 
Q 1681 391 2138 391 
Q 2594 391 2855 752 
Q 3116 1113 3116 1747 
z
" transform="scale(0.015625)"/>
      </defs>
      <use xlink:href="#DejaVuSans-74"/>
      <use xlink:href="#DejaVuSans-69" x="39.208984"/>
      <use xlink:href="#DejaVuSans-6d" x="66.992188"/>
      <use xlink:href="#DejaVuSans-65" x="164.404297"/>
      <use xlink:href="#DejaVuSans-73" x="225.927734"/>
      <use xlink:href="#DejaVuSans-74" x="278.027344"/>
      <use xlink:href="#DejaVuSans-65" x="317.236328"/>
      <use xlink:href="#DejaVuSans-70" x="378.759766"/>
      <use xlink:href="#DejaVuSans-73" x="442.236328"/>
     </g>
    </g>
   </g>
   <g id="matplotlib.axis_2">
    <g id="ytick_1">
     <g id="line2d_7">
      <defs>
       <path id="mc3befb53f0" d="M 0 0 
L -3.5 0 
" style="stroke: #000000; stroke-width: 0.8"/>
      </defs>
      <g>
       <use xlink:href="#mc3befb53f0" x="57.6" y="295.674217" style="stroke: #000000; stroke-width: 0.8"/>
      </g>
     </g>
     <g id="text_8">
      <!-- 0 -->
      <g transform="translate(44.2375 299.473436) scale(0.1 -0.1)">
       <use xlink:href="#DejaVuSans-30"/>
      </g>
     </g>
    </g>
    <g id="ytick_2">
     <g id="line2d_8">
      <g>
       <use xlink:href="#mc3befb53f0" x="57.6" y="265.782439" style="stroke: #000000; stroke-width: 0.8"/>
      </g>
     </g>
     <g id="text_9">
      <!-- 200 -->
      <g transform="translate(31.5125 269.581658) scale(0.1 -0.1)">
       <use xlink:href="#DejaVuSans-32"/>
       <use xlink:href="#DejaVuSans-30" x="63.623047"/>
       <use xlink:href="#DejaVuSans-30" x="127.246094"/>
      </g>
     </g>
    </g>
    <g id="ytick_3">
     <g id="line2d_9">
      <g>
       <use xlink:href="#mc3befb53f0" x="57.6" y="235.890661" style="stroke: #000000; stroke-width: 0.8"/>
      </g>
     </g>
     <g id="text_10">
      <!-- 400 -->
      <g transform="translate(31.5125 239.68988) scale(0.1 -0.1)">
       <use xlink:href="#DejaVuSans-34"/>
       <use xlink:href="#DejaVuSans-30" x="63.623047"/>
       <use xlink:href="#DejaVuSans-30" x="127.246094"/>
      </g>
     </g>
    </g>
    <g id="ytick_4">
     <g id="line2d_10">
      <g>
       <use xlink:href="#mc3befb53f0" x="57.6" y="205.998883" style="stroke: #000000; stroke-width: 0.8"/>
      </g>
     </g>
     <g id="text_11">
      <!-- 600 -->
      <g transform="translate(31.5125 209.798101) scale(0.1 -0.1)">
       <defs>
        <path id="DejaVuSans-36" d="M 2113 2584 
Q 1688 2584 1439 2293 
Q 1191 2003 1191 1497 
Q 1191 994 1439 701 
Q 1688 409 2113 409 
Q 2538 409 2786 701 
Q 3034 994 3034 1497 
Q 3034 2003 2786 2293 
Q 2538 2584 2113 2584 
z
M 3366 4563 
L 3366 3988 
Q 3128 4100 2886 4159 
Q 2644 4219 2406 4219 
Q 1781 4219 1451 3797 
Q 1122 3375 1075 2522 
Q 1259 2794 1537 2939 
Q 1816 3084 2150 3084 
Q 2853 3084 3261 2657 
Q 3669 2231 3669 1497 
Q 3669 778 3244 343 
Q 2819 -91 2113 -91 
Q 1303 -91 875 529 
Q 447 1150 447 2328 
Q 447 3434 972 4092 
Q 1497 4750 2381 4750 
Q 2619 4750 2861 4703 
Q 3103 4656 3366 4563 
z
" transform="scale(0.015625)"/>
       </defs>
       <use xlink:href="#DejaVuSans-36"/>
       <use xlink:href="#DejaVuSans-30" x="63.623047"/>
       <use xlink:href="#DejaVuSans-30" x="127.246094"/>
      </g>
     </g>
    </g>
    <g id="ytick_5">
     <g id="line2d_11">
      <g>
       <use xlink:href="#mc3befb53f0" x="57.6" y="176.107104" style="stroke: #000000; stroke-width: 0.8"/>
      </g>
     </g>
     <g id="text_12">
      <!-- 800 -->
      <g transform="translate(31.5125 179.906323) scale(0.1 -0.1)">
       <defs>
        <path id="DejaVuSans-38" d="M 2034 2216 
Q 1584 2216 1326 1975 
Q 1069 1734 1069 1313 
Q 1069 891 1326 650 
Q 1584 409 2034 409 
Q 2484 409 2743 651 
Q 3003 894 3003 1313 
Q 3003 1734 2745 1975 
Q 2488 2216 2034 2216 
z
M 1403 2484 
Q 997 2584 770 2862 
Q 544 3141 544 3541 
Q 544 4100 942 4425 
Q 1341 4750 2034 4750 
Q 2731 4750 3128 4425 
Q 3525 4100 3525 3541 
Q 3525 3141 3298 2862 
Q 3072 2584 2669 2484 
Q 3125 2378 3379 2068 
Q 3634 1759 3634 1313 
Q 3634 634 3220 271 
Q 2806 -91 2034 -91 
Q 1263 -91 848 271 
Q 434 634 434 1313 
Q 434 1759 690 2068 
Q 947 2378 1403 2484 
z
M 1172 3481 
Q 1172 3119 1398 2916 
Q 1625 2713 2034 2713 
Q 2441 2713 2670 2916 
Q 2900 3119 2900 3481 
Q 2900 3844 2670 4047 
Q 2441 4250 2034 4250 
Q 1625 4250 1398 4047 
Q 1172 3844 1172 3481 
z
" transform="scale(0.015625)"/>
       </defs>
       <use xlink:href="#DejaVuSans-38"/>
       <use xlink:href="#DejaVuSans-30" x="63.623047"/>
       <use xlink:href="#DejaVuSans-30" x="127.246094"/>
      </g>
     </g>
    </g>
    <g id="ytick_6">
     <g id="line2d_12">
      <g>
       <use xlink:href="#mc3befb53f0" x="57.6" y="146.215326" style="stroke: #000000; stroke-width: 0.8"/>
      </g>
     </g>
     <g id="text_13">
      <!-- 1000 -->
      <g transform="translate(25.15 150.014545) scale(0.1 -0.1)">
       <use xlink:href="#DejaVuSans-31"/>
       <use xlink:href="#DejaVuSans-30" x="63.623047"/>
       <use xlink:href="#DejaVuSans-30" x="127.246094"/>
       <use xlink:href="#DejaVuSans-30" x="190.869141"/>
      </g>
     </g>
    </g>
    <g id="ytick_7">
     <g id="line2d_13">
      <g>
       <use xlink:href="#mc3befb53f0" x="57.6" y="116.323548" style="stroke: #000000; stroke-width: 0.8"/>
      </g>
     </g>
     <g id="text_14">
      <!-- 1200 -->
      <g transform="translate(25.15 120.122767) scale(0.1 -0.1)">
       <use xlink:href="#DejaVuSans-31"/>
       <use xlink:href="#DejaVuSans-32" x="63.623047"/>
       <use xlink:href="#DejaVuSans-30" x="127.246094"/>
       <use xlink:href="#DejaVuSans-30" x="190.869141"/>
      </g>
     </g>
    </g>
    <g id="ytick_8">
     <g id="line2d_14">
      <g>
       <use xlink:href="#mc3befb53f0" x="57.6" y="86.43177" style="stroke: #000000; stroke-width: 0.8"/>
      </g>
     </g>
     <g id="text_15">
      <!-- 1400 -->
      <g transform="translate(25.15 90.230988) scale(0.1 -0.1)">
       <use xlink:href="#DejaVuSans-31"/>
       <use xlink:href="#DejaVuSans-34" x="63.623047"/>
       <use xlink:href="#DejaVuSans-30" x="127.246094"/>
       <use xlink:href="#DejaVuSans-30" x="190.869141"/>
      </g>
     </g>
    </g>
    <g id="ytick_9">
     <g id="line2d_15">
      <g>
       <use xlink:href="#mc3befb53f0" x="57.6" y="56.539991" style="stroke: #000000; stroke-width: 0.8"/>
      </g>
     </g>
     <g id="text_16">
      <!-- 1600 -->
      <g transform="translate(25.15 60.33921) scale(0.1 -0.1)">
       <use xlink:href="#DejaVuSans-31"/>
       <use xlink:href="#DejaVuSans-36" x="63.623047"/>
       <use xlink:href="#DejaVuSans-30" x="127.246094"/>
       <use xlink:href="#DejaVuSans-30" x="190.869141"/>
      </g>
     </g>
    </g>
    <g id="text_17">
     <!-- rewards -->
     <g transform="translate(19.070312 194.447531) rotate(-90) scale(0.1 -0.1)">
      <defs>
       <path id="DejaVuSans-72" d="M 2631 2963 
Q 2534 3019 2420 3045 
Q 2306 3072 2169 3072 
Q 1681 3072 1420 2755 
Q 1159 2438 1159 1844 
L 1159 0 
L 581 0 
L 581 3500 
L 1159 3500 
L 1159 2956 
Q 1341 3275 1631 3429 
Q 1922 3584 2338 3584 
Q 2397 3584 2469 3576 
Q 2541 3569 2628 3553 
L 2631 2963 
z
" transform="scale(0.015625)"/>
       <path id="DejaVuSans-77" d="M 269 3500 
L 844 3500 
L 1563 769 
L 2278 3500 
L 2956 3500 
L 3675 769 
L 4391 3500 
L 4966 3500 
L 4050 0 
L 3372 0 
L 2619 2869 
L 1863 0 
L 1184 0 
L 269 3500 
z
" transform="scale(0.015625)"/>
       <path id="DejaVuSans-61" d="M 2194 1759 
Q 1497 1759 1228 1600 
Q 959 1441 959 1056 
Q 959 750 1161 570 
Q 1363 391 1709 391 
Q 2188 391 2477 730 
Q 2766 1069 2766 1631 
L 2766 1759 
L 2194 1759 
z
M 3341 1997 
L 3341 0 
L 2766 0 
L 2766 531 
Q 2569 213 2275 61 
Q 1981 -91 1556 -91 
Q 1019 -91 701 211 
Q 384 513 384 1019 
Q 384 1609 779 1909 
Q 1175 2209 1959 2209 
L 2766 2209 
L 2766 2266 
Q 2766 2663 2505 2880 
Q 2244 3097 1772 3097 
Q 1472 3097 1187 3025 
Q 903 2953 641 2809 
L 641 3341 
Q 956 3463 1253 3523 
Q 1550 3584 1831 3584 
Q 2591 3584 2966 3190 
Q 3341 2797 3341 1997 
z
" transform="scale(0.015625)"/>
       <path id="DejaVuSans-64" d="M 2906 2969 
L 2906 4863 
L 3481 4863 
L 3481 0 
L 2906 0 
L 2906 525 
Q 2725 213 2448 61 
Q 2172 -91 1784 -91 
Q 1150 -91 751 415 
Q 353 922 353 1747 
Q 353 2572 751 3078 
Q 1150 3584 1784 3584 
Q 2172 3584 2448 3432 
Q 2725 3281 2906 2969 
z
M 947 1747 
Q 947 1113 1208 752 
Q 1469 391 1925 391 
Q 2381 391 2643 752 
Q 2906 1113 2906 1747 
Q 2906 2381 2643 2742 
Q 2381 3103 1925 3103 
Q 1469 3103 1208 2742 
Q 947 2381 947 1747 
z
" transform="scale(0.015625)"/>
      </defs>
      <use xlink:href="#DejaVuSans-72"/>
      <use xlink:href="#DejaVuSans-65" x="38.863281"/>
      <use xlink:href="#DejaVuSans-77" x="100.386719"/>
      <use xlink:href="#DejaVuSans-61" x="182.173828"/>
      <use xlink:href="#DejaVuSans-72" x="243.453125"/>
      <use xlink:href="#DejaVuSans-64" x="282.816406"/>
      <use xlink:href="#DejaVuSans-73" x="346.292969"/>
     </g>
    </g>
   </g>
   <g id="line2d_16">
    <path d="M 73.832727 294.809056 
L 73.945825 292.845267 
L 73.951709 295.012706 
L 74.04977 290.966139 
L 74.059576 294.316448 
L 74.130835 294.862335 
L 74.101416 291.999232 
L 74.141948 294.303991 
L 74.183788 288.547733 
L 74.194901 294.49347 
L 74.24524 294.275757 
L 74.254392 294.307912 
L 74.264852 294.069295 
L 74.274005 294.076975 
L 74.326958 290.99996 
L 74.332842 294.947887 
L 74.391025 293.809621 
L 74.420443 294.231559 
L 74.438748 292.272975 
L 74.448554 294.538232 
L 74.503469 293.946717 
L 74.548577 284.069167 
L 74.572112 294.37325 
L 74.608722 294.171625 
L 74.692401 287.264451 
L 74.668866 294.723661 
L 74.717243 292.710324 
L 74.756468 295.042256 
L 74.779349 289.917671 
L 74.818573 294.85152 
L 74.8931 290.147012 
L 74.859759 295.488 
L 74.930364 293.133564 
L 74.980702 289.786293 
L 75.012735 294.576994 
L 75.031694 290.328548 
L 75.112104 295.059661 
L 75.121911 294.091806 
L 75.189246 294.897474 
L 75.155252 292.317405 
L 75.233047 294.122008 
L 75.278155 290.899728 
L 75.260504 294.501658 
L 75.334377 293.12436 
L 75.410866 294.784007 
L 75.403674 293.007891 
L 75.440938 293.747844 
L 75.452051 293.585444 
L 75.489315 287.176474 
L 75.548806 294.392744 
L 75.557304 294.023135 
L 75.621371 294.835333 
L 75.65602 291.705916 
L 75.680208 294.885335 
L 75.699167 294.285064 
L 75.749505 273.097025 
L 75.803112 290.241198 
L 75.884176 294.873827 
L 75.909019 294.464674 
L 75.952166 277.470033 
L 75.998581 294.704163 
L 76.016886 290.538821 
L 76.029961 294.390747 
L 76.137829 294.190594 
L 76.162017 294.503135 
L 76.173785 293.4071 
L 76.210395 294.256579 
L 76.230007 291.826806 
L 76.25681 294.606322 
L 76.320877 294.214392 
L 76.391482 292.746399 
L 76.378407 294.858833 
L 76.425476 294.233046 
L 76.471238 294.632882 
L 76.579106 272.286584 
L 76.591527 294.676813 
L 76.685666 293.984528 
L 76.709201 288.802117 
L 76.747772 294.56606 
L 76.797457 292.528039 
L 76.809878 292.669157 
L 76.894211 294.172789 
L 76.93605 284.309134 
L 77.034766 294.573281 
L 77.053724 294.196275 
L 77.146556 290.470212 
L 77.155055 294.437673 
L 77.169437 292.152653 
L 77.224352 294.41233 
L 77.267499 293.734684 
L 77.299532 290.31228 
L 77.323067 294.694316 
L 77.363599 294.323816 
L 77.370137 295.064387 
L 77.428974 292.560638 
L 77.464276 293.581543 
L 77.553839 294.649408 
L 77.486503 293.195878 
L 77.575412 294.523787 
L 77.591102 294.257696 
L 77.608099 291.773007 
L 77.698316 294.700927 
L 77.728388 291.022291 
L 77.776112 294.827177 
L 77.809453 291.924447 
L 77.870905 264.025136 
L 77.880057 294.47906 
L 77.905553 292.605608 
L 78.034994 295.166122 
L 78.049377 294.884037 
L 78.140901 292.27901 
L 78.087948 295.208555 
L 78.179472 293.27575 
L 78.286032 294.879437 
L 78.242231 292.556102 
L 78.304337 294.204606 
L 78.329179 285.928534 
L 78.340293 294.735186 
L 78.406321 290.72721 
L 78.499806 294.845013 
L 78.533801 293.864097 
L 78.608982 294.854672 
L 78.656051 292.616355 
L 78.683508 292.7739 
L 78.711619 290.18213 
L 78.772418 294.602343 
L 78.784185 293.102486 
L 78.793337 294.713241 
L 78.863942 291.241544 
L 78.878324 293.996054 
L 78.902513 292.130427 
L 78.962657 263.665375 
L 78.969195 294.528741 
L 79.002536 292.685326 
L 79.01038 294.766282 
L 79.042414 291.959958 
L 79.099943 293.502486 
L 79.229385 284.369148 
L 79.239845 294.906786 
L 79.348366 294.477929 
L 79.371901 294.786369 
L 79.466694 290.841877 
L 79.494151 293.787549 
L 79.541221 282.756013 
L 79.585675 295.035967 
L 79.595481 293.994205 
L 79.646473 293.480041 
L 79.711848 294.610484 
L 79.767416 270.12548 
L 79.826253 292.495126 
L 79.847173 294.07382 
L 79.8694 293.714988 
L 79.90078 289.813465 
L 79.960271 294.549696 
L 79.968769 294.525225 
L 79.990343 293.283931 
L 79.999495 294.868339 
L 80.093634 291.977179 
L 80.104094 293.638649 
L 80.132859 291.756311 
L 80.212616 294.603283 
L 80.272107 288.452437 
L 80.295641 294.724335 
L 80.313946 291.645198 
L 80.349902 294.761336 
L 80.418545 293.037055 
L 80.455809 290.94456 
L 80.476075 293.024337 
L 80.563676 295.064641 
L 80.585904 294.334077 
L 80.604209 294.760545 
L 80.665007 290.119478 
L 80.708154 292.511089 
L 80.715345 295.056832 
L 80.818637 294.603303 
L 80.898393 284.580767 
L 80.912122 293.356404 
L 80.936964 293.419929 
L 81.031757 283.906598 
L 80.981419 294.803759 
L 81.04614 292.03179 
L 81.067713 294.623228 
L 81.103015 288.984732 
L 81.125896 288.586453 
L 81.13178 294.851176 
L 81.229842 291.966104 
L 81.25926 293.782696 
L 81.272989 292.523752 
L 81.278872 294.948006 
L 81.297831 290.656128 
L 81.356668 292.661223 
L 81.398508 281.262605 
L 81.424004 294.801102 
L 81.461921 293.98165 
L 81.528603 289.412346 
L 81.490686 294.364185 
L 81.569135 294.312693 
L 81.580248 294.56986 
L 81.635163 278.82769 
L 81.701191 289.606613 
L 81.759374 294.581925 
L 81.806444 293.594322 
L 81.824749 293.043644 
L 81.860705 281.078296 
L 81.870511 294.621931 
L 81.921503 294.121923 
L 81.988839 292.907933 
L 81.956151 295.175788 
L 82.007797 293.764647 
L 82.0869 262.572362 
L 82.095399 295.031639 
L 82.115665 293.597432 
L 82.211112 290.542462 
L 82.169926 294.943993 
L 82.233339 292.08964 
L 82.328132 291.32093 
L 82.349705 294.210431 
L 82.380431 294.728519 
L 82.468687 285.228726 
L 82.575247 294.891961 
L 82.589629 294.043759 
L 82.598128 294.271962 
L 82.615125 294.070489 
L 82.640621 294.567665 
L 82.762872 263.221877 
L 82.868124 294.300324 
L 82.878584 294.041484 
L 82.894928 290.925168 
L 82.944612 294.755258 
L 82.984491 294.454304 
L 83.051173 287.794477 
L 83.091705 294.460174 
L 83.129622 292.405766 
L 83.157733 292.98968 
L 83.266908 282.468545 
L 83.372815 294.81756 
L 83.342089 277.264309 
L 83.381967 294.232573 
L 83.531021 288.957567 
L 83.53952 294.691345 
L 83.597703 284.005224 
L 83.645426 291.748263 
L 83.668961 295.069798 
L 83.710147 289.722805 
L 83.738911 293.257814 
L 83.838934 294.204184 
L 83.880774 281.680486 
L 83.964453 294.271879 
L 84.017406 292.769313 
L 84.027866 293.387561 
L 84.055324 284.474128 
L 84.131158 294.596802 
L 84.14554 291.080069 
L 84.217452 282.056552 
L 84.18215 294.675253 
L 84.243602 285.174365 
L 84.29394 294.732271 
L 84.358661 293.835065 
L 84.436456 294.695651 
L 84.473066 281.38552 
L 84.48418 294.787257 
L 84.524058 280.791454 
L 84.586818 282.2084 
L 84.6012 294.240434 
L 84.690763 291.67786 
L 84.755484 284.621651 
L 84.72868 294.687393 
L 84.784902 288.514455 
L 84.801246 292.291179 
L 84.932648 270.625448 
L 85.003906 294.624453 
L 85.049668 278.179167 
L 85.120926 283.041875 
L 85.218988 294.983934 
L 85.255598 294.230262 
L 85.354967 279.532908 
L 85.367388 293.019888 
L 85.380463 292.637269 
L 85.445837 265.976019 
L 85.477871 284.257967 
L 85.490292 293.900783 
L 85.546514 281.184506 
L 85.570702 291.941928 
L 85.624963 286.321039 
L 85.636077 292.995946 
L 85.651767 292.663864 
L 85.668764 293.931569 
L 85.684454 292.798694 
L 85.730216 295.359052 
L 85.819779 280.429095 
L 85.852466 281.96598 
L 85.92307 294.862456 
L 85.987791 293.356718 
L 86.106119 278.646286 
L 86.193067 285.027591 
L 86.279361 294.639987 
L 86.370885 268.021129 
L 86.402265 289.891942 
L 86.496404 277.179603 
L 86.525169 294.862188 
L 86.578122 288.033225 
L 86.634344 271.224915 
L 86.661801 286.769498 
L 86.669646 294.33846 
L 86.697757 283.882525 
L 86.721292 285.936992 
L 86.770977 278.28828 
L 86.81347 294.688142 
L 86.895842 291.263357 
L 86.959909 275.061812 
L 87.025283 279.777878 
L 87.033782 294.621943 
L 87.123345 293.840624 
L 87.165184 277.484404 
L 87.183489 295.127261 
L 87.259323 282.637493 
L 87.309008 271.751127 
L 87.327313 293.882098 
L 87.392033 269.464572 
L 87.53978 293.302512 
L 87.645686 270.256105 
L 87.705831 278.087634 
L 87.760091 276.994637 
L 87.796047 283.825518 
L 87.865344 274.055699 
L 87.882995 294.72003 
L 87.966675 268.455849 
L 88.102653 293.409885 
L 88.286355 271.52205 
L 88.45306 288.20404 
L 88.528241 281.492732 
L 88.573349 286.670874 
L 88.662258 285.267146 
L 88.828309 273.741674 
L 88.846614 294.123455 
L 88.90349 269.981681 
L 88.945983 290.530294 
L 89.054505 276.663193 
L 89.002859 291.533465 
L 89.083923 283.564066 
L 89.113995 284.661685 
L 89.146029 281.870009 
L 89.164987 295.26218 
L 89.225786 281.630892 
L 89.267625 293.34031 
L 89.462441 267.558616 
L 89.490552 283.905416 
L 89.544813 281.3874 
L 89.599727 277.322104 
L 89.654642 287.802609 
L 89.679484 285.789849 
L 89.735052 269.695623 
L 89.772969 283.822309 
L 89.851419 278.328463 
L 89.935098 281.294087 
L 89.954057 294.222482 
L 89.990012 281.721037 
L 90.067154 275.331098 
L 90.091997 285.817277 
L 90.182213 278.971432 
L 90.229283 280.925807 
L 90.285505 277.509745 
L 90.310347 285.59776 
L 90.386181 283.113587 
L 90.447633 286.811567 
L 90.514315 265.338975 
L 90.680366 288.810681 
L 90.786273 278.165017 
L 90.835957 279.610599 
L 90.973897 285.982082 
L 91.003316 286.181605 
L 91.024236 287.418727 
L 91.055615 283.133665 
L 91.107261 282.162585 
L 91.150408 277.760539 
L 91.267428 287.898961 
L 91.329534 271.58324 
L 91.356338 284.364024 
L 91.421058 279.487176 
L 91.439363 288.362016 
L 91.520427 283.721625 
L 91.552461 284.069009 
L 91.619796 279.1212 
L 91.657714 282.365449 
L 91.676018 288.201805 
L 91.761659 282.38565 
L 91.788462 284.16632 
L 91.827687 278.444577 
L 91.857759 284.961252 
L 91.900906 284.397593 
L 92.063689 260.062727 
L 92.120564 276.529761 
L 92.218626 259.157929 
L 92.240853 286.711701 
L 92.323879 275.093417 
L 92.416057 285.763593 
L 92.5808 273.8118 
L 92.623947 281.067419 
L 92.691283 264.491272 
L 92.733123 276.436639 
L 92.825954 284.671155 
L 92.886753 277.529061 
L 92.909634 286.627435 
L 92.990698 277.942975 
L 93.009003 288.02663 
L 93.071108 266.686583 
L 93.11687 286.706772 
L 93.28096 267.88649 
L 93.337836 265.906713 
L 93.398634 265.924656 
L 93.441128 287.659622 
L 93.49735 268.887356 
L 93.539843 276.082149 
L 93.607179 262.721693 
L 93.683013 282.197417 
L 93.739235 269.214461 
L 93.786958 271.745599 
L 93.836643 274.282167 
L 93.894172 265.077172 
L 93.993541 284.826988 
L 94.071337 286.212788 
L 94.134096 264.647103 
L 94.155016 287.128498 
L 94.192279 278.881815 
L 94.264191 264.649262 
L 94.301455 278.800978 
L 94.345256 287.172257 
L 94.408015 281.011287 
L 94.475351 262.642973 
L 94.538764 263.397292 
L 94.653169 286.530684 
L 94.679973 284.525813 
L 94.734233 268.618227 
L 94.785879 270.447289 
L 94.815298 286.086821 
L 94.861713 274.903554 
L 94.99377 262.921574 
L 95.050645 268.469329 
L 95.110136 265.929152 
L 95.179433 265.329119 
L 95.204275 284.709578 
L 95.271611 261.798202 
L 95.327833 265.321352 
L 95.458582 256.918203 
L 95.597176 282.180254 
L 95.656666 266.464075 
L 95.718118 267.418154 
L 95.744268 284.876753 
L 95.782185 279.443236 
L 95.841022 265.213412 
L 95.872402 282.858945 
L 95.934507 265.507891 
L 95.990729 266.220921 
L 96.05022 264.338818 
L 96.109057 265.715146 
L 96.290144 266.950844 
L 96.34179 273.700964 
L 96.398012 267.71832 
L 96.469924 261.343499 
L 96.5268 265.474328 
L 96.581714 268.364488 
L 96.640551 265.699633 
L 96.705926 264.972025 
L 96.772607 266.312654 
L 96.832098 264.877811 
L 96.948465 266.288199 
L 97.009917 263.242191 
L 97.122361 267.451756 
L 97.181197 264.3401 
L 97.237419 268.692885 
L 97.297564 263.921315 
L 97.351825 268.806605 
L 97.407393 268.509837 
L 97.462961 268.278346 
L 97.579981 264.327254 
L 97.64078 264.790233 
L 97.700924 267.633431 
L 97.757146 267.359808 
L 97.877435 264.597592 
L 97.936272 267.25938 
L 97.993148 266.642625 
L 98.050677 266.515762 
L 98.116052 263.659575 
L 98.286679 268.254537 
L 98.343554 265.53088 
L 98.397161 271.324085 
L 98.455345 267.477114 
L 98.512874 267.637818 
L 98.568442 267.335334 
L 98.624664 267.351872 
L 98.67631 270.112082 
L 98.732532 269.23104 
L 98.841707 269.191446 
L 99.00972 267.038827 
L 99.066595 267.75915 
L 99.120856 269.863837 
L 99.177078 268.961405 
L 99.29083 268.096756 
L 99.345744 268.408009 
L 99.464726 262.523563 
L 99.515718 272.666718 
L 99.570632 268.654202 
L 99.630777 265.111558 
L 99.68896 266.769866 
L 99.743221 267.825262 
L 99.802711 263.387587 
L 99.863509 265.217011 
L 99.984452 262.62749 
L 100.041982 268.441545 
L 100.10278 264.27866 
L 100.163578 262.975451 
L 100.2721 271.997394 
L 100.323745 271.412186 
L 100.50091 264.817717 
L 100.668922 268.866602 
L 100.721222 270.894876 
L 100.835627 265.469102 
L 100.893156 265.865375 
L 101.053977 271.188794 
L 101.109546 268.835644 
L 101.213491 268.997287 
L 101.264483 271.830472 
L 101.325281 266.750001 
L 101.382157 269.036227 
L 101.436418 270.180975 
L 101.493293 268.597015 
L 101.550169 268.868793 
L 101.605084 269.813589 
L 101.658691 268.860606 
L 101.714259 266.1322 
L 101.769174 267.015644 
L 101.879656 268.88358 
L 101.938493 265.236395 
L 101.994061 266.454098 
L 102.04963 268.435772 
L 102.102583 268.004377 
L 102.158151 268.314592 
L 102.324856 265.941811 
L 102.385654 265.658897 
L 102.498752 269.078286 
L 102.735407 263.470784 
L 102.843929 268.654478 
L 102.898843 266.749613 
L 102.955065 268.969713 
L 103.00998 268.715941 
L 103.064241 268.173781 
L 103.117848 270.050399 
L 103.17407 267.245252 
L 103.232253 268.076137 
L 103.28586 267.997196 
L 103.454526 268.612357 
L 103.511402 268.817574 
L 103.570238 266.996561 
L 103.625153 269.586674 
L 103.682682 267.411868 
L 103.793819 268.192705 
L 103.910839 266.47348 
L 104.075583 269.724399 
L 104.133112 267.637463 
L 104.189334 269.391686 
L 104.354731 268.549639 
L 104.462599 268.058932 
L 104.518167 269.533711 
L 104.573082 267.327634 
L 104.62865 268.586627 
L 104.682911 268.224441 
L 104.741748 266.713787 
L 104.790779 273.102048 
L 104.847001 268.864926 
L 104.902569 269.486778 
L 104.960752 268.374409 
L 105.015667 269.162901 
L 105.183679 268.148024 
L 105.238593 267.89122 
L 105.292854 268.764441 
L 105.346461 268.400628 
L 105.402683 266.678314 
L 105.45629 267.937097 
L 105.570042 267.102552 
L 105.681178 268.352322 
L 105.7374 266.076719 
L 105.792315 266.989008 
L 105.958366 268.53928 
L 106.015241 267.96072 
L 106.123763 267.987704 
L 106.178677 268.416689 
L 106.237514 268.2889 
L 106.293736 265.990051 
L 106.35192 267.832395 
L 106.521893 268.98024 
L 106.632376 268.432899 
L 106.68729 269.029548 
L 106.741551 267.454301 
L 106.798427 268.966326 
L 106.853995 269.107268 
L 106.910871 268.842804 
L 106.965785 267.002235 
L 107.022007 268.957117 
L 107.075614 268.438181 
L 107.129221 268.014696 
L 107.184136 269.425047 
L 107.238397 268.036499 
L 107.29658 267.903285 
L 107.353456 265.567586 
L 107.464592 268.938328 
L 107.518853 267.095907 
L 107.575075 269.044293 
L 107.683596 269.031128 
L 107.739165 269.653419 
L 107.794733 269.194628 
L 107.84834 268.562985 
L 107.903254 268.8262 
L 108.013737 268.97752 
L 108.124874 268.576639 
L 108.179134 267.776099 
L 108.28831 270.895117 
L 108.401407 268.024017 
L 108.511236 270.806191 
L 108.62368 266.731369 
L 108.679902 267.888088 
L 108.736778 267.804722 
L 108.902829 269.833417 
L 108.961666 264.722585 
L 109.017888 269.211889 
L 109.073456 268.035593 
L 109.128371 269.846829 
L 109.182631 268.668344 
L 109.24343 264.869633 
L 109.35522 269.587853 
L 109.411442 268.842736 
L 109.466356 270.02678 
L 109.522578 268.988153 
L 109.579454 267.394343 
L 109.63633 268.912644 
L 109.746159 270.097745 
L 109.802381 269.360753 
L 109.91221 268.515347 
L 109.967778 269.742097 
L 110.024 268.953238 
L 110.136444 268.658805 
L 110.248234 269.433608 
L 110.306418 268.51873 
L 110.361332 269.834264 
L 110.418208 268.817786 
L 110.475084 268.73568 
L 110.592104 267.024654 
L 110.758155 270.791254 
L 110.869291 268.271 
L 110.923552 268.409313 
L 110.97912 268.528012 
L 111.035996 266.105363 
L 111.091564 268.139097 
L 111.146479 267.213293 
L 111.204008 268.454097 
L 111.260884 267.981163 
L 111.318413 268.220095 
L 111.37725 267.328941 
L 111.543301 272.636759 
L 111.650515 271.127399 
L 111.707391 267.942244 
L 111.764267 268.97625 
L 111.875403 268.178717 
L 111.927049 271.470262 
L 111.981964 268.222064 
L 112.039493 265.910062 
L 112.09833 267.490351 
L 112.15586 268.162664 
L 112.210774 267.196628 
L 112.266996 269.238165 
L 112.323872 268.773542 
L 112.37944 267.91912 
L 112.436316 268.959494 
L 112.493192 268.910744 
L 112.665126 267.897303 
L 112.722002 267.282371 
L 112.832485 270.041371 
L 113.004419 267.189634 
L 113.117517 268.367297 
L 113.173739 266.46253 
L 113.231269 268.215013 
L 113.286837 267.121779 
L 113.341098 267.638152 
L 113.506495 269.424607 
L 113.562717 266.48843 
L 113.618939 267.408668 
L 113.732037 269.148497 
L 113.79022 267.160884 
L 113.846442 267.863603 
L 113.90201 267.280557 
L 113.957578 267.945096 
L 114.018377 265.608258 
L 114.075252 265.830677 
L 114.133435 267.335434 
L 114.183774 272.388689 
L 114.238688 268.013786 
L 114.29491 265.76613 
L 114.350479 269.78754 
L 114.405393 268.519687 
L 114.460308 268.246419 
L 114.513915 270.323831 
L 114.570137 268.73154 
L 114.682581 269.451784 
L 114.793717 268.067749 
L 114.849939 269.442172 
L 115.023181 266.542621 
L 115.079403 268.79018 
L 115.139548 266.910255 
L 115.310175 269.303872 
L 115.478187 267.072319 
L 115.534409 268.969347 
L 115.591285 268.608417 
L 115.644892 268.504968 
L 115.703075 265.429822 
L 115.757336 267.861098 
L 115.865204 269.345837 
L 115.919464 267.457539 
L 115.976994 268.148755 
L 116.031908 269.789075 
L 116.089438 267.102696 
L 116.146314 268.762223 
L 116.31498 266.428079 
L 116.373163 267.801983 
L 116.430038 267.371626 
L 116.487568 266.981154 
L 116.54379 269.232309 
L 116.601973 264.505264 
L 116.658849 266.425718 
L 116.881776 269.078791 
L 116.937344 267.55082 
L 116.992912 268.313917 
L 117.049134 269.346324 
L 117.105356 268.831169 
L 117.272715 265.993007 
L 117.384505 268.708892 
L 117.495641 268.559948 
L 117.607432 268.99768 
L 117.661039 268.794226 
L 117.715299 267.255326 
L 117.770214 268.99021 
L 117.826436 268.715352 
L 117.880697 267.418729 
L 117.934957 268.627955 
L 117.991833 268.09393 
L 118.048055 268.787922 
L 118.161153 267.633114 
L 118.217375 269.093562 
L 118.273597 267.82167 
L 118.331126 268.649338 
L 118.388656 268.586578 
L 118.447493 267.477566 
L 118.503715 269.479238 
L 118.559283 268.451876 
L 118.616812 267.898047 
L 118.673034 269.437142 
L 118.730564 268.667274 
L 118.78744 267.521262 
L 118.844315 268.343586 
L 118.900537 267.83641 
L 118.958721 268.382543 
L 119.016904 267.066621 
L 119.070511 270.504178 
L 119.124772 269.987272 
L 119.239177 268.567868 
L 119.294745 269.631002 
L 119.34966 268.650535 
L 119.406535 268.489289 
L 119.63077 269.721566 
L 119.856965 265.696568 
L 119.915148 265.884286 
L 120.087083 269.578887 
L 120.148535 266.14891 
L 120.204757 269.134242 
L 120.263594 267.507488 
L 120.319816 269.418269 
L 120.376038 269.297387 
L 120.433567 264.479743 
L 120.489136 266.551584 
L 120.546011 265.133963 
L 120.657148 270.005481 
L 120.829736 265.701404 
L 120.887266 268.054733 
L 120.950025 263.804901 
L 121.006901 267.370694 
L 121.063777 266.691259 
L 121.121306 267.212421 
L 121.235058 268.839171 
L 121.34554 266.22331 
L 121.402416 267.567325 
L 121.459946 268.356544 
L 121.517475 267.630354 
L 121.573697 265.595837 
L 121.633841 267.071466 
L 121.690717 267.767798 
L 121.746939 267.4142 
L 121.861998 264.445201 
L 121.921489 266.604868 
L 122.115651 254.258771 
L 122.224172 272.67823 
L 122.275164 271.64026 
L 122.387608 266.820255 
L 122.447099 267.593784 
L 122.50659 264.58398 
L 122.562812 266.955834 
L 122.738669 264.9197 
L 122.79816 264.542744 
L 122.855689 267.486505 
L 122.91518 265.771005 
L 123.03743 263.057465 
L 123.100189 259.974885 
L 123.15445 270.032668 
L 123.215248 263.38828 
L 123.329 268.50256 
L 123.388491 263.956939 
L 123.445366 264.755179 
L 123.504203 264.231455 
L 123.564348 265.234978 
L 123.751319 259.02962 
L 123.814078 260.596825 
L 123.872261 268.155076 
L 123.933059 266.402878 
L 123.989935 268.77897 
L 124.048118 268.366429 
L 124.287389 264.857203 
L 124.342303 269.154945 
L 124.397871 269.153703 
L 124.456708 263.701238 
L 124.518814 264.304733 
L 124.575036 268.911677 
L 124.634527 266.292213 
L 124.696633 265.164294 
L 124.812345 267.959278 
L 125.05946 264.053004 
L 125.121566 264.653943 
L 125.185633 262.669473 
L 125.249046 263.718032 
L 125.311806 264.308211 
L 125.378488 257.976266 
L 125.553691 265.302885 
L 125.615143 260.97071 
L 125.674634 266.693137 
L 125.873372 257.20509 
L 125.938746 257.131345 
L 126.004774 257.850477 
L 126.070803 257.082936 
L 126.136177 257.759105 
L 126.203513 255.842641 
L 126.325763 267.390751 
L 126.387215 264.639174 
L 126.451282 262.832517 
L 126.514041 263.088 
L 126.570917 266.129274 
L 126.631715 260.372346 
L 126.689898 262.341567 
L 126.747428 265.455931 
L 126.94159 254.568758 
L 127.125946 266.810057 
L 127.310301 262.598449 
L 127.369792 263.560109 
L 127.424707 267.732741 
L 127.48289 267.462037 
L 127.546957 264.481265 
L 127.618215 253.747709 
L 127.674437 267.672184 
L 127.749617 249.473338 
L 127.803224 268.756858 
L 127.9124 268.572642 
L 128.025497 266.688516 
L 128.139903 268.492537 
L 128.27915 257.657021 
L 128.34714 257.885302 
L 128.414475 256.683993 
L 128.484426 257.466497 
L 128.69297 253.014125 
L 128.757037 262.695086 
L 128.828295 252.015797 
L 128.8989 252.580691 
L 128.972119 250.803121 
L 129.040762 253.895307 
L 129.110713 252.897298 
L 129.189816 251.663716 
L 129.263035 252.703391 
L 129.412089 247.244171 
L 129.482693 252.125916 
L 129.542184 266.74622 
L 129.616711 249.279469 
L 129.675548 267.297666 
L 129.736999 265.356834 
L 129.800413 261.941413 
L 129.861865 264.319165 
L 129.922663 264.330332 
L 129.975616 270.649381 
L 130.037722 262.947135 
L 130.099174 265.574653 
L 130.161933 264.211625 
L 130.223385 266.0119 
L 130.287452 259.606212 
L 130.349558 262.021828 
L 130.533914 266.121106 
L 130.658125 260.713819 
L 130.720884 265.424183 
L 130.860786 255.376871 
L 130.922891 262.475993 
L 130.993496 259.788999 
L 131.059524 261.958862 
L 131.130782 252.764631 
L 131.256954 262.017154 
L 131.320368 263.472382 
L 131.460269 258.486863 
L 131.530219 260.58123 
L 131.600824 258.427401 
L 131.670774 258.9576 
L 131.740725 259.241661 
L 131.811983 259.027394 
L 132.025758 254.627361 
L 132.095708 253.769646 
L 132.159775 262.45284 
L 132.237571 245.486203 
L 132.314059 254.442188 
L 132.3912 251.442348 
L 132.465074 252.044026 
L 132.546138 243.06935 
L 132.617396 254.714584 
L 132.701075 244.032982 
L 132.776256 254.509306 
L 132.927924 247.506171 
L 133.005066 246.152322 
L 133.0809 249.539027 
L 133.158042 246.421088 
L 133.235838 246.762491 
L 133.387506 254.261997 
L 133.463995 254.687121 
L 133.537214 254.153483 
L 133.735952 262.309683 
L 133.866701 259.081934 
L 133.932075 259.52092 
L 134.000065 258.77524 
L 134.0674 259.33664 
L 134.207955 254.048127 
L 134.282482 256.820635 
L 134.421076 259.933906 
L 134.488412 259.940351 
L 134.556401 260.912076 
L 134.70284 257.181922 
L 134.959761 266.277929 
L 135.033634 257.47069 
L 135.102931 260.962784 
L 135.285979 268.610608 
L 135.358545 258.294808 
L 135.43111 258.762886 
L 135.501061 259.621322 
L 135.620043 270.345193 
L 135.754714 258.882654 
L 135.81159 268.729311 
L 135.891346 254.877954 
L 135.957374 260.371995 
L 136.110351 252.470038 
L 136.190761 254.448895 
L 136.265288 252.944272 
L 136.418918 256.001274 
L 136.489522 253.179548 
L 136.56078 256.938883 
L 136.632038 256.876412 
L 136.707219 255.187315 
L 136.784361 247.906267 
L 136.934068 256.747928 
L 137.090313 250.134901 
L 137.168762 252.51234 
L 137.247865 249.593156 
L 137.325007 255.517312 
L 137.403456 252.375899 
L 137.545973 258.038252 
L 137.789819 250.619642 
L 137.864346 256.000931 
L 137.94018 251.841111 
L 138.168337 257.903272 
L 138.389302 252.121736 
L 138.614844 255.726259 
L 139.008398 248.476897 
L 139.225441 259.570794 
L 139.298007 257.717971 
L 139.367304 260.551155 
L 139.443792 257.133387 
L 139.517665 257.654151 
L 139.592845 257.128192 
L 139.675871 253.482498 
L 139.750398 257.776531 
L 139.828193 255.392384 
L 139.90272 256.509133 
L 140.060272 255.662009 
L 140.219132 254.377965 
L 140.298235 255.232744 
L 140.376685 255.118025 
L 140.453173 255.456761 
L 140.744742 259.492365 
L 140.972899 254.833438 
L 141.050695 254.952749 
L 141.129144 254.910646 
L 141.205632 256.069813 
L 141.28212 254.985684 
L 141.359262 255.212613 
L 141.434442 258.066042 
L 141.512238 256.669127 
L 141.583496 256.955884 
L 141.656715 257.976941 
L 141.738433 253.572073 
L 141.81819 254.958013 
L 141.901216 253.285783 
L 142.062691 255.214258 
L 142.138525 257.564246 
L 142.219589 254.683599 
L 142.291501 258.72976 
L 142.366028 257.125356 
L 142.522926 253.865033 
L 142.588955 261.68941 
L 142.745853 252.520431 
L 142.976625 255.274261 
L 143.047883 255.723361 
L 143.130255 248.436679 
L 143.210665 253.727426 
L 143.289768 251.913182 
L 143.445359 254.965072 
L 143.52577 254.492373 
L 143.605527 255.190085 
L 143.834991 253.146527 
L 143.906903 258.348932 
L 143.984044 253.778085 
L 144.05661 256.276985 
L 144.216124 253.316887 
L 144.288689 254.734181 
L 144.444934 250.214324 
L 144.518807 256.271391 
L 144.678974 253.092969 
L 144.84241 252.224972 
L 145.003231 253.101717 
L 145.090179 251.515057 
L 145.17582 252.248034 
L 145.265383 250.65078 
L 145.351023 252.228345 
L 145.433395 251.944979 
L 145.505961 257.90991 
L 145.685087 249.530047 
L 145.768112 252.030084 
L 145.847215 251.979025 
L 145.932202 250.736022 
L 146.009997 252.760022 
L 146.095638 249.968047 
L 146.174087 250.453478 
L 146.254498 253.302668 
L 146.334254 250.534492 
L 146.412704 251.605328 
L 146.489192 253.027549 
L 146.65132 251.117365 
L 146.807565 254.556893 
L 146.889283 252.641313 
L 146.967079 254.352099 
L 147.046835 248.770594 
L 147.1279 253.821194 
L 147.205695 253.600368 
L 147.286106 253.571604 
L 147.457387 249.96314 
L 147.541066 253.934713 
L 147.701887 249.858832 
L 147.790143 249.503284 
L 148.019607 263.936763 
L 148.175198 251.242778 
L 148.2628 252.843346 
L 148.40074 258.788769 
L 148.473959 257.222935 
L 148.545217 258.65954 
L 148.635434 249.056772 
L 148.711268 255.188647 
L 148.791678 254.176929 
L 148.957076 250.683755 
L 149.040755 251.096202 
L 149.125088 251.256561 
L 149.206806 250.80372 
L 149.288524 251.212218 
L 149.373511 249.934791 
L 149.459805 250.836619 
L 149.546753 250.245903 
L 149.628471 252.497594 
L 149.808251 249.22258 
L 149.890622 252.615975 
L 149.969072 251.690391 
L 150.33713 248.092793 
L 150.423424 248.982149 
L 150.511025 248.622388 
L 150.589475 252.940123 
L 150.667924 252.497506 
L 150.744412 252.784723 
L 150.822861 252.580052 
L 150.982375 254.099882 
L 151.148426 252.272292 
L 151.228836 247.182248 
L 151.302056 254.324983 
L 151.382466 251.237551 
L 151.456993 253.044916 
L 151.705416 247.105593 
L 151.783865 251.275327 
L 151.864929 250.366113 
L 151.947301 250.649921 
L 152.019213 253.722867 
L 152.104854 252.770439 
L 152.189187 252.55236 
L 152.242794 270.299308 
L 152.318628 256.230132 
L 152.389232 258.209016 
L 152.466374 255.746325 
L 152.535671 257.821284 
L 152.612813 253.19518 
L 152.680802 260.952014 
L 152.754675 256.539726 
L 152.826587 257.935575 
L 152.896538 258.527662 
L 152.967142 258.479248 
L 153.037093 258.630893 
L 153.107697 258.277631 
L 153.414957 253.73058 
L 153.501905 250.527567 
L 153.654227 256.238286 
L 153.734638 251.413034 
L 153.808511 254.506162 
L 153.885652 252.028697 
L 153.962794 253.238121 
L 154.041897 251.206681 
L 154.189643 256.071599 
L 154.268746 251.966378 
L 154.344581 255.942727 
L 154.421069 254.860127 
L 154.496903 252.793567 
L 154.570122 256.11042 
L 154.648572 252.479787 
L 154.728982 253.275007 
L 154.808739 252.457379 
L 154.884573 252.705384 
L 155.112076 255.109075 
L 155.269629 254.164147 
L 155.504977 247.456302 
L 155.58408 248.069744 
L 155.665798 251.986403 
L 155.743593 249.548312 
L 155.820081 253.123627 
L 155.973711 250.171276 
L 156.121457 255.584425 
L 156.277702 248.050076 
L 156.513704 253.904277 
L 156.769318 243.616049 
L 156.852343 245.459548 
L 157.004665 254.008126 
L 157.083769 250.944976 
L 157.164179 251.584282 
L 157.240667 250.83756 
L 157.325 245.161135 
L 157.408026 252.974925 
L 157.582575 243.928534 
L 157.671484 244.466057 
L 157.753856 252.354226 
L 157.849957 242.14505 
L 157.925791 254.714887 
L 158.002933 251.142015 
L 158.084651 247.588873 
L 158.237627 254.294326 
L 158.399102 248.31664 
L 158.476243 252.573639 
L 158.62922 248.949934 
L 158.7044 250.30506 
L 158.780888 248.103903 
L 158.940402 249.285946 
L 159.01689 249.650793 
L 159.093378 251.423612 
L 159.173135 250.879914 
L 159.248969 251.608711 
L 159.326764 251.04923 
L 159.405868 246.485418 
L 159.484971 246.7679 
L 159.562112 248.683178 
L 159.643177 245.651878 
L 159.717703 253.710669 
L 159.798114 250.830861 
L 159.95632 248.234489 
L 160.033462 248.391971 
L 160.189053 247.534599 
L 160.266195 249.125698 
L 160.344644 247.593968 
L 160.501543 253.954239 
L 160.576723 253.530261 
L 160.730353 250.463066 
L 160.883329 251.952172 
L 161.039574 247.23619 
L 161.120638 253.016906 
L 161.280806 246.641878 
L 161.362524 244.903849 
L 161.44228 249.774192 
L 161.521383 247.904613 
L 161.599833 252.387498 
L 161.831912 244.246943 
L 161.91363 242.555275 
L 161.993387 245.909647 
L 162.075758 244.556094 
L 162.239194 245.363402 
L 162.32222 242.724606 
L 162.486963 246.481418 
L 162.654322 241.593652 
L 162.737347 244.838428 
L 162.824295 240.840832 
L 162.985116 250.410954 
L 163.066834 247.793293 
L 163.152475 247.903564 
L 163.234847 247.508746 
L 163.313296 249.91354 
L 163.395668 246.624891 
L 163.476078 247.077791 
L 163.637553 244.504852 
L 163.719925 245.373453 
L 163.800335 248.995327 
L 163.883361 246.801653 
L 164.044182 249.833096 
L 164.293258 244.405306 
L 164.374976 243.825781 
L 164.545604 241.557887 
L 164.71427 243.668349 
L 164.882282 240.766703 
L 164.962039 246.698661 
L 165.046372 240.017506 
L 165.129397 241.719617 
L 165.215038 240.623143 
L 165.300024 240.82088 
L 165.373897 255.469714 
L 165.450385 252.432089 
L 165.530142 248.776652 
L 165.764836 251.811977 
L 165.934156 240.633875 
L 166.019796 242.474174 
L 166.102822 246.74488 
L 166.535601 236.59158 
L 166.876201 242.599759 
L 166.961188 243.171719 
L 167.132469 239.21154 
L 167.217456 238.807637 
L 167.304404 237.521827 
L 167.391352 237.663547 
L 167.559364 243.904817 
L 167.641736 241.407156 
L 167.726069 240.289705 
L 167.809748 240.91812 
L 167.975799 243.121116 
L 168.14708 238.290272 
L 168.231413 242.592878 
L 168.317707 240.49374 
L 168.404655 240.910021 
L 168.489642 242.2571 
L 168.66746 236.774754 
L 168.755716 238.402367 
L 168.843317 238.036202 
L 168.930919 238.514003 
L 169.20353 234.961975 
L 169.37285 242.52983 
L 169.457837 241.181841 
L 169.54217 241.97179 
L 169.62781 239.795994 
L 169.721949 233.54079 
L 169.801052 250.298666 
L 169.885385 239.507997 
L 169.971026 239.964267 
L 170.056013 239.921679 
L 170.14296 238.094383 
L 170.314895 241.06179 
L 170.48683 237.641226 
L 170.822201 242.504671 
L 170.907187 240.49963 
L 170.988905 243.217791 
L 171.070623 242.279462 
L 171.234713 242.057506 
L 171.3197 238.115387 
L 171.40534 239.849096 
L 171.583159 235.090841 
L 171.667492 238.213752 
L 171.937488 230.651585 
L 172.033588 233.100757 
L 172.117921 239.494721 
L 172.210099 232.138143 
L 172.301623 234.196373 
L 172.39707 228.651904 
L 172.487287 234.35864 
L 172.584041 232.698648 
L 172.672296 238.980532 
L 172.778203 220.907472 
L 172.866458 236.572011 
L 172.956021 235.010153 
L 173.047545 233.237439 
L 173.220788 238.166467 
L 173.397952 235.145698 
L 173.571194 236.648705 
L 173.658142 236.466042 
L 173.753589 228.972245 
L 173.932715 237.062977 
L 174.024239 233.909386 
L 174.110533 239.249424 
L 174.199443 237.001103 
L 174.373338 240.653576 
L 174.73159 233.534105 
L 174.819846 235.482542 
L 175.090496 233.595448 
L 175.178751 236.515085 
L 175.265699 235.778112 
L 175.355916 233.729705 
L 175.621336 237.783964 
L 175.802423 234.636206 
L 175.893947 233.604274 
L 176.074381 235.434823 
L 176.536578 228.205433 
L 176.642484 219.231239 
L 176.733355 234.304139 
L 176.834685 225.480976 
L 176.924248 235.071023 
L 177.015772 234.673931 
L 177.117102 223.977156 
L 177.205358 235.039218 
L 177.320417 211.769603 
L 177.432861 215.28097 
L 177.522424 234.416979 
L 177.613948 232.600099 
L 177.704818 232.745909 
L 177.798304 231.135575 
L 177.890482 232.330183 
L 178.081375 227.741418 
L 178.163747 244.645921 
L 178.259193 227.698429 
L 178.346795 237.587278 
L 178.433743 237.429719 
L 178.524613 235.3844 
L 178.612869 236.184548 
L 178.79461 233.22156 
L 178.884826 234.181263 
L 178.968506 242.909458 
L 179.159399 227.313559 
L 179.249616 235.657196 
L 179.445739 228.079122 
L 179.545762 228.277997 
L 179.634671 237.466647 
L 179.731425 231.424814 
L 179.91382 235.169236 
L 180.003383 236.380516 
L 180.10079 231.859173 
L 180.191007 235.905891 
L 180.281878 235.58739 
L 180.372748 234.861762 
L 180.464926 232.969131 
L 180.557104 233.379065 
L 180.646667 235.318572 
L 180.712041 260.666826 
L 180.802912 235.687251 
L 180.866979 261.172295 
L 180.957849 236.228514 
L 181.023877 259.260954 
L 181.091867 258.74329 
L 181.159202 258.617885 
L 181.359902 260.03219 
L 181.424622 261.234695 
L 181.565177 257.272937 
L 181.632513 260.067459 
L 181.712923 249.156551 
L 181.85544 258.532354 
L 181.929966 256.051721 
L 182.141126 214.937867 
L 182.228727 235.881966 
L 182.421582 229.24447 
L 182.602669 239.554587 
L 182.790294 234.297727 
L 182.886394 231.836805 
L 182.978572 236.182595 
L 183.07598 229.227462 
L 183.16162 237.69442 
L 183.248568 236.96222 
L 183.338785 234.397681 
L 183.55452 217.378089 
L 183.665657 217.663629 
L 183.757181 236.331987 
L 183.853935 231.657705 
L 183.947421 233.095628 
L 184.037637 237.951796 
L 184.130469 233.880847 
L 184.218071 238.745902 
L 184.306326 237.672027 
L 184.48153 239.216117 
L 184.850895 231.835849 
L 184.941112 236.465657 
L 185.037866 230.263931 
L 185.126775 237.176485 
L 185.309823 234.933416 
L 185.402001 233.928579 
L 185.498102 230.253896 
L 185.591587 233.327119 
L 185.688341 231.733338 
L 185.867467 238.514472 
L 186.048554 234.901443 
L 186.140078 234.601133 
L 186.231603 235.6895 
L 186.324434 234.996709 
L 186.408113 244.55473 
L 186.585932 239.380415 
L 186.674841 239.408737 
L 186.764404 237.51617 
L 186.853967 238.853338 
L 186.944837 235.354494 
L 187.033747 237.029148 
L 187.126578 234.369712 
L 187.218756 234.995906 
L 187.256673 279.142652 
L 187.347544 235.216132 
L 187.43253 241.862445 
L 187.610349 233.628329 
L 187.688798 251.773942 
L 187.863348 238.331281 
L 187.948988 242.76537 
L 188.040512 237.66924 
L 188.126807 242.09524 
L 188.215716 239.565609 
L 188.303971 240.261498 
L 188.475252 246.67559 
L 188.566776 237.846893 
L 188.655686 238.658545 
L 188.749825 234.318514 
L 188.842003 235.781169 
L 188.934181 233.806346 
L 189.025705 234.036329 
L 189.122459 233.380696 
L 189.209407 239.940592 
L 189.297662 238.960592 
L 189.383957 239.776921 
L 189.472212 239.314171 
L 189.559814 240.773564 
L 189.65003 235.407759 
L 189.737632 236.812659 
L 189.829156 232.414391 
L 189.917412 236.887804 
L 190.007628 234.085301 
L 190.097191 236.869338 
L 190.189369 231.970533 
L 190.361304 242.081102 
L 190.452174 236.730755 
L 190.541737 237.380972 
L 190.626724 242.588602 
L 190.712365 241.877252 
L 190.803889 232.974056 
L 190.981053 239.975084 
L 191.068655 239.503765 
L 191.237975 241.775068 
L 191.32623 238.585632 
L 191.417101 240.511337 
L 191.512547 230.92557 
L 191.606033 232.934044 
L 191.700172 231.649805 
L 191.795619 231.965588 
L 191.889104 232.762592 
L 192.079343 231.098692 
L 192.170868 235.948557 
L 192.262392 234.180585 
L 192.351301 236.043077 
L 192.444786 231.5764 
L 192.536964 234.300559 
L 192.623259 241.505959 
L 192.797154 235.096029 
L 192.88541 235.667437 
L 192.973012 240.135721 
L 193.154752 234.606447 
L 193.2417 238.744716 
L 193.329302 238.602697 
L 193.507121 236.885283 
L 193.594722 239.425444 
L 193.776463 235.640569 
L 193.86668 235.156838 
L 193.959511 233.988699 
L 194.139291 238.199575 
L 194.230162 234.743719 
L 194.412556 237.019317 
L 194.584491 244.134909 
L 194.755118 237.908243 
L 194.83749 244.044928 
L 194.925745 237.818525 
L 195.095065 246.787024 
L 195.177437 247.471191 
L 195.266346 240.580847 
L 195.432397 245.922055 
L 195.514769 246.786923 
L 195.690626 235.56888 
L 195.779535 235.969313 
L 195.869752 234.401553 
L 195.958661 235.510597 
L 196.049531 235.148723 
L 196.22212 241.542184 
L 196.309068 241.06342 
L 196.396669 240.020004 
L 196.490155 231.827068 
L 196.582333 233.988576 
L 196.835985 245.495646 
L 196.920318 242.844822 
L 197.003998 244.815497 
L 197.088331 241.30241 
L 197.173971 243.097609 
L 197.359634 230.140116 
L 197.45312 232.524422 
L 197.548567 231.840589 
L 197.643359 233.114411 
L 197.822485 239.768958 
L 197.921201 230.056075 
L 198.008149 242.093917 
L 198.233037 215.882451 
L 198.408894 236.451925 
L 198.57756 245.579803 
L 198.746226 243.331958 
L 198.834481 238.91053 
L 198.921429 239.831194 
L 199.096633 237.349587 
L 199.18358 239.924494 
L 199.361399 237.77614 
L 199.449001 237.615424 
L 199.538564 237.096402 
L 199.630088 235.70672 
L 199.718997 237.381558 
L 199.809867 236.104454 
L 199.898777 238.423023 
L 199.990954 236.548074 
L 200.077902 239.933486 
L 200.165504 239.448748 
L 200.252452 240.217979 
L 200.338746 239.343636 
L 200.431578 236.540651 
L 200.521795 237.278644 
L 200.700267 239.205454 
L 200.78983 237.827885 
L 201.051981 241.277653 
L 201.142852 237.141928 
L 201.231107 239.927706 
L 201.407618 237.616776 
L 201.498488 236.346704 
L 201.588051 237.077566 
L 201.67173 244.300601 
L 201.845626 237.359658 
L 201.933228 237.873629 
L 202.109739 239.881291 
L 202.467991 235.806407 
L 202.558207 237.038448 
L 202.728835 243.339065 
L 202.81709 239.612349 
L 202.902077 243.150312 
L 203.077934 237.980654 
L 203.255752 237.470963 
L 203.34793 234.903202 
L 203.525095 237.819649 
L 203.710758 234.984013 
L 203.79836 239.28461 
L 203.887923 236.333204 
L 203.972256 243.491027 
L 204.063126 236.260933 
L 204.151382 239.239914 
L 204.242906 236.151156 
L 204.328546 241.931497 
L 204.418763 237.612155 
L 204.50375 241.045515 
L 204.590698 240.441864 
L 204.678953 240.068901 
L 204.768516 237.893153 
L 204.856118 239.491872 
L 205.033283 238.462852 
L 205.127422 233.880401 
L 205.392842 240.873884 
L 205.483059 238.851311 
L 205.570007 244.265761 
L 205.655647 243.28581 
L 205.845887 231.319726 
L 205.941987 233.502259 
L 206.037434 232.860174 
L 206.132226 234.097703 
L 206.225058 238.938322 
L 206.317236 237.223401 
L 206.42968 218.426643 
L 206.614036 239.834306 
L 206.798392 238.112918 
L 206.889262 238.794258 
L 207.073618 236.667309 
L 207.254705 239.173833 
L 207.346229 237.706439 
L 207.524048 241.649885 
L 207.706442 237.851618 
L 207.796005 239.342279 
L 207.886222 238.397289 
L 207.979053 235.986555 
L 208.066001 243.553063 
L 208.154257 242.289916 
L 208.240551 243.049711 
L 208.417062 237.171239 
L 208.505317 238.191865 
L 208.677906 241.349906 
L 208.863569 233.013656 
L 208.95444 233.965818 
L 209.044656 238.13531 
L 209.325113 231.85292 
L 209.499662 243.389588 
L 209.585956 242.999446 
L 209.671597 243.827836 
L 209.758545 242.864845 
L 209.835687 248.77534 
L 209.922635 241.459532 
L 210.027887 221.8149 
L 210.121373 234.736137 
L 210.214858 233.929321 
L 210.307036 234.82997 
L 210.527348 216.324135 
L 210.616257 239.997703 
L 210.710396 233.44173 
L 210.820225 217.665338 
L 211.000659 242.837852 
L 211.08826 241.049446 
L 211.277846 232.915308 
L 211.36414 243.830075 
L 211.79365 216.172496 
L 211.880598 243.44429 
L 211.9682 242.116042 
L 212.155824 237.627354 
L 212.338219 241.384407 
L 212.431704 238.519645 
L 212.520614 240.566904 
L 212.612138 237.260069 
L 212.718698 222.418623 
L 212.81153 237.721708 
L 213.044263 213.918036 
L 213.134479 238.122224 
L 213.224696 237.277715 
L 213.314913 237.433754 
L 213.408398 235.95746 
L 213.499922 238.891323 
L 213.592754 237.74556 
L 213.686239 238.7202 
L 213.783647 234.489622 
L 213.877786 237.831465 
L 213.99546 214.596136 
L 214.113134 215.440011 
L 214.224271 219.915839 
L 214.340637 214.358585 
L 214.451774 215.86925 
L 214.570101 209.850976 
L 214.664894 237.395272 
L 214.792374 202.526415 
L 215.021185 216.01116 
L 215.131668 216.490405 
L 215.244112 215.992055 
L 215.365054 209.442334 
L 215.695195 225.607487 
L 215.784758 240.69123 
L 215.87759 240.404012 
L 215.973036 237.481113 
L 216.090056 216.959583 
L 216.19727 219.149054 
L 216.428042 212.506178 
L 216.524796 233.641847 
L 216.761452 211.319667 
L 216.856244 233.006073 
L 216.971957 215.192837 
L 217.088324 214.838098 
L 217.18377 236.711473 
L 217.302752 209.422991 
L 217.424348 207.296053 
L 217.541368 215.789015 
L 217.659042 216.003174 
L 217.781292 209.033924 
L 217.901581 214.35608 
L 218.028408 203.566197 
L 218.147389 214.876227 
L 218.264409 214.10483 
L 218.485375 216.973323 
L 218.719415 214.318342 
L 218.968492 203.35602 
L 219.095318 204.555335 
L 219.187496 235.037437 
L 219.430035 205.761269 
L 219.552285 207.368468 
L 219.741217 236.909654 
L 220.035402 227.047504 
L 220.264866 214.440111 
L 220.383194 211.401529 
L 220.480602 228.455014 
L 220.606121 204.642379 
L 220.698952 234.863844 
L 220.833624 195.962884 
L 221.021902 234.844398 
L 221.11408 237.496999 
L 221.357273 202.4079 
L 221.458603 229.452862 
L 221.576277 215.031649 
L 221.673685 230.344476 
L 221.786129 215.995836 
L 221.870462 242.137772 
L 221.984213 213.699758 
L 222.07966 234.262111 
L 222.328083 198.377969 
L 222.426144 232.582294 
L 222.546433 209.214147 
L 222.775243 219.631092 
L 222.887034 215.47554 
L 222.965483 249.018825 
L 223.183834 215.973654 
L 223.298893 216.415207 
L 223.534894 213.331372 
L 223.627726 237.663724 
L 223.751937 211.548692 
L 223.86765 215.203819 
L 223.993169 204.401262 
L 224.107574 215.971736 
L 224.342922 213.935004 
L 224.457981 214.292574 
L 224.582846 205.776385 
L 224.676985 235.752481 
L 224.797928 208.867971 
L 224.91364 218.359532 
L 225.037198 207.341426 
L 225.153564 210.633467 
L 225.342497 234.079026 
L 225.581113 202.945687 
L 225.694865 216.237503 
L 225.811885 215.637321 
L 225.93152 213.115909 
L 226.051809 213.805381 
L 226.266237 220.880995 
L 226.357107 239.0078 
L 226.482626 204.643022 
L 226.560422 248.266407 
L 226.676788 214.904841 
L 226.787271 215.923171 
L 226.910829 204.347321 
L 227.020004 217.090378 
L 227.1416 210.42193 
L 227.234432 233.255797 
L 227.363873 200.495969 
L 227.459974 233.034151 
L 227.677017 217.596434 
L 227.795344 210.393077 
L 227.908442 215.0417 
L 227.9797 256.841386 
L 228.075801 230.254195 
L 228.169286 232.16427 
L 228.277807 218.354803 
L 228.383714 220.620678 
L 228.56807 237.244801 
L 228.777922 213.342673 
L 228.967508 233.964199 
L 229.065569 228.440178 
L 229.159708 233.944816 
L 229.278036 210.369516 
L 229.371521 232.035841 
L 229.468275 229.272504 
L 229.585949 211.943983 
L 229.697086 217.074004 
L 229.883403 233.89219 
L 229.975581 234.061465 
L 230.088025 213.482265 
L 230.188048 227.121465 
L 230.307683 216.589131 
L 230.416204 217.285554 
L 230.529956 214.763728 
L 230.639785 216.699524 
L 230.877094 207.404546 
L 230.926779 270.481466 
L 231.053605 204.027933 
L 231.149705 232.069504 
L 231.246459 231.35224 
L 231.358903 214.797051 
L 231.534761 248.871818 
L 231.64982 214.912675 
L 231.760302 216.697446 
L 231.866863 220.323444 
L 231.95904 232.477099 
L 232.051218 232.202003 
L 232.168239 210.882638 
L 232.320561 250.434743 
L 232.511454 231.048052 
L 232.60494 232.193446 
L 232.719345 216.124121 
L 232.915468 231.940826 
L 233.014837 226.398061 
L 233.1044 236.065751 
L 233.197886 233.141377 
L 233.290063 235.140454 
L 233.39597 219.456185 
L 233.589478 233.404407 
L 233.683617 231.802935 
L 233.796061 216.687695 
L 233.905237 218.250674 
L 233.982378 248.6688 
L 234.094822 217.644795 
L 234.173272 248.056079 
L 234.375279 216.603404 
L 234.563557 231.791656 
L 234.655735 234.269633 
L 234.873432 216.519647 
L 234.969532 230.613317 
L 235.064979 230.347878 
L 235.160425 230.873544 
L 235.267639 219.677712 
L 235.361125 234.006879 
L 235.466378 221.923628 
L 235.557248 233.48043 
L 235.650733 231.980958 
L 235.744873 231.799708 
L 235.841627 229.835344 
L 235.938381 230.326588 
L 236.11816 235.818447 
L 236.20707 236.248759 
L 236.317552 216.34227 
L 236.405154 236.605021 
L 236.494717 234.520746 
L 236.777788 229.975341 
L 236.869312 235.396081 
L 236.960183 234.558828 
L 237.054322 231.936631 
L 237.164151 216.917328 
L 237.272019 217.94614 
L 237.458336 234.225655 
L 237.646614 231.296586 
L 237.830316 233.675319 
L 237.923802 233.123744 
L 238.016633 233.343347 
L 238.199028 236.926533 
L 238.289245 236.87655 
L 238.382076 233.988917 
L 238.472947 238.141455 
L 238.572316 227.59816 
L 238.660571 237.776352 
L 238.756672 229.961447 
L 238.848849 233.180406 
L 238.944296 230.245532 
L 239.037128 231.776815 
L 239.131267 230.908753 
L 239.242403 215.604459 
L 239.331966 236.437367 
L 239.424798 234.128296 
L 239.510438 239.188998 
L 239.601309 234.760716 
L 239.688257 239.917032 
L 239.777166 238.879111 
L 239.877843 225.730611 
L 239.964791 239.401108 
L 240.056969 233.703088 
L 240.146531 239.682471 
L 240.250477 221.412618 
L 240.336117 241.631871 
L 240.425026 235.404794 
L 240.513282 238.303246 
L 240.606767 233.325564 
L 240.693715 239.392733 
L 240.787854 233.985281 
L 240.880032 234.179465 
L 240.974171 232.660321 
L 241.043468 257.173815 
L 241.136954 234.525121 
L 241.226517 236.82823 
L 241.31608 238.626675 
L 241.404989 237.995809 
L 241.499782 233.590652 
L 241.779584 235.183387 
L 241.94825 244.720306 
L 242.250934 216.3161 
L 242.35684 220.629021 
L 242.435943 246.581855 
L 242.539235 223.6338 
L 242.626183 239.027157 
L 242.715092 237.239406 
L 242.806616 233.801368 
L 242.896833 234.504088 
L 242.967437 256.658513 
L 243.047194 246.865614 
L 243.228935 235.181155 
L 243.300193 257.138521 
L 243.393025 233.79556 
L 243.483895 235.125313 
L 243.578688 233.193335 
L 243.665636 240.217049 
L 243.769581 222.320145 
L 243.908829 257.10225 
L 244.00166 235.251583 
L 244.084032 243.275293 
L 244.14483 264.135291 
L 244.218703 251.416675 
L 244.291269 252.54754 
L 244.364488 252.228963 
L 244.439015 250.812708 
L 244.525963 240.185012 
L 244.601144 250.749207 
L 244.700513 227.251455 
L 244.765887 258.264212 
L 244.854143 238.702695 
L 244.944359 239.458057 
L 245.03 242.189212 
L 245.118255 241.422021 
L 245.207164 239.642013 
L 245.281038 251.90035 
L 245.355564 251.671691 
L 245.449704 233.428999 
L 245.541228 234.127445 
L 245.626868 240.85145 
L 245.717085 239.250407 
L 245.807955 238.671224 
L 245.891635 241.600577 
L 246.07599 233.005158 
L 246.166861 235.013706 
L 246.258385 234.482459 
L 246.344679 240.950906 
L 246.430973 239.453294 
L 246.517921 238.509768 
L 246.686587 242.21092 
L 246.861137 240.045595 
L 246.953969 234.839995 
L 247.018689 260.11238 
L 247.112828 233.806684 
L 247.203699 234.920255 
L 247.401783 225.879238 
L 247.652821 255.920231 
L 247.746307 233.382793 
L 247.829986 241.903957 
L 248.011073 234.20215 
L 248.105212 234.619056 
L 248.198697 234.834764 
L 248.290222 234.790121 
L 248.383053 234.353703 
L 248.471962 239.36294 
L 248.660895 231.558887 
L 248.73869 247.123119 
L 248.821062 243.388913 
L 248.915201 233.298486 
L 249.090404 242.160142 
L 249.181275 235.441258 
L 249.257109 251.470887 
L 249.440157 234.413151 
L 249.535604 234.629261 
L 249.619283 242.800589 
L 249.713422 235.066415 
L 249.803639 237.661875 
L 249.897778 234.251585 
L 249.991264 235.71334 
L 250.18085 232.453862 
L 250.351477 242.860017 
L 250.458691 220.38697 
L 250.646969 236.289033 
L 250.739147 234.37679 
L 250.831325 234.693102 
L 250.922195 236.849327 
L 251.041177 210.539374 
L 251.179117 263.022699 
L 251.273256 236.646981 
L 251.363473 238.238654 
L 251.426232 261.717223 
L 251.494875 255.769326 
L 251.561557 257.879841 
L 251.655696 233.443778 
L 251.745913 237.783891 
L 251.828285 243.976405 
L 251.939421 216.835019 
L 252.025715 241.271114 
L 252.115278 240.094058 
L 252.202226 239.670034 
L 252.349319 257.429493 
L 252.496411 254.586683 
L 252.589243 237.036791 
L 252.731105 263.416422 
L 252.794518 261.590119 
L 252.931805 257.350093 
L 253.02529 233.189219 
L 253.101124 248.731858 
L 253.18415 242.993501 
L 253.257369 255.14411 
L 253.374389 210.843265 
L 253.464606 238.658224 
L 253.55613 238.529045 
L 253.631965 249.432658 
L 253.726757 234.789652 
L 253.814359 241.503284 
L 253.909152 233.448295 
L 254.001984 234.00815 
L 254.087624 241.418903 
L 254.193531 221.737649 
L 254.361543 248.728624 
L 254.530863 240.805622 
L 254.635462 222.36875 
L 254.726986 237.024451 
L 254.821125 235.265931 
L 254.936184 212.380436 
L 255.025093 239.78433 
L 255.127731 224.727825 
L 255.214025 240.034547 
L 255.307511 232.757168 
L 255.470947 247.331261 
L 255.554626 243.621391 
L 255.706295 251.870765 
L 255.786705 246.536177 
L 255.865154 248.134229 
L 255.941642 250.333473 
L 256.022053 246.794176 
L 256.114231 234.850805 
L 256.203794 236.18775 
L 256.292703 239.164453 
L 256.384881 234.593171 
L 256.46856 243.070024 
L 256.652916 236.56329 
L 256.738556 242.629849 
L 256.833349 233.411259 
L 256.906569 250.667491 
L 257.084387 239.661659 
L 257.154991 253.240249 
L 257.335425 238.342825 
L 257.41845 242.660953 
L 257.508667 236.878676 
L 257.594308 240.854144 
L 257.681255 239.409324 
L 257.801544 209.105127 
L 257.976094 242.168017 
L 258.168295 227.207218 
L 258.426524 247.655218 
L 258.506934 246.425862 
L 258.622647 212.691495 
L 258.790005 252.886077 
L 259.017508 208.777121 
L 259.095958 247.140265 
L 259.306463 216.531413 
L 259.381644 250.408718 
L 259.511085 201.908625 
L 259.596072 241.615622 
L 259.718322 206.308628 
L 259.947786 216.091475 
L 260.067421 209.825026 
L 260.330227 249.174545 
L 260.429596 230.714129 
L 260.549885 266.92318 
L 260.798961 224.145561 
L 260.966973 247.363583 
L 261.05719 237.829496 
L 261.134986 246.386623 
L 261.228471 234.182137 
L 261.312804 243.095504 
L 261.402367 238.254497 
L 261.506966 221.743853 
L 261.60372 228.966441 
L 261.676286 253.855227 
L 261.767156 236.632105 
L 261.83253 258.486302 
L 261.946936 213.890559 
L 262.018194 254.155705 
L 262.220201 221.34207 
L 262.271193 271.112398 
L 262.3248 269.159903 
L 262.507194 233.988846 
L 262.567993 261.306141 
L 262.640558 252.413484 
L 262.828183 232.091156 
L 262.927552 227.850967 
L 263.113215 235.323141 
L 263.213892 227.832549 
L 263.302801 238.832654 
L 263.394979 235.691489 
L 263.499578 224.786899 
L 263.647978 254.666221 
L 263.717928 254.711549 
L 263.804876 240.579532 
L 263.887248 244.670491 
L 263.93824 271.244405 
L 264.023227 241.234044 
L 264.105599 243.229058 
L 264.191239 241.2506 
L 264.268381 248.972668 
L 264.344869 248.808654 
L 264.435739 236.505255 
L 264.516804 245.605498 
L 264.597868 245.124926 
L 264.673702 250.450499 
L 264.860673 233.266851 
L 264.952851 235.73022 
L 265.065295 215.340514 
L 265.233961 251.802257 
L 265.327446 231.856715 
L 265.382361 267.057193 
L 265.558218 236.140471 
L 265.707925 255.301294 
L 265.800103 234.390191 
L 265.890974 236.117934 
L 266.041335 253.173052 
L 266.222422 229.156909 
L 266.313292 237.498117 
L 266.403509 237.155676 
L 266.575444 243.596426 
L 266.676774 227.991416 
L 266.768952 235.260649 
L 266.867667 228.778311 
L 267.04091 243.692839 
L 267.263836 216.617755 
L 267.374973 215.826057 
L 267.455383 244.671751 
L 267.661313 217.12112 
L 267.773103 216.481993 
L 268.098014 220.823656 
L 268.327478 211.841914 
L 268.417695 238.257615 
L 268.61251 229.797106 
L 268.709918 229.501744 
L 268.868778 252.382606 
L 269.002796 198.533705 
L 269.272138 252.401787 
L 269.33882 255.45955 
L 269.412039 252.05736 
L 269.498334 241.887208 
L 269.576783 248.305618 
L 269.628429 268.613332 
L 269.72126 231.33636 
L 269.789904 257.995095 
L 269.886658 230.152341 
L 269.946148 262.398468 
L 270.057939 217.642219 
L 270.161884 222.099885 
L 270.344279 238.155785 
L 270.443648 226.589878 
L 270.541709 226.874102 
L 270.621466 248.301298 
L 270.716913 230.715813 
L 270.790786 251.556861 
L 270.888847 231.516686 
L 270.969258 247.167721 
L 271.083009 213.787893 
L 271.186955 226.130507 
L 271.317703 200.764925 
L 271.403998 241.030569 
L 271.532132 202.318662 
L 271.649805 272.254126 
L 271.727601 248.516673 
L 271.787092 262.767646 
L 271.924378 251.706346 
L 271.989752 257.929161 
L 272.056434 256.258174 
L 272.13423 248.377321 
L 272.206142 252.044817 
L 272.348004 253.911439 
L 272.463717 212.8366 
L 272.53236 255.230448 
L 272.650034 211.769837 
L 272.714755 259.973428 
L 272.782744 257.685115 
L 272.906955 206.347196 
L 272.982136 250.031206 
L 273.063854 245.575038 
L 273.203755 256.508426 
L 273.319468 213.193022 
L 273.435181 213.867511 
L 273.543702 220.422849 
L 273.621498 249.774715 
L 273.720213 226.266897 
L 273.81566 227.188977 
L 273.926796 216.415411 
L 273.982364 266.449233 
L 274.05493 252.096432 
L 274.213136 244.870535 
L 274.432794 213.208767 
L 274.545892 213.929685 
L 274.677294 263.51568 
L 274.90349 214.576202 
L 275.10615 261.215304 
L 275.30685 255.855055 
L 275.376801 254.542495 
L 275.514087 256.493434 
L 275.72067 218.759128 
L 275.83246 216.126471 
L 275.974323 260.484859 
L 276.042966 255.664526 
L 276.2672 215.975998 
L 276.356109 238.564351 
L 276.456786 224.565233 
L 276.550925 233.70596 
L 276.664023 217.511422 
L 276.821575 250.719921 
L 277.040579 212.239668 
L 277.189633 252.730954 
L 277.425635 204.224002 
L 277.669481 210.713095 
L 277.791077 209.255343 
L 277.868873 248.85805 
L 278.084609 205.111056 
L 278.256543 247.626884 
L 278.363104 218.383765 
L 278.465088 223.40418 
L 278.538307 250.600044 
L 278.761887 211.005676 
L 278.866486 222.20965 
L 278.990044 205.452493 
L 279.100527 216.95553 
L 279.337182 207.341923 
L 279.453549 211.935717 
L 279.580375 204.414717 
L 279.677783 227.474472 
L 279.786304 217.940377 
L 279.98635 226.157039 
L 280.195548 221.370648 
L 280.326951 197.17647 
L 280.392979 258.638849 
L 280.528304 194.302609 
L 280.734233 226.984324 
L 281.090524 200.987282 
L 281.205583 217.185321 
L 281.326525 211.499944 
L 281.444853 212.128942 
L 281.568411 209.997796 
L 281.833831 199.409527 
L 281.897898 259.475698 
L 281.963926 257.800487 
L 282.18293 217.844464 
L 282.309757 205.484124 
L 282.430046 211.431293 
L 282.551642 209.698675 
L 282.660817 217.916174 
L 282.771954 217.135714 
L 282.890281 211.65749 
L 283.011224 211.969928 
L 283.142627 201.672548 
L 283.253763 220.92115 
L 283.3649 218.50154 
L 283.46623 225.349155 
L 283.580635 215.778887 
L 283.689157 218.351352 
L 283.796371 224.49922 
L 283.927119 203.283082 
L 284.042832 214.229352 
L 284.162467 211.790063 
L 284.258568 226.713359 
L 284.378203 212.087314 
L 284.491954 214.376568 
L 284.590016 226.439119 
L 284.709651 211.909227 
L 284.827979 213.830113 
L 284.954805 204.92365 
L 285.284292 224.205234 
L 285.401312 216.637354 
L 285.506565 219.07712 
L 285.617702 217.627611 
L 285.864163 209.517744 
L 285.992297 206.829793 
L 286.106049 213.604055 
L 286.226337 206.831756 
L 286.336166 220.336564 
L 286.673498 216.330579 
L 286.783981 221.683284 
L 286.847394 260.187402 
L 286.970952 209.914059 
L 287.032404 261.201129 
L 287.145502 218.925586 
L 287.378888 216.253627 
L 287.514213 203.210112 
L 287.729949 224.833398 
L 287.803822 252.671598 
L 287.914305 217.232436 
L 287.98164 258.260051 
L 288.05486 252.591906 
L 288.120888 259.98719 
L 288.358851 211.94961 
L 288.475871 217.565179 
L 288.540592 260.596937 
L 288.741945 219.487477 
L 288.869425 204.023542 
L 289.083853 226.038163 
L 289.198258 212.0596 
L 289.318547 211.602704 
L 289.435567 210.123585 
L 289.538205 224.65942 
L 289.781398 202.263729 
L 289.889266 221.167134 
L 290.133112 201.294731 
L 290.381535 209.054388 
L 290.482865 225.969487 
L 290.594655 217.587858 
L 290.702523 220.33537 
L 290.814313 214.715937 
L 290.92545 217.503228 
L 291.05816 198.629724 
L 291.286317 220.366277 
L 291.536047 206.014911 
L 291.652413 217.478593 
L 291.781201 202.934155 
L 291.878609 227.338053 
L 292.131608 203.558522 
L 292.248628 215.082158 
L 292.372186 210.014335 
L 292.512741 195.527023 
L 292.655257 196.784597 
L 292.897142 212.070192 
L 293.016124 211.588311 
L 293.131836 213.673883 
L 293.273699 189.793806 
L 293.38745 212.206101 
L 293.507085 211.796331 
L 293.610377 223.958179 
L 293.714976 221.894773 
L 293.941825 215.666339 
L 294.062114 209.566946 
L 294.164752 224.126438 
L 294.509275 206.794969 
L 294.615182 221.138851 
L 294.742008 202.125161 
L 294.857721 215.395051 
L 295.000237 191.464674 
L 295.129024 205.057473 
L 295.261081 202.917683 
L 295.380062 213.417887 
L 295.510157 204.048377 
L 295.671632 175.586023 
L 295.893251 221.291345 
L 295.99785 220.899129 
L 296.138405 187.910105 
L 296.240389 221.712004 
L 296.376368 194.28573 
L 296.482928 220.308393 
L 296.630675 186.191434 
L 296.90394 194.774561 
L 297.043841 191.834459 
L 297.199432 177.338446 
L 297.354369 178.286323 
L 297.617828 203.65634 
L 297.755114 193.457577 
L 297.886517 199.540531 
L 297.993731 218.481484 
L 298.281378 183.801252 
L 298.412781 196.67391 
L 298.549414 191.184514 
L 298.929239 209.635632 
L 299.192044 194.563283 
L 299.241729 270.649716 
L 299.374439 196.589564 
L 299.513032 191.522489 
L 299.615016 222.093218 
L 299.885013 192.14822 
L 300.021645 192.151493 
L 300.164161 186.743623 
L 300.458346 183.664484 
L 300.604131 186.898211 
L 300.749262 186.749258 
L 300.891125 190.314506 
L 301.008145 212.923456 
L 301.296446 186.177969 
L 301.576249 190.39202 
L 301.703075 198.942947 
L 301.829248 198.490975 
L 302.10905 187.806576 
L 302.250913 185.787316 
L 302.39539 185.595307 
L 302.548366 185.975672 
L 302.704611 181.057131 
L 302.853665 184.456559 
L 302.981798 198.862692 
L 303.136736 179.901281 
L 303.279252 192.855529 
L 303.426998 183.803265 
L 303.555786 196.44798 
L 303.647964 232.09169 
L 303.798325 184.184209 
L 303.914691 210.821827 
L 304.083357 164.394049 
L 304.226527 186.886965 
L 304.370351 185.435065 
L 304.521366 180.127984 
L 304.662575 189.70009 
L 304.823396 172.18434 
L 304.978987 177.315244 
L 305.143076 172.691296 
L 305.27121 197.802577 
L 305.422225 183.415026 
L 305.562126 189.165719 
L 305.723601 169.704047 
L 305.863502 186.20411 
L 306.011249 185.886901 
L 306.145266 199.16259 
L 306.31001 172.05711 
L 306.467562 177.444723 
L 306.568239 222.173713 
L 306.715331 184.968991 
L 306.823853 216.902732 
L 306.977482 176.41829 
L 307.110192 198.684275 
L 307.235058 199.9732 
L 307.370383 196.259589 
L 307.500478 199.558933 
L 307.634495 199.184879 
L 307.770474 191.991275 
L 307.858729 232.160132 
L 307.998631 192.937177 
L 308.25163 207.952145 
L 308.34773 225.442104 
L 308.549737 220.355606 
L 308.647145 225.309537 
L 308.788354 189.448811 
L 308.90995 204.635034 
L 309.033508 201.266367 
L 309.166871 192.273517 
L 309.301543 191.512418 
L 309.59965 179.26077 
L 309.750665 180.370743 
L 309.890566 191.591425 
L 310.038312 183.522207 
L 310.18279 184.902933 
L 310.317461 193.699622 
L 310.455401 190.222038 
L 310.852877 196.411215 
L 310.996047 183.525546 
L 311.136602 189.130166 
L 311.279772 185.114767 
L 311.424903 184.661317 
L 311.624949 139.980248 
L 311.771388 183.885717 
L 311.915212 185.025553 
L 312.202859 183.731538 
L 312.34799 185.470439 
L 312.474163 202.379808 
L 312.603604 198.179897 
L 312.728469 201.580009 
L 312.855296 199.559495 
L 312.986044 202.150711 
L 313.127253 189.818027 
L 313.259309 195.937518 
L 313.403787 188.271414 
L 313.537151 196.592937 
L 313.632597 230.465534 
L 313.760731 198.776765 
L 313.884942 210.49931 
L 314.021575 191.558808 
L 314.158861 196.459721 
L 314.298109 191.501087 
L 314.432126 200.660556 
L 314.710621 191.733797 
L 314.842678 199.201259 
L 314.974734 200.376049 
L 315.108098 197.49726 
L 315.240808 197.654924 
L 315.373518 198.667328 
L 315.508189 195.429389 
L 315.645475 197.986775 
L 315.789299 186.52388 
L 316.070409 195.012149 
L 316.219463 183.94601 
L 316.509071 192.234554 
L 316.65551 184.441607 
L 316.927467 199.398942 
L 317.152355 215.76956 
L 317.294218 187.929545 
L 317.406008 213.266806 
L 317.528912 203.602961 
L 317.634819 217.968169 
L 317.74857 209.830438 
L 317.857745 213.60541 
L 317.974112 206.998698 
L 318.07675 220.44153 
L 318.189847 208.471755 
L 318.395777 223.825861 
L 318.621318 207.924786 
L 318.730494 214.770741 
L 318.998529 188.573458 
L 319.107704 217.468883 
L 319.248913 191.987353 
L 319.391429 190.421515 
L 319.530676 195.224445 
L 319.671885 191.119998 
L 319.80198 199.062165 
L 320.063478 195.43606 
L 320.18965 202.684768 
L 320.451802 192.850033 
L 320.710031 201.246108 
L 320.828358 214.337825 
L 321.114045 185.611878 
L 321.408229 183.823627 
L 321.508906 222.552892 
L 321.630502 202.576328 
L 321.749484 205.742438 
L 322.01948 189.40695 
L 322.144345 200.637044 
L 322.273787 201.319939 
L 322.399305 199.836075 
L 322.523517 203.011686 
L 322.618963 224.747662 
L 322.722909 222.076599 
L 323.081814 198.829016 
L 323.211909 200.267136 
L 323.344619 196.254386 
L 323.478637 197.151999 
L 323.613962 193.266188 
L 323.740135 197.47611 
L 323.837542 225.887447 
L 323.976136 188.475055 
L 324.21606 209.671184 
L 324.355962 189.284945 
L 324.698523 217.138166 
L 324.835156 192.817632 
L 325.10646 188.455496 
L 325.430063 229.709025 
L 325.560812 194.429707 
L 325.695483 194.345082 
L 325.847152 183.158994 
L 325.949136 217.660378 
L 326.075962 197.199326 
L 326.217825 192.663467 
L 326.482591 207.013042 
L 326.585883 225.12215 
L 326.848034 197.989187 
L 326.97486 194.495369 
L 327.10757 200.750263 
L 327.306962 224.543723 
L 327.39914 230.132542 
L 327.539695 190.243612 
L 327.682865 190.557122 
L 327.955477 197.753299 
L 328.158791 231.715614 
L 328.294116 194.475744 
L 328.42225 206.402569 
L 328.700745 188.428364 
L 328.842607 188.834239 
L 328.980547 195.862675 
L 329.121102 194.097779 
L 329.379985 209.506773 
L 329.651289 193.492581 
L 329.921285 199.672017 
L 330.023269 225.16872 
L 330.212855 146.428079 
L 330.350141 199.926268 
L 330.490042 197.358929 
L 330.746964 205.552287 
L 330.871829 206.26206 
L 331.041802 173.085419 
L 331.17582 201.364559 
L 331.317682 194.206453 
L 331.441894 206.665101 
L 331.574604 201.852152 
L 331.70143 204.723902 
L 331.843293 197.115014 
L 331.97208 205.905727 
L 332.106751 198.875089 
L 332.200237 226.753881 
L 332.332293 202.364968 
L 332.427086 227.254776 
L 332.696429 193.500739 
L 332.834369 197.102708 
L 332.938968 226.664949 
L 333.044221 215.862668 
L 333.144897 224.820569 
L 333.257341 223.704562 
L 333.471115 216.740627 
L 333.605787 191.381853 
L 333.737189 203.435742 
L 333.876437 186.53836 
L 334.020914 188.045578 
L 334.278489 96.217957 
L 334.392241 213.73106 
L 334.525605 200.212092 
L 334.695578 167.055485 
L 334.839402 192.849065 
L 335.014605 158.220672 
L 335.189155 166.04536 
L 335.62651 120.749182 
L 335.732416 217.060422 
L 335.853359 206.856248 
L 336.074978 126.802472 
L 336.214879 190.939876 
L 336.369163 181.550705 
L 336.505795 203.291665 
L 336.65158 188.035149 
L 336.790174 195.637486 
L 336.933344 189.613945 
L 337.436073 157.122136 
L 337.568783 199.457052 
L 337.746602 160.688055 
L 337.921151 159.101292 
L 338.059745 198.572406 
L 338.232334 159.274608 
L 338.33301 224.581087 
L 338.500369 169.522144 
L 338.689954 154.263295 
L 338.914842 126.513389 
L 339.016827 223.839011 
L 339.137769 213.056102 
L 339.301859 172.734401 
L 339.47837 165.303993 
L 339.655535 170.512624 
L 339.788898 205.673229 
L 339.922916 204.413839 
L 340.204026 194.372679 
L 340.338697 205.25888 
L 340.490366 181.115218 
L 340.768207 203.152785 
L 341.066968 186.06509 
L 341.255246 145.221299 
L 341.434372 158.788134 
L 341.614806 159.645702 
L 341.755361 189.473427 
L 341.899184 190.899225 
L 342.029933 204.189607 
L 342.206444 157.986192 
L 342.395376 151.499603 
L 342.532009 195.962711 
L 342.711788 154.225252 
L 342.904643 147.352915 
L 343.079192 163.315374 
L 343.324346 213.598224 
L 343.440059 210.563968 
L 343.584536 182.147005 
L 343.722476 187.978063 
L 343.963054 115.591449 
L 344.278159 188.831071 
L 344.431135 182.994954 
L 344.57169 187.176261 
L 344.666483 230.185782 
L 344.804423 185.80933 
L 344.939748 189.784346 
L 345.125411 158.343758 
L 345.246354 206.439447 
L 345.381025 188.25785 
L 345.607221 123.879835 
L 345.739277 208.003507 
L 345.873948 203.510141 
L 346.073994 146.962162 
L 346.21128 193.531273 
L 346.433553 132.216638 
L 346.531615 228.250825 
L 346.664979 193.698334 
L 346.795727 208.928437 
L 346.975507 169.049268 
L 347.093181 207.940117 
L 347.227852 204.119348 
L 347.580874 150.901977 
L 347.712277 190.292811 
L 347.896633 155.067249 
L 348.217621 67.268816 
L 348.351638 194.883597 
L 348.486963 187.240016 
L 348.666743 164.117349 
L 348.805337 192.826399 
L 348.943277 191.33202 
L 349.077294 192.902839 
L 349.306105 126.295251 
L 349.42051 211.181486 
L 349.590483 169.334493 
L 349.693121 222.30438 
L 349.916702 133.489851 
L 350.155972 122.703441 
L 350.324638 170.837734 
L 350.504418 158.160254 
L 350.83129 78.46272 
L 351.076444 122.551113 
L 351.226805 182.461659 
L 351.490264 191.756884 
L 351.622974 195.542694 
L 351.902776 89.860081 
L 352.170811 94.725845 
L 352.446691 91.786198 
L 352.773563 62.004246 
L 352.952036 158.679132 
L 353.138353 153.267544 
L 353.465225 75.746117 
L 353.678345 144.898368 
L 353.775099 229.393127 
L 354.12093 151.465019 
L 354.447802 69.253287 
L 354.692956 119.122073 
L 354.83155 195.378349 
L 355.199608 145.415576 
L 355.347354 184.998653 
L 355.529095 152.75092 
L 355.665727 195.630398 
L 355.91415 101.848383 
L 356.076932 172.243676 
L 356.254751 165.808807 
L 356.463295 141.270762 
L 356.643075 167.552564 
L 356.830046 161.710385 
L 357.017016 159.414781 
L 357.287013 207.64409 
L 357.458294 159.659392 
L 357.658339 148.50771 
L 357.791703 196.834965 
L 357.920491 198.264365 
L 358.1055 156.412757 
L 358.285934 161.723882 
L 358.416682 195.46177 
L 358.569005 177.180272 
L 358.706945 189.928774 
L 359.033817 70.95323 
L 359.319503 195.993497 
L 359.509089 152.256955 
L 359.653566 188.18644 
L 359.79216 191.470362 
L 359.925524 197.769653 
L 360.252396 69.618243 
L 360.632875 173.247516 
L 360.959747 68.031824 
L 361.286619 62.079551 
L 361.411484 201.355098 
L 361.597801 159.823104 
L 361.724628 203.085851 
L 361.86126 194.775755 
L 361.995931 193.451683 
L 362.160675 171.771265 
L 362.290116 195.977423 
L 362.469242 160.252806 
L 362.654905 155.362684 
L 362.939284 84.122075 
L 363.226931 89.396078 
L 363.351797 201.567733 
L 363.478623 201.927569 
L 363.876753 123.642145 
L 364.036267 175.286034 
L 364.20101 167.17373 
L 364.448779 109.329311 
L 364.673013 210.705554 
L 364.78415 210.568064 
L 364.99727 138.944062 
L 365.207776 142.677372 
L 365.363367 177.179878 
L 365.518304 179.373114 
L 365.724888 139.923939 
L 365.878517 178.283967 
L 366.035416 174.406927 
L 366.245268 136.793138 
L 366.547298 187.284274 
L 366.727077 159.214904 
L 366.85848 198.86519 
L 367.067678 141.375583 
L 367.199081 195.260298 
L 367.6652 87.1549 
L 367.809678 184.483299 
L 368.035219 123.714212 
L 368.230689 144.334908 
L 368.484341 107.198316 
L 368.746493 101.724658 
L 368.8962 183.840977 
L 369.030218 191.33684 
L 369.189078 176.773012 
L 369.348591 177.410431 
L 369.479994 201.020461 
L 369.634931 178.019099 
L 369.783985 184.715473 
L 369.985992 145.661657 
L 370.462571 185.658415 
L 370.613586 182.374671 
L 370.804479 149.927603 
L 371.014985 143.519037 
L 371.226144 145.205703 
L 371.355585 201.339357 
L 371.502678 184.055353 
L 371.645848 191.159228 
L 371.92042 83.224974 
L 372.164921 110.573756 
L 372.361698 151.670723 
L 372.557167 151.534589 
L 372.844815 202.995372 
L 372.990599 184.500051 
L 373.236407 117.793309 
L 373.394613 176.358886 
L 373.57047 162.982374 
L 373.799935 126.208811 
L 374.0209 135.779946 
L 374.247749 130.183756 
L 374.566123 197.254967 
L 374.800817 121.952351 
L 375.055123 102.348866 
L 375.208099 187.487632 
L 375.46306 198.329022 
L 375.592501 194.229097 
L 375.844846 109.079119 
L 375.984094 194.563188 
L 376.373071 136.34436 
L 376.496629 202.339043 
L 376.622802 205.013782 
L 376.84246 122.995069 
L 377.005242 178.242976 
L 377.062118 267.409158 
L 377.182407 203.660898 
L 377.488359 174.672008 
L 377.79235 177.960511 
L 377.944018 178.664459 
L 378.078036 196.774722 
L 378.357838 184.840588 
L 378.525851 168.629245 
L 378.670982 187.864586 
L 378.854684 160.742643 
L 379.045577 152.686876 
L 379.18744 191.138213 
L 379.340416 176.516619 
L 379.482278 193.752793 
L 379.642446 171.450901 
L 379.784308 188.844926 
L 379.965395 161.982837 
L 380.108565 187.663545 
L 380.261541 176.690118 
L 380.394251 201.740075 
L 380.521078 203.297652 
L 381.049303 187.198209 
L 381.184628 192.490407 
L 381.317992 189.434959 
L 381.472275 181.476487 
L 381.613484 186.381104 
L 381.731812 203.55818 
L 381.858638 203.878349 
L 381.988733 198.740762 
L 382.145632 174.250931 
L 382.304492 174.574513 
L 382.750345 191.045864 
L 382.88044 204.066943 
L 383.026879 186.566959 
L 383.174625 186.264142 
L 383.360288 157.722627 
L 383.560988 146.629412 
L 383.69762 198.312121 
L 383.900935 143.679118 
L 384.055872 175.375879 
L 384.219308 174.540924 
L 384.428506 129.249675 
L 384.562524 198.003481 
L 384.726613 172.593377 
L 384.906393 162.978534 
L 385.069175 168.63309 
L 385.255492 159.534565 
L 385.503915 115.532262 
L 385.798754 203.611165 
L 385.973957 165.286513 
L 386.101437 201.399775 
L 386.266181 168.999716 
L 386.403467 193.322706 
L 386.559712 177.468437 
L 386.77414 134.89865 
L 386.933653 177.788864 
L 387.450765 158.57515 
L 387.597857 188.040848 
L 387.942381 163.210121 
L 388.075091 187.947251 
L 388.28625 132.46 
L 388.481066 148.063418 
L 388.672613 153.267001 
L 388.863506 153.188322 
L 389.006676 188.011578 
L 389.208029 142.771883 
L 389.373426 174.025258 
L 389.540785 169.96469 
L 389.791823 103.181203 
L 390.002328 135.892195 
L 390.204335 143.344721 
L 390.379539 162.579975 
L 390.654111 87.801536 
L 390.980329 179.839502 
L 391.142458 172.05674 
L 391.377152 117.279651 
L 391.600732 128.447202 
L 391.927605 61.743904 
L 392.074697 181.562254 
L 392.236825 164.641458 
L 392.366921 195.198338 
L 392.506168 191.502068 
L 392.666989 170.473112 
L 392.82258 175.099845 
L 393.078194 198.201076 
L 393.314196 113.972748 
L 393.50182 153.263477 
L 393.960095 108.628723 
L 394.101304 191.252121 
L 394.273892 161.254765 
L 394.571346 74.519072 
L 394.898218 90.204381 
L 395.084535 160.1262 
L 395.281312 152.29526 
L 395.542156 99.204827 
L 395.869028 69.372642 
L 396.039001 166.715151 
L 396.365873 53.568 
L 396.54173 157.530686 
L 396.841799 64.252101 
L 397.020925 158.419835 
L 397.217702 143.104409 
L 397.509925 190.37265 
L 397.710625 142.79345 
L 397.917208 137.013517 
L 398.100256 155.788961 
L 398.307493 137.626447 
L 398.487273 159.75459 
L 398.487273 159.75459 
" clip-path="url(#p9b6e552978)" style="fill: none; stroke: #1f77b4; stroke-width: 1.5; stroke-linecap: square"/>
   </g>
   <g id="patch_3">
    <path d="M 57.6 307.584 
L 57.6 41.472 
" style="fill: none; stroke: #000000; stroke-width: 0.8; stroke-linejoin: miter; stroke-linecap: square"/>
   </g>
   <g id="patch_4">
    <path d="M 414.72 307.584 
L 414.72 41.472 
" style="fill: none; stroke: #000000; stroke-width: 0.8; stroke-linejoin: miter; stroke-linecap: square"/>
   </g>
   <g id="patch_5">
    <path d="M 57.6 307.584 
L 414.72 307.584 
" style="fill: none; stroke: #000000; stroke-width: 0.8; stroke-linejoin: miter; stroke-linecap: square"/>
   </g>
   <g id="patch_6">
    <path d="M 57.6 41.472 
L 414.72 41.472 
" style="fill: none; stroke: #000000; stroke-width: 0.8; stroke-linejoin: miter; stroke-linecap: square"/>
   </g>
   <g id="text_18">
    <!-- learning curve -->
    <g transform="translate(192.96375 35.472) scale(0.12 -0.12)">
     <defs>
      <path id="DejaVuSans-6c" d="M 603 4863 
L 1178 4863 
L 1178 0 
L 603 0 
L 603 4863 
z
" transform="scale(0.015625)"/>
      <path id="DejaVuSans-6e" d="M 3513 2113 
L 3513 0 
L 2938 0 
L 2938 2094 
Q 2938 2591 2744 2837 
Q 2550 3084 2163 3084 
Q 1697 3084 1428 2787 
Q 1159 2491 1159 1978 
L 1159 0 
L 581 0 
L 581 3500 
L 1159 3500 
L 1159 2956 
Q 1366 3272 1645 3428 
Q 1925 3584 2291 3584 
Q 2894 3584 3203 3211 
Q 3513 2838 3513 2113 
z
" transform="scale(0.015625)"/>
      <path id="DejaVuSans-67" d="M 2906 1791 
Q 2906 2416 2648 2759 
Q 2391 3103 1925 3103 
Q 1463 3103 1205 2759 
Q 947 2416 947 1791 
Q 947 1169 1205 825 
Q 1463 481 1925 481 
Q 2391 481 2648 825 
Q 2906 1169 2906 1791 
z
M 3481 434 
Q 3481 -459 3084 -895 
Q 2688 -1331 1869 -1331 
Q 1566 -1331 1297 -1286 
Q 1028 -1241 775 -1147 
L 775 -588 
Q 1028 -725 1275 -790 
Q 1522 -856 1778 -856 
Q 2344 -856 2625 -561 
Q 2906 -266 2906 331 
L 2906 616 
Q 2728 306 2450 153 
Q 2172 0 1784 0 
Q 1141 0 747 490 
Q 353 981 353 1791 
Q 353 2603 747 3093 
Q 1141 3584 1784 3584 
Q 2172 3584 2450 3431 
Q 2728 3278 2906 2969 
L 2906 3500 
L 3481 3500 
L 3481 434 
z
" transform="scale(0.015625)"/>
      <path id="DejaVuSans-20" transform="scale(0.015625)"/>
      <path id="DejaVuSans-63" d="M 3122 3366 
L 3122 2828 
Q 2878 2963 2633 3030 
Q 2388 3097 2138 3097 
Q 1578 3097 1268 2742 
Q 959 2388 959 1747 
Q 959 1106 1268 751 
Q 1578 397 2138 397 
Q 2388 397 2633 464 
Q 2878 531 3122 666 
L 3122 134 
Q 2881 22 2623 -34 
Q 2366 -91 2075 -91 
Q 1284 -91 818 406 
Q 353 903 353 1747 
Q 353 2603 823 3093 
Q 1294 3584 2113 3584 
Q 2378 3584 2631 3529 
Q 2884 3475 3122 3366 
z
" transform="scale(0.015625)"/>
      <path id="DejaVuSans-75" d="M 544 1381 
L 544 3500 
L 1119 3500 
L 1119 1403 
Q 1119 906 1312 657 
Q 1506 409 1894 409 
Q 2359 409 2629 706 
Q 2900 1003 2900 1516 
L 2900 3500 
L 3475 3500 
L 3475 0 
L 2900 0 
L 2900 538 
Q 2691 219 2414 64 
Q 2138 -91 1772 -91 
Q 1169 -91 856 284 
Q 544 659 544 1381 
z
M 1991 3584 
L 1991 3584 
z
" transform="scale(0.015625)"/>
      <path id="DejaVuSans-76" d="M 191 3500 
L 800 3500 
L 1894 563 
L 2988 3500 
L 3597 3500 
L 2284 0 
L 1503 0 
L 191 3500 
z
" transform="scale(0.015625)"/>
     </defs>
     <use xlink:href="#DejaVuSans-6c"/>
     <use xlink:href="#DejaVuSans-65" x="27.783203"/>
     <use xlink:href="#DejaVuSans-61" x="89.306641"/>
     <use xlink:href="#DejaVuSans-72" x="150.585938"/>
     <use xlink:href="#DejaVuSans-6e" x="189.949219"/>
     <use xlink:href="#DejaVuSans-69" x="253.328125"/>
     <use xlink:href="#DejaVuSans-6e" x="281.111328"/>
     <use xlink:href="#DejaVuSans-67" x="344.490234"/>
     <use xlink:href="#DejaVuSans-20" x="407.966797"/>
     <use xlink:href="#DejaVuSans-63" x="439.753906"/>
     <use xlink:href="#DejaVuSans-75" x="494.734375"/>
     <use xlink:href="#DejaVuSans-72" x="558.113281"/>
     <use xlink:href="#DejaVuSans-76" x="599.226562"/>
     <use xlink:href="#DejaVuSans-65" x="658.40625"/>
    </g>
   </g>
  </g>
 </g>
 <defs>
  <clipPath id="p9b6e552978">
   <rect x="57.6" y="41.472" width="357.12" height="266.112"/>
  </clipPath>
 </defs>
</svg>
