<?xml version="1.0" encoding="utf-8" standalone="no"?>
<!DOCTYPE svg PUBLIC "-//W3C//DTD SVG 1.1//EN"
  "http://www.w3.org/Graphics/SVG/1.1/DTD/svg11.dtd">
<svg xmlns:xlink="http://www.w3.org/1999/xlink" width="460.8pt" height="345.6pt" viewBox="0 0 460.8 345.6" xmlns="http://www.w3.org/2000/svg" version="1.1">
 <metadata>
  <rdf:RDF xmlns:dc="http://purl.org/dc/elements/1.1/" xmlns:cc="http://creativecommons.org/ns#" xmlns:rdf="http://www.w3.org/1999/02/22-rdf-syntax-ns#">
   <cc:Work>
    <dc:type rdf:resource="http://purl.org/dc/dcmitype/StillImage"/>
    <dc:date>2023-08-18T15:53:11.932773</dc:date>
    <dc:format>image/svg+xml</dc:format>
    <dc:creator>
     <cc:Agent>
      <dc:title>Matplotlib v3.7.1, https://matplotlib.org/</dc:title>
     </cc:Agent>
    </dc:creator>
   </cc:Work>
  </rdf:RDF>
 </metadata>
 <defs>
  <style type="text/css">*{stroke-linejoin: round; stroke-linecap: butt}</style>
 </defs>
 <g id="figure_1">
  <g id="patch_1">
   <path d="M 0 345.6 
L 460.8 345.6 
L 460.8 0 
L 0 0 
z
" style="fill: #ffffff"/>
  </g>
  <g id="axes_1">
   <g id="patch_2">
    <path d="M 57.6 307.584 
L 414.72 307.584 
L 414.72 41.472 
L 57.6 41.472 
z
" style="fill: #ffffff"/>
   </g>
   <g id="matplotlib.axis_1">
    <g id="xtick_1">
     <g id="line2d_1">
      <defs>
       <path id="mc533df4790" d="M 0 0 
L 0 3.5 
" style="stroke: #000000; stroke-width: 0.8"/>
      </defs>
      <g>
       <use xlink:href="#mc533df4790" x="73.780331" y="307.584" style="stroke: #000000; stroke-width: 0.8"/>
      </g>
     </g>
     <g id="text_1">
      <!-- 0 -->
      <g transform="translate(70.599081 322.182437) scale(0.1 -0.1)">
       <defs>
        <path id="DejaVuSans-30" d="M 2034 4250 
Q 1547 4250 1301 3770 
Q 1056 3291 1056 2328 
Q 1056 1369 1301 889 
Q 1547 409 2034 409 
Q 2525 409 2770 889 
Q 3016 1369 3016 2328 
Q 3016 3291 2770 3770 
Q 2525 4250 2034 4250 
z
M 2034 4750 
Q 2819 4750 3233 4129 
Q 3647 3509 3647 2328 
Q 3647 1150 3233 529 
Q 2819 -91 2034 -91 
Q 1250 -91 836 529 
Q 422 1150 422 2328 
Q 422 3509 836 4129 
Q 1250 4750 2034 4750 
z
" transform="scale(0.015625)"/>
       </defs>
       <use xlink:href="#DejaVuSans-30"/>
      </g>
     </g>
    </g>
    <g id="xtick_2">
     <g id="line2d_2">
      <g>
       <use xlink:href="#mc533df4790" x="139.275811" y="307.584" style="stroke: #000000; stroke-width: 0.8"/>
      </g>
     </g>
     <g id="text_2">
      <!-- 10000 -->
      <g transform="translate(123.369561 322.182437) scale(0.1 -0.1)">
       <defs>
        <path id="DejaVuSans-31" d="M 794 531 
L 1825 531 
L 1825 4091 
L 703 3866 
L 703 4441 
L 1819 4666 
L 2450 4666 
L 2450 531 
L 3481 531 
L 3481 0 
L 794 0 
L 794 531 
z
" transform="scale(0.015625)"/>
       </defs>
       <use xlink:href="#DejaVuSans-31"/>
       <use xlink:href="#DejaVuSans-30" x="63.623047"/>
       <use xlink:href="#DejaVuSans-30" x="127.246094"/>
       <use xlink:href="#DejaVuSans-30" x="190.869141"/>
       <use xlink:href="#DejaVuSans-30" x="254.492188"/>
      </g>
     </g>
    </g>
    <g id="xtick_3">
     <g id="line2d_3">
      <g>
       <use xlink:href="#mc533df4790" x="204.771291" y="307.584" style="stroke: #000000; stroke-width: 0.8"/>
      </g>
     </g>
     <g id="text_3">
      <!-- 20000 -->
      <g transform="translate(188.865041 322.182437) scale(0.1 -0.1)">
       <defs>
        <path id="DejaVuSans-32" d="M 1228 531 
L 3431 531 
L 3431 0 
L 469 0 
L 469 531 
Q 828 903 1448 1529 
Q 2069 2156 2228 2338 
Q 2531 2678 2651 2914 
Q 2772 3150 2772 3378 
Q 2772 3750 2511 3984 
Q 2250 4219 1831 4219 
Q 1534 4219 1204 4116 
Q 875 4013 500 3803 
L 500 4441 
Q 881 4594 1212 4672 
Q 1544 4750 1819 4750 
Q 2544 4750 2975 4387 
Q 3406 4025 3406 3419 
Q 3406 3131 3298 2873 
Q 3191 2616 2906 2266 
Q 2828 2175 2409 1742 
Q 1991 1309 1228 531 
z
" transform="scale(0.015625)"/>
       </defs>
       <use xlink:href="#DejaVuSans-32"/>
       <use xlink:href="#DejaVuSans-30" x="63.623047"/>
       <use xlink:href="#DejaVuSans-30" x="127.246094"/>
       <use xlink:href="#DejaVuSans-30" x="190.869141"/>
       <use xlink:href="#DejaVuSans-30" x="254.492188"/>
      </g>
     </g>
    </g>
    <g id="xtick_4">
     <g id="line2d_4">
      <g>
       <use xlink:href="#mc533df4790" x="270.266771" y="307.584" style="stroke: #000000; stroke-width: 0.8"/>
      </g>
     </g>
     <g id="text_4">
      <!-- 30000 -->
      <g transform="translate(254.360521 322.182437) scale(0.1 -0.1)">
       <defs>
        <path id="DejaVuSans-33" d="M 2597 2516 
Q 3050 2419 3304 2112 
Q 3559 1806 3559 1356 
Q 3559 666 3084 287 
Q 2609 -91 1734 -91 
Q 1441 -91 1130 -33 
Q 819 25 488 141 
L 488 750 
Q 750 597 1062 519 
Q 1375 441 1716 441 
Q 2309 441 2620 675 
Q 2931 909 2931 1356 
Q 2931 1769 2642 2001 
Q 2353 2234 1838 2234 
L 1294 2234 
L 1294 2753 
L 1863 2753 
Q 2328 2753 2575 2939 
Q 2822 3125 2822 3475 
Q 2822 3834 2567 4026 
Q 2313 4219 1838 4219 
Q 1578 4219 1281 4162 
Q 984 4106 628 3988 
L 628 4550 
Q 988 4650 1302 4700 
Q 1616 4750 1894 4750 
Q 2613 4750 3031 4423 
Q 3450 4097 3450 3541 
Q 3450 3153 3228 2886 
Q 3006 2619 2597 2516 
z
" transform="scale(0.015625)"/>
       </defs>
       <use xlink:href="#DejaVuSans-33"/>
       <use xlink:href="#DejaVuSans-30" x="63.623047"/>
       <use xlink:href="#DejaVuSans-30" x="127.246094"/>
       <use xlink:href="#DejaVuSans-30" x="190.869141"/>
       <use xlink:href="#DejaVuSans-30" x="254.492188"/>
      </g>
     </g>
    </g>
    <g id="xtick_5">
     <g id="line2d_5">
      <g>
       <use xlink:href="#mc533df4790" x="335.762251" y="307.584" style="stroke: #000000; stroke-width: 0.8"/>
      </g>
     </g>
     <g id="text_5">
      <!-- 40000 -->
      <g transform="translate(319.856001 322.182437) scale(0.1 -0.1)">
       <defs>
        <path id="DejaVuSans-34" d="M 2419 4116 
L 825 1625 
L 2419 1625 
L 2419 4116 
z
M 2253 4666 
L 3047 4666 
L 3047 1625 
L 3713 1625 
L 3713 1100 
L 3047 1100 
L 3047 0 
L 2419 0 
L 2419 1100 
L 313 1100 
L 313 1709 
L 2253 4666 
z
" transform="scale(0.015625)"/>
       </defs>
       <use xlink:href="#DejaVuSans-34"/>
       <use xlink:href="#DejaVuSans-30" x="63.623047"/>
       <use xlink:href="#DejaVuSans-30" x="127.246094"/>
       <use xlink:href="#DejaVuSans-30" x="190.869141"/>
       <use xlink:href="#DejaVuSans-30" x="254.492188"/>
      </g>
     </g>
    </g>
    <g id="xtick_6">
     <g id="line2d_6">
      <g>
       <use xlink:href="#mc533df4790" x="401.257732" y="307.584" style="stroke: #000000; stroke-width: 0.8"/>
      </g>
     </g>
     <g id="text_6">
      <!-- 50000 -->
      <g transform="translate(385.351482 322.182437) scale(0.1 -0.1)">
       <defs>
        <path id="DejaVuSans-35" d="M 691 4666 
L 3169 4666 
L 3169 4134 
L 1269 4134 
L 1269 2991 
Q 1406 3038 1543 3061 
Q 1681 3084 1819 3084 
Q 2600 3084 3056 2656 
Q 3513 2228 3513 1497 
Q 3513 744 3044 326 
Q 2575 -91 1722 -91 
Q 1428 -91 1123 -41 
Q 819 9 494 109 
L 494 744 
Q 775 591 1075 516 
Q 1375 441 1709 441 
Q 2250 441 2565 725 
Q 2881 1009 2881 1497 
Q 2881 1984 2565 2268 
Q 2250 2553 1709 2553 
Q 1456 2553 1204 2497 
Q 953 2441 691 2322 
L 691 4666 
z
" transform="scale(0.015625)"/>
       </defs>
       <use xlink:href="#DejaVuSans-35"/>
       <use xlink:href="#DejaVuSans-30" x="63.623047"/>
       <use xlink:href="#DejaVuSans-30" x="127.246094"/>
       <use xlink:href="#DejaVuSans-30" x="190.869141"/>
       <use xlink:href="#DejaVuSans-30" x="254.492188"/>
      </g>
     </g>
    </g>
    <g id="text_7">
     <!-- timesteps -->
     <g transform="translate(211.443594 335.860562) scale(0.1 -0.1)">
      <defs>
       <path id="DejaVuSans-74" d="M 1172 4494 
L 1172 3500 
L 2356 3500 
L 2356 3053 
L 1172 3053 
L 1172 1153 
Q 1172 725 1289 603 
Q 1406 481 1766 481 
L 2356 481 
L 2356 0 
L 1766 0 
Q 1100 0 847 248 
Q 594 497 594 1153 
L 594 3053 
L 172 3053 
L 172 3500 
L 594 3500 
L 594 4494 
L 1172 4494 
z
" transform="scale(0.015625)"/>
       <path id="DejaVuSans-69" d="M 603 3500 
L 1178 3500 
L 1178 0 
L 603 0 
L 603 3500 
z
M 603 4863 
L 1178 4863 
L 1178 4134 
L 603 4134 
L 603 4863 
z
" transform="scale(0.015625)"/>
       <path id="DejaVuSans-6d" d="M 3328 2828 
Q 3544 3216 3844 3400 
Q 4144 3584 4550 3584 
Q 5097 3584 5394 3201 
Q 5691 2819 5691 2113 
L 5691 0 
L 5113 0 
L 5113 2094 
Q 5113 2597 4934 2840 
Q 4756 3084 4391 3084 
Q 3944 3084 3684 2787 
Q 3425 2491 3425 1978 
L 3425 0 
L 2847 0 
L 2847 2094 
Q 2847 2600 2669 2842 
Q 2491 3084 2119 3084 
Q 1678 3084 1418 2786 
Q 1159 2488 1159 1978 
L 1159 0 
L 581 0 
L 581 3500 
L 1159 3500 
L 1159 2956 
Q 1356 3278 1631 3431 
Q 1906 3584 2284 3584 
Q 2666 3584 2933 3390 
Q 3200 3197 3328 2828 
z
" transform="scale(0.015625)"/>
       <path id="DejaVuSans-65" d="M 3597 1894 
L 3597 1613 
L 953 1613 
Q 991 1019 1311 708 
Q 1631 397 2203 397 
Q 2534 397 2845 478 
Q 3156 559 3463 722 
L 3463 178 
Q 3153 47 2828 -22 
Q 2503 -91 2169 -91 
Q 1331 -91 842 396 
Q 353 884 353 1716 
Q 353 2575 817 3079 
Q 1281 3584 2069 3584 
Q 2775 3584 3186 3129 
Q 3597 2675 3597 1894 
z
M 3022 2063 
Q 3016 2534 2758 2815 
Q 2500 3097 2075 3097 
Q 1594 3097 1305 2825 
Q 1016 2553 972 2059 
L 3022 2063 
z
" transform="scale(0.015625)"/>
       <path id="DejaVuSans-73" d="M 2834 3397 
L 2834 2853 
Q 2591 2978 2328 3040 
Q 2066 3103 1784 3103 
Q 1356 3103 1142 2972 
Q 928 2841 928 2578 
Q 928 2378 1081 2264 
Q 1234 2150 1697 2047 
L 1894 2003 
Q 2506 1872 2764 1633 
Q 3022 1394 3022 966 
Q 3022 478 2636 193 
Q 2250 -91 1575 -91 
Q 1294 -91 989 -36 
Q 684 19 347 128 
L 347 722 
Q 666 556 975 473 
Q 1284 391 1588 391 
Q 1994 391 2212 530 
Q 2431 669 2431 922 
Q 2431 1156 2273 1281 
Q 2116 1406 1581 1522 
L 1381 1569 
Q 847 1681 609 1914 
Q 372 2147 372 2553 
Q 372 3047 722 3315 
Q 1072 3584 1716 3584 
Q 2034 3584 2315 3537 
Q 2597 3491 2834 3397 
z
" transform="scale(0.015625)"/>
       <path id="DejaVuSans-70" d="M 1159 525 
L 1159 -1331 
L 581 -1331 
L 581 3500 
L 1159 3500 
L 1159 2969 
Q 1341 3281 1617 3432 
Q 1894 3584 2278 3584 
Q 2916 3584 3314 3078 
Q 3713 2572 3713 1747 
Q 3713 922 3314 415 
Q 2916 -91 2278 -91 
Q 1894 -91 1617 61 
Q 1341 213 1159 525 
z
M 3116 1747 
Q 3116 2381 2855 2742 
Q 2594 3103 2138 3103 
Q 1681 3103 1420 2742 
Q 1159 2381 1159 1747 
Q 1159 1113 1420 752 
Q 1681 391 2138 391 
Q 2594 391 2855 752 
Q 3116 1113 3116 1747 
z
" transform="scale(0.015625)"/>
      </defs>
      <use xlink:href="#DejaVuSans-74"/>
      <use xlink:href="#DejaVuSans-69" x="39.208984"/>
      <use xlink:href="#DejaVuSans-6d" x="66.992188"/>
      <use xlink:href="#DejaVuSans-65" x="164.404297"/>
      <use xlink:href="#DejaVuSans-73" x="225.927734"/>
      <use xlink:href="#DejaVuSans-74" x="278.027344"/>
      <use xlink:href="#DejaVuSans-65" x="317.236328"/>
      <use xlink:href="#DejaVuSans-70" x="378.759766"/>
      <use xlink:href="#DejaVuSans-73" x="442.236328"/>
     </g>
    </g>
   </g>
   <g id="matplotlib.axis_2">
    <g id="ytick_1">
     <g id="line2d_7">
      <defs>
       <path id="m14de1e6c79" d="M 0 0 
L -3.5 0 
" style="stroke: #000000; stroke-width: 0.8"/>
      </defs>
      <g>
       <use xlink:href="#m14de1e6c79" x="57.6" y="293.587532" style="stroke: #000000; stroke-width: 0.8"/>
      </g>
     </g>
     <g id="text_8">
      <!-- 0 -->
      <g transform="translate(44.2375 297.38675) scale(0.1 -0.1)">
       <use xlink:href="#DejaVuSans-30"/>
      </g>
     </g>
    </g>
    <g id="ytick_2">
     <g id="line2d_8">
      <g>
       <use xlink:href="#m14de1e6c79" x="57.6" y="237.227772" style="stroke: #000000; stroke-width: 0.8"/>
      </g>
     </g>
     <g id="text_9">
      <!-- 50 -->
      <g transform="translate(37.875 241.026991) scale(0.1 -0.1)">
       <use xlink:href="#DejaVuSans-35"/>
       <use xlink:href="#DejaVuSans-30" x="63.623047"/>
      </g>
     </g>
    </g>
    <g id="ytick_3">
     <g id="line2d_9">
      <g>
       <use xlink:href="#m14de1e6c79" x="57.6" y="180.868013" style="stroke: #000000; stroke-width: 0.8"/>
      </g>
     </g>
     <g id="text_10">
      <!-- 100 -->
      <g transform="translate(31.5125 184.667232) scale(0.1 -0.1)">
       <use xlink:href="#DejaVuSans-31"/>
       <use xlink:href="#DejaVuSans-30" x="63.623047"/>
       <use xlink:href="#DejaVuSans-30" x="127.246094"/>
      </g>
     </g>
    </g>
    <g id="ytick_4">
     <g id="line2d_10">
      <g>
       <use xlink:href="#m14de1e6c79" x="57.6" y="124.508254" style="stroke: #000000; stroke-width: 0.8"/>
      </g>
     </g>
     <g id="text_11">
      <!-- 150 -->
      <g transform="translate(31.5125 128.307473) scale(0.1 -0.1)">
       <use xlink:href="#DejaVuSans-31"/>
       <use xlink:href="#DejaVuSans-35" x="63.623047"/>
       <use xlink:href="#DejaVuSans-30" x="127.246094"/>
      </g>
     </g>
    </g>
    <g id="ytick_5">
     <g id="line2d_11">
      <g>
       <use xlink:href="#m14de1e6c79" x="57.6" y="68.148495" style="stroke: #000000; stroke-width: 0.8"/>
      </g>
     </g>
     <g id="text_12">
      <!-- 200 -->
      <g transform="translate(31.5125 71.947714) scale(0.1 -0.1)">
       <use xlink:href="#DejaVuSans-32"/>
       <use xlink:href="#DejaVuSans-30" x="63.623047"/>
       <use xlink:href="#DejaVuSans-30" x="127.246094"/>
      </g>
     </g>
    </g>
    <g id="text_13">
     <!-- rewards -->
     <g transform="translate(25.432812 194.447531) rotate(-90) scale(0.1 -0.1)">
      <defs>
       <path id="DejaVuSans-72" d="M 2631 2963 
Q 2534 3019 2420 3045 
Q 2306 3072 2169 3072 
Q 1681 3072 1420 2755 
Q 1159 2438 1159 1844 
L 1159 0 
L 581 0 
L 581 3500 
L 1159 3500 
L 1159 2956 
Q 1341 3275 1631 3429 
Q 1922 3584 2338 3584 
Q 2397 3584 2469 3576 
Q 2541 3569 2628 3553 
L 2631 2963 
z
" transform="scale(0.015625)"/>
       <path id="DejaVuSans-77" d="M 269 3500 
L 844 3500 
L 1563 769 
L 2278 3500 
L 2956 3500 
L 3675 769 
L 4391 3500 
L 4966 3500 
L 4050 0 
L 3372 0 
L 2619 2869 
L 1863 0 
L 1184 0 
L 269 3500 
z
" transform="scale(0.015625)"/>
       <path id="DejaVuSans-61" d="M 2194 1759 
Q 1497 1759 1228 1600 
Q 959 1441 959 1056 
Q 959 750 1161 570 
Q 1363 391 1709 391 
Q 2188 391 2477 730 
Q 2766 1069 2766 1631 
L 2766 1759 
L 2194 1759 
z
M 3341 1997 
L 3341 0 
L 2766 0 
L 2766 531 
Q 2569 213 2275 61 
Q 1981 -91 1556 -91 
Q 1019 -91 701 211 
Q 384 513 384 1019 
Q 384 1609 779 1909 
Q 1175 2209 1959 2209 
L 2766 2209 
L 2766 2266 
Q 2766 2663 2505 2880 
Q 2244 3097 1772 3097 
Q 1472 3097 1187 3025 
Q 903 2953 641 2809 
L 641 3341 
Q 956 3463 1253 3523 
Q 1550 3584 1831 3584 
Q 2591 3584 2966 3190 
Q 3341 2797 3341 1997 
z
" transform="scale(0.015625)"/>
       <path id="DejaVuSans-64" d="M 2906 2969 
L 2906 4863 
L 3481 4863 
L 3481 0 
L 2906 0 
L 2906 525 
Q 2725 213 2448 61 
Q 2172 -91 1784 -91 
Q 1150 -91 751 415 
Q 353 922 353 1747 
Q 353 2572 751 3078 
Q 1150 3584 1784 3584 
Q 2172 3584 2448 3432 
Q 2725 3281 2906 2969 
z
M 947 1747 
Q 947 1113 1208 752 
Q 1469 391 1925 391 
Q 2381 391 2643 752 
Q 2906 1113 2906 1747 
Q 2906 2381 2643 2742 
Q 2381 3103 1925 3103 
Q 1469 3103 1208 2742 
Q 947 2381 947 1747 
z
" transform="scale(0.015625)"/>
      </defs>
      <use xlink:href="#DejaVuSans-72"/>
      <use xlink:href="#DejaVuSans-65" x="38.863281"/>
      <use xlink:href="#DejaVuSans-77" x="100.386719"/>
      <use xlink:href="#DejaVuSans-61" x="182.173828"/>
      <use xlink:href="#DejaVuSans-72" x="243.453125"/>
      <use xlink:href="#DejaVuSans-64" x="282.816406"/>
      <use xlink:href="#DejaVuSans-73" x="346.292969"/>
     </g>
    </g>
   </g>
   <g id="line2d_12">
    <path d="M 73.832727 289.06647 
L 73.976817 285.094487 
L 74.061961 284.984171 
L 74.173304 278.302978 
L 74.409087 282.661641 
L 74.526979 280.856356 
L 74.644871 286.932811 
L 74.769313 272.193857 
L 75.050943 275.236873 
L 75.195033 276.339742 
L 75.352222 283.828945 
L 75.6797 268.152598 
L 75.849988 285.786414 
L 75.994078 272.953989 
L 76.197114 288.819056 
L 76.590087 274.704254 
L 76.675231 280.41517 
L 76.924114 272.140558 
L 77.035456 276.362544 
L 77.192645 267.843301 
L 77.310537 275.609734 
L 77.467726 268.194583 
L 77.644564 275.056773 
L 77.788654 264.697959 
L 77.860699 287.467422 
L 77.972042 282.031294 
L 78.14233 291.778772 
L 78.469807 243.553795 
L 78.541852 284.06622 
L 78.764537 280.96654 
L 78.934825 269.243293 
L 79.078915 277.095515 
L 79.137861 286.372279 
L 79.209906 285.725415 
L 79.576681 189.942945 
L 79.760068 282.155207 
L 79.904158 278.457911 
L 80.015501 281.189371 
L 80.16614 277.743792 
L 80.382275 285.214798 
L 80.46087 282.128902 
L 80.572212 283.600137 
L 80.788347 262.937877 
L 80.965185 270.288324 
L 81.227167 250.789215 
L 81.410554 251.513867 
L 81.554644 270.446998 
L 81.967266 205.563665 
L 82.065509 277.768943 
L 82.216149 284.82026 
L 82.576374 252.053155 
L 82.700815 286.30005 
L 82.890752 286.532021 
L 82.956248 283.249008 
L 83.034842 285.744686 
L 83.585004 260.232665 
L 83.761842 286.781333 
L 83.997626 275.053123 
L 84.122067 275.683405 
L 84.239959 273.925762 
L 84.390599 284.061608 
L 84.501941 275.862192 
L 84.587085 283.42364 
L 84.724626 280.769623 
L 84.835968 275.272508 
L 84.921112 284.354514 
L 85.163445 279.199955 
L 85.255139 280.647114 
L 85.517121 260.705362 
L 85.654661 277.287542 
L 85.883896 262.606499 
L 85.975589 283.190022 
L 86.10658 285.04538 
L 86.211373 283.035281 
L 86.362013 272.800384 
L 86.486454 271.926984 
L 86.565049 281.755804 
L 86.663292 279.012403 
L 86.885976 282.399937 
L 87.239652 209.270446 
L 87.41649 282.843392 
L 87.56058 273.349761 
L 87.730868 285.259229 
L 88.032147 263.756562 
L 88.13694 289.414803 
L 88.215535 282.652778 
L 88.294129 282.84871 
L 88.490616 286.445809 
L 88.615057 278.341466 
L 88.791895 258.241874 
L 88.87049 286.329866 
L 89.145571 261.64302 
L 89.211066 288.527882 
L 89.309309 284.064827 
L 89.433751 282.223365 
L 89.630237 276.988529 
L 89.715381 285.589748 
L 89.820174 281.527055 
L 89.931516 282.502989 
L 90.036309 285.693619 
L 90.16075 285.397031 
L 90.409633 255.444746 
L 90.494777 284.569898 
L 90.75021 227.797867 
L 90.946696 277.632425 
L 91.103885 284.956491 
L 91.33312 282.215745 
L 91.667147 241.036546 
L 91.870183 277.986102 
L 92.020822 284.343742 
L 92.217309 252.29362 
L 92.322101 280.585299 
L 92.557885 250.282707 
L 92.800218 284.034749 
L 92.92466 273.940195 
L 93.003254 286.08682 
L 93.101498 285.719554 
L 93.265236 272.239084 
L 93.370029 282.592995 
L 93.743353 228.664369 
L 93.907092 257.181122 
L 94.090479 251.905256 
L 94.175623 281.438038 
L 94.490002 259.78601 
L 94.614443 275.376716 
L 95.09911 142.339253 
L 95.217002 281.858123 
L 95.334893 280.871558 
L 95.557578 253.190769 
L 95.714767 277.091666 
L 95.858857 269.683367 
L 95.944001 280.349394 
L 96.081542 269.700547 
L 96.186335 278.242081 
L 96.40247 284.907921 
L 96.598956 273.151241 
L 96.749596 273.859737 
L 96.841289 283.099178 
L 96.952632 281.944621 
L 97.063974 275.38021 
L 97.194965 278.761441 
L 97.312857 274.740223 
L 97.4111 283.636681 
L 97.961262 147.663537 
L 98.203595 285.144354 
L 98.321487 272.221674 
L 98.400082 285.889727 
L 98.635866 285.86349 
L 98.930595 223.130459 
L 99.087784 285.894321 
L 99.271172 278.53271 
L 99.618298 201.906773 
L 99.795136 281.273213 
L 99.978523 261.106538 
L 100.122613 277.255844 
L 100.273253 275.234174 
L 100.358397 282.462489 
L 100.45664 282.006012 
L 100.731721 225.755428 
L 100.803766 283.283362 
L 100.987153 261.54328 
L 101.17709 284.608932 
L 101.288433 276.782592 
L 101.373577 287.023151 
L 101.458721 285.957149 
L 101.655207 280.196201 
L 102.04818 257.024194 
L 102.126775 285.745667 
L 102.257766 285.308031 
L 102.408405 263.993028 
L 102.48045 284.59201 
L 102.604892 284.266608 
L 102.847225 271.75769 
L 102.965117 278.984908 
L 103.233648 283.060557 
L 103.371189 267.320793 
L 103.63972 284.04683 
L 103.954099 270.649509 
L 104.288126 234.457014 
L 104.37327 283.035994 
L 104.602504 252.282001 
L 104.825188 277.259193 
L 104.975828 275.104901 
L 105.028224 287.110627 
L 105.296756 261.628278 
L 105.558738 284.485515 
L 105.748675 264.273147 
L 105.96481 269.045039 
L 106.25299 260.019067 
L 106.639413 286.754038 
L 106.711458 285.407344 
L 106.97344 265.887711 
L 107.176476 283.885023 
L 107.523602 266.590976 
L 107.589098 285.029458 
L 107.70699 285.53222 
L 107.870728 274.556528 
L 108.001719 274.977054 
L 108.086863 280.535273 
L 108.329197 260.121889 
L 108.414341 283.607911 
L 108.519134 276.882072 
L 108.663224 276.77843 
L 108.754917 287.30815 
L 108.957953 287.826539 
L 109.246133 268.509975 
L 109.481917 277.930216 
L 109.540863 286.393656 
L 109.658755 284.206062 
L 109.763548 276.807498 
L 109.829043 287.231741 
L 109.894539 286.591746 
L 109.960034 288.03825 
L 110.058277 283.683861 
L 110.261313 283.375521 
L 110.4578 253.099086 
L 110.588791 289.212307 
L 110.634638 288.560899 
L 111.158601 245.003081 
L 111.368187 287.946366 
L 111.800457 167.566823 
L 112.18688 278.767059 
L 112.48161 214.806079 
L 112.835286 284.732953 
L 112.894232 285.772198 
L 113.084169 274.4928 
L 113.280655 255.736903 
L 113.470592 257.568646 
L 113.955258 269.643676 
L 114.171393 287.541401 
L 114.387529 278.803589 
L 114.498871 286.620513 
L 114.577465 284.821602 
L 114.65606 286.568442 
L 114.878745 270.024722 
L 115.009736 275.114868 
L 115.422357 173.996169 
L 115.546799 287.312544 
L 115.638492 280.302484 
L 115.861177 248.463947 
L 115.952871 286.916846 
L 116.116609 257.151157 
L 116.280348 264.254085 
L 116.358943 284.795796 
L 116.509582 273.120098 
L 116.614375 283.754715 
L 116.719168 276.96984 
L 116.915654 254.283737 
L 117.092492 263.979823 
L 117.190735 285.465854 
L 117.256231 284.655439 
L 117.341375 282.32878 
L 117.439618 283.866071 
L 117.662303 261.394183 
L 117.930834 220.283662 
L 118.336906 284.15586 
L 118.56614 277.574534 
L 118.71023 280.765512 
L 118.86087 279.27632 
L 118.939464 285.721531 
L 119.024609 280.395201 
L 119.1556 280.469669 
L 119.902248 161.847091 
L 120.02014 278.911045 
L 120.144581 280.994147 
L 120.30177 277.584886 
L 120.45896 279.123504 
L 120.635797 283.057611 
L 120.838833 276.272766 
L 121.054968 283.412526 
L 121.17286 281.372768 
L 121.297302 274.482897 
L 121.362797 285.231237 
L 121.519986 288.768264 
L 121.75577 244.205259 
L 121.827815 284.59219 
L 122.174941 252.414924 
L 122.253536 288.393027 
L 122.502419 269.841915 
L 122.587563 285.170448 
L 122.790599 278.247229 
L 122.987085 286.697304 
L 123.216319 263.50402 
L 123.563445 182.863588 
L 123.648589 282.627432 
L 123.805779 278.854367 
L 123.877824 283.983392 
L 124.008815 285.069659 
L 124.329742 270.496703 
L 124.480382 276.064142 
L 124.552427 283.994289 
L 124.748914 269.46427 
L 124.932301 284.977776 
L 125.043643 284.087345 
L 125.285976 274.529293 
L 125.390769 282.825096 
L 125.731346 273.111174 
L 125.934382 284.756663 
L 126.301156 259.124878 
L 126.438697 284.970751 
L 126.615535 287.605324 
L 126.766174 274.209538 
L 126.884066 281.049098 
L 127.028156 274.498596 
L 127.11985 280.147081 
L 127.40803 233.053577 
L 127.591417 264.583332 
L 127.827201 244.047179 
L 128.049886 282.467053 
L 128.161228 277.267105 
L 128.305318 280.866582 
L 128.57385 244.900229 
L 128.842381 280.002952 
L 128.934075 279.115819 
L 129.169858 249.423427 
L 129.307399 268.657151 
L 129.654525 284.115099 
L 129.811714 271.157459 
L 129.936156 285.893195 
L 130.080246 263.850885 
L 130.322579 275.609661 
L 130.473218 262.383819 
L 130.636957 260.1705 
L 130.7352 283.216711 
L 130.866191 280.104426 
L 131.108525 282.302909 
L 131.219867 280.079465 
L 131.46875 242.434248 
L 131.560443 287.297208 
L 131.691434 273.484241 
L 131.770029 282.687297 
L 131.881371 279.668768 
L 132.071308 268.975082 
L 132.215398 272.234194 
L 132.372587 282.704354 
L 132.48393 281.329666 
L 132.654218 275.056209 
L 133.086488 179.653528 
L 133.21093 289.397718 
L 133.407416 274.731795 
L 133.669398 282.46961 
L 133.754542 281.283902 
L 133.93138 271.418489 
L 134.009974 284.627918 
L 134.160614 276.927968 
L 134.566686 230.554233 
L 134.691127 283.30154 
L 134.809019 285.165982 
L 134.933461 275.110025 
L 135.051353 282.346186 
L 135.149596 281.222454 
L 135.306785 265.853194 
L 135.463974 270.181084 
L 135.542569 286.675012 
L 135.752154 278.277537 
L 135.830749 281.416894 
L 135.994487 279.299529 
L 136.086181 280.575197 
L 136.184424 287.881903 
L 136.263019 284.645849 
L 136.439857 269.646582 
L 136.498803 286.825658 
L 136.662541 280.071312 
L 136.741136 283.67458 
L 136.83283 282.753997 
L 136.911424 284.236784 
L 137.029316 280.023176 
L 137.11446 281.592712 
L 137.513983 200.20587 
L 137.795613 251.979353 
L 137.867658 287.08981 
L 137.965901 280.665754 
L 138.077244 283.5806 
L 138.398172 221.071959 
L 138.476766 283.279404 
L 138.581559 278.924212 
L 138.843541 264.915597 
L 139.072775 282.844889 
L 139.171018 280.064203 
L 139.374054 286.484058 
L 139.459198 285.42395 
L 139.629487 266.206287 
L 139.740829 279.666396 
L 139.943865 268.345932 
L 140.035559 284.341923 
L 140.120703 283.660416 
L 140.284441 274.66666 
L 140.389234 285.772902 
L 140.611919 283.898704 
L 140.703612 278.899292 
L 140.867351 287.702601 
L 140.959045 279.253284 
L 141.247225 288.015044 
L 141.476459 263.896632 
L 141.686045 288.473433 
L 142.006973 228.473293 
L 142.118315 281.357652 
L 142.275504 269.250302 
L 142.373747 281.173702 
L 142.845315 234.81125 
L 142.91736 284.459457 
L 143.041801 282.934669 
L 143.107297 284.920695 
L 143.316882 270.938702 
L 143.716405 195.852168 
L 143.965287 281.841552 
L 144.115927 281.464686 
L 144.744684 212.852346 
L 144.849476 287.729297 
L 145.013215 281.020882 
L 145.163855 264.645835 
L 145.307945 266.590017 
L 145.530629 285.744161 
L 145.786062 273.029179 
L 145.995647 255.57104 
L 146.048044 287.455201 
L 146.133188 283.282173 
L 146.224881 279.581585 
L 146.519611 288.671079 
L 146.722647 280.195026 
L 146.807791 288.661762 
L 147.010827 272.503368 
L 147.11562 284.856236 
L 147.187665 283.445168 
L 147.331755 276.892549 
L 147.41035 284.40058 
L 147.55444 268.523812 
L 147.855719 284.617694 
L 148.019458 284.707143 
L 148.091503 290.58391 
L 148.333836 265.799082 
L 148.471376 280.170565 
L 148.576169 280.036903 
L 148.779205 259.257961 
L 148.838151 286.419663 
L 149.047737 282.554577 
L 149.152529 280.569992 
L 149.296619 269.244309 
L 149.421061 272.72876 
L 149.519304 286.232791 
L 149.637196 277.291275 
L 149.800935 275.387989 
L 149.886079 286.504037 
L 150.003971 281.951926 
L 150.180808 267.553029 
L 150.272502 284.53032 
L 150.357646 280.972963 
L 150.547583 251.34386 
L 150.783367 284.832357 
L 150.88161 277.392417 
L 150.992952 277.518066 
L 151.064997 287.12473 
L 151.228736 291.350119 
L 151.490718 267.677113 
L 151.549664 287.375919 
L 151.700304 268.802777 
L 151.831295 274.765022 
L 152.276664 210.818401 
L 152.518997 283.51757 
L 152.61724 278.048503 
L 152.794078 281.373313 
L 152.951267 270.486575 
L 153.069159 274.689002 
L 153.141204 284.717794 
L 153.291844 273.332654 
L 153.553826 279.608552 
L 153.658618 278.216387 
L 153.809258 267.925844 
L 154.176033 287.334567 
L 154.529708 277.271633 
L 154.634501 278.694624 
L 154.804789 265.651956 
L 154.948879 270.931914 
L 155.178114 286.510259 
L 155.302555 282.242855 
L 155.551438 283.552596 
L 155.616933 285.619269 
L 155.715177 281.947103 
L 156.075402 276.426282 
L 156.324284 283.023906 
L 156.429077 278.132251 
L 156.566618 283.758233 
L 156.664861 281.269061 
L 156.756555 286.160849 
L 156.913744 283.615229 
L 157.031636 277.533906 
L 157.123329 281.253398 
L 157.221573 278.154364 
L 157.326365 285.111808 
L 157.431158 274.715165 
L 157.568699 274.238026 
L 157.653843 284.468271 
L 158.027167 224.560556 
L 158.105762 286.486699 
L 158.2695 272.437504 
L 158.41359 276.16323 
L 158.524933 275.305773 
L 158.649374 281.891822 
L 158.84586 257.392855 
L 158.944104 285.193372 
L 159.468068 126.181756 
L 159.57286 288.007267 
L 159.697302 283.656881 
L 160.090275 276.98815 
L 160.175419 284.623829 
L 160.280211 284.416277 
L 160.411202 277.777592 
L 160.483247 286.84613 
L 160.791076 255.908496 
L 160.967914 284.538022 
L 161.151301 278.92063 
L 161.269193 282.966839 
L 161.406734 274.167851 
L 161.45913 287.879497 
L 161.668716 279.401631 
L 161.773508 281.026765 
L 161.930698 260.190553 
L 162.146833 284.148102 
L 162.454661 214.30397 
L 162.716643 283.956341 
L 162.782139 284.201639 
L 162.860733 285.086575 
L 163.024472 282.942312 
L 163.266805 247.443865 
L 163.450193 272.801518 
L 163.600832 271.246276 
L 163.725274 283.688774 
L 163.830067 276.810486 
L 164.124796 284.053549 
L 164.223039 285.424101 
L 164.406427 274.336211 
L 164.720805 236.540153 
L 164.917291 275.750718 
L 165.336463 180.777454 
L 165.611544 284.427176 
L 165.677039 285.813999 
L 165.794931 280.643867 
L 165.899724 285.300383 
L 166.207552 275.569339 
L 166.567778 282.508385 
L 166.718417 267.920001 
L 166.954201 277.078697 
L 167.098291 278.412311 
L 167.196534 286.134618 
L 167.307877 276.123607 
L 167.40612 288.532723 
L 167.589507 255.524224 
L 167.6943 276.105989 
L 167.851489 272.421001 
L 168.034876 287.905692 
L 168.165867 281.270075 
L 168.244462 282.811641 
L 168.427849 261.635678 
L 168.499894 284.917989 
L 168.70293 276.967555 
L 168.886318 283.501161 
L 168.99111 282.910994 
L 169.259642 278.619857 
L 169.449579 278.247104 
L 169.678813 289.425424 
L 169.947344 271.760414 
L 170.032488 282.577502 
L 170.170029 280.365024 
L 170.235524 284.797569 
L 170.353416 274.448989 
L 170.569551 267.212341 
L 170.752939 273.809972 
L 170.969074 259.921016 
L 171.086966 284.949424 
L 171.237605 263.095036 
L 171.45374 254.926243 
L 171.565083 277.671693 
L 171.89256 198.841389 
L 172.030101 283.82116 
L 172.213488 263.123837 
L 172.337929 283.479465 
L 172.423074 282.491668 
L 172.61956 276.115455 
L 172.789848 263.629012 
L 172.861893 282.155438 
L 173.025632 279.143152 
L 173.398956 262.10244 
L 173.994965 173.142296 
L 174.119406 288.681556 
L 174.276596 270.444139 
L 174.636821 178.233967 
L 174.735064 279.744117 
L 174.892253 288.057768 
L 174.957749 285.841204 
L 175.023244 285.869552 
L 175.147685 276.969887 
L 175.285226 276.779483 
L 175.455514 262.902141 
L 175.52101 286.342583 
L 175.763343 262.728997 
L 175.887784 270.097747 
L 175.992577 286.618689 
L 176.189064 256.378129 
L 176.352802 281.549319 
L 176.713027 253.171614 
L 176.81782 284.481444 
L 176.994658 262.485804 
L 177.060154 287.43608 
L 177.236991 266.253807 
L 177.367982 287.166555 
L 177.446577 285.01168 
L 177.636514 256.416444 
L 177.754406 278.661807 
L 178.003288 270.496496 
L 178.088433 286.687664 
L 178.27182 273.939295 
L 178.474856 281.16942 
L 178.612396 269.137648 
L 178.782685 267.639048 
L 178.861279 285.780862 
L 179.254252 278.710787 
L 179.332847 281.731675 
L 179.647225 205.53278 
L 179.968153 276.632963 
L 180.027099 287.688709 
L 180.105693 282.769726 
L 180.269432 270.285547 
L 180.334928 287.441609 
L 180.406973 285.548914 
L 180.701702 262.12445 
L 180.799945 284.26065 
L 180.87854 283.968681 
L 180.937486 287.851664 
L 181.035729 277.745713 
L 181.114324 283.384959 
L 181.46145 190.568761 
L 181.625188 285.271838 
L 181.821675 262.880431 
L 181.978864 284.663096 
L 182.116405 266.681257 
L 182.194999 283.192179 
L 182.273594 281.982443 
L 182.430783 284.68769 
L 182.653468 254.629583 
L 182.863053 247.694681 
L 183.092287 279.685094 
L 183.170882 285.85928 
L 183.328071 284.653272 
L 183.406666 280.793805 
L 183.531107 280.20425 
L 183.688296 283.234596 
L 183.77344 282.2369 
L 183.891332 285.323269 
L 184.028873 275.847537 
L 184.382548 224.476372 
L 184.513539 276.801377 
L 184.64453 275.436208 
L 184.847566 278.102203 
L 185.011305 268.65176 
L 185.188143 272.719341 
L 185.260188 283.515877 
L 185.358431 281.533924 
L 185.456674 283.415898 
L 185.587665 274.839194 
L 185.699007 274.896307 
L 185.797251 279.489165 
L 186.059232 266.822483 
L 186.275368 286.958457 
L 186.373611 285.776879 
L 186.445656 286.041064 
L 186.687989 259.920892 
L 186.766584 286.903657 
L 186.858277 280.345469 
L 186.923773 286.446419 
L 187.10716 274.754578 
L 187.185755 285.425368 
L 187.297097 276.664606 
L 187.473935 286.530232 
L 187.644223 261.331026 
L 187.749016 277.897624 
L 187.873457 273.154498 
L 187.932403 287.108171 
L 188.135439 246.517428 
L 188.187836 289.157299 
L 188.607007 182.026838 
L 188.724899 280.670535 
L 189.157169 171.955033 
L 189.373304 265.758582 
L 189.556691 275.627738 
L 189.615637 286.809538 
L 189.831772 274.840671 
L 189.982412 262.285051 
L 190.067556 281.99796 
L 190.15925 280.093777 
L 190.264042 281.983741 
L 190.401583 269.73185 
L 190.689763 287.405044 
L 190.814204 283.810805 
L 190.886249 284.67518 
L 191.02379 282.644254 
L 191.16133 270.807056 
L 191.285772 271.347421 
L 191.534655 247.500037 
L 191.74424 285.007519 
L 191.816285 284.274154 
L 191.914528 280.198038 
L 191.980024 286.177025 
L 192.255105 246.681642 
L 192.366447 274.498211 
L 192.733222 226.515411 
L 192.883862 284.552077 
L 192.975555 282.296389 
L 193.05415 284.216089 
L 193.178591 275.854123 
L 193.33578 284.306026 
L 193.420924 283.542428 
L 193.492969 287.015204 
L 193.722204 277.800475 
L 193.905591 281.332455 
L 194.036582 280.26907 
L 194.219969 284.819886 
L 194.298564 281.997625 
L 194.724284 158.40068 
L 194.973167 273.164924 
L 195.038663 284.602209 
L 195.398888 254.450539 
L 195.503681 277.349748 
L 195.680519 264.634163 
L 195.785311 284.182366 
L 195.9425 278.725074 
L 196.132437 284.139927 
L 196.230681 279.698899 
L 196.289626 288.485513 
L 196.394419 280.468273 
L 196.479563 287.914658 
L 196.590906 281.282531 
L 196.689149 285.492846 
L 196.885635 264.724704 
L 197.10177 284.786558 
L 197.200014 279.198692 
L 197.291707 280.633593 
L 197.383401 280.55064 
L 197.475095 280.849118 
L 197.566788 279.651981 
L 197.665032 286.457054 
L 197.737077 282.718027 
L 197.881167 262.361167 
L 198.208644 280.979518 
L 198.287239 282.25099 
L 198.542671 274.264687 
L 198.634365 281.122285 
L 198.804653 270.406612 
L 199.079734 225.625812 
L 199.164878 283.640417 
L 199.407211 229.959492 
L 199.623346 280.090473 
L 199.682292 286.105214 
L 199.891878 273.943159 
L 200.121112 255.351491 
L 200.199707 282.459517 
L 200.330698 285.933727 
L 200.59268 253.900387 
L 200.671274 284.274804 
L 200.802265 286.051814 
L 200.907058 283.87981 
L 200.998751 285.141775 
L 201.090445 285.059454 
L 201.16904 282.101302 
L 201.254184 287.294583 
L 201.385175 282.780061 
L 201.483418 286.616582 
L 201.666805 284.775265 
L 201.778148 279.099952 
L 201.869841 282.570815 
L 202.053229 276.464646 
L 202.144922 283.566699 
L 202.347958 264.855873 
L 202.557544 284.923129 
L 202.649238 280.100504 
L 202.747481 279.477139 
L 202.91122 271.3405 
L 203.107706 283.102675 
L 203.186301 282.408616 
L 203.245246 288.847153 
L 203.323841 280.40092 
L 203.389337 285.60726 
L 203.48758 282.005698 
L 203.598922 284.480544 
L 203.762661 258.020274 
L 203.847805 285.928232 
L 203.91985 283.173743 
L 203.991895 283.102964 
L 204.096688 276.997294 
L 204.325922 242.098146 
L 204.443814 279.467827 
L 204.581354 280.630458 
L 204.666498 283.819203 
L 204.810588 283.72375 
L 205.138066 256.715873 
L 205.269057 286.011699 
L 205.452444 280.222108 
L 205.544138 283.423991 
L 205.694777 279.90022 
L 205.760273 286.270736 
L 205.871615 274.248571 
L 205.956759 284.888474 
L 206.028804 283.963921 
L 206.0943 285.403033 
L 206.225291 272.655907 
L 206.277687 287.496258 
L 206.395579 282.440858 
L 206.585516 283.738323 
L 206.742705 273.9534 
L 206.847498 278.411117 
L 207.004687 263.097214 
L 207.129128 281.093562 
L 207.220822 278.402098 
L 207.489354 268.171685 
L 207.574498 285.272909 
L 207.666191 279.258747 
L 207.738236 286.59371 
L 207.816831 283.844085 
L 208.091912 278.460633 
L 208.491434 250.932871 
L 208.69447 286.632342 
L 208.773065 285.570461 
L 208.917155 259.825266 
L 209.080894 285.284691 
L 209.152939 285.86095 
L 209.303578 281.771288 
L 209.362524 286.619947 
L 209.624506 247.658662 
L 209.70965 284.746357 
L 209.879939 279.957768 
L 209.978182 285.397598 
L 210.194317 279.355583 
L 210.371155 285.189143 
L 210.508695 284.441383 
L 210.646236 279.566228 
L 210.888569 257.698417 
L 210.967164 282.370758 
L 211.301191 269.216334 
L 211.419082 281.03927 
L 211.556623 274.181926 
L 211.609019 287.951498 
L 211.694163 284.255977 
L 211.779308 284.084131 
L 211.923398 267.541971 
L 211.995443 284.007003 
L 212.231226 275.840914 
L 212.394965 277.238619 
L 212.512857 276.751599 
L 212.637298 285.058403 
L 212.820686 287.195179 
L 212.938578 280.599529 
L 213.239857 272.371742 
L 213.442893 285.180044 
L 213.737622 281.486682 
L 213.953757 259.142098 
L 214.045451 283.823531 
L 214.143694 277.100687 
L 214.222289 284.015098 
L 214.340181 274.999083 
L 214.444974 284.198723 
L 214.549766 275.333425 
L 214.667658 282.986826 
L 214.78555 282.422836 
L 214.92964 285.294703 
L 215.07373 281.135064 
L 215.250568 287.869601 
L 215.604244 276.521797 
L 215.787631 286.066824 
L 216.010316 276.419092 
L 216.082361 283.597971 
L 216.160955 283.410493 
L 216.331243 273.783543 
L 216.429487 284.695911 
L 216.567027 267.325624 
L 216.652171 283.435943 
L 216.887955 282.027125 
L 216.986198 285.912059 
L 217.320225 229.927887 
L 217.431567 286.792937 
L 217.693549 258.174909 
L 217.863838 286.098445 
L 218.26336 201.15729 
L 218.492594 282.495454 
L 218.728378 275.144107 
L 218.826621 283.052644 
L 219.232693 167.927689 
L 219.298189 285.903333 
L 219.448828 280.630491 
L 219.586369 267.777525 
L 219.750107 286.963102 
L 219.920396 277.968026 
L 220.012089 283.762572 
L 220.097233 283.388778 
L 220.221675 281.552509 
L 220.346116 271.86869 
L 220.509855 282.843433 
L 220.739089 253.199655 
L 220.915927 256.669056 
L 220.994522 281.933689 
L 221.367846 250.048006 
L 221.610179 237.967525 
L 221.688774 285.231856 
L 221.780467 280.822224 
L 221.983503 247.867142 
L 222.455071 286.819081 
L 222.566413 277.65232 
L 222.645008 286.304478 
L 222.789098 283.77768 
L 223.024881 285.158504 
L 223.352359 260.182846 
L 223.404755 287.483389 
L 223.489899 283.578081 
L 223.561944 285.46441 
L 223.778079 278.08441 
L 223.889422 281.895767 
L 223.987665 279.441636 
L 224.05316 287.249632 
L 224.118656 284.698871 
L 224.518178 256.407509 
L 224.701566 280.632366 
L 224.898052 266.38629 
L 224.976647 285.94337 
L 225.055241 282.875034 
L 225.192782 279.595481 
L 225.343421 269.166792 
L 225.51371 286.932701 
L 225.611953 286.839756 
L 225.749493 270.446517 
L 225.926331 285.207256 
L 226.004926 281.228661 
L 226.155565 263.711672 
L 226.338953 286.473548 
L 226.450295 286.534657 
L 226.600935 274.238441 
L 226.699178 281.241694 
L 226.797421 277.989562 
L 227.033205 285.260279 
L 227.131448 276.407997 
L 227.24934 277.170269 
L 227.701259 135.90183 
L 227.779853 284.531138 
L 227.989439 259.826589 
L 228.11388 277.188241 
L 228.231772 275.781583 
L 228.650943 227.468178 
L 228.736087 287.874364 
L 229.174907 258.01353 
L 229.456538 282.351533 
L 229.548231 281.758216 
L 229.666123 275.62505 
L 229.744718 286.9619 
L 229.836411 283.870802 
L 230.026348 241.970675 
L 230.196637 282.975843 
L 230.29488 279.765619 
L 230.406222 282.389144 
L 230.471718 287.516194 
L 230.635456 257.857185 
L 230.733699 283.325849 
L 231.054627 230.557948 
L 231.224916 286.004737 
L 231.499997 278.666431 
L 231.552393 288.850084 
L 231.611339 286.849584 
L 231.696483 285.631472 
L 231.853672 268.862223 
L 232.02396 282.712127 
L 232.135303 276.138002 
L 232.292492 284.730866 
L 232.377636 282.234204 
L 232.502077 270.269819 
L 232.718213 282.713033 
L 232.842654 273.085927 
L 232.940897 284.123945 
L 233.04569 276.348106 
L 233.18978 287.927088 
L 233.458311 271.086803 
L 233.6286 291.842104 
L 233.798888 276.884939 
L 233.851284 290.113269 
L 233.929879 286.069236 
L 234.375248 272.382144 
L 234.650329 242.487236 
L 235.043302 282.740235 
L 235.115347 286.590965 
L 235.265987 271.387079 
L 235.351131 285.969908 
L 235.488671 286.824821 
L 235.586915 284.268592 
L 235.65241 284.421869 
L 235.868545 239.528245 
L 235.94714 282.736946 
L 236.104329 277.874848 
L 236.176374 283.048058 
L 236.300815 270.85526 
L 236.418707 275.053213 
L 236.484203 284.581341 
L 236.562797 283.183164 
L 236.654491 279.568727 
L 236.772383 280.507711 
L 236.877176 287.439189 
L 236.942671 285.222966 
L 237.060563 269.257828 
L 237.139157 285.896762 
L 237.237401 280.046264 
L 237.414238 281.28445 
L 237.53213 279.501257 
L 237.610725 286.154005 
L 237.708968 281.581401 
L 237.787563 285.422026 
L 237.931653 262.449485 
L 238.082292 282.870882 
L 238.206734 270.546888 
L 238.435968 288.727882 
L 238.625905 279.491934 
L 238.822391 288.050075 
L 238.946833 283.368512 
L 239.195716 267.269842 
L 239.320157 272.792916 
L 239.457697 285.532417 
L 239.634535 284.587703 
L 239.732778 278.76057 
L 239.955463 277.198898 
L 240.073355 275.416929 
L 240.15195 281.417593 
L 240.322238 260.647535 
L 240.381184 285.165049 
L 240.499076 275.212135 
L 240.610418 282.828791 
L 240.708661 282.49291 
L 240.800355 281.896622 
L 241.01649 261.361053 
L 241.088535 286.253462 
L 241.186778 277.833206 
L 241.45531 285.612922 
L 241.579751 270.945299 
L 241.651796 285.761875 
L 241.874481 253.015381 
L 242.103715 287.029161 
L 242.339499 277.61327 
L 242.549084 250.904911 
L 242.791417 278.743733 
L 242.928958 286.102597 
L 242.994453 285.359361 
L 243.059949 286.087893 
L 243.302282 273.355156 
L 243.374327 285.444429 
L 243.564264 278.171484 
L 243.649408 281.472758 
L 243.91794 213.854422 
L 244.20612 281.269344 
L 244.34366 273.33176 
L 244.513948 289.058984 
L 244.651489 286.637219 
L 244.815228 271.650419 
L 244.900372 281.905265 
L 244.985516 280.621364 
L 245.090309 280.909011 
L 245.352291 270.572073 
L 245.411237 285.682991 
L 245.516029 277.930147 
L 245.594624 284.161294 
L 245.679768 282.337997 
L 245.895903 274.501085 
L 246.046543 286.733161 
L 246.269227 267.353132 
L 246.393669 288.200051 
L 246.505011 283.8947 
L 246.570507 287.344711 
L 246.688398 277.047295 
L 246.845588 286.504939 
L 247.140317 224.581285 
L 247.349903 284.407527 
L 247.415398 284.261717 
L 247.507092 281.149787 
L 247.598786 285.392166 
L 247.716677 283.308423 
L 247.814921 285.207896 
L 247.880416 291.352198 
L 248.031056 285.29912 
L 248.234092 283.736812 
L 248.332335 275.204917 
L 248.541921 287.7961 
L 248.640164 282.140509 
L 248.731857 283.735127 
L 248.908695 263.758427 
L 248.98074 284.385569 
L 249.078983 278.033546 
L 249.216524 277.578683 
L 249.314767 278.856273 
L 249.511254 264.356527 
L 249.583299 286.034801 
L 249.668443 280.992104 
L 249.760136 281.280168 
L 249.85183 279.438741 
L 249.950073 282.069222 
L 250.067965 280.491667 
L 250.179308 276.665241 
L 250.362695 281.487806 
L 250.500235 282.919529 
L 250.552632 287.011265 
L 250.755668 259.164293 
L 250.919406 283.391158 
L 251.024199 272.730239 
L 251.292731 286.450844 
L 251.390974 282.482122 
L 251.456469 287.414595 
L 251.58746 273.646014 
L 251.666055 283.492499 
L 251.941136 230.647429 
L 252.157271 242.005869 
L 252.222767 285.495866 
L 252.366857 268.849664 
L 252.412703 289.144109 
L 252.628838 261.089123 
L 252.687784 286.064507 
L 252.831874 266.386782 
L 252.962865 287.966435 
L 253.257595 271.337163 
L 253.408235 284.342799 
L 253.657118 219.952345 
L 253.748811 285.889973 
L 253.886352 281.082226 
L 254.023892 287.102538 
L 254.115586 289.396976 
L 254.226928 275.127126 
L 254.390667 285.752559 
L 254.515108 282.465989 
L 254.580604 286.225654 
L 254.672297 279.343741 
L 254.934279 288.679524 
L 255.124216 256.891395 
L 255.222459 282.618431 
L 255.327252 279.495367 
L 255.471342 287.410676 
L 255.563036 285.670228 
L 255.700576 282.615108 
L 255.785721 283.107912 
L 255.857766 287.009284 
L 255.949459 284.212879 
L 256.001856 288.40502 
L 256.087 280.594769 
L 256.152495 287.572027 
L 256.394829 238.803783 
L 256.565117 285.493251 
L 256.689558 265.417391 
L 256.755054 285.434212 
L 256.840198 280.739249 
L 256.892594 288.914531 
L 256.977738 288.216421 
L 257.115279 284.424074 
L 257.272468 264.801334 
L 257.357612 285.485159 
L 257.580297 277.281177 
L 257.652342 283.813192 
L 257.789882 266.640662 
L 257.848828 286.140159 
L 257.97327 272.116351 
L 258.045315 284.250898 
L 258.248351 269.983377 
L 258.392441 283.27935 
L 258.503783 276.477119 
L 258.582378 287.365684 
L 258.654423 283.424467 
L 258.733017 285.048806 
L 258.916405 278.466123 
L 258.98845 282.963897 
L 259.073594 281.791688 
L 259.158738 281.974688 
L 259.217684 285.419327 
L 259.322477 278.078107 
L 259.466567 286.916428 
L 259.538612 283.581072 
L 259.649954 277.176238 
L 259.721999 286.542564 
L 259.964332 276.121058 
L 260.475197 144.291364 
L 260.658584 285.137914 
L 260.743728 284.219401 
L 260.86817 275.679883 
L 260.933665 285.63621 
L 261.064656 278.02644 
L 261.1629 280.63258 
L 261.228395 285.487297 
L 261.372485 262.460634 
L 261.44453 285.22018 
L 261.536224 280.465723 
L 261.981593 139.748181 
L 262.178079 287.05235 
L 262.341818 258.115895 
L 262.407314 284.2779 
L 262.590701 283.099414 
L 262.75444 266.21336 
L 262.964025 280.248393 
L 263.049169 280.626571 
L 263.219458 256.260531 
L 263.389746 287.255437 
L 263.48144 279.968072 
L 263.540385 289.896228 
L 263.684476 276.029626 
L 263.828566 288.155292 
L 264.018502 266.493646 
L 264.149493 268.053303 
L 264.228088 285.706507 
L 264.300133 283.980846 
L 264.359079 289.509248 
L 264.535917 259.165781 
L 264.706205 282.790197 
L 264.791349 282.681642 
L 264.889592 278.0717 
L 264.981286 283.790001 
L 265.112277 275.66825 
L 265.171223 285.350731 
L 265.380808 247.239576 
L 265.557646 283.07599 
L 265.636241 284.420798 
L 265.727935 276.998689 
L 265.78688 286.701101 
L 265.852376 285.0297 
L 265.924421 283.112206 
L 266.009565 287.872815 
L 266.153655 273.4331 
L 266.330493 283.619774 
L 266.468033 271.667612 
L 266.572826 277.220882 
L 266.618673 288.982547 
L 266.684169 287.466822 
L 266.749664 287.548106 
L 267.031295 270.8668 
L 267.09679 285.235814 
L 267.221231 264.779507 
L 267.299826 283.731912 
L 267.53561 237.058028 
L 267.614204 284.305627 
L 267.686249 283.06634 
L 267.764844 285.509557 
L 267.856538 282.663473 
L 267.928583 283.597063 
L 268.020276 284.536083 
L 268.341204 266.656532 
L 268.426348 285.036632 
L 268.55079 281.287229 
L 268.734177 265.578685 
L 268.780024 289.494785 
L 268.83897 288.129641 
L 269.048555 283.132755 
L 269.245042 247.830573 
L 269.448078 279.187301 
L 269.520123 285.774539 
L 269.624916 282.373401 
L 269.70351 287.980951 
L 269.795204 280.474035 
L 269.880348 281.528418 
L 269.958943 287.13521 
L 270.240573 272.914021 
L 270.299519 286.76549 
L 270.620447 198.247052 
L 270.679393 285.744623 
L 270.830032 263.579192 
L 270.961023 286.936034 
L 271.046167 279.787332 
L 271.098564 287.283346 
L 271.170609 285.154575 
L 271.340897 259.855397 
L 271.478438 290.14775 
L 271.537384 288.83494 
L 271.74042 282.306721 
L 271.891059 280.038549 
L 271.963104 287.173283 
L 272.0286 284.93266 
L 272.094095 286.661766 
L 272.257834 282.425831 
L 272.323329 287.427426 
L 272.382275 285.973997 
L 272.519816 284.755195 
L 272.696654 280.975261 
L 272.762149 286.128374 
L 272.945536 255.395848 
L 273.122374 283.736369 
L 273.240266 273.776501 
L 273.33196 278.799302 
L 273.554644 260.434181 
L 273.823176 289.20097 
L 273.91487 286.285322 
L 274.039311 286.320982 
L 274.131005 282.420782 
L 274.1965 285.28058 
L 274.406086 278.921114 
L 274.582923 287.348731 
L 274.63532 286.432014 
L 274.759761 274.788478 
L 274.851455 279.802631 
L 275.047941 276.479473 
L 275.119986 284.926774 
L 275.198581 284.553908 
L 275.270626 284.712834 
L 275.336121 283.660417 
L 275.460563 286.556806 
L 275.670148 276.920315 
L 275.78804 272.060601 
L 275.951779 285.448835 
L 276.023824 284.361166 
L 276.102419 284.538034 
L 276.181013 283.993265 
L 276.259608 284.401672 
L 276.390599 269.545899 
L 276.475743 285.797748 
L 276.560887 282.008829 
L 276.691878 289.346164 
L 276.908013 271.887487 
L 277.006256 275.414934 
L 277.084851 283.043331 
L 277.314085 279.17437 
L 277.471274 266.899267 
L 277.549869 290.220608 
L 277.8184 272.962873 
L 277.975589 267.736566 
L 278.080382 282.377343 
L 278.231022 264.196058 
L 278.289968 286.271502 
L 278.407859 276.262872 
L 278.460256 288.128345 
L 278.532301 286.378895 
L 278.669841 288.497802 
L 279.095562 269.888371 
L 279.174157 284.074781 
L 279.40994 260.642253 
L 279.495084 283.523086 
L 279.639174 279.062474 
L 279.70467 285.277338 
L 279.881508 278.219901 
L 279.953553 286.885965 
L 280.012499 286.115365 
L 280.313778 262.745688 
L 280.457868 281.603881 
L 280.57576 276.755033 
L 280.674003 287.218884 
L 280.962183 274.511448 
L 281.106273 272.040077 
L 281.178318 286.881988 
L 281.283111 277.001201 
L 281.538543 285.395457 
L 281.846372 257.022913 
L 281.938066 283.193241 
L 282.02976 280.929266 
L 282.101805 284.799804 
L 282.285192 254.117113 
L 282.448931 285.842184 
L 282.553723 277.911178 
L 282.632318 284.915193 
L 282.756759 271.030975 
L 282.913948 273.930569 
L 283.051489 285.884574 
L 283.136633 279.205231 
L 283.32002 285.016981 
L 283.640948 271.457354 
L 283.771939 286.573953 
L 283.870183 286.355182 
L 283.988074 271.678904 
L 284.04702 286.31819 
L 284.138714 285.245471 
L 284.210759 287.703185 
L 284.361399 269.187258 
L 284.512038 274.755358 
L 284.63648 271.638491 
L 284.911561 232.295178 
L 285.029452 286.795116 
L 285.108047 284.150335 
L 285.199741 280.405224 
L 285.271786 285.188195 
L 285.487921 277.681998 
L 285.63856 284.474796 
L 285.736804 278.474979 
L 285.966038 284.162276 
L 286.064281 278.055828 
L 286.208371 286.195701 
L 286.313164 282.223781 
L 286.398308 282.904558 
L 286.594794 287.634335 
L 286.679939 280.383775 
L 286.758533 283.826606 
L 286.915722 259.953375 
L 287.190803 286.423293 
L 287.321794 272.428828 
L 287.52483 279.455023 
L 287.727866 280.917487 
L 287.871956 273.82259 
L 288.094641 284.004418 
L 288.205983 276.615392 
L 288.566208 280.496416 
L 288.638253 286.022927 
L 288.762695 271.262259 
L 288.946082 269.274026 
L 289.168767 279.999654 
L 289.306307 264.912447 
L 289.509343 283.030646 
L 289.607587 278.562232 
L 289.686181 282.606218 
L 289.784424 278.212897 
L 289.856469 284.139818 
L 289.948163 281.295385 
L 290.013659 285.089196 
L 290.105352 281.991072 
L 290.27564 261.930329 
L 290.445929 257.912465 
L 290.609667 283.875319 
L 290.694812 283.520368 
L 290.852001 259.029426 
L 291.107433 283.583731 
L 291.231874 273.155386 
L 291.317019 282.946242 
L 291.421811 277.458359 
L 291.533154 281.64481 
L 292.030919 259.530576 
L 292.109514 284.804291 
L 292.240505 282.526482 
L 292.345298 278.0064 
L 292.436991 282.289051 
L 292.509036 281.869276 
L 292.777568 284.544072 
L 292.862712 284.541103 
L 292.941306 278.529797 
L 293.000252 287.096051 
L 293.242586 248.070116 
L 293.32118 289.090914 
L 293.393225 286.615626 
L 293.707604 278.72912 
L 293.76655 287.172449 
L 293.832045 285.219111 
L 294.074378 271.175395 
L 294.172622 279.410714 
L 294.303612 277.287111 
L 294.369108 284.561375 
L 294.473901 276.500259 
L 294.690036 289.059004 
L 294.762081 283.461882 
L 294.873423 289.103282 
L 294.971666 277.301553 
L 295.024063 288.405988 
L 295.299144 253.985366 
L 295.384288 283.531898 
L 295.489081 280.578959 
L 295.554576 285.897536 
L 295.685567 270.990554 
L 295.796909 273.326273 
L 296.07854 261.339573 
L 296.130936 287.18524 
L 296.22918 278.50357 
L 296.288126 287.968443 
L 296.491162 277.881162 
L 296.641801 279.15244 
L 296.79899 282.463132 
L 296.903783 276.982086 
L 296.975828 284.671291 
L 297.074071 284.020296 
L 297.126468 287.674141 
L 297.264008 282.086404 
L 297.427747 270.194876 
L 297.578386 283.559781 
L 297.729026 284.710128 
L 297.827269 284.278152 
L 297.918963 282.704897 
L 298.298837 269.356311 
L 298.370882 287.385278 
L 298.449476 284.199371 
L 298.54117 281.644417 
L 298.659062 271.666901 
L 298.848999 285.089436 
L 298.934143 280.220584 
L 298.993089 287.6211 
L 299.071683 285.577038 
L 299.26817 278.459536 
L 299.399161 286.459237 
L 299.543251 265.092993 
L 299.733188 283.833243 
L 299.98862 232.04857 
L 300.158908 287.478698 
L 300.237503 282.249368 
L 300.348845 278.483491 
L 300.499485 266.774568 
L 300.617377 277.892327 
L 300.892458 269.147362 
L 300.964503 284.270978 
L 301.193737 274.237749 
L 301.481917 285.692748 
L 301.652205 280.821134 
L 301.756998 274.727595 
L 301.887989 287.571598 
L 302.202367 260.204234 
L 302.287512 282.812966 
L 302.503647 280.813731 
L 302.706683 256.323231 
L 302.772178 285.685583 
L 302.863872 282.702415 
L 302.942466 283.2984 
L 303.03416 279.807977 
L 303.256845 283.715053 
L 303.381286 274.57306 
L 303.47298 283.466283 
L 303.584322 282.933379 
L 304.003493 268.910828 
L 304.19343 284.217039 
L 304.298223 278.644989 
L 304.376817 286.121257 
L 304.468511 285.48884 
L 304.579853 274.837526 
L 304.848385 282.443694 
L 304.959727 272.674296 
L 305.031772 284.961192 
L 305.136565 276.9491 
L 305.300304 283.677628 
L 305.529538 239.536494 
L 305.680177 268.747492 
L 305.981457 284.403384 
L 306.086249 284.912773 
L 306.171393 283.024278 
L 306.295835 274.863469 
L 306.36133 287.767562 
L 306.420276 285.779898 
L 306.479222 286.768295 
L 306.551267 285.751657 
L 306.675709 272.938114 
L 306.852546 269.648851 
L 306.990087 269.343333 
L 307.127627 286.557727 
L 307.271718 281.050622 
L 307.389609 270.267633 
L 307.468204 284.079337 
L 307.579546 273.491759 
L 307.743285 287.200575 
L 307.96597 272.845794 
L 308.057663 284.377543 
L 308.195204 266.441066 
L 308.358943 282.321331 
L 308.437537 283.581154 
L 308.666771 276.368748 
L 308.797762 270.827519 
L 309.033546 288.447919 
L 309.171086 287.716663 
L 309.236582 284.944185 
L 309.387222 266.850274 
L 309.531312 266.821806 
L 309.655753 270.271589 
L 309.753996 284.645253 
L 309.930834 268.824477 
L 309.98978 285.062681 
L 310.114221 276.145201 
L 310.271411 285.968387 
L 310.356555 282.234036 
L 310.4286 286.786463 
L 310.500645 282.46128 
L 310.788825 255.642853 
L 310.893618 285.518216 
L 311.024609 270.990369 
L 311.083554 286.90609 
L 311.1556 284.503734 
L 311.227645 283.851679 
L 311.312789 285.912674 
L 311.424131 274.933112 
L 311.489626 285.264946 
L 311.58132 284.204723 
L 311.712311 271.661383 
L 311.784356 285.376501 
L 311.862951 281.796019 
L 312.007041 268.282691 
L 312.098734 283.433111 
L 312.255924 277.777282 
L 312.31487 286.335717 
L 312.472059 258.730512 
L 312.648896 284.446379 
L 312.74059 275.875007 
L 312.838833 286.445467 
L 313.03532 286.858954 
L 313.107365 284.239086 
L 313.225257 275.665713 
L 313.290752 284.545901 
L 313.493788 275.33819 
L 313.60513 285.1294 
L 313.690275 282.013727 
L 313.76232 284.124459 
L 313.912959 268.239222 
L 314.063599 289.465747 
L 314.161842 280.200886 
L 314.273184 284.070076 
L 314.391076 276.903091 
L 314.600662 245.399511 
L 314.823346 287.668479 
L 314.934689 274.67713 
L 314.993635 286.172772 
L 315.281815 213.890211 
L 315.34731 286.147573 
L 315.432454 284.201738 
L 315.596193 268.76966 
L 315.727184 269.612133 
L 315.956418 282.90186 
L 316.120157 257.139797 
L 316.316643 284.639189 
L 316.401787 279.075785 
L 316.486932 280.696729 
L 316.585175 278.241739 
L 316.696517 282.45786 
L 316.781661 276.827132 
L 316.873355 283.696206 
L 317.181184 258.267986 
L 317.285976 272.33306 
L 317.462814 255.372814 
L 317.803391 284.631528 
L 317.868886 284.697254 
L 318.09812 277.137812 
L 318.379751 288.374915 
L 318.471445 282.454009 
L 318.53694 286.202661 
L 318.608985 284.667013 
L 318.785823 279.772457 
L 318.851318 283.145262 
L 318.936463 279.977632 
L 319.126399 283.637166 
L 319.218093 278.754793 
L 319.41458 283.087735 
L 319.499724 281.320047 
L 319.630715 290.39224 
L 319.84685 281.931318 
L 319.918895 286.648001 
L 320.154678 259.881066 
L 320.305318 286.419035 
L 320.881678 234.128678 
L 320.953723 284.88008 
L 321.065066 278.675852 
L 321.176408 281.179739 
L 321.340147 263.799742 
L 321.523534 287.418691 
L 321.595579 283.468805 
L 321.785516 250.530941 
L 321.909957 283.448722 
L 322.060597 268.984905 
L 322.119543 286.301191 
L 322.211237 281.534098 
L 322.316029 283.423432 
L 322.45357 276.022947 
L 322.545264 283.927961 
L 322.617309 282.336547 
L 322.702453 282.012051 
L 322.781047 283.107999 
L 322.859642 282.192394 
L 322.938236 283.406533 
L 323.200218 267.424015 
L 323.311561 276.019843 
L 323.442552 266.641766 
L 323.521146 285.036774 
L 323.724182 277.869908 
L 323.842074 284.630601 
L 324.025461 283.930198 
L 324.136804 278.042674 
L 324.248146 279.42629 
L 324.33984 284.750241 
L 324.523227 260.770909 
L 324.673867 285.319557 
L 324.876903 279.392118 
L 325.073389 251.440776 
L 325.256776 287.556165 
L 325.472911 261.665098 
L 325.649749 286.109083 
L 326.029623 245.925644 
L 326.114767 283.638144 
L 326.560136 155.328791 
L 326.881064 275.86088 
L 327.005506 272.43817 
L 327.071001 283.261291 
L 327.195443 274.717478 
L 327.346082 247.726519 
L 327.581866 282.659815 
L 327.693208 278.089749 
L 328.033785 181.990226 
L 328.236821 279.764574 
L 328.525001 250.559454 
L 328.577397 288.668311 
L 328.780433 247.822557 
L 328.944172 260.560115 
L 329.042415 282.493436 
L 329.140658 278.402284 
L 329.297848 254.514229 
L 329.638424 286.542591 
L 329.887307 263.032972 
L 329.946253 288.299283 
L 330.051046 285.984141 
L 330.149289 278.831601 
L 330.293379 259.44234 
L 330.437469 287.433675 
L 330.575009 273.952112 
L 330.633955 286.069267 
L 330.804244 259.918918 
L 331.00728 287.471015 
L 331.138271 282.335534 
L 331.229964 279.659765 
L 331.341306 281.599477 
L 331.43955 275.882034 
L 331.629487 285.706654 
L 331.694982 284.574841 
L 331.767027 283.110737 
L 331.917667 265.237878 
L 332.01591 281.796001 
L 332.186198 284.965333 
L 332.461279 263.908352 
L 332.533324 283.218507 
L 332.690513 253.593198 
L 332.867351 262.187075 
L 333.070387 285.769559 
L 333.286522 272.23132 
L 333.568153 206.75192 
L 333.653297 285.936464 
L 333.738441 278.85938 
L 333.810486 285.392903 
L 334.072468 225.244964 
L 334.255855 281.140287 
L 334.570234 205.794379 
L 334.688126 271.034906 
L 334.904261 284.349889 
L 335.015603 271.303215 
L 335.172792 283.28121 
L 335.271035 280.202606 
L 335.513369 222.59398 
L 335.618161 280.100838 
L 335.808098 267.168548 
L 336.017684 279.591958 
L 336.181422 270.553264 
L 336.50235 222.074335 
L 336.600594 282.426464 
L 336.744684 291.392949 
L 337.045963 268.490317 
L 337.104909 285.026087 
L 337.209702 279.47854 
L 337.301395 284.016104 
L 337.641972 262.22357 
L 337.720566 282.431831 
L 337.792611 281.990142 
L 337.943251 258.217679 
L 338.133188 278.857433 
L 338.421368 263.542422 
L 338.558908 285.542753 
L 338.644053 285.237764 
L 338.853638 248.117149 
L 338.958431 280.235527 
L 339.063224 277.507237 
L 339.338305 204.116346 
L 339.443097 275.239691 
L 339.567539 271.474165 
L 339.685431 285.195843 
L 339.829521 275.588984 
L 340.143899 285.026013 
L 340.242142 287.131065 
L 340.523773 273.217522 
L 340.608917 284.42881 
L 340.680962 283.257143 
L 340.753007 282.801649 
L 340.831602 283.660038 
L 341.067385 257.166701 
L 341.172178 281.287865 
L 341.401412 256.118633 
L 341.840232 164.41063 
L 342.056367 276.201998 
L 342.233205 241.314268 
L 342.495187 221.286899 
L 342.698223 284.123025 
L 342.816115 287.759377 
L 343.117394 248.952229 
L 343.235286 279.295993 
L 343.333529 275.560617 
L 343.444871 277.675428 
L 343.844394 196.633427 
L 344.001583 268.528139 
L 344.198069 255.458002 
L 344.322511 287.427575 
L 344.440403 272.00126 
L 344.564844 279.841953 
L 344.853024 215.081442 
L 345.108456 231.677182 
L 345.173952 283.539097 
L 345.304943 269.367737 
L 345.429384 273.383455 
L 345.593123 243.091042 
L 345.730663 295.162774 
L 345.946799 286.360225 
L 346.117087 264.935126 
L 346.228429 278.919815 
L 346.490411 243.407051 
L 346.719645 254.061651 
L 346.988177 213.385475 
L 347.158465 241.318997 
L 347.23051 282.802397 
L 347.328753 282.322566 
L 347.944411 53.568 
L 348.114699 285.872204 
L 348.23914 279.368005 
L 348.448726 228.235164 
L 348.645212 278.665872 
L 348.874447 220.248392 
L 348.953041 285.61617 
L 349.234672 253.722105 
L 349.457356 254.397232 
L 349.588347 275.275105 
L 349.883077 219.875132 
L 350.12541 284.73573 
L 350.308798 285.51303 
L 350.524933 233.982257 
L 350.904806 197.262098 
L 351.035797 272.238564 
L 351.29123 215.005949 
L 351.409122 274.150568 
L 351.684203 267.262485 
L 351.828293 270.731332 
L 351.926536 278.434045 
L 352.116473 234.35291 
L 352.254013 278.279751 
L 352.44395 235.093507 
L 352.627338 283.205801 
L 352.928617 238.618889 
L 353.210247 240.681837 
L 353.590121 199.475413 
L 353.924148 194.47486 
L 354.114085 234.817506 
L 354.801787 182.834198 
L 355.273355 130.928927 
L 355.450193 284.721475 
L 355.548436 279.807087 
L 355.659778 277.571797 
L 355.751472 278.388968 
L 355.967607 225.001357 
L 356.092048 277.238164 
L 356.334382 222.530184 
L 356.51122 287.404813 
L 356.740454 266.605531 
L 356.904192 264.654182 
L 357.172724 229.200905 
L 357.270967 281.680857 
L 357.36921 277.429348 
L 357.677039 193.892122 
L 357.873525 233.003138 
L 357.95212 284.442431 
L 358.030715 280.985152 
L 358.135507 277.535634 
L 358.286147 283.978576 
L 358.469534 237.462297 
L 358.711868 218.409046 
L 358.803561 278.540871 
L 359.006597 260.036396 
L 359.137588 269.766368 
L 359.576408 261.56557 
L 359.668102 280.118319 
L 359.864588 234.898779 
L 359.943183 282.344458 
L 360.080723 276.695664 
L 360.984561 98.641909 
L 361.187597 230.765148 
L 361.449579 212.246749 
L 361.639516 241.939347 
L 361.914597 208.259685 
L 362.124182 287.534203 
L 362.242074 284.696153 
L 362.59575 198.601758 
L 362.792236 286.496608 
L 362.929777 251.697695 
L 363.041119 281.658637 
L 363.414443 170.734393 
L 363.532335 289.898317 
L 363.879461 191.34483 
L 364.252785 180.455601 
L 364.652308 240.774143 
L 365.326911 114.754431 
L 365.62819 199.008371 
L 365.732983 280.335049 
L 365.942569 230.016009 
L 366.224199 286.042154 
L 366.414136 236.472966 
L 366.50583 281.582513 
L 366.741614 220.631604 
L 367.023244 204.564406 
L 367.455514 190.764539 
L 367.724046 210.232474 
L 367.933631 278.41837 
L 368.110469 239.272512 
L 368.627883 209.972385 
L 368.81782 237.331189 
L 369.25664 165.524892 
L 369.498973 218.635312 
L 369.623415 272.25308 
L 369.931243 257.256784 
L 370.27182 186.739787 
L 370.658243 289.480525 
L 370.821982 282.521942 
L 370.900576 283.819553 
L 371.156009 217.70952 
L 371.444189 227.046776 
L 371.699621 216.177622 
L 371.86336 271.103455 
L 372.426621 180.393385 
L 372.570711 251.939728 
L 372.760648 288.197147 
L 372.983333 263.972788 
L 373.206017 222.799426 
L 373.356657 268.183404 
L 373.559693 233.576257 
L 373.703783 248.751876 
L 373.867522 243.711794 
L 374.077107 231.228231 
L 374.378386 204.156587 
L 374.653468 203.258697 
L 374.974395 197.980335 
L 375.360819 168.760923 
L 375.727593 180.101904 
L 375.786539 285.326944 
L 375.943728 281.30616 
L 376.172963 222.841367 
L 376.323602 278.529534 
L 376.50044 238.426785 
L 376.768972 266.181227 
L 377.011305 220.461054 
L 377.358431 184.774579 
L 377.574566 225.957235 
L 377.712106 278.139369 
L 377.993737 200.628759 
L 378.360512 286.77407 
L 378.609395 235.041949 
L 378.81243 233.900332 
L 378.930322 270.947405 
L 379.146457 227.89627 
L 379.323295 257.763679 
L 379.591827 205.384373 
L 379.749016 283.99163 
L 380.083043 194.312717 
L 380.469466 209.224344 
L 380.882088 216.262675 
L 381.058925 240.025353 
L 381.261961 233.05564 
L 381.478097 290.801387 
L 381.779376 197.473785 
L 382.061006 294.421361 
L 382.309889 216.497064 
L 382.499826 236.797291 
L 382.794556 212.65769 
L 383.16133 245.15005 
L 383.809736 201.18583 
L 384.03897 236.422636 
L 384.333699 207.598083 
L 385.414375 78.013189 
L 385.604312 232.722311 
L 385.787699 238.997081 
L 385.91869 295.488 
L 386.082429 242.997651 
L 386.318213 233.21512 
L 386.946969 169.720036 
L 387.058311 281.044044 
L 387.405437 182.85465 
L 387.746014 225.322986 
L 387.811509 286.594574 
L 387.994897 239.000237 
L 388.158636 260.478929 
L 388.309275 246.878029 
L 388.374771 284.197823 
L 388.577807 232.450557 
L 389.049374 261.439809 
L 389.324455 206.961162 
L 389.520941 232.585402 
L 389.750176 226.101845 
L 389.946662 232.590407 
L 390.221743 211.871708 
L 390.352734 275.276111 
L 390.516473 242.878802 
L 390.726058 228.290783 
L 391.099383 240.428852 
L 391.269671 241.615214 
L 391.459608 289.338921 
L 391.669193 229.442057 
L 391.878779 230.590678 
L 392.108013 227.438466 
L 392.311049 233.361936 
L 392.415842 274.619765 
L 392.808815 215.362508 
L 393.522715 162.36298 
L 393.771598 216.502598 
L 393.948436 291.650558 
L 394.216967 209.597457 
L 394.420003 264.283906 
L 394.858823 151.222904 
L 395.094607 223.464931 
L 395.284544 236.192184 
L 395.520327 218.989186 
L 395.788859 225.223146 
L 396.05739 211.790911 
L 396.325922 207.522251 
L 396.79094 278.539716 
L 397.046372 213.068333 
L 397.203561 245.867171 
L 397.380399 240.931105 
L 397.531039 293.668617 
L 397.701327 240.5432 
L 397.845417 289.329483 
L 398.08775 217.877077 
L 398.336633 216.504114 
L 398.487273 247.558133 
L 398.487273 247.558133 
" clip-path="url(#p07a3f6af80)" style="fill: none; stroke: #1f77b4; stroke-width: 1.5; stroke-linecap: square"/>
   </g>
   <g id="patch_3">
    <path d="M 57.6 307.584 
L 57.6 41.472 
" style="fill: none; stroke: #000000; stroke-width: 0.8; stroke-linejoin: miter; stroke-linecap: square"/>
   </g>
   <g id="patch_4">
    <path d="M 414.72 307.584 
L 414.72 41.472 
" style="fill: none; stroke: #000000; stroke-width: 0.8; stroke-linejoin: miter; stroke-linecap: square"/>
   </g>
   <g id="patch_5">
    <path d="M 57.6 307.584 
L 414.72 307.584 
" style="fill: none; stroke: #000000; stroke-width: 0.8; stroke-linejoin: miter; stroke-linecap: square"/>
   </g>
   <g id="patch_6">
    <path d="M 57.6 41.472 
L 414.72 41.472 
" style="fill: none; stroke: #000000; stroke-width: 0.8; stroke-linejoin: miter; stroke-linecap: square"/>
   </g>
   <g id="text_14">
    <!-- learning curve -->
    <g transform="translate(192.96375 35.472) scale(0.12 -0.12)">
     <defs>
      <path id="DejaVuSans-6c" d="M 603 4863 
L 1178 4863 
L 1178 0 
L 603 0 
L 603 4863 
z
" transform="scale(0.015625)"/>
      <path id="DejaVuSans-6e" d="M 3513 2113 
L 3513 0 
L 2938 0 
L 2938 2094 
Q 2938 2591 2744 2837 
Q 2550 3084 2163 3084 
Q 1697 3084 1428 2787 
Q 1159 2491 1159 1978 
L 1159 0 
L 581 0 
L 581 3500 
L 1159 3500 
L 1159 2956 
Q 1366 3272 1645 3428 
Q 1925 3584 2291 3584 
Q 2894 3584 3203 3211 
Q 3513 2838 3513 2113 
z
" transform="scale(0.015625)"/>
      <path id="DejaVuSans-67" d="M 2906 1791 
Q 2906 2416 2648 2759 
Q 2391 3103 1925 3103 
Q 1463 3103 1205 2759 
Q 947 2416 947 1791 
Q 947 1169 1205 825 
Q 1463 481 1925 481 
Q 2391 481 2648 825 
Q 2906 1169 2906 1791 
z
M 3481 434 
Q 3481 -459 3084 -895 
Q 2688 -1331 1869 -1331 
Q 1566 -1331 1297 -1286 
Q 1028 -1241 775 -1147 
L 775 -588 
Q 1028 -725 1275 -790 
Q 1522 -856 1778 -856 
Q 2344 -856 2625 -561 
Q 2906 -266 2906 331 
L 2906 616 
Q 2728 306 2450 153 
Q 2172 0 1784 0 
Q 1141 0 747 490 
Q 353 981 353 1791 
Q 353 2603 747 3093 
Q 1141 3584 1784 3584 
Q 2172 3584 2450 3431 
Q 2728 3278 2906 2969 
L 2906 3500 
L 3481 3500 
L 3481 434 
z
" transform="scale(0.015625)"/>
      <path id="DejaVuSans-20" transform="scale(0.015625)"/>
      <path id="DejaVuSans-63" d="M 3122 3366 
L 3122 2828 
Q 2878 2963 2633 3030 
Q 2388 3097 2138 3097 
Q 1578 3097 1268 2742 
Q 959 2388 959 1747 
Q 959 1106 1268 751 
Q 1578 397 2138 397 
Q 2388 397 2633 464 
Q 2878 531 3122 666 
L 3122 134 
Q 2881 22 2623 -34 
Q 2366 -91 2075 -91 
Q 1284 -91 818 406 
Q 353 903 353 1747 
Q 353 2603 823 3093 
Q 1294 3584 2113 3584 
Q 2378 3584 2631 3529 
Q 2884 3475 3122 3366 
z
" transform="scale(0.015625)"/>
      <path id="DejaVuSans-75" d="M 544 1381 
L 544 3500 
L 1119 3500 
L 1119 1403 
Q 1119 906 1312 657 
Q 1506 409 1894 409 
Q 2359 409 2629 706 
Q 2900 1003 2900 1516 
L 2900 3500 
L 3475 3500 
L 3475 0 
L 2900 0 
L 2900 538 
Q 2691 219 2414 64 
Q 2138 -91 1772 -91 
Q 1169 -91 856 284 
Q 544 659 544 1381 
z
M 1991 3584 
L 1991 3584 
z
" transform="scale(0.015625)"/>
      <path id="DejaVuSans-76" d="M 191 3500 
L 800 3500 
L 1894 563 
L 2988 3500 
L 3597 3500 
L 2284 0 
L 1503 0 
L 191 3500 
z
" transform="scale(0.015625)"/>
     </defs>
     <use xlink:href="#DejaVuSans-6c"/>
     <use xlink:href="#DejaVuSans-65" x="27.783203"/>
     <use xlink:href="#DejaVuSans-61" x="89.306641"/>
     <use xlink:href="#DejaVuSans-72" x="150.585938"/>
     <use xlink:href="#DejaVuSans-6e" x="189.949219"/>
     <use xlink:href="#DejaVuSans-69" x="253.328125"/>
     <use xlink:href="#DejaVuSans-6e" x="281.111328"/>
     <use xlink:href="#DejaVuSans-67" x="344.490234"/>
     <use xlink:href="#DejaVuSans-20" x="407.966797"/>
     <use xlink:href="#DejaVuSans-63" x="439.753906"/>
     <use xlink:href="#DejaVuSans-75" x="494.734375"/>
     <use xlink:href="#DejaVuSans-72" x="558.113281"/>
     <use xlink:href="#DejaVuSans-76" x="599.226562"/>
     <use xlink:href="#DejaVuSans-65" x="658.40625"/>
    </g>
   </g>
  </g>
 </g>
 <defs>
  <clipPath id="p07a3f6af80">
   <rect x="57.6" y="41.472" width="357.12" height="266.112"/>
  </clipPath>
 </defs>
</svg>
