<?xml version="1.0" encoding="utf-8" standalone="no"?>
<!DOCTYPE svg PUBLIC "-//W3C//DTD SVG 1.1//EN"
  "http://www.w3.org/Graphics/SVG/1.1/DTD/svg11.dtd">
<svg xmlns:xlink="http://www.w3.org/1999/xlink" width="460.8pt" height="345.6pt" viewBox="0 0 460.8 345.6" xmlns="http://www.w3.org/2000/svg" version="1.1">
 <metadata>
  <rdf:RDF xmlns:dc="http://purl.org/dc/elements/1.1/" xmlns:cc="http://creativecommons.org/ns#" xmlns:rdf="http://www.w3.org/1999/02/22-rdf-syntax-ns#">
   <cc:Work>
    <dc:type rdf:resource="http://purl.org/dc/dcmitype/StillImage"/>
    <dc:date>2023-08-18T15:54:15.759400</dc:date>
    <dc:format>image/svg+xml</dc:format>
    <dc:creator>
     <cc:Agent>
      <dc:title>Matplotlib v3.7.1, https://matplotlib.org/</dc:title>
     </cc:Agent>
    </dc:creator>
   </cc:Work>
  </rdf:RDF>
 </metadata>
 <defs>
  <style type="text/css">*{stroke-linejoin: round; stroke-linecap: butt}</style>
 </defs>
 <g id="figure_1">
  <g id="patch_1">
   <path d="M 0 345.6 
L 460.8 345.6 
L 460.8 0 
L 0 0 
z
" style="fill: #ffffff"/>
  </g>
  <g id="axes_1">
   <g id="patch_2">
    <path d="M 57.6 307.584 
L 414.72 307.584 
L 414.72 41.472 
L 57.6 41.472 
z
" style="fill: #ffffff"/>
   </g>
   <g id="matplotlib.axis_1">
    <g id="xtick_1">
     <g id="line2d_1">
      <defs>
       <path id="m683f7eb16d" d="M 0 0 
L 0 3.5 
" style="stroke: #000000; stroke-width: 0.8"/>
      </defs>
      <g>
       <use xlink:href="#m683f7eb16d" x="72.193058" y="307.584" style="stroke: #000000; stroke-width: 0.8"/>
      </g>
     </g>
     <g id="text_1">
      <!-- 10000 -->
      <g transform="translate(56.286808 322.182437) scale(0.1 -0.1)">
       <defs>
        <path id="DejaVuSans-31" d="M 794 531 
L 1825 531 
L 1825 4091 
L 703 3866 
L 703 4441 
L 1819 4666 
L 2450 4666 
L 2450 531 
L 3481 531 
L 3481 0 
L 794 0 
L 794 531 
z
" transform="scale(0.015625)"/>
        <path id="DejaVuSans-30" d="M 2034 4250 
Q 1547 4250 1301 3770 
Q 1056 3291 1056 2328 
Q 1056 1369 1301 889 
Q 1547 409 2034 409 
Q 2525 409 2770 889 
Q 3016 1369 3016 2328 
Q 3016 3291 2770 3770 
Q 2525 4250 2034 4250 
z
M 2034 4750 
Q 2819 4750 3233 4129 
Q 3647 3509 3647 2328 
Q 3647 1150 3233 529 
Q 2819 -91 2034 -91 
Q 1250 -91 836 529 
Q 422 1150 422 2328 
Q 422 3509 836 4129 
Q 1250 4750 2034 4750 
z
" transform="scale(0.015625)"/>
       </defs>
       <use xlink:href="#DejaVuSans-31"/>
       <use xlink:href="#DejaVuSans-30" x="63.623047"/>
       <use xlink:href="#DejaVuSans-30" x="127.246094"/>
       <use xlink:href="#DejaVuSans-30" x="190.869141"/>
       <use xlink:href="#DejaVuSans-30" x="254.492188"/>
      </g>
     </g>
    </g>
    <g id="xtick_2">
     <g id="line2d_2">
      <g>
       <use xlink:href="#m683f7eb16d" x="113.184793" y="307.584" style="stroke: #000000; stroke-width: 0.8"/>
      </g>
     </g>
     <g id="text_2">
      <!-- 15000 -->
      <g transform="translate(97.278543 322.182437) scale(0.1 -0.1)">
       <defs>
        <path id="DejaVuSans-35" d="M 691 4666 
L 3169 4666 
L 3169 4134 
L 1269 4134 
L 1269 2991 
Q 1406 3038 1543 3061 
Q 1681 3084 1819 3084 
Q 2600 3084 3056 2656 
Q 3513 2228 3513 1497 
Q 3513 744 3044 326 
Q 2575 -91 1722 -91 
Q 1428 -91 1123 -41 
Q 819 9 494 109 
L 494 744 
Q 775 591 1075 516 
Q 1375 441 1709 441 
Q 2250 441 2565 725 
Q 2881 1009 2881 1497 
Q 2881 1984 2565 2268 
Q 2250 2553 1709 2553 
Q 1456 2553 1204 2497 
Q 953 2441 691 2322 
L 691 4666 
z
" transform="scale(0.015625)"/>
       </defs>
       <use xlink:href="#DejaVuSans-31"/>
       <use xlink:href="#DejaVuSans-35" x="63.623047"/>
       <use xlink:href="#DejaVuSans-30" x="127.246094"/>
       <use xlink:href="#DejaVuSans-30" x="190.869141"/>
       <use xlink:href="#DejaVuSans-30" x="254.492188"/>
      </g>
     </g>
    </g>
    <g id="xtick_3">
     <g id="line2d_3">
      <g>
       <use xlink:href="#m683f7eb16d" x="154.176529" y="307.584" style="stroke: #000000; stroke-width: 0.8"/>
      </g>
     </g>
     <g id="text_3">
      <!-- 20000 -->
      <g transform="translate(138.270279 322.182437) scale(0.1 -0.1)">
       <defs>
        <path id="DejaVuSans-32" d="M 1228 531 
L 3431 531 
L 3431 0 
L 469 0 
L 469 531 
Q 828 903 1448 1529 
Q 2069 2156 2228 2338 
Q 2531 2678 2651 2914 
Q 2772 3150 2772 3378 
Q 2772 3750 2511 3984 
Q 2250 4219 1831 4219 
Q 1534 4219 1204 4116 
Q 875 4013 500 3803 
L 500 4441 
Q 881 4594 1212 4672 
Q 1544 4750 1819 4750 
Q 2544 4750 2975 4387 
Q 3406 4025 3406 3419 
Q 3406 3131 3298 2873 
Q 3191 2616 2906 2266 
Q 2828 2175 2409 1742 
Q 1991 1309 1228 531 
z
" transform="scale(0.015625)"/>
       </defs>
       <use xlink:href="#DejaVuSans-32"/>
       <use xlink:href="#DejaVuSans-30" x="63.623047"/>
       <use xlink:href="#DejaVuSans-30" x="127.246094"/>
       <use xlink:href="#DejaVuSans-30" x="190.869141"/>
       <use xlink:href="#DejaVuSans-30" x="254.492188"/>
      </g>
     </g>
    </g>
    <g id="xtick_4">
     <g id="line2d_4">
      <g>
       <use xlink:href="#m683f7eb16d" x="195.168264" y="307.584" style="stroke: #000000; stroke-width: 0.8"/>
      </g>
     </g>
     <g id="text_4">
      <!-- 25000 -->
      <g transform="translate(179.262014 322.182437) scale(0.1 -0.1)">
       <use xlink:href="#DejaVuSans-32"/>
       <use xlink:href="#DejaVuSans-35" x="63.623047"/>
       <use xlink:href="#DejaVuSans-30" x="127.246094"/>
       <use xlink:href="#DejaVuSans-30" x="190.869141"/>
       <use xlink:href="#DejaVuSans-30" x="254.492188"/>
      </g>
     </g>
    </g>
    <g id="xtick_5">
     <g id="line2d_5">
      <g>
       <use xlink:href="#m683f7eb16d" x="236.16" y="307.584" style="stroke: #000000; stroke-width: 0.8"/>
      </g>
     </g>
     <g id="text_5">
      <!-- 30000 -->
      <g transform="translate(220.25375 322.182437) scale(0.1 -0.1)">
       <defs>
        <path id="DejaVuSans-33" d="M 2597 2516 
Q 3050 2419 3304 2112 
Q 3559 1806 3559 1356 
Q 3559 666 3084 287 
Q 2609 -91 1734 -91 
Q 1441 -91 1130 -33 
Q 819 25 488 141 
L 488 750 
Q 750 597 1062 519 
Q 1375 441 1716 441 
Q 2309 441 2620 675 
Q 2931 909 2931 1356 
Q 2931 1769 2642 2001 
Q 2353 2234 1838 2234 
L 1294 2234 
L 1294 2753 
L 1863 2753 
Q 2328 2753 2575 2939 
Q 2822 3125 2822 3475 
Q 2822 3834 2567 4026 
Q 2313 4219 1838 4219 
Q 1578 4219 1281 4162 
Q 984 4106 628 3988 
L 628 4550 
Q 988 4650 1302 4700 
Q 1616 4750 1894 4750 
Q 2613 4750 3031 4423 
Q 3450 4097 3450 3541 
Q 3450 3153 3228 2886 
Q 3006 2619 2597 2516 
z
" transform="scale(0.015625)"/>
       </defs>
       <use xlink:href="#DejaVuSans-33"/>
       <use xlink:href="#DejaVuSans-30" x="63.623047"/>
       <use xlink:href="#DejaVuSans-30" x="127.246094"/>
       <use xlink:href="#DejaVuSans-30" x="190.869141"/>
       <use xlink:href="#DejaVuSans-30" x="254.492188"/>
      </g>
     </g>
    </g>
    <g id="xtick_6">
     <g id="line2d_6">
      <g>
       <use xlink:href="#m683f7eb16d" x="277.151736" y="307.584" style="stroke: #000000; stroke-width: 0.8"/>
      </g>
     </g>
     <g id="text_6">
      <!-- 35000 -->
      <g transform="translate(261.245486 322.182437) scale(0.1 -0.1)">
       <use xlink:href="#DejaVuSans-33"/>
       <use xlink:href="#DejaVuSans-35" x="63.623047"/>
       <use xlink:href="#DejaVuSans-30" x="127.246094"/>
       <use xlink:href="#DejaVuSans-30" x="190.869141"/>
       <use xlink:href="#DejaVuSans-30" x="254.492188"/>
      </g>
     </g>
    </g>
    <g id="xtick_7">
     <g id="line2d_7">
      <g>
       <use xlink:href="#m683f7eb16d" x="318.143471" y="307.584" style="stroke: #000000; stroke-width: 0.8"/>
      </g>
     </g>
     <g id="text_7">
      <!-- 40000 -->
      <g transform="translate(302.237221 322.182437) scale(0.1 -0.1)">
       <defs>
        <path id="DejaVuSans-34" d="M 2419 4116 
L 825 1625 
L 2419 1625 
L 2419 4116 
z
M 2253 4666 
L 3047 4666 
L 3047 1625 
L 3713 1625 
L 3713 1100 
L 3047 1100 
L 3047 0 
L 2419 0 
L 2419 1100 
L 313 1100 
L 313 1709 
L 2253 4666 
z
" transform="scale(0.015625)"/>
       </defs>
       <use xlink:href="#DejaVuSans-34"/>
       <use xlink:href="#DejaVuSans-30" x="63.623047"/>
       <use xlink:href="#DejaVuSans-30" x="127.246094"/>
       <use xlink:href="#DejaVuSans-30" x="190.869141"/>
       <use xlink:href="#DejaVuSans-30" x="254.492188"/>
      </g>
     </g>
    </g>
    <g id="xtick_8">
     <g id="line2d_8">
      <g>
       <use xlink:href="#m683f7eb16d" x="359.135207" y="307.584" style="stroke: #000000; stroke-width: 0.8"/>
      </g>
     </g>
     <g id="text_8">
      <!-- 45000 -->
      <g transform="translate(343.228957 322.182437) scale(0.1 -0.1)">
       <use xlink:href="#DejaVuSans-34"/>
       <use xlink:href="#DejaVuSans-35" x="63.623047"/>
       <use xlink:href="#DejaVuSans-30" x="127.246094"/>
       <use xlink:href="#DejaVuSans-30" x="190.869141"/>
       <use xlink:href="#DejaVuSans-30" x="254.492188"/>
      </g>
     </g>
    </g>
    <g id="xtick_9">
     <g id="line2d_9">
      <g>
       <use xlink:href="#m683f7eb16d" x="400.126942" y="307.584" style="stroke: #000000; stroke-width: 0.8"/>
      </g>
     </g>
     <g id="text_9">
      <!-- 50000 -->
      <g transform="translate(384.220692 322.182437) scale(0.1 -0.1)">
       <use xlink:href="#DejaVuSans-35"/>
       <use xlink:href="#DejaVuSans-30" x="63.623047"/>
       <use xlink:href="#DejaVuSans-30" x="127.246094"/>
       <use xlink:href="#DejaVuSans-30" x="190.869141"/>
       <use xlink:href="#DejaVuSans-30" x="254.492188"/>
      </g>
     </g>
    </g>
    <g id="text_10">
     <!-- timesteps -->
     <g transform="translate(211.443594 335.860562) scale(0.1 -0.1)">
      <defs>
       <path id="DejaVuSans-74" d="M 1172 4494 
L 1172 3500 
L 2356 3500 
L 2356 3053 
L 1172 3053 
L 1172 1153 
Q 1172 725 1289 603 
Q 1406 481 1766 481 
L 2356 481 
L 2356 0 
L 1766 0 
Q 1100 0 847 248 
Q 594 497 594 1153 
L 594 3053 
L 172 3053 
L 172 3500 
L 594 3500 
L 594 4494 
L 1172 4494 
z
" transform="scale(0.015625)"/>
       <path id="DejaVuSans-69" d="M 603 3500 
L 1178 3500 
L 1178 0 
L 603 0 
L 603 3500 
z
M 603 4863 
L 1178 4863 
L 1178 4134 
L 603 4134 
L 603 4863 
z
" transform="scale(0.015625)"/>
       <path id="DejaVuSans-6d" d="M 3328 2828 
Q 3544 3216 3844 3400 
Q 4144 3584 4550 3584 
Q 5097 3584 5394 3201 
Q 5691 2819 5691 2113 
L 5691 0 
L 5113 0 
L 5113 2094 
Q 5113 2597 4934 2840 
Q 4756 3084 4391 3084 
Q 3944 3084 3684 2787 
Q 3425 2491 3425 1978 
L 3425 0 
L 2847 0 
L 2847 2094 
Q 2847 2600 2669 2842 
Q 2491 3084 2119 3084 
Q 1678 3084 1418 2786 
Q 1159 2488 1159 1978 
L 1159 0 
L 581 0 
L 581 3500 
L 1159 3500 
L 1159 2956 
Q 1356 3278 1631 3431 
Q 1906 3584 2284 3584 
Q 2666 3584 2933 3390 
Q 3200 3197 3328 2828 
z
" transform="scale(0.015625)"/>
       <path id="DejaVuSans-65" d="M 3597 1894 
L 3597 1613 
L 953 1613 
Q 991 1019 1311 708 
Q 1631 397 2203 397 
Q 2534 397 2845 478 
Q 3156 559 3463 722 
L 3463 178 
Q 3153 47 2828 -22 
Q 2503 -91 2169 -91 
Q 1331 -91 842 396 
Q 353 884 353 1716 
Q 353 2575 817 3079 
Q 1281 3584 2069 3584 
Q 2775 3584 3186 3129 
Q 3597 2675 3597 1894 
z
M 3022 2063 
Q 3016 2534 2758 2815 
Q 2500 3097 2075 3097 
Q 1594 3097 1305 2825 
Q 1016 2553 972 2059 
L 3022 2063 
z
" transform="scale(0.015625)"/>
       <path id="DejaVuSans-73" d="M 2834 3397 
L 2834 2853 
Q 2591 2978 2328 3040 
Q 2066 3103 1784 3103 
Q 1356 3103 1142 2972 
Q 928 2841 928 2578 
Q 928 2378 1081 2264 
Q 1234 2150 1697 2047 
L 1894 2003 
Q 2506 1872 2764 1633 
Q 3022 1394 3022 966 
Q 3022 478 2636 193 
Q 2250 -91 1575 -91 
Q 1294 -91 989 -36 
Q 684 19 347 128 
L 347 722 
Q 666 556 975 473 
Q 1284 391 1588 391 
Q 1994 391 2212 530 
Q 2431 669 2431 922 
Q 2431 1156 2273 1281 
Q 2116 1406 1581 1522 
L 1381 1569 
Q 847 1681 609 1914 
Q 372 2147 372 2553 
Q 372 3047 722 3315 
Q 1072 3584 1716 3584 
Q 2034 3584 2315 3537 
Q 2597 3491 2834 3397 
z
" transform="scale(0.015625)"/>
       <path id="DejaVuSans-70" d="M 1159 525 
L 1159 -1331 
L 581 -1331 
L 581 3500 
L 1159 3500 
L 1159 2969 
Q 1341 3281 1617 3432 
Q 1894 3584 2278 3584 
Q 2916 3584 3314 3078 
Q 3713 2572 3713 1747 
Q 3713 922 3314 415 
Q 2916 -91 2278 -91 
Q 1894 -91 1617 61 
Q 1341 213 1159 525 
z
M 3116 1747 
Q 3116 2381 2855 2742 
Q 2594 3103 2138 3103 
Q 1681 3103 1420 2742 
Q 1159 2381 1159 1747 
Q 1159 1113 1420 752 
Q 1681 391 2138 391 
Q 2594 391 2855 752 
Q 3116 1113 3116 1747 
z
" transform="scale(0.015625)"/>
      </defs>
      <use xlink:href="#DejaVuSans-74"/>
      <use xlink:href="#DejaVuSans-69" x="39.208984"/>
      <use xlink:href="#DejaVuSans-6d" x="66.992188"/>
      <use xlink:href="#DejaVuSans-65" x="164.404297"/>
      <use xlink:href="#DejaVuSans-73" x="225.927734"/>
      <use xlink:href="#DejaVuSans-74" x="278.027344"/>
      <use xlink:href="#DejaVuSans-65" x="317.236328"/>
      <use xlink:href="#DejaVuSans-70" x="378.759766"/>
      <use xlink:href="#DejaVuSans-73" x="442.236328"/>
     </g>
    </g>
   </g>
   <g id="matplotlib.axis_2">
    <g id="ytick_1">
     <g id="line2d_10">
      <defs>
       <path id="m8d9bd0076d" d="M 0 0 
L -3.5 0 
" style="stroke: #000000; stroke-width: 0.8"/>
      </defs>
      <g>
       <use xlink:href="#m8d9bd0076d" x="57.6" y="275.296551" style="stroke: #000000; stroke-width: 0.8"/>
      </g>
     </g>
     <g id="text_11">
      <!-- −15 -->
      <g transform="translate(29.495313 279.095769) scale(0.1 -0.1)">
       <defs>
        <path id="DejaVuSans-2212" d="M 678 2272 
L 4684 2272 
L 4684 1741 
L 678 1741 
L 678 2272 
z
" transform="scale(0.015625)"/>
       </defs>
       <use xlink:href="#DejaVuSans-2212"/>
       <use xlink:href="#DejaVuSans-31" x="83.789062"/>
       <use xlink:href="#DejaVuSans-35" x="147.412109"/>
      </g>
     </g>
    </g>
    <g id="ytick_2">
     <g id="line2d_11">
      <g>
       <use xlink:href="#m8d9bd0076d" x="57.6" y="242.73517" style="stroke: #000000; stroke-width: 0.8"/>
      </g>
     </g>
     <g id="text_12">
      <!-- −10 -->
      <g transform="translate(29.495313 246.534389) scale(0.1 -0.1)">
       <use xlink:href="#DejaVuSans-2212"/>
       <use xlink:href="#DejaVuSans-31" x="83.789062"/>
       <use xlink:href="#DejaVuSans-30" x="147.412109"/>
      </g>
     </g>
    </g>
    <g id="ytick_3">
     <g id="line2d_12">
      <g>
       <use xlink:href="#m8d9bd0076d" x="57.6" y="210.17379" style="stroke: #000000; stroke-width: 0.8"/>
      </g>
     </g>
     <g id="text_13">
      <!-- −5 -->
      <g transform="translate(35.857813 213.973008) scale(0.1 -0.1)">
       <use xlink:href="#DejaVuSans-2212"/>
       <use xlink:href="#DejaVuSans-35" x="83.789062"/>
      </g>
     </g>
    </g>
    <g id="ytick_4">
     <g id="line2d_13">
      <g>
       <use xlink:href="#m8d9bd0076d" x="57.6" y="177.612409" style="stroke: #000000; stroke-width: 0.8"/>
      </g>
     </g>
     <g id="text_14">
      <!-- 0 -->
      <g transform="translate(44.2375 181.411628) scale(0.1 -0.1)">
       <use xlink:href="#DejaVuSans-30"/>
      </g>
     </g>
    </g>
    <g id="ytick_5">
     <g id="line2d_14">
      <g>
       <use xlink:href="#m8d9bd0076d" x="57.6" y="145.051028" style="stroke: #000000; stroke-width: 0.8"/>
      </g>
     </g>
     <g id="text_15">
      <!-- 5 -->
      <g transform="translate(44.2375 148.850247) scale(0.1 -0.1)">
       <use xlink:href="#DejaVuSans-35"/>
      </g>
     </g>
    </g>
    <g id="ytick_6">
     <g id="line2d_15">
      <g>
       <use xlink:href="#m8d9bd0076d" x="57.6" y="112.489648" style="stroke: #000000; stroke-width: 0.8"/>
      </g>
     </g>
     <g id="text_16">
      <!-- 10 -->
      <g transform="translate(37.875 116.288867) scale(0.1 -0.1)">
       <use xlink:href="#DejaVuSans-31"/>
       <use xlink:href="#DejaVuSans-30" x="63.623047"/>
      </g>
     </g>
    </g>
    <g id="ytick_7">
     <g id="line2d_16">
      <g>
       <use xlink:href="#m8d9bd0076d" x="57.6" y="79.928267" style="stroke: #000000; stroke-width: 0.8"/>
      </g>
     </g>
     <g id="text_17">
      <!-- 15 -->
      <g transform="translate(37.875 83.727486) scale(0.1 -0.1)">
       <use xlink:href="#DejaVuSans-31"/>
       <use xlink:href="#DejaVuSans-35" x="63.623047"/>
      </g>
     </g>
    </g>
    <g id="ytick_8">
     <g id="line2d_17">
      <g>
       <use xlink:href="#m8d9bd0076d" x="57.6" y="47.366887" style="stroke: #000000; stroke-width: 0.8"/>
      </g>
     </g>
     <g id="text_18">
      <!-- 20 -->
      <g transform="translate(37.875 51.166106) scale(0.1 -0.1)">
       <use xlink:href="#DejaVuSans-32"/>
       <use xlink:href="#DejaVuSans-30" x="63.623047"/>
      </g>
     </g>
    </g>
    <g id="text_19">
     <!-- SAC losses -->
     <g transform="translate(23.415625 201.548313) rotate(-90) scale(0.1 -0.1)">
      <defs>
       <path id="DejaVuSans-53" d="M 3425 4513 
L 3425 3897 
Q 3066 4069 2747 4153 
Q 2428 4238 2131 4238 
Q 1616 4238 1336 4038 
Q 1056 3838 1056 3469 
Q 1056 3159 1242 3001 
Q 1428 2844 1947 2747 
L 2328 2669 
Q 3034 2534 3370 2195 
Q 3706 1856 3706 1288 
Q 3706 609 3251 259 
Q 2797 -91 1919 -91 
Q 1588 -91 1214 -16 
Q 841 59 441 206 
L 441 856 
Q 825 641 1194 531 
Q 1563 422 1919 422 
Q 2459 422 2753 634 
Q 3047 847 3047 1241 
Q 3047 1584 2836 1778 
Q 2625 1972 2144 2069 
L 1759 2144 
Q 1053 2284 737 2584 
Q 422 2884 422 3419 
Q 422 4038 858 4394 
Q 1294 4750 2059 4750 
Q 2388 4750 2728 4690 
Q 3069 4631 3425 4513 
z
" transform="scale(0.015625)"/>
       <path id="DejaVuSans-41" d="M 2188 4044 
L 1331 1722 
L 3047 1722 
L 2188 4044 
z
M 1831 4666 
L 2547 4666 
L 4325 0 
L 3669 0 
L 3244 1197 
L 1141 1197 
L 716 0 
L 50 0 
L 1831 4666 
z
" transform="scale(0.015625)"/>
       <path id="DejaVuSans-43" d="M 4122 4306 
L 4122 3641 
Q 3803 3938 3442 4084 
Q 3081 4231 2675 4231 
Q 1875 4231 1450 3742 
Q 1025 3253 1025 2328 
Q 1025 1406 1450 917 
Q 1875 428 2675 428 
Q 3081 428 3442 575 
Q 3803 722 4122 1019 
L 4122 359 
Q 3791 134 3420 21 
Q 3050 -91 2638 -91 
Q 1578 -91 968 557 
Q 359 1206 359 2328 
Q 359 3453 968 4101 
Q 1578 4750 2638 4750 
Q 3056 4750 3426 4639 
Q 3797 4528 4122 4306 
z
" transform="scale(0.015625)"/>
       <path id="DejaVuSans-20" transform="scale(0.015625)"/>
       <path id="DejaVuSans-6c" d="M 603 4863 
L 1178 4863 
L 1178 0 
L 603 0 
L 603 4863 
z
" transform="scale(0.015625)"/>
       <path id="DejaVuSans-6f" d="M 1959 3097 
Q 1497 3097 1228 2736 
Q 959 2375 959 1747 
Q 959 1119 1226 758 
Q 1494 397 1959 397 
Q 2419 397 2687 759 
Q 2956 1122 2956 1747 
Q 2956 2369 2687 2733 
Q 2419 3097 1959 3097 
z
M 1959 3584 
Q 2709 3584 3137 3096 
Q 3566 2609 3566 1747 
Q 3566 888 3137 398 
Q 2709 -91 1959 -91 
Q 1206 -91 779 398 
Q 353 888 353 1747 
Q 353 2609 779 3096 
Q 1206 3584 1959 3584 
z
" transform="scale(0.015625)"/>
      </defs>
      <use xlink:href="#DejaVuSans-53"/>
      <use xlink:href="#DejaVuSans-41" x="65.351562"/>
      <use xlink:href="#DejaVuSans-43" x="132.009766"/>
      <use xlink:href="#DejaVuSans-20" x="201.833984"/>
      <use xlink:href="#DejaVuSans-6c" x="233.621094"/>
      <use xlink:href="#DejaVuSans-6f" x="261.404297"/>
      <use xlink:href="#DejaVuSans-73" x="322.585938"/>
      <use xlink:href="#DejaVuSans-73" x="374.685547"/>
      <use xlink:href="#DejaVuSans-65" x="426.785156"/>
      <use xlink:href="#DejaVuSans-73" x="488.308594"/>
     </g>
    </g>
   </g>
   <g id="line2d_18">
    <path d="M 73.832727 191.274472 
L 75.636364 191.946275 
L 78.095868 192.388671 
L 83.834711 194.499194 
L 85.638347 194.746073 
L 87.11405 194.658874 
L 88.753719 195.521896 
L 90.557355 196.178131 
L 92.360992 196.587269 
L 94.164628 197.12346 
L 95.968264 197.239847 
L 97.607934 198.100459 
L 101.707107 199.730936 
L 103.510744 200.273121 
L 105.150413 200.632091 
L 108.429752 201.565855 
L 112.037025 203.392665 
L 114.496529 203.747431 
L 116.464132 204.653134 
L 117.939835 204.9913 
L 120.399339 206.754319 
L 122.202975 206.250398 
L 123.842645 206.374784 
L 125.646281 207.543232 
L 126.958017 207.441291 
L 128.92562 208.288481 
L 131.221157 209.886711 
L 132.204959 209.221032 
L 134.664463 210.621592 
L 135.976198 211.170024 
L 137.615868 212.215956 
L 139.419504 212.288104 
L 140.567273 212.162067 
L 142.370909 213.011116 
L 143.518678 212.985516 
L 145.322314 214.596724 
L 147.12595 214.658333 
L 148.929587 214.953631 
L 150.569256 215.057922 
L 152.208926 217.385794 
L 153.192727 216.33322 
L 154.66843 217.661886 
L 156.472066 216.767713 
L 157.947769 217.368367 
L 159.915372 218.873678 
L 161.227107 218.58251 
L 163.030744 219.19893 
L 166.310083 221.03928 
L 167.949752 221.11898 
L 169.425455 221.071736 
L 171.065124 221.568347 
L 172.540826 221.380903 
L 174.344463 222.459623 
L 175.656198 222.193502 
L 177.459835 223.42478 
L 178.935537 223.654935 
L 180.083306 224.286034 
L 181.067107 225.348293 
L 182.706777 224.087754 
L 185.002314 226.437106 
L 185.986116 225.671675 
L 187.461818 225.497714 
L 188.937521 228.167261 
L 191.724959 229.432663 
L 193.528595 228.782234 
L 194.512397 229.242936 
L 195.988099 228.960509 
L 197.135868 230.084644 
L 198.939504 229.597843 
L 200.087273 230.466658 
L 201.399008 230.462074 
L 202.710744 230.66208 
L 204.842314 232.310408 
L 206.15405 232.954167 
L 207.137851 234.048076 
L 208.28562 234.268309 
L 209.761322 234.331192 
L 211.073058 233.522815 
L 212.54876 235.36582 
L 214.024463 235.173764 
L 215.500165 235.82023 
L 218.287603 236.543398 
L 219.599339 238.106374 
L 222.22281 236.860175 
L 223.370579 238.874543 
L 224.35438 238.604767 
L 225.830083 238.742406 
L 227.633719 240.065212 
L 228.945455 240.109382 
L 230.093223 240.882638 
L 231.404959 240.354992 
L 232.552727 240.863696 
L 234.356364 241.804439 
L 235.340165 241.901951 
L 236.487934 242.933176 
L 238.127603 242.119477 
L 239.275372 243.089832 
L 240.587107 243.040458 
L 241.734876 243.744316 
L 242.718678 244.06128 
L 243.866446 244.786565 
L 245.178182 245.899814 
L 246.653884 246.437974 
L 247.801653 246.72168 
L 249.113388 246.881609 
L 250.09719 245.049733 
L 251.73686 246.89031 
L 253.212562 247.320933 
L 254.360331 246.757999 
L 255.344132 247.279273 
L 256.819835 246.997064 
L 257.803636 247.46787 
L 259.935207 251.262975 
L 261.410909 248.968758 
L 265.67405 252.186919 
L 266.657851 251.79036 
L 267.641653 251.97974 
L 269.117355 252.930649 
L 270.429091 252.443441 
L 271.412893 253.408939 
L 272.888595 253.816727 
L 274.036364 253.327109 
L 275.84 253.728586 
L 277.807603 252.960969 
L 278.955372 255.321441 
L 280.759008 255.720459 
L 281.906777 255.311492 
L 283.218512 256.899689 
L 284.038347 256.823522 
L 285.678017 257.934541 
L 286.497851 257.733721 
L 287.973554 256.730015 
L 289.285289 256.833571 
L 290.760992 260.072325 
L 292.072727 260.277536 
L 293.384463 259.033647 
L 295.68 260.386333 
L 296.827769 258.6285 
L 298.303471 262.086817 
L 301.090909 261.249394 
L 302.074711 263.677219 
L 303.550413 261.642232 
L 305.681983 263.085213 
L 306.665785 265.089147 
L 308.469421 262.398272 
L 309.61719 263.674238 
L 311.420826 265.00441 
L 312.732562 264.996907 
L 314.372231 264.863144 
L 316.011901 266.253192 
L 317.323636 265.198876 
L 318.635372 266.752101 
L 320.275041 268.139864 
L 322.078678 268.925764 
L 323.226446 267.61105 
L 325.19405 268.622377 
L 326.833719 267.903004 
L 328.309421 270.100733 
L 329.949091 267.96221 
L 331.260826 273.307938 
L 333.884298 271.280069 
L 335.523967 271.866243 
L 337.49157 274.109011 
L 340.115041 274.723593 
L 342.902479 275.097681 
L 346.017851 276.962746 
L 348.313388 276.682947 
L 350.280992 277.651563 
L 352.248595 278.92379 
L 355.2 279.576225 
L 357.659504 277.010239 
L 359.791074 282.32761 
L 362.906446 282.187201 
L 365.201983 283.800998 
L 366.841653 281.983121 
L 369.301157 286.48637 
L 371.760661 283.013259 
L 374.876033 286.959095 
L 378.155372 287.548853 
L 381.434711 287.797351 
L 384.386116 292.17419 
L 386.84562 286.956611 
L 390.124959 290.447584 
L 392.912397 287.460936 
L 396.355702 295.108806 
L 398.487273 295.488 
L 398.487273 295.488 
" clip-path="url(#p5afeaeb519)" style="fill: none; stroke: #1f77b4; stroke-width: 1.5; stroke-linecap: square"/>
   </g>
   <g id="line2d_19">
    <path d="M 73.832727 129.65308 
L 75.636364 127.603052 
L 78.095868 132.607244 
L 80.227438 131.955045 
L 81.867107 135.495492 
L 83.834711 139.275111 
L 85.638347 139.581511 
L 87.11405 140.401954 
L 88.753719 140.663349 
L 90.557355 143.170064 
L 92.360992 145.270601 
L 94.164628 146.243748 
L 95.968264 145.833936 
L 97.607934 146.728211 
L 99.739504 149.101569 
L 101.707107 152.028132 
L 103.510744 150.752428 
L 105.150413 150.668241 
L 106.626116 153.845734 
L 108.429752 153.971054 
L 109.741488 154.899878 
L 112.037025 154.686607 
L 114.496529 157.59181 
L 116.464132 157.165127 
L 117.939835 156.666553 
L 120.399339 154.957785 
L 122.202975 156.29259 
L 123.842645 157.995551 
L 125.646281 157.39587 
L 126.958017 155.825321 
L 128.92562 158.432975 
L 131.221157 157.946643 
L 132.204959 157.348586 
L 134.664463 160.02794 
L 135.976198 156.44138 
L 137.615868 157.638821 
L 139.419504 157.94858 
L 140.567273 158.506636 
L 142.370909 153.261965 
L 143.518678 157.324397 
L 145.322314 156.557928 
L 147.12595 157.622512 
L 148.929587 158.048509 
L 150.569256 160.556137 
L 152.208926 148.967831 
L 153.192727 152.14395 
L 156.472066 157.235362 
L 157.947769 152.583844 
L 159.915372 149.795463 
L 161.227107 153.371386 
L 163.030744 156.225849 
L 164.83438 148.833775 
L 166.310083 147.043908 
L 167.949752 153.112057 
L 169.425455 149.720576 
L 171.065124 154.307306 
L 172.540826 148.305996 
L 174.344463 156.75442 
L 175.656198 150.511867 
L 177.459835 157.922105 
L 178.935537 153.774442 
L 180.083306 153.981813 
L 181.067107 145.066993 
L 182.706777 155.766219 
L 185.002314 154.891296 
L 185.986116 149.488849 
L 187.461818 149.985784 
L 188.937521 142.652846 
L 190.085289 153.082311 
L 191.724959 146.265516 
L 193.528595 145.7075 
L 194.512397 142.298768 
L 195.988099 144.496901 
L 197.135868 151.707426 
L 198.939504 141.262425 
L 200.087273 147.378326 
L 201.399008 141.103478 
L 202.710744 152.680717 
L 204.842314 149.008193 
L 206.15405 154.530529 
L 207.137851 152.038314 
L 208.28562 135.931876 
L 209.761322 147.756849 
L 211.073058 147.638249 
L 212.54876 136.775839 
L 214.024463 138.862156 
L 215.500165 151.415014 
L 216.483967 129.513845 
L 218.287603 142.016239 
L 219.599339 150.055379 
L 221.239008 138.599883 
L 222.22281 145.493626 
L 223.370579 134.288994 
L 224.35438 140.453428 
L 225.830083 133.495678 
L 227.633719 132.641449 
L 228.945455 131.695629 
L 230.093223 150.33761 
L 231.404959 149.798031 
L 232.552727 146.017583 
L 235.340165 125.412595 
L 236.487934 136.62217 
L 238.127603 132.251946 
L 239.275372 115.882258 
L 240.587107 114.502848 
L 241.734876 139.724655 
L 242.718678 133.726405 
L 243.866446 128.451092 
L 245.178182 137.624709 
L 246.653884 112.150301 
L 247.801653 115.761611 
L 249.113388 124.408827 
L 250.09719 149.568705 
L 251.73686 120.450855 
L 253.212562 133.850151 
L 254.360331 119.461682 
L 255.344132 146.238621 
L 256.819835 128.592678 
L 257.803636 138.781891 
L 259.935207 126.158409 
L 261.410909 122.231841 
L 262.886612 146.178571 
L 264.198347 131.467685 
L 265.67405 131.956495 
L 266.657851 126.131225 
L 267.641653 135.838043 
L 269.117355 124.181364 
L 270.429091 107.895898 
L 271.412893 114.21921 
L 272.888595 114.792932 
L 274.036364 129.709398 
L 275.84 133.327701 
L 276.823802 129.755686 
L 277.807603 127.43226 
L 278.955372 126.206926 
L 280.759008 143.666589 
L 281.906777 131.426682 
L 283.218512 100.556744 
L 284.038347 131.500803 
L 285.678017 121.367047 
L 286.497851 98.344817 
L 287.973554 121.045438 
L 289.285289 126.873866 
L 290.760992 129.044107 
L 292.072727 125.888963 
L 294.368264 108.278048 
L 295.68 101.111467 
L 296.827769 122.996725 
L 298.303471 129.951903 
L 299.615207 111.428556 
L 301.090909 95.953566 
L 302.074711 113.643868 
L 303.550413 118.350899 
L 305.681983 117.648754 
L 306.665785 113.234683 
L 308.469421 124.732653 
L 309.61719 113.56908 
L 311.420826 103.317761 
L 312.732562 110.27097 
L 314.372231 89.907581 
L 316.011901 119.446677 
L 317.323636 108.706498 
L 318.635372 113.370372 
L 320.275041 112.701137 
L 322.078678 97.512741 
L 323.226446 104.105425 
L 325.19405 102.814827 
L 326.833719 109.511111 
L 328.309421 112.609835 
L 329.949091 120.648029 
L 331.260826 109.636503 
L 333.884298 118.151595 
L 335.523967 89.223571 
L 337.49157 110.246376 
L 340.115041 117.536026 
L 342.902479 138.843689 
L 348.313388 75.875211 
L 350.280992 100.968798 
L 352.248595 113.01512 
L 355.2 53.568 
L 357.659504 82.917766 
L 359.791074 79.949433 
L 362.906446 116.790854 
L 365.201983 116.84285 
L 366.841653 98.905894 
L 369.301157 86.445512 
L 371.760661 105.879033 
L 374.876033 105.960988 
L 378.155372 123.094573 
L 381.434711 127.9559 
L 384.386116 118.676613 
L 386.84562 74.212406 
L 390.124959 74.313844 
L 392.912397 79.10324 
L 396.355702 113.735517 
L 398.487273 108.346339 
L 398.487273 108.346339 
" clip-path="url(#p5afeaeb519)" style="fill: none; stroke: #ff7f0e; stroke-width: 1.5; stroke-linecap: square"/>
   </g>
   <g id="patch_3">
    <path d="M 57.6 307.584 
L 57.6 41.472 
" style="fill: none; stroke: #000000; stroke-width: 0.8; stroke-linejoin: miter; stroke-linecap: square"/>
   </g>
   <g id="patch_4">
    <path d="M 414.72 307.584 
L 414.72 41.472 
" style="fill: none; stroke: #000000; stroke-width: 0.8; stroke-linejoin: miter; stroke-linecap: square"/>
   </g>
   <g id="patch_5">
    <path d="M 57.6 307.584 
L 414.72 307.584 
" style="fill: none; stroke: #000000; stroke-width: 0.8; stroke-linejoin: miter; stroke-linecap: square"/>
   </g>
   <g id="patch_6">
    <path d="M 57.6 41.472 
L 414.72 41.472 
" style="fill: none; stroke: #000000; stroke-width: 0.8; stroke-linejoin: miter; stroke-linecap: square"/>
   </g>
   <g id="text_20">
    <!-- actor and critic loss -->
    <g transform="translate(177.345 35.472) scale(0.12 -0.12)">
     <defs>
      <path id="DejaVuSans-61" d="M 2194 1759 
Q 1497 1759 1228 1600 
Q 959 1441 959 1056 
Q 959 750 1161 570 
Q 1363 391 1709 391 
Q 2188 391 2477 730 
Q 2766 1069 2766 1631 
L 2766 1759 
L 2194 1759 
z
M 3341 1997 
L 3341 0 
L 2766 0 
L 2766 531 
Q 2569 213 2275 61 
Q 1981 -91 1556 -91 
Q 1019 -91 701 211 
Q 384 513 384 1019 
Q 384 1609 779 1909 
Q 1175 2209 1959 2209 
L 2766 2209 
L 2766 2266 
Q 2766 2663 2505 2880 
Q 2244 3097 1772 3097 
Q 1472 3097 1187 3025 
Q 903 2953 641 2809 
L 641 3341 
Q 956 3463 1253 3523 
Q 1550 3584 1831 3584 
Q 2591 3584 2966 3190 
Q 3341 2797 3341 1997 
z
" transform="scale(0.015625)"/>
      <path id="DejaVuSans-63" d="M 3122 3366 
L 3122 2828 
Q 2878 2963 2633 3030 
Q 2388 3097 2138 3097 
Q 1578 3097 1268 2742 
Q 959 2388 959 1747 
Q 959 1106 1268 751 
Q 1578 397 2138 397 
Q 2388 397 2633 464 
Q 2878 531 3122 666 
L 3122 134 
Q 2881 22 2623 -34 
Q 2366 -91 2075 -91 
Q 1284 -91 818 406 
Q 353 903 353 1747 
Q 353 2603 823 3093 
Q 1294 3584 2113 3584 
Q 2378 3584 2631 3529 
Q 2884 3475 3122 3366 
z
" transform="scale(0.015625)"/>
      <path id="DejaVuSans-72" d="M 2631 2963 
Q 2534 3019 2420 3045 
Q 2306 3072 2169 3072 
Q 1681 3072 1420 2755 
Q 1159 2438 1159 1844 
L 1159 0 
L 581 0 
L 581 3500 
L 1159 3500 
L 1159 2956 
Q 1341 3275 1631 3429 
Q 1922 3584 2338 3584 
Q 2397 3584 2469 3576 
Q 2541 3569 2628 3553 
L 2631 2963 
z
" transform="scale(0.015625)"/>
      <path id="DejaVuSans-6e" d="M 3513 2113 
L 3513 0 
L 2938 0 
L 2938 2094 
Q 2938 2591 2744 2837 
Q 2550 3084 2163 3084 
Q 1697 3084 1428 2787 
Q 1159 2491 1159 1978 
L 1159 0 
L 581 0 
L 581 3500 
L 1159 3500 
L 1159 2956 
Q 1366 3272 1645 3428 
Q 1925 3584 2291 3584 
Q 2894 3584 3203 3211 
Q 3513 2838 3513 2113 
z
" transform="scale(0.015625)"/>
      <path id="DejaVuSans-64" d="M 2906 2969 
L 2906 4863 
L 3481 4863 
L 3481 0 
L 2906 0 
L 2906 525 
Q 2725 213 2448 61 
Q 2172 -91 1784 -91 
Q 1150 -91 751 415 
Q 353 922 353 1747 
Q 353 2572 751 3078 
Q 1150 3584 1784 3584 
Q 2172 3584 2448 3432 
Q 2725 3281 2906 2969 
z
M 947 1747 
Q 947 1113 1208 752 
Q 1469 391 1925 391 
Q 2381 391 2643 752 
Q 2906 1113 2906 1747 
Q 2906 2381 2643 2742 
Q 2381 3103 1925 3103 
Q 1469 3103 1208 2742 
Q 947 2381 947 1747 
z
" transform="scale(0.015625)"/>
     </defs>
     <use xlink:href="#DejaVuSans-61"/>
     <use xlink:href="#DejaVuSans-63" x="61.279297"/>
     <use xlink:href="#DejaVuSans-74" x="116.259766"/>
     <use xlink:href="#DejaVuSans-6f" x="155.46875"/>
     <use xlink:href="#DejaVuSans-72" x="216.650391"/>
     <use xlink:href="#DejaVuSans-20" x="257.763672"/>
     <use xlink:href="#DejaVuSans-61" x="289.550781"/>
     <use xlink:href="#DejaVuSans-6e" x="350.830078"/>
     <use xlink:href="#DejaVuSans-64" x="414.208984"/>
     <use xlink:href="#DejaVuSans-20" x="477.685547"/>
     <use xlink:href="#DejaVuSans-63" x="509.472656"/>
     <use xlink:href="#DejaVuSans-72" x="564.453125"/>
     <use xlink:href="#DejaVuSans-69" x="605.566406"/>
     <use xlink:href="#DejaVuSans-74" x="633.349609"/>
     <use xlink:href="#DejaVuSans-69" x="672.558594"/>
     <use xlink:href="#DejaVuSans-63" x="700.341797"/>
     <use xlink:href="#DejaVuSans-20" x="755.322266"/>
     <use xlink:href="#DejaVuSans-6c" x="787.109375"/>
     <use xlink:href="#DejaVuSans-6f" x="814.892578"/>
     <use xlink:href="#DejaVuSans-73" x="876.074219"/>
     <use xlink:href="#DejaVuSans-73" x="928.173828"/>
    </g>
   </g>
   <g id="legend_1">
    <g id="patch_7">
     <path d="M 64.6 78.82825 
L 144.870313 78.82825 
Q 146.870313 78.82825 146.870313 76.82825 
L 146.870313 48.472 
Q 146.870313 46.472 144.870313 46.472 
L 64.6 46.472 
Q 62.6 46.472 62.6 48.472 
L 62.6 76.82825 
Q 62.6 78.82825 64.6 78.82825 
z
" style="fill: #ffffff; opacity: 0.8; stroke: #cccccc; stroke-linejoin: miter"/>
    </g>
    <g id="line2d_20">
     <path d="M 66.6 54.570437 
L 76.6 54.570437 
L 86.6 54.570437 
" style="fill: none; stroke: #1f77b4; stroke-width: 1.5; stroke-linecap: square"/>
    </g>
    <g id="text_21">
     <!-- actor loss -->
     <g transform="translate(94.6 58.070437) scale(0.1 -0.1)">
      <use xlink:href="#DejaVuSans-61"/>
      <use xlink:href="#DejaVuSans-63" x="61.279297"/>
      <use xlink:href="#DejaVuSans-74" x="116.259766"/>
      <use xlink:href="#DejaVuSans-6f" x="155.46875"/>
      <use xlink:href="#DejaVuSans-72" x="216.650391"/>
      <use xlink:href="#DejaVuSans-20" x="257.763672"/>
      <use xlink:href="#DejaVuSans-6c" x="289.550781"/>
      <use xlink:href="#DejaVuSans-6f" x="317.333984"/>
      <use xlink:href="#DejaVuSans-73" x="378.515625"/>
      <use xlink:href="#DejaVuSans-73" x="430.615234"/>
     </g>
    </g>
    <g id="line2d_21">
     <path d="M 66.6 69.248562 
L 76.6 69.248562 
L 86.6 69.248562 
" style="fill: none; stroke: #ff7f0e; stroke-width: 1.5; stroke-linecap: square"/>
    </g>
    <g id="text_22">
     <!-- critic loss -->
     <g transform="translate(94.6 72.748562) scale(0.1 -0.1)">
      <use xlink:href="#DejaVuSans-63"/>
      <use xlink:href="#DejaVuSans-72" x="54.980469"/>
      <use xlink:href="#DejaVuSans-69" x="96.09375"/>
      <use xlink:href="#DejaVuSans-74" x="123.876953"/>
      <use xlink:href="#DejaVuSans-69" x="163.085938"/>
      <use xlink:href="#DejaVuSans-63" x="190.869141"/>
      <use xlink:href="#DejaVuSans-20" x="245.849609"/>
      <use xlink:href="#DejaVuSans-6c" x="277.636719"/>
      <use xlink:href="#DejaVuSans-6f" x="305.419922"/>
      <use xlink:href="#DejaVuSans-73" x="366.601562"/>
      <use xlink:href="#DejaVuSans-73" x="418.701172"/>
     </g>
    </g>
   </g>
  </g>
 </g>
 <defs>
  <clipPath id="p5afeaeb519">
   <rect x="57.6" y="41.472" width="357.12" height="266.112"/>
  </clipPath>
 </defs>
</svg>
