<?xml version="1.0" encoding="utf-8" standalone="no"?>
<!DOCTYPE svg PUBLIC "-//W3C//DTD SVG 1.1//EN"
  "http://www.w3.org/Graphics/SVG/1.1/DTD/svg11.dtd">
<svg xmlns:xlink="http://www.w3.org/1999/xlink" width="460.8pt" height="345.6pt" viewBox="0 0 460.8 345.6" xmlns="http://www.w3.org/2000/svg" version="1.1">
 <metadata>
  <rdf:RDF xmlns:dc="http://purl.org/dc/elements/1.1/" xmlns:cc="http://creativecommons.org/ns#" xmlns:rdf="http://www.w3.org/1999/02/22-rdf-syntax-ns#">
   <cc:Work>
    <dc:type rdf:resource="http://purl.org/dc/dcmitype/StillImage"/>
    <dc:date>2023-08-18T15:54:10.570081</dc:date>
    <dc:format>image/svg+xml</dc:format>
    <dc:creator>
     <cc:Agent>
      <dc:title>Matplotlib v3.7.1, https://matplotlib.org/</dc:title>
     </cc:Agent>
    </dc:creator>
   </cc:Work>
  </rdf:RDF>
 </metadata>
 <defs>
  <style type="text/css">*{stroke-linejoin: round; stroke-linecap: butt}</style>
 </defs>
 <g id="figure_1">
  <g id="patch_1">
   <path d="M 0 345.6 
L 460.8 345.6 
L 460.8 0 
L 0 0 
z
" style="fill: #ffffff"/>
  </g>
  <g id="axes_1">
   <g id="patch_2">
    <path d="M 57.6 307.584 
L 414.72 307.584 
L 414.72 41.472 
L 57.6 41.472 
z
" style="fill: #ffffff"/>
   </g>
   <g id="matplotlib.axis_1">
    <g id="xtick_1">
     <g id="line2d_1">
      <defs>
       <path id="m8fa39a9ce4" d="M 0 0 
L 0 3.5 
" style="stroke: #000000; stroke-width: 0.8"/>
      </defs>
      <g>
       <use xlink:href="#m8fa39a9ce4" x="73.760761" y="307.584" style="stroke: #000000; stroke-width: 0.8"/>
      </g>
     </g>
     <g id="text_1">
      <!-- 0 -->
      <g transform="translate(70.579511 322.182437) scale(0.1 -0.1)">
       <defs>
        <path id="DejaVuSans-30" d="M 2034 4250 
Q 1547 4250 1301 3770 
Q 1056 3291 1056 2328 
Q 1056 1369 1301 889 
Q 1547 409 2034 409 
Q 2525 409 2770 889 
Q 3016 1369 3016 2328 
Q 3016 3291 2770 3770 
Q 2525 4250 2034 4250 
z
M 2034 4750 
Q 2819 4750 3233 4129 
Q 3647 3509 3647 2328 
Q 3647 1150 3233 529 
Q 2819 -91 2034 -91 
Q 1250 -91 836 529 
Q 422 1150 422 2328 
Q 422 3509 836 4129 
Q 1250 4750 2034 4750 
z
" transform="scale(0.015625)"/>
       </defs>
       <use xlink:href="#DejaVuSans-30"/>
      </g>
     </g>
    </g>
    <g id="xtick_2">
     <g id="line2d_2">
      <g>
       <use xlink:href="#m8fa39a9ce4" x="139.184968" y="307.584" style="stroke: #000000; stroke-width: 0.8"/>
      </g>
     </g>
     <g id="text_2">
      <!-- 10000 -->
      <g transform="translate(123.278718 322.182437) scale(0.1 -0.1)">
       <defs>
        <path id="DejaVuSans-31" d="M 794 531 
L 1825 531 
L 1825 4091 
L 703 3866 
L 703 4441 
L 1819 4666 
L 2450 4666 
L 2450 531 
L 3481 531 
L 3481 0 
L 794 0 
L 794 531 
z
" transform="scale(0.015625)"/>
       </defs>
       <use xlink:href="#DejaVuSans-31"/>
       <use xlink:href="#DejaVuSans-30" x="63.623047"/>
       <use xlink:href="#DejaVuSans-30" x="127.246094"/>
       <use xlink:href="#DejaVuSans-30" x="190.869141"/>
       <use xlink:href="#DejaVuSans-30" x="254.492188"/>
      </g>
     </g>
    </g>
    <g id="xtick_3">
     <g id="line2d_3">
      <g>
       <use xlink:href="#m8fa39a9ce4" x="204.609176" y="307.584" style="stroke: #000000; stroke-width: 0.8"/>
      </g>
     </g>
     <g id="text_3">
      <!-- 20000 -->
      <g transform="translate(188.702926 322.182437) scale(0.1 -0.1)">
       <defs>
        <path id="DejaVuSans-32" d="M 1228 531 
L 3431 531 
L 3431 0 
L 469 0 
L 469 531 
Q 828 903 1448 1529 
Q 2069 2156 2228 2338 
Q 2531 2678 2651 2914 
Q 2772 3150 2772 3378 
Q 2772 3750 2511 3984 
Q 2250 4219 1831 4219 
Q 1534 4219 1204 4116 
Q 875 4013 500 3803 
L 500 4441 
Q 881 4594 1212 4672 
Q 1544 4750 1819 4750 
Q 2544 4750 2975 4387 
Q 3406 4025 3406 3419 
Q 3406 3131 3298 2873 
Q 3191 2616 2906 2266 
Q 2828 2175 2409 1742 
Q 1991 1309 1228 531 
z
" transform="scale(0.015625)"/>
       </defs>
       <use xlink:href="#DejaVuSans-32"/>
       <use xlink:href="#DejaVuSans-30" x="63.623047"/>
       <use xlink:href="#DejaVuSans-30" x="127.246094"/>
       <use xlink:href="#DejaVuSans-30" x="190.869141"/>
       <use xlink:href="#DejaVuSans-30" x="254.492188"/>
      </g>
     </g>
    </g>
    <g id="xtick_4">
     <g id="line2d_4">
      <g>
       <use xlink:href="#m8fa39a9ce4" x="270.033383" y="307.584" style="stroke: #000000; stroke-width: 0.8"/>
      </g>
     </g>
     <g id="text_4">
      <!-- 30000 -->
      <g transform="translate(254.127133 322.182437) scale(0.1 -0.1)">
       <defs>
        <path id="DejaVuSans-33" d="M 2597 2516 
Q 3050 2419 3304 2112 
Q 3559 1806 3559 1356 
Q 3559 666 3084 287 
Q 2609 -91 1734 -91 
Q 1441 -91 1130 -33 
Q 819 25 488 141 
L 488 750 
Q 750 597 1062 519 
Q 1375 441 1716 441 
Q 2309 441 2620 675 
Q 2931 909 2931 1356 
Q 2931 1769 2642 2001 
Q 2353 2234 1838 2234 
L 1294 2234 
L 1294 2753 
L 1863 2753 
Q 2328 2753 2575 2939 
Q 2822 3125 2822 3475 
Q 2822 3834 2567 4026 
Q 2313 4219 1838 4219 
Q 1578 4219 1281 4162 
Q 984 4106 628 3988 
L 628 4550 
Q 988 4650 1302 4700 
Q 1616 4750 1894 4750 
Q 2613 4750 3031 4423 
Q 3450 4097 3450 3541 
Q 3450 3153 3228 2886 
Q 3006 2619 2597 2516 
z
" transform="scale(0.015625)"/>
       </defs>
       <use xlink:href="#DejaVuSans-33"/>
       <use xlink:href="#DejaVuSans-30" x="63.623047"/>
       <use xlink:href="#DejaVuSans-30" x="127.246094"/>
       <use xlink:href="#DejaVuSans-30" x="190.869141"/>
       <use xlink:href="#DejaVuSans-30" x="254.492188"/>
      </g>
     </g>
    </g>
    <g id="xtick_5">
     <g id="line2d_5">
      <g>
       <use xlink:href="#m8fa39a9ce4" x="335.457591" y="307.584" style="stroke: #000000; stroke-width: 0.8"/>
      </g>
     </g>
     <g id="text_5">
      <!-- 40000 -->
      <g transform="translate(319.551341 322.182437) scale(0.1 -0.1)">
       <defs>
        <path id="DejaVuSans-34" d="M 2419 4116 
L 825 1625 
L 2419 1625 
L 2419 4116 
z
M 2253 4666 
L 3047 4666 
L 3047 1625 
L 3713 1625 
L 3713 1100 
L 3047 1100 
L 3047 0 
L 2419 0 
L 2419 1100 
L 313 1100 
L 313 1709 
L 2253 4666 
z
" transform="scale(0.015625)"/>
       </defs>
       <use xlink:href="#DejaVuSans-34"/>
       <use xlink:href="#DejaVuSans-30" x="63.623047"/>
       <use xlink:href="#DejaVuSans-30" x="127.246094"/>
       <use xlink:href="#DejaVuSans-30" x="190.869141"/>
       <use xlink:href="#DejaVuSans-30" x="254.492188"/>
      </g>
     </g>
    </g>
    <g id="xtick_6">
     <g id="line2d_6">
      <g>
       <use xlink:href="#m8fa39a9ce4" x="400.881799" y="307.584" style="stroke: #000000; stroke-width: 0.8"/>
      </g>
     </g>
     <g id="text_6">
      <!-- 50000 -->
      <g transform="translate(384.975549 322.182437) scale(0.1 -0.1)">
       <defs>
        <path id="DejaVuSans-35" d="M 691 4666 
L 3169 4666 
L 3169 4134 
L 1269 4134 
L 1269 2991 
Q 1406 3038 1543 3061 
Q 1681 3084 1819 3084 
Q 2600 3084 3056 2656 
Q 3513 2228 3513 1497 
Q 3513 744 3044 326 
Q 2575 -91 1722 -91 
Q 1428 -91 1123 -41 
Q 819 9 494 109 
L 494 744 
Q 775 591 1075 516 
Q 1375 441 1709 441 
Q 2250 441 2565 725 
Q 2881 1009 2881 1497 
Q 2881 1984 2565 2268 
Q 2250 2553 1709 2553 
Q 1456 2553 1204 2497 
Q 953 2441 691 2322 
L 691 4666 
z
" transform="scale(0.015625)"/>
       </defs>
       <use xlink:href="#DejaVuSans-35"/>
       <use xlink:href="#DejaVuSans-30" x="63.623047"/>
       <use xlink:href="#DejaVuSans-30" x="127.246094"/>
       <use xlink:href="#DejaVuSans-30" x="190.869141"/>
       <use xlink:href="#DejaVuSans-30" x="254.492188"/>
      </g>
     </g>
    </g>
    <g id="text_7">
     <!-- timesteps -->
     <g transform="translate(211.443594 335.860562) scale(0.1 -0.1)">
      <defs>
       <path id="DejaVuSans-74" d="M 1172 4494 
L 1172 3500 
L 2356 3500 
L 2356 3053 
L 1172 3053 
L 1172 1153 
Q 1172 725 1289 603 
Q 1406 481 1766 481 
L 2356 481 
L 2356 0 
L 1766 0 
Q 1100 0 847 248 
Q 594 497 594 1153 
L 594 3053 
L 172 3053 
L 172 3500 
L 594 3500 
L 594 4494 
L 1172 4494 
z
" transform="scale(0.015625)"/>
       <path id="DejaVuSans-69" d="M 603 3500 
L 1178 3500 
L 1178 0 
L 603 0 
L 603 3500 
z
M 603 4863 
L 1178 4863 
L 1178 4134 
L 603 4134 
L 603 4863 
z
" transform="scale(0.015625)"/>
       <path id="DejaVuSans-6d" d="M 3328 2828 
Q 3544 3216 3844 3400 
Q 4144 3584 4550 3584 
Q 5097 3584 5394 3201 
Q 5691 2819 5691 2113 
L 5691 0 
L 5113 0 
L 5113 2094 
Q 5113 2597 4934 2840 
Q 4756 3084 4391 3084 
Q 3944 3084 3684 2787 
Q 3425 2491 3425 1978 
L 3425 0 
L 2847 0 
L 2847 2094 
Q 2847 2600 2669 2842 
Q 2491 3084 2119 3084 
Q 1678 3084 1418 2786 
Q 1159 2488 1159 1978 
L 1159 0 
L 581 0 
L 581 3500 
L 1159 3500 
L 1159 2956 
Q 1356 3278 1631 3431 
Q 1906 3584 2284 3584 
Q 2666 3584 2933 3390 
Q 3200 3197 3328 2828 
z
" transform="scale(0.015625)"/>
       <path id="DejaVuSans-65" d="M 3597 1894 
L 3597 1613 
L 953 1613 
Q 991 1019 1311 708 
Q 1631 397 2203 397 
Q 2534 397 2845 478 
Q 3156 559 3463 722 
L 3463 178 
Q 3153 47 2828 -22 
Q 2503 -91 2169 -91 
Q 1331 -91 842 396 
Q 353 884 353 1716 
Q 353 2575 817 3079 
Q 1281 3584 2069 3584 
Q 2775 3584 3186 3129 
Q 3597 2675 3597 1894 
z
M 3022 2063 
Q 3016 2534 2758 2815 
Q 2500 3097 2075 3097 
Q 1594 3097 1305 2825 
Q 1016 2553 972 2059 
L 3022 2063 
z
" transform="scale(0.015625)"/>
       <path id="DejaVuSans-73" d="M 2834 3397 
L 2834 2853 
Q 2591 2978 2328 3040 
Q 2066 3103 1784 3103 
Q 1356 3103 1142 2972 
Q 928 2841 928 2578 
Q 928 2378 1081 2264 
Q 1234 2150 1697 2047 
L 1894 2003 
Q 2506 1872 2764 1633 
Q 3022 1394 3022 966 
Q 3022 478 2636 193 
Q 2250 -91 1575 -91 
Q 1294 -91 989 -36 
Q 684 19 347 128 
L 347 722 
Q 666 556 975 473 
Q 1284 391 1588 391 
Q 1994 391 2212 530 
Q 2431 669 2431 922 
Q 2431 1156 2273 1281 
Q 2116 1406 1581 1522 
L 1381 1569 
Q 847 1681 609 1914 
Q 372 2147 372 2553 
Q 372 3047 722 3315 
Q 1072 3584 1716 3584 
Q 2034 3584 2315 3537 
Q 2597 3491 2834 3397 
z
" transform="scale(0.015625)"/>
       <path id="DejaVuSans-70" d="M 1159 525 
L 1159 -1331 
L 581 -1331 
L 581 3500 
L 1159 3500 
L 1159 2969 
Q 1341 3281 1617 3432 
Q 1894 3584 2278 3584 
Q 2916 3584 3314 3078 
Q 3713 2572 3713 1747 
Q 3713 922 3314 415 
Q 2916 -91 2278 -91 
Q 1894 -91 1617 61 
Q 1341 213 1159 525 
z
M 3116 1747 
Q 3116 2381 2855 2742 
Q 2594 3103 2138 3103 
Q 1681 3103 1420 2742 
Q 1159 2381 1159 1747 
Q 1159 1113 1420 752 
Q 1681 391 2138 391 
Q 2594 391 2855 752 
Q 3116 1113 3116 1747 
z
" transform="scale(0.015625)"/>
      </defs>
      <use xlink:href="#DejaVuSans-74"/>
      <use xlink:href="#DejaVuSans-69" x="39.208984"/>
      <use xlink:href="#DejaVuSans-6d" x="66.992188"/>
      <use xlink:href="#DejaVuSans-65" x="164.404297"/>
      <use xlink:href="#DejaVuSans-73" x="225.927734"/>
      <use xlink:href="#DejaVuSans-74" x="278.027344"/>
      <use xlink:href="#DejaVuSans-65" x="317.236328"/>
      <use xlink:href="#DejaVuSans-70" x="378.759766"/>
      <use xlink:href="#DejaVuSans-73" x="442.236328"/>
     </g>
    </g>
   </g>
   <g id="matplotlib.axis_2">
    <g id="ytick_1">
     <g id="line2d_7">
      <defs>
       <path id="mf0bf2b1fd8" d="M 0 0 
L -3.5 0 
" style="stroke: #000000; stroke-width: 0.8"/>
      </defs>
      <g>
       <use xlink:href="#mf0bf2b1fd8" x="57.6" y="294.807148" style="stroke: #000000; stroke-width: 0.8"/>
      </g>
     </g>
     <g id="text_8">
      <!-- 0 -->
      <g transform="translate(44.2375 298.606367) scale(0.1 -0.1)">
       <use xlink:href="#DejaVuSans-30"/>
      </g>
     </g>
    </g>
    <g id="ytick_2">
     <g id="line2d_8">
      <g>
       <use xlink:href="#mf0bf2b1fd8" x="57.6" y="245.543751" style="stroke: #000000; stroke-width: 0.8"/>
      </g>
     </g>
     <g id="text_9">
      <!-- 50 -->
      <g transform="translate(37.875 249.34297) scale(0.1 -0.1)">
       <use xlink:href="#DejaVuSans-35"/>
       <use xlink:href="#DejaVuSans-30" x="63.623047"/>
      </g>
     </g>
    </g>
    <g id="ytick_3">
     <g id="line2d_9">
      <g>
       <use xlink:href="#mf0bf2b1fd8" x="57.6" y="196.280355" style="stroke: #000000; stroke-width: 0.8"/>
      </g>
     </g>
     <g id="text_10">
      <!-- 100 -->
      <g transform="translate(31.5125 200.079574) scale(0.1 -0.1)">
       <use xlink:href="#DejaVuSans-31"/>
       <use xlink:href="#DejaVuSans-30" x="63.623047"/>
       <use xlink:href="#DejaVuSans-30" x="127.246094"/>
      </g>
     </g>
    </g>
    <g id="ytick_4">
     <g id="line2d_10">
      <g>
       <use xlink:href="#mf0bf2b1fd8" x="57.6" y="147.016958" style="stroke: #000000; stroke-width: 0.8"/>
      </g>
     </g>
     <g id="text_11">
      <!-- 150 -->
      <g transform="translate(31.5125 150.816177) scale(0.1 -0.1)">
       <use xlink:href="#DejaVuSans-31"/>
       <use xlink:href="#DejaVuSans-35" x="63.623047"/>
       <use xlink:href="#DejaVuSans-30" x="127.246094"/>
      </g>
     </g>
    </g>
    <g id="ytick_5">
     <g id="line2d_11">
      <g>
       <use xlink:href="#mf0bf2b1fd8" x="57.6" y="97.753562" style="stroke: #000000; stroke-width: 0.8"/>
      </g>
     </g>
     <g id="text_12">
      <!-- 200 -->
      <g transform="translate(31.5125 101.552781) scale(0.1 -0.1)">
       <use xlink:href="#DejaVuSans-32"/>
       <use xlink:href="#DejaVuSans-30" x="63.623047"/>
       <use xlink:href="#DejaVuSans-30" x="127.246094"/>
      </g>
     </g>
    </g>
    <g id="ytick_6">
     <g id="line2d_12">
      <g>
       <use xlink:href="#mf0bf2b1fd8" x="57.6" y="48.490166" style="stroke: #000000; stroke-width: 0.8"/>
      </g>
     </g>
     <g id="text_13">
      <!-- 250 -->
      <g transform="translate(31.5125 52.289384) scale(0.1 -0.1)">
       <use xlink:href="#DejaVuSans-32"/>
       <use xlink:href="#DejaVuSans-35" x="63.623047"/>
       <use xlink:href="#DejaVuSans-30" x="127.246094"/>
      </g>
     </g>
    </g>
    <g id="text_14">
     <!-- rewards -->
     <g transform="translate(25.432812 194.447531) rotate(-90) scale(0.1 -0.1)">
      <defs>
       <path id="DejaVuSans-72" d="M 2631 2963 
Q 2534 3019 2420 3045 
Q 2306 3072 2169 3072 
Q 1681 3072 1420 2755 
Q 1159 2438 1159 1844 
L 1159 0 
L 581 0 
L 581 3500 
L 1159 3500 
L 1159 2956 
Q 1341 3275 1631 3429 
Q 1922 3584 2338 3584 
Q 2397 3584 2469 3576 
Q 2541 3569 2628 3553 
L 2631 2963 
z
" transform="scale(0.015625)"/>
       <path id="DejaVuSans-77" d="M 269 3500 
L 844 3500 
L 1563 769 
L 2278 3500 
L 2956 3500 
L 3675 769 
L 4391 3500 
L 4966 3500 
L 4050 0 
L 3372 0 
L 2619 2869 
L 1863 0 
L 1184 0 
L 269 3500 
z
" transform="scale(0.015625)"/>
       <path id="DejaVuSans-61" d="M 2194 1759 
Q 1497 1759 1228 1600 
Q 959 1441 959 1056 
Q 959 750 1161 570 
Q 1363 391 1709 391 
Q 2188 391 2477 730 
Q 2766 1069 2766 1631 
L 2766 1759 
L 2194 1759 
z
M 3341 1997 
L 3341 0 
L 2766 0 
L 2766 531 
Q 2569 213 2275 61 
Q 1981 -91 1556 -91 
Q 1019 -91 701 211 
Q 384 513 384 1019 
Q 384 1609 779 1909 
Q 1175 2209 1959 2209 
L 2766 2209 
L 2766 2266 
Q 2766 2663 2505 2880 
Q 2244 3097 1772 3097 
Q 1472 3097 1187 3025 
Q 903 2953 641 2809 
L 641 3341 
Q 956 3463 1253 3523 
Q 1550 3584 1831 3584 
Q 2591 3584 2966 3190 
Q 3341 2797 3341 1997 
z
" transform="scale(0.015625)"/>
       <path id="DejaVuSans-64" d="M 2906 2969 
L 2906 4863 
L 3481 4863 
L 3481 0 
L 2906 0 
L 2906 525 
Q 2725 213 2448 61 
Q 2172 -91 1784 -91 
Q 1150 -91 751 415 
Q 353 922 353 1747 
Q 353 2572 751 3078 
Q 1150 3584 1784 3584 
Q 2172 3584 2448 3432 
Q 2725 3281 2906 2969 
z
M 947 1747 
Q 947 1113 1208 752 
Q 1469 391 1925 391 
Q 2381 391 2643 752 
Q 2906 1113 2906 1747 
Q 2906 2381 2643 2742 
Q 2381 3103 1925 3103 
Q 1469 3103 1208 2742 
Q 947 2381 947 1747 
z
" transform="scale(0.015625)"/>
      </defs>
      <use xlink:href="#DejaVuSans-72"/>
      <use xlink:href="#DejaVuSans-65" x="38.863281"/>
      <use xlink:href="#DejaVuSans-77" x="100.386719"/>
      <use xlink:href="#DejaVuSans-61" x="182.173828"/>
      <use xlink:href="#DejaVuSans-72" x="243.453125"/>
      <use xlink:href="#DejaVuSans-64" x="282.816406"/>
      <use xlink:href="#DejaVuSans-73" x="346.292969"/>
     </g>
    </g>
   </g>
   <g id="line2d_13">
    <path d="M 73.832727 285.722859 
L 73.904694 286.248395 
L 73.983203 284.397855 
L 74.153306 287.086916 
L 74.336494 281.835567 
L 74.441172 284.849708 
L 74.552394 279.639634 
L 74.807548 281.97692 
L 74.938396 277.21866 
L 75.08233 278.984561 
L 75.383281 275.632461 
L 75.546842 280.195165 
L 75.710402 272.943964 
L 75.89359 258.140136 
L 75.998269 288.102732 
L 76.102947 285.561104 
L 76.29922 286.094523 
L 76.534747 281.044009 
L 76.67868 281.729377 
L 76.737562 288.432857 
L 77.287125 260.762665 
L 77.594619 277.022441 
L 77.764722 271.646206 
L 77.830146 288.767783 
L 77.954452 278.592589 
L 78.046046 285.57491 
L 78.16381 272.469262 
L 78.32737 274.261145 
L 78.490931 285.952108 
L 78.615237 284.787752 
L 78.693746 284.902817 
L 78.772255 286.677545 
L 79.105918 276.326146 
L 79.249852 286.609662 
L 79.478836 277.401468 
L 79.662024 276.579764 
L 79.845212 280.482581 
L 79.956433 278.788835 
L 80.093824 286.217653 
L 80.362063 281.022691 
L 80.532166 260.731857 
L 80.64993 286.540845 
L 80.748066 285.430158 
L 80.878914 271.872455 
L 81.068645 288.26725 
L 81.304172 260.383857 
L 81.369596 287.128511 
L 81.506987 275.988765 
L 81.62475 278.557787 
L 81.709802 285.398625 
L 81.827565 285.375446 
L 82.167771 280.091074 
L 82.233196 287.26936 
L 82.331332 285.293121 
L 82.507977 271.256525 
L 82.632283 282.972239 
L 83.018286 215.341329 
L 83.194931 287.929703 
L 83.371577 276.627982 
L 83.463171 286.158809 
L 83.711783 272.026638 
L 83.94731 282.174679 
L 84.130498 281.843815 
L 84.202464 287.543617 
L 84.333313 284.791995 
L 84.601552 255.892507 
L 84.987555 255.49844 
L 85.1642 286.550028 
L 85.281964 288.555756 
L 85.35393 285.589143 
L 85.438982 287.468522 
L 85.589457 271.521714 
L 85.818442 281.535026 
L 85.936206 286.213255 
L 86.060512 279.900243 
L 86.178275 281.488198 
L 86.439972 286.403543 
L 86.525024 286.949773 
L 86.714754 258.414497 
L 87.081129 285.99554 
L 87.159638 284.53207 
L 87.368996 255.996354 
L 87.597981 286.806801 
L 87.67649 286.755125 
L 87.84005 278.353595 
L 87.905474 287.000449 
L 88.160629 255.310372 
L 88.369986 284.175169 
L 88.592429 261.633663 
L 88.697107 280.470119 
L 88.847583 271.573105 
L 88.913007 287.243236 
L 89.043856 276.494977 
L 89.148534 284.115614 
L 89.338264 265.093354 
L 89.54108 282.067475 
L 89.887828 204.378824 
L 89.966337 287.244911 
L 90.064473 283.468065 
L 90.162609 284.053948 
L 90.267288 282.115782 
L 90.385052 283.878635 
L 90.54207 281.098962 
L 90.666376 276.509121 
L 90.836479 282.330101 
L 90.9477 279.368288 
L 91.032751 286.353405 
L 91.143973 286.022961 
L 91.300991 280.795869 
L 91.418754 280.706026 
L 91.484178 287.595645 
L 91.634654 283.680682 
L 91.745875 286.957854 
L 91.817842 285.035952 
L 91.896351 287.550671 
L 92.040284 276.617492 
L 92.112251 286.765894 
L 92.393575 270.949092 
L 92.472084 285.859452 
L 92.766493 229.60923 
L 92.903884 283.426803 
L 93.231005 215.666566 
L 93.43382 271.589887 
L 93.695517 250.319604 
L 93.878704 280.138334 
L 94.016095 275.87212 
L 94.094604 285.258105 
L 94.199283 283.815895 
L 94.277792 287.884114 
L 94.441353 270.289839 
L 94.578744 281.603292 
L 94.716134 279.707571 
L 94.781559 287.923466 
L 94.938577 274.066879 
L 95.004001 287.674023 
L 95.27224 275.43545 
L 95.455428 278.261161 
L 95.573191 285.696615 
L 95.743294 269.847892 
L 96.044246 281.827197 
L 96.181637 283.512559 
L 96.364824 283.321483 
L 96.476046 276.668619 
L 96.665776 286.847067 
L 96.809709 279.57522 
L 97.176085 236.440014 
L 97.280763 284.388968 
L 97.444324 273.790136 
L 97.522833 286.083349 
L 97.679851 272.689013 
L 98.059311 287.388504 
L 98.196702 280.29805 
L 98.35372 280.101897 
L 98.451857 280.415708 
L 98.602332 279.19509 
L 98.739723 271.195241 
L 99.034132 284.838616 
L 99.138811 281.325611 
L 99.21732 288.113366 
L 99.439762 278.502208 
L 99.564068 283.441411 
L 99.747256 263.66944 
L 99.904274 284.467699 
L 100.113631 282.708365 
L 100.414583 258.468602 
L 100.486549 286.408309 
L 100.565059 285.423998 
L 100.689364 286.465472 
L 100.820213 282.108845 
L 100.918349 285.118069 
L 100.996858 285.0165 
L 101.08191 283.518229 
L 101.166961 286.221323 
L 101.310894 271.408515 
L 101.369776 287.388981 
L 101.507167 282.452529 
L 101.592219 285.288669 
L 101.70344 281.580493 
L 101.886627 286.160142 
L 102.030561 276.490245 
L 102.161409 275.255996 
L 102.246461 284.743228 
L 102.691345 269.506383 
L 103.195112 182.031292 
L 103.78393 285.198661 
L 103.895151 283.522855 
L 104.097966 271.114535 
L 104.372747 234.193563 
L 104.451256 286.342851 
L 104.673699 277.439288 
L 104.863429 261.559966 
L 104.97465 282.324033 
L 105.079329 281.155691 
L 105.170923 289.34121 
L 105.393365 278.639137 
L 105.524213 285.945888 
L 105.628892 279.932242 
L 105.733571 285.395106 
L 105.870962 284.755642 
L 105.956013 285.383957 
L 106.02798 287.695687 
L 106.525204 214.698914 
L 106.741104 282.60387 
L 106.826155 285.528798 
L 106.976631 283.084449 
L 107.094394 287.334406 
L 107.4346 264.702222 
L 107.539279 278.759504 
L 107.735552 266.888697 
L 107.807518 287.922816 
L 107.872942 286.845484 
L 108.016876 278.956596 
L 108.186979 277.370188 
L 108.494472 221.571877 
L 108.775797 283.067551 
L 109.102918 233.874681 
L 109.194511 281.90674 
L 109.358072 268.829546 
L 109.521633 275.10165 
L 109.587057 287.754081 
L 109.70482 282.305959 
L 109.809499 286.301595 
L 110.045026 278.486884 
L 110.241299 278.202424 
L 110.51608 237.175976 
L 110.764692 278.965725 
L 110.888998 275.126061 
L 111.032932 278.858848 
L 111.183407 266.519951 
L 111.346968 273.201799 
L 111.667547 262.648857 
L 111.961955 285.509782 
L 112.033922 285.058957 
L 112.177855 283.626668 
L 112.295619 276.633695 
L 112.38067 283.502648 
L 112.603113 254.496229 
L 112.733961 278.793312 
L 112.871352 274.581 
L 113.0022 274.658942 
L 113.231185 250.312189 
L 113.355491 286.132045 
L 113.492882 284.439964 
L 113.741494 273.11444 
L 113.878885 274.369327 
L 113.937767 288.938518 
L 114.094785 285.900392 
L 114.258345 277.496616 
L 114.363024 282.975208 
L 114.500415 272.519879 
L 114.578924 286.94017 
L 114.945299 261.117081 
L 115.174284 253.965983 
L 115.27242 282.550922 
L 115.462151 279.774286 
L 115.573372 286.080643 
L 115.73039 271.528451 
L 115.913578 283.79637 
L 116.129477 272.13476 
L 116.365005 267.567245 
L 116.659414 282.911146 
L 116.868771 276.221155 
L 116.94728 288.224248 
L 117.156638 280.332677 
L 117.235147 286.051377 
L 117.483759 285.457826 
L 117.895931 272.276838 
L 117.97444 287.149032 
L 118.079119 278.918244 
L 118.177255 281.882322 
L 118.373528 272.970786 
L 118.576343 277.598163 
L 118.635225 288.292335 
L 118.7857 286.870451 
L 119.080109 274.137041 
L 119.315636 290.254453 
L 119.4334 285.775239 
L 119.583876 273.480097 
L 119.81286 268.140176 
L 119.930624 282.261317 
L 120.094184 271.447815 
L 120.153066 288.561831 
L 120.362424 257.668736 
L 120.43439 287.824009 
L 120.663375 273.163248 
L 120.833478 283.531214 
L 121.003581 275.667624 
L 121.088632 287.693134 
L 121.258735 277.446873 
L 121.546602 244.57572 
L 121.775587 280.006559 
L 122.030741 287.325275 
L 122.194302 286.936353 
L 122.305523 286.280359 
L 122.410201 286.405795 
L 122.554135 278.80149 
L 122.75695 287.107993 
L 123.031731 274.324206 
L 123.221462 270.034699 
L 123.280343 288.228718 
L 123.476616 285.507645 
L 123.633634 273.692185 
L 123.901873 285.101556 
L 124.006552 285.596177 
L 124.124316 283.08724 
L 124.340216 286.850476 
L 124.418725 287.571647 
L 124.536488 286.494496 
L 124.686964 276.963955 
L 124.765473 289.031523 
L 125.014085 275.889495 
L 125.125306 287.441187 
L 125.301951 271.031829 
L 125.354291 291.437924 
L 125.419715 289.055237 
L 125.655242 252.27523 
L 125.733751 285.593691 
L 125.936566 284.121324 
L 126.152466 285.735568 
L 126.387993 247.532889 
L 126.505757 279.549706 
L 126.83942 217.411884 
L 126.924472 284.227505 
L 127.199253 263.416588 
L 127.467493 288.145679 
L 127.591799 284.368109 
L 127.716105 274.852078 
L 127.905835 287.154413 
L 128.003971 282.937199 
L 128.069395 286.647311 
L 128.187159 279.081115 
L 128.599331 183.692927 
L 128.828316 283.791371 
L 128.932995 284.548982 
L 129.031131 282.925469 
L 129.175064 289.665558 
L 129.449846 271.654282 
L 129.593779 284.758788 
L 129.750798 283.620673 
L 129.875104 281.002875 
L 129.933985 287.564114 
L 130.032122 286.7974 
L 130.182597 283.602893 
L 130.588227 240.116955 
L 130.804127 285.485651 
L 130.902264 283.888879 
L 131.039654 284.845516 
L 131.16396 280.994508 
L 131.255554 282.020946 
L 131.320979 287.36916 
L 131.523794 282.419764 
L 131.798575 262.759492 
L 131.857457 288.584209 
L 131.968678 282.188332 
L 132.099527 285.04446 
L 132.420105 238.421227 
L 132.492072 287.479267 
L 132.583666 285.452526 
L 132.688344 281.491859 
L 132.760311 285.910401 
L 132.858447 283.480689 
L 132.950041 284.093763 
L 133.061262 282.823704 
L 133.126687 287.135221 
L 133.277162 267.689569 
L 133.447265 286.155665 
L 133.67625 283.961444 
L 133.754759 285.387193 
L 133.957574 270.158489 
L 134.049168 285.69174 
L 134.193101 279.045394 
L 134.317407 285.640831 
L 134.454798 284.917111 
L 134.736122 272.080736 
L 134.827716 285.784042 
L 135.030531 263.112937 
L 135.266058 273.479309 
L 135.344567 287.881103 
L 135.455788 278.282782 
L 135.645519 284.299156 
L 135.835249 271.815788 
L 136.561458 88.959228 
L 136.659594 284.359834 
L 136.744645 283.29944 
L 136.901663 284.783251 
L 137.143733 276.204365 
L 137.2157 285.029057 
L 137.366175 284.669966 
L 137.444684 285.079082 
L 137.529736 284.480868 
L 137.640957 286.033522 
L 137.732551 286.022415 
L 138.00079 276.409251 
L 138.210148 283.048471 
L 138.340996 279.035678 
L 138.419505 286.189314 
L 138.635405 251.040936 
L 138.720456 283.669626 
L 138.86439 281.378895 
L 139.113002 267.573909 
L 139.315817 285.025281 
L 139.505547 286.516936 
L 139.642938 287.075027 
L 139.871922 281.137911 
L 140.015856 273.560686 
L 140.395316 238.699694 
L 140.637386 285.386003 
L 140.735522 287.441143 
L 140.846743 281.173984 
L 140.91871 286.652311 
L 141.043016 280.176935 
L 141.252373 287.2874 
L 141.520612 271.852639 
L 141.690715 270.581456 
L 141.815021 283.448796 
L 141.913158 281.025996 
L 142.344957 232.520493 
L 142.580485 286.15256 
L 142.920691 236.728858 
L 143.13659 286.999272 
L 143.293608 282.891537 
L 143.614187 258.902179 
L 143.849714 285.914056 
L 144.019817 281.212983 
L 144.183378 273.403228 
L 144.660974 286.630643 
L 144.726399 286.618458 
L 145.145114 261.251799 
L 145.504947 230.62242 
L 145.563829 288.290393 
L 145.661965 286.68988 
L 145.766644 279.934021 
L 145.884407 290.727153 
L 145.969459 286.830652 
L 146.283495 255.815075 
L 146.46014 285.974078 
L 146.545192 288.229475 
L 146.89194 277.280411 
L 147.009703 285.866924 
L 147.160179 273.044066 
L 147.245231 285.699441 
L 147.4873 279.389498 
L 147.657403 267.932503 
L 147.814421 287.035192 
L 148.049948 276.366184 
L 148.141542 286.59852 
L 148.390154 279.625593 
L 148.769615 225.717077 
L 148.880836 280.593733 
L 149.018227 273.826389 
L 149.508908 206.647315 
L 149.770605 284.363582 
L 149.875284 285.317388 
L 149.966878 283.990505 
L 150.248202 271.71323 
L 150.352881 284.099033 
L 150.503356 272.834498 
L 150.581865 286.503765 
L 150.693086 281.49533 
L 150.758511 287.555107 
L 150.850104 282.349124 
L 151.00058 282.88725 
L 151.380041 254.091082 
L 151.45855 287.397034 
L 151.720246 277.617076 
L 151.903434 284.698579 
L 152.02774 283.854094 
L 152.158589 276.360239 
L 152.335234 285.081855 
L 152.479167 272.998781 
L 152.780119 283.922429 
L 152.930594 276.709156 
L 153.100697 283.045579 
L 153.24463 271.306036 
L 153.316597 286.300913 
L 153.447446 280.420186 
L 153.552124 281.039562 
L 153.7026 270.279079 
L 153.839991 289.621507 
L 154.003551 267.793082 
L 154.10823 283.739031 
L 154.225994 276.229835 
L 154.343757 280.5122 
L 154.526945 268.690129 
L 154.808269 282.779312 
L 154.906405 280.95312 
L 155.024169 286.220633 
L 155.115763 285.239373 
L 155.312035 270.657326 
L 155.488681 286.287647 
L 155.75692 276.41682 
L 155.874684 277.131411 
L 156.038244 282.624524 
L 156.175635 280.760704 
L 156.260686 284.627695 
L 156.384992 284.423206 
L 156.470044 285.044887 
L 156.607435 282.044809 
L 156.705571 286.136927 
L 156.842962 276.734951 
L 157.013065 283.4113 
L 157.143913 277.192543 
L 157.255134 278.480078 
L 157.346728 281.15375 
L 157.484119 280.887988 
L 157.667307 269.704589 
L 158.033682 237.466925 
L 158.164531 280.494708 
L 158.386973 271.078508 
L 158.589788 287.91747 
L 159.152436 139.133268 
L 159.230945 287.129219 
L 159.322539 286.882218 
L 159.4861 272.795869 
L 159.603863 285.61042 
L 159.924442 282.646184 
L 159.996409 288.137229 
L 160.127257 279.585691 
L 160.225393 283.340921 
L 160.48709 259.296831 
L 160.611396 283.460147 
L 160.70299 283.090538 
L 160.899263 280.113455 
L 160.958145 288.900051 
L 161.088993 275.173178 
L 161.213299 282.214247 
L 161.409572 268.563764 
L 161.51425 283.09169 
L 161.78249 243.383002 
L 161.991847 285.162571 
L 162.240459 252.05185 
L 162.384392 275.467603 
L 162.554495 274.228379 
L 162.763853 274.896508 
L 162.829277 287.057801 
L 163.058262 257.895773 
L 163.136771 286.360289 
L 163.228365 285.488491 
L 163.37884 283.343662 
L 163.490061 285.626662 
L 163.732131 280.884901 
L 163.889149 283.583998 
L 164.275152 197.848941 
L 164.379831 285.97903 
L 164.471425 284.676022 
L 164.641527 284.467756 
L 164.844342 282.436445 
L 165.047158 283.912985 
L 165.171464 276.742239 
L 165.321939 287.963081 
L 165.426618 285.882072 
L 165.766824 241.503782 
L 165.851875 286.282208 
L 165.963096 283.644196 
L 166.159369 286.176933 
L 166.27059 280.71673 
L 166.355642 283.22185 
L 166.479948 282.638379 
L 166.564999 283.210607 
L 166.72856 271.232762 
L 166.826696 287.574177 
L 166.951002 284.222693 
L 167.265038 261.912033 
L 167.415514 270.627009 
L 167.644499 287.698024 
L 167.801517 275.319211 
L 167.978162 285.750764 
L 168.239859 278.686775 
L 168.521183 284.840282 
L 168.697828 285.822428 
L 169.018407 261.648986 
L 169.280104 282.363958 
L 169.450207 283.066214 
L 169.548343 283.012681 
L 169.666107 286.285705 
L 170.039025 279.404787 
L 170.110991 285.867427 
L 171.00076 252.568298 
L 171.628833 286.852379 
L 171.969039 214.350218 
L 172.041005 285.254088 
L 172.368126 282.19738 
L 172.433551 288.169419 
L 172.590569 273.891348 
L 172.655993 288.277439 
L 172.819553 281.373496 
L 173.015826 267.511343 
L 173.146674 277.394425 
L 173.349489 269.194235 
L 173.480338 288.255507 
L 173.643898 270.385522 
L 174.265428 180.622181 
L 174.500956 286.721451 
L 174.644889 276.110384 
L 174.75611 280.165006 
L 174.828077 287.640031 
L 175.063604 268.343167 
L 175.384182 275.112418 
L 175.534658 274.743861 
L 175.711303 286.199314 
L 175.894491 262.769903 
L 176.044967 288.561077 
L 176.260867 254.960952 
L 176.411342 287.55199 
L 176.59453 269.646085 
L 176.666497 287.697558 
L 176.751548 285.929196 
L 176.960906 271.334963 
L 177.157178 287.642915 
L 177.353451 262.158534 
L 177.575893 265.121498 
L 177.693657 282.826586 
L 177.81142 277.882919 
L 177.889929 286.837283 
L 177.994608 280.581526 
L 178.334814 237.672732 
L 178.537629 283.955339 
L 178.668478 273.838485 
L 179.008683 213.295666 
L 179.074108 289.029393 
L 179.309635 279.693288 
L 179.394686 284.096435 
L 179.499365 278.297447 
L 179.564789 288.453567 
L 179.643298 285.708257 
L 179.793774 272.81266 
L 179.970419 285.584408 
L 180.160149 271.980399 
L 180.225574 287.774935 
L 180.938698 53.568 
L 181.501346 285.377795 
L 181.704161 259.267893 
L 181.880806 285.301042 
L 181.9724 285.258565 
L 182.149045 286.087692 
L 182.371488 253.609802 
L 182.489251 280.65612 
L 182.607015 276.178475 
L 182.796745 287.142279 
L 183.136951 280.292364 
L 183.202375 288.322645 
L 183.339766 278.507683 
L 183.483699 279.813264 
L 184.02672 233.024775 
L 184.164111 278.666447 
L 184.321129 274.649426 
L 184.641708 282.467769 
L 184.994998 269.550642 
L 185.060423 286.876401 
L 185.322119 278.084716 
L 185.426798 278.879249 
L 185.623071 286.093899 
L 185.773547 269.96703 
L 185.910937 280.571239 
L 186.067955 282.459223 
L 186.139922 287.439945 
L 186.231516 286.261374 
L 186.32311 286.873981 
L 186.381992 288.669648 
L 186.493213 280.431731 
L 186.597892 285.193987 
L 186.72874 277.846639 
L 186.872673 289.85422 
L 187.173625 278.636743 
L 187.311015 279.224068 
L 187.494203 261.308361 
L 187.618509 276.353424 
L 187.801697 277.405362 
L 187.9718 277.683602 
L 188.037224 287.802688 
L 188.154988 282.428347 
L 188.207327 290.348307 
L 188.279294 288.617097 
L 188.743806 188.270024 
L 188.894281 280.930813 
L 189.633575 86.29394 
L 189.738253 280.878286 
L 189.849475 280.451517 
L 189.960696 280.649708 
L 190.189681 241.903762 
L 190.392496 284.954814 
L 190.484089 283.133153 
L 190.601853 283.825716 
L 190.713074 280.170289 
L 190.850465 279.881563 
L 190.955144 280.926634 
L 191.171044 286.528785 
L 191.301892 283.143375 
L 191.491622 283.825523 
L 191.714065 267.699956 
L 191.857998 273.439574 
L 191.995389 287.301559 
L 192.165492 272.260387 
L 192.276713 281.82603 
L 192.381391 278.397392 
L 192.48607 285.809358 
L 192.852446 229.813939 
L 192.930955 286.474578 
L 193.016006 285.074503 
L 193.101058 286.049078 
L 193.277703 271.628812 
L 193.34967 286.229225 
L 193.441264 284.447213 
L 193.611367 285.10085 
L 193.70296 283.975434 
L 193.768385 287.53079 
L 193.997369 276.743974 
L 194.102048 284.429903 
L 194.239439 282.089642 
L 194.363745 276.492026 
L 194.546933 275.358564 
L 194.684324 273.043008 
L 194.828257 283.697875 
L 194.939478 277.168618 
L 195.142293 272.409631 
L 195.292769 286.850465 
L 195.37782 283.992625 
L 195.475956 285.47057 
L 195.587178 284.069134 
L 195.776908 264.802863 
L 195.99935 288.755968 
L 196.117114 283.617431 
L 196.195623 285.034471 
L 196.306844 282.866834 
L 196.496574 269.521621 
L 196.633965 281.45472 
L 196.745186 279.724068 
L 196.941459 287.173354 
L 197.033053 282.875845 
L 197.111562 285.636572 
L 197.255495 267.660001 
L 197.48448 286.624888 
L 197.733092 277.546294 
L 197.86394 282.199487 
L 197.955534 282.108103 
L 198.073298 277.705896 
L 198.145264 285.556442 
L 198.367706 246.778371 
L 198.472385 280.396392 
L 198.622861 269.240837 
L 198.858388 260.582191 
L 199.152797 230.623918 
L 199.479918 285.092186 
L 199.5388 287.808298 
L 199.807039 271.516419 
L 199.94443 276.478706 
L 200.029481 283.895279 
L 200.206127 278.374041 
L 200.363145 281.476377 
L 200.435111 286.383807 
L 200.533248 285.480817 
L 200.72952 281.630855 
L 200.840742 284.509151 
L 200.932335 283.490283 
L 201.017387 286.374115 
L 201.141693 281.361256 
L 201.344508 282.291913 
L 201.462271 279.517225 
L 201.599662 283.388492 
L 201.80902 262.837933 
L 202.083801 264.415935 
L 202.18848 285.015818 
L 202.273532 284.926185 
L 202.371668 285.50819 
L 202.456719 284.46103 
L 202.535228 287.962001 
L 202.633365 284.603731 
L 202.698789 286.37429 
L 202.770756 285.846874 
L 202.99974 273.677171 
L 203.130589 289.087553 
L 203.196013 287.416964 
L 203.45771 272.241853 
L 203.575473 285.450696 
L 203.667067 284.903773 
L 203.752119 286.879741 
L 203.817543 286.450375 
L 203.902594 283.350143 
L 204.007273 284.350779 
L 204.111952 279.195901 
L 204.255885 281.859971 
L 204.393276 278.282795 
L 204.530667 286.350942 
L 204.641888 278.02072 
L 204.903585 244.176158 
L 205.034433 278.810431 
L 205.184909 281.681835 
L 205.289588 281.091531 
L 205.479318 287.059954 
L 205.577454 284.099267 
L 205.695218 289.6228 
L 205.845693 286.025213 
L 206.15973 255.258355 
L 206.375629 283.812153 
L 206.532648 276.454942 
L 206.735463 277.740364 
L 206.905566 287.274682 
L 207.18689 265.997222 
L 207.35045 287.475073 
L 207.468214 282.748351 
L 207.684114 247.778021 
L 208.043947 274.302011 
L 208.220592 259.050297 
L 208.292559 285.838453 
L 208.573883 266.87957 
L 208.672019 284.139576 
L 208.802868 281.334406 
L 208.894461 283.638645 
L 209.090734 279.756025 
L 209.162701 287.219277 
L 209.300092 285.000865 
L 209.378601 286.40772 
L 209.640297 254.060784 
L 209.784231 287.285143 
L 209.947791 274.280337 
L 210.124437 286.354522 
L 210.209488 286.471264 
L 210.346879 284.019277 
L 210.575864 254.599156 
L 210.719797 280.52801 
L 210.935697 273.262659 
L 211.203936 279.888636 
L 211.452548 275.250205 
L 211.504887 289.280567 
L 211.589939 285.640528 
L 211.753499 264.042605 
L 211.818924 286.710776 
L 212.119875 274.817429 
L 212.32269 282.252529 
L 212.433911 284.242151 
L 212.56476 280.952849 
L 212.662896 285.804834 
L 212.97039 272.692678 
L 213.238629 286.050987 
L 213.32368 285.496173 
L 213.53958 261.488707 
L 213.624632 283.798581 
L 213.879786 268.507102 
L 214.010635 275.953847 
L 214.076059 287.456642 
L 214.167653 282.175654 
L 214.278874 284.119301 
L 214.488231 255.445908 
L 214.586368 285.585375 
L 214.684504 279.93624 
L 214.75647 286.645131 
L 214.874234 285.309326 
L 215.018167 282.050159 
L 215.077049 288.09925 
L 215.181728 279.263367 
L 215.384543 289.086264 
L 215.64624 279.840002 
L 215.737834 286.17967 
L 215.960276 276.77288 
L 216.032243 285.670518 
L 216.182718 283.160359 
L 216.2416 288.554084 
L 216.411703 276.306321 
L 216.542551 277.623067 
L 216.712654 288.48681 
L 216.86313 269.203509 
L 217.098657 281.902085 
L 217.432321 229.530872 
L 217.530457 286.612991 
L 217.661305 282.249621 
L 217.752899 288.609518 
L 218.217411 212.728122 
L 218.341717 277.928699 
L 218.479108 275.922786 
L 218.570702 283.412048 
L 218.747347 285.945073 
L 218.819314 284.950419 
L 218.963247 273.215102 
L 219.126808 287.59726 
L 219.264198 272.699484 
L 219.34925 283.148195 
L 219.486641 272.449582 
L 219.761422 283.137861 
L 219.853016 285.196836 
L 219.951153 282.598561 
L 220.029662 287.21928 
L 220.284816 279.767202 
L 220.389495 282.715821 
L 220.494173 281.052031 
L 220.664276 264.49849 
L 220.742785 284.851946 
L 220.821295 284.131987 
L 221.050279 254.874863 
L 221.259637 257.88414 
L 221.364315 287.246366 
L 221.468994 283.215181 
L 221.554046 286.926999 
L 221.665267 284.215792 
L 221.78303 277.576268 
L 221.848455 289.044071 
L 222.221373 252.848676 
L 222.306424 285.774362 
L 222.391476 284.594514 
L 222.496154 283.549697 
L 222.627003 283.669186 
L 222.698969 284.706189 
L 222.757851 289.22642 
L 222.86253 285.627154 
L 223.111142 265.223871 
L 223.281245 276.196758 
L 223.503687 250.946492 
L 223.641078 289.048453 
L 223.843893 282.403851 
L 223.928944 285.281607 
L 224.040166 283.379579 
L 224.282235 286.682199 
L 224.393456 277.881094 
L 224.543932 282.606135 
L 224.668238 273.730475 
L 224.871053 271.335689 
L 225.028071 286.452501 
L 225.329022 278.946219 
L 225.518753 285.076724 
L 225.649601 278.216895 
L 225.858959 283.214132 
L 225.957095 279.993942 
L 226.055231 281.945496 
L 226.146825 280.973689 
L 226.231876 286.209716 
L 226.32347 284.267615 
L 226.441234 287.560419 
L 226.742185 267.927984 
L 226.827237 287.000143 
L 226.925373 283.384383 
L 227.128188 287.391352 
L 227.219782 284.552701 
L 227.435682 246.11077 
L 227.645039 282.093582 
L 227.854397 265.238614 
L 227.959076 279.421676 
L 228.083382 279.618684 
L 228.18806 282.360231 
L 228.384333 269.95778 
L 228.469384 288.562156 
L 228.717996 278.089532 
L 228.829218 281.765213 
L 228.992778 264.169797 
L 229.07783 284.573975 
L 229.254475 274.590024 
L 229.352611 285.299174 
L 229.699359 254.020756 
L 229.784411 284.674464 
L 229.908717 277.689103 
L 229.987226 287.891638 
L 230.059193 285.331804 
L 230.124617 289.061312 
L 230.333974 280.241064 
L 230.45828 281.980182 
L 230.772317 246.88257 
L 230.876995 285.811528 
L 230.955504 285.324288 
L 231.020928 287.560312 
L 231.302253 280.587221 
L 231.354592 290.045938 
L 231.439643 286.781208 
L 231.498525 288.390353 
L 231.590119 286.673875 
L 231.747137 272.772313 
L 231.904155 285.420142 
L 232.126598 278.232833 
L 232.205107 283.842507 
L 232.316328 280.370575 
L 232.401379 284.615734 
L 232.506058 283.514441 
L 232.604194 280.82949 
L 232.669619 289.139434 
L 232.826637 268.947226 
L 233.147215 286.24652 
L 233.232267 284.368761 
L 233.35003 284.912235 
L 233.526676 277.968594 
L 233.722948 289.537946 
L 233.775288 289.425075 
L 233.860339 284.505711 
L 233.919221 289.646402 
L 234.194003 273.756681 
L 234.331393 275.682496 
L 234.625802 247.413905 
L 234.854787 284.922778 
L 235.123026 282.62007 
L 235.332384 250.780835 
L 235.522114 285.930077 
L 235.594081 285.703713 
L 235.80998 262.238127 
L 236.006253 285.284505 
L 236.117474 277.726813 
L 236.379171 286.531596 
L 236.470765 283.158069 
L 236.64741 268.864797 
L 236.739004 288.974704 
L 236.837141 283.994101 
L 236.902565 286.201217 
L 237.046498 287.861397 
L 237.164262 281.723024 
L 237.596061 286.52892 
L 237.72691 270.085613 
L 237.929725 286.337214 
L 238.060573 276.917896 
L 238.119455 287.463667 
L 238.204506 284.157638 
L 238.479288 277.428073 
L 238.603594 285.891186 
L 238.721358 283.049122 
L 238.904546 288.364237 
L 239.140073 279.030929 
L 239.205497 287.022818 
L 239.329803 274.152881 
L 239.427939 281.318802 
L 239.532618 279.918614 
L 239.748518 273.477375 
L 240.056012 287.576702 
L 240.18686 274.018154 
L 240.258827 287.060207 
L 240.442014 262.275991 
L 240.533608 284.695264 
L 240.716796 279.310576 
L 240.788763 285.455174 
L 240.880357 281.582501 
L 240.97195 284.816228 
L 241.063544 283.661681 
L 241.253275 265.828802 
L 241.390665 288.297321 
L 241.508429 276.360627 
L 241.580396 287.17481 
L 241.658905 286.818741 
L 241.914059 279.612379 
L 242.116874 259.111571 
L 242.175756 287.278965 
L 242.260807 285.788159 
L 242.358944 286.922448 
L 242.607556 281.267863 
L 242.705692 280.344286 
L 242.790743 284.431073 
L 242.901965 281.432682 
L 242.967389 287.956135 
L 243.098237 274.152189 
L 243.281425 279.037396 
L 243.366476 288.802226 
L 243.451528 286.203831 
L 243.680513 241.340295 
L 243.745937 288.030946 
L 243.857158 282.867164 
L 243.942209 285.75376 
L 244.10577 273.350188 
L 244.302043 287.823046 
L 244.432891 279.225456 
L 244.557197 282.124082 
L 244.629164 287.906926 
L 244.740385 280.302659 
L 244.877776 287.546312 
L 245.034794 269.592358 
L 245.335745 287.951523 
L 245.414254 286.503652 
L 245.630154 262.345317 
L 245.813342 283.954729 
L 245.99653 257.892558 
L 246.13392 287.458514 
L 246.218972 285.836232 
L 246.290939 288.917615 
L 246.493754 282.229428 
L 246.56572 287.606797 
L 246.768535 281.286883 
L 246.840502 287.11872 
L 246.945181 280.356237 
L 247.37698 199.87075 
L 247.481659 286.620426 
L 247.586338 286.32215 
L 247.664847 284.192318 
L 247.723729 290.623107 
L 247.80878 285.67261 
L 247.939629 287.34879 
L 248.083562 285.807014 
L 248.319089 288.475056 
L 248.397598 286.305455 
L 248.554616 273.940753 
L 248.62004 287.408394 
L 248.724719 280.413184 
L 248.822855 287.17855 
L 249.006043 282.172867 
L 249.143434 277.930222 
L 249.326622 275.845251 
L 249.411673 284.476901 
L 249.496725 283.610389 
L 249.581776 283.83849 
L 249.784591 275.997915 
L 249.850015 286.342507 
L 249.941609 285.685239 
L 250.013576 285.39223 
L 250.249103 274.017632 
L 250.451918 288.778969 
L 250.569682 283.495874 
L 250.805209 285.847121 
L 250.896803 281.09832 
L 251.034194 281.485555 
L 251.289348 286.952414 
L 251.341687 290.361766 
L 251.426739 287.659736 
L 251.694978 242.398113 
L 251.819284 275.497029 
L 252.028642 256.953105 
L 252.074439 290.809843 
L 252.139863 286.861454 
L 252.198744 287.965767 
L 252.421187 264.102038 
L 252.486611 286.689414 
L 252.879156 241.440733 
L 253.016547 282.931205 
L 253.147396 271.977067 
L 253.225905 284.604736 
L 253.356753 275.30439 
L 253.42872 285.269122 
L 253.513771 284.292543 
L 253.59228 288.688993 
L 253.860519 278.809693 
L 254.05025 287.743162 
L 254.122216 285.425888 
L 254.194183 286.441613 
L 254.298862 283.561302 
L 254.482049 286.562647 
L 254.59327 283.660445 
L 254.704492 286.464074 
L 254.887679 267.947579 
L 255.090494 286.271962 
L 255.182088 283.686753 
L 255.24097 288.996501 
L 255.378361 283.381869 
L 255.515752 282.39195 
L 255.607346 285.641103 
L 255.816703 263.940112 
L 255.967179 287.552498 
L 256.05223 284.917529 
L 256.130739 285.890713 
L 256.215791 283.652541 
L 256.327012 274.533551 
L 256.490573 288.028878 
L 256.7261 284.379737 
L 256.870033 272.560572 
L 256.928915 289.70001 
L 257.000881 286.401875 
L 257.112102 280.441893 
L 257.210239 280.590012 
L 257.282205 286.286186 
L 257.426139 276.175551 
L 257.498105 285.89354 
L 257.655123 271.715423 
L 258.021499 218.542553 
L 258.080381 288.944004 
L 258.165432 282.876167 
L 258.368247 271.950484 
L 258.446756 285.980928 
L 258.59069 285.479535 
L 258.662656 285.511855 
L 258.72808 288.215925 
L 258.97015 284.932723 
L 259.042117 285.153516 
L 259.153338 279.070201 
L 259.251474 285.546027 
L 259.323441 285.525798 
L 259.395407 286.369313 
L 259.467374 289.7372 
L 259.572053 281.184279 
L 259.670189 282.142579 
L 259.768325 284.034651 
L 259.83375 288.18624 
L 259.944971 280.651123 
L 260.010395 287.180865 
L 260.141243 276.375329 
L 260.206668 287.723653 
L 260.278634 286.110178 
L 260.389855 285.560279 
L 260.461822 285.826565 
L 260.703891 278.528946 
L 260.775858 288.002221 
L 260.913249 273.452855 
L 260.985216 286.686349 
L 261.102979 283.075964 
L 261.181488 284.922345 
L 261.286167 278.794262 
L 261.358134 285.177469 
L 261.508609 268.003433 
L 261.678712 273.292728 
L 262.136682 162.308681 
L 262.2937 265.877689 
L 262.561939 278.971634 
L 262.640448 287.459458 
L 262.718957 285.514224 
L 263.059163 272.241985 
L 263.248893 288.244426 
L 263.32086 288.766665 
L 263.471335 280.10362 
L 263.576014 280.189568 
L 263.641438 288.043334 
L 263.824626 271.952952 
L 263.903135 288.442329 
L 263.988187 285.741641 
L 264.053611 288.605378 
L 264.32185 267.174737 
L 264.387274 290.575061 
L 264.56392 264.143434 
L 264.773277 284.767987 
L 264.936838 285.881372 
L 264.99572 287.994838 
L 265.120026 277.187424 
L 265.270501 286.250369 
L 265.362095 280.2502 
L 265.479859 280.376587 
L 265.545283 288.279183 
L 265.676131 279.073173 
L 265.846234 285.164611 
L 265.944371 283.396857 
L 266.094846 287.705857 
L 266.16027 286.443666 
L 266.291119 274.520651 
L 266.441594 290.273445 
L 266.507019 288.640906 
L 266.657494 269.789676 
L 266.873394 273.438106 
L 266.945361 289.134496 
L 267.017328 286.124484 
L 267.115464 279.980773 
L 267.193973 285.546109 
L 267.396788 275.765684 
L 267.566891 285.776454 
L 267.658485 284.824012 
L 267.795876 276.714221 
L 267.894012 283.322443 
L 268.005233 279.515533 
L 268.109912 284.802385 
L 268.221133 284.293478 
L 268.306184 286.257057 
L 268.489372 270.531548 
L 268.535169 290.583092 
L 268.711814 261.540764 
L 268.764154 289.93563 
L 268.823036 289.254828 
L 268.927714 282.581003 
L 269.006223 286.711794 
L 269.156699 278.518979 
L 269.411854 287.322855 
L 269.503447 283.123465 
L 269.771687 231.68558 
L 269.94179 284.860685 
L 270.085723 289.300194 
L 270.242741 283.969937 
L 270.314708 286.224429 
L 270.543692 275.358375 
L 270.609117 287.118062 
L 270.870813 271.430333 
L 270.995119 288.324603 
L 271.086713 284.219526 
L 271.139053 290.632337 
L 271.381122 285.327091 
L 271.531598 281.523393 
L 271.956855 288.585257 
L 272.087704 284.776358 
L 272.146585 288.0525 
L 272.336316 282.040111 
L 272.427909 285.133943 
L 272.506419 283.771448 
L 272.683064 266.539177 
L 272.748488 287.379187 
L 272.951303 268.56847 
L 273.055982 282.122581 
L 273.180288 281.309561 
L 273.271882 281.690901 
L 273.389645 279.257826 
L 273.703682 286.800292 
L 273.906497 284.580537 
L 274.011175 283.448594 
L 274.063515 288.950043 
L 274.285957 280.242727 
L 274.442975 288.421915 
L 274.639248 282.216251 
L 274.737384 282.729067 
L 274.802808 287.637117 
L 274.874775 287.089195 
L 274.966369 282.389061 
L 275.162641 288.393171 
L 275.280405 276.400193 
L 275.385084 280.989718 
L 275.515932 279.73871 
L 275.659865 286.279603 
L 275.88885 276.506851 
L 275.960817 286.381985 
L 276.058953 280.907383 
L 276.144004 286.46662 
L 276.242141 281.206789 
L 276.34682 287.31098 
L 276.451498 279.314311 
L 276.497295 290.449466 
L 276.713195 274.089905 
L 276.791704 285.175632 
L 276.883298 282.836783 
L 276.974892 284.661472 
L 277.203877 281.821119 
L 277.341267 279.694032 
L 277.432861 289.794634 
L 277.596422 269.339176 
L 277.694558 286.105035 
L 277.988967 270.64352 
L 278.093646 284.392661 
L 278.211409 278.688689 
L 278.316088 281.014847 
L 278.368428 289.447359 
L 278.440394 288.619913 
L 278.512361 287.894357 
L 278.662836 285.792385 
L 278.721718 289.597254 
L 278.787142 287.462641 
L 278.891821 285.331208 
L 279.02267 274.238456 
L 279.107721 286.794636 
L 279.18623 285.689086 
L 279.317079 282.068984 
L 279.461012 286.884491 
L 279.683454 265.081511 
L 279.742336 287.436071 
L 279.83393 281.16823 
L 279.905896 288.516015 
L 280.030202 284.311923 
L 280.089084 288.061369 
L 280.226475 277.592526 
L 280.311527 285.867217 
L 280.488172 263.667583 
L 280.553596 286.653896 
L 280.632105 284.572383 
L 280.88726 276.128171 
L 280.959226 286.164645 
L 281.044278 285.491691 
L 281.096617 289.393062 
L 281.371399 267.683843 
L 281.45645 285.824462 
L 281.541502 284.071595 
L 281.659265 285.236745 
L 281.842453 261.126191 
L 282.091065 282.989481 
L 282.189201 283.80216 
L 282.313507 282.55191 
L 282.372389 289.428809 
L 282.542492 265.395579 
L 282.843443 284.533812 
L 283.046258 282.08922 
L 283.10514 287.685626 
L 283.196734 286.40705 
L 283.281786 286.234961 
L 283.53694 279.813304 
L 283.641619 278.36377 
L 283.857519 287.383979 
L 283.9164 287.822908 
L 284.151927 275.517855 
L 284.236979 281.835957 
L 284.465964 278.362263 
L 284.531388 289.426918 
L 284.622982 286.186156 
L 284.701491 286.665714 
L 284.799627 282.057392 
L 284.891221 282.895651 
L 284.96973 285.317589 
L 285.054782 282.786151 
L 285.18563 287.141182 
L 285.499666 276.926624 
L 285.584718 284.790848 
L 285.709024 282.670157 
L 285.767905 289.241377 
L 285.957636 286.555499 
L 286.042687 283.776756 
L 286.127739 285.977277 
L 286.219332 280.71704 
L 286.284757 287.529872 
L 286.585708 282.785964 
L 286.710014 288.729722 
L 286.880117 261.794369 
L 287.082932 281.437839 
L 287.23995 283.246478 
L 287.364256 274.858873 
L 287.553986 282.998392 
L 287.711004 274.211895 
L 287.841853 282.463679 
L 287.959616 276.630331 
L 288.273653 278.357859 
L 288.352162 288.17188 
L 288.469925 277.348407 
L 288.541892 285.98354 
L 288.679283 271.967898 
L 288.88864 281.605806 
L 289.006404 279.25042 
L 289.34661 283.661188 
L 289.451288 281.179176 
L 289.529797 284.512646 
L 289.673731 281.487007 
L 289.850376 284.51801 
L 290.072818 267.188866 
L 290.151327 285.253546 
L 290.275633 286.335686 
L 290.419567 269.323574 
L 290.504618 285.758815 
L 290.825197 276.162614 
L 290.94296 277.971488 
L 291.028012 285.278249 
L 291.198115 260.94296 
L 291.263539 288.668206 
L 291.577575 249.992581 
L 291.656084 286.526209 
L 291.773848 278.828792 
L 291.865442 282.895113 
L 291.989748 282.566055 
L 292.094426 278.753218 
L 292.159851 287.116879 
L 292.264529 284.784803 
L 292.395378 289.917336 
L 292.558938 284.534787 
L 292.683244 288.996526 
L 292.912229 262.38106 
L 292.971111 289.169547 
L 293.04962 283.089435 
L 293.173926 274.948501 
L 293.304774 283.697845 
L 293.415995 277.624231 
L 293.494504 287.404105 
L 293.762744 270.064508 
L 293.959016 286.634743 
L 294.030983 285.350844 
L 294.214171 270.325997 
L 294.403901 286.077146 
L 294.48241 285.951579 
L 294.580546 284.134976 
L 294.659055 284.148973 
L 294.744107 284.272656 
L 294.874955 285.397866 
L 294.927294 289.647243 
L 295.038516 282.386039 
L 295.188991 288.018793 
L 295.306755 274.914926 
L 295.404891 283.271067 
L 295.516112 275.61314 
L 295.660046 287.915104 
L 295.830149 282.421747 
L 295.974082 268.804205 
L 296.163812 286.062317 
L 296.288118 282.66103 
L 296.347 288.349371 
L 296.451679 280.051909 
L 296.608697 286.689093 
L 296.680663 286.894589 
L 296.7788 285.44338 
L 296.948903 265.401034 
L 297.007784 288.750043 
L 297.164802 275.699173 
L 297.315278 287.229878 
L 297.387245 285.330833 
L 297.56389 271.868289 
L 297.707823 271.890152 
L 297.77979 286.869858 
L 297.930266 280.12972 
L 298.133081 284.33789 
L 298.191962 287.893442 
L 298.270472 286.074087 
L 298.492914 277.732991 
L 298.558338 287.040653 
L 298.643389 282.344927 
L 298.741526 284.295036 
L 298.83312 283.311023 
L 298.937798 279.807366 
L 299.029392 280.713624 
L 299.094817 288.342936 
L 299.467734 267.8281 
L 299.546244 285.217437 
L 299.64438 281.613844 
L 299.709804 286.7348 
L 299.801398 285.428265 
L 299.892992 281.880984 
L 299.991128 286.33616 
L 300.128519 274.131119 
L 300.246283 280.251372 
L 300.383673 274.208888 
L 300.462182 287.46131 
L 300.573404 278.300435 
L 300.64537 286.682881 
L 300.723879 282.907811 
L 300.913609 284.913568 
L 301.044458 281.114046 
L 301.129509 282.62432 
L 301.240731 279.555543 
L 301.450088 267.878017 
L 301.528597 286.850268 
L 301.777209 274.985508 
L 302.163212 289.122699 
L 302.228636 288.726523 
L 302.555757 270.795463 
L 302.823996 287.889202 
L 302.895963 285.821936 
L 302.954845 289.075852 
L 303.020269 287.702185 
L 303.10532 284.02254 
L 303.229626 286.425322 
L 303.32122 284.95942 
L 303.550205 274.592126 
L 303.75302 284.982937 
L 303.844614 284.437463 
L 303.949293 279.793033 
L 304.021259 287.769829 
L 304.125938 280.008683 
L 304.315668 283.365047 
L 304.394177 283.69135 
L 304.492314 285.950119 
L 304.596992 278.932472 
L 304.727841 281.704237 
L 304.937198 261.794095 
L 305.009165 286.119007 
L 305.113844 284.954359 
L 305.303574 286.444245 
L 305.395168 285.959063 
L 305.526016 275.906546 
L 305.800798 286.447086 
L 305.905477 281.26301 
L 306.04941 289.037079 
L 306.180258 273.885626 
L 306.26531 285.162925 
L 306.363446 279.8178 
L 306.546634 279.454796 
L 306.729822 273.342278 
L 306.788703 288.006456 
L 306.847585 287.41439 
L 306.926094 288.952841 
L 307.011146 286.358427 
L 307.115824 288.409434 
L 307.2663 284.481883 
L 307.338267 286.143279 
L 307.45603 275.849933 
L 307.606506 279.515462 
L 307.691557 286.101864 
L 307.770066 285.137997 
L 307.868203 284.382312 
L 307.927085 288.770444 
L 308.254206 265.533731 
L 308.345799 282.318006 
L 308.476648 275.380238 
L 308.666378 288.338487 
L 308.869193 281.419035 
L 308.960787 284.519165 
L 309.078551 277.163019 
L 309.29445 271.33464 
L 309.386044 283.348071 
L 309.660826 270.307533 
L 309.719708 287.516725 
L 309.798217 286.628829 
L 309.94215 285.814083 
L 310.007574 286.326925 
L 310.092626 284.183743 
L 310.18422 284.4179 
L 310.243101 287.583056 
L 310.360865 278.9552 
L 310.439374 288.156621 
L 310.616019 285.641566 
L 310.681444 287.337959 
L 310.773038 284.024791 
L 310.845004 287.619582 
L 310.96931 281.279545 
L 311.034734 287.130422 
L 311.132871 282.795055 
L 311.250634 282.526161 
L 311.381483 279.290078 
L 311.518874 285.36742 
L 311.662807 272.389339 
L 311.80674 288.864613 
L 311.917961 284.668838 
L 312.074979 288.312431 
L 312.245082 260.443696 
L 312.330134 281.184337 
L 312.42827 280.352031 
L 312.526406 281.970223 
L 312.598373 286.232074 
L 312.853527 276.707539 
L 312.938579 282.679998 
L 313.128309 280.75774 
L 313.23953 286.102119 
L 313.357294 277.280707 
L 313.442345 283.801288 
L 313.547024 283.311708 
L 313.64516 288.310116 
L 313.736754 285.184832 
L 313.854518 289.57147 
L 314.109672 248.776745 
L 314.279775 287.526214 
L 314.351742 286.741348 
L 314.50876 274.937887 
L 314.718117 284.965781 
L 314.947102 279.856292 
L 315.012526 290.1124 
L 315.071408 288.545427 
L 315.156459 285.332062 
L 315.215341 288.240027 
L 315.339647 276.545376 
L 315.56209 286.681826 
L 315.679853 276.466658 
L 315.797617 285.480844 
L 315.948092 267.410566 
L 316.15745 287.35335 
L 316.425689 281.209889 
L 316.510741 283.79308 
L 316.693928 281.791076 
L 316.746268 288.522537 
L 316.80515 287.636582 
L 316.903286 284.941733 
L 316.975252 287.395586 
L 317.066846 280.454696 
L 317.15844 284.813076 
L 317.289289 272.495435 
L 317.433222 270.433884 
L 317.498646 287.022787 
L 317.596782 278.818804 
L 317.77997 288.85996 
L 317.838852 288.599141 
L 317.963158 278.095996 
L 318.067837 287.073274 
L 318.159431 282.196058 
L 318.218312 288.052459 
L 318.316449 282.488642 
L 318.473467 286.568404 
L 318.656655 280.793089 
L 318.748248 281.574485 
L 318.8333 284.800377 
L 318.931436 283.993697 
L 318.983776 289.491168 
L 319.206218 277.84154 
L 319.337066 289.537318 
L 319.533339 282.877405 
L 319.768866 249.139595 
L 319.958596 286.000647 
L 320.024021 287.915452 
L 320.200666 269.495336 
L 320.338057 273.913638 
L 320.488532 271.522222 
L 320.737144 237.069501 
L 320.809111 286.344379 
L 320.926875 278.694623 
L 321.083893 286.417265 
L 321.208199 283.21703 
L 321.31942 284.249255 
L 321.450268 272.90955 
L 321.53532 283.059285 
L 321.679253 275.226232 
L 321.797017 287.758916 
L 321.868983 286.930761 
L 321.993289 279.907356 
L 322.078341 283.7807 
L 322.189562 277.045933 
L 322.268071 286.318205 
L 322.340037 284.972536 
L 322.405462 286.152151 
L 322.51014 281.315933 
L 322.595192 283.632516 
L 322.693328 278.001648 
L 322.798007 283.327034 
L 322.94194 275.446113 
L 323.066246 280.51965 
L 323.177467 278.771556 
L 323.334485 288.410429 
L 323.668149 274.677842 
L 323.766285 283.351351 
L 324.093406 287.387067 
L 324.224255 279.541418 
L 324.315849 286.340762 
L 324.453239 275.659921 
L 324.64297 284.442204 
L 324.754191 280.768725 
L 324.826157 287.261326 
L 325.120566 257.465434 
L 325.349551 281.968838 
L 325.460772 286.529493 
L 325.67013 281.639541 
L 325.735554 289.450011 
L 325.800978 287.982813 
L 325.88603 282.334081 
L 325.971081 282.536234 
L 326.062675 285.706441 
L 326.160811 283.67104 
L 326.245863 284.015236 
L 326.396338 284.767367 
L 326.546814 269.453557 
L 326.612238 285.719685 
L 326.749629 272.962025 
L 326.867393 279.695363 
L 326.985156 275.523429 
L 327.207599 287.431798 
L 327.325362 279.629163 
L 327.390786 287.543346 
L 327.495465 277.174246 
L 327.613229 279.741485 
L 327.685195 286.126271 
L 327.770247 284.833682 
L 328.15625 201.568317 
L 328.378692 287.561029 
L 328.496455 280.944637 
L 328.640389 285.740954 
L 328.745067 279.66536 
L 328.843204 289.467711 
L 328.947882 287.385008 
L 329.091816 271.340723 
L 329.307716 277.241514 
L 329.575955 227.641197 
L 329.693718 277.5924 
L 329.824567 284.318765 
L 330.007755 270.205963 
L 330.079721 289.673351 
L 330.308706 276.385715 
L 330.37413 287.373612 
L 330.446097 287.293735 
L 330.557318 288.497812 
L 330.635827 284.04527 
L 330.760133 284.61706 
L 330.864812 283.129668 
L 330.943321 286.151775 
L 331.087254 278.611787 
L 331.152678 286.261234 
L 331.276984 272.092123 
L 331.362036 285.538108 
L 331.492884 273.674533 
L 332.081702 114.618186 
L 332.153669 285.474593 
L 332.277975 277.525268 
L 332.376111 286.215048 
L 332.448078 285.617641 
L 332.598553 263.455844 
L 332.749029 289.348044 
L 332.892962 274.771567 
L 333.10232 279.916987 
L 333.285507 279.431887 
L 333.364016 286.812525 
L 333.442526 282.320498 
L 333.514492 287.064156 
L 333.789274 236.040699 
L 333.867783 284.392445 
L 334.057513 255.847279 
L 334.260328 285.698706 
L 334.365007 281.10805 
L 334.436973 288.56284 
L 334.548195 275.662166 
L 334.685585 287.464469 
L 334.934197 269.566475 
L 335.169725 249.917249 
L 335.34637 286.342719 
L 335.431421 284.485129 
L 335.575355 272.429861 
L 335.817424 291.53931 
L 336.144545 261.794751 
L 336.275394 281.982331 
L 336.445497 269.988623 
L 336.609057 286.396531 
L 336.772618 275.458038 
L 337.224045 172.230329 
L 337.446487 281.56501 
L 337.59042 267.928861 
L 337.721269 288.543011 
L 337.83249 282.180842 
L 337.897914 288.729664 
L 337.969881 286.860915 
L 338.107272 274.310306 
L 338.231578 273.212591 
L 338.460562 248.248806 
L 338.552156 285.55856 
L 338.64375 282.268711 
L 338.83348 262.667112 
L 338.925074 282.892866 
L 339.010126 282.482752 
L 339.206398 261.084783 
L 339.494265 279.626129 
L 339.677453 285.832524 
L 339.769046 286.732184 
L 339.854098 283.33535 
L 339.952234 284.324503 
L 340.141964 261.19425 
L 340.370949 286.386077 
L 340.449458 286.768788 
L 340.586849 284.180313 
L 340.730782 267.132903 
L 340.828919 278.343147 
L 340.972852 271.427866 
L 341.391567 280.637687 
L 341.607467 261.989138 
L 341.829909 288.083371 
L 342.091606 281.006339 
L 342.418727 286.922266 
L 342.58883 276.230363 
L 342.772018 287.298496 
L 342.883239 288.779038 
L 343.197275 268.24904 
L 343.288869 283.008793 
L 343.439344 269.711551 
L 343.544023 280.792631 
L 343.714126 283.071859 
L 343.910399 271.779899 
L 343.99545 283.098924 
L 344.518844 262.368236 
L 344.649692 289.213841 
L 344.839422 258.020516 
L 345.04878 285.03398 
L 345.179628 274.508815 
L 345.245053 286.005197 
L 345.382443 284.452718 
L 345.519834 272.797454 
L 345.709564 284.235983 
L 346.089025 218.51998 
L 346.206788 275.617923 
L 346.416146 259.795934 
L 346.664758 295.488 
L 346.893743 271.75811 
L 346.985336 285.189116 
L 347.070388 282.755405 
L 347.299373 271.171007 
L 347.672291 239.522878 
L 347.731172 288.428402 
L 348.038666 211.586811 
L 348.287278 234.062838 
L 348.444296 288.088036 
L 348.542433 281.748795 
L 348.823757 255.811445 
L 349.052741 287.850179 
L 349.268641 259.055574 
L 349.458372 283.934365 
L 349.56305 279.781477 
L 349.641559 286.108089 
L 349.929426 288.622079 
L 350.230377 259.342866 
L 350.420107 263.429185 
L 350.80611 211.367856 
L 351.02201 279.103953 
L 351.192113 262.290412 
L 351.499607 291.128659 
L 351.839813 217.414958 
L 352.055713 286.416562 
L 352.160391 287.888864 
L 352.409003 264.81652 
L 352.552937 291.22845 
L 352.611818 287.51584 
L 352.938939 229.930831 
L 353.344569 184.260914 
L 353.429621 284.055438 
L 353.586639 254.039569 
L 353.730572 290.675564 
L 354.044608 261.853095 
L 354.253966 282.393999 
L 354.587629 207.472536 
L 354.692308 279.713073 
L 354.842784 269.368714 
L 354.99326 284.504749 
L 355.451229 156.177536 
L 355.601705 274.661333 
L 355.863401 230.352871 
L 356.216692 206.449552 
L 356.334456 279.501826 
L 356.58961 228.729228 
L 356.661577 284.350908 
L 356.746628 283.628572 
L 356.818595 284.903176 
L 357.243852 229.03204 
L 357.368158 287.791469 
L 357.512091 268.35835 
L 357.721449 273.36888 
L 358.127079 190.966987 
L 358.48037 200.836445 
L 358.571964 288.326759 
L 359.043018 221.533678 
L 359.226206 260.9663 
L 359.415936 245.149669 
L 359.612209 284.506215 
L 360.364587 80.95904 
L 360.580487 282.660118 
L 360.75059 276.567805 
L 360.829099 286.968536 
L 360.907608 284.881166 
L 361.10388 253.531355 
L 361.202017 280.469433 
L 361.326323 275.499666 
L 361.489883 287.319511 
L 361.75158 229.815407 
L 362.111413 209.227219 
L 362.274974 290.569847 
L 362.484331 281.371686 
L 362.641349 254.531687 
L 362.844164 266.100551 
L 363.151658 214.870326 
L 363.321761 284.60183 
L 363.491864 278.087097 
L 363.661967 284.226553 
L 363.825528 270.81441 
L 363.884409 287.511892 
L 364.002173 289.127318 
L 364.126479 288.555967 
L 364.806891 126.118234 
L 365.343369 160.087799 
L 365.820966 271.101837 
L 366.252766 180.702313 
L 366.475208 267.332581 
L 366.710735 289.202609 
L 366.900465 246.897805 
L 367.221044 210.732978 
L 367.338807 283.993476 
L 367.53508 284.942581 
L 367.764065 234.963446 
L 367.953795 289.645146 
L 368.078101 284.005403 
L 368.267831 258.235387 
L 368.424849 269.304143 
L 368.575325 267.210595 
L 369.066007 198.420459 
L 369.196855 281.785053 
L 369.301534 280.48149 
L 369.491264 273.157899 
L 369.785673 271.183829 
L 369.857639 283.848175 
L 370.531509 218.35411 
L 370.753951 285.461282 
L 371.166124 194.149122 
L 371.277345 281.801244 
L 371.395108 276.663579 
L 371.761484 208.709102 
L 371.905417 272.461504 
L 372.114775 241.172963 
L 372.239081 273.312325 
L 372.363387 275.551492 
L 372.513862 268.907738 
L 372.998001 214.683465 
L 373.442886 282.932157 
L 373.658786 284.36075 
L 373.783092 274.62873 
L 373.985907 243.21158 
L 374.214892 240.063146 
L 374.31957 279.613269 
L 374.515843 259.423433 
L 374.659776 279.549067 
L 374.921473 225.463163 
L 374.986897 286.01886 
L 375.157 250.785692 
L 375.314018 288.403696 
L 375.529918 239.636661 
L 375.686936 291.749517 
L 375.889751 243.761475 
L 375.987888 284.631179 
L 376.171076 270.134721 
L 376.386975 239.345786 
L 376.576706 245.997974 
L 376.733724 268.780828 
L 377.172066 184.76039 
L 377.361796 284.287665 
L 377.486102 273.429697 
L 377.675832 268.886434 
L 377.845935 251.633738 
L 377.996411 271.269294 
L 378.26465 227.921141 
L 378.330074 286.789977 
L 378.644111 222.57887 
L 378.768417 274.578416 
L 379.088995 274.271593 
L 379.265641 273.276818 
L 379.50771 231.594535 
L 379.651643 281.691465 
L 380.024561 195.676583 
L 380.377852 219.436142 
L 380.875076 287.468005 
L 381.032094 282.45078 
L 381.470436 212.491382 
L 381.817185 255.093108 
L 382.065797 233.455987 
L 382.327493 224.714271 
L 382.64153 208.171636 
L 382.896684 228.966441 
L 383.034075 287.829647 
L 383.184551 290.097411 
L 383.367738 246.63087 
L 383.524756 255.518503 
L 384.002353 171.382132 
L 384.093947 286.699088 
L 384.283677 284.610049 
L 384.584629 218.834704 
L 384.872495 292.989229 
L 385.173446 247.276493 
L 385.356634 247.179227 
L 385.729552 224.897708 
L 385.794976 285.989706 
L 386.063216 221.907992 
L 386.148267 283.39297 
L 387.005324 182.352598 
L 387.090376 286.26108 
L 387.53526 220.942685 
L 387.8035 226.682537 
L 387.999772 243.954652 
L 388.150248 293.33158 
L 388.235299 282.735265 
L 389.170866 219.276292 
L 389.45219 226.16666 
L 389.648462 245.244158 
L 390.224195 219.024388 
L 390.374671 277.10035 
L 390.570944 245.149244 
L 390.813013 231.330793 
L 391.192474 227.465947 
L 391.526137 283.814826 
L 391.611189 283.984524 
L 392.049531 197.862946 
L 392.285058 236.263124 
L 392.5075 236.845469 
L 392.586009 288.578268 
L 392.756112 251.939191 
L 393.174827 218.342766 
L 393.331845 279.243055 
L 393.547745 288.006214 
L 393.626254 284.500297 
L 393.894493 227.165046 
L 394.280496 245.177463 
L 394.496396 240.942255 
L 394.764635 226.743514 
L 394.921653 253.981083 
L 395.58898 259.851293 
L 395.765626 249.649494 
L 396.197425 171.475092 
L 396.740446 279.913538 
L 397.02177 223.079278 
L 397.224586 241.483344 
L 397.597504 213.458087 
L 397.676013 288.871336 
L 398.048931 200.854107 
L 398.277915 238.186263 
L 398.487273 240.491145 
L 398.487273 240.491145 
" clip-path="url(#p9d2e9f0e5d)" style="fill: none; stroke: #1f77b4; stroke-width: 1.5; stroke-linecap: square"/>
   </g>
   <g id="patch_3">
    <path d="M 57.6 307.584 
L 57.6 41.472 
" style="fill: none; stroke: #000000; stroke-width: 0.8; stroke-linejoin: miter; stroke-linecap: square"/>
   </g>
   <g id="patch_4">
    <path d="M 414.72 307.584 
L 414.72 41.472 
" style="fill: none; stroke: #000000; stroke-width: 0.8; stroke-linejoin: miter; stroke-linecap: square"/>
   </g>
   <g id="patch_5">
    <path d="M 57.6 307.584 
L 414.72 307.584 
" style="fill: none; stroke: #000000; stroke-width: 0.8; stroke-linejoin: miter; stroke-linecap: square"/>
   </g>
   <g id="patch_6">
    <path d="M 57.6 41.472 
L 414.72 41.472 
" style="fill: none; stroke: #000000; stroke-width: 0.8; stroke-linejoin: miter; stroke-linecap: square"/>
   </g>
   <g id="text_15">
    <!-- learning curve -->
    <g transform="translate(192.96375 35.472) scale(0.12 -0.12)">
     <defs>
      <path id="DejaVuSans-6c" d="M 603 4863 
L 1178 4863 
L 1178 0 
L 603 0 
L 603 4863 
z
" transform="scale(0.015625)"/>
      <path id="DejaVuSans-6e" d="M 3513 2113 
L 3513 0 
L 2938 0 
L 2938 2094 
Q 2938 2591 2744 2837 
Q 2550 3084 2163 3084 
Q 1697 3084 1428 2787 
Q 1159 2491 1159 1978 
L 1159 0 
L 581 0 
L 581 3500 
L 1159 3500 
L 1159 2956 
Q 1366 3272 1645 3428 
Q 1925 3584 2291 3584 
Q 2894 3584 3203 3211 
Q 3513 2838 3513 2113 
z
" transform="scale(0.015625)"/>
      <path id="DejaVuSans-67" d="M 2906 1791 
Q 2906 2416 2648 2759 
Q 2391 3103 1925 3103 
Q 1463 3103 1205 2759 
Q 947 2416 947 1791 
Q 947 1169 1205 825 
Q 1463 481 1925 481 
Q 2391 481 2648 825 
Q 2906 1169 2906 1791 
z
M 3481 434 
Q 3481 -459 3084 -895 
Q 2688 -1331 1869 -1331 
Q 1566 -1331 1297 -1286 
Q 1028 -1241 775 -1147 
L 775 -588 
Q 1028 -725 1275 -790 
Q 1522 -856 1778 -856 
Q 2344 -856 2625 -561 
Q 2906 -266 2906 331 
L 2906 616 
Q 2728 306 2450 153 
Q 2172 0 1784 0 
Q 1141 0 747 490 
Q 353 981 353 1791 
Q 353 2603 747 3093 
Q 1141 3584 1784 3584 
Q 2172 3584 2450 3431 
Q 2728 3278 2906 2969 
L 2906 3500 
L 3481 3500 
L 3481 434 
z
" transform="scale(0.015625)"/>
      <path id="DejaVuSans-20" transform="scale(0.015625)"/>
      <path id="DejaVuSans-63" d="M 3122 3366 
L 3122 2828 
Q 2878 2963 2633 3030 
Q 2388 3097 2138 3097 
Q 1578 3097 1268 2742 
Q 959 2388 959 1747 
Q 959 1106 1268 751 
Q 1578 397 2138 397 
Q 2388 397 2633 464 
Q 2878 531 3122 666 
L 3122 134 
Q 2881 22 2623 -34 
Q 2366 -91 2075 -91 
Q 1284 -91 818 406 
Q 353 903 353 1747 
Q 353 2603 823 3093 
Q 1294 3584 2113 3584 
Q 2378 3584 2631 3529 
Q 2884 3475 3122 3366 
z
" transform="scale(0.015625)"/>
      <path id="DejaVuSans-75" d="M 544 1381 
L 544 3500 
L 1119 3500 
L 1119 1403 
Q 1119 906 1312 657 
Q 1506 409 1894 409 
Q 2359 409 2629 706 
Q 2900 1003 2900 1516 
L 2900 3500 
L 3475 3500 
L 3475 0 
L 2900 0 
L 2900 538 
Q 2691 219 2414 64 
Q 2138 -91 1772 -91 
Q 1169 -91 856 284 
Q 544 659 544 1381 
z
M 1991 3584 
L 1991 3584 
z
" transform="scale(0.015625)"/>
      <path id="DejaVuSans-76" d="M 191 3500 
L 800 3500 
L 1894 563 
L 2988 3500 
L 3597 3500 
L 2284 0 
L 1503 0 
L 191 3500 
z
" transform="scale(0.015625)"/>
     </defs>
     <use xlink:href="#DejaVuSans-6c"/>
     <use xlink:href="#DejaVuSans-65" x="27.783203"/>
     <use xlink:href="#DejaVuSans-61" x="89.306641"/>
     <use xlink:href="#DejaVuSans-72" x="150.585938"/>
     <use xlink:href="#DejaVuSans-6e" x="189.949219"/>
     <use xlink:href="#DejaVuSans-69" x="253.328125"/>
     <use xlink:href="#DejaVuSans-6e" x="281.111328"/>
     <use xlink:href="#DejaVuSans-67" x="344.490234"/>
     <use xlink:href="#DejaVuSans-20" x="407.966797"/>
     <use xlink:href="#DejaVuSans-63" x="439.753906"/>
     <use xlink:href="#DejaVuSans-75" x="494.734375"/>
     <use xlink:href="#DejaVuSans-72" x="558.113281"/>
     <use xlink:href="#DejaVuSans-76" x="599.226562"/>
     <use xlink:href="#DejaVuSans-65" x="658.40625"/>
    </g>
   </g>
  </g>
 </g>
 <defs>
  <clipPath id="p9d2e9f0e5d">
   <rect x="57.6" y="41.472" width="357.12" height="266.112"/>
  </clipPath>
 </defs>
</svg>
