<?xml version="1.0" encoding="utf-8" standalone="no"?>
<!DOCTYPE svg PUBLIC "-//W3C//DTD SVG 1.1//EN"
  "http://www.w3.org/Graphics/SVG/1.1/DTD/svg11.dtd">
<svg xmlns:xlink="http://www.w3.org/1999/xlink" width="460.8pt" height="345.6pt" viewBox="0 0 460.8 345.6" xmlns="http://www.w3.org/2000/svg" version="1.1">
 <metadata>
  <rdf:RDF xmlns:dc="http://purl.org/dc/elements/1.1/" xmlns:cc="http://creativecommons.org/ns#" xmlns:rdf="http://www.w3.org/1999/02/22-rdf-syntax-ns#">
   <cc:Work>
    <dc:type rdf:resource="http://purl.org/dc/dcmitype/StillImage"/>
    <dc:date>2023-08-18T16:51:10.794115</dc:date>
    <dc:format>image/svg+xml</dc:format>
    <dc:creator>
     <cc:Agent>
      <dc:title>Matplotlib v3.7.1, https://matplotlib.org/</dc:title>
     </cc:Agent>
    </dc:creator>
   </cc:Work>
  </rdf:RDF>
 </metadata>
 <defs>
  <style type="text/css">*{stroke-linejoin: round; stroke-linecap: butt}</style>
 </defs>
 <g id="figure_1">
  <g id="patch_1">
   <path d="M 0 345.6 
L 460.8 345.6 
L 460.8 0 
L 0 0 
z
" style="fill: #ffffff"/>
  </g>
  <g id="axes_1">
   <g id="patch_2">
    <path d="M 57.6 307.584 
L 414.72 307.584 
L 414.72 41.472 
L 57.6 41.472 
z
" style="fill: #ffffff"/>
   </g>
   <g id="matplotlib.axis_1">
    <g id="xtick_1">
     <g id="line2d_1">
      <defs>
       <path id="md16866fcf2" d="M 0 0 
L 0 3.5 
" style="stroke: #000000; stroke-width: 0.8"/>
      </defs>
      <g>
       <use xlink:href="#md16866fcf2" x="73.773383" y="307.584" style="stroke: #000000; stroke-width: 0.8"/>
      </g>
     </g>
     <g id="text_1">
      <!-- 0 -->
      <g transform="translate(70.592133 322.182437) scale(0.1 -0.1)">
       <defs>
        <path id="DejaVuSans-30" d="M 2034 4250 
Q 1547 4250 1301 3770 
Q 1056 3291 1056 2328 
Q 1056 1369 1301 889 
Q 1547 409 2034 409 
Q 2525 409 2770 889 
Q 3016 1369 3016 2328 
Q 3016 3291 2770 3770 
Q 2525 4250 2034 4250 
z
M 2034 4750 
Q 2819 4750 3233 4129 
Q 3647 3509 3647 2328 
Q 3647 1150 3233 529 
Q 2819 -91 2034 -91 
Q 1250 -91 836 529 
Q 422 1150 422 2328 
Q 422 3509 836 4129 
Q 1250 4750 2034 4750 
z
" transform="scale(0.015625)"/>
       </defs>
       <use xlink:href="#DejaVuSans-30"/>
      </g>
     </g>
    </g>
    <g id="xtick_2">
     <g id="line2d_2">
      <g>
       <use xlink:href="#md16866fcf2" x="139.711831" y="307.584" style="stroke: #000000; stroke-width: 0.8"/>
      </g>
     </g>
     <g id="text_2">
      <!-- 10000 -->
      <g transform="translate(123.805581 322.182437) scale(0.1 -0.1)">
       <defs>
        <path id="DejaVuSans-31" d="M 794 531 
L 1825 531 
L 1825 4091 
L 703 3866 
L 703 4441 
L 1819 4666 
L 2450 4666 
L 2450 531 
L 3481 531 
L 3481 0 
L 794 0 
L 794 531 
z
" transform="scale(0.015625)"/>
       </defs>
       <use xlink:href="#DejaVuSans-31"/>
       <use xlink:href="#DejaVuSans-30" x="63.623047"/>
       <use xlink:href="#DejaVuSans-30" x="127.246094"/>
       <use xlink:href="#DejaVuSans-30" x="190.869141"/>
       <use xlink:href="#DejaVuSans-30" x="254.492188"/>
      </g>
     </g>
    </g>
    <g id="xtick_3">
     <g id="line2d_3">
      <g>
       <use xlink:href="#md16866fcf2" x="205.65028" y="307.584" style="stroke: #000000; stroke-width: 0.8"/>
      </g>
     </g>
     <g id="text_3">
      <!-- 20000 -->
      <g transform="translate(189.74403 322.182437) scale(0.1 -0.1)">
       <defs>
        <path id="DejaVuSans-32" d="M 1228 531 
L 3431 531 
L 3431 0 
L 469 0 
L 469 531 
Q 828 903 1448 1529 
Q 2069 2156 2228 2338 
Q 2531 2678 2651 2914 
Q 2772 3150 2772 3378 
Q 2772 3750 2511 3984 
Q 2250 4219 1831 4219 
Q 1534 4219 1204 4116 
Q 875 4013 500 3803 
L 500 4441 
Q 881 4594 1212 4672 
Q 1544 4750 1819 4750 
Q 2544 4750 2975 4387 
Q 3406 4025 3406 3419 
Q 3406 3131 3298 2873 
Q 3191 2616 2906 2266 
Q 2828 2175 2409 1742 
Q 1991 1309 1228 531 
z
" transform="scale(0.015625)"/>
       </defs>
       <use xlink:href="#DejaVuSans-32"/>
       <use xlink:href="#DejaVuSans-30" x="63.623047"/>
       <use xlink:href="#DejaVuSans-30" x="127.246094"/>
       <use xlink:href="#DejaVuSans-30" x="190.869141"/>
       <use xlink:href="#DejaVuSans-30" x="254.492188"/>
      </g>
     </g>
    </g>
    <g id="xtick_4">
     <g id="line2d_4">
      <g>
       <use xlink:href="#md16866fcf2" x="271.588728" y="307.584" style="stroke: #000000; stroke-width: 0.8"/>
      </g>
     </g>
     <g id="text_4">
      <!-- 30000 -->
      <g transform="translate(255.682478 322.182437) scale(0.1 -0.1)">
       <defs>
        <path id="DejaVuSans-33" d="M 2597 2516 
Q 3050 2419 3304 2112 
Q 3559 1806 3559 1356 
Q 3559 666 3084 287 
Q 2609 -91 1734 -91 
Q 1441 -91 1130 -33 
Q 819 25 488 141 
L 488 750 
Q 750 597 1062 519 
Q 1375 441 1716 441 
Q 2309 441 2620 675 
Q 2931 909 2931 1356 
Q 2931 1769 2642 2001 
Q 2353 2234 1838 2234 
L 1294 2234 
L 1294 2753 
L 1863 2753 
Q 2328 2753 2575 2939 
Q 2822 3125 2822 3475 
Q 2822 3834 2567 4026 
Q 2313 4219 1838 4219 
Q 1578 4219 1281 4162 
Q 984 4106 628 3988 
L 628 4550 
Q 988 4650 1302 4700 
Q 1616 4750 1894 4750 
Q 2613 4750 3031 4423 
Q 3450 4097 3450 3541 
Q 3450 3153 3228 2886 
Q 3006 2619 2597 2516 
z
" transform="scale(0.015625)"/>
       </defs>
       <use xlink:href="#DejaVuSans-33"/>
       <use xlink:href="#DejaVuSans-30" x="63.623047"/>
       <use xlink:href="#DejaVuSans-30" x="127.246094"/>
       <use xlink:href="#DejaVuSans-30" x="190.869141"/>
       <use xlink:href="#DejaVuSans-30" x="254.492188"/>
      </g>
     </g>
    </g>
    <g id="xtick_5">
     <g id="line2d_5">
      <g>
       <use xlink:href="#md16866fcf2" x="337.527177" y="307.584" style="stroke: #000000; stroke-width: 0.8"/>
      </g>
     </g>
     <g id="text_5">
      <!-- 40000 -->
      <g transform="translate(321.620927 322.182437) scale(0.1 -0.1)">
       <defs>
        <path id="DejaVuSans-34" d="M 2419 4116 
L 825 1625 
L 2419 1625 
L 2419 4116 
z
M 2253 4666 
L 3047 4666 
L 3047 1625 
L 3713 1625 
L 3713 1100 
L 3047 1100 
L 3047 0 
L 2419 0 
L 2419 1100 
L 313 1100 
L 313 1709 
L 2253 4666 
z
" transform="scale(0.015625)"/>
       </defs>
       <use xlink:href="#DejaVuSans-34"/>
       <use xlink:href="#DejaVuSans-30" x="63.623047"/>
       <use xlink:href="#DejaVuSans-30" x="127.246094"/>
       <use xlink:href="#DejaVuSans-30" x="190.869141"/>
       <use xlink:href="#DejaVuSans-30" x="254.492188"/>
      </g>
     </g>
    </g>
    <g id="xtick_6">
     <g id="line2d_6">
      <g>
       <use xlink:href="#md16866fcf2" x="403.465626" y="307.584" style="stroke: #000000; stroke-width: 0.8"/>
      </g>
     </g>
     <g id="text_6">
      <!-- 50000 -->
      <g transform="translate(387.559376 322.182437) scale(0.1 -0.1)">
       <defs>
        <path id="DejaVuSans-35" d="M 691 4666 
L 3169 4666 
L 3169 4134 
L 1269 4134 
L 1269 2991 
Q 1406 3038 1543 3061 
Q 1681 3084 1819 3084 
Q 2600 3084 3056 2656 
Q 3513 2228 3513 1497 
Q 3513 744 3044 326 
Q 2575 -91 1722 -91 
Q 1428 -91 1123 -41 
Q 819 9 494 109 
L 494 744 
Q 775 591 1075 516 
Q 1375 441 1709 441 
Q 2250 441 2565 725 
Q 2881 1009 2881 1497 
Q 2881 1984 2565 2268 
Q 2250 2553 1709 2553 
Q 1456 2553 1204 2497 
Q 953 2441 691 2322 
L 691 4666 
z
" transform="scale(0.015625)"/>
       </defs>
       <use xlink:href="#DejaVuSans-35"/>
       <use xlink:href="#DejaVuSans-30" x="63.623047"/>
       <use xlink:href="#DejaVuSans-30" x="127.246094"/>
       <use xlink:href="#DejaVuSans-30" x="190.869141"/>
       <use xlink:href="#DejaVuSans-30" x="254.492188"/>
      </g>
     </g>
    </g>
    <g id="text_7">
     <!-- timesteps -->
     <g transform="translate(211.443594 335.860562) scale(0.1 -0.1)">
      <defs>
       <path id="DejaVuSans-74" d="M 1172 4494 
L 1172 3500 
L 2356 3500 
L 2356 3053 
L 1172 3053 
L 1172 1153 
Q 1172 725 1289 603 
Q 1406 481 1766 481 
L 2356 481 
L 2356 0 
L 1766 0 
Q 1100 0 847 248 
Q 594 497 594 1153 
L 594 3053 
L 172 3053 
L 172 3500 
L 594 3500 
L 594 4494 
L 1172 4494 
z
" transform="scale(0.015625)"/>
       <path id="DejaVuSans-69" d="M 603 3500 
L 1178 3500 
L 1178 0 
L 603 0 
L 603 3500 
z
M 603 4863 
L 1178 4863 
L 1178 4134 
L 603 4134 
L 603 4863 
z
" transform="scale(0.015625)"/>
       <path id="DejaVuSans-6d" d="M 3328 2828 
Q 3544 3216 3844 3400 
Q 4144 3584 4550 3584 
Q 5097 3584 5394 3201 
Q 5691 2819 5691 2113 
L 5691 0 
L 5113 0 
L 5113 2094 
Q 5113 2597 4934 2840 
Q 4756 3084 4391 3084 
Q 3944 3084 3684 2787 
Q 3425 2491 3425 1978 
L 3425 0 
L 2847 0 
L 2847 2094 
Q 2847 2600 2669 2842 
Q 2491 3084 2119 3084 
Q 1678 3084 1418 2786 
Q 1159 2488 1159 1978 
L 1159 0 
L 581 0 
L 581 3500 
L 1159 3500 
L 1159 2956 
Q 1356 3278 1631 3431 
Q 1906 3584 2284 3584 
Q 2666 3584 2933 3390 
Q 3200 3197 3328 2828 
z
" transform="scale(0.015625)"/>
       <path id="DejaVuSans-65" d="M 3597 1894 
L 3597 1613 
L 953 1613 
Q 991 1019 1311 708 
Q 1631 397 2203 397 
Q 2534 397 2845 478 
Q 3156 559 3463 722 
L 3463 178 
Q 3153 47 2828 -22 
Q 2503 -91 2169 -91 
Q 1331 -91 842 396 
Q 353 884 353 1716 
Q 353 2575 817 3079 
Q 1281 3584 2069 3584 
Q 2775 3584 3186 3129 
Q 3597 2675 3597 1894 
z
M 3022 2063 
Q 3016 2534 2758 2815 
Q 2500 3097 2075 3097 
Q 1594 3097 1305 2825 
Q 1016 2553 972 2059 
L 3022 2063 
z
" transform="scale(0.015625)"/>
       <path id="DejaVuSans-73" d="M 2834 3397 
L 2834 2853 
Q 2591 2978 2328 3040 
Q 2066 3103 1784 3103 
Q 1356 3103 1142 2972 
Q 928 2841 928 2578 
Q 928 2378 1081 2264 
Q 1234 2150 1697 2047 
L 1894 2003 
Q 2506 1872 2764 1633 
Q 3022 1394 3022 966 
Q 3022 478 2636 193 
Q 2250 -91 1575 -91 
Q 1294 -91 989 -36 
Q 684 19 347 128 
L 347 722 
Q 666 556 975 473 
Q 1284 391 1588 391 
Q 1994 391 2212 530 
Q 2431 669 2431 922 
Q 2431 1156 2273 1281 
Q 2116 1406 1581 1522 
L 1381 1569 
Q 847 1681 609 1914 
Q 372 2147 372 2553 
Q 372 3047 722 3315 
Q 1072 3584 1716 3584 
Q 2034 3584 2315 3537 
Q 2597 3491 2834 3397 
z
" transform="scale(0.015625)"/>
       <path id="DejaVuSans-70" d="M 1159 525 
L 1159 -1331 
L 581 -1331 
L 581 3500 
L 1159 3500 
L 1159 2969 
Q 1341 3281 1617 3432 
Q 1894 3584 2278 3584 
Q 2916 3584 3314 3078 
Q 3713 2572 3713 1747 
Q 3713 922 3314 415 
Q 2916 -91 2278 -91 
Q 1894 -91 1617 61 
Q 1341 213 1159 525 
z
M 3116 1747 
Q 3116 2381 2855 2742 
Q 2594 3103 2138 3103 
Q 1681 3103 1420 2742 
Q 1159 2381 1159 1747 
Q 1159 1113 1420 752 
Q 1681 391 2138 391 
Q 2594 391 2855 752 
Q 3116 1113 3116 1747 
z
" transform="scale(0.015625)"/>
      </defs>
      <use xlink:href="#DejaVuSans-74"/>
      <use xlink:href="#DejaVuSans-69" x="39.208984"/>
      <use xlink:href="#DejaVuSans-6d" x="66.992188"/>
      <use xlink:href="#DejaVuSans-65" x="164.404297"/>
      <use xlink:href="#DejaVuSans-73" x="225.927734"/>
      <use xlink:href="#DejaVuSans-74" x="278.027344"/>
      <use xlink:href="#DejaVuSans-65" x="317.236328"/>
      <use xlink:href="#DejaVuSans-70" x="378.759766"/>
      <use xlink:href="#DejaVuSans-73" x="442.236328"/>
     </g>
    </g>
   </g>
   <g id="matplotlib.axis_2">
    <g id="ytick_1">
     <g id="line2d_7">
      <defs>
       <path id="m2335e9559b" d="M 0 0 
L -3.5 0 
" style="stroke: #000000; stroke-width: 0.8"/>
      </defs>
      <g>
       <use xlink:href="#m2335e9559b" x="57.6" y="299.182959" style="stroke: #000000; stroke-width: 0.8"/>
      </g>
     </g>
     <g id="text_8">
      <!-- 0 -->
      <g transform="translate(44.2375 302.982178) scale(0.1 -0.1)">
       <use xlink:href="#DejaVuSans-30"/>
      </g>
     </g>
    </g>
    <g id="ytick_2">
     <g id="line2d_8">
      <g>
       <use xlink:href="#m2335e9559b" x="57.6" y="241.076018" style="stroke: #000000; stroke-width: 0.8"/>
      </g>
     </g>
     <g id="text_9">
      <!-- 50 -->
      <g transform="translate(37.875 244.875237) scale(0.1 -0.1)">
       <use xlink:href="#DejaVuSans-35"/>
       <use xlink:href="#DejaVuSans-30" x="63.623047"/>
      </g>
     </g>
    </g>
    <g id="ytick_3">
     <g id="line2d_9">
      <g>
       <use xlink:href="#m2335e9559b" x="57.6" y="182.969077" style="stroke: #000000; stroke-width: 0.8"/>
      </g>
     </g>
     <g id="text_10">
      <!-- 100 -->
      <g transform="translate(31.5125 186.768296) scale(0.1 -0.1)">
       <use xlink:href="#DejaVuSans-31"/>
       <use xlink:href="#DejaVuSans-30" x="63.623047"/>
       <use xlink:href="#DejaVuSans-30" x="127.246094"/>
      </g>
     </g>
    </g>
    <g id="ytick_4">
     <g id="line2d_10">
      <g>
       <use xlink:href="#m2335e9559b" x="57.6" y="124.862137" style="stroke: #000000; stroke-width: 0.8"/>
      </g>
     </g>
     <g id="text_11">
      <!-- 150 -->
      <g transform="translate(31.5125 128.661355) scale(0.1 -0.1)">
       <use xlink:href="#DejaVuSans-31"/>
       <use xlink:href="#DejaVuSans-35" x="63.623047"/>
       <use xlink:href="#DejaVuSans-30" x="127.246094"/>
      </g>
     </g>
    </g>
    <g id="ytick_5">
     <g id="line2d_11">
      <g>
       <use xlink:href="#m2335e9559b" x="57.6" y="66.755196" style="stroke: #000000; stroke-width: 0.8"/>
      </g>
     </g>
     <g id="text_12">
      <!-- 200 -->
      <g transform="translate(31.5125 70.554415) scale(0.1 -0.1)">
       <use xlink:href="#DejaVuSans-32"/>
       <use xlink:href="#DejaVuSans-30" x="63.623047"/>
       <use xlink:href="#DejaVuSans-30" x="127.246094"/>
      </g>
     </g>
    </g>
    <g id="text_13">
     <!-- rewards -->
     <g transform="translate(25.432812 194.447531) rotate(-90) scale(0.1 -0.1)">
      <defs>
       <path id="DejaVuSans-72" d="M 2631 2963 
Q 2534 3019 2420 3045 
Q 2306 3072 2169 3072 
Q 1681 3072 1420 2755 
Q 1159 2438 1159 1844 
L 1159 0 
L 581 0 
L 581 3500 
L 1159 3500 
L 1159 2956 
Q 1341 3275 1631 3429 
Q 1922 3584 2338 3584 
Q 2397 3584 2469 3576 
Q 2541 3569 2628 3553 
L 2631 2963 
z
" transform="scale(0.015625)"/>
       <path id="DejaVuSans-77" d="M 269 3500 
L 844 3500 
L 1563 769 
L 2278 3500 
L 2956 3500 
L 3675 769 
L 4391 3500 
L 4966 3500 
L 4050 0 
L 3372 0 
L 2619 2869 
L 1863 0 
L 1184 0 
L 269 3500 
z
" transform="scale(0.015625)"/>
       <path id="DejaVuSans-61" d="M 2194 1759 
Q 1497 1759 1228 1600 
Q 959 1441 959 1056 
Q 959 750 1161 570 
Q 1363 391 1709 391 
Q 2188 391 2477 730 
Q 2766 1069 2766 1631 
L 2766 1759 
L 2194 1759 
z
M 3341 1997 
L 3341 0 
L 2766 0 
L 2766 531 
Q 2569 213 2275 61 
Q 1981 -91 1556 -91 
Q 1019 -91 701 211 
Q 384 513 384 1019 
Q 384 1609 779 1909 
Q 1175 2209 1959 2209 
L 2766 2209 
L 2766 2266 
Q 2766 2663 2505 2880 
Q 2244 3097 1772 3097 
Q 1472 3097 1187 3025 
Q 903 2953 641 2809 
L 641 3341 
Q 956 3463 1253 3523 
Q 1550 3584 1831 3584 
Q 2591 3584 2966 3190 
Q 3341 2797 3341 1997 
z
" transform="scale(0.015625)"/>
       <path id="DejaVuSans-64" d="M 2906 2969 
L 2906 4863 
L 3481 4863 
L 3481 0 
L 2906 0 
L 2906 525 
Q 2725 213 2448 61 
Q 2172 -91 1784 -91 
Q 1150 -91 751 415 
Q 353 922 353 1747 
Q 353 2572 751 3078 
Q 1150 3584 1784 3584 
Q 2172 3584 2448 3432 
Q 2725 3281 2906 2969 
z
M 947 1747 
Q 947 1113 1208 752 
Q 1469 391 1925 391 
Q 2381 391 2643 752 
Q 2906 1113 2906 1747 
Q 2906 2381 2643 2742 
Q 2381 3103 1925 3103 
Q 1469 3103 1208 2742 
Q 947 2381 947 1747 
z
" transform="scale(0.015625)"/>
      </defs>
      <use xlink:href="#DejaVuSans-72"/>
      <use xlink:href="#DejaVuSans-65" x="38.863281"/>
      <use xlink:href="#DejaVuSans-77" x="100.386719"/>
      <use xlink:href="#DejaVuSans-61" x="182.173828"/>
      <use xlink:href="#DejaVuSans-72" x="243.453125"/>
      <use xlink:href="#DejaVuSans-64" x="282.816406"/>
      <use xlink:href="#DejaVuSans-73" x="346.292969"/>
     </g>
    </g>
   </g>
   <g id="line2d_12">
    <path d="M 73.832727 292.167786 
L 73.898666 291.561121 
L 73.964604 292.000249 
L 74.04373 288.138105 
L 74.122856 292.166914 
L 74.208576 292.101469 
L 74.380016 288.219965 
L 74.485518 290.832196 
L 74.703115 278.85878 
L 74.947087 291.713148 
L 75.078964 281.526975 
L 75.24381 292.49557 
L 75.336124 287.057731 
L 75.395469 292.10116 
L 75.474595 289.992537 
L 75.619659 285.758324 
L 75.718567 291.141388 
L 75.949351 264.885418 
L 76.120791 274.036501 
L 76.298825 275.168913 
L 76.450484 286.778036 
L 76.648299 281.981081 
L 76.799957 266.731941 
L 76.905459 287.061682 
L 77.188994 254.032574 
L 77.30109 288.120624 
L 77.512093 288.787699 
L 77.927505 250.064914 
L 78.006631 289.72202 
L 78.316542 229.061978 
L 78.646234 191.371724 
L 79.094615 284.911934 
L 79.292431 277.843429 
L 79.345182 293.653142 
L 79.424308 289.523397 
L 79.556185 279.616667 
L 79.622123 290.831633 
L 79.740812 285.392551 
L 79.958409 287.261732 
L 80.044129 295.488 
L 80.248538 286.583001 
L 80.327664 289.347092 
L 80.43976 289.001013 
L 80.690326 286.873206 
L 80.907923 291.283342 
L 81.020018 280.595458 
L 81.217834 287.493197 
L 81.402461 272.446407 
L 81.55412 271.608854 
L 81.659621 286.537444 
L 81.81128 279.284264 
L 81.989313 284.528138 
L 82.147566 281.95733 
L 82.233286 292.186621 
L 82.312412 290.779724 
L 82.391538 289.295856 
L 82.510227 289.364433 
L 82.628916 285.138732 
L 82.708042 288.921698 
L 82.919045 271.073604 
L 83.077298 288.575837 
L 83.347645 284.42043 
L 83.459741 289.493919 
L 83.571836 280.723762 
L 83.66415 284.955172 
L 83.822402 271.023573 
L 83.92131 284.63332 
L 84.059781 282.532537 
L 84.191658 276.456587 
L 84.26419 292.475188 
L 84.455411 257.911877 
L 84.712571 287.735653 
L 85.055451 212.612821 
L 85.404925 209.068821 
L 85.477457 289.032433 
L 85.655491 283.369083 
L 85.728023 290.631262 
L 85.952214 284.761467 
L 86.558848 96.119225 
L 86.690725 273.84183 
L 86.941291 286.361616 
L 87.224826 281.348357 
L 87.290765 289.680052 
L 87.369891 288.492855 
L 87.481986 280.358641 
L 87.653426 289.153069 
L 87.83146 283.65889 
L 87.996306 267.762198 
L 88.101808 285.213965 
L 88.34578 259.798904 
L 88.655691 286.28145 
L 89.024946 245.217002 
L 89.11726 288.477828 
L 89.249137 283.784084 
L 89.42717 267.733666 
L 89.585423 288.404615 
L 89.835989 236.069522 
L 90.033804 290.951464 
L 90.11293 289.446114 
L 90.389872 211.057775 
L 90.495373 290.477578 
L 90.640438 277.404853 
L 90.739345 288.885172 
L 91.009693 275.979804 
L 91.167945 288.781422 
L 91.385542 249.441091 
L 91.596545 246.273679 
L 91.840518 288.956345 
L 92.051521 252.650154 
L 92.203179 288.629855 
L 92.348244 277.145718 
L 92.480121 287.877188 
L 92.644967 271.458724 
L 92.717499 289.343785 
L 92.803219 286.252422 
L 92.981253 274.683096 
L 93.073567 286.677725 
L 93.179068 286.155737 
L 93.416447 278.678591 
L 93.515354 286.800206 
L 93.647231 279.380706 
L 93.759326 287.290747 
L 94.029674 284.15937 
L 94.174739 292.899823 
L 94.392336 278.4179 
L 94.478056 289.051528 
L 94.576963 288.733698 
L 94.735215 288.510442 
L 95.005563 226.77473 
L 95.104471 283.592145 
L 95.236348 284.30696 
L 95.381412 270.636725 
L 95.493508 280.21161 
L 95.631978 272.472924 
L 95.724292 291.078097 
L 95.849575 289.000131 
L 95.90892 293.125365 
L 96.093548 264.942285 
L 96.291363 284.528836 
L 96.429834 271.766872 
L 96.495772 289.925329 
L 96.878215 229.530076 
L 97.010092 289.002813 
L 97.109 286.770726 
L 97.19472 285.478623 
L 97.306815 280.213232 
L 97.5376 293.394863 
L 97.742009 281.955061 
L 97.887073 288.95944 
L 97.999169 279.092098 
L 98.177202 291.853198 
L 98.282704 280.791755 
L 98.394799 287.828053 
L 98.53327 278.371287 
L 98.862962 206.802987 
L 99.001433 282.622125 
L 99.146498 288.575436 
L 99.331125 270.553007 
L 99.436627 287.202099 
L 99.64763 277.198864 
L 99.772913 277.234289 
L 100.082824 242.270306 
L 100.155356 292.397453 
L 100.227888 288.292657 
L 100.359765 275.428818 
L 100.50483 280.322455 
L 100.715833 265.859456 
L 100.821334 285.002747 
L 101.045525 286.151943 
L 101.421374 171.043748 
L 101.526876 294.640321 
L 101.61919 284.90616 
L 101.995039 192.38709 
L 102.087352 283.88025 
L 102.27198 279.755093 
L 102.423639 282.102573 
L 102.502765 290.724102 
L 102.654423 286.208991 
L 102.845645 276.025417 
L 103.017085 293.321823 
L 103.465466 195.575576 
L 103.564374 285.274706 
L 103.716032 281.041713 
L 103.801752 287.095708 
L 103.946817 284.072796 
L 104.032537 286.393523 
L 104.144632 285.378317 
L 104.322666 291.602533 
L 104.527075 273.262051 
L 104.619389 289.964134 
L 104.889737 281.229253 
L 104.968863 287.081187 
L 105.173272 280.805388 
L 105.265586 287.772781 
L 105.364493 283.748458 
L 105.437026 290.309715 
L 105.746936 256.31982 
L 105.905189 289.820917 
L 105.984315 289.548248 
L 106.116192 286.170153 
L 106.195318 288.955405 
L 106.531604 261.473234 
L 106.617324 290.559292 
L 106.768982 275.719987 
L 106.861296 288.086132 
L 106.966798 285.682614 
L 107.223958 276.039232 
L 107.408585 281.445519 
L 107.474524 289.860439 
L 107.632776 276.622231 
L 107.81081 285.561321 
L 108.074564 263.945852 
L 108.298754 289.310676 
L 108.536133 258.977112 
L 108.602071 293.16703 
L 108.694385 288.067984 
L 108.799887 290.294882 
L 109.01089 271.88479 
L 109.162548 271.235305 
L 109.248268 291.774814 
L 109.347176 287.986202 
L 109.419708 290.177238 
L 109.696649 287.404524 
L 109.887871 267.064703 
L 110.164812 290.845674 
L 110.441754 259.078257 
L 110.632975 281.986547 
L 110.909917 267.205451 
L 110.989043 291.049124 
L 111.087951 289.71932 
L 111.444018 284.575764 
L 111.813274 250.76067 
L 111.879212 291.139502 
L 112.136372 283.913359 
L 112.380344 264.206866 
L 112.45947 288.813393 
L 112.571566 283.144459 
L 112.743006 283.382668 
L 112.808944 291.315324 
L 112.88807 290.450067 
L 112.954009 291.274472 
L 113.085886 276.649582 
L 113.250732 289.813519 
L 113.336452 283.715674 
L 113.521079 290.760126 
L 113.606799 290.265952 
L 113.877147 274.913705 
L 113.995836 285.621643 
L 114.17387 286.838703 
L 114.371685 277.553641 
L 114.675002 234.088046 
L 114.740941 292.168761 
L 114.94535 258.150633 
L 115.129978 290.931363 
L 115.479451 266.538189 
L 115.565171 284.280526 
L 115.875082 286.185024 
L 115.993771 279.317551 
L 116.046522 293.305241 
L 116.270713 271.532436 
L 116.363027 290.218966 
L 116.481716 289.407908 
L 116.62678 282.415142 
L 116.837783 281.53454 
L 117.029005 282.949042 
L 117.352103 247.108646 
L 117.48398 282.259828 
L 117.793891 249.744859 
L 117.866423 292.85449 
L 118.090614 243.651329 
L 118.288429 270.996156 
L 118.479651 281.651295 
L 118.637903 280.268231 
L 118.697248 291.78864 
L 118.796155 290.832294 
L 118.914845 290.361957 
L 119.013752 287.664025 
L 119.086285 290.342716 
L 119.191786 286.126062 
L 119.297288 288.555872 
L 119.389601 286.489214 
L 119.54126 294.742216 
L 119.719294 279.647087 
L 119.936891 289.446047 
L 120.161081 278.455142 
L 120.220426 292.419076 
L 120.332521 285.873674 
L 120.503961 259.409176 
L 120.583087 288.087854 
L 120.714964 286.551078 
L 120.800684 290.30124 
L 120.91278 283.060694 
L 120.991906 288.46934 
L 121.150158 269.048681 
L 121.242472 283.797556 
L 121.433693 256.554812 
L 121.723822 284.701842 
L 121.789761 290.153873 
L 121.934826 275.214741 
L 122.093078 281.114401 
L 122.205173 292.996933 
L 122.370019 279.866176 
L 122.42277 293.917887 
L 122.495302 293.280831 
L 122.693118 260.484166 
L 122.923902 250.254385 
L 123.306345 290.4489 
L 123.398659 291.978254 
L 123.464598 291.32982 
L 123.543724 287.351045 
L 123.682194 290.017292 
L 123.853634 283.723825 
L 124.071231 292.645661 
L 124.539394 163.80753 
L 124.671271 292.7536 
L 124.836117 278.908047 
L 125.027339 282.695291 
L 125.119653 289.205892 
L 125.231748 279.713222 
L 125.343843 287.824373 
L 125.574628 247.012128 
L 125.924102 219.754187 
L 126.135105 284.182205 
L 126.33292 275.704903 
L 126.445015 278.546197 
L 126.550517 287.305977 
L 126.688988 279.174217 
L 126.754926 290.235001 
L 126.913178 264.092417 
L 127.348372 212.927331 
L 127.473655 291.33519 
L 127.572563 287.213059 
L 128.040726 125.374663 
L 128.146227 288.577581 
L 128.291292 281.470889 
L 128.3902 282.708417 
L 128.502295 278.706384 
L 128.673735 278.28171 
L 128.911113 262.843982 
L 129.003427 293.644372 
L 129.122116 279.780112 
L 129.847439 123.482062 
L 130.144162 286.279084 
L 130.216695 291.218227 
L 130.322196 281.979592 
L 130.520012 294.437795 
L 130.645295 291.888805 
L 130.731015 289.520581 
L 130.790359 291.762267 
L 130.915642 276.038491 
L 131.179396 284.529738 
L 131.232147 293.501385 
L 131.298085 291.885976 
L 131.370618 290.689069 
L 131.449744 295.276939 
L 131.581621 279.477233 
L 131.667341 289.935789 
L 131.792624 288.58888 
L 132.003627 249.934923 
L 132.175067 293.215606 
L 132.419039 242.702438 
L 132.511353 288.245345 
L 132.616854 282.981664 
L 132.761919 266.706784 
L 132.920171 290.764168 
L 133.058642 285.517796 
L 133.223488 291.311495 
L 133.394928 267.829853 
L 133.493836 281.78831 
L 133.678463 266.449886 
L 133.81034 287.030029 
L 133.994968 254.655122 
L 134.219158 286.224358 
L 134.318066 282.246009 
L 134.509288 289.284834 
L 134.641165 290.54628 
L 134.726885 286.038173 
L 134.806011 289.917523 
L 134.964263 279.783279 
L 135.221423 242.531431 
L 135.425832 283.866665 
L 135.7819 267.590903 
L 135.986309 288.409328 
L 136.217093 268.842307 
L 136.38194 276.135178 
L 136.513816 275.702025 
L 136.764383 288.567483 
L 136.889666 290.222606 
L 137.450142 160.376448 
L 137.766647 289.849578 
L 137.898524 280.951573 
L 137.990838 286.61758 
L 138.14909 281.187225 
L 138.254592 282.028172 
L 138.478782 246.100293 
L 138.551315 291.290727 
L 138.696379 283.812442 
L 138.74913 293.214884 
L 138.828256 288.691781 
L 138.900788 293.097851 
L 139.026071 283.046807 
L 139.26345 274.297706 
L 139.329388 290.561474 
L 139.494234 288.000437 
L 139.69205 257.604865 
L 139.804145 281.931682 
L 139.936022 278.636023 
L 140.153619 285.060037 
L 140.272308 286.349392 
L 140.404185 276.45368 
L 140.575625 290.991913 
L 140.852566 252.388088 
L 140.918505 290.489493 
L 141.360292 200.468134 
L 141.551514 289.324429 
L 141.722954 286.343303 
L 141.775705 293.091098 
L 141.848237 290.98782 
L 141.960332 283.289935 
L 142.14496 293.149287 
L 142.369151 274.125863 
L 142.481246 285.820431 
L 143.101068 234.995069 
L 143.325258 285.39507 
L 143.410978 286.60881 
L 143.470323 291.331398 
L 143.595606 279.916674 
L 143.727483 287.652595 
L 143.898923 269.480823 
L 144.090144 273.507805 
L 144.334117 289.76708 
L 144.465993 286.904503 
L 144.584683 289.75498 
L 144.835249 277.467802 
L 144.887999 292.278127 
L 144.973719 286.367002 
L 145.395726 211.46278 
L 145.606729 293.874602 
L 145.896858 264.357466 
L 146.107861 283.883601 
L 146.318864 270.389618 
L 146.404584 288.917652 
L 146.714494 209.240527 
L 146.82659 282.284756 
L 147.070562 277.43497 
L 147.367285 295.036598 
L 147.551913 262.390704 
L 147.795885 265.124197 
L 147.861823 294.035476 
L 148.006888 271.083244 
L 148.138765 277.201229 
L 148.362956 249.468218 
L 148.501426 273.448121 
L 148.923433 171.409945 
L 149.015746 288.734657 
L 149.602599 170.992051 
L 149.694912 286.106057 
L 150.288358 134.87301 
L 150.413641 283.724031 
L 150.604863 253.860021 
L 150.862023 290.07593 
L 150.927961 291.125499 
L 151.158746 269.79587 
L 151.488438 293.894438 
L 151.943413 224.633969 
L 152.095072 280.866826 
L 152.240136 273.066362 
L 152.688518 206.006527 
L 152.965459 289.652341 
L 153.123712 269.321306 
L 153.288558 262.688802 
L 153.427029 277.954583 
L 153.664407 276.478059 
L 153.954536 207.874805 
L 154.172133 288.000996 
L 154.369948 257.921143 
L 154.574358 261.316763 
L 154.857893 217.344969 
L 155.035927 259.653737 
L 155.240336 250.029701 
L 155.438151 280.754589 
L 155.781031 235.180623 
L 155.972253 268.630827 
L 156.374477 199.515865 
L 156.644825 215.102959 
L 156.941548 265.910576 
L 157.264646 260.364187 
L 157.924031 159.282963 
L 158.431757 234.762891 
L 158.64276 248.434208 
L 158.979046 193.217887 
L 159.394458 193.216341 
L 159.493366 287.215182 
L 159.796683 217.942773 
L 160.040655 224.291893 
L 160.225283 241.769739 
L 160.805541 174.051237 
L 161.069295 221.451735 
L 161.333049 222.52064 
L 161.511082 290.551371 
L 161.794618 210.5387 
L 162.150685 207.818487 
L 162.605661 157.159299 
L 162.72435 287.30812 
L 162.928759 235.738986 
L 163.126574 238.158195 
L 163.298014 285.67263 
L 163.535393 228.265018 
L 163.871679 206.205427 
L 164.0629 240.585369 
L 164.280497 229.438914 
L 164.517876 224.999873 
L 164.860756 208.619387 
L 165.078352 239.367953 
L 165.599266 204.609055 
L 166.021272 208.215939 
L 166.258651 224.546406 
L 166.594937 215.751177 
L 167.010349 242.049077 
L 167.313666 197.028226 
L 167.709297 251.681511 
L 167.999426 212.83895 
L 168.421432 197.427072 
L 169.192912 247.745141 
L 169.720419 186.401652 
L 170.043518 208.975391 
L 170.353428 205.695429 
L 170.762247 198.852145 
L 171.415037 235.010246 
L 171.837043 236.88753 
L 172.041453 236.202047 
L 172.232674 240.941812 
L 172.892059 189.525923 
L 173.037123 253.573452 
L 173.630569 175.721027 
L 173.828385 234.844054 
L 174.006418 242.792911 
L 174.184452 244.307747 
L 175.05484 196.798965 
L 175.22628 245.279811 
L 175.377938 251.172227 
L 175.938415 201.459368 
L 176.287889 271.524304 
L 176.485704 237.874384 
L 176.65055 247.916294 
L 176.835178 241.635254 
L 176.99343 249.315516 
L 177.151682 249.318209 
L 177.415436 233.011042 
L 177.93635 251.147229 
L 178.114384 242.347944 
L 178.266042 252.366011 
L 178.430888 247.120404 
L 178.87927 225.661551 
L 179.215556 252.455658 
L 179.439747 228.545729 
L 179.604593 246.169731 
L 179.769439 246.215467 
L 179.954066 241.850502 
L 180.138694 240.725218 
L 180.310134 244.997423 
L 180.507949 238.483879 
L 180.699171 237.600409 
L 180.936549 224.794495 
L 181.088208 251.720838 
L 181.318992 223.202021 
L 181.708029 243.750681 
L 182.004752 194.787692 
L 182.176192 243.720497 
L 182.367414 241.124781 
L 182.538854 246.272704 
L 182.87514 227.62958 
L 183.072955 236.729991 
L 183.376272 230.22654 
L 183.534524 249.860828 
L 183.69937 247.456911 
L 183.890592 236.62102 
L 184.04225 250.969538 
L 184.187315 252.435315 
L 184.358755 246.164321 
L 184.517007 249.897516 
L 184.701635 242.451967 
L 184.892856 239.550139 
L 185.044515 249.303542 
L 185.196173 250.022275 
L 185.393988 244.842533 
L 185.552241 248.975683 
L 186.01381 223.040704 
L 186.165468 250.262419 
L 186.594068 226.022281 
L 186.75232 248.683699 
L 187.049043 251.941028 
L 187.372142 245.767345 
L 187.517206 252.705155 
L 187.72821 227.107938 
L 187.932619 231.571575 
L 188.077683 252.99033 
L 188.229342 251.673832 
L 188.499689 206.057882 
L 188.763443 208.326778 
L 188.961259 232.936835 
L 189.192043 222.651295 
L 189.396452 230.993485 
L 189.640425 215.517634 
L 190.194307 197.908569 
L 190.484437 199.127699 
L 190.735003 215.334597 
L 191.051507 188.570354 
L 191.308667 211.35971 
L 191.651547 183.628149 
L 192.020803 166.399732 
L 192.297744 202.611327 
L 192.455996 247.337885 
L 192.63403 241.334513 
L 192.779095 252.189505 
L 192.917565 254.019917 
L 193.069224 249.995765 
L 193.49123 151.56184 
L 193.675858 238.904829 
L 194.071488 231.072307 
L 194.374805 252.419347 
L 194.57262 234.79427 
L 194.74406 243.758451 
L 194.9155 243.29083 
L 195.251786 246.677632 
L 195.416633 247.531052 
L 195.614448 232.559556 
L 195.7727 248.22254 
L 195.950734 240.981906 
L 196.135362 238.88761 
L 196.306802 244.890251 
L 196.504617 232.023691 
L 196.689245 237.475503 
L 196.873872 239.103032 
L 197.282691 231.731178 
L 197.460725 241.009648 
L 197.968451 119.473276 
L 198.495958 108.512482 
L 199.03006 88.643627 
L 199.564161 105.609146 
L 200.124638 94.504096 
L 200.665333 103.618134 
L 201.22581 94.732375 
L 201.720348 123.425152 
L 202.241262 110.838375 
L 202.762176 110.223964 
L 203.269902 117.810429 
L 203.804003 106.925093 
L 204.331511 108.110533 
L 204.859018 109.884143 
L 205.386526 110.388418 
L 205.927221 104.291606 
L 206.454729 106.910636 
L 207.015206 96.78656 
L 207.542713 110.966176 
L 207.786686 215.748801 
L 208.27463 127.169656 
L 208.53179 210.99204 
L 208.934015 158.897336 
L 209.230738 195.852972 
L 209.540648 189.859979 
L 209.863747 186.267564 
L 210.265971 159.896829 
L 210.516537 213.856345 
L 210.780291 209.012097 
L 211.162734 164.883583 
L 211.611116 144.208017 
L 211.934214 185.37001 
L 212.257312 186.845821 
L 212.52766 205.949071 
L 212.976041 145.224273 
L 213.345297 170.518218 
L 213.694771 178.11114 
L 214.044244 177.170708 
L 214.426687 167.256298 
L 214.749786 187.550031 
L 215.053103 193.027063 
L 215.270699 224.880992 
L 215.527859 212.390655 
L 215.910302 167.246484 
L 216.391653 129.895209 
L 216.879598 126.113946 
L 217.367542 128.038692 
L 217.862081 125.24376 
L 218.350025 126.796331 
L 218.83797 127.768286 
L 219.325914 126.036187 
L 219.807265 130.614375 
L 220.301803 123.033523 
L 220.796341 124.779834 
L 221.284286 127.645482 
L 221.824981 104.321345 
L 222.352489 110.86529 
L 222.899778 103.024595 
L 223.453661 97.432941 
L 223.994356 106.010595 
L 224.541645 104.017004 
L 224.779024 217.296217 
L 225.273562 125.175159 
L 225.761507 126.812694 
L 226.269233 118.776748 
L 226.737396 136.685307 
L 227.218746 131.666529 
L 227.693503 132.324695 
L 228.174854 129.284203 
L 228.649611 132.809411 
L 229.130961 129.636203 
L 229.612312 130.761072 
L 230.093663 130.990095 
L 230.56842 134.486749 
L 231.056364 127.663112 
L 231.577278 113.73991 
L 232.104785 110.399435 
L 232.632293 110.839305 
L 233.166394 107.130548 
L 233.693902 112.520687 
L 234.241191 101.523786 
L 234.768699 111.839209 
L 235.296206 111.311075 
L 235.81712 112.899022 
L 236.324846 119.537449 
L 236.825978 121.142816 
L 237.320517 125.279054 
L 237.84143 112.777985 
L 238.349156 118.637686 
L 238.889852 93.910545 
L 239.430547 105.147149 
L 239.971242 104.874837 
L 240.511938 104.256091 
L 241.072414 98.70073 
L 241.632891 97.776981 
L 242.153805 112.127815 
L 242.714282 98.235584 
L 243.248383 109.00452 
L 243.782485 109.05842 
L 244.309992 111.848646 
L 244.850688 106.205125 
L 245.384789 109.25252 
L 245.905703 115.312528 
L 246.993687 101.781421 
L 247.514601 113.581906 
L 248.06189 103.481188 
L 248.609179 102.814202 
L 249.116905 118.542832 
L 249.651007 107.606607 
L 250.191702 106.625482 
L 250.712616 114.122138 
L 251.246717 110.234888 
L 251.767631 113.417045 
L 252.328108 97.836947 
L 253.389717 114.431034 
L 253.877661 128.660239 
L 254.411763 107.724796 
L 254.945864 106.543656 
L 255.506341 99.036344 
L 256.073411 93.339005 
L 256.600919 109.263607 
L 257.154802 99.885263 
L 257.721873 95.982383 
L 258.236193 116.990482 
L 258.770294 108.840147 
L 259.297802 110.627296 
L 259.838497 105.834205 
L 260.372598 107.889657 
L 260.919887 105.018384 
L 261.453989 108.579689 
L 261.67818 224.176265 
L 262.232063 100.039572 
L 262.779352 103.071395 
L 263.313453 108.305273 
L 263.860742 102.417018 
L 264.401438 106.77591 
L 264.889382 126.493257 
L 265.38392 125.204456 
L 265.944397 97.23604 
L 266.49828 100.324389 
L 266.953255 144.203729 
L 267.493951 106.418447 
L 268.054428 97.305745 
L 268.614904 98.872331 
L 269.175381 95.502326 
L 269.735858 99.459397 
L 270.296335 100.194927 
L 270.856812 100.190092 
L 271.423882 97.741152 
L 271.95139 112.882775 
L 272.511867 99.970227 
L 273.052562 107.480026 
L 273.599851 104.556503 
L 274.14714 102.728959 
L 274.694429 102.65636 
L 275.248312 100.927923 
L 275.789008 107.394237 
L 276.316515 111.441339 
L 276.850617 110.19971 
L 277.4045 100.929468 
L 277.958383 101.856355 
L 278.525453 94.68274 
L 278.993616 139.011002 
L 280.042038 104.53935 
L 280.556357 117.674041 
L 281.090459 105.511828 
L 281.637748 104.943217 
L 282.211412 90.419747 
L 282.771889 98.036335 
L 283.233458 141.711174 
L 283.807123 90.661937 
L 284.301661 127.132909 
L 284.868732 93.50017 
L 285.303926 151.005112 
L 285.745713 149.460176 
L 286.345753 78.563944 
L 286.886448 104.255777 
L 287.671116 182.730386 
L 288.073341 160.044843 
L 288.455784 166.904658 
L 288.825039 170.887761 
L 289.214076 165.367137 
L 289.761365 101.982494 
L 290.308654 102.180708 
L 290.869131 98.593267 
L 291.429608 99.16999 
L 291.970303 105.273392 
L 292.524186 102.136094 
L 293.0451 114.940156 
L 293.559419 117.024103 
L 294.100115 105.965841 
L 294.627622 112.768723 
L 295.141942 117.620582 
L 295.66945 112.845645 
L 296.203551 110.041357 
L 296.737653 108.708407 
L 297.29813 99.738973 
L 297.832231 109.5547 
L 298.386114 102.111177 
L 298.55096 243.338005 
L 298.748775 232.968302 
L 299.157594 158.393781 
L 299.520255 174.224185 
L 299.856541 181.408371 
L 300.252172 162.611699 
L 300.614833 174.243135 
L 300.977495 173.147389 
L 301.524784 213.044079 
L 301.900633 169.461085 
L 302.342421 147.925944 
L 302.652332 191.674816 
L 302.988618 183.407343 
L 303.298528 192.211242 
L 303.542501 214.54404 
L 304.096384 93.123951 
L 304.538171 147.82378 
L 304.960177 154.005464 
L 305.494279 107.765843 
L 306.074537 89.835261 
L 306.608638 109.32147 
L 307.122958 115.535182 
L 307.637278 116.375188 
L 308.164786 109.450979 
L 308.705481 105.771415 
L 309.246176 106.099719 
L 309.780278 108.085268 
L 310.314379 108.926285 
L 310.855075 106.36435 
L 311.39577 106.349649 
L 311.916684 113.991467 
L 312.470567 101.269719 
L 313.004668 107.779568 
L 313.558551 101.393533 
L 314.099246 105.529469 
L 314.672911 91.605152 
L 315.04876 171.380287 
L 315.932335 139.240676 
L 316.400498 137.25816 
L 316.960975 87.698715 
L 317.297261 184.465645 
L 317.620359 187.908841 
L 318.306119 179.217954 
L 318.774282 137.167374 
L 319.202882 153.461211 
L 319.73039 111.153594 
L 320.264491 108.523639 
L 320.653528 168.408524 
L 321.220599 96.228814 
L 321.761294 105.329419 
L 322.328365 95.951633 
L 322.855872 111.824194 
L 323.106438 214.822535 
L 323.673509 94.576729 
L 323.924075 215.568449 
L 324.484552 97.405654 
L 325.038435 99.662237 
L 325.289001 214.030724 
L 325.842884 100.72614 
L 326.403361 96.425576 
L 326.838554 149.51102 
L 327.399031 96.043023 
L 327.741911 180.710368 
L 328.295794 100.14012 
L 328.658456 171.934639 
L 329.034305 169.43482 
L 329.607969 91.740936 
L 330.17504 93.437578 
L 330.702548 111.053778 
L 331.830095 90.508593 
L 332.397166 91.78705 
L 332.977424 84.291127 
L 333.557682 81.696687 
L 334.177504 63.709067 
L 334.810513 58.514539 
L 335.344614 113.25316 
L 335.687494 181.726565 
L 336.247971 96.747384 
L 336.821636 94.927347 
L 337.401894 92.003498 
L 337.968965 94.555764 
L 338.542629 92.176808 
L 339.116294 91.493784 
L 339.716334 84.463774 
L 340.303186 88.383773 
L 340.896632 83.753905 
L 341.483484 85.716804 
L 342.017585 109.177655 
L 342.545093 112.216439 
L 343.079194 108.743167 
L 343.646265 97.172959 
L 344.200148 100.022035 
L 344.767219 97.911661 
L 345.307914 104.673078 
L 345.848609 106.20337 
L 346.41568 93.578464 
L 346.989344 92.055539 
L 347.569603 86.818814 
L 348.123486 99.955538 
L 348.321301 233.94955 
L 348.842215 114.36936 
L 349.376316 107.28911 
L 349.917011 104.477153 
L 350.437925 112.611485 
L 350.991808 98.124518 
L 351.565473 94.570059 
L 352.139137 94.856677 
L 352.706208 93.172982 
L 353.299654 78.541782 
L 353.846943 101.913567 
L 354.354669 118.514813 
L 354.915146 97.087739 
L 355.449247 107.104156 
L 356.016318 95.632672 
L 356.550419 108.948238 
L 357.110896 96.773416 
L 357.644998 108.179831 
L 358.212068 96.372408 
L 358.765951 101.498172 
L 359.326428 98.908416 
L 359.880311 100.565591 
L 360.467163 75.52745 
L 361.02764 92.345051 
L 361.607898 83.081887 
L 362.240908 53.568 
L 362.867323 56.928975 
L 363.487144 58.286063 
L 364.08059 66.951818 
L 364.430064 180.21912 
L 364.667442 219.978161 
L 365.234513 94.255293 
L 366.408217 88.126429 
L 367.001664 91.245412 
L 367.588516 90.437853 
L 368.175368 92.978788 
L 368.76222 88.937067 
L 369.322697 95.54428 
L 369.863392 103.883718 
L 370.47662 74.697194 
L 371.096441 74.077472 
L 371.564604 138.050948 
L 372.07233 119.764229 
L 373.166908 97.80235 
L 373.740573 90.178046 
L 374.314237 92.197273 
L 374.90109 83.640875 
L 375.408816 120.7477 
L 376.002262 86.971902 
L 376.595708 87.744701 
L 377.162778 99.455121 
L 377.776006 89.025146 
L 378.395827 87.316593 
L 379.015649 89.120174 
L 379.63547 85.280862 
L 380.248698 86.15887 
L 380.875113 80.116771 
L 381.501528 78.014624 
L 382.108162 87.620248 
L 383.367586 61.691815 
L 383.980814 75.435652 
L 384.587448 82.332818 
L 385.180894 84.122373 
L 385.813903 68.272949 
L 386.420537 85.708715 
L 387.02717 84.289244 
L 387.640398 76.426376 
L 388.214062 91.876697 
L 388.82729 81.611711 
L 389.466893 66.574832 
L 390.047151 90.025933 
L 391.214262 87.39047 
L 391.820896 76.659013 
L 392.335215 116.42473 
L 392.955037 70.729478 
L 393.502326 102.61307 
L 394.056209 101.398368 
L 394.596904 105.735935 
L 395.177163 88.165198 
L 395.717858 102.777327 
L 396.284929 91.437258 
L 396.838812 97.95717 
L 397.405882 91.242321 
L 397.939984 107.829226 
L 398.487273 102.468709 
L 398.487273 102.468709 
" clip-path="url(#p93dedfc060)" style="fill: none; stroke: #1f77b4; stroke-width: 1.5; stroke-linecap: square"/>
   </g>
   <g id="patch_3">
    <path d="M 57.6 307.584 
L 57.6 41.472 
" style="fill: none; stroke: #000000; stroke-width: 0.8; stroke-linejoin: miter; stroke-linecap: square"/>
   </g>
   <g id="patch_4">
    <path d="M 414.72 307.584 
L 414.72 41.472 
" style="fill: none; stroke: #000000; stroke-width: 0.8; stroke-linejoin: miter; stroke-linecap: square"/>
   </g>
   <g id="patch_5">
    <path d="M 57.6 307.584 
L 414.72 307.584 
" style="fill: none; stroke: #000000; stroke-width: 0.8; stroke-linejoin: miter; stroke-linecap: square"/>
   </g>
   <g id="patch_6">
    <path d="M 57.6 41.472 
L 414.72 41.472 
" style="fill: none; stroke: #000000; stroke-width: 0.8; stroke-linejoin: miter; stroke-linecap: square"/>
   </g>
   <g id="text_14">
    <!-- learning curve -->
    <g transform="translate(192.96375 35.472) scale(0.12 -0.12)">
     <defs>
      <path id="DejaVuSans-6c" d="M 603 4863 
L 1178 4863 
L 1178 0 
L 603 0 
L 603 4863 
z
" transform="scale(0.015625)"/>
      <path id="DejaVuSans-6e" d="M 3513 2113 
L 3513 0 
L 2938 0 
L 2938 2094 
Q 2938 2591 2744 2837 
Q 2550 3084 2163 3084 
Q 1697 3084 1428 2787 
Q 1159 2491 1159 1978 
L 1159 0 
L 581 0 
L 581 3500 
L 1159 3500 
L 1159 2956 
Q 1366 3272 1645 3428 
Q 1925 3584 2291 3584 
Q 2894 3584 3203 3211 
Q 3513 2838 3513 2113 
z
" transform="scale(0.015625)"/>
      <path id="DejaVuSans-67" d="M 2906 1791 
Q 2906 2416 2648 2759 
Q 2391 3103 1925 3103 
Q 1463 3103 1205 2759 
Q 947 2416 947 1791 
Q 947 1169 1205 825 
Q 1463 481 1925 481 
Q 2391 481 2648 825 
Q 2906 1169 2906 1791 
z
M 3481 434 
Q 3481 -459 3084 -895 
Q 2688 -1331 1869 -1331 
Q 1566 -1331 1297 -1286 
Q 1028 -1241 775 -1147 
L 775 -588 
Q 1028 -725 1275 -790 
Q 1522 -856 1778 -856 
Q 2344 -856 2625 -561 
Q 2906 -266 2906 331 
L 2906 616 
Q 2728 306 2450 153 
Q 2172 0 1784 0 
Q 1141 0 747 490 
Q 353 981 353 1791 
Q 353 2603 747 3093 
Q 1141 3584 1784 3584 
Q 2172 3584 2450 3431 
Q 2728 3278 2906 2969 
L 2906 3500 
L 3481 3500 
L 3481 434 
z
" transform="scale(0.015625)"/>
      <path id="DejaVuSans-20" transform="scale(0.015625)"/>
      <path id="DejaVuSans-63" d="M 3122 3366 
L 3122 2828 
Q 2878 2963 2633 3030 
Q 2388 3097 2138 3097 
Q 1578 3097 1268 2742 
Q 959 2388 959 1747 
Q 959 1106 1268 751 
Q 1578 397 2138 397 
Q 2388 397 2633 464 
Q 2878 531 3122 666 
L 3122 134 
Q 2881 22 2623 -34 
Q 2366 -91 2075 -91 
Q 1284 -91 818 406 
Q 353 903 353 1747 
Q 353 2603 823 3093 
Q 1294 3584 2113 3584 
Q 2378 3584 2631 3529 
Q 2884 3475 3122 3366 
z
" transform="scale(0.015625)"/>
      <path id="DejaVuSans-75" d="M 544 1381 
L 544 3500 
L 1119 3500 
L 1119 1403 
Q 1119 906 1312 657 
Q 1506 409 1894 409 
Q 2359 409 2629 706 
Q 2900 1003 2900 1516 
L 2900 3500 
L 3475 3500 
L 3475 0 
L 2900 0 
L 2900 538 
Q 2691 219 2414 64 
Q 2138 -91 1772 -91 
Q 1169 -91 856 284 
Q 544 659 544 1381 
z
M 1991 3584 
L 1991 3584 
z
" transform="scale(0.015625)"/>
      <path id="DejaVuSans-76" d="M 191 3500 
L 800 3500 
L 1894 563 
L 2988 3500 
L 3597 3500 
L 2284 0 
L 1503 0 
L 191 3500 
z
" transform="scale(0.015625)"/>
     </defs>
     <use xlink:href="#DejaVuSans-6c"/>
     <use xlink:href="#DejaVuSans-65" x="27.783203"/>
     <use xlink:href="#DejaVuSans-61" x="89.306641"/>
     <use xlink:href="#DejaVuSans-72" x="150.585938"/>
     <use xlink:href="#DejaVuSans-6e" x="189.949219"/>
     <use xlink:href="#DejaVuSans-69" x="253.328125"/>
     <use xlink:href="#DejaVuSans-6e" x="281.111328"/>
     <use xlink:href="#DejaVuSans-67" x="344.490234"/>
     <use xlink:href="#DejaVuSans-20" x="407.966797"/>
     <use xlink:href="#DejaVuSans-63" x="439.753906"/>
     <use xlink:href="#DejaVuSans-75" x="494.734375"/>
     <use xlink:href="#DejaVuSans-72" x="558.113281"/>
     <use xlink:href="#DejaVuSans-76" x="599.226562"/>
     <use xlink:href="#DejaVuSans-65" x="658.40625"/>
    </g>
   </g>
  </g>
 </g>
 <defs>
  <clipPath id="p93dedfc060">
   <rect x="57.6" y="41.472" width="357.12" height="266.112"/>
  </clipPath>
 </defs>
</svg>
