<?xml version="1.0" encoding="utf-8" standalone="no"?>
<!DOCTYPE svg PUBLIC "-//W3C//DTD SVG 1.1//EN"
  "http://www.w3.org/Graphics/SVG/1.1/DTD/svg11.dtd">
<svg xmlns:xlink="http://www.w3.org/1999/xlink" width="460.8pt" height="345.6pt" viewBox="0 0 460.8 345.6" xmlns="http://www.w3.org/2000/svg" version="1.1">
 <metadata>
  <rdf:RDF xmlns:dc="http://purl.org/dc/elements/1.1/" xmlns:cc="http://creativecommons.org/ns#" xmlns:rdf="http://www.w3.org/1999/02/22-rdf-syntax-ns#">
   <cc:Work>
    <dc:type rdf:resource="http://purl.org/dc/dcmitype/StillImage"/>
    <dc:date>2023-08-19T13:25:30.480682</dc:date>
    <dc:format>image/svg+xml</dc:format>
    <dc:creator>
     <cc:Agent>
      <dc:title>Matplotlib v3.7.1, https://matplotlib.org/</dc:title>
     </cc:Agent>
    </dc:creator>
   </cc:Work>
  </rdf:RDF>
 </metadata>
 <defs>
  <style type="text/css">*{stroke-linejoin: round; stroke-linecap: butt}</style>
 </defs>
 <g id="figure_1">
  <g id="patch_1">
   <path d="M 0 345.6 
L 460.8 345.6 
L 460.8 0 
L 0 0 
z
" style="fill: #ffffff"/>
  </g>
  <g id="axes_1">
   <g id="patch_2">
    <path d="M 57.6 307.584 
L 414.72 307.584 
L 414.72 41.472 
L 57.6 41.472 
z
" style="fill: #ffffff"/>
   </g>
   <g id="matplotlib.axis_1">
    <g id="xtick_1">
     <g id="line2d_1">
      <defs>
       <path id="mddcfcb5b95" d="M 0 0 
L 0 3.5 
" style="stroke: #000000; stroke-width: 0.8"/>
      </defs>
      <g>
       <use xlink:href="#mddcfcb5b95" x="73.611812" y="307.584" style="stroke: #000000; stroke-width: 0.8"/>
      </g>
     </g>
     <g id="text_1">
      <!-- 0 -->
      <g transform="translate(70.430562 322.182437) scale(0.1 -0.1)">
       <defs>
        <path id="DejaVuSans-30" d="M 2034 4250 
Q 1547 4250 1301 3770 
Q 1056 3291 1056 2328 
Q 1056 1369 1301 889 
Q 1547 409 2034 409 
Q 2525 409 2770 889 
Q 3016 1369 3016 2328 
Q 3016 3291 2770 3770 
Q 2525 4250 2034 4250 
z
M 2034 4750 
Q 2819 4750 3233 4129 
Q 3647 3509 3647 2328 
Q 3647 1150 3233 529 
Q 2819 -91 2034 -91 
Q 1250 -91 836 529 
Q 422 1150 422 2328 
Q 422 3509 836 4129 
Q 1250 4750 2034 4750 
z
" transform="scale(0.015625)"/>
       </defs>
       <use xlink:href="#DejaVuSans-30"/>
      </g>
     </g>
    </g>
    <g id="xtick_2">
     <g id="line2d_2">
      <g>
       <use xlink:href="#mddcfcb5b95" x="138.586904" y="307.584" style="stroke: #000000; stroke-width: 0.8"/>
      </g>
     </g>
     <g id="text_2">
      <!-- 100000 -->
      <g transform="translate(119.499404 322.182437) scale(0.1 -0.1)">
       <defs>
        <path id="DejaVuSans-31" d="M 794 531 
L 1825 531 
L 1825 4091 
L 703 3866 
L 703 4441 
L 1819 4666 
L 2450 4666 
L 2450 531 
L 3481 531 
L 3481 0 
L 794 0 
L 794 531 
z
" transform="scale(0.015625)"/>
       </defs>
       <use xlink:href="#DejaVuSans-31"/>
       <use xlink:href="#DejaVuSans-30" x="63.623047"/>
       <use xlink:href="#DejaVuSans-30" x="127.246094"/>
       <use xlink:href="#DejaVuSans-30" x="190.869141"/>
       <use xlink:href="#DejaVuSans-30" x="254.492188"/>
       <use xlink:href="#DejaVuSans-30" x="318.115234"/>
      </g>
     </g>
    </g>
    <g id="xtick_3">
     <g id="line2d_3">
      <g>
       <use xlink:href="#mddcfcb5b95" x="203.561996" y="307.584" style="stroke: #000000; stroke-width: 0.8"/>
      </g>
     </g>
     <g id="text_3">
      <!-- 200000 -->
      <g transform="translate(184.474496 322.182437) scale(0.1 -0.1)">
       <defs>
        <path id="DejaVuSans-32" d="M 1228 531 
L 3431 531 
L 3431 0 
L 469 0 
L 469 531 
Q 828 903 1448 1529 
Q 2069 2156 2228 2338 
Q 2531 2678 2651 2914 
Q 2772 3150 2772 3378 
Q 2772 3750 2511 3984 
Q 2250 4219 1831 4219 
Q 1534 4219 1204 4116 
Q 875 4013 500 3803 
L 500 4441 
Q 881 4594 1212 4672 
Q 1544 4750 1819 4750 
Q 2544 4750 2975 4387 
Q 3406 4025 3406 3419 
Q 3406 3131 3298 2873 
Q 3191 2616 2906 2266 
Q 2828 2175 2409 1742 
Q 1991 1309 1228 531 
z
" transform="scale(0.015625)"/>
       </defs>
       <use xlink:href="#DejaVuSans-32"/>
       <use xlink:href="#DejaVuSans-30" x="63.623047"/>
       <use xlink:href="#DejaVuSans-30" x="127.246094"/>
       <use xlink:href="#DejaVuSans-30" x="190.869141"/>
       <use xlink:href="#DejaVuSans-30" x="254.492188"/>
       <use xlink:href="#DejaVuSans-30" x="318.115234"/>
      </g>
     </g>
    </g>
    <g id="xtick_4">
     <g id="line2d_4">
      <g>
       <use xlink:href="#mddcfcb5b95" x="268.537088" y="307.584" style="stroke: #000000; stroke-width: 0.8"/>
      </g>
     </g>
     <g id="text_4">
      <!-- 300000 -->
      <g transform="translate(249.449588 322.182437) scale(0.1 -0.1)">
       <defs>
        <path id="DejaVuSans-33" d="M 2597 2516 
Q 3050 2419 3304 2112 
Q 3559 1806 3559 1356 
Q 3559 666 3084 287 
Q 2609 -91 1734 -91 
Q 1441 -91 1130 -33 
Q 819 25 488 141 
L 488 750 
Q 750 597 1062 519 
Q 1375 441 1716 441 
Q 2309 441 2620 675 
Q 2931 909 2931 1356 
Q 2931 1769 2642 2001 
Q 2353 2234 1838 2234 
L 1294 2234 
L 1294 2753 
L 1863 2753 
Q 2328 2753 2575 2939 
Q 2822 3125 2822 3475 
Q 2822 3834 2567 4026 
Q 2313 4219 1838 4219 
Q 1578 4219 1281 4162 
Q 984 4106 628 3988 
L 628 4550 
Q 988 4650 1302 4700 
Q 1616 4750 1894 4750 
Q 2613 4750 3031 4423 
Q 3450 4097 3450 3541 
Q 3450 3153 3228 2886 
Q 3006 2619 2597 2516 
z
" transform="scale(0.015625)"/>
       </defs>
       <use xlink:href="#DejaVuSans-33"/>
       <use xlink:href="#DejaVuSans-30" x="63.623047"/>
       <use xlink:href="#DejaVuSans-30" x="127.246094"/>
       <use xlink:href="#DejaVuSans-30" x="190.869141"/>
       <use xlink:href="#DejaVuSans-30" x="254.492188"/>
       <use xlink:href="#DejaVuSans-30" x="318.115234"/>
      </g>
     </g>
    </g>
    <g id="xtick_5">
     <g id="line2d_5">
      <g>
       <use xlink:href="#mddcfcb5b95" x="333.512181" y="307.584" style="stroke: #000000; stroke-width: 0.8"/>
      </g>
     </g>
     <g id="text_5">
      <!-- 400000 -->
      <g transform="translate(314.424681 322.182437) scale(0.1 -0.1)">
       <defs>
        <path id="DejaVuSans-34" d="M 2419 4116 
L 825 1625 
L 2419 1625 
L 2419 4116 
z
M 2253 4666 
L 3047 4666 
L 3047 1625 
L 3713 1625 
L 3713 1100 
L 3047 1100 
L 3047 0 
L 2419 0 
L 2419 1100 
L 313 1100 
L 313 1709 
L 2253 4666 
z
" transform="scale(0.015625)"/>
       </defs>
       <use xlink:href="#DejaVuSans-34"/>
       <use xlink:href="#DejaVuSans-30" x="63.623047"/>
       <use xlink:href="#DejaVuSans-30" x="127.246094"/>
       <use xlink:href="#DejaVuSans-30" x="190.869141"/>
       <use xlink:href="#DejaVuSans-30" x="254.492188"/>
       <use xlink:href="#DejaVuSans-30" x="318.115234"/>
      </g>
     </g>
    </g>
    <g id="xtick_6">
     <g id="line2d_6">
      <g>
       <use xlink:href="#mddcfcb5b95" x="398.487273" y="307.584" style="stroke: #000000; stroke-width: 0.8"/>
      </g>
     </g>
     <g id="text_6">
      <!-- 500000 -->
      <g transform="translate(379.399773 322.182437) scale(0.1 -0.1)">
       <defs>
        <path id="DejaVuSans-35" d="M 691 4666 
L 3169 4666 
L 3169 4134 
L 1269 4134 
L 1269 2991 
Q 1406 3038 1543 3061 
Q 1681 3084 1819 3084 
Q 2600 3084 3056 2656 
Q 3513 2228 3513 1497 
Q 3513 744 3044 326 
Q 2575 -91 1722 -91 
Q 1428 -91 1123 -41 
Q 819 9 494 109 
L 494 744 
Q 775 591 1075 516 
Q 1375 441 1709 441 
Q 2250 441 2565 725 
Q 2881 1009 2881 1497 
Q 2881 1984 2565 2268 
Q 2250 2553 1709 2553 
Q 1456 2553 1204 2497 
Q 953 2441 691 2322 
L 691 4666 
z
" transform="scale(0.015625)"/>
       </defs>
       <use xlink:href="#DejaVuSans-35"/>
       <use xlink:href="#DejaVuSans-30" x="63.623047"/>
       <use xlink:href="#DejaVuSans-30" x="127.246094"/>
       <use xlink:href="#DejaVuSans-30" x="190.869141"/>
       <use xlink:href="#DejaVuSans-30" x="254.492188"/>
       <use xlink:href="#DejaVuSans-30" x="318.115234"/>
      </g>
     </g>
    </g>
    <g id="text_7">
     <!-- timesteps -->
     <g transform="translate(211.443594 335.860562) scale(0.1 -0.1)">
      <defs>
       <path id="DejaVuSans-74" d="M 1172 4494 
L 1172 3500 
L 2356 3500 
L 2356 3053 
L 1172 3053 
L 1172 1153 
Q 1172 725 1289 603 
Q 1406 481 1766 481 
L 2356 481 
L 2356 0 
L 1766 0 
Q 1100 0 847 248 
Q 594 497 594 1153 
L 594 3053 
L 172 3053 
L 172 3500 
L 594 3500 
L 594 4494 
L 1172 4494 
z
" transform="scale(0.015625)"/>
       <path id="DejaVuSans-69" d="M 603 3500 
L 1178 3500 
L 1178 0 
L 603 0 
L 603 3500 
z
M 603 4863 
L 1178 4863 
L 1178 4134 
L 603 4134 
L 603 4863 
z
" transform="scale(0.015625)"/>
       <path id="DejaVuSans-6d" d="M 3328 2828 
Q 3544 3216 3844 3400 
Q 4144 3584 4550 3584 
Q 5097 3584 5394 3201 
Q 5691 2819 5691 2113 
L 5691 0 
L 5113 0 
L 5113 2094 
Q 5113 2597 4934 2840 
Q 4756 3084 4391 3084 
Q 3944 3084 3684 2787 
Q 3425 2491 3425 1978 
L 3425 0 
L 2847 0 
L 2847 2094 
Q 2847 2600 2669 2842 
Q 2491 3084 2119 3084 
Q 1678 3084 1418 2786 
Q 1159 2488 1159 1978 
L 1159 0 
L 581 0 
L 581 3500 
L 1159 3500 
L 1159 2956 
Q 1356 3278 1631 3431 
Q 1906 3584 2284 3584 
Q 2666 3584 2933 3390 
Q 3200 3197 3328 2828 
z
" transform="scale(0.015625)"/>
       <path id="DejaVuSans-65" d="M 3597 1894 
L 3597 1613 
L 953 1613 
Q 991 1019 1311 708 
Q 1631 397 2203 397 
Q 2534 397 2845 478 
Q 3156 559 3463 722 
L 3463 178 
Q 3153 47 2828 -22 
Q 2503 -91 2169 -91 
Q 1331 -91 842 396 
Q 353 884 353 1716 
Q 353 2575 817 3079 
Q 1281 3584 2069 3584 
Q 2775 3584 3186 3129 
Q 3597 2675 3597 1894 
z
M 3022 2063 
Q 3016 2534 2758 2815 
Q 2500 3097 2075 3097 
Q 1594 3097 1305 2825 
Q 1016 2553 972 2059 
L 3022 2063 
z
" transform="scale(0.015625)"/>
       <path id="DejaVuSans-73" d="M 2834 3397 
L 2834 2853 
Q 2591 2978 2328 3040 
Q 2066 3103 1784 3103 
Q 1356 3103 1142 2972 
Q 928 2841 928 2578 
Q 928 2378 1081 2264 
Q 1234 2150 1697 2047 
L 1894 2003 
Q 2506 1872 2764 1633 
Q 3022 1394 3022 966 
Q 3022 478 2636 193 
Q 2250 -91 1575 -91 
Q 1294 -91 989 -36 
Q 684 19 347 128 
L 347 722 
Q 666 556 975 473 
Q 1284 391 1588 391 
Q 1994 391 2212 530 
Q 2431 669 2431 922 
Q 2431 1156 2273 1281 
Q 2116 1406 1581 1522 
L 1381 1569 
Q 847 1681 609 1914 
Q 372 2147 372 2553 
Q 372 3047 722 3315 
Q 1072 3584 1716 3584 
Q 2034 3584 2315 3537 
Q 2597 3491 2834 3397 
z
" transform="scale(0.015625)"/>
       <path id="DejaVuSans-70" d="M 1159 525 
L 1159 -1331 
L 581 -1331 
L 581 3500 
L 1159 3500 
L 1159 2969 
Q 1341 3281 1617 3432 
Q 1894 3584 2278 3584 
Q 2916 3584 3314 3078 
Q 3713 2572 3713 1747 
Q 3713 922 3314 415 
Q 2916 -91 2278 -91 
Q 1894 -91 1617 61 
Q 1341 213 1159 525 
z
M 3116 1747 
Q 3116 2381 2855 2742 
Q 2594 3103 2138 3103 
Q 1681 3103 1420 2742 
Q 1159 2381 1159 1747 
Q 1159 1113 1420 752 
Q 1681 391 2138 391 
Q 2594 391 2855 752 
Q 3116 1113 3116 1747 
z
" transform="scale(0.015625)"/>
      </defs>
      <use xlink:href="#DejaVuSans-74"/>
      <use xlink:href="#DejaVuSans-69" x="39.208984"/>
      <use xlink:href="#DejaVuSans-6d" x="66.992188"/>
      <use xlink:href="#DejaVuSans-65" x="164.404297"/>
      <use xlink:href="#DejaVuSans-73" x="225.927734"/>
      <use xlink:href="#DejaVuSans-74" x="278.027344"/>
      <use xlink:href="#DejaVuSans-65" x="317.236328"/>
      <use xlink:href="#DejaVuSans-70" x="378.759766"/>
      <use xlink:href="#DejaVuSans-73" x="442.236328"/>
     </g>
    </g>
   </g>
   <g id="matplotlib.axis_2">
    <g id="ytick_1">
     <g id="line2d_7">
      <defs>
       <path id="mff93dda72d" d="M 0 0 
L -3.5 0 
" style="stroke: #000000; stroke-width: 0.8"/>
      </defs>
      <g>
       <use xlink:href="#mff93dda72d" x="57.6" y="304.466977" style="stroke: #000000; stroke-width: 0.8"/>
      </g>
     </g>
     <g id="text_8">
      <!-- 0 -->
      <g transform="translate(44.2375 308.266196) scale(0.1 -0.1)">
       <use xlink:href="#DejaVuSans-30"/>
      </g>
     </g>
    </g>
    <g id="ytick_2">
     <g id="line2d_8">
      <g>
       <use xlink:href="#mff93dda72d" x="57.6" y="249.839804" style="stroke: #000000; stroke-width: 0.8"/>
      </g>
     </g>
     <g id="text_9">
      <!-- 50 -->
      <g transform="translate(37.875 253.639023) scale(0.1 -0.1)">
       <use xlink:href="#DejaVuSans-35"/>
       <use xlink:href="#DejaVuSans-30" x="63.623047"/>
      </g>
     </g>
    </g>
    <g id="ytick_3">
     <g id="line2d_9">
      <g>
       <use xlink:href="#mff93dda72d" x="57.6" y="195.212631" style="stroke: #000000; stroke-width: 0.8"/>
      </g>
     </g>
     <g id="text_10">
      <!-- 100 -->
      <g transform="translate(31.5125 199.01185) scale(0.1 -0.1)">
       <use xlink:href="#DejaVuSans-31"/>
       <use xlink:href="#DejaVuSans-30" x="63.623047"/>
       <use xlink:href="#DejaVuSans-30" x="127.246094"/>
      </g>
     </g>
    </g>
    <g id="ytick_4">
     <g id="line2d_10">
      <g>
       <use xlink:href="#mff93dda72d" x="57.6" y="140.585458" style="stroke: #000000; stroke-width: 0.8"/>
      </g>
     </g>
     <g id="text_11">
      <!-- 150 -->
      <g transform="translate(31.5125 144.384677) scale(0.1 -0.1)">
       <use xlink:href="#DejaVuSans-31"/>
       <use xlink:href="#DejaVuSans-35" x="63.623047"/>
       <use xlink:href="#DejaVuSans-30" x="127.246094"/>
      </g>
     </g>
    </g>
    <g id="ytick_5">
     <g id="line2d_11">
      <g>
       <use xlink:href="#mff93dda72d" x="57.6" y="85.958285" style="stroke: #000000; stroke-width: 0.8"/>
      </g>
     </g>
     <g id="text_12">
      <!-- 200 -->
      <g transform="translate(31.5125 89.757503) scale(0.1 -0.1)">
       <use xlink:href="#DejaVuSans-32"/>
       <use xlink:href="#DejaVuSans-30" x="63.623047"/>
       <use xlink:href="#DejaVuSans-30" x="127.246094"/>
      </g>
     </g>
    </g>
    <g id="text_13">
     <!-- mean episode rewards -->
     <g transform="translate(25.432812 231.360031) rotate(-90) scale(0.1 -0.1)">
      <defs>
       <path id="DejaVuSans-61" d="M 2194 1759 
Q 1497 1759 1228 1600 
Q 959 1441 959 1056 
Q 959 750 1161 570 
Q 1363 391 1709 391 
Q 2188 391 2477 730 
Q 2766 1069 2766 1631 
L 2766 1759 
L 2194 1759 
z
M 3341 1997 
L 3341 0 
L 2766 0 
L 2766 531 
Q 2569 213 2275 61 
Q 1981 -91 1556 -91 
Q 1019 -91 701 211 
Q 384 513 384 1019 
Q 384 1609 779 1909 
Q 1175 2209 1959 2209 
L 2766 2209 
L 2766 2266 
Q 2766 2663 2505 2880 
Q 2244 3097 1772 3097 
Q 1472 3097 1187 3025 
Q 903 2953 641 2809 
L 641 3341 
Q 956 3463 1253 3523 
Q 1550 3584 1831 3584 
Q 2591 3584 2966 3190 
Q 3341 2797 3341 1997 
z
" transform="scale(0.015625)"/>
       <path id="DejaVuSans-6e" d="M 3513 2113 
L 3513 0 
L 2938 0 
L 2938 2094 
Q 2938 2591 2744 2837 
Q 2550 3084 2163 3084 
Q 1697 3084 1428 2787 
Q 1159 2491 1159 1978 
L 1159 0 
L 581 0 
L 581 3500 
L 1159 3500 
L 1159 2956 
Q 1366 3272 1645 3428 
Q 1925 3584 2291 3584 
Q 2894 3584 3203 3211 
Q 3513 2838 3513 2113 
z
" transform="scale(0.015625)"/>
       <path id="DejaVuSans-20" transform="scale(0.015625)"/>
       <path id="DejaVuSans-6f" d="M 1959 3097 
Q 1497 3097 1228 2736 
Q 959 2375 959 1747 
Q 959 1119 1226 758 
Q 1494 397 1959 397 
Q 2419 397 2687 759 
Q 2956 1122 2956 1747 
Q 2956 2369 2687 2733 
Q 2419 3097 1959 3097 
z
M 1959 3584 
Q 2709 3584 3137 3096 
Q 3566 2609 3566 1747 
Q 3566 888 3137 398 
Q 2709 -91 1959 -91 
Q 1206 -91 779 398 
Q 353 888 353 1747 
Q 353 2609 779 3096 
Q 1206 3584 1959 3584 
z
" transform="scale(0.015625)"/>
       <path id="DejaVuSans-64" d="M 2906 2969 
L 2906 4863 
L 3481 4863 
L 3481 0 
L 2906 0 
L 2906 525 
Q 2725 213 2448 61 
Q 2172 -91 1784 -91 
Q 1150 -91 751 415 
Q 353 922 353 1747 
Q 353 2572 751 3078 
Q 1150 3584 1784 3584 
Q 2172 3584 2448 3432 
Q 2725 3281 2906 2969 
z
M 947 1747 
Q 947 1113 1208 752 
Q 1469 391 1925 391 
Q 2381 391 2643 752 
Q 2906 1113 2906 1747 
Q 2906 2381 2643 2742 
Q 2381 3103 1925 3103 
Q 1469 3103 1208 2742 
Q 947 2381 947 1747 
z
" transform="scale(0.015625)"/>
       <path id="DejaVuSans-72" d="M 2631 2963 
Q 2534 3019 2420 3045 
Q 2306 3072 2169 3072 
Q 1681 3072 1420 2755 
Q 1159 2438 1159 1844 
L 1159 0 
L 581 0 
L 581 3500 
L 1159 3500 
L 1159 2956 
Q 1341 3275 1631 3429 
Q 1922 3584 2338 3584 
Q 2397 3584 2469 3576 
Q 2541 3569 2628 3553 
L 2631 2963 
z
" transform="scale(0.015625)"/>
       <path id="DejaVuSans-77" d="M 269 3500 
L 844 3500 
L 1563 769 
L 2278 3500 
L 2956 3500 
L 3675 769 
L 4391 3500 
L 4966 3500 
L 4050 0 
L 3372 0 
L 2619 2869 
L 1863 0 
L 1184 0 
L 269 3500 
z
" transform="scale(0.015625)"/>
      </defs>
      <use xlink:href="#DejaVuSans-6d"/>
      <use xlink:href="#DejaVuSans-65" x="97.412109"/>
      <use xlink:href="#DejaVuSans-61" x="158.935547"/>
      <use xlink:href="#DejaVuSans-6e" x="220.214844"/>
      <use xlink:href="#DejaVuSans-20" x="283.59375"/>
      <use xlink:href="#DejaVuSans-65" x="315.380859"/>
      <use xlink:href="#DejaVuSans-70" x="376.904297"/>
      <use xlink:href="#DejaVuSans-69" x="440.380859"/>
      <use xlink:href="#DejaVuSans-73" x="468.164062"/>
      <use xlink:href="#DejaVuSans-6f" x="520.263672"/>
      <use xlink:href="#DejaVuSans-64" x="581.445312"/>
      <use xlink:href="#DejaVuSans-65" x="644.921875"/>
      <use xlink:href="#DejaVuSans-20" x="706.445312"/>
      <use xlink:href="#DejaVuSans-72" x="738.232422"/>
      <use xlink:href="#DejaVuSans-65" x="777.095703"/>
      <use xlink:href="#DejaVuSans-77" x="838.619141"/>
      <use xlink:href="#DejaVuSans-61" x="920.40625"/>
      <use xlink:href="#DejaVuSans-72" x="981.685547"/>
      <use xlink:href="#DejaVuSans-64" x="1021.048828"/>
      <use xlink:href="#DejaVuSans-73" x="1084.525391"/>
     </g>
    </g>
   </g>
   <g id="line2d_12">
    <path d="M 73.832727 295.488 
L 74.443493 288.433764 
L 74.768369 286.542134 
L 74.898319 286.71075 
L 75.015274 286.399584 
L 75.301164 285.073513 
L 75.509085 284.307117 
L 75.820965 286.418845 
L 75.93792 286.46158 
L 76.119851 286.863485 
L 76.301781 286.710942 
L 76.418736 286.858581 
L 76.743611 285.47371 
L 76.977522 283.088269 
L 77.211432 282.593827 
L 77.380367 283.643901 
L 77.562298 283.817765 
L 77.692248 283.51259 
L 77.848188 282.737358 
L 78.238039 285.814271 
L 78.354994 286.010343 
L 78.406974 286.343253 
L 78.627889 286.623784 
L 78.770834 286.502426 
L 79.14769 285.233973 
L 79.25165 284.980276 
L 79.524545 285.547009 
L 79.693481 284.86781 
L 79.888406 285.093909 
L 80.122316 283.373335 
L 80.239271 283.285146 
L 80.525162 287.568329 
L 80.668107 287.529203 
L 81.213898 290.634769 
L 81.382833 291.091487 
L 81.616743 290.016862 
L 81.837659 289.018853 
L 82.071569 286.691881 
L 82.292484 285.717547 
L 82.48741 286.139535 
L 82.786295 284.013897 
L 83.176146 283.273857 
L 83.423051 285.539692 
L 83.786911 286.279653 
L 84.098792 287.579092 
L 84.280722 286.981575 
L 84.436662 285.28975 
L 84.540622 285.975373 
L 84.670573 285.648104 
L 84.917478 285.8733 
L 85.086413 285.992525 
L 85.216363 284.637578 
L 85.346314 284.715151 
L 85.450274 283.874007 
L 85.723169 286.511685 
L 85.931089 286.745743 
L 86.333935 285.312557 
L 86.4249 285.404691 
L 86.567845 286.197014 
L 86.697796 284.900561 
L 86.827746 285.19837 
L 87.100641 284.157121 
L 87.230591 284.161605 
L 87.412522 285.195387 
L 87.477497 284.399115 
L 87.672422 284.648877 
L 87.932322 283.817797 
L 88.153238 285.794808 
L 88.452123 287.237426 
L 88.660043 285.496814 
L 88.815984 286.48362 
L 88.945934 286.049478 
L 89.101874 286.224327 
L 89.257814 285.465443 
L 89.335784 285.858077 
L 89.58269 285.724531 
L 89.699645 283.481236 
L 89.855585 283.068 
L 89.92056 284.253461 
L 90.063505 284.696621 
L 90.219446 283.370843 
L 90.518331 285.990878 
L 90.622291 285.929395 
L 90.726251 286.263694 
L 90.986152 288.344639 
L 91.194072 289.079716 
L 91.298032 289.991776 
L 91.414987 290.005857 
L 91.596917 288.827003 
L 91.739863 289.084256 
L 91.817833 288.789811 
L 91.960778 289.554168 
L 92.129713 289.32808 
L 92.363624 286.698698 
L 92.480579 287.537703 
L 92.584539 287.268576 
L 92.675504 287.376606 
L 92.792459 288.17086 
L 92.909414 287.122246 
L 93.065355 287.167205 
L 93.143325 286.846184 
L 93.28627 285.05401 
L 93.41622 286.733326 
L 93.689115 285.529037 
L 93.819066 286.195708 
L 94.000996 285.939104 
L 94.091961 282.491776 
L 94.195921 282.533055 
L 94.338866 282.609346 
L 94.481812 282.078202 
L 94.650747 284.633694 
L 94.793692 281.373542 
L 94.962627 281.700587 
L 95.079582 277.593892 
L 95.248518 276.966424 
L 95.339483 275.598914 
L 95.482428 278.473717 
L 95.885274 277.242138 
L 96.067204 274.679519 
L 96.171164 271.061526 
L 96.301114 273.015951 
L 96.444059 273.472972 
L 96.612995 277.096173 
L 96.716955 275.275842 
L 96.872895 276.86137 
L 97.288736 274.037871 
L 97.418686 271.587885 
L 97.626606 272.78032 
L 97.782546 272.500156 
L 98.393312 266.634251 
L 98.679203 265.623162 
L 98.848138 262.013865 
L 99.276973 258.209218 
L 99.523879 258.534107 
L 99.744794 255.115002 
L 100.017689 253.50952 
L 100.134645 254.092522 
L 100.38155 252.155968 
L 100.5115 252.430174 
L 100.758405 252.028273 
L 101.122266 252.949279 
L 101.538107 252.919767 
L 101.823997 254.428741 
L 101.979937 256.201515 
L 102.187857 254.385647 
L 102.369788 255.189762 
L 102.811618 252.964193 
L 103.006544 253.802561 
L 103.214464 252.048246 
L 103.448374 251.792079 
L 103.69528 250.803865 
L 103.9032 249.146863 
L 104.072135 249.890958 
L 104.332036 250.344124 
L 104.461986 249.165041 
L 104.760871 249.26968 
L 104.890821 248.475625 
L 105.124732 248.434389 
L 105.735498 252.080326 
L 105.930423 252.633956 
L 106.099358 252.052757 
L 106.333268 252.417207 
L 106.476214 253.049511 
L 106.697129 252.814671 
L 106.866064 253.490884 
L 107.060989 253.590288 
L 107.463835 252.415264 
L 107.892671 251.281148 
L 108.100591 252.960929 
L 108.490441 253.029148 
L 108.698362 253.896888 
L 109.036232 252.374227 
L 109.387098 253.434836 
L 109.569028 253.734836 
L 109.737963 254.805919 
L 109.945883 253.432028 
L 110.127814 253.070965 
L 110.296749 253.549998 
L 110.491674 253.654981 
L 110.84254 254.759898 
L 110.985485 254.923512 
L 111.31036 254.334469 
L 111.479296 254.087105 
L 111.791176 255.187729 
L 112.181027 255.171312 
L 112.336967 254.856917 
L 112.466917 255.519119 
L 112.700827 255.724632 
L 112.973723 256.42718 
L 113.142658 256.621091 
L 113.480529 255.659671 
L 113.675454 255.704431 
L 113.870379 255.233335 
L 114.026319 255.396438 
L 114.3382 254.008389 
L 114.49414 254.066701 
L 114.793025 253.540923 
L 114.987951 253.915141 
L 115.156886 254.623509 
L 115.338816 254.440977 
L 115.468766 254.978711 
L 115.689682 254.329601 
L 115.845622 254.463472 
L 116.014557 255.090659 
L 116.183492 254.667595 
L 116.326438 254.627125 
L 116.495373 254.433911 
L 116.664308 254.511856 
L 116.859233 253.845224 
L 117.067154 253.912572 
L 117.236089 253.078869 
L 117.392029 253.031564 
L 117.521979 252.780259 
L 117.768885 253.095672 
L 117.91183 252.489136 
L 118.09376 252.31135 
L 118.22371 252.579014 
L 118.40564 252.020373 
L 118.522596 252.390558 
L 118.730516 252.666185 
L 118.860466 253.064978 
L 119.172347 254.32764 
L 119.393262 253.726968 
L 119.510217 254.742605 
L 119.874078 254.562816 
L 120.069003 254.446435 
L 120.549819 252.740462 
L 121.134594 251.726795 
L 121.35551 250.700574 
L 121.992266 245.94722 
L 122.174196 245.336923 
L 122.369121 246.098222 
L 122.719987 243.357229 
L 122.979887 243.552049 
L 123.408723 241.644528 
L 123.629638 242.222342 
L 123.811568 242.03921 
L 124.214414 240.786139 
L 124.565279 238.694854 
L 124.79919 238.464319 
L 124.994115 238.064071 
L 125.24102 234.846287 
L 125.721836 234.568235 
L 125.968741 234.137372 
L 126.228642 232.34802 
L 126.475547 232.048691 
L 127.034333 227.796748 
L 127.372203 228.554101 
L 127.619109 226.242322 
L 127.904999 225.243877 
L 128.164899 222.534793 
L 128.515765 220.88771 
L 128.81465 217.161662 
L 129.087546 216.771978 
L 129.425416 214.349129 
L 129.698312 215.506976 
L 130.062172 214.838927 
L 130.348062 210.462562 
L 130.698928 208.865893 
L 130.997813 206.880056 
L 131.569594 204.355813 
L 132.31031 196.398455 
L 133.077016 190.033197 
L 133.583822 185.256419 
L 134.051643 179.170881 
L 134.532458 176.1471 
L 134.922309 169.983014 
L 135.689015 164.580954 
L 135.96191 161.13181 
L 136.663641 157.689087 
L 137.742228 149.112183 
L 138.119083 142.821219 
L 138.664874 137.265064 
L 139.210665 135.671873 
L 140.341232 125.016528 
L 141.133928 120.730349 
L 141.614743 117.178556 
L 142.225509 114.68619 
L 142.74531 111.791399 
L 143.343081 110.833405 
L 144.486642 108.459841 
L 145.188373 104.941075 
L 145.773149 104.639876 
L 146.890721 104.69864 
L 147.566462 104.006471 
L 148.047278 102.029205 
L 148.787994 101.639184 
L 149.190839 98.530528 
L 149.94455 98.518255 
L 150.347396 97.53872 
L 151.503952 97.476946 
L 152.283654 96.799278 
L 152.712489 95.217829 
L 153.817066 94.695659 
L 154.635752 95.040444 
L 154.960627 95.687759 
L 155.753323 94.967232 
L 156.052209 95.410016 
L 156.870895 96.070976 
L 157.16978 95.394142 
L 158.014457 96.038666 
L 158.365322 97.10352 
L 159.560864 99.345298 
L 160.132645 99.765812 
L 160.574475 99.591767 
L 161.237221 100.992034 
L 161.757022 100.404782 
L 162.926574 97.45115 
L 163.537339 97.122727 
L 164.667906 95.802025 
L 165.070752 96.395514 
L 165.824463 96.406552 
L 166.266293 95.046849 
L 166.864064 95.129678 
L 168.072601 97.401031 
L 168.527427 97.696433 
L 169.164182 99.130813 
L 169.696978 98.561462 
L 170.216779 99.535768 
L 170.593635 97.768825 
L 171.360341 99.234403 
L 171.776181 100.934596 
L 172.360957 101.913745 
L 172.685832 104.010644 
L 173.400558 105.441782 
L 173.686449 107.728297 
L 174.479145 108.39445 
L 174.881991 108.102886 
L 175.648697 107.177294 
L 176.129512 106.346407 
L 177.338049 101.99255 
L 177.9878 101.033421 
L 179.222327 95.281737 
L 179.586187 91.750448 
L 180.352893 88.646085 
L 181.56143 86.757954 
L 182.055241 85.644021 
L 182.756972 86.018542 
L 183.224792 86.501295 
L 183.965508 82.526186 
L 184.433329 79.20002 
L 185.0311 81.536291 
L 185.628871 82.482564 
L 186.317607 80.512318 
L 186.837408 81.930847 
L 187.474163 80.755856 
L 187.954979 81.961707 
L 188.57874 83.844854 
L 189.774282 86.108357 
L 190.372053 85.949247 
L 190.930838 84.922508 
L 191.619574 84.1588 
L 191.983435 85.569478 
L 192.776131 86.00884 
L 193.165982 86.406441 
L 193.971673 86.20118 
L 194.348528 82.995705 
L 195.219194 79.925331 
L 195.557065 79.446045 
L 196.466716 80.449065 
L 196.791592 78.248089 
L 197.636268 79.489956 
L 198.078098 78.255597 
L 199.338615 75.515958 
L 200.586137 73.840587 
L 201.326853 74.035491 
L 201.768684 73.081767 
L 202.548385 73.324518 
L 203.068186 73.896898 
L 203.730932 73.780524 
L 204.302712 73.36236 
L 204.965458 73.903081 
L 205.407289 76.137276 
L 206.641816 78.091272 
L 207.421517 78.998546 
L 207.928322 80.128008 
L 208.695029 77.759802 
L 209.162849 78.088622 
L 209.91656 78.081096 
L 210.410371 78.597745 
L 211.203067 77.2851 
L 211.605913 75.632123 
L 212.411604 73.985326 
L 212.840439 73.694544 
L 213.633136 73.664318 
L 214.087961 73.034679 
L 214.815682 73.964401 
L 215.309493 73.769447 
L 216.050209 72.90727 
L 216.51803 73.076442 
L 217.297731 73.846695 
L 217.752556 73.210277 
L 218.506267 73.248442 
L 218.974088 73.05753 
L 219.714804 72.124573 
L 220.156635 73.648574 
L 220.988316 73.015837 
L 221.378167 72.929448 
L 221.949947 74.174495 
L 222.599698 74.83497 
L 223.210464 75.687122 
L 223.76925 77.255066 
L 224.509966 77.26516 
L 225.783478 78.700345 
L 226.225308 78.412479 
L 227.031 78.452653 
L 227.459835 78.646096 
L 228.044611 79.118817 
L 228.694362 79.465325 
L 229.279138 79.468979 
L 229.889904 80.066947 
L 230.539655 80.219919 
L 231.12443 82.73868 
L 231.735196 83.733836 
L 232.332967 83.612934 
L 232.943733 85.519622 
L 233.541504 86.111795 
L 234.0743 85.807918 
L 234.56811 85.21866 
L 235.243851 86.117262 
L 235.841622 84.378189 
L 236.504368 84.399028 
L 237.076149 81.128651 
L 238.284686 79.782781 
L 238.895451 78.803906 
L 239.480227 79.633655 
L 241.40349 78.779083 
L 242.001261 78.137927 
L 242.599032 80.46885 
L 243.261778 80.453631 
L 243.833558 79.231915 
L 244.457319 80.450348 
L 245.120065 80.290271 
L 245.678851 80.671225 
L 246.367587 80.326368 
L 246.913378 79.018599 
L 247.641099 77.765336 
L 248.199885 78.480397 
L 248.75867 77.071253 
L 249.330451 77.824502 
L 249.980202 78.393641 
L 250.538988 76.380026 
L 251.175744 76.217892 
L 251.747525 74.768527 
L 252.423266 73.996747 
L 253.579822 78.570257 
L 254.216578 78.431996 
L 254.814349 77.642819 
L 255.477095 77.564833 
L 256.035881 78.18344 
L 256.750607 79.53759 
L 257.231422 80.155287 
L 257.998128 79.813802 
L 258.491939 80.435546 
L 259.232655 79.821809 
L 259.752456 78.195801 
L 260.454187 79.544092 
L 261.558764 82.49447 
L 262.156534 82.84022 
L 262.79329 83.61985 
L 263.884872 85.424176 
L 264.547618 87.961582 
L 265.093409 88.895509 
L 265.808135 88.285997 
L 266.405905 87.318543 
L 266.860731 86.983541 
L 267.575457 86.94502 
L 268.355158 88.717612 
L 268.783994 87.963372 
L 269.39476 89.127361 
L 269.96654 92.846378 
L 271.110102 88.166492 
L 272.344629 87.34088 
L 273.28027 87.639774 
L 273.566161 86.984829 
L 274.514797 85.982505 
L 274.839672 86.062413 
L 275.788309 85.194569 
L 276.139174 80.640985 
L 277.048825 81.054346 
L 277.425681 81.096985 
L 278.231372 82.275858 
L 278.699193 83.330129 
L 279.920725 83.427516 
L 280.674436 82.303867 
L 281.298197 82.74993 
L 282.012923 81.957915 
L 282.610693 81.903295 
L 283.338414 82.58301 
L 283.74126 83.394654 
L 284.559946 84.036933 
L 285.001777 82.876487 
L 286.262294 81.687727 
L 287.08098 82.38995 
L 287.39286 82.972623 
L 288.328501 84.217884 
L 288.666372 85.722461 
L 289.485058 85.854227 
L 289.939884 85.520013 
L 290.745575 85.28815 
L 291.14842 85.955733 
L 291.928122 86.745864 
L 292.395942 87.436366 
L 293.149653 87.936475 
L 293.552499 87.820567 
L 294.735046 86.770801 
L 295.631702 88.237084 
L 295.982567 89.076733 
L 296.814249 90.371038 
L 297.217094 90.526762 
L 298.464616 91.432579 
L 299.244317 91.619851 
L 299.725133 90.93647 
L 300.426864 91.689349 
L 300.946664 92.555489 
L 301.700375 92.521049 
L 302.181191 92.804115 
L 302.908912 92.9913 
L 303.376733 94.308344 
L 305.312991 94.442791 
L 305.715836 96.099496 
L 306.976353 95.894223 
L 307.730064 96.178698 
L 308.171895 96.010065 
L 308.964591 94.535088 
L 309.432411 94.551877 
L 310.160132 94.29807 
L 310.679933 93.670952 
L 311.381664 93.669348 
L 311.94045 93.191219 
L 312.655176 93.225105 
L 313.148987 93.004027 
L 313.837723 92.473998 
L 314.279553 92.632375 
L 315.085244 93.38727 
L 315.54007 93.175098 
L 316.774597 93.668372 
L 317.489323 93.252021 
L 318.009124 92.680503 
L 318.658875 92.988923 
L 319.29563 92.432595 
L 320.543152 92.685335 
L 321.179908 92.572137 
L 321.816664 92.695497 
L 322.47941 92.487215 
L 323.674952 91.780496 
L 324.415668 91.772216 
L 324.935468 91.299222 
L 325.559229 91.292297 
L 326.144005 91.164725 
L 327.430512 90.128065 
L 328.054273 89.259793 
L 328.626054 88.858845 
L 329.327785 89.055199 
L 329.899565 88.484077 
L 330.562311 88.153272 
L 331.121097 87.499364 
L 331.835823 87.098686 
L 332.420599 86.399827 
L 333.2003 85.713852 
L 333.694111 84.900331 
L 334.499802 84.171634 
L 335.019603 83.33752 
L 335.734329 82.517135 
L 336.3321 82.840346 
L 336.968855 82.267217 
L 337.644596 82.073301 
L 338.268357 81.598183 
L 339.593849 78.589507 
L 340.256595 77.979048 
L 340.893351 77.949985 
L 341.478127 77.689754 
L 342.218843 78.090375 
L 342.777629 77.270307 
L 343.440375 76.531568 
L 344.012155 75.003306 
L 344.713886 73.936604 
L 345.233687 74.695825 
L 345.987398 75.511232 
L 346.624154 75.67864 
L 347.39086 76.045023 
L 349.457068 71.989685 
L 350.054839 71.144626 
L 350.62662 72.469637 
L 351.341346 72.84983 
L 352.562878 70.02641 
L 353.329584 68.827314 
L 353.875374 67.558737 
L 354.551115 67.734762 
L 355.239851 67.40558 
L 355.863612 67.872776 
L 356.461383 68.687099 
L 357.150119 66.959352 
L 357.760885 65.938365 
L 358.475611 66.315141 
L 359.086377 65.903112 
L 359.788108 65.814908 
L 360.346894 65.195921 
L 361.06162 64.736215 
L 361.685381 64.650657 
L 362.413102 63.954999 
L 363.062852 62.411086 
L 363.712603 62.074348 
L 364.427329 60.874395 
L 364.986115 60.835656 
L 365.778811 60.914483 
L 366.246632 61.402724 
L 367.052323 61.888213 
L 367.507149 63.145255 
L 368.299845 63.727398 
L 368.689695 64.828737 
L 369.937217 65.392909 
L 370.898849 67.15766 
L 371.210729 66.517586 
L 372.133375 66.979335 
L 372.484241 66.547258 
L 373.315922 67.657689 
L 373.705773 67.033062 
L 374.680399 66.920743 
L 374.992279 66.367214 
L 375.875941 66.99725 
L 376.226806 68.08885 
L 377.097472 68.352915 
L 377.513313 68.78602 
L 378.838805 69.183394 
L 379.670486 68.198091 
L 380.073332 67.438449 
L 380.866028 68.095543 
L 381.320853 68.940282 
L 382.152535 68.920886 
L 382.568375 67.69262 
L 383.452036 67.115703 
L 383.828892 68.186307 
L 384.634583 68.178593 
L 385.102404 68.923473 
L 385.804135 69.356352 
L 386.323935 69.913883 
L 387.545467 68.953072 
L 388.260193 68.969422 
L 389.46873 69.85986 
L 390.040511 68.83312 
L 391.275037 68.198042 
L 391.950778 67.872526 
L 392.509564 67.883047 
L 393.185305 67.710052 
L 393.705106 68.456541 
L 394.315872 68.830834 
L 394.926638 70.205349 
L 396.109184 71.502896 
L 396.69396 72.571232 
L 397.252746 73.845027 
L 397.837522 75.579297 
L 398.461283 77.074664 
L 398.461283 77.074664 
" clip-path="url(#p395206adff)" style="fill: none; stroke: #1f77b4; stroke-width: 1.5; stroke-linecap: square"/>
   </g>
   <g id="line2d_13">
    <path d="M 80.109321 288.653419 
L 86.60683 269.100629 
L 93.10434 271.571038 
L 99.601849 255.997202 
L 106.099358 257.919716 
L 112.596867 259.080936 
L 119.094376 259.348739 
L 125.591886 250.651528 
L 132.089395 206.605233 
L 138.586904 93.967654 
L 145.084413 103.627307 
L 151.581923 99.924253 
L 158.079432 87.622628 
L 164.576941 80.602762 
L 171.07445 97.902741 
L 177.571959 66.997477 
L 184.069469 109.529129 
L 190.566978 62.230244 
L 197.064487 62.490104 
L 203.561996 132.406019 
L 210.059505 68.269 
L 216.557015 67.464379 
L 223.054524 73.350775 
L 229.552033 79.31201 
L 236.049542 81.113027 
L 242.547052 72.285587 
L 249.044561 89.532637 
L 255.54207 90.549336 
L 262.039579 92.463871 
L 268.537088 86.882491 
L 275.034598 90.491917 
L 281.532107 97.727414 
L 288.029616 93.080405 
L 294.527125 97.45182 
L 301.024634 96.025994 
L 307.522144 94.378962 
L 314.019653 98.236963 
L 320.517162 91.433904 
L 327.014671 87.060969 
L 333.512181 75.681735 
L 340.00969 68.794415 
L 346.507199 64.32547 
L 353.004708 53.568 
L 359.502217 56.097656 
L 365.999727 64.01324 
L 372.497236 55.029317 
L 378.994745 63.323536 
L 385.492254 65.026947 
L 391.989764 58.076884 
L 398.487273 63.150477 
" clip-path="url(#p395206adff)" style="fill: none; stroke: #ff7f0e; stroke-width: 1.5; stroke-linecap: square"/>
   </g>
   <g id="line2d_14">
    <path d="M 73.858717 292.049046 
L 74.131613 287.671089 
L 74.248568 287.044104 
L 74.339533 287.658963 
L 74.534458 287.888119 
L 74.690398 287.85514 
L 74.924309 286.445053 
L 75.067254 286.44166 
L 75.62604 285.402373 
L 75.768985 285.686667 
L 75.898935 285.622358 
L 76.171831 286.081859 
L 76.327771 286.911058 
L 76.444726 286.184674 
L 76.587671 286.21965 
L 76.704626 285.622096 
L 76.990517 287.295586 
L 77.159452 285.90056 
L 77.302397 285.938299 
L 77.614278 285.455604 
L 77.731233 284.88818 
L 77.939153 286.12541 
L 78.056108 285.633076 
L 78.199053 285.688908 
L 78.367989 283.310545 
L 78.497939 283.260483 
L 78.679869 283.959179 
L 79.01774 281.488431 
L 79.186675 282.352482 
L 79.27764 281.811699 
L 79.446575 279.809207 
L 79.56353 280.082626 
L 79.758456 281.266545 
L 79.849421 282.786649 
L 79.966376 282.703185 
L 80.057341 281.947884 
L 80.239271 283.489766 
L 80.317241 282.985545 
L 80.447192 282.964773 
L 80.603132 283.296421 
L 80.811052 285.461622 
L 80.941002 284.850287 
L 81.291868 286.439505 
L 81.421818 286.955042 
L 81.733698 288.666763 
L 81.902634 288.633185 
L 82.162534 287.879952 
L 82.331469 288.021242 
L 82.422434 285.735152 
L 82.74731 285.015371 
L 82.890255 284.13119 
L 83.00721 284.403267 
L 83.293101 282.820141 
L 83.423051 283.555564 
L 83.578991 282.608407 
L 83.760921 282.53516 
L 83.981837 284.774655 
L 84.241737 285.86043 
L 84.397677 285.599343 
L 84.696563 287.312901 
L 84.787528 286.204563 
L 84.995448 287.814619 
L 85.190373 288.014073 
L 85.294334 287.530087 
L 85.723169 287.590693 
L 85.853119 286.906887 
L 85.996065 286.792705 
L 86.11302 287.645302 
L 86.359925 287.090205 
L 86.50287 287.256011 
L 86.60683 287.647519 
L 86.788761 287.300431 
L 86.918711 286.63173 
L 87.165616 287.519127 
L 87.269576 287.080316 
L 87.386531 287.502353 
L 87.503487 287.320834 
L 87.633437 287.584251 
L 87.776382 286.884862 
L 87.997297 287.826516 
L 88.088262 288.213279 
L 88.231208 288.202297 
L 88.504103 288.460526 
L 88.621058 288.263279 
L 88.751008 288.813668 
L 88.906949 288.565487 
L 89.205834 286.507849 
L 89.322789 285.910479 
L 89.58269 285.769831 
L 89.751625 283.555918 
L 89.97254 283.82336 
L 90.10249 283.617994 
L 90.193455 283.76051 
L 90.466351 285.668677 
L 90.596301 286.129706 
L 90.674271 286.839056 
L 90.791226 286.20936 
L 90.960162 288.832787 
L 91.207067 288.857999 
L 91.324022 288.438318 
L 91.466967 289.117483 
L 91.687883 287.593336 
L 91.804838 287.807178 
L 91.973773 287.756399 
L 92.220678 287.042434 
L 92.324638 286.258997 
L 92.844439 288.961374 
L 93.13033 288.195836 
L 93.26028 288.341662 
L 93.41622 288.311678 
L 94.065971 284.832934 
L 94.598767 286.987564 
L 94.741712 287.412707 
L 95.534408 285.558269 
L 95.755323 285.97429 
L 95.911264 285.321992 
L 96.028219 285.982705 
L 96.210149 284.351587 
L 96.444059 286.184566 
L 96.6 285.936116 
L 96.794925 285.518554 
L 97.17178 282.399121 
L 97.366706 282.59761 
L 97.782546 280.223046 
L 98.120417 275.361695 
L 98.445292 273.795479 
L 98.601232 273.76345 
L 98.744178 273.344297 
L 98.939103 274.124187 
L 99.108038 274.305977 
L 99.289968 273.892819 
L 99.497889 273.757397 
L 99.640834 273.021669 
L 100.12165 275.506621 
L 100.30358 272.210646 
L 100.53749 270.772137 
L 100.810386 269.963358 
L 101.291201 261.435245 
L 101.421151 260.938841 
L 101.785012 260.5541 
L 101.966942 259.621476 
L 102.174862 256.184839 
L 102.499738 254.561767 
L 102.668673 255.005736 
L 103.045529 253.596494 
L 103.227459 251.419701 
L 103.578324 253.609216 
L 103.786245 253.223639 
L 104.08513 250.431653 
L 104.410006 250.052931 
L 104.760871 248.461521 
L 105.007776 248.109487 
L 105.241687 247.088525 
L 105.540572 246.76463 
L 105.852453 246.212133 
L 106.229308 244.853875 
L 106.476214 245.427415 
L 106.645149 247.507358 
L 106.879059 247.320098 
L 107.125964 249.889084 
L 107.58079 250.813914 
L 107.8147 250.42713 
L 108.295516 253.01389 
L 108.477446 253.476176 
L 108.659377 253.606162 
L 108.841307 252.973931 
L 109.140192 253.748441 
L 109.257148 253.641396 
L 109.543038 255.637895 
L 109.828928 255.509656 
L 109.958879 256.433999 
L 110.218779 256.45047 
L 110.439694 257.422205 
L 110.803555 256.664679 
L 111.011475 257.155151 
L 111.193405 257.1802 
L 111.401326 258.400316 
L 111.596251 257.449944 
L 111.791176 258.030115 
L 111.999096 257.4753 
L 112.181027 257.308086 
L 112.323972 256.932552 
L 112.518897 257.622805 
L 112.882758 257.763359 
L 113.129663 258.120514 
L 113.285603 257.270926 
L 113.519514 256.781013 
L 113.675454 256.915972 
L 113.909364 256.612305 
L 114.039314 256.143872 
L 114.247235 256.095574 
L 114.377185 255.683862 
L 114.767035 255.595995 
L 114.948966 254.830152 
L 115.182876 254.763082 
L 115.585721 255.296971 
L 115.780647 254.9626 
L 115.975572 255.685578 
L 116.560348 255.895884 
L 116.716288 255.230172 
L 116.937203 255.305169 
L 117.418019 254.151587 
L 117.638934 255.295664 
L 117.83386 254.561416 
L 117.976805 255.021431 
L 118.14574 254.901697 
L 118.30168 255.299824 
L 118.535591 255.507391 
L 118.691531 255.429117 
L 118.873461 255.072184 
L 119.263312 255.593741 
L 119.393262 255.252998 
L 119.679152 254.111987 
L 119.731132 254.257829 
L 120.043013 254.117719 
L 120.159968 253.359504 
L 120.510833 253.692104 
L 120.718754 253.71497 
L 121.342515 252.116851 
L 121.48546 252.969208 
L 121.69338 252.275504 
L 121.862315 252.490111 
L 122.265161 250.863034 
L 122.616026 250.245451 
L 122.810952 250.361343 
L 123.031867 250.008507 
L 123.200802 250.274301 
L 123.434713 249.831267 
L 123.603648 250.077156 
L 123.824563 249.823011 
L 124.006493 250.003335 
L 124.214414 250.593784 
L 124.630254 249.661164 
L 124.968125 248.45146 
L 125.21503 248.782938 
L 125.357975 247.620431 
L 125.604881 247.849329 
L 125.721836 247.685757 
L 125.968741 247.818017 
L 126.124681 247.73689 
L 126.358592 248.368527 
L 126.566512 247.678594 
L 126.982353 248.162928 
L 127.125298 247.651516 
L 127.359208 248.498221 
L 127.723069 246.936218 
L 128.021954 246.614004 
L 128.177894 245.546653 
L 128.411805 244.793999 
L 128.645715 245.479268 
L 129.347446 242.9257 
L 129.490391 241.681939 
L 129.919227 241.453685 
L 130.335067 240.22866 
L 130.685933 239.757836 
L 130.828878 238.460141 
L 131.101773 238.488576 
L 131.348679 238.352656 
L 131.569594 237.482291 
L 132.037415 237.641865 
L 132.804121 234.661731 
L 133.077016 234.029831 
L 133.362907 232.910866 
L 133.648797 230.972311 
L 133.869712 230.938252 
L 134.116618 230.493326 
L 134.467483 229.230564 
L 134.714389 227.042676 
L 135.039264 227.005318 
L 135.208199 225.743985 
L 135.455105 226.447731 
L 135.77998 226.041786 
L 136.078866 226.491228 
L 136.286786 228.164861 
L 136.689631 225.016108 
L 136.936537 224.362945 
L 137.170447 222.669246 
L 137.560298 223.452874 
L 137.833193 221.85392 
L 138.119083 221.10191 
L 138.430964 218.506696 
L 139.028735 215.521938 
L 140.133311 208.725325 
L 140.627122 208.295435 
L 140.900017 204.840511 
L 141.367838 202.84287 
L 141.926624 198.380533 
L 142.251499 192.593686 
L 142.784295 187.830098 
L 143.369071 180.886799 
L 144.850503 160.005465 
L 145.292334 155.423116 
L 146.020055 146.101556 
L 146.39691 138.308567 
L 147.137626 133.275989 
L 147.618442 126.905871 
L 148.385148 119.23569 
L 150.178461 106.230484 
L 150.919177 103.027924 
L 151.438977 97.545035 
L 152.088728 96.644731 
L 152.634519 93.132076 
L 153.323255 90.959473 
L 153.908031 90.536761 
L 154.531792 89.050929 
L 155.142558 86.48189 
L 155.753323 87.385528 
L 156.338099 87.352915 
L 157.06582 86.410077 
L 157.533641 84.225498 
L 158.300347 82.059347 
L 158.885123 82.237269 
L 159.378934 83.205663 
L 160.09366 83.877941 
L 160.58747 84.85337 
L 161.081281 86.367468 
L 161.899967 85.842538 
L 162.289818 86.485225 
L 163.056524 88.54785 
L 163.576325 88.650291 
L 164.252066 91.7692 
L 164.693896 93.094407 
L 165.330652 93.140519 
L 165.837458 95.226231 
L 166.604164 96.676634 
L 167.73473 97.881396 
L 168.241536 100.721347 
L 168.839307 99.702986 
L 169.229158 103.9279 
L 169.904899 105.260162 
L 170.307744 107.740261 
L 170.931505 108.608948 
L 171.438311 110.019845 
L 172.036082 112.285294 
L 172.646847 112.485649 
L 173.270608 114.505731 
L 173.634469 114.670789 
L 174.15427 117.777259 
L 174.609095 119.126048 
L 175.427781 119.814532 
L 176.090527 121.090257 
L 176.896218 123.038268 
L 177.169114 122.27288 
L 177.80587 127.952595 
L 178.442626 126.44119 
L 178.949431 124.354897 
L 179.560197 126.093073 
L 180.041013 124.631025 
L 180.573809 124.486995 
L 181.106604 126.981531 
L 181.652395 125.195552 
L 182.666007 126.405701 
L 183.159817 123.468912 
L 183.705608 126.034038 
L 184.589269 132.800915 
L 185.018105 135.672126 
L 185.615876 138.221323 
L 186.031716 138.708392 
L 187.383198 149.142673 
L 187.954979 154.922506 
L 188.279855 156.440203 
L 188.721685 157.348048 
L 189.293466 157.512426 
L 189.891237 153.678342 
L 190.982818 152.332812 
L 191.307694 150.326551 
L 191.853485 144.556574 
L 192.23034 144.988793 
L 192.789126 143.425026 
L 193.217962 144.079932 
L 193.685782 143.99382 
L 194.140608 144.302419 
L 194.621424 146.742453 
L 195.193204 147.835947 
L 195.609045 147.861547 
L 196.193821 148.937844 
L 196.687632 148.961795 
L 197.259412 146.009887 
L 197.727233 142.598574 
L 198.208049 142.035706 
L 198.753839 140.627607 
L 199.832426 133.587394 
L 202.7693 119.084442 
L 203.471031 118.570079 
L 204.588603 110.434945 
L 205.108403 108.003005 
L 205.745159 106.291288 
L 206.31694 102.762015 
L 206.992681 103.683967 
L 207.499487 104.973499 
L 208.006293 105.936763 
L 208.824979 105.251767 
L 209.240819 101.345335 
L 209.94255 101.232444 
L 210.423366 102.073395 
L 211.112102 103.929151 
L 211.579923 106.25722 
L 212.242669 107.754544 
L 212.775464 107.398257 
L 213.23029 107.666154 
L 213.971006 108.900542 
L 214.529792 107.895209 
L 215.244518 108.387711 
L 215.842289 104.600199 
L 216.634985 101.998287 
L 217.791541 92.585567 
L 218.389312 93.716324 
L 219.117033 89.552564 
L 219.714804 88.267376 
L 220.390545 84.231572 
L 220.910346 85.961775 
L 221.560097 85.729318 
L 222.157868 87.322536 
L 223.002544 86.915041 
L 223.58732 86.147994 
L 224.08113 86.107965 
L 224.964792 82.607844 
L 225.562562 82.296053 
L 226.160333 81.567676 
L 226.784094 84.101275 
L 227.47283 81.98374 
L 228.213546 79.051135 
L 228.889287 78.125616 
L 229.344113 78.748314 
L 230.201784 78.666853 
L 230.669605 78.293072 
L 231.969107 76.474078 
L 232.748808 74.848231 
L 233.307593 71.596354 
L 234.035314 70.918241 
L 234.67207 71.092755 
L 235.477762 71.754068 
L 236.010557 73.24814 
L 236.790258 72.676019 
L 237.206099 72.921208 
L 238.596566 74.340784 
L 239.233322 76.596378 
L 239.961043 77.485535 
L 240.662774 76.384298 
L 241.40349 76.366385 
L 242.001261 75.582679 
L 242.715987 74.939077 
L 243.807568 77.363158 
L 244.704225 77.367023 
L 245.366971 76.788231 
L 245.990731 73.287323 
L 246.614492 72.029867 
L 247.277238 73.031252 
L 247.991964 72.242835 
L 248.60273 70.750387 
L 249.486391 67.361234 
L 250.032182 66.32627 
L 250.746908 64.503563 
L 251.500619 63.409753 
L 252.163365 63.036217 
L 252.813116 62.495759 
L 253.553832 61.57364 
L 254.177593 60.542975 
L 254.905314 61.259942 
L 255.62004 61.350223 
L 256.334766 62.008284 
L 256.919542 62.382475 
L 257.673253 62.573955 
L 258.271024 63.222836 
L 259.01174 63.226889 
L 259.635501 63.417904 
L 260.259262 64.564082 
L 260.935003 66.051914 
L 261.623739 65.999831 
L 262.221509 67.311005 
L 263.650961 67.492913 
L 264.222742 67.220941 
L 265.067418 67.398911 
L 265.561229 68.389595 
L 266.899716 69.040234 
L 267.627437 68.993074 
L 268.173228 69.855033 
L 269.108869 69.529649 
L 269.745625 69.639271 
L 270.460351 69.350358 
L 271.084112 68.880912 
L 271.863813 69.090138 
L 272.357624 67.92945 
L 273.35824 67.582212 
L 273.644131 66.35599 
L 274.605762 66.152355 
L 274.995613 64.873069 
L 275.866279 65.975435 
L 276.347094 66.302209 
L 277.308726 68.320013 
L 277.672586 69.635052 
L 278.491273 71.453468 
L 279.089043 73.57944 
L 279.829759 73.527904 
L 280.40154 73.947063 
L 281.740027 76.39607 
L 282.363788 77.221004 
L 283.091509 77.356937 
L 284.417001 76.18407 
L 285.222692 74.278679 
L 285.755488 73.671777 
L 286.470214 74.922533 
L 287.10697 75.755963 
L 287.743726 74.822068 
L 288.445457 75.075477 
L 289.121198 74.889147 
L 289.783944 75.85852 
L 290.446689 75.919138 
L 291.07045 76.770616 
L 291.824161 78.273375 
L 292.356957 79.015164 
L 293.110668 79.530508 
L 293.747424 80.110029 
L 294.35819 81.257457 
L 294.968956 81.846822 
L 295.644697 82.712141 
L 296.268458 83.035217 
L 297.56796 84.393262 
L 298.282686 83.891889 
L 300.205948 84.340729 
L 300.907679 84.21293 
L 301.42748 83.712545 
L 302.713987 82.998732 
L 304.026484 84.061053 
L 304.754205 84.279907 
L 305.403956 84.721511 
L 306.131677 84.138603 
L 307.418184 84.717737 
L 308.028949 85.653493 
L 308.665705 86.295399 
L 309.185506 87.540512 
L 309.952212 87.844387 
L 311.212729 88.911849 
L 311.563594 89.530539 
L 312.889086 90.959198 
L 313.733763 91.217269 
L 314.253563 91.042697 
L 315.059254 90.472227 
L 315.51408 89.576807 
L 316.371751 89.083375 
L 316.787592 88.438651 
L 317.632268 87.993323 
L 318.074099 87.235117 
L 318.93177 86.536529 
L 319.334615 86.673974 
L 320.621122 85.686188 
L 321.530774 85.905272 
L 321.907629 85.7101 
L 322.830275 85.687597 
L 323.233121 85.495527 
L 324.103787 84.610123 
L 324.571608 84.415214 
L 325.429279 84.224421 
L 325.8971 83.656471 
L 327.183607 83.541307 
L 328.028283 83.67848 
L 328.470113 84.240714 
L 329.743625 84.946656 
L 330.588301 85.863738 
L 331.043127 85.504223 
L 332.407604 85.373139 
L 333.22629 84.893411 
L 333.668121 84.864201 
L 334.564777 84.431416 
L 334.954628 83.477559 
L 335.877274 83.07976 
L 337.202766 81.731995 
L 338.541253 81.51979 
L 338.853133 81.169662 
L 339.85375 81.511069 
L 340.11365 81.182378 
L 341.114266 80.963385 
L 341.400157 81.026835 
L 342.452753 80.384332 
L 342.686664 80.052693 
L 343.726265 80.235331 
L 343.99916 80.524407 
L 344.986782 80.734738 
L 345.376632 80.455711 
L 346.325269 80.195798 
L 346.676134 79.852419 
L 347.572791 79.933225 
L 347.949646 80.154865 
L 348.911277 80.466719 
L 351.419316 80.147098 
L 351.913127 80.385427 
L 353.238619 80.507639 
L 354.135275 80.108646 
L 354.603095 79.678294 
L 355.863612 80.184569 
L 356.682298 80.767215 
L 357.124129 80.661146 
L 357.942815 81.08149 
L 358.384646 81.115679 
L 359.229322 80.967914 
L 359.684148 81.415225 
L 361.022635 81.782184 
L 363.062852 81.568897 
L 363.517678 81.704335 
L 364.310374 81.64954 
L 364.752205 82.133485 
L 366.766433 83.155985 
L 367.312224 83.34728 
L 368.091925 83.12574 
L 368.57274 83.529703 
L 370.586968 82.844734 
L 371.106769 82.388222 
L 372.328301 82.594783 
L 373.069017 82.13905 
L 373.705773 81.948974 
L 374.355524 81.421658 
L 375.005274 80.683749 
L 375.655025 80.479451 
L 376.252796 79.881061 
L 376.902547 80.005762 
L 378.189054 79.43528 
L 378.838805 78.539671 
L 379.475561 78.515294 
L 380.125312 78.915766 
L 380.710088 79.627472 
L 382.620355 81.021828 
L 383.309091 80.862686 
L 383.880872 81.091598 
L 384.569608 81.183429 
L 385.128394 81.942933 
L 385.81713 82.304713 
L 386.375916 82.220968 
L 387.064652 82.367353 
L 387.636432 82.227453 
L 388.312173 81.79648 
L 388.961924 81.131234 
L 390.924172 79.719952 
L 391.508948 79.109213 
L 392.184689 78.861378 
L 392.75647 78.50482 
L 393.406221 78.245551 
L 394.003991 78.274425 
L 394.627752 78.734012 
L 395.277503 79.414759 
L 395.875274 80.26983 
L 396.53802 80.663757 
L 397.213761 80.888755 
L 397.798537 80.803318 
L 398.474278 80.891424 
L 398.474278 80.891424 
" clip-path="url(#p395206adff)" style="fill: none; stroke: #2ca02c; stroke-width: 1.5; stroke-linecap: square"/>
   </g>
   <g id="patch_3">
    <path d="M 57.6 307.584 
L 57.6 41.472 
" style="fill: none; stroke: #000000; stroke-width: 0.8; stroke-linejoin: miter; stroke-linecap: square"/>
   </g>
   <g id="patch_4">
    <path d="M 414.72 307.584 
L 414.72 41.472 
" style="fill: none; stroke: #000000; stroke-width: 0.8; stroke-linejoin: miter; stroke-linecap: square"/>
   </g>
   <g id="patch_5">
    <path d="M 57.6 307.584 
L 414.72 307.584 
" style="fill: none; stroke: #000000; stroke-width: 0.8; stroke-linejoin: miter; stroke-linecap: square"/>
   </g>
   <g id="patch_6">
    <path d="M 57.6 41.472 
L 414.72 41.472 
" style="fill: none; stroke: #000000; stroke-width: 0.8; stroke-linejoin: miter; stroke-linecap: square"/>
   </g>
   <g id="text_14">
    <!-- learning curve -->
    <g transform="translate(192.96375 35.472) scale(0.12 -0.12)">
     <defs>
      <path id="DejaVuSans-6c" d="M 603 4863 
L 1178 4863 
L 1178 0 
L 603 0 
L 603 4863 
z
" transform="scale(0.015625)"/>
      <path id="DejaVuSans-67" d="M 2906 1791 
Q 2906 2416 2648 2759 
Q 2391 3103 1925 3103 
Q 1463 3103 1205 2759 
Q 947 2416 947 1791 
Q 947 1169 1205 825 
Q 1463 481 1925 481 
Q 2391 481 2648 825 
Q 2906 1169 2906 1791 
z
M 3481 434 
Q 3481 -459 3084 -895 
Q 2688 -1331 1869 -1331 
Q 1566 -1331 1297 -1286 
Q 1028 -1241 775 -1147 
L 775 -588 
Q 1028 -725 1275 -790 
Q 1522 -856 1778 -856 
Q 2344 -856 2625 -561 
Q 2906 -266 2906 331 
L 2906 616 
Q 2728 306 2450 153 
Q 2172 0 1784 0 
Q 1141 0 747 490 
Q 353 981 353 1791 
Q 353 2603 747 3093 
Q 1141 3584 1784 3584 
Q 2172 3584 2450 3431 
Q 2728 3278 2906 2969 
L 2906 3500 
L 3481 3500 
L 3481 434 
z
" transform="scale(0.015625)"/>
      <path id="DejaVuSans-63" d="M 3122 3366 
L 3122 2828 
Q 2878 2963 2633 3030 
Q 2388 3097 2138 3097 
Q 1578 3097 1268 2742 
Q 959 2388 959 1747 
Q 959 1106 1268 751 
Q 1578 397 2138 397 
Q 2388 397 2633 464 
Q 2878 531 3122 666 
L 3122 134 
Q 2881 22 2623 -34 
Q 2366 -91 2075 -91 
Q 1284 -91 818 406 
Q 353 903 353 1747 
Q 353 2603 823 3093 
Q 1294 3584 2113 3584 
Q 2378 3584 2631 3529 
Q 2884 3475 3122 3366 
z
" transform="scale(0.015625)"/>
      <path id="DejaVuSans-75" d="M 544 1381 
L 544 3500 
L 1119 3500 
L 1119 1403 
Q 1119 906 1312 657 
Q 1506 409 1894 409 
Q 2359 409 2629 706 
Q 2900 1003 2900 1516 
L 2900 3500 
L 3475 3500 
L 3475 0 
L 2900 0 
L 2900 538 
Q 2691 219 2414 64 
Q 2138 -91 1772 -91 
Q 1169 -91 856 284 
Q 544 659 544 1381 
z
M 1991 3584 
L 1991 3584 
z
" transform="scale(0.015625)"/>
      <path id="DejaVuSans-76" d="M 191 3500 
L 800 3500 
L 1894 563 
L 2988 3500 
L 3597 3500 
L 2284 0 
L 1503 0 
L 191 3500 
z
" transform="scale(0.015625)"/>
     </defs>
     <use xlink:href="#DejaVuSans-6c"/>
     <use xlink:href="#DejaVuSans-65" x="27.783203"/>
     <use xlink:href="#DejaVuSans-61" x="89.306641"/>
     <use xlink:href="#DejaVuSans-72" x="150.585938"/>
     <use xlink:href="#DejaVuSans-6e" x="189.949219"/>
     <use xlink:href="#DejaVuSans-69" x="253.328125"/>
     <use xlink:href="#DejaVuSans-6e" x="281.111328"/>
     <use xlink:href="#DejaVuSans-67" x="344.490234"/>
     <use xlink:href="#DejaVuSans-20" x="407.966797"/>
     <use xlink:href="#DejaVuSans-63" x="439.753906"/>
     <use xlink:href="#DejaVuSans-75" x="494.734375"/>
     <use xlink:href="#DejaVuSans-72" x="558.113281"/>
     <use xlink:href="#DejaVuSans-76" x="599.226562"/>
     <use xlink:href="#DejaVuSans-65" x="658.40625"/>
    </g>
   </g>
   <g id="legend_1">
    <g id="patch_7">
     <path d="M 305.705938 302.584 
L 407.72 302.584 
Q 409.72 302.584 409.72 300.584 
L 409.72 257.549625 
Q 409.72 255.549625 407.72 255.549625 
L 305.705938 255.549625 
Q 303.705938 255.549625 303.705938 257.549625 
L 303.705938 300.584 
Q 303.705938 302.584 305.705938 302.584 
z
" style="fill: #ffffff; opacity: 0.8; stroke: #cccccc; stroke-linejoin: miter"/>
    </g>
    <g id="line2d_15">
     <path d="M 307.705938 263.648062 
L 317.705938 263.648062 
L 327.705938 263.648062 
" style="fill: none; stroke: #1f77b4; stroke-width: 1.5; stroke-linecap: square"/>
    </g>
    <g id="text_15">
     <!-- source-source -->
     <g transform="translate(335.705938 267.148062) scale(0.1 -0.1)">
      <defs>
       <path id="DejaVuSans-2d" d="M 313 2009 
L 1997 2009 
L 1997 1497 
L 313 1497 
L 313 2009 
z
" transform="scale(0.015625)"/>
      </defs>
      <use xlink:href="#DejaVuSans-73"/>
      <use xlink:href="#DejaVuSans-6f" x="52.099609"/>
      <use xlink:href="#DejaVuSans-75" x="113.28125"/>
      <use xlink:href="#DejaVuSans-72" x="176.660156"/>
      <use xlink:href="#DejaVuSans-63" x="215.523438"/>
      <use xlink:href="#DejaVuSans-65" x="270.503906"/>
      <use xlink:href="#DejaVuSans-2d" x="332.027344"/>
      <use xlink:href="#DejaVuSans-73" x="368.111328"/>
      <use xlink:href="#DejaVuSans-6f" x="420.210938"/>
      <use xlink:href="#DejaVuSans-75" x="481.392578"/>
      <use xlink:href="#DejaVuSans-72" x="544.771484"/>
      <use xlink:href="#DejaVuSans-63" x="583.634766"/>
      <use xlink:href="#DejaVuSans-65" x="638.615234"/>
     </g>
    </g>
    <g id="line2d_16">
     <path d="M 307.705938 278.326188 
L 317.705938 278.326188 
L 327.705938 278.326188 
" style="fill: none; stroke: #ff7f0e; stroke-width: 1.5; stroke-linecap: square"/>
    </g>
    <g id="text_16">
     <!-- source-target -->
     <g transform="translate(335.705938 281.826188) scale(0.1 -0.1)">
      <use xlink:href="#DejaVuSans-73"/>
      <use xlink:href="#DejaVuSans-6f" x="52.099609"/>
      <use xlink:href="#DejaVuSans-75" x="113.28125"/>
      <use xlink:href="#DejaVuSans-72" x="176.660156"/>
      <use xlink:href="#DejaVuSans-63" x="215.523438"/>
      <use xlink:href="#DejaVuSans-65" x="270.503906"/>
      <use xlink:href="#DejaVuSans-2d" x="332.027344"/>
      <use xlink:href="#DejaVuSans-74" x="368.111328"/>
      <use xlink:href="#DejaVuSans-61" x="407.320312"/>
      <use xlink:href="#DejaVuSans-72" x="468.599609"/>
      <use xlink:href="#DejaVuSans-67" x="507.962891"/>
      <use xlink:href="#DejaVuSans-65" x="571.439453"/>
      <use xlink:href="#DejaVuSans-74" x="632.962891"/>
     </g>
    </g>
    <g id="line2d_17">
     <path d="M 307.705938 293.004312 
L 317.705938 293.004312 
L 327.705938 293.004312 
" style="fill: none; stroke: #2ca02c; stroke-width: 1.5; stroke-linecap: square"/>
    </g>
    <g id="text_17">
     <!-- target-target -->
     <g transform="translate(335.705938 296.504312) scale(0.1 -0.1)">
      <use xlink:href="#DejaVuSans-74"/>
      <use xlink:href="#DejaVuSans-61" x="39.208984"/>
      <use xlink:href="#DejaVuSans-72" x="100.488281"/>
      <use xlink:href="#DejaVuSans-67" x="139.851562"/>
      <use xlink:href="#DejaVuSans-65" x="203.328125"/>
      <use xlink:href="#DejaVuSans-74" x="264.851562"/>
      <use xlink:href="#DejaVuSans-2d" x="304.060547"/>
      <use xlink:href="#DejaVuSans-74" x="340.144531"/>
      <use xlink:href="#DejaVuSans-61" x="379.353516"/>
      <use xlink:href="#DejaVuSans-72" x="440.632812"/>
      <use xlink:href="#DejaVuSans-67" x="479.996094"/>
      <use xlink:href="#DejaVuSans-65" x="543.472656"/>
      <use xlink:href="#DejaVuSans-74" x="604.996094"/>
     </g>
    </g>
   </g>
  </g>
 </g>
 <defs>
  <clipPath id="p395206adff">
   <rect x="57.6" y="41.472" width="357.12" height="266.112"/>
  </clipPath>
 </defs>
</svg>
