<?xml version="1.0" encoding="utf-8" standalone="no"?>
<!DOCTYPE svg PUBLIC "-//W3C//DTD SVG 1.1//EN"
  "http://www.w3.org/Graphics/SVG/1.1/DTD/svg11.dtd">
<svg xmlns:xlink="http://www.w3.org/1999/xlink" width="460.8pt" height="345.6pt" viewBox="0 0 460.8 345.6" xmlns="http://www.w3.org/2000/svg" version="1.1">
 <metadata>
  <rdf:RDF xmlns:dc="http://purl.org/dc/elements/1.1/" xmlns:cc="http://creativecommons.org/ns#" xmlns:rdf="http://www.w3.org/1999/02/22-rdf-syntax-ns#">
   <cc:Work>
    <dc:type rdf:resource="http://purl.org/dc/dcmitype/StillImage"/>
    <dc:date>2023-08-19T13:16:30.825992</dc:date>
    <dc:format>image/svg+xml</dc:format>
    <dc:creator>
     <cc:Agent>
      <dc:title>Matplotlib v3.7.1, https://matplotlib.org/</dc:title>
     </cc:Agent>
    </dc:creator>
   </cc:Work>
  </rdf:RDF>
 </metadata>
 <defs>
  <style type="text/css">*{stroke-linejoin: round; stroke-linecap: butt}</style>
 </defs>
 <g id="figure_1">
  <g id="patch_1">
   <path d="M 0 345.6 
L 460.8 345.6 
L 460.8 0 
L 0 0 
z
" style="fill: #ffffff"/>
  </g>
  <g id="axes_1">
   <g id="patch_2">
    <path d="M 57.6 307.584 
L 414.72 307.584 
L 414.72 41.472 
L 57.6 41.472 
z
" style="fill: #ffffff"/>
   </g>
   <g id="matplotlib.axis_1">
    <g id="xtick_1">
     <g id="line2d_1">
      <defs>
       <path id="m423e466a96" d="M 0 0 
L 0 3.5 
" style="stroke: #000000; stroke-width: 0.8"/>
      </defs>
      <g>
       <use xlink:href="#m423e466a96" x="67.071301" y="307.584" style="stroke: #000000; stroke-width: 0.8"/>
      </g>
     </g>
     <g id="text_1">
      <!-- 0 -->
      <g transform="translate(63.890051 322.182437) scale(0.1 -0.1)">
       <defs>
        <path id="DejaVuSans-30" d="M 2034 4250 
Q 1547 4250 1301 3770 
Q 1056 3291 1056 2328 
Q 1056 1369 1301 889 
Q 1547 409 2034 409 
Q 2525 409 2770 889 
Q 3016 1369 3016 2328 
Q 3016 3291 2770 3770 
Q 2525 4250 2034 4250 
z
M 2034 4750 
Q 2819 4750 3233 4129 
Q 3647 3509 3647 2328 
Q 3647 1150 3233 529 
Q 2819 -91 2034 -91 
Q 1250 -91 836 529 
Q 422 1150 422 2328 
Q 422 3509 836 4129 
Q 1250 4750 2034 4750 
z
" transform="scale(0.015625)"/>
       </defs>
       <use xlink:href="#DejaVuSans-30"/>
      </g>
     </g>
    </g>
    <g id="xtick_2">
     <g id="line2d_2">
      <g>
       <use xlink:href="#m423e466a96" x="133.359798" y="307.584" style="stroke: #000000; stroke-width: 0.8"/>
      </g>
     </g>
     <g id="text_2">
      <!-- 100000 -->
      <g transform="translate(114.272298 322.182437) scale(0.1 -0.1)">
       <defs>
        <path id="DejaVuSans-31" d="M 794 531 
L 1825 531 
L 1825 4091 
L 703 3866 
L 703 4441 
L 1819 4666 
L 2450 4666 
L 2450 531 
L 3481 531 
L 3481 0 
L 794 0 
L 794 531 
z
" transform="scale(0.015625)"/>
       </defs>
       <use xlink:href="#DejaVuSans-31"/>
       <use xlink:href="#DejaVuSans-30" x="63.623047"/>
       <use xlink:href="#DejaVuSans-30" x="127.246094"/>
       <use xlink:href="#DejaVuSans-30" x="190.869141"/>
       <use xlink:href="#DejaVuSans-30" x="254.492188"/>
       <use xlink:href="#DejaVuSans-30" x="318.115234"/>
      </g>
     </g>
    </g>
    <g id="xtick_3">
     <g id="line2d_3">
      <g>
       <use xlink:href="#m423e466a96" x="199.648296" y="307.584" style="stroke: #000000; stroke-width: 0.8"/>
      </g>
     </g>
     <g id="text_3">
      <!-- 200000 -->
      <g transform="translate(180.560796 322.182437) scale(0.1 -0.1)">
       <defs>
        <path id="DejaVuSans-32" d="M 1228 531 
L 3431 531 
L 3431 0 
L 469 0 
L 469 531 
Q 828 903 1448 1529 
Q 2069 2156 2228 2338 
Q 2531 2678 2651 2914 
Q 2772 3150 2772 3378 
Q 2772 3750 2511 3984 
Q 2250 4219 1831 4219 
Q 1534 4219 1204 4116 
Q 875 4013 500 3803 
L 500 4441 
Q 881 4594 1212 4672 
Q 1544 4750 1819 4750 
Q 2544 4750 2975 4387 
Q 3406 4025 3406 3419 
Q 3406 3131 3298 2873 
Q 3191 2616 2906 2266 
Q 2828 2175 2409 1742 
Q 1991 1309 1228 531 
z
" transform="scale(0.015625)"/>
       </defs>
       <use xlink:href="#DejaVuSans-32"/>
       <use xlink:href="#DejaVuSans-30" x="63.623047"/>
       <use xlink:href="#DejaVuSans-30" x="127.246094"/>
       <use xlink:href="#DejaVuSans-30" x="190.869141"/>
       <use xlink:href="#DejaVuSans-30" x="254.492188"/>
       <use xlink:href="#DejaVuSans-30" x="318.115234"/>
      </g>
     </g>
    </g>
    <g id="xtick_4">
     <g id="line2d_4">
      <g>
       <use xlink:href="#m423e466a96" x="265.936793" y="307.584" style="stroke: #000000; stroke-width: 0.8"/>
      </g>
     </g>
     <g id="text_4">
      <!-- 300000 -->
      <g transform="translate(246.849293 322.182437) scale(0.1 -0.1)">
       <defs>
        <path id="DejaVuSans-33" d="M 2597 2516 
Q 3050 2419 3304 2112 
Q 3559 1806 3559 1356 
Q 3559 666 3084 287 
Q 2609 -91 1734 -91 
Q 1441 -91 1130 -33 
Q 819 25 488 141 
L 488 750 
Q 750 597 1062 519 
Q 1375 441 1716 441 
Q 2309 441 2620 675 
Q 2931 909 2931 1356 
Q 2931 1769 2642 2001 
Q 2353 2234 1838 2234 
L 1294 2234 
L 1294 2753 
L 1863 2753 
Q 2328 2753 2575 2939 
Q 2822 3125 2822 3475 
Q 2822 3834 2567 4026 
Q 2313 4219 1838 4219 
Q 1578 4219 1281 4162 
Q 984 4106 628 3988 
L 628 4550 
Q 988 4650 1302 4700 
Q 1616 4750 1894 4750 
Q 2613 4750 3031 4423 
Q 3450 4097 3450 3541 
Q 3450 3153 3228 2886 
Q 3006 2619 2597 2516 
z
" transform="scale(0.015625)"/>
       </defs>
       <use xlink:href="#DejaVuSans-33"/>
       <use xlink:href="#DejaVuSans-30" x="63.623047"/>
       <use xlink:href="#DejaVuSans-30" x="127.246094"/>
       <use xlink:href="#DejaVuSans-30" x="190.869141"/>
       <use xlink:href="#DejaVuSans-30" x="254.492188"/>
       <use xlink:href="#DejaVuSans-30" x="318.115234"/>
      </g>
     </g>
    </g>
    <g id="xtick_5">
     <g id="line2d_5">
      <g>
       <use xlink:href="#m423e466a96" x="332.225291" y="307.584" style="stroke: #000000; stroke-width: 0.8"/>
      </g>
     </g>
     <g id="text_5">
      <!-- 400000 -->
      <g transform="translate(313.137791 322.182437) scale(0.1 -0.1)">
       <defs>
        <path id="DejaVuSans-34" d="M 2419 4116 
L 825 1625 
L 2419 1625 
L 2419 4116 
z
M 2253 4666 
L 3047 4666 
L 3047 1625 
L 3713 1625 
L 3713 1100 
L 3047 1100 
L 3047 0 
L 2419 0 
L 2419 1100 
L 313 1100 
L 313 1709 
L 2253 4666 
z
" transform="scale(0.015625)"/>
       </defs>
       <use xlink:href="#DejaVuSans-34"/>
       <use xlink:href="#DejaVuSans-30" x="63.623047"/>
       <use xlink:href="#DejaVuSans-30" x="127.246094"/>
       <use xlink:href="#DejaVuSans-30" x="190.869141"/>
       <use xlink:href="#DejaVuSans-30" x="254.492188"/>
       <use xlink:href="#DejaVuSans-30" x="318.115234"/>
      </g>
     </g>
    </g>
    <g id="xtick_6">
     <g id="line2d_6">
      <g>
       <use xlink:href="#m423e466a96" x="398.513788" y="307.584" style="stroke: #000000; stroke-width: 0.8"/>
      </g>
     </g>
     <g id="text_6">
      <!-- 500000 -->
      <g transform="translate(379.426288 322.182437) scale(0.1 -0.1)">
       <defs>
        <path id="DejaVuSans-35" d="M 691 4666 
L 3169 4666 
L 3169 4134 
L 1269 4134 
L 1269 2991 
Q 1406 3038 1543 3061 
Q 1681 3084 1819 3084 
Q 2600 3084 3056 2656 
Q 3513 2228 3513 1497 
Q 3513 744 3044 326 
Q 2575 -91 1722 -91 
Q 1428 -91 1123 -41 
Q 819 9 494 109 
L 494 744 
Q 775 591 1075 516 
Q 1375 441 1709 441 
Q 2250 441 2565 725 
Q 2881 1009 2881 1497 
Q 2881 1984 2565 2268 
Q 2250 2553 1709 2553 
Q 1456 2553 1204 2497 
Q 953 2441 691 2322 
L 691 4666 
z
" transform="scale(0.015625)"/>
       </defs>
       <use xlink:href="#DejaVuSans-35"/>
       <use xlink:href="#DejaVuSans-30" x="63.623047"/>
       <use xlink:href="#DejaVuSans-30" x="127.246094"/>
       <use xlink:href="#DejaVuSans-30" x="190.869141"/>
       <use xlink:href="#DejaVuSans-30" x="254.492188"/>
       <use xlink:href="#DejaVuSans-30" x="318.115234"/>
      </g>
     </g>
    </g>
    <g id="text_7">
     <!-- timesteps -->
     <g transform="translate(211.443594 335.860562) scale(0.1 -0.1)">
      <defs>
       <path id="DejaVuSans-74" d="M 1172 4494 
L 1172 3500 
L 2356 3500 
L 2356 3053 
L 1172 3053 
L 1172 1153 
Q 1172 725 1289 603 
Q 1406 481 1766 481 
L 2356 481 
L 2356 0 
L 1766 0 
Q 1100 0 847 248 
Q 594 497 594 1153 
L 594 3053 
L 172 3053 
L 172 3500 
L 594 3500 
L 594 4494 
L 1172 4494 
z
" transform="scale(0.015625)"/>
       <path id="DejaVuSans-69" d="M 603 3500 
L 1178 3500 
L 1178 0 
L 603 0 
L 603 3500 
z
M 603 4863 
L 1178 4863 
L 1178 4134 
L 603 4134 
L 603 4863 
z
" transform="scale(0.015625)"/>
       <path id="DejaVuSans-6d" d="M 3328 2828 
Q 3544 3216 3844 3400 
Q 4144 3584 4550 3584 
Q 5097 3584 5394 3201 
Q 5691 2819 5691 2113 
L 5691 0 
L 5113 0 
L 5113 2094 
Q 5113 2597 4934 2840 
Q 4756 3084 4391 3084 
Q 3944 3084 3684 2787 
Q 3425 2491 3425 1978 
L 3425 0 
L 2847 0 
L 2847 2094 
Q 2847 2600 2669 2842 
Q 2491 3084 2119 3084 
Q 1678 3084 1418 2786 
Q 1159 2488 1159 1978 
L 1159 0 
L 581 0 
L 581 3500 
L 1159 3500 
L 1159 2956 
Q 1356 3278 1631 3431 
Q 1906 3584 2284 3584 
Q 2666 3584 2933 3390 
Q 3200 3197 3328 2828 
z
" transform="scale(0.015625)"/>
       <path id="DejaVuSans-65" d="M 3597 1894 
L 3597 1613 
L 953 1613 
Q 991 1019 1311 708 
Q 1631 397 2203 397 
Q 2534 397 2845 478 
Q 3156 559 3463 722 
L 3463 178 
Q 3153 47 2828 -22 
Q 2503 -91 2169 -91 
Q 1331 -91 842 396 
Q 353 884 353 1716 
Q 353 2575 817 3079 
Q 1281 3584 2069 3584 
Q 2775 3584 3186 3129 
Q 3597 2675 3597 1894 
z
M 3022 2063 
Q 3016 2534 2758 2815 
Q 2500 3097 2075 3097 
Q 1594 3097 1305 2825 
Q 1016 2553 972 2059 
L 3022 2063 
z
" transform="scale(0.015625)"/>
       <path id="DejaVuSans-73" d="M 2834 3397 
L 2834 2853 
Q 2591 2978 2328 3040 
Q 2066 3103 1784 3103 
Q 1356 3103 1142 2972 
Q 928 2841 928 2578 
Q 928 2378 1081 2264 
Q 1234 2150 1697 2047 
L 1894 2003 
Q 2506 1872 2764 1633 
Q 3022 1394 3022 966 
Q 3022 478 2636 193 
Q 2250 -91 1575 -91 
Q 1294 -91 989 -36 
Q 684 19 347 128 
L 347 722 
Q 666 556 975 473 
Q 1284 391 1588 391 
Q 1994 391 2212 530 
Q 2431 669 2431 922 
Q 2431 1156 2273 1281 
Q 2116 1406 1581 1522 
L 1381 1569 
Q 847 1681 609 1914 
Q 372 2147 372 2553 
Q 372 3047 722 3315 
Q 1072 3584 1716 3584 
Q 2034 3584 2315 3537 
Q 2597 3491 2834 3397 
z
" transform="scale(0.015625)"/>
       <path id="DejaVuSans-70" d="M 1159 525 
L 1159 -1331 
L 581 -1331 
L 581 3500 
L 1159 3500 
L 1159 2969 
Q 1341 3281 1617 3432 
Q 1894 3584 2278 3584 
Q 2916 3584 3314 3078 
Q 3713 2572 3713 1747 
Q 3713 922 3314 415 
Q 2916 -91 2278 -91 
Q 1894 -91 1617 61 
Q 1341 213 1159 525 
z
M 3116 1747 
Q 3116 2381 2855 2742 
Q 2594 3103 2138 3103 
Q 1681 3103 1420 2742 
Q 1159 2381 1159 1747 
Q 1159 1113 1420 752 
Q 1681 391 2138 391 
Q 2594 391 2855 752 
Q 3116 1113 3116 1747 
z
" transform="scale(0.015625)"/>
      </defs>
      <use xlink:href="#DejaVuSans-74"/>
      <use xlink:href="#DejaVuSans-69" x="39.208984"/>
      <use xlink:href="#DejaVuSans-6d" x="66.992188"/>
      <use xlink:href="#DejaVuSans-65" x="164.404297"/>
      <use xlink:href="#DejaVuSans-73" x="225.927734"/>
      <use xlink:href="#DejaVuSans-74" x="278.027344"/>
      <use xlink:href="#DejaVuSans-65" x="317.236328"/>
      <use xlink:href="#DejaVuSans-70" x="378.759766"/>
      <use xlink:href="#DejaVuSans-73" x="442.236328"/>
     </g>
    </g>
   </g>
   <g id="matplotlib.axis_2">
    <g id="ytick_1">
     <g id="line2d_7">
      <defs>
       <path id="m673f7ab938" d="M 0 0 
L -3.5 0 
" style="stroke: #000000; stroke-width: 0.8"/>
      </defs>
      <g>
       <use xlink:href="#m673f7ab938" x="57.6" y="282.749749" style="stroke: #000000; stroke-width: 0.8"/>
      </g>
     </g>
     <g id="text_8">
      <!-- −100 -->
      <g transform="translate(23.132812 286.548968) scale(0.1 -0.1)">
       <defs>
        <path id="DejaVuSans-2212" d="M 678 2272 
L 4684 2272 
L 4684 1741 
L 678 1741 
L 678 2272 
z
" transform="scale(0.015625)"/>
       </defs>
       <use xlink:href="#DejaVuSans-2212"/>
       <use xlink:href="#DejaVuSans-31" x="83.789062"/>
       <use xlink:href="#DejaVuSans-30" x="147.412109"/>
       <use xlink:href="#DejaVuSans-30" x="211.035156"/>
      </g>
     </g>
    </g>
    <g id="ytick_2">
     <g id="line2d_8">
      <g>
       <use xlink:href="#m673f7ab938" x="57.6" y="226.841807" style="stroke: #000000; stroke-width: 0.8"/>
      </g>
     </g>
     <g id="text_9">
      <!-- 0 -->
      <g transform="translate(44.2375 230.641026) scale(0.1 -0.1)">
       <use xlink:href="#DejaVuSans-30"/>
      </g>
     </g>
    </g>
    <g id="ytick_3">
     <g id="line2d_9">
      <g>
       <use xlink:href="#m673f7ab938" x="57.6" y="170.933866" style="stroke: #000000; stroke-width: 0.8"/>
      </g>
     </g>
     <g id="text_10">
      <!-- 100 -->
      <g transform="translate(31.5125 174.733084) scale(0.1 -0.1)">
       <use xlink:href="#DejaVuSans-31"/>
       <use xlink:href="#DejaVuSans-30" x="63.623047"/>
       <use xlink:href="#DejaVuSans-30" x="127.246094"/>
      </g>
     </g>
    </g>
    <g id="ytick_4">
     <g id="line2d_10">
      <g>
       <use xlink:href="#m673f7ab938" x="57.6" y="115.025924" style="stroke: #000000; stroke-width: 0.8"/>
      </g>
     </g>
     <g id="text_11">
      <!-- 200 -->
      <g transform="translate(31.5125 118.825143) scale(0.1 -0.1)">
       <use xlink:href="#DejaVuSans-32"/>
       <use xlink:href="#DejaVuSans-30" x="63.623047"/>
       <use xlink:href="#DejaVuSans-30" x="127.246094"/>
      </g>
     </g>
    </g>
    <g id="ytick_5">
     <g id="line2d_11">
      <g>
       <use xlink:href="#m673f7ab938" x="57.6" y="59.117982" style="stroke: #000000; stroke-width: 0.8"/>
      </g>
     </g>
     <g id="text_12">
      <!-- 300 -->
      <g transform="translate(31.5125 62.917201) scale(0.1 -0.1)">
       <use xlink:href="#DejaVuSans-33"/>
       <use xlink:href="#DejaVuSans-30" x="63.623047"/>
       <use xlink:href="#DejaVuSans-30" x="127.246094"/>
      </g>
     </g>
    </g>
    <g id="text_13">
     <!-- SAC losses -->
     <g transform="translate(17.053125 201.548313) rotate(-90) scale(0.1 -0.1)">
      <defs>
       <path id="DejaVuSans-53" d="M 3425 4513 
L 3425 3897 
Q 3066 4069 2747 4153 
Q 2428 4238 2131 4238 
Q 1616 4238 1336 4038 
Q 1056 3838 1056 3469 
Q 1056 3159 1242 3001 
Q 1428 2844 1947 2747 
L 2328 2669 
Q 3034 2534 3370 2195 
Q 3706 1856 3706 1288 
Q 3706 609 3251 259 
Q 2797 -91 1919 -91 
Q 1588 -91 1214 -16 
Q 841 59 441 206 
L 441 856 
Q 825 641 1194 531 
Q 1563 422 1919 422 
Q 2459 422 2753 634 
Q 3047 847 3047 1241 
Q 3047 1584 2836 1778 
Q 2625 1972 2144 2069 
L 1759 2144 
Q 1053 2284 737 2584 
Q 422 2884 422 3419 
Q 422 4038 858 4394 
Q 1294 4750 2059 4750 
Q 2388 4750 2728 4690 
Q 3069 4631 3425 4513 
z
" transform="scale(0.015625)"/>
       <path id="DejaVuSans-41" d="M 2188 4044 
L 1331 1722 
L 3047 1722 
L 2188 4044 
z
M 1831 4666 
L 2547 4666 
L 4325 0 
L 3669 0 
L 3244 1197 
L 1141 1197 
L 716 0 
L 50 0 
L 1831 4666 
z
" transform="scale(0.015625)"/>
       <path id="DejaVuSans-43" d="M 4122 4306 
L 4122 3641 
Q 3803 3938 3442 4084 
Q 3081 4231 2675 4231 
Q 1875 4231 1450 3742 
Q 1025 3253 1025 2328 
Q 1025 1406 1450 917 
Q 1875 428 2675 428 
Q 3081 428 3442 575 
Q 3803 722 4122 1019 
L 4122 359 
Q 3791 134 3420 21 
Q 3050 -91 2638 -91 
Q 1578 -91 968 557 
Q 359 1206 359 2328 
Q 359 3453 968 4101 
Q 1578 4750 2638 4750 
Q 3056 4750 3426 4639 
Q 3797 4528 4122 4306 
z
" transform="scale(0.015625)"/>
       <path id="DejaVuSans-20" transform="scale(0.015625)"/>
       <path id="DejaVuSans-6c" d="M 603 4863 
L 1178 4863 
L 1178 0 
L 603 0 
L 603 4863 
z
" transform="scale(0.015625)"/>
       <path id="DejaVuSans-6f" d="M 1959 3097 
Q 1497 3097 1228 2736 
Q 959 2375 959 1747 
Q 959 1119 1226 758 
Q 1494 397 1959 397 
Q 2419 397 2687 759 
Q 2956 1122 2956 1747 
Q 2956 2369 2687 2733 
Q 2419 3097 1959 3097 
z
M 1959 3584 
Q 2709 3584 3137 3096 
Q 3566 2609 3566 1747 
Q 3566 888 3137 398 
Q 2709 -91 1959 -91 
Q 1206 -91 779 398 
Q 353 888 353 1747 
Q 353 2609 779 3096 
Q 1206 3584 1959 3584 
z
" transform="scale(0.015625)"/>
      </defs>
      <use xlink:href="#DejaVuSans-53"/>
      <use xlink:href="#DejaVuSans-41" x="65.351562"/>
      <use xlink:href="#DejaVuSans-43" x="132.009766"/>
      <use xlink:href="#DejaVuSans-20" x="201.833984"/>
      <use xlink:href="#DejaVuSans-6c" x="233.621094"/>
      <use xlink:href="#DejaVuSans-6f" x="261.404297"/>
      <use xlink:href="#DejaVuSans-73" x="322.585938"/>
      <use xlink:href="#DejaVuSans-73" x="374.685547"/>
      <use xlink:href="#DejaVuSans-65" x="426.785156"/>
      <use xlink:href="#DejaVuSans-73" x="488.308594"/>
     </g>
    </g>
   </g>
   <g id="line2d_12">
    <path d="M 73.832727 227.954052 
L 74.33652 228.136752 
L 81.681285 230.817392 
L 81.906666 230.74177 
L 82.211593 231.101898 
L 82.715386 231.126865 
L 82.874478 231.230931 
L 83.033571 231.166433 
L 83.113117 231.388508 
L 83.365013 231.401404 
L 83.643425 231.595544 
L 84.531691 231.882711 
L 84.677525 231.797604 
L 84.902906 232.122396 
L 85.366926 232.179928 
L 85.419957 232.285479 
L 85.565791 232.211148 
L 85.645338 232.446442 
L 85.791172 232.470698 
L 85.963522 232.361176 
L 86.520346 232.683476 
L 86.918077 232.737485 
L 87.143458 232.930455 
L 87.276035 232.878766 
L 87.554446 232.975022 
L 87.687023 232.886519 
L 88.535516 233.454608 
L 88.97302 233.580903 
L 89.582874 233.931585 
L 89.794997 233.757125 
L 89.980605 234.065002 
L 90.086667 233.862623 
L 90.219244 234.186911 
L 90.365079 234.102995 
L 90.64349 234.260664 
L 90.802583 234.56387 
L 91.226829 234.455557 
L 91.359406 234.535672 
L 91.571529 234.447974 
L 91.956002 234.840069 
L 92.353733 234.900092 
L 92.645403 235.356497 
L 92.817753 235.14197 
L 93.732534 235.785055 
L 94.382162 235.939324 
L 94.514738 235.728703 
L 95.13785 236.517457 
L 95.336716 236.412907 
L 95.853766 236.93693 
L 96.012859 236.982255 
L 96.224982 236.812224 
L 96.41059 237.083603 
L 96.861351 237.148111 
L 97.060217 237.372207 
L 97.27234 237.288002 
L 97.510979 237.361293 
L 97.762875 237.803775 
L 97.974998 237.835251 
L 98.147348 237.66721 
L 98.412502 238.119671 
L 98.545079 237.635215 
L 98.850006 238.174663 
L 98.982583 238.147319 
L 99.645468 238.868672 
L 99.844334 238.552713 
L 100.215549 238.917303 
L 100.454188 239.114456 
L 100.600023 238.838541 
L 100.997754 239.223368 
L 101.196619 238.987249 
L 101.461773 239.346607 
L 101.607608 239.341458 
L 102.045112 240.017869 
L 102.257235 239.713257 
L 102.482616 240.55803 
L 102.654966 239.97477 
L 102.867089 240.813619 
L 102.999666 240.445844 
L 103.211789 240.273416 
L 103.357624 240.863868 
L 103.569747 240.69736 
L 103.927705 240.790366 
L 104.139828 240.667312 
L 104.325436 240.414072 
L 104.696652 241.244429 
L 105.05461 241.015749 
L 105.200444 241.24796 
L 105.372794 241.279532 
L 105.704237 241.644407 
L 105.863329 241.770174 
L 106.022422 241.298053 
L 106.420153 241.566923 
L 106.579245 242.286995 
L 106.711822 241.701493 
L 106.950461 241.660044 
L 107.06978 242.267127 
L 107.228872 241.654248 
L 107.401222 242.466463 
L 107.58683 242.278757 
L 107.745923 242.329459 
L 108.143654 242.779318 
L 108.302746 242.288157 
L 108.461838 242.927532 
L 108.620931 242.947669 
L 108.780023 242.679607 
L 108.952373 243.018193 
L 109.08495 243.562083 
L 109.283816 243.206917 
L 109.456166 243.239403 
L 109.641774 242.776865 
L 110.158824 243.35636 
L 110.331174 243.027895 
L 110.503524 243.787448 
L 110.821709 243.675793 
L 111.192924 244.266958 
L 111.577398 244.010711 
L 111.73649 243.60246 
L 111.869067 244.207472 
L 112.120963 244.159867 
L 112.452406 244.621659 
L 112.584983 244.092763 
L 112.770591 244.852886 
L 112.88991 244.464183 
L 113.102033 245.007392 
L 113.446733 244.103591 
L 113.552795 245.264434 
L 113.778176 244.909853 
L 114.268711 245.76866 
L 114.467576 245.148376 
L 114.613411 246.113482 
L 114.958111 245.284883 
L 115.183492 245.937642 
L 115.382358 245.474515 
L 115.554708 245.622085 
L 115.780089 245.345778 
L 116.429716 245.551014 
L 116.615324 245.46219 
L 117.172147 246.571356 
L 117.437301 246.639089 
L 117.636166 246.547405 
L 117.874805 247.006036 
L 118.285794 246.315427 
L 118.696782 247.486904 
L 119.05474 246.935618 
L 119.293379 247.297685 
L 119.492244 246.909637 
L 119.744141 247.058974 
L 120.009295 247.529878 
L 120.234676 247.110319 
L 120.486572 247.555125 
L 120.751726 247.320019 
L 121.003622 248.217138 
L 121.573703 247.622323 
L 121.918403 248.121669 
L 122.1703 247.887699 
L 122.727123 248.287996 
L 123.390008 248.722827 
L 123.66842 248.341478 
L 124.01312 248.618529 
L 124.291532 249.223272 
L 124.954417 249.210139 
L 125.312374 248.874946 
L 125.617302 249.375742 
L 126.20064 249.393657 
L 126.558598 249.242733 
L 126.956329 249.697729 
L 127.393833 249.820779 
L 127.738533 250.209691 
L 128.255584 250.13708 
L 128.732861 250.900811 
L 129.223396 250.792503 
L 129.621127 251.066399 
L 130.403331 250.952446 
L 130.681743 251.173488 
L 131.397659 250.933764 
L 132.882521 252.034929 
L 133.439344 252.155796 
L 133.996168 251.357153 
L 134.698826 252.492165 
L 135.149587 252.644302 
L 135.958307 253.592711 
L 136.448842 253.591792 
L 137.071954 253.918552 
L 137.602262 253.652534 
L 138.212116 253.695645 
L 138.82197 253.957261 
L 139.378794 254.490304 
L 140.691306 255.083175 
L 141.261387 254.701936 
L 141.831468 255.113971 
L 142.520868 255.07494 
L 143.011403 255.43907 
L 143.767092 256.195051 
L 144.178081 255.926113 
L 144.947027 256.937507 
L 145.358016 256.694874 
L 146.206509 256.526243 
L 146.537951 256.985378 
L 147.333413 257.809896 
L 147.770917 257.572326 
L 148.592895 257.554753 
L 148.897822 258.146177 
L 149.733057 258.347237 
L 150.064499 258.169423 
L 150.873219 258.615398 
L 151.178146 258.639829 
L 152.013381 259.261273 
L 153.180059 259.093643 
L 153.538017 259.535647 
L 154.757725 260.33424 
L 155.341064 260.311709 
L 155.791826 260.642895 
L 156.467968 260.883581 
L 156.998276 260.915386 
L 157.674419 261.570687 
L 158.814581 262.121338 
L 159.477466 261.965652 
L 159.968001 261.989707 
L 160.37899 262.815803 
L 161.147936 262.802682 
L 161.598698 263.289279 
L 162.208552 262.704953 
L 162.672572 263.67862 
L 163.441518 263.914255 
L 163.905538 263.676978 
L 164.555165 263.889017 
L 165.098731 264.367368 
L 165.629039 264.994038 
L 166.013512 265.133944 
L 166.795716 265.081932 
L 167.219963 264.834464 
L 167.816559 265.880584 
L 168.148002 265.046895 
L 168.877175 265.374605 
L 169.168844 265.778017 
L 169.977564 266.175816 
L 170.388553 265.932844 
L 171.170757 266.588232 
L 171.661292 267.395266 
L 172.350692 266.884105 
L 172.894258 267.457064 
L 173.557143 267.838893 
L 173.915101 267.543848 
L 174.816624 268.45312 
L 175.18784 267.957596 
L 175.970044 267.727949 
L 176.447321 268.30656 
L 177.20301 268.002169 
L 177.706803 268.461578 
L 178.422719 269.273052 
L 179.655685 269.788889 
L 180.132962 269.53916 
L 180.742816 269.381437 
L 181.35267 269.79881 
L 182.055328 270.923969 
L 182.585636 270.098888 
L 183.235264 270.966563 
L 183.725798 271.402376 
L 184.362168 270.552014 
L 184.945507 271.752278 
L 185.581876 272.217573 
L 186.191731 271.243637 
L 187.46447 272.708141 
L 187.835685 272.46223 
L 188.644405 272.892485 
L 189.042136 274.002437 
L 189.864113 273.136877 
L 190.248587 273.741853 
L 191.136852 273.465461 
L 191.481553 274.130409 
L 192.409592 274.335465 
L 192.741034 273.417535 
L 193.602785 274.484159 
L 194.053546 274.226129 
L 195.339543 275.91311 
L 196.10849 275.073326 
L 196.612282 275.231749 
L 197.367971 275.590937 
L 197.818733 274.915535 
L 198.614195 275.273614 
L 199.144503 276.718497 
L 199.820646 276.577563 
L 200.403984 275.418733 
L 201.080127 276.948686 
L 201.530889 275.806905 
L 202.326351 277.482957 
L 202.79037 276.017818 
L 203.585832 277.199766 
L 204.102883 277.616363 
L 204.885087 277.408769 
L 205.362364 276.903574 
L 206.131311 277.807685 
L 206.635103 278.8509 
L 207.443823 278.169232 
L 207.854812 279.341553 
L 208.676789 279.073616 
L 209.114293 279.502173 
L 209.923013 278.046848 
L 211.129463 279.229253 
L 211.633256 279.265484 
L 212.866222 278.727672 
L 213.661684 279.594306 
L 214.125703 280.295412 
L 214.89465 279.905231 
L 215.371927 281.78335 
L 216.127616 280.816124 
L 216.578378 280.609455 
L 217.426871 280.910902 
L 217.824602 281.587289 
L 218.40794 280.06167 
L 219.070825 279.904062 
L 219.693937 280.514881 
L 220.264018 279.951869 
L 221.019707 280.474522 
L 221.510242 282.274374 
L 222.318962 281.238001 
L 222.769724 282.026326 
L 223.591701 281.243452 
L 224.029205 281.78402 
L 224.625801 282.046754 
L 225.288686 282.141079 
L 225.885283 283.11696 
L 226.508395 282.812954 
L 227.17128 282.893895 
L 227.767876 284.138801 
L 228.390988 283.445599 
L 229.000842 281.416437 
L 229.623954 285.316625 
L 230.233808 282.60948 
L 230.777374 282.342152 
L 231.281167 283.358491 
L 231.970567 284.075993 
L 232.580421 282.589889 
L 233.256564 284.067112 
L 233.839903 284.471945 
L 234.409984 283.222999 
L 235.695981 284.339102 
L 236.292577 283.25162 
L 236.955462 283.902714 
L 237.565316 282.407328 
L 238.254717 284.864079 
L 238.864571 285.178429 
L 239.474425 284.547055 
L 240.150568 285.495906 
L 240.733906 285.196498 
L 241.370276 286.228507 
L 242.046419 285.421542 
L 242.6165 283.162839 
L 243.319158 286.492909 
L 243.875981 283.612668 
L 244.618412 285.508762 
L 245.188493 284.760391 
L 245.758574 286.419296 
L 246.341913 286.160154 
L 247.004798 286.294865 
L 247.574879 287.212847 
L 248.224507 285.390293 
L 248.807845 285.615547 
L 249.497246 286.356799 
L 250.014296 286.398041 
L 250.677181 286.905036 
L 251.326808 286.445537 
L 251.936662 286.428578 
L 252.612805 286.117883 
L 253.182886 285.645648 
L 253.91206 287.043564 
L 254.402595 286.726646 
L 255.184799 287.197845 
L 255.688591 287.951143 
L 256.44428 286.727269 
L 256.974588 288.934966 
L 257.690504 285.754447 
L 258.181039 287.350002 
L 258.817408 286.215903 
L 259.427263 288.086579 
L 260.07689 287.101681 
L 260.620456 288.540558 
L 261.190537 287.096046 
L 261.866679 286.952344 
L 262.423503 288.282934 
L 263.152676 289.28991 
L 263.76253 287.393548 
L 264.22655 287.095777 
L 264.955723 288.050886 
L 265.751185 285.935485 
L 266.188689 289.901386 
L 266.811801 288.888259 
L 267.39514 287.514127 
L 268.20386 287.313456 
L 269.503114 287.848849 
L 269.821299 287.296509 
L 270.775853 286.581114 
L 271.067523 288.391054 
L 272.035335 287.902525 
L 272.366777 287.459662 
L 273.334589 289.428908 
L 273.692547 288.194204 
L 274.620586 288.796493 
L 275.00506 289.684796 
L 275.827037 288.203332 
L 276.304314 289.156922 
L 277.073261 290.294796 
L 277.550538 288.934881 
L 278.319484 288.355826 
L 278.955854 290.350856 
L 279.685027 288.982235 
L 280.294882 289.201999 
L 281.037313 290.041941 
L 281.448302 289.40169 
L 282.283537 288.780907 
L 282.734298 288.981732 
L 283.52976 288.46808 
L 284.020295 290.216329 
L 284.85553 289.215973 
L 285.173715 288.581455 
L 286.128269 289.690528 
L 286.47297 288.14574 
L 287.308205 288.837825 
L 287.772224 289.42033 
L 288.594202 288.159258 
L 289.00519 289.923882 
L 289.800652 289.818837 
L 290.277929 288.50408 
L 291.046876 291.49898 
L 291.457865 288.367492 
L 292.2931 292.92483 
L 292.664315 290.432237 
L 293.579097 288.088938 
L 293.937054 289.425389 
L 294.785547 289.900695 
L 295.196536 289.123626 
L 295.991998 289.759586 
L 296.469275 292.113395 
L 297.264737 289.300347 
L 297.755272 289.222405 
L 299.001496 290.750302 
L 299.770442 290.358334 
L 300.260977 289.710968 
L 301.003408 287.579265 
L 301.480685 291.785788 
L 302.196601 290.99324 
L 302.726909 291.28494 
L 303.456083 289.662982 
L 303.867071 290.779584 
L 304.689049 288.40304 
L 305.153068 289.201722 
L 305.922015 290.78553 
L 306.372777 288.192532 
L 307.181496 289.335124 
L 307.658773 290.570215 
L 308.401205 291.371588 
L 308.931513 288.804597 
L 309.647428 293.622763 
L 310.217509 290.255277 
L 310.946683 288.867559 
L 311.450475 291.541758 
L 312.153134 290.396765 
L 312.603895 291.863564 
L 313.425873 291.51846 
L 313.889892 291.137433 
L 314.645581 291.785131 
L 315.149374 288.973124 
L 315.878547 291.309629 
L 316.408855 289.233188 
L 317.07174 291.663148 
L 317.721367 289.266501 
L 318.384252 291.228965 
L 319.643734 287.484555 
L 320.293361 291.412921 
L 320.969504 290.274019 
L 321.619131 292.319352 
L 322.189212 290.690901 
L 322.944901 291.746009 
L 323.475209 291.42744 
L 324.111579 290.159407 
L 324.708175 292.429425 
L 325.463864 290.556476 
L 326.020687 290.205021 
L 326.657057 292.394039 
L 327.240396 289.924505 
L 327.956311 291.115193 
L 328.53965 291.022642 
L 329.215793 291.365996 
L 329.785874 288.83814 
L 330.515047 291.505937 
L 331.111644 292.327567 
L 331.907106 289.789521 
L 332.410898 290.531707 
L 333.232876 291.540551 
L 333.763184 290.13805 
L 334.492357 292.800928 
L 335.102211 294.013669 
L 335.751839 293.080869 
L 336.441239 289.941937 
L 337.077609 290.930235 
L 337.806782 292.721574 
L 338.429894 288.976643 
L 339.106037 292.803351 
L 339.755664 289.677263 
L 340.35226 292.256279 
L 341.107949 294.99123 
L 341.67803 291.137105 
L 342.354173 292.814083 
L 342.937512 291.096732 
L 343.653428 290.083793 
L 344.183736 290.996656 
L 344.952682 293.603146 
L 345.602309 291.186221 
L 346.384514 288.882215 
L 346.994368 288.630175 
L 347.763314 295.488 
L 348.492488 289.312875 
L 349.102342 290.158694 
L 349.685681 290.352644 
L 350.414854 293.256076 
L 351.117512 290.642105 
L 351.661078 291.293028 
L 352.443282 289.426472 
L 353.000106 291.340732 
L 353.689506 289.730397 
L 354.392164 293.366602 
L 355.028534 291.82297 
L 355.638388 293.627263 
L 356.341046 288.871424 
L 356.964158 290.79006 
L 357.693331 291.757525 
L 358.316443 289.643574 
L 359.032359 291.951304 
L 359.60244 291.018969 
L 360.331614 291.42657 
L 360.967983 289.202797 
L 361.710414 289.596893 
L 362.373299 291.860224 
L 363.036184 289.33311 
L 364.335439 290.90387 
L 365.144158 288.427148 
L 365.621436 290.824448 
L 366.443413 291.745889 
L 366.907433 289.516925 
L 367.716152 291.862583 
L 368.113883 291.920047 
L 369.386622 293.378681 
L 370.367692 290.587511 
L 370.685877 292.102701 
L 371.627174 290.755075 
L 371.985131 286.98555 
L 372.833624 290.690458 
L 373.231355 287.812345 
L 374.225683 290.524097 
L 374.543867 288.368409 
L 375.803349 292.805646 
L 376.691615 288.470417 
L 378.030642 289.058877 
L 378.468146 291.725005 
L 379.316639 290.999305 
L 379.727628 290.150505 
L 380.536348 288.844121 
L 381.000367 288.554165 
L 381.84886 291.30384 
L 383.17463 289.956141 
L 383.559103 291.621535 
L 384.38108 291.395023 
L 384.858358 290.110384 
L 385.574273 292.006814 
L 386.104581 290.189465 
L 386.820497 288.28548 
L 387.350805 293.308229 
L 388.079979 291.329638 
L 388.623544 287.92816 
L 389.312945 289.822207 
L 389.896283 289.594565 
L 390.612199 290.761341 
L 391.155765 290.408158 
L 391.845165 289.422676 
L 392.415246 291.095401 
L 393.104647 287.562988 
L 393.634955 290.342402 
L 394.258067 291.230053 
L 394.881178 288.750725 
L 395.477775 292.545872 
L 396.087629 291.237112 
L 396.684226 290.387467 
L 397.254307 290.642199 
L 397.850903 289.837345 
L 398.487273 288.520775 
L 398.487273 288.520775 
" clip-path="url(#p210dc512f1)" style="fill: none; stroke: #1f77b4; stroke-width: 1.5; stroke-linecap: square"/>
   </g>
   <g id="line2d_13">
    <path d="M 73.832727 222.812416 
L 73.965304 223.179725 
L 74.04485 223.019791 
L 74.124397 223.167939 
L 74.270231 223.126134 
L 74.495612 223.773917 
L 74.588416 223.678894 
L 74.999405 224.227853 
L 75.463424 224.390394 
L 75.569486 224.58437 
L 75.702063 224.582569 
L 76.590329 225.247693 
L 76.709648 225.168753 
L 77.080864 225.272341 
L 77.213441 225.099145 
L 77.452079 225.271857 
L 77.624429 225.21886 
L 77.770264 225.338238 
L 77.955872 225.04756 
L 78.221026 225.290331 
L 78.353603 225.446416 
L 78.48618 225.172405 
L 78.910426 225.301228 
L 79.043003 224.960629 
L 79.308157 225.48412 
L 79.6396 225.076916 
L 79.772177 224.933055 
L 79.904754 224.326151 
L 80.050588 225.174173 
L 80.143392 225.110625 
L 80.421804 224.771313 
L 80.554381 225.093241 
L 80.726731 225.179406 
L 80.832793 224.750046 
L 80.96537 225.182021 
L 81.150977 225.014451 
L 81.217266 224.654997 
L 81.416131 224.418743 
L 81.681285 225.143197 
L 81.787347 224.973115 
L 81.906666 224.325378 
L 82.065759 224.420008 
L 82.211593 224.098363 
L 82.304397 224.989158 
L 82.423717 224.593259 
L 82.715386 225.099988 
L 83.113117 224.075885 
L 83.365013 224.786239 
L 83.643425 223.748741 
L 83.709713 224.203396 
L 83.855548 223.643085 
L 84.01464 223.677833 
L 84.107444 224.509646 
L 84.200248 223.942116 
L 84.425629 224.466781 
L 84.531691 223.52244 
L 84.677525 224.336068 
L 84.796845 223.492958 
L 84.902906 223.894827 
L 85.008968 223.753262 
L 85.11503 224.991163 
L 85.234349 223.964507 
L 85.366926 224.090223 
L 85.419957 223.331554 
L 85.565791 224.092602 
L 85.645338 223.999811 
L 85.791172 223.652291 
L 85.963522 224.872966 
L 86.202161 222.61369 
L 86.32148 224.037066 
L 86.520346 223.063295 
L 86.639665 223.482656 
L 86.758984 222.654776 
L 86.997623 225.16281 
L 87.143458 224.254084 
L 87.276035 224.238965 
L 87.435127 222.569751 
L 87.687023 223.6862 
L 87.872631 223.041616 
L 87.965435 224.82001 
L 88.071497 224.29603 
L 88.217331 221.833799 
L 88.535516 224.720313 
L 88.853701 223.501453 
L 88.97302 220.266409 
L 89.14537 223.760984 
L 89.238174 222.267847 
L 89.582874 224.79832 
L 89.980605 221.796888 
L 90.086667 223.727213 
L 90.219244 221.725822 
L 90.365079 224.206815 
L 90.537429 220.39705 
L 90.802583 224.108471 
L 91.014706 224.384415 
L 91.359406 221.665665 
L 91.571529 221.869098 
L 91.730622 223.07703 
L 91.956002 221.958454 
L 92.115095 222.262031 
L 92.353733 222.239746 
L 92.645403 221.767273 
L 92.817753 222.060773 
L 93.043134 221.45744 
L 93.255257 221.736983 
L 93.507153 221.675659 
L 93.732534 223.732243 
L 94.130265 219.025428 
L 94.514738 222.609361 
L 94.766635 222.342847 
L 94.912469 222.402123 
L 95.13785 219.211382 
L 95.336716 222.950372 
L 95.562097 224.673627 
L 95.853766 222.615555 
L 96.012859 218.536027 
L 96.224982 221.157027 
L 96.41059 218.071187 
L 96.63597 222.45731 
L 96.861351 218.852198 
L 97.060217 221.075302 
L 97.27234 219.1408 
L 97.510979 221.290621 
L 97.762875 221.880428 
L 97.974998 217.243191 
L 98.147348 222.506026 
L 98.412502 222.125651 
L 98.545079 221.549573 
L 98.850006 218.728329 
L 98.982583 220.600981 
L 99.446603 214.806765 
L 99.645468 215.714356 
L 99.844334 220.146548 
L 100.043199 213.343248 
L 100.215549 218.59274 
L 100.454188 218.274938 
L 100.600023 220.376357 
L 100.825403 216.310091 
L 100.997754 217.099932 
L 101.196619 221.03158 
L 101.461773 217.118406 
L 101.607608 217.078615 
L 101.819731 219.272085 
L 102.045112 218.425305 
L 102.257235 221.239021 
L 102.482616 217.564274 
L 102.654966 219.6539 
L 102.867089 218.122133 
L 102.999666 223.004623 
L 103.211789 224.121219 
L 103.357624 212.467043 
L 103.569747 214.698194 
L 103.755355 215.155172 
L 103.927705 220.022336 
L 104.139828 218.42902 
L 104.325436 221.421759 
L 104.497786 219.504464 
L 104.696652 220.386429 
L 104.842486 208.421017 
L 105.05461 212.162008 
L 105.200444 209.586385 
L 105.372794 218.328167 
L 105.531887 212.680762 
L 105.704237 221.112288 
L 105.863329 215.30854 
L 106.022422 215.400963 
L 106.420153 215.755074 
L 106.579245 210.706751 
L 106.711822 214.758698 
L 106.950461 213.270985 
L 107.06978 214.630824 
L 107.228872 214.022012 
L 107.58683 220.891757 
L 107.745923 214.018855 
L 107.944788 217.975515 
L 108.143654 218.116275 
L 108.302746 212.979908 
L 108.461838 215.995187 
L 108.620931 213.97307 
L 108.780023 213.713643 
L 109.08495 221.20134 
L 109.456166 213.242115 
L 109.641774 214.148608 
L 109.774351 211.532435 
L 109.999732 217.729701 
L 110.158824 217.093413 
L 110.331174 217.901803 
L 110.503524 217.951987 
L 110.649359 215.293576 
L 110.821709 214.691059 
L 110.994059 216.110829 
L 111.405048 210.623961 
L 111.577398 216.094989 
L 111.73649 212.73742 
L 112.120963 217.241124 
L 112.452406 217.957268 
L 112.584983 215.927796 
L 112.770591 208.662005 
L 112.88991 214.604711 
L 113.102033 208.498712 
L 113.23461 211.826546 
L 113.446733 214.331409 
L 113.552795 217.949311 
L 113.778176 213.944204 
L 113.897495 215.423507 
L 114.096361 214.614534 
L 114.268711 217.202863 
L 114.613411 204.431143 
L 114.958111 217.678649 
L 115.382358 210.841246 
L 115.554708 215.45268 
L 115.780089 212.987134 
L 116.071758 206.919885 
L 116.244108 210.8114 
L 116.429716 211.241588 
L 116.615324 207.056492 
L 116.814189 216.592716 
L 117.013055 208.288709 
L 117.172147 213.211987 
L 117.437301 211.060109 
L 117.636166 213.030698 
L 117.874805 210.676876 
L 118.285794 215.47749 
L 118.603978 215.16813 
L 118.696782 216.568418 
L 119.293379 205.035317 
L 119.492244 212.428818 
L 119.744141 214.479237 
L 120.009295 214.056559 
L 120.234676 212.718326 
L 120.486572 210.188936 
L 120.751726 209.906335 
L 121.003622 215.629408 
L 121.295291 208.993555 
L 121.573703 209.741196 
L 121.918403 217.677952 
L 122.1703 213.116899 
L 122.461969 215.160109 
L 123.085081 203.92426 
L 123.390008 204.945385 
L 123.66842 209.677607 
L 124.01312 205.195113 
L 124.291532 204.682698 
L 124.662747 205.840446 
L 125.312374 217.586851 
L 125.617302 203.745415 
L 126.20064 203.571024 
L 126.558598 212.29054 
L 126.956329 209.767248 
L 127.393833 202.467349 
L 127.738533 205.923159 
L 128.255584 213.067125 
L 128.732861 207.164513 
L 129.223396 217.51015 
L 129.621127 204.548217 
L 130.681743 213.802156 
L 131.397659 197.811434 
L 131.861678 204.975017 
L 132.498048 211.740706 
L 133.439344 203.66978 
L 133.996168 210.515997 
L 134.698826 203.7552 
L 135.149587 209.041998 
L 135.958307 200.873658 
L 136.448842 217.183206 
L 137.071954 191.898254 
L 137.602262 203.529532 
L 138.212116 203.528477 
L 138.82197 203.140919 
L 139.378794 212.781176 
L 140.094709 210.684903 
L 140.691306 187.96577 
L 141.261387 200.167916 
L 141.831468 208.498677 
L 142.520868 193.044949 
L 143.767092 212.90635 
L 144.178081 197.504832 
L 144.947027 188.289342 
L 145.358016 195.970363 
L 146.206509 185.355224 
L 146.537951 204.692199 
L 147.333413 203.667347 
L 147.770917 183.535461 
L 148.592895 186.61387 
L 148.897822 213.643774 
L 149.733057 211.560669 
L 150.064499 183.574174 
L 150.873219 203.405035 
L 151.178146 200.406492 
L 152.013381 199.355128 
L 152.318308 211.444064 
L 153.180059 199.56985 
L 153.538017 190.270621 
L 154.200902 210.910742 
L 155.791826 197.099104 
L 156.467968 191.545701 
L 156.998276 195.2634 
L 157.674419 180.966529 
L 158.191469 178.342239 
L 158.814581 210.008486 
L 159.477466 191.402834 
L 159.968001 190.762886 
L 160.37899 196.161032 
L 161.147936 192.405696 
L 161.598698 196.386904 
L 162.208552 176.982316 
L 163.441518 211.080992 
L 163.905538 199.798725 
L 164.555165 163.749982 
L 165.098731 183.625547 
L 165.629039 181.951597 
L 166.013512 180.000275 
L 166.795716 192.557819 
L 167.219963 183.394761 
L 167.816559 212.549718 
L 168.148002 188.36931 
L 168.877175 169.694389 
L 169.168844 203.105829 
L 169.977564 178.583348 
L 170.388553 190.055361 
L 171.170757 196.994486 
L 171.661292 206.565159 
L 172.350692 202.696757 
L 172.894258 177.032059 
L 173.557143 195.8731 
L 173.915101 186.930438 
L 174.816624 210.769312 
L 175.18784 190.538486 
L 175.970044 174.707409 
L 176.447321 183.686628 
L 177.20301 180.159009 
L 177.706803 192.105989 
L 178.422719 180.12869 
L 178.899996 197.21487 
L 180.742816 166.268164 
L 181.35267 164.31299 
L 182.055328 195.207502 
L 182.585636 161.271865 
L 183.235264 175.365429 
L 183.725798 181.301242 
L 184.362168 179.636168 
L 184.945507 182.232877 
L 185.581876 191.26686 
L 186.191731 150.533635 
L 186.761812 180.038527 
L 187.46447 192.879614 
L 187.835685 180.916883 
L 188.644405 180.604559 
L 189.042136 177.792553 
L 189.864113 168.328664 
L 190.248587 187.364352 
L 191.136852 174.869397 
L 191.481553 190.415006 
L 192.409592 153.100891 
L 192.741034 122.503492 
L 193.602785 195.537517 
L 194.053546 187.139346 
L 194.875524 188.226704 
L 195.339543 142.938418 
L 196.10849 157.729931 
L 196.612282 186.342878 
L 197.367971 190.207944 
L 197.818733 169.259221 
L 198.614195 179.039681 
L 199.144503 107.19894 
L 199.820646 186.913994 
L 200.403984 188.634859 
L 201.080127 188.72556 
L 201.530889 176.071197 
L 202.326351 172.691947 
L 202.79037 147.718779 
L 203.585832 180.423909 
L 204.102883 131.094936 
L 204.885087 153.817203 
L 205.362364 205.434594 
L 206.131311 139.121133 
L 206.635103 179.477827 
L 207.443823 167.495283 
L 207.854812 190.249251 
L 208.676789 180.867732 
L 209.114293 159.473117 
L 209.923013 191.077449 
L 210.387032 126.58462 
L 211.129463 160.998139 
L 211.633256 159.379516 
L 212.388945 177.539305 
L 212.866222 163.391839 
L 213.661684 162.387678 
L 214.125703 154.591832 
L 214.89465 187.37763 
L 215.371927 140.099095 
L 216.127616 157.376608 
L 216.578378 142.875375 
L 217.426871 193.917941 
L 217.824602 168.237299 
L 218.40794 168.281173 
L 219.070825 205.912839 
L 219.693937 209.239744 
L 220.264018 157.515281 
L 221.019707 192.786196 
L 221.510242 136.624248 
L 222.318962 187.129587 
L 222.769724 151.751844 
L 224.029205 189.683722 
L 224.625801 164.967798 
L 225.288686 205.169397 
L 225.885283 191.650306 
L 226.508395 173.499014 
L 227.17128 164.519531 
L 227.767876 163.060819 
L 228.390988 175.838057 
L 229.000842 124.514961 
L 229.623954 194.240403 
L 230.233808 161.564525 
L 230.777374 211.434913 
L 231.281167 170.342279 
L 231.970567 153.930979 
L 232.580421 188.745693 
L 233.256564 178.681512 
L 233.839903 173.884218 
L 234.409984 166.858014 
L 235.072869 195.644022 
L 236.292577 153.616429 
L 236.955462 183.395461 
L 237.565316 187.56792 
L 238.254717 136.431766 
L 238.864571 176.773284 
L 239.474425 197.826971 
L 240.150568 124.756871 
L 240.733906 154.282903 
L 241.370276 120.491587 
L 242.046419 153.178215 
L 242.6165 198.702889 
L 243.319158 191.499583 
L 243.875981 184.58655 
L 244.618412 214.325182 
L 245.188493 206.930481 
L 245.758574 168.789528 
L 246.341913 145.961726 
L 247.004798 159.920063 
L 247.574879 196.107251 
L 248.224507 159.577096 
L 248.807845 217.955432 
L 249.497246 119.323711 
L 250.014296 107.080566 
L 250.677181 151.29888 
L 251.936662 192.06309 
L 252.612805 139.028795 
L 253.182886 143.185677 
L 253.91206 213.728349 
L 254.402595 163.028901 
L 255.184799 147.306234 
L 255.688591 208.687722 
L 256.44428 186.995046 
L 256.974588 146.976183 
L 257.690504 184.67847 
L 258.181039 155.430762 
L 258.817408 188.633025 
L 259.427263 177.495968 
L 260.07689 147.073691 
L 260.620456 180.683589 
L 261.190537 109.972336 
L 261.866679 208.85041 
L 262.423503 170.307452 
L 263.152676 198.771906 
L 263.76253 103.114861 
L 264.22655 170.1213 
L 264.955723 141.570006 
L 265.751185 125.832529 
L 266.188689 180.010431 
L 266.811801 207.646498 
L 267.39514 211.570603 
L 268.561818 160.155655 
L 269.503114 165.163296 
L 269.821299 208.285034 
L 270.775853 195.648742 
L 271.067523 144.762617 
L 272.035335 174.540933 
L 272.366777 205.786678 
L 273.692547 148.30142 
L 274.620586 165.335547 
L 275.00506 130.589575 
L 276.304314 168.628128 
L 277.073261 202.040899 
L 277.550538 217.493318 
L 278.319484 213.138971 
L 278.955854 137.922093 
L 279.685027 178.970837 
L 280.294882 202.689271 
L 281.037313 181.732256 
L 281.448302 162.62516 
L 282.283537 143.582345 
L 282.734298 184.784671 
L 283.52976 150.950086 
L 284.020295 151.793995 
L 284.85553 202.812706 
L 285.173715 192.453915 
L 286.128269 198.949809 
L 286.47297 173.343258 
L 287.308205 155.961011 
L 287.772224 167.252964 
L 288.594202 201.496107 
L 289.00519 160.117096 
L 289.800652 186.640089 
L 290.277929 171.205374 
L 291.046876 218.625713 
L 291.457865 123.667146 
L 292.2931 190.821753 
L 292.664315 105.817937 
L 293.579097 187.040993 
L 294.785547 213.454459 
L 295.196536 168.51468 
L 295.991998 134.849527 
L 296.469275 169.459705 
L 297.264737 213.131416 
L 297.755272 181.120686 
L 298.471188 172.093194 
L 299.001496 98.970212 
L 299.770442 152.896781 
L 300.260977 213.589349 
L 301.003408 207.229236 
L 301.480685 125.789175 
L 302.196601 142.219947 
L 302.726909 211.115432 
L 303.456083 163.311158 
L 303.867071 194.965686 
L 304.689049 209.2248 
L 305.153068 185.25735 
L 305.922015 182.668127 
L 306.372777 216.633932 
L 307.181496 126.795836 
L 307.658773 187.89853 
L 308.401205 188.722595 
L 308.931513 200.190057 
L 309.647428 159.407229 
L 310.217509 198.410248 
L 310.946683 181.713658 
L 311.450475 98.381317 
L 312.603895 213.273862 
L 313.889892 202.865141 
L 314.645581 181.534177 
L 315.149374 86.964191 
L 315.878547 106.524216 
L 316.408855 181.886912 
L 317.07174 170.872742 
L 317.721367 188.347224 
L 318.384252 182.664646 
L 318.994107 188.328571 
L 319.643734 185.936987 
L 320.293361 170.17362 
L 320.969504 216.497488 
L 321.619131 167.401456 
L 322.189212 209.73393 
L 322.944901 145.99509 
L 323.475209 180.387103 
L 324.111579 127.624934 
L 324.708175 186.481632 
L 325.463864 165.866223 
L 326.020687 185.706432 
L 326.657057 220.234061 
L 327.240396 163.023706 
L 327.956311 197.807243 
L 328.53965 129.471092 
L 329.215793 141.496981 
L 329.785874 193.988495 
L 330.515047 197.272833 
L 331.111644 198.585225 
L 331.907106 128.787368 
L 332.410898 74.284274 
L 333.232876 184.761083 
L 333.763184 170.572063 
L 334.492357 158.364091 
L 335.102211 199.234218 
L 335.751839 53.568 
L 336.441239 158.523153 
L 337.077609 202.648157 
L 337.806782 167.916866 
L 338.429894 158.474642 
L 339.106037 165.612536 
L 339.755664 131.369007 
L 340.35226 160.468222 
L 341.107949 105.637901 
L 342.354173 221.960408 
L 342.937512 174.439249 
L 343.653428 215.946613 
L 344.183736 167.179556 
L 344.952682 149.76856 
L 345.602309 165.18328 
L 346.384514 191.270422 
L 346.994368 142.145439 
L 347.763314 173.507494 
L 348.492488 155.927656 
L 349.102342 170.394006 
L 349.685681 176.637822 
L 350.414854 153.450708 
L 351.117512 143.610463 
L 351.661078 182.228189 
L 352.443282 93.479937 
L 353.000106 220.609171 
L 353.689506 153.135321 
L 354.392164 104.263987 
L 355.028534 212.748558 
L 356.341046 107.429641 
L 356.964158 176.463626 
L 357.693331 215.205417 
L 358.316443 126.512781 
L 359.032359 203.66701 
L 359.60244 164.453898 
L 360.331614 214.02719 
L 360.967983 134.502935 
L 361.710414 162.28814 
L 362.373299 180.628621 
L 363.036184 171.970836 
L 363.765358 143.616588 
L 364.335439 192.202145 
L 365.144158 199.420735 
L 365.621436 110.303854 
L 366.443413 184.208871 
L 366.907433 186.467966 
L 367.716152 160.368953 
L 368.113883 176.265407 
L 369.068438 195.508275 
L 369.386622 137.614794 
L 370.367692 203.126995 
L 370.685877 184.535237 
L 371.627174 196.428513 
L 371.985131 172.858414 
L 372.833624 170.228942 
L 373.231355 217.45738 
L 374.225683 215.818745 
L 374.543867 167.215163 
L 375.445391 159.915814 
L 376.691615 175.647814 
L 377.115861 211.180706 
L 378.030642 194.477916 
L 378.468146 219.111779 
L 379.316639 168.053731 
L 379.727628 210.949621 
L 380.536348 171.485881 
L 381.000367 196.404512 
L 381.84886 204.405167 
L 382.273106 166.05226 
L 383.17463 196.061654 
L 383.559103 134.091124 
L 384.38108 178.931962 
L 384.858358 181.966095 
L 385.574273 188.838722 
L 386.104581 199.293804 
L 386.820497 179.570135 
L 387.350805 219.716828 
L 388.079979 216.35476 
L 388.623544 208.369004 
L 389.312945 149.82425 
L 389.896283 176.682865 
L 390.612199 215.800652 
L 391.155765 218.322767 
L 391.845165 169.947748 
L 392.415246 183.69599 
L 393.104647 190.633046 
L 393.634955 190.819958 
L 394.258067 126.389902 
L 394.881178 194.56832 
L 395.477775 207.0481 
L 396.087629 191.510805 
L 396.684226 153.389883 
L 397.254307 188.252382 
L 397.850903 160.790643 
L 398.487273 165.677149 
L 398.487273 165.677149 
" clip-path="url(#p210dc512f1)" style="fill: none; stroke: #ff7f0e; stroke-width: 1.5; stroke-linecap: square"/>
   </g>
   <g id="patch_3">
    <path d="M 57.6 307.584 
L 57.6 41.472 
" style="fill: none; stroke: #000000; stroke-width: 0.8; stroke-linejoin: miter; stroke-linecap: square"/>
   </g>
   <g id="patch_4">
    <path d="M 414.72 307.584 
L 414.72 41.472 
" style="fill: none; stroke: #000000; stroke-width: 0.8; stroke-linejoin: miter; stroke-linecap: square"/>
   </g>
   <g id="patch_5">
    <path d="M 57.6 307.584 
L 414.72 307.584 
" style="fill: none; stroke: #000000; stroke-width: 0.8; stroke-linejoin: miter; stroke-linecap: square"/>
   </g>
   <g id="patch_6">
    <path d="M 57.6 41.472 
L 414.72 41.472 
" style="fill: none; stroke: #000000; stroke-width: 0.8; stroke-linejoin: miter; stroke-linecap: square"/>
   </g>
   <g id="text_14">
    <!-- actor and critic loss -->
    <g transform="translate(177.345 35.472) scale(0.12 -0.12)">
     <defs>
      <path id="DejaVuSans-61" d="M 2194 1759 
Q 1497 1759 1228 1600 
Q 959 1441 959 1056 
Q 959 750 1161 570 
Q 1363 391 1709 391 
Q 2188 391 2477 730 
Q 2766 1069 2766 1631 
L 2766 1759 
L 2194 1759 
z
M 3341 1997 
L 3341 0 
L 2766 0 
L 2766 531 
Q 2569 213 2275 61 
Q 1981 -91 1556 -91 
Q 1019 -91 701 211 
Q 384 513 384 1019 
Q 384 1609 779 1909 
Q 1175 2209 1959 2209 
L 2766 2209 
L 2766 2266 
Q 2766 2663 2505 2880 
Q 2244 3097 1772 3097 
Q 1472 3097 1187 3025 
Q 903 2953 641 2809 
L 641 3341 
Q 956 3463 1253 3523 
Q 1550 3584 1831 3584 
Q 2591 3584 2966 3190 
Q 3341 2797 3341 1997 
z
" transform="scale(0.015625)"/>
      <path id="DejaVuSans-63" d="M 3122 3366 
L 3122 2828 
Q 2878 2963 2633 3030 
Q 2388 3097 2138 3097 
Q 1578 3097 1268 2742 
Q 959 2388 959 1747 
Q 959 1106 1268 751 
Q 1578 397 2138 397 
Q 2388 397 2633 464 
Q 2878 531 3122 666 
L 3122 134 
Q 2881 22 2623 -34 
Q 2366 -91 2075 -91 
Q 1284 -91 818 406 
Q 353 903 353 1747 
Q 353 2603 823 3093 
Q 1294 3584 2113 3584 
Q 2378 3584 2631 3529 
Q 2884 3475 3122 3366 
z
" transform="scale(0.015625)"/>
      <path id="DejaVuSans-72" d="M 2631 2963 
Q 2534 3019 2420 3045 
Q 2306 3072 2169 3072 
Q 1681 3072 1420 2755 
Q 1159 2438 1159 1844 
L 1159 0 
L 581 0 
L 581 3500 
L 1159 3500 
L 1159 2956 
Q 1341 3275 1631 3429 
Q 1922 3584 2338 3584 
Q 2397 3584 2469 3576 
Q 2541 3569 2628 3553 
L 2631 2963 
z
" transform="scale(0.015625)"/>
      <path id="DejaVuSans-6e" d="M 3513 2113 
L 3513 0 
L 2938 0 
L 2938 2094 
Q 2938 2591 2744 2837 
Q 2550 3084 2163 3084 
Q 1697 3084 1428 2787 
Q 1159 2491 1159 1978 
L 1159 0 
L 581 0 
L 581 3500 
L 1159 3500 
L 1159 2956 
Q 1366 3272 1645 3428 
Q 1925 3584 2291 3584 
Q 2894 3584 3203 3211 
Q 3513 2838 3513 2113 
z
" transform="scale(0.015625)"/>
      <path id="DejaVuSans-64" d="M 2906 2969 
L 2906 4863 
L 3481 4863 
L 3481 0 
L 2906 0 
L 2906 525 
Q 2725 213 2448 61 
Q 2172 -91 1784 -91 
Q 1150 -91 751 415 
Q 353 922 353 1747 
Q 353 2572 751 3078 
Q 1150 3584 1784 3584 
Q 2172 3584 2448 3432 
Q 2725 3281 2906 2969 
z
M 947 1747 
Q 947 1113 1208 752 
Q 1469 391 1925 391 
Q 2381 391 2643 752 
Q 2906 1113 2906 1747 
Q 2906 2381 2643 2742 
Q 2381 3103 1925 3103 
Q 1469 3103 1208 2742 
Q 947 2381 947 1747 
z
" transform="scale(0.015625)"/>
     </defs>
     <use xlink:href="#DejaVuSans-61"/>
     <use xlink:href="#DejaVuSans-63" x="61.279297"/>
     <use xlink:href="#DejaVuSans-74" x="116.259766"/>
     <use xlink:href="#DejaVuSans-6f" x="155.46875"/>
     <use xlink:href="#DejaVuSans-72" x="216.650391"/>
     <use xlink:href="#DejaVuSans-20" x="257.763672"/>
     <use xlink:href="#DejaVuSans-61" x="289.550781"/>
     <use xlink:href="#DejaVuSans-6e" x="350.830078"/>
     <use xlink:href="#DejaVuSans-64" x="414.208984"/>
     <use xlink:href="#DejaVuSans-20" x="477.685547"/>
     <use xlink:href="#DejaVuSans-63" x="509.472656"/>
     <use xlink:href="#DejaVuSans-72" x="564.453125"/>
     <use xlink:href="#DejaVuSans-69" x="605.566406"/>
     <use xlink:href="#DejaVuSans-74" x="633.349609"/>
     <use xlink:href="#DejaVuSans-69" x="672.558594"/>
     <use xlink:href="#DejaVuSans-63" x="700.341797"/>
     <use xlink:href="#DejaVuSans-20" x="755.322266"/>
     <use xlink:href="#DejaVuSans-6c" x="787.109375"/>
     <use xlink:href="#DejaVuSans-6f" x="814.892578"/>
     <use xlink:href="#DejaVuSans-73" x="876.074219"/>
     <use xlink:href="#DejaVuSans-73" x="928.173828"/>
    </g>
   </g>
   <g id="legend_1">
    <g id="patch_7">
     <path d="M 64.6 78.82825 
L 144.870313 78.82825 
Q 146.870313 78.82825 146.870313 76.82825 
L 146.870313 48.472 
Q 146.870313 46.472 144.870313 46.472 
L 64.6 46.472 
Q 62.6 46.472 62.6 48.472 
L 62.6 76.82825 
Q 62.6 78.82825 64.6 78.82825 
z
" style="fill: #ffffff; opacity: 0.8; stroke: #cccccc; stroke-linejoin: miter"/>
    </g>
    <g id="line2d_14">
     <path d="M 66.6 54.570437 
L 76.6 54.570437 
L 86.6 54.570437 
" style="fill: none; stroke: #1f77b4; stroke-width: 1.5; stroke-linecap: square"/>
    </g>
    <g id="text_15">
     <!-- actor loss -->
     <g transform="translate(94.6 58.070437) scale(0.1 -0.1)">
      <use xlink:href="#DejaVuSans-61"/>
      <use xlink:href="#DejaVuSans-63" x="61.279297"/>
      <use xlink:href="#DejaVuSans-74" x="116.259766"/>
      <use xlink:href="#DejaVuSans-6f" x="155.46875"/>
      <use xlink:href="#DejaVuSans-72" x="216.650391"/>
      <use xlink:href="#DejaVuSans-20" x="257.763672"/>
      <use xlink:href="#DejaVuSans-6c" x="289.550781"/>
      <use xlink:href="#DejaVuSans-6f" x="317.333984"/>
      <use xlink:href="#DejaVuSans-73" x="378.515625"/>
      <use xlink:href="#DejaVuSans-73" x="430.615234"/>
     </g>
    </g>
    <g id="line2d_15">
     <path d="M 66.6 69.248562 
L 76.6 69.248562 
L 86.6 69.248562 
" style="fill: none; stroke: #ff7f0e; stroke-width: 1.5; stroke-linecap: square"/>
    </g>
    <g id="text_16">
     <!-- critic loss -->
     <g transform="translate(94.6 72.748562) scale(0.1 -0.1)">
      <use xlink:href="#DejaVuSans-63"/>
      <use xlink:href="#DejaVuSans-72" x="54.980469"/>
      <use xlink:href="#DejaVuSans-69" x="96.09375"/>
      <use xlink:href="#DejaVuSans-74" x="123.876953"/>
      <use xlink:href="#DejaVuSans-69" x="163.085938"/>
      <use xlink:href="#DejaVuSans-63" x="190.869141"/>
      <use xlink:href="#DejaVuSans-20" x="245.849609"/>
      <use xlink:href="#DejaVuSans-6c" x="277.636719"/>
      <use xlink:href="#DejaVuSans-6f" x="305.419922"/>
      <use xlink:href="#DejaVuSans-73" x="366.601562"/>
      <use xlink:href="#DejaVuSans-73" x="418.701172"/>
     </g>
    </g>
   </g>
  </g>
 </g>
 <defs>
  <clipPath id="p210dc512f1">
   <rect x="57.6" y="41.472" width="357.12" height="266.112"/>
  </clipPath>
 </defs>
</svg>
