<?xml version="1.0" encoding="utf-8" standalone="no"?>
<!DOCTYPE svg PUBLIC "-//W3C//DTD SVG 1.1//EN"
  "http://www.w3.org/Graphics/SVG/1.1/DTD/svg11.dtd">
<svg xmlns:xlink="http://www.w3.org/1999/xlink" width="460.8pt" height="345.6pt" viewBox="0 0 460.8 345.6" xmlns="http://www.w3.org/2000/svg" version="1.1">
 <metadata>
  <rdf:RDF xmlns:dc="http://purl.org/dc/elements/1.1/" xmlns:cc="http://creativecommons.org/ns#" xmlns:rdf="http://www.w3.org/1999/02/22-rdf-syntax-ns#">
   <cc:Work>
    <dc:type rdf:resource="http://purl.org/dc/dcmitype/StillImage"/>
    <dc:date>2023-08-19T13:16:30.408996</dc:date>
    <dc:format>image/svg+xml</dc:format>
    <dc:creator>
     <cc:Agent>
      <dc:title>Matplotlib v3.7.1, https://matplotlib.org/</dc:title>
     </cc:Agent>
    </dc:creator>
   </cc:Work>
  </rdf:RDF>
 </metadata>
 <defs>
  <style type="text/css">*{stroke-linejoin: round; stroke-linecap: butt}</style>
 </defs>
 <g id="figure_1">
  <g id="patch_1">
   <path d="M 0 345.6 
L 460.8 345.6 
L 460.8 0 
L 0 0 
z
" style="fill: #ffffff"/>
  </g>
  <g id="axes_1">
   <g id="patch_2">
    <path d="M 57.6 307.584 
L 414.72 307.584 
L 414.72 41.472 
L 57.6 41.472 
z
" style="fill: #ffffff"/>
   </g>
   <g id="matplotlib.axis_1">
    <g id="xtick_1">
     <g id="line2d_1">
      <defs>
       <path id="m4953093f2d" d="M 0 0 
L 0 3.5 
" style="stroke: #000000; stroke-width: 0.8"/>
      </defs>
      <g>
       <use xlink:href="#m4953093f2d" x="73.611794" y="307.584" style="stroke: #000000; stroke-width: 0.8"/>
      </g>
     </g>
     <g id="text_1">
      <!-- 0 -->
      <g transform="translate(70.430544 322.182437) scale(0.1 -0.1)">
       <defs>
        <path id="DejaVuSans-30" d="M 2034 4250 
Q 1547 4250 1301 3770 
Q 1056 3291 1056 2328 
Q 1056 1369 1301 889 
Q 1547 409 2034 409 
Q 2525 409 2770 889 
Q 3016 1369 3016 2328 
Q 3016 3291 2770 3770 
Q 2525 4250 2034 4250 
z
M 2034 4750 
Q 2819 4750 3233 4129 
Q 3647 3509 3647 2328 
Q 3647 1150 3233 529 
Q 2819 -91 2034 -91 
Q 1250 -91 836 529 
Q 422 1150 422 2328 
Q 422 3509 836 4129 
Q 1250 4750 2034 4750 
z
" transform="scale(0.015625)"/>
       </defs>
       <use xlink:href="#DejaVuSans-30"/>
      </g>
     </g>
    </g>
    <g id="xtick_2">
     <g id="line2d_2">
      <g>
       <use xlink:href="#m4953093f2d" x="138.592088" y="307.584" style="stroke: #000000; stroke-width: 0.8"/>
      </g>
     </g>
     <g id="text_2">
      <!-- 100000 -->
      <g transform="translate(119.504588 322.182437) scale(0.1 -0.1)">
       <defs>
        <path id="DejaVuSans-31" d="M 794 531 
L 1825 531 
L 1825 4091 
L 703 3866 
L 703 4441 
L 1819 4666 
L 2450 4666 
L 2450 531 
L 3481 531 
L 3481 0 
L 794 0 
L 794 531 
z
" transform="scale(0.015625)"/>
       </defs>
       <use xlink:href="#DejaVuSans-31"/>
       <use xlink:href="#DejaVuSans-30" x="63.623047"/>
       <use xlink:href="#DejaVuSans-30" x="127.246094"/>
       <use xlink:href="#DejaVuSans-30" x="190.869141"/>
       <use xlink:href="#DejaVuSans-30" x="254.492188"/>
       <use xlink:href="#DejaVuSans-30" x="318.115234"/>
      </g>
     </g>
    </g>
    <g id="xtick_3">
     <g id="line2d_3">
      <g>
       <use xlink:href="#m4953093f2d" x="203.572383" y="307.584" style="stroke: #000000; stroke-width: 0.8"/>
      </g>
     </g>
     <g id="text_3">
      <!-- 200000 -->
      <g transform="translate(184.484883 322.182437) scale(0.1 -0.1)">
       <defs>
        <path id="DejaVuSans-32" d="M 1228 531 
L 3431 531 
L 3431 0 
L 469 0 
L 469 531 
Q 828 903 1448 1529 
Q 2069 2156 2228 2338 
Q 2531 2678 2651 2914 
Q 2772 3150 2772 3378 
Q 2772 3750 2511 3984 
Q 2250 4219 1831 4219 
Q 1534 4219 1204 4116 
Q 875 4013 500 3803 
L 500 4441 
Q 881 4594 1212 4672 
Q 1544 4750 1819 4750 
Q 2544 4750 2975 4387 
Q 3406 4025 3406 3419 
Q 3406 3131 3298 2873 
Q 3191 2616 2906 2266 
Q 2828 2175 2409 1742 
Q 1991 1309 1228 531 
z
" transform="scale(0.015625)"/>
       </defs>
       <use xlink:href="#DejaVuSans-32"/>
       <use xlink:href="#DejaVuSans-30" x="63.623047"/>
       <use xlink:href="#DejaVuSans-30" x="127.246094"/>
       <use xlink:href="#DejaVuSans-30" x="190.869141"/>
       <use xlink:href="#DejaVuSans-30" x="254.492188"/>
       <use xlink:href="#DejaVuSans-30" x="318.115234"/>
      </g>
     </g>
    </g>
    <g id="xtick_4">
     <g id="line2d_4">
      <g>
       <use xlink:href="#m4953093f2d" x="268.552677" y="307.584" style="stroke: #000000; stroke-width: 0.8"/>
      </g>
     </g>
     <g id="text_4">
      <!-- 300000 -->
      <g transform="translate(249.465177 322.182437) scale(0.1 -0.1)">
       <defs>
        <path id="DejaVuSans-33" d="M 2597 2516 
Q 3050 2419 3304 2112 
Q 3559 1806 3559 1356 
Q 3559 666 3084 287 
Q 2609 -91 1734 -91 
Q 1441 -91 1130 -33 
Q 819 25 488 141 
L 488 750 
Q 750 597 1062 519 
Q 1375 441 1716 441 
Q 2309 441 2620 675 
Q 2931 909 2931 1356 
Q 2931 1769 2642 2001 
Q 2353 2234 1838 2234 
L 1294 2234 
L 1294 2753 
L 1863 2753 
Q 2328 2753 2575 2939 
Q 2822 3125 2822 3475 
Q 2822 3834 2567 4026 
Q 2313 4219 1838 4219 
Q 1578 4219 1281 4162 
Q 984 4106 628 3988 
L 628 4550 
Q 988 4650 1302 4700 
Q 1616 4750 1894 4750 
Q 2613 4750 3031 4423 
Q 3450 4097 3450 3541 
Q 3450 3153 3228 2886 
Q 3006 2619 2597 2516 
z
" transform="scale(0.015625)"/>
       </defs>
       <use xlink:href="#DejaVuSans-33"/>
       <use xlink:href="#DejaVuSans-30" x="63.623047"/>
       <use xlink:href="#DejaVuSans-30" x="127.246094"/>
       <use xlink:href="#DejaVuSans-30" x="190.869141"/>
       <use xlink:href="#DejaVuSans-30" x="254.492188"/>
       <use xlink:href="#DejaVuSans-30" x="318.115234"/>
      </g>
     </g>
    </g>
    <g id="xtick_5">
     <g id="line2d_5">
      <g>
       <use xlink:href="#m4953093f2d" x="333.532971" y="307.584" style="stroke: #000000; stroke-width: 0.8"/>
      </g>
     </g>
     <g id="text_5">
      <!-- 400000 -->
      <g transform="translate(314.445471 322.182437) scale(0.1 -0.1)">
       <defs>
        <path id="DejaVuSans-34" d="M 2419 4116 
L 825 1625 
L 2419 1625 
L 2419 4116 
z
M 2253 4666 
L 3047 4666 
L 3047 1625 
L 3713 1625 
L 3713 1100 
L 3047 1100 
L 3047 0 
L 2419 0 
L 2419 1100 
L 313 1100 
L 313 1709 
L 2253 4666 
z
" transform="scale(0.015625)"/>
       </defs>
       <use xlink:href="#DejaVuSans-34"/>
       <use xlink:href="#DejaVuSans-30" x="63.623047"/>
       <use xlink:href="#DejaVuSans-30" x="127.246094"/>
       <use xlink:href="#DejaVuSans-30" x="190.869141"/>
       <use xlink:href="#DejaVuSans-30" x="254.492188"/>
       <use xlink:href="#DejaVuSans-30" x="318.115234"/>
      </g>
     </g>
    </g>
    <g id="xtick_6">
     <g id="line2d_6">
      <g>
       <use xlink:href="#m4953093f2d" x="398.513265" y="307.584" style="stroke: #000000; stroke-width: 0.8"/>
      </g>
     </g>
     <g id="text_6">
      <!-- 500000 -->
      <g transform="translate(379.425765 322.182437) scale(0.1 -0.1)">
       <defs>
        <path id="DejaVuSans-35" d="M 691 4666 
L 3169 4666 
L 3169 4134 
L 1269 4134 
L 1269 2991 
Q 1406 3038 1543 3061 
Q 1681 3084 1819 3084 
Q 2600 3084 3056 2656 
Q 3513 2228 3513 1497 
Q 3513 744 3044 326 
Q 2575 -91 1722 -91 
Q 1428 -91 1123 -41 
Q 819 9 494 109 
L 494 744 
Q 775 591 1075 516 
Q 1375 441 1709 441 
Q 2250 441 2565 725 
Q 2881 1009 2881 1497 
Q 2881 1984 2565 2268 
Q 2250 2553 1709 2553 
Q 1456 2553 1204 2497 
Q 953 2441 691 2322 
L 691 4666 
z
" transform="scale(0.015625)"/>
       </defs>
       <use xlink:href="#DejaVuSans-35"/>
       <use xlink:href="#DejaVuSans-30" x="63.623047"/>
       <use xlink:href="#DejaVuSans-30" x="127.246094"/>
       <use xlink:href="#DejaVuSans-30" x="190.869141"/>
       <use xlink:href="#DejaVuSans-30" x="254.492188"/>
       <use xlink:href="#DejaVuSans-30" x="318.115234"/>
      </g>
     </g>
    </g>
    <g id="text_7">
     <!-- timesteps -->
     <g transform="translate(211.443594 335.860562) scale(0.1 -0.1)">
      <defs>
       <path id="DejaVuSans-74" d="M 1172 4494 
L 1172 3500 
L 2356 3500 
L 2356 3053 
L 1172 3053 
L 1172 1153 
Q 1172 725 1289 603 
Q 1406 481 1766 481 
L 2356 481 
L 2356 0 
L 1766 0 
Q 1100 0 847 248 
Q 594 497 594 1153 
L 594 3053 
L 172 3053 
L 172 3500 
L 594 3500 
L 594 4494 
L 1172 4494 
z
" transform="scale(0.015625)"/>
       <path id="DejaVuSans-69" d="M 603 3500 
L 1178 3500 
L 1178 0 
L 603 0 
L 603 3500 
z
M 603 4863 
L 1178 4863 
L 1178 4134 
L 603 4134 
L 603 4863 
z
" transform="scale(0.015625)"/>
       <path id="DejaVuSans-6d" d="M 3328 2828 
Q 3544 3216 3844 3400 
Q 4144 3584 4550 3584 
Q 5097 3584 5394 3201 
Q 5691 2819 5691 2113 
L 5691 0 
L 5113 0 
L 5113 2094 
Q 5113 2597 4934 2840 
Q 4756 3084 4391 3084 
Q 3944 3084 3684 2787 
Q 3425 2491 3425 1978 
L 3425 0 
L 2847 0 
L 2847 2094 
Q 2847 2600 2669 2842 
Q 2491 3084 2119 3084 
Q 1678 3084 1418 2786 
Q 1159 2488 1159 1978 
L 1159 0 
L 581 0 
L 581 3500 
L 1159 3500 
L 1159 2956 
Q 1356 3278 1631 3431 
Q 1906 3584 2284 3584 
Q 2666 3584 2933 3390 
Q 3200 3197 3328 2828 
z
" transform="scale(0.015625)"/>
       <path id="DejaVuSans-65" d="M 3597 1894 
L 3597 1613 
L 953 1613 
Q 991 1019 1311 708 
Q 1631 397 2203 397 
Q 2534 397 2845 478 
Q 3156 559 3463 722 
L 3463 178 
Q 3153 47 2828 -22 
Q 2503 -91 2169 -91 
Q 1331 -91 842 396 
Q 353 884 353 1716 
Q 353 2575 817 3079 
Q 1281 3584 2069 3584 
Q 2775 3584 3186 3129 
Q 3597 2675 3597 1894 
z
M 3022 2063 
Q 3016 2534 2758 2815 
Q 2500 3097 2075 3097 
Q 1594 3097 1305 2825 
Q 1016 2553 972 2059 
L 3022 2063 
z
" transform="scale(0.015625)"/>
       <path id="DejaVuSans-73" d="M 2834 3397 
L 2834 2853 
Q 2591 2978 2328 3040 
Q 2066 3103 1784 3103 
Q 1356 3103 1142 2972 
Q 928 2841 928 2578 
Q 928 2378 1081 2264 
Q 1234 2150 1697 2047 
L 1894 2003 
Q 2506 1872 2764 1633 
Q 3022 1394 3022 966 
Q 3022 478 2636 193 
Q 2250 -91 1575 -91 
Q 1294 -91 989 -36 
Q 684 19 347 128 
L 347 722 
Q 666 556 975 473 
Q 1284 391 1588 391 
Q 1994 391 2212 530 
Q 2431 669 2431 922 
Q 2431 1156 2273 1281 
Q 2116 1406 1581 1522 
L 1381 1569 
Q 847 1681 609 1914 
Q 372 2147 372 2553 
Q 372 3047 722 3315 
Q 1072 3584 1716 3584 
Q 2034 3584 2315 3537 
Q 2597 3491 2834 3397 
z
" transform="scale(0.015625)"/>
       <path id="DejaVuSans-70" d="M 1159 525 
L 1159 -1331 
L 581 -1331 
L 581 3500 
L 1159 3500 
L 1159 2969 
Q 1341 3281 1617 3432 
Q 1894 3584 2278 3584 
Q 2916 3584 3314 3078 
Q 3713 2572 3713 1747 
Q 3713 922 3314 415 
Q 2916 -91 2278 -91 
Q 1894 -91 1617 61 
Q 1341 213 1159 525 
z
M 3116 1747 
Q 3116 2381 2855 2742 
Q 2594 3103 2138 3103 
Q 1681 3103 1420 2742 
Q 1159 2381 1159 1747 
Q 1159 1113 1420 752 
Q 1681 391 2138 391 
Q 2594 391 2855 752 
Q 3116 1113 3116 1747 
z
" transform="scale(0.015625)"/>
      </defs>
      <use xlink:href="#DejaVuSans-74"/>
      <use xlink:href="#DejaVuSans-69" x="39.208984"/>
      <use xlink:href="#DejaVuSans-6d" x="66.992188"/>
      <use xlink:href="#DejaVuSans-65" x="164.404297"/>
      <use xlink:href="#DejaVuSans-73" x="225.927734"/>
      <use xlink:href="#DejaVuSans-74" x="278.027344"/>
      <use xlink:href="#DejaVuSans-65" x="317.236328"/>
      <use xlink:href="#DejaVuSans-70" x="378.759766"/>
      <use xlink:href="#DejaVuSans-73" x="442.236328"/>
     </g>
    </g>
   </g>
   <g id="matplotlib.axis_2">
    <g id="ytick_1">
     <g id="line2d_7">
      <defs>
       <path id="mccb8e38471" d="M 0 0 
L -3.5 0 
" style="stroke: #000000; stroke-width: 0.8"/>
      </defs>
      <g>
       <use xlink:href="#mccb8e38471" x="57.6" y="304.745074" style="stroke: #000000; stroke-width: 0.8"/>
      </g>
     </g>
     <g id="text_8">
      <!-- 0 -->
      <g transform="translate(44.2375 308.544293) scale(0.1 -0.1)">
       <use xlink:href="#DejaVuSans-30"/>
      </g>
     </g>
    </g>
    <g id="ytick_2">
     <g id="line2d_8">
      <g>
       <use xlink:href="#mccb8e38471" x="57.6" y="248.425988" style="stroke: #000000; stroke-width: 0.8"/>
      </g>
     </g>
     <g id="text_9">
      <!-- 50 -->
      <g transform="translate(37.875 252.225206) scale(0.1 -0.1)">
       <use xlink:href="#DejaVuSans-35"/>
       <use xlink:href="#DejaVuSans-30" x="63.623047"/>
      </g>
     </g>
    </g>
    <g id="ytick_3">
     <g id="line2d_9">
      <g>
       <use xlink:href="#mccb8e38471" x="57.6" y="192.106901" style="stroke: #000000; stroke-width: 0.8"/>
      </g>
     </g>
     <g id="text_10">
      <!-- 100 -->
      <g transform="translate(31.5125 195.906119) scale(0.1 -0.1)">
       <use xlink:href="#DejaVuSans-31"/>
       <use xlink:href="#DejaVuSans-30" x="63.623047"/>
       <use xlink:href="#DejaVuSans-30" x="127.246094"/>
      </g>
     </g>
    </g>
    <g id="ytick_4">
     <g id="line2d_10">
      <g>
       <use xlink:href="#mccb8e38471" x="57.6" y="135.787814" style="stroke: #000000; stroke-width: 0.8"/>
      </g>
     </g>
     <g id="text_11">
      <!-- 150 -->
      <g transform="translate(31.5125 139.587033) scale(0.1 -0.1)">
       <use xlink:href="#DejaVuSans-31"/>
       <use xlink:href="#DejaVuSans-35" x="63.623047"/>
       <use xlink:href="#DejaVuSans-30" x="127.246094"/>
      </g>
     </g>
    </g>
    <g id="ytick_5">
     <g id="line2d_11">
      <g>
       <use xlink:href="#mccb8e38471" x="57.6" y="79.468727" style="stroke: #000000; stroke-width: 0.8"/>
      </g>
     </g>
     <g id="text_12">
      <!-- 200 -->
      <g transform="translate(31.5125 83.267946) scale(0.1 -0.1)">
       <use xlink:href="#DejaVuSans-32"/>
       <use xlink:href="#DejaVuSans-30" x="63.623047"/>
       <use xlink:href="#DejaVuSans-30" x="127.246094"/>
      </g>
     </g>
    </g>
    <g id="text_13">
     <!-- mean episode rewards -->
     <g transform="translate(25.432812 231.360031) rotate(-90) scale(0.1 -0.1)">
      <defs>
       <path id="DejaVuSans-61" d="M 2194 1759 
Q 1497 1759 1228 1600 
Q 959 1441 959 1056 
Q 959 750 1161 570 
Q 1363 391 1709 391 
Q 2188 391 2477 730 
Q 2766 1069 2766 1631 
L 2766 1759 
L 2194 1759 
z
M 3341 1997 
L 3341 0 
L 2766 0 
L 2766 531 
Q 2569 213 2275 61 
Q 1981 -91 1556 -91 
Q 1019 -91 701 211 
Q 384 513 384 1019 
Q 384 1609 779 1909 
Q 1175 2209 1959 2209 
L 2766 2209 
L 2766 2266 
Q 2766 2663 2505 2880 
Q 2244 3097 1772 3097 
Q 1472 3097 1187 3025 
Q 903 2953 641 2809 
L 641 3341 
Q 956 3463 1253 3523 
Q 1550 3584 1831 3584 
Q 2591 3584 2966 3190 
Q 3341 2797 3341 1997 
z
" transform="scale(0.015625)"/>
       <path id="DejaVuSans-6e" d="M 3513 2113 
L 3513 0 
L 2938 0 
L 2938 2094 
Q 2938 2591 2744 2837 
Q 2550 3084 2163 3084 
Q 1697 3084 1428 2787 
Q 1159 2491 1159 1978 
L 1159 0 
L 581 0 
L 581 3500 
L 1159 3500 
L 1159 2956 
Q 1366 3272 1645 3428 
Q 1925 3584 2291 3584 
Q 2894 3584 3203 3211 
Q 3513 2838 3513 2113 
z
" transform="scale(0.015625)"/>
       <path id="DejaVuSans-20" transform="scale(0.015625)"/>
       <path id="DejaVuSans-6f" d="M 1959 3097 
Q 1497 3097 1228 2736 
Q 959 2375 959 1747 
Q 959 1119 1226 758 
Q 1494 397 1959 397 
Q 2419 397 2687 759 
Q 2956 1122 2956 1747 
Q 2956 2369 2687 2733 
Q 2419 3097 1959 3097 
z
M 1959 3584 
Q 2709 3584 3137 3096 
Q 3566 2609 3566 1747 
Q 3566 888 3137 398 
Q 2709 -91 1959 -91 
Q 1206 -91 779 398 
Q 353 888 353 1747 
Q 353 2609 779 3096 
Q 1206 3584 1959 3584 
z
" transform="scale(0.015625)"/>
       <path id="DejaVuSans-64" d="M 2906 2969 
L 2906 4863 
L 3481 4863 
L 3481 0 
L 2906 0 
L 2906 525 
Q 2725 213 2448 61 
Q 2172 -91 1784 -91 
Q 1150 -91 751 415 
Q 353 922 353 1747 
Q 353 2572 751 3078 
Q 1150 3584 1784 3584 
Q 2172 3584 2448 3432 
Q 2725 3281 2906 2969 
z
M 947 1747 
Q 947 1113 1208 752 
Q 1469 391 1925 391 
Q 2381 391 2643 752 
Q 2906 1113 2906 1747 
Q 2906 2381 2643 2742 
Q 2381 3103 1925 3103 
Q 1469 3103 1208 2742 
Q 947 2381 947 1747 
z
" transform="scale(0.015625)"/>
       <path id="DejaVuSans-72" d="M 2631 2963 
Q 2534 3019 2420 3045 
Q 2306 3072 2169 3072 
Q 1681 3072 1420 2755 
Q 1159 2438 1159 1844 
L 1159 0 
L 581 0 
L 581 3500 
L 1159 3500 
L 1159 2956 
Q 1341 3275 1631 3429 
Q 1922 3584 2338 3584 
Q 2397 3584 2469 3576 
Q 2541 3569 2628 3553 
L 2631 2963 
z
" transform="scale(0.015625)"/>
       <path id="DejaVuSans-77" d="M 269 3500 
L 844 3500 
L 1563 769 
L 2278 3500 
L 2956 3500 
L 3675 769 
L 4391 3500 
L 4966 3500 
L 4050 0 
L 3372 0 
L 2619 2869 
L 1863 0 
L 1184 0 
L 269 3500 
z
" transform="scale(0.015625)"/>
      </defs>
      <use xlink:href="#DejaVuSans-6d"/>
      <use xlink:href="#DejaVuSans-65" x="97.412109"/>
      <use xlink:href="#DejaVuSans-61" x="158.935547"/>
      <use xlink:href="#DejaVuSans-6e" x="220.214844"/>
      <use xlink:href="#DejaVuSans-20" x="283.59375"/>
      <use xlink:href="#DejaVuSans-65" x="315.380859"/>
      <use xlink:href="#DejaVuSans-70" x="376.904297"/>
      <use xlink:href="#DejaVuSans-69" x="440.380859"/>
      <use xlink:href="#DejaVuSans-73" x="468.164062"/>
      <use xlink:href="#DejaVuSans-6f" x="520.263672"/>
      <use xlink:href="#DejaVuSans-64" x="581.445312"/>
      <use xlink:href="#DejaVuSans-65" x="644.921875"/>
      <use xlink:href="#DejaVuSans-20" x="706.445312"/>
      <use xlink:href="#DejaVuSans-72" x="738.232422"/>
      <use xlink:href="#DejaVuSans-65" x="777.095703"/>
      <use xlink:href="#DejaVuSans-77" x="838.619141"/>
      <use xlink:href="#DejaVuSans-61" x="920.40625"/>
      <use xlink:href="#DejaVuSans-72" x="981.685547"/>
      <use xlink:href="#DejaVuSans-64" x="1021.048828"/>
      <use xlink:href="#DejaVuSans-73" x="1084.525391"/>
     </g>
    </g>
   </g>
   <g id="line2d_12">
    <path d="M 73.832727 295.488 
L 74.443542 288.21528 
L 74.768444 286.265063 
L 74.898404 286.438901 
L 75.015369 286.118098 
L 75.301282 284.750955 
L 75.509219 283.960822 
L 75.821124 286.137955 
L 75.938089 286.182014 
L 76.120034 286.596366 
L 76.301978 286.439099 
L 76.418943 286.591311 
L 76.743844 285.163548 
L 76.977774 282.704224 
L 77.211703 282.194469 
L 77.380651 283.277066 
L 77.562596 283.456315 
L 77.692557 283.141688 
L 77.848509 282.342445 
L 78.238391 285.514656 
L 78.355356 285.716801 
L 78.40734 286.060022 
L 78.628273 286.349241 
L 78.77123 286.224124 
L 79.148115 284.916385 
L 79.252084 284.65483 
L 79.525001 285.239117 
L 79.69395 284.538882 
L 79.888891 284.771983 
L 80.12282 282.998119 
L 80.239784 282.907198 
L 80.525698 287.323041 
L 80.668654 287.282703 
L 81.214489 290.484455 
L 81.383437 290.955318 
L 81.617367 289.84741 
L 81.8383 288.818491 
L 82.072229 286.419448 
L 82.293162 285.414936 
L 82.488102 285.849995 
L 82.787012 283.658521 
L 83.176894 282.89556 
L 83.423819 285.231573 
L 83.787708 285.994451 
L 84.099614 287.334137 
L 84.281559 286.718114 
L 84.437511 284.97389 
L 84.54148 285.680748 
L 84.67144 285.343342 
L 84.918365 285.575514 
L 85.087314 285.698431 
L 85.217275 284.301518 
L 85.347235 284.381494 
L 85.451204 283.514298 
L 85.724121 286.23367 
L 85.932058 286.474978 
L 86.334936 284.997403 
L 86.425908 285.092391 
L 86.568865 285.909253 
L 86.698826 284.572646 
L 86.828786 284.879679 
L 87.101703 283.806181 
L 87.231664 283.810804 
L 87.413609 284.876604 
L 87.478589 284.05567 
L 87.67353 284.313168 
L 87.933451 283.456347 
L 88.154384 285.494591 
L 88.453293 286.98189 
L 88.66123 285.187367 
L 88.817183 286.204736 
L 88.947144 285.757148 
L 89.103096 285.937413 
L 89.259049 285.155024 
L 89.337025 285.559819 
L 89.583951 285.422137 
L 89.700915 283.109363 
L 89.856868 282.683327 
L 89.921848 283.905505 
L 90.064805 284.362391 
L 90.220757 282.99555 
L 90.519667 285.696732 
L 90.623635 285.633346 
L 90.727604 285.977999 
L 90.987525 288.123395 
L 91.195462 288.881239 
L 91.29943 289.821547 
L 91.416395 289.836063 
L 91.59834 288.620699 
L 91.741296 288.88592 
L 91.819273 288.582355 
L 91.962229 289.370386 
L 92.131178 289.137294 
L 92.365107 286.426476 
L 92.482072 287.291466 
L 92.58604 287.014004 
L 92.677013 287.12538 
L 92.793977 287.944234 
L 92.910942 286.863142 
L 93.066894 286.909493 
L 93.144871 286.57853 
L 93.287827 284.730848 
L 93.417788 286.462176 
L 93.690705 285.220587 
L 93.820666 285.907907 
L 94.002611 285.643355 
L 94.093583 282.089257 
L 94.197551 282.131814 
L 94.340508 282.210468 
L 94.483465 281.662874 
L 94.652414 284.297515 
L 94.79537 280.936388 
L 94.964319 281.273564 
L 95.081283 277.039675 
L 95.250232 276.392774 
L 95.341205 274.982909 
L 95.484161 277.94675 
L 95.887039 276.677027 
L 96.068984 274.035039 
L 96.172952 270.304988 
L 96.302913 272.319947 
L 96.44587 272.791122 
L 96.614818 276.526541 
L 96.718787 274.649831 
L 96.87474 276.284466 
L 97.290613 273.373518 
L 97.420574 270.84765 
L 97.628511 272.077017 
L 97.784464 271.788177 
L 98.395278 265.740592 
L 98.681192 264.698188 
L 98.850141 260.977104 
L 99.27901 257.054619 
L 99.525936 257.38957 
L 99.746869 253.864568 
L 100.019786 252.209362 
L 100.13675 252.81042 
L 100.383675 250.813888 
L 100.513636 251.096586 
L 100.760561 250.682238 
L 101.124451 251.631769 
L 101.540325 251.601343 
L 101.826238 253.157053 
L 101.982191 254.984733 
L 102.190128 253.112625 
L 102.372072 253.941644 
L 102.813938 251.647145 
L 103.008879 252.511479 
L 103.216816 250.702829 
L 103.450745 250.438728 
L 103.69767 249.419908 
L 103.905607 247.711584 
L 104.074556 248.478725 
L 104.334477 248.945927 
L 104.464438 247.730326 
L 104.763347 247.838206 
L 104.893308 247.019557 
L 105.127237 246.977044 
L 105.738052 250.735903 
L 105.932993 251.30668 
L 106.101941 250.70748 
L 106.33587 251.083217 
L 106.478827 251.735106 
L 106.69976 251.492992 
L 106.868709 252.190148 
L 107.06365 252.292632 
L 107.466528 251.081214 
L 107.895397 249.911973 
L 108.103334 251.64378 
L 108.493216 251.714111 
L 108.701153 252.608727 
L 109.039051 251.038907 
L 109.389944 252.132365 
L 109.571889 252.441657 
L 109.740838 253.545912 
L 109.948775 252.12947 
L 110.13072 251.757224 
L 110.299668 252.251094 
L 110.494609 252.359328 
L 110.845503 253.498466 
L 110.988459 253.667149 
L 111.313361 253.059861 
L 111.48231 252.804836 
L 111.794215 253.939548 
L 112.184097 253.922623 
L 112.34005 253.59849 
L 112.47001 254.281202 
L 112.703939 254.49308 
L 112.976856 255.217387 
L 113.145805 255.417305 
L 113.483703 254.426107 
L 113.678644 254.472254 
L 113.873585 253.986566 
L 114.029537 254.154721 
L 114.341443 252.723682 
L 114.497395 252.7838 
L 114.796305 252.241737 
L 114.991246 252.627546 
L 115.160194 253.357853 
L 115.342139 253.169668 
L 115.4721 253.724056 
L 115.693033 253.054843 
L 115.848985 253.19286 
L 116.017934 253.839471 
L 116.186883 253.403304 
L 116.32984 253.361582 
L 116.498788 253.162383 
L 116.667737 253.242742 
L 116.862678 252.555463 
L 117.070615 252.624897 
L 117.239564 251.765372 
L 117.395516 251.716602 
L 117.525477 251.457514 
L 117.772402 251.782696 
L 117.915359 251.157374 
L 118.097304 250.974082 
L 118.227264 251.250036 
L 118.409209 250.674093 
L 118.526174 251.055743 
L 118.734111 251.339907 
L 118.864071 251.751051 
L 119.175977 253.05282 
L 119.39691 252.433544 
L 119.513874 253.480638 
L 119.877764 253.29528 
L 120.072705 253.175295 
L 120.553559 251.416484 
L 121.138381 250.371422 
L 121.359314 249.313417 
L 121.996121 244.412842 
L 122.178066 243.783643 
L 122.373007 244.568521 
L 122.723901 241.742634 
L 122.983822 241.943488 
L 123.412692 239.976887 
L 123.633625 240.572598 
L 123.81557 240.383794 
L 124.218447 239.091912 
L 124.569341 236.935856 
L 124.80327 236.69818 
L 124.998211 236.285536 
L 125.245136 232.968091 
L 125.72599 232.681427 
L 125.972915 232.23722 
L 126.232836 230.392448 
L 126.479762 230.083848 
L 127.038592 225.700214 
L 127.37649 226.481023 
L 127.623415 224.097644 
L 127.909328 223.068275 
L 128.169249 220.275286 
L 128.520143 218.577188 
L 128.819052 214.735737 
L 129.091969 214.333984 
L 129.429867 211.836094 
L 129.702784 213.029803 
L 130.066674 212.341062 
L 130.352587 207.829153 
L 130.703481 206.183032 
L 131.00239 204.13569 
L 131.574217 201.533265 
L 132.314992 193.329452 
L 133.081759 186.767049 
L 133.588606 181.842324 
L 134.056464 175.568305 
L 134.537318 172.450872 
L 134.9272 166.095872 
L 135.693967 160.526499 
L 135.966885 156.970528 
L 136.668672 153.421177 
L 137.747345 144.578629 
L 138.12423 138.092821 
L 138.670065 132.364581 
L 139.215899 130.722045 
L 140.346556 119.736683 
L 141.139316 115.317752 
L 141.62017 111.655953 
L 142.230985 109.086393 
L 142.750827 106.101945 
L 143.348646 105.114279 
L 144.492299 102.667202 
L 145.194086 99.039453 
L 145.778909 98.728925 
L 146.89657 98.789509 
L 147.572365 98.075902 
L 148.053219 96.037397 
L 148.793995 95.635295 
L 149.196872 92.430358 
L 149.950644 92.417705 
L 150.353522 91.407832 
L 151.510171 91.344145 
L 152.289934 90.645487 
L 152.718804 89.015058 
L 153.823469 88.476715 
L 154.642221 88.832179 
L 154.967123 89.499543 
L 155.759882 88.756699 
L 156.058791 89.213197 
L 156.877543 89.894628 
L 157.176453 89.196832 
L 158.021196 89.861318 
L 158.37209 90.959153 
L 159.567727 93.270363 
L 160.139554 93.703901 
L 160.58142 93.524466 
L 161.244219 94.968102 
L 161.764061 94.362662 
L 162.933707 91.31755 
L 163.544521 90.978955 
L 164.675178 89.617348 
L 165.078056 90.229218 
L 165.831828 90.240599 
L 166.273694 88.838783 
L 166.871512 88.924177 
L 168.080146 91.265878 
L 168.535008 91.570429 
L 169.171815 93.049235 
L 169.704653 92.46225 
L 170.224496 93.466732 
L 170.601381 91.645064 
L 171.368149 93.156033 
L 171.784023 94.908884 
L 172.368845 95.91836 
L 172.693747 98.080205 
L 173.40853 99.555667 
L 173.694443 101.913001 
L 174.487203 102.599785 
L 174.890081 102.299192 
L 175.656848 101.344932 
L 176.137702 100.48831 
L 177.346336 95.999606 
L 177.996139 95.01077 
L 179.230764 89.080946 
L 179.594654 85.440285 
L 180.361421 82.239773 
L 181.570055 80.293164 
L 182.063905 79.14473 
L 182.765692 79.530851 
L 183.23355 80.028555 
L 183.974326 75.930329 
L 184.442184 72.501145 
L 185.040003 74.909775 
L 185.637821 75.885357 
L 186.326612 73.854088 
L 186.846455 75.316551 
L 187.483262 74.105169 
L 187.964116 75.348367 
L 188.587927 77.289839 
L 189.783564 79.623447 
L 190.381383 79.459409 
L 190.940213 78.400871 
L 191.629004 77.613508 
L 191.992894 79.067878 
L 192.785654 79.520849 
L 193.175535 79.930764 
L 193.981291 79.719146 
L 194.358177 76.41439 
L 195.228913 73.24892 
L 195.56681 72.75479 
L 196.476534 73.788875 
L 196.801436 71.519731 
L 197.64618 72.800061 
L 198.088046 71.527472 
L 199.348663 68.70298 
L 200.596285 66.97572 
L 201.33706 67.17666 
L 201.778926 66.193398 
L 202.55869 66.443667 
L 203.078532 67.033775 
L 203.741331 66.913797 
L 204.313158 66.482682 
L 204.975957 67.04015 
L 205.417823 69.343542 
L 206.652448 71.358057 
L 207.432212 72.293431 
L 207.939058 73.457875 
L 208.705826 71.01632 
L 209.173684 71.355325 
L 209.927455 71.347565 
L 210.421306 71.880217 
L 211.214065 70.526916 
L 211.616943 68.822743 
L 212.422699 67.124941 
L 212.851569 66.825154 
L 213.644328 66.793992 
L 214.09919 66.144851 
L 214.826969 67.103369 
L 215.32082 66.902377 
L 216.061595 66.013496 
L 216.529453 66.187907 
L 217.309217 66.982017 
L 217.764079 66.325888 
L 218.51785 66.365235 
L 218.985708 66.16841 
L 219.726484 65.206557 
L 220.16835 66.77776 
L 221.000097 66.125426 
L 221.389979 66.036361 
L 221.961806 67.31997 
L 222.611609 68.000901 
L 223.222423 68.879446 
L 223.781254 70.495952 
L 224.522029 70.506358 
L 225.795643 71.985994 
L 226.237509 71.689212 
L 227.043265 71.730631 
L 227.472135 71.930066 
L 228.056957 72.417427 
L 228.70676 72.774667 
L 229.291583 72.778434 
L 229.902398 73.394923 
L 230.552201 73.552633 
L 231.137023 76.149404 
L 231.747838 77.175383 
L 232.345657 77.050736 
L 232.956472 79.016478 
L 233.55429 79.626992 
L 234.087129 79.313703 
L 234.580979 78.706195 
L 235.256774 79.632628 
L 235.854593 77.839692 
L 236.517392 77.861177 
L 237.089218 74.48951 
L 238.297852 73.101955 
L 238.908666 72.092763 
L 239.493489 72.948211 
L 241.416906 72.067171 
L 242.014724 71.406157 
L 242.612543 73.809273 
L 243.275342 73.793583 
L 243.847169 72.534028 
L 244.47098 73.790198 
L 245.133779 73.625163 
L 245.692609 74.017916 
L 246.3814 73.662379 
L 246.927235 72.314105 
L 247.655014 71.022026 
L 248.213845 71.759234 
L 248.772675 70.306446 
L 249.344502 71.083024 
L 249.994305 71.669791 
L 250.553135 69.59381 
L 251.189942 69.426655 
L 251.761769 67.9324 
L 252.437564 67.136716 
L 253.594213 71.851877 
L 254.23102 71.709334 
L 254.828838 70.895714 
L 255.491637 70.815313 
L 256.050468 71.45308 
L 256.765251 72.849171 
L 257.246105 73.485999 
L 258.012873 73.133937 
L 258.506723 73.774938 
L 259.247498 73.142192 
L 259.767341 71.465824 
L 260.469128 72.855874 
L 261.573793 75.897631 
L 262.171612 76.25409 
L 262.808419 77.057866 
L 263.900088 78.918076 
L 264.562887 81.53407 
L 265.108721 82.496923 
L 265.823504 81.868533 
L 266.421323 80.871115 
L 266.876185 80.525738 
L 267.590968 80.486023 
L 268.370732 82.313517 
L 268.799602 81.535916 
L 269.410416 82.735956 
L 269.982243 86.570158 
L 271.125896 81.745327 
L 272.360522 80.894144 
L 273.296238 81.202296 
L 273.582151 80.527066 
L 274.530864 79.493697 
L 274.855765 79.576081 
L 275.804477 78.681357 
L 276.155371 73.98674 
L 277.065095 74.412903 
L 277.441981 74.456863 
L 278.247736 75.672249 
L 278.715595 76.759173 
L 279.937224 76.859575 
L 280.690996 75.701125 
L 281.314806 76.161003 
L 282.02959 75.344457 
L 282.627408 75.288146 
L 283.355188 75.988913 
L 283.758065 76.825696 
L 284.576817 77.487867 
L 285.018683 76.29148 
L 286.279301 75.065902 
L 287.098053 75.789874 
L 287.409958 76.390593 
L 288.345674 77.674423 
L 288.683572 79.2256 
L 289.502323 79.361446 
L 289.957185 79.016881 
L 290.762941 78.777836 
L 291.165819 79.466097 
L 291.945582 80.280699 
L 292.413441 80.992587 
L 293.167212 81.508186 
L 293.57009 81.388688 
L 294.752731 80.306408 
L 295.649459 81.818105 
L 296.000353 82.68376 
L 296.832101 84.018152 
L 297.234978 84.178699 
L 298.4826 85.112572 
L 299.262364 85.305643 
L 299.743218 84.601097 
L 300.445005 85.377293 
L 300.964847 86.27026 
L 301.718619 86.234753 
L 302.199473 86.526586 
L 302.927252 86.719569 
L 303.39511 88.077404 
L 304.096897 88.140443 
L 304.61674 88.300645 
L 305.331523 88.216015 
L 305.734401 89.924032 
L 306.995019 89.712402 
L 307.74879 90.005687 
L 308.190656 89.831831 
L 308.983416 88.311171 
L 309.451274 88.32848 
L 310.179053 88.066813 
L 310.698895 87.420271 
L 311.400683 87.418618 
L 311.959513 86.925679 
L 312.674296 86.960615 
L 313.168147 86.732691 
L 313.856938 86.186245 
L 314.298804 86.349527 
L 315.104559 87.127803 
L 315.559421 86.90906 
L 316.794047 87.417611 
L 317.50883 86.988365 
L 318.028673 86.399146 
L 318.678475 86.717118 
L 319.315282 86.14356 
L 320.562904 86.404128 
L 321.199711 86.287424 
L 321.836518 86.414604 
L 322.499317 86.199871 
L 323.694954 85.471264 
L 324.43573 85.462728 
L 324.955572 84.975084 
L 325.579383 84.967944 
L 326.164205 84.836421 
L 327.450815 83.767654 
L 328.074626 82.872489 
L 328.646453 82.459124 
L 329.34824 82.661559 
L 329.920066 82.072748 
L 330.582865 81.731697 
L 331.141696 81.057536 
L 331.856479 80.644448 
L 332.441302 79.923945 
L 333.221065 79.216724 
L 333.714916 78.378007 
L 334.520671 77.62674 
L 335.040514 76.766792 
L 335.755297 75.920998 
L 336.353115 76.25422 
L 336.989922 75.66334 
L 337.665717 75.463417 
L 338.289528 74.973585 
L 339.615126 71.871723 
L 340.277925 71.242357 
L 340.914732 71.212395 
L 341.499555 70.944103 
L 342.24033 71.357132 
L 342.799161 70.511665 
L 343.46196 69.750046 
L 344.033786 68.174451 
L 344.735573 67.074711 
L 345.255416 67.857446 
L 346.009187 68.698109 
L 346.645994 68.870701 
L 347.412762 69.248432 
L 349.479135 65.067492 
L 350.076954 64.196259 
L 350.64878 65.562309 
L 351.363563 65.954278 
L 352.585193 63.04341 
L 353.35196 61.807176 
L 353.897795 60.499308 
L 354.57359 60.680785 
L 355.262381 60.341408 
L 355.886192 60.823073 
L 356.484011 61.662618 
L 357.172802 59.881359 
L 357.783616 58.82875 
L 358.4984 59.217196 
L 359.109214 58.792405 
L 359.811002 58.701469 
L 360.369832 58.063311 
L 361.084615 57.589367 
L 361.708426 57.501159 
L 362.436206 56.783955 
L 363.086008 55.192224 
L 363.735811 54.845057 
L 364.450595 53.607938 
L 365.009425 53.568 
L 365.802185 53.649268 
L 366.270043 54.152631 
L 367.075799 54.653156 
L 367.530661 55.949132 
L 368.32342 56.549305 
L 368.713302 57.684755 
L 369.960924 58.2664 
L 370.922632 60.085809 
L 371.234537 59.425911 
L 372.157258 59.901961 
L 372.508151 59.456502 
L 373.339899 60.601325 
L 373.729781 59.957352 
L 374.704485 59.841554 
L 375.01639 59.270881 
L 375.900122 59.920431 
L 376.251016 61.04584 
L 377.121752 61.318084 
L 377.537626 61.764603 
L 378.863224 62.174285 
L 379.694972 61.158464 
L 380.097849 60.375295 
L 380.890609 61.05274 
L 381.345471 61.923643 
L 382.177219 61.903646 
L 382.593093 60.637338 
L 383.476825 60.042552 
L 383.85371 61.146315 
L 384.659466 61.138362 
L 385.127324 61.906313 
L 385.829111 62.352599 
L 386.348954 62.927398 
L 387.570583 61.936828 
L 388.285367 61.953685 
L 389.494 62.871702 
L 390.065827 61.813161 
L 391.300452 61.158414 
L 391.976247 60.822816 
L 392.535078 60.833663 
L 393.210873 60.65531 
L 393.730715 61.424919 
L 394.34153 61.810805 
L 394.952345 63.227891 
L 396.134986 64.565626 
L 396.719809 65.66705 
L 397.278639 66.980298 
L 397.863462 68.768282 
L 398.487273 70.309962 
L 398.487273 70.309962 
" clip-path="url(#pdd8efee29a)" style="fill: none; stroke: #1f77b4; stroke-width: 1.5; stroke-linecap: square"/>
   </g>
   <g id="patch_3">
    <path d="M 57.6 307.584 
L 57.6 41.472 
" style="fill: none; stroke: #000000; stroke-width: 0.8; stroke-linejoin: miter; stroke-linecap: square"/>
   </g>
   <g id="patch_4">
    <path d="M 414.72 307.584 
L 414.72 41.472 
" style="fill: none; stroke: #000000; stroke-width: 0.8; stroke-linejoin: miter; stroke-linecap: square"/>
   </g>
   <g id="patch_5">
    <path d="M 57.6 307.584 
L 414.72 307.584 
" style="fill: none; stroke: #000000; stroke-width: 0.8; stroke-linejoin: miter; stroke-linecap: square"/>
   </g>
   <g id="patch_6">
    <path d="M 57.6 41.472 
L 414.72 41.472 
" style="fill: none; stroke: #000000; stroke-width: 0.8; stroke-linejoin: miter; stroke-linecap: square"/>
   </g>
   <g id="text_14">
    <!-- learning curve -->
    <g transform="translate(192.96375 35.472) scale(0.12 -0.12)">
     <defs>
      <path id="DejaVuSans-6c" d="M 603 4863 
L 1178 4863 
L 1178 0 
L 603 0 
L 603 4863 
z
" transform="scale(0.015625)"/>
      <path id="DejaVuSans-67" d="M 2906 1791 
Q 2906 2416 2648 2759 
Q 2391 3103 1925 3103 
Q 1463 3103 1205 2759 
Q 947 2416 947 1791 
Q 947 1169 1205 825 
Q 1463 481 1925 481 
Q 2391 481 2648 825 
Q 2906 1169 2906 1791 
z
M 3481 434 
Q 3481 -459 3084 -895 
Q 2688 -1331 1869 -1331 
Q 1566 -1331 1297 -1286 
Q 1028 -1241 775 -1147 
L 775 -588 
Q 1028 -725 1275 -790 
Q 1522 -856 1778 -856 
Q 2344 -856 2625 -561 
Q 2906 -266 2906 331 
L 2906 616 
Q 2728 306 2450 153 
Q 2172 0 1784 0 
Q 1141 0 747 490 
Q 353 981 353 1791 
Q 353 2603 747 3093 
Q 1141 3584 1784 3584 
Q 2172 3584 2450 3431 
Q 2728 3278 2906 2969 
L 2906 3500 
L 3481 3500 
L 3481 434 
z
" transform="scale(0.015625)"/>
      <path id="DejaVuSans-63" d="M 3122 3366 
L 3122 2828 
Q 2878 2963 2633 3030 
Q 2388 3097 2138 3097 
Q 1578 3097 1268 2742 
Q 959 2388 959 1747 
Q 959 1106 1268 751 
Q 1578 397 2138 397 
Q 2388 397 2633 464 
Q 2878 531 3122 666 
L 3122 134 
Q 2881 22 2623 -34 
Q 2366 -91 2075 -91 
Q 1284 -91 818 406 
Q 353 903 353 1747 
Q 353 2603 823 3093 
Q 1294 3584 2113 3584 
Q 2378 3584 2631 3529 
Q 2884 3475 3122 3366 
z
" transform="scale(0.015625)"/>
      <path id="DejaVuSans-75" d="M 544 1381 
L 544 3500 
L 1119 3500 
L 1119 1403 
Q 1119 906 1312 657 
Q 1506 409 1894 409 
Q 2359 409 2629 706 
Q 2900 1003 2900 1516 
L 2900 3500 
L 3475 3500 
L 3475 0 
L 2900 0 
L 2900 538 
Q 2691 219 2414 64 
Q 2138 -91 1772 -91 
Q 1169 -91 856 284 
Q 544 659 544 1381 
z
M 1991 3584 
L 1991 3584 
z
" transform="scale(0.015625)"/>
      <path id="DejaVuSans-76" d="M 191 3500 
L 800 3500 
L 1894 563 
L 2988 3500 
L 3597 3500 
L 2284 0 
L 1503 0 
L 191 3500 
z
" transform="scale(0.015625)"/>
     </defs>
     <use xlink:href="#DejaVuSans-6c"/>
     <use xlink:href="#DejaVuSans-65" x="27.783203"/>
     <use xlink:href="#DejaVuSans-61" x="89.306641"/>
     <use xlink:href="#DejaVuSans-72" x="150.585938"/>
     <use xlink:href="#DejaVuSans-6e" x="189.949219"/>
     <use xlink:href="#DejaVuSans-69" x="253.328125"/>
     <use xlink:href="#DejaVuSans-6e" x="281.111328"/>
     <use xlink:href="#DejaVuSans-67" x="344.490234"/>
     <use xlink:href="#DejaVuSans-20" x="407.966797"/>
     <use xlink:href="#DejaVuSans-63" x="439.753906"/>
     <use xlink:href="#DejaVuSans-75" x="494.734375"/>
     <use xlink:href="#DejaVuSans-72" x="558.113281"/>
     <use xlink:href="#DejaVuSans-76" x="599.226562"/>
     <use xlink:href="#DejaVuSans-65" x="658.40625"/>
    </g>
   </g>
  </g>
 </g>
 <defs>
  <clipPath id="pdd8efee29a">
   <rect x="57.6" y="41.472" width="357.12" height="266.112"/>
  </clipPath>
 </defs>
</svg>
