<?xml version="1.0" encoding="utf-8" standalone="no"?>
<!DOCTYPE svg PUBLIC "-//W3C//DTD SVG 1.1//EN"
  "http://www.w3.org/Graphics/SVG/1.1/DTD/svg11.dtd">
<svg xmlns:xlink="http://www.w3.org/1999/xlink" width="460.8pt" height="345.6pt" viewBox="0 0 460.8 345.6" xmlns="http://www.w3.org/2000/svg" version="1.1">
 <metadata>
  <rdf:RDF xmlns:dc="http://purl.org/dc/elements/1.1/" xmlns:cc="http://creativecommons.org/ns#" xmlns:rdf="http://www.w3.org/1999/02/22-rdf-syntax-ns#">
   <cc:Work>
    <dc:type rdf:resource="http://purl.org/dc/dcmitype/StillImage"/>
    <dc:date>2023-08-19T13:16:30.498724</dc:date>
    <dc:format>image/svg+xml</dc:format>
    <dc:creator>
     <cc:Agent>
      <dc:title>Matplotlib v3.7.1, https://matplotlib.org/</dc:title>
     </cc:Agent>
    </dc:creator>
   </cc:Work>
  </rdf:RDF>
 </metadata>
 <defs>
  <style type="text/css">*{stroke-linejoin: round; stroke-linecap: butt}</style>
 </defs>
 <g id="figure_1">
  <g id="patch_1">
   <path d="M 0 345.6 
L 460.8 345.6 
L 460.8 0 
L 0 0 
z
" style="fill: #ffffff"/>
  </g>
  <g id="axes_1">
   <g id="patch_2">
    <path d="M 57.6 307.584 
L 414.72 307.584 
L 414.72 41.472 
L 57.6 41.472 
z
" style="fill: #ffffff"/>
   </g>
   <g id="matplotlib.axis_1">
    <g id="xtick_1">
     <g id="line2d_1">
      <defs>
       <path id="mec54e7bd18" d="M 0 0 
L 0 3.5 
" style="stroke: #000000; stroke-width: 0.8"/>
      </defs>
      <g>
       <use xlink:href="#mec54e7bd18" x="73.418627" y="307.584" style="stroke: #000000; stroke-width: 0.8"/>
      </g>
     </g>
     <g id="text_1">
      <!-- 0 -->
      <g transform="translate(70.237377 322.182437) scale(0.1 -0.1)">
       <defs>
        <path id="DejaVuSans-30" d="M 2034 4250 
Q 1547 4250 1301 3770 
Q 1056 3291 1056 2328 
Q 1056 1369 1301 889 
Q 1547 409 2034 409 
Q 2525 409 2770 889 
Q 3016 1369 3016 2328 
Q 3016 3291 2770 3770 
Q 2525 4250 2034 4250 
z
M 2034 4750 
Q 2819 4750 3233 4129 
Q 3647 3509 3647 2328 
Q 3647 1150 3233 529 
Q 2819 -91 2034 -91 
Q 1250 -91 836 529 
Q 422 1150 422 2328 
Q 422 3509 836 4129 
Q 1250 4750 2034 4750 
z
" transform="scale(0.015625)"/>
       </defs>
       <use xlink:href="#DejaVuSans-30"/>
      </g>
     </g>
    </g>
    <g id="xtick_2">
     <g id="line2d_2">
      <g>
       <use xlink:href="#mec54e7bd18" x="114.828646" y="307.584" style="stroke: #000000; stroke-width: 0.8"/>
      </g>
     </g>
     <g id="text_2">
      <!-- 1000 -->
      <g transform="translate(102.103646 322.182437) scale(0.1 -0.1)">
       <defs>
        <path id="DejaVuSans-31" d="M 794 531 
L 1825 531 
L 1825 4091 
L 703 3866 
L 703 4441 
L 1819 4666 
L 2450 4666 
L 2450 531 
L 3481 531 
L 3481 0 
L 794 0 
L 794 531 
z
" transform="scale(0.015625)"/>
       </defs>
       <use xlink:href="#DejaVuSans-31"/>
       <use xlink:href="#DejaVuSans-30" x="63.623047"/>
       <use xlink:href="#DejaVuSans-30" x="127.246094"/>
       <use xlink:href="#DejaVuSans-30" x="190.869141"/>
      </g>
     </g>
    </g>
    <g id="xtick_3">
     <g id="line2d_3">
      <g>
       <use xlink:href="#mec54e7bd18" x="156.238664" y="307.584" style="stroke: #000000; stroke-width: 0.8"/>
      </g>
     </g>
     <g id="text_3">
      <!-- 2000 -->
      <g transform="translate(143.513664 322.182437) scale(0.1 -0.1)">
       <defs>
        <path id="DejaVuSans-32" d="M 1228 531 
L 3431 531 
L 3431 0 
L 469 0 
L 469 531 
Q 828 903 1448 1529 
Q 2069 2156 2228 2338 
Q 2531 2678 2651 2914 
Q 2772 3150 2772 3378 
Q 2772 3750 2511 3984 
Q 2250 4219 1831 4219 
Q 1534 4219 1204 4116 
Q 875 4013 500 3803 
L 500 4441 
Q 881 4594 1212 4672 
Q 1544 4750 1819 4750 
Q 2544 4750 2975 4387 
Q 3406 4025 3406 3419 
Q 3406 3131 3298 2873 
Q 3191 2616 2906 2266 
Q 2828 2175 2409 1742 
Q 1991 1309 1228 531 
z
" transform="scale(0.015625)"/>
       </defs>
       <use xlink:href="#DejaVuSans-32"/>
       <use xlink:href="#DejaVuSans-30" x="63.623047"/>
       <use xlink:href="#DejaVuSans-30" x="127.246094"/>
       <use xlink:href="#DejaVuSans-30" x="190.869141"/>
      </g>
     </g>
    </g>
    <g id="xtick_4">
     <g id="line2d_4">
      <g>
       <use xlink:href="#mec54e7bd18" x="197.648683" y="307.584" style="stroke: #000000; stroke-width: 0.8"/>
      </g>
     </g>
     <g id="text_4">
      <!-- 3000 -->
      <g transform="translate(184.923683 322.182437) scale(0.1 -0.1)">
       <defs>
        <path id="DejaVuSans-33" d="M 2597 2516 
Q 3050 2419 3304 2112 
Q 3559 1806 3559 1356 
Q 3559 666 3084 287 
Q 2609 -91 1734 -91 
Q 1441 -91 1130 -33 
Q 819 25 488 141 
L 488 750 
Q 750 597 1062 519 
Q 1375 441 1716 441 
Q 2309 441 2620 675 
Q 2931 909 2931 1356 
Q 2931 1769 2642 2001 
Q 2353 2234 1838 2234 
L 1294 2234 
L 1294 2753 
L 1863 2753 
Q 2328 2753 2575 2939 
Q 2822 3125 2822 3475 
Q 2822 3834 2567 4026 
Q 2313 4219 1838 4219 
Q 1578 4219 1281 4162 
Q 984 4106 628 3988 
L 628 4550 
Q 988 4650 1302 4700 
Q 1616 4750 1894 4750 
Q 2613 4750 3031 4423 
Q 3450 4097 3450 3541 
Q 3450 3153 3228 2886 
Q 3006 2619 2597 2516 
z
" transform="scale(0.015625)"/>
       </defs>
       <use xlink:href="#DejaVuSans-33"/>
       <use xlink:href="#DejaVuSans-30" x="63.623047"/>
       <use xlink:href="#DejaVuSans-30" x="127.246094"/>
       <use xlink:href="#DejaVuSans-30" x="190.869141"/>
      </g>
     </g>
    </g>
    <g id="xtick_5">
     <g id="line2d_5">
      <g>
       <use xlink:href="#mec54e7bd18" x="239.058701" y="307.584" style="stroke: #000000; stroke-width: 0.8"/>
      </g>
     </g>
     <g id="text_5">
      <!-- 4000 -->
      <g transform="translate(226.333701 322.182437) scale(0.1 -0.1)">
       <defs>
        <path id="DejaVuSans-34" d="M 2419 4116 
L 825 1625 
L 2419 1625 
L 2419 4116 
z
M 2253 4666 
L 3047 4666 
L 3047 1625 
L 3713 1625 
L 3713 1100 
L 3047 1100 
L 3047 0 
L 2419 0 
L 2419 1100 
L 313 1100 
L 313 1709 
L 2253 4666 
z
" transform="scale(0.015625)"/>
       </defs>
       <use xlink:href="#DejaVuSans-34"/>
       <use xlink:href="#DejaVuSans-30" x="63.623047"/>
       <use xlink:href="#DejaVuSans-30" x="127.246094"/>
       <use xlink:href="#DejaVuSans-30" x="190.869141"/>
      </g>
     </g>
    </g>
    <g id="xtick_6">
     <g id="line2d_6">
      <g>
       <use xlink:href="#mec54e7bd18" x="280.46872" y="307.584" style="stroke: #000000; stroke-width: 0.8"/>
      </g>
     </g>
     <g id="text_6">
      <!-- 5000 -->
      <g transform="translate(267.74372 322.182437) scale(0.1 -0.1)">
       <defs>
        <path id="DejaVuSans-35" d="M 691 4666 
L 3169 4666 
L 3169 4134 
L 1269 4134 
L 1269 2991 
Q 1406 3038 1543 3061 
Q 1681 3084 1819 3084 
Q 2600 3084 3056 2656 
Q 3513 2228 3513 1497 
Q 3513 744 3044 326 
Q 2575 -91 1722 -91 
Q 1428 -91 1123 -41 
Q 819 9 494 109 
L 494 744 
Q 775 591 1075 516 
Q 1375 441 1709 441 
Q 2250 441 2565 725 
Q 2881 1009 2881 1497 
Q 2881 1984 2565 2268 
Q 2250 2553 1709 2553 
Q 1456 2553 1204 2497 
Q 953 2441 691 2322 
L 691 4666 
z
" transform="scale(0.015625)"/>
       </defs>
       <use xlink:href="#DejaVuSans-35"/>
       <use xlink:href="#DejaVuSans-30" x="63.623047"/>
       <use xlink:href="#DejaVuSans-30" x="127.246094"/>
       <use xlink:href="#DejaVuSans-30" x="190.869141"/>
      </g>
     </g>
    </g>
    <g id="xtick_7">
     <g id="line2d_7">
      <g>
       <use xlink:href="#mec54e7bd18" x="321.878738" y="307.584" style="stroke: #000000; stroke-width: 0.8"/>
      </g>
     </g>
     <g id="text_7">
      <!-- 6000 -->
      <g transform="translate(309.153738 322.182437) scale(0.1 -0.1)">
       <defs>
        <path id="DejaVuSans-36" d="M 2113 2584 
Q 1688 2584 1439 2293 
Q 1191 2003 1191 1497 
Q 1191 994 1439 701 
Q 1688 409 2113 409 
Q 2538 409 2786 701 
Q 3034 994 3034 1497 
Q 3034 2003 2786 2293 
Q 2538 2584 2113 2584 
z
M 3366 4563 
L 3366 3988 
Q 3128 4100 2886 4159 
Q 2644 4219 2406 4219 
Q 1781 4219 1451 3797 
Q 1122 3375 1075 2522 
Q 1259 2794 1537 2939 
Q 1816 3084 2150 3084 
Q 2853 3084 3261 2657 
Q 3669 2231 3669 1497 
Q 3669 778 3244 343 
Q 2819 -91 2113 -91 
Q 1303 -91 875 529 
Q 447 1150 447 2328 
Q 447 3434 972 4092 
Q 1497 4750 2381 4750 
Q 2619 4750 2861 4703 
Q 3103 4656 3366 4563 
z
" transform="scale(0.015625)"/>
       </defs>
       <use xlink:href="#DejaVuSans-36"/>
       <use xlink:href="#DejaVuSans-30" x="63.623047"/>
       <use xlink:href="#DejaVuSans-30" x="127.246094"/>
       <use xlink:href="#DejaVuSans-30" x="190.869141"/>
      </g>
     </g>
    </g>
    <g id="xtick_8">
     <g id="line2d_8">
      <g>
       <use xlink:href="#mec54e7bd18" x="363.288757" y="307.584" style="stroke: #000000; stroke-width: 0.8"/>
      </g>
     </g>
     <g id="text_8">
      <!-- 7000 -->
      <g transform="translate(350.563757 322.182437) scale(0.1 -0.1)">
       <defs>
        <path id="DejaVuSans-37" d="M 525 4666 
L 3525 4666 
L 3525 4397 
L 1831 0 
L 1172 0 
L 2766 4134 
L 525 4134 
L 525 4666 
z
" transform="scale(0.015625)"/>
       </defs>
       <use xlink:href="#DejaVuSans-37"/>
       <use xlink:href="#DejaVuSans-30" x="63.623047"/>
       <use xlink:href="#DejaVuSans-30" x="127.246094"/>
       <use xlink:href="#DejaVuSans-30" x="190.869141"/>
      </g>
     </g>
    </g>
    <g id="xtick_9">
     <g id="line2d_9">
      <g>
       <use xlink:href="#mec54e7bd18" x="404.698776" y="307.584" style="stroke: #000000; stroke-width: 0.8"/>
      </g>
     </g>
     <g id="text_9">
      <!-- 8000 -->
      <g transform="translate(391.973776 322.182437) scale(0.1 -0.1)">
       <defs>
        <path id="DejaVuSans-38" d="M 2034 2216 
Q 1584 2216 1326 1975 
Q 1069 1734 1069 1313 
Q 1069 891 1326 650 
Q 1584 409 2034 409 
Q 2484 409 2743 651 
Q 3003 894 3003 1313 
Q 3003 1734 2745 1975 
Q 2488 2216 2034 2216 
z
M 1403 2484 
Q 997 2584 770 2862 
Q 544 3141 544 3541 
Q 544 4100 942 4425 
Q 1341 4750 2034 4750 
Q 2731 4750 3128 4425 
Q 3525 4100 3525 3541 
Q 3525 3141 3298 2862 
Q 3072 2584 2669 2484 
Q 3125 2378 3379 2068 
Q 3634 1759 3634 1313 
Q 3634 634 3220 271 
Q 2806 -91 2034 -91 
Q 1263 -91 848 271 
Q 434 634 434 1313 
Q 434 1759 690 2068 
Q 947 2378 1403 2484 
z
M 1172 3481 
Q 1172 3119 1398 2916 
Q 1625 2713 2034 2713 
Q 2441 2713 2670 2916 
Q 2900 3119 2900 3481 
Q 2900 3844 2670 4047 
Q 2441 4250 2034 4250 
Q 1625 4250 1398 4047 
Q 1172 3844 1172 3481 
z
" transform="scale(0.015625)"/>
       </defs>
       <use xlink:href="#DejaVuSans-38"/>
       <use xlink:href="#DejaVuSans-30" x="63.623047"/>
       <use xlink:href="#DejaVuSans-30" x="127.246094"/>
       <use xlink:href="#DejaVuSans-30" x="190.869141"/>
      </g>
     </g>
    </g>
    <g id="text_10">
     <!-- episodes -->
     <g transform="translate(214.000625 335.860562) scale(0.1 -0.1)">
      <defs>
       <path id="DejaVuSans-65" d="M 3597 1894 
L 3597 1613 
L 953 1613 
Q 991 1019 1311 708 
Q 1631 397 2203 397 
Q 2534 397 2845 478 
Q 3156 559 3463 722 
L 3463 178 
Q 3153 47 2828 -22 
Q 2503 -91 2169 -91 
Q 1331 -91 842 396 
Q 353 884 353 1716 
Q 353 2575 817 3079 
Q 1281 3584 2069 3584 
Q 2775 3584 3186 3129 
Q 3597 2675 3597 1894 
z
M 3022 2063 
Q 3016 2534 2758 2815 
Q 2500 3097 2075 3097 
Q 1594 3097 1305 2825 
Q 1016 2553 972 2059 
L 3022 2063 
z
" transform="scale(0.015625)"/>
       <path id="DejaVuSans-70" d="M 1159 525 
L 1159 -1331 
L 581 -1331 
L 581 3500 
L 1159 3500 
L 1159 2969 
Q 1341 3281 1617 3432 
Q 1894 3584 2278 3584 
Q 2916 3584 3314 3078 
Q 3713 2572 3713 1747 
Q 3713 922 3314 415 
Q 2916 -91 2278 -91 
Q 1894 -91 1617 61 
Q 1341 213 1159 525 
z
M 3116 1747 
Q 3116 2381 2855 2742 
Q 2594 3103 2138 3103 
Q 1681 3103 1420 2742 
Q 1159 2381 1159 1747 
Q 1159 1113 1420 752 
Q 1681 391 2138 391 
Q 2594 391 2855 752 
Q 3116 1113 3116 1747 
z
" transform="scale(0.015625)"/>
       <path id="DejaVuSans-69" d="M 603 3500 
L 1178 3500 
L 1178 0 
L 603 0 
L 603 3500 
z
M 603 4863 
L 1178 4863 
L 1178 4134 
L 603 4134 
L 603 4863 
z
" transform="scale(0.015625)"/>
       <path id="DejaVuSans-73" d="M 2834 3397 
L 2834 2853 
Q 2591 2978 2328 3040 
Q 2066 3103 1784 3103 
Q 1356 3103 1142 2972 
Q 928 2841 928 2578 
Q 928 2378 1081 2264 
Q 1234 2150 1697 2047 
L 1894 2003 
Q 2506 1872 2764 1633 
Q 3022 1394 3022 966 
Q 3022 478 2636 193 
Q 2250 -91 1575 -91 
Q 1294 -91 989 -36 
Q 684 19 347 128 
L 347 722 
Q 666 556 975 473 
Q 1284 391 1588 391 
Q 1994 391 2212 530 
Q 2431 669 2431 922 
Q 2431 1156 2273 1281 
Q 2116 1406 1581 1522 
L 1381 1569 
Q 847 1681 609 1914 
Q 372 2147 372 2553 
Q 372 3047 722 3315 
Q 1072 3584 1716 3584 
Q 2034 3584 2315 3537 
Q 2597 3491 2834 3397 
z
" transform="scale(0.015625)"/>
       <path id="DejaVuSans-6f" d="M 1959 3097 
Q 1497 3097 1228 2736 
Q 959 2375 959 1747 
Q 959 1119 1226 758 
Q 1494 397 1959 397 
Q 2419 397 2687 759 
Q 2956 1122 2956 1747 
Q 2956 2369 2687 2733 
Q 2419 3097 1959 3097 
z
M 1959 3584 
Q 2709 3584 3137 3096 
Q 3566 2609 3566 1747 
Q 3566 888 3137 398 
Q 2709 -91 1959 -91 
Q 1206 -91 779 398 
Q 353 888 353 1747 
Q 353 2609 779 3096 
Q 1206 3584 1959 3584 
z
" transform="scale(0.015625)"/>
       <path id="DejaVuSans-64" d="M 2906 2969 
L 2906 4863 
L 3481 4863 
L 3481 0 
L 2906 0 
L 2906 525 
Q 2725 213 2448 61 
Q 2172 -91 1784 -91 
Q 1150 -91 751 415 
Q 353 922 353 1747 
Q 353 2572 751 3078 
Q 1150 3584 1784 3584 
Q 2172 3584 2448 3432 
Q 2725 3281 2906 2969 
z
M 947 1747 
Q 947 1113 1208 752 
Q 1469 391 1925 391 
Q 2381 391 2643 752 
Q 2906 1113 2906 1747 
Q 2906 2381 2643 2742 
Q 2381 3103 1925 3103 
Q 1469 3103 1208 2742 
Q 947 2381 947 1747 
z
" transform="scale(0.015625)"/>
      </defs>
      <use xlink:href="#DejaVuSans-65"/>
      <use xlink:href="#DejaVuSans-70" x="61.523438"/>
      <use xlink:href="#DejaVuSans-69" x="125"/>
      <use xlink:href="#DejaVuSans-73" x="152.783203"/>
      <use xlink:href="#DejaVuSans-6f" x="204.882812"/>
      <use xlink:href="#DejaVuSans-64" x="266.064453"/>
      <use xlink:href="#DejaVuSans-65" x="329.541016"/>
      <use xlink:href="#DejaVuSans-73" x="391.064453"/>
     </g>
    </g>
   </g>
   <g id="matplotlib.axis_2">
    <g id="ytick_1">
     <g id="line2d_10">
      <defs>
       <path id="mc4bb79cf1a" d="M 0 0 
L -3.5 0 
" style="stroke: #000000; stroke-width: 0.8"/>
      </defs>
      <g>
       <use xlink:href="#mc4bb79cf1a" x="57.6" y="304.745074" style="stroke: #000000; stroke-width: 0.8"/>
      </g>
     </g>
     <g id="text_11">
      <!-- 0 -->
      <g transform="translate(44.2375 308.544293) scale(0.1 -0.1)">
       <use xlink:href="#DejaVuSans-30"/>
      </g>
     </g>
    </g>
    <g id="ytick_2">
     <g id="line2d_11">
      <g>
       <use xlink:href="#mc4bb79cf1a" x="57.6" y="248.425988" style="stroke: #000000; stroke-width: 0.8"/>
      </g>
     </g>
     <g id="text_12">
      <!-- 50 -->
      <g transform="translate(37.875 252.225206) scale(0.1 -0.1)">
       <use xlink:href="#DejaVuSans-35"/>
       <use xlink:href="#DejaVuSans-30" x="63.623047"/>
      </g>
     </g>
    </g>
    <g id="ytick_3">
     <g id="line2d_12">
      <g>
       <use xlink:href="#mc4bb79cf1a" x="57.6" y="192.106901" style="stroke: #000000; stroke-width: 0.8"/>
      </g>
     </g>
     <g id="text_13">
      <!-- 100 -->
      <g transform="translate(31.5125 195.906119) scale(0.1 -0.1)">
       <use xlink:href="#DejaVuSans-31"/>
       <use xlink:href="#DejaVuSans-30" x="63.623047"/>
       <use xlink:href="#DejaVuSans-30" x="127.246094"/>
      </g>
     </g>
    </g>
    <g id="ytick_4">
     <g id="line2d_13">
      <g>
       <use xlink:href="#mc4bb79cf1a" x="57.6" y="135.787814" style="stroke: #000000; stroke-width: 0.8"/>
      </g>
     </g>
     <g id="text_14">
      <!-- 150 -->
      <g transform="translate(31.5125 139.587033) scale(0.1 -0.1)">
       <use xlink:href="#DejaVuSans-31"/>
       <use xlink:href="#DejaVuSans-35" x="63.623047"/>
       <use xlink:href="#DejaVuSans-30" x="127.246094"/>
      </g>
     </g>
    </g>
    <g id="ytick_5">
     <g id="line2d_14">
      <g>
       <use xlink:href="#mc4bb79cf1a" x="57.6" y="79.468727" style="stroke: #000000; stroke-width: 0.8"/>
      </g>
     </g>
     <g id="text_15">
      <!-- 200 -->
      <g transform="translate(31.5125 83.267946) scale(0.1 -0.1)">
       <use xlink:href="#DejaVuSans-32"/>
       <use xlink:href="#DejaVuSans-30" x="63.623047"/>
       <use xlink:href="#DejaVuSans-30" x="127.246094"/>
      </g>
     </g>
    </g>
    <g id="text_16">
     <!-- mean episode rewards -->
     <g transform="translate(25.432812 231.360031) rotate(-90) scale(0.1 -0.1)">
      <defs>
       <path id="DejaVuSans-6d" d="M 3328 2828 
Q 3544 3216 3844 3400 
Q 4144 3584 4550 3584 
Q 5097 3584 5394 3201 
Q 5691 2819 5691 2113 
L 5691 0 
L 5113 0 
L 5113 2094 
Q 5113 2597 4934 2840 
Q 4756 3084 4391 3084 
Q 3944 3084 3684 2787 
Q 3425 2491 3425 1978 
L 3425 0 
L 2847 0 
L 2847 2094 
Q 2847 2600 2669 2842 
Q 2491 3084 2119 3084 
Q 1678 3084 1418 2786 
Q 1159 2488 1159 1978 
L 1159 0 
L 581 0 
L 581 3500 
L 1159 3500 
L 1159 2956 
Q 1356 3278 1631 3431 
Q 1906 3584 2284 3584 
Q 2666 3584 2933 3390 
Q 3200 3197 3328 2828 
z
" transform="scale(0.015625)"/>
       <path id="DejaVuSans-61" d="M 2194 1759 
Q 1497 1759 1228 1600 
Q 959 1441 959 1056 
Q 959 750 1161 570 
Q 1363 391 1709 391 
Q 2188 391 2477 730 
Q 2766 1069 2766 1631 
L 2766 1759 
L 2194 1759 
z
M 3341 1997 
L 3341 0 
L 2766 0 
L 2766 531 
Q 2569 213 2275 61 
Q 1981 -91 1556 -91 
Q 1019 -91 701 211 
Q 384 513 384 1019 
Q 384 1609 779 1909 
Q 1175 2209 1959 2209 
L 2766 2209 
L 2766 2266 
Q 2766 2663 2505 2880 
Q 2244 3097 1772 3097 
Q 1472 3097 1187 3025 
Q 903 2953 641 2809 
L 641 3341 
Q 956 3463 1253 3523 
Q 1550 3584 1831 3584 
Q 2591 3584 2966 3190 
Q 3341 2797 3341 1997 
z
" transform="scale(0.015625)"/>
       <path id="DejaVuSans-6e" d="M 3513 2113 
L 3513 0 
L 2938 0 
L 2938 2094 
Q 2938 2591 2744 2837 
Q 2550 3084 2163 3084 
Q 1697 3084 1428 2787 
Q 1159 2491 1159 1978 
L 1159 0 
L 581 0 
L 581 3500 
L 1159 3500 
L 1159 2956 
Q 1366 3272 1645 3428 
Q 1925 3584 2291 3584 
Q 2894 3584 3203 3211 
Q 3513 2838 3513 2113 
z
" transform="scale(0.015625)"/>
       <path id="DejaVuSans-20" transform="scale(0.015625)"/>
       <path id="DejaVuSans-72" d="M 2631 2963 
Q 2534 3019 2420 3045 
Q 2306 3072 2169 3072 
Q 1681 3072 1420 2755 
Q 1159 2438 1159 1844 
L 1159 0 
L 581 0 
L 581 3500 
L 1159 3500 
L 1159 2956 
Q 1341 3275 1631 3429 
Q 1922 3584 2338 3584 
Q 2397 3584 2469 3576 
Q 2541 3569 2628 3553 
L 2631 2963 
z
" transform="scale(0.015625)"/>
       <path id="DejaVuSans-77" d="M 269 3500 
L 844 3500 
L 1563 769 
L 2278 3500 
L 2956 3500 
L 3675 769 
L 4391 3500 
L 4966 3500 
L 4050 0 
L 3372 0 
L 2619 2869 
L 1863 0 
L 1184 0 
L 269 3500 
z
" transform="scale(0.015625)"/>
      </defs>
      <use xlink:href="#DejaVuSans-6d"/>
      <use xlink:href="#DejaVuSans-65" x="97.412109"/>
      <use xlink:href="#DejaVuSans-61" x="158.935547"/>
      <use xlink:href="#DejaVuSans-6e" x="220.214844"/>
      <use xlink:href="#DejaVuSans-20" x="283.59375"/>
      <use xlink:href="#DejaVuSans-65" x="315.380859"/>
      <use xlink:href="#DejaVuSans-70" x="376.904297"/>
      <use xlink:href="#DejaVuSans-69" x="440.380859"/>
      <use xlink:href="#DejaVuSans-73" x="468.164062"/>
      <use xlink:href="#DejaVuSans-6f" x="520.263672"/>
      <use xlink:href="#DejaVuSans-64" x="581.445312"/>
      <use xlink:href="#DejaVuSans-65" x="644.921875"/>
      <use xlink:href="#DejaVuSans-20" x="706.445312"/>
      <use xlink:href="#DejaVuSans-72" x="738.232422"/>
      <use xlink:href="#DejaVuSans-65" x="777.095703"/>
      <use xlink:href="#DejaVuSans-77" x="838.619141"/>
      <use xlink:href="#DejaVuSans-61" x="920.40625"/>
      <use xlink:href="#DejaVuSans-72" x="981.685547"/>
      <use xlink:href="#DejaVuSans-64" x="1021.048828"/>
      <use xlink:href="#DejaVuSans-73" x="1084.525391"/>
     </g>
    </g>
   </g>
   <g id="line2d_15">
    <path d="M 73.832727 295.488 
L 74.246827 293.902554 
L 75.075028 289.890064 
L 75.903228 286.853544 
L 76.317328 286.265063 
L 76.731429 286.438901 
L 77.145529 286.118098 
L 77.559629 285.232534 
L 78.387829 284.242413 
L 78.801929 283.960822 
L 79.21603 285.297201 
L 79.63013 286.137955 
L 80.04423 286.182014 
L 80.45833 286.596366 
L 80.87243 286.439099 
L 81.286531 286.591311 
L 82.114731 285.163548 
L 82.528831 283.557918 
L 82.942931 282.704224 
L 83.357032 282.520799 
L 83.771132 282.194469 
L 84.185232 283.277066 
L 84.599332 283.456315 
L 85.013432 283.141688 
L 85.427532 282.342445 
L 85.841633 283.356051 
L 86.255733 283.962343 
L 86.669833 285.514656 
L 87.083933 285.716801 
L 87.912134 286.349241 
L 88.326234 286.224124 
L 89.154434 284.916385 
L 89.568534 284.65483 
L 90.396735 285.239117 
L 90.810835 284.538882 
L 91.224935 284.771983 
L 91.639035 283.50929 
L 92.053135 282.998119 
L 92.467236 282.907198 
L 92.881336 284.620448 
L 93.295436 285.487107 
L 93.709536 287.323041 
L 94.123636 287.282703 
L 94.537737 287.741123 
L 94.951837 289.015552 
L 95.365937 289.199952 
L 95.780037 289.658377 
L 96.194137 290.484455 
L 96.608237 290.955318 
L 97.022338 290.13367 
L 97.436438 289.84741 
L 97.850538 288.818491 
L 98.264638 286.787484 
L 98.678738 286.419448 
L 99.506939 285.414936 
L 99.921039 285.849995 
L 100.335139 284.337996 
L 100.749239 283.658521 
L 101.99154 282.89556 
L 102.40564 284.701218 
L 102.81974 285.231573 
L 103.23384 285.479299 
L 103.647941 285.931417 
L 104.062041 285.994451 
L 104.890241 287.334137 
L 105.304341 286.718114 
L 105.718442 284.97389 
L 106.132542 285.680748 
L 106.546642 285.343342 
L 106.960742 285.554491 
L 107.788942 285.698431 
L 108.203043 284.301518 
L 108.617143 284.381494 
L 109.031243 283.514298 
L 109.859443 286.23367 
L 110.273544 286.474978 
L 110.687644 286.02775 
L 111.101744 285.312111 
L 111.515844 284.997403 
L 111.929944 285.092391 
L 112.344045 285.909253 
L 112.758145 284.572646 
L 113.172245 284.879679 
L 113.586345 283.929606 
L 114.000445 283.806181 
L 114.414545 283.810804 
L 114.828646 284.876604 
L 115.242746 284.05567 
L 115.656846 284.313168 
L 116.070946 283.705227 
L 116.485046 283.456347 
L 116.899147 284.811925 
L 117.313247 285.494591 
L 117.727347 286.616525 
L 118.141447 286.98189 
L 118.555547 285.885398 
L 118.969647 285.187367 
L 119.383748 286.204736 
L 119.797848 285.757148 
L 120.211948 285.937413 
L 120.626048 285.155024 
L 121.040148 285.559819 
L 121.454249 285.422137 
L 121.868349 283.109363 
L 122.282449 282.683327 
L 122.696549 283.905505 
L 123.110649 284.362391 
L 123.52475 282.99555 
L 124.35295 284.578862 
L 124.76705 285.696732 
L 125.18115 285.633346 
L 125.59525 285.977999 
L 126.009351 287.617707 
L 126.423451 288.123395 
L 126.837551 288.401839 
L 127.251651 288.881239 
L 127.665751 289.821547 
L 128.079852 289.836063 
L 128.493952 288.997119 
L 128.908052 288.620699 
L 129.322152 288.88592 
L 129.736252 288.582355 
L 130.150353 289.370386 
L 130.564453 289.137294 
L 130.978553 287.419844 
L 131.392653 286.426476 
L 131.806753 287.291466 
L 132.220853 287.014004 
L 132.634954 287.12538 
L 133.049054 287.944234 
L 133.463154 286.863142 
L 133.877254 286.909493 
L 134.291354 286.57853 
L 134.705455 284.730848 
L 135.119555 286.462176 
L 135.947755 285.220587 
L 136.361855 285.907907 
L 136.775955 285.643355 
L 137.190056 282.089257 
L 138.018256 282.210468 
L 138.432356 281.662874 
L 138.846456 284.297515 
L 139.260557 280.936388 
L 139.674657 281.273564 
L 140.088757 277.039675 
L 140.502857 276.392774 
L 140.916957 274.982909 
L 141.331058 277.94675 
L 141.745158 277.092231 
L 142.159258 276.677027 
L 142.573358 274.035039 
L 142.987458 270.304988 
L 143.401558 272.319947 
L 143.815659 272.791122 
L 144.229759 276.526541 
L 144.643859 274.649831 
L 145.057959 276.284466 
L 145.88616 273.373518 
L 146.30026 270.84765 
L 146.71436 272.077017 
L 147.12846 271.788177 
L 147.54256 269.246444 
L 147.95666 268.14566 
L 148.370761 265.740592 
L 148.784861 264.698188 
L 149.198961 260.977104 
L 150.027161 257.054619 
L 150.441262 257.38957 
L 150.855362 253.864568 
L 151.269462 252.209362 
L 151.683562 252.81042 
L 152.097662 250.813888 
L 152.511763 251.096586 
L 152.925863 250.682238 
L 153.339963 251.000338 
L 153.754063 251.631769 
L 154.582263 251.601343 
L 155.410464 254.984733 
L 155.824564 253.112625 
L 156.238664 253.941644 
L 157.066865 251.647145 
L 157.480965 252.511479 
L 157.895065 250.702829 
L 158.309165 250.438728 
L 158.723265 249.419908 
L 159.137365 247.711584 
L 159.551466 248.478725 
L 159.965566 248.945927 
L 160.379666 247.730326 
L 160.793766 247.838206 
L 161.207866 247.019557 
L 161.621967 246.977044 
L 162.036067 248.623005 
L 162.450167 249.312298 
L 162.864267 250.735903 
L 163.278367 251.30668 
L 163.692468 250.70748 
L 164.106568 251.083217 
L 164.520668 251.735106 
L 164.934768 251.492992 
L 165.348868 252.190148 
L 165.762968 252.292632 
L 166.177069 251.280877 
L 166.591169 251.081214 
L 167.419369 249.911973 
L 167.833469 251.64378 
L 168.66167 251.714111 
L 169.07577 252.608727 
L 169.48987 252.104086 
L 169.90397 251.038907 
L 170.732171 252.132365 
L 171.146271 252.441657 
L 171.560371 253.545912 
L 171.974471 252.12947 
L 172.388571 251.757224 
L 172.802672 252.251094 
L 173.216772 252.359328 
L 174.044972 253.498466 
L 174.459072 253.667149 
L 174.873173 253.217069 
L 175.701373 252.804836 
L 176.115473 253.490568 
L 176.529573 253.939548 
L 177.357774 253.922623 
L 177.771874 253.59849 
L 178.185974 254.281202 
L 178.600074 254.49308 
L 179.428275 255.217387 
L 179.842375 255.417305 
L 180.670575 254.426107 
L 181.084675 254.472254 
L 181.498776 253.986566 
L 181.912876 254.154721 
L 182.326976 253.618013 
L 182.741076 252.723682 
L 183.155176 252.7838 
L 183.569276 252.386669 
L 183.983377 252.241737 
L 184.397477 252.627546 
L 184.811577 253.357853 
L 185.225677 253.169668 
L 185.639777 253.724056 
L 186.053878 253.054843 
L 186.467978 253.19286 
L 186.882078 253.839471 
L 187.296178 253.403304 
L 187.710278 253.361582 
L 188.124378 253.162383 
L 188.538479 253.242742 
L 188.952579 252.555463 
L 189.366679 252.624897 
L 189.780779 251.765372 
L 190.194879 251.716602 
L 190.60898 251.457514 
L 191.02308 251.782696 
L 191.43718 251.157374 
L 191.85128 250.974082 
L 192.26538 251.250036 
L 192.679481 250.674093 
L 193.921781 251.751051 
L 194.335881 252.905573 
L 194.749981 253.05282 
L 195.164082 252.433544 
L 195.578182 253.480638 
L 196.406382 253.29528 
L 196.820482 253.175295 
L 197.234583 252.516134 
L 197.648683 251.460871 
L 198.062783 251.416484 
L 198.890983 250.371221 
L 199.305083 250.371422 
L 199.719184 249.313417 
L 200.133284 246.974851 
L 200.547384 245.338453 
L 200.961484 244.412842 
L 201.375584 243.783643 
L 201.789685 244.568521 
L 202.617885 241.742634 
L 203.031985 241.943488 
L 203.446085 240.742222 
L 203.860186 239.976887 
L 204.274286 240.572598 
L 204.688386 240.383794 
L 205.102486 239.436523 
L 205.516586 239.091912 
L 205.930686 236.935856 
L 206.344787 236.69818 
L 206.758887 236.285536 
L 207.172987 232.968091 
L 208.001187 232.681427 
L 208.415288 232.23722 
L 208.829388 230.392448 
L 209.243488 230.083848 
L 209.657588 227.459766 
L 210.071688 225.700214 
L 210.485788 226.481023 
L 210.899889 224.097644 
L 211.313989 223.068275 
L 211.728089 220.275286 
L 212.142189 218.577188 
L 212.556289 214.735737 
L 212.97039 214.333984 
L 213.38449 211.836094 
L 213.79859 213.029803 
L 214.21269 212.341062 
L 214.62679 207.829153 
L 215.454991 204.13569 
L 215.869091 201.533265 
L 217.939592 181.842324 
L 218.353692 175.568305 
L 218.767792 172.450872 
L 219.595993 160.526499 
L 220.838293 149.537378 
L 221.252393 144.578629 
L 222.080594 132.364581 
L 222.494694 130.722045 
L 222.908794 123.870852 
L 224.151095 111.655953 
L 224.979295 106.101945 
L 225.807495 103.88438 
L 226.221596 102.667202 
L 226.635696 99.039453 
L 227.049796 98.728925 
L 227.877996 98.789509 
L 228.292096 98.075902 
L 228.706197 96.037397 
L 229.120297 95.635295 
L 229.534397 92.430358 
L 229.948497 92.417705 
L 230.362597 91.407832 
L 231.190798 91.344145 
L 231.604898 90.645487 
L 232.018998 89.015058 
L 232.433098 88.646673 
L 232.847199 88.476715 
L 233.261299 88.832179 
L 233.675399 89.499543 
L 234.089499 88.756699 
L 234.503599 89.213197 
L 234.917699 89.894628 
L 235.3318 89.196832 
L 235.7459 89.861318 
L 236.9882 93.270363 
L 237.402301 93.703901 
L 237.816401 93.524466 
L 238.230501 94.968102 
L 238.644601 94.362662 
L 239.058701 92.445337 
L 239.472801 91.31755 
L 239.886902 90.978955 
L 240.715102 89.617348 
L 241.129202 90.229218 
L 241.543302 90.240599 
L 241.957403 88.838783 
L 242.371503 88.924177 
L 242.785603 89.757025 
L 243.199703 91.265878 
L 243.613803 91.570429 
L 244.027904 93.049235 
L 244.442004 92.46225 
L 244.856104 93.466732 
L 245.270204 91.645064 
L 247.340705 99.555667 
L 247.754805 101.913001 
L 248.168905 102.599785 
L 248.583006 102.299192 
L 249.411206 100.48831 
L 250.239406 95.999606 
L 250.653506 95.01077 
L 251.067607 93.176728 
L 251.895807 85.440285 
L 252.309907 82.239773 
L 252.724007 81.521686 
L 253.552208 79.14473 
L 254.380408 80.028555 
L 255.208609 72.501145 
L 255.622709 74.909775 
L 256.036809 75.885357 
L 256.450909 73.854088 
L 256.865009 75.316551 
L 257.279109 74.105169 
L 257.69321 75.348367 
L 258.10731 77.289839 
L 258.93551 79.623447 
L 259.34961 79.459409 
L 260.177811 77.613508 
L 260.591911 79.067878 
L 261.420111 79.930764 
L 261.834212 79.719146 
L 262.662412 73.24892 
L 263.076512 72.75479 
L 263.490612 73.788875 
L 263.904712 71.519731 
L 264.318813 72.800061 
L 264.732913 71.527472 
L 265.147013 69.824414 
L 265.975213 67.666235 
L 266.389314 66.97572 
L 266.803414 67.17666 
L 267.217514 66.193398 
L 267.631614 66.443667 
L 268.045714 67.033775 
L 268.459814 66.913797 
L 268.873915 66.482682 
L 269.288015 67.04015 
L 269.702115 69.343542 
L 270.116215 70.660624 
L 270.530315 71.358057 
L 271.358516 73.457875 
L 271.772616 71.01632 
L 272.186716 71.355325 
L 272.600816 71.347565 
L 273.014917 71.880217 
L 273.843117 68.822743 
L 274.257217 67.124941 
L 274.671317 66.825154 
L 275.085417 66.793992 
L 275.499518 66.144851 
L 275.913618 67.103369 
L 276.327718 66.902377 
L 276.741818 66.013496 
L 277.155918 66.187907 
L 277.570019 66.982017 
L 277.984119 66.325888 
L 278.398219 66.365235 
L 278.812319 66.16841 
L 279.226419 65.206557 
L 279.640519 66.77776 
L 280.05462 66.125426 
L 280.46872 66.036361 
L 280.88282 67.31997 
L 281.71102 68.879446 
L 282.125121 70.495952 
L 282.539221 70.506358 
L 282.953321 71.123902 
L 283.367421 71.985994 
L 283.781521 71.689212 
L 284.195622 71.730631 
L 284.609722 71.930066 
L 285.437922 72.774667 
L 285.852022 72.778434 
L 286.266122 73.394923 
L 286.680223 73.552633 
L 287.094323 76.149404 
L 287.508423 77.175383 
L 287.922523 77.050736 
L 288.336623 79.016478 
L 288.750724 79.626992 
L 289.164824 79.313703 
L 289.578924 78.706195 
L 289.993024 79.632628 
L 290.407124 77.839692 
L 290.821224 77.861177 
L 291.235325 74.48951 
L 292.063525 73.101955 
L 292.477625 72.092763 
L 292.891725 72.948211 
L 293.305826 72.647485 
L 293.719926 72.488598 
L 294.134026 72.067171 
L 294.548126 71.406157 
L 294.962226 73.809273 
L 295.376327 73.793583 
L 295.790427 72.534028 
L 296.204527 73.790198 
L 296.618627 73.625163 
L 297.032727 74.017916 
L 297.446827 73.662379 
L 298.275028 71.022026 
L 298.689128 71.759234 
L 299.103228 70.306446 
L 299.931429 71.669791 
L 300.345529 69.59381 
L 300.759629 69.426655 
L 301.173729 67.9324 
L 301.587829 67.136716 
L 302.41603 71.851877 
L 302.83013 71.709334 
L 303.24423 70.895714 
L 303.65833 70.815313 
L 304.07243 71.45308 
L 304.486531 72.849171 
L 304.900631 73.485999 
L 305.314731 73.133937 
L 305.728831 73.774938 
L 306.142931 73.142192 
L 306.557032 71.465824 
L 307.799332 75.897631 
L 308.213432 76.25409 
L 309.041633 77.951164 
L 309.455733 78.918076 
L 309.869833 81.53407 
L 310.283933 82.496923 
L 310.698033 81.868533 
L 311.112134 80.871115 
L 311.526234 80.525738 
L 311.940334 80.486023 
L 312.354434 82.313517 
L 312.768534 81.535916 
L 313.182635 82.735956 
L 313.596735 86.570158 
L 314.010835 83.001731 
L 314.424935 81.745327 
L 314.839035 81.138566 
L 315.253135 80.894144 
L 315.667236 81.202296 
L 316.081336 80.527066 
L 316.495436 79.493697 
L 316.909536 79.576081 
L 317.323636 78.681357 
L 317.737737 73.98674 
L 318.151837 74.412903 
L 318.565937 74.456863 
L 319.394137 76.759173 
L 320.222338 76.859575 
L 320.636438 75.701125 
L 321.050538 76.161003 
L 321.464638 75.344457 
L 321.878738 75.288146 
L 323.121039 77.487867 
L 323.535139 76.29148 
L 324.36334 75.065902 
L 325.19154 76.390593 
L 326.01974 79.2256 
L 326.43384 79.361446 
L 327.262041 78.777836 
L 328.918442 81.508186 
L 329.332542 81.388688 
L 329.746642 80.643007 
L 330.160742 80.306408 
L 330.574842 81.818105 
L 330.988942 82.68376 
L 331.403043 84.018152 
L 331.817143 84.178699 
L 332.645343 85.112572 
L 333.059443 85.305643 
L 333.473544 84.601097 
L 334.301744 86.27026 
L 334.715844 86.234753 
L 335.544045 86.719569 
L 335.958145 88.077404 
L 337.200445 88.216015 
L 337.614545 89.924032 
L 338.442746 89.712402 
L 338.856846 90.005687 
L 339.270946 89.831831 
L 339.685046 88.311171 
L 340.099147 88.32848 
L 340.513247 88.066813 
L 340.927347 87.420271 
L 341.341447 87.418618 
L 341.755547 86.925679 
L 342.169647 86.960615 
L 342.583748 86.732691 
L 342.997848 86.186245 
L 343.411948 86.349527 
L 343.826048 87.127803 
L 344.240148 86.90906 
L 345.068349 87.417611 
L 345.896549 86.399146 
L 346.310649 86.717118 
L 346.72475 86.14356 
L 347.55295 86.404128 
L 347.96705 86.287424 
L 348.38115 86.414604 
L 348.79525 86.199871 
L 349.623451 85.471264 
L 350.037551 85.462728 
L 350.451651 84.975084 
L 350.865751 84.967944 
L 351.279852 84.836421 
L 352.108052 83.767654 
L 352.522152 82.872489 
L 352.936252 82.459124 
L 353.350353 82.661559 
L 353.764453 82.072748 
L 354.178553 81.731697 
L 354.592653 81.057536 
L 355.006753 80.644448 
L 356.663154 77.62674 
L 357.491354 75.920998 
L 357.905455 76.25422 
L 358.319555 75.66334 
L 358.733655 75.463417 
L 359.147755 74.973585 
L 359.975955 71.871723 
L 360.390056 71.242357 
L 360.804156 71.212395 
L 361.218256 70.944103 
L 361.632356 71.357132 
L 362.460557 69.750046 
L 362.874657 68.174451 
L 363.288757 67.074711 
L 364.116957 68.698109 
L 364.531058 68.870701 
L 364.945158 69.248432 
L 365.773358 66.44835 
L 366.187458 65.067492 
L 366.601558 64.196259 
L 367.015659 65.562309 
L 367.429759 65.954278 
L 367.843859 64.21604 
L 369.08616 60.499308 
L 369.50026 60.680785 
L 369.91436 60.341408 
L 370.32846 60.823073 
L 370.74256 61.662618 
L 371.15666 59.881359 
L 371.570761 58.82875 
L 371.984861 59.217196 
L 372.398961 58.792405 
L 372.813061 58.701469 
L 373.641262 57.589367 
L 374.055362 57.501159 
L 374.469462 56.783955 
L 374.883562 55.192224 
L 375.297662 54.845057 
L 375.711763 53.607938 
L 376.125863 53.568 
L 376.539963 53.649268 
L 377.368163 54.653156 
L 377.782263 55.949132 
L 378.196364 56.549305 
L 378.610464 57.684755 
L 379.438664 58.2664 
L 379.852764 60.085809 
L 380.266865 59.425911 
L 380.680965 59.901961 
L 381.095065 59.456502 
L 381.509165 60.601325 
L 381.923265 59.957352 
L 382.337365 59.841554 
L 382.751466 59.270881 
L 383.165566 59.920431 
L 383.579666 61.04584 
L 383.993766 61.318084 
L 384.407866 61.764603 
L 385.236067 62.174285 
L 386.064267 60.375295 
L 386.892468 61.923643 
L 387.306568 61.903646 
L 387.720668 60.637338 
L 388.134768 60.042552 
L 388.548868 61.146315 
L 388.962968 61.138362 
L 389.377069 61.906313 
L 390.205269 62.927398 
L 391.033469 61.936828 
L 391.44757 61.953685 
L 392.27577 62.871702 
L 392.68987 61.813161 
L 393.932171 60.822816 
L 394.346271 60.833663 
L 394.760371 60.65531 
L 395.174471 61.424919 
L 395.588571 61.810805 
L 396.002672 63.227891 
L 396.830872 64.565626 
L 397.659072 66.980298 
L 398.487273 70.309962 
L 398.487273 70.309962 
" clip-path="url(#pbb6be61ab8)" style="fill: none; stroke: #1f77b4; stroke-width: 1.5; stroke-linecap: square"/>
   </g>
   <g id="patch_3">
    <path d="M 57.6 307.584 
L 57.6 41.472 
" style="fill: none; stroke: #000000; stroke-width: 0.8; stroke-linejoin: miter; stroke-linecap: square"/>
   </g>
   <g id="patch_4">
    <path d="M 414.72 307.584 
L 414.72 41.472 
" style="fill: none; stroke: #000000; stroke-width: 0.8; stroke-linejoin: miter; stroke-linecap: square"/>
   </g>
   <g id="patch_5">
    <path d="M 57.6 307.584 
L 414.72 307.584 
" style="fill: none; stroke: #000000; stroke-width: 0.8; stroke-linejoin: miter; stroke-linecap: square"/>
   </g>
   <g id="patch_6">
    <path d="M 57.6 41.472 
L 414.72 41.472 
" style="fill: none; stroke: #000000; stroke-width: 0.8; stroke-linejoin: miter; stroke-linecap: square"/>
   </g>
   <g id="text_17">
    <!-- episode learning curve -->
    <g transform="translate(167.59125 35.472) scale(0.12 -0.12)">
     <defs>
      <path id="DejaVuSans-6c" d="M 603 4863 
L 1178 4863 
L 1178 0 
L 603 0 
L 603 4863 
z
" transform="scale(0.015625)"/>
      <path id="DejaVuSans-67" d="M 2906 1791 
Q 2906 2416 2648 2759 
Q 2391 3103 1925 3103 
Q 1463 3103 1205 2759 
Q 947 2416 947 1791 
Q 947 1169 1205 825 
Q 1463 481 1925 481 
Q 2391 481 2648 825 
Q 2906 1169 2906 1791 
z
M 3481 434 
Q 3481 -459 3084 -895 
Q 2688 -1331 1869 -1331 
Q 1566 -1331 1297 -1286 
Q 1028 -1241 775 -1147 
L 775 -588 
Q 1028 -725 1275 -790 
Q 1522 -856 1778 -856 
Q 2344 -856 2625 -561 
Q 2906 -266 2906 331 
L 2906 616 
Q 2728 306 2450 153 
Q 2172 0 1784 0 
Q 1141 0 747 490 
Q 353 981 353 1791 
Q 353 2603 747 3093 
Q 1141 3584 1784 3584 
Q 2172 3584 2450 3431 
Q 2728 3278 2906 2969 
L 2906 3500 
L 3481 3500 
L 3481 434 
z
" transform="scale(0.015625)"/>
      <path id="DejaVuSans-63" d="M 3122 3366 
L 3122 2828 
Q 2878 2963 2633 3030 
Q 2388 3097 2138 3097 
Q 1578 3097 1268 2742 
Q 959 2388 959 1747 
Q 959 1106 1268 751 
Q 1578 397 2138 397 
Q 2388 397 2633 464 
Q 2878 531 3122 666 
L 3122 134 
Q 2881 22 2623 -34 
Q 2366 -91 2075 -91 
Q 1284 -91 818 406 
Q 353 903 353 1747 
Q 353 2603 823 3093 
Q 1294 3584 2113 3584 
Q 2378 3584 2631 3529 
Q 2884 3475 3122 3366 
z
" transform="scale(0.015625)"/>
      <path id="DejaVuSans-75" d="M 544 1381 
L 544 3500 
L 1119 3500 
L 1119 1403 
Q 1119 906 1312 657 
Q 1506 409 1894 409 
Q 2359 409 2629 706 
Q 2900 1003 2900 1516 
L 2900 3500 
L 3475 3500 
L 3475 0 
L 2900 0 
L 2900 538 
Q 2691 219 2414 64 
Q 2138 -91 1772 -91 
Q 1169 -91 856 284 
Q 544 659 544 1381 
z
M 1991 3584 
L 1991 3584 
z
" transform="scale(0.015625)"/>
      <path id="DejaVuSans-76" d="M 191 3500 
L 800 3500 
L 1894 563 
L 2988 3500 
L 3597 3500 
L 2284 0 
L 1503 0 
L 191 3500 
z
" transform="scale(0.015625)"/>
     </defs>
     <use xlink:href="#DejaVuSans-65"/>
     <use xlink:href="#DejaVuSans-70" x="61.523438"/>
     <use xlink:href="#DejaVuSans-69" x="125"/>
     <use xlink:href="#DejaVuSans-73" x="152.783203"/>
     <use xlink:href="#DejaVuSans-6f" x="204.882812"/>
     <use xlink:href="#DejaVuSans-64" x="266.064453"/>
     <use xlink:href="#DejaVuSans-65" x="329.541016"/>
     <use xlink:href="#DejaVuSans-20" x="391.064453"/>
     <use xlink:href="#DejaVuSans-6c" x="422.851562"/>
     <use xlink:href="#DejaVuSans-65" x="450.634766"/>
     <use xlink:href="#DejaVuSans-61" x="512.158203"/>
     <use xlink:href="#DejaVuSans-72" x="573.4375"/>
     <use xlink:href="#DejaVuSans-6e" x="612.800781"/>
     <use xlink:href="#DejaVuSans-69" x="676.179688"/>
     <use xlink:href="#DejaVuSans-6e" x="703.962891"/>
     <use xlink:href="#DejaVuSans-67" x="767.341797"/>
     <use xlink:href="#DejaVuSans-20" x="830.818359"/>
     <use xlink:href="#DejaVuSans-63" x="862.605469"/>
     <use xlink:href="#DejaVuSans-75" x="917.585938"/>
     <use xlink:href="#DejaVuSans-72" x="980.964844"/>
     <use xlink:href="#DejaVuSans-76" x="1022.078125"/>
     <use xlink:href="#DejaVuSans-65" x="1081.257812"/>
    </g>
   </g>
  </g>
 </g>
 <defs>
  <clipPath id="pbb6be61ab8">
   <rect x="57.6" y="41.472" width="357.12" height="266.112"/>
  </clipPath>
 </defs>
</svg>
