<?xml version="1.0" encoding="utf-8" standalone="no"?>
<!DOCTYPE svg PUBLIC "-//W3C//DTD SVG 1.1//EN"
  "http://www.w3.org/Graphics/SVG/1.1/DTD/svg11.dtd">
<svg xmlns:xlink="http://www.w3.org/1999/xlink" width="460.8pt" height="345.6pt" viewBox="0 0 460.8 345.6" xmlns="http://www.w3.org/2000/svg" version="1.1">
 <metadata>
  <rdf:RDF xmlns:dc="http://purl.org/dc/elements/1.1/" xmlns:cc="http://creativecommons.org/ns#" xmlns:rdf="http://www.w3.org/1999/02/22-rdf-syntax-ns#">
   <cc:Work>
    <dc:type rdf:resource="http://purl.org/dc/dcmitype/StillImage"/>
    <dc:date>2023-08-19T13:25:29.499957</dc:date>
    <dc:format>image/svg+xml</dc:format>
    <dc:creator>
     <cc:Agent>
      <dc:title>Matplotlib v3.7.1, https://matplotlib.org/</dc:title>
     </cc:Agent>
    </dc:creator>
   </cc:Work>
  </rdf:RDF>
 </metadata>
 <defs>
  <style type="text/css">*{stroke-linejoin: round; stroke-linecap: butt}</style>
 </defs>
 <g id="figure_1">
  <g id="patch_1">
   <path d="M 0 345.6 
L 460.8 345.6 
L 460.8 0 
L 0 0 
z
" style="fill: #ffffff"/>
  </g>
  <g id="axes_1">
   <g id="patch_2">
    <path d="M 57.6 307.584 
L 414.72 307.584 
L 414.72 41.472 
L 57.6 41.472 
z
" style="fill: #ffffff"/>
   </g>
   <g id="matplotlib.axis_1">
    <g id="xtick_1">
     <g id="line2d_1">
      <defs>
       <path id="m29ee962cda" d="M 0 0 
L 0 3.5 
" style="stroke: #000000; stroke-width: 0.8"/>
      </defs>
      <g>
       <use xlink:href="#m29ee962cda" x="73.422292" y="307.584" style="stroke: #000000; stroke-width: 0.8"/>
      </g>
     </g>
     <g id="text_1">
      <!-- 0 -->
      <g transform="translate(70.241042 322.182437) scale(0.1 -0.1)">
       <defs>
        <path id="DejaVuSans-30" d="M 2034 4250 
Q 1547 4250 1301 3770 
Q 1056 3291 1056 2328 
Q 1056 1369 1301 889 
Q 1547 409 2034 409 
Q 2525 409 2770 889 
Q 3016 1369 3016 2328 
Q 3016 3291 2770 3770 
Q 2525 4250 2034 4250 
z
M 2034 4750 
Q 2819 4750 3233 4129 
Q 3647 3509 3647 2328 
Q 3647 1150 3233 529 
Q 2819 -91 2034 -91 
Q 1250 -91 836 529 
Q 422 1150 422 2328 
Q 422 3509 836 4129 
Q 1250 4750 2034 4750 
z
" transform="scale(0.015625)"/>
       </defs>
       <use xlink:href="#DejaVuSans-30"/>
      </g>
     </g>
    </g>
    <g id="xtick_2">
     <g id="line2d_2">
      <g>
       <use xlink:href="#m29ee962cda" x="114.46585" y="307.584" style="stroke: #000000; stroke-width: 0.8"/>
      </g>
     </g>
     <g id="text_2">
      <!-- 1000 -->
      <g transform="translate(101.74085 322.182437) scale(0.1 -0.1)">
       <defs>
        <path id="DejaVuSans-31" d="M 794 531 
L 1825 531 
L 1825 4091 
L 703 3866 
L 703 4441 
L 1819 4666 
L 2450 4666 
L 2450 531 
L 3481 531 
L 3481 0 
L 794 0 
L 794 531 
z
" transform="scale(0.015625)"/>
       </defs>
       <use xlink:href="#DejaVuSans-31"/>
       <use xlink:href="#DejaVuSans-30" x="63.623047"/>
       <use xlink:href="#DejaVuSans-30" x="127.246094"/>
       <use xlink:href="#DejaVuSans-30" x="190.869141"/>
      </g>
     </g>
    </g>
    <g id="xtick_3">
     <g id="line2d_3">
      <g>
       <use xlink:href="#m29ee962cda" x="155.509408" y="307.584" style="stroke: #000000; stroke-width: 0.8"/>
      </g>
     </g>
     <g id="text_3">
      <!-- 2000 -->
      <g transform="translate(142.784408 322.182437) scale(0.1 -0.1)">
       <defs>
        <path id="DejaVuSans-32" d="M 1228 531 
L 3431 531 
L 3431 0 
L 469 0 
L 469 531 
Q 828 903 1448 1529 
Q 2069 2156 2228 2338 
Q 2531 2678 2651 2914 
Q 2772 3150 2772 3378 
Q 2772 3750 2511 3984 
Q 2250 4219 1831 4219 
Q 1534 4219 1204 4116 
Q 875 4013 500 3803 
L 500 4441 
Q 881 4594 1212 4672 
Q 1544 4750 1819 4750 
Q 2544 4750 2975 4387 
Q 3406 4025 3406 3419 
Q 3406 3131 3298 2873 
Q 3191 2616 2906 2266 
Q 2828 2175 2409 1742 
Q 1991 1309 1228 531 
z
" transform="scale(0.015625)"/>
       </defs>
       <use xlink:href="#DejaVuSans-32"/>
       <use xlink:href="#DejaVuSans-30" x="63.623047"/>
       <use xlink:href="#DejaVuSans-30" x="127.246094"/>
       <use xlink:href="#DejaVuSans-30" x="190.869141"/>
      </g>
     </g>
    </g>
    <g id="xtick_4">
     <g id="line2d_4">
      <g>
       <use xlink:href="#m29ee962cda" x="196.552966" y="307.584" style="stroke: #000000; stroke-width: 0.8"/>
      </g>
     </g>
     <g id="text_4">
      <!-- 3000 -->
      <g transform="translate(183.827966 322.182437) scale(0.1 -0.1)">
       <defs>
        <path id="DejaVuSans-33" d="M 2597 2516 
Q 3050 2419 3304 2112 
Q 3559 1806 3559 1356 
Q 3559 666 3084 287 
Q 2609 -91 1734 -91 
Q 1441 -91 1130 -33 
Q 819 25 488 141 
L 488 750 
Q 750 597 1062 519 
Q 1375 441 1716 441 
Q 2309 441 2620 675 
Q 2931 909 2931 1356 
Q 2931 1769 2642 2001 
Q 2353 2234 1838 2234 
L 1294 2234 
L 1294 2753 
L 1863 2753 
Q 2328 2753 2575 2939 
Q 2822 3125 2822 3475 
Q 2822 3834 2567 4026 
Q 2313 4219 1838 4219 
Q 1578 4219 1281 4162 
Q 984 4106 628 3988 
L 628 4550 
Q 988 4650 1302 4700 
Q 1616 4750 1894 4750 
Q 2613 4750 3031 4423 
Q 3450 4097 3450 3541 
Q 3450 3153 3228 2886 
Q 3006 2619 2597 2516 
z
" transform="scale(0.015625)"/>
       </defs>
       <use xlink:href="#DejaVuSans-33"/>
       <use xlink:href="#DejaVuSans-30" x="63.623047"/>
       <use xlink:href="#DejaVuSans-30" x="127.246094"/>
       <use xlink:href="#DejaVuSans-30" x="190.869141"/>
      </g>
     </g>
    </g>
    <g id="xtick_5">
     <g id="line2d_5">
      <g>
       <use xlink:href="#m29ee962cda" x="237.596525" y="307.584" style="stroke: #000000; stroke-width: 0.8"/>
      </g>
     </g>
     <g id="text_5">
      <!-- 4000 -->
      <g transform="translate(224.871525 322.182437) scale(0.1 -0.1)">
       <defs>
        <path id="DejaVuSans-34" d="M 2419 4116 
L 825 1625 
L 2419 1625 
L 2419 4116 
z
M 2253 4666 
L 3047 4666 
L 3047 1625 
L 3713 1625 
L 3713 1100 
L 3047 1100 
L 3047 0 
L 2419 0 
L 2419 1100 
L 313 1100 
L 313 1709 
L 2253 4666 
z
" transform="scale(0.015625)"/>
       </defs>
       <use xlink:href="#DejaVuSans-34"/>
       <use xlink:href="#DejaVuSans-30" x="63.623047"/>
       <use xlink:href="#DejaVuSans-30" x="127.246094"/>
       <use xlink:href="#DejaVuSans-30" x="190.869141"/>
      </g>
     </g>
    </g>
    <g id="xtick_6">
     <g id="line2d_6">
      <g>
       <use xlink:href="#m29ee962cda" x="278.640083" y="307.584" style="stroke: #000000; stroke-width: 0.8"/>
      </g>
     </g>
     <g id="text_6">
      <!-- 5000 -->
      <g transform="translate(265.915083 322.182437) scale(0.1 -0.1)">
       <defs>
        <path id="DejaVuSans-35" d="M 691 4666 
L 3169 4666 
L 3169 4134 
L 1269 4134 
L 1269 2991 
Q 1406 3038 1543 3061 
Q 1681 3084 1819 3084 
Q 2600 3084 3056 2656 
Q 3513 2228 3513 1497 
Q 3513 744 3044 326 
Q 2575 -91 1722 -91 
Q 1428 -91 1123 -41 
Q 819 9 494 109 
L 494 744 
Q 775 591 1075 516 
Q 1375 441 1709 441 
Q 2250 441 2565 725 
Q 2881 1009 2881 1497 
Q 2881 1984 2565 2268 
Q 2250 2553 1709 2553 
Q 1456 2553 1204 2497 
Q 953 2441 691 2322 
L 691 4666 
z
" transform="scale(0.015625)"/>
       </defs>
       <use xlink:href="#DejaVuSans-35"/>
       <use xlink:href="#DejaVuSans-30" x="63.623047"/>
       <use xlink:href="#DejaVuSans-30" x="127.246094"/>
       <use xlink:href="#DejaVuSans-30" x="190.869141"/>
      </g>
     </g>
    </g>
    <g id="xtick_7">
     <g id="line2d_7">
      <g>
       <use xlink:href="#m29ee962cda" x="319.683641" y="307.584" style="stroke: #000000; stroke-width: 0.8"/>
      </g>
     </g>
     <g id="text_7">
      <!-- 6000 -->
      <g transform="translate(306.958641 322.182437) scale(0.1 -0.1)">
       <defs>
        <path id="DejaVuSans-36" d="M 2113 2584 
Q 1688 2584 1439 2293 
Q 1191 2003 1191 1497 
Q 1191 994 1439 701 
Q 1688 409 2113 409 
Q 2538 409 2786 701 
Q 3034 994 3034 1497 
Q 3034 2003 2786 2293 
Q 2538 2584 2113 2584 
z
M 3366 4563 
L 3366 3988 
Q 3128 4100 2886 4159 
Q 2644 4219 2406 4219 
Q 1781 4219 1451 3797 
Q 1122 3375 1075 2522 
Q 1259 2794 1537 2939 
Q 1816 3084 2150 3084 
Q 2853 3084 3261 2657 
Q 3669 2231 3669 1497 
Q 3669 778 3244 343 
Q 2819 -91 2113 -91 
Q 1303 -91 875 529 
Q 447 1150 447 2328 
Q 447 3434 972 4092 
Q 1497 4750 2381 4750 
Q 2619 4750 2861 4703 
Q 3103 4656 3366 4563 
z
" transform="scale(0.015625)"/>
       </defs>
       <use xlink:href="#DejaVuSans-36"/>
       <use xlink:href="#DejaVuSans-30" x="63.623047"/>
       <use xlink:href="#DejaVuSans-30" x="127.246094"/>
       <use xlink:href="#DejaVuSans-30" x="190.869141"/>
      </g>
     </g>
    </g>
    <g id="xtick_8">
     <g id="line2d_8">
      <g>
       <use xlink:href="#m29ee962cda" x="360.727199" y="307.584" style="stroke: #000000; stroke-width: 0.8"/>
      </g>
     </g>
     <g id="text_8">
      <!-- 7000 -->
      <g transform="translate(348.002199 322.182437) scale(0.1 -0.1)">
       <defs>
        <path id="DejaVuSans-37" d="M 525 4666 
L 3525 4666 
L 3525 4397 
L 1831 0 
L 1172 0 
L 2766 4134 
L 525 4134 
L 525 4666 
z
" transform="scale(0.015625)"/>
       </defs>
       <use xlink:href="#DejaVuSans-37"/>
       <use xlink:href="#DejaVuSans-30" x="63.623047"/>
       <use xlink:href="#DejaVuSans-30" x="127.246094"/>
       <use xlink:href="#DejaVuSans-30" x="190.869141"/>
      </g>
     </g>
    </g>
    <g id="xtick_9">
     <g id="line2d_9">
      <g>
       <use xlink:href="#m29ee962cda" x="401.770757" y="307.584" style="stroke: #000000; stroke-width: 0.8"/>
      </g>
     </g>
     <g id="text_9">
      <!-- 8000 -->
      <g transform="translate(389.045757 322.182437) scale(0.1 -0.1)">
       <defs>
        <path id="DejaVuSans-38" d="M 2034 2216 
Q 1584 2216 1326 1975 
Q 1069 1734 1069 1313 
Q 1069 891 1326 650 
Q 1584 409 2034 409 
Q 2484 409 2743 651 
Q 3003 894 3003 1313 
Q 3003 1734 2745 1975 
Q 2488 2216 2034 2216 
z
M 1403 2484 
Q 997 2584 770 2862 
Q 544 3141 544 3541 
Q 544 4100 942 4425 
Q 1341 4750 2034 4750 
Q 2731 4750 3128 4425 
Q 3525 4100 3525 3541 
Q 3525 3141 3298 2862 
Q 3072 2584 2669 2484 
Q 3125 2378 3379 2068 
Q 3634 1759 3634 1313 
Q 3634 634 3220 271 
Q 2806 -91 2034 -91 
Q 1263 -91 848 271 
Q 434 634 434 1313 
Q 434 1759 690 2068 
Q 947 2378 1403 2484 
z
M 1172 3481 
Q 1172 3119 1398 2916 
Q 1625 2713 2034 2713 
Q 2441 2713 2670 2916 
Q 2900 3119 2900 3481 
Q 2900 3844 2670 4047 
Q 2441 4250 2034 4250 
Q 1625 4250 1398 4047 
Q 1172 3844 1172 3481 
z
" transform="scale(0.015625)"/>
       </defs>
       <use xlink:href="#DejaVuSans-38"/>
       <use xlink:href="#DejaVuSans-30" x="63.623047"/>
       <use xlink:href="#DejaVuSans-30" x="127.246094"/>
       <use xlink:href="#DejaVuSans-30" x="190.869141"/>
      </g>
     </g>
    </g>
    <g id="text_10">
     <!-- episodes -->
     <g transform="translate(214.000625 335.860562) scale(0.1 -0.1)">
      <defs>
       <path id="DejaVuSans-65" d="M 3597 1894 
L 3597 1613 
L 953 1613 
Q 991 1019 1311 708 
Q 1631 397 2203 397 
Q 2534 397 2845 478 
Q 3156 559 3463 722 
L 3463 178 
Q 3153 47 2828 -22 
Q 2503 -91 2169 -91 
Q 1331 -91 842 396 
Q 353 884 353 1716 
Q 353 2575 817 3079 
Q 1281 3584 2069 3584 
Q 2775 3584 3186 3129 
Q 3597 2675 3597 1894 
z
M 3022 2063 
Q 3016 2534 2758 2815 
Q 2500 3097 2075 3097 
Q 1594 3097 1305 2825 
Q 1016 2553 972 2059 
L 3022 2063 
z
" transform="scale(0.015625)"/>
       <path id="DejaVuSans-70" d="M 1159 525 
L 1159 -1331 
L 581 -1331 
L 581 3500 
L 1159 3500 
L 1159 2969 
Q 1341 3281 1617 3432 
Q 1894 3584 2278 3584 
Q 2916 3584 3314 3078 
Q 3713 2572 3713 1747 
Q 3713 922 3314 415 
Q 2916 -91 2278 -91 
Q 1894 -91 1617 61 
Q 1341 213 1159 525 
z
M 3116 1747 
Q 3116 2381 2855 2742 
Q 2594 3103 2138 3103 
Q 1681 3103 1420 2742 
Q 1159 2381 1159 1747 
Q 1159 1113 1420 752 
Q 1681 391 2138 391 
Q 2594 391 2855 752 
Q 3116 1113 3116 1747 
z
" transform="scale(0.015625)"/>
       <path id="DejaVuSans-69" d="M 603 3500 
L 1178 3500 
L 1178 0 
L 603 0 
L 603 3500 
z
M 603 4863 
L 1178 4863 
L 1178 4134 
L 603 4134 
L 603 4863 
z
" transform="scale(0.015625)"/>
       <path id="DejaVuSans-73" d="M 2834 3397 
L 2834 2853 
Q 2591 2978 2328 3040 
Q 2066 3103 1784 3103 
Q 1356 3103 1142 2972 
Q 928 2841 928 2578 
Q 928 2378 1081 2264 
Q 1234 2150 1697 2047 
L 1894 2003 
Q 2506 1872 2764 1633 
Q 3022 1394 3022 966 
Q 3022 478 2636 193 
Q 2250 -91 1575 -91 
Q 1294 -91 989 -36 
Q 684 19 347 128 
L 347 722 
Q 666 556 975 473 
Q 1284 391 1588 391 
Q 1994 391 2212 530 
Q 2431 669 2431 922 
Q 2431 1156 2273 1281 
Q 2116 1406 1581 1522 
L 1381 1569 
Q 847 1681 609 1914 
Q 372 2147 372 2553 
Q 372 3047 722 3315 
Q 1072 3584 1716 3584 
Q 2034 3584 2315 3537 
Q 2597 3491 2834 3397 
z
" transform="scale(0.015625)"/>
       <path id="DejaVuSans-6f" d="M 1959 3097 
Q 1497 3097 1228 2736 
Q 959 2375 959 1747 
Q 959 1119 1226 758 
Q 1494 397 1959 397 
Q 2419 397 2687 759 
Q 2956 1122 2956 1747 
Q 2956 2369 2687 2733 
Q 2419 3097 1959 3097 
z
M 1959 3584 
Q 2709 3584 3137 3096 
Q 3566 2609 3566 1747 
Q 3566 888 3137 398 
Q 2709 -91 1959 -91 
Q 1206 -91 779 398 
Q 353 888 353 1747 
Q 353 2609 779 3096 
Q 1206 3584 1959 3584 
z
" transform="scale(0.015625)"/>
       <path id="DejaVuSans-64" d="M 2906 2969 
L 2906 4863 
L 3481 4863 
L 3481 0 
L 2906 0 
L 2906 525 
Q 2725 213 2448 61 
Q 2172 -91 1784 -91 
Q 1150 -91 751 415 
Q 353 922 353 1747 
Q 353 2572 751 3078 
Q 1150 3584 1784 3584 
Q 2172 3584 2448 3432 
Q 2725 3281 2906 2969 
z
M 947 1747 
Q 947 1113 1208 752 
Q 1469 391 1925 391 
Q 2381 391 2643 752 
Q 2906 1113 2906 1747 
Q 2906 2381 2643 2742 
Q 2381 3103 1925 3103 
Q 1469 3103 1208 2742 
Q 947 2381 947 1747 
z
" transform="scale(0.015625)"/>
      </defs>
      <use xlink:href="#DejaVuSans-65"/>
      <use xlink:href="#DejaVuSans-70" x="61.523438"/>
      <use xlink:href="#DejaVuSans-69" x="125"/>
      <use xlink:href="#DejaVuSans-73" x="152.783203"/>
      <use xlink:href="#DejaVuSans-6f" x="204.882812"/>
      <use xlink:href="#DejaVuSans-64" x="266.064453"/>
      <use xlink:href="#DejaVuSans-65" x="329.541016"/>
      <use xlink:href="#DejaVuSans-73" x="391.064453"/>
     </g>
    </g>
   </g>
   <g id="matplotlib.axis_2">
    <g id="ytick_1">
     <g id="line2d_10">
      <defs>
       <path id="m749db8ff6e" d="M 0 0 
L -3.5 0 
" style="stroke: #000000; stroke-width: 0.8"/>
      </defs>
      <g>
       <use xlink:href="#m749db8ff6e" x="57.6" y="279.171803" style="stroke: #000000; stroke-width: 0.8"/>
      </g>
     </g>
     <g id="text_11">
      <!-- 20 -->
      <g transform="translate(37.875 282.971021) scale(0.1 -0.1)">
       <use xlink:href="#DejaVuSans-32"/>
       <use xlink:href="#DejaVuSans-30" x="63.623047"/>
      </g>
     </g>
    </g>
    <g id="ytick_2">
     <g id="line2d_11">
      <g>
       <use xlink:href="#m749db8ff6e" x="57.6" y="227.37435" style="stroke: #000000; stroke-width: 0.8"/>
      </g>
     </g>
     <g id="text_12">
      <!-- 40 -->
      <g transform="translate(37.875 231.173569) scale(0.1 -0.1)">
       <use xlink:href="#DejaVuSans-34"/>
       <use xlink:href="#DejaVuSans-30" x="63.623047"/>
      </g>
     </g>
    </g>
    <g id="ytick_3">
     <g id="line2d_12">
      <g>
       <use xlink:href="#m749db8ff6e" x="57.6" y="175.576898" style="stroke: #000000; stroke-width: 0.8"/>
      </g>
     </g>
     <g id="text_13">
      <!-- 60 -->
      <g transform="translate(37.875 179.376117) scale(0.1 -0.1)">
       <use xlink:href="#DejaVuSans-36"/>
       <use xlink:href="#DejaVuSans-30" x="63.623047"/>
      </g>
     </g>
    </g>
    <g id="ytick_4">
     <g id="line2d_13">
      <g>
       <use xlink:href="#m749db8ff6e" x="57.6" y="123.779446" style="stroke: #000000; stroke-width: 0.8"/>
      </g>
     </g>
     <g id="text_14">
      <!-- 80 -->
      <g transform="translate(37.875 127.578665) scale(0.1 -0.1)">
       <use xlink:href="#DejaVuSans-38"/>
       <use xlink:href="#DejaVuSans-30" x="63.623047"/>
      </g>
     </g>
    </g>
    <g id="ytick_5">
     <g id="line2d_14">
      <g>
       <use xlink:href="#m749db8ff6e" x="57.6" y="71.981994" style="stroke: #000000; stroke-width: 0.8"/>
      </g>
     </g>
     <g id="text_15">
      <!-- 100 -->
      <g transform="translate(31.5125 75.781213) scale(0.1 -0.1)">
       <use xlink:href="#DejaVuSans-31"/>
       <use xlink:href="#DejaVuSans-30" x="63.623047"/>
       <use xlink:href="#DejaVuSans-30" x="127.246094"/>
      </g>
     </g>
    </g>
    <g id="text_16">
     <!-- mean episode length -->
     <g transform="translate(25.432812 227.378) rotate(-90) scale(0.1 -0.1)">
      <defs>
       <path id="DejaVuSans-6d" d="M 3328 2828 
Q 3544 3216 3844 3400 
Q 4144 3584 4550 3584 
Q 5097 3584 5394 3201 
Q 5691 2819 5691 2113 
L 5691 0 
L 5113 0 
L 5113 2094 
Q 5113 2597 4934 2840 
Q 4756 3084 4391 3084 
Q 3944 3084 3684 2787 
Q 3425 2491 3425 1978 
L 3425 0 
L 2847 0 
L 2847 2094 
Q 2847 2600 2669 2842 
Q 2491 3084 2119 3084 
Q 1678 3084 1418 2786 
Q 1159 2488 1159 1978 
L 1159 0 
L 581 0 
L 581 3500 
L 1159 3500 
L 1159 2956 
Q 1356 3278 1631 3431 
Q 1906 3584 2284 3584 
Q 2666 3584 2933 3390 
Q 3200 3197 3328 2828 
z
" transform="scale(0.015625)"/>
       <path id="DejaVuSans-61" d="M 2194 1759 
Q 1497 1759 1228 1600 
Q 959 1441 959 1056 
Q 959 750 1161 570 
Q 1363 391 1709 391 
Q 2188 391 2477 730 
Q 2766 1069 2766 1631 
L 2766 1759 
L 2194 1759 
z
M 3341 1997 
L 3341 0 
L 2766 0 
L 2766 531 
Q 2569 213 2275 61 
Q 1981 -91 1556 -91 
Q 1019 -91 701 211 
Q 384 513 384 1019 
Q 384 1609 779 1909 
Q 1175 2209 1959 2209 
L 2766 2209 
L 2766 2266 
Q 2766 2663 2505 2880 
Q 2244 3097 1772 3097 
Q 1472 3097 1187 3025 
Q 903 2953 641 2809 
L 641 3341 
Q 956 3463 1253 3523 
Q 1550 3584 1831 3584 
Q 2591 3584 2966 3190 
Q 3341 2797 3341 1997 
z
" transform="scale(0.015625)"/>
       <path id="DejaVuSans-6e" d="M 3513 2113 
L 3513 0 
L 2938 0 
L 2938 2094 
Q 2938 2591 2744 2837 
Q 2550 3084 2163 3084 
Q 1697 3084 1428 2787 
Q 1159 2491 1159 1978 
L 1159 0 
L 581 0 
L 581 3500 
L 1159 3500 
L 1159 2956 
Q 1366 3272 1645 3428 
Q 1925 3584 2291 3584 
Q 2894 3584 3203 3211 
Q 3513 2838 3513 2113 
z
" transform="scale(0.015625)"/>
       <path id="DejaVuSans-20" transform="scale(0.015625)"/>
       <path id="DejaVuSans-6c" d="M 603 4863 
L 1178 4863 
L 1178 0 
L 603 0 
L 603 4863 
z
" transform="scale(0.015625)"/>
       <path id="DejaVuSans-67" d="M 2906 1791 
Q 2906 2416 2648 2759 
Q 2391 3103 1925 3103 
Q 1463 3103 1205 2759 
Q 947 2416 947 1791 
Q 947 1169 1205 825 
Q 1463 481 1925 481 
Q 2391 481 2648 825 
Q 2906 1169 2906 1791 
z
M 3481 434 
Q 3481 -459 3084 -895 
Q 2688 -1331 1869 -1331 
Q 1566 -1331 1297 -1286 
Q 1028 -1241 775 -1147 
L 775 -588 
Q 1028 -725 1275 -790 
Q 1522 -856 1778 -856 
Q 2344 -856 2625 -561 
Q 2906 -266 2906 331 
L 2906 616 
Q 2728 306 2450 153 
Q 2172 0 1784 0 
Q 1141 0 747 490 
Q 353 981 353 1791 
Q 353 2603 747 3093 
Q 1141 3584 1784 3584 
Q 2172 3584 2450 3431 
Q 2728 3278 2906 2969 
L 2906 3500 
L 3481 3500 
L 3481 434 
z
" transform="scale(0.015625)"/>
       <path id="DejaVuSans-74" d="M 1172 4494 
L 1172 3500 
L 2356 3500 
L 2356 3053 
L 1172 3053 
L 1172 1153 
Q 1172 725 1289 603 
Q 1406 481 1766 481 
L 2356 481 
L 2356 0 
L 1766 0 
Q 1100 0 847 248 
Q 594 497 594 1153 
L 594 3053 
L 172 3053 
L 172 3500 
L 594 3500 
L 594 4494 
L 1172 4494 
z
" transform="scale(0.015625)"/>
       <path id="DejaVuSans-68" d="M 3513 2113 
L 3513 0 
L 2938 0 
L 2938 2094 
Q 2938 2591 2744 2837 
Q 2550 3084 2163 3084 
Q 1697 3084 1428 2787 
Q 1159 2491 1159 1978 
L 1159 0 
L 581 0 
L 581 4863 
L 1159 4863 
L 1159 2956 
Q 1366 3272 1645 3428 
Q 1925 3584 2291 3584 
Q 2894 3584 3203 3211 
Q 3513 2838 3513 2113 
z
" transform="scale(0.015625)"/>
      </defs>
      <use xlink:href="#DejaVuSans-6d"/>
      <use xlink:href="#DejaVuSans-65" x="97.412109"/>
      <use xlink:href="#DejaVuSans-61" x="158.935547"/>
      <use xlink:href="#DejaVuSans-6e" x="220.214844"/>
      <use xlink:href="#DejaVuSans-20" x="283.59375"/>
      <use xlink:href="#DejaVuSans-65" x="315.380859"/>
      <use xlink:href="#DejaVuSans-70" x="376.904297"/>
      <use xlink:href="#DejaVuSans-69" x="440.380859"/>
      <use xlink:href="#DejaVuSans-73" x="468.164062"/>
      <use xlink:href="#DejaVuSans-6f" x="520.263672"/>
      <use xlink:href="#DejaVuSans-64" x="581.445312"/>
      <use xlink:href="#DejaVuSans-65" x="644.921875"/>
      <use xlink:href="#DejaVuSans-20" x="706.445312"/>
      <use xlink:href="#DejaVuSans-6c" x="738.232422"/>
      <use xlink:href="#DejaVuSans-65" x="766.015625"/>
      <use xlink:href="#DejaVuSans-6e" x="827.539062"/>
      <use xlink:href="#DejaVuSans-67" x="890.917969"/>
      <use xlink:href="#DejaVuSans-74" x="954.394531"/>
      <use xlink:href="#DejaVuSans-68" x="993.603516"/>
     </g>
    </g>
   </g>
   <g id="line2d_15">
    <path d="M 73.832727 295.488 
L 74.243163 284.999016 
L 74.653598 282.409143 
L 75.064034 280.919967 
L 75.47447 282.320275 
L 75.884905 283.142941 
L 76.295341 281.652244 
L 76.705776 279.560283 
L 77.526648 279.378992 
L 77.937083 278.343043 
L 78.347519 278.135854 
L 78.757954 276.607829 
L 79.16839 275.545981 
L 79.578825 275.779069 
L 79.989261 274.794918 
L 80.399697 275.235196 
L 80.810132 276.089854 
L 81.220568 276.193449 
L 81.631003 275.468285 
L 82.041439 275.131601 
L 82.451874 275.286994 
L 82.86231 277.410689 
L 83.272746 278.861018 
L 83.683181 275.908563 
L 84.504052 276.012158 
L 84.914488 275.442386 
L 85.324924 274.561829 
L 85.735359 275.494183 
L 86.55623 273.396387 
L 86.966666 270.728818 
L 87.377101 270.107248 
L 87.787537 272.230944 
L 88.197973 269.718768 
L 88.608408 268.44973 
L 89.018844 269.796464 
L 89.429279 269.045401 
L 89.839715 267.698667 
L 90.250151 268.03535 
L 91.071022 272.10145 
L 91.481457 272.567627 
L 91.891893 271.997855 
L 92.302328 275.36469 
L 92.712764 275.753171 
L 93.1232 276.322943 
L 93.944071 278.835119 
L 94.354506 280.984713 
L 94.764942 280.492638 
L 95.175378 281.761675 
L 95.585813 282.616333 
L 95.996249 282.176055 
L 96.406684 282.668131 
L 96.81712 282.849422 
L 97.227555 282.098359 
L 98.048427 281.45089 
L 98.458862 279.663878 
L 98.869298 279.301296 
L 99.279733 275.623677 
L 99.690169 275.36469 
L 100.100605 274.535931 
L 100.51104 272.412235 
L 100.921476 273.189197 
L 101.331911 272.360438 
L 101.742347 272.438134 
L 102.152782 274.251045 
L 102.973654 272.982007 
L 103.384089 275.261095 
L 103.794525 273.215096 
L 104.20496 275.028006 
L 104.615396 276.115753 
L 105.025832 275.701373 
L 105.436267 277.022208 
L 105.846703 277.307094 
L 106.257138 274.380538 
L 106.667574 275.830867 
L 107.078009 276.763221 
L 107.898881 279.508486 
L 108.309316 278.679727 
L 108.719752 278.835119 
L 109.130187 279.120005 
L 109.540623 277.125803 
L 109.951058 277.151702 
L 110.361494 279.353094 
L 110.77193 279.404891 
L 111.182365 278.938714 
L 112.003236 278.627929 
L 112.413672 278.032259 
L 112.824108 276.918613 
L 113.234543 277.695575 
L 113.644979 279.301296 
L 114.055414 278.602031 
L 114.46585 279.896967 
L 114.876285 279.353094 
L 115.286721 279.793372 
L 115.697157 278.912815 
L 116.518028 281.476789 
L 116.928463 282.460941 
L 117.338899 282.953017 
L 117.749335 283.963067 
L 118.15977 283.859472 
L 118.570206 282.253751 
L 118.980641 283.781776 
L 119.391077 283.056611 
L 119.801512 281.243701 
L 120.622384 279.482587 
L 121.032819 279.171803 
L 121.443255 278.472537 
L 121.85369 275.36469 
L 122.264126 275.002108 
L 122.674562 276.426538 
L 123.084997 275.804968 
L 123.495433 276.141652 
L 123.905868 278.343043 
L 125.137175 280.907017 
L 125.547611 280.596233 
L 125.958046 283.678181 
L 126.368482 283.885371 
L 127.189353 282.927118 
L 127.599789 284.247953 
L 128.010224 282.435042 
L 128.42066 281.243701 
L 128.831095 281.683979 
L 129.651966 280.518536 
L 130.472838 279.819271 
L 131.293709 281.321397 
L 131.704144 281.86527 
L 132.525016 285.283902 
L 132.935451 284.532839 
L 133.345887 284.144358 
L 133.756322 284.170257 
L 134.166758 284.403345 
L 134.577193 283.212004 
L 134.987629 283.470991 
L 135.398065 282.512738 
L 135.8085 281.114207 
L 136.629371 280.544435 
L 137.450243 282.953017 
L 137.860678 283.445092 
L 138.271114 284.273852 
L 139.091985 283.030713 
L 139.912856 280.725726 
L 140.323292 280.85522 
L 140.733727 279.482587 
L 141.144163 278.80922 
L 141.554598 279.353094 
L 141.965034 279.249499 
L 142.375469 277.954562 
L 142.785905 279.741575 
L 143.196341 277.59198 
L 143.606776 277.876866 
L 144.017212 279.767473 
L 144.427647 278.990512 
L 144.838083 278.524334 
L 145.248519 276.348841 
L 146.06939 274.794918 
L 146.479825 274.380538 
L 146.890261 271.350387 
L 147.300696 270.573426 
L 148.532003 263.943352 
L 148.942439 263.036896 
L 149.352874 263.062795 
L 149.76331 262.467124 
L 150.584181 261.767859 
L 150.994617 262.441226 
L 151.405052 262.596618 
L 151.815488 261.405277 
L 152.225923 261.767859 
L 152.636359 261.612466 
L 153.046795 259.10029 
L 153.45723 257.494569 
L 153.867666 256.536316 
L 154.688537 245.814243 
L 155.098973 245.969636 
L 155.509408 245.322168 
L 155.919844 242.343814 
L 156.330279 238.35541 
L 156.740715 238.925182 
L 157.15115 238.743891 
L 157.972022 232.683589 
L 158.382457 235.480652 
L 158.792893 233.952627 
L 159.203328 226.390199 
L 160.0242 224.965769 
L 160.434635 223.360048 
L 161.255506 218.931366 
L 161.665942 219.86372 
L 162.486813 217.714126 
L 164.538991 235.066272 
L 164.949427 236.283512 
L 165.359862 239.132372 
L 165.770298 240.479106 
L 166.180733 242.965384 
L 166.591169 242.058928 
L 167.001604 241.981232 
L 167.41204 242.758194 
L 167.822476 241.515055 
L 168.232911 242.576903 
L 168.643347 243.302067 
L 169.053782 244.571105 
L 169.464218 244.752396 
L 169.874653 242.214321 
L 170.285089 243.742345 
L 170.695525 245.969636 
L 171.10596 244.674699 
L 171.516396 244.597003 
L 171.926831 245.917838 
L 172.337267 247.70485 
L 172.747703 247.937939 
L 173.158138 246.953787 
L 173.568574 246.435813 
L 173.979009 249.155179 
L 174.389445 250.061635 
L 174.79988 251.460166 
L 175.210316 254.930595 
L 175.620752 255.060089 
L 176.031187 256.225531 
L 176.441623 255.474468 
L 176.852058 254.101836 
L 177.262494 256.588113 
L 177.67293 255.681658 
L 178.083365 255.603962 
L 178.493801 255.060089 
L 178.904236 255.293177 
L 179.314672 255.163684 
L 179.725107 255.189582 
L 180.135543 254.438519 
L 180.545979 255.137785 
L 180.956414 255.578063 
L 181.36685 254.982392 
L 182.187721 256.303227 
L 182.598157 254.568013 
L 183.008592 254.801101 
L 183.419028 254.878798 
L 183.829463 253.81695 
L 184.239899 254.205431 
L 185.471206 254.490317 
L 185.881641 256.536316 
L 186.292077 255.83705 
L 186.702512 257.960746 
L 187.112948 257.67586 
L 187.523384 257.546366 
L 187.933819 258.634113 
L 188.344255 258.47872 
L 188.75469 257.624063 
L 189.165126 259.177986 
L 189.575561 259.51467 
L 189.985997 259.670062 
L 190.396433 259.203885 
L 190.806868 259.644163 
L 191.217304 258.116138 
L 191.627739 257.624063 
L 192.038175 257.960746 
L 192.448611 258.064341 
L 192.859046 258.504619 
L 193.269482 257.46867 
L 193.679917 257.028392 
L 194.090353 255.681658 
L 194.500788 256.743506 
L 194.911224 255.189582 
L 195.32166 255.422671 
L 195.732095 256.096038 
L 196.142531 255.24138 
L 196.552966 254.723405 
L 196.963402 254.464418 
L 197.373837 255.03419 
L 197.784273 254.61981 
L 198.194709 255.733456 
L 198.605144 254.61981 
L 199.01558 255.655759 
L 199.426015 255.319076 
L 199.836451 255.526266 
L 200.246887 256.277329 
L 200.657322 255.914747 
L 201.067758 253.428469 
L 201.888629 251.615558 
L 202.299064 251.97814 
L 202.7095 251.019887 
L 203.119936 251.304773 
L 203.530371 251.123482 
L 203.940807 251.227077 
L 204.351242 251.123482 
L 205.172114 252.703305 
L 205.992985 253.532064 
L 206.40342 252.832798 
L 206.813856 254.050038 
L 207.224291 252.677406 
L 207.634727 251.926343 
L 208.045163 251.589659 
L 208.455598 250.217027 
L 208.866034 249.232875 
L 209.276469 250.165229 
L 210.097341 248.430015 
L 210.918212 244.907788 
L 211.328647 244.648801 
L 211.739083 244.726497 
L 212.149518 243.612852 
L 212.97039 242.499207 
L 213.380825 240.841688 
L 213.791261 240.971182 
L 214.201696 240.789891 
L 214.612132 239.598549 
L 215.022568 239.857536 
L 215.433003 239.909334 
L 215.843439 238.459005 
L 216.253874 237.630246 
L 216.66431 235.92093 
L 217.074745 234.988576 
L 217.485181 233.356956 
L 217.895617 230.741185 
L 218.306052 230.63759 
L 218.716488 230.119615 
L 219.126923 228.358502 
L 219.537359 225.56144 
L 219.947795 225.431946 
L 220.35823 223.567238 
L 220.768666 224.551389 
L 221.179101 224.059314 
L 221.589537 224.784478 
L 221.999972 227.011768 
L 222.410408 223.049263 
L 222.820844 222.479491 
L 223.231279 220.174505 
L 223.641715 221.106859 
L 224.05215 218.983163 
L 224.462586 218.43929 
L 225.283457 212.767469 
L 225.693893 211.213545 
L 226.104328 207.043851 
L 226.514764 205.127345 
L 226.925199 202.615168 
L 227.335635 202.148991 
L 227.746071 198.031094 
L 228.156506 195.726107 
L 228.977377 184.667351 
L 229.387813 179.099125 
L 231.029555 150.325641 
L 231.439991 145.715667 
L 231.850426 135.90005 
L 232.260862 128.829698 
L 233.081733 118.806891 
L 233.492169 111.581146 
L 235.544347 91.949912 
L 235.954782 92.416089 
L 236.365218 88.842065 
L 236.775653 86.925559 
L 237.596525 85.604724 
L 238.00696 84.076699 
L 238.417396 85.811914 
L 238.827831 86.796066 
L 239.238267 87.132749 
L 240.059138 83.45513 
L 240.880009 84.801864 
L 242.111316 88.453584 
L 242.521752 87.702521 
L 242.932187 87.573027 
L 243.342623 89.385938 
L 243.753058 89.644925 
L 244.163494 92.208899 
L 244.573929 92.934064 
L 244.984365 93.141253 
L 245.805236 96.274999 
L 246.215672 97.207353 
L 246.626107 97.492239 
L 247.036543 100.211606 
L 247.446979 98.813074 
L 247.857414 101.869124 
L 248.26785 102.930972 
L 248.678285 105.365452 
L 249.499156 107.515046 
L 249.909592 109.509248 
L 250.320028 109.768236 
L 250.730463 111.658843 
L 251.140899 111.736539 
L 251.551334 114.792588 
L 251.96177 115.906234 
L 252.372205 116.372411 
L 252.782641 116.450107 
L 253.193077 116.709094 
L 253.603512 118.159423 
L 254.013948 117.097575 
L 254.424383 121.837042 
L 254.834819 120.516207 
L 255.245255 118.522005 
L 255.65569 119.972334 
L 256.066126 118.988182 
L 256.476561 118.6256 
L 256.886997 121.008283 
L 257.297432 119.221271 
L 257.707868 119.402562 
L 258.118304 119.946435 
L 258.528739 117.356562 
L 258.939175 119.402562 
L 259.34961 123.028383 
L 260.580917 129.503065 
L 260.991353 130.021039 
L 262.222659 138.671214 
L 262.633095 143.747364 
L 263.043531 144.912807 
L 263.453966 145.430781 
L 263.864402 145.637971 
L 264.274837 142.297035 
L 264.685273 142.115744 
L 265.095709 141.442377 
L 265.506144 139.836656 
L 265.91658 135.019493 
L 266.327015 135.615164 
L 266.737451 134.294329 
L 267.147886 134.89 
L 267.558322 134.786405 
L 267.968758 135.071291 
L 268.379193 137.11729 
L 268.789629 138.308632 
L 269.200064 138.412227 
L 269.6105 139.474074 
L 270.020936 139.707163 
L 270.841807 134.087139 
L 271.252242 133.439671 
L 271.662678 131.83395 
L 272.483549 125.203876 
L 274.535727 111.037273 
L 274.946163 110.234413 
L 275.767034 102.257605 
L 276.177469 99.823125 
L 276.587905 98.579986 
L 276.99834 95.187253 
L 277.819212 96.87067 
L 278.229647 97.984315 
L 278.640083 97.595834 
L 279.050518 93.685127 
L 279.460954 94.203101 
L 280.281825 96.948366 
L 280.692261 98.631783 
L 281.102696 99.71953 
L 281.513132 99.123859 
L 281.923567 99.020264 
L 282.334003 99.460543 
L 282.744439 97.569936 
L 283.154874 97.88072 
L 284.386181 87.883812 
L 284.796616 83.584623 
L 285.207052 84.724167 
L 285.617488 80.709865 
L 286.027923 79.052346 
L 286.438359 75.504221 
L 286.848794 77.809208 
L 287.25923 77.524322 
L 287.669666 78.301283 
L 288.080101 77.265334 
L 288.490537 76.721461 
L 288.900972 76.928651 
L 289.311408 73.820804 
L 289.721843 74.286981 
L 290.132279 74.364677 
L 290.542715 76.928651 
L 291.363586 70.997843 
L 291.774021 70.013691 
L 292.184457 71.179134 
L 292.594893 71.360425 
L 293.005328 70.764754 
L 293.415764 69.677008 
L 293.826199 69.262628 
L 294.236635 67.372021 
L 294.64707 64.859845 
L 295.467942 65.585009 
L 296.288813 67.372021 
L 296.699248 66.620958 
L 297.109684 67.061236 
L 297.52012 68.148983 
L 297.930555 67.915894 
L 298.340991 69.961894 
L 298.751426 69.935995 
L 299.161862 68.692856 
L 299.572297 69.754704 
L 299.982733 68.433869 
L 300.393169 68.459767 
L 300.803604 69.677008 
L 301.21404 70.453969 
L 301.624475 69.987792 
L 302.034911 68.278476 
L 302.445347 65.688604 
L 302.855782 65.97349 
L 303.266218 67.579211 
L 304.087089 65.843996 
L 304.497524 62.943339 
L 304.90796 61.622504 
L 305.318396 58.514657 
L 305.728831 57.504606 
L 306.139267 58.074378 
L 306.549702 57.42691 
L 307.370573 53.801089 
L 307.781009 54.500354 
L 308.191445 53.568 
L 308.60188 54.163671 
L 309.012316 54.99243 
L 309.422751 57.142024 
L 309.833187 57.970783 
L 310.243623 58.540555 
L 310.654058 58.695948 
L 311.064494 59.395213 
L 311.474929 61.415314 
L 311.885365 60.741947 
L 312.2958 62.71025 
L 312.706236 62.736149 
L 313.116672 63.072832 
L 313.527107 61.674301 
L 313.937543 62.010985 
L 315.16885 63.461313 
L 315.579285 63.435415 
L 315.989721 64.238275 
L 316.810592 63.668503 
L 317.221027 62.91744 
L 317.631463 62.606655 
L 318.041899 62.50306 
L 318.452334 61.415314 
L 318.86277 60.949137 
L 319.683641 59.498808 
L 320.094077 59.05853 
L 321.325383 63.021035 
L 321.735819 64.626756 
L 322.55669 68.61516 
L 322.967126 67.889996 
L 323.377561 67.656907 
L 323.787997 68.874147 
L 324.198432 69.133134 
L 324.608868 69.884197 
L 325.019304 69.884197 
L 325.840175 67.009439 
L 326.25061 64.264174 
L 326.661046 63.150529 
L 327.071481 64.808047 
L 327.481917 64.678553 
L 327.892353 63.772098 
L 328.302788 63.616706 
L 328.713224 63.12463 
L 329.123659 63.046934 
L 329.534095 63.487212 
L 329.944531 64.808047 
L 330.354966 66.620958 
L 330.765402 67.475616 
L 331.175837 67.475616 
L 331.586273 67.631008 
L 331.996708 68.382071 
L 332.407144 69.547514 
L 333.228015 70.557564 
L 333.638451 71.438121 
L 334.048886 72.033792 
L 334.459322 71.748906 
L 335.280193 72.499969 
L 335.690629 73.665411 
L 336.101064 73.872601 
L 336.5115 73.199234 
L 336.921935 73.302829 
L 337.332371 72.707159 
L 338.153242 72.992045 
L 338.563678 72.68126 
L 338.974113 72.551766 
L 339.384549 71.308627 
L 339.794984 70.997843 
L 340.20542 71.179134 
L 340.615856 71.541716 
L 341.026291 71.619412 
L 341.436727 73.069741 
L 342.257598 75.063943 
L 342.668034 76.514271 
L 343.078469 77.394828 
L 343.488905 78.715663 
L 344.309776 79.829308 
L 344.720211 79.725713 
L 345.130647 79.052346 
L 345.541083 77.653815 
L 346.361954 75.53012 
L 347.182825 73.48412 
L 347.593261 73.017943 
L 348.003696 72.966146 
L 348.414132 71.593513 
L 348.824567 71.567615 
L 349.235003 72.085589 
L 349.645438 72.085589 
L 350.46631 71.645311 
L 350.876745 71.023741 
L 351.287181 70.84245 
L 352.108052 69.651109 
L 352.518488 70.272678 
L 352.928923 70.169083 
L 353.339359 70.505767 
L 353.749794 71.619412 
L 354.570665 72.940247 
L 354.981101 74.027994 
L 355.391537 73.976196 
L 356.212408 74.416474 
L 356.622843 73.69131 
L 357.033279 73.820804 
L 357.443715 73.769006 
L 357.85415 72.784855 
L 358.264586 72.577665 
L 359.085457 71.25683 
L 359.906328 70.868349 
L 360.316764 70.324476 
L 360.727199 70.920146 
L 361.137635 71.101438 
L 361.54807 70.324476 
L 361.958506 70.557564 
L 362.368942 69.573413 
L 363.189813 69.41802 
L 364.010684 70.557564 
L 364.831555 70.169083 
L 365.241991 69.288527 
L 365.652426 69.651109 
L 366.473297 70.63526 
L 367.294168 70.816552 
L 368.11504 71.023741 
L 368.525475 71.774804 
L 368.935911 72.240981 
L 369.346346 72.344576 
L 369.756782 71.904298 
L 370.167218 71.282729 
L 371.398524 73.147437 
L 371.80896 73.276931 
L 372.219395 73.147437 
L 372.629831 73.354627 
L 373.861138 74.468272 
L 375.50288 74.856753 
L 375.913316 75.245234 
L 376.323751 76.048094 
L 376.734187 76.358879 
L 377.144622 76.928651 
L 377.555058 78.094094 
L 378.375929 79.233638 
L 378.786365 78.819258 
L 379.1968 79.285435 
L 380.017672 79.155941 
L 380.428107 78.663866 
L 380.838543 78.353081 
L 381.659414 78.586169 
L 382.069849 79.130043 
L 382.480285 78.586169 
L 382.890721 78.37898 
L 383.301156 77.653815 
L 383.711592 77.291233 
L 384.122027 76.566069 
L 384.942899 76.695562 
L 385.353334 76.229385 
L 385.76377 74.882652 
L 386.174205 74.10569 
L 386.584641 74.597766 
L 387.405512 76.151689 
L 387.815948 76.229385 
L 388.226383 77.213537 
L 388.636819 77.006347 
L 389.45769 77.187638 
L 390.688997 79.207739 
L 391.099432 79.59622 
L 391.509868 79.777511 
L 391.920303 79.725713 
L 392.741175 78.508473 
L 393.15161 78.016397 
L 393.562046 77.213537 
L 394.793352 76.048094 
L 395.614224 75.737309 
L 396.435095 76.669664 
L 397.255966 78.948752 
L 398.076837 79.881106 
L 398.487273 80.010599 
L 398.487273 80.010599 
" clip-path="url(#pb416686ccb)" style="fill: none; stroke: #1f77b4; stroke-width: 1.5; stroke-linecap: square"/>
   </g>
   <g id="patch_3">
    <path d="M 57.6 307.584 
L 57.6 41.472 
" style="fill: none; stroke: #000000; stroke-width: 0.8; stroke-linejoin: miter; stroke-linecap: square"/>
   </g>
   <g id="patch_4">
    <path d="M 414.72 307.584 
L 414.72 41.472 
" style="fill: none; stroke: #000000; stroke-width: 0.8; stroke-linejoin: miter; stroke-linecap: square"/>
   </g>
   <g id="patch_5">
    <path d="M 57.6 307.584 
L 414.72 307.584 
" style="fill: none; stroke: #000000; stroke-width: 0.8; stroke-linejoin: miter; stroke-linecap: square"/>
   </g>
   <g id="patch_6">
    <path d="M 57.6 41.472 
L 414.72 41.472 
" style="fill: none; stroke: #000000; stroke-width: 0.8; stroke-linejoin: miter; stroke-linecap: square"/>
   </g>
   <g id="text_17">
    <!-- episodes length -->
    <g transform="translate(188.536875 35.472) scale(0.12 -0.12)">
     <use xlink:href="#DejaVuSans-65"/>
     <use xlink:href="#DejaVuSans-70" x="61.523438"/>
     <use xlink:href="#DejaVuSans-69" x="125"/>
     <use xlink:href="#DejaVuSans-73" x="152.783203"/>
     <use xlink:href="#DejaVuSans-6f" x="204.882812"/>
     <use xlink:href="#DejaVuSans-64" x="266.064453"/>
     <use xlink:href="#DejaVuSans-65" x="329.541016"/>
     <use xlink:href="#DejaVuSans-73" x="391.064453"/>
     <use xlink:href="#DejaVuSans-20" x="443.164062"/>
     <use xlink:href="#DejaVuSans-6c" x="474.951172"/>
     <use xlink:href="#DejaVuSans-65" x="502.734375"/>
     <use xlink:href="#DejaVuSans-6e" x="564.257812"/>
     <use xlink:href="#DejaVuSans-67" x="627.636719"/>
     <use xlink:href="#DejaVuSans-74" x="691.113281"/>
     <use xlink:href="#DejaVuSans-68" x="730.322266"/>
    </g>
   </g>
  </g>
 </g>
 <defs>
  <clipPath id="pb416686ccb">
   <rect x="57.6" y="41.472" width="357.12" height="266.112"/>
  </clipPath>
 </defs>
</svg>
