<?xml version="1.0" encoding="utf-8" standalone="no"?>
<!DOCTYPE svg PUBLIC "-//W3C//DTD SVG 1.1//EN"
  "http://www.w3.org/Graphics/SVG/1.1/DTD/svg11.dtd">
<svg xmlns:xlink="http://www.w3.org/1999/xlink" width="460.8pt" height="345.6pt" viewBox="0 0 460.8 345.6" xmlns="http://www.w3.org/2000/svg" version="1.1">
 <metadata>
  <rdf:RDF xmlns:dc="http://purl.org/dc/elements/1.1/" xmlns:cc="http://creativecommons.org/ns#" xmlns:rdf="http://www.w3.org/1999/02/22-rdf-syntax-ns#">
   <cc:Work>
    <dc:type rdf:resource="http://purl.org/dc/dcmitype/StillImage"/>
    <dc:date>2023-08-19T13:25:24.728640</dc:date>
    <dc:format>image/svg+xml</dc:format>
    <dc:creator>
     <cc:Agent>
      <dc:title>Matplotlib v3.7.1, https://matplotlib.org/</dc:title>
     </cc:Agent>
    </dc:creator>
   </cc:Work>
  </rdf:RDF>
 </metadata>
 <defs>
  <style type="text/css">*{stroke-linejoin: round; stroke-linecap: butt}</style>
 </defs>
 <g id="figure_1">
  <g id="patch_1">
   <path d="M 0 345.6 
L 460.8 345.6 
L 460.8 0 
L 0 0 
z
" style="fill: #ffffff"/>
  </g>
  <g id="axes_1">
   <g id="patch_2">
    <path d="M 57.6 307.584 
L 414.72 307.584 
L 414.72 41.472 
L 57.6 41.472 
z
" style="fill: #ffffff"/>
   </g>
   <g id="matplotlib.axis_1">
    <g id="xtick_1">
     <g id="line2d_1">
      <defs>
       <path id="m84c953092c" d="M 0 0 
L 0 3.5 
" style="stroke: #000000; stroke-width: 0.8"/>
      </defs>
      <g>
       <use xlink:href="#m84c953092c" x="73.585792" y="307.584" style="stroke: #000000; stroke-width: 0.8"/>
      </g>
     </g>
     <g id="text_1">
      <!-- 0 -->
      <g transform="translate(70.404542 322.182437) scale(0.1 -0.1)">
       <defs>
        <path id="DejaVuSans-30" d="M 2034 4250 
Q 1547 4250 1301 3770 
Q 1056 3291 1056 2328 
Q 1056 1369 1301 889 
Q 1547 409 2034 409 
Q 2525 409 2770 889 
Q 3016 1369 3016 2328 
Q 3016 3291 2770 3770 
Q 2525 4250 2034 4250 
z
M 2034 4750 
Q 2819 4750 3233 4129 
Q 3647 3509 3647 2328 
Q 3647 1150 3233 529 
Q 2819 -91 2034 -91 
Q 1250 -91 836 529 
Q 422 1150 422 2328 
Q 422 3509 836 4129 
Q 1250 4750 2034 4750 
z
" transform="scale(0.015625)"/>
       </defs>
       <use xlink:href="#DejaVuSans-30"/>
      </g>
     </g>
    </g>
    <g id="xtick_2">
     <g id="line2d_2">
      <g>
       <use xlink:href="#m84c953092c" x="138.568688" y="307.584" style="stroke: #000000; stroke-width: 0.8"/>
      </g>
     </g>
     <g id="text_2">
      <!-- 100000 -->
      <g transform="translate(119.481188 322.182437) scale(0.1 -0.1)">
       <defs>
        <path id="DejaVuSans-31" d="M 794 531 
L 1825 531 
L 1825 4091 
L 703 3866 
L 703 4441 
L 1819 4666 
L 2450 4666 
L 2450 531 
L 3481 531 
L 3481 0 
L 794 0 
L 794 531 
z
" transform="scale(0.015625)"/>
       </defs>
       <use xlink:href="#DejaVuSans-31"/>
       <use xlink:href="#DejaVuSans-30" x="63.623047"/>
       <use xlink:href="#DejaVuSans-30" x="127.246094"/>
       <use xlink:href="#DejaVuSans-30" x="190.869141"/>
       <use xlink:href="#DejaVuSans-30" x="254.492188"/>
       <use xlink:href="#DejaVuSans-30" x="318.115234"/>
      </g>
     </g>
    </g>
    <g id="xtick_3">
     <g id="line2d_3">
      <g>
       <use xlink:href="#m84c953092c" x="203.551583" y="307.584" style="stroke: #000000; stroke-width: 0.8"/>
      </g>
     </g>
     <g id="text_3">
      <!-- 200000 -->
      <g transform="translate(184.464083 322.182437) scale(0.1 -0.1)">
       <defs>
        <path id="DejaVuSans-32" d="M 1228 531 
L 3431 531 
L 3431 0 
L 469 0 
L 469 531 
Q 828 903 1448 1529 
Q 2069 2156 2228 2338 
Q 2531 2678 2651 2914 
Q 2772 3150 2772 3378 
Q 2772 3750 2511 3984 
Q 2250 4219 1831 4219 
Q 1534 4219 1204 4116 
Q 875 4013 500 3803 
L 500 4441 
Q 881 4594 1212 4672 
Q 1544 4750 1819 4750 
Q 2544 4750 2975 4387 
Q 3406 4025 3406 3419 
Q 3406 3131 3298 2873 
Q 3191 2616 2906 2266 
Q 2828 2175 2409 1742 
Q 1991 1309 1228 531 
z
" transform="scale(0.015625)"/>
       </defs>
       <use xlink:href="#DejaVuSans-32"/>
       <use xlink:href="#DejaVuSans-30" x="63.623047"/>
       <use xlink:href="#DejaVuSans-30" x="127.246094"/>
       <use xlink:href="#DejaVuSans-30" x="190.869141"/>
       <use xlink:href="#DejaVuSans-30" x="254.492188"/>
       <use xlink:href="#DejaVuSans-30" x="318.115234"/>
      </g>
     </g>
    </g>
    <g id="xtick_4">
     <g id="line2d_4">
      <g>
       <use xlink:href="#m84c953092c" x="268.534478" y="307.584" style="stroke: #000000; stroke-width: 0.8"/>
      </g>
     </g>
     <g id="text_4">
      <!-- 300000 -->
      <g transform="translate(249.446978 322.182437) scale(0.1 -0.1)">
       <defs>
        <path id="DejaVuSans-33" d="M 2597 2516 
Q 3050 2419 3304 2112 
Q 3559 1806 3559 1356 
Q 3559 666 3084 287 
Q 2609 -91 1734 -91 
Q 1441 -91 1130 -33 
Q 819 25 488 141 
L 488 750 
Q 750 597 1062 519 
Q 1375 441 1716 441 
Q 2309 441 2620 675 
Q 2931 909 2931 1356 
Q 2931 1769 2642 2001 
Q 2353 2234 1838 2234 
L 1294 2234 
L 1294 2753 
L 1863 2753 
Q 2328 2753 2575 2939 
Q 2822 3125 2822 3475 
Q 2822 3834 2567 4026 
Q 2313 4219 1838 4219 
Q 1578 4219 1281 4162 
Q 984 4106 628 3988 
L 628 4550 
Q 988 4650 1302 4700 
Q 1616 4750 1894 4750 
Q 2613 4750 3031 4423 
Q 3450 4097 3450 3541 
Q 3450 3153 3228 2886 
Q 3006 2619 2597 2516 
z
" transform="scale(0.015625)"/>
       </defs>
       <use xlink:href="#DejaVuSans-33"/>
       <use xlink:href="#DejaVuSans-30" x="63.623047"/>
       <use xlink:href="#DejaVuSans-30" x="127.246094"/>
       <use xlink:href="#DejaVuSans-30" x="190.869141"/>
       <use xlink:href="#DejaVuSans-30" x="254.492188"/>
       <use xlink:href="#DejaVuSans-30" x="318.115234"/>
      </g>
     </g>
    </g>
    <g id="xtick_5">
     <g id="line2d_5">
      <g>
       <use xlink:href="#m84c953092c" x="333.517374" y="307.584" style="stroke: #000000; stroke-width: 0.8"/>
      </g>
     </g>
     <g id="text_5">
      <!-- 400000 -->
      <g transform="translate(314.429874 322.182437) scale(0.1 -0.1)">
       <defs>
        <path id="DejaVuSans-34" d="M 2419 4116 
L 825 1625 
L 2419 1625 
L 2419 4116 
z
M 2253 4666 
L 3047 4666 
L 3047 1625 
L 3713 1625 
L 3713 1100 
L 3047 1100 
L 3047 0 
L 2419 0 
L 2419 1100 
L 313 1100 
L 313 1709 
L 2253 4666 
z
" transform="scale(0.015625)"/>
       </defs>
       <use xlink:href="#DejaVuSans-34"/>
       <use xlink:href="#DejaVuSans-30" x="63.623047"/>
       <use xlink:href="#DejaVuSans-30" x="127.246094"/>
       <use xlink:href="#DejaVuSans-30" x="190.869141"/>
       <use xlink:href="#DejaVuSans-30" x="254.492188"/>
       <use xlink:href="#DejaVuSans-30" x="318.115234"/>
      </g>
     </g>
    </g>
    <g id="xtick_6">
     <g id="line2d_6">
      <g>
       <use xlink:href="#m84c953092c" x="398.500269" y="307.584" style="stroke: #000000; stroke-width: 0.8"/>
      </g>
     </g>
     <g id="text_6">
      <!-- 500000 -->
      <g transform="translate(379.412769 322.182437) scale(0.1 -0.1)">
       <defs>
        <path id="DejaVuSans-35" d="M 691 4666 
L 3169 4666 
L 3169 4134 
L 1269 4134 
L 1269 2991 
Q 1406 3038 1543 3061 
Q 1681 3084 1819 3084 
Q 2600 3084 3056 2656 
Q 3513 2228 3513 1497 
Q 3513 744 3044 326 
Q 2575 -91 1722 -91 
Q 1428 -91 1123 -41 
Q 819 9 494 109 
L 494 744 
Q 775 591 1075 516 
Q 1375 441 1709 441 
Q 2250 441 2565 725 
Q 2881 1009 2881 1497 
Q 2881 1984 2565 2268 
Q 2250 2553 1709 2553 
Q 1456 2553 1204 2497 
Q 953 2441 691 2322 
L 691 4666 
z
" transform="scale(0.015625)"/>
       </defs>
       <use xlink:href="#DejaVuSans-35"/>
       <use xlink:href="#DejaVuSans-30" x="63.623047"/>
       <use xlink:href="#DejaVuSans-30" x="127.246094"/>
       <use xlink:href="#DejaVuSans-30" x="190.869141"/>
       <use xlink:href="#DejaVuSans-30" x="254.492188"/>
       <use xlink:href="#DejaVuSans-30" x="318.115234"/>
      </g>
     </g>
    </g>
    <g id="text_7">
     <!-- timesteps -->
     <g transform="translate(211.443594 335.860562) scale(0.1 -0.1)">
      <defs>
       <path id="DejaVuSans-74" d="M 1172 4494 
L 1172 3500 
L 2356 3500 
L 2356 3053 
L 1172 3053 
L 1172 1153 
Q 1172 725 1289 603 
Q 1406 481 1766 481 
L 2356 481 
L 2356 0 
L 1766 0 
Q 1100 0 847 248 
Q 594 497 594 1153 
L 594 3053 
L 172 3053 
L 172 3500 
L 594 3500 
L 594 4494 
L 1172 4494 
z
" transform="scale(0.015625)"/>
       <path id="DejaVuSans-69" d="M 603 3500 
L 1178 3500 
L 1178 0 
L 603 0 
L 603 3500 
z
M 603 4863 
L 1178 4863 
L 1178 4134 
L 603 4134 
L 603 4863 
z
" transform="scale(0.015625)"/>
       <path id="DejaVuSans-6d" d="M 3328 2828 
Q 3544 3216 3844 3400 
Q 4144 3584 4550 3584 
Q 5097 3584 5394 3201 
Q 5691 2819 5691 2113 
L 5691 0 
L 5113 0 
L 5113 2094 
Q 5113 2597 4934 2840 
Q 4756 3084 4391 3084 
Q 3944 3084 3684 2787 
Q 3425 2491 3425 1978 
L 3425 0 
L 2847 0 
L 2847 2094 
Q 2847 2600 2669 2842 
Q 2491 3084 2119 3084 
Q 1678 3084 1418 2786 
Q 1159 2488 1159 1978 
L 1159 0 
L 581 0 
L 581 3500 
L 1159 3500 
L 1159 2956 
Q 1356 3278 1631 3431 
Q 1906 3584 2284 3584 
Q 2666 3584 2933 3390 
Q 3200 3197 3328 2828 
z
" transform="scale(0.015625)"/>
       <path id="DejaVuSans-65" d="M 3597 1894 
L 3597 1613 
L 953 1613 
Q 991 1019 1311 708 
Q 1631 397 2203 397 
Q 2534 397 2845 478 
Q 3156 559 3463 722 
L 3463 178 
Q 3153 47 2828 -22 
Q 2503 -91 2169 -91 
Q 1331 -91 842 396 
Q 353 884 353 1716 
Q 353 2575 817 3079 
Q 1281 3584 2069 3584 
Q 2775 3584 3186 3129 
Q 3597 2675 3597 1894 
z
M 3022 2063 
Q 3016 2534 2758 2815 
Q 2500 3097 2075 3097 
Q 1594 3097 1305 2825 
Q 1016 2553 972 2059 
L 3022 2063 
z
" transform="scale(0.015625)"/>
       <path id="DejaVuSans-73" d="M 2834 3397 
L 2834 2853 
Q 2591 2978 2328 3040 
Q 2066 3103 1784 3103 
Q 1356 3103 1142 2972 
Q 928 2841 928 2578 
Q 928 2378 1081 2264 
Q 1234 2150 1697 2047 
L 1894 2003 
Q 2506 1872 2764 1633 
Q 3022 1394 3022 966 
Q 3022 478 2636 193 
Q 2250 -91 1575 -91 
Q 1294 -91 989 -36 
Q 684 19 347 128 
L 347 722 
Q 666 556 975 473 
Q 1284 391 1588 391 
Q 1994 391 2212 530 
Q 2431 669 2431 922 
Q 2431 1156 2273 1281 
Q 2116 1406 1581 1522 
L 1381 1569 
Q 847 1681 609 1914 
Q 372 2147 372 2553 
Q 372 3047 722 3315 
Q 1072 3584 1716 3584 
Q 2034 3584 2315 3537 
Q 2597 3491 2834 3397 
z
" transform="scale(0.015625)"/>
       <path id="DejaVuSans-70" d="M 1159 525 
L 1159 -1331 
L 581 -1331 
L 581 3500 
L 1159 3500 
L 1159 2969 
Q 1341 3281 1617 3432 
Q 1894 3584 2278 3584 
Q 2916 3584 3314 3078 
Q 3713 2572 3713 1747 
Q 3713 922 3314 415 
Q 2916 -91 2278 -91 
Q 1894 -91 1617 61 
Q 1341 213 1159 525 
z
M 3116 1747 
Q 3116 2381 2855 2742 
Q 2594 3103 2138 3103 
Q 1681 3103 1420 2742 
Q 1159 2381 1159 1747 
Q 1159 1113 1420 752 
Q 1681 391 2138 391 
Q 2594 391 2855 752 
Q 3116 1113 3116 1747 
z
" transform="scale(0.015625)"/>
      </defs>
      <use xlink:href="#DejaVuSans-74"/>
      <use xlink:href="#DejaVuSans-69" x="39.208984"/>
      <use xlink:href="#DejaVuSans-6d" x="66.992188"/>
      <use xlink:href="#DejaVuSans-65" x="164.404297"/>
      <use xlink:href="#DejaVuSans-73" x="225.927734"/>
      <use xlink:href="#DejaVuSans-74" x="278.027344"/>
      <use xlink:href="#DejaVuSans-65" x="317.236328"/>
      <use xlink:href="#DejaVuSans-70" x="378.759766"/>
      <use xlink:href="#DejaVuSans-73" x="442.236328"/>
     </g>
    </g>
   </g>
   <g id="matplotlib.axis_2">
    <g id="ytick_1">
     <g id="line2d_7">
      <defs>
       <path id="m9e5bcf2ebf" d="M 0 0 
L -3.5 0 
" style="stroke: #000000; stroke-width: 0.8"/>
      </defs>
      <g>
       <use xlink:href="#m9e5bcf2ebf" x="57.6" y="251.380043" style="stroke: #000000; stroke-width: 0.8"/>
      </g>
     </g>
     <g id="text_8">
      <!-- 50 -->
      <g transform="translate(37.875 255.179262) scale(0.1 -0.1)">
       <use xlink:href="#DejaVuSans-35"/>
       <use xlink:href="#DejaVuSans-30" x="63.623047"/>
      </g>
     </g>
    </g>
    <g id="ytick_2">
     <g id="line2d_8">
      <g>
       <use xlink:href="#m9e5bcf2ebf" x="57.6" y="194.295554" style="stroke: #000000; stroke-width: 0.8"/>
      </g>
     </g>
     <g id="text_9">
      <!-- 100 -->
      <g transform="translate(31.5125 198.094773) scale(0.1 -0.1)">
       <use xlink:href="#DejaVuSans-31"/>
       <use xlink:href="#DejaVuSans-30" x="63.623047"/>
       <use xlink:href="#DejaVuSans-30" x="127.246094"/>
      </g>
     </g>
    </g>
    <g id="ytick_3">
     <g id="line2d_9">
      <g>
       <use xlink:href="#m9e5bcf2ebf" x="57.6" y="137.211066" style="stroke: #000000; stroke-width: 0.8"/>
      </g>
     </g>
     <g id="text_10">
      <!-- 150 -->
      <g transform="translate(31.5125 141.010284) scale(0.1 -0.1)">
       <use xlink:href="#DejaVuSans-31"/>
       <use xlink:href="#DejaVuSans-35" x="63.623047"/>
       <use xlink:href="#DejaVuSans-30" x="127.246094"/>
      </g>
     </g>
    </g>
    <g id="ytick_4">
     <g id="line2d_10">
      <g>
       <use xlink:href="#m9e5bcf2ebf" x="57.6" y="80.126577" style="stroke: #000000; stroke-width: 0.8"/>
      </g>
     </g>
     <g id="text_11">
      <!-- 200 -->
      <g transform="translate(31.5125 83.925796) scale(0.1 -0.1)">
       <use xlink:href="#DejaVuSans-32"/>
       <use xlink:href="#DejaVuSans-30" x="63.623047"/>
       <use xlink:href="#DejaVuSans-30" x="127.246094"/>
      </g>
     </g>
    </g>
    <g id="text_12">
     <!-- mean episode rewards -->
     <g transform="translate(25.432812 231.360031) rotate(-90) scale(0.1 -0.1)">
      <defs>
       <path id="DejaVuSans-61" d="M 2194 1759 
Q 1497 1759 1228 1600 
Q 959 1441 959 1056 
Q 959 750 1161 570 
Q 1363 391 1709 391 
Q 2188 391 2477 730 
Q 2766 1069 2766 1631 
L 2766 1759 
L 2194 1759 
z
M 3341 1997 
L 3341 0 
L 2766 0 
L 2766 531 
Q 2569 213 2275 61 
Q 1981 -91 1556 -91 
Q 1019 -91 701 211 
Q 384 513 384 1019 
Q 384 1609 779 1909 
Q 1175 2209 1959 2209 
L 2766 2209 
L 2766 2266 
Q 2766 2663 2505 2880 
Q 2244 3097 1772 3097 
Q 1472 3097 1187 3025 
Q 903 2953 641 2809 
L 641 3341 
Q 956 3463 1253 3523 
Q 1550 3584 1831 3584 
Q 2591 3584 2966 3190 
Q 3341 2797 3341 1997 
z
" transform="scale(0.015625)"/>
       <path id="DejaVuSans-6e" d="M 3513 2113 
L 3513 0 
L 2938 0 
L 2938 2094 
Q 2938 2591 2744 2837 
Q 2550 3084 2163 3084 
Q 1697 3084 1428 2787 
Q 1159 2491 1159 1978 
L 1159 0 
L 581 0 
L 581 3500 
L 1159 3500 
L 1159 2956 
Q 1366 3272 1645 3428 
Q 1925 3584 2291 3584 
Q 2894 3584 3203 3211 
Q 3513 2838 3513 2113 
z
" transform="scale(0.015625)"/>
       <path id="DejaVuSans-20" transform="scale(0.015625)"/>
       <path id="DejaVuSans-6f" d="M 1959 3097 
Q 1497 3097 1228 2736 
Q 959 2375 959 1747 
Q 959 1119 1226 758 
Q 1494 397 1959 397 
Q 2419 397 2687 759 
Q 2956 1122 2956 1747 
Q 2956 2369 2687 2733 
Q 2419 3097 1959 3097 
z
M 1959 3584 
Q 2709 3584 3137 3096 
Q 3566 2609 3566 1747 
Q 3566 888 3137 398 
Q 2709 -91 1959 -91 
Q 1206 -91 779 398 
Q 353 888 353 1747 
Q 353 2609 779 3096 
Q 1206 3584 1959 3584 
z
" transform="scale(0.015625)"/>
       <path id="DejaVuSans-64" d="M 2906 2969 
L 2906 4863 
L 3481 4863 
L 3481 0 
L 2906 0 
L 2906 525 
Q 2725 213 2448 61 
Q 2172 -91 1784 -91 
Q 1150 -91 751 415 
Q 353 922 353 1747 
Q 353 2572 751 3078 
Q 1150 3584 1784 3584 
Q 2172 3584 2448 3432 
Q 2725 3281 2906 2969 
z
M 947 1747 
Q 947 1113 1208 752 
Q 1469 391 1925 391 
Q 2381 391 2643 752 
Q 2906 1113 2906 1747 
Q 2906 2381 2643 2742 
Q 2381 3103 1925 3103 
Q 1469 3103 1208 2742 
Q 947 2381 947 1747 
z
" transform="scale(0.015625)"/>
       <path id="DejaVuSans-72" d="M 2631 2963 
Q 2534 3019 2420 3045 
Q 2306 3072 2169 3072 
Q 1681 3072 1420 2755 
Q 1159 2438 1159 1844 
L 1159 0 
L 581 0 
L 581 3500 
L 1159 3500 
L 1159 2956 
Q 1341 3275 1631 3429 
Q 1922 3584 2338 3584 
Q 2397 3584 2469 3576 
Q 2541 3569 2628 3553 
L 2631 2963 
z
" transform="scale(0.015625)"/>
       <path id="DejaVuSans-77" d="M 269 3500 
L 844 3500 
L 1563 769 
L 2278 3500 
L 2956 3500 
L 3675 769 
L 4391 3500 
L 4966 3500 
L 4050 0 
L 3372 0 
L 2619 2869 
L 1863 0 
L 1184 0 
L 269 3500 
z
" transform="scale(0.015625)"/>
      </defs>
      <use xlink:href="#DejaVuSans-6d"/>
      <use xlink:href="#DejaVuSans-65" x="97.412109"/>
      <use xlink:href="#DejaVuSans-61" x="158.935547"/>
      <use xlink:href="#DejaVuSans-6e" x="220.214844"/>
      <use xlink:href="#DejaVuSans-20" x="283.59375"/>
      <use xlink:href="#DejaVuSans-65" x="315.380859"/>
      <use xlink:href="#DejaVuSans-70" x="376.904297"/>
      <use xlink:href="#DejaVuSans-69" x="440.380859"/>
      <use xlink:href="#DejaVuSans-73" x="468.164062"/>
      <use xlink:href="#DejaVuSans-6f" x="520.263672"/>
      <use xlink:href="#DejaVuSans-64" x="581.445312"/>
      <use xlink:href="#DejaVuSans-65" x="644.921875"/>
      <use xlink:href="#DejaVuSans-20" x="706.445312"/>
      <use xlink:href="#DejaVuSans-72" x="738.232422"/>
      <use xlink:href="#DejaVuSans-65" x="777.095703"/>
      <use xlink:href="#DejaVuSans-77" x="838.619141"/>
      <use xlink:href="#DejaVuSans-61" x="920.40625"/>
      <use xlink:href="#DejaVuSans-72" x="981.685547"/>
      <use xlink:href="#DejaVuSans-64" x="1021.048828"/>
      <use xlink:href="#DejaVuSans-73" x="1084.525391"/>
     </g>
    </g>
   </g>
   <g id="line2d_11">
    <path d="M 73.832727 295.488 
L 74.105655 290.913107 
L 74.222625 290.257919 
L 74.313601 290.900435 
L 74.508549 291.1399 
L 74.664508 291.105438 
L 74.898447 289.63192 
L 75.041409 289.628375 
L 75.600262 288.542336 
L 75.743224 288.839419 
L 75.87319 288.772217 
L 76.146118 289.252388 
L 76.302077 290.118888 
L 76.419047 289.359828 
L 76.562009 289.396378 
L 76.678978 288.771944 
L 76.964903 290.520713 
L 77.133858 289.062934 
L 77.276821 289.102371 
L 77.588739 288.597962 
L 77.705708 288.005014 
L 77.913653 289.297898 
L 78.030622 288.783418 
L 78.173585 288.84176 
L 78.34254 286.356411 
L 78.472506 286.304098 
L 78.654458 287.034223 
L 78.992369 284.452332 
L 79.161325 285.355252 
L 79.252301 284.790141 
L 79.421256 282.697571 
L 79.538225 282.983289 
L 79.733174 284.220465 
L 79.82415 285.808948 
L 79.941119 285.72173 
L 80.032095 284.932453 
L 80.214048 286.543694 
L 80.292027 286.016791 
L 80.421993 285.995085 
L 80.577952 286.341652 
L 80.785897 288.604251 
L 80.915863 287.965416 
L 81.266771 289.626122 
L 81.396736 290.16485 
L 81.708654 291.95357 
L 81.87761 291.918482 
L 82.137541 291.131365 
L 82.306497 291.279011 
L 82.397473 288.890085 
L 82.722387 288.137926 
L 82.86535 287.213972 
L 82.982319 287.498287 
L 83.268244 285.843947 
L 83.398209 286.612452 
L 83.554168 285.622688 
L 83.736121 285.546147 
L 83.957062 287.886381 
L 84.216994 289.020999 
L 84.372953 288.748167 
L 84.671874 290.538806 
L 84.76285 289.380612 
L 84.970796 291.063093 
L 85.165744 291.27152 
L 85.269717 290.765762 
L 85.698604 290.829095 
L 85.82857 290.114529 
L 85.971532 289.995211 
L 86.088501 290.886161 
L 86.335436 290.306093 
L 86.478399 290.479358 
L 86.582371 290.888477 
L 86.764323 290.525776 
L 86.894289 289.826994 
L 87.141224 290.754309 
L 87.245197 290.295759 
L 87.362166 290.736781 
L 87.479135 290.547097 
L 87.609101 290.822363 
L 87.752063 290.091513 
L 87.973005 291.075526 
L 88.063981 291.479687 
L 88.206944 291.46821 
L 88.479872 291.738056 
L 88.596841 291.531936 
L 88.726807 292.107083 
L 88.882766 291.847738 
L 89.181687 289.69754 
L 89.298656 289.073299 
L 89.558588 288.926324 
L 89.727543 286.612822 
L 89.948485 286.892295 
L 90.078451 286.67769 
L 90.169427 286.826617 
L 90.442355 288.82062 
L 90.572321 289.302388 
L 90.650301 290.043647 
L 90.76727 289.385625 
L 90.936225 292.127062 
L 91.18316 292.153409 
L 91.30013 291.714848 
L 91.443092 292.424565 
L 91.664034 290.831856 
L 91.781003 291.055318 
L 91.949959 291.002254 
L 92.196894 290.256173 
L 92.300866 289.437494 
L 92.820729 292.261433 
L 93.106654 291.461459 
L 93.23662 291.613845 
L 93.392579 291.582513 
L 94.042408 287.947283 
L 94.575267 290.198834 
L 94.71823 290.643102 
L 95.511021 288.705246 
L 95.731963 289.13998 
L 95.887922 288.45834 
L 96.004891 289.148774 
L 96.186843 287.444283 
L 96.420782 289.359716 
L 96.576741 289.100089 
L 96.771689 288.663744 
L 97.14859 285.403988 
L 97.343539 285.611406 
L 97.759429 283.130026 
L 98.09734 278.049995 
L 98.422255 276.413325 
L 98.578214 276.379856 
L 98.721176 275.941847 
L 98.916125 276.75682 
L 99.08508 276.946788 
L 99.267033 276.515044 
L 99.474978 276.37353 
L 99.61794 275.604706 
L 100.098814 278.20144 
L 100.280766 274.757201 
L 100.514704 273.253983 
L 100.787632 272.408823 
L 101.268506 263.497086 
L 101.398472 262.978352 
L 101.762376 262.576304 
L 101.944328 261.601727 
L 102.152273 258.010499 
L 102.477188 256.314416 
L 102.646143 256.778356 
L 103.023044 255.305721 
L 103.204996 253.031008 
L 103.555904 255.319015 
L 103.763849 254.916094 
L 104.06277 251.998515 
L 104.387685 251.602756 
L 104.738592 249.93976 
L 104.985527 249.57189 
L 105.219466 248.505002 
L 105.518387 248.166537 
L 105.830305 247.589187 
L 106.207206 246.16983 
L 106.454141 246.76917 
L 106.623096 248.942675 
L 106.857035 248.746992 
L 107.10397 251.43154 
L 107.55885 252.397972 
L 107.792788 251.993789 
L 108.273662 254.69691 
L 108.455614 255.179991 
L 108.637566 255.315824 
L 108.819518 254.655153 
L 109.118439 255.464504 
L 109.235409 255.352643 
L 109.521333 257.438952 
L 109.807258 257.304944 
L 109.937224 258.270867 
L 110.197156 258.288079 
L 110.418097 259.303526 
L 110.782002 258.511923 
L 110.989947 259.024459 
L 111.171899 259.050634 
L 111.379844 260.325636 
L 111.574793 259.332513 
L 111.769742 259.938781 
L 111.977687 259.359009 
L 112.159639 259.184274 
L 112.302601 258.791846 
L 112.49755 259.513149 
L 112.861454 259.660026 
L 113.108389 260.033248 
L 113.264348 259.145441 
L 113.498287 258.633491 
L 113.654246 258.774521 
L 113.888184 258.457193 
L 114.01815 257.967689 
L 114.226095 257.917219 
L 114.356061 257.486987 
L 114.745958 257.395167 
L 114.92791 256.594874 
L 115.161849 256.524787 
L 115.564743 257.082692 
L 115.759691 256.733279 
L 115.95464 257.48878 
L 116.539486 257.708545 
L 116.695445 257.012888 
L 116.916387 257.091259 
L 117.39726 255.885784 
L 117.618202 257.081326 
L 117.813151 256.314049 
L 117.956113 256.794757 
L 118.125069 256.669637 
L 118.281028 257.085672 
L 118.514966 257.302577 
L 118.670925 257.220782 
L 118.852877 256.847793 
L 119.242775 257.392812 
L 119.37274 257.036741 
L 119.658665 255.844403 
L 119.710651 255.996806 
L 120.022569 255.850393 
L 120.139539 255.05807 
L 120.490446 255.405632 
L 120.698391 255.429527 
L 121.322227 253.759519 
L 121.46519 254.650218 
L 121.673135 253.925309 
L 121.84209 254.14957 
L 122.244984 252.449301 
L 122.595892 251.803937 
L 122.790841 251.925042 
L 123.011783 251.556335 
L 123.180738 251.834085 
L 123.414676 251.371122 
L 123.583632 251.628072 
L 123.804574 251.362494 
L 123.986526 251.55093 
L 124.194471 252.167939 
L 124.610362 251.193367 
L 124.948273 249.929246 
L 125.195208 250.275635 
L 125.33817 249.060835 
L 125.585105 249.300029 
L 125.702074 249.129099 
L 125.949009 249.267309 
L 126.104968 249.182533 
L 126.338907 249.842583 
L 126.546852 249.121614 
L 126.962743 249.627735 
L 127.105705 249.093318 
L 127.339643 249.978111 
L 127.703548 248.345843 
L 128.002469 248.009135 
L 128.158428 246.893772 
L 128.392366 246.10726 
L 128.626305 246.823355 
L 129.32812 244.154919 
L 129.471082 242.85521 
L 129.757007 242.594832 
L 129.899969 242.616687 
L 130.31586 241.336557 
L 130.666768 240.844554 
L 130.80973 239.488484 
L 131.082658 239.518198 
L 131.329593 239.376164 
L 131.550535 238.466646 
L 132.018412 238.633399 
L 132.78521 235.519209 
L 133.058138 234.858884 
L 133.344063 233.689583 
L 133.629988 231.663826 
L 133.850929 231.628234 
L 134.097864 231.163295 
L 134.448772 229.843729 
L 134.695707 227.557422 
L 135.020622 227.518384 
L 135.189577 226.200312 
L 135.436512 226.935715 
L 135.761427 226.51151 
L 136.060348 226.981168 
L 136.268293 228.730087 
L 136.671187 225.439693 
L 136.918122 224.757148 
L 137.152061 222.987261 
L 137.541958 223.806139 
L 137.814886 222.135259 
L 138.100811 221.34942 
L 138.412729 218.637465 
L 139.010571 215.518443 
L 140.115281 208.416095 
L 140.609151 207.966867 
L 140.882079 204.356529 
L 141.349956 202.269027 
L 141.908809 197.605959 
L 142.233723 191.5588 
L 142.766583 186.58093 
L 143.351429 179.325298 
L 144.833039 157.50465 
L 145.274922 152.716171 
L 146.002731 142.975296 
L 146.379632 134.831752 
L 147.120437 129.572792 
L 147.60131 122.916124 
L 148.368108 114.900913 
L 150.161636 101.310688 
L 150.902441 97.964066 
L 151.422304 92.234539 
L 152.072133 91.293736 
L 152.61799 87.62307 
L 153.306808 85.352736 
L 153.891654 84.911009 
L 154.51549 83.358339 
L 155.126329 80.673736 
L 155.737169 81.618023 
L 156.322015 81.583942 
L 157.049823 80.598692 
L 157.5177 78.315843 
L 158.284498 76.052251 
L 158.869344 76.238177 
L 159.363214 77.250133 
L 160.078026 77.952652 
L 160.571896 78.971959 
L 161.065766 80.554167 
L 161.884551 80.005623 
L 162.274448 80.677221 
L 163.041246 82.83263 
L 163.561109 82.939679 
L 164.236931 86.198887 
L 164.678815 87.583706 
L 165.315647 87.631893 
L 165.822514 89.811426 
L 166.589312 91.327074 
L 167.720015 92.58603 
L 168.226881 95.553732 
L 168.824724 94.489562 
L 169.214621 98.904527 
L 169.890443 100.296718 
L 170.293337 102.88838 
L 170.917173 103.796144 
L 171.42404 105.270507 
L 172.021882 107.637864 
L 172.632721 107.847232 
L 173.256557 109.958184 
L 173.620461 110.130667 
L 174.140325 113.376876 
L 174.595205 114.786338 
L 175.413989 115.505793 
L 176.076815 116.838905 
L 176.882603 118.874544 
L 177.155531 118.074726 
L 177.792363 124.009934 
L 178.429196 122.430541 
L 178.936062 120.250399 
L 179.546902 122.066764 
L 180.027775 120.538948 
L 180.560635 120.38844 
L 181.093494 122.995187 
L 181.639351 121.12887 
L 182.653084 122.393455 
L 183.146954 119.32456 
L 183.69281 122.005073 
L 184.576578 129.076348 
L 185.005465 132.076715 
L 185.603307 134.740584 
L 186.019198 135.249563 
L 187.370842 146.153213 
L 187.942692 152.193042 
L 188.267606 153.779011 
L 188.70949 154.727693 
L 189.281339 154.899466 
L 189.879182 150.892913 
L 190.970895 149.486856 
L 191.295809 147.390346 
L 191.841665 141.360816 
L 192.218566 141.812478 
L 192.777419 140.178368 
L 193.206306 140.862733 
L 193.674183 140.772748 
L 194.129063 141.095228 
L 194.609937 143.645023 
L 195.181786 144.787706 
L 195.597677 144.814458 
L 196.182523 145.939171 
L 196.676393 145.964199 
L 197.248242 142.879504 
L 197.716119 139.314739 
L 198.196993 138.726551 
L 198.742849 137.255111 
L 199.821565 129.898205 
L 202.758792 114.742862 
L 203.460607 114.20536 
L 204.578313 105.704281 
L 205.098176 103.162944 
L 205.735008 101.374228 
L 206.306858 97.686196 
L 206.98268 98.649621 
L 207.489547 99.99716 
L 207.996413 101.003755 
L 208.815198 100.287945 
L 209.231088 96.205789 
L 209.932903 96.087819 
L 210.413777 96.966599 
L 211.102596 98.905834 
L 211.570472 101.338627 
L 212.233298 102.903306 
L 212.766158 102.530992 
L 213.221038 102.81094 
L 213.961843 104.100854 
L 214.520696 103.050298 
L 215.235508 103.564955 
L 215.83335 99.607068 
L 216.626142 96.888112 
L 217.782837 87.051977 
L 218.38068 88.233599 
L 219.108488 83.882539 
L 219.706331 82.539538 
L 220.382153 78.322191 
L 220.902016 80.130224 
L 221.551845 79.88731 
L 222.149688 81.552197 
L 222.994465 81.126371 
L 223.579311 80.32482 
L 224.073181 80.282991 
L 224.956949 76.625422 
L 225.554791 76.299605 
L 226.152634 75.538464 
L 226.77647 78.186033 
L 227.465289 75.973244 
L 228.206094 72.90872 
L 228.881916 71.941568 
L 229.336796 72.592277 
L 230.19457 72.507152 
L 230.662447 72.116557 
L 231.962105 70.215738 
L 232.7419 68.516756 
L 233.300753 65.118598 
L 234.028561 64.409981 
L 234.665393 64.592345 
L 235.471181 65.283407 
L 236.004041 66.844686 
L 236.783836 66.24683 
L 237.199726 66.503049 
L 238.59036 67.986482 
L 239.227193 70.34354 
L 239.955001 71.272694 
L 240.656816 70.12192 
L 241.397621 70.103201 
L 241.995464 69.284241 
L 242.710276 68.611688 
L 243.801988 71.144812 
L 244.698752 71.148851 
L 245.361578 70.544023 
L 245.985414 66.885632 
L 246.60925 65.571611 
L 247.272075 66.618043 
L 247.986887 65.794159 
L 248.597726 64.234576 
L 249.481494 60.692968 
L 250.02735 59.611448 
L 250.742162 57.706749 
L 251.495963 56.563736 
L 252.158789 56.173397 
L 252.808618 55.608627 
L 253.549423 54.645029 
L 254.173259 53.568 
L 254.901067 54.317219 
L 255.615879 54.411561 
L 256.330691 55.099224 
L 256.915537 55.490248 
L 257.669338 55.690341 
L 258.267181 56.36841 
L 259.007986 56.372646 
L 259.631822 56.572254 
L 260.255658 57.76999 
L 260.93148 59.32475 
L 261.620298 59.270324 
L 262.218141 60.64048 
L 263.647765 60.83057 
L 264.219614 60.546364 
L 265.064392 60.73234 
L 265.558262 61.767588 
L 266.89691 62.447495 
L 267.624718 62.398214 
L 268.170574 63.298947 
L 269.106328 62.958925 
L 269.74316 63.073478 
L 270.457972 62.77157 
L 271.081808 62.281006 
L 271.861603 62.499644 
L 272.355473 61.286744 
L 273.356209 60.923886 
L 273.642134 59.642504 
L 274.603881 59.429709 
L 274.993778 58.092876 
L 275.864549 59.244831 
L 276.345423 59.586304 
L 277.307169 61.694876 
L 277.671074 63.06907 
L 278.489858 64.969285 
L 279.087701 67.19089 
L 279.828506 67.137036 
L 280.400355 67.57505 
L 281.739003 70.134221 
L 282.362839 70.996263 
L 283.090647 71.138312 
L 284.416298 69.912685 
L 285.222086 67.921583 
L 285.754946 67.28738 
L 286.469758 68.5944 
L 287.10659 69.46532 
L 287.743422 68.489416 
L 288.445238 68.754224 
L 289.12106 68.559512 
L 289.783885 69.572491 
L 290.446711 69.635836 
L 291.070547 70.525616 
L 291.824348 72.095974 
L 292.357208 72.871131 
L 293.11101 73.409657 
L 293.747842 74.015247 
L 294.358681 75.21429 
L 294.96952 75.830167 
L 295.645342 76.73441 
L 296.269178 77.07202 
L 297.568836 78.491154 
L 298.283648 77.967228 
L 300.207142 78.436258 
L 300.908957 78.30271 
L 301.42882 77.779816 
L 302.715481 77.033894 
L 304.028136 78.144001 
L 304.755944 78.3727 
L 305.405773 78.834169 
L 306.133582 78.225039 
L 307.420243 78.830226 
L 308.031082 79.808074 
L 308.667915 80.478856 
L 309.187778 81.779978 
L 309.954576 82.097523 
L 311.215244 83.213003 
L 311.566152 83.859523 
L 312.891803 85.352449 
L 313.736581 85.622128 
L 314.256444 85.439703 
L 315.062232 84.843571 
L 315.517112 83.907872 
L 316.374886 83.392244 
L 316.790777 82.718519 
L 317.635554 82.253158 
L 318.077438 81.460845 
L 318.935212 80.730833 
L 319.338106 80.87446 
L 320.624767 79.84224 
L 321.534528 80.07118 
L 321.911429 79.867228 
L 322.834186 79.843712 
L 323.23708 79.643003 
L 324.107851 78.71777 
L 324.575727 78.514094 
L 325.433502 78.314718 
L 325.901379 77.721219 
L 327.18804 77.600875 
L 328.032818 77.744219 
L 328.474701 78.331744 
L 329.748366 79.069442 
L 330.593144 80.027777 
L 331.048024 79.65209 
L 332.412665 79.515109 
L 333.231449 79.013802 
L 333.673333 78.983277 
L 334.570097 78.531025 
L 334.959994 77.53426 
L 335.882751 77.118566 
L 337.208402 75.710175 
L 338.54705 75.488423 
L 338.858968 75.122545 
L 339.859704 75.479311 
L 340.119636 75.135834 
L 341.120373 74.90699 
L 341.406297 74.973294 
L 342.45902 74.301889 
L 342.692959 73.955331 
L 343.732685 74.146185 
L 344.005613 74.448265 
L 344.993353 74.668057 
L 345.383251 74.376479 
L 346.332001 74.104874 
L 346.682909 73.746048 
L 347.579672 73.83049 
L 347.956573 74.0621 
L 348.91832 74.387982 
L 350.178988 74.291967 
L 350.594879 74.282889 
L 351.42666 74.053983 
L 351.92053 74.303034 
L 353.246181 74.430743 
L 354.142945 74.013802 
L 354.610822 73.564091 
L 355.87149 74.09314 
L 356.690274 74.701995 
L 357.132158 74.591155 
L 357.950943 75.030408 
L 358.392826 75.066134 
L 359.237604 74.911723 
L 359.692484 75.379155 
L 361.031132 75.762621 
L 363.071595 75.539739 
L 363.526475 75.68127 
L 364.319266 75.62401 
L 364.76115 76.129725 
L 366.77562 77.19822 
L 367.321476 77.39812 
L 368.101271 77.166615 
L 368.582144 77.58875 
L 370.596614 76.872968 
L 371.116477 76.395921 
L 372.338156 76.611773 
L 373.078961 76.13554 
L 373.715793 75.936914 
L 374.365622 75.385878 
L 375.015451 74.614774 
L 375.66528 74.401287 
L 376.263122 73.775979 
L 376.912951 73.906289 
L 378.199613 73.310145 
L 378.849442 72.374249 
L 379.486274 72.348775 
L 380.136103 72.767262 
L 380.720949 73.510982 
L 382.631446 74.968062 
L 383.320265 74.801761 
L 383.892114 75.04097 
L 384.580933 75.136932 
L 385.139786 75.930601 
L 385.828605 76.308656 
L 386.387458 76.221143 
L 387.076276 76.374113 
L 387.648126 76.22792 
L 388.323948 75.777561 
L 388.973777 75.082389 
L 390.93626 73.607623 
L 391.521106 72.96941 
L 392.196928 72.710427 
L 392.768778 72.33783 
L 393.418607 72.066898 
L 394.01645 72.097071 
L 394.640285 72.577332 
L 395.290114 73.288701 
L 395.887957 74.182236 
L 396.550782 74.593883 
L 397.226605 74.829002 
L 397.811451 74.739722 
L 398.487273 74.831791 
L 398.487273 74.831791 
" clip-path="url(#p597f4c48f0)" style="fill: none; stroke: #1f77b4; stroke-width: 1.5; stroke-linecap: square"/>
   </g>
   <g id="patch_3">
    <path d="M 57.6 307.584 
L 57.6 41.472 
" style="fill: none; stroke: #000000; stroke-width: 0.8; stroke-linejoin: miter; stroke-linecap: square"/>
   </g>
   <g id="patch_4">
    <path d="M 414.72 307.584 
L 414.72 41.472 
" style="fill: none; stroke: #000000; stroke-width: 0.8; stroke-linejoin: miter; stroke-linecap: square"/>
   </g>
   <g id="patch_5">
    <path d="M 57.6 307.584 
L 414.72 307.584 
" style="fill: none; stroke: #000000; stroke-width: 0.8; stroke-linejoin: miter; stroke-linecap: square"/>
   </g>
   <g id="patch_6">
    <path d="M 57.6 41.472 
L 414.72 41.472 
" style="fill: none; stroke: #000000; stroke-width: 0.8; stroke-linejoin: miter; stroke-linecap: square"/>
   </g>
   <g id="text_13">
    <!-- learning curve -->
    <g transform="translate(192.96375 35.472) scale(0.12 -0.12)">
     <defs>
      <path id="DejaVuSans-6c" d="M 603 4863 
L 1178 4863 
L 1178 0 
L 603 0 
L 603 4863 
z
" transform="scale(0.015625)"/>
      <path id="DejaVuSans-67" d="M 2906 1791 
Q 2906 2416 2648 2759 
Q 2391 3103 1925 3103 
Q 1463 3103 1205 2759 
Q 947 2416 947 1791 
Q 947 1169 1205 825 
Q 1463 481 1925 481 
Q 2391 481 2648 825 
Q 2906 1169 2906 1791 
z
M 3481 434 
Q 3481 -459 3084 -895 
Q 2688 -1331 1869 -1331 
Q 1566 -1331 1297 -1286 
Q 1028 -1241 775 -1147 
L 775 -588 
Q 1028 -725 1275 -790 
Q 1522 -856 1778 -856 
Q 2344 -856 2625 -561 
Q 2906 -266 2906 331 
L 2906 616 
Q 2728 306 2450 153 
Q 2172 0 1784 0 
Q 1141 0 747 490 
Q 353 981 353 1791 
Q 353 2603 747 3093 
Q 1141 3584 1784 3584 
Q 2172 3584 2450 3431 
Q 2728 3278 2906 2969 
L 2906 3500 
L 3481 3500 
L 3481 434 
z
" transform="scale(0.015625)"/>
      <path id="DejaVuSans-63" d="M 3122 3366 
L 3122 2828 
Q 2878 2963 2633 3030 
Q 2388 3097 2138 3097 
Q 1578 3097 1268 2742 
Q 959 2388 959 1747 
Q 959 1106 1268 751 
Q 1578 397 2138 397 
Q 2388 397 2633 464 
Q 2878 531 3122 666 
L 3122 134 
Q 2881 22 2623 -34 
Q 2366 -91 2075 -91 
Q 1284 -91 818 406 
Q 353 903 353 1747 
Q 353 2603 823 3093 
Q 1294 3584 2113 3584 
Q 2378 3584 2631 3529 
Q 2884 3475 3122 3366 
z
" transform="scale(0.015625)"/>
      <path id="DejaVuSans-75" d="M 544 1381 
L 544 3500 
L 1119 3500 
L 1119 1403 
Q 1119 906 1312 657 
Q 1506 409 1894 409 
Q 2359 409 2629 706 
Q 2900 1003 2900 1516 
L 2900 3500 
L 3475 3500 
L 3475 0 
L 2900 0 
L 2900 538 
Q 2691 219 2414 64 
Q 2138 -91 1772 -91 
Q 1169 -91 856 284 
Q 544 659 544 1381 
z
M 1991 3584 
L 1991 3584 
z
" transform="scale(0.015625)"/>
      <path id="DejaVuSans-76" d="M 191 3500 
L 800 3500 
L 1894 563 
L 2988 3500 
L 3597 3500 
L 2284 0 
L 1503 0 
L 191 3500 
z
" transform="scale(0.015625)"/>
     </defs>
     <use xlink:href="#DejaVuSans-6c"/>
     <use xlink:href="#DejaVuSans-65" x="27.783203"/>
     <use xlink:href="#DejaVuSans-61" x="89.306641"/>
     <use xlink:href="#DejaVuSans-72" x="150.585938"/>
     <use xlink:href="#DejaVuSans-6e" x="189.949219"/>
     <use xlink:href="#DejaVuSans-69" x="253.328125"/>
     <use xlink:href="#DejaVuSans-6e" x="281.111328"/>
     <use xlink:href="#DejaVuSans-67" x="344.490234"/>
     <use xlink:href="#DejaVuSans-20" x="407.966797"/>
     <use xlink:href="#DejaVuSans-63" x="439.753906"/>
     <use xlink:href="#DejaVuSans-75" x="494.734375"/>
     <use xlink:href="#DejaVuSans-72" x="558.113281"/>
     <use xlink:href="#DejaVuSans-76" x="599.226562"/>
     <use xlink:href="#DejaVuSans-65" x="658.40625"/>
    </g>
   </g>
  </g>
 </g>
 <defs>
  <clipPath id="p597f4c48f0">
   <rect x="57.6" y="41.472" width="357.12" height="266.112"/>
  </clipPath>
 </defs>
</svg>
