<?xml version="1.0" encoding="utf-8" standalone="no"?>
<!DOCTYPE svg PUBLIC "-//W3C//DTD SVG 1.1//EN"
  "http://www.w3.org/Graphics/SVG/1.1/DTD/svg11.dtd">
<svg xmlns:xlink="http://www.w3.org/1999/xlink" width="460.8pt" height="345.6pt" viewBox="0 0 460.8 345.6" xmlns="http://www.w3.org/2000/svg" version="1.1">
 <metadata>
  <rdf:RDF xmlns:dc="http://purl.org/dc/elements/1.1/" xmlns:cc="http://creativecommons.org/ns#" xmlns:rdf="http://www.w3.org/1999/02/22-rdf-syntax-ns#">
   <cc:Work>
    <dc:type rdf:resource="http://purl.org/dc/dcmitype/StillImage"/>
    <dc:date>2023-08-18T16:41:45.915081</dc:date>
    <dc:format>image/svg+xml</dc:format>
    <dc:creator>
     <cc:Agent>
      <dc:title>Matplotlib v3.7.1, https://matplotlib.org/</dc:title>
     </cc:Agent>
    </dc:creator>
   </cc:Work>
  </rdf:RDF>
 </metadata>
 <defs>
  <style type="text/css">*{stroke-linejoin: round; stroke-linecap: butt}</style>
 </defs>
 <g id="figure_1">
  <g id="patch_1">
   <path d="M 0 345.6 
L 460.8 345.6 
L 460.8 0 
L 0 0 
z
" style="fill: #ffffff"/>
  </g>
  <g id="axes_1">
   <g id="patch_2">
    <path d="M 57.6 307.584 
L 414.72 307.584 
L 414.72 41.472 
L 57.6 41.472 
z
" style="fill: #ffffff"/>
   </g>
   <g id="matplotlib.axis_1">
    <g id="xtick_1">
     <g id="line2d_1">
      <defs>
       <path id="m3240437878" d="M 0 0 
L 0 3.5 
" style="stroke: #000000; stroke-width: 0.8"/>
      </defs>
      <g>
       <use xlink:href="#m3240437878" x="73.774279" y="307.584" style="stroke: #000000; stroke-width: 0.8"/>
      </g>
     </g>
     <g id="text_1">
      <!-- 0 -->
      <g transform="translate(70.593029 322.182437) scale(0.1 -0.1)">
       <defs>
        <path id="DejaVuSans-30" d="M 2034 4250 
Q 1547 4250 1301 3770 
Q 1056 3291 1056 2328 
Q 1056 1369 1301 889 
Q 1547 409 2034 409 
Q 2525 409 2770 889 
Q 3016 1369 3016 2328 
Q 3016 3291 2770 3770 
Q 2525 4250 2034 4250 
z
M 2034 4750 
Q 2819 4750 3233 4129 
Q 3647 3509 3647 2328 
Q 3647 1150 3233 529 
Q 2819 -91 2034 -91 
Q 1250 -91 836 529 
Q 422 1150 422 2328 
Q 422 3509 836 4129 
Q 1250 4750 2034 4750 
z
" transform="scale(0.015625)"/>
       </defs>
       <use xlink:href="#DejaVuSans-30"/>
      </g>
     </g>
    </g>
    <g id="xtick_2">
     <g id="line2d_2">
      <g>
       <use xlink:href="#m3240437878" x="138.716878" y="307.584" style="stroke: #000000; stroke-width: 0.8"/>
      </g>
     </g>
     <g id="text_2">
      <!-- 10000 -->
      <g transform="translate(122.810628 322.182437) scale(0.1 -0.1)">
       <defs>
        <path id="DejaVuSans-31" d="M 794 531 
L 1825 531 
L 1825 4091 
L 703 3866 
L 703 4441 
L 1819 4666 
L 2450 4666 
L 2450 531 
L 3481 531 
L 3481 0 
L 794 0 
L 794 531 
z
" transform="scale(0.015625)"/>
       </defs>
       <use xlink:href="#DejaVuSans-31"/>
       <use xlink:href="#DejaVuSans-30" x="63.623047"/>
       <use xlink:href="#DejaVuSans-30" x="127.246094"/>
       <use xlink:href="#DejaVuSans-30" x="190.869141"/>
       <use xlink:href="#DejaVuSans-30" x="254.492188"/>
      </g>
     </g>
    </g>
    <g id="xtick_3">
     <g id="line2d_3">
      <g>
       <use xlink:href="#m3240437878" x="203.659476" y="307.584" style="stroke: #000000; stroke-width: 0.8"/>
      </g>
     </g>
     <g id="text_3">
      <!-- 20000 -->
      <g transform="translate(187.753226 322.182437) scale(0.1 -0.1)">
       <defs>
        <path id="DejaVuSans-32" d="M 1228 531 
L 3431 531 
L 3431 0 
L 469 0 
L 469 531 
Q 828 903 1448 1529 
Q 2069 2156 2228 2338 
Q 2531 2678 2651 2914 
Q 2772 3150 2772 3378 
Q 2772 3750 2511 3984 
Q 2250 4219 1831 4219 
Q 1534 4219 1204 4116 
Q 875 4013 500 3803 
L 500 4441 
Q 881 4594 1212 4672 
Q 1544 4750 1819 4750 
Q 2544 4750 2975 4387 
Q 3406 4025 3406 3419 
Q 3406 3131 3298 2873 
Q 3191 2616 2906 2266 
Q 2828 2175 2409 1742 
Q 1991 1309 1228 531 
z
" transform="scale(0.015625)"/>
       </defs>
       <use xlink:href="#DejaVuSans-32"/>
       <use xlink:href="#DejaVuSans-30" x="63.623047"/>
       <use xlink:href="#DejaVuSans-30" x="127.246094"/>
       <use xlink:href="#DejaVuSans-30" x="190.869141"/>
       <use xlink:href="#DejaVuSans-30" x="254.492188"/>
      </g>
     </g>
    </g>
    <g id="xtick_4">
     <g id="line2d_4">
      <g>
       <use xlink:href="#m3240437878" x="268.602075" y="307.584" style="stroke: #000000; stroke-width: 0.8"/>
      </g>
     </g>
     <g id="text_4">
      <!-- 30000 -->
      <g transform="translate(252.695825 322.182437) scale(0.1 -0.1)">
       <defs>
        <path id="DejaVuSans-33" d="M 2597 2516 
Q 3050 2419 3304 2112 
Q 3559 1806 3559 1356 
Q 3559 666 3084 287 
Q 2609 -91 1734 -91 
Q 1441 -91 1130 -33 
Q 819 25 488 141 
L 488 750 
Q 750 597 1062 519 
Q 1375 441 1716 441 
Q 2309 441 2620 675 
Q 2931 909 2931 1356 
Q 2931 1769 2642 2001 
Q 2353 2234 1838 2234 
L 1294 2234 
L 1294 2753 
L 1863 2753 
Q 2328 2753 2575 2939 
Q 2822 3125 2822 3475 
Q 2822 3834 2567 4026 
Q 2313 4219 1838 4219 
Q 1578 4219 1281 4162 
Q 984 4106 628 3988 
L 628 4550 
Q 988 4650 1302 4700 
Q 1616 4750 1894 4750 
Q 2613 4750 3031 4423 
Q 3450 4097 3450 3541 
Q 3450 3153 3228 2886 
Q 3006 2619 2597 2516 
z
" transform="scale(0.015625)"/>
       </defs>
       <use xlink:href="#DejaVuSans-33"/>
       <use xlink:href="#DejaVuSans-30" x="63.623047"/>
       <use xlink:href="#DejaVuSans-30" x="127.246094"/>
       <use xlink:href="#DejaVuSans-30" x="190.869141"/>
       <use xlink:href="#DejaVuSans-30" x="254.492188"/>
      </g>
     </g>
    </g>
    <g id="xtick_5">
     <g id="line2d_5">
      <g>
       <use xlink:href="#m3240437878" x="333.544674" y="307.584" style="stroke: #000000; stroke-width: 0.8"/>
      </g>
     </g>
     <g id="text_5">
      <!-- 40000 -->
      <g transform="translate(317.638424 322.182437) scale(0.1 -0.1)">
       <defs>
        <path id="DejaVuSans-34" d="M 2419 4116 
L 825 1625 
L 2419 1625 
L 2419 4116 
z
M 2253 4666 
L 3047 4666 
L 3047 1625 
L 3713 1625 
L 3713 1100 
L 3047 1100 
L 3047 0 
L 2419 0 
L 2419 1100 
L 313 1100 
L 313 1709 
L 2253 4666 
z
" transform="scale(0.015625)"/>
       </defs>
       <use xlink:href="#DejaVuSans-34"/>
       <use xlink:href="#DejaVuSans-30" x="63.623047"/>
       <use xlink:href="#DejaVuSans-30" x="127.246094"/>
       <use xlink:href="#DejaVuSans-30" x="190.869141"/>
       <use xlink:href="#DejaVuSans-30" x="254.492188"/>
      </g>
     </g>
    </g>
    <g id="xtick_6">
     <g id="line2d_6">
      <g>
       <use xlink:href="#m3240437878" x="398.487273" y="307.584" style="stroke: #000000; stroke-width: 0.8"/>
      </g>
     </g>
     <g id="text_6">
      <!-- 50000 -->
      <g transform="translate(382.581023 322.182437) scale(0.1 -0.1)">
       <defs>
        <path id="DejaVuSans-35" d="M 691 4666 
L 3169 4666 
L 3169 4134 
L 1269 4134 
L 1269 2991 
Q 1406 3038 1543 3061 
Q 1681 3084 1819 3084 
Q 2600 3084 3056 2656 
Q 3513 2228 3513 1497 
Q 3513 744 3044 326 
Q 2575 -91 1722 -91 
Q 1428 -91 1123 -41 
Q 819 9 494 109 
L 494 744 
Q 775 591 1075 516 
Q 1375 441 1709 441 
Q 2250 441 2565 725 
Q 2881 1009 2881 1497 
Q 2881 1984 2565 2268 
Q 2250 2553 1709 2553 
Q 1456 2553 1204 2497 
Q 953 2441 691 2322 
L 691 4666 
z
" transform="scale(0.015625)"/>
       </defs>
       <use xlink:href="#DejaVuSans-35"/>
       <use xlink:href="#DejaVuSans-30" x="63.623047"/>
       <use xlink:href="#DejaVuSans-30" x="127.246094"/>
       <use xlink:href="#DejaVuSans-30" x="190.869141"/>
       <use xlink:href="#DejaVuSans-30" x="254.492188"/>
      </g>
     </g>
    </g>
    <g id="text_7">
     <!-- timesteps -->
     <g transform="translate(211.443594 335.860562) scale(0.1 -0.1)">
      <defs>
       <path id="DejaVuSans-74" d="M 1172 4494 
L 1172 3500 
L 2356 3500 
L 2356 3053 
L 1172 3053 
L 1172 1153 
Q 1172 725 1289 603 
Q 1406 481 1766 481 
L 2356 481 
L 2356 0 
L 1766 0 
Q 1100 0 847 248 
Q 594 497 594 1153 
L 594 3053 
L 172 3053 
L 172 3500 
L 594 3500 
L 594 4494 
L 1172 4494 
z
" transform="scale(0.015625)"/>
       <path id="DejaVuSans-69" d="M 603 3500 
L 1178 3500 
L 1178 0 
L 603 0 
L 603 3500 
z
M 603 4863 
L 1178 4863 
L 1178 4134 
L 603 4134 
L 603 4863 
z
" transform="scale(0.015625)"/>
       <path id="DejaVuSans-6d" d="M 3328 2828 
Q 3544 3216 3844 3400 
Q 4144 3584 4550 3584 
Q 5097 3584 5394 3201 
Q 5691 2819 5691 2113 
L 5691 0 
L 5113 0 
L 5113 2094 
Q 5113 2597 4934 2840 
Q 4756 3084 4391 3084 
Q 3944 3084 3684 2787 
Q 3425 2491 3425 1978 
L 3425 0 
L 2847 0 
L 2847 2094 
Q 2847 2600 2669 2842 
Q 2491 3084 2119 3084 
Q 1678 3084 1418 2786 
Q 1159 2488 1159 1978 
L 1159 0 
L 581 0 
L 581 3500 
L 1159 3500 
L 1159 2956 
Q 1356 3278 1631 3431 
Q 1906 3584 2284 3584 
Q 2666 3584 2933 3390 
Q 3200 3197 3328 2828 
z
" transform="scale(0.015625)"/>
       <path id="DejaVuSans-65" d="M 3597 1894 
L 3597 1613 
L 953 1613 
Q 991 1019 1311 708 
Q 1631 397 2203 397 
Q 2534 397 2845 478 
Q 3156 559 3463 722 
L 3463 178 
Q 3153 47 2828 -22 
Q 2503 -91 2169 -91 
Q 1331 -91 842 396 
Q 353 884 353 1716 
Q 353 2575 817 3079 
Q 1281 3584 2069 3584 
Q 2775 3584 3186 3129 
Q 3597 2675 3597 1894 
z
M 3022 2063 
Q 3016 2534 2758 2815 
Q 2500 3097 2075 3097 
Q 1594 3097 1305 2825 
Q 1016 2553 972 2059 
L 3022 2063 
z
" transform="scale(0.015625)"/>
       <path id="DejaVuSans-73" d="M 2834 3397 
L 2834 2853 
Q 2591 2978 2328 3040 
Q 2066 3103 1784 3103 
Q 1356 3103 1142 2972 
Q 928 2841 928 2578 
Q 928 2378 1081 2264 
Q 1234 2150 1697 2047 
L 1894 2003 
Q 2506 1872 2764 1633 
Q 3022 1394 3022 966 
Q 3022 478 2636 193 
Q 2250 -91 1575 -91 
Q 1294 -91 989 -36 
Q 684 19 347 128 
L 347 722 
Q 666 556 975 473 
Q 1284 391 1588 391 
Q 1994 391 2212 530 
Q 2431 669 2431 922 
Q 2431 1156 2273 1281 
Q 2116 1406 1581 1522 
L 1381 1569 
Q 847 1681 609 1914 
Q 372 2147 372 2553 
Q 372 3047 722 3315 
Q 1072 3584 1716 3584 
Q 2034 3584 2315 3537 
Q 2597 3491 2834 3397 
z
" transform="scale(0.015625)"/>
       <path id="DejaVuSans-70" d="M 1159 525 
L 1159 -1331 
L 581 -1331 
L 581 3500 
L 1159 3500 
L 1159 2969 
Q 1341 3281 1617 3432 
Q 1894 3584 2278 3584 
Q 2916 3584 3314 3078 
Q 3713 2572 3713 1747 
Q 3713 922 3314 415 
Q 2916 -91 2278 -91 
Q 1894 -91 1617 61 
Q 1341 213 1159 525 
z
M 3116 1747 
Q 3116 2381 2855 2742 
Q 2594 3103 2138 3103 
Q 1681 3103 1420 2742 
Q 1159 2381 1159 1747 
Q 1159 1113 1420 752 
Q 1681 391 2138 391 
Q 2594 391 2855 752 
Q 3116 1113 3116 1747 
z
" transform="scale(0.015625)"/>
      </defs>
      <use xlink:href="#DejaVuSans-74"/>
      <use xlink:href="#DejaVuSans-69" x="39.208984"/>
      <use xlink:href="#DejaVuSans-6d" x="66.992188"/>
      <use xlink:href="#DejaVuSans-65" x="164.404297"/>
      <use xlink:href="#DejaVuSans-73" x="225.927734"/>
      <use xlink:href="#DejaVuSans-74" x="278.027344"/>
      <use xlink:href="#DejaVuSans-65" x="317.236328"/>
      <use xlink:href="#DejaVuSans-70" x="378.759766"/>
      <use xlink:href="#DejaVuSans-73" x="442.236328"/>
     </g>
    </g>
   </g>
   <g id="matplotlib.axis_2">
    <g id="ytick_1">
     <g id="line2d_7">
      <defs>
       <path id="m75ab2f93ea" d="M 0 0 
L -3.5 0 
" style="stroke: #000000; stroke-width: 0.8"/>
      </defs>
      <g>
       <use xlink:href="#m75ab2f93ea" x="57.6" y="295.953282" style="stroke: #000000; stroke-width: 0.8"/>
      </g>
     </g>
     <g id="text_8">
      <!-- 0 -->
      <g transform="translate(44.2375 299.752501) scale(0.1 -0.1)">
       <use xlink:href="#DejaVuSans-30"/>
      </g>
     </g>
    </g>
    <g id="ytick_2">
     <g id="line2d_8">
      <g>
       <use xlink:href="#m75ab2f93ea" x="57.6" y="263.23494" style="stroke: #000000; stroke-width: 0.8"/>
      </g>
     </g>
     <g id="text_9">
      <!-- 50 -->
      <g transform="translate(37.875 267.034159) scale(0.1 -0.1)">
       <use xlink:href="#DejaVuSans-35"/>
       <use xlink:href="#DejaVuSans-30" x="63.623047"/>
      </g>
     </g>
    </g>
    <g id="ytick_3">
     <g id="line2d_9">
      <g>
       <use xlink:href="#m75ab2f93ea" x="57.6" y="230.516599" style="stroke: #000000; stroke-width: 0.8"/>
      </g>
     </g>
     <g id="text_10">
      <!-- 100 -->
      <g transform="translate(31.5125 234.315817) scale(0.1 -0.1)">
       <use xlink:href="#DejaVuSans-31"/>
       <use xlink:href="#DejaVuSans-30" x="63.623047"/>
       <use xlink:href="#DejaVuSans-30" x="127.246094"/>
      </g>
     </g>
    </g>
    <g id="ytick_4">
     <g id="line2d_10">
      <g>
       <use xlink:href="#m75ab2f93ea" x="57.6" y="197.798257" style="stroke: #000000; stroke-width: 0.8"/>
      </g>
     </g>
     <g id="text_11">
      <!-- 150 -->
      <g transform="translate(31.5125 201.597476) scale(0.1 -0.1)">
       <use xlink:href="#DejaVuSans-31"/>
       <use xlink:href="#DejaVuSans-35" x="63.623047"/>
       <use xlink:href="#DejaVuSans-30" x="127.246094"/>
      </g>
     </g>
    </g>
    <g id="ytick_5">
     <g id="line2d_11">
      <g>
       <use xlink:href="#m75ab2f93ea" x="57.6" y="165.079915" style="stroke: #000000; stroke-width: 0.8"/>
      </g>
     </g>
     <g id="text_12">
      <!-- 200 -->
      <g transform="translate(31.5125 168.879134) scale(0.1 -0.1)">
       <use xlink:href="#DejaVuSans-32"/>
       <use xlink:href="#DejaVuSans-30" x="63.623047"/>
       <use xlink:href="#DejaVuSans-30" x="127.246094"/>
      </g>
     </g>
    </g>
    <g id="ytick_6">
     <g id="line2d_12">
      <g>
       <use xlink:href="#m75ab2f93ea" x="57.6" y="132.361573" style="stroke: #000000; stroke-width: 0.8"/>
      </g>
     </g>
     <g id="text_13">
      <!-- 250 -->
      <g transform="translate(31.5125 136.160792) scale(0.1 -0.1)">
       <use xlink:href="#DejaVuSans-32"/>
       <use xlink:href="#DejaVuSans-35" x="63.623047"/>
       <use xlink:href="#DejaVuSans-30" x="127.246094"/>
      </g>
     </g>
    </g>
    <g id="ytick_7">
     <g id="line2d_13">
      <g>
       <use xlink:href="#m75ab2f93ea" x="57.6" y="99.643232" style="stroke: #000000; stroke-width: 0.8"/>
      </g>
     </g>
     <g id="text_14">
      <!-- 300 -->
      <g transform="translate(31.5125 103.44245) scale(0.1 -0.1)">
       <use xlink:href="#DejaVuSans-33"/>
       <use xlink:href="#DejaVuSans-30" x="63.623047"/>
       <use xlink:href="#DejaVuSans-30" x="127.246094"/>
      </g>
     </g>
    </g>
    <g id="ytick_8">
     <g id="line2d_14">
      <g>
       <use xlink:href="#m75ab2f93ea" x="57.6" y="66.92489" style="stroke: #000000; stroke-width: 0.8"/>
      </g>
     </g>
     <g id="text_15">
      <!-- 350 -->
      <g transform="translate(31.5125 70.724109) scale(0.1 -0.1)">
       <use xlink:href="#DejaVuSans-33"/>
       <use xlink:href="#DejaVuSans-35" x="63.623047"/>
       <use xlink:href="#DejaVuSans-30" x="127.246094"/>
      </g>
     </g>
    </g>
    <g id="text_16">
     <!-- mean episode rewards -->
     <g transform="translate(25.432812 231.360031) rotate(-90) scale(0.1 -0.1)">
      <defs>
       <path id="DejaVuSans-61" d="M 2194 1759 
Q 1497 1759 1228 1600 
Q 959 1441 959 1056 
Q 959 750 1161 570 
Q 1363 391 1709 391 
Q 2188 391 2477 730 
Q 2766 1069 2766 1631 
L 2766 1759 
L 2194 1759 
z
M 3341 1997 
L 3341 0 
L 2766 0 
L 2766 531 
Q 2569 213 2275 61 
Q 1981 -91 1556 -91 
Q 1019 -91 701 211 
Q 384 513 384 1019 
Q 384 1609 779 1909 
Q 1175 2209 1959 2209 
L 2766 2209 
L 2766 2266 
Q 2766 2663 2505 2880 
Q 2244 3097 1772 3097 
Q 1472 3097 1187 3025 
Q 903 2953 641 2809 
L 641 3341 
Q 956 3463 1253 3523 
Q 1550 3584 1831 3584 
Q 2591 3584 2966 3190 
Q 3341 2797 3341 1997 
z
" transform="scale(0.015625)"/>
       <path id="DejaVuSans-6e" d="M 3513 2113 
L 3513 0 
L 2938 0 
L 2938 2094 
Q 2938 2591 2744 2837 
Q 2550 3084 2163 3084 
Q 1697 3084 1428 2787 
Q 1159 2491 1159 1978 
L 1159 0 
L 581 0 
L 581 3500 
L 1159 3500 
L 1159 2956 
Q 1366 3272 1645 3428 
Q 1925 3584 2291 3584 
Q 2894 3584 3203 3211 
Q 3513 2838 3513 2113 
z
" transform="scale(0.015625)"/>
       <path id="DejaVuSans-20" transform="scale(0.015625)"/>
       <path id="DejaVuSans-6f" d="M 1959 3097 
Q 1497 3097 1228 2736 
Q 959 2375 959 1747 
Q 959 1119 1226 758 
Q 1494 397 1959 397 
Q 2419 397 2687 759 
Q 2956 1122 2956 1747 
Q 2956 2369 2687 2733 
Q 2419 3097 1959 3097 
z
M 1959 3584 
Q 2709 3584 3137 3096 
Q 3566 2609 3566 1747 
Q 3566 888 3137 398 
Q 2709 -91 1959 -91 
Q 1206 -91 779 398 
Q 353 888 353 1747 
Q 353 2609 779 3096 
Q 1206 3584 1959 3584 
z
" transform="scale(0.015625)"/>
       <path id="DejaVuSans-64" d="M 2906 2969 
L 2906 4863 
L 3481 4863 
L 3481 0 
L 2906 0 
L 2906 525 
Q 2725 213 2448 61 
Q 2172 -91 1784 -91 
Q 1150 -91 751 415 
Q 353 922 353 1747 
Q 353 2572 751 3078 
Q 1150 3584 1784 3584 
Q 2172 3584 2448 3432 
Q 2725 3281 2906 2969 
z
M 947 1747 
Q 947 1113 1208 752 
Q 1469 391 1925 391 
Q 2381 391 2643 752 
Q 2906 1113 2906 1747 
Q 2906 2381 2643 2742 
Q 2381 3103 1925 3103 
Q 1469 3103 1208 2742 
Q 947 2381 947 1747 
z
" transform="scale(0.015625)"/>
       <path id="DejaVuSans-72" d="M 2631 2963 
Q 2534 3019 2420 3045 
Q 2306 3072 2169 3072 
Q 1681 3072 1420 2755 
Q 1159 2438 1159 1844 
L 1159 0 
L 581 0 
L 581 3500 
L 1159 3500 
L 1159 2956 
Q 1341 3275 1631 3429 
Q 1922 3584 2338 3584 
Q 2397 3584 2469 3576 
Q 2541 3569 2628 3553 
L 2631 2963 
z
" transform="scale(0.015625)"/>
       <path id="DejaVuSans-77" d="M 269 3500 
L 844 3500 
L 1563 769 
L 2278 3500 
L 2956 3500 
L 3675 769 
L 4391 3500 
L 4966 3500 
L 4050 0 
L 3372 0 
L 2619 2869 
L 1863 0 
L 1184 0 
L 269 3500 
z
" transform="scale(0.015625)"/>
      </defs>
      <use xlink:href="#DejaVuSans-6d"/>
      <use xlink:href="#DejaVuSans-65" x="97.412109"/>
      <use xlink:href="#DejaVuSans-61" x="158.935547"/>
      <use xlink:href="#DejaVuSans-6e" x="220.214844"/>
      <use xlink:href="#DejaVuSans-20" x="283.59375"/>
      <use xlink:href="#DejaVuSans-65" x="315.380859"/>
      <use xlink:href="#DejaVuSans-70" x="376.904297"/>
      <use xlink:href="#DejaVuSans-69" x="440.380859"/>
      <use xlink:href="#DejaVuSans-73" x="468.164062"/>
      <use xlink:href="#DejaVuSans-6f" x="520.263672"/>
      <use xlink:href="#DejaVuSans-64" x="581.445312"/>
      <use xlink:href="#DejaVuSans-65" x="644.921875"/>
      <use xlink:href="#DejaVuSans-20" x="706.445312"/>
      <use xlink:href="#DejaVuSans-72" x="738.232422"/>
      <use xlink:href="#DejaVuSans-65" x="777.095703"/>
      <use xlink:href="#DejaVuSans-77" x="838.619141"/>
      <use xlink:href="#DejaVuSans-61" x="920.40625"/>
      <use xlink:href="#DejaVuSans-72" x="981.685547"/>
      <use xlink:href="#DejaVuSans-64" x="1021.048828"/>
      <use xlink:href="#DejaVuSans-73" x="1084.525391"/>
     </g>
    </g>
   </g>
   <g id="line2d_15">
    <path d="M 73.832727 291.689431 
L 73.89767 291.249058 
L 73.982095 292.886702 
L 74.073015 288.961406 
L 74.274337 291.671555 
L 74.384739 289.169922 
L 74.501636 291.600665 
L 74.625027 289.434057 
L 74.696464 291.252729 
L 74.832843 287.590978 
L 74.891292 292.308407 
L 75.04066 280.734082 
L 75.190028 288.987309 
L 75.339396 288.735264 
L 75.501752 288.955476 
L 75.670603 287.691089 
L 75.839454 274.485033 
L 75.923879 289.286213 
L 76.034281 287.295531 
L 76.099224 292.107337 
L 76.287558 289.349447 
L 76.482385 280.116315 
L 76.547328 291.790088 
L 76.664225 283.107441 
L 76.872041 287.819644 
L 77.112329 263.233627 
L 77.255202 291.574964 
L 77.352616 290.48039 
L 77.625375 277.393318 
L 77.774743 279.891789 
L 77.859168 291.089676 
L 78.008536 287.421247 
L 78.170893 291.139102 
L 78.28779 284.851648 
L 78.378709 287.031419 
L 78.508594 286.632625 
L 78.63848 288.505131 
L 78.709916 291.822046 
L 78.956698 283.301533 
L 79.112561 284.360999 
L 79.33986 291.757671 
L 79.573653 281.691174 
L 79.677561 289.280079 
L 80.008768 277.655755 
L 80.119171 284.530272 
L 80.372447 271.070313 
L 80.443884 292.410938 
L 80.541298 290.134722 
L 80.593252 292.490047 
L 81.015379 286.534567 
L 81.177735 284.95863 
L 81.301126 285.968357 
L 81.508942 284.418998 
L 81.775207 289.486453 
L 82.112909 256.659171 
L 82.392162 288.765834 
L 82.502564 288.888023 
L 82.580495 290.542887 
L 82.788312 289.087244 
L 82.905208 289.130841 
L 82.970151 290.843857 
L 83.100036 283.203745 
L 83.210439 285.503803 
L 83.340324 285.509628 
L 83.463715 289.936847 
L 83.5936 284.813747 
L 83.658542 292.249909 
L 83.820899 288.885394 
L 83.963773 280.760673 
L 84.178083 277.756591 
L 84.372911 290.332278 
L 84.528773 288.802306 
L 84.632681 290.668229 
L 84.99636 236.905463 
L 85.132739 280.048041 
L 85.535384 252.221361 
L 85.69774 293.375984 
L 85.912051 270.330583 
L 86.015959 286.121212 
L 86.191304 289.015519 
L 86.541994 251.79418 
L 86.671879 286.665316 
L 86.814753 290.729774 
L 87.230385 280.971261 
L 87.327799 291.567622 
L 87.535616 287.084767 
L 87.607052 292.830365 
L 87.704466 287.063628 
L 87.808375 290.189052 
L 88.035674 285.46146 
L 88.133088 286.355169 
L 88.236996 289.642393 
L 88.373375 284.778197 
L 88.626651 258.075878 
L 88.698088 291.342301 
L 88.763031 291.179213 
L 88.834468 290.482881 
L 88.89941 292.643247 
L 89.068261 277.961293 
L 89.308549 289.293604 
L 89.496882 283.555594 
L 89.763147 285.083045 
L 89.912515 290.770674 
L 90.13332 267.713015 
L 90.289182 287.324796 
L 90.419067 287.909638 
L 90.48401 290.707007 
L 90.574929 288.156414 
L 90.886654 266.013313 
L 91.172401 287.987988 
L 91.308781 283.222872 
L 91.769873 251.221557 
L 91.834816 293.074557 
L 91.971195 282.697223 
L 92.373839 241.887629 
L 92.490736 289.426407 
L 92.627115 285.098635 
L 92.685564 293.196801 
L 92.769989 289.289986 
L 92.89338 290.398091 
L 92.9843 292.834457 
L 93.15315 281.431709 
L 93.283036 288.497566 
L 93.451886 287.113827 
L 93.763611 253.372504 
L 93.89999 289.505366 
L 94.016887 283.174087 
L 94.107807 290.452752 
L 94.276657 284.905986 
L 94.490968 291.43122 
L 94.640336 285.683462 
L 94.848152 271.211345 
L 94.906601 292.190009 
L 94.991026 289.303094 
L 95.094934 286.799579 
L 95.341716 273.030481 
L 95.426141 292.557408 
L 95.575509 284.851667 
L 95.640452 290.763682 
L 95.750854 285.823042 
L 95.874245 285.797307 
L 95.945682 292.102809 
L 96.069073 283.882195 
L 96.237924 282.737781 
L 96.328843 289.461311 
L 96.523671 276.443793 
L 96.58212 292.215867 
L 96.712005 284.70197 
L 96.822407 290.029984 
L 96.939304 290.11597 
L 97.049706 288.906403 
L 97.179592 285.891168 
L 97.264017 292.474576 
L 97.374419 288.139789 
L 97.465339 292.53708 
L 97.556259 292.122783 
L 97.712121 291.189445 
L 97.965397 292.908066 
L 98.19919 275.872693 
L 98.394018 273.589615 
L 98.679766 288.459273 
L 98.803156 293.710016 
L 98.939536 285.424171 
L 99.127869 284.808642 
L 99.199306 290.28158 
L 99.368157 289.66666 
L 99.517525 281.279372 
L 99.627927 289.266915 
L 99.816261 282.825471 
L 100.04356 279.048494 
L 100.205917 290.213721 
L 100.803389 262.590546 
L 100.88132 290.749298 
L 101.219021 271.138722 
L 101.40086 271.317728 
L 101.472297 290.161545 
L 101.556723 290.100854 
L 101.829482 288.610898 
L 102.180172 233.869689 
L 102.245114 291.670682 
L 102.316551 290.145979 
L 102.49839 277.703996 
L 102.582816 288.124291 
L 102.693218 287.694569 
L 103.219253 261.571218 
L 103.33615 288.234722 
L 103.453047 288.29538 
L 103.608909 292.36938 
L 103.712817 285.995711 
L 103.816725 288.906654 
L 103.933622 287.532695 
L 104.005059 290.884713 
L 104.089484 290.483272 
L 104.238852 286.71202 
L 104.453163 290.66563 
L 104.583048 286.699475 
L 104.758393 287.373551 
L 104.82983 289.888062 
L 104.927244 287.415753 
L 105.128566 292.932626 
L 105.22598 291.431846 
L 105.303911 291.645395 
L 105.453279 293.929789 
L 105.596152 287.271174 
L 105.758509 293.136849 
L 106.161153 273.855638 
L 106.226096 291.545654 
L 106.336498 290.256965 
L 106.414429 291.264224 
L 106.674199 269.530096 
L 106.817073 288.216087 
L 106.97943 286.389636 
L 107.408051 226.94794 
L 107.466499 292.614788 
L 107.804201 279.517948 
L 107.875638 291.945075 
L 107.960063 290.263441 
L 108.037994 290.627001 
L 108.115925 290.6072 
L 108.239316 284.624565 
L 108.343224 290.382788 
L 108.622477 263.284692 
L 108.68742 291.398957 
L 108.765351 289.209015 
L 108.843282 290.055829 
L 108.927708 293.271105 
L 109.031616 289.856776 
L 109.226444 287.178663 
L 109.408283 291.108973 
L 109.473225 290.68148 
L 109.570639 288.919473 
L 109.687536 291.123796 
L 109.791444 287.444831 
L 109.953801 287.92587 
L 110.297996 251.097993 
L 110.44087 284.98419 
L 110.583744 280.777505 
L 110.83702 288.577166 
L 110.947422 289.107526 
L 111.181216 279.305637 
L 111.343572 289.698702 
L 111.421503 293.083181 
L 111.512423 290.837652 
L 111.772193 259.97672 
L 111.908573 283.963024 
L 112.070929 282.880296 
L 112.356677 291.464758 
L 112.454091 287.562688 
L 112.532022 289.954311 
L 112.661907 287.231401 
L 112.94116 291.644855 
L 113.038574 287.465091 
L 113.395758 245.610623 
L 113.558115 290.757184 
L 113.726966 279.131162 
L 113.967253 288.87167 
L 114.058173 289.550901 
L 114.162081 291.823437 
L 114.311449 280.010638 
L 114.395874 291.398799 
L 114.493288 290.020604 
L 114.636162 287.932464 
L 114.928404 292.4984 
L 115.025818 290.310426 
L 115.084266 291.663712 
L 115.201163 283.989706 
L 115.421968 278.33323 
L 115.62329 269.927827 
L 115.707715 289.806276 
L 116.038922 285.766233 
L 116.246739 276.711983 
L 116.519497 291.439808 
L 116.967601 248.238266 
L 117.233866 269.825105 
L 117.428694 292.01117 
L 117.539096 292.818007 
L 117.68197 284.400067 
L 117.818349 285.21653 
L 117.909269 289.525883 
L 118.104097 271.451247 
L 118.415821 268.034703 
L 118.610649 291.448548 
L 118.831454 287.684068 
L 119.026282 291.406396 
L 119.104213 291.169952 
L 119.325018 287.271249 
L 119.448409 293.319699 
L 119.610765 276.896312 
L 119.708179 286.335819 
L 119.870536 290.356849 
L 119.967949 290.340479 
L 120.045881 291.568193 
L 120.110823 291.332567 
L 120.22772 292.374979 
L 120.331628 289.594156 
L 120.396571 291.160632 
L 120.53295 282.382263 
L 120.610881 290.794547 
L 120.903123 275.645568 
L 120.981054 293.132759 
L 121.065479 291.318638 
L 121.156399 290.267871 
L 121.286284 284.067191 
L 121.500595 281.122355 
L 121.682434 289.132812 
L 121.792836 292.80216 
L 121.909733 285.858068 
L 121.968181 291.794442 
L 122.078584 286.30591 
L 122.169504 286.902085 
L 122.292894 283.586922 
L 122.500711 273.62189 
L 122.611113 285.451451 
L 122.877378 288.498246 
L 122.994275 286.658919 
L 123.215079 274.152622 
L 123.280022 292.059874 
L 123.377436 287.746841 
L 123.487838 288.211719 
L 123.682666 292.1043 
L 123.961919 257.488292 
L 124.03985 291.336939 
L 124.254161 282.955476 
L 124.403529 288.761799 
L 124.565885 278.749132 
L 124.799679 281.130079 
L 124.975024 287.531012 
L 125.130886 281.178495 
L 125.208817 289.920687 
L 125.429622 287.425581 
L 125.57899 281.098583 
L 125.773818 292.722804 
L 125.962151 280.454104 
L 126.18945 289.650838 
L 126.345313 286.958707 
L 126.481692 292.237973 
L 126.598589 284.984844 
L 126.884336 291.985666 
L 127.02721 284.441202 
L 127.11813 289.729489 
L 127.33244 280.20361 
L 127.462325 290.34093 
L 127.611693 282.14946 
L 127.780544 283.486735 
L 127.903935 285.377096 
L 128.053303 281.781642 
L 128.196177 288.544301 
L 128.293591 288.445748 
L 128.410487 288.064086 
L 128.702729 291.589666 
L 128.767672 291.03439 
L 128.994971 265.487823 
L 129.08589 288.205927 
L 129.202787 289.213644 
L 129.384626 283.696188 
L 129.469052 289.894857 
L 129.637902 278.038807 
L 129.858707 289.276723 
L 130.001581 284.609606 
L 130.124972 288.687216 
L 130.267846 286.983855 
L 130.352271 292.370525 
L 130.722444 285.536663 
L 130.826352 286.983697 
L 130.8848 291.705512 
L 131.170548 281.982212 
L 131.293939 286.454723 
L 131.449801 278.246219 
L 131.592675 291.657793 
L 131.813479 266.192996 
L 132.021296 292.130722 
L 132.11871 291.538485 
L 132.28756 281.04574 
L 132.748653 228.640546 
L 132.98894 291.492894 
L 133.07986 287.855424 
L 133.196757 288.886637 
L 133.398079 284.631813 
L 133.729286 293.088588 
L 133.930608 268.929803 
L 134.08647 291.822964 
L 134.404689 253.82347 
L 134.66446 293.041672 
L 134.96969 250.906292 
L 135.125552 280.852647 
L 135.443771 257.769418 
L 135.502219 291.699777 
L 135.88538 234.963211 
L 135.9763 289.101885 
L 136.184116 279.978429 
L 136.391933 291.434636 
L 136.482852 289.118531 
L 136.72314 288.59198 
L 136.801071 291.235774 
L 136.891991 286.350596 
L 136.950439 293.311298 
L 137.190727 287.898268 
L 137.353083 285.139824 
L 137.489463 291.25637 
L 137.638831 279.860055 
L 137.768716 288.351544 
L 138.021992 272.691475 
L 138.281762 291.338289 
L 138.56751 251.544533 
L 138.833774 289.611886 
L 138.944177 286.478068 
L 139.067568 286.990256 
L 139.184464 286.774142 
L 139.294867 290.511603 
L 139.379292 290.431617 
L 139.470212 290.774664 
L 139.554637 289.5005 
L 139.632568 291.662259 
L 139.918316 255.940267 
L 140.152109 265.951737 
L 140.243029 291.526754 
L 140.437857 284.967858 
L 140.509293 290.313467 
L 140.639179 288.246223 
L 140.697627 292.668145 
L 140.872972 272.899284 
L 140.970386 291.670705 
L 141.035328 290.273304 
L 141.314582 286.123333 
L 141.411996 290.45784 
L 141.697743 263.624372 
L 141.821134 288.501277 
L 141.970502 278.820139 
L 142.275732 290.322076 
L 142.457571 279.518862 
L 142.535502 289.109186 
L 142.645905 286.904453 
L 142.710848 291.047051 
L 142.905675 283.7351 
L 142.990101 288.357917 
L 143.184928 277.390465 
L 143.308319 290.537173 
L 143.451193 293.767625 
L 143.87332 267.89974 
L 144.126596 290.800654 
L 144.288953 287.356951 
L 144.399355 292.47363 
L 144.490275 291.43013 
L 144.918896 245.547804 
L 144.983838 290.868532 
L 145.113724 284.827358 
L 145.165678 292.289685 
L 145.243609 291.28832 
L 145.32154 291.288354 
L 145.41246 287.378153 
L 145.607287 292.44644 
L 145.71769 287.759732 
L 145.802115 289.959104 
L 146.120334 266.549228 
L 146.321656 291.78765 
L 146.497001 290.757905 
L 146.808725 244.589091 
L 147.055507 290.831976 
L 147.159416 286.697316 
L 147.224358 293.97881 
L 147.646485 279.18455 
L 147.828324 291.160249 
L 147.938727 287.425501 
L 148.159532 275.306802 
L 148.224474 293.579693 
L 148.328382 288.299783 
L 148.393325 291.780554 
L 148.776486 264.572535 
L 148.854417 290.903326 
L 148.971314 288.899164 
L 149.283039 279.737779 
L 149.380452 288.073419 
L 149.52982 278.583449 
L 149.633729 287.779691 
L 149.977924 273.634482 
L 150.055855 290.448476 
L 150.140281 288.425998 
L 150.270166 284.818652 
L 150.328614 291.713752 
L 150.452005 282.687803 
L 150.536431 290.935586 
L 150.711776 294.142333 
L 151.101431 262.750362 
L 151.218328 289.520828 
L 151.32873 283.896607 
L 151.400167 292.525608 
L 151.523558 283.192387 
L 151.620972 290.662072 
L 151.822294 270.652712 
L 152.03011 289.427679 
L 152.21195 273.816378 
L 152.419766 285.715756 
L 152.588617 282.981043 
L 152.686031 288.203646 
L 152.919824 277.056716 
L 153.153617 289.127081 
L 153.361434 288.232238 
L 153.439365 291.257093 
L 153.705629 288.332328 
L 153.87448 289.975339 
L 154.049825 283.907108 
L 154.387527 233.121679 
L 154.517412 288.710131 
L 154.608332 288.590015 
L 154.692757 290.564303 
L 154.861608 274.727111 
L 154.965516 289.458478 
L 155.179826 282.95403 
L 155.537011 287.645221 
L 155.653907 286.032284 
L 155.835747 290.97949 
L 155.97862 291.006929 
L 156.264368 286.702163 
L 156.368276 287.644159 
L 156.667012 278.156789 
L 156.933277 291.391745 
L 157.037185 286.213096 
L 157.141093 289.447048 
L 157.413852 276.626897 
L 157.576208 291.70262 
L 157.719082 289.220941 
L 157.907416 274.536902 
L 157.998335 287.881641 
L 158.316554 284.67962 
L 158.400979 290.874763 
L 158.52437 288.502497 
L 158.654256 290.390659 
L 158.790635 289.9291 
L 158.868566 291.156147 
L 159.017934 285.211411 
L 159.290693 246.871191 
L 159.485521 291.769296 
L 159.602417 288.926809 
L 159.914142 264.652402 
L 160.15443 286.40122 
L 160.336269 274.638126 
L 160.453165 286.915127 
L 160.745407 248.13996 
L 160.836327 289.180819 
L 161.303914 257.436553 
L 161.446787 280.78181 
L 161.661098 291.536802 
L 161.901385 283.955373 
L 162.148167 279.867913 
L 162.557306 227.604522 
L 162.817076 251.753904 
L 163.070352 264.849132 
L 163.200237 289.47707 
L 163.330123 289.613542 
L 163.596387 260.283165 
L 163.700295 285.563055 
L 164.310756 240.147147 
L 164.40817 290.471467 
L 164.570526 292.765421 
L 164.661446 289.620718 
L 164.901734 254.964245 
L 165.135527 289.141774 
L 165.32386 273.22199 
L 165.434263 285.936949 
L 165.616102 275.608335 
L 165.81093 292.852501 
L 165.960298 281.823033 
L 166.057712 288.7579 
L 166.278517 287.111273 
L 166.434379 287.477984 
L 166.525298 288.28169 
L 166.668172 280.406574 
L 166.921448 250.900237 
L 167.226679 289.448128 
L 167.47346 261.392361 
L 167.583863 289.10162 
L 167.876105 268.67551 
L 168.2203 269.781876 
L 168.343691 289.304439 
L 168.713864 259.069685 
L 168.882715 287.447879 
L 169.155474 257.304584 
L 169.291853 291.630973 
L 169.817888 269.774954 
L 170.01921 280.639174 
L 170.41536 234.178366 
L 170.76605 246.178038 
L 170.934901 283.495335 
L 171.220648 243.089001 
L 171.357028 288.374744 
L 171.616798 260.971476 
L 171.876569 290.826934 
L 172.019442 292.995009 
L 172.363638 280.221881 
L 172.642891 243.819536 
L 172.980593 295.488 
L 173.500134 221.637102 
L 173.909272 292.435837 
L 174.259962 236.408881 
L 174.50025 284.620387 
L 174.597664 288.9017 
L 174.993813 255.892971 
L 175.104216 287.642743 
L 175.240595 287.625482 
L 175.41594 285.702614 
L 175.493871 289.405565 
L 175.604274 284.510783 
L 175.851056 282.0419 
L 176.019906 286.095689 
L 176.097838 291.089865 
L 176.279677 263.217696 
L 176.500482 267.983096 
L 176.812206 247.400208 
L 176.916114 288.730565 
L 177.377207 262.760463 
L 177.448644 292.368961 
L 177.604506 293.030372 
L 177.831805 280.318338 
L 177.896748 291.993781 
L 178.253932 236.472943 
L 178.539679 241.84272 
L 178.903358 232.193152 
L 179.215082 253.295893 
L 179.306002 287.732166 
L 179.40991 287.318 
L 179.513818 285.480238 
L 179.71514 288.941315 
L 179.825543 287.831987 
L 180.351578 173.153473 
L 180.838647 244.323857 
L 180.981521 288.463788 
L 181.137383 280.536287 
L 181.436119 284.115128 
L 181.546522 289.906684 
L 181.637441 287.546714 
L 181.890717 273.777092 
L 182.053074 291.034888 
L 182.131005 290.805029 
L 182.410258 281.408477 
L 182.754454 234.289966 
L 183.157098 246.491034 
L 183.280489 285.002631 
L 183.4948 275.456299 
L 183.787041 268.047625 
L 183.936409 275.015025 
L 184.046812 287.652667 
L 184.222157 273.770787 
L 184.423479 288.963219 
L 184.637789 274.130603 
L 184.858594 292.183144 
L 185.339169 227.700128 
L 185.683365 255.082406 
L 185.897676 257.579352 
L 185.969113 291.588244 
L 186.475665 225.96302 
L 186.553596 291.029258 
L 186.728941 282.475771 
L 186.852332 282.714983 
L 187.0017 289.111103 
L 187.293942 278.385611 
L 187.579689 241.841041 
L 187.858942 284.418611 
L 188.222621 240.589424 
L 188.378483 287.225064 
L 188.49538 287.294582 
L 188.891529 291.370061 
L 189.235725 269.772383 
L 189.313656 290.576862 
L 189.489001 279.162607 
L 190.15791 191.909983 
L 190.5086 290.280183 
L 190.800842 257.662228 
L 191.099578 242.562281 
L 191.482739 263.722352 
L 191.755498 290.187916 
L 192.314004 264.443981 
L 192.437395 283.273929 
L 193.028373 180.60024 
L 193.489465 249.243609 
L 193.918087 274.213619 
L 194.275271 239.189331 
L 194.535041 250.343089 
L 195.119525 236.35661 
L 195.301364 290.380023 
L 195.457226 286.382847 
L 195.528663 290.883996 
L 195.652054 284.96577 
L 195.846882 261.52354 
L 196.126135 246.002059 
L 196.30148 289.853786 
L 196.515791 292.914008 
L 197.041826 212.780731 
L 197.457458 220.535234 
L 197.626309 293.878921 
L 197.834125 259.057301 
L 198.113379 245.406304 
L 198.269241 287.033511 
L 198.464069 272.122958 
L 198.782287 291.053796 
L 199.19792 219.067633 
L 199.45769 249.979772 
L 199.568093 288.64035 
L 199.691484 283.815049 
L 200.120105 231.839031 
L 200.418841 245.164535 
L 200.535737 287.597737 
L 200.866945 247.784037 
L 201.496888 245.027314 
L 201.938498 267.642539 
L 202.09436 288.910751 
L 202.367119 285.665609 
L 202.828211 204.50466 
L 203.062005 255.434299 
L 203.484131 212.757403 
L 203.776373 244.49943 
L 203.880281 287.097815 
L 204.120569 283.248799 
L 204.282925 290.175584 
L 204.484247 282.538401 
L 204.692064 259.953958 
L 204.880397 283.326368 
L 205.075225 284.84419 
L 205.25057 288.770896 
L 205.406432 295.181854 
L 205.588272 283.106007 
L 206.153272 218.260556 
L 206.672813 224.224318 
L 206.926089 283.76476 
L 207.218331 240.151018 
L 207.387182 278.150397 
L 207.965171 209.492316 
L 208.510689 219.723725 
L 208.58862 291.502846 
L 208.84839 287.566201 
L 209.484828 245.087424 
L 209.790058 248.203255 
L 210.309599 220.526086 
L 210.744714 247.556985 
L 210.913565 266.177879 
L 211.342186 246.022429 
L 211.647416 236.904887 
L 212.089026 279.806077 
L 212.342302 252.764037 
L 212.790406 240.345496 
L 212.881325 287.284046 
L 213.160579 247.942041 
L 213.660637 222.10169 
L 214.342534 152.279649 
L 214.673741 242.916808 
L 215.108857 290.249735 
L 215.440064 231.97795 
L 215.615409 265.347109 
L 215.946616 263.641945 
L 216.212881 283.934861 
L 216.498628 282.855707 
L 216.862307 243.898021 
L 217.161043 283.041914 
L 217.466273 240.725814 
L 217.979319 261.295724 
L 218.258573 254.158638 
L 218.511849 250.989204 
L 218.628745 283.70583 
L 218.946964 248.376985 
L 219.323631 224.153208 
L 220.031506 228.109229 
L 220.47961 221.053944 
L 220.641966 290.024972 
L 221.336852 218.932303 
L 221.473231 280.975345 
L 221.817427 281.684119 
L 222.291508 226.588995 
L 222.694152 226.383657 
L 223.116279 220.712364 
L 223.460475 251.972561 
L 223.694268 253.735952 
L 224.116395 240.581163 
L 224.421625 274.698926 
L 224.629442 274.832591 
L 225.34381 144.211188 
L 225.577604 253.271747 
L 226.058179 215.610685 
L 226.402375 268.747813 
L 226.655651 283.817009 
L 226.934904 248.278058 
L 227.350536 216.887429 
L 227.590824 291.061516 
L 228.181802 212.657586 
L 228.551975 225.642344 
L 228.779274 292.640238 
L 229.090998 239.271327 
L 229.207895 288.798061 
L 229.73393 191.345971 
L 230.091114 243.789874 
L 230.48077 228.418051 
L 230.993816 203.675629 
L 231.325024 284.150958 
L 231.558817 256.663985 
L 231.83807 244.059067 
L 232.156289 254.302918 
L 232.474508 241.870184 
L 232.766749 251.069135 
L 233.058991 247.901008 
L 233.448647 239.195666 
L 234.318877 185.223289 
L 235.52681 205.367311 
L 235.734626 293.032359 
L 235.896982 267.332856 
L 236.124282 276.08383 
L 236.215201 286.821898 
L 236.461983 251.719478 
L 237.169857 188.182977 
L 237.877732 207.774976 
L 238.319341 233.693357 
L 238.546641 261.112822 
L 238.845376 237.896554 
L 239.12463 246.404612 
L 239.442848 238.232015 
L 239.864975 262.841153 
L 240.209171 279.806454 
L 240.585838 239.71839 
L 240.988482 217.103501 
L 241.57946 213.818966 
L 241.800265 287.347842 
L 242.553599 244.023842 
L 242.923772 231.658567 
L 243.306933 226.037078 
L 243.521244 259.431315 
L 244.177164 189.613188 
L 244.391474 257.09627 
L 244.612279 257.43708 
L 245.047395 202.954092 
L 245.339636 246.613188 
L 245.781246 214.596639 
L 246.131936 245.33402 
L 246.469638 251.135933 
L 246.898259 230.734428 
L 247.138546 252.453749 
L 247.495731 223.689301 
L 247.89188 279.02891 
L 248.177628 243.655028 
L 248.573778 217.851695 
L 248.7751 261.563452 
L 249.015387 252.670459 
L 249.547917 262.532098 
L 249.924584 220.497064 
L 250.314239 226.949017 
L 250.83378 227.860056 
L 251.087056 251.714295 
L 251.755965 199.64255 
L 252.392403 173.391009 
L 253.145737 256.367674 
L 253.405507 249.433231 
L 253.762691 225.512871 
L 254.041945 247.580392 
L 254.425106 230.062383 
L 254.82775 230.507104 
L 255.107003 243.947072 
L 255.613555 212.393595 
L 256.087636 191.130926 
L 256.814994 185.800048 
L 257.165684 243.212199 
L 257.581316 264.597 
L 257.795627 258.019496 
L 257.990455 261.413133 
L 258.698329 193.762862 
L 258.873674 265.376155 
L 259.295801 206.276849 
L 259.5231 256.100843 
L 259.73741 261.043976 
L 259.938733 261.759829 
L 260.373848 239.625849 
L 260.867412 255.172647 
L 261.075228 258.14048 
L 261.360975 244.77061 
L 261.6727 239.435808 
L 262.094827 204.931359 
L 262.380574 243.511264 
L 262.685804 250.536778 
L 263.055977 235.690346 
L 263.218334 267.490931 
L 263.458621 252.841989 
L 263.965174 250.308849 
L 264.296381 240.434856 
L 266.153739 105.775146 
L 266.316096 266.875303 
L 266.835637 190.315566 
L 267.537017 156.433989 
L 268.153971 151.363752 
L 268.543627 218.292869 
L 268.835869 241.615491 
L 269.21903 225.748522 
L 269.4788 259.40243 
L 269.738571 252.80841 
L 270.258111 184.970108 
L 270.758169 183.630089 
L 271.121848 232.308497 
L 271.41409 248.941331 
L 271.959608 168.661134 
L 272.557079 157.355769 
L 273.07662 181.30977 
L 273.401333 250.219659 
L 273.615644 259.018774 
L 274.375472 142.962185 
L 275.005415 254.474953 
L 275.453519 198.217274 
L 275.947083 203.687081 
L 276.349727 211.716423 
L 276.544555 262.022949 
L 276.726394 264.608248 
L 277.258924 176.841943 
L 277.473234 259.18459 
L 277.77197 239.849993 
L 278.304499 185.237541 
L 278.687661 231.730155 
L 279.070822 234.434941 
L 279.460478 217.180829 
L 280.324214 155.101462 
L 280.674904 240.905117 
L 280.908698 253.632467 
L 281.32433 260.186529 
L 281.577606 253.0423 
L 281.785423 258.143155 
L 282.389389 175.853155 
L 282.967378 162.781504 
L 283.538873 161.277088 
L 283.805138 247.528435 
L 284.57146 152.844204 
L 285.091001 179.015364 
L 285.66899 164.18728 
L 286.233991 168.50084 
L 286.773014 214.106642 
L 287.299049 184.15942 
L 287.786119 195.203496 
L 288.032901 251.841812 
L 289.208362 100.986235 
L 290.007156 146.090556 
L 290.643593 155.63871 
L 291.2021 168.966448 
L 291.838537 172.411278 
L 292.51394 159.624976 
L 293.078941 162.906959 
L 293.624459 169.887247 
L 294.202448 160.396147 
L 294.760954 176.707719 
L 295.306472 179.32306 
L 295.864978 178.360944 
L 296.46245 159.639922 
L 297.267738 146.6291 
L 297.995095 155.972097 
L 298.553602 166.642164 
L 299.112108 166.149131 
L 299.670614 170.189807 
L 300.307052 159.374072 
L 300.846075 171.341584 
L 301.437053 161.758388 
L 302.002054 167.584903 
L 302.716422 161.168863 
L 303.222975 187.817723 
L 303.768492 177.188005 
L 304.333493 163.453814 
L 304.879011 174.336405 
L 305.457 159.821292 
L 306.041483 160.432098 
L 306.612978 163.055239 
L 307.197462 172.742008 
L 307.775451 163.844889 
L 308.340451 163.840446 
L 308.905452 164.151846 
L 309.489935 159.908951 
L 310.06143 168.051761 
L 310.580971 184.439201 
L 311.678501 177.197323 
L 312.224019 169.909293 
L 312.866951 159.810692 
L 313.509882 154.53126 
L 314.081377 163.841343 
L 314.971091 142.236885 
L 315.542586 161.778778 
L 316.068621 187.103527 
L 316.575173 189.314783 
L 317.133679 170.093922 
L 317.666209 183.099038 
L 318.198738 172.762954 
L 318.770233 164.63984 
L 319.283279 189.22399 
L 319.854774 174.156618 
L 320.426269 167.785905 
L 320.926327 192.896676 
L 321.634201 148.077279 
L 322.186213 175.915929 
L 322.757708 162.562376 
L 323.303226 168.646869 
L 323.861732 178.97989 
L 324.420239 168.669425 
L 324.978745 177.643647 
L 325.543746 166.887211 
L 325.959378 213.817474 
L 326.563345 166.324704 
L 327.108862 180.512385 
L 327.65438 172.21091 
L 328.258346 165.978439 
L 328.79737 182.259224 
L 329.349382 167.526652 
L 329.946854 160.808365 
L 330.498866 179.236592 
L 331.057372 173.199848 
L 331.628867 172.686511 
L 332.219845 166.710493 
L 332.752374 177.090884 
L 333.310881 172.752118 
L 333.849904 174.953133 
L 334.427893 160.674253 
L 334.992894 164.185932 
L 335.564389 174.823195 
L 336.103412 170.220791 
L 336.707379 154.820457 
L 337.311345 168.647039 
L 337.850368 176.543899 
L 338.40238 179.386828 
L 338.941404 173.594353 
L 339.480427 171.452264 
L 339.935026 203.504957 
L 340.467555 173.055521 
L 341.03905 162.023943 
L 341.578073 189.656932 
L 342.130086 167.508938 
L 342.714569 166.561709 
L 343.312041 156.137495 
L 343.883536 171.002386 
L 344.429054 181.23974 
L 344.961583 175.748332 
L 345.507101 179.232646 
L 346.033136 187.367407 
L 346.565665 176.760114 
L 347.078712 192.2843 
L 347.643712 165.651099 
L 348.182736 173.740598 
L 348.754231 168.745214 
L 349.306243 167.939446 
L 349.858255 167.887155 
L 350.436244 160.41104 
L 350.962279 175.849929 
L 351.501303 171.576548 
L 352.053315 174.40834 
L 352.605327 174.605958 
L 353.157339 170.720754 
L 353.683374 178.626015 
L 354.24188 170.803322 
L 354.800387 178.582389 
L 355.345904 173.221076 
L 355.891422 176.252228 
L 356.456423 163.583398 
L 357.008435 176.517986 
L 357.573436 164.19207 
L 358.67746 173.869992 
L 359.24246 174.968026 
L 359.768495 176.997604 
L 360.301025 175.50676 
L 360.82706 175.393345 
L 361.366083 170.914832 
L 361.92459 180.327834 
L 363.009131 171.586128 
L 363.528672 177.464926 
L 364.087178 164.86665 
L 364.678156 159.464041 
L 365.210685 171.905877 
L 365.743214 175.036015 
L 366.288732 179.007132 
L 366.801779 188.256312 
L 368.412355 171.66312 
L 368.944885 174.743997 
L 369.509885 166.34618 
L 370.042414 176.09783 
L 370.587932 170.458902 
L 371.146439 179.019349 
L 371.678968 177.900506 
L 372.198509 177.616445 
L 372.731038 176.241862 
L 373.289544 170.22104 
L 373.789602 180.560461 
L 374.33512 170.62623 
L 374.893627 168.681158 
L 375.471616 170.697471 
L 376.049605 163.841827 
L 376.601617 169.124314 
L 377.173112 168.44321 
L 377.731618 180.336766 
L 378.309607 158.272367 
L 378.874608 176.545711 
L 379.420126 176.427271 
L 379.965644 175.888432 
L 380.498173 173.928584 
L 381.030702 173.630428 
L 381.556737 179.337908 
L 382.121738 172.2955 
L 382.67375 174.726126 
L 383.212773 184.276813 
L 384.303809 172.181104 
L 384.82335 176.714917 
L 385.362374 176.122807 
L 385.914386 180.643055 
L 386.440421 183.485213 
L 386.979444 172.784182 
L 387.511974 175.336768 
L 388.076974 163.776992 
L 388.63548 168.091933 
L 389.187493 174.114869 
L 389.73301 178.698598 
L 390.285023 179.976125 
L 390.817552 180.48282 
L 391.337093 187.103148 
L 391.876116 171.411163 
L 391.876116 171.411163 
" clip-path="url(#p06d50e05d1)" style="fill: none; stroke: #1f77b4; stroke-width: 1.5; stroke-linecap: square"/>
   </g>
   <g id="line2d_16">
    <path d="M 138.716878 269.165839 
L 203.659476 240.994518 
L 268.602075 167.31068 
L 333.544674 178.911107 
L 398.487273 180.525579 
" clip-path="url(#p06d50e05d1)" style="fill: none; stroke: #ff7f0e; stroke-width: 1.5; stroke-linecap: square"/>
   </g>
   <g id="line2d_17">
    <path d="M 73.845716 290.10599 
L 73.930141 288.057872 
L 74.021061 289.33488 
L 74.124969 288.610871 
L 74.228877 291.960736 
L 74.456176 282.690693 
L 74.579567 286.685481 
L 74.715947 285.549564 
L 74.871809 289.46461 
L 75.027671 287.866004 
L 75.112096 289.803042 
L 75.267959 289.09839 
L 75.430315 278.493595 
L 75.761522 292.162556 
L 75.930373 288.615801 
L 76.105718 273.604964 
L 76.462903 288.909093 
L 76.644742 286.901289 
L 76.729167 290.758811 
L 76.846064 283.629663 
L 77.047386 289.054571 
L 77.183765 291.12629 
L 77.255202 290.868411 
L 77.346122 289.958449 
L 77.424053 291.465146 
L 77.521467 286.599672 
L 77.605892 290.234966 
L 77.716295 285.501018 
L 77.84618 287.304505 
L 78.028019 278.274061 
L 78.112445 289.418891 
L 78.255318 287.369095 
L 78.378709 290.711769 
L 78.463135 290.029378 
L 78.651468 280.245842 
L 78.742388 290.083733 
L 78.891756 281.147617 
L 78.995664 290.352425 
L 79.106066 287.400783 
L 79.242446 288.752368 
L 79.437274 288.143992 
L 79.586642 290.603787 
L 79.774975 278.921537 
L 79.99578 290.038811 
L 80.190608 284.717869 
L 80.34647 292.25384 
L 80.60624 262.751645 
L 80.853022 275.384752 
L 81.067333 276.526409 
L 81.145264 290.263185 
L 81.314115 282.527878 
L 81.469977 280.750061 
L 81.528425 291.155562 
L 81.599862 290.754934 
L 81.775207 281.755309 
L 81.879115 290.36871 
L 82.034977 280.327826 
L 82.229805 282.906073 
L 82.40515 290.991121 
L 82.632449 285.130357 
L 82.749346 286.755142 
L 82.827277 290.910932 
L 82.970151 283.361203 
L 83.145496 291.680214 
L 83.418255 287.904126 
L 83.54814 281.428541 
L 83.859865 280.084306 
L 83.937796 290.390066 
L 84.061187 285.072341 
L 84.236532 290.767946 
L 84.333945 289.084463 
L 84.470325 290.130724 
L 84.567739 288.220143 
L 84.723601 279.828921 
L 84.808026 288.573228 
L 85.132739 279.700623 
L 85.217165 289.609147 
L 85.34705 290.819753 
L 85.574349 287.243086 
L 85.814637 290.792463 
L 86.191304 229.308899 
L 86.288718 292.675247 
L 86.366649 290.274312 
L 86.49004 284.648137 
L 86.632913 287.250816 
L 87.003086 261.696089 
L 87.126477 285.194873 
L 87.256362 283.019916 
L 87.379753 288.628957 
L 87.639524 283.941864 
L 88.24349 265.089653 
L 88.470789 289.667 
L 88.691594 283.276813 
L 88.756536 290.846634 
L 88.957859 288.282594 
L 89.146192 274.79318 
L 89.373491 288.589109 
L 89.503376 288.469437 
L 89.743664 284.975911 
L 89.873549 287.938539 
L 89.977457 287.161356 
L 90.120331 288.424435 
L 90.217745 288.380026 
L 90.477515 279.095387 
L 90.594412 285.653768 
L 90.763263 278.882487 
L 90.867171 287.894339 
L 90.984068 284.989869 
L 91.055504 290.476966 
L 91.146424 290.014407 
L 91.282804 287.23336 
L 91.484126 288.380673 
L 91.601022 287.881704 
L 91.899758 282.086611 
L 91.977689 289.525052 
L 92.133552 289.695164 
L 92.276425 284.717347 
L 92.386828 291.323701 
L 92.529701 281.015845 
L 92.757001 287.494148 
L 92.860909 286.57329 
L 92.977805 285.414653 
L 93.068725 290.321501 
L 93.28953 286.972109 
L 93.373955 287.873915 
L 93.490852 287.389553 
L 93.568783 289.510464 
L 93.711657 281.413109 
L 93.880508 283.832914 
L 94.127289 280.283652 
L 94.237692 287.515898 
L 94.328611 287.514271 
L 94.620853 289.198064 
L 95.036486 281.701263 
L 95.211831 290.426664 
L 95.328727 288.888071 
L 95.458613 290.781529 
L 95.562521 288.481429 
L 95.783326 264.048301 
L 95.848268 291.38504 
L 95.952176 288.610494 
L 96.179476 283.842612 
L 96.367809 291.088925 
L 96.497694 287.990004 
L 96.58212 291.949916 
L 96.712005 281.547343 
L 96.926315 279.897163 
L 97.023729 289.064897 
L 97.19258 278.357646 
L 97.296488 288.644721 
L 97.465339 282.965791 
L 97.686144 288.141788 
L 97.98488 269.056467 
L 98.348558 282.420763 
L 98.484938 292.033631 
L 98.73172 283.895849 
L 98.90057 290.814793 
L 98.984996 290.811869 
L 99.231778 272.727827 
L 99.335686 287.656191 
L 99.537008 270.41639 
L 99.614939 289.076092 
L 99.744824 285.326401 
L 99.861721 288.188424 
L 100.192928 277.23574 
L 100.244882 292.113614 
L 100.309825 290.847413 
L 100.472181 283.845035 
L 100.673503 286.815639 
L 100.783906 286.594998 
L 100.887814 288.463721 
L 101.037182 280.264872 
L 101.27747 278.70445 
L 101.374883 289.91463 
L 101.485286 288.362236 
L 101.530746 293.022333 
L 102.050286 183.124146 
L 102.232126 286.850965 
L 102.452931 286.108584 
L 102.595804 284.813688 
L 102.68023 288.716224 
L 102.829598 284.690745 
L 102.920517 290.075336 
L 103.004943 288.500519 
L 103.193276 290.220008 
L 103.329656 280.149528 
L 103.440058 289.495673 
L 103.59592 279.970738 
L 103.797242 276.485775 
L 103.953105 278.539406 
L 104.070001 288.183754 
L 104.173909 285.576785 
L 104.232358 291.254507 
L 104.329772 288.972795 
L 104.453163 288.938108 
L 104.550576 291.050384 
L 104.673967 285.621162 
L 104.78437 286.656532 
L 104.959715 283.756291 
L 105.323393 256.960509 
L 105.758509 248.801342 
L 106.14167 285.070985 
L 106.27805 286.355385 
L 106.505349 283.210183 
L 106.570291 291.503175 
L 106.693682 286.754715 
L 106.804085 290.367793 
L 107.076844 272.3128 
L 107.362591 261.473394 
L 107.563913 289.876592 
L 107.706787 282.615163 
L 107.856155 290.766317 
L 107.973051 286.713624 
L 108.070465 288.638673 
L 108.161385 288.239664 
L 108.265293 285.592132 
L 108.323741 292.35126 
L 108.388684 291.045059 
L 108.479604 290.101473 
L 108.557535 291.525333 
L 108.817305 289.109446 
L 109.064087 285.768444 
L 109.200467 288.29737 
L 109.505697 269.113324 
L 109.69403 282.331301 
L 109.940812 284.619454 
L 110.109663 288.418814 
L 110.239548 283.146112 
L 110.297996 292.598755 
L 110.538284 285.229894 
L 110.720123 291.803142 
L 110.811043 289.823543 
L 111.018859 275.240558 
L 111.213687 288.367841 
L 111.304607 288.785132 
L 111.408515 293.43013 
L 111.505929 288.811201 
L 111.58386 291.509045 
L 112.070929 273.486097 
L 112.389148 291.415066 
L 112.532022 286.011563 
L 112.616447 289.235211 
L 112.713861 287.070874 
L 112.791792 289.955171 
L 112.869723 289.751836 
L 112.993114 289.04581 
L 113.090528 290.184798 
L 113.38277 269.758482 
L 113.538632 291.494017 
L 113.629552 287.435276 
L 114.012713 251.711815 
L 114.08415 290.609285 
L 114.194552 287.200919 
L 114.285472 288.056817 
L 114.34392 291.782653 
L 114.447829 285.46208 
L 114.577714 292.254675 
L 114.798519 284.368902 
L 114.947887 282.108507 
L 115.006335 291.532031 
L 115.084266 290.062541 
L 115.162197 289.902984 
L 115.305071 289.052711 
L 115.590818 255.567194 
L 115.746681 283.90472 
L 115.935014 288.560539 
L 116.500015 260.984579 
L 116.577946 290.531733 
L 116.870187 284.051399 
L 117.000073 284.879178 
L 117.181912 283.802208 
L 117.298809 285.116564 
L 117.519613 266.547852 
L 117.571568 292.375698 
L 117.668981 287.613272 
L 117.798867 284.507118 
L 118.000189 288.87677 
L 118.208005 289.86661 
L 118.363867 280.152139 
L 118.623638 274.094505 
L 118.818465 292.731456 
L 119.03927 288.773937 
L 119.117201 290.074201 
L 119.409443 253.730223 
L 119.747145 291.528847 
L 119.83157 291.482987 
L 120.026398 278.051426 
L 120.416053 268.392959 
L 120.708295 288.194132 
L 120.825192 290.816283 
L 120.942088 286.726742 
L 121.052491 290.333796 
L 121.299273 288.684802 
L 121.416169 285.373268 
L 121.481112 292.678629 
L 121.805825 264.937851 
L 121.896745 288.847434 
L 122.013641 289.692068 
L 122.091572 291.275787 
L 122.182492 289.971188 
L 122.33186 291.288757 
L 122.572148 279.525987 
L 122.643584 290.383353 
L 122.812435 289.450084 
L 122.935826 287.652083 
L 123.091688 276.421575 
L 123.228068 280.914724 
L 123.42939 281.563267 
L 123.546287 287.785957 
L 123.682666 282.370463 
L 123.819046 289.282682 
L 124.026862 285.231449 
L 124.78669 154.015292 
L 124.845139 292.967096 
L 124.942552 289.398407 
L 125.111403 288.630344 
L 125.202323 289.189632 
L 125.325714 287.89737 
L 125.455599 288.061909 
L 125.604967 280.289484 
L 125.728358 289.169783 
L 125.923186 279.138343 
L 126.169968 284.943678 
L 126.241404 289.808571 
L 126.345313 289.686274 
L 126.605083 280.093346 
L 126.708991 290.647702 
L 126.832382 291.810477 
L 127.144107 286.896964 
L 127.306463 287.487806 
L 127.520774 290.501196 
L 127.63767 284.8839 
L 127.722096 288.637851 
L 127.890946 277.950768 
L 128.12474 287.031281 
L 128.222154 290.373889 
L 128.416982 285.581367 
L 128.494913 292.241843 
L 128.559855 290.818754 
L 128.657269 289.235524 
L 128.839108 280.473835 
L 128.923534 291.417886 
L 129.014453 287.215972 
L 129.118362 290.046903 
L 129.345661 280.728663 
L 129.780776 290.696616 
L 129.982098 286.559332 
L 130.150949 286.75661 
L 130.378248 289.93577 
L 130.573076 280.86264 
L 130.767904 289.927837 
L 130.97572 276.080818 
L 131.170548 291.936569 
L 131.313421 290.534057 
L 131.573192 270.552179 
L 131.651123 289.950475 
L 131.813479 287.748889 
L 131.910893 289.555537 
L 132.014802 285.77072 
L 132.164169 292.01791 
L 132.307043 283.747112 
L 132.456411 289.695944 
L 132.716182 276.076476 
L 132.82009 289.628389 
L 132.911009 288.912248 
L 133.086354 287.569326 
L 133.437044 242.966719 
L 133.586412 279.943801 
L 133.904631 282.361125 
L 133.989057 290.936503 
L 134.066988 289.955204 
L 134.151413 287.807582 
L 134.216356 291.250129 
L 134.521586 279.908243 
L 134.651471 285.407921 
L 134.859287 285.225915 
L 135.125552 286.859633 
L 135.372334 272.336107 
L 135.606127 291.452413 
L 135.710035 288.70249 
L 135.807449 289.38641 
L 135.969806 285.489252 
L 136.197105 288.33727 
L 136.288024 287.196979 
L 136.508829 276.650687 
L 136.651703 289.475304 
L 136.81406 289.991753 
L 136.885496 290.729179 
L 136.989405 287.739387 
L 137.184232 288.52444 
L 137.327106 280.970053 
L 137.398543 291.623882 
L 137.482968 290.004985 
L 137.690785 281.231316 
L 137.794693 286.097614 
L 137.983026 277.485661 
L 138.190843 288.4411 
L 138.301245 289.312492 
L 138.411647 286.707731 
L 138.496073 290.041365 
L 138.697395 276.769069 
L 138.775326 290.607948 
L 138.957165 288.603862 
L 139.113028 282.427044 
L 139.288373 284.974337 
L 139.418258 282.590797 
L 139.561131 287.498632 
L 139.66504 286.694175 
L 139.872856 270.483486 
L 139.937799 291.456491 
L 140.01573 290.330265 
L 140.314466 276.79289 
L 140.613202 289.360515 
L 140.704121 289.494278 
L 140.76257 292.114642 
L 140.924926 280.288985 
L 141.002857 290.335913 
L 141.106765 285.031886 
L 141.308087 288.564246 
L 141.411996 287.052099 
L 141.535386 290.06951 
L 141.665272 288.12029 
L 141.749697 290.389317 
L 141.860099 289.985894 
L 142.009467 277.902558 
L 142.171824 287.405562 
L 142.51602 240.3676 
L 142.645905 287.231963 
L 143.249871 263.047055 
L 143.321308 290.462163 
L 143.444699 288.515321 
L 143.769412 278.424383 
L 143.938263 280.332779 
L 144.22401 291.938262 
L 144.470792 286.276398 
L 144.581194 291.034477 
L 144.646137 290.571319 
L 144.71108 291.444459 
L 144.821482 290.116344 
L 144.957861 291.930121 
L 145.237115 287.310782 
L 145.386483 290.198369 
L 145.724184 255.867522 
L 145.944989 270.458684 
L 146.107345 290.780847 
L 146.185277 290.08051 
L 146.32815 281.274542 
L 146.432058 289.742156 
L 146.665852 284.152775 
L 146.81522 292.811016 
L 146.977576 281.062534 
L 147.263324 279.996793 
L 147.438669 289.086272 
L 147.639991 276.947307 
L 147.750393 287.464961 
L 147.860796 286.363232 
L 148.029646 281.120576 
L 148.269934 267.331041 
L 148.399819 283.595339 
L 148.65959 271.085327 
L 148.776486 285.609931 
L 148.96482 276.170717 
L 149.055739 289.850605 
L 149.140165 289.070805 
L 149.263556 287.959965 
L 149.36097 288.670786 
L 149.841545 240.53133 
L 150.01689 273.959138 
L 150.296143 285.787404 
L 150.361086 290.900034 
L 150.536431 285.976089 
L 150.744247 288.442378 
L 150.952063 284.961935 
L 151.263788 291.900969 
L 151.569018 282.989691 
L 151.672926 289.367928 
L 151.77034 287.34954 
L 151.874248 288.956805 
L 151.991145 283.812802 
L 152.315858 285.509165 
L 152.556145 268.741211 
L 152.666548 289.392715 
L 152.841893 283.519989 
L 152.978272 283.367811 
L 153.1731 270.050016 
L 153.238043 291.208975 
L 153.361434 289.069686 
L 153.47833 284.363097 
L 153.647181 284.903064 
L 153.790055 281.214673 
L 153.978388 284.391497 
L 154.069308 288.285718 
L 154.199193 283.254242 
L 154.562872 237.997435 
L 154.679768 282.854869 
L 154.978504 274.352584 
L 155.212298 290.078404 
L 155.342183 288.484703 
L 155.491551 285.035211 
L 155.744827 287.251554 
L 155.913678 282.610343 
L 156.264368 268.784763 
L 156.355288 288.003222 
L 156.537127 285.1847 
L 156.641035 289.682712 
L 156.764426 286.764519 
L 156.855346 287.623354 
L 156.985231 283.798595 
L 157.180059 288.017287 
L 157.309944 284.33485 
L 157.452817 285.668396 
L 157.615174 290.530738 
L 157.842473 273.547313 
L 158.043795 290.842278 
L 158.232129 274.096468 
L 158.336037 289.422164 
L 158.511382 279.854305 
L 158.641267 287.146313 
L 158.907532 258.217844 
L 159.043911 289.531904 
L 159.141325 288.941597 
L 159.40759 250.561203 
L 159.57644 289.306732 
L 160.102475 269.542137 
L 160.160924 291.556978 
L 160.27782 287.705014 
L 160.472648 286.590362 
L 160.803856 262.166419 
L 160.953224 285.365221 
L 161.180523 289.463766 
L 161.271442 288.420994 
L 161.440293 281.501137 
L 161.550695 285.989728 
L 161.777995 269.931516 
L 161.992305 287.973341 
L 162.239087 273.272651 
L 162.492363 275.225799 
L 162.719662 274.670212 
L 162.972938 268.883651 
L 163.102824 288.545224 
L 163.239203 280.891009 
L 163.447019 289.674968 
L 163.52495 288.889146 
L 163.700295 278.971692 
L 163.862652 287.120941 
L 164.005526 279.862598 
L 164.258802 253.939057 
L 164.356216 289.224349 
L 164.551043 282.262266 
L 164.654952 288.894356 
L 165.031619 258.073474 
L 165.174492 284.200077 
L 165.427769 290.513428 
L 165.512194 288.858573 
L 165.622596 291.841058 
L 165.914838 284.092944 
L 165.992769 289.359924 
L 166.096677 287.088695 
L 166.596735 228.355159 
L 166.739609 288.52149 
L 167.012368 248.921386 
L 167.434495 290.212637 
L 167.525415 288.29629 
L 168.155358 212.339067 
L 168.35668 286.693299 
L 168.480071 284.886061 
L 168.596967 291.565851 
L 168.941163 269.181687 
L 169.045071 288.297949 
L 169.278865 265.02981 
L 169.603578 254.916376 
L 169.752946 283.890017 
L 170.025705 278.60869 
L 170.15559 288.521559 
L 170.3699 259.729108 
L 170.636165 249.149086 
L 170.895935 287.282637 
L 171.084269 272.909252 
L 171.168694 289.46444 
L 171.363522 286.832193 
L 171.564844 269.759933 
L 171.779155 286.125198 
L 171.986971 275.132149 
L 172.181799 281.887181 
L 172.487029 250.428176 
L 172.707834 268.430637 
L 173.058524 247.962071 
L 173.168926 285.946625 
L 173.337777 273.551092 
L 173.519616 292.350191 
L 173.889789 239.55188 
L 174.344387 259.016013 
L 174.519732 278.112618 
L 174.792491 274.530881 
L 174.980825 263.725463 
L 175.130193 285.997498 
L 175.292549 286.523656 
L 175.389963 289.186624 
L 175.773125 258.856144 
L 176.123815 290.879192 
L 176.305654 282.179268 
L 176.708298 285.753205 
L 176.851172 289.099686 
L 176.987551 282.393233 
L 177.370712 290.970026 
L 177.740885 228.428494 
L 177.818816 289.664179 
L 178.182495 235.546559 
L 178.487725 256.408337 
L 178.734507 289.895779 
L 178.831921 287.717073 
L 179.046232 270.95124 
L 179.591749 241.579089 
L 179.773589 292.275779 
L 180.007382 286.673723 
L 180.163244 289.56932 
L 180.273647 285.031313 
L 180.500946 290.855438 
L 180.585371 288.460835 
L 181.085429 237.929538 
L 181.715372 203.307443 
L 181.916694 281.11021 
L 182.163476 281.967663 
L 182.319338 276.700616 
L 182.877845 196.551538 
L 183.059684 291.531936 
L 183.150604 289.904582 
L 183.572731 226.792306 
L 183.748076 290.409671 
L 184.261122 226.883547 
L 184.598824 262.881697 
L 184.800146 270.468429 
L 185.079399 273.6333 
L 185.163824 290.543422 
L 185.728825 249.173631 
L 185.793768 292.306757 
L 186.352274 224.142712 
L 186.917274 251.260302 
L 187.44331 231.966152 
L 187.592678 280.109752 
L 187.742045 287.781205 
L 187.956356 290.579155 
L 188.423943 256.055072 
L 188.501874 288.64422 
L 188.761644 261.366317 
L 188.865552 289.97535 
L 188.988943 286.438135 
L 189.378599 228.737379 
L 189.618887 276.435012 
L 189.85268 270.08702 
L 189.989059 286.727263 
L 190.55406 188.754351 
L 190.81383 284.185738 
L 191.25544 219.197273 
L 191.398314 288.298455 
L 191.528199 285.398772 
L 191.878889 252.903312 
L 192.080211 290.828364 
L 192.502338 257.331495 
L 192.755614 284.663496 
L 193.216707 204.538484 
L 193.424523 275.734551 
L 193.963546 244.263308 
L 194.06096 290.918635 
L 194.314236 264.537477 
L 194.580501 287.699135 
L 195.197456 228.580847 
L 195.55464 232.936742 
L 195.69102 285.693524 
L 196.015733 242.158059 
L 196.191078 290.459355 
L 196.457342 252.807664 
L 196.717113 288.419804 
L 196.950906 256.13083 
L 197.119757 289.779345 
L 197.230159 289.654961 
L 197.580849 235.419981 
L 198.080907 224.202024 
L 198.204298 285.842002 
L 198.334183 283.717282 
L 198.600448 251.025515 
L 198.782287 290.278878 
L 198.873207 287.770294 
L 199.392748 209.344141 
L 199.749932 287.822682 
L 199.957748 284.934476 
L 200.392864 217.08318 
L 200.840968 238.423346 
L 200.964359 286.20277 
L 201.451428 233.425076 
L 201.639762 282.706517 
L 201.795624 284.555611 
L 202.165797 231.371656 
L 202.471027 290.895694 
L 202.672349 289.401565 
L 202.990568 241.009852 
L 203.334763 266.227808 
L 203.646488 280.902342 
L 203.89327 254.956744 
L 204.140052 276.265734 
L 204.451776 265.34004 
L 204.834937 272.433811 
L 205.003788 284.40022 
L 205.367467 276.20511 
L 205.614249 291.201168 
L 205.776605 279.845015 
L 206.068847 245.034106 
L 206.354594 244.602787 
L 206.510457 281.842315 
L 206.685802 272.008404 
L 206.932583 289.182983 
L 207.146894 291.400442 
L 207.517067 250.309533 
L 207.965171 225.415191 
L 208.088562 283.651909 
L 208.341838 273.873691 
L 208.737988 265.791159 
L 209.010747 252.313388 
L 209.179597 285.0794 
L 209.419885 283.20274 
L 209.523793 287.208859 
L 210.069311 221.586886 
L 210.212185 283.544826 
L 210.471955 280.288295 
L 210.809657 279.520794 
L 211.712359 183.665726 
L 212.439716 167.008216 
L 212.926785 282.868512 
L 213.478797 189.569214 
L 213.816499 239.312454 
L 215.232248 103.58307 
L 215.34265 285.460713 
L 215.7388 222.262062 
L 216.050524 250.787012 
L 216.576559 227.607127 
L 216.83633 287.075633 
L 218.018285 217.737416 
L 219.33662 82.493193 
L 219.615873 287.961516 
L 221.206967 63.726188 
L 221.629094 216.047802 
L 222.505819 177.468624 
L 222.668175 282.511246 
L 223.018865 280.847087 
L 223.246164 257.557915 
L 223.752717 234.030365 
L 224.233292 281.204425 
L 224.817775 217.837024 
L 225.051568 276.087619 
L 225.642546 174.307031 
L 226.317949 208.896201 
L 226.733582 266.624526 
L 227.019329 247.0185 
L 227.162203 278.663047 
L 227.415479 277.016572 
L 227.649272 256.684412 
L 227.896054 254.492791 
L 228.24025 236.740148 
L 228.948124 281.420326 
L 229.4287 225.965041 
L 229.668987 290.474048 
L 230.08462 233.873828 
L 231.097724 163.772399 
L 231.221115 284.258392 
L 231.558817 270.839429 
L 232.026404 227.573348 
L 232.344622 241.226653 
L 232.682324 233.348639 
L 232.987554 285.167367 
L 233.604509 184.28445 
L 233.909739 244.938687 
L 234.214969 280.897633 
L 234.708533 193.717802 
L 235.260545 211.460481 
L 235.578764 265.734689 
L 236.306121 148.579866 
L 236.806179 237.829711 
L 237.507559 152.226233 
L 237.884226 236.339403 
L 238.208939 238.306921 
L 239.280492 178.730662 
L 240.235148 165.045129 
L 241.13785 133.126424 
L 241.417103 268.439444 
L 242.754921 145.161898 
L 243.397853 187.784206 
L 243.969348 170.07083 
L 244.371992 232.385012 
L 244.943486 249.873205 
L 245.255211 278.149791 
L 245.956591 162.962561 
L 246.631994 152.36863 
L 247.320386 171.87043 
L 247.736018 225.801211 
L 248.690674 172.293721 
L 249.184238 264.507267 
L 249.69079 233.421333 
L 250.145389 244.217921 
L 250.749355 164.292228 
L 251.333838 169.320801 
L 251.528666 263.851357 
L 251.911827 228.233484 
L 252.924932 115.500124 
L 253.567864 153.415192 
L 254.048439 220.93797 
L 254.548497 196.274812 
L 255.003095 238.432884 
L 255.853843 193.787283 
L 256.464304 199.357652 
L 257.41896 222.722998 
L 258.042409 170.772586 
L 258.613904 169.542252 
L 259.016548 216.544512 
L 260.016664 127.290623 
L 260.724538 148.685755 
L 260.990803 256.505729 
L 261.205113 259.830592 
L 261.575286 238.902264 
L 262.159769 171.604234 
L 262.98454 141.715204 
L 263.51707 178.176616 
L 264.374312 132.321212 
L 264.96529 158.590572 
L 265.257531 246.335249 
L 265.523796 250.363516 
L 266.7642 146.080734 
L 267.355177 172.521597 
L 267.712362 229.216895 
L 268.043569 243.178479 
L 268.550121 197.402548 
L 268.790409 257.173235 
L 269.232018 208.591056 
L 269.595697 240.015796 
L 270.355525 162.291036 
L 270.797135 218.442137 
L 271.36863 166.593367 
L 271.888171 183.719214 
L 272.336275 231.181049 
L 272.81685 192.906688 
L 273.316908 188.302517 
L 274.278058 140.58559 
L 274.745645 199.072852 
L 274.998921 252.906997 
L 275.557428 169.161908 
L 276.135417 195.623887 
L 276.804325 170.750481 
L 277.180993 224.764747 
L 277.544671 230.281399 
L 277.940821 238.181197 
L 278.603235 155.504317 
L 278.947431 237.191579 
L 279.415018 224.432086 
L 280.252777 137.235173 
L 281.045077 147.972273 
L 281.649043 161.947729 
L 282.480309 134.280602 
L 283.220654 145.774857 
L 284.025942 161.835276 
L 284.623414 158.701226 
L 285.22738 158.130683 
L 285.824852 167.797631 
L 286.435313 167.387042 
L 287.182153 149.471486 
L 288.117326 120.904566 
L 288.792729 151.983601 
L 290.442271 53.568 
L 291.072214 156.872133 
L 291.851526 146.806878 
L 293.052964 165.9323 
L 293.767332 162.783991 
L 294.325839 171.375068 
L 295.053196 156.771347 
L 295.644173 159.984707 
L 296.24814 158.317152 
L 296.839117 161.462942 
L 297.430095 160.608757 
L 298.111992 150.779997 
L 298.74843 159.400168 
L 299.345901 159.862583 
L 299.96935 151.960227 
L 300.599294 162.008206 
L 301.222743 158.347966 
L 301.820214 170.385515 
L 302.508606 144.591631 
L 303.086595 163.797291 
L 303.664584 163.300738 
L 304.26855 159.515291 
L 304.891999 153.457379 
L 305.476483 163.412137 
L 306.171369 150.215037 
L 307.333841 171.182422 
L 307.95729 154.982348 
L 308.593728 149.679379 
L 309.788671 161.74907 
L 310.41212 153.662595 
L 311.009592 161.366907 
L 311.334305 239.599865 
L 312.04218 148.378955 
L 312.678617 156.02478 
L 313.289077 159.58398 
L 313.919021 153.360271 
L 314.217757 244.859299 
L 314.769769 174.509472 
L 315.399712 154.015423 
L 315.997184 159.406895 
L 316.60115 156.963751 
L 317.283047 156.142521 
L 317.900002 158.157362 
L 318.516957 154.501781 
L 319.341728 137.64236 
L 319.945694 158.516334 
L 320.536671 173.229733 
L 321.173109 153.859036 
L 321.783569 157.018809 
L 322.445984 145.480928 
L 322.985007 177.321875 
L 323.556502 168.263959 
L 324.153974 165.384582 
L 324.738458 167.479524 
L 325.316447 164.747163 
L 325.926907 155.264275 
L 326.478919 175.162982 
L 327.08938 160.069127 
L 327.686852 160.264351 
L 328.264841 166.253365 
L 328.862313 161.244802 
L 329.433807 168.187549 
L 329.979325 177.964163 
L 330.583291 156.536921 
L 331.180763 160.781811 
L 331.960075 144.622543 
L 332.531569 165.698868 
L 333.174501 161.617163 
L 333.75249 175.397127 
L 334.330479 164.7587 
L 334.921457 161.064688 
L 335.492952 184.54776 
L 336.109907 156.121849 
L 336.720367 160.913529 
L 337.317839 159.24013 
L 337.915311 160.539067 
L 338.512783 164.83475 
L 339.090772 165.659017 
L 339.668761 166.196631 
L 340.266233 160.808071 
L 340.811751 178.438821 
L 341.493648 153.409787 
L 342.058649 168.764674 
L 343.266581 155.941833 
L 343.93549 153.38087 
L 345.143422 170.595154 
L 345.727905 164.3909 
L 346.357849 148.367831 
L 346.935838 168.492294 
L 347.500838 178.264484 
L 348.111299 158.618861 
L 348.715265 160.165182 
L 349.338714 156.999329 
L 349.910209 167.391165 
L 350.514175 157.789379 
L 351.118141 157.763669 
L 351.728602 159.850902 
L 352.280614 175.536704 
L 352.83912 171.219394 
L 353.423603 179.949158 
L 353.98211 172.816187 
L 354.553605 168.019377 
L 355.164065 156.665648 
L 355.729066 169.574584 
L 356.268089 177.556387 
L 356.820101 173.960478 
L 357.417573 162.554975 
L 358.002057 164.807175 
L 358.580046 169.458807 
L 359.158035 165.652715 
L 359.736024 166.118618 
L 360.307519 170.732388 
L 360.898497 162.20201 
L 361.457003 177.417557 
L 362.080452 151.683586 
L 363.23643 173.378078 
L 363.794936 176.734247 
L 364.366431 166.948918 
L 364.94442 165.876077 
L 365.535398 165.722778 
L 366.08741 175.154043 
L 366.645917 170.772612 
L 367.197929 172.876761 
L 367.775918 170.383159 
L 368.37339 161.767262 
L 368.964367 162.346062 
L 369.509885 175.55072 
L 370.061897 172.921062 
L 370.639886 166.720275 
L 371.217876 164.798282 
L 371.782876 168.971428 
L 372.354371 168.687453 
L 372.912877 170.415753 
L 373.484372 167.755458 
L 374.042879 172.023179 
L 374.679316 150.569651 
L 375.244317 172.212821 
L 375.802823 171.810759 
L 376.393801 161.741093 
L 376.932824 177.627772 
L 377.510813 165.959443 
L 378.108285 165.03871 
L 378.673286 170.023434 
L 379.251275 176.742283 
L 379.848747 163.122364 
L 380.407253 175.167693 
L 380.96576 171.414232 
L 381.57622 157.011592 
L 382.147715 168.102455 
L 383.323176 163.973224 
L 383.894671 173.723604 
L 384.453177 176.255761 
L 385.024672 166.949677 
L 386.141685 171.987562 
L 386.700191 175.954111 
L 387.27818 167.19051 
L 387.862664 164.605224 
L 388.486113 154.395603 
L 389.070596 163.132644 
L 389.668068 160.828363 
L 390.239563 170.650861 
L 390.83054 162.728971 
L 391.389047 173.4099 
L 391.947553 177.045078 
L 392.499565 173.921039 
L 393.051577 174.990824 
L 393.051577 174.990824 
" clip-path="url(#p06d50e05d1)" style="fill: none; stroke: #2ca02c; stroke-width: 1.5; stroke-linecap: square"/>
   </g>
   <g id="patch_3">
    <path d="M 57.6 307.584 
L 57.6 41.472 
" style="fill: none; stroke: #000000; stroke-width: 0.8; stroke-linejoin: miter; stroke-linecap: square"/>
   </g>
   <g id="patch_4">
    <path d="M 414.72 307.584 
L 414.72 41.472 
" style="fill: none; stroke: #000000; stroke-width: 0.8; stroke-linejoin: miter; stroke-linecap: square"/>
   </g>
   <g id="patch_5">
    <path d="M 57.6 307.584 
L 414.72 307.584 
" style="fill: none; stroke: #000000; stroke-width: 0.8; stroke-linejoin: miter; stroke-linecap: square"/>
   </g>
   <g id="patch_6">
    <path d="M 57.6 41.472 
L 414.72 41.472 
" style="fill: none; stroke: #000000; stroke-width: 0.8; stroke-linejoin: miter; stroke-linecap: square"/>
   </g>
   <g id="text_17">
    <!-- learning curve -->
    <g transform="translate(192.96375 35.472) scale(0.12 -0.12)">
     <defs>
      <path id="DejaVuSans-6c" d="M 603 4863 
L 1178 4863 
L 1178 0 
L 603 0 
L 603 4863 
z
" transform="scale(0.015625)"/>
      <path id="DejaVuSans-67" d="M 2906 1791 
Q 2906 2416 2648 2759 
Q 2391 3103 1925 3103 
Q 1463 3103 1205 2759 
Q 947 2416 947 1791 
Q 947 1169 1205 825 
Q 1463 481 1925 481 
Q 2391 481 2648 825 
Q 2906 1169 2906 1791 
z
M 3481 434 
Q 3481 -459 3084 -895 
Q 2688 -1331 1869 -1331 
Q 1566 -1331 1297 -1286 
Q 1028 -1241 775 -1147 
L 775 -588 
Q 1028 -725 1275 -790 
Q 1522 -856 1778 -856 
Q 2344 -856 2625 -561 
Q 2906 -266 2906 331 
L 2906 616 
Q 2728 306 2450 153 
Q 2172 0 1784 0 
Q 1141 0 747 490 
Q 353 981 353 1791 
Q 353 2603 747 3093 
Q 1141 3584 1784 3584 
Q 2172 3584 2450 3431 
Q 2728 3278 2906 2969 
L 2906 3500 
L 3481 3500 
L 3481 434 
z
" transform="scale(0.015625)"/>
      <path id="DejaVuSans-63" d="M 3122 3366 
L 3122 2828 
Q 2878 2963 2633 3030 
Q 2388 3097 2138 3097 
Q 1578 3097 1268 2742 
Q 959 2388 959 1747 
Q 959 1106 1268 751 
Q 1578 397 2138 397 
Q 2388 397 2633 464 
Q 2878 531 3122 666 
L 3122 134 
Q 2881 22 2623 -34 
Q 2366 -91 2075 -91 
Q 1284 -91 818 406 
Q 353 903 353 1747 
Q 353 2603 823 3093 
Q 1294 3584 2113 3584 
Q 2378 3584 2631 3529 
Q 2884 3475 3122 3366 
z
" transform="scale(0.015625)"/>
      <path id="DejaVuSans-75" d="M 544 1381 
L 544 3500 
L 1119 3500 
L 1119 1403 
Q 1119 906 1312 657 
Q 1506 409 1894 409 
Q 2359 409 2629 706 
Q 2900 1003 2900 1516 
L 2900 3500 
L 3475 3500 
L 3475 0 
L 2900 0 
L 2900 538 
Q 2691 219 2414 64 
Q 2138 -91 1772 -91 
Q 1169 -91 856 284 
Q 544 659 544 1381 
z
M 1991 3584 
L 1991 3584 
z
" transform="scale(0.015625)"/>
      <path id="DejaVuSans-76" d="M 191 3500 
L 800 3500 
L 1894 563 
L 2988 3500 
L 3597 3500 
L 2284 0 
L 1503 0 
L 191 3500 
z
" transform="scale(0.015625)"/>
     </defs>
     <use xlink:href="#DejaVuSans-6c"/>
     <use xlink:href="#DejaVuSans-65" x="27.783203"/>
     <use xlink:href="#DejaVuSans-61" x="89.306641"/>
     <use xlink:href="#DejaVuSans-72" x="150.585938"/>
     <use xlink:href="#DejaVuSans-6e" x="189.949219"/>
     <use xlink:href="#DejaVuSans-69" x="253.328125"/>
     <use xlink:href="#DejaVuSans-6e" x="281.111328"/>
     <use xlink:href="#DejaVuSans-67" x="344.490234"/>
     <use xlink:href="#DejaVuSans-20" x="407.966797"/>
     <use xlink:href="#DejaVuSans-63" x="439.753906"/>
     <use xlink:href="#DejaVuSans-75" x="494.734375"/>
     <use xlink:href="#DejaVuSans-72" x="558.113281"/>
     <use xlink:href="#DejaVuSans-76" x="599.226562"/>
     <use xlink:href="#DejaVuSans-65" x="658.40625"/>
    </g>
   </g>
   <g id="legend_1">
    <g id="patch_7">
     <path d="M 305.705938 93.506375 
L 407.72 93.506375 
Q 409.72 93.506375 409.72 91.506375 
L 409.72 48.472 
Q 409.72 46.472 407.72 46.472 
L 305.705938 46.472 
Q 303.705938 46.472 303.705938 48.472 
L 303.705938 91.506375 
Q 303.705938 93.506375 305.705938 93.506375 
z
" style="fill: #ffffff; opacity: 0.8; stroke: #cccccc; stroke-linejoin: miter"/>
    </g>
    <g id="line2d_18">
     <path d="M 307.705938 54.570438 
L 317.705938 54.570438 
L 327.705938 54.570438 
" style="fill: none; stroke: #1f77b4; stroke-width: 1.5; stroke-linecap: square"/>
    </g>
    <g id="text_18">
     <!-- source-source -->
     <g transform="translate(335.705938 58.070438) scale(0.1 -0.1)">
      <defs>
       <path id="DejaVuSans-2d" d="M 313 2009 
L 1997 2009 
L 1997 1497 
L 313 1497 
L 313 2009 
z
" transform="scale(0.015625)"/>
      </defs>
      <use xlink:href="#DejaVuSans-73"/>
      <use xlink:href="#DejaVuSans-6f" x="52.099609"/>
      <use xlink:href="#DejaVuSans-75" x="113.28125"/>
      <use xlink:href="#DejaVuSans-72" x="176.660156"/>
      <use xlink:href="#DejaVuSans-63" x="215.523438"/>
      <use xlink:href="#DejaVuSans-65" x="270.503906"/>
      <use xlink:href="#DejaVuSans-2d" x="332.027344"/>
      <use xlink:href="#DejaVuSans-73" x="368.111328"/>
      <use xlink:href="#DejaVuSans-6f" x="420.210938"/>
      <use xlink:href="#DejaVuSans-75" x="481.392578"/>
      <use xlink:href="#DejaVuSans-72" x="544.771484"/>
      <use xlink:href="#DejaVuSans-63" x="583.634766"/>
      <use xlink:href="#DejaVuSans-65" x="638.615234"/>
     </g>
    </g>
    <g id="line2d_19">
     <path d="M 307.705938 69.248563 
L 317.705938 69.248563 
L 327.705938 69.248563 
" style="fill: none; stroke: #ff7f0e; stroke-width: 1.5; stroke-linecap: square"/>
    </g>
    <g id="text_19">
     <!-- source-target -->
     <g transform="translate(335.705938 72.748563) scale(0.1 -0.1)">
      <use xlink:href="#DejaVuSans-73"/>
      <use xlink:href="#DejaVuSans-6f" x="52.099609"/>
      <use xlink:href="#DejaVuSans-75" x="113.28125"/>
      <use xlink:href="#DejaVuSans-72" x="176.660156"/>
      <use xlink:href="#DejaVuSans-63" x="215.523438"/>
      <use xlink:href="#DejaVuSans-65" x="270.503906"/>
      <use xlink:href="#DejaVuSans-2d" x="332.027344"/>
      <use xlink:href="#DejaVuSans-74" x="368.111328"/>
      <use xlink:href="#DejaVuSans-61" x="407.320312"/>
      <use xlink:href="#DejaVuSans-72" x="468.599609"/>
      <use xlink:href="#DejaVuSans-67" x="507.962891"/>
      <use xlink:href="#DejaVuSans-65" x="571.439453"/>
      <use xlink:href="#DejaVuSans-74" x="632.962891"/>
     </g>
    </g>
    <g id="line2d_20">
     <path d="M 307.705938 83.926688 
L 317.705938 83.926688 
L 327.705938 83.926688 
" style="fill: none; stroke: #2ca02c; stroke-width: 1.5; stroke-linecap: square"/>
    </g>
    <g id="text_20">
     <!-- target-target -->
     <g transform="translate(335.705938 87.426688) scale(0.1 -0.1)">
      <use xlink:href="#DejaVuSans-74"/>
      <use xlink:href="#DejaVuSans-61" x="39.208984"/>
      <use xlink:href="#DejaVuSans-72" x="100.488281"/>
      <use xlink:href="#DejaVuSans-67" x="139.851562"/>
      <use xlink:href="#DejaVuSans-65" x="203.328125"/>
      <use xlink:href="#DejaVuSans-74" x="264.851562"/>
      <use xlink:href="#DejaVuSans-2d" x="304.060547"/>
      <use xlink:href="#DejaVuSans-74" x="340.144531"/>
      <use xlink:href="#DejaVuSans-61" x="379.353516"/>
      <use xlink:href="#DejaVuSans-72" x="440.632812"/>
      <use xlink:href="#DejaVuSans-67" x="479.996094"/>
      <use xlink:href="#DejaVuSans-65" x="543.472656"/>
      <use xlink:href="#DejaVuSans-74" x="604.996094"/>
     </g>
    </g>
   </g>
  </g>
 </g>
 <defs>
  <clipPath id="p06d50e05d1">
   <rect x="57.6" y="41.472" width="357.12" height="266.112"/>
  </clipPath>
 </defs>
</svg>
