<?xml version="1.0" encoding="utf-8" standalone="no"?>
<!DOCTYPE svg PUBLIC "-//W3C//DTD SVG 1.1//EN"
  "http://www.w3.org/Graphics/SVG/1.1/DTD/svg11.dtd">
<svg xmlns:xlink="http://www.w3.org/1999/xlink" width="460.8pt" height="345.6pt" viewBox="0 0 460.8 345.6" xmlns="http://www.w3.org/2000/svg" version="1.1">
 <metadata>
  <rdf:RDF xmlns:dc="http://purl.org/dc/elements/1.1/" xmlns:cc="http://creativecommons.org/ns#" xmlns:rdf="http://www.w3.org/1999/02/22-rdf-syntax-ns#">
   <cc:Work>
    <dc:type rdf:resource="http://purl.org/dc/dcmitype/StillImage"/>
    <dc:date>2023-08-18T15:51:02.504301</dc:date>
    <dc:format>image/svg+xml</dc:format>
    <dc:creator>
     <cc:Agent>
      <dc:title>Matplotlib v3.7.1, https://matplotlib.org/</dc:title>
     </cc:Agent>
    </dc:creator>
   </cc:Work>
  </rdf:RDF>
 </metadata>
 <defs>
  <style type="text/css">*{stroke-linejoin: round; stroke-linecap: butt}</style>
 </defs>
 <g id="figure_1">
  <g id="patch_1">
   <path d="M 0 345.6 
L 460.8 345.6 
L 460.8 0 
L 0 0 
z
" style="fill: #ffffff"/>
  </g>
  <g id="axes_1">
   <g id="patch_2">
    <path d="M 57.6 307.584 
L 414.72 307.584 
L 414.72 41.472 
L 57.6 41.472 
z
" style="fill: #ffffff"/>
   </g>
   <g id="matplotlib.axis_1">
    <g id="xtick_1">
     <g id="line2d_1">
      <defs>
       <path id="m8426fe2bc7" d="M 0 0 
L 0 3.5 
" style="stroke: #000000; stroke-width: 0.8"/>
      </defs>
      <g>
       <use xlink:href="#m8426fe2bc7" x="73.767587" y="307.584" style="stroke: #000000; stroke-width: 0.8"/>
      </g>
     </g>
     <g id="text_1">
      <!-- 0 -->
      <g transform="translate(70.586337 322.182437) scale(0.1 -0.1)">
       <defs>
        <path id="DejaVuSans-30" d="M 2034 4250 
Q 1547 4250 1301 3770 
Q 1056 3291 1056 2328 
Q 1056 1369 1301 889 
Q 1547 409 2034 409 
Q 2525 409 2770 889 
Q 3016 1369 3016 2328 
Q 3016 3291 2770 3770 
Q 2525 4250 2034 4250 
z
M 2034 4750 
Q 2819 4750 3233 4129 
Q 3647 3509 3647 2328 
Q 3647 1150 3233 529 
Q 2819 -91 2034 -91 
Q 1250 -91 836 529 
Q 422 1150 422 2328 
Q 422 3509 836 4129 
Q 1250 4750 2034 4750 
z
" transform="scale(0.015625)"/>
       </defs>
       <use xlink:href="#DejaVuSans-30"/>
      </g>
     </g>
    </g>
    <g id="xtick_2">
     <g id="line2d_2">
      <g>
       <use xlink:href="#m8426fe2bc7" x="138.908249" y="307.584" style="stroke: #000000; stroke-width: 0.8"/>
      </g>
     </g>
     <g id="text_2">
      <!-- 10000 -->
      <g transform="translate(123.001999 322.182437) scale(0.1 -0.1)">
       <defs>
        <path id="DejaVuSans-31" d="M 794 531 
L 1825 531 
L 1825 4091 
L 703 3866 
L 703 4441 
L 1819 4666 
L 2450 4666 
L 2450 531 
L 3481 531 
L 3481 0 
L 794 0 
L 794 531 
z
" transform="scale(0.015625)"/>
       </defs>
       <use xlink:href="#DejaVuSans-31"/>
       <use xlink:href="#DejaVuSans-30" x="63.623047"/>
       <use xlink:href="#DejaVuSans-30" x="127.246094"/>
       <use xlink:href="#DejaVuSans-30" x="190.869141"/>
       <use xlink:href="#DejaVuSans-30" x="254.492188"/>
      </g>
     </g>
    </g>
    <g id="xtick_3">
     <g id="line2d_3">
      <g>
       <use xlink:href="#m8426fe2bc7" x="204.048911" y="307.584" style="stroke: #000000; stroke-width: 0.8"/>
      </g>
     </g>
     <g id="text_3">
      <!-- 20000 -->
      <g transform="translate(188.142661 322.182437) scale(0.1 -0.1)">
       <defs>
        <path id="DejaVuSans-32" d="M 1228 531 
L 3431 531 
L 3431 0 
L 469 0 
L 469 531 
Q 828 903 1448 1529 
Q 2069 2156 2228 2338 
Q 2531 2678 2651 2914 
Q 2772 3150 2772 3378 
Q 2772 3750 2511 3984 
Q 2250 4219 1831 4219 
Q 1534 4219 1204 4116 
Q 875 4013 500 3803 
L 500 4441 
Q 881 4594 1212 4672 
Q 1544 4750 1819 4750 
Q 2544 4750 2975 4387 
Q 3406 4025 3406 3419 
Q 3406 3131 3298 2873 
Q 3191 2616 2906 2266 
Q 2828 2175 2409 1742 
Q 1991 1309 1228 531 
z
" transform="scale(0.015625)"/>
       </defs>
       <use xlink:href="#DejaVuSans-32"/>
       <use xlink:href="#DejaVuSans-30" x="63.623047"/>
       <use xlink:href="#DejaVuSans-30" x="127.246094"/>
       <use xlink:href="#DejaVuSans-30" x="190.869141"/>
       <use xlink:href="#DejaVuSans-30" x="254.492188"/>
      </g>
     </g>
    </g>
    <g id="xtick_4">
     <g id="line2d_4">
      <g>
       <use xlink:href="#m8426fe2bc7" x="269.189573" y="307.584" style="stroke: #000000; stroke-width: 0.8"/>
      </g>
     </g>
     <g id="text_4">
      <!-- 30000 -->
      <g transform="translate(253.283323 322.182437) scale(0.1 -0.1)">
       <defs>
        <path id="DejaVuSans-33" d="M 2597 2516 
Q 3050 2419 3304 2112 
Q 3559 1806 3559 1356 
Q 3559 666 3084 287 
Q 2609 -91 1734 -91 
Q 1441 -91 1130 -33 
Q 819 25 488 141 
L 488 750 
Q 750 597 1062 519 
Q 1375 441 1716 441 
Q 2309 441 2620 675 
Q 2931 909 2931 1356 
Q 2931 1769 2642 2001 
Q 2353 2234 1838 2234 
L 1294 2234 
L 1294 2753 
L 1863 2753 
Q 2328 2753 2575 2939 
Q 2822 3125 2822 3475 
Q 2822 3834 2567 4026 
Q 2313 4219 1838 4219 
Q 1578 4219 1281 4162 
Q 984 4106 628 3988 
L 628 4550 
Q 988 4650 1302 4700 
Q 1616 4750 1894 4750 
Q 2613 4750 3031 4423 
Q 3450 4097 3450 3541 
Q 3450 3153 3228 2886 
Q 3006 2619 2597 2516 
z
" transform="scale(0.015625)"/>
       </defs>
       <use xlink:href="#DejaVuSans-33"/>
       <use xlink:href="#DejaVuSans-30" x="63.623047"/>
       <use xlink:href="#DejaVuSans-30" x="127.246094"/>
       <use xlink:href="#DejaVuSans-30" x="190.869141"/>
       <use xlink:href="#DejaVuSans-30" x="254.492188"/>
      </g>
     </g>
    </g>
    <g id="xtick_5">
     <g id="line2d_5">
      <g>
       <use xlink:href="#m8426fe2bc7" x="334.330235" y="307.584" style="stroke: #000000; stroke-width: 0.8"/>
      </g>
     </g>
     <g id="text_5">
      <!-- 40000 -->
      <g transform="translate(318.423985 322.182437) scale(0.1 -0.1)">
       <defs>
        <path id="DejaVuSans-34" d="M 2419 4116 
L 825 1625 
L 2419 1625 
L 2419 4116 
z
M 2253 4666 
L 3047 4666 
L 3047 1625 
L 3713 1625 
L 3713 1100 
L 3047 1100 
L 3047 0 
L 2419 0 
L 2419 1100 
L 313 1100 
L 313 1709 
L 2253 4666 
z
" transform="scale(0.015625)"/>
       </defs>
       <use xlink:href="#DejaVuSans-34"/>
       <use xlink:href="#DejaVuSans-30" x="63.623047"/>
       <use xlink:href="#DejaVuSans-30" x="127.246094"/>
       <use xlink:href="#DejaVuSans-30" x="190.869141"/>
       <use xlink:href="#DejaVuSans-30" x="254.492188"/>
      </g>
     </g>
    </g>
    <g id="xtick_6">
     <g id="line2d_6">
      <g>
       <use xlink:href="#m8426fe2bc7" x="399.470897" y="307.584" style="stroke: #000000; stroke-width: 0.8"/>
      </g>
     </g>
     <g id="text_6">
      <!-- 50000 -->
      <g transform="translate(383.564647 322.182437) scale(0.1 -0.1)">
       <defs>
        <path id="DejaVuSans-35" d="M 691 4666 
L 3169 4666 
L 3169 4134 
L 1269 4134 
L 1269 2991 
Q 1406 3038 1543 3061 
Q 1681 3084 1819 3084 
Q 2600 3084 3056 2656 
Q 3513 2228 3513 1497 
Q 3513 744 3044 326 
Q 2575 -91 1722 -91 
Q 1428 -91 1123 -41 
Q 819 9 494 109 
L 494 744 
Q 775 591 1075 516 
Q 1375 441 1709 441 
Q 2250 441 2565 725 
Q 2881 1009 2881 1497 
Q 2881 1984 2565 2268 
Q 2250 2553 1709 2553 
Q 1456 2553 1204 2497 
Q 953 2441 691 2322 
L 691 4666 
z
" transform="scale(0.015625)"/>
       </defs>
       <use xlink:href="#DejaVuSans-35"/>
       <use xlink:href="#DejaVuSans-30" x="63.623047"/>
       <use xlink:href="#DejaVuSans-30" x="127.246094"/>
       <use xlink:href="#DejaVuSans-30" x="190.869141"/>
       <use xlink:href="#DejaVuSans-30" x="254.492188"/>
      </g>
     </g>
    </g>
    <g id="text_7">
     <!-- timesteps -->
     <g transform="translate(211.443594 335.860562) scale(0.1 -0.1)">
      <defs>
       <path id="DejaVuSans-74" d="M 1172 4494 
L 1172 3500 
L 2356 3500 
L 2356 3053 
L 1172 3053 
L 1172 1153 
Q 1172 725 1289 603 
Q 1406 481 1766 481 
L 2356 481 
L 2356 0 
L 1766 0 
Q 1100 0 847 248 
Q 594 497 594 1153 
L 594 3053 
L 172 3053 
L 172 3500 
L 594 3500 
L 594 4494 
L 1172 4494 
z
" transform="scale(0.015625)"/>
       <path id="DejaVuSans-69" d="M 603 3500 
L 1178 3500 
L 1178 0 
L 603 0 
L 603 3500 
z
M 603 4863 
L 1178 4863 
L 1178 4134 
L 603 4134 
L 603 4863 
z
" transform="scale(0.015625)"/>
       <path id="DejaVuSans-6d" d="M 3328 2828 
Q 3544 3216 3844 3400 
Q 4144 3584 4550 3584 
Q 5097 3584 5394 3201 
Q 5691 2819 5691 2113 
L 5691 0 
L 5113 0 
L 5113 2094 
Q 5113 2597 4934 2840 
Q 4756 3084 4391 3084 
Q 3944 3084 3684 2787 
Q 3425 2491 3425 1978 
L 3425 0 
L 2847 0 
L 2847 2094 
Q 2847 2600 2669 2842 
Q 2491 3084 2119 3084 
Q 1678 3084 1418 2786 
Q 1159 2488 1159 1978 
L 1159 0 
L 581 0 
L 581 3500 
L 1159 3500 
L 1159 2956 
Q 1356 3278 1631 3431 
Q 1906 3584 2284 3584 
Q 2666 3584 2933 3390 
Q 3200 3197 3328 2828 
z
" transform="scale(0.015625)"/>
       <path id="DejaVuSans-65" d="M 3597 1894 
L 3597 1613 
L 953 1613 
Q 991 1019 1311 708 
Q 1631 397 2203 397 
Q 2534 397 2845 478 
Q 3156 559 3463 722 
L 3463 178 
Q 3153 47 2828 -22 
Q 2503 -91 2169 -91 
Q 1331 -91 842 396 
Q 353 884 353 1716 
Q 353 2575 817 3079 
Q 1281 3584 2069 3584 
Q 2775 3584 3186 3129 
Q 3597 2675 3597 1894 
z
M 3022 2063 
Q 3016 2534 2758 2815 
Q 2500 3097 2075 3097 
Q 1594 3097 1305 2825 
Q 1016 2553 972 2059 
L 3022 2063 
z
" transform="scale(0.015625)"/>
       <path id="DejaVuSans-73" d="M 2834 3397 
L 2834 2853 
Q 2591 2978 2328 3040 
Q 2066 3103 1784 3103 
Q 1356 3103 1142 2972 
Q 928 2841 928 2578 
Q 928 2378 1081 2264 
Q 1234 2150 1697 2047 
L 1894 2003 
Q 2506 1872 2764 1633 
Q 3022 1394 3022 966 
Q 3022 478 2636 193 
Q 2250 -91 1575 -91 
Q 1294 -91 989 -36 
Q 684 19 347 128 
L 347 722 
Q 666 556 975 473 
Q 1284 391 1588 391 
Q 1994 391 2212 530 
Q 2431 669 2431 922 
Q 2431 1156 2273 1281 
Q 2116 1406 1581 1522 
L 1381 1569 
Q 847 1681 609 1914 
Q 372 2147 372 2553 
Q 372 3047 722 3315 
Q 1072 3584 1716 3584 
Q 2034 3584 2315 3537 
Q 2597 3491 2834 3397 
z
" transform="scale(0.015625)"/>
       <path id="DejaVuSans-70" d="M 1159 525 
L 1159 -1331 
L 581 -1331 
L 581 3500 
L 1159 3500 
L 1159 2969 
Q 1341 3281 1617 3432 
Q 1894 3584 2278 3584 
Q 2916 3584 3314 3078 
Q 3713 2572 3713 1747 
Q 3713 922 3314 415 
Q 2916 -91 2278 -91 
Q 1894 -91 1617 61 
Q 1341 213 1159 525 
z
M 3116 1747 
Q 3116 2381 2855 2742 
Q 2594 3103 2138 3103 
Q 1681 3103 1420 2742 
Q 1159 2381 1159 1747 
Q 1159 1113 1420 752 
Q 1681 391 2138 391 
Q 2594 391 2855 752 
Q 3116 1113 3116 1747 
z
" transform="scale(0.015625)"/>
      </defs>
      <use xlink:href="#DejaVuSans-74"/>
      <use xlink:href="#DejaVuSans-69" x="39.208984"/>
      <use xlink:href="#DejaVuSans-6d" x="66.992188"/>
      <use xlink:href="#DejaVuSans-65" x="164.404297"/>
      <use xlink:href="#DejaVuSans-73" x="225.927734"/>
      <use xlink:href="#DejaVuSans-74" x="278.027344"/>
      <use xlink:href="#DejaVuSans-65" x="317.236328"/>
      <use xlink:href="#DejaVuSans-70" x="378.759766"/>
      <use xlink:href="#DejaVuSans-73" x="442.236328"/>
     </g>
    </g>
   </g>
   <g id="matplotlib.axis_2">
    <g id="ytick_1">
     <g id="line2d_7">
      <defs>
       <path id="m474ddffc2e" d="M 0 0 
L -3.5 0 
" style="stroke: #000000; stroke-width: 0.8"/>
      </defs>
      <g>
       <use xlink:href="#m474ddffc2e" x="57.6" y="297.820178" style="stroke: #000000; stroke-width: 0.8"/>
      </g>
     </g>
     <g id="text_8">
      <!-- 0 -->
      <g transform="translate(44.2375 301.619397) scale(0.1 -0.1)">
       <use xlink:href="#DejaVuSans-30"/>
      </g>
     </g>
    </g>
    <g id="ytick_2">
     <g id="line2d_8">
      <g>
       <use xlink:href="#m474ddffc2e" x="57.6" y="238.941185" style="stroke: #000000; stroke-width: 0.8"/>
      </g>
     </g>
     <g id="text_9">
      <!-- 50 -->
      <g transform="translate(37.875 242.740404) scale(0.1 -0.1)">
       <use xlink:href="#DejaVuSans-35"/>
       <use xlink:href="#DejaVuSans-30" x="63.623047"/>
      </g>
     </g>
    </g>
    <g id="ytick_3">
     <g id="line2d_9">
      <g>
       <use xlink:href="#m474ddffc2e" x="57.6" y="180.062192" style="stroke: #000000; stroke-width: 0.8"/>
      </g>
     </g>
     <g id="text_10">
      <!-- 100 -->
      <g transform="translate(31.5125 183.861411) scale(0.1 -0.1)">
       <use xlink:href="#DejaVuSans-31"/>
       <use xlink:href="#DejaVuSans-30" x="63.623047"/>
       <use xlink:href="#DejaVuSans-30" x="127.246094"/>
      </g>
     </g>
    </g>
    <g id="ytick_4">
     <g id="line2d_10">
      <g>
       <use xlink:href="#m474ddffc2e" x="57.6" y="121.183199" style="stroke: #000000; stroke-width: 0.8"/>
      </g>
     </g>
     <g id="text_11">
      <!-- 150 -->
      <g transform="translate(31.5125 124.982418) scale(0.1 -0.1)">
       <use xlink:href="#DejaVuSans-31"/>
       <use xlink:href="#DejaVuSans-35" x="63.623047"/>
       <use xlink:href="#DejaVuSans-30" x="127.246094"/>
      </g>
     </g>
    </g>
    <g id="ytick_5">
     <g id="line2d_11">
      <g>
       <use xlink:href="#m474ddffc2e" x="57.6" y="62.304206" style="stroke: #000000; stroke-width: 0.8"/>
      </g>
     </g>
     <g id="text_12">
      <!-- 200 -->
      <g transform="translate(31.5125 66.103425) scale(0.1 -0.1)">
       <use xlink:href="#DejaVuSans-32"/>
       <use xlink:href="#DejaVuSans-30" x="63.623047"/>
       <use xlink:href="#DejaVuSans-30" x="127.246094"/>
      </g>
     </g>
    </g>
    <g id="text_13">
     <!-- rewards -->
     <g transform="translate(25.432812 194.447531) rotate(-90) scale(0.1 -0.1)">
      <defs>
       <path id="DejaVuSans-72" d="M 2631 2963 
Q 2534 3019 2420 3045 
Q 2306 3072 2169 3072 
Q 1681 3072 1420 2755 
Q 1159 2438 1159 1844 
L 1159 0 
L 581 0 
L 581 3500 
L 1159 3500 
L 1159 2956 
Q 1341 3275 1631 3429 
Q 1922 3584 2338 3584 
Q 2397 3584 2469 3576 
Q 2541 3569 2628 3553 
L 2631 2963 
z
" transform="scale(0.015625)"/>
       <path id="DejaVuSans-77" d="M 269 3500 
L 844 3500 
L 1563 769 
L 2278 3500 
L 2956 3500 
L 3675 769 
L 4391 3500 
L 4966 3500 
L 4050 0 
L 3372 0 
L 2619 2869 
L 1863 0 
L 1184 0 
L 269 3500 
z
" transform="scale(0.015625)"/>
       <path id="DejaVuSans-61" d="M 2194 1759 
Q 1497 1759 1228 1600 
Q 959 1441 959 1056 
Q 959 750 1161 570 
Q 1363 391 1709 391 
Q 2188 391 2477 730 
Q 2766 1069 2766 1631 
L 2766 1759 
L 2194 1759 
z
M 3341 1997 
L 3341 0 
L 2766 0 
L 2766 531 
Q 2569 213 2275 61 
Q 1981 -91 1556 -91 
Q 1019 -91 701 211 
Q 384 513 384 1019 
Q 384 1609 779 1909 
Q 1175 2209 1959 2209 
L 2766 2209 
L 2766 2266 
Q 2766 2663 2505 2880 
Q 2244 3097 1772 3097 
Q 1472 3097 1187 3025 
Q 903 2953 641 2809 
L 641 3341 
Q 956 3463 1253 3523 
Q 1550 3584 1831 3584 
Q 2591 3584 2966 3190 
Q 3341 2797 3341 1997 
z
" transform="scale(0.015625)"/>
       <path id="DejaVuSans-64" d="M 2906 2969 
L 2906 4863 
L 3481 4863 
L 3481 0 
L 2906 0 
L 2906 525 
Q 2725 213 2448 61 
Q 2172 -91 1784 -91 
Q 1150 -91 751 415 
Q 353 922 353 1747 
Q 353 2572 751 3078 
Q 1150 3584 1784 3584 
Q 2172 3584 2448 3432 
Q 2725 3281 2906 2969 
z
M 947 1747 
Q 947 1113 1208 752 
Q 1469 391 1925 391 
Q 2381 391 2643 752 
Q 2906 1113 2906 1747 
Q 2906 2381 2643 2742 
Q 2381 3103 1925 3103 
Q 1469 3103 1208 2742 
Q 947 2381 947 1747 
z
" transform="scale(0.015625)"/>
      </defs>
      <use xlink:href="#DejaVuSans-72"/>
      <use xlink:href="#DejaVuSans-65" x="38.863281"/>
      <use xlink:href="#DejaVuSans-77" x="100.386719"/>
      <use xlink:href="#DejaVuSans-61" x="182.173828"/>
      <use xlink:href="#DejaVuSans-72" x="243.453125"/>
      <use xlink:href="#DejaVuSans-64" x="282.816406"/>
      <use xlink:href="#DejaVuSans-73" x="346.292969"/>
     </g>
    </g>
   </g>
   <g id="line2d_12">
    <path d="M 73.832727 290.097208 
L 73.910896 287.841514 
L 73.989065 288.564482 
L 74.067234 289.433314 
L 74.230085 286.887192 
L 74.314768 287.81273 
L 74.405965 287.507153 
L 74.51019 287.630938 
L 74.725154 282.313553 
L 74.835893 276.433769 
L 74.959661 279.471298 
L 75.044344 293.477603 
L 75.343991 281.198436 
L 75.500328 284.546266 
L 75.656666 273.448927 
L 75.910714 294.843493 
L 75.995397 291.038523 
L 76.093108 286.311708 
L 76.164763 292.538373 
L 76.444868 275.180593 
L 76.523037 288.24196 
L 76.64029 277.397034 
L 76.907367 294.271617 
L 77.070218 266.629556 
L 77.148387 291.989147 
L 77.369865 274.485925 
L 77.500147 287.984287 
L 77.786765 274.255464 
L 77.838878 291.873098 
L 77.988702 280.613314 
L 78.132011 279.645038 
L 78.281834 270.625208 
L 78.509827 241.233064 
L 78.750847 288.472474 
L 78.83553 286.669855 
L 78.926727 288.715472 
L 79.037466 275.0794 
L 79.356655 288.430478 
L 79.421796 289.152134 
L 79.669331 254.941422 
L 79.84521 274.875191 
L 80.014576 278.423321 
L 80.327251 272.244799 
L 80.555244 284.739914 
L 80.711581 280.27131 
L 80.874433 271.439757 
L 80.959116 288.372547 
L 81.20665 279.447206 
L 81.330417 284.608965 
L 81.682177 264.088481 
L 81.910169 241.501715 
L 82.15119 288.752237 
L 82.346612 266.393547 
L 82.470379 288.995707 
L 82.626717 269.078592 
L 82.80911 272.078766 
L 83.278123 290.919673 
L 83.414919 285.304749 
L 83.486573 287.442234 
L 83.584284 284.261115 
L 83.75365 264.278276 
L 83.857875 282.607369 
L 83.9621 281.967005 
L 84.216149 241.339715 
L 84.372486 278.508808 
L 84.639563 245.696403 
L 84.769844 284.714536 
L 85.023893 247.680676 
L 85.310512 285.712967 
L 85.636215 274.85876 
L 85.70787 290.342472 
L 85.812095 289.184741 
L 86.561213 111.293978 
L 86.68498 276.939283 
L 86.834803 277.393156 
L 86.926 282.695543 
L 87.323358 198.14545 
L 87.48621 291.77551 
L 87.570893 289.177961 
L 87.668604 292.430674 
L 87.740259 288.919877 
L 87.935681 252.98709 
L 88.013849 287.030565 
L 88.28744 241.335982 
L 88.359095 291.960803 
L 88.437264 286.092492 
L 88.554517 289.431416 
L 88.697826 276.66777 
L 88.795537 286.430554 
L 88.906276 285.267495 
L 89.010502 278.744794 
L 89.714021 98.886984 
L 89.779161 292.215295 
L 90.03321 279.414983 
L 90.300287 291.468451 
L 90.528279 250.829572 
L 90.80187 292.547862 
L 90.971235 282.44446 
L 91.062432 287.355445 
L 91.225284 273.993637 
L 91.355565 276.568064 
L 91.524931 290.295407 
L 91.739895 283.67417 
L 91.915775 289.318086 
L 92.254506 249.926305 
L 92.339189 286.418029 
L 92.547639 258.267175 
L 92.769118 282.434512 
L 92.99711 253.295356 
L 93.153448 288.885621 
L 93.231616 287.692035 
L 93.329327 291.780569 
L 93.41401 285.177384 
L 93.76577 248.435171 
L 93.830911 290.714388 
L 94.071931 272.948401 
L 94.143586 286.509658 
L 94.267353 284.295579 
L 94.332494 288.751066 
L 94.684253 273.568627 
L 94.899217 291.223291 
L 95.19235 271.061521 
L 95.75256 138.935427 
L 95.882841 289.391598 
L 96.13689 234.215516 
L 96.247629 284.516312 
L 96.48865 269.83124 
L 96.664529 285.332686 
L 96.840409 283.193824 
L 96.957662 289.295014 
L 97.087944 273.312156 
L 97.420161 286.005337 
L 97.700266 273.951348 
L 97.765406 287.729897 
L 98.084596 271.24646 
L 98.208363 279.720853 
L 98.377729 282.655226 
L 98.690404 266.12153 
L 98.827199 290.514871 
L 98.931424 287.357431 
L 99.354839 170.353352 
L 99.446036 283.041653 
L 99.700084 289.04764 
L 99.960647 265.357532 
L 100.175611 289.242218 
L 100.273322 286.700345 
L 100.397089 272.01041 
L 100.481772 287.726733 
L 100.572969 285.093118 
L 100.853074 251.263925 
L 100.957299 284.966096 
L 101.204833 236.377052 
L 101.283002 288.271016 
L 101.374199 283.539473 
L 101.432826 292.508508 
L 101.543565 277.59378 
L 101.732473 291.181491 
L 101.921381 280.651248 
L 102.214514 214.355908 
L 102.312225 288.731816 
L 102.422964 280.662444 
L 102.65747 287.760159 
L 102.944089 216.068993 
L 103.093913 290.184352 
L 103.211166 277.004876 
L 103.302363 284.711469 
L 103.445672 282.952441 
L 103.536869 283.370139 
L 103.712749 261.049739 
L 103.836516 288.134219 
L 103.966798 278.627193 
L 104.057994 284.68732 
L 104.37067 274.223741 
L 104.455352 284.962193 
L 104.57912 281.475253 
L 104.768028 265.868271 
L 104.833168 288.81555 
L 105.386864 185.867319 
L 105.458519 289.956547 
L 105.738624 283.488384 
L 105.816792 289.633334 
L 105.927531 282.089065 
L 106.038271 284.878459 
L 106.135982 284.787763 
L 106.246721 280.284608 
L 106.416086 288.44675 
L 106.526826 284.638611 
L 106.644079 284.791392 
L 106.735276 288.086257 
L 106.839501 285.121106 
L 107.471365 117.605476 
L 107.57559 293.165892 
L 107.764498 287.1638 
L 107.855695 288.458821 
L 108.051117 281.921637 
L 108.174884 272.163838 
L 108.259567 287.61107 
L 108.461503 267.123619 
L 108.578756 277.762617 
L 108.754636 280.358678 
L 108.878403 275.210247 
L 108.989143 281.564683 
L 109.269247 226.165339 
L 109.484212 281.994118 
L 109.601465 278.563068 
L 109.686148 285.432157 
L 109.809915 282.368473 
L 110.070478 286.971976 
L 110.291956 253.45143 
L 110.500406 286.365103 
L 110.565547 288.643432 
L 110.643715 285.898243 
L 110.780511 270.634102 
L 110.845651 290.023272 
L 110.956391 280.345817 
L 111.216953 292.734692 
L 111.30815 288.558507 
L 111.562199 258.756941 
L 111.685966 281.90241 
L 111.822761 282.855228 
L 112.04424 283.177235 
L 112.239662 253.640836 
L 112.454626 287.285891 
L 112.721703 279.821566 
L 112.84547 285.406866 
L 113.001807 285.818762 
L 113.093004 287.852418 
L 113.535961 159.77812 
L 113.809552 292.393349 
L 113.952861 287.574185 
L 114.076628 283.215163 
L 114.232966 265.163829 
L 114.408846 288.647018 
L 114.636838 275.239123 
L 114.806204 276.370679 
L 114.890887 288.742588 
L 115.24916 264.285144 
L 115.307787 291.152096 
L 115.372927 289.927058 
L 115.763771 209.646978 
L 116.063418 289.013801 
L 116.350037 232.650285 
L 116.512889 294.176637 
L 116.714825 279.133696 
L 116.838592 280.040477 
L 116.96236 290.161362 
L 117.294577 267.803971 
L 117.496513 278.094049 
L 117.874329 266.922423 
L 118.056723 286.557343 
L 118.154434 286.632391 
L 118.226088 290.700867 
L 118.369398 285.081489 
L 118.558306 287.71996 
L 118.7407 286.275729 
L 118.831897 286.614666 
L 118.903551 289.99922 
L 119.098973 250.054249 
L 119.177142 289.042811 
L 119.268339 282.814428 
L 119.450733 289.354209 
L 119.535416 285.031243 
L 119.659183 287.84619 
L 119.730838 287.783831 
L 120.10214 229.319951 
L 120.330132 246.231221 
L 120.479955 289.827829 
L 120.55161 288.184285 
L 120.786116 280.987338 
L 120.909884 289.511522 
L 121.150904 284.164739 
L 121.378896 287.093687 
L 121.593861 251.07894 
L 121.672029 286.591428 
L 122.023789 235.283205 
L 122.141042 290.627112 
L 122.245267 284.344017 
L 122.342978 288.278383 
L 122.668682 255.160489 
L 122.759879 288.756102 
L 122.994385 286.734227 
L 123.053011 293.027288 
L 123.320088 271.371377 
L 123.404771 285.610016 
L 123.626249 272.41948 
L 123.750017 274.889118 
L 123.86727 285.227905 
L 124.069206 276.036795 
L 124.225543 277.20555 
L 124.310226 284.541195 
L 124.740155 184.582921 
L 124.857408 281.117519 
L 125.000717 270.080151 
L 125.222196 288.274469 
L 125.639096 198.657874 
L 125.82149 291.02574 
L 125.938743 273.829454 
L 126.218848 254.625587 
L 126.310045 288.380123 
L 126.407756 287.848043 
L 126.498953 283.562099 
L 126.616206 288.249678 
L 126.7986 277.365632 
L 126.896311 284.600784 
L 127.013564 284.228727 
L 127.195958 288.791127 
L 127.267612 287.18185 
L 127.378351 278.580616 
L 127.560745 286.232227 
L 127.847364 254.853284 
L 127.912505 290.226434 
L 127.990674 289.602065 
L 128.19261 266.634949 
L 128.479229 250.038289 
L 128.557397 286.12183 
L 128.720249 293.449925 
L 128.804932 284.619023 
L 129.137149 186.768097 
L 129.221832 283.393382 
L 129.488909 271.331092 
L 129.677817 290.644111 
L 129.775528 281.226302 
L 129.866725 289.414406 
L 130.03609 288.891051 
L 130.14683 289.525561 
L 130.231512 286.892218 
L 130.426934 263.448235 
L 130.5963 291.137065 
L 130.843835 239.74221 
L 131.019714 291.336633 
L 131.12394 278.27238 
L 131.241193 291.119228 
L 131.404044 281.54205 
L 131.638551 284.720829 
L 131.905627 277.706389 
L 131.99031 286.684743 
L 132.101049 284.476859 
L 132.205275 285.450222 
L 132.400696 291.040507 
L 132.602633 261.696684 
L 132.765484 271.412466 
L 132.986962 262.206532 
L 133.221469 285.620751 
L 133.364778 269.380877 
L 133.462489 288.347826 
L 133.70351 277.830862 
L 133.924988 250.495712 
L 134.126924 265.137362 
L 134.205093 288.682269 
L 134.32886 279.596269 
L 134.465655 278.25156 
L 134.693648 241.619148 
L 134.758788 288.219676 
L 134.876042 286.496815 
L 135.227801 271.083562 
L 135.351568 288.521526 
L 135.527448 263.802613 
L 135.592589 288.514752 
L 136.094172 163.520433 
L 136.178855 284.245622 
L 136.28308 278.483591 
L 136.361249 289.845129 
L 136.550157 268.717733 
L 136.660896 285.922484 
L 136.778149 286.379664 
L 136.84329 291.218966 
L 136.914944 288.699253 
L 136.993113 285.373193 
L 137.149451 287.393046 
L 137.286246 276.141753 
L 137.50121 282.466276 
L 137.70966 288.394084 
L 137.807371 281.011842 
L 137.865998 292.32732 
L 138.2373 257.930842 
L 138.335011 286.019835 
L 138.458778 287.948026 
L 138.569517 286.312318 
L 138.660714 286.686141 
L 138.79751 278.366071 
L 138.921277 279.477278 
L 139.110185 269.665845 
L 139.207896 290.794282 
L 139.344691 280.706598 
L 139.553141 292.130809 
L 139.885359 283.153985 
L 140.061238 290.248037 
L 140.158949 289.620188 
L 140.530251 244.587033 
L 140.725673 259.383963 
L 140.927609 288.919942 
L 141.103489 272.266665 
L 141.266341 290.284597 
L 141.351023 282.54678 
L 141.526903 277.251713 
L 141.767924 264.788936 
L 141.878663 290.998922 
L 142.119683 276.792157 
L 142.236936 282.388909 
L 142.393274 263.024628 
L 142.458415 291.213345 
L 142.556126 285.404164 
L 142.836231 231.706896 
L 142.959998 286.850896 
L 143.116335 271.227786 
L 143.383412 290.032644 
L 143.735172 286.746691 
L 144.080417 250.162485 
L 144.314924 292.131827 
L 144.471261 263.576641 
L 144.75788 258.331557 
L 144.809993 291.320609 
L 144.881647 288.13044 
L 144.985872 286.475834 
L 145.057527 290.867838 
L 145.155238 283.071883 
L 145.344146 288.58041 
L 145.448371 288.394539 
L 145.520026 287.57928 
L 145.598195 289.131048 
L 145.793617 290.396723 
L 146.138862 244.50603 
L 146.399425 286.914513 
L 146.484108 284.916971 
L 146.725128 279.057016 
L 146.809811 288.055204 
L 147.161571 262.989244 
L 147.27231 289.057683 
L 147.441675 287.91762 
L 147.923716 205.167453 
L 148.014913 289.254328 
L 148.242906 244.240864 
L 148.353645 284.2256 
L 148.52301 271.907969 
L 148.620721 282.538754 
L 149.109276 200.144274 
L 149.187445 287.943952 
L 149.278642 284.950722 
L 149.50012 286.990769 
L 149.669486 277.744812 
L 149.786739 279.843544 
L 149.988675 286.255876 
L 150.118957 275.237563 
L 150.275294 288.096448 
L 150.496772 243.834795 
L 150.568427 289.318229 
L 150.718251 286.782351 
L 150.848532 277.070832 
L 150.965785 277.166252 
L 151.043954 291.047092 
L 151.441312 234.799419 
L 151.552051 284.763958 
L 151.773529 279.404559 
L 151.942895 289.930345 
L 152.066662 282.211104 
L 152.405394 287.912785 
L 152.561731 288.483978 
L 152.665956 280.553145 
L 152.770182 288.588445 
L 152.906977 272.189877 
L 153.017716 286.20805 
L 153.134969 282.775668 
L 153.219652 286.207491 
L 153.480215 278.875708 
L 153.538841 291.529739 
L 153.656095 280.645676 
L 153.82546 275.489723 
L 153.975284 284.671712 
L 154.079509 282.025241 
L 154.170706 282.922452 
L 154.3531 281.099312 
L 154.483381 271.70946 
L 154.659261 273.225314 
L 154.854683 288.310252 
L 154.971936 278.133703 
L 155.089189 291.98362 
L 155.21947 287.571092 
L 155.304153 288.257948 
L 155.694997 160.234255 
L 155.949046 284.527127 
L 156.19658 263.739098 
L 156.359432 288.003499 
L 156.51577 278.90065 
L 156.613481 283.918464 
L 156.730734 277.092122 
L 156.887071 290.166638 
L 157.017353 277.349754 
L 157.14112 278.118947 
L 157.245345 288.834609 
L 157.362598 287.732822 
L 157.473337 278.543155 
L 157.564534 281.935502 
L 157.740414 259.652196 
L 157.883723 283.342854 
L 158.040061 278.728317 
L 158.137772 289.586555 
L 158.300624 265.080581 
L 158.372278 288.456917 
L 158.53513 273.00005 
L 158.606785 290.722067 
L 158.724038 279.91554 
L 158.847805 282.046669 
L 158.91946 291.287199 
L 159.036713 289.517391 
L 159.212593 269.876832 
L 159.531782 290.11543 
L 159.662064 280.900725 
L 159.870514 274.389145 
L 159.974739 281.495973 
L 160.274386 244.865625 
L 160.398153 279.63235 
L 160.567519 275.504707 
L 160.639173 289.330371 
L 160.834595 261.345834 
L 161.056074 286.409441 
L 161.244982 287.264352 
L 161.414347 271.911332 
L 161.531601 276.372084 
L 161.622797 288.401257 
L 161.928959 247.559484 
L 162.163465 251.07032 
L 162.417514 287.999601 
L 162.61945 264.084645 
L 162.795329 277.97121 
L 163.03635 279.02659 
L 163.179659 286.935616 
L 163.362053 272.206958 
L 163.518391 288.205866 
L 163.635644 292.533017 
L 163.707299 289.226678 
L 163.759411 293.041497 
L 164.176311 273.475921 
L 164.332649 288.853149 
L 164.502015 286.56834 
L 164.67138 289.025807 
L 164.860288 284.904944 
L 164.964513 289.896373 
L 165.172964 272.881945 
L 165.283703 285.165426 
L 165.40747 279.542975 
L 165.544265 283.849819 
L 165.64849 283.040084 
L 165.765744 285.786783 
L 165.928595 269.385966 
L 166.00025 286.761725 
L 166.156588 286.581968 
L 166.221728 288.893592 
L 166.338981 285.261121 
L 166.443206 290.674775 
L 166.547432 279.780266 
L 166.651657 291.650922 
L 166.80148 281.038416 
L 166.879649 286.535936 
L 167.035986 283.257882 
L 167.179296 272.216733 
L 167.452887 226.5245 
L 167.544084 286.475653 
L 167.674365 273.022586 
L 167.843731 289.235483 
L 167.993554 282.455135 
L 168.091265 286.707156 
L 168.228061 284.132444 
L 168.390912 286.64966 
L 168.508165 291.974387 
L 168.749186 275.075739 
L 168.872953 285.743791 
L 169.127002 270.177225 
L 169.485275 204.969266 
L 169.569958 285.206179 
L 169.947774 187.96108 
L 170.195309 292.850229 
L 170.436329 255.348929 
L 170.77506 270.255954 
L 170.853229 287.628173 
L 171.100764 259.105704 
L 171.328756 287.405203 
L 171.667488 202.986628 
L 171.732628 289.256008 
L 171.888966 284.443032 
L 171.980163 284.792251 
L 172.182099 281.510643 
L 172.351465 266.290011 
L 172.423119 286.071164 
L 172.612027 271.117267 
L 172.87259 293.963978 
L 173.654278 183.743071 
L 173.751989 284.807665 
L 173.875756 282.159356 
L 174.006037 290.16965 
L 174.286142 276.378032 
L 174.50762 272.153702 
L 174.605331 290.017565 
L 174.6835 285.385832 
L 174.833324 270.882089 
L 175.041774 266.259057 
L 175.237196 285.645499 
L 175.354449 277.342306 
L 175.439132 289.079164 
L 175.517301 286.672432 
L 175.575927 290.449676 
L 175.771349 252.105704 
L 175.953743 265.457563 
L 176.018884 291.73536 
L 176.084024 289.893507 
L 176.285961 267.30371 
L 176.46184 287.919641 
L 176.644234 264.06992 
L 176.839656 290.003402 
L 177.074163 270.783439 
L 177.165359 281.89098 
L 177.37381 268.569099 
L 177.491063 284.84577 
L 177.608316 277.184321 
L 177.862365 291.855026 
L 178.44863 53.568 
L 178.650567 285.888598 
L 178.819932 263.842725 
L 179.132607 207.832092 
L 179.53648 195.889607 
L 179.705845 292.595701 
L 179.894753 280.425436 
L 179.959894 291.464616 
L 180.031549 287.853612 
L 180.116231 290.152256 
L 180.435421 260.352341 
L 180.494047 291.661268 
L 180.591758 280.995088 
L 180.669927 287.518488 
L 180.865349 266.596898 
L 180.96306 278.964487 
L 181.288763 257.441506 
L 181.37996 288.383081 
L 181.458129 285.728553 
L 181.549326 288.98001 
L 181.634009 284.589143 
L 181.712178 286.057256 
L 181.796861 290.07692 
L 182.024853 274.255709 
L 182.331014 286.404383 
L 182.441753 282.976491 
L 182.585063 290.009009 
L 182.7414 288.967926 
L 182.826083 286.258663 
L 183.073617 243.824805 
L 183.386293 227.578588 
L 183.536116 290.942066 
L 183.653369 280.398199 
L 183.764109 286.740912 
L 183.920446 275.779691 
L 184.037699 276.363466 
L 184.526254 287.789786 
L 184.630479 285.015751 
L 184.812873 258.860646 
L 184.975725 272.764364 
L 185.119034 270.453507 
L 185.171147 291.751301 
L 185.327484 286.352546 
L 185.457766 274.075121 
L 185.52942 290.184326 
L 185.594561 287.920832 
L 185.770441 290.125536 
L 186.024489 262.460711 
L 186.167799 291.150601 
L 186.252482 288.268823 
L 186.317622 292.920532 
L 186.68241 263.147411 
L 186.936459 284.802876 
L 187.359873 189.50663 
L 187.672548 291.090109 
L 187.796315 275.61526 
L 187.952653 293.44227 
L 188.382581 178.435754 
L 188.662686 250.082386 
L 188.884165 276.966976 
L 189.047016 275.601794 
L 189.190326 270.77149 
L 189.248952 290.948051 
L 189.398776 264.959719 
L 189.476945 287.886495 
L 189.574656 287.105782 
L 189.763563 283.608627 
L 189.900359 274.73804 
L 189.978528 288.739459 
L 190.115323 272.314066 
L 190.252118 274.11894 
L 190.3824 293.762428 
L 190.519195 287.865403 
L 190.59085 288.571702 
L 190.870955 258.445507 
L 190.994722 285.834538 
L 191.138031 273.915338 
L 191.209686 289.415703 
L 191.300883 286.01854 
L 191.431164 276.711631 
L 191.489791 290.97905 
L 191.561446 289.692556 
L 191.841551 250.009188 
L 191.919719 287.509288 
L 192.004402 285.201729 
L 192.121655 284.435022 
L 192.19331 288.541957 
L 192.460387 268.497667 
L 192.825175 291.346711 
L 193.222533 280.042459 
L 193.352814 284.801407 
L 193.509152 276.348753 
L 193.593834 284.495194 
L 193.737144 276.978097 
L 193.802285 288.474077 
L 193.926052 276.263105 
L 194.362494 169.447963 
L 194.453691 283.405002 
L 194.681683 258.019934 
L 194.766366 285.658836 
L 194.94876 266.439454 
L 195.026929 288.168373 
L 195.131154 281.559482 
L 195.352632 286.467888 
L 195.50897 278.152449 
L 195.587139 291.671671 
L 195.678336 287.491921 
L 195.886786 261.674116 
L 195.991011 288.851961 
L 196.108264 279.883034 
L 196.199461 287.599621 
L 196.414425 282.637166 
L 196.635903 288.782816 
L 196.863896 286.854625 
L 197.241711 262.874044 
L 197.365479 284.880186 
L 197.49576 281.015349 
L 197.593471 281.878676 
L 197.717238 275.849894 
L 197.788893 287.072672 
L 197.88009 284.142828 
L 198.160195 235.673183 
L 198.251392 284.919545 
L 198.388187 278.393231 
L 198.564067 279.372703 
L 198.687834 290.861138 
L 198.772517 285.626058 
L 198.844172 287.523751 
L 199.072164 253.172061 
L 199.332727 259.301517 
L 199.404381 288.68475 
L 199.495578 285.157185 
L 199.593289 286.716795 
L 199.886422 269.554153 
L 200.28378 185.668167 
L 200.388005 287.639682 
L 200.531315 276.253869 
L 200.615998 291.196659 
L 200.700681 288.287796 
L 200.759307 291.082982 
L 201.078496 265.441666 
L 201.156665 287.270296 
L 201.26089 278.066968 
L 201.443284 277.651579 
L 201.560537 289.431143 
L 201.638706 286.795217 
L 201.742931 280.992236 
L 201.827614 287.658774 
L 201.983952 266.472411 
L 202.042578 292.862733 
L 202.20543 276.307263 
L 202.407366 289.225663 
L 202.537647 278.729523 
L 202.648386 289.256654 
L 202.79821 276.560521 
L 202.869865 289.031552 
L 203.156484 265.730536 
L 203.586412 182.86654 
L 203.74275 288.408947 
L 203.860003 283.226964 
L 203.970742 283.778352 
L 204.107537 288.081626 
L 204.635177 266.611049 
L 204.876197 287.913882 
L 204.967394 289.322904 
L 205.052077 284.640862 
L 205.143274 285.768072 
L 205.254013 279.195665 
L 205.37778 291.406045 
L 205.76211 270.066683 
L 205.918448 277.833823 
L 206.074785 277.992357 
L 206.263693 275.421117 
L 206.420031 287.746008 
L 206.550312 285.733529 
L 206.628481 288.53501 
L 206.843445 279.238864 
L 206.928128 287.734045 
L 207.045381 284.920689 
L 207.12355 288.212105 
L 207.273373 267.848537 
L 207.501366 265.602554 
L 207.657703 292.746295 
L 207.976893 246.540552 
L 208.055061 289.462401 
L 208.204885 280.940343 
L 208.27654 289.542762 
L 208.491504 281.160702 
L 208.563159 290.277175 
L 208.641327 288.470555 
L 208.778123 288.221797 
L 209.038685 251.118192 
L 209.214565 287.645544 
L 209.403473 260.81752 
L 209.468614 288.377746 
L 209.677064 281.797895 
L 209.807345 287.930264 
L 209.957169 282.068637 
L 210.074422 285.774051 
L 210.2959 274.760637 
L 210.576005 244.754744 
L 210.699772 281.336959 
L 210.875652 277.049734 
L 210.973363 285.474491 
L 211.136215 282.195406 
L 211.207869 287.559141 
L 211.487974 282.931351 
L 211.794135 262.935768 
L 211.963501 290.030996 
L 212.07424 283.731779 
L 212.230578 288.661235 
L 212.341317 280.036679 
L 212.426 289.302775 
L 212.523711 286.910543 
L 212.680048 279.773265 
L 212.855928 287.642448 
L 213.070892 258.737822 
L 213.149061 288.991546 
L 213.220716 287.20365 
L 213.298885 287.309109 
L 213.377053 287.839731 
L 213.618074 258.036801 
L 213.702757 289.501643 
L 213.793954 283.282912 
L 213.989376 290.445637 
L 214.093601 287.943967 
L 214.289023 237.380086 
L 214.425818 285.415631 
L 214.530043 281.072042 
L 214.65381 291.627271 
L 214.712437 290.462029 
L 214.803634 282.942942 
L 214.888317 285.141065 
L 215.044654 278.003244 
L 215.207506 288.560757 
L 215.415956 285.188376 
L 215.59835 286.407317 
L 215.754688 286.437379 
L 215.917539 273.190318 
L 216.217186 291.194321 
L 216.308383 285.976751 
L 216.490777 261.990126 
L 216.718769 285.099026 
L 216.862079 285.693304 
L 217.018416 257.41618 
L 217.292007 286.910294 
L 217.513485 288.362446 
L 217.747992 278.781063 
L 217.852217 286.812904 
L 217.930386 285.220198 
L 218.360314 156.791612 
L 218.503624 284.133324 
L 218.620877 285.322563 
L 218.718588 282.142201 
L 218.881439 281.445588 
L 218.966122 288.36201 
L 219.096404 282.479649 
L 219.187601 287.431153 
L 219.350452 273.968342 
L 219.689184 287.233984 
L 220.027915 250.694626 
L 220.112598 287.089387 
L 220.262421 269.818674 
L 220.640237 180.535868 
L 220.72492 288.336348 
L 220.822631 283.668977 
L 220.972455 277.049233 
L 221.089708 280.361687 
L 221.161363 291.065761 
L 221.272102 281.319084 
L 221.571749 229.279598 
L 221.636889 289.440719 
L 221.747629 283.339038 
L 222.021219 250.630526 
L 222.26224 257.647893 
L 222.444634 290.908382 
L 222.659598 282.081933 
L 222.815935 290.073458 
L 222.991815 274.19063 
L 223.180723 284.187284 
L 223.558539 218.716157 
L 223.68882 275.445292 
L 223.877728 272.576913 
L 223.955897 285.457919 
L 224.047094 284.499389 
L 224.190403 270.726752 
L 224.268572 286.482813 
L 224.60079 268.698244 
L 224.822268 289.474731 
L 224.913465 281.990473 
L 225.004662 284.57058 
L 225.219626 244.159 
L 225.428076 284.014569 
L 225.512759 288.365052 
L 225.64304 283.341895 
L 225.734237 287.566217 
L 225.838462 284.034515 
L 225.962229 290.586491 
L 226.157651 279.402682 
L 226.23582 286.111712 
L 226.65272 180.104544 
L 226.76346 284.78068 
L 226.893741 278.898959 
L 226.97191 286.442147 
L 227.076135 285.661339 
L 227.18036 279.436926 
L 227.310641 282.266897 
L 227.382296 292.500934 
L 227.675429 261.941084 
L 227.760112 285.255409 
L 227.903421 278.09908 
L 228.027188 285.535136 
L 228.183526 279.218008 
L 228.287751 288.135144 
L 228.444089 272.259857 
L 228.639511 283.917237 
L 228.756764 280.923049 
L 228.81539 293.33895 
L 229.02384 279.227948 
L 229.13458 281.262064 
L 229.19972 291.508002 
L 229.323488 276.056825 
L 229.421199 285.286878 
L 229.75993 193.68745 
L 229.870669 289.174209 
L 229.942324 287.176081 
L 230.007464 289.803996 
L 230.313626 261.78346 
L 230.515562 290.677854 
L 230.76961 284.05231 
L 230.841265 287.086692 
L 230.952004 278.611666 
L 231.147426 289.209783 
L 231.32982 262.444104 
L 231.421017 286.006802 
L 231.57084 272.313303 
L 231.798833 289.652939 
L 231.916086 284.192623 
L 232.124536 286.77406 
L 232.228761 285.858488 
L 232.300416 290.247789 
L 232.48281 280.556211 
L 232.743372 258.817155 
L 232.847597 291.994387 
L 233.121188 280.015883 
L 233.31661 268.658021 
L 233.414321 286.052546 
L 233.590201 264.666735 
L 233.720482 285.94872 
L 233.857278 284.088855 
L 234.059214 258.571363 
L 234.274178 287.438396 
L 234.730162 136.612416 
L 234.899528 271.694519 
L 235.049352 285.358973 
L 235.153577 283.896434 
L 235.23826 284.291267 
L 235.362027 277.600503 
L 235.427168 289.376512 
L 235.505336 286.77409 
L 235.629104 292.176689 
L 235.837554 281.117374 
L 235.909208 288.776951 
L 236.124173 291.847882 
L 236.345651 259.189617 
L 236.469418 287.792922 
L 236.684382 285.974369 
L 236.782093 289.389231 
L 236.944945 260.501093 
L 237.094769 267.127751 
L 237.277162 291.274621 
L 237.459556 283.811613 
L 237.687549 240.141796 
L 237.791774 287.605311 
L 237.922055 289.350753 
L 238.130505 278.719322 
L 238.2673 288.137313 
L 238.417124 283.298598 
L 238.501807 285.424692 
L 238.566947 291.775145 
L 238.677687 278.658404 
L 238.775398 281.023799 
L 238.957791 288.575175 
L 239.146699 259.921943 
L 239.498459 224.064716 
L 239.570114 287.162343 
L 239.654797 286.626397 
L 239.745993 285.085475 
L 239.83719 286.27855 
L 240.058669 265.445101 
L 240.390886 285.032161 
L 240.495111 288.681771 
L 240.592822 282.907323 
L 240.788244 256.409656 
L 240.951096 289.767361 
L 241.205144 251.959613 
L 241.413594 288.025433 
L 241.491763 289.782798 
L 241.648101 282.372431 
L 241.719756 287.842605 
L 241.797924 286.918389 
L 242.038945 239.230728 
L 242.136656 285.815014 
L 242.273451 270.858069 
L 242.35162 289.50116 
L 242.507958 271.955579 
L 242.677323 291.145355 
L 242.853203 273.632714 
L 242.97697 280.896681 
L 243.126794 269.895441 
L 243.237533 276.05441 
L 243.322216 292.557145 
L 243.556722 281.611553 
L 243.641405 288.295132 
L 243.719574 287.637971 
L 244.058305 190.558868 
L 244.214643 266.696236 
L 244.455663 273.346634 
L 244.533832 288.986207 
L 244.781367 248.318425 
L 244.866049 289.1579 
L 244.976789 279.615526 
L 245.067986 290.63691 
L 245.185239 287.404929 
L 245.550026 201.606675 
L 245.641223 284.914697 
L 245.869216 270.27848 
L 245.94087 288.761089 
L 246.058124 283.254132 
L 246.149321 287.864094 
L 246.240517 286.945712 
L 246.403369 270.092718 
L 246.53365 274.217733 
L 246.696502 295.488 
L 246.768157 290.250793 
L 246.904952 287.222788 
L 246.963579 289.044435 
L 247.074318 288.606546 
L 247.178543 282.081421 
L 247.256712 289.677503 
L 247.321852 288.811911 
L 247.400021 288.532635 
L 247.471676 291.516364 
L 247.738753 263.22372 
L 247.842978 288.72268 
L 247.953717 277.412358 
L 248.116569 281.994445 
L 248.194737 290.13514 
L 248.429244 275.930343 
L 248.637694 279.464256 
L 248.969911 234.279806 
L 249.204418 284.83105 
L 249.334699 287.673258 
L 249.549663 281.884689 
L 249.784169 286.62149 
L 249.88188 281.310856 
L 249.947021 288.557433 
L 250.135929 277.324548 
L 250.324837 290.564183 
L 250.657054 258.301216 
L 250.819906 288.745519 
L 251.047898 272.92803 
L 251.100011 293.548051 
L 251.184694 290.307771 
L 251.308461 275.707254 
L 251.38663 286.7567 
L 251.484341 283.619666 
L 251.56251 286.395804 
L 251.692791 283.526431 
L 251.881699 262.937466 
L 251.985924 286.27544 
L 252.161804 264.703856 
L 252.22043 290.101804 
L 252.357226 286.213287 
L 252.507049 292.977781 
L 252.98909 256.729171 
L 253.16497 289.114861 
L 253.256167 286.777494 
L 253.379934 288.229657 
L 253.438561 291.280557 
L 253.738208 237.925287 
L 253.972714 286.082603 
L 254.376586 179.407745 
L 254.878169 290.300877 
L 254.97588 283.310796 
L 255.054049 291.822054 
L 255.11919 290.265523 
L 255.203873 289.720954 
L 255.529576 228.168072 
L 255.705456 276.327999 
L 255.835737 272.142515 
L 256.018131 287.029417 
L 256.109328 282.057471 
L 256.194011 288.278423 
L 256.33732 266.548548 
L 256.435031 286.548964 
L 256.519714 283.396603 
L 256.617425 280.886142 
L 256.799819 287.669957 
L 256.975699 257.499648 
L 257.034325 290.92069 
L 257.145064 278.283874 
L 257.294888 274.308006 
L 257.503338 264.187155 
L 257.672704 292.19734 
L 257.842069 284.144067 
L 257.952808 283.706853 
L 258.017949 288.629597 
L 258.089604 287.259773 
L 258.14823 289.558878 
L 258.232913 287.166082 
L 258.317596 292.266948 
L 258.578159 271.72128 
L 258.695412 279.652899 
L 258.85175 274.784648 
L 258.903862 291.679228 
L 258.969003 289.817609 
L 259.086256 288.832392 
L 259.151397 289.364802 
L 259.23608 288.15942 
L 259.385903 277.199384 
L 259.600867 252.658568 
L 259.874458 292.356243 
L 260.258788 162.013849 
L 260.45421 252.28983 
L 261.112131 92.853324 
L 261.281496 282.295831 
L 261.405264 277.134159 
L 261.476918 286.967935 
L 261.561601 284.289749 
L 261.750509 268.662492 
L 261.906847 269.971399 
L 262.095755 290.870171 
L 262.180437 285.464524 
L 262.356317 257.917774 
L 262.447514 289.130917 
L 262.629908 274.343404 
L 262.714591 290.867674 
L 262.838358 276.621324 
L 263.111949 287.278374 
L 263.287829 276.139168 
L 263.437652 292.527223 
L 263.776384 263.823565 
L 263.939235 289.903702 
L 264.030432 286.357094 
L 264.245396 261.902668 
L 264.317051 287.88836 
L 264.401734 284.816465 
L 264.486417 287.155743 
L 264.623212 284.368623 
L 264.707895 285.054154 
L 264.766522 290.419367 
L 264.864233 285.355046 
L 264.942402 285.622346 
L 265.124795 278.662567 
L 265.281133 287.119842 
L 265.365816 285.035177 
L 265.443985 285.525625 
L 265.515639 292.491055 
L 265.587294 290.406269 
L 265.880427 209.036728 
L 265.952082 286.879085 
L 266.088877 275.917624 
L 266.245215 275.400074 
L 266.408066 287.753872 
L 266.97479 270.913473 
L 267.144156 275.47117 
L 267.215811 290.744158 
L 267.333064 280.736363 
L 267.39169 292.49052 
L 267.476373 288.424767 
L 267.736936 228.030594 
L 267.938872 287.020696 
L 267.990984 292.915084 
L 268.088695 282.069319 
L 268.186406 289.42982 
L 268.349258 286.476287 
L 268.466511 280.796518 
L 268.629363 289.146785 
L 268.733588 288.576726 
L 268.922496 281.969061 
L 269.020207 283.807749 
L 269.326368 206.86497 
L 269.391509 289.666467 
L 269.495734 285.195432 
L 269.645557 283.806241 
L 269.788867 267.231861 
L 269.867036 287.501966 
L 269.951718 286.673645 
L 270.095028 288.77348 
L 270.296964 253.578279 
L 270.433759 287.45466 
L 270.616153 281.619858 
L 270.687808 288.775599 
L 271.026539 200.716172 
L 271.202419 293.401766 
L 271.430411 277.338717 
L 271.515094 291.540939 
L 271.625833 281.748906 
L 271.756115 281.958628 
L 271.827769 289.134223 
L 271.918966 281.05063 
L 272.140445 283.422521 
L 272.342381 259.327613 
L 272.524775 277.322893 
L 272.739739 263.104532 
L 272.90259 289.826585 
L 273.039386 283.992635 
L 273.111041 292.81283 
L 273.182695 290.319262 
L 273.247836 290.396887 
L 273.391145 279.352338 
L 273.521427 280.317732 
L 273.729877 287.355909 
L 273.951355 279.83916 
L 274.016496 291.16045 
L 274.153291 273.038439 
L 274.237974 284.40287 
L 274.374769 274.216379 
L 274.465966 284.560529 
L 274.661388 283.468477 
L 274.746071 283.872298 
L 274.830754 289.044824 
L 274.987092 273.871051 
L 275.338851 287.654387 
L 275.645012 268.348769 
L 275.80135 292.635575 
L 275.912089 277.415549 
L 276.127053 286.234678 
L 276.276877 279.176227 
L 276.348531 288.861762 
L 276.472299 280.460129 
L 276.589552 281.211237 
L 276.765432 260.394728 
L 277.012966 288.565492 
L 277.097649 286.517145 
L 277.462437 263.861446 
L 277.61226 289.438069 
L 277.677401 292.669245 
L 277.911907 283.372852 
L 277.977048 292.764671 
L 278.1399 285.011512 
L 278.211554 290.336954 
L 278.328808 287.755409 
L 278.433033 281.453984 
L 278.498173 289.427141 
L 278.647997 277.766437 
L 278.758736 280.423487 
L 278.810848 292.28285 
L 279.14958 272.38154 
L 279.240777 289.225305 
L 279.331974 286.490235 
L 279.488311 275.847572 
L 279.690247 287.922659 
L 279.781444 285.802348 
L 279.879155 289.189479 
L 279.970352 283.45354 
L 280.028979 291.34986 
L 280.217887 267.235085 
L 280.36771 270.116898 
L 280.57616 288.04493 
L 280.699928 282.401463 
L 280.771582 289.857051 
L 281.13637 274.114369 
L 281.240595 283.652229 
L 281.631439 184.332709 
L 281.703094 290.940828 
L 281.839889 286.189042 
L 282.067882 253.528677 
L 282.263304 261.127948 
L 282.328444 288.784093 
L 282.432669 278.699838 
L 282.549922 286.08941 
L 282.725802 282.0147 
L 282.816999 282.050758 
L 282.888654 288.776071 
L 283.018935 275.878255 
L 283.129674 277.495989 
L 283.351153 244.114969 
L 283.520518 287.50274 
L 283.598687 286.706402 
L 283.722454 288.689549 
L 283.800623 287.997992 
L 283.92439 290.166564 
L 284.028615 286.158277 
L 284.106784 287.385747 
L 284.282664 259.895659 
L 284.354319 287.240938 
L 284.725621 237.207055 
L 284.9015 286.62263 
L 285.103436 281.07382 
L 285.298858 291.87789 
L 285.513823 242.313112 
L 285.657132 280.442136 
L 285.793927 270.095855 
L 285.898152 287.905941 
L 286.139173 281.264073 
L 286.380193 233.815988 
L 286.575615 287.296875 
L 286.731953 277.163284 
L 286.914347 280.509115 
L 287.0316 279.236192 
L 287.174909 266.298579 
L 287.246564 287.013056 
L 287.38336 272.441527 
L 287.468042 285.561217 
L 287.767689 263.236357 
L 287.937055 287.570529 
L 288.047794 283.671854 
L 288.191104 268.919762 
L 288.301843 284.125959 
L 288.406068 281.53159 
L 288.660117 263.503755 
L 288.783884 278.176852 
L 288.927193 267.657396 
L 289.109587 288.998833 
L 289.200784 287.149634 
L 289.461347 264.212524 
L 289.643741 288.888503 
L 289.884761 267.619644 
L 289.96293 287.89568 
L 290.190922 281.696665 
L 290.457999 251.424556 
L 290.633879 288.290102 
L 291.057293 270.706281 
L 291.285285 260.342232 
L 291.376482 291.52115 
L 291.467679 286.888359 
L 291.630531 278.280885 
L 291.760812 292.21109 
L 291.832467 288.32748 
L 292.464331 85.71666 
L 292.679295 284.161506 
L 292.737922 289.033138 
L 292.946372 262.578716 
L 293.278589 287.711138 
L 293.369786 281.878011 
L 293.604293 285.956688 
L 293.793201 260.497742 
L 293.910454 292.406266 
L 293.969081 291.608437 
L 294.223129 280.769704 
L 294.28827 290.238125 
L 294.399009 277.27845 
L 294.46415 292.126099 
L 294.52929 289.620716 
L 294.640029 286.256024 
L 294.770311 275.65103 
L 294.854994 284.764941 
L 294.965733 279.700446 
L 295.109042 286.68889 
L 295.512914 235.239522 
L 295.721364 286.817975 
L 295.832103 285.989301 
L 296.001469 280.394011 
L 296.190377 285.984433 
L 296.268546 286.12132 
L 296.353229 287.500893 
L 296.529109 277.616571 
L 296.685446 276.933929 
L 297.024178 291.531635 
L 297.121889 282.297037 
L 297.206571 286.377663 
L 297.349881 269.703467 
L 297.467134 279.886064 
L 297.610444 263.808138 
L 297.721183 277.509911 
L 297.864492 273.282843 
L 297.955689 284.498271 
L 298.131569 258.640438 
L 298.216252 286.449018 
L 298.340019 275.921934 
L 298.476814 275.666068 
L 298.607096 285.437405 
L 298.730863 280.679972 
L 298.802518 288.682893 
L 298.952341 273.372414 
L 299.043538 286.006396 
L 299.20639 266.130593 
L 299.395298 260.263777 
L 299.479981 285.983447 
L 299.747057 267.579024 
L 299.890367 267.491086 
L 300.072761 290.360821 
L 300.157443 286.632494 
L 300.242126 290.389904 
L 300.554801 270.890626 
L 300.619942 290.894619 
L 300.769766 264.136902 
L 300.867477 287.328614 
L 301.557968 177.618331 
L 301.772932 289.904279 
L 301.877157 286.226615 
L 301.981382 288.397622 
L 302.053037 286.607734 
L 302.13772 288.314982 
L 302.254973 286.040357 
L 302.326627 292.087711 
L 302.398282 289.040733 
L 302.489479 281.341574 
L 302.55462 287.861578 
L 302.691415 277.255218 
L 302.79564 281.773678 
L 302.951978 274.160208 
L 303.017118 290.838628 
L 303.17997 282.231131 
L 303.251625 285.611889 
L 303.368878 278.175241 
L 303.492645 288.152797 
L 303.642469 272.681312 
L 303.74018 283.033517 
L 303.935602 267.569633 
L 304.170108 287.19087 
L 304.287361 278.909235 
L 304.339474 291.581439 
L 304.587008 279.079569 
L 304.697748 288.479192 
L 304.78243 288.472632 
L 304.886655 287.357288 
L 305.029965 272.472848 
L 305.179788 273.318498 
L 305.264471 286.468493 
L 305.570632 264.808288 
L 305.713942 289.946078 
L 305.785597 289.179885 
L 305.876794 281.925047 
L 305.974505 291.485327 
L 306.241581 278.691476 
L 306.443517 257.000943 
L 306.554256 283.234398 
L 306.814819 267.047841 
L 306.873446 291.573313 
L 306.964643 282.570107 
L 307.049325 285.913348 
L 307.199149 276.765732 
L 307.375029 257.475633 
L 307.492282 284.908989 
L 307.609535 283.219587 
L 307.739816 292.275084 
L 307.941753 282.703708 
L 308.078548 272.821347 
L 308.202315 287.886878 
L 308.371681 267.69621 
L 308.593159 283.240889 
L 308.729955 273.820991 
L 308.905834 286.547397 
L 309.179425 278.182874 
L 309.479072 290.224552 
L 309.622382 274.307971 
L 309.81129 289.485515 
L 309.882944 288.393707 
L 309.948085 290.303012 
L 310.26076 278.92759 
L 310.345443 286.355024 
L 310.495266 280.213127 
L 310.67766 287.547633 
L 310.755829 287.595125 
L 310.918681 292.422528 
L 310.977307 290.656857 
L 311.276954 277.928247 
L 311.381179 290.770026 
L 311.609172 275.257641 
L 311.739453 281.855447 
L 311.843678 278.847014 
L 311.921847 292.8222 
L 312.000016 290.063858 
L 312.228008 243.618038 
L 312.299663 289.236654 
L 312.436458 283.626872 
L 312.534169 286.065654 
L 312.794732 260.515375 
L 312.996668 291.14889 
L 313.15952 274.75074 
L 313.231174 287.167337 
L 313.537335 290.044979 
L 313.78487 233.382386 
L 313.850011 289.745752 
L 313.973778 276.470447 
L 314.110573 288.215565 
L 314.214798 280.716922 
L 314.364622 290.390611 
L 314.481875 282.861444 
L 314.605642 285.080367 
L 314.872719 245.147172 
L 315.14631 288.56475 
L 315.35476 257.044309 
L 315.543668 285.367556 
L 315.73909 283.612621 
L 315.94754 265.905682 
L 316.006166 289.173235 
L 316.103877 281.847135 
L 316.162504 291.807188 
L 316.442609 279.460207 
L 316.50775 288.704813 
L 316.631517 288.855116 
L 316.755284 278.940472 
L 316.826939 292.771131 
L 316.918136 289.355262 
L 317.087501 272.934197 
L 317.250353 291.129205 
L 317.315494 289.776272 
L 317.419719 281.515735 
L 317.510916 283.232849 
L 317.680281 258.106008 
L 317.947358 287.237971 
L 318.11021 286.705912 
L 318.214435 293.485479 
L 318.344716 284.521579 
L 318.533624 290.951153 
L 318.624821 288.335185 
L 318.820243 251.54258 
L 318.983095 287.71122 
L 319.054749 289.945123 
L 319.11989 289.404531 
L 319.289256 272.369438 
L 319.347882 291.593645 
L 319.582389 282.477741 
L 319.686614 287.233524 
L 319.842951 269.242286 
L 319.992775 291.372976 
L 320.24031 262.040865 
L 320.474816 290.717937 
L 320.637668 287.854821 
L 320.68978 292.747833 
L 320.826575 283.028716 
L 320.982913 288.453815 
L 321.080624 287.057486 
L 321.165307 288.222773 
L 321.236962 286.608649 
L 321.334673 287.089808 
L 321.419355 284.464105 
L 321.660376 256.320469 
L 321.927453 289.710078 
L 322.070762 282.256864 
L 322.240128 287.605886 
L 322.370409 276.256421 
L 322.474634 285.148624 
L 322.565831 283.995699 
L 322.683084 287.578429 
L 322.806852 277.841902 
L 322.904563 284.756584 
L 323.047872 285.600591 
L 323.223752 269.405193 
L 323.327977 283.270258 
L 323.458258 282.185947 
L 323.58854 287.989777 
L 323.868644 275.76782 
L 324.024982 289.265781 
L 324.21389 254.399068 
L 324.383256 294.00389 
L 324.500509 276.603316 
L 324.604734 278.085663 
L 324.767586 292.498183 
L 325.197514 262.48229 
L 325.360366 288.602277 
L 325.451562 284.443691 
L 325.523217 289.88325 
L 325.81635 282.925756 
L 325.99223 286.499999 
L 326.129025 275.239596 
L 326.246279 284.413348 
L 326.370046 280.675601 
L 326.454729 285.140297 
L 326.55244 284.839413 
L 326.669693 272.734249 
L 326.786946 281.539122 
L 326.93677 275.854736 
L 327.093107 288.990076 
L 327.275501 266.522724 
L 327.334128 290.133855 
L 327.666345 259.430268 
L 327.738 288.614615 
L 327.809654 288.01442 
L 327.913879 288.128516 
L 327.965992 291.049197 
L 328.070217 278.535489 
L 328.148386 293.435493 
L 328.239583 283.833617 
L 328.33078 286.695783 
L 328.408949 286.669228 
L 328.53923 269.155928 
L 328.643455 281.320741 
L 328.786764 271.580264 
L 328.92356 293.537281 
L 329.001729 291.329842 
L 329.092925 281.345169 
L 329.288347 290.065423 
L 329.360002 288.280994 
L 329.412115 292.12905 
L 329.555424 279.240024 
L 329.646621 292.220598 
L 329.711762 290.038577 
L 329.776902 289.911385 
L 329.887642 288.110715 
L 329.96581 289.309337 
L 330.239401 263.673595 
L 330.630245 289.158292 
L 330.851723 258.214101 
L 331.15137 288.658387 
L 331.229539 287.226319 
L 331.372849 289.960346 
L 331.522672 264.402731 
L 331.581299 291.584408 
L 331.665982 288.62163 
L 331.789749 285.541836 
L 331.946086 285.447933 
L 332.011227 291.108354 
L 332.076368 287.713732 
L 332.141508 291.36356 
L 332.402071 274.977663 
L 332.467212 292.568231 
L 332.740803 266.746071 
L 332.962281 291.75786 
L 333.164217 273.139128 
L 333.463864 291.628673 
L 333.529005 290.888705 
L 333.730941 270.136516 
L 333.789567 290.202897 
L 333.913334 272.658125 
L 334.037102 291.461295 
L 334.29115 279.048779 
L 334.401889 280.639905 
L 334.486572 288.685738 
L 334.681994 240.790273 
L 334.747135 288.109683 
L 334.85136 277.610269 
L 334.942557 283.882371 
L 335.033754 283.448808 
L 335.20312 271.315522 
L 335.405056 268.250579 
L 335.567907 289.895078 
L 335.86104 273.147975 
L 335.978293 285.441104 
L 336.095547 274.288681 
L 336.206286 281.08904 
L 336.343081 280.265917 
L 336.460334 290.328084 
L 336.551531 282.697898 
L 336.6297 286.920205 
L 336.779524 267.959348 
L 336.831636 291.792081 
L 336.948889 278.455538 
L 337.027058 284.446079 
L 337.287621 290.170833 
L 337.352761 289.921529 
L 337.528641 282.429025 
L 337.600296 286.718 
L 337.698007 281.335831 
L 337.795718 283.028679 
L 337.854345 290.607128 
L 338.043252 270.348953 
L 338.303815 291.542867 
L 338.636032 279.94049 
L 338.82494 288.364543 
L 338.929165 283.723278 
L 339.065961 283.129146 
L 339.274411 287.280678 
L 339.339552 290.461849 
L 339.443777 290.202355 
L 339.619656 282.231644 
L 339.710853 286.018303 
L 339.834621 285.936836 
L 339.964902 277.394985 
L 340.049585 288.280733 
L 340.225465 287.131185 
L 340.323176 285.088145 
L 340.388316 288.744659 
L 340.453457 287.565823 
L 340.531626 286.145756 
L 340.74659 290.722677 
L 340.831273 285.507151 
L 340.968068 286.437009 
L 341.046237 286.087809 
L 341.150462 281.895182 
L 341.222117 289.582083 
L 341.293771 287.091333 
L 341.384968 284.992057 
L 341.671587 293.7333 
L 341.912608 278.368847 
L 341.997291 288.021085 
L 342.101516 285.520315 
L 342.186199 290.910999 
L 342.420705 276.134217 
L 342.590071 285.070912 
L 342.752922 283.196106 
L 342.831091 285.782354 
L 343.221935 260.238621 
L 343.32616 287.728742 
L 343.443413 279.606362 
L 343.547638 279.752695 
L 343.67792 273.789785 
L 343.834257 288.522043 
L 343.905912 288.53236 
L 343.971053 289.729117 
L 344.264186 280.542908 
L 344.374925 286.47798 
L 344.622459 272.809189 
L 344.752741 276.87095 
L 344.804853 290.865098 
L 344.869994 287.640878 
L 344.948163 285.606352 
L 345.058902 273.895376 
L 345.117528 289.699245 
L 345.202211 287.105656 
L 345.254324 291.645755 
L 345.365063 286.92811 
L 345.462774 287.494202 
L 345.560485 285.19883 
L 345.684252 294.419822 
L 345.899216 277.069125 
L 346.055554 286.105621 
L 346.361715 279.428481 
L 346.485482 293.572247 
L 346.570165 283.991859 
L 346.654848 289.939924 
L 347.05872 237.142899 
L 347.195515 293.414917 
L 347.280198 286.245743 
L 347.345339 288.88087 
L 347.41048 290.505624 
L 347.573331 270.951409 
L 347.658014 290.029532 
L 347.742697 284.64369 
L 347.866464 283.193064 
L 348.03583 291.034777 
L 348.146569 276.752739 
L 348.283365 289.388044 
L 348.407132 277.109574 
L 348.530899 291.17567 
L 348.609068 288.462048 
L 348.954313 193.451793 
L 349.032482 287.729141 
L 349.136707 282.392217 
L 349.299559 264.85204 
L 349.416812 283.52864 
L 349.644804 238.607233 
L 349.827198 288.692806 
L 349.918395 290.660941 
L 350.016106 285.820347 
L 350.100789 288.954089 
L 350.452549 185.330468 
L 350.608886 281.628476 
L 350.726139 279.630493 
L 350.810822 284.285062 
L 350.882477 294.433058 
L 351.260293 267.185729 
L 351.468743 287.675806 
L 351.62508 290.520973 
L 351.755362 276.017497 
L 351.807474 291.546645 
L 352.113635 266.758197 
L 352.178776 290.505422 
L 352.250431 286.915142 
L 352.374198 281.336863 
L 352.439339 288.374582 
L 352.693387 260.603615 
L 352.810641 276.344426 
L 352.960464 274.637558 
L 353.012577 291.539386 
L 353.214513 277.262554 
L 353.299195 285.756618 
L 353.429477 276.344471 
L 353.507646 290.158265 
L 353.624899 286.620589 
L 353.748666 277.036207 
L 354.035285 222.338546 
L 354.087397 290.795078 
L 354.17208 289.331354 
L 354.38053 273.102135 
L 354.49127 280.711006 
L 354.602009 280.345072 
L 354.706234 288.831984 
L 354.823487 277.024722 
L 354.927712 283.51651 
L 355.051479 276.670733 
L 355.240387 288.675348 
L 355.312042 288.284016 
L 355.35764 293.535585 
L 355.481408 275.833785 
L 355.650773 288.571571 
L 355.774541 277.865899 
L 355.846195 287.722555 
L 355.924364 286.458666 
L 355.989505 291.40419 
L 356.139328 286.280454 
L 356.321722 291.412875 
L 356.438975 274.456659 
L 356.523658 288.677536 
L 356.634397 286.884425 
L 356.732108 281.561464 
L 356.914502 286.765492 
L 357.012213 280.966513 
L 357.10341 291.937566 
L 357.162037 289.583988 
L 357.298832 267.736821 
L 357.552881 287.313323 
L 357.806929 276.607269 
L 357.969781 284.939719 
L 358.132633 266.36564 
L 358.275942 290.730663 
L 358.471364 283.845924 
L 358.536505 289.765891 
L 358.601645 289.410876 
L 358.738441 270.419024 
L 358.914321 287.044403 
L 359.018546 282.65713 
L 359.161855 264.249011 
L 359.246538 287.894906 
L 359.396361 267.282389 
L 359.591783 284.645078 
L 359.676466 289.168919 
L 359.761149 283.966546 
L 359.897945 288.141305 
L 360.06731 283.916804 
L 360.269246 254.718461 
L 360.581921 285.047512 
L 360.673118 285.473204 
L 360.796886 279.331438 
L 360.959737 289.063825 
L 361.04442 287.043178 
L 361.135617 287.613214 
L 361.25287 278.674587 
L 361.324525 287.875945 
L 361.441778 277.047538 
L 361.506919 290.776905 
L 361.60463 284.658727 
L 361.715369 290.881753 
L 361.832622 275.219458 
L 362.106213 289.244782 
L 362.190896 285.602748 
L 362.295121 286.329421 
L 362.366776 287.840627 
L 362.529627 284.188716 
L 362.61431 290.342945 
L 362.816246 279.505068 
L 362.96607 289.071516 
L 363.161492 284.213677 
L 363.252689 285.142987 
L 363.324343 292.491559 
L 363.506737 283.176287 
L 363.650047 289.588084 
L 363.728215 285.057948 
L 363.79987 288.118353 
L 364.001806 263.262492 
L 364.15163 281.418425 
L 364.288425 282.830111 
L 364.457791 291.468168 
L 364.588072 287.729486 
L 364.685783 290.137881 
L 364.770466 284.584652 
L 364.939832 287.356306 
L 365.004972 292.225003 
L 365.083141 288.35023 
L 365.148282 291.057151 
L 365.487013 267.383418 
L 365.623809 265.551588 
L 365.864829 291.573872 
L 366.040709 283.095786 
L 366.092822 293.386613 
L 366.216589 282.757591 
L 366.529264 291.475794 
L 366.666059 282.22171 
L 366.750742 290.403312 
L 366.841939 283.643099 
L 367.095988 286.337218 
L 367.193699 282.672746 
L 367.389121 284.427984 
L 367.512888 275.459674 
L 367.747394 243.97703 
L 367.968873 280.935606 
L 368.060069 284.22094 
L 368.327146 263.67312 
L 368.437885 286.503691 
L 368.68542 242.454725 
L 368.822215 289.508086 
L 368.89387 291.113749 
L 369.050208 263.336569 
L 369.121862 289.734121 
L 369.24563 285.095001 
L 369.323798 285.619922 
L 369.460594 271.630297 
L 369.512706 291.190332 
L 369.597389 287.579701 
L 369.656016 290.974301 
L 369.857952 278.010668 
L 370.014289 289.783885 
L 370.072916 290.799613 
L 370.170627 290.221678 
L 370.268338 285.258929 
L 370.444218 292.909067 
L 370.63964 276.52795 
L 370.70478 289.440155 
L 370.822034 277.315631 
L 370.932773 278.363693 
L 371.036998 281.770501 
L 371.121681 288.583597 
L 371.219392 288.31499 
L 371.538581 252.434053 
L 371.961995 168.507055 
L 372.040164 289.787768 
L 372.118333 285.969416 
L 372.261642 264.49532 
L 372.45055 284.146243 
L 372.541747 289.845183 
L 372.730655 270.887003 
L 372.906535 291.361548 
L 373.004246 289.498696 
L 373.069386 290.180279 
L 373.147555 289.791589 
L 373.21921 287.680305 
L 373.290865 290.2883 
L 373.356005 289.685666 
L 373.421146 289.024938 
L 373.492801 285.546481 
L 373.753363 259.165041 
L 373.916215 266.233879 
L 373.98787 290.396114 
L 374.137693 263.605485 
L 374.3722 289.251778 
L 374.469911 286.422497 
L 374.723959 246.631741 
L 374.867269 290.618847 
L 374.945437 285.338366 
L 375.023606 287.598086 
L 375.134345 280.348357 
L 375.251599 287.006023 
L 375.329767 284.89185 
L 375.447021 272.249717 
L 375.583816 291.035726 
L 375.661985 285.998173 
L 375.746668 287.720209 
L 375.83135 284.936906 
L 375.987688 271.442886 
L 376.059343 290.771384 
L 376.274307 270.716323 
L 376.424131 284.302189 
L 376.541384 276.125966 
L 376.613038 289.975455 
L 376.684693 289.905969 
L 376.756348 286.669858 
L 376.847545 286.766459 
L 376.98434 289.185896 
L 377.108107 278.380101 
L 377.179762 288.928611 
L 377.270959 281.206193 
L 377.394726 292.249232 
L 377.498951 275.988624 
L 377.564092 289.472337 
L 377.648775 286.04438 
L 377.746486 289.318144 
L 377.811627 288.474501 
L 377.954936 274.191041 
L 378.124302 287.654233 
L 378.202471 285.331287 
L 378.443491 289.30344 
L 378.52166 287.184298 
L 378.580286 291.189771 
L 378.638913 290.269769 
L 378.704054 290.309316 
L 378.827821 284.381773 
L 378.892962 288.265018 
L 378.977644 285.252855 
L 379.029757 291.7458 
L 379.088384 291.212496 
L 379.225179 276.112993 
L 379.296834 287.210013 
L 379.414087 285.494928 
L 379.492256 286.158667 
L 379.557396 290.820134 
L 379.635565 286.488209 
L 379.70722 287.572401 
L 379.791903 291.812245 
L 379.980811 268.379071 
L 380.111092 292.568325 
L 380.169719 290.719483 
L 380.339084 284.057954 
L 380.606161 234.274371 
L 380.710386 279.901684 
L 380.86021 277.607935 
L 380.92535 289.8795 
L 381.192427 247.513817 
L 381.264082 288.695734 
L 381.361793 278.962769 
L 381.407391 293.453853 
L 381.479046 290.91327 
L 381.544187 288.379731 
L 381.908974 258.756011 
L 382.006685 292.369994 
L 382.221649 249.016329 
L 382.456156 291.916191 
L 382.599465 271.749924 
L 382.658092 288.830798 
L 382.729747 287.582072 
L 382.853514 281.901244 
L 383.029394 257.290972 
L 383.094534 291.099416 
L 383.179217 285.966567 
L 383.250872 285.956471 
L 383.348583 280.176156 
L 383.420238 289.667178 
L 383.50492 287.86208 
L 383.609146 288.962401 
L 383.713371 278.95204 
L 383.876222 281.44397 
L 384.058616 288.122504 
L 384.149813 281.292369 
L 384.254038 282.228974 
L 384.377805 289.992949 
L 384.462488 284.624866 
L 384.644882 294.641658 
L 384.788192 289.075756 
L 384.872874 285.999076 
L 385.029212 288.774677 
L 385.18555 288.342489 
L 385.270232 284.46416 
L 385.348401 289.228802 
L 385.706675 175.31432 
L 386.032378 278.769734 
L 386.130089 281.090991 
L 386.19523 291.257852 
L 386.286427 282.690549 
L 386.43625 281.798447 
L 386.573046 287.788414 
L 386.651214 286.592223 
L 386.709841 291.2093 
L 387.002974 204.649612 
L 387.081143 290.407487 
L 387.270051 262.179006 
L 387.419874 289.374285 
L 387.498043 288.913222 
L 387.595754 282.612536 
L 387.791176 290.584425 
L 387.849803 291.067091 
L 387.960542 277.85046 
L 388.038711 285.10043 
L 388.136422 282.916013 
L 388.195048 290.077891 
L 388.279731 289.649736 
L 388.579378 268.845802 
L 388.677089 282.886661 
L 388.768286 281.242269 
L 388.859483 284.958002 
L 388.944166 283.232719 
L 389.061419 273.668785 
L 389.120046 291.270685 
L 389.269869 265.748819 
L 389.33501 290.729036 
L 389.413179 288.890223 
L 389.491347 286.823635 
L 389.634657 272.336423 
L 389.693283 290.374863 
L 389.810537 274.959055 
L 389.869163 292.47194 
L 389.940818 288.003122 
L 390.018987 290.367556 
L 390.090641 289.88851 
L 390.16881 284.700627 
L 390.246979 289.385985 
L 390.442401 283.863708 
L 390.579196 289.289975 
L 390.689935 279.931484 
L 390.768104 285.734252 
L 390.891872 273.968792 
L 390.976554 288.783652 
L 391.093808 281.617898 
L 391.302258 290.127764 
L 391.517222 278.653288 
L 391.569334 290.825201 
L 391.868981 270.814995 
L 391.927608 291.699407 
L 392.005777 284.42167 
L 392.12303 293.819031 
L 392.214227 287.076366 
L 392.279368 288.63368 
L 392.370565 287.867114 
L 392.455247 283.937331 
L 392.526902 288.805027 
L 392.631127 280.035161 
L 392.761409 278.931724 
L 392.930774 288.454181 
L 392.989401 291.159063 
L 393.119682 271.469839 
L 393.302076 291.264911 
L 393.386759 284.790701 
L 393.445385 289.323832 
L 393.536582 284.141752 
L 393.621265 285.206205 
L 393.784117 284.726902 
L 393.992567 290.447237 
L 394.311756 285.839619 
L 394.383411 287.577715 
L 394.7026 198.910918 
L 394.852424 292.967756 
L 395.145557 285.809887 
L 395.249782 284.895075 
L 395.373549 285.259579 
L 395.542915 290.845318 
L 395.608055 288.619966 
L 395.764393 289.867567 
L 395.829534 288.649987 
L 395.940273 273.245637 
L 396.018442 287.335478 
L 396.090096 286.424781 
L 396.161751 286.057212 
L 396.220378 289.724122 
L 396.285518 288.210604 
L 396.422314 273.115013 
L 396.578651 290.460146 
L 396.682876 277.472465 
L 396.774073 289.827983 
L 396.904355 277.301447 
L 396.962981 290.070169 
L 397.047664 286.676899 
L 397.151889 278.487221 
L 397.288685 278.517693 
L 397.484107 254.916335 
L 397.653472 287.967933 
L 397.725127 287.777835 
L 397.829352 290.168411 
L 397.966147 282.468581 
L 398.076887 283.557197 
L 398.22671 278.125945 
L 398.291851 290.925186 
L 398.396076 280.558968 
L 398.487273 289.441991 
L 398.487273 289.441991 
" clip-path="url(#p5782fffb1a)" style="fill: none; stroke: #1f77b4; stroke-width: 1.5; stroke-linecap: square"/>
   </g>
   <g id="patch_3">
    <path d="M 57.6 307.584 
L 57.6 41.472 
" style="fill: none; stroke: #000000; stroke-width: 0.8; stroke-linejoin: miter; stroke-linecap: square"/>
   </g>
   <g id="patch_4">
    <path d="M 414.72 307.584 
L 414.72 41.472 
" style="fill: none; stroke: #000000; stroke-width: 0.8; stroke-linejoin: miter; stroke-linecap: square"/>
   </g>
   <g id="patch_5">
    <path d="M 57.6 307.584 
L 414.72 307.584 
" style="fill: none; stroke: #000000; stroke-width: 0.8; stroke-linejoin: miter; stroke-linecap: square"/>
   </g>
   <g id="patch_6">
    <path d="M 57.6 41.472 
L 414.72 41.472 
" style="fill: none; stroke: #000000; stroke-width: 0.8; stroke-linejoin: miter; stroke-linecap: square"/>
   </g>
   <g id="text_14">
    <!-- learning curve -->
    <g transform="translate(192.96375 35.472) scale(0.12 -0.12)">
     <defs>
      <path id="DejaVuSans-6c" d="M 603 4863 
L 1178 4863 
L 1178 0 
L 603 0 
L 603 4863 
z
" transform="scale(0.015625)"/>
      <path id="DejaVuSans-6e" d="M 3513 2113 
L 3513 0 
L 2938 0 
L 2938 2094 
Q 2938 2591 2744 2837 
Q 2550 3084 2163 3084 
Q 1697 3084 1428 2787 
Q 1159 2491 1159 1978 
L 1159 0 
L 581 0 
L 581 3500 
L 1159 3500 
L 1159 2956 
Q 1366 3272 1645 3428 
Q 1925 3584 2291 3584 
Q 2894 3584 3203 3211 
Q 3513 2838 3513 2113 
z
" transform="scale(0.015625)"/>
      <path id="DejaVuSans-67" d="M 2906 1791 
Q 2906 2416 2648 2759 
Q 2391 3103 1925 3103 
Q 1463 3103 1205 2759 
Q 947 2416 947 1791 
Q 947 1169 1205 825 
Q 1463 481 1925 481 
Q 2391 481 2648 825 
Q 2906 1169 2906 1791 
z
M 3481 434 
Q 3481 -459 3084 -895 
Q 2688 -1331 1869 -1331 
Q 1566 -1331 1297 -1286 
Q 1028 -1241 775 -1147 
L 775 -588 
Q 1028 -725 1275 -790 
Q 1522 -856 1778 -856 
Q 2344 -856 2625 -561 
Q 2906 -266 2906 331 
L 2906 616 
Q 2728 306 2450 153 
Q 2172 0 1784 0 
Q 1141 0 747 490 
Q 353 981 353 1791 
Q 353 2603 747 3093 
Q 1141 3584 1784 3584 
Q 2172 3584 2450 3431 
Q 2728 3278 2906 2969 
L 2906 3500 
L 3481 3500 
L 3481 434 
z
" transform="scale(0.015625)"/>
      <path id="DejaVuSans-20" transform="scale(0.015625)"/>
      <path id="DejaVuSans-63" d="M 3122 3366 
L 3122 2828 
Q 2878 2963 2633 3030 
Q 2388 3097 2138 3097 
Q 1578 3097 1268 2742 
Q 959 2388 959 1747 
Q 959 1106 1268 751 
Q 1578 397 2138 397 
Q 2388 397 2633 464 
Q 2878 531 3122 666 
L 3122 134 
Q 2881 22 2623 -34 
Q 2366 -91 2075 -91 
Q 1284 -91 818 406 
Q 353 903 353 1747 
Q 353 2603 823 3093 
Q 1294 3584 2113 3584 
Q 2378 3584 2631 3529 
Q 2884 3475 3122 3366 
z
" transform="scale(0.015625)"/>
      <path id="DejaVuSans-75" d="M 544 1381 
L 544 3500 
L 1119 3500 
L 1119 1403 
Q 1119 906 1312 657 
Q 1506 409 1894 409 
Q 2359 409 2629 706 
Q 2900 1003 2900 1516 
L 2900 3500 
L 3475 3500 
L 3475 0 
L 2900 0 
L 2900 538 
Q 2691 219 2414 64 
Q 2138 -91 1772 -91 
Q 1169 -91 856 284 
Q 544 659 544 1381 
z
M 1991 3584 
L 1991 3584 
z
" transform="scale(0.015625)"/>
      <path id="DejaVuSans-76" d="M 191 3500 
L 800 3500 
L 1894 563 
L 2988 3500 
L 3597 3500 
L 2284 0 
L 1503 0 
L 191 3500 
z
" transform="scale(0.015625)"/>
     </defs>
     <use xlink:href="#DejaVuSans-6c"/>
     <use xlink:href="#DejaVuSans-65" x="27.783203"/>
     <use xlink:href="#DejaVuSans-61" x="89.306641"/>
     <use xlink:href="#DejaVuSans-72" x="150.585938"/>
     <use xlink:href="#DejaVuSans-6e" x="189.949219"/>
     <use xlink:href="#DejaVuSans-69" x="253.328125"/>
     <use xlink:href="#DejaVuSans-6e" x="281.111328"/>
     <use xlink:href="#DejaVuSans-67" x="344.490234"/>
     <use xlink:href="#DejaVuSans-20" x="407.966797"/>
     <use xlink:href="#DejaVuSans-63" x="439.753906"/>
     <use xlink:href="#DejaVuSans-75" x="494.734375"/>
     <use xlink:href="#DejaVuSans-72" x="558.113281"/>
     <use xlink:href="#DejaVuSans-76" x="599.226562"/>
     <use xlink:href="#DejaVuSans-65" x="658.40625"/>
    </g>
   </g>
  </g>
 </g>
 <defs>
  <clipPath id="p5782fffb1a">
   <rect x="57.6" y="41.472" width="357.12" height="266.112"/>
  </clipPath>
 </defs>
</svg>
