<?xml version="1.0" encoding="utf-8" standalone="no"?>
<!DOCTYPE svg PUBLIC "-//W3C//DTD SVG 1.1//EN"
  "http://www.w3.org/Graphics/SVG/1.1/DTD/svg11.dtd">
<svg xmlns:xlink="http://www.w3.org/1999/xlink" width="460.8pt" height="345.6pt" viewBox="0 0 460.8 345.6" xmlns="http://www.w3.org/2000/svg" version="1.1">
 <metadata>
  <rdf:RDF xmlns:dc="http://purl.org/dc/elements/1.1/" xmlns:cc="http://creativecommons.org/ns#" xmlns:rdf="http://www.w3.org/1999/02/22-rdf-syntax-ns#">
   <cc:Work>
    <dc:type rdf:resource="http://purl.org/dc/dcmitype/StillImage"/>
    <dc:date>2023-08-18T18:39:13.213410</dc:date>
    <dc:format>image/svg+xml</dc:format>
    <dc:creator>
     <cc:Agent>
      <dc:title>Matplotlib v3.7.1, https://matplotlib.org/</dc:title>
     </cc:Agent>
    </dc:creator>
   </cc:Work>
  </rdf:RDF>
 </metadata>
 <defs>
  <style type="text/css">*{stroke-linejoin: round; stroke-linecap: butt}</style>
 </defs>
 <g id="figure_1">
  <g id="patch_1">
   <path d="M 0 345.6 
L 460.8 345.6 
L 460.8 0 
L 0 0 
z
" style="fill: #ffffff"/>
  </g>
  <g id="axes_1">
   <g id="patch_2">
    <path d="M 57.6 307.584 
L 414.72 307.584 
L 414.72 41.472 
L 57.6 41.472 
z
" style="fill: #ffffff"/>
   </g>
   <g id="matplotlib.axis_1">
    <g id="xtick_1">
     <g id="line2d_1">
      <defs>
       <path id="m21a1d5e45a" d="M 0 0 
L 0 3.5 
" style="stroke: #000000; stroke-width: 0.8"/>
      </defs>
      <g>
       <use xlink:href="#m21a1d5e45a" x="73.72215" y="307.584" style="stroke: #000000; stroke-width: 0.8"/>
      </g>
     </g>
     <g id="text_1">
      <!-- 0 -->
      <g transform="translate(70.5409 322.182437) scale(0.1 -0.1)">
       <defs>
        <path id="DejaVuSans-30" d="M 2034 4250 
Q 1547 4250 1301 3770 
Q 1056 3291 1056 2328 
Q 1056 1369 1301 889 
Q 1547 409 2034 409 
Q 2525 409 2770 889 
Q 3016 1369 3016 2328 
Q 3016 3291 2770 3770 
Q 2525 4250 2034 4250 
z
M 2034 4750 
Q 2819 4750 3233 4129 
Q 3647 3509 3647 2328 
Q 3647 1150 3233 529 
Q 2819 -91 2034 -91 
Q 1250 -91 836 529 
Q 422 1150 422 2328 
Q 422 3509 836 4129 
Q 1250 4750 2034 4750 
z
" transform="scale(0.015625)"/>
       </defs>
       <use xlink:href="#DejaVuSans-30"/>
      </g>
     </g>
    </g>
    <g id="xtick_2">
     <g id="line2d_2">
      <g>
       <use xlink:href="#m21a1d5e45a" x="138.767539" y="307.584" style="stroke: #000000; stroke-width: 0.8"/>
      </g>
     </g>
     <g id="text_2">
      <!-- 10000 -->
      <g transform="translate(122.861289 322.182437) scale(0.1 -0.1)">
       <defs>
        <path id="DejaVuSans-31" d="M 794 531 
L 1825 531 
L 1825 4091 
L 703 3866 
L 703 4441 
L 1819 4666 
L 2450 4666 
L 2450 531 
L 3481 531 
L 3481 0 
L 794 0 
L 794 531 
z
" transform="scale(0.015625)"/>
       </defs>
       <use xlink:href="#DejaVuSans-31"/>
       <use xlink:href="#DejaVuSans-30" x="63.623047"/>
       <use xlink:href="#DejaVuSans-30" x="127.246094"/>
       <use xlink:href="#DejaVuSans-30" x="190.869141"/>
       <use xlink:href="#DejaVuSans-30" x="254.492188"/>
      </g>
     </g>
    </g>
    <g id="xtick_3">
     <g id="line2d_3">
      <g>
       <use xlink:href="#m21a1d5e45a" x="203.812928" y="307.584" style="stroke: #000000; stroke-width: 0.8"/>
      </g>
     </g>
     <g id="text_3">
      <!-- 20000 -->
      <g transform="translate(187.906678 322.182437) scale(0.1 -0.1)">
       <defs>
        <path id="DejaVuSans-32" d="M 1228 531 
L 3431 531 
L 3431 0 
L 469 0 
L 469 531 
Q 828 903 1448 1529 
Q 2069 2156 2228 2338 
Q 2531 2678 2651 2914 
Q 2772 3150 2772 3378 
Q 2772 3750 2511 3984 
Q 2250 4219 1831 4219 
Q 1534 4219 1204 4116 
Q 875 4013 500 3803 
L 500 4441 
Q 881 4594 1212 4672 
Q 1544 4750 1819 4750 
Q 2544 4750 2975 4387 
Q 3406 4025 3406 3419 
Q 3406 3131 3298 2873 
Q 3191 2616 2906 2266 
Q 2828 2175 2409 1742 
Q 1991 1309 1228 531 
z
" transform="scale(0.015625)"/>
       </defs>
       <use xlink:href="#DejaVuSans-32"/>
       <use xlink:href="#DejaVuSans-30" x="63.623047"/>
       <use xlink:href="#DejaVuSans-30" x="127.246094"/>
       <use xlink:href="#DejaVuSans-30" x="190.869141"/>
       <use xlink:href="#DejaVuSans-30" x="254.492188"/>
      </g>
     </g>
    </g>
    <g id="xtick_4">
     <g id="line2d_4">
      <g>
       <use xlink:href="#m21a1d5e45a" x="268.858317" y="307.584" style="stroke: #000000; stroke-width: 0.8"/>
      </g>
     </g>
     <g id="text_4">
      <!-- 30000 -->
      <g transform="translate(252.952067 322.182437) scale(0.1 -0.1)">
       <defs>
        <path id="DejaVuSans-33" d="M 2597 2516 
Q 3050 2419 3304 2112 
Q 3559 1806 3559 1356 
Q 3559 666 3084 287 
Q 2609 -91 1734 -91 
Q 1441 -91 1130 -33 
Q 819 25 488 141 
L 488 750 
Q 750 597 1062 519 
Q 1375 441 1716 441 
Q 2309 441 2620 675 
Q 2931 909 2931 1356 
Q 2931 1769 2642 2001 
Q 2353 2234 1838 2234 
L 1294 2234 
L 1294 2753 
L 1863 2753 
Q 2328 2753 2575 2939 
Q 2822 3125 2822 3475 
Q 2822 3834 2567 4026 
Q 2313 4219 1838 4219 
Q 1578 4219 1281 4162 
Q 984 4106 628 3988 
L 628 4550 
Q 988 4650 1302 4700 
Q 1616 4750 1894 4750 
Q 2613 4750 3031 4423 
Q 3450 4097 3450 3541 
Q 3450 3153 3228 2886 
Q 3006 2619 2597 2516 
z
" transform="scale(0.015625)"/>
       </defs>
       <use xlink:href="#DejaVuSans-33"/>
       <use xlink:href="#DejaVuSans-30" x="63.623047"/>
       <use xlink:href="#DejaVuSans-30" x="127.246094"/>
       <use xlink:href="#DejaVuSans-30" x="190.869141"/>
       <use xlink:href="#DejaVuSans-30" x="254.492188"/>
      </g>
     </g>
    </g>
    <g id="xtick_5">
     <g id="line2d_5">
      <g>
       <use xlink:href="#m21a1d5e45a" x="333.903706" y="307.584" style="stroke: #000000; stroke-width: 0.8"/>
      </g>
     </g>
     <g id="text_5">
      <!-- 40000 -->
      <g transform="translate(317.997456 322.182437) scale(0.1 -0.1)">
       <defs>
        <path id="DejaVuSans-34" d="M 2419 4116 
L 825 1625 
L 2419 1625 
L 2419 4116 
z
M 2253 4666 
L 3047 4666 
L 3047 1625 
L 3713 1625 
L 3713 1100 
L 3047 1100 
L 3047 0 
L 2419 0 
L 2419 1100 
L 313 1100 
L 313 1709 
L 2253 4666 
z
" transform="scale(0.015625)"/>
       </defs>
       <use xlink:href="#DejaVuSans-34"/>
       <use xlink:href="#DejaVuSans-30" x="63.623047"/>
       <use xlink:href="#DejaVuSans-30" x="127.246094"/>
       <use xlink:href="#DejaVuSans-30" x="190.869141"/>
       <use xlink:href="#DejaVuSans-30" x="254.492188"/>
      </g>
     </g>
    </g>
    <g id="xtick_6">
     <g id="line2d_6">
      <g>
       <use xlink:href="#m21a1d5e45a" x="398.949095" y="307.584" style="stroke: #000000; stroke-width: 0.8"/>
      </g>
     </g>
     <g id="text_6">
      <!-- 50000 -->
      <g transform="translate(383.042845 322.182437) scale(0.1 -0.1)">
       <defs>
        <path id="DejaVuSans-35" d="M 691 4666 
L 3169 4666 
L 3169 4134 
L 1269 4134 
L 1269 2991 
Q 1406 3038 1543 3061 
Q 1681 3084 1819 3084 
Q 2600 3084 3056 2656 
Q 3513 2228 3513 1497 
Q 3513 744 3044 326 
Q 2575 -91 1722 -91 
Q 1428 -91 1123 -41 
Q 819 9 494 109 
L 494 744 
Q 775 591 1075 516 
Q 1375 441 1709 441 
Q 2250 441 2565 725 
Q 2881 1009 2881 1497 
Q 2881 1984 2565 2268 
Q 2250 2553 1709 2553 
Q 1456 2553 1204 2497 
Q 953 2441 691 2322 
L 691 4666 
z
" transform="scale(0.015625)"/>
       </defs>
       <use xlink:href="#DejaVuSans-35"/>
       <use xlink:href="#DejaVuSans-30" x="63.623047"/>
       <use xlink:href="#DejaVuSans-30" x="127.246094"/>
       <use xlink:href="#DejaVuSans-30" x="190.869141"/>
       <use xlink:href="#DejaVuSans-30" x="254.492188"/>
      </g>
     </g>
    </g>
    <g id="text_7">
     <!-- timesteps -->
     <g transform="translate(211.443594 335.860562) scale(0.1 -0.1)">
      <defs>
       <path id="DejaVuSans-74" d="M 1172 4494 
L 1172 3500 
L 2356 3500 
L 2356 3053 
L 1172 3053 
L 1172 1153 
Q 1172 725 1289 603 
Q 1406 481 1766 481 
L 2356 481 
L 2356 0 
L 1766 0 
Q 1100 0 847 248 
Q 594 497 594 1153 
L 594 3053 
L 172 3053 
L 172 3500 
L 594 3500 
L 594 4494 
L 1172 4494 
z
" transform="scale(0.015625)"/>
       <path id="DejaVuSans-69" d="M 603 3500 
L 1178 3500 
L 1178 0 
L 603 0 
L 603 3500 
z
M 603 4863 
L 1178 4863 
L 1178 4134 
L 603 4134 
L 603 4863 
z
" transform="scale(0.015625)"/>
       <path id="DejaVuSans-6d" d="M 3328 2828 
Q 3544 3216 3844 3400 
Q 4144 3584 4550 3584 
Q 5097 3584 5394 3201 
Q 5691 2819 5691 2113 
L 5691 0 
L 5113 0 
L 5113 2094 
Q 5113 2597 4934 2840 
Q 4756 3084 4391 3084 
Q 3944 3084 3684 2787 
Q 3425 2491 3425 1978 
L 3425 0 
L 2847 0 
L 2847 2094 
Q 2847 2600 2669 2842 
Q 2491 3084 2119 3084 
Q 1678 3084 1418 2786 
Q 1159 2488 1159 1978 
L 1159 0 
L 581 0 
L 581 3500 
L 1159 3500 
L 1159 2956 
Q 1356 3278 1631 3431 
Q 1906 3584 2284 3584 
Q 2666 3584 2933 3390 
Q 3200 3197 3328 2828 
z
" transform="scale(0.015625)"/>
       <path id="DejaVuSans-65" d="M 3597 1894 
L 3597 1613 
L 953 1613 
Q 991 1019 1311 708 
Q 1631 397 2203 397 
Q 2534 397 2845 478 
Q 3156 559 3463 722 
L 3463 178 
Q 3153 47 2828 -22 
Q 2503 -91 2169 -91 
Q 1331 -91 842 396 
Q 353 884 353 1716 
Q 353 2575 817 3079 
Q 1281 3584 2069 3584 
Q 2775 3584 3186 3129 
Q 3597 2675 3597 1894 
z
M 3022 2063 
Q 3016 2534 2758 2815 
Q 2500 3097 2075 3097 
Q 1594 3097 1305 2825 
Q 1016 2553 972 2059 
L 3022 2063 
z
" transform="scale(0.015625)"/>
       <path id="DejaVuSans-73" d="M 2834 3397 
L 2834 2853 
Q 2591 2978 2328 3040 
Q 2066 3103 1784 3103 
Q 1356 3103 1142 2972 
Q 928 2841 928 2578 
Q 928 2378 1081 2264 
Q 1234 2150 1697 2047 
L 1894 2003 
Q 2506 1872 2764 1633 
Q 3022 1394 3022 966 
Q 3022 478 2636 193 
Q 2250 -91 1575 -91 
Q 1294 -91 989 -36 
Q 684 19 347 128 
L 347 722 
Q 666 556 975 473 
Q 1284 391 1588 391 
Q 1994 391 2212 530 
Q 2431 669 2431 922 
Q 2431 1156 2273 1281 
Q 2116 1406 1581 1522 
L 1381 1569 
Q 847 1681 609 1914 
Q 372 2147 372 2553 
Q 372 3047 722 3315 
Q 1072 3584 1716 3584 
Q 2034 3584 2315 3537 
Q 2597 3491 2834 3397 
z
" transform="scale(0.015625)"/>
       <path id="DejaVuSans-70" d="M 1159 525 
L 1159 -1331 
L 581 -1331 
L 581 3500 
L 1159 3500 
L 1159 2969 
Q 1341 3281 1617 3432 
Q 1894 3584 2278 3584 
Q 2916 3584 3314 3078 
Q 3713 2572 3713 1747 
Q 3713 922 3314 415 
Q 2916 -91 2278 -91 
Q 1894 -91 1617 61 
Q 1341 213 1159 525 
z
M 3116 1747 
Q 3116 2381 2855 2742 
Q 2594 3103 2138 3103 
Q 1681 3103 1420 2742 
Q 1159 2381 1159 1747 
Q 1159 1113 1420 752 
Q 1681 391 2138 391 
Q 2594 391 2855 752 
Q 3116 1113 3116 1747 
z
" transform="scale(0.015625)"/>
      </defs>
      <use xlink:href="#DejaVuSans-74"/>
      <use xlink:href="#DejaVuSans-69" x="39.208984"/>
      <use xlink:href="#DejaVuSans-6d" x="66.992188"/>
      <use xlink:href="#DejaVuSans-65" x="164.404297"/>
      <use xlink:href="#DejaVuSans-73" x="225.927734"/>
      <use xlink:href="#DejaVuSans-74" x="278.027344"/>
      <use xlink:href="#DejaVuSans-65" x="317.236328"/>
      <use xlink:href="#DejaVuSans-70" x="378.759766"/>
      <use xlink:href="#DejaVuSans-73" x="442.236328"/>
     </g>
    </g>
   </g>
   <g id="matplotlib.axis_2">
    <g id="ytick_1">
     <g id="line2d_7">
      <defs>
       <path id="m61a0ba78dc" d="M 0 0 
L -3.5 0 
" style="stroke: #000000; stroke-width: 0.8"/>
      </defs>
      <g>
       <use xlink:href="#m61a0ba78dc" x="57.6" y="296.590745" style="stroke: #000000; stroke-width: 0.8"/>
      </g>
     </g>
     <g id="text_8">
      <!-- 0 -->
      <g transform="translate(44.2375 300.389964) scale(0.1 -0.1)">
       <use xlink:href="#DejaVuSans-30"/>
      </g>
     </g>
    </g>
    <g id="ytick_2">
     <g id="line2d_8">
      <g>
       <use xlink:href="#m61a0ba78dc" x="57.6" y="264.285577" style="stroke: #000000; stroke-width: 0.8"/>
      </g>
     </g>
     <g id="text_9">
      <!-- 100 -->
      <g transform="translate(31.5125 268.084796) scale(0.1 -0.1)">
       <use xlink:href="#DejaVuSans-31"/>
       <use xlink:href="#DejaVuSans-30" x="63.623047"/>
       <use xlink:href="#DejaVuSans-30" x="127.246094"/>
      </g>
     </g>
    </g>
    <g id="ytick_3">
     <g id="line2d_9">
      <g>
       <use xlink:href="#m61a0ba78dc" x="57.6" y="231.980409" style="stroke: #000000; stroke-width: 0.8"/>
      </g>
     </g>
     <g id="text_10">
      <!-- 200 -->
      <g transform="translate(31.5125 235.779627) scale(0.1 -0.1)">
       <use xlink:href="#DejaVuSans-32"/>
       <use xlink:href="#DejaVuSans-30" x="63.623047"/>
       <use xlink:href="#DejaVuSans-30" x="127.246094"/>
      </g>
     </g>
    </g>
    <g id="ytick_4">
     <g id="line2d_10">
      <g>
       <use xlink:href="#m61a0ba78dc" x="57.6" y="199.67524" style="stroke: #000000; stroke-width: 0.8"/>
      </g>
     </g>
     <g id="text_11">
      <!-- 300 -->
      <g transform="translate(31.5125 203.474459) scale(0.1 -0.1)">
       <use xlink:href="#DejaVuSans-33"/>
       <use xlink:href="#DejaVuSans-30" x="63.623047"/>
       <use xlink:href="#DejaVuSans-30" x="127.246094"/>
      </g>
     </g>
    </g>
    <g id="ytick_5">
     <g id="line2d_11">
      <g>
       <use xlink:href="#m61a0ba78dc" x="57.6" y="167.370072" style="stroke: #000000; stroke-width: 0.8"/>
      </g>
     </g>
     <g id="text_12">
      <!-- 400 -->
      <g transform="translate(31.5125 171.169291) scale(0.1 -0.1)">
       <use xlink:href="#DejaVuSans-34"/>
       <use xlink:href="#DejaVuSans-30" x="63.623047"/>
       <use xlink:href="#DejaVuSans-30" x="127.246094"/>
      </g>
     </g>
    </g>
    <g id="ytick_6">
     <g id="line2d_12">
      <g>
       <use xlink:href="#m61a0ba78dc" x="57.6" y="135.064904" style="stroke: #000000; stroke-width: 0.8"/>
      </g>
     </g>
     <g id="text_13">
      <!-- 500 -->
      <g transform="translate(31.5125 138.864123) scale(0.1 -0.1)">
       <use xlink:href="#DejaVuSans-35"/>
       <use xlink:href="#DejaVuSans-30" x="63.623047"/>
       <use xlink:href="#DejaVuSans-30" x="127.246094"/>
      </g>
     </g>
    </g>
    <g id="ytick_7">
     <g id="line2d_13">
      <g>
       <use xlink:href="#m61a0ba78dc" x="57.6" y="102.759736" style="stroke: #000000; stroke-width: 0.8"/>
      </g>
     </g>
     <g id="text_14">
      <!-- 600 -->
      <g transform="translate(31.5125 106.558955) scale(0.1 -0.1)">
       <defs>
        <path id="DejaVuSans-36" d="M 2113 2584 
Q 1688 2584 1439 2293 
Q 1191 2003 1191 1497 
Q 1191 994 1439 701 
Q 1688 409 2113 409 
Q 2538 409 2786 701 
Q 3034 994 3034 1497 
Q 3034 2003 2786 2293 
Q 2538 2584 2113 2584 
z
M 3366 4563 
L 3366 3988 
Q 3128 4100 2886 4159 
Q 2644 4219 2406 4219 
Q 1781 4219 1451 3797 
Q 1122 3375 1075 2522 
Q 1259 2794 1537 2939 
Q 1816 3084 2150 3084 
Q 2853 3084 3261 2657 
Q 3669 2231 3669 1497 
Q 3669 778 3244 343 
Q 2819 -91 2113 -91 
Q 1303 -91 875 529 
Q 447 1150 447 2328 
Q 447 3434 972 4092 
Q 1497 4750 2381 4750 
Q 2619 4750 2861 4703 
Q 3103 4656 3366 4563 
z
" transform="scale(0.015625)"/>
       </defs>
       <use xlink:href="#DejaVuSans-36"/>
       <use xlink:href="#DejaVuSans-30" x="63.623047"/>
       <use xlink:href="#DejaVuSans-30" x="127.246094"/>
      </g>
     </g>
    </g>
    <g id="ytick_8">
     <g id="line2d_14">
      <g>
       <use xlink:href="#m61a0ba78dc" x="57.6" y="70.454568" style="stroke: #000000; stroke-width: 0.8"/>
      </g>
     </g>
     <g id="text_15">
      <!-- 700 -->
      <g transform="translate(31.5125 74.253787) scale(0.1 -0.1)">
       <defs>
        <path id="DejaVuSans-37" d="M 525 4666 
L 3525 4666 
L 3525 4397 
L 1831 0 
L 1172 0 
L 2766 4134 
L 525 4134 
L 525 4666 
z
" transform="scale(0.015625)"/>
       </defs>
       <use xlink:href="#DejaVuSans-37"/>
       <use xlink:href="#DejaVuSans-30" x="63.623047"/>
       <use xlink:href="#DejaVuSans-30" x="127.246094"/>
      </g>
     </g>
    </g>
    <g id="text_16">
     <!-- rewards -->
     <g transform="translate(25.432812 194.447531) rotate(-90) scale(0.1 -0.1)">
      <defs>
       <path id="DejaVuSans-72" d="M 2631 2963 
Q 2534 3019 2420 3045 
Q 2306 3072 2169 3072 
Q 1681 3072 1420 2755 
Q 1159 2438 1159 1844 
L 1159 0 
L 581 0 
L 581 3500 
L 1159 3500 
L 1159 2956 
Q 1341 3275 1631 3429 
Q 1922 3584 2338 3584 
Q 2397 3584 2469 3576 
Q 2541 3569 2628 3553 
L 2631 2963 
z
" transform="scale(0.015625)"/>
       <path id="DejaVuSans-77" d="M 269 3500 
L 844 3500 
L 1563 769 
L 2278 3500 
L 2956 3500 
L 3675 769 
L 4391 3500 
L 4966 3500 
L 4050 0 
L 3372 0 
L 2619 2869 
L 1863 0 
L 1184 0 
L 269 3500 
z
" transform="scale(0.015625)"/>
       <path id="DejaVuSans-61" d="M 2194 1759 
Q 1497 1759 1228 1600 
Q 959 1441 959 1056 
Q 959 750 1161 570 
Q 1363 391 1709 391 
Q 2188 391 2477 730 
Q 2766 1069 2766 1631 
L 2766 1759 
L 2194 1759 
z
M 3341 1997 
L 3341 0 
L 2766 0 
L 2766 531 
Q 2569 213 2275 61 
Q 1981 -91 1556 -91 
Q 1019 -91 701 211 
Q 384 513 384 1019 
Q 384 1609 779 1909 
Q 1175 2209 1959 2209 
L 2766 2209 
L 2766 2266 
Q 2766 2663 2505 2880 
Q 2244 3097 1772 3097 
Q 1472 3097 1187 3025 
Q 903 2953 641 2809 
L 641 3341 
Q 956 3463 1253 3523 
Q 1550 3584 1831 3584 
Q 2591 3584 2966 3190 
Q 3341 2797 3341 1997 
z
" transform="scale(0.015625)"/>
       <path id="DejaVuSans-64" d="M 2906 2969 
L 2906 4863 
L 3481 4863 
L 3481 0 
L 2906 0 
L 2906 525 
Q 2725 213 2448 61 
Q 2172 -91 1784 -91 
Q 1150 -91 751 415 
Q 353 922 353 1747 
Q 353 2572 751 3078 
Q 1150 3584 1784 3584 
Q 2172 3584 2448 3432 
Q 2725 3281 2906 2969 
z
M 947 1747 
Q 947 1113 1208 752 
Q 1469 391 1925 391 
Q 2381 391 2643 752 
Q 2906 1113 2906 1747 
Q 2906 2381 2643 2742 
Q 2381 3103 1925 3103 
Q 1469 3103 1208 2742 
Q 947 2381 947 1747 
z
" transform="scale(0.015625)"/>
      </defs>
      <use xlink:href="#DejaVuSans-72"/>
      <use xlink:href="#DejaVuSans-65" x="38.863281"/>
      <use xlink:href="#DejaVuSans-77" x="100.386719"/>
      <use xlink:href="#DejaVuSans-61" x="182.173828"/>
      <use xlink:href="#DejaVuSans-72" x="243.453125"/>
      <use xlink:href="#DejaVuSans-64" x="282.816406"/>
      <use xlink:href="#DejaVuSans-73" x="346.292969"/>
     </g>
    </g>
   </g>
   <g id="line2d_15">
    <path d="M 73.832727 291.8708 
L 73.9368 291.782632 
L 74.223 289.583024 
L 74.372604 294.851146 
L 74.535217 288.920635 
L 74.600263 294.206747 
L 74.808408 289.10534 
L 74.971022 292.535532 
L 75.107617 290.458414 
L 75.218194 294.004629 
L 75.34178 291.96982 
L 75.400321 294.700633 
L 75.536916 290.399805 
L 75.608466 293.830904 
L 75.693025 292.954319 
L 75.823116 291.265134 
L 75.953207 292.392128 
L 76.297948 285.514672 
L 76.389011 292.521413 
L 76.642688 283.701487 
L 76.896365 293.774304 
L 76.980924 294.061445 
L 77.078492 292.960404 
L 77.137033 294.380694 
L 77.416728 289.780543 
L 77.514296 294.235037 
L 77.846028 282.885689 
L 78.086696 293.93647 
L 78.262318 293.287564 
L 78.359886 293.550228 
L 78.724141 266.461066 
L 78.815204 293.527988 
L 78.919277 292.439712 
L 79.01034 292.624761 
L 79.094899 293.877052 
L 79.322558 290.704309 
L 79.478667 292.328594 
L 79.686812 293.120998 
L 79.92748 287.519117 
L 80.018544 293.711408 
L 80.161644 292.700883 
L 80.265716 294.535847 
L 80.337266 294.233637 
L 80.454348 293.411447 
L 80.603952 290.510673 
L 80.851125 293.241476 
L 80.961702 293.321952 
L 81.05927 292.653375 
L 81.254406 293.9922 
L 81.462551 290.524786 
L 81.83331 295.207591 
L 82.028446 285.966967 
L 82.217078 293.553498 
L 82.327655 293.740237 
L 82.483764 290.374577 
L 82.659387 289.93216 
L 82.808991 294.41461 
L 82.887045 293.856715 
L 82.958595 294.16795 
L 83.121209 290.248253 
L 83.199263 294.186219 
L 83.511481 290.617664 
L 83.589536 293.568316 
L 83.862726 285.250542 
L 84.031844 285.723499 
L 84.116403 293.393106 
L 84.409108 289.552434 
L 84.565216 294.010548 
L 84.695307 293.715363 
L 84.831903 290.225708 
L 84.903452 294.248425 
L 85.163634 290.267293 
L 85.378284 288.894544 
L 85.540897 292.058309 
L 85.677493 292.502027 
L 85.840106 293.186876 
L 85.93117 293.249935 
L 86.171838 280.320315 
L 86.262901 293.997389 
L 86.718219 288.849179 
L 86.861319 294.093679 
L 87.641863 241.543259 
L 87.713413 294.988299 
L 87.843504 292.285057 
L 87.921559 293.771314 
L 88.006118 293.269452 
L 88.259795 285.219099 
L 88.331344 293.552251 
L 88.454931 291.766008 
L 88.552499 293.629431 
L 89.020826 268.272569 
L 89.105385 294.778863 
L 89.163925 294.678249 
L 89.365566 293.433627 
L 89.482648 292.694569 
L 90.120093 272.671016 
L 90.360761 294.204288 
L 90.640456 292.112145 
L 90.744528 293.361102 
L 90.998205 284.545928 
L 91.14781 290.870098 
L 91.538082 279.04555 
L 91.629146 292.82464 
L 91.798264 293.832439 
L 92.077959 292.262782 
L 92.162518 293.484632 
L 92.377168 290.842823 
L 92.455222 293.858463 
L 92.69589 289.778236 
L 92.825981 292.998269 
L 92.923549 292.411427 
L 93.131694 294.628581 
L 93.359353 294.208587 
L 93.639048 288.877147 
L 93.821175 293.412507 
L 93.931752 292.241399 
L 94.10087 292.060651 
L 94.31552 288.396522 
L 94.367557 294.866724 
L 94.647252 283.238556 
L 94.855397 293.942795 
L 95.102569 292.688788 
L 95.193633 293.357593 
L 95.499346 277.291606 
L 95.720501 281.260403 
L 95.850591 293.030869 
L 95.987187 289.879088 
L 96.422991 260.178283 
L 96.696181 294.818838 
L 96.878309 286.454785 
L 97.099463 284.346186 
L 97.158004 294.385217 
L 97.385663 284.715966 
L 97.606817 293.937369 
L 97.932044 286.908022 
L 98.179216 284.444848 
L 98.387362 287.39515 
L 98.452407 294.082867 
L 98.719093 290.750361 
L 98.842679 291.141164 
L 98.966266 291.118131 
L 99.311006 293.022087 
L 99.506142 285.763874 
L 99.564683 295.17914 
L 99.668756 293.412346 
L 99.811856 293.545049 
L 99.870396 294.361667 
L 100.065533 287.919018 
L 100.364741 293.422755 
L 100.481823 292.720873 
L 100.670455 290.071658 
L 100.787536 290.375938 
L 100.937141 290.321642 
L 101.242854 281.723526 
L 101.678658 293.846223 
L 101.776226 292.74298 
L 102.127471 281.211843 
L 102.205526 293.614982 
L 102.35513 294.126274 
L 102.413671 294.855388 
L 102.628321 293.157085 
L 102.738898 292.234152 
L 102.810448 294.153528 
L 102.986071 288.756963 
L 103.148684 294.17344 
L 103.538956 273.396817 
L 103.656038 293.129216 
L 103.779624 292.043403 
L 103.857679 293.92952 
L 104.280474 281.920535 
L 104.527646 287.729201 
L 104.76181 278.390393 
L 104.859378 291.758428 
L 105.048009 293.973899 
L 105.405759 291.573524 
L 105.529345 291.312833 
L 105.613904 293.278573 
L 105.757004 290.680301 
L 105.965149 293.253658 
L 106.205817 284.444661 
L 106.355422 292.500877 
L 106.537549 289.017704 
L 106.654631 290.425621 
L 106.862776 289.848429 
L 106.986362 292.719972 
L 107.259553 278.334956 
L 107.324598 293.770837 
L 107.44168 290.714846 
L 107.558761 291.378192 
L 107.617302 295.488 
L 107.695357 293.131858 
L 107.799429 293.444595 
L 107.975052 291.890261 
L 108.14417 293.096755 
L 108.196206 294.761139 
L 108.267756 293.179367 
L 108.371829 293.796515 
L 108.566965 292.207894 
L 108.781615 287.534109 
L 108.866174 293.462491 
L 108.950733 292.982479 
L 109.106842 294.854201 
L 109.249942 289.539535 
L 109.432069 294.193363 
L 109.542646 292.753816 
L 109.887386 274.04174 
L 110.069513 294.651605 
L 110.186595 292.960333 
L 110.303677 292.914407 
L 110.381731 293.621782 
L 110.706958 286.606789 
L 111.051699 294.331242 
L 111.266349 291.419484 
L 111.45498 291.734853 
L 111.500512 295.245878 
L 111.721666 293.026148 
L 111.81273 292.306986 
L 111.910298 292.340077 
L 112.216011 278.013437 
L 112.307075 293.80426 
L 112.645311 278.586475 
L 112.749383 292.797451 
L 112.866465 292.734614 
L 113.068106 294.349459 
L 113.152665 294.01487 
L 113.256738 292.818228 
L 113.523424 288.448876 
L 113.666523 290.891271 
L 113.744578 294.280398 
L 113.972237 286.460708 
L 114.238923 284.604819 
L 114.395032 292.003572 
L 114.570654 292.288096 
L 114.746277 286.362791 
L 114.811322 293.888074 
L 114.98044 288.458403 
L 115.130045 290.038137 
L 115.682931 259.434154 
L 115.773994 292.541158 
L 116.229312 255.814397 
L 116.339889 293.437477 
L 116.509007 290.477392 
L 116.619584 291.290438 
L 116.821225 285.59075 
L 117.035875 293.362648 
L 117.113929 293.825904 
L 117.497697 269.814139 
L 117.582256 293.509912 
L 117.673319 292.651053 
L 117.855447 287.090597 
L 118.011555 294.711401 
L 118.122133 291.678014 
L 118.219701 292.155941 
L 118.642496 266.893813 
L 118.7921 294.47286 
L 118.909182 290.855695 
L 118.993741 293.507246 
L 119.130336 290.232554 
L 119.234409 292.324451 
L 119.344986 291.495069 
L 119.416536 293.973238 
L 119.683222 276.608118 
L 119.800304 293.93895 
L 119.917385 293.307246 
L 120.027963 291.101131 
L 120.119026 293.49411 
L 120.236108 291.114239 
L 120.346685 291.68286 
L 120.775984 266.170942 
L 120.886562 293.158618 
L 121.133734 283.974835 
L 121.211789 295.135274 
L 121.263825 294.693733 
L 121.341879 293.490202 
L 121.419934 294.045992 
L 121.706134 290.018191 
L 121.940297 281.8286 
L 122.083397 292.569847 
L 122.304551 289.559253 
L 122.38911 293.56888 
L 122.519201 291.011124 
L 122.714337 292.074455 
L 122.928987 290.737417 
L 123.013546 294.226019 
L 123.098105 293.742469 
L 123.221691 291.619591 
L 123.312755 293.343104 
L 123.481873 288.211478 
L 123.637982 291.997552 
L 123.774577 291.865744 
L 123.826613 294.637695 
L 123.911172 293.753682 
L 124.028254 291.965318 
L 124.145336 292.838792 
L 124.242904 292.482661 
L 124.477067 281.740017 
L 124.613662 291.003608 
L 124.763267 289.988529 
L 124.906367 292.499325 
L 125.029953 292.377482 
L 125.134026 293.565927 
L 125.316153 290.751796 
L 125.452748 294.549183 
L 125.803993 290.990042 
L 126.090193 281.097204 
L 126.252806 287.963527 
L 126.467456 282.107135 
L 126.539006 293.744395 
L 126.701619 290.774835 
L 126.864233 290.712312 
L 127.098396 294.261696 
L 127.254505 292.010919 
L 127.358578 293.059784 
L 127.547209 282.869833 
L 127.664291 294.121704 
L 127.826905 287.886478 
L 127.970005 292.313057 
L 128.145627 292.105227 
L 128.2497 293.326777 
L 128.503377 289.683897 
L 128.633467 289.889929 
L 128.705017 293.421686 
L 128.887145 293.284079 
L 129.036749 291.041212 
L 129.134317 292.428717 
L 129.316444 288.969897 
L 129.472553 290.817609 
L 129.817294 279.718141 
L 130.031943 289.358725 
L 130.21407 285.711487 
L 130.578325 290.751741 
L 130.669388 293.918212 
L 130.78647 291.076528 
L 130.936074 291.298858 
L 130.988111 294.754902 
L 131.189751 291.482228 
L 131.410906 292.442623 
L 131.710114 290.128278 
L 131.872728 293.426445 
L 131.98981 291.855552 
L 132.223973 291.040708 
L 132.4061 294.224965 
L 132.562209 293.170459 
L 132.789868 286.586946 
L 133.095581 293.335214 
L 133.212663 292.861911 
L 133.407799 288.533837 
L 133.511872 292.175245 
L 133.746035 286.206464 
L 133.908649 291.09104 
L 134.123298 291.541995 
L 134.266398 289.208876 
L 134.389984 290.809427 
L 134.578616 288.873025 
L 134.682689 293.719328 
L 134.962384 289.804473 
L 135.053447 293.705568 
L 135.15752 293.45595 
L 135.307124 293.217258 
L 135.378674 294.539552 
L 135.51527 292.430661 
L 135.86001 270.040241 
L 136.029128 294.838326 
L 136.21776 289.787253 
L 136.445419 287.91762 
L 136.536482 293.503612 
L 136.627546 293.368206 
L 136.790159 286.488021 
L 136.913746 292.586421 
L 137.050341 292.981547 
L 137.108882 294.470709 
L 137.258486 289.568687 
L 137.336541 293.93391 
L 137.486145 293.013432 
L 137.557695 294.42272 
L 137.726813 291.406921 
L 137.811372 292.805055 
L 137.98049 286.937457 
L 138.065049 293.748741 
L 138.305717 291.705404 
L 138.377267 294.567259 
L 138.669971 290.849933 
L 138.845594 291.649094 
L 139.014712 286.799167 
L 139.086261 294.704711 
L 139.164316 292.919769 
L 139.24237 293.843851 
L 139.489543 290.887306 
L 139.762734 283.851206 
L 139.847293 294.080649 
L 139.938356 292.464349 
L 140.035924 293.166708 
L 140.413187 273.786972 
L 140.484737 293.848494 
L 140.562792 292.917231 
L 140.744919 289.193279 
L 141.122182 269.023541 
L 141.317318 293.643624 
L 141.466923 290.480966 
L 141.7206 275.190573 
L 142.390567 245.138137 
L 142.754821 292.073444 
L 143.19713 267.68552 
L 143.587402 260.928675 
L 144.068738 247.743824 
L 144.387461 275.701288 
L 144.60211 278.925593 
L 145.096455 253.093967 
L 145.714387 245.671554 
L 145.955055 276.716135 
L 146.156695 280.129551 
L 146.592499 253.421341 
L 146.878699 271.236461 
L 147.164899 274.252876 
L 147.509639 266.611775 
L 147.678757 282.331561 
L 147.99748 272.963154 
L 148.166598 282.741839 
L 148.778024 229.088404 
L 149.05772 271.919536 
L 149.539056 249.710024 
L 149.792733 274.354375 
L 150.280573 251.493239 
L 150.781422 247.323918 
L 151.347317 236.549583 
L 151.906708 235.193881 
L 152.479107 236.006142 
L 153.045002 235.013795 
L 153.675942 227.54955 
L 154.267855 230.62969 
L 154.820741 240.67177 
L 155.451681 222.807625 
L 156.063108 227.311657 
L 156.642012 233.143821 
L 157.233925 231.58511 
L 157.79982 234.798921 
L 158.391733 230.245806 
L 158.957628 234.458736 
L 159.536532 232.61749 
L 160.108931 233.234155 
L 160.69434 230.862615 
L 161.266739 233.427437 
L 161.826129 233.621709 
L 162.405033 232.345392 
L 163.003451 228.78987 
L 164.135241 236.205556 
L 164.733658 229.542187 
L 165.293049 235.383958 
L 165.878457 231.74023 
L 166.502893 226.19879 
L 167.133833 225.660519 
L 167.732251 229.695542 
L 168.324164 230.571252 
L 168.968113 224.945353 
L 169.547017 231.471738 
L 170.158444 228.164814 
L 170.743852 231.03738 
L 171.361784 226.825557 
L 171.992724 227.757181 
L 172.597646 229.13999 
L 173.202568 230.198313 
L 173.813995 229.243158 
L 174.444935 225.07946 
L 175.095389 222.831259 
L 175.687302 233.609478 
L 176.311738 227.196332 
L 176.923164 226.888728 
L 177.567114 224.54755 
L 178.230577 225.086679 
L 178.907049 224.740942 
L 179.485953 234.238281 
L 180.097379 231.562537 
L 180.754338 222.228994 
L 181.450323 228.421444 
L 182.087768 225.495646 
L 182.744727 221.641591 
L 183.362658 225.467142 
L 184.247275 211.792151 
L 184.995297 214.836871 
L 185.710796 214.425963 
L 186.36125 222.465293 
L 187.011704 227.178043 
L 187.629635 237.026047 
L 188.33863 210.937941 
L 189.242761 186.843464 
L 189.938747 220.632984 
L 190.595705 232.198154 
L 191.330718 216.921912 
L 192.000685 220.839306 
L 192.586094 240.259921 
L 193.112962 241.576093 
L 193.737397 241.389401 
L 194.348824 236.354965 
L 195.974959 129.60106 
L 196.625413 221.185503 
L 197.256353 232.51139 
L 197.971852 227.685473 
L 198.745892 226.569487 
L 199.838655 163.998697 
L 200.463091 221.814903 
L 201.477799 191.762109 
L 202.147766 233.833418 
L 203.168979 195.696656 
L 204.372318 163.790867 
L 205.69274 164.488209 
L 206.785502 166.748453 
L 207.787201 170.100639 
L 208.730359 194.595974 
L 209.836131 179.094758 
L 210.876857 160.373335 
L 211.872052 168.618531 
L 212.899769 160.73992 
L 213.973018 180.032564 
L 215.091799 169.561214 
L 216.080488 169.217106 
L 217.056169 172.362123 
L 218.038355 162.910379 
L 218.988017 181.094491 
L 219.963698 172.229661 
L 220.958893 171.013373 
L 221.980105 161.033837 
L 223.085877 153.510813 
L 224.016026 164.216136 
L 224.998211 164.853165 
L 226.038937 156.376462 
L 227.021123 153.716809 
L 227.996804 156.586296 
L 228.959475 160.181948 
L 230.02622 144.731001 
L 231.066946 150.632275 
L 232.023113 155.212956 
L 233.141894 153.860218 
L 234.117575 162.367018 
L 235.09976 173.002562 
L 236.003891 165.922355 
L 236.93404 170.378135 
L 237.909721 179.789592 
L 238.761816 177.95154 
L 239.646433 183.14041 
L 240.570077 165.751842 
L 241.506731 176.951606 
L 242.430375 178.131648 
L 243.328002 185.73453 
L 244.225628 188.799059 
L 245.097236 196.981683 
L 245.96234 182.563756 
L 246.859966 192.751265 
L 247.686043 187.366842 
L 248.518624 191.286175 
L 249.383728 203.576768 
L 250.294363 187.780343 
L 251.185485 191.032971 
L 252.02457 189.882587 
L 252.857151 183.493516 
L 253.702741 194.29018 
L 254.541827 182.820166 
L 255.309363 194.486457 
L 256.135439 190.596378 
L 256.955011 186.12961 
L 257.807105 199.955488 
L 258.594155 194.728489 
L 259.374699 197.640034 
L 260.226794 201.732295 
L 261.039861 202.909752 
L 261.917974 199.891451 
L 262.672501 203.781841 
L 263.427027 202.256253 
L 264.240094 198.823157 
L 264.910062 213.960331 
L 265.677598 200.104866 
L 266.425619 202.557784 
L 267.102092 213.467707 
L 267.752545 215.63487 
L 268.559108 204.012059 
L 269.417707 193.9664 
L 270.282811 192.975568 
L 271.004815 205.680618 
L 271.830891 197.75837 
L 272.722013 191.192855 
L 273.535081 190.785527 
L 274.32213 194.99317 
L 275.122188 193.030114 
L 275.87021 202.218622 
L 276.702791 190.16156 
L 278.127285 214.296069 
L 278.894821 206.155221 
L 279.75342 199.713494 
L 280.410378 217.912773 
L 281.099859 210.078203 
L 281.886908 195.501669 
L 282.64794 196.797161 
L 283.317907 211.581723 
L 283.961856 218.131933 
L 285.321305 208.610811 
L 286.049813 205.31456 
L 286.758808 212.851924 
L 287.487316 208.723659 
L 288.248347 199.299137 
L 289.022388 198.656265 
L 289.731382 208.947283 
L 290.589981 184.124798 
L 291.364022 196.329771 
L 292.099035 201.017173 
L 292.860066 198.67514 
L 293.647115 196.991728 
L 294.362614 209.102069 
L 295.071609 206.402349 
L 296.11884 168.198603 
L 296.899384 197.880943 
L 297.614884 211.331474 
L 298.401933 194.85352 
L 299.280045 182.48765 
L 300.13214 184.395392 
L 300.945207 193.270428 
L 301.771284 189.612837 
L 302.532315 201.234927 
L 303.449455 170.88794 
L 304.210486 201.479608 
L 305.049571 188.033127 
L 305.973216 176.903577 
L 306.753761 194.155355 
L 307.748955 175.694566 
L 308.555518 190.561966 
L 309.453144 179.657251 
L 310.29223 187.107479 
L 311.157333 185.410746 
L 312.048455 179.480637 
L 313.668086 116.081419 
L 314.604739 177.67059 
L 315.385284 237.493489 
L 317.167527 110.953584 
L 318.201749 247.948483 
L 319.431107 166.644773 
L 320.732015 142.655168 
L 322.241068 200.183969 
L 323.83468 124.389246 
L 324.172916 283.367817 
L 325.213642 174.262881 
L 325.551878 284.519559 
L 325.714492 292.72043 
L 325.877105 291.739858 
L 326.325918 266.05379 
L 326.547073 292.680271 
L 326.761722 292.726988 
L 326.917831 292.558235 
L 327.282085 285.760274 
L 327.516249 293.252478 
L 329.025302 143.127985 
L 329.304997 286.774811 
L 332.043408 53.568 
L 332.368635 285.369749 
L 333.663038 153.150866 
L 335.367227 119.437973 
L 336.642117 141.654658 
L 337.962538 150.646708 
L 339.003265 177.512684 
L 340.070009 167.723909 
L 341.18879 171.4514 
L 342.16447 159.108954 
L 343.094619 168.509734 
L 344.037778 166.764654 
L 344.941909 171.659061 
L 345.885067 167.590658 
L 346.808711 167.981319 
L 347.66731 176.029867 
L 348.577946 169.912067 
L 349.508095 169.813438 
L 350.412226 167.204106 
L 351.290338 170.094989 
L 352.207478 165.388398 
L 353.072582 172.952447 
L 353.983218 165.822141 
L 354.828808 174.502818 
L 355.687407 173.883202 
L 356.62406 166.296224 
L 357.554209 170.714104 
L 358.497368 168.5546 
L 359.381985 175.238987 
L 360.260098 172.219712 
L 361.990305 174.080504 
L 362.887931 171.873247 
L 363.766044 174.380723 
L 364.585616 183.557871 
L 365.548288 164.123302 
L 366.400382 178.65862 
L 367.245972 179.257192 
L 368.033022 191.878011 
L 368.943657 164.425945 
L 369.815265 175.642547 
L 370.758423 165.095985 
L 371.779636 166.248096 
L 372.625226 180.085381 
L 373.568384 167.076023 
L 374.296893 206.796961 
L 375.240051 164.93664 
L 376.131173 172.412679 
L 377.028799 170.609634 
L 377.757307 207.128582 
L 378.531347 198.257698 
L 379.26636 206.465732 
L 379.988364 206.898497 
L 380.716872 206.252065 
L 381.432372 208.239661 
L 382.219421 199.069196 
L 382.993461 200.186632 
L 383.695951 210.383902 
L 384.404946 208.663701 
L 385.302572 178.685858 
L 386.161172 185.076053 
L 386.88968 205.663141 
L 387.644206 200.376396 
L 388.320678 213.211838 
L 389.101223 198.563595 
L 389.803713 209.330023 
L 390.512708 208.375153 
L 391.215198 209.291309 
L 391.898175 212.939421 
L 392.620179 205.585718 
L 393.322669 209.47316 
L 394.044673 206.919474 
L 394.85774 192.672533 
L 395.644789 196.390447 
L 396.587947 164.987952 
L 397.557124 163.247575 
L 398.487273 177.17747 
L 398.487273 177.17747 
" clip-path="url(#pd6e48542d8)" style="fill: none; stroke: #1f77b4; stroke-width: 1.5; stroke-linecap: square"/>
   </g>
   <g id="patch_3">
    <path d="M 57.6 307.584 
L 57.6 41.472 
" style="fill: none; stroke: #000000; stroke-width: 0.8; stroke-linejoin: miter; stroke-linecap: square"/>
   </g>
   <g id="patch_4">
    <path d="M 414.72 307.584 
L 414.72 41.472 
" style="fill: none; stroke: #000000; stroke-width: 0.8; stroke-linejoin: miter; stroke-linecap: square"/>
   </g>
   <g id="patch_5">
    <path d="M 57.6 307.584 
L 414.72 307.584 
" style="fill: none; stroke: #000000; stroke-width: 0.8; stroke-linejoin: miter; stroke-linecap: square"/>
   </g>
   <g id="patch_6">
    <path d="M 57.6 41.472 
L 414.72 41.472 
" style="fill: none; stroke: #000000; stroke-width: 0.8; stroke-linejoin: miter; stroke-linecap: square"/>
   </g>
   <g id="text_17">
    <!-- learning curve -->
    <g transform="translate(192.96375 35.472) scale(0.12 -0.12)">
     <defs>
      <path id="DejaVuSans-6c" d="M 603 4863 
L 1178 4863 
L 1178 0 
L 603 0 
L 603 4863 
z
" transform="scale(0.015625)"/>
      <path id="DejaVuSans-6e" d="M 3513 2113 
L 3513 0 
L 2938 0 
L 2938 2094 
Q 2938 2591 2744 2837 
Q 2550 3084 2163 3084 
Q 1697 3084 1428 2787 
Q 1159 2491 1159 1978 
L 1159 0 
L 581 0 
L 581 3500 
L 1159 3500 
L 1159 2956 
Q 1366 3272 1645 3428 
Q 1925 3584 2291 3584 
Q 2894 3584 3203 3211 
Q 3513 2838 3513 2113 
z
" transform="scale(0.015625)"/>
      <path id="DejaVuSans-67" d="M 2906 1791 
Q 2906 2416 2648 2759 
Q 2391 3103 1925 3103 
Q 1463 3103 1205 2759 
Q 947 2416 947 1791 
Q 947 1169 1205 825 
Q 1463 481 1925 481 
Q 2391 481 2648 825 
Q 2906 1169 2906 1791 
z
M 3481 434 
Q 3481 -459 3084 -895 
Q 2688 -1331 1869 -1331 
Q 1566 -1331 1297 -1286 
Q 1028 -1241 775 -1147 
L 775 -588 
Q 1028 -725 1275 -790 
Q 1522 -856 1778 -856 
Q 2344 -856 2625 -561 
Q 2906 -266 2906 331 
L 2906 616 
Q 2728 306 2450 153 
Q 2172 0 1784 0 
Q 1141 0 747 490 
Q 353 981 353 1791 
Q 353 2603 747 3093 
Q 1141 3584 1784 3584 
Q 2172 3584 2450 3431 
Q 2728 3278 2906 2969 
L 2906 3500 
L 3481 3500 
L 3481 434 
z
" transform="scale(0.015625)"/>
      <path id="DejaVuSans-20" transform="scale(0.015625)"/>
      <path id="DejaVuSans-63" d="M 3122 3366 
L 3122 2828 
Q 2878 2963 2633 3030 
Q 2388 3097 2138 3097 
Q 1578 3097 1268 2742 
Q 959 2388 959 1747 
Q 959 1106 1268 751 
Q 1578 397 2138 397 
Q 2388 397 2633 464 
Q 2878 531 3122 666 
L 3122 134 
Q 2881 22 2623 -34 
Q 2366 -91 2075 -91 
Q 1284 -91 818 406 
Q 353 903 353 1747 
Q 353 2603 823 3093 
Q 1294 3584 2113 3584 
Q 2378 3584 2631 3529 
Q 2884 3475 3122 3366 
z
" transform="scale(0.015625)"/>
      <path id="DejaVuSans-75" d="M 544 1381 
L 544 3500 
L 1119 3500 
L 1119 1403 
Q 1119 906 1312 657 
Q 1506 409 1894 409 
Q 2359 409 2629 706 
Q 2900 1003 2900 1516 
L 2900 3500 
L 3475 3500 
L 3475 0 
L 2900 0 
L 2900 538 
Q 2691 219 2414 64 
Q 2138 -91 1772 -91 
Q 1169 -91 856 284 
Q 544 659 544 1381 
z
M 1991 3584 
L 1991 3584 
z
" transform="scale(0.015625)"/>
      <path id="DejaVuSans-76" d="M 191 3500 
L 800 3500 
L 1894 563 
L 2988 3500 
L 3597 3500 
L 2284 0 
L 1503 0 
L 191 3500 
z
" transform="scale(0.015625)"/>
     </defs>
     <use xlink:href="#DejaVuSans-6c"/>
     <use xlink:href="#DejaVuSans-65" x="27.783203"/>
     <use xlink:href="#DejaVuSans-61" x="89.306641"/>
     <use xlink:href="#DejaVuSans-72" x="150.585938"/>
     <use xlink:href="#DejaVuSans-6e" x="189.949219"/>
     <use xlink:href="#DejaVuSans-69" x="253.328125"/>
     <use xlink:href="#DejaVuSans-6e" x="281.111328"/>
     <use xlink:href="#DejaVuSans-67" x="344.490234"/>
     <use xlink:href="#DejaVuSans-20" x="407.966797"/>
     <use xlink:href="#DejaVuSans-63" x="439.753906"/>
     <use xlink:href="#DejaVuSans-75" x="494.734375"/>
     <use xlink:href="#DejaVuSans-72" x="558.113281"/>
     <use xlink:href="#DejaVuSans-76" x="599.226562"/>
     <use xlink:href="#DejaVuSans-65" x="658.40625"/>
    </g>
   </g>
  </g>
 </g>
 <defs>
  <clipPath id="pd6e48542d8">
   <rect x="57.6" y="41.472" width="357.12" height="266.112"/>
  </clipPath>
 </defs>
</svg>
