<?xml version="1.0" encoding="utf-8" standalone="no"?>
<!DOCTYPE svg PUBLIC "-//W3C//DTD SVG 1.1//EN"
  "http://www.w3.org/Graphics/SVG/1.1/DTD/svg11.dtd">
<svg xmlns:xlink="http://www.w3.org/1999/xlink" width="460.8pt" height="345.6pt" viewBox="0 0 460.8 345.6" xmlns="http://www.w3.org/2000/svg" version="1.1">
 <metadata>
  <rdf:RDF xmlns:dc="http://purl.org/dc/elements/1.1/" xmlns:cc="http://creativecommons.org/ns#" xmlns:rdf="http://www.w3.org/1999/02/22-rdf-syntax-ns#">
   <cc:Work>
    <dc:type rdf:resource="http://purl.org/dc/dcmitype/StillImage"/>
    <dc:date>2023-08-18T21:35:58.854419</dc:date>
    <dc:format>image/svg+xml</dc:format>
    <dc:creator>
     <cc:Agent>
      <dc:title>Matplotlib v3.7.1, https://matplotlib.org/</dc:title>
     </cc:Agent>
    </dc:creator>
   </cc:Work>
  </rdf:RDF>
 </metadata>
 <defs>
  <style type="text/css">*{stroke-linejoin: round; stroke-linecap: butt}</style>
 </defs>
 <g id="figure_1">
  <g id="patch_1">
   <path d="M 0 345.6 
L 460.8 345.6 
L 460.8 0 
L 0 0 
z
" style="fill: #ffffff"/>
  </g>
  <g id="axes_1">
   <g id="patch_2">
    <path d="M 57.6 307.584 
L 414.72 307.584 
L 414.72 41.472 
L 57.6 41.472 
z
" style="fill: #ffffff"/>
   </g>
   <g id="matplotlib.axis_1">
    <g id="xtick_1">
     <g id="line2d_1">
      <defs>
       <path id="m5134c639f4" d="M 0 0 
L 0 3.5 
" style="stroke: #000000; stroke-width: 0.8"/>
      </defs>
      <g>
       <use xlink:href="#m5134c639f4" x="73.715744" y="307.584" style="stroke: #000000; stroke-width: 0.8"/>
      </g>
     </g>
     <g id="text_1">
      <!-- 0 -->
      <g transform="translate(70.534494 322.182437) scale(0.1 -0.1)">
       <defs>
        <path id="DejaVuSans-30" d="M 2034 4250 
Q 1547 4250 1301 3770 
Q 1056 3291 1056 2328 
Q 1056 1369 1301 889 
Q 1547 409 2034 409 
Q 2525 409 2770 889 
Q 3016 1369 3016 2328 
Q 3016 3291 2770 3770 
Q 2525 4250 2034 4250 
z
M 2034 4750 
Q 2819 4750 3233 4129 
Q 3647 3509 3647 2328 
Q 3647 1150 3233 529 
Q 2819 -91 2034 -91 
Q 1250 -91 836 529 
Q 422 1150 422 2328 
Q 422 3509 836 4129 
Q 1250 4750 2034 4750 
z
" transform="scale(0.015625)"/>
       </defs>
       <use xlink:href="#DejaVuSans-30"/>
      </g>
     </g>
    </g>
    <g id="xtick_2">
     <g id="line2d_2">
      <g>
       <use xlink:href="#m5134c639f4" x="138.706445" y="307.584" style="stroke: #000000; stroke-width: 0.8"/>
      </g>
     </g>
     <g id="text_2">
      <!-- 10000 -->
      <g transform="translate(122.800195 322.182437) scale(0.1 -0.1)">
       <defs>
        <path id="DejaVuSans-31" d="M 794 531 
L 1825 531 
L 1825 4091 
L 703 3866 
L 703 4441 
L 1819 4666 
L 2450 4666 
L 2450 531 
L 3481 531 
L 3481 0 
L 794 0 
L 794 531 
z
" transform="scale(0.015625)"/>
       </defs>
       <use xlink:href="#DejaVuSans-31"/>
       <use xlink:href="#DejaVuSans-30" x="63.623047"/>
       <use xlink:href="#DejaVuSans-30" x="127.246094"/>
       <use xlink:href="#DejaVuSans-30" x="190.869141"/>
       <use xlink:href="#DejaVuSans-30" x="254.492188"/>
      </g>
     </g>
    </g>
    <g id="xtick_3">
     <g id="line2d_3">
      <g>
       <use xlink:href="#m5134c639f4" x="203.697145" y="307.584" style="stroke: #000000; stroke-width: 0.8"/>
      </g>
     </g>
     <g id="text_3">
      <!-- 20000 -->
      <g transform="translate(187.790895 322.182437) scale(0.1 -0.1)">
       <defs>
        <path id="DejaVuSans-32" d="M 1228 531 
L 3431 531 
L 3431 0 
L 469 0 
L 469 531 
Q 828 903 1448 1529 
Q 2069 2156 2228 2338 
Q 2531 2678 2651 2914 
Q 2772 3150 2772 3378 
Q 2772 3750 2511 3984 
Q 2250 4219 1831 4219 
Q 1534 4219 1204 4116 
Q 875 4013 500 3803 
L 500 4441 
Q 881 4594 1212 4672 
Q 1544 4750 1819 4750 
Q 2544 4750 2975 4387 
Q 3406 4025 3406 3419 
Q 3406 3131 3298 2873 
Q 3191 2616 2906 2266 
Q 2828 2175 2409 1742 
Q 1991 1309 1228 531 
z
" transform="scale(0.015625)"/>
       </defs>
       <use xlink:href="#DejaVuSans-32"/>
       <use xlink:href="#DejaVuSans-30" x="63.623047"/>
       <use xlink:href="#DejaVuSans-30" x="127.246094"/>
       <use xlink:href="#DejaVuSans-30" x="190.869141"/>
       <use xlink:href="#DejaVuSans-30" x="254.492188"/>
      </g>
     </g>
    </g>
    <g id="xtick_4">
     <g id="line2d_4">
      <g>
       <use xlink:href="#m5134c639f4" x="268.687846" y="307.584" style="stroke: #000000; stroke-width: 0.8"/>
      </g>
     </g>
     <g id="text_4">
      <!-- 30000 -->
      <g transform="translate(252.781596 322.182437) scale(0.1 -0.1)">
       <defs>
        <path id="DejaVuSans-33" d="M 2597 2516 
Q 3050 2419 3304 2112 
Q 3559 1806 3559 1356 
Q 3559 666 3084 287 
Q 2609 -91 1734 -91 
Q 1441 -91 1130 -33 
Q 819 25 488 141 
L 488 750 
Q 750 597 1062 519 
Q 1375 441 1716 441 
Q 2309 441 2620 675 
Q 2931 909 2931 1356 
Q 2931 1769 2642 2001 
Q 2353 2234 1838 2234 
L 1294 2234 
L 1294 2753 
L 1863 2753 
Q 2328 2753 2575 2939 
Q 2822 3125 2822 3475 
Q 2822 3834 2567 4026 
Q 2313 4219 1838 4219 
Q 1578 4219 1281 4162 
Q 984 4106 628 3988 
L 628 4550 
Q 988 4650 1302 4700 
Q 1616 4750 1894 4750 
Q 2613 4750 3031 4423 
Q 3450 4097 3450 3541 
Q 3450 3153 3228 2886 
Q 3006 2619 2597 2516 
z
" transform="scale(0.015625)"/>
       </defs>
       <use xlink:href="#DejaVuSans-33"/>
       <use xlink:href="#DejaVuSans-30" x="63.623047"/>
       <use xlink:href="#DejaVuSans-30" x="127.246094"/>
       <use xlink:href="#DejaVuSans-30" x="190.869141"/>
       <use xlink:href="#DejaVuSans-30" x="254.492188"/>
      </g>
     </g>
    </g>
    <g id="xtick_5">
     <g id="line2d_5">
      <g>
       <use xlink:href="#m5134c639f4" x="333.678546" y="307.584" style="stroke: #000000; stroke-width: 0.8"/>
      </g>
     </g>
     <g id="text_5">
      <!-- 40000 -->
      <g transform="translate(317.772296 322.182437) scale(0.1 -0.1)">
       <defs>
        <path id="DejaVuSans-34" d="M 2419 4116 
L 825 1625 
L 2419 1625 
L 2419 4116 
z
M 2253 4666 
L 3047 4666 
L 3047 1625 
L 3713 1625 
L 3713 1100 
L 3047 1100 
L 3047 0 
L 2419 0 
L 2419 1100 
L 313 1100 
L 313 1709 
L 2253 4666 
z
" transform="scale(0.015625)"/>
       </defs>
       <use xlink:href="#DejaVuSans-34"/>
       <use xlink:href="#DejaVuSans-30" x="63.623047"/>
       <use xlink:href="#DejaVuSans-30" x="127.246094"/>
       <use xlink:href="#DejaVuSans-30" x="190.869141"/>
       <use xlink:href="#DejaVuSans-30" x="254.492188"/>
      </g>
     </g>
    </g>
    <g id="xtick_6">
     <g id="line2d_6">
      <g>
       <use xlink:href="#m5134c639f4" x="398.669247" y="307.584" style="stroke: #000000; stroke-width: 0.8"/>
      </g>
     </g>
     <g id="text_6">
      <!-- 50000 -->
      <g transform="translate(382.762997 322.182437) scale(0.1 -0.1)">
       <defs>
        <path id="DejaVuSans-35" d="M 691 4666 
L 3169 4666 
L 3169 4134 
L 1269 4134 
L 1269 2991 
Q 1406 3038 1543 3061 
Q 1681 3084 1819 3084 
Q 2600 3084 3056 2656 
Q 3513 2228 3513 1497 
Q 3513 744 3044 326 
Q 2575 -91 1722 -91 
Q 1428 -91 1123 -41 
Q 819 9 494 109 
L 494 744 
Q 775 591 1075 516 
Q 1375 441 1709 441 
Q 2250 441 2565 725 
Q 2881 1009 2881 1497 
Q 2881 1984 2565 2268 
Q 2250 2553 1709 2553 
Q 1456 2553 1204 2497 
Q 953 2441 691 2322 
L 691 4666 
z
" transform="scale(0.015625)"/>
       </defs>
       <use xlink:href="#DejaVuSans-35"/>
       <use xlink:href="#DejaVuSans-30" x="63.623047"/>
       <use xlink:href="#DejaVuSans-30" x="127.246094"/>
       <use xlink:href="#DejaVuSans-30" x="190.869141"/>
       <use xlink:href="#DejaVuSans-30" x="254.492188"/>
      </g>
     </g>
    </g>
    <g id="text_7">
     <!-- timesteps -->
     <g transform="translate(211.443594 335.860562) scale(0.1 -0.1)">
      <defs>
       <path id="DejaVuSans-74" d="M 1172 4494 
L 1172 3500 
L 2356 3500 
L 2356 3053 
L 1172 3053 
L 1172 1153 
Q 1172 725 1289 603 
Q 1406 481 1766 481 
L 2356 481 
L 2356 0 
L 1766 0 
Q 1100 0 847 248 
Q 594 497 594 1153 
L 594 3053 
L 172 3053 
L 172 3500 
L 594 3500 
L 594 4494 
L 1172 4494 
z
" transform="scale(0.015625)"/>
       <path id="DejaVuSans-69" d="M 603 3500 
L 1178 3500 
L 1178 0 
L 603 0 
L 603 3500 
z
M 603 4863 
L 1178 4863 
L 1178 4134 
L 603 4134 
L 603 4863 
z
" transform="scale(0.015625)"/>
       <path id="DejaVuSans-6d" d="M 3328 2828 
Q 3544 3216 3844 3400 
Q 4144 3584 4550 3584 
Q 5097 3584 5394 3201 
Q 5691 2819 5691 2113 
L 5691 0 
L 5113 0 
L 5113 2094 
Q 5113 2597 4934 2840 
Q 4756 3084 4391 3084 
Q 3944 3084 3684 2787 
Q 3425 2491 3425 1978 
L 3425 0 
L 2847 0 
L 2847 2094 
Q 2847 2600 2669 2842 
Q 2491 3084 2119 3084 
Q 1678 3084 1418 2786 
Q 1159 2488 1159 1978 
L 1159 0 
L 581 0 
L 581 3500 
L 1159 3500 
L 1159 2956 
Q 1356 3278 1631 3431 
Q 1906 3584 2284 3584 
Q 2666 3584 2933 3390 
Q 3200 3197 3328 2828 
z
" transform="scale(0.015625)"/>
       <path id="DejaVuSans-65" d="M 3597 1894 
L 3597 1613 
L 953 1613 
Q 991 1019 1311 708 
Q 1631 397 2203 397 
Q 2534 397 2845 478 
Q 3156 559 3463 722 
L 3463 178 
Q 3153 47 2828 -22 
Q 2503 -91 2169 -91 
Q 1331 -91 842 396 
Q 353 884 353 1716 
Q 353 2575 817 3079 
Q 1281 3584 2069 3584 
Q 2775 3584 3186 3129 
Q 3597 2675 3597 1894 
z
M 3022 2063 
Q 3016 2534 2758 2815 
Q 2500 3097 2075 3097 
Q 1594 3097 1305 2825 
Q 1016 2553 972 2059 
L 3022 2063 
z
" transform="scale(0.015625)"/>
       <path id="DejaVuSans-73" d="M 2834 3397 
L 2834 2853 
Q 2591 2978 2328 3040 
Q 2066 3103 1784 3103 
Q 1356 3103 1142 2972 
Q 928 2841 928 2578 
Q 928 2378 1081 2264 
Q 1234 2150 1697 2047 
L 1894 2003 
Q 2506 1872 2764 1633 
Q 3022 1394 3022 966 
Q 3022 478 2636 193 
Q 2250 -91 1575 -91 
Q 1294 -91 989 -36 
Q 684 19 347 128 
L 347 722 
Q 666 556 975 473 
Q 1284 391 1588 391 
Q 1994 391 2212 530 
Q 2431 669 2431 922 
Q 2431 1156 2273 1281 
Q 2116 1406 1581 1522 
L 1381 1569 
Q 847 1681 609 1914 
Q 372 2147 372 2553 
Q 372 3047 722 3315 
Q 1072 3584 1716 3584 
Q 2034 3584 2315 3537 
Q 2597 3491 2834 3397 
z
" transform="scale(0.015625)"/>
       <path id="DejaVuSans-70" d="M 1159 525 
L 1159 -1331 
L 581 -1331 
L 581 3500 
L 1159 3500 
L 1159 2969 
Q 1341 3281 1617 3432 
Q 1894 3584 2278 3584 
Q 2916 3584 3314 3078 
Q 3713 2572 3713 1747 
Q 3713 922 3314 415 
Q 2916 -91 2278 -91 
Q 1894 -91 1617 61 
Q 1341 213 1159 525 
z
M 3116 1747 
Q 3116 2381 2855 2742 
Q 2594 3103 2138 3103 
Q 1681 3103 1420 2742 
Q 1159 2381 1159 1747 
Q 1159 1113 1420 752 
Q 1681 391 2138 391 
Q 2594 391 2855 752 
Q 3116 1113 3116 1747 
z
" transform="scale(0.015625)"/>
      </defs>
      <use xlink:href="#DejaVuSans-74"/>
      <use xlink:href="#DejaVuSans-69" x="39.208984"/>
      <use xlink:href="#DejaVuSans-6d" x="66.992188"/>
      <use xlink:href="#DejaVuSans-65" x="164.404297"/>
      <use xlink:href="#DejaVuSans-73" x="225.927734"/>
      <use xlink:href="#DejaVuSans-74" x="278.027344"/>
      <use xlink:href="#DejaVuSans-65" x="317.236328"/>
      <use xlink:href="#DejaVuSans-70" x="378.759766"/>
      <use xlink:href="#DejaVuSans-73" x="442.236328"/>
     </g>
    </g>
   </g>
   <g id="matplotlib.axis_2">
    <g id="ytick_1">
     <g id="line2d_7">
      <defs>
       <path id="m2b8675c4f4" d="M 0 0 
L -3.5 0 
" style="stroke: #000000; stroke-width: 0.8"/>
      </defs>
      <g>
       <use xlink:href="#m2b8675c4f4" x="57.6" y="296.954198" style="stroke: #000000; stroke-width: 0.8"/>
      </g>
     </g>
     <g id="text_8">
      <!-- 0 -->
      <g transform="translate(44.2375 300.753417) scale(0.1 -0.1)">
       <use xlink:href="#DejaVuSans-30"/>
      </g>
     </g>
    </g>
    <g id="ytick_2">
     <g id="line2d_8">
      <g>
       <use xlink:href="#m2b8675c4f4" x="57.6" y="259.517711" style="stroke: #000000; stroke-width: 0.8"/>
      </g>
     </g>
     <g id="text_9">
      <!-- 100 -->
      <g transform="translate(31.5125 263.31693) scale(0.1 -0.1)">
       <use xlink:href="#DejaVuSans-31"/>
       <use xlink:href="#DejaVuSans-30" x="63.623047"/>
       <use xlink:href="#DejaVuSans-30" x="127.246094"/>
      </g>
     </g>
    </g>
    <g id="ytick_3">
     <g id="line2d_9">
      <g>
       <use xlink:href="#m2b8675c4f4" x="57.6" y="222.081225" style="stroke: #000000; stroke-width: 0.8"/>
      </g>
     </g>
     <g id="text_10">
      <!-- 200 -->
      <g transform="translate(31.5125 225.880443) scale(0.1 -0.1)">
       <use xlink:href="#DejaVuSans-32"/>
       <use xlink:href="#DejaVuSans-30" x="63.623047"/>
       <use xlink:href="#DejaVuSans-30" x="127.246094"/>
      </g>
     </g>
    </g>
    <g id="ytick_4">
     <g id="line2d_10">
      <g>
       <use xlink:href="#m2b8675c4f4" x="57.6" y="184.644738" style="stroke: #000000; stroke-width: 0.8"/>
      </g>
     </g>
     <g id="text_11">
      <!-- 300 -->
      <g transform="translate(31.5125 188.443957) scale(0.1 -0.1)">
       <use xlink:href="#DejaVuSans-33"/>
       <use xlink:href="#DejaVuSans-30" x="63.623047"/>
       <use xlink:href="#DejaVuSans-30" x="127.246094"/>
      </g>
     </g>
    </g>
    <g id="ytick_5">
     <g id="line2d_11">
      <g>
       <use xlink:href="#m2b8675c4f4" x="57.6" y="147.208251" style="stroke: #000000; stroke-width: 0.8"/>
      </g>
     </g>
     <g id="text_12">
      <!-- 400 -->
      <g transform="translate(31.5125 151.00747) scale(0.1 -0.1)">
       <use xlink:href="#DejaVuSans-34"/>
       <use xlink:href="#DejaVuSans-30" x="63.623047"/>
       <use xlink:href="#DejaVuSans-30" x="127.246094"/>
      </g>
     </g>
    </g>
    <g id="ytick_6">
     <g id="line2d_12">
      <g>
       <use xlink:href="#m2b8675c4f4" x="57.6" y="109.771765" style="stroke: #000000; stroke-width: 0.8"/>
      </g>
     </g>
     <g id="text_13">
      <!-- 500 -->
      <g transform="translate(31.5125 113.570983) scale(0.1 -0.1)">
       <use xlink:href="#DejaVuSans-35"/>
       <use xlink:href="#DejaVuSans-30" x="63.623047"/>
       <use xlink:href="#DejaVuSans-30" x="127.246094"/>
      </g>
     </g>
    </g>
    <g id="ytick_7">
     <g id="line2d_13">
      <g>
       <use xlink:href="#m2b8675c4f4" x="57.6" y="72.335278" style="stroke: #000000; stroke-width: 0.8"/>
      </g>
     </g>
     <g id="text_14">
      <!-- 600 -->
      <g transform="translate(31.5125 76.134497) scale(0.1 -0.1)">
       <defs>
        <path id="DejaVuSans-36" d="M 2113 2584 
Q 1688 2584 1439 2293 
Q 1191 2003 1191 1497 
Q 1191 994 1439 701 
Q 1688 409 2113 409 
Q 2538 409 2786 701 
Q 3034 994 3034 1497 
Q 3034 2003 2786 2293 
Q 2538 2584 2113 2584 
z
M 3366 4563 
L 3366 3988 
Q 3128 4100 2886 4159 
Q 2644 4219 2406 4219 
Q 1781 4219 1451 3797 
Q 1122 3375 1075 2522 
Q 1259 2794 1537 2939 
Q 1816 3084 2150 3084 
Q 2853 3084 3261 2657 
Q 3669 2231 3669 1497 
Q 3669 778 3244 343 
Q 2819 -91 2113 -91 
Q 1303 -91 875 529 
Q 447 1150 447 2328 
Q 447 3434 972 4092 
Q 1497 4750 2381 4750 
Q 2619 4750 2861 4703 
Q 3103 4656 3366 4563 
z
" transform="scale(0.015625)"/>
       </defs>
       <use xlink:href="#DejaVuSans-36"/>
       <use xlink:href="#DejaVuSans-30" x="63.623047"/>
       <use xlink:href="#DejaVuSans-30" x="127.246094"/>
      </g>
     </g>
    </g>
    <g id="text_15">
     <!-- rewards -->
     <g transform="translate(25.432812 194.447531) rotate(-90) scale(0.1 -0.1)">
      <defs>
       <path id="DejaVuSans-72" d="M 2631 2963 
Q 2534 3019 2420 3045 
Q 2306 3072 2169 3072 
Q 1681 3072 1420 2755 
Q 1159 2438 1159 1844 
L 1159 0 
L 581 0 
L 581 3500 
L 1159 3500 
L 1159 2956 
Q 1341 3275 1631 3429 
Q 1922 3584 2338 3584 
Q 2397 3584 2469 3576 
Q 2541 3569 2628 3553 
L 2631 2963 
z
" transform="scale(0.015625)"/>
       <path id="DejaVuSans-77" d="M 269 3500 
L 844 3500 
L 1563 769 
L 2278 3500 
L 2956 3500 
L 3675 769 
L 4391 3500 
L 4966 3500 
L 4050 0 
L 3372 0 
L 2619 2869 
L 1863 0 
L 1184 0 
L 269 3500 
z
" transform="scale(0.015625)"/>
       <path id="DejaVuSans-61" d="M 2194 1759 
Q 1497 1759 1228 1600 
Q 959 1441 959 1056 
Q 959 750 1161 570 
Q 1363 391 1709 391 
Q 2188 391 2477 730 
Q 2766 1069 2766 1631 
L 2766 1759 
L 2194 1759 
z
M 3341 1997 
L 3341 0 
L 2766 0 
L 2766 531 
Q 2569 213 2275 61 
Q 1981 -91 1556 -91 
Q 1019 -91 701 211 
Q 384 513 384 1019 
Q 384 1609 779 1909 
Q 1175 2209 1959 2209 
L 2766 2209 
L 2766 2266 
Q 2766 2663 2505 2880 
Q 2244 3097 1772 3097 
Q 1472 3097 1187 3025 
Q 903 2953 641 2809 
L 641 3341 
Q 956 3463 1253 3523 
Q 1550 3584 1831 3584 
Q 2591 3584 2966 3190 
Q 3341 2797 3341 1997 
z
" transform="scale(0.015625)"/>
       <path id="DejaVuSans-64" d="M 2906 2969 
L 2906 4863 
L 3481 4863 
L 3481 0 
L 2906 0 
L 2906 525 
Q 2725 213 2448 61 
Q 2172 -91 1784 -91 
Q 1150 -91 751 415 
Q 353 922 353 1747 
Q 353 2572 751 3078 
Q 1150 3584 1784 3584 
Q 2172 3584 2448 3432 
Q 2725 3281 2906 2969 
z
M 947 1747 
Q 947 1113 1208 752 
Q 1469 391 1925 391 
Q 2381 391 2643 752 
Q 2906 1113 2906 1747 
Q 2906 2381 2643 2742 
Q 2381 3103 1925 3103 
Q 1469 3103 1208 2742 
Q 947 2381 947 1747 
z
" transform="scale(0.015625)"/>
      </defs>
      <use xlink:href="#DejaVuSans-72"/>
      <use xlink:href="#DejaVuSans-65" x="38.863281"/>
      <use xlink:href="#DejaVuSans-77" x="100.386719"/>
      <use xlink:href="#DejaVuSans-61" x="182.173828"/>
      <use xlink:href="#DejaVuSans-72" x="243.453125"/>
      <use xlink:href="#DejaVuSans-64" x="282.816406"/>
      <use xlink:href="#DejaVuSans-73" x="346.292969"/>
     </g>
    </g>
   </g>
   <g id="line2d_14">
    <path d="M 73.832727 293.570229 
L 73.930213 291.919465 
L 74.09269 291.483958 
L 74.190176 292.726999 
L 74.417644 290.986425 
L 74.482634 294.850403 
L 74.755595 290.828583 
L 74.892076 290.43825 
L 75.080549 292.692446 
L 75.178035 293.601845 
L 75.28202 291.29876 
L 75.548482 291.085499 
L 75.639469 293.284703 
L 75.736955 292.55184 
L 75.853938 290.023026 
L 75.951424 292.957842 
L 76.061908 292.463062 
L 76.497346 262.492223 
L 76.60783 293.685012 
L 76.75081 291.308448 
L 76.861294 293.591473 
L 76.991275 289.032133 
L 77.121257 295.296289 
L 77.218743 293.806831 
L 77.420214 284.26186 
L 77.504702 293.1791 
L 77.732169 287.100391 
L 77.927141 288.242797 
L 77.985633 294.471177 
L 78.252095 287.967992 
L 78.323585 294.778433 
L 78.512058 293.005449 
L 78.596546 293.019151 
L 79.051481 257.903308 
L 79.155466 294.634231 
L 79.441425 287.571935 
L 79.571406 292.296015 
L 79.701388 291.216221 
L 79.82487 293.209723 
L 80.058836 284.359707 
L 80.195317 290.245786 
L 80.422784 282.374371 
L 80.546267 292.851069 
L 80.73474 286.86159 
L 80.903715 287.322296 
L 81.0142 293.223568 
L 81.22217 290.203633 
L 81.300159 293.298029 
L 81.43014 290.873857 
L 81.560122 291.536674 
L 81.612114 294.832535 
L 82.028055 252.917252 
L 82.184032 290.457575 
L 82.314014 290.884236 
L 82.398502 293.591254 
L 82.534982 288.940914 
L 82.794945 294.149913 
L 83.002915 286.431626 
L 83.074405 294.111312 
L 83.152394 293.361834 
L 83.282375 292.36659 
L 83.431854 288.304436 
L 83.652822 293.285339 
L 84.049265 288.865236 
L 84.205243 293.42713 
L 84.322226 293.673912 
L 84.419712 293.246634 
L 84.478204 294.450685 
L 84.608185 291.666829 
L 84.744666 292.217328 
L 84.907143 291.06997 
L 85.128111 292.198325 
L 85.258092 294.864461 
L 85.635038 285.729072 
L 85.804014 286.218645 
L 85.907999 291.534357 
L 86.304443 284.475851 
L 86.486417 293.738556 
L 86.824368 284.234651 
L 86.980346 292.25594 
L 87.09083 292.18124 
L 87.311799 286.039622 
L 87.409285 293.955612 
L 87.51327 293.666942 
L 87.779732 284.29943 
L 87.890216 292.26009 
L 88.007199 292.373835 
L 88.48813 257.046024 
L 88.709099 292.850082 
L 88.852078 291.395442 
L 89.086045 281.991011 
L 89.346007 293.885156 
L 89.579974 291.780081 
L 90.145393 265.750299 
L 90.216883 294.176567 
L 90.333866 290.64567 
L 90.51584 292.704301 
L 90.626324 292.359966 
L 90.762805 290.28497 
L 90.990272 283.571215 
L 91.295729 293.455959 
L 91.555691 291.816302 
L 91.685673 289.519684 
L 91.757162 294.396156 
L 91.848149 293.325215 
L 92.069118 287.59988 
L 92.147107 292.810553 
L 92.361576 285.040676 
L 92.537051 292.948872 
L 92.667032 292.158543 
L 92.758019 294.686397 
L 92.862004 291.276448 
L 93.004984 292.205862 
L 93.167461 290.494556 
L 93.420924 293.2914 
L 93.52491 292.844298 
L 93.706883 291.478051 
L 93.862861 289.128815 
L 94.018839 289.305791 
L 94.122824 293.364908 
L 94.252805 290.102205 
L 94.415282 290.101526 
L 94.655748 283.25293 
L 94.948206 294.781764 
L 95.149677 292.119068 
L 95.331651 288.841074 
L 95.416139 293.289868 
L 95.500627 292.755701 
L 95.682601 293.520262 
L 95.786586 293.319943 
L 96.033551 287.380559 
L 96.365003 293.811954 
L 96.501484 289.484393 
L 96.605469 292.006136 
L 96.709454 290.926813 
L 96.793942 293.44912 
L 96.995413 283.174461 
L 97.164389 291.194408 
L 97.36586 285.91299 
L 97.50234 288.412966 
L 97.651819 293.45118 
L 97.749305 293.685346 
L 97.827294 293.101283 
L 97.92478 293.363404 
L 98.06776 288.319988 
L 98.223737 291.88877 
L 98.34072 291.577041 
L 98.425208 294.147666 
L 98.529193 291.971048 
L 98.847648 294.410412 
L 99.010125 291.812151 
L 99.1856 293.563995 
L 99.374073 283.028658 
L 99.45856 293.586264 
L 99.614538 289.762783 
L 99.764017 294.416705 
L 100.049976 285.314956 
L 100.270944 286.471287 
L 100.387928 290.77649 
L 100.641391 281.134056 
L 100.855861 294.389655 
L 101.180814 283.60863 
L 101.414781 293.967927 
L 101.648747 281.177637 
L 101.889213 285.416884 
L 102.012695 293.602539 
L 102.090684 293.271834 
L 102.168673 293.542691 
L 102.298654 294.808365 
L 102.500125 283.573307 
L 102.773086 293.165519 
L 102.916066 292.6349 
L 103.299511 262.782783 
L 103.364502 294.399066 
L 103.526978 293.122929 
L 103.617965 293.680856 
L 104.118394 251.802669 
L 104.170386 294.728541 
L 104.241876 293.539742 
L 104.345861 294.643324 
L 104.482342 291.381337 
L 104.573329 294.097659 
L 104.768301 287.078367 
L 105.099753 280.070795 
L 105.457202 293.536199 
L 105.554688 291.681271 
L 105.82115 289.696028 
L 106.133105 294.346137 
L 106.30858 290.052358 
L 106.52305 292.339902 
L 106.633534 292.486562 
L 106.990983 282.464686 
L 107.341932 292.930602 
L 107.575899 291.163886 
L 107.796867 288.270675 
L 107.894353 291.908708 
L 108.121821 292.137398 
L 108.225806 292.994745 
L 108.342789 290.435008 
L 108.427277 292.813372 
L 108.524763 291.501206 
L 108.622249 292.911062 
L 108.726234 292.765455 
L 108.843218 291.096625 
L 109.025192 290.399006 
L 109.135676 292.55455 
L 109.311151 285.488252 
L 109.45413 292.459227 
L 109.649102 293.025738 
L 109.746588 292.344775 
L 109.94156 293.530435 
L 110.026048 292.389829 
L 110.162529 292.37939 
L 110.318507 287.255179 
L 110.480983 288.830634 
L 110.71495 293.052752 
L 110.857929 289.101538 
L 110.942417 293.729276 
L 111.0659 293.115274 
L 111.13089 295.488 
L 111.267371 288.537787 
L 111.371356 293.32947 
L 111.540332 293.44492 
L 111.68981 291.939026 
L 111.858786 288.998644 
L 111.962771 292.995115 
L 112.079755 291.748839 
L 112.255229 287.788229 
L 112.378712 294.488359 
L 112.586682 291.500632 
L 112.664671 293.284177 
L 113.02212 261.395525 
L 113.139103 293.499536 
L 113.262585 290.330185 
L 113.477055 293.76435 
L 113.730518 288.765264 
L 114.048973 293.491604 
L 114.282939 290.022744 
L 114.529904 290.593183 
L 114.69888 292.785343 
L 114.841859 290.346468 
L 114.913349 294.304883 
L 115.134317 292.501213 
L 115.225304 294.660954 
L 115.355286 290.021696 
L 115.439774 294.034032 
L 115.582753 290.268104 
L 115.641245 294.632751 
L 115.901208 291.081018 
L 116.089681 291.603067 
L 116.161171 294.351546 
L 116.271655 292.932148 
L 116.603107 281.34175 
L 116.889066 285.434724 
L 117.00605 291.369858 
L 117.246515 282.738866 
L 117.49348 283.421126 
L 117.610463 291.608515 
L 117.753443 291.620593 
L 117.870426 291.369816 
L 117.974411 293.53049 
L 118.097893 290.19225 
L 118.208378 293.028415 
L 118.487838 278.915228 
L 118.630817 287.448965 
L 118.916776 275.925022 
L 119.079253 287.247411 
L 119.267726 289.815531 
L 119.339216 294.08298 
L 119.651171 285.964826 
L 119.755156 292.657587 
L 119.917633 291.576559 
L 120.197093 288.423897 
L 120.294579 293.26919 
L 120.444058 293.571611 
L 120.554542 292.487503 
L 120.63903 294.482264 
L 120.717019 293.590539 
L 120.814505 294.268585 
L 120.924989 293.631005 
L 121.360427 279.323417 
L 121.75687 289.188572 
L 121.958341 288.972759 
L 122.328788 269.356594 
L 122.432773 292.715195 
L 122.588751 290.957058 
L 122.816218 290.120208 
L 122.972196 293.484644 
L 123.219161 282.206533 
L 123.342643 292.905719 
L 123.635101 276.593139 
L 123.901563 292.177424 
L 124.109533 280.815718 
L 124.207019 293.774334 
L 124.330502 292.574569 
L 124.564468 284.550191 
L 124.700949 292.616842 
L 124.817932 290.745257 
L 124.941414 292.79306 
L 125.064897 292.366073 
L 125.38985 269.073418 
L 125.584822 288.932594 
L 125.87728 275.171751 
L 126.267224 280.765969 
L 126.351712 294.393033 
L 126.468696 291.825878 
L 126.839143 277.332962 
L 126.93013 293.146622 
L 127.034115 292.196801 
L 127.294078 291.946356 
L 127.430558 288.149985 
L 127.55404 294.454112 
L 127.76851 293.451426 
L 127.943985 293.180338 
L 128.11296 292.346831 
L 128.210446 292.622757 
L 128.32743 293.409348 
L 128.522402 285.175946 
L 128.697877 293.651105 
L 128.925344 291.766867 
L 129.029329 291.931881 
L 129.178808 292.355997 
L 129.237299 294.545722 
L 129.321787 292.239754 
L 129.386778 293.940138 
L 129.659739 280.851988 
L 129.776722 292.447829 
L 129.874208 292.366118 
L 130.043184 288.195822 
L 130.186164 289.245653 
L 130.28365 292.678255 
L 130.647598 278.415692 
L 130.777579 288.591067 
L 130.946555 288.344619 
L 131.076536 289.298446 
L 131.25851 288.192905 
L 131.368994 291.729195 
L 131.583464 292.813941 
L 131.68095 292.744575 
L 131.849926 291.495994 
L 132.005903 293.121037 
L 132.161881 286.41396 
L 132.298361 294.539723 
L 132.51933 290.871635 
L 132.746797 294.282878 
L 132.941769 282.954286 
L 133.266723 293.403561 
L 133.533185 271.261646 
L 133.676164 289.646949 
L 134.020615 274.078664 
L 134.19609 292.522596 
L 134.33257 290.429841 
L 134.430056 291.052852 
L 134.521043 294.766409 
L 134.820001 285.852292 
L 134.878492 294.416132 
L 134.936984 294.345231 
L 135.144954 292.394143 
L 135.378921 283.230848 
L 135.502403 293.163468 
L 135.690876 288.226777 
L 135.976835 293.518836 
L 136.847711 267.557683 
L 137.192161 294.121613 
L 137.387133 286.121671 
L 137.770578 294.092704 
L 137.881063 290.848795 
L 138.069536 288.854748 
L 138.264508 292.266472 
L 138.615458 266.21255 
L 138.836426 284.586235 
L 138.985905 287.696842 
L 139.304359 266.656692 
L 139.50583 285.715609 
L 139.642311 287.295501 
L 139.804787 293.379795 
L 139.941268 288.254402 
L 141.007115 265.348768 
L 141.293074 270.076705 
L 141.553037 272.035691 
L 141.877991 267.867525 
L 142.150952 271.193295 
L 142.358922 275.589699 
L 142.57989 275.236052 
L 142.904844 262.117965 
L 143.307786 252.429074 
L 143.554751 271.80859 
L 143.782218 273.762602 
L 143.970691 278.153051 
L 144.152665 279.393159 
L 144.334639 279.589873 
L 144.88706 226.864915 
L 145.432982 229.461251 
L 145.783932 260.001389 
L 146.342852 230.463034 
L 146.91477 225.959912 
L 147.974118 237.122386 
L 148.526539 231.353598 
L 149.07896 230.852962 
L 149.611884 232.799451 
L 150.170804 232.056515 
L 150.742722 229.139666 
L 151.308141 230.864585 
L 151.867061 231.635053 
L 152.399985 231.785189 
L 152.958905 232.500788 
L 153.504827 227.245821 
L 154.037751 230.3101 
L 154.577174 229.313484 
L 155.149092 230.801813 
L 155.695014 227.903092 
L 156.247435 226.632711 
L 156.793357 229.69406 
L 157.365275 222.784986 
L 157.911197 228.124549 
L 158.450619 230.171565 
L 158.990042 229.92025 
L 159.555461 223.332289 
L 160.114381 226.04433 
L 160.699298 222.847962 
L 161.245219 226.702985 
L 161.817138 226.456456 
L 162.402054 219.443961 
L 162.960974 224.677412 
L 163.539391 221.462566 
L 164.111309 222.936987 
L 164.800211 219.453169 
L 165.378628 221.378094 
L 166.528963 231.804151 
L 167.081384 226.874944 
L 168.199224 230.197424 
L 168.79064 229.233957 
L 169.395053 232.80789 
L 169.973471 231.412542 
L 170.571385 228.260521 
L 171.169299 223.348443 
L 171.786711 225.999299 
L 172.365128 230.464565 
L 172.930547 226.409512 
L 173.586954 219.714513 
L 174.184868 227.310788 
L 174.763285 223.466732 
L 175.406693 216.490145 
L 176.108593 216.725021 
L 176.667513 224.202609 
L 177.310921 218.425967 
L 178.097308 207.06825 
L 179.611591 212.886934 
L 180.306992 211.086485 
L 181.028389 215.200635 
L 181.886266 209.470029 
L 182.646657 208.588569 
L 183.32256 227.99664 
L 184.043957 219.215848 
L 184.635373 220.776747 
L 185.278781 219.434199 
L 185.837701 225.503454 
L 186.455112 218.19549 
L 187.183008 215.89053 
L 187.754926 220.750332 
L 188.489321 214.706937 
L 189.132729 223.966554 
L 189.730644 222.751087 
L 190.328558 217.205851 
L 191.049955 219.154317 
L 191.84934 209.194815 
L 192.414759 227.591121 
L 193.051668 220.715865 
L 193.630086 223.163597 
L 194.189006 224.554713 
L 194.851911 214.75501 
L 195.76828 206.307996 
L 196.489676 208.812866 
L 197.107088 216.794344 
L 197.718001 220.136582 
L 198.309416 221.744747 
L 198.887833 223.901143 
L 199.47275 222.575122 
L 200.103159 215.821423 
L 200.720571 215.821132 
L 201.28599 224.584525 
L 201.896903 216.095067 
L 202.481819 222.727623 
L 203.118728 225.89521 
L 203.723141 218.853148 
L 204.334054 219.064721 
L 204.925469 220.403159 
L 205.54938 215.053648 
L 206.192788 212.582528 
L 206.8102 222.395871 
L 207.36912 228.443444 
L 207.99303 217.290878 
L 208.616941 213.494403 
L 209.169362 231.009208 
L 209.747779 230.521689 
L 210.397686 223.03551 
L 210.956606 229.423971 
L 211.554521 228.775376 
L 212.197929 222.952543 
L 212.776346 227.854493 
L 213.354763 225.815144 
L 213.93318 228.932642 
L 214.4986 226.715035 
L 215.116011 226.865184 
L 215.713926 225.112768 
L 216.305341 228.379993 
L 216.94225 214.581772 
L 217.527166 223.35974 
L 218.105583 227.897005 
L 218.787986 204.074928 
L 219.476887 201.611986 
L 220.068303 225.781236 
L 220.679215 222.177991 
L 221.322623 211.798639 
L 221.933536 219.800209 
L 222.570445 214.22512 
L 223.174858 224.17164 
L 223.785771 219.912567 
L 224.00024 275.219045 
L 224.63065 218.399077 
L 225.280557 207.573561 
L 225.949961 206.770231 
L 226.573872 220.813927 
L 227.262773 211.748055 
L 227.951675 205.08542 
L 228.61458 209.399329 
L 229.283984 207.037203 
L 230.050874 185.020499 
L 230.700781 210.842353 
L 230.798267 290.432211 
L 231.519664 200.623948 
L 231.597653 292.091658 
L 232.377541 189.357113 
L 233.079441 202.02913 
L 233.807337 201.480183 
L 234.522234 193.363305 
L 235.230633 210.870891 
L 235.939032 205.912098 
L 236.64743 202.050955 
L 237.290838 222.177939 
L 237.986239 208.913595 
L 238.727133 197.544229 
L 239.448529 200.26667 
L 240.091937 226.951574 
L 240.715848 226.953459 
L 241.320262 230.455703 
L 241.911677 231.694128 
L 242.646072 204.328609 
L 243.334973 219.701865 
L 244.049871 203.383863 
L 244.68678 224.011022 
L 245.369182 222.068879 
L 246.08408 217.00062 
L 246.811976 214.030125 
L 247.383894 235.468228 
L 248.157283 192.61404 
L 248.813689 223.254802 
L 249.476595 224.420485 
L 250.223988 208.795942 
L 250.886893 213.781832 
L 251.653783 200.902267 
L 252.355683 211.803887 
L 252.908104 236.890289 
L 253.590506 213.539166 
L 254.311903 222.511154 
L 255.091791 217.742871 
L 255.956167 204.946344 
L 256.833542 205.529006 
L 257.873393 196.338969 
L 258.568794 221.500912 
L 259.472164 202.142022 
L 260.27155 211.300721 
L 261.077435 206.184757 
L 261.844325 209.974835 
L 262.682705 206.231492 
L 263.48859 201.34645 
L 264.25548 212.084701 
L 265.126355 197.532423 
L 265.971234 193.241911 
L 266.991588 171.66147 
L 267.797473 184.874876 
L 268.609857 183.615806 
L 269.721198 161.966714 
L 270.579075 180.339147 
L 271.605928 171.310497 
L 272.470304 181.787946 
L 273.282688 184.971749 
L 274.10807 181.972051 
L 275.043936 173.404822 
L 275.875817 178.962745 
L 276.649206 189.11928 
L 277.383601 188.927788 
L 278.169989 185.386373 
L 278.910883 192.218634 
L 279.658276 191.009078 
L 280.373174 196.635902 
L 281.185557 173.035987 
L 281.913453 193.696032 
L 282.589356 200.791792 
L 283.317252 193.446917 
L 283.999655 199.366163 
L 284.721051 192.192847 
L 285.481443 189.745274 
L 286.19634 198.267084 
L 286.956732 186.987416 
L 287.756117 181.264696 
L 288.50351 190.900128 
L 289.2769 189.693818 
L 290.004795 192.382077 
L 290.778185 186.143516 
L 291.558073 187.081536 
L 292.337962 184.970899 
L 293.11785 183.729702 
L 293.871742 192.707336 
L 294.690625 171.437957 
L 295.444517 185.593523 
L 296.458372 167.512366 
L 297.251259 184.148491 
L 298.252115 163.498135 
L 299.148987 165.917054 
L 299.714406 252.135236 
L 300.780254 163.529958 
L 301.605635 179.346633 
L 302.444015 167.29787 
L 303.204407 182.616956 
L 304.036288 177.62945 
L 305.004649 178.87743 
L 306.031502 168.750007 
L 307.038858 170.492242 
L 307.844743 175.443238 
L 308.676624 166.363915 
L 309.528002 177.799304 
L 310.353384 165.665119 
L 311.165767 175.179254 
L 311.978151 169.905429 
L 312.784036 176.3189 
L 313.59642 174.30274 
L 314.389306 173.586683 
L 315.34467 145.665342 
L 316.131057 175.492352 
L 317.060424 153.146803 
L 317.833813 176.790223 
L 318.639698 192.778247 
L 319.556067 156.029092 
L 320.316458 178.752867 
L 321.122343 171.730908 
L 321.90873 178.886141 
L 322.701617 175.969882 
L 323.507502 173.667153 
L 324.28739 177.51631 
L 325.067278 183.574325 
L 325.359736 268.99071 
L 326.24361 171.552602 
L 326.997502 182.437494 
L 327.731897 184.822254 
L 328.524784 173.972582 
L 329.291674 179.611225 
L 330.097559 173.817555 
L 330.29903 279.192605 
L 331.117913 172.127154 
L 331.936795 167.907749 
L 332.762177 159.243771 
L 333.620055 162.710823 
L 334.451935 164.213511 
L 335.270818 164.136815 
L 336.109198 166.685693 
L 336.915083 167.491599 
L 337.766461 157.317021 
L 338.61134 159.108304 
L 339.488715 155.961935 
L 340.346592 162.696851 
L 341.19797 156.08698 
L 342.081844 154.251774 
L 342.94622 155.497642 
L 343.726108 174.237484 
L 344.590485 155.691365 
L 345.467859 151.831035 
L 346.312738 153.854331 
L 347.170616 151.457294 
L 348.04799 150.842827 
L 348.970858 138.499357 
L 349.86773 146.726363 
L 350.790598 140.276774 
L 351.693968 144.562562 
L 352.610337 140.5277 
L 353.533205 140.179463 
L 354.404081 148.844603 
L 355.287954 145.116364 
L 356.100338 161.4677 
L 356.99071 144.815237 
L 357.874584 146.813364 
L 358.81045 136.602395 
L 359.694324 145.281205 
L 360.532704 155.865842 
L 361.416577 149.439403 
L 362.332946 140.583002 
L 363.21032 146.609235 
L 364.113691 145.51177 
L 365.023561 141.821957 
L 365.907435 145.800445 
L 366.8498 140.372064 
L 367.818161 136.123807 
L 368.767025 140.429315 
L 369.71589 140.38048 
L 370.638758 141.775684 
L 371.60062 140.86143 
L 372.536486 141.37729 
L 373.595834 119.778557 
L 374.67468 109.850748 
L 375.578051 154.973682 
L 376.656896 115.783615 
L 377.599262 143.117298 
L 378.58712 132.915177 
L 379.665966 129.912229 
L 380.731813 119.214787 
L 381.830156 116.565504 
L 382.85051 140.369969 
L 383.929356 128.383097 
L 384.969207 131.652066 
L 386.288518 53.568 
L 387.503844 86.180643 
L 388.498202 131.810535 
L 389.414571 142.019948 
L 390.285446 164.820914 
L 391.266806 132.097388 
L 392.21567 135.911779 
L 393.12554 142.635955 
L 394.03541 142.186072 
L 394.925782 144.568889 
L 395.881146 135.666943 
L 396.856006 128.528815 
L 397.551407 191.445727 
L 398.487273 136.524681 
L 398.487273 136.524681 
" clip-path="url(#p59ae806b7a)" style="fill: none; stroke: #1f77b4; stroke-width: 1.5; stroke-linecap: square"/>
   </g>
   <g id="patch_3">
    <path d="M 57.6 307.584 
L 57.6 41.472 
" style="fill: none; stroke: #000000; stroke-width: 0.8; stroke-linejoin: miter; stroke-linecap: square"/>
   </g>
   <g id="patch_4">
    <path d="M 414.72 307.584 
L 414.72 41.472 
" style="fill: none; stroke: #000000; stroke-width: 0.8; stroke-linejoin: miter; stroke-linecap: square"/>
   </g>
   <g id="patch_5">
    <path d="M 57.6 307.584 
L 414.72 307.584 
" style="fill: none; stroke: #000000; stroke-width: 0.8; stroke-linejoin: miter; stroke-linecap: square"/>
   </g>
   <g id="patch_6">
    <path d="M 57.6 41.472 
L 414.72 41.472 
" style="fill: none; stroke: #000000; stroke-width: 0.8; stroke-linejoin: miter; stroke-linecap: square"/>
   </g>
   <g id="text_16">
    <!-- learning curve -->
    <g transform="translate(192.96375 35.472) scale(0.12 -0.12)">
     <defs>
      <path id="DejaVuSans-6c" d="M 603 4863 
L 1178 4863 
L 1178 0 
L 603 0 
L 603 4863 
z
" transform="scale(0.015625)"/>
      <path id="DejaVuSans-6e" d="M 3513 2113 
L 3513 0 
L 2938 0 
L 2938 2094 
Q 2938 2591 2744 2837 
Q 2550 3084 2163 3084 
Q 1697 3084 1428 2787 
Q 1159 2491 1159 1978 
L 1159 0 
L 581 0 
L 581 3500 
L 1159 3500 
L 1159 2956 
Q 1366 3272 1645 3428 
Q 1925 3584 2291 3584 
Q 2894 3584 3203 3211 
Q 3513 2838 3513 2113 
z
" transform="scale(0.015625)"/>
      <path id="DejaVuSans-67" d="M 2906 1791 
Q 2906 2416 2648 2759 
Q 2391 3103 1925 3103 
Q 1463 3103 1205 2759 
Q 947 2416 947 1791 
Q 947 1169 1205 825 
Q 1463 481 1925 481 
Q 2391 481 2648 825 
Q 2906 1169 2906 1791 
z
M 3481 434 
Q 3481 -459 3084 -895 
Q 2688 -1331 1869 -1331 
Q 1566 -1331 1297 -1286 
Q 1028 -1241 775 -1147 
L 775 -588 
Q 1028 -725 1275 -790 
Q 1522 -856 1778 -856 
Q 2344 -856 2625 -561 
Q 2906 -266 2906 331 
L 2906 616 
Q 2728 306 2450 153 
Q 2172 0 1784 0 
Q 1141 0 747 490 
Q 353 981 353 1791 
Q 353 2603 747 3093 
Q 1141 3584 1784 3584 
Q 2172 3584 2450 3431 
Q 2728 3278 2906 2969 
L 2906 3500 
L 3481 3500 
L 3481 434 
z
" transform="scale(0.015625)"/>
      <path id="DejaVuSans-20" transform="scale(0.015625)"/>
      <path id="DejaVuSans-63" d="M 3122 3366 
L 3122 2828 
Q 2878 2963 2633 3030 
Q 2388 3097 2138 3097 
Q 1578 3097 1268 2742 
Q 959 2388 959 1747 
Q 959 1106 1268 751 
Q 1578 397 2138 397 
Q 2388 397 2633 464 
Q 2878 531 3122 666 
L 3122 134 
Q 2881 22 2623 -34 
Q 2366 -91 2075 -91 
Q 1284 -91 818 406 
Q 353 903 353 1747 
Q 353 2603 823 3093 
Q 1294 3584 2113 3584 
Q 2378 3584 2631 3529 
Q 2884 3475 3122 3366 
z
" transform="scale(0.015625)"/>
      <path id="DejaVuSans-75" d="M 544 1381 
L 544 3500 
L 1119 3500 
L 1119 1403 
Q 1119 906 1312 657 
Q 1506 409 1894 409 
Q 2359 409 2629 706 
Q 2900 1003 2900 1516 
L 2900 3500 
L 3475 3500 
L 3475 0 
L 2900 0 
L 2900 538 
Q 2691 219 2414 64 
Q 2138 -91 1772 -91 
Q 1169 -91 856 284 
Q 544 659 544 1381 
z
M 1991 3584 
L 1991 3584 
z
" transform="scale(0.015625)"/>
      <path id="DejaVuSans-76" d="M 191 3500 
L 800 3500 
L 1894 563 
L 2988 3500 
L 3597 3500 
L 2284 0 
L 1503 0 
L 191 3500 
z
" transform="scale(0.015625)"/>
     </defs>
     <use xlink:href="#DejaVuSans-6c"/>
     <use xlink:href="#DejaVuSans-65" x="27.783203"/>
     <use xlink:href="#DejaVuSans-61" x="89.306641"/>
     <use xlink:href="#DejaVuSans-72" x="150.585938"/>
     <use xlink:href="#DejaVuSans-6e" x="189.949219"/>
     <use xlink:href="#DejaVuSans-69" x="253.328125"/>
     <use xlink:href="#DejaVuSans-6e" x="281.111328"/>
     <use xlink:href="#DejaVuSans-67" x="344.490234"/>
     <use xlink:href="#DejaVuSans-20" x="407.966797"/>
     <use xlink:href="#DejaVuSans-63" x="439.753906"/>
     <use xlink:href="#DejaVuSans-75" x="494.734375"/>
     <use xlink:href="#DejaVuSans-72" x="558.113281"/>
     <use xlink:href="#DejaVuSans-76" x="599.226562"/>
     <use xlink:href="#DejaVuSans-65" x="658.40625"/>
    </g>
   </g>
  </g>
 </g>
 <defs>
  <clipPath id="p59ae806b7a">
   <rect x="57.6" y="41.472" width="357.12" height="266.112"/>
  </clipPath>
 </defs>
</svg>
