<?xml version="1.0" encoding="utf-8" standalone="no"?>
<!DOCTYPE svg PUBLIC "-//W3C//DTD SVG 1.1//EN"
  "http://www.w3.org/Graphics/SVG/1.1/DTD/svg11.dtd">
<svg xmlns:xlink="http://www.w3.org/1999/xlink" width="460.8pt" height="345.6pt" viewBox="0 0 460.8 345.6" xmlns="http://www.w3.org/2000/svg" version="1.1">
 <metadata>
  <rdf:RDF xmlns:dc="http://purl.org/dc/elements/1.1/" xmlns:cc="http://creativecommons.org/ns#" xmlns:rdf="http://www.w3.org/1999/02/22-rdf-syntax-ns#">
   <cc:Work>
    <dc:type rdf:resource="http://purl.org/dc/dcmitype/StillImage"/>
    <dc:date>2023-08-19T14:41:53.999223</dc:date>
    <dc:format>image/svg+xml</dc:format>
    <dc:creator>
     <cc:Agent>
      <dc:title>Matplotlib v3.7.1, https://matplotlib.org/</dc:title>
     </cc:Agent>
    </dc:creator>
   </cc:Work>
  </rdf:RDF>
 </metadata>
 <defs>
  <style type="text/css">*{stroke-linejoin: round; stroke-linecap: butt}</style>
 </defs>
 <g id="figure_1">
  <g id="patch_1">
   <path d="M 0 345.6 
L 460.8 345.6 
L 460.8 0 
L 0 0 
z
" style="fill: #ffffff"/>
  </g>
  <g id="axes_1">
   <g id="patch_2">
    <path d="M 57.6 307.584 
L 414.72 307.584 
L 414.72 41.472 
L 57.6 41.472 
z
" style="fill: #ffffff"/>
   </g>
   <g id="matplotlib.axis_1">
    <g id="xtick_1">
     <g id="line2d_1">
      <defs>
       <path id="mbec16bfa7b" d="M 0 0 
L 0 3.5 
" style="stroke: #000000; stroke-width: 0.8"/>
      </defs>
      <g>
       <use xlink:href="#mbec16bfa7b" x="73.585604" y="307.584" style="stroke: #000000; stroke-width: 0.8"/>
      </g>
     </g>
     <g id="text_1">
      <!-- 0 -->
      <g transform="translate(70.404354 322.182437) scale(0.1 -0.1)">
       <defs>
        <path id="DejaVuSans-30" d="M 2034 4250 
Q 1547 4250 1301 3770 
Q 1056 3291 1056 2328 
Q 1056 1369 1301 889 
Q 1547 409 2034 409 
Q 2525 409 2770 889 
Q 3016 1369 3016 2328 
Q 3016 3291 2770 3770 
Q 2525 4250 2034 4250 
z
M 2034 4750 
Q 2819 4750 3233 4129 
Q 3647 3509 3647 2328 
Q 3647 1150 3233 529 
Q 2819 -91 2034 -91 
Q 1250 -91 836 529 
Q 422 1150 422 2328 
Q 422 3509 836 4129 
Q 1250 4750 2034 4750 
z
" transform="scale(0.015625)"/>
       </defs>
       <use xlink:href="#DejaVuSans-30"/>
      </g>
     </g>
    </g>
    <g id="xtick_2">
     <g id="line2d_2">
      <g>
       <use xlink:href="#mbec16bfa7b" x="138.617964" y="307.584" style="stroke: #000000; stroke-width: 0.8"/>
      </g>
     </g>
     <g id="text_2">
      <!-- 100000 -->
      <g transform="translate(119.530464 322.182437) scale(0.1 -0.1)">
       <defs>
        <path id="DejaVuSans-31" d="M 794 531 
L 1825 531 
L 1825 4091 
L 703 3866 
L 703 4441 
L 1819 4666 
L 2450 4666 
L 2450 531 
L 3481 531 
L 3481 0 
L 794 0 
L 794 531 
z
" transform="scale(0.015625)"/>
       </defs>
       <use xlink:href="#DejaVuSans-31"/>
       <use xlink:href="#DejaVuSans-30" x="63.623047"/>
       <use xlink:href="#DejaVuSans-30" x="127.246094"/>
       <use xlink:href="#DejaVuSans-30" x="190.869141"/>
       <use xlink:href="#DejaVuSans-30" x="254.492188"/>
       <use xlink:href="#DejaVuSans-30" x="318.115234"/>
      </g>
     </g>
    </g>
    <g id="xtick_3">
     <g id="line2d_3">
      <g>
       <use xlink:href="#mbec16bfa7b" x="203.650323" y="307.584" style="stroke: #000000; stroke-width: 0.8"/>
      </g>
     </g>
     <g id="text_3">
      <!-- 200000 -->
      <g transform="translate(184.562823 322.182437) scale(0.1 -0.1)">
       <defs>
        <path id="DejaVuSans-32" d="M 1228 531 
L 3431 531 
L 3431 0 
L 469 0 
L 469 531 
Q 828 903 1448 1529 
Q 2069 2156 2228 2338 
Q 2531 2678 2651 2914 
Q 2772 3150 2772 3378 
Q 2772 3750 2511 3984 
Q 2250 4219 1831 4219 
Q 1534 4219 1204 4116 
Q 875 4013 500 3803 
L 500 4441 
Q 881 4594 1212 4672 
Q 1544 4750 1819 4750 
Q 2544 4750 2975 4387 
Q 3406 4025 3406 3419 
Q 3406 3131 3298 2873 
Q 3191 2616 2906 2266 
Q 2828 2175 2409 1742 
Q 1991 1309 1228 531 
z
" transform="scale(0.015625)"/>
       </defs>
       <use xlink:href="#DejaVuSans-32"/>
       <use xlink:href="#DejaVuSans-30" x="63.623047"/>
       <use xlink:href="#DejaVuSans-30" x="127.246094"/>
       <use xlink:href="#DejaVuSans-30" x="190.869141"/>
       <use xlink:href="#DejaVuSans-30" x="254.492188"/>
       <use xlink:href="#DejaVuSans-30" x="318.115234"/>
      </g>
     </g>
    </g>
    <g id="xtick_4">
     <g id="line2d_4">
      <g>
       <use xlink:href="#mbec16bfa7b" x="268.682683" y="307.584" style="stroke: #000000; stroke-width: 0.8"/>
      </g>
     </g>
     <g id="text_4">
      <!-- 300000 -->
      <g transform="translate(249.595183 322.182437) scale(0.1 -0.1)">
       <defs>
        <path id="DejaVuSans-33" d="M 2597 2516 
Q 3050 2419 3304 2112 
Q 3559 1806 3559 1356 
Q 3559 666 3084 287 
Q 2609 -91 1734 -91 
Q 1441 -91 1130 -33 
Q 819 25 488 141 
L 488 750 
Q 750 597 1062 519 
Q 1375 441 1716 441 
Q 2309 441 2620 675 
Q 2931 909 2931 1356 
Q 2931 1769 2642 2001 
Q 2353 2234 1838 2234 
L 1294 2234 
L 1294 2753 
L 1863 2753 
Q 2328 2753 2575 2939 
Q 2822 3125 2822 3475 
Q 2822 3834 2567 4026 
Q 2313 4219 1838 4219 
Q 1578 4219 1281 4162 
Q 984 4106 628 3988 
L 628 4550 
Q 988 4650 1302 4700 
Q 1616 4750 1894 4750 
Q 2613 4750 3031 4423 
Q 3450 4097 3450 3541 
Q 3450 3153 3228 2886 
Q 3006 2619 2597 2516 
z
" transform="scale(0.015625)"/>
       </defs>
       <use xlink:href="#DejaVuSans-33"/>
       <use xlink:href="#DejaVuSans-30" x="63.623047"/>
       <use xlink:href="#DejaVuSans-30" x="127.246094"/>
       <use xlink:href="#DejaVuSans-30" x="190.869141"/>
       <use xlink:href="#DejaVuSans-30" x="254.492188"/>
       <use xlink:href="#DejaVuSans-30" x="318.115234"/>
      </g>
     </g>
    </g>
    <g id="xtick_5">
     <g id="line2d_5">
      <g>
       <use xlink:href="#mbec16bfa7b" x="333.715043" y="307.584" style="stroke: #000000; stroke-width: 0.8"/>
      </g>
     </g>
     <g id="text_5">
      <!-- 400000 -->
      <g transform="translate(314.627543 322.182437) scale(0.1 -0.1)">
       <defs>
        <path id="DejaVuSans-34" d="M 2419 4116 
L 825 1625 
L 2419 1625 
L 2419 4116 
z
M 2253 4666 
L 3047 4666 
L 3047 1625 
L 3713 1625 
L 3713 1100 
L 3047 1100 
L 3047 0 
L 2419 0 
L 2419 1100 
L 313 1100 
L 313 1709 
L 2253 4666 
z
" transform="scale(0.015625)"/>
       </defs>
       <use xlink:href="#DejaVuSans-34"/>
       <use xlink:href="#DejaVuSans-30" x="63.623047"/>
       <use xlink:href="#DejaVuSans-30" x="127.246094"/>
       <use xlink:href="#DejaVuSans-30" x="190.869141"/>
       <use xlink:href="#DejaVuSans-30" x="254.492188"/>
       <use xlink:href="#DejaVuSans-30" x="318.115234"/>
      </g>
     </g>
    </g>
    <g id="xtick_6">
     <g id="line2d_6">
      <g>
       <use xlink:href="#mbec16bfa7b" x="398.747402" y="307.584" style="stroke: #000000; stroke-width: 0.8"/>
      </g>
     </g>
     <g id="text_6">
      <!-- 500000 -->
      <g transform="translate(379.659902 322.182437) scale(0.1 -0.1)">
       <defs>
        <path id="DejaVuSans-35" d="M 691 4666 
L 3169 4666 
L 3169 4134 
L 1269 4134 
L 1269 2991 
Q 1406 3038 1543 3061 
Q 1681 3084 1819 3084 
Q 2600 3084 3056 2656 
Q 3513 2228 3513 1497 
Q 3513 744 3044 326 
Q 2575 -91 1722 -91 
Q 1428 -91 1123 -41 
Q 819 9 494 109 
L 494 744 
Q 775 591 1075 516 
Q 1375 441 1709 441 
Q 2250 441 2565 725 
Q 2881 1009 2881 1497 
Q 2881 1984 2565 2268 
Q 2250 2553 1709 2553 
Q 1456 2553 1204 2497 
Q 953 2441 691 2322 
L 691 4666 
z
" transform="scale(0.015625)"/>
       </defs>
       <use xlink:href="#DejaVuSans-35"/>
       <use xlink:href="#DejaVuSans-30" x="63.623047"/>
       <use xlink:href="#DejaVuSans-30" x="127.246094"/>
       <use xlink:href="#DejaVuSans-30" x="190.869141"/>
       <use xlink:href="#DejaVuSans-30" x="254.492188"/>
       <use xlink:href="#DejaVuSans-30" x="318.115234"/>
      </g>
     </g>
    </g>
    <g id="text_7">
     <!-- timesteps -->
     <g transform="translate(211.443594 335.860562) scale(0.1 -0.1)">
      <defs>
       <path id="DejaVuSans-74" d="M 1172 4494 
L 1172 3500 
L 2356 3500 
L 2356 3053 
L 1172 3053 
L 1172 1153 
Q 1172 725 1289 603 
Q 1406 481 1766 481 
L 2356 481 
L 2356 0 
L 1766 0 
Q 1100 0 847 248 
Q 594 497 594 1153 
L 594 3053 
L 172 3053 
L 172 3500 
L 594 3500 
L 594 4494 
L 1172 4494 
z
" transform="scale(0.015625)"/>
       <path id="DejaVuSans-69" d="M 603 3500 
L 1178 3500 
L 1178 0 
L 603 0 
L 603 3500 
z
M 603 4863 
L 1178 4863 
L 1178 4134 
L 603 4134 
L 603 4863 
z
" transform="scale(0.015625)"/>
       <path id="DejaVuSans-6d" d="M 3328 2828 
Q 3544 3216 3844 3400 
Q 4144 3584 4550 3584 
Q 5097 3584 5394 3201 
Q 5691 2819 5691 2113 
L 5691 0 
L 5113 0 
L 5113 2094 
Q 5113 2597 4934 2840 
Q 4756 3084 4391 3084 
Q 3944 3084 3684 2787 
Q 3425 2491 3425 1978 
L 3425 0 
L 2847 0 
L 2847 2094 
Q 2847 2600 2669 2842 
Q 2491 3084 2119 3084 
Q 1678 3084 1418 2786 
Q 1159 2488 1159 1978 
L 1159 0 
L 581 0 
L 581 3500 
L 1159 3500 
L 1159 2956 
Q 1356 3278 1631 3431 
Q 1906 3584 2284 3584 
Q 2666 3584 2933 3390 
Q 3200 3197 3328 2828 
z
" transform="scale(0.015625)"/>
       <path id="DejaVuSans-65" d="M 3597 1894 
L 3597 1613 
L 953 1613 
Q 991 1019 1311 708 
Q 1631 397 2203 397 
Q 2534 397 2845 478 
Q 3156 559 3463 722 
L 3463 178 
Q 3153 47 2828 -22 
Q 2503 -91 2169 -91 
Q 1331 -91 842 396 
Q 353 884 353 1716 
Q 353 2575 817 3079 
Q 1281 3584 2069 3584 
Q 2775 3584 3186 3129 
Q 3597 2675 3597 1894 
z
M 3022 2063 
Q 3016 2534 2758 2815 
Q 2500 3097 2075 3097 
Q 1594 3097 1305 2825 
Q 1016 2553 972 2059 
L 3022 2063 
z
" transform="scale(0.015625)"/>
       <path id="DejaVuSans-73" d="M 2834 3397 
L 2834 2853 
Q 2591 2978 2328 3040 
Q 2066 3103 1784 3103 
Q 1356 3103 1142 2972 
Q 928 2841 928 2578 
Q 928 2378 1081 2264 
Q 1234 2150 1697 2047 
L 1894 2003 
Q 2506 1872 2764 1633 
Q 3022 1394 3022 966 
Q 3022 478 2636 193 
Q 2250 -91 1575 -91 
Q 1294 -91 989 -36 
Q 684 19 347 128 
L 347 722 
Q 666 556 975 473 
Q 1284 391 1588 391 
Q 1994 391 2212 530 
Q 2431 669 2431 922 
Q 2431 1156 2273 1281 
Q 2116 1406 1581 1522 
L 1381 1569 
Q 847 1681 609 1914 
Q 372 2147 372 2553 
Q 372 3047 722 3315 
Q 1072 3584 1716 3584 
Q 2034 3584 2315 3537 
Q 2597 3491 2834 3397 
z
" transform="scale(0.015625)"/>
       <path id="DejaVuSans-70" d="M 1159 525 
L 1159 -1331 
L 581 -1331 
L 581 3500 
L 1159 3500 
L 1159 2969 
Q 1341 3281 1617 3432 
Q 1894 3584 2278 3584 
Q 2916 3584 3314 3078 
Q 3713 2572 3713 1747 
Q 3713 922 3314 415 
Q 2916 -91 2278 -91 
Q 1894 -91 1617 61 
Q 1341 213 1159 525 
z
M 3116 1747 
Q 3116 2381 2855 2742 
Q 2594 3103 2138 3103 
Q 1681 3103 1420 2742 
Q 1159 2381 1159 1747 
Q 1159 1113 1420 752 
Q 1681 391 2138 391 
Q 2594 391 2855 752 
Q 3116 1113 3116 1747 
z
" transform="scale(0.015625)"/>
      </defs>
      <use xlink:href="#DejaVuSans-74"/>
      <use xlink:href="#DejaVuSans-69" x="39.208984"/>
      <use xlink:href="#DejaVuSans-6d" x="66.992188"/>
      <use xlink:href="#DejaVuSans-65" x="164.404297"/>
      <use xlink:href="#DejaVuSans-73" x="225.927734"/>
      <use xlink:href="#DejaVuSans-74" x="278.027344"/>
      <use xlink:href="#DejaVuSans-65" x="317.236328"/>
      <use xlink:href="#DejaVuSans-70" x="378.759766"/>
      <use xlink:href="#DejaVuSans-73" x="442.236328"/>
     </g>
    </g>
   </g>
   <g id="matplotlib.axis_2">
    <g id="ytick_1">
     <g id="line2d_7">
      <defs>
       <path id="me9eea08b02" d="M 0 0 
L -3.5 0 
" style="stroke: #000000; stroke-width: 0.8"/>
      </defs>
      <g>
       <use xlink:href="#me9eea08b02" x="57.6" y="301.259459" style="stroke: #000000; stroke-width: 0.8"/>
      </g>
     </g>
     <g id="text_8">
      <!-- 0 -->
      <g transform="translate(44.2375 305.058678) scale(0.1 -0.1)">
       <use xlink:href="#DejaVuSans-30"/>
      </g>
     </g>
    </g>
    <g id="ytick_2">
     <g id="line2d_8">
      <g>
       <use xlink:href="#me9eea08b02" x="57.6" y="270.891665" style="stroke: #000000; stroke-width: 0.8"/>
      </g>
     </g>
     <g id="text_9">
      <!-- 25 -->
      <g transform="translate(37.875 274.690884) scale(0.1 -0.1)">
       <use xlink:href="#DejaVuSans-32"/>
       <use xlink:href="#DejaVuSans-35" x="63.623047"/>
      </g>
     </g>
    </g>
    <g id="ytick_3">
     <g id="line2d_9">
      <g>
       <use xlink:href="#me9eea08b02" x="57.6" y="240.523871" style="stroke: #000000; stroke-width: 0.8"/>
      </g>
     </g>
     <g id="text_10">
      <!-- 50 -->
      <g transform="translate(37.875 244.32309) scale(0.1 -0.1)">
       <use xlink:href="#DejaVuSans-35"/>
       <use xlink:href="#DejaVuSans-30" x="63.623047"/>
      </g>
     </g>
    </g>
    <g id="ytick_4">
     <g id="line2d_10">
      <g>
       <use xlink:href="#me9eea08b02" x="57.6" y="210.156077" style="stroke: #000000; stroke-width: 0.8"/>
      </g>
     </g>
     <g id="text_11">
      <!-- 75 -->
      <g transform="translate(37.875 213.955296) scale(0.1 -0.1)">
       <defs>
        <path id="DejaVuSans-37" d="M 525 4666 
L 3525 4666 
L 3525 4397 
L 1831 0 
L 1172 0 
L 2766 4134 
L 525 4134 
L 525 4666 
z
" transform="scale(0.015625)"/>
       </defs>
       <use xlink:href="#DejaVuSans-37"/>
       <use xlink:href="#DejaVuSans-35" x="63.623047"/>
      </g>
     </g>
    </g>
    <g id="ytick_5">
     <g id="line2d_11">
      <g>
       <use xlink:href="#me9eea08b02" x="57.6" y="179.788284" style="stroke: #000000; stroke-width: 0.8"/>
      </g>
     </g>
     <g id="text_12">
      <!-- 100 -->
      <g transform="translate(31.5125 183.587502) scale(0.1 -0.1)">
       <use xlink:href="#DejaVuSans-31"/>
       <use xlink:href="#DejaVuSans-30" x="63.623047"/>
       <use xlink:href="#DejaVuSans-30" x="127.246094"/>
      </g>
     </g>
    </g>
    <g id="ytick_6">
     <g id="line2d_12">
      <g>
       <use xlink:href="#me9eea08b02" x="57.6" y="149.42049" style="stroke: #000000; stroke-width: 0.8"/>
      </g>
     </g>
     <g id="text_13">
      <!-- 125 -->
      <g transform="translate(31.5125 153.219708) scale(0.1 -0.1)">
       <use xlink:href="#DejaVuSans-31"/>
       <use xlink:href="#DejaVuSans-32" x="63.623047"/>
       <use xlink:href="#DejaVuSans-35" x="127.246094"/>
      </g>
     </g>
    </g>
    <g id="ytick_7">
     <g id="line2d_13">
      <g>
       <use xlink:href="#me9eea08b02" x="57.6" y="119.052696" style="stroke: #000000; stroke-width: 0.8"/>
      </g>
     </g>
     <g id="text_14">
      <!-- 150 -->
      <g transform="translate(31.5125 122.851915) scale(0.1 -0.1)">
       <use xlink:href="#DejaVuSans-31"/>
       <use xlink:href="#DejaVuSans-35" x="63.623047"/>
       <use xlink:href="#DejaVuSans-30" x="127.246094"/>
      </g>
     </g>
    </g>
    <g id="ytick_8">
     <g id="line2d_14">
      <g>
       <use xlink:href="#me9eea08b02" x="57.6" y="88.684902" style="stroke: #000000; stroke-width: 0.8"/>
      </g>
     </g>
     <g id="text_15">
      <!-- 175 -->
      <g transform="translate(31.5125 92.484121) scale(0.1 -0.1)">
       <use xlink:href="#DejaVuSans-31"/>
       <use xlink:href="#DejaVuSans-37" x="63.623047"/>
       <use xlink:href="#DejaVuSans-35" x="127.246094"/>
      </g>
     </g>
    </g>
    <g id="ytick_9">
     <g id="line2d_15">
      <g>
       <use xlink:href="#me9eea08b02" x="57.6" y="58.317108" style="stroke: #000000; stroke-width: 0.8"/>
      </g>
     </g>
     <g id="text_16">
      <!-- 200 -->
      <g transform="translate(31.5125 62.116327) scale(0.1 -0.1)">
       <use xlink:href="#DejaVuSans-32"/>
       <use xlink:href="#DejaVuSans-30" x="63.623047"/>
       <use xlink:href="#DejaVuSans-30" x="127.246094"/>
      </g>
     </g>
    </g>
    <g id="text_17">
     <!-- mean episode rewards -->
     <g transform="translate(25.432812 231.360031) rotate(-90) scale(0.1 -0.1)">
      <defs>
       <path id="DejaVuSans-61" d="M 2194 1759 
Q 1497 1759 1228 1600 
Q 959 1441 959 1056 
Q 959 750 1161 570 
Q 1363 391 1709 391 
Q 2188 391 2477 730 
Q 2766 1069 2766 1631 
L 2766 1759 
L 2194 1759 
z
M 3341 1997 
L 3341 0 
L 2766 0 
L 2766 531 
Q 2569 213 2275 61 
Q 1981 -91 1556 -91 
Q 1019 -91 701 211 
Q 384 513 384 1019 
Q 384 1609 779 1909 
Q 1175 2209 1959 2209 
L 2766 2209 
L 2766 2266 
Q 2766 2663 2505 2880 
Q 2244 3097 1772 3097 
Q 1472 3097 1187 3025 
Q 903 2953 641 2809 
L 641 3341 
Q 956 3463 1253 3523 
Q 1550 3584 1831 3584 
Q 2591 3584 2966 3190 
Q 3341 2797 3341 1997 
z
" transform="scale(0.015625)"/>
       <path id="DejaVuSans-6e" d="M 3513 2113 
L 3513 0 
L 2938 0 
L 2938 2094 
Q 2938 2591 2744 2837 
Q 2550 3084 2163 3084 
Q 1697 3084 1428 2787 
Q 1159 2491 1159 1978 
L 1159 0 
L 581 0 
L 581 3500 
L 1159 3500 
L 1159 2956 
Q 1366 3272 1645 3428 
Q 1925 3584 2291 3584 
Q 2894 3584 3203 3211 
Q 3513 2838 3513 2113 
z
" transform="scale(0.015625)"/>
       <path id="DejaVuSans-20" transform="scale(0.015625)"/>
       <path id="DejaVuSans-6f" d="M 1959 3097 
Q 1497 3097 1228 2736 
Q 959 2375 959 1747 
Q 959 1119 1226 758 
Q 1494 397 1959 397 
Q 2419 397 2687 759 
Q 2956 1122 2956 1747 
Q 2956 2369 2687 2733 
Q 2419 3097 1959 3097 
z
M 1959 3584 
Q 2709 3584 3137 3096 
Q 3566 2609 3566 1747 
Q 3566 888 3137 398 
Q 2709 -91 1959 -91 
Q 1206 -91 779 398 
Q 353 888 353 1747 
Q 353 2609 779 3096 
Q 1206 3584 1959 3584 
z
" transform="scale(0.015625)"/>
       <path id="DejaVuSans-64" d="M 2906 2969 
L 2906 4863 
L 3481 4863 
L 3481 0 
L 2906 0 
L 2906 525 
Q 2725 213 2448 61 
Q 2172 -91 1784 -91 
Q 1150 -91 751 415 
Q 353 922 353 1747 
Q 353 2572 751 3078 
Q 1150 3584 1784 3584 
Q 2172 3584 2448 3432 
Q 2725 3281 2906 2969 
z
M 947 1747 
Q 947 1113 1208 752 
Q 1469 391 1925 391 
Q 2381 391 2643 752 
Q 2906 1113 2906 1747 
Q 2906 2381 2643 2742 
Q 2381 3103 1925 3103 
Q 1469 3103 1208 2742 
Q 947 2381 947 1747 
z
" transform="scale(0.015625)"/>
       <path id="DejaVuSans-72" d="M 2631 2963 
Q 2534 3019 2420 3045 
Q 2306 3072 2169 3072 
Q 1681 3072 1420 2755 
Q 1159 2438 1159 1844 
L 1159 0 
L 581 0 
L 581 3500 
L 1159 3500 
L 1159 2956 
Q 1341 3275 1631 3429 
Q 1922 3584 2338 3584 
Q 2397 3584 2469 3576 
Q 2541 3569 2628 3553 
L 2631 2963 
z
" transform="scale(0.015625)"/>
       <path id="DejaVuSans-77" d="M 269 3500 
L 844 3500 
L 1563 769 
L 2278 3500 
L 2956 3500 
L 3675 769 
L 4391 3500 
L 4966 3500 
L 4050 0 
L 3372 0 
L 2619 2869 
L 1863 0 
L 1184 0 
L 269 3500 
z
" transform="scale(0.015625)"/>
      </defs>
      <use xlink:href="#DejaVuSans-6d"/>
      <use xlink:href="#DejaVuSans-65" x="97.412109"/>
      <use xlink:href="#DejaVuSans-61" x="158.935547"/>
      <use xlink:href="#DejaVuSans-6e" x="220.214844"/>
      <use xlink:href="#DejaVuSans-20" x="283.59375"/>
      <use xlink:href="#DejaVuSans-65" x="315.380859"/>
      <use xlink:href="#DejaVuSans-70" x="376.904297"/>
      <use xlink:href="#DejaVuSans-69" x="440.380859"/>
      <use xlink:href="#DejaVuSans-73" x="468.164062"/>
      <use xlink:href="#DejaVuSans-6f" x="520.263672"/>
      <use xlink:href="#DejaVuSans-64" x="581.445312"/>
      <use xlink:href="#DejaVuSans-65" x="644.921875"/>
      <use xlink:href="#DejaVuSans-20" x="706.445312"/>
      <use xlink:href="#DejaVuSans-72" x="738.232422"/>
      <use xlink:href="#DejaVuSans-65" x="777.095703"/>
      <use xlink:href="#DejaVuSans-77" x="838.619141"/>
      <use xlink:href="#DejaVuSans-61" x="920.40625"/>
      <use xlink:href="#DejaVuSans-72" x="981.685547"/>
      <use xlink:href="#DejaVuSans-64" x="1021.048828"/>
      <use xlink:href="#DejaVuSans-73" x="1084.525391"/>
     </g>
    </g>
   </g>
   <g id="line2d_16">
    <path d="M 73.832727 291.190902 
L 74.131876 283.152241 
L 74.274947 283.154692 
L 74.392006 282.250473 
L 74.535077 282.788296 
L 74.808213 282.709531 
L 74.925271 283.056205 
L 75.094355 283.1643 
L 75.315465 281.493017 
L 75.66664 281.87039 
L 75.939776 280.180712 
L 76.082847 280.248649 
L 76.238925 279.995128 
L 76.368989 278.778175 
L 76.525067 278.700819 
L 76.759183 279.987105 
L 76.876242 280.438768 
L 77.032319 280.082878 
L 77.110358 281.275959 
L 77.539572 283.05937 
L 77.695649 283.728653 
L 77.903753 281.848146 
L 78.033818 282.725968 
L 78.189895 281.84631 
L 78.267934 282.311658 
L 78.606102 281.642966 
L 78.775187 282.759261 
L 79.048323 279.468889 
L 79.191394 280.434453 
L 79.360478 280.31042 
L 79.815704 277.879798 
L 80.036814 277.733564 
L 80.192892 274.799788 
L 80.30995 279.31555 
L 80.518054 278.491608 
L 80.648119 279.106279 
L 80.817203 278.921837 
L 80.921254 278.067813 
L 81.051319 279.515433 
L 81.181384 278.492529 
L 81.350468 278.902038 
L 81.480533 280.503711 
L 81.662623 280.300174 
L 81.740662 278.254324 
L 81.987785 279.80169 
L 82.351966 281.133668 
L 82.430005 283.385162 
L 82.677128 283.225995 
L 82.78118 282.763861 
L 82.924251 284.846652 
L 83.041309 284.668946 
L 83.236406 283.464488 
L 83.496536 284.02484 
L 83.717646 283.446571 
L 83.821698 283.04807 
L 83.938756 283.548391 
L 84.068821 283.545051 
L 84.198885 283.390582 
L 84.315944 283.69289 
L 84.472021 282.673309 
L 85.135351 275.421252 
L 85.564565 265.722435 
L 85.91574 253.501707 
L 86.475018 244.679114 
L 87.008283 223.070497 
L 87.398477 218.932786 
L 87.632594 217.858621 
L 87.853704 217.805517 
L 88.139846 222.396463 
L 88.373963 228.675959 
L 88.881215 236.740634 
L 89.219384 239.807417 
L 89.570558 237.712321 
L 89.947746 232.039738 
L 90.142843 232.39018 
L 90.402972 239.614849 
L 91.014277 234.794153 
L 91.339438 237.557493 
L 91.534536 235.478034 
L 91.70362 235.504182 
L 91.898717 237.739368 
L 92.054794 237.76156 
L 92.249892 236.488694 
L 92.601066 231.226225 
L 92.757144 235.368405 
L 93.004267 238.34659 
L 93.147338 236.189817 
L 93.511519 241.75693 
L 93.732629 242.295606 
L 94.500011 240.533091 
L 94.695108 239.734113 
L 94.877199 239.606885 
L 95.124322 239.748788 
L 96.086801 234.13483 
L 96.737124 226.523681 
L 96.971241 215.45606 
L 97.67359 204.52884 
L 98.063784 193.077802 
L 99.143322 186.182718 
L 99.338419 182.873873 
L 100.977234 179.062829 
L 102.225855 156.768213 
L 102.79814 144.261696 
L 103.851664 140.93032 
L 104.514995 125.188866 
L 105.217344 115.222946 
L 105.828648 117.939625 
L 105.854661 105.458662 
L 106.882172 104.587144 
L 107.207334 92.11585 
L 108.026742 88.63928 
L 108.390923 77.80506 
L 109.28837 70.50241 
L 109.613532 61.975137 
L 110.458952 66.458923 
L 110.758101 70.698807 
L 111.512476 62.910781 
L 111.824632 62.562042 
L 112.631033 53.568 
L 112.904169 53.921576 
L 113.684557 57.619337 
L 113.957693 62.34939 
L 114.712068 66.929878 
L 115.752586 78.810015 
L 115.791606 89.950626 
L 116.324871 101.955749 
L 116.780098 108.293105 
L 117.339376 111.916146 
L 117.820615 113.911525 
L 118.3929 115.422833 
L 118.887146 117.38518 
L 119.953677 120.357902 
L 120.499949 119.729599 
L 122.034712 103.71054 
L 122.515952 103.720153 
L 123.101243 104.808353 
L 123.621502 105.266387 
L 124.167774 105.040769 
L 124.636007 105.314921 
L 125.715544 105.674178 
L 126.339854 104.047836 
L 126.769068 101.410308 
L 127.380372 106.615551 
L 127.393379 110.319421 
L 127.601482 124.414245 
L 127.731547 155.23847 
L 128.798078 171.358473 
L 129.552453 173.778075 
L 129.825589 175.631089 
L 130.592971 175.852238 
L 130.8531 176.175617 
L 131.55545 168.5352 
L 132.192767 145.050284 
L 133.220278 119.862551 
L 133.961647 119.509332 
L 134.286809 117.314326 
L 135.002165 115.600836 
L 135.340333 115.459609 
L 136.094708 114.949528 
L 136.41987 113.837471 
L 136.706013 118.037906 
L 137.486401 116.928675 
L 137.837576 115.164718 
L 138.956132 106.386582 
L 140.035669 105.123215 
L 140.751025 103.941636 
L 141.1022 103.057738 
L 141.362329 122.581521 
L 142.272782 132.698018 
L 142.454873 132.315336 
L 143.300294 132.122784 
L 143.521404 132.272052 
L 144.23676 133.19886 
L 144.275779 140.972292 
L 144.63996 144.321817 
L 145.290284 152.24332 
L 145.719498 141.573693 
L 146.382828 128.03378 
L 146.786028 115.306817 
L 147.683475 121.351802 
L 148.463863 120.864769 
L 148.763012 120.137118 
L 149.283271 116.13689 
L 149.491374 120.88552 
L 149.972614 121.612868 
L 150.570912 122.252314 
L 151.039145 121.952268 
L 151.637442 122.230871 
L 151.767507 120.94145 
L 151.936591 132.40178 
L 152.118682 154.146471 
L 152.313779 162.119272 
L 152.795018 279.031219 
L 153.107174 290.009871 
L 153.159199 290.575543 
L 153.250245 290.464493 
L 153.406322 290.509772 
L 153.523381 290.673786 
L 153.653445 292.335173 
L 153.718478 292.856005 
L 154.017627 291.417139 
L 154.147691 291.354891 
L 154.238737 291.435742 
L 154.654944 289.840867 
L 154.732983 289.84803 
L 154.967099 288.712718 
L 155.032131 288.905558 
L 155.227229 290.307709 
L 155.422326 289.752397 
L 155.487358 289.853556 
L 155.565397 290.155556 
L 155.669449 289.989008 
L 155.903565 287.37605 
L 155.955591 287.534403 
L 156.020623 287.788734 
L 156.137682 287.734322 
L 156.319772 286.087287 
L 156.345785 284.530118 
L 156.631927 282.968464 
L 156.892057 276.814599 
L 157.334277 267.302657 
L 157.555387 264.069786 
L 157.724471 263.907486 
L 158.062639 259.839484 
L 158.166691 261.707703 
L 158.452834 263.457073 
L 158.491853 262.100181 
L 158.817015 259.443119 
L 159.701455 241.872203 
L 159.870539 241.214163 
L 159.961584 239.754181 
L 160.338772 237.235223 
L 160.637921 231.639816 
L 160.93707 222.136743 
L 161.197199 219.552745 
L 161.418309 219.202273 
L 161.535367 222.763461 
L 161.886542 218.007811 
L 162.380788 215.41638 
L 162.718956 211.135809 
L 163.14817 204.959076 
L 163.447319 213.867718 
L 163.837513 213.658372 
L 164.344765 211.709299 
L 164.409798 212.131484 
L 164.513849 212.021859 
L 165.086134 230.552319 
L 165.13816 235.816256 
L 165.658419 241.930348 
L 165.892535 244.81842 
L 165.957568 247.991356 
L 166.178678 252.560628 
L 166.516846 244.47078 
L 166.711943 243.282124 
L 166.855014 243.11094 
L 166.998086 242.762699 
L 167.297234 241.369585 
L 167.34926 239.284451 
L 167.882526 237.535738 
L 167.999584 236.560802 
L 168.05161 235.192737 
L 168.129649 238.850288 
L 168.27272 250.608155 
L 168.558862 254.363711 
L 168.753959 255.286219 
L 169.040102 261.096708 
L 169.313238 264.798799 
L 169.59938 258.763247 
L 169.872516 252.093474 
L 170.145652 252.868928 
L 170.548852 252.750617 
L 170.717937 252.83365 
L 171.004079 251.911307 
L 171.14715 251.985271 
L 171.706428 251.302183 
L 172.03159 240.117686 
L 172.278713 238.368361 
L 172.668907 237.222865 
L 172.837991 232.242465 
L 173.072108 230.530848 
L 173.267205 226.163117 
L 173.930535 220.375381 
L 174.073606 215.812411 
L 174.541839 215.972301 
L 174.645891 215.889774 
L 175.114124 210.8351 
L 175.309221 212.771617 
L 175.38726 215.050769 
L 175.842486 219.519622 
L 176.076603 221.785347 
L 176.987056 238.494055 
L 177.585354 238.486129 
L 177.728425 230.588885 
L 178.053587 225.020631 
L 178.222671 225.068443 
L 178.886001 216.630537 
L 179.068092 217.472598 
L 179.510312 221.780307 
L 179.835473 236.322116 
L 180.420765 237.430316 
L 180.784946 239.872653 
L 181.058082 234.837032 
L 181.331218 235.888808 
L 181.474289 235.934913 
L 181.656379 235.234939 
L 181.747425 235.47507 
L 182.293697 240.006595 
L 183.022059 241.487704 
L 183.412253 225.823834 
L 183.516305 223.799118 
L 183.737415 222.612775 
L 184.257674 221.550845 
L 184.556823 208.476098 
L 184.960023 207.109914 
L 185.675379 198.252807 
L 185.831457 200.348992 
L 186.403742 203.619589 
L 186.585832 199.859174 
L 186.702891 194.071292 
L 186.976026 193.243392 
L 187.431253 194.496685 
L 187.938505 189.631148 
L 188.224648 204.18801 
L 188.484777 230.649139 
L 188.809939 270.929935 
L 188.979023 278.358 
L 189.148107 277.136252 
L 189.668366 278.984378 
L 190.409735 249.725509 
L 191.16411 235.836738 
L 191.320188 228.085359 
L 191.723389 223.945814 
L 191.892473 223.768214 
L 192.178615 228.05956 
L 192.256654 226.281024 
L 192.685868 247.710695 
L 192.906978 265.164032 
L 193.245146 270.346595 
L 193.375211 269.008435 
L 193.531288 270.286738 
L 193.661353 266.43522 
L 194.025534 263.453558 
L 194.5588 243.991191 
L 194.870955 240.063569 
L 194.975007 234.226981 
L 195.066052 235.514599 
L 195.339188 246.4692 
L 196.06755 268.852793 
L 196.314673 271.152257 
L 197.264146 259.335217 
L 197.511269 259.306977 
L 197.719372 257.482163 
L 197.862443 254.626169 
L 198.031528 255.611499 
L 198.265644 259.403983 
L 199.059039 250.146146 
L 199.488252 243.262786 
L 199.631324 242.850006 
L 200.073544 250.061548 
L 200.216615 249.866097 
L 200.30766 257.959192 
L 200.645828 268.768938 
L 200.892951 267.6144 
L 201.465236 263.064041 
L 203 233.865768 
L 203.18209 231.86053 
L 203.559278 235.349505 
L 204.066531 245.145155 
L 204.183589 254.328225 
L 204.911951 271.03853 
L 205.536262 272.027004 
L 206.043514 268.699534 
L 206.238611 246.404762 
L 206.485734 245.320131 
L 206.849916 239.520129 
L 207.565271 222.405156 
L 207.708343 213.143427 
L 208.202589 201.450824 
L 208.56677 202.522753 
L 208.722847 212.17268 
L 209.048009 211.527805 
L 209.243106 204.526563 
L 209.568268 202.431034 
L 209.828398 201.968347 
L 210.140553 203.42673 
L 210.283624 207.01768 
L 210.621792 208.811551 
L 210.712838 209.938992 
L 211.129045 210.203511 
L 211.454207 208.957407 
L 212.013485 203.565833 
L 212.351653 201.977403 
L 212.76786 199.397364 
L 212.845899 199.830609 
L 213.158054 200.055058 
L 213.223087 201.469309 
L 213.756352 199.772399 
L 214.198572 201.435808 
L 214.445695 208.379584 
L 214.692818 206.17713 
L 215.356148 212.350232 
L 215.395168 214.557053 
L 215.941439 210.243011 
L 216.487711 206.537517 
L 216.695815 202.957045 
L 216.994964 203.319767 
L 217.333132 195.786888 
L 217.515223 197.345726 
L 217.89241 198.396452 
L 218.33463 195.552521 
L 218.724824 198.531021 
L 218.828876 196.218918 
L 219.193057 198.533529 
L 220.012465 217.259889 
L 220.337627 217.296338 
L 220.402659 220.86063 
L 220.597756 221.11306 
L 220.922918 238.070999 
L 221.794352 249.687121 
L 222.028468 249.263716 
L 222.483695 245.414222 
L 222.509708 247.104907 
L 222.808857 243.592891 
L 224.057478 223.023995 
L 224.239568 221.595258 
L 224.421659 224.072916 
L 224.746821 224.256097 
L 224.915905 217.331571 
L 225.254073 215.264095 
L 225.683287 213.788201 
L 225.956423 210.913252 
L 226.164526 210.789531 
L 226.515701 204.259519 
L 227.673277 196.203209 
L 227.933407 196.271379 
L 228.336607 191.373909 
L 228.570724 193.743192 
L 228.921898 196.13173 
L 229.038957 194.155883 
L 229.793332 241.752311 
L 230.040455 268.845295 
L 230.17052 278.432792 
L 230.456662 278.50583 
L 230.651759 275.803575 
L 230.924895 278.316287 
L 231.224044 274.216587 
L 231.510186 267.24754 
L 231.71829 257.169658 
L 232.38162 249.348153 
L 232.82384 227.631277 
L 233.04495 226.379471 
L 233.292073 222.237361 
L 233.617235 209.996567 
L 233.812332 209.4953 
L 234.215532 216.003913 
L 234.566707 216.482518 
L 234.63174 224.379286 
L 235.060953 227.219169 
L 235.47716 223.140488 
L 235.685264 215.773476 
L 236.322581 210.68244 
L 236.426633 204.784775 
L 237.844338 192.478759 
L 238.273552 192.717721 
L 238.520675 196.36317 
L 238.624726 199.590473 
L 239.001914 201.665908 
L 239.131979 208.614325 
L 239.509167 207.994774 
L 239.561192 210.552189 
L 239.925374 219.861396 
L 240.003412 226.358391 
L 240.185503 229.167785 
L 240.41962 245.977593 
L 240.705762 247.465269 
L 240.757788 250.261006 
L 240.939878 253.557776 
L 240.978898 257.048222 
L 241.226021 257.391981 
L 241.369092 256.81895 
L 241.382098 260.963158 
L 241.694254 262.098233 
L 241.876344 256.815219 
L 241.915364 259.778127 
L 242.201506 260.406546 
L 242.266539 258.759299 
L 242.617713 257.348826 
L 242.903856 254.11173 
L 243.203005 238.923792 
L 243.489147 236.890056 
L 243.684244 236.436183 
L 243.827315 238.578932 
L 244.282542 230.387444 
L 244.919859 222.434511 
L 245.336066 216.903485 
L 245.492144 216.750578 
L 245.804299 217.316844 
L 246.83181 197.365469 
L 247.130959 196.681037 
L 247.521153 198.220217 
L 247.742263 198.229399 
L 247.950367 200.616157 
L 248.15847 208.712343 
L 249.029904 218.157642 
L 249.094936 224.444471 
L 249.342059 225.437129 
L 249.498137 230.109318 
L 249.576176 228.736391 
L 249.940357 238.488675 
L 250.174473 237.545439 
L 250.382577 241.495124 
L 250.40859 246.725105 
L 250.694732 245.655468 
L 250.993881 247.117546 
L 251.136952 244.414403 
L 251.188978 250.843212 
L 251.77427 260.870707 
L 251.839302 260.559208 
L 251.930347 266.900198 
L 252.151457 268.894161 
L 252.411587 267.202485 
L 252.827794 261.217039 
L 253.244001 251.363386 
L 253.439098 240.754387 
L 253.920337 231.448191 
L 254.063409 221.241185 
L 254.570661 211.671242 
L 254.817784 202.543751 
L 255.416082 191.390973 
L 255.832289 175.024002 
L 256.027386 178.987028 
L 256.469606 183.585683 
L 256.807774 181.721856 
L 257.145942 189.230612 
L 257.705221 190.08056 
L 258.017376 188.801261 
L 259.031881 192.116915 
L 259.200965 193.646648 
L 259.357043 199.388495 
L 259.903314 204.485841 
L 260.21547 196.609867 
L 260.605664 190.33383 
L 261.242981 187.293181 
L 261.568143 186.056375 
L 262.166441 186.720669 
L 262.413564 180.323147 
L 262.504609 180.815686 
L 262.790751 181.749662 
L 262.881797 183.467434 
L 263.480094 192.082215 
L 263.831269 191.459091 
L 264.260483 186.55953 
L 264.624664 186.406022 
L 264.949826 184.39784 
L 265.157929 185.061637 
L 265.756227 189.735469 
L 266.042369 180.45664 
L 266.575635 170.948644 
L 267.290991 149.270044 
L 267.590139 154.746612 
L 268.084385 157.541546 
L 268.357521 163.303195 
L 268.474579 169.351144 
L 269.059871 257.126924 
L 269.254968 268.579246 
L 269.710194 267.450091 
L 270.035356 262.452167 
L 270.282479 254.160334 
L 270.86777 244.220594 
L 271.166919 230.130919 
L 271.674172 217.40486 
L 272.376521 189.636788 
L 272.740702 180.098554 
L 273.11789 167.004822 
L 273.469065 161.084594 
L 273.989324 158.202671 
L 274.366511 154.097859 
L 275.420035 161.554388 
L 275.58912 163.877786 
L 276.109378 167.273435 
L 276.330489 164.231478 
L 276.824734 167.676932 
L 277.214929 167.111729 
L 277.514077 165.800681 
L 278.02133 172.891836 
L 278.346492 170.278975 
L 278.476556 175.413459 
L 279.621126 169.239651 
L 280.258443 170.25859 
L 280.583605 165.135719 
L 280.921773 216.988525 
L 281.520071 289.952487 
L 281.702161 291.443066 
L 281.832226 292.070405 
L 282.092356 295.456373 
L 282.235427 295.405788 
L 282.313466 295.264043 
L 282.742679 291.577308 
L 283.041828 288.538091 
L 283.562087 284.570638 
L 283.666139 284.911214 
L 283.926268 284.013297 
L 284.47254 286.967452 
L 284.758682 286.808131 
L 285.005805 281.449596 
L 285.174889 281.301454 
L 285.409006 276.807596 
L 285.57809 277.078921 
L 285.812207 276.307444 
L 285.994297 280.770256 
L 286.215407 279.751599 
L 286.826711 271.841774 
L 287.099847 270.823854 
L 287.333964 268.813955 
L 287.646119 266.046238 
L 287.763177 263.140347 
L 287.971281 263.622395 
L 288.439514 261.003399 
L 289.11585 240.410684 
L 290.182381 219.705388 
L 290.325452 217.489413 
L 290.546562 220.564834 
L 290.624601 224.535041 
L 291.404989 223.129535 
L 291.756164 212.980512 
L 292.042307 214.758942 
L 292.146358 213.642029 
L 292.51054 212.36557 
L 292.848708 212.809746 
L 293.030798 206.464719 
L 293.316941 202.517566 
L 293.57707 201.697848 
L 293.720141 203.700413 
L 294.27942 209.874727 
L 294.565562 207.251362 
L 294.981769 201.810018 
L 295.319938 194.193773 
L 295.658106 191.804817 
L 297.218882 173.679364 
L 297.426986 167.071493 
L 297.830187 164.217326 
L 298.129335 170.65463 
L 298.493517 170.869987 
L 298.714627 171.895496 
L 299.247892 194.659282 
L 299.260898 206.238332 
L 299.495015 211.910052 
L 299.521028 222.822268 
L 299.742138 241.092272 
L 300.02828 244.733933 
L 300.0673 253.771827 
L 300.262397 252.457929 
L 300.28841 260.253117 
L 300.522526 261.555112 
L 300.561546 258.338281 
L 300.756643 261.592024 
L 301.185856 259.558722 
L 301.432979 255.89218 
L 301.602063 251.541471 
L 301.888206 248.069349 
L 302.369445 237.88989 
L 302.538529 239.825275 
L 302.811665 233.332635 
L 302.993756 236.006517 
L 303.019769 239.688219 
L 303.253885 242.794998 
L 303.488002 251.316183 
L 303.86519 253.903889 
L 304.450481 244.48966 
L 304.554533 236.659993 
L 304.918714 237.666004 
L 305.425966 226.173705 
L 305.608057 214.791797 
L 306.51851 203.043234 
L 306.804652 191.336166 
L 306.999749 188.939179 
L 307.415956 187.346512 
L 307.559028 184.854419 
L 308.079286 184.747955 
L 308.274384 178.826981 
L 308.612552 185.016472 
L 308.872681 199.486287 
L 309.340914 212.429119 
L 309.809147 205.961357 
L 310.381432 204.780115 
L 310.654568 207.207283 
L 310.836658 212.064424 
L 311.174827 213.430991 
L 311.356917 211.865568 
L 311.578027 206.158966 
L 311.799137 206.670066 
L 312.228351 202.781458 
L 312.475474 206.783399 
L 312.826649 207.882689 
L 313.008739 207.859536 
L 313.581024 208.391233 
L 313.789128 204.103576 
L 314.257361 198.026854 
L 314.699581 194.81779 
L 315.232846 192.554494 
L 316.000228 178.256904 
L 316.364409 177.243353 
L 316.559506 177.831988 
L 317.092771 183.043236 
L 317.495972 175.987328 
L 317.847147 175.522168 
L 318.146296 185.103684 
L 318.419432 186.904715 
L 318.679561 187.648169 
L 319.225833 200.560023 
L 319.694066 204.177191 
L 319.902169 207.822322 
L 320.409422 205.40982 
L 320.682558 215.435442 
L 321.137784 216.772362 
L 321.488959 210.378543 
L 321.840134 208.731581 
L 322.945684 205.262017 
L 323.270846 199.824827 
L 323.84313 195.250836 
L 324.298357 195.302292 
L 324.623519 192.62913 
L 325.078745 193.232499 
L 325.546978 185.539871 
L 325.820114 184.056851 
L 326.145276 184.477985 
L 326.834619 184.798495 
L 327.224813 186.738126 
L 327.615007 186.327613 
L 328.642519 180.636081 
L 328.889642 180.30155 
L 329.644017 196.38959 
L 329.89114 198.769783 
L 330.242315 200.926506 
L 330.723554 198.476341 
L 330.866625 196.034595 
L 331.399891 193.858503 
L 331.621001 194.385949 
L 332.167272 198.217567 
L 332.375376 193.716899 
L 332.570473 204.58107 
L 332.661518 200.463511 
L 332.908641 202.777718 
L 333.064719 219.145117 
L 333.363868 223.01249 
L 333.584978 230.786131 
L 333.819094 228.30047 
L 334.248308 231.738662 
L 334.35236 225.916015 
L 334.781573 230.486806 
L 335.184774 224.906142 
L 335.705033 215.30734 
L 335.939149 205.993356 
L 336.277318 200.688413 
L 337.096725 179.42153 
L 337.278816 180.090093 
L 337.460907 181.239315 
L 338.020185 183.425673 
L 338.124237 176.277405 
L 338.293321 181.977885 
L 339.086715 192.067896 
L 339.346845 189.464738 
L 339.711026 190.628754 
L 340.166253 189.257963 
L 340.465402 191.245257 
L 341.24579 182.237842 
L 341.531932 184.857831 
L 341.766049 175.248825 
L 342.312321 173.509954 
L 342.910618 169.468314 
L 343.222774 169.564955 
L 343.534929 175.15153 
L 343.990155 177.748581 
L 344.172246 174.120664 
L 344.445382 178.093426 
L 344.861589 181.158988 
L 345.160738 184.554334 
L 345.394854 183.227805 
L 345.680997 189.446492 
L 346.019165 189.957525 
L 346.253282 192.648107 
L 346.695502 194.783304 
L 346.955631 194.583615 
L 347.163735 193.441706 
L 347.566935 195.883738 
L 347.840071 195.402987 
L 348.113207 189.829571 
L 348.321311 197.331845 
L 348.542421 197.320874 
L 348.750524 204.830829 
L 349.257777 207.137631 
L 349.543919 211.067301 
L 349.647971 219.705967 
L 349.986139 216.755819 
L 350.246268 216.43649 
L 350.441365 227.192412 
L 350.662475 228.006725 
L 350.818553 229.617938 
L 350.857573 236.804939 
L 351.169728 237.31204 
L 351.247767 237.926372 
L 351.403844 242.113457 
L 351.442864 249.325733 
L 351.729006 254.722632 
L 351.924103 254.106544 
L 351.963123 257.019923 
L 352.288284 256.152234 
L 352.587433 252.55455 
L 352.756517 253.363274 
L 352.964621 250.564657 
L 353.276776 249.209191 
L 353.497886 243.350007 
L 354.265268 235.35111 
L 354.395333 229.560417 
L 354.668469 225.536998 
L 354.928598 226.71265 
L 355.149708 225.697019 
L 355.565915 220.560073 
L 355.813038 226.345985 
L 356.060161 228.743323 
L 356.554407 244.498873 
L 356.710485 244.373653 
L 356.788524 251.946198 
L 357.035647 254.639912 
L 357.087673 254.41137 
L 357.308783 255.462979 
L 357.360809 257.233328 
L 357.581919 257.215032 
L 357.68597 255.960153 
L 357.972113 254.559971 
L 358.713482 240.907086 
L 358.79152 235.803466 
L 359.038643 232.422853 
L 359.220734 232.314739 
L 359.27276 234.910706 
L 359.558902 231.777809 
L 359.806025 233.133499 
L 360.300271 245.874184 
L 360.625433 244.03825 
L 360.781511 241.837381 
L 361.145692 241.424489 
L 361.236737 235.676756 
L 361.574905 233.693758 
L 361.665951 234.307685 
L 362.654443 218.202823 
L 362.771501 212.675972 
L 363.200714 221.498017 
L 363.499863 218.339668 
L 364.228226 213.607991 
L 364.657439 206.213898 
L 364.904562 207.185756 
L 365.164692 217.771344 
L 365.372795 215.973016 
L 365.541879 219.954861 
L 365.567892 225.718181 
L 365.815015 232.245893 
L 366.062138 249.289832 
L 366.309261 253.08382 
L 366.465339 253.522955 
L 366.517365 257.795865 
L 366.751481 260.131137 
L 366.803507 257.082801 
L 366.933572 256.799917 
L 366.972591 261.2779 
L 367.27174 262.544831 
L 367.53187 260.398773 
L 367.635921 257.296598 
L 367.896051 254.759518 
L 368.559381 242.087835 
L 368.63742 235.897556 
L 369.001601 233.955026 
L 369.48284 220.878222 
L 369.586892 221.039035 
L 370.042119 216.140413 
L 370.328261 216.183017 
L 370.900546 217.523971 
L 371.017604 212.664214 
L 371.264727 211.626384 
L 371.654921 211.231298 
L 371.967076 209.966222 
L 372.292238 204.588776 
L 372.513348 206.77155 
L 372.786484 212.813953 
L 372.994588 217.780245 
L 373.371775 228.703278 
L 373.644911 229.041812 
L 374.035106 238.986733 
L 374.308241 240.338817 
L 374.802487 233.510726 
L 374.984578 229.756102 
L 375.296733 227.233317 
L 375.478824 224.25554 
L 375.738953 223.343209 
L 376.181173 217.92259 
L 376.337251 214.253951 
L 376.584374 213.563348 
L 376.779471 214.826526 
L 376.883523 216.924241 
L 377.208685 217.651144 
L 377.286724 220.036597 
L 377.793976 220.798503 
L 378.18417 216.873229 
L 378.314235 221.534796 
L 378.743448 223.199416 
L 378.912532 220.163471 
L 379.315733 216.315302 
L 379.692921 215.039586 
L 380.226186 202.206106 
L 380.43429 201.31393 
L 380.642393 200.964053 
L 380.941542 204.972472 
L 381.31873 206.4053 
L 381.487814 202.951413 
L 381.695917 205.752476 
L 381.98206 204.439242 
L 382.593364 219.368158 
L 382.970552 217.984825 
L 383.230681 215.938496 
L 383.490811 212.051594 
L 383.894011 213.320821 
L 384.245186 212.211961 
L 384.479302 210.329517 
L 385.11662 200.487918 
L 385.363743 197.984834 
L 385.55884 198.287708 
L 385.988053 202.692133 
L 386.014066 211.421213 
L 386.534325 211.766645 
L 386.872493 213.879339 
L 386.950532 208.507669 
L 387.405759 216.516563 
L 387.913011 219.352121 
L 387.965037 216.022594 
L 388.628367 213.483841 
L 388.849477 211.287604 
L 389.0966 202.899471 
L 389.304704 201.648921 
L 389.798949 212.76591 
L 390.072085 208.587105 
L 390.42326 206.235977 
L 390.800448 205.178497 
L 391.255674 202.705619 
L 391.697894 205.110849 
L 391.866979 205.000043 
L 392.062076 205.184072 
L 392.504296 204.713386 
L 392.777432 200.877164 
L 392.89449 200.979328 
L 393.479781 201.109251 
L 393.648865 196.789006 
L 394.00004 199.045624 
L 394.078079 201.541234 
L 394.637357 207.849051 
L 394.936506 209.404978 
L 395.222648 201.722301 
L 395.677875 218.08565 
L 396.406237 226.987085 
L 396.757412 225.225582 
L 397.082574 219.676348 
L 397.57682 213.709048 
L 397.732897 222.432367 
L 398.123092 218.151996 
L 398.136098 220.7645 
L 398.487273 213.937253 
L 398.487273 213.937253 
" clip-path="url(#pcb964f15a0)" style="fill: none; stroke: #1f77b4; stroke-width: 1.5; stroke-linecap: square"/>
   </g>
   <g id="patch_3">
    <path d="M 57.6 307.584 
L 57.6 41.472 
" style="fill: none; stroke: #000000; stroke-width: 0.8; stroke-linejoin: miter; stroke-linecap: square"/>
   </g>
   <g id="patch_4">
    <path d="M 414.72 307.584 
L 414.72 41.472 
" style="fill: none; stroke: #000000; stroke-width: 0.8; stroke-linejoin: miter; stroke-linecap: square"/>
   </g>
   <g id="patch_5">
    <path d="M 57.6 307.584 
L 414.72 307.584 
" style="fill: none; stroke: #000000; stroke-width: 0.8; stroke-linejoin: miter; stroke-linecap: square"/>
   </g>
   <g id="patch_6">
    <path d="M 57.6 41.472 
L 414.72 41.472 
" style="fill: none; stroke: #000000; stroke-width: 0.8; stroke-linejoin: miter; stroke-linecap: square"/>
   </g>
   <g id="text_18">
    <!-- learning curve -->
    <g transform="translate(192.96375 35.472) scale(0.12 -0.12)">
     <defs>
      <path id="DejaVuSans-6c" d="M 603 4863 
L 1178 4863 
L 1178 0 
L 603 0 
L 603 4863 
z
" transform="scale(0.015625)"/>
      <path id="DejaVuSans-67" d="M 2906 1791 
Q 2906 2416 2648 2759 
Q 2391 3103 1925 3103 
Q 1463 3103 1205 2759 
Q 947 2416 947 1791 
Q 947 1169 1205 825 
Q 1463 481 1925 481 
Q 2391 481 2648 825 
Q 2906 1169 2906 1791 
z
M 3481 434 
Q 3481 -459 3084 -895 
Q 2688 -1331 1869 -1331 
Q 1566 -1331 1297 -1286 
Q 1028 -1241 775 -1147 
L 775 -588 
Q 1028 -725 1275 -790 
Q 1522 -856 1778 -856 
Q 2344 -856 2625 -561 
Q 2906 -266 2906 331 
L 2906 616 
Q 2728 306 2450 153 
Q 2172 0 1784 0 
Q 1141 0 747 490 
Q 353 981 353 1791 
Q 353 2603 747 3093 
Q 1141 3584 1784 3584 
Q 2172 3584 2450 3431 
Q 2728 3278 2906 2969 
L 2906 3500 
L 3481 3500 
L 3481 434 
z
" transform="scale(0.015625)"/>
      <path id="DejaVuSans-63" d="M 3122 3366 
L 3122 2828 
Q 2878 2963 2633 3030 
Q 2388 3097 2138 3097 
Q 1578 3097 1268 2742 
Q 959 2388 959 1747 
Q 959 1106 1268 751 
Q 1578 397 2138 397 
Q 2388 397 2633 464 
Q 2878 531 3122 666 
L 3122 134 
Q 2881 22 2623 -34 
Q 2366 -91 2075 -91 
Q 1284 -91 818 406 
Q 353 903 353 1747 
Q 353 2603 823 3093 
Q 1294 3584 2113 3584 
Q 2378 3584 2631 3529 
Q 2884 3475 3122 3366 
z
" transform="scale(0.015625)"/>
      <path id="DejaVuSans-75" d="M 544 1381 
L 544 3500 
L 1119 3500 
L 1119 1403 
Q 1119 906 1312 657 
Q 1506 409 1894 409 
Q 2359 409 2629 706 
Q 2900 1003 2900 1516 
L 2900 3500 
L 3475 3500 
L 3475 0 
L 2900 0 
L 2900 538 
Q 2691 219 2414 64 
Q 2138 -91 1772 -91 
Q 1169 -91 856 284 
Q 544 659 544 1381 
z
M 1991 3584 
L 1991 3584 
z
" transform="scale(0.015625)"/>
      <path id="DejaVuSans-76" d="M 191 3500 
L 800 3500 
L 1894 563 
L 2988 3500 
L 3597 3500 
L 2284 0 
L 1503 0 
L 191 3500 
z
" transform="scale(0.015625)"/>
     </defs>
     <use xlink:href="#DejaVuSans-6c"/>
     <use xlink:href="#DejaVuSans-65" x="27.783203"/>
     <use xlink:href="#DejaVuSans-61" x="89.306641"/>
     <use xlink:href="#DejaVuSans-72" x="150.585938"/>
     <use xlink:href="#DejaVuSans-6e" x="189.949219"/>
     <use xlink:href="#DejaVuSans-69" x="253.328125"/>
     <use xlink:href="#DejaVuSans-6e" x="281.111328"/>
     <use xlink:href="#DejaVuSans-67" x="344.490234"/>
     <use xlink:href="#DejaVuSans-20" x="407.966797"/>
     <use xlink:href="#DejaVuSans-63" x="439.753906"/>
     <use xlink:href="#DejaVuSans-75" x="494.734375"/>
     <use xlink:href="#DejaVuSans-72" x="558.113281"/>
     <use xlink:href="#DejaVuSans-76" x="599.226562"/>
     <use xlink:href="#DejaVuSans-65" x="658.40625"/>
    </g>
   </g>
  </g>
 </g>
 <defs>
  <clipPath id="pcb964f15a0">
   <rect x="57.6" y="41.472" width="357.12" height="266.112"/>
  </clipPath>
 </defs>
</svg>
