<?xml version="1.0" encoding="utf-8" standalone="no"?>
<!DOCTYPE svg PUBLIC "-//W3C//DTD SVG 1.1//EN"
  "http://www.w3.org/Graphics/SVG/1.1/DTD/svg11.dtd">
<svg xmlns:xlink="http://www.w3.org/1999/xlink" width="460.8pt" height="345.6pt" viewBox="0 0 460.8 345.6" xmlns="http://www.w3.org/2000/svg" version="1.1">
 <metadata>
  <rdf:RDF xmlns:dc="http://purl.org/dc/elements/1.1/" xmlns:cc="http://creativecommons.org/ns#" xmlns:rdf="http://www.w3.org/1999/02/22-rdf-syntax-ns#">
   <cc:Work>
    <dc:type rdf:resource="http://purl.org/dc/dcmitype/StillImage"/>
    <dc:date>2023-08-19T14:25:53.926959</dc:date>
    <dc:format>image/svg+xml</dc:format>
    <dc:creator>
     <cc:Agent>
      <dc:title>Matplotlib v3.7.1, https://matplotlib.org/</dc:title>
     </cc:Agent>
    </dc:creator>
   </cc:Work>
  </rdf:RDF>
 </metadata>
 <defs>
  <style type="text/css">*{stroke-linejoin: round; stroke-linecap: butt}</style>
 </defs>
 <g id="figure_1">
  <g id="patch_1">
   <path d="M 0 345.6 
L 460.8 345.6 
L 460.8 0 
L 0 0 
z
" style="fill: #ffffff"/>
  </g>
  <g id="axes_1">
   <g id="patch_2">
    <path d="M 57.6 307.584 
L 414.72 307.584 
L 414.72 41.472 
L 57.6 41.472 
z
" style="fill: #ffffff"/>
   </g>
   <g id="matplotlib.axis_1">
    <g id="xtick_1">
     <g id="line2d_1">
      <defs>
       <path id="mefe9517590" d="M 0 0 
L 0 3.5 
" style="stroke: #000000; stroke-width: 0.8"/>
      </defs>
      <g>
       <use xlink:href="#mefe9517590" x="73.104802" y="307.584" style="stroke: #000000; stroke-width: 0.8"/>
      </g>
     </g>
     <g id="text_1">
      <!-- 0 -->
      <g transform="translate(69.923552 322.182437) scale(0.1 -0.1)">
       <defs>
        <path id="DejaVuSans-30" d="M 2034 4250 
Q 1547 4250 1301 3770 
Q 1056 3291 1056 2328 
Q 1056 1369 1301 889 
Q 1547 409 2034 409 
Q 2525 409 2770 889 
Q 3016 1369 3016 2328 
Q 3016 3291 2770 3770 
Q 2525 4250 2034 4250 
z
M 2034 4750 
Q 2819 4750 3233 4129 
Q 3647 3509 3647 2328 
Q 3647 1150 3233 529 
Q 2819 -91 2034 -91 
Q 1250 -91 836 529 
Q 422 1150 422 2328 
Q 422 3509 836 4129 
Q 1250 4750 2034 4750 
z
" transform="scale(0.015625)"/>
       </defs>
       <use xlink:href="#DejaVuSans-30"/>
      </g>
     </g>
    </g>
    <g id="xtick_2">
     <g id="line2d_2">
      <g>
       <use xlink:href="#mefe9517590" x="145.897301" y="307.584" style="stroke: #000000; stroke-width: 0.8"/>
      </g>
     </g>
     <g id="text_2">
      <!-- 1000 -->
      <g transform="translate(133.172301 322.182437) scale(0.1 -0.1)">
       <defs>
        <path id="DejaVuSans-31" d="M 794 531 
L 1825 531 
L 1825 4091 
L 703 3866 
L 703 4441 
L 1819 4666 
L 2450 4666 
L 2450 531 
L 3481 531 
L 3481 0 
L 794 0 
L 794 531 
z
" transform="scale(0.015625)"/>
       </defs>
       <use xlink:href="#DejaVuSans-31"/>
       <use xlink:href="#DejaVuSans-30" x="63.623047"/>
       <use xlink:href="#DejaVuSans-30" x="127.246094"/>
       <use xlink:href="#DejaVuSans-30" x="190.869141"/>
      </g>
     </g>
    </g>
    <g id="xtick_3">
     <g id="line2d_3">
      <g>
       <use xlink:href="#mefe9517590" x="218.6898" y="307.584" style="stroke: #000000; stroke-width: 0.8"/>
      </g>
     </g>
     <g id="text_3">
      <!-- 2000 -->
      <g transform="translate(205.9648 322.182437) scale(0.1 -0.1)">
       <defs>
        <path id="DejaVuSans-32" d="M 1228 531 
L 3431 531 
L 3431 0 
L 469 0 
L 469 531 
Q 828 903 1448 1529 
Q 2069 2156 2228 2338 
Q 2531 2678 2651 2914 
Q 2772 3150 2772 3378 
Q 2772 3750 2511 3984 
Q 2250 4219 1831 4219 
Q 1534 4219 1204 4116 
Q 875 4013 500 3803 
L 500 4441 
Q 881 4594 1212 4672 
Q 1544 4750 1819 4750 
Q 2544 4750 2975 4387 
Q 3406 4025 3406 3419 
Q 3406 3131 3298 2873 
Q 3191 2616 2906 2266 
Q 2828 2175 2409 1742 
Q 1991 1309 1228 531 
z
" transform="scale(0.015625)"/>
       </defs>
       <use xlink:href="#DejaVuSans-32"/>
       <use xlink:href="#DejaVuSans-30" x="63.623047"/>
       <use xlink:href="#DejaVuSans-30" x="127.246094"/>
       <use xlink:href="#DejaVuSans-30" x="190.869141"/>
      </g>
     </g>
    </g>
    <g id="xtick_4">
     <g id="line2d_4">
      <g>
       <use xlink:href="#mefe9517590" x="291.482299" y="307.584" style="stroke: #000000; stroke-width: 0.8"/>
      </g>
     </g>
     <g id="text_4">
      <!-- 3000 -->
      <g transform="translate(278.757299 322.182437) scale(0.1 -0.1)">
       <defs>
        <path id="DejaVuSans-33" d="M 2597 2516 
Q 3050 2419 3304 2112 
Q 3559 1806 3559 1356 
Q 3559 666 3084 287 
Q 2609 -91 1734 -91 
Q 1441 -91 1130 -33 
Q 819 25 488 141 
L 488 750 
Q 750 597 1062 519 
Q 1375 441 1716 441 
Q 2309 441 2620 675 
Q 2931 909 2931 1356 
Q 2931 1769 2642 2001 
Q 2353 2234 1838 2234 
L 1294 2234 
L 1294 2753 
L 1863 2753 
Q 2328 2753 2575 2939 
Q 2822 3125 2822 3475 
Q 2822 3834 2567 4026 
Q 2313 4219 1838 4219 
Q 1578 4219 1281 4162 
Q 984 4106 628 3988 
L 628 4550 
Q 988 4650 1302 4700 
Q 1616 4750 1894 4750 
Q 2613 4750 3031 4423 
Q 3450 4097 3450 3541 
Q 3450 3153 3228 2886 
Q 3006 2619 2597 2516 
z
" transform="scale(0.015625)"/>
       </defs>
       <use xlink:href="#DejaVuSans-33"/>
       <use xlink:href="#DejaVuSans-30" x="63.623047"/>
       <use xlink:href="#DejaVuSans-30" x="127.246094"/>
       <use xlink:href="#DejaVuSans-30" x="190.869141"/>
      </g>
     </g>
    </g>
    <g id="xtick_5">
     <g id="line2d_5">
      <g>
       <use xlink:href="#mefe9517590" x="364.274798" y="307.584" style="stroke: #000000; stroke-width: 0.8"/>
      </g>
     </g>
     <g id="text_5">
      <!-- 4000 -->
      <g transform="translate(351.549798 322.182437) scale(0.1 -0.1)">
       <defs>
        <path id="DejaVuSans-34" d="M 2419 4116 
L 825 1625 
L 2419 1625 
L 2419 4116 
z
M 2253 4666 
L 3047 4666 
L 3047 1625 
L 3713 1625 
L 3713 1100 
L 3047 1100 
L 3047 0 
L 2419 0 
L 2419 1100 
L 313 1100 
L 313 1709 
L 2253 4666 
z
" transform="scale(0.015625)"/>
       </defs>
       <use xlink:href="#DejaVuSans-34"/>
       <use xlink:href="#DejaVuSans-30" x="63.623047"/>
       <use xlink:href="#DejaVuSans-30" x="127.246094"/>
       <use xlink:href="#DejaVuSans-30" x="190.869141"/>
      </g>
     </g>
    </g>
    <g id="text_6">
     <!-- episodes -->
     <g transform="translate(214.000625 335.860562) scale(0.1 -0.1)">
      <defs>
       <path id="DejaVuSans-65" d="M 3597 1894 
L 3597 1613 
L 953 1613 
Q 991 1019 1311 708 
Q 1631 397 2203 397 
Q 2534 397 2845 478 
Q 3156 559 3463 722 
L 3463 178 
Q 3153 47 2828 -22 
Q 2503 -91 2169 -91 
Q 1331 -91 842 396 
Q 353 884 353 1716 
Q 353 2575 817 3079 
Q 1281 3584 2069 3584 
Q 2775 3584 3186 3129 
Q 3597 2675 3597 1894 
z
M 3022 2063 
Q 3016 2534 2758 2815 
Q 2500 3097 2075 3097 
Q 1594 3097 1305 2825 
Q 1016 2553 972 2059 
L 3022 2063 
z
" transform="scale(0.015625)"/>
       <path id="DejaVuSans-70" d="M 1159 525 
L 1159 -1331 
L 581 -1331 
L 581 3500 
L 1159 3500 
L 1159 2969 
Q 1341 3281 1617 3432 
Q 1894 3584 2278 3584 
Q 2916 3584 3314 3078 
Q 3713 2572 3713 1747 
Q 3713 922 3314 415 
Q 2916 -91 2278 -91 
Q 1894 -91 1617 61 
Q 1341 213 1159 525 
z
M 3116 1747 
Q 3116 2381 2855 2742 
Q 2594 3103 2138 3103 
Q 1681 3103 1420 2742 
Q 1159 2381 1159 1747 
Q 1159 1113 1420 752 
Q 1681 391 2138 391 
Q 2594 391 2855 752 
Q 3116 1113 3116 1747 
z
" transform="scale(0.015625)"/>
       <path id="DejaVuSans-69" d="M 603 3500 
L 1178 3500 
L 1178 0 
L 603 0 
L 603 3500 
z
M 603 4863 
L 1178 4863 
L 1178 4134 
L 603 4134 
L 603 4863 
z
" transform="scale(0.015625)"/>
       <path id="DejaVuSans-73" d="M 2834 3397 
L 2834 2853 
Q 2591 2978 2328 3040 
Q 2066 3103 1784 3103 
Q 1356 3103 1142 2972 
Q 928 2841 928 2578 
Q 928 2378 1081 2264 
Q 1234 2150 1697 2047 
L 1894 2003 
Q 2506 1872 2764 1633 
Q 3022 1394 3022 966 
Q 3022 478 2636 193 
Q 2250 -91 1575 -91 
Q 1294 -91 989 -36 
Q 684 19 347 128 
L 347 722 
Q 666 556 975 473 
Q 1284 391 1588 391 
Q 1994 391 2212 530 
Q 2431 669 2431 922 
Q 2431 1156 2273 1281 
Q 2116 1406 1581 1522 
L 1381 1569 
Q 847 1681 609 1914 
Q 372 2147 372 2553 
Q 372 3047 722 3315 
Q 1072 3584 1716 3584 
Q 2034 3584 2315 3537 
Q 2597 3491 2834 3397 
z
" transform="scale(0.015625)"/>
       <path id="DejaVuSans-6f" d="M 1959 3097 
Q 1497 3097 1228 2736 
Q 959 2375 959 1747 
Q 959 1119 1226 758 
Q 1494 397 1959 397 
Q 2419 397 2687 759 
Q 2956 1122 2956 1747 
Q 2956 2369 2687 2733 
Q 2419 3097 1959 3097 
z
M 1959 3584 
Q 2709 3584 3137 3096 
Q 3566 2609 3566 1747 
Q 3566 888 3137 398 
Q 2709 -91 1959 -91 
Q 1206 -91 779 398 
Q 353 888 353 1747 
Q 353 2609 779 3096 
Q 1206 3584 1959 3584 
z
" transform="scale(0.015625)"/>
       <path id="DejaVuSans-64" d="M 2906 2969 
L 2906 4863 
L 3481 4863 
L 3481 0 
L 2906 0 
L 2906 525 
Q 2725 213 2448 61 
Q 2172 -91 1784 -91 
Q 1150 -91 751 415 
Q 353 922 353 1747 
Q 353 2572 751 3078 
Q 1150 3584 1784 3584 
Q 2172 3584 2448 3432 
Q 2725 3281 2906 2969 
z
M 947 1747 
Q 947 1113 1208 752 
Q 1469 391 1925 391 
Q 2381 391 2643 752 
Q 2906 1113 2906 1747 
Q 2906 2381 2643 2742 
Q 2381 3103 1925 3103 
Q 1469 3103 1208 2742 
Q 947 2381 947 1747 
z
" transform="scale(0.015625)"/>
      </defs>
      <use xlink:href="#DejaVuSans-65"/>
      <use xlink:href="#DejaVuSans-70" x="61.523438"/>
      <use xlink:href="#DejaVuSans-69" x="125"/>
      <use xlink:href="#DejaVuSans-73" x="152.783203"/>
      <use xlink:href="#DejaVuSans-6f" x="204.882812"/>
      <use xlink:href="#DejaVuSans-64" x="266.064453"/>
      <use xlink:href="#DejaVuSans-65" x="329.541016"/>
      <use xlink:href="#DejaVuSans-73" x="391.064453"/>
     </g>
    </g>
   </g>
   <g id="matplotlib.axis_2">
    <g id="ytick_1">
     <g id="line2d_6">
      <defs>
       <path id="maf9579ec7f" d="M 0 0 
L -3.5 0 
" style="stroke: #000000; stroke-width: 0.8"/>
      </defs>
      <g>
       <use xlink:href="#maf9579ec7f" x="57.6" y="288.166147" style="stroke: #000000; stroke-width: 0.8"/>
      </g>
     </g>
     <g id="text_7">
      <!-- 20 -->
      <g transform="translate(37.875 291.965366) scale(0.1 -0.1)">
       <use xlink:href="#DejaVuSans-32"/>
       <use xlink:href="#DejaVuSans-30" x="63.623047"/>
      </g>
     </g>
    </g>
    <g id="ytick_2">
     <g id="line2d_7">
      <g>
       <use xlink:href="#maf9579ec7f" x="57.6" y="258.281033" style="stroke: #000000; stroke-width: 0.8"/>
      </g>
     </g>
     <g id="text_8">
      <!-- 40 -->
      <g transform="translate(37.875 262.080251) scale(0.1 -0.1)">
       <use xlink:href="#DejaVuSans-34"/>
       <use xlink:href="#DejaVuSans-30" x="63.623047"/>
      </g>
     </g>
    </g>
    <g id="ytick_3">
     <g id="line2d_8">
      <g>
       <use xlink:href="#maf9579ec7f" x="57.6" y="228.395918" style="stroke: #000000; stroke-width: 0.8"/>
      </g>
     </g>
     <g id="text_9">
      <!-- 60 -->
      <g transform="translate(37.875 232.195137) scale(0.1 -0.1)">
       <defs>
        <path id="DejaVuSans-36" d="M 2113 2584 
Q 1688 2584 1439 2293 
Q 1191 2003 1191 1497 
Q 1191 994 1439 701 
Q 1688 409 2113 409 
Q 2538 409 2786 701 
Q 3034 994 3034 1497 
Q 3034 2003 2786 2293 
Q 2538 2584 2113 2584 
z
M 3366 4563 
L 3366 3988 
Q 3128 4100 2886 4159 
Q 2644 4219 2406 4219 
Q 1781 4219 1451 3797 
Q 1122 3375 1075 2522 
Q 1259 2794 1537 2939 
Q 1816 3084 2150 3084 
Q 2853 3084 3261 2657 
Q 3669 2231 3669 1497 
Q 3669 778 3244 343 
Q 2819 -91 2113 -91 
Q 1303 -91 875 529 
Q 447 1150 447 2328 
Q 447 3434 972 4092 
Q 1497 4750 2381 4750 
Q 2619 4750 2861 4703 
Q 3103 4656 3366 4563 
z
" transform="scale(0.015625)"/>
       </defs>
       <use xlink:href="#DejaVuSans-36"/>
       <use xlink:href="#DejaVuSans-30" x="63.623047"/>
      </g>
     </g>
    </g>
    <g id="ytick_4">
     <g id="line2d_9">
      <g>
       <use xlink:href="#maf9579ec7f" x="57.6" y="198.510804" style="stroke: #000000; stroke-width: 0.8"/>
      </g>
     </g>
     <g id="text_10">
      <!-- 80 -->
      <g transform="translate(37.875 202.310023) scale(0.1 -0.1)">
       <defs>
        <path id="DejaVuSans-38" d="M 2034 2216 
Q 1584 2216 1326 1975 
Q 1069 1734 1069 1313 
Q 1069 891 1326 650 
Q 1584 409 2034 409 
Q 2484 409 2743 651 
Q 3003 894 3003 1313 
Q 3003 1734 2745 1975 
Q 2488 2216 2034 2216 
z
M 1403 2484 
Q 997 2584 770 2862 
Q 544 3141 544 3541 
Q 544 4100 942 4425 
Q 1341 4750 2034 4750 
Q 2731 4750 3128 4425 
Q 3525 4100 3525 3541 
Q 3525 3141 3298 2862 
Q 3072 2584 2669 2484 
Q 3125 2378 3379 2068 
Q 3634 1759 3634 1313 
Q 3634 634 3220 271 
Q 2806 -91 2034 -91 
Q 1263 -91 848 271 
Q 434 634 434 1313 
Q 434 1759 690 2068 
Q 947 2378 1403 2484 
z
M 1172 3481 
Q 1172 3119 1398 2916 
Q 1625 2713 2034 2713 
Q 2441 2713 2670 2916 
Q 2900 3119 2900 3481 
Q 2900 3844 2670 4047 
Q 2441 4250 2034 4250 
Q 1625 4250 1398 4047 
Q 1172 3844 1172 3481 
z
" transform="scale(0.015625)"/>
       </defs>
       <use xlink:href="#DejaVuSans-38"/>
       <use xlink:href="#DejaVuSans-30" x="63.623047"/>
      </g>
     </g>
    </g>
    <g id="ytick_5">
     <g id="line2d_10">
      <g>
       <use xlink:href="#maf9579ec7f" x="57.6" y="168.62569" style="stroke: #000000; stroke-width: 0.8"/>
      </g>
     </g>
     <g id="text_11">
      <!-- 100 -->
      <g transform="translate(31.5125 172.424909) scale(0.1 -0.1)">
       <use xlink:href="#DejaVuSans-31"/>
       <use xlink:href="#DejaVuSans-30" x="63.623047"/>
       <use xlink:href="#DejaVuSans-30" x="127.246094"/>
      </g>
     </g>
    </g>
    <g id="ytick_6">
     <g id="line2d_11">
      <g>
       <use xlink:href="#maf9579ec7f" x="57.6" y="138.740576" style="stroke: #000000; stroke-width: 0.8"/>
      </g>
     </g>
     <g id="text_12">
      <!-- 120 -->
      <g transform="translate(31.5125 142.539794) scale(0.1 -0.1)">
       <use xlink:href="#DejaVuSans-31"/>
       <use xlink:href="#DejaVuSans-32" x="63.623047"/>
       <use xlink:href="#DejaVuSans-30" x="127.246094"/>
      </g>
     </g>
    </g>
    <g id="ytick_7">
     <g id="line2d_12">
      <g>
       <use xlink:href="#maf9579ec7f" x="57.6" y="108.855461" style="stroke: #000000; stroke-width: 0.8"/>
      </g>
     </g>
     <g id="text_13">
      <!-- 140 -->
      <g transform="translate(31.5125 112.65468) scale(0.1 -0.1)">
       <use xlink:href="#DejaVuSans-31"/>
       <use xlink:href="#DejaVuSans-34" x="63.623047"/>
       <use xlink:href="#DejaVuSans-30" x="127.246094"/>
      </g>
     </g>
    </g>
    <g id="ytick_8">
     <g id="line2d_13">
      <g>
       <use xlink:href="#maf9579ec7f" x="57.6" y="78.970347" style="stroke: #000000; stroke-width: 0.8"/>
      </g>
     </g>
     <g id="text_14">
      <!-- 160 -->
      <g transform="translate(31.5125 82.769566) scale(0.1 -0.1)">
       <use xlink:href="#DejaVuSans-31"/>
       <use xlink:href="#DejaVuSans-36" x="63.623047"/>
       <use xlink:href="#DejaVuSans-30" x="127.246094"/>
      </g>
     </g>
    </g>
    <g id="ytick_9">
     <g id="line2d_14">
      <g>
       <use xlink:href="#maf9579ec7f" x="57.6" y="49.085233" style="stroke: #000000; stroke-width: 0.8"/>
      </g>
     </g>
     <g id="text_15">
      <!-- 180 -->
      <g transform="translate(31.5125 52.884452) scale(0.1 -0.1)">
       <use xlink:href="#DejaVuSans-31"/>
       <use xlink:href="#DejaVuSans-38" x="63.623047"/>
       <use xlink:href="#DejaVuSans-30" x="127.246094"/>
      </g>
     </g>
    </g>
    <g id="text_16">
     <!-- mean episode length -->
     <g transform="translate(25.432812 227.378) rotate(-90) scale(0.1 -0.1)">
      <defs>
       <path id="DejaVuSans-6d" d="M 3328 2828 
Q 3544 3216 3844 3400 
Q 4144 3584 4550 3584 
Q 5097 3584 5394 3201 
Q 5691 2819 5691 2113 
L 5691 0 
L 5113 0 
L 5113 2094 
Q 5113 2597 4934 2840 
Q 4756 3084 4391 3084 
Q 3944 3084 3684 2787 
Q 3425 2491 3425 1978 
L 3425 0 
L 2847 0 
L 2847 2094 
Q 2847 2600 2669 2842 
Q 2491 3084 2119 3084 
Q 1678 3084 1418 2786 
Q 1159 2488 1159 1978 
L 1159 0 
L 581 0 
L 581 3500 
L 1159 3500 
L 1159 2956 
Q 1356 3278 1631 3431 
Q 1906 3584 2284 3584 
Q 2666 3584 2933 3390 
Q 3200 3197 3328 2828 
z
" transform="scale(0.015625)"/>
       <path id="DejaVuSans-61" d="M 2194 1759 
Q 1497 1759 1228 1600 
Q 959 1441 959 1056 
Q 959 750 1161 570 
Q 1363 391 1709 391 
Q 2188 391 2477 730 
Q 2766 1069 2766 1631 
L 2766 1759 
L 2194 1759 
z
M 3341 1997 
L 3341 0 
L 2766 0 
L 2766 531 
Q 2569 213 2275 61 
Q 1981 -91 1556 -91 
Q 1019 -91 701 211 
Q 384 513 384 1019 
Q 384 1609 779 1909 
Q 1175 2209 1959 2209 
L 2766 2209 
L 2766 2266 
Q 2766 2663 2505 2880 
Q 2244 3097 1772 3097 
Q 1472 3097 1187 3025 
Q 903 2953 641 2809 
L 641 3341 
Q 956 3463 1253 3523 
Q 1550 3584 1831 3584 
Q 2591 3584 2966 3190 
Q 3341 2797 3341 1997 
z
" transform="scale(0.015625)"/>
       <path id="DejaVuSans-6e" d="M 3513 2113 
L 3513 0 
L 2938 0 
L 2938 2094 
Q 2938 2591 2744 2837 
Q 2550 3084 2163 3084 
Q 1697 3084 1428 2787 
Q 1159 2491 1159 1978 
L 1159 0 
L 581 0 
L 581 3500 
L 1159 3500 
L 1159 2956 
Q 1366 3272 1645 3428 
Q 1925 3584 2291 3584 
Q 2894 3584 3203 3211 
Q 3513 2838 3513 2113 
z
" transform="scale(0.015625)"/>
       <path id="DejaVuSans-20" transform="scale(0.015625)"/>
       <path id="DejaVuSans-6c" d="M 603 4863 
L 1178 4863 
L 1178 0 
L 603 0 
L 603 4863 
z
" transform="scale(0.015625)"/>
       <path id="DejaVuSans-67" d="M 2906 1791 
Q 2906 2416 2648 2759 
Q 2391 3103 1925 3103 
Q 1463 3103 1205 2759 
Q 947 2416 947 1791 
Q 947 1169 1205 825 
Q 1463 481 1925 481 
Q 2391 481 2648 825 
Q 2906 1169 2906 1791 
z
M 3481 434 
Q 3481 -459 3084 -895 
Q 2688 -1331 1869 -1331 
Q 1566 -1331 1297 -1286 
Q 1028 -1241 775 -1147 
L 775 -588 
Q 1028 -725 1275 -790 
Q 1522 -856 1778 -856 
Q 2344 -856 2625 -561 
Q 2906 -266 2906 331 
L 2906 616 
Q 2728 306 2450 153 
Q 2172 0 1784 0 
Q 1141 0 747 490 
Q 353 981 353 1791 
Q 353 2603 747 3093 
Q 1141 3584 1784 3584 
Q 2172 3584 2450 3431 
Q 2728 3278 2906 2969 
L 2906 3500 
L 3481 3500 
L 3481 434 
z
" transform="scale(0.015625)"/>
       <path id="DejaVuSans-74" d="M 1172 4494 
L 1172 3500 
L 2356 3500 
L 2356 3053 
L 1172 3053 
L 1172 1153 
Q 1172 725 1289 603 
Q 1406 481 1766 481 
L 2356 481 
L 2356 0 
L 1766 0 
Q 1100 0 847 248 
Q 594 497 594 1153 
L 594 3053 
L 172 3053 
L 172 3500 
L 594 3500 
L 594 4494 
L 1172 4494 
z
" transform="scale(0.015625)"/>
       <path id="DejaVuSans-68" d="M 3513 2113 
L 3513 0 
L 2938 0 
L 2938 2094 
Q 2938 2591 2744 2837 
Q 2550 3084 2163 3084 
Q 1697 3084 1428 2787 
Q 1159 2491 1159 1978 
L 1159 0 
L 581 0 
L 581 4863 
L 1159 4863 
L 1159 2956 
Q 1366 3272 1645 3428 
Q 1925 3584 2291 3584 
Q 2894 3584 3203 3211 
Q 3513 2838 3513 2113 
z
" transform="scale(0.015625)"/>
      </defs>
      <use xlink:href="#DejaVuSans-6d"/>
      <use xlink:href="#DejaVuSans-65" x="97.412109"/>
      <use xlink:href="#DejaVuSans-61" x="158.935547"/>
      <use xlink:href="#DejaVuSans-6e" x="220.214844"/>
      <use xlink:href="#DejaVuSans-20" x="283.59375"/>
      <use xlink:href="#DejaVuSans-65" x="315.380859"/>
      <use xlink:href="#DejaVuSans-70" x="376.904297"/>
      <use xlink:href="#DejaVuSans-69" x="440.380859"/>
      <use xlink:href="#DejaVuSans-73" x="468.164062"/>
      <use xlink:href="#DejaVuSans-6f" x="520.263672"/>
      <use xlink:href="#DejaVuSans-64" x="581.445312"/>
      <use xlink:href="#DejaVuSans-65" x="644.921875"/>
      <use xlink:href="#DejaVuSans-20" x="706.445312"/>
      <use xlink:href="#DejaVuSans-6c" x="738.232422"/>
      <use xlink:href="#DejaVuSans-65" x="766.015625"/>
      <use xlink:href="#DejaVuSans-6e" x="827.539062"/>
      <use xlink:href="#DejaVuSans-67" x="890.917969"/>
      <use xlink:href="#DejaVuSans-74" x="954.394531"/>
      <use xlink:href="#DejaVuSans-68" x="993.603516"/>
     </g>
    </g>
   </g>
   <g id="line2d_15">
    <path d="M 73.832727 295.488 
L 74.560652 290.258105 
L 75.288577 290.556956 
L 76.016502 288.203503 
L 76.744427 287.000628 
L 77.472352 286.796413 
L 78.200277 287.294498 
L 78.928202 286.821317 
L 79.656127 286.970742 
L 80.384052 286.89603 
L 81.839902 286.402925 
L 82.567827 285.700625 
L 83.295752 286.89603 
L 84.023677 287.254651 
L 84.751602 287.478789 
L 85.479527 286.148902 
L 86.207452 286.37304 
L 86.935377 286.328212 
L 87.663302 285.132808 
L 88.391227 284.310967 
L 89.119152 284.251197 
L 89.847077 283.578782 
L 90.575002 281.486824 
L 91.302927 280.948892 
L 92.030852 280.216707 
L 92.758777 280.739696 
L 93.486702 280.664983 
L 94.214627 280.366132 
L 95.670477 281.860388 
L 96.398402 281.352341 
L 97.126327 282.024756 
L 97.854252 283.175333 
L 98.582177 283.608667 
L 99.310102 284.236254 
L 100.038027 284.535106 
L 100.765952 284.101771 
L 101.493877 284.848899 
L 102.221802 284.684531 
L 102.949727 283.787978 
L 103.677652 284.490278 
L 104.405577 285.446602 
L 105.133502 284.490278 
L 105.861427 285.02821 
L 106.589352 283.444299 
L 107.317277 282.951195 
L 108.045202 283.593725 
L 108.773127 282.51786 
L 109.501052 283.668437 
L 110.228977 284.012116 
L 111.684827 282.189124 
L 112.412752 282.054641 
L 113.140677 281.008662 
L 113.868602 281.606364 
L 114.596527 280.067281 
L 115.324452 277.870725 
L 116.052377 274.239684 
L 116.780302 270.025883 
L 117.508227 268.486799 
L 118.236152 266.335071 
L 118.964077 263.750009 
L 119.692002 259.61092 
L 120.419927 253.574127 
L 121.147852 250.660329 
L 121.875777 246.760321 
L 122.603702 240.6787 
L 123.331627 240.574103 
L 124.059552 239.543066 
L 125.515402 232.968341 
L 126.243327 232.878686 
L 126.971252 235.732714 
L 127.699177 241.112035 
L 128.427102 243.487901 
L 129.155026 247.716645 
L 129.882951 254.067232 
L 130.610876 256.428156 
L 131.338801 259.670691 
L 132.066726 266.887946 
L 132.794651 267.470705 
L 133.522576 265.692541 
L 134.250501 265.214379 
L 134.978426 259.685633 
L 135.706351 250.974122 
L 137.162201 236.793636 
L 137.890126 226.602812 
L 138.618051 220.715444 
L 140.073901 206.02691 
L 140.801826 200.513107 
L 141.529751 194.057922 
L 142.257676 192.010792 
L 142.985601 191.786653 
L 143.713526 192.010792 
L 144.441451 191.741826 
L 145.169376 191.293549 
L 145.897301 190.008489 
L 146.625226 190.202742 
L 147.353151 190.157915 
L 148.081076 190.426881 
L 148.809001 190.24757 
L 149.536926 191.876309 
L 150.264851 191.726883 
L 150.992776 189.709638 
L 151.720701 190.038374 
L 152.448626 192.369413 
L 153.176551 195.806201 
L 153.904476 197.718849 
L 154.632401 200.274026 
L 155.360326 200.826901 
L 156.088251 203.352193 
L 156.816176 203.531503 
L 157.544101 204.921161 
L 158.272026 207.730362 
L 158.999951 211.630369 
L 159.727876 211.152208 
L 160.455801 209.777492 
L 161.183726 204.697023 
L 161.911651 201.185522 
L 162.639576 199.885519 
L 163.367501 196.67287 
L 164.095426 190.068259 
L 164.823351 185.854458 
L 165.551276 176.739498 
L 167.007126 154.624514 
L 167.735051 155.864746 
L 168.462976 146.286567 
L 169.190901 132.838266 
L 169.918826 114.623288 
L 170.646751 101.264642 
L 171.374676 93.957732 
L 173.558451 76.654251 
L 175.014301 53.568 
L 175.742226 56.436971 
L 176.470151 60.038127 
L 177.198076 68.361132 
L 177.926001 74.935857 
L 178.653926 77.520919 
L 179.381851 75.219765 
L 180.109776 81.405984 
L 180.837701 85.470359 
L 181.565626 99.860042 
L 182.293551 102.474989 
L 183.021476 105.881893 
L 183.749401 113.024435 
L 184.477326 114.698001 
L 185.205251 114.189954 
L 185.933176 115.445129 
L 186.661101 123.349742 
L 188.116951 130.64171 
L 188.844876 129.969295 
L 189.572801 131.28424 
L 190.300726 132.061253 
L 191.028651 130.402629 
L 191.756576 134.721028 
L 192.484501 136.842871 
L 193.212426 138.456667 
L 193.940351 137.649769 
L 194.668276 136.275054 
L 195.396201 135.796892 
L 196.124126 136.02103 
L 196.852051 136.424479 
L 197.579976 136.499192 
L 198.307901 135.811834 
L 199.035826 134.915281 
L 199.763751 135.034821 
L 201.2196 133.884245 
L 201.947525 134.123326 
L 202.67545 134.242866 
L 204.1313 133.749762 
L 204.859225 133.017576 
L 205.58715 132.599185 
L 206.315075 132.868151 
L 207.043 133.525623 
L 207.770925 133.241715 
L 208.49885 134.257809 
L 209.226775 134.287694 
L 209.9547 133.988842 
L 210.682625 134.212981 
L 211.41055 133.645164 
L 212.138475 134.347464 
L 212.8664 134.780798 
L 214.32225 133.301485 
L 215.050175 133.421025 
L 215.7781 134.227923 
L 216.506025 134.138268 
L 217.23395 133.181944 
L 217.961875 132.539414 
L 218.6898 132.225621 
L 220.14565 129.401477 
L 220.873575 128.983086 
L 221.6015 127.698026 
L 222.329425 127.175036 
L 223.05735 125.068136 
L 223.785275 124.440548 
L 224.5132 126.8463 
L 225.241125 128.265843 
L 225.96905 131.075044 
L 226.696975 133.077347 
L 227.4249 134.541717 
L 228.88075 136.633675 
L 229.608675 137.784252 
L 230.3366 139.607244 
L 231.064525 140.698051 
L 231.79245 138.725633 
L 232.520375 137.799195 
L 233.976225 136.409537 
L 234.70415 136.469307 
L 235.432075 137.515286 
L 236.16 136.245169 
L 236.887925 136.349767 
L 238.343775 139.861267 
L 239.0717 141.22104 
L 239.799625 140.563568 
L 240.52755 140.892304 
L 241.255475 143.537137 
L 241.9834 145.494611 
L 242.711325 146.376222 
L 243.43925 149.827953 
L 244.167175 151.546347 
L 244.8951 151.516462 
L 245.623025 150.769334 
L 247.078875 153.100373 
L 247.8068 152.009566 
L 248.534725 151.606117 
L 249.26265 149.872781 
L 249.990575 149.155538 
L 250.7185 148.871629 
L 251.446425 146.973925 
L 252.17435 145.539439 
L 252.902275 146.585418 
L 253.6302 146.495763 
L 254.358125 148.28887 
L 255.08605 148.587721 
L 255.813975 146.973925 
L 256.5419 144.956679 
L 257.269825 143.67162 
L 257.99775 144.149781 
L 258.725675 144.358977 
L 259.4536 145.539439 
L 260.90945 142.237134 
L 261.637375 138.830231 
L 262.3653 137.231377 
L 263.093225 136.857813 
L 263.82115 138.068161 
L 264.549075 138.979657 
L 265.277 139.353221 
L 266.004925 139.472761 
L 266.73285 138.307242 
L 267.460775 138.217586 
L 268.1887 137.560114 
L 268.916625 138.217586 
L 269.64455 140.175061 
L 270.372475 140.817591 
L 271.1004 141.639432 
L 271.828325 141.684259 
L 272.556249 139.980808 
L 273.284174 140.683108 
L 274.012099 144.508403 
L 274.740024 145.599209 
L 275.467949 147.347489 
L 276.195874 148.28887 
L 276.923799 147.76588 
L 277.651724 147.900363 
L 278.379649 147.511857 
L 279.107574 148.483123 
L 279.835499 148.677376 
L 280.563424 147.287718 
L 281.291349 142.102651 
L 282.019274 142.147479 
L 282.747199 140.533683 
L 283.475124 139.368163 
L 284.203049 136.902641 
L 285.658899 135.796892 
L 286.386824 133.615279 
L 287.114749 131.941712 
L 287.842674 132.061253 
L 288.570599 133.002634 
L 290.026449 130.312973 
L 290.754374 129.954352 
L 291.482299 130.522169 
L 292.938149 129.47619 
L 293.666074 128.206073 
L 294.393999 127.189979 
L 295.849849 121.227899 
L 296.577774 120.734794 
L 297.305699 119.180768 
L 298.033624 114.742829 
L 298.761549 109.214083 
L 299.489474 101.473838 
L 300.945324 92.732442 
L 301.673249 95.511758 
L 302.401174 93.688766 
L 303.129099 87.846226 
L 303.857024 79.956556 
L 304.584949 75.443904 
L 305.312874 73.561141 
L 306.040799 79.911728 
L 306.768724 82.466905 
L 307.496649 80.748511 
L 308.224574 82.735872 
L 308.952499 77.715172 
L 309.680424 78.357702 
L 310.408349 85.784153 
L 311.136274 90.251978 
L 311.864199 93.808306 
L 312.592124 93.972674 
L 313.320049 87.681858 
L 314.047974 86.576109 
L 315.503824 95.183022 
L 316.231749 96.677277 
L 316.959674 96.483024 
L 317.687599 93.270374 
L 318.415524 95.676126 
L 319.143449 97.484175 
L 319.871374 103.87959 
L 320.599299 107.540516 
L 321.327224 110.095694 
L 322.055149 109.632474 
L 322.783074 107.002584 
L 323.510999 106.56925 
L 324.238924 108.61638 
L 324.966849 111.933628 
L 325.694774 111.081902 
L 326.422699 111.76926 
L 327.150624 106.419825 
L 327.878549 102.385334 
L 328.606474 106.673848 
L 329.334399 108.481897 
L 330.062324 109.109485 
L 330.790249 113.308343 
L 331.518174 112.635928 
L 332.246099 111.70949 
L 332.974024 112.934779 
L 333.701949 113.786505 
L 334.429874 120.122149 
L 335.157799 125.307217 
L 335.885724 122.766982 
L 336.613649 121.930199 
L 337.341574 122.483074 
L 338.069499 120.600311 
L 338.797424 120.734794 
L 339.525349 123.723306 
L 340.253274 123.006063 
L 340.981199 120.465828 
L 341.709124 121.362382 
L 342.437049 120.88422 
L 343.164974 119.972724 
L 343.892898 121.765831 
L 344.620823 120.211805 
L 345.348748 112.516388 
L 346.076673 113.323286 
L 346.804598 108.138219 
L 347.532523 108.018678 
L 348.260448 104.701431 
L 348.988373 102.639358 
L 349.716298 100.218663 
L 350.444223 98.425557 
L 351.172148 97.484175 
L 351.900073 95.34739 
L 352.627998 101.055447 
L 353.355923 100.577285 
L 354.083848 102.161196 
L 354.811773 98.963489 
L 355.539698 100.756595 
L 356.267623 99.531306 
L 356.995548 99.725559 
L 357.723473 98.79912 
L 358.451398 95.302562 
L 359.179323 95.691069 
L 359.907248 91.761176 
L 360.635173 86.411741 
L 361.363098 72.365737 
L 362.091023 73.217463 
L 362.818948 74.891029 
L 364.274798 70.333549 
L 365.002723 67.628946 
L 365.730648 65.791012 
L 366.458573 71.528954 
L 367.186498 79.956556 
L 367.914423 81.480697 
L 368.642348 92.25428 
L 369.370273 93.210604 
L 370.098198 91.37267 
L 370.826123 92.269223 
L 371.554048 93.703708 
L 372.281973 97.200267 
L 373.009898 98.963489 
L 374.465748 88.324388 
L 375.193673 89.086458 
L 375.921598 89.041631 
L 376.649523 90.520944 
L 377.377448 90.760025 
L 378.105373 89.415195 
L 379.561223 88.010594 
L 380.289148 88.653124 
L 381.017073 87.263466 
L 381.744998 84.140472 
L 382.472923 83.07955 
L 383.200848 85.903694 
L 383.928773 84.289897 
L 384.656698 83.976104 
L 385.384623 83.214033 
L 386.112548 84.768059 
L 386.840473 84.065759 
L 387.568398 82.422078 
L 388.296323 83.064608 
L 389.752173 83.288746 
L 390.480098 79.463452 
L 391.208023 76.669193 
L 391.935948 78.746209 
L 392.663873 80.001384 
L 393.391798 78.656553 
L 394.119723 79.179543 
L 394.847648 77.237011 
L 395.575573 73.232405 
L 396.303498 71.723207 
L 397.031423 71.09562 
L 397.759348 71.573781 
L 398.487273 71.304815 
L 398.487273 71.304815 
" clip-path="url(#pa1689b2bec)" style="fill: none; stroke: #1f77b4; stroke-width: 1.5; stroke-linecap: square"/>
   </g>
   <g id="patch_3">
    <path d="M 57.6 307.584 
L 57.6 41.472 
" style="fill: none; stroke: #000000; stroke-width: 0.8; stroke-linejoin: miter; stroke-linecap: square"/>
   </g>
   <g id="patch_4">
    <path d="M 414.72 307.584 
L 414.72 41.472 
" style="fill: none; stroke: #000000; stroke-width: 0.8; stroke-linejoin: miter; stroke-linecap: square"/>
   </g>
   <g id="patch_5">
    <path d="M 57.6 307.584 
L 414.72 307.584 
" style="fill: none; stroke: #000000; stroke-width: 0.8; stroke-linejoin: miter; stroke-linecap: square"/>
   </g>
   <g id="patch_6">
    <path d="M 57.6 41.472 
L 414.72 41.472 
" style="fill: none; stroke: #000000; stroke-width: 0.8; stroke-linejoin: miter; stroke-linecap: square"/>
   </g>
   <g id="text_17">
    <!-- episodes length -->
    <g transform="translate(188.536875 35.472) scale(0.12 -0.12)">
     <use xlink:href="#DejaVuSans-65"/>
     <use xlink:href="#DejaVuSans-70" x="61.523438"/>
     <use xlink:href="#DejaVuSans-69" x="125"/>
     <use xlink:href="#DejaVuSans-73" x="152.783203"/>
     <use xlink:href="#DejaVuSans-6f" x="204.882812"/>
     <use xlink:href="#DejaVuSans-64" x="266.064453"/>
     <use xlink:href="#DejaVuSans-65" x="329.541016"/>
     <use xlink:href="#DejaVuSans-73" x="391.064453"/>
     <use xlink:href="#DejaVuSans-20" x="443.164062"/>
     <use xlink:href="#DejaVuSans-6c" x="474.951172"/>
     <use xlink:href="#DejaVuSans-65" x="502.734375"/>
     <use xlink:href="#DejaVuSans-6e" x="564.257812"/>
     <use xlink:href="#DejaVuSans-67" x="627.636719"/>
     <use xlink:href="#DejaVuSans-74" x="691.113281"/>
     <use xlink:href="#DejaVuSans-68" x="730.322266"/>
    </g>
   </g>
  </g>
 </g>
 <defs>
  <clipPath id="pa1689b2bec">
   <rect x="57.6" y="41.472" width="357.12" height="266.112"/>
  </clipPath>
 </defs>
</svg>
