<?xml version="1.0" encoding="utf-8" standalone="no"?>
<!DOCTYPE svg PUBLIC "-//W3C//DTD SVG 1.1//EN"
  "http://www.w3.org/Graphics/SVG/1.1/DTD/svg11.dtd">
<svg xmlns:xlink="http://www.w3.org/1999/xlink" width="460.8pt" height="345.6pt" viewBox="0 0 460.8 345.6" xmlns="http://www.w3.org/2000/svg" version="1.1">
 <metadata>
  <rdf:RDF xmlns:dc="http://purl.org/dc/elements/1.1/" xmlns:cc="http://creativecommons.org/ns#" xmlns:rdf="http://www.w3.org/1999/02/22-rdf-syntax-ns#">
   <cc:Work>
    <dc:type rdf:resource="http://purl.org/dc/dcmitype/StillImage"/>
    <dc:date>2023-08-18T22:21:35.150910</dc:date>
    <dc:format>image/svg+xml</dc:format>
    <dc:creator>
     <cc:Agent>
      <dc:title>Matplotlib v3.7.1, https://matplotlib.org/</dc:title>
     </cc:Agent>
    </dc:creator>
   </cc:Work>
  </rdf:RDF>
 </metadata>
 <defs>
  <style type="text/css">*{stroke-linejoin: round; stroke-linecap: butt}</style>
 </defs>
 <g id="figure_1">
  <g id="patch_1">
   <path d="M 0 345.6 
L 460.8 345.6 
L 460.8 0 
L 0 0 
z
" style="fill: #ffffff"/>
  </g>
  <g id="axes_1">
   <g id="patch_2">
    <path d="M 57.6 307.584 
L 414.72 307.584 
L 414.72 41.472 
L 57.6 41.472 
z
" style="fill: #ffffff"/>
   </g>
   <g id="matplotlib.axis_1">
    <g id="xtick_1">
     <g id="line2d_1">
      <defs>
       <path id="m46d321cf12" d="M 0 0 
L 0 3.5 
" style="stroke: #000000; stroke-width: 0.8"/>
      </defs>
      <g>
       <use xlink:href="#m46d321cf12" x="73.728805" y="307.584" style="stroke: #000000; stroke-width: 0.8"/>
      </g>
     </g>
     <g id="text_1">
      <!-- 0 -->
      <g transform="translate(70.547555 322.182437) scale(0.1 -0.1)">
       <defs>
        <path id="DejaVuSans-30" d="M 2034 4250 
Q 1547 4250 1301 3770 
Q 1056 3291 1056 2328 
Q 1056 1369 1301 889 
Q 1547 409 2034 409 
Q 2525 409 2770 889 
Q 3016 1369 3016 2328 
Q 3016 3291 2770 3770 
Q 2525 4250 2034 4250 
z
M 2034 4750 
Q 2819 4750 3233 4129 
Q 3647 3509 3647 2328 
Q 3647 1150 3233 529 
Q 2819 -91 2034 -91 
Q 1250 -91 836 529 
Q 422 1150 422 2328 
Q 422 3509 836 4129 
Q 1250 4750 2034 4750 
z
" transform="scale(0.015625)"/>
       </defs>
       <use xlink:href="#DejaVuSans-30"/>
      </g>
     </g>
    </g>
    <g id="xtick_2">
     <g id="line2d_2">
      <g>
       <use xlink:href="#m46d321cf12" x="138.680498" y="307.584" style="stroke: #000000; stroke-width: 0.8"/>
      </g>
     </g>
     <g id="text_2">
      <!-- 10000 -->
      <g transform="translate(122.774248 322.182437) scale(0.1 -0.1)">
       <defs>
        <path id="DejaVuSans-31" d="M 794 531 
L 1825 531 
L 1825 4091 
L 703 3866 
L 703 4441 
L 1819 4666 
L 2450 4666 
L 2450 531 
L 3481 531 
L 3481 0 
L 794 0 
L 794 531 
z
" transform="scale(0.015625)"/>
       </defs>
       <use xlink:href="#DejaVuSans-31"/>
       <use xlink:href="#DejaVuSans-30" x="63.623047"/>
       <use xlink:href="#DejaVuSans-30" x="127.246094"/>
       <use xlink:href="#DejaVuSans-30" x="190.869141"/>
       <use xlink:href="#DejaVuSans-30" x="254.492188"/>
      </g>
     </g>
    </g>
    <g id="xtick_3">
     <g id="line2d_3">
      <g>
       <use xlink:href="#m46d321cf12" x="203.632192" y="307.584" style="stroke: #000000; stroke-width: 0.8"/>
      </g>
     </g>
     <g id="text_3">
      <!-- 20000 -->
      <g transform="translate(187.725942 322.182437) scale(0.1 -0.1)">
       <defs>
        <path id="DejaVuSans-32" d="M 1228 531 
L 3431 531 
L 3431 0 
L 469 0 
L 469 531 
Q 828 903 1448 1529 
Q 2069 2156 2228 2338 
Q 2531 2678 2651 2914 
Q 2772 3150 2772 3378 
Q 2772 3750 2511 3984 
Q 2250 4219 1831 4219 
Q 1534 4219 1204 4116 
Q 875 4013 500 3803 
L 500 4441 
Q 881 4594 1212 4672 
Q 1544 4750 1819 4750 
Q 2544 4750 2975 4387 
Q 3406 4025 3406 3419 
Q 3406 3131 3298 2873 
Q 3191 2616 2906 2266 
Q 2828 2175 2409 1742 
Q 1991 1309 1228 531 
z
" transform="scale(0.015625)"/>
       </defs>
       <use xlink:href="#DejaVuSans-32"/>
       <use xlink:href="#DejaVuSans-30" x="63.623047"/>
       <use xlink:href="#DejaVuSans-30" x="127.246094"/>
       <use xlink:href="#DejaVuSans-30" x="190.869141"/>
       <use xlink:href="#DejaVuSans-30" x="254.492188"/>
      </g>
     </g>
    </g>
    <g id="xtick_4">
     <g id="line2d_4">
      <g>
       <use xlink:href="#m46d321cf12" x="268.583885" y="307.584" style="stroke: #000000; stroke-width: 0.8"/>
      </g>
     </g>
     <g id="text_4">
      <!-- 30000 -->
      <g transform="translate(252.677635 322.182437) scale(0.1 -0.1)">
       <defs>
        <path id="DejaVuSans-33" d="M 2597 2516 
Q 3050 2419 3304 2112 
Q 3559 1806 3559 1356 
Q 3559 666 3084 287 
Q 2609 -91 1734 -91 
Q 1441 -91 1130 -33 
Q 819 25 488 141 
L 488 750 
Q 750 597 1062 519 
Q 1375 441 1716 441 
Q 2309 441 2620 675 
Q 2931 909 2931 1356 
Q 2931 1769 2642 2001 
Q 2353 2234 1838 2234 
L 1294 2234 
L 1294 2753 
L 1863 2753 
Q 2328 2753 2575 2939 
Q 2822 3125 2822 3475 
Q 2822 3834 2567 4026 
Q 2313 4219 1838 4219 
Q 1578 4219 1281 4162 
Q 984 4106 628 3988 
L 628 4550 
Q 988 4650 1302 4700 
Q 1616 4750 1894 4750 
Q 2613 4750 3031 4423 
Q 3450 4097 3450 3541 
Q 3450 3153 3228 2886 
Q 3006 2619 2597 2516 
z
" transform="scale(0.015625)"/>
       </defs>
       <use xlink:href="#DejaVuSans-33"/>
       <use xlink:href="#DejaVuSans-30" x="63.623047"/>
       <use xlink:href="#DejaVuSans-30" x="127.246094"/>
       <use xlink:href="#DejaVuSans-30" x="190.869141"/>
       <use xlink:href="#DejaVuSans-30" x="254.492188"/>
      </g>
     </g>
    </g>
    <g id="xtick_5">
     <g id="line2d_5">
      <g>
       <use xlink:href="#m46d321cf12" x="333.535579" y="307.584" style="stroke: #000000; stroke-width: 0.8"/>
      </g>
     </g>
     <g id="text_5">
      <!-- 40000 -->
      <g transform="translate(317.629329 322.182437) scale(0.1 -0.1)">
       <defs>
        <path id="DejaVuSans-34" d="M 2419 4116 
L 825 1625 
L 2419 1625 
L 2419 4116 
z
M 2253 4666 
L 3047 4666 
L 3047 1625 
L 3713 1625 
L 3713 1100 
L 3047 1100 
L 3047 0 
L 2419 0 
L 2419 1100 
L 313 1100 
L 313 1709 
L 2253 4666 
z
" transform="scale(0.015625)"/>
       </defs>
       <use xlink:href="#DejaVuSans-34"/>
       <use xlink:href="#DejaVuSans-30" x="63.623047"/>
       <use xlink:href="#DejaVuSans-30" x="127.246094"/>
       <use xlink:href="#DejaVuSans-30" x="190.869141"/>
       <use xlink:href="#DejaVuSans-30" x="254.492188"/>
      </g>
     </g>
    </g>
    <g id="xtick_6">
     <g id="line2d_6">
      <g>
       <use xlink:href="#m46d321cf12" x="398.487273" y="307.584" style="stroke: #000000; stroke-width: 0.8"/>
      </g>
     </g>
     <g id="text_6">
      <!-- 50000 -->
      <g transform="translate(382.581023 322.182437) scale(0.1 -0.1)">
       <defs>
        <path id="DejaVuSans-35" d="M 691 4666 
L 3169 4666 
L 3169 4134 
L 1269 4134 
L 1269 2991 
Q 1406 3038 1543 3061 
Q 1681 3084 1819 3084 
Q 2600 3084 3056 2656 
Q 3513 2228 3513 1497 
Q 3513 744 3044 326 
Q 2575 -91 1722 -91 
Q 1428 -91 1123 -41 
Q 819 9 494 109 
L 494 744 
Q 775 591 1075 516 
Q 1375 441 1709 441 
Q 2250 441 2565 725 
Q 2881 1009 2881 1497 
Q 2881 1984 2565 2268 
Q 2250 2553 1709 2553 
Q 1456 2553 1204 2497 
Q 953 2441 691 2322 
L 691 4666 
z
" transform="scale(0.015625)"/>
       </defs>
       <use xlink:href="#DejaVuSans-35"/>
       <use xlink:href="#DejaVuSans-30" x="63.623047"/>
       <use xlink:href="#DejaVuSans-30" x="127.246094"/>
       <use xlink:href="#DejaVuSans-30" x="190.869141"/>
       <use xlink:href="#DejaVuSans-30" x="254.492188"/>
      </g>
     </g>
    </g>
    <g id="text_7">
     <!-- timesteps -->
     <g transform="translate(211.443594 335.860562) scale(0.1 -0.1)">
      <defs>
       <path id="DejaVuSans-74" d="M 1172 4494 
L 1172 3500 
L 2356 3500 
L 2356 3053 
L 1172 3053 
L 1172 1153 
Q 1172 725 1289 603 
Q 1406 481 1766 481 
L 2356 481 
L 2356 0 
L 1766 0 
Q 1100 0 847 248 
Q 594 497 594 1153 
L 594 3053 
L 172 3053 
L 172 3500 
L 594 3500 
L 594 4494 
L 1172 4494 
z
" transform="scale(0.015625)"/>
       <path id="DejaVuSans-69" d="M 603 3500 
L 1178 3500 
L 1178 0 
L 603 0 
L 603 3500 
z
M 603 4863 
L 1178 4863 
L 1178 4134 
L 603 4134 
L 603 4863 
z
" transform="scale(0.015625)"/>
       <path id="DejaVuSans-6d" d="M 3328 2828 
Q 3544 3216 3844 3400 
Q 4144 3584 4550 3584 
Q 5097 3584 5394 3201 
Q 5691 2819 5691 2113 
L 5691 0 
L 5113 0 
L 5113 2094 
Q 5113 2597 4934 2840 
Q 4756 3084 4391 3084 
Q 3944 3084 3684 2787 
Q 3425 2491 3425 1978 
L 3425 0 
L 2847 0 
L 2847 2094 
Q 2847 2600 2669 2842 
Q 2491 3084 2119 3084 
Q 1678 3084 1418 2786 
Q 1159 2488 1159 1978 
L 1159 0 
L 581 0 
L 581 3500 
L 1159 3500 
L 1159 2956 
Q 1356 3278 1631 3431 
Q 1906 3584 2284 3584 
Q 2666 3584 2933 3390 
Q 3200 3197 3328 2828 
z
" transform="scale(0.015625)"/>
       <path id="DejaVuSans-65" d="M 3597 1894 
L 3597 1613 
L 953 1613 
Q 991 1019 1311 708 
Q 1631 397 2203 397 
Q 2534 397 2845 478 
Q 3156 559 3463 722 
L 3463 178 
Q 3153 47 2828 -22 
Q 2503 -91 2169 -91 
Q 1331 -91 842 396 
Q 353 884 353 1716 
Q 353 2575 817 3079 
Q 1281 3584 2069 3584 
Q 2775 3584 3186 3129 
Q 3597 2675 3597 1894 
z
M 3022 2063 
Q 3016 2534 2758 2815 
Q 2500 3097 2075 3097 
Q 1594 3097 1305 2825 
Q 1016 2553 972 2059 
L 3022 2063 
z
" transform="scale(0.015625)"/>
       <path id="DejaVuSans-73" d="M 2834 3397 
L 2834 2853 
Q 2591 2978 2328 3040 
Q 2066 3103 1784 3103 
Q 1356 3103 1142 2972 
Q 928 2841 928 2578 
Q 928 2378 1081 2264 
Q 1234 2150 1697 2047 
L 1894 2003 
Q 2506 1872 2764 1633 
Q 3022 1394 3022 966 
Q 3022 478 2636 193 
Q 2250 -91 1575 -91 
Q 1294 -91 989 -36 
Q 684 19 347 128 
L 347 722 
Q 666 556 975 473 
Q 1284 391 1588 391 
Q 1994 391 2212 530 
Q 2431 669 2431 922 
Q 2431 1156 2273 1281 
Q 2116 1406 1581 1522 
L 1381 1569 
Q 847 1681 609 1914 
Q 372 2147 372 2553 
Q 372 3047 722 3315 
Q 1072 3584 1716 3584 
Q 2034 3584 2315 3537 
Q 2597 3491 2834 3397 
z
" transform="scale(0.015625)"/>
       <path id="DejaVuSans-70" d="M 1159 525 
L 1159 -1331 
L 581 -1331 
L 581 3500 
L 1159 3500 
L 1159 2969 
Q 1341 3281 1617 3432 
Q 1894 3584 2278 3584 
Q 2916 3584 3314 3078 
Q 3713 2572 3713 1747 
Q 3713 922 3314 415 
Q 2916 -91 2278 -91 
Q 1894 -91 1617 61 
Q 1341 213 1159 525 
z
M 3116 1747 
Q 3116 2381 2855 2742 
Q 2594 3103 2138 3103 
Q 1681 3103 1420 2742 
Q 1159 2381 1159 1747 
Q 1159 1113 1420 752 
Q 1681 391 2138 391 
Q 2594 391 2855 752 
Q 3116 1113 3116 1747 
z
" transform="scale(0.015625)"/>
      </defs>
      <use xlink:href="#DejaVuSans-74"/>
      <use xlink:href="#DejaVuSans-69" x="39.208984"/>
      <use xlink:href="#DejaVuSans-6d" x="66.992188"/>
      <use xlink:href="#DejaVuSans-65" x="164.404297"/>
      <use xlink:href="#DejaVuSans-73" x="225.927734"/>
      <use xlink:href="#DejaVuSans-74" x="278.027344"/>
      <use xlink:href="#DejaVuSans-65" x="317.236328"/>
      <use xlink:href="#DejaVuSans-70" x="378.759766"/>
      <use xlink:href="#DejaVuSans-73" x="442.236328"/>
     </g>
    </g>
   </g>
   <g id="matplotlib.axis_2">
    <g id="ytick_1">
     <g id="line2d_7">
      <defs>
       <path id="mc028160bf5" d="M 0 0 
L -3.5 0 
" style="stroke: #000000; stroke-width: 0.8"/>
      </defs>
      <g>
       <use xlink:href="#mc028160bf5" x="57.6" y="296.324547" style="stroke: #000000; stroke-width: 0.8"/>
      </g>
     </g>
     <g id="text_8">
      <!-- 0 -->
      <g transform="translate(44.2375 300.123765) scale(0.1 -0.1)">
       <use xlink:href="#DejaVuSans-30"/>
      </g>
     </g>
    </g>
    <g id="ytick_2">
     <g id="line2d_8">
      <g>
       <use xlink:href="#mc028160bf5" x="57.6" y="241.169682" style="stroke: #000000; stroke-width: 0.8"/>
      </g>
     </g>
     <g id="text_9">
      <!-- 200 -->
      <g transform="translate(31.5125 244.968901) scale(0.1 -0.1)">
       <use xlink:href="#DejaVuSans-32"/>
       <use xlink:href="#DejaVuSans-30" x="63.623047"/>
       <use xlink:href="#DejaVuSans-30" x="127.246094"/>
      </g>
     </g>
    </g>
    <g id="ytick_3">
     <g id="line2d_9">
      <g>
       <use xlink:href="#mc028160bf5" x="57.6" y="186.014817" style="stroke: #000000; stroke-width: 0.8"/>
      </g>
     </g>
     <g id="text_10">
      <!-- 400 -->
      <g transform="translate(31.5125 189.814036) scale(0.1 -0.1)">
       <use xlink:href="#DejaVuSans-34"/>
       <use xlink:href="#DejaVuSans-30" x="63.623047"/>
       <use xlink:href="#DejaVuSans-30" x="127.246094"/>
      </g>
     </g>
    </g>
    <g id="ytick_4">
     <g id="line2d_10">
      <g>
       <use xlink:href="#mc028160bf5" x="57.6" y="130.859953" style="stroke: #000000; stroke-width: 0.8"/>
      </g>
     </g>
     <g id="text_11">
      <!-- 600 -->
      <g transform="translate(31.5125 134.659171) scale(0.1 -0.1)">
       <defs>
        <path id="DejaVuSans-36" d="M 2113 2584 
Q 1688 2584 1439 2293 
Q 1191 2003 1191 1497 
Q 1191 994 1439 701 
Q 1688 409 2113 409 
Q 2538 409 2786 701 
Q 3034 994 3034 1497 
Q 3034 2003 2786 2293 
Q 2538 2584 2113 2584 
z
M 3366 4563 
L 3366 3988 
Q 3128 4100 2886 4159 
Q 2644 4219 2406 4219 
Q 1781 4219 1451 3797 
Q 1122 3375 1075 2522 
Q 1259 2794 1537 2939 
Q 1816 3084 2150 3084 
Q 2853 3084 3261 2657 
Q 3669 2231 3669 1497 
Q 3669 778 3244 343 
Q 2819 -91 2113 -91 
Q 1303 -91 875 529 
Q 447 1150 447 2328 
Q 447 3434 972 4092 
Q 1497 4750 2381 4750 
Q 2619 4750 2861 4703 
Q 3103 4656 3366 4563 
z
" transform="scale(0.015625)"/>
       </defs>
       <use xlink:href="#DejaVuSans-36"/>
       <use xlink:href="#DejaVuSans-30" x="63.623047"/>
       <use xlink:href="#DejaVuSans-30" x="127.246094"/>
      </g>
     </g>
    </g>
    <g id="ytick_5">
     <g id="line2d_11">
      <g>
       <use xlink:href="#mc028160bf5" x="57.6" y="75.705088" style="stroke: #000000; stroke-width: 0.8"/>
      </g>
     </g>
     <g id="text_12">
      <!-- 800 -->
      <g transform="translate(31.5125 79.504307) scale(0.1 -0.1)">
       <defs>
        <path id="DejaVuSans-38" d="M 2034 2216 
Q 1584 2216 1326 1975 
Q 1069 1734 1069 1313 
Q 1069 891 1326 650 
Q 1584 409 2034 409 
Q 2484 409 2743 651 
Q 3003 894 3003 1313 
Q 3003 1734 2745 1975 
Q 2488 2216 2034 2216 
z
M 1403 2484 
Q 997 2584 770 2862 
Q 544 3141 544 3541 
Q 544 4100 942 4425 
Q 1341 4750 2034 4750 
Q 2731 4750 3128 4425 
Q 3525 4100 3525 3541 
Q 3525 3141 3298 2862 
Q 3072 2584 2669 2484 
Q 3125 2378 3379 2068 
Q 3634 1759 3634 1313 
Q 3634 634 3220 271 
Q 2806 -91 2034 -91 
Q 1263 -91 848 271 
Q 434 634 434 1313 
Q 434 1759 690 2068 
Q 947 2378 1403 2484 
z
M 1172 3481 
Q 1172 3119 1398 2916 
Q 1625 2713 2034 2713 
Q 2441 2713 2670 2916 
Q 2900 3119 2900 3481 
Q 2900 3844 2670 4047 
Q 2441 4250 2034 4250 
Q 1625 4250 1398 4047 
Q 1172 3844 1172 3481 
z
" transform="scale(0.015625)"/>
       </defs>
       <use xlink:href="#DejaVuSans-38"/>
       <use xlink:href="#DejaVuSans-30" x="63.623047"/>
       <use xlink:href="#DejaVuSans-30" x="127.246094"/>
      </g>
     </g>
    </g>
    <g id="text_13">
     <!-- mean episode rewards -->
     <g transform="translate(25.432812 231.360031) rotate(-90) scale(0.1 -0.1)">
      <defs>
       <path id="DejaVuSans-61" d="M 2194 1759 
Q 1497 1759 1228 1600 
Q 959 1441 959 1056 
Q 959 750 1161 570 
Q 1363 391 1709 391 
Q 2188 391 2477 730 
Q 2766 1069 2766 1631 
L 2766 1759 
L 2194 1759 
z
M 3341 1997 
L 3341 0 
L 2766 0 
L 2766 531 
Q 2569 213 2275 61 
Q 1981 -91 1556 -91 
Q 1019 -91 701 211 
Q 384 513 384 1019 
Q 384 1609 779 1909 
Q 1175 2209 1959 2209 
L 2766 2209 
L 2766 2266 
Q 2766 2663 2505 2880 
Q 2244 3097 1772 3097 
Q 1472 3097 1187 3025 
Q 903 2953 641 2809 
L 641 3341 
Q 956 3463 1253 3523 
Q 1550 3584 1831 3584 
Q 2591 3584 2966 3190 
Q 3341 2797 3341 1997 
z
" transform="scale(0.015625)"/>
       <path id="DejaVuSans-6e" d="M 3513 2113 
L 3513 0 
L 2938 0 
L 2938 2094 
Q 2938 2591 2744 2837 
Q 2550 3084 2163 3084 
Q 1697 3084 1428 2787 
Q 1159 2491 1159 1978 
L 1159 0 
L 581 0 
L 581 3500 
L 1159 3500 
L 1159 2956 
Q 1366 3272 1645 3428 
Q 1925 3584 2291 3584 
Q 2894 3584 3203 3211 
Q 3513 2838 3513 2113 
z
" transform="scale(0.015625)"/>
       <path id="DejaVuSans-20" transform="scale(0.015625)"/>
       <path id="DejaVuSans-6f" d="M 1959 3097 
Q 1497 3097 1228 2736 
Q 959 2375 959 1747 
Q 959 1119 1226 758 
Q 1494 397 1959 397 
Q 2419 397 2687 759 
Q 2956 1122 2956 1747 
Q 2956 2369 2687 2733 
Q 2419 3097 1959 3097 
z
M 1959 3584 
Q 2709 3584 3137 3096 
Q 3566 2609 3566 1747 
Q 3566 888 3137 398 
Q 2709 -91 1959 -91 
Q 1206 -91 779 398 
Q 353 888 353 1747 
Q 353 2609 779 3096 
Q 1206 3584 1959 3584 
z
" transform="scale(0.015625)"/>
       <path id="DejaVuSans-64" d="M 2906 2969 
L 2906 4863 
L 3481 4863 
L 3481 0 
L 2906 0 
L 2906 525 
Q 2725 213 2448 61 
Q 2172 -91 1784 -91 
Q 1150 -91 751 415 
Q 353 922 353 1747 
Q 353 2572 751 3078 
Q 1150 3584 1784 3584 
Q 2172 3584 2448 3432 
Q 2725 3281 2906 2969 
z
M 947 1747 
Q 947 1113 1208 752 
Q 1469 391 1925 391 
Q 2381 391 2643 752 
Q 2906 1113 2906 1747 
Q 2906 2381 2643 2742 
Q 2381 3103 1925 3103 
Q 1469 3103 1208 2742 
Q 947 2381 947 1747 
z
" transform="scale(0.015625)"/>
       <path id="DejaVuSans-72" d="M 2631 2963 
Q 2534 3019 2420 3045 
Q 2306 3072 2169 3072 
Q 1681 3072 1420 2755 
Q 1159 2438 1159 1844 
L 1159 0 
L 581 0 
L 581 3500 
L 1159 3500 
L 1159 2956 
Q 1341 3275 1631 3429 
Q 1922 3584 2338 3584 
Q 2397 3584 2469 3576 
Q 2541 3569 2628 3553 
L 2631 2963 
z
" transform="scale(0.015625)"/>
       <path id="DejaVuSans-77" d="M 269 3500 
L 844 3500 
L 1563 769 
L 2278 3500 
L 2956 3500 
L 3675 769 
L 4391 3500 
L 4966 3500 
L 4050 0 
L 3372 0 
L 2619 2869 
L 1863 0 
L 1184 0 
L 269 3500 
z
" transform="scale(0.015625)"/>
      </defs>
      <use xlink:href="#DejaVuSans-6d"/>
      <use xlink:href="#DejaVuSans-65" x="97.412109"/>
      <use xlink:href="#DejaVuSans-61" x="158.935547"/>
      <use xlink:href="#DejaVuSans-6e" x="220.214844"/>
      <use xlink:href="#DejaVuSans-20" x="283.59375"/>
      <use xlink:href="#DejaVuSans-65" x="315.380859"/>
      <use xlink:href="#DejaVuSans-70" x="376.904297"/>
      <use xlink:href="#DejaVuSans-69" x="440.380859"/>
      <use xlink:href="#DejaVuSans-73" x="468.164062"/>
      <use xlink:href="#DejaVuSans-6f" x="520.263672"/>
      <use xlink:href="#DejaVuSans-64" x="581.445312"/>
      <use xlink:href="#DejaVuSans-65" x="644.921875"/>
      <use xlink:href="#DejaVuSans-20" x="706.445312"/>
      <use xlink:href="#DejaVuSans-72" x="738.232422"/>
      <use xlink:href="#DejaVuSans-65" x="777.095703"/>
      <use xlink:href="#DejaVuSans-77" x="838.619141"/>
      <use xlink:href="#DejaVuSans-61" x="920.40625"/>
      <use xlink:href="#DejaVuSans-72" x="981.685547"/>
      <use xlink:href="#DejaVuSans-64" x="1021.048828"/>
      <use xlink:href="#DejaVuSans-73" x="1084.525391"/>
     </g>
    </g>
   </g>
   <g id="line2d_12">
    <path d="M 73.897679 289.357431 
L 73.988611 293.963996 
L 74.144495 293.674309 
L 74.222437 293.120214 
L 74.566681 288.926831 
L 74.755041 293.470069 
L 74.832983 293.509569 
L 74.943401 292.788086 
L 75.112276 289.369756 
L 75.313626 294.606991 
L 75.398063 294.489195 
L 75.501986 292.171252 
L 75.722822 280.712532 
L 75.930667 294.656138 
L 75.989124 294.424597 
L 76.112532 293.020842 
L 76.177483 294.541199 
L 76.326872 290.887796 
L 76.606165 292.812679 
L 76.736068 290.423761 
L 76.852981 294.088049 
L 77.041341 290.850274 
L 77.151759 291.779333 
L 77.216711 294.278883 
L 77.307643 293.993161 
L 77.470022 289.823137 
L 77.59343 293.538687 
L 77.749314 292.550475 
L 77.931179 292.366311 
L 78.139025 289.276193 
L 78.242947 292.882475 
L 78.379346 293.23119 
L 78.632657 289.317109 
L 78.795037 288.690092 
L 79.009377 294.08947 
L 79.171756 291.714836 
L 79.412078 293.907464 
L 79.717351 289.467974 
L 79.801788 294.058369 
L 80.003138 292.654841 
L 80.386353 281.050447 
L 80.509761 293.338505 
L 80.63317 293.886976 
L 80.82153 292.832335 
L 80.879986 294.674215 
L 81.029375 294.209351 
L 81.165773 292.060854 
L 81.328153 294.541181 
L 81.432075 293.256558 
L 81.568474 294.504399 
L 81.698377 291.138659 
L 81.8023 293.029912 
L 81.984165 289.836054 
L 82.276447 291.906675 
L 82.542749 287.113671 
L 82.776575 294.537788 
L 82.977926 290.566072 
L 83.211752 288.533073 
L 83.400112 293.629767 
L 83.543005 293.972456 
L 83.614452 293.832741 
L 83.750851 295.123833 
L 83.893745 291.160262 
L 84.056124 292.247737 
L 84.192522 289.518695 
L 84.28995 293.147173 
L 84.419853 292.342617 
L 84.608213 288.187507 
L 84.686155 294.499986 
L 84.783583 294.03178 
L 84.984933 292.486158 
L 85.225254 283.246805 
L 85.374643 295.193717 
L 85.640945 286.907253 
L 85.718887 293.605125 
L 85.861781 289.924308 
L 86.219015 276.791525 
L 86.322938 293.052271 
L 86.446346 292.573492 
L 86.556764 292.674339 
L 86.660687 292.517896 
L 86.920494 279.314463 
L 87.037407 291.204827 
L 87.212776 288.396284 
L 87.427117 294.168147 
L 87.55702 292.796335 
L 87.712904 292.794798 
L 87.92075 286.928786 
L 88.115605 294.933439 
L 88.33644 292.287451 
L 88.583257 290.979273 
L 88.778112 293.436679 
L 88.921006 292.390659 
L 88.985957 294.497798 
L 89.187308 288.922573 
L 89.382163 287.033868 
L 89.564027 294.482561 
L 89.680941 293.582876 
L 89.875796 287.445655 
L 90.04467 291.693158 
L 90.453866 270.653643 
L 90.577274 292.961648 
L 90.713672 293.151014 
L 90.791614 294.070276 
L 90.876052 293.889462 
L 91.161839 290.615122 
L 91.233286 293.985651 
L 91.428141 289.076994 
L 91.746404 294.040643 
L 91.843832 292.407936 
L 92.019201 287.435199 
L 92.097144 294.52328 
L 92.227047 293.940746 
L 92.337465 291.568819 
L 92.499844 294.735249 
L 92.590776 293.118536 
L 92.655728 294.880723 
L 92.844088 287.271715 
L 93.006467 293.189184 
L 93.220808 292.965595 
L 93.318235 294.208059 
L 93.448139 293.788041 
L 93.604023 294.616752 
L 93.766402 288.751937 
L 93.86383 293.669007 
L 93.980743 290.996669 
L 94.084665 292.289108 
L 94.402929 277.264644 
L 94.64325 292.641343 
L 94.825115 287.888443 
L 95.039455 289.144202 
L 95.110902 294.425235 
L 95.377204 289.329643 
L 95.448651 293.994724 
L 95.559069 293.948994 
L 95.851351 284.720115 
L 95.922798 294.222426 
L 96.072187 293.211978 
L 96.195595 290.282129 
L 96.39045 291.744082 
L 96.468393 293.432223 
L 96.57881 291.494763 
L 96.643762 294.408574 
L 96.760675 293.22439 
L 96.936045 287.81342 
L 97.306269 293.655106 
L 97.501124 288.953247 
L 97.786912 294.065169 
L 97.955786 291.218916 
L 98.144146 292.120943 
L 98.241574 293.714479 
L 98.351992 293.094832 
L 98.481895 291.008394 
L 98.553342 294.078744 
L 98.813149 293.473502 
L 98.884596 294.163741 
L 99.020994 293.278315 
L 99.118422 295.00637 
L 99.371733 294.048444 
L 99.449675 294.096677 
L 99.63154 287.207147 
L 99.80691 293.763604 
L 99.988774 292.755403 
L 100.105687 294.18537 
L 100.242086 290.296922 
L 100.320028 294.545855 
L 100.501893 295.286494 
L 100.59932 294.336057 
L 100.761699 288.553307 
L 100.891603 293.796594 
L 100.98903 292.439855 
L 101.112439 294.016844 
L 101.378741 286.355944 
L 101.515139 293.578534 
L 101.612567 293.113535 
L 101.74247 294.432249 
L 101.839898 292.734924 
L 102.353016 294.115702 
L 102.729736 284.724087 
L 102.931086 295.1004 
L 103.054494 292.043486 
L 103.132436 293.640093 
L 103.658545 247.441197 
L 103.742982 293.284308 
L 103.970313 288.258487 
L 104.02877 294.850525 
L 104.139188 293.46821 
L 104.21713 294.36991 
L 104.392499 288.806477 
L 104.561374 294.098216 
L 104.717258 292.166076 
L 104.931598 292.358007 
L 105.003045 294.37746 
L 105.080987 293.474818 
L 105.217386 290.033841 
L 105.37327 294.418765 
L 105.464202 293.481218 
L 105.685038 289.176311 
L 105.77597 294.773821 
L 105.860407 294.267118 
L 106.055262 289.229218 
L 106.431982 267.815637 
L 106.672304 289.254388 
L 106.841178 289.3341 
L 106.90613 295.030273 
L 107.016548 291.992385 
L 107.126965 292.581807 
L 107.198412 294.927657 
L 107.386772 292.674684 
L 107.549151 294.250672 
L 107.951852 290.655429 
L 108.06227 293.844976 
L 108.172688 291.671397 
L 108.25063 293.81117 
L 108.361048 291.243237 
L 108.471465 293.517071 
L 108.594874 292.219299 
L 108.796224 293.227997 
L 108.952108 292.880979 
L 109.010565 294.723379 
L 109.127478 292.422005 
L 109.2314 293.069139 
L 109.504197 292.109807 
L 109.647091 294.723647 
L 109.939374 289.589308 
L 110.082267 294.067107 
L 110.179695 294.162286 
L 110.335579 289.503748 
L 110.407026 293.866037 
L 110.627862 290.895097 
L 110.744775 292.262078 
L 110.894164 289.779423 
L 111.011077 294.762447 
L 111.082524 294.671966 
L 111.179951 293.206599 
L 111.537185 294.45097 
L 111.784002 286.044984 
L 112.154227 294.697611 
L 112.407538 288.205971 
L 112.49847 293.114944 
L 112.628374 293.860493 
L 112.738792 291.272353 
L 112.836219 292.492532 
L 113.096026 286.498059 
L 113.193454 293.308291 
L 113.375318 287.896154 
L 113.459756 295.488 
L 113.563678 294.133331 
L 113.693582 294.908289 
L 113.778019 295.1966 
L 113.979369 293.050822 
L 114.037826 295.009904 
L 114.245671 284.136616 
L 114.447021 292.019835 
L 114.693838 283.437836 
L 114.888693 293.775414 
L 115.1485 292.211326 
L 115.271908 293.070768 
L 115.427792 289.137275 
L 115.505734 294.436823 
L 115.713579 283.567896 
L 115.882454 294.649741 
L 115.973386 294.231638 
L 116.142261 294.451698 
L 116.525475 282.318861 
L 116.746311 287.695719 
L 116.8957 294.87577 
L 117.110041 293.431732 
L 117.181488 294.26071 
L 117.382838 288.583923 
L 117.512741 290.507386 
L 117.590683 293.915282 
L 117.753063 292.666876 
L 117.908947 293.494617 
L 118.162258 283.744131 
L 118.2402 294.840628 
L 118.649396 279.887196 
L 118.759814 293.147348 
L 119.246951 282.207149 
L 119.344379 292.717331 
L 119.539234 291.226763 
L 119.682128 295.094524 
L 119.844507 290.918124 
L 119.941935 293.905227 
L 120.097819 289.622334 
L 120.286179 294.58211 
L 120.416082 292.426102 
L 120.507014 293.07656 
L 120.643413 294.510973 
L 120.890229 279.804109 
L 121.189007 292.164946 
L 121.344891 291.007107 
L 121.487785 290.841247 
L 121.565727 293.701254 
L 121.650164 293.41798 
L 121.728106 294.526418 
L 121.825534 293.21221 
L 121.903476 294.521837 
L 121.974923 294.303353 
L 122.150292 291.169007 
L 122.228234 293.813047 
L 122.455565 289.059619 
L 122.546497 293.961224 
L 122.682896 290.18581 
L 122.981674 293.961378 
L 123.053121 294.953795 
L 123.196014 290.517099 
L 123.325918 294.570871 
L 123.397365 295.250226 
L 123.670162 281.445751 
L 123.871512 294.081957 
L 124.131319 290.593332 
L 124.222251 293.951702 
L 124.410611 288.240727 
L 124.644437 287.140403 
L 124.839292 286.784085 
L 125.040643 288.461981 
L 125.209517 288.40083 
L 125.32643 293.051836 
L 125.436848 292.746855 
L 125.508295 294.029411 
L 125.605722 293.21516 
L 125.696655 293.460663 
L 125.943471 291.137084 
L 126.034403 293.451958 
L 126.190288 290.503471 
L 126.346172 294.416473 
L 126.456589 292.899339 
L 126.547522 293.375285 
L 126.800833 292.935883 
L 126.963213 291.258904 
L 127.138582 294.656821 
L 127.723147 292.325488 
L 127.879032 294.734505 
L 128.275237 281.406102 
L 128.450606 293.594246 
L 128.554529 291.818261 
L 128.684433 293.665471 
L 128.918259 291.433128 
L 129.106619 294.365377 
L 129.197551 293.540974 
L 129.574271 288.57929 
L 129.639222 294.813834 
L 129.879544 285.803264 
L 129.957486 294.667993 
L 130.11337 291.795596 
L 130.178321 294.708071 
L 130.386167 293.673449 
L 130.626488 294.263328 
L 130.931761 289.500712 
L 131.055169 294.102167 
L 131.152597 294.033033 
L 131.295491 288.346098 
L 131.373433 294.266271 
L 131.691696 274.227787 
L 131.938512 293.450952 
L 132.03594 292.967846 
L 132.243785 291.361447 
L 132.386679 293.253087 
L 132.652981 292.98059 
L 132.724428 294.324644 
L 132.821855 292.998897 
L 132.932273 293.173143 
L 133.029701 293.556108 
L 133.127128 292.444915 
L 133.257032 292.283276 
L 133.432401 290.84111 
L 133.919539 281.698909 
L 133.977996 294.919079 
L 134.055938 293.916399 
L 134.127384 294.521391 
L 134.296259 289.297634 
L 134.367706 294.149335 
L 134.72494 268.372117 
L 134.978252 293.470348 
L 135.244554 277.192387 
L 135.556322 294.254071 
L 135.653749 294.067162 
L 135.738186 293.396327 
L 135.816129 293.778222 
L 136.049955 287.050658 
L 136.166868 291.626693 
L 136.329247 291.335026 
L 136.426674 293.688203 
L 136.563073 291.714617 
L 136.628025 294.295956 
L 136.803394 291.149917 
L 136.920307 291.486286 
L 137.017735 293.68948 
L 137.147638 293.902043 
L 137.245066 293.530231 
L 137.323008 293.691232 
L 137.41394 294.174599 
L 137.517863 293.071753 
L 137.719213 286.829112 
L 137.842621 289.890553 
L 138.303778 260.420691 
L 138.466158 294.280964 
L 138.609051 294.828791 
L 138.667508 294.5831 
L 139.12217 266.871223 
L 139.317025 285.863124 
L 139.563841 280.946328 
L 139.752201 282.549625 
L 140.154902 275.806691 
L 140.408213 278.519906 
L 140.739467 284.584182 
L 140.882361 285.185806 
L 141.038245 284.468767 
L 141.453936 285.799212 
L 141.726733 274.448507 
L 141.876122 284.46547 
L 142.181394 284.472984 
L 142.317793 285.517847 
L 142.675027 269.519793 
L 143.084223 264.218725 
L 143.675283 283.873796 
L 143.831168 283.816222 
L 144.246858 261.848328 
L 144.610588 266.251816 
L 144.740491 285.962939 
L 145.045764 271.168374 
L 145.182163 285.47923 
L 145.701776 251.48552 
L 146.201904 253.251072 
L 146.539653 268.544702 
L 147.104733 247.326036 
L 147.507433 263.146667 
L 147.695793 281.126581 
L 148.247883 248.465989 
L 148.683059 259.53093 
L 149.131226 259.426633 
L 149.66383 249.677797 
L 150.2419 246.636525 
L 150.722542 255.92486 
L 151.229165 253.294946 
L 151.807235 246.810889 
L 152.36582 245.942091 
L 152.911414 248.689823 
L 153.52196 243.615329 
L 154.10003 246.053358 
L 154.658615 242.669836 
L 155.249675 244.88976 
L 155.782279 250.042912 
L 156.295398 252.403305 
L 157.009866 226.188126 
L 157.990637 212.650402 
L 158.542726 249.346031 
L 159.07533 250.619827 
L 159.64041 248.492528 
L 160.263946 241.562046 
L 161.023881 223.288592 
L 161.588961 247.853182 
L 162.283944 228.72711 
L 163.147801 201.445271 
L 163.881755 218.380051 
L 164.687156 222.331783 
L 165.602975 210.806184 
L 166.629212 208.555302 
L 166.817572 285.077998 
L 168.246509 165.53923 
L 169.42863 201.386125 
L 170.247021 221.24316 
L 171.071908 221.706331 
L 171.214802 286.653278 
L 171.36419 287.045493 
L 172.87107 188.529891 
L 174.131133 187.788101 
L 174.293512 285.55439 
L 175.079427 226.13393 
L 175.261292 283.695588 
L 176.040712 223.652265 
L 176.911065 210.369215 
L 177.813894 212.02875 
L 178.508877 233.070865 
L 179.340258 221.586953 
L 180.145659 207.474233 
L 180.860128 229.80127 
L 181.71749 216.702715 
L 182.711251 195.412336 
L 183.464691 225.97767 
L 184.088227 241.813598 
L 185.081988 205.784175 
L 186.173177 206.739377 
L 186.874655 238.189052 
L 187.465715 251.189262 
L 188.089252 248.526689 
L 188.628351 254.379581 
L 189.765005 184.394482 
L 190.609377 215.667535 
L 191.609633 205.773008 
L 192.42153 233.640874 
L 193.486737 204.74913 
L 194.207701 234.182886 
L 195.415803 209.3112 
L 195.623648 284.302338 
L 196.708341 213.061197 
L 197.981394 211.234975 
L 199.14403 213.762589 
L 200.137791 223.766433 
L 201.261455 213.595556 
L 201.436825 286.647793 
L 202.631936 205.236264 
L 202.774829 289.115348 
L 203.645182 229.213108 
L 203.7556 291.474547 
L 204.931226 213.338531 
L 205.002673 294.511178 
L 205.08711 293.33249 
L 205.294955 291.387748 
L 206.06788 241.937247 
L 207.00968 223.77581 
L 207.841062 240.000897 
L 207.912508 294.411219 
L 211.160093 149.394571 
L 212.036941 237.632087 
L 212.705943 247.284571 
L 214.264784 176.087712 
L 215.193593 216.706955 
L 216.024975 224.404142 
L 217.051212 213.156618 
L 218.187866 203.539233 
L 219.168637 214.072983 
L 219.987028 231.537076 
L 221.247091 202.179873 
L 221.357509 292.369537 
L 222.429212 200.178229 
L 222.559115 291.174657 
L 223.858149 195.331808 
L 224.83892 219.720327 
L 226.553645 151.545985 
L 227.839688 200.681508 
L 228.846439 204.907996 
L 230.100007 166.105249 
L 231.405536 145.631824 
L 232.236918 233.346415 
L 233.347592 187.52279 
L 234.594664 156.008897 
L 235.815756 193.622869 
L 237.082314 161.84245 
L 238.017618 208.285918 
L 239.102312 202.332304 
L 241.297679 162.553052 
L 241.895235 241.581045 
L 242.921471 194.332358 
L 244.175039 153.798159 
L 245.428607 142.608616 
L 246.227513 202.069216 
L 247.026418 202.541652 
L 247.65645 230.615616 
L 248.864551 148.142742 
L 249.728409 195.041069 
L 250.702684 175.864039 
L 251.832844 161.094707 
L 252.988984 157.829956 
L 254.164609 139.617762 
L 255.742936 122.455582 
L 255.989752 279.720004 
L 257.171873 138.129125 
L 258.39946 154.367986 
L 259.399716 181.963967 
L 260.114185 222.571857 
L 260.926081 219.214465 
L 261.724987 212.116166 
L 262.562863 213.006794 
L 263.264342 223.446339 
L 264.082733 209.182467 
L 264.810192 224.484324 
L 264.992057 282.858891 
L 265.719516 221.903788 
L 266.563888 205.446817 
L 267.427745 206.537025 
L 268.512439 165.469756 
L 269.51919 170.224442 
L 270.357067 208.581252 
L 270.460989 289.362035 
L 271.233915 214.426399 
L 272.344589 156.252946 
L 273.37732 171.877001 
L 274.150246 214.426933 
L 275.2869 170.348993 
L 276.488507 154.90796 
L 277.677123 150.581679 
L 278.579951 204.894591 
L 279.88548 155.01442 
L 281.022135 186.215518 
L 282.002905 209.139226 
L 283.353901 138.062211 
L 284.48406 190.939293 
L 285.893512 146.763971 
L 286.997691 204.071064 
L 288.173316 144.787878 
L 288.985212 219.701981 
L 289.335952 268.982337 
L 291.284502 152.32773 
L 292.154855 216.410462 
L 292.693954 247.709758 
L 293.928036 181.39288 
L 295.519353 186.857702 
L 296.915814 190.09908 
L 298.045974 216.075678 
L 299.345008 192.37141 
L 302.592592 152.119191 
L 305.840177 153.019569 
L 309.087762 152.716453 
L 310.010076 247.276982 
L 313.25766 152.146007 
L 316.505245 151.53552 
L 319.75283 152.456126 
L 323.000414 151.358247 
L 326.247999 141.337241 
L 328.76163 175.187383 
L 332.009214 147.905172 
L 335.243809 152.192761 
L 338.491393 149.138655 
L 341.738978 141.197312 
L 344.986563 142.423907 
L 348.234147 125.478254 
L 348.942121 253.997843 
L 350.24765 207.452774 
L 352.456007 163.053935 
L 354.924172 109.304038 
L 357.327384 97.549683 
L 358.535486 195.831376 
L 359.672141 177.269111 
L 360.626931 188.800094 
L 361.497283 193.292402 
L 362.296189 201.860075 
L 363.361397 165.756685 
L 364.25773 187.462359 
L 365.037151 222.013236 
L 365.875027 215.545859 
L 366.829817 188.091599 
L 367.726151 192.409185 
L 368.700426 175.984443 
L 369.544798 208.129064 
L 370.090392 245.227175 
L 370.993221 190.836276 
L 372.409168 113.092857 
L 374.877332 167.123053 
L 376.111414 158.332846 
L 376.501124 265.368722 
L 377.696236 139.823284 
L 378.943308 141.971758 
L 380.190381 125.968489 
L 381.314045 151.190564 
L 382.606584 126.414647 
L 383.334043 214.770397 
L 384.334299 170.824811 
L 385.470953 145.3551 
L 386.718026 135.197196 
L 387.835195 146.29298 
L 388.867927 200.941778 
L 390.244903 139.07882 
L 391.543937 260.198527 
L 393.427536 53.568 
L 394.356345 178.355198 
L 397.344123 159.519757 
L 398.279427 180.308246 
L 398.279427 180.308246 
" clip-path="url(#p32578ff107)" style="fill: none; stroke: #1f77b4; stroke-width: 1.5; stroke-linecap: square"/>
   </g>
   <g id="line2d_13">
    <path d="M 76.976389 292.315143 
L 80.223974 292.332255 
L 83.471559 292.301611 
L 86.719143 292.306357 
L 89.966728 292.321064 
L 93.214313 292.308315 
L 96.461897 292.311271 
L 99.709482 292.307835 
L 102.957067 292.300615 
L 106.204651 292.30665 
L 109.452236 292.318017 
L 112.699821 292.303694 
L 115.947405 292.317742 
L 119.19499 292.316361 
L 122.442575 292.323037 
L 125.690159 292.310022 
L 128.937744 292.298562 
L 132.185329 292.308958 
L 135.432914 292.292434 
L 138.680498 292.326993 
L 141.928083 282.706501 
L 145.175668 285.086849 
L 148.423252 222.092281 
L 151.670837 247.225268 
L 154.918422 243.394155 
L 158.166006 247.516266 
L 161.413591 221.341409 
L 164.661176 194.832669 
L 167.90876 228.137183 
L 171.156345 226.808833 
L 174.40393 226.886168 
L 177.651514 211.299437 
L 180.899099 223.169493 
L 184.146684 217.242699 
L 187.394268 201.867349 
L 190.641853 213.967331 
L 193.889438 262.774855 
L 197.137022 215.984689 
L 200.384607 230.102377 
L 203.632192 218.556578 
L 206.879777 294.261439 
L 210.127361 256.649129 
L 213.374946 219.24913 
L 216.622531 201.771059 
L 219.870115 293.004962 
L 223.1177 211.175116 
L 226.365285 200.75046 
L 229.612869 170.867215 
L 232.860454 139.450107 
L 236.108039 230.835717 
L 239.355623 142.410149 
L 242.603208 201.178449 
L 245.850793 232.966079 
L 249.098377 209.574795 
L 252.345962 198.316386 
L 255.593547 162.826496 
L 258.841131 184.183805 
L 262.088716 217.989061 
L 265.336301 280.651716 
L 268.583885 199.498206 
L 271.83147 184.543249 
L 275.079055 157.4749 
L 278.32664 150.136221 
L 281.574224 191.696382 
L 284.821809 172.385124 
L 288.069394 131.335722 
L 291.316978 190.251271 
L 294.564563 148.391022 
L 297.812148 159.746405 
L 301.059732 149.690685 
L 304.307317 154.236286 
L 307.554902 154.439455 
L 310.802486 152.102667 
L 314.050071 150.514994 
L 317.297656 152.21031 
L 320.54524 150.354321 
L 323.792825 148.889301 
L 327.04041 154.339446 
L 330.287994 152.694238 
L 333.535579 148.749666 
L 336.783164 145.195916 
L 340.030748 148.292074 
L 343.278333 147.701278 
L 346.525918 148.889231 
L 349.773503 146.935825 
L 353.021087 82.829511 
L 356.268672 138.133171 
L 359.516257 198.707465 
L 362.763841 207.20741 
L 366.011426 188.276511 
L 369.259011 200.337793 
L 372.506595 170.834386 
L 375.75418 155.289184 
L 379.001765 216.901477 
L 382.249349 211.527437 
L 385.496934 197.093484 
L 388.744519 245.41823 
L 391.992103 179.243011 
L 395.239688 126.83144 
L 398.487273 106.667637 
" clip-path="url(#p32578ff107)" style="fill: none; stroke: #ff7f0e; stroke-width: 1.5; stroke-linecap: square"/>
   </g>
   <g id="line2d_14">
    <path d="M 73.832727 293.331929 
L 73.943145 293.184016 
L 74.11202 288.182514 
L 74.209447 293.11597 
L 74.391312 288.426456 
L 74.51472 291.296059 
L 74.71607 291.216517 
L 74.910925 291.598357 
L 74.988867 293.141917 
L 75.177227 289.818276 
L 75.300636 290.926668 
L 75.514976 283.723406 
L 75.768288 288.935821 
L 75.839735 294.181359 
L 76.080056 285.367008 
L 76.164493 294.006875 
L 76.24893 293.391547 
L 76.300892 294.758677 
L 76.710087 289.814166 
L 76.80102 292.280786 
L 77.171244 290.39006 
L 77.242691 294.055709 
L 77.366099 291.222808 
L 77.508993 293.933773 
L 77.625906 293.103472 
L 77.814266 293.260987 
L 77.898703 293.072218 
L 78.152015 287.31065 
L 78.431307 286.301548 
L 78.775551 283.048267 
L 79.035358 290.69961 
L 79.197737 292.204932 
L 79.269184 294.322223 
L 79.399087 293.941691 
L 79.665389 292.231267 
L 79.840759 293.864158 
L 80.022624 290.723746 
L 80.146032 291.542776 
L 80.490276 291.014844 
L 80.750083 294.405296 
L 80.990404 284.996319 
L 81.113812 293.456703 
L 81.263201 292.713949 
L 81.380114 291.445083 
L 81.477542 293.348878 
L 81.724358 291.611896 
L 81.8023 294.193385 
L 81.97767 289.650595 
L 82.114068 292.280637 
L 82.36738 288.075338 
L 82.55574 293.454726 
L 82.685643 293.455709 
L 82.789566 292.763751 
L 82.893489 293.583669 
L 83.036382 289.414515 
L 83.231237 288.091602 
L 83.315675 295.160741 
L 83.471559 291.473057 
L 83.692394 294.138064 
L 83.822298 290.12134 
L 83.939211 291.588027 
L 84.11458 286.605954 
L 84.179532 294.292267 
L 84.263969 294.042068 
L 84.601718 288.930351 
L 84.69265 292.921809 
L 84.861525 291.202854 
L 84.932972 294.413277 
L 85.303196 292.2509 
L 85.498051 285.95789 
L 85.796829 293.188079 
L 86.089112 294.021204 
L 86.19953 293.679493 
L 86.342423 290.898332 
L 86.504803 290.958578 
L 86.647696 289.635662 
L 86.758114 293.608269 
L 86.875027 292.667535 
L 86.946474 294.29805 
L 87.108853 290.620859 
L 87.336184 292.051767 
L 87.511554 288.87441 
L 87.595991 293.774866 
L 87.738885 292.751126 
L 87.901264 292.748053 
L 88.076634 293.809638 
L 88.187052 292.389437 
L 88.394897 292.760293 
L 88.836569 286.958217 
L 88.914511 294.134874 
L 89.193803 291.556619 
L 89.356182 287.496389 
L 89.434124 294.119038 
L 89.901776 266.680062 
L 90.109622 293.955069 
L 90.304477 288.557795 
L 90.408399 293.546958 
L 90.512322 292.919542 
L 90.687692 293.670354 
L 90.979974 290.721018 
L 91.148849 289.678916 
L 91.2138 294.109041 
L 91.57753 289.984357 
L 91.700938 294.435088 
L 91.824346 292.43919 
L 92.16859 275.042597 
L 92.434892 294.025666 
L 92.629747 289.556424 
L 92.772641 294.318846 
L 93.019458 292.912246 
L 93.0974 294.960867 
L 93.331226 287.507413 
L 93.636499 291.646428 
L 93.753412 292.218705 
L 93.844344 293.27014 
L 94.026209 291.617056 
L 94.149617 292.69823 
L 94.214569 294.551851 
L 94.318491 292.13338 
L 94.4419 292.183468 
L 94.506851 294.131419 
L 94.597784 293.653815 
L 94.708202 292.781274 
L 95.006979 280.551982 
L 95.104407 294.289219 
L 95.617525 287.635502 
L 95.7864 293.4463 
L 95.968264 286.877589 
L 96.033216 294.321774 
L 96.241062 290.017893 
L 96.435917 292.512942 
L 96.56582 290.006893 
L 96.682733 291.220534 
L 97.033472 288.016424 
L 97.423182 280.192379 
L 97.585562 290.780573 
L 97.877844 293.135614 
L 98.020738 294.178176 
L 98.196108 292.73096 
L 98.313021 291.969332 
L 98.429934 292.873054 
L 98.969033 251.644217 
L 99.05347 293.908151 
L 99.202859 291.91535 
L 99.280801 293.147237 
L 99.391219 293.050533 
L 99.573083 291.673877 
L 99.63154 294.192086 
L 99.975784 287.016089 
L 100.047231 293.708425 
L 100.20961 292.772772 
L 100.287552 294.498502 
L 100.346009 294.464 
L 100.482407 290.431111 
L 100.59932 293.565279 
L 100.852632 291.729665 
L 100.943564 293.276198 
L 101.034497 292.680022 
L 101.209866 288.875618 
L 101.287808 294.170701 
L 101.534625 292.251471 
L 101.690509 292.792311 
L 101.872373 291.244437 
L 101.995782 293.396987 
L 102.158161 292.650365 
L 102.404977 286.079661 
L 102.580347 286.5697 
L 102.788192 290.230079 
L 102.853144 294.413872 
L 102.937581 293.272026 
L 103.067485 290.326784 
L 103.307806 292.239495 
L 103.46369 291.684702 
L 103.574108 292.23162 
L 103.67803 293.444415 
L 103.989799 288.754968 
L 104.204139 291.981031 
L 104.295072 294.098495 
L 104.580859 288.454239 
L 104.665296 292.906739 
L 104.775714 292.674669 
L 104.912113 293.557646 
L 105.055006 292.339958 
L 105.1979 292.377277 
L 105.269347 294.118221 
L 105.418736 292.537066 
L 105.548639 293.428032 
L 105.814941 289.756521 
L 105.931854 292.818915 
L 106.100729 287.929051 
L 106.282593 294.11743 
L 106.360535 293.884563 
L 106.607352 281.696792 
L 106.73076 291.021701 
L 106.854168 291.672573 
L 107.003557 290.803172 
L 107.087994 293.492342 
L 107.204907 293.010654 
L 107.315325 293.193901 
L 107.380277 294.426361 
L 107.451724 294.07106 
L 107.737511 289.08274 
L 108.114231 292.294354 
L 108.224649 292.549267 
L 108.322077 293.280547 
L 108.523427 288.452292 
L 108.614359 293.678156 
L 108.789729 293.154199 
L 108.85468 294.372844 
L 108.984584 291.660113 
L 109.172944 295.02362 
L 109.380789 288.10092 
L 109.556159 293.293184 
L 109.822461 290.141772 
L 110.004325 293.921357 
L 110.37455 291.013462 
L 110.530434 291.384593 
L 110.666833 293.31051 
L 110.809726 289.932951 
L 110.920144 292.137143 
L 111.030562 292.070075 
L 111.192941 289.296628 
L 111.283874 292.838511 
L 111.446253 291.700534 
L 111.602137 291.678484 
L 111.777507 286.641046 
L 111.861944 294.034313 
L 112.160722 293.668147 
L 112.342586 292.185994 
L 112.427024 293.75747 
L 112.530946 292.997685 
L 112.771268 285.641341 
L 113.180463 293.878537 
L 113.297376 290.98943 
L 113.414289 292.696003 
L 113.537698 290.917557 
L 113.784514 294.016472 
L 114.089787 291.973541 
L 114.226186 292.922618 
L 114.330108 292.489672 
L 114.421041 292.881937 
L 114.758789 281.117991 
L 114.823741 294.77516 
L 115.090043 292.071167 
L 115.271908 287.213831 
L 115.369335 293.855527 
L 115.557695 289.632966 
L 115.73956 294.375906 
L 115.817502 293.932931 
L 116.181232 277.964174 
L 116.343611 294.110847 
L 116.531971 293.329388 
L 117.213963 277.664295 
L 117.28541 293.817778 
L 117.408819 291.884978 
L 117.525732 294.10084 
L 117.824509 288.539076 
L 118.019364 288.394821 
L 118.207724 294.778405 
L 118.474026 290.311143 
L 118.62991 290.539376 
L 118.798785 293.807265 
L 119.091067 289.678308 
L 119.19499 292.234606 
L 119.363865 287.96566 
L 119.422321 294.311551 
L 119.552224 293.007863 
L 119.604186 294.998726 
L 119.753575 292.678456 
L 119.993896 286.129317 
L 120.143285 292.869624 
L 120.260198 291.284876 
L 120.331645 294.170079 
L 120.481034 292.158005 
L 120.747336 293.919453 
L 120.831773 293.463744 
L 120.90322 294.365496 
L 121.033123 290.221994 
L 121.130551 293.442019 
L 121.273444 293.527346 
L 121.403348 289.821554 
L 121.585212 294.008143 
L 122.046369 280.015037 
L 122.143797 292.356746 
L 122.416594 290.253304 
L 122.65042 287.793788 
L 122.884246 294.062405 
L 123.020645 293.585113 
L 123.085597 294.458297 
L 123.280452 285.954937 
L 123.533763 289.459673 
L 123.611705 293.984376 
L 123.819551 284.328064 
L 123.916978 292.278854 
L 124.053377 293.064758 
L 124.157299 292.33925 
L 124.254727 293.673121 
L 124.449582 292.540987 
L 124.57299 293.971534 
L 124.670418 292.834232 
L 124.74836 294.277943 
L 124.845787 293.372578 
L 124.910739 294.239522 
L 125.196527 285.138086 
L 125.33942 294.140085 
L 125.800577 286.575626 
L 126.027908 293.414112 
L 126.216268 289.222852 
L 126.46958 280.311868 
L 126.528036 294.471833 
L 126.68392 289.329746 
L 126.8463 288.822368 
L 127.06064 294.569379 
L 127.391894 291.37977 
L 127.580254 294.301041 
L 127.755623 289.644378 
L 127.976459 287.934628 
L 128.119353 292.935691 
L 128.366169 281.518574 
L 128.431121 294.333343 
L 128.671442 290.431623 
L 128.807841 294.547888 
L 128.879288 294.145703 
L 129.197551 282.046384 
L 129.366425 294.750927 
L 129.463853 292.782563 
L 129.600251 293.299488 
L 129.678193 294.052278 
L 129.782116 293.269289 
L 129.950991 293.994761 
L 130.028933 293.873301 
L 130.12636 292.371903 
L 130.249768 293.223514 
L 130.444623 288.459637 
L 130.671954 293.025473 
L 130.769382 293.902461 
L 130.899285 292.801458 
L 130.990218 294.544591 
L 131.412404 281.759477 
L 131.977483 293.068318 
L 132.061921 293.860772 
L 132.204814 293.107501 
L 132.315232 293.677712 
L 132.549058 291.237846 
L 132.627 293.522251 
L 132.873817 292.617506 
L 133.068672 294.086225 
L 133.231051 291.07383 
L 133.39343 292.967939 
L 133.679218 285.116095 
L 134.075423 293.764751 
L 134.192336 292.54403 
L 134.52359 278.218631 
L 134.71195 290.341593 
L 134.893814 291.579581 
L 134.978252 293.887545 
L 135.238058 289.035931 
L 135.439409 290.651287 
L 135.627769 287.431842 
L 135.809633 287.959057 
L 136.06944 292.847669 
L 136.2578 290.720074 
L 136.387703 294.45259 
L 136.777414 277.6293 
L 137.180114 294.149971 
L 137.420435 291.569628 
L 137.517863 292.64604 
L 137.732203 288.536387 
L 137.998505 293.340192 
L 138.095933 293.254894 
L 138.258312 290.577133 
L 138.472653 284.449959 
L 138.596061 293.250468 
L 138.74545 292.662725 
L 138.862363 291.203617 
L 139.050723 294.047851 
L 139.330015 283.077208 
L 139.719725 292.382965 
L 139.856124 290.400985 
L 139.947056 292.800254 
L 140.083455 292.386996 
L 140.317281 279.733352 
L 140.706991 273.840759 
L 141.077216 285.345838 
L 141.226605 285.254561 
L 141.382489 284.892755 
L 141.525382 285.612052 
L 141.830655 284.901427 
L 141.973549 285.789809 
L 142.272327 285.141151 
L 142.415221 285.723594 
L 142.564609 285.223652 
L 142.713998 285.229337 
L 142.869882 284.779175 
L 143.032262 284.696983 
L 143.16866 286.158824 
L 143.480428 284.568164 
L 143.629817 285.277412 
L 143.779206 285.368879 
L 143.928595 285.151992 
L 144.090974 284.374021 
L 144.246858 284.777599 
L 144.409238 284.509464 
L 144.558626 285.110893 
L 144.733996 283.363875 
L 144.896375 284.350298 
L 145.071745 283.322394 
L 145.214639 285.771075 
L 145.513416 285.210336 
L 145.825184 284.712377 
L 145.968078 285.66462 
L 146.273351 284.847214 
L 146.42274 285.373357 
L 146.604605 282.650118 
L 146.857916 277.17959 
L 147.169685 285.801076 
L 147.319073 285.238195 
L 147.533414 280.655283 
L 147.949105 264.08311 
L 148.254378 273.368774 
L 148.618107 268.262159 
L 148.845438 279.744594 
L 149.494955 239.592748 
L 149.904151 266.851406 
L 150.209424 273.711519 
L 150.774504 246.167571 
L 151.346078 245.207923 
L 151.80074 263.048786 
L 152.359325 244.822364 
L 152.904919 251.084238 
L 153.50897 242.168802 
L 154.139001 242.107837 
L 154.820994 239.831732 
L 155.496492 241.549911 
L 156.158999 242.29184 
L 156.756555 243.583143 
L 157.347615 242.716428 
L 158.042598 232.29412 
L 158.666134 234.901536 
L 159.289671 238.784025 
L 159.893721 239.124056 
L 160.523753 236.920509 
L 161.127804 238.476836 
L 161.718864 238.848655 
L 162.303429 247.722949 
L 162.900985 237.767591 
L 163.511531 237.572436 
L 164.083106 241.572989 
L 164.674166 239.161962 
L 165.265226 239.764682 
L 165.895258 235.124896 
L 166.453842 242.238785 
L 167.207282 207.490559 
L 167.837313 235.755584 
L 168.447859 243.271752 
L 169.389659 202.110885 
L 170.117118 229.243148 
L 170.870558 217.893345 
L 171.71493 215.514089 
L 172.390427 235.834875 
L 172.49435 291.902456 
L 173.234799 223.801858 
L 173.955763 231.307278 
L 174.579299 236.540379 
L 175.410681 216.502776 
L 176.248558 219.243469 
L 177.203348 196.430003 
L 177.924311 235.481069 
L 178.788169 210.397073 
L 179.483152 231.83872 
L 180.269068 228.510549 
L 181.165401 209.047841 
L 181.996783 218.401284 
L 182.854145 214.980052 
L 183.718003 213.815956 
L 184.750734 189.53787 
L 185.731505 199.559764 
L 186.647324 197.702271 
L 187.218899 248.136429 
L 188.063271 206.051016 
L 188.907643 208.239092 
L 189.628607 218.431913 
L 190.388541 219.138513 
L 191.226418 208.552193 
L 192.051305 204.696898 
L 192.882687 202.455141 
L 193.506223 237.174051 
L 194.110274 244.043475 
L 194.73381 239.625458 
L 195.487249 213.756708 
L 196.331621 210.283602 
L 196.935672 241.921568 
L 197.61117 228.92988 
L 198.513998 206.778878 
L 199.299914 209.128589 
L 200.235218 192.495932 
L 200.793803 244.145741 
L 201.560233 207.691094 
L 202.372129 202.595248 
L 203.17753 208.499842 
L 204.021902 201.549503 
L 204.820808 204.271759 
L 205.522286 219.150628 
L 206.282221 210.507355 
L 206.951223 226.379188 
L 207.769615 201.145318 
L 208.568521 206.241487 
L 209.360931 207.83048 
L 210.185818 199.361139 
L 210.939257 215.830627 
L 211.731668 209.941978 
L 211.861571 288.111449 
L 212.647487 207.494468 
L 213.485364 196.552108 
L 214.290765 201.311073 
L 215.148127 192.993882 
L 215.284526 287.529057 
L 216.122403 196.925004 
L 217.025231 187.105512 
L 217.843622 201.343332 
L 218.564586 219.66197 
L 219.29854 218.205761 
L 220.142912 194.53358 
L 220.935323 207.527076 
L 221.766705 200.852691 
L 222.617572 196.496817 
L 223.481429 195.700942 
L 224.410239 201.957792 
L 226.19641 223.023002 
L 227.027792 229.605296 
L 227.937116 202.298373 
L 228.755507 202.236799 
L 229.508947 213.71341 
L 231.56142 183.200637 
L 232.412287 212.275144 
L 233.828234 175.646902 
L 234.633635 201.237577 
L 235.737814 196.445593 
L 237.342121 170.334139 
L 238.173503 199.100317 
L 238.816524 228.948179 
L 239.582954 213.662467 
L 240.446812 189.361063 
L 241.050863 243.568775 
L 242.057614 183.522022 
L 242.69414 240.126503 
L 243.532017 200.089382 
L 244.41536 192.028347 
L 245.311694 186.954124 
L 246.169056 189.140434 
L 247.019923 192.65984 
L 247.883781 188.655941 
L 248.786609 188.299713 
L 249.611496 195.46798 
L 250.436382 196.450942 
L 251.31323 187.956869 
L 251.86532 243.27261 
L 252.703196 200.829488 
L 253.255286 247.689232 
L 253.982745 217.222527 
L 254.827117 199.381005 
L 255.73644 186.909256 
L 256.574317 195.840951 
L 257.249815 229.365805 
L 257.801904 246.861419 
L 258.321518 251.609958 
L 259.159395 202.387042 
L 259.938815 211.337066 
L 260.757206 203.21054 
L 261.283315 251.824723 
L 261.958813 225.159136 
L 262.829165 199.366223 
L 263.667042 198.617556 
L 264.206141 249.576175 
L 265.024533 206.89251 
L 265.836429 202.915031 
L 266.589868 214.643709 
L 267.427745 203.263329 
L 268.265622 204.420385 
L 269.084014 207.892414 
L 269.597132 253.452802 
L 270.409028 206.16691 
L 271.117002 223.021918 
L 272.00684 195.574276 
L 272.714813 223.430726 
L 273.487738 211.809411 
L 273.974876 256.133879 
L 274.643878 229.503014 
L 275.176482 251.163413 
L 275.910437 212.860833 
L 276.741818 206.171428 
L 277.534229 207.68102 
L 278.385096 206.069227 
L 279.242458 202.682819 
L 279.742586 255.660774 
L 280.612939 201.71848 
L 281.411845 196.904681 
L 282.256217 192.930486 
L 283.113579 194.346521 
L 284.055379 181.865398 
L 284.808819 209.689712 
L 285.672676 191.950317 
L 286.432611 202.257631 
L 287.244507 193.265009 
L 287.958976 208.990637 
L 288.777367 193.929942 
L 289.589263 195.184249 
L 290.362188 201.668984 
L 291.239036 193.31514 
L 292.018457 198.189087 
L 292.72643 213.232854 
L 293.440899 210.63483 
L 294.168358 210.176396 
L 294.726942 241.469369 
L 295.441411 214.190813 
L 296.227326 201.023527 
L 296.993756 205.307227 
L 297.766681 204.176533 
L 298.429189 224.558775 
L 299.23459 197.314679 
L 299.871116 226.961656 
L 300.637546 202.839349 
L 301.377996 210.117322 
L 302.176901 198.687327 
L 303.047254 188.476466 
L 303.813684 205.315131 
L 304.606095 201.78898 
L 305.417991 195.339368 
L 306.203906 201.66084 
L 307.028793 194.740682 
L 307.548406 246.440487 
L 308.399274 188.129547 
L 309.263131 189.046965 
L 310.101008 201.557956 
L 310.977856 192.269621 
L 311.861199 196.094054 
L 312.822484 171.766763 
L 313.660361 209.307091 
L 314.550199 194.846611 
L 315.375086 210.33891 
L 316.394827 173.057667 
L 317.083315 225.984966 
L 317.973153 191.129883 
L 318.090066 290.2039 
L 318.914953 209.818397 
L 319.915209 177.116623 
L 320.785562 198.061477 
L 320.882989 292.587918 
L 321.376622 252.072717 
L 322.195013 212.376116 
L 323.013405 214.058646 
L 323.149803 289.675511 
L 324.039641 213.209987 
L 324.909994 206.059304 
L 325.877774 189.978045 
L 326.020668 287.449856 
L 326.137581 290.054038 
L 326.325941 284.695746 
L 327.43012 155.716254 
L 328.358929 177.874163 
L 329.274748 187.591365 
L 330.177577 182.639498 
L 331.119376 180.286493 
L 331.950758 197.326142 
L 332.79513 205.584612 
L 333.671978 188.199324 
L 334.496864 211.530784 
L 335.406188 187.046902 
L 336.140142 232.494389 
L 336.913067 208.048848 
L 337.718468 199.790469 
L 338.277053 247.039175 
L 339.322775 175.06987 
L 340.387983 186.730557 
L 341.277821 181.547644 
L 342.167659 187.473622 
L 343.310809 165.053526 
L 344.155181 191.738803 
L 345.109971 179.193357 
L 346.876657 197.372199 
L 347.695048 196.553348 
L 348.753761 158.347962 
L 349.448744 218.071797 
L 350.468486 179.833404 
L 351.481732 171.714804 
L 352.488483 167.25957 
L 353.32636 195.115001 
L 354.203208 190.512946 
L 354.85922 226.838296 
L 355.891952 160.259352 
L 357.15851 170.692113 
L 358.152271 174.589074 
L 358.899215 211.683042 
L 359.892976 170.537466 
L 360.854261 178.366526 
L 361.334904 261.688913 
L 362.452073 147.085803 
L 363.439339 172.29727 
L 364.329177 189.803832 
L 364.874771 278.383582 
L 365.998436 261.798796 
L 366.297213 292.292079 
L 367.13509 267.842389 
L 368.115861 262.903268 
L 369.889042 121.752118 
L 370.999716 151.864763 
L 372.5001 90.020956 
L 373.591289 146.177941 
L 374.559069 169.692681 
L 375.442412 186.123339 
L 376.169871 216.125188 
L 377.423438 133.558424 
L 380.671023 149.251536 
L 383.23012 112.038823 
L 384.223881 167.67181 
L 385.620342 154.680981 
L 386.633589 236.165563 
L 387.900147 168.873675 
L 389.54992 124.50363 
L 391.329596 89.823147 
L 392.784514 163.683352 
L 394.226442 158.055894 
L 397.655891 91.972992 
L 397.655891 91.972992 
" clip-path="url(#p32578ff107)" style="fill: none; stroke: #2ca02c; stroke-width: 1.5; stroke-linecap: square"/>
   </g>
   <g id="patch_3">
    <path d="M 57.6 307.584 
L 57.6 41.472 
" style="fill: none; stroke: #000000; stroke-width: 0.8; stroke-linejoin: miter; stroke-linecap: square"/>
   </g>
   <g id="patch_4">
    <path d="M 414.72 307.584 
L 414.72 41.472 
" style="fill: none; stroke: #000000; stroke-width: 0.8; stroke-linejoin: miter; stroke-linecap: square"/>
   </g>
   <g id="patch_5">
    <path d="M 57.6 307.584 
L 414.72 307.584 
" style="fill: none; stroke: #000000; stroke-width: 0.8; stroke-linejoin: miter; stroke-linecap: square"/>
   </g>
   <g id="patch_6">
    <path d="M 57.6 41.472 
L 414.72 41.472 
" style="fill: none; stroke: #000000; stroke-width: 0.8; stroke-linejoin: miter; stroke-linecap: square"/>
   </g>
   <g id="text_14">
    <!-- learning curve -->
    <g transform="translate(192.96375 35.472) scale(0.12 -0.12)">
     <defs>
      <path id="DejaVuSans-6c" d="M 603 4863 
L 1178 4863 
L 1178 0 
L 603 0 
L 603 4863 
z
" transform="scale(0.015625)"/>
      <path id="DejaVuSans-67" d="M 2906 1791 
Q 2906 2416 2648 2759 
Q 2391 3103 1925 3103 
Q 1463 3103 1205 2759 
Q 947 2416 947 1791 
Q 947 1169 1205 825 
Q 1463 481 1925 481 
Q 2391 481 2648 825 
Q 2906 1169 2906 1791 
z
M 3481 434 
Q 3481 -459 3084 -895 
Q 2688 -1331 1869 -1331 
Q 1566 -1331 1297 -1286 
Q 1028 -1241 775 -1147 
L 775 -588 
Q 1028 -725 1275 -790 
Q 1522 -856 1778 -856 
Q 2344 -856 2625 -561 
Q 2906 -266 2906 331 
L 2906 616 
Q 2728 306 2450 153 
Q 2172 0 1784 0 
Q 1141 0 747 490 
Q 353 981 353 1791 
Q 353 2603 747 3093 
Q 1141 3584 1784 3584 
Q 2172 3584 2450 3431 
Q 2728 3278 2906 2969 
L 2906 3500 
L 3481 3500 
L 3481 434 
z
" transform="scale(0.015625)"/>
      <path id="DejaVuSans-63" d="M 3122 3366 
L 3122 2828 
Q 2878 2963 2633 3030 
Q 2388 3097 2138 3097 
Q 1578 3097 1268 2742 
Q 959 2388 959 1747 
Q 959 1106 1268 751 
Q 1578 397 2138 397 
Q 2388 397 2633 464 
Q 2878 531 3122 666 
L 3122 134 
Q 2881 22 2623 -34 
Q 2366 -91 2075 -91 
Q 1284 -91 818 406 
Q 353 903 353 1747 
Q 353 2603 823 3093 
Q 1294 3584 2113 3584 
Q 2378 3584 2631 3529 
Q 2884 3475 3122 3366 
z
" transform="scale(0.015625)"/>
      <path id="DejaVuSans-75" d="M 544 1381 
L 544 3500 
L 1119 3500 
L 1119 1403 
Q 1119 906 1312 657 
Q 1506 409 1894 409 
Q 2359 409 2629 706 
Q 2900 1003 2900 1516 
L 2900 3500 
L 3475 3500 
L 3475 0 
L 2900 0 
L 2900 538 
Q 2691 219 2414 64 
Q 2138 -91 1772 -91 
Q 1169 -91 856 284 
Q 544 659 544 1381 
z
M 1991 3584 
L 1991 3584 
z
" transform="scale(0.015625)"/>
      <path id="DejaVuSans-76" d="M 191 3500 
L 800 3500 
L 1894 563 
L 2988 3500 
L 3597 3500 
L 2284 0 
L 1503 0 
L 191 3500 
z
" transform="scale(0.015625)"/>
     </defs>
     <use xlink:href="#DejaVuSans-6c"/>
     <use xlink:href="#DejaVuSans-65" x="27.783203"/>
     <use xlink:href="#DejaVuSans-61" x="89.306641"/>
     <use xlink:href="#DejaVuSans-72" x="150.585938"/>
     <use xlink:href="#DejaVuSans-6e" x="189.949219"/>
     <use xlink:href="#DejaVuSans-69" x="253.328125"/>
     <use xlink:href="#DejaVuSans-6e" x="281.111328"/>
     <use xlink:href="#DejaVuSans-67" x="344.490234"/>
     <use xlink:href="#DejaVuSans-20" x="407.966797"/>
     <use xlink:href="#DejaVuSans-63" x="439.753906"/>
     <use xlink:href="#DejaVuSans-75" x="494.734375"/>
     <use xlink:href="#DejaVuSans-72" x="558.113281"/>
     <use xlink:href="#DejaVuSans-76" x="599.226562"/>
     <use xlink:href="#DejaVuSans-65" x="658.40625"/>
    </g>
   </g>
   <g id="legend_1">
    <g id="patch_7">
     <path d="M 64.6 93.506375 
L 166.614062 93.506375 
Q 168.614062 93.506375 168.614062 91.506375 
L 168.614062 48.472 
Q 168.614062 46.472 166.614062 46.472 
L 64.6 46.472 
Q 62.6 46.472 62.6 48.472 
L 62.6 91.506375 
Q 62.6 93.506375 64.6 93.506375 
z
" style="fill: #ffffff; opacity: 0.8; stroke: #cccccc; stroke-linejoin: miter"/>
    </g>
    <g id="line2d_15">
     <path d="M 66.6 54.570438 
L 76.6 54.570438 
L 86.6 54.570438 
" style="fill: none; stroke: #1f77b4; stroke-width: 1.5; stroke-linecap: square"/>
    </g>
    <g id="text_15">
     <!-- source-source -->
     <g transform="translate(94.6 58.070438) scale(0.1 -0.1)">
      <defs>
       <path id="DejaVuSans-2d" d="M 313 2009 
L 1997 2009 
L 1997 1497 
L 313 1497 
L 313 2009 
z
" transform="scale(0.015625)"/>
      </defs>
      <use xlink:href="#DejaVuSans-73"/>
      <use xlink:href="#DejaVuSans-6f" x="52.099609"/>
      <use xlink:href="#DejaVuSans-75" x="113.28125"/>
      <use xlink:href="#DejaVuSans-72" x="176.660156"/>
      <use xlink:href="#DejaVuSans-63" x="215.523438"/>
      <use xlink:href="#DejaVuSans-65" x="270.503906"/>
      <use xlink:href="#DejaVuSans-2d" x="332.027344"/>
      <use xlink:href="#DejaVuSans-73" x="368.111328"/>
      <use xlink:href="#DejaVuSans-6f" x="420.210938"/>
      <use xlink:href="#DejaVuSans-75" x="481.392578"/>
      <use xlink:href="#DejaVuSans-72" x="544.771484"/>
      <use xlink:href="#DejaVuSans-63" x="583.634766"/>
      <use xlink:href="#DejaVuSans-65" x="638.615234"/>
     </g>
    </g>
    <g id="line2d_16">
     <path d="M 66.6 69.248563 
L 76.6 69.248563 
L 86.6 69.248563 
" style="fill: none; stroke: #ff7f0e; stroke-width: 1.5; stroke-linecap: square"/>
    </g>
    <g id="text_16">
     <!-- source-target -->
     <g transform="translate(94.6 72.748563) scale(0.1 -0.1)">
      <use xlink:href="#DejaVuSans-73"/>
      <use xlink:href="#DejaVuSans-6f" x="52.099609"/>
      <use xlink:href="#DejaVuSans-75" x="113.28125"/>
      <use xlink:href="#DejaVuSans-72" x="176.660156"/>
      <use xlink:href="#DejaVuSans-63" x="215.523438"/>
      <use xlink:href="#DejaVuSans-65" x="270.503906"/>
      <use xlink:href="#DejaVuSans-2d" x="332.027344"/>
      <use xlink:href="#DejaVuSans-74" x="368.111328"/>
      <use xlink:href="#DejaVuSans-61" x="407.320312"/>
      <use xlink:href="#DejaVuSans-72" x="468.599609"/>
      <use xlink:href="#DejaVuSans-67" x="507.962891"/>
      <use xlink:href="#DejaVuSans-65" x="571.439453"/>
      <use xlink:href="#DejaVuSans-74" x="632.962891"/>
     </g>
    </g>
    <g id="line2d_17">
     <path d="M 66.6 83.926688 
L 76.6 83.926688 
L 86.6 83.926688 
" style="fill: none; stroke: #2ca02c; stroke-width: 1.5; stroke-linecap: square"/>
    </g>
    <g id="text_17">
     <!-- target-target -->
     <g transform="translate(94.6 87.426688) scale(0.1 -0.1)">
      <use xlink:href="#DejaVuSans-74"/>
      <use xlink:href="#DejaVuSans-61" x="39.208984"/>
      <use xlink:href="#DejaVuSans-72" x="100.488281"/>
      <use xlink:href="#DejaVuSans-67" x="139.851562"/>
      <use xlink:href="#DejaVuSans-65" x="203.328125"/>
      <use xlink:href="#DejaVuSans-74" x="264.851562"/>
      <use xlink:href="#DejaVuSans-2d" x="304.060547"/>
      <use xlink:href="#DejaVuSans-74" x="340.144531"/>
      <use xlink:href="#DejaVuSans-61" x="379.353516"/>
      <use xlink:href="#DejaVuSans-72" x="440.632812"/>
      <use xlink:href="#DejaVuSans-67" x="479.996094"/>
      <use xlink:href="#DejaVuSans-65" x="543.472656"/>
      <use xlink:href="#DejaVuSans-74" x="604.996094"/>
     </g>
    </g>
   </g>
  </g>
 </g>
 <defs>
  <clipPath id="p32578ff107">
   <rect x="57.6" y="41.472" width="357.12" height="266.112"/>
  </clipPath>
 </defs>
</svg>
