<?xml version="1.0" encoding="utf-8" standalone="no"?>
<!DOCTYPE svg PUBLIC "-//W3C//DTD SVG 1.1//EN"
  "http://www.w3.org/Graphics/SVG/1.1/DTD/svg11.dtd">
<svg xmlns:xlink="http://www.w3.org/1999/xlink" width="460.8pt" height="345.6pt" viewBox="0 0 460.8 345.6" xmlns="http://www.w3.org/2000/svg" version="1.1">
 <metadata>
  <rdf:RDF xmlns:dc="http://purl.org/dc/elements/1.1/" xmlns:cc="http://creativecommons.org/ns#" xmlns:rdf="http://www.w3.org/1999/02/22-rdf-syntax-ns#">
   <cc:Work>
    <dc:type rdf:resource="http://purl.org/dc/dcmitype/StillImage"/>
    <dc:date>2023-08-18T16:01:22.827794</dc:date>
    <dc:format>image/svg+xml</dc:format>
    <dc:creator>
     <cc:Agent>
      <dc:title>Matplotlib v3.7.1, https://matplotlib.org/</dc:title>
     </cc:Agent>
    </dc:creator>
   </cc:Work>
  </rdf:RDF>
 </metadata>
 <defs>
  <style type="text/css">*{stroke-linejoin: round; stroke-linecap: butt}</style>
 </defs>
 <g id="figure_1">
  <g id="patch_1">
   <path d="M 0 345.6 
L 460.8 345.6 
L 460.8 0 
L 0 0 
z
" style="fill: #ffffff"/>
  </g>
  <g id="axes_1">
   <g id="patch_2">
    <path d="M 57.6 307.584 
L 414.72 307.584 
L 414.72 41.472 
L 57.6 41.472 
z
" style="fill: #ffffff"/>
   </g>
   <g id="matplotlib.axis_1">
    <g id="xtick_1">
     <g id="line2d_1">
      <defs>
       <path id="mb803a7ef84" d="M 0 0 
L 0 3.5 
" style="stroke: #000000; stroke-width: 0.8"/>
      </defs>
      <g>
       <use xlink:href="#mb803a7ef84" x="73.780774" y="307.584" style="stroke: #000000; stroke-width: 0.8"/>
      </g>
     </g>
     <g id="text_1">
      <!-- 0 -->
      <g transform="translate(70.599524 322.182437) scale(0.1 -0.1)">
       <defs>
        <path id="DejaVuSans-30" d="M 2034 4250 
Q 1547 4250 1301 3770 
Q 1056 3291 1056 2328 
Q 1056 1369 1301 889 
Q 1547 409 2034 409 
Q 2525 409 2770 889 
Q 3016 1369 3016 2328 
Q 3016 3291 2770 3770 
Q 2525 4250 2034 4250 
z
M 2034 4750 
Q 2819 4750 3233 4129 
Q 3647 3509 3647 2328 
Q 3647 1150 3233 529 
Q 2819 -91 2034 -91 
Q 1250 -91 836 529 
Q 422 1150 422 2328 
Q 422 3509 836 4129 
Q 1250 4750 2034 4750 
z
" transform="scale(0.015625)"/>
       </defs>
       <use xlink:href="#DejaVuSans-30"/>
      </g>
     </g>
    </g>
    <g id="xtick_2">
     <g id="line2d_2">
      <g>
       <use xlink:href="#mb803a7ef84" x="138.722074" y="307.584" style="stroke: #000000; stroke-width: 0.8"/>
      </g>
     </g>
     <g id="text_2">
      <!-- 10000 -->
      <g transform="translate(122.815824 322.182437) scale(0.1 -0.1)">
       <defs>
        <path id="DejaVuSans-31" d="M 794 531 
L 1825 531 
L 1825 4091 
L 703 3866 
L 703 4441 
L 1819 4666 
L 2450 4666 
L 2450 531 
L 3481 531 
L 3481 0 
L 794 0 
L 794 531 
z
" transform="scale(0.015625)"/>
       </defs>
       <use xlink:href="#DejaVuSans-31"/>
       <use xlink:href="#DejaVuSans-30" x="63.623047"/>
       <use xlink:href="#DejaVuSans-30" x="127.246094"/>
       <use xlink:href="#DejaVuSans-30" x="190.869141"/>
       <use xlink:href="#DejaVuSans-30" x="254.492188"/>
      </g>
     </g>
    </g>
    <g id="xtick_3">
     <g id="line2d_3">
      <g>
       <use xlink:href="#mb803a7ef84" x="203.663374" y="307.584" style="stroke: #000000; stroke-width: 0.8"/>
      </g>
     </g>
     <g id="text_3">
      <!-- 20000 -->
      <g transform="translate(187.757124 322.182437) scale(0.1 -0.1)">
       <defs>
        <path id="DejaVuSans-32" d="M 1228 531 
L 3431 531 
L 3431 0 
L 469 0 
L 469 531 
Q 828 903 1448 1529 
Q 2069 2156 2228 2338 
Q 2531 2678 2651 2914 
Q 2772 3150 2772 3378 
Q 2772 3750 2511 3984 
Q 2250 4219 1831 4219 
Q 1534 4219 1204 4116 
Q 875 4013 500 3803 
L 500 4441 
Q 881 4594 1212 4672 
Q 1544 4750 1819 4750 
Q 2544 4750 2975 4387 
Q 3406 4025 3406 3419 
Q 3406 3131 3298 2873 
Q 3191 2616 2906 2266 
Q 2828 2175 2409 1742 
Q 1991 1309 1228 531 
z
" transform="scale(0.015625)"/>
       </defs>
       <use xlink:href="#DejaVuSans-32"/>
       <use xlink:href="#DejaVuSans-30" x="63.623047"/>
       <use xlink:href="#DejaVuSans-30" x="127.246094"/>
       <use xlink:href="#DejaVuSans-30" x="190.869141"/>
       <use xlink:href="#DejaVuSans-30" x="254.492188"/>
      </g>
     </g>
    </g>
    <g id="xtick_4">
     <g id="line2d_4">
      <g>
       <use xlink:href="#mb803a7ef84" x="268.604673" y="307.584" style="stroke: #000000; stroke-width: 0.8"/>
      </g>
     </g>
     <g id="text_4">
      <!-- 30000 -->
      <g transform="translate(252.698423 322.182437) scale(0.1 -0.1)">
       <defs>
        <path id="DejaVuSans-33" d="M 2597 2516 
Q 3050 2419 3304 2112 
Q 3559 1806 3559 1356 
Q 3559 666 3084 287 
Q 2609 -91 1734 -91 
Q 1441 -91 1130 -33 
Q 819 25 488 141 
L 488 750 
Q 750 597 1062 519 
Q 1375 441 1716 441 
Q 2309 441 2620 675 
Q 2931 909 2931 1356 
Q 2931 1769 2642 2001 
Q 2353 2234 1838 2234 
L 1294 2234 
L 1294 2753 
L 1863 2753 
Q 2328 2753 2575 2939 
Q 2822 3125 2822 3475 
Q 2822 3834 2567 4026 
Q 2313 4219 1838 4219 
Q 1578 4219 1281 4162 
Q 984 4106 628 3988 
L 628 4550 
Q 988 4650 1302 4700 
Q 1616 4750 1894 4750 
Q 2613 4750 3031 4423 
Q 3450 4097 3450 3541 
Q 3450 3153 3228 2886 
Q 3006 2619 2597 2516 
z
" transform="scale(0.015625)"/>
       </defs>
       <use xlink:href="#DejaVuSans-33"/>
       <use xlink:href="#DejaVuSans-30" x="63.623047"/>
       <use xlink:href="#DejaVuSans-30" x="127.246094"/>
       <use xlink:href="#DejaVuSans-30" x="190.869141"/>
       <use xlink:href="#DejaVuSans-30" x="254.492188"/>
      </g>
     </g>
    </g>
    <g id="xtick_5">
     <g id="line2d_5">
      <g>
       <use xlink:href="#mb803a7ef84" x="333.545973" y="307.584" style="stroke: #000000; stroke-width: 0.8"/>
      </g>
     </g>
     <g id="text_5">
      <!-- 40000 -->
      <g transform="translate(317.639723 322.182437) scale(0.1 -0.1)">
       <defs>
        <path id="DejaVuSans-34" d="M 2419 4116 
L 825 1625 
L 2419 1625 
L 2419 4116 
z
M 2253 4666 
L 3047 4666 
L 3047 1625 
L 3713 1625 
L 3713 1100 
L 3047 1100 
L 3047 0 
L 2419 0 
L 2419 1100 
L 313 1100 
L 313 1709 
L 2253 4666 
z
" transform="scale(0.015625)"/>
       </defs>
       <use xlink:href="#DejaVuSans-34"/>
       <use xlink:href="#DejaVuSans-30" x="63.623047"/>
       <use xlink:href="#DejaVuSans-30" x="127.246094"/>
       <use xlink:href="#DejaVuSans-30" x="190.869141"/>
       <use xlink:href="#DejaVuSans-30" x="254.492188"/>
      </g>
     </g>
    </g>
    <g id="xtick_6">
     <g id="line2d_6">
      <g>
       <use xlink:href="#mb803a7ef84" x="398.487273" y="307.584" style="stroke: #000000; stroke-width: 0.8"/>
      </g>
     </g>
     <g id="text_6">
      <!-- 50000 -->
      <g transform="translate(382.581023 322.182437) scale(0.1 -0.1)">
       <defs>
        <path id="DejaVuSans-35" d="M 691 4666 
L 3169 4666 
L 3169 4134 
L 1269 4134 
L 1269 2991 
Q 1406 3038 1543 3061 
Q 1681 3084 1819 3084 
Q 2600 3084 3056 2656 
Q 3513 2228 3513 1497 
Q 3513 744 3044 326 
Q 2575 -91 1722 -91 
Q 1428 -91 1123 -41 
Q 819 9 494 109 
L 494 744 
Q 775 591 1075 516 
Q 1375 441 1709 441 
Q 2250 441 2565 725 
Q 2881 1009 2881 1497 
Q 2881 1984 2565 2268 
Q 2250 2553 1709 2553 
Q 1456 2553 1204 2497 
Q 953 2441 691 2322 
L 691 4666 
z
" transform="scale(0.015625)"/>
       </defs>
       <use xlink:href="#DejaVuSans-35"/>
       <use xlink:href="#DejaVuSans-30" x="63.623047"/>
       <use xlink:href="#DejaVuSans-30" x="127.246094"/>
       <use xlink:href="#DejaVuSans-30" x="190.869141"/>
       <use xlink:href="#DejaVuSans-30" x="254.492188"/>
      </g>
     </g>
    </g>
    <g id="text_7">
     <!-- timesteps -->
     <g transform="translate(211.443594 335.860562) scale(0.1 -0.1)">
      <defs>
       <path id="DejaVuSans-74" d="M 1172 4494 
L 1172 3500 
L 2356 3500 
L 2356 3053 
L 1172 3053 
L 1172 1153 
Q 1172 725 1289 603 
Q 1406 481 1766 481 
L 2356 481 
L 2356 0 
L 1766 0 
Q 1100 0 847 248 
Q 594 497 594 1153 
L 594 3053 
L 172 3053 
L 172 3500 
L 594 3500 
L 594 4494 
L 1172 4494 
z
" transform="scale(0.015625)"/>
       <path id="DejaVuSans-69" d="M 603 3500 
L 1178 3500 
L 1178 0 
L 603 0 
L 603 3500 
z
M 603 4863 
L 1178 4863 
L 1178 4134 
L 603 4134 
L 603 4863 
z
" transform="scale(0.015625)"/>
       <path id="DejaVuSans-6d" d="M 3328 2828 
Q 3544 3216 3844 3400 
Q 4144 3584 4550 3584 
Q 5097 3584 5394 3201 
Q 5691 2819 5691 2113 
L 5691 0 
L 5113 0 
L 5113 2094 
Q 5113 2597 4934 2840 
Q 4756 3084 4391 3084 
Q 3944 3084 3684 2787 
Q 3425 2491 3425 1978 
L 3425 0 
L 2847 0 
L 2847 2094 
Q 2847 2600 2669 2842 
Q 2491 3084 2119 3084 
Q 1678 3084 1418 2786 
Q 1159 2488 1159 1978 
L 1159 0 
L 581 0 
L 581 3500 
L 1159 3500 
L 1159 2956 
Q 1356 3278 1631 3431 
Q 1906 3584 2284 3584 
Q 2666 3584 2933 3390 
Q 3200 3197 3328 2828 
z
" transform="scale(0.015625)"/>
       <path id="DejaVuSans-65" d="M 3597 1894 
L 3597 1613 
L 953 1613 
Q 991 1019 1311 708 
Q 1631 397 2203 397 
Q 2534 397 2845 478 
Q 3156 559 3463 722 
L 3463 178 
Q 3153 47 2828 -22 
Q 2503 -91 2169 -91 
Q 1331 -91 842 396 
Q 353 884 353 1716 
Q 353 2575 817 3079 
Q 1281 3584 2069 3584 
Q 2775 3584 3186 3129 
Q 3597 2675 3597 1894 
z
M 3022 2063 
Q 3016 2534 2758 2815 
Q 2500 3097 2075 3097 
Q 1594 3097 1305 2825 
Q 1016 2553 972 2059 
L 3022 2063 
z
" transform="scale(0.015625)"/>
       <path id="DejaVuSans-73" d="M 2834 3397 
L 2834 2853 
Q 2591 2978 2328 3040 
Q 2066 3103 1784 3103 
Q 1356 3103 1142 2972 
Q 928 2841 928 2578 
Q 928 2378 1081 2264 
Q 1234 2150 1697 2047 
L 1894 2003 
Q 2506 1872 2764 1633 
Q 3022 1394 3022 966 
Q 3022 478 2636 193 
Q 2250 -91 1575 -91 
Q 1294 -91 989 -36 
Q 684 19 347 128 
L 347 722 
Q 666 556 975 473 
Q 1284 391 1588 391 
Q 1994 391 2212 530 
Q 2431 669 2431 922 
Q 2431 1156 2273 1281 
Q 2116 1406 1581 1522 
L 1381 1569 
Q 847 1681 609 1914 
Q 372 2147 372 2553 
Q 372 3047 722 3315 
Q 1072 3584 1716 3584 
Q 2034 3584 2315 3537 
Q 2597 3491 2834 3397 
z
" transform="scale(0.015625)"/>
       <path id="DejaVuSans-70" d="M 1159 525 
L 1159 -1331 
L 581 -1331 
L 581 3500 
L 1159 3500 
L 1159 2969 
Q 1341 3281 1617 3432 
Q 1894 3584 2278 3584 
Q 2916 3584 3314 3078 
Q 3713 2572 3713 1747 
Q 3713 922 3314 415 
Q 2916 -91 2278 -91 
Q 1894 -91 1617 61 
Q 1341 213 1159 525 
z
M 3116 1747 
Q 3116 2381 2855 2742 
Q 2594 3103 2138 3103 
Q 1681 3103 1420 2742 
Q 1159 2381 1159 1747 
Q 1159 1113 1420 752 
Q 1681 391 2138 391 
Q 2594 391 2855 752 
Q 3116 1113 3116 1747 
z
" transform="scale(0.015625)"/>
      </defs>
      <use xlink:href="#DejaVuSans-74"/>
      <use xlink:href="#DejaVuSans-69" x="39.208984"/>
      <use xlink:href="#DejaVuSans-6d" x="66.992188"/>
      <use xlink:href="#DejaVuSans-65" x="164.404297"/>
      <use xlink:href="#DejaVuSans-73" x="225.927734"/>
      <use xlink:href="#DejaVuSans-74" x="278.027344"/>
      <use xlink:href="#DejaVuSans-65" x="317.236328"/>
      <use xlink:href="#DejaVuSans-70" x="378.759766"/>
      <use xlink:href="#DejaVuSans-73" x="442.236328"/>
     </g>
    </g>
   </g>
   <g id="matplotlib.axis_2">
    <g id="ytick_1">
     <g id="line2d_7">
      <defs>
       <path id="m7c319defd2" d="M 0 0 
L -3.5 0 
" style="stroke: #000000; stroke-width: 0.8"/>
      </defs>
      <g>
       <use xlink:href="#m7c319defd2" x="57.6" y="298.036721" style="stroke: #000000; stroke-width: 0.8"/>
      </g>
     </g>
     <g id="text_8">
      <!-- 0 -->
      <g transform="translate(44.2375 301.83594) scale(0.1 -0.1)">
       <use xlink:href="#DejaVuSans-30"/>
      </g>
     </g>
    </g>
    <g id="ytick_2">
     <g id="line2d_8">
      <g>
       <use xlink:href="#m7c319defd2" x="57.6" y="252.397553" style="stroke: #000000; stroke-width: 0.8"/>
      </g>
     </g>
     <g id="text_9">
      <!-- 50 -->
      <g transform="translate(37.875 256.196772) scale(0.1 -0.1)">
       <use xlink:href="#DejaVuSans-35"/>
       <use xlink:href="#DejaVuSans-30" x="63.623047"/>
      </g>
     </g>
    </g>
    <g id="ytick_3">
     <g id="line2d_9">
      <g>
       <use xlink:href="#m7c319defd2" x="57.6" y="206.758386" style="stroke: #000000; stroke-width: 0.8"/>
      </g>
     </g>
     <g id="text_10">
      <!-- 100 -->
      <g transform="translate(31.5125 210.557604) scale(0.1 -0.1)">
       <use xlink:href="#DejaVuSans-31"/>
       <use xlink:href="#DejaVuSans-30" x="63.623047"/>
       <use xlink:href="#DejaVuSans-30" x="127.246094"/>
      </g>
     </g>
    </g>
    <g id="ytick_4">
     <g id="line2d_10">
      <g>
       <use xlink:href="#m7c319defd2" x="57.6" y="161.119218" style="stroke: #000000; stroke-width: 0.8"/>
      </g>
     </g>
     <g id="text_11">
      <!-- 150 -->
      <g transform="translate(31.5125 164.918437) scale(0.1 -0.1)">
       <use xlink:href="#DejaVuSans-31"/>
       <use xlink:href="#DejaVuSans-35" x="63.623047"/>
       <use xlink:href="#DejaVuSans-30" x="127.246094"/>
      </g>
     </g>
    </g>
    <g id="ytick_5">
     <g id="line2d_11">
      <g>
       <use xlink:href="#m7c319defd2" x="57.6" y="115.48005" style="stroke: #000000; stroke-width: 0.8"/>
      </g>
     </g>
     <g id="text_12">
      <!-- 200 -->
      <g transform="translate(31.5125 119.279269) scale(0.1 -0.1)">
       <use xlink:href="#DejaVuSans-32"/>
       <use xlink:href="#DejaVuSans-30" x="63.623047"/>
       <use xlink:href="#DejaVuSans-30" x="127.246094"/>
      </g>
     </g>
    </g>
    <g id="ytick_6">
     <g id="line2d_12">
      <g>
       <use xlink:href="#m7c319defd2" x="57.6" y="69.840883" style="stroke: #000000; stroke-width: 0.8"/>
      </g>
     </g>
     <g id="text_13">
      <!-- 250 -->
      <g transform="translate(31.5125 73.640101) scale(0.1 -0.1)">
       <use xlink:href="#DejaVuSans-32"/>
       <use xlink:href="#DejaVuSans-35" x="63.623047"/>
       <use xlink:href="#DejaVuSans-30" x="127.246094"/>
      </g>
     </g>
    </g>
    <g id="text_14">
     <!-- mean episode rewards -->
     <g transform="translate(25.432812 231.360031) rotate(-90) scale(0.1 -0.1)">
      <defs>
       <path id="DejaVuSans-61" d="M 2194 1759 
Q 1497 1759 1228 1600 
Q 959 1441 959 1056 
Q 959 750 1161 570 
Q 1363 391 1709 391 
Q 2188 391 2477 730 
Q 2766 1069 2766 1631 
L 2766 1759 
L 2194 1759 
z
M 3341 1997 
L 3341 0 
L 2766 0 
L 2766 531 
Q 2569 213 2275 61 
Q 1981 -91 1556 -91 
Q 1019 -91 701 211 
Q 384 513 384 1019 
Q 384 1609 779 1909 
Q 1175 2209 1959 2209 
L 2766 2209 
L 2766 2266 
Q 2766 2663 2505 2880 
Q 2244 3097 1772 3097 
Q 1472 3097 1187 3025 
Q 903 2953 641 2809 
L 641 3341 
Q 956 3463 1253 3523 
Q 1550 3584 1831 3584 
Q 2591 3584 2966 3190 
Q 3341 2797 3341 1997 
z
" transform="scale(0.015625)"/>
       <path id="DejaVuSans-6e" d="M 3513 2113 
L 3513 0 
L 2938 0 
L 2938 2094 
Q 2938 2591 2744 2837 
Q 2550 3084 2163 3084 
Q 1697 3084 1428 2787 
Q 1159 2491 1159 1978 
L 1159 0 
L 581 0 
L 581 3500 
L 1159 3500 
L 1159 2956 
Q 1366 3272 1645 3428 
Q 1925 3584 2291 3584 
Q 2894 3584 3203 3211 
Q 3513 2838 3513 2113 
z
" transform="scale(0.015625)"/>
       <path id="DejaVuSans-20" transform="scale(0.015625)"/>
       <path id="DejaVuSans-6f" d="M 1959 3097 
Q 1497 3097 1228 2736 
Q 959 2375 959 1747 
Q 959 1119 1226 758 
Q 1494 397 1959 397 
Q 2419 397 2687 759 
Q 2956 1122 2956 1747 
Q 2956 2369 2687 2733 
Q 2419 3097 1959 3097 
z
M 1959 3584 
Q 2709 3584 3137 3096 
Q 3566 2609 3566 1747 
Q 3566 888 3137 398 
Q 2709 -91 1959 -91 
Q 1206 -91 779 398 
Q 353 888 353 1747 
Q 353 2609 779 3096 
Q 1206 3584 1959 3584 
z
" transform="scale(0.015625)"/>
       <path id="DejaVuSans-64" d="M 2906 2969 
L 2906 4863 
L 3481 4863 
L 3481 0 
L 2906 0 
L 2906 525 
Q 2725 213 2448 61 
Q 2172 -91 1784 -91 
Q 1150 -91 751 415 
Q 353 922 353 1747 
Q 353 2572 751 3078 
Q 1150 3584 1784 3584 
Q 2172 3584 2448 3432 
Q 2725 3281 2906 2969 
z
M 947 1747 
Q 947 1113 1208 752 
Q 1469 391 1925 391 
Q 2381 391 2643 752 
Q 2906 1113 2906 1747 
Q 2906 2381 2643 2742 
Q 2381 3103 1925 3103 
Q 1469 3103 1208 2742 
Q 947 2381 947 1747 
z
" transform="scale(0.015625)"/>
       <path id="DejaVuSans-72" d="M 2631 2963 
Q 2534 3019 2420 3045 
Q 2306 3072 2169 3072 
Q 1681 3072 1420 2755 
Q 1159 2438 1159 1844 
L 1159 0 
L 581 0 
L 581 3500 
L 1159 3500 
L 1159 2956 
Q 1341 3275 1631 3429 
Q 1922 3584 2338 3584 
Q 2397 3584 2469 3576 
Q 2541 3569 2628 3553 
L 2631 2963 
z
" transform="scale(0.015625)"/>
       <path id="DejaVuSans-77" d="M 269 3500 
L 844 3500 
L 1563 769 
L 2278 3500 
L 2956 3500 
L 3675 769 
L 4391 3500 
L 4966 3500 
L 4050 0 
L 3372 0 
L 2619 2869 
L 1863 0 
L 1184 0 
L 269 3500 
z
" transform="scale(0.015625)"/>
      </defs>
      <use xlink:href="#DejaVuSans-6d"/>
      <use xlink:href="#DejaVuSans-65" x="97.412109"/>
      <use xlink:href="#DejaVuSans-61" x="158.935547"/>
      <use xlink:href="#DejaVuSans-6e" x="220.214844"/>
      <use xlink:href="#DejaVuSans-20" x="283.59375"/>
      <use xlink:href="#DejaVuSans-65" x="315.380859"/>
      <use xlink:href="#DejaVuSans-70" x="376.904297"/>
      <use xlink:href="#DejaVuSans-69" x="440.380859"/>
      <use xlink:href="#DejaVuSans-73" x="468.164062"/>
      <use xlink:href="#DejaVuSans-6f" x="520.263672"/>
      <use xlink:href="#DejaVuSans-64" x="581.445312"/>
      <use xlink:href="#DejaVuSans-65" x="644.921875"/>
      <use xlink:href="#DejaVuSans-20" x="706.445312"/>
      <use xlink:href="#DejaVuSans-72" x="738.232422"/>
      <use xlink:href="#DejaVuSans-65" x="777.095703"/>
      <use xlink:href="#DejaVuSans-77" x="838.619141"/>
      <use xlink:href="#DejaVuSans-61" x="920.40625"/>
      <use xlink:href="#DejaVuSans-72" x="981.685547"/>
      <use xlink:href="#DejaVuSans-64" x="1021.048828"/>
      <use xlink:href="#DejaVuSans-73" x="1084.525391"/>
     </g>
    </g>
   </g>
   <g id="line2d_13">
    <path d="M 73.832727 293.187621 
L 73.904163 291.447955 
L 73.975598 292.007975 
L 74.047034 292.132918 
L 74.131457 290.437978 
L 74.228869 283.498529 
L 74.339269 284.383844 
L 74.44967 291.460614 
L 74.579552 279.168764 
L 74.709435 286.969471 
L 74.845812 287.332206 
L 74.982188 285.609618 
L 75.144542 290.748202 
L 75.222471 290.768154 
L 75.384824 285.59842 
L 75.579648 269.307228 
L 75.774472 283.281057 
L 75.969296 262.838693 
L 76.170614 291.076471 
L 76.38492 273.576124 
L 76.495321 290.015148 
L 76.631697 281.806461 
L 76.748592 292.695307 
L 76.975886 257.433914 
L 77.320075 287.324921 
L 77.436969 283.633954 
L 77.592829 274.520462 
L 77.937017 290.164835 
L 78.0669 278.189 
L 78.164312 293.084726 
L 78.248736 291.570676 
L 78.560454 287.689577 
L 78.670854 292.129934 
L 78.800737 280.403344 
L 78.878666 288.887318 
L 79.099467 254.201067 
L 79.18389 287.488462 
L 79.339749 269.715243 
L 79.456644 293.076502 
L 79.625491 275.063735 
L 79.904739 290.804318 
L 80.307375 232.464537 
L 80.430763 290.693038 
L 80.64507 276.20677 
L 80.703517 292.705635 
L 80.982764 285.242016 
L 81.197071 294.619233 
L 81.54126 217.155823 
L 81.697119 289.504716 
L 81.775048 288.078373 
L 81.930907 291.505926 
L 82.197167 285.660053 
L 82.372508 286.319403 
L 82.443944 291.651575 
L 82.671238 281.556567 
L 82.827097 295.447971 
L 82.976462 286.087991 
L 83.060886 290.43383 
L 83.210251 290.103034 
L 83.392087 265.979092 
L 83.651852 289.380764 
L 83.801217 272.244908 
L 83.88564 289.318551 
L 83.989547 283.777458 
L 84.067476 290.954409 
L 84.158394 289.259312 
L 84.210347 293.659897 
L 84.294771 288.621623 
L 84.411665 290.26352 
L 84.599995 277.852633 
L 84.716889 289.106963 
L 84.989643 284.633111 
L 85.08056 292.171948 
L 85.15849 289.865079 
L 85.502679 249.137573 
L 85.587103 293.67741 
L 85.879338 271.618611 
L 86.158586 285.013812 
L 86.314445 291.81652 
L 86.476798 289.06819 
L 86.567716 292.902681 
L 86.639152 290.089283 
L 86.788517 275.914716 
L 86.879434 293.243532 
L 87.035294 286.47348 
L 87.295059 291.997236 
L 87.502871 287.957255 
L 87.606777 288.369325 
L 87.671718 293.372218 
L 87.912001 253.390823 
L 88.041884 286.052499 
L 88.210731 268.633046 
L 88.353602 283.353592 
L 88.535438 286.034837 
L 88.678308 279.263258 
L 88.860144 291.231057 
L 88.990027 278.466911 
L 89.113415 286.009555 
L 89.230309 279.994206 
L 89.37318 290.639717 
L 89.509557 280.25057 
L 89.710875 289.115751 
L 89.827769 287.808045 
L 90.022593 269.710826 
L 90.230405 271.93111 
L 90.295347 292.265545 
L 90.405747 289.424102 
L 90.483677 289.875919 
L 90.613559 289.613492 
L 90.730453 288.194676 
L 90.931771 276.452896 
L 91.146078 271.209778 
L 91.236996 288.385313 
L 91.444808 286.888276 
L 91.54222 289.25112 
L 91.866926 222.866201 
L 91.944856 291.922622 
L 92.444904 235.758471 
L 92.542316 291.428526 
L 92.639728 288.082291 
L 92.782599 287.079637 
L 93.120293 255.284737 
L 93.328105 288.09821 
L 93.386553 292.160021 
L 93.568388 286.694926 
L 93.85413 253.399723 
L 94.055448 287.680058 
L 94.113895 292.40736 
L 94.237284 281.186611 
L 94.308719 290.228737 
L 94.67239 281.83103 
L 95.133474 163.651909 
L 95.230886 292.969089 
L 95.34778 282.934759 
L 95.549098 283.194947 
L 95.743922 292.630929 
L 95.854322 290.346164 
L 96.308911 260.22091 
L 96.523217 287.140569 
L 96.685571 287.99185 
L 96.8739 283.674752 
L 97.036254 290.039033 
L 97.114183 290.076898 
L 97.32849 270.84546 
L 97.43889 286.98591 
L 97.594749 275.206866 
L 97.672678 291.129902 
L 98.016867 232.378425 
L 98.179221 291.845228 
L 98.33508 279.010809 
L 98.413009 289.406337 
L 98.510421 286.740258 
L 98.763692 256.731284 
L 98.952022 289.535812 
L 99.04294 289.297998 
L 99.250752 259.195279 
L 99.315693 291.648559 
L 99.504023 276.617516 
L 99.620917 292.038796 
L 99.893671 275.999772 
L 99.9716 290.826195 
L 100.082001 289.971856 
L 100.198895 287.733851 
L 100.380731 287.442404 
L 101.147038 165.165349 
L 101.24445 289.202381 
L 101.335368 287.957433 
L 101.43278 287.805929 
L 101.491227 293.435389 
L 101.913345 271.262564 
L 102.049722 278.676455 
L 102.134146 292.653467 
L 102.400405 245.324538 
L 102.47184 291.044316 
L 102.569252 283.768366 
L 102.640688 292.903939 
L 102.731606 291.675049 
L 102.906947 292.443123 
L 103.413489 212.952013 
L 103.491419 291.22105 
L 103.614807 284.175115 
L 103.699231 293.145408 
L 103.777161 293.028611 
L 104.127844 240.383831 
L 104.270714 294.358197 
L 104.510997 288.26367 
L 104.666856 280.431619 
L 104.738292 290.003022 
L 104.86168 281.441808 
L 104.985069 287.083726 
L 105.166904 288.771749 
L 105.257822 292.913851 
L 105.355234 290.001921 
L 105.556552 267.689746 
L 105.64747 289.957601 
L 105.952694 280.949015 
L 106.076083 288.078243 
L 106.218953 284.875135 
L 106.374813 292.421405 
L 106.498201 291.125647 
L 106.550154 292.964571 
L 106.680037 279.266783 
L 107.082673 207.192122 
L 107.160602 290.225851 
L 107.316461 285.582851 
L 107.459332 291.625405 
L 107.686627 260.652169 
L 107.952886 287.937411 
L 108.128228 291.321946 
L 108.394487 274.514351 
L 108.647758 266.454067 
L 108.907523 294.405862 
L 109.427054 224.057556 
L 109.543948 283.326321 
L 109.719289 295.488 
L 109.842678 289.692491 
L 109.979055 289.890615 
L 110.056984 291.276566 
L 110.225832 279.364206 
L 110.34922 287.913272 
L 110.505079 282.709537 
L 110.595997 285.843979 
L 110.732374 279.369995 
L 110.803809 292.550196 
L 110.914209 292.380614 
L 111.011621 289.042046 
L 111.076563 292.605639 
L 111.277881 285.857331 
L 111.349316 290.182648 
L 111.596093 267.556751 
L 111.719482 283.888006 
L 111.855858 283.676212 
L 112.109129 292.28805 
L 112.21953 283.308645 
L 112.381883 292.134574 
L 112.531248 282.323384 
L 113.14819 181.409607 
L 113.433932 290.374648 
L 113.531344 286.36832 
L 113.836568 233.330331 
L 114.018404 291.568662 
L 114.12231 283.285021 
L 114.193745 289.710262 
L 114.297651 282.872775 
L 114.395063 291.063004 
L 114.479487 287.452778 
L 114.53144 293.287355 
L 114.706781 288.406821 
L 114.888617 264.144124 
L 115.0185 292.938985 
L 115.096429 291.521034 
L 115.187347 288.746575 
L 115.343206 290.339425 
L 115.564006 290.615765 
L 115.739348 289.054846 
L 115.960148 261.296773 
L 116.103019 288.479799 
L 116.453702 212.287544 
L 116.577091 284.93405 
L 116.934268 263.634838 
L 117.148574 290.338602 
L 117.245986 287.569467 
L 117.317422 293.379507 
L 117.408339 284.393626 
L 117.505751 289.229614 
L 117.752528 267.07865 
L 118.03827 286.276485 
L 118.161658 286.766037 
L 118.356482 265.772093 
L 118.434412 291.303378 
L 118.596765 291.163538 
L 118.700671 287.834287 
L 119.109801 193.112682 
L 119.285143 270.25815 
L 119.687779 290.379753 
L 119.980015 285.754468 
L 120.103403 282.220231 
L 120.181333 288.841053 
L 120.298227 286.945387 
L 120.467075 290.229671 
L 120.564487 285.268949 
L 120.642416 289.614468 
L 120.72684 289.477369 
L 120.817758 286.636522 
L 121.019076 291.953696 
L 121.142464 289.774215 
L 121.207405 291.545565 
L 121.415218 277.138373 
L 121.577571 290.15627 
L 121.681477 284.627462 
L 121.869807 290.783202 
L 122.071125 273.256117 
L 122.272443 286.748551 
L 122.545196 279.525564 
L 122.785479 288.02165 
L 122.895879 285.003215 
L 123.025762 293.643589 
L 123.175127 275.310102 
L 123.240068 290.927186 
L 123.350468 289.372159 
L 123.538798 266.068054 
L 123.720634 271.451775 
L 123.947928 267.27469 
L 124.038846 289.915137 
L 124.324588 234.842177 
L 124.409011 288.58073 
L 124.649294 263.173122 
L 124.740212 289.767461 
L 124.967507 246.866775 
L 125.233766 288.443837 
L 125.337672 292.188386 
L 125.441578 290.954149 
L 125.584449 274.219524 
L 125.766285 288.86083 
L 126.02605 274.585555 
L 126.220874 291.862029 
L 126.376733 286.438427 
L 126.441674 291.759708 
L 126.519604 291.221323 
L 126.591039 290.85104 
L 126.837816 261.316679 
L 127.006663 269.83001 
L 127.123558 291.218065 
L 127.33137 273.172389 
L 127.766477 291.011735 
L 127.896359 284.238122 
L 128.045724 291.664167 
L 128.143136 285.698296 
L 128.273019 286.703757 
L 128.357442 290.626203 
L 128.565255 270.170376 
L 128.974385 249.337821 
L 129.260127 288.523626 
L 129.34455 292.379535 
L 129.83161 256.619347 
L 129.974481 292.89979 
L 130.084881 289.27064 
L 130.357635 246.200238 
L 130.474529 288.720097 
L 130.623894 274.564826 
L 130.812224 291.114624 
L 130.961589 276.861245 
L 131.117448 281.66224 
L 131.21486 288.387058 
L 131.357731 282.014876 
L 131.533072 268.202689 
L 131.630484 290.693947 
L 131.773355 290.096255 
L 131.987661 273.258478 
L 132.286391 290.090985 
L 132.40978 287.276881 
L 132.52018 288.672977 
L 132.669545 274.489453 
L 132.760463 290.036565 
L 132.935804 279.07445 
L 133.052698 290.114489 
L 133.189075 288.873019 
L 133.552746 254.776742 
L 133.663147 285.877468 
L 133.8255 272.859123 
L 133.903429 288.719152 
L 134.072277 280.995122 
L 134.383995 237.383527 
L 134.64376 291.413541 
L 134.91002 249.256668 
L 135.033408 291.612284 
L 135.137314 289.675001 
L 135.325644 277.144038 
L 135.533456 289.028648 
L 135.715292 279.995178 
L 135.793221 292.744404 
L 135.923104 289.241438 
L 136.007528 289.76535 
L 136.156893 292.695004 
L 136.397175 245.102947 
L 136.507576 290.176715 
L 136.637458 293.089617 
L 136.877741 287.756782 
L 137.092047 289.357467 
L 137.195953 285.573023 
L 137.280377 289.344543 
L 137.475201 272.005942 
L 137.533648 293.059767 
L 137.63106 289.949823 
L 137.683013 293.252713 
L 137.74146 292.620281 
L 137.806402 291.875937 
L 137.871343 292.569687 
L 138.157085 275.873282 
L 138.254497 287.681425 
L 139.12471 68.292218 
L 139.332522 291.584222 
L 139.442922 285.660696 
L 139.579299 291.115892 
L 139.813088 283.704037 
L 139.897511 291.465874 
L 140.027394 277.380511 
L 140.098829 290.056589 
L 140.2417 283.514728 
L 140.326124 293.648358 
L 140.423536 284.494173 
L 140.54043 284.141161 
L 140.663819 287.854412 
L 140.988525 273.430713 
L 141.092431 290.65227 
L 141.176855 286.682715 
L 141.300244 286.601976 
L 141.410644 289.882543 
L 141.592479 274.165038 
L 141.696385 289.29532 
L 141.949657 267.501067 
L 142.30034 205.160467 
L 142.371775 289.541487 
L 142.488669 289.489161 
L 142.547116 292.403163 
L 142.93027 269.534139 
L 143.053659 280.809566 
L 143.391353 257.693862 
L 143.748531 292.701407 
L 143.832954 290.517624 
L 143.943354 292.48259 
L 144.164155 282.108182 
L 144.216108 292.764399 
L 144.605756 213.706949 
L 144.677191 289.882293 
L 144.917474 278.479264 
L 145.118792 294.731368 
L 145.391545 267.668366 
L 145.482463 292.468705 
L 145.599358 286.621759 
L 145.690275 289.323132 
L 145.813664 288.730266 
L 145.969523 290.419887 
L 146.203312 283.098489 
L 146.424112 263.562665 
L 146.495548 294.884781 
L 146.612442 290.393375 
L 146.781289 289.137883 
L 146.963125 267.671511 
L 147.03456 289.806075 
L 147.339784 261.509463 
L 147.580067 285.296436 
L 147.800868 259.50948 
L 147.982703 273.424216 
L 148.515222 211.086175 
L 148.619128 289.699917 
L 148.79447 281.788872 
L 148.917858 286.445898 
L 149.262047 264.795671 
L 149.391929 287.233216 
L 149.827036 213.681039 
L 150.034848 289.768893 
L 150.145249 281.5197 
L 150.262143 289.746226 
L 150.418002 271.891802 
L 150.528402 286.098474 
L 150.664779 284.64622 
L 150.866097 293.149624 
L 151.034944 285.748393 
L 151.476545 238.581628 
L 151.781769 222.360163 
L 151.866193 286.685126 
L 152.132452 231.998598 
L 152.288311 271.21639 
L 152.444171 277.353476 
L 152.71043 272.986245 
L 152.853301 277.848053 
L 153.19749 264.786756 
L 153.411796 269.789462 
L 153.658573 279.894444 
L 153.853397 261.760745 
L 154.048221 284.077231 
L 154.418386 220.992211 
L 154.736598 273.683736 
L 155.106764 218.095557 
L 155.483423 200.272006 
L 155.853589 202.58581 
L 156.035424 252.329305 
L 156.288696 236.402285 
L 156.451049 257.705332 
L 156.853685 210.341042 
L 157.392698 271.73264 
L 157.652463 232.471648 
L 157.892746 241.253155 
L 157.990158 286.953833 
L 158.249923 235.683012 
L 158.522676 233.635839 
L 158.7175 251.454867 
L 158.970771 238.68229 
L 159.185077 246.470179 
L 159.412372 243.841478 
L 159.782537 254.927235 
L 160.029314 248.779572 
L 160.237127 247.621953 
L 160.542351 233.610893 
L 160.782633 238.956006 
L 161.139811 226.392852 
L 161.360611 245.695129 
L 162.048989 180.532048 
L 162.250307 250.25812 
L 162.458119 247.693588 
L 162.63346 254.966174 
L 162.795814 256.880223 
L 163.023108 244.447594 
L 163.191956 256.650667 
L 163.562121 252.186356 
L 163.893322 231.22883 
L 164.133605 243.934997 
L 164.354405 243.31579 
L 164.529746 254.543985 
L 164.841465 234.302956 
L 165.081747 241.747678 
L 165.270077 251.839254 
L 165.575301 241.198651 
L 165.737655 257.453145 
L 166.237703 207.41936 
L 166.575397 225.176314 
L 166.770221 251.292428 
L 166.939069 255.649901 
L 167.107916 256.139114 
L 167.289752 253.910371 
L 167.861235 206.671434 
L 168.043071 253.024145 
L 168.71846 196.589094 
L 168.880814 257.458027 
L 169.09512 245.2523 
L 169.458791 255.999595 
L 169.906886 241.657489 
L 170.082228 254.873302 
L 170.251075 256.295814 
L 170.445899 251.092374 
L 170.640723 251.074289 
L 170.816064 255.001414 
L 170.991406 254.499963 
L 171.179736 250.707489 
L 171.348583 255.767655 
L 171.699266 255.039452 
L 171.89409 250.467861 
L 172.049949 258.881793 
L 172.244773 251.240129 
L 172.439597 251.385593 
L 172.595456 259.572414 
L 172.933151 254.338646 
L 173.101998 256.444789 
L 173.283834 253.521363 
L 173.524116 251.828132 
L 173.861811 256.756785 
L 174.024164 257.450896 
L 174.173529 260.505133 
L 174.342377 255.856144 
L 174.511224 255.93479 
L 174.654095 261.593356 
L 174.80346 259.229076 
L 175.050237 243.354864 
L 175.199602 260.184357 
L 175.342473 262.35026 
L 175.504826 257.099656 
L 175.816544 258.818086 
L 175.972403 258.666111 
L 176.128263 258.813295 
L 176.277628 260.238917 
L 176.433487 258.783307 
L 176.608828 254.994358 
L 176.764687 259.04304 
L 176.940029 254.936692 
L 177.089394 260.108765 
L 177.264735 255.123919 
L 177.427089 257.1722 
L 177.569959 261.11118 
L 177.745301 254.783578 
L 177.914148 256.401528 
L 178.063513 260.370518 
L 178.245349 253.717824 
L 178.414196 256.262018 
L 178.557067 261.912431 
L 178.764879 243.84293 
L 178.920738 258.879 
L 179.09608 252.468422 
L 179.258433 256.783756 
L 179.713022 230.11297 
L 179.888364 253.566507 
L 180.050717 257.290063 
L 180.258529 243.407249 
L 180.453353 249.40718 
L 180.641683 247.556287 
L 181.063801 239.341566 
L 181.258625 246.775702 
L 181.414484 257.704388 
L 181.823615 240.495638 
L 181.979474 257.694322 
L 182.213262 233.727223 
L 182.401592 247.847202 
L 182.635381 232.719587 
L 182.895146 227.542207 
L 183.154911 228.389973 
L 183.395194 232.980707 
L 184.148513 227.153188 
L 184.440749 216.135309 
L 184.80442 194.69992 
L 185.10315 217.758384 
L 185.466821 195.511914 
L 185.77854 211.721457 
L 186.018823 232.022029 
L 186.525365 152.680372 
L 187.077366 138.98968 
L 187.635861 137.844055 
L 188.148897 151.398997 
L 188.694404 141.587571 
L 189.226923 146.111161 
L 189.791912 136.448601 
L 190.324431 145.301696 
L 190.681608 197.727353 
L 191.175162 158.329332 
L 191.67521 155.821077 
L 192.19474 147.736737 
L 192.5714 193.946326 
L 193.064954 156.477833 
L 193.57799 150.122068 
L 194.104014 145.276631 
L 194.669004 129.878742 
L 194.837851 254.096546 
L 195.350887 150.755804 
L 195.565194 238.808369 
L 195.766512 244.729397 
L 196.019783 230.034398 
L 196.253571 234.38596 
L 196.493854 232.860325 
L 196.89649 245.991941 
L 197.38355 160.761608 
L 197.539409 257.200231 
L 197.688774 258.833005 
L 197.98101 218.581468 
L 198.130375 259.368411 
L 198.286234 257.247325 
L 198.584964 216.803515 
L 198.773294 248.747959 
L 198.955129 249.6229 
L 199.17593 238.268142 
L 199.403224 236.232265 
L 199.747413 202.74338 
L 199.99419 230.53542 
L 200.253955 228.158747 
L 200.487744 234.259006 
L 200.838427 202.736945 
L 201.234569 192.035327 
L 201.578758 206.813609 
L 201.741111 255.985398 
L 202.202194 169.261428 
L 202.676266 164.598776 
L 203.046431 197.958652 
L 203.514009 167.501198 
L 203.68935 251.269892 
L 203.858198 253.580995 
L 204.053021 246.270428 
L 204.494622 176.892333 
L 204.702434 243.318526 
L 204.890764 248.007777 
L 205.079094 248.345475 
L 205.540177 171.61692 
L 206.07919 134.822778 
L 206.592226 151.354499 
L 207.105263 151.936188 
L 207.618299 151.265138 
L 208.131335 152.908166 
L 208.644371 150.264152 
L 209.144419 156.429392 
L 209.650961 152.603168 
L 210.144515 159.531906 
L 210.651057 152.063823 
L 211.1576 153.332583 
L 211.690118 145.767599 
L 212.203155 152.488012 
L 212.742167 142.406201 
L 213.268192 146.494375 
L 213.800711 146.255445 
L 214.294264 158.721519 
L 214.826783 144.85006 
L 215.839867 156.787395 
L 216.365892 147.332839 
L 216.904905 144.380743 
L 217.112717 241.187159 
L 217.359494 231.142398 
L 217.911495 140.675226 
L 218.431025 149.4514 
L 218.911591 163.681036 
L 219.470086 137.458541 
L 219.970134 156.83496 
L 220.496159 148.214606 
L 220.996207 156.979755 
L 221.548208 140.401236 
L 222.061244 152.343299 
L 222.567786 154.442637 
L 223.100305 146.55262 
L 223.639317 143.87224 
L 224.152354 151.9908 
L 224.671884 149.414268 
L 225.191414 149.596624 
L 225.736921 142.811422 
L 226.262946 148.209997 
L 226.808453 142.936491 
L 227.35396 142.642858 
L 227.899467 141.893764 
L 228.431985 146.356499 
L 228.964504 145.264609 
L 229.503517 143.320016 
L 230.029541 147.667502 
L 230.56206 146.673974 
L 231.114061 140.113362 
L 231.328367 240.076012 
L 231.86738 143.212462 
L 232.425875 137.824987 
L 232.977876 140.311263 
L 233.536371 138.764898 
L 234.062396 147.666863 
L 234.575432 153.192334 
L 235.107951 138.35148 
L 235.659952 140.96582 
L 236.211953 139.975048 
L 236.484706 223.735335 
L 237.023719 143.714356 
L 237.179578 256.98529 
L 237.341932 254.000005 
L 237.880944 144.052205 
L 238.393981 152.294748 
L 238.907017 151.469364 
L 239.44603 144.275599 
L 239.972054 150.260428 
L 240.517561 143.455783 
L 241.05008 145.078192 
L 241.595587 145.061287 
L 242.095635 159.841011 
L 242.667118 136.403436 
L 243.17366 157.08791 
L 243.680203 154.191977 
L 244.160768 163.456272 
L 244.680299 149.174845 
L 245.141382 169.416793 
L 245.64143 155.92601 
L 246.115501 165.869909 
L 246.667502 139.245159 
L 247.225997 137.363173 
L 247.777999 139.513024 
L 248.323505 140.878466 
L 248.882001 136.064666 
L 249.206707 207.361529 
L 249.531414 207.664519 
L 250.057438 231.774747 
L 250.330192 223.104081 
L 250.615933 219.278998 
L 250.927652 212.089187 
L 251.154946 236.068754 
L 251.642006 160.673004 
L 252.187513 141.498538 
L 252.771984 129.002288 
L 253.343468 133.123678 
L 253.830528 163.920422 
L 254.389023 136.583026 
L 254.93453 139.159704 
L 255.408601 167.465499 
L 255.94112 144.104042 
L 256.408697 169.366608 
L 256.921734 152.236485 
L 257.389311 166.659274 
L 257.908841 149.597884 
L 258.402395 158.663411 
L 258.889455 160.875204 
L 259.408985 149.942788 
L 259.954492 134.05437 
L 260.499999 134.511784 
L 261.045506 142.28229 
L 261.629978 130.312871 
L 261.798825 253.476616 
L 262.149508 203.677289 
L 262.311861 254.940477 
L 262.779439 167.772925 
L 262.980757 244.153783 
L 263.175581 245.117376 
L 263.63017 180.872836 
L 264.078265 177.555918 
L 264.610783 144.802796 
L 265.15629 142.279479 
L 265.714785 137.89759 
L 266.260292 138.790164 
L 266.818788 138.144278 
L 267.351306 147.276548 
L 267.896813 141.773158 
L 268.461802 138.047761 
L 269.03978 132.802296 
L 269.617758 131.843974 
L 270.065853 177.782991 
L 270.3451 221.238169 
L 270.884113 142.359904 
L 271.442608 141.726734 
L 271.923174 168.28831 
L 272.189433 226.800653 
L 272.702469 153.433555 
L 273.066141 200.196149 
L 273.5532 161.454885 
L 274.033766 168.738193 
L 274.306519 223.533354 
L 274.774097 169.293239 
L 275.040356 224.741377 
L 275.306615 224.901434 
L 276.137864 169.62404 
L 276.683371 142.142708 
L 277.183419 156.388737 
L 277.683467 156.510566 
L 278.190009 156.217909 
L 278.70954 147.140854 
L 279.216082 154.958825 
L 279.7486 141.015502 
L 280.287613 143.720499 
L 280.891567 96.346076 
L 281.482533 114.656355 
L 282.10597 112.838556 
L 282.716418 107.259067 
L 283.326866 106.409001 
L 283.969785 84.787263 
L 284.63868 86.402369 
L 285.281599 99.949279 
L 285.931012 86.391762 
L 286.606402 78.489012 
L 287.294779 65.079923 
L 287.496097 242.747077 
L 287.697415 243.876645 
L 287.957181 225.745064 
L 288.190969 233.24923 
L 288.8209 109.761837 
L 289.048194 235.811385 
L 289.262501 239.931425 
L 289.515772 228.450281 
L 289.846972 206.624197 
L 290.119726 222.671915 
L 290.483397 197.83811 
L 290.788621 213.388525 
L 291.178269 191.755221 
L 291.606882 181.351581 
L 292.016012 186.617944 
L 292.431636 184.432694 
L 292.775825 204.11021 
L 293.120014 203.618767 
L 293.490179 197.77563 
L 293.925286 179.224668 
L 294.262981 205.399762 
L 294.685099 181.89419 
L 295.0163 208.227118 
L 295.379971 196.481823 
L 295.841054 171.620599 
L 296.185243 202.697696 
L 296.419032 235.133616 
L 297.042468 117.903098 
L 297.59447 135.57901 
L 298.126988 145.650315 
L 298.691977 131.275702 
L 299.224496 149.049977 
L 299.757015 146.585644 
L 300.289533 146.078575 
L 300.828546 146.107218 
L 301.367559 143.497178 
L 302.413114 151.835947 
L 302.952127 144.287091 
L 303.484645 146.360442 
L 304.036646 141.793659 
L 304.569165 145.984111 
L 305.121166 139.880392 
L 305.666673 142.53766 
L 306.238157 135.71999 
L 306.790158 138.834708 
L 307.498018 77.645171 
L 308.043525 142.032042 
L 308.309784 225.291261 
L 308.556561 230.220313 
L 308.82282 225.154475 
L 309.257927 179.014609 
L 309.53068 223.493602 
L 309.82941 216.841748 
L 310.433364 113.894865 
L 311.037319 116.191967 
L 311.576331 142.101304 
L 312.082873 155.093771 
L 312.62838 139.465195 
L 313.180381 135.473611 
L 313.732382 134.911601 
L 314.284384 136.274661 
L 314.849373 130.67981 
L 315.479303 101.132693 
L 316.128716 97.315388 
L 316.8106 76.975124 
L 317.349613 138.912203 
L 317.908108 138.532622 
L 318.447121 143.343118 
L 318.992628 141.83101 
L 319.544629 138.104025 
L 320.083642 144.906223 
L 320.629149 142.409898 
L 321.18115 140.912476 
L 321.694186 152.550957 
L 322.246187 141.520253 
L 323.317718 145.796406 
L 323.856731 144.27674 
L 324.395744 144.762898 
L 324.934757 144.6443 
L 325.480264 143.339193 
L 326.025771 143.530412 
L 326.538807 153.150455 
L 327.07782 144.594836 
L 327.623326 142.383938 
L 328.162339 143.762378 
L 328.707846 141.07403 
L 329.240365 136.616526 
L 329.785872 141.097425 
L 330.337873 135.183949 
L 331.467851 133.255466 
L 332.065311 116.355893 
L 332.591336 148.813246 
L 333.299196 57.916956 
L 333.896656 130.696633 
L 334.57854 86.202305 
L 335.266917 83.993981 
L 335.896848 112.41088 
L 336.585226 88.257875 
L 337.286592 69.588343 
L 338.013934 61.184319 
L 338.741277 58.73806 
L 339.488102 54.076749 
L 340.085562 124.800855 
L 341.196058 143.143949 
L 341.715589 149.789203 
L 342.813096 137.549253 
L 343.358603 141.07141 
L 343.90411 141.770383 
L 344.436629 145.081076 
L 345.092536 84.174666 
L 345.612067 152.246224 
L 346.151079 143.758909 
L 346.709574 137.414782 
L 347.255081 142.286581 
L 347.86553 114.148509 
L 348.437013 134.007727 
L 349.008496 134.142764 
L 349.586474 126.85083 
L 350.17744 129.636745 
L 350.781394 122.506839 
L 351.385348 122.455869 
L 351.976314 115.805129 
L 352.580268 117.502404 
L 353.151751 132.178838 
L 353.723235 132.339926 
L 354.372648 92.036981 
L 355.028555 94.316502 
L 356.366346 97.507072 
L 357.009265 89.3584 
L 357.652183 86.546434 
L 357.944419 219.492024 
L 358.606821 85.139433 
L 359.249739 91.355086 
L 359.87967 99.40369 
L 360.425177 141.717624 
L 361.055108 99.188072 
L 361.67205 106.181307 
L 362.263016 118.28832 
L 362.89944 97.077808 
L 363.568336 82.958246 
L 364.191772 105.72288 
L 364.906127 56.911352 
L 365.451634 141.841005 
L 365.99714 141.641608 
L 366.575118 130.550085 
L 367.120625 142.309172 
L 367.67912 134.811433 
L 368.231121 135.436507 
L 368.776628 142.28721 
L 369.302653 147.024027 
L 369.861148 138.795577 
L 370.497573 92.05237 
L 371.140491 100.91755 
L 371.789904 100.119714 
L 372.432823 103.007806 
L 373.127695 80.310216 
L 373.822567 75.364299 
L 374.478474 101.01028 
L 375.140875 82.141953 
L 375.822759 74.073715 
L 376.550102 57.876703 
L 377.264456 64.974406 
L 377.94634 75.852017 
L 378.563282 107.661988 
L 379.297119 53.568 
L 380.011473 55.780067 
L 380.699851 79.560903 
L 381.433687 56.198103 
L 382.16103 64.915138 
L 382.810443 109.863913 
L 383.459856 112.289307 
L 384.070304 118.701701 
L 384.713223 112.888622 
L 385.33666 116.191784 
L 385.973084 89.59858 
L 386.583532 113.285098 
L 387.291393 86.915554 
L 387.992759 67.979827 
L 388.661654 77.579314 
L 389.317561 93.949015 
L 390.044904 56.249748 
L 390.63587 131.543111 
L 391.369706 64.196851 
L 392.077566 66.672493 
L 392.785427 67.09461 
L 392.785427 67.09461 
" clip-path="url(#p77d29269a4)" style="fill: none; stroke: #1f77b4; stroke-width: 1.5; stroke-linecap: square"/>
   </g>
   <g id="line2d_14">
    <path d="M 138.722074 260.694226 
L 203.663374 201.377186 
L 268.604673 141.847475 
L 333.545973 139.881077 
L 398.487273 119.728955 
" clip-path="url(#p77d29269a4)" style="fill: none; stroke: #ff7f0e; stroke-width: 1.5; stroke-linecap: square"/>
   </g>
   <g id="line2d_15">
    <path d="M 73.85221 290.099747 
L 73.930139 290.423325 
L 74.098987 289.049506 
L 74.18341 290.521307 
L 74.462658 282.487192 
L 74.566564 287.887949 
L 74.689952 285.612307 
L 74.819835 286.252312 
L 74.956212 286.093868 
L 75.021153 292.553126 
L 75.313389 277.042976 
L 75.462754 286.838449 
L 75.638095 271.202776 
L 75.735507 284.061239 
L 75.917343 282.711525 
L 76.021249 287.972606 
L 76.138143 283.204508 
L 76.209579 290.079461 
L 76.339461 284.197594 
L 76.508309 283.980615 
L 76.638191 285.876091 
L 76.722615 289.876779 
L 76.988874 272.546012 
L 77.131745 289.486307 
L 77.261628 286.948946 
L 77.534381 266.120127 
L 77.865582 281.884905 
L 78.001959 280.708073 
L 78.216265 288.408833 
L 78.424077 274.653728 
L 78.514995 288.16898 
L 78.631889 288.71475 
L 78.787748 285.923119 
L 78.891655 288.384358 
L 79.015043 283.254686 
L 79.385208 231.000245 
L 79.489114 288.790114 
L 79.683938 270.38258 
L 79.787844 286.181746 
L 79.904739 285.340658 
L 80.034621 281.639261 
L 80.164504 283.927485 
L 80.274904 290.333334 
L 80.560646 276.707139 
L 80.716505 282.437657 
L 80.774952 293.293988 
L 80.878858 285.703985 
L 81.203565 222.599978 
L 81.333447 286.49078 
L 81.703613 215.36764 
L 81.911425 292.843064 
L 82.223143 284.527193 
L 82.424461 288.610245 
L 82.65825 256.337577 
L 82.807615 278.231246 
L 82.963474 275.018201 
L 83.229733 286.973848 
L 83.372604 282.923697 
L 83.547946 291.158194 
L 83.658346 287.698181 
L 83.762252 288.2876 
L 83.976558 291.804168 
L 84.093453 289.311891 
L 84.3727 286.042097 
L 84.502583 288.622913 
L 84.599995 287.296545 
L 84.716889 292.731688 
L 84.833783 282.437179 
L 85.009125 278.486799 
L 85.132513 281.167848 
L 85.372796 289.63486 
L 85.626067 277.017604 
L 85.703997 289.868694 
L 86.035197 274.283328 
L 86.191057 291.074385 
L 86.372892 287.651729 
L 86.470304 290.021535 
L 86.561222 287.073452 
L 86.639152 289.68584 
L 86.717081 289.113229 
L 86.911905 262.565531 
L 87.28207 290.263538 
L 87.431435 285.290626 
L 87.76913 290.156239 
L 87.924989 275.697402 
L 87.996425 290.998573 
L 88.087343 290.037148 
L 88.44452 268.470541 
L 88.535438 286.244239 
L 88.639344 286.142578 
L 88.762732 284.410238 
L 88.879626 287.777859 
L 89.100427 258.731444 
L 89.360192 265.888911 
L 89.464098 287.146485 
L 89.580992 281.483687 
L 89.866734 289.505752 
L 90.126499 260.43967 
L 90.178452 292.536448 
L 90.503159 270.957123 
L 90.594077 285.969967 
L 91.042172 263.837656 
L 91.139584 288.553154 
L 91.373372 285.27008 
L 91.431819 292.555976 
L 91.57469 279.979227 
L 91.672102 291.997837 
L 92.133186 201.684378 
L 92.36048 284.9157 
L 92.652716 278.556259 
L 92.756622 290.373682 
L 92.834552 290.359969 
L 92.925469 290.547726 
L 93.152764 277.917118 
L 93.380058 290.706217 
L 93.574882 280.533119 
L 93.841142 279.269323 
L 93.945048 290.092857 
L 94.113895 284.013464 
L 94.295731 265.338001 
L 94.393143 290.974143 
L 94.529519 286.692427 
L 94.880203 266.820596 
L 94.964626 289.849977 
L 95.068532 288.755204 
L 95.185427 289.258682 
L 95.276344 286.261908 
L 95.406227 293.470057 
L 95.640016 280.505404 
L 95.737428 287.998213 
L 95.854322 284.985922 
L 96.185523 290.86041 
L 96.347876 281.758596 
L 96.477758 286.293303 
L 96.588159 285.373568 
L 96.685571 286.922102 
L 96.854418 283.504897 
L 96.984301 286.169979 
L 97.263548 278.503677 
L 97.497337 288.312417 
L 97.861008 269.328066 
L 98.049338 284.555888 
L 98.244162 272.473909 
L 98.387033 277.954459 
L 98.549386 271.71317 
L 98.659786 290.678515 
L 98.763692 286.734553 
L 99.016963 261.268037 
L 99.250752 289.971553 
L 99.510517 285.306387 
L 99.757294 285.072269 
L 99.835224 289.920858 
L 100.179413 267.020388 
L 100.367742 275.232129 
L 100.543084 289.049421 
L 100.802849 280.70366 
L 100.932732 278.646435 
L 101.270426 239.308313 
L 101.426286 291.565199 
L 101.497721 289.983758 
L 101.640592 277.795266 
L 101.718521 292.046842 
L 101.887369 280.792436 
L 102.043228 291.055734 
L 102.212075 287.987263 
L 102.400405 280.387912 
L 102.595229 290.70754 
L 102.699135 289.231011 
L 102.978383 263.11373 
L 103.082289 283.586226 
L 103.238148 282.68439 
L 103.536878 265.516687 
L 103.790149 291.715651 
L 103.874573 290.835425 
L 104.127844 284.31459 
L 104.26422 287.066394 
L 104.459044 266.954951 
L 104.712315 289.818425 
L 105.296787 234.014453 
L 105.517587 285.124983 
L 105.712411 285.669597 
L 105.900741 281.495617 
L 106.02413 283.895015 
L 106.192977 277.10792 
L 106.524178 289.433869 
L 106.641072 281.427695 
L 106.712507 289.910605 
L 106.783943 289.56319 
L 107.06319 246.228909 
L 107.147614 287.43842 
L 107.271002 286.507894 
L 107.426862 283.18611 
L 107.524274 284.570563 
L 107.654156 284.240255 
L 107.946392 292.383016 
L 108.167192 278.110687 
L 108.271099 288.779906 
L 108.511381 248.475796 
L 108.621782 287.806588 
L 108.829594 275.779718 
L 109.056888 289.525909 
L 109.167288 287.876735 
L 109.23223 291.810406 
L 109.440042 260.59684 
L 109.524466 290.386651 
L 109.64136 287.578056 
L 109.771243 278.836306 
L 109.894631 283.186615 
L 110.173879 253.369489 
L 110.23882 292.350665 
L 110.446632 283.653784 
L 110.531056 290.801071 
L 110.699903 272.173441 
L 110.829786 280.074636 
L 111.076563 279.216081 
L 111.251904 291.441462 
L 111.362304 292.952767 
L 111.738964 217.223958 
L 111.946776 289.732962 
L 112.505271 182.059947 
L 112.667624 282.553131 
L 112.842966 284.051989 
L 112.953366 290.886961 
L 113.057272 283.456975 
L 113.187155 285.604382 
L 113.544332 266.087606 
L 113.713179 273.017481 
L 113.836568 288.188306 
L 113.927486 287.437807 
L 113.992427 292.521887 
L 114.102827 285.349022 
L 114.447016 252.623612 
L 114.635346 292.567112 
L 114.771723 287.101897 
L 114.927582 293.884496 
L 115.1289 287.878665 
L 115.310735 267.449561 
L 115.564006 287.607109 
L 115.667913 284.960483 
L 115.739348 293.480932 
L 115.817278 290.170953 
L 115.953654 286.176367 
L 116.031584 289.658234 
L 116.284855 278.561649 
L 116.447208 287.803041 
L 116.577091 283.472277 
L 116.784903 289.221493 
L 117.116104 270.65636 
L 117.33041 268.078691 
L 117.531728 292.035128 
L 117.700575 274.095264 
L 117.823964 284.139302 
L 118.012293 281.55768 
L 118.109705 288.063553 
L 118.200623 285.013154 
L 118.298035 288.57598 
L 118.427918 284.999563 
L 118.596765 290.327534 
L 118.700671 286.250671 
L 118.843542 292.025059 
L 118.960436 283.938693 
L 119.057848 286.620026 
L 119.194225 274.799313 
L 119.278649 287.535764 
L 119.441002 288.335961 
L 119.538414 285.959727 
L 119.733238 270.975557 
L 119.811167 288.629724 
L 120.291733 262.928089 
L 120.577475 289.386576 
L 120.785287 264.610314 
L 120.895687 281.326798 
L 121.142464 284.839798 
L 121.610041 220.691202 
L 121.804865 288.919511 
L 121.869807 291.01194 
L 122.045148 273.788699 
L 122.116584 290.085683 
L 122.194513 288.256192 
L 122.499737 246.735093 
L 122.727032 287.702608 
L 123.045244 284.230598 
L 123.285527 261.724222 
L 123.512822 289.28025 
L 123.649198 279.579271 
L 123.766093 282.570762 
L 123.850516 287.824944 
L 124.084305 290.207775 
L 124.376541 284.814462 
L 124.473953 286.661397 
L 124.564871 290.565428 
L 124.72073 284.973761 
L 124.785671 292.249693 
L 124.883083 286.112516 
L 125.012966 285.26505 
L 125.090895 290.947799 
L 125.227272 280.007742 
L 125.311696 288.351441 
L 125.571461 274.482301 
L 125.701343 283.685759 
L 125.980591 247.042549 
L 126.090991 287.220195 
L 126.51311 244.919087 
L 126.591039 290.076765 
L 126.681957 289.888784 
L 126.772875 288.917785 
L 126.95471 272.909412 
L 127.207981 289.020131 
L 127.292405 287.865937 
L 127.565159 266.252546 
L 127.656076 288.909221 
L 127.857394 289.049576 
L 127.967795 283.994776 
L 128.032736 290.866196 
L 128.208078 289.696938 
L 128.357442 291.285256 
L 128.506807 283.541368 
L 128.578243 291.210991 
L 128.760079 292.295389 
L 128.838008 291.479118 
L 128.961397 281.539115 
L 129.23415 289.4868 
L 129.357539 280.709047 
L 129.467939 282.536222 
L 129.539374 291.148597 
L 129.838104 286.37304 
L 129.90954 289.572089 
L 130.123846 286.758532 
L 130.312176 274.681001 
L 130.6174 282.741172 
L 130.682341 291.15932 
L 130.818718 278.365802 
L 130.9486 287.939136 
L 131.104459 274.058868 
L 131.299283 278.14672 
L 131.565543 292.480932 
L 131.818814 265.977612 
L 131.896743 290.440199 
L 132.026626 284.440383 
L 132.091567 291.916265 
L 132.377309 227.34793 
L 132.500697 281.847093 
L 132.643568 285.066032 
L 132.844886 280.451588 
L 132.942298 286.358704 
L 133.30597 282.468597 
L 133.383899 289.509195 
L 133.689123 264.615408 
L 133.870959 270.354153 
L 133.942394 291.772533 
L 134.163195 270.479345 
L 134.351524 290.905042 
L 134.520372 270.706378 
L 134.682725 276.900672 
L 134.773643 286.638686 
L 134.948984 279.886838 
L 135.065879 282.058613 
L 135.221738 291.794375 
L 135.449032 255.214366 
L 135.591903 279.847779 
L 135.884139 280.082177 
L 135.975057 286.614086 
L 136.10494 283.910705 
L 136.202352 288.199073 
L 136.358211 276.131774 
L 136.43614 291.988141 
L 136.806306 285.575155 
L 136.994635 270.280578 
L 137.208942 275.601342 
L 137.397271 291.016131 
L 137.624566 270.781101 
L 137.871343 286.633347 
L 138.059673 290.492608 
L 138.202544 278.280677 
L 139.105228 73.393764 
L 139.384475 290.172356 
L 139.715676 225.946858 
L 140.0209 283.892197 
L 140.124806 286.564465 
L 140.254689 284.962479 
L 140.332618 290.724782 
L 140.533936 285.843514 
L 140.670313 286.427185 
L 140.72876 292.19991 
L 140.813184 291.383163 
L 140.936572 281.367422 
L 141.10542 288.568223 
L 141.196337 288.465292 
L 141.300244 289.533567 
L 141.852245 225.27866 
L 141.936668 287.658198 
L 142.391257 217.835687 
L 142.514646 287.608559 
L 142.774411 261.949311 
L 142.956247 286.965306 
L 143.157565 276.982645 
L 143.254977 285.956533 
L 143.573189 264.764222 
L 143.768013 292.033821 
L 143.897896 287.896512 
L 144.008296 291.221529 
L 144.151167 275.220464 
L 144.216108 290.399445 
L 144.488861 259.443374 
L 144.839544 249.215065 
L 144.885003 293.3697 
L 144.956439 290.76474 
L 145.027874 289.889166 
L 145.112298 290.19242 
L 145.222698 284.297738 
L 145.307122 291.044905 
L 145.560393 277.869263 
L 145.846135 272.376465 
L 145.943546 290.482846 
L 146.066935 285.366347 
L 146.255265 290.432318 
L 146.352677 289.511359 
L 146.4371 291.038704 
L 146.521524 286.805291 
L 146.605948 289.501158 
L 146.742324 277.08465 
L 146.989101 278.278261 
L 147.164443 287.872209 
L 147.346279 268.837581 
L 147.437196 293.022651 
L 147.865809 262.703197 
L 148.04115 270.751899 
L 148.248963 287.189232 
L 148.424304 274.543257 
L 148.502234 290.005604 
L 148.677575 278.656881 
L 148.768493 287.170567 
L 149.177623 227.227552 
L 149.320494 283.203292 
L 149.443883 283.199734 
L 149.599742 270.274174 
L 149.788071 289.989758 
L 150.125766 242.910038 
L 150.366049 291.448373 
L 150.502426 280.056843 
L 150.645297 289.722089 
L 150.768685 286.507109 
L 150.853109 287.566361 
L 150.950521 283.664543 
L 151.047933 288.062611 
L 151.190803 277.529979 
L 151.307698 285.095442 
L 151.51551 284.857772 
L 151.619416 283.811062 
L 151.89217 275.480879 
L 152.138946 282.677757 
L 152.275323 280.903509 
L 152.515606 274.56677 
L 152.801348 228.401337 
L 152.963701 283.964092 
L 153.139042 270.701539 
L 153.561161 189.482354 
L 153.671561 284.989573 
L 154.080691 275.920715 
L 154.275515 276.141846 
L 154.42488 273.598097 
L 154.567751 290.232041 
L 154.762575 284.726706 
L 154.937916 274.344458 
L 155.165211 284.878094 
L 155.593824 214.977594 
L 155.749683 275.205513 
L 156.126342 213.112115 
L 156.249731 284.309858 
L 156.51599 236.246418 
L 156.860179 291.394509 
L 157.139427 229.37587 
L 157.262815 285.853861 
L 157.470627 250.140052 
L 157.769357 264.937447 
L 158.003146 244.134605 
L 158.249923 237.646888 
L 158.399288 292.911418 
L 158.665547 236.648079 
L 158.788936 279.815343 
L 158.990254 253.983149 
L 159.600702 225.819119 
L 159.808514 250.281493 
L 160.029314 246.806956 
L 160.224138 279.493114 
L 160.354021 280.742784 
L 160.724186 228.031295 
L 160.931998 250.001337 
L 161.263199 224.554549 
L 161.620376 288.562425 
L 161.860659 240.078885 
L 162.023012 259.592847 
L 162.198354 256.749622 
L 162.665931 239.262939 
L 162.867249 250.149998 
L 163.594592 233.103787 
L 163.873839 244.164549 
L 164.289464 196.084973 
L 164.763535 292.92877 
L 164.99083 246.054499 
L 165.250595 236.595521 
L 165.490878 241.775201 
L 165.737655 244.072075 
L 166.068855 219.823461 
L 166.471491 255.276919 
L 166.711774 244.846106 
L 166.906598 253.21078 
L 167.231304 227.396189 
L 167.406646 256.611774 
L 167.607964 249.834175 
L 167.867729 234.539842 
L 168.023588 260.525999 
L 168.231401 250.0057 
L 168.413236 254.857317 
L 168.705472 242.310647 
L 168.874319 258.619438 
L 169.439309 210.668558 
L 169.621144 254.754267 
L 169.783498 258.597662 
L 170.004298 248.03756 
L 170.160157 295.413413 
L 170.329004 257.917045 
L 170.491358 259.160112 
L 170.712158 251.449053 
L 170.893994 255.469374 
L 171.088818 251.524113 
L 171.257665 257.745431 
L 171.660301 218.026244 
L 171.848631 254.121421 
L 172.023972 256.716934 
L 172.322702 237.184047 
L 172.485056 259.599288 
L 172.673385 253.930215 
L 172.829245 260.267274 
L 172.991598 258.625733 
L 173.205904 248.450523 
L 173.361763 260.410303 
L 173.874799 256.260274 
L 174.050141 256.74333 
L 174.355365 231.816005 
L 174.517718 259.240218 
L 174.706048 253.970237 
L 175.030755 260.085553 
L 175.245061 252.741348 
L 175.446379 250.474885 
L 175.758097 261.85775 
L 175.913956 260.16896 
L 176.089298 255.907126 
L 176.245157 259.473331 
L 176.569863 258.914767 
L 176.745205 256.458431 
L 177.063417 260.816118 
L 177.225771 258.804659 
L 177.38163 259.777051 
L 177.543983 258.387384 
L 177.699842 259.969885 
L 177.855701 260.307947 
L 178.180408 258.489953 
L 178.362243 254.027533 
L 178.537585 256.500538 
L 178.693444 260.326568 
L 178.868785 256.600857 
L 179.024645 260.367318 
L 179.336363 260.4064 
L 179.492222 260.023402 
L 179.654575 258.646671 
L 179.829917 255.266474 
L 179.99227 258.605625 
L 180.154623 258.81558 
L 180.329965 256.940954 
L 180.492318 258.444893 
L 180.654671 258.796557 
L 180.823519 258.173231 
L 181.018342 251.156734 
L 181.161213 264.298958 
L 181.310578 261.913699 
L 181.459943 262.145683 
L 181.648273 254.013602 
L 181.810626 259.215479 
L 181.97298 259.18931 
L 182.71331 202.665798 
L 182.862675 261.49364 
L 183.031523 257.994142 
L 183.193876 258.783952 
L 183.356229 258.556304 
L 183.512088 260.42107 
L 183.674442 259.552528 
L 184.044607 250.902049 
L 184.239431 250.735369 
L 184.414772 256.699805 
L 184.797926 250.268928 
L 184.960279 258.886466 
L 185.330445 252.693937 
L 185.505786 256.943364 
L 185.694116 253.138125 
L 185.875952 255.345867 
L 186.096752 247.371175 
L 186.265599 257.791711 
L 186.427953 258.568124 
L 186.609788 254.647519 
L 186.928001 260.007733 
L 187.077366 261.691532 
L 187.226731 261.458918 
L 187.38259 260.09621 
L 187.531955 261.461529 
L 187.68132 261.385914 
L 187.824191 262.887208 
L 187.973556 261.193587 
L 188.122921 261.319695 
L 188.27878 260.203631 
L 188.428145 261.679075 
L 188.57751 261.47244 
L 188.720381 262.827562 
L 188.869746 261.369425 
L 189.019111 261.559653 
L 189.168476 261.192358 
L 189.317841 261.890665 
L 189.616571 261.408639 
L 189.765935 261.549336 
L 189.9153 261.421238 
L 190.064665 261.715803 
L 190.220525 260.153534 
L 190.376384 259.865804 
L 190.545231 257.074016 
L 190.694596 261.559927 
L 190.850455 259.797636 
L 190.99982 261.504743 
L 191.149185 261.474923 
L 191.460903 260.011673 
L 191.610268 261.730599 
L 191.772622 258.120876 
L 191.921987 261.454598 
L 192.077846 260.069516 
L 192.227211 261.926053 
L 192.376576 261.5677 
L 192.538929 258.903046 
L 192.701282 258.681351 
L 192.850647 261.206524 
L 193.000012 261.447502 
L 193.155871 260.107551 
L 193.298742 263.212478 
L 193.448107 261.194218 
L 193.597472 260.85595 
L 193.76632 256.587536 
L 193.915685 261.464659 
L 194.084532 256.166507 
L 194.227403 263.093896 
L 194.376768 261.55665 
L 194.526133 261.608255 
L 194.675498 261.055335 
L 194.824863 261.582226 
L 194.974228 261.610247 
L 195.130087 259.890515 
L 195.272958 262.862222 
L 195.578182 259.657569 
L 195.727547 261.364646 
L 195.876912 261.495313 
L 196.026277 261.400637 
L 196.175642 261.52592 
L 196.325007 261.372016 
L 196.474372 261.88179 
L 196.623737 261.345051 
L 196.773102 261.605913 
L 196.922467 261.623033 
L 197.08482 258.803389 
L 197.247173 258.105945 
L 197.403032 259.623366 
L 197.558891 259.858286 
L 197.708256 261.511052 
L 197.87061 258.458848 
L 198.019975 261.805015 
L 198.16934 261.73158 
L 198.318705 261.26246 
L 198.455081 264.52279 
L 198.760306 259.573966 
L 199.06553 260.903051 
L 199.234377 257.169258 
L 199.39673 258.074903 
L 199.572072 254.647129 
L 199.727931 260.413876 
L 199.890284 258.524143 
L 200.052637 258.377743 
L 200.214991 258.439067 
L 200.364356 261.106897 
L 200.533203 256.301026 
L 200.682568 261.111761 
L 201.026757 254.229019 
L 201.176122 261.303132 
L 201.331981 259.615945 
L 201.481346 261.417163 
L 201.637205 259.935906 
L 201.806052 256.798645 
L 201.9749 256.245778 
L 202.124265 261.455376 
L 202.27363 261.415223 
L 202.624313 252.505737 
L 202.773678 261.619504 
L 202.923043 261.511153 
L 203.078902 259.738407 
L 203.533491 261.51583 
L 203.695844 258.413976 
L 203.858198 257.699827 
L 204.007563 261.465876 
L 204.169916 258.710231 
L 204.319281 261.455079 
L 204.47514 260.248008 
L 204.643987 255.529839 
L 204.806341 257.393146 
L 204.955705 261.434373 
L 205.124553 256.6327 
L 205.273918 261.525478 
L 205.475236 247.067638 
L 205.773966 262.930113 
L 205.923331 261.41745 
L 206.26752 252.868963 
L 206.559756 263.12351 
L 206.86498 259.679433 
L 207.020839 260.029314 
L 207.183192 258.416386 
L 207.378016 249.362991 
L 207.559852 252.899956 
L 207.800134 236.624392 
L 207.994958 249.799684 
L 208.2807 225.343202 
L 208.806725 231.673784 
L 209.111949 220.327354 
L 209.352231 236.700153 
L 209.611997 231.870744 
L 209.878256 230.50989 
L 210.112045 239.714319 
L 210.352327 237.316912 
L 210.605599 232.858239 
L 210.85887 233.890354 
L 211.326447 239.692905 
L 211.560236 238.500126 
L 211.813507 231.786089 
L 212.177178 204.564173 
L 212.547343 201.504578 
L 212.885038 209.839422 
L 213.274686 197.187149 
L 213.65784 198.598727 
L 213.885134 240.056293 
L 214.300759 188.928788 
L 214.735865 183.662533 
L 214.969654 238.731553 
L 215.417749 180.351974 
L 215.878832 175.493995 
L 216.326927 179.029497 
L 216.736057 193.456367 
L 217.6842 158.432531 
L 218.132295 179.185966 
L 218.599873 251.966163 
L 218.866132 230.674305 
L 219.301239 184.734429 
L 219.723357 189.130536 
L 220.690982 155.673817 
L 221.606655 183.767545 
L 221.840443 237.340521 
L 222.100209 231.677253 
L 222.366468 229.732832 
L 222.827551 174.462933 
L 223.288634 176.049287 
L 223.730235 183.095262 
L 224.171836 183.136867 
L 224.606943 185.443064 
L 225.07452 174.525504 
L 225.548592 171.092289 
L 226.003181 179.678011 
L 226.464264 175.520986 
L 226.925347 175.868912 
L 227.360454 186.019829 
L 227.834525 170.184444 
L 228.302103 173.176383 
L 228.76968 172.986406 
L 229.237257 173.629754 
L 229.704835 173.050711 
L 230.165918 176.044586 
L 230.730907 136.92197 
L 231.289403 138.687594 
L 231.841404 139.336501 
L 232.35444 158.263301 
L 232.860982 160.363324 
L 233.380512 154.945407 
L 233.900043 155.197007 
L 234.952092 152.918973 
L 235.471622 155.404391 
L 235.997647 153.780257 
L 236.530165 151.276575 
L 237.062684 151.933459 
L 237.595203 149.684872 
L 238.134216 145.500755 
L 238.666734 150.125883 
L 239.218735 142.163446 
L 239.77723 136.918995 
L 240.335726 137.471448 
L 240.894221 138.483514 
L 241.439728 139.817447 
L 241.97874 145.308131 
L 242.524247 139.416644 
L 242.965848 182.829295 
L 243.433426 175.056781 
L 243.894509 177.823646 
L 244.349098 178.325412 
L 244.829664 170.284284 
L 245.381665 141.840868 
L 245.933666 141.244063 
L 246.492161 139.938482 
L 247.031174 148.689327 
L 247.589669 138.900839 
L 248.109199 156.356269 
L 248.648212 145.573851 
L 249.200213 142.594672 
L 249.739226 145.673089 
L 250.284733 144.760333 
L 250.843228 141.984541 
L 251.375747 140.478804 
L 251.908265 150.908668 
L 252.440784 151.437243 
L 253.012267 138.30229 
L 253.538292 153.508869 
L 254.07081 146.825943 
L 254.616317 142.17335 
L 255.168318 136.001437 
L 255.700837 150.161948 
L 256.23985 148.47778 
L 256.791851 145.477498 
L 257.337358 144.63938 
L 257.869876 149.738142 
L 258.428372 139.109547 
L 258.980373 144.513096 
L 259.532374 142.206237 
L 260.077881 145.457508 
L 260.629882 142.676357 
L 261.188377 137.467176 
L 261.740378 141.888872 
L 262.305367 137.16268 
L 262.857368 143.91515 
L 263.422358 137.160033 
L 263.954876 149.807176 
L 264.474407 156.266506 
L 265.000431 154.821141 
L 265.539444 148.600093 
L 266.071963 151.363654 
L 266.610975 146.894028 
L 267.091541 169.899509 
L 267.565613 172.513766 
L 268.052672 167.687634 
L 268.546226 164.885034 
L 269.046274 163.134461 
L 269.520346 172.758575 
L 270.033382 157.321336 
L 270.53343 163.183076 
L 271.033478 163.503682 
L 271.553008 153.739593 
L 272.072539 154.181334 
L 272.592069 154.119995 
L 273.14407 144.228545 
L 273.709059 139.265039 
L 274.267555 139.500674 
L 274.819556 138.730386 
L 275.371557 144.783828 
L 275.930052 139.723667 
L 276.488547 139.055437 
L 277.040548 139.769644 
L 277.599043 142.888981 
L 278.157539 143.991149 
L 278.722528 140.498858 
L 279.281023 143.035757 
L 279.833024 142.175814 
L 280.391519 144.962222 
L 280.950014 140.677234 
L 281.50851 142.867449 
L 282.073499 141.073957 
L 282.631994 142.017538 
L 283.190489 144.232881 
L 283.748984 143.419281 
L 283.917832 256.321797 
L 284.476327 140.866436 
L 285.041316 140.68041 
L 285.606306 141.178507 
L 286.164801 139.392993 
L 286.697319 149.925226 
L 287.255815 139.510058 
L 287.794827 148.951843 
L 288.30137 160.86404 
L 288.807912 159.890338 
L 289.359913 136.394555 
L 289.924902 139.403326 
L 290.483397 139.023471 
L 291.041892 140.002678 
L 291.600388 140.491063 
L 292.158883 138.920026 
L 292.710884 139.57691 
L 293.275873 137.985016 
L 293.82138 139.193587 
L 294.373381 137.116749 
L 294.925382 138.616096 
L 295.308536 197.955156 
L 295.717666 191.593951 
L 296.198232 169.719764 
L 296.62035 189.379812 
L 296.951551 212.506319 
L 297.360681 193.032315 
L 297.717858 206.388754 
L 298.062047 209.75729 
L 298.516636 177.572521 
L 298.893296 200.780449 
L 299.386849 163.813499 
L 299.925862 143.028153 
L 300.309016 199.776803 
L 300.861017 134.943202 
L 301.406524 141.237446 
L 301.965019 137.442521 
L 302.51702 141.908862 
L 303.069021 140.497826 
L 303.627516 139.642302 
L 304.173023 145.725355 
L 304.400318 240.236559 
L 304.893872 233.938509 
L 305.445873 139.238085 
L 306.004368 139.024822 
L 306.562863 141.3745 
L 307.121358 138.833795 
L 307.679853 138.97252 
L 308.244843 138.841371 
L 308.803338 141.165847 
L 309.361833 137.051914 
L 309.913834 137.576911 
L 310.465835 137.331627 
L 311.030824 138.110661 
L 311.576331 137.257902 
L 312.128332 136.88377 
L 313.219346 143.913617 
L 313.784336 140.026191 
L 314.018124 239.045368 
L 314.245419 241.158653 
L 314.79742 133.918621 
L 315.031208 238.936102 
L 315.271491 239.481473 
L 315.849469 221.398901 
L 316.135211 224.44433 
L 316.531353 252.34617 
L 317.089848 137.944927 
L 317.648343 139.785162 
L 318.213332 140.597986 
L 318.460109 235.507702 
L 319.018604 141.700984 
L 319.570605 143.836961 
L 319.843359 227.64349 
L 320.401854 140.530559 
L 320.635643 239.469369 
L 320.921384 224.744782 
L 321.129197 247.198114 
L 321.661715 139.161776 
L 322.22021 137.719715 
L 322.772211 140.551525 
L 323.330707 140.321568 
L 323.596966 229.225745 
L 324.148967 138.908324 
L 324.713956 140.786887 
L 325.259463 130.479062 
L 325.811464 145.341365 
L 326.369959 136.323057 
L 327.480456 139.846081 
L 328.019468 136.224786 
L 328.558481 142.98329 
L 329.103988 132.007243 
L 329.649495 139.426356 
L 330.188508 138.595321 
L 330.734015 147.272842 
L 331.273028 150.078583 
L 331.818534 141.856559 
L 332.357547 144.255089 
L 332.909548 141.292578 
L 333.461549 144.74781 
L 334.01355 143.543401 
L 334.175904 258.406184 
L 334.598022 191.495191 
L 335.039623 184.208119 
L 335.598118 137.456633 
L 335.779954 252.802265 
L 335.948801 257.067862 
L 336.117648 256.337543 
L 336.663155 137.214773 
L 337.215156 136.724836 
L 337.773652 142.437226 
L 338.332147 143.345975 
L 339.442643 138.208365 
L 340.007632 138.483204 
L 340.559633 135.290845 
L 341.124623 139.473912 
L 341.683118 141.137998 
L 342.222131 135.836123 
L 342.780626 138.045479 
L 343.332627 137.588622 
L 344.417147 136.151234 
L 344.962654 144.26094 
L 345.235407 229.822258 
L 345.77442 138.676541 
L 346.326421 140.593121 
L 346.871928 141.475655 
L 347.430423 140.24965 
L 347.982424 141.876695 
L 348.534425 137.15138 
L 349.086426 140.895517 
L 349.625439 142.332923 
L 350.170946 142.035857 
L 350.722947 144.155021 
L 351.274948 141.672195 
L 352.365962 138.640267 
L 352.924457 140.560644 
L 353.489446 140.339705 
L 354.047941 140.605672 
L 354.606437 141.545893 
L 355.151943 140.271484 
L 356.249451 141.983792 
L 356.801452 140.638112 
L 357.353453 141.973952 
L 357.515807 258.708711 
L 357.697642 253.265592 
L 358.243149 140.249768 
L 358.788656 139.814608 
L 359.327669 138.616772 
L 360.431671 139.39816 
L 360.983672 138.047788 
L 361.535673 139.273328 
L 362.08118 135.93244 
L 362.639675 136.891118 
L 363.191676 138.419957 
L 363.743677 138.597877 
L 364.315161 136.933344 
L 364.88015 134.205226 
L 365.451634 136.795678 
L 366.010129 135.000068 
L 366.56213 140.142133 
L 367.114131 140.963738 
L 367.672626 140.172346 
L 368.218133 137.766569 
L 369.315641 143.613448 
L 369.861148 138.706918 
L 370.413149 144.988127 
L 371.017103 131.047735 
L 372.140587 141.862182 
L 372.699083 143.730385 
L 373.238095 142.438541 
L 373.796591 142.515278 
L 374.348592 141.846226 
L 374.926569 136.945721 
L 376.04356 144.039645 
L 376.433207 198.485036 
L 376.998197 142.230773 
L 377.400833 193.95052 
L 377.634621 238.924702 
L 378.212599 137.98571 
L 378.452882 237.10615 
L 378.725635 228.87122 
L 379.28413 137.309511 
L 379.829637 145.034624 
L 380.36865 140.36466 
L 380.914157 139.375778 
L 381.466158 135.513975 
L 382.550678 142.489027 
L 383.096185 140.471447 
L 383.641692 137.273848 
L 384.187199 140.33777 
L 384.732705 137.558481 
L 385.278212 138.425124 
L 385.817225 138.423079 
L 386.356238 135.427616 
L 386.895251 135.896668 
L 387.434264 141.402815 
L 387.973276 140.707155 
L 388.512289 133.231304 
L 389.06429 135.358856 
L 389.609797 142.197018 
L 390.14881 137.497873 
L 390.694317 137.961585 
L 391.23333 138.947254 
L 391.23333 138.947254 
" clip-path="url(#p77d29269a4)" style="fill: none; stroke: #2ca02c; stroke-width: 1.5; stroke-linecap: square"/>
   </g>
   <g id="patch_3">
    <path d="M 57.6 307.584 
L 57.6 41.472 
" style="fill: none; stroke: #000000; stroke-width: 0.8; stroke-linejoin: miter; stroke-linecap: square"/>
   </g>
   <g id="patch_4">
    <path d="M 414.72 307.584 
L 414.72 41.472 
" style="fill: none; stroke: #000000; stroke-width: 0.8; stroke-linejoin: miter; stroke-linecap: square"/>
   </g>
   <g id="patch_5">
    <path d="M 57.6 307.584 
L 414.72 307.584 
" style="fill: none; stroke: #000000; stroke-width: 0.8; stroke-linejoin: miter; stroke-linecap: square"/>
   </g>
   <g id="patch_6">
    <path d="M 57.6 41.472 
L 414.72 41.472 
" style="fill: none; stroke: #000000; stroke-width: 0.8; stroke-linejoin: miter; stroke-linecap: square"/>
   </g>
   <g id="text_15">
    <!-- learning curve -->
    <g transform="translate(192.96375 35.472) scale(0.12 -0.12)">
     <defs>
      <path id="DejaVuSans-6c" d="M 603 4863 
L 1178 4863 
L 1178 0 
L 603 0 
L 603 4863 
z
" transform="scale(0.015625)"/>
      <path id="DejaVuSans-67" d="M 2906 1791 
Q 2906 2416 2648 2759 
Q 2391 3103 1925 3103 
Q 1463 3103 1205 2759 
Q 947 2416 947 1791 
Q 947 1169 1205 825 
Q 1463 481 1925 481 
Q 2391 481 2648 825 
Q 2906 1169 2906 1791 
z
M 3481 434 
Q 3481 -459 3084 -895 
Q 2688 -1331 1869 -1331 
Q 1566 -1331 1297 -1286 
Q 1028 -1241 775 -1147 
L 775 -588 
Q 1028 -725 1275 -790 
Q 1522 -856 1778 -856 
Q 2344 -856 2625 -561 
Q 2906 -266 2906 331 
L 2906 616 
Q 2728 306 2450 153 
Q 2172 0 1784 0 
Q 1141 0 747 490 
Q 353 981 353 1791 
Q 353 2603 747 3093 
Q 1141 3584 1784 3584 
Q 2172 3584 2450 3431 
Q 2728 3278 2906 2969 
L 2906 3500 
L 3481 3500 
L 3481 434 
z
" transform="scale(0.015625)"/>
      <path id="DejaVuSans-63" d="M 3122 3366 
L 3122 2828 
Q 2878 2963 2633 3030 
Q 2388 3097 2138 3097 
Q 1578 3097 1268 2742 
Q 959 2388 959 1747 
Q 959 1106 1268 751 
Q 1578 397 2138 397 
Q 2388 397 2633 464 
Q 2878 531 3122 666 
L 3122 134 
Q 2881 22 2623 -34 
Q 2366 -91 2075 -91 
Q 1284 -91 818 406 
Q 353 903 353 1747 
Q 353 2603 823 3093 
Q 1294 3584 2113 3584 
Q 2378 3584 2631 3529 
Q 2884 3475 3122 3366 
z
" transform="scale(0.015625)"/>
      <path id="DejaVuSans-75" d="M 544 1381 
L 544 3500 
L 1119 3500 
L 1119 1403 
Q 1119 906 1312 657 
Q 1506 409 1894 409 
Q 2359 409 2629 706 
Q 2900 1003 2900 1516 
L 2900 3500 
L 3475 3500 
L 3475 0 
L 2900 0 
L 2900 538 
Q 2691 219 2414 64 
Q 2138 -91 1772 -91 
Q 1169 -91 856 284 
Q 544 659 544 1381 
z
M 1991 3584 
L 1991 3584 
z
" transform="scale(0.015625)"/>
      <path id="DejaVuSans-76" d="M 191 3500 
L 800 3500 
L 1894 563 
L 2988 3500 
L 3597 3500 
L 2284 0 
L 1503 0 
L 191 3500 
z
" transform="scale(0.015625)"/>
     </defs>
     <use xlink:href="#DejaVuSans-6c"/>
     <use xlink:href="#DejaVuSans-65" x="27.783203"/>
     <use xlink:href="#DejaVuSans-61" x="89.306641"/>
     <use xlink:href="#DejaVuSans-72" x="150.585938"/>
     <use xlink:href="#DejaVuSans-6e" x="189.949219"/>
     <use xlink:href="#DejaVuSans-69" x="253.328125"/>
     <use xlink:href="#DejaVuSans-6e" x="281.111328"/>
     <use xlink:href="#DejaVuSans-67" x="344.490234"/>
     <use xlink:href="#DejaVuSans-20" x="407.966797"/>
     <use xlink:href="#DejaVuSans-63" x="439.753906"/>
     <use xlink:href="#DejaVuSans-75" x="494.734375"/>
     <use xlink:href="#DejaVuSans-72" x="558.113281"/>
     <use xlink:href="#DejaVuSans-76" x="599.226562"/>
     <use xlink:href="#DejaVuSans-65" x="658.40625"/>
    </g>
   </g>
   <g id="legend_1">
    <g id="patch_7">
     <path d="M 64.6 93.506375 
L 166.614062 93.506375 
Q 168.614062 93.506375 168.614062 91.506375 
L 168.614062 48.472 
Q 168.614062 46.472 166.614062 46.472 
L 64.6 46.472 
Q 62.6 46.472 62.6 48.472 
L 62.6 91.506375 
Q 62.6 93.506375 64.6 93.506375 
z
" style="fill: #ffffff; opacity: 0.8; stroke: #cccccc; stroke-linejoin: miter"/>
    </g>
    <g id="line2d_16">
     <path d="M 66.6 54.570438 
L 76.6 54.570438 
L 86.6 54.570438 
" style="fill: none; stroke: #1f77b4; stroke-width: 1.5; stroke-linecap: square"/>
    </g>
    <g id="text_16">
     <!-- source-source -->
     <g transform="translate(94.6 58.070438) scale(0.1 -0.1)">
      <defs>
       <path id="DejaVuSans-2d" d="M 313 2009 
L 1997 2009 
L 1997 1497 
L 313 1497 
L 313 2009 
z
" transform="scale(0.015625)"/>
      </defs>
      <use xlink:href="#DejaVuSans-73"/>
      <use xlink:href="#DejaVuSans-6f" x="52.099609"/>
      <use xlink:href="#DejaVuSans-75" x="113.28125"/>
      <use xlink:href="#DejaVuSans-72" x="176.660156"/>
      <use xlink:href="#DejaVuSans-63" x="215.523438"/>
      <use xlink:href="#DejaVuSans-65" x="270.503906"/>
      <use xlink:href="#DejaVuSans-2d" x="332.027344"/>
      <use xlink:href="#DejaVuSans-73" x="368.111328"/>
      <use xlink:href="#DejaVuSans-6f" x="420.210938"/>
      <use xlink:href="#DejaVuSans-75" x="481.392578"/>
      <use xlink:href="#DejaVuSans-72" x="544.771484"/>
      <use xlink:href="#DejaVuSans-63" x="583.634766"/>
      <use xlink:href="#DejaVuSans-65" x="638.615234"/>
     </g>
    </g>
    <g id="line2d_17">
     <path d="M 66.6 69.248563 
L 76.6 69.248563 
L 86.6 69.248563 
" style="fill: none; stroke: #ff7f0e; stroke-width: 1.5; stroke-linecap: square"/>
    </g>
    <g id="text_17">
     <!-- source-target -->
     <g transform="translate(94.6 72.748563) scale(0.1 -0.1)">
      <use xlink:href="#DejaVuSans-73"/>
      <use xlink:href="#DejaVuSans-6f" x="52.099609"/>
      <use xlink:href="#DejaVuSans-75" x="113.28125"/>
      <use xlink:href="#DejaVuSans-72" x="176.660156"/>
      <use xlink:href="#DejaVuSans-63" x="215.523438"/>
      <use xlink:href="#DejaVuSans-65" x="270.503906"/>
      <use xlink:href="#DejaVuSans-2d" x="332.027344"/>
      <use xlink:href="#DejaVuSans-74" x="368.111328"/>
      <use xlink:href="#DejaVuSans-61" x="407.320312"/>
      <use xlink:href="#DejaVuSans-72" x="468.599609"/>
      <use xlink:href="#DejaVuSans-67" x="507.962891"/>
      <use xlink:href="#DejaVuSans-65" x="571.439453"/>
      <use xlink:href="#DejaVuSans-74" x="632.962891"/>
     </g>
    </g>
    <g id="line2d_18">
     <path d="M 66.6 83.926688 
L 76.6 83.926688 
L 86.6 83.926688 
" style="fill: none; stroke: #2ca02c; stroke-width: 1.5; stroke-linecap: square"/>
    </g>
    <g id="text_18">
     <!-- target-target -->
     <g transform="translate(94.6 87.426688) scale(0.1 -0.1)">
      <use xlink:href="#DejaVuSans-74"/>
      <use xlink:href="#DejaVuSans-61" x="39.208984"/>
      <use xlink:href="#DejaVuSans-72" x="100.488281"/>
      <use xlink:href="#DejaVuSans-67" x="139.851562"/>
      <use xlink:href="#DejaVuSans-65" x="203.328125"/>
      <use xlink:href="#DejaVuSans-74" x="264.851562"/>
      <use xlink:href="#DejaVuSans-2d" x="304.060547"/>
      <use xlink:href="#DejaVuSans-74" x="340.144531"/>
      <use xlink:href="#DejaVuSans-61" x="379.353516"/>
      <use xlink:href="#DejaVuSans-72" x="440.632812"/>
      <use xlink:href="#DejaVuSans-67" x="479.996094"/>
      <use xlink:href="#DejaVuSans-65" x="543.472656"/>
      <use xlink:href="#DejaVuSans-74" x="604.996094"/>
     </g>
    </g>
   </g>
  </g>
 </g>
 <defs>
  <clipPath id="p77d29269a4">
   <rect x="57.6" y="41.472" width="357.12" height="266.112"/>
  </clipPath>
 </defs>
</svg>
