<?xml version="1.0" encoding="utf-8" standalone="no"?>
<!DOCTYPE svg PUBLIC "-//W3C//DTD SVG 1.1//EN"
  "http://www.w3.org/Graphics/SVG/1.1/DTD/svg11.dtd">
<svg xmlns:xlink="http://www.w3.org/1999/xlink" width="460.8pt" height="345.6pt" viewBox="0 0 460.8 345.6" xmlns="http://www.w3.org/2000/svg" version="1.1">
 <metadata>
  <rdf:RDF xmlns:dc="http://purl.org/dc/elements/1.1/" xmlns:cc="http://creativecommons.org/ns#" xmlns:rdf="http://www.w3.org/1999/02/22-rdf-syntax-ns#">
   <cc:Work>
    <dc:type rdf:resource="http://purl.org/dc/dcmitype/StillImage"/>
    <dc:date>2023-08-18T16:01:19.389998</dc:date>
    <dc:format>image/svg+xml</dc:format>
    <dc:creator>
     <cc:Agent>
      <dc:title>Matplotlib v3.7.1, https://matplotlib.org/</dc:title>
     </cc:Agent>
    </dc:creator>
   </cc:Work>
  </rdf:RDF>
 </metadata>
 <defs>
  <style type="text/css">*{stroke-linejoin: round; stroke-linecap: butt}</style>
 </defs>
 <g id="figure_1">
  <g id="patch_1">
   <path d="M 0 345.6 
L 460.8 345.6 
L 460.8 0 
L 0 0 
z
" style="fill: #ffffff"/>
  </g>
  <g id="axes_1">
   <g id="patch_2">
    <path d="M 57.6 307.584 
L 414.72 307.584 
L 414.72 41.472 
L 57.6 41.472 
z
" style="fill: #ffffff"/>
   </g>
   <g id="matplotlib.axis_1">
    <g id="xtick_1">
     <g id="line2d_1">
      <defs>
       <path id="m11bd71c003" d="M 0 0 
L 0 3.5 
" style="stroke: #000000; stroke-width: 0.8"/>
      </defs>
      <g>
       <use xlink:href="#m11bd71c003" x="73.759655" y="307.584" style="stroke: #000000; stroke-width: 0.8"/>
      </g>
     </g>
     <g id="text_1">
      <!-- 0 -->
      <g transform="translate(70.578405 322.182437) scale(0.1 -0.1)">
       <defs>
        <path id="DejaVuSans-30" d="M 2034 4250 
Q 1547 4250 1301 3770 
Q 1056 3291 1056 2328 
Q 1056 1369 1301 889 
Q 1547 409 2034 409 
Q 2525 409 2770 889 
Q 3016 1369 3016 2328 
Q 3016 3291 2770 3770 
Q 2525 4250 2034 4250 
z
M 2034 4750 
Q 2819 4750 3233 4129 
Q 3647 3509 3647 2328 
Q 3647 1150 3233 529 
Q 2819 -91 2034 -91 
Q 1250 -91 836 529 
Q 422 1150 422 2328 
Q 422 3509 836 4129 
Q 1250 4750 2034 4750 
z
" transform="scale(0.015625)"/>
       </defs>
       <use xlink:href="#DejaVuSans-30"/>
      </g>
     </g>
    </g>
    <g id="xtick_2">
     <g id="line2d_2">
      <g>
       <use xlink:href="#m11bd71c003" x="140.189215" y="307.584" style="stroke: #000000; stroke-width: 0.8"/>
      </g>
     </g>
     <g id="text_2">
      <!-- 10000 -->
      <g transform="translate(124.282965 322.182437) scale(0.1 -0.1)">
       <defs>
        <path id="DejaVuSans-31" d="M 794 531 
L 1825 531 
L 1825 4091 
L 703 3866 
L 703 4441 
L 1819 4666 
L 2450 4666 
L 2450 531 
L 3481 531 
L 3481 0 
L 794 0 
L 794 531 
z
" transform="scale(0.015625)"/>
       </defs>
       <use xlink:href="#DejaVuSans-31"/>
       <use xlink:href="#DejaVuSans-30" x="63.623047"/>
       <use xlink:href="#DejaVuSans-30" x="127.246094"/>
       <use xlink:href="#DejaVuSans-30" x="190.869141"/>
       <use xlink:href="#DejaVuSans-30" x="254.492188"/>
      </g>
     </g>
    </g>
    <g id="xtick_3">
     <g id="line2d_3">
      <g>
       <use xlink:href="#m11bd71c003" x="206.618775" y="307.584" style="stroke: #000000; stroke-width: 0.8"/>
      </g>
     </g>
     <g id="text_3">
      <!-- 20000 -->
      <g transform="translate(190.712525 322.182437) scale(0.1 -0.1)">
       <defs>
        <path id="DejaVuSans-32" d="M 1228 531 
L 3431 531 
L 3431 0 
L 469 0 
L 469 531 
Q 828 903 1448 1529 
Q 2069 2156 2228 2338 
Q 2531 2678 2651 2914 
Q 2772 3150 2772 3378 
Q 2772 3750 2511 3984 
Q 2250 4219 1831 4219 
Q 1534 4219 1204 4116 
Q 875 4013 500 3803 
L 500 4441 
Q 881 4594 1212 4672 
Q 1544 4750 1819 4750 
Q 2544 4750 2975 4387 
Q 3406 4025 3406 3419 
Q 3406 3131 3298 2873 
Q 3191 2616 2906 2266 
Q 2828 2175 2409 1742 
Q 1991 1309 1228 531 
z
" transform="scale(0.015625)"/>
       </defs>
       <use xlink:href="#DejaVuSans-32"/>
       <use xlink:href="#DejaVuSans-30" x="63.623047"/>
       <use xlink:href="#DejaVuSans-30" x="127.246094"/>
       <use xlink:href="#DejaVuSans-30" x="190.869141"/>
       <use xlink:href="#DejaVuSans-30" x="254.492188"/>
      </g>
     </g>
    </g>
    <g id="xtick_4">
     <g id="line2d_4">
      <g>
       <use xlink:href="#m11bd71c003" x="273.048335" y="307.584" style="stroke: #000000; stroke-width: 0.8"/>
      </g>
     </g>
     <g id="text_4">
      <!-- 30000 -->
      <g transform="translate(257.142085 322.182437) scale(0.1 -0.1)">
       <defs>
        <path id="DejaVuSans-33" d="M 2597 2516 
Q 3050 2419 3304 2112 
Q 3559 1806 3559 1356 
Q 3559 666 3084 287 
Q 2609 -91 1734 -91 
Q 1441 -91 1130 -33 
Q 819 25 488 141 
L 488 750 
Q 750 597 1062 519 
Q 1375 441 1716 441 
Q 2309 441 2620 675 
Q 2931 909 2931 1356 
Q 2931 1769 2642 2001 
Q 2353 2234 1838 2234 
L 1294 2234 
L 1294 2753 
L 1863 2753 
Q 2328 2753 2575 2939 
Q 2822 3125 2822 3475 
Q 2822 3834 2567 4026 
Q 2313 4219 1838 4219 
Q 1578 4219 1281 4162 
Q 984 4106 628 3988 
L 628 4550 
Q 988 4650 1302 4700 
Q 1616 4750 1894 4750 
Q 2613 4750 3031 4423 
Q 3450 4097 3450 3541 
Q 3450 3153 3228 2886 
Q 3006 2619 2597 2516 
z
" transform="scale(0.015625)"/>
       </defs>
       <use xlink:href="#DejaVuSans-33"/>
       <use xlink:href="#DejaVuSans-30" x="63.623047"/>
       <use xlink:href="#DejaVuSans-30" x="127.246094"/>
       <use xlink:href="#DejaVuSans-30" x="190.869141"/>
       <use xlink:href="#DejaVuSans-30" x="254.492188"/>
      </g>
     </g>
    </g>
    <g id="xtick_5">
     <g id="line2d_5">
      <g>
       <use xlink:href="#m11bd71c003" x="339.477895" y="307.584" style="stroke: #000000; stroke-width: 0.8"/>
      </g>
     </g>
     <g id="text_5">
      <!-- 40000 -->
      <g transform="translate(323.571645 322.182437) scale(0.1 -0.1)">
       <defs>
        <path id="DejaVuSans-34" d="M 2419 4116 
L 825 1625 
L 2419 1625 
L 2419 4116 
z
M 2253 4666 
L 3047 4666 
L 3047 1625 
L 3713 1625 
L 3713 1100 
L 3047 1100 
L 3047 0 
L 2419 0 
L 2419 1100 
L 313 1100 
L 313 1709 
L 2253 4666 
z
" transform="scale(0.015625)"/>
       </defs>
       <use xlink:href="#DejaVuSans-34"/>
       <use xlink:href="#DejaVuSans-30" x="63.623047"/>
       <use xlink:href="#DejaVuSans-30" x="127.246094"/>
       <use xlink:href="#DejaVuSans-30" x="190.869141"/>
       <use xlink:href="#DejaVuSans-30" x="254.492188"/>
      </g>
     </g>
    </g>
    <g id="xtick_6">
     <g id="line2d_6">
      <g>
       <use xlink:href="#m11bd71c003" x="405.907455" y="307.584" style="stroke: #000000; stroke-width: 0.8"/>
      </g>
     </g>
     <g id="text_6">
      <!-- 50000 -->
      <g transform="translate(390.001205 322.182437) scale(0.1 -0.1)">
       <defs>
        <path id="DejaVuSans-35" d="M 691 4666 
L 3169 4666 
L 3169 4134 
L 1269 4134 
L 1269 2991 
Q 1406 3038 1543 3061 
Q 1681 3084 1819 3084 
Q 2600 3084 3056 2656 
Q 3513 2228 3513 1497 
Q 3513 744 3044 326 
Q 2575 -91 1722 -91 
Q 1428 -91 1123 -41 
Q 819 9 494 109 
L 494 744 
Q 775 591 1075 516 
Q 1375 441 1709 441 
Q 2250 441 2565 725 
Q 2881 1009 2881 1497 
Q 2881 1984 2565 2268 
Q 2250 2553 1709 2553 
Q 1456 2553 1204 2497 
Q 953 2441 691 2322 
L 691 4666 
z
" transform="scale(0.015625)"/>
       </defs>
       <use xlink:href="#DejaVuSans-35"/>
       <use xlink:href="#DejaVuSans-30" x="63.623047"/>
       <use xlink:href="#DejaVuSans-30" x="127.246094"/>
       <use xlink:href="#DejaVuSans-30" x="190.869141"/>
       <use xlink:href="#DejaVuSans-30" x="254.492188"/>
      </g>
     </g>
    </g>
    <g id="text_7">
     <!-- timesteps -->
     <g transform="translate(211.443594 335.860562) scale(0.1 -0.1)">
      <defs>
       <path id="DejaVuSans-74" d="M 1172 4494 
L 1172 3500 
L 2356 3500 
L 2356 3053 
L 1172 3053 
L 1172 1153 
Q 1172 725 1289 603 
Q 1406 481 1766 481 
L 2356 481 
L 2356 0 
L 1766 0 
Q 1100 0 847 248 
Q 594 497 594 1153 
L 594 3053 
L 172 3053 
L 172 3500 
L 594 3500 
L 594 4494 
L 1172 4494 
z
" transform="scale(0.015625)"/>
       <path id="DejaVuSans-69" d="M 603 3500 
L 1178 3500 
L 1178 0 
L 603 0 
L 603 3500 
z
M 603 4863 
L 1178 4863 
L 1178 4134 
L 603 4134 
L 603 4863 
z
" transform="scale(0.015625)"/>
       <path id="DejaVuSans-6d" d="M 3328 2828 
Q 3544 3216 3844 3400 
Q 4144 3584 4550 3584 
Q 5097 3584 5394 3201 
Q 5691 2819 5691 2113 
L 5691 0 
L 5113 0 
L 5113 2094 
Q 5113 2597 4934 2840 
Q 4756 3084 4391 3084 
Q 3944 3084 3684 2787 
Q 3425 2491 3425 1978 
L 3425 0 
L 2847 0 
L 2847 2094 
Q 2847 2600 2669 2842 
Q 2491 3084 2119 3084 
Q 1678 3084 1418 2786 
Q 1159 2488 1159 1978 
L 1159 0 
L 581 0 
L 581 3500 
L 1159 3500 
L 1159 2956 
Q 1356 3278 1631 3431 
Q 1906 3584 2284 3584 
Q 2666 3584 2933 3390 
Q 3200 3197 3328 2828 
z
" transform="scale(0.015625)"/>
       <path id="DejaVuSans-65" d="M 3597 1894 
L 3597 1613 
L 953 1613 
Q 991 1019 1311 708 
Q 1631 397 2203 397 
Q 2534 397 2845 478 
Q 3156 559 3463 722 
L 3463 178 
Q 3153 47 2828 -22 
Q 2503 -91 2169 -91 
Q 1331 -91 842 396 
Q 353 884 353 1716 
Q 353 2575 817 3079 
Q 1281 3584 2069 3584 
Q 2775 3584 3186 3129 
Q 3597 2675 3597 1894 
z
M 3022 2063 
Q 3016 2534 2758 2815 
Q 2500 3097 2075 3097 
Q 1594 3097 1305 2825 
Q 1016 2553 972 2059 
L 3022 2063 
z
" transform="scale(0.015625)"/>
       <path id="DejaVuSans-73" d="M 2834 3397 
L 2834 2853 
Q 2591 2978 2328 3040 
Q 2066 3103 1784 3103 
Q 1356 3103 1142 2972 
Q 928 2841 928 2578 
Q 928 2378 1081 2264 
Q 1234 2150 1697 2047 
L 1894 2003 
Q 2506 1872 2764 1633 
Q 3022 1394 3022 966 
Q 3022 478 2636 193 
Q 2250 -91 1575 -91 
Q 1294 -91 989 -36 
Q 684 19 347 128 
L 347 722 
Q 666 556 975 473 
Q 1284 391 1588 391 
Q 1994 391 2212 530 
Q 2431 669 2431 922 
Q 2431 1156 2273 1281 
Q 2116 1406 1581 1522 
L 1381 1569 
Q 847 1681 609 1914 
Q 372 2147 372 2553 
Q 372 3047 722 3315 
Q 1072 3584 1716 3584 
Q 2034 3584 2315 3537 
Q 2597 3491 2834 3397 
z
" transform="scale(0.015625)"/>
       <path id="DejaVuSans-70" d="M 1159 525 
L 1159 -1331 
L 581 -1331 
L 581 3500 
L 1159 3500 
L 1159 2969 
Q 1341 3281 1617 3432 
Q 1894 3584 2278 3584 
Q 2916 3584 3314 3078 
Q 3713 2572 3713 1747 
Q 3713 922 3314 415 
Q 2916 -91 2278 -91 
Q 1894 -91 1617 61 
Q 1341 213 1159 525 
z
M 3116 1747 
Q 3116 2381 2855 2742 
Q 2594 3103 2138 3103 
Q 1681 3103 1420 2742 
Q 1159 2381 1159 1747 
Q 1159 1113 1420 752 
Q 1681 391 2138 391 
Q 2594 391 2855 752 
Q 3116 1113 3116 1747 
z
" transform="scale(0.015625)"/>
      </defs>
      <use xlink:href="#DejaVuSans-74"/>
      <use xlink:href="#DejaVuSans-69" x="39.208984"/>
      <use xlink:href="#DejaVuSans-6d" x="66.992188"/>
      <use xlink:href="#DejaVuSans-65" x="164.404297"/>
      <use xlink:href="#DejaVuSans-73" x="225.927734"/>
      <use xlink:href="#DejaVuSans-74" x="278.027344"/>
      <use xlink:href="#DejaVuSans-65" x="317.236328"/>
      <use xlink:href="#DejaVuSans-70" x="378.759766"/>
      <use xlink:href="#DejaVuSans-73" x="442.236328"/>
     </g>
    </g>
   </g>
   <g id="matplotlib.axis_2">
    <g id="ytick_1">
     <g id="line2d_7">
      <defs>
       <path id="m92a0c2ce45" d="M 0 0 
L -3.5 0 
" style="stroke: #000000; stroke-width: 0.8"/>
      </defs>
      <g>
       <use xlink:href="#m92a0c2ce45" x="57.6" y="298.346444" style="stroke: #000000; stroke-width: 0.8"/>
      </g>
     </g>
     <g id="text_8">
      <!-- 0 -->
      <g transform="translate(44.2375 302.145662) scale(0.1 -0.1)">
       <use xlink:href="#DejaVuSans-30"/>
      </g>
     </g>
    </g>
    <g id="ytick_2">
     <g id="line2d_8">
      <g>
       <use xlink:href="#m92a0c2ce45" x="57.6" y="248.616487" style="stroke: #000000; stroke-width: 0.8"/>
      </g>
     </g>
     <g id="text_9">
      <!-- 50 -->
      <g transform="translate(37.875 252.415706) scale(0.1 -0.1)">
       <use xlink:href="#DejaVuSans-35"/>
       <use xlink:href="#DejaVuSans-30" x="63.623047"/>
      </g>
     </g>
    </g>
    <g id="ytick_3">
     <g id="line2d_9">
      <g>
       <use xlink:href="#m92a0c2ce45" x="57.6" y="198.886531" style="stroke: #000000; stroke-width: 0.8"/>
      </g>
     </g>
     <g id="text_10">
      <!-- 100 -->
      <g transform="translate(31.5125 202.68575) scale(0.1 -0.1)">
       <use xlink:href="#DejaVuSans-31"/>
       <use xlink:href="#DejaVuSans-30" x="63.623047"/>
       <use xlink:href="#DejaVuSans-30" x="127.246094"/>
      </g>
     </g>
    </g>
    <g id="ytick_4">
     <g id="line2d_10">
      <g>
       <use xlink:href="#m92a0c2ce45" x="57.6" y="149.156575" style="stroke: #000000; stroke-width: 0.8"/>
      </g>
     </g>
     <g id="text_11">
      <!-- 150 -->
      <g transform="translate(31.5125 152.955793) scale(0.1 -0.1)">
       <use xlink:href="#DejaVuSans-31"/>
       <use xlink:href="#DejaVuSans-35" x="63.623047"/>
       <use xlink:href="#DejaVuSans-30" x="127.246094"/>
      </g>
     </g>
    </g>
    <g id="ytick_5">
     <g id="line2d_11">
      <g>
       <use xlink:href="#m92a0c2ce45" x="57.6" y="99.426618" style="stroke: #000000; stroke-width: 0.8"/>
      </g>
     </g>
     <g id="text_12">
      <!-- 200 -->
      <g transform="translate(31.5125 103.225837) scale(0.1 -0.1)">
       <use xlink:href="#DejaVuSans-32"/>
       <use xlink:href="#DejaVuSans-30" x="63.623047"/>
       <use xlink:href="#DejaVuSans-30" x="127.246094"/>
      </g>
     </g>
    </g>
    <g id="ytick_6">
     <g id="line2d_12">
      <g>
       <use xlink:href="#m92a0c2ce45" x="57.6" y="49.696662" style="stroke: #000000; stroke-width: 0.8"/>
      </g>
     </g>
     <g id="text_13">
      <!-- 250 -->
      <g transform="translate(31.5125 53.495881) scale(0.1 -0.1)">
       <use xlink:href="#DejaVuSans-32"/>
       <use xlink:href="#DejaVuSans-35" x="63.623047"/>
       <use xlink:href="#DejaVuSans-30" x="127.246094"/>
      </g>
     </g>
    </g>
    <g id="text_14">
     <!-- rewards -->
     <g transform="translate(25.432812 194.447531) rotate(-90) scale(0.1 -0.1)">
      <defs>
       <path id="DejaVuSans-72" d="M 2631 2963 
Q 2534 3019 2420 3045 
Q 2306 3072 2169 3072 
Q 1681 3072 1420 2755 
Q 1159 2438 1159 1844 
L 1159 0 
L 581 0 
L 581 3500 
L 1159 3500 
L 1159 2956 
Q 1341 3275 1631 3429 
Q 1922 3584 2338 3584 
Q 2397 3584 2469 3576 
Q 2541 3569 2628 3553 
L 2631 2963 
z
" transform="scale(0.015625)"/>
       <path id="DejaVuSans-77" d="M 269 3500 
L 844 3500 
L 1563 769 
L 2278 3500 
L 2956 3500 
L 3675 769 
L 4391 3500 
L 4966 3500 
L 4050 0 
L 3372 0 
L 2619 2869 
L 1863 0 
L 1184 0 
L 269 3500 
z
" transform="scale(0.015625)"/>
       <path id="DejaVuSans-61" d="M 2194 1759 
Q 1497 1759 1228 1600 
Q 959 1441 959 1056 
Q 959 750 1161 570 
Q 1363 391 1709 391 
Q 2188 391 2477 730 
Q 2766 1069 2766 1631 
L 2766 1759 
L 2194 1759 
z
M 3341 1997 
L 3341 0 
L 2766 0 
L 2766 531 
Q 2569 213 2275 61 
Q 1981 -91 1556 -91 
Q 1019 -91 701 211 
Q 384 513 384 1019 
Q 384 1609 779 1909 
Q 1175 2209 1959 2209 
L 2766 2209 
L 2766 2266 
Q 2766 2663 2505 2880 
Q 2244 3097 1772 3097 
Q 1472 3097 1187 3025 
Q 903 2953 641 2809 
L 641 3341 
Q 956 3463 1253 3523 
Q 1550 3584 1831 3584 
Q 2591 3584 2966 3190 
Q 3341 2797 3341 1997 
z
" transform="scale(0.015625)"/>
       <path id="DejaVuSans-64" d="M 2906 2969 
L 2906 4863 
L 3481 4863 
L 3481 0 
L 2906 0 
L 2906 525 
Q 2725 213 2448 61 
Q 2172 -91 1784 -91 
Q 1150 -91 751 415 
Q 353 922 353 1747 
Q 353 2572 751 3078 
Q 1150 3584 1784 3584 
Q 2172 3584 2448 3432 
Q 2725 3281 2906 2969 
z
M 947 1747 
Q 947 1113 1208 752 
Q 1469 391 1925 391 
Q 2381 391 2643 752 
Q 2906 1113 2906 1747 
Q 2906 2381 2643 2742 
Q 2381 3103 1925 3103 
Q 1469 3103 1208 2742 
Q 947 2381 947 1747 
z
" transform="scale(0.015625)"/>
      </defs>
      <use xlink:href="#DejaVuSans-72"/>
      <use xlink:href="#DejaVuSans-65" x="38.863281"/>
      <use xlink:href="#DejaVuSans-77" x="100.386719"/>
      <use xlink:href="#DejaVuSans-61" x="182.173828"/>
      <use xlink:href="#DejaVuSans-72" x="243.453125"/>
      <use xlink:href="#DejaVuSans-64" x="282.816406"/>
      <use xlink:href="#DejaVuSans-73" x="346.292969"/>
     </g>
    </g>
   </g>
   <g id="line2d_13">
    <path d="M 73.832727 289.698053 
L 73.912443 290.050634 
L 74.08516 288.553675 
L 74.171518 290.157398 
L 74.457165 281.403159 
L 74.563452 287.288004 
L 74.689669 284.808388 
L 74.822528 285.505759 
L 74.96203 285.333114 
L 75.028459 292.371336 
L 75.327392 275.47096 
L 75.48018 286.144434 
L 75.65954 269.107284 
L 75.759185 283.118293 
L 75.945187 281.6476 
L 76.051475 287.380249 
L 76.171048 282.184771 
L 76.24412 289.675948 
L 76.376979 283.26687 
L 76.549696 283.030443 
L 76.682555 285.095816 
L 76.768914 289.455099 
L 77.041275 270.570918 
L 77.18742 289.029628 
L 77.320279 286.264835 
L 77.599283 263.56906 
L 77.938074 280.746887 
L 78.077576 279.464572 
L 78.296794 287.855576 
L 78.509368 272.867556 
L 78.60237 287.594224 
L 78.721943 288.188913 
L 78.881374 285.14706 
L 78.987661 287.828908 
L 79.113877 282.239446 
L 79.492526 225.301268 
L 79.598813 288.271033 
L 79.798102 268.213571 
L 79.904389 285.428868 
L 80.023962 284.51239 
L 80.156821 280.479225 
L 80.289681 282.97255 
L 80.402611 289.952577 
L 80.694901 275.105021 
L 80.854332 281.349184 
L 80.914118 293.178604 
L 81.020406 284.908283 
L 81.352553 216.148057 
L 81.485413 285.765602 
L 81.864061 208.267461 
L 82.076636 292.687262 
L 82.395498 283.626011 
L 82.601429 288.075041 
L 82.840576 252.909668 
L 82.993364 276.765738 
L 83.152795 273.264698 
L 83.425156 286.291969 
L 83.571301 281.878789 
L 83.750661 290.851372 
L 83.863591 287.081226 
L 83.969878 287.723476 
L 84.189096 291.555246 
L 84.308669 288.839578 
L 84.594316 285.276702 
L 84.727175 288.088845 
L 84.826819 286.64359 
L 84.946393 292.565902 
L 85.065966 281.348663 
L 85.245326 277.044198 
L 85.371542 279.965558 
L 85.617331 289.191496 
L 85.876406 275.443314 
L 85.956122 289.446289 
L 86.294913 272.463956 
L 86.454344 290.76005 
L 86.640346 287.030611 
L 86.739991 289.61283 
L 86.832992 286.4005 
L 86.912708 289.247045 
L 86.992423 288.623109 
L 87.191712 259.695854 
L 87.57036 289.876524 
L 87.723148 284.457874 
L 88.068582 289.759608 
L 88.228013 274.004778 
L 88.301085 290.677443 
L 88.394087 289.629842 
L 88.759449 266.13015 
L 88.852451 285.496963 
L 88.958738 285.386189 
L 89.084954 283.498574 
L 89.204527 287.168046 
L 89.430388 255.518105 
L 89.696106 263.31712 
L 89.802393 286.480079 
L 89.921967 280.309707 
L 90.214257 289.050816 
L 90.479975 257.379446 
L 90.533119 292.353163 
L 90.865266 268.839612 
L 90.958268 285.198107 
L 91.416632 261.082004 
L 91.516276 288.012833 
L 91.755423 284.435486 
L 91.815209 292.374441 
L 91.961354 278.670396 
L 92.060999 291.766275 
L 92.532648 193.357724 
L 92.765152 284.049342 
L 93.064085 277.119884 
L 93.170372 289.996541 
L 93.250088 289.981598 
L 93.343089 290.186185 
L 93.575592 276.423454 
L 93.808096 290.358883 
L 94.007385 279.273936 
L 94.279746 277.896862 
L 94.386033 289.690545 
L 94.55875 283.066236 
L 94.744753 262.71683 
L 94.844397 290.650824 
L 94.983899 285.985323 
L 95.342619 264.332314 
L 95.428977 289.425895 
L 95.535265 288.232994 
L 95.654838 288.7816 
L 95.747839 285.516215 
L 95.880698 293.370454 
L 96.119845 279.243737 
L 96.219489 287.408151 
L 96.339062 284.125858 
L 96.677853 290.526896 
L 96.843927 280.609256 
L 96.976786 285.550425 
L 97.089716 284.548251 
L 97.189361 286.235585 
L 97.362077 282.512084 
L 97.494937 285.416046 
L 97.780584 277.062588 
L 97.880228 285.473863 
L 98.01973 287.750518 
L 98.391736 267.064538 
L 98.584381 283.657279 
L 98.78367 270.492353 
L 98.929815 276.464142 
L 99.095889 269.663426 
L 99.208819 290.328698 
L 99.315106 286.031225 
L 99.574182 258.282061 
L 99.813328 289.558368 
L 100.079046 284.475048 
L 100.331479 284.219945 
L 100.411194 289.503129 
L 100.763271 264.550015 
L 100.955917 273.497801 
L 101.135276 288.553582 
L 101.400995 279.459763 
L 101.533854 277.218143 
L 101.879287 234.354015 
L 102.038718 291.294858 
L 102.111791 289.571667 
L 102.257936 276.290681 
L 102.337651 291.819672 
L 102.510368 279.556497 
L 102.669799 290.739728 
L 102.842516 287.39622 
L 103.035162 279.115713 
L 103.234451 290.360324 
L 103.340738 288.751448 
L 103.626385 260.29319 
L 103.732672 282.600703 
L 103.892103 281.618032 
L 104.197679 262.911532 
L 104.456754 291.458795 
L 104.543113 290.499672 
L 104.802188 283.394352 
L 104.94169 286.39281 
L 105.140979 264.478712 
L 105.280481 288.167991 
L 105.400054 289.391515 
L 105.99792 228.585649 
L 106.11085 283.479519 
L 106.223781 284.277383 
L 106.423069 284.870814 
L 106.615715 280.322706 
L 106.741931 282.93717 
L 106.914648 275.541725 
L 107.253439 288.97249 
L 107.373012 280.248696 
L 107.446085 289.491957 
L 107.519157 289.113402 
L 107.804804 241.894927 
L 107.891163 286.798182 
L 108.017379 285.78425 
L 108.17681 282.164724 
L 108.276454 283.67327 
L 108.409313 283.313354 
L 108.708246 292.185978 
L 108.934107 276.634374 
L 109.040394 288.259909 
L 109.286183 244.34321 
L 109.399114 287.19935 
L 109.611688 274.094472 
L 109.844192 289.072779 
L 109.957122 287.275784 
L 110.023552 291.562043 
L 110.236126 257.550703 
L 110.322485 290.010672 
L 110.442058 286.950334 
L 110.574917 277.425032 
L 110.701133 282.165274 
L 110.98678 249.67554 
L 111.05321 292.150728 
L 111.265784 282.674316 
L 111.352143 290.462239 
L 111.52486 270.164953 
L 111.657719 278.774358 
L 111.910151 277.838848 
L 112.089511 291.16003 
L 112.202441 292.806798 
L 112.587733 210.290167 
L 112.800307 289.298391 
L 113.371601 171.97429 
L 113.537675 281.475009 
L 113.717035 283.108214 
L 113.829965 290.555827 
L 113.936253 282.459867 
L 114.069112 284.799753 
L 114.434474 263.533624 
L 114.607191 271.084647 
L 114.733407 287.615282 
L 114.826409 286.797514 
L 114.892838 292.337297 
L 115.005769 284.521504 
L 115.357845 248.862808 
L 115.550491 292.386575 
L 115.689993 286.431495 
L 115.849424 293.822041 
L 116.055356 287.277887 
L 116.241358 265.017656 
L 116.500434 286.981991 
L 116.606721 284.098139 
L 116.679793 293.382304 
L 116.759509 289.775641 
L 116.899011 285.423007 
L 116.978726 289.216965 
L 117.237802 277.125756 
L 117.403876 287.195485 
L 117.536735 282.47654 
L 117.749309 288.741078 
L 118.0881 268.51189 
L 118.307318 265.703177 
L 118.513249 291.806908 
L 118.685966 272.259034 
L 118.812182 283.203354 
L 119.004828 280.390332 
L 119.104472 287.479348 
L 119.197474 284.155531 
L 119.297118 288.037705 
L 119.429977 284.140723 
L 119.602694 289.946256 
L 119.708981 285.503971 
L 119.855126 291.795936 
L 119.9747 282.984763 
L 120.074344 285.906432 
L 120.213846 273.026191 
L 120.300204 286.904251 
L 120.466278 287.776172 
L 120.565923 285.186948 
L 120.765211 268.859699 
L 120.844927 288.096266 
L 121.336506 260.090909 
L 121.628796 288.920958 
L 121.84137 261.923917 
L 121.954301 280.138755 
L 122.080517 281.459779 
L 122.206733 283.966637 
L 122.685026 214.068192 
L 122.884314 288.412028 
L 122.950744 290.692008 
L 123.130104 271.924991 
L 123.203176 289.682727 
L 123.282892 287.689253 
L 123.595111 242.446482 
L 123.827614 287.08605 
L 124.153119 283.302832 
L 124.398908 258.779136 
L 124.631412 288.805101 
L 124.770914 278.234591 
L 124.890487 281.49422 
L 124.976845 287.219351 
L 125.215992 289.815763 
L 125.514925 283.93903 
L 125.614569 285.951512 
L 125.707571 290.205474 
L 125.867002 284.112607 
L 125.933431 292.040705 
L 126.033075 285.353432 
L 126.165935 284.430006 
L 126.24565 290.622118 
L 126.385152 278.701468 
L 126.471511 287.79304 
L 126.737229 272.680763 
L 126.870088 282.709157 
L 127.155735 242.781496 
L 127.268665 286.560396 
L 127.700457 240.467702 
L 127.780173 289.67301 
L 127.873174 289.46818 
L 127.966176 288.410147 
L 128.152178 270.966891 
L 128.411254 288.521667 
L 128.497612 287.264018 
L 128.776616 263.713348 
L 128.869618 288.400815 
L 129.075549 288.553751 
L 129.18848 283.045872 
L 129.254909 290.533201 
L 129.434269 289.259138 
L 129.587057 290.989822 
L 129.739845 282.551825 
L 129.812917 290.908901 
L 129.99892 292.090497 
L 130.078636 291.201061 
L 130.204852 280.370103 
L 130.483856 289.030165 
L 130.610072 279.465633 
L 130.723002 281.456584 
L 130.796075 290.840915 
L 131.101651 285.637309 
L 131.174723 289.123098 
L 131.393941 286.057354 
L 131.586587 272.897274 
L 131.898806 281.679904 
L 131.965235 290.852598 
L 132.104737 276.912355 
L 132.237596 287.343778 
L 132.397027 272.219377 
L 132.596316 276.673636 
L 132.868677 292.292671 
L 133.127752 263.413771 
L 133.207468 290.069021 
L 133.340327 283.531421 
L 133.406757 291.677391 
L 133.699047 221.321584 
L 133.825263 280.705685 
L 133.971408 284.213149 
L 134.17734 279.185098 
L 134.276984 285.621688 
L 134.648989 281.382897 
L 134.728705 289.054567 
L 135.040924 261.929468 
L 135.226927 268.182595 
L 135.299999 291.520775 
L 135.52586 268.31901 
L 135.718505 290.575529 
L 135.891222 268.566392 
L 136.057296 275.315901 
L 136.150297 285.926765 
L 136.329657 278.569727 
L 136.44923 280.936165 
L 136.608661 291.544575 
L 136.841165 251.68578 
L 136.98731 278.527167 
L 137.286243 278.782574 
L 137.379244 285.89996 
L 137.512103 282.954267 
L 137.611748 287.627015 
L 137.771179 274.478084 
L 137.850894 291.755709 
L 138.229543 284.767907 
L 138.422188 268.102426 
L 138.641406 273.900108 
L 138.834052 290.696575 
L 139.066555 268.647812 
L 139.318987 285.920948 
L 139.511633 290.126127 
L 139.657778 276.819601 
L 140.581149 53.568 
L 140.866796 289.777169 
L 141.205587 219.794929 
L 141.517806 282.9341 
L 141.624093 285.845891 
L 141.756952 284.100314 
L 141.836668 290.379112 
L 142.042599 285.060319 
L 142.182102 285.696306 
L 142.241888 291.98646 
L 142.328247 291.096505 
L 142.454463 280.183021 
L 142.62718 288.029253 
L 142.720181 287.917096 
L 142.826468 289.081124 
L 143.39112 219.066838 
L 143.477478 287.03766 
L 143.942485 210.956727 
L 144.068701 286.983571 
L 144.334419 259.0244 
L 144.520422 286.282661 
L 144.726354 275.405221 
L 144.825998 285.183468 
L 145.151503 262.091621 
L 145.350792 291.805484 
L 145.483651 287.297334 
L 145.596581 290.920383 
L 145.742726 273.485091 
L 145.809155 290.024614 
L 146.08816 256.293848 
L 146.446879 245.148742 
L 146.49338 293.261102 
L 146.566452 290.422651 
L 146.639525 289.468596 
L 146.725883 289.799032 
L 146.838814 283.37599 
L 146.925172 290.727928 
L 147.184247 276.37131 
L 147.476537 270.386174 
L 147.576182 290.11549 
L 147.702398 284.540382 
L 147.895044 290.060432 
L 147.994688 289.056926 
L 148.081046 290.721171 
L 148.167405 286.108303 
L 148.253763 289.04581 
L 148.393265 275.516369 
L 148.645698 276.816968 
L 148.825058 287.270853 
L 149.01106 266.530089 
L 149.104062 292.882945 
L 149.542497 259.84586 
L 149.721857 268.615993 
L 149.934431 286.526658 
L 150.113791 272.747183 
L 150.193506 289.595471 
L 150.372866 277.229525 
L 150.465868 286.506321 
L 150.884374 221.190416 
L 151.030519 282.183445 
L 151.156735 282.179568 
L 151.316166 268.095449 
L 151.508812 289.578205 
L 151.854245 238.278574 
L 152.100035 291.16756 
L 152.239537 278.75497 
L 152.385682 289.286543 
L 152.511898 285.783394 
L 152.598257 286.937591 
L 152.697901 282.68604 
L 152.797545 287.478321 
L 152.94369 276.001615 
L 153.063263 284.245195 
L 153.275838 283.986221 
L 153.382125 282.845692 
L 153.661129 273.768847 
L 153.913562 281.610804 
L 154.053064 279.677526 
L 154.298853 272.772804 
L 154.591143 222.469411 
L 154.757217 283.012438 
L 154.936577 268.561119 
L 155.368369 180.061992 
L 155.481299 284.129837 
L 155.899806 274.248107 
L 156.099094 274.489059 
L 156.251882 271.717305 
L 156.398027 289.842204 
L 156.597316 283.843408 
L 156.776676 272.530565 
L 157.009179 284.008365 
L 157.447614 207.842454 
L 157.607045 273.468799 
L 157.992337 205.809766 
L 158.118553 283.389196 
L 158.390914 231.017672 
L 158.742991 291.108869 
L 159.028638 223.531295 
L 159.154854 285.071594 
L 159.367429 246.156639 
L 159.673005 262.280373 
L 159.912151 239.612904 
L 160.164583 232.543671 
L 160.317371 292.761742 
L 160.589733 231.455336 
L 160.715949 278.491823 
L 160.92188 250.344205 
L 161.546318 219.65574 
L 161.758893 246.310758 
L 161.984753 242.524786 
L 162.184042 278.140712 
L 162.316901 279.502394 
L 162.69555 222.066201 
L 162.908124 246.005491 
L 163.246915 218.277822 
L 163.612278 288.022935 
L 163.858067 235.193656 
L 164.024141 256.456718 
L 164.203501 253.358646 
L 164.681793 234.304574 
L 164.887725 246.167476 
L 165.631736 227.593357 
L 165.917383 239.645531 
L 166.342532 187.256425 
L 166.827468 292.78065 
L 167.059972 241.704884 
L 167.32569 231.398067 
L 167.571479 237.042019 
L 167.823912 239.544769 
L 168.162702 213.122672 
L 168.388563 242.288579 
L 168.574566 251.75394 
L 168.820355 240.388179 
L 169.019644 249.502605 
L 169.351792 221.374169 
L 169.531151 253.208442 
L 169.737083 245.823345 
L 170.002801 229.15813 
L 170.162232 257.473512 
L 170.374807 246.010244 
L 170.56081 251.296727 
L 170.859743 237.625458 
L 171.032459 255.39606 
L 171.610397 203.147185 
L 171.796399 251.184441 
L 171.962473 255.372332 
L 172.188334 243.865693 
L 172.347765 295.488 
L 172.520482 254.630709 
L 172.686555 255.985196 
L 172.912416 247.582969 
L 173.098419 251.963646 
L 173.297707 247.664757 
L 173.470424 254.443712 
L 173.882288 211.164365 
L 174.074933 250.494871 
L 174.254293 253.323028 
L 174.559869 232.039345 
L 174.725943 256.463737 
L 174.918589 250.286527 
L 175.07802 257.191597 
L 175.244094 255.40292 
L 175.463311 244.315672 
L 175.622742 257.347446 
L 176.147536 252.825436 
L 176.326895 253.351791 
L 176.639114 226.190147 
L 176.805188 256.072483 
L 176.997834 250.330136 
L 177.329982 256.993588 
L 177.549199 248.991097 
L 177.755131 246.521484 
L 178.073993 258.924632 
L 178.233424 257.08447 
L 178.412784 252.440634 
L 178.572214 256.32649 
L 178.904362 255.71786 
L 179.083722 253.041354 
L 179.409227 257.789635 
L 179.575301 255.597883 
L 179.734732 256.657433 
L 179.900806 255.143206 
L 180.060237 256.867552 
L 180.219668 257.235915 
L 180.551815 255.254969 
L 180.737818 250.392568 
L 180.917178 253.087236 
L 181.076609 257.256206 
L 181.255969 253.196547 
L 181.4154 257.300608 
L 181.734262 257.343194 
L 181.893692 256.925866 
L 182.059766 255.425734 
L 182.239126 251.742559 
L 182.4052 255.381009 
L 182.571274 255.609782 
L 182.750634 253.567128 
L 182.916708 255.20587 
L 183.082782 255.589055 
L 183.255498 254.909858 
L 183.454787 247.264449 
L 183.600932 261.584654 
L 183.75372 258.985596 
L 183.906508 259.238373 
L 184.099154 250.377387 
L 184.265228 256.045526 
L 184.431302 256.017011 
L 185.188599 194.427112 
L 185.341387 258.527886 
L 185.514103 254.714717 
L 185.680177 255.575319 
L 185.846251 255.327266 
L 186.005682 257.359178 
L 186.171756 256.412786 
L 186.550405 246.986936 
L 186.749693 246.805315 
L 186.929053 253.304364 
L 187.320988 246.297066 
L 187.487061 255.687023 
L 187.86571 248.939437 
L 188.04507 253.569754 
L 188.237715 249.423438 
L 188.423718 251.829068 
L 188.649579 243.139578 
L 188.822296 254.49414 
L 188.988369 255.340146 
L 189.174372 251.068124 
L 189.499877 256.908792 
L 189.652665 258.743515 
L 189.805453 258.490052 
L 189.964884 257.0052 
L 190.117672 258.492896 
L 190.27046 258.410504 
L 190.416605 260.046364 
L 190.569393 258.200939 
L 190.722181 258.33835 
L 190.881612 257.122249 
L 191.0344 258.729942 
L 191.187188 258.504786 
L 191.333333 259.981372 
L 191.486121 258.392537 
L 191.638909 258.599816 
L 191.791697 258.199599 
L 191.944485 258.960497 
L 192.250061 258.435266 
L 192.402849 258.588574 
L 192.555637 258.448995 
L 192.708425 258.769962 
L 192.867856 257.067662 
L 193.027287 256.754141 
L 193.200004 253.712117 
L 193.352792 258.600114 
L 193.512223 256.679864 
L 193.66501 258.539984 
L 193.817798 258.507491 
L 194.13666 256.913085 
L 194.289448 258.786084 
L 194.455522 254.85281 
L 194.60831 258.485344 
L 194.767741 256.976113 
L 194.920529 258.999058 
L 195.073317 258.608584 
L 195.239391 255.705089 
L 195.405465 255.463523 
L 195.558253 258.215035 
L 195.711041 258.477612 
L 195.870472 257.017558 
L 196.016617 260.400789 
L 196.169405 258.201626 
L 196.322193 257.833038 
L 196.49491 253.182031 
L 196.647698 258.496308 
L 196.820415 252.723265 
L 196.96656 260.271578 
L 197.119348 258.596544 
L 197.272136 258.652774 
L 197.424924 258.050295 
L 197.577712 258.624412 
L 197.7305 258.654944 
L 197.889931 256.781068 
L 198.036076 260.019139 
L 198.348294 256.527242 
L 198.501082 258.38733 
L 198.65387 258.529708 
L 198.806658 258.426547 
L 198.959446 258.563059 
L 199.112234 258.39536 
L 199.265022 258.950827 
L 199.41781 258.365979 
L 199.570598 258.650222 
L 199.723386 258.668877 
L 199.88946 255.596498 
L 200.055534 254.836541 
L 200.214965 256.489973 
L 200.374396 256.74595 
L 200.527184 258.546858 
L 200.693258 255.221076 
L 200.846046 258.867171 
L 200.998834 258.787154 
L 201.151622 258.275984 
L 201.291124 261.828549 
L 201.603343 256.436145 
L 201.915562 257.884361 
L 202.088279 253.815895 
L 202.254353 254.802717 
L 202.433712 251.0677 
L 202.593143 257.351339 
L 202.759217 255.292224 
L 202.925291 255.132701 
L 203.091365 255.199522 
L 203.244153 258.106478 
L 203.41687 252.869841 
L 203.569658 258.111778 
L 203.921735 250.612113 
L 204.074523 258.320302 
L 204.233953 256.481887 
L 204.386741 258.444554 
L 204.546172 256.830527 
L 204.718889 253.412063 
L 204.891606 252.809641 
L 205.044394 258.486193 
L 205.197182 258.44244 
L 205.555902 248.734367 
L 205.70869 258.665032 
L 205.861478 258.546969 
L 206.020909 256.615326 
L 206.485916 258.552065 
L 206.651989 255.172182 
L 206.818063 254.394021 
L 206.970851 258.497634 
L 207.136925 255.494991 
L 207.289713 258.485869 
L 207.449144 257.170604 
L 207.621861 252.02953 
L 207.787935 254.059852 
L 207.940723 258.463307 
L 208.11344 253.231244 
L 208.266228 258.562578 
L 208.472159 242.808834 
L 208.777735 260.093115 
L 208.930523 258.444867 
L 209.2826 249.130151 
L 209.435388 258.279701 
L 209.581533 260.303847 
L 209.893752 256.551066 
L 210.053183 256.932308 
L 210.219257 255.174807 
L 210.418546 245.309927 
L 210.604548 249.163922 
L 210.850338 231.429526 
L 211.049626 245.785763 
L 211.341916 219.137166 
L 211.879996 226.035178 
L 212.192215 213.67173 
L 212.438004 231.512078 
L 212.703722 226.249793 
L 212.976084 224.766961 
L 213.21523 234.796413 
L 213.461019 232.184118 
L 213.720095 227.3258 
L 213.97917 228.450427 
L 214.457463 234.77308 
L 214.696609 233.473387 
L 214.955684 226.15755 
L 215.32769 196.495644 
L 215.706338 193.161807 
L 216.051772 202.243731 
L 216.45035 188.457393 
L 216.842284 189.995495 
L 217.074787 235.16904 
L 217.499937 179.458807 
L 217.945015 173.720522 
L 218.184161 233.725558 
L 218.642525 170.113226 
L 219.114175 164.81981 
L 219.572539 168.672211 
L 219.991045 184.392208 
L 220.960917 146.229072 
L 221.419281 168.842705 
L 221.897573 248.14643 
L 222.169935 224.946112 
L 222.615013 174.888495 
L 223.046805 179.678639 
L 224.036605 143.223085 
L 224.973262 173.834946 
L 225.212409 232.209844 
L 225.478127 226.038958 
L 225.750488 223.920253 
L 226.222138 163.696331 
L 226.693788 165.424875 
L 227.145509 173.102404 
L 227.59723 173.147738 
L 228.042308 175.660647 
L 228.520601 163.764511 
L 229.005536 160.023565 
L 229.470543 169.378854 
L 229.942193 164.84922 
L 230.413843 165.228332 
L 230.858921 176.28911 
L 231.343857 159.034346 
L 231.82215 162.294463 
L 232.300443 162.087457 
L 232.778735 162.788471 
L 233.257028 162.157527 
L 233.728678 165.419752 
L 234.306615 122.790448 
L 234.877909 124.714331 
L 235.442561 125.421402 
L 235.967354 146.044673 
L 236.485505 148.332927 
L 237.016941 142.429385 
L 237.548378 142.703536 
L 238.086457 141.591425 
L 238.624537 140.221315 
L 239.155973 142.929509 
L 239.694053 141.159799 
L 240.238775 138.431703 
L 240.783497 139.147466 
L 241.32822 136.697331 
L 241.879585 132.138178 
L 242.424308 137.177871 
L 242.988959 128.501735 
L 243.560253 122.787206 
L 244.131547 123.389177 
L 244.702841 124.491959 
L 245.26085 125.945456 
L 245.812215 131.928288 
L 246.370223 125.508727 
L 246.821944 172.812598 
L 247.300237 164.343407 
L 247.771887 167.358276 
L 248.236894 167.905017 
L 248.728473 159.143136 
L 249.293124 128.150243 
L 249.857775 127.499945 
L 250.429069 126.07734 
L 250.980435 135.612552 
L 251.551729 124.946689 
L 252.083166 143.966707 
L 252.634531 132.217826 
L 253.199182 128.971613 
L 253.750547 132.325958 
L 254.308556 131.331389 
L 254.87985 128.306793 
L 255.424572 126.666093 
L 255.969295 138.03082 
L 256.514017 138.606772 
L 257.098597 124.294491 
L 257.636677 140.864085 
L 258.181399 133.582147 
L 258.739407 128.512526 
L 259.304059 121.787405 
L 259.848781 137.217168 
L 260.400146 135.382043 
L 260.964798 132.112836 
L 261.522806 131.199595 
L 262.067528 136.755376 
L 262.638823 125.174104 
L 263.203474 131.061992 
L 263.768125 128.548361 
L 264.326133 132.091054 
L 264.890785 129.06062 
L 265.462079 123.384522 
L 266.02673 128.202549 
L 266.604667 123.052734 
L 267.169319 130.41045 
L 267.747256 123.04985 
L 268.291978 136.830597 
L 268.823415 143.868898 
L 269.361494 142.29398 
L 269.912859 135.515319 
L 270.457582 138.526588 
L 271.008947 133.656334 
L 271.500526 158.723872 
L 271.985462 161.572454 
L 272.483683 156.31374 
L 272.988548 153.259933 
L 273.500056 151.352451 
L 273.984991 161.839205 
L 274.509785 145.018277 
L 275.021293 151.405423 
L 275.5328 151.754766 
L 276.064237 141.115489 
L 276.595673 141.596826 
L 277.12711 141.529989 
L 277.691761 130.751936 
L 278.269698 125.343534 
L 278.840992 125.60029 
L 279.405644 124.760958 
L 279.970295 131.35699 
L 280.541589 125.843271 
L 281.112883 125.115145 
L 281.677534 125.893369 
L 282.248829 129.292302 
L 282.820123 130.49326 
L 283.39806 126.687944 
L 283.969354 129.452233 
L 284.534006 128.515211 
L 285.1053 131.551375 
L 285.676594 126.882308 
L 286.247888 129.268839 
L 286.825825 127.314591 
L 287.39712 128.342748 
L 287.968414 130.75666 
L 288.539708 129.870134 
L 288.712425 252.892474 
L 289.283719 127.088469 
L 289.861656 126.88577 
L 290.439593 127.428512 
L 291.010888 125.482957 
L 291.55561 136.959229 
L 292.126904 125.610515 
L 292.67827 135.898598 
L 293.19642 148.878525 
L 293.714571 147.817546 
L 294.279222 122.215759 
L 294.857159 125.494216 
L 295.428453 125.080314 
L 295.999748 126.14729 
L 296.571042 126.67945 
L 297.142336 124.967596 
L 297.706987 125.683359 
L 298.284924 123.948778 
L 298.842933 125.265677 
L 299.407584 123.002686 
L 299.972235 124.636424 
L 300.36417 189.294239 
L 300.782676 182.362858 
L 301.274255 158.528016 
L 301.706047 179.950259 
L 302.044838 205.149671 
L 302.463344 183.930147 
L 302.828706 198.483768 
L 303.180783 202.154237 
L 303.64579 167.084642 
L 304.031081 192.372772 
L 304.535946 152.092353 
L 305.087311 129.443948 
L 305.479246 191.279167 
L 306.043897 120.634316 
L 306.601905 127.492734 
L 307.1732 123.357658 
L 307.737851 128.224331 
L 308.302502 126.68682 
L 308.873796 125.754612 
L 309.431805 132.382909 
L 309.664308 235.365463 
L 310.169173 228.502898 
L 310.733824 125.314164 
L 311.305118 125.081786 
L 311.876412 127.642073 
L 312.447707 124.873636 
L 313.019001 125.024795 
L 313.596938 124.881891 
L 314.168232 127.414717 
L 314.739526 122.932039 
L 315.304178 123.504093 
L 315.868829 123.236824 
L 316.446766 124.085685 
L 317.004774 123.15649 
L 317.569426 122.748824 
L 318.685442 130.408779 
L 319.26338 126.172911 
L 319.502526 234.067501 
L 319.735029 236.370207 
L 320.299681 119.517899 
L 320.538827 233.948442 
L 320.784616 234.542696 
L 321.37584 214.839324 
L 321.66813 218.157725 
L 322.07335 248.560498 
L 322.644644 123.905095 
L 323.215938 125.910277 
L 323.793876 126.795957 
L 324.046308 230.212743 
L 324.617602 127.997821 
L 325.182253 130.325253 
L 325.461257 221.643635 
L 326.032552 126.722486 
L 326.271698 234.529507 
L 326.563988 218.485107 
L 326.776563 242.951005 
L 327.321285 125.231015 
L 327.892579 123.659698 
L 328.457231 126.745332 
L 329.028525 126.494763 
L 329.300886 223.367713 
L 329.865537 124.954845 
L 330.443474 127.00179 
L 331.001483 115.77004 
L 331.566134 131.964501 
L 332.137428 122.137852 
L 333.273374 125.976656 
L 333.824739 122.030773 
L 334.376104 129.395064 
L 334.934113 117.435198 
L 335.492121 125.51931 
L 336.043486 124.613787 
L 336.601495 134.069103 
L 337.15286 137.126331 
L 337.710868 128.167341 
L 338.262234 130.780859 
L 338.826885 127.552808 
L 339.391536 131.317743 
L 339.956187 130.00538 
L 340.122261 255.163691 
L 340.554053 182.255246 
L 341.005774 174.315009 
L 341.577069 123.373035 
L 341.763071 249.057475 
L 341.935788 253.705411 
L 342.108505 252.909631 
L 342.666513 123.109496 
L 343.231165 122.575645 
L 343.802459 128.800055 
L 344.373753 129.790258 
L 345.509699 124.192147 
L 346.087636 124.49162 
L 346.652287 121.013119 
L 347.230224 125.571128 
L 347.801518 127.384372 
L 348.352884 121.607273 
L 348.924178 124.01466 
L 349.488829 123.516854 
L 350.598203 121.950629 
L 351.156211 130.787234 
L 351.435215 224.017694 
L 351.986581 124.702286 
L 352.551232 126.790656 
L 353.10924 127.752294 
L 353.680535 126.416398 
L 354.245186 128.189281 
L 354.809837 123.040421 
L 355.374488 127.120157 
L 355.925854 128.686402 
L 356.483862 128.36271 
L 357.048513 130.671821 
L 357.613164 127.966451 
L 358.729181 124.662761 
L 359.300475 126.755268 
L 359.878412 126.514526 
L 360.449707 126.804332 
L 361.021001 127.828829 
L 361.579009 126.440189 
L 362.701669 128.305978 
L 363.26632 126.83968 
L 363.830971 128.295256 
L 363.997045 255.493335 
L 364.183048 249.562331 
L 364.741056 126.416528 
L 365.299065 125.942363 
L 365.85043 124.63716 
L 366.979732 125.488587 
L 367.544384 124.017177 
L 368.109035 125.352565 
L 368.667043 121.712223 
L 369.238337 122.756831 
L 369.802989 124.422705 
L 370.36764 124.616572 
L 370.95222 122.802841 
L 371.530157 119.830193 
L 372.114737 122.652835 
L 372.686032 120.69628 
L 373.250683 126.299245 
L 373.815334 127.194493 
L 374.386628 126.332166 
L 374.944637 123.710751 
L 376.067296 130.081705 
L 376.625305 124.735387 
L 377.189956 131.579601 
L 377.807751 116.389686 
L 378.956982 128.173467 
L 379.528276 130.209123 
L 380.079642 128.801487 
L 380.650936 128.885103 
L 381.215587 128.156082 
L 381.80681 122.816328 
L 382.949399 130.546103 
L 383.347976 189.871614 
L 383.925913 128.575096 
L 384.337776 184.930654 
L 384.576923 233.93602 
L 385.168146 123.949534 
L 385.413935 231.954465 
L 385.692939 222.981411 
L 386.264234 123.212725 
L 386.822242 131.630266 
L 387.373607 126.541718 
L 387.931616 125.464199 
L 388.496267 121.256249 
L 389.605641 128.856498 
L 390.163649 126.658076 
L 390.721657 123.173866 
L 391.279665 126.512417 
L 391.837674 123.484012 
L 392.395682 124.428334 
L 392.947047 124.426106 
L 393.498413 121.16215 
L 394.049778 121.673245 
L 394.601143 127.672925 
L 395.152509 126.914911 
L 395.703874 118.768976 
L 396.268525 121.087227 
L 396.826534 128.538316 
L 397.377899 123.417971 
L 397.935907 123.923247 
L 398.487273 124.997265 
L 398.487273 124.997265 
" clip-path="url(#pa7b166fd65)" style="fill: none; stroke: #1f77b4; stroke-width: 1.5; stroke-linecap: square"/>
   </g>
   <g id="patch_3">
    <path d="M 57.6 307.584 
L 57.6 41.472 
" style="fill: none; stroke: #000000; stroke-width: 0.8; stroke-linejoin: miter; stroke-linecap: square"/>
   </g>
   <g id="patch_4">
    <path d="M 414.72 307.584 
L 414.72 41.472 
" style="fill: none; stroke: #000000; stroke-width: 0.8; stroke-linejoin: miter; stroke-linecap: square"/>
   </g>
   <g id="patch_5">
    <path d="M 57.6 307.584 
L 414.72 307.584 
" style="fill: none; stroke: #000000; stroke-width: 0.8; stroke-linejoin: miter; stroke-linecap: square"/>
   </g>
   <g id="patch_6">
    <path d="M 57.6 41.472 
L 414.72 41.472 
" style="fill: none; stroke: #000000; stroke-width: 0.8; stroke-linejoin: miter; stroke-linecap: square"/>
   </g>
   <g id="text_15">
    <!-- learning curve -->
    <g transform="translate(192.96375 35.472) scale(0.12 -0.12)">
     <defs>
      <path id="DejaVuSans-6c" d="M 603 4863 
L 1178 4863 
L 1178 0 
L 603 0 
L 603 4863 
z
" transform="scale(0.015625)"/>
      <path id="DejaVuSans-6e" d="M 3513 2113 
L 3513 0 
L 2938 0 
L 2938 2094 
Q 2938 2591 2744 2837 
Q 2550 3084 2163 3084 
Q 1697 3084 1428 2787 
Q 1159 2491 1159 1978 
L 1159 0 
L 581 0 
L 581 3500 
L 1159 3500 
L 1159 2956 
Q 1366 3272 1645 3428 
Q 1925 3584 2291 3584 
Q 2894 3584 3203 3211 
Q 3513 2838 3513 2113 
z
" transform="scale(0.015625)"/>
      <path id="DejaVuSans-67" d="M 2906 1791 
Q 2906 2416 2648 2759 
Q 2391 3103 1925 3103 
Q 1463 3103 1205 2759 
Q 947 2416 947 1791 
Q 947 1169 1205 825 
Q 1463 481 1925 481 
Q 2391 481 2648 825 
Q 2906 1169 2906 1791 
z
M 3481 434 
Q 3481 -459 3084 -895 
Q 2688 -1331 1869 -1331 
Q 1566 -1331 1297 -1286 
Q 1028 -1241 775 -1147 
L 775 -588 
Q 1028 -725 1275 -790 
Q 1522 -856 1778 -856 
Q 2344 -856 2625 -561 
Q 2906 -266 2906 331 
L 2906 616 
Q 2728 306 2450 153 
Q 2172 0 1784 0 
Q 1141 0 747 490 
Q 353 981 353 1791 
Q 353 2603 747 3093 
Q 1141 3584 1784 3584 
Q 2172 3584 2450 3431 
Q 2728 3278 2906 2969 
L 2906 3500 
L 3481 3500 
L 3481 434 
z
" transform="scale(0.015625)"/>
      <path id="DejaVuSans-20" transform="scale(0.015625)"/>
      <path id="DejaVuSans-63" d="M 3122 3366 
L 3122 2828 
Q 2878 2963 2633 3030 
Q 2388 3097 2138 3097 
Q 1578 3097 1268 2742 
Q 959 2388 959 1747 
Q 959 1106 1268 751 
Q 1578 397 2138 397 
Q 2388 397 2633 464 
Q 2878 531 3122 666 
L 3122 134 
Q 2881 22 2623 -34 
Q 2366 -91 2075 -91 
Q 1284 -91 818 406 
Q 353 903 353 1747 
Q 353 2603 823 3093 
Q 1294 3584 2113 3584 
Q 2378 3584 2631 3529 
Q 2884 3475 3122 3366 
z
" transform="scale(0.015625)"/>
      <path id="DejaVuSans-75" d="M 544 1381 
L 544 3500 
L 1119 3500 
L 1119 1403 
Q 1119 906 1312 657 
Q 1506 409 1894 409 
Q 2359 409 2629 706 
Q 2900 1003 2900 1516 
L 2900 3500 
L 3475 3500 
L 3475 0 
L 2900 0 
L 2900 538 
Q 2691 219 2414 64 
Q 2138 -91 1772 -91 
Q 1169 -91 856 284 
Q 544 659 544 1381 
z
M 1991 3584 
L 1991 3584 
z
" transform="scale(0.015625)"/>
      <path id="DejaVuSans-76" d="M 191 3500 
L 800 3500 
L 1894 563 
L 2988 3500 
L 3597 3500 
L 2284 0 
L 1503 0 
L 191 3500 
z
" transform="scale(0.015625)"/>
     </defs>
     <use xlink:href="#DejaVuSans-6c"/>
     <use xlink:href="#DejaVuSans-65" x="27.783203"/>
     <use xlink:href="#DejaVuSans-61" x="89.306641"/>
     <use xlink:href="#DejaVuSans-72" x="150.585938"/>
     <use xlink:href="#DejaVuSans-6e" x="189.949219"/>
     <use xlink:href="#DejaVuSans-69" x="253.328125"/>
     <use xlink:href="#DejaVuSans-6e" x="281.111328"/>
     <use xlink:href="#DejaVuSans-67" x="344.490234"/>
     <use xlink:href="#DejaVuSans-20" x="407.966797"/>
     <use xlink:href="#DejaVuSans-63" x="439.753906"/>
     <use xlink:href="#DejaVuSans-75" x="494.734375"/>
     <use xlink:href="#DejaVuSans-72" x="558.113281"/>
     <use xlink:href="#DejaVuSans-76" x="599.226562"/>
     <use xlink:href="#DejaVuSans-65" x="658.40625"/>
    </g>
   </g>
  </g>
 </g>
 <defs>
  <clipPath id="pa7b166fd65">
   <rect x="57.6" y="41.472" width="357.12" height="266.112"/>
  </clipPath>
 </defs>
</svg>
