<?xml version="1.0" encoding="utf-8" standalone="no"?>
<!DOCTYPE svg PUBLIC "-//W3C//DTD SVG 1.1//EN"
  "http://www.w3.org/Graphics/SVG/1.1/DTD/svg11.dtd">
<svg xmlns:xlink="http://www.w3.org/1999/xlink" width="460.8pt" height="345.6pt" viewBox="0 0 460.8 345.6" xmlns="http://www.w3.org/2000/svg" version="1.1">
 <metadata>
  <rdf:RDF xmlns:dc="http://purl.org/dc/elements/1.1/" xmlns:cc="http://creativecommons.org/ns#" xmlns:rdf="http://www.w3.org/1999/02/22-rdf-syntax-ns#">
   <cc:Work>
    <dc:type rdf:resource="http://purl.org/dc/dcmitype/StillImage"/>
    <dc:date>2023-08-18T18:38:54.896832</dc:date>
    <dc:format>image/svg+xml</dc:format>
    <dc:creator>
     <cc:Agent>
      <dc:title>Matplotlib v3.7.1, https://matplotlib.org/</dc:title>
     </cc:Agent>
    </dc:creator>
   </cc:Work>
  </rdf:RDF>
 </metadata>
 <defs>
  <style type="text/css">*{stroke-linejoin: round; stroke-linecap: butt}</style>
 </defs>
 <g id="figure_1">
  <g id="patch_1">
   <path d="M 0 345.6 
L 460.8 345.6 
L 460.8 0 
L 0 0 
z
" style="fill: #ffffff"/>
  </g>
  <g id="axes_1">
   <g id="patch_2">
    <path d="M 57.6 307.584 
L 414.72 307.584 
L 414.72 41.472 
L 57.6 41.472 
z
" style="fill: #ffffff"/>
   </g>
   <g id="matplotlib.axis_1">
    <g id="xtick_1">
     <g id="line2d_1">
      <defs>
       <path id="mae2adbf717" d="M 0 0 
L 0 3.5 
" style="stroke: #000000; stroke-width: 0.8"/>
      </defs>
      <g>
       <use xlink:href="#mae2adbf717" x="73.735163" y="307.584" style="stroke: #000000; stroke-width: 0.8"/>
      </g>
     </g>
     <g id="text_1">
      <!-- 0 -->
      <g transform="translate(70.553913 322.182437) scale(0.1 -0.1)">
       <defs>
        <path id="DejaVuSans-30" d="M 2034 4250 
Q 1547 4250 1301 3770 
Q 1056 3291 1056 2328 
Q 1056 1369 1301 889 
Q 1547 409 2034 409 
Q 2525 409 2770 889 
Q 3016 1369 3016 2328 
Q 3016 3291 2770 3770 
Q 2525 4250 2034 4250 
z
M 2034 4750 
Q 2819 4750 3233 4129 
Q 3647 3509 3647 2328 
Q 3647 1150 3233 529 
Q 2819 -91 2034 -91 
Q 1250 -91 836 529 
Q 422 1150 422 2328 
Q 422 3509 836 4129 
Q 1250 4750 2034 4750 
z
" transform="scale(0.015625)"/>
       </defs>
       <use xlink:href="#DejaVuSans-30"/>
      </g>
     </g>
    </g>
    <g id="xtick_2">
     <g id="line2d_2">
      <g>
       <use xlink:href="#mae2adbf717" x="138.777946" y="307.584" style="stroke: #000000; stroke-width: 0.8"/>
      </g>
     </g>
     <g id="text_2">
      <!-- 10000 -->
      <g transform="translate(122.871696 322.182437) scale(0.1 -0.1)">
       <defs>
        <path id="DejaVuSans-31" d="M 794 531 
L 1825 531 
L 1825 4091 
L 703 3866 
L 703 4441 
L 1819 4666 
L 2450 4666 
L 2450 531 
L 3481 531 
L 3481 0 
L 794 0 
L 794 531 
z
" transform="scale(0.015625)"/>
       </defs>
       <use xlink:href="#DejaVuSans-31"/>
       <use xlink:href="#DejaVuSans-30" x="63.623047"/>
       <use xlink:href="#DejaVuSans-30" x="127.246094"/>
       <use xlink:href="#DejaVuSans-30" x="190.869141"/>
       <use xlink:href="#DejaVuSans-30" x="254.492188"/>
      </g>
     </g>
    </g>
    <g id="xtick_3">
     <g id="line2d_3">
      <g>
       <use xlink:href="#mae2adbf717" x="203.820728" y="307.584" style="stroke: #000000; stroke-width: 0.8"/>
      </g>
     </g>
     <g id="text_3">
      <!-- 20000 -->
      <g transform="translate(187.914478 322.182437) scale(0.1 -0.1)">
       <defs>
        <path id="DejaVuSans-32" d="M 1228 531 
L 3431 531 
L 3431 0 
L 469 0 
L 469 531 
Q 828 903 1448 1529 
Q 2069 2156 2228 2338 
Q 2531 2678 2651 2914 
Q 2772 3150 2772 3378 
Q 2772 3750 2511 3984 
Q 2250 4219 1831 4219 
Q 1534 4219 1204 4116 
Q 875 4013 500 3803 
L 500 4441 
Q 881 4594 1212 4672 
Q 1544 4750 1819 4750 
Q 2544 4750 2975 4387 
Q 3406 4025 3406 3419 
Q 3406 3131 3298 2873 
Q 3191 2616 2906 2266 
Q 2828 2175 2409 1742 
Q 1991 1309 1228 531 
z
" transform="scale(0.015625)"/>
       </defs>
       <use xlink:href="#DejaVuSans-32"/>
       <use xlink:href="#DejaVuSans-30" x="63.623047"/>
       <use xlink:href="#DejaVuSans-30" x="127.246094"/>
       <use xlink:href="#DejaVuSans-30" x="190.869141"/>
       <use xlink:href="#DejaVuSans-30" x="254.492188"/>
      </g>
     </g>
    </g>
    <g id="xtick_4">
     <g id="line2d_4">
      <g>
       <use xlink:href="#mae2adbf717" x="268.863511" y="307.584" style="stroke: #000000; stroke-width: 0.8"/>
      </g>
     </g>
     <g id="text_4">
      <!-- 30000 -->
      <g transform="translate(252.957261 322.182437) scale(0.1 -0.1)">
       <defs>
        <path id="DejaVuSans-33" d="M 2597 2516 
Q 3050 2419 3304 2112 
Q 3559 1806 3559 1356 
Q 3559 666 3084 287 
Q 2609 -91 1734 -91 
Q 1441 -91 1130 -33 
Q 819 25 488 141 
L 488 750 
Q 750 597 1062 519 
Q 1375 441 1716 441 
Q 2309 441 2620 675 
Q 2931 909 2931 1356 
Q 2931 1769 2642 2001 
Q 2353 2234 1838 2234 
L 1294 2234 
L 1294 2753 
L 1863 2753 
Q 2328 2753 2575 2939 
Q 2822 3125 2822 3475 
Q 2822 3834 2567 4026 
Q 2313 4219 1838 4219 
Q 1578 4219 1281 4162 
Q 984 4106 628 3988 
L 628 4550 
Q 988 4650 1302 4700 
Q 1616 4750 1894 4750 
Q 2613 4750 3031 4423 
Q 3450 4097 3450 3541 
Q 3450 3153 3228 2886 
Q 3006 2619 2597 2516 
z
" transform="scale(0.015625)"/>
       </defs>
       <use xlink:href="#DejaVuSans-33"/>
       <use xlink:href="#DejaVuSans-30" x="63.623047"/>
       <use xlink:href="#DejaVuSans-30" x="127.246094"/>
       <use xlink:href="#DejaVuSans-30" x="190.869141"/>
       <use xlink:href="#DejaVuSans-30" x="254.492188"/>
      </g>
     </g>
    </g>
    <g id="xtick_5">
     <g id="line2d_5">
      <g>
       <use xlink:href="#mae2adbf717" x="333.906294" y="307.584" style="stroke: #000000; stroke-width: 0.8"/>
      </g>
     </g>
     <g id="text_5">
      <!-- 40000 -->
      <g transform="translate(318.000044 322.182437) scale(0.1 -0.1)">
       <defs>
        <path id="DejaVuSans-34" d="M 2419 4116 
L 825 1625 
L 2419 1625 
L 2419 4116 
z
M 2253 4666 
L 3047 4666 
L 3047 1625 
L 3713 1625 
L 3713 1100 
L 3047 1100 
L 3047 0 
L 2419 0 
L 2419 1100 
L 313 1100 
L 313 1709 
L 2253 4666 
z
" transform="scale(0.015625)"/>
       </defs>
       <use xlink:href="#DejaVuSans-34"/>
       <use xlink:href="#DejaVuSans-30" x="63.623047"/>
       <use xlink:href="#DejaVuSans-30" x="127.246094"/>
       <use xlink:href="#DejaVuSans-30" x="190.869141"/>
       <use xlink:href="#DejaVuSans-30" x="254.492188"/>
      </g>
     </g>
    </g>
    <g id="xtick_6">
     <g id="line2d_6">
      <g>
       <use xlink:href="#mae2adbf717" x="398.949076" y="307.584" style="stroke: #000000; stroke-width: 0.8"/>
      </g>
     </g>
     <g id="text_6">
      <!-- 50000 -->
      <g transform="translate(383.042826 322.182437) scale(0.1 -0.1)">
       <defs>
        <path id="DejaVuSans-35" d="M 691 4666 
L 3169 4666 
L 3169 4134 
L 1269 4134 
L 1269 2991 
Q 1406 3038 1543 3061 
Q 1681 3084 1819 3084 
Q 2600 3084 3056 2656 
Q 3513 2228 3513 1497 
Q 3513 744 3044 326 
Q 2575 -91 1722 -91 
Q 1428 -91 1123 -41 
Q 819 9 494 109 
L 494 744 
Q 775 591 1075 516 
Q 1375 441 1709 441 
Q 2250 441 2565 725 
Q 2881 1009 2881 1497 
Q 2881 1984 2565 2268 
Q 2250 2553 1709 2553 
Q 1456 2553 1204 2497 
Q 953 2441 691 2322 
L 691 4666 
z
" transform="scale(0.015625)"/>
       </defs>
       <use xlink:href="#DejaVuSans-35"/>
       <use xlink:href="#DejaVuSans-30" x="63.623047"/>
       <use xlink:href="#DejaVuSans-30" x="127.246094"/>
       <use xlink:href="#DejaVuSans-30" x="190.869141"/>
       <use xlink:href="#DejaVuSans-30" x="254.492188"/>
      </g>
     </g>
    </g>
    <g id="text_7">
     <!-- timesteps -->
     <g transform="translate(211.443594 335.860562) scale(0.1 -0.1)">
      <defs>
       <path id="DejaVuSans-74" d="M 1172 4494 
L 1172 3500 
L 2356 3500 
L 2356 3053 
L 1172 3053 
L 1172 1153 
Q 1172 725 1289 603 
Q 1406 481 1766 481 
L 2356 481 
L 2356 0 
L 1766 0 
Q 1100 0 847 248 
Q 594 497 594 1153 
L 594 3053 
L 172 3053 
L 172 3500 
L 594 3500 
L 594 4494 
L 1172 4494 
z
" transform="scale(0.015625)"/>
       <path id="DejaVuSans-69" d="M 603 3500 
L 1178 3500 
L 1178 0 
L 603 0 
L 603 3500 
z
M 603 4863 
L 1178 4863 
L 1178 4134 
L 603 4134 
L 603 4863 
z
" transform="scale(0.015625)"/>
       <path id="DejaVuSans-6d" d="M 3328 2828 
Q 3544 3216 3844 3400 
Q 4144 3584 4550 3584 
Q 5097 3584 5394 3201 
Q 5691 2819 5691 2113 
L 5691 0 
L 5113 0 
L 5113 2094 
Q 5113 2597 4934 2840 
Q 4756 3084 4391 3084 
Q 3944 3084 3684 2787 
Q 3425 2491 3425 1978 
L 3425 0 
L 2847 0 
L 2847 2094 
Q 2847 2600 2669 2842 
Q 2491 3084 2119 3084 
Q 1678 3084 1418 2786 
Q 1159 2488 1159 1978 
L 1159 0 
L 581 0 
L 581 3500 
L 1159 3500 
L 1159 2956 
Q 1356 3278 1631 3431 
Q 1906 3584 2284 3584 
Q 2666 3584 2933 3390 
Q 3200 3197 3328 2828 
z
" transform="scale(0.015625)"/>
       <path id="DejaVuSans-65" d="M 3597 1894 
L 3597 1613 
L 953 1613 
Q 991 1019 1311 708 
Q 1631 397 2203 397 
Q 2534 397 2845 478 
Q 3156 559 3463 722 
L 3463 178 
Q 3153 47 2828 -22 
Q 2503 -91 2169 -91 
Q 1331 -91 842 396 
Q 353 884 353 1716 
Q 353 2575 817 3079 
Q 1281 3584 2069 3584 
Q 2775 3584 3186 3129 
Q 3597 2675 3597 1894 
z
M 3022 2063 
Q 3016 2534 2758 2815 
Q 2500 3097 2075 3097 
Q 1594 3097 1305 2825 
Q 1016 2553 972 2059 
L 3022 2063 
z
" transform="scale(0.015625)"/>
       <path id="DejaVuSans-73" d="M 2834 3397 
L 2834 2853 
Q 2591 2978 2328 3040 
Q 2066 3103 1784 3103 
Q 1356 3103 1142 2972 
Q 928 2841 928 2578 
Q 928 2378 1081 2264 
Q 1234 2150 1697 2047 
L 1894 2003 
Q 2506 1872 2764 1633 
Q 3022 1394 3022 966 
Q 3022 478 2636 193 
Q 2250 -91 1575 -91 
Q 1294 -91 989 -36 
Q 684 19 347 128 
L 347 722 
Q 666 556 975 473 
Q 1284 391 1588 391 
Q 1994 391 2212 530 
Q 2431 669 2431 922 
Q 2431 1156 2273 1281 
Q 2116 1406 1581 1522 
L 1381 1569 
Q 847 1681 609 1914 
Q 372 2147 372 2553 
Q 372 3047 722 3315 
Q 1072 3584 1716 3584 
Q 2034 3584 2315 3537 
Q 2597 3491 2834 3397 
z
" transform="scale(0.015625)"/>
       <path id="DejaVuSans-70" d="M 1159 525 
L 1159 -1331 
L 581 -1331 
L 581 3500 
L 1159 3500 
L 1159 2969 
Q 1341 3281 1617 3432 
Q 1894 3584 2278 3584 
Q 2916 3584 3314 3078 
Q 3713 2572 3713 1747 
Q 3713 922 3314 415 
Q 2916 -91 2278 -91 
Q 1894 -91 1617 61 
Q 1341 213 1159 525 
z
M 3116 1747 
Q 3116 2381 2855 2742 
Q 2594 3103 2138 3103 
Q 1681 3103 1420 2742 
Q 1159 2381 1159 1747 
Q 1159 1113 1420 752 
Q 1681 391 2138 391 
Q 2594 391 2855 752 
Q 3116 1113 3116 1747 
z
" transform="scale(0.015625)"/>
      </defs>
      <use xlink:href="#DejaVuSans-74"/>
      <use xlink:href="#DejaVuSans-69" x="39.208984"/>
      <use xlink:href="#DejaVuSans-6d" x="66.992188"/>
      <use xlink:href="#DejaVuSans-65" x="164.404297"/>
      <use xlink:href="#DejaVuSans-73" x="225.927734"/>
      <use xlink:href="#DejaVuSans-74" x="278.027344"/>
      <use xlink:href="#DejaVuSans-65" x="317.236328"/>
      <use xlink:href="#DejaVuSans-70" x="378.759766"/>
      <use xlink:href="#DejaVuSans-73" x="442.236328"/>
     </g>
    </g>
   </g>
   <g id="matplotlib.axis_2">
    <g id="ytick_1">
     <g id="line2d_7">
      <defs>
       <path id="ma24ac49f86" d="M 0 0 
L -3.5 0 
" style="stroke: #000000; stroke-width: 0.8"/>
      </defs>
      <g>
       <use xlink:href="#ma24ac49f86" x="57.6" y="298.097351" style="stroke: #000000; stroke-width: 0.8"/>
      </g>
     </g>
     <g id="text_8">
      <!-- 0 -->
      <g transform="translate(44.2375 301.89657) scale(0.1 -0.1)">
       <use xlink:href="#DejaVuSans-30"/>
      </g>
     </g>
    </g>
    <g id="ytick_2">
     <g id="line2d_8">
      <g>
       <use xlink:href="#ma24ac49f86" x="57.6" y="247.063193" style="stroke: #000000; stroke-width: 0.8"/>
      </g>
     </g>
     <g id="text_9">
      <!-- 100 -->
      <g transform="translate(31.5125 250.862412) scale(0.1 -0.1)">
       <use xlink:href="#DejaVuSans-31"/>
       <use xlink:href="#DejaVuSans-30" x="63.623047"/>
       <use xlink:href="#DejaVuSans-30" x="127.246094"/>
      </g>
     </g>
    </g>
    <g id="ytick_3">
     <g id="line2d_9">
      <g>
       <use xlink:href="#ma24ac49f86" x="57.6" y="196.029035" style="stroke: #000000; stroke-width: 0.8"/>
      </g>
     </g>
     <g id="text_10">
      <!-- 200 -->
      <g transform="translate(31.5125 199.828254) scale(0.1 -0.1)">
       <use xlink:href="#DejaVuSans-32"/>
       <use xlink:href="#DejaVuSans-30" x="63.623047"/>
       <use xlink:href="#DejaVuSans-30" x="127.246094"/>
      </g>
     </g>
    </g>
    <g id="ytick_4">
     <g id="line2d_10">
      <g>
       <use xlink:href="#ma24ac49f86" x="57.6" y="144.994877" style="stroke: #000000; stroke-width: 0.8"/>
      </g>
     </g>
     <g id="text_11">
      <!-- 300 -->
      <g transform="translate(31.5125 148.794096) scale(0.1 -0.1)">
       <use xlink:href="#DejaVuSans-33"/>
       <use xlink:href="#DejaVuSans-30" x="63.623047"/>
       <use xlink:href="#DejaVuSans-30" x="127.246094"/>
      </g>
     </g>
    </g>
    <g id="ytick_5">
     <g id="line2d_11">
      <g>
       <use xlink:href="#ma24ac49f86" x="57.6" y="93.960719" style="stroke: #000000; stroke-width: 0.8"/>
      </g>
     </g>
     <g id="text_12">
      <!-- 400 -->
      <g transform="translate(31.5125 97.759938) scale(0.1 -0.1)">
       <use xlink:href="#DejaVuSans-34"/>
       <use xlink:href="#DejaVuSans-30" x="63.623047"/>
       <use xlink:href="#DejaVuSans-30" x="127.246094"/>
      </g>
     </g>
    </g>
    <g id="ytick_6">
     <g id="line2d_12">
      <g>
       <use xlink:href="#ma24ac49f86" x="57.6" y="42.926561" style="stroke: #000000; stroke-width: 0.8"/>
      </g>
     </g>
     <g id="text_13">
      <!-- 500 -->
      <g transform="translate(31.5125 46.72578) scale(0.1 -0.1)">
       <use xlink:href="#DejaVuSans-35"/>
       <use xlink:href="#DejaVuSans-30" x="63.623047"/>
       <use xlink:href="#DejaVuSans-30" x="127.246094"/>
      </g>
     </g>
    </g>
    <g id="text_14">
     <!-- rewards -->
     <g transform="translate(25.432812 194.447531) rotate(-90) scale(0.1 -0.1)">
      <defs>
       <path id="DejaVuSans-72" d="M 2631 2963 
Q 2534 3019 2420 3045 
Q 2306 3072 2169 3072 
Q 1681 3072 1420 2755 
Q 1159 2438 1159 1844 
L 1159 0 
L 581 0 
L 581 3500 
L 1159 3500 
L 1159 2956 
Q 1341 3275 1631 3429 
Q 1922 3584 2338 3584 
Q 2397 3584 2469 3576 
Q 2541 3569 2628 3553 
L 2631 2963 
z
" transform="scale(0.015625)"/>
       <path id="DejaVuSans-77" d="M 269 3500 
L 844 3500 
L 1563 769 
L 2278 3500 
L 2956 3500 
L 3675 769 
L 4391 3500 
L 4966 3500 
L 4050 0 
L 3372 0 
L 2619 2869 
L 1863 0 
L 1184 0 
L 269 3500 
z
" transform="scale(0.015625)"/>
       <path id="DejaVuSans-61" d="M 2194 1759 
Q 1497 1759 1228 1600 
Q 959 1441 959 1056 
Q 959 750 1161 570 
Q 1363 391 1709 391 
Q 2188 391 2477 730 
Q 2766 1069 2766 1631 
L 2766 1759 
L 2194 1759 
z
M 3341 1997 
L 3341 0 
L 2766 0 
L 2766 531 
Q 2569 213 2275 61 
Q 1981 -91 1556 -91 
Q 1019 -91 701 211 
Q 384 513 384 1019 
Q 384 1609 779 1909 
Q 1175 2209 1959 2209 
L 2766 2209 
L 2766 2266 
Q 2766 2663 2505 2880 
Q 2244 3097 1772 3097 
Q 1472 3097 1187 3025 
Q 903 2953 641 2809 
L 641 3341 
Q 956 3463 1253 3523 
Q 1550 3584 1831 3584 
Q 2591 3584 2966 3190 
Q 3341 2797 3341 1997 
z
" transform="scale(0.015625)"/>
       <path id="DejaVuSans-64" d="M 2906 2969 
L 2906 4863 
L 3481 4863 
L 3481 0 
L 2906 0 
L 2906 525 
Q 2725 213 2448 61 
Q 2172 -91 1784 -91 
Q 1150 -91 751 415 
Q 353 922 353 1747 
Q 353 2572 751 3078 
Q 1150 3584 1784 3584 
Q 2172 3584 2448 3432 
Q 2725 3281 2906 2969 
z
M 947 1747 
Q 947 1113 1208 752 
Q 1469 391 1925 391 
Q 2381 391 2643 752 
Q 2906 1113 2906 1747 
Q 2906 2381 2643 2742 
Q 2381 3103 1925 3103 
Q 1469 3103 1208 2742 
Q 947 2381 947 1747 
z
" transform="scale(0.015625)"/>
      </defs>
      <use xlink:href="#DejaVuSans-72"/>
      <use xlink:href="#DejaVuSans-65" x="38.863281"/>
      <use xlink:href="#DejaVuSans-77" x="100.386719"/>
      <use xlink:href="#DejaVuSans-61" x="182.173828"/>
      <use xlink:href="#DejaVuSans-72" x="243.453125"/>
      <use xlink:href="#DejaVuSans-64" x="282.816406"/>
      <use xlink:href="#DejaVuSans-73" x="346.292969"/>
     </g>
    </g>
   </g>
   <g id="line2d_13">
    <path d="M 73.832727 292.383243 
L 73.9433 290.747428 
L 74.014847 293.39955 
L 74.327052 289.624977 
L 74.671779 261.131181 
L 75.153096 293.076468 
L 75.276677 294.078887 
L 75.52384 284.496341 
L 75.712464 283.934441 
L 75.959626 283.558498 
L 76.128738 294.970822 
L 76.297849 292.556518 
L 76.356387 294.543033 
L 76.564524 290.991652 
L 76.688105 289.372055 
L 76.87673 294.070335 
L 77.143405 276.354158 
L 77.423089 292.70438 
L 77.793833 285.988252 
L 77.878388 293.053427 
L 78.014978 285.872346 
L 78.09303 293.020226 
L 78.255636 292.676104 
L 78.405235 292.649799 
L 78.541825 291.092997 
L 78.613372 294.343672 
L 78.723945 289.797428 
L 78.821509 293.482654 
L 78.951594 288.307241 
L 79.042654 292.193665 
L 79.17274 292.240015 
L 79.250791 293.689947 
L 79.517466 276.6983 
L 79.699586 281.01009 
L 79.764629 295.016444 
L 79.920732 290.955955 
L 80.141877 293.154479 
L 80.265458 292.128747 
L 80.408553 292.260309 
L 80.597177 282.283239 
L 80.668724 294.52997 
L 80.779296 289.332675 
L 80.863852 292.416225 
L 81.019955 289.092039 
L 81.189066 289.186663 
L 81.260613 294.158139 
L 81.371186 292.338056 
L 81.592331 280.810947 
L 81.806972 288.556294 
L 81.969579 286.800288 
L 82.132186 290.051567 
L 82.997255 181.733706 
L 83.302956 290.50266 
L 83.381008 292.627888 
L 83.517598 289.963309 
L 83.667196 294.808727 
L 83.862324 290.25548 
L 83.979401 289.412357 
L 84.17453 291.288018 
L 84.369658 286.230862 
L 84.584299 292.14969 
L 84.714385 293.654844 
L 84.857479 293.181485 
L 85.020086 294.940959 
L 85.189197 292.590871 
L 85.260744 293.471049 
L 85.338796 293.335827 
L 85.488394 293.501662 
L 85.57295 295.062967 
L 85.833121 288.183447 
L 85.982719 288.926975 
L 86.099796 292.689554 
L 86.210369 292.190951 
L 86.483549 286.264589 
L 86.65266 291.766287 
L 86.78925 289.061529 
L 86.860797 293.335643 
L 86.984378 291.768198 
L 87.068934 291.959001 
L 87.173002 293.115586 
L 87.361626 279.144018 
L 87.615293 293.129599 
L 87.855951 279.680919 
L 88.343772 294.040388 
L 88.532396 285.807921 
L 88.890131 293.801643 
L 89.020217 293.846227 
L 89.143798 287.870817 
L 89.260875 291.742243 
L 89.397465 285.772491 
L 89.534055 294.939782 
L 89.859269 265.626234 
L 89.943825 293.279715 
L 90.11944 292.473349 
L 90.223509 293.263103 
L 90.457663 281.527809 
L 90.600757 292.370193 
L 90.691817 291.381646 
L 90.815398 289.056683 
L 90.971501 289.841952 
L 91.049552 293.962254 
L 91.251184 279.851671 
L 91.394279 291.711553 
L 91.537373 292.334734 
L 91.69998 291.037974 
L 91.804048 291.219196 
L 91.869091 294.489764 
L 92.064219 284.545596 
L 92.148775 292.825341 
L 92.350408 282.369644 
L 92.604074 293.532428 
L 92.682126 292.974575 
L 92.864245 281.881895 
L 92.942297 294.622127 
L 93.091895 291.179077 
L 93.189459 291.422314 
L 93.267511 293.896279 
L 93.365075 293.549301 
L 93.534186 282.232028 
L 93.72281 283.511757 
L 93.794357 294.681802 
L 93.90493 294.15017 
L 94.002494 293.020783 
L 94.282178 281.509301 
L 94.392751 291.995072 
L 94.496819 290.14944 
L 94.698452 282.555768 
L 94.84805 286.091293 
L 94.997649 285.573776 
L 95.368393 290.223126 
L 95.57653 289.434074 
L 95.726128 286.209658 
L 95.810684 292.479501 
L 95.953778 291.494714 
L 96.031829 294.306359 
L 96.148906 290.073453 
L 96.344034 290.826349 
L 96.584693 285.73912 
L 96.643231 295.270091 
L 96.974949 278.959338 
L 97.053001 294.029669 
L 97.300163 292.139677 
L 97.573343 282.393022 
L 97.657899 294.049615 
L 97.885548 289.584474 
L 97.996121 291.153995 
L 98.178241 286.047736 
L 98.275805 294.29737 
L 98.627036 283.743729 
L 98.705087 294.136931 
L 98.822164 292.027798 
L 99.192908 279.92816 
L 99.557148 277.959818 
L 99.836832 294.343141 
L 100.409208 272.419463 
L 100.467747 294.201873 
L 100.617345 284.600309 
L 100.786456 287.232923 
L 100.936055 294.338091 
L 101.046628 290.733015 
L 101.137687 293.804645 
L 101.313303 283.670572 
L 101.38485 292.933783 
L 101.599491 275.441446 
L 101.684047 293.236653 
L 101.781611 290.72552 
L 101.898688 292.511857 
L 102.002756 291.966249 
L 102.204389 288.633737 
L 102.412526 280.71326 
L 102.78327 281.062137 
L 102.87433 293.875586 
L 103.108484 285.472058 
L 103.323125 285.113608 
L 103.394672 294.865111 
L 103.518253 292.275516 
L 103.706877 281.979182 
L 103.823954 292.286548 
L 103.921519 291.397192 
L 104.019083 292.281236 
L 104.077621 294.478011 
L 104.22722 286.127812 
L 104.357305 288.742072 
L 104.623981 271.427791 
L 104.812605 289.956679 
L 104.955699 287.030405 
L 105.157331 288.219772 
L 105.410998 282.546403 
L 105.677674 293.633517 
L 105.898819 287.150805 
L 106.263059 293.453516 
L 106.438674 285.672718 
L 106.65982 291.874247 
L 106.79641 287.48874 
L 106.867957 293.852731 
L 107.011051 293.53593 
L 107.258213 288.53698 
L 107.32976 294.438862 
L 107.479359 293.86989 
L 107.707008 278.232226 
L 107.78506 293.804249 
L 107.863111 292.835711 
L 108.045231 281.388011 
L 108.240359 293.62111 
L 108.676146 271.980638 
L 108.747693 294.195034 
L 108.923309 285.638378 
L 109.124941 295.043424 
L 109.196488 293.626402 
L 109.359095 284.641354 
L 109.593249 290.697479 
L 109.937976 269.654291 
L 110.17213 291.327444 
L 110.276198 291.210427 
L 110.646942 268.523197 
L 110.711985 294.901423 
L 110.842071 288.765008 
L 110.946139 290.173482 
L 111.017686 293.432609 
L 111.167285 290.033231 
L 111.362413 291.714355 
L 111.427456 295.278217 
L 111.518516 294.591794 
L 111.622584 290.869501 
L 111.694131 294.871046 
L 111.811208 292.489236 
L 111.889259 293.570278 
L 111.973815 292.551717 
L 112.383585 280.289403 
L 112.51367 293.410188 
L 112.734816 292.673588 
L 112.819371 293.786675 
L 113.118568 286.91989 
L 113.209628 292.589921 
L 113.469799 273.534423 
L 113.599885 292.995065 
L 113.853551 289.252685 
L 113.970628 291.307478 
L 114.068193 290.109353 
L 114.198278 293.892863 
L 114.308851 289.807556 
L 114.393407 292.028465 
L 114.582031 280.876288 
L 114.796672 292.607983 
L 115.004809 291.275567 
L 115.102373 291.268618 
L 115.225954 289.657012 
L 115.343031 293.689435 
L 115.707271 251.832755 
L 115.791826 292.595859 
L 116.006468 286.65965 
L 116.07151 295.488 
L 116.169075 293.804247 
L 116.266639 290.957399 
L 116.338186 294.38351 
L 116.812998 268.900345 
L 116.969101 294.265216 
L 117.138212 292.256765 
L 117.255289 289.293896 
L 117.430905 290.360848 
L 117.860187 281.530148 
L 118.165888 294.536652 
L 118.367521 283.615601 
L 118.530128 285.942851 
L 118.790299 294.431798 
L 118.861846 293.387624 
L 118.946401 293.413332 
L 119.161043 291.729849 
L 119.317145 285.963264 
L 119.408205 292.518297 
L 119.525282 292.481345 
L 119.609838 294.044198 
L 119.941556 282.707394 
L 120.078146 295.010998 
L 120.214736 285.751239 
L 120.40336 292.55815 
L 120.565967 291.766405 
L 120.670035 290.685337 
L 120.891181 281.985156 
L 120.969232 293.46245 
L 121.112326 290.948535 
L 121.320463 293.246275 
L 121.450548 289.316271 
L 121.515591 294.085523 
L 121.626164 289.507393 
L 121.691207 294.176389 
L 121.775762 293.6692 
L 121.847309 294.931691 
L 122.159515 285.708992 
L 122.549771 246.128798 
L 122.65384 292.968692 
L 122.848968 290.332606 
L 122.933524 292.500116 
L 123.356302 236.04803 
L 123.55143 291.886313 
L 123.772576 285.035088 
L 124.084781 293.313903 
L 124.253892 287.067248 
L 124.429508 287.773267 
L 124.533576 293.11057 
L 124.819765 290.666884 
L 124.94985 292.966079 
L 125.053919 290.708163 
L 125.138474 294.095936 
L 125.49621 269.853773 
L 125.574261 293.789074 
L 125.697842 289.504477 
L 125.853945 288.236612 
L 125.905979 294.924012 
L 126.276723 280.708086 
L 126.478356 291.382427 
L 126.699501 293.356149 
L 126.810074 291.294161 
L 126.933655 294.226352 
L 127.070245 286.070886 
L 127.154801 292.574589 
L 127.486519 279.562646 
L 127.584083 291.649112 
L 127.798724 282.247447 
L 127.870271 293.831829 
L 128.071904 291.495512 
L 128.169468 293.089247 
L 128.273536 292.76523 
L 128.384109 290.048745 
L 128.566229 282.426056 
L 128.787374 292.653821 
L 128.91746 290.932364 
L 129.041041 292.276262 
L 129.392272 274.758488 
L 129.483332 292.088039 
L 129.665452 288.940137 
L 129.756512 294.007509 
L 130.075221 274.36479 
L 130.192298 292.767394 
L 130.354905 289.737255 
L 130.465478 290.830984 
L 130.628085 286.055248 
L 130.836222 286.772873 
L 130.920778 292.914251 
L 131.063872 293.421105 
L 131.187453 293.251119 
L 131.824872 244.429931 
L 132.052522 294.952759 
L 132.377736 284.01026 
L 132.455787 293.00231 
L 132.540343 292.20332 
L 132.70295 287.100842 
L 132.781001 293.561005 
L 132.950112 292.067269 
L 133.086702 292.481919 
L 133.190771 290.657382 
L 133.457446 292.078434 
L 133.893233 259.070754 
L 134.049335 294.009544 
L 134.185925 288.422778 
L 134.270481 293.48525 
L 134.348532 292.70621 
L 134.452601 293.519795 
L 134.563173 291.092559 
L 134.634721 293.310745 
L 134.959934 288.835224 
L 135.018473 295.214774 
L 135.103029 293.791626 
L 135.213601 291.808736 
L 135.382713 292.713095 
L 135.603858 291.468312 
L 135.694918 292.486154 
L 135.766465 294.939418 
L 135.955089 292.078289 
L 136.312824 266.417843 
L 136.605517 293.00667 
L 136.696577 292.98527 
L 136.898209 282.284005 
L 137.054312 294.456597 
L 137.20391 289.12878 
L 137.594167 241.532236 
L 137.698236 291.016096 
L 137.7958 290.67309 
L 137.860843 294.439272 
L 138.296629 253.797965 
L 138.394193 293.29236 
L 138.563305 285.413638 
L 138.706399 292.419271 
L 138.836484 290.130487 
L 138.96657 295.015015 
L 139.220237 285.531418 
L 139.473904 286.550712 
L 139.942212 292.506347 
L 140.052784 289.659108 
L 140.358485 273.737481 
L 140.45605 293.369991 
L 140.664186 289.046092 
L 140.865819 278.417274 
L 140.94387 292.839979 
L 141.132495 282.55625 
L 141.236563 291.499129 
L 141.360144 288.861285 
L 141.769914 246.101145 
L 142.088623 270.424182 
L 142.426846 249.342234 
L 142.908162 287.227365 
L 143.226872 259.112456 
L 143.461026 266.993654 
L 143.701684 265.184125 
L 144.19601 222.311507 
L 144.904976 273.331842 
L 145.282224 266.30648 
L 145.737524 230.782118 
L 146.238353 237.455742 
L 146.557063 253.92757 
L 147.194482 257.899191 
L 147.428636 267.090589 
L 147.75385 253.344881 
L 148.144106 275.683022 
L 148.508346 247.576798 
L 148.814047 257.130009 
L 149.217312 238.343977 
L 149.444962 267.502018 
L 149.750663 255.980161 
L 150.069373 253.169058 
L 150.342553 261.508156 
L 150.667766 253.764295 
L 150.862895 272.714497 
L 151.214126 247.89761 
L 151.565357 248.549615 
L 151.806015 266.009698 
L 152.053178 263.853355 
L 152.66458 189.784221 
L 152.866213 271.273301 
L 153.080854 269.325438 
L 153.685752 191.600203 
L 154.01747 249.898774 
L 154.654889 197.860936 
L 155.259787 209.574867 
L 155.474428 269.414052 
L 156.046805 207.517953 
L 156.690728 200.095728 
L 157.328147 196.678424 
L 157.920037 197.207398 
L 158.544447 196.389259 
L 159.116824 209.998811 
L 159.747739 198.321429 
L 160.365645 191.572399 
L 160.9055 213.182454 
L 161.471373 210.223176 
L 162.095783 191.106452 
L 162.700681 193.842484 
L 163.292571 200.6899 
L 163.910477 192.329327 
L 164.528383 196.529285 
L 165.19182 183.404932 
L 165.816231 196.216684 
L 166.40812 198.599021 
L 167.032531 195.702087 
L 167.66995 197.407147 
L 168.274848 196.547652 
L 168.879746 194.289989 
L 169.510661 194.279731 
L 170.109054 198.550497 
L 170.707448 195.565356 
L 171.325354 193.726047 
L 171.943261 195.024264 
L 172.574176 197.310553 
L 173.205091 188.445084 
L 173.829501 190.450552 
L 174.499442 182.96568 
L 175.117348 192.222579 
L 175.715742 192.857306 
L 176.353161 188.664623 
L 176.984076 187.226599 
L 177.654017 182.590198 
L 178.271923 189.473711 
L 178.915847 185.733082 
L 179.553266 187.182584 
L 180.164668 196.127834 
L 180.8216 182.971209 
L 181.452515 187.296167 
L 182.141969 176.272933 
L 182.792397 184.472318 
L 183.462337 179.327032 
L 184.125774 181.000929 
L 184.802219 179.359193 
L 185.459151 181.599908 
L 186.116083 181.448979 
L 186.792528 178.145311 
L 187.462469 180.720291 
L 188.106392 185.188158 
L 188.789341 178.235406 
L 189.459282 180.522737 
L 190.148736 176.895737 
L 190.831685 177.811999 
L 191.495121 179.569071 
L 192.145549 182.228395 
L 192.821994 178.243401 
L 193.491935 178.378083 
L 194.161875 178.105015 
L 194.83832 178.836477 
L 195.521269 177.925484 
L 196.158689 182.068571 
L 196.841638 178.533788 
L 197.524587 176.492111 
L 198.188023 175.565856 
L 198.903494 171.423266 
L 199.618965 174.193224 
L 200.347444 170.586636 
L 201.01088 177.478132 
L 201.706838 174.685918 
L 202.402796 175.502986 
L 203.111762 172.688623 
L 203.840241 167.392333 
L 204.601242 175.24957 
L 205.323217 171.38992 
L 206.045192 173.85065 
L 206.793184 169.82498 
L 207.586706 170.72292 
L 208.341202 170.049169 
L 209.024151 174.908965 
L 209.811169 165.133735 
L 210.559161 169.596111 
L 211.248614 175.17617 
L 211.990102 165.534804 
L 212.783624 161.444463 
L 213.551129 164.362188 
L 214.279608 169.300853 
L 215.0276 169.114291 
L 215.697541 180.904342 
L 216.439028 169.142829 
L 217.161003 171.629703 
L 217.882978 170.705256 
L 218.624466 168.738493 
L 219.333432 169.007887 
L 220.016381 176.857401 
L 220.718843 176.933064 
L 221.421305 174.327531 
L 222.117263 174.001049 
L 222.845742 171.612951 
L 223.593734 166.47926 
L 224.309205 171.217452 
L 224.966137 182.80666 
L 225.642582 180.918628 
L 226.364557 170.875974 
L 227.027993 183.083161 
L 227.665413 188.244371 
L 228.309336 185.702173 
L 229.005294 176.02052 
L 229.675235 182.534681 
L 230.332167 185.765216 
L 230.97609 185.863794 
L 231.678552 175.523605 
L 232.368006 178.987456 
L 233.011929 188.982658 
L 233.675366 180.716187 
L 234.384332 176.028519 
L 235.073786 177.242379 
L 235.776248 173.991173 
L 236.465701 176.404054 
L 237.174667 173.627343 
L 237.883634 172.668776 
L 238.618617 167.359944 
L 239.308071 176.48377 
L 240.004028 175.900234 
L 240.706491 172.08214 
L 241.415457 170.660821 
L 242.098406 177.233183 
L 242.781355 178.894693 
L 243.477313 174.131955 
L 244.186279 174.44262 
L 244.908254 170.873632 
L 245.604212 175.312556 
L 246.267648 181.660826 
L 246.976615 176.593065 
L 247.679077 173.652917 
L 248.388043 172.632731 
L 249.116522 168.51945 
L 249.773454 181.977476 
L 250.501934 171.748426 
L 251.217404 172.147404 
L 251.926371 171.18068 
L 252.771927 158.850395 
L 253.50691 167.198342 
L 254.235389 166.542236 
L 254.970373 177.888816 
L 255.783408 162.804155 
L 256.570425 161.418156 
L 257.259879 175.350795 
L 257.988358 172.401502 
L 258.723341 168.197382 
L 259.425803 172.547936 
L 260.173795 166.320494 
L 260.921787 173.695795 
L 261.663275 167.223207 
L 262.417771 168.992584 
L 263.178772 166.646212 
L 263.991807 161.837198 
L 264.843867 160.232204 
L 265.643893 164.472573 
L 266.48945 158.581527 
L 267.374031 153.348219 
L 268.206579 164.447841 
L 269.214742 141.68197 
L 270.209897 140.806049 
L 271.074966 150.129227 
L 272.226223 125.488815 
L 273.260403 152.861514 
L 274.294583 147.537879 
L 275.452345 136.659824 
L 276.26538 158.017741 
L 277.175979 175.463806 
L 278.145116 157.281545 
L 279.081732 150.932188 
L 280.174451 137.347172 
L 281.371238 127.309015 
L 282.294846 152.940524 
L 283.133898 161.011553 
L 284.109539 137.571184 
L 285.449421 111.062958 
L 286.763285 108.692084 
L 287.882021 128.375316 
L 289.540612 75.946739 
L 289.755253 277.364167 
L 291.290263 96.927709 
L 292.382981 127.354451 
L 293.38464 137.111066 
L 295.225351 63.475786 
L 296.259531 132.932082 
L 297.618925 109.24795 
L 299.531183 53.568 
L 300.565363 134.655386 
L 301.612552 134.397272 
L 302.633724 136.624081 
L 303.693921 130.085669 
L 304.728101 133.529288 
L 305.677726 141.611163 
L 306.666376 141.024177 
L 308.227403 98.999507 
L 309.177028 151.262326 
L 310.256738 141.471894 
L 311.251893 134.484504 
L 312.292577 147.46968 
L 313.326757 129.020972 
L 314.282886 145.725542 
L 315.15446 149.535671 
L 316.026033 149.541431 
L 316.832563 163.614851 
L 317.671615 159.482373 
L 318.647257 156.99111 
L 319.460292 158.455273 
L 320.403412 162.394515 
L 321.242464 154.933658 
L 322.211601 161.029475 
L 322.972602 160.082477 
L 324.514116 165.289067 
L 325.275117 165.642654 
L 326.05563 164.36039 
L 326.842648 160.23769 
L 327.616657 164.654551 
L 328.390666 162.307991 
L 329.138658 162.192119 
L 329.867137 165.026961 
L 330.60212 166.934204 
L 331.350112 161.982079 
L 332.098104 164.130397 
L 332.820079 167.182311 
L 333.555063 162.025562 
L 334.238012 174.443198 
L 334.953483 168.082671 
L 335.668953 169.140469 
L 336.364911 173.241759 
L 337.099894 165.529119 
L 337.847886 165.126632 
L 338.615391 162.56072 
L 339.337366 169.188143 
L 340.065845 167.63321 
L 340.761803 172.863363 
L 341.503291 165.743331 
L 342.251283 164.568908 
L 343.018788 165.56997 
L 343.76678 165.587143 
L 344.508267 166.411492 
L 345.256259 166.605169 
L 345.991243 168.277382 
L 346.706713 168.816587 
L 347.487227 156.736643 
L 348.983211 169.059906 
L 349.731203 166.558952 
L 350.479195 164.577767 
L 351.20117 169.591161 
L 351.955666 161.904473 
L 352.762197 155.945688 
L 353.549214 159.055585 
L 354.277693 167.058139 
L 354.993164 169.833108 
L 355.734652 166.469619 
L 356.469635 166.786746 
L 357.172097 170.042826 
L 357.926593 161.850304 
L 358.668081 163.805059 
L 359.357535 173.073776 
L 360.12504 159.673153 
L 360.847014 168.717429 
L 361.581998 164.734587 
L 362.323486 165.428377 
L 363.077982 161.595583 
L 363.825974 159.468392 
L 364.573966 163.239656 
L 365.328462 160.69684 
L 366.06995 161.539895 
L 366.83095 162.719692 
L 367.572438 165.100433 
L 368.313926 163.537005 
L 369.048909 167.803816 
L 369.80991 163.738018 
L 370.57091 161.066747 
L 371.312398 166.802771 
L 372.01486 173.417506 
L 372.762852 166.567818 
L 373.530357 161.979323 
L 374.252332 172.017021 
L 374.99382 168.207109 
L 375.735307 169.570192 
L 376.476795 167.874454 
L 377.224787 166.930545 
L 377.972779 162.061357 
L 378.720771 168.531511 
L 379.429737 170.914659 
L 380.158217 168.888172 
L 380.899704 167.344516 
L 381.634688 167.576116 
L 382.38268 163.940778 
L 383.130672 163.997431 
L 383.891672 162.275558 
L 385.387656 165.363774 
L 386.142153 164.582648 
L 386.890145 166.28952 
L 387.651145 159.660353 
L 388.431659 158.003801 
L 389.173146 163.454181 
L 389.979677 150.316483 
L 390.766694 157.847579 
L 391.560216 148.703006 
L 392.347234 151.642305 
L 393.179782 145.343857 
L 393.947286 158.550707 
L 394.740808 151.548732 
L 395.495305 161.091989 
L 396.236792 161.97895 
L 396.958767 169.356071 
L 398.487273 157.106382 
L 398.487273 157.106382 
" clip-path="url(#pe6bf5101fb)" style="fill: none; stroke: #1f77b4; stroke-width: 1.5; stroke-linecap: square"/>
   </g>
   <g id="patch_3">
    <path d="M 57.6 307.584 
L 57.6 41.472 
" style="fill: none; stroke: #000000; stroke-width: 0.8; stroke-linejoin: miter; stroke-linecap: square"/>
   </g>
   <g id="patch_4">
    <path d="M 414.72 307.584 
L 414.72 41.472 
" style="fill: none; stroke: #000000; stroke-width: 0.8; stroke-linejoin: miter; stroke-linecap: square"/>
   </g>
   <g id="patch_5">
    <path d="M 57.6 307.584 
L 414.72 307.584 
" style="fill: none; stroke: #000000; stroke-width: 0.8; stroke-linejoin: miter; stroke-linecap: square"/>
   </g>
   <g id="patch_6">
    <path d="M 57.6 41.472 
L 414.72 41.472 
" style="fill: none; stroke: #000000; stroke-width: 0.8; stroke-linejoin: miter; stroke-linecap: square"/>
   </g>
   <g id="text_15">
    <!-- learning curve -->
    <g transform="translate(192.96375 35.472) scale(0.12 -0.12)">
     <defs>
      <path id="DejaVuSans-6c" d="M 603 4863 
L 1178 4863 
L 1178 0 
L 603 0 
L 603 4863 
z
" transform="scale(0.015625)"/>
      <path id="DejaVuSans-6e" d="M 3513 2113 
L 3513 0 
L 2938 0 
L 2938 2094 
Q 2938 2591 2744 2837 
Q 2550 3084 2163 3084 
Q 1697 3084 1428 2787 
Q 1159 2491 1159 1978 
L 1159 0 
L 581 0 
L 581 3500 
L 1159 3500 
L 1159 2956 
Q 1366 3272 1645 3428 
Q 1925 3584 2291 3584 
Q 2894 3584 3203 3211 
Q 3513 2838 3513 2113 
z
" transform="scale(0.015625)"/>
      <path id="DejaVuSans-67" d="M 2906 1791 
Q 2906 2416 2648 2759 
Q 2391 3103 1925 3103 
Q 1463 3103 1205 2759 
Q 947 2416 947 1791 
Q 947 1169 1205 825 
Q 1463 481 1925 481 
Q 2391 481 2648 825 
Q 2906 1169 2906 1791 
z
M 3481 434 
Q 3481 -459 3084 -895 
Q 2688 -1331 1869 -1331 
Q 1566 -1331 1297 -1286 
Q 1028 -1241 775 -1147 
L 775 -588 
Q 1028 -725 1275 -790 
Q 1522 -856 1778 -856 
Q 2344 -856 2625 -561 
Q 2906 -266 2906 331 
L 2906 616 
Q 2728 306 2450 153 
Q 2172 0 1784 0 
Q 1141 0 747 490 
Q 353 981 353 1791 
Q 353 2603 747 3093 
Q 1141 3584 1784 3584 
Q 2172 3584 2450 3431 
Q 2728 3278 2906 2969 
L 2906 3500 
L 3481 3500 
L 3481 434 
z
" transform="scale(0.015625)"/>
      <path id="DejaVuSans-20" transform="scale(0.015625)"/>
      <path id="DejaVuSans-63" d="M 3122 3366 
L 3122 2828 
Q 2878 2963 2633 3030 
Q 2388 3097 2138 3097 
Q 1578 3097 1268 2742 
Q 959 2388 959 1747 
Q 959 1106 1268 751 
Q 1578 397 2138 397 
Q 2388 397 2633 464 
Q 2878 531 3122 666 
L 3122 134 
Q 2881 22 2623 -34 
Q 2366 -91 2075 -91 
Q 1284 -91 818 406 
Q 353 903 353 1747 
Q 353 2603 823 3093 
Q 1294 3584 2113 3584 
Q 2378 3584 2631 3529 
Q 2884 3475 3122 3366 
z
" transform="scale(0.015625)"/>
      <path id="DejaVuSans-75" d="M 544 1381 
L 544 3500 
L 1119 3500 
L 1119 1403 
Q 1119 906 1312 657 
Q 1506 409 1894 409 
Q 2359 409 2629 706 
Q 2900 1003 2900 1516 
L 2900 3500 
L 3475 3500 
L 3475 0 
L 2900 0 
L 2900 538 
Q 2691 219 2414 64 
Q 2138 -91 1772 -91 
Q 1169 -91 856 284 
Q 544 659 544 1381 
z
M 1991 3584 
L 1991 3584 
z
" transform="scale(0.015625)"/>
      <path id="DejaVuSans-76" d="M 191 3500 
L 800 3500 
L 1894 563 
L 2988 3500 
L 3597 3500 
L 2284 0 
L 1503 0 
L 191 3500 
z
" transform="scale(0.015625)"/>
     </defs>
     <use xlink:href="#DejaVuSans-6c"/>
     <use xlink:href="#DejaVuSans-65" x="27.783203"/>
     <use xlink:href="#DejaVuSans-61" x="89.306641"/>
     <use xlink:href="#DejaVuSans-72" x="150.585938"/>
     <use xlink:href="#DejaVuSans-6e" x="189.949219"/>
     <use xlink:href="#DejaVuSans-69" x="253.328125"/>
     <use xlink:href="#DejaVuSans-6e" x="281.111328"/>
     <use xlink:href="#DejaVuSans-67" x="344.490234"/>
     <use xlink:href="#DejaVuSans-20" x="407.966797"/>
     <use xlink:href="#DejaVuSans-63" x="439.753906"/>
     <use xlink:href="#DejaVuSans-75" x="494.734375"/>
     <use xlink:href="#DejaVuSans-72" x="558.113281"/>
     <use xlink:href="#DejaVuSans-76" x="599.226562"/>
     <use xlink:href="#DejaVuSans-65" x="658.40625"/>
    </g>
   </g>
  </g>
 </g>
 <defs>
  <clipPath id="pe6bf5101fb">
   <rect x="57.6" y="41.472" width="357.12" height="266.112"/>
  </clipPath>
 </defs>
</svg>
