<?xml version="1.0" encoding="utf-8" standalone="no"?>
<!DOCTYPE svg PUBLIC "-//W3C//DTD SVG 1.1//EN"
  "http://www.w3.org/Graphics/SVG/1.1/DTD/svg11.dtd">
<svg xmlns:xlink="http://www.w3.org/1999/xlink" width="460.8pt" height="345.6pt" viewBox="0 0 460.8 345.6" xmlns="http://www.w3.org/2000/svg" version="1.1">
 <metadata>
  <rdf:RDF xmlns:dc="http://purl.org/dc/elements/1.1/" xmlns:cc="http://creativecommons.org/ns#" xmlns:rdf="http://www.w3.org/1999/02/22-rdf-syntax-ns#">
   <cc:Work>
    <dc:type rdf:resource="http://purl.org/dc/dcmitype/StillImage"/>
    <dc:date>2023-08-18T15:57:52.000192</dc:date>
    <dc:format>image/svg+xml</dc:format>
    <dc:creator>
     <cc:Agent>
      <dc:title>Matplotlib v3.7.1, https://matplotlib.org/</dc:title>
     </cc:Agent>
    </dc:creator>
   </cc:Work>
  </rdf:RDF>
 </metadata>
 <defs>
  <style type="text/css">*{stroke-linejoin: round; stroke-linecap: butt}</style>
 </defs>
 <g id="figure_1">
  <g id="patch_1">
   <path d="M 0 345.6 
L 460.8 345.6 
L 460.8 0 
L 0 0 
z
" style="fill: #ffffff"/>
  </g>
  <g id="axes_1">
   <g id="patch_2">
    <path d="M 57.6 307.584 
L 414.72 307.584 
L 414.72 41.472 
L 57.6 41.472 
z
" style="fill: #ffffff"/>
   </g>
   <g id="matplotlib.axis_1">
    <g id="xtick_1">
     <g id="line2d_1">
      <defs>
       <path id="mfeb23b4c9c" d="M 0 0 
L 0 3.5 
" style="stroke: #000000; stroke-width: 0.8"/>
      </defs>
      <g>
       <use xlink:href="#mfeb23b4c9c" x="73.746705" y="307.584" style="stroke: #000000; stroke-width: 0.8"/>
      </g>
     </g>
     <g id="text_1">
      <!-- 0 -->
      <g transform="translate(70.565455 322.182437) scale(0.1 -0.1)">
       <defs>
        <path id="DejaVuSans-30" d="M 2034 4250 
Q 1547 4250 1301 3770 
Q 1056 3291 1056 2328 
Q 1056 1369 1301 889 
Q 1547 409 2034 409 
Q 2525 409 2770 889 
Q 3016 1369 3016 2328 
Q 3016 3291 2770 3770 
Q 2525 4250 2034 4250 
z
M 2034 4750 
Q 2819 4750 3233 4129 
Q 3647 3509 3647 2328 
Q 3647 1150 3233 529 
Q 2819 -91 2034 -91 
Q 1250 -91 836 529 
Q 422 1150 422 2328 
Q 422 3509 836 4129 
Q 1250 4750 2034 4750 
z
" transform="scale(0.015625)"/>
       </defs>
       <use xlink:href="#DejaVuSans-30"/>
      </g>
     </g>
    </g>
    <g id="xtick_2">
     <g id="line2d_2">
      <g>
       <use xlink:href="#mfeb23b4c9c" x="139.917658" y="307.584" style="stroke: #000000; stroke-width: 0.8"/>
      </g>
     </g>
     <g id="text_2">
      <!-- 10000 -->
      <g transform="translate(124.011408 322.182437) scale(0.1 -0.1)">
       <defs>
        <path id="DejaVuSans-31" d="M 794 531 
L 1825 531 
L 1825 4091 
L 703 3866 
L 703 4441 
L 1819 4666 
L 2450 4666 
L 2450 531 
L 3481 531 
L 3481 0 
L 794 0 
L 794 531 
z
" transform="scale(0.015625)"/>
       </defs>
       <use xlink:href="#DejaVuSans-31"/>
       <use xlink:href="#DejaVuSans-30" x="63.623047"/>
       <use xlink:href="#DejaVuSans-30" x="127.246094"/>
       <use xlink:href="#DejaVuSans-30" x="190.869141"/>
       <use xlink:href="#DejaVuSans-30" x="254.492188"/>
      </g>
     </g>
    </g>
    <g id="xtick_3">
     <g id="line2d_3">
      <g>
       <use xlink:href="#mfeb23b4c9c" x="206.088611" y="307.584" style="stroke: #000000; stroke-width: 0.8"/>
      </g>
     </g>
     <g id="text_3">
      <!-- 20000 -->
      <g transform="translate(190.182361 322.182437) scale(0.1 -0.1)">
       <defs>
        <path id="DejaVuSans-32" d="M 1228 531 
L 3431 531 
L 3431 0 
L 469 0 
L 469 531 
Q 828 903 1448 1529 
Q 2069 2156 2228 2338 
Q 2531 2678 2651 2914 
Q 2772 3150 2772 3378 
Q 2772 3750 2511 3984 
Q 2250 4219 1831 4219 
Q 1534 4219 1204 4116 
Q 875 4013 500 3803 
L 500 4441 
Q 881 4594 1212 4672 
Q 1544 4750 1819 4750 
Q 2544 4750 2975 4387 
Q 3406 4025 3406 3419 
Q 3406 3131 3298 2873 
Q 3191 2616 2906 2266 
Q 2828 2175 2409 1742 
Q 1991 1309 1228 531 
z
" transform="scale(0.015625)"/>
       </defs>
       <use xlink:href="#DejaVuSans-32"/>
       <use xlink:href="#DejaVuSans-30" x="63.623047"/>
       <use xlink:href="#DejaVuSans-30" x="127.246094"/>
       <use xlink:href="#DejaVuSans-30" x="190.869141"/>
       <use xlink:href="#DejaVuSans-30" x="254.492188"/>
      </g>
     </g>
    </g>
    <g id="xtick_4">
     <g id="line2d_4">
      <g>
       <use xlink:href="#mfeb23b4c9c" x="272.259563" y="307.584" style="stroke: #000000; stroke-width: 0.8"/>
      </g>
     </g>
     <g id="text_4">
      <!-- 30000 -->
      <g transform="translate(256.353313 322.182437) scale(0.1 -0.1)">
       <defs>
        <path id="DejaVuSans-33" d="M 2597 2516 
Q 3050 2419 3304 2112 
Q 3559 1806 3559 1356 
Q 3559 666 3084 287 
Q 2609 -91 1734 -91 
Q 1441 -91 1130 -33 
Q 819 25 488 141 
L 488 750 
Q 750 597 1062 519 
Q 1375 441 1716 441 
Q 2309 441 2620 675 
Q 2931 909 2931 1356 
Q 2931 1769 2642 2001 
Q 2353 2234 1838 2234 
L 1294 2234 
L 1294 2753 
L 1863 2753 
Q 2328 2753 2575 2939 
Q 2822 3125 2822 3475 
Q 2822 3834 2567 4026 
Q 2313 4219 1838 4219 
Q 1578 4219 1281 4162 
Q 984 4106 628 3988 
L 628 4550 
Q 988 4650 1302 4700 
Q 1616 4750 1894 4750 
Q 2613 4750 3031 4423 
Q 3450 4097 3450 3541 
Q 3450 3153 3228 2886 
Q 3006 2619 2597 2516 
z
" transform="scale(0.015625)"/>
       </defs>
       <use xlink:href="#DejaVuSans-33"/>
       <use xlink:href="#DejaVuSans-30" x="63.623047"/>
       <use xlink:href="#DejaVuSans-30" x="127.246094"/>
       <use xlink:href="#DejaVuSans-30" x="190.869141"/>
       <use xlink:href="#DejaVuSans-30" x="254.492188"/>
      </g>
     </g>
    </g>
    <g id="xtick_5">
     <g id="line2d_5">
      <g>
       <use xlink:href="#mfeb23b4c9c" x="338.430516" y="307.584" style="stroke: #000000; stroke-width: 0.8"/>
      </g>
     </g>
     <g id="text_5">
      <!-- 40000 -->
      <g transform="translate(322.524266 322.182437) scale(0.1 -0.1)">
       <defs>
        <path id="DejaVuSans-34" d="M 2419 4116 
L 825 1625 
L 2419 1625 
L 2419 4116 
z
M 2253 4666 
L 3047 4666 
L 3047 1625 
L 3713 1625 
L 3713 1100 
L 3047 1100 
L 3047 0 
L 2419 0 
L 2419 1100 
L 313 1100 
L 313 1709 
L 2253 4666 
z
" transform="scale(0.015625)"/>
       </defs>
       <use xlink:href="#DejaVuSans-34"/>
       <use xlink:href="#DejaVuSans-30" x="63.623047"/>
       <use xlink:href="#DejaVuSans-30" x="127.246094"/>
       <use xlink:href="#DejaVuSans-30" x="190.869141"/>
       <use xlink:href="#DejaVuSans-30" x="254.492188"/>
      </g>
     </g>
    </g>
    <g id="xtick_6">
     <g id="line2d_6">
      <g>
       <use xlink:href="#mfeb23b4c9c" x="404.601469" y="307.584" style="stroke: #000000; stroke-width: 0.8"/>
      </g>
     </g>
     <g id="text_6">
      <!-- 50000 -->
      <g transform="translate(388.695219 322.182437) scale(0.1 -0.1)">
       <defs>
        <path id="DejaVuSans-35" d="M 691 4666 
L 3169 4666 
L 3169 4134 
L 1269 4134 
L 1269 2991 
Q 1406 3038 1543 3061 
Q 1681 3084 1819 3084 
Q 2600 3084 3056 2656 
Q 3513 2228 3513 1497 
Q 3513 744 3044 326 
Q 2575 -91 1722 -91 
Q 1428 -91 1123 -41 
Q 819 9 494 109 
L 494 744 
Q 775 591 1075 516 
Q 1375 441 1709 441 
Q 2250 441 2565 725 
Q 2881 1009 2881 1497 
Q 2881 1984 2565 2268 
Q 2250 2553 1709 2553 
Q 1456 2553 1204 2497 
Q 953 2441 691 2322 
L 691 4666 
z
" transform="scale(0.015625)"/>
       </defs>
       <use xlink:href="#DejaVuSans-35"/>
       <use xlink:href="#DejaVuSans-30" x="63.623047"/>
       <use xlink:href="#DejaVuSans-30" x="127.246094"/>
       <use xlink:href="#DejaVuSans-30" x="190.869141"/>
       <use xlink:href="#DejaVuSans-30" x="254.492188"/>
      </g>
     </g>
    </g>
    <g id="text_7">
     <!-- timesteps -->
     <g transform="translate(211.443594 335.860562) scale(0.1 -0.1)">
      <defs>
       <path id="DejaVuSans-74" d="M 1172 4494 
L 1172 3500 
L 2356 3500 
L 2356 3053 
L 1172 3053 
L 1172 1153 
Q 1172 725 1289 603 
Q 1406 481 1766 481 
L 2356 481 
L 2356 0 
L 1766 0 
Q 1100 0 847 248 
Q 594 497 594 1153 
L 594 3053 
L 172 3053 
L 172 3500 
L 594 3500 
L 594 4494 
L 1172 4494 
z
" transform="scale(0.015625)"/>
       <path id="DejaVuSans-69" d="M 603 3500 
L 1178 3500 
L 1178 0 
L 603 0 
L 603 3500 
z
M 603 4863 
L 1178 4863 
L 1178 4134 
L 603 4134 
L 603 4863 
z
" transform="scale(0.015625)"/>
       <path id="DejaVuSans-6d" d="M 3328 2828 
Q 3544 3216 3844 3400 
Q 4144 3584 4550 3584 
Q 5097 3584 5394 3201 
Q 5691 2819 5691 2113 
L 5691 0 
L 5113 0 
L 5113 2094 
Q 5113 2597 4934 2840 
Q 4756 3084 4391 3084 
Q 3944 3084 3684 2787 
Q 3425 2491 3425 1978 
L 3425 0 
L 2847 0 
L 2847 2094 
Q 2847 2600 2669 2842 
Q 2491 3084 2119 3084 
Q 1678 3084 1418 2786 
Q 1159 2488 1159 1978 
L 1159 0 
L 581 0 
L 581 3500 
L 1159 3500 
L 1159 2956 
Q 1356 3278 1631 3431 
Q 1906 3584 2284 3584 
Q 2666 3584 2933 3390 
Q 3200 3197 3328 2828 
z
" transform="scale(0.015625)"/>
       <path id="DejaVuSans-65" d="M 3597 1894 
L 3597 1613 
L 953 1613 
Q 991 1019 1311 708 
Q 1631 397 2203 397 
Q 2534 397 2845 478 
Q 3156 559 3463 722 
L 3463 178 
Q 3153 47 2828 -22 
Q 2503 -91 2169 -91 
Q 1331 -91 842 396 
Q 353 884 353 1716 
Q 353 2575 817 3079 
Q 1281 3584 2069 3584 
Q 2775 3584 3186 3129 
Q 3597 2675 3597 1894 
z
M 3022 2063 
Q 3016 2534 2758 2815 
Q 2500 3097 2075 3097 
Q 1594 3097 1305 2825 
Q 1016 2553 972 2059 
L 3022 2063 
z
" transform="scale(0.015625)"/>
       <path id="DejaVuSans-73" d="M 2834 3397 
L 2834 2853 
Q 2591 2978 2328 3040 
Q 2066 3103 1784 3103 
Q 1356 3103 1142 2972 
Q 928 2841 928 2578 
Q 928 2378 1081 2264 
Q 1234 2150 1697 2047 
L 1894 2003 
Q 2506 1872 2764 1633 
Q 3022 1394 3022 966 
Q 3022 478 2636 193 
Q 2250 -91 1575 -91 
Q 1294 -91 989 -36 
Q 684 19 347 128 
L 347 722 
Q 666 556 975 473 
Q 1284 391 1588 391 
Q 1994 391 2212 530 
Q 2431 669 2431 922 
Q 2431 1156 2273 1281 
Q 2116 1406 1581 1522 
L 1381 1569 
Q 847 1681 609 1914 
Q 372 2147 372 2553 
Q 372 3047 722 3315 
Q 1072 3584 1716 3584 
Q 2034 3584 2315 3537 
Q 2597 3491 2834 3397 
z
" transform="scale(0.015625)"/>
       <path id="DejaVuSans-70" d="M 1159 525 
L 1159 -1331 
L 581 -1331 
L 581 3500 
L 1159 3500 
L 1159 2969 
Q 1341 3281 1617 3432 
Q 1894 3584 2278 3584 
Q 2916 3584 3314 3078 
Q 3713 2572 3713 1747 
Q 3713 922 3314 415 
Q 2916 -91 2278 -91 
Q 1894 -91 1617 61 
Q 1341 213 1159 525 
z
M 3116 1747 
Q 3116 2381 2855 2742 
Q 2594 3103 2138 3103 
Q 1681 3103 1420 2742 
Q 1159 2381 1159 1747 
Q 1159 1113 1420 752 
Q 1681 391 2138 391 
Q 2594 391 2855 752 
Q 3116 1113 3116 1747 
z
" transform="scale(0.015625)"/>
      </defs>
      <use xlink:href="#DejaVuSans-74"/>
      <use xlink:href="#DejaVuSans-69" x="39.208984"/>
      <use xlink:href="#DejaVuSans-6d" x="66.992188"/>
      <use xlink:href="#DejaVuSans-65" x="164.404297"/>
      <use xlink:href="#DejaVuSans-73" x="225.927734"/>
      <use xlink:href="#DejaVuSans-74" x="278.027344"/>
      <use xlink:href="#DejaVuSans-65" x="317.236328"/>
      <use xlink:href="#DejaVuSans-70" x="378.759766"/>
      <use xlink:href="#DejaVuSans-73" x="442.236328"/>
     </g>
    </g>
   </g>
   <g id="matplotlib.axis_2">
    <g id="ytick_1">
     <g id="line2d_7">
      <defs>
       <path id="m96f81cd9a5" d="M 0 0 
L -3.5 0 
" style="stroke: #000000; stroke-width: 0.8"/>
      </defs>
      <g>
       <use xlink:href="#m96f81cd9a5" x="57.6" y="299.512115" style="stroke: #000000; stroke-width: 0.8"/>
      </g>
     </g>
     <g id="text_8">
      <!-- 0 -->
      <g transform="translate(44.2375 303.311334) scale(0.1 -0.1)">
       <use xlink:href="#DejaVuSans-30"/>
      </g>
     </g>
    </g>
    <g id="ytick_2">
     <g id="line2d_8">
      <g>
       <use xlink:href="#m96f81cd9a5" x="57.6" y="254.08275" style="stroke: #000000; stroke-width: 0.8"/>
      </g>
     </g>
     <g id="text_9">
      <!-- 50 -->
      <g transform="translate(37.875 257.881969) scale(0.1 -0.1)">
       <use xlink:href="#DejaVuSans-35"/>
       <use xlink:href="#DejaVuSans-30" x="63.623047"/>
      </g>
     </g>
    </g>
    <g id="ytick_3">
     <g id="line2d_9">
      <g>
       <use xlink:href="#m96f81cd9a5" x="57.6" y="208.653385" style="stroke: #000000; stroke-width: 0.8"/>
      </g>
     </g>
     <g id="text_10">
      <!-- 100 -->
      <g transform="translate(31.5125 212.452604) scale(0.1 -0.1)">
       <use xlink:href="#DejaVuSans-31"/>
       <use xlink:href="#DejaVuSans-30" x="63.623047"/>
       <use xlink:href="#DejaVuSans-30" x="127.246094"/>
      </g>
     </g>
    </g>
    <g id="ytick_4">
     <g id="line2d_10">
      <g>
       <use xlink:href="#m96f81cd9a5" x="57.6" y="163.22402" style="stroke: #000000; stroke-width: 0.8"/>
      </g>
     </g>
     <g id="text_11">
      <!-- 150 -->
      <g transform="translate(31.5125 167.023239) scale(0.1 -0.1)">
       <use xlink:href="#DejaVuSans-31"/>
       <use xlink:href="#DejaVuSans-35" x="63.623047"/>
       <use xlink:href="#DejaVuSans-30" x="127.246094"/>
      </g>
     </g>
    </g>
    <g id="ytick_5">
     <g id="line2d_11">
      <g>
       <use xlink:href="#m96f81cd9a5" x="57.6" y="117.794655" style="stroke: #000000; stroke-width: 0.8"/>
      </g>
     </g>
     <g id="text_12">
      <!-- 200 -->
      <g transform="translate(31.5125 121.593874) scale(0.1 -0.1)">
       <use xlink:href="#DejaVuSans-32"/>
       <use xlink:href="#DejaVuSans-30" x="63.623047"/>
       <use xlink:href="#DejaVuSans-30" x="127.246094"/>
      </g>
     </g>
    </g>
    <g id="ytick_6">
     <g id="line2d_12">
      <g>
       <use xlink:href="#m96f81cd9a5" x="57.6" y="72.36529" style="stroke: #000000; stroke-width: 0.8"/>
      </g>
     </g>
     <g id="text_13">
      <!-- 250 -->
      <g transform="translate(31.5125 76.164509) scale(0.1 -0.1)">
       <use xlink:href="#DejaVuSans-32"/>
       <use xlink:href="#DejaVuSans-35" x="63.623047"/>
       <use xlink:href="#DejaVuSans-30" x="127.246094"/>
      </g>
     </g>
    </g>
    <g id="text_14">
     <!-- rewards -->
     <g transform="translate(25.432812 194.447531) rotate(-90) scale(0.1 -0.1)">
      <defs>
       <path id="DejaVuSans-72" d="M 2631 2963 
Q 2534 3019 2420 3045 
Q 2306 3072 2169 3072 
Q 1681 3072 1420 2755 
Q 1159 2438 1159 1844 
L 1159 0 
L 581 0 
L 581 3500 
L 1159 3500 
L 1159 2956 
Q 1341 3275 1631 3429 
Q 1922 3584 2338 3584 
Q 2397 3584 2469 3576 
Q 2541 3569 2628 3553 
L 2631 2963 
z
" transform="scale(0.015625)"/>
       <path id="DejaVuSans-77" d="M 269 3500 
L 844 3500 
L 1563 769 
L 2278 3500 
L 2956 3500 
L 3675 769 
L 4391 3500 
L 4966 3500 
L 4050 0 
L 3372 0 
L 2619 2869 
L 1863 0 
L 1184 0 
L 269 3500 
z
" transform="scale(0.015625)"/>
       <path id="DejaVuSans-61" d="M 2194 1759 
Q 1497 1759 1228 1600 
Q 959 1441 959 1056 
Q 959 750 1161 570 
Q 1363 391 1709 391 
Q 2188 391 2477 730 
Q 2766 1069 2766 1631 
L 2766 1759 
L 2194 1759 
z
M 3341 1997 
L 3341 0 
L 2766 0 
L 2766 531 
Q 2569 213 2275 61 
Q 1981 -91 1556 -91 
Q 1019 -91 701 211 
Q 384 513 384 1019 
Q 384 1609 779 1909 
Q 1175 2209 1959 2209 
L 2766 2209 
L 2766 2266 
Q 2766 2663 2505 2880 
Q 2244 3097 1772 3097 
Q 1472 3097 1187 3025 
Q 903 2953 641 2809 
L 641 3341 
Q 956 3463 1253 3523 
Q 1550 3584 1831 3584 
Q 2591 3584 2966 3190 
Q 3341 2797 3341 1997 
z
" transform="scale(0.015625)"/>
       <path id="DejaVuSans-64" d="M 2906 2969 
L 2906 4863 
L 3481 4863 
L 3481 0 
L 2906 0 
L 2906 525 
Q 2725 213 2448 61 
Q 2172 -91 1784 -91 
Q 1150 -91 751 415 
Q 353 922 353 1747 
Q 353 2572 751 3078 
Q 1150 3584 1784 3584 
Q 2172 3584 2448 3432 
Q 2725 3281 2906 2969 
z
M 947 1747 
Q 947 1113 1208 752 
Q 1469 391 1925 391 
Q 2381 391 2643 752 
Q 2906 1113 2906 1747 
Q 2906 2381 2643 2742 
Q 2381 3103 1925 3103 
Q 1469 3103 1208 2742 
Q 947 2381 947 1747 
z
" transform="scale(0.015625)"/>
      </defs>
      <use xlink:href="#DejaVuSans-72"/>
      <use xlink:href="#DejaVuSans-65" x="38.863281"/>
      <use xlink:href="#DejaVuSans-77" x="100.386719"/>
      <use xlink:href="#DejaVuSans-61" x="182.173828"/>
      <use xlink:href="#DejaVuSans-72" x="243.453125"/>
      <use xlink:href="#DejaVuSans-64" x="282.816406"/>
      <use xlink:href="#DejaVuSans-73" x="346.292969"/>
     </g>
    </g>
   </g>
   <g id="line2d_13">
    <path d="M 73.832727 289.873281 
L 73.91875 292.408341 
L 74.011389 287.007919 
L 74.110645 289.99738 
L 74.209902 289.475877 
L 74.315775 292.757237 
L 74.428266 283.382886 
L 74.553991 287.190863 
L 74.85176 288.33674 
L 75.017187 288.071703 
L 75.182615 293.789639 
L 75.268637 290.192394 
L 75.453916 275.48945 
L 75.652428 288.29231 
L 75.850941 292.233691 
L 76.056071 277.614977 
L 76.274435 287.723529 
L 76.40016 286.743018 
L 76.525885 286.917972 
L 76.592056 291.840383 
L 76.836889 266.377651 
L 77.081721 255.195872 
L 77.161126 292.436269 
L 77.286851 285.215907 
L 77.372873 291.672305 
L 77.452278 290.575842 
L 77.597854 277.955292 
L 77.670643 292.455023 
L 77.763282 289.864504 
L 77.895624 283.036911 
L 78.193393 249.859246 
L 78.292649 292.347028 
L 78.411757 283.945094 
L 78.570567 292.70663 
L 78.722761 285.063491 
L 78.987444 248.716209 
L 79.06685 293.228454 
L 79.212426 286.252601 
L 79.311682 290.507628 
L 79.602834 283.980978 
L 79.728559 287.726808 
L 80.059414 277.109396 
L 80.482908 206.38944 
L 80.595399 290.568672 
L 80.707889 281.998134 
L 80.77406 293.081445 
L 80.860082 290.192695 
L 81.012276 280.970892 
L 81.237257 283.304332 
L 81.402684 292.527573 
L 81.6409 285.296865 
L 81.839413 284.016668 
L 82.00484 269.545482 
L 82.123948 286.634856 
L 82.243055 283.390226 
L 82.348929 286.482826 
L 82.421717 295.488 
L 82.646698 285.487907 
L 82.745955 288.056653 
L 82.805508 295.077068 
L 82.884914 293.602115 
L 82.951085 292.778657 
L 83.076809 288.864827 
L 83.222385 288.870963 
L 83.559857 261.723424 
L 83.659114 289.479872 
L 83.798073 287.22416 
L 83.864244 292.21758 
L 83.956883 289.686852 
L 84.32744 263.285638 
L 84.439931 286.31031 
L 84.704615 277.58734 
L 84.870042 278.361638 
L 84.929596 293.467616 
L 85.009001 290.526374 
L 85.088406 289.353286 
L 85.14796 294.152979 
L 85.485432 284.90042 
L 85.750116 269.330046 
L 85.92216 285.911768 
L 86.193461 240.565052 
L 86.623572 284.153198 
L 86.749297 290.670524 
L 86.848554 290.614993 
L 86.961044 283.376845 
L 87.179408 260.621373 
L 87.384538 275.780417 
L 87.569817 276.294059 
L 87.702159 290.844678 
L 87.781564 290.332109 
L 87.907289 287.93584 
L 88.205058 249.538265 
L 88.284463 291.461117 
L 88.410188 283.694913 
L 88.582233 284.156772 
L 88.694723 291.402805 
L 88.833682 284.468913 
L 88.90647 293.06455 
L 89.085132 274.207801 
L 89.184388 288.78941 
L 89.303496 288.693826 
L 89.468923 289.699341 
L 89.621117 280.314005 
L 89.740224 282.43553 
L 89.826247 292.732738 
L 89.93212 289.875452 
L 90.024759 290.092625 
L 90.104165 290.276116 
L 90.368848 257.350197 
L 90.59383 287.810772 
L 90.660001 293.982792 
L 90.884982 287.292818 
L 91.063643 280.06532 
L 91.27539 289.104741 
L 91.401115 287.966856 
L 91.533457 279.449079 
L 91.831226 278.526833 
L 91.923866 290.03926 
L 92.016505 290.009991 
L 92.089293 291.787211 
L 92.215018 291.520813 
L 92.360594 293.407473 
L 92.66498 279.722953 
L 92.87011 290.362852 
L 93.227434 274.266001 
L 93.597991 237.264749 
L 93.684013 291.80324 
L 93.78327 291.468232 
L 93.889143 289.400312 
L 94.047953 289.430483 
L 94.206764 293.109531 
L 94.35234 280.728051 
L 94.431745 293.363812 
L 94.55747 283.797536 
L 95.100071 202.062398 
L 95.17286 292.287839 
L 95.318436 278.475166 
L 95.5368 290.851412 
L 95.675759 289.517424 
L 95.755164 292.889689 
L 95.913974 275.710265 
L 96.026465 290.266505 
L 96.15219 282.01895 
L 96.615386 291.162929 
L 96.840368 283.30859 
L 97.012412 270.75813 
L 97.237393 288.600113 
L 97.402821 291.480315 
L 97.568248 269.845695 
L 97.766761 278.952113 
L 97.8594 290.057687 
L 97.95204 288.895852 
L 98.051296 289.761647 
L 98.210106 293.319501 
L 98.395385 283.005968 
L 98.6336 289.228277 
L 98.964455 254.159553 
L 99.037243 291.141671 
L 99.301927 281.302181 
L 99.401183 288.291848 
L 99.599696 280.481852 
L 99.679101 289.923096 
L 100.029807 227.309081 
L 100.089361 294.355668 
L 100.658432 261.207471 
L 100.916498 288.198383 
L 101.009138 288.900725 
L 101.148097 292.807633 
L 101.306907 279.799223 
L 101.373078 292.627948 
L 101.445866 291.90886 
L 101.61791 278.435882 
L 101.756869 284.583991 
L 102.081107 252.981524 
L 102.213449 288.526876 
L 102.345791 290.505822 
L 102.544304 291.302216 
L 102.656794 286.711023 
L 102.736199 291.187726 
L 102.822222 290.935617 
L 102.934712 290.567937 
L 103.0075 293.272825 
L 103.166311 292.306942 
L 103.338355 278.198345 
L 103.490548 280.439023 
L 103.867723 254.063561 
L 103.927277 292.563554 
L 104.2846 270.612292 
L 104.509581 284.551364 
L 104.794116 267.25792 
L 104.906607 286.326591 
L 105.038949 287.910809 
L 105.303632 283.21014 
L 105.383038 290.074989 
L 105.535231 286.19406 
L 105.621253 292.295858 
L 105.694041 291.580238 
L 105.833 279.278933 
L 105.912405 292.827414 
L 106.051364 289.607488 
L 106.521178 193.497849 
L 106.633669 284.213988 
L 106.792479 281.46654 
L 107.335081 290.371642 
L 107.467423 284.746409 
L 107.553445 289.564678 
L 107.685787 288.059495 
L 107.811512 283.845161 
L 108.254857 247.724217 
L 108.327645 291.125002 
L 108.61218 282.865515 
L 108.929801 292.599645 
L 109.042291 289.499272 
L 109.121696 292.647603 
L 109.445934 287.917059 
L 109.84296 227.771658 
L 110.286305 288.185206 
L 110.696565 240.732287 
L 110.769353 290.856659 
L 110.895078 290.482027 
L 111.000951 287.113547 
L 111.093591 290.010219 
L 111.219316 281.675116 
L 111.384743 279.246231 
L 111.510468 288.32851 
L 111.656044 288.997032 
L 111.80162 279.125566 
L 112.000133 283.39595 
L 112.225114 275.360816 
L 112.820653 130.335895 
L 112.93976 281.306743 
L 113.078719 287.149016 
L 113.336786 255.741502 
L 113.55515 290.19012 
L 113.694109 281.430889 
L 113.786749 290.483107 
L 113.905856 284.027686 
L 114.051432 284.880636 
L 114.276414 282.518902 
L 114.468309 292.452482 
L 114.62712 289.034596 
L 114.752844 279.863015 
L 114.871952 289.776225 
L 115.083699 281.185558 
L 115.176339 292.763705 
L 115.368234 268.230082 
L 115.467491 288.667728 
L 115.593216 282.77031 
L 115.884368 292.922692 
L 116.208605 286.882259 
L 116.638717 196.325041 
L 116.863698 291.879493 
L 116.956337 289.706974 
L 117.161467 288.559877 
L 117.439385 244.886923 
L 117.525407 291.711157 
L 117.61143 290.072478 
L 117.697452 290.460884 
L 117.763623 292.37513 
L 117.862879 286.196775 
L 118.49812 168.853473 
L 118.570908 290.819205 
L 118.709867 293.345022 
L 118.776038 293.190988 
L 118.842209 292.676697 
L 118.9547 290.308199 
L 119.245852 231.000144 
L 119.358343 284.07252 
L 119.662729 290.95873 
L 119.828157 282.008511 
L 119.967116 294.134578 
L 120.033286 293.982479 
L 120.211948 273.465815 
L 120.443546 289.321487 
L 120.886892 232.651184 
L 120.972914 288.865411 
L 121.111873 283.370132 
L 121.224364 285.313862 
L 121.363323 283.642964 
L 121.555218 291.335518 
L 121.766965 268.405611 
L 121.945627 281.322317 
L 122.091203 280.469038 
L 122.150757 292.514155 
L 122.435292 282.705344 
L 122.521314 293.097823 
L 122.812466 246.662703 
L 122.944808 281.35319 
L 123.103619 285.044404 
L 123.408005 271.500606 
L 123.540347 284.112289 
L 123.983692 246.785813 
L 124.142503 287.494083 
L 124.420421 287.669694 
L 124.519677 286.6338 
L 124.605699 293.728934 
L 124.929937 276.16079 
L 125.154918 288.833675 
L 125.267409 289.074497 
L 125.558561 278.640593 
L 125.704137 289.846918 
L 125.829862 281.741347 
L 125.955587 285.137662 
L 126.028375 292.570451 
L 126.127631 288.85671 
L 126.187185 293.834873 
L 126.35923 281.874128 
L 126.484954 293.256305 
L 126.789341 259.880686 
L 126.908448 290.696873 
L 127.298857 254.664842 
L 127.411348 286.236407 
L 127.530455 284.771487 
L 127.695883 285.997734 
L 127.841459 291.745112 
L 127.980418 283.779942 
L 128.059823 292.166832 
L 128.350975 262.624625 
L 128.582574 290.960531 
L 128.661979 292.898549 
L 128.774469 290.937471 
L 128.913428 293.434076 
L 129.078856 275.557622 
L 129.197963 288.025433 
L 129.396476 269.622462 
L 129.61484 289.601716 
L 129.747182 289.177298 
L 129.806736 293.428389 
L 129.998632 277.325521 
L 130.064803 295.192958 
L 130.389041 233.443195 
L 130.580936 291.26607 
L 130.666959 289.332927 
L 130.726512 293.697332 
L 130.878706 293.974706 
L 131.00443 280.858237 
L 131.103687 291.404922 
L 131.242646 278.310611 
L 131.434542 280.282137 
L 131.547032 290.334441 
L 131.652906 288.316385 
L 131.725694 292.29501 
L 131.877887 282.253963 
L 131.950675 293.329507 
L 132.195508 271.382316 
L 132.261679 293.951726 
L 132.513128 270.986649 
L 132.625619 283.129731 
L 133.049113 225.345388 
L 133.148369 289.606117 
L 133.274094 283.641583 
L 133.399819 284.297002 
L 133.803462 247.500431 
L 134.127699 293.151582 
L 134.273276 283.834761 
L 134.385766 292.094928 
L 134.564428 269.065984 
L 134.657067 291.086765 
L 134.875431 286.240327 
L 135.120264 248.460683 
L 135.312159 283.897347 
L 135.563609 280.632159 
L 135.702568 293.524264 
L 136.020189 291.392338 
L 136.192233 275.341612 
L 136.443683 288.196122 
L 136.688515 272.230257 
L 136.801006 288.973349 
L 136.933348 281.275183 
L 137.2245 293.693035 
L 137.343608 290.891344 
L 137.423013 291.877898 
L 137.542121 286.778399 
L 137.628143 292.273618 
L 137.872975 281.058905 
L 138.177362 286.321502 
L 138.243533 293.245451 
L 138.322938 292.551785 
L 138.514834 287.129758 
L 138.878774 225.757777 
L 139.255948 210.198896 
L 139.408141 292.668751 
L 139.507398 286.833553 
L 139.600037 291.714882 
L 139.758847 288.455288 
L 139.851487 292.400484 
L 139.963977 284.050227 
L 140.188959 284.887968 
L 140.314683 286.517529 
L 140.506579 274.861673 
L 140.612453 289.804727 
L 140.784497 283.271069 
L 141.148438 234.749234 
L 141.55208 292.98727 
L 141.697656 283.233713 
L 142.035128 294.169976 
L 142.193939 282.443492 
L 142.465239 275.823107 
L 142.53141 293.463265 
L 142.630667 287.80806 
L 142.849031 285.675173 
L 142.948287 293.587086 
L 143.318845 272.772867 
L 143.530592 289.172039 
L 143.954086 215.385218 
L 144.33126 288.35677 
L 144.450368 291.52124 
L 144.675349 276.942496 
L 144.920182 288.748513 
L 145.31059 276.655925 
L 145.40323 291.123063 
L 145.575274 286.271654 
L 145.72085 277.6761 
L 145.833341 291.304915 
L 146.064939 281.499948 
L 146.13111 291.697369 
L 146.217132 291.054591 
L 146.448731 274.405777 
L 146.567839 289.733896 
L 146.806054 278.213339 
L 146.865608 293.393206 
L 147.15676 278.798417 
L 147.328804 290.017779 
L 147.414827 292.483174 
L 147.533934 286.545567 
L 147.758916 290.791603 
L 147.997131 282.449553 
L 148.076536 291.011839 
L 148.202261 290.369573 
L 148.652224 273.400636 
L 148.91029 294.161537 
L 149.108803 274.877783 
L 149.241145 283.370078 
L 149.386721 279.850023 
L 149.446275 293.614106 
L 149.876386 258.891521 
L 149.969026 291.613333 
L 150.081516 289.586124 
L 150.227092 279.17121 
L 150.326349 287.63928 
L 150.518244 286.783447 
L 150.696906 281.054816 
L 150.902036 266.456087 
L 151.034378 288.618654 
L 151.146868 288.29998 
L 151.232891 288.402759 
L 151.391701 276.901462 
L 151.596831 291.323274 
L 151.729173 291.267695 
L 151.835046 286.362023 
L 152.337946 201.334333 
L 152.503373 289.940138 
L 152.648949 282.832705 
L 152.721737 293.829364 
L 152.801142 289.80048 
L 152.933484 284.236188 
L 153.012889 290.055369 
L 153.138614 289.226309 
L 153.337127 289.297395 
L 153.469469 281.11093 
L 153.634896 283.342447 
L 153.773855 277.846035 
L 153.833409 293.424936 
L 153.952517 288.104582 
L 154.038539 289.867537 
L 154.270137 275.780851 
L 154.395862 289.283256 
L 154.607609 289.16017 
L 154.739951 282.214056 
L 154.832591 287.400723 
L 155.004635 279.649475 
L 155.123743 288.696924 
L 155.236233 286.824111 
L 155.408278 285.905262 
L 155.897943 277.501646 
L 156.043519 281.431423 
L 156.400842 211.824936 
L 156.751548 293.433704 
L 156.830953 290.200551 
L 156.897124 293.192616 
L 157.148574 279.511844 
L 157.261064 291.380165 
L 157.406641 284.604749 
L 157.538982 286.316589 
L 157.625005 290.049378 
L 157.717644 289.717557 
L 157.836752 284.81223 
L 157.929391 288.69684 
L 158.055116 285.676897 
L 158.200692 290.315782 
L 158.43229 283.725371 
L 158.531547 287.086762 
L 158.657272 282.305977 
L 158.849167 293.537017 
L 159.054297 269.154515 
L 159.160171 287.644732 
L 159.365301 273.325219 
L 159.61675 288.902755 
L 159.70939 291.910487 
L 159.854966 290.210851 
L 159.940988 291.793462 
L 160.205672 238.844651 
L 160.490207 282.451849 
L 160.662251 290.496474 
L 160.887233 276.638063 
L 161.178385 269.285565 
L 161.244556 293.210056 
L 161.548942 273.891393 
L 161.807009 284.050565 
L 162.184183 217.81707 
L 162.276823 290.876222 
L 162.614295 223.659068 
L 162.839276 271.199068 
L 163.368643 185.098668 
L 163.507602 279.773924 
L 163.884777 291.504321 
L 164.122992 276.917838 
L 164.394293 270.735943 
L 164.692062 234.207558 
L 164.96998 255.734753 
L 165.082471 289.758713 
L 165.26775 289.94552 
L 165.373623 290.660878 
L 165.532434 288.854742 
L 165.7905 291.262167 
L 166.08827 280.34558 
L 166.20076 285.183354 
L 166.326485 284.442501 
L 166.438976 289.199739 
L 166.65734 279.230078 
L 166.869087 263.749947 
L 166.961726 289.768882 
L 167.094068 289.056737 
L 167.252878 290.490407 
L 167.358752 294.340807 
L 167.868268 190.98695 
L 167.967525 293.70886 
L 168.199123 288.659486 
L 168.331465 290.551457 
L 168.430721 286.893894 
L 168.622617 289.425057 
L 168.735108 288.576525 
L 168.86745 294.215535 
L 168.999792 286.396769 
L 169.224773 282.890506 
L 169.515925 242.743574 
L 169.886482 259.722238 
L 170.032058 288.599562 
L 170.343062 234.530306 
L 170.554809 281.325885 
L 170.77979 248.516842 
L 171.130496 248.493821 
L 171.249604 288.723204 
L 171.494436 254.366066 
L 171.765737 236.526136 
L 172.096592 229.955242 
L 172.73845 100.776842 
L 173.320755 287.175614 
L 173.466331 286.675768 
L 173.525885 292.624719 
L 174.022167 217.52783 
L 174.141275 281.752615 
L 174.313319 293.187651 
L 174.399341 288.252561 
L 174.485363 289.141531 
L 174.74343 255.681558 
L 174.90224 295.290182 
L 175.147073 288.664164 
L 175.696292 136.38128 
L 175.908039 290.276418 
L 176.17934 267.708961 
L 176.351384 291.496786 
L 176.74841 259.146067 
L 177.099116 226.060715 
L 177.238075 290.02868 
L 177.674803 217.565009 
L 177.780677 285.580662 
L 177.926253 282.82919 
L 178.210788 233.842832 
L 178.336513 283.39828 
L 178.793093 214.335668 
L 179.071011 287.864412 
L 179.269523 276.75576 
L 179.408482 289.071898 
L 179.871679 236.702088 
L 180.083426 293.317119 
L 180.1893 285.338621 
L 180.295173 288.471832 
L 180.387812 287.292385 
L 180.678965 230.875087 
L 180.87086 290.526252 
L 181.009819 276.802654 
L 181.360525 222.916561 
L 181.459782 289.720616 
L 181.565655 285.454076 
L 181.731083 291.003234 
L 181.823722 289.07443 
L 182.009001 270.356485 
L 182.35309 278.340732 
L 182.584688 264.7493 
L 182.697179 289.262982 
L 183.37874 235.298035 
L 183.702977 255.041346 
L 183.822085 286.270712 
L 183.954427 286.263453 
L 184.0603 289.867031 
L 184.245579 282.398871 
L 184.490412 289.574882 
L 184.642605 281.704935 
L 185.119036 275.906023 
L 185.489593 206.718694 
L 185.807214 280.299754 
L 186.151302 220.588997 
L 186.31673 290.985331 
L 186.495391 268.818253 
L 186.693904 289.140177 
L 186.899034 256.11196 
L 187.004908 290.386702 
L 187.838662 237.520026 
L 188.004089 292.294718 
L 188.123197 290.305372 
L 188.282007 274.862714 
L 188.341561 294.771371 
L 188.718735 237.625672 
L 189.056207 241.309794 
L 189.678214 224.762656 
L 190.02892 218.64164 
L 190.194348 273.767037 
L 190.465649 283.296554 
L 190.53182 292.243707 
L 191.120741 186.492641 
L 191.219997 288.309616 
L 191.517767 228.263092 
L 191.603789 289.5282 
L 191.980963 216.051821 
L 192.536799 268.342924 
L 192.775015 266.769252 
L 193.092635 284.574933 
L 193.205126 287.982451 
L 193.555832 222.405336 
L 193.62862 292.501323 
L 194.052114 242.263913 
L 194.488843 285.106115 
L 194.693972 284.642632 
L 195.236574 237.05994 
L 195.355682 291.07514 
L 195.567429 289.808978 
L 196.156351 198.057013 
L 196.414417 288.67291 
L 196.513674 288.345523 
L 197.254788 225.150423 
L 197.545941 231.513614 
L 198.227501 181.892346 
L 198.478951 292.018895 
L 198.862742 274.644857 
L 199.312705 205.859688 
L 199.570772 239.322477 
L 199.670028 286.305231 
L 200.278801 232.381293 
L 200.536868 240.839818 
L 201.284599 147.943263 
L 201.456644 292.165525 
L 201.906606 172.822037 
L 202.105119 288.324898 
L 202.541847 192.552446 
L 202.733743 288.460124 
L 202.839617 289.923504 
L 203.077832 245.029732 
L 203.163854 289.40941 
L 203.249877 287.174278 
L 203.368984 283.1357 
L 203.699839 231.210864 
L 203.845415 289.774776 
L 204.182887 280.265013 
L 204.685786 201.427927 
L 204.824745 292.149928 
L 205.115898 232.849305 
L 205.77099 173.151999 
L 205.9298 287.323888 
L 206.055525 287.082663 
L 206.280506 283.935614 
L 206.54519 268.576271 
L 206.75032 285.766631 
L 207.094409 259.412796 
L 207.292922 289.568232 
L 207.471583 288.334339 
L 207.676713 277.820768 
L 207.828907 289.342772 
L 208.09359 239.981562 
L 208.232549 279.413685 
L 208.411211 283.572623 
L 208.7553 278.381865 
L 208.947196 277.729984 
L 210.012548 209.661499 
L 210.323552 226.870397 
L 210.535299 265.56153 
L 210.826451 277.201118 
L 211.038198 291.891098 
L 211.408755 224.516829 
L 211.713142 284.199903 
L 211.938123 285.591757 
L 212.540278 153.736788 
L 213.182137 278.651996 
L 213.512991 265.960271 
L 213.731356 250.063809 
L 213.923251 256.062587 
L 213.996039 291.596496 
L 214.307043 225.955104 
L 214.644515 215.941382 
L 214.717303 292.114371 
L 214.829793 286.892383 
L 215.008455 283.89335 
L 215.299607 283.069539 
L 215.570908 277.98057 
L 216.080424 253.79429 
L 216.358342 273.630922 
L 216.894327 146.084956 
L 217.271502 218.830385 
L 217.635442 213.183547 
L 217.767784 283.995063 
L 217.986148 292.818949 
L 218.32362 236.726997 
L 218.68756 290.853915 
L 218.965478 274.760316 
L 219.289716 230.102587 
L 219.554399 287.789455 
L 219.819083 272.702615 
L 220.070533 244.648162 
L 220.189641 287.01441 
L 221.096183 129.87137 
L 221.393952 232.177074 
L 221.824063 202.456447 
L 222.009342 268.059703 
L 222.267408 285.344968 
L 222.532092 283.345863 
L 222.763691 287.935698 
L 223.207036 186.439207 
L 223.518039 240.753329 
L 224.034173 144.322397 
L 224.279005 285.355755 
L 224.669414 210.142242 
L 225.172313 208.844125 
L 225.470083 228.723652 
L 226.396476 119.844901 
L 226.621457 285.273914 
L 227.256698 186.470208 
L 227.739746 171.326329 
L 228.586734 121.083169 
L 229.102868 287.741934 
L 230.227774 177.802176 
L 231.260041 195.775723 
L 231.518108 240.58674 
L 231.981304 203.064129 
L 232.265839 233.733466 
L 232.755504 248.482563 
L 233.000337 292.081797 
L 233.238552 279.509759 
L 233.549556 283.36373 
L 233.92673 221.329964 
L 234.290671 210.89766 
L 234.575206 284.384276 
L 234.899443 231.573272 
L 235.647175 148.653405 
L 235.759666 284.047042 
L 236.097138 272.83786 
L 236.315502 287.35306 
L 236.639739 235.938762 
L 236.91104 233.67617 
L 237.215427 229.389692 
L 237.473493 287.071067 
L 237.77788 283.102608 
L 238.638102 220.633899 
L 238.843232 289.833444 
L 239.101299 250.106418 
L 239.332897 246.730707 
L 239.69022 268.304213 
L 240.047543 275.403326 
L 240.371781 224.789669 
L 240.887915 168.850493 
L 241.152598 247.826105 
L 241.423899 286.034961 
L 241.622412 255.057743 
L 242.026055 212.081013 
L 242.476017 195.894288 
L 242.747318 289.544281 
L 243.17743 195.815147 
L 243.872225 152.376069 
L 244.626573 167.599495 
L 244.977279 251.384637 
L 245.605904 191.076319 
L 246.022781 193.485093 
L 246.499211 194.709046 
L 246.93594 264.615762 
L 247.220475 287.567708 
L 248.338764 84.387772 
L 248.887983 136.720738 
L 249.139432 242.014867 
L 249.50999 201.574886 
L 249.708503 254.909987 
L 250.145231 208.66735 
L 250.443 241.005726 
L 250.866494 255.977975 
L 251.26352 199.761691 
L 251.51497 290.482293 
L 252.269318 133.76513 
L 252.666344 215.813904 
L 252.997199 220.110144 
L 253.248649 280.949698 
L 253.394225 277.095595 
L 253.844187 236.10526 
L 254.069168 247.556248 
L 254.677941 186.758439 
L 255.207309 204.441974 
L 255.458758 241.958725 
L 255.855784 196.368685 
L 257.159352 165.609371 
L 257.840913 236.899883 
L 258.681284 165.998219 
L 259.084927 220.072374 
L 259.541506 213.105545 
L 259.865744 221.379035 
L 260.474517 166.073514 
L 260.725966 242.123239 
L 261.182546 213.305466 
L 262.320686 110.867486 
L 262.625073 227.478206 
L 262.883139 240.410734 
L 263.194143 227.624048 
L 263.511763 238.13708 
L 264.127153 106.523048 
L 264.696223 180.510502 
L 264.974141 236.608191 
L 265.463806 198.062719 
L 265.973323 169.158549 
L 266.932802 155.663847 
L 267.257039 222.476928 
L 267.515106 242.029436 
L 268.256221 142.377057 
L 268.87161 247.025623 
L 269.189231 222.436691 
L 269.513469 223.392225 
L 270.175178 155.975965 
L 270.598672 200.576898 
L 270.949378 212.432945 
L 271.359638 194.299805 
L 271.822835 194.338129 
L 272.590418 61.681239 
L 273.358001 136.772782 
L 273.735176 219.274444 
L 274.807145 204.483606 
L 275.09168 268.984006 
L 275.382832 287.594614 
L 275.971754 149.320826 
L 276.269523 227.445206 
L 276.752571 206.376607 
L 277.156214 205.62789 
L 277.685581 149.677856 
L 278.056139 204.547225 
L 278.697997 162.742696 
L 278.982532 236.321419 
L 279.286918 259.246852 
L 279.82952 147.812762 
L 280.133907 231.451294 
L 280.484613 214.508504 
L 280.729445 243.517376 
L 281.31175 175.115502 
L 281.549965 245.807381 
L 281.960225 216.237382 
L 282.423422 205.845369 
L 282.853533 201.316307 
L 283.230707 209.736549 
L 283.607882 207.851398 
L 283.925502 219.770996 
L 284.448253 189.872555 
L 284.77249 233.459436 
L 285.202602 189.213075 
L 285.553308 238.791967 
L 285.824609 235.177756 
L 286.069441 243.038708 
L 286.36721 228.51848 
L 286.704682 224.512813 
L 286.923046 250.649553 
L 287.584756 135.144648 
L 288.392042 162.943848 
L 289.060368 123.484865 
L 289.384606 219.949975 
L 289.636055 237.980544 
L 290.152189 164.92446 
L 291.138136 61.781002 
L 291.846165 103.325012 
L 292.229957 204.293593 
L 293.255607 62.316624 
L 293.877614 108.415945 
L 294.625345 121.439399 
L 295.015754 210.135233 
L 295.644378 102.068535 
L 295.849508 253.30837 
L 296.464898 109.232537 
L 296.96118 159.944783 
L 297.603038 103.67311 
L 298.158874 128.261181 
L 298.972777 78.411848 
L 299.250695 234.327188 
L 299.647721 197.177392 
L 300.223408 163.667484 
L 301.229206 93.52915 
L 301.824745 113.404843 
L 302.029875 253.598171 
L 302.982737 81.322516 
L 304.167197 127.966472 
L 304.749501 128.360308 
L 305.397976 104.698069 
L 306.747864 60.476353 
L 307.760279 53.568 
L 308.388903 112.612982 
L 309.050613 100.221032 
L 309.811579 89.08595 
L 310.433586 110.545337 
L 311.002656 122.476469 
L 311.598195 123.569918 
L 312.418714 83.766843 
L 313.02087 126.593169 
L 313.642877 130.752727 
L 314.264884 114.575549 
L 314.953062 107.089625 
L 315.555218 112.813289 
L 316.36912 75.55982 
L 317.110235 92.213107 
L 318.314546 127.181407 
L 318.896851 124.448013 
L 319.505624 111.808028 
L 320.107779 127.732356 
L 320.663615 133.141113 
L 321.265771 118.502272 
L 321.821607 132.853018 
L 322.17893 224.497549 
L 322.79432 118.753215 
L 323.416327 104.742226 
L 323.998631 126.038695 
L 324.925025 74.670394 
L 325.547032 106.589593 
L 326.175656 128.330243 
L 326.791045 107.341585 
L 327.399818 118.460804 
L 328.008591 110.727118 
L 328.577661 125.803743 
L 329.159966 137.673364 
L 329.74227 121.622824 
L 330.324574 132.145056 
L 330.946581 109.375195 
L 331.502417 130.859923 
L 332.137658 99.882692 
L 332.799368 110.917794 
L 333.427992 112.361576 
L 333.997062 140.844079 
L 334.625686 108.880805 
L 335.227842 121.188183 
L 335.763827 153.152875 
L 336.465239 102.290194 
L 337.107097 115.963743 
L 337.729104 107.349145 
L 338.33126 113.686323 
L 338.926798 114.338971 
L 339.535571 133.258066 
L 340.157578 109.944752 
L 340.746499 124.820852 
L 341.375123 111.919812 
L 341.99713 114.611011 
L 342.61252 114.980161 
L 343.260996 111.997141 
L 343.869768 107.979859 
L 344.531478 107.16482 
L 345.107165 124.97443 
L 345.735789 117.584072 
L 346.357796 108.634333 
L 346.933483 123.606034 
L 347.529022 119.270919 
L 348.151029 103.563552 
L 348.759802 109.718577 
L 349.342106 121.113243 
L 349.917793 119.929963 
L 350.546417 100.301878 
L 351.108871 131.055042 
L 351.704409 121.316094 
L 352.273479 123.079998 
L 352.90872 115.964488 
L 353.530727 106.595381 
L 354.159351 123.152149 
L 354.735039 123.563013 
L 355.310726 125.000588 
L 355.89303 138.838527 
L 356.50842 111.49362 
L 357.679646 135.563334 
L 358.281802 115.706431 
L 358.850872 136.567613 
L 359.453028 113.63457 
L 360.015481 133.116935 
L 360.591168 132.19352 
L 361.140387 134.115518 
L 361.709457 126.191846 
L 362.27191 128.873224 
L 362.900534 105.495881 
L 363.443136 148.853286 
L 364.065143 119.482747 
L 364.654065 117.933833 
L 365.223135 128.149398 
L 365.82529 112.7611 
L 366.427446 126.191919 
L 366.989899 127.853698 
L 367.592055 118.54295 
L 368.154508 130.080037 
L 368.743429 124.414531 
L 369.325734 131.197617 
L 369.99406 115.074254 
L 370.602833 116.518781 
L 371.191755 117.149467 
L 371.813762 118.792693 
L 372.45562 106.510637 
L 373.064393 111.256334 
L 374.235619 125.079981 
L 374.857626 107.405559 
L 375.426696 130.802527 
L 375.995766 132.053806 
L 376.57807 127.385021 
L 377.153758 124.158564 
L 377.755913 115.157362 
L 378.311749 131.903544 
L 378.880819 136.150417 
L 379.44989 126.730838 
L 380.025577 122.084614 
L 380.621115 114.616499 
L 381.223271 111.936848 
L 381.792341 132.249425 
L 382.401114 114.920894 
L 383.009887 114.357769 
L 383.61866 111.407813 
L 384.227432 124.823078 
L 384.856056 109.878234 
L 385.451595 112.146468 
L 386.106687 89.041683 
L 386.702226 124.838796 
L 387.297765 113.612582 
L 387.893303 126.092192 
L 388.455756 133.408146 
L 389.011592 131.953008 
L 390.196052 119.845773 
L 390.765123 126.600393 
L 391.360661 120.57684 
L 391.989285 103.170943 
L 392.57159 133.796031 
L 393.29947 106.643472 
L 393.888392 117.996752 
L 394.457462 126.62676 
L 395.066234 112.107844 
L 395.661773 115.733343 
L 396.244077 122.154866 
L 396.806531 134.87715 
L 397.375601 126.741015 
L 397.931437 129.278944 
L 398.487273 133.645188 
L 398.487273 133.645188 
" clip-path="url(#p4bf502ee72)" style="fill: none; stroke: #1f77b4; stroke-width: 1.5; stroke-linecap: square"/>
   </g>
   <g id="patch_3">
    <path d="M 57.6 307.584 
L 57.6 41.472 
" style="fill: none; stroke: #000000; stroke-width: 0.8; stroke-linejoin: miter; stroke-linecap: square"/>
   </g>
   <g id="patch_4">
    <path d="M 414.72 307.584 
L 414.72 41.472 
" style="fill: none; stroke: #000000; stroke-width: 0.8; stroke-linejoin: miter; stroke-linecap: square"/>
   </g>
   <g id="patch_5">
    <path d="M 57.6 307.584 
L 414.72 307.584 
" style="fill: none; stroke: #000000; stroke-width: 0.8; stroke-linejoin: miter; stroke-linecap: square"/>
   </g>
   <g id="patch_6">
    <path d="M 57.6 41.472 
L 414.72 41.472 
" style="fill: none; stroke: #000000; stroke-width: 0.8; stroke-linejoin: miter; stroke-linecap: square"/>
   </g>
   <g id="text_15">
    <!-- learning curve -->
    <g transform="translate(192.96375 35.472) scale(0.12 -0.12)">
     <defs>
      <path id="DejaVuSans-6c" d="M 603 4863 
L 1178 4863 
L 1178 0 
L 603 0 
L 603 4863 
z
" transform="scale(0.015625)"/>
      <path id="DejaVuSans-6e" d="M 3513 2113 
L 3513 0 
L 2938 0 
L 2938 2094 
Q 2938 2591 2744 2837 
Q 2550 3084 2163 3084 
Q 1697 3084 1428 2787 
Q 1159 2491 1159 1978 
L 1159 0 
L 581 0 
L 581 3500 
L 1159 3500 
L 1159 2956 
Q 1366 3272 1645 3428 
Q 1925 3584 2291 3584 
Q 2894 3584 3203 3211 
Q 3513 2838 3513 2113 
z
" transform="scale(0.015625)"/>
      <path id="DejaVuSans-67" d="M 2906 1791 
Q 2906 2416 2648 2759 
Q 2391 3103 1925 3103 
Q 1463 3103 1205 2759 
Q 947 2416 947 1791 
Q 947 1169 1205 825 
Q 1463 481 1925 481 
Q 2391 481 2648 825 
Q 2906 1169 2906 1791 
z
M 3481 434 
Q 3481 -459 3084 -895 
Q 2688 -1331 1869 -1331 
Q 1566 -1331 1297 -1286 
Q 1028 -1241 775 -1147 
L 775 -588 
Q 1028 -725 1275 -790 
Q 1522 -856 1778 -856 
Q 2344 -856 2625 -561 
Q 2906 -266 2906 331 
L 2906 616 
Q 2728 306 2450 153 
Q 2172 0 1784 0 
Q 1141 0 747 490 
Q 353 981 353 1791 
Q 353 2603 747 3093 
Q 1141 3584 1784 3584 
Q 2172 3584 2450 3431 
Q 2728 3278 2906 2969 
L 2906 3500 
L 3481 3500 
L 3481 434 
z
" transform="scale(0.015625)"/>
      <path id="DejaVuSans-20" transform="scale(0.015625)"/>
      <path id="DejaVuSans-63" d="M 3122 3366 
L 3122 2828 
Q 2878 2963 2633 3030 
Q 2388 3097 2138 3097 
Q 1578 3097 1268 2742 
Q 959 2388 959 1747 
Q 959 1106 1268 751 
Q 1578 397 2138 397 
Q 2388 397 2633 464 
Q 2878 531 3122 666 
L 3122 134 
Q 2881 22 2623 -34 
Q 2366 -91 2075 -91 
Q 1284 -91 818 406 
Q 353 903 353 1747 
Q 353 2603 823 3093 
Q 1294 3584 2113 3584 
Q 2378 3584 2631 3529 
Q 2884 3475 3122 3366 
z
" transform="scale(0.015625)"/>
      <path id="DejaVuSans-75" d="M 544 1381 
L 544 3500 
L 1119 3500 
L 1119 1403 
Q 1119 906 1312 657 
Q 1506 409 1894 409 
Q 2359 409 2629 706 
Q 2900 1003 2900 1516 
L 2900 3500 
L 3475 3500 
L 3475 0 
L 2900 0 
L 2900 538 
Q 2691 219 2414 64 
Q 2138 -91 1772 -91 
Q 1169 -91 856 284 
Q 544 659 544 1381 
z
M 1991 3584 
L 1991 3584 
z
" transform="scale(0.015625)"/>
      <path id="DejaVuSans-76" d="M 191 3500 
L 800 3500 
L 1894 563 
L 2988 3500 
L 3597 3500 
L 2284 0 
L 1503 0 
L 191 3500 
z
" transform="scale(0.015625)"/>
     </defs>
     <use xlink:href="#DejaVuSans-6c"/>
     <use xlink:href="#DejaVuSans-65" x="27.783203"/>
     <use xlink:href="#DejaVuSans-61" x="89.306641"/>
     <use xlink:href="#DejaVuSans-72" x="150.585938"/>
     <use xlink:href="#DejaVuSans-6e" x="189.949219"/>
     <use xlink:href="#DejaVuSans-69" x="253.328125"/>
     <use xlink:href="#DejaVuSans-6e" x="281.111328"/>
     <use xlink:href="#DejaVuSans-67" x="344.490234"/>
     <use xlink:href="#DejaVuSans-20" x="407.966797"/>
     <use xlink:href="#DejaVuSans-63" x="439.753906"/>
     <use xlink:href="#DejaVuSans-75" x="494.734375"/>
     <use xlink:href="#DejaVuSans-72" x="558.113281"/>
     <use xlink:href="#DejaVuSans-76" x="599.226562"/>
     <use xlink:href="#DejaVuSans-65" x="658.40625"/>
    </g>
   </g>
  </g>
 </g>
 <defs>
  <clipPath id="p4bf502ee72">
   <rect x="57.6" y="41.472" width="357.12" height="266.112"/>
  </clipPath>
 </defs>
</svg>
