<?xml version="1.0" encoding="utf-8" standalone="no"?>
<!DOCTYPE svg PUBLIC "-//W3C//DTD SVG 1.1//EN"
  "http://www.w3.org/Graphics/SVG/1.1/DTD/svg11.dtd">
<svg xmlns:xlink="http://www.w3.org/1999/xlink" width="460.8pt" height="345.6pt" viewBox="0 0 460.8 345.6" xmlns="http://www.w3.org/2000/svg" version="1.1">
 <metadata>
  <rdf:RDF xmlns:dc="http://purl.org/dc/elements/1.1/" xmlns:cc="http://creativecommons.org/ns#" xmlns:rdf="http://www.w3.org/1999/02/22-rdf-syntax-ns#">
   <cc:Work>
    <dc:type rdf:resource="http://purl.org/dc/dcmitype/StillImage"/>
    <dc:date>2023-08-18T19:21:31.959344</dc:date>
    <dc:format>image/svg+xml</dc:format>
    <dc:creator>
     <cc:Agent>
      <dc:title>Matplotlib v3.7.1, https://matplotlib.org/</dc:title>
     </cc:Agent>
    </dc:creator>
   </cc:Work>
  </rdf:RDF>
 </metadata>
 <defs>
  <style type="text/css">*{stroke-linejoin: round; stroke-linecap: butt}</style>
 </defs>
 <g id="figure_1">
  <g id="patch_1">
   <path d="M 0 345.6 
L 460.8 345.6 
L 460.8 0 
L 0 0 
z
" style="fill: #ffffff"/>
  </g>
  <g id="axes_1">
   <g id="patch_2">
    <path d="M 57.6 307.584 
L 414.72 307.584 
L 414.72 41.472 
L 57.6 41.472 
z
" style="fill: #ffffff"/>
   </g>
   <g id="matplotlib.axis_1">
    <g id="xtick_1">
     <g id="line2d_1">
      <defs>
       <path id="me838adc701" d="M 0 0 
L 0 3.5 
" style="stroke: #000000; stroke-width: 0.8"/>
      </defs>
      <g>
       <use xlink:href="#me838adc701" x="73.689816" y="307.584" style="stroke: #000000; stroke-width: 0.8"/>
      </g>
     </g>
     <g id="text_1">
      <!-- 0 -->
      <g transform="translate(70.508566 322.182437) scale(0.1 -0.1)">
       <defs>
        <path id="DejaVuSans-30" d="M 2034 4250 
Q 1547 4250 1301 3770 
Q 1056 3291 1056 2328 
Q 1056 1369 1301 889 
Q 1547 409 2034 409 
Q 2525 409 2770 889 
Q 3016 1369 3016 2328 
Q 3016 3291 2770 3770 
Q 2525 4250 2034 4250 
z
M 2034 4750 
Q 2819 4750 3233 4129 
Q 3647 3509 3647 2328 
Q 3647 1150 3233 529 
Q 2819 -91 2034 -91 
Q 1250 -91 836 529 
Q 422 1150 422 2328 
Q 422 3509 836 4129 
Q 1250 4750 2034 4750 
z
" transform="scale(0.015625)"/>
       </defs>
       <use xlink:href="#DejaVuSans-30"/>
      </g>
     </g>
    </g>
    <g id="xtick_2">
     <g id="line2d_2">
      <g>
       <use xlink:href="#me838adc701" x="138.649308" y="307.584" style="stroke: #000000; stroke-width: 0.8"/>
      </g>
     </g>
     <g id="text_2">
      <!-- 10000 -->
      <g transform="translate(122.743058 322.182437) scale(0.1 -0.1)">
       <defs>
        <path id="DejaVuSans-31" d="M 794 531 
L 1825 531 
L 1825 4091 
L 703 3866 
L 703 4441 
L 1819 4666 
L 2450 4666 
L 2450 531 
L 3481 531 
L 3481 0 
L 794 0 
L 794 531 
z
" transform="scale(0.015625)"/>
       </defs>
       <use xlink:href="#DejaVuSans-31"/>
       <use xlink:href="#DejaVuSans-30" x="63.623047"/>
       <use xlink:href="#DejaVuSans-30" x="127.246094"/>
       <use xlink:href="#DejaVuSans-30" x="190.869141"/>
       <use xlink:href="#DejaVuSans-30" x="254.492188"/>
      </g>
     </g>
    </g>
    <g id="xtick_3">
     <g id="line2d_3">
      <g>
       <use xlink:href="#me838adc701" x="203.608799" y="307.584" style="stroke: #000000; stroke-width: 0.8"/>
      </g>
     </g>
     <g id="text_3">
      <!-- 20000 -->
      <g transform="translate(187.702549 322.182437) scale(0.1 -0.1)">
       <defs>
        <path id="DejaVuSans-32" d="M 1228 531 
L 3431 531 
L 3431 0 
L 469 0 
L 469 531 
Q 828 903 1448 1529 
Q 2069 2156 2228 2338 
Q 2531 2678 2651 2914 
Q 2772 3150 2772 3378 
Q 2772 3750 2511 3984 
Q 2250 4219 1831 4219 
Q 1534 4219 1204 4116 
Q 875 4013 500 3803 
L 500 4441 
Q 881 4594 1212 4672 
Q 1544 4750 1819 4750 
Q 2544 4750 2975 4387 
Q 3406 4025 3406 3419 
Q 3406 3131 3298 2873 
Q 3191 2616 2906 2266 
Q 2828 2175 2409 1742 
Q 1991 1309 1228 531 
z
" transform="scale(0.015625)"/>
       </defs>
       <use xlink:href="#DejaVuSans-32"/>
       <use xlink:href="#DejaVuSans-30" x="63.623047"/>
       <use xlink:href="#DejaVuSans-30" x="127.246094"/>
       <use xlink:href="#DejaVuSans-30" x="190.869141"/>
       <use xlink:href="#DejaVuSans-30" x="254.492188"/>
      </g>
     </g>
    </g>
    <g id="xtick_4">
     <g id="line2d_4">
      <g>
       <use xlink:href="#me838adc701" x="268.56829" y="307.584" style="stroke: #000000; stroke-width: 0.8"/>
      </g>
     </g>
     <g id="text_4">
      <!-- 30000 -->
      <g transform="translate(252.66204 322.182437) scale(0.1 -0.1)">
       <defs>
        <path id="DejaVuSans-33" d="M 2597 2516 
Q 3050 2419 3304 2112 
Q 3559 1806 3559 1356 
Q 3559 666 3084 287 
Q 2609 -91 1734 -91 
Q 1441 -91 1130 -33 
Q 819 25 488 141 
L 488 750 
Q 750 597 1062 519 
Q 1375 441 1716 441 
Q 2309 441 2620 675 
Q 2931 909 2931 1356 
Q 2931 1769 2642 2001 
Q 2353 2234 1838 2234 
L 1294 2234 
L 1294 2753 
L 1863 2753 
Q 2328 2753 2575 2939 
Q 2822 3125 2822 3475 
Q 2822 3834 2567 4026 
Q 2313 4219 1838 4219 
Q 1578 4219 1281 4162 
Q 984 4106 628 3988 
L 628 4550 
Q 988 4650 1302 4700 
Q 1616 4750 1894 4750 
Q 2613 4750 3031 4423 
Q 3450 4097 3450 3541 
Q 3450 3153 3228 2886 
Q 3006 2619 2597 2516 
z
" transform="scale(0.015625)"/>
       </defs>
       <use xlink:href="#DejaVuSans-33"/>
       <use xlink:href="#DejaVuSans-30" x="63.623047"/>
       <use xlink:href="#DejaVuSans-30" x="127.246094"/>
       <use xlink:href="#DejaVuSans-30" x="190.869141"/>
       <use xlink:href="#DejaVuSans-30" x="254.492188"/>
      </g>
     </g>
    </g>
    <g id="xtick_5">
     <g id="line2d_5">
      <g>
       <use xlink:href="#me838adc701" x="333.527781" y="307.584" style="stroke: #000000; stroke-width: 0.8"/>
      </g>
     </g>
     <g id="text_5">
      <!-- 40000 -->
      <g transform="translate(317.621531 322.182437) scale(0.1 -0.1)">
       <defs>
        <path id="DejaVuSans-34" d="M 2419 4116 
L 825 1625 
L 2419 1625 
L 2419 4116 
z
M 2253 4666 
L 3047 4666 
L 3047 1625 
L 3713 1625 
L 3713 1100 
L 3047 1100 
L 3047 0 
L 2419 0 
L 2419 1100 
L 313 1100 
L 313 1709 
L 2253 4666 
z
" transform="scale(0.015625)"/>
       </defs>
       <use xlink:href="#DejaVuSans-34"/>
       <use xlink:href="#DejaVuSans-30" x="63.623047"/>
       <use xlink:href="#DejaVuSans-30" x="127.246094"/>
       <use xlink:href="#DejaVuSans-30" x="190.869141"/>
       <use xlink:href="#DejaVuSans-30" x="254.492188"/>
      </g>
     </g>
    </g>
    <g id="xtick_6">
     <g id="line2d_6">
      <g>
       <use xlink:href="#me838adc701" x="398.487273" y="307.584" style="stroke: #000000; stroke-width: 0.8"/>
      </g>
     </g>
     <g id="text_6">
      <!-- 50000 -->
      <g transform="translate(382.581023 322.182437) scale(0.1 -0.1)">
       <defs>
        <path id="DejaVuSans-35" d="M 691 4666 
L 3169 4666 
L 3169 4134 
L 1269 4134 
L 1269 2991 
Q 1406 3038 1543 3061 
Q 1681 3084 1819 3084 
Q 2600 3084 3056 2656 
Q 3513 2228 3513 1497 
Q 3513 744 3044 326 
Q 2575 -91 1722 -91 
Q 1428 -91 1123 -41 
Q 819 9 494 109 
L 494 744 
Q 775 591 1075 516 
Q 1375 441 1709 441 
Q 2250 441 2565 725 
Q 2881 1009 2881 1497 
Q 2881 1984 2565 2268 
Q 2250 2553 1709 2553 
Q 1456 2553 1204 2497 
Q 953 2441 691 2322 
L 691 4666 
z
" transform="scale(0.015625)"/>
       </defs>
       <use xlink:href="#DejaVuSans-35"/>
       <use xlink:href="#DejaVuSans-30" x="63.623047"/>
       <use xlink:href="#DejaVuSans-30" x="127.246094"/>
       <use xlink:href="#DejaVuSans-30" x="190.869141"/>
       <use xlink:href="#DejaVuSans-30" x="254.492188"/>
      </g>
     </g>
    </g>
    <g id="text_7">
     <!-- timesteps -->
     <g transform="translate(211.443594 335.860562) scale(0.1 -0.1)">
      <defs>
       <path id="DejaVuSans-74" d="M 1172 4494 
L 1172 3500 
L 2356 3500 
L 2356 3053 
L 1172 3053 
L 1172 1153 
Q 1172 725 1289 603 
Q 1406 481 1766 481 
L 2356 481 
L 2356 0 
L 1766 0 
Q 1100 0 847 248 
Q 594 497 594 1153 
L 594 3053 
L 172 3053 
L 172 3500 
L 594 3500 
L 594 4494 
L 1172 4494 
z
" transform="scale(0.015625)"/>
       <path id="DejaVuSans-69" d="M 603 3500 
L 1178 3500 
L 1178 0 
L 603 0 
L 603 3500 
z
M 603 4863 
L 1178 4863 
L 1178 4134 
L 603 4134 
L 603 4863 
z
" transform="scale(0.015625)"/>
       <path id="DejaVuSans-6d" d="M 3328 2828 
Q 3544 3216 3844 3400 
Q 4144 3584 4550 3584 
Q 5097 3584 5394 3201 
Q 5691 2819 5691 2113 
L 5691 0 
L 5113 0 
L 5113 2094 
Q 5113 2597 4934 2840 
Q 4756 3084 4391 3084 
Q 3944 3084 3684 2787 
Q 3425 2491 3425 1978 
L 3425 0 
L 2847 0 
L 2847 2094 
Q 2847 2600 2669 2842 
Q 2491 3084 2119 3084 
Q 1678 3084 1418 2786 
Q 1159 2488 1159 1978 
L 1159 0 
L 581 0 
L 581 3500 
L 1159 3500 
L 1159 2956 
Q 1356 3278 1631 3431 
Q 1906 3584 2284 3584 
Q 2666 3584 2933 3390 
Q 3200 3197 3328 2828 
z
" transform="scale(0.015625)"/>
       <path id="DejaVuSans-65" d="M 3597 1894 
L 3597 1613 
L 953 1613 
Q 991 1019 1311 708 
Q 1631 397 2203 397 
Q 2534 397 2845 478 
Q 3156 559 3463 722 
L 3463 178 
Q 3153 47 2828 -22 
Q 2503 -91 2169 -91 
Q 1331 -91 842 396 
Q 353 884 353 1716 
Q 353 2575 817 3079 
Q 1281 3584 2069 3584 
Q 2775 3584 3186 3129 
Q 3597 2675 3597 1894 
z
M 3022 2063 
Q 3016 2534 2758 2815 
Q 2500 3097 2075 3097 
Q 1594 3097 1305 2825 
Q 1016 2553 972 2059 
L 3022 2063 
z
" transform="scale(0.015625)"/>
       <path id="DejaVuSans-73" d="M 2834 3397 
L 2834 2853 
Q 2591 2978 2328 3040 
Q 2066 3103 1784 3103 
Q 1356 3103 1142 2972 
Q 928 2841 928 2578 
Q 928 2378 1081 2264 
Q 1234 2150 1697 2047 
L 1894 2003 
Q 2506 1872 2764 1633 
Q 3022 1394 3022 966 
Q 3022 478 2636 193 
Q 2250 -91 1575 -91 
Q 1294 -91 989 -36 
Q 684 19 347 128 
L 347 722 
Q 666 556 975 473 
Q 1284 391 1588 391 
Q 1994 391 2212 530 
Q 2431 669 2431 922 
Q 2431 1156 2273 1281 
Q 2116 1406 1581 1522 
L 1381 1569 
Q 847 1681 609 1914 
Q 372 2147 372 2553 
Q 372 3047 722 3315 
Q 1072 3584 1716 3584 
Q 2034 3584 2315 3537 
Q 2597 3491 2834 3397 
z
" transform="scale(0.015625)"/>
       <path id="DejaVuSans-70" d="M 1159 525 
L 1159 -1331 
L 581 -1331 
L 581 3500 
L 1159 3500 
L 1159 2969 
Q 1341 3281 1617 3432 
Q 1894 3584 2278 3584 
Q 2916 3584 3314 3078 
Q 3713 2572 3713 1747 
Q 3713 922 3314 415 
Q 2916 -91 2278 -91 
Q 1894 -91 1617 61 
Q 1341 213 1159 525 
z
M 3116 1747 
Q 3116 2381 2855 2742 
Q 2594 3103 2138 3103 
Q 1681 3103 1420 2742 
Q 1159 2381 1159 1747 
Q 1159 1113 1420 752 
Q 1681 391 2138 391 
Q 2594 391 2855 752 
Q 3116 1113 3116 1747 
z
" transform="scale(0.015625)"/>
      </defs>
      <use xlink:href="#DejaVuSans-74"/>
      <use xlink:href="#DejaVuSans-69" x="39.208984"/>
      <use xlink:href="#DejaVuSans-6d" x="66.992188"/>
      <use xlink:href="#DejaVuSans-65" x="164.404297"/>
      <use xlink:href="#DejaVuSans-73" x="225.927734"/>
      <use xlink:href="#DejaVuSans-74" x="278.027344"/>
      <use xlink:href="#DejaVuSans-65" x="317.236328"/>
      <use xlink:href="#DejaVuSans-70" x="378.759766"/>
      <use xlink:href="#DejaVuSans-73" x="442.236328"/>
     </g>
    </g>
   </g>
   <g id="matplotlib.axis_2">
    <g id="ytick_1">
     <g id="line2d_7">
      <defs>
       <path id="m0e5f3b5d0a" d="M 0 0 
L -3.5 0 
" style="stroke: #000000; stroke-width: 0.8"/>
      </defs>
      <g>
       <use xlink:href="#m0e5f3b5d0a" x="57.6" y="296.192189" style="stroke: #000000; stroke-width: 0.8"/>
      </g>
     </g>
     <g id="text_8">
      <!-- 0 -->
      <g transform="translate(44.2375 299.991407) scale(0.1 -0.1)">
       <use xlink:href="#DejaVuSans-30"/>
      </g>
     </g>
    </g>
    <g id="ytick_2">
     <g id="line2d_8">
      <g>
       <use xlink:href="#m0e5f3b5d0a" x="57.6" y="260.869883" style="stroke: #000000; stroke-width: 0.8"/>
      </g>
     </g>
     <g id="text_9">
      <!-- 100 -->
      <g transform="translate(31.5125 264.669101) scale(0.1 -0.1)">
       <use xlink:href="#DejaVuSans-31"/>
       <use xlink:href="#DejaVuSans-30" x="63.623047"/>
       <use xlink:href="#DejaVuSans-30" x="127.246094"/>
      </g>
     </g>
    </g>
    <g id="ytick_3">
     <g id="line2d_9">
      <g>
       <use xlink:href="#m0e5f3b5d0a" x="57.6" y="225.547577" style="stroke: #000000; stroke-width: 0.8"/>
      </g>
     </g>
     <g id="text_10">
      <!-- 200 -->
      <g transform="translate(31.5125 229.346795) scale(0.1 -0.1)">
       <use xlink:href="#DejaVuSans-32"/>
       <use xlink:href="#DejaVuSans-30" x="63.623047"/>
       <use xlink:href="#DejaVuSans-30" x="127.246094"/>
      </g>
     </g>
    </g>
    <g id="ytick_4">
     <g id="line2d_10">
      <g>
       <use xlink:href="#m0e5f3b5d0a" x="57.6" y="190.22527" style="stroke: #000000; stroke-width: 0.8"/>
      </g>
     </g>
     <g id="text_11">
      <!-- 300 -->
      <g transform="translate(31.5125 194.024489) scale(0.1 -0.1)">
       <use xlink:href="#DejaVuSans-33"/>
       <use xlink:href="#DejaVuSans-30" x="63.623047"/>
       <use xlink:href="#DejaVuSans-30" x="127.246094"/>
      </g>
     </g>
    </g>
    <g id="ytick_5">
     <g id="line2d_11">
      <g>
       <use xlink:href="#m0e5f3b5d0a" x="57.6" y="154.902964" style="stroke: #000000; stroke-width: 0.8"/>
      </g>
     </g>
     <g id="text_12">
      <!-- 400 -->
      <g transform="translate(31.5125 158.702183) scale(0.1 -0.1)">
       <use xlink:href="#DejaVuSans-34"/>
       <use xlink:href="#DejaVuSans-30" x="63.623047"/>
       <use xlink:href="#DejaVuSans-30" x="127.246094"/>
      </g>
     </g>
    </g>
    <g id="ytick_6">
     <g id="line2d_12">
      <g>
       <use xlink:href="#m0e5f3b5d0a" x="57.6" y="119.580658" style="stroke: #000000; stroke-width: 0.8"/>
      </g>
     </g>
     <g id="text_13">
      <!-- 500 -->
      <g transform="translate(31.5125 123.379877) scale(0.1 -0.1)">
       <use xlink:href="#DejaVuSans-35"/>
       <use xlink:href="#DejaVuSans-30" x="63.623047"/>
       <use xlink:href="#DejaVuSans-30" x="127.246094"/>
      </g>
     </g>
    </g>
    <g id="ytick_7">
     <g id="line2d_13">
      <g>
       <use xlink:href="#m0e5f3b5d0a" x="57.6" y="84.258352" style="stroke: #000000; stroke-width: 0.8"/>
      </g>
     </g>
     <g id="text_14">
      <!-- 600 -->
      <g transform="translate(31.5125 88.057571) scale(0.1 -0.1)">
       <defs>
        <path id="DejaVuSans-36" d="M 2113 2584 
Q 1688 2584 1439 2293 
Q 1191 2003 1191 1497 
Q 1191 994 1439 701 
Q 1688 409 2113 409 
Q 2538 409 2786 701 
Q 3034 994 3034 1497 
Q 3034 2003 2786 2293 
Q 2538 2584 2113 2584 
z
M 3366 4563 
L 3366 3988 
Q 3128 4100 2886 4159 
Q 2644 4219 2406 4219 
Q 1781 4219 1451 3797 
Q 1122 3375 1075 2522 
Q 1259 2794 1537 2939 
Q 1816 3084 2150 3084 
Q 2853 3084 3261 2657 
Q 3669 2231 3669 1497 
Q 3669 778 3244 343 
Q 2819 -91 2113 -91 
Q 1303 -91 875 529 
Q 447 1150 447 2328 
Q 447 3434 972 4092 
Q 1497 4750 2381 4750 
Q 2619 4750 2861 4703 
Q 3103 4656 3366 4563 
z
" transform="scale(0.015625)"/>
       </defs>
       <use xlink:href="#DejaVuSans-36"/>
       <use xlink:href="#DejaVuSans-30" x="63.623047"/>
       <use xlink:href="#DejaVuSans-30" x="127.246094"/>
      </g>
     </g>
    </g>
    <g id="ytick_8">
     <g id="line2d_14">
      <g>
       <use xlink:href="#m0e5f3b5d0a" x="57.6" y="48.936046" style="stroke: #000000; stroke-width: 0.8"/>
      </g>
     </g>
     <g id="text_15">
      <!-- 700 -->
      <g transform="translate(31.5125 52.735265) scale(0.1 -0.1)">
       <defs>
        <path id="DejaVuSans-37" d="M 525 4666 
L 3525 4666 
L 3525 4397 
L 1831 0 
L 1172 0 
L 2766 4134 
L 525 4134 
L 525 4666 
z
" transform="scale(0.015625)"/>
       </defs>
       <use xlink:href="#DejaVuSans-37"/>
       <use xlink:href="#DejaVuSans-30" x="63.623047"/>
       <use xlink:href="#DejaVuSans-30" x="127.246094"/>
      </g>
     </g>
    </g>
    <g id="text_16">
     <!-- mean episode rewards -->
     <g transform="translate(25.432812 231.360031) rotate(-90) scale(0.1 -0.1)">
      <defs>
       <path id="DejaVuSans-61" d="M 2194 1759 
Q 1497 1759 1228 1600 
Q 959 1441 959 1056 
Q 959 750 1161 570 
Q 1363 391 1709 391 
Q 2188 391 2477 730 
Q 2766 1069 2766 1631 
L 2766 1759 
L 2194 1759 
z
M 3341 1997 
L 3341 0 
L 2766 0 
L 2766 531 
Q 2569 213 2275 61 
Q 1981 -91 1556 -91 
Q 1019 -91 701 211 
Q 384 513 384 1019 
Q 384 1609 779 1909 
Q 1175 2209 1959 2209 
L 2766 2209 
L 2766 2266 
Q 2766 2663 2505 2880 
Q 2244 3097 1772 3097 
Q 1472 3097 1187 3025 
Q 903 2953 641 2809 
L 641 3341 
Q 956 3463 1253 3523 
Q 1550 3584 1831 3584 
Q 2591 3584 2966 3190 
Q 3341 2797 3341 1997 
z
" transform="scale(0.015625)"/>
       <path id="DejaVuSans-6e" d="M 3513 2113 
L 3513 0 
L 2938 0 
L 2938 2094 
Q 2938 2591 2744 2837 
Q 2550 3084 2163 3084 
Q 1697 3084 1428 2787 
Q 1159 2491 1159 1978 
L 1159 0 
L 581 0 
L 581 3500 
L 1159 3500 
L 1159 2956 
Q 1366 3272 1645 3428 
Q 1925 3584 2291 3584 
Q 2894 3584 3203 3211 
Q 3513 2838 3513 2113 
z
" transform="scale(0.015625)"/>
       <path id="DejaVuSans-20" transform="scale(0.015625)"/>
       <path id="DejaVuSans-6f" d="M 1959 3097 
Q 1497 3097 1228 2736 
Q 959 2375 959 1747 
Q 959 1119 1226 758 
Q 1494 397 1959 397 
Q 2419 397 2687 759 
Q 2956 1122 2956 1747 
Q 2956 2369 2687 2733 
Q 2419 3097 1959 3097 
z
M 1959 3584 
Q 2709 3584 3137 3096 
Q 3566 2609 3566 1747 
Q 3566 888 3137 398 
Q 2709 -91 1959 -91 
Q 1206 -91 779 398 
Q 353 888 353 1747 
Q 353 2609 779 3096 
Q 1206 3584 1959 3584 
z
" transform="scale(0.015625)"/>
       <path id="DejaVuSans-64" d="M 2906 2969 
L 2906 4863 
L 3481 4863 
L 3481 0 
L 2906 0 
L 2906 525 
Q 2725 213 2448 61 
Q 2172 -91 1784 -91 
Q 1150 -91 751 415 
Q 353 922 353 1747 
Q 353 2572 751 3078 
Q 1150 3584 1784 3584 
Q 2172 3584 2448 3432 
Q 2725 3281 2906 2969 
z
M 947 1747 
Q 947 1113 1208 752 
Q 1469 391 1925 391 
Q 2381 391 2643 752 
Q 2906 1113 2906 1747 
Q 2906 2381 2643 2742 
Q 2381 3103 1925 3103 
Q 1469 3103 1208 2742 
Q 947 2381 947 1747 
z
" transform="scale(0.015625)"/>
       <path id="DejaVuSans-72" d="M 2631 2963 
Q 2534 3019 2420 3045 
Q 2306 3072 2169 3072 
Q 1681 3072 1420 2755 
Q 1159 2438 1159 1844 
L 1159 0 
L 581 0 
L 581 3500 
L 1159 3500 
L 1159 2956 
Q 1341 3275 1631 3429 
Q 1922 3584 2338 3584 
Q 2397 3584 2469 3576 
Q 2541 3569 2628 3553 
L 2631 2963 
z
" transform="scale(0.015625)"/>
       <path id="DejaVuSans-77" d="M 269 3500 
L 844 3500 
L 1563 769 
L 2278 3500 
L 2956 3500 
L 3675 769 
L 4391 3500 
L 4966 3500 
L 4050 0 
L 3372 0 
L 2619 2869 
L 1863 0 
L 1184 0 
L 269 3500 
z
" transform="scale(0.015625)"/>
      </defs>
      <use xlink:href="#DejaVuSans-6d"/>
      <use xlink:href="#DejaVuSans-65" x="97.412109"/>
      <use xlink:href="#DejaVuSans-61" x="158.935547"/>
      <use xlink:href="#DejaVuSans-6e" x="220.214844"/>
      <use xlink:href="#DejaVuSans-20" x="283.59375"/>
      <use xlink:href="#DejaVuSans-65" x="315.380859"/>
      <use xlink:href="#DejaVuSans-70" x="376.904297"/>
      <use xlink:href="#DejaVuSans-69" x="440.380859"/>
      <use xlink:href="#DejaVuSans-73" x="468.164062"/>
      <use xlink:href="#DejaVuSans-6f" x="520.263672"/>
      <use xlink:href="#DejaVuSans-64" x="581.445312"/>
      <use xlink:href="#DejaVuSans-65" x="644.921875"/>
      <use xlink:href="#DejaVuSans-20" x="706.445312"/>
      <use xlink:href="#DejaVuSans-72" x="738.232422"/>
      <use xlink:href="#DejaVuSans-65" x="777.095703"/>
      <use xlink:href="#DejaVuSans-77" x="838.619141"/>
      <use xlink:href="#DejaVuSans-61" x="920.40625"/>
      <use xlink:href="#DejaVuSans-72" x="981.685547"/>
      <use xlink:href="#DejaVuSans-64" x="1021.048828"/>
      <use xlink:href="#DejaVuSans-73" x="1084.525391"/>
     </g>
    </g>
   </g>
   <g id="line2d_15">
    <path d="M 73.962646 273.413906 
L 74.079573 292.86402 
L 74.183509 291.774311 
L 74.26146 294.369326 
L 74.521298 288.193778 
L 74.605745 293.906633 
L 74.696689 291.88741 
L 74.80712 291.991797 
L 74.891567 292.288332 
L 75.008494 289.651179 
L 75.216364 291.544064 
L 75.365771 293.927082 
L 75.606121 282.057472 
L 75.801 293.889682 
L 75.943911 291.615605 
L 76.034854 292.301322 
L 76.242724 282.739535 
L 76.444099 283.169726 
L 76.976767 245.871466 
L 77.03523 294.461644 
L 77.210621 290.401549 
L 77.282076 293.661552 
L 77.489947 288.857414 
L 77.561402 293.816978 
L 77.652345 291.914669 
L 77.710809 293.835721 
L 77.873208 290.800193 
L 78.243477 277.344188 
L 78.386388 294.068062 
L 78.477331 292.689578 
L 78.81512 276.660335 
L 78.919055 293.425534 
L 79.185389 270.374189 
L 79.510187 293.246543 
L 79.646602 287.41077 
L 79.737545 293.115716 
L 79.828488 292.114178 
L 79.925928 293.717394 
L 80.010375 292.910168 
L 80.11431 293.808373 
L 80.328676 286.386758 
L 80.549539 291.898332 
L 80.698945 287.376424 
L 80.750913 294.341027 
L 80.919808 288.149986 
L 81.010751 293.639417 
L 81.160158 293.548146 
L 81.491451 275.907091 
L 81.575899 292.232186 
L 81.731801 288.267199 
L 81.790265 294.931761 
L 81.900696 293.025957 
L 82.186518 280.198435 
L 82.322933 290.192469 
L 82.478836 290.914241 
L 82.569779 293.131382 
L 82.660722 292.221792 
L 82.862097 294.294877 
L 83.037487 291.168732 
L 83.141422 294.205053 
L 83.609131 264.703507 
L 83.726058 293.477577 
L 83.933928 294.059729 
L 84.239238 290.405063 
L 84.4601 281.498464 
L 84.531555 293.071535 
L 84.622499 291.961956 
L 84.758914 291.015585 
L 84.862849 292.524938 
L 85.187646 288.6203 
L 85.376029 292.67694 
L 85.609883 280.389989 
L 86.038616 268.037363 
L 86.343925 292.042504 
L 86.434869 293.384575 
L 86.558292 289.577241 
L 86.844113 292.78556 
L 86.941553 292.609544 
L 87.194895 290.239361 
L 87.357293 293.253275 
L 87.454733 292.65759 
L 87.734058 282.641121 
L 87.870473 295.488 
L 88.032872 286.440646 
L 88.117319 293.269139 
L 88.247238 291.775959 
L 88.32519 293.818276 
L 88.50058 292.536501 
L 88.636995 294.404629 
L 88.792898 293.145105 
L 88.935809 293.460334 
L 89.260606 268.872973 
L 89.345054 292.164125 
L 89.578908 287.959285 
L 89.708827 291.121329 
L 89.916697 291.333901 
L 90.007641 291.644852 
L 90.176535 287.298658 
L 90.306454 292.943689 
L 90.410389 292.473922 
L 90.572788 285.637386 
L 90.754675 293.161988 
L 90.85861 292.791295 
L 91.430253 230.862797 
L 91.599148 291.103182 
L 91.742059 290.724056 
L 91.833002 291.831615 
L 92.255239 285.218686 
L 92.359174 291.254239 
L 92.528069 288.238091 
L 92.644996 290.116071 
L 92.755427 293.939205 
L 92.859362 292.83588 
L 92.995777 290.154024 
L 93.171168 294.348711 
L 93.463486 288.331439 
L 93.671356 290.08077 
L 93.736315 293.717505 
L 93.833755 291.789543 
L 93.944186 292.971613 
L 94.061113 292.52278 
L 94.41839 265.259391 
L 94.502837 292.410082 
L 94.600277 291.834236 
L 94.697716 293.215066 
L 94.847123 288.184305 
L 94.925074 292.769087 
L 95.41227 264.848476 
L 95.659116 292.67778 
L 96.354183 240.694571 
L 96.412646 294.622876 
L 96.523078 291.554113 
L 96.698468 290.034093 
L 96.945314 275.561473 
L 97.302591 284.647641 
L 97.445502 292.490617 
L 97.588413 287.930369 
L 97.666365 293.119757 
L 97.757308 291.426194 
L 98.004154 289.646285 
L 98.263992 292.326174 
L 98.634261 274.395896 
L 98.933075 292.985509 
L 99.127953 285.029775 
L 99.24488 292.009553 
L 99.465743 287.677163 
L 99.673613 291.571229 
L 99.79054 290.386653 
L 99.868491 293.642855 
L 100.043882 288.784288 
L 100.232265 294.616736 
L 100.420647 290.112661 
L 100.589542 290.004291 
L 100.699973 293.098648 
L 100.927331 282.12372 
L 101.12221 293.592405 
L 101.2976 285.698782 
L 101.447007 288.166205 
L 101.615902 294.164382 
L 101.791292 287.107068 
L 101.992667 285.954488 
L 102.135578 291.95401 
L 102.29148 289.163431 
L 102.401912 291.451395 
L 102.538326 288.695355 
L 102.603286 293.758369 
L 102.733205 295.061727 
L 102.9021 289.46414 
L 103.064498 288.279463 
L 103.239889 293.521775 
L 103.525711 285.289226 
L 103.65563 292.069342 
L 103.772557 290.482677 
L 103.857004 293.045679 
L 104.110346 290.123476 
L 104.214281 291.205504 
L 104.37668 289.426854 
L 104.493607 290.178556 
L 104.694982 293.121503 
L 104.902852 289.448755 
L 105.234145 294.15411 
L 105.338081 290.73051 
L 105.455008 293.146393 
L 105.571935 291.092748 
L 105.961692 265.17032 
L 106.150074 292.101868 
L 106.299481 289.049264 
L 106.468376 294.035718 
L 106.539831 294.053095 
L 106.916596 284.921818 
L 107.053011 289.06444 
L 107.306353 287.054683 
L 107.48824 292.53286 
L 107.865005 288.426267 
L 107.962444 292.723785 
L 108.183306 283.313962 
L 108.501608 282.668742 
L 108.702982 283.065148 
L 108.897861 293.045792 
L 109.183682 275.946826 
L 109.274626 292.406333 
L 109.54096 282.998522 
L 109.605919 293.691919 
L 109.768318 291.908344 
L 110.008668 292.598325 
L 110.112603 292.26975 
L 110.236026 290.076723 
L 110.300986 293.942548 
L 110.50236 288.51155 
L 110.794678 293.084524 
L 110.905109 291.911826 
L 111.281874 293.867107 
L 111.600175 284.730195 
L 111.76907 288.627838 
L 111.918477 288.005069 
L 112.223787 274.816835 
L 112.301738 293.107993 
L 112.444649 291.708654 
L 112.516104 293.285892 
L 112.723975 291.647534 
L 112.847398 295.083868 
L 112.964325 292.41139 
L 113.06826 293.077596 
L 113.204675 292.555695 
L 113.594432 277.743115 
L 113.652895 293.97315 
L 113.769823 290.134197 
L 113.906237 290.046401 
L 114.09462 284.904887 
L 114.633784 256.824558 
L 114.705239 293.90059 
L 114.828662 293.786603 
L 114.952085 292.163802 
L 115.244403 280.375643 
L 115.673136 255.301549 
L 115.855022 293.254283 
L 115.965453 290.989094 
L 116.062893 293.16067 
L 116.205803 290.00611 
L 116.413674 288.401261 
L 116.576073 291.162266 
L 116.705992 290.60833 
L 116.887878 286.206688 
L 117.069765 294.171166 
L 117.193188 290.510601 
L 117.277635 292.991556 
L 117.797311 276.771821 
L 117.946718 287.28135 
L 118.102621 289.797487 
L 118.323483 281.285856 
L 118.40793 292.409694 
L 118.544345 293.224284 
L 118.700248 292.008634 
L 118.843159 292.053654 
L 118.960086 290.38225 
L 119.16146 293.968987 
L 119.304371 288.775064 
L 119.447282 289.628549 
L 119.94747 294.382742 
L 120.025422 294.179768 
L 120.129357 290.905931 
L 120.207308 293.347049 
L 120.350219 291.097577 
L 120.52561 293.930492 
L 120.610057 292.629179 
L 120.739976 288.061297 
L 120.954342 292.970246 
L 121.129733 284.483964 
L 121.324611 292.294795 
L 121.428547 294.064076 
L 121.798816 287.13652 
L 121.909247 292.680173 
L 122.019678 290.077032 
L 122.117117 293.178105 
L 122.389947 286.420623 
L 122.506874 294.052542 
L 122.695257 292.565626 
L 122.864151 285.195862 
L 123.195445 264.847168 
L 123.2669 293.092256 
L 123.390323 291.881676 
L 123.663153 291.044612 
L 123.715121 294.478161 
L 123.871023 291.675991 
L 123.955471 293.926922 
L 124.29326 287.836826 
L 124.377707 293.203705 
L 124.507626 293.213939 
L 124.657033 289.017868 
L 124.741481 293.636626 
L 124.845416 291.942719 
L 125.495011 250.844542 
L 125.683393 293.977199 
L 125.86528 292.978413 
L 125.943231 293.569048 
L 126.066654 290.74779 
L 126.151102 293.213756 
L 126.34598 287.991958 
L 126.501883 287.790724 
L 126.605818 292.958361 
L 126.917624 289.092671 
L 127.060534 294.008945 
L 127.157974 291.28197 
L 127.287893 291.819041 
L 127.508755 280.243817 
L 127.606194 292.827848 
L 127.755601 289.172041 
L 127.924496 294.165036 
L 128.19083 284.194366 
L 128.346732 293.82146 
L 128.450668 293.165544 
L 128.697514 289.198517 
L 128.801449 293.291114 
L 129.106758 285.749351 
L 129.327621 294.347159 
L 129.477027 291.356824 
L 129.574467 293.976526 
L 129.782337 290.959444 
L 129.892768 293.087809 
L 129.996703 292.534577 
L 130.081151 293.94697 
L 130.21107 289.520766 
L 130.379964 292.133328 
L 130.503387 290.02101 
L 130.568347 293.943235 
L 130.65929 291.475919 
L 130.756729 291.739673 
L 130.938616 292.768123 
L 131.114007 286.876335 
L 131.178966 293.900361 
L 131.464788 287.015928 
L 131.555731 291.192246 
L 131.698642 289.68481 
L 131.809073 292.773996 
L 132.02344 290.355035 
L 132.205326 285.018395 
L 132.283278 292.955078 
L 132.393709 291.174886 
L 132.497644 291.467006 
L 132.660043 293.41594 
L 132.906889 289.750979 
L 132.971848 293.590519 
L 133.062791 292.88593 
L 133.504516 280.335861 
L 133.94624 277.747413 
L 134.024192 293.740049 
L 134.348989 269.595896 
L 134.452925 292.216553 
L 134.615323 288.676424 
L 134.76473 291.22213 
L 135.00508 278.255212 
L 135.083032 293.691956 
L 135.27791 290.96908 
L 135.511764 291.615103 
L 135.576724 294.102104 
L 135.641683 293.495859 
L 135.849554 284.635081 
L 136.011952 292.585123 
L 136.213327 286.166644 
L 136.323758 292.388815 
L 136.557612 290.690099 
L 136.681035 290.908104 
L 136.765482 293.437502 
L 136.869418 292.3969 
L 136.934377 293.285538 
L 137.018824 293.173717 
L 137.155239 293.604158 
L 137.26567 291.309378 
L 137.343622 292.829742 
L 137.467045 289.181382 
L 137.629444 293.091008 
L 137.84381 283.346081 
L 137.967233 293.332452 
L 138.097152 289.370679 
L 138.175103 293.123375 
L 138.421949 290.509401 
L 138.486909 294.733202 
L 138.655804 288.572038 
L 138.733755 293.508746 
L 139.058552 288.121904 
L 139.214455 286.603312 
L 139.402838 288.136063 
L 139.526261 291.949836 
L 139.669172 291.43763 
L 139.734131 293.98664 
L 139.903026 286.895703 
L 140.084912 294.682655 
L 140.494157 283.200623 
L 140.831947 266.046261 
L 141.033321 294.774821 
L 141.429574 289.393402 
L 141.923266 245.40247 
L 142.098657 291.452854 
L 142.46243 285.776476 
L 142.988602 249.388811 
L 143.514774 275.937763 
L 143.800595 267.647347 
L 144.183856 268.49842 
L 144.385231 276.605806 
L 144.716524 262.008238 
L 145.041322 267.833719 
L 145.229704 278.150108 
L 145.742884 268.543613 
L 145.924771 279.117867 
L 146.119649 277.206817 
L 146.463934 262.859115 
L 146.652317 278.407731 
L 146.847195 277.77854 
L 147.360375 234.066742 
L 147.56175 276.989711 
L 147.763124 276.342703 
L 148.00997 271.847923 
L 148.542638 232.578923 
L 149.10129 228.948371 
L 149.633958 231.571679 
L 150.192609 225.346632 
L 150.725277 233.230108 
L 151.283929 232.334267 
L 151.816597 229.75367 
L 152.362256 233.720027 
L 152.888428 232.364783 
L 153.427592 230.233394 
L 153.96026 229.648275 
L 154.505919 228.144836 
L 156.129907 236.53414 
L 157.240714 226.545133 
L 157.805862 226.405815 
L 158.332034 237.225667 
L 158.877693 235.78202 
L 159.462329 231.135471 
L 160.033972 229.034242 
L 160.657583 219.550367 
L 161.203243 235.172784 
L 161.781382 231.6238 
L 162.398498 219.099359 
L 162.989629 223.831685 
L 163.606744 217.794021 
L 164.210867 219.596149 
L 164.795503 223.819686 
L 165.39313 218.905004 
L 166.016741 218.794928 
L 166.601377 221.836962 
L 167.160028 225.919726 
L 167.757656 221.87929 
L 168.387763 215.874067 
L 169.011374 218.840938 
L 169.615497 219.202022 
L 170.258596 214.04061 
L 170.921183 210.565782 
L 171.564282 214.952954 
L 172.233365 211.746228 
L 172.915439 209.57962 
L 173.57153 212.554531 
L 174.234117 214.391316 
L 174.87072 215.201185 
L 175.578778 206.677544 
L 176.306325 205.438303 
L 177.111822 197.002254 
L 177.98228 190.874919 
L 178.800769 196.784042 
L 179.658234 191.893621 
L 180.54818 190.452653 
L 181.295214 208.502364 
L 182.146183 189.879397 
L 183.003648 190.903879 
L 183.49734 242.838809 
L 184.419765 183.156715 
L 185.34219 182.599508 
L 186.212647 194.273272 
L 187.258495 180.578599 
L 188.122456 185.987509 
L 189.038385 185.889289 
L 189.798411 205.137729 
L 190.558437 206.527259 
L 191.370431 196.911281 
L 192.182424 197.466801 
L 193.026898 194.205965 
L 193.884363 198.363823 
L 194.728836 195.32461 
L 195.618782 205.043455 
L 196.788052 166.452978 
L 197.846892 173.91957 
L 198.567942 219.980214 
L 199.13309 231.389832 
L 200.178938 191.135481 
L 201.569071 155.635018 
L 202.335593 196.792807 
L 203.550335 163.136902 
L 204.063515 230.77273 
L 205.304242 161.409161 
L 206.934725 141.957697 
L 208.259899 158.830252 
L 209.390194 169.856753 
L 210.202187 191.303342 
L 211.215555 175.167522 
L 212.261403 174.421651 
L 213.216308 178.776608 
L 214.22318 177.433193 
L 215.353475 169.27983 
L 216.126493 191.453397 
L 217.230804 170.242581 
L 218.205197 176.416549 
L 219.212069 175.166799 
L 220.147485 179.910846 
L 221.115382 177.591447 
L 222.12875 175.535763 
L 223.12263 175.837744 
L 224.025567 181.344519 
L 225.051927 173.445945 
L 226.104271 172.297147 
L 227.111143 177.184632 
L 228.338877 163.581543 
L 229.391221 172.952969 
L 231.210087 185.915688 
L 232.139007 178.507473 
L 233.360246 165.219195 
L 234.542509 165.466748 
L 235.276551 195.195435 
L 236.270431 176.006655 
L 237.322775 171.145284 
L 237.900914 245.522228 
L 239.044201 167.378123 
L 240.271936 164.745655 
L 241.49967 163.080842 
L 242.396111 180.478654 
L 243.506918 168.939855 
L 244.176001 203.429943 
L 245.33228 167.145285 
L 246.689934 195.614786 
L 247.430472 218.435539 
L 249.145402 175.150508 
L 250.217234 195.382364 
L 250.931788 200.941093 
L 253.315802 96.310123 
L 256.563776 101.133439 
L 259.447978 181.14553 
L 260.844607 155.063754 
L 262.039861 165.80318 
L 263.274092 163.626062 
L 264.430371 167.795441 
L 265.567162 168.772209 
L 266.859856 158.411247 
L 267.808264 178.39313 
L 268.789152 178.300458 
L 269.783033 177.764334 
L 271.699338 130.065683 
L 272.569795 184.778767 
L 273.453244 181.491943 
L 274.408148 176.304795 
L 275.317581 177.623385 
L 275.4475 287.28147 
L 276.214022 192.825748 
L 276.928577 200.921549 
L 277.662619 198.68462 
L 278.520084 181.917866 
L 279.28011 195.873236 
L 280.085608 183.395094 
L 280.897602 185.421531 
L 281.677116 188.350996 
L 282.489109 185.733944 
L 283.307599 184.828677 
L 284.100105 183.075713 
L 284.951074 185.728608 
L 285.750076 186.354354 
L 286.601045 185.247285 
L 287.419535 183.87104 
L 288.21204 186.677438 
L 289.101985 187.287067 
L 289.894491 186.520229 
L 290.706485 187.543796 
L 291.53147 185.733858 
L 292.427911 183.225095 
L 293.285377 184.600132 
L 294.188314 182.036742 
L 295.045779 183.438072 
L 296.000683 176.91413 
L 296.929604 180.210816 
L 297.51424 239.019733 
L 298.50812 176.004793 
L 299.118739 234.504254 
L 299.70987 240.417872 
L 300.645287 183.690965 
L 301.5872 179.412222 
L 302.171835 237.547444 
L 303.211187 178.860618 
L 305.816062 166.201139 
L 306.855414 184.440606 
L 308.102637 162.195802 
L 309.090021 175.177558 
L 310.460666 155.064814 
L 311.467538 176.801471 
L 312.552362 172.372652 
L 314.150365 138.380956 
L 315.410579 162.386192 
L 316.703273 160.331343 
L 317.586722 184.986753 
L 318.66505 176.093676 
L 319.431572 190.047415 
L 322.660059 53.568 
L 323.69941 177.707906 
L 325.219463 141.411647 
L 325.998976 247.813172 
L 326.720027 250.559285 
L 327.538516 192.295719 
L 329.993985 78.056542 
L 330.955386 178.546517 
L 331.994737 176.647965 
L 332.878187 189.506446 
L 333.644709 190.376896 
L 334.430718 193.829521 
L 335.086809 203.96339 
L 335.619477 232.20138 
L 336.457455 189.993488 
L 337.392871 178.653465 
L 338.334784 183.768233 
L 339.192249 185.844305 
L 340.095186 185.492427 
L 340.829228 198.424133 
L 341.712677 184.338281 
L 342.771517 174.214564 
L 343.583511 191.236121 
L 344.414992 190.724495 
L 345.168522 198.819953 
L 346.324801 170.469487 
L 347.286202 179.489288 
L 348.760782 202.383421 
L 349.845606 168.897447 
L 350.696575 188.178689 
L 351.593016 179.54771 
L 352.418002 188.072101 
L 352.554416 289.240064 
L 352.677839 290.405697 
L 352.872718 283.821284 
L 354.60064 127.919785 
L 355.588025 182.474022 
L 358.835999 129.725186 
L 362.083974 65.728116 
L 363.253245 160.476995 
L 366.501219 112.586427 
L 369.749194 119.67948 
L 371.516092 133.134517 
L 374.764067 69.597647 
L 376.712851 127.663103 
L 379.960826 80.529395 
L 380.824787 183.422033 
L 381.643277 185.668783 
L 382.494246 186.539566 
L 383.384191 182.84271 
L 384.274136 185.612994 
L 385.066642 189.405481 
L 385.956587 183.275139 
L 386.755589 187.265721 
L 387.600062 182.978671 
L 388.425048 186.898017 
L 389.230545 188.433606 
L 390.925988 182.788194 
L 391.776957 186.028592 
L 392.608439 184.900894 
L 393.498384 184.696635 
L 395.109379 187.612219 
L 395.960349 183.153975 
L 396.915253 193.183929 
L 397.766222 185.077887 
L 397.766222 185.077887 
" clip-path="url(#p96d12c888b)" style="fill: none; stroke: #1f77b4; stroke-width: 1.5; stroke-linecap: square"/>
   </g>
   <g id="line2d_16">
    <path d="M 76.937791 282.559801 
L 80.185766 282.585841 
L 83.43374 282.446479 
L 86.681715 282.473891 
L 89.929689 282.623587 
L 93.177664 282.726555 
L 96.425638 282.517822 
L 99.673613 282.569847 
L 102.921587 282.517001 
L 106.169562 282.458854 
L 109.417537 282.467435 
L 112.665511 282.476333 
L 115.913486 282.378514 
L 119.16146 282.544606 
L 122.409435 282.587 
L 125.657409 282.565575 
L 128.905384 282.484189 
L 132.153359 282.562951 
L 135.401333 282.471599 
L 138.649308 282.522676 
L 141.897282 267.305614 
L 145.145257 276.801535 
L 148.393231 239.744519 
L 151.641206 233.598623 
L 154.88918 233.461644 
L 158.137155 235.05549 
L 161.38513 218.437598 
L 164.633104 210.678789 
L 167.881079 217.906598 
L 171.129053 213.933614 
L 174.377028 199.081529 
L 177.625002 190.359055 
L 180.872977 203.705617 
L 184.120952 240.976646 
L 187.368926 196.127962 
L 190.616901 191.699703 
L 193.864875 206.39137 
L 197.11285 167.775291 
L 200.360824 188.064887 
L 203.608799 199.196218 
L 206.856773 160.878005 
L 210.104748 134.025632 
L 213.352723 169.4963 
L 216.600697 171.542529 
L 219.848672 177.623207 
L 223.096646 178.909728 
L 226.344621 176.699792 
L 229.592595 176.810981 
L 232.84057 178.195071 
L 236.088545 202.236862 
L 239.336519 176.646261 
L 242.584494 165.303807 
L 245.832468 212.293389 
L 249.080443 172.063692 
L 252.328417 201.616566 
L 255.576392 187.658403 
L 258.824367 104.537462 
L 262.072341 233.834102 
L 265.320316 207.517032 
L 268.56829 211.548791 
L 271.816265 192.465336 
L 275.064239 197.133373 
L 278.312214 187.604872 
L 281.560188 186.093759 
L 284.808163 184.403491 
L 288.056138 186.648162 
L 291.304112 181.317719 
L 294.552087 186.393626 
L 297.800061 238.343194 
L 301.048036 175.342728 
L 304.29601 228.579776 
L 307.543985 181.442419 
L 310.79196 162.528885 
L 314.039934 176.029225 
L 317.287909 171.208748 
L 320.535883 160.856138 
L 323.783858 224.37779 
L 327.031832 136.691257 
L 330.279807 152.671608 
L 333.527781 197.172922 
L 336.775756 134.852165 
L 340.023731 182.548234 
L 343.271705 183.097169 
L 346.51968 182.571665 
L 349.767654 175.887145 
L 353.015629 151.856478 
L 356.263603 116.234339 
L 359.511578 142.969578 
L 362.759553 116.361841 
L 366.007527 104.491718 
L 369.255502 91.347534 
L 372.503476 103.988691 
L 375.751451 110.394555 
L 378.999425 156.092684 
L 382.2474 183.053437 
L 385.495374 186.542387 
L 388.743349 185.557349 
L 391.991324 183.453977 
L 395.239298 183.798006 
L 398.487273 181.493973 
" clip-path="url(#p96d12c888b)" style="fill: none; stroke: #ff7f0e; stroke-width: 1.5; stroke-linecap: square"/>
   </g>
   <g id="line2d_17">
    <path d="M 73.832727 289.364724 
L 73.95615 289.20152 
L 74.222484 291.044369 
L 74.625233 276.379177 
L 74.74216 292.00164 
L 74.911055 287.658442 
L 74.98251 293.822609 
L 75.099437 289.416893 
L 75.177389 294.080024 
L 75.268332 291.85565 
L 75.469706 293.149871 
L 75.645097 291.564916 
L 75.723048 293.099175 
L 75.83348 292.276289 
L 75.950407 290.161431 
L 76.080326 290.832864 
L 76.216741 292.355411 
L 76.457091 283.384112 
L 76.690945 291.563659 
L 76.853344 290.954896 
L 77.03523 291.52826 
L 77.10019 293.133877 
L 77.399003 290.012026 
L 77.639353 293.810734 
L 77.873208 288.590628 
L 77.964151 292.575876 
L 78.06159 292.258315 
L 78.217493 291.938199 
L 78.347412 292.510741 
L 78.412371 294.194214 
L 78.529298 290.390752 
L 78.652722 291.569451 
L 78.782641 289.144522 
L 78.964527 288.529051 
L 79.146414 284.187041 
L 79.237357 293.143831 
L 79.341292 291.857141 
L 79.581642 283.735457 
L 79.698569 289.272079 
L 79.984391 283.741856 
L 80.270213 293.831198 
L 80.335172 293.965065 
L 80.465091 289.801755 
L 80.601506 290.885125 
L 80.887328 279.323271 
L 81.010751 294.383945 
L 81.069215 293.470954 
L 81.270589 293.02031 
L 81.407004 288.813524 
L 81.497947 293.247091 
L 81.640858 287.234166 
L 81.731801 292.720291 
L 81.907192 289.123075 
L 82.030615 291.346526 
L 82.193014 286.999272 
L 82.309941 292.488665 
L 82.446356 290.306326 
L 82.537299 291.545639 
L 82.777649 287.99735 
L 82.914064 289.886442 
L 83.076463 293.737917 
L 83.245358 285.4755 
L 83.427244 288.936702 
L 83.64161 284.922493 
L 83.726058 292.702662 
L 83.829993 290.265115 
L 84.031367 288.422951 
L 84.21975 293.114071 
L 84.356165 292.729492 
L 84.42762 293.461079 
L 84.661474 288.994056 
L 84.953792 271.450829 
L 85.064223 292.032257 
L 85.207134 293.191424 
L 85.505948 288.069411 
L 85.746298 292.595513 
L 85.824249 292.216584 
L 86.265974 276.898517 
L 86.538804 291.004648 
L 86.733682 287.854754 
L 86.922065 292.68814 
L 87.142927 292.134417 
L 87.47422 271.408992 
L 87.565164 292.571444 
L 87.714571 288.134387 
L 87.909449 291.132163 
L 88.071848 291.216752 
L 88.214759 290.743076 
L 88.318694 291.729713 
L 88.585028 280.088764 
L 88.662979 293.172847 
L 88.909825 288.76003 
L 88.968289 293.485523 
L 89.176159 282.169818 
L 89.293086 288.867414 
L 89.442493 289.003687 
L 89.747803 293.342064 
L 90.027128 283.033132 
L 90.260983 292.539836 
L 90.488341 288.659839 
L 90.644244 288.959231 
L 90.806642 293.00175 
L 91.001521 284.62158 
L 91.09896 293.609639 
L 91.196399 291.753564 
L 91.37179 292.639902 
L 91.527693 287.688364 
L 91.670604 294.137749 
L 91.826506 289.379335 
L 91.91745 292.287118 
L 92.066856 291.693114 
L 92.255239 292.063516 
L 92.33319 292.498637 
L 92.456613 292.367594 
L 92.599524 287.229416 
L 92.722947 292.687432 
L 92.813891 292.233341 
L 92.891842 293.274236 
L 92.995777 291.313751 
L 93.093216 292.565794 
L 93.463486 260.059944 
L 93.534941 293.366856 
L 93.736315 290.386905 
L 93.924698 284.596221 
L 94.054617 288.524637 
L 94.236503 287.620757 
L 94.411894 293.366083 
L 94.632756 290.950658 
L 94.717204 293.02522 
L 94.814643 291.467553 
L 94.93157 293.650057 
L 95.035505 293.585514 
L 95.210896 289.82178 
L 95.568173 273.581416 
L 95.782539 281.622516 
L 95.95793 293.754194 
L 96.087849 289.706066 
L 96.178792 293.14178 
L 96.269736 292.739267 
L 96.328199 293.784447 
L 96.581541 290.808119 
L 96.659493 293.00132 
L 96.91933 289.31504 
L 96.990786 293.086412 
L 97.348063 288.880052 
L 97.614397 282.156001 
L 97.854747 292.317774 
L 98.101593 280.864503 
L 98.270488 291.729016 
L 98.419895 291.447229 
L 98.484854 294.419646 
L 98.679733 292.048941 
L 98.842131 291.584112 
L 98.991538 290.403414 
L 99.192913 293.024424 
L 99.257872 293.147309 
L 99.543694 278.476802 
L 99.706093 289.350529 
L 99.855499 287.089321 
L 100.141321 290.253747 
L 100.323208 288.538632 
L 100.407655 293.142889 
L 100.673989 277.063236 
L 101.02477 270.264547 
L 101.115714 291.513274 
L 101.26512 289.099073 
L 101.388543 291.612466 
L 101.63539 292.949239 
L 101.960187 284.384357 
L 102.044634 293.071589 
L 102.11609 292.800025 
L 102.434391 286.878034 
L 102.577302 291.791081 
L 102.817652 289.043892 
L 102.986547 285.711626 
L 103.04501 293.87712 
L 103.148946 292.359692 
L 103.239889 293.466059 
L 103.324336 292.331122 
L 103.460751 292.180437 
L 103.532207 293.299114 
L 103.610158 292.373617 
L 103.973931 291.583184 
L 104.266249 279.921194 
L 104.389672 292.473267 
L 104.487111 291.256093 
L 104.58455 292.284613 
L 104.720965 292.463744 
L 104.805413 293.765415 
L 105.019779 282.337852 
L 105.234145 291.320485 
L 105.357568 291.414103 
L 105.43552 292.754309 
L 105.558943 292.485772 
L 106.000667 290.159103 
L 106.169562 293.11586 
L 106.403416 280.630737 
L 106.481368 293.670733 
L 106.773685 291.610154 
L 106.962068 289.625346 
L 107.040019 292.912413 
L 107.117971 292.35568 
L 107.21541 292.829804 
L 107.280369 293.841895 
L 107.442768 292.273868 
L 107.66363 290.682234 
L 107.865005 290.498004 
L 107.923468 294.074938 
L 108.033899 289.504115 
L 108.105355 293.506506 
L 108.20929 292.828124 
L 108.300233 292.991215 
L 108.534088 289.574172 
L 108.96282 293.067084 
L 109.092739 290.547806 
L 109.170691 292.953144 
L 109.326593 286.864637 
L 109.527968 289.826854 
L 109.846269 277.63256 
L 109.963196 291.935601 
L 110.125595 291.519144 
L 110.391929 277.833955 
L 110.586807 293.122158 
L 110.950581 279.895894 
L 111.041524 292.209338 
L 111.158451 292.529995 
L 111.268882 290.60357 
L 111.587184 273.524391 
L 111.671631 293.265043 
L 111.80155 292.652908 
L 111.873005 293.450649 
L 112.119851 291.714478 
L 112.386185 291.890408 
L 112.509608 291.582165 
L 112.607048 292.006195 
L 112.736967 291.016491 
L 112.801926 293.280404 
L 112.951333 293.052128 
L 113.126724 291.261395 
L 113.185187 293.9115 
L 113.295618 291.300578 
L 113.367074 293.571305 
L 113.776318 289.99681 
L 113.971197 293.59737 
L 114.257019 287.826735 
L 114.6078 294.110037 
L 114.802678 287.183248 
L 114.939093 291.375746 
L 115.082004 290.452646 
L 115.270387 286.613724 
L 115.354834 293.173729 
L 115.60168 288.750752 
L 115.725103 292.761384 
L 115.835534 290.648587 
L 116.036909 293.511943 
L 116.225291 287.221012 
L 116.764455 244.461263 
L 116.985317 292.566069 
L 117.14122 293.72555 
L 117.277635 289.811884 
L 117.394562 293.173519 
L 117.511489 292.661314 
L 117.673888 294.124088 
L 117.777823 293.236861 
L 117.888254 290.208911 
L 117.979198 294.047549 
L 118.1351 292.130411 
L 118.23254 292.173751 
L 118.414426 292.83927 
L 118.570329 288.5898 
L 118.693752 292.267912 
L 118.817175 292.301183 
L 118.88863 293.817305 
L 119.167956 290.224357 
L 119.271891 290.899696 
L 119.395314 293.128805 
L 119.577201 284.450056 
L 119.694128 291.257509 
L 120.077389 274.341724 
L 120.15534 292.666121 
L 120.291755 292.172437 
L 120.649033 293.384738 
L 120.746472 291.215081 
L 120.843911 293.789349 
L 121.097253 278.228056 
L 121.435042 290.835095 
L 121.597441 293.256805 
L 121.75984 285.200121 
L 121.980702 293.14412 
L 122.078141 292.832378 
L 122.279516 290.578074 
L 122.493882 293.587482 
L 122.695257 291.527356 
L 122.773208 293.589081 
L 122.929111 292.654398 
L 123.117493 289.657194 
L 123.260404 292.579783 
L 123.429299 288.756689 
L 123.656657 292.736443 
L 123.741104 292.289102 
L 123.929487 285.283338 
L 124.189325 286.164491 
L 124.514122 270.763799 
L 124.631049 291.363642 
L 124.747977 291.57866 
L 124.812936 293.889711 
L 125.01431 291.002014 
L 125.11175 292.805278 
L 125.689889 250.367971 
L 125.787328 292.911612 
L 125.904255 291.453856 
L 126.07315 291.3978 
L 126.307004 292.377394 
L 126.534363 286.277108 
L 126.729241 291.542798 
L 126.943607 280.440052 
L 127.080022 289.309694 
L 127.391828 276.078539 
L 127.508755 290.501393 
L 127.82056 269.070988 
L 127.911504 292.214201 
L 128.021935 291.703993 
L 128.15835 288.831956 
L 128.268781 292.247615 
L 128.489643 283.068639 
L 128.580587 293.070981 
L 128.70401 293.859966 
L 129.139238 289.037549 
L 129.353604 282.741933 
L 129.464036 293.612428 
L 129.535491 292.935666 
L 129.788833 291.269761 
L 129.944736 287.50193 
L 130.165598 287.300154 
L 130.568347 293.954681 
L 130.665786 292.465544 
L 131.133495 279.835947 
L 131.302389 290.579621 
L 131.555731 286.052168 
L 131.68565 289.920778 
L 131.932496 290.755074 
L 132.016944 292.798129 
L 132.172846 289.262217 
L 132.276782 290.877103 
L 132.640555 278.800618 
L 132.77697 292.454072 
L 132.971848 289.067 
L 133.108263 291.271642 
L 133.22519 291.221181 
L 133.322629 292.92056 
L 133.446052 289.6627 
L 133.5305 292.780846 
L 133.640931 290.959609 
L 133.926753 293.019024 
L 134.28403 286.659031 
L 134.420445 291.805517 
L 134.654299 280.140974 
L 134.73225 293.81041 
L 134.810202 293.05065 
L 135.050552 294.163785 
L 135.186967 289.52142 
L 135.459797 293.186544 
L 135.778098 281.258622 
L 135.927505 291.96758 
L 136.083408 290.476988 
L 136.232815 291.595033 
L 136.30427 293.347415 
L 136.447181 288.183066 
L 136.5771 288.225068 
L 136.752491 289.61985 
L 136.888905 287.197069 
L 137.0578 293.637539 
L 137.246183 291.951939 
L 137.356614 289.867418 
L 137.739875 273.663866 
L 137.960737 293.222492 
L 138.090656 290.057757 
L 138.266047 290.765945 
L 138.434941 285.176036 
L 138.714267 292.751937 
L 139.013081 289.052935 
L 139.266423 284.229975 
L 139.441813 292.926688 
L 139.727635 289.985052 
L 140.34475 237.325483 
L 140.474669 289.946044 
L 140.611084 288.433587 
L 140.760491 291.565888 
L 141.085289 269.421402 
L 141.449062 276.776269 
L 141.936258 253.23057 
L 142.111649 291.375531 
L 142.728764 267.224927 
L 143.001594 270.99321 
L 143.410838 284.008073 
L 143.742132 265.005101 
L 144.684044 234.436934 
L 144.917899 275.493106 
L 145.294664 266.718474 
L 145.573989 270.095572 
L 146.048194 262.192995 
L 146.269056 276.464036 
L 146.678301 257.050796 
L 147.04857 261.12592 
L 147.490294 262.591213 
L 147.756628 271.606996 
L 148.055442 267.915767 
L 148.503662 251.224954 
L 148.964875 250.122535 
L 149.504039 238.317035 
L 149.945763 250.403515 
L 150.432959 244.23544 
L 150.991611 235.561372 
L 151.465815 246.750731 
L 151.985491 240.064595 
L 153.14177 231.856252 
L 153.732902 231.540413 
L 154.330529 232.06917 
L 154.973628 225.198481 
L 155.694678 214.465848 
L 156.331281 225.035269 
L 157.071819 210.768409 
L 157.864325 200.431752 
L 158.604863 212.865125 
L 159.403865 199.402714 
L 160.105428 217.168869 
L 160.910925 196.803575 
L 161.631976 210.329127 
L 162.333538 215.845415 
L 163.074076 214.457718 
L 164.626608 198.861101 
L 165.373642 206.147483 
L 166.185636 199.794959 
L 167.010622 198.602987 
L 167.757656 207.658635 
L 168.550161 200.669141 
L 169.349163 197.1552 
L 170.174149 196.074441 
L 170.986142 203.982449 
L 171.82412 194.920155 
L 172.655601 196.198797 
L 173.402635 206.466303 
L 174.292581 194.831849 
L 175.156542 190.756028 
L 176.007511 196.693114 
L 176.832497 196.831317 
L 177.592523 203.701957 
L 178.385028 200.803977 
L 180.138935 190.983042 
L 181.002896 191.104311 
L 181.847369 193.598305 
L 182.74381 188.395334 
L 183.646747 185.661225 
L 184.471733 196.308835 
L 185.335694 191.544046 
L 186.167176 196.944722 
L 187.031137 191.666722 
L 187.90809 192.254764 
L 188.648628 205.645037 
L 189.558061 184.429184 
L 190.402534 197.045079 
L 191.298975 191.076455 
L 192.234392 187.495573 
L 193.169809 188.153751 
L 194.046762 193.702051 
L 194.949699 190.851214 
L 195.885115 187.192454 
L 196.794548 190.208919 
L 197.723469 192.402944 
L 198.658886 184.249383 
L 199.568319 191.019845 
L 200.438776 193.687913 
L 201.439152 192.776704 
L 202.348585 192.854548 
L 203.27101 187.017207 
L 204.154459 195.697955 
L 205.076883 190.410183 
L 206.025292 181.899204 
L 206.837286 205.417735 
L 207.694751 198.857482 
L 209.468145 189.615563 
L 210.35809 195.415237 
L 211.475393 173.517315 
L 211.65728 284.492106 
L 212.514745 199.496814 
L 213.443666 192.337549 
L 214.476522 179.061746 
L 215.463906 193.73609 
L 215.645793 284.558756 
L 216.925495 165.418645 
L 218.114253 163.776388 
L 219.393955 170.113599 
L 220.576218 176.9119 
L 221.700017 188.430514 
L 222.999207 163.590382 
L 224.168478 190.883661 
L 225.168854 178.48522 
L 226.214702 183.46253 
L 227.306021 177.109345 
L 228.345373 176.890233 
L 229.28079 181.63513 
L 230.313646 176.122423 
L 231.314022 183.410961 
L 232.444317 178.612719 
L 233.503157 179.280308 
L 234.484045 179.060128 
L 235.412966 176.975579 
L 236.374366 176.364615 
L 237.192856 188.27814 
L 238.043825 184.024526 
L 238.93377 178.782445 
L 239.856195 182.131056 
L 240.694172 180.463244 
L 241.56463 183.403067 
L 242.467567 194.057274 
L 243.338024 186.202346 
L 244.247457 188.534868 
L 245.111418 192.993991 
L 246.969259 185.609231 
L 247.891684 179.01279 
L 248.781629 185.7538 
L 249.632598 184.729961 
L 250.477072 177.653526 
L 251.418984 189.437076 
L 252.30893 181.785707 
L 253.185883 186.68749 
L 254.02386 183.689579 
L 254.900813 182.317581 
L 255.784262 178.192031 
L 256.680703 176.569475 
L 257.518681 192.946331 
L 258.36965 180.364296 
L 259.214123 182.065695 
L 260.18202 170.359096 
L 261.078461 176.792403 
L 262.000886 170.315218 
L 262.806383 192.411524 
L 263.676841 183.259072 
L 264.547298 178.978404 
L 265.391771 178.716429 
L 266.262228 180.136067 
L 267.158669 178.095741 
L 267.996647 184.087397 
L 268.834624 185.075669 
L 269.685593 184.389605 
L 270.523571 184.543302 
L 271.426508 179.408762 
L 272.283973 182.350918 
L 273.15443 181.029101 
L 274.018392 179.414123 
L 274.888849 183.296216 
L 275.759306 185.313832 
L 276.616771 185.346114 
L 277.558684 174.614551 
L 278.403157 183.130252 
L 279.254127 184.590586 
L 281.034017 181.737522 
L 281.923962 177.537597 
L 282.014905 291.907245 
L 282.943826 176.577227 
L 283.859754 181.405748 
L 284.866627 171.515526 
L 285.808539 174.415399 
L 286.438646 227.546719 
L 287.783308 154.07057 
L 289.654141 129.845491 
L 290.557078 180.043782 
L 291.498991 183.117379 
L 292.421415 181.205611 
L 293.291873 190.575899 
L 294.155834 187.834592 
L 294.746965 231.496849 
L 295.63691 180.722833 
L 296.21505 231.250827 
L 296.760709 234.65608 
L 297.598687 183.83031 
L 298.469144 183.233889 
L 299.326609 182.878371 
L 300.132107 188.005165 
L 300.963588 185.542236 
L 301.736606 197.408366 
L 302.5486 189.463559 
L 303.399569 182.810655 
L 304.179083 196.08136 
L 305.004069 187.223462 
L 305.855038 181.991892 
L 306.693016 185.029984 
L 307.518001 191.335406 
L 308.375466 188.00767 
L 309.206948 189.833128 
L 310.018942 190.491755 
L 310.882903 182.569156 
L 311.746864 186.280767 
L 312.05867 267.362549 
L 312.903143 181.995384 
L 314.566106 188.671168 
L 315.352116 195.296921 
L 316.216077 195.887934 
L 317.106022 187.653825 
L 318.827449 192.339259 
L 319.619954 192.77394 
L 320.44494 188.453977 
L 321.250438 187.532067 
L 322.302781 177.345422 
L 323.147255 184.622463 
L 324.160623 181.749568 
L 324.920649 197.042374 
L 325.843074 185.774129 
L 326.681051 188.275708 
L 327.545012 184.274459 
L 328.376494 188.965827 
L 329.220967 186.000802 
L 330.110912 183.347591 
L 330.94889 185.219351 
L 331.819347 187.84229 
L 332.72878 180.236737 
L 333.6577 178.155697 
L 334.554141 180.793862 
L 335.437591 184.338121 
L 336.295056 185.6928 
L 338.022978 186.360983 
L 338.906427 186.024975 
L 339.789876 184.657032 
L 340.757773 169.859397 
L 341.634726 187.768018 
L 342.570143 179.056931 
L 343.479576 183.499778 
L 344.382512 179.15118 
L 345.356905 176.332877 
L 346.337793 177.691861 
L 347.377145 166.533669 
L 347.539544 289.957797 
L 347.75391 290.358371 
L 348.000756 290.011068 
L 348.163155 290.278098 
L 348.364529 290.337663 
L 349.520808 161.813513 
L 349.77415 289.982149 
L 350.040484 290.097051 
L 350.306818 289.769154 
L 350.612128 287.373313 
L 351.151291 292.074512 
L 351.625496 290.057112 
L 351.937301 286.941634 
L 352.223123 290.227592 
L 352.703823 292.906942 
L 353.028621 288.974691 
L 353.262475 292.308918 
L 353.515817 292.661827 
L 353.730183 294.026007 
L 353.983525 291.861821 
L 354.217379 293.476786 
L 354.522689 291.065668 
L 354.789023 292.214074 
L 355.048861 292.50672 
L 355.594521 291.929848 
L 355.847863 292.759424 
L 356.101205 293.058748 
L 356.361043 292.506468 
L 356.627377 292.538119 
L 356.900206 292.198583 
L 357.186028 291.250302 
L 357.510826 289.389621 
L 357.790151 290.036909 
L 358.101957 288.644998 
L 358.407267 288.763841 
L 358.790528 284.134706 
L 359.206268 281.246173 
L 359.49209 287.251517 
L 360.304084 283.962182 
L 360.537938 288.414602 
L 360.771792 289.064113 
L 360.99915 288.896763 
L 362.148933 162.227132 
L 362.324324 289.963358 
L 362.551682 288.599234 
L 362.772544 289.520669 
L 363.129822 281.850475 
L 364.617394 147.389956 
L 365.760681 165.322089 
L 366.761057 173.560688 
L 367.858873 165.996077 
L 368.722834 180.211809 
L 369.632267 174.267335 
L 370.522212 180.298696 
L 371.392669 179.073394 
L 372.295606 174.586461 
L 373.205039 173.575059 
L 374.127464 176.218332 
L 375.023904 172.069885 
L 375.926841 179.300499 
L 376.868754 172.461146 
L 377.719723 185.203249 
L 378.661636 171.366349 
L 379.590557 175.339222 
L 380.525973 176.374326 
L 381.46139 176.622551 
L 382.364327 178.625274 
L 383.299744 174.277048 
L 384.176697 177.039691 
L 385.118609 174.800464 
L 386.034538 180.841017 
L 387.002435 170.831881 
L 387.983323 164.379018 
L 388.938228 171.579372 
L 389.834668 173.597173 
L 390.789573 172.908286 
L 391.66003 179.26914 
L 392.621431 167.298725 
L 393.550351 172.065712 
L 394.427305 181.612964 
L 395.349729 173.446806 
L 396.24617 170.514738 
L 397.175091 173.244458 
L 398.039052 183.181422 
L 398.039052 183.181422 
" clip-path="url(#p96d12c888b)" style="fill: none; stroke: #2ca02c; stroke-width: 1.5; stroke-linecap: square"/>
   </g>
   <g id="patch_3">
    <path d="M 57.6 307.584 
L 57.6 41.472 
" style="fill: none; stroke: #000000; stroke-width: 0.8; stroke-linejoin: miter; stroke-linecap: square"/>
   </g>
   <g id="patch_4">
    <path d="M 414.72 307.584 
L 414.72 41.472 
" style="fill: none; stroke: #000000; stroke-width: 0.8; stroke-linejoin: miter; stroke-linecap: square"/>
   </g>
   <g id="patch_5">
    <path d="M 57.6 307.584 
L 414.72 307.584 
" style="fill: none; stroke: #000000; stroke-width: 0.8; stroke-linejoin: miter; stroke-linecap: square"/>
   </g>
   <g id="patch_6">
    <path d="M 57.6 41.472 
L 414.72 41.472 
" style="fill: none; stroke: #000000; stroke-width: 0.8; stroke-linejoin: miter; stroke-linecap: square"/>
   </g>
   <g id="text_17">
    <!-- learning curve -->
    <g transform="translate(192.96375 35.472) scale(0.12 -0.12)">
     <defs>
      <path id="DejaVuSans-6c" d="M 603 4863 
L 1178 4863 
L 1178 0 
L 603 0 
L 603 4863 
z
" transform="scale(0.015625)"/>
      <path id="DejaVuSans-67" d="M 2906 1791 
Q 2906 2416 2648 2759 
Q 2391 3103 1925 3103 
Q 1463 3103 1205 2759 
Q 947 2416 947 1791 
Q 947 1169 1205 825 
Q 1463 481 1925 481 
Q 2391 481 2648 825 
Q 2906 1169 2906 1791 
z
M 3481 434 
Q 3481 -459 3084 -895 
Q 2688 -1331 1869 -1331 
Q 1566 -1331 1297 -1286 
Q 1028 -1241 775 -1147 
L 775 -588 
Q 1028 -725 1275 -790 
Q 1522 -856 1778 -856 
Q 2344 -856 2625 -561 
Q 2906 -266 2906 331 
L 2906 616 
Q 2728 306 2450 153 
Q 2172 0 1784 0 
Q 1141 0 747 490 
Q 353 981 353 1791 
Q 353 2603 747 3093 
Q 1141 3584 1784 3584 
Q 2172 3584 2450 3431 
Q 2728 3278 2906 2969 
L 2906 3500 
L 3481 3500 
L 3481 434 
z
" transform="scale(0.015625)"/>
      <path id="DejaVuSans-63" d="M 3122 3366 
L 3122 2828 
Q 2878 2963 2633 3030 
Q 2388 3097 2138 3097 
Q 1578 3097 1268 2742 
Q 959 2388 959 1747 
Q 959 1106 1268 751 
Q 1578 397 2138 397 
Q 2388 397 2633 464 
Q 2878 531 3122 666 
L 3122 134 
Q 2881 22 2623 -34 
Q 2366 -91 2075 -91 
Q 1284 -91 818 406 
Q 353 903 353 1747 
Q 353 2603 823 3093 
Q 1294 3584 2113 3584 
Q 2378 3584 2631 3529 
Q 2884 3475 3122 3366 
z
" transform="scale(0.015625)"/>
      <path id="DejaVuSans-75" d="M 544 1381 
L 544 3500 
L 1119 3500 
L 1119 1403 
Q 1119 906 1312 657 
Q 1506 409 1894 409 
Q 2359 409 2629 706 
Q 2900 1003 2900 1516 
L 2900 3500 
L 3475 3500 
L 3475 0 
L 2900 0 
L 2900 538 
Q 2691 219 2414 64 
Q 2138 -91 1772 -91 
Q 1169 -91 856 284 
Q 544 659 544 1381 
z
M 1991 3584 
L 1991 3584 
z
" transform="scale(0.015625)"/>
      <path id="DejaVuSans-76" d="M 191 3500 
L 800 3500 
L 1894 563 
L 2988 3500 
L 3597 3500 
L 2284 0 
L 1503 0 
L 191 3500 
z
" transform="scale(0.015625)"/>
     </defs>
     <use xlink:href="#DejaVuSans-6c"/>
     <use xlink:href="#DejaVuSans-65" x="27.783203"/>
     <use xlink:href="#DejaVuSans-61" x="89.306641"/>
     <use xlink:href="#DejaVuSans-72" x="150.585938"/>
     <use xlink:href="#DejaVuSans-6e" x="189.949219"/>
     <use xlink:href="#DejaVuSans-69" x="253.328125"/>
     <use xlink:href="#DejaVuSans-6e" x="281.111328"/>
     <use xlink:href="#DejaVuSans-67" x="344.490234"/>
     <use xlink:href="#DejaVuSans-20" x="407.966797"/>
     <use xlink:href="#DejaVuSans-63" x="439.753906"/>
     <use xlink:href="#DejaVuSans-75" x="494.734375"/>
     <use xlink:href="#DejaVuSans-72" x="558.113281"/>
     <use xlink:href="#DejaVuSans-76" x="599.226562"/>
     <use xlink:href="#DejaVuSans-65" x="658.40625"/>
    </g>
   </g>
   <g id="legend_1">
    <g id="patch_7">
     <path d="M 64.6 93.506375 
L 166.614062 93.506375 
Q 168.614062 93.506375 168.614062 91.506375 
L 168.614062 48.472 
Q 168.614062 46.472 166.614062 46.472 
L 64.6 46.472 
Q 62.6 46.472 62.6 48.472 
L 62.6 91.506375 
Q 62.6 93.506375 64.6 93.506375 
z
" style="fill: #ffffff; opacity: 0.8; stroke: #cccccc; stroke-linejoin: miter"/>
    </g>
    <g id="line2d_18">
     <path d="M 66.6 54.570438 
L 76.6 54.570438 
L 86.6 54.570438 
" style="fill: none; stroke: #1f77b4; stroke-width: 1.5; stroke-linecap: square"/>
    </g>
    <g id="text_18">
     <!-- source-source -->
     <g transform="translate(94.6 58.070438) scale(0.1 -0.1)">
      <defs>
       <path id="DejaVuSans-2d" d="M 313 2009 
L 1997 2009 
L 1997 1497 
L 313 1497 
L 313 2009 
z
" transform="scale(0.015625)"/>
      </defs>
      <use xlink:href="#DejaVuSans-73"/>
      <use xlink:href="#DejaVuSans-6f" x="52.099609"/>
      <use xlink:href="#DejaVuSans-75" x="113.28125"/>
      <use xlink:href="#DejaVuSans-72" x="176.660156"/>
      <use xlink:href="#DejaVuSans-63" x="215.523438"/>
      <use xlink:href="#DejaVuSans-65" x="270.503906"/>
      <use xlink:href="#DejaVuSans-2d" x="332.027344"/>
      <use xlink:href="#DejaVuSans-73" x="368.111328"/>
      <use xlink:href="#DejaVuSans-6f" x="420.210938"/>
      <use xlink:href="#DejaVuSans-75" x="481.392578"/>
      <use xlink:href="#DejaVuSans-72" x="544.771484"/>
      <use xlink:href="#DejaVuSans-63" x="583.634766"/>
      <use xlink:href="#DejaVuSans-65" x="638.615234"/>
     </g>
    </g>
    <g id="line2d_19">
     <path d="M 66.6 69.248563 
L 76.6 69.248563 
L 86.6 69.248563 
" style="fill: none; stroke: #ff7f0e; stroke-width: 1.5; stroke-linecap: square"/>
    </g>
    <g id="text_19">
     <!-- source-target -->
     <g transform="translate(94.6 72.748563) scale(0.1 -0.1)">
      <use xlink:href="#DejaVuSans-73"/>
      <use xlink:href="#DejaVuSans-6f" x="52.099609"/>
      <use xlink:href="#DejaVuSans-75" x="113.28125"/>
      <use xlink:href="#DejaVuSans-72" x="176.660156"/>
      <use xlink:href="#DejaVuSans-63" x="215.523438"/>
      <use xlink:href="#DejaVuSans-65" x="270.503906"/>
      <use xlink:href="#DejaVuSans-2d" x="332.027344"/>
      <use xlink:href="#DejaVuSans-74" x="368.111328"/>
      <use xlink:href="#DejaVuSans-61" x="407.320312"/>
      <use xlink:href="#DejaVuSans-72" x="468.599609"/>
      <use xlink:href="#DejaVuSans-67" x="507.962891"/>
      <use xlink:href="#DejaVuSans-65" x="571.439453"/>
      <use xlink:href="#DejaVuSans-74" x="632.962891"/>
     </g>
    </g>
    <g id="line2d_20">
     <path d="M 66.6 83.926688 
L 76.6 83.926688 
L 86.6 83.926688 
" style="fill: none; stroke: #2ca02c; stroke-width: 1.5; stroke-linecap: square"/>
    </g>
    <g id="text_20">
     <!-- target-target -->
     <g transform="translate(94.6 87.426688) scale(0.1 -0.1)">
      <use xlink:href="#DejaVuSans-74"/>
      <use xlink:href="#DejaVuSans-61" x="39.208984"/>
      <use xlink:href="#DejaVuSans-72" x="100.488281"/>
      <use xlink:href="#DejaVuSans-67" x="139.851562"/>
      <use xlink:href="#DejaVuSans-65" x="203.328125"/>
      <use xlink:href="#DejaVuSans-74" x="264.851562"/>
      <use xlink:href="#DejaVuSans-2d" x="304.060547"/>
      <use xlink:href="#DejaVuSans-74" x="340.144531"/>
      <use xlink:href="#DejaVuSans-61" x="379.353516"/>
      <use xlink:href="#DejaVuSans-72" x="440.632812"/>
      <use xlink:href="#DejaVuSans-67" x="479.996094"/>
      <use xlink:href="#DejaVuSans-65" x="543.472656"/>
      <use xlink:href="#DejaVuSans-74" x="604.996094"/>
     </g>
    </g>
   </g>
  </g>
 </g>
 <defs>
  <clipPath id="p96d12c888b">
   <rect x="57.6" y="41.472" width="357.12" height="266.112"/>
  </clipPath>
 </defs>
</svg>
