<?xml version="1.0" encoding="utf-8" standalone="no"?>
<!DOCTYPE svg PUBLIC "-//W3C//DTD SVG 1.1//EN"
  "http://www.w3.org/Graphics/SVG/1.1/DTD/svg11.dtd">
<svg xmlns:xlink="http://www.w3.org/1999/xlink" width="460.8pt" height="345.6pt" viewBox="0 0 460.8 345.6" xmlns="http://www.w3.org/2000/svg" version="1.1">
 <metadata>
  <rdf:RDF xmlns:dc="http://purl.org/dc/elements/1.1/" xmlns:cc="http://creativecommons.org/ns#" xmlns:rdf="http://www.w3.org/1999/02/22-rdf-syntax-ns#">
   <cc:Work>
    <dc:type rdf:resource="http://purl.org/dc/dcmitype/StillImage"/>
    <dc:date>2023-08-18T16:52:25.219487</dc:date>
    <dc:format>image/svg+xml</dc:format>
    <dc:creator>
     <cc:Agent>
      <dc:title>Matplotlib v3.7.1, https://matplotlib.org/</dc:title>
     </cc:Agent>
    </dc:creator>
   </cc:Work>
  </rdf:RDF>
 </metadata>
 <defs>
  <style type="text/css">*{stroke-linejoin: round; stroke-linecap: butt}</style>
 </defs>
 <g id="figure_1">
  <g id="patch_1">
   <path d="M 0 345.6 
L 460.8 345.6 
L 460.8 0 
L 0 0 
z
" style="fill: #ffffff"/>
  </g>
  <g id="axes_1">
   <g id="patch_2">
    <path d="M 57.6 307.584 
L 414.72 307.584 
L 414.72 41.472 
L 57.6 41.472 
z
" style="fill: #ffffff"/>
   </g>
   <g id="matplotlib.axis_1">
    <g id="xtick_1">
     <g id="line2d_1">
      <defs>
       <path id="m72f2f38dd1" d="M 0 0 
L 0 3.5 
" style="stroke: #000000; stroke-width: 0.8"/>
      </defs>
      <g>
       <use xlink:href="#m72f2f38dd1" x="73.774279" y="307.584" style="stroke: #000000; stroke-width: 0.8"/>
      </g>
     </g>
     <g id="text_1">
      <!-- 0 -->
      <g transform="translate(70.593029 322.182437) scale(0.1 -0.1)">
       <defs>
        <path id="DejaVuSans-30" d="M 2034 4250 
Q 1547 4250 1301 3770 
Q 1056 3291 1056 2328 
Q 1056 1369 1301 889 
Q 1547 409 2034 409 
Q 2525 409 2770 889 
Q 3016 1369 3016 2328 
Q 3016 3291 2770 3770 
Q 2525 4250 2034 4250 
z
M 2034 4750 
Q 2819 4750 3233 4129 
Q 3647 3509 3647 2328 
Q 3647 1150 3233 529 
Q 2819 -91 2034 -91 
Q 1250 -91 836 529 
Q 422 1150 422 2328 
Q 422 3509 836 4129 
Q 1250 4750 2034 4750 
z
" transform="scale(0.015625)"/>
       </defs>
       <use xlink:href="#DejaVuSans-30"/>
      </g>
     </g>
    </g>
    <g id="xtick_2">
     <g id="line2d_2">
      <g>
       <use xlink:href="#m72f2f38dd1" x="138.716878" y="307.584" style="stroke: #000000; stroke-width: 0.8"/>
      </g>
     </g>
     <g id="text_2">
      <!-- 10000 -->
      <g transform="translate(122.810628 322.182437) scale(0.1 -0.1)">
       <defs>
        <path id="DejaVuSans-31" d="M 794 531 
L 1825 531 
L 1825 4091 
L 703 3866 
L 703 4441 
L 1819 4666 
L 2450 4666 
L 2450 531 
L 3481 531 
L 3481 0 
L 794 0 
L 794 531 
z
" transform="scale(0.015625)"/>
       </defs>
       <use xlink:href="#DejaVuSans-31"/>
       <use xlink:href="#DejaVuSans-30" x="63.623047"/>
       <use xlink:href="#DejaVuSans-30" x="127.246094"/>
       <use xlink:href="#DejaVuSans-30" x="190.869141"/>
       <use xlink:href="#DejaVuSans-30" x="254.492188"/>
      </g>
     </g>
    </g>
    <g id="xtick_3">
     <g id="line2d_3">
      <g>
       <use xlink:href="#m72f2f38dd1" x="203.659476" y="307.584" style="stroke: #000000; stroke-width: 0.8"/>
      </g>
     </g>
     <g id="text_3">
      <!-- 20000 -->
      <g transform="translate(187.753226 322.182437) scale(0.1 -0.1)">
       <defs>
        <path id="DejaVuSans-32" d="M 1228 531 
L 3431 531 
L 3431 0 
L 469 0 
L 469 531 
Q 828 903 1448 1529 
Q 2069 2156 2228 2338 
Q 2531 2678 2651 2914 
Q 2772 3150 2772 3378 
Q 2772 3750 2511 3984 
Q 2250 4219 1831 4219 
Q 1534 4219 1204 4116 
Q 875 4013 500 3803 
L 500 4441 
Q 881 4594 1212 4672 
Q 1544 4750 1819 4750 
Q 2544 4750 2975 4387 
Q 3406 4025 3406 3419 
Q 3406 3131 3298 2873 
Q 3191 2616 2906 2266 
Q 2828 2175 2409 1742 
Q 1991 1309 1228 531 
z
" transform="scale(0.015625)"/>
       </defs>
       <use xlink:href="#DejaVuSans-32"/>
       <use xlink:href="#DejaVuSans-30" x="63.623047"/>
       <use xlink:href="#DejaVuSans-30" x="127.246094"/>
       <use xlink:href="#DejaVuSans-30" x="190.869141"/>
       <use xlink:href="#DejaVuSans-30" x="254.492188"/>
      </g>
     </g>
    </g>
    <g id="xtick_4">
     <g id="line2d_4">
      <g>
       <use xlink:href="#m72f2f38dd1" x="268.602075" y="307.584" style="stroke: #000000; stroke-width: 0.8"/>
      </g>
     </g>
     <g id="text_4">
      <!-- 30000 -->
      <g transform="translate(252.695825 322.182437) scale(0.1 -0.1)">
       <defs>
        <path id="DejaVuSans-33" d="M 2597 2516 
Q 3050 2419 3304 2112 
Q 3559 1806 3559 1356 
Q 3559 666 3084 287 
Q 2609 -91 1734 -91 
Q 1441 -91 1130 -33 
Q 819 25 488 141 
L 488 750 
Q 750 597 1062 519 
Q 1375 441 1716 441 
Q 2309 441 2620 675 
Q 2931 909 2931 1356 
Q 2931 1769 2642 2001 
Q 2353 2234 1838 2234 
L 1294 2234 
L 1294 2753 
L 1863 2753 
Q 2328 2753 2575 2939 
Q 2822 3125 2822 3475 
Q 2822 3834 2567 4026 
Q 2313 4219 1838 4219 
Q 1578 4219 1281 4162 
Q 984 4106 628 3988 
L 628 4550 
Q 988 4650 1302 4700 
Q 1616 4750 1894 4750 
Q 2613 4750 3031 4423 
Q 3450 4097 3450 3541 
Q 3450 3153 3228 2886 
Q 3006 2619 2597 2516 
z
" transform="scale(0.015625)"/>
       </defs>
       <use xlink:href="#DejaVuSans-33"/>
       <use xlink:href="#DejaVuSans-30" x="63.623047"/>
       <use xlink:href="#DejaVuSans-30" x="127.246094"/>
       <use xlink:href="#DejaVuSans-30" x="190.869141"/>
       <use xlink:href="#DejaVuSans-30" x="254.492188"/>
      </g>
     </g>
    </g>
    <g id="xtick_5">
     <g id="line2d_5">
      <g>
       <use xlink:href="#m72f2f38dd1" x="333.544674" y="307.584" style="stroke: #000000; stroke-width: 0.8"/>
      </g>
     </g>
     <g id="text_5">
      <!-- 40000 -->
      <g transform="translate(317.638424 322.182437) scale(0.1 -0.1)">
       <defs>
        <path id="DejaVuSans-34" d="M 2419 4116 
L 825 1625 
L 2419 1625 
L 2419 4116 
z
M 2253 4666 
L 3047 4666 
L 3047 1625 
L 3713 1625 
L 3713 1100 
L 3047 1100 
L 3047 0 
L 2419 0 
L 2419 1100 
L 313 1100 
L 313 1709 
L 2253 4666 
z
" transform="scale(0.015625)"/>
       </defs>
       <use xlink:href="#DejaVuSans-34"/>
       <use xlink:href="#DejaVuSans-30" x="63.623047"/>
       <use xlink:href="#DejaVuSans-30" x="127.246094"/>
       <use xlink:href="#DejaVuSans-30" x="190.869141"/>
       <use xlink:href="#DejaVuSans-30" x="254.492188"/>
      </g>
     </g>
    </g>
    <g id="xtick_6">
     <g id="line2d_6">
      <g>
       <use xlink:href="#m72f2f38dd1" x="398.487273" y="307.584" style="stroke: #000000; stroke-width: 0.8"/>
      </g>
     </g>
     <g id="text_6">
      <!-- 50000 -->
      <g transform="translate(382.581023 322.182437) scale(0.1 -0.1)">
       <defs>
        <path id="DejaVuSans-35" d="M 691 4666 
L 3169 4666 
L 3169 4134 
L 1269 4134 
L 1269 2991 
Q 1406 3038 1543 3061 
Q 1681 3084 1819 3084 
Q 2600 3084 3056 2656 
Q 3513 2228 3513 1497 
Q 3513 744 3044 326 
Q 2575 -91 1722 -91 
Q 1428 -91 1123 -41 
Q 819 9 494 109 
L 494 744 
Q 775 591 1075 516 
Q 1375 441 1709 441 
Q 2250 441 2565 725 
Q 2881 1009 2881 1497 
Q 2881 1984 2565 2268 
Q 2250 2553 1709 2553 
Q 1456 2553 1204 2497 
Q 953 2441 691 2322 
L 691 4666 
z
" transform="scale(0.015625)"/>
       </defs>
       <use xlink:href="#DejaVuSans-35"/>
       <use xlink:href="#DejaVuSans-30" x="63.623047"/>
       <use xlink:href="#DejaVuSans-30" x="127.246094"/>
       <use xlink:href="#DejaVuSans-30" x="190.869141"/>
       <use xlink:href="#DejaVuSans-30" x="254.492188"/>
      </g>
     </g>
    </g>
    <g id="text_7">
     <!-- timesteps -->
     <g transform="translate(211.443594 335.860562) scale(0.1 -0.1)">
      <defs>
       <path id="DejaVuSans-74" d="M 1172 4494 
L 1172 3500 
L 2356 3500 
L 2356 3053 
L 1172 3053 
L 1172 1153 
Q 1172 725 1289 603 
Q 1406 481 1766 481 
L 2356 481 
L 2356 0 
L 1766 0 
Q 1100 0 847 248 
Q 594 497 594 1153 
L 594 3053 
L 172 3053 
L 172 3500 
L 594 3500 
L 594 4494 
L 1172 4494 
z
" transform="scale(0.015625)"/>
       <path id="DejaVuSans-69" d="M 603 3500 
L 1178 3500 
L 1178 0 
L 603 0 
L 603 3500 
z
M 603 4863 
L 1178 4863 
L 1178 4134 
L 603 4134 
L 603 4863 
z
" transform="scale(0.015625)"/>
       <path id="DejaVuSans-6d" d="M 3328 2828 
Q 3544 3216 3844 3400 
Q 4144 3584 4550 3584 
Q 5097 3584 5394 3201 
Q 5691 2819 5691 2113 
L 5691 0 
L 5113 0 
L 5113 2094 
Q 5113 2597 4934 2840 
Q 4756 3084 4391 3084 
Q 3944 3084 3684 2787 
Q 3425 2491 3425 1978 
L 3425 0 
L 2847 0 
L 2847 2094 
Q 2847 2600 2669 2842 
Q 2491 3084 2119 3084 
Q 1678 3084 1418 2786 
Q 1159 2488 1159 1978 
L 1159 0 
L 581 0 
L 581 3500 
L 1159 3500 
L 1159 2956 
Q 1356 3278 1631 3431 
Q 1906 3584 2284 3584 
Q 2666 3584 2933 3390 
Q 3200 3197 3328 2828 
z
" transform="scale(0.015625)"/>
       <path id="DejaVuSans-65" d="M 3597 1894 
L 3597 1613 
L 953 1613 
Q 991 1019 1311 708 
Q 1631 397 2203 397 
Q 2534 397 2845 478 
Q 3156 559 3463 722 
L 3463 178 
Q 3153 47 2828 -22 
Q 2503 -91 2169 -91 
Q 1331 -91 842 396 
Q 353 884 353 1716 
Q 353 2575 817 3079 
Q 1281 3584 2069 3584 
Q 2775 3584 3186 3129 
Q 3597 2675 3597 1894 
z
M 3022 2063 
Q 3016 2534 2758 2815 
Q 2500 3097 2075 3097 
Q 1594 3097 1305 2825 
Q 1016 2553 972 2059 
L 3022 2063 
z
" transform="scale(0.015625)"/>
       <path id="DejaVuSans-73" d="M 2834 3397 
L 2834 2853 
Q 2591 2978 2328 3040 
Q 2066 3103 1784 3103 
Q 1356 3103 1142 2972 
Q 928 2841 928 2578 
Q 928 2378 1081 2264 
Q 1234 2150 1697 2047 
L 1894 2003 
Q 2506 1872 2764 1633 
Q 3022 1394 3022 966 
Q 3022 478 2636 193 
Q 2250 -91 1575 -91 
Q 1294 -91 989 -36 
Q 684 19 347 128 
L 347 722 
Q 666 556 975 473 
Q 1284 391 1588 391 
Q 1994 391 2212 530 
Q 2431 669 2431 922 
Q 2431 1156 2273 1281 
Q 2116 1406 1581 1522 
L 1381 1569 
Q 847 1681 609 1914 
Q 372 2147 372 2553 
Q 372 3047 722 3315 
Q 1072 3584 1716 3584 
Q 2034 3584 2315 3537 
Q 2597 3491 2834 3397 
z
" transform="scale(0.015625)"/>
       <path id="DejaVuSans-70" d="M 1159 525 
L 1159 -1331 
L 581 -1331 
L 581 3500 
L 1159 3500 
L 1159 2969 
Q 1341 3281 1617 3432 
Q 1894 3584 2278 3584 
Q 2916 3584 3314 3078 
Q 3713 2572 3713 1747 
Q 3713 922 3314 415 
Q 2916 -91 2278 -91 
Q 1894 -91 1617 61 
Q 1341 213 1159 525 
z
M 3116 1747 
Q 3116 2381 2855 2742 
Q 2594 3103 2138 3103 
Q 1681 3103 1420 2742 
Q 1159 2381 1159 1747 
Q 1159 1113 1420 752 
Q 1681 391 2138 391 
Q 2594 391 2855 752 
Q 3116 1113 3116 1747 
z
" transform="scale(0.015625)"/>
      </defs>
      <use xlink:href="#DejaVuSans-74"/>
      <use xlink:href="#DejaVuSans-69" x="39.208984"/>
      <use xlink:href="#DejaVuSans-6d" x="66.992188"/>
      <use xlink:href="#DejaVuSans-65" x="164.404297"/>
      <use xlink:href="#DejaVuSans-73" x="225.927734"/>
      <use xlink:href="#DejaVuSans-74" x="278.027344"/>
      <use xlink:href="#DejaVuSans-65" x="317.236328"/>
      <use xlink:href="#DejaVuSans-70" x="378.759766"/>
      <use xlink:href="#DejaVuSans-73" x="442.236328"/>
     </g>
    </g>
   </g>
   <g id="matplotlib.axis_2">
    <g id="ytick_1">
     <g id="line2d_7">
      <defs>
       <path id="m4290400e9e" d="M 0 0 
L -3.5 0 
" style="stroke: #000000; stroke-width: 0.8"/>
      </defs>
      <g>
       <use xlink:href="#m4290400e9e" x="57.6" y="297.470168" style="stroke: #000000; stroke-width: 0.8"/>
      </g>
     </g>
     <g id="text_8">
      <!-- 0 -->
      <g transform="translate(44.2375 301.269387) scale(0.1 -0.1)">
       <use xlink:href="#DejaVuSans-30"/>
      </g>
     </g>
    </g>
    <g id="ytick_2">
     <g id="line2d_8">
      <g>
       <use xlink:href="#m4290400e9e" x="57.6" y="263.942573" style="stroke: #000000; stroke-width: 0.8"/>
      </g>
     </g>
     <g id="text_9">
      <!-- 50 -->
      <g transform="translate(37.875 267.741791) scale(0.1 -0.1)">
       <use xlink:href="#DejaVuSans-35"/>
       <use xlink:href="#DejaVuSans-30" x="63.623047"/>
      </g>
     </g>
    </g>
    <g id="ytick_3">
     <g id="line2d_9">
      <g>
       <use xlink:href="#m4290400e9e" x="57.6" y="230.414977" style="stroke: #000000; stroke-width: 0.8"/>
      </g>
     </g>
     <g id="text_10">
      <!-- 100 -->
      <g transform="translate(31.5125 234.214196) scale(0.1 -0.1)">
       <use xlink:href="#DejaVuSans-31"/>
       <use xlink:href="#DejaVuSans-30" x="63.623047"/>
       <use xlink:href="#DejaVuSans-30" x="127.246094"/>
      </g>
     </g>
    </g>
    <g id="ytick_4">
     <g id="line2d_10">
      <g>
       <use xlink:href="#m4290400e9e" x="57.6" y="196.887381" style="stroke: #000000; stroke-width: 0.8"/>
      </g>
     </g>
     <g id="text_11">
      <!-- 150 -->
      <g transform="translate(31.5125 200.6866) scale(0.1 -0.1)">
       <use xlink:href="#DejaVuSans-31"/>
       <use xlink:href="#DejaVuSans-35" x="63.623047"/>
       <use xlink:href="#DejaVuSans-30" x="127.246094"/>
      </g>
     </g>
    </g>
    <g id="ytick_5">
     <g id="line2d_11">
      <g>
       <use xlink:href="#m4290400e9e" x="57.6" y="163.359785" style="stroke: #000000; stroke-width: 0.8"/>
      </g>
     </g>
     <g id="text_12">
      <!-- 200 -->
      <g transform="translate(31.5125 167.159004) scale(0.1 -0.1)">
       <use xlink:href="#DejaVuSans-32"/>
       <use xlink:href="#DejaVuSans-30" x="63.623047"/>
       <use xlink:href="#DejaVuSans-30" x="127.246094"/>
      </g>
     </g>
    </g>
    <g id="ytick_6">
     <g id="line2d_12">
      <g>
       <use xlink:href="#m4290400e9e" x="57.6" y="129.832189" style="stroke: #000000; stroke-width: 0.8"/>
      </g>
     </g>
     <g id="text_13">
      <!-- 250 -->
      <g transform="translate(31.5125 133.631408) scale(0.1 -0.1)">
       <use xlink:href="#DejaVuSans-32"/>
       <use xlink:href="#DejaVuSans-35" x="63.623047"/>
       <use xlink:href="#DejaVuSans-30" x="127.246094"/>
      </g>
     </g>
    </g>
    <g id="ytick_7">
     <g id="line2d_13">
      <g>
       <use xlink:href="#m4290400e9e" x="57.6" y="96.304594" style="stroke: #000000; stroke-width: 0.8"/>
      </g>
     </g>
     <g id="text_14">
      <!-- 300 -->
      <g transform="translate(31.5125 100.103812) scale(0.1 -0.1)">
       <use xlink:href="#DejaVuSans-33"/>
       <use xlink:href="#DejaVuSans-30" x="63.623047"/>
       <use xlink:href="#DejaVuSans-30" x="127.246094"/>
      </g>
     </g>
    </g>
    <g id="ytick_8">
     <g id="line2d_14">
      <g>
       <use xlink:href="#m4290400e9e" x="57.6" y="62.776998" style="stroke: #000000; stroke-width: 0.8"/>
      </g>
     </g>
     <g id="text_15">
      <!-- 350 -->
      <g transform="translate(31.5125 66.576217) scale(0.1 -0.1)">
       <use xlink:href="#DejaVuSans-33"/>
       <use xlink:href="#DejaVuSans-35" x="63.623047"/>
       <use xlink:href="#DejaVuSans-30" x="127.246094"/>
      </g>
     </g>
    </g>
    <g id="text_16">
     <!-- mean episode rewards -->
     <g transform="translate(25.432812 231.360031) rotate(-90) scale(0.1 -0.1)">
      <defs>
       <path id="DejaVuSans-61" d="M 2194 1759 
Q 1497 1759 1228 1600 
Q 959 1441 959 1056 
Q 959 750 1161 570 
Q 1363 391 1709 391 
Q 2188 391 2477 730 
Q 2766 1069 2766 1631 
L 2766 1759 
L 2194 1759 
z
M 3341 1997 
L 3341 0 
L 2766 0 
L 2766 531 
Q 2569 213 2275 61 
Q 1981 -91 1556 -91 
Q 1019 -91 701 211 
Q 384 513 384 1019 
Q 384 1609 779 1909 
Q 1175 2209 1959 2209 
L 2766 2209 
L 2766 2266 
Q 2766 2663 2505 2880 
Q 2244 3097 1772 3097 
Q 1472 3097 1187 3025 
Q 903 2953 641 2809 
L 641 3341 
Q 956 3463 1253 3523 
Q 1550 3584 1831 3584 
Q 2591 3584 2966 3190 
Q 3341 2797 3341 1997 
z
" transform="scale(0.015625)"/>
       <path id="DejaVuSans-6e" d="M 3513 2113 
L 3513 0 
L 2938 0 
L 2938 2094 
Q 2938 2591 2744 2837 
Q 2550 3084 2163 3084 
Q 1697 3084 1428 2787 
Q 1159 2491 1159 1978 
L 1159 0 
L 581 0 
L 581 3500 
L 1159 3500 
L 1159 2956 
Q 1366 3272 1645 3428 
Q 1925 3584 2291 3584 
Q 2894 3584 3203 3211 
Q 3513 2838 3513 2113 
z
" transform="scale(0.015625)"/>
       <path id="DejaVuSans-20" transform="scale(0.015625)"/>
       <path id="DejaVuSans-6f" d="M 1959 3097 
Q 1497 3097 1228 2736 
Q 959 2375 959 1747 
Q 959 1119 1226 758 
Q 1494 397 1959 397 
Q 2419 397 2687 759 
Q 2956 1122 2956 1747 
Q 2956 2369 2687 2733 
Q 2419 3097 1959 3097 
z
M 1959 3584 
Q 2709 3584 3137 3096 
Q 3566 2609 3566 1747 
Q 3566 888 3137 398 
Q 2709 -91 1959 -91 
Q 1206 -91 779 398 
Q 353 888 353 1747 
Q 353 2609 779 3096 
Q 1206 3584 1959 3584 
z
" transform="scale(0.015625)"/>
       <path id="DejaVuSans-64" d="M 2906 2969 
L 2906 4863 
L 3481 4863 
L 3481 0 
L 2906 0 
L 2906 525 
Q 2725 213 2448 61 
Q 2172 -91 1784 -91 
Q 1150 -91 751 415 
Q 353 922 353 1747 
Q 353 2572 751 3078 
Q 1150 3584 1784 3584 
Q 2172 3584 2448 3432 
Q 2725 3281 2906 2969 
z
M 947 1747 
Q 947 1113 1208 752 
Q 1469 391 1925 391 
Q 2381 391 2643 752 
Q 2906 1113 2906 1747 
Q 2906 2381 2643 2742 
Q 2381 3103 1925 3103 
Q 1469 3103 1208 2742 
Q 947 2381 947 1747 
z
" transform="scale(0.015625)"/>
       <path id="DejaVuSans-72" d="M 2631 2963 
Q 2534 3019 2420 3045 
Q 2306 3072 2169 3072 
Q 1681 3072 1420 2755 
Q 1159 2438 1159 1844 
L 1159 0 
L 581 0 
L 581 3500 
L 1159 3500 
L 1159 2956 
Q 1341 3275 1631 3429 
Q 1922 3584 2338 3584 
Q 2397 3584 2469 3576 
Q 2541 3569 2628 3553 
L 2631 2963 
z
" transform="scale(0.015625)"/>
       <path id="DejaVuSans-77" d="M 269 3500 
L 844 3500 
L 1563 769 
L 2278 3500 
L 2956 3500 
L 3675 769 
L 4391 3500 
L 4966 3500 
L 4050 0 
L 3372 0 
L 2619 2869 
L 1863 0 
L 1184 0 
L 269 3500 
z
" transform="scale(0.015625)"/>
      </defs>
      <use xlink:href="#DejaVuSans-6d"/>
      <use xlink:href="#DejaVuSans-65" x="97.412109"/>
      <use xlink:href="#DejaVuSans-61" x="158.935547"/>
      <use xlink:href="#DejaVuSans-6e" x="220.214844"/>
      <use xlink:href="#DejaVuSans-20" x="283.59375"/>
      <use xlink:href="#DejaVuSans-65" x="315.380859"/>
      <use xlink:href="#DejaVuSans-70" x="376.904297"/>
      <use xlink:href="#DejaVuSans-69" x="440.380859"/>
      <use xlink:href="#DejaVuSans-73" x="468.164062"/>
      <use xlink:href="#DejaVuSans-6f" x="520.263672"/>
      <use xlink:href="#DejaVuSans-64" x="581.445312"/>
      <use xlink:href="#DejaVuSans-65" x="644.921875"/>
      <use xlink:href="#DejaVuSans-20" x="706.445312"/>
      <use xlink:href="#DejaVuSans-72" x="738.232422"/>
      <use xlink:href="#DejaVuSans-65" x="777.095703"/>
      <use xlink:href="#DejaVuSans-77" x="838.619141"/>
      <use xlink:href="#DejaVuSans-61" x="920.40625"/>
      <use xlink:href="#DejaVuSans-72" x="981.685547"/>
      <use xlink:href="#DejaVuSans-64" x="1021.048828"/>
      <use xlink:href="#DejaVuSans-73" x="1084.525391"/>
     </g>
    </g>
   </g>
   <g id="line2d_15">
    <path d="M 73.832727 292.8108 
L 73.89767 292.695247 
L 74.384739 288.407446 
L 74.586061 292.736822 
L 74.715947 292.613402 
L 74.845832 286.156366 
L 74.982211 290.317415 
L 75.138074 278.927302 
L 75.293936 290.393057 
L 75.456292 276.907157 
L 75.553706 288.070925 
L 75.735545 282.291948 
L 75.923879 272.225478 
L 76.248592 289.732614 
L 76.456408 293.313435 
L 76.677213 285.205598 
L 76.79411 285.587516 
L 77.001926 288.899149 
L 77.131811 284.818775 
L 77.261696 288.303107 
L 77.437042 289.594407 
L 77.618881 286.087354 
L 77.696812 293.697772 
L 77.982559 261.56786 
L 78.255318 290.216011 
L 78.359226 289.217772 
L 78.5021 283.938516 
L 78.683939 282.805386 
L 78.748882 292.771246 
L 78.911238 287.917006 
L 78.98917 291.036997 
L 79.138538 290.408214 
L 79.274917 289.15984 
L 79.463251 282.389589 
L 79.658078 289.787309 
L 79.748998 291.602932 
L 79.8594 285.615215 
L 79.969803 292.544147 
L 80.262045 283.259723 
L 80.417907 285.128658 
L 80.580263 290.22522 
L 80.723137 289.905822 
L 80.827045 293.724215 
L 80.937448 285.634517 
L 81.041356 290.471777 
L 81.281643 267.986564 
L 81.418023 292.754402 
L 81.599862 281.465359 
L 81.671299 291.168455 
L 81.827161 288.091622 
L 81.918081 289.183099 
L 82.301242 240.846746 
L 82.535036 265.125032 
L 82.599978 292.728037 
L 82.684403 290.589718 
L 82.781817 290.798513 
L 82.931185 281.35663 
L 83.158484 285.079214 
L 83.255898 289.534372 
L 83.385784 287.438539 
L 83.541646 291.016559 
L 83.678025 283.694993 
L 83.996244 292.948991 
L 84.152106 291.742489 
L 84.217049 293.631064 
L 84.281991 293.212944 
L 84.535268 291.52072 
L 84.671647 292.145279 
L 85.100268 280.99188 
L 85.217165 289.742882 
L 85.424981 281.406746 
L 85.60682 293.436654 
L 85.710729 292.37224 
L 85.892568 289.082945 
L 85.976993 289.875357 
L 86.106878 288.925638 
L 86.197798 293.192616 
L 86.301706 287.90307 
L 86.49004 269.722453 
L 86.606936 287.801354 
L 86.892684 278.405715 
L 87.087512 292.535732 
L 87.165443 291.47294 
L 87.620041 264.29244 
L 87.704466 290.286365 
L 87.944754 274.351523 
L 88.029179 293.326644 
L 88.10711 291.516294 
L 88.224007 290.331389 
L 88.399352 274.672176 
L 88.483778 291.124444 
L 89.061767 222.769585 
L 89.159181 289.251468 
L 89.38648 293.432093 
L 89.457917 291.965731 
L 89.587802 287.468997 
L 89.704698 290.674481 
L 89.847572 284.962791 
L 89.931998 293.210751 
L 90.074871 287.578716 
L 90.224239 295.31111 
L 90.34763 283.812272 
L 90.419067 293.212074 
L 90.548952 289.593883 
L 90.633378 290.757138 
L 90.945102 261.132752 
L 91.010045 293.953824 
L 91.263321 281.778046 
L 91.464643 290.961239 
L 91.614011 288.033351 
L 91.672459 293.76334 
L 91.912747 285.803765 
L 92.088092 284.986388 
L 92.393322 261.099249 
L 92.49723 286.563455 
L 92.63361 285.661048 
L 92.757001 292.914838 
L 92.964817 281.155265 
L 93.179127 259.469348 
L 93.380449 293.52527 
L 93.484358 287.463567 
L 94.03637 207.530267 
L 94.133784 288.421515 
L 94.380566 267.727843 
L 94.542922 276.620158 
L 94.757233 274.686088 
L 94.906601 294.134415 
L 95.04298 288.933688 
L 95.400164 270.032313 
L 95.575509 285.587157 
L 95.718383 286.173496 
L 95.828785 285.883949 
L 95.932694 286.78081 
L 96.159993 291.676933 
L 96.348326 270.052872 
L 96.58212 292.337241 
L 96.692522 288.979536 
L 96.809419 290.269581 
L 96.958787 290.389381 
L 97.108155 293.101727 
L 97.205569 292.004018 
L 97.536776 273.166383 
L 97.621201 292.985324 
L 97.764075 284.177837 
L 97.93942 291.094319 
L 98.147236 290.125466 
L 98.296604 292.462987 
L 98.484938 272.849612 
L 98.569363 289.704069 
L 98.673271 287.922358 
L 98.959019 260.785628 
L 99.186318 269.266784 
L 99.355169 281.069111 
L 99.569479 280.336952 
L 99.764307 293.476002 
L 99.82925 292.237474 
L 99.900686 291.55895 
L 100.186434 246.260393 
L 100.39425 291.20247 
L 100.705975 238.81361 
L 100.978734 285.881569 
L 101.134596 287.281055 
L 101.206033 292.95589 
L 101.335918 284.252487 
L 101.49178 282.32959 
L 101.62816 293.926653 
L 101.777528 282.464918 
L 101.894424 290.317997 
L 102.017815 287.511509 
L 102.102241 290.777538 
L 102.23862 283.658847 
L 102.336034 290.323985 
L 102.576321 273.376675 
L 102.660747 290.100374 
L 102.823103 287.247781 
L 102.972471 291.14895 
L 103.069885 290.688916 
L 103.297184 276.558006 
L 103.55046 280.140378 
L 103.667357 289.510307 
L 103.881668 279.866778 
L 104.03753 293.522514 
L 104.173909 289.314813 
L 104.277818 294.053142 
L 104.459657 289.904807 
L 104.531094 291.789382 
L 104.654485 288.431438 
L 105.04414 294.294248 
L 105.206497 280.855327 
L 105.381842 285.491963 
L 105.615635 269.645328 
L 105.726038 288.986068 
L 105.862417 284.987196 
L 106.154659 267.409393 
L 106.349486 273.702351 
L 106.531326 294.755779 
L 106.589774 293.522645 
L 106.726154 285.681546 
L 106.907993 293.149168 
L 107.063855 285.651712 
L 107.206729 286.490256 
L 107.317131 286.342517 
L 107.382074 293.851855 
L 107.447016 292.900247 
L 107.739258 279.979547 
L 107.810695 291.359558 
L 107.89512 290.95539 
L 108.083454 288.718439 
L 108.206845 291.629823 
L 108.349719 283.206709 
L 108.460121 289.911024 
L 108.843282 256.555252 
L 109.057593 292.304846 
L 109.135524 292.961827 
L 109.258915 288.756799 
L 109.34334 290.918426 
L 109.43426 290.612698 
L 109.570639 288.391106 
L 109.655065 292.74627 
L 109.966789 239.317781 
L 110.09018 289.142223 
L 110.252537 285.807837 
L 110.453859 293.62307 
L 110.544778 289.489572 
L 110.661675 291.366291 
L 110.824032 289.251621 
L 110.940928 291.467156 
L 111.161733 287.670947 
L 111.343572 288.112847 
L 111.408515 292.661476 
L 111.551389 290.447793 
L 111.661791 286.534692 
L 111.811159 285.882748 
L 111.98001 290.796157 
L 112.142366 289.453417 
L 112.265757 291.139299 
L 112.499551 277.939457 
L 112.655413 293.932203 
L 112.889206 286.223157 
L 112.967137 291.353484 
L 113.090528 290.163869 
L 113.233402 287.120383 
L 113.29185 294.703326 
L 113.519149 278.534356 
L 113.668517 286.592519 
L 113.811391 280.612748 
L 114.012713 281.580138 
L 114.162081 285.478218 
L 114.298461 285.767741 
L 114.369897 293.647326 
L 114.564725 280.190896 
L 114.753059 291.092981 
L 114.843978 292.118173 
L 115.064783 264.279245 
L 115.298577 290.231482 
L 115.389496 289.457221 
L 115.62329 263.248498 
L 115.727198 288.565359 
L 115.857083 291.597027 
L 116.019439 281.204324 
L 116.116853 292.188588 
L 116.214267 288.721405 
L 116.344152 288.279854 
L 116.558463 279.798103 
L 116.668865 292.086116 
L 116.766279 288.413746 
L 117.058521 261.149769 
L 117.136452 294.148968 
L 117.207889 291.104529 
L 117.292314 290.659306 
L 117.4222 287.516176 
L 117.506625 289.734327 
L 117.649499 286.913721 
L 117.746913 288.34615 
L 118.013177 284.719114 
L 118.071626 293.46892 
L 118.169039 291.026838 
L 118.448293 259.466652 
L 118.500247 294.34873 
L 118.571684 291.283583 
L 118.675592 286.747811 
L 118.7795 293.469553 
L 118.909385 291.859017 
L 119.045765 282.018512 
L 119.292546 291.306663 
L 119.38996 291.931148 
L 119.552317 281.618452 
L 119.83157 287.823958 
L 120.123812 260.567408 
L 120.260191 285.09943 
L 120.506973 287.167805 
L 120.714789 292.111152 
L 120.818697 290.245979 
L 120.961571 282.336606 
L 121.071974 284.752472 
L 121.182376 291.277664 
L 121.331744 279.000303 
L 121.435652 291.212989 
L 121.53956 290.802337 
L 121.669446 287.807524 
L 121.909733 277.097808 
L 122.091572 292.279568 
L 122.221458 290.35423 
L 122.403297 280.478026 
L 122.468239 292.565434 
L 122.539676 291.627364 
L 122.604619 291.816586 
L 122.812435 287.354903 
L 122.935826 291.620149 
L 123.072206 282.61741 
L 123.228068 287.223291 
L 123.357953 281.787527 
L 123.591746 288.681911 
L 123.987896 230.199414 
L 124.065827 290.636609 
L 124.351575 281.405707 
L 124.423012 290.941443 
L 124.552897 282.880905 
L 124.728242 292.417405 
L 124.890598 291.606089 
L 125.104909 280.211762 
L 125.390656 290.299414 
L 125.481576 288.425998 
L 125.591978 290.920006 
L 125.747841 289.553457 
L 125.890714 283.091442 
L 126.033588 283.771718 
L 126.111519 292.727814 
L 126.241404 288.731052 
L 126.37129 293.175744 
L 126.533646 280.500087 
L 126.708991 285.085316 
L 126.903819 279.627945 
L 126.988244 290.803205 
L 127.202555 267.247677 
L 127.28698 291.51182 
L 127.371406 291.109828 
L 127.481808 291.001055 
L 127.611693 288.705141 
L 127.709107 292.254157 
L 127.877958 281.091668 
L 128.020832 291.423615 
L 128.111751 288.912135 
L 128.183188 294.186792 
L 128.306579 288.258247 
L 128.416982 288.650202 
L 128.52089 289.940275 
L 128.605315 292.47267 
L 128.91704 278.30446 
L 129.13135 274.6588 
L 129.384626 289.433607 
L 129.57296 284.878548 
L 129.676868 292.025028 
L 130.008075 279.593714 
L 130.18342 291.670257 
L 130.352271 274.680505 
L 130.599053 292.092358 
L 130.709455 286.53043 
L 130.8848 291.232845 
L 131.073134 280.933236 
L 131.164053 290.24535 
L 131.293939 289.019432 
L 131.449801 293.067316 
L 131.787502 262.919102 
L 131.904399 290.568505 
L 132.560319 217.919718 
L 132.631756 291.643338 
L 132.813595 294.904097 
L 133.021412 290.382953 
L 133.131814 289.159168 
L 133.281182 285.004796 
L 133.443539 277.3928 
L 133.547447 292.730588 
L 133.696815 287.965018 
L 133.787734 293.153825 
L 133.969574 278.63047 
L 134.041011 292.622804 
L 134.300781 257.064438 
L 134.365724 293.571145 
L 134.443655 291.809401 
L 134.534574 294.493796 
L 134.657965 294.527882 
L 134.930724 277.209191 
L 135.112563 283.649895 
L 135.190495 293.480326 
L 135.359345 289.130402 
L 135.495725 291.68112 
L 135.697047 273.512153 
L 135.826932 291.818581 
L 136.138657 290.109644 
L 136.203599 294.200148 
L 136.262047 292.641686 
L 136.41791 281.221276 
L 136.521818 292.11654 
L 136.612737 290.141957 
L 136.729634 286.97814 
L 136.827048 290.648103 
L 136.924462 287.480427 
L 137.125784 291.394634 
L 137.203715 290.437191 
L 137.275152 291.248667 
L 137.541417 273.365631 
L 137.632336 288.125146 
L 137.762221 290.18869 
L 137.970038 287.29211 
L 138.086934 293.768413 
L 138.151877 292.948032 
L 138.437625 285.068286 
L 138.762338 239.972316 
L 138.833774 291.766525 
L 139.022108 276.773937 
L 139.151993 290.042675 
L 139.496189 283.665488 
L 139.755959 291.306057 
L 139.853373 291.62087 
L 139.963776 287.874847 
L 140.022224 293.544581 
L 140.113144 292.040595 
L 140.398891 256.144332 
L 140.58073 293.946198 
L 140.76257 292.586851 
L 140.846995 289.826389 
L 140.937915 290.969495 
L 141.028834 289.653211 
L 141.126248 291.033831 
L 141.210673 289.074296 
L 141.502915 273.180513 
L 141.6328 290.29635 
L 141.756191 286.834802 
L 141.957513 291.450605 
L 142.035444 290.124932 
L 142.386135 240.562727 
L 142.503031 286.974757 
L 142.632916 290.399135 
L 142.743319 288.172604 
L 142.944641 278.548153 
L 143.178434 292.836411 
L 143.347285 288.076936 
L 143.671998 245.313715 
L 143.762918 290.204567 
L 143.925274 276.212134 
L 144.172056 284.674553 
L 144.243493 291.131066 
L 144.659125 244.604935 
L 144.724068 292.559924 
L 144.827976 287.876226 
L 144.97085 293.017195 
L 145.074758 288.387061 
L 145.172172 292.32217 
L 145.27608 291.386719 
L 145.405965 287.235764 
L 145.522862 287.119271 
L 145.828092 244.805624 
L 145.970966 295.095174 
L 146.217748 284.05147 
L 146.386599 291.503247 
L 146.581426 273.65897 
L 146.756771 278.907173 
L 147.02953 276.295458 
L 147.47114 224.992713 
L 147.672462 293.314102 
L 147.880278 289.610034 
L 148.354359 215.671579 
L 148.451773 288.774224 
L 148.685567 284.093966 
L 148.899877 283.810607 
L 149.198613 241.623393 
L 149.796085 219.726688 
L 149.919476 287.708949 
L 150.088327 276.610032 
L 150.153269 293.127134 
L 150.27666 292.348757 
L 150.41304 294.303313 
L 150.529936 285.216128 
L 150.71827 294.517768 
L 150.997523 281.810602 
L 151.231316 287.784798 
L 151.348213 285.052952 
L 151.607984 286.719789 
L 151.783329 276.8659 
L 152.185973 236.466701 
L 152.328846 290.133736 
L 152.452237 291.829789 
L 152.744479 242.58661 
L 152.991261 258.534836 
L 153.257526 289.672607 
L 153.56925 269.70893 
L 153.82902 292.198203 
L 154.023848 284.025951 
L 154.192699 281.923423 
L 154.290113 288.551715 
L 154.439481 282.16039 
L 154.744711 246.153239 
L 154.92655 282.056279 
L 155.088907 286.715674 
L 155.231781 280.1843 
L 155.504539 284.745713 
L 155.783793 247.902884 
L 156.017586 288.513576 
L 156.439713 228.692016 
L 156.647529 276.292519 
L 156.965748 236.84039 
L 157.186553 258.062758 
L 157.400863 259.611721 
L 157.654139 285.685796 
L 157.946381 243.91035 
L 158.141209 261.820879 
L 158.459428 279.05355 
L 158.70621 255.371457 
L 158.87506 291.690123 
L 159.816728 182.715246 
L 159.979085 288.869808 
L 160.446671 252.537101 
L 160.868798 232.010269 
L 160.985695 285.668772 
L 161.2065 257.206002 
L 161.459776 253.875392 
L 161.667592 261.363903 
L 162.239087 236.076017 
L 162.589777 265.888351 
L 163.154778 220.905551 
L 163.369088 291.324003 
L 163.817192 240.095379 
L 164.330239 257.89284 
L 164.564032 255.461009 
L 164.765354 261.226124 
L 165.239435 232.994121 
L 165.538171 251.225448 
L 165.953804 241.871785 
L 166.213574 252.035488 
L 166.966908 182.460182 
L 167.220184 253.762937 
L 167.421506 262.019296 
L 167.86961 257.341405 
L 168.038461 265.733429 
L 168.467082 234.987936 
L 168.700876 256.716953 
L 169.220416 234.944297 
L 169.45421 257.522006 
L 169.675015 260.071298 
L 169.954268 250.335351 
L 170.168578 260.164088 
L 170.3699 261.453356 
L 170.545245 265.860214 
L 170.72059 266.08923 
L 170.941395 257.85095 
L 171.25312 284.244455 
L 171.447947 263.005722 
L 171.623292 265.457346 
L 171.889557 254.770949 
L 172.324673 260.424316 
L 172.636397 239.316739 
L 173.058524 245.590823 
L 173.57157 229.237233 
L 173.980709 241.349405 
L 174.220996 255.336454 
L 174.467778 254.975644 
L 174.688583 256.372055 
L 175.058756 253.387227 
L 175.532837 256.216852 
L 175.779619 253.833131 
L 175.967952 264.220246 
L 176.201746 255.245485 
L 176.370596 267.352127 
L 176.617378 254.367574 
L 177.026517 264.316539 
L 177.21485 264.085874 
L 177.559046 229.12049 
L 177.760368 262.063988 
L 179.000772 156.755721 
L 179.643703 217.441521 
L 179.864508 258.058654 
L 180.039853 265.635607 
L 180.260658 259.425223 
L 180.448992 263.75351 
L 180.656808 260.317971 
L 180.871119 259.51514 
L 181.052958 265.317743 
L 181.241291 263.96109 
L 181.462096 259.194374 
L 181.65043 264.109379 
L 181.86474 259.616968 
L 182.053074 263.6114 
L 182.319338 248.732048 
L 182.507672 263.375084 
L 182.721983 259.125961 
L 182.903822 264.567661 
L 183.085661 264.520498 
L 183.325949 253.621645 
L 183.475317 270.220722 
L 183.683133 260.387054 
L 183.916926 256.68648 
L 184.131237 261.239351 
L 184.332559 261.779855 
L 184.527387 263.091609 
L 184.683249 268.636182 
L 185.059916 262.293489 
L 185.24825 263.705425 
L 185.410606 267.656983 
L 185.59894 263.825984 
L 185.793768 262.70867 
L 185.969113 265.557139 
L 186.16394 262.15576 
L 186.326297 267.739309 
L 186.566584 255.542203 
L 186.741929 265.787791 
L 186.91078 266.553168 
L 187.073137 267.932418 
L 187.326413 252.720712 
L 187.501758 266.025508 
L 188.125207 254.900073 
L 188.300552 265.652916 
L 188.527851 257.943107 
L 188.716184 264.012801 
L 188.962966 256.25851 
L 189.177277 259.53189 
L 189.514978 268.456914 
L 189.989059 251.221787 
L 190.521589 269.623995 
L 190.670957 269.383138 
L 191.132049 249.979248 
L 191.313888 263.137347 
L 191.489233 265.513226 
L 191.690555 259.430898 
L 191.859406 265.941733 
L 192.145154 240.792257 
L 192.30751 267.477599 
L 192.482855 265.946567 
L 192.671189 263.318486 
L 193.05435 221.452145 
L 193.307626 249.854864 
L 193.593374 240.589586 
L 193.833661 251.111542 
L 194.138891 235.755427 
L 194.372685 251.390893 
L 194.710386 228.060458 
L 194.98964 243.797403 
L 195.320847 231.810194 
L 195.95079 236.294135 
L 196.21056 245.833517 
L 196.457342 250.315831 
L 196.69763 249.817095 
L 197.340562 226.971113 
L 197.619815 243.268183 
L 197.912056 240.639006 
L 198.106884 260.166746 
L 198.548494 253.020176 
L 198.808264 245.913597 
L 199.009586 261.786894 
L 199.308322 239.363432 
L 199.581081 245.22134 
L 199.912289 232.553568 
L 200.262979 227.708281 
L 200.808496 179.427637 
L 201.802118 196.223186 
L 202.087866 240.281216 
L 202.613901 174.473814 
L 203.126947 187.845055 
L 203.665971 173.638783 
L 204.159534 194.030065 
L 204.692064 181.151103 
L 204.89988 257.243768 
L 205.367467 197.841127 
L 205.90649 169.997042 
L 206.426031 176.392217 
L 206.984538 254.371034 
L 207.302756 233.83344 
L 207.861263 164.274418 
L 208.413275 167.299298 
L 208.919827 181.757839 
L 209.238046 233.951418 
L 209.816035 172.579324 
L 210.238162 211.00164 
L 210.6473 215.685177 
L 211.049944 217.05255 
L 211.517531 201.42168 
L 211.822761 237.062533 
L 212.231899 214.082133 
L 212.699486 198.687578 
L 213.121613 210.428392 
L 213.550234 209.571481 
L 214.017821 193.887855 
L 214.888052 210.631026 
L 215.375121 189.597134 
L 215.868685 188.767004 
L 216.427191 162.741999 
L 216.959721 173.816902 
L 217.49225 171.378453 
L 218.024779 174.962513 
L 218.485872 203.734695 
L 218.998918 183.907709 
L 219.492482 196.069194 
L 219.999034 191.489787 
L 220.499092 192.137788 
L 220.992656 194.291963 
L 221.492714 192.760409 
L 221.973289 200.003818 
L 222.486336 189.836239 
L 222.9799 195.716812 
L 223.512429 184.809044 
L 224.025475 190.336994 
L 224.506051 199.295467 
L 225.019097 190.066855 
L 225.506167 196.069951 
L 226.032202 186.452058 
L 226.53226 190.122075 
L 227.038812 185.936933 
L 227.551859 180.691366 
L 228.019445 202.136394 
L 228.532492 179.286151 
L 229.052033 178.392788 
L 229.500136 205.101119 
L 229.954735 201.5541 
L 230.272953 233.670721 
L 230.701575 211.537029 
L 230.987322 240.57433 
L 231.44192 204.90222 
L 231.773127 232.141829 
L 232.208243 210.410784 
L 232.636864 211.987308 
L 233.065485 208.386347 
L 233.513589 207.029787 
L 233.968187 201.879298 
L 234.396808 210.879473 
L 234.838418 205.445568 
L 235.273534 210.216136 
L 235.715143 208.374163 
L 236.163247 202.143348 
L 236.513937 229.197094 
L 236.981524 202.217028 
L 237.507559 187.231078 
L 238.001123 195.685356 
L 238.553135 180.707178 
L 239.092158 183.473251 
L 239.631182 180.645775 
L 240.157217 187.244134 
L 240.696241 184.235964 
L 241.241758 179.947925 
L 241.767793 179.302533 
L 242.313311 183.531408 
L 242.852335 178.490313 
L 243.384864 186.004069 
L 243.930382 182.395379 
L 244.469406 184.272636 
L 245.027912 178.583962 
L 245.579924 179.355935 
L 246.118948 183.451277 
L 246.677454 178.615874 
L 247.242454 177.922356 
L 247.755501 190.704389 
L 248.255559 193.470557 
L 248.755617 193.145835 
L 249.236192 198.432024 
L 250.216826 196.010252 
L 251.262401 184.979499 
L 251.775448 189.809752 
L 252.288494 189.108509 
L 253.340565 186.43406 
L 253.886082 183.167554 
L 254.418612 185.89092 
L 254.951141 186.079479 
L 255.477176 186.546123 
L 256.022694 183.420392 
L 256.561717 183.668939 
L 257.087752 185.438699 
L 257.626776 180.825738 
L 258.055397 264.570417 
L 258.282696 252.21871 
L 258.509995 252.457268 
L 258.782754 242.473206 
L 259.010053 252.51738 
L 259.549077 240.520784 
L 259.821836 242.323456 
L 260.334882 190.55776 
L 261.419424 179.465678 
L 261.919482 193.567713 
L 262.458505 184.068561 
L 263.017012 179.838934 
L 263.569024 179.483266 
L 264.121036 181.138289 
L 264.673048 181.66262 
L 265.231554 180.603826 
L 265.783566 181.473344 
L 266.848625 186.565153 
L 267.355177 191.196206 
L 267.881212 187.03063 
L 268.394259 190.165634 
L 268.920294 186.956132 
L 269.446329 187.542308 
L 269.959376 189.635013 
L 270.478916 188.246716 
L 270.719204 248.776999 
L 271.082882 222.826535 
L 271.453055 223.73583 
L 271.797251 227.835414 
L 272.057021 245.186833 
L 272.433689 222.044182 
L 272.699953 243.852716 
L 272.979206 240.966527 
L 273.336391 226.666618 
L 273.60915 242.305696 
L 273.91438 236.084694 
L 274.427426 190.017429 
L 274.940473 190.888335 
L 276.538061 181.96573 
L 277.064096 186.76135 
L 277.570648 192.527942 
L 278.103177 180.64192 
L 278.622718 176.15975 
L 279.148753 174.299209 
L 279.668294 188.60062 
L 280.187835 176.788962 
L 280.71387 178.457899 
L 281.265882 174.164536 
L 281.791917 179.761405 
L 282.330941 177.057578 
L 282.869964 179.750448 
L 283.402493 181.064233 
L 283.928529 179.702966 
L 284.467552 170.507688 
L 284.636403 264.472241 
L 284.798759 265.58118 
L 285.305312 192.183573 
L 285.824852 188.467556 
L 286.357382 185.500806 
L 286.889911 185.980733 
L 287.42244 185.906336 
L 287.916004 195.988191 
L 288.409568 196.347949 
L 288.864166 207.422127 
L 289.325258 204.016099 
L 289.831811 192.11562 
L 290.331869 193.162867 
L 290.877387 183.994679 
L 291.383939 191.637275 
L 291.90348 189.092248 
L 292.42302 188.767366 
L 292.949055 187.228959 
L 293.468596 188.30089 
L 294.001126 185.254774 
L 294.527161 187.59966 
L 295.098656 177.298501 
L 295.351932 246.526026 
L 295.572736 253.635395 
L 295.80653 250.38991 
L 296.131243 232.039425 
L 296.365036 250.2391 
L 296.793657 255.985404 
L 297.007968 254.904163 
L 297.228773 252.858061 
L 297.456072 252.119911 
L 297.969118 190.020722 
L 298.514636 182.58251 
L 299.047166 185.976033 
L 299.560212 190.028956 
L 300.092741 185.386879 
L 300.612282 188.865414 
L 301.131823 187.764455 
L 301.677341 177.242496 
L 302.242341 174.36426 
L 302.800848 175.067944 
L 303.339871 182.164535 
L 303.813952 201.029829 
L 304.294527 198.191484 
L 304.807574 190.204198 
L 305.333609 186.720553 
L 305.866138 186.256183 
L 306.392173 187.494115 
L 306.95068 179.930632 
L 307.509186 179.005451 
L 308.054704 181.879852 
L 308.593728 183.783268 
L 309.080797 196.88154 
L 309.619821 184.419367 
L 310.132867 190.519786 
L 310.665396 186.033466 
L 311.230397 179.05131 
L 311.769421 185.882216 
L 312.308444 184.846669 
L 312.834479 188.349069 
L 313.880055 187.711535 
L 314.399596 188.487847 
L 314.958102 179.876384 
L 315.497126 183.927389 
L 316.042644 182.39605 
L 317.146668 181.402057 
L 317.679197 176.128871 
L 318.218221 178.430279 
L 318.770233 178.656523 
L 319.315751 182.003455 
L 319.861268 183.42015 
L 320.41328 182.101758 
L 320.932821 189.168463 
L 321.471845 185.09641 
L 322.010868 184.865934 
L 322.549892 184.299479 
L 323.082421 185.032151 
L 323.588974 191.832553 
L 324.127997 184.048652 
L 324.647538 189.035111 
L 325.193056 183.200055 
L 325.725585 186.422681 
L 326.264609 184.237526 
L 326.823115 180.227398 
L 327.368633 182.973918 
L 327.901162 184.857485 
L 328.453174 178.707565 
L 329.005186 180.284744 
L 329.563693 179.794885 
L 330.102716 184.367064 
L 330.628751 187.424646 
L 331.719787 180.993175 
L 332.239328 187.765448 
L 332.771857 185.360231 
L 333.323869 181.129512 
L 333.849904 187.0243 
L 334.414905 178.343409 
L 334.979905 177.696608 
L 335.525423 182.880893 
L 336.051458 186.780353 
L 336.616459 177.234604 
L 337.161977 181.874361 
L 337.701 183.163906 
L 338.246518 183.734726 
L 338.785542 184.876482 
L 339.337554 182.250808 
L 339.889566 182.365728 
L 340.435084 183.606296 
L 340.99359 179.504127 
L 341.539108 178.868766 
L 342.071637 185.032446 
L 342.610661 178.731886 
L 343.14319 184.871493 
L 343.688708 180.182618 
L 344.19526 191.949276 
L 344.721295 187.520924 
L 345.273307 181.638628 
L 345.825319 181.286059 
L 346.377331 181.439159 
L 346.935838 179.845378 
L 347.474861 183.227233 
L 348.026873 180.555553 
L 348.578886 181.641411 
L 349.137392 180.353582 
L 349.695898 180.42171 
L 350.228428 185.992522 
L 350.767451 183.598222 
L 351.338946 176.716106 
L 351.793544 205.287298 
L 352.235154 208.565499 
L 352.53389 236.947366 
L 352.969005 210.654442 
L 353.514523 249.46428 
L 353.962627 206.336725 
L 354.24188 240.857399 
L 354.664007 212.951196 
L 354.852341 260.191005 
L 355.306939 204.966968 
L 355.709583 216.824733 
L 355.904411 258.399538 
L 356.449929 184.085492 
L 356.956481 192.214821 
L 357.450045 196.160194 
L 357.956597 192.262987 
L 358.456655 193.710065 
L 358.995678 184.668041 
L 359.521713 188.071635 
L 360.03476 189.39967 
L 360.560795 186.526569 
L 361.093324 185.739294 
L 361.645336 181.420249 
L 362.190854 182.832197 
L 362.716889 186.633871 
L 363.275396 180.129558 
L 363.833902 178.922222 
L 364.385914 181.05791 
L 364.931432 182.721274 
L 365.47695 182.780498 
L 366.035456 180.362548 
L 366.57448 184.619144 
L 367.100515 178.005906 
L 367.62655 187.315286 
L 368.133102 190.992157 
L 368.672126 184.499001 
L 369.152701 199.448816 
L 369.652759 193.731509 
L 370.165805 189.458082 
L 370.555461 218.143575 
L 371.068508 189.929024 
L 371.614025 182.572291 
L 372.146555 185.584913 
L 372.698567 179.46834 
L 373.244085 182.259573 
L 373.802591 179.611992 
L 374.919604 180.640277 
L 375.47811 180.41127 
L 376.017134 183.958805 
L 376.57564 179.454453 
L 377.140641 178.419288 
L 377.647193 191.255516 
L 378.173228 175.892903 
L 378.699263 179.150223 
L 379.231792 184.638114 
L 379.757827 181.458934 
L 381.407369 180.941133 
L 381.933404 186.691699 
L 382.446451 189.863799 
L 382.985474 183.652322 
L 383.530992 182.818592 
L 384.083004 180.876626 
L 384.635016 179.538795 
L 385.732546 182.260873 
L 386.291053 180.311324 
L 386.836571 182.572238 
L 387.953583 176.707047 
L 388.505595 177.351354 
L 389.038125 185.516577 
L 389.56416 186.909522 
L 390.109677 182.984265 
L 390.648701 183.333944 
L 391.194219 182.97363 
L 391.739737 183.28368 
L 392.285255 182.544993 
L 392.739853 205.913955 
L 392.739853 205.913955 
" clip-path="url(#p43132a84f6)" style="fill: none; stroke: #1f77b4; stroke-width: 1.5; stroke-linecap: square"/>
   </g>
   <g id="line2d_16">
    <path d="M 138.716878 270.081067 
L 203.659476 233.365645 
L 268.602075 181.758968 
L 333.544674 180.360981 
L 398.487273 180.790986 
" clip-path="url(#p43132a84f6)" style="fill: none; stroke: #ff7f0e; stroke-width: 1.5; stroke-linecap: square"/>
   </g>
   <g id="line2d_17">
    <path d="M 73.839222 291.605279 
L 73.917153 292.503335 
L 73.995084 292.012138 
L 74.086003 292.404097 
L 74.189912 291.269366 
L 74.29382 287.020418 
L 74.50813 293.085194 
L 74.767901 283.512528 
L 74.90428 284.188925 
L 75.04066 289.352278 
L 75.177039 288.399489 
L 75.332901 278.829661 
L 75.417327 290.369941 
L 75.592672 278.017402 
L 75.774511 280.335662 
L 75.975833 290.833039 
L 76.060258 290.773938 
L 76.26158 288.314774 
L 76.501868 288.430801 
L 76.638248 290.668635 
L 76.787616 290.920409 
L 76.943478 281.364376 
L 77.183765 291.040813 
L 77.274685 287.110806 
L 77.586409 281.965987 
L 77.80072 278.920518 
L 77.852674 293.904258 
L 77.963077 287.99816 
L 78.047502 289.061164 
L 78.170893 288.541857 
L 78.307272 289.580851 
L 78.586526 277.364706 
L 78.976181 223.152216 
L 79.424285 283.646365 
L 79.515205 290.306174 
L 79.917849 238.089155 
L 80.028251 288.828492 
L 80.132159 287.153377 
L 80.417907 290.884048 
L 80.586758 274.185226 
L 80.677677 292.416463 
L 81.132275 275.769524 
L 81.327103 280.866992 
L 81.379057 294.032873 
L 81.456988 290.809851 
L 81.944058 210.539684 
L 82.034977 287.962472 
L 82.210323 282.226687 
L 82.45061 290.459919 
L 82.75584 266.254314 
L 82.820783 292.342883 
L 83.002622 291.385557 
L 83.177967 275.617145 
L 83.294864 291.078615 
L 83.483197 279.311138 
L 83.580611 291.570179 
L 83.911819 280.235493 
L 84.015727 289.323295 
L 84.145612 286.614332 
L 84.307968 279.920573 
L 84.489808 283.635007 
L 84.64567 291.104987 
L 84.918429 285.130555 
L 85.145728 281.89538 
L 85.379521 265.666666 
L 85.567855 272.197777 
L 85.684752 287.247703 
L 85.860097 281.531626 
L 86.204292 286.583704 
L 86.288718 292.087743 
L 86.457568 291.498189 
L 86.808259 263.876865 
L 86.88619 290.936876 
L 87.042052 290.155796 
L 87.288834 281.848615 
L 87.40573 290.64196 
L 87.522627 285.090419 
L 87.723949 289.496605 
L 87.834352 285.504352 
L 88.042168 291.624847 
L 88.269467 286.636707 
L 88.373375 290.444314 
L 88.522743 283.380507 
L 88.646134 289.404279 
L 88.737054 288.886667 
L 88.925387 290.979914 
L 89.042284 284.916118 
L 89.217629 295.488 
L 89.328031 290.154525 
L 89.431939 292.057163 
L 89.522859 290.328037 
L 89.607285 290.993085 
L 89.763147 287.769562 
L 90.081365 273.750806 
L 90.30217 282.960377 
L 90.548952 260.309562 
L 90.776251 291.12472 
L 90.971079 280.077838 
L 91.068493 291.767879 
L 91.315275 287.144547 
L 91.464643 286.834296 
L 91.691942 276.362124 
L 91.79585 287.179265 
L 91.945218 285.023091 
L 92.179011 280.022379 
L 92.529701 291.929983 
L 92.63361 289.680077 
L 92.750506 293.622012 
L 92.841426 289.308562 
L 93.003782 286.951788 
L 93.146656 287.478888 
L 93.432404 289.912744 
L 93.666197 282.35623 
L 93.809071 282.687814 
L 93.997404 285.333997 
L 94.231198 292.13399 
L 94.309129 290.535515 
L 94.594876 257.966096 
L 94.731256 290.24143 
L 94.854646 291.300495 
L 94.991026 285.273166 
L 95.153382 286.365631 
L 95.218325 292.738542 
L 95.445624 286.320132 
L 95.646946 274.236383 
L 95.906717 291.768417 
L 95.991142 291.698987 
L 96.101544 289.66578 
L 96.270395 279.765852 
L 96.406775 291.876707 
L 96.510683 286.684622 
L 96.627579 290.285948 
L 96.744476 288.016064 
L 96.880856 281.905089 
L 96.965281 289.934397 
L 97.140626 286.60249 
L 97.640684 199.194428 
L 97.880972 291.755311 
L 98.043328 294.199429 
L 98.134248 288.028162 
L 98.277121 289.170973 
L 98.543386 289.522794 
L 98.68626 288.429033 
L 98.816145 285.399257 
L 98.94603 289.86794 
L 99.166835 271.612673 
L 99.549996 286.867591 
L 99.848732 268.87254 
L 99.9981 290.55878 
L 100.076031 290.546975 
L 100.277353 285.967778 
L 100.615055 291.002669 
L 100.939768 279.541972 
L 101.037182 289.318723 
L 101.173561 286.1281 
L 101.355401 285.490497 
L 101.433332 290.620081 
L 101.543734 287.58989 
L 101.712585 279.818307 
L 102.108735 288.117511 
L 102.323045 290.098805 
L 102.472413 285.864128 
L 102.68023 291.473952 
L 102.84908 284.039349 
L 102.914023 293.738629 
L 103.004943 290.469533 
L 103.173793 292.233532 
L 103.511495 287.531876 
L 103.959599 269.592839 
L 104.225863 288.550041 
L 104.660979 214.944495 
L 104.836324 292.164591 
L 105.122071 269.346432 
L 105.375347 286.005962 
L 105.57667 286.998903 
L 105.648106 292.08325 
L 105.83644 290.363752 
L 106.024773 277.995043 
L 106.18713 282.508662 
L 106.427418 283.703391 
L 106.648222 290.301459 
L 106.869027 287.94109 
L 107.401557 240.029655 
L 107.485982 290.78599 
L 107.661327 285.506225 
L 107.992534 244.132795 
L 108.089948 291.435899 
L 108.492592 277.541296 
L 108.622477 282.491484 
L 108.706903 290.671535 
L 108.960179 290.131228 
L 109.447248 235.427983 
L 109.596616 287.572007 
L 109.791444 289.893793 
L 109.869375 292.339847 
L 109.986272 291.718914 
L 110.096674 290.465547 
L 110.278514 272.01269 
L 110.479836 291.241416 
L 110.570755 288.790755 
L 110.772077 279.662474 
L 111.025354 279.888449 
L 111.14225 291.610937 
L 111.32409 289.617354 
L 111.395526 290.943861 
L 111.525412 286.537269 
L 111.863113 288.931402 
L 112.187826 264.831382 
L 112.350183 287.764106 
L 112.519033 279.274577 
L 112.616447 290.403383 
L 112.798287 278.917141 
L 112.889206 290.288007 
L 113.051563 284.376783 
L 113.389264 293.005735 
L 113.506161 290.385929 
L 113.817885 276.490374 
L 114.019207 270.545457 
L 114.155587 292.491314 
L 114.233518 290.760716 
L 114.350415 285.983216 
L 114.43484 292.880458 
L 114.649151 290.811016 
L 114.805013 279.394266 
L 114.895932 290.834479 
L 115.149209 283.663474 
L 115.259611 293.281111 
L 115.415473 279.266753 
L 115.714209 276.16991 
L 115.798635 290.796283 
L 115.980474 281.461242 
L 116.110359 290.965219 
L 116.350647 284.458602 
L 116.623406 292.441805 
L 116.824728 283.332917 
L 116.967601 292.03093 
L 117.207889 286.756326 
L 117.305303 289.362395 
L 117.558579 282.195187 
L 117.740418 275.258123 
L 117.883292 289.573094 
L 118.065131 285.720477 
L 118.233982 293.258531 
L 118.318407 291.660062 
L 118.454787 283.440479 
L 118.610649 285.681721 
L 118.798983 279.201746 
L 118.99381 290.390511 
L 119.13019 290.031822 
L 119.350995 281.740204 
L 119.487374 283.826567 
L 119.682202 283.429344 
L 119.812087 282.771578 
L 120.013409 291.611269 
L 120.117317 288.868296 
L 120.208237 291.528834 
L 120.292662 290.76454 
L 120.409559 287.562785 
L 120.57841 290.001393 
L 120.708295 287.798468 
L 120.766743 292.769815 
L 120.935594 293.821542 
L 120.987548 293.537431 
L 121.104445 288.190073 
L 121.169388 291.960562 
L 121.286284 286.508371 
L 121.422664 285.571985 
L 121.649963 291.723122 
L 121.831802 271.563018 
L 121.98117 279.447226 
L 122.156515 275.624655 
L 122.318872 290.260961 
L 122.559159 264.655963 
L 122.68255 288.914075 
L 123.046229 251.691777 
L 123.254045 290.485889 
L 123.377436 288.682737 
L 123.851517 208.284852 
L 124.241172 249.22658 
L 124.410023 287.177297 
L 124.578874 280.438045 
L 124.825656 292.569657 
L 124.916575 288.823335 
L 125.195829 271.081382 
L 125.260771 292.78152 
L 125.630944 257.149654 
L 125.825772 291.524032 
L 125.92968 290.343992 
L 126.111519 283.361854 
L 126.384278 256.312014 
L 126.501175 290.659817 
L 126.637554 289.589707 
L 126.793417 291.997066 
L 126.864853 291.353147 
L 127.040198 273.301372 
L 127.11813 291.072026 
L 127.202555 289.746938 
L 127.416866 281.936951 
L 127.514279 290.413729 
L 127.644165 287.934833 
L 128.254625 179.058311 
L 128.527384 267.53348 
L 128.800143 259.775115 
L 128.994971 275.991596 
L 129.248247 281.260118 
L 129.345661 288.178171 
L 129.508017 290.857129 
L 129.722328 286.452294 
L 129.793765 290.566022 
L 129.962615 288.649883 
L 130.111983 288.512641 
L 130.18342 292.660774 
L 130.300317 288.933672 
L 130.469168 289.999987 
L 130.865318 234.878546 
L 131.125088 291.934902 
L 131.300433 292.239202 
L 131.566698 284.79487 
L 131.761525 286.457193 
L 131.878422 291.027348 
L 132.534342 150.362089 
L 132.664227 288.811677 
L 132.917504 274.549348 
L 133.112331 291.272527 
L 133.300665 292.285991 
L 133.378596 290.645505 
L 133.437044 293.247964 
L 133.560435 284.858571 
L 133.683826 292.479827 
L 133.911125 287.126912 
L 134.008539 291.413509 
L 134.151413 286.55319 
L 134.495609 291.942539 
L 134.644977 280.979125 
L 134.722908 290.458811 
L 134.976184 279.493057 
L 135.080092 288.859503 
L 135.255437 284.71614 
L 135.307391 293.448492 
L 135.450265 287.34246 
L 135.541185 289.077319 
L 135.645093 288.332371 
L 135.723024 290.603227 
L 135.800955 290.397451 
L 135.93084 285.53098 
L 135.989289 293.730237 
L 136.203599 284.37583 
L 136.424404 271.586612 
L 136.619232 290.236964 
L 136.794577 274.196391 
L 137.015382 275.759415 
L 137.093313 290.991421 
L 137.190727 288.980367 
L 137.46998 277.381441 
L 137.801187 291.538945 
L 138.009003 270.615163 
L 138.138889 285.83775 
L 138.320728 277.600627 
L 138.651935 293.318451 
L 138.723372 292.230354 
L 138.87274 291.775378 
L 138.950671 291.813347 
L 139.229924 285.178732 
L 139.333832 289.777165 
L 139.587109 285.020427 
L 139.83389 274.305181 
L 139.911822 291.90836 
L 140.080672 288.447615 
L 140.36642 292.63693 
L 140.431362 292.538692 
L 140.743087 288.409492 
L 140.801535 293.474415 
L 140.918432 286.723391 
L 141.009351 291.760432 
L 141.080788 290.900093 
L 141.269122 289.738703 
L 141.37303 291.720418 
L 142.022456 279.14809 
L 142.113376 289.343675 
L 142.37964 261.418293 
L 142.567974 292.790042 
L 142.678376 287.705832 
L 143.132974 260.820507 
L 143.379756 290.462978 
L 143.516136 288.968452 
L 143.626538 292.373345 
L 143.860332 283.600192 
L 143.925274 291.821053 
L 144.139585 288.035186 
L 144.191539 293.230606 
L 144.262976 291.351741 
L 144.366884 290.872943 
L 144.457803 291.928798 
L 144.724068 272.179458 
L 145.003321 276.104021 
L 145.126712 294.2009 
L 145.211138 292.023757 
L 145.289069 290.132645 
L 145.373494 291.181414 
L 145.431942 293.648107 
L 145.795621 283.981976 
L 146.11384 248.983697 
L 146.46453 290.049131 
L 146.756771 277.194442 
L 146.828208 290.390592 
L 147.02953 272.648838 
L 147.152921 285.627898 
L 147.652979 242.208402 
L 148.023152 251.896258 
L 148.26344 292.56396 
L 148.438785 284.979294 
L 148.555681 284.826443 
L 148.886889 287.508546 
L 148.990797 289.870744 
L 149.347981 269.165725 
L 149.503843 293.433127 
L 150.010396 253.751699 
L 150.088327 290.127608 
L 150.374074 279.935722 
L 150.516948 287.532424 
L 150.659822 287.71671 
L 150.776718 288.280584 
L 151.185857 284.934665 
L 151.257294 291.065048 
L 151.413156 286.300311 
L 151.491087 289.702038 
L 151.620972 288.62843 
L 152.354823 171.578438 
L 152.536663 275.773288 
L 152.783445 284.356929 
L 152.971778 278.944411 
L 153.205571 286.539265 
L 153.52379 240.164014 
L 153.673158 280.024782 
L 153.913446 292.866191 
L 154.140745 262.84673 
L 154.303101 281.842358 
L 154.458964 277.787707 
L 154.523906 292.020469 
L 154.66678 291.78087 
L 154.790171 289.66512 
L 155.023964 282.653633 
L 155.186321 287.083919 
L 155.420114 281.811386 
L 155.549999 283.913011 
L 155.939655 237.212158 
L 156.102011 287.075706 
L 156.244885 288.703709 
L 156.524138 246.630984 
L 156.731955 274.41626 
L 157.043679 244.331524 
L 157.277472 290.634022 
L 157.582703 250.127536 
L 157.874944 247.595503 
L 158.147703 250.785305 
L 158.381497 257.982927 
L 158.810118 293.606292 
L 159.160808 230.235363 
L 159.440061 248.706158 
L 159.686843 254.944752 
L 159.784257 289.64338 
L 160.50512 226.119535 
L 160.985695 256.572226 
L 161.453282 225.733961 
L 161.894891 229.576022 
L 162.128685 257.457692 
L 162.394949 251.754624 
L 162.65472 253.468666 
L 162.856042 282.369131 
L 163.317134 221.784974 
L 163.901617 216.9547 
L 164.180871 248.173394 
L 164.596503 217.264877 
L 164.940699 274.435376 
L 165.297883 232.450115 
L 165.5057 262.667686 
L 165.72001 260.622632 
L 166.02524 240.575041 
L 166.356448 278.294779 
L 166.544781 265.134029 
L 167.47346 183.06449 
L 167.778691 244.106034 
L 168.181335 236.13573 
L 168.415128 255.988343 
L 168.934669 219.363751 
L 169.278865 248.353219 
L 170.045187 203.036932 
L 170.733579 241.322771 
L 171.246625 232.186012 
L 171.376511 282.057805 
L 171.694729 283.03103 
L 172.064902 240.538268 
L 172.500018 234.789935 
L 172.863696 269.934201 
L 173.415708 245.236316 
L 173.876801 237.407653 
L 174.285939 269.021894 
L 174.591169 251.685999 
L 175.045767 259.203279 
L 175.344503 243.779107 
L 175.55232 262.278611 
L 175.734159 266.297623 
L 176.390079 211.530666 
L 176.922609 230.512441 
L 177.507092 239.915209 
L 177.74738 257.120958 
L 177.96169 259.371713 
L 178.260426 243.027012 
L 178.487725 258.059118 
L 178.812438 236.210269 
L 179.05922 255.565807 
L 179.422899 229.49453 
L 180.195716 262.324949 
L 180.403532 262.686679 
L 180.721751 237.695085 
L 180.968532 254.006556 
L 181.189337 258.516053 
L 181.845258 239.913693 
L 182.118016 248.795717 
L 182.312844 264.208111 
L 182.533649 259.703674 
L 182.910316 226.057167 
L 183.35842 268.744098 
L 183.631179 249.446031 
L 183.819513 265.287403 
L 184.053306 256.023788 
L 184.371525 251.191485 
L 184.76118 254.728252 
L 184.956008 263.343316 
L 185.287215 236.415384 
L 185.6444 232.443392 
L 186.027561 237.947605 
L 186.183423 269.929463 
L 186.495148 249.734402 
L 186.69647 263.387584 
L 187.131585 212.14808 
L 187.469287 232.731311 
L 187.690091 259.95741 
L 188.475897 159.493396 
L 189.333139 190.26159 
L 189.534461 263.342182 
L 189.729289 264.56063 
L 189.924117 263.959853 
L 190.430669 245.498563 
L 190.683945 254.068105 
L 191.151532 209.125832 
L 191.404808 253.031332 
L 191.943832 175.369933 
L 192.534809 160.107273 
L 193.125787 160.569686 
L 193.346592 258.154724 
L 193.547914 262.067432 
L 194.177857 165.72285 
L 194.775329 164.390873 
L 195.379295 159.171223 
L 195.652054 248.268804 
L 195.963778 240.993765 
L 196.567745 173.713569 
L 196.769067 260.851085 
L 197.327573 170.965654 
L 197.912056 171.205068 
L 198.548494 155.783916 
L 198.93815 223.069986 
L 199.451196 193.808026 
L 199.840852 223.295857 
L 200.399358 174.290036 
L 200.672117 248.475953 
L 201.269589 239.12377 
L 201.821601 171.763122 
L 202.146314 238.728888 
L 202.477521 235.815454 
L 202.711315 254.749611 
L 203.14643 213.42635 
L 203.58804 266.817229 
L 204.133557 175.809198 
L 204.672581 179.132132 
L 205.211605 179.642824 
L 205.776605 169.27113 
L 206.309134 181.469508 
L 206.841664 183.106044 
L 207.374193 180.202769 
L 207.932699 171.455982 
L 208.471723 177.920277 
L 209.043218 173.090412 
L 209.588736 175.827089 
L 210.147242 179.712548 
L 210.686266 176.114239 
L 211.231783 185.344406 
L 211.796784 177.952249 
L 212.043566 251.172092 
L 212.381267 232.897682 
L 212.576095 261.55526 
L 213.121613 172.838855 
L 213.290464 266.9113 
L 213.615177 236.504648 
L 213.835982 256.673155 
L 214.3815 178.451703 
L 214.602304 258.13995 
L 215.160811 173.139698 
L 215.732306 168.987017 
L 216.011559 247.598875 
L 216.589548 172.027091 
L 216.777881 263.069018 
L 217.355871 178.705835 
L 217.894894 181.111729 
L 218.154664 248.35389 
L 218.693688 178.593303 
L 219.239206 174.227802 
L 219.771735 189.423421 
L 220.310759 180.230322 
L 220.849782 181.371923 
L 221.3953 179.007027 
L 221.947312 179.260281 
L 222.505819 181.522723 
L 223.051336 181.418821 
L 223.609843 181.778854 
L 224.700878 182.031048 
L 225.239902 185.954682 
L 225.467201 255.40755 
L 226.019213 178.077682 
L 226.571225 178.692451 
L 227.116743 177.22926 
L 227.662261 179.139374 
L 228.220767 178.967417 
L 228.779274 182.928502 
L 229.33778 183.998387 
L 229.889792 183.073978 
L 230.454793 180.103192 
L 231.000311 182.633385 
L 231.545828 183.66914 
L 232.669335 182.119669 
L 233.234336 181.269422 
L 233.786348 183.332348 
L 234.331866 180.786799 
L 235.416407 181.680343 
L 235.961925 179.34302 
L 236.500949 179.007671 
L 237.046466 180.910992 
L 237.221811 264.721518 
L 237.773824 185.431739 
L 238.338824 181.153866 
L 238.910319 180.557001 
L 239.468825 183.276384 
L 239.728596 249.032559 
L 239.955895 255.062914 
L 240.183194 255.438334 
L 240.410493 255.262798 
L 240.637792 255.647688 
L 240.87808 252.789417 
L 241.111873 254.070473 
L 241.365149 249.246629 
L 241.598943 254.421708 
L 241.852219 250.358018 
L 242.099001 251.444357 
L 242.261357 267.570652 
L 242.800381 178.007368 
L 243.352393 177.89835 
L 243.897911 179.338977 
L 244.456417 179.924322 
L 245.008429 183.104837 
L 245.560441 182.697879 
L 246.112453 181.280185 
L 246.67096 183.293436 
L 247.196995 182.693473 
L 247.736018 179.718704 
L 248.275042 179.339131 
L 248.814065 178.775519 
L 249.359583 173.850704 
L 249.892113 177.909146 
L 250.431136 176.654999 
L 250.976654 174.116055 
L 251.515677 179.570706 
L 252.080678 167.939118 
L 252.626196 178.683774 
L 253.178208 178.644513 
L 253.73022 180.865462 
L 254.288726 181.146477 
L 254.840739 182.026884 
L 255.373268 187.128135 
L 255.918786 186.910843 
L 256.477292 181.654775 
L 257.029304 183.683805 
L 257.581316 183.004656 
L 258.133328 180.600835 
L 258.678846 180.207221 
L 259.21787 176.947018 
L 259.763388 182.074903 
L 260.302411 180.404571 
L 260.860917 180.850998 
L 261.41293 180.853439 
L 261.964942 181.025884 
L 262.510459 180.819683 
L 263.068966 179.858159 
L 263.627472 180.903911 
L 264.192473 180.564377 
L 264.737991 183.211924 
L 265.296497 181.528664 
L 265.855003 183.498545 
L 266.420004 181.541063 
L 266.985005 181.382444 
L 267.550005 181.44624 
L 268.115006 182.362335 
L 268.680006 182.433018 
L 269.245007 181.784124 
L 270.36202 181.639406 
L 270.920526 179.82901 
L 271.479032 182.313163 
L 272.031044 181.723212 
L 272.596045 180.952781 
L 273.154551 181.317715 
L 273.713058 183.53969 
L 274.271564 181.798957 
L 274.823576 181.257332 
L 275.388577 182.224556 
L 275.953577 181.288278 
L 276.512084 181.482591 
L 277.07059 182.503305 
L 277.629096 180.947551 
L 278.174614 179.769471 
L 278.733121 178.977751 
L 279.291627 181.715165 
L 280.40864 182.33802 
L 280.967146 182.015311 
L 281.519158 186.218357 
L 282.077664 184.032431 
L 282.636171 182.378837 
L 283.194677 181.987074 
L 284.87669 183.106164 
L 285.441691 181.284288 
L 286.565198 182.349199 
L 287.11721 184.586931 
L 287.662728 180.172862 
L 288.208246 179.661962 
L 288.760258 179.537065 
L 289.31227 181.472767 
L 289.870776 182.838319 
L 290.429283 181.790951 
L 290.987789 183.481271 
L 291.55279 181.813139 
L 292.11779 181.301796 
L 292.682791 179.504295 
L 293.247791 180.450993 
L 293.806298 180.16509 
L 294.371298 181.453281 
L 294.929805 182.203105 
L 295.488311 181.570064 
L 296.046817 179.8677 
L 296.618312 179.735877 
L 297.183313 181.355347 
L 297.748314 181.578332 
L 298.30682 178.81028 
L 298.839349 189.745869 
L 299.391361 184.425858 
L 299.75504 229.127852 
L 300.313546 182.719176 
L 300.664236 231.240567 
L 301.229237 182.091693 
L 301.807226 181.306249 
L 302.333261 192.608764 
L 302.833319 198.309816 
L 303.281423 211.435387 
L 303.807458 193.767786 
L 304.391941 178.099355 
L 304.969931 178.488449 
L 305.521943 189.575106 
L 306.060966 191.398887 
L 306.606484 189.830975 
L 307.139013 193.47792 
L 307.691025 188.00584 
L 308.236543 186.355994 
L 308.554762 239.431292 
L 308.859992 241.662815 
L 309.197694 235.141972 
L 309.775683 176.469987 
L 310.334189 180.312853 
L 310.912178 179.267456 
L 311.496662 178.985791 
L 311.879823 225.969539 
L 312.457812 178.033325 
L 313.04879 178.170809 
L 313.594308 182.00599 
L 314.152814 179.191731 
L 314.71132 180.580309 
L 315.276321 179.222107 
L 315.834827 180.793223 
L 316.399828 181.320418 
L 316.958334 182.042039 
L 317.516841 181.975782 
L 318.068853 182.041281 
L 318.633853 179.184026 
L 318.887129 250.447856 
L 319.198854 240.359067 
L 319.783337 178.354828 
L 320.374315 173.263951 
L 320.939316 180.542665 
L 321.543282 165.949269 
L 322.095294 182.274184 
L 322.6538 179.965454 
L 323.244778 178.046321 
L 323.803284 179.217097 
L 324.387768 175.103201 
L 324.998228 171.881327 
L 325.556734 175.590994 
L 326.147712 167.671447 
L 326.745184 163.073057 
L 327.342656 159.556784 
L 327.920645 169.668525 
L 328.108978 263.093095 
L 328.693462 170.519094 
L 329.271451 173.43643 
L 329.888406 155.624781 
L 330.089728 260.610729 
L 330.446912 230.332016 
L 330.654728 259.607687 
L 330.836568 264.23745 
L 331.180763 232.366618 
L 331.804212 148.718995 
L 332.382201 163.009757 
L 332.973179 157.492845 
L 333.596628 145.288445 
L 334.207088 149.749238 
L 335.369561 178.803394 
L 335.928067 180.040971 
L 336.493068 179.500392 
L 337.051574 180.333365 
L 337.610081 181.732365 
L 338.175081 179.401224 
L 338.740082 178.247097 
L 339.305082 181.145759 
L 339.870083 181.562547 
L 340.428589 181.540359 
L 340.980602 181.189197 
L 341.545602 181.101959 
L 342.233994 136.239655 
L 342.824971 170.60534 
L 343.415949 169.087264 
L 344.006927 165.858476 
L 344.383594 226.383411 
L 345.000548 162.009307 
L 345.623997 155.808727 
L 346.240952 155.073172 
L 346.838424 164.783092 
L 347.383942 187.072037 
L 347.935954 184.962862 
L 348.546414 159.111483 
L 349.143886 163.486815 
L 349.767335 156.820348 
L 350.38429 155.939277 
L 351.001245 157.764164 
L 351.618199 158.54195 
L 352.241648 154.817296 
L 352.819637 173.257467 
L 353.462569 149.161747 
L 354.105501 153.345387 
L 354.709467 168.240183 
L 354.878318 267.562406 
L 355.03418 269.78224 
L 355.196536 268.470008 
L 355.352399 269.760127 
L 355.729066 226.675456 
L 356.183664 210.523859 
L 356.4824 240.817175 
L 356.820101 234.4611 
L 356.982458 268.291854 
L 357.560447 171.244805 
L 358.131942 177.33915 
L 358.742402 167.344513 
L 359.37884 173.854479 
L 359.976312 169.409598 
L 360.606255 159.807979 
L 361.229704 146.834073 
L 361.853153 147.846567 
L 362.496084 146.036197 
L 363.152005 135.96499 
L 363.801431 144.871529 
L 364.463845 140.36821 
L 365.054823 168.37556 
L 365.808157 135.230152 
L 366.990112 181.793479 
L 367.860343 63.109759 
L 368.730574 68.5338 
L 369.620288 58.120296 
L 370.347645 131.327876 
L 371.075002 124.171994 
L 371.698451 156.679888 
L 372.412819 132.986204 
L 373.140176 128.885652 
L 373.848051 130.876896 
L 374.646845 114.488138 
L 375.159891 188.538815 
L 375.698915 180.163903 
L 376.27041 175.43955 
L 376.809433 180.748524 
L 377.62771 93.972682 
L 378.471964 86.366947 
L 379.088918 152.566595 
L 379.699379 153.270648 
L 380.303345 154.855967 
L 380.881334 165.846373 
L 381.465818 174.152218 
L 382.115244 147.504726 
L 382.758175 163.909685 
L 383.42059 154.897239 
L 384.07651 156.666973 
L 384.764902 137.915706 
L 385.550707 86.035695 
L 386.375478 73.472328 
L 387.180766 92.238266 
L 387.908123 134.393411 
L 388.700423 109.699472 
L 389.492723 121.228774 
L 390.395425 53.568 
L 390.927954 189.026622 
L 391.817668 56.179485 
L 391.817668 56.179485 
" clip-path="url(#p43132a84f6)" style="fill: none; stroke: #2ca02c; stroke-width: 1.5; stroke-linecap: square"/>
   </g>
   <g id="patch_3">
    <path d="M 57.6 307.584 
L 57.6 41.472 
" style="fill: none; stroke: #000000; stroke-width: 0.8; stroke-linejoin: miter; stroke-linecap: square"/>
   </g>
   <g id="patch_4">
    <path d="M 414.72 307.584 
L 414.72 41.472 
" style="fill: none; stroke: #000000; stroke-width: 0.8; stroke-linejoin: miter; stroke-linecap: square"/>
   </g>
   <g id="patch_5">
    <path d="M 57.6 307.584 
L 414.72 307.584 
" style="fill: none; stroke: #000000; stroke-width: 0.8; stroke-linejoin: miter; stroke-linecap: square"/>
   </g>
   <g id="patch_6">
    <path d="M 57.6 41.472 
L 414.72 41.472 
" style="fill: none; stroke: #000000; stroke-width: 0.8; stroke-linejoin: miter; stroke-linecap: square"/>
   </g>
   <g id="text_17">
    <!-- learning curve -->
    <g transform="translate(192.96375 35.472) scale(0.12 -0.12)">
     <defs>
      <path id="DejaVuSans-6c" d="M 603 4863 
L 1178 4863 
L 1178 0 
L 603 0 
L 603 4863 
z
" transform="scale(0.015625)"/>
      <path id="DejaVuSans-67" d="M 2906 1791 
Q 2906 2416 2648 2759 
Q 2391 3103 1925 3103 
Q 1463 3103 1205 2759 
Q 947 2416 947 1791 
Q 947 1169 1205 825 
Q 1463 481 1925 481 
Q 2391 481 2648 825 
Q 2906 1169 2906 1791 
z
M 3481 434 
Q 3481 -459 3084 -895 
Q 2688 -1331 1869 -1331 
Q 1566 -1331 1297 -1286 
Q 1028 -1241 775 -1147 
L 775 -588 
Q 1028 -725 1275 -790 
Q 1522 -856 1778 -856 
Q 2344 -856 2625 -561 
Q 2906 -266 2906 331 
L 2906 616 
Q 2728 306 2450 153 
Q 2172 0 1784 0 
Q 1141 0 747 490 
Q 353 981 353 1791 
Q 353 2603 747 3093 
Q 1141 3584 1784 3584 
Q 2172 3584 2450 3431 
Q 2728 3278 2906 2969 
L 2906 3500 
L 3481 3500 
L 3481 434 
z
" transform="scale(0.015625)"/>
      <path id="DejaVuSans-63" d="M 3122 3366 
L 3122 2828 
Q 2878 2963 2633 3030 
Q 2388 3097 2138 3097 
Q 1578 3097 1268 2742 
Q 959 2388 959 1747 
Q 959 1106 1268 751 
Q 1578 397 2138 397 
Q 2388 397 2633 464 
Q 2878 531 3122 666 
L 3122 134 
Q 2881 22 2623 -34 
Q 2366 -91 2075 -91 
Q 1284 -91 818 406 
Q 353 903 353 1747 
Q 353 2603 823 3093 
Q 1294 3584 2113 3584 
Q 2378 3584 2631 3529 
Q 2884 3475 3122 3366 
z
" transform="scale(0.015625)"/>
      <path id="DejaVuSans-75" d="M 544 1381 
L 544 3500 
L 1119 3500 
L 1119 1403 
Q 1119 906 1312 657 
Q 1506 409 1894 409 
Q 2359 409 2629 706 
Q 2900 1003 2900 1516 
L 2900 3500 
L 3475 3500 
L 3475 0 
L 2900 0 
L 2900 538 
Q 2691 219 2414 64 
Q 2138 -91 1772 -91 
Q 1169 -91 856 284 
Q 544 659 544 1381 
z
M 1991 3584 
L 1991 3584 
z
" transform="scale(0.015625)"/>
      <path id="DejaVuSans-76" d="M 191 3500 
L 800 3500 
L 1894 563 
L 2988 3500 
L 3597 3500 
L 2284 0 
L 1503 0 
L 191 3500 
z
" transform="scale(0.015625)"/>
     </defs>
     <use xlink:href="#DejaVuSans-6c"/>
     <use xlink:href="#DejaVuSans-65" x="27.783203"/>
     <use xlink:href="#DejaVuSans-61" x="89.306641"/>
     <use xlink:href="#DejaVuSans-72" x="150.585938"/>
     <use xlink:href="#DejaVuSans-6e" x="189.949219"/>
     <use xlink:href="#DejaVuSans-69" x="253.328125"/>
     <use xlink:href="#DejaVuSans-6e" x="281.111328"/>
     <use xlink:href="#DejaVuSans-67" x="344.490234"/>
     <use xlink:href="#DejaVuSans-20" x="407.966797"/>
     <use xlink:href="#DejaVuSans-63" x="439.753906"/>
     <use xlink:href="#DejaVuSans-75" x="494.734375"/>
     <use xlink:href="#DejaVuSans-72" x="558.113281"/>
     <use xlink:href="#DejaVuSans-76" x="599.226562"/>
     <use xlink:href="#DejaVuSans-65" x="658.40625"/>
    </g>
   </g>
   <g id="legend_1">
    <g id="patch_7">
     <path d="M 64.6 93.506375 
L 166.614062 93.506375 
Q 168.614062 93.506375 168.614062 91.506375 
L 168.614062 48.472 
Q 168.614062 46.472 166.614062 46.472 
L 64.6 46.472 
Q 62.6 46.472 62.6 48.472 
L 62.6 91.506375 
Q 62.6 93.506375 64.6 93.506375 
z
" style="fill: #ffffff; opacity: 0.8; stroke: #cccccc; stroke-linejoin: miter"/>
    </g>
    <g id="line2d_18">
     <path d="M 66.6 54.570438 
L 76.6 54.570438 
L 86.6 54.570438 
" style="fill: none; stroke: #1f77b4; stroke-width: 1.5; stroke-linecap: square"/>
    </g>
    <g id="text_18">
     <!-- source-source -->
     <g transform="translate(94.6 58.070438) scale(0.1 -0.1)">
      <defs>
       <path id="DejaVuSans-2d" d="M 313 2009 
L 1997 2009 
L 1997 1497 
L 313 1497 
L 313 2009 
z
" transform="scale(0.015625)"/>
      </defs>
      <use xlink:href="#DejaVuSans-73"/>
      <use xlink:href="#DejaVuSans-6f" x="52.099609"/>
      <use xlink:href="#DejaVuSans-75" x="113.28125"/>
      <use xlink:href="#DejaVuSans-72" x="176.660156"/>
      <use xlink:href="#DejaVuSans-63" x="215.523438"/>
      <use xlink:href="#DejaVuSans-65" x="270.503906"/>
      <use xlink:href="#DejaVuSans-2d" x="332.027344"/>
      <use xlink:href="#DejaVuSans-73" x="368.111328"/>
      <use xlink:href="#DejaVuSans-6f" x="420.210938"/>
      <use xlink:href="#DejaVuSans-75" x="481.392578"/>
      <use xlink:href="#DejaVuSans-72" x="544.771484"/>
      <use xlink:href="#DejaVuSans-63" x="583.634766"/>
      <use xlink:href="#DejaVuSans-65" x="638.615234"/>
     </g>
    </g>
    <g id="line2d_19">
     <path d="M 66.6 69.248563 
L 76.6 69.248563 
L 86.6 69.248563 
" style="fill: none; stroke: #ff7f0e; stroke-width: 1.5; stroke-linecap: square"/>
    </g>
    <g id="text_19">
     <!-- source-target -->
     <g transform="translate(94.6 72.748563) scale(0.1 -0.1)">
      <use xlink:href="#DejaVuSans-73"/>
      <use xlink:href="#DejaVuSans-6f" x="52.099609"/>
      <use xlink:href="#DejaVuSans-75" x="113.28125"/>
      <use xlink:href="#DejaVuSans-72" x="176.660156"/>
      <use xlink:href="#DejaVuSans-63" x="215.523438"/>
      <use xlink:href="#DejaVuSans-65" x="270.503906"/>
      <use xlink:href="#DejaVuSans-2d" x="332.027344"/>
      <use xlink:href="#DejaVuSans-74" x="368.111328"/>
      <use xlink:href="#DejaVuSans-61" x="407.320312"/>
      <use xlink:href="#DejaVuSans-72" x="468.599609"/>
      <use xlink:href="#DejaVuSans-67" x="507.962891"/>
      <use xlink:href="#DejaVuSans-65" x="571.439453"/>
      <use xlink:href="#DejaVuSans-74" x="632.962891"/>
     </g>
    </g>
    <g id="line2d_20">
     <path d="M 66.6 83.926688 
L 76.6 83.926688 
L 86.6 83.926688 
" style="fill: none; stroke: #2ca02c; stroke-width: 1.5; stroke-linecap: square"/>
    </g>
    <g id="text_20">
     <!-- target-target -->
     <g transform="translate(94.6 87.426688) scale(0.1 -0.1)">
      <use xlink:href="#DejaVuSans-74"/>
      <use xlink:href="#DejaVuSans-61" x="39.208984"/>
      <use xlink:href="#DejaVuSans-72" x="100.488281"/>
      <use xlink:href="#DejaVuSans-67" x="139.851562"/>
      <use xlink:href="#DejaVuSans-65" x="203.328125"/>
      <use xlink:href="#DejaVuSans-74" x="264.851562"/>
      <use xlink:href="#DejaVuSans-2d" x="304.060547"/>
      <use xlink:href="#DejaVuSans-74" x="340.144531"/>
      <use xlink:href="#DejaVuSans-61" x="379.353516"/>
      <use xlink:href="#DejaVuSans-72" x="440.632812"/>
      <use xlink:href="#DejaVuSans-67" x="479.996094"/>
      <use xlink:href="#DejaVuSans-65" x="543.472656"/>
      <use xlink:href="#DejaVuSans-74" x="604.996094"/>
     </g>
    </g>
   </g>
  </g>
 </g>
 <defs>
  <clipPath id="p43132a84f6">
   <rect x="57.6" y="41.472" width="357.12" height="266.112"/>
  </clipPath>
 </defs>
</svg>
