<?xml version="1.0" encoding="utf-8" standalone="no"?>
<!DOCTYPE svg PUBLIC "-//W3C//DTD SVG 1.1//EN"
  "http://www.w3.org/Graphics/SVG/1.1/DTD/svg11.dtd">
<svg xmlns:xlink="http://www.w3.org/1999/xlink" width="460.8pt" height="345.6pt" viewBox="0 0 460.8 345.6" xmlns="http://www.w3.org/2000/svg" version="1.1">
 <metadata>
  <rdf:RDF xmlns:dc="http://purl.org/dc/elements/1.1/" xmlns:cc="http://creativecommons.org/ns#" xmlns:rdf="http://www.w3.org/1999/02/22-rdf-syntax-ns#">
   <cc:Work>
    <dc:type rdf:resource="http://purl.org/dc/dcmitype/StillImage"/>
    <dc:date>2023-08-18T16:01:20.539312</dc:date>
    <dc:format>image/svg+xml</dc:format>
    <dc:creator>
     <cc:Agent>
      <dc:title>Matplotlib v3.7.1, https://matplotlib.org/</dc:title>
     </cc:Agent>
    </dc:creator>
   </cc:Work>
  </rdf:RDF>
 </metadata>
 <defs>
  <style type="text/css">*{stroke-linejoin: round; stroke-linecap: butt}</style>
 </defs>
 <g id="figure_1">
  <g id="patch_1">
   <path d="M 0 345.6 
L 460.8 345.6 
L 460.8 0 
L 0 0 
z
" style="fill: #ffffff"/>
  </g>
  <g id="axes_1">
   <g id="patch_2">
    <path d="M 57.6 307.584 
L 414.72 307.584 
L 414.72 41.472 
L 57.6 41.472 
z
" style="fill: #ffffff"/>
   </g>
   <g id="matplotlib.axis_1">
    <g id="xtick_1">
     <g id="line2d_1">
      <defs>
       <path id="md13c0f1e08" d="M 0 0 
L 0 3.5 
" style="stroke: #000000; stroke-width: 0.8"/>
      </defs>
      <g>
       <use xlink:href="#md13c0f1e08" x="73.780774" y="307.584" style="stroke: #000000; stroke-width: 0.8"/>
      </g>
     </g>
     <g id="text_1">
      <!-- 0 -->
      <g transform="translate(70.599524 322.182437) scale(0.1 -0.1)">
       <defs>
        <path id="DejaVuSans-30" d="M 2034 4250 
Q 1547 4250 1301 3770 
Q 1056 3291 1056 2328 
Q 1056 1369 1301 889 
Q 1547 409 2034 409 
Q 2525 409 2770 889 
Q 3016 1369 3016 2328 
Q 3016 3291 2770 3770 
Q 2525 4250 2034 4250 
z
M 2034 4750 
Q 2819 4750 3233 4129 
Q 3647 3509 3647 2328 
Q 3647 1150 3233 529 
Q 2819 -91 2034 -91 
Q 1250 -91 836 529 
Q 422 1150 422 2328 
Q 422 3509 836 4129 
Q 1250 4750 2034 4750 
z
" transform="scale(0.015625)"/>
       </defs>
       <use xlink:href="#DejaVuSans-30"/>
      </g>
     </g>
    </g>
    <g id="xtick_2">
     <g id="line2d_2">
      <g>
       <use xlink:href="#md13c0f1e08" x="138.722074" y="307.584" style="stroke: #000000; stroke-width: 0.8"/>
      </g>
     </g>
     <g id="text_2">
      <!-- 10000 -->
      <g transform="translate(122.815824 322.182437) scale(0.1 -0.1)">
       <defs>
        <path id="DejaVuSans-31" d="M 794 531 
L 1825 531 
L 1825 4091 
L 703 3866 
L 703 4441 
L 1819 4666 
L 2450 4666 
L 2450 531 
L 3481 531 
L 3481 0 
L 794 0 
L 794 531 
z
" transform="scale(0.015625)"/>
       </defs>
       <use xlink:href="#DejaVuSans-31"/>
       <use xlink:href="#DejaVuSans-30" x="63.623047"/>
       <use xlink:href="#DejaVuSans-30" x="127.246094"/>
       <use xlink:href="#DejaVuSans-30" x="190.869141"/>
       <use xlink:href="#DejaVuSans-30" x="254.492188"/>
      </g>
     </g>
    </g>
    <g id="xtick_3">
     <g id="line2d_3">
      <g>
       <use xlink:href="#md13c0f1e08" x="203.663374" y="307.584" style="stroke: #000000; stroke-width: 0.8"/>
      </g>
     </g>
     <g id="text_3">
      <!-- 20000 -->
      <g transform="translate(187.757124 322.182437) scale(0.1 -0.1)">
       <defs>
        <path id="DejaVuSans-32" d="M 1228 531 
L 3431 531 
L 3431 0 
L 469 0 
L 469 531 
Q 828 903 1448 1529 
Q 2069 2156 2228 2338 
Q 2531 2678 2651 2914 
Q 2772 3150 2772 3378 
Q 2772 3750 2511 3984 
Q 2250 4219 1831 4219 
Q 1534 4219 1204 4116 
Q 875 4013 500 3803 
L 500 4441 
Q 881 4594 1212 4672 
Q 1544 4750 1819 4750 
Q 2544 4750 2975 4387 
Q 3406 4025 3406 3419 
Q 3406 3131 3298 2873 
Q 3191 2616 2906 2266 
Q 2828 2175 2409 1742 
Q 1991 1309 1228 531 
z
" transform="scale(0.015625)"/>
       </defs>
       <use xlink:href="#DejaVuSans-32"/>
       <use xlink:href="#DejaVuSans-30" x="63.623047"/>
       <use xlink:href="#DejaVuSans-30" x="127.246094"/>
       <use xlink:href="#DejaVuSans-30" x="190.869141"/>
       <use xlink:href="#DejaVuSans-30" x="254.492188"/>
      </g>
     </g>
    </g>
    <g id="xtick_4">
     <g id="line2d_4">
      <g>
       <use xlink:href="#md13c0f1e08" x="268.604673" y="307.584" style="stroke: #000000; stroke-width: 0.8"/>
      </g>
     </g>
     <g id="text_4">
      <!-- 30000 -->
      <g transform="translate(252.698423 322.182437) scale(0.1 -0.1)">
       <defs>
        <path id="DejaVuSans-33" d="M 2597 2516 
Q 3050 2419 3304 2112 
Q 3559 1806 3559 1356 
Q 3559 666 3084 287 
Q 2609 -91 1734 -91 
Q 1441 -91 1130 -33 
Q 819 25 488 141 
L 488 750 
Q 750 597 1062 519 
Q 1375 441 1716 441 
Q 2309 441 2620 675 
Q 2931 909 2931 1356 
Q 2931 1769 2642 2001 
Q 2353 2234 1838 2234 
L 1294 2234 
L 1294 2753 
L 1863 2753 
Q 2328 2753 2575 2939 
Q 2822 3125 2822 3475 
Q 2822 3834 2567 4026 
Q 2313 4219 1838 4219 
Q 1578 4219 1281 4162 
Q 984 4106 628 3988 
L 628 4550 
Q 988 4650 1302 4700 
Q 1616 4750 1894 4750 
Q 2613 4750 3031 4423 
Q 3450 4097 3450 3541 
Q 3450 3153 3228 2886 
Q 3006 2619 2597 2516 
z
" transform="scale(0.015625)"/>
       </defs>
       <use xlink:href="#DejaVuSans-33"/>
       <use xlink:href="#DejaVuSans-30" x="63.623047"/>
       <use xlink:href="#DejaVuSans-30" x="127.246094"/>
       <use xlink:href="#DejaVuSans-30" x="190.869141"/>
       <use xlink:href="#DejaVuSans-30" x="254.492188"/>
      </g>
     </g>
    </g>
    <g id="xtick_5">
     <g id="line2d_5">
      <g>
       <use xlink:href="#md13c0f1e08" x="333.545973" y="307.584" style="stroke: #000000; stroke-width: 0.8"/>
      </g>
     </g>
     <g id="text_5">
      <!-- 40000 -->
      <g transform="translate(317.639723 322.182437) scale(0.1 -0.1)">
       <defs>
        <path id="DejaVuSans-34" d="M 2419 4116 
L 825 1625 
L 2419 1625 
L 2419 4116 
z
M 2253 4666 
L 3047 4666 
L 3047 1625 
L 3713 1625 
L 3713 1100 
L 3047 1100 
L 3047 0 
L 2419 0 
L 2419 1100 
L 313 1100 
L 313 1709 
L 2253 4666 
z
" transform="scale(0.015625)"/>
       </defs>
       <use xlink:href="#DejaVuSans-34"/>
       <use xlink:href="#DejaVuSans-30" x="63.623047"/>
       <use xlink:href="#DejaVuSans-30" x="127.246094"/>
       <use xlink:href="#DejaVuSans-30" x="190.869141"/>
       <use xlink:href="#DejaVuSans-30" x="254.492188"/>
      </g>
     </g>
    </g>
    <g id="xtick_6">
     <g id="line2d_6">
      <g>
       <use xlink:href="#md13c0f1e08" x="398.487273" y="307.584" style="stroke: #000000; stroke-width: 0.8"/>
      </g>
     </g>
     <g id="text_6">
      <!-- 50000 -->
      <g transform="translate(382.581023 322.182437) scale(0.1 -0.1)">
       <defs>
        <path id="DejaVuSans-35" d="M 691 4666 
L 3169 4666 
L 3169 4134 
L 1269 4134 
L 1269 2991 
Q 1406 3038 1543 3061 
Q 1681 3084 1819 3084 
Q 2600 3084 3056 2656 
Q 3513 2228 3513 1497 
Q 3513 744 3044 326 
Q 2575 -91 1722 -91 
Q 1428 -91 1123 -41 
Q 819 9 494 109 
L 494 744 
Q 775 591 1075 516 
Q 1375 441 1709 441 
Q 2250 441 2565 725 
Q 2881 1009 2881 1497 
Q 2881 1984 2565 2268 
Q 2250 2553 1709 2553 
Q 1456 2553 1204 2497 
Q 953 2441 691 2322 
L 691 4666 
z
" transform="scale(0.015625)"/>
       </defs>
       <use xlink:href="#DejaVuSans-35"/>
       <use xlink:href="#DejaVuSans-30" x="63.623047"/>
       <use xlink:href="#DejaVuSans-30" x="127.246094"/>
       <use xlink:href="#DejaVuSans-30" x="190.869141"/>
       <use xlink:href="#DejaVuSans-30" x="254.492188"/>
      </g>
     </g>
    </g>
    <g id="text_7">
     <!-- timesteps -->
     <g transform="translate(211.443594 335.860562) scale(0.1 -0.1)">
      <defs>
       <path id="DejaVuSans-74" d="M 1172 4494 
L 1172 3500 
L 2356 3500 
L 2356 3053 
L 1172 3053 
L 1172 1153 
Q 1172 725 1289 603 
Q 1406 481 1766 481 
L 2356 481 
L 2356 0 
L 1766 0 
Q 1100 0 847 248 
Q 594 497 594 1153 
L 594 3053 
L 172 3053 
L 172 3500 
L 594 3500 
L 594 4494 
L 1172 4494 
z
" transform="scale(0.015625)"/>
       <path id="DejaVuSans-69" d="M 603 3500 
L 1178 3500 
L 1178 0 
L 603 0 
L 603 3500 
z
M 603 4863 
L 1178 4863 
L 1178 4134 
L 603 4134 
L 603 4863 
z
" transform="scale(0.015625)"/>
       <path id="DejaVuSans-6d" d="M 3328 2828 
Q 3544 3216 3844 3400 
Q 4144 3584 4550 3584 
Q 5097 3584 5394 3201 
Q 5691 2819 5691 2113 
L 5691 0 
L 5113 0 
L 5113 2094 
Q 5113 2597 4934 2840 
Q 4756 3084 4391 3084 
Q 3944 3084 3684 2787 
Q 3425 2491 3425 1978 
L 3425 0 
L 2847 0 
L 2847 2094 
Q 2847 2600 2669 2842 
Q 2491 3084 2119 3084 
Q 1678 3084 1418 2786 
Q 1159 2488 1159 1978 
L 1159 0 
L 581 0 
L 581 3500 
L 1159 3500 
L 1159 2956 
Q 1356 3278 1631 3431 
Q 1906 3584 2284 3584 
Q 2666 3584 2933 3390 
Q 3200 3197 3328 2828 
z
" transform="scale(0.015625)"/>
       <path id="DejaVuSans-65" d="M 3597 1894 
L 3597 1613 
L 953 1613 
Q 991 1019 1311 708 
Q 1631 397 2203 397 
Q 2534 397 2845 478 
Q 3156 559 3463 722 
L 3463 178 
Q 3153 47 2828 -22 
Q 2503 -91 2169 -91 
Q 1331 -91 842 396 
Q 353 884 353 1716 
Q 353 2575 817 3079 
Q 1281 3584 2069 3584 
Q 2775 3584 3186 3129 
Q 3597 2675 3597 1894 
z
M 3022 2063 
Q 3016 2534 2758 2815 
Q 2500 3097 2075 3097 
Q 1594 3097 1305 2825 
Q 1016 2553 972 2059 
L 3022 2063 
z
" transform="scale(0.015625)"/>
       <path id="DejaVuSans-73" d="M 2834 3397 
L 2834 2853 
Q 2591 2978 2328 3040 
Q 2066 3103 1784 3103 
Q 1356 3103 1142 2972 
Q 928 2841 928 2578 
Q 928 2378 1081 2264 
Q 1234 2150 1697 2047 
L 1894 2003 
Q 2506 1872 2764 1633 
Q 3022 1394 3022 966 
Q 3022 478 2636 193 
Q 2250 -91 1575 -91 
Q 1294 -91 989 -36 
Q 684 19 347 128 
L 347 722 
Q 666 556 975 473 
Q 1284 391 1588 391 
Q 1994 391 2212 530 
Q 2431 669 2431 922 
Q 2431 1156 2273 1281 
Q 2116 1406 1581 1522 
L 1381 1569 
Q 847 1681 609 1914 
Q 372 2147 372 2553 
Q 372 3047 722 3315 
Q 1072 3584 1716 3584 
Q 2034 3584 2315 3537 
Q 2597 3491 2834 3397 
z
" transform="scale(0.015625)"/>
       <path id="DejaVuSans-70" d="M 1159 525 
L 1159 -1331 
L 581 -1331 
L 581 3500 
L 1159 3500 
L 1159 2969 
Q 1341 3281 1617 3432 
Q 1894 3584 2278 3584 
Q 2916 3584 3314 3078 
Q 3713 2572 3713 1747 
Q 3713 922 3314 415 
Q 2916 -91 2278 -91 
Q 1894 -91 1617 61 
Q 1341 213 1159 525 
z
M 3116 1747 
Q 3116 2381 2855 2742 
Q 2594 3103 2138 3103 
Q 1681 3103 1420 2742 
Q 1159 2381 1159 1747 
Q 1159 1113 1420 752 
Q 1681 391 2138 391 
Q 2594 391 2855 752 
Q 3116 1113 3116 1747 
z
" transform="scale(0.015625)"/>
      </defs>
      <use xlink:href="#DejaVuSans-74"/>
      <use xlink:href="#DejaVuSans-69" x="39.208984"/>
      <use xlink:href="#DejaVuSans-6d" x="66.992188"/>
      <use xlink:href="#DejaVuSans-65" x="164.404297"/>
      <use xlink:href="#DejaVuSans-73" x="225.927734"/>
      <use xlink:href="#DejaVuSans-74" x="278.027344"/>
      <use xlink:href="#DejaVuSans-65" x="317.236328"/>
      <use xlink:href="#DejaVuSans-70" x="378.759766"/>
      <use xlink:href="#DejaVuSans-73" x="442.236328"/>
     </g>
    </g>
   </g>
   <g id="matplotlib.axis_2">
    <g id="ytick_1">
     <g id="line2d_7">
      <defs>
       <path id="m2b1adb014d" d="M 0 0 
L -3.5 0 
" style="stroke: #000000; stroke-width: 0.8"/>
      </defs>
      <g>
       <use xlink:href="#m2b1adb014d" x="57.6" y="297.120906" style="stroke: #000000; stroke-width: 0.8"/>
      </g>
     </g>
     <g id="text_8">
      <!-- 0 -->
      <g transform="translate(44.2375 300.920125) scale(0.1 -0.1)">
       <use xlink:href="#DejaVuSans-30"/>
      </g>
     </g>
    </g>
    <g id="ytick_2">
     <g id="line2d_8">
      <g>
       <use xlink:href="#m2b1adb014d" x="57.6" y="256.174166" style="stroke: #000000; stroke-width: 0.8"/>
      </g>
     </g>
     <g id="text_9">
      <!-- 50 -->
      <g transform="translate(37.875 259.973385) scale(0.1 -0.1)">
       <use xlink:href="#DejaVuSans-35"/>
       <use xlink:href="#DejaVuSans-30" x="63.623047"/>
      </g>
     </g>
    </g>
    <g id="ytick_3">
     <g id="line2d_9">
      <g>
       <use xlink:href="#m2b1adb014d" x="57.6" y="215.227426" style="stroke: #000000; stroke-width: 0.8"/>
      </g>
     </g>
     <g id="text_10">
      <!-- 100 -->
      <g transform="translate(31.5125 219.026644) scale(0.1 -0.1)">
       <use xlink:href="#DejaVuSans-31"/>
       <use xlink:href="#DejaVuSans-30" x="63.623047"/>
       <use xlink:href="#DejaVuSans-30" x="127.246094"/>
      </g>
     </g>
    </g>
    <g id="ytick_4">
     <g id="line2d_10">
      <g>
       <use xlink:href="#m2b1adb014d" x="57.6" y="174.280685" style="stroke: #000000; stroke-width: 0.8"/>
      </g>
     </g>
     <g id="text_11">
      <!-- 150 -->
      <g transform="translate(31.5125 178.079904) scale(0.1 -0.1)">
       <use xlink:href="#DejaVuSans-31"/>
       <use xlink:href="#DejaVuSans-35" x="63.623047"/>
       <use xlink:href="#DejaVuSans-30" x="127.246094"/>
      </g>
     </g>
    </g>
    <g id="ytick_5">
     <g id="line2d_11">
      <g>
       <use xlink:href="#m2b1adb014d" x="57.6" y="133.333945" style="stroke: #000000; stroke-width: 0.8"/>
      </g>
     </g>
     <g id="text_12">
      <!-- 200 -->
      <g transform="translate(31.5125 137.133164) scale(0.1 -0.1)">
       <use xlink:href="#DejaVuSans-32"/>
       <use xlink:href="#DejaVuSans-30" x="63.623047"/>
       <use xlink:href="#DejaVuSans-30" x="127.246094"/>
      </g>
     </g>
    </g>
    <g id="ytick_6">
     <g id="line2d_12">
      <g>
       <use xlink:href="#m2b1adb014d" x="57.6" y="92.387205" style="stroke: #000000; stroke-width: 0.8"/>
      </g>
     </g>
     <g id="text_13">
      <!-- 250 -->
      <g transform="translate(31.5125 96.186424) scale(0.1 -0.1)">
       <use xlink:href="#DejaVuSans-32"/>
       <use xlink:href="#DejaVuSans-35" x="63.623047"/>
       <use xlink:href="#DejaVuSans-30" x="127.246094"/>
      </g>
     </g>
    </g>
    <g id="ytick_7">
     <g id="line2d_13">
      <g>
       <use xlink:href="#m2b1adb014d" x="57.6" y="51.440465" style="stroke: #000000; stroke-width: 0.8"/>
      </g>
     </g>
     <g id="text_14">
      <!-- 300 -->
      <g transform="translate(31.5125 55.239683) scale(0.1 -0.1)">
       <use xlink:href="#DejaVuSans-33"/>
       <use xlink:href="#DejaVuSans-30" x="63.623047"/>
       <use xlink:href="#DejaVuSans-30" x="127.246094"/>
      </g>
     </g>
    </g>
    <g id="text_15">
     <!-- mean episode rewards -->
     <g transform="translate(25.432812 231.360031) rotate(-90) scale(0.1 -0.1)">
      <defs>
       <path id="DejaVuSans-61" d="M 2194 1759 
Q 1497 1759 1228 1600 
Q 959 1441 959 1056 
Q 959 750 1161 570 
Q 1363 391 1709 391 
Q 2188 391 2477 730 
Q 2766 1069 2766 1631 
L 2766 1759 
L 2194 1759 
z
M 3341 1997 
L 3341 0 
L 2766 0 
L 2766 531 
Q 2569 213 2275 61 
Q 1981 -91 1556 -91 
Q 1019 -91 701 211 
Q 384 513 384 1019 
Q 384 1609 779 1909 
Q 1175 2209 1959 2209 
L 2766 2209 
L 2766 2266 
Q 2766 2663 2505 2880 
Q 2244 3097 1772 3097 
Q 1472 3097 1187 3025 
Q 903 2953 641 2809 
L 641 3341 
Q 956 3463 1253 3523 
Q 1550 3584 1831 3584 
Q 2591 3584 2966 3190 
Q 3341 2797 3341 1997 
z
" transform="scale(0.015625)"/>
       <path id="DejaVuSans-6e" d="M 3513 2113 
L 3513 0 
L 2938 0 
L 2938 2094 
Q 2938 2591 2744 2837 
Q 2550 3084 2163 3084 
Q 1697 3084 1428 2787 
Q 1159 2491 1159 1978 
L 1159 0 
L 581 0 
L 581 3500 
L 1159 3500 
L 1159 2956 
Q 1366 3272 1645 3428 
Q 1925 3584 2291 3584 
Q 2894 3584 3203 3211 
Q 3513 2838 3513 2113 
z
" transform="scale(0.015625)"/>
       <path id="DejaVuSans-20" transform="scale(0.015625)"/>
       <path id="DejaVuSans-6f" d="M 1959 3097 
Q 1497 3097 1228 2736 
Q 959 2375 959 1747 
Q 959 1119 1226 758 
Q 1494 397 1959 397 
Q 2419 397 2687 759 
Q 2956 1122 2956 1747 
Q 2956 2369 2687 2733 
Q 2419 3097 1959 3097 
z
M 1959 3584 
Q 2709 3584 3137 3096 
Q 3566 2609 3566 1747 
Q 3566 888 3137 398 
Q 2709 -91 1959 -91 
Q 1206 -91 779 398 
Q 353 888 353 1747 
Q 353 2609 779 3096 
Q 1206 3584 1959 3584 
z
" transform="scale(0.015625)"/>
       <path id="DejaVuSans-64" d="M 2906 2969 
L 2906 4863 
L 3481 4863 
L 3481 0 
L 2906 0 
L 2906 525 
Q 2725 213 2448 61 
Q 2172 -91 1784 -91 
Q 1150 -91 751 415 
Q 353 922 353 1747 
Q 353 2572 751 3078 
Q 1150 3584 1784 3584 
Q 2172 3584 2448 3432 
Q 2725 3281 2906 2969 
z
M 947 1747 
Q 947 1113 1208 752 
Q 1469 391 1925 391 
Q 2381 391 2643 752 
Q 2906 1113 2906 1747 
Q 2906 2381 2643 2742 
Q 2381 3103 1925 3103 
Q 1469 3103 1208 2742 
Q 947 2381 947 1747 
z
" transform="scale(0.015625)"/>
       <path id="DejaVuSans-72" d="M 2631 2963 
Q 2534 3019 2420 3045 
Q 2306 3072 2169 3072 
Q 1681 3072 1420 2755 
Q 1159 2438 1159 1844 
L 1159 0 
L 581 0 
L 581 3500 
L 1159 3500 
L 1159 2956 
Q 1341 3275 1631 3429 
Q 1922 3584 2338 3584 
Q 2397 3584 2469 3576 
Q 2541 3569 2628 3553 
L 2631 2963 
z
" transform="scale(0.015625)"/>
       <path id="DejaVuSans-77" d="M 269 3500 
L 844 3500 
L 1563 769 
L 2278 3500 
L 2956 3500 
L 3675 769 
L 4391 3500 
L 4966 3500 
L 4050 0 
L 3372 0 
L 2619 2869 
L 1863 0 
L 1184 0 
L 269 3500 
z
" transform="scale(0.015625)"/>
      </defs>
      <use xlink:href="#DejaVuSans-6d"/>
      <use xlink:href="#DejaVuSans-65" x="97.412109"/>
      <use xlink:href="#DejaVuSans-61" x="158.935547"/>
      <use xlink:href="#DejaVuSans-6e" x="220.214844"/>
      <use xlink:href="#DejaVuSans-20" x="283.59375"/>
      <use xlink:href="#DejaVuSans-65" x="315.380859"/>
      <use xlink:href="#DejaVuSans-70" x="376.904297"/>
      <use xlink:href="#DejaVuSans-69" x="440.380859"/>
      <use xlink:href="#DejaVuSans-73" x="468.164062"/>
      <use xlink:href="#DejaVuSans-6f" x="520.263672"/>
      <use xlink:href="#DejaVuSans-64" x="581.445312"/>
      <use xlink:href="#DejaVuSans-65" x="644.921875"/>
      <use xlink:href="#DejaVuSans-20" x="706.445312"/>
      <use xlink:href="#DejaVuSans-72" x="738.232422"/>
      <use xlink:href="#DejaVuSans-65" x="777.095703"/>
      <use xlink:href="#DejaVuSans-77" x="838.619141"/>
      <use xlink:href="#DejaVuSans-61" x="920.40625"/>
      <use xlink:href="#DejaVuSans-72" x="981.685547"/>
      <use xlink:href="#DejaVuSans-64" x="1021.048828"/>
      <use xlink:href="#DejaVuSans-73" x="1084.525391"/>
     </g>
    </g>
   </g>
   <g id="line2d_14">
    <path d="M 73.832727 293.293691 
L 73.897669 293.009122 
L 73.969104 289.305855 
L 74.118469 292.393916 
L 74.274328 290.029342 
L 74.352258 290.64669 
L 74.436681 290.108175 
L 74.631505 285.123815 
L 74.741905 287.53481 
L 74.8588 278.62883 
L 74.975694 290.952969 
L 75.092588 283.525804 
L 75.170518 290.196975 
L 75.300401 286.399268 
L 75.449766 293.067884 
L 75.534189 291.273034 
L 75.612119 295.404928 
L 75.86539 269.946692 
L 76.073202 286.410681 
L 76.190096 282.051102 
L 76.313485 292.362669 
L 76.410897 291.382002 
L 76.579744 276.467137 
L 76.664168 288.62622 
L 76.774568 288.374736 
L 77.047322 288.118506 
L 77.138239 288.950059 
L 77.261628 280.34751 
L 77.462946 281.53811 
L 77.638287 275.582451 
L 78.112359 286.312929 
L 78.346148 277.724509 
L 78.534477 290.59415 
L 78.638383 289.841124 
L 79.028031 275.970571 
L 79.144926 287.916917 
L 79.274808 287.662578 
L 79.618997 233.190973 
L 79.755374 279.980642 
L 79.995657 253.113417 
L 80.086574 289.988678 
L 80.411281 275.23769 
L 80.580128 289.833723 
L 80.658058 287.860046 
L 80.722999 290.681408 
L 80.852882 286.541947 
L 81.132129 248.271565 
L 81.294483 287.528892 
L 81.424365 279.199594 
L 81.502295 288.859398 
L 81.716601 290.759131 
L 82.099755 226.647144 
L 82.197167 286.799432 
L 82.320555 288.558753 
L 82.853074 151.545999 
L 82.943992 289.656197 
L 83.268698 273.374305 
L 83.379098 290.018057 
L 83.515475 286.595505 
L 83.625875 292.181404 
L 83.716793 289.200996 
L 83.846676 279.966218 
L 84.138912 285.70105 
L 84.359712 292.208605 
L 84.56103 276.443761 
L 84.996137 231.240361 
L 85.074066 289.998093 
L 85.242914 283.159134 
L 85.353314 287.774337 
L 85.528655 276.956825 
L 85.749456 291.798669 
L 86.022209 257.554459 
L 86.24301 270.193416 
L 86.57421 257.723517 
L 87.074258 291.085983 
L 87.340518 282.713124 
L 87.392471 293.188493 
L 87.4704 292.559321 
L 87.749648 288.035573 
L 87.918495 272.132056 
L 88.17826 270.389228 
L 88.243202 293.112668 
L 88.314637 289.655109 
L 88.561414 259.994754 
L 88.678308 289.441586 
L 88.782214 288.881777 
L 89.022497 276.593141 
L 89.093933 290.769599 
L 89.178356 289.571059 
L 89.295251 287.527745 
L 89.529039 273.646672 
L 89.613463 290.681271 
L 89.710875 288.323561 
L 89.769322 291.62199 
L 89.886217 287.403073 
L 89.990123 288.838651 
L 90.184947 286.139508 
L 90.314829 290.332498 
L 90.483677 278.145751 
L 90.672006 288.018591 
L 90.808383 289.003603 
L 90.931771 279.281659 
L 91.13309 275.368937 
L 91.301937 287.255962 
L 91.46429 277.133138 
L 91.581184 292.534478 
L 91.743538 284.024107 
L 91.834456 288.25528 
L 92.042268 270.252001 
L 92.146174 288.794408 
L 92.269562 290.513736 
L 92.43841 274.649561 
L 92.789093 272.138698 
L 93.042364 284.865271 
L 93.191729 284.329824 
L 93.302129 282.508221 
L 93.490459 281.775646 
L 93.711259 268.729951 
L 93.85413 281.068375 
L 94.061942 284.926714 
L 94.211307 281.299216 
L 94.295731 287.637883 
L 94.399637 287.032585 
L 94.503543 289.275773 
L 94.63992 289.762808 
L 94.743826 283.080765 
L 94.821755 289.713982 
L 95.191921 251.784047 
L 95.263356 290.548275 
L 95.730934 222.408906 
L 95.83484 287.300841 
L 96.120581 257.232033 
L 96.341382 285.897405 
L 96.451782 289.554761 
L 96.640112 269.403722 
L 96.860912 288.401175 
L 96.997289 284.0217 
L 97.075218 292.105529 
L 97.231078 282.623152 
L 97.32849 289.855761 
L 97.458372 278.534826 
L 97.581761 279.329739 
L 97.65969 289.55044 
L 97.822043 288.621986 
L 97.932444 286.434215 
L 98.049338 291.94211 
L 98.166232 284.173834 
L 98.361056 292.393595 
L 98.510421 289.612546 
L 98.692257 293.402676 
L 98.770186 288.481371 
L 99.244258 212.959951 
L 99.37414 285.955431 
L 99.659882 245.63492 
L 99.718329 292.883597 
L 99.789765 289.836581 
L 99.906659 288.913851 
L 100.030048 283.205303 
L 100.289813 239.946558 
L 100.439178 293.04321 
L 100.627508 286.680847 
L 100.971696 225.761015 
L 101.049626 290.010625 
L 101.16652 291.051647 
L 101.335368 276.84589 
L 101.413297 289.723078 
L 101.530192 289.862454 
L 101.692545 290.248708 
L 101.880875 270.622081 
L 102.043228 272.841025 
L 102.238052 291.803439 
L 102.432876 266.099633 
L 102.510805 290.749804 
L 102.601723 287.296039 
L 102.731606 281.085422 
L 102.809535 290.072185 
L 102.945912 278.523865 
L 103.413489 291.739633 
L 103.627796 282.173884 
L 103.718713 290.995069 
L 103.783655 290.982655 
L 103.85509 291.04658 
L 104.374621 279.280289 
L 104.660362 284.716569 
L 104.796739 281.475735 
L 105.024034 291.404116 
L 105.173399 285.331498 
L 105.257822 291.462462 
L 105.45914 290.837898 
L 105.556552 291.686254 
L 105.686435 290.266238 
L 105.861776 285.434425 
L 106.02413 290.224056 
L 106.426766 252.673846 
L 106.634578 292.376233 
L 106.706013 291.510979 
L 106.900837 286.607916 
L 107.089167 264.048122 
L 107.32945 290.440328 
L 107.491803 279.353766 
L 107.602203 294.666865 
L 107.673639 292.223958 
L 107.933404 285.27079 
L 108.024322 288.147866 
L 108.212651 273.339801 
L 108.394487 295.488 
L 108.537358 289.9595 
L 108.790629 271.996957 
L 108.978959 292.184116 
L 109.076371 286.035854 
L 109.23223 284.018376 
L 109.284183 293.488941 
L 109.667336 283.487089 
L 110.005031 262.831085 
L 110.199855 288.166787 
L 110.303761 288.517714 
L 110.368702 290.394104 
L 110.505079 289.876012 
L 110.719386 271.110117 
L 110.94668 289.878875 
L 111.083057 291.54725 
L 111.46621 287.785839 
L 111.54414 292.13542 
L 111.719482 279.85981 
L 111.9208 290.080501 
L 111.992235 289.7007 
L 112.154588 288.669715 
L 112.277977 289.923521 
L 112.51826 283.831356 
L 112.888425 252.181249 
L 112.972849 291.201743 
L 113.615767 260.476456 
L 113.693697 291.172963 
L 113.817085 284.735966 
L 114.304145 190.424061 
L 114.42104 284.34847 
L 114.537934 286.053151 
L 114.661322 282.543214 
L 114.75224 287.630437 
L 114.934076 279.005198 
L 115.089935 283.784685 
L 115.232806 283.473687 
L 115.440618 272.109188 
L 115.64843 269.352358 
L 115.797795 292.21185 
L 115.921184 289.226408 
L 116.083537 273.538074 
L 116.291349 291.873927 
L 116.453702 276.893878 
L 116.603067 279.657056 
L 116.752432 288.233262 
L 116.92128 289.086754 
L 117.174551 268.114022 
L 117.336904 270.997944 
L 117.434316 288.36114 
L 117.55121 282.351852 
L 117.66161 283.222727 
L 117.765517 289.081254 
L 117.908387 288.384713 
L 118.025282 287.004244 
L 118.103211 288.92398 
L 118.551306 253.376136 
L 118.74613 291.0508 
L 118.863024 287.625316 
L 118.927966 293.142987 
L 119.174743 286.703216 
L 119.239684 290.841452 
L 119.603355 271.016137 
L 119.798179 276.994044 
L 119.889097 288.966707 
L 120.05145 287.69071 
L 120.363169 265.694073 
L 120.467075 289.548619 
L 120.603451 287.892082 
L 120.707357 284.586248 
L 120.850228 288.623823 
L 120.94764 287.163094 
L 121.084017 290.800444 
L 121.168441 290.351412 
L 121.265853 287.602859 
L 121.467171 268.158738 
L 121.5451 291.081184 
L 121.73343 272.581009 
L 121.850324 284.111109 
L 121.980207 284.261324 
L 122.103595 288.296676 
L 122.259454 280.187771 
L 122.447784 281.156411 
L 122.623126 275.657743 
L 122.798467 293.416619 
L 123.045244 245.821249 
L 123.22708 287.972567 
L 123.369951 280.339406 
L 123.506327 288.466603 
L 123.616728 285.513438 
L 123.707645 287.360569 
L 123.844022 283.135506 
L 124.006375 291.56611 
L 124.266141 280.715718 
L 124.714236 179.458335 
L 124.980495 286.606837 
L 125.064919 287.86024 
L 125.246754 288.696058 
L 125.305201 292.738143 
L 125.526002 286.04235 
L 125.655884 290.828871 
L 125.779273 283.428789 
L 125.954614 290.610201 
L 126.039038 290.256322 
L 126.13645 287.917595 
L 126.227368 290.33111 
L 126.363745 288.425943 
L 126.785863 229.770569 
L 127.052122 288.515263 
L 127.233958 284.397365 
L 127.337864 291.189096 
L 127.545676 286.753924 
L 127.746994 290.882081 
L 127.980783 272.22468 
L 128.11716 283.301044 
L 128.240548 280.288182 
L 128.41589 292.115634 
L 128.519796 284.737166 
L 128.779561 282.849557 
L 128.961397 290.090673 
L 129.065303 286.888033 
L 129.136738 290.543265 
L 129.364033 281.358635 
L 129.584833 289.71958 
L 129.675751 288.715717 
L 129.740692 292.667153 
L 129.993963 262.412133 
L 130.058905 292.843019 
L 130.279705 262.123473 
L 130.494011 262.447231 
L 130.64987 291.522868 
L 130.708318 293.093385 
L 130.91613 286.056471 
L 131.059001 277.012252 
L 131.123942 291.185288 
L 131.305778 278.946514 
L 131.54606 290.788492 
L 131.656461 287.618477 
L 131.805826 293.928972 
L 132.013638 274.845128 
L 132.175991 272.13758 
L 132.500697 291.062692 
L 132.585121 288.937411 
L 132.753968 290.380168 
L 132.968275 288.609086 
L 133.189075 292.774821 
L 133.422864 278.939892 
L 133.52677 285.393195 
L 133.643664 282.603896 
L 133.741076 287.084363 
L 134.026818 259.999514 
L 134.091759 291.17471 
L 134.176183 287.164659 
L 134.53336 261.382321 
L 134.741172 262.983367 
L 135.072373 283.938709 
L 135.195761 282.043391 
L 135.293173 286.572201 
L 135.423056 282.868048 
L 135.53995 288.280288 
L 135.72828 269.021162 
L 135.812704 288.91873 
L 135.981551 285.803691 
L 136.111434 287.9593 
L 136.267293 292.70807 
L 136.371199 290.576387 
L 136.494587 282.67996 
L 136.585505 289.601263 
L 136.715388 282.679128 
L 136.884235 283.665001 
L 137.079059 266.417017 
L 137.286871 291.669011 
L 137.455719 273.089095 
L 137.52066 292.916907 
L 137.858355 276.624294 
L 137.955767 286.642863 
L 138.111626 272.01463 
L 138.183061 289.876756 
L 138.345414 289.536295 
L 138.488285 279.403251 
L 138.663627 290.40076 
L 138.90391 255.420066 
L 139.449416 291.06402 
L 139.546828 289.785426 
L 139.696193 281.563624 
L 139.968947 292.505964 
L 140.118312 282.24326 
L 140.20923 291.38715 
L 140.300148 290.198312 
L 140.494971 272.557935 
L 140.800196 291.798265 
L 140.897607 285.830335 
L 141.053467 284.160724 
L 141.261279 288.392944 
L 141.391161 283.866296 
L 141.495067 292.675482 
L 141.657421 277.037881 
L 141.780809 288.185293 
L 141.949657 270.447022 
L 142.040574 290.266959 
L 142.14448 286.602986 
L 142.209422 290.921443 
L 142.345798 287.762819 
L 142.501658 281.361886 
L 142.638034 282.942922 
L 142.845846 273.867719 
L 142.995211 287.802375 
L 143.326412 241.189854 
L 143.735542 243.25854 
L 143.845942 292.219028 
L 144.01479 285.157871 
L 144.23559 283.676386 
L 144.320014 289.463768 
L 144.469379 274.593192 
L 144.768109 266.083779 
L 144.852533 289.477658 
L 145.079827 260.700916 
L 145.138274 292.25486 
L 145.229192 287.917297 
L 145.294133 290.496282 
L 145.378557 287.354586 
L 145.449993 291.808812 
L 145.579875 292.573633 
L 145.683781 286.874957 
L 146.014982 256.966149 
L 146.125382 290.110208 
L 146.261759 285.498505 
L 146.489053 286.568345 
L 146.566983 289.916465 
L 146.826748 288.912152 
L 146.982607 289.15964 
L 147.054043 294.738568 
L 147.229384 272.023036 
L 147.41122 292.305365 
L 147.554091 288.759913 
L 147.677479 282.205212 
L 147.911268 259.594947 
L 148.002186 291.691904 
L 148.158045 276.528679 
L 148.255457 287.923321 
L 148.476257 264.954085 
L 148.593151 287.467716 
L 148.723034 281.513747 
L 148.813952 291.697414 
L 148.989293 271.29845 
L 149.177623 279.654211 
L 149.262047 290.658457 
L 149.4244 275.183296 
L 149.5348 282.725965 
L 149.904966 258.336322 
L 150.008872 289.971939 
L 150.177719 294.695408 
L 150.476449 274.290624 
L 150.781673 249.587358 
L 151.041438 285.790698 
L 151.21678 287.994159 
L 151.385627 271.921234 
L 151.560969 270.626735 
L 151.690851 284.450771 
L 151.885675 263.752002 
L 152.22337 287.811051 
L 152.327276 286.159175 
L 152.535088 275.209466 
L 153.574149 121.038458 
L 153.801444 284.49743 
L 153.963797 284.611421 
L 154.210574 290.091731 
L 154.359939 285.536806 
L 154.42488 292.859966 
L 154.548269 283.224617 
L 154.626198 289.180891 
L 154.83401 278.249075 
L 154.918434 289.838187 
L 155.10027 289.932579 
L 155.314576 282.557194 
L 155.470435 271.753388 
L 155.769165 290.428694 
L 156.100366 281.815929 
L 156.210766 287.458366 
L 156.444555 261.591637 
L 156.600414 285.658772 
L 156.710814 284.071419 
L 156.866673 273.16123 
L 156.970579 292.630604 
L 157.119944 283.081073 
L 157.314768 290.631783 
L 157.438157 280.512269 
L 157.529074 290.737302 
L 157.847287 280.681359 
L 158.165499 290.466486 
L 158.41877 242.516847 
L 158.620088 279.448248 
L 158.938301 256.018003 
L 158.996748 292.249519 
L 159.172089 290.79289 
L 159.72409 190.679855 
L 160.087762 250.7372 
L 160.672233 282.516982 
L 161.068375 223.257687 
L 161.256705 283.615308 
L 161.672329 219.664906 
L 161.750259 291.653888 
L 161.951577 289.053812 
L 162.036001 290.078547 
L 162.276283 246.000956 
L 162.529554 277.033031 
L 162.815296 266.401597 
L 162.964661 285.808901 
L 163.107532 289.068018 
L 163.263391 282.896438 
L 163.38678 291.830337 
L 163.841369 246.130348 
L 164.029698 291.07787 
L 164.711582 180.056616 
L 165.029794 232.572977 
L 165.127206 288.7431 
L 165.250595 286.118415 
L 165.412948 279.052181 
L 165.646737 275.210058 
L 165.815584 279.450172 
L 166.042879 264.260035 
L 166.146785 292.856967 
L 166.257185 291.6221 
L 166.48448 283.9578 
L 166.62735 286.565283 
L 166.887116 239.482456 
L 167.101422 285.164916 
L 167.30274 294.710704 
L 167.432623 282.763138 
L 167.543023 286.236201 
L 167.770317 279.648767 
L 167.932671 270.181448 
L 168.276859 269.282206 
L 168.471683 254.437832 
L 168.601566 287.772594 
L 168.874319 238.26977 
L 169.361379 214.560735 
L 169.679591 236.174661 
L 170.069239 216.438184 
L 170.51084 185.137009 
L 170.686182 282.540243 
L 170.926464 243.366238 
L 171.270653 222.78992 
L 171.725242 172.492754 
L 172.205808 208.640094 
L 172.38115 292.084419 
L 172.549997 293.481452 
L 172.757809 250.749034 
L 172.920162 267.817642 
L 173.407222 197.543241 
L 173.595552 279.626139 
L 174.244965 155.721698 
L 174.550189 224.248901 
L 174.660589 283.806795 
L 174.926849 261.268907 
L 175.316496 200.495607 
L 175.530803 254.942796 
L 175.900968 255.138686 
L 176.349063 230.663339 
L 176.48544 277.629674 
L 176.914052 235.504797 
L 176.985488 292.071393 
L 177.290712 233.572499 
L 177.582948 227.804405 
L 177.784266 289.453749 
L 178.031043 255.095394 
L 178.167419 277.017643 
L 178.453161 259.306206 
L 178.634997 256.678178 
L 178.966197 236.459637 
L 179.057115 288.924255 
L 179.167515 283.254043 
L 179.557163 246.629282 
L 179.667563 287.241574 
L 179.940317 237.025505 
L 180.063705 284.089485 
L 180.349447 232.181972 
L 180.680648 224.619478 
L 180.901448 249.164174 
L 181.089778 255.81347 
L 181.310578 286.523667 
L 181.583332 261.88608 
L 182.19378 123.396384 
L 182.60291 285.416528 
L 182.804228 254.202161 
L 183.213358 221.997166 
L 183.765359 200.043875 
L 184.142019 212.566562 
L 184.69402 206.821101 
L 184.901832 251.310944 
L 185.187574 235.544289 
L 185.525269 266.981388 
L 185.765551 249.283094 
L 186.148705 230.54739 
L 186.363011 252.337161 
L 186.804612 220.876438 
L 186.902024 288.858579 
L 187.220237 276.980891 
L 187.473508 285.470174 
L 187.707296 246.735856 
L 188.38918 197.436062 
L 188.681416 282.592773 
L 188.967158 277.708964 
L 189.051581 291.220398 
L 189.707488 178.815176 
L 189.99323 237.768745 
L 190.428337 236.592738 
L 190.759537 218.640885 
L 191.11022 218.097583 
L 191.402456 230.173498 
L 191.831069 230.305645 
L 192.097328 239.075884 
L 192.266176 259.344883 
L 192.532435 237.607166 
L 192.805188 234.830559 
L 193.493566 184.595898 
L 193.759825 242.596812 
L 194.279356 195.217405 
L 194.733945 251.316629 
L 195.337899 202.556666 
L 195.526229 268.828461 
L 195.896394 204.148736 
L 196.234089 239.655162 
L 196.630231 227.570902 
L 196.825055 254.168262 
L 197.104302 235.731748 
L 197.519927 222.36305 
L 197.766704 245.555186 
L 198.175834 198.047394 
L 198.39014 249.89996 
L 198.597952 252.942278 
L 198.79927 252.635786 
L 199.201906 210.209493 
L 199.494142 233.991187 
L 199.727931 243.359171 
L 199.916261 256.186081 
L 200.533203 212.782995 
L 200.747509 249.66899 
L 201.098192 226.260254 
L 201.370946 236.802353 
L 202.065818 175.500603 
L 202.585348 204.623072 
L 202.832125 242.040448 
L 203.552973 183.974212 
L 203.98808 264.180101 
L 204.345257 277.034925 
L 205.144035 164.495782 
L 205.390812 241.611318 
L 205.96879 132.972074 
L 207.020839 276.219167 
L 207.416981 218.799894 
L 208.124841 203.229679 
L 208.722301 154.035995 
L 209.313267 210.489416 
L 209.761362 221.036888 
L 210.092562 218.042301 
L 210.326351 242.031653 
L 210.651057 240.114841 
L 210.982258 219.681399 
L 211.164094 256.666244 
L 211.67713 219.186885 
L 211.852472 258.13041 
L 212.099248 242.660308 
L 212.696708 257.46815 
L 213.008427 224.778466 
L 213.404569 218.807198 
L 213.761746 210.968645 
L 214.2553 206.854505 
L 214.794312 241.802949 
L 215.034595 241.751242 
L 215.300855 236.351914 
L 215.586596 234.396683 
L 215.800903 249.983864 
L 216.015209 249.509171 
L 216.19055 257.684311 
L 216.443821 239.435908 
L 216.67761 253.404378 
L 216.898411 247.873126 
L 217.846553 141.406497 
L 218.431025 194.939877 
L 218.671308 243.839673 
L 218.970038 228.640819 
L 219.411639 217.515546 
L 219.645427 244.533057 
L 220.015593 215.272352 
L 220.476676 204.322719 
L 220.801383 218.425071 
L 221.171548 260.941372 
L 221.314419 264.384497 
L 221.502749 255.531877 
L 221.67809 258.232558 
L 222.113197 184.650718 
L 222.38595 250.394044 
L 222.937951 230.110943 
L 223.106799 259.96198 
L 223.58087 166.420959 
L 224.06793 257.735293 
L 224.684872 204.091476 
L 224.977108 229.42694 
L 225.15245 259.005371 
L 225.399227 242.053748 
L 225.827839 228.056006 
L 226.282428 248.236591 
L 226.548688 232.626744 
L 226.821441 232.839916 
L 227.133159 224.848984 
L 227.431889 224.328178 
L 227.769584 213.933013 
L 227.938431 259.36309 
L 228.308597 227.13414 
L 228.568362 237.899963 
L 228.756692 254.944514 
L 229.172316 185.571814 
L 229.354152 257.14064 
L 229.561964 250.478671 
L 229.873682 224.914638 
L 230.049024 258.977917 
L 230.555566 159.396455 
L 231.068602 150.315197 
L 231.588133 190.052903 
L 232.107663 153.216978 
L 232.692135 123.791045 
L 233.218159 147.860055 
L 233.43896 245.796857 
L 233.672748 241.129809 
L 233.887055 250.141373 
L 234.705315 118.366831 
L 234.958586 238.755581 
L 235.244328 229.802991 
L 235.822305 132.144958 
L 236.0496 248.524777 
L 236.543154 160.982838 
L 237.075672 149.341688 
L 237.595203 149.920061 
L 238.121227 148.180963 
L 238.640758 155.33946 
L 239.705795 144.066708 
L 240.244808 150.181342 
L 240.803303 135.122278 
L 241.900811 155.014474 
L 242.446318 150.481531 
L 243.004813 150.886986 
L 243.55032 155.29921 
L 244.108815 146.744224 
L 244.63484 159.559726 
L 245.186841 144.735155 
L 245.914183 121.269004 
L 246.440208 146.550701 
L 246.992209 146.065736 
L 247.628634 135.960908 
L 248.180635 151.001039 
L 248.719647 143.036111 
L 249.161248 187.13928 
L 249.732732 129.693624 
L 250.258756 149.943081 
L 250.700357 188.045178 
L 251.226382 158.175554 
L 251.7589 157.419268 
L 252.310901 135.63005 
L 252.856408 143.636759 
L 253.401915 139.137032 
L 254.466952 152.105176 
L 254.999471 151.998878 
L 255.557966 135.650171 
L 256.096979 141.990692 
L 256.739898 119.944328 
L 257.278911 152.216682 
L 257.811429 155.993994 
L 258.343948 157.109383 
L 258.895949 152.233241 
L 259.44795 154.561571 
L 260.538964 134.240064 
L 261.064988 150.58588 
L 261.578025 161.127823 
L 262.110543 149.725146 
L 262.649556 154.672463 
L 263.188569 147.311434 
L 263.721088 147.870013 
L 264.2601 141.994787 
L 264.773137 151.49543 
L 265.312149 151.185766 
L 265.838174 149.80627 
L 266.383681 151.914962 
L 266.929188 151.385725 
L 267.487683 143.963506 
L 268.020202 151.514232 
L 268.546226 150.525278 
L 269.072251 148.717275 
L 269.578793 164.326918 
L 270.111311 150.982907 
L 270.650324 147.992911 
L 271.202325 138.179328 
L 271.767315 136.614557 
L 272.299833 154.364748 
L 272.84534 140.968686 
L 273.397341 138.03631 
L 273.897389 171.174154 
L 274.494849 122.768106 
L 275.007885 162.371572 
L 275.514428 169.705518 
L 276.059935 155.927488 
L 276.592453 160.599118 
L 277.689961 133.100573 
L 278.215986 148.580169 
L 278.748504 143.91835 
L 279.300505 144.555399 
L 279.852506 152.190705 
L 280.391519 150.05937 
L 280.937026 146.031284 
L 281.476039 156.989057 
L 282.02804 153.287644 
L 282.593029 147.113809 
L 283.164513 144.057921 
L 283.748984 144.706313 
L 284.300985 154.835643 
L 284.846492 158.800385 
L 285.34654 169.31514 
L 285.91153 147.829419 
L 286.476519 133.050364 
L 287.048002 137.899302 
L 287.638968 134.477342 
L 288.197463 139.419785 
L 288.768947 150.975357 
L 289.314454 144.534598 
L 289.892431 145.135721 
L 290.450927 135.062585 
L 291.028904 132.024133 
L 291.561423 162.256077 
L 292.671919 139.28643 
L 293.230414 135.923884 
L 293.762933 142.531426 
L 294.301946 153.920115 
L 294.860441 151.094618 
L 295.386465 145.456932 
L 295.925478 156.690736 
L 296.470985 140.719631 
L 297.009998 150.771073 
L 297.587975 134.938902 
L 298.133482 143.983562 
L 298.704966 141.129459 
L 299.269955 142.429748 
L 299.847933 137.686829 
L 300.412922 140.327141 
L 300.977911 148.173011 
L 301.523418 154.164477 
L 302.653397 141.475746 
L 303.211892 152.506748 
L 303.783375 146.299321 
L 304.880883 152.704063 
L 305.432884 152.477734 
L 305.984885 149.365552 
L 306.517404 158.84808 
L 307.069405 152.050495 
L 307.6279 152.213259 
L 308.173407 155.636046 
L 308.71242 150.574365 
L 309.23195 150.356766 
L 309.770963 150.666635 
L 310.342447 145.495405 
L 310.874965 157.900188 
L 311.420472 155.128765 
L 311.985462 148.993313 
L 312.537463 152.7337 
L 313.095958 152.404832 
L 313.654453 149.248379 
L 314.186972 149.79994 
L 314.758455 146.121031 
L 315.303962 155.649132 
L 315.842975 158.320227 
L 316.40147 152.624913 
L 316.959965 152.734019 
L 317.498978 152.390001 
L 318.057473 153.035469 
L 318.609474 155.886443 
L 319.167969 152.84496 
L 319.71997 152.953527 
L 320.265477 152.86518 
L 320.797996 153.402 
L 321.349997 153.008297 
L 321.876021 152.846443 
L 322.434517 148.724514 
L 322.960541 151.662771 
L 323.486566 150.002036 
L 324.01259 147.627764 
L 325.09711 157.298574 
L 325.629629 156.247684 
L 326.18163 149.426047 
L 326.759607 148.009077 
L 327.29862 164.177487 
L 327.863609 154.430713 
L 328.441587 152.55853 
L 329.039047 145.615641 
L 329.604036 156.809416 
L 330.182014 145.042158 
L 330.734015 157.754876 
L 331.29251 145.050216 
L 332.4095 156.066896 
L 332.97449 150.034196 
L 333.532985 154.271193 
L 334.084986 154.985795 
L 334.617504 152.859906 
L 335.176 153.140309 
L 335.702024 161.143603 
L 336.260519 152.233601 
L 336.81252 155.41323 
L 337.37751 150.523239 
L 337.961981 134.010754 
L 338.526971 149.817358 
L 339.111442 127.666122 
L 339.676432 143.085379 
L 340.267398 122.675607 
L 340.838881 139.693089 
L 341.423353 142.532819 
L 341.988342 151.875915 
L 342.553331 147.204481 
L 343.098838 156.7103 
L 343.702792 136.239706 
L 344.235311 160.556919 
L 344.780818 156.637922 
L 345.332819 155.511085 
L 346.443315 146.794875 
L 346.995316 153.267441 
L 347.560306 150.577461 
L 348.131789 148.561612 
L 348.690284 151.333714 
L 349.255273 150.951706 
L 349.833251 148.151751 
L 350.391746 153.150562 
L 350.943747 149.674716 
L 351.528219 145.122061 
L 352.08022 148.558287 
L 353.190716 151.851322 
L 353.723235 147.558851 
L 354.249259 149.041573 
L 354.794766 147.611312 
L 355.327285 158.686824 
L 355.872792 147.65822 
L 356.437781 148.747879 
L 356.989782 142.596131 
L 357.554772 148.657444 
L 358.100278 152.529638 
L 358.671762 148.764413 
L 359.256234 139.278929 
L 359.840705 141.532875 
L 360.3992 151.17792 
L 360.983672 141.010845 
L 361.568144 144.30062 
L 362.152616 142.043448 
L 362.704617 154.064682 
L 363.302077 136.127193 
L 363.886548 141.068047 
L 364.477514 139.455262 
L 365.06848 141.264051 
L 365.639963 147.107888 
L 366.217941 145.219596 
L 366.756954 156.545702 
L 367.321943 150.139102 
L 367.880438 151.895045 
L 368.458416 144.960477 
L 369.023405 152.362772 
L 369.542935 164.41257 
L 370.107925 152.068004 
L 370.679408 148.398128 
L 371.237903 151.009171 
L 371.78341 155.894993 
L 372.874424 155.933892 
L 373.426425 154.716308 
L 373.965438 158.25305 
L 374.517439 154.316226 
L 375.075934 152.48838 
L 375.634429 152.262026 
L 376.199419 147.176154 
L 376.757914 151.058004 
L 377.316409 152.683876 
L 377.881398 148.628642 
L 378.426905 154.266254 
L 378.972412 156.529618 
L 379.511425 157.382981 
L 380.608933 143.117243 
L 381.193405 141.801403 
L 381.771382 143.606082 
L 382.368842 138.146547 
L 382.933831 149.525023 
L 383.498821 150.193397 
L 384.057316 152.432209 
L 384.628799 148.356534 
L 385.193789 150.845277 
L 385.732801 157.890991 
L 386.297791 149.459959 
L 386.849792 153.081411 
L 387.414781 150.900572 
L 387.973276 151.856097 
L 388.518783 155.642139 
L 389.070784 153.80354 
L 389.622785 154.019174 
L 390.18128 151.005084 
L 390.74627 150.630405 
L 391.317753 146.454673 
L 391.908719 140.950751 
L 391.908719 140.950751 
" clip-path="url(#pe6ec0f574e)" style="fill: none; stroke: #1f77b4; stroke-width: 1.5; stroke-linecap: square"/>
   </g>
   <g id="line2d_15">
    <path d="M 138.722074 263.636166 
L 203.663374 251.86966 
L 268.604673 150.449091 
L 333.545973 152.611008 
L 398.487273 147.989006 
" clip-path="url(#pe6ec0f574e)" style="fill: none; stroke: #ff7f0e; stroke-width: 1.5; stroke-linecap: square"/>
   </g>
   <g id="line2d_16">
    <path d="M 73.845716 290.806778 
L 73.923645 289.208283 
L 74.001575 291.519138 
L 74.248352 287.385959 
L 74.339269 286.577904 
L 74.44967 290.475061 
L 74.56007 282.831908 
L 74.676964 283.733954 
L 74.800353 282.542542 
L 74.878282 288.413786 
L 75.021153 286.233892 
L 75.105577 287.41488 
L 75.274424 281.261496 
L 75.436777 290.769682 
L 75.547178 287.531491 
L 75.742001 275.840066 
L 75.826425 292.212836 
L 76.034237 264.654017 
L 76.313485 290.941891 
L 76.540779 282.37333 
L 76.768074 282.569851 
L 76.884968 286.964155 
L 77.118757 281.21416 
L 77.287604 282.627784 
L 77.365534 290.763772 
L 77.534381 276.928537 
L 77.605817 289.896685 
L 77.703229 287.455874 
L 77.76817 290.495404 
L 78.060406 281.438556 
L 78.372124 290.315021 
L 78.456548 289.420606 
L 78.55396 286.030732 
L 78.638383 290.53952 
L 78.761772 287.717761 
L 78.833207 291.271491 
L 79.002055 275.386863 
L 79.131937 286.45429 
L 79.326761 266.608165 
L 79.489114 291.888076 
L 79.638479 279.593669 
L 79.794339 276.786041 
L 80.190481 236.684729 
L 80.274904 287.047571 
L 80.417775 282.67954 
L 80.48921 291.204005 
L 80.625587 282.930878 
L 80.703517 289.160652 
L 80.97627 267.440399 
L 81.216553 288.461048 
L 81.307471 288.359386 
L 81.645166 261.283 
L 81.729589 287.962196 
L 81.83999 285.85032 
L 82.054296 289.480136 
L 82.145214 287.633749 
L 82.65825 245.618737 
L 82.853074 273.446928 
L 83.028415 269.439414 
L 83.125827 288.305911 
L 83.210251 287.254397 
L 83.340134 290.010624 
L 83.483004 284.608955 
L 83.768746 263.522959 
L 84.009029 257.738681 
L 84.197359 286.737769 
L 84.359712 286.666936 
L 84.522065 287.104312 
L 84.606489 288.253081 
L 84.736371 287.150529 
L 84.989643 256.456453 
L 85.255902 249.656495 
L 85.541644 290.243993 
L 85.697503 286.727947 
L 85.872844 287.639669 
L 86.152092 280.351615 
L 86.236516 286.608657 
L 86.405363 280.114695 
L 86.496281 291.911791 
L 86.580704 289.299493 
L 86.68461 288.057621 
L 86.892423 276.310335 
L 87.165176 288.299462 
L 87.327529 271.885775 
L 87.541836 273.184044 
L 87.606777 290.814107 
L 87.795107 281.444766 
L 87.873036 291.652718 
L 87.989931 286.538067 
L 88.106825 287.576539 
L 88.17826 289.917329 
L 88.327625 281.705547 
L 88.464002 289.872258 
L 88.55492 289.858082 
L 88.626355 290.665484 
L 88.782214 283.869484 
L 88.866638 289.014378 
L 88.951062 286.613161 
L 89.158874 264.377472 
L 89.301745 283.36819 
L 89.814781 235.570192 
L 90.003111 290.503973 
L 90.418735 212.402363 
L 90.64603 289.121127 
L 90.723959 290.930215 
L 90.938266 285.040271 
L 91.022689 286.833715 
L 91.236996 285.958917 
L 91.314925 290.971877 
L 91.54222 284.147483 
L 91.613655 291.738943 
L 91.691585 288.573385 
L 91.853938 275.848138 
L 92.042268 291.975287 
L 92.126691 289.377443 
L 92.243586 282.138318 
L 92.328009 292.231425 
L 92.399445 289.935783 
L 92.483869 287.933665 
L 92.574786 289.096974 
L 92.665704 287.333005 
L 92.750128 291.531529 
L 92.860528 285.052434 
L 93.081329 286.2132 
L 93.165752 289.086179 
L 93.360576 268.677167 
L 93.425517 290.200697 
L 93.509941 288.293459 
L 93.828153 259.027613 
L 93.997001 285.459283 
L 94.354178 275.735978 
L 94.529519 272.575309 
L 94.646414 290.250146 
L 94.75032 288.122528 
L 94.821755 290.526576 
L 94.919167 285.107705 
L 95.010085 288.930465 
L 95.152956 278.573376 
L 95.380251 277.350447 
L 95.497145 288.647139 
L 95.653004 286.625145 
L 95.789381 281.790836 
L 95.880299 290.004902 
L 96.263452 247.957689 
L 96.672582 224.712402 
L 96.795971 284.064059 
L 96.945336 282.637589 
L 97.003783 291.034353 
L 97.179125 279.372291 
L 97.296019 286.096895 
L 97.43889 282.775704 
L 97.672678 291.708596 
L 97.984397 282.800634 
L 98.140256 289.16265 
L 98.328586 289.77665 
L 98.63381 263.009839 
L 98.705245 291.922614 
L 98.997481 282.699212 
L 99.101387 286.328923 
L 99.205293 286.04321 
L 99.406611 266.300281 
L 99.517011 286.265041 
L 99.6404 282.232877 
L 100.172918 173.992494 
L 100.387225 289.961209 
L 100.53659 281.287383 
L 100.653484 286.530229 
L 100.900261 287.189159 
L 101.198991 290.974466 
L 101.270426 290.35375 
L 101.65358 284.113107 
L 101.835416 288.850447 
L 101.939322 287.489433 
L 102.166616 290.750458 
L 102.634194 261.888821 
L 103.296595 233.226589 
L 103.355042 291.401849 
L 103.504407 287.507158 
L 103.614807 288.761877 
L 103.738196 285.127155 
L 103.803137 290.482551 
L 103.900549 287.335425 
L 104.023938 277.746497 
L 104.335656 263.148124 
L 104.498009 292.050267 
L 104.575939 288.711411 
L 104.686339 290.766238 
L 104.796739 287.093614 
L 104.920127 288.553425 
L 105.12794 284.471511 
L 105.23834 285.395983 
L 105.34874 283.664273 
L 105.420175 289.32526 
L 105.543564 280.686815 
L 105.7254 290.72749 
L 105.939706 272.848252 
L 106.225448 258.744018 
L 106.413777 278.783795 
L 106.790437 286.951088 
L 106.881355 287.558138 
L 107.050202 272.814252 
L 107.498297 246.684314 
L 107.589215 290.016677 
L 107.680133 287.903579 
L 107.777545 287.700692 
L 108.017827 262.366029 
L 108.089263 289.653034 
L 108.212651 288.821121 
L 108.342534 280.263443 
L 108.589311 274.719868 
L 108.66724 288.78118 
L 108.790629 283.198488 
L 108.927006 283.087854 
L 109.225736 290.467048 
L 109.34263 288.105979 
L 109.433548 289.253171 
L 109.810207 273.690962 
L 109.927102 288.569406 
L 110.076467 276.98866 
L 110.141408 290.363893 
L 110.232326 287.999653 
L 110.303761 289.243055 
L 110.375197 288.688907 
L 110.576515 285.239384 
L 110.862256 254.146257 
L 111.070069 288.046125 
L 111.160986 290.379608 
L 111.264892 285.811095 
L 111.401269 287.700981 
L 111.576611 284.686981 
L 111.738964 286.232092 
L 111.803905 291.244336 
L 111.933788 282.618643 
L 111.998729 290.460395 
L 112.232518 277.89899 
L 112.492283 247.076281 
L 112.55073 291.503834 
L 112.648142 290.626746 
L 112.842966 283.068225 
L 113.057272 289.884407 
L 113.278073 269.719118 
L 113.401461 288.772001 
L 113.667721 283.650835 
L 113.836568 284.125301 
L 114.115815 269.328781 
L 114.304145 287.14173 
L 114.375581 291.702557 
L 114.687299 240.554319 
L 114.771723 289.500261 
L 114.895111 286.596403 
L 115.31723 203.502191 
L 115.518548 285.279402 
L 115.823772 287.520039 
L 115.999113 282.675187 
L 116.077043 288.446398 
L 116.232902 284.42053 
L 116.447208 269.889115 
L 116.531632 291.641744 
L 116.778409 286.076431 
L 116.836856 290.923405 
L 117.103115 280.619689 
L 117.200527 291.741766 
L 117.343398 287.192088 
L 117.421328 291.974211 
L 117.525234 286.605303 
L 117.590175 290.092366 
L 117.765517 269.967202 
L 117.888905 293.046723 
L 117.96034 291.126634 
L 118.122694 281.232085 
L 118.356482 291.697767 
L 118.616248 288.324031 
L 118.778601 281.731223 
L 118.869519 290.080263 
L 118.979919 284.166244 
L 119.04486 291.026126 
L 119.12279 289.466758 
L 119.181237 291.179975 
L 119.298131 283.33901 
L 119.363072 290.438839 
L 119.518932 284.368999 
L 119.629332 290.402233 
L 119.850132 267.92478 
L 119.928062 292.306696 
L 120.122886 273.526712 
L 120.23978 286.86705 
L 120.408627 272.272079 
L 120.694369 288.379947 
L 120.791781 287.3652 
L 120.902181 287.68418 
L 120.980111 289.071198 
L 121.064535 288.105488 
L 121.415218 251.852718 
L 121.564583 282.541679 
L 121.752912 293.762094 
L 121.863313 282.782093 
L 121.947736 288.78117 
L 122.155548 278.106868 
L 122.272443 292.646627 
L 122.434796 279.993944 
L 122.590655 290.338531 
L 122.843926 280.75295 
L 122.915362 290.971971 
L 122.993291 288.684768 
L 123.155644 288.075963 
L 123.350468 280.182441 
L 123.52581 279.924771 
L 123.603739 291.163931 
L 123.74661 281.800219 
L 123.876493 283.981064 
L 124.058328 291.972818 
L 124.162235 289.044684 
L 124.370047 259.297395 
L 124.668777 289.339005 
L 124.805153 283.141378 
L 124.870095 290.91009 
L 124.967507 288.201483 
L 125.136354 273.27121 
L 125.344166 285.528521 
L 125.590943 252.527094 
L 125.818238 290.12854 
L 125.896167 291.560518 
L 126.292309 275.801802 
L 126.350756 291.742262 
L 126.539086 289.087966 
L 126.610522 290.400413 
L 126.73391 288.48372 
L 126.883275 276.438662 
L 127.000169 285.808362 
L 127.246946 275.767101 
L 127.389817 278.038262 
L 127.480735 289.062408 
L 127.6301 277.461688 
L 127.792453 289.382141 
L 127.909348 283.852994 
L 128.032736 284.597055 
L 128.363937 244.778568 
L 129.000361 205.672021 
L 129.084785 290.400668 
L 129.370527 258.719288 
L 129.545868 291.935664 
L 130.065399 231.902994 
L 130.175799 288.182812 
L 130.396599 257.27882 
L 130.461541 290.80694 
L 130.662859 280.930522 
L 130.747282 290.455885 
L 130.818718 289.24717 
L 130.955094 291.603931 
L 131.175895 284.100888 
L 131.273307 288.430169 
L 131.448648 283.157396 
L 131.630484 287.642057 
L 131.805826 271.923228 
L 131.909732 288.671688 
L 132.072085 279.704267 
L 132.364321 240.852371 
L 132.70851 228.114118 
L 133.059193 235.955353 
L 133.143616 287.229526 
L 133.364417 282.421896 
L 133.513782 291.736693 
L 133.585217 290.173957 
L 133.676135 288.520762 
L 133.922912 270.465657 
L 134.039806 282.440766 
L 134.182677 276.650969 
L 134.280089 291.588572 
L 134.358019 289.599213 
L 134.604796 283.512732 
L 134.728184 286.728844 
L 135.000937 261.666082 
L 135.215244 269.276317 
L 135.338632 284.394286 
L 135.462021 283.727715 
L 135.53995 289.63162 
L 135.851668 273.387207 
L 135.988045 288.090389 
L 136.124422 285.050513 
L 136.195857 290.071172 
L 136.481599 279.285278 
L 136.598493 287.782982 
L 136.864753 268.208759 
L 137.027106 286.733463 
L 137.131012 285.481455 
L 137.306354 273.963596 
L 137.553131 269.255564 
L 137.884331 289.523379 
L 137.968755 288.753496 
L 138.15059 269.027854 
L 138.319438 272.672678 
L 138.579203 282.432943 
L 138.767533 280.060042 
L 139.053275 255.168904 
L 139.150687 288.317455 
L 139.287063 283.251594 
L 139.390969 286.868379 
L 139.527346 277.090139 
L 139.735158 290.601115 
L 139.897511 283.914314 
L 139.955959 291.874364 
L 140.033888 291.747065 
L 140.144288 285.904107 
L 140.248194 286.601979 
L 140.339112 286.429586 
L 140.501466 288.633534 
L 140.559913 292.055454 
L 140.72876 279.285729 
L 140.962549 277.820065 
L 141.040478 287.982322 
L 141.131396 286.267023 
L 141.24829 289.851688 
L 141.371679 287.011681 
L 141.631444 268.060769 
L 141.767821 279.349185 
L 141.956151 267.50564 
L 142.060057 286.620102 
L 142.22241 278.211493 
L 142.287351 291.034303 
L 142.495163 274.271432 
L 142.722458 290.375726 
L 143.183541 211.351469 
L 143.52773 241.088117 
L 143.683589 274.69092 
L 144.01479 256.721656 
L 144.12519 289.64144 
L 144.443402 276.676565 
L 144.683685 281.278891 
L 144.897992 279.532016 
L 145.053851 290.101432 
L 145.125286 290.378683 
L 145.235686 291.367717 
L 145.346087 285.137367 
L 145.709758 242.509239 
L 145.904582 289.583234 
L 145.989005 288.321556 
L 146.099406 290.294809 
L 146.235782 284.994768 
L 146.508536 284.164844 
L 146.73583 285.759496 
L 146.891689 290.241886 
L 147.073525 272.649353 
L 147.157949 292.776993 
L 147.229384 288.896401 
L 147.339784 285.162157 
L 147.541102 267.72495 
L 147.651503 285.239883 
L 147.839832 273.169168 
L 147.950233 285.138604 
L 148.112586 284.835016 
L 148.248963 278.547266 
L 148.365857 287.968875 
L 148.463269 286.939338 
L 148.619128 279.008305 
L 148.736022 286.400602 
L 149.067223 255.757757 
L 149.326988 288.579607 
L 149.417906 288.833487 
L 149.872495 213.454301 
L 149.982895 282.547869 
L 150.112778 289.850268 
L 150.255649 282.609919 
L 150.833626 177.76979 
L 151.379133 292.147776 
L 151.645393 289.144121 
L 151.723322 290.708496 
L 151.820734 287.81878 
L 152.022052 275.832688 
L 152.197394 284.754678 
L 152.392218 285.273225 
L 152.677959 277.461827 
L 152.911748 290.554177 
L 153.223466 281.937577 
L 153.34036 287.261646 
L 153.580643 279.427733 
L 153.697538 285.388919 
L 154.028738 222.530359 
L 154.217068 282.304665 
L 154.359939 276.052079 
L 154.515798 277.75253 
L 154.704128 289.852294 
L 154.853493 287.707214 
L 155.191188 262.665002 
L 155.5094 287.852231 
L 155.899048 280.595864 
L 156.009448 285.685108 
L 156.184789 270.450121 
L 156.490014 285.715551 
L 156.613402 281.223904 
L 156.749779 286.676554 
L 156.964085 280.910422 
L 157.03552 289.861846 
L 157.171897 280.46031 
L 157.321262 278.556904 
L 157.509592 272.370927 
L 157.697922 288.102141 
L 157.82131 290.142346 
L 157.938205 288.406339 
L 158.113546 275.586012 
L 158.204464 288.660594 
L 158.470723 242.744908 
L 158.749971 268.474272 
L 159.01623 280.994244 
L 159.288984 280.669757 
L 159.83449 192.105022 
L 160.107244 290.591533 
L 160.405974 271.264882 
L 160.80861 244.096021 
L 160.938493 281.980737 
L 161.438541 194.860419 
L 162.042495 284.180232 
L 162.373695 233.353278 
L 162.49059 282.855299 
L 162.841273 289.390373 
L 162.997132 287.478817 
L 163.191956 287.52169 
L 163.477697 239.395019 
L 163.549133 289.660004 
L 163.79591 264.450026 
L 164.029698 288.532114 
L 164.308946 247.79209 
L 164.39337 288.865149 
L 164.562217 286.962708 
L 164.821982 242.06595 
L 165.055771 277.049577 
L 165.244101 272.700232 
L 165.464901 259.176086 
L 165.718172 272.047677 
L 165.88702 273.221188 
L 165.990926 291.827105 
L 166.127302 285.549011 
L 166.276667 284.724768 
L 166.367585 289.19973 
L 166.523444 288.414541 
L 166.952057 193.955569 
L 167.055963 284.195297 
L 167.322222 238.332656 
L 167.530034 286.66731 
L 167.640435 282.749732 
L 167.770317 292.315644 
L 167.939165 282.577972 
L 168.049565 284.721094 
L 168.276859 281.077981 
L 168.393754 285.895676 
L 168.705472 241.620662 
L 168.997708 287.050784 
L 169.20552 253.573823 
L 169.491262 260.859527 
L 169.783498 238.877398 
L 170.049757 288.398 
L 170.575781 248.870864 
L 170.783594 275.189299 
L 171.634325 164.214085 
L 171.796678 293.180497 
L 172.264255 226.953958 
L 172.537009 250.953727 
L 173.069527 238.022083 
L 173.19941 280.615372 
L 173.71894 263.915319 
L 174.335883 152.714398 
L 174.712542 250.351801 
L 175.017766 229.751554 
L 175.206096 281.182991 
L 175.394426 275.902229 
L 175.939933 178.980438 
L 176.329581 276.067116 
L 177.290712 218.1566 
L 177.433583 275.005547 
L 177.771277 230.8632 
L 178.31029 218.397755 
L 178.427185 284.670258 
L 178.634997 265.033078 
L 178.98568 215.879781 
L 179.076598 288.621353 
L 179.20648 285.880951 
L 179.563657 220.687701 
L 179.726011 289.459778 
L 179.888364 276.116558 
L 180.303988 216.93705 
L 180.570247 285.665062 
L 180.881966 282.86677 
L 181.388508 211.458049 
L 181.700226 289.930278 
L 181.959991 277.607287 
L 182.19378 248.669206 
L 182.486016 237.985648 
L 182.953593 246.847477 
L 183.232841 238.875568 
L 183.473124 248.090056 
L 183.992654 178.113906 
L 184.116042 289.203448 
L 184.28489 286.441931 
L 184.58362 265.737935 
L 185.427857 159.09788 
L 185.830493 233.940774 
L 186.252611 230.442673 
L 186.538353 235.854903 
L 186.876048 222.213464 
L 186.960471 289.442386 
L 187.265695 232.308494 
L 187.830685 287.049996 
L 188.044991 288.826693 
L 188.629463 145.949775 
L 188.752851 288.076926 
L 189.103534 226.271855 
L 189.213934 289.197276 
L 189.467206 263.325994 
L 190.129607 227.313085 
L 190.317937 290.929442 
L 190.610172 236.913573 
L 191.67521 170.489189 
L 191.947963 237.395679 
L 192.032387 289.097348 
L 192.27267 281.143227 
L 192.538929 280.898997 
L 193.077942 202.761346 
L 193.357189 284.037272 
L 193.961143 233.467708 
L 194.17545 288.136805 
L 194.688486 222.769831 
L 194.909286 250.159373 
L 195.259969 228.535665 
L 195.487264 248.966547 
L 195.993806 207.773821 
L 196.363972 226.962344 
L 196.779596 223.310439 
L 196.993902 290.482521 
L 197.292632 283.404635 
L 197.727739 204.045346 
L 198.273246 251.53047 
L 198.487552 253.448417 
L 198.701858 290.434378 
L 199.338283 176.579738 
L 199.617531 237.690832 
L 200.046143 211.872913 
L 200.611133 206.501921 
L 201.052733 189.691761 
L 201.416405 233.906804 
L 201.8645 190.917575 
L 202.57236 234.037646 
L 202.708737 276.343397 
L 203.072408 212.93797 
L 203.319185 287.127017 
L 203.754291 223.130847 
L 204.117963 212.929576 
L 204.36474 245.972792 
L 204.838811 208.386912 
L 205.585636 171.326738 
L 205.877872 286.188917 
L 206.124649 246.548308 
L 206.527285 200.239879 
L 206.806533 238.93796 
L 207.248133 231.204426 
L 207.858582 196.811998 
L 208.189782 236.057193 
L 208.566442 234.982926 
L 208.832701 240.158708 
L 209.17689 222.855394 
L 209.443149 241.553354 
L 210.254916 142.139108 
L 210.469222 253.216364 
L 210.715999 246.362381 
L 210.962776 246.224612 
L 211.384894 263.395369 
L 211.800518 195.295868 
L 212.57332 200.504771 
L 212.87205 233.28294 
L 213.144803 238.347658 
L 213.625369 172.481518 
L 213.872146 245.526154 
L 214.17737 230.746093 
L 214.560524 204.774746 
L 214.904713 235.257899 
L 215.508667 198.919461 
L 216.021703 182.072473 
L 216.443821 214.991233 
L 216.807493 225.779159 
L 217.353 212.228347 
L 217.65173 233.117327 
L 218.236201 196.741225 
L 218.528437 232.3498 
L 218.801191 240.168691 
L 219.281756 174.811928 
L 219.749334 187.381497 
L 220.320817 233.481572 
L 220.658512 221.663266 
L 220.911783 242.97609 
L 221.541713 142.47085 
L 221.846938 229.239019 
L 222.119691 237.396453 
L 222.476868 277.293917 
L 222.834045 231.492146 
L 223.126281 233.750277 
L 223.5484 206.872268 
L 223.821153 243.824453 
L 224.106895 236.135732 
L 224.496543 206.278606 
L 225.256356 204.08674 
L 225.457674 254.237311 
L 225.684968 249.453438 
L 225.905769 250.028447 
L 226.165534 241.399669 
L 226.34737 258.683931 
L 226.847418 172.503261 
L 227.068218 249.424623 
L 227.282524 252.575715 
L 228.919045 166.286661 
L 229.172316 244.293625 
L 229.419093 243.198856 
L 230.230859 101.899788 
L 230.977684 242.505079 
L 231.471238 207.512667 
L 233.055806 53.568 
L 233.614301 139.781607 
L 234.036419 228.628617 
L 234.315667 235.905153 
L 234.601409 229.938643 
L 235.15341 146.558473 
L 235.705411 146.544264 
L 236.283388 138.541437 
L 236.848378 140.663305 
L 237.419861 145.332601 
L 237.608191 257.555676 
L 238.17318 137.246938 
L 238.725181 151.146612 
L 239.010923 235.073287 
L 239.212241 253.127532 
L 239.433042 251.548711 
L 239.647348 252.260686 
L 239.998031 242.88717 
L 240.537044 154.872569 
L 240.790315 243.109707 
L 241.400763 124.329151 
L 241.602081 253.195005 
L 242.225517 122.027592 
L 242.835966 133.976612 
L 243.069754 245.503615 
L 243.576296 180.185738 
L 244.453004 196.74541 
L 244.881617 199.253963 
L 245.440112 141.257164 
L 246.089525 122.348975 
L 246.596067 171.483941 
L 247.180539 133.044714 
L 247.823457 123.833818 
L 248.394941 138.1468 
L 249.544402 148.73503 
L 250.089909 145.270755 
L 250.706851 124.516859 
L 251.862806 142.108504 
L 252.65509 111.969762 
L 253.207091 144.753975 
L 253.798057 136.303894 
L 254.434482 134.864477 
L 255.005965 143.617531 
L 255.577449 133.448498 
L 256.16192 137.11934 
L 256.720415 150.094044 
L 257.278911 144.006615 
L 257.791947 166.515726 
L 258.369924 139.696585 
L 258.96089 136.140623 
L 259.55835 124.407245 
L 260.136328 137.825139 
L 260.746776 128.793713 
L 261.285789 167.246322 
L 261.883249 124.50953 
L 262.331344 190.509828 
L 262.76645 194.507589 
L 263.266498 167.716358 
L 263.812005 148.49369 
L 264.383489 137.894831 
L 264.93549 149.794207 
L 265.545938 130.332656 
L 266.740858 138.448873 
L 267.292859 153.770725 
L 267.857848 138.027875 
L 268.416344 157.352075 
L 269.546322 141.563331 
L 270.1243 138.19298 
L 270.734748 118.827006 
L 271.338702 128.564092 
L 271.936162 130.28356 
L 272.54661 119.346137 
L 273.150564 130.831845 
L 273.780495 108.276178 
L 274.384449 122.602894 
L 275.001391 131.734803 
L 275.61184 136.635849 
L 276.228782 134.230408 
L 276.800265 133.931931 
L 277.384737 137.658486 
L 277.962715 137.719628 
L 278.540692 133.194849 
L 279.105681 142.249033 
L 279.696647 135.33466 
L 280.248648 144.22423 
L 281.404604 135.029484 
L 281.982581 135.329812 
L 282.541076 153.963068 
L 283.086583 156.073996 
L 283.645078 156.174897 
L 284.197079 152.783761 
L 284.742586 148.561686 
L 285.294587 149.939527 
L 285.840094 150.9146 
L 286.385601 146.606503 
L 286.937602 155.215498 
L 287.496097 153.913834 
L 288.03511 160.102475 
L 288.580617 145.793498 
L 289.139112 140.07947 
L 289.71709 149.70817 
L 290.282079 149.070211 
L 290.847068 149.775126 
L 291.39907 149.130067 
L 291.964059 146.303416 
L 292.548531 141.050244 
L 293.107026 146.976662 
L 293.659027 146.281313 
L 294.23051 144.767118 
L 294.814982 142.087171 
L 295.392959 143.967642 
L 295.944961 149.575814 
L 296.522938 146.736452 
L 297.074939 148.602935 
L 297.646423 151.205699 
L 298.185435 146.548687 
L 298.756919 144.288861 
L 299.328402 153.456025 
L 299.886897 156.273767 
L 300.432404 152.934167 
L 300.990899 154.802747 
L 301.568877 146.665491 
L 302.133866 144.010374 
L 302.666385 164.869093 
L 303.244363 144.322486 
L 303.815846 152.21031 
L 304.374341 147.744266 
L 304.932836 141.370619 
L 305.491332 138.01514 
L 306.056321 139.902212 
L 306.627804 133.747974 
L 307.770771 147.275155 
L 308.355243 132.792261 
L 308.946209 122.857984 
L 309.537175 123.677082 
L 310.102164 149.185264 
L 310.654165 152.755672 
L 311.206166 151.181139 
L 311.758167 155.081242 
L 312.29718 150.504559 
L 312.836193 153.223104 
L 313.388194 146.739531 
L 313.940195 150.2558 
L 314.49869 150.279958 
L 315.037703 147.734332 
L 315.602692 154.756805 
L 316.174175 134.414546 
L 316.739165 137.372678 
L 317.310648 137.444048 
L 317.888626 137.228447 
L 318.473097 141.297816 
L 319.051075 141.942768 
L 319.629053 139.82759 
L 320.20703 143.664677 
L 320.791502 137.983963 
L 321.337009 150.604912 
L 321.882516 150.095657 
L 322.428023 147.198765 
L 322.980024 155.760409 
L 323.52553 153.358089 
L 324.071037 154.560637 
L 324.623038 151.939636 
L 325.188028 151.733854 
L 325.740029 150.857823 
L 326.298524 152.09032 
L 326.850525 155.030329 
L 327.40902 155.677238 
L 327.967515 158.120481 
L 328.506528 149.704255 
L 329.052035 155.717022 
L 329.604036 154.668286 
L 330.143049 156.210987 
L 330.682062 151.943092 
L 331.221074 148.734596 
L 331.766581 149.782472 
L 332.338065 137.712839 
L 332.89656 155.61563 
L 333.461549 147.287628 
L 334.020045 150.267797 
L 334.57854 147.009092 
L 335.117552 149.032409 
L 335.669554 154.193836 
L 336.208566 154.272216 
L 337.319063 150.434606 
L 338.423065 154.793083 
L 338.975066 151.613012 
L 339.527067 149.843073 
L 340.079068 152.113865 
L 340.631069 153.021883 
L 341.189564 153.243888 
L 341.735071 152.930826 
L 342.287072 149.60826 
L 342.884532 143.417915 
L 343.449521 146.474843 
L 343.995028 161.663562 
L 344.566512 149.302887 
L 345.144489 149.050729 
L 345.702984 151.467995 
L 346.274468 147.857115 
L 346.852445 153.120876 
L 347.430423 149.76647 
L 348.0084 153.647304 
L 348.57339 152.888176 
L 349.131885 155.652515 
L 349.69038 156.431068 
L 350.242381 154.729067 
L 350.800876 154.650491 
L 351.359372 152.049963 
L 351.917867 152.016321 
L 352.469868 155.193264 
L 353.021869 153.537255 
L 353.580364 149.6562 
L 354.132365 151.847784 
L 354.697354 150.288115 
L 355.25585 151.299311 
L 355.820839 153.072329 
L 356.385828 149.799039 
L 356.983288 130.896599 
L 357.580748 138.070033 
L 358.145737 155.375354 
L 358.710727 158.521276 
L 359.256234 165.710836 
L 359.808235 162.453637 
L 360.425177 143.37669 
L 360.938213 155.610348 
L 361.457744 154.216144 
L 361.996756 152.005921 
L 362.522781 152.650488 
L 363.0553 154.922729 
L 363.594312 147.498397 
L 364.120337 151.494512 
L 364.665844 146.95695 
L 365.276292 126.256252 
L 365.834787 159.119893 
L 366.438741 142.778974 
L 367.042695 147.270045 
L 367.64665 147.85171 
L 368.185662 155.087163 
L 368.731169 150.902382 
L 369.270182 150.308384 
L 369.815689 152.68675 
L 370.354702 154.201714 
L 370.893714 157.056038 
L 371.458704 154.910011 
L 372.023693 154.72485 
L 372.588682 153.301705 
L 373.153672 153.187382 
L 373.718661 152.133928 
L 374.277156 155.186565 
L 374.835651 153.903221 
L 375.400641 154.298218 
L 375.952642 155.426726 
L 376.446196 174.56307 
L 376.991703 153.690077 
L 377.543704 150.666332 
L 378.102199 150.398827 
L 378.667188 147.281887 
L 379.212695 149.005933 
L 379.712743 176.345081 
L 380.271238 143.672448 
L 380.810251 156.658592 
L 381.34277 160.648009 
L 381.914253 136.84082 
L 382.446772 151.537089 
L 382.992279 150.294363 
L 383.537786 146.16002 
L 384.076798 147.418395 
L 384.628799 149.857134 
L 385.765272 145.474473 
L 386.336756 142.423827 
L 386.927721 133.634552 
L 387.518687 145.280976 
L 388.129135 138.126646 
L 389.291585 152.533855 
L 389.856574 149.982513 
L 390.421563 148.741843 
L 391.577518 143.052187 
L 392.149002 149.523164 
L 392.733474 135.855789 
L 393.298463 147.54533 
L 393.298463 147.54533 
" clip-path="url(#pe6ec0f574e)" style="fill: none; stroke: #2ca02c; stroke-width: 1.5; stroke-linecap: square"/>
   </g>
   <g id="patch_3">
    <path d="M 57.6 307.584 
L 57.6 41.472 
" style="fill: none; stroke: #000000; stroke-width: 0.8; stroke-linejoin: miter; stroke-linecap: square"/>
   </g>
   <g id="patch_4">
    <path d="M 414.72 307.584 
L 414.72 41.472 
" style="fill: none; stroke: #000000; stroke-width: 0.8; stroke-linejoin: miter; stroke-linecap: square"/>
   </g>
   <g id="patch_5">
    <path d="M 57.6 307.584 
L 414.72 307.584 
" style="fill: none; stroke: #000000; stroke-width: 0.8; stroke-linejoin: miter; stroke-linecap: square"/>
   </g>
   <g id="patch_6">
    <path d="M 57.6 41.472 
L 414.72 41.472 
" style="fill: none; stroke: #000000; stroke-width: 0.8; stroke-linejoin: miter; stroke-linecap: square"/>
   </g>
   <g id="text_16">
    <!-- learning curve -->
    <g transform="translate(192.96375 35.472) scale(0.12 -0.12)">
     <defs>
      <path id="DejaVuSans-6c" d="M 603 4863 
L 1178 4863 
L 1178 0 
L 603 0 
L 603 4863 
z
" transform="scale(0.015625)"/>
      <path id="DejaVuSans-67" d="M 2906 1791 
Q 2906 2416 2648 2759 
Q 2391 3103 1925 3103 
Q 1463 3103 1205 2759 
Q 947 2416 947 1791 
Q 947 1169 1205 825 
Q 1463 481 1925 481 
Q 2391 481 2648 825 
Q 2906 1169 2906 1791 
z
M 3481 434 
Q 3481 -459 3084 -895 
Q 2688 -1331 1869 -1331 
Q 1566 -1331 1297 -1286 
Q 1028 -1241 775 -1147 
L 775 -588 
Q 1028 -725 1275 -790 
Q 1522 -856 1778 -856 
Q 2344 -856 2625 -561 
Q 2906 -266 2906 331 
L 2906 616 
Q 2728 306 2450 153 
Q 2172 0 1784 0 
Q 1141 0 747 490 
Q 353 981 353 1791 
Q 353 2603 747 3093 
Q 1141 3584 1784 3584 
Q 2172 3584 2450 3431 
Q 2728 3278 2906 2969 
L 2906 3500 
L 3481 3500 
L 3481 434 
z
" transform="scale(0.015625)"/>
      <path id="DejaVuSans-63" d="M 3122 3366 
L 3122 2828 
Q 2878 2963 2633 3030 
Q 2388 3097 2138 3097 
Q 1578 3097 1268 2742 
Q 959 2388 959 1747 
Q 959 1106 1268 751 
Q 1578 397 2138 397 
Q 2388 397 2633 464 
Q 2878 531 3122 666 
L 3122 134 
Q 2881 22 2623 -34 
Q 2366 -91 2075 -91 
Q 1284 -91 818 406 
Q 353 903 353 1747 
Q 353 2603 823 3093 
Q 1294 3584 2113 3584 
Q 2378 3584 2631 3529 
Q 2884 3475 3122 3366 
z
" transform="scale(0.015625)"/>
      <path id="DejaVuSans-75" d="M 544 1381 
L 544 3500 
L 1119 3500 
L 1119 1403 
Q 1119 906 1312 657 
Q 1506 409 1894 409 
Q 2359 409 2629 706 
Q 2900 1003 2900 1516 
L 2900 3500 
L 3475 3500 
L 3475 0 
L 2900 0 
L 2900 538 
Q 2691 219 2414 64 
Q 2138 -91 1772 -91 
Q 1169 -91 856 284 
Q 544 659 544 1381 
z
M 1991 3584 
L 1991 3584 
z
" transform="scale(0.015625)"/>
      <path id="DejaVuSans-76" d="M 191 3500 
L 800 3500 
L 1894 563 
L 2988 3500 
L 3597 3500 
L 2284 0 
L 1503 0 
L 191 3500 
z
" transform="scale(0.015625)"/>
     </defs>
     <use xlink:href="#DejaVuSans-6c"/>
     <use xlink:href="#DejaVuSans-65" x="27.783203"/>
     <use xlink:href="#DejaVuSans-61" x="89.306641"/>
     <use xlink:href="#DejaVuSans-72" x="150.585938"/>
     <use xlink:href="#DejaVuSans-6e" x="189.949219"/>
     <use xlink:href="#DejaVuSans-69" x="253.328125"/>
     <use xlink:href="#DejaVuSans-6e" x="281.111328"/>
     <use xlink:href="#DejaVuSans-67" x="344.490234"/>
     <use xlink:href="#DejaVuSans-20" x="407.966797"/>
     <use xlink:href="#DejaVuSans-63" x="439.753906"/>
     <use xlink:href="#DejaVuSans-75" x="494.734375"/>
     <use xlink:href="#DejaVuSans-72" x="558.113281"/>
     <use xlink:href="#DejaVuSans-76" x="599.226562"/>
     <use xlink:href="#DejaVuSans-65" x="658.40625"/>
    </g>
   </g>
   <g id="legend_1">
    <g id="patch_7">
     <path d="M 305.705938 93.506375 
L 407.72 93.506375 
Q 409.72 93.506375 409.72 91.506375 
L 409.72 48.472 
Q 409.72 46.472 407.72 46.472 
L 305.705938 46.472 
Q 303.705938 46.472 303.705938 48.472 
L 303.705938 91.506375 
Q 303.705938 93.506375 305.705938 93.506375 
z
" style="fill: #ffffff; opacity: 0.8; stroke: #cccccc; stroke-linejoin: miter"/>
    </g>
    <g id="line2d_17">
     <path d="M 307.705938 54.570438 
L 317.705938 54.570438 
L 327.705938 54.570438 
" style="fill: none; stroke: #1f77b4; stroke-width: 1.5; stroke-linecap: square"/>
    </g>
    <g id="text_17">
     <!-- source-source -->
     <g transform="translate(335.705938 58.070438) scale(0.1 -0.1)">
      <defs>
       <path id="DejaVuSans-2d" d="M 313 2009 
L 1997 2009 
L 1997 1497 
L 313 1497 
L 313 2009 
z
" transform="scale(0.015625)"/>
      </defs>
      <use xlink:href="#DejaVuSans-73"/>
      <use xlink:href="#DejaVuSans-6f" x="52.099609"/>
      <use xlink:href="#DejaVuSans-75" x="113.28125"/>
      <use xlink:href="#DejaVuSans-72" x="176.660156"/>
      <use xlink:href="#DejaVuSans-63" x="215.523438"/>
      <use xlink:href="#DejaVuSans-65" x="270.503906"/>
      <use xlink:href="#DejaVuSans-2d" x="332.027344"/>
      <use xlink:href="#DejaVuSans-73" x="368.111328"/>
      <use xlink:href="#DejaVuSans-6f" x="420.210938"/>
      <use xlink:href="#DejaVuSans-75" x="481.392578"/>
      <use xlink:href="#DejaVuSans-72" x="544.771484"/>
      <use xlink:href="#DejaVuSans-63" x="583.634766"/>
      <use xlink:href="#DejaVuSans-65" x="638.615234"/>
     </g>
    </g>
    <g id="line2d_18">
     <path d="M 307.705938 69.248563 
L 317.705938 69.248563 
L 327.705938 69.248563 
" style="fill: none; stroke: #ff7f0e; stroke-width: 1.5; stroke-linecap: square"/>
    </g>
    <g id="text_18">
     <!-- source-target -->
     <g transform="translate(335.705938 72.748563) scale(0.1 -0.1)">
      <use xlink:href="#DejaVuSans-73"/>
      <use xlink:href="#DejaVuSans-6f" x="52.099609"/>
      <use xlink:href="#DejaVuSans-75" x="113.28125"/>
      <use xlink:href="#DejaVuSans-72" x="176.660156"/>
      <use xlink:href="#DejaVuSans-63" x="215.523438"/>
      <use xlink:href="#DejaVuSans-65" x="270.503906"/>
      <use xlink:href="#DejaVuSans-2d" x="332.027344"/>
      <use xlink:href="#DejaVuSans-74" x="368.111328"/>
      <use xlink:href="#DejaVuSans-61" x="407.320312"/>
      <use xlink:href="#DejaVuSans-72" x="468.599609"/>
      <use xlink:href="#DejaVuSans-67" x="507.962891"/>
      <use xlink:href="#DejaVuSans-65" x="571.439453"/>
      <use xlink:href="#DejaVuSans-74" x="632.962891"/>
     </g>
    </g>
    <g id="line2d_19">
     <path d="M 307.705938 83.926688 
L 317.705938 83.926688 
L 327.705938 83.926688 
" style="fill: none; stroke: #2ca02c; stroke-width: 1.5; stroke-linecap: square"/>
    </g>
    <g id="text_19">
     <!-- target-target -->
     <g transform="translate(335.705938 87.426688) scale(0.1 -0.1)">
      <use xlink:href="#DejaVuSans-74"/>
      <use xlink:href="#DejaVuSans-61" x="39.208984"/>
      <use xlink:href="#DejaVuSans-72" x="100.488281"/>
      <use xlink:href="#DejaVuSans-67" x="139.851562"/>
      <use xlink:href="#DejaVuSans-65" x="203.328125"/>
      <use xlink:href="#DejaVuSans-74" x="264.851562"/>
      <use xlink:href="#DejaVuSans-2d" x="304.060547"/>
      <use xlink:href="#DejaVuSans-74" x="340.144531"/>
      <use xlink:href="#DejaVuSans-61" x="379.353516"/>
      <use xlink:href="#DejaVuSans-72" x="440.632812"/>
      <use xlink:href="#DejaVuSans-67" x="479.996094"/>
      <use xlink:href="#DejaVuSans-65" x="543.472656"/>
      <use xlink:href="#DejaVuSans-74" x="604.996094"/>
     </g>
    </g>
   </g>
  </g>
 </g>
 <defs>
  <clipPath id="pe6ec0f574e">
   <rect x="57.6" y="41.472" width="357.12" height="266.112"/>
  </clipPath>
 </defs>
</svg>
