<?xml version="1.0" encoding="utf-8" standalone="no"?>
<!DOCTYPE svg PUBLIC "-//W3C//DTD SVG 1.1//EN"
  "http://www.w3.org/Graphics/SVG/1.1/DTD/svg11.dtd">
<svg xmlns:xlink="http://www.w3.org/1999/xlink" width="460.8pt" height="345.6pt" viewBox="0 0 460.8 345.6" xmlns="http://www.w3.org/2000/svg" version="1.1">
 <metadata>
  <rdf:RDF xmlns:dc="http://purl.org/dc/elements/1.1/" xmlns:cc="http://creativecommons.org/ns#" xmlns:rdf="http://www.w3.org/1999/02/22-rdf-syntax-ns#">
   <cc:Work>
    <dc:type rdf:resource="http://purl.org/dc/dcmitype/StillImage"/>
    <dc:date>2023-08-18T16:00:06.530015</dc:date>
    <dc:format>image/svg+xml</dc:format>
    <dc:creator>
     <cc:Agent>
      <dc:title>Matplotlib v3.7.1, https://matplotlib.org/</dc:title>
     </cc:Agent>
    </dc:creator>
   </cc:Work>
  </rdf:RDF>
 </metadata>
 <defs>
  <style type="text/css">*{stroke-linejoin: round; stroke-linecap: butt}</style>
 </defs>
 <g id="figure_1">
  <g id="patch_1">
   <path d="M 0 345.6 
L 460.8 345.6 
L 460.8 0 
L 0 0 
z
" style="fill: #ffffff"/>
  </g>
  <g id="axes_1">
   <g id="patch_2">
    <path d="M 57.6 307.584 
L 414.72 307.584 
L 414.72 41.472 
L 57.6 41.472 
z
" style="fill: #ffffff"/>
   </g>
   <g id="matplotlib.axis_1">
    <g id="xtick_1">
     <g id="line2d_1">
      <defs>
       <path id="m4ed1b036c9" d="M 0 0 
L 0 3.5 
" style="stroke: #000000; stroke-width: 0.8"/>
      </defs>
      <g>
       <use xlink:href="#m4ed1b036c9" x="73.7797" y="307.584" style="stroke: #000000; stroke-width: 0.8"/>
      </g>
     </g>
     <g id="text_1">
      <!-- 0 -->
      <g transform="translate(70.59845 322.182437) scale(0.1 -0.1)">
       <defs>
        <path id="DejaVuSans-30" d="M 2034 4250 
Q 1547 4250 1301 3770 
Q 1056 3291 1056 2328 
Q 1056 1369 1301 889 
Q 1547 409 2034 409 
Q 2525 409 2770 889 
Q 3016 1369 3016 2328 
Q 3016 3291 2770 3770 
Q 2525 4250 2034 4250 
z
M 2034 4750 
Q 2819 4750 3233 4129 
Q 3647 3509 3647 2328 
Q 3647 1150 3233 529 
Q 2819 -91 2034 -91 
Q 1250 -91 836 529 
Q 422 1150 422 2328 
Q 422 3509 836 4129 
Q 1250 4750 2034 4750 
z
" transform="scale(0.015625)"/>
       </defs>
       <use xlink:href="#DejaVuSans-30"/>
      </g>
     </g>
    </g>
    <g id="xtick_2">
     <g id="line2d_2">
      <g>
       <use xlink:href="#m4ed1b036c9" x="140.064137" y="307.584" style="stroke: #000000; stroke-width: 0.8"/>
      </g>
     </g>
     <g id="text_2">
      <!-- 10000 -->
      <g transform="translate(124.157887 322.182437) scale(0.1 -0.1)">
       <defs>
        <path id="DejaVuSans-31" d="M 794 531 
L 1825 531 
L 1825 4091 
L 703 3866 
L 703 4441 
L 1819 4666 
L 2450 4666 
L 2450 531 
L 3481 531 
L 3481 0 
L 794 0 
L 794 531 
z
" transform="scale(0.015625)"/>
       </defs>
       <use xlink:href="#DejaVuSans-31"/>
       <use xlink:href="#DejaVuSans-30" x="63.623047"/>
       <use xlink:href="#DejaVuSans-30" x="127.246094"/>
       <use xlink:href="#DejaVuSans-30" x="190.869141"/>
       <use xlink:href="#DejaVuSans-30" x="254.492188"/>
      </g>
     </g>
    </g>
    <g id="xtick_3">
     <g id="line2d_3">
      <g>
       <use xlink:href="#m4ed1b036c9" x="206.348574" y="307.584" style="stroke: #000000; stroke-width: 0.8"/>
      </g>
     </g>
     <g id="text_3">
      <!-- 20000 -->
      <g transform="translate(190.442324 322.182437) scale(0.1 -0.1)">
       <defs>
        <path id="DejaVuSans-32" d="M 1228 531 
L 3431 531 
L 3431 0 
L 469 0 
L 469 531 
Q 828 903 1448 1529 
Q 2069 2156 2228 2338 
Q 2531 2678 2651 2914 
Q 2772 3150 2772 3378 
Q 2772 3750 2511 3984 
Q 2250 4219 1831 4219 
Q 1534 4219 1204 4116 
Q 875 4013 500 3803 
L 500 4441 
Q 881 4594 1212 4672 
Q 1544 4750 1819 4750 
Q 2544 4750 2975 4387 
Q 3406 4025 3406 3419 
Q 3406 3131 3298 2873 
Q 3191 2616 2906 2266 
Q 2828 2175 2409 1742 
Q 1991 1309 1228 531 
z
" transform="scale(0.015625)"/>
       </defs>
       <use xlink:href="#DejaVuSans-32"/>
       <use xlink:href="#DejaVuSans-30" x="63.623047"/>
       <use xlink:href="#DejaVuSans-30" x="127.246094"/>
       <use xlink:href="#DejaVuSans-30" x="190.869141"/>
       <use xlink:href="#DejaVuSans-30" x="254.492188"/>
      </g>
     </g>
    </g>
    <g id="xtick_4">
     <g id="line2d_4">
      <g>
       <use xlink:href="#m4ed1b036c9" x="272.633012" y="307.584" style="stroke: #000000; stroke-width: 0.8"/>
      </g>
     </g>
     <g id="text_4">
      <!-- 30000 -->
      <g transform="translate(256.726762 322.182437) scale(0.1 -0.1)">
       <defs>
        <path id="DejaVuSans-33" d="M 2597 2516 
Q 3050 2419 3304 2112 
Q 3559 1806 3559 1356 
Q 3559 666 3084 287 
Q 2609 -91 1734 -91 
Q 1441 -91 1130 -33 
Q 819 25 488 141 
L 488 750 
Q 750 597 1062 519 
Q 1375 441 1716 441 
Q 2309 441 2620 675 
Q 2931 909 2931 1356 
Q 2931 1769 2642 2001 
Q 2353 2234 1838 2234 
L 1294 2234 
L 1294 2753 
L 1863 2753 
Q 2328 2753 2575 2939 
Q 2822 3125 2822 3475 
Q 2822 3834 2567 4026 
Q 2313 4219 1838 4219 
Q 1578 4219 1281 4162 
Q 984 4106 628 3988 
L 628 4550 
Q 988 4650 1302 4700 
Q 1616 4750 1894 4750 
Q 2613 4750 3031 4423 
Q 3450 4097 3450 3541 
Q 3450 3153 3228 2886 
Q 3006 2619 2597 2516 
z
" transform="scale(0.015625)"/>
       </defs>
       <use xlink:href="#DejaVuSans-33"/>
       <use xlink:href="#DejaVuSans-30" x="63.623047"/>
       <use xlink:href="#DejaVuSans-30" x="127.246094"/>
       <use xlink:href="#DejaVuSans-30" x="190.869141"/>
       <use xlink:href="#DejaVuSans-30" x="254.492188"/>
      </g>
     </g>
    </g>
    <g id="xtick_5">
     <g id="line2d_5">
      <g>
       <use xlink:href="#m4ed1b036c9" x="338.917449" y="307.584" style="stroke: #000000; stroke-width: 0.8"/>
      </g>
     </g>
     <g id="text_5">
      <!-- 40000 -->
      <g transform="translate(323.011199 322.182437) scale(0.1 -0.1)">
       <defs>
        <path id="DejaVuSans-34" d="M 2419 4116 
L 825 1625 
L 2419 1625 
L 2419 4116 
z
M 2253 4666 
L 3047 4666 
L 3047 1625 
L 3713 1625 
L 3713 1100 
L 3047 1100 
L 3047 0 
L 2419 0 
L 2419 1100 
L 313 1100 
L 313 1709 
L 2253 4666 
z
" transform="scale(0.015625)"/>
       </defs>
       <use xlink:href="#DejaVuSans-34"/>
       <use xlink:href="#DejaVuSans-30" x="63.623047"/>
       <use xlink:href="#DejaVuSans-30" x="127.246094"/>
       <use xlink:href="#DejaVuSans-30" x="190.869141"/>
       <use xlink:href="#DejaVuSans-30" x="254.492188"/>
      </g>
     </g>
    </g>
    <g id="xtick_6">
     <g id="line2d_6">
      <g>
       <use xlink:href="#m4ed1b036c9" x="405.201886" y="307.584" style="stroke: #000000; stroke-width: 0.8"/>
      </g>
     </g>
     <g id="text_6">
      <!-- 50000 -->
      <g transform="translate(389.295636 322.182437) scale(0.1 -0.1)">
       <defs>
        <path id="DejaVuSans-35" d="M 691 4666 
L 3169 4666 
L 3169 4134 
L 1269 4134 
L 1269 2991 
Q 1406 3038 1543 3061 
Q 1681 3084 1819 3084 
Q 2600 3084 3056 2656 
Q 3513 2228 3513 1497 
Q 3513 744 3044 326 
Q 2575 -91 1722 -91 
Q 1428 -91 1123 -41 
Q 819 9 494 109 
L 494 744 
Q 775 591 1075 516 
Q 1375 441 1709 441 
Q 2250 441 2565 725 
Q 2881 1009 2881 1497 
Q 2881 1984 2565 2268 
Q 2250 2553 1709 2553 
Q 1456 2553 1204 2497 
Q 953 2441 691 2322 
L 691 4666 
z
" transform="scale(0.015625)"/>
       </defs>
       <use xlink:href="#DejaVuSans-35"/>
       <use xlink:href="#DejaVuSans-30" x="63.623047"/>
       <use xlink:href="#DejaVuSans-30" x="127.246094"/>
       <use xlink:href="#DejaVuSans-30" x="190.869141"/>
       <use xlink:href="#DejaVuSans-30" x="254.492188"/>
      </g>
     </g>
    </g>
    <g id="text_7">
     <!-- timesteps -->
     <g transform="translate(211.443594 335.860562) scale(0.1 -0.1)">
      <defs>
       <path id="DejaVuSans-74" d="M 1172 4494 
L 1172 3500 
L 2356 3500 
L 2356 3053 
L 1172 3053 
L 1172 1153 
Q 1172 725 1289 603 
Q 1406 481 1766 481 
L 2356 481 
L 2356 0 
L 1766 0 
Q 1100 0 847 248 
Q 594 497 594 1153 
L 594 3053 
L 172 3053 
L 172 3500 
L 594 3500 
L 594 4494 
L 1172 4494 
z
" transform="scale(0.015625)"/>
       <path id="DejaVuSans-69" d="M 603 3500 
L 1178 3500 
L 1178 0 
L 603 0 
L 603 3500 
z
M 603 4863 
L 1178 4863 
L 1178 4134 
L 603 4134 
L 603 4863 
z
" transform="scale(0.015625)"/>
       <path id="DejaVuSans-6d" d="M 3328 2828 
Q 3544 3216 3844 3400 
Q 4144 3584 4550 3584 
Q 5097 3584 5394 3201 
Q 5691 2819 5691 2113 
L 5691 0 
L 5113 0 
L 5113 2094 
Q 5113 2597 4934 2840 
Q 4756 3084 4391 3084 
Q 3944 3084 3684 2787 
Q 3425 2491 3425 1978 
L 3425 0 
L 2847 0 
L 2847 2094 
Q 2847 2600 2669 2842 
Q 2491 3084 2119 3084 
Q 1678 3084 1418 2786 
Q 1159 2488 1159 1978 
L 1159 0 
L 581 0 
L 581 3500 
L 1159 3500 
L 1159 2956 
Q 1356 3278 1631 3431 
Q 1906 3584 2284 3584 
Q 2666 3584 2933 3390 
Q 3200 3197 3328 2828 
z
" transform="scale(0.015625)"/>
       <path id="DejaVuSans-65" d="M 3597 1894 
L 3597 1613 
L 953 1613 
Q 991 1019 1311 708 
Q 1631 397 2203 397 
Q 2534 397 2845 478 
Q 3156 559 3463 722 
L 3463 178 
Q 3153 47 2828 -22 
Q 2503 -91 2169 -91 
Q 1331 -91 842 396 
Q 353 884 353 1716 
Q 353 2575 817 3079 
Q 1281 3584 2069 3584 
Q 2775 3584 3186 3129 
Q 3597 2675 3597 1894 
z
M 3022 2063 
Q 3016 2534 2758 2815 
Q 2500 3097 2075 3097 
Q 1594 3097 1305 2825 
Q 1016 2553 972 2059 
L 3022 2063 
z
" transform="scale(0.015625)"/>
       <path id="DejaVuSans-73" d="M 2834 3397 
L 2834 2853 
Q 2591 2978 2328 3040 
Q 2066 3103 1784 3103 
Q 1356 3103 1142 2972 
Q 928 2841 928 2578 
Q 928 2378 1081 2264 
Q 1234 2150 1697 2047 
L 1894 2003 
Q 2506 1872 2764 1633 
Q 3022 1394 3022 966 
Q 3022 478 2636 193 
Q 2250 -91 1575 -91 
Q 1294 -91 989 -36 
Q 684 19 347 128 
L 347 722 
Q 666 556 975 473 
Q 1284 391 1588 391 
Q 1994 391 2212 530 
Q 2431 669 2431 922 
Q 2431 1156 2273 1281 
Q 2116 1406 1581 1522 
L 1381 1569 
Q 847 1681 609 1914 
Q 372 2147 372 2553 
Q 372 3047 722 3315 
Q 1072 3584 1716 3584 
Q 2034 3584 2315 3537 
Q 2597 3491 2834 3397 
z
" transform="scale(0.015625)"/>
       <path id="DejaVuSans-70" d="M 1159 525 
L 1159 -1331 
L 581 -1331 
L 581 3500 
L 1159 3500 
L 1159 2969 
Q 1341 3281 1617 3432 
Q 1894 3584 2278 3584 
Q 2916 3584 3314 3078 
Q 3713 2572 3713 1747 
Q 3713 922 3314 415 
Q 2916 -91 2278 -91 
Q 1894 -91 1617 61 
Q 1341 213 1159 525 
z
M 3116 1747 
Q 3116 2381 2855 2742 
Q 2594 3103 2138 3103 
Q 1681 3103 1420 2742 
Q 1159 2381 1159 1747 
Q 1159 1113 1420 752 
Q 1681 391 2138 391 
Q 2594 391 2855 752 
Q 3116 1113 3116 1747 
z
" transform="scale(0.015625)"/>
      </defs>
      <use xlink:href="#DejaVuSans-74"/>
      <use xlink:href="#DejaVuSans-69" x="39.208984"/>
      <use xlink:href="#DejaVuSans-6d" x="66.992188"/>
      <use xlink:href="#DejaVuSans-65" x="164.404297"/>
      <use xlink:href="#DejaVuSans-73" x="225.927734"/>
      <use xlink:href="#DejaVuSans-74" x="278.027344"/>
      <use xlink:href="#DejaVuSans-65" x="317.236328"/>
      <use xlink:href="#DejaVuSans-70" x="378.759766"/>
      <use xlink:href="#DejaVuSans-73" x="442.236328"/>
     </g>
    </g>
   </g>
   <g id="matplotlib.axis_2">
    <g id="ytick_1">
     <g id="line2d_7">
      <defs>
       <path id="m920c1c3adc" d="M 0 0 
L -3.5 0 
" style="stroke: #000000; stroke-width: 0.8"/>
      </defs>
      <g>
       <use xlink:href="#m920c1c3adc" x="57.6" y="297.718296" style="stroke: #000000; stroke-width: 0.8"/>
      </g>
     </g>
     <g id="text_8">
      <!-- 0 -->
      <g transform="translate(44.2375 301.517515) scale(0.1 -0.1)">
       <use xlink:href="#DejaVuSans-30"/>
      </g>
     </g>
    </g>
    <g id="ytick_2">
     <g id="line2d_8">
      <g>
       <use xlink:href="#m920c1c3adc" x="57.6" y="241.79141" style="stroke: #000000; stroke-width: 0.8"/>
      </g>
     </g>
     <g id="text_9">
      <!-- 50 -->
      <g transform="translate(37.875 245.590629) scale(0.1 -0.1)">
       <use xlink:href="#DejaVuSans-35"/>
       <use xlink:href="#DejaVuSans-30" x="63.623047"/>
      </g>
     </g>
    </g>
    <g id="ytick_3">
     <g id="line2d_9">
      <g>
       <use xlink:href="#m920c1c3adc" x="57.6" y="185.864525" style="stroke: #000000; stroke-width: 0.8"/>
      </g>
     </g>
     <g id="text_10">
      <!-- 100 -->
      <g transform="translate(31.5125 189.663743) scale(0.1 -0.1)">
       <use xlink:href="#DejaVuSans-31"/>
       <use xlink:href="#DejaVuSans-30" x="63.623047"/>
       <use xlink:href="#DejaVuSans-30" x="127.246094"/>
      </g>
     </g>
    </g>
    <g id="ytick_4">
     <g id="line2d_10">
      <g>
       <use xlink:href="#m920c1c3adc" x="57.6" y="129.937639" style="stroke: #000000; stroke-width: 0.8"/>
      </g>
     </g>
     <g id="text_11">
      <!-- 150 -->
      <g transform="translate(31.5125 133.736858) scale(0.1 -0.1)">
       <use xlink:href="#DejaVuSans-31"/>
       <use xlink:href="#DejaVuSans-35" x="63.623047"/>
       <use xlink:href="#DejaVuSans-30" x="127.246094"/>
      </g>
     </g>
    </g>
    <g id="ytick_5">
     <g id="line2d_11">
      <g>
       <use xlink:href="#m920c1c3adc" x="57.6" y="74.010753" style="stroke: #000000; stroke-width: 0.8"/>
      </g>
     </g>
     <g id="text_12">
      <!-- 200 -->
      <g transform="translate(31.5125 77.809972) scale(0.1 -0.1)">
       <use xlink:href="#DejaVuSans-32"/>
       <use xlink:href="#DejaVuSans-30" x="63.623047"/>
       <use xlink:href="#DejaVuSans-30" x="127.246094"/>
      </g>
     </g>
    </g>
    <g id="text_13">
     <!-- rewards -->
     <g transform="translate(25.432812 194.447531) rotate(-90) scale(0.1 -0.1)">
      <defs>
       <path id="DejaVuSans-72" d="M 2631 2963 
Q 2534 3019 2420 3045 
Q 2306 3072 2169 3072 
Q 1681 3072 1420 2755 
Q 1159 2438 1159 1844 
L 1159 0 
L 581 0 
L 581 3500 
L 1159 3500 
L 1159 2956 
Q 1341 3275 1631 3429 
Q 1922 3584 2338 3584 
Q 2397 3584 2469 3576 
Q 2541 3569 2628 3553 
L 2631 2963 
z
" transform="scale(0.015625)"/>
       <path id="DejaVuSans-77" d="M 269 3500 
L 844 3500 
L 1563 769 
L 2278 3500 
L 2956 3500 
L 3675 769 
L 4391 3500 
L 4966 3500 
L 4050 0 
L 3372 0 
L 2619 2869 
L 1863 0 
L 1184 0 
L 269 3500 
z
" transform="scale(0.015625)"/>
       <path id="DejaVuSans-61" d="M 2194 1759 
Q 1497 1759 1228 1600 
Q 959 1441 959 1056 
Q 959 750 1161 570 
Q 1363 391 1709 391 
Q 2188 391 2477 730 
Q 2766 1069 2766 1631 
L 2766 1759 
L 2194 1759 
z
M 3341 1997 
L 3341 0 
L 2766 0 
L 2766 531 
Q 2569 213 2275 61 
Q 1981 -91 1556 -91 
Q 1019 -91 701 211 
Q 384 513 384 1019 
Q 384 1609 779 1909 
Q 1175 2209 1959 2209 
L 2766 2209 
L 2766 2266 
Q 2766 2663 2505 2880 
Q 2244 3097 1772 3097 
Q 1472 3097 1187 3025 
Q 903 2953 641 2809 
L 641 3341 
Q 956 3463 1253 3523 
Q 1550 3584 1831 3584 
Q 2591 3584 2966 3190 
Q 3341 2797 3341 1997 
z
" transform="scale(0.015625)"/>
       <path id="DejaVuSans-64" d="M 2906 2969 
L 2906 4863 
L 3481 4863 
L 3481 0 
L 2906 0 
L 2906 525 
Q 2725 213 2448 61 
Q 2172 -91 1784 -91 
Q 1150 -91 751 415 
Q 353 922 353 1747 
Q 353 2572 751 3078 
Q 1150 3584 1784 3584 
Q 2172 3584 2448 3432 
Q 2725 3281 2906 2969 
z
M 947 1747 
Q 947 1113 1208 752 
Q 1469 391 1925 391 
Q 2381 391 2643 752 
Q 2906 1113 2906 1747 
Q 2906 2381 2643 2742 
Q 2381 3103 1925 3103 
Q 1469 3103 1208 2742 
Q 947 2381 947 1747 
z
" transform="scale(0.015625)"/>
      </defs>
      <use xlink:href="#DejaVuSans-72"/>
      <use xlink:href="#DejaVuSans-65" x="38.863281"/>
      <use xlink:href="#DejaVuSans-77" x="100.386719"/>
      <use xlink:href="#DejaVuSans-61" x="182.173828"/>
      <use xlink:href="#DejaVuSans-72" x="243.453125"/>
      <use xlink:href="#DejaVuSans-64" x="282.816406"/>
      <use xlink:href="#DejaVuSans-73" x="346.292969"/>
     </g>
    </g>
   </g>
   <g id="line2d_12">
    <path d="M 73.832727 292.490914 
L 73.899012 292.102238 
L 73.971925 287.044151 
L 74.124379 291.261961 
L 74.283461 288.032322 
L 74.363003 288.875523 
L 74.449173 288.139995 
L 74.648026 281.332133 
L 74.760709 284.625178 
L 74.880021 272.460993 
L 74.999333 289.293853 
L 75.118645 279.149498 
L 75.198187 288.261282 
L 75.330756 283.074204 
L 75.48321 292.182498 
L 75.56938 289.731011 
L 75.648921 295.374537 
L 75.90743 260.602541 
L 76.11954 283.089793 
L 76.238852 277.135285 
L 76.364793 291.219283 
L 76.464219 289.879845 
L 76.636559 269.508456 
L 76.722729 286.115874 
L 76.835412 285.772386 
L 77.113807 285.422417 
L 77.206605 286.558189 
L 77.332546 274.808442 
L 77.538027 276.434617 
L 77.716995 268.300113 
L 78.200872 282.956278 
L 78.439496 271.225831 
L 78.631721 288.803761 
L 78.737776 287.775245 
L 79.135482 268.830224 
L 79.254794 285.147077 
L 79.387363 284.79969 
L 79.738671 210.39994 
L 79.877868 274.307359 
L 80.12312 237.610902 
L 80.215919 287.976781 
L 80.547341 267.829223 
L 80.71968 287.765136 
L 80.799222 285.0694 
L 80.865506 288.922942 
L 80.998075 283.269082 
L 81.283098 230.997686 
L 81.448809 284.617095 
L 81.581378 273.240568 
L 81.660919 286.43436 
L 81.879658 289.0291 
L 82.270736 201.462086 
L 82.370163 283.620767 
L 82.496103 286.023725 
L 83.039636 98.885589 
L 83.132434 287.522664 
L 83.463856 265.284128 
L 83.57654 288.016907 
L 83.715737 283.342233 
L 83.82842 290.971704 
L 83.921219 286.90093 
L 84.053788 274.287657 
L 84.352067 282.120547 
L 84.577435 291.008856 
L 84.782916 269.476528 
L 85.227022 207.735706 
L 85.306563 287.98964 
L 85.478903 278.648684 
L 85.591586 284.952334 
L 85.770554 270.177293 
L 85.995922 290.448947 
L 86.274316 243.676676 
L 86.499683 260.939529 
L 86.837734 243.907583 
L 87.348124 289.475529 
L 87.61989 278.039504 
L 87.672918 292.347231 
L 87.752459 291.487879 
L 88.037482 285.309142 
L 88.209822 263.587409 
L 88.474959 261.206977 
L 88.541244 292.243665 
L 88.614157 287.521177 
L 88.866038 247.00974 
L 88.98535 287.229537 
L 89.091405 286.464926 
L 89.336657 269.680558 
L 89.40957 289.043397 
L 89.49574 287.406378 
L 89.615052 284.615528 
L 89.853676 265.656139 
L 89.939846 288.922756 
L 90.039272 285.702489 
L 90.098928 290.207631 
L 90.21824 284.445245 
L 90.324295 286.406022 
L 90.523149 282.719412 
L 90.655717 288.446386 
L 90.828057 271.801182 
L 91.020282 285.285948 
L 91.159479 286.631321 
L 91.28542 273.352656 
L 91.490901 268.008486 
L 91.663241 284.244316 
L 91.828952 270.41811 
L 91.948264 291.453948 
L 92.113975 279.830103 
L 92.206773 285.609228 
L 92.418883 261.019546 
L 92.524939 286.345594 
L 92.650879 288.693928 
L 92.823219 267.02593 
L 93.181155 263.596481 
L 93.439664 280.979002 
L 93.592118 280.247665 
L 93.704802 277.759638 
L 93.897026 276.759055 
L 94.122394 258.940663 
L 94.268219 275.793033 
L 94.480329 281.062924 
L 94.632784 276.108325 
L 94.718953 284.765959 
L 94.825009 283.939217 
L 94.931064 287.003064 
L 95.070261 287.668278 
L 95.176316 278.541645 
L 95.255857 287.601589 
L 95.633679 235.79519 
L 95.706592 288.741103 
L 96.18384 195.673312 
L 96.289895 284.305613 
L 96.581546 243.236292 
L 96.806913 282.388738 
L 96.919597 287.384117 
L 97.111822 259.860928 
L 97.337189 285.808498 
L 97.476386 279.826816 
L 97.555927 290.868071 
L 97.71501 277.916617 
L 97.814437 287.795237 
L 97.947006 272.332598 
L 98.072946 273.418326 
L 98.152487 287.378216 
L 98.318198 286.110091 
L 98.430882 283.121936 
L 98.550194 290.644865 
L 98.669506 280.034607 
L 98.868359 291.261523 
L 99.020813 287.463043 
L 99.20641 292.639771 
L 99.285951 285.918033 
L 99.769828 182.767506 
L 99.902396 282.467992 
L 100.194048 227.396437 
L 100.253704 291.93079 
L 100.326617 287.769039 
L 100.445929 286.508734 
L 100.571869 278.711744 
L 100.837007 219.627019 
L 100.989461 292.148797 
L 101.181686 283.458797 
L 101.532994 200.251772 
L 101.612535 288.006757 
L 101.731847 289.428632 
L 101.904186 270.025774 
L 101.983728 287.614012 
L 102.10304 287.804378 
L 102.268751 288.331941 
L 102.460976 261.525017 
L 102.626687 264.55575 
L 102.82554 290.455462 
L 103.024393 255.348056 
L 103.103935 289.01636 
L 103.196733 284.299054 
L 103.329302 275.816316 
L 103.408843 288.090838 
L 103.548041 272.317626 
L 104.025288 290.368312 
L 104.244027 277.302986 
L 104.336825 289.351354 
L 104.40311 289.334398 
L 104.476023 289.421711 
L 105.006298 273.350785 
L 105.29795 280.775899 
L 105.437147 276.349423 
L 105.669143 289.910049 
L 105.821597 281.615797 
L 105.907766 289.98974 
L 106.113248 289.136683 
L 106.212675 290.295406 
L 106.345244 288.355885 
L 106.524212 281.756378 
L 106.689923 288.29827 
L 107.100886 237.010517 
L 107.312997 291.23781 
L 107.385909 290.056007 
L 107.584763 283.359185 
L 107.776988 252.546012 
L 108.02224 288.593665 
L 108.187951 273.451143 
L 108.300635 294.366457 
L 108.373548 291.029826 
L 108.638685 281.532878 
L 108.731484 285.462518 
L 108.923708 265.237001 
L 109.109305 295.488 
L 109.255131 287.936928 
L 109.51364 263.402885 
L 109.705865 290.975408 
L 109.805291 282.577838 
L 109.964374 279.822275 
L 110.017402 292.757596 
L 110.40848 279.096621 
L 110.753159 250.883728 
L 110.952012 285.48836 
L 111.058067 285.967672 
L 111.124352 288.53053 
L 111.263549 287.822896 
L 111.482288 262.191599 
L 111.714283 287.826806 
L 111.787196 288.482086 
L 111.853481 290.105548 
L 112.244559 284.968045 
L 112.3241 290.908897 
L 112.503068 274.142321 
L 112.70855 288.102196 
L 112.781463 287.583448 
L 112.947174 286.175282 
L 113.073114 287.887786 
L 113.318367 279.566836 
L 113.696188 236.337707 
L 113.782358 289.633638 
L 114.438574 247.66767 
L 114.518115 289.59433 
L 114.644055 280.802392 
L 115.141189 151.986981 
L 115.260501 280.273133 
L 115.379813 282.601462 
L 115.505753 277.807433 
L 115.598551 284.755789 
L 115.784148 272.975053 
L 115.94323 279.50309 
L 116.089056 279.078316 
L 116.301166 263.556174 
L 116.513276 259.790774 
L 116.665731 291.013289 
L 116.791671 286.935638 
L 116.957382 265.507811 
L 117.169492 290.551737 
L 117.335203 270.091318 
L 117.487658 273.86539 
L 117.640112 285.579155 
L 117.812451 286.744893 
L 118.070961 258.099399 
L 118.236672 262.038388 
L 118.336098 285.753817 
L 118.45541 277.546063 
L 118.568094 278.735542 
L 118.674149 286.737381 
L 118.819975 285.786014 
L 118.939287 283.900507 
L 119.018828 286.522569 
L 119.476191 237.969736 
L 119.675044 289.427474 
L 119.794356 284.748795 
L 119.860641 292.285076 
L 119.979953 284.745915 
L 120.112521 283.48935 
L 120.178806 289.141538 
L 120.549999 262.063237 
L 120.748852 270.228129 
L 120.84165 286.580927 
L 121.007361 284.838113 
L 121.325527 254.794125 
L 121.431582 287.375728 
L 121.570779 285.113157 
L 121.676834 280.597901 
L 121.82266 286.1126 
L 121.922087 284.117472 
L 122.061284 289.085527 
L 122.147454 288.472219 
L 122.24688 284.718123 
L 122.452362 258.160474 
L 122.531903 289.468975 
L 122.724128 264.200609 
L 122.84344 279.948934 
L 122.976009 280.154105 
L 123.10195 285.665769 
L 123.261032 274.590264 
L 123.453257 275.913276 
L 123.632225 268.402949 
L 123.811193 292.658815 
L 124.063074 227.650935 
L 124.24867 285.223086 
L 124.394496 274.797374 
L 124.533693 285.897862 
L 124.646377 281.864298 
L 124.739175 284.387192 
L 124.878372 278.616412 
L 125.044084 290.131308 
L 125.309221 275.311358 
L 125.766584 137.009504 
L 126.03835 283.357711 
L 126.12452 285.069664 
L 126.310116 286.211263 
L 126.369772 291.732123 
L 126.595139 282.586709 
L 126.727708 289.124354 
L 126.853649 279.016991 
L 127.032617 288.825685 
L 127.118786 288.34234 
L 127.218213 285.148003 
L 127.311011 288.44449 
L 127.450209 285.842327 
L 127.881057 205.7282 
L 128.152824 285.964325 
L 128.33842 280.339915 
L 128.444475 289.616365 
L 128.656585 283.558609 
L 128.862067 289.19703 
L 129.100691 263.713919 
L 129.239888 278.842511 
L 129.365829 274.72741 
L 129.544797 290.881872 
L 129.650852 280.804031 
L 129.91599 278.22585 
L 130.101586 288.116089 
L 130.207641 283.741781 
L 130.280554 288.73426 
L 130.51255 276.189483 
L 130.737917 287.609234 
L 130.830715 286.238114 
L 130.896999 291.635161 
L 131.155509 250.311504 
L 131.221793 291.875367 
L 131.44716 249.91724 
L 131.665899 250.359443 
L 131.824981 290.072246 
L 131.884637 292.217327 
L 132.096748 282.605997 
L 132.242573 270.252998 
L 132.308858 289.611164 
L 132.494454 272.894899 
L 132.739707 289.069202 
L 132.85239 284.739454 
L 133.004844 293.358611 
L 133.216955 267.293043 
L 133.382666 263.594954 
L 133.714088 289.443717 
L 133.800258 286.540913 
L 133.972597 288.511494 
L 134.191336 286.092472 
L 134.416703 291.782219 
L 134.655327 272.885855 
L 134.761382 281.700065 
L 134.880694 277.890316 
L 134.980121 284.009937 
L 135.271772 247.016242 
L 135.338057 289.596717 
L 135.424226 284.11961 
L 135.788791 248.904941 
L 136.000901 251.091721 
L 136.338952 279.713463 
L 136.464892 277.124753 
L 136.564319 283.310404 
L 136.696888 278.251107 
L 136.8162 285.643385 
L 137.008424 259.338411 
L 137.094594 286.515398 
L 137.266934 282.260739 
L 137.399503 285.204965 
L 137.558585 291.691047 
L 137.66464 288.779499 
L 137.790581 277.994208 
L 137.883379 287.447632 
L 138.015948 277.993071 
L 138.188287 279.339621 
L 138.387141 255.781554 
L 138.599251 290.271855 
L 138.77159 264.894575 
L 138.837875 291.976286 
L 139.182554 269.723109 
L 139.281981 283.406917 
L 139.441063 263.427023 
L 139.513976 287.823913 
L 139.679687 287.358895 
L 139.825513 273.518732 
L 140.004481 288.53962 
L 140.249733 240.761427 
L 140.806523 289.44553 
L 140.905949 287.69917 
L 141.058404 276.469465 
L 141.336798 291.415002 
L 141.489252 277.397743 
L 141.582051 289.886876 
L 141.674849 288.263109 
L 141.873702 264.169094 
L 142.185239 290.448395 
L 142.284666 282.297129 
L 142.443748 280.016701 
L 142.655859 285.797255 
L 142.788427 279.614558 
L 142.894482 291.646537 
L 143.060194 270.288004 
L 143.186134 285.513637 
L 143.358474 261.285914 
L 143.451272 288.356869 
L 143.557327 283.352451 
L 143.623611 289.250792 
L 143.762809 284.936603 
L 143.921891 276.193922 
L 144.061089 278.353372 
L 144.273199 265.958055 
L 144.425653 284.99063 
L 144.763704 221.325168 
L 145.181296 224.150672 
L 145.293979 291.023092 
L 145.466319 281.378649 
L 145.691686 279.35517 
L 145.777856 287.259835 
L 145.93031 266.948939 
L 146.235218 255.326402 
L 146.321388 287.278806 
L 146.553383 247.974247 
L 146.613039 291.072033 
L 146.705838 285.147595 
L 146.772122 288.670089 
L 146.858292 284.37902 
L 146.931205 290.462801 
L 147.063774 291.507427 
L 147.169829 283.723922 
L 147.507879 242.873137 
L 147.620563 288.142772 
L 147.75976 281.843901 
L 147.991756 283.305137 
L 148.071297 287.878149 
L 148.336435 286.506414 
L 148.495517 286.844444 
L 148.56843 294.464392 
L 148.747398 263.438505 
L 148.932995 291.141014 
L 149.07882 286.298479 
L 149.204761 277.345775 
L 149.443385 246.463665 
L 149.536183 290.303122 
L 149.695266 269.592513 
L 149.794692 285.155823 
L 150.02006 253.783416 
L 150.139371 284.533538 
L 150.27194 276.401342 
L 150.364739 290.310649 
L 150.543707 262.448833 
L 150.735931 273.861504 
L 150.822101 288.891594 
L 150.987812 267.754929 
L 151.100496 278.057043 
L 151.478317 244.744579 
L 151.584372 287.953918 
L 151.756712 294.405442 
L 152.06162 266.535678 
L 152.373157 232.794855 
L 152.638295 282.242992 
L 152.817263 285.252578 
L 152.989602 263.299459 
L 153.16857 261.531375 
L 153.301139 280.41286 
L 153.499992 252.141557 
L 153.844672 285.002481 
L 153.950727 282.746274 
L 154.162837 267.790673 
L 155.223388 57.217028 
L 155.455383 280.476588 
L 155.621094 280.632283 
L 155.872975 288.117535 
L 156.02543 281.896215 
L 156.091714 291.898514 
L 156.217654 278.738124 
L 156.297196 286.873469 
L 156.509306 271.942307 
L 156.595476 287.771233 
L 156.781072 287.900158 
L 156.999811 277.826528 
L 157.158893 263.070208 
L 157.463802 288.577775 
L 157.636141 279.553128 
L 157.801852 276.814075 
L 157.914536 284.520768 
L 158.15316 249.190834 
L 158.312243 282.062801 
L 158.424926 279.894724 
L 158.584009 264.993102 
L 158.690064 291.585241 
L 158.842518 278.542065 
L 159.041371 288.855162 
L 159.167312 275.033479 
L 159.26011 288.999285 
L 159.584904 275.264429 
L 159.909698 288.629392 
L 160.168207 223.137635 
L 160.373689 273.58019 
L 160.698482 241.578116 
L 160.758138 291.064738 
L 160.937106 289.07521 
L 161.500524 152.336357 
L 161.871717 234.36536 
L 162.163368 259.955042 
L 162.342336 265.761648 
L 162.468277 277.771604 
L 162.872612 196.832615 
L 163.064837 279.271747 
L 163.489057 191.925433 
L 163.568598 290.251198 
L 163.77408 286.699899 
L 163.86025 288.099527 
L 164.105502 227.896387 
L 164.364012 270.28138 
L 164.655663 255.760492 
L 164.808117 282.267854 
L 164.953943 286.719302 
L 165.113026 278.289882 
L 165.238966 290.4922 
L 165.702957 228.073116 
L 165.895182 289.464447 
L 166.591169 137.826663 
L 166.915963 209.555853 
L 167.015389 286.275514 
L 167.14133 282.690603 
L 167.307041 273.039224 
L 167.545665 267.791482 
L 167.718004 273.582819 
L 167.95 252.835451 
L 168.056055 291.894417 
L 168.168738 290.207782 
L 168.400734 279.739538 
L 168.54656 283.300955 
L 168.811697 218.993128 
L 169.030436 281.388271 
L 169.235918 294.426335 
L 169.368487 278.107815 
L 169.48117 282.85148 
L 169.713166 273.854069 
L 169.878877 260.923181 
L 170.230184 259.694956 
L 170.429038 239.419847 
L 170.561607 284.949954 
L 170.840001 217.336787 
L 171.337135 184.953929 
L 171.661928 214.475194 
L 172.059635 187.518232 
L 172.510369 144.765691 
L 172.689337 277.803376 
L 172.934589 224.297771 
L 173.285897 196.193717 
L 173.749888 127.495603 
L 174.240393 176.867253 
L 174.419361 290.839237 
L 174.5917 292.747367 
L 174.803811 234.381523 
L 174.969522 257.694589 
L 175.466655 161.710676 
L 175.65888 273.823161 
L 176.321724 104.588946 
L 176.633261 198.186459 
L 176.745945 279.533289 
L 177.017711 248.750035 
L 177.415417 165.74315 
L 177.634156 240.10955 
L 178.011977 240.377105 
L 178.46934 206.947585 
L 178.608537 271.096301 
L 179.046015 213.560263 
L 179.118927 290.821446 
L 179.430464 210.921044 
L 179.728744 203.042725 
L 179.934226 287.246151 
L 180.186107 240.317975 
L 180.325304 270.260362 
L 180.616956 246.069291 
L 180.802552 242.479812 
L 181.140603 214.864427 
L 181.233401 286.522945 
L 181.346085 278.778316 
L 181.743791 228.754581 
L 181.856475 284.224663 
L 182.134869 215.637314 
L 182.26081 279.919399 
L 182.552461 209.021801 
L 182.890512 198.692609 
L 183.115879 232.21685 
L 183.308104 241.298756 
L 183.533471 283.244114 
L 183.811866 249.592998 
L 184.434939 60.437589 
L 184.852531 281.731935 
L 185.058013 239.097958 
L 185.475605 195.110939 
L 186.039023 165.126153 
L 186.423472 182.230199 
L 186.98689 174.382791 
L 187.199 235.149004 
L 187.490652 213.614204 
L 187.835331 256.552397 
L 188.080583 232.379277 
L 188.471662 206.789215 
L 188.6904 236.550658 
L 189.141134 193.580198 
L 189.240561 286.433241 
L 189.565355 270.210164 
L 189.823864 281.805205 
L 190.062488 228.900146 
L 190.758475 161.564286 
L 191.056755 277.875124 
L 191.348406 271.204599 
L 191.434576 289.659119 
L 192.104049 136.131049 
L 192.3957 216.652465 
L 192.839806 215.046223 
L 193.177857 190.52678 
L 193.535793 189.784714 
L 193.834073 206.278538 
L 194.27155 206.45903 
L 194.543316 218.437814 
L 194.715656 246.122118 
L 194.987422 216.431773 
L 195.265816 212.639359 
L 195.968431 144.026617 
L 196.240198 223.246855 
L 196.770473 158.533946 
L 197.234464 235.15677 
L 197.850909 168.558236 
L 198.043134 259.075212 
L 198.420956 170.732756 
L 198.765635 219.229017 
L 199.16997 202.723796 
L 199.368823 239.051657 
L 199.653846 213.870244 
L 200.078067 195.610679 
L 200.329947 227.287533 
L 200.747539 162.39927 
L 200.966278 233.22182 
L 201.178388 237.377154 
L 201.38387 236.958533 
L 201.794833 179.010808 
L 202.093113 211.492908 
L 202.331737 224.288118 
L 202.523962 241.807685 
L 203.153664 182.525812 
L 203.372403 232.906351 
L 203.730339 200.933655 
L 204.008734 215.332524 
L 204.717977 131.603857 
L 205.248253 171.380624 
L 205.500134 222.486948 
L 206.235891 143.17749 
L 206.679997 252.726274 
L 207.044561 270.283966 
L 207.859859 116.572981 
L 208.11174 221.900823 
L 208.701672 73.516494 
L 209.77548 269.169768 
L 210.179815 190.743961 
L 210.902315 169.477466 
L 211.512132 102.286536 
L 212.11532 179.39314 
L 212.572683 193.799347 
L 212.910734 189.709207 
L 213.149358 222.474935 
L 213.48078 219.856868 
L 213.81883 191.94796 
L 214.004427 242.463513 
L 214.528074 191.272531 
L 214.707042 244.463336 
L 214.958923 223.33358 
L 215.56874 243.558791 
L 215.886905 198.909761 
L 216.29124 190.753937 
L 216.655804 180.047692 
L 217.159566 174.428416 
L 217.709727 222.162561 
L 217.954979 222.091937 
L 218.226745 214.717294 
L 218.518397 212.046752 
L 218.737136 233.336419 
L 218.955874 232.688062 
L 219.134842 243.854034 
L 219.393352 218.929551 
L 219.631976 238.008311 
L 219.857343 230.453479 
L 220.825095 85.036604 
L 221.421655 158.154885 
L 221.666908 224.944409 
L 221.971816 204.185136 
L 222.42255 188.989741 
L 222.661174 225.891464 
L 223.038996 185.925887 
L 223.509615 170.97039 
L 223.841037 190.232012 
L 224.218859 248.302673 
L 224.364684 253.005448 
L 224.556909 240.914143 
L 224.735877 244.602855 
L 225.179983 144.101492 
L 225.458378 233.896661 
L 226.021795 206.193097 
L 226.194135 246.964976 
L 226.678011 119.202473 
L 227.175145 243.923667 
L 227.804847 170.654548 
L 228.103127 205.258856 
L 228.282095 245.658396 
L 228.533975 222.505113 
L 228.971453 203.386373 
L 229.435444 230.949916 
L 229.70721 209.62929 
L 229.985605 209.92045 
L 230.30377 199.006079 
L 230.608678 198.294739 
L 230.953357 184.096558 
L 231.125697 246.146985 
L 231.503518 202.127246 
L 231.768656 216.831689 
L 231.960881 240.111897 
L 232.385101 145.359567 
L 232.570698 243.111464 
L 232.782808 234.012249 
L 233.100973 199.095752 
L 233.279941 245.620899 
L 233.79696 109.608093 
L 234.320607 97.204505 
L 234.850882 151.480038 
L 235.381158 101.167887 
L 235.977718 60.976635 
L 236.514622 93.851163 
L 236.739989 227.617619 
L 236.978613 221.243157 
L 237.197351 233.551552 
L 238.032535 53.568 
L 238.291045 218.00033 
L 238.582696 205.772482 
L 239.172628 72.386782 
L 239.404623 231.343534 
L 239.908385 111.774846 
L 240.451917 95.874843 
L 240.982193 96.664811 
L 241.519097 94.289473 
L 242.049372 104.066868 
L 243.136437 88.67004 
L 243.686598 97.02168 
L 244.256644 76.453338 
L 245.376851 103.622988 
L 245.93364 97.431691 
L 246.503686 97.985479 
L 247.060476 104.011892 
L 247.630522 92.32711 
L 248.167426 109.831096 
L 248.730844 89.583035 
L 249.473229 57.531919 
L 250.010133 92.062789 
L 250.573551 91.400402 
L 251.223138 77.598776 
L 251.786556 98.141258 
L 252.336717 87.262405 
L 252.787451 147.500482 
L 253.370754 69.038641 
L 253.907658 96.696253 
L 254.358392 148.737797 
L 254.895296 107.940532 
L 255.438829 106.907563 
L 256.002246 77.146876 
L 256.559036 88.082797 
L 257.115825 81.936868 
L 257.659357 89.961202 
L 258.20289 99.649338 
L 258.746422 99.504152 
L 259.316468 77.174358 
L 259.866629 85.834525 
L 260.522845 55.722617 
L 261.073006 99.801638 
L 261.616538 104.960859 
L 262.160071 106.484308 
L 262.723488 99.824255 
L 263.286906 103.004392 
L 264.400485 75.24837 
L 264.937388 97.574215 
L 265.461036 111.972872 
L 266.004568 96.398588 
L 266.554729 103.155853 
L 267.10489 93.101832 
L 267.648422 93.864764 
L 268.198583 85.840117 
L 268.72223 98.816519 
L 269.272391 98.393567 
L 269.809295 96.50939 
L 270.366084 99.389535 
L 270.922873 98.66668 
L 271.492919 88.529082 
L 272.036452 98.842201 
L 272.573356 97.491444 
L 273.11026 95.021992 
L 273.627278 116.342339 
L 274.170811 98.116494 
L 274.720971 94.032623 
L 275.284389 80.628794 
L 275.861064 78.491559 
L 276.404596 102.735562 
L 276.961385 84.438623 
L 277.524803 80.433453 
L 278.035193 125.6946 
L 278.64501 59.579458 
L 279.168657 113.67164 
L 279.685676 123.688671 
L 280.242465 104.870023 
L 280.785997 111.250744 
L 281.906204 73.692003 
L 282.443108 94.834726 
L 282.986641 88.467406 
L 283.550058 89.337516 
L 284.113476 99.766158 
L 284.663637 96.855085 
L 285.220426 91.353345 
L 285.770587 106.319961 
L 286.334005 101.264406 
L 286.910679 92.831906 
L 287.493982 88.658038 
L 288.090542 89.54364 
L 288.65396 103.378733 
L 289.210749 108.793954 
L 289.72114 123.155475 
L 290.297814 93.809318 
L 290.874489 73.623426 
L 291.457792 80.246321 
L 292.06098 75.572456 
L 292.631026 82.323066 
L 293.214329 98.106181 
L 293.771119 89.309105 
L 294.36105 90.130146 
L 294.931096 76.371807 
L 295.521028 72.221753 
L 296.06456 113.513892 
L 297.198024 82.140923 
L 297.76807 77.548207 
L 298.311603 86.573084 
L 298.861763 102.128263 
L 299.43181 98.269073 
L 299.968714 90.56887 
L 300.518874 105.9125 
L 301.075664 84.098453 
L 301.625824 97.827162 
L 302.215756 76.202875 
L 302.772545 88.556475 
L 303.355848 84.658214 
L 303.932523 86.434206 
L 304.522454 79.956117 
L 305.099129 83.562372 
L 305.675804 94.278612 
L 306.232593 102.462024 
L 307.385942 85.131188 
L 307.955988 100.197824 
L 308.539291 91.719442 
L 309.659498 100.467324 
L 310.222916 100.158194 
L 310.786334 95.907438 
L 311.329866 108.859098 
L 311.893284 99.574653 
L 312.46333 99.796962 
L 313.020119 104.471958 
L 313.57028 97.558489 
L 314.100556 97.261282 
L 314.650716 97.684514 
L 315.234019 90.621419 
L 315.777552 107.564424 
L 316.334341 103.779091 
L 316.911016 95.399017 
L 317.474433 100.507804 
L 318.04448 100.058622 
L 318.614526 95.747397 
L 319.158058 96.500744 
L 319.741361 91.475925 
L 320.29815 104.489832 
L 320.848311 108.138133 
L 321.418357 100.359218 
L 321.988404 100.50824 
L 322.538564 100.038365 
L 323.108611 100.919974 
L 323.672028 104.813962 
L 324.242075 100.659769 
L 324.805492 100.808053 
L 325.362281 100.687385 
L 325.905814 101.420598 
L 326.469232 100.882861 
L 327.006136 100.661793 
L 327.576182 95.03188 
L 328.113086 99.045081 
L 328.64999 96.776776 
L 329.186894 93.533889 
L 330.293844 106.742712 
L 330.837376 105.30736 
L 331.400794 95.990064 
L 331.990725 94.054703 
L 332.540886 116.138239 
L 333.117561 102.82566 
L 333.707492 100.268549 
L 334.317309 90.785642 
L 334.893984 106.074599 
L 335.483915 90.002353 
L 336.047333 107.36595 
L 336.617379 90.013359 
L 337.757471 105.060432 
L 338.334146 96.820701 
L 338.904192 102.607781 
L 339.46761 103.583817 
L 340.011142 100.680182 
L 340.581188 101.063169 
L 341.118092 111.994426 
L 341.688138 99.824747 
L 342.251556 104.167626 
L 342.828231 97.488658 
L 343.424791 74.935169 
L 344.001465 96.524535 
L 344.598025 66.269387 
L 345.1747 87.329696 
L 345.777888 59.453119 
L 346.361191 82.696355 
L 346.957751 86.574985 
L 347.534426 99.336203 
L 348.1111 92.955751 
L 348.66789 105.939222 
L 349.284335 77.979571 
L 349.827867 111.193106 
L 350.384657 105.840366 
L 350.948074 104.30128 
L 351.524749 98.791173 
L 352.081538 92.396292 
L 352.644956 101.236811 
L 353.22163 97.562717 
L 353.804934 94.80938 
L 354.37498 98.595642 
L 354.951654 98.073877 
L 355.541586 94.249575 
L 356.111632 101.077174 
L 356.67505 96.329708 
L 357.27161 90.111488 
L 357.835027 94.804839 
L 358.968491 99.302613 
L 359.512024 93.439764 
L 360.048928 95.464933 
L 360.605717 93.511418 
L 361.149249 108.638846 
L 361.706038 93.575488 
L 362.282713 95.063792 
L 362.846131 86.661459 
L 363.422805 94.940272 
L 363.979595 100.229087 
L 364.562898 95.086375 
L 365.159458 82.130677 
L 365.756018 85.209217 
L 366.326064 98.382851 
L 366.922624 84.496205 
L 367.519184 88.989528 
L 368.115744 85.906581 
L 368.679161 102.325719 
L 369.288978 77.825895 
L 369.885538 84.574335 
L 370.488726 82.371521 
L 371.091915 84.842046 
L 371.675218 92.823819 
L 372.265149 90.244706 
L 372.81531 105.714407 
L 373.391985 96.963986 
L 373.962031 99.362332 
L 374.551962 89.89079 
L 375.128637 100.001174 
L 375.658913 116.459327 
L 376.235587 99.598567 
L 376.81889 94.586087 
L 377.388936 98.152365 
L 377.945726 104.825639 
L 378.502515 104.927818 
L 379.059304 104.87877 
L 379.622722 103.215739 
L 380.172883 108.046379 
L 380.7363 102.669289 
L 381.306347 100.172735 
L 381.876393 99.863571 
L 382.453067 92.917061 
L 383.023114 98.219064 
L 383.59316 100.439752 
L 384.169834 94.900933 
L 384.726624 102.601036 
L 385.283413 105.692439 
L 385.833574 106.858 
L 386.953781 87.373219 
L 387.550341 85.575986 
L 388.140272 88.040896 
L 388.750089 80.584019 
L 389.326763 96.12525 
L 389.903438 97.038145 
L 390.473484 100.096015 
L 391.056787 94.529276 
L 391.633462 97.928512 
L 392.183623 107.551863 
L 392.760297 96.036383 
L 393.323715 100.982724 
L 393.90039 98.004036 
L 394.470436 99.309135 
L 395.027225 104.48028 
L 395.590643 101.96904 
L 396.154061 102.263562 
L 396.724107 98.146784 
L 397.300781 97.63503 
L 397.884084 91.931629 
L 398.487273 84.414127 
L 398.487273 84.414127 
" clip-path="url(#p253e040d7b)" style="fill: none; stroke: #1f77b4; stroke-width: 1.5; stroke-linecap: square"/>
   </g>
   <g id="patch_3">
    <path d="M 57.6 307.584 
L 57.6 41.472 
" style="fill: none; stroke: #000000; stroke-width: 0.8; stroke-linejoin: miter; stroke-linecap: square"/>
   </g>
   <g id="patch_4">
    <path d="M 414.72 307.584 
L 414.72 41.472 
" style="fill: none; stroke: #000000; stroke-width: 0.8; stroke-linejoin: miter; stroke-linecap: square"/>
   </g>
   <g id="patch_5">
    <path d="M 57.6 307.584 
L 414.72 307.584 
" style="fill: none; stroke: #000000; stroke-width: 0.8; stroke-linejoin: miter; stroke-linecap: square"/>
   </g>
   <g id="patch_6">
    <path d="M 57.6 41.472 
L 414.72 41.472 
" style="fill: none; stroke: #000000; stroke-width: 0.8; stroke-linejoin: miter; stroke-linecap: square"/>
   </g>
   <g id="text_14">
    <!-- learning curve -->
    <g transform="translate(192.96375 35.472) scale(0.12 -0.12)">
     <defs>
      <path id="DejaVuSans-6c" d="M 603 4863 
L 1178 4863 
L 1178 0 
L 603 0 
L 603 4863 
z
" transform="scale(0.015625)"/>
      <path id="DejaVuSans-6e" d="M 3513 2113 
L 3513 0 
L 2938 0 
L 2938 2094 
Q 2938 2591 2744 2837 
Q 2550 3084 2163 3084 
Q 1697 3084 1428 2787 
Q 1159 2491 1159 1978 
L 1159 0 
L 581 0 
L 581 3500 
L 1159 3500 
L 1159 2956 
Q 1366 3272 1645 3428 
Q 1925 3584 2291 3584 
Q 2894 3584 3203 3211 
Q 3513 2838 3513 2113 
z
" transform="scale(0.015625)"/>
      <path id="DejaVuSans-67" d="M 2906 1791 
Q 2906 2416 2648 2759 
Q 2391 3103 1925 3103 
Q 1463 3103 1205 2759 
Q 947 2416 947 1791 
Q 947 1169 1205 825 
Q 1463 481 1925 481 
Q 2391 481 2648 825 
Q 2906 1169 2906 1791 
z
M 3481 434 
Q 3481 -459 3084 -895 
Q 2688 -1331 1869 -1331 
Q 1566 -1331 1297 -1286 
Q 1028 -1241 775 -1147 
L 775 -588 
Q 1028 -725 1275 -790 
Q 1522 -856 1778 -856 
Q 2344 -856 2625 -561 
Q 2906 -266 2906 331 
L 2906 616 
Q 2728 306 2450 153 
Q 2172 0 1784 0 
Q 1141 0 747 490 
Q 353 981 353 1791 
Q 353 2603 747 3093 
Q 1141 3584 1784 3584 
Q 2172 3584 2450 3431 
Q 2728 3278 2906 2969 
L 2906 3500 
L 3481 3500 
L 3481 434 
z
" transform="scale(0.015625)"/>
      <path id="DejaVuSans-20" transform="scale(0.015625)"/>
      <path id="DejaVuSans-63" d="M 3122 3366 
L 3122 2828 
Q 2878 2963 2633 3030 
Q 2388 3097 2138 3097 
Q 1578 3097 1268 2742 
Q 959 2388 959 1747 
Q 959 1106 1268 751 
Q 1578 397 2138 397 
Q 2388 397 2633 464 
Q 2878 531 3122 666 
L 3122 134 
Q 2881 22 2623 -34 
Q 2366 -91 2075 -91 
Q 1284 -91 818 406 
Q 353 903 353 1747 
Q 353 2603 823 3093 
Q 1294 3584 2113 3584 
Q 2378 3584 2631 3529 
Q 2884 3475 3122 3366 
z
" transform="scale(0.015625)"/>
      <path id="DejaVuSans-75" d="M 544 1381 
L 544 3500 
L 1119 3500 
L 1119 1403 
Q 1119 906 1312 657 
Q 1506 409 1894 409 
Q 2359 409 2629 706 
Q 2900 1003 2900 1516 
L 2900 3500 
L 3475 3500 
L 3475 0 
L 2900 0 
L 2900 538 
Q 2691 219 2414 64 
Q 2138 -91 1772 -91 
Q 1169 -91 856 284 
Q 544 659 544 1381 
z
M 1991 3584 
L 1991 3584 
z
" transform="scale(0.015625)"/>
      <path id="DejaVuSans-76" d="M 191 3500 
L 800 3500 
L 1894 563 
L 2988 3500 
L 3597 3500 
L 2284 0 
L 1503 0 
L 191 3500 
z
" transform="scale(0.015625)"/>
     </defs>
     <use xlink:href="#DejaVuSans-6c"/>
     <use xlink:href="#DejaVuSans-65" x="27.783203"/>
     <use xlink:href="#DejaVuSans-61" x="89.306641"/>
     <use xlink:href="#DejaVuSans-72" x="150.585938"/>
     <use xlink:href="#DejaVuSans-6e" x="189.949219"/>
     <use xlink:href="#DejaVuSans-69" x="253.328125"/>
     <use xlink:href="#DejaVuSans-6e" x="281.111328"/>
     <use xlink:href="#DejaVuSans-67" x="344.490234"/>
     <use xlink:href="#DejaVuSans-20" x="407.966797"/>
     <use xlink:href="#DejaVuSans-63" x="439.753906"/>
     <use xlink:href="#DejaVuSans-75" x="494.734375"/>
     <use xlink:href="#DejaVuSans-72" x="558.113281"/>
     <use xlink:href="#DejaVuSans-76" x="599.226562"/>
     <use xlink:href="#DejaVuSans-65" x="658.40625"/>
    </g>
   </g>
  </g>
 </g>
 <defs>
  <clipPath id="p253e040d7b">
   <rect x="57.6" y="41.472" width="357.12" height="266.112"/>
  </clipPath>
 </defs>
</svg>
