<?xml version="1.0" encoding="utf-8" standalone="no"?>
<!DOCTYPE svg PUBLIC "-//W3C//DTD SVG 1.1//EN"
  "http://www.w3.org/Graphics/SVG/1.1/DTD/svg11.dtd">
<svg xmlns:xlink="http://www.w3.org/1999/xlink" width="460.8pt" height="345.6pt" viewBox="0 0 460.8 345.6" xmlns="http://www.w3.org/2000/svg" version="1.1">
 <metadata>
  <rdf:RDF xmlns:dc="http://purl.org/dc/elements/1.1/" xmlns:cc="http://creativecommons.org/ns#" xmlns:rdf="http://www.w3.org/1999/02/22-rdf-syntax-ns#">
   <cc:Work>
    <dc:type rdf:resource="http://purl.org/dc/dcmitype/StillImage"/>
    <dc:date>2023-08-18T22:15:13.067484</dc:date>
    <dc:format>image/svg+xml</dc:format>
    <dc:creator>
     <cc:Agent>
      <dc:title>Matplotlib v3.7.1, https://matplotlib.org/</dc:title>
     </cc:Agent>
    </dc:creator>
   </cc:Work>
  </rdf:RDF>
 </metadata>
 <defs>
  <style type="text/css">*{stroke-linejoin: round; stroke-linecap: butt}</style>
 </defs>
 <g id="figure_1">
  <g id="patch_1">
   <path d="M 0 345.6 
L 460.8 345.6 
L 460.8 0 
L 0 0 
z
" style="fill: #ffffff"/>
  </g>
  <g id="axes_1">
   <g id="patch_2">
    <path d="M 57.6 307.584 
L 414.72 307.584 
L 414.72 41.472 
L 57.6 41.472 
z
" style="fill: #ffffff"/>
   </g>
   <g id="matplotlib.axis_1">
    <g id="xtick_1">
     <g id="line2d_1">
      <defs>
       <path id="m1c99425f54" d="M 0 0 
L 0 3.5 
" style="stroke: #000000; stroke-width: 0.8"/>
      </defs>
      <g>
       <use xlink:href="#m1c99425f54" x="73.728805" y="307.584" style="stroke: #000000; stroke-width: 0.8"/>
      </g>
     </g>
     <g id="text_1">
      <!-- 0 -->
      <g transform="translate(70.547555 322.182437) scale(0.1 -0.1)">
       <defs>
        <path id="DejaVuSans-30" d="M 2034 4250 
Q 1547 4250 1301 3770 
Q 1056 3291 1056 2328 
Q 1056 1369 1301 889 
Q 1547 409 2034 409 
Q 2525 409 2770 889 
Q 3016 1369 3016 2328 
Q 3016 3291 2770 3770 
Q 2525 4250 2034 4250 
z
M 2034 4750 
Q 2819 4750 3233 4129 
Q 3647 3509 3647 2328 
Q 3647 1150 3233 529 
Q 2819 -91 2034 -91 
Q 1250 -91 836 529 
Q 422 1150 422 2328 
Q 422 3509 836 4129 
Q 1250 4750 2034 4750 
z
" transform="scale(0.015625)"/>
       </defs>
       <use xlink:href="#DejaVuSans-30"/>
      </g>
     </g>
    </g>
    <g id="xtick_2">
     <g id="line2d_2">
      <g>
       <use xlink:href="#m1c99425f54" x="138.680498" y="307.584" style="stroke: #000000; stroke-width: 0.8"/>
      </g>
     </g>
     <g id="text_2">
      <!-- 10000 -->
      <g transform="translate(122.774248 322.182437) scale(0.1 -0.1)">
       <defs>
        <path id="DejaVuSans-31" d="M 794 531 
L 1825 531 
L 1825 4091 
L 703 3866 
L 703 4441 
L 1819 4666 
L 2450 4666 
L 2450 531 
L 3481 531 
L 3481 0 
L 794 0 
L 794 531 
z
" transform="scale(0.015625)"/>
       </defs>
       <use xlink:href="#DejaVuSans-31"/>
       <use xlink:href="#DejaVuSans-30" x="63.623047"/>
       <use xlink:href="#DejaVuSans-30" x="127.246094"/>
       <use xlink:href="#DejaVuSans-30" x="190.869141"/>
       <use xlink:href="#DejaVuSans-30" x="254.492188"/>
      </g>
     </g>
    </g>
    <g id="xtick_3">
     <g id="line2d_3">
      <g>
       <use xlink:href="#m1c99425f54" x="203.632192" y="307.584" style="stroke: #000000; stroke-width: 0.8"/>
      </g>
     </g>
     <g id="text_3">
      <!-- 20000 -->
      <g transform="translate(187.725942 322.182437) scale(0.1 -0.1)">
       <defs>
        <path id="DejaVuSans-32" d="M 1228 531 
L 3431 531 
L 3431 0 
L 469 0 
L 469 531 
Q 828 903 1448 1529 
Q 2069 2156 2228 2338 
Q 2531 2678 2651 2914 
Q 2772 3150 2772 3378 
Q 2772 3750 2511 3984 
Q 2250 4219 1831 4219 
Q 1534 4219 1204 4116 
Q 875 4013 500 3803 
L 500 4441 
Q 881 4594 1212 4672 
Q 1544 4750 1819 4750 
Q 2544 4750 2975 4387 
Q 3406 4025 3406 3419 
Q 3406 3131 3298 2873 
Q 3191 2616 2906 2266 
Q 2828 2175 2409 1742 
Q 1991 1309 1228 531 
z
" transform="scale(0.015625)"/>
       </defs>
       <use xlink:href="#DejaVuSans-32"/>
       <use xlink:href="#DejaVuSans-30" x="63.623047"/>
       <use xlink:href="#DejaVuSans-30" x="127.246094"/>
       <use xlink:href="#DejaVuSans-30" x="190.869141"/>
       <use xlink:href="#DejaVuSans-30" x="254.492188"/>
      </g>
     </g>
    </g>
    <g id="xtick_4">
     <g id="line2d_4">
      <g>
       <use xlink:href="#m1c99425f54" x="268.583885" y="307.584" style="stroke: #000000; stroke-width: 0.8"/>
      </g>
     </g>
     <g id="text_4">
      <!-- 30000 -->
      <g transform="translate(252.677635 322.182437) scale(0.1 -0.1)">
       <defs>
        <path id="DejaVuSans-33" d="M 2597 2516 
Q 3050 2419 3304 2112 
Q 3559 1806 3559 1356 
Q 3559 666 3084 287 
Q 2609 -91 1734 -91 
Q 1441 -91 1130 -33 
Q 819 25 488 141 
L 488 750 
Q 750 597 1062 519 
Q 1375 441 1716 441 
Q 2309 441 2620 675 
Q 2931 909 2931 1356 
Q 2931 1769 2642 2001 
Q 2353 2234 1838 2234 
L 1294 2234 
L 1294 2753 
L 1863 2753 
Q 2328 2753 2575 2939 
Q 2822 3125 2822 3475 
Q 2822 3834 2567 4026 
Q 2313 4219 1838 4219 
Q 1578 4219 1281 4162 
Q 984 4106 628 3988 
L 628 4550 
Q 988 4650 1302 4700 
Q 1616 4750 1894 4750 
Q 2613 4750 3031 4423 
Q 3450 4097 3450 3541 
Q 3450 3153 3228 2886 
Q 3006 2619 2597 2516 
z
" transform="scale(0.015625)"/>
       </defs>
       <use xlink:href="#DejaVuSans-33"/>
       <use xlink:href="#DejaVuSans-30" x="63.623047"/>
       <use xlink:href="#DejaVuSans-30" x="127.246094"/>
       <use xlink:href="#DejaVuSans-30" x="190.869141"/>
       <use xlink:href="#DejaVuSans-30" x="254.492188"/>
      </g>
     </g>
    </g>
    <g id="xtick_5">
     <g id="line2d_5">
      <g>
       <use xlink:href="#m1c99425f54" x="333.535579" y="307.584" style="stroke: #000000; stroke-width: 0.8"/>
      </g>
     </g>
     <g id="text_5">
      <!-- 40000 -->
      <g transform="translate(317.629329 322.182437) scale(0.1 -0.1)">
       <defs>
        <path id="DejaVuSans-34" d="M 2419 4116 
L 825 1625 
L 2419 1625 
L 2419 4116 
z
M 2253 4666 
L 3047 4666 
L 3047 1625 
L 3713 1625 
L 3713 1100 
L 3047 1100 
L 3047 0 
L 2419 0 
L 2419 1100 
L 313 1100 
L 313 1709 
L 2253 4666 
z
" transform="scale(0.015625)"/>
       </defs>
       <use xlink:href="#DejaVuSans-34"/>
       <use xlink:href="#DejaVuSans-30" x="63.623047"/>
       <use xlink:href="#DejaVuSans-30" x="127.246094"/>
       <use xlink:href="#DejaVuSans-30" x="190.869141"/>
       <use xlink:href="#DejaVuSans-30" x="254.492188"/>
      </g>
     </g>
    </g>
    <g id="xtick_6">
     <g id="line2d_6">
      <g>
       <use xlink:href="#m1c99425f54" x="398.487273" y="307.584" style="stroke: #000000; stroke-width: 0.8"/>
      </g>
     </g>
     <g id="text_6">
      <!-- 50000 -->
      <g transform="translate(382.581023 322.182437) scale(0.1 -0.1)">
       <defs>
        <path id="DejaVuSans-35" d="M 691 4666 
L 3169 4666 
L 3169 4134 
L 1269 4134 
L 1269 2991 
Q 1406 3038 1543 3061 
Q 1681 3084 1819 3084 
Q 2600 3084 3056 2656 
Q 3513 2228 3513 1497 
Q 3513 744 3044 326 
Q 2575 -91 1722 -91 
Q 1428 -91 1123 -41 
Q 819 9 494 109 
L 494 744 
Q 775 591 1075 516 
Q 1375 441 1709 441 
Q 2250 441 2565 725 
Q 2881 1009 2881 1497 
Q 2881 1984 2565 2268 
Q 2250 2553 1709 2553 
Q 1456 2553 1204 2497 
Q 953 2441 691 2322 
L 691 4666 
z
" transform="scale(0.015625)"/>
       </defs>
       <use xlink:href="#DejaVuSans-35"/>
       <use xlink:href="#DejaVuSans-30" x="63.623047"/>
       <use xlink:href="#DejaVuSans-30" x="127.246094"/>
       <use xlink:href="#DejaVuSans-30" x="190.869141"/>
       <use xlink:href="#DejaVuSans-30" x="254.492188"/>
      </g>
     </g>
    </g>
    <g id="text_7">
     <!-- timesteps -->
     <g transform="translate(211.443594 335.860562) scale(0.1 -0.1)">
      <defs>
       <path id="DejaVuSans-74" d="M 1172 4494 
L 1172 3500 
L 2356 3500 
L 2356 3053 
L 1172 3053 
L 1172 1153 
Q 1172 725 1289 603 
Q 1406 481 1766 481 
L 2356 481 
L 2356 0 
L 1766 0 
Q 1100 0 847 248 
Q 594 497 594 1153 
L 594 3053 
L 172 3053 
L 172 3500 
L 594 3500 
L 594 4494 
L 1172 4494 
z
" transform="scale(0.015625)"/>
       <path id="DejaVuSans-69" d="M 603 3500 
L 1178 3500 
L 1178 0 
L 603 0 
L 603 3500 
z
M 603 4863 
L 1178 4863 
L 1178 4134 
L 603 4134 
L 603 4863 
z
" transform="scale(0.015625)"/>
       <path id="DejaVuSans-6d" d="M 3328 2828 
Q 3544 3216 3844 3400 
Q 4144 3584 4550 3584 
Q 5097 3584 5394 3201 
Q 5691 2819 5691 2113 
L 5691 0 
L 5113 0 
L 5113 2094 
Q 5113 2597 4934 2840 
Q 4756 3084 4391 3084 
Q 3944 3084 3684 2787 
Q 3425 2491 3425 1978 
L 3425 0 
L 2847 0 
L 2847 2094 
Q 2847 2600 2669 2842 
Q 2491 3084 2119 3084 
Q 1678 3084 1418 2786 
Q 1159 2488 1159 1978 
L 1159 0 
L 581 0 
L 581 3500 
L 1159 3500 
L 1159 2956 
Q 1356 3278 1631 3431 
Q 1906 3584 2284 3584 
Q 2666 3584 2933 3390 
Q 3200 3197 3328 2828 
z
" transform="scale(0.015625)"/>
       <path id="DejaVuSans-65" d="M 3597 1894 
L 3597 1613 
L 953 1613 
Q 991 1019 1311 708 
Q 1631 397 2203 397 
Q 2534 397 2845 478 
Q 3156 559 3463 722 
L 3463 178 
Q 3153 47 2828 -22 
Q 2503 -91 2169 -91 
Q 1331 -91 842 396 
Q 353 884 353 1716 
Q 353 2575 817 3079 
Q 1281 3584 2069 3584 
Q 2775 3584 3186 3129 
Q 3597 2675 3597 1894 
z
M 3022 2063 
Q 3016 2534 2758 2815 
Q 2500 3097 2075 3097 
Q 1594 3097 1305 2825 
Q 1016 2553 972 2059 
L 3022 2063 
z
" transform="scale(0.015625)"/>
       <path id="DejaVuSans-73" d="M 2834 3397 
L 2834 2853 
Q 2591 2978 2328 3040 
Q 2066 3103 1784 3103 
Q 1356 3103 1142 2972 
Q 928 2841 928 2578 
Q 928 2378 1081 2264 
Q 1234 2150 1697 2047 
L 1894 2003 
Q 2506 1872 2764 1633 
Q 3022 1394 3022 966 
Q 3022 478 2636 193 
Q 2250 -91 1575 -91 
Q 1294 -91 989 -36 
Q 684 19 347 128 
L 347 722 
Q 666 556 975 473 
Q 1284 391 1588 391 
Q 1994 391 2212 530 
Q 2431 669 2431 922 
Q 2431 1156 2273 1281 
Q 2116 1406 1581 1522 
L 1381 1569 
Q 847 1681 609 1914 
Q 372 2147 372 2553 
Q 372 3047 722 3315 
Q 1072 3584 1716 3584 
Q 2034 3584 2315 3537 
Q 2597 3491 2834 3397 
z
" transform="scale(0.015625)"/>
       <path id="DejaVuSans-70" d="M 1159 525 
L 1159 -1331 
L 581 -1331 
L 581 3500 
L 1159 3500 
L 1159 2969 
Q 1341 3281 1617 3432 
Q 1894 3584 2278 3584 
Q 2916 3584 3314 3078 
Q 3713 2572 3713 1747 
Q 3713 922 3314 415 
Q 2916 -91 2278 -91 
Q 1894 -91 1617 61 
Q 1341 213 1159 525 
z
M 3116 1747 
Q 3116 2381 2855 2742 
Q 2594 3103 2138 3103 
Q 1681 3103 1420 2742 
Q 1159 2381 1159 1747 
Q 1159 1113 1420 752 
Q 1681 391 2138 391 
Q 2594 391 2855 752 
Q 3116 1113 3116 1747 
z
" transform="scale(0.015625)"/>
      </defs>
      <use xlink:href="#DejaVuSans-74"/>
      <use xlink:href="#DejaVuSans-69" x="39.208984"/>
      <use xlink:href="#DejaVuSans-6d" x="66.992188"/>
      <use xlink:href="#DejaVuSans-65" x="164.404297"/>
      <use xlink:href="#DejaVuSans-73" x="225.927734"/>
      <use xlink:href="#DejaVuSans-74" x="278.027344"/>
      <use xlink:href="#DejaVuSans-65" x="317.236328"/>
      <use xlink:href="#DejaVuSans-70" x="378.759766"/>
      <use xlink:href="#DejaVuSans-73" x="442.236328"/>
     </g>
    </g>
   </g>
   <g id="matplotlib.axis_2">
    <g id="ytick_1">
     <g id="line2d_7">
      <defs>
       <path id="m647479a7cb" d="M 0 0 
L -3.5 0 
" style="stroke: #000000; stroke-width: 0.8"/>
      </defs>
      <g>
       <use xlink:href="#m647479a7cb" x="57.6" y="296.575493" style="stroke: #000000; stroke-width: 0.8"/>
      </g>
     </g>
     <g id="text_8">
      <!-- 0 -->
      <g transform="translate(44.2375 300.374712) scale(0.1 -0.1)">
       <use xlink:href="#DejaVuSans-30"/>
      </g>
     </g>
    </g>
    <g id="ytick_2">
     <g id="line2d_8">
      <g>
       <use xlink:href="#m647479a7cb" x="57.6" y="260.250738" style="stroke: #000000; stroke-width: 0.8"/>
      </g>
     </g>
     <g id="text_9">
      <!-- 100 -->
      <g transform="translate(31.5125 264.049957) scale(0.1 -0.1)">
       <use xlink:href="#DejaVuSans-31"/>
       <use xlink:href="#DejaVuSans-30" x="63.623047"/>
       <use xlink:href="#DejaVuSans-30" x="127.246094"/>
      </g>
     </g>
    </g>
    <g id="ytick_3">
     <g id="line2d_9">
      <g>
       <use xlink:href="#m647479a7cb" x="57.6" y="223.925983" style="stroke: #000000; stroke-width: 0.8"/>
      </g>
     </g>
     <g id="text_10">
      <!-- 200 -->
      <g transform="translate(31.5125 227.725202) scale(0.1 -0.1)">
       <use xlink:href="#DejaVuSans-32"/>
       <use xlink:href="#DejaVuSans-30" x="63.623047"/>
       <use xlink:href="#DejaVuSans-30" x="127.246094"/>
      </g>
     </g>
    </g>
    <g id="ytick_4">
     <g id="line2d_10">
      <g>
       <use xlink:href="#m647479a7cb" x="57.6" y="187.601229" style="stroke: #000000; stroke-width: 0.8"/>
      </g>
     </g>
     <g id="text_11">
      <!-- 300 -->
      <g transform="translate(31.5125 191.400447) scale(0.1 -0.1)">
       <use xlink:href="#DejaVuSans-33"/>
       <use xlink:href="#DejaVuSans-30" x="63.623047"/>
       <use xlink:href="#DejaVuSans-30" x="127.246094"/>
      </g>
     </g>
    </g>
    <g id="ytick_5">
     <g id="line2d_11">
      <g>
       <use xlink:href="#m647479a7cb" x="57.6" y="151.276474" style="stroke: #000000; stroke-width: 0.8"/>
      </g>
     </g>
     <g id="text_12">
      <!-- 400 -->
      <g transform="translate(31.5125 155.075693) scale(0.1 -0.1)">
       <use xlink:href="#DejaVuSans-34"/>
       <use xlink:href="#DejaVuSans-30" x="63.623047"/>
       <use xlink:href="#DejaVuSans-30" x="127.246094"/>
      </g>
     </g>
    </g>
    <g id="ytick_6">
     <g id="line2d_12">
      <g>
       <use xlink:href="#m647479a7cb" x="57.6" y="114.951719" style="stroke: #000000; stroke-width: 0.8"/>
      </g>
     </g>
     <g id="text_13">
      <!-- 500 -->
      <g transform="translate(31.5125 118.750938) scale(0.1 -0.1)">
       <use xlink:href="#DejaVuSans-35"/>
       <use xlink:href="#DejaVuSans-30" x="63.623047"/>
       <use xlink:href="#DejaVuSans-30" x="127.246094"/>
      </g>
     </g>
    </g>
    <g id="ytick_7">
     <g id="line2d_13">
      <g>
       <use xlink:href="#m647479a7cb" x="57.6" y="78.626964" style="stroke: #000000; stroke-width: 0.8"/>
      </g>
     </g>
     <g id="text_14">
      <!-- 600 -->
      <g transform="translate(31.5125 82.426183) scale(0.1 -0.1)">
       <defs>
        <path id="DejaVuSans-36" d="M 2113 2584 
Q 1688 2584 1439 2293 
Q 1191 2003 1191 1497 
Q 1191 994 1439 701 
Q 1688 409 2113 409 
Q 2538 409 2786 701 
Q 3034 994 3034 1497 
Q 3034 2003 2786 2293 
Q 2538 2584 2113 2584 
z
M 3366 4563 
L 3366 3988 
Q 3128 4100 2886 4159 
Q 2644 4219 2406 4219 
Q 1781 4219 1451 3797 
Q 1122 3375 1075 2522 
Q 1259 2794 1537 2939 
Q 1816 3084 2150 3084 
Q 2853 3084 3261 2657 
Q 3669 2231 3669 1497 
Q 3669 778 3244 343 
Q 2819 -91 2113 -91 
Q 1303 -91 875 529 
Q 447 1150 447 2328 
Q 447 3434 972 4092 
Q 1497 4750 2381 4750 
Q 2619 4750 2861 4703 
Q 3103 4656 3366 4563 
z
" transform="scale(0.015625)"/>
       </defs>
       <use xlink:href="#DejaVuSans-36"/>
       <use xlink:href="#DejaVuSans-30" x="63.623047"/>
       <use xlink:href="#DejaVuSans-30" x="127.246094"/>
      </g>
     </g>
    </g>
    <g id="ytick_8">
     <g id="line2d_14">
      <g>
       <use xlink:href="#m647479a7cb" x="57.6" y="42.302209" style="stroke: #000000; stroke-width: 0.8"/>
      </g>
     </g>
     <g id="text_15">
      <!-- 700 -->
      <g transform="translate(31.5125 46.101428) scale(0.1 -0.1)">
       <defs>
        <path id="DejaVuSans-37" d="M 525 4666 
L 3525 4666 
L 3525 4397 
L 1831 0 
L 1172 0 
L 2766 4134 
L 525 4134 
L 525 4666 
z
" transform="scale(0.015625)"/>
       </defs>
       <use xlink:href="#DejaVuSans-37"/>
       <use xlink:href="#DejaVuSans-30" x="63.623047"/>
       <use xlink:href="#DejaVuSans-30" x="127.246094"/>
      </g>
     </g>
    </g>
    <g id="text_16">
     <!-- mean episode rewards -->
     <g transform="translate(25.432812 231.360031) rotate(-90) scale(0.1 -0.1)">
      <defs>
       <path id="DejaVuSans-61" d="M 2194 1759 
Q 1497 1759 1228 1600 
Q 959 1441 959 1056 
Q 959 750 1161 570 
Q 1363 391 1709 391 
Q 2188 391 2477 730 
Q 2766 1069 2766 1631 
L 2766 1759 
L 2194 1759 
z
M 3341 1997 
L 3341 0 
L 2766 0 
L 2766 531 
Q 2569 213 2275 61 
Q 1981 -91 1556 -91 
Q 1019 -91 701 211 
Q 384 513 384 1019 
Q 384 1609 779 1909 
Q 1175 2209 1959 2209 
L 2766 2209 
L 2766 2266 
Q 2766 2663 2505 2880 
Q 2244 3097 1772 3097 
Q 1472 3097 1187 3025 
Q 903 2953 641 2809 
L 641 3341 
Q 956 3463 1253 3523 
Q 1550 3584 1831 3584 
Q 2591 3584 2966 3190 
Q 3341 2797 3341 1997 
z
" transform="scale(0.015625)"/>
       <path id="DejaVuSans-6e" d="M 3513 2113 
L 3513 0 
L 2938 0 
L 2938 2094 
Q 2938 2591 2744 2837 
Q 2550 3084 2163 3084 
Q 1697 3084 1428 2787 
Q 1159 2491 1159 1978 
L 1159 0 
L 581 0 
L 581 3500 
L 1159 3500 
L 1159 2956 
Q 1366 3272 1645 3428 
Q 1925 3584 2291 3584 
Q 2894 3584 3203 3211 
Q 3513 2838 3513 2113 
z
" transform="scale(0.015625)"/>
       <path id="DejaVuSans-20" transform="scale(0.015625)"/>
       <path id="DejaVuSans-6f" d="M 1959 3097 
Q 1497 3097 1228 2736 
Q 959 2375 959 1747 
Q 959 1119 1226 758 
Q 1494 397 1959 397 
Q 2419 397 2687 759 
Q 2956 1122 2956 1747 
Q 2956 2369 2687 2733 
Q 2419 3097 1959 3097 
z
M 1959 3584 
Q 2709 3584 3137 3096 
Q 3566 2609 3566 1747 
Q 3566 888 3137 398 
Q 2709 -91 1959 -91 
Q 1206 -91 779 398 
Q 353 888 353 1747 
Q 353 2609 779 3096 
Q 1206 3584 1959 3584 
z
" transform="scale(0.015625)"/>
       <path id="DejaVuSans-64" d="M 2906 2969 
L 2906 4863 
L 3481 4863 
L 3481 0 
L 2906 0 
L 2906 525 
Q 2725 213 2448 61 
Q 2172 -91 1784 -91 
Q 1150 -91 751 415 
Q 353 922 353 1747 
Q 353 2572 751 3078 
Q 1150 3584 1784 3584 
Q 2172 3584 2448 3432 
Q 2725 3281 2906 2969 
z
M 947 1747 
Q 947 1113 1208 752 
Q 1469 391 1925 391 
Q 2381 391 2643 752 
Q 2906 1113 2906 1747 
Q 2906 2381 2643 2742 
Q 2381 3103 1925 3103 
Q 1469 3103 1208 2742 
Q 947 2381 947 1747 
z
" transform="scale(0.015625)"/>
       <path id="DejaVuSans-72" d="M 2631 2963 
Q 2534 3019 2420 3045 
Q 2306 3072 2169 3072 
Q 1681 3072 1420 2755 
Q 1159 2438 1159 1844 
L 1159 0 
L 581 0 
L 581 3500 
L 1159 3500 
L 1159 2956 
Q 1341 3275 1631 3429 
Q 1922 3584 2338 3584 
Q 2397 3584 2469 3576 
Q 2541 3569 2628 3553 
L 2631 2963 
z
" transform="scale(0.015625)"/>
       <path id="DejaVuSans-77" d="M 269 3500 
L 844 3500 
L 1563 769 
L 2278 3500 
L 2956 3500 
L 3675 769 
L 4391 3500 
L 4966 3500 
L 4050 0 
L 3372 0 
L 2619 2869 
L 1863 0 
L 1184 0 
L 269 3500 
z
" transform="scale(0.015625)"/>
      </defs>
      <use xlink:href="#DejaVuSans-6d"/>
      <use xlink:href="#DejaVuSans-65" x="97.412109"/>
      <use xlink:href="#DejaVuSans-61" x="158.935547"/>
      <use xlink:href="#DejaVuSans-6e" x="220.214844"/>
      <use xlink:href="#DejaVuSans-20" x="283.59375"/>
      <use xlink:href="#DejaVuSans-65" x="315.380859"/>
      <use xlink:href="#DejaVuSans-70" x="376.904297"/>
      <use xlink:href="#DejaVuSans-69" x="440.380859"/>
      <use xlink:href="#DejaVuSans-73" x="468.164062"/>
      <use xlink:href="#DejaVuSans-6f" x="520.263672"/>
      <use xlink:href="#DejaVuSans-64" x="581.445312"/>
      <use xlink:href="#DejaVuSans-65" x="644.921875"/>
      <use xlink:href="#DejaVuSans-20" x="706.445312"/>
      <use xlink:href="#DejaVuSans-72" x="738.232422"/>
      <use xlink:href="#DejaVuSans-65" x="777.095703"/>
      <use xlink:href="#DejaVuSans-77" x="838.619141"/>
      <use xlink:href="#DejaVuSans-61" x="920.40625"/>
      <use xlink:href="#DejaVuSans-72" x="981.685547"/>
      <use xlink:href="#DejaVuSans-64" x="1021.048828"/>
      <use xlink:href="#DejaVuSans-73" x="1084.525391"/>
     </g>
    </g>
   </g>
   <g id="line2d_15">
    <path d="M 73.910669 293.577092 
L 74.008097 292.993868 
L 74.099029 294.105124 
L 74.209447 292.188503 
L 74.696585 260.524574 
L 74.871954 293.079509 
L 75.248674 281.777105 
L 75.313626 294.585217 
L 75.605909 283.419041 
L 75.729317 291.24724 
L 75.982628 285.462708 
L 76.067066 292.818629 
L 76.209959 289.744734 
L 76.456776 292.399664 
L 76.580184 290.187116 
L 76.684107 291.923326 
L 76.950409 291.251344 
L 77.067322 292.111259 
L 77.138768 293.926758 
L 77.255682 291.075449 
L 77.411566 291.086479 
L 77.554459 291.879788 
L 77.840247 282.856441 
L 77.924684 293.62643 
L 78.048092 290.585104 
L 78.197481 290.950527 
L 78.281918 293.463334 
L 78.587191 288.16687 
L 78.684619 293.947348 
L 78.918445 288.700612 
L 79.022368 293.331579 
L 79.12629 290.704373 
L 79.386097 276.780319 
L 79.470534 293.615575 
L 79.554971 293.504356 
L 79.69137 289.058068 
L 79.925196 294.275326 
L 80.172013 290.719531 
L 80.301916 291.957373 
L 80.405839 291.495296 
L 80.490276 292.567177 
L 80.639665 292.247705 
L 80.763073 293.327962 
L 80.918957 292.067914 
L 81.042365 289.581818 
L 81.321658 292.534657 
L 81.503522 286.323718 
L 81.730853 292.97042 
L 81.8023 293.912502 
L 81.945194 287.615055 
L 82.010146 294.140275 
L 82.230981 292.154486 
L 82.315418 293.008385 
L 82.445322 292.687072 
L 82.614196 289.158636 
L 82.925964 269.791061 
L 83.107829 288.246233 
L 83.315675 281.066533 
L 83.620948 282.446022 
L 83.809307 292.838389 
L 83.919725 292.736514 
L 84.160047 282.428479 
L 84.263969 293.85518 
L 84.627699 273.986571 
L 84.842039 277.88828 
L 84.952457 293.472149 
L 85.04339 292.833729 
L 85.322682 289.419131 
L 85.627955 282.479501 
L 85.900752 293.585382 
L 86.069626 286.026614 
L 86.167054 292.954553 
L 86.322938 292.751711 
L 86.41387 294.494479 
L 86.543774 288.461813 
L 86.732134 288.043934 
L 86.797085 294.310499 
L 87.232262 262.977955 
L 87.401136 294.46329 
L 87.472583 294.38023 
L 87.680428 293.30286 
L 87.74538 293.620991 
L 87.888274 293.672794 
L 88.180556 294.160413 
L 88.349431 285.061867 
L 88.544286 293.878055 
L 88.90152 262.530962 
L 89.018433 289.976396 
L 89.226279 289.856081 
L 89.304221 293.475509 
L 89.427629 291.240874 
L 89.635474 285.313014 
L 89.953738 294.145741 
L 90.551293 278.463994 
L 90.62274 293.266233 
L 90.895537 290.190833 
L 91.324218 281.43165 
L 91.56454 285.30912 
L 91.661967 293.350896 
L 91.863317 289.502185 
L 92.084153 291.796664 
L 92.214057 291.62946 
L 92.311484 291.914369 
L 92.512834 287.416536 
L 92.727175 293.76576 
L 92.93502 291.65029 
L 93.019458 294.223977 
L 93.181837 293.573766 
L 93.272769 294.148092 
L 93.584537 291.990634 
L 93.753412 292.858309 
L 93.974247 294.939641 
L 94.143122 292.72591 
L 94.311996 292.330601 
L 94.422414 291.400978 
L 94.571803 294.121721 
L 94.766658 284.950931 
L 95.084921 293.989488 
L 95.247301 291.379661 
L 95.383699 291.438577 
L 95.572059 293.486987 
L 95.669487 292.550635 
L 96.221576 251.935035 
L 96.357975 290.745611 
L 96.585306 290.852926 
L 96.656752 293.619207 
L 96.780161 294.000117 
L 96.871093 295.101076 
L 97.150385 286.989879 
L 97.299774 287.078109 
L 97.397202 291.818672 
L 97.585562 289.463692 
L 97.760931 294.56506 
L 97.864854 293.933151 
L 98.092185 283.975007 
L 98.150641 294.114878 
L 98.215593 293.639586 
L 98.306525 292.754555 
L 98.455914 287.851203 
L 98.540352 294.398005 
L 98.702731 293.785778 
L 98.800158 292.907414 
L 98.949547 286.036319 
L 99.176878 294.600884 
L 99.313277 292.60598 
L 99.488646 293.768387 
L 99.651025 286.949736 
L 100.040736 293.585011 
L 100.157649 290.525971 
L 100.255076 291.902945 
L 100.690253 282.293112 
L 100.748709 294.825707 
L 101.17739 285.632737 
L 101.35276 294.691954 
L 101.521634 283.127998 
L 101.722985 293.382875 
L 101.852888 295.488 
L 101.982791 292.563751 
L 102.054238 294.054671 
L 102.151666 291.935971 
L 102.288064 292.420599 
L 102.456939 289.886753 
L 102.528386 294.339134 
L 102.638803 290.98906 
L 102.71025 293.518747 
L 102.827163 289.631799 
L 103.028514 294.770522 
L 103.132436 294.117253 
L 103.190893 294.28853 
L 103.327291 289.996243 
L 103.405233 293.743464 
L 103.632564 280.096943 
L 103.691021 294.808681 
L 103.768963 293.639617 
L 103.885876 293.60423 
L 103.976808 292.461902 
L 104.074236 293.341981 
L 104.191149 290.837309 
L 104.386004 293.49529 
L 104.600345 285.288839 
L 104.814685 292.929867 
L 104.905618 292.987016 
L 105.016035 293.338001 
L 105.100473 293.024458 
L 105.230376 290.743192 
L 105.340794 290.9976 
L 105.464202 292.321275 
L 105.600601 292.147643 
L 105.756485 293.526183 
L 105.866903 292.23597 
L 106.022787 292.649283 
L 106.100729 294.776782 
L 106.276098 288.040616 
L 106.35404 293.33185 
L 106.477448 289.868152 
L 106.555391 293.190887 
L 106.769731 286.832442 
L 106.860663 292.160036 
L 106.971081 290.479993 
L 107.211403 273.891861 
L 107.29584 293.254077 
L 107.412753 290.510665 
L 107.49719 292.795727 
L 107.633589 288.537726 
L 107.808958 294.591501 
L 108.166193 272.603763 
L 108.231144 293.780909 
L 108.335067 293.123006 
L 108.432494 293.292849 
L 108.536417 294.244556 
L 108.614359 292.440117 
L 108.750758 292.150996 
L 108.984584 289.066256 
L 109.146963 294.188676 
L 109.361304 291.027603 
L 109.491207 292.647811 
L 109.582139 291.954901 
L 109.78349 286.968212 
L 109.945869 293.813474 
L 110.426511 284.315921 
L 110.777251 288.157879 
L 110.900659 293.735122 
L 110.978601 293.113907 
L 111.134485 288.431858 
L 111.257893 290.99837 
L 111.439758 286.275211 
L 111.71905 287.816733 
L 111.855449 287.464453 
L 112.08278 294.663856 
L 112.219178 289.419687 
L 112.504966 291.725953 
L 112.621879 292.454243 
L 112.719306 291.798271 
L 112.972618 282.830764 
L 113.096026 290.311336 
L 113.232425 290.780214 
L 113.407794 293.367064 
L 113.505222 290.798572 
L 113.583164 294.365663 
L 113.654611 293.454969 
L 113.771524 290.901794 
L 113.823485 294.528513 
L 114.096282 289.28407 
L 114.21969 289.512034 
L 114.447021 292.297681 
L 114.667857 286.375317 
L 114.875702 293.963047 
L 115.038082 292.891873 
L 115.271908 286.609916 
L 115.434287 286.762076 
L 115.759046 280.910038 
L 115.901939 294.252668 
L 116.389077 289.234373 
L 116.720331 268.720949 
L 116.804768 293.459884 
L 117.311391 246.090981 
L 117.395828 293.250557 
L 117.571198 293.357928 
L 117.694606 291.119529 
L 117.779043 292.69162 
L 117.934927 290.396453 
L 118.123287 293.422635 
L 118.292162 286.397003 
L 118.370104 293.540435 
L 118.500007 288.668279 
L 118.597435 294.417934 
L 118.779299 284.014325 
L 118.844251 294.729157 
L 118.967659 292.064143 
L 119.045601 293.562242 
L 119.201485 286.055245 
L 119.37036 295.274885 
L 119.448302 293.932904 
L 119.5847 291.469286 
L 119.656147 293.556154 
L 119.870488 290.835068 
L 120.260198 272.941706 
L 120.455053 283.062641 
L 120.532995 294.039887 
L 120.617432 292.134985 
L 120.747336 287.999487 
L 120.838268 292.020167 
L 121.020133 293.59933 
L 121.124055 292.316633 
L 121.214988 294.547834 
L 121.513766 276.278514 
L 121.578717 295.073831 
L 121.643669 294.769784 
L 121.780068 290.957733 
L 122.319167 239.990094 
L 122.604954 281.798091 
L 122.799809 287.110622 
L 122.988169 284.298266 
L 123.066111 293.934034 
L 123.144053 292.276022 
L 123.234985 293.4652 
L 123.410355 289.383093 
L 123.462316 294.754132 
L 123.59222 293.535567 
L 123.79357 282.701066 
L 124.020901 286.989853 
L 124.124824 294.122288 
L 124.241737 292.501099 
L 124.482058 285.011496 
L 124.709389 294.391009 
L 124.806816 292.501461 
L 124.897749 293.55423 
L 125.12508 292.116655 
L 125.293954 292.923833 
L 125.638198 279.224688 
L 126.190288 247.070191 
L 126.255239 293.783935 
L 126.359162 291.887228 
L 126.48257 292.770876 
L 126.560512 295.187469 
L 126.690416 292.547138 
L 126.807329 293.210887 
L 126.917746 292.238088 
L 126.989193 293.974132 
L 127.093116 293.41663 
L 127.249 293.829455 
L 127.333437 293.646332 
L 127.469836 289.494268 
L 127.586749 291.340619 
L 127.703662 290.921317 
L 127.853051 287.317756 
L 128.723404 238.348671 
L 128.872792 292.385909 
L 129.035172 290.183774 
L 129.139094 292.885057 
L 129.281988 287.474503 
L 129.431377 288.245896 
L 129.678193 282.119904 
L 129.853563 292.821407 
L 129.957486 292.224062 
L 130.093884 292.482327 
L 130.217293 294.602546 
L 130.353691 291.434955 
L 130.457614 293.095109 
L 130.697935 290.210423 
L 130.983723 293.658881 
L 131.172082 288.621612 
L 131.405909 288.596508 
L 131.717677 285.80548 
L 131.83459 293.169398 
L 131.996969 285.926858 
L 132.152853 293.988626 
L 132.2243 294.193762 
L 132.302242 293.738411 
L 132.523078 288.788653 
L 132.704942 294.69868 
L 133.055682 285.152376 
L 133.211566 293.211517 
L 133.360954 291.652948 
L 133.5688 293.367065 
L 133.666227 291.32347 
L 133.94552 277.822427 
L 134.088413 289.085353 
L 134.718445 238.332327 
L 134.90031 293.925669 
L 135.017223 289.779605 
L 135.121145 291.911063 
L 135.238058 289.519679 
L 135.348476 292.247792 
L 135.47838 291.01179 
L 135.601788 291.982847 
L 135.777157 288.13607 
L 135.88108 291.279684 
L 136.004488 291.561926 
L 136.08243 293.732445 
L 136.199343 290.359812 
L 136.491626 286.906098 
L 136.731947 292.199286 
L 136.82288 292.894756 
L 137.01124 286.823439 
L 137.076191 293.879987 
L 137.154133 293.356748 
L 137.258056 292.88357 
L 137.537348 285.848987 
L 137.706223 288.647624 
L 137.862107 294.109201 
L 138.056962 291.420319 
L 138.173875 294.325508 
L 138.719469 243.328119 
L 138.992266 284.631409 
L 139.232588 278.27014 
L 139.401462 290.770162 
L 139.596317 290.082516 
L 140.252329 261.236544 
L 140.434194 278.801579 
L 140.609563 279.450304 
L 141.064225 274.050233 
L 141.2331 279.549843 
L 141.408469 279.553369 
L 141.544868 282.711504 
L 141.713742 279.245192 
L 141.876122 280.108962 
L 142.103452 271.441711 
L 142.636056 236.29924 
L 142.993291 258.133212 
L 143.337535 258.437798 
L 143.824672 242.283791 
L 144.29882 244.518062 
L 144.811938 239.55047 
L 145.305571 241.593541 
L 145.792709 242.798916 
L 146.123962 260.303333 
L 146.572129 248.573906 
L 147.033286 246.429565 
L 147.487948 247.366167 
L 147.728269 270.285348 
L 148.124474 254.958568 
L 148.397272 266.84732 
L 148.884409 243.387937 
L 149.48846 228.692123 
L 150.07952 233.25308 
L 150.612124 239.92553 
L 151.216175 229.264804 
L 151.748779 236.111801 
L 152.326849 233.416047 
L 152.898424 231.446992 
L 153.502475 227.54814 
L 154.080545 231.115227 
L 154.66511 230.537674 
L 155.145753 243.663866 
L 156.275912 229.071025 
L 156.873468 228.821288 
L 157.425557 232.797727 
L 158.010122 229.852134 
L 158.601183 227.504088 
L 159.172758 230.672989 
L 159.776808 227.080157 
L 160.348383 228.413669 
L 160.906968 231.772666 
L 161.452562 228.276565 
L 162.043622 230.265847 
L 162.199506 283.237268 
L 162.797062 228.529295 
L 163.381627 220.800076 
L 163.953202 226.420697 
L 164.433845 241.6907 
L 165.024905 221.571904 
L 165.60947 227.972675 
L 166.18754 223.995278 
L 166.733135 228.210312 
L 167.337185 224.889402 
L 167.928246 226.334775 
L 168.506316 226.369375 
L 169.097376 222.333892 
L 169.662456 226.57205 
L 170.857567 223.441329 
L 171.429142 227.053555 
L 172.013707 221.846001 
L 172.585282 224.208612 
L 173.104896 236.978824 
L 173.682966 222.821845 
L 174.248046 231.226125 
L 174.774154 236.620664 
L 175.365215 222.675103 
L 175.96277 220.211503 
L 176.560326 224.977266 
L 177.131901 230.603441 
L 177.722961 229.659225 
L 178.294536 223.703526 
L 178.944053 212.874423 
L 179.645531 203.790861 
L 180.379486 198.798686 
L 181.035498 206.314659 
L 181.821413 195.631495 
L 182.503406 216.004282 
L 183.230865 201.977385 
L 184.01678 201.37368 
L 184.737744 201.018525 
L 185.478193 193.656023 
L 186.186167 213.257925 
L 186.939607 214.020239 
L 187.667066 206.323756 
L 188.388029 207.365103 
L 189.115488 214.253815 
L 189.93388 194.849604 
L 190.083269 287.085002 
L 190.583397 245.414907 
L 191.044554 243.313971 
L 191.531691 251.752195 
L 191.642109 290.675468 
L 192.505967 214.861265 
L 193.571174 208.447604 
L 193.759534 292.832501 
L 193.843972 292.607952 
L 194.53246 230.199956 
L 194.629887 291.284559 
L 195.435288 222.566156 
L 196.29265 220.874842 
L 197.214964 214.428732 
L 198.293163 176.819928 
L 199.35837 181.934415 
L 200.209238 190.941904 
L 201.118561 190.732142 
L 202.105827 189.991458 
L 202.98917 187.135906 
L 203.898494 190.893325 
L 204.853284 186.844994 
L 205.684665 186.077836 
L 206.470581 198.745965 
L 207.275982 187.801152 
L 208.081383 187.477817 
L 209.257008 121.73869 
L 210.062409 208.613094 
L 210.85482 184.951386 
L 211.270511 254.620992 
L 212.049931 186.620952 
L 212.907294 195.696138 
L 213.654238 197.700323 
L 214.037453 258.303927 
L 214.706456 214.012944 
L 215.537837 192.77334 
L 216.128898 230.229948 
L 216.99925 186.895053 
L 217.726709 198.869332 
L 218.51912 193.667567 
L 219.233589 207.818164 
L 219.974038 201.919205 
L 220.714487 199.749417 
L 221.487412 188.936108 
L 222.286318 192.431167 
L 223.026768 204.286483 
L 223.780207 197.126986 
L 224.507666 205.517935 
L 225.267601 199.36339 
L 225.99506 209.016901 
L 226.767985 192.953459 
L 227.644833 180.645783 
L 228.30734 214.99602 
L 229.132227 190.224127 
L 229.82721 201.82508 
L 230.697563 186.216055 
L 231.457497 196.022037 
L 232.32785 186.35015 
L 233.074795 202.606316 
L 233.639874 224.612502 
L 234.256915 220.498091 
L 235.00386 187.937344 
L 235.822251 186.175807 
L 236.562701 189.477379 
L 237.088809 235.79738 
L 237.653889 220.870107 
L 238.394338 183.114319 
L 239.069836 205.889775 
L 239.725848 212.845568 
L 240.531249 187.403646 
L 241.1353 220.010432 
L 241.719865 218.807328 
L 242.271954 224.5703 
L 242.960442 199.163728 
L 243.538512 219.166086 
L 244.96745 193.460357 
L 245.74687 175.038403 
L 246.383397 208.321541 
L 247.084875 204.666437 
L 247.734392 209.886484 
L 248.292976 225.073881 
L 249.669952 193.823212 
L 250.364935 204.687641 
L 251.12487 188.636982 
L 251.644484 238.173613 
L 252.417409 189.509939 
L 253.040945 220.285918 
L 253.872327 175.973089 
L 254.788146 170.760171 
L 255.366216 227.07865 
L 256.204093 174.004268 
L 257.087436 162.707675 
L 257.723962 210.692431 
L 258.60081 170.105502 
L 260.12068 76.677931 
L 261.185888 138.215787 
L 262.355018 113.530951 
L 263.634566 97.980002 
L 264.946591 83.747749 
L 266.180673 104.607484 
L 267.304337 114.090059 
L 268.5644 109.630591 
L 269.402277 198.354163 
L 270.175202 197.609983 
L 271.675586 76.384482 
L 272.390055 207.332441 
L 272.792755 254.478608 
L 273.098028 267.223109 
L 273.481243 256.823518 
L 273.838477 259.497088 
L 274.585422 208.29671 
L 275.540212 193.173354 
L 276.80677 113.132018 
L 277.677123 184.113256 
L 278.566961 168.95619 
L 280.021879 75.764078 
L 280.794804 192.644827 
L 282.399111 194.366252 
L 283.022647 223.455395 
L 284.224253 133.693667 
L 284.626954 256.431289 
L 285.523287 183.8898 
L 286.01692 239.874051 
L 286.465087 252.876551 
L 287.16007 212.366295 
L 287.913509 203.901283 
L 289.128106 112.205873 
L 290.108877 151.102079 
L 291.323473 108.726883 
L 292.265273 158.184154 
L 293.070674 183.172967 
L 293.921541 183.094531 
L 294.843855 170.778564 
L 295.688227 182.780253 
L 296.539094 180.979728 
L 297.357486 180.773337 
L 298.195363 179.986341 
L 299.04623 177.165376 
L 299.864621 185.109188 
L 300.585585 208.666556 
L 301.280568 211.200104 
L 302.157416 191.813734 
L 302.995293 184.004754 
L 303.84616 188.269049 
L 304.742493 186.560049 
L 305.547894 185.633048 
L 307.619853 122.868238 
L 308.574643 179.533033 
L 309.295607 199.364628 
L 309.912648 234.875762 
L 311.400042 60.063087 
L 312.127501 207.275207 
L 312.621134 241.551836 
L 313.329107 207.437476 
L 314.037081 206.441498 
L 314.699588 210.390377 
L 315.394571 208.612013 
L 316.13502 201.125602 
L 317.115791 152.013729 
L 317.602929 241.632796 
L 318.40833 192.317522 
L 319.083827 216.298941 
L 319.499518 251.372232 
L 320.558231 139.555985 
L 321.370127 191.695853 
L 322.169033 195.837684 
L 322.993919 193.330935 
L 323.922728 170.675214 
L 324.344914 251.382567 
L 325.072373 199.019606 
L 325.591987 237.593514 
L 326.559767 157.36535 
L 326.780603 275.398025 
L 327.352178 228.122504 
L 327.904267 229.228969 
L 328.859057 165.286304 
L 329.885294 150.1574 
L 330.586772 213.117242 
L 331.151852 229.32618 
L 332.113137 173.382378 
L 332.756159 215.335576 
L 333.710949 172.898177 
L 334.347475 223.701315 
L 335.373712 151.628116 
L 336.380463 167.367635 
L 337.465157 120.24476 
L 338.393966 152.19871 
L 339.004512 231.623823 
L 339.608562 225.890984 
L 340.128176 237.214113 
L 340.738722 232.640968 
L 341.323287 233.305553 
L 341.901357 233.547331 
L 342.518398 226.697652 
L 343.012031 241.776892 
L 343.557625 240.515077 
L 344.414988 158.557259 
L 345.168427 216.285766 
L 346.246626 116.44392 
L 347.078007 169.281059 
L 347.675563 223.83142 
L 348.922635 139.859081 
L 350.013824 150.174857 
L 350.630865 214.630153 
L 351.533693 163.760788 
L 352.819737 122.121467 
L 354.0798 122.813799 
L 355.015104 172.121605 
L 355.963399 174.285004 
L 356.996131 174.629152 
L 358.048348 139.295157 
L 359.016129 173.803681 
L 359.918957 178.517015 
L 360.899728 172.059421 
L 361.7441 185.479962 
L 362.705385 154.650755 
L 363.556252 182.353027 
L 364.45908 173.504581 
L 365.296957 181.694602 
L 366.420622 160.943819 
L 367.862549 145.531759 
L 369.051165 161.178922 
L 370.038431 171.3747 
L 371.363445 154.980609 
L 373.019714 127.183057 
L 374.559069 135.85351 
L 375.884083 152.524536 
L 377.11167 153.014508 
L 378.482151 141.30284 
L 379.690253 159.055209 
L 380.774946 167.331123 
L 381.88562 163.070949 
L 382.918352 170.390405 
L 383.918608 167.895191 
L 384.912369 167.539603 
L 385.990567 168.071284 
L 386.919376 168.202004 
L 388.296352 120.973561 
L 389.322589 167.099041 
L 390.472234 158.538317 
L 391.537442 169.379584 
L 393.011845 110.763692 
L 394.622647 139.648162 
L 395.90869 145.317466 
L 397.337628 119.691575 
L 397.337628 119.691575 
" clip-path="url(#p712536ace6)" style="fill: none; stroke: #1f77b4; stroke-width: 1.5; stroke-linecap: square"/>
   </g>
   <g id="line2d_16">
    <path d="M 76.976389 250.374747 
L 80.223974 250.105171 
L 83.471559 250.549156 
L 86.719143 250.278068 
L 89.966728 250.495771 
L 93.214313 250.448376 
L 96.461897 250.319464 
L 99.709482 250.231816 
L 102.957067 250.417072 
L 106.204651 250.26021 
L 109.452236 250.307451 
L 112.699821 250.153457 
L 115.947405 250.515163 
L 119.19499 250.382249 
L 122.442575 250.290934 
L 125.690159 250.433143 
L 128.937744 250.277621 
L 132.185329 250.372553 
L 135.432914 250.2009 
L 138.680498 250.394075 
L 141.928083 279.999544 
L 145.175668 249.636264 
L 148.423252 270.442349 
L 151.670837 225.876203 
L 154.918422 231.733247 
L 158.166006 228.774577 
L 161.413591 228.355209 
L 164.661176 224.936618 
L 167.90876 225.598811 
L 171.156345 219.221514 
L 174.40393 230.050662 
L 177.651514 221.119131 
L 180.899099 211.166275 
L 184.146684 207.675931 
L 187.394268 221.54476 
L 190.641853 200.503709 
L 193.889438 227.675624 
L 197.137022 220.142391 
L 200.384607 198.979408 
L 203.632192 191.110957 
L 206.879777 181.334267 
L 210.127361 187.724855 
L 213.374946 198.354299 
L 216.622531 206.406328 
L 219.870115 196.880665 
L 223.1177 186.969359 
L 226.365285 202.311822 
L 229.612869 212.136529 
L 232.860454 181.887832 
L 236.108039 208.998774 
L 239.355623 212.782479 
L 242.603208 206.508123 
L 245.850793 199.484056 
L 249.098377 195.195731 
L 252.345962 209.084754 
L 255.593547 158.820661 
L 258.841131 166.745092 
L 262.088716 147.229822 
L 265.336301 108.038095 
L 268.583885 168.441554 
L 271.83147 235.401914 
L 275.079055 157.513329 
L 278.32664 116.323667 
L 281.574224 178.410804 
L 284.821809 184.13435 
L 288.069394 155.635778 
L 291.316978 169.900258 
L 294.564563 177.023786 
L 297.812148 201.024066 
L 301.059732 184.5631 
L 304.307317 167.054405 
L 307.554902 160.471169 
L 310.802486 262.114126 
L 314.050071 183.928413 
L 317.297656 191.563436 
L 320.54524 250.198004 
L 323.792825 192.665265 
L 327.04041 190.899617 
L 330.287994 225.935776 
L 333.535579 176.641567 
L 336.783164 229.931294 
L 340.030748 208.257202 
L 343.278333 219.557194 
L 346.525918 165.515789 
L 349.773503 56.892498 
L 353.021087 123.935719 
L 356.268672 95.225954 
L 359.516257 169.386232 
L 362.763841 176.158729 
L 366.011426 156.672271 
L 369.259011 162.383576 
L 372.506595 131.701622 
L 375.75418 149.54162 
L 379.001765 166.602364 
L 382.249349 171.826873 
L 385.496934 120.599941 
L 388.744519 161.771699 
L 391.992103 105.692552 
L 395.239688 119.105667 
L 398.487273 98.149901 
" clip-path="url(#p712536ace6)" style="fill: none; stroke: #ff7f0e; stroke-width: 1.5; stroke-linecap: square"/>
   </g>
   <g id="line2d_17">
    <path d="M 73.832727 292.094665 
L 73.904174 293.682982 
L 73.982116 292.927271 
L 74.047068 293.659644 
L 74.397807 288.357165 
L 74.475749 293.196598 
L 74.586167 293.157938 
L 74.774527 289.778519 
L 75.053819 272.377737 
L 75.274655 293.473755 
L 75.424044 288.697022 
L 75.612404 288.535681 
L 75.690346 292.932573 
L 75.781278 292.529735 
L 75.852725 293.379072 
L 75.950152 292.976026 
L 76.080056 290.302062 
L 76.313882 277.45097 
L 76.508737 283.38594 
L 76.62565 292.683742 
L 76.742563 291.077012 
L 77.034846 281.388216 
L 77.262177 290.861089 
L 77.521983 277.581535 
L 77.619411 294.01324 
L 77.840247 287.489569 
L 77.898703 294.54051 
L 78.015616 292.196664 
L 78.067578 294.42271 
L 78.242947 289.99254 
L 78.366355 294.201303 
L 78.418317 294.523042 
L 78.808027 285.998189 
L 78.944426 292.089745 
L 79.1133 292.325237 
L 79.249699 289.210838 
L 79.373107 290.352969 
L 79.50301 294.57293 
L 79.86674 290.632256 
L 79.957672 292.69694 
L 80.133042 291.684892 
L 80.314906 293.039451 
L 80.47079 291.875677 
L 80.555228 292.815004 
L 81.094327 282.184736 
L 81.360629 289.665585 
L 81.587959 275.062431 
L 81.8023 292.576109 
L 81.873747 293.146413 
L 82.133554 278.22937 
L 82.289438 291.381983 
L 82.659662 271.59295 
L 82.7441 292.88762 
L 82.95844 288.445591 
L 83.140305 289.689653 
L 83.224742 292.790815 
L 83.328665 292.570404 
L 83.445578 292.406958 
L 83.51053 293.81955 
L 83.815803 286.069696 
L 83.90024 293.67287 
L 84.134066 291.630656 
L 84.30294 292.214367 
L 84.400368 292.983413 
L 84.958952 288.221716 
L 85.030399 294.681525 
L 85.712392 260.137319 
L 86.063131 289.190775 
L 86.244996 292.549056 
L 86.394385 289.950067 
L 86.628211 283.488539 
L 86.712648 292.889647 
L 86.810076 291.740707 
L 87.076378 290.127019 
L 87.264738 293.877702 
L 87.349175 292.698719 
L 87.420622 294.263973 
L 87.505059 292.471612 
L 87.583001 293.525859 
L 87.888274 287.698286 
L 88.031168 288.368001 
L 88.180556 288.344554 
L 88.33644 289.756117 
L 88.440363 292.316194 
L 88.550781 289.749928 
L 88.869044 290.50018 
L 88.985957 290.520553 
L 89.343192 291.413227 
L 89.499076 286.790537 
L 89.739397 285.846781 
L 90.012194 293.011835 
L 90.116117 292.828056 
L 90.440875 279.448638 
L 90.538303 291.845206 
L 90.720168 287.876538 
L 90.973479 292.468566 
L 91.103383 289.836 
L 91.298238 291.105276 
L 91.56454 288.421546 
L 91.694443 292.238856 
L 91.830842 289.677246 
L 92.136115 294.02237 
L 92.636243 285.004977 
L 92.72068 293.518797 
L 92.805117 293.13792 
L 92.973991 293.132263 
L 93.240293 289.482342 
L 93.422158 293.005197 
L 93.811868 287.576118 
L 94.084665 292.995933 
L 94.370453 291.214453 
L 94.474376 291.706274 
L 94.64325 285.719904 
L 94.708202 293.51826 
L 94.864086 288.647103 
L 94.942028 293.877225 
L 95.026465 292.672898 
L 95.104407 293.876891 
L 95.23431 292.508827 
L 95.299262 294.342127 
L 95.552574 291.900412 
L 95.688972 291.984027 
L 95.831866 293.56988 
L 95.981255 292.086359 
L 96.111158 288.350237 
L 96.17611 293.973853 
L 96.319004 289.32542 
L 96.793151 268.543341 
L 96.858103 294.329593 
L 96.949035 293.537473 
L 97.208842 289.669779 
L 97.371221 292.217541 
L 97.494629 291.202292 
L 97.598552 291.314465 
L 97.747941 293.801222 
L 97.851864 292.889806 
L 98.066204 280.230112 
L 98.196108 288.236723 
L 98.644274 268.853853 
L 98.741702 293.45655 
L 98.85212 289.490843 
L 98.969033 293.252976 
L 99.209354 282.839154 
L 99.365238 286.52673 
L 99.508132 287.175441 
L 99.605559 292.482402 
L 99.787424 287.024202 
L 99.936813 290.265971 
L 100.060221 289.308098 
L 100.287552 292.905406 
L 100.436941 293.741712 
L 100.534369 292.465027 
L 100.612311 292.893686 
L 100.781185 286.412252 
L 101.138419 282.044064 
L 101.235847 292.806706 
L 101.36575 291.560813 
L 101.619062 286.826538 
L 101.852888 293.694896 
L 102.281569 270.362589 
L 102.476424 292.398753 
L 102.612823 289.95137 
L 102.840154 293.958336 
L 102.918096 293.379438 
L 103.015523 292.615554 
L 103.112951 293.02537 
L 103.320796 291.907408 
L 103.424719 292.131933 
L 103.502661 293.570153 
L 103.639059 292.691376 
L 103.775458 287.851164 
L 103.976808 285.69406 
L 104.236615 293.82196 
L 104.44446 292.209195 
L 104.658801 294.600466 
L 104.717258 294.076038 
L 105.139444 289.019966 
L 105.321308 293.084326 
L 105.39925 292.777277 
L 105.509668 290.626767 
L 105.672047 290.601852 
L 105.724009 294.783614 
L 105.853912 293.146095 
L 105.983816 289.778982 
L 106.302079 285.761513 
L 106.406002 292.112798 
L 106.737255 285.292811 
L 106.815197 292.821066 
L 106.951596 289.111578 
L 107.068509 290.543675 
L 107.321821 279.096653 
L 107.393267 293.89368 
L 107.724521 287.706089 
L 107.8869 293.490998 
L 108.07526 290.290653 
L 108.354552 275.704841 
L 108.45198 293.471258 
L 108.575388 293.121929 
L 108.698796 293.447165 
L 108.848185 292.022076 
L 109.120982 286.551478 
L 109.179439 294.147382 
L 109.276866 293.122588 
L 109.484712 289.195388 
L 109.582139 291.621023 
L 109.692557 290.590476 
L 109.789985 291.617547 
L 110.049792 283.912597 
L 110.231656 283.500616 
L 110.322589 292.317275 
L 110.582396 281.640123 
L 110.712299 293.939964 
L 110.874678 292.026863 
L 110.965611 293.282146 
L 111.134485 287.201996 
L 111.277379 292.186249 
L 111.459243 291.859038 
L 111.621623 288.966418 
L 111.751526 293.040274 
L 111.835963 291.937617 
L 112.09577 277.870059 
L 112.232169 292.447163 
L 112.699821 253.820887 
L 112.992103 293.803358 
L 113.232425 291.015331 
L 113.297376 293.699321 
L 113.394804 293.313591 
L 113.485736 293.439419 
L 113.563678 294.156005 
L 113.849466 280.417845 
L 114.102777 292.625722 
L 114.232681 291.245386 
L 114.310623 293.061704 
L 114.40805 292.28233 
L 114.59641 293.067953 
L 114.667857 293.1817 
L 114.875702 281.108613 
L 115.103033 292.222697 
L 115.232937 291.249924 
L 115.317374 293.044113 
L 115.655123 285.224648 
L 115.765541 292.595151 
L 116.064318 270.210044 
L 116.142261 292.844757 
L 116.291649 288.185053 
L 116.551456 293.722787 
L 116.642389 293.120921 
L 116.778787 293.676176 
L 117.025604 288.536327 
L 117.174992 289.345638 
L 117.402323 292.230016 
L 117.603674 290.916145 
L 117.895956 294.244648 
L 118.058335 292.421936 
L 118.22721 288.938637 
L 118.324637 292.179083 
L 118.448046 291.558403 
L 118.558464 292.806309 
L 118.694862 288.811754 
L 118.928688 293.726752 
L 119.045601 293.644261 
L 119.20798 287.648488 
L 119.337884 292.344334 
L 119.500263 291.578076 
L 119.630166 290.422142 
L 119.740584 290.933935 
L 120.078333 293.713867 
L 120.370616 289.579072 
L 120.481034 292.474449 
L 120.656403 292.73742 
L 120.71486 293.789769 
L 120.831773 293.390735 
L 120.90322 294.564656 
L 121.10457 291.131466 
L 121.201997 291.193177 
L 121.31891 292.778713 
L 121.442319 290.250634 
L 121.552737 291.331868 
L 121.806048 289.591307 
L 121.890485 292.181505 
L 122.156787 285.386791 
L 122.306176 287.759761 
L 122.546497 293.030323 
L 122.786819 285.152289 
L 122.884246 293.791125 
L 123.111577 289.582674 
L 123.260966 290.600561 
L 123.312927 294.58822 
L 123.540258 292.094416 
L 123.683152 292.288964 
L 123.79357 292.670395 
L 123.916978 291.483184 
L 123.98193 294.627246 
L 124.066367 294.373902 
L 124.423601 285.758403 
L 124.709389 289.974598 
L 124.826302 288.91207 
L 125.047138 283.244117 
L 125.157556 290.641754 
L 125.436848 292.503342 
L 125.807073 269.021576 
L 126.040899 293.689983 
L 126.346172 285.459718 
L 126.456589 293.947285 
L 127.041155 288.218763 
L 127.145077 294.116621 
L 127.255495 291.765393 
L 127.333437 293.17316 
L 127.443855 292.486357 
L 127.534788 293.237311 
L 127.62572 292.347448 
L 127.807585 289.47361 
L 128.01543 292.722992 
L 128.20379 292.495077 
L 128.346684 287.932547 
L 128.463597 292.138766 
L 128.606491 289.844323 
L 128.716908 291.807004 
L 128.905268 284.811151 
L 129.035172 293.718475 
L 129.113114 293.217145 
L 129.268998 287.850221 
L 129.353435 293.708543 
L 129.56128 291.933276 
L 129.684689 288.454082 
L 129.873049 288.9027 
L 130.11337 283.732119 
L 130.197807 293.374765 
L 130.340701 291.452787 
L 130.645974 284.107534 
L 130.743401 292.041856 
L 130.873305 292.199611 
L 131.06816 290.214175 
L 131.152597 292.313218 
L 131.353947 290.000114 
L 131.418899 293.796205 
L 131.522822 291.288254 
L 131.730667 289.093652 
L 131.880056 292.830607 
L 131.990474 291.021207 
L 132.081406 293.825953 
L 132.152853 293.607267 
L 132.243785 293.806042 
L 132.334718 291.668961 
L 132.523078 283.836677 
L 132.828351 292.327837 
L 132.958254 291.850118 
L 133.114138 290.726583 
L 133.211566 293.932342 
L 133.296003 293.069693 
L 133.653237 289.859943 
L 133.854587 291.231735 
L 134.016967 285.964105 
L 134.120889 291.239539 
L 134.244298 289.178537 
L 134.634008 292.941686 
L 134.783397 286.955176 
L 135.036708 287.375968 
L 135.134136 293.939577 
L 135.277029 290.012155 
L 135.49137 287.641963 
L 135.575807 292.723843 
L 135.809633 292.203197 
L 135.965517 288.490977 
L 136.218829 293.851933 
L 136.407189 287.270318 
L 136.543587 293.921293 
L 136.751433 288.581755 
L 136.887831 292.258575 
L 137.043716 289.773846 
L 137.258056 293.574757 
L 137.452911 290.533569 
L 137.524358 293.226279 
L 137.6023 292.866658 
L 137.725708 292.272126 
L 138.050467 282.488393 
L 138.134904 292.482097 
L 138.35574 283.541161 
L 138.433682 293.162764 
L 138.550595 290.10352 
L 138.667508 292.365952 
L 138.790916 291.066561 
L 138.855868 293.620966 
L 138.927315 293.31484 
L 139.057218 291.024924 
L 139.161141 292.609849 
L 139.414452 287.918881 
L 139.550851 289.00197 
L 140.005513 260.347732 
L 140.408213 268.703133 
L 140.888856 267.100286 
L 141.05773 280.645171 
L 141.375993 281.676834 
L 141.531878 281.589749 
L 141.681266 281.975928 
L 141.837151 281.526743 
L 141.980044 282.711467 
L 142.142423 281.106207 
L 142.447696 281.926389 
L 142.688018 273.191346 
L 142.843902 281.325494 
L 143.103709 271.37099 
L 143.259593 281.173392 
L 143.415477 281.310698 
L 143.610332 277.613812 
L 143.915605 282.095948 
L 144.214382 282.126554 
L 144.357276 282.605128 
L 144.50017 282.444098 
L 144.727501 274.127367 
L 145.06525 281.420812 
L 145.208143 282.455501 
L 145.474445 270.048997 
L 145.630329 281.173566 
L 146.149943 238.877641 
L 146.377274 273.338038 
L 146.760489 257.628137 
L 147.247627 251.550281 
L 147.78023 241.993039 
L 148.358301 235.338493 
L 149.072769 202.281593 
L 149.715791 225.555464 
L 150.274376 234.324281 
L 151.099262 201.80051 
L 151.735789 225.82182 
L 152.36582 222.187067 
L 152.982861 225.516333 
L 153.593407 223.663867 
L 154.177972 230.500185 
L 154.795013 221.968325 
L 155.373083 226.632155 
L 155.957649 228.221307 
L 156.542214 225.202269 
L 157.704849 229.260908 
L 158.282919 226.413973 
L 158.893465 220.318881 
L 159.458545 230.762911 
L 160.082081 225.905105 
L 160.647161 233.766608 
L 161.296678 215.809856 
L 161.868253 226.878298 
L 162.413847 234.935106 
L 162.946451 235.399253 
L 163.505036 232.632994 
L 164.06362 231.61251 
L 164.609214 233.272585 
L 165.180789 224.054956 
L 165.765354 223.028357 
L 166.356415 230.028373 
L 166.635707 271.480918 
L 167.213777 223.63859 
L 167.804838 222.30873 
L 168.928502 234.716998 
L 169.363678 251.097523 
L 169.954739 226.047409 
L 170.539304 227.495856 
L 171.091393 233.296873 
L 171.572036 244.161268 
L 172.111135 240.541863 
L 172.669719 229.122877 
L 173.150362 244.830462 
L 173.799879 217.313445 
L 174.410425 226.474012 
L 175.118398 212.219999 
L 175.800391 216.780899 
L 176.482384 210.712918 
L 177.339746 189.721763 
L 177.995758 218.566705 
L 178.606304 228.900129 
L 179.314278 207.136577 
L 180.087203 198.135811 
L 180.827652 205.768638 
L 181.626558 196.331425 
L 182.367007 207.093698 
L 183.159418 199.38841 
L 183.705012 237.582503 
L 184.490928 200.782447 
L 185.198901 211.757133 
L 185.900379 216.317227 
L 187.309831 209.089473 
L 188.050281 207.1493 
L 188.810215 204.195966 
L 189.58314 204.660558 
L 190.258638 214.598515 
L 190.882174 220.578292 
L 191.622624 210.512872 
L 192.252655 220.414175 
L 193.045066 202.314799 
L 193.77902 207.153606 
L 194.512974 204.137693 
L 195.253423 206.219799 
L 196.026349 203.06632 
L 196.714836 211.670617 
L 197.461781 203.242759 
L 198.228211 203.812755 
L 198.95567 208.218101 
L 199.702614 202.881511 
L 200.443064 202.248424 
L 201.118561 214.886279 
L 201.839525 209.785728 
L 202.560489 206.698848 
L 203.281453 206.127234 
L 203.976436 209.748433 
L 204.794827 195.262078 
L 205.405373 215.886694 
L 206.132832 205.094224 
L 206.892767 202.748359 
L 207.529293 217.20633 
L 208.347685 193.132604 
L 208.464598 287.418815 
L 209.159581 207.262566 
L 209.913021 196.621618 
L 210.601509 207.808017 
L 211.40691 191.738292 
L 212.082407 207.483456 
L 212.855332 196.182779 
L 213.576296 202.609779 
L 214.29726 198.703908 
L 215.0507 202.484156 
L 215.700217 214.256645 
L 216.460151 193.022822 
L 217.194105 195.614595 
L 217.629282 254.672296 
L 218.350246 196.329661 
L 218.928316 222.099224 
L 219.740212 188.049489 
L 220.363748 213.64342 
L 221.058731 200.582493 
L 221.76021 208.19796 
L 222.572106 194.494473 
L 223.409983 184.310508 
L 224.293326 182.24976 
L 225.202649 186.556897 
L 226.00805 193.141997 
L 226.845927 188.413327 
L 227.644833 198.550789 
L 228.619108 172.927271 
L 229.528432 171.439404 
L 230.39229 179.595937 
L 231.275633 175.860957 
L 232.132995 187.460631 
L 232.957882 191.942639 
L 233.782768 187.627367 
L 234.588169 192.112334 
L 235.452027 182.353063 
L 235.750804 269.602376 
L 236.250932 246.647803 
L 236.595176 263.635379 
L 237.433053 188.338344 
L 238.231959 181.513224 
L 239.02437 188.193271 
L 239.797295 187.148016 
L 240.596201 179.463053 
L 240.77157 282.993289 
L 241.648418 175.589614 
L 242.434334 186.476187 
L 243.27221 175.150987 
L 244.142563 176.453557 
L 244.99343 172.774789 
L 245.844298 183.969795 
L 246.695165 175.998352 
L 247.565517 175.983304 
L 248.364423 185.153872 
L 249.176319 179.0379 
L 250.001206 175.958279 
L 250.891044 180.326167 
L 251.709435 182.424947 
L 252.514836 182.472015 
L 253.359208 179.96223 
L 254.210076 178.499662 
L 255.054448 181.420494 
L 255.846858 179.914481 
L 256.723706 175.2181 
L 257.230329 252.728202 
L 258.113672 180.655941 
L 258.828141 189.921381 
L 259.640037 173.437892 
L 260.283059 206.6728 
L 261.055984 186.36506 
L 262.082221 168.040278 
L 262.887622 178.730664 
L 263.719004 182.109055 
L 264.491929 188.272477 
L 265.407748 164.274691 
L 265.784467 264.562163 
L 266.609354 178.659478 
L 267.499192 176.175056 
L 268.298098 197.149614 
L 269.200927 158.458113 
L 270.08427 173.197192 
L 270.948127 180.994327 
L 271.83147 169.611024 
L 272.968125 159.812968 
L 273.870953 172.946978 
L 274.728316 180.058488 
L 275.637639 179.884979 
L 276.410565 200.098542 
L 277.378345 175.742796 
L 278.320144 168.425221 
L 279.209983 181.878352 
L 279.937442 198.721024 
L 281.002649 164.934613 
L 281.814545 196.097861 
L 283.828048 147.856859 
L 284.821809 159.312024 
L 285.81557 164.565252 
L 286.620971 195.494546 
L 287.601741 166.032507 
L 288.595502 159.224546 
L 289.842575 148.69777 
L 290.80386 156.800235 
L 291.985981 152.883231 
L 292.953761 165.62843 
L 294.304756 148.119547 
L 295.376459 161.813695 
L 296.441667 168.014365 
L 297.402952 175.800845 
L 298.65652 144.375559 
L 299.520377 172.817749 
L 300.949314 136.528996 
L 301.930085 156.923158 
L 302.813428 167.120148 
L 304.307317 130.164288 
L 305.9441 121.569269 
L 307.67831 111.83325 
L 309.782745 109.679468 
L 312.08853 81.528361 
L 315.336115 99.468665 
L 318.583699 98.021466 
L 321.831284 97.726267 
L 325.078869 98.059534 
L 328.326453 102.245812 
L 331.574038 63.540541 
L 334.32799 55.140255 
L 337.575574 94.723879 
L 340.823159 97.272736 
L 342.232611 132.169538 
L 343.687529 131.853002 
L 345.350292 118.897586 
L 346.486947 140.074823 
L 349.013568 62.133288 
L 351.3908 72.60222 
L 352.241667 160.266018 
L 353.053563 178.702883 
L 354.255169 156.134346 
L 355.119027 159.858639 
L 356.470022 111.656914 
L 357.853493 120.26839 
L 359.737092 53.568 
L 360.841271 131.518435 
L 362.075353 99.224762 
L 363.88101 153.760443 
L 364.705897 162.29568 
L 365.556764 193.111105 
L 366.36866 166.694251 
L 367.141585 172.336685 
L 368.063899 134.804683 
L 368.953738 153.946 
L 369.129107 282.250007 
L 369.973479 162.181349 
L 370.785375 170.194841 
L 371.538815 183.580928 
L 372.480615 139.672475 
L 373.344472 161.678034 
L 374.370709 115.157825 
L 375.156624 170.871174 
L 376.117909 126.292048 
L 376.916815 175.209857 
L 377.943052 129.530012 
L 378.956298 126.295736 
L 379.904593 134.333468 
L 380.859383 128.599067 
L 381.093209 276.572586 
L 382.093465 130.568977 
L 383.204139 96.68541 
L 384.366775 81.485767 
L 385.100729 195.281451 
L 385.964586 162.373357 
L 386.919376 139.433891 
L 387.900147 122.95012 
L 388.712043 167.835814 
L 389.705804 126.417413 
L 390.835963 89.958806 
L 391.816734 128.801095 
L 392.726058 149.805086 
L 393.388565 208.083579 
L 394.369335 117.577538 
L 395.473514 98.152111 
L 396.525732 109.648133 
L 397.688367 95.576685 
L 397.688367 95.576685 
" clip-path="url(#p712536ace6)" style="fill: none; stroke: #2ca02c; stroke-width: 1.5; stroke-linecap: square"/>
   </g>
   <g id="patch_3">
    <path d="M 57.6 307.584 
L 57.6 41.472 
" style="fill: none; stroke: #000000; stroke-width: 0.8; stroke-linejoin: miter; stroke-linecap: square"/>
   </g>
   <g id="patch_4">
    <path d="M 414.72 307.584 
L 414.72 41.472 
" style="fill: none; stroke: #000000; stroke-width: 0.8; stroke-linejoin: miter; stroke-linecap: square"/>
   </g>
   <g id="patch_5">
    <path d="M 57.6 307.584 
L 414.72 307.584 
" style="fill: none; stroke: #000000; stroke-width: 0.8; stroke-linejoin: miter; stroke-linecap: square"/>
   </g>
   <g id="patch_6">
    <path d="M 57.6 41.472 
L 414.72 41.472 
" style="fill: none; stroke: #000000; stroke-width: 0.8; stroke-linejoin: miter; stroke-linecap: square"/>
   </g>
   <g id="text_17">
    <!-- learning curve -->
    <g transform="translate(192.96375 35.472) scale(0.12 -0.12)">
     <defs>
      <path id="DejaVuSans-6c" d="M 603 4863 
L 1178 4863 
L 1178 0 
L 603 0 
L 603 4863 
z
" transform="scale(0.015625)"/>
      <path id="DejaVuSans-67" d="M 2906 1791 
Q 2906 2416 2648 2759 
Q 2391 3103 1925 3103 
Q 1463 3103 1205 2759 
Q 947 2416 947 1791 
Q 947 1169 1205 825 
Q 1463 481 1925 481 
Q 2391 481 2648 825 
Q 2906 1169 2906 1791 
z
M 3481 434 
Q 3481 -459 3084 -895 
Q 2688 -1331 1869 -1331 
Q 1566 -1331 1297 -1286 
Q 1028 -1241 775 -1147 
L 775 -588 
Q 1028 -725 1275 -790 
Q 1522 -856 1778 -856 
Q 2344 -856 2625 -561 
Q 2906 -266 2906 331 
L 2906 616 
Q 2728 306 2450 153 
Q 2172 0 1784 0 
Q 1141 0 747 490 
Q 353 981 353 1791 
Q 353 2603 747 3093 
Q 1141 3584 1784 3584 
Q 2172 3584 2450 3431 
Q 2728 3278 2906 2969 
L 2906 3500 
L 3481 3500 
L 3481 434 
z
" transform="scale(0.015625)"/>
      <path id="DejaVuSans-63" d="M 3122 3366 
L 3122 2828 
Q 2878 2963 2633 3030 
Q 2388 3097 2138 3097 
Q 1578 3097 1268 2742 
Q 959 2388 959 1747 
Q 959 1106 1268 751 
Q 1578 397 2138 397 
Q 2388 397 2633 464 
Q 2878 531 3122 666 
L 3122 134 
Q 2881 22 2623 -34 
Q 2366 -91 2075 -91 
Q 1284 -91 818 406 
Q 353 903 353 1747 
Q 353 2603 823 3093 
Q 1294 3584 2113 3584 
Q 2378 3584 2631 3529 
Q 2884 3475 3122 3366 
z
" transform="scale(0.015625)"/>
      <path id="DejaVuSans-75" d="M 544 1381 
L 544 3500 
L 1119 3500 
L 1119 1403 
Q 1119 906 1312 657 
Q 1506 409 1894 409 
Q 2359 409 2629 706 
Q 2900 1003 2900 1516 
L 2900 3500 
L 3475 3500 
L 3475 0 
L 2900 0 
L 2900 538 
Q 2691 219 2414 64 
Q 2138 -91 1772 -91 
Q 1169 -91 856 284 
Q 544 659 544 1381 
z
M 1991 3584 
L 1991 3584 
z
" transform="scale(0.015625)"/>
      <path id="DejaVuSans-76" d="M 191 3500 
L 800 3500 
L 1894 563 
L 2988 3500 
L 3597 3500 
L 2284 0 
L 1503 0 
L 191 3500 
z
" transform="scale(0.015625)"/>
     </defs>
     <use xlink:href="#DejaVuSans-6c"/>
     <use xlink:href="#DejaVuSans-65" x="27.783203"/>
     <use xlink:href="#DejaVuSans-61" x="89.306641"/>
     <use xlink:href="#DejaVuSans-72" x="150.585938"/>
     <use xlink:href="#DejaVuSans-6e" x="189.949219"/>
     <use xlink:href="#DejaVuSans-69" x="253.328125"/>
     <use xlink:href="#DejaVuSans-6e" x="281.111328"/>
     <use xlink:href="#DejaVuSans-67" x="344.490234"/>
     <use xlink:href="#DejaVuSans-20" x="407.966797"/>
     <use xlink:href="#DejaVuSans-63" x="439.753906"/>
     <use xlink:href="#DejaVuSans-75" x="494.734375"/>
     <use xlink:href="#DejaVuSans-72" x="558.113281"/>
     <use xlink:href="#DejaVuSans-76" x="599.226562"/>
     <use xlink:href="#DejaVuSans-65" x="658.40625"/>
    </g>
   </g>
   <g id="legend_1">
    <g id="patch_7">
     <path d="M 64.6 93.506375 
L 166.614062 93.506375 
Q 168.614062 93.506375 168.614062 91.506375 
L 168.614062 48.472 
Q 168.614062 46.472 166.614062 46.472 
L 64.6 46.472 
Q 62.6 46.472 62.6 48.472 
L 62.6 91.506375 
Q 62.6 93.506375 64.6 93.506375 
z
" style="fill: #ffffff; opacity: 0.8; stroke: #cccccc; stroke-linejoin: miter"/>
    </g>
    <g id="line2d_18">
     <path d="M 66.6 54.570438 
L 76.6 54.570438 
L 86.6 54.570438 
" style="fill: none; stroke: #1f77b4; stroke-width: 1.5; stroke-linecap: square"/>
    </g>
    <g id="text_18">
     <!-- source-source -->
     <g transform="translate(94.6 58.070438) scale(0.1 -0.1)">
      <defs>
       <path id="DejaVuSans-2d" d="M 313 2009 
L 1997 2009 
L 1997 1497 
L 313 1497 
L 313 2009 
z
" transform="scale(0.015625)"/>
      </defs>
      <use xlink:href="#DejaVuSans-73"/>
      <use xlink:href="#DejaVuSans-6f" x="52.099609"/>
      <use xlink:href="#DejaVuSans-75" x="113.28125"/>
      <use xlink:href="#DejaVuSans-72" x="176.660156"/>
      <use xlink:href="#DejaVuSans-63" x="215.523438"/>
      <use xlink:href="#DejaVuSans-65" x="270.503906"/>
      <use xlink:href="#DejaVuSans-2d" x="332.027344"/>
      <use xlink:href="#DejaVuSans-73" x="368.111328"/>
      <use xlink:href="#DejaVuSans-6f" x="420.210938"/>
      <use xlink:href="#DejaVuSans-75" x="481.392578"/>
      <use xlink:href="#DejaVuSans-72" x="544.771484"/>
      <use xlink:href="#DejaVuSans-63" x="583.634766"/>
      <use xlink:href="#DejaVuSans-65" x="638.615234"/>
     </g>
    </g>
    <g id="line2d_19">
     <path d="M 66.6 69.248563 
L 76.6 69.248563 
L 86.6 69.248563 
" style="fill: none; stroke: #ff7f0e; stroke-width: 1.5; stroke-linecap: square"/>
    </g>
    <g id="text_19">
     <!-- source-target -->
     <g transform="translate(94.6 72.748563) scale(0.1 -0.1)">
      <use xlink:href="#DejaVuSans-73"/>
      <use xlink:href="#DejaVuSans-6f" x="52.099609"/>
      <use xlink:href="#DejaVuSans-75" x="113.28125"/>
      <use xlink:href="#DejaVuSans-72" x="176.660156"/>
      <use xlink:href="#DejaVuSans-63" x="215.523438"/>
      <use xlink:href="#DejaVuSans-65" x="270.503906"/>
      <use xlink:href="#DejaVuSans-2d" x="332.027344"/>
      <use xlink:href="#DejaVuSans-74" x="368.111328"/>
      <use xlink:href="#DejaVuSans-61" x="407.320312"/>
      <use xlink:href="#DejaVuSans-72" x="468.599609"/>
      <use xlink:href="#DejaVuSans-67" x="507.962891"/>
      <use xlink:href="#DejaVuSans-65" x="571.439453"/>
      <use xlink:href="#DejaVuSans-74" x="632.962891"/>
     </g>
    </g>
    <g id="line2d_20">
     <path d="M 66.6 83.926688 
L 76.6 83.926688 
L 86.6 83.926688 
" style="fill: none; stroke: #2ca02c; stroke-width: 1.5; stroke-linecap: square"/>
    </g>
    <g id="text_20">
     <!-- target-target -->
     <g transform="translate(94.6 87.426688) scale(0.1 -0.1)">
      <use xlink:href="#DejaVuSans-74"/>
      <use xlink:href="#DejaVuSans-61" x="39.208984"/>
      <use xlink:href="#DejaVuSans-72" x="100.488281"/>
      <use xlink:href="#DejaVuSans-67" x="139.851562"/>
      <use xlink:href="#DejaVuSans-65" x="203.328125"/>
      <use xlink:href="#DejaVuSans-74" x="264.851562"/>
      <use xlink:href="#DejaVuSans-2d" x="304.060547"/>
      <use xlink:href="#DejaVuSans-74" x="340.144531"/>
      <use xlink:href="#DejaVuSans-61" x="379.353516"/>
      <use xlink:href="#DejaVuSans-72" x="440.632812"/>
      <use xlink:href="#DejaVuSans-67" x="479.996094"/>
      <use xlink:href="#DejaVuSans-65" x="543.472656"/>
      <use xlink:href="#DejaVuSans-74" x="604.996094"/>
     </g>
    </g>
   </g>
  </g>
 </g>
 <defs>
  <clipPath id="p712536ace6">
   <rect x="57.6" y="41.472" width="357.12" height="266.112"/>
  </clipPath>
 </defs>
</svg>
