<?xml version="1.0" encoding="utf-8" standalone="no"?>
<!DOCTYPE svg PUBLIC "-//W3C//DTD SVG 1.1//EN"
  "http://www.w3.org/Graphics/SVG/1.1/DTD/svg11.dtd">
<svg xmlns:xlink="http://www.w3.org/1999/xlink" width="460.8pt" height="345.6pt" viewBox="0 0 460.8 345.6" xmlns="http://www.w3.org/2000/svg" version="1.1">
 <metadata>
  <rdf:RDF xmlns:dc="http://purl.org/dc/elements/1.1/" xmlns:cc="http://creativecommons.org/ns#" xmlns:rdf="http://www.w3.org/1999/02/22-rdf-syntax-ns#">
   <cc:Work>
    <dc:type rdf:resource="http://purl.org/dc/dcmitype/StillImage"/>
    <dc:date>2023-08-18T16:47:30.648710</dc:date>
    <dc:format>image/svg+xml</dc:format>
    <dc:creator>
     <cc:Agent>
      <dc:title>Matplotlib v3.7.1, https://matplotlib.org/</dc:title>
     </cc:Agent>
    </dc:creator>
   </cc:Work>
  </rdf:RDF>
 </metadata>
 <defs>
  <style type="text/css">*{stroke-linejoin: round; stroke-linecap: butt}</style>
 </defs>
 <g id="figure_1">
  <g id="patch_1">
   <path d="M 0 345.6 
L 460.8 345.6 
L 460.8 0 
L 0 0 
z
" style="fill: #ffffff"/>
  </g>
  <g id="axes_1">
   <g id="patch_2">
    <path d="M 57.6 307.584 
L 414.72 307.584 
L 414.72 41.472 
L 57.6 41.472 
z
" style="fill: #ffffff"/>
   </g>
   <g id="matplotlib.axis_1">
    <g id="xtick_1">
     <g id="line2d_1">
      <defs>
       <path id="m942da71329" d="M 0 0 
L 0 3.5 
" style="stroke: #000000; stroke-width: 0.8"/>
      </defs>
      <g>
       <use xlink:href="#m942da71329" x="73.773127" y="307.584" style="stroke: #000000; stroke-width: 0.8"/>
      </g>
     </g>
     <g id="text_1">
      <!-- 0 -->
      <g transform="translate(70.591877 322.182437) scale(0.1 -0.1)">
       <defs>
        <path id="DejaVuSans-30" d="M 2034 4250 
Q 1547 4250 1301 3770 
Q 1056 3291 1056 2328 
Q 1056 1369 1301 889 
Q 1547 409 2034 409 
Q 2525 409 2770 889 
Q 3016 1369 3016 2328 
Q 3016 3291 2770 3770 
Q 2525 4250 2034 4250 
z
M 2034 4750 
Q 2819 4750 3233 4129 
Q 3647 3509 3647 2328 
Q 3647 1150 3233 529 
Q 2819 -91 2034 -91 
Q 1250 -91 836 529 
Q 422 1150 422 2328 
Q 422 3509 836 4129 
Q 1250 4750 2034 4750 
z
" transform="scale(0.015625)"/>
       </defs>
       <use xlink:href="#DejaVuSans-30"/>
      </g>
     </g>
    </g>
    <g id="xtick_2">
     <g id="line2d_2">
      <g>
       <use xlink:href="#m942da71329" x="139.99537" y="307.584" style="stroke: #000000; stroke-width: 0.8"/>
      </g>
     </g>
     <g id="text_2">
      <!-- 10000 -->
      <g transform="translate(124.08912 322.182437) scale(0.1 -0.1)">
       <defs>
        <path id="DejaVuSans-31" d="M 794 531 
L 1825 531 
L 1825 4091 
L 703 3866 
L 703 4441 
L 1819 4666 
L 2450 4666 
L 2450 531 
L 3481 531 
L 3481 0 
L 794 0 
L 794 531 
z
" transform="scale(0.015625)"/>
       </defs>
       <use xlink:href="#DejaVuSans-31"/>
       <use xlink:href="#DejaVuSans-30" x="63.623047"/>
       <use xlink:href="#DejaVuSans-30" x="127.246094"/>
       <use xlink:href="#DejaVuSans-30" x="190.869141"/>
       <use xlink:href="#DejaVuSans-30" x="254.492188"/>
      </g>
     </g>
    </g>
    <g id="xtick_3">
     <g id="line2d_3">
      <g>
       <use xlink:href="#m942da71329" x="206.217613" y="307.584" style="stroke: #000000; stroke-width: 0.8"/>
      </g>
     </g>
     <g id="text_3">
      <!-- 20000 -->
      <g transform="translate(190.311363 322.182437) scale(0.1 -0.1)">
       <defs>
        <path id="DejaVuSans-32" d="M 1228 531 
L 3431 531 
L 3431 0 
L 469 0 
L 469 531 
Q 828 903 1448 1529 
Q 2069 2156 2228 2338 
Q 2531 2678 2651 2914 
Q 2772 3150 2772 3378 
Q 2772 3750 2511 3984 
Q 2250 4219 1831 4219 
Q 1534 4219 1204 4116 
Q 875 4013 500 3803 
L 500 4441 
Q 881 4594 1212 4672 
Q 1544 4750 1819 4750 
Q 2544 4750 2975 4387 
Q 3406 4025 3406 3419 
Q 3406 3131 3298 2873 
Q 3191 2616 2906 2266 
Q 2828 2175 2409 1742 
Q 1991 1309 1228 531 
z
" transform="scale(0.015625)"/>
       </defs>
       <use xlink:href="#DejaVuSans-32"/>
       <use xlink:href="#DejaVuSans-30" x="63.623047"/>
       <use xlink:href="#DejaVuSans-30" x="127.246094"/>
       <use xlink:href="#DejaVuSans-30" x="190.869141"/>
       <use xlink:href="#DejaVuSans-30" x="254.492188"/>
      </g>
     </g>
    </g>
    <g id="xtick_4">
     <g id="line2d_4">
      <g>
       <use xlink:href="#m942da71329" x="272.439856" y="307.584" style="stroke: #000000; stroke-width: 0.8"/>
      </g>
     </g>
     <g id="text_4">
      <!-- 30000 -->
      <g transform="translate(256.533606 322.182437) scale(0.1 -0.1)">
       <defs>
        <path id="DejaVuSans-33" d="M 2597 2516 
Q 3050 2419 3304 2112 
Q 3559 1806 3559 1356 
Q 3559 666 3084 287 
Q 2609 -91 1734 -91 
Q 1441 -91 1130 -33 
Q 819 25 488 141 
L 488 750 
Q 750 597 1062 519 
Q 1375 441 1716 441 
Q 2309 441 2620 675 
Q 2931 909 2931 1356 
Q 2931 1769 2642 2001 
Q 2353 2234 1838 2234 
L 1294 2234 
L 1294 2753 
L 1863 2753 
Q 2328 2753 2575 2939 
Q 2822 3125 2822 3475 
Q 2822 3834 2567 4026 
Q 2313 4219 1838 4219 
Q 1578 4219 1281 4162 
Q 984 4106 628 3988 
L 628 4550 
Q 988 4650 1302 4700 
Q 1616 4750 1894 4750 
Q 2613 4750 3031 4423 
Q 3450 4097 3450 3541 
Q 3450 3153 3228 2886 
Q 3006 2619 2597 2516 
z
" transform="scale(0.015625)"/>
       </defs>
       <use xlink:href="#DejaVuSans-33"/>
       <use xlink:href="#DejaVuSans-30" x="63.623047"/>
       <use xlink:href="#DejaVuSans-30" x="127.246094"/>
       <use xlink:href="#DejaVuSans-30" x="190.869141"/>
       <use xlink:href="#DejaVuSans-30" x="254.492188"/>
      </g>
     </g>
    </g>
    <g id="xtick_5">
     <g id="line2d_5">
      <g>
       <use xlink:href="#m942da71329" x="338.662099" y="307.584" style="stroke: #000000; stroke-width: 0.8"/>
      </g>
     </g>
     <g id="text_5">
      <!-- 40000 -->
      <g transform="translate(322.755849 322.182437) scale(0.1 -0.1)">
       <defs>
        <path id="DejaVuSans-34" d="M 2419 4116 
L 825 1625 
L 2419 1625 
L 2419 4116 
z
M 2253 4666 
L 3047 4666 
L 3047 1625 
L 3713 1625 
L 3713 1100 
L 3047 1100 
L 3047 0 
L 2419 0 
L 2419 1100 
L 313 1100 
L 313 1709 
L 2253 4666 
z
" transform="scale(0.015625)"/>
       </defs>
       <use xlink:href="#DejaVuSans-34"/>
       <use xlink:href="#DejaVuSans-30" x="63.623047"/>
       <use xlink:href="#DejaVuSans-30" x="127.246094"/>
       <use xlink:href="#DejaVuSans-30" x="190.869141"/>
       <use xlink:href="#DejaVuSans-30" x="254.492188"/>
      </g>
     </g>
    </g>
    <g id="xtick_6">
     <g id="line2d_6">
      <g>
       <use xlink:href="#m942da71329" x="404.884341" y="307.584" style="stroke: #000000; stroke-width: 0.8"/>
      </g>
     </g>
     <g id="text_6">
      <!-- 50000 -->
      <g transform="translate(388.978091 322.182437) scale(0.1 -0.1)">
       <defs>
        <path id="DejaVuSans-35" d="M 691 4666 
L 3169 4666 
L 3169 4134 
L 1269 4134 
L 1269 2991 
Q 1406 3038 1543 3061 
Q 1681 3084 1819 3084 
Q 2600 3084 3056 2656 
Q 3513 2228 3513 1497 
Q 3513 744 3044 326 
Q 2575 -91 1722 -91 
Q 1428 -91 1123 -41 
Q 819 9 494 109 
L 494 744 
Q 775 591 1075 516 
Q 1375 441 1709 441 
Q 2250 441 2565 725 
Q 2881 1009 2881 1497 
Q 2881 1984 2565 2268 
Q 2250 2553 1709 2553 
Q 1456 2553 1204 2497 
Q 953 2441 691 2322 
L 691 4666 
z
" transform="scale(0.015625)"/>
       </defs>
       <use xlink:href="#DejaVuSans-35"/>
       <use xlink:href="#DejaVuSans-30" x="63.623047"/>
       <use xlink:href="#DejaVuSans-30" x="127.246094"/>
       <use xlink:href="#DejaVuSans-30" x="190.869141"/>
       <use xlink:href="#DejaVuSans-30" x="254.492188"/>
      </g>
     </g>
    </g>
    <g id="text_7">
     <!-- timesteps -->
     <g transform="translate(211.443594 335.860562) scale(0.1 -0.1)">
      <defs>
       <path id="DejaVuSans-74" d="M 1172 4494 
L 1172 3500 
L 2356 3500 
L 2356 3053 
L 1172 3053 
L 1172 1153 
Q 1172 725 1289 603 
Q 1406 481 1766 481 
L 2356 481 
L 2356 0 
L 1766 0 
Q 1100 0 847 248 
Q 594 497 594 1153 
L 594 3053 
L 172 3053 
L 172 3500 
L 594 3500 
L 594 4494 
L 1172 4494 
z
" transform="scale(0.015625)"/>
       <path id="DejaVuSans-69" d="M 603 3500 
L 1178 3500 
L 1178 0 
L 603 0 
L 603 3500 
z
M 603 4863 
L 1178 4863 
L 1178 4134 
L 603 4134 
L 603 4863 
z
" transform="scale(0.015625)"/>
       <path id="DejaVuSans-6d" d="M 3328 2828 
Q 3544 3216 3844 3400 
Q 4144 3584 4550 3584 
Q 5097 3584 5394 3201 
Q 5691 2819 5691 2113 
L 5691 0 
L 5113 0 
L 5113 2094 
Q 5113 2597 4934 2840 
Q 4756 3084 4391 3084 
Q 3944 3084 3684 2787 
Q 3425 2491 3425 1978 
L 3425 0 
L 2847 0 
L 2847 2094 
Q 2847 2600 2669 2842 
Q 2491 3084 2119 3084 
Q 1678 3084 1418 2786 
Q 1159 2488 1159 1978 
L 1159 0 
L 581 0 
L 581 3500 
L 1159 3500 
L 1159 2956 
Q 1356 3278 1631 3431 
Q 1906 3584 2284 3584 
Q 2666 3584 2933 3390 
Q 3200 3197 3328 2828 
z
" transform="scale(0.015625)"/>
       <path id="DejaVuSans-65" d="M 3597 1894 
L 3597 1613 
L 953 1613 
Q 991 1019 1311 708 
Q 1631 397 2203 397 
Q 2534 397 2845 478 
Q 3156 559 3463 722 
L 3463 178 
Q 3153 47 2828 -22 
Q 2503 -91 2169 -91 
Q 1331 -91 842 396 
Q 353 884 353 1716 
Q 353 2575 817 3079 
Q 1281 3584 2069 3584 
Q 2775 3584 3186 3129 
Q 3597 2675 3597 1894 
z
M 3022 2063 
Q 3016 2534 2758 2815 
Q 2500 3097 2075 3097 
Q 1594 3097 1305 2825 
Q 1016 2553 972 2059 
L 3022 2063 
z
" transform="scale(0.015625)"/>
       <path id="DejaVuSans-73" d="M 2834 3397 
L 2834 2853 
Q 2591 2978 2328 3040 
Q 2066 3103 1784 3103 
Q 1356 3103 1142 2972 
Q 928 2841 928 2578 
Q 928 2378 1081 2264 
Q 1234 2150 1697 2047 
L 1894 2003 
Q 2506 1872 2764 1633 
Q 3022 1394 3022 966 
Q 3022 478 2636 193 
Q 2250 -91 1575 -91 
Q 1294 -91 989 -36 
Q 684 19 347 128 
L 347 722 
Q 666 556 975 473 
Q 1284 391 1588 391 
Q 1994 391 2212 530 
Q 2431 669 2431 922 
Q 2431 1156 2273 1281 
Q 2116 1406 1581 1522 
L 1381 1569 
Q 847 1681 609 1914 
Q 372 2147 372 2553 
Q 372 3047 722 3315 
Q 1072 3584 1716 3584 
Q 2034 3584 2315 3537 
Q 2597 3491 2834 3397 
z
" transform="scale(0.015625)"/>
       <path id="DejaVuSans-70" d="M 1159 525 
L 1159 -1331 
L 581 -1331 
L 581 3500 
L 1159 3500 
L 1159 2969 
Q 1341 3281 1617 3432 
Q 1894 3584 2278 3584 
Q 2916 3584 3314 3078 
Q 3713 2572 3713 1747 
Q 3713 922 3314 415 
Q 2916 -91 2278 -91 
Q 1894 -91 1617 61 
Q 1341 213 1159 525 
z
M 3116 1747 
Q 3116 2381 2855 2742 
Q 2594 3103 2138 3103 
Q 1681 3103 1420 2742 
Q 1159 2381 1159 1747 
Q 1159 1113 1420 752 
Q 1681 391 2138 391 
Q 2594 391 2855 752 
Q 3116 1113 3116 1747 
z
" transform="scale(0.015625)"/>
      </defs>
      <use xlink:href="#DejaVuSans-74"/>
      <use xlink:href="#DejaVuSans-69" x="39.208984"/>
      <use xlink:href="#DejaVuSans-6d" x="66.992188"/>
      <use xlink:href="#DejaVuSans-65" x="164.404297"/>
      <use xlink:href="#DejaVuSans-73" x="225.927734"/>
      <use xlink:href="#DejaVuSans-74" x="278.027344"/>
      <use xlink:href="#DejaVuSans-65" x="317.236328"/>
      <use xlink:href="#DejaVuSans-70" x="378.759766"/>
      <use xlink:href="#DejaVuSans-73" x="442.236328"/>
     </g>
    </g>
   </g>
   <g id="matplotlib.axis_2">
    <g id="ytick_1">
     <g id="line2d_7">
      <defs>
       <path id="m51f235e50f" d="M 0 0 
L -3.5 0 
" style="stroke: #000000; stroke-width: 0.8"/>
      </defs>
      <g>
       <use xlink:href="#m51f235e50f" x="57.6" y="298.65875" style="stroke: #000000; stroke-width: 0.8"/>
      </g>
     </g>
     <g id="text_8">
      <!-- 0 -->
      <g transform="translate(44.2375 302.457969) scale(0.1 -0.1)">
       <use xlink:href="#DejaVuSans-30"/>
      </g>
     </g>
    </g>
    <g id="ytick_2">
     <g id="line2d_8">
      <g>
       <use xlink:href="#m51f235e50f" x="57.6" y="248.666899" style="stroke: #000000; stroke-width: 0.8"/>
      </g>
     </g>
     <g id="text_9">
      <!-- 50 -->
      <g transform="translate(37.875 252.466117) scale(0.1 -0.1)">
       <use xlink:href="#DejaVuSans-35"/>
       <use xlink:href="#DejaVuSans-30" x="63.623047"/>
      </g>
     </g>
    </g>
    <g id="ytick_3">
     <g id="line2d_9">
      <g>
       <use xlink:href="#m51f235e50f" x="57.6" y="198.675047" style="stroke: #000000; stroke-width: 0.8"/>
      </g>
     </g>
     <g id="text_10">
      <!-- 100 -->
      <g transform="translate(31.5125 202.474266) scale(0.1 -0.1)">
       <use xlink:href="#DejaVuSans-31"/>
       <use xlink:href="#DejaVuSans-30" x="63.623047"/>
       <use xlink:href="#DejaVuSans-30" x="127.246094"/>
      </g>
     </g>
    </g>
    <g id="ytick_4">
     <g id="line2d_10">
      <g>
       <use xlink:href="#m51f235e50f" x="57.6" y="148.683196" style="stroke: #000000; stroke-width: 0.8"/>
      </g>
     </g>
     <g id="text_11">
      <!-- 150 -->
      <g transform="translate(31.5125 152.482415) scale(0.1 -0.1)">
       <use xlink:href="#DejaVuSans-31"/>
       <use xlink:href="#DejaVuSans-35" x="63.623047"/>
       <use xlink:href="#DejaVuSans-30" x="127.246094"/>
      </g>
     </g>
    </g>
    <g id="ytick_5">
     <g id="line2d_11">
      <g>
       <use xlink:href="#m51f235e50f" x="57.6" y="98.691345" style="stroke: #000000; stroke-width: 0.8"/>
      </g>
     </g>
     <g id="text_12">
      <!-- 200 -->
      <g transform="translate(31.5125 102.490564) scale(0.1 -0.1)">
       <use xlink:href="#DejaVuSans-32"/>
       <use xlink:href="#DejaVuSans-30" x="63.623047"/>
       <use xlink:href="#DejaVuSans-30" x="127.246094"/>
      </g>
     </g>
    </g>
    <g id="ytick_6">
     <g id="line2d_12">
      <g>
       <use xlink:href="#m51f235e50f" x="57.6" y="48.699494" style="stroke: #000000; stroke-width: 0.8"/>
      </g>
     </g>
     <g id="text_13">
      <!-- 250 -->
      <g transform="translate(31.5125 52.498712) scale(0.1 -0.1)">
       <use xlink:href="#DejaVuSans-32"/>
       <use xlink:href="#DejaVuSans-35" x="63.623047"/>
       <use xlink:href="#DejaVuSans-30" x="127.246094"/>
      </g>
     </g>
    </g>
    <g id="text_14">
     <!-- rewards -->
     <g transform="translate(25.432812 194.447531) rotate(-90) scale(0.1 -0.1)">
      <defs>
       <path id="DejaVuSans-72" d="M 2631 2963 
Q 2534 3019 2420 3045 
Q 2306 3072 2169 3072 
Q 1681 3072 1420 2755 
Q 1159 2438 1159 1844 
L 1159 0 
L 581 0 
L 581 3500 
L 1159 3500 
L 1159 2956 
Q 1341 3275 1631 3429 
Q 1922 3584 2338 3584 
Q 2397 3584 2469 3576 
Q 2541 3569 2628 3553 
L 2631 2963 
z
" transform="scale(0.015625)"/>
       <path id="DejaVuSans-77" d="M 269 3500 
L 844 3500 
L 1563 769 
L 2278 3500 
L 2956 3500 
L 3675 769 
L 4391 3500 
L 4966 3500 
L 4050 0 
L 3372 0 
L 2619 2869 
L 1863 0 
L 1184 0 
L 269 3500 
z
" transform="scale(0.015625)"/>
       <path id="DejaVuSans-61" d="M 2194 1759 
Q 1497 1759 1228 1600 
Q 959 1441 959 1056 
Q 959 750 1161 570 
Q 1363 391 1709 391 
Q 2188 391 2477 730 
Q 2766 1069 2766 1631 
L 2766 1759 
L 2194 1759 
z
M 3341 1997 
L 3341 0 
L 2766 0 
L 2766 531 
Q 2569 213 2275 61 
Q 1981 -91 1556 -91 
Q 1019 -91 701 211 
Q 384 513 384 1019 
Q 384 1609 779 1909 
Q 1175 2209 1959 2209 
L 2766 2209 
L 2766 2266 
Q 2766 2663 2505 2880 
Q 2244 3097 1772 3097 
Q 1472 3097 1187 3025 
Q 903 2953 641 2809 
L 641 3341 
Q 956 3463 1253 3523 
Q 1550 3584 1831 3584 
Q 2591 3584 2966 3190 
Q 3341 2797 3341 1997 
z
" transform="scale(0.015625)"/>
       <path id="DejaVuSans-64" d="M 2906 2969 
L 2906 4863 
L 3481 4863 
L 3481 0 
L 2906 0 
L 2906 525 
Q 2725 213 2448 61 
Q 2172 -91 1784 -91 
Q 1150 -91 751 415 
Q 353 922 353 1747 
Q 353 2572 751 3078 
Q 1150 3584 1784 3584 
Q 2172 3584 2448 3432 
Q 2725 3281 2906 2969 
z
M 947 1747 
Q 947 1113 1208 752 
Q 1469 391 1925 391 
Q 2381 391 2643 752 
Q 2906 1113 2906 1747 
Q 2906 2381 2643 2742 
Q 2381 3103 1925 3103 
Q 1469 3103 1208 2742 
Q 947 2381 947 1747 
z
" transform="scale(0.015625)"/>
      </defs>
      <use xlink:href="#DejaVuSans-72"/>
      <use xlink:href="#DejaVuSans-65" x="38.863281"/>
      <use xlink:href="#DejaVuSans-77" x="100.386719"/>
      <use xlink:href="#DejaVuSans-61" x="182.173828"/>
      <use xlink:href="#DejaVuSans-72" x="243.453125"/>
      <use xlink:href="#DejaVuSans-64" x="282.816406"/>
      <use xlink:href="#DejaVuSans-73" x="346.292969"/>
     </g>
    </g>
   </g>
   <g id="line2d_13">
    <path d="M 73.832727 291.682668 
L 73.985038 289.95177 
L 74.071127 291.291155 
L 74.157216 289.974639 
L 74.25655 290.442571 
L 74.369127 285.074966 
L 74.481705 286.007281 
L 74.594283 289.921273 
L 74.713483 289.320036 
L 74.839305 291.026059 
L 74.91215 290.892718 
L 75.077705 278.120308 
L 75.203528 287.616537 
L 75.38895 276.956764 
L 75.574372 288.639277 
L 75.773039 264.032894 
L 75.978328 270.791901 
L 76.071039 292.850921 
L 76.329306 278.325076 
L 76.541217 290.351957 
L 76.792862 253.957986 
L 77.216684 276.570483 
L 77.50144 276.555444 
L 77.587528 287.757568 
L 77.766328 288.685597 
L 77.964995 283.693927 
L 78.077573 288.425063 
L 78.170284 286.073366 
L 78.474906 245.836816 
L 78.594107 285.044676 
L 78.819262 276.230197 
L 78.918596 287.221857 
L 79.156996 291.146463 
L 79.315929 278.451517 
L 79.580818 280.71386 
L 79.640418 293.804874 
L 79.779485 280.25372 
L 80.011263 288.982125 
L 80.143707 286.040829 
L 80.262907 287.584094 
L 80.514552 280.709226 
L 80.706596 280.146863 
L 80.799307 288.214813 
L 81.037707 275.184503 
L 81.196641 274.480909 
L 81.355574 288.519931 
L 81.481396 277.682057 
L 81.587352 291.840397 
L 81.660196 289.980354 
L 81.911841 248.310017 
L 82.031041 279.211828 
L 82.229708 270.009957 
L 82.322419 294.098357 
L 82.507841 270.174795 
L 82.726374 268.489674 
L 82.852197 293.03999 
L 82.911797 291.720043 
L 83.183308 265.929599 
L 83.302508 290.870774 
L 83.395219 289.727643 
L 83.527664 284.309614 
L 83.620375 291.345481 
L 83.766064 282.533292 
L 83.971353 288.385588 
L 84.189886 284.273845 
L 84.381931 293.492312 
L 84.640197 275.959565 
L 84.726286 291.560883 
L 84.924953 257.088469 
L 85.037531 282.863582 
L 85.256064 275.582612 
L 85.335531 290.781139 
L 85.60042 269.431315 
L 85.77922 289.521546 
L 86.01762 288.42164 
L 86.209664 274.522088 
L 86.328864 292.411592 
L 86.547398 290.685552 
L 86.825531 240.45524 
L 87.169887 237.305961 
L 87.401665 289.189284 
L 87.640065 278.682499 
L 87.772509 277.830635 
L 87.938065 288.106925 
L 88.136732 287.896334 
L 88.216198 291.347341 
L 88.587043 256.439552 
L 88.72611 278.527317 
L 88.924776 283.964861 
L 89.037354 281.889161 
L 89.189665 282.859271 
L 89.527399 270.659747 
L 89.626732 291.888989 
L 89.759177 287.125467 
L 89.832021 293.038658 
L 89.924732 288.868082 
L 90.487621 155.828231 
L 90.726021 285.020584 
L 90.805488 291.807646 
L 90.977666 288.194035 
L 91.090244 289.112945 
L 91.202822 291.418904 
L 91.348511 284.565235 
L 91.514066 291.087405 
L 91.672999 290.425378 
L 91.759088 292.234206 
L 91.931266 270.897686 
L 92.189533 285.030236 
L 92.341844 283.634641 
L 92.514022 291.784191 
L 92.600111 290.123227 
L 92.792155 264.227785 
L 93.136511 250.129932 
L 93.262333 289.304257 
L 93.540467 270.316872 
L 93.6994 279.927943 
L 93.898067 278.366989 
L 94.096734 279.036549 
L 94.196067 291.686469 
L 94.361623 283.999251 
L 94.467578 291.492194 
L 94.725845 287.119812 
L 94.858289 289.0418 
L 95.003978 279.326961 
L 95.070201 293.589801 
L 95.282112 278.025841 
L 95.527134 289.486339 
L 95.652956 275.264221 
L 96.037045 197.316739 
L 96.34829 227.008139 
L 96.593312 292.255233 
L 96.94429 223.649227 
L 97.18269 274.610414 
L 97.460824 258.846441 
L 97.745579 290.856702 
L 97.944246 289.10096 
L 98.348202 268.926986 
L 98.421046 290.39726 
L 98.520379 288.901067 
L 98.772024 271.625261 
L 98.970691 290.778596 
L 99.215713 293.099386 
L 99.513713 273.758253 
L 99.725624 276.209963 
L 99.798469 293.161487 
L 99.983891 271.79271 
L 100.175935 292.065722 
L 100.255402 290.921601 
L 100.434202 283.451328 
L 100.579891 292.054515 
L 100.778558 257.132129 
L 100.997091 252.812437 
L 101.235491 291.334482 
L 101.394425 288.716022 
L 101.553358 282.932271 
L 101.685803 290.234724 
L 101.844736 270.97324 
L 101.997047 276.191495 
L 102.182469 273.117419 
L 102.440736 290.929125 
L 102.566558 287.39307 
L 102.65927 288.109587 
L 102.804959 279.82953 
L 102.990381 284.786053 
L 103.089714 291.539993 
L 103.19567 285.880186 
L 103.427448 283.722051 
L 103.579759 284.065425 
L 103.804914 287.497769 
L 104.102914 274.33935 
L 104.189003 288.666867 
L 104.334692 280.107414 
L 104.520115 291.283962 
L 104.619448 284.629485 
L 104.751892 283.362107 
L 104.80487 293.679518 
L 104.970426 279.500126 
L 105.195581 290.362671 
L 105.301537 282.716192 
L 105.599537 228.971439 
L 105.705493 291.1153 
L 105.924026 269.537425 
L 105.990248 293.50109 
L 106.069715 290.398729 
L 106.235271 272.755789 
L 106.354471 283.80015 
L 106.473671 283.527452 
L 106.592871 289.921858 
L 106.811404 286.444991 
L 106.996826 295.488 
L 107.102782 288.372342 
L 107.221982 292.220767 
L 107.321315 288.183342 
L 107.486871 293.032713 
L 107.897449 258.855658 
L 108.182205 290.487078 
L 108.367627 282.926376 
L 108.506694 293.806968 
L 108.685494 290.635009 
L 108.877538 286.707041 
L 109.049716 280.565281 
L 109.221894 292.028897 
L 109.307983 291.568066 
L 109.433805 281.405112 
L 109.513272 293.291895 
L 109.639094 284.568123 
L 109.884116 288.029296 
L 109.996694 283.081952 
L 110.201983 267.313723 
L 110.301316 289.057541 
L 110.791361 196.059314 
L 110.884072 290.782289 
L 110.983405 285.936205 
L 111.65225 135.544868 
L 111.764828 285.412111 
L 111.897272 285.846612 
L 112.042961 285.332448 
L 112.148917 283.52992 
L 112.327717 291.150789 
L 112.533006 285.236297 
L 112.758162 263.768243 
L 112.837628 290.137422 
L 113.102517 275.510873 
L 113.195228 291.558546 
L 113.433628 244.095138 
L 113.725006 289.448479 
L 113.897184 279.207881 
L 114.162073 288.084692 
L 114.367362 269.187602 
L 114.532918 289.336387 
L 114.65874 277.237317 
L 114.77794 291.354336 
L 114.963362 287.590358 
L 115.01634 293.583295 
L 115.102429 286.433469 
L 115.175273 290.079873 
L 115.466651 274.900981 
L 115.705051 291.053176 
L 115.784518 293.83793 
L 115.877229 292.650732 
L 116.14874 268.948078 
L 116.221585 290.625348 
L 116.301052 289.058912 
L 116.453363 287.923629 
L 116.506341 293.315962 
L 116.599052 290.661299 
L 116.817585 282.735035 
L 116.963274 294.10709 
L 117.72483 95.987316 
L 117.850652 285.53201 
L 118.08243 288.677388 
L 118.26123 281.170783 
L 118.44003 292.208675 
L 118.545986 280.982279 
L 118.67843 283.150678 
L 118.757897 290.944009 
L 118.850608 285.502385 
L 119.016164 290.111156 
L 119.181719 273.409467 
L 119.267808 291.951313 
L 119.347275 288.978018 
L 119.45323 289.6047 
L 119.526075 292.023177 
L 119.863808 273.812456 
L 120.122075 282.027893 
L 120.300875 284.823655 
L 120.55252 277.950182 
L 120.67172 288.282529 
L 120.757809 286.712023 
L 120.890253 286.413716 
L 120.963097 291.043079 
L 121.254475 286.850539 
L 121.413409 287.279398 
L 121.612075 262.985068 
L 121.698164 289.844584 
L 121.777631 288.848706 
L 121.870342 286.629699 
L 122.022653 287.252949 
L 122.135231 286.103129 
L 122.314031 288.181103 
L 122.492831 277.792986 
L 122.790831 288.706508 
L 122.976254 270.245519 
L 123.161676 270.275075 
L 123.360343 263.911784 
L 123.446432 287.423119 
L 123.698076 289.4953 
L 123.863632 274.976739 
L 123.949721 293.480178 
L 124.075543 278.404561 
L 124.267587 292.208689 
L 124.419899 291.830071 
L 124.678165 272.872712 
L 124.777499 291.636083 
L 124.962921 290.586278 
L 125.154965 292.099468 
L 125.22781 290.93411 
L 125.294032 291.410221 
L 125.558921 276.096718 
L 125.64501 292.6261 
L 125.750966 291.213025 
L 125.837055 291.83128 
L 126.00261 290.293502 
L 126.088699 292.565485 
L 126.214521 287.386101 
L 126.565499 292.053753 
L 126.644966 289.275933 
L 126.704566 292.792462 
L 126.883366 269.910468 
L 126.995944 289.852446 
L 127.234344 266.100641 
L 127.399899 270.437884 
L 127.565455 270.521556 
L 127.6383 289.845697 
L 127.870077 247.826496 
L 127.9363 292.613072 
L 128.4727 132.811533 
L 128.5323 293.064546 
L 128.618389 291.803904 
L 128.803811 276.655505 
L 128.923011 286.952185 
L 129.148167 252.397871 
L 129.254122 285.055744 
L 129.459411 290.976717 
L 129.6051 272.025914 
L 129.770656 292.906328 
L 129.922967 273.631438 
L 130.134878 277.210106 
L 130.2011 292.895674 
L 130.300434 291.419936 
L 130.3799 287.562997 
L 130.512345 287.342308 
L 130.750745 254.605865 
L 130.883189 286.953981 
L 131.028878 278.674775 
L 131.287145 241.981434 
L 131.459323 293.413449 
L 131.591767 286.864189 
L 131.83679 291.338401 
L 132.01559 282.594412 
L 132.088434 289.399421 
L 132.240745 272.916751 
L 132.638079 208.325584 
L 132.843368 292.675416 
L 132.922835 292.540156 
L 133.055279 283.091243 
L 133.167857 284.138235 
L 133.44599 244.991478 
L 133.585057 279.421121 
L 133.757235 280.41481 
L 133.856568 287.71818 
L 134.326746 237.818779 
L 134.644613 287.612437 
L 134.777057 280.422233 
L 134.922746 292.050011 
L 135.26048 276.63453 
L 135.432658 273.990371 
L 135.538613 286.67416 
L 135.902835 264.232195 
L 136.022036 288.760255 
L 136.108124 287.241366 
L 136.240569 292.746351 
L 136.339902 291.729305 
L 136.578302 264.40051 
L 136.717369 273.673073 
L 136.796836 289.675124 
L 137.121325 238.88286 
L 137.207414 290.997079 
L 137.46568 272.379024 
L 137.730569 293.472196 
L 137.849769 283.098641 
L 138.154392 269.49141 
L 138.333192 273.853457 
L 138.657681 289.755981 
L 138.869592 262.656108 
L 139.068259 291.900143 
L 139.207325 287.048087 
L 139.286792 291.282513 
L 139.412614 287.145073 
L 139.472214 292.413269 
L 139.69737 249.951826 
L 139.770214 290.948655 
L 140.081459 282.747482 
L 140.200659 283.179127 
L 140.445681 288.962847 
L 140.690704 282.601364 
L 140.88937 289.856935 
L 141.00857 289.44744 
L 141.101282 286.5397 
L 141.18737 293.041359 
L 141.273459 292.151459 
L 141.452259 271.11258 
L 141.558215 291.388631 
L 141.842971 274.695893 
L 141.909193 291.668677 
L 141.982037 289.777852 
L 142.094615 286.107642 
L 142.180704 289.37389 
L 142.419104 275.702016 
L 142.571415 284.440898 
L 142.717104 281.922241 
L 142.909149 293.489335 
L 143.147549 277.095335 
L 143.266749 288.333813 
L 143.372704 286.003462 
L 143.77666 262.975613 
L 143.962082 288.363991 
L 144.061416 286.567332 
L 144.187238 288.057138 
L 144.246838 292.058049 
L 144.43226 283.801724 
L 144.49186 293.177328 
L 145.028261 233.038281 
L 145.240172 290.596701 
L 145.35275 292.357554 
L 145.41235 291.867018 
L 145.59115 283.773653 
L 145.743461 271.039274 
L 145.968616 285.056442 
L 146.160661 259.50506 
L 146.48515 251.929093 
L 146.84275 294.919474 
L 146.915594 290.954668 
L 147.001683 292.626276 
L 147.087772 290.921084 
L 147.193728 285.28465 
L 147.405639 281.056965 
L 147.511595 291.485576 
L 147.604306 284.268433 
L 147.73675 284.906796 
L 147.809595 290.316285 
L 148.345995 271.677686 
L 148.597639 294.308572 
L 148.789684 263.237674 
L 148.862528 289.789366 
L 148.95524 287.451365 
L 149.279729 266.652917 
L 149.511506 253.948918 
L 149.61084 289.875099 
L 149.763151 271.574819 
L 149.935329 277.198354 
L 150.107507 271.703256 
L 150.20684 289.002622 
L 150.551196 239.118755 
L 150.74324 289.483129 
L 151.094218 267.528391 
L 151.200174 281.407801 
L 151.544529 202.494181 
L 151.643863 290.523127 
L 151.763063 284.665088 
L 152.246485 191.732969 
L 152.385552 283.317619 
L 152.570974 293.075532 
L 152.875596 274.672681 
L 153.014663 276.135203 
L 153.127241 288.28979 
L 153.286174 277.193383 
L 153.345774 292.370797 
L 153.696752 211.043026 
L 153.968263 290.229266 
L 154.127197 270.877124 
L 154.186797 293.365181 
L 154.398708 272.444191 
L 154.696708 216.988432 
L 154.862264 285.693955 
L 155.021197 275.59284 
L 155.550975 163.352115 
L 155.743019 282.027878 
L 155.882086 276.381419 
L 156.113864 260.814486 
L 156.325775 281.964825 
L 156.51782 286.190586 
L 156.703242 263.468002 
L 156.87542 285.716649 
L 157.193287 277.048832 
L 157.378709 262.513962 
L 157.497909 285.598541 
L 157.636976 287.56966 
L 157.762798 285.087818 
L 157.961465 291.310562 
L 158.206487 279.068151 
L 158.42502 281.459397 
L 158.583954 292.436611 
L 158.809109 238.855823 
L 158.96142 276.742736 
L 159.166709 277.948362 
L 159.511065 201.731335 
L 159.617021 286.291416 
L 159.948132 211.156763 
L 160.789154 279.778108 
L 161.034177 252.85023 
L 161.259332 289.585469 
L 161.517599 268.698016 
L 161.703021 285.555896 
L 162.08711 228.686292 
L 162.159955 291.504148 
L 162.636755 244.018898 
L 162.755955 280.663402 
L 162.881777 279.948955 
L 163.623466 142.28126 
L 163.894978 238.331181 
L 164.179733 224.939236 
L 164.424755 285.804441 
L 164.947911 222.430235 
L 165.120089 278.498521 
L 165.603511 290.673334 
L 165.967734 259.959415 
L 166.331956 214.039608 
L 166.755778 261.998156 
L 167.26569 164.740379 
L 167.517334 289.317948 
L 168.073601 152.687643 
L 168.63649 188.044265 
L 169.047068 202.068884 
L 169.219246 283.359916 
L 169.550357 222.900389 
L 169.848357 228.711221 
L 170.490713 205.070435 
L 170.696002 244.255848 
L 171.053602 214.944875 
L 171.861513 214.944975 
L 172.351558 195.71447 
L 172.71578 229.994132 
L 173.709114 144.438768 
L 174.026981 271.743934 
L 174.245514 292.62225 
L 174.881248 172.741165 
L 175.450759 244.896296 
L 175.695781 236.766029 
L 176.232181 194.79261 
L 176.841426 224.541481 
L 176.954004 282.224507 
L 177.205648 233.673493 
L 177.563248 219.290431 
L 177.947337 185.623625 
L 178.19236 236.168446 
L 178.708893 193.50341 
L 178.927427 243.186322 
L 179.38436 200.613801 
L 179.900894 250.775465 
L 180.324716 183.063622 
L 180.629338 226.950109 
L 180.967072 206.320031 
L 181.371027 207.537403 
L 181.61605 237.881067 
L 182.079605 209.352297 
L 183.10605 90.893316 
L 183.364317 230.065157 
L 183.569606 245.166219 
L 183.867606 216.398918 
L 184.390762 187.308 
L 184.788095 201.013831 
L 185.596006 152.991274 
L 186.05294 175.610247 
L 186.29134 237.140225 
L 186.595962 228.895067 
L 187.138985 222.77128 
L 187.42374 234.452716 
L 188.112452 213.645301 
L 188.556141 220.783334 
L 188.834274 223.039591 
L 189.456763 181.730319 
L 190.032897 242.554019 
L 190.741475 161.956623 
L 190.979875 233.239273 
L 191.32423 211.439697 
L 191.622231 220.099625 
L 191.966586 203.788664 
L 192.198364 237.519966 
L 192.48312 228.770192 
L 192.800987 213.900356 
L 193.012898 243.431832 
L 193.814187 196.961317 
L 194.006231 246.150261 
L 194.456543 206.63712 
L 195.264454 151.755595 
L 195.449876 248.195273 
L 195.761121 223.964435 
L 196.271032 238.008613 
L 196.674988 209.876392 
L 196.913388 233.656585 
L 197.284232 231.904721 
L 198.039166 169.195463 
L 198.284188 230.760457 
L 198.780855 201.891143 
L 198.986144 242.562814 
L 199.5093 226.353136 
L 199.6881 252.186722 
L 199.873522 250.879818 
L 200.171522 216.513174 
L 200.350322 250.159743 
L 200.568856 238.146858 
L 201.131745 198.112979 
L 201.363523 236.648613 
L 201.588678 239.467375 
L 201.807212 240.351001 
L 202.045612 237.669671 
L 202.336989 221.507986 
L 202.529034 248.037731 
L 202.747567 243.023799 
L 202.959479 242.159555 
L 203.138279 249.785456 
L 203.575345 238.180903 
L 203.82699 234.961133 
L 203.992546 256.155184 
L 204.224323 241.025454 
L 204.588546 192.805164 
L 204.879924 221.406266 
L 205.456057 239.539646 
L 205.701079 234.449906 
L 205.873257 252.904363 
L 206.111657 233.706607 
L 206.316946 242.407307 
L 206.674546 217.200698 
L 207.025524 215.970448 
L 207.601658 95.524611 
L 208.290369 166.343298 
L 208.753925 158.78148 
L 209.190992 167.755297 
L 209.767125 144.390846 
L 210.290281 248.016805 
L 210.687614 182.896219 
L 211.09157 177.328387 
L 211.945837 53.568 
L 212.197481 230.331747 
L 212.661037 155.730347 
L 213.151082 153.102646 
L 213.700726 106.240884 
L 214.223882 249.221755 
L 214.786771 108.863607 
L 215.223838 160.68321 
L 215.40926 249.484751 
L 215.972149 112.949471 
L 216.150949 251.636542 
L 216.329749 251.762324 
L 216.501927 253.210801 
L 216.660861 256.256395 
L 216.833038 253.405163 
L 216.991972 257.165936 
L 217.184016 247.425841 
L 217.34295 256.780669 
L 217.548239 244.213657 
L 217.727039 251.458108 
L 217.93895 241.073686 
L 218.17735 236.7919 
L 218.455483 220.643906 
L 218.700506 233.22752 
L 218.925661 235.159945 
L 219.117706 247.355422 
L 219.322995 242.019402 
L 219.521661 245.429633 
L 220.064684 112.481817 
L 220.481884 175.929831 
L 221.044773 104.542351 
L 221.634151 94.687597 
L 222.19704 109.309574 
L 222.799663 89.782307 
L 223.336063 113.946308 
L 223.865841 119.625263 
L 224.402241 119.096599 
L 224.945263 121.866967 
L 225.508152 102.265302 
L 226.064419 117.987879 
L 226.607441 119.166567 
L 227.137219 131.353061 
L 227.686864 117.333676 
L 228.249753 117.516576 
L 228.792775 121.178219 
L 229.362287 104.675219 
L 229.911931 118.953452 
L 230.488065 116.460408 
L 231.017843 118.503885 
L 231.554243 121.846081 
L 232.103888 109.776928 
L 232.633666 132.931874 
L 233.18331 111.453535 
L 233.746199 121.888794 
L 234.275977 124.246289 
L 234.825622 124.4898 
L 235.328911 141.620317 
L 235.878555 120.395467 
L 236.4282 121.626736 
L 236.971222 117.098544 
L 237.514245 127.165584 
L 238.070512 105.83625 
L 238.60029 131.91138 
L 239.149934 123.44528 
L 239.67309 136.407867 
L 240.202868 118.464562 
L 240.739268 120.457797 
L 241.262424 134.761245 
L 241.831935 117.967913 
L 242.388202 124.280894 
L 242.951091 119.733355 
L 243.494113 129.817051 
L 244.023891 135.359348 
L 244.566914 110.531665 
L 245.136425 121.760005 
L 245.679447 122.241006 
L 246.229092 122.21887 
L 246.75887 122.330482 
L 247.321759 121.091794 
L 247.884648 123.353405 
L 248.440915 122.496965 
L 249.003804 121.241569 
L 249.553449 120.519027 
L 250.089849 115.859716 
L 250.606382 138.762173 
L 251.162649 126.457739 
L 251.725538 121.987288 
L 252.281805 126.623052 
L 252.818205 121.352771 
L 253.347983 121.558957 
L 253.910872 119.399069 
L 254.447272 121.616848 
L 254.990295 122.204872 
L 255.559806 121.740738 
L 256.096206 119.230187 
L 256.652473 127.12282 
L 257.202118 129.952179 
L 257.74514 123.489033 
L 258.294785 125.615046 
L 258.844429 128.84216 
L 259.400696 125.373396 
L 259.950341 124.18223 
L 260.486741 133.376911 
L 261.04963 124.54885 
L 261.486697 165.998854 
L 262.042964 127.138948 
L 262.506519 161.132667 
L 263.076031 122.380084 
L 263.612431 123.232375 
L 264.135586 136.830288 
L 264.685231 124.54893 
L 265.24812 119.206591 
L 265.78452 121.363859 
L 266.327543 120.752099 
L 266.850698 123.159996 
L 267.387099 123.595335 
L 267.936743 127.811168 
L 268.996299 138.846899 
L 269.512833 141.470172 
L 270.069099 121.509665 
L 270.625366 126.178444 
L 271.2015 117.808899 
L 271.744522 116.495953 
L 272.294167 125.436375 
L 272.843811 123.400647 
L 273.386834 123.296734 
L 273.936478 129.074342 
L 274.472879 121.662651 
L 274.996034 125.138864 
L 275.479457 152.744894 
L 275.956257 154.934847 
L 276.499279 122.924925 
L 277.048924 129.751402 
L 277.585324 123.87701 
L 278.121724 123.112734 
L 278.664747 126.148079 
L 279.207769 130.503499 
L 279.770658 124.484401 
L 280.333547 122.841278 
L 280.896436 124.354782 
L 281.452703 123.778856 
L 281.995725 124.781852 
L 282.538748 130.814249 
L 283.088392 129.961138 
L 283.644659 127.672901 
L 284.194304 129.162738 
L 284.651237 164.074107 
L 284.982349 201.527907 
L 285.392926 177.732607 
L 285.929327 122.867354 
L 286.485593 126.583118 
L 287.055105 121.150884 
L 287.57826 139.240445 
L 288.121283 133.432612 
L 288.67755 124.184349 
L 289.227194 129.954869 
L 289.783461 126.987043 
L 290.299995 140.175563 
L 290.869506 123.520958 
L 291.425773 126.771488 
L 291.895951 157.842663 
L 292.425729 134.810807 
L 292.968751 132.025521 
L 293.525018 127.747019 
L 294.061418 133.470236 
L 294.624307 125.801476 
L 295.173952 128.908039 
L 295.630885 162.785677 
L 296.167285 133.576439 
L 296.610974 165.329073 
L 297.021552 176.998081 
L 297.498352 157.551211 
L 297.875819 189.107967 
L 298.425464 122.03652 
L 298.855908 173.383455 
L 299.326086 159.594918 
L 299.749909 173.341073 
L 300.160487 177.390637 
L 300.610798 164.756136 
L 301.193554 117.851442 
L 301.723332 136.173545 
L 302.259732 134.041003 
L 302.78951 136.043046 
L 303.339154 129.757861 
L 303.895421 120.722274 
L 304.445066 124.176331 
L 305.007955 121.632705 
L 305.577466 121.902941 
L 306.1536 119.909616 
L 306.683377 136.262801 
L 307.246267 125.618776 
L 307.802533 127.877517 
L 308.365422 125.612497 
L 308.901823 133.448599 
L 309.319023 176.614893 
L 309.736223 175.667934 
L 310.186534 166.040967 
L 310.623601 169.673965 
L 310.987823 190.666198 
L 311.358668 190.49674 
L 311.716268 192.43284 
L 311.974535 221.748076 
L 312.226179 224.79416 
L 312.729468 145.649421 
L 313.067202 199.3978 
L 313.471157 180.524366 
L 313.749291 216.229796 
L 314.537335 169.375763 
L 314.947913 177.978281 
L 315.358491 177.005225 
L 315.901514 132.540837 
L 316.325336 175.719169 
L 316.735914 178.286581 
L 317.146492 177.12473 
L 317.537203 182.433699 
L 317.908048 189.667386 
L 318.278892 189.406973 
L 318.649737 188.715041 
L 319.371559 193.81027 
L 319.70267 199.643144 
L 320.047026 195.198904 
L 320.391382 195.473443 
L 320.735737 195.201134 
L 321.086715 195.491336 
L 321.656227 123.877779 
L 322.205871 128.823743 
L 322.58996 185.426642 
L 322.987294 182.389547 
L 323.384627 180.768426 
L 323.801827 176.180919 
L 324.219027 176.847795 
L 324.629605 176.588598 
L 325.046805 175.033091 
L 325.444139 182.383529 
L 326.225561 183.330839 
L 326.629517 180.636518 
L 327.059962 172.727727 
L 327.463917 177.806029 
L 327.881117 175.565444 
L 328.311562 174.375018 
L 328.742007 172.059606 
L 329.238673 149.846007 
L 329.748585 144.144856 
L 330.291607 131.036353 
L 330.841252 128.939574 
L 331.364407 138.403932 
L 331.900808 135.066066 
L 332.410719 143.13582 
L 332.940497 135.234548 
L 333.463652 138.740897 
L 333.99343 135.093541 
L 334.516586 140.039205 
L 335.046364 136.808302 
L 335.576142 135.728628 
L 336.112542 134.935987 
L 336.648942 133.785185 
L 337.165476 141.431108 
L 337.701876 133.769747 
L 338.225032 138.306927 
L 338.75481 138.304028 
L 339.284588 137.048133 
L 339.741521 164.442957 
L 340.205077 161.842231 
L 340.754721 130.829536 
L 341.781166 146.32601 
L 342.291077 143.234464 
L 342.807611 141.334024 
L 343.324144 141.455494 
L 343.8473 138.377366 
L 344.363834 140.80412 
L 344.893612 136.523698 
L 345.403523 143.536735 
L 345.939923 133.967485 
L 346.456457 141.807787 
L 346.992857 134.85798 
L 347.522635 136.876271 
L 348.065657 131.762024 
L 348.608679 132.547226 
L 349.164946 128.676597 
L 349.721213 128.240648 
L 350.284102 126.420925 
L 350.833747 128.629485 
L 351.370147 134.062029 
L 351.906547 133.372262 
L 352.429703 139.483096 
L 352.966103 132.95203 
L 353.489259 137.92369 
L 354.019037 136.536496 
L 354.548815 136.87779 
L 355.098459 129.277709 
L 355.628237 136.151039 
L 356.158015 135.65276 
L 357.787082 130.019188 
L 358.330105 131.546289 
L 358.866505 134.209125 
L 359.402905 134.013707 
L 359.959172 128.098661 
L 360.508816 130.151697 
L 361.045217 134.299241 
L 361.574995 135.174978 
L 362.078284 145.091282 
L 362.57495 148.993266 
L 363.654373 128.084684 
L 364.217262 125.107099 
L 364.786773 124.274515 
L 365.336418 129.450231 
L 365.899307 123.397688 
L 366.448952 129.51846 
L 367.018463 122.676035 
L 367.587974 124.380138 
L 368.157486 123.807551 
L 368.720375 125.888162 
L 369.270019 129.862124 
L 369.83953 123.226646 
L 370.375931 134.009948 
L 370.918953 131.689666 
L 371.495087 120.458167 
L 372.044731 129.743733 
L 372.620865 120.935339 
L 373.163887 131.145155 
L 373.706909 131.35876 
L 374.249932 131.282163 
L 374.792954 131.366999 
L 375.335977 131.151374 
L 375.865755 135.329813 
L 376.402155 135.10173 
L 377.4882 129.691372 
L 378.0246 135.247366 
L 378.554378 136.378382 
L 379.084156 135.386004 
L 379.613934 135.989415 
L 380.143711 135.936804 
L 380.706601 124.008858 
L 381.26949 123.465247 
L 381.858868 114.909531 
L 382.448246 113.376371 
L 383.686601 93.625431 
L 384.269357 110.530605 
L 384.858735 106.761029 
L 385.40838 129.33419 
L 385.951402 130.155686 
L 386.501047 127.583475 
L 387.030825 133.366633 
L 387.567225 133.910334 
L 388.123492 123.775756 
L 388.693003 122.038099 
L 389.236025 131.009957 
L 389.78567 126.985563 
L 390.361804 115.133265 
L 390.91807 123.532146 
L 391.487582 113.185472 
L 392.057093 118.338582 
L 392.619982 121.756925 
L 393.169627 129.309644 
L 393.719271 127.383428 
L 394.262294 128.577773 
L 394.898027 84.694766 
L 395.434427 133.831007 
L 395.990694 128.165541 
L 396.487361 149.135802 
L 396.99065 146.580769 
L 397.480695 150.526356 
L 397.977361 148.758154 
L 398.487273 143.564171 
L 398.487273 143.564171 
" clip-path="url(#p5990567dc2)" style="fill: none; stroke: #1f77b4; stroke-width: 1.5; stroke-linecap: square"/>
   </g>
   <g id="patch_3">
    <path d="M 57.6 307.584 
L 57.6 41.472 
" style="fill: none; stroke: #000000; stroke-width: 0.8; stroke-linejoin: miter; stroke-linecap: square"/>
   </g>
   <g id="patch_4">
    <path d="M 414.72 307.584 
L 414.72 41.472 
" style="fill: none; stroke: #000000; stroke-width: 0.8; stroke-linejoin: miter; stroke-linecap: square"/>
   </g>
   <g id="patch_5">
    <path d="M 57.6 307.584 
L 414.72 307.584 
" style="fill: none; stroke: #000000; stroke-width: 0.8; stroke-linejoin: miter; stroke-linecap: square"/>
   </g>
   <g id="patch_6">
    <path d="M 57.6 41.472 
L 414.72 41.472 
" style="fill: none; stroke: #000000; stroke-width: 0.8; stroke-linejoin: miter; stroke-linecap: square"/>
   </g>
   <g id="text_15">
    <!-- learning curve -->
    <g transform="translate(192.96375 35.472) scale(0.12 -0.12)">
     <defs>
      <path id="DejaVuSans-6c" d="M 603 4863 
L 1178 4863 
L 1178 0 
L 603 0 
L 603 4863 
z
" transform="scale(0.015625)"/>
      <path id="DejaVuSans-6e" d="M 3513 2113 
L 3513 0 
L 2938 0 
L 2938 2094 
Q 2938 2591 2744 2837 
Q 2550 3084 2163 3084 
Q 1697 3084 1428 2787 
Q 1159 2491 1159 1978 
L 1159 0 
L 581 0 
L 581 3500 
L 1159 3500 
L 1159 2956 
Q 1366 3272 1645 3428 
Q 1925 3584 2291 3584 
Q 2894 3584 3203 3211 
Q 3513 2838 3513 2113 
z
" transform="scale(0.015625)"/>
      <path id="DejaVuSans-67" d="M 2906 1791 
Q 2906 2416 2648 2759 
Q 2391 3103 1925 3103 
Q 1463 3103 1205 2759 
Q 947 2416 947 1791 
Q 947 1169 1205 825 
Q 1463 481 1925 481 
Q 2391 481 2648 825 
Q 2906 1169 2906 1791 
z
M 3481 434 
Q 3481 -459 3084 -895 
Q 2688 -1331 1869 -1331 
Q 1566 -1331 1297 -1286 
Q 1028 -1241 775 -1147 
L 775 -588 
Q 1028 -725 1275 -790 
Q 1522 -856 1778 -856 
Q 2344 -856 2625 -561 
Q 2906 -266 2906 331 
L 2906 616 
Q 2728 306 2450 153 
Q 2172 0 1784 0 
Q 1141 0 747 490 
Q 353 981 353 1791 
Q 353 2603 747 3093 
Q 1141 3584 1784 3584 
Q 2172 3584 2450 3431 
Q 2728 3278 2906 2969 
L 2906 3500 
L 3481 3500 
L 3481 434 
z
" transform="scale(0.015625)"/>
      <path id="DejaVuSans-20" transform="scale(0.015625)"/>
      <path id="DejaVuSans-63" d="M 3122 3366 
L 3122 2828 
Q 2878 2963 2633 3030 
Q 2388 3097 2138 3097 
Q 1578 3097 1268 2742 
Q 959 2388 959 1747 
Q 959 1106 1268 751 
Q 1578 397 2138 397 
Q 2388 397 2633 464 
Q 2878 531 3122 666 
L 3122 134 
Q 2881 22 2623 -34 
Q 2366 -91 2075 -91 
Q 1284 -91 818 406 
Q 353 903 353 1747 
Q 353 2603 823 3093 
Q 1294 3584 2113 3584 
Q 2378 3584 2631 3529 
Q 2884 3475 3122 3366 
z
" transform="scale(0.015625)"/>
      <path id="DejaVuSans-75" d="M 544 1381 
L 544 3500 
L 1119 3500 
L 1119 1403 
Q 1119 906 1312 657 
Q 1506 409 1894 409 
Q 2359 409 2629 706 
Q 2900 1003 2900 1516 
L 2900 3500 
L 3475 3500 
L 3475 0 
L 2900 0 
L 2900 538 
Q 2691 219 2414 64 
Q 2138 -91 1772 -91 
Q 1169 -91 856 284 
Q 544 659 544 1381 
z
M 1991 3584 
L 1991 3584 
z
" transform="scale(0.015625)"/>
      <path id="DejaVuSans-76" d="M 191 3500 
L 800 3500 
L 1894 563 
L 2988 3500 
L 3597 3500 
L 2284 0 
L 1503 0 
L 191 3500 
z
" transform="scale(0.015625)"/>
     </defs>
     <use xlink:href="#DejaVuSans-6c"/>
     <use xlink:href="#DejaVuSans-65" x="27.783203"/>
     <use xlink:href="#DejaVuSans-61" x="89.306641"/>
     <use xlink:href="#DejaVuSans-72" x="150.585938"/>
     <use xlink:href="#DejaVuSans-6e" x="189.949219"/>
     <use xlink:href="#DejaVuSans-69" x="253.328125"/>
     <use xlink:href="#DejaVuSans-6e" x="281.111328"/>
     <use xlink:href="#DejaVuSans-67" x="344.490234"/>
     <use xlink:href="#DejaVuSans-20" x="407.966797"/>
     <use xlink:href="#DejaVuSans-63" x="439.753906"/>
     <use xlink:href="#DejaVuSans-75" x="494.734375"/>
     <use xlink:href="#DejaVuSans-72" x="558.113281"/>
     <use xlink:href="#DejaVuSans-76" x="599.226562"/>
     <use xlink:href="#DejaVuSans-65" x="658.40625"/>
    </g>
   </g>
  </g>
 </g>
 <defs>
  <clipPath id="p5990567dc2">
   <rect x="57.6" y="41.472" width="357.12" height="266.112"/>
  </clipPath>
 </defs>
</svg>
