<?xml version="1.0" encoding="utf-8" standalone="no"?>
<!DOCTYPE svg PUBLIC "-//W3C//DTD SVG 1.1//EN"
  "http://www.w3.org/Graphics/SVG/1.1/DTD/svg11.dtd">
<svg xmlns:xlink="http://www.w3.org/1999/xlink" width="460.8pt" height="345.6pt" viewBox="0 0 460.8 345.6" xmlns="http://www.w3.org/2000/svg" version="1.1">
 <metadata>
  <rdf:RDF xmlns:dc="http://purl.org/dc/elements/1.1/" xmlns:cc="http://creativecommons.org/ns#" xmlns:rdf="http://www.w3.org/1999/02/22-rdf-syntax-ns#">
   <cc:Work>
    <dc:type rdf:resource="http://purl.org/dc/dcmitype/StillImage"/>
    <dc:date>2023-08-18T16:48:43.920688</dc:date>
    <dc:format>image/svg+xml</dc:format>
    <dc:creator>
     <cc:Agent>
      <dc:title>Matplotlib v3.7.1, https://matplotlib.org/</dc:title>
     </cc:Agent>
    </dc:creator>
   </cc:Work>
  </rdf:RDF>
 </metadata>
 <defs>
  <style type="text/css">*{stroke-linejoin: round; stroke-linecap: butt}</style>
 </defs>
 <g id="figure_1">
  <g id="patch_1">
   <path d="M 0 345.6 
L 460.8 345.6 
L 460.8 0 
L 0 0 
z
" style="fill: #ffffff"/>
  </g>
  <g id="axes_1">
   <g id="patch_2">
    <path d="M 57.6 307.584 
L 414.72 307.584 
L 414.72 41.472 
L 57.6 41.472 
z
" style="fill: #ffffff"/>
   </g>
   <g id="matplotlib.axis_1">
    <g id="xtick_1">
     <g id="line2d_1">
      <defs>
       <path id="m94640d37ed" d="M 0 0 
L 0 3.5 
" style="stroke: #000000; stroke-width: 0.8"/>
      </defs>
      <g>
       <use xlink:href="#m94640d37ed" x="73.773315" y="307.584" style="stroke: #000000; stroke-width: 0.8"/>
      </g>
     </g>
     <g id="text_1">
      <!-- 0 -->
      <g transform="translate(70.592065 322.182437) scale(0.1 -0.1)">
       <defs>
        <path id="DejaVuSans-30" d="M 2034 4250 
Q 1547 4250 1301 3770 
Q 1056 3291 1056 2328 
Q 1056 1369 1301 889 
Q 1547 409 2034 409 
Q 2525 409 2770 889 
Q 3016 1369 3016 2328 
Q 3016 3291 2770 3770 
Q 2525 4250 2034 4250 
z
M 2034 4750 
Q 2819 4750 3233 4129 
Q 3647 3509 3647 2328 
Q 3647 1150 3233 529 
Q 2819 -91 2034 -91 
Q 1250 -91 836 529 
Q 422 1150 422 2328 
Q 422 3509 836 4129 
Q 1250 4750 2034 4750 
z
" transform="scale(0.015625)"/>
       </defs>
       <use xlink:href="#DejaVuSans-30"/>
      </g>
     </g>
    </g>
    <g id="xtick_2">
     <g id="line2d_2">
      <g>
       <use xlink:href="#m94640d37ed" x="139.786846" y="307.584" style="stroke: #000000; stroke-width: 0.8"/>
      </g>
     </g>
     <g id="text_2">
      <!-- 10000 -->
      <g transform="translate(123.880596 322.182437) scale(0.1 -0.1)">
       <defs>
        <path id="DejaVuSans-31" d="M 794 531 
L 1825 531 
L 1825 4091 
L 703 3866 
L 703 4441 
L 1819 4666 
L 2450 4666 
L 2450 531 
L 3481 531 
L 3481 0 
L 794 0 
L 794 531 
z
" transform="scale(0.015625)"/>
       </defs>
       <use xlink:href="#DejaVuSans-31"/>
       <use xlink:href="#DejaVuSans-30" x="63.623047"/>
       <use xlink:href="#DejaVuSans-30" x="127.246094"/>
       <use xlink:href="#DejaVuSans-30" x="190.869141"/>
       <use xlink:href="#DejaVuSans-30" x="254.492188"/>
      </g>
     </g>
    </g>
    <g id="xtick_3">
     <g id="line2d_3">
      <g>
       <use xlink:href="#m94640d37ed" x="205.800377" y="307.584" style="stroke: #000000; stroke-width: 0.8"/>
      </g>
     </g>
     <g id="text_3">
      <!-- 20000 -->
      <g transform="translate(189.894127 322.182437) scale(0.1 -0.1)">
       <defs>
        <path id="DejaVuSans-32" d="M 1228 531 
L 3431 531 
L 3431 0 
L 469 0 
L 469 531 
Q 828 903 1448 1529 
Q 2069 2156 2228 2338 
Q 2531 2678 2651 2914 
Q 2772 3150 2772 3378 
Q 2772 3750 2511 3984 
Q 2250 4219 1831 4219 
Q 1534 4219 1204 4116 
Q 875 4013 500 3803 
L 500 4441 
Q 881 4594 1212 4672 
Q 1544 4750 1819 4750 
Q 2544 4750 2975 4387 
Q 3406 4025 3406 3419 
Q 3406 3131 3298 2873 
Q 3191 2616 2906 2266 
Q 2828 2175 2409 1742 
Q 1991 1309 1228 531 
z
" transform="scale(0.015625)"/>
       </defs>
       <use xlink:href="#DejaVuSans-32"/>
       <use xlink:href="#DejaVuSans-30" x="63.623047"/>
       <use xlink:href="#DejaVuSans-30" x="127.246094"/>
       <use xlink:href="#DejaVuSans-30" x="190.869141"/>
       <use xlink:href="#DejaVuSans-30" x="254.492188"/>
      </g>
     </g>
    </g>
    <g id="xtick_4">
     <g id="line2d_4">
      <g>
       <use xlink:href="#m94640d37ed" x="271.813908" y="307.584" style="stroke: #000000; stroke-width: 0.8"/>
      </g>
     </g>
     <g id="text_4">
      <!-- 30000 -->
      <g transform="translate(255.907658 322.182437) scale(0.1 -0.1)">
       <defs>
        <path id="DejaVuSans-33" d="M 2597 2516 
Q 3050 2419 3304 2112 
Q 3559 1806 3559 1356 
Q 3559 666 3084 287 
Q 2609 -91 1734 -91 
Q 1441 -91 1130 -33 
Q 819 25 488 141 
L 488 750 
Q 750 597 1062 519 
Q 1375 441 1716 441 
Q 2309 441 2620 675 
Q 2931 909 2931 1356 
Q 2931 1769 2642 2001 
Q 2353 2234 1838 2234 
L 1294 2234 
L 1294 2753 
L 1863 2753 
Q 2328 2753 2575 2939 
Q 2822 3125 2822 3475 
Q 2822 3834 2567 4026 
Q 2313 4219 1838 4219 
Q 1578 4219 1281 4162 
Q 984 4106 628 3988 
L 628 4550 
Q 988 4650 1302 4700 
Q 1616 4750 1894 4750 
Q 2613 4750 3031 4423 
Q 3450 4097 3450 3541 
Q 3450 3153 3228 2886 
Q 3006 2619 2597 2516 
z
" transform="scale(0.015625)"/>
       </defs>
       <use xlink:href="#DejaVuSans-33"/>
       <use xlink:href="#DejaVuSans-30" x="63.623047"/>
       <use xlink:href="#DejaVuSans-30" x="127.246094"/>
       <use xlink:href="#DejaVuSans-30" x="190.869141"/>
       <use xlink:href="#DejaVuSans-30" x="254.492188"/>
      </g>
     </g>
    </g>
    <g id="xtick_5">
     <g id="line2d_5">
      <g>
       <use xlink:href="#m94640d37ed" x="337.827439" y="307.584" style="stroke: #000000; stroke-width: 0.8"/>
      </g>
     </g>
     <g id="text_5">
      <!-- 40000 -->
      <g transform="translate(321.921189 322.182437) scale(0.1 -0.1)">
       <defs>
        <path id="DejaVuSans-34" d="M 2419 4116 
L 825 1625 
L 2419 1625 
L 2419 4116 
z
M 2253 4666 
L 3047 4666 
L 3047 1625 
L 3713 1625 
L 3713 1100 
L 3047 1100 
L 3047 0 
L 2419 0 
L 2419 1100 
L 313 1100 
L 313 1709 
L 2253 4666 
z
" transform="scale(0.015625)"/>
       </defs>
       <use xlink:href="#DejaVuSans-34"/>
       <use xlink:href="#DejaVuSans-30" x="63.623047"/>
       <use xlink:href="#DejaVuSans-30" x="127.246094"/>
       <use xlink:href="#DejaVuSans-30" x="190.869141"/>
       <use xlink:href="#DejaVuSans-30" x="254.492188"/>
      </g>
     </g>
    </g>
    <g id="xtick_6">
     <g id="line2d_6">
      <g>
       <use xlink:href="#m94640d37ed" x="403.84097" y="307.584" style="stroke: #000000; stroke-width: 0.8"/>
      </g>
     </g>
     <g id="text_6">
      <!-- 50000 -->
      <g transform="translate(387.93472 322.182437) scale(0.1 -0.1)">
       <defs>
        <path id="DejaVuSans-35" d="M 691 4666 
L 3169 4666 
L 3169 4134 
L 1269 4134 
L 1269 2991 
Q 1406 3038 1543 3061 
Q 1681 3084 1819 3084 
Q 2600 3084 3056 2656 
Q 3513 2228 3513 1497 
Q 3513 744 3044 326 
Q 2575 -91 1722 -91 
Q 1428 -91 1123 -41 
Q 819 9 494 109 
L 494 744 
Q 775 591 1075 516 
Q 1375 441 1709 441 
Q 2250 441 2565 725 
Q 2881 1009 2881 1497 
Q 2881 1984 2565 2268 
Q 2250 2553 1709 2553 
Q 1456 2553 1204 2497 
Q 953 2441 691 2322 
L 691 4666 
z
" transform="scale(0.015625)"/>
       </defs>
       <use xlink:href="#DejaVuSans-35"/>
       <use xlink:href="#DejaVuSans-30" x="63.623047"/>
       <use xlink:href="#DejaVuSans-30" x="127.246094"/>
       <use xlink:href="#DejaVuSans-30" x="190.869141"/>
       <use xlink:href="#DejaVuSans-30" x="254.492188"/>
      </g>
     </g>
    </g>
    <g id="text_7">
     <!-- timesteps -->
     <g transform="translate(211.443594 335.860562) scale(0.1 -0.1)">
      <defs>
       <path id="DejaVuSans-74" d="M 1172 4494 
L 1172 3500 
L 2356 3500 
L 2356 3053 
L 1172 3053 
L 1172 1153 
Q 1172 725 1289 603 
Q 1406 481 1766 481 
L 2356 481 
L 2356 0 
L 1766 0 
Q 1100 0 847 248 
Q 594 497 594 1153 
L 594 3053 
L 172 3053 
L 172 3500 
L 594 3500 
L 594 4494 
L 1172 4494 
z
" transform="scale(0.015625)"/>
       <path id="DejaVuSans-69" d="M 603 3500 
L 1178 3500 
L 1178 0 
L 603 0 
L 603 3500 
z
M 603 4863 
L 1178 4863 
L 1178 4134 
L 603 4134 
L 603 4863 
z
" transform="scale(0.015625)"/>
       <path id="DejaVuSans-6d" d="M 3328 2828 
Q 3544 3216 3844 3400 
Q 4144 3584 4550 3584 
Q 5097 3584 5394 3201 
Q 5691 2819 5691 2113 
L 5691 0 
L 5113 0 
L 5113 2094 
Q 5113 2597 4934 2840 
Q 4756 3084 4391 3084 
Q 3944 3084 3684 2787 
Q 3425 2491 3425 1978 
L 3425 0 
L 2847 0 
L 2847 2094 
Q 2847 2600 2669 2842 
Q 2491 3084 2119 3084 
Q 1678 3084 1418 2786 
Q 1159 2488 1159 1978 
L 1159 0 
L 581 0 
L 581 3500 
L 1159 3500 
L 1159 2956 
Q 1356 3278 1631 3431 
Q 1906 3584 2284 3584 
Q 2666 3584 2933 3390 
Q 3200 3197 3328 2828 
z
" transform="scale(0.015625)"/>
       <path id="DejaVuSans-65" d="M 3597 1894 
L 3597 1613 
L 953 1613 
Q 991 1019 1311 708 
Q 1631 397 2203 397 
Q 2534 397 2845 478 
Q 3156 559 3463 722 
L 3463 178 
Q 3153 47 2828 -22 
Q 2503 -91 2169 -91 
Q 1331 -91 842 396 
Q 353 884 353 1716 
Q 353 2575 817 3079 
Q 1281 3584 2069 3584 
Q 2775 3584 3186 3129 
Q 3597 2675 3597 1894 
z
M 3022 2063 
Q 3016 2534 2758 2815 
Q 2500 3097 2075 3097 
Q 1594 3097 1305 2825 
Q 1016 2553 972 2059 
L 3022 2063 
z
" transform="scale(0.015625)"/>
       <path id="DejaVuSans-73" d="M 2834 3397 
L 2834 2853 
Q 2591 2978 2328 3040 
Q 2066 3103 1784 3103 
Q 1356 3103 1142 2972 
Q 928 2841 928 2578 
Q 928 2378 1081 2264 
Q 1234 2150 1697 2047 
L 1894 2003 
Q 2506 1872 2764 1633 
Q 3022 1394 3022 966 
Q 3022 478 2636 193 
Q 2250 -91 1575 -91 
Q 1294 -91 989 -36 
Q 684 19 347 128 
L 347 722 
Q 666 556 975 473 
Q 1284 391 1588 391 
Q 1994 391 2212 530 
Q 2431 669 2431 922 
Q 2431 1156 2273 1281 
Q 2116 1406 1581 1522 
L 1381 1569 
Q 847 1681 609 1914 
Q 372 2147 372 2553 
Q 372 3047 722 3315 
Q 1072 3584 1716 3584 
Q 2034 3584 2315 3537 
Q 2597 3491 2834 3397 
z
" transform="scale(0.015625)"/>
       <path id="DejaVuSans-70" d="M 1159 525 
L 1159 -1331 
L 581 -1331 
L 581 3500 
L 1159 3500 
L 1159 2969 
Q 1341 3281 1617 3432 
Q 1894 3584 2278 3584 
Q 2916 3584 3314 3078 
Q 3713 2572 3713 1747 
Q 3713 922 3314 415 
Q 2916 -91 2278 -91 
Q 1894 -91 1617 61 
Q 1341 213 1159 525 
z
M 3116 1747 
Q 3116 2381 2855 2742 
Q 2594 3103 2138 3103 
Q 1681 3103 1420 2742 
Q 1159 2381 1159 1747 
Q 1159 1113 1420 752 
Q 1681 391 2138 391 
Q 2594 391 2855 752 
Q 3116 1113 3116 1747 
z
" transform="scale(0.015625)"/>
      </defs>
      <use xlink:href="#DejaVuSans-74"/>
      <use xlink:href="#DejaVuSans-69" x="39.208984"/>
      <use xlink:href="#DejaVuSans-6d" x="66.992188"/>
      <use xlink:href="#DejaVuSans-65" x="164.404297"/>
      <use xlink:href="#DejaVuSans-73" x="225.927734"/>
      <use xlink:href="#DejaVuSans-74" x="278.027344"/>
      <use xlink:href="#DejaVuSans-65" x="317.236328"/>
      <use xlink:href="#DejaVuSans-70" x="378.759766"/>
      <use xlink:href="#DejaVuSans-73" x="442.236328"/>
     </g>
    </g>
   </g>
   <g id="matplotlib.axis_2">
    <g id="ytick_1">
     <g id="line2d_7">
      <defs>
       <path id="mb234b1e433" d="M 0 0 
L -3.5 0 
" style="stroke: #000000; stroke-width: 0.8"/>
      </defs>
      <g>
       <use xlink:href="#mb234b1e433" x="57.6" y="298.636422" style="stroke: #000000; stroke-width: 0.8"/>
      </g>
     </g>
     <g id="text_8">
      <!-- 0 -->
      <g transform="translate(44.2375 302.43564) scale(0.1 -0.1)">
       <use xlink:href="#DejaVuSans-30"/>
      </g>
     </g>
    </g>
    <g id="ytick_2">
     <g id="line2d_8">
      <g>
       <use xlink:href="#mb234b1e433" x="57.6" y="260.442252" style="stroke: #000000; stroke-width: 0.8"/>
      </g>
     </g>
     <g id="text_9">
      <!-- 50 -->
      <g transform="translate(37.875 264.241471) scale(0.1 -0.1)">
       <use xlink:href="#DejaVuSans-35"/>
       <use xlink:href="#DejaVuSans-30" x="63.623047"/>
      </g>
     </g>
    </g>
    <g id="ytick_3">
     <g id="line2d_9">
      <g>
       <use xlink:href="#mb234b1e433" x="57.6" y="222.248082" style="stroke: #000000; stroke-width: 0.8"/>
      </g>
     </g>
     <g id="text_10">
      <!-- 100 -->
      <g transform="translate(31.5125 226.047301) scale(0.1 -0.1)">
       <use xlink:href="#DejaVuSans-31"/>
       <use xlink:href="#DejaVuSans-30" x="63.623047"/>
       <use xlink:href="#DejaVuSans-30" x="127.246094"/>
      </g>
     </g>
    </g>
    <g id="ytick_4">
     <g id="line2d_10">
      <g>
       <use xlink:href="#mb234b1e433" x="57.6" y="184.053912" style="stroke: #000000; stroke-width: 0.8"/>
      </g>
     </g>
     <g id="text_11">
      <!-- 150 -->
      <g transform="translate(31.5125 187.853131) scale(0.1 -0.1)">
       <use xlink:href="#DejaVuSans-31"/>
       <use xlink:href="#DejaVuSans-35" x="63.623047"/>
       <use xlink:href="#DejaVuSans-30" x="127.246094"/>
      </g>
     </g>
    </g>
    <g id="ytick_5">
     <g id="line2d_11">
      <g>
       <use xlink:href="#mb234b1e433" x="57.6" y="145.859743" style="stroke: #000000; stroke-width: 0.8"/>
      </g>
     </g>
     <g id="text_12">
      <!-- 200 -->
      <g transform="translate(31.5125 149.658961) scale(0.1 -0.1)">
       <use xlink:href="#DejaVuSans-32"/>
       <use xlink:href="#DejaVuSans-30" x="63.623047"/>
       <use xlink:href="#DejaVuSans-30" x="127.246094"/>
      </g>
     </g>
    </g>
    <g id="ytick_6">
     <g id="line2d_12">
      <g>
       <use xlink:href="#mb234b1e433" x="57.6" y="107.665573" style="stroke: #000000; stroke-width: 0.8"/>
      </g>
     </g>
     <g id="text_13">
      <!-- 250 -->
      <g transform="translate(31.5125 111.464792) scale(0.1 -0.1)">
       <use xlink:href="#DejaVuSans-32"/>
       <use xlink:href="#DejaVuSans-35" x="63.623047"/>
       <use xlink:href="#DejaVuSans-30" x="127.246094"/>
      </g>
     </g>
    </g>
    <g id="ytick_7">
     <g id="line2d_13">
      <g>
       <use xlink:href="#mb234b1e433" x="57.6" y="69.471403" style="stroke: #000000; stroke-width: 0.8"/>
      </g>
     </g>
     <g id="text_14">
      <!-- 300 -->
      <g transform="translate(31.5125 73.270622) scale(0.1 -0.1)">
       <use xlink:href="#DejaVuSans-33"/>
       <use xlink:href="#DejaVuSans-30" x="63.623047"/>
       <use xlink:href="#DejaVuSans-30" x="127.246094"/>
      </g>
     </g>
    </g>
    <g id="text_15">
     <!-- rewards -->
     <g transform="translate(25.432812 194.447531) rotate(-90) scale(0.1 -0.1)">
      <defs>
       <path id="DejaVuSans-72" d="M 2631 2963 
Q 2534 3019 2420 3045 
Q 2306 3072 2169 3072 
Q 1681 3072 1420 2755 
Q 1159 2438 1159 1844 
L 1159 0 
L 581 0 
L 581 3500 
L 1159 3500 
L 1159 2956 
Q 1341 3275 1631 3429 
Q 1922 3584 2338 3584 
Q 2397 3584 2469 3576 
Q 2541 3569 2628 3553 
L 2631 2963 
z
" transform="scale(0.015625)"/>
       <path id="DejaVuSans-77" d="M 269 3500 
L 844 3500 
L 1563 769 
L 2278 3500 
L 2956 3500 
L 3675 769 
L 4391 3500 
L 4966 3500 
L 4050 0 
L 3372 0 
L 2619 2869 
L 1863 0 
L 1184 0 
L 269 3500 
z
" transform="scale(0.015625)"/>
       <path id="DejaVuSans-61" d="M 2194 1759 
Q 1497 1759 1228 1600 
Q 959 1441 959 1056 
Q 959 750 1161 570 
Q 1363 391 1709 391 
Q 2188 391 2477 730 
Q 2766 1069 2766 1631 
L 2766 1759 
L 2194 1759 
z
M 3341 1997 
L 3341 0 
L 2766 0 
L 2766 531 
Q 2569 213 2275 61 
Q 1981 -91 1556 -91 
Q 1019 -91 701 211 
Q 384 513 384 1019 
Q 384 1609 779 1909 
Q 1175 2209 1959 2209 
L 2766 2209 
L 2766 2266 
Q 2766 2663 2505 2880 
Q 2244 3097 1772 3097 
Q 1472 3097 1187 3025 
Q 903 2953 641 2809 
L 641 3341 
Q 956 3463 1253 3523 
Q 1550 3584 1831 3584 
Q 2591 3584 2966 3190 
Q 3341 2797 3341 1997 
z
" transform="scale(0.015625)"/>
       <path id="DejaVuSans-64" d="M 2906 2969 
L 2906 4863 
L 3481 4863 
L 3481 0 
L 2906 0 
L 2906 525 
Q 2725 213 2448 61 
Q 2172 -91 1784 -91 
Q 1150 -91 751 415 
Q 353 922 353 1747 
Q 353 2572 751 3078 
Q 1150 3584 1784 3584 
Q 2172 3584 2448 3432 
Q 2725 3281 2906 2969 
z
M 947 1747 
Q 947 1113 1208 752 
Q 1469 391 1925 391 
Q 2381 391 2643 752 
Q 2906 1113 2906 1747 
Q 2906 2381 2643 2742 
Q 2381 3103 1925 3103 
Q 1469 3103 1208 2742 
Q 947 2381 947 1747 
z
" transform="scale(0.015625)"/>
      </defs>
      <use xlink:href="#DejaVuSans-72"/>
      <use xlink:href="#DejaVuSans-65" x="38.863281"/>
      <use xlink:href="#DejaVuSans-77" x="100.386719"/>
      <use xlink:href="#DejaVuSans-61" x="182.173828"/>
      <use xlink:href="#DejaVuSans-72" x="243.453125"/>
      <use xlink:href="#DejaVuSans-64" x="282.816406"/>
      <use xlink:href="#DejaVuSans-73" x="346.292969"/>
     </g>
    </g>
   </g>
   <g id="line2d_14">
    <path d="M 73.832727 293.710054 
L 73.892139 293.393117 
L 74.057173 289.745894 
L 74.142991 292.421778 
L 74.23541 290.843391 
L 74.33443 286.907534 
L 74.545673 290.975735 
L 74.763518 288.021396 
L 74.875741 285.917262 
L 74.987964 292.948422 
L 75.100187 288.296164 
L 75.219011 291.098795 
L 75.476464 280.397535 
L 75.529275 294.051904 
L 75.621694 292.144504 
L 75.793329 283.591801 
L 75.964964 284.070038 
L 76.255424 292.557004 
L 76.427059 290.004193 
L 76.519478 289.74063 
L 76.6251 289.076043 
L 76.72412 287.666689 
L 76.842944 288.577335 
L 76.96837 284.794327 
L 77.047586 290.937656 
L 77.245627 267.742655 
L 77.31164 293.205805 
L 77.569093 287.352852 
L 77.668113 291.003658 
L 77.958573 249.994244 
L 78.143411 291.621106 
L 78.361255 272.945488 
L 78.513087 284.787779 
L 78.790343 278.679241 
L 78.902566 291.453699 
L 78.988384 291.039822 
L 79.146817 277.880419 
L 79.410871 285.229582 
L 79.60231 283.29935 
L 79.780546 285.272786 
L 79.919175 283.622901 
L 80.084209 292.797844 
L 80.183229 289.706498 
L 80.249242 293.458124 
L 80.315256 292.909314 
L 80.38127 293.337375 
L 80.638722 279.776435 
L 80.777351 286.692591 
L 80.975391 287.122355 
L 81.140425 281.803044 
L 81.298858 294.378928 
L 81.378074 292.54893 
L 81.483696 295.054231 
L 81.55631 294.245541 
L 81.734547 283.616916 
L 81.820365 290.885319 
L 81.912783 290.819268 
L 82.011804 287.022409 
L 82.143831 290.187419 
L 82.262655 284.241066 
L 82.355074 293.445903 
L 82.559716 288.650495 
L 82.856777 255.09533 
L 83.107628 293.905321 
L 83.173642 292.702023 
L 83.272662 290.264957 
L 83.345277 291.789214 
L 83.530115 279.776752 
L 83.582926 294.305782 
L 83.675345 290.376285 
L 83.979007 246.537634 
L 84.170446 282.935367 
L 84.441102 266.569796 
L 84.658946 290.062236 
L 84.738163 292.005346 
L 85.002217 286.590495 
L 85.286075 254.650872 
L 85.477514 286.523718 
L 85.622744 284.22955 
L 85.933008 262.297586 
L 86.012224 294.586319 
L 86.3819 287.838947 
L 86.441312 293.658676 
L 86.62615 280.182552 
L 86.797785 292.362874 
L 87.134454 287.521434 
L 87.240075 290.146565 
L 87.45792 268.552435 
L 87.669163 284.50077 
L 87.834197 275.723754 
L 88.012434 287.560702 
L 88.329299 244.35033 
L 88.401914 291.591159 
L 88.553745 279.111014 
L 88.718779 282.174719 
L 88.989434 271.80683 
L 89.095056 289.419487 
L 89.722184 190.860648 
L 90.09186 287.740231 
L 90.223887 284.007894 
L 90.289901 292.21622 
L 90.514347 285.504298 
L 90.804806 268.940088 
L 90.989644 293.071543 
L 91.161279 283.043206 
L 91.286705 282.376611 
L 91.550759 291.590793 
L 91.781806 274.925262 
L 91.953442 291.792654 
L 92.270306 254.373534 
L 92.547563 257.378056 
L 92.62678 292.570554 
L 93.135084 229.452114 
L 93.366131 291.198363 
L 93.55757 286.833579 
L 93.656591 288.209244 
L 93.735807 291.65925 
L 93.854631 288.219932 
L 93.927246 292.119149 
L 94.171496 284.726186 
L 94.395942 289.433604 
L 94.560976 282.995257 
L 94.897645 247.084368 
L 95.141895 288.504075 
L 95.333334 272.539157 
L 95.412551 292.035583 
L 95.491767 291.275889 
L 95.670003 284.54919 
L 95.881247 290.404538 
L 95.953862 292.645217 
L 96.033078 290.710293 
L 96.158503 292.975043 
L 96.409355 287.784592 
L 96.561186 293.849048 
L 96.772429 282.812232 
L 96.858247 292.221262 
L 97.392956 276.601609 
L 97.624004 291.256592 
L 97.70322 291.720178 
L 97.94747 287.911745 
L 98.013484 293.955744 
L 98.211524 273.757897 
L 98.343551 283.29262 
L 98.640612 244.81078 
L 98.812247 292.693535 
L 98.917869 290.824271 
L 99.003687 291.504427 
L 99.16872 284.91937 
L 99.234734 292.377616 
L 99.373362 287.74137 
L 99.611011 291.814473 
L 99.921275 267.716629 
L 100.257944 272.409308 
L 100.43618 291.118884 
L 100.667228 288.993707 
L 100.799255 289.408382 
L 100.951086 281.402128 
L 101.063309 288.811695 
L 101.36037 284.714695 
L 101.789458 256.83015 
L 101.934687 286.00672 
L 102.178937 281.946419 
L 102.535411 246.273468 
L 102.693843 284.758707 
L 102.845674 279.956173 
L 102.977701 290.462726 
L 103.16914 287.094424 
L 103.426593 262.829787 
L 103.624634 292.699743 
L 103.736857 289.928265 
L 103.954701 291.585019 
L 104.027316 291.517563 
L 104.126337 288.336401 
L 104.350783 270.661107 
L 104.456404 292.142201 
L 104.548823 291.165828 
L 104.661046 286.889135 
L 104.859087 290.234856 
L 105.050526 277.009958 
L 105.268371 292.027518 
L 105.347587 290.935932 
L 105.473013 287.256764 
L 105.585236 291.170146 
L 105.822884 281.729684 
L 106.027526 292.544922 
L 106.126547 287.600587 
L 106.251972 289.945526 
L 106.370797 288.278608 
L 106.450013 292.575358 
L 106.575439 283.663964 
L 106.740472 286.735244 
L 106.984723 273.195894 
L 107.143155 281.039825 
L 107.499628 266.02213 
L 107.585446 292.953809 
L 107.737277 283.531649 
L 107.902311 291.690559 
L 107.988128 290.487762 
L 108.397412 247.402281 
L 108.635061 291.734136 
L 108.958527 240.598043 
L 109.044345 290.616198 
L 109.156568 289.318421 
L 109.301797 289.126483 
L 109.499838 291.955712 
L 109.618662 282.622495 
L 109.70448 291.80727 
L 109.902521 281.873847 
L 110.179777 285.862237 
L 110.311805 285.009855 
L 110.404223 293.203161 
L 110.516446 285.135516 
L 110.628669 292.856675 
L 110.780501 293.976395 
L 110.886122 290.088124 
L 110.991744 290.94171 
L 111.222791 280.501038 
L 111.381224 284.584301 
L 111.473643 291.100518 
L 111.585866 286.62068 
L 111.717893 289.156931 
L 112.061163 285.440023 
L 112.160183 288.257548 
L 112.298812 287.924113 
L 112.569467 277.685663 
L 112.820319 278.308543 
L 112.932542 288.11412 
L 113.229603 281.091187 
L 113.374832 280.484203 
L 113.520062 289.130959 
L 113.632285 288.304969 
L 113.896339 262.058843 
L 113.968954 291.635954 
L 114.127387 280.170838 
L 114.345231 292.58753 
L 114.497062 286.608123 
L 114.576279 290.765659 
L 114.893144 282.334895 
L 115.163799 286.360715 
L 115.289225 282.958535 
L 115.36184 292.102112 
L 115.493867 287.859744 
L 115.566482 292.013954 
L 115.718313 289.466381 
L 115.85034 283.48385 
L 116.021975 291.591035 
L 116.087988 291.947281 
L 116.259624 291.178016 
L 116.431259 279.677691 
L 116.497272 293.887038 
L 116.576489 291.899112 
L 116.72832 284.376996 
L 116.860347 285.244896 
L 117.223421 234.638255 
L 117.533685 289.806768 
L 117.764732 277.9194 
L 117.85055 289.338151 
L 118.121205 280.451635 
L 118.24003 288.142618 
L 118.352253 285.44106 
L 118.490881 288.74014 
L 118.695523 277.568197 
L 118.853955 293.523701 
L 118.933172 291.552341 
L 119.164219 276.317945 
L 119.368861 274.13832 
L 119.566902 291.633143 
L 119.685726 286.808835 
L 120.299652 224.735897 
L 120.385469 292.245181 
L 120.48449 286.829129 
L 120.58351 288.695336 
L 120.748544 285.429962 
L 120.920179 286.697708 
L 121.065409 292.938058 
L 121.157828 290.237848 
L 121.263449 290.675016 
L 121.336064 294.297238 
L 121.501098 288.274431 
L 121.593517 292.052438 
L 121.70574 287.70479 
L 122.029206 242.713313 
L 122.154632 288.453171 
L 122.313064 282.136793 
L 122.445092 289.465812 
L 122.781761 264.794887 
L 123.032612 290.821587 
L 123.177842 286.98287 
L 123.263659 291.510763 
L 123.356078 287.932656 
L 123.521112 289.099531 
L 123.587126 292.994775 
L 123.811572 271.64506 
L 124.09543 293.262643 
L 124.187849 290.288037 
L 124.280268 288.901512 
L 124.656545 281.881907 
L 124.861187 285.494022 
L 125.197856 278.740131 
L 125.376092 280.810416 
L 125.455309 291.591244 
L 125.646748 285.241999 
L 125.772173 291.138961 
L 125.917403 285.998483 
L 126.102241 290.794739 
L 126.227667 291.721845 
L 126.326687 289.024051 
L 126.405903 294.139073 
L 126.524728 284.060878 
L 126.676559 283.103504 
L 126.834991 277.389611 
L 127.250877 289.254798 
L 127.402708 278.580136 
L 127.627154 290.970676 
L 127.95062 261.394119 
L 128.062843 289.870863 
L 128.19487 292.112857 
L 128.373107 289.303091 
L 128.445721 292.007269 
L 128.53814 291.362667 
L 128.623958 293.348434 
L 128.696573 292.683579 
L 128.907816 269.929778 
L 129.165269 272.769221 
L 129.264289 292.813616 
L 129.521742 284.379552 
L 129.713181 272.452764 
L 129.818803 290.584075 
L 129.983837 285.604342 
L 130.142269 275.376443 
L 130.48554 292.434125 
L 130.703384 273.572066 
L 130.914628 273.007912 
L 131.040053 286.31761 
L 131.145675 285.966285 
L 131.469141 260.059103 
L 131.574763 288.071673 
L 131.719993 282.659597 
L 131.997249 262.332699 
L 132.09627 292.132332 
L 132.182087 290.579468 
L 132.611175 281.04119 
L 132.703594 288.871263 
L 132.954446 272.28296 
L 133.040263 292.19184 
L 133.205297 286.805305 
L 133.277912 290.792281 
L 133.46275 288.895185 
L 133.60798 286.191491 
L 133.858831 269.71984 
L 134.070074 292.568469 
L 134.241709 280.266519 
L 134.380338 284.036574 
L 134.617987 265.316735 
L 134.822629 292.6602 
L 135.047075 290.071497 
L 135.370541 289.474439 
L 135.482764 293.068328 
L 135.555379 291.884976 
L 135.661 292.056341 
L 135.819433 281.017421 
L 135.977865 283.101991 
L 136.05048 292.837767 
L 136.19571 284.579571 
L 136.387149 286.17592 
L 136.519176 282.525768 
L 136.598393 293.087274 
L 136.756825 282.683543 
L 136.842643 292.129658 
L 136.921859 290.554607 
L 137.152906 273.872454 
L 137.271731 286.499018 
L 137.41696 282.230477 
L 137.548987 286.997113 
L 137.832846 263.815727 
L 138.255332 289.043897 
L 138.393961 279.360889 
L 138.697623 291.84013 
L 138.889062 270.536266 
L 139.153116 255.746271 
L 139.225731 292.543467 
L 139.469981 288.490286 
L 139.641616 280.154664 
L 139.826454 288.898971 
L 140.235738 235.674601 
L 140.387569 286.417037 
L 140.519596 288.312993 
L 140.598813 293.049729 
L 140.724238 284.410664 
L 140.790252 293.324064 
L 140.882671 291.902473 
L 141.07411 284.575789 
L 141.179732 285.71281 
L 141.278752 292.757164 
L 141.377772 290.329246 
L 141.60882 281.253577 
L 141.813461 293.982866 
L 141.971894 284.005467 
L 142.037908 293.714504 
L 142.235948 286.982861 
L 142.400982 291.081257 
L 142.665036 289.250972 
L 142.836671 278.513658 
L 143.120529 277.012464 
L 143.232752 290.857572 
L 143.41759 272.71824 
L 143.523212 288.838495 
L 143.648638 290.024237 
L 143.714651 292.667617 
L 143.826874 292.57288 
L 144.163543 281.938536 
L 144.427597 259.932459 
L 144.526618 290.627876 
L 144.68505 290.434402 
L 144.817077 289.621736 
L 144.949104 282.327008 
L 145.081131 291.145959 
L 145.259368 272.320551 
L 145.325381 292.213672 
L 145.642246 261.641001 
L 145.695057 293.805965 
L 145.767672 291.695414 
L 146.302382 198.223789 
L 146.401402 288.4052 
L 146.520226 294.722013 
L 146.705064 287.550186 
L 147.021929 291.723213 
L 147.213368 290.979689 
L 147.431213 289.361702 
L 147.695267 257.124019 
L 148.124355 232.167154 
L 148.282788 295.488 
L 148.44122 292.503336 
L 148.876909 277.102264 
L 149.061747 274.50052 
L 149.17397 287.176042 
L 149.345605 276.729696 
L 149.741687 242.117641 
L 149.847308 291.133377 
L 149.972734 289.35481 
L 150.170775 277.423406 
L 150.2962 287.991532 
L 150.395221 287.58691 
L 150.639471 284.973331 
L 150.771498 281.387726 
L 150.883721 289.968256 
L 151.088363 279.001518 
L 151.213788 290.260952 
L 151.570261 253.694019 
L 151.834316 293.000703 
L 151.979545 291.742246 
L 152.164383 282.607583 
L 152.276606 286.103798 
L 152.44164 278.719343 
L 152.646282 293.176716 
L 152.916937 279.929408 
L 153.015958 288.219784 
L 153.167789 279.113812 
L 153.27341 287.14623 
L 153.425242 280.808901 
L 153.603478 285.680269 
L 153.742107 280.315631 
L 153.860931 286.042355 
L 154.05237 280.195826 
L 154.263613 288.30553 
L 154.481458 280.298329 
L 154.659695 285.203003 
L 154.969958 263.147499 
L 155.247215 287.570688 
L 155.511269 286.75938 
L 155.583884 293.837055 
L 155.768722 281.16507 
L 156.111992 228.437646 
L 156.204411 289.765293 
L 156.369445 282.605852 
L 156.534479 289.204702 
L 156.712715 288.991316 
L 156.910756 284.412592 
L 157.121999 266.952756 
L 157.254026 284.028191 
L 157.399256 282.534947 
L 157.610499 283.742353 
L 157.755729 286.680086 
L 157.940567 277.542956 
L 158.132006 279.219849 
L 158.336648 268.376062 
L 158.5875 264.529755 
L 158.858155 284.524246 
L 158.983581 290.162933 
L 159.168419 279.661677 
L 159.439074 245.839363 
L 159.551297 290.675139 
L 159.656919 289.136889 
L 160.033196 219.796077 
L 160.356662 274.701328 
L 160.699933 258.975209 
L 160.937581 271.789057 
L 161.544906 206.297307 
L 161.676933 285.705839 
L 162.079616 223.040756 
L 162.502102 231.488367 
L 162.660535 280.643408 
L 162.878379 285.132356 
L 162.997204 285.071855 
L 163.27446 260.999431 
L 163.677143 289.497269 
L 163.941197 248.639505 
L 164.139238 285.227438 
L 164.456103 238.12905 
L 164.838981 287.12734 
L 164.990812 280.788327 
L 165.215258 280.417424 
L 165.532123 274.363328 
L 166.132846 192.299972 
L 166.350691 289.242233 
L 166.720367 236.439936 
L 166.806184 289.731274 
L 166.944813 294.098691 
L 167.070238 286.318486 
L 167.32109 249.128955 
L 167.677563 239.595721 
L 167.849198 292.088513 
L 168.456523 184.444348 
L 168.812996 288.213195 
L 169.261888 230.886305 
L 169.459928 275.666476 
L 169.624962 284.825043 
L 169.869212 275.266259 
L 170.278496 231.913976 
L 170.601962 252.487185 
L 170.912226 241.271636 
L 171.229091 266.933366 
L 172.179686 149.726222 
L 172.483348 240.443311 
L 173.196294 203.916569 
L 173.579173 214.326436 
L 173.849828 244.715879 
L 174.074274 291.625437 
L 174.760815 222.156355 
L 175.057876 242.898119 
L 175.394545 239.047681 
L 175.777423 226.775145 
L 176.067883 271.261772 
L 176.391349 250.976236 
L 176.483768 287.976142 
L 176.820437 230.026164 
L 177.097694 245.976409 
L 177.480572 220.122558 
L 177.724822 252.046318 
L 178.483978 234.147071 
L 178.800843 290.228294 
L 179.533593 167.419962 
L 179.804249 250.722218 
L 180.233337 204.751562 
L 180.477587 253.025315 
L 180.853864 278.148724 
L 181.210337 223.596084 
L 181.547006 228.679407 
L 181.771452 255.447955 
L 182.576817 170.627684 
L 182.801263 255.450969 
L 183.606628 182.592527 
L 183.883885 246.861157 
L 184.227155 239.935894 
L 184.847682 202.147155 
L 185.131541 242.304753 
L 185.481412 227.266429 
L 185.857689 231.604584 
L 186.29998 261.160353 
L 186.801683 211.420806 
L 187.362798 249.996979 
L 187.646656 246.028322 
L 188.00973 275.497099 
L 188.359602 234.676052 
L 188.597251 253.03162 
L 188.867906 245.532386 
L 189.230981 238.843273 
L 189.838305 213.964317 
L 190.505042 208.857023 
L 190.88792 215.460145 
L 191.132171 253.299442 
L 191.32361 261.617971 
L 191.719691 236.262172 
L 191.950738 254.641058 
L 192.703293 193.136959 
L 192.868326 267.474261 
L 193.198394 230.86199 
L 193.66709 263.967283 
L 194.584678 182.714076 
L 194.78932 258.225299 
L 195.119388 237.026254 
L 195.746516 220.546555 
L 196.063381 234.164052 
L 196.452861 242.419485 
L 196.994172 218.668608 
L 197.218618 255.251348 
L 197.410057 261.527358 
L 197.845747 255.264484 
L 198.129605 243.642241 
L 198.393659 245.598943 
L 198.64451 249.057841 
L 198.862355 256.417175 
L 199.199024 240.740462 
L 199.42347 255.276053 
L 199.71393 240.021395 
L 199.95818 250.703735 
L 200.25524 240.762011 
L 201.153025 184.869992 
L 201.364268 256.489904 
L 201.56891 259.504363 
L 201.859369 243.687799 
L 202.136626 245.914072 
L 202.922187 191.714135 
L 203.239052 237.134775 
L 203.483302 250.397009 
L 203.747356 246.153271 
L 204.070823 244.929957 
L 204.282066 258.571326 
L 204.559323 251.615139 
L 204.955404 220.519001 
L 206.335087 53.568 
L 206.539729 259.617673 
L 206.982019 231.260271 
L 207.364898 247.291037 
L 207.800587 229.767712 
L 208.117452 233.445852 
L 208.652162 163.00797 
L 208.929418 242.713152 
L 209.450925 169.432435 
L 210.078054 163.350625 
L 210.665574 143.44814 
L 210.995642 231.228402 
L 211.246493 249.674708 
L 212.104669 119.652866 
L 212.381926 240.490163 
L 213.438143 164.509566 
L 213.76821 229.17199 
L 214.025663 247.26456 
L 214.316123 240.844938 
L 214.897042 147.568932 
L 215.590184 248.271107 
L 215.999468 261.817891 
L 216.237116 251.521793 
L 216.653002 207.954391 
L 216.943461 238.233587 
L 217.214117 245.958389 
L 217.748826 162.798681 
L 218.336347 144.761966 
L 218.534387 260.609613 
L 218.824847 240.667584 
L 219.022887 259.374832 
L 219.227529 259.083403 
L 219.702827 186.778173 
L 219.900867 259.414737 
L 220.098908 260.728347 
L 220.527996 254.531777 
L 220.930678 209.10624 
L 221.584212 200.756964 
L 222.039706 192.080096 
L 222.270753 252.951619 
L 222.495199 256.328009 
L 222.990301 178.054953 
L 223.274159 239.061515 
L 223.564618 237.745443 
L 224.125733 163.44579 
L 225.261166 149.852683 
L 226.277774 185.002709 
L 226.812484 162.203792 
L 227.287781 185.566501 
L 227.796086 172.975388 
L 228.291187 178.671391 
L 228.740079 201.558445 
L 229.248383 176.305453 
L 229.710478 191.090264 
L 230.179174 191.370731 
L 230.667674 188.007926 
L 231.189181 170.229762 
L 231.717289 166.126631 
L 232.245398 164.877284 
L 232.568864 228.807358 
L 232.813114 247.582439 
L 233.083769 242.430401 
L 233.301614 255.049319 
L 233.57227 241.371506 
L 233.836324 243.239746 
L 234.272013 198.313064 
L 234.542668 242.372315 
L 234.753912 256.207786 
L 235.315027 154.290724 
L 235.829932 171.912138 
L 236.410851 145.841677 
L 236.985169 149.12979 
L 237.453865 192.756668 
L 237.968771 176.632518 
L 238.477075 178.574225 
L 238.985379 176.64377 
L 239.506886 166.672105 
L 240.01519 175.667977 
L 240.292447 239.304514 
L 240.79415 175.912053 
L 241.084609 236.824696 
L 241.606116 176.848552 
L 242.107819 184.968961 
L 242.655731 156.959457 
L 243.203644 161.4543 
L 243.731752 173.668505 
L 244.279664 160.192303 
L 244.827577 159.143117 
L 245.342482 178.174416 
L 245.87059 171.437996 
L 246.431705 159.883595 
L 246.953212 173.52543 
L 247.501125 161.955086 
L 248.009429 180.937375 
L 248.524334 175.299595 
L 249.026037 179.547588 
L 249.540943 174.26234 
L 250.042646 183.113992 
L 250.564152 178.483789 
L 251.125267 154.459343 
L 251.692984 151.176982 
L 252.168281 196.998352 
L 252.656781 193.235256 
L 253.125477 199.225316 
L 253.600775 197.81104 
L 254.11568 180.759184 
L 254.637187 176.529363 
L 255.152093 179.859841 
L 255.680201 172.431839 
L 256.195107 177.258047 
L 256.74962 160.011217 
L 257.264526 181.170245 
L 257.81904 160.235913 
L 258.373553 158.325785 
L 258.921465 164.528671 
L 259.482581 156.713563 
L 260.037094 159.768592 
L 260.591608 160.418291 
L 261.146121 161.923324 
L 261.713838 161.816487 
L 262.288156 162.549296 
L 262.829467 175.394286 
L 263.364176 174.620273 
L 264.380785 189.949671 
L 264.889089 181.680725 
L 265.423798 169.020435 
L 265.932102 185.165622 
L 266.493217 159.039099 
L 267.027927 171.474632 
L 267.509826 191.633759 
L 267.734272 252.229887 
L 268.202968 198.773785 
L 268.717873 179.441248 
L 269.252583 174.074891 
L 269.754286 186.771916 
L 270.315401 164.155285 
L 270.856712 172.107357 
L 271.404624 168.437363 
L 271.945935 170.99211 
L 272.467442 176.638789 
L 272.955942 189.75925 
L 273.457645 188.318574 
L 273.985753 176.982262 
L 274.513862 175.630975 
L 275.068375 168.954222 
L 275.622889 165.965688 
L 276.184004 164.055476 
L 276.718713 174.986746 
L 277.266626 169.216852 
L 277.827741 164.769202 
L 278.369052 172.861371 
L 278.923565 161.027106 
L 279.194221 240.723859 
L 279.438471 247.475227 
L 279.689322 245.339685 
L 280.237235 158.482075 
L 280.785147 158.424853 
L 281.333059 158.000554 
L 281.87437 163.031345 
L 282.435485 154.209996 
L 282.976796 173.556718 
L 283.518107 164.879958 
L 284.079222 163.576834 
L 284.640337 161.21111 
L 285.161844 182.163866 
L 285.709756 176.843571 
L 286.290675 162.700514 
L 286.812182 180.884889 
L 287.003622 259.24751 
L 287.551534 163.944086 
L 288.106048 160.927556 
L 288.65396 161.686895 
L 289.215075 161.302531 
L 289.762987 161.720903 
L 290.330704 161.626112 
L 290.891819 164.592463 
L 292.027251 163.214646 
L 292.588366 162.548685 
L 293.156083 165.207076 
L 293.710596 166.036775 
L 294.225502 182.783704 
L 294.747009 181.780389 
L 295.294921 169.581637 
L 295.856036 160.298987 
L 296.384144 176.483927 
L 297.479969 165.911941 
L 298.041084 165.164023 
L 298.588996 166.197267 
L 299.14351 166.117907 
L 299.704625 169.062899 
L 300.259139 168.157002 
L 300.826855 166.060983 
L 301.401173 165.623209 
L 301.968889 167.321138 
L 302.530004 164.633109 
L 303.652234 163.602493 
L 304.200146 172.264992 
L 304.761261 166.102759 
L 305.295971 178.231593 
L 305.863687 167.365107 
L 306.431404 165.844063 
L 306.99912 163.807213 
L 307.982722 198.233406 
L 308.537235 171.919945 
L 309.118154 162.526716 
L 309.685871 166.136943 
L 310.26679 159.202295 
L 310.841108 161.473405 
L 311.422027 161.090134 
L 311.989743 165.763427 
L 312.570662 161.810193 
L 313.131777 167.719305 
L 313.679689 176.13015 
L 314.214399 178.832028 
L 314.762311 168.064397 
L 315.323426 164.288452 
L 315.759116 205.374967 
L 316.287224 174.862791 
L 316.795528 186.843118 
L 317.383049 150.660055 
L 317.957366 158.725525 
L 318.518481 164.939984 
L 319.072995 165.27911 
L 319.561495 190.562879 
L 320.096205 178.627338 
L 320.663921 169.777268 
L 321.159023 190.768447 
L 321.673928 184.916138 
L 322.261448 165.106862 
L 322.769753 187.380036 
L 323.34407 171.189428 
L 323.891983 179.639216 
L 324.406888 184.007208 
L 324.981206 171.698328 
L 325.542321 175.228118 
L 326.12324 168.54659 
L 326.677754 175.467825 
L 327.14645 197.716089 
L 327.681159 180.449528 
L 328.229072 176.554877 
L 328.724173 191.383412 
L 329.225876 187.338015 
L 330.321701 168.180301 
L 330.889417 170.205165 
L 331.998444 168.5683 
L 333.107472 167.030992 
L 333.655384 166.795923 
L 334.216499 168.292233 
L 334.764411 167.901842 
L 335.318925 166.295991 
L 335.873439 167.040946 
L 336.434554 168.416287 
L 336.989067 165.928036 
L 337.550182 166.048165 
L 338.111297 167.74025 
L 338.679014 167.954818 
L 339.24673 169.247637 
L 339.814446 167.39069 
L 340.382163 167.436851 
L 340.95648 165.936798 
L 341.530798 168.24135 
L 342.098515 163.752993 
L 342.653028 164.063313 
L 343.207542 162.963817 
L 343.762056 165.656812 
L 344.323171 162.659654 
L 344.890887 163.735393 
L 345.49161 158.990004 
L 346.046124 164.480179 
L 346.607239 164.844498 
L 347.161752 166.100873 
L 347.742671 163.752947 
L 348.283982 164.20609 
L 348.851699 159.673963 
L 349.445821 157.165767 
L 349.993733 164.451091 
L 350.568051 164.96714 
L 351.129166 166.379255 
L 351.696882 166.635385 
L 352.264598 166.490912 
L 352.746497 193.054277 
L 353.670687 200.336813 
L 354.139383 198.087504 
L 354.667491 181.796904 
L 355.215403 174.822656 
L 355.769917 174.870682 
L 356.918552 167.528907 
L 357.473066 173.960851 
L 358.040782 169.578742 
L 358.601897 171.43672 
L 359.163012 170.59279 
L 359.750533 163.53618 
L 360.32485 167.731733 
L 360.925574 162.604005 
L 361.513094 164.29616 
L 362.08081 165.569126 
L 362.635324 171.670797 
L 363.209642 165.610941 
L 363.73775 177.622549 
L 364.265858 182.085438 
L 364.800568 182.234373 
L 365.374886 170.969705 
L 365.922798 174.906951 
L 366.483913 174.421251 
L 367.606143 169.455925 
L 368.173859 167.406113 
L 368.734974 165.848692 
L 369.302691 166.863236 
L 369.863806 167.253519 
L 370.451326 164.589797 
L 370.999238 166.553176 
L 371.553752 166.969737 
L 372.121468 164.477338 
L 372.695786 165.524164 
L 373.256901 169.34284 
L 373.824618 165.316555 
L 374.405537 165.330038 
L 374.966652 163.763962 
L 375.554172 154.364263 
L 376.141692 151.50054 
L 376.735814 151.10229 
L 377.329936 157.228642 
L 377.917456 156.250902 
L 378.498376 160.095099 
L 379.085896 153.658656 
L 379.653612 167.585297 
L 380.822052 149.812564 
L 381.389768 166.12094 
L 381.990491 152.176218 
L 382.604417 143.32051 
L 383.218343 146.824986 
L 383.812465 161.810789 
L 384.426391 155.87378 
L 385.046918 152.240086 
L 385.660844 150.100151 
L 386.287972 140.912834 
L 386.849087 164.153054 
L 387.416804 164.993425 
L 388.043932 156.428344 
L 388.624851 163.964787 
L 389.199169 151.210845 
L 389.786689 158.651222 
L 391.021142 131.034752 
L 391.64167 143.435711 
L 392.895927 132.438594 
L 393.556062 131.91486 
L 394.189792 144.284737 
L 394.836724 131.199537 
L 395.483657 141.029479 
L 396.137191 130.163115 
L 396.751117 154.4853 
L 397.365043 144.850836 
L 397.926158 166.287925 
L 398.487273 168.98716 
L 398.487273 168.98716 
" clip-path="url(#p3e9579b2ce)" style="fill: none; stroke: #1f77b4; stroke-width: 1.5; stroke-linecap: square"/>
   </g>
   <g id="patch_3">
    <path d="M 57.6 307.584 
L 57.6 41.472 
" style="fill: none; stroke: #000000; stroke-width: 0.8; stroke-linejoin: miter; stroke-linecap: square"/>
   </g>
   <g id="patch_4">
    <path d="M 414.72 307.584 
L 414.72 41.472 
" style="fill: none; stroke: #000000; stroke-width: 0.8; stroke-linejoin: miter; stroke-linecap: square"/>
   </g>
   <g id="patch_5">
    <path d="M 57.6 307.584 
L 414.72 307.584 
" style="fill: none; stroke: #000000; stroke-width: 0.8; stroke-linejoin: miter; stroke-linecap: square"/>
   </g>
   <g id="patch_6">
    <path d="M 57.6 41.472 
L 414.72 41.472 
" style="fill: none; stroke: #000000; stroke-width: 0.8; stroke-linejoin: miter; stroke-linecap: square"/>
   </g>
   <g id="text_16">
    <!-- learning curve -->
    <g transform="translate(192.96375 35.472) scale(0.12 -0.12)">
     <defs>
      <path id="DejaVuSans-6c" d="M 603 4863 
L 1178 4863 
L 1178 0 
L 603 0 
L 603 4863 
z
" transform="scale(0.015625)"/>
      <path id="DejaVuSans-6e" d="M 3513 2113 
L 3513 0 
L 2938 0 
L 2938 2094 
Q 2938 2591 2744 2837 
Q 2550 3084 2163 3084 
Q 1697 3084 1428 2787 
Q 1159 2491 1159 1978 
L 1159 0 
L 581 0 
L 581 3500 
L 1159 3500 
L 1159 2956 
Q 1366 3272 1645 3428 
Q 1925 3584 2291 3584 
Q 2894 3584 3203 3211 
Q 3513 2838 3513 2113 
z
" transform="scale(0.015625)"/>
      <path id="DejaVuSans-67" d="M 2906 1791 
Q 2906 2416 2648 2759 
Q 2391 3103 1925 3103 
Q 1463 3103 1205 2759 
Q 947 2416 947 1791 
Q 947 1169 1205 825 
Q 1463 481 1925 481 
Q 2391 481 2648 825 
Q 2906 1169 2906 1791 
z
M 3481 434 
Q 3481 -459 3084 -895 
Q 2688 -1331 1869 -1331 
Q 1566 -1331 1297 -1286 
Q 1028 -1241 775 -1147 
L 775 -588 
Q 1028 -725 1275 -790 
Q 1522 -856 1778 -856 
Q 2344 -856 2625 -561 
Q 2906 -266 2906 331 
L 2906 616 
Q 2728 306 2450 153 
Q 2172 0 1784 0 
Q 1141 0 747 490 
Q 353 981 353 1791 
Q 353 2603 747 3093 
Q 1141 3584 1784 3584 
Q 2172 3584 2450 3431 
Q 2728 3278 2906 2969 
L 2906 3500 
L 3481 3500 
L 3481 434 
z
" transform="scale(0.015625)"/>
      <path id="DejaVuSans-20" transform="scale(0.015625)"/>
      <path id="DejaVuSans-63" d="M 3122 3366 
L 3122 2828 
Q 2878 2963 2633 3030 
Q 2388 3097 2138 3097 
Q 1578 3097 1268 2742 
Q 959 2388 959 1747 
Q 959 1106 1268 751 
Q 1578 397 2138 397 
Q 2388 397 2633 464 
Q 2878 531 3122 666 
L 3122 134 
Q 2881 22 2623 -34 
Q 2366 -91 2075 -91 
Q 1284 -91 818 406 
Q 353 903 353 1747 
Q 353 2603 823 3093 
Q 1294 3584 2113 3584 
Q 2378 3584 2631 3529 
Q 2884 3475 3122 3366 
z
" transform="scale(0.015625)"/>
      <path id="DejaVuSans-75" d="M 544 1381 
L 544 3500 
L 1119 3500 
L 1119 1403 
Q 1119 906 1312 657 
Q 1506 409 1894 409 
Q 2359 409 2629 706 
Q 2900 1003 2900 1516 
L 2900 3500 
L 3475 3500 
L 3475 0 
L 2900 0 
L 2900 538 
Q 2691 219 2414 64 
Q 2138 -91 1772 -91 
Q 1169 -91 856 284 
Q 544 659 544 1381 
z
M 1991 3584 
L 1991 3584 
z
" transform="scale(0.015625)"/>
      <path id="DejaVuSans-76" d="M 191 3500 
L 800 3500 
L 1894 563 
L 2988 3500 
L 3597 3500 
L 2284 0 
L 1503 0 
L 191 3500 
z
" transform="scale(0.015625)"/>
     </defs>
     <use xlink:href="#DejaVuSans-6c"/>
     <use xlink:href="#DejaVuSans-65" x="27.783203"/>
     <use xlink:href="#DejaVuSans-61" x="89.306641"/>
     <use xlink:href="#DejaVuSans-72" x="150.585938"/>
     <use xlink:href="#DejaVuSans-6e" x="189.949219"/>
     <use xlink:href="#DejaVuSans-69" x="253.328125"/>
     <use xlink:href="#DejaVuSans-6e" x="281.111328"/>
     <use xlink:href="#DejaVuSans-67" x="344.490234"/>
     <use xlink:href="#DejaVuSans-20" x="407.966797"/>
     <use xlink:href="#DejaVuSans-63" x="439.753906"/>
     <use xlink:href="#DejaVuSans-75" x="494.734375"/>
     <use xlink:href="#DejaVuSans-72" x="558.113281"/>
     <use xlink:href="#DejaVuSans-76" x="599.226562"/>
     <use xlink:href="#DejaVuSans-65" x="658.40625"/>
    </g>
   </g>
  </g>
 </g>
 <defs>
  <clipPath id="p3e9579b2ce">
   <rect x="57.6" y="41.472" width="357.12" height="266.112"/>
  </clipPath>
 </defs>
</svg>
