<?xml version="1.0" encoding="utf-8" standalone="no"?>
<!DOCTYPE svg PUBLIC "-//W3C//DTD SVG 1.1//EN"
  "http://www.w3.org/Graphics/SVG/1.1/DTD/svg11.dtd">
<svg xmlns:xlink="http://www.w3.org/1999/xlink" width="460.8pt" height="345.6pt" viewBox="0 0 460.8 345.6" xmlns="http://www.w3.org/2000/svg" version="1.1">
 <metadata>
  <rdf:RDF xmlns:dc="http://purl.org/dc/elements/1.1/" xmlns:cc="http://creativecommons.org/ns#" xmlns:rdf="http://www.w3.org/1999/02/22-rdf-syntax-ns#">
   <cc:Work>
    <dc:type rdf:resource="http://purl.org/dc/dcmitype/StillImage"/>
    <dc:date>2023-08-18T21:39:00.543018</dc:date>
    <dc:format>image/svg+xml</dc:format>
    <dc:creator>
     <cc:Agent>
      <dc:title>Matplotlib v3.7.1, https://matplotlib.org/</dc:title>
     </cc:Agent>
    </dc:creator>
   </cc:Work>
  </rdf:RDF>
 </metadata>
 <defs>
  <style type="text/css">*{stroke-linejoin: round; stroke-linecap: butt}</style>
 </defs>
 <g id="figure_1">
  <g id="patch_1">
   <path d="M 0 345.6 
L 460.8 345.6 
L 460.8 0 
L 0 0 
z
" style="fill: #ffffff"/>
  </g>
  <g id="axes_1">
   <g id="patch_2">
    <path d="M 57.6 307.584 
L 414.72 307.584 
L 414.72 41.472 
L 57.6 41.472 
z
" style="fill: #ffffff"/>
   </g>
   <g id="matplotlib.axis_1">
    <g id="xtick_1">
     <g id="line2d_1">
      <defs>
       <path id="mcdc550fdd4" d="M 0 0 
L 0 3.5 
" style="stroke: #000000; stroke-width: 0.8"/>
      </defs>
      <g>
       <use xlink:href="#mcdc550fdd4" x="73.748295" y="307.584" style="stroke: #000000; stroke-width: 0.8"/>
      </g>
     </g>
     <g id="text_1">
      <!-- 0 -->
      <g transform="translate(70.567045 322.182437) scale(0.1 -0.1)">
       <defs>
        <path id="DejaVuSans-30" d="M 2034 4250 
Q 1547 4250 1301 3770 
Q 1056 3291 1056 2328 
Q 1056 1369 1301 889 
Q 1547 409 2034 409 
Q 2525 409 2770 889 
Q 3016 1369 3016 2328 
Q 3016 3291 2770 3770 
Q 2525 4250 2034 4250 
z
M 2034 4750 
Q 2819 4750 3233 4129 
Q 3647 3509 3647 2328 
Q 3647 1150 3233 529 
Q 2819 -91 2034 -91 
Q 1250 -91 836 529 
Q 422 1150 422 2328 
Q 422 3509 836 4129 
Q 1250 4750 2034 4750 
z
" transform="scale(0.015625)"/>
       </defs>
       <use xlink:href="#DejaVuSans-30"/>
      </g>
     </g>
    </g>
    <g id="xtick_2">
     <g id="line2d_2">
      <g>
       <use xlink:href="#mcdc550fdd4" x="138.696091" y="307.584" style="stroke: #000000; stroke-width: 0.8"/>
      </g>
     </g>
     <g id="text_2">
      <!-- 10000 -->
      <g transform="translate(122.789841 322.182437) scale(0.1 -0.1)">
       <defs>
        <path id="DejaVuSans-31" d="M 794 531 
L 1825 531 
L 1825 4091 
L 703 3866 
L 703 4441 
L 1819 4666 
L 2450 4666 
L 2450 531 
L 3481 531 
L 3481 0 
L 794 0 
L 794 531 
z
" transform="scale(0.015625)"/>
       </defs>
       <use xlink:href="#DejaVuSans-31"/>
       <use xlink:href="#DejaVuSans-30" x="63.623047"/>
       <use xlink:href="#DejaVuSans-30" x="127.246094"/>
       <use xlink:href="#DejaVuSans-30" x="190.869141"/>
       <use xlink:href="#DejaVuSans-30" x="254.492188"/>
      </g>
     </g>
    </g>
    <g id="xtick_3">
     <g id="line2d_3">
      <g>
       <use xlink:href="#mcdc550fdd4" x="203.643886" y="307.584" style="stroke: #000000; stroke-width: 0.8"/>
      </g>
     </g>
     <g id="text_3">
      <!-- 20000 -->
      <g transform="translate(187.737636 322.182437) scale(0.1 -0.1)">
       <defs>
        <path id="DejaVuSans-32" d="M 1228 531 
L 3431 531 
L 3431 0 
L 469 0 
L 469 531 
Q 828 903 1448 1529 
Q 2069 2156 2228 2338 
Q 2531 2678 2651 2914 
Q 2772 3150 2772 3378 
Q 2772 3750 2511 3984 
Q 2250 4219 1831 4219 
Q 1534 4219 1204 4116 
Q 875 4013 500 3803 
L 500 4441 
Q 881 4594 1212 4672 
Q 1544 4750 1819 4750 
Q 2544 4750 2975 4387 
Q 3406 4025 3406 3419 
Q 3406 3131 3298 2873 
Q 3191 2616 2906 2266 
Q 2828 2175 2409 1742 
Q 1991 1309 1228 531 
z
" transform="scale(0.015625)"/>
       </defs>
       <use xlink:href="#DejaVuSans-32"/>
       <use xlink:href="#DejaVuSans-30" x="63.623047"/>
       <use xlink:href="#DejaVuSans-30" x="127.246094"/>
       <use xlink:href="#DejaVuSans-30" x="190.869141"/>
       <use xlink:href="#DejaVuSans-30" x="254.492188"/>
      </g>
     </g>
    </g>
    <g id="xtick_4">
     <g id="line2d_4">
      <g>
       <use xlink:href="#mcdc550fdd4" x="268.591682" y="307.584" style="stroke: #000000; stroke-width: 0.8"/>
      </g>
     </g>
     <g id="text_4">
      <!-- 30000 -->
      <g transform="translate(252.685432 322.182437) scale(0.1 -0.1)">
       <defs>
        <path id="DejaVuSans-33" d="M 2597 2516 
Q 3050 2419 3304 2112 
Q 3559 1806 3559 1356 
Q 3559 666 3084 287 
Q 2609 -91 1734 -91 
Q 1441 -91 1130 -33 
Q 819 25 488 141 
L 488 750 
Q 750 597 1062 519 
Q 1375 441 1716 441 
Q 2309 441 2620 675 
Q 2931 909 2931 1356 
Q 2931 1769 2642 2001 
Q 2353 2234 1838 2234 
L 1294 2234 
L 1294 2753 
L 1863 2753 
Q 2328 2753 2575 2939 
Q 2822 3125 2822 3475 
Q 2822 3834 2567 4026 
Q 2313 4219 1838 4219 
Q 1578 4219 1281 4162 
Q 984 4106 628 3988 
L 628 4550 
Q 988 4650 1302 4700 
Q 1616 4750 1894 4750 
Q 2613 4750 3031 4423 
Q 3450 4097 3450 3541 
Q 3450 3153 3228 2886 
Q 3006 2619 2597 2516 
z
" transform="scale(0.015625)"/>
       </defs>
       <use xlink:href="#DejaVuSans-33"/>
       <use xlink:href="#DejaVuSans-30" x="63.623047"/>
       <use xlink:href="#DejaVuSans-30" x="127.246094"/>
       <use xlink:href="#DejaVuSans-30" x="190.869141"/>
       <use xlink:href="#DejaVuSans-30" x="254.492188"/>
      </g>
     </g>
    </g>
    <g id="xtick_5">
     <g id="line2d_5">
      <g>
       <use xlink:href="#mcdc550fdd4" x="333.539477" y="307.584" style="stroke: #000000; stroke-width: 0.8"/>
      </g>
     </g>
     <g id="text_5">
      <!-- 40000 -->
      <g transform="translate(317.633227 322.182437) scale(0.1 -0.1)">
       <defs>
        <path id="DejaVuSans-34" d="M 2419 4116 
L 825 1625 
L 2419 1625 
L 2419 4116 
z
M 2253 4666 
L 3047 4666 
L 3047 1625 
L 3713 1625 
L 3713 1100 
L 3047 1100 
L 3047 0 
L 2419 0 
L 2419 1100 
L 313 1100 
L 313 1709 
L 2253 4666 
z
" transform="scale(0.015625)"/>
       </defs>
       <use xlink:href="#DejaVuSans-34"/>
       <use xlink:href="#DejaVuSans-30" x="63.623047"/>
       <use xlink:href="#DejaVuSans-30" x="127.246094"/>
       <use xlink:href="#DejaVuSans-30" x="190.869141"/>
       <use xlink:href="#DejaVuSans-30" x="254.492188"/>
      </g>
     </g>
    </g>
    <g id="xtick_6">
     <g id="line2d_6">
      <g>
       <use xlink:href="#mcdc550fdd4" x="398.487273" y="307.584" style="stroke: #000000; stroke-width: 0.8"/>
      </g>
     </g>
     <g id="text_6">
      <!-- 50000 -->
      <g transform="translate(382.581023 322.182437) scale(0.1 -0.1)">
       <defs>
        <path id="DejaVuSans-35" d="M 691 4666 
L 3169 4666 
L 3169 4134 
L 1269 4134 
L 1269 2991 
Q 1406 3038 1543 3061 
Q 1681 3084 1819 3084 
Q 2600 3084 3056 2656 
Q 3513 2228 3513 1497 
Q 3513 744 3044 326 
Q 2575 -91 1722 -91 
Q 1428 -91 1123 -41 
Q 819 9 494 109 
L 494 744 
Q 775 591 1075 516 
Q 1375 441 1709 441 
Q 2250 441 2565 725 
Q 2881 1009 2881 1497 
Q 2881 1984 2565 2268 
Q 2250 2553 1709 2553 
Q 1456 2553 1204 2497 
Q 953 2441 691 2322 
L 691 4666 
z
" transform="scale(0.015625)"/>
       </defs>
       <use xlink:href="#DejaVuSans-35"/>
       <use xlink:href="#DejaVuSans-30" x="63.623047"/>
       <use xlink:href="#DejaVuSans-30" x="127.246094"/>
       <use xlink:href="#DejaVuSans-30" x="190.869141"/>
       <use xlink:href="#DejaVuSans-30" x="254.492188"/>
      </g>
     </g>
    </g>
    <g id="text_7">
     <!-- timesteps -->
     <g transform="translate(211.443594 335.860562) scale(0.1 -0.1)">
      <defs>
       <path id="DejaVuSans-74" d="M 1172 4494 
L 1172 3500 
L 2356 3500 
L 2356 3053 
L 1172 3053 
L 1172 1153 
Q 1172 725 1289 603 
Q 1406 481 1766 481 
L 2356 481 
L 2356 0 
L 1766 0 
Q 1100 0 847 248 
Q 594 497 594 1153 
L 594 3053 
L 172 3053 
L 172 3500 
L 594 3500 
L 594 4494 
L 1172 4494 
z
" transform="scale(0.015625)"/>
       <path id="DejaVuSans-69" d="M 603 3500 
L 1178 3500 
L 1178 0 
L 603 0 
L 603 3500 
z
M 603 4863 
L 1178 4863 
L 1178 4134 
L 603 4134 
L 603 4863 
z
" transform="scale(0.015625)"/>
       <path id="DejaVuSans-6d" d="M 3328 2828 
Q 3544 3216 3844 3400 
Q 4144 3584 4550 3584 
Q 5097 3584 5394 3201 
Q 5691 2819 5691 2113 
L 5691 0 
L 5113 0 
L 5113 2094 
Q 5113 2597 4934 2840 
Q 4756 3084 4391 3084 
Q 3944 3084 3684 2787 
Q 3425 2491 3425 1978 
L 3425 0 
L 2847 0 
L 2847 2094 
Q 2847 2600 2669 2842 
Q 2491 3084 2119 3084 
Q 1678 3084 1418 2786 
Q 1159 2488 1159 1978 
L 1159 0 
L 581 0 
L 581 3500 
L 1159 3500 
L 1159 2956 
Q 1356 3278 1631 3431 
Q 1906 3584 2284 3584 
Q 2666 3584 2933 3390 
Q 3200 3197 3328 2828 
z
" transform="scale(0.015625)"/>
       <path id="DejaVuSans-65" d="M 3597 1894 
L 3597 1613 
L 953 1613 
Q 991 1019 1311 708 
Q 1631 397 2203 397 
Q 2534 397 2845 478 
Q 3156 559 3463 722 
L 3463 178 
Q 3153 47 2828 -22 
Q 2503 -91 2169 -91 
Q 1331 -91 842 396 
Q 353 884 353 1716 
Q 353 2575 817 3079 
Q 1281 3584 2069 3584 
Q 2775 3584 3186 3129 
Q 3597 2675 3597 1894 
z
M 3022 2063 
Q 3016 2534 2758 2815 
Q 2500 3097 2075 3097 
Q 1594 3097 1305 2825 
Q 1016 2553 972 2059 
L 3022 2063 
z
" transform="scale(0.015625)"/>
       <path id="DejaVuSans-73" d="M 2834 3397 
L 2834 2853 
Q 2591 2978 2328 3040 
Q 2066 3103 1784 3103 
Q 1356 3103 1142 2972 
Q 928 2841 928 2578 
Q 928 2378 1081 2264 
Q 1234 2150 1697 2047 
L 1894 2003 
Q 2506 1872 2764 1633 
Q 3022 1394 3022 966 
Q 3022 478 2636 193 
Q 2250 -91 1575 -91 
Q 1294 -91 989 -36 
Q 684 19 347 128 
L 347 722 
Q 666 556 975 473 
Q 1284 391 1588 391 
Q 1994 391 2212 530 
Q 2431 669 2431 922 
Q 2431 1156 2273 1281 
Q 2116 1406 1581 1522 
L 1381 1569 
Q 847 1681 609 1914 
Q 372 2147 372 2553 
Q 372 3047 722 3315 
Q 1072 3584 1716 3584 
Q 2034 3584 2315 3537 
Q 2597 3491 2834 3397 
z
" transform="scale(0.015625)"/>
       <path id="DejaVuSans-70" d="M 1159 525 
L 1159 -1331 
L 581 -1331 
L 581 3500 
L 1159 3500 
L 1159 2969 
Q 1341 3281 1617 3432 
Q 1894 3584 2278 3584 
Q 2916 3584 3314 3078 
Q 3713 2572 3713 1747 
Q 3713 922 3314 415 
Q 2916 -91 2278 -91 
Q 1894 -91 1617 61 
Q 1341 213 1159 525 
z
M 3116 1747 
Q 3116 2381 2855 2742 
Q 2594 3103 2138 3103 
Q 1681 3103 1420 2742 
Q 1159 2381 1159 1747 
Q 1159 1113 1420 752 
Q 1681 391 2138 391 
Q 2594 391 2855 752 
Q 3116 1113 3116 1747 
z
" transform="scale(0.015625)"/>
      </defs>
      <use xlink:href="#DejaVuSans-74"/>
      <use xlink:href="#DejaVuSans-69" x="39.208984"/>
      <use xlink:href="#DejaVuSans-6d" x="66.992188"/>
      <use xlink:href="#DejaVuSans-65" x="164.404297"/>
      <use xlink:href="#DejaVuSans-73" x="225.927734"/>
      <use xlink:href="#DejaVuSans-74" x="278.027344"/>
      <use xlink:href="#DejaVuSans-65" x="317.236328"/>
      <use xlink:href="#DejaVuSans-70" x="378.759766"/>
      <use xlink:href="#DejaVuSans-73" x="442.236328"/>
     </g>
    </g>
   </g>
   <g id="matplotlib.axis_2">
    <g id="ytick_1">
     <g id="line2d_7">
      <defs>
       <path id="m6b91ac811f" d="M 0 0 
L -3.5 0 
" style="stroke: #000000; stroke-width: 0.8"/>
      </defs>
      <g>
       <use xlink:href="#m6b91ac811f" x="57.6" y="295.116523" style="stroke: #000000; stroke-width: 0.8"/>
      </g>
     </g>
     <g id="text_8">
      <!-- 0 -->
      <g transform="translate(44.2375 298.915742) scale(0.1 -0.1)">
       <use xlink:href="#DejaVuSans-30"/>
      </g>
     </g>
    </g>
    <g id="ytick_2">
     <g id="line2d_8">
      <g>
       <use xlink:href="#m6b91ac811f" x="57.6" y="259.341931" style="stroke: #000000; stroke-width: 0.8"/>
      </g>
     </g>
     <g id="text_9">
      <!-- 200 -->
      <g transform="translate(31.5125 263.14115) scale(0.1 -0.1)">
       <use xlink:href="#DejaVuSans-32"/>
       <use xlink:href="#DejaVuSans-30" x="63.623047"/>
       <use xlink:href="#DejaVuSans-30" x="127.246094"/>
      </g>
     </g>
    </g>
    <g id="ytick_3">
     <g id="line2d_9">
      <g>
       <use xlink:href="#m6b91ac811f" x="57.6" y="223.567339" style="stroke: #000000; stroke-width: 0.8"/>
      </g>
     </g>
     <g id="text_10">
      <!-- 400 -->
      <g transform="translate(31.5125 227.366558) scale(0.1 -0.1)">
       <use xlink:href="#DejaVuSans-34"/>
       <use xlink:href="#DejaVuSans-30" x="63.623047"/>
       <use xlink:href="#DejaVuSans-30" x="127.246094"/>
      </g>
     </g>
    </g>
    <g id="ytick_4">
     <g id="line2d_10">
      <g>
       <use xlink:href="#m6b91ac811f" x="57.6" y="187.792747" style="stroke: #000000; stroke-width: 0.8"/>
      </g>
     </g>
     <g id="text_11">
      <!-- 600 -->
      <g transform="translate(31.5125 191.591966) scale(0.1 -0.1)">
       <defs>
        <path id="DejaVuSans-36" d="M 2113 2584 
Q 1688 2584 1439 2293 
Q 1191 2003 1191 1497 
Q 1191 994 1439 701 
Q 1688 409 2113 409 
Q 2538 409 2786 701 
Q 3034 994 3034 1497 
Q 3034 2003 2786 2293 
Q 2538 2584 2113 2584 
z
M 3366 4563 
L 3366 3988 
Q 3128 4100 2886 4159 
Q 2644 4219 2406 4219 
Q 1781 4219 1451 3797 
Q 1122 3375 1075 2522 
Q 1259 2794 1537 2939 
Q 1816 3084 2150 3084 
Q 2853 3084 3261 2657 
Q 3669 2231 3669 1497 
Q 3669 778 3244 343 
Q 2819 -91 2113 -91 
Q 1303 -91 875 529 
Q 447 1150 447 2328 
Q 447 3434 972 4092 
Q 1497 4750 2381 4750 
Q 2619 4750 2861 4703 
Q 3103 4656 3366 4563 
z
" transform="scale(0.015625)"/>
       </defs>
       <use xlink:href="#DejaVuSans-36"/>
       <use xlink:href="#DejaVuSans-30" x="63.623047"/>
       <use xlink:href="#DejaVuSans-30" x="127.246094"/>
      </g>
     </g>
    </g>
    <g id="ytick_5">
     <g id="line2d_11">
      <g>
       <use xlink:href="#m6b91ac811f" x="57.6" y="152.018155" style="stroke: #000000; stroke-width: 0.8"/>
      </g>
     </g>
     <g id="text_12">
      <!-- 800 -->
      <g transform="translate(31.5125 155.817373) scale(0.1 -0.1)">
       <defs>
        <path id="DejaVuSans-38" d="M 2034 2216 
Q 1584 2216 1326 1975 
Q 1069 1734 1069 1313 
Q 1069 891 1326 650 
Q 1584 409 2034 409 
Q 2484 409 2743 651 
Q 3003 894 3003 1313 
Q 3003 1734 2745 1975 
Q 2488 2216 2034 2216 
z
M 1403 2484 
Q 997 2584 770 2862 
Q 544 3141 544 3541 
Q 544 4100 942 4425 
Q 1341 4750 2034 4750 
Q 2731 4750 3128 4425 
Q 3525 4100 3525 3541 
Q 3525 3141 3298 2862 
Q 3072 2584 2669 2484 
Q 3125 2378 3379 2068 
Q 3634 1759 3634 1313 
Q 3634 634 3220 271 
Q 2806 -91 2034 -91 
Q 1263 -91 848 271 
Q 434 634 434 1313 
Q 434 1759 690 2068 
Q 947 2378 1403 2484 
z
M 1172 3481 
Q 1172 3119 1398 2916 
Q 1625 2713 2034 2713 
Q 2441 2713 2670 2916 
Q 2900 3119 2900 3481 
Q 2900 3844 2670 4047 
Q 2441 4250 2034 4250 
Q 1625 4250 1398 4047 
Q 1172 3844 1172 3481 
z
" transform="scale(0.015625)"/>
       </defs>
       <use xlink:href="#DejaVuSans-38"/>
       <use xlink:href="#DejaVuSans-30" x="63.623047"/>
       <use xlink:href="#DejaVuSans-30" x="127.246094"/>
      </g>
     </g>
    </g>
    <g id="ytick_6">
     <g id="line2d_12">
      <g>
       <use xlink:href="#m6b91ac811f" x="57.6" y="116.243563" style="stroke: #000000; stroke-width: 0.8"/>
      </g>
     </g>
     <g id="text_13">
      <!-- 1000 -->
      <g transform="translate(25.15 120.042781) scale(0.1 -0.1)">
       <use xlink:href="#DejaVuSans-31"/>
       <use xlink:href="#DejaVuSans-30" x="63.623047"/>
       <use xlink:href="#DejaVuSans-30" x="127.246094"/>
       <use xlink:href="#DejaVuSans-30" x="190.869141"/>
      </g>
     </g>
    </g>
    <g id="ytick_7">
     <g id="line2d_13">
      <g>
       <use xlink:href="#m6b91ac811f" x="57.6" y="80.468971" style="stroke: #000000; stroke-width: 0.8"/>
      </g>
     </g>
     <g id="text_14">
      <!-- 1200 -->
      <g transform="translate(25.15 84.268189) scale(0.1 -0.1)">
       <use xlink:href="#DejaVuSans-31"/>
       <use xlink:href="#DejaVuSans-32" x="63.623047"/>
       <use xlink:href="#DejaVuSans-30" x="127.246094"/>
       <use xlink:href="#DejaVuSans-30" x="190.869141"/>
      </g>
     </g>
    </g>
    <g id="ytick_8">
     <g id="line2d_14">
      <g>
       <use xlink:href="#m6b91ac811f" x="57.6" y="44.694378" style="stroke: #000000; stroke-width: 0.8"/>
      </g>
     </g>
     <g id="text_15">
      <!-- 1400 -->
      <g transform="translate(25.15 48.493597) scale(0.1 -0.1)">
       <use xlink:href="#DejaVuSans-31"/>
       <use xlink:href="#DejaVuSans-34" x="63.623047"/>
       <use xlink:href="#DejaVuSans-30" x="127.246094"/>
       <use xlink:href="#DejaVuSans-30" x="190.869141"/>
      </g>
     </g>
    </g>
    <g id="text_16">
     <!-- mean episode rewards -->
     <g transform="translate(19.070312 231.360031) rotate(-90) scale(0.1 -0.1)">
      <defs>
       <path id="DejaVuSans-61" d="M 2194 1759 
Q 1497 1759 1228 1600 
Q 959 1441 959 1056 
Q 959 750 1161 570 
Q 1363 391 1709 391 
Q 2188 391 2477 730 
Q 2766 1069 2766 1631 
L 2766 1759 
L 2194 1759 
z
M 3341 1997 
L 3341 0 
L 2766 0 
L 2766 531 
Q 2569 213 2275 61 
Q 1981 -91 1556 -91 
Q 1019 -91 701 211 
Q 384 513 384 1019 
Q 384 1609 779 1909 
Q 1175 2209 1959 2209 
L 2766 2209 
L 2766 2266 
Q 2766 2663 2505 2880 
Q 2244 3097 1772 3097 
Q 1472 3097 1187 3025 
Q 903 2953 641 2809 
L 641 3341 
Q 956 3463 1253 3523 
Q 1550 3584 1831 3584 
Q 2591 3584 2966 3190 
Q 3341 2797 3341 1997 
z
" transform="scale(0.015625)"/>
       <path id="DejaVuSans-6e" d="M 3513 2113 
L 3513 0 
L 2938 0 
L 2938 2094 
Q 2938 2591 2744 2837 
Q 2550 3084 2163 3084 
Q 1697 3084 1428 2787 
Q 1159 2491 1159 1978 
L 1159 0 
L 581 0 
L 581 3500 
L 1159 3500 
L 1159 2956 
Q 1366 3272 1645 3428 
Q 1925 3584 2291 3584 
Q 2894 3584 3203 3211 
Q 3513 2838 3513 2113 
z
" transform="scale(0.015625)"/>
       <path id="DejaVuSans-20" transform="scale(0.015625)"/>
       <path id="DejaVuSans-6f" d="M 1959 3097 
Q 1497 3097 1228 2736 
Q 959 2375 959 1747 
Q 959 1119 1226 758 
Q 1494 397 1959 397 
Q 2419 397 2687 759 
Q 2956 1122 2956 1747 
Q 2956 2369 2687 2733 
Q 2419 3097 1959 3097 
z
M 1959 3584 
Q 2709 3584 3137 3096 
Q 3566 2609 3566 1747 
Q 3566 888 3137 398 
Q 2709 -91 1959 -91 
Q 1206 -91 779 398 
Q 353 888 353 1747 
Q 353 2609 779 3096 
Q 1206 3584 1959 3584 
z
" transform="scale(0.015625)"/>
       <path id="DejaVuSans-64" d="M 2906 2969 
L 2906 4863 
L 3481 4863 
L 3481 0 
L 2906 0 
L 2906 525 
Q 2725 213 2448 61 
Q 2172 -91 1784 -91 
Q 1150 -91 751 415 
Q 353 922 353 1747 
Q 353 2572 751 3078 
Q 1150 3584 1784 3584 
Q 2172 3584 2448 3432 
Q 2725 3281 2906 2969 
z
M 947 1747 
Q 947 1113 1208 752 
Q 1469 391 1925 391 
Q 2381 391 2643 752 
Q 2906 1113 2906 1747 
Q 2906 2381 2643 2742 
Q 2381 3103 1925 3103 
Q 1469 3103 1208 2742 
Q 947 2381 947 1747 
z
" transform="scale(0.015625)"/>
       <path id="DejaVuSans-72" d="M 2631 2963 
Q 2534 3019 2420 3045 
Q 2306 3072 2169 3072 
Q 1681 3072 1420 2755 
Q 1159 2438 1159 1844 
L 1159 0 
L 581 0 
L 581 3500 
L 1159 3500 
L 1159 2956 
Q 1341 3275 1631 3429 
Q 1922 3584 2338 3584 
Q 2397 3584 2469 3576 
Q 2541 3569 2628 3553 
L 2631 2963 
z
" transform="scale(0.015625)"/>
       <path id="DejaVuSans-77" d="M 269 3500 
L 844 3500 
L 1563 769 
L 2278 3500 
L 2956 3500 
L 3675 769 
L 4391 3500 
L 4966 3500 
L 4050 0 
L 3372 0 
L 2619 2869 
L 1863 0 
L 1184 0 
L 269 3500 
z
" transform="scale(0.015625)"/>
      </defs>
      <use xlink:href="#DejaVuSans-6d"/>
      <use xlink:href="#DejaVuSans-65" x="97.412109"/>
      <use xlink:href="#DejaVuSans-61" x="158.935547"/>
      <use xlink:href="#DejaVuSans-6e" x="220.214844"/>
      <use xlink:href="#DejaVuSans-20" x="283.59375"/>
      <use xlink:href="#DejaVuSans-65" x="315.380859"/>
      <use xlink:href="#DejaVuSans-70" x="376.904297"/>
      <use xlink:href="#DejaVuSans-69" x="440.380859"/>
      <use xlink:href="#DejaVuSans-73" x="468.164062"/>
      <use xlink:href="#DejaVuSans-6f" x="520.263672"/>
      <use xlink:href="#DejaVuSans-64" x="581.445312"/>
      <use xlink:href="#DejaVuSans-65" x="644.921875"/>
      <use xlink:href="#DejaVuSans-20" x="706.445312"/>
      <use xlink:href="#DejaVuSans-72" x="738.232422"/>
      <use xlink:href="#DejaVuSans-65" x="777.095703"/>
      <use xlink:href="#DejaVuSans-77" x="838.619141"/>
      <use xlink:href="#DejaVuSans-61" x="920.40625"/>
      <use xlink:href="#DejaVuSans-72" x="981.685547"/>
      <use xlink:href="#DejaVuSans-64" x="1021.048828"/>
      <use xlink:href="#DejaVuSans-73" x="1084.525391"/>
     </g>
    </g>
   </g>
   <g id="line2d_15">
    <path d="M 73.832727 294.678907 
L 73.949633 293.380881 
L 74.105508 293.968952 
L 74.345815 293.121174 
L 74.462721 293.273027 
L 74.729007 286.565899 
L 74.845913 291.858945 
L 75.001788 291.631666 
L 75.22261 289.391005 
L 75.586318 279.658701 
L 75.735698 290.528235 
L 75.872088 291.007239 
L 75.95652 293.437882 
L 76.053942 292.023279 
L 76.125384 293.584444 
L 76.25528 293.924775 
L 76.55404 293.080044 
L 76.664451 293.68807 
L 76.826821 291.818144 
L 76.891768 294.125232 
L 77.190528 289.779131 
L 77.385372 293.697134 
L 77.469804 293.054454 
L 77.567226 293.08013 
L 77.658152 293.465224 
L 77.775058 293.062003 
L 77.898459 293.198393 
L 78.015365 291.969524 
L 78.138766 294.051856 
L 78.262167 293.253521 
L 78.47 289.123826 
L 78.547937 293.324715 
L 78.710307 291.311439 
L 78.781749 293.769557 
L 78.885666 292.324347 
L 79.022056 292.530727 
L 79.184426 294.076957 
L 79.366279 293.911594 
L 79.483185 293.232075 
L 79.65205 293.191596 
L 79.768956 294.49733 
L 79.911841 292.438285 
L 79.989778 294.145599 
L 80.152148 290.950557 
L 80.210601 293.928553 
L 80.314517 293.151112 
L 80.509361 289.6302 
L 80.606782 293.142064 
L 80.730183 291.317476 
L 80.892553 293.273808 
L 81.054922 293.371728 
L 81.139354 293.664174 
L 81.262755 291.739724 
L 81.353682 292.874045 
L 81.490072 292.803928 
L 81.600484 292.198572 
L 81.723884 292.564841 
L 82.009655 289.20242 
L 82.172024 293.194829 
L 82.308415 291.421456 
L 82.373362 293.597638 
L 82.496763 293.702705 
L 82.626659 291.10736 
L 82.88645 289.955463 
L 82.970882 294.143556 
L 83.289126 290.619303 
L 83.516444 293.326385 
L 83.63335 292.83711 
L 83.730771 293.546254 
L 83.880151 292.871775 
L 83.977573 293.507496 
L 84.100974 292.16037 
L 84.295817 294.132305 
L 84.477671 292.239959 
L 84.627051 293.510384 
L 84.724473 293.357744 
L 84.899832 290.951286 
L 85.068696 290.84633 
L 85.289518 292.866484 
L 85.497351 289.559337 
L 85.594773 293.978051 
L 85.659721 293.766878 
L 85.893533 288.285144 
L 85.98446 292.962236 
L 86.159819 289.289514 
L 86.354662 289.080155 
L 86.523527 294.123355 
L 86.646927 292.696741 
L 86.828781 288.898054 
L 87.043109 293.416843 
L 87.147025 293.502488 
L 87.218468 293.993523 
L 87.413311 290.545774 
L 87.549702 293.827147 
L 87.73805 288.26397 
L 88.03681 293.609259 
L 88.218664 288.650155 
L 88.32258 293.121726 
L 88.718762 275.838209 
L 88.900616 293.949489 
L 88.985048 293.839642 
L 89.576073 262.524447 
L 89.65401 293.305373 
L 89.770916 294.044969 
L 89.913801 291.168103 
L 89.998234 293.045169 
L 90.141119 293.483348 
L 90.55029 282.122462 
L 90.816576 294.148263 
L 91.056883 290.638837 
L 91.167294 293.428481 
L 91.42059 294.303874 
L 91.738834 292.155936 
L 91.803782 293.956138 
L 92.0311 292.31215 
L 92.096047 293.77583 
L 92.238933 292.555475 
L 92.336354 293.668635 
L 92.511713 292.933711 
L 92.661093 292.898758 
L 92.933874 293.993163 
L 93.011811 293.706906 
L 93.109233 293.530092 
L 93.226139 294.158302 
L 93.420982 291.196818 
L 93.823659 289.932876 
L 93.93407 292.384438 
L 94.115924 291.364318 
L 94.206851 293.639657 
L 94.356231 290.786311 
L 94.551074 294.199436 
L 94.609527 294.091541 
L 94.68097 293.842282 
L 94.752412 293.877642 
L 94.810865 293.965631 
L 95.362921 288.133615 
L 95.473333 292.642681 
L 95.674671 294.368877 
L 95.85003 292.897843 
L 95.953946 293.084759 
L 96.064358 292.999898 
L 96.304665 291.24398 
L 96.44755 291.567078 
L 96.512497 294.110049 
L 96.590435 293.712555 
L 96.752804 290.415199 
L 96.850226 292.53749 
L 97.03208 293.166548 
L 97.174965 290.601331 
L 97.337334 293.42008 
L 97.441251 292.757402 
L 97.525683 293.054177 
L 97.6296 292.676529 
L 97.817948 292.573367 
L 97.889391 294.158387 
L 98.116708 285.06378 
L 98.395984 292.369992 
L 98.551858 294.074409 
L 98.623301 293.481392 
L 98.694743 293.953611 
L 98.883092 292.297562 
L 98.980514 292.847439 
L 99.266284 288.185637 
L 99.3702 292.847454 
L 99.623497 294.160193 
L 100.110605 289.131714 
L 100.182048 293.79411 
L 100.376891 291.52683 
L 100.571735 290.598337 
L 100.805547 293.795093 
L 100.941937 290.423822 
L 101.156265 293.785799 
L 101.519973 289.998293 
L 101.753785 289.382646 
L 101.909659 293.961952 
L 102.020071 294.2749 
L 102.123987 293.744476 
L 102.253883 291.678052 
L 102.338315 294.057623 
L 102.708517 287.511935 
L 102.818928 293.377768 
L 102.987793 292.026175 
L 103.3515 287.391997 
L 103.507375 293.607388 
L 103.624281 293.388269 
L 103.695724 293.647778 
L 103.79964 292.232688 
L 103.890567 293.584628 
L 104.08541 293.809805 
L 104.254275 291.630242 
L 104.38417 291.724277 
L 104.604993 293.704565 
L 104.69592 293.99809 
L 104.806331 292.357881 
L 104.988185 292.979978 
L 105.098596 292.892979 
L 105.189523 293.762266 
L 105.442819 291.867441 
L 105.533746 292.755113 
L 105.754569 290.317092 
L 105.929928 293.945747 
L 106.040339 292.226272 
L 106.144256 293.262208 
L 106.365078 290.731511 
L 106.475489 293.65595 
L 106.670333 294.061743 
L 106.774249 292.299049 
L 106.943113 291.65489 
L 107.254863 291.384665 
L 107.462696 289.711025 
L 107.553623 293.491857 
L 107.683518 291.878462 
L 108.008257 290.097131 
L 108.118669 293.907304 
L 108.410934 288.834715 
L 108.631756 287.210993 
L 108.898042 293.738882 
L 108.969485 293.516041 
L 109.053917 294.308095 
L 109.352677 292.84108 
L 109.54752 294.062529 
L 109.677416 291.731449 
L 110.398336 266.887373 
L 110.482768 293.809346 
L 110.554211 293.606265 
L 110.775033 292.145301 
L 110.956887 293.526035 
L 111.093278 291.320182 
L 111.301111 294.11827 
L 111.61286 293.166898 
L 111.729766 294.265931 
L 111.859662 292.151547 
L 112.04801 293.078315 
L 112.203885 291.676333 
L 112.327286 291.999536 
L 112.385739 293.854392 
L 112.50914 292.024208 
L 112.587077 293.669828 
L 112.859858 286.124088 
L 113.035217 293.542141 
L 113.372945 278.488594 
L 113.535315 289.935255 
L 113.749642 290.056292 
L 113.873043 292.787183 
L 114.236751 294.532453 
L 114.288709 294.331227 
L 114.535511 291.37068 
L 114.808291 291.402433 
L 114.866744 294.17955 
L 115.107051 286.569948 
L 115.184989 294.049723 
L 115.633128 274.979465 
L 115.964362 293.054967 
L 116.094258 292.086139 
L 116.412502 288.360127 
L 116.490439 293.290915 
L 116.76322 287.324563 
L 116.860642 293.451662 
L 116.958063 293.0969 
L 117.07497 293.265953 
L 117.432182 286.379485 
L 117.685479 293.727442 
L 118.308978 286.655645 
L 118.549284 293.566098 
L 118.640211 293.495765 
L 118.861034 289.757878 
L 118.990929 293.84654 
L 119.237731 289.014603 
L 119.309174 293.636337 
L 119.42608 293.560143 
L 119.504017 293.776233 
L 119.614428 293.343969 
L 119.913188 286.471448 
L 119.991126 293.754031 
L 120.075558 293.292793 
L 120.263906 290.477772 
L 120.400297 291.889189 
L 121.205649 271.130974 
L 121.47843 289.934127 
L 121.6408 290.750333 
L 121.77719 292.794219 
L 121.868117 292.643401 
L 122.004507 291.420203 
L 122.095434 293.81629 
L 122.218835 291.353646 
L 122.37471 292.925565 
L 122.491616 292.155783 
L 122.569553 293.694565 
L 122.712438 292.167378 
L 122.835839 294.003618 
L 122.965735 291.409203 
L 123.147588 293.897603 
L 123.219031 294.06274 
L 123.335937 293.303341 
L 123.478822 290.012882 
L 123.712634 293.367934 
L 123.900983 292.94448 
L 124.076342 293.907368 
L 124.199743 293.130239 
L 124.258196 294.171081 
L 124.472523 289.355066 
L 124.550461 293.280824 
L 124.647882 292.709559 
L 124.855715 293.599984 
L 125.199939 293.511435 
L 125.32334 291.750064 
L 125.394782 293.761452 
L 125.531173 292.332366 
L 125.654573 292.721289 
L 125.810448 292.638368 
L 126.011786 291.326085 
L 126.102713 293.374165 
L 126.589822 274.262727 
L 126.680748 293.870274 
L 126.836623 293.391758 
L 126.973014 293.833735 
L 127.096414 293.586425 
L 127.310742 291.296435 
L 127.538059 293.304692 
L 127.67445 292.665086 
L 127.745892 293.712229 
L 127.895272 292.404204 
L 127.966715 293.886461 
L 128.148569 291.002818 
L 128.25898 293.267144 
L 128.39537 292.905993 
L 128.635677 291.467893 
L 128.746088 292.320664 
L 128.921447 290.897963 
L 129.090312 291.142746 
L 129.311134 293.689615 
L 129.389072 293.225689 
L 129.460514 293.914868 
L 129.583915 291.883212 
L 129.73979 294.019541 
L 129.934633 293.271999 
L 130.17494 284.070813 
L 130.402257 293.125826 
L 130.564627 289.587342 
L 130.707512 290.931778 
L 130.798439 294.017756 
L 130.980293 289.659822 
L 131.084209 293.124911 
L 131.402453 285.153482 
L 131.577812 293.417161 
L 131.65575 293.87121 
L 131.77915 291.290134 
L 131.94152 293.794173 
L 132.038942 293.307026 
L 132.129869 293.328087 
L 132.24028 292.964291 
L 132.363681 291.019341 
L 132.584503 293.480396 
L 132.707904 292.248282 
L 132.766357 294.306049 
L 132.857284 292.899201 
L 133.12357 292.674005 
L 133.480783 293.262244 
L 133.584699 292.434717 
L 133.773048 289.844196 
L 133.870469 293.300702 
L 134.130261 283.111541 
L 134.331599 289.100478 
L 134.519947 289.658178 
L 134.610874 293.750897 
L 134.72778 291.774156 
L 134.825202 293.967195 
L 135.013551 291.988278 
L 135.143446 294.079972 
L 135.266847 294.523377 
L 135.47468 293.653831 
L 135.539628 294.152827 
L 135.61107 293.49618 
L 135.676018 293.762677 
L 135.734471 294.296307 
L 136.000757 283.058688 
L 136.234569 294.186105 
L 136.34498 292.369068 
L 136.461886 292.398477 
L 136.591782 292.02096 
L 136.734667 292.274271 
L 136.916521 289.216154 
L 137.10487 293.036672 
L 137.163323 293.854193 
L 137.325692 290.008167 
L 137.514041 294.026587 
L 137.968675 270.689758 
L 138.059602 293.537001 
L 138.157024 293.273204 
L 138.26094 292.90053 
L 138.371352 293.26647 
L 138.540216 289.175263 
L 138.702585 292.506771 
L 138.832481 291.779374 
L 138.955882 293.308294 
L 139.085777 292.300425 
L 139.29361 292.294227 
L 139.696287 287.601837 
L 140.48865 273.752681 
L 140.657514 286.997926 
L 140.91081 284.076216 
L 141.105654 285.929446 
L 141.287508 286.379887 
L 141.462867 286.426239 
L 141.612247 287.481189 
L 141.768121 287.346814 
L 141.95647 285.535447 
L 142.10585 287.571686 
L 142.320178 283.804861 
L 142.495537 286.124765 
L 142.677391 285.839418 
L 143.008624 286.63545 
L 143.255426 281.686493 
L 143.73604 268.774455 
L 144.249127 266.838667 
L 144.775204 265.807572 
L 145.327261 263.918024 
L 145.931275 259.145362 
L 146.411889 268.832396 
L 146.95745 263.732453 
L 147.613423 253.361983 
L 148.210943 258.797814 
L 148.847431 254.491177 
L 149.418972 261.693525 
L 150.081439 251.141767 
L 150.854318 244.284044 
L 151.438848 262.783727 
L 152.244201 238.838126 
L 153.198933 230.070125 
L 154.017276 239.554175 
L 155.114893 198.484179 
L 155.93973 236.849434 
L 156.037152 292.589548 
L 156.868484 241.14682 
L 157.810227 226.646154 
L 158.206408 292.860705 
L 159.031245 236.119426 
L 159.862577 229.202089 
L 160.791331 232.197239 
L 161.726579 227.133571 
L 162.538426 244.454611 
L 163.499654 231.846276 
L 164.259543 244.311394 
L 165.253244 241.181208 
L 166.143029 231.640121 
L 167.162709 218.111072 
L 168.357749 208.156751 
L 169.461861 219.000872 
L 170.624427 203.383511 
L 171.585654 234.252548 
L 172.904095 197.898633 
L 173.592541 250.960582 
L 175.001908 173.659473 
L 175.729324 248.029663 
L 176.541171 239.505919 
L 177.255597 245.781401 
L 177.963528 247.019019 
L 178.671459 247.434576 
L 179.782066 209.722387 
L 180.477008 248.156582 
L 181.256381 238.451769 
L 182.01627 245.091334 
L 182.828118 234.889014 
L 183.022961 285.561422 
L 183.79584 239.835279 
L 184.36738 263.935317 
L 185.12727 239.53173 
L 185.867675 241.713942 
L 186.575606 249.338825 
L 187.770645 191.312488 
L 188.972179 184.420463 
L 189.53073 262.128985 
L 190.504947 216.941635 
L 191.550607 207.101999 
L 192.388433 233.034202 
L 193.219765 234.134451 
L 194.018623 237.572986 
L 194.84346 227.091251 
L 196.577566 236.141355 
L 198.116829 241.357303 
L 198.220745 290.909573 
L 199.019603 238.421611 
L 199.623618 260.027961 
L 200.682267 210.044199 
L 201.578546 224.328477 
L 202.403383 229.504699 
L 203.124304 245.924975 
L 203.82574 245.029231 
L 204.540166 259.711083 
L 205.384487 234.744747 
L 206.105408 242.886735 
L 206.780865 247.66339 
L 207.742092 215.887457 
L 208.476002 243.979345 
L 209.157954 247.574055 
L 209.995781 232.89717 
L 210.89206 221.92572 
L 211.63896 237.476085 
L 212.37287 238.52865 
L 213.113275 236.905324 
L 213.782237 245.532378 
L 214.516147 238.468764 
L 215.289026 237.719027 
L 216.022936 240.623614 
L 216.477571 272.15311 
L 216.990658 272.079034 
L 217.529725 261.753758 
L 218.289614 241.23103 
L 218.594869 281.828674 
L 219.328779 241.108284 
L 219.595065 284.390292 
L 220.33547 238.298809 
L 220.718662 279.196605 
L 221.225254 266.328688 
L 221.64092 274.296385 
L 222.439778 239.915308 
L 222.933381 268.005972 
L 224.414191 232.056755 
L 225.128617 242.51818 
L 225.739126 264.020294 
L 225.953454 293.192256 
L 226.05737 292.518694 
L 226.382109 288.675735 
L 226.583448 287.363634 
L 226.700354 292.010792 
L 227.921372 245.449659 
L 229.122906 227.147913 
L 231.012887 237.94456 
L 231.701334 261.28547 
L 233.104206 193.985428 
L 233.747189 261.143864 
L 234.747385 225.811893 
L 236.013867 206.40584 
L 237.25437 206.964625 
L 238.533842 195.946789 
L 239.806819 222.015841 
L 241.079796 209.371194 
L 242.067002 228.410975 
L 242.813902 258.163385 
L 244.268732 186.546659 
L 245.372845 221.579706 
L 246.652316 197.181716 
L 247.892819 200.094535 
L 249.315176 174.906504 
L 250.581658 183.185563 
L 251.841645 184.899917 
L 252.74442 232.042573 
L 254.108323 175.114883 
L 255.277384 189.185716 
L 256.608813 185.409883 
L 258.011686 173.18406 
L 258.953429 227.200607 
L 259.3626 274.730706 
L 260.836915 175.045649 
L 261.337013 266.166687 
L 261.979996 248.760542 
L 262.655453 244.697206 
L 263.662144 204.96854 
L 264.259664 254.961359 
L 264.759762 266.080587 
L 265.376766 251.66562 
L 265.850885 269.957291 
L 266.558816 242.843238 
L 267.019945 272.731634 
L 267.481074 271.916704 
L 268.266943 235.30187 
L 268.734567 270.514185 
L 269.202191 270.751799 
L 269.624352 274.251647 
L 270.351767 241.370654 
L 271.13114 235.871721 
L 271.696186 255.742023 
L 272.280716 255.001629 
L 272.748341 268.879026 
L 273.248439 266.195211 
L 273.904411 248.240193 
L 274.398015 267.305481 
L 274.872134 268.816679 
L 275.534601 247.864919 
L 275.99573 269.795608 
L 276.45686 269.232377 
L 277.125822 247.46113 
L 277.918185 235.297737 
L 278.437767 263.452828 
L 279.54188 199.563725 
L 280.691456 201.900272 
L 281.334439 260.556695 
L 282.587932 204.596987 
L 283.627096 205.191322 
L 284.906568 197.020774 
L 285.965217 203.520173 
L 286.777064 233.964057 
L 288.290348 241.0185 
L 289.297039 207.177733 
L 289.498377 285.422565 
L 290.245277 241.434815 
L 291.420832 188.536567 
L 292.343091 218.730918 
L 292.9536 256.307655 
L 294.791622 210.13666 
L 295.804808 211.805948 
L 296.824488 206.597025 
L 297.948085 194.075774 
L 299.097661 190.609329 
L 300.188784 198.743246 
L 301.494235 178.62644 
L 303.215351 147.928681 
L 304.618224 178.246261 
L 306.144497 172.045442 
L 307.696749 158.773982 
L 308.859315 192.331595 
L 310.457031 148.007648 
L 310.6194 294.319147 
L 310.755791 294.830449 
L 310.976613 292.860217 
L 311.50269 262.66496 
L 312.782162 174.460889 
L 312.97051 294.216054 
L 313.249786 292.688586 
L 313.503082 293.834841 
L 314.022665 293.211865 
L 314.327919 291.975533 
L 314.581216 293.73512 
L 315.113788 293.375331 
L 315.412547 292.248785 
L 315.698318 292.69515 
L 316.003572 292.040865 
L 316.302332 292.414876 
L 316.581608 292.553931 
L 316.854389 293.180945 
L 317.26356 290.489625 
L 317.620773 291.242867 
L 317.919532 292.591827 
L 318.250766 291.548364 
L 318.523547 293.346568 
L 318.958697 288.566238 
L 319.354879 288.797276 
L 319.816008 288.448711 
L 320.296622 288.592011 
L 320.803215 287.214632 
L 321.043521 292.690122 
L 321.465682 290.39423 
L 321.803411 292.082152 
L 322.173613 291.144662 
L 322.615258 288.273157 
L 323.121851 286.713468 
L 323.511538 290.025311 
L 325.641825 213.294151 
L 327.096656 233.116829 
L 330.006317 124.332727 
L 332.13011 136.567598 
L 333.305665 189.796028 
L 334.968329 159.824631 
L 337.514282 139.469852 
L 338.111802 258.610055 
L 339.014576 221.923141 
L 340.177142 189.466905 
L 341.248781 201.28859 
L 342.463304 180.468982 
L 343.716797 181.118868 
L 344.989774 182.949259 
L 346.334193 176.017517 
L 347.301915 212.434223 
L 348.282627 206.976779 
L 349.776426 161.218763 
L 350.874044 193.191975 
L 352.400317 164.771019 
L 353.809684 167.418159 
L 354.641016 229.049769 
L 355.732139 194.022075 
L 356.894704 189.810712 
L 358.693758 148.143284 
L 360.440854 176.782835 
L 362.369804 131.790502 
L 363.22062 243.769026 
L 364.597513 169.294347 
L 365.610699 204.121699 
L 366.6044 213.300319 
L 367.968304 173.110258 
L 369.929727 126.938015 
L 371.059819 210.150829 
L 372.696503 145.954739 
L 375.047613 85.048633 
L 376.762235 142.821065 
L 378.639226 133.144109 
L 381.886616 53.568 
L 384.555971 156.078158 
L 387.173367 139.318574 
L 388.939947 239.460754 
L 391.433942 148.427655 
L 392.388675 236.491207 
L 395.096998 155.32273 
L 396.558323 193.257275 
L 397.402645 260.188433 
L 397.402645 260.188433 
" clip-path="url(#p893d665f26)" style="fill: none; stroke: #1f77b4; stroke-width: 1.5; stroke-linecap: square"/>
   </g>
   <g id="line2d_16">
    <path d="M 76.995685 291.285555 
L 80.243075 291.291471 
L 83.490464 291.28983 
L 86.737854 291.293066 
L 89.985244 291.283876 
L 93.232634 291.289399 
L 96.480024 291.289007 
L 99.727413 291.288108 
L 102.974803 291.270045 
L 106.222193 291.282385 
L 109.469583 291.283848 
L 112.716972 291.289245 
L 115.964362 291.274587 
L 119.211752 291.277078 
L 122.459142 291.283568 
L 125.706532 291.298156 
L 128.953921 291.282441 
L 132.201311 291.2754 
L 135.448701 291.279 
L 138.696091 291.281132 
L 141.94348 287.859641 
L 145.19087 263.870527 
L 148.43826 248.722361 
L 151.68565 239.022048 
L 154.93304 208.700757 
L 158.180429 233.884603 
L 161.427819 236.750328 
L 164.675209 229.719875 
L 167.922599 236.811408 
L 171.169988 202.532114 
L 174.417378 231.41216 
L 177.664768 268.013907 
L 180.912158 241.202386 
L 184.159548 214.211432 
L 187.406937 235.181421 
L 190.654327 200.406758 
L 193.901717 212.692847 
L 197.149107 245.15417 
L 200.396496 250.089553 
L 203.643886 248.516081 
L 206.891276 235.88026 
L 210.138666 237.490343 
L 213.386056 233.047059 
L 216.633445 286.798933 
L 219.880835 258.085941 
L 223.128225 252.310518 
L 226.375615 287.463778 
L 229.623004 222.519956 
L 232.870394 263.386431 
L 236.117784 216.675653 
L 239.365174 176.180062 
L 242.612563 201.158709 
L 245.859953 188.859408 
L 249.107343 191.464973 
L 252.354733 233.674263 
L 255.602123 189.564933 
L 258.849512 191.086093 
L 262.096902 216.208633 
L 265.344292 272.855172 
L 268.591682 248.993346 
L 271.839071 229.580732 
L 275.086461 266.538852 
L 278.333851 239.124195 
L 281.581241 249.405797 
L 284.828631 188.651097 
L 288.07602 219.55646 
L 291.32341 223.95291 
L 294.5708 230.552837 
L 297.81819 185.648143 
L 301.065579 177.412998 
L 304.312969 206.19863 
L 307.560359 178.225893 
L 310.807749 176.59655 
L 314.055139 292.359892 
L 317.302528 291.743236 
L 320.549918 290.200013 
L 323.797308 276.662061 
L 327.044698 210.498025 
L 330.292087 236.054786 
L 333.539477 173.150785 
L 336.786867 172.987058 
L 340.034257 245.412481 
L 343.281647 208.657272 
L 346.529036 201.555537 
L 349.776426 206.606098 
L 353.023816 205.531399 
L 356.271206 167.09543 
L 359.518595 160.755073 
L 362.765985 158.891362 
L 366.013375 169.423594 
L 369.260765 172.474133 
L 372.508155 189.964991 
L 375.755544 139.660286 
L 379.002934 109.583684 
L 382.250324 202.636644 
L 385.497714 199.956482 
L 388.745103 198.693568 
L 391.992493 201.273352 
L 395.239883 181.496973 
L 398.487273 197.452638 
" clip-path="url(#p893d665f26)" style="fill: none; stroke: #ff7f0e; stroke-width: 1.5; stroke-linecap: square"/>
   </g>
   <g id="line2d_17">
    <path d="M 73.89118 290.337318 
L 74.092518 288.608716 
L 74.209424 293.030218 
L 74.391278 293.034485 
L 74.586122 291.772963 
L 74.690038 292.751574 
L 74.832923 291.729189 
L 75.268074 278.719756 
L 75.352506 293.427265 
L 75.482401 292.298422 
L 75.612297 292.380846 
L 75.696729 293.74319 
L 75.800645 293.393177 
L 75.878583 293.601361 
L 75.988994 292.847489 
L 76.073426 293.629044 
L 76.365691 291.089442 
L 76.657956 287.524682 
L 76.794347 293.105092 
L 76.969706 292.546959 
L 77.177539 293.814827 
L 77.27496 292.491429 
L 77.463309 293.244235 
L 77.625679 292.19291 
L 77.794543 293.079295 
L 78.080313 286.112403 
L 78.15825 293.270024 
L 78.33361 293.231389 
L 78.75577 288.000693 
L 78.885666 293.933749 
L 79.05453 292.398351 
L 79.242879 288.569313 
L 79.359785 293.059736 
L 79.463701 292.802923 
L 79.535144 293.912936 
L 79.65205 292.878114 
L 79.755966 293.313053 
L 79.970294 290.643306 
L 80.054726 293.309756 
L 80.204106 290.251539 
L 80.366476 293.581906 
L 80.775647 285.535592 
L 80.97049 293.386825 
L 81.080901 293.76951 
L 81.197807 291.516595 
L 81.301724 292.608114 
L 81.425125 291.573607 
L 81.561515 291.675176 
L 81.736874 293.616228 
L 81.801822 293.964207 
L 81.99017 292.72852 
L 82.094087 292.827001 
L 82.159035 293.769459 
L 82.269446 292.430775 
L 82.464289 292.168244 
L 82.646143 292.238403 
L 82.802018 292.716027 
L 82.879955 293.969799 
L 83.17222 290.612624 
L 83.380053 294.065898 
L 83.522938 291.123144 
L 83.685308 291.293222 
L 84.100974 293.78629 
L 84.211385 293.393049 
L 84.581587 289.627445 
L 84.763441 288.977264 
L 84.990759 294.166245 
L 85.172612 291.172444 
L 85.438898 290.440239 
L 85.497351 294.232359 
L 86.068892 271.023573 
L 86.224767 294.08276 
L 86.315694 293.354138 
L 86.380641 293.586953 
L 86.504042 294.166736 
L 86.653422 292.372082 
L 86.731359 293.235042 
L 87.010635 292.478274 
L 87.192489 288.976776 
L 87.257437 293.556281 
L 87.393827 293.116901 
L 87.504238 293.988441 
L 87.790009 289.709644 
L 87.939388 291.182223 
L 88.010831 293.608598 
L 88.296601 290.567916 
L 88.491445 293.264875 
L 88.673299 293.439422 
L 88.803194 292.652185 
L 89.037006 286.680881 
L 89.192881 290.601733 
L 89.452672 288.242991 
L 89.524115 293.85122 
L 89.602052 293.147996 
L 89.881328 287.237619 
L 89.95277 293.995082 
L 90.10215 291.012729 
L 90.296993 292.363265 
L 90.439879 292.275472 
L 90.602248 289.972608 
L 90.69967 293.250255 
L 90.875029 293.433543 
L 90.939977 293.76359 
L 91.017914 293.209649 
L 91.082862 293.65644 
L 91.238736 293.11411 
L 91.401106 290.276597 
L 91.556981 292.694657 
L 91.894709 280.741939 
L 92.063573 293.750256 
L 92.160995 292.959128 
L 92.232438 293.728578 
L 92.329859 292.456324 
L 92.394807 293.701257 
L 92.46625 293.439853 
L 92.576661 292.523018 
L 92.777999 289.003046 
L 92.868926 293.391243 
L 93.304076 289.140678 
L 93.622321 292.910444 
L 93.823659 293.000537 
L 94.063966 286.966428 
L 94.375715 292.693615 
L 94.538084 292.8012 
L 94.745917 291.69645 
L 95.031688 292.127222 
L 95.213542 290.76037 
L 95.310963 292.883185 
L 95.466838 291.853308 
L 95.570754 293.049401 
L 95.765598 293.232669 
L 95.869514 293.062185 
L 96.122811 286.068225 
L 96.415076 293.548021 
L 97.025585 266.723191 
L 97.097028 293.285667 
L 97.252902 290.654435 
L 97.655579 291.503285 
L 97.837432 291.026386 
L 97.954339 292.14011 
L 98.110213 290.279718 
L 98.20114 293.202242 
L 98.408973 290.976357 
L 98.51289 293.130743 
L 98.662269 293.00937 
L 99.071441 281.588241 
L 99.207831 292.378201 
L 99.344221 291.483273 
L 99.461127 293.329979 
L 99.610507 292.463512 
L 99.694939 293.769918 
L 99.811845 292.67077 
L 100.071637 293.95304 
L 100.240501 293.028082 
L 100.584724 288.341339 
L 100.766578 293.07204 
L 100.974411 290.783479 
L 101.032864 294.028206 
L 101.227707 289.388521 
L 101.403066 288.974667 
L 101.506983 292.279519 
L 101.649868 291.502513 
L 101.786258 291.826931 
L 101.877185 292.747162 
L 102.007081 292.661526 
L 102.162956 292.357055 
L 102.351304 292.383454 
L 102.546148 293.615461 
L 102.981298 290.777099 
L 103.21511 286.34905 
L 103.325521 293.034395 
L 103.51387 289.943117 
L 103.630776 293.147746 
L 103.845104 292.238488 
L 104.091905 292.52864 
L 104.312728 292.404493 
L 104.390665 293.208018 
L 104.481592 293.069003 
L 104.566024 293.837188 
L 104.637467 293.754081 
L 104.747878 292.93421 
L 104.812826 293.851582 
L 105.098596 288.076949 
L 105.293439 289.080553 
L 105.403851 293.185113 
L 105.7156 292.169212 
L 105.813022 293.136067 
L 105.981886 292.54641 
L 106.085803 293.690644 
L 106.228688 293.284672 
L 106.30013 293.869532 
L 106.637859 288.022692 
L 106.878166 288.407036 
L 107.060019 290.690308 
L 107.131462 293.960203 
L 107.274347 291.086454 
L 107.3328 294.02388 
L 107.547128 292.561628 
L 107.677024 293.079361 
L 107.871867 292.402333 
L 108.027742 293.493349 
L 108.222585 292.819634 
L 108.294028 293.93824 
L 108.384954 292.949796 
L 108.443408 293.922194 
L 108.547324 292.289688 
L 108.644746 293.41171 
L 108.761652 291.691324 
L 108.911032 293.701842 
L 109.073401 290.199398 
L 109.164328 293.206504 
L 109.41113 286.265895 
L 109.567004 291.429297 
L 109.859269 293.509256 
L 109.98267 292.177317 
L 110.450294 285.702734 
L 110.632148 293.555133 
L 110.794518 292.988157 
L 110.989361 288.344192 
L 111.210184 294.130922 
L 111.619355 280.598248 
L 111.846672 291.797002 
L 112.028526 289.192687 
L 112.236359 289.472183 
L 112.515634 291.882517 
L 112.658519 291.55763 
L 112.905321 293.717314 
L 113.015732 292.71724 
L 113.178102 293.93313 
L 113.346966 293.190937 
L 113.626242 290.779875 
L 113.710674 293.324313 
L 113.937991 292.7732 
L 114.028918 293.629239 
L 114.132834 293.428535 
L 114.269225 292.290918 
L 114.366646 293.393998 
L 114.496542 292.590274 
L 114.619943 292.831227 
L 114.834271 292.640669 
L 114.970661 291.056511 
L 115.087567 292.268511 
L 115.425296 292.480287 
L 115.555191 291.842048 
L 115.74354 292.819074 
L 116.633325 273.661827 
L 116.834663 293.655223 
L 117.029506 293.386727 
L 117.19837 290.032392 
L 117.373729 291.993404 
L 117.49713 291.135071 
L 117.620531 293.713002 
L 117.704963 293.237468 
L 117.7829 294.035912 
L 118.120629 292.052215 
L 118.84155 260.461105 
L 118.951961 292.92454 
L 119.075362 293.546009 
L 119.166289 293.123253 
L 119.56247 286.463567 
L 119.633913 293.8016 
L 119.72484 292.825497 
L 119.809272 293.594911 
L 119.887209 293.359292 
L 120.004115 292.825368 
L 120.095042 293.357691 
L 120.289885 290.272555 
L 120.354833 293.822107 
L 120.536687 290.231996 
L 120.74452 290.735015 
L 120.809468 293.912198 
L 121.114722 291.710106 
L 121.413482 290.157297 
L 121.484925 293.569271 
L 121.608326 291.698781 
L 121.939559 279.373918 
L 122.023992 293.05498 
L 122.186361 291.838943 
L 122.400689 293.340323 
L 122.52409 293.272661 
L 122.718933 289.784117 
L 122.80986 293.467979 
L 122.965735 291.127872 
L 123.433359 293.566155 
L 123.758098 292.497246 
L 123.97892 293.088875 
L 124.381597 280.158588 
L 124.680356 281.255189 
L 124.777778 293.848622 
L 124.868705 292.849916 
L 124.972621 292.700187 
L 125.109012 292.129038 
L 125.219423 292.364169 
L 125.329834 292.917625 
L 125.531173 292.746601 
L 125.726016 292.252975 
L 125.875396 290.928603 
L 126.024776 291.295818 
L 126.602811 281.061934 
L 126.752191 292.613723 
L 127.031467 287.83006 
L 127.356206 291.965102 
L 127.531565 289.756195 
L 127.603007 293.8842 
L 127.856304 288.661527 
L 127.94723 293.402599 
L 128.051147 293.341905 
L 128.239496 293.235576 
L 128.551245 289.605701 
L 128.746088 293.624682 
L 128.830521 293.104388 
L 128.934437 293.406221 
L 129.077322 292.871763 
L 129.161754 293.664614 
L 129.343608 290.965911 
L 129.454019 292.885339 
L 129.59041 291.762775 
L 129.811232 293.21558 
L 130.077518 290.633773 
L 130.17494 292.401242 
L 130.616585 284.751467 
L 130.694522 294.167133 
L 130.89586 291.227609 
L 131.084209 293.136907 
L 131.376474 288.177866 
L 131.584307 293.498315 
L 131.733687 291.496637 
L 131.896056 292.404112 
L 132.0909 290.960216 
L 132.454608 292.753821 
L 132.655946 293.033704 
L 132.792336 293.447608 
L 132.902747 292.578078 
L 133.117075 288.977685 
L 133.208002 293.297398 
L 133.285939 293.208717 
L 133.532741 291.456845 
L 133.734079 293.345561 
L 133.876964 291.449413 
L 133.941912 293.924705 
L 134.104282 290.192673 
L 134.247167 290.178984 
L 134.42902 293.741695 
L 134.5784 291.50289 
L 134.688812 293.250788 
L 134.987572 292.586761 
L 135.091488 293.310698 
L 135.253857 290.232153 
L 135.3253 293.708213 
L 135.650039 290.976263 
L 135.753956 293.490516 
L 136.182611 278.835291 
L 136.37096 293.258121 
L 136.526834 292.135773 
L 136.845078 287.725413 
L 136.961985 293.324151 
L 137.065901 292.986143 
L 137.195797 291.927075 
L 137.436103 293.441932 
L 137.514041 293.320993 
L 137.585483 293.737972 
L 137.669915 293.664521 
L 137.741358 293.871618 
L 137.877748 291.533826 
L 137.955686 293.352739 
L 138.170014 292.824353 
L 138.332383 293.31273 
L 138.468773 293.209322 
L 138.579185 292.870664 
L 138.676606 293.588404 
L 138.754544 293.436338 
L 139.033819 286.271276 
L 139.274126 294.386236 
L 139.365053 293.100794 
L 139.74175 290.332113 
L 140.332775 273.62906 
L 140.995243 272.803349 
L 141.177096 286.672127 
L 141.410909 284.584329 
L 141.586268 286.973274 
L 141.761627 286.937924 
L 141.962965 285.934746 
L 142.112345 288.018665 
L 142.281209 287.186912 
L 142.612443 287.419658 
L 142.768317 287.659159 
L 142.950171 286.754556 
L 143.106046 287.725519 
L 143.560681 288.020427 
L 143.703566 288.282092 
L 143.865935 287.445018 
L 144.028305 287.581261 
L 144.242632 285.60415 
L 144.554382 279.92137 
L 144.827163 281.865759 
L 145.125922 280.188641 
L 145.853338 246.101564 
L 146.444363 263.136791 
L 147.093841 257.189865 
L 147.671876 263.089359 
L 148.27589 261.338028 
L 148.87341 262.648097 
L 149.464435 262.181475 
L 150.035976 263.783933 
L 150.607516 263.893179 
L 151.347921 246.164016 
L 151.98441 256.36352 
L 152.549455 263.126627 
L 153.088522 263.947586 
L 153.621094 263.763396 
L 154.17315 262.232275 
L 154.705722 263.652673 
L 155.303242 261.596613 
L 155.985194 251.929123 
L 157.173738 263.401141 
L 157.771258 258.142434 
L 158.31682 261.562818 
L 158.88836 260.279549 
L 159.057225 287.945618 
L 159.219594 288.054544 
L 159.479385 290.17594 
L 159.628765 288.750209 
L 159.765156 289.498926 
L 160.291233 263.962577 
L 160.408139 290.42311 
L 160.551024 288.99607 
L 161.10308 261.391848 
L 161.752558 255.162251 
L 162.28513 263.78967 
L 162.518942 285.042791 
L 163.058009 262.051393 
L 163.642539 259.880193 
L 164.356965 252.55151 
L 165.058401 252.20798 
L 165.714374 252.097874 
L 166.461273 246.989478 
L 167.130236 255.883411 
L 168.000536 242.865798 
L 169.026711 236.282813 
L 169.79959 244.787676 
L 170.871229 235.704107 
L 171.85194 239.399348 
L 172.910589 236.28604 
L 173.806869 239.934639 
L 174.716138 239.886783 
L 175.560459 240.0575 
L 176.469729 242.60004 
L 177.288071 248.801426 
L 178.177856 244.042442 
L 178.710427 263.548585 
L 179.756087 226.39258 
L 180.496492 247.62667 
L 180.71082 285.392433 
L 181.366792 260.760992 
L 181.711016 278.121217 
L 182.32802 261.640486 
L 183.009972 253.186494 
L 183.613986 260.533329 
L 184.341401 249.018255 
L 185.023353 252.21758 
L 185.880664 236.590108 
L 186.627564 247.197244 
L 187.510854 233.746199 
L 188.342186 238.446461 
L 189.017643 253.085853 
L 189.887943 238.281658 
L 190.751749 241.522907 
L 191.602565 243.567602 
L 192.446886 241.179722 
L 193.317187 239.70104 
L 194.142024 236.569514 
L 195.018819 233.817555 
L 195.869635 235.631837 
L 196.623029 248.222975 
L 197.519309 229.009778 
L 198.435073 232.692517 
L 199.214447 247.546115 
L 199.99382 247.881164 
L 200.805668 241.047706 
L 201.604525 245.236241 
L 202.422868 242.224087 
L 203.260694 244.47849 
L 204.072542 241.231258 
L 204.877894 244.420737 
L 205.683247 243.903021 
L 206.449631 244.14307 
L 206.780865 280.086215 
L 207.547249 240.767087 
L 208.443528 237.0874 
L 209.222902 240.599066 
L 210.015265 240.209571 
L 210.359488 279.225986 
L 211.138862 243.016448 
L 211.515559 277.20866 
L 212.320912 235.171684 
L 212.684619 278.264163 
L 213.451003 244.903214 
L 214.230377 237.049635 
L 215.00975 238.82186 
L 215.834587 236.50613 
L 216.620456 243.119681 
L 217.419314 235.69905 
L 218.010339 259.706756 
L 218.84167 231.84101 
L 219.673002 237.860029 
L 220.400417 246.23327 
L 221.264223 232.142722 
L 222.082565 240.179574 
L 222.900908 233.136492 
L 223.699765 232.863786 
L 224.550582 231.807059 
L 225.388408 233.895988 
L 226.252214 226.600218 
L 227.083546 230.985921 
L 227.323852 284.942261 
L 228.155184 231.106019 
L 228.947547 234.435556 
L 229.778879 230.831535 
L 230.668664 228.370656 
L 231.499996 229.40684 
L 232.344317 228.161131 
L 233.221112 225.4395 
L 234.026465 231.918098 
L 234.877281 227.745474 
L 235.832014 220.598169 
L 236.68283 228.03522 
L 237.475193 233.740277 
L 238.384462 224.410147 
L 239.235278 228.325987 
L 240.170526 223.530164 
L 240.722583 260.532366 
L 241.729273 213.255064 
L 241.83319 295.010256 
L 241.956591 295.488 
L 242.079992 295.424662 
L 242.164424 294.651188 
L 242.261845 294.976312 
L 242.385246 294.377964 
L 242.495657 295.195974 
L 242.839881 294.294026 
L 242.976271 295.204903 
L 243.099672 294.610419 
L 243.236062 294.685206 
L 243.404927 294.495927 
L 243.768634 295.367551 
L 243.911519 294.991163 
L 244.041415 295.156381 
L 244.177805 295.117197 
L 244.658419 294.49562 
L 244.807799 294.906947 
L 245.009137 294.145912 
L 245.36635 294.496943 
L 245.548204 294.240043 
L 245.684594 294.883519 
L 246.048302 294.102885 
L 246.230156 294.4114 
L 246.437989 293.833785 
L 246.619842 294.258001 
L 246.808191 294.138395 
L 247.054993 292.972558 
L 247.262826 293.64689 
L 247.516122 292.871773 
L 247.704471 294.141252 
L 247.918798 293.773659 
L 248.100652 294.345636 
L 249.146312 291.36708 
L 249.490535 291.021008 
L 249.815274 291.142984 
L 250.269909 287.984074 
L 250.782996 286.41696 
L 251.335052 285.20037 
L 252.114426 279.05154 
L 252.419681 290.327513 
L 253.634204 279.650319 
L 256.881594 206.280215 
L 258.966418 192.829388 
L 259.856203 235.924854 
L 261.12918 196.821251 
L 262.135871 245.769233 
L 262.967203 231.679639 
L 263.785545 235.736035 
L 264.357085 257.895679 
L 265.123469 244.036466 
L 265.733979 258.80281 
L 266.363972 259.533694 
L 266.480878 292.243715 
L 266.948502 273.42567 
L 267.688907 259.346317 
L 269.052811 200.809134 
L 269.741258 261.417345 
L 270.442694 255.619052 
L 271.163614 255.945292 
L 271.813092 262.028255 
L 272.495044 260.402805 
L 273.254933 253.934958 
L 273.94338 258.111228 
L 274.696774 255.755771 
L 275.950267 206.30843 
L 277.554477 165.851905 
L 278.567663 238.936594 
L 279.321058 255.605066 
L 280.035483 255.572045 
L 280.782383 260.839819 
L 281.795569 231.808229 
L 282.873702 209.737851 
L 284.231111 172.299157 
L 284.822136 261.552221 
L 286.289956 168.11928 
L 287.121288 244.326542 
L 288.348801 191.928247 
L 289.472398 200.872934 
L 290.634963 204.30937 
L 293.622562 158.331446 
L 294.207092 265.397807 
L 295.681407 173.278486 
L 296.512739 252.076967 
L 297.603862 236.470477 
L 298.578079 239.40142 
L 299.961467 181.388256 
L 301.240938 201.844768 
L 302.208661 223.267966 
L 303.468648 215.801863 
L 304.475339 231.485899 
L 305.956148 166.883272 
L 307.527885 194.943093 
L 308.359217 249.825187 
L 310.476515 205.656874 
L 311.561143 204.878246 
L 312.814636 184.784558 
L 313.977201 225.874008 
L 314.789049 242.82517 
L 315.672339 237.263123 
L 317.049232 180.485192 
L 318.198808 199.02502 
L 319.205499 232.172216 
L 320.9461 175.261597 
L 321.621557 251.043492 
L 322.810101 217.030193 
L 324.141531 184.790769 
L 325.94708 137.519975 
L 327.122635 208.890903 
L 328.512518 185.97761 
L 330.038791 173.05904 
L 331.675475 164.07298 
L 333.071853 171.624431 
L 334.468231 170.816169 
L 336.364706 128.074162 
L 337.767579 181.494133 
L 338.943134 257.530048 
L 340.196626 184.41428 
L 341.593004 172.903841 
L 342.664642 213.479956 
L 344.028546 177.089941 
L 345.372966 181.47625 
L 346.587489 190.973094 
L 347.899435 183.635747 
L 349.049011 208.970255 
L 350.464873 168.914943 
L 351.568985 199.888387 
L 352.887425 177.63702 
L 354.017517 198.508395 
L 355.42039 173.846324 
L 356.790788 176.455812 
L 358.336546 153.076029 
L 359.641996 196.263571 
L 360.99291 188.154464 
L 361.252702 284.700576 
L 362.590626 184.221311 
L 362.973818 278.168821 
L 363.863603 246.16605 
L 365.350907 174.238154 
L 366.422546 214.999806 
L 367.994283 165.751803 
L 369.663441 164.125659 
L 369.864779 287.78295 
L 371.150746 184.82213 
L 373.014747 158.42465 
L 374.924213 134.887328 
L 376.443991 161.638597 
L 377.963769 180.935333 
L 379.334168 177.527642 
L 380.951368 164.259775 
L 381.302086 280.025039 
L 382.763411 167.751687 
L 384.315664 171.762455 
L 385.802968 170.832326 
L 386.959039 202.042189 
L 388.667166 139.03062 
L 390.401272 143.490895 
L 391.791155 172.046982 
L 393.005679 189.453526 
L 394.843701 127.957675 
L 396.616776 124.699678 
L 397.759857 205.152164 
L 397.759857 205.152164 
" clip-path="url(#p893d665f26)" style="fill: none; stroke: #2ca02c; stroke-width: 1.5; stroke-linecap: square"/>
   </g>
   <g id="patch_3">
    <path d="M 57.6 307.584 
L 57.6 41.472 
" style="fill: none; stroke: #000000; stroke-width: 0.8; stroke-linejoin: miter; stroke-linecap: square"/>
   </g>
   <g id="patch_4">
    <path d="M 414.72 307.584 
L 414.72 41.472 
" style="fill: none; stroke: #000000; stroke-width: 0.8; stroke-linejoin: miter; stroke-linecap: square"/>
   </g>
   <g id="patch_5">
    <path d="M 57.6 307.584 
L 414.72 307.584 
" style="fill: none; stroke: #000000; stroke-width: 0.8; stroke-linejoin: miter; stroke-linecap: square"/>
   </g>
   <g id="patch_6">
    <path d="M 57.6 41.472 
L 414.72 41.472 
" style="fill: none; stroke: #000000; stroke-width: 0.8; stroke-linejoin: miter; stroke-linecap: square"/>
   </g>
   <g id="text_17">
    <!-- learning curve -->
    <g transform="translate(192.96375 35.472) scale(0.12 -0.12)">
     <defs>
      <path id="DejaVuSans-6c" d="M 603 4863 
L 1178 4863 
L 1178 0 
L 603 0 
L 603 4863 
z
" transform="scale(0.015625)"/>
      <path id="DejaVuSans-67" d="M 2906 1791 
Q 2906 2416 2648 2759 
Q 2391 3103 1925 3103 
Q 1463 3103 1205 2759 
Q 947 2416 947 1791 
Q 947 1169 1205 825 
Q 1463 481 1925 481 
Q 2391 481 2648 825 
Q 2906 1169 2906 1791 
z
M 3481 434 
Q 3481 -459 3084 -895 
Q 2688 -1331 1869 -1331 
Q 1566 -1331 1297 -1286 
Q 1028 -1241 775 -1147 
L 775 -588 
Q 1028 -725 1275 -790 
Q 1522 -856 1778 -856 
Q 2344 -856 2625 -561 
Q 2906 -266 2906 331 
L 2906 616 
Q 2728 306 2450 153 
Q 2172 0 1784 0 
Q 1141 0 747 490 
Q 353 981 353 1791 
Q 353 2603 747 3093 
Q 1141 3584 1784 3584 
Q 2172 3584 2450 3431 
Q 2728 3278 2906 2969 
L 2906 3500 
L 3481 3500 
L 3481 434 
z
" transform="scale(0.015625)"/>
      <path id="DejaVuSans-63" d="M 3122 3366 
L 3122 2828 
Q 2878 2963 2633 3030 
Q 2388 3097 2138 3097 
Q 1578 3097 1268 2742 
Q 959 2388 959 1747 
Q 959 1106 1268 751 
Q 1578 397 2138 397 
Q 2388 397 2633 464 
Q 2878 531 3122 666 
L 3122 134 
Q 2881 22 2623 -34 
Q 2366 -91 2075 -91 
Q 1284 -91 818 406 
Q 353 903 353 1747 
Q 353 2603 823 3093 
Q 1294 3584 2113 3584 
Q 2378 3584 2631 3529 
Q 2884 3475 3122 3366 
z
" transform="scale(0.015625)"/>
      <path id="DejaVuSans-75" d="M 544 1381 
L 544 3500 
L 1119 3500 
L 1119 1403 
Q 1119 906 1312 657 
Q 1506 409 1894 409 
Q 2359 409 2629 706 
Q 2900 1003 2900 1516 
L 2900 3500 
L 3475 3500 
L 3475 0 
L 2900 0 
L 2900 538 
Q 2691 219 2414 64 
Q 2138 -91 1772 -91 
Q 1169 -91 856 284 
Q 544 659 544 1381 
z
M 1991 3584 
L 1991 3584 
z
" transform="scale(0.015625)"/>
      <path id="DejaVuSans-76" d="M 191 3500 
L 800 3500 
L 1894 563 
L 2988 3500 
L 3597 3500 
L 2284 0 
L 1503 0 
L 191 3500 
z
" transform="scale(0.015625)"/>
     </defs>
     <use xlink:href="#DejaVuSans-6c"/>
     <use xlink:href="#DejaVuSans-65" x="27.783203"/>
     <use xlink:href="#DejaVuSans-61" x="89.306641"/>
     <use xlink:href="#DejaVuSans-72" x="150.585938"/>
     <use xlink:href="#DejaVuSans-6e" x="189.949219"/>
     <use xlink:href="#DejaVuSans-69" x="253.328125"/>
     <use xlink:href="#DejaVuSans-6e" x="281.111328"/>
     <use xlink:href="#DejaVuSans-67" x="344.490234"/>
     <use xlink:href="#DejaVuSans-20" x="407.966797"/>
     <use xlink:href="#DejaVuSans-63" x="439.753906"/>
     <use xlink:href="#DejaVuSans-75" x="494.734375"/>
     <use xlink:href="#DejaVuSans-72" x="558.113281"/>
     <use xlink:href="#DejaVuSans-76" x="599.226562"/>
     <use xlink:href="#DejaVuSans-65" x="658.40625"/>
    </g>
   </g>
   <g id="legend_1">
    <g id="patch_7">
     <path d="M 64.6 93.506375 
L 166.614062 93.506375 
Q 168.614062 93.506375 168.614062 91.506375 
L 168.614062 48.472 
Q 168.614062 46.472 166.614062 46.472 
L 64.6 46.472 
Q 62.6 46.472 62.6 48.472 
L 62.6 91.506375 
Q 62.6 93.506375 64.6 93.506375 
z
" style="fill: #ffffff; opacity: 0.8; stroke: #cccccc; stroke-linejoin: miter"/>
    </g>
    <g id="line2d_18">
     <path d="M 66.6 54.570438 
L 76.6 54.570438 
L 86.6 54.570438 
" style="fill: none; stroke: #1f77b4; stroke-width: 1.5; stroke-linecap: square"/>
    </g>
    <g id="text_18">
     <!-- source-source -->
     <g transform="translate(94.6 58.070438) scale(0.1 -0.1)">
      <defs>
       <path id="DejaVuSans-2d" d="M 313 2009 
L 1997 2009 
L 1997 1497 
L 313 1497 
L 313 2009 
z
" transform="scale(0.015625)"/>
      </defs>
      <use xlink:href="#DejaVuSans-73"/>
      <use xlink:href="#DejaVuSans-6f" x="52.099609"/>
      <use xlink:href="#DejaVuSans-75" x="113.28125"/>
      <use xlink:href="#DejaVuSans-72" x="176.660156"/>
      <use xlink:href="#DejaVuSans-63" x="215.523438"/>
      <use xlink:href="#DejaVuSans-65" x="270.503906"/>
      <use xlink:href="#DejaVuSans-2d" x="332.027344"/>
      <use xlink:href="#DejaVuSans-73" x="368.111328"/>
      <use xlink:href="#DejaVuSans-6f" x="420.210938"/>
      <use xlink:href="#DejaVuSans-75" x="481.392578"/>
      <use xlink:href="#DejaVuSans-72" x="544.771484"/>
      <use xlink:href="#DejaVuSans-63" x="583.634766"/>
      <use xlink:href="#DejaVuSans-65" x="638.615234"/>
     </g>
    </g>
    <g id="line2d_19">
     <path d="M 66.6 69.248563 
L 76.6 69.248563 
L 86.6 69.248563 
" style="fill: none; stroke: #ff7f0e; stroke-width: 1.5; stroke-linecap: square"/>
    </g>
    <g id="text_19">
     <!-- source-target -->
     <g transform="translate(94.6 72.748563) scale(0.1 -0.1)">
      <use xlink:href="#DejaVuSans-73"/>
      <use xlink:href="#DejaVuSans-6f" x="52.099609"/>
      <use xlink:href="#DejaVuSans-75" x="113.28125"/>
      <use xlink:href="#DejaVuSans-72" x="176.660156"/>
      <use xlink:href="#DejaVuSans-63" x="215.523438"/>
      <use xlink:href="#DejaVuSans-65" x="270.503906"/>
      <use xlink:href="#DejaVuSans-2d" x="332.027344"/>
      <use xlink:href="#DejaVuSans-74" x="368.111328"/>
      <use xlink:href="#DejaVuSans-61" x="407.320312"/>
      <use xlink:href="#DejaVuSans-72" x="468.599609"/>
      <use xlink:href="#DejaVuSans-67" x="507.962891"/>
      <use xlink:href="#DejaVuSans-65" x="571.439453"/>
      <use xlink:href="#DejaVuSans-74" x="632.962891"/>
     </g>
    </g>
    <g id="line2d_20">
     <path d="M 66.6 83.926688 
L 76.6 83.926688 
L 86.6 83.926688 
" style="fill: none; stroke: #2ca02c; stroke-width: 1.5; stroke-linecap: square"/>
    </g>
    <g id="text_20">
     <!-- target-target -->
     <g transform="translate(94.6 87.426688) scale(0.1 -0.1)">
      <use xlink:href="#DejaVuSans-74"/>
      <use xlink:href="#DejaVuSans-61" x="39.208984"/>
      <use xlink:href="#DejaVuSans-72" x="100.488281"/>
      <use xlink:href="#DejaVuSans-67" x="139.851562"/>
      <use xlink:href="#DejaVuSans-65" x="203.328125"/>
      <use xlink:href="#DejaVuSans-74" x="264.851562"/>
      <use xlink:href="#DejaVuSans-2d" x="304.060547"/>
      <use xlink:href="#DejaVuSans-74" x="340.144531"/>
      <use xlink:href="#DejaVuSans-61" x="379.353516"/>
      <use xlink:href="#DejaVuSans-72" x="440.632812"/>
      <use xlink:href="#DejaVuSans-67" x="479.996094"/>
      <use xlink:href="#DejaVuSans-65" x="543.472656"/>
      <use xlink:href="#DejaVuSans-74" x="604.996094"/>
     </g>
    </g>
   </g>
  </g>
 </g>
 <defs>
  <clipPath id="p893d665f26">
   <rect x="57.6" y="41.472" width="357.12" height="266.112"/>
  </clipPath>
 </defs>
</svg>
