<?xml version="1.0" encoding="utf-8" standalone="no"?>
<!DOCTYPE svg PUBLIC "-//W3C//DTD SVG 1.1//EN"
  "http://www.w3.org/Graphics/SVG/1.1/DTD/svg11.dtd">
<svg xmlns:xlink="http://www.w3.org/1999/xlink" width="460.8pt" height="345.6pt" viewBox="0 0 460.8 345.6" xmlns="http://www.w3.org/2000/svg" version="1.1">
 <metadata>
  <rdf:RDF xmlns:dc="http://purl.org/dc/elements/1.1/" xmlns:cc="http://creativecommons.org/ns#" xmlns:rdf="http://www.w3.org/1999/02/22-rdf-syntax-ns#">
   <cc:Work>
    <dc:type rdf:resource="http://purl.org/dc/dcmitype/StillImage"/>
    <dc:date>2023-08-18T21:38:57.755614</dc:date>
    <dc:format>image/svg+xml</dc:format>
    <dc:creator>
     <cc:Agent>
      <dc:title>Matplotlib v3.7.1, https://matplotlib.org/</dc:title>
     </cc:Agent>
    </dc:creator>
   </cc:Work>
  </rdf:RDF>
 </metadata>
 <defs>
  <style type="text/css">*{stroke-linejoin: round; stroke-linecap: butt}</style>
 </defs>
 <g id="figure_1">
  <g id="patch_1">
   <path d="M 0 345.6 
L 460.8 345.6 
L 460.8 0 
L 0 0 
z
" style="fill: #ffffff"/>
  </g>
  <g id="axes_1">
   <g id="patch_2">
    <path d="M 57.6 307.584 
L 414.72 307.584 
L 414.72 41.472 
L 57.6 41.472 
z
" style="fill: #ffffff"/>
   </g>
   <g id="matplotlib.axis_1">
    <g id="xtick_1">
     <g id="line2d_1">
      <defs>
       <path id="me6b2950a98" d="M 0 0 
L 0 3.5 
" style="stroke: #000000; stroke-width: 0.8"/>
      </defs>
      <g>
       <use xlink:href="#me6b2950a98" x="73.689495" y="307.584" style="stroke: #000000; stroke-width: 0.8"/>
      </g>
     </g>
     <g id="text_1">
      <!-- 0 -->
      <g transform="translate(70.508245 322.182437) scale(0.1 -0.1)">
       <defs>
        <path id="DejaVuSans-30" d="M 2034 4250 
Q 1547 4250 1301 3770 
Q 1056 3291 1056 2328 
Q 1056 1369 1301 889 
Q 1547 409 2034 409 
Q 2525 409 2770 889 
Q 3016 1369 3016 2328 
Q 3016 3291 2770 3770 
Q 2525 4250 2034 4250 
z
M 2034 4750 
Q 2819 4750 3233 4129 
Q 3647 3509 3647 2328 
Q 3647 1150 3233 529 
Q 2819 -91 2034 -91 
Q 1250 -91 836 529 
Q 422 1150 422 2328 
Q 422 3509 836 4129 
Q 1250 4750 2034 4750 
z
" transform="scale(0.015625)"/>
       </defs>
       <use xlink:href="#DejaVuSans-30"/>
      </g>
     </g>
    </g>
    <g id="xtick_2">
     <g id="line2d_2">
      <g>
       <use xlink:href="#me6b2950a98" x="138.794887" y="307.584" style="stroke: #000000; stroke-width: 0.8"/>
      </g>
     </g>
     <g id="text_2">
      <!-- 10000 -->
      <g transform="translate(122.888637 322.182437) scale(0.1 -0.1)">
       <defs>
        <path id="DejaVuSans-31" d="M 794 531 
L 1825 531 
L 1825 4091 
L 703 3866 
L 703 4441 
L 1819 4666 
L 2450 4666 
L 2450 531 
L 3481 531 
L 3481 0 
L 794 0 
L 794 531 
z
" transform="scale(0.015625)"/>
       </defs>
       <use xlink:href="#DejaVuSans-31"/>
       <use xlink:href="#DejaVuSans-30" x="63.623047"/>
       <use xlink:href="#DejaVuSans-30" x="127.246094"/>
       <use xlink:href="#DejaVuSans-30" x="190.869141"/>
       <use xlink:href="#DejaVuSans-30" x="254.492188"/>
      </g>
     </g>
    </g>
    <g id="xtick_3">
     <g id="line2d_3">
      <g>
       <use xlink:href="#me6b2950a98" x="203.900278" y="307.584" style="stroke: #000000; stroke-width: 0.8"/>
      </g>
     </g>
     <g id="text_3">
      <!-- 20000 -->
      <g transform="translate(187.994028 322.182437) scale(0.1 -0.1)">
       <defs>
        <path id="DejaVuSans-32" d="M 1228 531 
L 3431 531 
L 3431 0 
L 469 0 
L 469 531 
Q 828 903 1448 1529 
Q 2069 2156 2228 2338 
Q 2531 2678 2651 2914 
Q 2772 3150 2772 3378 
Q 2772 3750 2511 3984 
Q 2250 4219 1831 4219 
Q 1534 4219 1204 4116 
Q 875 4013 500 3803 
L 500 4441 
Q 881 4594 1212 4672 
Q 1544 4750 1819 4750 
Q 2544 4750 2975 4387 
Q 3406 4025 3406 3419 
Q 3406 3131 3298 2873 
Q 3191 2616 2906 2266 
Q 2828 2175 2409 1742 
Q 1991 1309 1228 531 
z
" transform="scale(0.015625)"/>
       </defs>
       <use xlink:href="#DejaVuSans-32"/>
       <use xlink:href="#DejaVuSans-30" x="63.623047"/>
       <use xlink:href="#DejaVuSans-30" x="127.246094"/>
       <use xlink:href="#DejaVuSans-30" x="190.869141"/>
       <use xlink:href="#DejaVuSans-30" x="254.492188"/>
      </g>
     </g>
    </g>
    <g id="xtick_4">
     <g id="line2d_4">
      <g>
       <use xlink:href="#me6b2950a98" x="269.00567" y="307.584" style="stroke: #000000; stroke-width: 0.8"/>
      </g>
     </g>
     <g id="text_4">
      <!-- 30000 -->
      <g transform="translate(253.09942 322.182437) scale(0.1 -0.1)">
       <defs>
        <path id="DejaVuSans-33" d="M 2597 2516 
Q 3050 2419 3304 2112 
Q 3559 1806 3559 1356 
Q 3559 666 3084 287 
Q 2609 -91 1734 -91 
Q 1441 -91 1130 -33 
Q 819 25 488 141 
L 488 750 
Q 750 597 1062 519 
Q 1375 441 1716 441 
Q 2309 441 2620 675 
Q 2931 909 2931 1356 
Q 2931 1769 2642 2001 
Q 2353 2234 1838 2234 
L 1294 2234 
L 1294 2753 
L 1863 2753 
Q 2328 2753 2575 2939 
Q 2822 3125 2822 3475 
Q 2822 3834 2567 4026 
Q 2313 4219 1838 4219 
Q 1578 4219 1281 4162 
Q 984 4106 628 3988 
L 628 4550 
Q 988 4650 1302 4700 
Q 1616 4750 1894 4750 
Q 2613 4750 3031 4423 
Q 3450 4097 3450 3541 
Q 3450 3153 3228 2886 
Q 3006 2619 2597 2516 
z
" transform="scale(0.015625)"/>
       </defs>
       <use xlink:href="#DejaVuSans-33"/>
       <use xlink:href="#DejaVuSans-30" x="63.623047"/>
       <use xlink:href="#DejaVuSans-30" x="127.246094"/>
       <use xlink:href="#DejaVuSans-30" x="190.869141"/>
       <use xlink:href="#DejaVuSans-30" x="254.492188"/>
      </g>
     </g>
    </g>
    <g id="xtick_5">
     <g id="line2d_5">
      <g>
       <use xlink:href="#me6b2950a98" x="334.111062" y="307.584" style="stroke: #000000; stroke-width: 0.8"/>
      </g>
     </g>
     <g id="text_5">
      <!-- 40000 -->
      <g transform="translate(318.204812 322.182437) scale(0.1 -0.1)">
       <defs>
        <path id="DejaVuSans-34" d="M 2419 4116 
L 825 1625 
L 2419 1625 
L 2419 4116 
z
M 2253 4666 
L 3047 4666 
L 3047 1625 
L 3713 1625 
L 3713 1100 
L 3047 1100 
L 3047 0 
L 2419 0 
L 2419 1100 
L 313 1100 
L 313 1709 
L 2253 4666 
z
" transform="scale(0.015625)"/>
       </defs>
       <use xlink:href="#DejaVuSans-34"/>
       <use xlink:href="#DejaVuSans-30" x="63.623047"/>
       <use xlink:href="#DejaVuSans-30" x="127.246094"/>
       <use xlink:href="#DejaVuSans-30" x="190.869141"/>
       <use xlink:href="#DejaVuSans-30" x="254.492188"/>
      </g>
     </g>
    </g>
    <g id="xtick_6">
     <g id="line2d_6">
      <g>
       <use xlink:href="#me6b2950a98" x="399.216453" y="307.584" style="stroke: #000000; stroke-width: 0.8"/>
      </g>
     </g>
     <g id="text_6">
      <!-- 50000 -->
      <g transform="translate(383.310203 322.182437) scale(0.1 -0.1)">
       <defs>
        <path id="DejaVuSans-35" d="M 691 4666 
L 3169 4666 
L 3169 4134 
L 1269 4134 
L 1269 2991 
Q 1406 3038 1543 3061 
Q 1681 3084 1819 3084 
Q 2600 3084 3056 2656 
Q 3513 2228 3513 1497 
Q 3513 744 3044 326 
Q 2575 -91 1722 -91 
Q 1428 -91 1123 -41 
Q 819 9 494 109 
L 494 744 
Q 775 591 1075 516 
Q 1375 441 1709 441 
Q 2250 441 2565 725 
Q 2881 1009 2881 1497 
Q 2881 1984 2565 2268 
Q 2250 2553 1709 2553 
Q 1456 2553 1204 2497 
Q 953 2441 691 2322 
L 691 4666 
z
" transform="scale(0.015625)"/>
       </defs>
       <use xlink:href="#DejaVuSans-35"/>
       <use xlink:href="#DejaVuSans-30" x="63.623047"/>
       <use xlink:href="#DejaVuSans-30" x="127.246094"/>
       <use xlink:href="#DejaVuSans-30" x="190.869141"/>
       <use xlink:href="#DejaVuSans-30" x="254.492188"/>
      </g>
     </g>
    </g>
    <g id="text_7">
     <!-- timesteps -->
     <g transform="translate(211.443594 335.860562) scale(0.1 -0.1)">
      <defs>
       <path id="DejaVuSans-74" d="M 1172 4494 
L 1172 3500 
L 2356 3500 
L 2356 3053 
L 1172 3053 
L 1172 1153 
Q 1172 725 1289 603 
Q 1406 481 1766 481 
L 2356 481 
L 2356 0 
L 1766 0 
Q 1100 0 847 248 
Q 594 497 594 1153 
L 594 3053 
L 172 3053 
L 172 3500 
L 594 3500 
L 594 4494 
L 1172 4494 
z
" transform="scale(0.015625)"/>
       <path id="DejaVuSans-69" d="M 603 3500 
L 1178 3500 
L 1178 0 
L 603 0 
L 603 3500 
z
M 603 4863 
L 1178 4863 
L 1178 4134 
L 603 4134 
L 603 4863 
z
" transform="scale(0.015625)"/>
       <path id="DejaVuSans-6d" d="M 3328 2828 
Q 3544 3216 3844 3400 
Q 4144 3584 4550 3584 
Q 5097 3584 5394 3201 
Q 5691 2819 5691 2113 
L 5691 0 
L 5113 0 
L 5113 2094 
Q 5113 2597 4934 2840 
Q 4756 3084 4391 3084 
Q 3944 3084 3684 2787 
Q 3425 2491 3425 1978 
L 3425 0 
L 2847 0 
L 2847 2094 
Q 2847 2600 2669 2842 
Q 2491 3084 2119 3084 
Q 1678 3084 1418 2786 
Q 1159 2488 1159 1978 
L 1159 0 
L 581 0 
L 581 3500 
L 1159 3500 
L 1159 2956 
Q 1356 3278 1631 3431 
Q 1906 3584 2284 3584 
Q 2666 3584 2933 3390 
Q 3200 3197 3328 2828 
z
" transform="scale(0.015625)"/>
       <path id="DejaVuSans-65" d="M 3597 1894 
L 3597 1613 
L 953 1613 
Q 991 1019 1311 708 
Q 1631 397 2203 397 
Q 2534 397 2845 478 
Q 3156 559 3463 722 
L 3463 178 
Q 3153 47 2828 -22 
Q 2503 -91 2169 -91 
Q 1331 -91 842 396 
Q 353 884 353 1716 
Q 353 2575 817 3079 
Q 1281 3584 2069 3584 
Q 2775 3584 3186 3129 
Q 3597 2675 3597 1894 
z
M 3022 2063 
Q 3016 2534 2758 2815 
Q 2500 3097 2075 3097 
Q 1594 3097 1305 2825 
Q 1016 2553 972 2059 
L 3022 2063 
z
" transform="scale(0.015625)"/>
       <path id="DejaVuSans-73" d="M 2834 3397 
L 2834 2853 
Q 2591 2978 2328 3040 
Q 2066 3103 1784 3103 
Q 1356 3103 1142 2972 
Q 928 2841 928 2578 
Q 928 2378 1081 2264 
Q 1234 2150 1697 2047 
L 1894 2003 
Q 2506 1872 2764 1633 
Q 3022 1394 3022 966 
Q 3022 478 2636 193 
Q 2250 -91 1575 -91 
Q 1294 -91 989 -36 
Q 684 19 347 128 
L 347 722 
Q 666 556 975 473 
Q 1284 391 1588 391 
Q 1994 391 2212 530 
Q 2431 669 2431 922 
Q 2431 1156 2273 1281 
Q 2116 1406 1581 1522 
L 1381 1569 
Q 847 1681 609 1914 
Q 372 2147 372 2553 
Q 372 3047 722 3315 
Q 1072 3584 1716 3584 
Q 2034 3584 2315 3537 
Q 2597 3491 2834 3397 
z
" transform="scale(0.015625)"/>
       <path id="DejaVuSans-70" d="M 1159 525 
L 1159 -1331 
L 581 -1331 
L 581 3500 
L 1159 3500 
L 1159 2969 
Q 1341 3281 1617 3432 
Q 1894 3584 2278 3584 
Q 2916 3584 3314 3078 
Q 3713 2572 3713 1747 
Q 3713 922 3314 415 
Q 2916 -91 2278 -91 
Q 1894 -91 1617 61 
Q 1341 213 1159 525 
z
M 3116 1747 
Q 3116 2381 2855 2742 
Q 2594 3103 2138 3103 
Q 1681 3103 1420 2742 
Q 1159 2381 1159 1747 
Q 1159 1113 1420 752 
Q 1681 391 2138 391 
Q 2594 391 2855 752 
Q 3116 1113 3116 1747 
z
" transform="scale(0.015625)"/>
      </defs>
      <use xlink:href="#DejaVuSans-74"/>
      <use xlink:href="#DejaVuSans-69" x="39.208984"/>
      <use xlink:href="#DejaVuSans-6d" x="66.992188"/>
      <use xlink:href="#DejaVuSans-65" x="164.404297"/>
      <use xlink:href="#DejaVuSans-73" x="225.927734"/>
      <use xlink:href="#DejaVuSans-74" x="278.027344"/>
      <use xlink:href="#DejaVuSans-65" x="317.236328"/>
      <use xlink:href="#DejaVuSans-70" x="378.759766"/>
      <use xlink:href="#DejaVuSans-73" x="442.236328"/>
     </g>
    </g>
   </g>
   <g id="matplotlib.axis_2">
    <g id="ytick_1">
     <g id="line2d_7">
      <defs>
       <path id="mc4168e0a18" d="M 0 0 
L -3.5 0 
" style="stroke: #000000; stroke-width: 0.8"/>
      </defs>
      <g>
       <use xlink:href="#mc4168e0a18" x="57.6" y="294.961807" style="stroke: #000000; stroke-width: 0.8"/>
      </g>
     </g>
     <g id="text_8">
      <!-- 0 -->
      <g transform="translate(44.2375 298.761025) scale(0.1 -0.1)">
       <use xlink:href="#DejaVuSans-30"/>
      </g>
     </g>
    </g>
    <g id="ytick_2">
     <g id="line2d_8">
      <g>
       <use xlink:href="#mc4168e0a18" x="57.6" y="244.287444" style="stroke: #000000; stroke-width: 0.8"/>
      </g>
     </g>
     <g id="text_9">
      <!-- 200 -->
      <g transform="translate(31.5125 248.086663) scale(0.1 -0.1)">
       <use xlink:href="#DejaVuSans-32"/>
       <use xlink:href="#DejaVuSans-30" x="63.623047"/>
       <use xlink:href="#DejaVuSans-30" x="127.246094"/>
      </g>
     </g>
    </g>
    <g id="ytick_3">
     <g id="line2d_9">
      <g>
       <use xlink:href="#mc4168e0a18" x="57.6" y="193.613082" style="stroke: #000000; stroke-width: 0.8"/>
      </g>
     </g>
     <g id="text_10">
      <!-- 400 -->
      <g transform="translate(31.5125 197.4123) scale(0.1 -0.1)">
       <use xlink:href="#DejaVuSans-34"/>
       <use xlink:href="#DejaVuSans-30" x="63.623047"/>
       <use xlink:href="#DejaVuSans-30" x="127.246094"/>
      </g>
     </g>
    </g>
    <g id="ytick_4">
     <g id="line2d_10">
      <g>
       <use xlink:href="#mc4168e0a18" x="57.6" y="142.938719" style="stroke: #000000; stroke-width: 0.8"/>
      </g>
     </g>
     <g id="text_11">
      <!-- 600 -->
      <g transform="translate(31.5125 146.737938) scale(0.1 -0.1)">
       <defs>
        <path id="DejaVuSans-36" d="M 2113 2584 
Q 1688 2584 1439 2293 
Q 1191 2003 1191 1497 
Q 1191 994 1439 701 
Q 1688 409 2113 409 
Q 2538 409 2786 701 
Q 3034 994 3034 1497 
Q 3034 2003 2786 2293 
Q 2538 2584 2113 2584 
z
M 3366 4563 
L 3366 3988 
Q 3128 4100 2886 4159 
Q 2644 4219 2406 4219 
Q 1781 4219 1451 3797 
Q 1122 3375 1075 2522 
Q 1259 2794 1537 2939 
Q 1816 3084 2150 3084 
Q 2853 3084 3261 2657 
Q 3669 2231 3669 1497 
Q 3669 778 3244 343 
Q 2819 -91 2113 -91 
Q 1303 -91 875 529 
Q 447 1150 447 2328 
Q 447 3434 972 4092 
Q 1497 4750 2381 4750 
Q 2619 4750 2861 4703 
Q 3103 4656 3366 4563 
z
" transform="scale(0.015625)"/>
       </defs>
       <use xlink:href="#DejaVuSans-36"/>
       <use xlink:href="#DejaVuSans-30" x="63.623047"/>
       <use xlink:href="#DejaVuSans-30" x="127.246094"/>
      </g>
     </g>
    </g>
    <g id="ytick_5">
     <g id="line2d_11">
      <g>
       <use xlink:href="#mc4168e0a18" x="57.6" y="92.264357" style="stroke: #000000; stroke-width: 0.8"/>
      </g>
     </g>
     <g id="text_12">
      <!-- 800 -->
      <g transform="translate(31.5125 96.063576) scale(0.1 -0.1)">
       <defs>
        <path id="DejaVuSans-38" d="M 2034 2216 
Q 1584 2216 1326 1975 
Q 1069 1734 1069 1313 
Q 1069 891 1326 650 
Q 1584 409 2034 409 
Q 2484 409 2743 651 
Q 3003 894 3003 1313 
Q 3003 1734 2745 1975 
Q 2488 2216 2034 2216 
z
M 1403 2484 
Q 997 2584 770 2862 
Q 544 3141 544 3541 
Q 544 4100 942 4425 
Q 1341 4750 2034 4750 
Q 2731 4750 3128 4425 
Q 3525 4100 3525 3541 
Q 3525 3141 3298 2862 
Q 3072 2584 2669 2484 
Q 3125 2378 3379 2068 
Q 3634 1759 3634 1313 
Q 3634 634 3220 271 
Q 2806 -91 2034 -91 
Q 1263 -91 848 271 
Q 434 634 434 1313 
Q 434 1759 690 2068 
Q 947 2378 1403 2484 
z
M 1172 3481 
Q 1172 3119 1398 2916 
Q 1625 2713 2034 2713 
Q 2441 2713 2670 2916 
Q 2900 3119 2900 3481 
Q 2900 3844 2670 4047 
Q 2441 4250 2034 4250 
Q 1625 4250 1398 4047 
Q 1172 3844 1172 3481 
z
" transform="scale(0.015625)"/>
       </defs>
       <use xlink:href="#DejaVuSans-38"/>
       <use xlink:href="#DejaVuSans-30" x="63.623047"/>
       <use xlink:href="#DejaVuSans-30" x="127.246094"/>
      </g>
     </g>
    </g>
    <g id="ytick_6">
     <g id="line2d_12">
      <g>
       <use xlink:href="#mc4168e0a18" x="57.6" y="41.589995" style="stroke: #000000; stroke-width: 0.8"/>
      </g>
     </g>
     <g id="text_13">
      <!-- 1000 -->
      <g transform="translate(25.15 45.389213) scale(0.1 -0.1)">
       <use xlink:href="#DejaVuSans-31"/>
       <use xlink:href="#DejaVuSans-30" x="63.623047"/>
       <use xlink:href="#DejaVuSans-30" x="127.246094"/>
       <use xlink:href="#DejaVuSans-30" x="190.869141"/>
      </g>
     </g>
    </g>
    <g id="text_14">
     <!-- rewards -->
     <g transform="translate(19.070312 194.447531) rotate(-90) scale(0.1 -0.1)">
      <defs>
       <path id="DejaVuSans-72" d="M 2631 2963 
Q 2534 3019 2420 3045 
Q 2306 3072 2169 3072 
Q 1681 3072 1420 2755 
Q 1159 2438 1159 1844 
L 1159 0 
L 581 0 
L 581 3500 
L 1159 3500 
L 1159 2956 
Q 1341 3275 1631 3429 
Q 1922 3584 2338 3584 
Q 2397 3584 2469 3576 
Q 2541 3569 2628 3553 
L 2631 2963 
z
" transform="scale(0.015625)"/>
       <path id="DejaVuSans-77" d="M 269 3500 
L 844 3500 
L 1563 769 
L 2278 3500 
L 2956 3500 
L 3675 769 
L 4391 3500 
L 4966 3500 
L 4050 0 
L 3372 0 
L 2619 2869 
L 1863 0 
L 1184 0 
L 269 3500 
z
" transform="scale(0.015625)"/>
       <path id="DejaVuSans-61" d="M 2194 1759 
Q 1497 1759 1228 1600 
Q 959 1441 959 1056 
Q 959 750 1161 570 
Q 1363 391 1709 391 
Q 2188 391 2477 730 
Q 2766 1069 2766 1631 
L 2766 1759 
L 2194 1759 
z
M 3341 1997 
L 3341 0 
L 2766 0 
L 2766 531 
Q 2569 213 2275 61 
Q 1981 -91 1556 -91 
Q 1019 -91 701 211 
Q 384 513 384 1019 
Q 384 1609 779 1909 
Q 1175 2209 1959 2209 
L 2766 2209 
L 2766 2266 
Q 2766 2663 2505 2880 
Q 2244 3097 1772 3097 
Q 1472 3097 1187 3025 
Q 903 2953 641 2809 
L 641 3341 
Q 956 3463 1253 3523 
Q 1550 3584 1831 3584 
Q 2591 3584 2966 3190 
Q 3341 2797 3341 1997 
z
" transform="scale(0.015625)"/>
       <path id="DejaVuSans-64" d="M 2906 2969 
L 2906 4863 
L 3481 4863 
L 3481 0 
L 2906 0 
L 2906 525 
Q 2725 213 2448 61 
Q 2172 -91 1784 -91 
Q 1150 -91 751 415 
Q 353 922 353 1747 
Q 353 2572 751 3078 
Q 1150 3584 1784 3584 
Q 2172 3584 2448 3432 
Q 2725 3281 2906 2969 
z
M 947 1747 
Q 947 1113 1208 752 
Q 1469 391 1925 391 
Q 2381 391 2643 752 
Q 2906 1113 2906 1747 
Q 2906 2381 2643 2742 
Q 2381 3103 1925 3103 
Q 1469 3103 1208 2742 
Q 947 2381 947 1747 
z
" transform="scale(0.015625)"/>
      </defs>
      <use xlink:href="#DejaVuSans-72"/>
      <use xlink:href="#DejaVuSans-65" x="38.863281"/>
      <use xlink:href="#DejaVuSans-77" x="100.386719"/>
      <use xlink:href="#DejaVuSans-61" x="182.173828"/>
      <use xlink:href="#DejaVuSans-72" x="243.453125"/>
      <use xlink:href="#DejaVuSans-64" x="282.816406"/>
      <use xlink:href="#DejaVuSans-73" x="346.292969"/>
     </g>
    </g>
   </g>
   <g id="line2d_13">
    <path d="M 73.832727 288.192109 
L 74.034554 285.74356 
L 74.151744 292.006575 
L 74.334039 292.01262 
L 74.529355 290.225687 
L 74.633524 291.61188 
L 74.776755 290.16368 
L 75.212962 271.735945 
L 75.297599 292.568989 
L 75.427809 290.969994 
L 75.55802 291.086747 
L 75.642657 293.016493 
L 75.746826 292.520704 
L 75.824952 292.815594 
L 75.935631 291.747742 
L 76.020268 292.854807 
L 76.313243 289.257485 
L 76.606217 284.208037 
L 76.742938 292.112634 
L 76.918723 291.322044 
L 77.12706 293.117966 
L 77.224718 291.243386 
L 77.413524 292.309729 
L 77.576287 290.820537 
L 77.745561 292.076093 
L 78.032025 282.207558 
L 78.110151 292.346258 
L 78.285936 292.291532 
L 78.709121 284.882303 
L 78.839332 293.286418 
L 79.008606 291.111543 
L 79.197412 285.687747 
L 79.314601 292.048387 
L 79.41877 291.684615 
L 79.490386 293.256937 
L 79.607576 291.791121 
L 79.711744 292.407209 
L 79.926592 288.625538 
L 80.011229 292.402539 
L 80.160971 288.070604 
L 80.323735 292.788037 
L 80.733899 281.39051 
L 80.929215 292.511706 
L 81.039894 293.053775 
L 81.157084 289.862543 
L 81.261252 291.408669 
L 81.384953 289.9433 
L 81.521674 290.087172 
L 81.697459 292.836653 
L 81.762564 293.329562 
L 81.95137 291.579223 
L 82.055538 291.718721 
L 82.120644 293.053703 
L 82.231323 291.15747 
L 82.426639 290.785598 
L 82.608934 290.884977 
L 82.765187 291.561527 
L 82.843313 293.337483 
L 83.136288 288.582077 
L 83.344625 293.473606 
L 83.487857 289.305224 
L 83.65062 289.546138 
L 84.067295 293.077545 
L 84.177974 292.520522 
L 84.549075 287.186581 
L 84.73137 286.265606 
L 84.959239 293.615747 
L 85.141534 289.375057 
L 85.408466 288.337895 
L 85.467061 293.709397 
L 86.039988 260.834377 
L 86.196241 293.497492 
L 86.287389 292.465405 
L 86.352494 292.795186 
L 86.476194 293.616443 
L 86.625937 291.074333 
L 86.704063 292.296707 
L 86.984016 291.224752 
L 87.166311 286.264914 
L 87.231417 292.751739 
L 87.368138 292.129361 
L 87.478817 293.363889 
L 87.765281 287.303015 
L 87.915023 289.388908 
L 87.986639 292.825846 
L 88.273103 288.518749 
L 88.468419 292.338966 
L 88.650714 292.58621 
L 88.780925 291.471095 
L 89.015305 283.012802 
L 89.171558 288.56665 
L 89.431979 285.225515 
L 89.503595 293.169517 
L 89.581721 292.173407 
L 89.861675 283.801415 
L 89.933291 293.373296 
L 90.083033 289.148822 
L 90.278349 291.061843 
L 90.421581 290.937485 
L 90.584345 287.675501 
L 90.682003 292.318257 
L 90.857787 292.577881 
L 90.922893 293.04539 
L 91.001019 292.260739 
L 91.066124 292.893613 
L 91.222377 292.125408 
L 91.385141 288.106098 
L 91.541394 291.531257 
L 91.879942 274.600348 
L 92.049216 293.026503 
L 92.146874 291.905878 
L 92.21849 292.995796 
L 92.316148 291.19366 
L 92.381253 292.957096 
L 92.452869 292.586819 
L 92.563548 291.288132 
L 92.765375 286.302125 
L 92.856523 292.517965 
L 93.292729 286.497079 
L 93.611745 291.836917 
L 93.813572 291.964533 
L 94.054462 283.417276 
L 94.366968 291.52978 
L 94.529731 291.682174 
L 94.738068 290.117307 
L 95.024532 290.727491 
L 95.206827 288.791357 
L 95.304485 291.798305 
L 95.460738 290.339494 
L 95.564907 292.033749 
L 95.760223 292.293346 
L 95.864392 292.051857 
L 96.118303 282.144981 
L 96.411277 292.740039 
L 97.023268 254.742927 
L 97.094884 292.368417 
L 97.251137 288.641303 
L 97.65479 289.84369 
L 97.837085 289.168166 
L 97.954275 290.745747 
L 98.110528 288.110519 
L 98.201675 292.250246 
L 98.410013 289.097301 
L 98.514181 292.148969 
L 98.663924 291.977044 
L 99.074088 275.799126 
L 99.210809 291.083 
L 99.34753 289.815343 
L 99.46472 292.431185 
L 99.614462 291.203841 
L 99.699099 293.054354 
L 99.816289 291.497422 
L 100.076711 293.313744 
L 100.245985 292.003551 
L 100.591043 285.364824 
L 100.773338 292.065816 
L 100.981676 288.824092 
L 101.04027 293.420215 
L 101.235587 286.848147 
L 101.411371 286.261927 
L 101.51554 290.943217 
L 101.658772 289.842597 
L 101.795493 290.302131 
L 101.88664 291.60563 
L 102.016851 291.484327 
L 102.173104 291.053047 
L 102.36191 291.090441 
L 102.446547 292.842308 
L 102.557226 292.835566 
L 102.993432 288.815055 
L 103.227812 282.542767 
L 103.338491 292.012493 
L 103.527296 287.633727 
L 103.644486 292.173053 
L 103.859334 290.885098 
L 104.106734 291.296096 
L 104.328093 291.120242 
L 104.406219 292.258428 
L 104.497367 292.061515 
L 104.582004 293.149641 
L 104.65362 293.03192 
L 104.764299 291.870582 
L 104.829404 293.17003 
L 105.115868 284.990318 
L 105.311184 286.411913 
L 105.421863 292.225982 
L 105.734369 290.786969 
L 105.832027 292.156509 
L 106.001301 291.321266 
L 106.10547 292.942063 
L 106.248702 292.367007 
L 106.320318 293.195455 
L 106.658866 284.913463 
L 106.899756 285.457884 
L 107.082051 288.692116 
L 107.153667 293.323891 
L 107.296899 289.253253 
L 107.355493 293.414088 
L 107.570341 291.342822 
L 107.700552 292.076186 
L 107.895868 291.117182 
L 108.052121 292.662596 
L 108.247437 291.708286 
L 108.319053 293.292781 
L 108.410201 291.892659 
L 108.468796 293.270051 
L 108.572964 290.957622 
L 108.670622 292.546955 
L 108.787812 290.110045 
L 108.937554 292.957925 
L 109.100318 287.996746 
L 109.191465 292.256284 
L 109.438866 282.424978 
L 109.595119 289.738887 
L 109.888093 292.685128 
L 110.011793 290.79845 
L 110.480552 281.627266 
L 110.662847 292.750113 
L 110.825611 291.946997 
L 111.020927 285.368865 
L 111.242285 293.565712 
L 111.652449 274.396811 
L 111.880318 290.259737 
L 112.062613 286.57075 
L 112.27095 286.966654 
L 112.550904 290.380868 
L 112.694135 289.920669 
L 112.941536 292.97984 
L 113.052215 291.563245 
L 113.214979 293.285542 
L 113.384253 292.234233 
L 113.664206 288.818986 
L 113.748843 292.423159 
L 113.976712 291.642512 
L 114.067859 292.855083 
L 114.172028 292.570787 
L 114.308749 290.959364 
L 114.406407 292.521866 
L 114.536618 291.383399 
L 114.660318 291.724706 
L 114.875166 291.454783 
L 115.011887 289.210839 
L 115.129077 290.927625 
L 115.467625 291.227604 
L 115.597836 290.323544 
L 115.786642 291.707492 
L 116.678585 264.571438 
L 116.880412 292.89189 
L 117.075728 292.511568 
L 117.245002 287.760184 
L 117.420787 290.537939 
L 117.544487 289.322118 
L 117.668187 292.973733 
L 117.752824 292.300144 
L 117.830951 293.431131 
L 118.169499 290.621243 
L 118.892169 245.872744 
L 119.002848 291.856883 
L 119.126548 292.737188 
L 119.217696 292.138359 
L 119.614839 282.704978 
L 119.686455 293.09923 
L 119.777602 291.71659 
L 119.862239 292.806458 
L 119.940366 292.472705 
L 120.057555 291.716407 
L 120.148703 292.470438 
L 120.344019 288.100373 
L 120.409124 293.128279 
L 120.591419 288.042921 
L 120.799757 288.755442 
L 120.864862 293.255891 
L 121.170857 290.136649 
L 121.470342 287.937111 
L 121.541958 292.770139 
L 121.665658 290.120609 
L 121.997696 272.66256 
L 122.082333 292.041651 
L 122.245096 290.319147 
L 122.459944 292.445837 
L 122.583644 292.349994 
L 122.778961 287.408505 
L 122.870108 292.62666 
L 123.026361 289.311921 
L 123.49512 292.765725 
L 123.820647 291.251626 
L 124.042005 292.089663 
L 124.445659 273.774036 
L 124.745143 275.327361 
L 124.842802 293.165837 
L 124.933949 291.75118 
L 125.038118 291.53909 
L 125.174839 290.730062 
L 125.285518 291.063124 
L 125.396197 291.847088 
L 125.598024 291.604835 
L 125.79334 290.905618 
L 125.943083 289.029658 
L 126.092825 289.549815 
L 126.672263 275.053617 
L 126.822005 291.416614 
L 127.101959 284.640603 
L 127.427486 290.497849 
L 127.60327 287.368954 
L 127.674886 293.216233 
L 127.928797 285.818367 
L 128.019945 292.53405 
L 128.124113 292.448078 
L 128.312919 292.297463 
L 128.625425 287.15578 
L 128.820741 292.848628 
L 128.905378 292.111637 
L 129.009547 292.539181 
L 129.152778 291.782125 
L 129.237415 292.905191 
L 129.419711 289.082505 
L 129.53039 291.801356 
L 129.667111 290.211254 
L 129.888469 292.269139 
L 130.155401 288.612035 
L 130.25306 291.115637 
L 130.695776 280.279805 
L 130.773903 293.617004 
L 130.975729 289.453197 
L 131.164535 292.157699 
L 131.457509 285.133266 
L 131.665847 292.669631 
L 131.815589 289.834274 
L 131.978352 291.119703 
L 132.173669 289.074439 
L 132.538259 291.615062 
L 132.740086 292.011514 
L 132.876807 292.597805 
L 132.987486 291.366124 
L 133.202334 286.266202 
L 133.293481 292.385034 
L 133.371608 292.259418 
L 133.619008 289.777908 
L 133.820835 292.453256 
L 133.964067 289.76738 
L 134.029172 293.273608 
L 134.191936 287.98722 
L 134.335168 287.967831 
L 134.517463 293.014377 
L 134.667205 289.84313 
L 134.777884 292.319011 
L 135.077369 291.378422 
L 135.181538 292.403872 
L 135.344301 288.043143 
L 135.415917 292.966949 
L 135.741444 289.097168 
L 135.845613 292.658584 
L 136.275308 271.899599 
L 136.464114 292.329398 
L 136.620367 290.739603 
L 136.939383 284.492371 
L 137.056573 292.422929 
L 137.160742 291.944144 
L 137.290952 290.443984 
L 137.531842 292.589764 
L 137.609969 292.418456 
L 137.681585 293.009103 
L 137.766222 292.90506 
L 137.837838 293.198411 
L 137.974559 289.886951 
L 138.052685 292.463423 
L 138.267533 291.71497 
L 138.430297 292.406752 
L 138.567018 292.260274 
L 138.677697 291.78057 
L 138.775355 292.79724 
L 138.853482 292.581841 
L 139.133435 282.4326 
L 139.374325 293.927361 
L 139.465472 292.106546 
L 139.843084 288.184736 
L 140.435543 264.525024 
L 141.099618 263.355412 
L 141.281913 283.000402 
L 141.516292 280.043056 
L 141.692077 283.426973 
L 141.867861 283.3769 
L 142.069688 281.955908 
L 142.219431 284.907759 
L 142.388705 283.729589 
L 142.557979 283.814901 
L 142.876995 284.398523 
L 143.05929 283.117162 
L 143.215543 284.492521 
L 143.371796 284.597208 
L 143.814513 285.280901 
L 143.977276 284.095195 
L 144.14004 284.288181 
L 144.354887 281.487622 
L 144.667393 273.43802 
L 144.940836 276.192227 
L 145.240321 273.816606 
L 145.969501 225.532594 
L 146.56196 249.662827 
L 147.213014 241.239063 
L 147.792452 249.59564 
L 148.397932 247.114896 
L 148.996902 248.970596 
L 149.589361 248.309631 
L 150.162288 250.579497 
L 150.735216 250.734242 
L 151.477417 225.621055 
L 152.11545 240.068553 
L 152.681867 249.64843 
L 153.222242 250.81131 
L 153.756106 250.550406 
L 154.309502 248.381589 
L 154.843366 250.393568 
L 155.442336 247.48118 
L 156.125942 233.787274 
L 157.317371 250.037276 
L 157.91634 242.588368 
L 158.463226 247.433309 
L 159.036153 245.615571 
L 159.205427 284.804289 
L 159.368191 284.958582 
L 159.628612 287.963518 
L 159.778355 285.943985 
L 159.915076 287.004535 
L 160.44243 250.832545 
L 160.559619 288.313633 
L 160.702851 286.292245 
L 161.256247 247.191132 
L 161.907301 238.366968 
L 162.441165 250.587623 
L 162.675545 280.692462 
L 163.215919 248.12537 
L 163.801868 245.049887 
L 164.518027 234.668878 
L 165.221165 234.182272 
L 165.87873 234.026307 
L 166.627442 226.790314 
L 167.298027 239.388484 
L 168.17044 220.949161 
L 169.199105 211.624427 
L 169.973859 223.671484 
L 171.048098 210.804696 
L 172.031189 216.038969 
L 173.092407 211.628998 
L 173.990862 216.797203 
L 174.902337 216.729416 
L 175.748707 216.971235 
L 176.660183 220.572719 
L 177.480511 229.356921 
L 178.372454 222.615866 
L 178.906319 250.246128 
L 179.954515 197.615008 
L 180.696717 227.69289 
L 180.911565 281.187728 
L 181.569129 246.29753 
L 181.914188 270.888121 
L 182.532689 247.543325 
L 183.216296 235.568327 
L 183.821776 245.975048 
L 184.550956 229.664057 
L 185.234563 234.19587 
L 186.093954 212.059707 
L 186.842666 227.084613 
L 187.728099 208.031338 
L 188.561448 214.689213 
L 189.238544 235.42577 
L 190.110957 214.455772 
L 190.976858 219.04697 
L 191.829739 221.94326 
L 192.676109 218.560851 
L 193.548521 216.466313 
L 194.37536 212.030537 
L 195.254282 208.132413 
L 196.107163 210.702326 
L 196.862386 228.537551 
L 197.76084 201.322243 
L 198.678826 206.538808 
L 199.460091 227.578785 
L 200.241355 228.053378 
L 201.055173 218.373852 
L 201.855969 224.306872 
L 202.676297 220.040184 
L 203.516157 223.233524 
L 204.329974 218.633852 
L 205.137281 223.151718 
L 205.944588 222.418378 
L 206.712831 222.758405 
L 207.044869 273.671521 
L 207.813113 217.976357 
L 208.711567 212.764118 
L 209.492832 217.738358 
L 210.287117 217.186641 
L 210.632176 272.453015 
L 211.413441 221.162556 
L 211.791052 269.595492 
L 212.598359 210.050524 
L 212.962949 271.090602 
L 213.731193 223.835141 
L 214.512457 212.710623 
L 215.293722 215.220963 
L 216.12056 211.940754 
L 216.908336 221.308784 
L 217.709132 210.797532 
L 218.301591 244.804215 
L 219.13494 205.332657 
L 219.968289 213.858538 
L 220.69747 225.719154 
L 221.563371 205.760029 
L 222.383699 217.144152 
L 223.204027 207.167694 
L 224.004823 206.781408 
L 224.857704 205.284565 
L 225.697564 208.243512 
L 226.563465 197.909126 
L 227.396814 204.121431 
L 227.637704 280.550063 
L 228.471053 204.291549 
L 229.265339 209.007806 
L 230.098688 203.902744 
L 230.990632 200.416934 
L 231.823981 201.884678 
L 232.670351 200.120144 
L 233.549274 196.264979 
L 234.356581 205.44185 
L 235.209461 199.53137 
L 236.166511 189.407282 
L 237.019391 199.941792 
L 237.813677 208.02295 
L 238.725152 194.806911 
L 239.578033 200.35366 
L 240.515551 193.560423 
L 241.068947 245.973684 
L 242.07808 179.005844 
L 242.182249 294.81128 
L 242.305949 295.488 
L 242.429649 295.398282 
L 242.514286 294.302664 
L 242.611944 294.763199 
L 242.735645 293.915644 
L 242.846324 295.074348 
L 243.191382 293.796747 
L 243.328104 295.086995 
L 243.451804 294.244915 
L 243.588525 294.35085 
L 243.757799 294.082739 
L 244.122389 295.317384 
L 244.265621 294.784235 
L 244.395832 295.018265 
L 244.532553 294.962762 
L 245.014333 294.082303 
L 245.164076 294.664945 
L 245.365902 293.586945 
L 245.554708 293.765212 
L 245.723982 294.084177 
L 245.906277 293.720281 
L 246.042998 294.631759 
L 246.407589 293.525999 
L 246.589884 293.963007 
L 246.798221 293.144821 
L 246.980516 293.745719 
L 247.169322 293.576297 
L 247.416722 291.9249 
L 247.625059 292.880086 
L 247.87897 291.78214 
L 248.067776 293.580345 
L 248.282624 293.059653 
L 248.464919 293.869852 
L 248.666746 292.999137 
L 248.901125 292.489473 
L 249.194099 290.666995 
L 249.513116 289.650757 
L 249.858174 289.160549 
L 250.183701 289.333328 
L 250.639439 284.858762 
L 251.153772 282.638959 
L 251.707167 280.915671 
L 252.488432 272.205914 
L 252.794428 288.17822 
L 254.011898 273.054079 
L 257.267168 169.126039 
L 259.357051 150.073072 
L 260.248995 211.117383 
L 261.525061 155.727508 
L 262.534194 225.06185 
L 263.367543 205.104076 
L 264.187871 210.849921 
L 264.760799 242.238842 
L 265.529042 222.607401 
L 266.141033 243.523785 
L 266.772555 244.559074 
L 266.889745 290.892501 
L 267.358504 264.236923 
L 268.100705 244.293658 
L 269.467918 161.376305 
L 270.158035 247.227248 
L 270.861174 239.014023 
L 271.583844 239.476138 
L 272.234897 248.092596 
L 272.918504 245.790162 
L 273.680237 236.628519 
L 274.370354 242.544166 
L 275.125577 239.207684 
L 276.382111 169.166004 
L 277.990214 111.85973 
L 279.005858 215.383483 
L 279.761081 238.994211 
L 280.47724 238.947438 
L 281.225952 246.409188 
L 282.241596 205.286223 
L 283.322346 174.023747 
L 284.683048 120.9922 
L 285.275507 247.418298 
L 286.746889 115.071445 
L 287.580238 223.018291 
L 288.81073 148.796615 
L 289.937053 161.466677 
L 291.10244 166.334356 
L 294.097288 101.207073 
L 294.683236 252.865534 
L 296.161129 122.37941 
L 296.994478 233.996693 
L 298.088248 211.890251 
L 299.064829 216.041904 
L 300.451574 133.86682 
L 301.73415 162.843271 
L 302.704221 193.189023 
L 303.967265 182.613361 
L 304.976399 204.829645 
L 306.460802 113.320652 
L 308.036352 153.067115 
L 308.869701 230.807068 
L 310.992137 168.243082 
L 312.079397 167.140162 
L 313.335931 138.677649 
L 314.501318 196.880456 
L 315.315135 220.891613 
L 316.200568 213.013027 
L 317.580803 132.587639 
L 318.733168 158.849126 
L 319.742302 205.801806 
L 321.487126 125.188467 
L 322.164222 232.532786 
L 323.355651 184.353278 
L 324.690311 138.686447 
L 326.500241 71.727826 
L 327.678649 172.824053 
L 329.071904 140.367596 
L 330.601881 122.068566 
L 332.242537 109.3399 
L 333.642303 120.036457 
L 335.042069 118.891561 
L 336.943146 58.347924 
L 338.349423 134.016794 
L 339.52783 241.720929 
L 340.784364 138.153154 
L 342.18413 121.848729 
L 343.258369 179.324402 
L 344.625582 127.778299 
L 345.973264 133.991462 
L 347.190735 147.443651 
L 348.505864 137.05037 
L 349.658229 172.936454 
L 351.077527 116.198494 
L 352.184318 160.072076 
L 353.505958 128.553231 
L 354.638792 158.117331 
L 356.045068 123.183747 
L 357.418792 126.880061 
L 358.9683 93.762826 
L 360.276918 154.93756 
L 361.631111 143.451089 
L 361.891532 280.207718 
L 363.232703 137.879815 
L 363.616825 270.955551 
L 364.508769 225.623937 
L 365.999682 123.73877 
L 367.073921 181.477254 
L 368.649472 111.717937 
L 370.32268 109.414519 
L 370.524507 284.573871 
L 371.813594 138.73087 
L 373.682119 101.339095 
L 375.596217 67.998708 
L 377.119683 105.891621 
L 378.643149 133.225259 
L 380.016873 128.398297 
L 381.637997 109.604493 
L 381.989567 273.584866 
L 383.454438 114.550753 
L 385.010457 120.231966 
L 386.50137 118.914448 
L 387.660246 163.122916 
L 389.372518 73.86764 
L 391.110832 80.185577 
L 392.504087 120.634996 
L 393.721558 145.291197 
L 395.564041 58.182921 
L 397.341418 53.568 
L 398.487273 167.528165 
L 398.487273 167.528165 
" clip-path="url(#p5619bd262a)" style="fill: none; stroke: #1f77b4; stroke-width: 1.5; stroke-linecap: square"/>
   </g>
   <g id="patch_3">
    <path d="M 57.6 307.584 
L 57.6 41.472 
" style="fill: none; stroke: #000000; stroke-width: 0.8; stroke-linejoin: miter; stroke-linecap: square"/>
   </g>
   <g id="patch_4">
    <path d="M 414.72 307.584 
L 414.72 41.472 
" style="fill: none; stroke: #000000; stroke-width: 0.8; stroke-linejoin: miter; stroke-linecap: square"/>
   </g>
   <g id="patch_5">
    <path d="M 57.6 307.584 
L 414.72 307.584 
" style="fill: none; stroke: #000000; stroke-width: 0.8; stroke-linejoin: miter; stroke-linecap: square"/>
   </g>
   <g id="patch_6">
    <path d="M 57.6 41.472 
L 414.72 41.472 
" style="fill: none; stroke: #000000; stroke-width: 0.8; stroke-linejoin: miter; stroke-linecap: square"/>
   </g>
   <g id="text_15">
    <!-- learning curve -->
    <g transform="translate(192.96375 35.472) scale(0.12 -0.12)">
     <defs>
      <path id="DejaVuSans-6c" d="M 603 4863 
L 1178 4863 
L 1178 0 
L 603 0 
L 603 4863 
z
" transform="scale(0.015625)"/>
      <path id="DejaVuSans-6e" d="M 3513 2113 
L 3513 0 
L 2938 0 
L 2938 2094 
Q 2938 2591 2744 2837 
Q 2550 3084 2163 3084 
Q 1697 3084 1428 2787 
Q 1159 2491 1159 1978 
L 1159 0 
L 581 0 
L 581 3500 
L 1159 3500 
L 1159 2956 
Q 1366 3272 1645 3428 
Q 1925 3584 2291 3584 
Q 2894 3584 3203 3211 
Q 3513 2838 3513 2113 
z
" transform="scale(0.015625)"/>
      <path id="DejaVuSans-67" d="M 2906 1791 
Q 2906 2416 2648 2759 
Q 2391 3103 1925 3103 
Q 1463 3103 1205 2759 
Q 947 2416 947 1791 
Q 947 1169 1205 825 
Q 1463 481 1925 481 
Q 2391 481 2648 825 
Q 2906 1169 2906 1791 
z
M 3481 434 
Q 3481 -459 3084 -895 
Q 2688 -1331 1869 -1331 
Q 1566 -1331 1297 -1286 
Q 1028 -1241 775 -1147 
L 775 -588 
Q 1028 -725 1275 -790 
Q 1522 -856 1778 -856 
Q 2344 -856 2625 -561 
Q 2906 -266 2906 331 
L 2906 616 
Q 2728 306 2450 153 
Q 2172 0 1784 0 
Q 1141 0 747 490 
Q 353 981 353 1791 
Q 353 2603 747 3093 
Q 1141 3584 1784 3584 
Q 2172 3584 2450 3431 
Q 2728 3278 2906 2969 
L 2906 3500 
L 3481 3500 
L 3481 434 
z
" transform="scale(0.015625)"/>
      <path id="DejaVuSans-20" transform="scale(0.015625)"/>
      <path id="DejaVuSans-63" d="M 3122 3366 
L 3122 2828 
Q 2878 2963 2633 3030 
Q 2388 3097 2138 3097 
Q 1578 3097 1268 2742 
Q 959 2388 959 1747 
Q 959 1106 1268 751 
Q 1578 397 2138 397 
Q 2388 397 2633 464 
Q 2878 531 3122 666 
L 3122 134 
Q 2881 22 2623 -34 
Q 2366 -91 2075 -91 
Q 1284 -91 818 406 
Q 353 903 353 1747 
Q 353 2603 823 3093 
Q 1294 3584 2113 3584 
Q 2378 3584 2631 3529 
Q 2884 3475 3122 3366 
z
" transform="scale(0.015625)"/>
      <path id="DejaVuSans-75" d="M 544 1381 
L 544 3500 
L 1119 3500 
L 1119 1403 
Q 1119 906 1312 657 
Q 1506 409 1894 409 
Q 2359 409 2629 706 
Q 2900 1003 2900 1516 
L 2900 3500 
L 3475 3500 
L 3475 0 
L 2900 0 
L 2900 538 
Q 2691 219 2414 64 
Q 2138 -91 1772 -91 
Q 1169 -91 856 284 
Q 544 659 544 1381 
z
M 1991 3584 
L 1991 3584 
z
" transform="scale(0.015625)"/>
      <path id="DejaVuSans-76" d="M 191 3500 
L 800 3500 
L 1894 563 
L 2988 3500 
L 3597 3500 
L 2284 0 
L 1503 0 
L 191 3500 
z
" transform="scale(0.015625)"/>
     </defs>
     <use xlink:href="#DejaVuSans-6c"/>
     <use xlink:href="#DejaVuSans-65" x="27.783203"/>
     <use xlink:href="#DejaVuSans-61" x="89.306641"/>
     <use xlink:href="#DejaVuSans-72" x="150.585938"/>
     <use xlink:href="#DejaVuSans-6e" x="189.949219"/>
     <use xlink:href="#DejaVuSans-69" x="253.328125"/>
     <use xlink:href="#DejaVuSans-6e" x="281.111328"/>
     <use xlink:href="#DejaVuSans-67" x="344.490234"/>
     <use xlink:href="#DejaVuSans-20" x="407.966797"/>
     <use xlink:href="#DejaVuSans-63" x="439.753906"/>
     <use xlink:href="#DejaVuSans-75" x="494.734375"/>
     <use xlink:href="#DejaVuSans-72" x="558.113281"/>
     <use xlink:href="#DejaVuSans-76" x="599.226562"/>
     <use xlink:href="#DejaVuSans-65" x="658.40625"/>
    </g>
   </g>
  </g>
 </g>
 <defs>
  <clipPath id="p5619bd262a">
   <rect x="57.6" y="41.472" width="357.12" height="266.112"/>
  </clipPath>
 </defs>
</svg>
