<?xml version="1.0" encoding="utf-8" standalone="no"?>
<!DOCTYPE svg PUBLIC "-//W3C//DTD SVG 1.1//EN"
  "http://www.w3.org/Graphics/SVG/1.1/DTD/svg11.dtd">
<svg xmlns:xlink="http://www.w3.org/1999/xlink" width="460.8pt" height="345.6pt" viewBox="0 0 460.8 345.6" xmlns="http://www.w3.org/2000/svg" version="1.1">
 <metadata>
  <rdf:RDF xmlns:dc="http://purl.org/dc/elements/1.1/" xmlns:cc="http://creativecommons.org/ns#" xmlns:rdf="http://www.w3.org/1999/02/22-rdf-syntax-ns#">
   <cc:Work>
    <dc:type rdf:resource="http://purl.org/dc/dcmitype/StillImage"/>
    <dc:date>2023-08-18T20:42:43.942389</dc:date>
    <dc:format>image/svg+xml</dc:format>
    <dc:creator>
     <cc:Agent>
      <dc:title>Matplotlib v3.7.1, https://matplotlib.org/</dc:title>
     </cc:Agent>
    </dc:creator>
   </cc:Work>
  </rdf:RDF>
 </metadata>
 <defs>
  <style type="text/css">*{stroke-linejoin: round; stroke-linecap: butt}</style>
 </defs>
 <g id="figure_1">
  <g id="patch_1">
   <path d="M 0 345.6 
L 460.8 345.6 
L 460.8 0 
L 0 0 
z
" style="fill: #ffffff"/>
  </g>
  <g id="axes_1">
   <g id="patch_2">
    <path d="M 57.6 307.584 
L 414.72 307.584 
L 414.72 41.472 
L 57.6 41.472 
z
" style="fill: #ffffff"/>
   </g>
   <g id="matplotlib.axis_1">
    <g id="xtick_1">
     <g id="line2d_1">
      <defs>
       <path id="m09522b55e3" d="M 0 0 
L 0 3.5 
" style="stroke: #000000; stroke-width: 0.8"/>
      </defs>
      <g>
       <use xlink:href="#m09522b55e3" x="73.728274" y="307.584" style="stroke: #000000; stroke-width: 0.8"/>
      </g>
     </g>
     <g id="text_1">
      <!-- 0 -->
      <g transform="translate(70.547024 322.182437) scale(0.1 -0.1)">
       <defs>
        <path id="DejaVuSans-30" d="M 2034 4250 
Q 1547 4250 1301 3770 
Q 1056 3291 1056 2328 
Q 1056 1369 1301 889 
Q 1547 409 2034 409 
Q 2525 409 2770 889 
Q 3016 1369 3016 2328 
Q 3016 3291 2770 3770 
Q 2525 4250 2034 4250 
z
M 2034 4750 
Q 2819 4750 3233 4129 
Q 3647 3509 3647 2328 
Q 3647 1150 3233 529 
Q 2819 -91 2034 -91 
Q 1250 -91 836 529 
Q 422 1150 422 2328 
Q 422 3509 836 4129 
Q 1250 4750 2034 4750 
z
" transform="scale(0.015625)"/>
       </defs>
       <use xlink:href="#DejaVuSans-30"/>
      </g>
     </g>
    </g>
    <g id="xtick_2">
     <g id="line2d_2">
      <g>
       <use xlink:href="#m09522b55e3" x="139.011713" y="307.584" style="stroke: #000000; stroke-width: 0.8"/>
      </g>
     </g>
     <g id="text_2">
      <!-- 10000 -->
      <g transform="translate(123.105463 322.182437) scale(0.1 -0.1)">
       <defs>
        <path id="DejaVuSans-31" d="M 794 531 
L 1825 531 
L 1825 4091 
L 703 3866 
L 703 4441 
L 1819 4666 
L 2450 4666 
L 2450 531 
L 3481 531 
L 3481 0 
L 794 0 
L 794 531 
z
" transform="scale(0.015625)"/>
       </defs>
       <use xlink:href="#DejaVuSans-31"/>
       <use xlink:href="#DejaVuSans-30" x="63.623047"/>
       <use xlink:href="#DejaVuSans-30" x="127.246094"/>
       <use xlink:href="#DejaVuSans-30" x="190.869141"/>
       <use xlink:href="#DejaVuSans-30" x="254.492188"/>
      </g>
     </g>
    </g>
    <g id="xtick_3">
     <g id="line2d_3">
      <g>
       <use xlink:href="#m09522b55e3" x="204.295153" y="307.584" style="stroke: #000000; stroke-width: 0.8"/>
      </g>
     </g>
     <g id="text_3">
      <!-- 20000 -->
      <g transform="translate(188.388903 322.182437) scale(0.1 -0.1)">
       <defs>
        <path id="DejaVuSans-32" d="M 1228 531 
L 3431 531 
L 3431 0 
L 469 0 
L 469 531 
Q 828 903 1448 1529 
Q 2069 2156 2228 2338 
Q 2531 2678 2651 2914 
Q 2772 3150 2772 3378 
Q 2772 3750 2511 3984 
Q 2250 4219 1831 4219 
Q 1534 4219 1204 4116 
Q 875 4013 500 3803 
L 500 4441 
Q 881 4594 1212 4672 
Q 1544 4750 1819 4750 
Q 2544 4750 2975 4387 
Q 3406 4025 3406 3419 
Q 3406 3131 3298 2873 
Q 3191 2616 2906 2266 
Q 2828 2175 2409 1742 
Q 1991 1309 1228 531 
z
" transform="scale(0.015625)"/>
       </defs>
       <use xlink:href="#DejaVuSans-32"/>
       <use xlink:href="#DejaVuSans-30" x="63.623047"/>
       <use xlink:href="#DejaVuSans-30" x="127.246094"/>
       <use xlink:href="#DejaVuSans-30" x="190.869141"/>
       <use xlink:href="#DejaVuSans-30" x="254.492188"/>
      </g>
     </g>
    </g>
    <g id="xtick_4">
     <g id="line2d_4">
      <g>
       <use xlink:href="#m09522b55e3" x="269.578593" y="307.584" style="stroke: #000000; stroke-width: 0.8"/>
      </g>
     </g>
     <g id="text_4">
      <!-- 30000 -->
      <g transform="translate(253.672343 322.182437) scale(0.1 -0.1)">
       <defs>
        <path id="DejaVuSans-33" d="M 2597 2516 
Q 3050 2419 3304 2112 
Q 3559 1806 3559 1356 
Q 3559 666 3084 287 
Q 2609 -91 1734 -91 
Q 1441 -91 1130 -33 
Q 819 25 488 141 
L 488 750 
Q 750 597 1062 519 
Q 1375 441 1716 441 
Q 2309 441 2620 675 
Q 2931 909 2931 1356 
Q 2931 1769 2642 2001 
Q 2353 2234 1838 2234 
L 1294 2234 
L 1294 2753 
L 1863 2753 
Q 2328 2753 2575 2939 
Q 2822 3125 2822 3475 
Q 2822 3834 2567 4026 
Q 2313 4219 1838 4219 
Q 1578 4219 1281 4162 
Q 984 4106 628 3988 
L 628 4550 
Q 988 4650 1302 4700 
Q 1616 4750 1894 4750 
Q 2613 4750 3031 4423 
Q 3450 4097 3450 3541 
Q 3450 3153 3228 2886 
Q 3006 2619 2597 2516 
z
" transform="scale(0.015625)"/>
       </defs>
       <use xlink:href="#DejaVuSans-33"/>
       <use xlink:href="#DejaVuSans-30" x="63.623047"/>
       <use xlink:href="#DejaVuSans-30" x="127.246094"/>
       <use xlink:href="#DejaVuSans-30" x="190.869141"/>
       <use xlink:href="#DejaVuSans-30" x="254.492188"/>
      </g>
     </g>
    </g>
    <g id="xtick_5">
     <g id="line2d_5">
      <g>
       <use xlink:href="#m09522b55e3" x="334.862032" y="307.584" style="stroke: #000000; stroke-width: 0.8"/>
      </g>
     </g>
     <g id="text_5">
      <!-- 40000 -->
      <g transform="translate(318.955782 322.182437) scale(0.1 -0.1)">
       <defs>
        <path id="DejaVuSans-34" d="M 2419 4116 
L 825 1625 
L 2419 1625 
L 2419 4116 
z
M 2253 4666 
L 3047 4666 
L 3047 1625 
L 3713 1625 
L 3713 1100 
L 3047 1100 
L 3047 0 
L 2419 0 
L 2419 1100 
L 313 1100 
L 313 1709 
L 2253 4666 
z
" transform="scale(0.015625)"/>
       </defs>
       <use xlink:href="#DejaVuSans-34"/>
       <use xlink:href="#DejaVuSans-30" x="63.623047"/>
       <use xlink:href="#DejaVuSans-30" x="127.246094"/>
       <use xlink:href="#DejaVuSans-30" x="190.869141"/>
       <use xlink:href="#DejaVuSans-30" x="254.492188"/>
      </g>
     </g>
    </g>
    <g id="xtick_6">
     <g id="line2d_6">
      <g>
       <use xlink:href="#m09522b55e3" x="400.145472" y="307.584" style="stroke: #000000; stroke-width: 0.8"/>
      </g>
     </g>
     <g id="text_6">
      <!-- 50000 -->
      <g transform="translate(384.239222 322.182437) scale(0.1 -0.1)">
       <defs>
        <path id="DejaVuSans-35" d="M 691 4666 
L 3169 4666 
L 3169 4134 
L 1269 4134 
L 1269 2991 
Q 1406 3038 1543 3061 
Q 1681 3084 1819 3084 
Q 2600 3084 3056 2656 
Q 3513 2228 3513 1497 
Q 3513 744 3044 326 
Q 2575 -91 1722 -91 
Q 1428 -91 1123 -41 
Q 819 9 494 109 
L 494 744 
Q 775 591 1075 516 
Q 1375 441 1709 441 
Q 2250 441 2565 725 
Q 2881 1009 2881 1497 
Q 2881 1984 2565 2268 
Q 2250 2553 1709 2553 
Q 1456 2553 1204 2497 
Q 953 2441 691 2322 
L 691 4666 
z
" transform="scale(0.015625)"/>
       </defs>
       <use xlink:href="#DejaVuSans-35"/>
       <use xlink:href="#DejaVuSans-30" x="63.623047"/>
       <use xlink:href="#DejaVuSans-30" x="127.246094"/>
       <use xlink:href="#DejaVuSans-30" x="190.869141"/>
       <use xlink:href="#DejaVuSans-30" x="254.492188"/>
      </g>
     </g>
    </g>
    <g id="text_7">
     <!-- timesteps -->
     <g transform="translate(211.443594 335.860562) scale(0.1 -0.1)">
      <defs>
       <path id="DejaVuSans-74" d="M 1172 4494 
L 1172 3500 
L 2356 3500 
L 2356 3053 
L 1172 3053 
L 1172 1153 
Q 1172 725 1289 603 
Q 1406 481 1766 481 
L 2356 481 
L 2356 0 
L 1766 0 
Q 1100 0 847 248 
Q 594 497 594 1153 
L 594 3053 
L 172 3053 
L 172 3500 
L 594 3500 
L 594 4494 
L 1172 4494 
z
" transform="scale(0.015625)"/>
       <path id="DejaVuSans-69" d="M 603 3500 
L 1178 3500 
L 1178 0 
L 603 0 
L 603 3500 
z
M 603 4863 
L 1178 4863 
L 1178 4134 
L 603 4134 
L 603 4863 
z
" transform="scale(0.015625)"/>
       <path id="DejaVuSans-6d" d="M 3328 2828 
Q 3544 3216 3844 3400 
Q 4144 3584 4550 3584 
Q 5097 3584 5394 3201 
Q 5691 2819 5691 2113 
L 5691 0 
L 5113 0 
L 5113 2094 
Q 5113 2597 4934 2840 
Q 4756 3084 4391 3084 
Q 3944 3084 3684 2787 
Q 3425 2491 3425 1978 
L 3425 0 
L 2847 0 
L 2847 2094 
Q 2847 2600 2669 2842 
Q 2491 3084 2119 3084 
Q 1678 3084 1418 2786 
Q 1159 2488 1159 1978 
L 1159 0 
L 581 0 
L 581 3500 
L 1159 3500 
L 1159 2956 
Q 1356 3278 1631 3431 
Q 1906 3584 2284 3584 
Q 2666 3584 2933 3390 
Q 3200 3197 3328 2828 
z
" transform="scale(0.015625)"/>
       <path id="DejaVuSans-65" d="M 3597 1894 
L 3597 1613 
L 953 1613 
Q 991 1019 1311 708 
Q 1631 397 2203 397 
Q 2534 397 2845 478 
Q 3156 559 3463 722 
L 3463 178 
Q 3153 47 2828 -22 
Q 2503 -91 2169 -91 
Q 1331 -91 842 396 
Q 353 884 353 1716 
Q 353 2575 817 3079 
Q 1281 3584 2069 3584 
Q 2775 3584 3186 3129 
Q 3597 2675 3597 1894 
z
M 3022 2063 
Q 3016 2534 2758 2815 
Q 2500 3097 2075 3097 
Q 1594 3097 1305 2825 
Q 1016 2553 972 2059 
L 3022 2063 
z
" transform="scale(0.015625)"/>
       <path id="DejaVuSans-73" d="M 2834 3397 
L 2834 2853 
Q 2591 2978 2328 3040 
Q 2066 3103 1784 3103 
Q 1356 3103 1142 2972 
Q 928 2841 928 2578 
Q 928 2378 1081 2264 
Q 1234 2150 1697 2047 
L 1894 2003 
Q 2506 1872 2764 1633 
Q 3022 1394 3022 966 
Q 3022 478 2636 193 
Q 2250 -91 1575 -91 
Q 1294 -91 989 -36 
Q 684 19 347 128 
L 347 722 
Q 666 556 975 473 
Q 1284 391 1588 391 
Q 1994 391 2212 530 
Q 2431 669 2431 922 
Q 2431 1156 2273 1281 
Q 2116 1406 1581 1522 
L 1381 1569 
Q 847 1681 609 1914 
Q 372 2147 372 2553 
Q 372 3047 722 3315 
Q 1072 3584 1716 3584 
Q 2034 3584 2315 3537 
Q 2597 3491 2834 3397 
z
" transform="scale(0.015625)"/>
       <path id="DejaVuSans-70" d="M 1159 525 
L 1159 -1331 
L 581 -1331 
L 581 3500 
L 1159 3500 
L 1159 2969 
Q 1341 3281 1617 3432 
Q 1894 3584 2278 3584 
Q 2916 3584 3314 3078 
Q 3713 2572 3713 1747 
Q 3713 922 3314 415 
Q 2916 -91 2278 -91 
Q 1894 -91 1617 61 
Q 1341 213 1159 525 
z
M 3116 1747 
Q 3116 2381 2855 2742 
Q 2594 3103 2138 3103 
Q 1681 3103 1420 2742 
Q 1159 2381 1159 1747 
Q 1159 1113 1420 752 
Q 1681 391 2138 391 
Q 2594 391 2855 752 
Q 3116 1113 3116 1747 
z
" transform="scale(0.015625)"/>
      </defs>
      <use xlink:href="#DejaVuSans-74"/>
      <use xlink:href="#DejaVuSans-69" x="39.208984"/>
      <use xlink:href="#DejaVuSans-6d" x="66.992188"/>
      <use xlink:href="#DejaVuSans-65" x="164.404297"/>
      <use xlink:href="#DejaVuSans-73" x="225.927734"/>
      <use xlink:href="#DejaVuSans-74" x="278.027344"/>
      <use xlink:href="#DejaVuSans-65" x="317.236328"/>
      <use xlink:href="#DejaVuSans-70" x="378.759766"/>
      <use xlink:href="#DejaVuSans-73" x="442.236328"/>
     </g>
    </g>
   </g>
   <g id="matplotlib.axis_2">
    <g id="ytick_1">
     <g id="line2d_7">
      <defs>
       <path id="m132a4fb95f" d="M 0 0 
L -3.5 0 
" style="stroke: #000000; stroke-width: 0.8"/>
      </defs>
      <g>
       <use xlink:href="#m132a4fb95f" x="57.6" y="296.106005" style="stroke: #000000; stroke-width: 0.8"/>
      </g>
     </g>
     <g id="text_8">
      <!-- 0 -->
      <g transform="translate(44.2375 299.905224) scale(0.1 -0.1)">
       <use xlink:href="#DejaVuSans-30"/>
      </g>
     </g>
    </g>
    <g id="ytick_2">
     <g id="line2d_8">
      <g>
       <use xlink:href="#m132a4fb95f" x="57.6" y="262.232518" style="stroke: #000000; stroke-width: 0.8"/>
      </g>
     </g>
     <g id="text_9">
      <!-- 200 -->
      <g transform="translate(31.5125 266.031736) scale(0.1 -0.1)">
       <use xlink:href="#DejaVuSans-32"/>
       <use xlink:href="#DejaVuSans-30" x="63.623047"/>
       <use xlink:href="#DejaVuSans-30" x="127.246094"/>
      </g>
     </g>
    </g>
    <g id="ytick_3">
     <g id="line2d_9">
      <g>
       <use xlink:href="#m132a4fb95f" x="57.6" y="228.35903" style="stroke: #000000; stroke-width: 0.8"/>
      </g>
     </g>
     <g id="text_10">
      <!-- 400 -->
      <g transform="translate(31.5125 232.158249) scale(0.1 -0.1)">
       <use xlink:href="#DejaVuSans-34"/>
       <use xlink:href="#DejaVuSans-30" x="63.623047"/>
       <use xlink:href="#DejaVuSans-30" x="127.246094"/>
      </g>
     </g>
    </g>
    <g id="ytick_4">
     <g id="line2d_10">
      <g>
       <use xlink:href="#m132a4fb95f" x="57.6" y="194.485543" style="stroke: #000000; stroke-width: 0.8"/>
      </g>
     </g>
     <g id="text_11">
      <!-- 600 -->
      <g transform="translate(31.5125 198.284761) scale(0.1 -0.1)">
       <defs>
        <path id="DejaVuSans-36" d="M 2113 2584 
Q 1688 2584 1439 2293 
Q 1191 2003 1191 1497 
Q 1191 994 1439 701 
Q 1688 409 2113 409 
Q 2538 409 2786 701 
Q 3034 994 3034 1497 
Q 3034 2003 2786 2293 
Q 2538 2584 2113 2584 
z
M 3366 4563 
L 3366 3988 
Q 3128 4100 2886 4159 
Q 2644 4219 2406 4219 
Q 1781 4219 1451 3797 
Q 1122 3375 1075 2522 
Q 1259 2794 1537 2939 
Q 1816 3084 2150 3084 
Q 2853 3084 3261 2657 
Q 3669 2231 3669 1497 
Q 3669 778 3244 343 
Q 2819 -91 2113 -91 
Q 1303 -91 875 529 
Q 447 1150 447 2328 
Q 447 3434 972 4092 
Q 1497 4750 2381 4750 
Q 2619 4750 2861 4703 
Q 3103 4656 3366 4563 
z
" transform="scale(0.015625)"/>
       </defs>
       <use xlink:href="#DejaVuSans-36"/>
       <use xlink:href="#DejaVuSans-30" x="63.623047"/>
       <use xlink:href="#DejaVuSans-30" x="127.246094"/>
      </g>
     </g>
    </g>
    <g id="ytick_5">
     <g id="line2d_11">
      <g>
       <use xlink:href="#m132a4fb95f" x="57.6" y="160.612055" style="stroke: #000000; stroke-width: 0.8"/>
      </g>
     </g>
     <g id="text_12">
      <!-- 800 -->
      <g transform="translate(31.5125 164.411274) scale(0.1 -0.1)">
       <defs>
        <path id="DejaVuSans-38" d="M 2034 2216 
Q 1584 2216 1326 1975 
Q 1069 1734 1069 1313 
Q 1069 891 1326 650 
Q 1584 409 2034 409 
Q 2484 409 2743 651 
Q 3003 894 3003 1313 
Q 3003 1734 2745 1975 
Q 2488 2216 2034 2216 
z
M 1403 2484 
Q 997 2584 770 2862 
Q 544 3141 544 3541 
Q 544 4100 942 4425 
Q 1341 4750 2034 4750 
Q 2731 4750 3128 4425 
Q 3525 4100 3525 3541 
Q 3525 3141 3298 2862 
Q 3072 2584 2669 2484 
Q 3125 2378 3379 2068 
Q 3634 1759 3634 1313 
Q 3634 634 3220 271 
Q 2806 -91 2034 -91 
Q 1263 -91 848 271 
Q 434 634 434 1313 
Q 434 1759 690 2068 
Q 947 2378 1403 2484 
z
M 1172 3481 
Q 1172 3119 1398 2916 
Q 1625 2713 2034 2713 
Q 2441 2713 2670 2916 
Q 2900 3119 2900 3481 
Q 2900 3844 2670 4047 
Q 2441 4250 2034 4250 
Q 1625 4250 1398 4047 
Q 1172 3844 1172 3481 
z
" transform="scale(0.015625)"/>
       </defs>
       <use xlink:href="#DejaVuSans-38"/>
       <use xlink:href="#DejaVuSans-30" x="63.623047"/>
       <use xlink:href="#DejaVuSans-30" x="127.246094"/>
      </g>
     </g>
    </g>
    <g id="ytick_6">
     <g id="line2d_12">
      <g>
       <use xlink:href="#m132a4fb95f" x="57.6" y="126.738567" style="stroke: #000000; stroke-width: 0.8"/>
      </g>
     </g>
     <g id="text_13">
      <!-- 1000 -->
      <g transform="translate(25.15 130.537786) scale(0.1 -0.1)">
       <use xlink:href="#DejaVuSans-31"/>
       <use xlink:href="#DejaVuSans-30" x="63.623047"/>
       <use xlink:href="#DejaVuSans-30" x="127.246094"/>
       <use xlink:href="#DejaVuSans-30" x="190.869141"/>
      </g>
     </g>
    </g>
    <g id="ytick_7">
     <g id="line2d_13">
      <g>
       <use xlink:href="#m132a4fb95f" x="57.6" y="92.86508" style="stroke: #000000; stroke-width: 0.8"/>
      </g>
     </g>
     <g id="text_14">
      <!-- 1200 -->
      <g transform="translate(25.15 96.664299) scale(0.1 -0.1)">
       <use xlink:href="#DejaVuSans-31"/>
       <use xlink:href="#DejaVuSans-32" x="63.623047"/>
       <use xlink:href="#DejaVuSans-30" x="127.246094"/>
       <use xlink:href="#DejaVuSans-30" x="190.869141"/>
      </g>
     </g>
    </g>
    <g id="ytick_8">
     <g id="line2d_14">
      <g>
       <use xlink:href="#m132a4fb95f" x="57.6" y="58.991592" style="stroke: #000000; stroke-width: 0.8"/>
      </g>
     </g>
     <g id="text_15">
      <!-- 1400 -->
      <g transform="translate(25.15 62.790811) scale(0.1 -0.1)">
       <use xlink:href="#DejaVuSans-31"/>
       <use xlink:href="#DejaVuSans-34" x="63.623047"/>
       <use xlink:href="#DejaVuSans-30" x="127.246094"/>
       <use xlink:href="#DejaVuSans-30" x="190.869141"/>
      </g>
     </g>
    </g>
    <g id="text_16">
     <!-- rewards -->
     <g transform="translate(19.070312 194.447531) rotate(-90) scale(0.1 -0.1)">
      <defs>
       <path id="DejaVuSans-72" d="M 2631 2963 
Q 2534 3019 2420 3045 
Q 2306 3072 2169 3072 
Q 1681 3072 1420 2755 
Q 1159 2438 1159 1844 
L 1159 0 
L 581 0 
L 581 3500 
L 1159 3500 
L 1159 2956 
Q 1341 3275 1631 3429 
Q 1922 3584 2338 3584 
Q 2397 3584 2469 3576 
Q 2541 3569 2628 3553 
L 2631 2963 
z
" transform="scale(0.015625)"/>
       <path id="DejaVuSans-77" d="M 269 3500 
L 844 3500 
L 1563 769 
L 2278 3500 
L 2956 3500 
L 3675 769 
L 4391 3500 
L 4966 3500 
L 4050 0 
L 3372 0 
L 2619 2869 
L 1863 0 
L 1184 0 
L 269 3500 
z
" transform="scale(0.015625)"/>
       <path id="DejaVuSans-61" d="M 2194 1759 
Q 1497 1759 1228 1600 
Q 959 1441 959 1056 
Q 959 750 1161 570 
Q 1363 391 1709 391 
Q 2188 391 2477 730 
Q 2766 1069 2766 1631 
L 2766 1759 
L 2194 1759 
z
M 3341 1997 
L 3341 0 
L 2766 0 
L 2766 531 
Q 2569 213 2275 61 
Q 1981 -91 1556 -91 
Q 1019 -91 701 211 
Q 384 513 384 1019 
Q 384 1609 779 1909 
Q 1175 2209 1959 2209 
L 2766 2209 
L 2766 2266 
Q 2766 2663 2505 2880 
Q 2244 3097 1772 3097 
Q 1472 3097 1187 3025 
Q 903 2953 641 2809 
L 641 3341 
Q 956 3463 1253 3523 
Q 1550 3584 1831 3584 
Q 2591 3584 2966 3190 
Q 3341 2797 3341 1997 
z
" transform="scale(0.015625)"/>
       <path id="DejaVuSans-64" d="M 2906 2969 
L 2906 4863 
L 3481 4863 
L 3481 0 
L 2906 0 
L 2906 525 
Q 2725 213 2448 61 
Q 2172 -91 1784 -91 
Q 1150 -91 751 415 
Q 353 922 353 1747 
Q 353 2572 751 3078 
Q 1150 3584 1784 3584 
Q 2172 3584 2448 3432 
Q 2725 3281 2906 2969 
z
M 947 1747 
Q 947 1113 1208 752 
Q 1469 391 1925 391 
Q 2381 391 2643 752 
Q 2906 1113 2906 1747 
Q 2906 2381 2643 2742 
Q 2381 3103 1925 3103 
Q 1469 3103 1208 2742 
Q 947 2381 947 1747 
z
" transform="scale(0.015625)"/>
      </defs>
      <use xlink:href="#DejaVuSans-72"/>
      <use xlink:href="#DejaVuSans-65" x="38.863281"/>
      <use xlink:href="#DejaVuSans-77" x="100.386719"/>
      <use xlink:href="#DejaVuSans-61" x="182.173828"/>
      <use xlink:href="#DejaVuSans-72" x="243.453125"/>
      <use xlink:href="#DejaVuSans-64" x="282.816406"/>
      <use xlink:href="#DejaVuSans-73" x="346.292969"/>
     </g>
    </g>
   </g>
   <g id="line2d_15">
    <path d="M 73.832727 294.336737 
L 74.035106 293.526464 
L 74.106918 295.105779 
L 74.211371 294.447694 
L 74.426807 291.677378 
L 74.590015 294.505189 
L 74.76628 293.697517 
L 74.857677 295.029019 
L 74.942546 294.343784 
L 75.079641 294.958013 
L 75.151453 294.89432 
L 75.366888 294.389769 
L 75.445228 294.441991 
L 75.582323 293.530459 
L 75.699834 293.781814 
L 75.941382 293.808798 
L 76.052364 294.132896 
L 76.235158 293.491314 
L 76.496292 294.922052 
L 76.561575 295.028096 
L 76.679085 292.703612 
L 76.940219 295.082461 
L 77.044673 294.568136 
L 77.462487 288.687933 
L 77.599582 291.646959 
L 77.84113 294.075822 
L 78.069623 290.093409 
L 78.174076 293.913385 
L 78.311171 293.279125 
L 78.715929 278.887856 
L 78.774684 295.370186 
L 78.859552 294.870555 
L 78.983591 293.254217 
L 79.159856 294.520799 
L 79.355706 290.995058 
L 79.479745 292.832574 
L 79.636425 292.743287 
L 79.69518 295.092746 
L 79.793105 294.862384 
L 79.917144 294.814425 
L 80.008541 295.050309 
L 80.165221 291.457083 
L 80.3676 294.245193 
L 80.654847 284.811229 
L 80.811527 294.547765 
L 80.961679 292.142595 
L 81.327266 278.111827 
L 81.418663 294.769032 
L 81.555758 292.672156 
L 81.647155 294.652039 
L 81.725495 294.553724 
L 81.82342 294.775897 
L 82.045384 288.635839 
L 82.169423 294.515436 
L 82.267348 294.497911 
L 82.587237 291.928146 
L 82.84837 289.479246 
L 82.933239 294.555241 
L 83.096447 291.827789 
L 83.285769 291.033736 
L 83.514261 294.774819 
L 83.808037 288.653365 
L 83.879849 295.293545 
L 84.206266 285.797241 
L 84.304191 294.936946 
L 84.395588 294.092732 
L 84.754647 284.287064 
L 85.100649 281.991229 
L 85.276914 294.449535 
L 85.642502 285.498632 
L 85.942805 294.742108 
L 86.158241 291.450595 
L 86.295336 294.48498 
L 86.380204 294.439447 
L 86.536885 294.352649 
L 86.75232 293.31046 
L 86.843717 293.691808 
L 87.046095 290.549981 
L 87.163606 294.712351 
L 87.398626 289.665353 
L 87.587948 294.581292 
L 87.77727 290.08315 
L 87.947007 294.766299 
L 88.031875 294.37811 
L 88.384406 289.738758 
L 88.639011 294.222432 
L 88.88056 294.051165 
L 88.971957 294.758335 
L 89.082939 294.63461 
L 89.291846 293.787073 
L 89.389771 294.629009 
L 89.474639 294.367836 
L 89.579093 294.530626 
L 89.70966 294.097422 
L 89.781472 294.672 
L 89.931623 293.951435 
L 90.06219 294.506142 
L 90.258041 294.462101 
L 90.349438 293.863647 
L 90.440834 294.039816 
L 90.688911 290.10179 
L 90.767252 294.625844 
L 90.936988 292.955713 
L 91.067555 294.632931 
L 91.224236 292.031971 
L 91.478841 293.120618 
L 91.64205 294.834666 
L 91.766088 293.96717 
L 91.818315 295.298285 
L 91.87707 294.894579 
L 91.988052 294.02998 
L 92.059864 295.077003 
L 92.536433 285.314284 
L 92.660471 294.932652 
L 92.791038 293.68955 
L 93.039115 293.28341 
L 93.469986 277.439061 
L 93.600553 293.688092 
L 93.718063 293.85992 
L 93.8878 290.705721 
L 93.959612 294.733751 
L 94.057537 294.011682 
L 94.181575 293.961858 
L 94.312142 295.15954 
L 94.449238 293.488537 
L 94.579804 294.867189 
L 94.827881 292.783209 
L 94.958448 293.515501 
L 95.036788 294.757162 
L 95.121657 294.246521 
L 95.297922 293.968679 
L 95.624339 288.552633 
L 95.70268 294.29392 
L 95.82019 294.327459 
L 96.002983 294.009722 
L 96.238004 288.08465 
L 96.505666 289.020762 
L 96.610119 294.003544 
L 96.96265 282.087844 
L 97.112802 294.677975 
L 97.406577 293.621129 
L 97.530616 293.799092 
L 97.628541 295.050223 
L 97.778693 292.471709 
L 97.922317 293.978855 
L 98.14428 294.383064 
L 98.229149 294.885406 
L 98.314017 294.65074 
L 98.451112 293.728413 
L 98.620849 294.549372 
L 98.888511 288.127876 
L 98.966852 294.445946 
L 99.05172 294.369529 
L 99.2084 295.245172 
L 99.32591 293.554441 
L 99.456477 293.278441 
L 99.730668 294.428335 
L 99.887348 295.488 
L 100.128897 290.669007 
L 100.324747 295.27742 
L 100.664221 292.830117 
L 100.840486 290.1502 
L 101.467207 295.037671 
L 101.565132 294.606162 
L 101.774039 288.890878 
L 101.956833 290.311395 
L 102.04823 295.103256 
L 102.159212 294.054866 
L 102.224495 295.045425 
L 102.348534 294.967469 
L 102.459516 294.468465 
L 102.557441 294.883369 
L 102.83816 290.036832 
L 102.923028 294.874371 
L 103.040538 293.052641 
L 103.282087 294.79781 
L 103.412654 293.376244 
L 103.497522 294.427861 
L 103.673788 290.460933 
L 103.771713 294.414724 
L 104.124243 290.697288 
L 104.444132 282.612547 
L 104.555114 293.524585 
L 104.803191 295.161939 
L 104.914173 294.985793 
L 105.038211 294.134267 
L 105.27976 291.557822 
L 105.371157 294.686575 
L 105.501724 294.652711 
L 105.730216 288.066732 
L 105.906481 294.389907 
L 105.971765 294.746732 
L 106.154558 294.593195 
L 106.363465 291.474851 
L 106.598486 294.002875 
L 106.702939 293.705309 
L 107.186037 272.047552 
L 107.283962 294.441037 
L 107.590794 291.311286 
L 107.754003 291.464178 
L 108.054306 294.971056 
L 108.184873 292.246058 
L 108.387252 294.080878 
L 108.615744 290.408694 
L 108.824651 289.084167 
L 108.922576 294.151152 
L 109.079256 293.417192 
L 109.562354 285.516095 
L 109.686392 293.967966 
L 109.823488 294.109186 
L 109.993225 291.288536 
L 110.09115 294.838162 
L 110.450209 288.698338 
L 110.743984 294.962883 
L 110.933306 294.475231 
L 111.240138 286.826563 
L 111.54697 293.145691 
L 111.736292 294.954541 
L 111.951728 292.283784 
L 112.167163 295.080619 
L 112.304258 294.885382 
L 112.363013 294.940028 
L 112.643732 294.825788 
L 112.839582 294.248462 
L 113.094188 288.459194 
L 113.231283 293.597377 
L 113.551172 286.064342 
L 113.622984 294.923268 
L 113.707852 294.012599 
L 113.851476 292.386303 
L 114.014684 294.417405 
L 114.138723 294.252858 
L 114.321517 292.487833 
L 114.491253 294.637665 
L 114.608764 293.007767 
L 114.713217 293.904453 
L 114.882954 291.384212 
L 114.974351 293.745118 
L 115.091861 293.522653 
L 115.228956 291.451451 
L 115.385637 291.884439 
L 115.457448 294.685746 
L 115.561902 294.54031 
L 116.031943 292.688842 
L 116.129868 294.776226 
L 116.31919 293.207357 
L 116.423643 294.963271 
L 116.691305 293.931577 
L 116.887156 294.318859 
L 116.978553 293.766487 
L 117.246215 291.422453 
L 117.34414 293.69204 
L 117.559575 293.943553 
L 117.703199 295.255309 
L 117.912106 293.110635 
L 117.977389 295.068278 
L 118.199353 291.406325 
L 118.388675 294.221234 
L 118.499657 294.503001 
L 118.675922 294.397578 
L 118.976226 293.293474 
L 119.113321 294.808061 
L 119.217775 293.834942 
L 119.296115 294.668904 
L 119.43321 292.443096 
L 119.602947 291.581704 
L 119.798797 294.390598 
L 119.929364 293.559606 
L 120.37982 280.00166 
L 120.523443 293.864523 
L 120.640954 293.762027 
L 120.791105 295.101237 
L 121.372128 282.00764 
L 121.515752 294.422923 
L 121.698545 290.794818 
L 121.887867 294.282466 
L 122.109831 291.386708 
L 122.246926 292.796097 
L 122.331795 295.269318 
L 122.553758 293.601199 
L 122.671268 293.658056 
L 122.775722 293.969003 
L 122.827949 295.391108 
L 123.069497 290.810374 
L 123.271876 295.116142 
L 123.4155 293.451419 
L 123.526482 294.22337 
L 123.676633 293.334674 
L 123.84637 290.074826 
L 123.976937 294.427348 
L 124.074862 294.407383 
L 124.192373 292.791361 
L 124.335996 293.340314 
L 124.87132 265.358203 
L 124.943132 295.096365 
L 125.289134 290.992144 
L 125.419701 293.303396 
L 125.687363 290.882823 
L 125.889742 294.076332 
L 126.190046 287.552437 
L 126.444651 293.908182 
L 126.503406 294.953805 
L 126.594803 294.731508 
L 126.738427 294.736832 
L 126.836352 295.072801 
L 127.208468 277.820686 
L 127.384733 294.529244 
L 127.47613 294.212576 
L 127.600168 294.674389 
L 127.698093 294.280646 
L 127.972284 288.602572 
L 128.096322 293.392485 
L 128.625118 271.564516 
L 128.749157 293.375024 
L 128.945007 290.122309 
L 129.108216 294.903824 
L 129.225726 293.705017 
L 129.369349 294.215408 
L 129.663125 290.727371 
L 130.107052 277.206155 
L 130.315959 294.751158 
L 130.70766 289.530495 
L 130.779472 294.762139 
L 131.092832 286.795921 
L 131.229927 295.052619 
L 131.301739 294.650127 
L 131.393136 294.501569 
L 131.556345 293.872841 
L 131.699968 292.401882 
L 131.81095 294.238157 
L 132.0068 289.656392 
L 132.248349 294.696316 
L 132.476841 290.131517 
L 132.607408 294.445171 
L 132.744503 294.793995 
L 132.91424 290.494193 
L 133.136204 295.24279 
L 133.273299 292.349871 
L 133.475678 291.703209 
L 133.684585 291.571353 
L 134.115455 275.091407 
L 134.187267 294.87779 
L 134.324362 294.126777 
L 134.402703 294.489888 
L 134.546326 292.602623 
L 134.637723 294.838302 
L 134.781347 293.452563 
L 134.879272 294.369217 
L 134.996782 293.953122 
L 135.088179 294.373185 
L 135.362369 292.974137 
L 135.460294 294.224834 
L 135.708371 293.437291 
L 135.923807 291.239034 
L 136.015204 294.52008 
L 136.452603 280.755232 
L 136.576641 294.047574 
L 136.668038 293.939344 
L 136.726793 295.34401 
L 137.072795 285.451615 
L 137.314344 287.569158 
L 137.80397 294.844945 
L 137.99982 290.981947 
L 138.234841 288.60584 
L 138.384992 294.723503 
L 138.600428 295.289825 
L 138.698353 294.880892 
L 138.900732 292.906668 
L 139.06394 295.090731 
L 139.148809 294.674601 
L 139.442584 283.247807 
L 139.690661 293.750492 
L 140.147645 277.914709 
L 140.258627 294.084111 
L 140.428364 294.524226 
L 140.552403 292.89929 
L 142.034337 261.721401 
L 142.321584 284.122612 
L 142.876493 277.91429 
L 143.268194 281.604511 
L 143.490157 286.172782 
L 143.751291 284.595755 
L 144.038538 284.138241 
L 144.299672 284.738073 
L 144.567334 284.382629 
L 144.867638 282.478949 
L 145.148357 283.554729 
L 145.448661 282.504184 
L 145.827305 279.808337 
L 146.532366 256.696124 
L 147.074218 264.354314 
L 147.811921 249.500414 
L 148.373359 262.507324 
L 148.902155 265.267643 
L 149.528876 262.346662 
L 150.083785 264.70237 
L 150.671336 261.289575 
L 151.226245 265.306903 
L 151.768098 264.151831 
L 152.30995 264.388388 
L 152.890973 260.739283 
L 153.419769 265.879127 
L 153.955093 264.99578 
L 154.523059 261.881826 
L 155.064911 264.539289 
L 155.587179 265.20646 
L 156.115975 265.266359 
L 156.736167 261.09536 
L 157.304133 263.207031 
L 157.872099 263.421375 
L 158.557575 259.835632 
L 159.125541 261.783007 
L 159.784904 256.717925 
L 160.489965 249.363095 
L 161.410462 224.373903 
L 162.076353 252.867254 
L 163.068661 226.542237 
L 163.989157 224.772824 
L 164.798672 237.354923 
L 165.582073 242.234356 
L 166.332833 241.766896 
L 167.129291 242.672335 
L 167.912692 241.453026 
L 168.735264 238.494004 
L 169.551307 243.274875 
L 170.347764 238.969217 
L 171.124637 243.269158 
L 171.953737 241.190109 
L 172.717553 250.577609 
L 173.533596 247.326701 
L 174.343111 245.46513 
L 175.191796 242.208662 
L 176.007839 244.879179 
L 176.771655 246.496177 
L 178.358043 248.304389 
L 179.187142 241.25174 
L 180.029299 242.168235 
L 180.120695 294.456406 
L 180.877983 249.520789 
L 181.713611 243.320573 
L 181.889877 294.708888 
L 182.673278 245.676584 
L 183.482793 242.301722 
L 184.292307 243.808456 
L 185.10835 241.463636 
L 185.917865 243.723256 
L 186.779606 242.395336 
L 187.700103 239.457021 
L 188.561844 240.233863 
L 189.397472 242.150539 
L 190.259214 239.988446 
L 191.147068 239.083977 
L 192.021866 237.7449 
L 192.674701 258.731035 
L 193.582141 235.539603 
L 194.496109 233.513076 
L 195.449247 229.659742 
L 196.389329 233.634919 
L 197.087861 258.726933 
L 197.864734 251.200273 
L 199.157346 209.880706 
L 200.352033 209.062888 
L 201.553249 207.642111 
L 202.787106 211.587965 
L 203.688017 244.046641 
L 205.019799 197.422701 
L 205.842371 233.798639 
L 206.723697 227.485074 
L 207.61808 227.382962 
L 208.551633 223.317602 
L 209.439488 226.653265 
L 210.288173 231.053219 
L 211.162971 227.531899 
L 212.005127 230.987043 
L 212.866869 229.42002 
L 213.774309 225.039815 
L 215.50432 230.805396 
L 216.333419 232.878808 
L 217.188632 229.939957 
L 218.083016 227.319593 
L 218.983927 226.345208 
L 219.87831 226.414146 
L 220.831448 220.975542 
L 221.321074 270.313381 
L 222.470063 212.794804 
L 223.534183 213.180194 
L 224.598303 210.917401 
L 225.551441 222.714833 
L 225.63631 293.249292 
L 226.609033 219.171573 
L 227.496888 228.150319 
L 228.82867 188.140387 
L 229.742638 227.189618 
L 230.943853 198.214853 
L 232.0602 205.310527 
L 233.019867 221.168417 
L 234.155798 201.725435 
L 235.037125 237.188344 
L 235.944565 236.753044 
L 236.962986 224.109183 
L 238.216428 201.531112 
L 239.450285 199.592561 
L 240.462179 217.172628 
L 241.291278 252.175162 
L 242.446795 206.578429 
L 243.367292 223.108115 
L 245.058133 166.436186 
L 246.56618 175.751746 
L 247.584602 216.033072 
L 249.190575 183.308457 
L 250.450545 206.35545 
L 251.279645 260.12587 
L 252.839919 165.380217 
L 254.439363 168.518611 
L 255.47737 216.502995 
L 257.664365 127.197563 
L 259.178941 172.859085 
L 260.373628 199.134437 
L 261.483446 205.635749 
L 262.057941 264.168217 
L 263.141646 212.511513 
L 264.271049 210.056706 
L 265.439623 203.060677 
L 266.379704 222.183674 
L 267.613561 196.294422 
L 269.950708 210.621135 
L 270.903847 221.177446 
L 271.967967 210.499491 
L 272.86235 226.350272 
L 273.795903 222.971452 
L 274.79474 218.780709 
L 275.754406 220.062311 
L 276.818526 215.229206 
L 277.921816 203.249229 
L 279.279712 182.460781 
L 280.187152 223.626726 
L 281.192517 216.378726 
L 282.145655 221.573819 
L 283.098793 220.209066 
L 284.051931 221.067576 
L 285.011598 219.56523 
L 285.997378 218.275593 
L 286.943988 221.228247 
L 287.916711 219.209606 
L 288.830679 224.928808 
L 289.783817 220.73255 
L 290.710842 222.950905 
L 291.696622 218.663881 
L 292.636704 221.851344 
L 293.576785 221.941474 
L 294.458112 229.189108 
L 295.424307 219.583462 
L 296.24035 236.31779 
L 297.193488 222.019996 
L 298.231494 215.111808 
L 299.080179 235.25959 
L 300.052902 221.175111 
L 301.241061 198.389203 
L 302.070161 235.410846 
L 303.016771 222.586255 
L 305.641165 173.073501 
L 307.005589 183.274105 
L 308.356956 184.204867 
L 309.466774 212.777692 
L 310.028212 262.794068 
L 311.053162 216.951234 
L 312.528568 176.445028 
L 314.049672 169.235074 
L 314.911413 241.136985 
L 315.688286 249.233946 
L 316.902558 194.591597 
L 318.299624 191.741823 
L 319.10261 245.551997 
L 319.957823 241.158278 
L 320.728168 247.055384 
L 321.916326 195.719981 
L 322.804181 236.248632 
L 323.581054 247.5018 
L 325.023818 172.407279 
L 326.453525 172.231745 
L 327.883233 169.307598 
L 329.339053 170.133597 
L 330.690421 178.462915 
L 332.42696 147.43769 
L 333.830554 175.35496 
L 335.221091 176.591898 
L 336.631214 176.831887 
L 338.060921 173.862822 
L 340.012896 124.543583 
L 340.881166 243.057459 
L 342.787442 136.255991 
L 343.995186 218.401483 
L 345.340024 211.882035 
L 346.005916 260.183344 
L 347.768568 172.947256 
L 350.882589 53.568 
L 351.555008 260.378154 
L 352.390636 249.275243 
L 354.381781 135.573075 
L 354.97586 260.660229 
L 356.953948 138.722102 
L 358.742715 141.50481 
L 360.25729 194.319115 
L 361.249599 222.502436 
L 362.437757 206.143444 
L 363.371311 232.683374 
L 364.696564 190.835818 
L 365.604004 234.088141 
L 366.994541 182.214409 
L 368.006435 218.897716 
L 369.553652 164.343041 
L 370.748339 201.464487 
L 371.832044 214.602032 
L 373.137713 185.896974 
L 374.365042 200.075043 
L 375.957958 166.449377 
L 377.596572 155.350241 
L 378.523597 233.762035 
L 379.946776 178.293531 
L 381.27203 187.800574 
L 382.603812 178.857172 
L 384.529673 125.472057 
L 385.48934 228.411674 
L 386.768895 197.149947 
L 388.224716 189.714433 
L 389.915557 163.304307 
L 391.528058 178.249042 
L 392.448555 236.893569 
L 394.394001 152.632894 
L 395.89552 171.269878 
L 396.470014 265.545608 
L 397.847495 188.528308 
L 398.487273 260.182237 
L 398.487273 260.182237 
" clip-path="url(#p1e93fe804c)" style="fill: none; stroke: #1f77b4; stroke-width: 1.5; stroke-linecap: square"/>
   </g>
   <g id="patch_3">
    <path d="M 57.6 307.584 
L 57.6 41.472 
" style="fill: none; stroke: #000000; stroke-width: 0.8; stroke-linejoin: miter; stroke-linecap: square"/>
   </g>
   <g id="patch_4">
    <path d="M 414.72 307.584 
L 414.72 41.472 
" style="fill: none; stroke: #000000; stroke-width: 0.8; stroke-linejoin: miter; stroke-linecap: square"/>
   </g>
   <g id="patch_5">
    <path d="M 57.6 307.584 
L 414.72 307.584 
" style="fill: none; stroke: #000000; stroke-width: 0.8; stroke-linejoin: miter; stroke-linecap: square"/>
   </g>
   <g id="patch_6">
    <path d="M 57.6 41.472 
L 414.72 41.472 
" style="fill: none; stroke: #000000; stroke-width: 0.8; stroke-linejoin: miter; stroke-linecap: square"/>
   </g>
   <g id="text_17">
    <!-- learning curve -->
    <g transform="translate(192.96375 35.472) scale(0.12 -0.12)">
     <defs>
      <path id="DejaVuSans-6c" d="M 603 4863 
L 1178 4863 
L 1178 0 
L 603 0 
L 603 4863 
z
" transform="scale(0.015625)"/>
      <path id="DejaVuSans-6e" d="M 3513 2113 
L 3513 0 
L 2938 0 
L 2938 2094 
Q 2938 2591 2744 2837 
Q 2550 3084 2163 3084 
Q 1697 3084 1428 2787 
Q 1159 2491 1159 1978 
L 1159 0 
L 581 0 
L 581 3500 
L 1159 3500 
L 1159 2956 
Q 1366 3272 1645 3428 
Q 1925 3584 2291 3584 
Q 2894 3584 3203 3211 
Q 3513 2838 3513 2113 
z
" transform="scale(0.015625)"/>
      <path id="DejaVuSans-67" d="M 2906 1791 
Q 2906 2416 2648 2759 
Q 2391 3103 1925 3103 
Q 1463 3103 1205 2759 
Q 947 2416 947 1791 
Q 947 1169 1205 825 
Q 1463 481 1925 481 
Q 2391 481 2648 825 
Q 2906 1169 2906 1791 
z
M 3481 434 
Q 3481 -459 3084 -895 
Q 2688 -1331 1869 -1331 
Q 1566 -1331 1297 -1286 
Q 1028 -1241 775 -1147 
L 775 -588 
Q 1028 -725 1275 -790 
Q 1522 -856 1778 -856 
Q 2344 -856 2625 -561 
Q 2906 -266 2906 331 
L 2906 616 
Q 2728 306 2450 153 
Q 2172 0 1784 0 
Q 1141 0 747 490 
Q 353 981 353 1791 
Q 353 2603 747 3093 
Q 1141 3584 1784 3584 
Q 2172 3584 2450 3431 
Q 2728 3278 2906 2969 
L 2906 3500 
L 3481 3500 
L 3481 434 
z
" transform="scale(0.015625)"/>
      <path id="DejaVuSans-20" transform="scale(0.015625)"/>
      <path id="DejaVuSans-63" d="M 3122 3366 
L 3122 2828 
Q 2878 2963 2633 3030 
Q 2388 3097 2138 3097 
Q 1578 3097 1268 2742 
Q 959 2388 959 1747 
Q 959 1106 1268 751 
Q 1578 397 2138 397 
Q 2388 397 2633 464 
Q 2878 531 3122 666 
L 3122 134 
Q 2881 22 2623 -34 
Q 2366 -91 2075 -91 
Q 1284 -91 818 406 
Q 353 903 353 1747 
Q 353 2603 823 3093 
Q 1294 3584 2113 3584 
Q 2378 3584 2631 3529 
Q 2884 3475 3122 3366 
z
" transform="scale(0.015625)"/>
      <path id="DejaVuSans-75" d="M 544 1381 
L 544 3500 
L 1119 3500 
L 1119 1403 
Q 1119 906 1312 657 
Q 1506 409 1894 409 
Q 2359 409 2629 706 
Q 2900 1003 2900 1516 
L 2900 3500 
L 3475 3500 
L 3475 0 
L 2900 0 
L 2900 538 
Q 2691 219 2414 64 
Q 2138 -91 1772 -91 
Q 1169 -91 856 284 
Q 544 659 544 1381 
z
M 1991 3584 
L 1991 3584 
z
" transform="scale(0.015625)"/>
      <path id="DejaVuSans-76" d="M 191 3500 
L 800 3500 
L 1894 563 
L 2988 3500 
L 3597 3500 
L 2284 0 
L 1503 0 
L 191 3500 
z
" transform="scale(0.015625)"/>
     </defs>
     <use xlink:href="#DejaVuSans-6c"/>
     <use xlink:href="#DejaVuSans-65" x="27.783203"/>
     <use xlink:href="#DejaVuSans-61" x="89.306641"/>
     <use xlink:href="#DejaVuSans-72" x="150.585938"/>
     <use xlink:href="#DejaVuSans-6e" x="189.949219"/>
     <use xlink:href="#DejaVuSans-69" x="253.328125"/>
     <use xlink:href="#DejaVuSans-6e" x="281.111328"/>
     <use xlink:href="#DejaVuSans-67" x="344.490234"/>
     <use xlink:href="#DejaVuSans-20" x="407.966797"/>
     <use xlink:href="#DejaVuSans-63" x="439.753906"/>
     <use xlink:href="#DejaVuSans-75" x="494.734375"/>
     <use xlink:href="#DejaVuSans-72" x="558.113281"/>
     <use xlink:href="#DejaVuSans-76" x="599.226562"/>
     <use xlink:href="#DejaVuSans-65" x="658.40625"/>
    </g>
   </g>
  </g>
 </g>
 <defs>
  <clipPath id="p1e93fe804c">
   <rect x="57.6" y="41.472" width="357.12" height="266.112"/>
  </clipPath>
 </defs>
</svg>
