<?xml version="1.0" encoding="utf-8" standalone="no"?>
<!DOCTYPE svg PUBLIC "-//W3C//DTD SVG 1.1//EN"
  "http://www.w3.org/Graphics/SVG/1.1/DTD/svg11.dtd">
<svg xmlns:xlink="http://www.w3.org/1999/xlink" width="460.8pt" height="345.6pt" viewBox="0 0 460.8 345.6" xmlns="http://www.w3.org/2000/svg" version="1.1">
 <metadata>
  <rdf:RDF xmlns:dc="http://purl.org/dc/elements/1.1/" xmlns:cc="http://creativecommons.org/ns#" xmlns:rdf="http://www.w3.org/1999/02/22-rdf-syntax-ns#">
   <cc:Work>
    <dc:type rdf:resource="http://purl.org/dc/dcmitype/StillImage"/>
    <dc:date>2023-08-19T13:27:41.359559</dc:date>
    <dc:format>image/svg+xml</dc:format>
    <dc:creator>
     <cc:Agent>
      <dc:title>Matplotlib v3.7.1, https://matplotlib.org/</dc:title>
     </cc:Agent>
    </dc:creator>
   </cc:Work>
  </rdf:RDF>
 </metadata>
 <defs>
  <style type="text/css">*{stroke-linejoin: round; stroke-linecap: butt}</style>
 </defs>
 <g id="figure_1">
  <g id="patch_1">
   <path d="M 0 345.6 
L 460.8 345.6 
L 460.8 0 
L 0 0 
z
" style="fill: #ffffff"/>
  </g>
  <g id="axes_1">
   <g id="patch_2">
    <path d="M 57.6 307.584 
L 414.72 307.584 
L 414.72 41.472 
L 57.6 41.472 
z
" style="fill: #ffffff"/>
   </g>
   <g id="matplotlib.axis_1">
    <g id="xtick_1">
     <g id="line2d_1">
      <defs>
       <path id="mb577dafee5" d="M 0 0 
L 0 3.5 
" style="stroke: #000000; stroke-width: 0.8"/>
      </defs>
      <g>
       <use xlink:href="#mb577dafee5" x="73.624815" y="307.584" style="stroke: #000000; stroke-width: 0.8"/>
      </g>
     </g>
     <g id="text_1">
      <!-- 0 -->
      <g transform="translate(70.443565 322.182437) scale(0.1 -0.1)">
       <defs>
        <path id="DejaVuSans-30" d="M 2034 4250 
Q 1547 4250 1301 3770 
Q 1056 3291 1056 2328 
Q 1056 1369 1301 889 
Q 1547 409 2034 409 
Q 2525 409 2770 889 
Q 3016 1369 3016 2328 
Q 3016 3291 2770 3770 
Q 2525 4250 2034 4250 
z
M 2034 4750 
Q 2819 4750 3233 4129 
Q 3647 3509 3647 2328 
Q 3647 1150 3233 529 
Q 2819 -91 2034 -91 
Q 1250 -91 836 529 
Q 422 1150 422 2328 
Q 422 3509 836 4129 
Q 1250 4750 2034 4750 
z
" transform="scale(0.015625)"/>
       </defs>
       <use xlink:href="#DejaVuSans-30"/>
      </g>
     </g>
    </g>
    <g id="xtick_2">
     <g id="line2d_2">
      <g>
       <use xlink:href="#mb577dafee5" x="138.597307" y="307.584" style="stroke: #000000; stroke-width: 0.8"/>
      </g>
     </g>
     <g id="text_2">
      <!-- 100000 -->
      <g transform="translate(119.509807 322.182437) scale(0.1 -0.1)">
       <defs>
        <path id="DejaVuSans-31" d="M 794 531 
L 1825 531 
L 1825 4091 
L 703 3866 
L 703 4441 
L 1819 4666 
L 2450 4666 
L 2450 531 
L 3481 531 
L 3481 0 
L 794 0 
L 794 531 
z
" transform="scale(0.015625)"/>
       </defs>
       <use xlink:href="#DejaVuSans-31"/>
       <use xlink:href="#DejaVuSans-30" x="63.623047"/>
       <use xlink:href="#DejaVuSans-30" x="127.246094"/>
       <use xlink:href="#DejaVuSans-30" x="190.869141"/>
       <use xlink:href="#DejaVuSans-30" x="254.492188"/>
       <use xlink:href="#DejaVuSans-30" x="318.115234"/>
      </g>
     </g>
    </g>
    <g id="xtick_3">
     <g id="line2d_3">
      <g>
       <use xlink:href="#mb577dafee5" x="203.569798" y="307.584" style="stroke: #000000; stroke-width: 0.8"/>
      </g>
     </g>
     <g id="text_3">
      <!-- 200000 -->
      <g transform="translate(184.482298 322.182437) scale(0.1 -0.1)">
       <defs>
        <path id="DejaVuSans-32" d="M 1228 531 
L 3431 531 
L 3431 0 
L 469 0 
L 469 531 
Q 828 903 1448 1529 
Q 2069 2156 2228 2338 
Q 2531 2678 2651 2914 
Q 2772 3150 2772 3378 
Q 2772 3750 2511 3984 
Q 2250 4219 1831 4219 
Q 1534 4219 1204 4116 
Q 875 4013 500 3803 
L 500 4441 
Q 881 4594 1212 4672 
Q 1544 4750 1819 4750 
Q 2544 4750 2975 4387 
Q 3406 4025 3406 3419 
Q 3406 3131 3298 2873 
Q 3191 2616 2906 2266 
Q 2828 2175 2409 1742 
Q 1991 1309 1228 531 
z
" transform="scale(0.015625)"/>
       </defs>
       <use xlink:href="#DejaVuSans-32"/>
       <use xlink:href="#DejaVuSans-30" x="63.623047"/>
       <use xlink:href="#DejaVuSans-30" x="127.246094"/>
       <use xlink:href="#DejaVuSans-30" x="190.869141"/>
       <use xlink:href="#DejaVuSans-30" x="254.492188"/>
       <use xlink:href="#DejaVuSans-30" x="318.115234"/>
      </g>
     </g>
    </g>
    <g id="xtick_4">
     <g id="line2d_4">
      <g>
       <use xlink:href="#mb577dafee5" x="268.54229" y="307.584" style="stroke: #000000; stroke-width: 0.8"/>
      </g>
     </g>
     <g id="text_4">
      <!-- 300000 -->
      <g transform="translate(249.45479 322.182437) scale(0.1 -0.1)">
       <defs>
        <path id="DejaVuSans-33" d="M 2597 2516 
Q 3050 2419 3304 2112 
Q 3559 1806 3559 1356 
Q 3559 666 3084 287 
Q 2609 -91 1734 -91 
Q 1441 -91 1130 -33 
Q 819 25 488 141 
L 488 750 
Q 750 597 1062 519 
Q 1375 441 1716 441 
Q 2309 441 2620 675 
Q 2931 909 2931 1356 
Q 2931 1769 2642 2001 
Q 2353 2234 1838 2234 
L 1294 2234 
L 1294 2753 
L 1863 2753 
Q 2328 2753 2575 2939 
Q 2822 3125 2822 3475 
Q 2822 3834 2567 4026 
Q 2313 4219 1838 4219 
Q 1578 4219 1281 4162 
Q 984 4106 628 3988 
L 628 4550 
Q 988 4650 1302 4700 
Q 1616 4750 1894 4750 
Q 2613 4750 3031 4423 
Q 3450 4097 3450 3541 
Q 3450 3153 3228 2886 
Q 3006 2619 2597 2516 
z
" transform="scale(0.015625)"/>
       </defs>
       <use xlink:href="#DejaVuSans-33"/>
       <use xlink:href="#DejaVuSans-30" x="63.623047"/>
       <use xlink:href="#DejaVuSans-30" x="127.246094"/>
       <use xlink:href="#DejaVuSans-30" x="190.869141"/>
       <use xlink:href="#DejaVuSans-30" x="254.492188"/>
       <use xlink:href="#DejaVuSans-30" x="318.115234"/>
      </g>
     </g>
    </g>
    <g id="xtick_5">
     <g id="line2d_5">
      <g>
       <use xlink:href="#mb577dafee5" x="333.514781" y="307.584" style="stroke: #000000; stroke-width: 0.8"/>
      </g>
     </g>
     <g id="text_5">
      <!-- 400000 -->
      <g transform="translate(314.427281 322.182437) scale(0.1 -0.1)">
       <defs>
        <path id="DejaVuSans-34" d="M 2419 4116 
L 825 1625 
L 2419 1625 
L 2419 4116 
z
M 2253 4666 
L 3047 4666 
L 3047 1625 
L 3713 1625 
L 3713 1100 
L 3047 1100 
L 3047 0 
L 2419 0 
L 2419 1100 
L 313 1100 
L 313 1709 
L 2253 4666 
z
" transform="scale(0.015625)"/>
       </defs>
       <use xlink:href="#DejaVuSans-34"/>
       <use xlink:href="#DejaVuSans-30" x="63.623047"/>
       <use xlink:href="#DejaVuSans-30" x="127.246094"/>
       <use xlink:href="#DejaVuSans-30" x="190.869141"/>
       <use xlink:href="#DejaVuSans-30" x="254.492188"/>
       <use xlink:href="#DejaVuSans-30" x="318.115234"/>
      </g>
     </g>
    </g>
    <g id="xtick_6">
     <g id="line2d_6">
      <g>
       <use xlink:href="#mb577dafee5" x="398.487273" y="307.584" style="stroke: #000000; stroke-width: 0.8"/>
      </g>
     </g>
     <g id="text_6">
      <!-- 500000 -->
      <g transform="translate(379.399773 322.182437) scale(0.1 -0.1)">
       <defs>
        <path id="DejaVuSans-35" d="M 691 4666 
L 3169 4666 
L 3169 4134 
L 1269 4134 
L 1269 2991 
Q 1406 3038 1543 3061 
Q 1681 3084 1819 3084 
Q 2600 3084 3056 2656 
Q 3513 2228 3513 1497 
Q 3513 744 3044 326 
Q 2575 -91 1722 -91 
Q 1428 -91 1123 -41 
Q 819 9 494 109 
L 494 744 
Q 775 591 1075 516 
Q 1375 441 1709 441 
Q 2250 441 2565 725 
Q 2881 1009 2881 1497 
Q 2881 1984 2565 2268 
Q 2250 2553 1709 2553 
Q 1456 2553 1204 2497 
Q 953 2441 691 2322 
L 691 4666 
z
" transform="scale(0.015625)"/>
       </defs>
       <use xlink:href="#DejaVuSans-35"/>
       <use xlink:href="#DejaVuSans-30" x="63.623047"/>
       <use xlink:href="#DejaVuSans-30" x="127.246094"/>
       <use xlink:href="#DejaVuSans-30" x="190.869141"/>
       <use xlink:href="#DejaVuSans-30" x="254.492188"/>
       <use xlink:href="#DejaVuSans-30" x="318.115234"/>
      </g>
     </g>
    </g>
    <g id="text_7">
     <!-- timesteps -->
     <g transform="translate(211.443594 335.860562) scale(0.1 -0.1)">
      <defs>
       <path id="DejaVuSans-74" d="M 1172 4494 
L 1172 3500 
L 2356 3500 
L 2356 3053 
L 1172 3053 
L 1172 1153 
Q 1172 725 1289 603 
Q 1406 481 1766 481 
L 2356 481 
L 2356 0 
L 1766 0 
Q 1100 0 847 248 
Q 594 497 594 1153 
L 594 3053 
L 172 3053 
L 172 3500 
L 594 3500 
L 594 4494 
L 1172 4494 
z
" transform="scale(0.015625)"/>
       <path id="DejaVuSans-69" d="M 603 3500 
L 1178 3500 
L 1178 0 
L 603 0 
L 603 3500 
z
M 603 4863 
L 1178 4863 
L 1178 4134 
L 603 4134 
L 603 4863 
z
" transform="scale(0.015625)"/>
       <path id="DejaVuSans-6d" d="M 3328 2828 
Q 3544 3216 3844 3400 
Q 4144 3584 4550 3584 
Q 5097 3584 5394 3201 
Q 5691 2819 5691 2113 
L 5691 0 
L 5113 0 
L 5113 2094 
Q 5113 2597 4934 2840 
Q 4756 3084 4391 3084 
Q 3944 3084 3684 2787 
Q 3425 2491 3425 1978 
L 3425 0 
L 2847 0 
L 2847 2094 
Q 2847 2600 2669 2842 
Q 2491 3084 2119 3084 
Q 1678 3084 1418 2786 
Q 1159 2488 1159 1978 
L 1159 0 
L 581 0 
L 581 3500 
L 1159 3500 
L 1159 2956 
Q 1356 3278 1631 3431 
Q 1906 3584 2284 3584 
Q 2666 3584 2933 3390 
Q 3200 3197 3328 2828 
z
" transform="scale(0.015625)"/>
       <path id="DejaVuSans-65" d="M 3597 1894 
L 3597 1613 
L 953 1613 
Q 991 1019 1311 708 
Q 1631 397 2203 397 
Q 2534 397 2845 478 
Q 3156 559 3463 722 
L 3463 178 
Q 3153 47 2828 -22 
Q 2503 -91 2169 -91 
Q 1331 -91 842 396 
Q 353 884 353 1716 
Q 353 2575 817 3079 
Q 1281 3584 2069 3584 
Q 2775 3584 3186 3129 
Q 3597 2675 3597 1894 
z
M 3022 2063 
Q 3016 2534 2758 2815 
Q 2500 3097 2075 3097 
Q 1594 3097 1305 2825 
Q 1016 2553 972 2059 
L 3022 2063 
z
" transform="scale(0.015625)"/>
       <path id="DejaVuSans-73" d="M 2834 3397 
L 2834 2853 
Q 2591 2978 2328 3040 
Q 2066 3103 1784 3103 
Q 1356 3103 1142 2972 
Q 928 2841 928 2578 
Q 928 2378 1081 2264 
Q 1234 2150 1697 2047 
L 1894 2003 
Q 2506 1872 2764 1633 
Q 3022 1394 3022 966 
Q 3022 478 2636 193 
Q 2250 -91 1575 -91 
Q 1294 -91 989 -36 
Q 684 19 347 128 
L 347 722 
Q 666 556 975 473 
Q 1284 391 1588 391 
Q 1994 391 2212 530 
Q 2431 669 2431 922 
Q 2431 1156 2273 1281 
Q 2116 1406 1581 1522 
L 1381 1569 
Q 847 1681 609 1914 
Q 372 2147 372 2553 
Q 372 3047 722 3315 
Q 1072 3584 1716 3584 
Q 2034 3584 2315 3537 
Q 2597 3491 2834 3397 
z
" transform="scale(0.015625)"/>
       <path id="DejaVuSans-70" d="M 1159 525 
L 1159 -1331 
L 581 -1331 
L 581 3500 
L 1159 3500 
L 1159 2969 
Q 1341 3281 1617 3432 
Q 1894 3584 2278 3584 
Q 2916 3584 3314 3078 
Q 3713 2572 3713 1747 
Q 3713 922 3314 415 
Q 2916 -91 2278 -91 
Q 1894 -91 1617 61 
Q 1341 213 1159 525 
z
M 3116 1747 
Q 3116 2381 2855 2742 
Q 2594 3103 2138 3103 
Q 1681 3103 1420 2742 
Q 1159 2381 1159 1747 
Q 1159 1113 1420 752 
Q 1681 391 2138 391 
Q 2594 391 2855 752 
Q 3116 1113 3116 1747 
z
" transform="scale(0.015625)"/>
      </defs>
      <use xlink:href="#DejaVuSans-74"/>
      <use xlink:href="#DejaVuSans-69" x="39.208984"/>
      <use xlink:href="#DejaVuSans-6d" x="66.992188"/>
      <use xlink:href="#DejaVuSans-65" x="164.404297"/>
      <use xlink:href="#DejaVuSans-73" x="225.927734"/>
      <use xlink:href="#DejaVuSans-74" x="278.027344"/>
      <use xlink:href="#DejaVuSans-65" x="317.236328"/>
      <use xlink:href="#DejaVuSans-70" x="378.759766"/>
      <use xlink:href="#DejaVuSans-73" x="442.236328"/>
     </g>
    </g>
   </g>
   <g id="matplotlib.axis_2">
    <g id="ytick_1">
     <g id="line2d_7">
      <defs>
       <path id="mde59fb8493" d="M 0 0 
L -3.5 0 
" style="stroke: #000000; stroke-width: 0.8"/>
      </defs>
      <g>
       <use xlink:href="#mde59fb8493" x="57.6" y="299.33117" style="stroke: #000000; stroke-width: 0.8"/>
      </g>
     </g>
     <g id="text_8">
      <!-- 0 -->
      <g transform="translate(44.2375 303.130388) scale(0.1 -0.1)">
       <use xlink:href="#DejaVuSans-30"/>
      </g>
     </g>
    </g>
    <g id="ytick_2">
     <g id="line2d_8">
      <g>
       <use xlink:href="#mde59fb8493" x="57.6" y="259.559195" style="stroke: #000000; stroke-width: 0.8"/>
      </g>
     </g>
     <g id="text_9">
      <!-- 100 -->
      <g transform="translate(31.5125 263.358414) scale(0.1 -0.1)">
       <use xlink:href="#DejaVuSans-31"/>
       <use xlink:href="#DejaVuSans-30" x="63.623047"/>
       <use xlink:href="#DejaVuSans-30" x="127.246094"/>
      </g>
     </g>
    </g>
    <g id="ytick_3">
     <g id="line2d_9">
      <g>
       <use xlink:href="#mde59fb8493" x="57.6" y="219.787221" style="stroke: #000000; stroke-width: 0.8"/>
      </g>
     </g>
     <g id="text_10">
      <!-- 200 -->
      <g transform="translate(31.5125 223.586439) scale(0.1 -0.1)">
       <use xlink:href="#DejaVuSans-32"/>
       <use xlink:href="#DejaVuSans-30" x="63.623047"/>
       <use xlink:href="#DejaVuSans-30" x="127.246094"/>
      </g>
     </g>
    </g>
    <g id="ytick_4">
     <g id="line2d_10">
      <g>
       <use xlink:href="#mde59fb8493" x="57.6" y="180.015246" style="stroke: #000000; stroke-width: 0.8"/>
      </g>
     </g>
     <g id="text_11">
      <!-- 300 -->
      <g transform="translate(31.5125 183.814465) scale(0.1 -0.1)">
       <use xlink:href="#DejaVuSans-33"/>
       <use xlink:href="#DejaVuSans-30" x="63.623047"/>
       <use xlink:href="#DejaVuSans-30" x="127.246094"/>
      </g>
     </g>
    </g>
    <g id="ytick_5">
     <g id="line2d_11">
      <g>
       <use xlink:href="#mde59fb8493" x="57.6" y="140.243272" style="stroke: #000000; stroke-width: 0.8"/>
      </g>
     </g>
     <g id="text_12">
      <!-- 400 -->
      <g transform="translate(31.5125 144.04249) scale(0.1 -0.1)">
       <use xlink:href="#DejaVuSans-34"/>
       <use xlink:href="#DejaVuSans-30" x="63.623047"/>
       <use xlink:href="#DejaVuSans-30" x="127.246094"/>
      </g>
     </g>
    </g>
    <g id="ytick_6">
     <g id="line2d_12">
      <g>
       <use xlink:href="#mde59fb8493" x="57.6" y="100.471297" style="stroke: #000000; stroke-width: 0.8"/>
      </g>
     </g>
     <g id="text_13">
      <!-- 500 -->
      <g transform="translate(31.5125 104.270516) scale(0.1 -0.1)">
       <use xlink:href="#DejaVuSans-35"/>
       <use xlink:href="#DejaVuSans-30" x="63.623047"/>
       <use xlink:href="#DejaVuSans-30" x="127.246094"/>
      </g>
     </g>
    </g>
    <g id="ytick_7">
     <g id="line2d_13">
      <g>
       <use xlink:href="#mde59fb8493" x="57.6" y="60.699322" style="stroke: #000000; stroke-width: 0.8"/>
      </g>
     </g>
     <g id="text_14">
      <!-- 600 -->
      <g transform="translate(31.5125 64.498541) scale(0.1 -0.1)">
       <defs>
        <path id="DejaVuSans-36" d="M 2113 2584 
Q 1688 2584 1439 2293 
Q 1191 2003 1191 1497 
Q 1191 994 1439 701 
Q 1688 409 2113 409 
Q 2538 409 2786 701 
Q 3034 994 3034 1497 
Q 3034 2003 2786 2293 
Q 2538 2584 2113 2584 
z
M 3366 4563 
L 3366 3988 
Q 3128 4100 2886 4159 
Q 2644 4219 2406 4219 
Q 1781 4219 1451 3797 
Q 1122 3375 1075 2522 
Q 1259 2794 1537 2939 
Q 1816 3084 2150 3084 
Q 2853 3084 3261 2657 
Q 3669 2231 3669 1497 
Q 3669 778 3244 343 
Q 2819 -91 2113 -91 
Q 1303 -91 875 529 
Q 447 1150 447 2328 
Q 447 3434 972 4092 
Q 1497 4750 2381 4750 
Q 2619 4750 2861 4703 
Q 3103 4656 3366 4563 
z
" transform="scale(0.015625)"/>
       </defs>
       <use xlink:href="#DejaVuSans-36"/>
       <use xlink:href="#DejaVuSans-30" x="63.623047"/>
       <use xlink:href="#DejaVuSans-30" x="127.246094"/>
      </g>
     </g>
    </g>
    <g id="text_15">
     <!-- mean episode rewards -->
     <g transform="translate(25.432812 231.360031) rotate(-90) scale(0.1 -0.1)">
      <defs>
       <path id="DejaVuSans-61" d="M 2194 1759 
Q 1497 1759 1228 1600 
Q 959 1441 959 1056 
Q 959 750 1161 570 
Q 1363 391 1709 391 
Q 2188 391 2477 730 
Q 2766 1069 2766 1631 
L 2766 1759 
L 2194 1759 
z
M 3341 1997 
L 3341 0 
L 2766 0 
L 2766 531 
Q 2569 213 2275 61 
Q 1981 -91 1556 -91 
Q 1019 -91 701 211 
Q 384 513 384 1019 
Q 384 1609 779 1909 
Q 1175 2209 1959 2209 
L 2766 2209 
L 2766 2266 
Q 2766 2663 2505 2880 
Q 2244 3097 1772 3097 
Q 1472 3097 1187 3025 
Q 903 2953 641 2809 
L 641 3341 
Q 956 3463 1253 3523 
Q 1550 3584 1831 3584 
Q 2591 3584 2966 3190 
Q 3341 2797 3341 1997 
z
" transform="scale(0.015625)"/>
       <path id="DejaVuSans-6e" d="M 3513 2113 
L 3513 0 
L 2938 0 
L 2938 2094 
Q 2938 2591 2744 2837 
Q 2550 3084 2163 3084 
Q 1697 3084 1428 2787 
Q 1159 2491 1159 1978 
L 1159 0 
L 581 0 
L 581 3500 
L 1159 3500 
L 1159 2956 
Q 1366 3272 1645 3428 
Q 1925 3584 2291 3584 
Q 2894 3584 3203 3211 
Q 3513 2838 3513 2113 
z
" transform="scale(0.015625)"/>
       <path id="DejaVuSans-20" transform="scale(0.015625)"/>
       <path id="DejaVuSans-6f" d="M 1959 3097 
Q 1497 3097 1228 2736 
Q 959 2375 959 1747 
Q 959 1119 1226 758 
Q 1494 397 1959 397 
Q 2419 397 2687 759 
Q 2956 1122 2956 1747 
Q 2956 2369 2687 2733 
Q 2419 3097 1959 3097 
z
M 1959 3584 
Q 2709 3584 3137 3096 
Q 3566 2609 3566 1747 
Q 3566 888 3137 398 
Q 2709 -91 1959 -91 
Q 1206 -91 779 398 
Q 353 888 353 1747 
Q 353 2609 779 3096 
Q 1206 3584 1959 3584 
z
" transform="scale(0.015625)"/>
       <path id="DejaVuSans-64" d="M 2906 2969 
L 2906 4863 
L 3481 4863 
L 3481 0 
L 2906 0 
L 2906 525 
Q 2725 213 2448 61 
Q 2172 -91 1784 -91 
Q 1150 -91 751 415 
Q 353 922 353 1747 
Q 353 2572 751 3078 
Q 1150 3584 1784 3584 
Q 2172 3584 2448 3432 
Q 2725 3281 2906 2969 
z
M 947 1747 
Q 947 1113 1208 752 
Q 1469 391 1925 391 
Q 2381 391 2643 752 
Q 2906 1113 2906 1747 
Q 2906 2381 2643 2742 
Q 2381 3103 1925 3103 
Q 1469 3103 1208 2742 
Q 947 2381 947 1747 
z
" transform="scale(0.015625)"/>
       <path id="DejaVuSans-72" d="M 2631 2963 
Q 2534 3019 2420 3045 
Q 2306 3072 2169 3072 
Q 1681 3072 1420 2755 
Q 1159 2438 1159 1844 
L 1159 0 
L 581 0 
L 581 3500 
L 1159 3500 
L 1159 2956 
Q 1341 3275 1631 3429 
Q 1922 3584 2338 3584 
Q 2397 3584 2469 3576 
Q 2541 3569 2628 3553 
L 2631 2963 
z
" transform="scale(0.015625)"/>
       <path id="DejaVuSans-77" d="M 269 3500 
L 844 3500 
L 1563 769 
L 2278 3500 
L 2956 3500 
L 3675 769 
L 4391 3500 
L 4966 3500 
L 4050 0 
L 3372 0 
L 2619 2869 
L 1863 0 
L 1184 0 
L 269 3500 
z
" transform="scale(0.015625)"/>
      </defs>
      <use xlink:href="#DejaVuSans-6d"/>
      <use xlink:href="#DejaVuSans-65" x="97.412109"/>
      <use xlink:href="#DejaVuSans-61" x="158.935547"/>
      <use xlink:href="#DejaVuSans-6e" x="220.214844"/>
      <use xlink:href="#DejaVuSans-20" x="283.59375"/>
      <use xlink:href="#DejaVuSans-65" x="315.380859"/>
      <use xlink:href="#DejaVuSans-70" x="376.904297"/>
      <use xlink:href="#DejaVuSans-69" x="440.380859"/>
      <use xlink:href="#DejaVuSans-73" x="468.164062"/>
      <use xlink:href="#DejaVuSans-6f" x="520.263672"/>
      <use xlink:href="#DejaVuSans-64" x="581.445312"/>
      <use xlink:href="#DejaVuSans-65" x="644.921875"/>
      <use xlink:href="#DejaVuSans-20" x="706.445312"/>
      <use xlink:href="#DejaVuSans-72" x="738.232422"/>
      <use xlink:href="#DejaVuSans-65" x="777.095703"/>
      <use xlink:href="#DejaVuSans-77" x="838.619141"/>
      <use xlink:href="#DejaVuSans-61" x="920.40625"/>
      <use xlink:href="#DejaVuSans-72" x="981.685547"/>
      <use xlink:href="#DejaVuSans-64" x="1021.048828"/>
      <use xlink:href="#DejaVuSans-73" x="1084.525391"/>
     </g>
    </g>
   </g>
   <g id="line2d_14">
    <path d="M 73.8977 294.97004 
L 74.131601 294.223159 
L 74.326518 294.011241 
L 74.495447 292.512811 
L 74.716353 291.868499 
L 74.833304 291.958866 
L 74.950254 291.44169 
L 75.275117 291.827685 
L 75.885858 290.37616 
L 76.145748 290.705851 
L 76.301682 290.950779 
L 76.418632 291.643549 
L 76.639539 291.664133 
L 76.860445 291.928002 
L 77.003385 292.325403 
L 77.185308 292.196803 
L 77.354236 291.623815 
L 77.484181 291.613487 
L 77.614126 291.988573 
L 77.718082 291.672238 
L 78.120912 291.663485 
L 78.419785 291.588959 
L 78.54973 291.270968 
L 78.848604 292.974387 
L 79.199455 292.877193 
L 79.615279 291.894615 
L 79.732229 291.767497 
L 79.810196 291.890778 
L 79.96613 292.515948 
L 80.096075 291.867435 
L 80.316982 292.227081 
L 80.498905 292.877768 
L 80.654839 292.925736 
L 80.784784 293.589354 
L 81.057668 293.664806 
L 81.213602 293.49384 
L 81.291569 293.830657 
L 81.616432 293.595039 
L 81.66841 293.214244 
L 81.876322 293.074882 
L 82.136212 292.653843 
L 82.266157 292.75635 
L 82.370113 292.403661 
L 82.526047 292.350736 
L 82.604014 292.618971 
L 83.032832 292.735122 
L 83.149783 293.054663 
L 83.48764 292.532821 
L 83.656568 292.635637 
L 83.86448 292.214967 
L 83.994425 292.35305 
L 84.176348 292.27665 
L 84.306293 292.388802 
L 84.514205 292.023024 
L 84.683133 291.491524 
L 84.943023 292.255455 
L 85.215908 291.602039 
L 85.358847 291.853866 
L 85.54077 291.168844 
L 85.826649 291.151671 
L 85.982583 291.644588 
L 86.46338 291.043828 
L 86.606319 291.060061 
L 86.801237 291.499362 
L 87.282033 290.100353 
L 87.502939 289.746203 
L 87.723846 288.918433 
L 87.970741 287.521095 
L 88.152664 287.92733 
L 88.893351 284.597186 
L 89.088268 283.572202 
L 89.257197 284.173454 
L 89.530081 284.665202 
L 89.81596 283.997983 
L 90.07585 284.086783 
L 90.348735 284.300478 
L 90.543652 282.562964 
L 90.764559 282.679318 
L 91.193377 284.443015 
L 92.064008 283.142079 
L 92.245931 282.777333 
L 92.544805 281.582244 
L 92.843678 281.43232 
L 93.181535 282.179027 
L 93.324475 280.897627 
L 93.662332 279.89584 
L 94.260079 278.960175 
L 94.364035 277.95969 
L 95.078732 276.187655 
L 95.377605 276.337292 
L 95.624501 275.956054 
L 95.806424 275.907895 
L 96.326204 276.944299 
L 96.625077 276.648708 
L 97.20983 277.284464 
L 97.781588 277.314772 
L 98.028483 276.98998 
L 98.405324 277.442251 
L 98.574252 276.571687 
L 98.860131 275.976103 
L 99.197988 275.59442 
L 99.509856 275.045055 
L 99.717768 274.964395 
L 100.276531 274.388816 
L 100.692355 274.496923 
L 100.952245 274.284673 
L 101.290102 274.446347 
L 101.835871 273.576983 
L 102.173728 273.490775 
L 102.745486 272.084855 
L 103.01837 271.894766 
L 103.343233 271.480296 
L 103.720073 270.490914 
L 104.278837 268.474896 
L 104.525732 268.732221 
L 105.071501 268.415508 
L 105.383369 267.249161 
L 106.799769 260.377718 
L 107.449494 258.564597 
L 108.969851 248.518112 
L 109.554603 244.25139 
L 110.113367 241.306586 
L 111.126937 237.841115 
L 111.646717 233.853488 
L 112.205481 232.022398 
L 112.686277 230.898875 
L 113.232046 230.397043 
L 113.829793 230.501904 
L 114.310589 229.852397 
L 114.908336 229.621404 
L 115.376138 230.174471 
L 115.947896 229.354428 
L 116.389709 229.492748 
L 117.013445 230.115988 
L 117.455258 231.04488 
L 118.481823 231.061484 
L 119.144543 230.67575 
L 119.508389 231.478722 
L 120.184103 232.347175 
L 120.586932 231.619552 
L 121.262646 231.628166 
L 122.328195 230.754004 
L 122.83498 229.510442 
L 123.393744 229.197564 
L 123.952507 228.346029 
L 124.576243 227.915125 
L 125.109018 226.971868 
L 125.563825 226.822201 
L 126.161572 227.464285 
L 127.279099 227.145341 
L 127.77289 226.904341 
L 128.383631 227.538687 
L 128.838439 226.756644 
L 129.527147 226.747741 
L 129.955965 227.015406 
L 130.618685 227.009823 
L 131.775195 225.186695 
L 132.281981 224.752942 
L 132.970689 224.573095 
L 134.088216 223.21111 
L 134.556018 223.142365 
L 135.647556 223.376229 
L 136.193325 223.422321 
L 136.765083 223.744806 
L 137.388818 223.487052 
L 139.000136 223.783088 
L 139.584889 224.097287 
L 140.104669 224.23919 
L 140.676427 223.748092 
L 141.183212 224.049459 
L 141.780959 224.189061 
L 142.300739 224.103025 
L 142.898486 224.738832 
L 143.379282 224.796845 
L 143.964035 225.343167 
L 144.47082 225.423842 
L 145.042578 225.340143 
L 145.575352 225.09349 
L 146.134116 225.198494 
L 146.757852 224.80044 
L 147.264637 224.330997 
L 147.84939 224.40765 
L 148.330186 224.241801 
L 148.966916 224.450837 
L 149.486696 224.132295 
L 150.032465 224.246632 
L 151.124003 224.119259 
L 151.734745 223.914907 
L 152.254524 224.210065 
L 152.852271 224.283088 
L 153.930815 223.94009 
L 154.463589 223.775993 
L 156.126885 223.572725 
L 157.270401 224.060578 
L 157.751197 223.942855 
L 158.33595 224.088725 
L 158.85573 223.994917 
L 159.466471 224.219684 
L 159.999245 223.914204 
L 161.090783 224.160359 
L 162.182321 223.903177 
L 163.286854 223.990015 
L 164.963144 223.634541 
L 165.482924 224.047687 
L 166.041687 223.980742 
L 166.600451 223.749773 
L 167.717977 223.811162 
L 168.367702 223.462573 
L 168.848499 222.989193 
L 169.45924 222.721975 
L 171.629321 222.78229 
L 172.188085 222.934979 
L 173.266628 222.704939 
L 174.942919 223.340756 
L 175.462698 223.272944 
L 176.138412 222.883919 
L 176.567231 222.483734 
L 178.490417 221.367745 
L 178.945224 220.762463 
L 181.232256 218.591528 
L 181.881981 218.490169 
L 182.375772 218.28314 
L 183.129452 218.12129 
L 183.571265 217.482246 
L 184.22099 217.341039 
L 184.753765 217.593331 
L 185.390495 217.459654 
L 185.962253 216.922784 
L 186.650961 216.460388 
L 187.131758 216.51432 
L 187.898433 215.950638 
L 188.353241 214.904413 
L 190.354394 214.096349 
L 190.744228 213.409247 
L 191.484915 213.697869 
L 191.913733 214.217051 
L 193.862908 215.148549 
L 194.226754 216.168107 
L 195.448237 216.295948 
L 196.240901 216.282979 
L 196.656725 216.59758 
L 197.462384 216.309363 
L 197.865214 215.642106 
L 198.72285 215.028169 
L 199.112685 214.129092 
L 199.892355 213.856198 
L 200.347163 213.180449 
L 201.529662 212.582885 
L 202.270348 212.211132 
L 202.868095 210.75034 
L 203.647765 209.342471 
L 204.141556 208.845501 
L 204.934221 208.464944 
L 205.47999 207.97995 
L 206.727461 206.349535 
L 207.624082 205.818071 
L 208.104878 204.651533 
L 208.884548 204.226482 
L 210.196992 204.523279 
L 210.729767 204.360592 
L 211.54842 203.948146 
L 212.938832 201.904174 
L 213.562567 200.810193 
L 214.381221 199.056424 
L 215.017951 198.392432 
L 215.888583 197.15044 
L 218.071658 191.16321 
L 218.890312 189.335735 
L 220.293718 187.42584 
L 221.099376 187.076964 
L 221.827068 186.425631 
L 223.269458 184.051387 
L 224.218056 183.132486 
L 224.867781 182.945488 
L 225.855363 182.061222 
L 226.362148 181.983421 
L 227.414703 181.373197 
L 229.584784 178.634868 
L 230.494399 179.012481 
L 231.183107 178.923346 
L 232.118711 178.466412 
L 233.730029 179.512104 
L 234.366759 179.076294 
L 235.328352 179.305581 
L 235.952088 179.961871 
L 236.874697 179.445916 
L 237.615384 179.426093 
L 239.226702 178.363444 
L 240.136316 178.488986 
L 240.889997 177.497209 
L 242.644255 175.494291 
L 243.657826 174.722029 
L 245.399088 173.18839 
L 246.087797 171.819085 
L 247.192329 170.323237 
L 247.816065 170.34303 
L 249.648289 169.080355 
L 250.908756 167.803609 
L 251.402547 166.778423 
L 252.714991 165.294088 
L 253.169798 164.306248 
L 254.56021 163.969648 
L 255.144962 164.720826 
L 256.392434 164.316809 
L 256.990181 163.088546 
L 258.081719 161.598877 
L 258.757433 161.247519 
L 260.004904 163.089166 
L 260.732596 162.406849 
L 261.92809 161.860546 
L 262.785727 161.608825 
L 263.981221 160.634328 
L 264.78688 159.41088 
L 266.930972 159.707301 
L 268.308389 158.130831 
L 269.218004 157.61265 
L 270.166602 153.315406 
L 271.024239 158.050573 
L 273.220309 154.638985 
L 274.636709 153.404536 
L 275.364401 152.938195 
L 276.131077 153.550329 
L 277.235609 158.945012 
L 278.119235 164.435218 
L 278.924894 165.974973 
L 279.769536 171.572261 
L 281.004014 165.985033 
L 281.991595 169.209809 
L 283.42099 167.816735 
L 286.110851 163.542669 
L 289.489421 148.537851 
L 290.489997 148.111777 
L 291.542552 141.651351 
L 292.932963 141.691644 
L 293.660655 140.360632 
L 295.207 142.941301 
L 295.791753 146.09675 
L 297.260131 148.267758 
L 298.052795 150.577595 
L 299.352245 150.191756 
L 300.365816 152.209406 
L 301.392381 152.781732 
L 302.522903 154.19842 
L 303.510485 156.172612 
L 306.551197 159.317524 
L 307.460812 161.483538 
L 308.799245 162.503104 
L 309.643888 163.645503 
L 310.813393 164.14593 
L 311.800975 165.009744 
L 312.853529 166.436983 
L 313.854105 166.79883 
L 315.036605 167.482161 
L 317.050752 167.696817 
L 317.869405 167.570328 
L 318.986932 168.196511 
L 320.000503 168.598948 
L 320.962096 168.67436 
L 322.027645 169.828477 
L 323.002232 170.403153 
L 324.067781 170.569729 
L 326.02995 170.458462 
L 327.121488 170.248991 
L 328.10907 170.563752 
L 330.019261 170.678786 
L 331.149783 170.961845 
L 331.955441 170.916333 
L 335.671868 173.463304 
L 336.698433 174.384223 
L 337.582059 174.836995 
L 341.337469 177.292235 
L 342.273073 176.906338 
L 343.169693 177.046849 
L 344.183264 176.785638 
L 345.040901 176.202958 
L 346.847136 175.42315 
L 347.730762 175.407365 
L 348.653372 175.807842 
L 350.472602 175.320085 
L 351.4212 175.557117 
L 352.213864 175.622681 
L 353.227435 176.044083 
L 353.981116 177.076219 
L 355.839329 178.037524 
L 356.774933 178.16818 
L 357.645565 177.307419 
L 358.581168 177.051105 
L 359.269877 177.238928 
L 360.283448 176.316662 
L 361.076112 175.756592 
L 362.895342 173.032471 
L 363.765973 171.107537 
L 365.390286 168.014985 
L 366.468829 166.502323 
L 367.22251 162.598769 
L 368.534954 159.387129 
L 369.145696 156.572855 
L 370.224239 152.800521 
L 371.003909 151.425523 
L 372.186408 147.444345 
L 372.862122 146.085095 
L 374.655363 141.388757 
L 376.656516 139.196063 
L 377.903987 138.538926 
L 378.839591 136.840991 
L 379.736212 136.258653 
L 380.892722 133.856062 
L 382.010249 134.608709 
L 382.867886 132.784531 
L 383.829479 131.754513 
L 385.050961 128.717008 
L 385.687692 126.182081 
L 387.195054 127.024929 
L 387.831784 125.929064 
L 388.936316 126.702759 
L 389.638019 128.940226 
L 390.898486 128.724527 
L 391.600189 128.073427 
L 392.808677 129.072393 
L 393.380435 130.855489 
L 394.627907 133.625764 
L 395.212659 136.70825 
L 397.512685 136.086989 
L 398.318344 137.640291 
L 398.318344 137.640291 
" clip-path="url(#p1683669491)" style="fill: none; stroke: #1f77b4; stroke-width: 1.5; stroke-linecap: square"/>
   </g>
   <g id="line2d_15">
    <path d="M 80.122064 292.345242 
L 86.619314 255.490186 
L 93.116563 277.169378 
L 99.613812 280.961259 
L 106.111061 227.487975 
L 112.60831 228.286328 
L 119.105559 228.137859 
L 125.602808 227.301855 
L 132.100058 224.650883 
L 138.597307 226.525946 
L 145.094556 228.34509 
L 151.591805 225.094898 
L 158.089054 227.323222 
L 164.586303 224.307164 
L 171.083553 224.778624 
L 177.580802 218.526579 
L 184.078051 221.112431 
L 190.5753 215.132557 
L 197.072549 214.221808 
L 203.569798 199.341144 
L 210.067047 196.27436 
L 216.564297 175.615472 
L 223.061546 173.64735 
L 229.558795 180.7367 
L 236.056044 174.304665 
L 242.553293 173.383267 
L 249.050542 170.140129 
L 255.547791 163.196015 
L 262.045041 169.331613 
L 268.54229 169.12994 
L 275.039539 53.568 
L 281.536788 132.28291 
L 288.034037 172.843941 
L 294.531286 171.360286 
L 301.028535 171.394427 
L 307.525785 166.663555 
L 314.023034 172.759997 
L 320.520283 165.882794 
L 327.017532 167.240534 
L 333.514781 174.860383 
L 340.01203 173.12164 
L 346.50928 175.360449 
L 353.006529 183.269992 
L 359.503778 163.983188 
L 366.001027 137.372456 
L 372.498276 133.378303 
L 378.995525 71.65197 
L 385.492774 138.912366 
L 391.990024 135.701691 
L 398.487273 154.961724 
" clip-path="url(#p1683669491)" style="fill: none; stroke: #ff7f0e; stroke-width: 1.5; stroke-linecap: square"/>
   </g>
   <g id="line2d_16">
    <path d="M 73.832727 295.488 
L 73.936683 294.407078 
L 74.235557 293.663458 
L 74.456463 293.816385 
L 75.249128 292.557419 
L 75.327095 291.576272 
L 75.496023 291.347774 
L 75.729924 291.50419 
L 76.028797 291.446926 
L 76.106764 291.743387 
L 76.457616 291.870314 
L 76.756489 292.84675 
L 76.925418 292.944322 
L 77.185308 292.514078 
L 77.419209 292.269036 
L 77.731077 292.360474 
L 77.925994 292.19644 
L 78.055939 291.637656 
L 78.211873 292.095833 
L 78.367807 291.667387 
L 78.484758 292.156514 
L 78.757642 292.038355 
L 78.913576 292.194808 
L 79.095499 291.903258 
L 79.238439 291.228979 
L 79.47234 292.031754 
L 79.654263 291.722573 
L 79.823191 292.314074 
L 79.927147 291.649954 
L 80.213026 291.809135 
L 80.381954 291.354461 
L 80.641844 291.617269 
L 80.797778 291.254593 
L 81.486487 292.47572 
L 81.642421 293.012214 
L 81.78536 292.822986 
L 82.006267 293.148011 
L 82.30514 292.450929 
L 82.461074 291.709556 
L 82.604014 291.634693 
L 83.214755 289.796005 
L 83.591595 290.599646 
L 84.059397 291.212119 
L 84.345276 292.461079 
L 84.462227 292.284176 
L 84.64415 292.793653 
L 84.774095 292.546157 
L 84.930029 292.538052 
L 85.072968 292.866204 
L 85.202913 292.526826 
L 85.306869 292.787574 
L 85.462803 292.85372 
L 85.657721 291.971997 
L 85.80066 292.161745 
L 85.956594 292.073033 
L 86.138517 291.50362 
L 86.307446 291.69193 
L 86.606319 290.306027 
L 86.827226 290.418636 
L 86.996154 289.445182 
L 87.230055 289.400641 
L 87.398983 289.80432 
L 87.580906 288.781637 
L 87.788818 288.358009 
L 87.99673 287.355163 
L 88.360576 287.451363 
L 88.724422 287.084549 
L 88.880356 285.86935 
L 89.166235 285.204905 
L 89.387142 284.309432 
L 89.543076 284.227767 
L 89.802966 284.444563 
L 90.088845 284.124998 
L 90.33574 284.50749 
L 90.660603 282.487534 
L 90.829531 282.503838 
L 91.102416 281.595272 
L 91.284338 281.85943 
L 91.557223 283.239917 
L 91.804118 283.092954 
L 92.193953 283.269956 
L 92.427854 281.373582 
L 92.726728 281.218514 
L 92.895656 280.641238 
L 93.155546 281.178371 
L 94.052167 279.731856 
L 94.390024 278.195599 
L 94.987771 276.408678 
L 95.377605 276.87768 
L 95.572523 276.459686 
L 95.923374 276.769645 
L 96.196259 275.930507 
L 96.508127 275.371094 
L 96.897962 275.315346 
L 97.105874 275.586828 
L 97.638648 275.410768 
L 98.275379 274.680769 
L 98.821147 274.326353 
L 99.159004 273.911342 
L 99.496861 274.456244 
L 99.834718 273.835537 
L 100.094608 274.469235 
L 100.367493 273.992425 
L 100.666366 274.293586 
L 100.952245 274.213526 
L 101.316091 273.788378 
L 101.562987 273.707618 
L 101.887849 272.978552 
L 102.134745 272.747702 
L 102.38164 272.356657 
L 102.654524 272.213825 
L 102.888425 271.694135 
L 103.187299 271.925661 
L 103.512161 271.585326 
L 103.811035 270.494699 
L 104.226859 270.411354 
L 104.486749 270.009311 
L 104.746639 269.985008 
L 105.09749 268.791727 
L 105.435347 268.405363 
L 106.111061 266.090436 
L 106.409935 265.39151 
L 107.007681 264.348057 
L 107.306555 263.1714 
L 107.735373 260.345306 
L 108.567021 258.106649 
L 109.11279 255.368796 
L 111.919602 238.188558 
L 112.49136 236.116681 
L 113.050123 234.667975 
L 114.206633 229.079302 
L 115.350149 228.455574 
L 115.973885 228.275007 
L 116.415698 227.849276 
L 117.182374 228.274517 
L 117.598198 228.00108 
L 118.611768 228.967711 
L 119.196521 230.661066 
L 119.677317 231.433046 
L 120.742866 231.833094 
L 122.57509 232.370534 
L 123.003909 233.124676 
L 123.783579 232.425564 
L 125.199979 229.329514 
L 125.745748 229.322122 
L 126.343495 228.500252 
L 126.967231 227.979947 
L 127.448027 227.39697 
L 129.293246 225.963301 
L 129.774042 226.24337 
L 130.449756 225.816108 
L 130.943547 225.826262 
L 131.593272 225.138747 
L 132.113052 225.096608 
L 132.645827 225.691212 
L 134.439067 224.98452 
L 134.906869 225.136662 
L 135.608572 225.105526 
L 136.06338 224.898421 
L 137.258873 224.799284 
L 137.791648 224.571157 
L 138.428378 224.585278 
L 138.948158 224.784134 
L 139.5589 224.63903 
L 140.091674 224.774461 
L 141.209201 225.501723 
L 141.651014 225.577805 
L 142.339722 225.428214 
L 143.483238 225.71414 
L 143.977029 225.279842 
L 144.600765 224.955925 
L 145.783264 224.683921 
L 146.913786 223.921598 
L 147.316615 224.041723 
L 148.447136 223.613758 
L 149.252795 223.669526 
L 149.590652 223.881184 
L 150.383317 224.062055 
L 150.747163 223.923311 
L 151.526833 223.985022 
L 151.916668 223.831706 
L 153.826859 223.813314 
L 154.203699 224.152614 
L 155.321226 224.001809 
L 156.100896 224.048214 
L 156.425758 224.194336 
L 157.270401 223.91977 
L 157.55628 223.945351 
L 158.4529 223.802959 
L 158.699796 223.980579 
L 159.648394 223.912238 
L 159.843312 223.336027 
L 160.79191 223.307216 
L 161.012816 223.127461 
L 163.416799 222.646359 
L 164.235452 222.762838 
L 164.54732 222.497363 
L 165.716825 222.582194 
L 168.094818 222.154743 
L 169.251328 222.208047 
L 171.590338 221.796102 
L 172.344019 221.755059 
L 172.811821 221.544645 
L 173.47454 221.385711 
L 174.046298 221.034746 
L 174.683029 221.079275 
L 175.189814 220.934193 
L 175.81355 220.903702 
L 176.372313 220.685519 
L 177.009044 220.308935 
L 178.217532 220.037203 
L 179.854839 220.50465 
L 180.556542 220.154124 
L 181.063327 219.569612 
L 181.76503 219.266152 
L 182.999507 219.132297 
L 183.571265 219.167534 
L 184.766759 218.598884 
L 185.455468 218.179631 
L 185.988242 217.650827 
L 186.67695 217.2983 
L 187.248708 217.328054 
L 189.080933 217.138119 
L 189.600713 216.6188 
L 190.83519 216.153548 
L 192.082662 216.236254 
L 192.810354 216.082224 
L 194.005848 216.436011 
L 194.538622 216.302434 
L 195.240325 215.957339 
L 195.734116 216.144451 
L 196.474802 216.095804 
L 197.735269 215.413609 
L 198.281037 214.887598 
L 198.969746 214.852371 
L 200.16524 213.754321 
L 201.46469 213.212225 
L 202.062436 212.382441 
L 203.361886 211.247253 
L 204.063589 210.824202 
L 204.687325 210.66403 
L 205.350045 210.176225 
L 205.908808 210.480427 
L 207.195263 209.449548 
L 207.93595 209.14973 
L 208.468724 209.291037 
L 209.261389 209.095921 
L 209.768174 208.739587 
L 211.899272 208.219389 
L 212.523008 207.188397 
L 214.511166 206.565724 
L 215.147896 206.11701 
L 215.810616 205.797352 
L 216.538308 205.732656 
L 217.201027 205.555278 
L 218.591438 204.067245 
L 219.994844 203.665547 
L 220.579597 203.208414 
L 221.320283 203.007786 
L 221.905035 203.069277 
L 222.645722 203.316905 
L 223.958166 203.338994 
L 224.581902 203.458965 
L 225.309594 203.865756 
L 225.894346 203.970126 
L 226.700005 203.95535 
L 227.258769 203.816709 
L 228.038439 203.31794 
L 228.688163 202.684901 
L 229.467833 201.516963 
L 230.858245 200.300622 
L 231.533959 199.999762 
L 232.300634 199.136132 
L 233.054315 198.018652 
L 234.457721 196.605264 
L 235.133435 196.243748 
L 235.926099 195.310565 
L 236.640796 195.281378 
L 238.122169 194.308824 
L 238.745905 194.39801 
L 239.551564 194.242834 
L 240.941975 194.221651 
L 241.682662 193.801952 
L 242.449337 193.18025 
L 243.177029 193.222568 
L 245.386094 192.520946 
L 246.087797 191.760292 
L 247.634142 191.058617 
L 248.32285 190.813715 
L 249.063537 191.13135 
L 249.817218 190.923522 
L 251.298591 190.848397 
L 252.039277 190.697917 
L 252.922903 189.857293 
L 253.598617 189.474832 
L 255.105979 189.205559 
L 256.145538 188.605546 
L 256.652324 188.061239 
L 257.626911 187.410386 
L 258.146691 186.758887 
L 259.147267 186.086105 
L 259.654053 185.601785 
L 262.252953 185.550347 
L 262.642788 185.454471 
L 264.215122 185.377213 
L 265.722484 185.906109 
L 266.827016 186.229242 
L 267.307812 186.03803 
L 268.867152 186.189702 
L 269.854734 186.00573 
L 270.504459 185.490498 
L 272.050804 184.941053 
L 273.012397 184.94885 
L 276.183055 184.132077 
L 276.702835 183.771857 
L 278.236185 183.784869 
L 279.340718 183.51579 
L 279.821514 183.566401 
L 283.005166 182.76881 
L 284.044726 182.660183 
L 284.590495 182.309384 
L 285.630055 181.995666 
L 286.175824 181.570112 
L 287.228378 181.334753 
L 287.800136 181.085382 
L 290.41203 180.308906 
L 291.009777 180.50777 
L 292.010354 180.449631 
L 294.271396 179.814394 
L 295.168017 179.893659 
L 296.76634 180.561449 
L 297.442054 180.366724 
L 298.338674 180.345766 
L 299.053372 179.844879 
L 299.924003 179.578335 
L 303.146639 179.633212 
L 304.822929 178.321175 
L 306.525208 178.065476 
L 307.057983 178.272036 
L 310.384574 178.313525 
L 312.008887 177.731864 
L 313.152402 177.950744 
L 313.659188 177.711145 
L 315.348473 177.422545 
L 316.491988 177.00135 
L 317.024763 176.308318 
L 318.66207 175.945093 
L 320.273387 176.682879 
L 321.37792 177.024507 
L 321.884705 177.896439 
L 323.612974 178.34381 
L 324.639539 179.325397 
L 325.289264 180.107387 
L 326.211873 180.641427 
L 327.06951 180.70465 
L 327.96613 179.964702 
L 328.706817 180.216979 
L 329.66841 180.235077 
L 330.292146 179.938472 
L 332.293298 180.733606 
L 333.059974 180.559395 
L 334.671292 179.859288 
L 335.606895 179.882899 
L 336.321593 181.186752 
L 337.283186 181.272818 
L 338.114834 180.854828 
L 338.972471 180.565932 
L 339.674173 180.104603 
L 340.609777 179.783916 
L 341.493403 179.897485 
L 342.104145 179.859503 
L 343.819418 181.582248 
L 344.612083 180.68476 
L 345.404747 180.692904 
L 346.210406 181.799075 
L 347.847713 182.874115 
L 348.471449 183.589879 
L 349.549992 183.983993 
L 350.225706 185.176738 
L 352.005952 185.504778 
L 353.565292 187.651251 
L 354.552874 188.059371 
L 355.124632 188.730444 
L 356.125208 189.228648 
L 356.644988 189.725656 
L 357.697543 190.212926 
L 358.217323 190.737231 
L 359.256882 190.762098 
L 361.361991 188.639049 
L 362.440534 187.711859 
L 363.012292 186.616708 
L 364.012869 185.555293 
L 364.675588 185.036043 
L 365.637181 184.907112 
L 366.208939 183.825379 
L 367.846246 183.381869 
L 368.885806 183.549229 
L 369.496547 182.81712 
L 371.09487 183.080378 
L 372.13443 183.474347 
L 372.862122 182.704634 
L 373.758742 181.54341 
L 375.396049 179.784036 
L 376.240692 179.485286 
L 377.033356 179.436113 
L 377.903987 178.982099 
L 378.579701 178.763114 
L 379.593272 178.066633 
L 380.30797 177.308394 
L 382.945853 177.291913 
L 383.673545 177.083956 
L 384.531182 177.0223 
L 385.375824 176.341648 
L 386.168488 176.38372 
L 387.026125 175.700557 
L 388.624449 176.426564 
L 389.378129 176.052314 
L 390.235766 176.012083 
L 391.158376 176.281321 
L 391.873073 176.251485 
L 392.821671 175.882111 
L 393.51038 176.119853 
L 394.471973 176.108066 
L 395.134692 176.416402 
L 398.474278 174.817831 
L 398.474278 174.817831 
" clip-path="url(#p1683669491)" style="fill: none; stroke: #2ca02c; stroke-width: 1.5; stroke-linecap: square"/>
   </g>
   <g id="patch_3">
    <path d="M 57.6 307.584 
L 57.6 41.472 
" style="fill: none; stroke: #000000; stroke-width: 0.8; stroke-linejoin: miter; stroke-linecap: square"/>
   </g>
   <g id="patch_4">
    <path d="M 414.72 307.584 
L 414.72 41.472 
" style="fill: none; stroke: #000000; stroke-width: 0.8; stroke-linejoin: miter; stroke-linecap: square"/>
   </g>
   <g id="patch_5">
    <path d="M 57.6 307.584 
L 414.72 307.584 
" style="fill: none; stroke: #000000; stroke-width: 0.8; stroke-linejoin: miter; stroke-linecap: square"/>
   </g>
   <g id="patch_6">
    <path d="M 57.6 41.472 
L 414.72 41.472 
" style="fill: none; stroke: #000000; stroke-width: 0.8; stroke-linejoin: miter; stroke-linecap: square"/>
   </g>
   <g id="text_16">
    <!-- learning curve -->
    <g transform="translate(192.96375 35.472) scale(0.12 -0.12)">
     <defs>
      <path id="DejaVuSans-6c" d="M 603 4863 
L 1178 4863 
L 1178 0 
L 603 0 
L 603 4863 
z
" transform="scale(0.015625)"/>
      <path id="DejaVuSans-67" d="M 2906 1791 
Q 2906 2416 2648 2759 
Q 2391 3103 1925 3103 
Q 1463 3103 1205 2759 
Q 947 2416 947 1791 
Q 947 1169 1205 825 
Q 1463 481 1925 481 
Q 2391 481 2648 825 
Q 2906 1169 2906 1791 
z
M 3481 434 
Q 3481 -459 3084 -895 
Q 2688 -1331 1869 -1331 
Q 1566 -1331 1297 -1286 
Q 1028 -1241 775 -1147 
L 775 -588 
Q 1028 -725 1275 -790 
Q 1522 -856 1778 -856 
Q 2344 -856 2625 -561 
Q 2906 -266 2906 331 
L 2906 616 
Q 2728 306 2450 153 
Q 2172 0 1784 0 
Q 1141 0 747 490 
Q 353 981 353 1791 
Q 353 2603 747 3093 
Q 1141 3584 1784 3584 
Q 2172 3584 2450 3431 
Q 2728 3278 2906 2969 
L 2906 3500 
L 3481 3500 
L 3481 434 
z
" transform="scale(0.015625)"/>
      <path id="DejaVuSans-63" d="M 3122 3366 
L 3122 2828 
Q 2878 2963 2633 3030 
Q 2388 3097 2138 3097 
Q 1578 3097 1268 2742 
Q 959 2388 959 1747 
Q 959 1106 1268 751 
Q 1578 397 2138 397 
Q 2388 397 2633 464 
Q 2878 531 3122 666 
L 3122 134 
Q 2881 22 2623 -34 
Q 2366 -91 2075 -91 
Q 1284 -91 818 406 
Q 353 903 353 1747 
Q 353 2603 823 3093 
Q 1294 3584 2113 3584 
Q 2378 3584 2631 3529 
Q 2884 3475 3122 3366 
z
" transform="scale(0.015625)"/>
      <path id="DejaVuSans-75" d="M 544 1381 
L 544 3500 
L 1119 3500 
L 1119 1403 
Q 1119 906 1312 657 
Q 1506 409 1894 409 
Q 2359 409 2629 706 
Q 2900 1003 2900 1516 
L 2900 3500 
L 3475 3500 
L 3475 0 
L 2900 0 
L 2900 538 
Q 2691 219 2414 64 
Q 2138 -91 1772 -91 
Q 1169 -91 856 284 
Q 544 659 544 1381 
z
M 1991 3584 
L 1991 3584 
z
" transform="scale(0.015625)"/>
      <path id="DejaVuSans-76" d="M 191 3500 
L 800 3500 
L 1894 563 
L 2988 3500 
L 3597 3500 
L 2284 0 
L 1503 0 
L 191 3500 
z
" transform="scale(0.015625)"/>
     </defs>
     <use xlink:href="#DejaVuSans-6c"/>
     <use xlink:href="#DejaVuSans-65" x="27.783203"/>
     <use xlink:href="#DejaVuSans-61" x="89.306641"/>
     <use xlink:href="#DejaVuSans-72" x="150.585938"/>
     <use xlink:href="#DejaVuSans-6e" x="189.949219"/>
     <use xlink:href="#DejaVuSans-69" x="253.328125"/>
     <use xlink:href="#DejaVuSans-6e" x="281.111328"/>
     <use xlink:href="#DejaVuSans-67" x="344.490234"/>
     <use xlink:href="#DejaVuSans-20" x="407.966797"/>
     <use xlink:href="#DejaVuSans-63" x="439.753906"/>
     <use xlink:href="#DejaVuSans-75" x="494.734375"/>
     <use xlink:href="#DejaVuSans-72" x="558.113281"/>
     <use xlink:href="#DejaVuSans-76" x="599.226562"/>
     <use xlink:href="#DejaVuSans-65" x="658.40625"/>
    </g>
   </g>
   <g id="legend_1">
    <g id="patch_7">
     <path d="M 64.6 93.506375 
L 166.614062 93.506375 
Q 168.614062 93.506375 168.614062 91.506375 
L 168.614062 48.472 
Q 168.614062 46.472 166.614062 46.472 
L 64.6 46.472 
Q 62.6 46.472 62.6 48.472 
L 62.6 91.506375 
Q 62.6 93.506375 64.6 93.506375 
z
" style="fill: #ffffff; opacity: 0.8; stroke: #cccccc; stroke-linejoin: miter"/>
    </g>
    <g id="line2d_17">
     <path d="M 66.6 54.570438 
L 76.6 54.570438 
L 86.6 54.570438 
" style="fill: none; stroke: #1f77b4; stroke-width: 1.5; stroke-linecap: square"/>
    </g>
    <g id="text_17">
     <!-- source-source -->
     <g transform="translate(94.6 58.070438) scale(0.1 -0.1)">
      <defs>
       <path id="DejaVuSans-2d" d="M 313 2009 
L 1997 2009 
L 1997 1497 
L 313 1497 
L 313 2009 
z
" transform="scale(0.015625)"/>
      </defs>
      <use xlink:href="#DejaVuSans-73"/>
      <use xlink:href="#DejaVuSans-6f" x="52.099609"/>
      <use xlink:href="#DejaVuSans-75" x="113.28125"/>
      <use xlink:href="#DejaVuSans-72" x="176.660156"/>
      <use xlink:href="#DejaVuSans-63" x="215.523438"/>
      <use xlink:href="#DejaVuSans-65" x="270.503906"/>
      <use xlink:href="#DejaVuSans-2d" x="332.027344"/>
      <use xlink:href="#DejaVuSans-73" x="368.111328"/>
      <use xlink:href="#DejaVuSans-6f" x="420.210938"/>
      <use xlink:href="#DejaVuSans-75" x="481.392578"/>
      <use xlink:href="#DejaVuSans-72" x="544.771484"/>
      <use xlink:href="#DejaVuSans-63" x="583.634766"/>
      <use xlink:href="#DejaVuSans-65" x="638.615234"/>
     </g>
    </g>
    <g id="line2d_18">
     <path d="M 66.6 69.248563 
L 76.6 69.248563 
L 86.6 69.248563 
" style="fill: none; stroke: #ff7f0e; stroke-width: 1.5; stroke-linecap: square"/>
    </g>
    <g id="text_18">
     <!-- source-target -->
     <g transform="translate(94.6 72.748563) scale(0.1 -0.1)">
      <use xlink:href="#DejaVuSans-73"/>
      <use xlink:href="#DejaVuSans-6f" x="52.099609"/>
      <use xlink:href="#DejaVuSans-75" x="113.28125"/>
      <use xlink:href="#DejaVuSans-72" x="176.660156"/>
      <use xlink:href="#DejaVuSans-63" x="215.523438"/>
      <use xlink:href="#DejaVuSans-65" x="270.503906"/>
      <use xlink:href="#DejaVuSans-2d" x="332.027344"/>
      <use xlink:href="#DejaVuSans-74" x="368.111328"/>
      <use xlink:href="#DejaVuSans-61" x="407.320312"/>
      <use xlink:href="#DejaVuSans-72" x="468.599609"/>
      <use xlink:href="#DejaVuSans-67" x="507.962891"/>
      <use xlink:href="#DejaVuSans-65" x="571.439453"/>
      <use xlink:href="#DejaVuSans-74" x="632.962891"/>
     </g>
    </g>
    <g id="line2d_19">
     <path d="M 66.6 83.926688 
L 76.6 83.926688 
L 86.6 83.926688 
" style="fill: none; stroke: #2ca02c; stroke-width: 1.5; stroke-linecap: square"/>
    </g>
    <g id="text_19">
     <!-- target-target -->
     <g transform="translate(94.6 87.426688) scale(0.1 -0.1)">
      <use xlink:href="#DejaVuSans-74"/>
      <use xlink:href="#DejaVuSans-61" x="39.208984"/>
      <use xlink:href="#DejaVuSans-72" x="100.488281"/>
      <use xlink:href="#DejaVuSans-67" x="139.851562"/>
      <use xlink:href="#DejaVuSans-65" x="203.328125"/>
      <use xlink:href="#DejaVuSans-74" x="264.851562"/>
      <use xlink:href="#DejaVuSans-2d" x="304.060547"/>
      <use xlink:href="#DejaVuSans-74" x="340.144531"/>
      <use xlink:href="#DejaVuSans-61" x="379.353516"/>
      <use xlink:href="#DejaVuSans-72" x="440.632812"/>
      <use xlink:href="#DejaVuSans-67" x="479.996094"/>
      <use xlink:href="#DejaVuSans-65" x="543.472656"/>
      <use xlink:href="#DejaVuSans-74" x="604.996094"/>
     </g>
    </g>
   </g>
  </g>
 </g>
 <defs>
  <clipPath id="p1683669491">
   <rect x="57.6" y="41.472" width="357.12" height="266.112"/>
  </clipPath>
 </defs>
</svg>
