<?xml version="1.0" encoding="utf-8" standalone="no"?>
<!DOCTYPE svg PUBLIC "-//W3C//DTD SVG 1.1//EN"
  "http://www.w3.org/Graphics/SVG/1.1/DTD/svg11.dtd">
<svg xmlns:xlink="http://www.w3.org/1999/xlink" width="460.8pt" height="345.6pt" viewBox="0 0 460.8 345.6" xmlns="http://www.w3.org/2000/svg" version="1.1">
 <metadata>
  <rdf:RDF xmlns:dc="http://purl.org/dc/elements/1.1/" xmlns:cc="http://creativecommons.org/ns#" xmlns:rdf="http://www.w3.org/1999/02/22-rdf-syntax-ns#">
   <cc:Work>
    <dc:type rdf:resource="http://purl.org/dc/dcmitype/StillImage"/>
    <dc:date>2023-08-18T16:35:12.843320</dc:date>
    <dc:format>image/svg+xml</dc:format>
    <dc:creator>
     <cc:Agent>
      <dc:title>Matplotlib v3.7.1, https://matplotlib.org/</dc:title>
     </cc:Agent>
    </dc:creator>
   </cc:Work>
  </rdf:RDF>
 </metadata>
 <defs>
  <style type="text/css">*{stroke-linejoin: round; stroke-linecap: butt}</style>
 </defs>
 <g id="figure_1">
  <g id="patch_1">
   <path d="M 0 345.6 
L 460.8 345.6 
L 460.8 0 
L 0 0 
z
" style="fill: #ffffff"/>
  </g>
  <g id="axes_1">
   <g id="patch_2">
    <path d="M 57.6 307.584 
L 414.72 307.584 
L 414.72 41.472 
L 57.6 41.472 
z
" style="fill: #ffffff"/>
   </g>
   <g id="matplotlib.axis_1">
    <g id="xtick_1">
     <g id="line2d_1">
      <defs>
       <path id="m65337bae8c" d="M 0 0 
L 0 3.5 
" style="stroke: #000000; stroke-width: 0.8"/>
      </defs>
      <g>
       <use xlink:href="#m65337bae8c" x="73.774279" y="307.584" style="stroke: #000000; stroke-width: 0.8"/>
      </g>
     </g>
     <g id="text_1">
      <!-- 0 -->
      <g transform="translate(70.593029 322.182437) scale(0.1 -0.1)">
       <defs>
        <path id="DejaVuSans-30" d="M 2034 4250 
Q 1547 4250 1301 3770 
Q 1056 3291 1056 2328 
Q 1056 1369 1301 889 
Q 1547 409 2034 409 
Q 2525 409 2770 889 
Q 3016 1369 3016 2328 
Q 3016 3291 2770 3770 
Q 2525 4250 2034 4250 
z
M 2034 4750 
Q 2819 4750 3233 4129 
Q 3647 3509 3647 2328 
Q 3647 1150 3233 529 
Q 2819 -91 2034 -91 
Q 1250 -91 836 529 
Q 422 1150 422 2328 
Q 422 3509 836 4129 
Q 1250 4750 2034 4750 
z
" transform="scale(0.015625)"/>
       </defs>
       <use xlink:href="#DejaVuSans-30"/>
      </g>
     </g>
    </g>
    <g id="xtick_2">
     <g id="line2d_2">
      <g>
       <use xlink:href="#m65337bae8c" x="138.716878" y="307.584" style="stroke: #000000; stroke-width: 0.8"/>
      </g>
     </g>
     <g id="text_2">
      <!-- 10000 -->
      <g transform="translate(122.810628 322.182437) scale(0.1 -0.1)">
       <defs>
        <path id="DejaVuSans-31" d="M 794 531 
L 1825 531 
L 1825 4091 
L 703 3866 
L 703 4441 
L 1819 4666 
L 2450 4666 
L 2450 531 
L 3481 531 
L 3481 0 
L 794 0 
L 794 531 
z
" transform="scale(0.015625)"/>
       </defs>
       <use xlink:href="#DejaVuSans-31"/>
       <use xlink:href="#DejaVuSans-30" x="63.623047"/>
       <use xlink:href="#DejaVuSans-30" x="127.246094"/>
       <use xlink:href="#DejaVuSans-30" x="190.869141"/>
       <use xlink:href="#DejaVuSans-30" x="254.492188"/>
      </g>
     </g>
    </g>
    <g id="xtick_3">
     <g id="line2d_3">
      <g>
       <use xlink:href="#m65337bae8c" x="203.659476" y="307.584" style="stroke: #000000; stroke-width: 0.8"/>
      </g>
     </g>
     <g id="text_3">
      <!-- 20000 -->
      <g transform="translate(187.753226 322.182437) scale(0.1 -0.1)">
       <defs>
        <path id="DejaVuSans-32" d="M 1228 531 
L 3431 531 
L 3431 0 
L 469 0 
L 469 531 
Q 828 903 1448 1529 
Q 2069 2156 2228 2338 
Q 2531 2678 2651 2914 
Q 2772 3150 2772 3378 
Q 2772 3750 2511 3984 
Q 2250 4219 1831 4219 
Q 1534 4219 1204 4116 
Q 875 4013 500 3803 
L 500 4441 
Q 881 4594 1212 4672 
Q 1544 4750 1819 4750 
Q 2544 4750 2975 4387 
Q 3406 4025 3406 3419 
Q 3406 3131 3298 2873 
Q 3191 2616 2906 2266 
Q 2828 2175 2409 1742 
Q 1991 1309 1228 531 
z
" transform="scale(0.015625)"/>
       </defs>
       <use xlink:href="#DejaVuSans-32"/>
       <use xlink:href="#DejaVuSans-30" x="63.623047"/>
       <use xlink:href="#DejaVuSans-30" x="127.246094"/>
       <use xlink:href="#DejaVuSans-30" x="190.869141"/>
       <use xlink:href="#DejaVuSans-30" x="254.492188"/>
      </g>
     </g>
    </g>
    <g id="xtick_4">
     <g id="line2d_4">
      <g>
       <use xlink:href="#m65337bae8c" x="268.602075" y="307.584" style="stroke: #000000; stroke-width: 0.8"/>
      </g>
     </g>
     <g id="text_4">
      <!-- 30000 -->
      <g transform="translate(252.695825 322.182437) scale(0.1 -0.1)">
       <defs>
        <path id="DejaVuSans-33" d="M 2597 2516 
Q 3050 2419 3304 2112 
Q 3559 1806 3559 1356 
Q 3559 666 3084 287 
Q 2609 -91 1734 -91 
Q 1441 -91 1130 -33 
Q 819 25 488 141 
L 488 750 
Q 750 597 1062 519 
Q 1375 441 1716 441 
Q 2309 441 2620 675 
Q 2931 909 2931 1356 
Q 2931 1769 2642 2001 
Q 2353 2234 1838 2234 
L 1294 2234 
L 1294 2753 
L 1863 2753 
Q 2328 2753 2575 2939 
Q 2822 3125 2822 3475 
Q 2822 3834 2567 4026 
Q 2313 4219 1838 4219 
Q 1578 4219 1281 4162 
Q 984 4106 628 3988 
L 628 4550 
Q 988 4650 1302 4700 
Q 1616 4750 1894 4750 
Q 2613 4750 3031 4423 
Q 3450 4097 3450 3541 
Q 3450 3153 3228 2886 
Q 3006 2619 2597 2516 
z
" transform="scale(0.015625)"/>
       </defs>
       <use xlink:href="#DejaVuSans-33"/>
       <use xlink:href="#DejaVuSans-30" x="63.623047"/>
       <use xlink:href="#DejaVuSans-30" x="127.246094"/>
       <use xlink:href="#DejaVuSans-30" x="190.869141"/>
       <use xlink:href="#DejaVuSans-30" x="254.492188"/>
      </g>
     </g>
    </g>
    <g id="xtick_5">
     <g id="line2d_5">
      <g>
       <use xlink:href="#m65337bae8c" x="333.544674" y="307.584" style="stroke: #000000; stroke-width: 0.8"/>
      </g>
     </g>
     <g id="text_5">
      <!-- 40000 -->
      <g transform="translate(317.638424 322.182437) scale(0.1 -0.1)">
       <defs>
        <path id="DejaVuSans-34" d="M 2419 4116 
L 825 1625 
L 2419 1625 
L 2419 4116 
z
M 2253 4666 
L 3047 4666 
L 3047 1625 
L 3713 1625 
L 3713 1100 
L 3047 1100 
L 3047 0 
L 2419 0 
L 2419 1100 
L 313 1100 
L 313 1709 
L 2253 4666 
z
" transform="scale(0.015625)"/>
       </defs>
       <use xlink:href="#DejaVuSans-34"/>
       <use xlink:href="#DejaVuSans-30" x="63.623047"/>
       <use xlink:href="#DejaVuSans-30" x="127.246094"/>
       <use xlink:href="#DejaVuSans-30" x="190.869141"/>
       <use xlink:href="#DejaVuSans-30" x="254.492188"/>
      </g>
     </g>
    </g>
    <g id="xtick_6">
     <g id="line2d_6">
      <g>
       <use xlink:href="#m65337bae8c" x="398.487273" y="307.584" style="stroke: #000000; stroke-width: 0.8"/>
      </g>
     </g>
     <g id="text_6">
      <!-- 50000 -->
      <g transform="translate(382.581023 322.182437) scale(0.1 -0.1)">
       <defs>
        <path id="DejaVuSans-35" d="M 691 4666 
L 3169 4666 
L 3169 4134 
L 1269 4134 
L 1269 2991 
Q 1406 3038 1543 3061 
Q 1681 3084 1819 3084 
Q 2600 3084 3056 2656 
Q 3513 2228 3513 1497 
Q 3513 744 3044 326 
Q 2575 -91 1722 -91 
Q 1428 -91 1123 -41 
Q 819 9 494 109 
L 494 744 
Q 775 591 1075 516 
Q 1375 441 1709 441 
Q 2250 441 2565 725 
Q 2881 1009 2881 1497 
Q 2881 1984 2565 2268 
Q 2250 2553 1709 2553 
Q 1456 2553 1204 2497 
Q 953 2441 691 2322 
L 691 4666 
z
" transform="scale(0.015625)"/>
       </defs>
       <use xlink:href="#DejaVuSans-35"/>
       <use xlink:href="#DejaVuSans-30" x="63.623047"/>
       <use xlink:href="#DejaVuSans-30" x="127.246094"/>
       <use xlink:href="#DejaVuSans-30" x="190.869141"/>
       <use xlink:href="#DejaVuSans-30" x="254.492188"/>
      </g>
     </g>
    </g>
    <g id="text_7">
     <!-- timesteps -->
     <g transform="translate(211.443594 335.860562) scale(0.1 -0.1)">
      <defs>
       <path id="DejaVuSans-74" d="M 1172 4494 
L 1172 3500 
L 2356 3500 
L 2356 3053 
L 1172 3053 
L 1172 1153 
Q 1172 725 1289 603 
Q 1406 481 1766 481 
L 2356 481 
L 2356 0 
L 1766 0 
Q 1100 0 847 248 
Q 594 497 594 1153 
L 594 3053 
L 172 3053 
L 172 3500 
L 594 3500 
L 594 4494 
L 1172 4494 
z
" transform="scale(0.015625)"/>
       <path id="DejaVuSans-69" d="M 603 3500 
L 1178 3500 
L 1178 0 
L 603 0 
L 603 3500 
z
M 603 4863 
L 1178 4863 
L 1178 4134 
L 603 4134 
L 603 4863 
z
" transform="scale(0.015625)"/>
       <path id="DejaVuSans-6d" d="M 3328 2828 
Q 3544 3216 3844 3400 
Q 4144 3584 4550 3584 
Q 5097 3584 5394 3201 
Q 5691 2819 5691 2113 
L 5691 0 
L 5113 0 
L 5113 2094 
Q 5113 2597 4934 2840 
Q 4756 3084 4391 3084 
Q 3944 3084 3684 2787 
Q 3425 2491 3425 1978 
L 3425 0 
L 2847 0 
L 2847 2094 
Q 2847 2600 2669 2842 
Q 2491 3084 2119 3084 
Q 1678 3084 1418 2786 
Q 1159 2488 1159 1978 
L 1159 0 
L 581 0 
L 581 3500 
L 1159 3500 
L 1159 2956 
Q 1356 3278 1631 3431 
Q 1906 3584 2284 3584 
Q 2666 3584 2933 3390 
Q 3200 3197 3328 2828 
z
" transform="scale(0.015625)"/>
       <path id="DejaVuSans-65" d="M 3597 1894 
L 3597 1613 
L 953 1613 
Q 991 1019 1311 708 
Q 1631 397 2203 397 
Q 2534 397 2845 478 
Q 3156 559 3463 722 
L 3463 178 
Q 3153 47 2828 -22 
Q 2503 -91 2169 -91 
Q 1331 -91 842 396 
Q 353 884 353 1716 
Q 353 2575 817 3079 
Q 1281 3584 2069 3584 
Q 2775 3584 3186 3129 
Q 3597 2675 3597 1894 
z
M 3022 2063 
Q 3016 2534 2758 2815 
Q 2500 3097 2075 3097 
Q 1594 3097 1305 2825 
Q 1016 2553 972 2059 
L 3022 2063 
z
" transform="scale(0.015625)"/>
       <path id="DejaVuSans-73" d="M 2834 3397 
L 2834 2853 
Q 2591 2978 2328 3040 
Q 2066 3103 1784 3103 
Q 1356 3103 1142 2972 
Q 928 2841 928 2578 
Q 928 2378 1081 2264 
Q 1234 2150 1697 2047 
L 1894 2003 
Q 2506 1872 2764 1633 
Q 3022 1394 3022 966 
Q 3022 478 2636 193 
Q 2250 -91 1575 -91 
Q 1294 -91 989 -36 
Q 684 19 347 128 
L 347 722 
Q 666 556 975 473 
Q 1284 391 1588 391 
Q 1994 391 2212 530 
Q 2431 669 2431 922 
Q 2431 1156 2273 1281 
Q 2116 1406 1581 1522 
L 1381 1569 
Q 847 1681 609 1914 
Q 372 2147 372 2553 
Q 372 3047 722 3315 
Q 1072 3584 1716 3584 
Q 2034 3584 2315 3537 
Q 2597 3491 2834 3397 
z
" transform="scale(0.015625)"/>
       <path id="DejaVuSans-70" d="M 1159 525 
L 1159 -1331 
L 581 -1331 
L 581 3500 
L 1159 3500 
L 1159 2969 
Q 1341 3281 1617 3432 
Q 1894 3584 2278 3584 
Q 2916 3584 3314 3078 
Q 3713 2572 3713 1747 
Q 3713 922 3314 415 
Q 2916 -91 2278 -91 
Q 1894 -91 1617 61 
Q 1341 213 1159 525 
z
M 3116 1747 
Q 3116 2381 2855 2742 
Q 2594 3103 2138 3103 
Q 1681 3103 1420 2742 
Q 1159 2381 1159 1747 
Q 1159 1113 1420 752 
Q 1681 391 2138 391 
Q 2594 391 2855 752 
Q 3116 1113 3116 1747 
z
" transform="scale(0.015625)"/>
      </defs>
      <use xlink:href="#DejaVuSans-74"/>
      <use xlink:href="#DejaVuSans-69" x="39.208984"/>
      <use xlink:href="#DejaVuSans-6d" x="66.992188"/>
      <use xlink:href="#DejaVuSans-65" x="164.404297"/>
      <use xlink:href="#DejaVuSans-73" x="225.927734"/>
      <use xlink:href="#DejaVuSans-74" x="278.027344"/>
      <use xlink:href="#DejaVuSans-65" x="317.236328"/>
      <use xlink:href="#DejaVuSans-70" x="378.759766"/>
      <use xlink:href="#DejaVuSans-73" x="442.236328"/>
     </g>
    </g>
   </g>
   <g id="matplotlib.axis_2">
    <g id="ytick_1">
     <g id="line2d_7">
      <defs>
       <path id="m9a332c2875" d="M 0 0 
L -3.5 0 
" style="stroke: #000000; stroke-width: 0.8"/>
      </defs>
      <g>
       <use xlink:href="#m9a332c2875" x="57.6" y="296.08813" style="stroke: #000000; stroke-width: 0.8"/>
      </g>
     </g>
     <g id="text_8">
      <!-- 0 -->
      <g transform="translate(44.2375 299.887349) scale(0.1 -0.1)">
       <use xlink:href="#DejaVuSans-30"/>
      </g>
     </g>
    </g>
    <g id="ytick_2">
     <g id="line2d_8">
      <g>
       <use xlink:href="#m9a332c2875" x="57.6" y="254.986685" style="stroke: #000000; stroke-width: 0.8"/>
      </g>
     </g>
     <g id="text_9">
      <!-- 50 -->
      <g transform="translate(37.875 258.785903) scale(0.1 -0.1)">
       <use xlink:href="#DejaVuSans-35"/>
       <use xlink:href="#DejaVuSans-30" x="63.623047"/>
      </g>
     </g>
    </g>
    <g id="ytick_3">
     <g id="line2d_9">
      <g>
       <use xlink:href="#m9a332c2875" x="57.6" y="213.885239" style="stroke: #000000; stroke-width: 0.8"/>
      </g>
     </g>
     <g id="text_10">
      <!-- 100 -->
      <g transform="translate(31.5125 217.684458) scale(0.1 -0.1)">
       <use xlink:href="#DejaVuSans-31"/>
       <use xlink:href="#DejaVuSans-30" x="63.623047"/>
       <use xlink:href="#DejaVuSans-30" x="127.246094"/>
      </g>
     </g>
    </g>
    <g id="ytick_4">
     <g id="line2d_10">
      <g>
       <use xlink:href="#m9a332c2875" x="57.6" y="172.783794" style="stroke: #000000; stroke-width: 0.8"/>
      </g>
     </g>
     <g id="text_11">
      <!-- 150 -->
      <g transform="translate(31.5125 176.583013) scale(0.1 -0.1)">
       <use xlink:href="#DejaVuSans-31"/>
       <use xlink:href="#DejaVuSans-35" x="63.623047"/>
       <use xlink:href="#DejaVuSans-30" x="127.246094"/>
      </g>
     </g>
    </g>
    <g id="ytick_5">
     <g id="line2d_11">
      <g>
       <use xlink:href="#m9a332c2875" x="57.6" y="131.682349" style="stroke: #000000; stroke-width: 0.8"/>
      </g>
     </g>
     <g id="text_12">
      <!-- 200 -->
      <g transform="translate(31.5125 135.481568) scale(0.1 -0.1)">
       <use xlink:href="#DejaVuSans-32"/>
       <use xlink:href="#DejaVuSans-30" x="63.623047"/>
       <use xlink:href="#DejaVuSans-30" x="127.246094"/>
      </g>
     </g>
    </g>
    <g id="ytick_6">
     <g id="line2d_12">
      <g>
       <use xlink:href="#m9a332c2875" x="57.6" y="90.580904" style="stroke: #000000; stroke-width: 0.8"/>
      </g>
     </g>
     <g id="text_13">
      <!-- 250 -->
      <g transform="translate(31.5125 94.380122) scale(0.1 -0.1)">
       <use xlink:href="#DejaVuSans-32"/>
       <use xlink:href="#DejaVuSans-35" x="63.623047"/>
       <use xlink:href="#DejaVuSans-30" x="127.246094"/>
      </g>
     </g>
    </g>
    <g id="ytick_7">
     <g id="line2d_13">
      <g>
       <use xlink:href="#m9a332c2875" x="57.6" y="49.479458" style="stroke: #000000; stroke-width: 0.8"/>
      </g>
     </g>
     <g id="text_14">
      <!-- 300 -->
      <g transform="translate(31.5125 53.278677) scale(0.1 -0.1)">
       <use xlink:href="#DejaVuSans-33"/>
       <use xlink:href="#DejaVuSans-30" x="63.623047"/>
       <use xlink:href="#DejaVuSans-30" x="127.246094"/>
      </g>
     </g>
    </g>
    <g id="text_15">
     <!-- mean episode rewards -->
     <g transform="translate(25.432812 231.360031) rotate(-90) scale(0.1 -0.1)">
      <defs>
       <path id="DejaVuSans-61" d="M 2194 1759 
Q 1497 1759 1228 1600 
Q 959 1441 959 1056 
Q 959 750 1161 570 
Q 1363 391 1709 391 
Q 2188 391 2477 730 
Q 2766 1069 2766 1631 
L 2766 1759 
L 2194 1759 
z
M 3341 1997 
L 3341 0 
L 2766 0 
L 2766 531 
Q 2569 213 2275 61 
Q 1981 -91 1556 -91 
Q 1019 -91 701 211 
Q 384 513 384 1019 
Q 384 1609 779 1909 
Q 1175 2209 1959 2209 
L 2766 2209 
L 2766 2266 
Q 2766 2663 2505 2880 
Q 2244 3097 1772 3097 
Q 1472 3097 1187 3025 
Q 903 2953 641 2809 
L 641 3341 
Q 956 3463 1253 3523 
Q 1550 3584 1831 3584 
Q 2591 3584 2966 3190 
Q 3341 2797 3341 1997 
z
" transform="scale(0.015625)"/>
       <path id="DejaVuSans-6e" d="M 3513 2113 
L 3513 0 
L 2938 0 
L 2938 2094 
Q 2938 2591 2744 2837 
Q 2550 3084 2163 3084 
Q 1697 3084 1428 2787 
Q 1159 2491 1159 1978 
L 1159 0 
L 581 0 
L 581 3500 
L 1159 3500 
L 1159 2956 
Q 1366 3272 1645 3428 
Q 1925 3584 2291 3584 
Q 2894 3584 3203 3211 
Q 3513 2838 3513 2113 
z
" transform="scale(0.015625)"/>
       <path id="DejaVuSans-20" transform="scale(0.015625)"/>
       <path id="DejaVuSans-6f" d="M 1959 3097 
Q 1497 3097 1228 2736 
Q 959 2375 959 1747 
Q 959 1119 1226 758 
Q 1494 397 1959 397 
Q 2419 397 2687 759 
Q 2956 1122 2956 1747 
Q 2956 2369 2687 2733 
Q 2419 3097 1959 3097 
z
M 1959 3584 
Q 2709 3584 3137 3096 
Q 3566 2609 3566 1747 
Q 3566 888 3137 398 
Q 2709 -91 1959 -91 
Q 1206 -91 779 398 
Q 353 888 353 1747 
Q 353 2609 779 3096 
Q 1206 3584 1959 3584 
z
" transform="scale(0.015625)"/>
       <path id="DejaVuSans-64" d="M 2906 2969 
L 2906 4863 
L 3481 4863 
L 3481 0 
L 2906 0 
L 2906 525 
Q 2725 213 2448 61 
Q 2172 -91 1784 -91 
Q 1150 -91 751 415 
Q 353 922 353 1747 
Q 353 2572 751 3078 
Q 1150 3584 1784 3584 
Q 2172 3584 2448 3432 
Q 2725 3281 2906 2969 
z
M 947 1747 
Q 947 1113 1208 752 
Q 1469 391 1925 391 
Q 2381 391 2643 752 
Q 2906 1113 2906 1747 
Q 2906 2381 2643 2742 
Q 2381 3103 1925 3103 
Q 1469 3103 1208 2742 
Q 947 2381 947 1747 
z
" transform="scale(0.015625)"/>
       <path id="DejaVuSans-72" d="M 2631 2963 
Q 2534 3019 2420 3045 
Q 2306 3072 2169 3072 
Q 1681 3072 1420 2755 
Q 1159 2438 1159 1844 
L 1159 0 
L 581 0 
L 581 3500 
L 1159 3500 
L 1159 2956 
Q 1341 3275 1631 3429 
Q 1922 3584 2338 3584 
Q 2397 3584 2469 3576 
Q 2541 3569 2628 3553 
L 2631 2963 
z
" transform="scale(0.015625)"/>
       <path id="DejaVuSans-77" d="M 269 3500 
L 844 3500 
L 1563 769 
L 2278 3500 
L 2956 3500 
L 3675 769 
L 4391 3500 
L 4966 3500 
L 4050 0 
L 3372 0 
L 2619 2869 
L 1863 0 
L 1184 0 
L 269 3500 
z
" transform="scale(0.015625)"/>
      </defs>
      <use xlink:href="#DejaVuSans-6d"/>
      <use xlink:href="#DejaVuSans-65" x="97.412109"/>
      <use xlink:href="#DejaVuSans-61" x="158.935547"/>
      <use xlink:href="#DejaVuSans-6e" x="220.214844"/>
      <use xlink:href="#DejaVuSans-20" x="283.59375"/>
      <use xlink:href="#DejaVuSans-65" x="315.380859"/>
      <use xlink:href="#DejaVuSans-70" x="376.904297"/>
      <use xlink:href="#DejaVuSans-69" x="440.380859"/>
      <use xlink:href="#DejaVuSans-73" x="468.164062"/>
      <use xlink:href="#DejaVuSans-6f" x="520.263672"/>
      <use xlink:href="#DejaVuSans-64" x="581.445312"/>
      <use xlink:href="#DejaVuSans-65" x="644.921875"/>
      <use xlink:href="#DejaVuSans-20" x="706.445312"/>
      <use xlink:href="#DejaVuSans-72" x="738.232422"/>
      <use xlink:href="#DejaVuSans-65" x="777.095703"/>
      <use xlink:href="#DejaVuSans-77" x="838.619141"/>
      <use xlink:href="#DejaVuSans-61" x="920.40625"/>
      <use xlink:href="#DejaVuSans-72" x="981.685547"/>
      <use xlink:href="#DejaVuSans-64" x="1021.048828"/>
      <use xlink:href="#DejaVuSans-73" x="1084.525391"/>
     </g>
    </g>
   </g>
   <g id="line2d_14">
    <path d="M 73.832727 292.263029 
L 74.066521 287.731993 
L 74.150946 293.261339 
L 74.443188 284.770345 
L 74.547096 290.815273 
L 74.651004 288.737055 
L 74.761406 283.539198 
L 74.891292 286.316157 
L 75.027671 286.117861 
L 75.177039 293.122059 
L 75.339396 288.436389 
L 75.501752 269.528513 
L 75.60566 292.900989 
L 75.69658 288.485794 
L 75.897902 270.49711 
L 75.995316 286.884235 
L 76.579799 269.391352 
L 76.65773 287.889489 
L 76.930489 276.052806 
L 77.19026 274.985052 
L 77.300662 286.309115 
L 77.488996 284.635644 
L 77.638364 285.197828 
L 77.820203 283.721218 
L 77.911122 286.222198 
L 78.112445 272.002112 
L 78.274801 289.403453 
L 78.722905 265.035799 
L 78.904744 289.779773 
L 78.976181 289.129053 
L 79.067101 292.136173 
L 79.222963 290.734197 
L 79.385319 285.721405 
L 79.495722 287.157285 
L 79.710032 253.472512 
L 79.807446 284.898613 
L 80.04124 284.651281 
L 80.223079 270.656172 
L 80.352964 283.59053 
L 80.560781 270.124161 
L 80.664689 288.502014 
L 80.878999 267.989705 
L 81.034861 288.590862 
L 81.158252 289.992835 
L 81.424517 282.566925 
L 81.645322 289.778848 
L 82.086932 279.829128 
L 82.242794 271.326688 
L 82.372679 287.594406 
L 82.502564 279.10874 
L 82.612967 284.800127 
L 82.781817 279.433021 
L 83.216933 274.205153 
L 83.307852 289.162639 
L 83.431243 287.599288 
L 83.515669 291.031843 
L 83.814405 266.210884 
L 83.911819 289.342458 
L 84.002738 285.978531 
L 84.119635 283.683861 
L 84.184578 290.043289 
L 84.256014 289.785201 
L 84.320957 290.547363 
L 84.515785 288.994446 
L 85.002854 247.012029 
L 85.171705 291.707054 
L 85.269119 286.914133 
L 85.457452 290.206407 
L 85.554866 288.305693 
L 85.639292 289.162734 
L 85.853602 270.674919 
L 85.989982 288.82744 
L 86.145844 277.741273 
L 86.230269 287.900927 
L 86.334178 282.962305 
L 86.678373 217.953596 
L 86.834236 278.074594 
L 87.016075 271.425629 
L 87.126477 289.633651 
L 87.23688 283.364958 
L 87.334294 289.511212 
L 87.678489 243.800614 
L 87.905788 291.882391 
L 87.977225 290.143238 
L 88.353892 254.058133 
L 88.522743 289.146766 
L 88.665617 283.412159 
L 88.801996 283.412183 
L 88.951364 291.886424 
L 89.276077 282.208129 
L 89.451422 289.78168 
L 89.854066 279.457854 
L 89.912515 291.767332 
L 90.126825 271.883324 
L 90.39309 283.10075 
L 90.496998 287.574379 
L 90.633378 278.09307 
L 91.010045 234.779332 
L 91.087976 289.271235 
L 91.172401 289.011413 
L 91.367229 274.716817 
L 91.49062 289.990984 
L 91.614011 287.941169 
L 91.743896 277.839588 
L 91.945218 289.913332 
L 92.140046 282.830873 
L 92.276425 286.823936 
L 92.555678 242.835675 
L 92.698552 282.710344 
L 92.828437 281.123128 
L 92.906369 291.834701 
L 93.451886 268.704062 
L 93.588266 288.881163 
L 93.867519 270.518747 
L 94.003898 290.364181 
L 94.08183 291.240663 
L 94.237692 274.313445 
L 94.536428 290.367897 
L 94.653324 284.849246 
L 94.73775 289.092234 
L 94.887118 284.795323 
L 95.055969 271.494119 
L 95.146888 289.941401 
L 95.244302 286.666516 
L 95.426141 286.83217 
L 95.705395 289.215171 
L 95.945682 285.518745 
L 96.030108 285.555289 
L 96.14051 289.409692 
L 96.335338 287.287575 
L 96.601602 263.119285 
L 96.848384 288.351044 
L 96.997752 281.808874 
L 97.121143 282.412688 
L 97.367925 267.567301 
L 97.549764 288.552122 
L 97.653672 285.981539 
L 97.790052 278.402637 
L 98.121259 246.091931 
L 98.316087 262.668402 
L 98.400512 286.979586 
L 98.504421 284.191669 
L 98.679766 291.773424 
L 98.796662 286.665091 
L 99.03695 290.06853 
L 99.121375 286.433933 
L 99.29672 284.891605 
L 99.465571 276.126307 
L 99.725341 290.236788 
L 99.848732 281.843183 
L 99.991606 289.665545 
L 100.400744 219.790777 
L 100.615055 286.924207 
L 100.731952 285.17219 
L 100.842354 286.206755 
L 100.952757 288.832383 
L 101.056665 283.639095 
L 101.212527 286.147124 
L 101.452815 266.074464 
L 101.576205 288.862223 
L 101.667125 285.944363 
L 101.790516 291.237927 
L 101.868447 290.342603 
L 102.180172 280.8098 
L 102.264597 287.169019 
L 102.426954 269.777605 
L 102.517873 288.485722 
L 102.693218 289.079914 
L 102.797126 292.759853 
L 102.920517 289.69938 
L 103.167299 248.809593 
L 103.362127 285.491613 
L 103.563449 273.013531 
L 103.745288 289.323772 
L 103.868679 288.27042 
L 104.011553 289.385603 
L 104.725922 183.223734 
L 104.940232 279.591748 
L 105.096094 277.139778 
L 105.212991 288.228076 
L 105.420807 268.04936 
L 105.518221 286.749734 
L 105.628624 284.253174 
L 105.758509 293.359581 
L 105.985808 283.174489 
L 106.180636 289.426107 
L 106.544314 274.735542 
L 106.674199 289.824375 
L 106.758625 287.989258 
L 106.849544 289.899406 
L 106.998912 286.397957 
L 107.19374 291.13804 
L 107.414545 277.168243 
L 107.518453 289.153393 
L 107.667821 289.06597 
L 107.810695 283.746599 
L 107.875638 289.390737 
L 108.005523 278.027552 
L 108.252305 271.538927 
L 108.343224 288.674132 
L 108.479604 288.050469 
L 108.570523 285.097983 
L 108.674432 285.688711 
L 108.810811 280.885583 
L 108.875754 290.219514 
L 109.044604 285.923148 
L 109.232938 288.230675 
L 109.473225 254.540649 
L 109.590122 287.502182 
L 109.732996 281.494245 
L 109.823916 287.021147 
L 110.018743 268.394846 
L 110.109663 285.136924 
L 110.252537 280.524137 
L 110.323974 290.238428 
L 110.401905 288.143625 
L 110.616215 278.199481 
L 110.694146 289.007515 
L 110.804549 288.487955 
L 110.960411 280.714735 
L 111.070813 288.083679 
L 111.531906 222.316182 
L 111.694262 279.090181 
L 111.915067 274.887644 
L 112.044952 279.734153 
L 112.181332 291.695736 
L 112.265757 287.639034 
L 112.350183 288.455441 
L 112.512539 286.019509 
L 112.609953 288.911605 
L 112.739838 281.50016 
L 113.097022 290.069354 
L 113.226908 281.019018 
L 113.454207 290.340784 
L 113.655529 287.512117 
L 113.856851 284.758433 
L 113.934782 289.128904 
L 114.045184 283.588054 
L 114.220529 283.166113 
L 114.330932 283.604528 
L 114.441334 286.401497 
L 114.623174 287.745073 
L 114.720587 287.612796 
L 114.92191 279.998892 
L 115.103749 286.146715 
L 115.22714 284.915208 
L 115.318059 287.738255 
L 115.53237 284.387939 
L 115.766163 254.527461 
L 115.922026 288.706216 
L 116.129842 274.71538 
L 116.428578 289.073406 
L 116.506509 287.732357 
L 116.967601 274.526742 
L 117.149441 281.154734 
L 117.493636 260.692248 
L 117.675476 290.157985 
L 117.922258 283.080262 
L 118.130074 291.99226 
L 118.266453 284.876912 
L 118.558695 241.486118 
L 118.64312 286.283796 
L 118.837948 271.40812 
L 118.915879 291.297193 
L 119.065247 285.805046 
L 119.234098 291.345422 
L 119.474386 280.805075 
L 119.539328 289.505271 
L 119.708179 279.883983 
L 119.805593 286.416129 
L 119.935478 285.174732 
L 120.026398 290.650787 
L 120.084846 290.55991 
L 120.195249 289.661343 
L 120.338122 278.157241 
L 120.429042 290.036902 
L 120.571916 286.467871 
L 120.88364 264.940775 
L 120.948583 289.612408 
L 121.091456 284.347848 
L 121.175882 288.381237 
L 121.318755 287.963145 
L 121.487606 281.996923 
L 121.559043 289.733937 
L 121.656457 285.847666 
L 121.753871 288.425443 
L 121.909733 275.453484 
L 122.085078 290.332621 
L 122.182492 287.168943 
L 122.338354 288.303241 
L 122.468239 283.517754 
L 122.831918 237.742376 
L 122.903355 290.036691 
L 123.065711 278.140218 
L 123.280022 290.488704 
L 123.377436 288.381243 
L 123.507321 288.216021 
L 123.624218 286.9094 
L 123.747609 287.05326 
L 123.916459 286.242 
L 124.007379 290.636217 
L 124.078816 289.135938 
L 124.189218 285.060046 
L 124.293127 289.723725 
L 124.416517 282.674419 
L 124.663299 250.480336 
L 124.858127 288.187161 
L 124.975024 288.711543 
L 125.085426 281.835842 
L 125.195829 289.265375 
L 125.332208 276.509815 
L 125.429622 289.289697 
L 125.630944 278.411338 
L 125.702381 291.018168 
L 125.845255 280.767832 
L 126.001117 279.013294 
L 126.072554 293.936118 
L 126.332324 243.376439 
L 126.501175 290.569357 
L 126.825888 289.14592 
L 127.007727 289.701131 
L 127.33244 221.976437 
L 127.462325 286.048993 
L 127.787038 231.584944 
L 127.936406 278.437365 
L 128.092269 272.658089 
L 128.287096 289.338735 
L 128.87158 223.245909 
L 128.949511 289.434584 
L 129.13135 270.795915 
L 129.26773 291.533124 
L 129.475546 278.254313 
L 129.637902 288.817487 
L 130.092501 267.917632 
L 130.313305 262.460555 
L 130.456179 278.383869 
L 130.605547 278.947553 
L 130.832846 288.185066 
L 130.93026 286.263239 
L 131.345893 272.034507 
L 131.579686 290.123156 
L 131.664111 290.087776 
L 131.774514 286.645823 
L 131.969342 275.05654 
L 132.021296 291.517493 
L 132.086238 289.528673 
L 132.488882 282.821618 
L 132.592791 288.152095 
L 132.677216 286.388594 
L 133.118826 202.667077 
L 133.540953 288.608342 
L 133.820206 276.272098 
L 133.995551 281.834473 
L 134.073482 289.134078 
L 134.203367 280.639527 
L 134.359229 287.954186 
L 134.508597 275.880508 
L 134.677448 279.024539 
L 134.859287 291.453969 
L 134.963195 288.015526 
L 135.106069 288.35212 
L 135.184 289.014515 
L 135.385322 267.081065 
L 135.586644 260.627033 
L 135.703541 287.645014 
L 135.859403 279.403595 
L 135.963312 289.170943 
L 136.145151 289.156021 
L 136.443887 240.297826 
L 136.521818 290.038384 
L 136.710151 287.891892 
L 136.781588 289.308667 
L 136.995899 282.62562 
L 137.086818 287.052949 
L 137.229692 286.34927 
L 137.372566 284.469686 
L 137.489463 285.208753 
L 137.619348 290.546762 
L 137.898601 252.17089 
L 137.970038 290.535897 
L 138.054463 289.043873 
L 138.26228 285.728306 
L 138.320728 291.084234 
L 138.43113 287.416287 
L 138.56751 289.333789 
L 138.658429 288.639082 
L 138.788315 283.140423 
L 138.931188 288.856184 
L 139.139005 278.370636 
L 139.26889 281.487072 
L 139.366304 289.021166 
L 139.515672 280.527009 
L 139.678028 290.574127 
L 139.950787 279.484875 
L 140.256017 242.842272 
L 140.463834 288.996752 
L 140.561247 288.354083 
L 140.918432 266.096216 
L 141.405501 197.082212 
L 141.567858 286.880587 
L 141.665272 291.696023 
L 141.795157 280.748729 
L 141.970502 278.756064 
L 142.093893 287.305161 
L 142.282226 264.586009 
L 142.353663 291.266946 
L 142.451077 286.967653 
L 142.580962 286.652354 
L 142.645905 289.761717 
L 142.814756 278.475431 
L 143.016078 280.577133 
L 143.152457 292.359692 
L 143.516136 273.785314 
L 143.646021 287.552575 
L 143.96424 244.8294 
L 144.068148 290.840124 
L 144.249987 273.583724 
L 144.399355 289.67207 
L 144.607171 286.925372 
L 145.003321 248.72543 
L 145.055275 291.330987 
L 145.120218 290.173357 
L 145.185161 291.052364 
L 145.386483 263.622381 
L 145.509874 290.874564 
L 145.594299 288.717758 
L 145.678724 290.109504 
L 145.776138 286.946938 
L 145.860564 290.331517 
L 145.938495 288.36424 
L 146.172288 271.999765 
L 146.315162 290.328311 
L 146.393093 291.753275 
L 146.548955 275.095861 
L 146.750277 293.535811 
L 146.984071 288.835758 
L 147.269818 277.641199 
L 147.334761 289.776219 
L 147.438669 285.503027 
L 147.542577 288.134599 
L 147.646485 287.747382 
L 147.841313 274.956461 
L 148.062118 268.133691 
L 148.237463 276.711335 
L 148.52321 257.326656 
L 148.640107 282.464435 
L 148.757003 282.738279 
L 148.854417 288.412171 
L 149.055739 268.089517 
L 149.283039 288.127058 
L 149.36097 288.16087 
L 149.451889 287.315655 
L 149.932464 217.532869 
L 150.042867 283.132867 
L 150.192235 287.906056 
L 150.309132 281.036841 
L 150.36758 291.438877 
L 150.445511 289.003884 
L 150.653327 258.782046 
L 150.731258 290.33619 
L 150.822178 285.854382 
L 151.088443 278.461795 
L 151.37419 292.019474 
L 151.588501 284.922487 
L 151.666432 291.227778 
L 152.140513 275.226644 
L 152.309364 288.671233 
L 152.458732 274.863437 
L 152.679536 286.031244 
L 152.841893 285.125871 
L 152.95879 281.927145 
L 153.075686 285.462048 
L 153.192583 282.638578 
L 153.315974 288.419186 
L 153.458848 283.739655 
L 153.510802 292.829224 
L 153.751089 285.951979 
L 153.835515 286.739376 
L 153.945917 289.480623 
L 154.212182 280.594527 
L 154.348561 277.427333 
L 154.439481 291.362985 
L 154.640803 290.957835 
L 154.829136 273.105884 
L 154.946033 287.494184 
L 155.075918 281.649043 
L 155.192815 288.793705 
L 155.3227 281.48691 
L 155.426608 287.939918 
L 155.575976 287.857527 
L 155.653907 289.80237 
L 155.76431 285.466673 
L 155.874712 288.833898 
L 155.952643 288.680068 
L 156.050057 290.087772 
L 156.381265 282.279912 
L 156.472184 285.564687 
L 156.615058 283.405887 
L 156.744943 286.668434 
L 156.926782 265.461413 
L 157.030691 289.750774 
L 157.193047 271.027409 
L 157.270978 291.213579 
L 157.4723 275.259957 
L 157.634657 276.1315 
L 157.861956 288.189281 
L 157.939887 290.58117 
L 158.147703 264.061446 
L 158.2646 287.504725 
L 158.387991 287.324869 
L 158.550347 282.061031 
L 158.777646 256.438277 
L 159.394601 144.208582 
L 159.634889 288.630652 
L 159.80374 291.086439 
L 160.070004 262.717086 
L 160.193395 287.353045 
L 160.310292 283.764617 
L 160.518108 288.913351 
L 160.686959 288.817192 
L 160.738913 291.918317 
L 160.888281 272.617197 
L 161.044143 275.417311 
L 161.258454 270.491842 
L 161.459776 275.858456 
L 161.550695 288.969744 
L 161.758512 285.707383 
L 161.868914 286.49104 
L 161.933857 291.803747 
L 162.115696 278.904579 
L 162.323512 289.502784 
L 162.557306 262.67689 
L 162.628743 290.202508 
L 162.745639 288.486344 
L 162.875524 290.885067 
L 163.050869 276.133915 
L 163.128801 288.000975 
L 163.232709 283.911731 
L 163.511962 254.085596 
L 163.635353 288.234609 
L 163.739261 285.379387 
L 164.154894 209.665075 
L 164.356216 289.128213 
L 164.525066 283.193494 
L 164.726388 289.339064 
L 164.817308 289.42347 
L 164.882251 290.083907 
L 165.070584 288.532313 
L 165.142021 290.569112 
L 165.232941 287.658108 
L 165.395297 274.247175 
L 165.5057 288.090002 
L 165.752482 285.069901 
L 165.836907 286.635348 
L 165.921332 286.132733 
L 166.018746 286.586475 
L 166.129149 283.913126 
L 166.285011 277.198165 
L 166.473344 290.53596 
L 166.648689 269.287275 
L 166.739609 290.411125 
L 166.869494 277.258484 
L 167.200702 288.960565 
L 167.272138 288.946767 
L 167.382541 289.798248 
L 167.603346 280.100536 
L 167.804668 286.699337 
L 167.96053 284.545328 
L 168.200818 288.057024 
L 168.363174 288.63001 
L 168.473576 283.992262 
L 168.687887 267.891232 
L 168.863232 266.759421 
L 169.05806 289.35314 
L 169.298347 250.932608 
L 169.369784 289.034031 
L 169.486681 281.784386 
L 169.662026 282.858172 
L 169.921796 261.418272 
L 170.025705 290.441209 
L 170.285475 262.065702 
L 170.50628 260.324523 
L 170.941395 210.269603 
L 171.1622 289.255358 
L 171.279097 288.210346 
L 171.454442 274.993238 
L 171.610304 274.8561 
L 171.870074 291.037316 
L 172.175305 224.064583 
L 172.246741 287.741392 
L 172.831225 217.947945 
L 172.993581 280.420664 
L 173.168926 282.403569 
L 173.376743 269.026675 
L 173.44818 289.07297 
L 173.610536 291.856264 
L 173.831341 284.042123 
L 174.039157 269.704484 
L 174.31841 290.199051 
L 174.461284 279.716793 
L 174.701572 282.696155 
L 174.779503 287.835214 
L 174.961342 282.332975 
L 175.039273 288.239987 
L 175.234101 269.931118 
L 175.402952 275.018511 
L 175.454906 293.144797 
L 175.604274 285.211866 
L 175.825079 251.067739 
L 175.928987 288.094577 
L 176.156286 243.243234 
L 176.227723 289.543103 
L 176.435539 266.801026 
L 176.539447 284.89381 
L 176.662838 285.592902 
L 176.747264 290.646525 
L 176.883643 280.992262 
L 176.961574 289.551043 
L 177.175885 275.403357 
L 177.266804 289.539267 
L 177.429161 271.180533 
L 177.572035 283.524555 
L 177.805828 292.21426 
L 177.903242 283.307801 
L 178.00715 284.119069 
L 178.130541 280.15857 
L 178.44876 228.435048 
L 178.520196 290.775209 
L 178.611116 284.486459 
L 178.734507 282.854441 
L 178.870887 283.219338 
L 178.942323 290.867067 
L 179.45537 206.08384 
L 179.513818 291.611725 
L 179.611232 285.846481 
L 179.71514 282.336645 
L 179.80606 288.876073 
L 179.981405 265.597692 
L 180.078819 284.844402 
L 180.448992 270.068359 
L 180.526923 289.990005 
L 180.650314 290.065969 
L 180.728245 289.076508 
L 180.799682 289.191638 
L 180.94905 277.537109 
L 181.033475 289.959522 
L 181.273763 272.605544 
L 181.410142 292.974734 
L 181.676407 248.149643 
L 181.95566 289.969783 
L 182.033591 290.053832 
L 182.30635 274.263646 
L 182.696006 288.486381 
L 182.806408 286.154223 
L 182.988247 275.523474 
L 183.533765 179.785804 
L 183.66365 282.674613 
L 183.80003 280.872582 
L 183.897444 289.21321 
L 184.046812 271.536049 
L 184.468939 240.388409 
L 184.917042 173.727237 
L 185.261238 289.694455 
L 185.592445 241.843782 
L 185.787273 264.274206 
L 186.215894 199.276109 
L 186.287331 292.322603 
L 186.384745 287.219543 
L 186.56009 276.415084 
L 186.663998 289.801067 
L 187.021183 274.168094 
L 187.138079 288.992613 
L 187.30693 259.765385 
L 187.365378 291.942925 
L 187.456298 285.554537 
L 187.651126 253.390849 
L 188.131701 215.771985 
L 188.371989 289.184827 
L 188.722679 273.870773 
L 188.787621 292.770966 
L 189.073369 289.505266 
L 189.183771 285.774396 
L 189.307162 288.386792 
L 189.443542 279.126397 
L 189.50199 291.136874 
L 189.891646 256.332952 
L 190.079979 262.517004 
L 190.450152 247.372774 
L 190.547566 286.996791 
L 191.021647 231.593962 
L 191.119061 290.579171 
L 191.274923 291.666501 
L 191.365843 288.23584 
L 191.554176 273.928604 
L 191.658084 289.0085 
L 191.820441 268.395846 
L 192.008774 293.76607 
L 192.119177 285.045126 
L 192.469867 213.324336 
L 192.547798 290.888032 
L 192.846534 280.122838 
L 193.288143 221.363286 
L 194.047972 194.107027 
L 194.19734 290.40322 
L 194.372685 287.045346 
L 194.444122 289.425951 
L 194.54803 283.801552 
L 194.638949 287.804991 
L 194.775329 280.393408 
L 194.94418 280.527237 
L 195.164985 285.517047 
L 195.574123 248.804547 
L 195.762456 289.24435 
L 196.113146 225.123114 
L 196.236537 293.529318 
L 196.333951 284.675301 
L 196.463837 289.980011 
L 196.69763 282.579415 
L 196.762572 289.176859 
L 196.885963 287.894804 
L 197.158722 234.145712 
L 197.30809 292.151214 
L 197.44447 278.597773 
L 197.678263 269.253495 
L 197.918551 243.100032 
L 198.158838 289.857204 
L 198.301712 285.098805 
L 198.613437 226.242885 
L 198.788782 285.325531 
L 199.223897 211.468417 
L 199.509644 232.594667 
L 199.814875 245.813829 
L 199.938266 290.586519 
L 200.035679 288.083799 
L 200.308438 245.568996 
L 200.665623 218.63489 
L 200.86045 281.503227 
L 200.970853 281.34047 
L 201.068267 289.00752 
L 201.146198 287.905966 
L 201.276083 285.592393 
L 201.542348 236.83576 
L 201.678727 295.488 
L 201.944992 279.004656 
L 202.509992 169.237356 
L 202.639878 288.187166 
L 202.847694 275.613624 
L 202.990568 287.963788 
L 203.315281 272.583866 
L 203.419189 287.142294 
L 203.54258 287.429339 
L 203.685453 289.303158 
L 203.769879 285.658692 
L 203.919247 287.769492 
L 204.042638 281.419331 
L 204.185512 291.300477 
L 204.328385 278.770267 
L 204.406316 286.621155 
L 204.614133 285.622615 
L 204.789478 286.733408 
L 204.860915 287.991695 
L 204.9908 276.182427 
L 205.114191 282.797227 
L 205.289536 277.595737 
L 205.373961 290.531751 
L 205.627237 235.604493 
L 205.776605 290.005284 
L 205.919479 285.894329 
L 206.146778 270.109846 
L 206.231203 292.85649 
L 206.640342 194.420088 
L 206.83517 290.988565 
L 206.945572 285.242374 
L 207.309251 231.525445 
L 207.543044 275.18615 
L 207.815803 234.076982 
L 208.088562 234.349621 
L 208.4977 209.386267 
L 208.686034 292.795408 
L 209.069195 256.603708 
L 209.186092 287.223046 
L 209.419885 292.56198 
L 210.075805 220.70043 
L 210.218679 295.182222 
L 210.725231 239.056669 
L 211.173335 255.221644 
L 211.335692 270.961038 
L 211.530519 253.347754 
L 211.757819 250.254495 
L 211.907186 276.654295 
L 212.147474 261.790297 
L 212.472187 259.107175 
L 212.654026 288.419562 
L 212.88782 282.808342 
L 213.050176 281.901921 
L 213.141096 289.422846 
L 213.478797 219.611013 
L 213.738568 243.835896 
L 213.810005 290.052327 
L 214.011327 260.07625 
L 214.206154 289.740367 
L 214.563339 294.539298 
L 214.654258 288.334117 
L 215.180293 146.11162 
L 215.368627 274.186549 
L 215.595926 290.943978 
L 215.881674 241.964908 
L 215.972593 287.664492 
L 216.537594 261.84472 
L 216.693456 290.620324 
L 216.823341 280.323423 
L 216.985698 292.15482 
L 217.23248 284.83017 
L 217.316905 287.667156 
L 217.550698 242.015545 
L 217.816963 233.714636 
L 217.927365 294.280923 
L 218.109205 265.264037 
L 218.349492 284.038411 
L 218.505355 282.81424 
L 218.862539 233.136762 
L 218.998918 288.88902 
L 219.076849 287.77811 
L 219.135298 290.141874 
L 219.317137 288.89149 
L 219.576907 236.640455 
L 219.700298 293.104941 
L 219.90162 252.629702 
L 220.219839 252.749536 
L 220.590012 293.253179 
L 220.804323 291.77906 
L 221.297886 244.942168 
L 221.479726 283.586574 
L 221.648576 285.607026 
L 222.135646 197.167103 
L 222.259037 281.574363 
L 222.570761 222.321328 
L 222.674669 287.830857 
L 222.84352 271.370781 
L 222.960417 289.312871 
L 223.505935 195.870726 
L 223.733234 247.108034 
L 223.967027 243.117393 
L 224.24628 250.00558 
L 224.876223 237.300273 
L 225.097028 286.900131 
L 225.454213 238.657812 
L 225.707489 250.162627 
L 225.921799 249.650834 
L 226.051685 290.762779 
L 226.201052 278.046404 
L 226.714099 182.007534 
L 227.032318 220.531537 
L 227.168697 280.672513 
L 227.383008 285.597518 
L 227.577836 278.622192 
L 227.8441 276.775764 
L 228.214273 228.924086 
L 228.415595 292.956371 
L 228.54548 289.845016 
L 228.928642 238.344488 
L 229.090998 287.518625 
L 229.396228 228.107182 
L 229.565079 276.511894 
L 229.824849 237.988492 
L 230.006689 286.991039 
L 230.279448 233.504871 
L 230.422321 289.427458 
L 230.844448 238.57787 
L 231.13669 227.592517 
L 231.325024 292.790017 
L 231.461403 284.370604 
L 231.701691 286.74608 
L 231.935484 246.043923 
L 232.331634 286.13891 
L 232.58491 238.613395 
L 232.877152 272.295855 
L 233.143416 274.64341 
L 233.37721 241.492271 
L 233.552555 288.664785 
L 233.68244 280.103956 
L 234.442268 191.964211 
L 234.676062 284.449977 
L 235.156637 198.143378 
L 235.364453 250.965045 
L 235.520315 260.839166 
L 235.858017 269.770411 
L 236.020373 292.533387 
L 236.189224 285.777478 
L 236.338592 287.654948 
L 236.669799 212.582418 
L 236.780202 287.30908 
L 236.955547 256.821367 
L 237.085432 291.14604 
L 237.273766 290.88463 
L 237.754341 195.633658 
L 237.955663 293.23034 
L 238.403767 259.493598 
L 238.94279 170.226898 
L 239.12463 255.770978 
L 239.767561 193.45219 
L 240.118251 267.56049 
L 240.365033 240.601006 
L 240.754689 239.619109 
L 240.884574 293.507363 
L 241.157333 278.658208 
L 241.397621 239.485497 
L 241.644402 257.74365 
L 241.780782 283.146123 
L 242.241874 218.815572 
L 242.37176 282.136765 
L 242.573082 252.363401 
L 242.832852 271.560193 
L 243.07314 240.135327 
L 243.644635 250.430066 
L 243.871934 294.073272 
L 244.177164 241.766803 
L 244.417451 286.874894 
L 245.125326 206.154567 
L 245.313659 252.915053 
L 245.826706 234.65842 
L 246.079982 239.404716 
L 246.32027 240.72907 
L 246.495615 289.935973 
L 247.125558 266.435111 
L 247.989294 189.552452 
L 248.567283 203.327026 
L 249.249181 228.894103 
L 249.482974 243.150891 
L 249.807687 224.685442 
L 250.197343 237.577995 
L 250.580504 207.466168 
L 250.931194 237.417472 
L 251.158493 274.24323 
L 251.437746 235.349795 
L 251.729988 242.217797 
L 251.97677 287.63196 
L 252.639184 249.088611 
L 252.834012 292.737645 
L 253.02884 253.37935 
L 253.405507 204.168019 
L 253.665277 238.002039 
L 254.366658 179.010885 
L 254.730336 220.456793 
L 255.470682 250.90396 
L 255.704475 290.443348 
L 256.139591 234.357003 
L 256.600683 228.274296 
L 256.892925 226.273861 
L 257.133212 240.913731 
L 257.63327 204.737759 
L 257.964478 237.608377 
L 258.185282 246.285459 
L 258.659363 180.393817 
L 258.860685 251.16425 
L 259.82833 85.642401 
L 260.094595 237.344448 
L 260.302411 250.569675 
L 260.57517 235.037506 
L 260.808963 246.568514 
L 261.075228 232.345136 
L 261.575286 279.108787 
L 261.854539 237.480116 
L 262.296149 250.698581 
L 262.601379 226.834611 
L 262.867644 243.913018 
L 263.413162 246.540672 
L 263.653449 287.852448 
L 263.874254 290.787074 
L 264.192473 238.05353 
L 264.679542 257.18051 
L 264.997761 235.55864 
L 265.238049 245.399 
L 265.809543 197.534784 
L 266.082302 242.112849 
L 266.192705 290.998991 
L 266.549889 227.750902 
L 266.835637 231.374957 
L 267.095407 281.714812 
L 267.926672 179.249906 
L 268.296845 211.019897 
L 268.628052 219.127375 
L 269.108627 180.963294 
L 269.277478 290.221505 
L 269.758053 217.899259 
L 270.030812 237.797374 
L 270.167192 293.233466 
L 270.719204 239.682512 
L 271.186791 246.855709 
L 271.517998 229.695042 
L 271.680354 289.476322 
L 271.894665 248.268489 
L 272.37524 207.771498 
L 272.563574 254.654667 
L 272.784379 248.002606 
L 273.03116 244.968018 
L 273.225988 252.618641 
L 273.758518 204.734578 
L 274.317024 210.536302 
L 274.453403 288.915168 
L 274.869036 257.376164 
L 275.050875 291.006117 
L 275.284669 243.60419 
L 275.674324 234.33034 
L 275.862658 254.277441 
L 276.180876 223.929833 
L 276.7199 245.233856 
L 276.973176 242.8775 
L 277.174498 252.504818 
L 277.518694 214.035054 
L 278.298005 246.549032 
L 278.681167 225.932665 
L 278.863006 256.927091 
L 279.252661 223.823306 
L 279.440995 253.881259 
L 279.759214 227.222959 
L 279.96703 292.949788 
L 280.155364 291.538747 
L 280.447605 229.404471 
L 280.66841 284.231578 
L 280.869732 252.477349 
L 281.103525 243.291573 
L 281.272376 259.02448 
L 281.590595 242.059327 
L 281.804906 250.122789 
L 282.681631 209.805242 
L 283.499907 178.405913 
L 284.331173 229.329445 
L 285.824852 175.177912 
L 286.363876 207.981165 
L 286.798991 254.248199 
L 287.552326 195.770567 
L 287.805602 240.712457 
L 288.591407 258.016828 
L 288.8252 242.179803 
L 289.0525 244.071823 
L 289.396695 225.446361 
L 289.896753 214.010196 
L 290.422788 246.753963 
L 290.617616 291.87865 
L 290.9748 242.445494 
L 291.383939 214.409763 
L 291.734629 218.611047 
L 291.961928 242.382696 
L 292.195721 243.204347 
L 292.552906 219.964669 
L 292.845147 230.614974 
L 293.286757 201.473121 
L 293.598481 230.830141 
L 293.9167 242.324308 
L 294.105034 254.788666 
L 294.306356 251.840875 
L 294.605092 227.873183 
L 294.812908 250.017561 
L 295.033713 245.416801 
L 295.31946 230.773363 
L 296.085783 127.186443 
L 296.261128 257.390918 
L 296.910554 206.455808 
L 297.345669 259.049708 
L 297.657394 234.116924 
L 297.891187 244.982609 
L 298.144463 239.417211 
L 298.599062 234.668839 
L 298.969234 224.88822 
L 299.196533 246.801052 
L 299.430327 241.91749 
L 299.651132 247.767303 
L 299.975845 219.674271 
L 300.346017 219.589882 
L 300.553834 250.67171 
L 300.988949 225.78701 
L 301.352628 235.943695 
L 301.573433 246.652021 
L 302.099468 194.292833 
L 302.365732 236.304861 
L 302.60602 242.971022 
L 302.807342 252.444133 
L 303.034641 248.888047 
L 303.391825 216.336012 
L 303.781481 208.818525 
L 304.067228 236.296764 
L 304.301022 245.53295 
L 304.580275 230.842828 
L 305.50246 191.319408 
L 305.749242 237.669352 
L 306.06746 234.726311 
L 306.50907 251.912136 
L 306.742863 249.306406 
L 307.126025 223.269579 
L 307.574129 220.779875 
L 307.755968 254.433597 
L 307.970279 248.063164 
L 308.431371 215.877936 
L 308.632693 251.980634 
L 308.834015 251.690824 
L 309.048326 248.174357 
L 309.49643 230.508555 
L 309.938039 207.161824 
L 310.321201 204.37864 
L 310.574477 235.39917 
L 311.009592 224.828167 
L 311.236891 251.510037 
L 311.516144 230.006681 
L 311.944766 252.823239 
L 312.321433 227.725801 
L 312.840973 179.709527 
L 313.022813 256.254378 
L 313.302066 236.161335 
L 313.620285 228.940123 
L 313.906032 228.941381 
L 314.061894 261.418582 
L 314.224251 259.717251 
L 314.503504 234.561034 
L 314.834711 221.708299 
L 315.087987 245.637326 
L 315.341264 235.352286 
L 315.529597 252.849862 
L 317.120691 103.202993 
L 317.309024 254.638062 
L 317.581783 230.977843 
L 317.822071 244.85032 
L 318.107818 230.766716 
L 318.3546 240.078229 
L 318.731267 201.628949 
L 318.965061 244.460905 
L 319.439142 211.114986 
L 319.653452 247.127316 
L 320.069085 188.587999 
L 320.28989 245.914128 
L 320.906844 211.110464 
L 321.108166 252.184128 
L 321.290006 255.015209 
L 321.523799 290.737305 
L 321.712132 254.608907 
L 321.867995 260.134707 
L 321.978397 283.790917 
L 322.166731 254.137784 
L 322.510926 225.917071 
L 322.855122 214.400425 
L 323.335697 253.579626 
L 323.920181 214.767921 
L 324.199434 236.05392 
L 324.764435 167.196382 
L 326.264609 53.568 
L 326.472425 251.449951 
L 326.667253 252.664976 
L 326.927023 236.80246 
L 327.193288 238.732078 
L 327.407598 247.147122 
L 327.810242 232.495961 
L 328.024553 250.309949 
L 328.323289 227.280447 
L 328.855818 205.484194 
L 329.005186 262.650658 
L 329.362371 209.105672 
L 329.959843 240.455195 
L 330.258578 229.339309 
L 330.459901 250.822972 
L 330.836568 203.588251 
L 331.258694 199.297942 
L 331.485994 244.995647 
L 331.856166 202.875675 
L 332.232833 201.215394 
L 332.661455 186.081682 
L 333.395306 252.51867 
L 333.590134 252.281026 
L 333.921341 220.618939 
L 334.310997 201.771238 
L 334.609733 245.000001 
L 334.791572 253.441649 
L 335.129273 215.038127 
L 335.5514 196.997897 
L 335.798182 238.108154 
L 336.330711 149.004043 
L 336.616459 231.415729 
L 336.947666 218.246802 
L 337.830885 109.693594 
L 338.175081 215.916013 
L 338.577725 197.967998 
L 338.79853 244.509902 
L 339.207669 190.964731 
L 339.668761 203.86885 
L 339.902554 244.899535 
L 340.175313 229.963755 
L 340.454566 241.132374 
L 340.824739 218.160406 
L 341.058533 245.145586 
L 341.246866 253.682996 
L 341.60405 211.6563 
L 341.993706 216.025992 
L 342.175545 254.513111 
L 342.766523 218.14778 
L 343.201638 254.537222 
L 343.649742 176.714769 
L 343.877041 244.725983 
L 344.435548 131.685596 
L 344.630376 251.242036 
L 345.065491 193.41547 
L 345.312273 239.530782 
L 345.513595 250.284712 
L 345.974687 184.755133 
L 346.286412 219.287437 
L 347.033252 153.751458 
L 347.306011 232.500853 
L 348.520437 81.802169 
L 349.065955 171.620804 
L 349.481588 194.765094 
L 349.903715 190.591637 
L 350.144002 240.465059 
L 350.559635 190.376528 
L 350.78044 245.172802 
L 351.196072 191.981729 
L 351.819521 170.195628 
L 352.079292 235.513124 
L 353.397626 150.414053 
L 353.754811 206.155521 
L 354.228892 167.267347 
L 354.404237 257.2925 
L 355.066651 110.72986 
L 355.625158 135.195248 
L 355.858951 243.92768 
L 356.08625 241.636109 
L 356.397974 221.325809 
L 356.755159 208.076894 
L 357.294182 155.106506 
L 357.540964 249.335879 
L 358.209873 127.493281 
L 358.456655 240.961022 
L 358.612517 260.853086 
L 359.034644 187.976582 
L 359.268437 242.724841 
L 360.073726 133.546587 
L 360.359473 240.39859 
L 360.807577 183.286463 
L 361.405049 130.901791 
L 361.5739 259.026287 
L 361.723268 262.736379 
L 361.898613 257.555017 
L 362.333728 182.703792 
L 362.716889 229.892058 
L 363.080568 210.79506 
L 363.645568 149.346213 
L 363.827408 255.102398 
L 364.385914 133.744326 
L 364.963903 242.294036 
L 365.184708 246.345361 
L 365.366547 254.883241 
L 365.938042 140.688177 
L 366.314709 226.961738 
L 366.639422 219.550844 
L 366.983618 216.028137 
L 367.451205 170.851196 
L 368.035688 128.012343 
L 368.353907 223.765147 
L 369.386494 149.320048 
L 369.938506 134.990275 
L 370.490518 149.595222 
L 371.107473 128.628076 
L 371.711439 131.083065 
L 372.295923 125.026093 
L 373.354487 156.877642 
L 373.912993 138.09544 
L 374.581902 129.804465 
L 375.088454 154.606713 
L 375.646961 135.140033 
L 376.08857 183.426874 
L 376.660065 128.749703 
L 377.192595 156.696845 
L 377.36794 256.891482 
L 377.945929 126.222795 
L 378.400527 175.727554 
L 378.913573 160.840125 
L 379.309723 201.003298 
L 379.705873 195.461566 
L 379.894207 253.181334 
L 380.459207 137.997167 
L 381.037196 144.947816 
L 381.777542 218.82973 
L 382.316566 142.123283 
L 382.504899 254.839706 
L 383.089383 131.014311 
L 383.673866 141.040515 
L 384.245361 140.996693 
L 384.738925 166.98766 
L 385.349385 123.892425 
L 385.901397 142.07859 
L 386.459903 137.312326 
L 387.037893 144.065787 
L 387.453525 193.252462 
L 387.992549 145.606376 
L 388.557549 147.574954 
L 389.129044 147.725912 
L 389.681056 139.196573 
L 390.765598 149.784798 
L 391.330598 146.220867 
L 391.863128 148.397172 
L 392.350197 170.533087 
L 392.895715 147.227548 
L 392.895715 147.227548 
" clip-path="url(#pfd368b0c51)" style="fill: none; stroke: #1f77b4; stroke-width: 1.5; stroke-linecap: square"/>
   </g>
   <g id="line2d_15">
    <path d="M 138.716878 262.529104 
L 203.659476 216.268284 
L 268.602075 250.79185 
L 333.544674 232.184624 
L 398.487273 155.221881 
" clip-path="url(#pfd368b0c51)" style="fill: none; stroke: #ff7f0e; stroke-width: 1.5; stroke-linecap: square"/>
   </g>
   <g id="line2d_16">
    <path d="M 73.845716 289.268504 
L 74.021061 290.071364 
L 74.11198 289.458314 
L 74.2029 289.658208 
L 74.300314 284.563268 
L 74.501636 287.026633 
L 74.605544 282.721526 
L 74.715947 287.670679 
L 74.852326 288.740742 
L 75.001694 280.02768 
L 75.053648 291.484334 
L 75.20951 274.375996 
L 75.280947 290.216387 
L 75.449798 282.803132 
L 75.618649 270.395553 
L 75.69658 290.812559 
L 75.787499 288.641239 
L 76.190144 265.457973 
L 76.30704 282.017754 
L 76.664225 284.155923 
L 76.898018 280.072859 
L 77.060374 280.117002 
L 77.209742 280.508127 
L 77.261696 292.020833 
L 77.417559 281.303384 
L 77.592904 292.808454 
L 77.794226 284.921279 
L 77.930605 280.805958 
L 78.164399 287.5968 
L 78.261813 287.756329 
L 78.599514 278.965368 
L 78.794342 287.733104 
L 79.047618 282.268101 
L 79.151526 290.1731 
L 79.229457 289.424036 
L 79.307388 289.839278 
L 79.482733 291.469947 
L 79.69055 279.877976 
L 79.787964 286.973978 
L 79.937332 281.030872 
L 80.0867 279.566619 
L 80.138654 291.389109 
L 80.534803 203.786828 
L 80.736126 287.991107 
L 80.807562 290.047738 
L 81.080321 276.702269 
L 81.242678 275.424341 
L 81.366069 278.437594 
L 81.528425 274.018336 
L 81.638828 281.7795 
L 81.775207 281.813269 
L 81.989518 269.48928 
L 82.138886 277.014287 
L 82.242794 288.293782 
L 82.489576 283.847664 
L 82.619461 287.402322 
L 82.905208 258.709826 
L 83.028599 281.891609 
L 83.184461 282.66216 
L 83.268887 287.063835 
L 83.444232 280.155721 
L 83.522163 290.315144 
L 83.587106 289.247955 
L 83.775439 283.555244 
L 84.048198 256.09218 
L 84.243026 285.714961 
L 84.320957 291.140274 
L 84.398888 290.313897 
L 84.463831 290.983319 
L 84.639176 286.780044 
L 84.788544 287.348149 
L 84.892452 286.964099 
L 85.022337 283.961685 
L 85.158716 287.389043 
L 85.249636 285.908426 
L 85.327567 292.516515 
L 85.626303 270.247232 
L 85.918545 279.362944 
L 86.178315 271.249179 
L 86.386132 291.323027 
L 86.606936 287.853781 
L 87.106994 258.106446 
L 87.301822 291.848812 
L 87.386248 287.014097 
L 87.710961 276.362494 
L 88.211019 204.275467 
L 88.451306 290.004944 
L 88.717571 284.119269 
L 88.834468 288.347649 
L 89.373491 216.162683 
L 89.496882 284.218418 
L 89.620273 278.530379 
L 89.724181 289.16094 
L 89.815101 285.543084 
L 89.90602 289.074029 
L 90.016423 281.140505 
L 90.204756 282.806202 
L 90.328147 285.575168 
L 90.639872 278.434588 
L 90.730791 288.238591 
L 91.256827 234.973339 
L 91.380217 288.292638 
L 91.58154 281.18115 
L 91.730907 282.214603 
L 91.984184 268.676355 
L 92.120563 284.240906 
L 92.217977 284.004821 
L 92.295908 288.858079 
L 92.601138 257.653174 
L 92.854414 264.327549 
L 92.990794 290.328381 
L 93.166139 287.302511 
L 93.276541 283.046315 
L 93.393438 283.35268 
L 93.5493 289.333732 
L 93.659703 287.118752 
L 93.750622 288.265141 
L 93.848036 284.754899 
L 93.906485 291.107571 
L 94.042864 284.518641 
L 94.140278 287.078507 
L 94.244186 285.674898 
L 94.452002 266.164502 
L 94.575393 285.21275 
L 94.731256 287.15523 
L 94.99752 270.598128 
L 95.211831 282.64459 
L 95.491084 289.223942 
L 95.640452 282.569752 
L 95.83528 290.484188 
L 96.030108 278.961532 
L 96.166487 284.013384 
L 96.309361 283.322356 
L 96.484706 278.770178 
L 96.653556 282.076152 
L 96.79643 287.983047 
L 96.952292 282.084204 
L 97.140626 289.287608 
L 97.354937 272.069568 
L 97.523787 270.395095 
L 97.67965 272.502131 
L 97.867983 289.386629 
L 97.952408 286.44857 
L 98.140742 287.748766 
L 98.24465 285.907725 
L 98.419995 288.86835 
L 98.627811 262.287942 
L 98.764191 282.575565 
L 98.997984 260.768191 
L 99.205801 286.413561 
L 99.400628 289.424806 
L 99.562985 283.009297 
L 99.673387 288.837705 
L 99.803273 279.928174 
L 100.08902 287.842754 
L 100.355285 276.345375 
L 100.452699 283.699089 
L 100.686492 273.551457 
L 100.777411 287.794575 
L 100.959251 285.198536 
L 101.335918 223.918443 
L 101.459309 281.137534 
L 101.615171 290.410022 
L 101.725573 289.49251 
L 101.835976 286.070666 
L 102.310057 197.73469 
L 102.465919 288.556444 
L 102.725689 275.993654 
L 103.011437 235.788142 
L 103.082874 290.130951 
L 103.180288 286.264084 
L 103.316667 279.741394 
L 103.537472 288.69253 
L 103.673851 279.116875 
L 103.816725 282.2572 
L 104.063507 267.049209 
L 104.225863 287.289779 
L 104.349254 284.879172 
L 104.816841 209.167698 
L 104.914255 288.618731 
L 105.011669 284.416398 
L 105.141554 277.817864 
L 105.381842 273.321448 
L 105.57667 285.21482 
L 105.674083 285.139811 
L 105.803969 284.243914 
L 105.8819 288.088625 
L 106.005291 281.174311 
L 106.148164 290.738688 
L 106.27805 278.206935 
L 106.459889 276.446122 
L 106.557303 284.838232 
L 106.817073 279.017084 
L 106.901499 288.206644 
L 107.024889 286.419033 
L 107.115809 288.147769 
L 107.245694 281.313799 
L 107.388568 286.104258 
L 107.693798 238.995559 
L 107.804201 288.076224 
L 107.882132 287.610061 
L 108.0315 277.950943 
L 108.239316 287.956283 
L 108.317247 288.401665 
L 108.499086 281.352701 
L 108.745868 287.337136 
L 108.914719 273.165404 
L 109.051099 278.294188 
L 109.116041 289.569659 
L 109.52518 270.94357 
L 109.745984 270.232551 
L 109.810927 289.050074 
L 109.87587 289.02906 
L 109.953801 288.416086 
L 110.317479 272.308246 
L 110.382422 288.831382 
L 110.739606 272.241721 
L 110.824032 289.107433 
L 110.908457 287.263813 
L 111.129262 278.657495 
L 111.291618 280.119992 
L 111.49294 286.75481 
L 111.596848 285.737116 
L 111.67478 287.677753 
L 111.824148 276.009035 
L 111.941044 286.326933 
L 112.207309 263.619682 
L 112.532022 287.750654 
L 112.674896 285.919688 
L 112.759321 287.150462 
L 112.889206 284.357373 
L 112.993114 286.931589 
L 113.311333 272.605025 
L 113.376276 290.344463 
L 113.434724 290.016965 
L 113.843862 279.843455 
L 114.149093 287.310918 
L 114.317943 282.130606 
L 114.382886 290.638983 
L 114.460817 288.054057 
L 114.52576 289.611054 
L 115.207657 283.300058 
L 115.279094 289.843822 
L 115.506393 268.880646 
L 115.636278 285.537688 
L 115.922026 290.720865 
L 115.999957 288.092649 
L 116.103865 289.577999 
L 116.292198 283.276752 
L 116.487026 272.050311 
L 116.564957 289.645649 
L 116.753291 284.393237 
L 116.961107 286.747407 
L 117.090992 284.122351 
L 117.253349 271.929725 
L 117.370245 287.935963 
L 117.526108 285.468157 
L 117.694958 279.99137 
L 117.850821 279.701577 
L 117.915763 289.04508 
L 117.993694 287.774025 
L 118.084614 288.447198 
L 118.201511 285.285759 
L 118.266453 291.868441 
L 118.396339 283.747955 
L 118.480764 287.328058 
L 118.597661 287.038769 
L 118.831454 281.781818 
L 118.980822 289.400762 
L 119.363983 277.4108 
L 119.727662 290.303063 
L 120.097835 244.615255 
L 120.312145 287.550866 
L 120.461513 274.577335 
L 120.675824 288.651549 
L 120.766743 289.107523 
L 121.033008 283.343358 
L 121.214847 271.921072 
L 121.338238 287.208699 
L 121.435652 283.401512 
L 121.507089 290.817557 
L 121.851285 249.74716 
L 121.955193 288.415447 
L 122.07209 284.969321 
L 122.163009 290.324367 
L 122.364331 286.182413 
L 122.520194 280.030827 
L 122.598125 290.191546 
L 122.715021 278.43033 
L 122.799447 287.38615 
L 122.916343 280.596566 
L 123.020252 284.632739 
L 123.234562 265.79143 
L 123.312493 289.866467 
L 123.598241 279.153679 
L 123.676172 288.851369 
L 123.864505 285.84291 
L 123.968414 283.81746 
L 124.104793 277.315025 
L 124.189218 288.169144 
L 124.351575 282.178916 
L 124.429506 288.853446 
L 124.539908 287.263434 
L 124.754219 271.475977 
L 124.981518 288.608097 
L 125.065943 287.929167 
L 125.234794 274.153574 
L 125.449105 287.519125 
L 125.617956 282.907166 
L 125.702381 285.632408 
L 125.877726 268.077865 
L 126.014105 276.710313 
L 126.176462 274.175439 
L 126.650543 223.278679 
L 126.845371 288.610343 
L 126.923302 291.372267 
L 127.046693 281.036303 
L 127.111635 289.156248 
L 127.345429 279.911606 
L 127.481808 282.425537 
L 127.546751 290.636902 
L 127.864969 268.735675 
L 127.942901 290.69732 
L 128.131234 277.824691 
L 128.261119 285.010326 
L 128.391004 281.639324 
L 128.56635 289.881687 
L 128.663763 287.498618 
L 128.774166 288.373042 
L 128.923534 281.64158 
L 129.059913 286.105943 
L 129.404109 253.70572 
L 129.495029 289.135044 
L 129.566466 288.109005 
L 129.715834 273.474314 
L 129.897673 283.798913 
L 130.111983 268.998219 
L 130.261351 285.558375 
L 130.378248 284.677281 
L 130.508133 286.138138 
L 130.592559 289.64997 
L 130.683478 289.368457 
L 130.774398 288.294225 
L 130.97572 269.52978 
L 131.112099 283.080956 
L 131.241985 282.351363 
L 131.339398 289.604873 
L 131.475778 285.949701 
L 131.63164 275.499132 
L 131.793997 276.462399 
L 132.040779 266.352398 
L 132.164169 282.892971 
L 132.307043 283.749511 
L 132.605779 290.281154 
L 132.722676 288.244291 
L 133.222734 245.861745 
L 133.43055 289.469738 
L 133.761757 274.012282 
L 133.898137 285.646125 
L 134.248827 259.656258 
L 134.612505 288.142848 
L 134.813828 262.647838 
L 135.073598 261.473634 
L 135.184 288.52981 
L 135.326874 275.666141 
L 135.573656 290.022106 
L 135.664576 285.370351 
L 136.015266 257.381617 
L 136.197105 290.067933 
L 136.411415 285.146374 
L 136.495841 289.599871 
L 136.593255 289.458008 
L 136.885496 258.400696 
L 137.223198 241.432291 
L 137.320612 285.495075 
L 137.444003 287.028193 
L 137.521934 290.19726 
L 137.645325 284.555925 
L 137.703773 292.514471 
L 137.762221 290.2675 
L 138.08044 274.681722 
L 138.288257 284.581783 
L 138.405153 283.913036 
L 138.554521 277.7206 
L 138.625958 290.213083 
L 138.866246 254.826874 
L 139.035096 282.965154 
L 139.210441 281.585095 
L 139.31435 283.396527 
L 139.405269 289.20909 
L 139.502683 283.778755 
L 139.600097 290.029954 
L 139.710499 284.486816 
L 139.781936 289.608804 
L 139.92481 285.50747 
L 140.01573 287.474304 
L 140.152109 282.46967 
L 140.210557 291.46385 
L 140.333948 280.670105 
L 140.418374 285.800608 
L 140.554753 280.970254 
L 141.009351 256.760809 
L 141.256133 254.918591 
L 141.665272 228.052102 
L 141.886077 288.034761 
L 141.976996 286.835062 
L 142.035444 290.804879 
L 142.100387 289.723041 
L 142.243261 281.924309 
L 142.360157 288.633914 
L 142.554985 279.258717 
L 142.691365 280.846246 
L 143.009583 244.389894 
L 143.47717 215.800739 
L 143.717458 289.66923 
L 144.022688 277.088582 
L 144.087631 288.999928 
L 144.444815 250.610392 
L 144.535735 286.789796 
L 144.990333 225.867478 
L 145.133206 290.781744 
L 145.224126 286.244223 
L 145.315046 287.665637 
L 145.399471 286.161085 
L 145.529356 290.582295 
L 145.860564 271.989185 
L 145.964472 288.340229 
L 146.048897 286.13312 
L 146.152805 289.031619 
L 146.224242 288.939813 
L 146.46453 273.555092 
L 146.607403 277.048938 
L 146.672346 292.440382 
L 147.062002 277.311696 
L 147.230852 286.2973 
L 147.497117 275.88006 
L 147.620508 287.000499 
L 147.73091 283.833766 
L 147.789359 290.44223 
L 148.159532 278.381302 
L 148.542693 237.689199 
L 148.776486 288.244673 
L 149.218096 258.863948 
L 149.309016 288.137147 
L 149.412924 285.1687 
L 149.497349 288.730777 
L 149.601257 287.074639 
L 149.763614 274.872756 
L 149.932464 288.821066 
L 150.185741 282.93641 
L 150.296143 282.139768 
L 150.588385 290.126925 
L 150.744247 276.356628 
L 150.815684 290.551806 
L 150.997523 278.046961 
L 151.120914 286.548381 
L 151.387179 279.277389 
L 151.484593 284.421974 
L 151.672926 283.472576 
L 151.809306 277.194708 
L 152.082065 280.779425 
L 152.237927 281.053096 
L 152.315858 287.972132 
L 152.971778 168.792244 
L 153.069192 286.15734 
L 153.244537 285.412982 
L 153.361434 288.556677 
L 153.47833 283.89527 
L 153.582239 287.102792 
L 153.699135 281.46329 
L 153.764078 291.534061 
L 153.861492 286.138438 
L 153.932929 289.327977 
L 154.101779 278.061591 
L 154.199193 284.286366 
L 154.374538 281.228511 
L 154.484941 287.771269 
L 154.601837 287.653378 
L 154.692757 287.982429 
L 154.874596 285.865247 
L 155.036953 276.123064 
L 155.192815 285.881938 
L 155.309712 283.927603 
L 155.446091 286.866647 
L 155.562988 282.263879 
L 155.757816 287.299765 
L 156.06954 275.760029 
L 156.166954 287.59226 
L 156.290345 279.709307 
L 156.744943 186.415919 
L 156.965748 288.242559 
L 157.21253 281.940295 
L 157.595691 241.211371 
L 157.900921 289.247777 
L 157.972358 289.197755 
L 158.063278 285.281537 
L 158.134715 290.461013 
L 158.303565 275.055436 
L 158.420462 285.161604 
L 158.563336 285.05831 
L 158.738681 280.857741 
L 158.842589 290.286737 
L 158.985463 281.744429 
L 159.180291 288.785815 
L 159.355636 272.442062 
L 159.595923 276.361861 
L 159.686843 286.861456 
L 159.868682 282.870394 
L 159.998567 284.271541 
L 160.440177 270.230298 
L 160.641499 289.523305 
L 160.732419 287.361599 
L 161.245465 270.663096 
L 161.355868 283.478995 
L 161.635121 246.985452 
L 161.732535 288.107309 
L 162.031271 252.946397 
L 162.375466 288.708024 
L 162.576788 277.022269 
L 162.706674 288.125642 
L 162.82357 282.936367 
L 163.115812 259.574316 
L 163.239203 286.98006 
L 163.460008 273.58278 
L 163.719778 286.464503 
L 164.076963 288.472203 
L 164.447135 278.245513 
L 164.654952 284.653771 
L 164.810814 285.371119 
L 164.960182 289.381862 
L 165.051101 286.578337 
L 165.129033 289.279652 
L 165.232941 286.940833 
L 165.362826 279.199681 
L 165.726505 285.191759 
L 165.849895 280.610445 
L 165.966792 281.969381 
L 166.168114 288.164119 
L 166.310988 284.481854 
L 166.46685 290.928257 
L 166.551276 292.651949 
L 166.95392 262.251576 
L 167.051334 287.224888 
L 167.161736 281.81066 
L 167.285127 283.931428 
L 167.356564 288.508266 
L 167.538403 276.053789 
L 167.616334 287.874239 
L 167.772196 288.393372 
L 167.882599 282.387215 
L 167.986507 286.587508 
L 168.090415 285.946392 
L 168.233289 281.214623 
L 168.343691 285.650756 
L 168.726853 224.72009 
L 169.006106 289.584307 
L 169.239899 285.222992 
L 169.343807 288.99331 
L 169.525647 284.137178 
L 169.597083 288.710883 
L 169.688003 285.233454 
L 169.772428 286.509501 
L 170.214038 265.723679 
L 170.376395 285.862295 
L 170.603694 248.101502 
L 170.90243 289.325897 
L 171.012832 287.243432 
L 171.233637 264.047858 
L 171.415476 269.511545 
L 171.746683 226.838097 
L 171.811626 289.822375 
L 171.980477 283.713749 
L 172.058408 287.159023 
L 172.357144 277.560855 
L 172.525995 284.007276 
L 172.70134 282.662295 
L 172.896167 269.174073 
L 173.201398 280.502076 
L 173.376743 291.076692 
L 173.506628 282.967395 
L 173.558582 291.031289 
L 173.818352 284.939111 
L 173.96772 275.412618 
L 174.045651 289.677654 
L 174.208008 276.400034 
L 174.357376 279.035229 
L 174.954848 165.455628 
L 175.071744 281.229495 
L 175.325021 269.35785 
L 175.50686 275.669655 
L 175.675711 272.999113 
L 175.747148 288.490714 
L 175.941975 264.776798 
L 176.110826 281.186845 
L 176.29916 267.470866 
L 176.500482 289.310989 
L 176.591401 283.283764 
L 176.675827 290.80078 
L 176.896632 284.224851 
L 176.968068 290.438618 
L 177.143413 258.731347 
L 177.227839 289.108172 
L 177.331747 286.166747 
L 177.487609 285.125151 
L 177.552552 291.078234 
L 177.630483 290.088533 
L 177.805828 273.103955 
L 177.922725 281.522598 
L 178.201978 287.105585 
L 178.286403 285.736821 
L 178.578645 232.758374 
L 178.734507 291.324521 
L 178.877381 278.337671 
L 179.208588 231.090017 
L 179.357956 290.538929 
L 179.494335 276.217452 
L 179.585255 286.423502 
L 179.689163 283.344963 
L 179.786577 285.026162 
L 179.942439 284.162981 
L 180.319106 207.780631 
L 180.572383 287.517779 
L 180.676291 285.297929 
L 180.780199 287.651893 
L 180.955544 285.754201 
L 181.078935 278.176237 
L 181.195832 287.167968 
L 181.351694 281.646605 
L 181.436119 290.148453 
L 181.702384 253.114131 
L 181.812786 288.067879 
L 181.975143 287.193845 
L 182.053074 290.054116 
L 182.553132 199.928833 
L 182.624569 288.758611 
L 182.74796 281.833522 
L 182.851868 288.102588 
L 183.001236 273.79336 
L 183.072673 288.339016 
L 183.423363 278.110517 
L 183.540259 285.731881 
L 183.657156 283.301793 
L 183.735087 288.807356 
L 184.163708 230.793157 
L 184.306582 276.841532 
L 184.462444 272.811572 
L 184.579341 282.690604 
L 184.793652 267.065665 
L 185.24825 200.550989 
L 185.326181 289.395976 
L 185.650894 241.025543 
L 185.839227 289.596027 
L 185.936641 288.732958 
L 186.021067 286.548284 
L 186.573079 232.934037 
L 186.884803 292.257498 
L 186.962734 288.426599 
L 187.112102 274.540967 
L 187.293942 277.735352 
L 187.404344 284.503829 
L 187.722563 247.365805 
L 187.806988 288.679132 
L 188.31354 190.3949 
L 188.410954 285.834388 
L 188.527851 287.428744 
L 188.988943 245.469316 
L 189.125323 279.237742 
L 189.326645 276.471578 
L 189.534461 289.253515 
L 189.846186 225.02646 
L 190.144922 289.116328 
L 190.515094 248.685459 
L 190.619003 286.494441 
L 191.073601 232.673672 
L 191.229463 272.304078 
L 191.599636 225.740014 
L 191.839923 287.933708 
L 191.930843 287.661673 
L 192.086705 289.720298 
L 192.326993 285.908773 
L 192.482855 273.666583 
L 192.651706 283.035195 
L 192.768603 280.526629 
L 192.969925 288.312661 
L 193.385557 218.007098 
L 193.4505 289.313739 
L 193.71027 270.361635 
L 193.918087 285.558305 
L 194.366191 210.498275 
L 194.632455 286.567879 
L 194.723375 290.502643 
L 194.94418 249.297453 
L 195.048088 285.711101 
L 195.139007 285.280943 
L 195.716997 191.170356 
L 195.970273 271.535767 
L 196.223549 260.254943 
L 196.30148 289.114141 
L 196.437859 291.693078 
L 196.587227 283.180016 
L 196.717113 288.442723 
L 196.950906 281.841393 
L 197.327573 224.873172 
L 197.450964 280.34858 
L 197.723723 247.399851 
L 197.964011 283.745171 
L 198.230275 262.047167 
L 198.366655 289.682621 
L 198.580965 266.285838 
L 198.697862 283.845058 
L 199.022575 226.129064 
L 199.574587 291.884349 
L 199.710966 293.465034 
L 199.892806 289.702973 
L 200.237001 220.082721 
L 200.548726 229.761112 
L 200.730565 289.23788 
L 200.802002 288.37137 
L 201.022807 248.907423 
L 201.172175 287.054221 
L 201.295566 280.043118 
L 201.600796 290.769815 
L 201.854072 278.959144 
L 202.016429 291.188456 
L 202.152808 286.034864 
L 202.477521 268.426449 
L 202.633383 287.557528 
L 202.763269 285.377645 
L 202.860682 287.391386 
L 203.049016 283.34711 
L 203.185395 287.309524 
L 203.54258 222.120662 
L 203.691948 283.757518 
L 203.815339 281.210176 
L 203.977695 292.788153 
L 204.159534 288.882624 
L 204.334879 291.234743 
L 204.484247 282.043819 
L 204.776489 288.534598 
L 205.101202 224.399458 
L 205.172639 287.891105 
L 205.360973 279.202482 
L 205.594766 281.392269 
L 205.679191 290.863353 
L 205.841548 285.937906 
L 205.990916 275.875253 
L 206.094824 285.683542 
L 206.231203 279.746758 
L 206.627353 211.856908 
L 206.74425 289.182425 
L 206.939078 285.645899 
L 207.09494 291.533669 
L 207.237814 277.861126 
L 207.35471 288.083698 
L 207.679423 224.825926 
L 208.231435 190.683868 
L 208.445746 290.901453 
L 208.569137 287.375546 
L 208.776953 291.058411 
L 209.088678 232.033665 
L 209.406896 286.072609 
L 209.803046 210.273417 
L 210.082299 274.510119 
L 210.374541 232.430105 
L 210.731725 283.393754 
L 210.946036 274.737941 
L 211.075921 280.601543 
L 211.48506 238.884409 
L 211.640922 283.507508 
L 211.998106 273.987107 
L 212.511153 287.754249 
L 212.595578 286.256925 
L 212.868337 245.159707 
L 212.998222 279.415121 
L 213.199544 278.331862 
L 213.303452 284.214826 
L 213.54374 245.303605 
L 213.764545 250.036846 
L 213.855464 286.786801 
L 214.017821 286.156212 
L 214.232132 290.049982 
L 214.628281 257.410121 
L 214.738684 286.673021 
L 215.115351 282.453907 
L 215.212765 285.587816 
L 215.530984 237.621094 
L 216.005064 244.351582 
L 216.193398 283.85014 
L 216.414203 260.493257 
L 216.803858 205.26112 
L 217.0961 277.917849 
L 217.303916 264.318377 
L 217.563687 239.720091 
L 217.674089 286.979265 
L 217.998802 244.427921 
L 218.232596 288.309206 
L 218.576791 226.45467 
L 218.726159 284.936134 
L 219.076849 272.00999 
L 219.193746 283.177224 
L 219.498976 283.272435 
L 219.758747 240.099174 
L 220.115931 216.948234 
L 220.271793 290.39962 
L 220.531564 270.115163 
L 220.869265 222.954191 
L 220.940702 287.607167 
L 221.687542 154.495369 
L 221.856393 283.178038 
L 222.109669 258.418179 
L 222.310991 282.106068 
L 222.421393 280.862807 
L 222.759095 219.387136 
L 223.356567 282.595218 
L 223.479958 281.046355 
L 223.713751 274.708857 
L 223.954039 243.864277 
L 224.564499 240.987072 
L 224.73335 282.955365 
L 225.097028 225.80913 
L 225.460707 291.53674 
L 225.590592 289.998105 
L 225.824385 285.510539 
L 226.18157 265.892958 
L 226.551743 220.116893 
L 226.74657 290.594723 
L 226.88295 281.182741 
L 227.051801 287.846139 
L 227.272605 250.189045 
L 227.558353 260.737209 
L 227.642778 285.093586 
L 227.824617 289.376865 
L 228.142836 247.030684 
L 228.428584 236.284097 
L 228.50002 289.31065 
L 228.68186 285.818771 
L 229.07801 213.819588 
L 229.526114 211.652897 
L 229.727436 290.348561 
L 230.331402 188.772191 
L 230.52623 288.424369 
L 230.896402 213.085479 
L 231.591288 123.261847 
L 231.675714 286.739401 
L 231.967955 231.43055 
L 232.455025 290.882683 
L 232.656347 290.257238 
L 232.773243 285.971199 
L 233.065485 235.319775 
L 233.481118 237.980337 
L 233.877268 205.03235 
L 234.163015 234.836315 
L 234.364337 292.520051 
L 234.857901 219.267268 
L 235.312499 207.702242 
L 235.864511 189.399966 
L 236.18273 288.383338 
L 236.358075 288.747529 
L 236.585374 277.901644 
L 236.903593 240.239322 
L 237.072444 291.135557 
L 237.637444 166.003157 
L 238.137502 278.872532 
L 238.28687 284.263647 
L 238.598595 230.202283 
L 238.72848 287.38734 
L 239.131124 254.471628 
L 239.33894 289.819162 
L 239.955895 195.078607 
L 240.144228 291.405779 
L 240.365033 250.074665 
L 240.657275 242.804471 
L 241.020954 222.361763 
L 241.150839 290.758902 
L 241.241758 289.173971 
L 241.501529 238.725169 
L 242.163943 280.915368 
L 242.702967 247.298869 
L 242.949749 279.006465 
L 243.248485 228.720987 
L 243.488772 243.933556 
L 243.63814 289.348514 
L 243.975842 219.831583 
L 244.118715 277.518943 
L 244.592796 253.929857 
L 244.898027 229.776299 
L 245.073372 282.974851 
L 245.326648 243.705477 
L 246.066993 230.678882 
L 246.27481 250.666906 
L 246.807339 195.695606 
L 247.346363 208.594546 
L 247.619122 240.441434 
L 247.898375 245.457389 
L 248.612743 235.508981 
L 248.7751 288.96873 
L 249.002399 251.231446 
L 249.106307 287.413365 
L 249.398549 230.820646 
L 249.755733 268.157974 
L 249.853147 290.085352 
L 250.08694 252.001922 
L 250.366193 247.516226 
L 250.476596 281.590933 
L 250.827286 229.097246 
L 250.905217 287.60764 
L 251.100045 284.046945 
L 251.32085 273.756342 
L 251.619586 244.231312 
L 251.846885 248.471156 
L 252.028724 274.074696 
L 252.307977 246.94237 
L 252.554759 246.369759 
L 252.808035 242.123749 
L 253.47045 184.850028 
L 253.574358 288.266205 
L 253.827634 289.066022 
L 254.17183 215.184197 
L 254.464071 279.717692 
L 254.691371 287.846382 
L 254.977118 231.139717 
L 255.327808 215.066548 
L 255.600567 237.301999 
L 255.847349 241.778587 
L 256.094131 283.969906 
L 256.522752 217.397369 
L 256.853959 239.06849 
L 257.126718 282.481567 
L 257.58781 193.532235 
L 258.198271 204.223293 
L 258.561949 214.472522 
L 259.43218 212.769776 
L 259.672468 244.72112 
L 260.256951 185.347717 
L 260.672584 278.337394 
L 261.055745 264.107018 
L 261.386952 240.929653 
L 261.562298 270.340992 
L 261.76362 253.867267 
L 262.029884 249.176921 
L 262.335114 229.295064 
L 262.63385 239.408563 
L 262.802701 288.633095 
L 263.374196 205.883783 
L 264.26391 186.320128 
L 264.984772 266.959911 
L 265.277014 242.212668 
L 265.510808 246.327796 
L 265.855003 220.707524 
L 266.088797 246.780156 
L 266.731728 194.925348 
L 266.985005 277.342698 
L 267.446097 217.086615 
L 267.868224 227.694741 
L 268.056557 291.546134 
L 268.270868 250.893556 
L 268.42673 280.833884 
L 268.705983 281.643563 
L 269.4788 142.447105 
L 269.887939 229.827038 
L 270.375008 212.167273 
L 270.563342 256.320098 
L 270.797135 246.576172 
L 271.381618 178.73105 
L 271.608918 288.469046 
L 271.901159 244.291394 
L 272.888287 208.183269 
L 273.47277 229.113473 
L 273.680586 287.918988 
L 274.050759 231.158878 
L 274.804093 149.638025 
L 275.122312 241.606583 
L 275.752255 204.707657 
L 276.115934 270.066142 
L 276.375704 282.34148 
L 276.641969 282.128289 
L 276.843291 254.203982 
L 277.784959 181.424058 
L 278.291511 187.675201 
L 278.629212 231.098521 
L 279.259156 184.65362 
L 279.486455 245.936311 
L 279.778696 237.947727 
L 280.018984 245.625316 
L 280.499559 216.428034 
L 281.285365 217.228694 
L 281.642549 220.579991 
L 281.850365 285.31874 
L 282.363412 215.27215 
L 282.675136 276.734002 
L 283.233643 158.994448 
L 283.51939 234.381215 
L 284.214276 231.495224 
L 284.538989 278.014929 
L 284.772782 246.295058 
L 285.116978 218.233518 
L 285.415714 231.569835 
L 285.876806 220.659267 
L 286.493761 237.787456 
L 286.915888 223.114996 
L 287.169164 243.769722 
L 287.428935 242.226338 
L 287.630257 254.213455 
L 287.896521 286.821067 
L 288.149797 241.103669 
L 288.409568 239.679561 
L 288.669338 239.429842 
L 289.240833 246.698475 
L 289.812328 227.693697 
L 290.065604 242.207789 
L 290.357846 232.219106 
L 290.62411 276.55005 
L 290.825433 291.417534 
L 291.247559 205.503142 
L 291.617732 226.993986 
L 292.25417 186.633534 
L 292.546411 233.852445 
L 292.767216 249.928867 
L 293.137389 223.618695 
L 293.838769 257.947345 
L 294.215436 215.670793 
L 294.429747 249.182787 
L 294.611586 257.717561 
L 295.05969 230.417466 
L 295.390897 220.743155 
L 296.11176 189.047274 
L 296.332565 250.572798 
L 297.085899 182.233411 
L 297.839233 171.769213 
L 298.189923 239.120902 
L 298.52113 222.542708 
L 298.87182 216.994276 
L 299.131591 238.112853 
L 299.443315 235.775315 
L 299.683603 244.829147 
L 300.06027 228.909207 
L 300.430443 229.494582 
L 300.80711 228.292628 
L 301.131823 240.455528 
L 301.430559 228.915903 
L 301.807226 225.05168 
L 302.541077 192.22634 
L 302.800848 240.187531 
L 303.054124 243.517872 
L 304.502344 136.215452 
L 304.742631 242.980032 
L 305.775219 182.753879 
L 306.073955 229.797352 
L 306.372691 243.426139 
L 306.781829 231.415737 
L 306.989645 252.518597 
L 307.216944 249.415199 
L 307.626083 217.448168 
L 307.996256 225.988592 
L 308.359934 213.92117 
L 308.723613 214.320907 
L 309.126257 204.328027 
L 309.522407 226.3852 
L 309.853614 221.79469 
L 310.067925 251.271857 
L 310.262752 254.772717 
L 310.483557 249.322585 
L 310.749822 238.239712 
L 311.243386 184.911828 
L 311.496662 243.59013 
L 311.697984 254.424284 
L 312.074651 225.760488 
L 312.321433 247.686409 
L 312.840973 191.093214 
L 313.730687 163.009394 
L 314.152814 214.860823 
L 314.347642 255.176827 
L 314.737297 217.485233 
L 315.06201 222.652391 
L 315.536091 253.376552 
L 315.860804 220.209856 
L 316.243966 214.82601 
L 316.484253 246.112755 
L 316.737529 242.481286 
L 317.185633 194.402505 
L 317.386955 254.90437 
L 317.990922 179.176771 
L 318.387071 206.388788 
L 318.627359 245.17092 
L 318.835175 252.869114 
L 319.05598 250.920209 
L 319.471613 210.028661 
L 319.731383 239.065363 
L 320.017131 234.53842 
L 320.848396 132.804739 
L 321.380925 259.853944 
L 321.829029 244.501755 
L 322.04334 251.924337 
L 322.231673 291.899983 
L 322.445984 249.399858 
L 323.04995 231.57235 
L 323.348686 230.619257 
L 323.614951 240.254147 
L 323.946158 221.402883 
L 324.14748 252.658419 
L 324.712481 181.472936 
L 325.413861 240.531112 
L 325.829493 204.380481 
L 326.128229 231.013642 
L 326.472425 221.189312 
L 326.940012 254.441123 
L 327.245242 241.823002 
L 327.48553 243.036727 
L 327.940128 187.710195 
L 328.836336 160.665477 
L 329.135072 231.563933 
L 329.375359 243.416916 
L 329.609152 247.300846 
L 330.076739 218.050838 
L 330.511855 204.503522 
L 330.914499 213.029359 
L 331.226223 225.072239 
L 331.453522 247.432755 
L 331.700304 241.045412 
L 332.063983 212.71412 
L 332.258811 255.508616 
L 333.018639 198.917014 
L 333.486226 175.325869 
L 333.713525 246.248024 
L 334.583756 147.692809 
L 334.856514 237.722713 
L 335.174733 225.616299 
L 335.752722 178.863314 
L 336.532034 126.460895 
L 336.746344 251.615433 
L 337.291862 141.569252 
L 337.688012 220.549231 
L 337.947782 238.244632 
L 338.194564 241.611313 
L 338.421863 247.741144 
L 339.188186 236.321627 
L 339.396002 252.500799 
L 339.655773 240.208372 
L 339.935026 234.646369 
L 340.24675 234.90211 
L 341.383246 102.73507 
L 341.701464 224.097383 
L 342.039166 216.086304 
L 343.078247 207.620804 
L 343.27957 251.657832 
L 343.740662 179.818635 
L 344.584916 224.785552 
L 344.994054 257.511275 
L 345.240836 241.46897 
L 345.481124 244.863757 
L 345.955205 182.803159 
L 346.338366 208.198986 
L 346.572159 244.710511 
L 346.818941 243.540087 
L 347.111183 230.797378 
L 347.39693 232.31484 
L 348.104805 107.770235 
L 348.429518 222.307739 
L 348.871127 192.036459 
L 349.325725 184.593925 
L 349.689404 211.161644 
L 350.046588 214.5313 
L 350.468715 199.008464 
L 350.683026 250.361953 
L 350.923313 242.986707 
L 351.358429 187.665962 
L 351.890958 147.222592 
L 352.267625 208.459758 
L 352.553373 233.124801 
L 353.313201 197.538989 
L 353.605443 238.900598 
L 354.053547 185.323607 
L 354.267857 250.997469 
L 354.469179 251.984052 
L 355.066651 129.01849 
L 355.319927 241.058753 
L 355.547226 245.797215 
L 355.806997 236.516756 
L 356.410963 125.677921 
L 356.703205 230.731768 
L 357.242228 151.644647 
L 357.97608 224.624217 
L 358.450161 181.599619 
L 358.696942 244.319454 
L 359.041138 219.677641 
L 359.274932 246.449803 
L 359.690564 196.131437 
L 360.463381 144.81611 
L 361.067347 252.937424 
L 361.281658 250.892759 
L 361.469991 254.684507 
L 361.703785 245.014981 
L 362.574016 93.678522 
L 362.937694 224.35776 
L 363.561143 154.32576 
L 364.07419 163.161823 
L 365.015857 249.046066 
L 365.230168 251.279537 
L 365.717237 172.434341 
L 365.989996 244.841801 
L 366.600457 136.20442 
L 366.827756 248.027253 
L 367.399251 144.150127 
L 367.730458 222.021534 
L 368.431838 107.276714 
L 368.951379 157.551327 
L 369.542356 134.346134 
L 370.113851 185.508637 
L 370.510001 204.204526 
L 370.990576 171.090217 
L 371.821842 105.337991 
L 372.217992 201.906227 
L 372.555693 217.099142 
L 372.997303 194.270627 
L 373.601269 124.230468 
L 374.283166 115.923101 
L 375.179374 85.68873 
L 375.692421 159.477826 
L 376.127536 191.855289 
L 376.692537 137.525774 
L 377.283514 159.02211 
L 377.88748 241.649762 
L 378.673286 195.086162 
L 379.108401 193.01617 
L 379.322712 251.635903 
L 379.816276 163.329179 
L 380.095529 235.033635 
L 380.322828 246.186931 
L 380.751449 193.114682 
L 381.147599 206.507287 
L 381.848979 116.124844 
L 382.102255 242.257255 
L 382.465934 212.106669 
L 383.141337 122.886952 
L 383.72582 135.464742 
L 384.232372 162.821198 
L 384.810361 136.071613 
L 385.018178 251.942621 
L 386.005305 85.298825 
L 386.388467 207.125679 
L 387.011916 115.849867 
L 387.421054 202.647937 
L 388.005537 131.912377 
L 388.486113 178.591881 
L 389.03163 152.883699 
L 389.616114 135.448959 
L 390.181114 139.914582 
L 390.811058 120.488477 
L 391.402035 127.26299 
L 391.941059 158.063608 
L 392.480082 157.334336 
L 392.863244 217.841097 
L 393.434739 162.884265 
L 393.986751 154.32354 
L 393.986751 154.32354 
" clip-path="url(#pfd368b0c51)" style="fill: none; stroke: #2ca02c; stroke-width: 1.5; stroke-linecap: square"/>
   </g>
   <g id="patch_3">
    <path d="M 57.6 307.584 
L 57.6 41.472 
" style="fill: none; stroke: #000000; stroke-width: 0.8; stroke-linejoin: miter; stroke-linecap: square"/>
   </g>
   <g id="patch_4">
    <path d="M 414.72 307.584 
L 414.72 41.472 
" style="fill: none; stroke: #000000; stroke-width: 0.8; stroke-linejoin: miter; stroke-linecap: square"/>
   </g>
   <g id="patch_5">
    <path d="M 57.6 307.584 
L 414.72 307.584 
" style="fill: none; stroke: #000000; stroke-width: 0.8; stroke-linejoin: miter; stroke-linecap: square"/>
   </g>
   <g id="patch_6">
    <path d="M 57.6 41.472 
L 414.72 41.472 
" style="fill: none; stroke: #000000; stroke-width: 0.8; stroke-linejoin: miter; stroke-linecap: square"/>
   </g>
   <g id="text_16">
    <!-- learning curve -->
    <g transform="translate(192.96375 35.472) scale(0.12 -0.12)">
     <defs>
      <path id="DejaVuSans-6c" d="M 603 4863 
L 1178 4863 
L 1178 0 
L 603 0 
L 603 4863 
z
" transform="scale(0.015625)"/>
      <path id="DejaVuSans-67" d="M 2906 1791 
Q 2906 2416 2648 2759 
Q 2391 3103 1925 3103 
Q 1463 3103 1205 2759 
Q 947 2416 947 1791 
Q 947 1169 1205 825 
Q 1463 481 1925 481 
Q 2391 481 2648 825 
Q 2906 1169 2906 1791 
z
M 3481 434 
Q 3481 -459 3084 -895 
Q 2688 -1331 1869 -1331 
Q 1566 -1331 1297 -1286 
Q 1028 -1241 775 -1147 
L 775 -588 
Q 1028 -725 1275 -790 
Q 1522 -856 1778 -856 
Q 2344 -856 2625 -561 
Q 2906 -266 2906 331 
L 2906 616 
Q 2728 306 2450 153 
Q 2172 0 1784 0 
Q 1141 0 747 490 
Q 353 981 353 1791 
Q 353 2603 747 3093 
Q 1141 3584 1784 3584 
Q 2172 3584 2450 3431 
Q 2728 3278 2906 2969 
L 2906 3500 
L 3481 3500 
L 3481 434 
z
" transform="scale(0.015625)"/>
      <path id="DejaVuSans-63" d="M 3122 3366 
L 3122 2828 
Q 2878 2963 2633 3030 
Q 2388 3097 2138 3097 
Q 1578 3097 1268 2742 
Q 959 2388 959 1747 
Q 959 1106 1268 751 
Q 1578 397 2138 397 
Q 2388 397 2633 464 
Q 2878 531 3122 666 
L 3122 134 
Q 2881 22 2623 -34 
Q 2366 -91 2075 -91 
Q 1284 -91 818 406 
Q 353 903 353 1747 
Q 353 2603 823 3093 
Q 1294 3584 2113 3584 
Q 2378 3584 2631 3529 
Q 2884 3475 3122 3366 
z
" transform="scale(0.015625)"/>
      <path id="DejaVuSans-75" d="M 544 1381 
L 544 3500 
L 1119 3500 
L 1119 1403 
Q 1119 906 1312 657 
Q 1506 409 1894 409 
Q 2359 409 2629 706 
Q 2900 1003 2900 1516 
L 2900 3500 
L 3475 3500 
L 3475 0 
L 2900 0 
L 2900 538 
Q 2691 219 2414 64 
Q 2138 -91 1772 -91 
Q 1169 -91 856 284 
Q 544 659 544 1381 
z
M 1991 3584 
L 1991 3584 
z
" transform="scale(0.015625)"/>
      <path id="DejaVuSans-76" d="M 191 3500 
L 800 3500 
L 1894 563 
L 2988 3500 
L 3597 3500 
L 2284 0 
L 1503 0 
L 191 3500 
z
" transform="scale(0.015625)"/>
     </defs>
     <use xlink:href="#DejaVuSans-6c"/>
     <use xlink:href="#DejaVuSans-65" x="27.783203"/>
     <use xlink:href="#DejaVuSans-61" x="89.306641"/>
     <use xlink:href="#DejaVuSans-72" x="150.585938"/>
     <use xlink:href="#DejaVuSans-6e" x="189.949219"/>
     <use xlink:href="#DejaVuSans-69" x="253.328125"/>
     <use xlink:href="#DejaVuSans-6e" x="281.111328"/>
     <use xlink:href="#DejaVuSans-67" x="344.490234"/>
     <use xlink:href="#DejaVuSans-20" x="407.966797"/>
     <use xlink:href="#DejaVuSans-63" x="439.753906"/>
     <use xlink:href="#DejaVuSans-75" x="494.734375"/>
     <use xlink:href="#DejaVuSans-72" x="558.113281"/>
     <use xlink:href="#DejaVuSans-76" x="599.226562"/>
     <use xlink:href="#DejaVuSans-65" x="658.40625"/>
    </g>
   </g>
   <g id="legend_1">
    <g id="patch_7">
     <path d="M 64.6 93.506375 
L 166.614062 93.506375 
Q 168.614062 93.506375 168.614062 91.506375 
L 168.614062 48.472 
Q 168.614062 46.472 166.614062 46.472 
L 64.6 46.472 
Q 62.6 46.472 62.6 48.472 
L 62.6 91.506375 
Q 62.6 93.506375 64.6 93.506375 
z
" style="fill: #ffffff; opacity: 0.8; stroke: #cccccc; stroke-linejoin: miter"/>
    </g>
    <g id="line2d_17">
     <path d="M 66.6 54.570438 
L 76.6 54.570438 
L 86.6 54.570438 
" style="fill: none; stroke: #1f77b4; stroke-width: 1.5; stroke-linecap: square"/>
    </g>
    <g id="text_17">
     <!-- source-source -->
     <g transform="translate(94.6 58.070438) scale(0.1 -0.1)">
      <defs>
       <path id="DejaVuSans-2d" d="M 313 2009 
L 1997 2009 
L 1997 1497 
L 313 1497 
L 313 2009 
z
" transform="scale(0.015625)"/>
      </defs>
      <use xlink:href="#DejaVuSans-73"/>
      <use xlink:href="#DejaVuSans-6f" x="52.099609"/>
      <use xlink:href="#DejaVuSans-75" x="113.28125"/>
      <use xlink:href="#DejaVuSans-72" x="176.660156"/>
      <use xlink:href="#DejaVuSans-63" x="215.523438"/>
      <use xlink:href="#DejaVuSans-65" x="270.503906"/>
      <use xlink:href="#DejaVuSans-2d" x="332.027344"/>
      <use xlink:href="#DejaVuSans-73" x="368.111328"/>
      <use xlink:href="#DejaVuSans-6f" x="420.210938"/>
      <use xlink:href="#DejaVuSans-75" x="481.392578"/>
      <use xlink:href="#DejaVuSans-72" x="544.771484"/>
      <use xlink:href="#DejaVuSans-63" x="583.634766"/>
      <use xlink:href="#DejaVuSans-65" x="638.615234"/>
     </g>
    </g>
    <g id="line2d_18">
     <path d="M 66.6 69.248563 
L 76.6 69.248563 
L 86.6 69.248563 
" style="fill: none; stroke: #ff7f0e; stroke-width: 1.5; stroke-linecap: square"/>
    </g>
    <g id="text_18">
     <!-- source-target -->
     <g transform="translate(94.6 72.748563) scale(0.1 -0.1)">
      <use xlink:href="#DejaVuSans-73"/>
      <use xlink:href="#DejaVuSans-6f" x="52.099609"/>
      <use xlink:href="#DejaVuSans-75" x="113.28125"/>
      <use xlink:href="#DejaVuSans-72" x="176.660156"/>
      <use xlink:href="#DejaVuSans-63" x="215.523438"/>
      <use xlink:href="#DejaVuSans-65" x="270.503906"/>
      <use xlink:href="#DejaVuSans-2d" x="332.027344"/>
      <use xlink:href="#DejaVuSans-74" x="368.111328"/>
      <use xlink:href="#DejaVuSans-61" x="407.320312"/>
      <use xlink:href="#DejaVuSans-72" x="468.599609"/>
      <use xlink:href="#DejaVuSans-67" x="507.962891"/>
      <use xlink:href="#DejaVuSans-65" x="571.439453"/>
      <use xlink:href="#DejaVuSans-74" x="632.962891"/>
     </g>
    </g>
    <g id="line2d_19">
     <path d="M 66.6 83.926688 
L 76.6 83.926688 
L 86.6 83.926688 
" style="fill: none; stroke: #2ca02c; stroke-width: 1.5; stroke-linecap: square"/>
    </g>
    <g id="text_19">
     <!-- target-target -->
     <g transform="translate(94.6 87.426688) scale(0.1 -0.1)">
      <use xlink:href="#DejaVuSans-74"/>
      <use xlink:href="#DejaVuSans-61" x="39.208984"/>
      <use xlink:href="#DejaVuSans-72" x="100.488281"/>
      <use xlink:href="#DejaVuSans-67" x="139.851562"/>
      <use xlink:href="#DejaVuSans-65" x="203.328125"/>
      <use xlink:href="#DejaVuSans-74" x="264.851562"/>
      <use xlink:href="#DejaVuSans-2d" x="304.060547"/>
      <use xlink:href="#DejaVuSans-74" x="340.144531"/>
      <use xlink:href="#DejaVuSans-61" x="379.353516"/>
      <use xlink:href="#DejaVuSans-72" x="440.632812"/>
      <use xlink:href="#DejaVuSans-67" x="479.996094"/>
      <use xlink:href="#DejaVuSans-65" x="543.472656"/>
      <use xlink:href="#DejaVuSans-74" x="604.996094"/>
     </g>
    </g>
   </g>
  </g>
 </g>
 <defs>
  <clipPath id="pfd368b0c51">
   <rect x="57.6" y="41.472" width="357.12" height="266.112"/>
  </clipPath>
 </defs>
</svg>
