<?xml version="1.0" encoding="utf-8" standalone="no"?>
<!DOCTYPE svg PUBLIC "-//W3C//DTD SVG 1.1//EN"
  "http://www.w3.org/Graphics/SVG/1.1/DTD/svg11.dtd">
<svg xmlns:xlink="http://www.w3.org/1999/xlink" width="460.8pt" height="345.6pt" viewBox="0 0 460.8 345.6" xmlns="http://www.w3.org/2000/svg" version="1.1">
 <metadata>
  <rdf:RDF xmlns:dc="http://purl.org/dc/elements/1.1/" xmlns:cc="http://creativecommons.org/ns#" xmlns:rdf="http://www.w3.org/1999/02/22-rdf-syntax-ns#">
   <cc:Work>
    <dc:type rdf:resource="http://purl.org/dc/dcmitype/StillImage"/>
    <dc:date>2023-08-18T16:31:20.788625</dc:date>
    <dc:format>image/svg+xml</dc:format>
    <dc:creator>
     <cc:Agent>
      <dc:title>Matplotlib v3.7.1, https://matplotlib.org/</dc:title>
     </cc:Agent>
    </dc:creator>
   </cc:Work>
  </rdf:RDF>
 </metadata>
 <defs>
  <style type="text/css">*{stroke-linejoin: round; stroke-linecap: butt}</style>
 </defs>
 <g id="figure_1">
  <g id="patch_1">
   <path d="M 0 345.6 
L 460.8 345.6 
L 460.8 0 
L 0 0 
z
" style="fill: #ffffff"/>
  </g>
  <g id="axes_1">
   <g id="patch_2">
    <path d="M 57.6 307.584 
L 414.72 307.584 
L 414.72 41.472 
L 57.6 41.472 
z
" style="fill: #ffffff"/>
   </g>
   <g id="matplotlib.axis_1">
    <g id="xtick_1">
     <g id="line2d_1">
      <defs>
       <path id="m125654f9b0" d="M 0 0 
L 0 3.5 
" style="stroke: #000000; stroke-width: 0.8"/>
      </defs>
      <g>
       <use xlink:href="#m125654f9b0" x="73.760015" y="307.584" style="stroke: #000000; stroke-width: 0.8"/>
      </g>
     </g>
     <g id="text_1">
      <!-- 0 -->
      <g transform="translate(70.578765 322.182437) scale(0.1 -0.1)">
       <defs>
        <path id="DejaVuSans-30" d="M 2034 4250 
Q 1547 4250 1301 3770 
Q 1056 3291 1056 2328 
Q 1056 1369 1301 889 
Q 1547 409 2034 409 
Q 2525 409 2770 889 
Q 3016 1369 3016 2328 
Q 3016 3291 2770 3770 
Q 2525 4250 2034 4250 
z
M 2034 4750 
Q 2819 4750 3233 4129 
Q 3647 3509 3647 2328 
Q 3647 1150 3233 529 
Q 2819 -91 2034 -91 
Q 1250 -91 836 529 
Q 422 1150 422 2328 
Q 422 3509 836 4129 
Q 1250 4750 2034 4750 
z
" transform="scale(0.015625)"/>
       </defs>
       <use xlink:href="#DejaVuSans-30"/>
      </g>
     </g>
    </g>
    <g id="xtick_2">
     <g id="line2d_2">
      <g>
       <use xlink:href="#m125654f9b0" x="139.862256" y="307.584" style="stroke: #000000; stroke-width: 0.8"/>
      </g>
     </g>
     <g id="text_2">
      <!-- 10000 -->
      <g transform="translate(123.956006 322.182437) scale(0.1 -0.1)">
       <defs>
        <path id="DejaVuSans-31" d="M 794 531 
L 1825 531 
L 1825 4091 
L 703 3866 
L 703 4441 
L 1819 4666 
L 2450 4666 
L 2450 531 
L 3481 531 
L 3481 0 
L 794 0 
L 794 531 
z
" transform="scale(0.015625)"/>
       </defs>
       <use xlink:href="#DejaVuSans-31"/>
       <use xlink:href="#DejaVuSans-30" x="63.623047"/>
       <use xlink:href="#DejaVuSans-30" x="127.246094"/>
       <use xlink:href="#DejaVuSans-30" x="190.869141"/>
       <use xlink:href="#DejaVuSans-30" x="254.492188"/>
      </g>
     </g>
    </g>
    <g id="xtick_3">
     <g id="line2d_3">
      <g>
       <use xlink:href="#m125654f9b0" x="205.964496" y="307.584" style="stroke: #000000; stroke-width: 0.8"/>
      </g>
     </g>
     <g id="text_3">
      <!-- 20000 -->
      <g transform="translate(190.058246 322.182437) scale(0.1 -0.1)">
       <defs>
        <path id="DejaVuSans-32" d="M 1228 531 
L 3431 531 
L 3431 0 
L 469 0 
L 469 531 
Q 828 903 1448 1529 
Q 2069 2156 2228 2338 
Q 2531 2678 2651 2914 
Q 2772 3150 2772 3378 
Q 2772 3750 2511 3984 
Q 2250 4219 1831 4219 
Q 1534 4219 1204 4116 
Q 875 4013 500 3803 
L 500 4441 
Q 881 4594 1212 4672 
Q 1544 4750 1819 4750 
Q 2544 4750 2975 4387 
Q 3406 4025 3406 3419 
Q 3406 3131 3298 2873 
Q 3191 2616 2906 2266 
Q 2828 2175 2409 1742 
Q 1991 1309 1228 531 
z
" transform="scale(0.015625)"/>
       </defs>
       <use xlink:href="#DejaVuSans-32"/>
       <use xlink:href="#DejaVuSans-30" x="63.623047"/>
       <use xlink:href="#DejaVuSans-30" x="127.246094"/>
       <use xlink:href="#DejaVuSans-30" x="190.869141"/>
       <use xlink:href="#DejaVuSans-30" x="254.492188"/>
      </g>
     </g>
    </g>
    <g id="xtick_4">
     <g id="line2d_4">
      <g>
       <use xlink:href="#m125654f9b0" x="272.066737" y="307.584" style="stroke: #000000; stroke-width: 0.8"/>
      </g>
     </g>
     <g id="text_4">
      <!-- 30000 -->
      <g transform="translate(256.160487 322.182437) scale(0.1 -0.1)">
       <defs>
        <path id="DejaVuSans-33" d="M 2597 2516 
Q 3050 2419 3304 2112 
Q 3559 1806 3559 1356 
Q 3559 666 3084 287 
Q 2609 -91 1734 -91 
Q 1441 -91 1130 -33 
Q 819 25 488 141 
L 488 750 
Q 750 597 1062 519 
Q 1375 441 1716 441 
Q 2309 441 2620 675 
Q 2931 909 2931 1356 
Q 2931 1769 2642 2001 
Q 2353 2234 1838 2234 
L 1294 2234 
L 1294 2753 
L 1863 2753 
Q 2328 2753 2575 2939 
Q 2822 3125 2822 3475 
Q 2822 3834 2567 4026 
Q 2313 4219 1838 4219 
Q 1578 4219 1281 4162 
Q 984 4106 628 3988 
L 628 4550 
Q 988 4650 1302 4700 
Q 1616 4750 1894 4750 
Q 2613 4750 3031 4423 
Q 3450 4097 3450 3541 
Q 3450 3153 3228 2886 
Q 3006 2619 2597 2516 
z
" transform="scale(0.015625)"/>
       </defs>
       <use xlink:href="#DejaVuSans-33"/>
       <use xlink:href="#DejaVuSans-30" x="63.623047"/>
       <use xlink:href="#DejaVuSans-30" x="127.246094"/>
       <use xlink:href="#DejaVuSans-30" x="190.869141"/>
       <use xlink:href="#DejaVuSans-30" x="254.492188"/>
      </g>
     </g>
    </g>
    <g id="xtick_5">
     <g id="line2d_5">
      <g>
       <use xlink:href="#m125654f9b0" x="338.168978" y="307.584" style="stroke: #000000; stroke-width: 0.8"/>
      </g>
     </g>
     <g id="text_5">
      <!-- 40000 -->
      <g transform="translate(322.262728 322.182437) scale(0.1 -0.1)">
       <defs>
        <path id="DejaVuSans-34" d="M 2419 4116 
L 825 1625 
L 2419 1625 
L 2419 4116 
z
M 2253 4666 
L 3047 4666 
L 3047 1625 
L 3713 1625 
L 3713 1100 
L 3047 1100 
L 3047 0 
L 2419 0 
L 2419 1100 
L 313 1100 
L 313 1709 
L 2253 4666 
z
" transform="scale(0.015625)"/>
       </defs>
       <use xlink:href="#DejaVuSans-34"/>
       <use xlink:href="#DejaVuSans-30" x="63.623047"/>
       <use xlink:href="#DejaVuSans-30" x="127.246094"/>
       <use xlink:href="#DejaVuSans-30" x="190.869141"/>
       <use xlink:href="#DejaVuSans-30" x="254.492188"/>
      </g>
     </g>
    </g>
    <g id="xtick_6">
     <g id="line2d_6">
      <g>
       <use xlink:href="#m125654f9b0" x="404.271219" y="307.584" style="stroke: #000000; stroke-width: 0.8"/>
      </g>
     </g>
     <g id="text_6">
      <!-- 50000 -->
      <g transform="translate(388.364969 322.182437) scale(0.1 -0.1)">
       <defs>
        <path id="DejaVuSans-35" d="M 691 4666 
L 3169 4666 
L 3169 4134 
L 1269 4134 
L 1269 2991 
Q 1406 3038 1543 3061 
Q 1681 3084 1819 3084 
Q 2600 3084 3056 2656 
Q 3513 2228 3513 1497 
Q 3513 744 3044 326 
Q 2575 -91 1722 -91 
Q 1428 -91 1123 -41 
Q 819 9 494 109 
L 494 744 
Q 775 591 1075 516 
Q 1375 441 1709 441 
Q 2250 441 2565 725 
Q 2881 1009 2881 1497 
Q 2881 1984 2565 2268 
Q 2250 2553 1709 2553 
Q 1456 2553 1204 2497 
Q 953 2441 691 2322 
L 691 4666 
z
" transform="scale(0.015625)"/>
       </defs>
       <use xlink:href="#DejaVuSans-35"/>
       <use xlink:href="#DejaVuSans-30" x="63.623047"/>
       <use xlink:href="#DejaVuSans-30" x="127.246094"/>
       <use xlink:href="#DejaVuSans-30" x="190.869141"/>
       <use xlink:href="#DejaVuSans-30" x="254.492188"/>
      </g>
     </g>
    </g>
    <g id="text_7">
     <!-- timesteps -->
     <g transform="translate(211.443594 335.860562) scale(0.1 -0.1)">
      <defs>
       <path id="DejaVuSans-74" d="M 1172 4494 
L 1172 3500 
L 2356 3500 
L 2356 3053 
L 1172 3053 
L 1172 1153 
Q 1172 725 1289 603 
Q 1406 481 1766 481 
L 2356 481 
L 2356 0 
L 1766 0 
Q 1100 0 847 248 
Q 594 497 594 1153 
L 594 3053 
L 172 3053 
L 172 3500 
L 594 3500 
L 594 4494 
L 1172 4494 
z
" transform="scale(0.015625)"/>
       <path id="DejaVuSans-69" d="M 603 3500 
L 1178 3500 
L 1178 0 
L 603 0 
L 603 3500 
z
M 603 4863 
L 1178 4863 
L 1178 4134 
L 603 4134 
L 603 4863 
z
" transform="scale(0.015625)"/>
       <path id="DejaVuSans-6d" d="M 3328 2828 
Q 3544 3216 3844 3400 
Q 4144 3584 4550 3584 
Q 5097 3584 5394 3201 
Q 5691 2819 5691 2113 
L 5691 0 
L 5113 0 
L 5113 2094 
Q 5113 2597 4934 2840 
Q 4756 3084 4391 3084 
Q 3944 3084 3684 2787 
Q 3425 2491 3425 1978 
L 3425 0 
L 2847 0 
L 2847 2094 
Q 2847 2600 2669 2842 
Q 2491 3084 2119 3084 
Q 1678 3084 1418 2786 
Q 1159 2488 1159 1978 
L 1159 0 
L 581 0 
L 581 3500 
L 1159 3500 
L 1159 2956 
Q 1356 3278 1631 3431 
Q 1906 3584 2284 3584 
Q 2666 3584 2933 3390 
Q 3200 3197 3328 2828 
z
" transform="scale(0.015625)"/>
       <path id="DejaVuSans-65" d="M 3597 1894 
L 3597 1613 
L 953 1613 
Q 991 1019 1311 708 
Q 1631 397 2203 397 
Q 2534 397 2845 478 
Q 3156 559 3463 722 
L 3463 178 
Q 3153 47 2828 -22 
Q 2503 -91 2169 -91 
Q 1331 -91 842 396 
Q 353 884 353 1716 
Q 353 2575 817 3079 
Q 1281 3584 2069 3584 
Q 2775 3584 3186 3129 
Q 3597 2675 3597 1894 
z
M 3022 2063 
Q 3016 2534 2758 2815 
Q 2500 3097 2075 3097 
Q 1594 3097 1305 2825 
Q 1016 2553 972 2059 
L 3022 2063 
z
" transform="scale(0.015625)"/>
       <path id="DejaVuSans-73" d="M 2834 3397 
L 2834 2853 
Q 2591 2978 2328 3040 
Q 2066 3103 1784 3103 
Q 1356 3103 1142 2972 
Q 928 2841 928 2578 
Q 928 2378 1081 2264 
Q 1234 2150 1697 2047 
L 1894 2003 
Q 2506 1872 2764 1633 
Q 3022 1394 3022 966 
Q 3022 478 2636 193 
Q 2250 -91 1575 -91 
Q 1294 -91 989 -36 
Q 684 19 347 128 
L 347 722 
Q 666 556 975 473 
Q 1284 391 1588 391 
Q 1994 391 2212 530 
Q 2431 669 2431 922 
Q 2431 1156 2273 1281 
Q 2116 1406 1581 1522 
L 1381 1569 
Q 847 1681 609 1914 
Q 372 2147 372 2553 
Q 372 3047 722 3315 
Q 1072 3584 1716 3584 
Q 2034 3584 2315 3537 
Q 2597 3491 2834 3397 
z
" transform="scale(0.015625)"/>
       <path id="DejaVuSans-70" d="M 1159 525 
L 1159 -1331 
L 581 -1331 
L 581 3500 
L 1159 3500 
L 1159 2969 
Q 1341 3281 1617 3432 
Q 1894 3584 2278 3584 
Q 2916 3584 3314 3078 
Q 3713 2572 3713 1747 
Q 3713 922 3314 415 
Q 2916 -91 2278 -91 
Q 1894 -91 1617 61 
Q 1341 213 1159 525 
z
M 3116 1747 
Q 3116 2381 2855 2742 
Q 2594 3103 2138 3103 
Q 1681 3103 1420 2742 
Q 1159 2381 1159 1747 
Q 1159 1113 1420 752 
Q 1681 391 2138 391 
Q 2594 391 2855 752 
Q 3116 1113 3116 1747 
z
" transform="scale(0.015625)"/>
      </defs>
      <use xlink:href="#DejaVuSans-74"/>
      <use xlink:href="#DejaVuSans-69" x="39.208984"/>
      <use xlink:href="#DejaVuSans-6d" x="66.992188"/>
      <use xlink:href="#DejaVuSans-65" x="164.404297"/>
      <use xlink:href="#DejaVuSans-73" x="225.927734"/>
      <use xlink:href="#DejaVuSans-74" x="278.027344"/>
      <use xlink:href="#DejaVuSans-65" x="317.236328"/>
      <use xlink:href="#DejaVuSans-70" x="378.759766"/>
      <use xlink:href="#DejaVuSans-73" x="442.236328"/>
     </g>
    </g>
   </g>
   <g id="matplotlib.axis_2">
    <g id="ytick_1">
     <g id="line2d_7">
      <defs>
       <path id="mbae3ea3682" d="M 0 0 
L -3.5 0 
" style="stroke: #000000; stroke-width: 0.8"/>
      </defs>
      <g>
       <use xlink:href="#mbae3ea3682" x="57.6" y="296.238988" style="stroke: #000000; stroke-width: 0.8"/>
      </g>
     </g>
     <g id="text_8">
      <!-- 0 -->
      <g transform="translate(44.2375 300.038207) scale(0.1 -0.1)">
       <use xlink:href="#DejaVuSans-30"/>
      </g>
     </g>
    </g>
    <g id="ytick_2">
     <g id="line2d_8">
      <g>
       <use xlink:href="#mbae3ea3682" x="57.6" y="251.582567" style="stroke: #000000; stroke-width: 0.8"/>
      </g>
     </g>
     <g id="text_9">
      <!-- 50 -->
      <g transform="translate(37.875 255.381786) scale(0.1 -0.1)">
       <use xlink:href="#DejaVuSans-35"/>
       <use xlink:href="#DejaVuSans-30" x="63.623047"/>
      </g>
     </g>
    </g>
    <g id="ytick_3">
     <g id="line2d_9">
      <g>
       <use xlink:href="#mbae3ea3682" x="57.6" y="206.926145" style="stroke: #000000; stroke-width: 0.8"/>
      </g>
     </g>
     <g id="text_10">
      <!-- 100 -->
      <g transform="translate(31.5125 210.725364) scale(0.1 -0.1)">
       <use xlink:href="#DejaVuSans-31"/>
       <use xlink:href="#DejaVuSans-30" x="63.623047"/>
       <use xlink:href="#DejaVuSans-30" x="127.246094"/>
      </g>
     </g>
    </g>
    <g id="ytick_4">
     <g id="line2d_10">
      <g>
       <use xlink:href="#mbae3ea3682" x="57.6" y="162.269724" style="stroke: #000000; stroke-width: 0.8"/>
      </g>
     </g>
     <g id="text_11">
      <!-- 150 -->
      <g transform="translate(31.5125 166.068942) scale(0.1 -0.1)">
       <use xlink:href="#DejaVuSans-31"/>
       <use xlink:href="#DejaVuSans-35" x="63.623047"/>
       <use xlink:href="#DejaVuSans-30" x="127.246094"/>
      </g>
     </g>
    </g>
    <g id="ytick_5">
     <g id="line2d_11">
      <g>
       <use xlink:href="#mbae3ea3682" x="57.6" y="117.613302" style="stroke: #000000; stroke-width: 0.8"/>
      </g>
     </g>
     <g id="text_12">
      <!-- 200 -->
      <g transform="translate(31.5125 121.412521) scale(0.1 -0.1)">
       <use xlink:href="#DejaVuSans-32"/>
       <use xlink:href="#DejaVuSans-30" x="63.623047"/>
       <use xlink:href="#DejaVuSans-30" x="127.246094"/>
      </g>
     </g>
    </g>
    <g id="ytick_6">
     <g id="line2d_12">
      <g>
       <use xlink:href="#mbae3ea3682" x="57.6" y="72.95688" style="stroke: #000000; stroke-width: 0.8"/>
      </g>
     </g>
     <g id="text_13">
      <!-- 250 -->
      <g transform="translate(31.5125 76.756099) scale(0.1 -0.1)">
       <use xlink:href="#DejaVuSans-32"/>
       <use xlink:href="#DejaVuSans-35" x="63.623047"/>
       <use xlink:href="#DejaVuSans-30" x="127.246094"/>
      </g>
     </g>
    </g>
    <g id="text_14">
     <!-- rewards -->
     <g transform="translate(25.432812 194.447531) rotate(-90) scale(0.1 -0.1)">
      <defs>
       <path id="DejaVuSans-72" d="M 2631 2963 
Q 2534 3019 2420 3045 
Q 2306 3072 2169 3072 
Q 1681 3072 1420 2755 
Q 1159 2438 1159 1844 
L 1159 0 
L 581 0 
L 581 3500 
L 1159 3500 
L 1159 2956 
Q 1341 3275 1631 3429 
Q 1922 3584 2338 3584 
Q 2397 3584 2469 3576 
Q 2541 3569 2628 3553 
L 2631 2963 
z
" transform="scale(0.015625)"/>
       <path id="DejaVuSans-77" d="M 269 3500 
L 844 3500 
L 1563 769 
L 2278 3500 
L 2956 3500 
L 3675 769 
L 4391 3500 
L 4966 3500 
L 4050 0 
L 3372 0 
L 2619 2869 
L 1863 0 
L 1184 0 
L 269 3500 
z
" transform="scale(0.015625)"/>
       <path id="DejaVuSans-61" d="M 2194 1759 
Q 1497 1759 1228 1600 
Q 959 1441 959 1056 
Q 959 750 1161 570 
Q 1363 391 1709 391 
Q 2188 391 2477 730 
Q 2766 1069 2766 1631 
L 2766 1759 
L 2194 1759 
z
M 3341 1997 
L 3341 0 
L 2766 0 
L 2766 531 
Q 2569 213 2275 61 
Q 1981 -91 1556 -91 
Q 1019 -91 701 211 
Q 384 513 384 1019 
Q 384 1609 779 1909 
Q 1175 2209 1959 2209 
L 2766 2209 
L 2766 2266 
Q 2766 2663 2505 2880 
Q 2244 3097 1772 3097 
Q 1472 3097 1187 3025 
Q 903 2953 641 2809 
L 641 3341 
Q 956 3463 1253 3523 
Q 1550 3584 1831 3584 
Q 2591 3584 2966 3190 
Q 3341 2797 3341 1997 
z
" transform="scale(0.015625)"/>
       <path id="DejaVuSans-64" d="M 2906 2969 
L 2906 4863 
L 3481 4863 
L 3481 0 
L 2906 0 
L 2906 525 
Q 2725 213 2448 61 
Q 2172 -91 1784 -91 
Q 1150 -91 751 415 
Q 353 922 353 1747 
Q 353 2572 751 3078 
Q 1150 3584 1784 3584 
Q 2172 3584 2448 3432 
Q 2725 3281 2906 2969 
z
M 947 1747 
Q 947 1113 1208 752 
Q 1469 391 1925 391 
Q 2381 391 2643 752 
Q 2906 1113 2906 1747 
Q 2906 2381 2643 2742 
Q 2381 3103 1925 3103 
Q 1469 3103 1208 2742 
Q 947 2381 947 1747 
z
" transform="scale(0.015625)"/>
      </defs>
      <use xlink:href="#DejaVuSans-72"/>
      <use xlink:href="#DejaVuSans-65" x="38.863281"/>
      <use xlink:href="#DejaVuSans-77" x="100.386719"/>
      <use xlink:href="#DejaVuSans-61" x="182.173828"/>
      <use xlink:href="#DejaVuSans-72" x="243.453125"/>
      <use xlink:href="#DejaVuSans-64" x="282.816406"/>
      <use xlink:href="#DejaVuSans-73" x="346.292969"/>
     </g>
    </g>
   </g>
   <g id="line2d_13">
    <path d="M 73.832727 288.407473 
L 73.997983 290.873734 
L 74.097136 290.194283 
L 74.302053 283.62885 
L 74.414427 285.475613 
L 74.540021 289.704649 
L 74.665616 282.80771 
L 74.80443 286.800922 
L 74.956465 277.630672 
L 75.174603 291.540276 
L 75.326638 282.169753 
L 75.478673 281.444643 
L 75.564606 288.112055 
L 75.729862 278.947672 
L 75.822405 288.14872 
L 76.000881 266.339631 
L 76.192577 270.068785 
L 76.26529 291.64642 
L 76.483427 266.760538 
L 76.542919 291.628878 
L 76.668513 279.024313 
L 76.741226 289.546164 
L 76.972584 281.198413 
L 77.111398 287.04716 
L 77.355977 272.005338 
L 77.44852 289.814733 
L 77.521232 288.476129 
L 77.626996 289.470621 
L 77.74598 278.781036 
L 77.884795 290.933315 
L 77.997168 283.152798 
L 78.135983 282.395315 
L 78.433443 240.565423 
L 78.512766 288.315261 
L 78.711073 273.399042 
L 78.889549 288.832447 
L 79.001923 285.232062 
L 79.140737 291.126119 
L 79.325823 284.00213 
L 79.418367 286.04466 
L 79.52413 291.951546 
L 79.762098 285.885393 
L 80.033117 257.031517 
L 80.11244 287.88893 
L 80.343798 281.350437 
L 80.542105 280.057304 
L 80.713971 276.66409 
L 80.899057 278.919963 
L 81.203127 290.693199 
L 81.348552 285.777595 
L 81.414654 290.278748 
L 81.560079 281.561053 
L 81.612961 291.764832 
L 81.692284 289.19896 
L 81.758386 290.319445 
L 81.897201 281.451122 
L 82.009574 288.312923 
L 82.121948 282.493182 
L 82.260763 285.96846 
L 82.366527 283.099233 
L 82.558223 264.520238 
L 82.835852 255.384904 
L 82.915175 289.363213 
L 83.014329 285.690624 
L 83.252297 292.807565 
L 83.622469 266.667563 
L 83.873658 282.377101 
L 83.986031 286.680192 
L 84.24383 281.174187 
L 84.362814 287.982692 
L 84.508239 288.228784 
L 84.686715 281.16085 
L 84.858581 284.302064 
L 84.937904 290.879472 
L 85.314686 275.589804 
L 85.519603 290.508518 
L 85.777402 284.569648 
L 85.942658 289.774926 
L 86.035201 288.344578 
L 86.174016 272.630501 
L 86.392153 288.827973 
L 86.676393 280.007002 
L 86.782156 288.535519 
L 86.907751 282.297668 
L 87.112667 291.477711 
L 87.258092 285.059442 
L 87.357246 291.04744 
L 87.641485 273.838916 
L 87.727418 287.226788 
L 87.872843 284.01446 
L 88.011658 288.796222 
L 88.137252 283.944408 
L 88.209965 291.058451 
L 88.315728 285.655299 
L 88.421492 289.75135 
L 88.606578 273.847428 
L 88.699121 287.866732 
L 88.937089 252.671626 
L 89.042853 283.203839 
L 89.386585 289.469445 
L 89.492348 287.097033 
L 89.54523 291.281464 
L 89.670824 274.249721 
L 89.869131 288.902323 
L 89.961674 285.565436 
L 90.259134 288.718754 
L 90.378118 286.643217 
L 90.682188 279.211026 
L 90.840834 278.186078 
L 91.045751 277.973345 
L 91.144904 287.774704 
L 91.263888 282.905637 
L 91.528297 277.258168 
L 91.60101 291.141812 
L 91.885249 276.363148 
L 92.222371 283.770843 
L 92.288473 291.751705 
L 92.585933 255.418 
L 92.698307 285.991907 
L 93.015598 219.986987 
L 93.161022 284.71939 
L 93.326278 267.283716 
L 93.432042 286.435429 
L 93.557636 287.507652 
L 93.67662 286.964291 
L 93.755943 290.322142 
L 93.9873 284.918644 
L 94.145946 289.282871 
L 94.350863 284.23153 
L 94.55578 285.053711 
L 94.773917 278.905436 
L 95.018495 289.202465 
L 95.421719 239.519088 
L 95.520872 283.43014 
L 96.089352 229.886736 
L 96.181895 289.899843 
L 96.366981 262.608791 
L 96.525627 270.626046 
L 96.690882 289.922305 
L 97.014783 266.377248 
L 97.080885 290.951887 
L 97.332074 277.466219 
L 97.52377 277.636837 
L 97.81462 244.014795 
L 98.085639 290.387045 
L 98.211234 285.632327 
L 98.369879 290.094539 
L 98.634288 286.635044 
L 98.713611 288.325728 
L 98.812764 284.260378 
L 98.898697 285.699893 
L 98.971409 291.435031 
L 99.057342 290.097793 
L 99.29531 255.312761 
L 99.599381 289.848312 
L 99.705144 283.799613 
L 99.804298 285.373902 
L 99.969553 291.012012 
L 100.095148 278.204013 
L 100.187691 290.925157 
L 100.405828 280.907046 
L 100.538033 283.387782 
L 100.736339 260.674815 
L 100.921426 291.850328 
L 101.04041 285.737667 
L 101.132953 287.028253 
L 101.476684 212.100056 
L 101.64855 290.488314 
L 101.787365 283.328171 
L 101.879908 289.370703 
L 102.177368 260.227318 
L 102.375675 263.48625 
L 102.461608 290.459147 
L 102.620253 287.436785 
L 102.81856 266.023927 
L 102.884662 290.315269 
L 103.10941 256.989959 
L 103.40026 290.339318 
L 103.677889 284.886225 
L 103.849755 271.28463 
L 103.942298 290.296204 
L 104.034841 284.894584 
L 104.160435 286.941262 
L 104.405014 247.366992 
L 104.550439 293.98107 
L 104.642982 284.713086 
L 104.728915 290.655829 
L 104.788407 290.159516 
L 105.105697 253.39393 
L 105.317225 284.57415 
L 105.383327 291.833991 
L 105.575023 286.23833 
L 105.793161 263.819105 
L 105.984857 291.234037 
L 106.0774 286.549032 
L 106.143503 290.306803 
L 106.34842 279.911557 
L 106.434352 288.373729 
L 106.599608 280.647544 
L 106.745033 281.603772 
L 106.830966 291.113389 
L 106.94995 280.459182 
L 107.194528 277.350492 
L 107.419276 287.792486 
L 107.597752 274.859783 
L 107.677075 288.363094 
L 107.789448 286.397733 
L 107.921653 286.639955 
L 108.034027 287.760251 
L 108.113349 287.421027 
L 108.199282 289.060066 
L 108.305046 283.541346 
L 108.357928 292.107589 
L 108.529793 281.460376 
L 108.655388 287.996891 
L 108.754541 286.348757 
L 108.833864 290.916188 
L 109.01234 278.762537 
L 109.177595 288.342053 
L 109.263528 287.617285 
L 109.395733 278.781489 
L 109.554378 289.568249 
L 109.666752 285.515219 
L 109.792346 289.834431 
L 110.063365 264.933926 
L 110.268282 288.439 
L 110.453369 274.168842 
L 110.526081 290.182673 
L 110.697947 287.187452 
L 110.816931 279.901047 
L 110.902864 286.563089 
L 111.167273 251.514716 
L 111.239985 289.05385 
L 111.358969 284.857689 
L 111.544056 270.102691 
L 111.702701 289.120569 
L 111.854736 275.534991 
L 111.95389 292.019352 
L 112.019992 289.03203 
L 112.132366 289.193629 
L 112.211688 292.080301 
L 112.396775 282.796252 
L 112.85288 279.946114 
L 112.958644 284.340934 
L 113.084238 280.600081 
L 113.176781 284.059459 
L 113.414749 279.40581 
L 113.520513 283.725052 
L 113.639497 282.722786 
L 113.870855 288.702366 
L 114.188145 232.526162 
L 114.432724 285.906787 
L 114.584759 286.18588 
L 114.730184 285.71799 
L 114.882219 289.756467 
L 115.067305 282.968665 
L 115.140018 288.582685 
L 115.622564 206.574797 
L 115.81426 285.731657 
L 115.926634 281.492075 
L 116.455452 236.786876 
L 116.640538 287.051545 
L 116.739692 286.530896 
L 117.056983 283.560302 
L 117.228848 290.457196 
L 117.446986 273.53542 
L 117.625462 290.285894 
L 117.711395 289.551997 
L 118.141059 280.116133 
L 118.226992 289.617581 
L 118.438519 271.546988 
L 118.564114 283.335807 
L 118.722759 273.268891 
L 119.05988 285.999146 
L 119.278018 283.711868 
L 119.363951 288.946266 
L 119.542427 272.051023 
L 119.780395 291.336273 
L 119.985312 266.640944 
L 120.163788 289.775191 
L 120.335654 280.529618 
L 120.401756 289.669077 
L 120.573622 282.454624 
L 120.851251 291.27559 
L 121.036337 265.931706 
L 121.089219 291.227869 
L 121.347018 284.285724 
L 121.479222 283.22103 
L 121.723801 240.958163 
L 121.882446 279.508167 
L 122.735165 113.466614 
L 122.913641 291.368317 
L 123.085507 280.407213 
L 123.237542 279.100223 
L 123.303644 289.29437 
L 123.442459 278.767428 
L 123.687037 244.223899 
L 123.819242 287.044601 
L 124.004328 274.599577 
L 124.162973 290.762902 
L 124.262127 287.827505 
L 124.480264 261.572012 
L 124.65213 291.311175 
L 124.916539 235.842062 
L 125.200779 280.960169 
L 125.584172 254.984966 
L 125.689935 288.781172 
L 125.795699 283.416942 
L 126.000616 282.67058 
L 126.192312 279.37508 
L 126.476552 284.540226 
L 126.549264 291.356864 
L 126.71452 288.876544 
L 126.826894 283.257571 
L 126.919437 287.767677 
L 127.01859 287.374245 
L 127.177236 281.966809 
L 127.30283 291.486926 
L 127.620121 249.127794 
L 127.785376 271.369549 
L 127.977073 267.620269 
L 128.043175 290.160004 
L 128.380296 263.951904 
L 128.565383 291.837168 
L 128.684367 285.788167 
L 128.763689 287.986585 
L 128.968606 285.506766 
L 129.133862 279.073028 
L 129.504034 288.349505 
L 129.728782 285.170132 
L 129.887427 278.66025 
L 130.065904 290.525763 
L 130.151836 285.510568 
L 130.237769 290.810604 
L 130.323702 285.104535 
L 130.588111 280.754156 
L 130.693875 283.441054 
L 130.819469 281.073176 
L 130.898792 288.177045 
L 131.037606 276.521739 
L 131.183031 273.749809 
L 131.302015 281.246645 
L 131.751511 215.479493 
L 131.844054 288.827943 
L 132.009309 273.435071 
L 132.101853 288.755431 
L 132.386092 280.57076 
L 132.505076 284.57024 
L 132.650501 280.846893 
L 132.862028 288.499158 
L 132.928131 289.834021 
L 133.278472 279.882977 
L 133.443728 284.459047 
L 133.714747 241.250925 
L 133.926274 287.182142 
L 133.992377 290.982646 
L 134.065089 290.093549 
L 134.164242 285.464542 
L 134.435262 290.5552 
L 134.626958 281.768997 
L 134.778993 287.626622 
L 134.98391 272.345039 
L 135.155776 289.280176 
L 135.360693 280.650077 
L 135.466457 286.633589 
L 135.605271 273.816417 
L 135.796968 287.036127 
L 136.391888 253.500447 
L 136.517482 284.433092 
L 136.722399 262.590859 
L 137.03969 269.664713 
L 137.211556 289.707312 
L 137.416473 287.153201 
L 137.509016 291.357282 
L 137.594949 289.468372 
L 137.713933 282.481971 
L 137.872578 285.063806 
L 137.951901 288.779958 
L 138.103936 273.691657 
L 138.249361 277.456821 
L 138.302243 291.898159 
L 138.374955 288.696414 
L 138.672415 282.674653 
L 138.916994 263.618955 
L 139.016147 285.304037 
L 139.188013 279.514145 
L 139.386319 259.650221 
L 139.544965 286.811969 
L 139.849035 281.315554 
L 139.98124 290.5408 
L 140.2787 248.051537 
L 140.450566 291.659235 
L 140.708364 269.770309 
L 140.893451 291.381382 
L 141.065316 285.713353 
L 141.323115 293.346308 
L 141.501591 276.651791 
L 141.832102 234.433143 
L 141.937866 286.231087 
L 142.308039 210.391801 
L 142.618719 220.770399 
L 142.869908 288.109547 
L 142.94923 287.618123 
L 143.054994 289.554743 
L 143.187198 275.277566 
L 143.345844 285.750085 
L 143.478048 276.36444 
L 143.53093 292.079213 
L 143.603642 291.45316 
L 143.696186 286.900718 
L 143.940764 268.186517 
L 144.099409 275.321132 
L 144.158901 290.417207 
L 144.277885 282.961283 
L 144.40348 282.149794 
L 144.72077 263.873001 
L 145.196706 288.191369 
L 145.348742 288.103653 
L 145.765186 242.825735 
L 145.870949 289.235934 
L 146.089087 268.420709 
L 146.18163 286.774645 
L 146.333665 273.437393 
L 146.399767 288.874402 
L 146.49231 288.628557 
L 146.756719 276.655438 
L 146.836042 289.967865 
L 146.921975 286.074836 
L 147.093841 292.487339 
L 147.35825 286.310619 
L 147.563167 278.152761 
L 147.735032 290.720606 
L 147.834186 290.301274 
L 148.065544 284.333292 
L 148.125036 293.233142 
L 149.176061 264.027133 
L 149.301656 280.854667 
L 149.42064 281.19211 
L 149.651997 264.875259 
L 149.73793 290.885711 
L 149.889966 274.800484 
L 150.194036 292.357119 
L 150.273359 291.775487 
L 150.537767 276.507313 
L 150.6237 287.578688 
L 150.795566 270.835817 
L 151.126077 256.71125 
L 151.330994 260.406292 
L 151.628454 280.955385 
L 151.833371 288.99916 
L 151.912694 287.545888 
L 152.038288 288.829274 
L 152.282867 280.675063 
L 152.348969 289.207452 
L 152.560496 284.886325 
L 152.66626 287.931569 
L 152.910838 280.363222 
L 153.082704 266.772731 
L 153.327282 288.803414 
L 153.499148 274.092917 
L 153.664403 286.582983 
L 153.84288 278.971874 
L 153.948643 287.173673 
L 154.107288 271.091685 
L 154.259324 273.41723 
L 154.332036 291.177879 
L 154.563394 277.408914 
L 154.702209 280.675151 
L 154.834413 279.028425 
L 154.893905 290.626034 
L 154.999669 286.873393 
L 155.092212 288.07743 
L 155.197975 283.899905 
L 155.376452 283.129337 
L 155.482215 284.167 
L 155.581368 287.459775 
L 155.667301 285.808174 
L 155.839167 276.931472 
L 155.905269 289.756354 
L 156.037474 287.960439 
L 156.110186 288.99191 
L 156.249001 280.114304 
L 156.341544 286.331244 
L 156.526631 285.17301 
L 156.751378 289.875705 
L 157.154602 191.373162 
L 157.623928 289.760168 
L 157.756132 286.385134 
L 157.868506 287.563484 
L 158.007321 287.387808 
L 158.113084 286.066367 
L 158.423765 287.096404 
L 158.516308 288.770837 
L 158.622072 282.706915 
L 158.701394 287.57499 
L 158.965803 274.698667 
L 159.051736 288.894512 
L 159.335976 280.124949 
L 159.580554 287.724128 
L 159.659877 291.174163 
L 159.725979 289.284286 
L 159.911065 265.534608 
L 160.030049 287.585972 
L 160.155644 285.850768 
L 160.512596 274.023386 
L 160.730733 290.157998 
L 161.034803 285.718441 
L 161.140567 286.02465 
L 161.411586 261.431984 
L 161.576842 291.482425 
L 161.675995 288.792797 
L 161.82142 280.615904 
L 161.933794 287.331207 
L 162.10566 276.549338 
L 162.456002 265.452726 
L 162.740241 237.050559 
L 162.945158 288.812409 
L 163.097193 277.460918 
L 163.163295 291.649347 
L 163.540078 260.354079 
L 163.711944 268.583109 
L 164.022625 289.187954 
L 164.19449 284.318315 
L 164.267203 289.777242 
L 164.544832 278.662536 
L 164.710088 285.47316 
L 164.822462 281.837049 
L 165.113312 289.424485 
L 165.311618 285.712018 
L 165.417382 290.008143 
L 165.490094 288.28504 
L 165.9462 223.03302 
L 166.111455 287.823404 
L 166.263491 286.010587 
L 166.336203 289.272197 
L 166.805529 185.698724 
L 166.911293 286.646185 
L 167.202142 273.460117 
L 167.321126 287.595628 
L 167.446721 285.791159 
L 167.559094 282.166886 
L 167.770622 287.109745 
L 167.935877 270.629461 
L 168.035031 290.307015 
L 168.114353 288.553627 
L 168.213507 291.109249 
L 168.544018 278.047561 
L 168.682833 284.773933 
L 168.808427 280.890816 
L 168.973682 289.684849 
L 169.046395 289.457805 
L 169.19182 289.405703 
L 169.297583 286.184678 
L 169.396737 286.203246 
L 169.555382 284.128891 
L 169.674366 279.85326 
L 169.938775 289.074937 
L 170.315558 260.3655 
L 170.447762 285.878514 
L 170.593187 278.258793 
L 170.758443 288.735401 
L 170.910478 269.095153 
L 170.989801 287.655543 
L 171.168277 282.85465 
L 171.432686 257.163869 
L 171.538449 289.106056 
L 171.796248 252.365346 
L 171.915232 286.252066 
L 172.14659 261.965795 
L 172.344897 290.689397 
L 172.457271 290.112158 
L 172.576255 284.936927 
L 172.840664 290.856134 
L 173.144734 220.945305 
L 173.508296 218.74561 
L 173.574398 290.189645 
L 173.825587 283.639669 
L 174.017283 266.989152 
L 174.20898 283.931145 
L 174.413897 271.304573 
L 174.592373 271.489021 
L 175.160852 180.930186 
L 175.326108 291.757091 
L 175.3856 290.75393 
L 175.478143 283.259543 
L 175.623568 293.125629 
L 175.954079 275.48369 
L 176.542389 181.359513 
L 176.773747 288.040616 
L 176.972054 264.249432 
L 177.15714 260.053887 
L 177.243073 289.225263 
L 177.342226 286.898212 
L 177.414939 289.814487 
L 177.606635 262.609973 
L 177.778501 268.7089 
L 177.937146 281.204409 
L 178.148673 276.048756 
L 178.227996 290.152612 
L 178.35359 284.936027 
L 178.439523 290.503291 
L 178.703932 282.58084 
L 178.789865 287.900723 
L 178.902239 287.897789 
L 179.014613 280.667639 
L 179.312073 220.998964 
L 179.589702 286.231537 
L 179.702076 282.254543 
L 179.906993 287.816868 
L 180.191233 264.864494 
L 180.277166 285.131097 
L 180.607677 222.202585 
L 180.739881 284.228471 
L 181.017511 229.925328 
L 181.189377 291.269906 
L 181.268699 287.553555 
L 181.400904 276.066946 
L 181.467006 290.436282 
L 181.57938 286.725432 
L 181.638872 291.355691 
L 181.87684 277.240451 
L 181.975993 288.598523 
L 182.18752 268.066548 
L 182.319725 275.348379 
L 182.405658 287.032554 
L 182.689897 272.547408 
L 183.06007 204.358848 
L 183.159223 287.804658 
L 183.238546 287.269706 
L 183.317869 287.509059 
L 183.436853 288.356438 
L 183.595498 270.789681 
L 183.688041 290.678792 
L 183.800415 284.229964 
L 184.058214 254.130376 
L 184.23669 285.092119 
L 184.474658 290.678423 
L 184.606862 288.970489 
L 184.897712 250.270856 
L 185.082799 289.731068 
L 185.155511 290.830949 
L 185.439751 278.815868 
L 185.71738 286.290057 
L 185.816533 285.226681 
L 185.975179 276.543356 
L 186.047891 288.409353 
L 186.173486 284.53567 
L 186.279249 286.266944 
L 186.338741 291.652709 
L 186.695693 280.725156 
L 186.979933 275.56971 
L 187.138578 285.971457 
L 187.290613 276.993436 
L 187.369936 289.57739 
L 187.48892 288.928862 
L 187.574853 289.547875 
L 187.667396 286.383335 
L 187.852482 265.609502 
L 187.991297 292.085069 
L 188.06401 291.3454 
L 188.209435 282.724045 
L 188.645709 246.876673 
L 188.705201 291.712241 
L 188.870457 286.048044 
L 188.976221 288.939842 
L 189.115035 275.56312 
L 189.207578 284.057427 
L 189.386054 272.793026 
L 189.604192 272.962114 
L 189.670294 290.301951 
L 190.159451 237.317618 
L 190.225553 292.288856 
L 190.72793 188.283942 
L 190.820473 285.133025 
L 190.959288 293.982525 
L 191.098102 285.494906 
L 191.184035 287.880283 
L 191.336071 284.255527 
L 191.706243 258.771134 
L 192.116077 284.26958 
L 192.49286 241.026273 
L 192.717607 262.695541 
L 192.829981 285.785991 
L 193.299307 224.111196 
L 193.39185 288.087416 
L 193.464563 288.038304 
L 193.590157 279.843483 
L 193.695921 286.194887 
L 193.98016 276.846331 
L 194.231349 289.560876 
L 194.304061 290.016654 
L 194.733726 225.26526 
L 195.15678 214.306414 
L 195.546783 198.75059 
L 195.778141 289.958009 
L 195.930176 282.869544 
L 196.359841 205.163583 
L 196.445774 287.825527 
L 196.743234 283.840088 
L 196.855608 289.142088 
L 197.060525 249.014814 
L 197.192729 286.528917 
L 197.391036 273.45829 
L 197.721547 220.953035 
L 197.853751 284.872217 
L 197.959515 283.386227 
L 198.256975 231.599506 
L 198.349518 287.009975 
L 198.600707 263.106576 
L 198.726301 292.8158 
L 198.878336 284.181286 
L 199.036982 290.870924 
L 199.109694 287.886518 
L 199.268339 270.99786 
L 199.512918 276.031509 
L 199.645122 283.00674 
L 199.797157 271.840595 
L 199.975633 293.656813 
L 200.101228 278.448775 
L 200.352416 291.568308 
L 200.590384 266.66169 
L 200.901065 282.682521 
L 201.330729 215.56677 
L 201.462934 286.976447 
L 202.084295 213.471526 
L 202.269381 290.882408 
L 202.375145 286.929907 
L 202.474298 288.326602 
L 202.692435 270.135656 
L 203.214643 285.805274 
L 203.353458 284.260019 
L 203.584816 282.996847 
L 203.822784 294.0964 
L 203.99465 263.359264 
L 204.179736 280.688182 
L 204.29872 280.804834 
L 204.371432 288.756073 
L 204.503637 287.675276 
L 204.6094 288.163293 
L 204.873809 237.834971 
L 205.210931 269.135298 
L 205.957886 217.379749 
L 206.08348 284.714861 
L 206.215685 288.225005 
L 206.321449 284.373742 
L 206.566027 239.204055 
L 206.837046 290.261267 
L 207.061794 283.44892 
L 207.233659 291.879235 
L 207.431966 285.327382 
L 207.498068 288.729208 
L 207.603832 283.302247 
L 207.775698 256.664927 
L 207.85502 286.87063 
L 207.974005 279.672758 
L 208.106209 284.067043 
L 208.225193 281.411901 
L 208.317736 285.356741 
L 208.516043 250.043192 
L 208.641637 291.281933 
L 208.773842 285.69037 
L 208.872995 288.61797 
L 209.091132 271.809859 
L 209.196896 290.829214 
L 209.395203 282.655928 
L 209.520797 291.566122 
L 209.60673 289.437749 
L 209.877749 231.972875 
L 210.135548 239.059584 
L 210.598263 174.733974 
L 210.750299 278.462604 
L 211.272506 293.229039 
L 211.338609 292.039488 
L 211.735222 192.432671 
L 211.96658 255.948649 
L 212.178107 274.235153 
L 212.475567 223.978834 
L 212.587941 285.926897 
L 212.832519 276.72099 
L 213.090318 272.936075 
L 213.387778 280.632159 
L 213.546423 279.415402 
L 213.625746 286.258147 
L 213.843884 263.472723 
L 213.956257 285.197861 
L 214.147954 289.409059 
L 214.286769 278.314514 
L 214.485075 249.513497 
L 214.815586 253.538777 
L 215.027114 286.886597 
L 215.529491 211.312263 
L 215.681526 286.28699 
L 216.09797 250.034775 
L 216.210344 290.009743 
L 216.567296 214.873175 
L 216.653229 287.53526 
L 216.765603 283.085836 
L 216.957299 269.040258 
L 217.228318 283.320208 
L 217.446456 276.53585 
L 217.677813 249.742249 
L 217.823238 295.488 
L 217.975274 283.164618 
L 218.120698 281.265667 
L 218.437989 236.352083 
L 218.913925 259.00389 
L 219.006469 285.632405 
L 219.198165 250.158905 
L 219.436133 279.241031 
L 220.037663 210.798844 
L 220.341734 240.38971 
L 220.500379 291.372619 
L 220.652414 273.599554 
L 220.778009 283.111239 
L 220.943264 270.098124 
L 221.286996 211.422457 
L 221.643948 287.867205 
L 222.357852 221.459765 
L 222.688363 217.954195 
L 222.959383 261.74179 
L 223.164299 247.790272 
L 223.415488 265.569138 
L 223.706338 230.792323 
L 224.023629 290.065651 
L 224.254986 242.095176 
L 224.559057 219.575805 
L 224.757363 292.183136 
L 224.922619 283.833584 
L 225.008552 286.726064 
L 225.127536 285.694895 
L 225.801779 193.784475 
L 225.927373 294.170429 
L 226.059578 285.109965 
L 226.601616 207.235686 
L 226.826364 286.788849 
L 227.031281 247.377531 
L 227.282469 237.719302 
L 227.553488 232.253901 
L 228.022814 183.902018 
L 228.174849 272.786833 
L 228.611124 252.437159 
L 228.78299 288.643885 
L 229.034178 245.324579 
L 229.179603 275.474689 
L 229.36469 280.232118 
L 229.68198 224.934642 
L 230.098425 183.601096 
L 230.362833 245.186278 
L 230.931313 242.087299 
L 231.327926 195.027844 
L 231.598945 233.341169 
L 231.982338 207.654469 
L 232.055051 287.378219 
L 232.279798 273.847658 
L 232.716073 289.803606 
L 233.020144 225.164131 
L 233.192009 282.720486 
L 233.562182 226.563351 
L 233.760489 249.189452 
L 233.886083 294.275564 
L 233.958795 289.312823 
L 234.09761 286.64493 
L 234.328968 242.323794 
L 234.659479 212.432764 
L 235.194907 180.386369 
L 235.85593 166.095922 
L 235.941863 286.274698 
L 236.252543 221.318499 
L 236.417799 275.074915 
L 236.695428 229.32594 
L 236.867294 288.361468 
L 237.03916 290.437179 
L 237.369671 232.495323 
L 237.581198 291.548769 
L 237.852217 284.755628 
L 238.209169 211.190217 
L 238.367815 257.593335 
L 238.797479 256.877925 
L 238.969345 287.224184 
L 239.220534 287.615208 
L 239.617147 261.914089 
L 240.066642 291.772514 
L 240.456646 200.286623 
L 240.602071 271.613933 
L 240.800377 291.332185 
L 240.939192 289.133616 
L 241.117668 253.774354 
L 241.296144 293.594132 
L 241.520892 252.105042 
L 241.851403 231.711861 
L 242.023269 293.132708 
L 242.241406 245.62593 
L 242.419882 254.594228 
L 242.737173 226.277211 
L 243.193278 210.210661 
L 243.768368 119.99599 
L 243.933624 257.161869 
L 244.376509 184.984972 
L 244.865665 210.880623 
L 245.123464 234.364828 
L 245.268889 282.442724 
L 245.546518 275.620477 
L 245.764656 291.079349 
L 245.857199 289.959626 
L 246.154659 268.928533 
L 246.326525 292.272728 
L 246.538052 246.452216 
L 246.954496 278.540321 
L 247.132972 275.198104 
L 247.417212 224.010701 
L 247.622129 247.962311 
L 247.774164 280.350696 
L 248.104675 213.005138 
L 248.507899 190.554762 
L 249.268074 92.955839 
L 249.486212 246.403208 
L 249.677908 294.580101 
L 249.843164 256.58494 
L 250.041471 248.892627 
L 250.418253 204.869051 
L 250.709103 280.001184 
L 250.90741 248.602161 
L 251.085886 291.211013 
L 251.330464 289.155184 
L 251.766739 216.068101 
L 252.070809 270.411227 
L 252.242675 255.005458 
L 252.540135 290.196315 
L 252.645899 288.184632 
L 252.943359 244.11665 
L 253.115225 268.972313 
L 253.610992 252.802551 
L 253.954723 258.178928 
L 254.126589 292.289236 
L 254.628966 231.039961 
L 254.966088 221.194167 
L 255.091682 290.433726 
L 255.369311 251.300244 
L 255.554397 252.346558 
L 255.739484 273.303869 
L 256.314573 191.240795 
L 256.631864 289.022228 
L 256.922714 227.559809 
L 257.180513 284.339645 
L 257.40526 241.743807 
L 257.610177 290.333944 
L 257.887807 279.825898 
L 258.317471 193.902841 
L 259.004934 234.939958 
L 259.236292 238.821762 
L 259.692398 237.116146 
L 259.983248 281.078875 
L 260.3402 220.004895 
L 260.525286 254.785171 
L 260.703762 253.122088 
L 261.470548 218.218361 
L 261.642414 255.620288 
L 262.032417 196.847495 
L 262.448861 183.354803 
L 262.640558 251.251221 
L 262.931408 236.960089 
L 263.572599 190.033586 
L 263.744465 269.159479 
L 264.068366 213.999722 
L 264.266673 248.804078 
L 264.663286 199.671236 
L 265.086341 260.775186 
L 265.601938 216.003018 
L 265.813465 247.320743 
L 266.031603 245.214547 
L 266.296012 237.406234 
L 266.626523 212.929857 
L 266.917373 228.289116 
L 267.102459 252.131912 
L 267.360258 246.253335 
L 267.578395 245.922575 
L 268.02128 192.433949 
L 268.193146 287.171412 
L 268.675692 256.157707 
L 268.867389 283.610307 
L 269.19129 223.514809 
L 269.746549 199.210078 
L 269.977906 242.518689 
L 270.354689 263.356586 
L 270.500114 261.001466 
L 270.790964 239.501099 
L 271.451986 252.951563 
L 271.696565 235.159525 
L 272.265044 153.511912 
L 272.549284 230.340088 
L 272.800472 236.569792 
L 272.985558 278.674224 
L 273.554038 219.558442 
L 273.937431 218.370184 
L 274.096076 280.148521 
L 274.618284 196.787458 
L 275.160322 165.730123 
L 275.444562 225.107623 
L 275.67592 239.454195 
L 275.894057 245.478852 
L 276.350162 166.699998 
L 276.58152 240.601889 
L 276.812878 241.062789 
L 277.235932 209.024818 
L 277.401188 288.000222 
L 277.652377 236.376769 
L 277.804412 283.674944 
L 278.009329 273.601568 
L 278.438993 223.703072 
L 278.802556 220.103067 
L 279.027303 241.948214 
L 279.278492 236.273247 
L 279.496629 246.079063 
L 279.919683 231.439422 
L 280.131211 291.176559 
L 280.481552 220.391696 
L 280.726131 289.155165 
L 281.208677 201.726262 
L 281.631731 259.077832 
L 281.955632 215.768876 
L 282.153939 250.625243 
L 282.339025 252.691077 
L 282.729029 194.964869 
L 282.940556 247.222709 
L 283.099201 258.283075 
L 283.409882 234.820868 
L 284.090735 227.829629 
L 284.467518 215.780174 
L 284.692265 244.286261 
L 284.883962 292.803728 
L 285.240914 213.8423 
L 285.591256 231.931366 
L 285.862275 235.228662 
L 286.146514 227.054304 
L 286.377872 289.980564 
L 286.61584 287.199823 
L 286.933131 227.332473 
L 287.329745 268.703996 
L 287.541272 247.550628 
L 288.056869 209.763989 
L 288.38738 211.094036 
L 288.777384 285.379886 
L 289.676374 153.331321 
L 289.874681 248.260928 
L 290.099428 241.386401 
L 290.383668 223.902534 
L 290.687738 238.921015 
L 290.978588 225.157312 
L 291.368592 226.234644 
L 291.533847 255.325366 
L 291.798256 234.939413 
L 292.327074 245.650327 
L 292.988096 251.046401 
L 293.358269 264.0966 
L 293.728442 267.701747 
L 293.97302 237.45691 
L 294.2837 220.948708 
L 294.587771 219.748701 
L 294.944723 230.451407 
L 295.143029 292.922637 
L 295.354557 246.428381 
L 295.982528 174.939197 
L 296.227106 239.558964 
L 296.438633 245.827884 
L 296.815416 216.374689 
L 297.013723 248.528822 
L 297.245081 243.662929 
L 297.648304 208.452207 
L 298.0978 250.79255 
L 298.362209 232.643895 
L 298.540685 253.568301 
L 298.838145 237.415558 
L 299.056282 245.02796 
L 299.380183 239.692631 
L 299.796627 237.759145 
L 299.975103 252.802205 
L 300.17341 249.451319 
L 300.371717 250.295111 
L 300.642736 230.578321 
L 301.416132 223.491061 
L 301.964781 211.35215 
L 302.24241 230.358343 
L 302.52665 226.834401 
L 302.784449 234.469342 
L 303.12818 226.410126 
L 303.491742 238.488991 
L 303.875135 214.855956 
L 304.199036 212.538859 
L 304.754295 241.485164 
L 305.18396 207.796499 
L 305.375656 251.165007 
L 306.631599 124.765653 
L 306.909228 228.557769 
L 307.186858 227.921491 
L 307.761947 200.048136 
L 308.013136 241.259898 
L 308.330427 241.213352 
L 308.746871 194.048662 
L 308.958398 247.116018 
L 309.150094 250.81791 
L 309.586369 226.977307 
L 309.850778 287.373024 
L 310.108577 236.323114 
L 310.313494 291.9475 
L 310.78282 219.570852 
L 311.166213 237.920515 
L 311.701641 226.630613 
L 311.95944 236.959045 
L 312.243679 284.305981 
L 312.838599 199.970309 
L 313.050126 244.354766 
L 313.268264 244.639351 
L 313.526063 236.657882 
L 314.33251 190.158588 
L 314.610139 228.029359 
L 315.112516 175.532833 
L 315.330654 243.325594 
L 315.581842 237.260752 
L 316.077609 183.334667 
L 316.3949 220.365544 
L 316.98982 209.895145 
L 317.399654 217.483254 
L 317.902031 246.023965 
L 318.351526 211.215332 
L 318.675427 211.620889 
L 319.012549 236.350011 
L 319.243906 238.806874 
L 319.435603 247.325488 
L 320.843581 73.028581 
L 321.180702 233.606994 
L 321.464942 280.736777 
L 321.663248 249.530164 
L 321.881386 242.422743 
L 322.099523 246.200015 
L 322.443255 245.51389 
L 322.965463 225.902981 
L 323.553773 176.315606 
L 323.857843 237.180715 
L 324.234626 204.068648 
L 324.472594 239.35565 
L 324.836156 199.847968 
L 325.041073 248.558371 
L 325.279041 235.842607 
L 325.675654 226.24003 
L 326.025996 221.417538 
L 326.204472 254.310279 
L 326.396169 249.786703 
L 326.574645 252.484894 
L 326.786172 293.156309 
L 327.103463 216.813541 
L 327.31499 245.954527 
L 327.526517 246.589519 
L 327.89008 205.164512 
L 328.075166 252.669245 
L 328.458559 216.706518 
L 328.630425 255.129951 
L 328.974156 207.153291 
L 329.231955 233.403916 
L 329.529415 238.280678 
L 330.078064 216.359654 
L 330.494508 221.238814 
L 330.798578 219.426898 
L 331.168751 232.603029 
L 332.054521 163.9618 
L 332.358591 219.073585 
L 332.794866 178.255285 
L 332.973342 254.207716 
L 333.369955 195.224427 
L 333.548431 253.864706 
L 334.189623 209.00792 
L 334.500304 217.279259 
L 335.260479 193.808598 
L 335.57116 221.00845 
L 336.225572 206.604864 
L 336.430489 247.344258 
L 336.714729 229.093293 
L 337.574058 156.774197 
L 337.772365 249.653978 
L 338.049994 228.847125 
L 338.658135 210.044325 
L 338.889492 239.029745 
L 339.372039 156.913025 
L 339.795093 212.40146 
L 340.469336 164.74243 
L 340.773406 218.16605 
L 341.097307 215.417617 
L 341.414598 216.508476 
L 341.930196 238.280219 
L 342.888678 93.053065 
L 343.324953 175.247478 
L 343.82072 219.70776 
L 344.356148 186.19625 
L 344.792423 200.260567 
L 345.202256 187.869285 
L 345.532768 209.830393 
L 345.856669 213.693004 
L 346.240062 198.116948 
L 346.663116 230.028279 
L 347.773634 189.899781 
L 347.95211 251.766337 
L 348.170247 241.866742 
L 348.461097 220.813113 
L 348.692455 241.654744 
L 349.254324 186.029262 
L 349.512123 234.77235 
L 350.080602 116.854411 
L 350.298739 242.661278 
L 350.873829 193.847342 
L 351.091966 243.153664 
L 351.369595 227.444747 
L 351.832311 175.140508 
L 352.136381 219.8777 
L 352.460282 222.345838 
L 352.737912 227.801918 
L 353.299781 132.627782 
L 353.537749 241.193192 
L 354.205382 198.637065 
L 354.727589 143.054253 
L 355.011829 226.4655 
L 355.428273 188.14741 
L 355.844717 187.530968 
L 356.043024 247.008466 
L 356.280992 241.444324 
L 356.452858 255.524443 
L 356.796589 209.667749 
L 357.451002 164.572352 
L 357.940158 158.864538 
L 358.363213 177.763734 
L 358.806098 177.530886 
L 359.149829 206.780976 
L 359.619155 164.781344 
L 359.784411 256.805501 
L 360.147973 199.951911 
L 360.789165 129.0103 
L 361.080015 222.431319 
L 361.291542 245.090368 
L 361.83358 136.426865 
L 362.157481 216.20947 
L 362.501213 210.010609 
L 362.785452 227.113947 
L 363.188676 192.668123 
L 363.426644 239.563563 
L 363.796817 200.070375 
L 363.988513 250.655372 
L 364.338855 224.900319 
L 364.834622 160.039939 
L 365.158523 211.865994 
L 365.581577 183.886174 
L 365.786494 246.992899 
L 366.163277 219.149416 
L 366.361584 249.025293 
L 366.956504 106.010715 
L 367.273795 238.373528 
L 368.219057 116.789257 
L 368.470245 236.540248 
L 369.395677 148.922053 
L 369.607204 245.385136 
L 369.898054 224.370283 
L 370.109581 244.378009 
L 371.180437 53.568 
L 371.385354 246.466062 
L 371.801798 207.758234 
L 372.086038 225.939894 
L 372.568584 202.506133 
L 373.090792 204.353971 
L 374.174869 112.765365 
L 374.584702 189.950968 
L 375.126741 148.174335 
L 375.377929 247.651408 
L 375.906747 133.327763 
L 376.389294 161.818908 
L 376.918112 136.359845 
L 377.308115 198.620265 
L 377.863374 130.637464 
L 378.299648 182.372285 
L 378.960671 113.450654 
L 379.456438 258.023984 
L 379.886102 187.859077 
L 380.395089 143.128177 
L 380.771872 224.974279 
L 381.380013 109.639273 
L 381.855949 159.951278 
L 382.371546 142.943326 
L 382.887144 153.886436 
L 383.35647 158.064089 
L 383.991051 105.839369 
L 384.374444 226.358441 
L 384.751227 193.905556 
L 385.220553 248.569241 
L 385.802253 128.26243 
L 386.436834 243.360047 
L 387.362266 129.881225 
L 387.996847 231.776327 
L 388.347189 203.772125 
L 388.66448 214.32826 
L 389.2594 125.142098 
L 389.503978 237.132838 
L 389.940253 180.005861 
L 390.416189 165.756881 
L 391.01772 130.194606 
L 391.592809 131.448397 
L 392.148068 128.20008 
L 392.564512 189.240612 
L 392.762819 247.662204 
L 393.060279 223.351983 
L 393.522994 203.444454 
L 394.203848 98.966969 
L 394.415375 245.774651 
L 394.911142 157.73807 
L 395.492841 126.542773 
L 396.114202 113.126386 
L 396.999972 197.326194 
L 397.568452 115.280844 
L 398.10388 156.151731 
L 398.487273 199.932128 
L 398.487273 199.932128 
" clip-path="url(#p147fc68c6b)" style="fill: none; stroke: #1f77b4; stroke-width: 1.5; stroke-linecap: square"/>
   </g>
   <g id="patch_3">
    <path d="M 57.6 307.584 
L 57.6 41.472 
" style="fill: none; stroke: #000000; stroke-width: 0.8; stroke-linejoin: miter; stroke-linecap: square"/>
   </g>
   <g id="patch_4">
    <path d="M 414.72 307.584 
L 414.72 41.472 
" style="fill: none; stroke: #000000; stroke-width: 0.8; stroke-linejoin: miter; stroke-linecap: square"/>
   </g>
   <g id="patch_5">
    <path d="M 57.6 307.584 
L 414.72 307.584 
" style="fill: none; stroke: #000000; stroke-width: 0.8; stroke-linejoin: miter; stroke-linecap: square"/>
   </g>
   <g id="patch_6">
    <path d="M 57.6 41.472 
L 414.72 41.472 
" style="fill: none; stroke: #000000; stroke-width: 0.8; stroke-linejoin: miter; stroke-linecap: square"/>
   </g>
   <g id="text_15">
    <!-- learning curve -->
    <g transform="translate(192.96375 35.472) scale(0.12 -0.12)">
     <defs>
      <path id="DejaVuSans-6c" d="M 603 4863 
L 1178 4863 
L 1178 0 
L 603 0 
L 603 4863 
z
" transform="scale(0.015625)"/>
      <path id="DejaVuSans-6e" d="M 3513 2113 
L 3513 0 
L 2938 0 
L 2938 2094 
Q 2938 2591 2744 2837 
Q 2550 3084 2163 3084 
Q 1697 3084 1428 2787 
Q 1159 2491 1159 1978 
L 1159 0 
L 581 0 
L 581 3500 
L 1159 3500 
L 1159 2956 
Q 1366 3272 1645 3428 
Q 1925 3584 2291 3584 
Q 2894 3584 3203 3211 
Q 3513 2838 3513 2113 
z
" transform="scale(0.015625)"/>
      <path id="DejaVuSans-67" d="M 2906 1791 
Q 2906 2416 2648 2759 
Q 2391 3103 1925 3103 
Q 1463 3103 1205 2759 
Q 947 2416 947 1791 
Q 947 1169 1205 825 
Q 1463 481 1925 481 
Q 2391 481 2648 825 
Q 2906 1169 2906 1791 
z
M 3481 434 
Q 3481 -459 3084 -895 
Q 2688 -1331 1869 -1331 
Q 1566 -1331 1297 -1286 
Q 1028 -1241 775 -1147 
L 775 -588 
Q 1028 -725 1275 -790 
Q 1522 -856 1778 -856 
Q 2344 -856 2625 -561 
Q 2906 -266 2906 331 
L 2906 616 
Q 2728 306 2450 153 
Q 2172 0 1784 0 
Q 1141 0 747 490 
Q 353 981 353 1791 
Q 353 2603 747 3093 
Q 1141 3584 1784 3584 
Q 2172 3584 2450 3431 
Q 2728 3278 2906 2969 
L 2906 3500 
L 3481 3500 
L 3481 434 
z
" transform="scale(0.015625)"/>
      <path id="DejaVuSans-20" transform="scale(0.015625)"/>
      <path id="DejaVuSans-63" d="M 3122 3366 
L 3122 2828 
Q 2878 2963 2633 3030 
Q 2388 3097 2138 3097 
Q 1578 3097 1268 2742 
Q 959 2388 959 1747 
Q 959 1106 1268 751 
Q 1578 397 2138 397 
Q 2388 397 2633 464 
Q 2878 531 3122 666 
L 3122 134 
Q 2881 22 2623 -34 
Q 2366 -91 2075 -91 
Q 1284 -91 818 406 
Q 353 903 353 1747 
Q 353 2603 823 3093 
Q 1294 3584 2113 3584 
Q 2378 3584 2631 3529 
Q 2884 3475 3122 3366 
z
" transform="scale(0.015625)"/>
      <path id="DejaVuSans-75" d="M 544 1381 
L 544 3500 
L 1119 3500 
L 1119 1403 
Q 1119 906 1312 657 
Q 1506 409 1894 409 
Q 2359 409 2629 706 
Q 2900 1003 2900 1516 
L 2900 3500 
L 3475 3500 
L 3475 0 
L 2900 0 
L 2900 538 
Q 2691 219 2414 64 
Q 2138 -91 1772 -91 
Q 1169 -91 856 284 
Q 544 659 544 1381 
z
M 1991 3584 
L 1991 3584 
z
" transform="scale(0.015625)"/>
      <path id="DejaVuSans-76" d="M 191 3500 
L 800 3500 
L 1894 563 
L 2988 3500 
L 3597 3500 
L 2284 0 
L 1503 0 
L 191 3500 
z
" transform="scale(0.015625)"/>
     </defs>
     <use xlink:href="#DejaVuSans-6c"/>
     <use xlink:href="#DejaVuSans-65" x="27.783203"/>
     <use xlink:href="#DejaVuSans-61" x="89.306641"/>
     <use xlink:href="#DejaVuSans-72" x="150.585938"/>
     <use xlink:href="#DejaVuSans-6e" x="189.949219"/>
     <use xlink:href="#DejaVuSans-69" x="253.328125"/>
     <use xlink:href="#DejaVuSans-6e" x="281.111328"/>
     <use xlink:href="#DejaVuSans-67" x="344.490234"/>
     <use xlink:href="#DejaVuSans-20" x="407.966797"/>
     <use xlink:href="#DejaVuSans-63" x="439.753906"/>
     <use xlink:href="#DejaVuSans-75" x="494.734375"/>
     <use xlink:href="#DejaVuSans-72" x="558.113281"/>
     <use xlink:href="#DejaVuSans-76" x="599.226562"/>
     <use xlink:href="#DejaVuSans-65" x="658.40625"/>
    </g>
   </g>
  </g>
 </g>
 <defs>
  <clipPath id="p147fc68c6b">
   <rect x="57.6" y="41.472" width="357.12" height="266.112"/>
  </clipPath>
 </defs>
</svg>
