<?xml version="1.0" encoding="utf-8" standalone="no"?>
<!DOCTYPE svg PUBLIC "-//W3C//DTD SVG 1.1//EN"
  "http://www.w3.org/Graphics/SVG/1.1/DTD/svg11.dtd">
<svg xmlns:xlink="http://www.w3.org/1999/xlink" width="460.8pt" height="345.6pt" viewBox="0 0 460.8 345.6" xmlns="http://www.w3.org/2000/svg" version="1.1">
 <metadata>
  <rdf:RDF xmlns:dc="http://purl.org/dc/elements/1.1/" xmlns:cc="http://creativecommons.org/ns#" xmlns:rdf="http://www.w3.org/1999/02/22-rdf-syntax-ns#">
   <cc:Work>
    <dc:type rdf:resource="http://purl.org/dc/dcmitype/StillImage"/>
    <dc:date>2023-08-18T15:56:46.081259</dc:date>
    <dc:format>image/svg+xml</dc:format>
    <dc:creator>
     <cc:Agent>
      <dc:title>Matplotlib v3.7.1, https://matplotlib.org/</dc:title>
     </cc:Agent>
    </dc:creator>
   </cc:Work>
  </rdf:RDF>
 </metadata>
 <defs>
  <style type="text/css">*{stroke-linejoin: round; stroke-linecap: butt}</style>
 </defs>
 <g id="figure_1">
  <g id="patch_1">
   <path d="M 0 345.6 
L 460.8 345.6 
L 460.8 0 
L 0 0 
z
" style="fill: #ffffff"/>
  </g>
  <g id="axes_1">
   <g id="patch_2">
    <path d="M 57.6 307.584 
L 414.72 307.584 
L 414.72 41.472 
L 57.6 41.472 
z
" style="fill: #ffffff"/>
   </g>
   <g id="matplotlib.axis_1">
    <g id="xtick_1">
     <g id="line2d_1">
      <defs>
       <path id="m0238ee2fa4" d="M 0 0 
L 0 3.5 
" style="stroke: #000000; stroke-width: 0.8"/>
      </defs>
      <g>
       <use xlink:href="#m0238ee2fa4" x="73.779896" y="307.584" style="stroke: #000000; stroke-width: 0.8"/>
      </g>
     </g>
     <g id="text_1">
      <!-- 0 -->
      <g transform="translate(70.598646 322.182437) scale(0.1 -0.1)">
       <defs>
        <path id="DejaVuSans-30" d="M 2034 4250 
Q 1547 4250 1301 3770 
Q 1056 3291 1056 2328 
Q 1056 1369 1301 889 
Q 1547 409 2034 409 
Q 2525 409 2770 889 
Q 3016 1369 3016 2328 
Q 3016 3291 2770 3770 
Q 2525 4250 2034 4250 
z
M 2034 4750 
Q 2819 4750 3233 4129 
Q 3647 3509 3647 2328 
Q 3647 1150 3233 529 
Q 2819 -91 2034 -91 
Q 1250 -91 836 529 
Q 422 1150 422 2328 
Q 422 3509 836 4129 
Q 1250 4750 2034 4750 
z
" transform="scale(0.015625)"/>
       </defs>
       <use xlink:href="#DejaVuSans-30"/>
      </g>
     </g>
    </g>
    <g id="xtick_2">
     <g id="line2d_2">
      <g>
       <use xlink:href="#m0238ee2fa4" x="139.81894" y="307.584" style="stroke: #000000; stroke-width: 0.8"/>
      </g>
     </g>
     <g id="text_2">
      <!-- 10000 -->
      <g transform="translate(123.91269 322.182437) scale(0.1 -0.1)">
       <defs>
        <path id="DejaVuSans-31" d="M 794 531 
L 1825 531 
L 1825 4091 
L 703 3866 
L 703 4441 
L 1819 4666 
L 2450 4666 
L 2450 531 
L 3481 531 
L 3481 0 
L 794 0 
L 794 531 
z
" transform="scale(0.015625)"/>
       </defs>
       <use xlink:href="#DejaVuSans-31"/>
       <use xlink:href="#DejaVuSans-30" x="63.623047"/>
       <use xlink:href="#DejaVuSans-30" x="127.246094"/>
       <use xlink:href="#DejaVuSans-30" x="190.869141"/>
       <use xlink:href="#DejaVuSans-30" x="254.492188"/>
      </g>
     </g>
    </g>
    <g id="xtick_3">
     <g id="line2d_3">
      <g>
       <use xlink:href="#m0238ee2fa4" x="205.857985" y="307.584" style="stroke: #000000; stroke-width: 0.8"/>
      </g>
     </g>
     <g id="text_3">
      <!-- 20000 -->
      <g transform="translate(189.951735 322.182437) scale(0.1 -0.1)">
       <defs>
        <path id="DejaVuSans-32" d="M 1228 531 
L 3431 531 
L 3431 0 
L 469 0 
L 469 531 
Q 828 903 1448 1529 
Q 2069 2156 2228 2338 
Q 2531 2678 2651 2914 
Q 2772 3150 2772 3378 
Q 2772 3750 2511 3984 
Q 2250 4219 1831 4219 
Q 1534 4219 1204 4116 
Q 875 4013 500 3803 
L 500 4441 
Q 881 4594 1212 4672 
Q 1544 4750 1819 4750 
Q 2544 4750 2975 4387 
Q 3406 4025 3406 3419 
Q 3406 3131 3298 2873 
Q 3191 2616 2906 2266 
Q 2828 2175 2409 1742 
Q 1991 1309 1228 531 
z
" transform="scale(0.015625)"/>
       </defs>
       <use xlink:href="#DejaVuSans-32"/>
       <use xlink:href="#DejaVuSans-30" x="63.623047"/>
       <use xlink:href="#DejaVuSans-30" x="127.246094"/>
       <use xlink:href="#DejaVuSans-30" x="190.869141"/>
       <use xlink:href="#DejaVuSans-30" x="254.492188"/>
      </g>
     </g>
    </g>
    <g id="xtick_4">
     <g id="line2d_4">
      <g>
       <use xlink:href="#m0238ee2fa4" x="271.897029" y="307.584" style="stroke: #000000; stroke-width: 0.8"/>
      </g>
     </g>
     <g id="text_4">
      <!-- 30000 -->
      <g transform="translate(255.990779 322.182437) scale(0.1 -0.1)">
       <defs>
        <path id="DejaVuSans-33" d="M 2597 2516 
Q 3050 2419 3304 2112 
Q 3559 1806 3559 1356 
Q 3559 666 3084 287 
Q 2609 -91 1734 -91 
Q 1441 -91 1130 -33 
Q 819 25 488 141 
L 488 750 
Q 750 597 1062 519 
Q 1375 441 1716 441 
Q 2309 441 2620 675 
Q 2931 909 2931 1356 
Q 2931 1769 2642 2001 
Q 2353 2234 1838 2234 
L 1294 2234 
L 1294 2753 
L 1863 2753 
Q 2328 2753 2575 2939 
Q 2822 3125 2822 3475 
Q 2822 3834 2567 4026 
Q 2313 4219 1838 4219 
Q 1578 4219 1281 4162 
Q 984 4106 628 3988 
L 628 4550 
Q 988 4650 1302 4700 
Q 1616 4750 1894 4750 
Q 2613 4750 3031 4423 
Q 3450 4097 3450 3541 
Q 3450 3153 3228 2886 
Q 3006 2619 2597 2516 
z
" transform="scale(0.015625)"/>
       </defs>
       <use xlink:href="#DejaVuSans-33"/>
       <use xlink:href="#DejaVuSans-30" x="63.623047"/>
       <use xlink:href="#DejaVuSans-30" x="127.246094"/>
       <use xlink:href="#DejaVuSans-30" x="190.869141"/>
       <use xlink:href="#DejaVuSans-30" x="254.492188"/>
      </g>
     </g>
    </g>
    <g id="xtick_5">
     <g id="line2d_5">
      <g>
       <use xlink:href="#m0238ee2fa4" x="337.936073" y="307.584" style="stroke: #000000; stroke-width: 0.8"/>
      </g>
     </g>
     <g id="text_5">
      <!-- 40000 -->
      <g transform="translate(322.029823 322.182437) scale(0.1 -0.1)">
       <defs>
        <path id="DejaVuSans-34" d="M 2419 4116 
L 825 1625 
L 2419 1625 
L 2419 4116 
z
M 2253 4666 
L 3047 4666 
L 3047 1625 
L 3713 1625 
L 3713 1100 
L 3047 1100 
L 3047 0 
L 2419 0 
L 2419 1100 
L 313 1100 
L 313 1709 
L 2253 4666 
z
" transform="scale(0.015625)"/>
       </defs>
       <use xlink:href="#DejaVuSans-34"/>
       <use xlink:href="#DejaVuSans-30" x="63.623047"/>
       <use xlink:href="#DejaVuSans-30" x="127.246094"/>
       <use xlink:href="#DejaVuSans-30" x="190.869141"/>
       <use xlink:href="#DejaVuSans-30" x="254.492188"/>
      </g>
     </g>
    </g>
    <g id="xtick_6">
     <g id="line2d_6">
      <g>
       <use xlink:href="#m0238ee2fa4" x="403.975117" y="307.584" style="stroke: #000000; stroke-width: 0.8"/>
      </g>
     </g>
     <g id="text_6">
      <!-- 50000 -->
      <g transform="translate(388.068867 322.182437) scale(0.1 -0.1)">
       <defs>
        <path id="DejaVuSans-35" d="M 691 4666 
L 3169 4666 
L 3169 4134 
L 1269 4134 
L 1269 2991 
Q 1406 3038 1543 3061 
Q 1681 3084 1819 3084 
Q 2600 3084 3056 2656 
Q 3513 2228 3513 1497 
Q 3513 744 3044 326 
Q 2575 -91 1722 -91 
Q 1428 -91 1123 -41 
Q 819 9 494 109 
L 494 744 
Q 775 591 1075 516 
Q 1375 441 1709 441 
Q 2250 441 2565 725 
Q 2881 1009 2881 1497 
Q 2881 1984 2565 2268 
Q 2250 2553 1709 2553 
Q 1456 2553 1204 2497 
Q 953 2441 691 2322 
L 691 4666 
z
" transform="scale(0.015625)"/>
       </defs>
       <use xlink:href="#DejaVuSans-35"/>
       <use xlink:href="#DejaVuSans-30" x="63.623047"/>
       <use xlink:href="#DejaVuSans-30" x="127.246094"/>
       <use xlink:href="#DejaVuSans-30" x="190.869141"/>
       <use xlink:href="#DejaVuSans-30" x="254.492188"/>
      </g>
     </g>
    </g>
    <g id="text_7">
     <!-- timesteps -->
     <g transform="translate(211.443594 335.860562) scale(0.1 -0.1)">
      <defs>
       <path id="DejaVuSans-74" d="M 1172 4494 
L 1172 3500 
L 2356 3500 
L 2356 3053 
L 1172 3053 
L 1172 1153 
Q 1172 725 1289 603 
Q 1406 481 1766 481 
L 2356 481 
L 2356 0 
L 1766 0 
Q 1100 0 847 248 
Q 594 497 594 1153 
L 594 3053 
L 172 3053 
L 172 3500 
L 594 3500 
L 594 4494 
L 1172 4494 
z
" transform="scale(0.015625)"/>
       <path id="DejaVuSans-69" d="M 603 3500 
L 1178 3500 
L 1178 0 
L 603 0 
L 603 3500 
z
M 603 4863 
L 1178 4863 
L 1178 4134 
L 603 4134 
L 603 4863 
z
" transform="scale(0.015625)"/>
       <path id="DejaVuSans-6d" d="M 3328 2828 
Q 3544 3216 3844 3400 
Q 4144 3584 4550 3584 
Q 5097 3584 5394 3201 
Q 5691 2819 5691 2113 
L 5691 0 
L 5113 0 
L 5113 2094 
Q 5113 2597 4934 2840 
Q 4756 3084 4391 3084 
Q 3944 3084 3684 2787 
Q 3425 2491 3425 1978 
L 3425 0 
L 2847 0 
L 2847 2094 
Q 2847 2600 2669 2842 
Q 2491 3084 2119 3084 
Q 1678 3084 1418 2786 
Q 1159 2488 1159 1978 
L 1159 0 
L 581 0 
L 581 3500 
L 1159 3500 
L 1159 2956 
Q 1356 3278 1631 3431 
Q 1906 3584 2284 3584 
Q 2666 3584 2933 3390 
Q 3200 3197 3328 2828 
z
" transform="scale(0.015625)"/>
       <path id="DejaVuSans-65" d="M 3597 1894 
L 3597 1613 
L 953 1613 
Q 991 1019 1311 708 
Q 1631 397 2203 397 
Q 2534 397 2845 478 
Q 3156 559 3463 722 
L 3463 178 
Q 3153 47 2828 -22 
Q 2503 -91 2169 -91 
Q 1331 -91 842 396 
Q 353 884 353 1716 
Q 353 2575 817 3079 
Q 1281 3584 2069 3584 
Q 2775 3584 3186 3129 
Q 3597 2675 3597 1894 
z
M 3022 2063 
Q 3016 2534 2758 2815 
Q 2500 3097 2075 3097 
Q 1594 3097 1305 2825 
Q 1016 2553 972 2059 
L 3022 2063 
z
" transform="scale(0.015625)"/>
       <path id="DejaVuSans-73" d="M 2834 3397 
L 2834 2853 
Q 2591 2978 2328 3040 
Q 2066 3103 1784 3103 
Q 1356 3103 1142 2972 
Q 928 2841 928 2578 
Q 928 2378 1081 2264 
Q 1234 2150 1697 2047 
L 1894 2003 
Q 2506 1872 2764 1633 
Q 3022 1394 3022 966 
Q 3022 478 2636 193 
Q 2250 -91 1575 -91 
Q 1294 -91 989 -36 
Q 684 19 347 128 
L 347 722 
Q 666 556 975 473 
Q 1284 391 1588 391 
Q 1994 391 2212 530 
Q 2431 669 2431 922 
Q 2431 1156 2273 1281 
Q 2116 1406 1581 1522 
L 1381 1569 
Q 847 1681 609 1914 
Q 372 2147 372 2553 
Q 372 3047 722 3315 
Q 1072 3584 1716 3584 
Q 2034 3584 2315 3537 
Q 2597 3491 2834 3397 
z
" transform="scale(0.015625)"/>
       <path id="DejaVuSans-70" d="M 1159 525 
L 1159 -1331 
L 581 -1331 
L 581 3500 
L 1159 3500 
L 1159 2969 
Q 1341 3281 1617 3432 
Q 1894 3584 2278 3584 
Q 2916 3584 3314 3078 
Q 3713 2572 3713 1747 
Q 3713 922 3314 415 
Q 2916 -91 2278 -91 
Q 1894 -91 1617 61 
Q 1341 213 1159 525 
z
M 3116 1747 
Q 3116 2381 2855 2742 
Q 2594 3103 2138 3103 
Q 1681 3103 1420 2742 
Q 1159 2381 1159 1747 
Q 1159 1113 1420 752 
Q 1681 391 2138 391 
Q 2594 391 2855 752 
Q 3116 1113 3116 1747 
z
" transform="scale(0.015625)"/>
      </defs>
      <use xlink:href="#DejaVuSans-74"/>
      <use xlink:href="#DejaVuSans-69" x="39.208984"/>
      <use xlink:href="#DejaVuSans-6d" x="66.992188"/>
      <use xlink:href="#DejaVuSans-65" x="164.404297"/>
      <use xlink:href="#DejaVuSans-73" x="225.927734"/>
      <use xlink:href="#DejaVuSans-74" x="278.027344"/>
      <use xlink:href="#DejaVuSans-65" x="317.236328"/>
      <use xlink:href="#DejaVuSans-70" x="378.759766"/>
      <use xlink:href="#DejaVuSans-73" x="442.236328"/>
     </g>
    </g>
   </g>
   <g id="matplotlib.axis_2">
    <g id="ytick_1">
     <g id="line2d_7">
      <defs>
       <path id="m116dd1a2a8" d="M 0 0 
L -3.5 0 
" style="stroke: #000000; stroke-width: 0.8"/>
      </defs>
      <g>
       <use xlink:href="#m116dd1a2a8" x="57.6" y="297.09065" style="stroke: #000000; stroke-width: 0.8"/>
      </g>
     </g>
     <g id="text_8">
      <!-- 0 -->
      <g transform="translate(44.2375 300.889869) scale(0.1 -0.1)">
       <use xlink:href="#DejaVuSans-30"/>
      </g>
     </g>
    </g>
    <g id="ytick_2">
     <g id="line2d_8">
      <g>
       <use xlink:href="#m116dd1a2a8" x="57.6" y="250.855743" style="stroke: #000000; stroke-width: 0.8"/>
      </g>
     </g>
     <g id="text_9">
      <!-- 50 -->
      <g transform="translate(37.875 254.654961) scale(0.1 -0.1)">
       <use xlink:href="#DejaVuSans-35"/>
       <use xlink:href="#DejaVuSans-30" x="63.623047"/>
      </g>
     </g>
    </g>
    <g id="ytick_3">
     <g id="line2d_9">
      <g>
       <use xlink:href="#m116dd1a2a8" x="57.6" y="204.620835" style="stroke: #000000; stroke-width: 0.8"/>
      </g>
     </g>
     <g id="text_10">
      <!-- 100 -->
      <g transform="translate(31.5125 208.420054) scale(0.1 -0.1)">
       <use xlink:href="#DejaVuSans-31"/>
       <use xlink:href="#DejaVuSans-30" x="63.623047"/>
       <use xlink:href="#DejaVuSans-30" x="127.246094"/>
      </g>
     </g>
    </g>
    <g id="ytick_4">
     <g id="line2d_10">
      <g>
       <use xlink:href="#m116dd1a2a8" x="57.6" y="158.385928" style="stroke: #000000; stroke-width: 0.8"/>
      </g>
     </g>
     <g id="text_11">
      <!-- 150 -->
      <g transform="translate(31.5125 162.185147) scale(0.1 -0.1)">
       <use xlink:href="#DejaVuSans-31"/>
       <use xlink:href="#DejaVuSans-35" x="63.623047"/>
       <use xlink:href="#DejaVuSans-30" x="127.246094"/>
      </g>
     </g>
    </g>
    <g id="ytick_5">
     <g id="line2d_11">
      <g>
       <use xlink:href="#m116dd1a2a8" x="57.6" y="112.151021" style="stroke: #000000; stroke-width: 0.8"/>
      </g>
     </g>
     <g id="text_12">
      <!-- 200 -->
      <g transform="translate(31.5125 115.95024) scale(0.1 -0.1)">
       <use xlink:href="#DejaVuSans-32"/>
       <use xlink:href="#DejaVuSans-30" x="63.623047"/>
       <use xlink:href="#DejaVuSans-30" x="127.246094"/>
      </g>
     </g>
    </g>
    <g id="ytick_6">
     <g id="line2d_12">
      <g>
       <use xlink:href="#m116dd1a2a8" x="57.6" y="65.916114" style="stroke: #000000; stroke-width: 0.8"/>
      </g>
     </g>
     <g id="text_13">
      <!-- 250 -->
      <g transform="translate(31.5125 69.715333) scale(0.1 -0.1)">
       <use xlink:href="#DejaVuSans-32"/>
       <use xlink:href="#DejaVuSans-35" x="63.623047"/>
       <use xlink:href="#DejaVuSans-30" x="127.246094"/>
      </g>
     </g>
    </g>
    <g id="text_14">
     <!-- rewards -->
     <g transform="translate(25.432812 194.447531) rotate(-90) scale(0.1 -0.1)">
      <defs>
       <path id="DejaVuSans-72" d="M 2631 2963 
Q 2534 3019 2420 3045 
Q 2306 3072 2169 3072 
Q 1681 3072 1420 2755 
Q 1159 2438 1159 1844 
L 1159 0 
L 581 0 
L 581 3500 
L 1159 3500 
L 1159 2956 
Q 1341 3275 1631 3429 
Q 1922 3584 2338 3584 
Q 2397 3584 2469 3576 
Q 2541 3569 2628 3553 
L 2631 2963 
z
" transform="scale(0.015625)"/>
       <path id="DejaVuSans-77" d="M 269 3500 
L 844 3500 
L 1563 769 
L 2278 3500 
L 2956 3500 
L 3675 769 
L 4391 3500 
L 4966 3500 
L 4050 0 
L 3372 0 
L 2619 2869 
L 1863 0 
L 1184 0 
L 269 3500 
z
" transform="scale(0.015625)"/>
       <path id="DejaVuSans-61" d="M 2194 1759 
Q 1497 1759 1228 1600 
Q 959 1441 959 1056 
Q 959 750 1161 570 
Q 1363 391 1709 391 
Q 2188 391 2477 730 
Q 2766 1069 2766 1631 
L 2766 1759 
L 2194 1759 
z
M 3341 1997 
L 3341 0 
L 2766 0 
L 2766 531 
Q 2569 213 2275 61 
Q 1981 -91 1556 -91 
Q 1019 -91 701 211 
Q 384 513 384 1019 
Q 384 1609 779 1909 
Q 1175 2209 1959 2209 
L 2766 2209 
L 2766 2266 
Q 2766 2663 2505 2880 
Q 2244 3097 1772 3097 
Q 1472 3097 1187 3025 
Q 903 2953 641 2809 
L 641 3341 
Q 956 3463 1253 3523 
Q 1550 3584 1831 3584 
Q 2591 3584 2966 3190 
Q 3341 2797 3341 1997 
z
" transform="scale(0.015625)"/>
       <path id="DejaVuSans-64" d="M 2906 2969 
L 2906 4863 
L 3481 4863 
L 3481 0 
L 2906 0 
L 2906 525 
Q 2725 213 2448 61 
Q 2172 -91 1784 -91 
Q 1150 -91 751 415 
Q 353 922 353 1747 
Q 353 2572 751 3078 
Q 1150 3584 1784 3584 
Q 2172 3584 2448 3432 
Q 2725 3281 2906 2969 
z
M 947 1747 
Q 947 1113 1208 752 
Q 1469 391 1925 391 
Q 2381 391 2643 752 
Q 2906 1113 2906 1747 
Q 2906 2381 2643 2742 
Q 2381 3103 1925 3103 
Q 1469 3103 1208 2742 
Q 947 2381 947 1747 
z
" transform="scale(0.015625)"/>
      </defs>
      <use xlink:href="#DejaVuSans-72"/>
      <use xlink:href="#DejaVuSans-65" x="38.863281"/>
      <use xlink:href="#DejaVuSans-77" x="100.386719"/>
      <use xlink:href="#DejaVuSans-61" x="182.173828"/>
      <use xlink:href="#DejaVuSans-72" x="243.453125"/>
      <use xlink:href="#DejaVuSans-64" x="282.816406"/>
      <use xlink:href="#DejaVuSans-73" x="346.292969"/>
     </g>
    </g>
   </g>
   <g id="line2d_13">
    <path d="M 73.832727 293.184736 
L 74.156319 287.005334 
L 74.347832 291.507437 
L 74.578968 286.094513 
L 74.849729 275.759714 
L 75.001618 286.578765 
L 75.107281 282.618412 
L 75.272378 288.71832 
L 75.437476 267.142178 
L 75.774275 277.147061 
L 75.952581 275.891633 
L 76.064847 288.973802 
L 76.157302 286.971703 
L 76.210133 292.889116 
L 76.791276 254.424436 
L 77.022413 288.409332 
L 77.207322 274.446043 
L 77.346004 284.547367 
L 77.517706 278.978696 
L 77.808278 290.528461 
L 77.927148 286.641553 
L 78.072434 276.17903 
L 78.191304 293.392959 
L 78.277155 284.497935 
L 78.429045 287.339726 
L 78.48848 292.582462 
L 79.089435 222.519995 
L 79.188494 294.214265 
L 79.624351 279.929732 
L 79.888508 291.132728 
L 80.278138 234.00298 
L 80.68758 282.025376 
L 80.819658 286.923303 
L 80.964944 272.561756 
L 81.070607 287.588548 
L 81.242308 287.368608 
L 81.427217 288.97624 
L 81.65175 258.580394 
L 81.981945 246.885024 
L 82.22629 273.647234 
L 82.437615 276.519933 
L 82.635732 289.370609 
L 82.76781 288.252546 
L 82.992343 261.18647 
L 83.07159 288.176253 
L 83.19046 287.634352 
L 83.348954 276.138203 
L 83.540467 279.472985 
L 83.778207 290.232156 
L 84.141422 227.402124 
L 84.352747 293.193277 
L 84.564072 286.179957 
L 84.69615 281.35731 
L 84.801813 286.996404 
L 85.013137 281.519729 
L 85.184839 270.533513 
L 85.264086 287.79619 
L 85.462203 288.155652 
L 85.759379 269.800141 
L 86.195236 282.5711 
L 86.267879 292.740023 
L 86.50562 268.299695 
L 86.670717 265.792995 
L 87.014121 288.274727 
L 87.099971 289.280967 
L 87.225445 277.970218 
L 87.383939 283.909364 
L 87.568848 276.099817 
L 87.714134 275.871491 
L 87.806589 291.350127 
L 88.050934 277.504091 
L 88.136784 290.987257 
L 88.387733 275.917151 
L 88.519811 282.975345 
L 88.770759 282.411099 
L 89.067935 286.36058 
L 89.200013 284.586167 
L 89.36511 288.264532 
L 89.510396 276.358896 
L 89.695306 290.850621 
L 89.853799 282.307342 
L 90.09154 289.176017 
L 90.415131 282.226934 
L 90.527398 288.078393 
L 90.672684 285.053247 
L 90.877405 277.609843 
L 90.963255 286.360171 
L 91.141561 270.115699 
L 91.2076 289.982811 
L 91.35949 282.971104 
L 91.676477 251.396288 
L 91.801951 286.074102 
L 91.934029 287.521757 
L 92.145354 282.477963 
L 92.237809 291.342614 
L 92.548192 236.878681 
L 92.673667 283.980389 
L 92.931219 270.819325 
L 93.109524 272.424368 
L 93.4067 288.76499 
L 93.651044 256.264142 
L 93.730291 291.983922 
L 93.875577 283.227023 
L 93.94822 291.875156 
L 94.020863 288.992678 
L 94.238792 275.923015 
L 94.469929 290.265693 
L 94.568987 288.416126 
L 94.79352 292.16987 
L 95.077488 254.141952 
L 95.282209 290.792213 
L 95.447306 284.600002 
L 95.63882 270.643706 
L 95.731274 289.962382 
L 95.836937 289.305214 
L 95.916184 291.365167 
L 95.988827 290.06903 
L 96.081281 291.224844 
L 96.160528 289.318084 
L 96.246379 290.30816 
L 96.33223 288.283465 
L 96.576574 264.880399 
L 96.708652 286.01931 
L 96.867146 284.627164 
L 97.038847 291.307524 
L 97.151114 286.56355 
L 97.26338 287.948865 
L 97.388854 277.291378 
L 97.468101 288.819885 
L 97.580368 283.108356 
L 97.712446 282.388665 
L 97.8049 285.874028 
L 97.98981 280.327897 
L 98.141699 271.832763 
L 98.326609 290.354753 
L 98.465291 287.277027 
L 98.551142 290.876562 
L 98.68322 279.281259 
L 98.894545 281.997496 
L 99.046434 289.997359 
L 99.158701 285.770676 
L 99.383233 255.785306 
L 99.911546 145.404655 
L 99.990793 291.546661 
L 100.07004 289.278674 
L 100.314384 280.351524 
L 100.413443 287.036504 
L 100.545521 282.126352 
L 100.69741 289.982166 
L 100.862508 278.260939 
L 101.357801 288.419482 
L 101.509691 277.331709 
L 101.57573 290.635444 
L 101.81347 286.562372 
L 101.899321 287.336157 
L 102.031399 281.547537 
L 102.110646 289.938041 
L 102.35499 276.003504 
L 102.5399 277.705108 
L 102.678582 280.471437 
L 102.863491 288.733404 
L 103.028589 277.656322 
L 103.107836 289.865885 
L 103.272933 289.707892 
L 103.391803 285.429346 
L 103.537089 274.925584 
L 103.781434 286.763358 
L 103.966343 276.891891 
L 104.31635 241.071083 
L 104.692773 284.298676 
L 105.055987 221.370823 
L 105.359767 289.376163 
L 105.485241 286.932389 
L 105.571092 289.766338 
L 105.670151 283.403635 
L 105.861664 285.046715 
L 105.921099 290.890879 
L 106.00695 289.39374 
L 106.106008 288.915414 
L 106.304125 276.653919 
L 106.469223 290.260825 
L 106.812626 253.839758 
L 106.918288 289.443186 
L 107.103198 288.451137 
L 107.189049 289.772791 
L 107.420185 271.99564 
L 107.499432 287.492214 
L 107.591887 287.333708 
L 107.756984 279.361588 
L 107.882458 291.988796 
L 108.08718 260.409618 
L 108.285297 262.172155 
L 108.622096 289.746272 
L 108.721154 286.46751 
L 108.787193 291.355166 
L 108.912668 280.037704 
L 109.01833 290.36495 
L 109.328714 281.441031 
L 109.427772 282.44765 
L 109.533435 281.727412 
L 109.665513 281.716019 
L 109.850422 288.624732 
L 109.975896 283.569947 
L 110.365527 217.466862 
L 110.451377 289.372138 
L 110.67591 254.794448 
L 110.748553 291.520202 
L 111.012709 276.858203 
L 111.210826 279.422202 
L 111.389132 275.629657 
L 111.725931 291.295629 
L 112.069334 272.199695 
L 112.260847 286.689643 
L 112.373113 286.705166 
L 112.551419 291.032124 
L 112.657081 287.257904 
L 112.789159 291.12931 
L 113.05992 248.71072 
L 113.158978 288.8454 
L 113.423134 287.116276 
L 113.621251 285.460708 
L 113.806161 268.88277 
L 113.878804 290.880927 
L 113.984466 288.528792 
L 114.10994 288.59293 
L 114.195791 289.227471 
L 114.314661 288.946908 
L 114.552402 249.368785 
L 114.849578 288.760496 
L 115.07411 283.109217 
L 115.133546 291.333779 
L 115.212792 289.11132 
L 115.397702 280.102045 
L 115.542988 289.11096 
L 115.754313 289.550897 
L 115.826956 288.806389 
L 116.322248 269.994747 
L 116.46093 275.438946 
L 116.725087 281.256986 
L 116.830749 294.974195 
L 117.061886 258.39802 
L 117.279814 263.182814 
L 117.352457 289.378015 
L 117.431704 288.97863 
L 117.517555 290.12309 
L 117.629821 281.990091 
L 117.860958 274.6397 
L 117.926997 291.892238 
L 117.99964 289.50093 
L 118.204361 272.508391 
L 118.369459 281.385111 
L 118.494933 281.810086 
L 118.653427 283.528872 
L 118.798713 279.341607 
L 118.924187 283.698038 
L 119.122304 279.571924 
L 119.247778 285.324165 
L 119.432687 283.413504 
L 119.644012 290.020891 
L 119.782694 274.25236 
L 119.881753 287.902032 
L 119.954396 287.84006 
L 120.112889 287.568099 
L 120.304403 281.434702 
L 120.634598 235.710056 
L 120.832715 290.415697 
L 120.958189 281.598646 
L 121.096871 290.920564 
L 121.34782 268.76725 
L 121.73745 290.08177 
L 121.902548 277.85636 
L 122.080853 279.491948 
L 122.371425 253.580708 
L 122.444068 290.079237 
L 122.85351 235.347935 
L 123.038419 290.113952 
L 123.229932 258.971229 
L 123.606355 290.055734 
L 123.78466 278.809059 
L 124.180895 230.695011 
L 124.339388 289.522204 
L 124.544109 284.925634 
L 124.735623 289.06337 
L 124.874305 292.000221 
L 125.197896 284.390533 
L 125.402617 266.33463 
L 125.62715 274.046729 
L 125.805455 284.414657 
L 125.963949 282.737521 
L 126.274332 263.209617 
L 126.353579 289.253283 
L 126.43943 286.093432 
L 126.71019 265.8855 
L 126.921515 290.021013 
L 127.020574 288.785879 
L 127.337561 225.773383 
L 127.482847 290.058544 
L 127.720587 269.478792 
L 127.806438 291.123379 
L 127.905497 283.973205 
L 127.984744 289.248723 
L 128.09701 287.094752 
L 128.21588 278.795624 
L 128.480036 292.085294 
L 128.79042 280.142533 
L 129.02816 261.722203 
L 129.107407 288.976862 
L 129.226278 290.45597 
L 129.312128 285.486823 
L 129.470622 288.011596 
L 130.064973 117.948259 
L 130.190448 283.895524 
L 130.289506 281.829682 
L 130.474416 285.953456 
L 130.692344 264.98649 
L 130.758383 292.189979 
L 130.963104 287.481617 
L 131.035747 292.873305 
L 131.114994 288.293964 
L 131.214053 293.880288 
L 131.332923 286.946868 
L 131.458397 286.956396 
L 131.544248 288.058353 
L 131.643307 284.034125 
L 131.71595 290.95125 
L 131.854632 277.681239 
L 132.085768 267.297351 
L 132.488606 190.237489 
L 132.726347 289.620083 
L 132.851821 278.736391 
L 133.016919 291.968875 
L 133.254659 277.850282 
L 133.347114 286.523789 
L 133.518815 283.111082 
L 133.743348 290.226855 
L 133.855615 281.747703 
L 133.921654 290.269951 
L 134.060336 283.726158 
L 134.15279 290.97639 
L 134.298076 286.190821 
L 134.397135 289.591795 
L 134.496193 285.738581 
L 134.601856 290.292706 
L 134.72733 288.166435 
L 134.899031 272.716803 
L 135.083941 291.272883 
L 135.222623 284.348955 
L 135.486779 292.063956 
L 135.651877 267.438128 
L 135.737727 287.373099 
L 136.180189 213.318805 
L 136.292455 282.307518 
L 136.41793 279.569333 
L 136.576423 291.836245 
L 136.781144 275.84731 
L 136.95945 283.56307 
L 137.025489 291.785264 
L 137.137755 282.559144 
L 137.236814 286.473486 
L 137.329268 284.329799 
L 137.487762 287.779377 
L 137.639652 279.514946 
L 137.725503 291.262609 
L 137.850977 285.000294 
L 137.983055 289.729314 
L 138.062302 288.81788 
L 138.148152 284.904409 
L 138.31325 291.231836 
L 138.405705 285.934543 
L 138.478348 290.919275 
L 138.544387 290.143516 
L 138.656653 276.763846 
L 138.795335 277.365175 
L 138.900998 284.000132 
L 139.046283 286.117179 
L 139.12553 289.611958 
L 139.297232 285.573528 
L 139.422706 287.063019 
L 139.495349 289.479062 
L 139.634031 281.921325 
L 139.85196 291.414968 
L 140.010454 289.024562 
L 140.135928 284.414229 
L 140.228382 290.115673 
L 140.479331 254.933954 
L 140.723675 288.103787 
L 140.849149 286.642366 
L 141.232176 206.5478 
L 141.311423 287.332754 
L 141.496332 290.369527 
L 141.621806 287.022634 
L 141.720865 287.402149 
L 141.786904 291.039802 
L 141.879358 287.818432 
L 142.315216 177.473307 
L 142.427483 290.524065 
L 142.513333 285.635708 
L 142.59258 290.080387 
L 142.850132 274.251974 
L 142.995418 289.222445 
L 143.153912 269.746227 
L 143.226555 290.304643 
L 143.299198 289.372893 
L 143.424672 287.704644 
L 143.82751 196.405822 
L 143.9794 290.224729 
L 144.144498 274.42654 
L 144.79168 287.445522 
L 145.121876 236.583082 
L 145.392636 290.169232 
L 145.689811 252.81963 
L 145.749246 290.543107 
L 145.841701 287.595258 
L 145.986987 274.32706 
L 146.05963 290.705119 
L 146.125669 290.401636 
L 146.244539 291.629243 
L 146.323786 289.896376 
L 146.429449 293.028323 
L 146.521903 288.117327 
L 146.60115 293.183433 
L 146.713417 285.95144 
L 146.792663 286.15078 
L 146.885118 290.628717 
L 146.957761 290.611368 
L 147.037008 289.151363 
L 147.116255 289.180187 
L 147.44645 216.046424 
L 147.512489 294.165007 
L 147.657775 282.299913 
L 147.822872 288.021754 
L 148.080425 279.676743 
L 148.265334 268.56604 
L 148.575718 279.523535 
L 148.635153 291.477829 
L 148.912517 261.468366 
L 148.978556 292.267667 
L 149.427621 255.131247 
L 149.619134 289.835687 
L 149.744609 280.973455 
L 150.206882 224.11276 
L 150.325752 287.281916 
L 150.497454 281.794016 
L 150.76161 289.454924 
L 150.847461 286.046827 
L 151.085201 291.307332 
L 151.177656 287.99571 
L 151.322942 289.138679 
L 151.527663 283.891021 
L 151.765403 248.136631 
L 151.897481 281.945681 
L 152.075787 293.511855 
L 152.155034 288.152046 
L 152.221073 291.950068 
L 152.359755 279.88507 
L 152.425794 289.62765 
L 152.564476 281.526308 
L 152.755989 284.405926 
L 152.927691 267.705402 
L 152.99373 290.467616 
L 153.099392 285.736347 
L 153.191847 289.73796 
L 153.35034 291.234083 
L 153.588081 264.952451 
L 153.700347 283.516558 
L 153.852237 276.320486 
L 153.971107 288.513578 
L 154.109789 281.444196 
L 154.162621 292.590604 
L 154.314511 283.735538 
L 154.387153 289.290288 
L 154.558855 285.508809 
L 154.677725 279.886946 
L 154.763576 287.057754 
L 154.862635 286.232157 
L 155.060752 292.496758 
L 155.232453 289.142769 
L 155.357927 282.805455 
L 155.46359 287.755008 
L 155.694727 286.106125 
L 156.097565 205.361611 
L 156.256058 287.412537 
L 156.39474 282.436763 
L 157.266456 68.421306 
L 157.345703 288.938194 
L 157.464573 288.369741 
L 157.66269 267.348809 
L 157.946658 290.921839 
L 158.025905 289.708493 
L 158.191002 274.943211 
L 158.329684 285.60872 
L 158.422139 285.088984 
L 158.580633 282.254956 
L 158.679691 291.539468 
L 158.765542 289.427129 
L 158.910828 282.654269 
L 158.990075 289.050652 
L 159.373101 242.181288 
L 159.643861 283.369135 
L 159.789147 285.062984 
L 159.993868 265.502332 
L 160.099531 288.121694 
L 160.258024 277.603473 
L 160.330667 290.521164 
L 160.429726 290.390695 
L 160.495765 291.778132 
L 160.819356 284.489712 
L 160.991058 286.235563 
L 161.202383 283.263107 
L 161.539182 286.916105 
L 161.677864 277.885036 
L 161.730695 292.235065 
L 162.034475 280.753359 
L 162.126929 287.649632 
L 162.476936 213.240002 
L 162.859963 209.972193 
L 163.064684 268.129376 
L 163.493938 288.74574 
L 163.652431 287.092816 
L 163.837341 271.781167 
L 163.962815 287.699204 
L 164.134516 288.60193 
L 164.220367 286.345914 
L 164.359049 286.234746 
L 164.484523 278.170693 
L 164.543958 290.616931 
L 164.781699 266.531684 
L 165.012836 265.720543 
L 165.428882 208.018814 
L 165.508129 288.155434 
L 165.706246 287.658811 
L 165.897759 280.43602 
L 166.208142 250.632971 
L 166.346824 287.592139 
L 166.696831 208.344821 
L 166.855325 290.784601 
L 167.112877 281.270134 
L 167.317598 288.267289 
L 167.568547 282.165583 
L 167.793079 286.914921 
L 168.096859 273.37954 
L 168.228937 277.600101 
L 168.440262 266.157087 
L 168.783665 291.385397 
L 169.11386 268.656126 
L 169.206315 287.017182 
L 169.338393 278.934422 
L 169.450659 282.633277 
L 169.681796 259.279997 
L 169.794062 284.896088 
L 169.972368 284.761547 
L 170.223316 288.309108 
L 170.593135 249.167484 
L 170.751629 291.038295 
L 170.863895 285.937821 
L 170.989369 289.24562 
L 171.114843 284.724308 
L 171.445039 255.287479 
L 171.537493 284.80221 
L 172.079013 265.5383 
L 172.250715 288.347922 
L 172.521475 272.418987 
L 172.831859 224.307881 
L 172.950729 286.191519 
L 173.109222 290.649778 
L 173.373379 231.671191 
L 173.439418 291.071518 
L 173.802632 276.411216 
L 173.921503 285.315871 
L 174.033769 277.819338 
L 174.165847 279.050911 
L 174.35736 279.658351 
L 174.581893 263.211453 
L 174.799822 260.868929 
L 174.96492 294.892909 
L 175.420589 254.132133 
L 175.499836 290.251565 
L 175.671537 272.24503 
L 175.783804 282.079696 
L 176.140415 200.84054 
L 176.246077 281.49667 
L 176.516837 263.301766 
L 176.701747 269.558546 
L 176.926279 253.862611 
L 177.005526 289.296795 
L 177.16402 284.102413 
L 177.243267 288.856091 
L 177.533838 238.257849 
L 177.804599 287.547995 
L 177.916865 279.878209 
L 178.002716 289.981562 
L 178.306495 224.901787 
L 178.418762 286.063126 
L 178.663106 236.366324 
L 178.729145 292.597169 
L 178.801788 291.579985 
L 179.138587 262.756783 
L 179.250854 285.06427 
L 179.389536 277.848856 
L 179.554633 293.520949 
L 179.686711 277.041116 
L 179.772562 289.279663 
L 180.307478 166.005117 
L 180.373517 290.551225 
L 180.743336 225.975694 
L 180.815979 288.912427 
L 180.921641 284.892864 
L 180.981077 291.920177 
L 181.080135 283.691446 
L 181.159382 288.579927 
L 181.32448 276.768144 
L 181.403726 288.292036 
L 181.799961 201.352693 
L 181.885811 287.436217 
L 182.090533 284.431674 
L 182.229215 276.537584 
L 182.612241 211.56228 
L 182.737715 276.668428 
L 182.876397 274.604331 
L 182.942436 292.582281 
L 183.094326 281.922688 
L 183.272631 291.603645 
L 183.477352 287.936517 
L 183.721697 266.574161 
L 183.827359 290.077522 
L 184.058496 277.480671 
L 184.223594 288.178693 
L 184.461334 283.551585 
L 184.533977 289.034491 
L 184.732094 286.905598 
L 184.817945 287.643311 
L 185.022666 281.744274 
L 185.399089 196.58716 
L 185.484939 286.486369 
L 185.729284 277.353644 
L 185.920797 286.328804 
L 186.072687 270.778195 
L 186.237784 269.068625 
L 186.521752 231.28496 
L 186.620811 288.864358 
L 186.726473 287.962365 
L 187.367052 172.439518 
L 187.637812 273.686068 
L 187.948196 219.963963 
L 188.298203 232.88465 
L 188.522735 291.217687 
L 188.641606 289.970399 
L 189.169918 265.250393 
L 189.235957 291.778352 
L 189.354827 279.875285 
L 189.652003 237.252947 
L 189.803893 271.201564 
L 190.101069 224.79116 
L 190.622777 291.236801 
L 190.761459 281.07313 
L 190.84731 291.862757 
L 191.098258 288.846833 
L 191.322791 241.921815 
L 191.421849 286.578487 
L 191.580343 272.475296 
L 191.646382 289.431662 
L 191.758649 288.765567 
L 191.897331 289.799554 
L 192.016201 282.297946 
L 192.075636 290.842532 
L 192.247338 271.216098 
L 192.577533 261.530231 
L 192.650176 290.444934 
L 192.782254 281.692999 
L 192.901124 286.061041 
L 193.145469 256.671169 
L 193.568118 238.400623 
L 193.733216 291.26991 
L 193.937937 274.697819 
L 194.063411 288.856672 
L 194.268132 294.032456 
L 194.334171 290.503358 
L 194.750217 225.902981 
L 194.921919 274.354346 
L 195.179471 240.637255 
L 195.351173 274.652561 
L 195.839862 183.089822 
L 196.196472 215.783135 
L 196.288927 285.198013 
L 196.460629 288.426621 
L 196.757804 240.472459 
L 196.975733 243.531098 
L 197.160642 292.475702 
L 197.44461 229.239065 
L 197.504045 292.327821 
L 197.966319 228.319337 
L 198.455008 295.488 
L 198.620105 285.261161 
L 198.890865 286.963506 
L 199.141814 275.209602 
L 199.260684 283.968238 
L 199.432386 286.52497 
L 199.610691 293.178994 
L 200.079568 177.16934 
L 200.475802 291.963421 
L 200.79279 213.358576 
L 201.222044 196.156583 
L 201.532427 218.297334 
L 201.750356 241.980395 
L 201.849415 288.618754 
L 201.922058 288.478413 
L 202.054136 270.814208 
L 202.133382 289.029922 
L 202.285272 277.5465 
L 202.740942 171.146143 
L 202.886228 287.963119 
L 203.038117 288.227753 
L 203.361709 213.822211 
L 203.705112 214.499399 
L 203.863605 288.521359 
L 204.127762 287.986171 
L 204.457957 268.983243 
L 204.523996 289.678881 
L 204.656074 291.812807 
L 205.263633 193.778112 
L 205.448542 291.982399 
L 205.534393 284.906407 
L 205.73251 249.466783 
L 205.943835 275.010288 
L 206.135349 251.271043 
L 206.901401 84.457939 
L 206.980648 287.186395 
L 207.139142 283.526893 
L 207.310844 285.217694 
L 207.469337 269.851372 
L 207.891987 209.879104 
L 208.195767 231.819047 
L 208.585397 192.982205 
L 208.737287 285.697311 
L 208.988235 234.16544 
L 209.358054 246.160292 
L 209.516548 274.685209 
L 210.110899 152.261421 
L 210.368451 286.400794 
L 210.863744 176.935669 
L 211.04205 294.671563 
L 211.484511 287.342556 
L 211.761875 274.596529 
L 212.085466 214.629953 
L 212.336415 276.891252 
L 212.679818 246.068268 
L 212.910954 285.264406 
L 213.095864 252.723762 
L 213.340208 278.007405 
L 213.670403 232.062011 
L 214.079846 209.498341 
L 214.344002 294.628394 
L 214.469476 278.867083 
L 214.819483 220.833586 
L 215.156282 289.70092 
L 215.222321 289.953866 
L 215.856296 192.011235 
L 216.001582 283.33583 
L 216.3714 275.192632 
L 216.516686 278.244751 
L 216.701596 290.698229 
L 216.899713 275.420623 
L 217.177077 225.269622 
L 217.375194 293.375026 
L 217.956337 231.68995 
L 218.29974 237.829807 
L 218.762014 230.87125 
L 218.900696 278.087151 
L 219.138436 241.262425 
L 219.382781 237.139293 
L 219.779015 219.920184 
L 219.897885 287.292975 
L 220.307327 211.645148 
L 220.571484 288.666025 
L 220.815828 237.722486 
L 221.040361 268.739393 
L 221.654524 186.763712 
L 222.024343 198.022522 
L 222.49322 287.398857 
L 222.64511 294.392951 
L 222.836623 259.772135 
L 223.028136 289.094541 
L 223.42437 193.331769 
L 223.866832 206.02989 
L 224.315897 197.901317 
L 224.454579 282.408932 
L 224.778171 254.708978 
L 225.095158 218.427873 
L 225.464977 199.661337 
L 225.735737 270.743327 
L 225.953666 289.342249 
L 226.270653 228.396143 
L 226.409335 290.884488 
L 226.706511 240.139955 
L 226.957459 258.438043 
L 227.327278 263.976732 
L 227.604642 263.937974 
L 227.776343 284.883572 
L 228.119746 206.671705 
L 228.469753 288.579121 
L 228.674474 286.611946 
L 229.070709 276.220321 
L 229.882989 191.43881 
L 230.252807 243.238773 
L 230.695269 215.793001 
L 230.880178 290.632271 
L 231.150938 235.642549 
L 231.375471 242.481593 
L 231.86416 182.410871 
L 232.055673 251.303752 
L 232.511343 217.20171 
L 232.689648 279.920022 
L 232.920785 288.18097 
L 233.25098 207.973088 
L 233.779292 203.062294 
L 234.109488 269.413984 
L 234.48591 201.333774 
L 234.571761 285.38229 
L 234.723651 281.034188 
L 234.994411 232.354146 
L 235.351022 232.834707 
L 235.555743 294.152285 
L 235.984997 209.380732 
L 236.407646 205.656105 
L 236.579348 254.957034 
L 237.933148 104.933586 
L 238.197305 257.152081 
L 238.507688 265.747262 
L 238.824675 227.215391 
L 238.903922 287.236403 
L 239.280345 265.705119 
L 239.64356 211.458331 
L 239.802053 257.948253 
L 240.092625 225.263122 
L 240.620937 229.893992 
L 240.759619 284.036543 
L 241.208685 194.373035 
L 241.69077 249.755925 
L 242.133232 183.768254 
L 242.641732 247.200017 
L 242.892681 232.6328 
L 243.097402 246.102933 
L 243.354954 280.978151 
L 244.074779 276.841209 
L 244.34554 228.765551 
L 244.70215 199.500504 
L 245.349333 191.665796 
L 245.738963 271.820183 
L 246.617283 143.014995 
L 246.855023 238.395076 
L 247.105972 232.529409 
L 247.50881 187.625004 
L 248.004103 257.401414 
L 248.28807 227.495255 
L 248.433356 271.51602 
L 248.684305 236.503013 
L 249.113559 256.063248 
L 249.291864 253.859787 
L 249.668287 213.62169 
L 249.839988 263.534267 
L 250.064521 243.182967 
L 250.236222 255.265343 
L 250.599437 198.735215 
L 251.160769 151.114796 
L 251.999465 121.093721 
L 252.21079 245.880365 
L 252.791933 147.298492 
L 253.122129 211.886956 
L 253.260811 276.657233 
L 253.591006 211.219796 
L 254.944806 56.114452 
L 255.334436 231.944279 
L 255.6118 256.581677 
L 255.889164 229.006679 
L 256.146717 233.302091 
L 256.331626 251.800318 
L 256.714653 228.568649 
L 256.952393 236.430747 
L 257.190134 251.986969 
L 257.599576 181.829508 
L 258.425064 272.574842 
L 258.973188 178.603713 
L 259.633578 189.07272 
L 260.135475 200.745028 
L 260.333592 263.008505 
L 261.258139 152.323025 
L 261.634561 227.440912 
L 261.845886 245.061332 
L 262.209101 202.788597 
L 262.552504 230.00834 
L 262.823264 229.023245 
L 263.470447 185.748837 
L 263.708187 239.960415 
L 264.216688 198.105556 
L 264.863871 172.711879 
L 265.134631 230.299842 
L 265.359163 241.749855 
L 265.636527 227.291114 
L 266.072385 247.071117 
L 266.290314 245.089205 
L 266.462015 255.490267 
L 266.884665 176.714213 
L 267.320523 172.796692 
L 267.512036 250.620808 
L 267.782796 235.349174 
L 268.046953 231.137294 
L 268.529038 188.776124 
L 269.255467 183.256522 
L 269.466792 263.671728 
L 269.929065 171.78118 
L 270.259261 222.997057 
L 270.497001 238.031856 
L 271.045125 202.200993 
L 271.890425 155.921793 
L 272.418737 292.012435 
L 272.64327 241.186047 
L 272.894218 280.826168 
L 273.33668 163.138877 
L 273.673479 205.374622 
L 274.234811 126.628299 
L 274.479155 239.958351 
L 274.789539 231.707667 
L 275.377286 165.745286 
L 275.588611 243.490987 
L 276.130132 166.878939 
L 276.460327 215.494805 
L 277.166945 142.112804 
L 277.530159 222.383603 
L 277.774504 238.290866 
L 278.091491 228.19128 
L 278.540557 174.0618 
L 279.075473 164.230224 
L 279.266986 250.651768 
L 279.874545 225.242168 
L 280.224552 217.729153 
L 280.38965 257.10251 
L 280.680222 223.97523 
L 280.904754 243.059175 
L 281.142495 239.109853 
L 281.6576 204.617164 
L 281.934964 244.771876 
L 282.423652 184.189066 
L 282.806679 194.177322 
L 283.084043 225.308057 
L 283.453862 197.455673 
L 284.015193 235.848705 
L 284.292557 242.172838 
L 284.523694 287.311063 
L 285.256727 152.877631 
L 285.501072 236.931703 
L 285.778436 227.966952 
L 286.220897 199.043376 
L 286.432222 244.242901 
L 286.960535 185.920878 
L 287.429412 207.353531 
L 287.911497 205.7159 
L 288.294523 228.818272 
L 288.816232 233.913987 
L 289.053972 239.078293 
L 289.450207 182.379515 
L 289.668136 245.626721 
L 289.853045 248.831025 
L 290.889858 53.568 
L 291.160618 228.12239 
L 291.860632 163.163696 
L 292.124788 251.470615 
L 292.547438 193.568727 
L 292.937068 199.335242 
L 293.637082 162.007259 
L 294.07294 173.84395 
L 294.389927 227.639951 
L 295.360701 65.844293 
L 295.684293 212.358797 
L 296.767333 100.598277 
L 297.262626 162.658283 
L 297.480555 244.782508 
L 297.738107 245.418936 
L 298.50416 128.337427 
L 298.715485 245.501164 
L 298.940017 242.513751 
L 299.415499 209.191697 
L 299.62022 247.649282 
L 300.617409 172.945689 
L 300.993832 195.941596 
L 301.271196 221.960525 
L 301.707053 169.693646 
L 302.20895 186.302001 
L 302.486314 226.881491 
L 303.265575 145.15384 
L 303.569354 227.710539 
L 303.998608 250.193229 
L 304.176914 250.914446 
L 304.586356 190.472325 
L 304.923155 205.94554 
L 305.273162 211.383033 
L 305.504298 239.857802 
L 305.860909 200.728698 
L 306.144877 223.709019 
L 306.560923 178.940341 
L 306.996781 169.33981 
L 307.30056 217.452502 
L 308.383601 110.011963 
L 308.634549 289.905264 
L 309.057199 184.085916 
L 309.334563 233.903061 
L 309.763817 170.867291 
L 310.014765 232.4217 
L 310.318545 215.735592 
L 310.794026 166.513563 
L 311.34215 137.41444 
L 311.546871 246.593416 
L 312.068579 225.050247 
L 312.30632 238.353615 
L 312.636515 208.392498 
L 313.045957 185.096518 
L 313.607289 121.199128 
L 314.175225 128.829339 
L 314.96109 224.232795 
L 315.509214 127.860024 
L 315.832805 211.962125 
L 316.057338 238.946497 
L 316.288474 239.159537 
L 316.85641 177.299223 
L 317.265852 182.002706 
L 317.873411 119.895553 
L 318.223418 209.860429 
L 318.804562 174.352691 
L 319.141361 208.845106 
L 319.623446 200.287576 
L 319.960245 204.939533 
L 320.508369 128.71893 
L 320.739506 241.174283 
L 321.148948 184.375102 
L 321.393292 238.056811 
L 321.967832 127.91398 
L 322.562184 100.69059 
L 322.832944 232.287739 
L 323.163139 207.626178 
L 323.526354 198.533168 
L 324.140517 109.694875 
L 324.642413 161.306791 
L 325.150914 142.22803 
L 325.349031 247.431332 
L 325.71885 203.827602 
L 325.903759 251.712124 
L 326.504714 103.75282 
L 326.940572 171.745246 
L 327.475488 124.02974 
L 327.673606 248.214962 
L 327.931158 229.016213 
L 328.518905 112.605769 
L 328.736834 242.692445 
L 329.199107 169.803491 
L 329.740628 125.972817 
L 330.255732 144.935306 
L 330.830272 107.984331 
L 331.107636 224.268461 
L 331.708591 115.687307 
L 332.335962 112.663914 
L 332.897294 133.509874 
L 333.19447 218.168958 
L 333.676555 157.129226 
L 334.15864 151.939284 
L 334.409588 233.915555 
L 334.964316 124.914186 
L 335.426589 167.111778 
L 336.040752 97.045124 
L 336.496422 166.58015 
L 336.694539 248.036455 
L 337.566254 68.229551 
L 338.173814 106.75893 
L 338.735145 126.65481 
L 339.012509 226.410413 
L 339.329497 211.767994 
L 339.94366 103.700343 
L 340.538011 107.083185 
L 340.854999 233.306048 
L 341.112551 232.340567 
L 341.680487 127.411546 
L 342.235215 135.890769 
L 342.822962 118.877895 
L 343.892795 133.293597 
L 344.434315 131.073794 
L 344.995647 117.914202 
L 345.570187 114.180724 
L 345.966421 192.773372 
L 346.527753 118.252873 
L 347.082481 135.077737 
L 347.676832 119.77635 
L 348.277787 123.663383 
L 348.858931 116.634059 
L 349.459886 113.76474 
L 350.173108 92.678663 
L 350.813687 92.952864 
L 351.454265 96.066008 
L 352.035409 114.464375 
L 352.636364 125.335959 
L 353.191092 127.537194 
L 353.752424 120.336569 
L 354.326964 107.498948 
L 354.914711 129.998093 
L 355.548686 114.508631 
L 356.103414 127.596596 
L 356.644934 127.630967 
L 357.193058 129.756081 
L 357.78741 108.156177 
L 358.104397 216.178286 
L 358.672333 118.5787 
L 359.213853 135.147515 
L 359.735562 142.070036 
L 360.389348 92.684683 
L 360.871433 154.03502 
L 361.452577 111.992898 
L 361.987493 144.934899 
L 362.694111 95.371421 
L 363.248839 123.705559 
L 363.869606 101.964722 
L 364.41773 133.782402 
L 365.005477 107.543759 
L 365.626244 104.635056 
L 366.19418 132.52877 
L 366.76872 123.888353 
L 367.31024 132.903689 
L 367.864968 122.147341 
L 368.181955 217.438895 
L 368.703664 149.839073 
L 369.2716 114.9479 
L 369.958406 100.739941 
L 370.513134 133.517309 
L 371.114089 122.129439 
L 371.774479 106.886197 
L 372.355623 110.078495 
L 372.956578 118.659213 
L 373.524514 120.979734 
L 374.184904 110.772712 
L 374.825483 93.318314 
L 375.373607 126.404457 
L 375.954751 134.277688 
L 376.621745 103.564875 
L 377.2227 125.497707 
L 377.711389 165.583816 
L 378.285929 124.098768 
L 378.893488 121.515633 
L 380.002944 137.785531 
L 380.551068 138.261732 
L 381.224667 98.296065 
L 381.766187 133.003251 
L 382.353934 114.79723 
L 382.915266 137.130151 
L 383.153007 236.511372 
L 383.740754 125.222794 
L 384.302086 120.616466 
L 384.837002 139.48103 
L 385.484185 101.085131 
L 386.124764 116.203659 
L 387.23422 134.774658 
L 387.788948 126.158755 
L 387.980461 249.952019 
L 388.647455 110.097581 
L 389.202183 137.310523 
L 389.836158 111.487763 
L 390.390886 131.040903 
L 390.991841 116.09791 
L 391.553173 130.905111 
L 392.154128 119.784044 
L 392.708856 122.662481 
L 393.283396 114.295673 
L 393.897559 94.982881 
L 394.445683 129.009128 
L 395.020223 128.565587 
L 395.634386 109.409652 
L 396.208926 118.183271 
L 396.75705 131.216484 
L 397.338193 120.882206 
L 397.919337 125.444121 
L 398.487273 119.126445 
L 398.487273 119.126445 
" clip-path="url(#pfdbe1d3f09)" style="fill: none; stroke: #1f77b4; stroke-width: 1.5; stroke-linecap: square"/>
   </g>
   <g id="patch_3">
    <path d="M 57.6 307.584 
L 57.6 41.472 
" style="fill: none; stroke: #000000; stroke-width: 0.8; stroke-linejoin: miter; stroke-linecap: square"/>
   </g>
   <g id="patch_4">
    <path d="M 414.72 307.584 
L 414.72 41.472 
" style="fill: none; stroke: #000000; stroke-width: 0.8; stroke-linejoin: miter; stroke-linecap: square"/>
   </g>
   <g id="patch_5">
    <path d="M 57.6 307.584 
L 414.72 307.584 
" style="fill: none; stroke: #000000; stroke-width: 0.8; stroke-linejoin: miter; stroke-linecap: square"/>
   </g>
   <g id="patch_6">
    <path d="M 57.6 41.472 
L 414.72 41.472 
" style="fill: none; stroke: #000000; stroke-width: 0.8; stroke-linejoin: miter; stroke-linecap: square"/>
   </g>
   <g id="text_15">
    <!-- learning curve -->
    <g transform="translate(192.96375 35.472) scale(0.12 -0.12)">
     <defs>
      <path id="DejaVuSans-6c" d="M 603 4863 
L 1178 4863 
L 1178 0 
L 603 0 
L 603 4863 
z
" transform="scale(0.015625)"/>
      <path id="DejaVuSans-6e" d="M 3513 2113 
L 3513 0 
L 2938 0 
L 2938 2094 
Q 2938 2591 2744 2837 
Q 2550 3084 2163 3084 
Q 1697 3084 1428 2787 
Q 1159 2491 1159 1978 
L 1159 0 
L 581 0 
L 581 3500 
L 1159 3500 
L 1159 2956 
Q 1366 3272 1645 3428 
Q 1925 3584 2291 3584 
Q 2894 3584 3203 3211 
Q 3513 2838 3513 2113 
z
" transform="scale(0.015625)"/>
      <path id="DejaVuSans-67" d="M 2906 1791 
Q 2906 2416 2648 2759 
Q 2391 3103 1925 3103 
Q 1463 3103 1205 2759 
Q 947 2416 947 1791 
Q 947 1169 1205 825 
Q 1463 481 1925 481 
Q 2391 481 2648 825 
Q 2906 1169 2906 1791 
z
M 3481 434 
Q 3481 -459 3084 -895 
Q 2688 -1331 1869 -1331 
Q 1566 -1331 1297 -1286 
Q 1028 -1241 775 -1147 
L 775 -588 
Q 1028 -725 1275 -790 
Q 1522 -856 1778 -856 
Q 2344 -856 2625 -561 
Q 2906 -266 2906 331 
L 2906 616 
Q 2728 306 2450 153 
Q 2172 0 1784 0 
Q 1141 0 747 490 
Q 353 981 353 1791 
Q 353 2603 747 3093 
Q 1141 3584 1784 3584 
Q 2172 3584 2450 3431 
Q 2728 3278 2906 2969 
L 2906 3500 
L 3481 3500 
L 3481 434 
z
" transform="scale(0.015625)"/>
      <path id="DejaVuSans-20" transform="scale(0.015625)"/>
      <path id="DejaVuSans-63" d="M 3122 3366 
L 3122 2828 
Q 2878 2963 2633 3030 
Q 2388 3097 2138 3097 
Q 1578 3097 1268 2742 
Q 959 2388 959 1747 
Q 959 1106 1268 751 
Q 1578 397 2138 397 
Q 2388 397 2633 464 
Q 2878 531 3122 666 
L 3122 134 
Q 2881 22 2623 -34 
Q 2366 -91 2075 -91 
Q 1284 -91 818 406 
Q 353 903 353 1747 
Q 353 2603 823 3093 
Q 1294 3584 2113 3584 
Q 2378 3584 2631 3529 
Q 2884 3475 3122 3366 
z
" transform="scale(0.015625)"/>
      <path id="DejaVuSans-75" d="M 544 1381 
L 544 3500 
L 1119 3500 
L 1119 1403 
Q 1119 906 1312 657 
Q 1506 409 1894 409 
Q 2359 409 2629 706 
Q 2900 1003 2900 1516 
L 2900 3500 
L 3475 3500 
L 3475 0 
L 2900 0 
L 2900 538 
Q 2691 219 2414 64 
Q 2138 -91 1772 -91 
Q 1169 -91 856 284 
Q 544 659 544 1381 
z
M 1991 3584 
L 1991 3584 
z
" transform="scale(0.015625)"/>
      <path id="DejaVuSans-76" d="M 191 3500 
L 800 3500 
L 1894 563 
L 2988 3500 
L 3597 3500 
L 2284 0 
L 1503 0 
L 191 3500 
z
" transform="scale(0.015625)"/>
     </defs>
     <use xlink:href="#DejaVuSans-6c"/>
     <use xlink:href="#DejaVuSans-65" x="27.783203"/>
     <use xlink:href="#DejaVuSans-61" x="89.306641"/>
     <use xlink:href="#DejaVuSans-72" x="150.585938"/>
     <use xlink:href="#DejaVuSans-6e" x="189.949219"/>
     <use xlink:href="#DejaVuSans-69" x="253.328125"/>
     <use xlink:href="#DejaVuSans-6e" x="281.111328"/>
     <use xlink:href="#DejaVuSans-67" x="344.490234"/>
     <use xlink:href="#DejaVuSans-20" x="407.966797"/>
     <use xlink:href="#DejaVuSans-63" x="439.753906"/>
     <use xlink:href="#DejaVuSans-75" x="494.734375"/>
     <use xlink:href="#DejaVuSans-72" x="558.113281"/>
     <use xlink:href="#DejaVuSans-76" x="599.226562"/>
     <use xlink:href="#DejaVuSans-65" x="658.40625"/>
    </g>
   </g>
  </g>
 </g>
 <defs>
  <clipPath id="pfdbe1d3f09">
   <rect x="57.6" y="41.472" width="357.12" height="266.112"/>
  </clipPath>
 </defs>
</svg>
