<?xml version="1.0" encoding="utf-8" standalone="no"?>
<!DOCTYPE svg PUBLIC "-//W3C//DTD SVG 1.1//EN"
  "http://www.w3.org/Graphics/SVG/1.1/DTD/svg11.dtd">
<svg xmlns:xlink="http://www.w3.org/1999/xlink" width="460.8pt" height="345.6pt" viewBox="0 0 460.8 345.6" xmlns="http://www.w3.org/2000/svg" version="1.1">
 <metadata>
  <rdf:RDF xmlns:dc="http://purl.org/dc/elements/1.1/" xmlns:cc="http://creativecommons.org/ns#" xmlns:rdf="http://www.w3.org/1999/02/22-rdf-syntax-ns#">
   <cc:Work>
    <dc:type rdf:resource="http://purl.org/dc/dcmitype/StillImage"/>
    <dc:date>2023-08-18T16:37:20.182400</dc:date>
    <dc:format>image/svg+xml</dc:format>
    <dc:creator>
     <cc:Agent>
      <dc:title>Matplotlib v3.7.1, https://matplotlib.org/</dc:title>
     </cc:Agent>
    </dc:creator>
   </cc:Work>
  </rdf:RDF>
 </metadata>
 <defs>
  <style type="text/css">*{stroke-linejoin: round; stroke-linecap: butt}</style>
 </defs>
 <g id="figure_1">
  <g id="patch_1">
   <path d="M 0 345.6 
L 460.8 345.6 
L 460.8 0 
L 0 0 
z
" style="fill: #ffffff"/>
  </g>
  <g id="axes_1">
   <g id="patch_2">
    <path d="M 57.6 307.584 
L 414.72 307.584 
L 414.72 41.472 
L 57.6 41.472 
z
" style="fill: #ffffff"/>
   </g>
   <g id="matplotlib.axis_1">
    <g id="xtick_1">
     <g id="line2d_1">
      <defs>
       <path id="me26d75a29c" d="M 0 0 
L 0 3.5 
" style="stroke: #000000; stroke-width: 0.8"/>
      </defs>
      <g>
       <use xlink:href="#me26d75a29c" x="73.773182" y="307.584" style="stroke: #000000; stroke-width: 0.8"/>
      </g>
     </g>
     <g id="text_1">
      <!-- 0 -->
      <g transform="translate(70.591932 322.182437) scale(0.1 -0.1)">
       <defs>
        <path id="DejaVuSans-30" d="M 2034 4250 
Q 1547 4250 1301 3770 
Q 1056 3291 1056 2328 
Q 1056 1369 1301 889 
Q 1547 409 2034 409 
Q 2525 409 2770 889 
Q 3016 1369 3016 2328 
Q 3016 3291 2770 3770 
Q 2525 4250 2034 4250 
z
M 2034 4750 
Q 2819 4750 3233 4129 
Q 3647 3509 3647 2328 
Q 3647 1150 3233 529 
Q 2819 -91 2034 -91 
Q 1250 -91 836 529 
Q 422 1150 422 2328 
Q 422 3509 836 4129 
Q 1250 4750 2034 4750 
z
" transform="scale(0.015625)"/>
       </defs>
       <use xlink:href="#DejaVuSans-30"/>
      </g>
     </g>
    </g>
    <g id="xtick_2">
     <g id="line2d_2">
      <g>
       <use xlink:href="#me26d75a29c" x="139.934695" y="307.584" style="stroke: #000000; stroke-width: 0.8"/>
      </g>
     </g>
     <g id="text_2">
      <!-- 10000 -->
      <g transform="translate(124.028445 322.182437) scale(0.1 -0.1)">
       <defs>
        <path id="DejaVuSans-31" d="M 794 531 
L 1825 531 
L 1825 4091 
L 703 3866 
L 703 4441 
L 1819 4666 
L 2450 4666 
L 2450 531 
L 3481 531 
L 3481 0 
L 794 0 
L 794 531 
z
" transform="scale(0.015625)"/>
       </defs>
       <use xlink:href="#DejaVuSans-31"/>
       <use xlink:href="#DejaVuSans-30" x="63.623047"/>
       <use xlink:href="#DejaVuSans-30" x="127.246094"/>
       <use xlink:href="#DejaVuSans-30" x="190.869141"/>
       <use xlink:href="#DejaVuSans-30" x="254.492188"/>
      </g>
     </g>
    </g>
    <g id="xtick_3">
     <g id="line2d_3">
      <g>
       <use xlink:href="#me26d75a29c" x="206.096208" y="307.584" style="stroke: #000000; stroke-width: 0.8"/>
      </g>
     </g>
     <g id="text_3">
      <!-- 20000 -->
      <g transform="translate(190.189958 322.182437) scale(0.1 -0.1)">
       <defs>
        <path id="DejaVuSans-32" d="M 1228 531 
L 3431 531 
L 3431 0 
L 469 0 
L 469 531 
Q 828 903 1448 1529 
Q 2069 2156 2228 2338 
Q 2531 2678 2651 2914 
Q 2772 3150 2772 3378 
Q 2772 3750 2511 3984 
Q 2250 4219 1831 4219 
Q 1534 4219 1204 4116 
Q 875 4013 500 3803 
L 500 4441 
Q 881 4594 1212 4672 
Q 1544 4750 1819 4750 
Q 2544 4750 2975 4387 
Q 3406 4025 3406 3419 
Q 3406 3131 3298 2873 
Q 3191 2616 2906 2266 
Q 2828 2175 2409 1742 
Q 1991 1309 1228 531 
z
" transform="scale(0.015625)"/>
       </defs>
       <use xlink:href="#DejaVuSans-32"/>
       <use xlink:href="#DejaVuSans-30" x="63.623047"/>
       <use xlink:href="#DejaVuSans-30" x="127.246094"/>
       <use xlink:href="#DejaVuSans-30" x="190.869141"/>
       <use xlink:href="#DejaVuSans-30" x="254.492188"/>
      </g>
     </g>
    </g>
    <g id="xtick_4">
     <g id="line2d_4">
      <g>
       <use xlink:href="#me26d75a29c" x="272.257722" y="307.584" style="stroke: #000000; stroke-width: 0.8"/>
      </g>
     </g>
     <g id="text_4">
      <!-- 30000 -->
      <g transform="translate(256.351472 322.182437) scale(0.1 -0.1)">
       <defs>
        <path id="DejaVuSans-33" d="M 2597 2516 
Q 3050 2419 3304 2112 
Q 3559 1806 3559 1356 
Q 3559 666 3084 287 
Q 2609 -91 1734 -91 
Q 1441 -91 1130 -33 
Q 819 25 488 141 
L 488 750 
Q 750 597 1062 519 
Q 1375 441 1716 441 
Q 2309 441 2620 675 
Q 2931 909 2931 1356 
Q 2931 1769 2642 2001 
Q 2353 2234 1838 2234 
L 1294 2234 
L 1294 2753 
L 1863 2753 
Q 2328 2753 2575 2939 
Q 2822 3125 2822 3475 
Q 2822 3834 2567 4026 
Q 2313 4219 1838 4219 
Q 1578 4219 1281 4162 
Q 984 4106 628 3988 
L 628 4550 
Q 988 4650 1302 4700 
Q 1616 4750 1894 4750 
Q 2613 4750 3031 4423 
Q 3450 4097 3450 3541 
Q 3450 3153 3228 2886 
Q 3006 2619 2597 2516 
z
" transform="scale(0.015625)"/>
       </defs>
       <use xlink:href="#DejaVuSans-33"/>
       <use xlink:href="#DejaVuSans-30" x="63.623047"/>
       <use xlink:href="#DejaVuSans-30" x="127.246094"/>
       <use xlink:href="#DejaVuSans-30" x="190.869141"/>
       <use xlink:href="#DejaVuSans-30" x="254.492188"/>
      </g>
     </g>
    </g>
    <g id="xtick_5">
     <g id="line2d_5">
      <g>
       <use xlink:href="#me26d75a29c" x="338.419235" y="307.584" style="stroke: #000000; stroke-width: 0.8"/>
      </g>
     </g>
     <g id="text_5">
      <!-- 40000 -->
      <g transform="translate(322.512985 322.182437) scale(0.1 -0.1)">
       <defs>
        <path id="DejaVuSans-34" d="M 2419 4116 
L 825 1625 
L 2419 1625 
L 2419 4116 
z
M 2253 4666 
L 3047 4666 
L 3047 1625 
L 3713 1625 
L 3713 1100 
L 3047 1100 
L 3047 0 
L 2419 0 
L 2419 1100 
L 313 1100 
L 313 1709 
L 2253 4666 
z
" transform="scale(0.015625)"/>
       </defs>
       <use xlink:href="#DejaVuSans-34"/>
       <use xlink:href="#DejaVuSans-30" x="63.623047"/>
       <use xlink:href="#DejaVuSans-30" x="127.246094"/>
       <use xlink:href="#DejaVuSans-30" x="190.869141"/>
       <use xlink:href="#DejaVuSans-30" x="254.492188"/>
      </g>
     </g>
    </g>
    <g id="xtick_6">
     <g id="line2d_6">
      <g>
       <use xlink:href="#me26d75a29c" x="404.580748" y="307.584" style="stroke: #000000; stroke-width: 0.8"/>
      </g>
     </g>
     <g id="text_6">
      <!-- 50000 -->
      <g transform="translate(388.674498 322.182437) scale(0.1 -0.1)">
       <defs>
        <path id="DejaVuSans-35" d="M 691 4666 
L 3169 4666 
L 3169 4134 
L 1269 4134 
L 1269 2991 
Q 1406 3038 1543 3061 
Q 1681 3084 1819 3084 
Q 2600 3084 3056 2656 
Q 3513 2228 3513 1497 
Q 3513 744 3044 326 
Q 2575 -91 1722 -91 
Q 1428 -91 1123 -41 
Q 819 9 494 109 
L 494 744 
Q 775 591 1075 516 
Q 1375 441 1709 441 
Q 2250 441 2565 725 
Q 2881 1009 2881 1497 
Q 2881 1984 2565 2268 
Q 2250 2553 1709 2553 
Q 1456 2553 1204 2497 
Q 953 2441 691 2322 
L 691 4666 
z
" transform="scale(0.015625)"/>
       </defs>
       <use xlink:href="#DejaVuSans-35"/>
       <use xlink:href="#DejaVuSans-30" x="63.623047"/>
       <use xlink:href="#DejaVuSans-30" x="127.246094"/>
       <use xlink:href="#DejaVuSans-30" x="190.869141"/>
       <use xlink:href="#DejaVuSans-30" x="254.492188"/>
      </g>
     </g>
    </g>
    <g id="text_7">
     <!-- timesteps -->
     <g transform="translate(211.443594 335.860562) scale(0.1 -0.1)">
      <defs>
       <path id="DejaVuSans-74" d="M 1172 4494 
L 1172 3500 
L 2356 3500 
L 2356 3053 
L 1172 3053 
L 1172 1153 
Q 1172 725 1289 603 
Q 1406 481 1766 481 
L 2356 481 
L 2356 0 
L 1766 0 
Q 1100 0 847 248 
Q 594 497 594 1153 
L 594 3053 
L 172 3053 
L 172 3500 
L 594 3500 
L 594 4494 
L 1172 4494 
z
" transform="scale(0.015625)"/>
       <path id="DejaVuSans-69" d="M 603 3500 
L 1178 3500 
L 1178 0 
L 603 0 
L 603 3500 
z
M 603 4863 
L 1178 4863 
L 1178 4134 
L 603 4134 
L 603 4863 
z
" transform="scale(0.015625)"/>
       <path id="DejaVuSans-6d" d="M 3328 2828 
Q 3544 3216 3844 3400 
Q 4144 3584 4550 3584 
Q 5097 3584 5394 3201 
Q 5691 2819 5691 2113 
L 5691 0 
L 5113 0 
L 5113 2094 
Q 5113 2597 4934 2840 
Q 4756 3084 4391 3084 
Q 3944 3084 3684 2787 
Q 3425 2491 3425 1978 
L 3425 0 
L 2847 0 
L 2847 2094 
Q 2847 2600 2669 2842 
Q 2491 3084 2119 3084 
Q 1678 3084 1418 2786 
Q 1159 2488 1159 1978 
L 1159 0 
L 581 0 
L 581 3500 
L 1159 3500 
L 1159 2956 
Q 1356 3278 1631 3431 
Q 1906 3584 2284 3584 
Q 2666 3584 2933 3390 
Q 3200 3197 3328 2828 
z
" transform="scale(0.015625)"/>
       <path id="DejaVuSans-65" d="M 3597 1894 
L 3597 1613 
L 953 1613 
Q 991 1019 1311 708 
Q 1631 397 2203 397 
Q 2534 397 2845 478 
Q 3156 559 3463 722 
L 3463 178 
Q 3153 47 2828 -22 
Q 2503 -91 2169 -91 
Q 1331 -91 842 396 
Q 353 884 353 1716 
Q 353 2575 817 3079 
Q 1281 3584 2069 3584 
Q 2775 3584 3186 3129 
Q 3597 2675 3597 1894 
z
M 3022 2063 
Q 3016 2534 2758 2815 
Q 2500 3097 2075 3097 
Q 1594 3097 1305 2825 
Q 1016 2553 972 2059 
L 3022 2063 
z
" transform="scale(0.015625)"/>
       <path id="DejaVuSans-73" d="M 2834 3397 
L 2834 2853 
Q 2591 2978 2328 3040 
Q 2066 3103 1784 3103 
Q 1356 3103 1142 2972 
Q 928 2841 928 2578 
Q 928 2378 1081 2264 
Q 1234 2150 1697 2047 
L 1894 2003 
Q 2506 1872 2764 1633 
Q 3022 1394 3022 966 
Q 3022 478 2636 193 
Q 2250 -91 1575 -91 
Q 1294 -91 989 -36 
Q 684 19 347 128 
L 347 722 
Q 666 556 975 473 
Q 1284 391 1588 391 
Q 1994 391 2212 530 
Q 2431 669 2431 922 
Q 2431 1156 2273 1281 
Q 2116 1406 1581 1522 
L 1381 1569 
Q 847 1681 609 1914 
Q 372 2147 372 2553 
Q 372 3047 722 3315 
Q 1072 3584 1716 3584 
Q 2034 3584 2315 3537 
Q 2597 3491 2834 3397 
z
" transform="scale(0.015625)"/>
       <path id="DejaVuSans-70" d="M 1159 525 
L 1159 -1331 
L 581 -1331 
L 581 3500 
L 1159 3500 
L 1159 2969 
Q 1341 3281 1617 3432 
Q 1894 3584 2278 3584 
Q 2916 3584 3314 3078 
Q 3713 2572 3713 1747 
Q 3713 922 3314 415 
Q 2916 -91 2278 -91 
Q 1894 -91 1617 61 
Q 1341 213 1159 525 
z
M 3116 1747 
Q 3116 2381 2855 2742 
Q 2594 3103 2138 3103 
Q 1681 3103 1420 2742 
Q 1159 2381 1159 1747 
Q 1159 1113 1420 752 
Q 1681 391 2138 391 
Q 2594 391 2855 752 
Q 3116 1113 3116 1747 
z
" transform="scale(0.015625)"/>
      </defs>
      <use xlink:href="#DejaVuSans-74"/>
      <use xlink:href="#DejaVuSans-69" x="39.208984"/>
      <use xlink:href="#DejaVuSans-6d" x="66.992188"/>
      <use xlink:href="#DejaVuSans-65" x="164.404297"/>
      <use xlink:href="#DejaVuSans-73" x="225.927734"/>
      <use xlink:href="#DejaVuSans-74" x="278.027344"/>
      <use xlink:href="#DejaVuSans-65" x="317.236328"/>
      <use xlink:href="#DejaVuSans-70" x="378.759766"/>
      <use xlink:href="#DejaVuSans-73" x="442.236328"/>
     </g>
    </g>
   </g>
   <g id="matplotlib.axis_2">
    <g id="ytick_1">
     <g id="line2d_7">
      <defs>
       <path id="m4d12826fa6" d="M 0 0 
L -3.5 0 
" style="stroke: #000000; stroke-width: 0.8"/>
      </defs>
      <g>
       <use xlink:href="#m4d12826fa6" x="57.6" y="297.360233" style="stroke: #000000; stroke-width: 0.8"/>
      </g>
     </g>
     <g id="text_8">
      <!-- 0 -->
      <g transform="translate(44.2375 301.159452) scale(0.1 -0.1)">
       <use xlink:href="#DejaVuSans-30"/>
      </g>
     </g>
    </g>
    <g id="ytick_2">
     <g id="line2d_8">
      <g>
       <use xlink:href="#m4d12826fa6" x="57.6" y="256.698739" style="stroke: #000000; stroke-width: 0.8"/>
      </g>
     </g>
     <g id="text_9">
      <!-- 50 -->
      <g transform="translate(37.875 260.497958) scale(0.1 -0.1)">
       <use xlink:href="#DejaVuSans-35"/>
       <use xlink:href="#DejaVuSans-30" x="63.623047"/>
      </g>
     </g>
    </g>
    <g id="ytick_3">
     <g id="line2d_9">
      <g>
       <use xlink:href="#m4d12826fa6" x="57.6" y="216.037245" style="stroke: #000000; stroke-width: 0.8"/>
      </g>
     </g>
     <g id="text_10">
      <!-- 100 -->
      <g transform="translate(31.5125 219.836464) scale(0.1 -0.1)">
       <use xlink:href="#DejaVuSans-31"/>
       <use xlink:href="#DejaVuSans-30" x="63.623047"/>
       <use xlink:href="#DejaVuSans-30" x="127.246094"/>
      </g>
     </g>
    </g>
    <g id="ytick_4">
     <g id="line2d_10">
      <g>
       <use xlink:href="#m4d12826fa6" x="57.6" y="175.375751" style="stroke: #000000; stroke-width: 0.8"/>
      </g>
     </g>
     <g id="text_11">
      <!-- 150 -->
      <g transform="translate(31.5125 179.17497) scale(0.1 -0.1)">
       <use xlink:href="#DejaVuSans-31"/>
       <use xlink:href="#DejaVuSans-35" x="63.623047"/>
       <use xlink:href="#DejaVuSans-30" x="127.246094"/>
      </g>
     </g>
    </g>
    <g id="ytick_5">
     <g id="line2d_11">
      <g>
       <use xlink:href="#m4d12826fa6" x="57.6" y="134.714257" style="stroke: #000000; stroke-width: 0.8"/>
      </g>
     </g>
     <g id="text_12">
      <!-- 200 -->
      <g transform="translate(31.5125 138.513476) scale(0.1 -0.1)">
       <use xlink:href="#DejaVuSans-32"/>
       <use xlink:href="#DejaVuSans-30" x="63.623047"/>
       <use xlink:href="#DejaVuSans-30" x="127.246094"/>
      </g>
     </g>
    </g>
    <g id="ytick_6">
     <g id="line2d_12">
      <g>
       <use xlink:href="#m4d12826fa6" x="57.6" y="94.052763" style="stroke: #000000; stroke-width: 0.8"/>
      </g>
     </g>
     <g id="text_13">
      <!-- 250 -->
      <g transform="translate(31.5125 97.851982) scale(0.1 -0.1)">
       <use xlink:href="#DejaVuSans-32"/>
       <use xlink:href="#DejaVuSans-35" x="63.623047"/>
       <use xlink:href="#DejaVuSans-30" x="127.246094"/>
      </g>
     </g>
    </g>
    <g id="ytick_7">
     <g id="line2d_13">
      <g>
       <use xlink:href="#m4d12826fa6" x="57.6" y="53.391269" style="stroke: #000000; stroke-width: 0.8"/>
      </g>
     </g>
     <g id="text_14">
      <!-- 300 -->
      <g transform="translate(31.5125 57.190488) scale(0.1 -0.1)">
       <use xlink:href="#DejaVuSans-33"/>
       <use xlink:href="#DejaVuSans-30" x="63.623047"/>
       <use xlink:href="#DejaVuSans-30" x="127.246094"/>
      </g>
     </g>
    </g>
    <g id="text_15">
     <!-- rewards -->
     <g transform="translate(25.432812 194.447531) rotate(-90) scale(0.1 -0.1)">
      <defs>
       <path id="DejaVuSans-72" d="M 2631 2963 
Q 2534 3019 2420 3045 
Q 2306 3072 2169 3072 
Q 1681 3072 1420 2755 
Q 1159 2438 1159 1844 
L 1159 0 
L 581 0 
L 581 3500 
L 1159 3500 
L 1159 2956 
Q 1341 3275 1631 3429 
Q 1922 3584 2338 3584 
Q 2397 3584 2469 3576 
Q 2541 3569 2628 3553 
L 2631 2963 
z
" transform="scale(0.015625)"/>
       <path id="DejaVuSans-77" d="M 269 3500 
L 844 3500 
L 1563 769 
L 2278 3500 
L 2956 3500 
L 3675 769 
L 4391 3500 
L 4966 3500 
L 4050 0 
L 3372 0 
L 2619 2869 
L 1863 0 
L 1184 0 
L 269 3500 
z
" transform="scale(0.015625)"/>
       <path id="DejaVuSans-61" d="M 2194 1759 
Q 1497 1759 1228 1600 
Q 959 1441 959 1056 
Q 959 750 1161 570 
Q 1363 391 1709 391 
Q 2188 391 2477 730 
Q 2766 1069 2766 1631 
L 2766 1759 
L 2194 1759 
z
M 3341 1997 
L 3341 0 
L 2766 0 
L 2766 531 
Q 2569 213 2275 61 
Q 1981 -91 1556 -91 
Q 1019 -91 701 211 
Q 384 513 384 1019 
Q 384 1609 779 1909 
Q 1175 2209 1959 2209 
L 2766 2209 
L 2766 2266 
Q 2766 2663 2505 2880 
Q 2244 3097 1772 3097 
Q 1472 3097 1187 3025 
Q 903 2953 641 2809 
L 641 3341 
Q 956 3463 1253 3523 
Q 1550 3584 1831 3584 
Q 2591 3584 2966 3190 
Q 3341 2797 3341 1997 
z
" transform="scale(0.015625)"/>
       <path id="DejaVuSans-64" d="M 2906 2969 
L 2906 4863 
L 3481 4863 
L 3481 0 
L 2906 0 
L 2906 525 
Q 2725 213 2448 61 
Q 2172 -91 1784 -91 
Q 1150 -91 751 415 
Q 353 922 353 1747 
Q 353 2572 751 3078 
Q 1150 3584 1784 3584 
Q 2172 3584 2448 3432 
Q 2725 3281 2906 2969 
z
M 947 1747 
Q 947 1113 1208 752 
Q 1469 391 1925 391 
Q 2381 391 2643 752 
Q 2906 1113 2906 1747 
Q 2906 2381 2643 2742 
Q 2381 3103 1925 3103 
Q 1469 3103 1208 2742 
Q 947 2381 947 1747 
z
" transform="scale(0.015625)"/>
      </defs>
      <use xlink:href="#DejaVuSans-72"/>
      <use xlink:href="#DejaVuSans-65" x="38.863281"/>
      <use xlink:href="#DejaVuSans-77" x="100.386719"/>
      <use xlink:href="#DejaVuSans-61" x="182.173828"/>
      <use xlink:href="#DejaVuSans-72" x="243.453125"/>
      <use xlink:href="#DejaVuSans-64" x="282.816406"/>
      <use xlink:href="#DejaVuSans-73" x="346.292969"/>
     </g>
    </g>
   </g>
   <g id="line2d_14">
    <path d="M 73.832727 292.371221 
L 73.898889 293.796662 
L 74.302474 281.809648 
L 74.421565 286.644961 
L 74.540655 283.080995 
L 74.778837 288.615677 
L 74.91116 283.229523 
L 75.050099 283.744775 
L 75.129493 294.8823 
L 75.387523 288.988883 
L 75.466917 290.545667 
L 75.54631 290.153977 
L 75.731563 274.446284 
L 75.923431 275.454264 
L 76.115299 266.158468 
L 76.194693 289.788743 
L 76.399794 283.65003 
L 76.499036 285.43354 
L 76.57843 290.640302 
L 76.803379 271.386899 
L 77.00848 291.728403 
L 77.120954 284.611458 
L 77.378984 276.590512 
L 77.590701 291.641476 
L 77.723024 287.49471 
L 77.928125 287.496872 
L 77.98767 292.47246 
L 78.093529 289.349033 
L 78.179539 290.884922 
L 78.285397 287.697676 
L 78.364791 290.406088 
L 78.702215 241.969845 
L 78.861002 280.843151 
L 78.999941 276.785242 
L 79.165345 291.378077 
L 79.244739 290.462041 
L 79.436607 292.169704 
L 79.555698 292.077597 
L 79.760799 282.545878 
L 80.038677 288.639485 
L 80.283475 256.559118 
L 80.481959 265.817654 
L 80.581202 290.692431 
L 80.726757 278.30556 
L 80.885545 283.233217 
L 81.084029 284.397134 
L 81.176655 286.671841 
L 81.335443 276.333251 
L 81.567008 292.949116 
L 81.739028 293.573725 
L 81.963977 291.372399 
L 82.023523 291.747636 
L 82.142613 293.830818 
L 82.195543 293.352167 
L 82.261704 292.127828 
L 82.394027 280.220204 
L 82.790996 230.560311 
L 83.115188 287.1444 
L 83.21443 289.134249 
L 83.419531 277.299872 
L 83.518773 286.406509 
L 83.624631 286.328747 
L 83.704025 291.414554 
L 83.809883 284.296933 
L 83.962055 291.814411 
L 84.246549 283.469975 
L 84.398721 291.27293 
L 84.557509 289.519879 
L 84.696448 281.891278 
L 84.828771 282.844649 
L 85.119881 276.018382 
L 85.199275 290.585684 
L 85.298518 286.145033 
L 85.735184 187.034239 
L 85.893971 288.868566 
L 86.284324 249.908327 
L 86.621748 282.83694 
L 86.820232 291.887464 
L 86.912858 289.157593 
L 87.131191 274.070031 
L 87.296595 288.664949 
L 87.554625 271.756461 
L 87.95821 290.369858 
L 88.04422 289.834526 
L 88.30225 265.61288 
L 88.368412 291.326844 
L 88.599977 265.343121 
L 88.692603 287.681143 
L 88.924168 268.893983 
L 89.155734 289.522359 
L 89.288057 288.928903 
L 89.572551 238.235253 
L 89.67841 284.633894 
L 89.830581 289.832647 
L 90.194469 265.171169 
L 90.39957 288.203823 
L 90.48558 288.338314 
L 90.803155 292.277959 
L 90.91563 290.285099 
L 90.981792 291.410646 
L 91.074418 289.074299 
L 91.325831 290.996592 
L 91.425074 290.866442 
L 91.511084 291.594497 
L 91.630174 288.878541 
L 91.696336 292.221606 
L 92.126386 216.261921 
L 92.311638 284.949802 
L 92.443961 287.262471 
L 92.543203 286.694655 
L 92.715223 283.213403 
L 92.913708 292.464509 
L 92.993102 290.821775 
L 93.072495 290.403776 
L 93.251131 286.127842 
L 93.343758 291.355309 
L 93.429767 291.227796 
L 93.595171 277.692949 
L 93.687797 289.356906 
L 94.011989 235.657791 
L 94.197241 290.404359 
L 94.270019 291.687369 
L 94.369261 291.34126 
L 94.580978 275.416202 
L 94.726533 281.920054 
L 94.819159 292.004849 
L 95.037492 274.344344 
L 95.189664 289.754858 
L 95.546936 266.473394 
L 95.679259 288.931228 
L 95.871127 270.664715 
L 96.135773 289.740796 
L 96.26148 280.136656 
L 96.360723 286.250811 
L 96.486429 283.652087 
L 96.651833 291.751872 
L 96.77754 292.161052 
L 96.916479 281.437309 
L 97.015722 287.126784 
L 97.181125 279.088803 
L 97.518549 291.194574 
L 97.611175 288.01152 
L 97.677337 292.002662 
L 97.948599 280.63332 
L 98.27279 290.810926 
L 98.378649 286.010487 
L 98.438194 293.144741 
L 98.596982 283.278277 
L 98.669759 290.649884 
L 98.782234 283.811938 
L 98.868244 291.428418 
L 99.033648 275.372555 
L 99.126274 290.273817 
L 99.205668 290.161316 
L 99.278445 291.522017 
L 99.397536 285.660243 
L 99.543091 290.918837 
L 99.662182 287.867264 
L 99.834202 280.318317 
L 100.098848 259.302592 
L 100.376726 289.80242 
L 100.561979 269.377983 
L 100.820009 287.930038 
L 100.945715 285.98284 
L 101.011877 291.430186 
L 101.223594 290.759199 
L 101.382381 273.965617 
L 101.521321 292.63586 
L 101.95137 258.898798 
L 102.09031 291.338503 
L 102.255713 276.1037 
L 102.335107 290.032207 
L 102.421117 289.519729 
L 102.520359 289.329446 
L 102.652682 282.129012 
L 102.864399 287.407089 
L 102.957025 286.711045 
L 103.201823 269.332703 
L 103.267985 293.204733 
L 103.373843 285.895194 
L 103.559095 289.790246 
L 103.731115 289.784963 
L 103.810509 291.391934 
L 103.903135 287.008776 
L 103.975913 291.777144 
L 104.075155 290.548742 
L 104.167781 293.081375 
L 104.750002 255.842143 
L 104.842629 294.134499 
L 104.90879 291.806579 
L 105.08081 288.075087 
L 105.173436 288.081485 
L 105.246214 290.627159 
L 105.371921 284.089405 
L 105.590254 291.885545 
L 105.676264 291.722271 
L 105.755657 289.167718 
L 105.967374 267.883784 
L 106.126162 292.138619 
L 106.238636 291.452139 
L 106.443737 270.115379 
L 106.516515 290.549575 
L 106.688535 283.605777 
L 106.853939 292.950818 
L 106.939948 292.44979 
L 107.330301 208.23086 
L 107.389847 293.310155 
L 107.489089 288.53842 
L 107.628028 281.794688 
L 107.819897 293.710314 
L 108.091159 284.99235 
L 108.203633 290.477602 
L 108.32934 280.621659 
L 108.494744 284.026091 
L 108.627067 279.35324 
L 108.726309 292.378129 
L 108.8454 286.77994 
L 109.024036 291.308333 
L 109.387924 223.910693 
L 109.579793 291.285233 
L 109.725348 285.623714 
L 110.016459 289.128583 
L 110.115701 285.971291 
L 110.25464 286.507202 
L 110.353883 285.019018 
L 110.466357 287.840521 
L 110.618529 275.310854 
L 110.697922 289.897847 
L 110.803781 289.654642 
L 110.883175 290.741389 
L 111.134588 278.781653 
L 111.213982 293.86835 
L 111.37277 278.328594 
L 111.591103 291.592528 
L 111.743274 287.306438 
L 111.809436 292.516276 
L 111.868981 291.715708 
L 112.127011 282.356642 
L 112.206405 289.211385 
L 112.325496 285.546116 
L 112.828323 255.959091 
L 113.020192 268.058321 
L 113.112818 290.47054 
L 113.238525 280.87573 
L 113.331151 287.456435 
L 113.509787 291.49428 
L 113.781049 278.651042 
L 113.867059 289.202984 
L 113.98615 286.463469 
L 114.058927 289.950673 
L 114.197866 280.948498 
L 114.264028 290.691832 
L 114.475745 286.827594 
L 114.654381 268.373523 
L 114.892562 292.224007 
L 115.057966 288.695449 
L 115.249835 291.52526 
L 115.349077 288.020347 
L 115.554178 271.791943 
L 115.706349 289.639549 
L 115.878369 272.740463 
L 115.957763 289.781789 
L 116.096702 280.798297 
L 116.156247 292.775351 
L 116.242257 289.417766 
L 116.348116 292.263455 
L 116.573065 281.37623 
L 116.771549 288.62984 
L 116.89064 283.097876 
L 117.022963 287.97272 
L 117.128822 287.418307 
L 117.241296 290.966459 
L 117.479478 285.275409 
L 117.638265 287.031319 
L 117.697811 292.13888 
L 117.83675 283.803849 
L 117.92276 289.934342 
L 118.048467 284.592536 
L 118.134477 290.961127 
L 118.2668 288.461735 
L 118.35281 289.985308 
L 118.438819 289.322763 
L 118.723314 266.03888 
L 118.90195 293.520601 
L 118.981344 289.678324 
L 119.206293 283.836573 
L 119.365081 289.182869 
L 119.510636 279.501959 
L 119.715737 290.043751 
L 119.861292 281.70829 
L 120.073009 279.862077 
L 120.22518 273.680758 
L 120.324423 289.325406 
L 120.450129 288.990989 
L 120.536139 291.577405 
L 120.747856 270.997112 
L 120.853715 289.831063 
L 120.966189 288.294367 
L 121.111745 283.290759 
L 121.442552 226.289821 
L 121.548411 286.108887 
L 121.674117 280.792826 
L 121.766744 288.255956 
L 121.885834 285.31532 
L 122.415126 254.488571 
L 122.75255 288.284669 
L 122.851792 288.085308 
L 123.195832 244.111087 
L 123.261994 290.731772 
L 123.35462 288.71058 
L 123.44063 287.344853 
L 123.692044 263.050767 
L 123.930225 290.763174 
L 124.062548 281.620738 
L 124.201487 282.406038 
L 124.280881 290.111589 
L 124.380123 289.305641 
L 124.638153 260.605829 
L 124.710931 291.048392 
L 124.889567 267.87313 
L 124.988809 287.821388 
L 125.081435 286.114954 
L 125.326233 281.952003 
L 125.412243 288.413684 
L 125.577647 288.252868 
L 125.696737 287.746659 
L 125.769515 290.493961 
L 126.027545 284.402805 
L 126.31204 250.928483 
L 126.470827 292.888186 
L 126.821483 278.289688 
L 127.046432 291.081793 
L 127.132442 289.559624 
L 127.337543 279.988555 
L 127.430169 291.237059 
L 127.516179 289.703247 
L 127.595573 288.655006 
L 127.668351 292.020466 
L 127.860219 265.940886 
L 128.177794 285.568837 
L 128.35643 286.666962 
L 128.501986 292.041484 
L 128.760016 278.453572 
L 128.965116 287.99078 
L 129.104055 289.719811 
L 129.269459 288.167775 
L 129.56057 271.881422 
L 129.765671 273.057358 
L 129.950923 290.534038 
L 130.0237 291.868146 
L 130.096478 291.850678 
L 130.228801 282.720128 
L 130.486831 285.832642 
L 130.685316 281.184752 
L 130.771326 289.976579 
L 130.863952 289.049545 
L 131.207992 233.651487 
L 131.353547 286.789575 
L 131.57188 278.147115 
L 131.690971 291.315707 
L 131.796829 286.511947 
L 132.127637 291.248736 
L 132.352586 285.06071 
L 132.418747 292.671419 
L 132.491525 291.636793 
L 132.610616 284.155503 
L 132.802484 286.117581 
L 133.040665 272.258708 
L 133.106827 290.993554 
L 133.225918 288.89201 
L 133.305312 289.644884 
L 133.490564 282.502499 
L 133.576574 291.644104 
L 133.973543 280.905278 
L 134.039704 292.23903 
L 134.224957 287.533889 
L 134.370512 288.726358 
L 134.489603 288.348531 
L 134.780713 277.333757 
L 134.893188 284.390022 
L 135.177682 274.35618 
L 135.243844 290.689692 
L 135.455561 262.819859 
L 135.568035 291.615283 
L 135.647429 288.96155 
L 135.726823 289.659669 
L 135.85253 288.123695 
L 135.978237 285.036105 
L 136.183337 285.801804 
L 136.375206 271.053228 
L 136.547226 291.299624 
L 136.679549 280.240648 
L 136.884649 275.551639 
L 137.036821 279.162265 
L 137.17576 292.667303 
L 137.255154 289.603257 
L 137.619042 283.990959 
L 137.718284 291.393576 
L 137.883688 280.929457 
L 137.976314 290.500385 
L 138.12187 293.662235 
L 138.214496 288.457273 
L 138.419596 264.515157 
L 138.684243 289.947175 
L 138.876111 283.363775 
L 139.028282 284.060932 
L 139.10106 290.134775 
L 139.27308 272.876638 
L 139.372322 288.193422 
L 139.53111 278.221685 
L 139.676665 281.615347 
L 139.848685 275.980277 
L 140.086867 289.757169 
L 140.232422 282.042035 
L 140.404442 285.455808 
L 140.47722 293.094166 
L 140.761714 253.166595 
L 140.821259 292.849485 
L 140.927118 286.549483 
L 141.013128 289.515179 
L 141.132219 287.942885 
L 141.211612 288.933768 
L 141.297622 291.679521 
L 141.383632 287.824365 
L 141.555652 288.96726 
L 141.615198 293.191698 
L 141.879844 284.377049 
L 141.946005 290.335542 
L 142.05848 288.475581 
L 142.170954 284.350027 
L 142.34959 283.547874 
L 142.448833 293.100571 
L 142.534843 286.93487 
L 142.660549 288.2511 
L 142.997973 249.971715 
L 143.117064 284.099748 
L 143.401558 260.148222 
L 143.494185 288.740211 
L 143.738982 266.424156 
L 143.924234 291.126817 
L 144.122719 281.484084 
L 144.32782 279.15197 
L 144.493223 285.228337 
L 144.645395 278.645641 
L 144.817415 277.237922 
L 145.101909 288.786348 
L 145.187919 291.09565 
L 145.518727 265.930092 
L 145.631201 292.204806 
L 145.783373 276.485913 
L 145.849534 290.737602 
L 146.014938 285.542451 
L 146.147261 293.123535 
L 146.623624 233.861183 
L 146.703018 291.553048 
L 146.782412 290.664152 
L 146.980896 280.252404 
L 147.179381 294.103063 
L 147.298472 287.867412 
L 147.477108 292.728856 
L 147.569734 287.254558 
L 147.754986 291.67643 
L 147.913774 289.098011 
L 148.158571 276.389566 
L 148.317359 277.134047 
L 148.535692 294.96226 
L 148.701096 278.765609 
L 148.81357 285.949593 
L 148.998822 273.416561 
L 149.064984 290.960668 
L 149.197307 283.793721 
L 149.461953 261.683312 
L 149.84569 275.936425 
L 149.958164 287.685885 
L 150.110336 278.095464 
L 150.18973 293.363647 
L 150.30882 284.525734 
L 150.408063 290.862369 
L 150.520537 287.554971 
L 150.65286 289.112182 
L 150.791799 279.176163 
L 151.202001 289.369116 
L 151.288011 289.667792 
L 151.407102 291.149963 
L 151.539425 285.054503 
L 151.718061 294.273153 
L 151.857 282.521695 
L 151.916545 291.972 
L 152.055484 277.586809 
L 152.14811 288.362118 
L 152.392908 284.329243 
L 152.465686 292.939789 
L 152.723716 281.130214 
L 152.789877 290.841044 
L 152.968513 274.955568 
L 153.080988 283.995773 
L 153.286089 285.159589 
L 153.530886 266.696614 
L 153.623512 290.990362 
L 153.702906 289.760989 
L 153.828613 287.824644 
L 153.947704 289.364268 
L 154.086643 285.07582 
L 154.21235 290.748097 
L 154.311592 289.024758 
L 154.38437 290.816815 
L 154.496844 283.934703 
L 154.662248 284.356362 
L 154.72841 293.366488 
L 154.986439 280.323231 
L 155.350328 220.101732 
L 155.436338 290.875329 
L 155.568661 289.136641 
L 155.820074 287.831181 
L 156.031791 262.049961 
L 156.13765 287.180832 
L 156.283205 285.472186 
L 156.42876 286.455617 
L 156.541235 291.015184 
L 156.700023 285.766836 
L 156.832346 290.31804 
L 156.924972 288.873972 
L 157.275628 262.848052 
L 157.493961 288.147815 
L 157.613051 289.426721 
L 157.738758 280.245882 
L 157.864465 282.298899 
L 157.963708 286.318363 
L 158.830423 80.729821 
L 159.04214 288.585524 
L 159.154615 293.096542 
L 159.353099 288.330749 
L 159.498655 289.806352 
L 159.604513 284.91243 
L 159.750068 286.827794 
L 159.889008 282.966496 
L 160.07426 273.84215 
L 160.199967 288.184849 
L 160.371987 277.395642 
L 160.45138 291.590512 
L 160.544007 290.549264 
L 160.689562 289.704836 
L 160.815269 287.547756 
L 161.106379 278.165687 
L 161.496732 292.753035 
L 161.721681 289.611812 
L 161.887085 276.616837 
L 161.986328 287.672787 
L 162.317135 228.428771 
L 162.588397 255.203833 
L 162.707488 288.510872 
L 162.919205 270.60349 
L 163.051528 281.897164 
L 163.355871 257.94182 
L 163.567588 271.437941 
L 164.077031 287.675108 
L 164.196122 284.934901 
L 164.335061 285.241549 
L 164.487233 282.534235 
L 164.705566 271.948721 
L 165.056222 292.333474 
L 165.314252 284.684205 
L 165.519352 280.655217 
L 166.167735 208.97754 
L 166.505159 227.371661 
L 166.769805 291.613704 
L 166.895512 284.855659 
L 167.021219 291.541085 
L 167.153542 290.430068 
L 167.2594 287.259296 
L 167.358642 291.970982 
L 167.451269 289.71168 
L 167.656369 275.634888 
L 167.881318 288.286465 
L 168.093035 280.031763 
L 168.231974 279.869871 
L 168.46354 265.236834 
L 168.681873 286.340846 
L 169.317023 206.950503 
L 169.568437 287.057369 
L 169.905861 229.687618 
L 170.018335 288.555898 
L 170.183739 285.834199 
L 170.534395 265.704162 
L 170.640253 287.86461 
L 170.885051 249.227379 
L 171.202626 252.951461 
L 171.348182 287.978431 
L 171.533434 283.644983 
L 171.705454 269.228286 
L 171.764999 292.755221 
L 171.857625 287.071364 
L 172.095807 279.566782 
L 172.320756 248.762502 
L 172.532473 277.04149 
L 172.77727 254.908194 
L 172.942674 292.27105 
L 173.114694 281.573617 
L 173.286714 284.956864 
L 173.478582 271.835397 
L 173.868935 255.510846 
L 174.014491 286.661334 
L 174.219591 282.342862 
L 174.279137 291.59962 
L 174.424692 292.804493 
L 174.537167 282.21641 
L 174.729035 284.567059 
L 174.861358 280.304993 
L 174.914287 292.44891 
L 174.993681 290.165026 
L 175.165701 290.419403 
L 175.344337 294.519354 
L 175.635448 284.194437 
L 175.847165 252.250752 
L 175.926558 289.54685 
L 176.270598 264.978788 
L 176.449234 271.674612 
L 176.985143 216.107354 
L 177.157162 284.079054 
L 177.368879 249.901945 
L 177.48797 288.431738 
L 177.858475 237.248769 
L 177.964333 284.164475 
L 178.209131 280.608132 
L 178.361302 281.359104 
L 178.573019 276.645225 
L 178.665645 290.690006 
L 178.758271 288.628522 
L 179.128776 262.642532 
L 179.466199 267.744898 
L 179.578674 284.377125 
L 179.750694 291.090048 
L 179.84332 286.47426 
L 179.942562 287.932225 
L 180.035188 285.601774 
L 180.114582 291.318585 
L 180.379228 239.412123 
L 180.921753 186.619435 
L 181.206247 253.096285 
L 181.570135 227.738326 
L 181.775236 290.449799 
L 181.848014 290.378929 
L 181.973721 278.037536 
L 182.059731 288.96139 
L 182.145741 288.414204 
L 182.238367 292.001384 
L 182.357457 280.286322 
L 182.463316 284.961833 
L 182.57579 283.796787 
L 182.648568 291.030107 
L 182.741194 288.757559 
L 182.840436 292.029946 
L 183.032305 291.909813 
L 183.17786 291.666017 
L 183.270486 290.087248 
L 183.34988 291.125393 
L 183.43589 290.952319 
L 183.640991 279.698578 
L 183.746849 284.573574 
L 183.925485 266.120826 
L 184.130586 282.634529 
L 184.342303 281.202779 
L 184.408464 291.451837 
L 184.600333 270.943128 
L 184.997302 212.994578 
L 185.354574 250.747485 
L 185.79124 197.885889 
L 185.936795 276.501829 
L 186.075734 284.707565 
L 186.214674 285.118395 
L 186.300684 292.061715 
L 186.39331 290.464202 
L 186.962299 194.790761 
L 187.293106 259.254465 
L 187.484975 269.291458 
L 187.577601 289.303359 
L 188.120125 209.028489 
L 188.259064 288.988518 
L 188.417852 285.325785 
L 189.516133 197.278293 
L 189.694769 278.684112 
L 189.860173 261.271119 
L 189.926335 292.751811 
L 190.1579 281.423758 
L 190.376233 249.715087 
L 190.786434 289.448079 
L 190.892293 289.379382 
L 191.037848 293.357389 
L 191.282646 287.491898 
L 191.401736 288.013076 
L 191.659766 265.412467 
L 191.765625 285.480208 
L 192.327997 233.928213 
L 192.698502 214.165109 
L 193.102087 249.609562 
L 193.393198 251.342033 
L 193.637995 288.495458 
L 193.935722 228.562352 
L 194.187136 290.825634 
L 194.478247 258.587942 
L 194.623802 287.778628 
L 195.034003 219.794018 
L 195.232488 290.72915 
L 195.338346 286.612381 
L 195.669154 224.806661 
L 195.808093 286.077874 
L 196.244759 241.945749 
L 196.390314 291.211759 
L 196.502789 283.241554 
L 196.595415 292.283867 
L 196.906374 232.121485 
L 197.131323 249.239124 
L 197.455515 223.512097 
L 197.786322 259.506123 
L 198.044352 244.015565 
L 198.222988 292.542313 
L 198.434705 249.688044 
L 198.527331 288.043238 
L 198.7192 278.956389 
L 198.970613 242.212789 
L 199.202179 292.388324 
L 199.341118 286.150479 
L 199.751319 207.5878 
L 199.916723 275.157927 
L 200.168137 273.692954 
L 200.399702 246.157247 
L 200.59157 293.031627 
L 200.876065 236.02141 
L 201.273034 195.250431 
L 201.590609 290.142842 
L 201.696468 285.871877 
L 201.901568 286.879291 
L 202.113285 250.837406 
L 202.457325 289.906401 
L 202.556567 285.760675 
L 202.74182 290.31066 
L 202.893991 267.900328 
L 203.132173 288.941364 
L 203.456364 240.577632 
L 203.615152 288.802942 
L 203.740859 288.422212 
L 203.873182 291.171175 
L 203.972424 288.773372 
L 204.541413 202.399673 
L 205.064089 246.625344 
L 205.249341 294.278741 
L 205.639694 204.998669 
L 206.16237 174.80771 
L 206.698278 169.36943 
L 206.896763 282.754788 
L 207.05555 290.147012 
L 207.445903 250.334972 
L 207.624539 285.265051 
L 207.74363 280.940062 
L 207.928882 258.028505 
L 208.160448 245.484714 
L 208.325851 288.182596 
L 208.656659 238.786595 
L 208.755901 291.1033 
L 208.94777 281.469849 
L 209.298426 218.083312 
L 209.602769 286.188789 
L 209.761556 277.131678 
L 209.979889 291.305663 
L 210.151909 294.137728 
L 210.337161 281.640708 
L 210.64812 221.58231 
L 210.826757 295.488 
L 211.203877 206.892475 
L 211.389129 280.901394 
L 211.528069 283.111392 
L 211.76625 289.903828 
L 211.878725 286.296174 
L 212.143371 281.77202 
L 212.573421 286.215087 
L 212.864531 280.295039 
L 212.983622 284.419227 
L 213.102713 282.487696 
L 213.43352 230.478923 
L 213.678318 270.297433 
L 213.956196 286.36938 
L 214.320084 231.66275 
L 214.472256 279.539649 
L 214.92877 210.445517 
L 215.06771 288.908069 
L 215.398517 218.454563 
L 215.537456 275.199998 
L 215.742557 253.650176 
L 215.987355 246.433184 
L 216.119678 280.806758 
L 216.39094 239.645545 
L 216.536495 285.644327 
L 217.303969 105.460296 
L 217.535534 283.503374 
L 217.654625 285.862947 
L 217.859725 254.253193 
L 218.05821 294.190093 
L 218.303008 241.954483 
L 218.435331 278.192817 
L 218.653664 291.642614 
L 218.858764 280.715366 
L 219.116794 240.036147 
L 219.46745 230.396779 
L 219.758561 284.191283 
L 220.036439 236.352834 
L 220.320934 241.011559 
L 220.625277 239.044722 
L 220.969317 243.242379 
L 221.366286 263.349384 
L 221.472144 289.344092 
L 221.670629 254.971911 
L 221.869113 267.138132 
L 222.094062 289.707049 
L 222.643203 188.049451 
L 222.808607 284.614086 
L 223.119566 225.023488 
L 223.344515 284.199405 
L 223.496686 293.399283 
L 223.959817 209.092734 
L 224.469261 247.313281 
L 224.912543 190.438053 
L 225.03825 282.550288 
L 225.852036 210.012053 
L 226.295318 226.439387 
L 226.692287 216.697921 
L 226.983398 266.655731 
L 227.25466 244.435347 
L 227.850114 240.423106 
L 228.088295 273.701684 
L 228.366174 241.802658 
L 228.637436 285.868032 
L 228.83592 283.359647 
L 229.140263 242.609003 
L 229.338748 255.368718 
L 229.755566 220.288108 
L 230.172383 219.975945 
L 230.417181 242.404793 
L 230.582584 290.779197 
L 230.93324 216.407818 
L 231.27728 220.948715 
L 231.674249 287.25712 
L 231.859502 291.736988 
L 232.117532 240.166646 
L 232.514501 255.478808 
L 232.818844 228.872607 
L 232.990864 260.635368 
L 233.473843 195.315489 
L 233.970054 277.535738 
L 234.208235 285.972218 
L 234.486114 282.184353 
L 234.737527 246.306829 
L 235.47192 192.53652 
L 235.743182 238.26786 
L 235.849041 284.811332 
L 236.199697 272.240047 
L 236.404798 291.177826 
L 236.669444 238.003414 
L 236.788534 285.109852 
L 237.039948 288.948513 
L 237.403836 213.537478 
L 237.694947 283.123128 
L 238.469037 223.830956 
L 238.660905 256.323159 
L 238.852774 255.766831 
L 239.051258 292.25833 
L 239.23651 287.618344 
L 239.785651 206.00194 
L 240.156155 208.628575 
L 240.539892 199.971401 
L 240.78469 247.474448 
L 241.234588 216.235494 
L 241.697719 287.537354 
L 242.048375 218.178528 
L 242.835697 181.816231 
L 243.404686 245.149102 
L 243.623019 250.758233 
L 243.828119 292.079566 
L 244.231705 229.316574 
L 244.469886 243.839058 
L 244.847007 210.537228 
L 244.992562 279.875264 
L 245.257208 239.900045 
L 245.806349 216.440522 
L 246.070995 238.068521 
L 246.494428 193.794831 
L 246.90463 220.061465 
L 248.346951 130.580244 
L 248.975485 253.520388 
L 249.478313 245.289665 
L 249.729726 264.908646 
L 249.842201 286.749591 
L 250.212705 229.444446 
L 250.464119 242.952308 
L 250.940482 208.363738 
L 251.211744 236.547654 
L 252.124773 96.499015 
L 252.33649 253.001585 
L 252.482045 277.070907 
L 252.819469 221.48787 
L 253.137044 228.208946 
L 253.428155 258.777843 
L 253.600175 259.861353 
L 254.288255 232.396926 
L 254.559517 238.595575 
L 254.989567 210.1181 
L 255.29391 224.166137 
L 255.571788 247.354102 
L 256.048151 170.386529 
L 256.385575 244.475715 
L 256.742847 209.749588 
L 257.583098 159.854324 
L 257.827896 257.094143 
L 258.654915 193.925008 
L 259.786276 98.586479 
L 260.117084 233.386773 
L 260.626528 189.175978 
L 261.235214 241.569985 
L 261.44693 251.631219 
L 261.678496 246.35101 
L 263.087736 130.994511 
L 263.438392 236.388448 
L 263.848593 225.824703 
L 264.066926 251.410598 
L 264.721925 164.613467 
L 265.105662 209.936313 
L 265.601873 225.260403 
L 265.833439 246.674439 
L 266.276721 208.243494 
L 266.481822 253.309005 
L 267.130204 224.681871 
L 267.381618 245.186259 
L 267.593335 252.564292 
L 267.851365 240.74608 
L 268.42697 133.829138 
L 268.651919 287.59226 
L 268.923181 236.846659 
L 269.366463 188.055997 
L 269.7502 206.939956 
L 270.028079 241.6484 
L 270.299341 239.585252 
L 270.544138 242.695726 
L 270.78232 244.134891 
L 271.311612 169.937179 
L 271.582874 237.443351 
L 271.887217 225.911698 
L 272.165096 245.805127 
L 272.495903 234.660567 
L 272.714236 291.256424 
L 273.276609 161.060644 
L 273.752972 168.126905 
L 273.938224 257.681205 
L 274.20287 238.005528 
L 274.785091 158.315164 
L 275.347464 149.413111 
L 276.412665 237.984072 
L 276.544988 285.407714 
L 277.080896 172.545044 
L 277.689582 132.095641 
L 278.159329 177.866739 
L 279.026044 93.564646 
L 279.694276 148.212043 
L 280.164022 236.558589 
L 281.149829 179.680551 
L 281.381394 248.730685 
L 281.73205 215.489868 
L 282.234878 198.775473 
L 282.426746 257.105311 
L 283.042048 163.126557 
L 283.386088 219.006543 
L 283.65735 237.600767 
L 284.266036 127.551532 
L 284.510834 245.279508 
L 284.921035 190.059243 
L 285.238611 226.71438 
L 285.542953 236.332462 
L 285.75467 251.747031 
L 286.482447 112.844855 
L 287.117597 178.773702 
L 287.693203 134.492123 
L 287.997546 230.833609 
L 288.434212 222.705641 
L 288.685625 243.628411 
L 289.386937 154.068746 
L 289.83022 205.717443 
L 290.048553 252.04725 
L 290.591077 147.212502 
L 291.259308 162.785505 
L 291.44456 254.454631 
L 291.662893 251.677012 
L 292.205418 143.104488 
L 292.595771 205.335795 
L 293.42279 106.905495 
L 293.68082 244.773447 
L 294.408596 170.995126 
L 295.195918 149.434889 
L 295.771523 137.99002 
L 296.294199 167.383051 
L 296.677936 214.119283 
L 297.96147 183.10516 
L 298.199651 245.66124 
L 298.801721 126.783721 
L 299.013438 252.423736 
L 299.397174 234.267102 
L 300.00586 130.572152 
L 300.257274 241.296641 
L 300.846111 127.763256 
L 301.064444 246.886297 
L 301.72606 118.734859 
L 302.281816 150.315625 
L 302.639089 216.972037 
L 303.002977 215.534401 
L 303.47934 263.029536 
L 304.074793 129.072833 
L 304.359288 234.031363 
L 304.934893 141.1923 
L 305.861154 98.665305 
L 306.139033 236.241527 
L 306.363982 246.592414 
L 306.919738 142.584159 
L 307.475495 145.674148 
L 307.832767 217.100397 
L 308.428221 138.155992 
L 308.666402 246.190676 
L 309.222159 144.899872 
L 309.751451 162.488375 
L 310.161653 198.846485 
L 310.684329 165.561685 
L 311.332711 133.087277 
L 312.007559 168.475471 
L 312.457457 182.422819 
L 312.655942 255.239699 
L 313.026446 222.811735 
L 313.396951 215.566076 
L 314.098263 119.199555 
L 314.680484 145.19736 
L 315.348715 132.975816 
L 315.884623 151.398896 
L 316.499926 125.115721 
L 317.221086 103.779594 
L 318.411993 213.148848 
L 319.020679 136.019686 
L 319.635981 129.981381 
L 320.191738 152.368949 
L 320.780575 141.110042 
L 321.356181 144.369426 
L 321.951634 129.186018 
L 323.235168 53.568 
L 323.96956 111.402518 
L 324.631176 135.310233 
L 324.928902 227.737005 
L 325.881628 93.988534 
L 326.463849 135.687823 
L 326.84097 208.379116 
L 327.515817 131.321763 
L 328.25021 163.367753 
L 328.819199 137.5863 
L 329.414653 133.968257 
L 330.029955 125.034 
L 330.532782 176.150206 
L 331.095155 152.104519 
L 331.273791 258.976531 
L 331.63768 224.415514 
L 332.193436 147.494758 
L 332.808739 123.35028 
L 333.000607 255.393701 
L 333.529899 163.529928 
L 334.681109 136.117445 
L 335.269947 132.50411 
L 335.838936 147.927006 
L 336.454238 125.018426 
L 337.003378 144.31799 
L 337.612064 129.194036 
L 338.18767 147.564777 
L 338.836052 126.804751 
L 339.365344 151.317492 
L 339.960798 126.504612 
L 340.523171 148.536148 
L 340.767969 244.933796 
L 341.052463 234.956759 
L 341.661149 125.650436 
L 342.236754 147.524116 
L 342.838824 145.735897 
L 343.414429 143.529555 
L 343.99665 135.243719 
L 344.552407 145.571388 
L 345.207406 125.64219 
L 345.756547 143.086442 
L 346.345384 141.024815 
L 346.894525 145.600453 
L 347.483362 141.714703 
L 348.058967 141.515331 
L 348.661037 143.260002 
L 349.216794 143.889767 
L 349.812247 140.238723 
L 350.467246 127.228102 
L 351.214872 108.181567 
L 351.949264 127.846368 
L 352.544718 133.291089 
L 353.100475 148.654237 
L 353.702544 148.212117 
L 354.291382 132.228319 
L 354.866987 133.59387 
L 355.508754 130.177004 
L 356.15052 128.100982 
L 356.706277 151.827102 
L 357.281882 146.663995 
L 357.850871 148.809206 
L 358.400012 155.577507 
L 358.93592 151.270219 
L 359.544606 127.62726 
L 360.080514 161.298124 
L 360.649503 140.587525 
L 361.218492 138.943581 
L 361.800714 138.255052 
L 362.363086 155.091488 
L 362.905611 147.942767 
L 363.494448 138.505673 
L 363.699549 253.140476 
L 364.261922 143.76318 
L 364.850759 127.456937 
L 365.439597 132.921443 
L 365.988737 145.413923 
L 366.531262 161.007907 
L 367.06717 162.869748 
L 367.629543 143.118744 
L 368.191916 145.671578 
L 368.800602 145.059029 
L 369.349742 159.67643 
L 369.965044 121.953786 
L 370.560498 129.102515 
L 371.149335 133.987937 
L 371.731557 147.996611 
L 372.333627 146.170007 
L 372.895999 140.034439 
L 373.491453 130.83067 
L 374.13322 134.619776 
L 374.702209 140.806243 
L 375.304278 136.048662 
L 375.879884 137.364468 
L 376.475337 137.662728 
L 377.031094 142.237577 
L 377.567002 149.448104 
L 378.122759 144.703111 
L 378.665283 151.209788 
L 379.254121 139.000328 
L 379.902504 129.943891 
L 380.478109 134.865721 
L 381.06033 133.06928 
L 381.602855 144.112242 
L 382.165227 138.249465 
L 382.833459 135.988043 
L 383.389215 143.194342 
L 383.971437 133.464396 
L 384.507345 154.26236 
L 385.08295 152.099599 
L 385.678404 135.576931 
L 386.220928 150.872883 
L 386.796533 148.985921 
L 387.35229 152.266816 
L 387.934511 133.954497 
L 388.576278 127.016654 
L 388.781379 253.094679 
L 389.337135 142.099555 
L 389.892892 143.154494 
L 390.461881 149.236461 
L 391.050719 148.092767 
L 391.626324 142.541001 
L 392.175464 150.906388 
L 392.737837 151.343068 
L 393.339907 134.041805 
L 393.928744 131.499755 
L 394.563895 122.124491 
L 395.126268 136.942385 
L 395.688641 141.578007 
L 396.244397 148.308866 
L 396.80677 140.797103 
L 397.362527 151.417462 
L 397.9249 146.567253 
L 398.487273 139.653449 
L 398.487273 139.653449 
" clip-path="url(#pad393e1497)" style="fill: none; stroke: #1f77b4; stroke-width: 1.5; stroke-linecap: square"/>
   </g>
   <g id="patch_3">
    <path d="M 57.6 307.584 
L 57.6 41.472 
" style="fill: none; stroke: #000000; stroke-width: 0.8; stroke-linejoin: miter; stroke-linecap: square"/>
   </g>
   <g id="patch_4">
    <path d="M 414.72 307.584 
L 414.72 41.472 
" style="fill: none; stroke: #000000; stroke-width: 0.8; stroke-linejoin: miter; stroke-linecap: square"/>
   </g>
   <g id="patch_5">
    <path d="M 57.6 307.584 
L 414.72 307.584 
" style="fill: none; stroke: #000000; stroke-width: 0.8; stroke-linejoin: miter; stroke-linecap: square"/>
   </g>
   <g id="patch_6">
    <path d="M 57.6 41.472 
L 414.72 41.472 
" style="fill: none; stroke: #000000; stroke-width: 0.8; stroke-linejoin: miter; stroke-linecap: square"/>
   </g>
   <g id="text_16">
    <!-- learning curve -->
    <g transform="translate(192.96375 35.472) scale(0.12 -0.12)">
     <defs>
      <path id="DejaVuSans-6c" d="M 603 4863 
L 1178 4863 
L 1178 0 
L 603 0 
L 603 4863 
z
" transform="scale(0.015625)"/>
      <path id="DejaVuSans-6e" d="M 3513 2113 
L 3513 0 
L 2938 0 
L 2938 2094 
Q 2938 2591 2744 2837 
Q 2550 3084 2163 3084 
Q 1697 3084 1428 2787 
Q 1159 2491 1159 1978 
L 1159 0 
L 581 0 
L 581 3500 
L 1159 3500 
L 1159 2956 
Q 1366 3272 1645 3428 
Q 1925 3584 2291 3584 
Q 2894 3584 3203 3211 
Q 3513 2838 3513 2113 
z
" transform="scale(0.015625)"/>
      <path id="DejaVuSans-67" d="M 2906 1791 
Q 2906 2416 2648 2759 
Q 2391 3103 1925 3103 
Q 1463 3103 1205 2759 
Q 947 2416 947 1791 
Q 947 1169 1205 825 
Q 1463 481 1925 481 
Q 2391 481 2648 825 
Q 2906 1169 2906 1791 
z
M 3481 434 
Q 3481 -459 3084 -895 
Q 2688 -1331 1869 -1331 
Q 1566 -1331 1297 -1286 
Q 1028 -1241 775 -1147 
L 775 -588 
Q 1028 -725 1275 -790 
Q 1522 -856 1778 -856 
Q 2344 -856 2625 -561 
Q 2906 -266 2906 331 
L 2906 616 
Q 2728 306 2450 153 
Q 2172 0 1784 0 
Q 1141 0 747 490 
Q 353 981 353 1791 
Q 353 2603 747 3093 
Q 1141 3584 1784 3584 
Q 2172 3584 2450 3431 
Q 2728 3278 2906 2969 
L 2906 3500 
L 3481 3500 
L 3481 434 
z
" transform="scale(0.015625)"/>
      <path id="DejaVuSans-20" transform="scale(0.015625)"/>
      <path id="DejaVuSans-63" d="M 3122 3366 
L 3122 2828 
Q 2878 2963 2633 3030 
Q 2388 3097 2138 3097 
Q 1578 3097 1268 2742 
Q 959 2388 959 1747 
Q 959 1106 1268 751 
Q 1578 397 2138 397 
Q 2388 397 2633 464 
Q 2878 531 3122 666 
L 3122 134 
Q 2881 22 2623 -34 
Q 2366 -91 2075 -91 
Q 1284 -91 818 406 
Q 353 903 353 1747 
Q 353 2603 823 3093 
Q 1294 3584 2113 3584 
Q 2378 3584 2631 3529 
Q 2884 3475 3122 3366 
z
" transform="scale(0.015625)"/>
      <path id="DejaVuSans-75" d="M 544 1381 
L 544 3500 
L 1119 3500 
L 1119 1403 
Q 1119 906 1312 657 
Q 1506 409 1894 409 
Q 2359 409 2629 706 
Q 2900 1003 2900 1516 
L 2900 3500 
L 3475 3500 
L 3475 0 
L 2900 0 
L 2900 538 
Q 2691 219 2414 64 
Q 2138 -91 1772 -91 
Q 1169 -91 856 284 
Q 544 659 544 1381 
z
M 1991 3584 
L 1991 3584 
z
" transform="scale(0.015625)"/>
      <path id="DejaVuSans-76" d="M 191 3500 
L 800 3500 
L 1894 563 
L 2988 3500 
L 3597 3500 
L 2284 0 
L 1503 0 
L 191 3500 
z
" transform="scale(0.015625)"/>
     </defs>
     <use xlink:href="#DejaVuSans-6c"/>
     <use xlink:href="#DejaVuSans-65" x="27.783203"/>
     <use xlink:href="#DejaVuSans-61" x="89.306641"/>
     <use xlink:href="#DejaVuSans-72" x="150.585938"/>
     <use xlink:href="#DejaVuSans-6e" x="189.949219"/>
     <use xlink:href="#DejaVuSans-69" x="253.328125"/>
     <use xlink:href="#DejaVuSans-6e" x="281.111328"/>
     <use xlink:href="#DejaVuSans-67" x="344.490234"/>
     <use xlink:href="#DejaVuSans-20" x="407.966797"/>
     <use xlink:href="#DejaVuSans-63" x="439.753906"/>
     <use xlink:href="#DejaVuSans-75" x="494.734375"/>
     <use xlink:href="#DejaVuSans-72" x="558.113281"/>
     <use xlink:href="#DejaVuSans-76" x="599.226562"/>
     <use xlink:href="#DejaVuSans-65" x="658.40625"/>
    </g>
   </g>
  </g>
 </g>
 <defs>
  <clipPath id="pad393e1497">
   <rect x="57.6" y="41.472" width="357.12" height="266.112"/>
  </clipPath>
 </defs>
</svg>
