<?xml version="1.0" encoding="utf-8" standalone="no"?>
<!DOCTYPE svg PUBLIC "-//W3C//DTD SVG 1.1//EN"
  "http://www.w3.org/Graphics/SVG/1.1/DTD/svg11.dtd">
<svg xmlns:xlink="http://www.w3.org/1999/xlink" width="460.8pt" height="345.6pt" viewBox="0 0 460.8 345.6" xmlns="http://www.w3.org/2000/svg" version="1.1">
 <metadata>
  <rdf:RDF xmlns:dc="http://purl.org/dc/elements/1.1/" xmlns:cc="http://creativecommons.org/ns#" xmlns:rdf="http://www.w3.org/1999/02/22-rdf-syntax-ns#">
   <cc:Work>
    <dc:type rdf:resource="http://purl.org/dc/dcmitype/StillImage"/>
    <dc:date>2023-08-18T16:45:08.830101</dc:date>
    <dc:format>image/svg+xml</dc:format>
    <dc:creator>
     <cc:Agent>
      <dc:title>Matplotlib v3.7.1, https://matplotlib.org/</dc:title>
     </cc:Agent>
    </dc:creator>
   </cc:Work>
  </rdf:RDF>
 </metadata>
 <defs>
  <style type="text/css">*{stroke-linejoin: round; stroke-linecap: butt}</style>
 </defs>
 <g id="figure_1">
  <g id="patch_1">
   <path d="M 0 345.6 
L 460.8 345.6 
L 460.8 0 
L 0 0 
z
" style="fill: #ffffff"/>
  </g>
  <g id="axes_1">
   <g id="patch_2">
    <path d="M 57.6 307.584 
L 414.72 307.584 
L 414.72 41.472 
L 57.6 41.472 
z
" style="fill: #ffffff"/>
   </g>
   <g id="matplotlib.axis_1">
    <g id="xtick_1">
     <g id="line2d_1">
      <defs>
       <path id="m1d660da5e5" d="M 0 0 
L 0 3.5 
" style="stroke: #000000; stroke-width: 0.8"/>
      </defs>
      <g>
       <use xlink:href="#m1d660da5e5" x="73.767783" y="307.584" style="stroke: #000000; stroke-width: 0.8"/>
      </g>
     </g>
     <g id="text_1">
      <!-- 0 -->
      <g transform="translate(70.586533 322.182437) scale(0.1 -0.1)">
       <defs>
        <path id="DejaVuSans-30" d="M 2034 4250 
Q 1547 4250 1301 3770 
Q 1056 3291 1056 2328 
Q 1056 1369 1301 889 
Q 1547 409 2034 409 
Q 2525 409 2770 889 
Q 3016 1369 3016 2328 
Q 3016 3291 2770 3770 
Q 2525 4250 2034 4250 
z
M 2034 4750 
Q 2819 4750 3233 4129 
Q 3647 3509 3647 2328 
Q 3647 1150 3233 529 
Q 2819 -91 2034 -91 
Q 1250 -91 836 529 
Q 422 1150 422 2328 
Q 422 3509 836 4129 
Q 1250 4750 2034 4750 
z
" transform="scale(0.015625)"/>
       </defs>
       <use xlink:href="#DejaVuSans-30"/>
      </g>
     </g>
    </g>
    <g id="xtick_2">
     <g id="line2d_2">
      <g>
       <use xlink:href="#m1d660da5e5" x="138.711681" y="307.584" style="stroke: #000000; stroke-width: 0.8"/>
      </g>
     </g>
     <g id="text_2">
      <!-- 10000 -->
      <g transform="translate(122.805431 322.182437) scale(0.1 -0.1)">
       <defs>
        <path id="DejaVuSans-31" d="M 794 531 
L 1825 531 
L 1825 4091 
L 703 3866 
L 703 4441 
L 1819 4666 
L 2450 4666 
L 2450 531 
L 3481 531 
L 3481 0 
L 794 0 
L 794 531 
z
" transform="scale(0.015625)"/>
       </defs>
       <use xlink:href="#DejaVuSans-31"/>
       <use xlink:href="#DejaVuSans-30" x="63.623047"/>
       <use xlink:href="#DejaVuSans-30" x="127.246094"/>
       <use xlink:href="#DejaVuSans-30" x="190.869141"/>
       <use xlink:href="#DejaVuSans-30" x="254.492188"/>
      </g>
     </g>
    </g>
    <g id="xtick_3">
     <g id="line2d_3">
      <g>
       <use xlink:href="#m1d660da5e5" x="203.655579" y="307.584" style="stroke: #000000; stroke-width: 0.8"/>
      </g>
     </g>
     <g id="text_3">
      <!-- 20000 -->
      <g transform="translate(187.749329 322.182437) scale(0.1 -0.1)">
       <defs>
        <path id="DejaVuSans-32" d="M 1228 531 
L 3431 531 
L 3431 0 
L 469 0 
L 469 531 
Q 828 903 1448 1529 
Q 2069 2156 2228 2338 
Q 2531 2678 2651 2914 
Q 2772 3150 2772 3378 
Q 2772 3750 2511 3984 
Q 2250 4219 1831 4219 
Q 1534 4219 1204 4116 
Q 875 4013 500 3803 
L 500 4441 
Q 881 4594 1212 4672 
Q 1544 4750 1819 4750 
Q 2544 4750 2975 4387 
Q 3406 4025 3406 3419 
Q 3406 3131 3298 2873 
Q 3191 2616 2906 2266 
Q 2828 2175 2409 1742 
Q 1991 1309 1228 531 
z
" transform="scale(0.015625)"/>
       </defs>
       <use xlink:href="#DejaVuSans-32"/>
       <use xlink:href="#DejaVuSans-30" x="63.623047"/>
       <use xlink:href="#DejaVuSans-30" x="127.246094"/>
       <use xlink:href="#DejaVuSans-30" x="190.869141"/>
       <use xlink:href="#DejaVuSans-30" x="254.492188"/>
      </g>
     </g>
    </g>
    <g id="xtick_4">
     <g id="line2d_4">
      <g>
       <use xlink:href="#m1d660da5e5" x="268.599477" y="307.584" style="stroke: #000000; stroke-width: 0.8"/>
      </g>
     </g>
     <g id="text_4">
      <!-- 30000 -->
      <g transform="translate(252.693227 322.182437) scale(0.1 -0.1)">
       <defs>
        <path id="DejaVuSans-33" d="M 2597 2516 
Q 3050 2419 3304 2112 
Q 3559 1806 3559 1356 
Q 3559 666 3084 287 
Q 2609 -91 1734 -91 
Q 1441 -91 1130 -33 
Q 819 25 488 141 
L 488 750 
Q 750 597 1062 519 
Q 1375 441 1716 441 
Q 2309 441 2620 675 
Q 2931 909 2931 1356 
Q 2931 1769 2642 2001 
Q 2353 2234 1838 2234 
L 1294 2234 
L 1294 2753 
L 1863 2753 
Q 2328 2753 2575 2939 
Q 2822 3125 2822 3475 
Q 2822 3834 2567 4026 
Q 2313 4219 1838 4219 
Q 1578 4219 1281 4162 
Q 984 4106 628 3988 
L 628 4550 
Q 988 4650 1302 4700 
Q 1616 4750 1894 4750 
Q 2613 4750 3031 4423 
Q 3450 4097 3450 3541 
Q 3450 3153 3228 2886 
Q 3006 2619 2597 2516 
z
" transform="scale(0.015625)"/>
       </defs>
       <use xlink:href="#DejaVuSans-33"/>
       <use xlink:href="#DejaVuSans-30" x="63.623047"/>
       <use xlink:href="#DejaVuSans-30" x="127.246094"/>
       <use xlink:href="#DejaVuSans-30" x="190.869141"/>
       <use xlink:href="#DejaVuSans-30" x="254.492188"/>
      </g>
     </g>
    </g>
    <g id="xtick_5">
     <g id="line2d_5">
      <g>
       <use xlink:href="#m1d660da5e5" x="333.543375" y="307.584" style="stroke: #000000; stroke-width: 0.8"/>
      </g>
     </g>
     <g id="text_5">
      <!-- 40000 -->
      <g transform="translate(317.637125 322.182437) scale(0.1 -0.1)">
       <defs>
        <path id="DejaVuSans-34" d="M 2419 4116 
L 825 1625 
L 2419 1625 
L 2419 4116 
z
M 2253 4666 
L 3047 4666 
L 3047 1625 
L 3713 1625 
L 3713 1100 
L 3047 1100 
L 3047 0 
L 2419 0 
L 2419 1100 
L 313 1100 
L 313 1709 
L 2253 4666 
z
" transform="scale(0.015625)"/>
       </defs>
       <use xlink:href="#DejaVuSans-34"/>
       <use xlink:href="#DejaVuSans-30" x="63.623047"/>
       <use xlink:href="#DejaVuSans-30" x="127.246094"/>
       <use xlink:href="#DejaVuSans-30" x="190.869141"/>
       <use xlink:href="#DejaVuSans-30" x="254.492188"/>
      </g>
     </g>
    </g>
    <g id="xtick_6">
     <g id="line2d_6">
      <g>
       <use xlink:href="#m1d660da5e5" x="398.487273" y="307.584" style="stroke: #000000; stroke-width: 0.8"/>
      </g>
     </g>
     <g id="text_6">
      <!-- 50000 -->
      <g transform="translate(382.581023 322.182437) scale(0.1 -0.1)">
       <defs>
        <path id="DejaVuSans-35" d="M 691 4666 
L 3169 4666 
L 3169 4134 
L 1269 4134 
L 1269 2991 
Q 1406 3038 1543 3061 
Q 1681 3084 1819 3084 
Q 2600 3084 3056 2656 
Q 3513 2228 3513 1497 
Q 3513 744 3044 326 
Q 2575 -91 1722 -91 
Q 1428 -91 1123 -41 
Q 819 9 494 109 
L 494 744 
Q 775 591 1075 516 
Q 1375 441 1709 441 
Q 2250 441 2565 725 
Q 2881 1009 2881 1497 
Q 2881 1984 2565 2268 
Q 2250 2553 1709 2553 
Q 1456 2553 1204 2497 
Q 953 2441 691 2322 
L 691 4666 
z
" transform="scale(0.015625)"/>
       </defs>
       <use xlink:href="#DejaVuSans-35"/>
       <use xlink:href="#DejaVuSans-30" x="63.623047"/>
       <use xlink:href="#DejaVuSans-30" x="127.246094"/>
       <use xlink:href="#DejaVuSans-30" x="190.869141"/>
       <use xlink:href="#DejaVuSans-30" x="254.492188"/>
      </g>
     </g>
    </g>
    <g id="text_7">
     <!-- timesteps -->
     <g transform="translate(211.443594 335.860562) scale(0.1 -0.1)">
      <defs>
       <path id="DejaVuSans-74" d="M 1172 4494 
L 1172 3500 
L 2356 3500 
L 2356 3053 
L 1172 3053 
L 1172 1153 
Q 1172 725 1289 603 
Q 1406 481 1766 481 
L 2356 481 
L 2356 0 
L 1766 0 
Q 1100 0 847 248 
Q 594 497 594 1153 
L 594 3053 
L 172 3053 
L 172 3500 
L 594 3500 
L 594 4494 
L 1172 4494 
z
" transform="scale(0.015625)"/>
       <path id="DejaVuSans-69" d="M 603 3500 
L 1178 3500 
L 1178 0 
L 603 0 
L 603 3500 
z
M 603 4863 
L 1178 4863 
L 1178 4134 
L 603 4134 
L 603 4863 
z
" transform="scale(0.015625)"/>
       <path id="DejaVuSans-6d" d="M 3328 2828 
Q 3544 3216 3844 3400 
Q 4144 3584 4550 3584 
Q 5097 3584 5394 3201 
Q 5691 2819 5691 2113 
L 5691 0 
L 5113 0 
L 5113 2094 
Q 5113 2597 4934 2840 
Q 4756 3084 4391 3084 
Q 3944 3084 3684 2787 
Q 3425 2491 3425 1978 
L 3425 0 
L 2847 0 
L 2847 2094 
Q 2847 2600 2669 2842 
Q 2491 3084 2119 3084 
Q 1678 3084 1418 2786 
Q 1159 2488 1159 1978 
L 1159 0 
L 581 0 
L 581 3500 
L 1159 3500 
L 1159 2956 
Q 1356 3278 1631 3431 
Q 1906 3584 2284 3584 
Q 2666 3584 2933 3390 
Q 3200 3197 3328 2828 
z
" transform="scale(0.015625)"/>
       <path id="DejaVuSans-65" d="M 3597 1894 
L 3597 1613 
L 953 1613 
Q 991 1019 1311 708 
Q 1631 397 2203 397 
Q 2534 397 2845 478 
Q 3156 559 3463 722 
L 3463 178 
Q 3153 47 2828 -22 
Q 2503 -91 2169 -91 
Q 1331 -91 842 396 
Q 353 884 353 1716 
Q 353 2575 817 3079 
Q 1281 3584 2069 3584 
Q 2775 3584 3186 3129 
Q 3597 2675 3597 1894 
z
M 3022 2063 
Q 3016 2534 2758 2815 
Q 2500 3097 2075 3097 
Q 1594 3097 1305 2825 
Q 1016 2553 972 2059 
L 3022 2063 
z
" transform="scale(0.015625)"/>
       <path id="DejaVuSans-73" d="M 2834 3397 
L 2834 2853 
Q 2591 2978 2328 3040 
Q 2066 3103 1784 3103 
Q 1356 3103 1142 2972 
Q 928 2841 928 2578 
Q 928 2378 1081 2264 
Q 1234 2150 1697 2047 
L 1894 2003 
Q 2506 1872 2764 1633 
Q 3022 1394 3022 966 
Q 3022 478 2636 193 
Q 2250 -91 1575 -91 
Q 1294 -91 989 -36 
Q 684 19 347 128 
L 347 722 
Q 666 556 975 473 
Q 1284 391 1588 391 
Q 1994 391 2212 530 
Q 2431 669 2431 922 
Q 2431 1156 2273 1281 
Q 2116 1406 1581 1522 
L 1381 1569 
Q 847 1681 609 1914 
Q 372 2147 372 2553 
Q 372 3047 722 3315 
Q 1072 3584 1716 3584 
Q 2034 3584 2315 3537 
Q 2597 3491 2834 3397 
z
" transform="scale(0.015625)"/>
       <path id="DejaVuSans-70" d="M 1159 525 
L 1159 -1331 
L 581 -1331 
L 581 3500 
L 1159 3500 
L 1159 2969 
Q 1341 3281 1617 3432 
Q 1894 3584 2278 3584 
Q 2916 3584 3314 3078 
Q 3713 2572 3713 1747 
Q 3713 922 3314 415 
Q 2916 -91 2278 -91 
Q 1894 -91 1617 61 
Q 1341 213 1159 525 
z
M 3116 1747 
Q 3116 2381 2855 2742 
Q 2594 3103 2138 3103 
Q 1681 3103 1420 2742 
Q 1159 2381 1159 1747 
Q 1159 1113 1420 752 
Q 1681 391 2138 391 
Q 2594 391 2855 752 
Q 3116 1113 3116 1747 
z
" transform="scale(0.015625)"/>
      </defs>
      <use xlink:href="#DejaVuSans-74"/>
      <use xlink:href="#DejaVuSans-69" x="39.208984"/>
      <use xlink:href="#DejaVuSans-6d" x="66.992188"/>
      <use xlink:href="#DejaVuSans-65" x="164.404297"/>
      <use xlink:href="#DejaVuSans-73" x="225.927734"/>
      <use xlink:href="#DejaVuSans-74" x="278.027344"/>
      <use xlink:href="#DejaVuSans-65" x="317.236328"/>
      <use xlink:href="#DejaVuSans-70" x="378.759766"/>
      <use xlink:href="#DejaVuSans-73" x="442.236328"/>
     </g>
    </g>
   </g>
   <g id="matplotlib.axis_2">
    <g id="ytick_1">
     <g id="line2d_7">
      <defs>
       <path id="m3789697c27" d="M 0 0 
L -3.5 0 
" style="stroke: #000000; stroke-width: 0.8"/>
      </defs>
      <g>
       <use xlink:href="#m3789697c27" x="57.6" y="297.762538" style="stroke: #000000; stroke-width: 0.8"/>
      </g>
     </g>
     <g id="text_8">
      <!-- 0 -->
      <g transform="translate(44.2375 301.561757) scale(0.1 -0.1)">
       <use xlink:href="#DejaVuSans-30"/>
      </g>
     </g>
    </g>
    <g id="ytick_2">
     <g id="line2d_8">
      <g>
       <use xlink:href="#m3789697c27" x="57.6" y="252.905187" style="stroke: #000000; stroke-width: 0.8"/>
      </g>
     </g>
     <g id="text_9">
      <!-- 50 -->
      <g transform="translate(37.875 256.704406) scale(0.1 -0.1)">
       <use xlink:href="#DejaVuSans-35"/>
       <use xlink:href="#DejaVuSans-30" x="63.623047"/>
      </g>
     </g>
    </g>
    <g id="ytick_3">
     <g id="line2d_9">
      <g>
       <use xlink:href="#m3789697c27" x="57.6" y="208.047836" style="stroke: #000000; stroke-width: 0.8"/>
      </g>
     </g>
     <g id="text_10">
      <!-- 100 -->
      <g transform="translate(31.5125 211.847054) scale(0.1 -0.1)">
       <use xlink:href="#DejaVuSans-31"/>
       <use xlink:href="#DejaVuSans-30" x="63.623047"/>
       <use xlink:href="#DejaVuSans-30" x="127.246094"/>
      </g>
     </g>
    </g>
    <g id="ytick_4">
     <g id="line2d_10">
      <g>
       <use xlink:href="#m3789697c27" x="57.6" y="163.190485" style="stroke: #000000; stroke-width: 0.8"/>
      </g>
     </g>
     <g id="text_11">
      <!-- 150 -->
      <g transform="translate(31.5125 166.989703) scale(0.1 -0.1)">
       <use xlink:href="#DejaVuSans-31"/>
       <use xlink:href="#DejaVuSans-35" x="63.623047"/>
       <use xlink:href="#DejaVuSans-30" x="127.246094"/>
      </g>
     </g>
    </g>
    <g id="ytick_5">
     <g id="line2d_11">
      <g>
       <use xlink:href="#m3789697c27" x="57.6" y="118.333133" style="stroke: #000000; stroke-width: 0.8"/>
      </g>
     </g>
     <g id="text_12">
      <!-- 200 -->
      <g transform="translate(31.5125 122.132352) scale(0.1 -0.1)">
       <use xlink:href="#DejaVuSans-32"/>
       <use xlink:href="#DejaVuSans-30" x="63.623047"/>
       <use xlink:href="#DejaVuSans-30" x="127.246094"/>
      </g>
     </g>
    </g>
    <g id="ytick_6">
     <g id="line2d_12">
      <g>
       <use xlink:href="#m3789697c27" x="57.6" y="73.475782" style="stroke: #000000; stroke-width: 0.8"/>
      </g>
     </g>
     <g id="text_13">
      <!-- 250 -->
      <g transform="translate(31.5125 77.275001) scale(0.1 -0.1)">
       <use xlink:href="#DejaVuSans-32"/>
       <use xlink:href="#DejaVuSans-35" x="63.623047"/>
       <use xlink:href="#DejaVuSans-30" x="127.246094"/>
      </g>
     </g>
    </g>
    <g id="text_14">
     <!-- mean episode rewards -->
     <g transform="translate(25.432812 231.360031) rotate(-90) scale(0.1 -0.1)">
      <defs>
       <path id="DejaVuSans-61" d="M 2194 1759 
Q 1497 1759 1228 1600 
Q 959 1441 959 1056 
Q 959 750 1161 570 
Q 1363 391 1709 391 
Q 2188 391 2477 730 
Q 2766 1069 2766 1631 
L 2766 1759 
L 2194 1759 
z
M 3341 1997 
L 3341 0 
L 2766 0 
L 2766 531 
Q 2569 213 2275 61 
Q 1981 -91 1556 -91 
Q 1019 -91 701 211 
Q 384 513 384 1019 
Q 384 1609 779 1909 
Q 1175 2209 1959 2209 
L 2766 2209 
L 2766 2266 
Q 2766 2663 2505 2880 
Q 2244 3097 1772 3097 
Q 1472 3097 1187 3025 
Q 903 2953 641 2809 
L 641 3341 
Q 956 3463 1253 3523 
Q 1550 3584 1831 3584 
Q 2591 3584 2966 3190 
Q 3341 2797 3341 1997 
z
" transform="scale(0.015625)"/>
       <path id="DejaVuSans-6e" d="M 3513 2113 
L 3513 0 
L 2938 0 
L 2938 2094 
Q 2938 2591 2744 2837 
Q 2550 3084 2163 3084 
Q 1697 3084 1428 2787 
Q 1159 2491 1159 1978 
L 1159 0 
L 581 0 
L 581 3500 
L 1159 3500 
L 1159 2956 
Q 1366 3272 1645 3428 
Q 1925 3584 2291 3584 
Q 2894 3584 3203 3211 
Q 3513 2838 3513 2113 
z
" transform="scale(0.015625)"/>
       <path id="DejaVuSans-20" transform="scale(0.015625)"/>
       <path id="DejaVuSans-6f" d="M 1959 3097 
Q 1497 3097 1228 2736 
Q 959 2375 959 1747 
Q 959 1119 1226 758 
Q 1494 397 1959 397 
Q 2419 397 2687 759 
Q 2956 1122 2956 1747 
Q 2956 2369 2687 2733 
Q 2419 3097 1959 3097 
z
M 1959 3584 
Q 2709 3584 3137 3096 
Q 3566 2609 3566 1747 
Q 3566 888 3137 398 
Q 2709 -91 1959 -91 
Q 1206 -91 779 398 
Q 353 888 353 1747 
Q 353 2609 779 3096 
Q 1206 3584 1959 3584 
z
" transform="scale(0.015625)"/>
       <path id="DejaVuSans-64" d="M 2906 2969 
L 2906 4863 
L 3481 4863 
L 3481 0 
L 2906 0 
L 2906 525 
Q 2725 213 2448 61 
Q 2172 -91 1784 -91 
Q 1150 -91 751 415 
Q 353 922 353 1747 
Q 353 2572 751 3078 
Q 1150 3584 1784 3584 
Q 2172 3584 2448 3432 
Q 2725 3281 2906 2969 
z
M 947 1747 
Q 947 1113 1208 752 
Q 1469 391 1925 391 
Q 2381 391 2643 752 
Q 2906 1113 2906 1747 
Q 2906 2381 2643 2742 
Q 2381 3103 1925 3103 
Q 1469 3103 1208 2742 
Q 947 2381 947 1747 
z
" transform="scale(0.015625)"/>
       <path id="DejaVuSans-72" d="M 2631 2963 
Q 2534 3019 2420 3045 
Q 2306 3072 2169 3072 
Q 1681 3072 1420 2755 
Q 1159 2438 1159 1844 
L 1159 0 
L 581 0 
L 581 3500 
L 1159 3500 
L 1159 2956 
Q 1341 3275 1631 3429 
Q 1922 3584 2338 3584 
Q 2397 3584 2469 3576 
Q 2541 3569 2628 3553 
L 2631 2963 
z
" transform="scale(0.015625)"/>
       <path id="DejaVuSans-77" d="M 269 3500 
L 844 3500 
L 1563 769 
L 2278 3500 
L 2956 3500 
L 3675 769 
L 4391 3500 
L 4966 3500 
L 4050 0 
L 3372 0 
L 2619 2869 
L 1863 0 
L 1184 0 
L 269 3500 
z
" transform="scale(0.015625)"/>
      </defs>
      <use xlink:href="#DejaVuSans-6d"/>
      <use xlink:href="#DejaVuSans-65" x="97.412109"/>
      <use xlink:href="#DejaVuSans-61" x="158.935547"/>
      <use xlink:href="#DejaVuSans-6e" x="220.214844"/>
      <use xlink:href="#DejaVuSans-20" x="283.59375"/>
      <use xlink:href="#DejaVuSans-65" x="315.380859"/>
      <use xlink:href="#DejaVuSans-70" x="376.904297"/>
      <use xlink:href="#DejaVuSans-69" x="440.380859"/>
      <use xlink:href="#DejaVuSans-73" x="468.164062"/>
      <use xlink:href="#DejaVuSans-6f" x="520.263672"/>
      <use xlink:href="#DejaVuSans-64" x="581.445312"/>
      <use xlink:href="#DejaVuSans-65" x="644.921875"/>
      <use xlink:href="#DejaVuSans-20" x="706.445312"/>
      <use xlink:href="#DejaVuSans-72" x="738.232422"/>
      <use xlink:href="#DejaVuSans-65" x="777.095703"/>
      <use xlink:href="#DejaVuSans-77" x="838.619141"/>
      <use xlink:href="#DejaVuSans-61" x="920.40625"/>
      <use xlink:href="#DejaVuSans-72" x="981.685547"/>
      <use xlink:href="#DejaVuSans-64" x="1021.048828"/>
      <use xlink:href="#DejaVuSans-73" x="1084.525391"/>
     </g>
    </g>
   </g>
   <g id="line2d_13">
    <path d="M 73.832727 291.406569 
L 73.904166 290.273066 
L 73.975604 291.311374 
L 74.053537 294.164532 
L 74.248368 286.352215 
L 74.365267 289.202543 
L 74.735447 283.883841 
L 74.865335 286.742301 
L 74.930279 291.14955 
L 75.209538 277.713447 
L 75.352414 282.924749 
L 75.417358 291.029484 
L 75.521269 286.162232 
L 75.586213 292.098451 
L 75.768055 275.429633 
L 75.956393 269.591838 
L 76.079786 290.311745 
L 76.157719 289.467964 
L 76.365539 291.862562 
L 76.508416 275.578925 
L 76.579854 290.163261 
L 76.820147 248.975261 
L 77.066933 269.842249 
L 77.131877 291.586438 
L 77.281248 274.728152 
L 77.365675 292.314977 
L 77.443608 288.518498 
L 77.547518 289.127878 
L 77.696889 274.051795 
L 77.813788 283.49562 
L 78.002126 262.078179 
L 78.177474 292.420015 
L 78.294373 289.597171 
L 78.450238 288.978996 
L 78.547654 291.511469 
L 78.74898 275.590299 
L 79.119161 212.746051 
L 79.203588 288.936544 
L 79.301003 286.731123 
L 79.677678 216.675641 
L 79.969926 286.07659 
L 80.171252 284.956801 
L 80.236196 290.405739 
L 80.437522 285.242077 
L 80.742758 222.995059 
L 80.846668 287.128652 
L 81.288287 275.25758 
L 81.489613 289.351804 
L 81.651973 282.650665 
L 81.7364 289.698589 
L 81.957209 284.072523 
L 82.080602 281.601158 
L 82.139052 293.026811 
L 82.275434 283.318043 
L 82.541704 251.502515 
L 82.619637 292.141179 
L 82.84694 285.876474 
L 82.944356 285.716734 
L 83.015794 290.401615 
L 83.132693 288.710118 
L 83.398963 233.108561 
L 83.834088 283.219437 
L 84.048402 256.007076 
L 84.132829 291.899662 
L 84.288695 278.303665 
L 84.425077 291.041716 
L 84.587437 273.423316 
L 84.743302 285.618455 
L 84.912156 283.096422 
L 85.145954 281.329171 
L 85.262853 282.280557 
L 85.412224 277.641267 
L 85.555101 279.715089 
L 85.697977 277.831778 
L 85.899303 289.099187 
L 85.996719 288.382332 
L 86.074652 289.464219 
L 86.191551 282.542412 
L 86.321439 282.008888 
L 86.438338 289.451362 
L 86.529259 288.782824 
L 86.912428 272.145954 
L 87.120249 286.135834 
L 87.250137 276.445719 
L 87.334564 289.377181 
L 87.457957 286.238037 
L 87.522901 291.68705 
L 87.659283 279.488299 
L 87.828137 288.937907 
L 87.932048 284.158226 
L 87.990497 291.805488 
L 88.06843 289.525339 
L 88.217801 282.609536 
L 88.64643 199.95007 
L 88.932184 287.290456 
L 89.243914 250.633234 
L 89.412768 290.051102 
L 89.6076 263.752547 
L 89.76996 293.572975 
L 90.003758 280.759249 
L 90.308994 269.824551 
L 90.575264 270.354362 
L 90.653197 290.133116 
L 90.77659 283.541858 
L 90.861017 288.541316 
L 91.003894 279.741991 
L 91.081827 288.449256 
L 91.172748 285.896896 
L 91.302636 285.644701 
L 91.47149 292.574737 
L 91.620861 277.468781 
L 91.711782 288.326574 
L 91.828681 288.15194 
L 91.984547 275.064666 
L 92.055985 291.234187 
L 92.120929 290.564682 
L 92.237828 283.801349 
L 92.393693 281.409181 
L 92.582031 290.716581 
L 92.822323 249.768088 
L 92.913244 287.827795 
L 92.997672 287.434125 
L 93.062615 291.788776 
L 93.471762 260.423348 
L 93.575672 287.145137 
L 93.80947 281.073377 
L 93.997808 287.001298 
L 94.2381 289.925031 
L 94.40046 279.231156 
L 94.569314 291.659661 
L 94.809606 287.763319 
L 94.87455 291.299086 
L 95.101854 278.462696 
L 95.186281 288.553249 
L 95.316169 278.52887 
L 95.582439 290.295639 
L 95.686349 289.326601 
L 95.829225 283.50157 
L 96.024057 293.890778 
L 96.160439 291.531764 
L 96.225383 291.548768 
L 96.426709 291.182568 
L 96.972238 272.317897 
L 97.076148 288.924712 
L 97.290463 260.487551 
L 97.400868 286.466908 
L 97.517767 283.758346 
L 97.576216 293.089057 
L 97.706104 283.002414 
L 97.881453 290.114149 
L 97.959385 290.216568 
L 98.167206 267.71817 
L 98.550375 291.034076 
L 98.816645 272.289914 
L 99.03096 286.754882 
L 99.303724 256.029031 
L 99.485567 290.877206 
L 99.576488 286.965185 
L 99.660915 287.727356 
L 99.738848 292.027895 
L 99.894713 275.206334 
L 100.063568 289.56216 
L 100.225927 274.462754 
L 100.427253 288.128433 
L 100.557141 288.85741 
L 100.810422 281.374189 
L 101.096176 277.037131 
L 101.141636 294.193758 
L 101.245547 284.74335 
L 101.323479 291.682807 
L 101.388423 291.377032 
L 101.479345 291.31867 
L 101.693659 286.849043 
L 101.849525 283.534828 
L 101.933952 295.266759 
L 102.076828 283.311718 
L 102.511953 178.401765 
L 102.693795 291.321506 
L 102.797706 282.94513 
L 102.921099 288.566913 
L 103.219841 277.375945 
L 103.304268 290.983518 
L 103.518583 289.599091 
L 103.667954 289.69914 
L 103.823819 281.076945 
L 104.096584 289.219465 
L 104.168022 291.65028 
L 104.29791 290.798843 
L 104.434292 286.793486 
L 104.603146 269.606488 
L 104.791483 290.215201 
L 105.03827 283.528104 
L 105.116203 293.346681 
L 105.207124 285.301757 
L 105.30454 286.607901 
L 105.62926 282.845097 
L 105.817597 271.575642 
L 105.915013 293.012471 
L 106.044901 291.42699 
L 106.434564 283.221332 
L 106.876183 231.272528 
L 106.967104 289.996995 
L 107.096992 285.019098 
L 107.278835 291.674467 
L 107.532116 280.093362 
L 107.687981 281.728841 
L 107.80488 286.020784 
L 108.058161 253.181526 
L 108.240004 293.940327 
L 108.33742 289.884826 
L 108.532252 286.288689 
L 108.623173 287.080544 
L 108.694612 289.455434 
L 108.785533 286.186697 
L 108.908927 292.19418 
L 108.993354 289.443855 
L 109.175196 288.008305 
L 109.376523 285.777882 
L 109.56486 291.164088 
L 109.707736 289.663033 
L 109.857107 278.663974 
L 109.922051 291.806037 
L 110.051939 286.446453 
L 110.188321 291.004318 
L 110.279243 287.812823 
L 110.36367 288.395842 
L 110.435108 290.813178 
L 110.649423 250.595509 
L 110.857243 284.097602 
L 111.045581 269.129989 
L 111.285873 285.04879 
L 111.3703 288.010715 
L 111.454727 287.174175 
L 111.643065 282.629394 
L 111.811919 283.449703 
L 111.90284 287.431548 
L 112.175605 264.909977 
L 112.247043 292.257062 
L 112.532796 276.038353 
L 112.604234 290.155174 
L 112.747111 277.103415 
L 112.896482 273.984942 
L 113.091314 291.408508 
L 113.467988 282.894502 
L 113.539426 292.780451 
L 113.688797 285.891969 
L 113.87064 289.473242 
L 114.065472 285.556234 
L 114.143405 289.421084 
L 114.344731 291.794669 
L 114.688933 273.967122 
L 114.961698 292.131148 
L 115.214979 281.823046 
L 115.286417 291.126072 
L 115.507227 280.571656 
L 115.812463 232.617104 
L 116.026778 288.793017 
L 116.098216 292.632098 
L 116.247587 274.722591 
L 116.422935 289.637675 
L 116.526846 285.898025 
L 116.611273 288.457545 
L 116.702194 287.40717 
L 116.773633 292.34684 
L 117.007431 287.422074 
L 117.111341 291.246231 
L 117.260712 277.158633 
L 117.33215 289.769028 
L 117.429566 285.010582 
L 117.507499 293.445917 
L 117.611409 283.880221 
L 117.825724 290.366034 
L 117.916645 285.828039 
L 118.163432 247.996779 
L 118.299814 287.878415 
L 118.514129 279.68293 
L 118.579073 291.458067 
L 118.650511 289.47627 
L 118.786893 287.246396 
L 118.897298 288.976065 
L 119.040175 284.493196 
L 119.267478 261.187589 
L 119.559726 267.089596 
L 119.663636 283.391586 
L 119.910423 247.708737 
L 120.183187 286.619631 
L 120.352041 289.184821 
L 120.839121 251.565445 
L 120.904064 292.19505 
L 121.046941 279.642777 
L 121.157346 288.570997 
L 121.280739 280.018011 
L 121.391144 282.139363 
L 121.767818 272.258474 
L 122.22892 218.764858 
L 122.39128 289.523927 
L 122.5991 278.031182 
L 122.858876 283.186447 
L 122.982269 279.696165 
L 123.105663 281.061349 
L 123.183595 289.985668 
L 123.274517 285.918773 
L 123.371933 286.019251 
L 123.482337 284.30779 
L 123.683663 257.114296 
L 124.040855 292.209492 
L 124.112293 289.595642 
L 124.5669 209.41947 
L 124.761732 290.146993 
L 124.878631 290.20626 
L 124.950069 293.337889 
L 125.040991 288.596279 
L 125.183867 290.927306 
L 125.417665 243.814558 
L 125.69043 250.232695 
L 125.950205 289.509969 
L 126.067104 281.602396 
L 126.184003 283.594558 
L 126.300902 289.817511 
L 126.424296 280.404762 
L 126.632116 291.618816 
L 126.768498 287.325696 
L 126.904881 277.06049 
L 127.008791 284.454951 
L 127.216611 270.965847 
L 127.301038 290.239481 
L 127.541331 267.548841 
L 127.645241 290.569427 
L 127.781623 284.23711 
L 127.898522 290.157183 
L 128.041399 290.504141 
L 128.35313 271.534133 
L 128.547961 291.575751 
L 128.76877 287.416543 
L 128.879175 291.691707 
L 129.015557 288.714173 
L 129.171423 288.802478 
L 129.275333 289.706473 
L 129.346771 292.736389 
L 129.489648 277.959916 
L 129.580569 290.57589 
L 129.781895 285.540785 
L 129.885806 289.249153 
L 130.067648 278.062269 
L 130.333918 250.536351 
L 130.418345 288.996236 
L 130.574211 288.438877 
L 130.671627 290.418816 
L 130.840481 288.684869 
L 130.89893 292.127498 
L 130.970369 291.189732 
L 131.158706 272.297406 
L 131.236639 288.332387 
L 131.32756 286.50806 
L 131.457448 286.733448 
L 131.574347 283.456529 
L 131.769179 288.664707 
L 132.06792 241.582649 
L 132.28873 264.002447 
L 132.412123 294.046695 
L 132.613449 287.701355 
L 132.691382 290.415248 
L 132.86673 274.463865 
L 133.120012 290.044033 
L 133.282371 286.560563 
L 133.425248 278.877562 
L 133.600596 290.043741 
L 133.918822 282.040865 
L 134.15262 291.444237 
L 134.289002 287.364504 
L 134.36044 290.558623 
L 134.451362 288.117564 
L 134.535789 289.922804 
L 134.620216 288.1479 
L 134.802059 268.174421 
L 134.931946 285.398748 
L 135.068329 288.4818 
L 135.477475 242.852516 
L 135.685296 291.161378 
L 135.847655 276.885007 
L 136.100937 285.922827 
L 136.646465 238.434196 
L 136.750376 285.246432 
L 136.854286 283.703095 
L 137.016646 281.604737 
L 137.088084 290.42255 
L 137.282915 267.226228 
L 137.380331 287.584359 
L 137.490736 284.546084 
L 137.594646 290.829829 
L 137.685568 287.785383 
L 137.847927 276.872994 
L 137.919366 289.895638 
L 137.997298 289.301677 
L 138.055748 293.914783 
L 138.25058 282.789542 
L 138.523344 292.189192 
L 138.601277 289.912099 
L 138.822086 275.11455 
L 138.913007 288.487899 
L 139.068873 291.108883 
L 139.211749 277.966666 
L 139.341637 280.083164 
L 139.549458 289.333305 
L 139.633885 293.232091 
L 139.692334 292.494071 
L 139.796244 291.809085 
L 139.854694 294.913379 
L 139.958604 287.295334 
L 140.062514 288.633029 
L 140.26384 288.111361 
L 140.413211 292.269679 
L 140.48465 290.579443 
L 140.672987 289.85793 
L 140.737931 291.826374 
L 140.809369 289.005771 
L 141.192538 195.875758 
L 141.289954 293.034249 
L 141.445819 290.518253 
L 141.614673 268.898425 
L 141.997842 202.237239 
L 142.342045 218.492278 
L 142.406989 291.716574 
L 142.562854 274.66885 
L 142.712225 288.827895 
L 142.855102 286.122358 
L 142.913551 292.613924 
L 143.121372 271.376976 
L 143.290226 270.417106 
L 143.45908 284.752711 
L 143.738339 244.034081 
L 143.835755 290.710108 
L 144.056564 285.619555 
L 144.264385 259.001864 
L 144.335823 289.185467 
L 144.439733 286.047625 
L 144.660542 262.849156 
L 144.718992 291.890659 
L 144.809913 288.476407 
L 144.887846 289.688202 
L 144.985262 286.770981 
L 145.290498 263.199677 
L 145.48533 291.682145 
L 145.563262 287.436343 
L 145.777577 290.572522 
L 146.258162 230.484936 
L 146.342589 290.182132 
L 146.465983 288.4039 
L 146.751736 278.480634 
L 146.992028 294.80385 
L 147.147894 281.416884 
L 147.238815 291.427031 
L 147.427152 264.883257 
L 147.531063 288.390901 
L 147.836299 274.488146 
L 147.933715 286.016997 
L 148.031131 285.595219 
L 148.225962 287.579347 
L 148.381828 273.668069 
L 148.479243 287.869283 
L 148.635109 286.522668 
L 149.21311 185.60529 
L 149.323514 290.126285 
L 149.518346 278.173125 
L 149.674211 283.234596 
L 149.732661 292.511495 
L 149.823582 290.224476 
L 149.966459 273.586939 
L 150.141807 292.700147 
L 150.21974 288.453161 
L 150.667853 234.685835 
L 150.797741 287.413205 
L 150.9601 270.477552 
L 151.115966 272.531349 
L 151.265337 277.104746 
L 151.414708 291.513511 
L 152.064147 133.77263 
L 152.284956 290.394632 
L 152.590192 274.400606 
L 152.785024 276.336188 
L 153.025316 289.771772 
L 153.109743 286.470547 
L 153.174687 293.069244 
L 153.382508 264.484744 
L 153.668261 282.235085 
L 153.934531 290.000305 
L 154.038441 284.838879 
L 154.337183 222.305395 
L 154.557992 290.623385 
L 154.68788 281.129836 
L 154.804779 281.314435 
L 154.986622 288.7659 
L 155.551634 161.194584 
L 155.668533 280.985938 
L 155.830893 288.034828 
L 155.967275 284.77483 
L 156.064691 287.577626 
L 156.240039 264.691061 
L 156.330961 286.337009 
L 156.44786 286.883697 
L 156.837523 277.084811 
L 156.908961 290.293263 
L 157.077816 274.138722 
L 157.207703 292.135984 
L 157.285636 291.466245 
L 157.45449 280.424425 
L 157.636333 280.516975 
L 157.844154 288.663203 
L 158.116918 272.200446 
L 158.318244 281.790729 
L 158.57802 234.876421 
L 158.662447 290.594428 
L 159.013144 281.529442 
L 159.279414 231.792061 
L 159.831437 170.654918 
L 160.214606 286.05804 
L 160.32501 285.030931 
L 160.415932 285.949255 
L 160.48737 289.287198 
L 160.766629 231.708344 
L 160.877034 288.374019 
L 161.01991 278.100308 
L 161.370607 217.256144 
L 161.55245 276.362667 
L 161.688832 277.659513 
L 161.851192 291.437719 
L 162.318788 243.388041 
L 162.546092 277.641017 
L 162.864317 289.338012 
L 163.137081 231.721594 
L 163.286452 289.647625 
L 163.390362 289.187255 
L 163.494273 287.260686 
L 164.039801 227.197632 
L 164.150206 283.9733 
L 164.358027 277.120289 
L 164.448948 290.545569 
L 165.065915 193.629445 
L 165.312702 292.061204 
L 165.410118 293.78531 
L 165.630927 244.084057 
L 166.098523 204.131681 
L 166.377782 231.535297 
L 166.494681 283.627591 
L 166.760951 243.166636 
L 167.098659 213.592375 
L 167.442862 209.936792 
L 167.553266 283.62443 
L 167.78057 263.221597 
L 168.014368 278.584476 
L 168.280638 232.762657 
L 168.47547 289.088538 
L 168.735245 277.260082 
L 169.020998 230.190734 
L 169.183358 290.376337 
L 169.37819 250.882564 
L 169.527561 272.30485 
L 169.741876 274.640278 
L 170.001651 232.170483 
L 170.391315 187.633157 
L 170.495225 284.267487 
L 170.677068 283.599523 
L 170.988798 229.10882 
L 171.138169 272.378921 
L 171.307024 272.635036 
L 171.475878 295.488 
L 171.846058 216.497633 
L 172.060373 267.34109 
L 172.670845 187.267225 
L 172.846194 273.541391 
L 173.073498 240.873844 
L 173.287812 284.116661 
L 173.657993 268.597186 
L 174.385364 179.815669 
L 174.846466 156.933099 
L 175.210152 221.471102 
L 175.456939 236.805058 
L 176.236265 219.061006 
L 176.677884 224.937454 
L 176.892199 245.394254 
L 177.080536 289.92669 
L 177.346806 254.15796 
L 177.567615 288.589818 
L 177.768941 261.715948 
L 178.041706 249.894421 
L 178.398897 202.539048 
L 178.827527 283.889188 
L 179.574382 205.898648 
L 179.70427 286.92834 
L 180.334225 128.101737 
L 180.477102 280.840122 
L 180.639462 290.742614 
L 181.113552 240.866536 
L 181.197979 287.296409 
L 181.314878 284.773597 
L 181.561665 235.587477 
L 182.120183 198.948064 
L 182.438408 277.846229 
L 182.776116 222.238997 
L 182.996925 247.187832 
L 183.399577 203.310223 
L 183.529465 282.93409 
L 184.055511 161.288919 
L 184.665983 190.231815 
L 185.01668 240.432419 
L 185.269962 236.587294 
L 185.464793 281.298001 
L 185.893423 221.287088 
L 186.101244 248.832057 
L 186.653267 161.765869 
L 186.919537 283.430772 
L 187.47156 139.04222 
L 187.874212 267.702859 
L 188.146976 258.725554 
L 188.419741 281.807281 
L 188.686011 287.374956 
L 188.841876 287.299032 
L 189.095157 238.355809 
L 189.686147 188.483571 
L 189.939428 256.265043 
L 190.439496 147.288401 
L 190.77071 226.089947 
L 191.173362 228.783272 
L 191.933206 165.573603 
L 192.115048 253.872533 
L 192.381318 231.867927 
L 192.654083 259.510692 
L 192.965814 230.681797 
L 193.348983 219.208892 
L 193.47887 276.881974 
L 193.842556 236.317181 
L 194.154287 217.400262 
L 194.54395 226.16123 
L 194.758265 246.604721 
L 195.199884 219.4227 
L 195.407704 249.525362 
L 195.972716 172.517288 
L 196.537728 278.383906 
L 196.726065 251.190914 
L 197.180672 218.584639 
L 198.304202 123.27618 
L 198.784787 259.25358 
L 199.570608 163.405576 
L 199.901822 226.054447 
L 200.447351 238.968977 
L 200.681149 289.762562 
L 200.973396 223.346157 
L 201.246161 233.875129 
L 201.499442 287.286399 
L 201.843644 267.482303 
L 202.551533 178.720683 
L 202.674926 278.404072 
L 202.980163 231.02919 
L 203.174994 251.460164 
L 203.506208 217.535713 
L 203.727017 242.153974 
L 204.831064 209.356576 
L 205.103828 286.685509 
L 205.357109 238.350295 
L 205.954593 177.217656 
L 206.785875 229.366911 
L 207.091111 229.195323 
L 207.786011 192.657117 
L 208.27309 211.534939 
L 208.454933 253.297846 
L 208.753675 230.745359 
L 208.980979 251.955476 
L 209.455069 237.419012 
L 209.818755 221.89614 
L 210.208418 231.086742 
L 210.448711 240.673793 
L 211.208554 224.745464 
L 211.429364 244.857688 
L 211.786555 226.176683 
L 211.987881 250.59489 
L 212.332084 218.025995 
L 212.689275 269.323363 
L 212.890601 250.400962 
L 213.091927 250.196912 
L 213.377681 229.015916 
L 213.676423 221.206192 
L 213.884243 248.88435 
L 214.176491 228.312803 
L 214.429772 234.74084 
L 214.832424 187.441795 
L 215.384447 238.446649 
L 215.624739 239.398863 
L 215.839054 248.95125 
L 216.066358 244.402969 
L 216.533954 211.776705 
L 216.79373 233.480231 
L 217.137932 223.028374 
L 217.586045 214.379227 
L 217.884787 243.606231 
L 218.164046 228.741994 
L 218.358878 250.83638 
L 218.65762 222.851255 
L 219.261598 221.286257 
L 219.586317 224.463007 
L 219.82661 236.759039 
L 220.216273 199.786377 
L 220.456565 238.545299 
L 220.976117 223.030209 
L 221.287847 225.376455 
L 222.313961 113.155115 
L 223.151737 220.342231 
L 223.59985 170.928422 
L 223.827154 241.693186 
L 224.431132 249.00327 
L 224.879245 241.442602 
L 225.294886 197.833623 
L 225.587133 220.183674 
L 225.970302 198.031346 
L 226.515831 130.054099 
L 226.924978 186.971753 
L 227.295158 205.901937 
L 227.847181 120.939301 
L 228.477137 116.682526 
L 229.022666 128.782985 
L 229.581183 121.627466 
L 229.763026 252.910765 
L 230.373499 110.420386 
L 230.56833 251.350297 
L 231.113859 127.006204 
L 231.659388 128.301352 
L 232.237389 120.40252 
L 232.458198 245.994457 
L 233.003727 133.897468 
L 233.575233 114.968787 
L 234.146739 115.729254 
L 234.672785 141.477122 
L 234.854628 255.225936 
L 235.530044 106.337955 
L 236.140517 130.839704 
L 236.738001 106.095815 
L 237.32899 113.02179 
L 237.906991 117.845516 
L 238.627868 101.54623 
L 239.160408 133.016344 
L 239.72542 127.171889 
L 240.264454 136.442414 
L 240.816477 135.377985 
L 241.342523 134.71642 
L 241.920524 125.510363 
L 242.472547 121.804366 
L 243.02457 134.907835 
L 243.537627 151.163969 
L 244.096144 119.51045 
L 244.635179 135.953155 
L 245.206685 117.655985 
L 245.752214 124.166123 
L 246.460102 113.561181 
L 247.258912 107.513899 
L 247.466733 248.701905 
L 248.005767 128.574076 
L 248.544801 128.920096 
L 249.096824 130.638734 
L 249.635859 133.102766 
L 250.174893 140.592114 
L 250.707433 133.318934 
L 251.246467 135.097312 
L 251.863435 131.742673 
L 252.408963 134.523282 
L 252.954492 134.541 
L 253.480538 134.071811 
L 254.032561 130.43736 
L 254.565101 130.514452 
L 255.149596 119.279875 
L 255.701619 122.597291 
L 256.253642 121.810314 
L 256.779688 132.556673 
L 257.403149 106.911896 
L 257.974655 112.468842 
L 258.539667 115.657805 
L 259.065713 132.76491 
L 259.585264 133.480187 
L 260.124298 126.984008 
L 260.663333 129.836702 
L 261.189378 140.092448 
L 262.280436 131.300173 
L 262.825964 141.101621 
L 263.371493 132.061537 
L 263.930011 129.805293 
L 264.488528 120.997122 
L 265.579586 129.732732 
L 266.125114 131.32044 
L 266.657654 129.116437 
L 267.235655 108.506574 
L 267.787678 132.957401 
L 268.339701 134.110854 
L 268.865747 146.558985 
L 269.424264 122.627139 
L 269.989276 123.277885 
L 270.547794 136.875135 
L 271.080334 130.822873 
L 271.612874 128.981335 
L 272.18438 126.238999 
L 272.71692 143.261664 
L 273.255954 129.796385 
L 273.820966 128.342369 
L 274.385978 118.624554 
L 274.938001 137.75729 
L 275.477036 143.284236 
L 276.055036 124.877875 
L 276.613554 138.195215 
L 277.18506 130.853125 
L 277.724095 131.076398 
L 278.269623 140.035165 
L 278.815152 131.485757 
L 279.37367 140.631256 
L 279.925693 123.107822 
L 280.445244 134.338147 
L 280.990773 142.126145 
L 281.523313 138.102468 
L 282.08183 119.753999 
L 282.601381 138.03947 
L 283.133921 135.578901 
L 283.659967 150.519629 
L 284.731541 129.07376 
L 285.257587 135.740298 
L 285.777138 139.656416 
L 286.296689 135.886201 
L 286.829229 133.613171 
L 287.355275 139.636212 
L 287.874826 136.47594 
L 288.400871 134.78419 
L 288.959389 138.081663 
L 290.024469 127.457594 
L 290.54402 142.827553 
L 291.07656 130.839901 
L 291.596111 136.842694 
L 292.115662 137.323547 
L 292.661191 124.392285 
L 293.219709 138.42859 
L 293.752249 139.458954 
L 294.291283 137.829475 
L 294.849801 138.034087 
L 295.369352 139.377978 
L 295.895397 135.884514 
L 296.421443 137.651239 
L 296.947488 135.900026 
L 297.506006 138.53125 
L 298.04504 128.326364 
L 298.597063 140.754058 
L 299.142592 142.93181 
L 299.694615 140.519696 
L 300.253133 140.145612 
L 300.81165 137.599141 
L 301.363673 139.863002 
L 301.915697 139.545933 
L 302.46772 136.918476 
L 303.013248 138.382853 
L 303.539294 149.472496 
L 304.058845 149.656232 
L 304.610868 136.518393 
L 305.162891 141.134376 
L 305.682443 150.597259 
L 306.227971 140.613044 
L 306.754017 151.724632 
L 307.293051 143.041765 
L 307.825591 145.192728 
L 308.351637 137.182677 
L 308.897166 143.462464 
L 309.442694 142.182055 
L 309.96874 149.497868 
L 310.527257 122.586561 
L 311.072786 137.325018 
L 311.631304 119.775199 
L 312.189821 123.420163 
L 312.709372 139.09491 
L 313.241912 138.178923 
L 314.339464 135.496112 
L 314.891487 141.206632 
L 315.462994 126.570405 
L 316.021511 130.987993 
L 316.573534 138.227907 
L 317.132052 138.816355 
L 317.664592 147.165716 
L 318.223109 139.0731 
L 318.781627 138.82294 
L 319.346639 137.866357 
L 319.892168 144.656916 
L 320.476663 132.155146 
L 321.554731 143.688446 
L 322.113249 134.146023 
L 322.671766 139.006828 
L 323.236778 135.764314 
L 323.749835 152.009646 
L 324.295364 141.550249 
L 324.847387 140.613878 
L 325.392916 138.992483 
L 325.925456 130.488874 
L 326.445007 138.8751 
L 326.990536 142.732706 
L 327.549053 139.861899 
L 328.094582 143.097836 
L 328.646605 137.53216 
L 329.192134 143.445418 
L 329.731168 145.161409 
L 330.289686 138.578727 
L 330.82872 144.848143 
L 331.374249 139.974903 
L 331.919777 140.173164 
L 332.471801 142.807511 
L 333.010835 142.309432 
L 333.575847 138.545802 
L 334.12787 138.900381 
L 334.647421 138.223035 
L 335.205939 138.643394 
L 335.744973 138.864487 
L 336.290502 143.523066 
L 336.829536 146.277532 
L 337.407537 129.051125 
L 337.95956 140.00668 
L 338.511583 142.276283 
L 339.083089 132.048044 
L 339.635112 142.027163 
L 340.19363 141.061869 
L 340.745653 136.554432 
L 341.291182 144.054267 
L 341.843205 139.671802 
L 342.382239 138.763235 
L 342.927768 137.6234 
L 343.466802 129.670829 
L 344.038309 132.332287 
L 344.570849 138.564211 
L 345.129366 138.705611 
L 345.681389 135.891817 
L 346.233413 136.898882 
L 346.785436 140.060581 
L 347.304987 152.001052 
L 347.844021 141.807362 
L 348.383056 137.964217 
L 348.941573 139.195417 
L 349.467619 137.674932 
L 350.026136 137.584563 
L 350.558676 137.213862 
L 351.09771 138.62877 
L 351.63025 135.541472 
L 352.182274 141.996104 
L 352.734297 137.302805 
L 353.260342 135.240838 
L 353.805871 136.688178 
L 354.338411 136.368597 
L 354.857962 134.812253 
L 355.396996 137.434335 
L 355.955514 136.66025 
L 356.52702 133.634712 
L 357.079043 140.595074 
L 357.637561 135.902412 
L 358.215562 127.727608 
L 358.767585 139.349915 
L 359.319608 141.814073 
L 359.865137 143.62404 
L 360.410665 143.432535 
L 360.969183 139.973369 
L 361.521206 139.660516 
L 362.086218 137.685303 
L 362.638241 142.100918 
L 363.196759 140.531332 
L 363.755276 137.986709 
L 364.307299 138.217653 
L 364.859322 142.186972 
L 365.411346 139.796228 
L 365.963369 142.267984 
L 366.528381 137.668365 
L 367.060921 147.771685 
L 367.625932 138.084615 
L 368.164967 145.53665 
L 369.288496 135.982644 
L 369.847014 137.75834 
L 370.431509 124.59103 
L 371.022498 123.736237 
L 371.606993 110.858661 
L 372.172005 116.263451 
L 372.769489 108.311526 
L 373.34749 121.34508 
L 373.931985 111.926283 
L 374.51648 115.323142 
L 375.120458 117.067483 
L 375.691965 123.887039 
L 376.237493 143.324106 
L 376.783022 143.376329 
L 377.361023 131.770942 
L 377.91954 141.432094 
L 378.465069 143.821457 
L 379.004103 144.656414 
L 379.536643 146.760457 
L 380.114644 129.055225 
L 380.653678 145.902569 
L 381.21869 133.876726 
L 381.764219 140.024417 
L 382.290265 151.823551 
L 382.835793 145.387176 
L 383.874896 152.306306 
L 384.400941 150.20115 
L 384.933481 151.015867 
L 385.433549 159.398101 
L 385.985572 140.715516 
L 386.511618 148.982663 
L 387.057147 141.061384 
L 387.615664 139.205995 
L 388.193665 134.701285 
L 388.752182 136.421905 
L 389.3107 133.719896 
L 389.882206 128.058674 
L 390.460207 129.498613 
L 391.031713 134.065073 
L 391.609714 119.446762 
L 391.609714 119.446762 
" clip-path="url(#pe45b19b347)" style="fill: none; stroke: #1f77b4; stroke-width: 1.5; stroke-linecap: square"/>
   </g>
   <g id="line2d_14">
    <path d="M 138.711681 261.15621 
L 203.655579 247.419128 
L 268.599477 140.777364 
L 333.543375 140.211108 
L 398.487273 139.397329 
" clip-path="url(#pe45b19b347)" style="fill: none; stroke: #ff7f0e; stroke-width: 1.5; stroke-linecap: square"/>
   </g>
   <g id="line2d_15">
    <path d="M 73.832727 290.867116 
L 73.91066 289.407344 
L 73.988593 290.696282 
L 74.07302 288.435014 
L 74.163941 288.461483 
L 74.254863 290.212802 
L 74.358773 285.942087 
L 74.462683 291.01584 
L 74.566593 286.70367 
L 74.676998 288.816716 
L 75.014706 285.726171 
L 75.151088 280.373989 
L 75.293965 288.022965 
L 75.443336 281.387844 
L 75.50828 290.997587 
L 75.586213 290.741133 
L 75.852482 283.739561 
L 75.917426 290.819325 
L 76.027831 287.183027 
L 76.131741 290.777336 
L 76.462955 280.184695 
L 76.774686 292.151794 
L 76.898079 286.385084 
L 76.982506 289.699093 
L 77.125383 290.627519 
L 77.294237 272.679312 
L 77.437114 288.35817 
L 77.586485 281.166048 
L 77.696889 283.122143 
L 77.865743 290.47731 
L 77.937182 289.549244 
L 78.346328 276.463613 
L 78.411272 291.555223 
L 78.593115 284.322627 
L 78.859385 287.886111 
L 78.989273 284.544544 
L 79.164621 270.074108 
L 79.28152 282.363488 
L 79.44388 284.349 
L 79.515318 290.571319 
L 79.762105 285.810313 
L 79.943948 268.055847 
L 80.132285 287.632679 
L 80.229701 285.53685 
L 80.398555 272.456873 
L 80.547926 292.589483 
L 81.047994 244.973657 
L 81.119433 289.319696 
L 81.268804 273.760523 
L 81.522085 290.493042 
L 81.853299 257.36224 
L 81.983186 279.482602 
L 82.203996 264.960587 
L 82.281928 288.032056 
L 82.554693 260.591823 
L 82.684581 286.382793 
L 82.866423 286.049811 
L 83.041772 275.519799 
L 83.119705 289.576854 
L 83.223615 287.673343 
L 83.295053 290.150222 
L 83.37948 288.511218 
L 83.457413 291.88521 
L 83.580806 282.478369 
L 83.7042 286.13356 
L 84.048402 266.340678 
L 84.145818 284.575779 
L 84.288695 286.646712 
L 84.613414 250.291636 
L 84.879684 274.411661 
L 85.074516 275.665794 
L 85.230381 290.210223 
L 85.321303 292.088333 
L 85.431707 289.454962 
L 85.581078 289.385811 
L 85.678494 287.647353 
L 85.77591 289.588231 
L 85.931775 286.434154 
L 86.061663 280.46019 
L 86.120113 291.733496 
L 86.327933 288.288496 
L 86.63317 255.290804 
L 86.730585 285.684668 
L 86.89944 286.335454 
L 87.152721 271.934949 
L 87.276114 282.799465 
L 87.444968 277.551606 
L 87.678766 291.293275 
L 88.042452 275.098722 
L 88.139868 290.653476 
L 88.263261 285.391662 
L 88.399644 285.200313 
L 88.523037 282.115955 
L 88.613958 289.992359 
L 88.737352 284.034009 
L 88.80879 290.986207 
L 88.899712 285.774084 
L 89.140004 289.132551 
L 89.39978 256.246719 
L 89.646566 263.641242 
L 89.808926 290.563061 
L 90.042724 288.655758 
L 90.218073 282.666254 
L 90.40641 285.23549 
L 90.490837 288.651852 
L 90.679174 285.734294 
L 90.783085 285.755849 
L 90.886995 290.01191 
L 91.029871 283.108889 
L 91.094815 290.694946 
L 91.30913 271.418318 
L 91.374074 291.717811 
L 91.439018 291.529103 
L 91.594883 281.308413 
L 91.685805 290.546306 
L 91.815693 291.816685 
L 92.010524 277.542904 
L 92.16639 277.878232 
L 92.237828 290.503485 
L 92.361221 280.296135 
L 92.43266 290.893829 
L 92.543064 286.427023 
L 92.757379 262.134582 
L 93.01066 291.562361 
L 93.452279 238.156942 
L 93.776998 288.672233 
L 93.861425 288.554719 
L 93.945852 287.027673 
L 94.043268 288.08807 
L 94.121201 292.603093 
L 94.290055 287.598487 
L 94.44592 275.87685 
L 94.601786 289.460955 
L 95.101854 272.754746 
L 95.316169 291.367482 
L 95.549967 279.395158 
L 95.920147 246.003133 
L 96.024057 290.720589 
L 96.160439 280.615 
L 96.296822 282.367086 
L 96.381249 290.627997 
L 96.569586 286.636068 
L 96.816373 284.372158 
L 96.972238 291.765209 
L 97.413857 261.063768 
L 97.491789 289.752642 
L 97.719093 283.6035 
L 97.939902 254.577016 
L 98.1737 288.566993 
L 98.271116 289.732813 
L 98.420487 274.125928 
L 98.511408 288.227091 
L 98.628307 287.14696 
L 98.823139 277.936244 
L 98.966016 289.393923 
L 99.037454 288.697387 
L 99.23878 286.621864 
L 99.531028 245.619205 
L 99.751837 259.609573 
L 99.868736 283.774136 
L 100.076556 273.80731 
L 100.277882 290.196522 
L 100.492197 272.029519 
L 100.764962 288.065058 
L 100.959793 287.060836 
L 101.122153 285.979631 
L 101.271524 281.30807 
L 101.420895 280.581571 
L 101.667682 256.782515 
L 101.869008 292.38666 
L 101.992401 287.817878 
L 102.070334 290.197288 
L 102.492469 243.798256 
L 102.739256 292.231067 
L 102.86265 287.376693 
L 102.96656 285.723108 
L 103.219841 248.431297 
L 103.356223 289.344685 
L 103.44065 288.69548 
L 103.654965 290.443062 
L 103.791347 283.131931 
L 103.999168 288.192929 
L 104.232966 266.75345 
L 104.375842 290.454804 
L 104.655101 259.626821 
L 104.927866 287.477175 
L 105.044765 288.456523 
L 105.272068 284.241416 
L 105.62926 274.068583 
L 105.759147 280.660279 
L 105.811103 292.753177 
L 106.031912 278.579882 
L 106.278699 275.623692 
L 106.356631 290.271841 
L 106.460542 288.96747 
L 106.551463 286.75551 
L 106.629396 291.061916 
L 106.720317 290.879851 
L 106.785261 292.245239 
L 107.071014 283.062979 
L 107.311307 291.345146 
L 107.415217 287.622586 
L 107.551599 287.758073 
L 107.947757 214.818353 
L 108.168566 285.703541 
L 108.421847 291.428172 
L 108.590701 292.606494 
L 108.908927 272.803493 
L 109.253129 286.051473 
L 109.396006 283.555334 
L 109.642793 262.077244 
L 110.116883 253.424265 
L 110.266254 289.415278 
L 110.396142 281.236079 
L 110.513041 281.747981 
L 110.720861 279.113476 
L 110.909199 265.973261 
L 111.16248 289.697744 
L 111.32484 277.284549 
L 111.461222 285.546424 
L 111.604098 278.046777 
L 111.785941 279.150389 
L 111.870368 289.38313 
L 112.110661 254.056415 
L 112.208077 289.023638 
L 112.49383 231.056696 
L 112.734122 286.975127 
L 112.818549 287.838961 
L 113.052347 271.389566 
L 113.299134 288.208538 
L 113.422527 288.821197 
L 113.474483 292.504359 
L 113.565404 286.55414 
L 113.76673 290.058272 
L 113.987539 285.600092 
L 114.149899 291.198127 
L 114.266798 281.017495 
L 114.351225 288.67341 
L 114.455135 288.125539 
L 114.559046 285.014325 
L 114.649967 290.200167 
L 114.721405 290.02922 
L 115.124058 256.411608 
L 115.266934 283.454164 
L 115.448777 286.988225 
L 115.520215 290.615145 
L 115.702058 273.200705 
L 115.799474 287.068085 
L 115.929362 288.632666 
L 116.033272 283.965781 
L 116.273565 290.66553 
L 116.377475 285.800635 
L 116.546329 291.47803 
L 116.611273 290.421246 
L 116.669722 291.361814 
L 116.845071 282.854503 
L 116.935992 287.587347 
L 117.059386 281.985928 
L 117.397094 254.243563 
L 117.578937 291.549879 
L 117.851701 275.099348 
L 117.92314 290.774834 
L 118.085499 285.388363 
L 118.182915 290.900211 
L 118.618039 226.862148 
L 118.819365 272.711179 
L 118.994714 277.874999 
L 119.072647 291.315229 
L 119.176557 282.740723 
L 119.3584 292.544217 
L 119.559726 271.000064 
L 119.767546 290.535043 
L 119.858468 287.01773 
L 120.053299 286.841546 
L 120.455952 274.314094 
L 120.533884 290.663189 
L 120.748199 272.538692 
L 120.865098 282.051712 
L 121.007975 280.249463 
L 121.144357 281.740517 
L 121.345683 289.467749 
L 121.410627 290.895238 
L 121.501548 286.549652 
L 121.69638 270.498612 
L 122.008111 264.956244 
L 122.112021 290.782691 
L 122.248403 276.425953 
L 122.397774 291.60251 
L 122.482201 290.901677 
L 122.605595 282.423793 
L 122.76146 292.178126 
L 123.19009 275.654305 
L 123.352449 289.285471 
L 123.553775 266.799698 
L 123.800562 288.960564 
L 123.878495 289.898842 
L 124.008383 287.673042 
L 124.079821 290.592354 
L 124.170743 288.109943 
L 124.339597 277.718703 
L 124.586383 287.058647 
L 124.859148 282.735625 
L 124.982541 287.647694 
L 125.060474 287.469497 
L 125.177373 287.636972 
L 125.248811 289.161477 
L 125.489104 243.624246 
L 125.677441 288.70617 
L 125.781351 283.507359 
L 126.132048 225.742598 
L 126.261936 291.095377 
L 126.359352 288.131509 
L 126.463262 288.878079 
L 126.599644 285.692469 
L 126.723038 285.939918 
L 126.820454 285.462531 
L 127.034768 277.390294 
L 127.242589 288.138087 
L 127.346499 285.316686 
L 127.437421 292.746388 
L 127.612769 274.65736 
L 127.76214 280.029574 
L 127.82059 291.857151 
L 127.930994 283.865116 
L 127.995938 290.242002 
L 128.106343 286.625207 
L 128.307669 287.111348 
L 128.385601 291.533202 
L 128.651871 283.890836 
L 128.807737 271.781784 
L 129.03504 289.646773 
L 129.177917 278.46951 
L 129.262344 290.160443 
L 129.366254 286.573892 
L 129.476659 287.614422 
L 129.548097 291.599059 
L 129.905289 279.856063 
L 130.002705 288.407797 
L 130.223514 279.671035 
L 130.385874 291.379225 
L 130.5872 268.627717 
L 130.827492 258.237255 
L 130.89893 291.261968 
L 131.158706 286.942792 
L 131.347043 289.812902 
L 131.580841 270.690385 
L 131.840617 282.046331 
L 132.061426 284.033277 
L 132.152348 288.778668 
L 132.379651 262.080817 
L 132.684888 288.865401 
L 133.100528 274.401806 
L 133.184956 287.273117 
L 133.321338 278.605374 
L 133.379787 291.622569 
L 133.568125 288.095003 
L 133.762956 289.462605 
L 133.912327 281.153809 
L 134.120148 281.230783 
L 134.263024 289.323687 
L 134.438373 290.249081 
L 134.529294 286.273001 
L 134.607227 291.341558 
L 134.68516 290.989892 
L 134.95143 280.533639 
L 135.048845 286.033353 
L 135.185228 281.012979 
L 135.373565 292.881394 
L 135.646329 282.883352 
L 136.133408 190.920913 
L 136.204847 291.399694 
L 136.302263 287.231751 
L 136.419162 281.278882 
L 136.523072 285.154054 
L 136.717904 280.707116 
L 136.789342 289.811828 
L 136.912735 287.950807 
L 137.010151 283.835011 
L 137.107567 287.504782 
L 137.302399 282.800412 
L 137.432286 285.421599 
L 137.503725 291.606068 
L 137.666084 288.814836 
L 138.042759 203.596071 
L 138.575299 290.068381 
L 139.179277 180.534804 
L 139.289682 289.629137 
L 139.445547 281.309205 
L 139.549458 288.553644 
L 139.724806 283.996807 
L 139.887166 283.790331 
L 140.153436 291.153016 
L 140.335279 269.848917 
L 140.458672 287.362418 
L 140.549594 285.424939 
L 140.640515 289.352374 
L 140.724942 289.129502 
L 140.893796 286.917529 
L 141.075639 289.269786 
L 141.147077 289.588432 
L 141.367887 271.300169 
L 141.608179 275.879959 
L 141.699101 284.877259 
L 141.913415 257.209836 
L 142.02382 290.780562 
L 142.342045 273.438963 
L 142.666765 280.456126 
L 142.861596 273.920587 
L 142.997979 291.66778 
L 143.147349 281.909119 
L 143.433103 285.423576 
L 143.582474 277.813728 
L 143.731845 288.561488 
L 143.952654 277.561973 
L 144.199441 288.617104 
L 144.400767 291.004038 
L 144.543643 274.967513 
L 144.68652 276.950159 
L 144.835891 292.172232 
L 144.913823 288.515681 
L 144.998251 288.940075 
L 145.089172 285.654547 
L 145.271015 293.644551 
L 145.465847 284.819228 
L 145.543779 289.691224 
L 145.660678 289.749908 
L 145.758094 290.076124 
L 145.991892 281.875083 
L 146.076319 289.187251 
L 146.245173 271.793952 
L 146.530927 275.142485 
L 146.660814 285.431933 
L 146.836163 288.273862 
L 146.92059 292.634567 
L 147.225826 270.132089 
L 147.427152 265.057312 
L 147.570029 278.398392 
L 147.966187 233.279617 
L 148.057108 289.506912 
L 148.141535 288.496721 
L 148.258434 286.42584 
L 148.388322 287.794477 
L 148.563671 273.745039 
L 148.745513 277.402133 
L 148.836435 287.161679 
L 148.985806 277.514648 
L 149.161154 290.40894 
L 149.297537 279.574392 
L 149.433919 278.467568 
L 149.52484 286.062423 
L 149.667717 286.032126 
L 150.245718 158.03415 
L 150.875673 163.225698 
L 151.291314 242.390055 
L 151.375741 287.107689 
L 151.512124 280.171378 
L 151.706955 289.380029 
L 151.836843 285.967833 
L 151.940753 288.098059 
L 152.044663 283.724819 
L 152.24599 283.644686 
L 152.408349 274.032259 
L 152.635653 268.985862 
L 152.700597 291.131595 
L 152.862957 278.775743 
L 152.960372 286.016541 
L 153.168193 288.138625 
L 153.233137 291.313787 
L 153.395497 274.982994 
L 153.713722 221.349682 
L 153.830621 284.050828 
L 154.005969 280.3804 
L 154.265745 289.352659 
L 154.402127 276.241275 
L 154.493048 287.569452 
L 154.661903 284.898322 
L 154.79179 289.274571 
L 154.902195 283.061898 
L 155.090532 287.461779 
L 155.285364 262.90474 
L 155.350308 291.244398 
L 155.454218 285.075363 
L 155.584106 286.089384 
L 155.746466 283.907227 
L 155.869859 287.527958 
L 156.168601 280.824488 
L 156.291994 280.81473 
L 156.395905 282.207143 
L 156.824534 245.4855 
L 156.902467 288.886118 
L 157.071321 275.82461 
L 157.253164 290.334816 
L 157.344086 288.907311 
L 157.486962 279.637076 
L 157.662311 279.552342 
L 157.88312 248.404236 
L 158.123412 263.88475 
L 158.298761 291.241885 
L 158.597503 227.259015 
L 158.980672 196.176791 
L 159.272919 262.529623 
L 159.610628 291.555778 
L 159.727527 286.464523 
L 160.039257 268.028161 
L 160.370471 262.59232 
L 160.474381 287.385666 
L 161.28618 211.502561 
L 161.422562 280.938574 
L 161.617394 288.503455 
L 161.844698 278.390168 
L 162.1889 285.527939 
L 162.442182 255.042095 
L 162.682474 244.760088 
L 162.799373 287.43541 
L 162.994205 286.772693 
L 163.169553 283.209176 
L 163.260475 287.046619 
L 163.429329 279.888911 
L 163.513756 289.074914 
L 163.663127 282.664598 
L 163.773531 286.428627 
L 163.961869 275.861538 
L 164.48142 137.6931 
L 164.793151 280.571278 
L 165.046432 254.390098 
L 165.468567 228.85586 
L 165.624433 273.137982 
L 166.033579 289.872598 
L 166.28686 236.896038 
L 166.384276 286.740724 
L 166.618074 255.785268 
L 166.728479 286.417627 
L 166.8194 285.643874 
L 167.274008 260.203408 
L 167.468839 289.772339 
L 167.702637 275.982231 
L 167.832525 286.68967 
L 168.014368 255.863431 
L 168.144256 286.507907 
L 168.391043 249.631468 
L 168.709268 247.022143 
L 169.384684 124.691681 
L 169.469111 290.147307 
L 169.839291 276.761995 
L 170.300393 167.555778 
L 170.469247 291.932437 
L 171.066731 226.280456 
L 171.566799 210.725838 
L 172.437047 115.716191 
L 173.092981 218.057861 
L 173.196891 283.39875 
L 173.547588 216.746394 
L 173.768397 258.909403 
L 174.093117 222.19405 
L 174.287948 251.648951 
L 174.85296 207.280165 
L 175.495905 245.881898 
L 175.638782 276.863845 
L 175.840108 269.701505 
L 176.281726 226.360966 
L 176.762311 199.383414 
L 177.385772 192.50788 
L 177.535143 280.398323 
L 178.31447 195.772245 
L 178.658673 223.66651 
L 179.028853 288.597006 
L 179.587371 222.414009 
L 179.840652 288.36825 
L 179.951056 282.157971 
L 180.210832 241.111128 
L 180.321237 285.614507 
L 180.451124 290.831905 
L 180.581012 283.739941 
L 180.801821 259.619792 
L 181.048608 286.900012 
L 181.301889 238.213323 
L 181.386317 287.258783 
L 181.607126 277.890101 
L 182.016272 216.660393 
L 182.237082 248.983033 
L 182.57479 223.49293 
L 182.704678 282.122918 
L 183.10733 214.798369 
L 183.516476 215.743764 
L 183.899645 213.872953 
L 184.126949 245.983599 
L 184.412702 265.635757 
L 185.146568 188.539987 
L 185.705086 198.328077 
L 186.094749 229.099328 
L 186.542862 178.61595 
L 186.731199 254.422528 
L 186.964997 245.048586 
L 187.04293 290.084152 
L 187.78329 129.813637 
L 187.880706 284.369913 
L 188.21192 272.34886 
L 188.484685 282.687996 
L 188.679516 289.94751 
L 188.809404 286.909107 
L 188.900326 288.148871 
L 189.160101 237.971192 
L 189.328955 287.962357 
L 189.945922 196.847027 
L 190.394035 202.036987 
L 190.744732 222.934286 
L 191.173362 226.982186 
L 191.283767 283.183533 
L 191.731879 253.723448 
L 192.108554 202.32245 
L 192.374824 260.906743 
L 192.803454 183.200699 
L 193.738646 151.37339 
L 193.920489 282.842741 
L 194.147792 242.66284 
L 194.517973 207.465821 
L 194.940108 197.467889 
L 195.186895 239.687583 
L 195.635008 224.470121 
L 196.213008 198.464413 
L 196.842964 156.957852 
L 197.024807 256.184145 
L 197.57683 126.054905 
L 197.784651 249.334617 
L 198.323685 193.449737 
L 198.538 290.379669 
L 199.343304 149.0277 
L 200.155103 264.049805 
L 200.427867 233.748658 
L 200.681149 236.059669 
L 201.051329 207.290827 
L 201.207194 270.6854 
L 201.486453 231.646597 
L 201.739734 239.754393 
L 201.94106 251.00209 
L 202.174858 286.780111 
L 202.830792 113.293509 
L 203.337354 191.150395 
L 203.973804 235.354515 
L 204.220591 289.342977 
L 204.584277 205.857187 
L 204.889513 225.603361 
L 205.454525 131.564464 
L 205.77275 219.901086 
L 206.604032 155.184461 
L 207.233988 122.047842 
L 207.688595 211.084427 
L 208.234124 245.397998 
L 208.688731 179.721585 
L 209.136844 200.296943 
L 209.649901 175.667655 
L 210.864352 85.560478 
L 211.137116 232.295683 
L 212.319095 53.568 
L 212.689275 210.305734 
L 213.27377 117.244185 
L 213.566018 227.967711 
L 214.157007 112.692232 
L 214.832424 228.28357 
L 215.098694 234.231624 
L 215.501346 188.386742 
L 215.942965 175.777457 
L 216.176763 245.053598 
L 216.533954 205.92192 
L 216.761258 244.303525 
L 217.150921 218.85948 
L 217.676967 159.132025 
L 218.196518 200.521795 
L 218.683597 162.430054 
L 218.975845 236.483328 
L 219.190159 249.313748 
L 219.800632 133.633393 
L 220.09288 228.867119 
L 220.443577 209.021025 
L 220.898184 200.871907 
L 221.222903 214.536586 
L 221.807399 272.178692 
L 222.63868 86.479175 
L 222.891962 238.093909 
L 223.314097 184.545051 
L 223.710255 225.005606 
L 224.301244 160.516098 
L 224.820795 159.804365 
L 225.177987 209.119433 
L 225.872887 109.861616 
L 226.249561 201.196835 
L 226.788596 186.752332 
L 227.152281 214.101192 
L 227.567922 206.030897 
L 227.834192 234.813939 
L 228.301788 201.17769 
L 228.873295 118.190191 
L 229.230486 212.292032 
L 229.82797 111.251799 
L 230.367004 138.510454 
L 230.867072 150.056405 
L 231.477545 117.607045 
L 231.665882 253.81964 
L 232.263366 110.633746 
L 232.724468 202.763819 
L 233.308963 121.998257 
L 233.86748 131.157177 
L 234.477953 104.330821 
L 235.270269 93.635716 
L 236.082067 87.538687 
L 236.712023 118.700282 
L 237.283529 122.665465 
L 237.874519 113.154442 
L 238.751262 90.24015 
L 239.322768 122.414022 
L 239.926746 106.755361 
L 240.95286 66.663538 
L 241.53086 132.684552 
L 242.128344 123.953105 
L 242.680367 131.2217 
L 243.310323 117.884793 
L 244.037695 110.98035 
L 244.576729 136.454364 
L 245.219674 120.903217 
L 245.804169 124.222491 
L 246.42763 100.467016 
L 246.654934 243.441344 
L 247.271901 105.224209 
L 247.869385 111.610515 
L 248.486352 111.696524 
L 249.109813 110.900306 
L 249.707297 117.828533 
L 250.252826 144.938271 
L 250.889276 98.85879 
L 251.48676 116.296672 
L 252.071255 122.544341 
L 252.636267 131.291256 
L 253.175301 135.648241 
L 253.896179 120.539352 
L 254.526134 113.930967 
L 255.143101 115.286593 
L 255.734091 122.989533 
L 256.299103 132.361391 
L 256.929059 113.374467 
L 258.059082 131.981924 
L 258.656566 122.899181 
L 259.25405 111.194714 
L 259.825556 124.554283 
L 260.449018 108.063016 
L 261.001041 129.572609 
L 261.579042 131.257353 
L 262.157042 117.933078 
L 262.722054 133.926823 
L 263.261089 133.844007 
L 263.806617 135.528006 
L 264.384618 130.388304 
L 264.936641 134.221751 
L 265.495159 136.393062 
L 266.079654 116.693902 
L 266.683632 112.518885 
L 267.261633 122.20365 
L 268.378668 135.729352 
L 268.950174 118.594723 
L 269.502197 133.948426 
L 270.067209 124.18237 
L 270.625727 129.757359 
L 271.197233 119.768111 
L 271.775234 116.76492 
L 272.34674 135.466076 
L 272.905257 125.098564 
L 273.457281 130.749523 
L 274.028787 120.755224 
L 274.619776 124.196402 
L 275.171799 133.537847 
L 275.730317 125.126214 
L 276.262857 141.093484 
L 276.81488 139.388474 
L 277.366903 128.937788 
L 277.918926 130.616296 
L 278.477444 128.28506 
L 279.061939 131.541264 
L 279.633445 122.610694 
L 280.730997 132.262032 
L 281.276526 145.117799 
L 281.861021 116.765396 
L 282.439022 126.325511 
L 282.991045 139.70915 
L 283.536573 132.041029 
L 284.095091 134.514014 
L 284.660103 132.444045 
L 285.225115 125.769872 
L 285.796621 123.28464 
L 285.991453 250.060719 
L 286.575948 129.014584 
L 287.134465 125.623027 
L 287.705972 120.764554 
L 288.245006 133.671216 
L 288.790535 132.985697 
L 289.355547 136.486814 
L 289.901075 136.805086 
L 290.453099 136.345136 
L 291.005122 131.545095 
L 291.570134 122.626368 
L 292.115662 133.608676 
L 292.654697 137.420645 
L 293.219709 134.527489 
L 293.765237 133.654395 
L 294.323755 138.337 
L 294.862789 135.375051 
L 295.395329 135.708664 
L 295.934364 141.7943 
L 296.486387 139.440643 
L 297.031915 133.8698 
L 297.577444 138.698353 
L 298.122973 135.210712 
L 298.68149 126.361585 
L 299.227019 132.191058 
L 299.766054 134.200542 
L 300.331065 140.430044 
L 300.876594 142.943715 
L 301.428617 129.195242 
L 301.974146 137.698465 
L 302.526169 138.21776 
L 303.078192 131.790339 
L 303.630215 130.141957 
L 304.195227 139.515501 
L 304.747251 139.055211 
L 305.292779 136.557285 
L 305.831814 139.250134 
L 306.377342 131.410675 
L 306.929366 127.701241 
L 307.481389 129.776414 
L 308.033412 139.693109 
L 308.585435 131.162488 
L 309.143952 134.161588 
L 310.267482 144.740172 
L 310.864966 129.510823 
L 311.449461 130.916204 
L 312.020967 136.768796 
L 312.624945 128.54264 
L 313.189957 137.465709 
L 313.748475 129.639967 
L 314.313487 140.614291 
L 314.897982 127.385356 
L 315.462994 129.560543 
L 316.047489 125.932408 
L 316.612501 133.114922 
L 317.196996 130.272061 
L 317.768502 134.460697 
L 318.346503 116.839159 
L 318.898526 138.054883 
L 319.444055 136.608359 
L 319.983089 137.288325 
L 320.528618 138.650167 
L 321.067652 136.494457 
L 321.606686 143.20335 
L 322.152215 138.954138 
L 322.710733 135.794055 
L 323.230284 153.500238 
L 323.788801 139.635477 
L 324.33433 138.796662 
L 324.892848 136.813913 
L 325.45786 140.767847 
L 326.016377 139.23002 
L 326.5684 138.83934 
L 327.113929 134.670809 
L 327.659458 134.409021 
L 328.204986 129.265345 
L 328.75701 132.317009 
L 329.302538 133.882755 
L 329.86755 122.574414 
L 330.406585 138.874113 
L 330.945619 134.229179 
L 331.484653 135.740342 
L 332.043171 141.14298 
L 332.614677 121.153952 
L 333.1667 132.918986 
L 333.725218 131.37949 
L 334.303218 131.749025 
L 334.881219 136.374446 
L 335.452725 135.830936 
L 336.056704 120.746665 
L 336.634704 129.682788 
L 337.154256 156.780145 
L 337.771223 99.931805 
L 338.927224 141.727866 
L 339.511719 132.858536 
L 340.096214 131.528255 
L 340.680709 130.697219 
L 341.271699 123.2822 
L 341.856194 121.812341 
L 342.408217 138.855739 
L 342.947251 139.852658 
L 343.505769 126.302598 
L 344.057792 129.786292 
L 344.590332 139.283741 
L 345.135861 134.919372 
L 345.674895 135.365057 
L 346.226918 134.455332 
L 346.79193 136.853217 
L 347.330964 142.588068 
L 347.882988 136.153864 
L 348.460988 136.260194 
L 349.013011 139.483141 
L 349.578023 138.565118 
L 350.123552 141.109184 
L 350.675575 131.339899 
L 351.221104 136.953151 
L 351.766633 135.89615 
L 352.312161 147.372957 
L 352.870679 138.659524 
L 353.409713 136.267748 
L 354.526748 141.756153 
L 355.072277 139.385864 
L 355.6243 137.711886 
L 356.189312 138.610836 
L 356.74783 133.167926 
L 357.306347 139.792791 
L 357.864865 141.657646 
L 358.416888 141.713655 
L 358.955922 134.78367 
L 359.507945 132.227536 
L 360.059968 139.643049 
L 360.605497 132.667363 
L 361.164015 138.718503 
L 361.716038 139.241279 
L 362.268061 140.106784 
L 362.826578 137.248761 
L 363.385096 136.367161 
L 363.937119 139.983049 
L 364.495637 140.739963 
L 365.073637 137.071601 
L 365.651638 125.038572 
L 366.21665 131.757826 
L 366.807639 120.763173 
L 367.366157 135.11138 
L 367.885708 159.538917 
L 368.470203 140.204609 
L 369.684654 115.586643 
L 370.886116 128.785408 
L 371.503083 117.238488 
L 372.113556 114.171699 
L 372.659085 151.318071 
L 373.28904 119.746427 
L 373.860547 142.622644 
L 374.451536 128.521933 
L 375.010054 146.999843 
L 375.588054 139.647346 
L 376.140077 149.662046 
L 377.309068 119.715888 
L 377.906551 111.612183 
L 378.51053 106.008235 
L 379.108014 102.714378 
L 379.724981 112.9459 
L 380.919948 136.170255 
L 381.54341 122.191009 
L 382.147388 119.914669 
L 382.757861 114.674469 
L 383.361839 119.253597 
L 383.946334 127.924981 
L 384.543818 124.843254 
L 385.167279 104.663466 
L 385.771258 123.307186 
L 386.349258 136.147378 
L 387.570203 111.379975 
L 388.174182 114.469624 
L 388.726205 145.39517 
L 389.297711 123.537205 
L 389.856229 135.050517 
L 390.979758 137.783317 
L 391.531781 132.794426 
L 392.083804 142.030841 
L 392.635828 140.028373 
L 392.635828 140.028373 
" clip-path="url(#pe45b19b347)" style="fill: none; stroke: #2ca02c; stroke-width: 1.5; stroke-linecap: square"/>
   </g>
   <g id="patch_3">
    <path d="M 57.6 307.584 
L 57.6 41.472 
" style="fill: none; stroke: #000000; stroke-width: 0.8; stroke-linejoin: miter; stroke-linecap: square"/>
   </g>
   <g id="patch_4">
    <path d="M 414.72 307.584 
L 414.72 41.472 
" style="fill: none; stroke: #000000; stroke-width: 0.8; stroke-linejoin: miter; stroke-linecap: square"/>
   </g>
   <g id="patch_5">
    <path d="M 57.6 307.584 
L 414.72 307.584 
" style="fill: none; stroke: #000000; stroke-width: 0.8; stroke-linejoin: miter; stroke-linecap: square"/>
   </g>
   <g id="patch_6">
    <path d="M 57.6 41.472 
L 414.72 41.472 
" style="fill: none; stroke: #000000; stroke-width: 0.8; stroke-linejoin: miter; stroke-linecap: square"/>
   </g>
   <g id="text_15">
    <!-- learning curve -->
    <g transform="translate(192.96375 35.472) scale(0.12 -0.12)">
     <defs>
      <path id="DejaVuSans-6c" d="M 603 4863 
L 1178 4863 
L 1178 0 
L 603 0 
L 603 4863 
z
" transform="scale(0.015625)"/>
      <path id="DejaVuSans-67" d="M 2906 1791 
Q 2906 2416 2648 2759 
Q 2391 3103 1925 3103 
Q 1463 3103 1205 2759 
Q 947 2416 947 1791 
Q 947 1169 1205 825 
Q 1463 481 1925 481 
Q 2391 481 2648 825 
Q 2906 1169 2906 1791 
z
M 3481 434 
Q 3481 -459 3084 -895 
Q 2688 -1331 1869 -1331 
Q 1566 -1331 1297 -1286 
Q 1028 -1241 775 -1147 
L 775 -588 
Q 1028 -725 1275 -790 
Q 1522 -856 1778 -856 
Q 2344 -856 2625 -561 
Q 2906 -266 2906 331 
L 2906 616 
Q 2728 306 2450 153 
Q 2172 0 1784 0 
Q 1141 0 747 490 
Q 353 981 353 1791 
Q 353 2603 747 3093 
Q 1141 3584 1784 3584 
Q 2172 3584 2450 3431 
Q 2728 3278 2906 2969 
L 2906 3500 
L 3481 3500 
L 3481 434 
z
" transform="scale(0.015625)"/>
      <path id="DejaVuSans-63" d="M 3122 3366 
L 3122 2828 
Q 2878 2963 2633 3030 
Q 2388 3097 2138 3097 
Q 1578 3097 1268 2742 
Q 959 2388 959 1747 
Q 959 1106 1268 751 
Q 1578 397 2138 397 
Q 2388 397 2633 464 
Q 2878 531 3122 666 
L 3122 134 
Q 2881 22 2623 -34 
Q 2366 -91 2075 -91 
Q 1284 -91 818 406 
Q 353 903 353 1747 
Q 353 2603 823 3093 
Q 1294 3584 2113 3584 
Q 2378 3584 2631 3529 
Q 2884 3475 3122 3366 
z
" transform="scale(0.015625)"/>
      <path id="DejaVuSans-75" d="M 544 1381 
L 544 3500 
L 1119 3500 
L 1119 1403 
Q 1119 906 1312 657 
Q 1506 409 1894 409 
Q 2359 409 2629 706 
Q 2900 1003 2900 1516 
L 2900 3500 
L 3475 3500 
L 3475 0 
L 2900 0 
L 2900 538 
Q 2691 219 2414 64 
Q 2138 -91 1772 -91 
Q 1169 -91 856 284 
Q 544 659 544 1381 
z
M 1991 3584 
L 1991 3584 
z
" transform="scale(0.015625)"/>
      <path id="DejaVuSans-76" d="M 191 3500 
L 800 3500 
L 1894 563 
L 2988 3500 
L 3597 3500 
L 2284 0 
L 1503 0 
L 191 3500 
z
" transform="scale(0.015625)"/>
     </defs>
     <use xlink:href="#DejaVuSans-6c"/>
     <use xlink:href="#DejaVuSans-65" x="27.783203"/>
     <use xlink:href="#DejaVuSans-61" x="89.306641"/>
     <use xlink:href="#DejaVuSans-72" x="150.585938"/>
     <use xlink:href="#DejaVuSans-6e" x="189.949219"/>
     <use xlink:href="#DejaVuSans-69" x="253.328125"/>
     <use xlink:href="#DejaVuSans-6e" x="281.111328"/>
     <use xlink:href="#DejaVuSans-67" x="344.490234"/>
     <use xlink:href="#DejaVuSans-20" x="407.966797"/>
     <use xlink:href="#DejaVuSans-63" x="439.753906"/>
     <use xlink:href="#DejaVuSans-75" x="494.734375"/>
     <use xlink:href="#DejaVuSans-72" x="558.113281"/>
     <use xlink:href="#DejaVuSans-76" x="599.226562"/>
     <use xlink:href="#DejaVuSans-65" x="658.40625"/>
    </g>
   </g>
   <g id="legend_1">
    <g id="patch_7">
     <path d="M 305.705938 93.506375 
L 407.72 93.506375 
Q 409.72 93.506375 409.72 91.506375 
L 409.72 48.472 
Q 409.72 46.472 407.72 46.472 
L 305.705938 46.472 
Q 303.705938 46.472 303.705938 48.472 
L 303.705938 91.506375 
Q 303.705938 93.506375 305.705938 93.506375 
z
" style="fill: #ffffff; opacity: 0.8; stroke: #cccccc; stroke-linejoin: miter"/>
    </g>
    <g id="line2d_16">
     <path d="M 307.705938 54.570438 
L 317.705938 54.570438 
L 327.705938 54.570438 
" style="fill: none; stroke: #1f77b4; stroke-width: 1.5; stroke-linecap: square"/>
    </g>
    <g id="text_16">
     <!-- source-source -->
     <g transform="translate(335.705938 58.070438) scale(0.1 -0.1)">
      <defs>
       <path id="DejaVuSans-2d" d="M 313 2009 
L 1997 2009 
L 1997 1497 
L 313 1497 
L 313 2009 
z
" transform="scale(0.015625)"/>
      </defs>
      <use xlink:href="#DejaVuSans-73"/>
      <use xlink:href="#DejaVuSans-6f" x="52.099609"/>
      <use xlink:href="#DejaVuSans-75" x="113.28125"/>
      <use xlink:href="#DejaVuSans-72" x="176.660156"/>
      <use xlink:href="#DejaVuSans-63" x="215.523438"/>
      <use xlink:href="#DejaVuSans-65" x="270.503906"/>
      <use xlink:href="#DejaVuSans-2d" x="332.027344"/>
      <use xlink:href="#DejaVuSans-73" x="368.111328"/>
      <use xlink:href="#DejaVuSans-6f" x="420.210938"/>
      <use xlink:href="#DejaVuSans-75" x="481.392578"/>
      <use xlink:href="#DejaVuSans-72" x="544.771484"/>
      <use xlink:href="#DejaVuSans-63" x="583.634766"/>
      <use xlink:href="#DejaVuSans-65" x="638.615234"/>
     </g>
    </g>
    <g id="line2d_17">
     <path d="M 307.705938 69.248563 
L 317.705938 69.248563 
L 327.705938 69.248563 
" style="fill: none; stroke: #ff7f0e; stroke-width: 1.5; stroke-linecap: square"/>
    </g>
    <g id="text_17">
     <!-- source-target -->
     <g transform="translate(335.705938 72.748563) scale(0.1 -0.1)">
      <use xlink:href="#DejaVuSans-73"/>
      <use xlink:href="#DejaVuSans-6f" x="52.099609"/>
      <use xlink:href="#DejaVuSans-75" x="113.28125"/>
      <use xlink:href="#DejaVuSans-72" x="176.660156"/>
      <use xlink:href="#DejaVuSans-63" x="215.523438"/>
      <use xlink:href="#DejaVuSans-65" x="270.503906"/>
      <use xlink:href="#DejaVuSans-2d" x="332.027344"/>
      <use xlink:href="#DejaVuSans-74" x="368.111328"/>
      <use xlink:href="#DejaVuSans-61" x="407.320312"/>
      <use xlink:href="#DejaVuSans-72" x="468.599609"/>
      <use xlink:href="#DejaVuSans-67" x="507.962891"/>
      <use xlink:href="#DejaVuSans-65" x="571.439453"/>
      <use xlink:href="#DejaVuSans-74" x="632.962891"/>
     </g>
    </g>
    <g id="line2d_18">
     <path d="M 307.705938 83.926688 
L 317.705938 83.926688 
L 327.705938 83.926688 
" style="fill: none; stroke: #2ca02c; stroke-width: 1.5; stroke-linecap: square"/>
    </g>
    <g id="text_18">
     <!-- target-target -->
     <g transform="translate(335.705938 87.426688) scale(0.1 -0.1)">
      <use xlink:href="#DejaVuSans-74"/>
      <use xlink:href="#DejaVuSans-61" x="39.208984"/>
      <use xlink:href="#DejaVuSans-72" x="100.488281"/>
      <use xlink:href="#DejaVuSans-67" x="139.851562"/>
      <use xlink:href="#DejaVuSans-65" x="203.328125"/>
      <use xlink:href="#DejaVuSans-74" x="264.851562"/>
      <use xlink:href="#DejaVuSans-2d" x="304.060547"/>
      <use xlink:href="#DejaVuSans-74" x="340.144531"/>
      <use xlink:href="#DejaVuSans-61" x="379.353516"/>
      <use xlink:href="#DejaVuSans-72" x="440.632812"/>
      <use xlink:href="#DejaVuSans-67" x="479.996094"/>
      <use xlink:href="#DejaVuSans-65" x="543.472656"/>
      <use xlink:href="#DejaVuSans-74" x="604.996094"/>
     </g>
    </g>
   </g>
  </g>
 </g>
 <defs>
  <clipPath id="pe45b19b347">
   <rect x="57.6" y="41.472" width="357.12" height="266.112"/>
  </clipPath>
 </defs>
</svg>
