<?xml version="1.0" encoding="utf-8" standalone="no"?>
<!DOCTYPE svg PUBLIC "-//W3C//DTD SVG 1.1//EN"
  "http://www.w3.org/Graphics/SVG/1.1/DTD/svg11.dtd">
<svg xmlns:xlink="http://www.w3.org/1999/xlink" width="460.8pt" height="345.6pt" viewBox="0 0 460.8 345.6" xmlns="http://www.w3.org/2000/svg" version="1.1">
 <metadata>
  <rdf:RDF xmlns:dc="http://purl.org/dc/elements/1.1/" xmlns:cc="http://creativecommons.org/ns#" xmlns:rdf="http://www.w3.org/1999/02/22-rdf-syntax-ns#">
   <cc:Work>
    <dc:type rdf:resource="http://purl.org/dc/dcmitype/StillImage"/>
    <dc:date>2023-08-18T16:43:50.951672</dc:date>
    <dc:format>image/svg+xml</dc:format>
    <dc:creator>
     <cc:Agent>
      <dc:title>Matplotlib v3.7.1, https://matplotlib.org/</dc:title>
     </cc:Agent>
    </dc:creator>
   </cc:Work>
  </rdf:RDF>
 </metadata>
 <defs>
  <style type="text/css">*{stroke-linejoin: round; stroke-linecap: butt}</style>
 </defs>
 <g id="figure_1">
  <g id="patch_1">
   <path d="M 0 345.6 
L 460.8 345.6 
L 460.8 0 
L 0 0 
z
" style="fill: #ffffff"/>
  </g>
  <g id="axes_1">
   <g id="patch_2">
    <path d="M 57.6 307.584 
L 414.72 307.584 
L 414.72 41.472 
L 57.6 41.472 
z
" style="fill: #ffffff"/>
   </g>
   <g id="matplotlib.axis_1">
    <g id="xtick_1">
     <g id="line2d_1">
      <defs>
       <path id="m97098e3a27" d="M 0 0 
L 0 3.5 
" style="stroke: #000000; stroke-width: 0.8"/>
      </defs>
      <g>
       <use xlink:href="#m97098e3a27" x="73.766378" y="307.584" style="stroke: #000000; stroke-width: 0.8"/>
      </g>
     </g>
     <g id="text_1">
      <!-- 0 -->
      <g transform="translate(70.585128 322.182437) scale(0.1 -0.1)">
       <defs>
        <path id="DejaVuSans-30" d="M 2034 4250 
Q 1547 4250 1301 3770 
Q 1056 3291 1056 2328 
Q 1056 1369 1301 889 
Q 1547 409 2034 409 
Q 2525 409 2770 889 
Q 3016 1369 3016 2328 
Q 3016 3291 2770 3770 
Q 2525 4250 2034 4250 
z
M 2034 4750 
Q 2819 4750 3233 4129 
Q 3647 3509 3647 2328 
Q 3647 1150 3233 529 
Q 2819 -91 2034 -91 
Q 1250 -91 836 529 
Q 422 1150 422 2328 
Q 422 3509 836 4129 
Q 1250 4750 2034 4750 
z
" transform="scale(0.015625)"/>
       </defs>
       <use xlink:href="#DejaVuSans-30"/>
      </g>
     </g>
    </g>
    <g id="xtick_2">
     <g id="line2d_2">
      <g>
       <use xlink:href="#m97098e3a27" x="140.115838" y="307.584" style="stroke: #000000; stroke-width: 0.8"/>
      </g>
     </g>
     <g id="text_2">
      <!-- 10000 -->
      <g transform="translate(124.209588 322.182437) scale(0.1 -0.1)">
       <defs>
        <path id="DejaVuSans-31" d="M 794 531 
L 1825 531 
L 1825 4091 
L 703 3866 
L 703 4441 
L 1819 4666 
L 2450 4666 
L 2450 531 
L 3481 531 
L 3481 0 
L 794 0 
L 794 531 
z
" transform="scale(0.015625)"/>
       </defs>
       <use xlink:href="#DejaVuSans-31"/>
       <use xlink:href="#DejaVuSans-30" x="63.623047"/>
       <use xlink:href="#DejaVuSans-30" x="127.246094"/>
       <use xlink:href="#DejaVuSans-30" x="190.869141"/>
       <use xlink:href="#DejaVuSans-30" x="254.492188"/>
      </g>
     </g>
    </g>
    <g id="xtick_3">
     <g id="line2d_3">
      <g>
       <use xlink:href="#m97098e3a27" x="206.465299" y="307.584" style="stroke: #000000; stroke-width: 0.8"/>
      </g>
     </g>
     <g id="text_3">
      <!-- 20000 -->
      <g transform="translate(190.559049 322.182437) scale(0.1 -0.1)">
       <defs>
        <path id="DejaVuSans-32" d="M 1228 531 
L 3431 531 
L 3431 0 
L 469 0 
L 469 531 
Q 828 903 1448 1529 
Q 2069 2156 2228 2338 
Q 2531 2678 2651 2914 
Q 2772 3150 2772 3378 
Q 2772 3750 2511 3984 
Q 2250 4219 1831 4219 
Q 1534 4219 1204 4116 
Q 875 4013 500 3803 
L 500 4441 
Q 881 4594 1212 4672 
Q 1544 4750 1819 4750 
Q 2544 4750 2975 4387 
Q 3406 4025 3406 3419 
Q 3406 3131 3298 2873 
Q 3191 2616 2906 2266 
Q 2828 2175 2409 1742 
Q 1991 1309 1228 531 
z
" transform="scale(0.015625)"/>
       </defs>
       <use xlink:href="#DejaVuSans-32"/>
       <use xlink:href="#DejaVuSans-30" x="63.623047"/>
       <use xlink:href="#DejaVuSans-30" x="127.246094"/>
       <use xlink:href="#DejaVuSans-30" x="190.869141"/>
       <use xlink:href="#DejaVuSans-30" x="254.492188"/>
      </g>
     </g>
    </g>
    <g id="xtick_4">
     <g id="line2d_4">
      <g>
       <use xlink:href="#m97098e3a27" x="272.814759" y="307.584" style="stroke: #000000; stroke-width: 0.8"/>
      </g>
     </g>
     <g id="text_4">
      <!-- 30000 -->
      <g transform="translate(256.908509 322.182437) scale(0.1 -0.1)">
       <defs>
        <path id="DejaVuSans-33" d="M 2597 2516 
Q 3050 2419 3304 2112 
Q 3559 1806 3559 1356 
Q 3559 666 3084 287 
Q 2609 -91 1734 -91 
Q 1441 -91 1130 -33 
Q 819 25 488 141 
L 488 750 
Q 750 597 1062 519 
Q 1375 441 1716 441 
Q 2309 441 2620 675 
Q 2931 909 2931 1356 
Q 2931 1769 2642 2001 
Q 2353 2234 1838 2234 
L 1294 2234 
L 1294 2753 
L 1863 2753 
Q 2328 2753 2575 2939 
Q 2822 3125 2822 3475 
Q 2822 3834 2567 4026 
Q 2313 4219 1838 4219 
Q 1578 4219 1281 4162 
Q 984 4106 628 3988 
L 628 4550 
Q 988 4650 1302 4700 
Q 1616 4750 1894 4750 
Q 2613 4750 3031 4423 
Q 3450 4097 3450 3541 
Q 3450 3153 3228 2886 
Q 3006 2619 2597 2516 
z
" transform="scale(0.015625)"/>
       </defs>
       <use xlink:href="#DejaVuSans-33"/>
       <use xlink:href="#DejaVuSans-30" x="63.623047"/>
       <use xlink:href="#DejaVuSans-30" x="127.246094"/>
       <use xlink:href="#DejaVuSans-30" x="190.869141"/>
       <use xlink:href="#DejaVuSans-30" x="254.492188"/>
      </g>
     </g>
    </g>
    <g id="xtick_5">
     <g id="line2d_5">
      <g>
       <use xlink:href="#m97098e3a27" x="339.16422" y="307.584" style="stroke: #000000; stroke-width: 0.8"/>
      </g>
     </g>
     <g id="text_5">
      <!-- 40000 -->
      <g transform="translate(323.25797 322.182437) scale(0.1 -0.1)">
       <defs>
        <path id="DejaVuSans-34" d="M 2419 4116 
L 825 1625 
L 2419 1625 
L 2419 4116 
z
M 2253 4666 
L 3047 4666 
L 3047 1625 
L 3713 1625 
L 3713 1100 
L 3047 1100 
L 3047 0 
L 2419 0 
L 2419 1100 
L 313 1100 
L 313 1709 
L 2253 4666 
z
" transform="scale(0.015625)"/>
       </defs>
       <use xlink:href="#DejaVuSans-34"/>
       <use xlink:href="#DejaVuSans-30" x="63.623047"/>
       <use xlink:href="#DejaVuSans-30" x="127.246094"/>
       <use xlink:href="#DejaVuSans-30" x="190.869141"/>
       <use xlink:href="#DejaVuSans-30" x="254.492188"/>
      </g>
     </g>
    </g>
    <g id="xtick_6">
     <g id="line2d_6">
      <g>
       <use xlink:href="#m97098e3a27" x="405.513681" y="307.584" style="stroke: #000000; stroke-width: 0.8"/>
      </g>
     </g>
     <g id="text_6">
      <!-- 50000 -->
      <g transform="translate(389.607431 322.182437) scale(0.1 -0.1)">
       <defs>
        <path id="DejaVuSans-35" d="M 691 4666 
L 3169 4666 
L 3169 4134 
L 1269 4134 
L 1269 2991 
Q 1406 3038 1543 3061 
Q 1681 3084 1819 3084 
Q 2600 3084 3056 2656 
Q 3513 2228 3513 1497 
Q 3513 744 3044 326 
Q 2575 -91 1722 -91 
Q 1428 -91 1123 -41 
Q 819 9 494 109 
L 494 744 
Q 775 591 1075 516 
Q 1375 441 1709 441 
Q 2250 441 2565 725 
Q 2881 1009 2881 1497 
Q 2881 1984 2565 2268 
Q 2250 2553 1709 2553 
Q 1456 2553 1204 2497 
Q 953 2441 691 2322 
L 691 4666 
z
" transform="scale(0.015625)"/>
       </defs>
       <use xlink:href="#DejaVuSans-35"/>
       <use xlink:href="#DejaVuSans-30" x="63.623047"/>
       <use xlink:href="#DejaVuSans-30" x="127.246094"/>
       <use xlink:href="#DejaVuSans-30" x="190.869141"/>
       <use xlink:href="#DejaVuSans-30" x="254.492188"/>
      </g>
     </g>
    </g>
    <g id="text_7">
     <!-- timesteps -->
     <g transform="translate(211.443594 335.860562) scale(0.1 -0.1)">
      <defs>
       <path id="DejaVuSans-74" d="M 1172 4494 
L 1172 3500 
L 2356 3500 
L 2356 3053 
L 1172 3053 
L 1172 1153 
Q 1172 725 1289 603 
Q 1406 481 1766 481 
L 2356 481 
L 2356 0 
L 1766 0 
Q 1100 0 847 248 
Q 594 497 594 1153 
L 594 3053 
L 172 3053 
L 172 3500 
L 594 3500 
L 594 4494 
L 1172 4494 
z
" transform="scale(0.015625)"/>
       <path id="DejaVuSans-69" d="M 603 3500 
L 1178 3500 
L 1178 0 
L 603 0 
L 603 3500 
z
M 603 4863 
L 1178 4863 
L 1178 4134 
L 603 4134 
L 603 4863 
z
" transform="scale(0.015625)"/>
       <path id="DejaVuSans-6d" d="M 3328 2828 
Q 3544 3216 3844 3400 
Q 4144 3584 4550 3584 
Q 5097 3584 5394 3201 
Q 5691 2819 5691 2113 
L 5691 0 
L 5113 0 
L 5113 2094 
Q 5113 2597 4934 2840 
Q 4756 3084 4391 3084 
Q 3944 3084 3684 2787 
Q 3425 2491 3425 1978 
L 3425 0 
L 2847 0 
L 2847 2094 
Q 2847 2600 2669 2842 
Q 2491 3084 2119 3084 
Q 1678 3084 1418 2786 
Q 1159 2488 1159 1978 
L 1159 0 
L 581 0 
L 581 3500 
L 1159 3500 
L 1159 2956 
Q 1356 3278 1631 3431 
Q 1906 3584 2284 3584 
Q 2666 3584 2933 3390 
Q 3200 3197 3328 2828 
z
" transform="scale(0.015625)"/>
       <path id="DejaVuSans-65" d="M 3597 1894 
L 3597 1613 
L 953 1613 
Q 991 1019 1311 708 
Q 1631 397 2203 397 
Q 2534 397 2845 478 
Q 3156 559 3463 722 
L 3463 178 
Q 3153 47 2828 -22 
Q 2503 -91 2169 -91 
Q 1331 -91 842 396 
Q 353 884 353 1716 
Q 353 2575 817 3079 
Q 1281 3584 2069 3584 
Q 2775 3584 3186 3129 
Q 3597 2675 3597 1894 
z
M 3022 2063 
Q 3016 2534 2758 2815 
Q 2500 3097 2075 3097 
Q 1594 3097 1305 2825 
Q 1016 2553 972 2059 
L 3022 2063 
z
" transform="scale(0.015625)"/>
       <path id="DejaVuSans-73" d="M 2834 3397 
L 2834 2853 
Q 2591 2978 2328 3040 
Q 2066 3103 1784 3103 
Q 1356 3103 1142 2972 
Q 928 2841 928 2578 
Q 928 2378 1081 2264 
Q 1234 2150 1697 2047 
L 1894 2003 
Q 2506 1872 2764 1633 
Q 3022 1394 3022 966 
Q 3022 478 2636 193 
Q 2250 -91 1575 -91 
Q 1294 -91 989 -36 
Q 684 19 347 128 
L 347 722 
Q 666 556 975 473 
Q 1284 391 1588 391 
Q 1994 391 2212 530 
Q 2431 669 2431 922 
Q 2431 1156 2273 1281 
Q 2116 1406 1581 1522 
L 1381 1569 
Q 847 1681 609 1914 
Q 372 2147 372 2553 
Q 372 3047 722 3315 
Q 1072 3584 1716 3584 
Q 2034 3584 2315 3537 
Q 2597 3491 2834 3397 
z
" transform="scale(0.015625)"/>
       <path id="DejaVuSans-70" d="M 1159 525 
L 1159 -1331 
L 581 -1331 
L 581 3500 
L 1159 3500 
L 1159 2969 
Q 1341 3281 1617 3432 
Q 1894 3584 2278 3584 
Q 2916 3584 3314 3078 
Q 3713 2572 3713 1747 
Q 3713 922 3314 415 
Q 2916 -91 2278 -91 
Q 1894 -91 1617 61 
Q 1341 213 1159 525 
z
M 3116 1747 
Q 3116 2381 2855 2742 
Q 2594 3103 2138 3103 
Q 1681 3103 1420 2742 
Q 1159 2381 1159 1747 
Q 1159 1113 1420 752 
Q 1681 391 2138 391 
Q 2594 391 2855 752 
Q 3116 1113 3116 1747 
z
" transform="scale(0.015625)"/>
      </defs>
      <use xlink:href="#DejaVuSans-74"/>
      <use xlink:href="#DejaVuSans-69" x="39.208984"/>
      <use xlink:href="#DejaVuSans-6d" x="66.992188"/>
      <use xlink:href="#DejaVuSans-65" x="164.404297"/>
      <use xlink:href="#DejaVuSans-73" x="225.927734"/>
      <use xlink:href="#DejaVuSans-74" x="278.027344"/>
      <use xlink:href="#DejaVuSans-65" x="317.236328"/>
      <use xlink:href="#DejaVuSans-70" x="378.759766"/>
      <use xlink:href="#DejaVuSans-73" x="442.236328"/>
     </g>
    </g>
   </g>
   <g id="matplotlib.axis_2">
    <g id="ytick_1">
     <g id="line2d_7">
      <defs>
       <path id="m8fc1fb2e76" d="M 0 0 
L -3.5 0 
" style="stroke: #000000; stroke-width: 0.8"/>
      </defs>
      <g>
       <use xlink:href="#m8fc1fb2e76" x="57.6" y="298.325224" style="stroke: #000000; stroke-width: 0.8"/>
      </g>
     </g>
     <g id="text_8">
      <!-- 0 -->
      <g transform="translate(44.2375 302.124443) scale(0.1 -0.1)">
       <use xlink:href="#DejaVuSans-30"/>
      </g>
     </g>
    </g>
    <g id="ytick_2">
     <g id="line2d_8">
      <g>
       <use xlink:href="#m8fc1fb2e76" x="57.6" y="242.37085" style="stroke: #000000; stroke-width: 0.8"/>
      </g>
     </g>
     <g id="text_9">
      <!-- 50 -->
      <g transform="translate(37.875 246.170069) scale(0.1 -0.1)">
       <use xlink:href="#DejaVuSans-35"/>
       <use xlink:href="#DejaVuSans-30" x="63.623047"/>
      </g>
     </g>
    </g>
    <g id="ytick_3">
     <g id="line2d_9">
      <g>
       <use xlink:href="#m8fc1fb2e76" x="57.6" y="186.416476" style="stroke: #000000; stroke-width: 0.8"/>
      </g>
     </g>
     <g id="text_10">
      <!-- 100 -->
      <g transform="translate(31.5125 190.215694) scale(0.1 -0.1)">
       <use xlink:href="#DejaVuSans-31"/>
       <use xlink:href="#DejaVuSans-30" x="63.623047"/>
       <use xlink:href="#DejaVuSans-30" x="127.246094"/>
      </g>
     </g>
    </g>
    <g id="ytick_4">
     <g id="line2d_10">
      <g>
       <use xlink:href="#m8fc1fb2e76" x="57.6" y="130.462101" style="stroke: #000000; stroke-width: 0.8"/>
      </g>
     </g>
     <g id="text_11">
      <!-- 150 -->
      <g transform="translate(31.5125 134.26132) scale(0.1 -0.1)">
       <use xlink:href="#DejaVuSans-31"/>
       <use xlink:href="#DejaVuSans-35" x="63.623047"/>
       <use xlink:href="#DejaVuSans-30" x="127.246094"/>
      </g>
     </g>
    </g>
    <g id="ytick_5">
     <g id="line2d_11">
      <g>
       <use xlink:href="#m8fc1fb2e76" x="57.6" y="74.507727" style="stroke: #000000; stroke-width: 0.8"/>
      </g>
     </g>
     <g id="text_12">
      <!-- 200 -->
      <g transform="translate(31.5125 78.306946) scale(0.1 -0.1)">
       <use xlink:href="#DejaVuSans-32"/>
       <use xlink:href="#DejaVuSans-30" x="63.623047"/>
       <use xlink:href="#DejaVuSans-30" x="127.246094"/>
      </g>
     </g>
    </g>
    <g id="text_13">
     <!-- rewards -->
     <g transform="translate(25.432812 194.447531) rotate(-90) scale(0.1 -0.1)">
      <defs>
       <path id="DejaVuSans-72" d="M 2631 2963 
Q 2534 3019 2420 3045 
Q 2306 3072 2169 3072 
Q 1681 3072 1420 2755 
Q 1159 2438 1159 1844 
L 1159 0 
L 581 0 
L 581 3500 
L 1159 3500 
L 1159 2956 
Q 1341 3275 1631 3429 
Q 1922 3584 2338 3584 
Q 2397 3584 2469 3576 
Q 2541 3569 2628 3553 
L 2631 2963 
z
" transform="scale(0.015625)"/>
       <path id="DejaVuSans-77" d="M 269 3500 
L 844 3500 
L 1563 769 
L 2278 3500 
L 2956 3500 
L 3675 769 
L 4391 3500 
L 4966 3500 
L 4050 0 
L 3372 0 
L 2619 2869 
L 1863 0 
L 1184 0 
L 269 3500 
z
" transform="scale(0.015625)"/>
       <path id="DejaVuSans-61" d="M 2194 1759 
Q 1497 1759 1228 1600 
Q 959 1441 959 1056 
Q 959 750 1161 570 
Q 1363 391 1709 391 
Q 2188 391 2477 730 
Q 2766 1069 2766 1631 
L 2766 1759 
L 2194 1759 
z
M 3341 1997 
L 3341 0 
L 2766 0 
L 2766 531 
Q 2569 213 2275 61 
Q 1981 -91 1556 -91 
Q 1019 -91 701 211 
Q 384 513 384 1019 
Q 384 1609 779 1909 
Q 1175 2209 1959 2209 
L 2766 2209 
L 2766 2266 
Q 2766 2663 2505 2880 
Q 2244 3097 1772 3097 
Q 1472 3097 1187 3025 
Q 903 2953 641 2809 
L 641 3341 
Q 956 3463 1253 3523 
Q 1550 3584 1831 3584 
Q 2591 3584 2966 3190 
Q 3341 2797 3341 1997 
z
" transform="scale(0.015625)"/>
       <path id="DejaVuSans-64" d="M 2906 2969 
L 2906 4863 
L 3481 4863 
L 3481 0 
L 2906 0 
L 2906 525 
Q 2725 213 2448 61 
Q 2172 -91 1784 -91 
Q 1150 -91 751 415 
Q 353 922 353 1747 
Q 353 2572 751 3078 
Q 1150 3584 1784 3584 
Q 2172 3584 2448 3432 
Q 2725 3281 2906 2969 
z
M 947 1747 
Q 947 1113 1208 752 
Q 1469 391 1925 391 
Q 2381 391 2643 752 
Q 2906 1113 2906 1747 
Q 2906 2381 2643 2742 
Q 2381 3103 1925 3103 
Q 1469 3103 1208 2742 
Q 947 2381 947 1747 
z
" transform="scale(0.015625)"/>
      </defs>
      <use xlink:href="#DejaVuSans-72"/>
      <use xlink:href="#DejaVuSans-65" x="38.863281"/>
      <use xlink:href="#DejaVuSans-77" x="100.386719"/>
      <use xlink:href="#DejaVuSans-61" x="182.173828"/>
      <use xlink:href="#DejaVuSans-72" x="243.453125"/>
      <use xlink:href="#DejaVuSans-64" x="282.816406"/>
      <use xlink:href="#DejaVuSans-73" x="346.292969"/>
     </g>
    </g>
   </g>
   <g id="line2d_12">
    <path d="M 73.832727 290.396885 
L 73.905712 288.982971 
L 73.978696 290.27814 
L 74.058315 293.837126 
L 74.257364 284.092161 
L 74.376793 287.647616 
L 74.754985 281.01315 
L 74.887684 284.578748 
L 74.954033 290.076283 
L 75.239336 273.316295 
L 75.385305 279.816793 
L 75.451654 289.926516 
L 75.557813 283.85518 
L 75.624163 291.259928 
L 75.809941 270.4675 
L 76.002355 263.185523 
L 76.128419 289.031218 
L 76.208038 287.978698 
L 76.420356 290.965684 
L 76.566325 270.653724 
L 76.639309 288.846001 
L 76.884802 237.468721 
L 77.13693 263.497882 
L 77.20328 290.621251 
L 77.355884 269.592483 
L 77.442138 291.53002 
L 77.521757 286.79435 
L 77.627916 287.554482 
L 77.78052 268.748806 
L 77.899949 280.528888 
L 78.092363 253.8131 
L 78.271506 291.661042 
L 78.390935 288.139869 
L 78.550174 287.368768 
L 78.649698 290.527736 
L 78.855381 270.667911 
L 79.233573 192.276958 
L 79.319828 287.315814 
L 79.419352 284.564806 
L 79.804179 197.178668 
L 80.102751 283.748351 
L 80.308435 282.351544 
L 80.374784 289.148465 
L 80.580467 282.707392 
L 80.89231 205.061413 
L 80.998469 285.060677 
L 81.449645 270.252883 
L 81.655329 287.833804 
L 81.821202 279.474905 
L 81.907457 288.266377 
L 82.133045 281.248509 
L 82.259109 278.165765 
L 82.318823 292.417951 
L 82.458157 280.307382 
L 82.73019 240.621179 
L 82.809809 291.313227 
L 83.042032 283.498729 
L 83.141557 283.299473 
L 83.214541 289.143321 
L 83.33397 287.033374 
L 83.606003 217.676842 
L 84.050544 280.184382 
L 84.269497 246.240099 
L 84.355752 291.011962 
L 84.51499 274.052523 
L 84.654324 289.941773 
L 84.820198 267.964851 
L 84.979437 283.176881 
L 85.151945 280.030935 
L 85.390803 277.826494 
L 85.510232 279.013238 
L 85.662836 273.226258 
L 85.808805 275.813112 
L 85.954774 273.463899 
L 86.160457 287.518692 
L 86.259981 286.624499 
L 86.339601 287.974027 
L 86.45903 279.339871 
L 86.591729 278.674361 
L 86.711158 287.95799 
L 86.804047 287.124066 
L 87.195509 266.371488 
L 87.407827 283.822251 
L 87.540526 271.73495 
L 87.62678 287.865458 
L 87.752844 283.949737 
L 87.819194 290.746754 
L 87.958527 275.530218 
L 88.131036 287.317514 
L 88.237195 281.355413 
L 88.29691 290.89449 
L 88.376529 288.050267 
L 88.529133 279.4236 
L 88.967039 176.315446 
L 89.258977 285.262509 
L 89.577454 239.53685 
L 89.749963 288.706096 
L 89.949011 255.901681 
L 90.114885 293.099227 
L 90.353743 277.115581 
L 90.665585 263.475806 
L 90.937618 264.136684 
L 91.017238 288.8084 
L 91.143302 280.586565 
L 91.229556 286.822812 
L 91.375525 275.846669 
L 91.455144 286.707978 
L 91.548033 283.524203 
L 91.680732 283.20962 
L 91.853241 291.85404 
L 92.005845 273.011101 
L 92.098734 286.554947 
L 92.218163 286.337111 
L 92.377401 270.012246 
L 92.450386 290.181859 
L 92.516735 289.346728 
L 92.636164 280.91025 
L 92.795403 277.926296 
L 92.987817 289.536205 
L 93.23331 238.457681 
L 93.326199 285.932777 
L 93.412453 285.441719 
L 93.478803 290.873644 
L 93.896804 251.748889 
L 94.002963 285.08124 
L 94.241821 277.507419 
L 94.434235 284.901818 
L 94.679728 288.548838 
L 94.845601 275.209462 
L 95.01811 290.712589 
L 95.263603 285.852351 
L 95.329952 290.262812 
L 95.562176 274.250896 
L 95.64843 286.837697 
L 95.781129 274.333441 
L 96.053162 289.011128 
L 96.159321 287.802365 
L 96.30529 280.53631 
L 96.504338 293.49565 
L 96.643672 290.553052 
L 96.710021 290.574262 
L 96.915705 290.117471 
L 97.47304 266.585968 
L 97.579199 287.301055 
L 97.798152 251.828974 
L 97.910947 284.235228 
L 98.030376 280.856609 
L 98.09009 292.495596 
L 98.222789 279.913671 
L 98.401933 288.78474 
L 98.481552 288.912496 
L 98.69387 260.848338 
L 99.085332 289.932244 
L 99.357365 266.551062 
L 99.576318 284.594443 
L 99.854986 246.267486 
L 100.040764 289.736566 
L 100.133653 284.856771 
L 100.219908 285.807491 
L 100.299527 291.171918 
L 100.458766 270.18896 
L 100.631274 288.096198 
L 100.797148 269.26143 
L 101.002831 286.307789 
L 101.13553 287.217104 
L 101.394293 277.882648 
L 101.686231 272.472668 
L 101.732675 293.873582 
L 101.838835 282.085287 
L 101.918454 290.74146 
L 101.984803 290.360041 
L 102.077693 290.287242 
L 102.296646 284.711897 
L 102.455885 280.577796 
L 102.542139 295.212028 
L 102.688108 280.299492 
L 103.132649 149.43642 
L 103.318428 290.290779 
L 103.424587 279.842216 
L 103.550651 286.854742 
L 103.855858 272.895299 
L 103.942112 289.869179 
L 104.161066 288.142265 
L 104.313669 288.267065 
L 104.472908 277.51187 
L 104.751576 287.668726 
L 104.82456 290.700886 
L 104.957259 289.638817 
L 105.096593 284.642596 
L 105.269102 263.203798 
L 105.461515 288.910791 
L 105.713643 280.569408 
L 105.793262 292.816951 
L 105.886152 282.781836 
L 105.985676 284.4111 
L 106.317423 279.717436 
L 106.509837 265.66009 
L 106.609361 292.400062 
L 106.74206 290.422358 
L 107.140156 280.186746 
L 107.591333 215.386602 
L 107.684222 288.638604 
L 107.816921 282.429251 
L 108.002699 290.731057 
L 108.261462 276.284964 
L 108.420701 278.325036 
L 108.54013 283.678739 
L 108.798893 242.715551 
L 108.984671 293.557456 
L 109.084196 288.498686 
L 109.283244 284.01292 
L 109.376133 285.000668 
L 109.449118 287.963069 
L 109.542007 283.885696 
L 109.668071 291.379339 
L 109.754325 287.948626 
L 109.940104 286.157943 
L 110.145787 283.375747 
L 110.3382 290.094418 
L 110.484169 288.222025 
L 110.636773 274.501967 
L 110.703123 290.895175 
L 110.835821 284.209713 
L 110.975155 289.895124 
L 111.068045 285.914102 
L 111.154299 286.64135 
L 111.227283 289.656699 
L 111.446236 239.489793 
L 111.658555 281.279792 
L 111.850968 262.609421 
L 112.096461 282.466288 
L 112.182715 286.160949 
L 112.26897 285.117461 
L 112.461383 279.448371 
L 112.633892 280.471612 
L 112.726781 285.438505 
L 113.005449 257.345441 
L 113.078433 291.457777 
L 113.370371 271.226808 
L 113.443355 288.835914 
L 113.589324 272.55535 
L 113.741928 268.665414 
L 113.940976 290.399305 
L 114.325803 279.779063 
L 114.398787 292.110644 
L 114.551391 283.518057 
L 114.73717 287.985283 
L 114.936218 283.099267 
L 115.015837 287.920222 
L 115.221521 290.880995 
L 115.573173 268.643186 
L 115.851841 291.300714 
L 116.110604 278.442546 
L 116.183588 290.046998 
L 116.409176 276.881581 
L 116.721019 217.063805 
L 116.939972 287.136781 
L 117.012956 291.925592 
L 117.16556 269.585547 
L 117.344704 288.190393 
L 117.450863 283.525612 
L 117.537117 286.718318 
L 117.630006 285.408096 
L 117.702991 291.569765 
L 117.941849 285.426688 
L 118.048008 290.196882 
L 118.200612 272.624227 
L 118.273596 288.354242 
L 118.37312 282.418629 
L 118.452739 292.940737 
L 118.558899 281.008634 
L 118.777852 289.098938 
L 118.870741 283.438312 
L 119.122869 236.248177 
L 119.262203 285.995921 
L 119.481156 275.772997 
L 119.547506 290.461123 
L 119.62049 287.98906 
L 119.759824 285.207549 
L 119.872618 287.365112 
L 120.018587 281.77325 
L 120.25081 252.702192 
L 120.549382 260.064265 
L 120.655542 280.399118 
L 120.90767 235.888878 
L 121.186337 284.425732 
L 121.358846 287.625511 
L 121.856467 240.699676 
L 121.922816 291.380425 
L 122.068785 275.722911 
L 122.181579 286.859836 
L 122.307643 276.190972 
L 122.420437 278.837115 
L 122.805264 266.511844 
L 123.276345 199.784725 
L 123.442219 288.048506 
L 123.654537 273.712632 
L 123.919935 280.143231 
L 124.045999 275.789507 
L 124.172063 277.492416 
L 124.251682 288.624476 
L 124.344572 283.551492 
L 124.444096 283.676828 
L 124.55689 281.541977 
L 124.762573 247.621228 
L 125.127495 291.39844 
L 125.20048 288.137963 
L 125.664926 188.127432 
L 125.863974 288.82571 
L 125.983403 288.899638 
L 126.056388 292.805985 
L 126.149277 286.891373 
L 126.295246 289.79906 
L 126.534104 231.031338 
L 126.812772 239.037225 
L 127.078169 288.031095 
L 127.197598 278.167309 
L 127.317027 280.652302 
L 127.436456 288.414718 
L 127.56252 276.673399 
L 127.774839 290.661639 
L 127.914173 285.306466 
L 128.053506 272.501806 
L 128.159666 281.725543 
L 128.371984 264.899442 
L 128.458238 288.941078 
L 128.703731 260.637119 
L 128.80989 289.352647 
L 128.949224 281.453812 
L 129.068653 288.838421 
L 129.214622 289.271211 
L 129.533099 265.608312 
L 129.732148 290.607921 
L 129.957736 285.419787 
L 130.07053 290.752562 
L 130.209864 287.038432 
L 130.369103 287.148582 
L 130.475262 288.276211 
L 130.548246 292.055683 
L 130.694215 273.623736 
L 130.787104 289.360709 
L 130.992788 283.079996 
L 131.098947 287.705758 
L 131.284725 273.751409 
L 131.556758 239.416 
L 131.643012 287.390273 
L 131.802251 286.695031 
L 131.901775 289.164777 
L 132.074284 287.001878 
L 132.133998 291.296161 
L 132.206983 290.126406 
L 132.399396 266.560407 
L 132.479015 286.562198 
L 132.571905 284.28656 
L 132.704604 284.567705 
L 132.824033 280.480127 
L 133.023081 286.976729 
L 133.328289 228.247289 
L 133.553877 256.213402 
L 133.679941 293.690138 
L 133.885624 285.775059 
L 133.965243 289.160327 
L 134.144387 269.262815 
L 134.40315 288.697279 
L 134.569023 284.352052 
L 134.714992 274.768393 
L 134.894136 288.696914 
L 135.219248 278.71425 
L 135.458106 290.443871 
L 135.59744 285.354875 
L 135.670425 289.339171 
L 135.763314 286.294231 
L 135.849568 288.546059 
L 135.935822 286.332071 
L 136.121601 261.417459 
L 136.2543 282.902821 
L 136.393634 286.748573 
L 136.811635 229.831302 
L 137.023954 290.091038 
L 137.189827 272.282911 
L 137.44859 283.556549 
L 138.005926 224.319958 
L 138.112085 282.712824 
L 138.218244 280.78769 
L 138.384117 278.17023 
L 138.457102 289.169436 
L 138.65615 260.234698 
L 138.755674 285.629119 
L 138.868469 281.839222 
L 138.974628 289.677469 
L 139.067517 285.879873 
L 139.233391 272.267926 
L 139.306375 288.512173 
L 139.385994 287.771276 
L 139.445709 293.525593 
L 139.644757 279.648137 
L 139.923425 291.373117 
L 140.003044 288.532706 
L 140.228632 270.07447 
L 140.321522 286.756182 
L 140.48076 290.025556 
L 140.626729 273.632156 
L 140.759428 276.272243 
L 140.971746 287.810728 
L 141.058001 292.674013 
L 141.117715 291.753419 
L 141.223874 290.898978 
L 141.283589 294.771227 
L 141.389748 285.268594 
L 141.495907 286.937214 
L 141.70159 286.286493 
L 141.854194 291.473516 
L 141.927179 289.36514 
L 142.119592 288.465137 
L 142.185942 290.920543 
L 142.258926 287.402167 
L 142.650388 171.233211 
L 142.749912 292.427228 
L 142.909151 289.288813 
L 143.081659 262.320571 
L 143.473121 179.168426 
L 143.824773 199.444713 
L 143.891123 290.78358 
L 144.050361 269.51851 
L 144.202965 287.180287 
L 144.348934 283.805441 
L 144.408648 291.902922 
L 144.620967 265.412277 
L 144.793475 264.21495 
L 144.965984 282.096965 
L 145.251287 231.305167 
L 145.350811 289.52813 
L 145.576399 283.178252 
L 145.788717 249.975752 
L 145.861702 287.626317 
L 145.967861 283.71222 
L 146.193449 254.774804 
L 146.253163 291.000732 
L 146.346053 286.741846 
L 146.425672 288.253421 
L 146.525196 284.614523 
L 146.837039 255.21204 
L 147.036087 290.740635 
L 147.115706 285.444486 
L 147.33466 289.356508 
L 147.825646 214.404171 
L 147.9119 288.869541 
L 148.037964 286.651401 
L 148.329902 274.273272 
L 148.575395 294.634602 
L 148.734633 277.935906 
L 148.827523 290.42241 
L 149.019936 257.312111 
L 149.126095 286.635187 
L 149.437938 269.293103 
L 149.537462 283.674015 
L 149.636986 283.147897 
L 149.836034 285.622867 
L 149.995273 268.270151 
L 150.094797 285.984529 
L 150.254036 284.304781 
L 150.844546 158.421987 
L 150.95734 288.799878 
L 151.156389 273.889689 
L 151.315627 280.203291 
L 151.375342 291.775153 
L 151.468231 288.92236 
L 151.6142 268.168951 
L 151.793343 292.010475 
L 151.872963 286.712849 
L 152.330774 219.644309 
L 152.463473 285.415624 
L 152.629347 264.290349 
L 152.788585 266.852225 
L 152.941189 272.55701 
L 153.093793 290.530283 
L 153.757287 93.766719 
L 153.982876 289.134611 
L 154.294718 269.183907 
L 154.493766 271.598323 
L 154.739259 288.357664 
L 154.825514 284.239767 
L 154.891863 292.47088 
L 155.104182 256.815013 
L 155.396119 278.956517 
L 155.668152 288.642734 
L 155.774311 282.204449 
L 156.079519 204.201137 
L 156.305107 289.419954 
L 156.437806 277.577846 
L 156.557235 277.808111 
L 156.743013 287.102955 
L 157.320253 127.972445 
L 157.439683 277.39835 
L 157.605556 286.191027 
L 157.74489 282.124555 
L 157.844414 285.620721 
L 158.023558 257.072369 
L 158.116447 284.073194 
L 158.235876 284.755123 
L 158.633973 272.532143 
L 158.706957 289.008165 
L 158.879466 268.857237 
L 159.012165 291.306746 
L 159.091784 290.471325 
L 159.264293 276.697927 
L 159.450071 276.813372 
L 159.662389 286.974852 
L 159.941057 266.439462 
L 160.146741 278.402234 
L 160.412138 219.882043 
L 160.498393 289.383833 
L 160.85668 278.076309 
L 161.128713 216.034659 
L 161.692683 139.773122 
L 162.084145 283.725211 
L 162.196939 282.444012 
L 162.289828 283.589515 
L 162.362812 287.753215 
L 162.648115 215.930231 
L 162.760909 286.614129 
L 162.906878 273.798858 
L 163.265165 197.902778 
L 163.450944 271.631352 
L 163.590278 273.249018 
L 163.756151 290.435741 
L 164.233867 230.499308 
L 164.46609 273.225946 
L 164.791203 287.816599 
L 165.06987 215.94676 
L 165.222474 288.202806 
L 165.328633 287.628547 
L 165.434793 285.225374 
L 165.667016 259.247002 
L 165.992128 210.303639 
L 166.104922 281.12474 
L 166.31724 272.576398 
L 166.41013 289.322887 
L 167.040449 168.431195 
L 167.292577 291.213467 
L 167.392102 293.36409 
L 167.61769 231.367507 
L 168.095406 181.531524 
L 168.380709 215.714376 
L 168.500138 280.693507 
L 168.77217 230.223131 
L 169.117188 193.332649 
L 169.46884 188.772731 
L 169.581634 280.689564 
L 169.813857 255.239382 
L 170.052715 274.402802 
L 170.324748 217.245366 
L 170.523796 287.505408 
L 170.789194 272.750774 
L 171.081132 214.037189 
L 171.247005 289.111789 
L 171.446054 239.847862 
L 171.598657 266.569693 
L 171.817611 269.48287 
L 172.083008 216.506697 
L 172.481105 160.951517 
L 172.587264 281.491703 
L 172.773043 280.658495 
L 173.09152 212.687625 
L 173.244124 266.662088 
L 173.416633 266.981562 
L 173.589141 295.488 
L 173.967333 196.956623 
L 174.186286 260.377975 
L 174.809971 160.495059 
L 174.989115 268.112135 
L 175.221338 227.363137 
L 175.440291 281.303565 
L 175.818483 261.944809 
L 176.561597 151.200102 
L 177.032678 122.656735 
L 177.404235 203.160453 
L 177.656363 222.287795 
L 178.452557 200.154136 
L 178.903733 207.484327 
L 179.122686 233.001827 
L 179.3151 288.550907 
L 179.587132 243.93354 
L 179.812721 286.883313 
L 180.018404 253.361258 
L 180.297072 238.615266 
L 180.661994 179.544898 
L 181.0999 281.019819 
L 181.862919 183.735612 
L 181.995618 284.810811 
L 182.639208 86.692934 
L 182.785176 277.216461 
L 182.95105 289.568678 
L 183.435401 227.354021 
L 183.521655 285.269935 
L 183.641084 282.123017 
L 183.893212 220.769003 
L 184.463818 175.06556 
L 184.78893 273.481925 
L 185.133947 204.118313 
L 185.359536 235.239109 
L 185.770902 180.50685 
L 185.903601 279.828445 
L 186.441032 128.090117 
L 187.064717 164.193043 
L 187.423004 226.81251 
L 187.681767 222.016159 
L 187.880815 277.787612 
L 188.318721 202.930917 
L 188.53104 237.29009 
L 189.09501 128.685058 
L 189.367043 280.447998 
L 189.931013 100.339926 
L 190.34238 260.82924 
L 190.621048 249.631087 
L 190.899715 278.42288 
L 191.171748 285.367913 
L 191.330987 285.273206 
L 191.58975 224.222178 
L 192.19353 162.012311 
L 192.452293 246.561883 
L 192.963184 110.626085 
L 193.301566 208.921929 
L 193.712933 212.281542 
L 194.489221 133.434767 
L 194.675 243.577503 
L 194.947033 216.129294 
L 195.2257 250.610456 
L 195.544178 214.649732 
L 195.93564 200.338607 
L 196.068338 272.279128 
L 196.439895 221.679224 
L 196.758373 198.082549 
L 197.15647 209.010846 
L 197.375423 234.511745 
L 197.826599 200.605307 
L 198.038917 238.154908 
L 198.616158 142.096213 
L 199.193398 274.152614 
L 199.385811 240.232492 
L 199.850258 199.559923 
L 200.998103 80.673608 
L 201.489089 250.289739 
L 202.291918 130.730403 
L 202.6303 208.877647 
L 203.187636 224.987034 
L 203.426494 288.346176 
L 203.725066 205.499368 
L 204.003734 218.633046 
L 204.262497 285.257448 
L 204.614149 260.554121 
L 205.337358 149.834233 
L 205.463422 274.177769 
L 205.775265 215.083065 
L 205.974313 240.56835 
L 206.312695 198.251508 
L 206.538283 228.959952 
L 207.666224 188.048978 
L 207.944892 284.507907 
L 208.203655 224.2153 
L 208.81407 147.959381 
L 209.663343 213.009564 
L 209.975185 212.795527 
L 210.685125 167.218328 
L 211.182746 190.766234 
L 211.368524 242.860646 
L 211.673732 214.72902 
L 211.905955 241.186195 
L 212.390306 223.053632 
L 212.761863 203.690638 
L 213.159959 215.154855 
L 213.405453 227.113596 
L 214.181741 207.244842 
L 214.407329 232.332523 
L 214.772251 209.030123 
L 214.977935 239.489021 
L 215.329587 198.863079 
L 215.694509 262.850632 
L 215.900192 239.247119 
L 216.105876 238.992589 
L 216.397813 212.571739 
L 216.703021 202.830009 
L 216.915339 237.355319 
L 217.213912 211.694686 
L 217.472674 219.712921 
L 217.884041 160.712815 
L 218.448012 224.33549 
L 218.693505 225.523268 
L 218.912458 237.438769 
L 219.144681 231.765314 
L 219.622397 191.067811 
L 219.887795 218.140457 
L 220.239447 205.10297 
L 220.697258 194.314156 
L 221.002466 230.771474 
L 221.287768 212.230053 
L 221.486817 239.790252 
L 221.792024 204.882035 
L 222.409074 202.92988 
L 222.740822 206.892509 
L 222.986315 222.230392 
L 223.384411 176.111258 
L 223.629904 224.458545 
L 224.1607 205.105259 
L 224.479177 208.03193 
L 225.527499 68.048746 
L 226.383407 201.752316 
L 226.841218 140.114287 
L 227.073441 228.385171 
L 227.690491 237.503659 
L 228.148303 228.072597 
L 228.572939 173.675423 
L 228.871512 201.554534 
L 229.262974 173.92206 
L 229.820309 89.128281 
L 230.238311 160.126492 
L 230.616503 183.739715 
L 231.180473 77.75862 
L 231.824063 72.448785 
L 232.381398 87.542713 
L 232.952004 78.617028 
L 233.137782 242.377808 
L 233.761467 64.637487 
L 233.960515 240.431303 
L 234.517851 85.326382 
L 235.075186 86.941931 
L 235.665697 77.089048 
L 235.891285 233.750511 
L 236.44862 93.92244 
L 237.032495 70.311093 
L 237.616371 71.259688 
L 238.153801 103.377185 
L 238.33958 245.265717 
L 239.029614 59.545125 
L 239.653299 90.108232 
L 240.263714 59.243083 
L 240.867494 67.882438 
L 241.458004 73.899481 
L 242.194483 53.568 
L 242.738549 92.82334 
L 243.315789 85.533055 
L 243.86649 97.096967 
L 244.43046 95.769214 
L 244.967891 94.943988 
L 245.558401 83.460494 
L 246.122372 78.837689 
L 246.686342 95.182757 
L 247.210503 115.460409 
L 247.781108 75.976294 
L 248.331809 96.486672 
L 248.915684 73.663062 
L 249.473019 81.783709 
L 250.196228 68.555267 
L 251.012327 61.01198 
L 251.224645 237.12774 
L 251.775346 87.282122 
L 252.326046 87.713743 
L 252.890016 89.857545 
L 253.440717 92.931141 
L 253.991418 102.273239 
L 254.535483 93.200785 
L 255.086184 95.419108 
L 255.716503 91.234582 
L 256.273839 94.703071 
L 256.831174 94.725173 
L 257.368605 94.139912 
L 257.932575 89.606355 
L 258.476641 89.702518 
L 259.073786 75.688678 
L 259.637757 79.826772 
L 260.201727 78.845109 
L 260.739158 92.249953 
L 261.376112 60.26105 
L 261.959988 67.1927 
L 262.537228 71.170563 
L 263.074659 92.509704 
L 263.605454 93.40193 
L 264.156155 85.298696 
L 264.706855 88.857103 
L 265.244286 101.649963 
L 266.358957 90.682615 
L 266.916292 102.908791 
L 267.473628 91.632328 
L 268.044233 88.817924 
L 268.614839 77.830746 
L 269.72951 88.727412 
L 270.286845 90.707895 
L 270.830911 87.958655 
L 271.421421 62.250228 
L 271.985391 92.749816 
L 272.549362 94.188615 
L 273.086792 109.716223 
L 273.657398 79.864004 
L 274.234638 80.675734 
L 274.805243 97.636736 
L 275.349309 90.087238 
L 275.893374 87.790132 
L 276.47725 84.369383 
L 277.021315 105.603196 
L 277.572016 88.806812 
L 278.149256 86.993095 
L 278.726496 74.87124 
L 279.290467 98.737124 
L 279.841167 105.631352 
L 280.431678 82.671537 
L 281.002283 99.283384 
L 281.586158 90.124973 
L 282.136859 90.403481 
L 282.694194 101.578509 
L 283.25153 90.914109 
L 283.822135 102.322065 
L 284.386105 80.4636 
L 284.916901 94.472136 
L 285.474237 104.186767 
L 286.018302 99.167693 
L 286.588907 76.280093 
L 287.119703 99.08911 
L 287.663769 96.019834 
L 288.201199 114.656669 
L 289.295965 87.90542 
L 289.833396 96.221158 
L 290.364192 101.106064 
L 290.894987 96.403155 
L 291.439053 93.567813 
L 291.976484 101.080862 
L 292.507279 97.138787 
L 293.04471 95.028524 
L 293.615315 99.141741 
L 294.703447 85.88944 
L 295.234242 105.061692 
L 295.778308 90.108478 
L 296.309103 97.59627 
L 296.839899 98.196079 
L 297.397235 82.06582 
L 297.96784 99.574492 
L 298.511906 100.859753 
L 299.062606 98.827166 
L 299.633211 99.082396 
L 300.164007 100.758744 
L 300.701438 96.401051 
L 301.238868 98.604837 
L 301.776299 96.4204 
L 302.346904 99.702549 
L 302.897605 86.973131 
L 303.461575 102.475245 
L 304.018911 105.191741 
L 304.582881 102.182906 
L 305.153487 101.71628 
L 305.724092 98.539851 
L 306.288062 101.363756 
L 306.852033 100.968249 
L 307.416003 97.690799 
L 307.973339 99.517441 
L 308.510769 113.350493 
L 309.041565 113.579682 
L 309.605535 97.191742 
L 310.169506 102.949649 
L 310.700301 114.753504 
L 311.257637 102.299347 
L 311.795068 116.159772 
L 312.345768 105.328896 
L 312.889834 108.011975 
L 313.427264 98.020359 
L 313.9846 105.85367 
L 314.541935 104.256508 
L 315.079366 113.382141 
L 315.649971 79.813388 
L 316.207307 98.197914 
L 316.777912 76.306537 
L 317.348517 80.853211 
L 317.879313 100.40565 
L 318.423379 99.263061 
L 319.544685 95.916565 
L 320.108655 103.03978 
L 320.69253 84.782774 
L 321.263136 90.293206 
L 321.827106 99.324164 
L 322.397711 100.058184 
L 322.941777 110.47305 
L 323.512382 100.378445 
L 324.082988 100.066398 
L 324.660228 98.873171 
L 325.217563 107.343612 
L 325.814709 91.749094 
L 326.91611 106.135557 
L 327.486715 94.232483 
L 328.05732 100.295778 
L 328.634561 96.251116 
L 329.158721 116.515295 
L 329.716057 103.468402 
L 330.280027 102.300388 
L 330.837363 100.277883 
L 331.381428 89.670613 
L 331.912224 100.131462 
L 332.469559 104.943382 
L 333.040165 101.36238 
L 333.5975 105.398839 
L 334.161471 98.4563 
L 334.718806 105.832407 
L 335.269507 107.972908 
L 335.840112 99.761772 
L 336.390813 107.582145 
L 336.948148 101.50334 
L 337.505484 101.750647 
L 338.069454 105.036691 
L 338.620154 104.415396 
L 339.197395 99.720701 
L 339.761365 100.162998 
L 340.292161 99.318087 
L 340.862766 99.842435 
L 341.413467 100.118223 
L 341.970802 105.929264 
L 342.521503 109.365142 
L 343.112013 87.877186 
L 343.675983 101.542978 
L 344.239954 104.374046 
L 344.823829 91.615497 
L 345.387799 104.063298 
L 345.958405 102.859204 
L 346.522375 97.236696 
L 347.079711 106.591876 
L 347.643681 101.125257 
L 348.194382 99.991923 
L 348.751717 98.570111 
L 349.302418 88.650195 
L 349.886293 91.970058 
L 350.430358 99.743665 
L 351.000964 99.920044 
L 351.564934 96.41016 
L 352.128905 97.666359 
L 352.692875 101.610213 
L 353.223671 116.504574 
L 353.774371 103.789121 
L 354.325072 98.995241 
L 354.895677 100.531021 
L 355.433108 98.634392 
L 356.003713 98.521666 
L 356.547779 98.059259 
L 357.098479 99.824194 
L 357.642545 95.973146 
L 358.206515 104.024555 
L 358.770486 98.170205 
L 359.307916 95.598139 
L 359.865252 97.40353 
L 360.409317 97.004888 
L 360.940113 95.063529 
L 361.490814 98.334275 
L 362.061419 97.368692 
L 362.645294 93.594682 
L 363.209265 102.276932 
L 363.77987 96.423377 
L 364.37038 86.226252 
L 364.934351 100.723739 
L 365.498321 103.797492 
L 366.055656 106.055217 
L 366.612992 105.816337 
L 367.183597 101.501427 
L 367.747568 101.111178 
L 368.324808 98.647328 
L 368.888778 104.155298 
L 369.459384 102.197421 
L 370.029989 99.023297 
L 370.59396 99.311372 
L 371.15793 104.262641 
L 371.7219 101.280463 
L 372.285871 104.363694 
L 372.863111 98.6262 
L 373.407177 111.228927 
L 373.984417 99.145423 
L 374.535117 108.440978 
L 375.682963 96.523457 
L 376.253568 98.738433 
L 376.850714 82.313732 
L 377.454494 81.247476 
L 378.051639 65.184184 
L 378.628879 71.926037 
L 379.239294 62.006927 
L 379.829804 78.264784 
L 380.42695 66.515921 
L 381.024095 70.75311 
L 381.641145 72.928974 
L 382.22502 81.435584 
L 382.782355 105.681084 
L 383.339691 105.746226 
L 383.930201 91.269845 
L 384.500806 103.321018 
L 385.058142 106.301473 
L 385.608842 107.342985 
L 386.152908 109.967536 
L 386.743418 87.8823 
L 387.294119 108.89742 
L 387.871359 93.896567 
L 388.428695 101.565103 
L 388.966125 116.283162 
L 389.523461 108.254526 
L 390.585052 116.885343 
L 391.122483 114.259404 
L 391.666548 115.27567 
L 392.177439 125.73154 
L 392.741409 102.427169 
L 393.27884 112.739482 
L 393.836176 102.8586 
L 394.406781 100.544215 
L 394.997291 94.925109 
L 395.567896 97.071384 
L 396.138502 93.700939 
L 396.722377 86.639217 
L 397.312887 88.435375 
L 397.896763 94.131508 
L 398.487273 75.89685 
L 398.487273 75.89685 
" clip-path="url(#p9be9e549d3)" style="fill: none; stroke: #1f77b4; stroke-width: 1.5; stroke-linecap: square"/>
   </g>
   <g id="patch_3">
    <path d="M 57.6 307.584 
L 57.6 41.472 
" style="fill: none; stroke: #000000; stroke-width: 0.8; stroke-linejoin: miter; stroke-linecap: square"/>
   </g>
   <g id="patch_4">
    <path d="M 414.72 307.584 
L 414.72 41.472 
" style="fill: none; stroke: #000000; stroke-width: 0.8; stroke-linejoin: miter; stroke-linecap: square"/>
   </g>
   <g id="patch_5">
    <path d="M 57.6 307.584 
L 414.72 307.584 
" style="fill: none; stroke: #000000; stroke-width: 0.8; stroke-linejoin: miter; stroke-linecap: square"/>
   </g>
   <g id="patch_6">
    <path d="M 57.6 41.472 
L 414.72 41.472 
" style="fill: none; stroke: #000000; stroke-width: 0.8; stroke-linejoin: miter; stroke-linecap: square"/>
   </g>
   <g id="text_14">
    <!-- learning curve -->
    <g transform="translate(192.96375 35.472) scale(0.12 -0.12)">
     <defs>
      <path id="DejaVuSans-6c" d="M 603 4863 
L 1178 4863 
L 1178 0 
L 603 0 
L 603 4863 
z
" transform="scale(0.015625)"/>
      <path id="DejaVuSans-6e" d="M 3513 2113 
L 3513 0 
L 2938 0 
L 2938 2094 
Q 2938 2591 2744 2837 
Q 2550 3084 2163 3084 
Q 1697 3084 1428 2787 
Q 1159 2491 1159 1978 
L 1159 0 
L 581 0 
L 581 3500 
L 1159 3500 
L 1159 2956 
Q 1366 3272 1645 3428 
Q 1925 3584 2291 3584 
Q 2894 3584 3203 3211 
Q 3513 2838 3513 2113 
z
" transform="scale(0.015625)"/>
      <path id="DejaVuSans-67" d="M 2906 1791 
Q 2906 2416 2648 2759 
Q 2391 3103 1925 3103 
Q 1463 3103 1205 2759 
Q 947 2416 947 1791 
Q 947 1169 1205 825 
Q 1463 481 1925 481 
Q 2391 481 2648 825 
Q 2906 1169 2906 1791 
z
M 3481 434 
Q 3481 -459 3084 -895 
Q 2688 -1331 1869 -1331 
Q 1566 -1331 1297 -1286 
Q 1028 -1241 775 -1147 
L 775 -588 
Q 1028 -725 1275 -790 
Q 1522 -856 1778 -856 
Q 2344 -856 2625 -561 
Q 2906 -266 2906 331 
L 2906 616 
Q 2728 306 2450 153 
Q 2172 0 1784 0 
Q 1141 0 747 490 
Q 353 981 353 1791 
Q 353 2603 747 3093 
Q 1141 3584 1784 3584 
Q 2172 3584 2450 3431 
Q 2728 3278 2906 2969 
L 2906 3500 
L 3481 3500 
L 3481 434 
z
" transform="scale(0.015625)"/>
      <path id="DejaVuSans-20" transform="scale(0.015625)"/>
      <path id="DejaVuSans-63" d="M 3122 3366 
L 3122 2828 
Q 2878 2963 2633 3030 
Q 2388 3097 2138 3097 
Q 1578 3097 1268 2742 
Q 959 2388 959 1747 
Q 959 1106 1268 751 
Q 1578 397 2138 397 
Q 2388 397 2633 464 
Q 2878 531 3122 666 
L 3122 134 
Q 2881 22 2623 -34 
Q 2366 -91 2075 -91 
Q 1284 -91 818 406 
Q 353 903 353 1747 
Q 353 2603 823 3093 
Q 1294 3584 2113 3584 
Q 2378 3584 2631 3529 
Q 2884 3475 3122 3366 
z
" transform="scale(0.015625)"/>
      <path id="DejaVuSans-75" d="M 544 1381 
L 544 3500 
L 1119 3500 
L 1119 1403 
Q 1119 906 1312 657 
Q 1506 409 1894 409 
Q 2359 409 2629 706 
Q 2900 1003 2900 1516 
L 2900 3500 
L 3475 3500 
L 3475 0 
L 2900 0 
L 2900 538 
Q 2691 219 2414 64 
Q 2138 -91 1772 -91 
Q 1169 -91 856 284 
Q 544 659 544 1381 
z
M 1991 3584 
L 1991 3584 
z
" transform="scale(0.015625)"/>
      <path id="DejaVuSans-76" d="M 191 3500 
L 800 3500 
L 1894 563 
L 2988 3500 
L 3597 3500 
L 2284 0 
L 1503 0 
L 191 3500 
z
" transform="scale(0.015625)"/>
     </defs>
     <use xlink:href="#DejaVuSans-6c"/>
     <use xlink:href="#DejaVuSans-65" x="27.783203"/>
     <use xlink:href="#DejaVuSans-61" x="89.306641"/>
     <use xlink:href="#DejaVuSans-72" x="150.585938"/>
     <use xlink:href="#DejaVuSans-6e" x="189.949219"/>
     <use xlink:href="#DejaVuSans-69" x="253.328125"/>
     <use xlink:href="#DejaVuSans-6e" x="281.111328"/>
     <use xlink:href="#DejaVuSans-67" x="344.490234"/>
     <use xlink:href="#DejaVuSans-20" x="407.966797"/>
     <use xlink:href="#DejaVuSans-63" x="439.753906"/>
     <use xlink:href="#DejaVuSans-75" x="494.734375"/>
     <use xlink:href="#DejaVuSans-72" x="558.113281"/>
     <use xlink:href="#DejaVuSans-76" x="599.226562"/>
     <use xlink:href="#DejaVuSans-65" x="658.40625"/>
    </g>
   </g>
  </g>
 </g>
 <defs>
  <clipPath id="p9be9e549d3">
   <rect x="57.6" y="41.472" width="357.12" height="266.112"/>
  </clipPath>
 </defs>
</svg>
