<?xml version="1.0" encoding="utf-8" standalone="no"?>
<!DOCTYPE svg PUBLIC "-//W3C//DTD SVG 1.1//EN"
  "http://www.w3.org/Graphics/SVG/1.1/DTD/svg11.dtd">
<svg xmlns:xlink="http://www.w3.org/1999/xlink" width="460.8pt" height="345.6pt" viewBox="0 0 460.8 345.6" xmlns="http://www.w3.org/2000/svg" version="1.1">
 <metadata>
  <rdf:RDF xmlns:dc="http://purl.org/dc/elements/1.1/" xmlns:cc="http://creativecommons.org/ns#" xmlns:rdf="http://www.w3.org/1999/02/22-rdf-syntax-ns#">
   <cc:Work>
    <dc:type rdf:resource="http://purl.org/dc/dcmitype/StillImage"/>
    <dc:date>2023-08-18T16:45:02.012697</dc:date>
    <dc:format>image/svg+xml</dc:format>
    <dc:creator>
     <cc:Agent>
      <dc:title>Matplotlib v3.7.1, https://matplotlib.org/</dc:title>
     </cc:Agent>
    </dc:creator>
   </cc:Work>
  </rdf:RDF>
 </metadata>
 <defs>
  <style type="text/css">*{stroke-linejoin: round; stroke-linecap: butt}</style>
 </defs>
 <g id="figure_1">
  <g id="patch_1">
   <path d="M 0 345.6 
L 460.8 345.6 
L 460.8 0 
L 0 0 
z
" style="fill: #ffffff"/>
  </g>
  <g id="axes_1">
   <g id="patch_2">
    <path d="M 57.6 307.584 
L 414.72 307.584 
L 414.72 41.472 
L 57.6 41.472 
z
" style="fill: #ffffff"/>
   </g>
   <g id="matplotlib.axis_1">
    <g id="xtick_1">
     <g id="line2d_1">
      <defs>
       <path id="m7094553481" d="M 0 0 
L 0 3.5 
" style="stroke: #000000; stroke-width: 0.8"/>
      </defs>
      <g>
       <use xlink:href="#m7094553481" x="73.766591" y="307.584" style="stroke: #000000; stroke-width: 0.8"/>
      </g>
     </g>
     <g id="text_1">
      <!-- 0 -->
      <g transform="translate(70.585341 322.182437) scale(0.1 -0.1)">
       <defs>
        <path id="DejaVuSans-30" d="M 2034 4250 
Q 1547 4250 1301 3770 
Q 1056 3291 1056 2328 
Q 1056 1369 1301 889 
Q 1547 409 2034 409 
Q 2525 409 2770 889 
Q 3016 1369 3016 2328 
Q 3016 3291 2770 3770 
Q 2525 4250 2034 4250 
z
M 2034 4750 
Q 2819 4750 3233 4129 
Q 3647 3509 3647 2328 
Q 3647 1150 3233 529 
Q 2819 -91 2034 -91 
Q 1250 -91 836 529 
Q 422 1150 422 2328 
Q 422 3509 836 4129 
Q 1250 4750 2034 4750 
z
" transform="scale(0.015625)"/>
       </defs>
       <use xlink:href="#DejaVuSans-30"/>
      </g>
     </g>
    </g>
    <g id="xtick_2">
     <g id="line2d_2">
      <g>
       <use xlink:href="#m7094553481" x="139.902497" y="307.584" style="stroke: #000000; stroke-width: 0.8"/>
      </g>
     </g>
     <g id="text_2">
      <!-- 10000 -->
      <g transform="translate(123.996247 322.182437) scale(0.1 -0.1)">
       <defs>
        <path id="DejaVuSans-31" d="M 794 531 
L 1825 531 
L 1825 4091 
L 703 3866 
L 703 4441 
L 1819 4666 
L 2450 4666 
L 2450 531 
L 3481 531 
L 3481 0 
L 794 0 
L 794 531 
z
" transform="scale(0.015625)"/>
       </defs>
       <use xlink:href="#DejaVuSans-31"/>
       <use xlink:href="#DejaVuSans-30" x="63.623047"/>
       <use xlink:href="#DejaVuSans-30" x="127.246094"/>
       <use xlink:href="#DejaVuSans-30" x="190.869141"/>
       <use xlink:href="#DejaVuSans-30" x="254.492188"/>
      </g>
     </g>
    </g>
    <g id="xtick_3">
     <g id="line2d_3">
      <g>
       <use xlink:href="#m7094553481" x="206.038402" y="307.584" style="stroke: #000000; stroke-width: 0.8"/>
      </g>
     </g>
     <g id="text_3">
      <!-- 20000 -->
      <g transform="translate(190.132152 322.182437) scale(0.1 -0.1)">
       <defs>
        <path id="DejaVuSans-32" d="M 1228 531 
L 3431 531 
L 3431 0 
L 469 0 
L 469 531 
Q 828 903 1448 1529 
Q 2069 2156 2228 2338 
Q 2531 2678 2651 2914 
Q 2772 3150 2772 3378 
Q 2772 3750 2511 3984 
Q 2250 4219 1831 4219 
Q 1534 4219 1204 4116 
Q 875 4013 500 3803 
L 500 4441 
Q 881 4594 1212 4672 
Q 1544 4750 1819 4750 
Q 2544 4750 2975 4387 
Q 3406 4025 3406 3419 
Q 3406 3131 3298 2873 
Q 3191 2616 2906 2266 
Q 2828 2175 2409 1742 
Q 1991 1309 1228 531 
z
" transform="scale(0.015625)"/>
       </defs>
       <use xlink:href="#DejaVuSans-32"/>
       <use xlink:href="#DejaVuSans-30" x="63.623047"/>
       <use xlink:href="#DejaVuSans-30" x="127.246094"/>
       <use xlink:href="#DejaVuSans-30" x="190.869141"/>
       <use xlink:href="#DejaVuSans-30" x="254.492188"/>
      </g>
     </g>
    </g>
    <g id="xtick_4">
     <g id="line2d_4">
      <g>
       <use xlink:href="#m7094553481" x="272.174307" y="307.584" style="stroke: #000000; stroke-width: 0.8"/>
      </g>
     </g>
     <g id="text_4">
      <!-- 30000 -->
      <g transform="translate(256.268057 322.182437) scale(0.1 -0.1)">
       <defs>
        <path id="DejaVuSans-33" d="M 2597 2516 
Q 3050 2419 3304 2112 
Q 3559 1806 3559 1356 
Q 3559 666 3084 287 
Q 2609 -91 1734 -91 
Q 1441 -91 1130 -33 
Q 819 25 488 141 
L 488 750 
Q 750 597 1062 519 
Q 1375 441 1716 441 
Q 2309 441 2620 675 
Q 2931 909 2931 1356 
Q 2931 1769 2642 2001 
Q 2353 2234 1838 2234 
L 1294 2234 
L 1294 2753 
L 1863 2753 
Q 2328 2753 2575 2939 
Q 2822 3125 2822 3475 
Q 2822 3834 2567 4026 
Q 2313 4219 1838 4219 
Q 1578 4219 1281 4162 
Q 984 4106 628 3988 
L 628 4550 
Q 988 4650 1302 4700 
Q 1616 4750 1894 4750 
Q 2613 4750 3031 4423 
Q 3450 4097 3450 3541 
Q 3450 3153 3228 2886 
Q 3006 2619 2597 2516 
z
" transform="scale(0.015625)"/>
       </defs>
       <use xlink:href="#DejaVuSans-33"/>
       <use xlink:href="#DejaVuSans-30" x="63.623047"/>
       <use xlink:href="#DejaVuSans-30" x="127.246094"/>
       <use xlink:href="#DejaVuSans-30" x="190.869141"/>
       <use xlink:href="#DejaVuSans-30" x="254.492188"/>
      </g>
     </g>
    </g>
    <g id="xtick_5">
     <g id="line2d_5">
      <g>
       <use xlink:href="#m7094553481" x="338.310213" y="307.584" style="stroke: #000000; stroke-width: 0.8"/>
      </g>
     </g>
     <g id="text_5">
      <!-- 40000 -->
      <g transform="translate(322.403963 322.182437) scale(0.1 -0.1)">
       <defs>
        <path id="DejaVuSans-34" d="M 2419 4116 
L 825 1625 
L 2419 1625 
L 2419 4116 
z
M 2253 4666 
L 3047 4666 
L 3047 1625 
L 3713 1625 
L 3713 1100 
L 3047 1100 
L 3047 0 
L 2419 0 
L 2419 1100 
L 313 1100 
L 313 1709 
L 2253 4666 
z
" transform="scale(0.015625)"/>
       </defs>
       <use xlink:href="#DejaVuSans-34"/>
       <use xlink:href="#DejaVuSans-30" x="63.623047"/>
       <use xlink:href="#DejaVuSans-30" x="127.246094"/>
       <use xlink:href="#DejaVuSans-30" x="190.869141"/>
       <use xlink:href="#DejaVuSans-30" x="254.492188"/>
      </g>
     </g>
    </g>
    <g id="xtick_6">
     <g id="line2d_6">
      <g>
       <use xlink:href="#m7094553481" x="404.446118" y="307.584" style="stroke: #000000; stroke-width: 0.8"/>
      </g>
     </g>
     <g id="text_6">
      <!-- 50000 -->
      <g transform="translate(388.539868 322.182437) scale(0.1 -0.1)">
       <defs>
        <path id="DejaVuSans-35" d="M 691 4666 
L 3169 4666 
L 3169 4134 
L 1269 4134 
L 1269 2991 
Q 1406 3038 1543 3061 
Q 1681 3084 1819 3084 
Q 2600 3084 3056 2656 
Q 3513 2228 3513 1497 
Q 3513 744 3044 326 
Q 2575 -91 1722 -91 
Q 1428 -91 1123 -41 
Q 819 9 494 109 
L 494 744 
Q 775 591 1075 516 
Q 1375 441 1709 441 
Q 2250 441 2565 725 
Q 2881 1009 2881 1497 
Q 2881 1984 2565 2268 
Q 2250 2553 1709 2553 
Q 1456 2553 1204 2497 
Q 953 2441 691 2322 
L 691 4666 
z
" transform="scale(0.015625)"/>
       </defs>
       <use xlink:href="#DejaVuSans-35"/>
       <use xlink:href="#DejaVuSans-30" x="63.623047"/>
       <use xlink:href="#DejaVuSans-30" x="127.246094"/>
       <use xlink:href="#DejaVuSans-30" x="190.869141"/>
       <use xlink:href="#DejaVuSans-30" x="254.492188"/>
      </g>
     </g>
    </g>
    <g id="text_7">
     <!-- timesteps -->
     <g transform="translate(211.443594 335.860562) scale(0.1 -0.1)">
      <defs>
       <path id="DejaVuSans-74" d="M 1172 4494 
L 1172 3500 
L 2356 3500 
L 2356 3053 
L 1172 3053 
L 1172 1153 
Q 1172 725 1289 603 
Q 1406 481 1766 481 
L 2356 481 
L 2356 0 
L 1766 0 
Q 1100 0 847 248 
Q 594 497 594 1153 
L 594 3053 
L 172 3053 
L 172 3500 
L 594 3500 
L 594 4494 
L 1172 4494 
z
" transform="scale(0.015625)"/>
       <path id="DejaVuSans-69" d="M 603 3500 
L 1178 3500 
L 1178 0 
L 603 0 
L 603 3500 
z
M 603 4863 
L 1178 4863 
L 1178 4134 
L 603 4134 
L 603 4863 
z
" transform="scale(0.015625)"/>
       <path id="DejaVuSans-6d" d="M 3328 2828 
Q 3544 3216 3844 3400 
Q 4144 3584 4550 3584 
Q 5097 3584 5394 3201 
Q 5691 2819 5691 2113 
L 5691 0 
L 5113 0 
L 5113 2094 
Q 5113 2597 4934 2840 
Q 4756 3084 4391 3084 
Q 3944 3084 3684 2787 
Q 3425 2491 3425 1978 
L 3425 0 
L 2847 0 
L 2847 2094 
Q 2847 2600 2669 2842 
Q 2491 3084 2119 3084 
Q 1678 3084 1418 2786 
Q 1159 2488 1159 1978 
L 1159 0 
L 581 0 
L 581 3500 
L 1159 3500 
L 1159 2956 
Q 1356 3278 1631 3431 
Q 1906 3584 2284 3584 
Q 2666 3584 2933 3390 
Q 3200 3197 3328 2828 
z
" transform="scale(0.015625)"/>
       <path id="DejaVuSans-65" d="M 3597 1894 
L 3597 1613 
L 953 1613 
Q 991 1019 1311 708 
Q 1631 397 2203 397 
Q 2534 397 2845 478 
Q 3156 559 3463 722 
L 3463 178 
Q 3153 47 2828 -22 
Q 2503 -91 2169 -91 
Q 1331 -91 842 396 
Q 353 884 353 1716 
Q 353 2575 817 3079 
Q 1281 3584 2069 3584 
Q 2775 3584 3186 3129 
Q 3597 2675 3597 1894 
z
M 3022 2063 
Q 3016 2534 2758 2815 
Q 2500 3097 2075 3097 
Q 1594 3097 1305 2825 
Q 1016 2553 972 2059 
L 3022 2063 
z
" transform="scale(0.015625)"/>
       <path id="DejaVuSans-73" d="M 2834 3397 
L 2834 2853 
Q 2591 2978 2328 3040 
Q 2066 3103 1784 3103 
Q 1356 3103 1142 2972 
Q 928 2841 928 2578 
Q 928 2378 1081 2264 
Q 1234 2150 1697 2047 
L 1894 2003 
Q 2506 1872 2764 1633 
Q 3022 1394 3022 966 
Q 3022 478 2636 193 
Q 2250 -91 1575 -91 
Q 1294 -91 989 -36 
Q 684 19 347 128 
L 347 722 
Q 666 556 975 473 
Q 1284 391 1588 391 
Q 1994 391 2212 530 
Q 2431 669 2431 922 
Q 2431 1156 2273 1281 
Q 2116 1406 1581 1522 
L 1381 1569 
Q 847 1681 609 1914 
Q 372 2147 372 2553 
Q 372 3047 722 3315 
Q 1072 3584 1716 3584 
Q 2034 3584 2315 3537 
Q 2597 3491 2834 3397 
z
" transform="scale(0.015625)"/>
       <path id="DejaVuSans-70" d="M 1159 525 
L 1159 -1331 
L 581 -1331 
L 581 3500 
L 1159 3500 
L 1159 2969 
Q 1341 3281 1617 3432 
Q 1894 3584 2278 3584 
Q 2916 3584 3314 3078 
Q 3713 2572 3713 1747 
Q 3713 922 3314 415 
Q 2916 -91 2278 -91 
Q 1894 -91 1617 61 
Q 1341 213 1159 525 
z
M 3116 1747 
Q 3116 2381 2855 2742 
Q 2594 3103 2138 3103 
Q 1681 3103 1420 2742 
Q 1159 2381 1159 1747 
Q 1159 1113 1420 752 
Q 1681 391 2138 391 
Q 2594 391 2855 752 
Q 3116 1113 3116 1747 
z
" transform="scale(0.015625)"/>
      </defs>
      <use xlink:href="#DejaVuSans-74"/>
      <use xlink:href="#DejaVuSans-69" x="39.208984"/>
      <use xlink:href="#DejaVuSans-6d" x="66.992188"/>
      <use xlink:href="#DejaVuSans-65" x="164.404297"/>
      <use xlink:href="#DejaVuSans-73" x="225.927734"/>
      <use xlink:href="#DejaVuSans-74" x="278.027344"/>
      <use xlink:href="#DejaVuSans-65" x="317.236328"/>
      <use xlink:href="#DejaVuSans-70" x="378.759766"/>
      <use xlink:href="#DejaVuSans-73" x="442.236328"/>
     </g>
    </g>
   </g>
   <g id="matplotlib.axis_2">
    <g id="ytick_1">
     <g id="line2d_7">
      <defs>
       <path id="mef66a82407" d="M 0 0 
L -3.5 0 
" style="stroke: #000000; stroke-width: 0.8"/>
      </defs>
      <g>
       <use xlink:href="#mef66a82407" x="57.6" y="299.637608" style="stroke: #000000; stroke-width: 0.8"/>
      </g>
     </g>
     <g id="text_8">
      <!-- 0 -->
      <g transform="translate(44.2375 303.436826) scale(0.1 -0.1)">
       <use xlink:href="#DejaVuSans-30"/>
      </g>
     </g>
    </g>
    <g id="ytick_2">
     <g id="line2d_8">
      <g>
       <use xlink:href="#mef66a82407" x="57.6" y="254.435815" style="stroke: #000000; stroke-width: 0.8"/>
      </g>
     </g>
     <g id="text_9">
      <!-- 50 -->
      <g transform="translate(37.875 258.235034) scale(0.1 -0.1)">
       <use xlink:href="#DejaVuSans-35"/>
       <use xlink:href="#DejaVuSans-30" x="63.623047"/>
      </g>
     </g>
    </g>
    <g id="ytick_3">
     <g id="line2d_9">
      <g>
       <use xlink:href="#mef66a82407" x="57.6" y="209.234023" style="stroke: #000000; stroke-width: 0.8"/>
      </g>
     </g>
     <g id="text_10">
      <!-- 100 -->
      <g transform="translate(31.5125 213.033242) scale(0.1 -0.1)">
       <use xlink:href="#DejaVuSans-31"/>
       <use xlink:href="#DejaVuSans-30" x="63.623047"/>
       <use xlink:href="#DejaVuSans-30" x="127.246094"/>
      </g>
     </g>
    </g>
    <g id="ytick_4">
     <g id="line2d_10">
      <g>
       <use xlink:href="#mef66a82407" x="57.6" y="164.032231" style="stroke: #000000; stroke-width: 0.8"/>
      </g>
     </g>
     <g id="text_11">
      <!-- 150 -->
      <g transform="translate(31.5125 167.831449) scale(0.1 -0.1)">
       <use xlink:href="#DejaVuSans-31"/>
       <use xlink:href="#DejaVuSans-35" x="63.623047"/>
       <use xlink:href="#DejaVuSans-30" x="127.246094"/>
      </g>
     </g>
    </g>
    <g id="ytick_5">
     <g id="line2d_11">
      <g>
       <use xlink:href="#mef66a82407" x="57.6" y="118.830438" style="stroke: #000000; stroke-width: 0.8"/>
      </g>
     </g>
     <g id="text_12">
      <!-- 200 -->
      <g transform="translate(31.5125 122.629657) scale(0.1 -0.1)">
       <use xlink:href="#DejaVuSans-32"/>
       <use xlink:href="#DejaVuSans-30" x="63.623047"/>
       <use xlink:href="#DejaVuSans-30" x="127.246094"/>
      </g>
     </g>
    </g>
    <g id="ytick_6">
     <g id="line2d_12">
      <g>
       <use xlink:href="#mef66a82407" x="57.6" y="73.628646" style="stroke: #000000; stroke-width: 0.8"/>
      </g>
     </g>
     <g id="text_13">
      <!-- 250 -->
      <g transform="translate(31.5125 77.427865) scale(0.1 -0.1)">
       <use xlink:href="#DejaVuSans-32"/>
       <use xlink:href="#DejaVuSans-35" x="63.623047"/>
       <use xlink:href="#DejaVuSans-30" x="127.246094"/>
      </g>
     </g>
    </g>
    <g id="text_14">
     <!-- rewards -->
     <g transform="translate(25.432812 194.447531) rotate(-90) scale(0.1 -0.1)">
      <defs>
       <path id="DejaVuSans-72" d="M 2631 2963 
Q 2534 3019 2420 3045 
Q 2306 3072 2169 3072 
Q 1681 3072 1420 2755 
Q 1159 2438 1159 1844 
L 1159 0 
L 581 0 
L 581 3500 
L 1159 3500 
L 1159 2956 
Q 1341 3275 1631 3429 
Q 1922 3584 2338 3584 
Q 2397 3584 2469 3576 
Q 2541 3569 2628 3553 
L 2631 2963 
z
" transform="scale(0.015625)"/>
       <path id="DejaVuSans-77" d="M 269 3500 
L 844 3500 
L 1563 769 
L 2278 3500 
L 2956 3500 
L 3675 769 
L 4391 3500 
L 4966 3500 
L 4050 0 
L 3372 0 
L 2619 2869 
L 1863 0 
L 1184 0 
L 269 3500 
z
" transform="scale(0.015625)"/>
       <path id="DejaVuSans-61" d="M 2194 1759 
Q 1497 1759 1228 1600 
Q 959 1441 959 1056 
Q 959 750 1161 570 
Q 1363 391 1709 391 
Q 2188 391 2477 730 
Q 2766 1069 2766 1631 
L 2766 1759 
L 2194 1759 
z
M 3341 1997 
L 3341 0 
L 2766 0 
L 2766 531 
Q 2569 213 2275 61 
Q 1981 -91 1556 -91 
Q 1019 -91 701 211 
Q 384 513 384 1019 
Q 384 1609 779 1909 
Q 1175 2209 1959 2209 
L 2766 2209 
L 2766 2266 
Q 2766 2663 2505 2880 
Q 2244 3097 1772 3097 
Q 1472 3097 1187 3025 
Q 903 2953 641 2809 
L 641 3341 
Q 956 3463 1253 3523 
Q 1550 3584 1831 3584 
Q 2591 3584 2966 3190 
Q 3341 2797 3341 1997 
z
" transform="scale(0.015625)"/>
       <path id="DejaVuSans-64" d="M 2906 2969 
L 2906 4863 
L 3481 4863 
L 3481 0 
L 2906 0 
L 2906 525 
Q 2725 213 2448 61 
Q 2172 -91 1784 -91 
Q 1150 -91 751 415 
Q 353 922 353 1747 
Q 353 2572 751 3078 
Q 1150 3584 1784 3584 
Q 2172 3584 2448 3432 
Q 2725 3281 2906 2969 
z
M 947 1747 
Q 947 1113 1208 752 
Q 1469 391 1925 391 
Q 2381 391 2643 752 
Q 2906 1113 2906 1747 
Q 2906 2381 2643 2742 
Q 2381 3103 1925 3103 
Q 1469 3103 1208 2742 
Q 947 2381 947 1747 
z
" transform="scale(0.015625)"/>
      </defs>
      <use xlink:href="#DejaVuSans-72"/>
      <use xlink:href="#DejaVuSans-65" x="38.863281"/>
      <use xlink:href="#DejaVuSans-77" x="100.386719"/>
      <use xlink:href="#DejaVuSans-61" x="182.173828"/>
      <use xlink:href="#DejaVuSans-72" x="243.453125"/>
      <use xlink:href="#DejaVuSans-64" x="282.816406"/>
      <use xlink:href="#DejaVuSans-73" x="346.292969"/>
     </g>
    </g>
   </g>
   <g id="line2d_13">
    <path d="M 73.832727 292.689239 
L 73.91209 291.218258 
L 73.991453 292.517092 
L 74.07743 290.238461 
L 74.17002 290.265134 
L 74.262611 292.0299 
L 74.368428 287.726392 
L 74.474246 292.839105 
L 74.580063 288.493823 
L 74.692494 290.623095 
L 75.036401 287.508819 
L 75.175286 282.115539 
L 75.320785 289.823248 
L 75.472898 283.137179 
L 75.539034 292.820711 
L 75.618397 292.562288 
L 75.889554 285.506954 
L 75.95569 292.64108 
L 76.068121 288.976861 
L 76.173938 292.598769 
L 76.511231 281.924792 
L 76.828684 293.983781 
L 76.954342 288.172791 
L 77.040319 291.512247 
L 77.185818 292.447802 
L 77.357771 274.361778 
L 77.50327 290.161028 
L 77.655383 282.91368 
L 77.767814 284.884795 
L 77.939767 292.296439 
L 78.012516 291.361247 
L 78.429173 278.175137 
L 78.495309 293.382629 
L 78.680489 286.094497 
L 78.951646 289.685344 
L 79.083918 286.318119 
L 79.262485 271.736569 
L 79.38153 284.120314 
L 79.546869 286.121072 
L 79.619619 292.39117 
L 79.870935 287.593606 
L 80.056116 269.702811 
L 80.24791 289.429965 
L 80.347114 287.318044 
L 80.519067 274.137631 
L 80.67118 294.424831 
L 81.180426 246.443383 
L 81.253176 291.129936 
L 81.405288 275.451291 
L 81.663218 292.312292 
L 82.000512 258.927093 
L 82.132783 281.217308 
L 82.357645 266.583783 
L 82.437009 289.83241 
L 82.714779 262.181474 
L 82.847051 288.170483 
L 83.032232 287.834943 
L 83.210799 277.224076 
L 83.290162 291.389069 
L 83.395979 289.470942 
L 83.468729 291.96684 
L 83.554705 290.315251 
L 83.634068 293.71515 
L 83.759727 284.236078 
L 83.885385 287.919335 
L 84.235905 267.974472 
L 84.335109 286.349593 
L 84.480608 288.436427 
L 84.811288 251.802196 
L 85.082445 276.107429 
L 85.280852 277.371192 
L 85.439579 292.027301 
L 85.532169 293.919833 
L 85.6446 291.266241 
L 85.796713 291.196559 
L 85.895916 289.444752 
L 85.99512 291.400533 
L 86.153846 288.222238 
L 86.286118 282.202402 
L 86.345641 293.562271 
L 86.557275 290.090818 
L 86.868114 256.839751 
L 86.967318 287.466997 
L 87.139271 288.12278 
L 87.397201 273.611699 
L 87.52286 284.55964 
L 87.694813 279.271485 
L 87.932902 293.118669 
L 88.303263 276.799766 
L 88.402467 292.473958 
L 88.528125 287.171741 
L 88.667011 286.978923 
L 88.792669 283.870881 
L 88.885259 291.807765 
L 89.010918 285.803663 
L 89.083667 292.809244 
L 89.176257 287.557099 
L 89.42096 290.941354 
L 89.685504 257.803005 
L 89.93682 265.254308 
L 90.10216 292.382849 
L 90.340249 290.460901 
L 90.518816 284.425406 
L 90.71061 287.01437 
L 90.796587 290.456965 
L 90.988381 287.517004 
L 91.094199 287.538724 
L 91.200016 291.827466 
L 91.345515 284.87144 
L 91.411651 292.515747 
L 91.629899 273.091101 
L 91.696035 293.546466 
L 91.762171 293.356309 
L 91.920897 283.057138 
L 92.013488 292.365965 
L 92.145759 293.646098 
L 92.344167 279.262715 
L 92.502893 279.600618 
L 92.575643 292.322815 
L 92.701301 282.037087 
L 92.774051 292.716157 
L 92.886482 288.215051 
L 93.10473 263.73608 
L 93.36266 293.389822 
L 93.812384 239.574325 
L 94.143064 290.477502 
L 94.22904 290.359086 
L 94.315017 288.820314 
L 94.414221 289.888853 
L 94.493584 294.438545 
L 94.665537 289.395511 
L 94.824264 277.583868 
L 94.98299 291.27228 
L 95.492236 274.437791 
L 95.710485 293.193447 
L 95.948574 281.129192 
L 96.325549 247.480764 
L 96.431366 292.541586 
L 96.570252 282.358401 
L 96.709137 284.12394 
L 96.795114 292.448283 
L 96.986908 288.425702 
L 97.238224 286.144408 
L 97.39695 293.594228 
L 97.846674 262.657043 
L 97.926038 291.566207 
L 98.157513 285.369848 
L 98.382375 256.120482 
L 98.620465 290.371454 
L 98.719668 291.546226 
L 98.871781 275.819501 
L 98.964371 290.028942 
L 99.083416 288.940517 
L 99.281824 279.659075 
L 99.427323 291.204733 
L 99.500072 290.502849 
L 99.705093 288.411389 
L 100.002705 247.093887 
L 100.227567 261.191682 
L 100.346612 285.541795 
L 100.558247 275.498438 
L 100.763268 292.013496 
L 100.981516 273.706996 
L 101.259287 289.865665 
L 101.457695 288.853732 
L 101.623035 287.764224 
L 101.775147 283.056792 
L 101.92726 282.324715 
L 102.178576 258.342915 
L 102.383598 294.220451 
L 102.509256 289.616586 
L 102.588619 292.014268 
L 103.018502 245.258956 
L 103.269819 294.063663 
L 103.395477 289.172014 
L 103.501294 287.505731 
L 103.759224 249.927572 
L 103.89811 291.155117 
L 103.984086 290.500927 
L 104.202335 292.261928 
L 104.34122 284.894658 
L 104.552855 289.994518 
L 104.790945 268.390413 
L 104.936444 292.27376 
L 105.220828 261.209063 
L 105.498599 289.273268 
L 105.617643 290.260135 
L 105.849119 286.012662 
L 106.212867 275.761716 
L 106.345138 282.404027 
L 106.398047 294.589782 
L 106.622909 280.307656 
L 106.874226 277.328767 
L 106.953589 292.089393 
L 107.151996 288.546062 
L 107.231359 292.885534 
L 107.32395 292.702071 
L 107.390086 294.077944 
L 107.681084 284.825177 
L 107.925786 293.170939 
L 108.031604 289.419795 
L 108.170489 289.556322 
L 108.573918 216.056528 
L 108.79878 287.486014 
L 109.05671 293.254603 
L 109.228664 294.441973 
L 109.55273 274.486912 
L 109.90325 287.836618 
L 110.048749 285.321312 
L 110.300065 263.678301 
L 110.782858 254.958879 
L 110.93497 291.226252 
L 111.067242 282.984249 
L 111.186287 283.500081 
L 111.397921 280.845347 
L 111.589716 267.604234 
L 111.847646 291.510888 
L 112.012985 279.002377 
L 112.151871 287.327691 
L 112.29737 279.770457 
L 112.48255 280.882543 
L 112.568527 291.193858 
L 112.81323 255.595883 
L 112.912434 290.831605 
L 113.203432 232.419559 
L 113.448135 288.767364 
L 113.534111 289.637831 
L 113.7722 273.062129 
L 114.023517 290.010246 
L 114.149175 290.627609 
L 114.202084 294.339054 
L 114.294674 288.343145 
L 114.499695 291.874184 
L 114.724558 287.381771 
L 114.889897 293.022791 
L 115.008942 282.763987 
L 115.094919 290.478688 
L 115.200736 289.92661 
L 115.306553 286.791506 
L 115.399144 292.017169 
L 115.471893 291.844908 
L 115.881936 257.969161 
L 116.027435 285.219365 
L 116.212615 288.780563 
L 116.285365 292.435332 
L 116.470545 274.887175 
L 116.569749 288.861037 
L 116.702021 290.437631 
L 116.807839 285.734911 
L 117.052541 292.486105 
L 117.158359 287.583854 
L 117.330312 293.304843 
L 117.396448 292.239945 
L 117.45597 293.187735 
L 117.634537 284.6151 
L 117.727128 289.384285 
L 117.852786 283.739855 
L 118.196693 255.784469 
L 118.381873 293.377244 
L 118.659644 276.800397 
L 118.732393 292.596248 
L 118.897733 287.168417 
L 118.996937 292.722588 
L 119.440048 228.192803 
L 119.645069 274.393889 
L 119.823636 279.597361 
L 119.902999 293.140792 
L 120.008816 284.500446 
L 120.193997 294.379217 
L 120.399018 272.669635 
L 120.610653 292.354616 
L 120.703243 288.810295 
L 120.901651 288.632758 
L 121.311694 276.009113 
L 121.391057 292.483746 
L 121.609305 274.220078 
L 121.72835 283.806145 
L 121.873849 281.990057 
L 122.012734 283.49256 
L 122.217756 291.279126 
L 122.283891 292.717576 
L 122.376482 288.338622 
L 122.574889 272.164333 
L 122.892342 266.579407 
L 122.998159 292.604165 
L 123.137045 278.137188 
L 123.289157 293.430279 
L 123.375134 292.724065 
L 123.500792 284.181083 
L 123.659518 294.010315 
L 124.096015 277.359615 
L 124.261355 291.095449 
L 124.466376 268.437016 
L 124.717693 290.768047 
L 124.797056 291.713529 
L 124.929328 289.470639 
L 125.002077 292.412366 
L 125.094667 289.910894 
L 125.266621 279.439864 
L 125.517937 288.851526 
L 125.795708 284.495309 
L 125.921366 289.445096 
L 126.000729 289.26553 
L 126.119774 289.434291 
L 126.192523 290.970502 
L 126.437226 245.08361 
L 126.62902 290.511699 
L 126.734838 285.272969 
L 127.091972 227.064656 
L 127.224244 292.919252 
L 127.323447 289.932626 
L 127.429265 290.684928 
L 127.56815 287.474858 
L 127.693809 287.724207 
L 127.793012 287.243154 
L 128.011261 279.108933 
L 128.222896 289.939255 
L 128.328713 287.096189 
L 128.421303 294.582941 
L 128.59987 276.355014 
L 128.751983 281.768479 
L 128.811505 293.686875 
L 128.923936 285.633473 
L 128.990072 292.059325 
L 129.102503 288.414758 
L 129.307525 288.904631 
L 129.386888 293.360439 
L 129.658045 285.659391 
L 129.816771 273.457358 
L 130.048247 291.459525 
L 130.193746 280.196436 
L 130.279722 291.977139 
L 130.38554 288.363048 
L 130.497971 289.411568 
L 130.57072 293.426802 
L 130.676538 288.432925 
L 130.934468 281.593636 
L 131.033672 290.211035 
L 131.258534 281.407188 
L 131.423874 293.20528 
L 131.628895 270.279072 
L 131.873598 259.808826 
L 131.946347 293.087122 
L 132.210891 288.734782 
L 132.402685 291.62693 
L 132.640774 272.357578 
L 132.905318 283.800722 
L 133.13018 285.802926 
L 133.22277 290.584755 
L 133.454246 263.681902 
L 133.765085 290.672153 
L 134.188354 276.097498 
L 134.274331 289.067642 
L 134.413217 280.333343 
L 134.472739 293.450493 
L 134.664533 289.895839 
L 134.862941 291.273943 
L 135.015053 282.901347 
L 135.226688 282.978912 
L 135.372187 291.133958 
L 135.550754 292.066458 
L 135.643344 288.059848 
L 135.722707 293.167323 
L 135.802071 292.812957 
L 136.073228 282.276415 
L 136.172432 287.818359 
L 136.311317 282.759436 
L 136.503111 294.718984 
L 136.780882 284.64417 
L 137.276901 191.97559 
L 137.349651 293.225906 
L 137.448855 289.025959 
L 137.567899 283.02738 
L 137.673717 286.932309 
L 137.872124 282.451224 
L 137.944874 291.625848 
L 138.070532 289.750536 
L 138.169736 285.603137 
L 138.26894 289.301087 
L 138.467348 284.560593 
L 138.599619 287.201908 
L 138.672369 293.433864 
L 138.837709 290.6212 
L 139.221297 204.748075 
L 139.763611 291.88437 
L 140.378675 181.50973 
L 140.491106 291.441753 
L 140.649832 283.057937 
L 140.75565 290.358002 
L 140.934217 285.766176 
L 141.099557 285.558114 
L 141.370714 292.977333 
L 141.555894 271.50965 
L 141.681553 289.157629 
L 141.774143 287.205273 
L 141.866733 291.162866 
L 141.95271 290.938282 
L 142.124663 288.709324 
L 142.309844 291.079644 
L 142.382593 291.400736 
L 142.607455 272.972045 
L 142.852158 277.587002 
L 142.944748 286.653387 
L 143.162997 258.773518 
L 143.275428 292.60202 
L 143.599494 275.127262 
L 143.930173 282.198307 
L 144.128581 275.612584 
L 144.267466 293.496051 
L 144.419579 283.662456 
L 144.710577 287.2039 
L 144.86269 279.535618 
L 145.014802 290.365906 
L 145.239664 279.281931 
L 145.490981 290.421949 
L 145.696002 292.827212 
L 145.841501 276.667548 
L 145.987 278.665419 
L 146.139113 294.004376 
L 146.218476 290.319747 
L 146.304452 290.747401 
L 146.397043 287.436644 
L 146.582223 295.488 
L 146.780631 286.594912 
L 146.859994 291.504317 
L 146.979039 291.563452 
L 147.078242 291.892173 
L 147.316332 283.62816 
L 147.402308 290.996474 
L 147.574262 273.469619 
L 147.86526 276.843864 
L 147.997531 287.212321 
L 148.176098 290.076072 
L 148.262075 294.470261 
L 148.572914 271.794996 
L 148.777935 266.681252 
L 148.923434 280.124772 
L 149.326863 234.659548 
L 149.419453 291.31859 
L 149.50543 290.300642 
L 149.624475 288.21386 
L 149.756747 289.593006 
L 149.935313 275.435688 
L 150.120494 279.120863 
L 150.213084 288.955349 
L 150.365197 279.234243 
L 150.543764 292.227544 
L 150.682649 281.309802 
L 150.821535 280.19448 
L 150.914125 287.847652 
L 151.059624 287.817123 
L 151.648233 158.836303 
L 152.289752 164.067714 
L 152.713022 243.839942 
L 152.798998 288.900944 
L 152.937884 281.911372 
L 153.136291 291.190732 
L 153.268563 287.752336 
L 153.374381 289.89892 
L 153.480198 285.492099 
L 153.685219 285.411351 
L 153.850559 275.725114 
L 154.082035 270.639967 
L 154.148171 292.955748 
L 154.31351 280.505021 
L 154.412714 287.801418 
L 154.624349 289.939797 
L 154.690485 293.13934 
L 154.855825 276.683149 
L 155.179891 222.638009 
L 155.298935 285.820611 
L 155.477502 282.121999 
L 155.742046 291.163153 
L 155.880931 277.951091 
L 155.973522 289.366253 
L 156.145475 286.674612 
L 156.277747 291.084465 
L 156.390178 284.824087 
L 156.581972 289.257754 
L 156.78038 264.512151 
L 156.846516 293.069418 
L 156.952333 286.853013 
L 157.084605 287.87482 
L 157.249945 285.675908 
L 157.375603 289.324441 
L 157.679828 282.569498 
L 157.805486 282.559665 
L 157.911304 283.962769 
L 158.347801 246.959156 
L 158.427164 290.693029 
L 158.599117 277.531227 
L 158.784298 292.152851 
L 158.876888 290.714385 
L 159.022387 281.372967 
L 159.200954 281.287583 
L 159.425816 249.900304 
L 159.670519 265.499686 
L 159.849086 293.066885 
L 160.153311 228.592717 
L 160.543513 197.271825 
L 160.841124 264.134154 
L 161.185031 293.383189 
L 161.304076 288.25284 
L 161.621528 269.674913 
L 161.958821 264.197332 
L 162.064639 289.181055 
L 162.891337 212.715275 
L 163.030223 282.684459 
L 163.22863 290.307428 
L 163.460106 280.116485 
L 163.810626 287.309064 
L 164.068556 256.589132 
L 164.313259 246.228173 
L 164.432304 289.231181 
L 164.630712 288.563377 
L 164.809279 284.972496 
L 164.901869 288.839406 
L 165.073822 281.626737 
L 165.159799 290.883275 
L 165.311911 284.423737 
L 165.424343 288.216668 
L 165.616137 277.568439 
L 166.145224 138.339062 
L 166.462676 282.314343 
L 166.720606 255.932128 
L 167.15049 230.201824 
L 167.309216 274.82397 
L 167.725872 291.687084 
L 167.983802 238.303739 
L 168.083006 288.531161 
L 168.321095 257.338011 
L 168.433526 288.205584 
L 168.526116 287.42589 
L 168.989068 261.790076 
L 169.187476 291.586055 
L 169.425565 277.690058 
L 169.557837 288.479715 
L 169.743017 257.416774 
L 169.875289 288.296557 
L 170.126605 251.136959 
L 170.450671 248.507598 
L 171.138485 125.23781 
L 171.224461 291.963903 
L 171.601436 278.47581 
L 172.071001 168.431043 
L 172.242954 293.76274 
L 172.851405 227.606644 
L 173.360651 211.932588 
L 174.246872 116.193402 
L 174.914845 219.320911 
L 175.020662 285.163526 
L 175.377796 217.999374 
L 175.602658 260.486135 
L 175.933338 223.48886 
L 176.131746 253.169933 
L 176.707128 208.460458 
L 177.361873 247.358598 
L 177.507372 278.578443 
L 177.712394 271.361106 
L 178.162118 227.687772 
L 178.651524 200.503071 
L 179.286428 193.574743 
L 179.438541 282.14006 
L 180.232172 196.864173 
L 180.582692 224.972627 
L 180.959667 290.401697 
L 181.528435 223.710508 
L 181.786365 290.171184 
L 181.898797 283.91322 
L 182.16334 242.551195 
L 182.275771 287.396297 
L 182.408043 292.653757 
L 182.540315 285.507337 
L 182.765177 261.201979 
L 183.016493 288.691673 
L 183.274423 239.631139 
L 183.3604 289.053198 
L 183.585262 279.612578 
L 184.001918 217.912713 
L 184.22678 250.483545 
L 184.570687 224.797714 
L 184.702959 283.877897 
L 185.113002 216.036391 
L 185.529658 216.989045 
L 185.91986 215.103869 
L 186.151335 247.461079 
L 186.442333 267.264138 
L 187.189669 189.576382 
L 187.758438 199.43963 
L 188.155253 230.447161 
L 188.611591 179.576142 
L 188.803385 255.964808 
L 189.041474 246.518887 
L 189.120837 291.900262 
L 189.874787 130.399096 
L 189.973991 286.142146 
L 190.311284 274.028788 
L 190.589054 284.447315 
L 190.787462 291.762571 
L 190.919734 288.700838 
L 191.012324 289.950121 
L 191.276868 239.387149 
L 191.448821 289.762176 
L 192.077112 197.947208 
L 192.53345 203.177019 
L 192.890584 224.23478 
L 193.327081 228.313763 
L 193.439512 284.946656 
L 193.89585 255.260359 
L 194.279438 203.464674 
L 194.550595 262.498812 
L 194.987092 184.196096 
L 195.939449 152.124397 
L 196.12463 284.603247 
L 196.356105 244.114821 
L 196.73308 208.647539 
L 197.162963 198.572837 
L 197.41428 241.116718 
L 197.870618 225.782408 
L 198.459227 199.577013 
L 199.100745 157.75174 
L 199.285926 257.739952 
L 199.848081 126.611502 
L 200.059716 250.837829 
L 200.608644 194.523832 
L 200.826893 292.198048 
L 201.646978 149.760696 
L 202.473677 265.666008 
L 202.751447 235.132191 
L 203.009377 237.460948 
L 203.386352 208.471201 
L 203.545078 272.352556 
L 203.829463 233.01399 
L 204.087393 241.184042 
L 204.292414 252.518105 
L 204.530503 288.570851 
L 205.198476 113.752116 
L 205.714336 192.206833 
L 206.362468 236.750379 
L 206.613784 291.153397 
L 206.984145 207.026553 
L 207.294984 226.92435 
L 207.870367 132.163367 
L 208.194432 221.178289 
L 209.040972 155.964732 
L 209.68249 122.573671 
L 210.145442 212.293931 
L 210.700983 246.870982 
L 211.163935 180.690266 
L 211.620272 201.423614 
L 212.142746 176.605209 
L 213.379487 85.806135 
L 213.657258 233.66806 
L 214.860932 53.568 
L 215.237906 211.509259 
L 215.83313 117.733129 
L 216.130741 229.306855 
L 216.732578 113.146222 
L 217.420391 229.625139 
L 217.691548 235.618866 
L 218.101591 189.42196 
L 218.551315 176.715854 
L 218.789404 246.523938 
L 219.153152 207.091783 
L 219.384628 245.768105 
L 219.781443 220.128686 
L 220.317144 159.942607 
L 220.846231 201.650193 
L 221.34225 163.265961 
L 221.639862 237.88786 
L 221.85811 250.816799 
L 222.479788 134.248182 
L 222.7774 230.213169 
L 223.134533 210.214685 
L 223.597485 202.002993 
L 223.928164 215.772598 
L 224.523387 273.857314 
L 225.369927 86.731886 
L 225.627857 239.510807 
L 226.05774 185.55077 
L 226.461169 226.322005 
L 227.063006 161.337309 
L 227.592093 160.62011 
L 227.955841 210.313849 
L 228.663495 110.293872 
L 229.047083 202.330417 
L 229.596011 187.775 
L 229.966372 215.33386 
L 230.389642 207.201597 
L 230.660799 236.205652 
L 231.136978 202.311124 
L 231.718974 118.686398 
L 232.082721 213.510809 
L 232.691172 111.69473 
L 233.2401 139.162693 
L 233.749346 150.797299 
L 234.371024 118.098775 
L 234.562818 255.35729 
L 235.171268 111.07193 
L 235.640833 203.909433 
L 236.236056 122.523705 
L 236.804825 131.752953 
L 237.426503 104.720608 
L 238.233361 93.94338 
L 239.060059 87.799534 
L 239.701578 119.200406 
L 240.283574 123.196036 
L 240.88541 113.611982 
L 241.778245 90.52174 
L 242.360241 122.942662 
L 242.975305 107.163765 
L 244.020252 66.764094 
L 244.608862 133.292056 
L 245.217312 124.493563 
L 245.779467 131.817971 
L 246.420986 118.378655 
L 247.161708 111.421195 
L 247.710636 137.090814 
L 248.365381 121.420257 
L 248.960604 124.765018 
L 249.595509 100.827134 
L 249.826985 244.899304 
L 250.455276 105.620856 
L 251.063726 112.056199 
L 251.692017 112.142869 
L 252.326922 111.340537 
L 252.935372 118.321963 
L 253.490914 145.639865 
L 254.139046 99.206559 
L 254.747496 116.77834 
L 255.342719 123.073982 
L 255.918102 131.888061 
L 256.46703 136.278502 
L 257.201138 121.053598 
L 257.842657 114.39447 
L 258.470948 115.760504 
L 259.072784 123.522592 
L 259.648167 132.966413 
L 260.289685 113.833696 
L 261.44045 132.584033 
L 262.0489 123.431547 
L 262.65735 111.637206 
L 263.239346 125.099357 
L 263.874251 108.481461 
L 264.436406 130.156217 
L 265.025016 131.853897 
L 265.613625 118.427311 
L 266.189008 134.543865 
L 266.737936 134.460413 
L 267.293477 136.157343 
L 267.882087 130.978176 
L 268.444242 134.841058 
L 269.013011 137.029041 
L 269.608234 117.17862 
L 270.223298 112.971545 
L 270.811908 122.730675 
L 271.949445 136.360236 
L 272.531441 119.094037 
L 273.093596 134.565634 
L 273.668979 124.724589 
L 274.237747 130.342386 
L 274.819743 120.276435 
L 275.408353 117.250184 
L 275.990349 136.094937 
L 276.559118 125.647818 
L 277.121273 131.342168 
L 277.703269 121.271127 
L 278.305106 124.738728 
L 278.867261 134.151902 
L 279.43603 125.67568 
L 279.978344 141.765556 
L 280.540499 140.047454 
L 281.102654 129.516522 
L 281.66481 131.207918 
L 282.233578 128.858781 
L 282.828802 132.139988 
L 283.410798 123.140845 
L 284.528494 132.866291 
L 285.084036 145.820772 
L 285.679259 117.250663 
L 286.267869 126.884186 
L 286.830024 140.370593 
L 287.385565 132.643591 
L 287.954334 135.135565 
L 288.529717 133.049702 
L 289.105099 126.324281 
L 289.687095 123.819966 
L 289.885503 251.569506 
L 290.480726 129.593907 
L 291.049495 126.176308 
L 291.631491 121.280529 
L 292.180419 134.286296 
L 292.73596 133.595513 
L 293.311343 137.123513 
L 293.866884 137.444229 
L 294.429039 136.980748 
L 294.991195 132.143849 
L 295.566577 123.156638 
L 296.122119 134.223276 
L 296.671047 138.064515 
L 297.246429 135.149144 
L 297.801971 134.269345 
L 298.370739 138.987906 
L 298.919667 136.003214 
L 299.461982 136.339389 
L 300.01091 142.471753 
L 300.573065 140.100024 
L 301.128607 134.486404 
L 301.684148 139.352034 
L 302.23969 135.837613 
L 302.808459 126.920538 
L 303.364 132.794773 
L 303.912928 134.819686 
L 304.488311 141.097022 
L 305.043852 143.629995 
L 305.606007 129.775953 
L 306.161549 138.344468 
L 306.723704 138.867751 
L 307.285859 132.390976 
L 307.848015 130.729937 
L 308.423397 140.175457 
L 308.985552 139.711632 
L 309.541094 137.194525 
L 310.090022 139.908052 
L 310.645563 132.008397 
L 311.207719 128.27048 
L 311.769874 130.361587 
L 312.332029 140.354429 
L 312.894184 131.758305 
L 313.462953 134.780433 
L 314.607104 145.440245 
L 315.215554 130.093956 
L 315.810778 131.510129 
L 316.392773 137.407661 
L 317.007837 129.118339 
L 317.58322 138.109925 
L 318.151989 130.224092 
L 318.727371 141.282684 
L 319.322594 127.952169 
L 319.897976 130.144058 
L 320.4932 126.488065 
L 321.068582 133.725731 
L 321.663805 130.86104 
L 322.245801 135.081839 
L 322.834411 117.324993 
L 323.396566 138.703623 
L 323.952107 137.245992 
L 324.501035 137.931179 
L 325.056577 139.303478 
L 325.605505 137.131216 
L 326.154433 143.891623 
L 326.709975 139.609784 
L 327.278744 136.425435 
L 327.807831 154.267577 
L 328.3766 140.296354 
L 328.932141 139.451098 
L 329.50091 137.453125 
L 330.076292 141.437419 
L 330.645061 139.887784 
L 331.207216 139.494103 
L 331.762758 135.293564 
L 332.318299 135.029766 
L 332.873841 129.846594 
L 333.435996 132.92169 
L 333.991538 134.499459 
L 334.56692 123.104286 
L 335.115848 139.529144 
L 335.664776 134.848543 
L 336.213704 136.37131 
L 336.782473 141.815432 
L 337.364469 121.672917 
L 337.926624 133.528289 
L 338.495393 131.976973 
L 339.084003 132.349345 
L 339.672612 137.010283 
L 340.254608 136.4626 
L 340.869672 121.262503 
L 341.458282 130.267242 
L 341.987369 157.572668 
L 342.61566 100.287813 
L 343.792879 142.404809 
L 344.388102 133.467375 
L 344.983325 132.12688 
L 345.578548 131.289463 
L 346.180385 123.817507 
L 346.775608 122.336362 
L 347.337764 139.510629 
L 347.886692 140.515203 
L 348.45546 126.861097 
L 349.017616 130.371541 
L 349.55993 139.941917 
L 350.115472 135.544036 
L 350.6644 135.993143 
L 351.226555 135.076433 
L 351.801937 137.49273 
L 352.350865 143.271617 
L 352.91302 136.788007 
L 353.50163 136.895154 
L 354.063785 140.142848 
L 354.639168 139.217776 
L 355.194709 141.781377 
L 355.756864 131.937078 
L 356.312406 137.593431 
L 356.867948 136.528314 
L 357.423489 148.093247 
L 357.992258 139.312907 
L 358.541186 136.902766 
L 359.678724 142.433314 
L 360.234265 140.044824 
L 360.79642 138.357992 
L 361.371803 139.263845 
L 361.940571 133.779141 
L 362.50934 140.454876 
L 363.078109 142.33405 
L 363.640264 142.390489 
L 364.189192 135.407292 
L 364.751347 132.831531 
L 365.313503 140.303984 
L 365.869044 133.274734 
L 366.437813 139.372339 
L 366.999968 139.899129 
L 367.562123 140.77128 
L 368.130892 137.891311 
L 368.699661 137.002942 
L 369.261816 140.646595 
L 369.830585 141.409321 
L 370.419195 137.712791 
L 371.007804 125.587365 
L 371.583186 132.358214 
L 372.185023 121.279137 
L 372.753792 135.737518 
L 373.282879 160.352624 
L 373.878102 140.869856 
L 375.114844 116.062859 
L 376.338358 129.362971 
L 376.966649 117.727388 
L 377.588327 114.63705 
L 378.143868 152.068654 
L 378.785387 120.254584 
L 379.367383 143.306458 
L 379.969219 129.097474 
L 380.537988 147.717267 
L 381.126598 140.308314 
L 381.688753 150.399912 
L 382.879199 120.223811 
L 383.487649 112.057881 
L 384.102713 106.410902 
L 384.711164 103.091753 
L 385.339455 113.401839 
L 386.556355 136.804524 
L 387.19126 122.717937 
L 387.806324 120.424118 
L 388.428002 115.143681 
L 389.043065 119.75797 
L 389.638289 128.495937 
L 390.246739 125.390547 
L 390.881644 105.055807 
L 391.496708 123.842684 
L 392.085317 136.781471 
L 393.328672 111.823889 
L 393.943736 114.937262 
L 394.505891 146.100273 
L 395.087887 124.07447 
L 395.656656 135.676188 
L 396.800807 138.429972 
L 397.362962 133.402773 
L 397.925118 142.710111 
L 398.487273 140.692267 
L 398.487273 140.692267 
" clip-path="url(#p20d09aa2f9)" style="fill: none; stroke: #1f77b4; stroke-width: 1.5; stroke-linecap: square"/>
   </g>
   <g id="patch_3">
    <path d="M 57.6 307.584 
L 57.6 41.472 
" style="fill: none; stroke: #000000; stroke-width: 0.8; stroke-linejoin: miter; stroke-linecap: square"/>
   </g>
   <g id="patch_4">
    <path d="M 414.72 307.584 
L 414.72 41.472 
" style="fill: none; stroke: #000000; stroke-width: 0.8; stroke-linejoin: miter; stroke-linecap: square"/>
   </g>
   <g id="patch_5">
    <path d="M 57.6 307.584 
L 414.72 307.584 
" style="fill: none; stroke: #000000; stroke-width: 0.8; stroke-linejoin: miter; stroke-linecap: square"/>
   </g>
   <g id="patch_6">
    <path d="M 57.6 41.472 
L 414.72 41.472 
" style="fill: none; stroke: #000000; stroke-width: 0.8; stroke-linejoin: miter; stroke-linecap: square"/>
   </g>
   <g id="text_15">
    <!-- learning curve -->
    <g transform="translate(192.96375 35.472) scale(0.12 -0.12)">
     <defs>
      <path id="DejaVuSans-6c" d="M 603 4863 
L 1178 4863 
L 1178 0 
L 603 0 
L 603 4863 
z
" transform="scale(0.015625)"/>
      <path id="DejaVuSans-6e" d="M 3513 2113 
L 3513 0 
L 2938 0 
L 2938 2094 
Q 2938 2591 2744 2837 
Q 2550 3084 2163 3084 
Q 1697 3084 1428 2787 
Q 1159 2491 1159 1978 
L 1159 0 
L 581 0 
L 581 3500 
L 1159 3500 
L 1159 2956 
Q 1366 3272 1645 3428 
Q 1925 3584 2291 3584 
Q 2894 3584 3203 3211 
Q 3513 2838 3513 2113 
z
" transform="scale(0.015625)"/>
      <path id="DejaVuSans-67" d="M 2906 1791 
Q 2906 2416 2648 2759 
Q 2391 3103 1925 3103 
Q 1463 3103 1205 2759 
Q 947 2416 947 1791 
Q 947 1169 1205 825 
Q 1463 481 1925 481 
Q 2391 481 2648 825 
Q 2906 1169 2906 1791 
z
M 3481 434 
Q 3481 -459 3084 -895 
Q 2688 -1331 1869 -1331 
Q 1566 -1331 1297 -1286 
Q 1028 -1241 775 -1147 
L 775 -588 
Q 1028 -725 1275 -790 
Q 1522 -856 1778 -856 
Q 2344 -856 2625 -561 
Q 2906 -266 2906 331 
L 2906 616 
Q 2728 306 2450 153 
Q 2172 0 1784 0 
Q 1141 0 747 490 
Q 353 981 353 1791 
Q 353 2603 747 3093 
Q 1141 3584 1784 3584 
Q 2172 3584 2450 3431 
Q 2728 3278 2906 2969 
L 2906 3500 
L 3481 3500 
L 3481 434 
z
" transform="scale(0.015625)"/>
      <path id="DejaVuSans-20" transform="scale(0.015625)"/>
      <path id="DejaVuSans-63" d="M 3122 3366 
L 3122 2828 
Q 2878 2963 2633 3030 
Q 2388 3097 2138 3097 
Q 1578 3097 1268 2742 
Q 959 2388 959 1747 
Q 959 1106 1268 751 
Q 1578 397 2138 397 
Q 2388 397 2633 464 
Q 2878 531 3122 666 
L 3122 134 
Q 2881 22 2623 -34 
Q 2366 -91 2075 -91 
Q 1284 -91 818 406 
Q 353 903 353 1747 
Q 353 2603 823 3093 
Q 1294 3584 2113 3584 
Q 2378 3584 2631 3529 
Q 2884 3475 3122 3366 
z
" transform="scale(0.015625)"/>
      <path id="DejaVuSans-75" d="M 544 1381 
L 544 3500 
L 1119 3500 
L 1119 1403 
Q 1119 906 1312 657 
Q 1506 409 1894 409 
Q 2359 409 2629 706 
Q 2900 1003 2900 1516 
L 2900 3500 
L 3475 3500 
L 3475 0 
L 2900 0 
L 2900 538 
Q 2691 219 2414 64 
Q 2138 -91 1772 -91 
Q 1169 -91 856 284 
Q 544 659 544 1381 
z
M 1991 3584 
L 1991 3584 
z
" transform="scale(0.015625)"/>
      <path id="DejaVuSans-76" d="M 191 3500 
L 800 3500 
L 1894 563 
L 2988 3500 
L 3597 3500 
L 2284 0 
L 1503 0 
L 191 3500 
z
" transform="scale(0.015625)"/>
     </defs>
     <use xlink:href="#DejaVuSans-6c"/>
     <use xlink:href="#DejaVuSans-65" x="27.783203"/>
     <use xlink:href="#DejaVuSans-61" x="89.306641"/>
     <use xlink:href="#DejaVuSans-72" x="150.585938"/>
     <use xlink:href="#DejaVuSans-6e" x="189.949219"/>
     <use xlink:href="#DejaVuSans-69" x="253.328125"/>
     <use xlink:href="#DejaVuSans-6e" x="281.111328"/>
     <use xlink:href="#DejaVuSans-67" x="344.490234"/>
     <use xlink:href="#DejaVuSans-20" x="407.966797"/>
     <use xlink:href="#DejaVuSans-63" x="439.753906"/>
     <use xlink:href="#DejaVuSans-75" x="494.734375"/>
     <use xlink:href="#DejaVuSans-72" x="558.113281"/>
     <use xlink:href="#DejaVuSans-76" x="599.226562"/>
     <use xlink:href="#DejaVuSans-65" x="658.40625"/>
    </g>
   </g>
  </g>
 </g>
 <defs>
  <clipPath id="p20d09aa2f9">
   <rect x="57.6" y="41.472" width="357.12" height="266.112"/>
  </clipPath>
 </defs>
</svg>
