<?xml version="1.0" encoding="utf-8" standalone="no"?>
<!DOCTYPE svg PUBLIC "-//W3C//DTD SVG 1.1//EN"
  "http://www.w3.org/Graphics/SVG/1.1/DTD/svg11.dtd">
<svg xmlns:xlink="http://www.w3.org/1999/xlink" width="460.8pt" height="345.6pt" viewBox="0 0 460.8 345.6" xmlns="http://www.w3.org/2000/svg" version="1.1">
 <metadata>
  <rdf:RDF xmlns:dc="http://purl.org/dc/elements/1.1/" xmlns:cc="http://creativecommons.org/ns#" xmlns:rdf="http://www.w3.org/1999/02/22-rdf-syntax-ns#">
   <cc:Work>
    <dc:type rdf:resource="http://purl.org/dc/dcmitype/StillImage"/>
    <dc:date>2023-08-19T13:14:41.859578</dc:date>
    <dc:format>image/svg+xml</dc:format>
    <dc:creator>
     <cc:Agent>
      <dc:title>Matplotlib v3.7.1, https://matplotlib.org/</dc:title>
     </cc:Agent>
    </dc:creator>
   </cc:Work>
  </rdf:RDF>
 </metadata>
 <defs>
  <style type="text/css">*{stroke-linejoin: round; stroke-linecap: butt}</style>
 </defs>
 <g id="figure_1">
  <g id="patch_1">
   <path d="M 0 345.6 
L 460.8 345.6 
L 460.8 0 
L 0 0 
z
" style="fill: #ffffff"/>
  </g>
  <g id="axes_1">
   <g id="patch_2">
    <path d="M 57.6 307.584 
L 414.72 307.584 
L 414.72 41.472 
L 57.6 41.472 
z
" style="fill: #ffffff"/>
   </g>
   <g id="matplotlib.axis_1">
    <g id="xtick_1">
     <g id="line2d_1">
      <defs>
       <path id="m78d5ab6b62" d="M 0 0 
L 0 3.5 
" style="stroke: #000000; stroke-width: 0.8"/>
      </defs>
      <g>
       <use xlink:href="#m78d5ab6b62" x="73.598705" y="307.584" style="stroke: #000000; stroke-width: 0.8"/>
      </g>
     </g>
     <g id="text_1">
      <!-- 0 -->
      <g transform="translate(70.417455 322.182437) scale(0.1 -0.1)">
       <defs>
        <path id="DejaVuSans-30" d="M 2034 4250 
Q 1547 4250 1301 3770 
Q 1056 3291 1056 2328 
Q 1056 1369 1301 889 
Q 1547 409 2034 409 
Q 2525 409 2770 889 
Q 3016 1369 3016 2328 
Q 3016 3291 2770 3770 
Q 2525 4250 2034 4250 
z
M 2034 4750 
Q 2819 4750 3233 4129 
Q 3647 3509 3647 2328 
Q 3647 1150 3233 529 
Q 2819 -91 2034 -91 
Q 1250 -91 836 529 
Q 422 1150 422 2328 
Q 422 3509 836 4129 
Q 1250 4750 2034 4750 
z
" transform="scale(0.015625)"/>
       </defs>
       <use xlink:href="#DejaVuSans-30"/>
      </g>
     </g>
    </g>
    <g id="xtick_2">
     <g id="line2d_2">
      <g>
       <use xlink:href="#m78d5ab6b62" x="138.605021" y="307.584" style="stroke: #000000; stroke-width: 0.8"/>
      </g>
     </g>
     <g id="text_2">
      <!-- 100000 -->
      <g transform="translate(119.517521 322.182437) scale(0.1 -0.1)">
       <defs>
        <path id="DejaVuSans-31" d="M 794 531 
L 1825 531 
L 1825 4091 
L 703 3866 
L 703 4441 
L 1819 4666 
L 2450 4666 
L 2450 531 
L 3481 531 
L 3481 0 
L 794 0 
L 794 531 
z
" transform="scale(0.015625)"/>
       </defs>
       <use xlink:href="#DejaVuSans-31"/>
       <use xlink:href="#DejaVuSans-30" x="63.623047"/>
       <use xlink:href="#DejaVuSans-30" x="127.246094"/>
       <use xlink:href="#DejaVuSans-30" x="190.869141"/>
       <use xlink:href="#DejaVuSans-30" x="254.492188"/>
       <use xlink:href="#DejaVuSans-30" x="318.115234"/>
      </g>
     </g>
    </g>
    <g id="xtick_3">
     <g id="line2d_3">
      <g>
       <use xlink:href="#m78d5ab6b62" x="203.611337" y="307.584" style="stroke: #000000; stroke-width: 0.8"/>
      </g>
     </g>
     <g id="text_3">
      <!-- 200000 -->
      <g transform="translate(184.523837 322.182437) scale(0.1 -0.1)">
       <defs>
        <path id="DejaVuSans-32" d="M 1228 531 
L 3431 531 
L 3431 0 
L 469 0 
L 469 531 
Q 828 903 1448 1529 
Q 2069 2156 2228 2338 
Q 2531 2678 2651 2914 
Q 2772 3150 2772 3378 
Q 2772 3750 2511 3984 
Q 2250 4219 1831 4219 
Q 1534 4219 1204 4116 
Q 875 4013 500 3803 
L 500 4441 
Q 881 4594 1212 4672 
Q 1544 4750 1819 4750 
Q 2544 4750 2975 4387 
Q 3406 4025 3406 3419 
Q 3406 3131 3298 2873 
Q 3191 2616 2906 2266 
Q 2828 2175 2409 1742 
Q 1991 1309 1228 531 
z
" transform="scale(0.015625)"/>
       </defs>
       <use xlink:href="#DejaVuSans-32"/>
       <use xlink:href="#DejaVuSans-30" x="63.623047"/>
       <use xlink:href="#DejaVuSans-30" x="127.246094"/>
       <use xlink:href="#DejaVuSans-30" x="190.869141"/>
       <use xlink:href="#DejaVuSans-30" x="254.492188"/>
       <use xlink:href="#DejaVuSans-30" x="318.115234"/>
      </g>
     </g>
    </g>
    <g id="xtick_4">
     <g id="line2d_4">
      <g>
       <use xlink:href="#m78d5ab6b62" x="268.617654" y="307.584" style="stroke: #000000; stroke-width: 0.8"/>
      </g>
     </g>
     <g id="text_4">
      <!-- 300000 -->
      <g transform="translate(249.530154 322.182437) scale(0.1 -0.1)">
       <defs>
        <path id="DejaVuSans-33" d="M 2597 2516 
Q 3050 2419 3304 2112 
Q 3559 1806 3559 1356 
Q 3559 666 3084 287 
Q 2609 -91 1734 -91 
Q 1441 -91 1130 -33 
Q 819 25 488 141 
L 488 750 
Q 750 597 1062 519 
Q 1375 441 1716 441 
Q 2309 441 2620 675 
Q 2931 909 2931 1356 
Q 2931 1769 2642 2001 
Q 2353 2234 1838 2234 
L 1294 2234 
L 1294 2753 
L 1863 2753 
Q 2328 2753 2575 2939 
Q 2822 3125 2822 3475 
Q 2822 3834 2567 4026 
Q 2313 4219 1838 4219 
Q 1578 4219 1281 4162 
Q 984 4106 628 3988 
L 628 4550 
Q 988 4650 1302 4700 
Q 1616 4750 1894 4750 
Q 2613 4750 3031 4423 
Q 3450 4097 3450 3541 
Q 3450 3153 3228 2886 
Q 3006 2619 2597 2516 
z
" transform="scale(0.015625)"/>
       </defs>
       <use xlink:href="#DejaVuSans-33"/>
       <use xlink:href="#DejaVuSans-30" x="63.623047"/>
       <use xlink:href="#DejaVuSans-30" x="127.246094"/>
       <use xlink:href="#DejaVuSans-30" x="190.869141"/>
       <use xlink:href="#DejaVuSans-30" x="254.492188"/>
       <use xlink:href="#DejaVuSans-30" x="318.115234"/>
      </g>
     </g>
    </g>
    <g id="xtick_5">
     <g id="line2d_5">
      <g>
       <use xlink:href="#m78d5ab6b62" x="333.62397" y="307.584" style="stroke: #000000; stroke-width: 0.8"/>
      </g>
     </g>
     <g id="text_5">
      <!-- 400000 -->
      <g transform="translate(314.53647 322.182437) scale(0.1 -0.1)">
       <defs>
        <path id="DejaVuSans-34" d="M 2419 4116 
L 825 1625 
L 2419 1625 
L 2419 4116 
z
M 2253 4666 
L 3047 4666 
L 3047 1625 
L 3713 1625 
L 3713 1100 
L 3047 1100 
L 3047 0 
L 2419 0 
L 2419 1100 
L 313 1100 
L 313 1709 
L 2253 4666 
z
" transform="scale(0.015625)"/>
       </defs>
       <use xlink:href="#DejaVuSans-34"/>
       <use xlink:href="#DejaVuSans-30" x="63.623047"/>
       <use xlink:href="#DejaVuSans-30" x="127.246094"/>
       <use xlink:href="#DejaVuSans-30" x="190.869141"/>
       <use xlink:href="#DejaVuSans-30" x="254.492188"/>
       <use xlink:href="#DejaVuSans-30" x="318.115234"/>
      </g>
     </g>
    </g>
    <g id="xtick_6">
     <g id="line2d_6">
      <g>
       <use xlink:href="#m78d5ab6b62" x="398.630287" y="307.584" style="stroke: #000000; stroke-width: 0.8"/>
      </g>
     </g>
     <g id="text_6">
      <!-- 500000 -->
      <g transform="translate(379.542787 322.182437) scale(0.1 -0.1)">
       <defs>
        <path id="DejaVuSans-35" d="M 691 4666 
L 3169 4666 
L 3169 4134 
L 1269 4134 
L 1269 2991 
Q 1406 3038 1543 3061 
Q 1681 3084 1819 3084 
Q 2600 3084 3056 2656 
Q 3513 2228 3513 1497 
Q 3513 744 3044 326 
Q 2575 -91 1722 -91 
Q 1428 -91 1123 -41 
Q 819 9 494 109 
L 494 744 
Q 775 591 1075 516 
Q 1375 441 1709 441 
Q 2250 441 2565 725 
Q 2881 1009 2881 1497 
Q 2881 1984 2565 2268 
Q 2250 2553 1709 2553 
Q 1456 2553 1204 2497 
Q 953 2441 691 2322 
L 691 4666 
z
" transform="scale(0.015625)"/>
       </defs>
       <use xlink:href="#DejaVuSans-35"/>
       <use xlink:href="#DejaVuSans-30" x="63.623047"/>
       <use xlink:href="#DejaVuSans-30" x="127.246094"/>
       <use xlink:href="#DejaVuSans-30" x="190.869141"/>
       <use xlink:href="#DejaVuSans-30" x="254.492188"/>
       <use xlink:href="#DejaVuSans-30" x="318.115234"/>
      </g>
     </g>
    </g>
    <g id="text_7">
     <!-- timesteps -->
     <g transform="translate(211.443594 335.860562) scale(0.1 -0.1)">
      <defs>
       <path id="DejaVuSans-74" d="M 1172 4494 
L 1172 3500 
L 2356 3500 
L 2356 3053 
L 1172 3053 
L 1172 1153 
Q 1172 725 1289 603 
Q 1406 481 1766 481 
L 2356 481 
L 2356 0 
L 1766 0 
Q 1100 0 847 248 
Q 594 497 594 1153 
L 594 3053 
L 172 3053 
L 172 3500 
L 594 3500 
L 594 4494 
L 1172 4494 
z
" transform="scale(0.015625)"/>
       <path id="DejaVuSans-69" d="M 603 3500 
L 1178 3500 
L 1178 0 
L 603 0 
L 603 3500 
z
M 603 4863 
L 1178 4863 
L 1178 4134 
L 603 4134 
L 603 4863 
z
" transform="scale(0.015625)"/>
       <path id="DejaVuSans-6d" d="M 3328 2828 
Q 3544 3216 3844 3400 
Q 4144 3584 4550 3584 
Q 5097 3584 5394 3201 
Q 5691 2819 5691 2113 
L 5691 0 
L 5113 0 
L 5113 2094 
Q 5113 2597 4934 2840 
Q 4756 3084 4391 3084 
Q 3944 3084 3684 2787 
Q 3425 2491 3425 1978 
L 3425 0 
L 2847 0 
L 2847 2094 
Q 2847 2600 2669 2842 
Q 2491 3084 2119 3084 
Q 1678 3084 1418 2786 
Q 1159 2488 1159 1978 
L 1159 0 
L 581 0 
L 581 3500 
L 1159 3500 
L 1159 2956 
Q 1356 3278 1631 3431 
Q 1906 3584 2284 3584 
Q 2666 3584 2933 3390 
Q 3200 3197 3328 2828 
z
" transform="scale(0.015625)"/>
       <path id="DejaVuSans-65" d="M 3597 1894 
L 3597 1613 
L 953 1613 
Q 991 1019 1311 708 
Q 1631 397 2203 397 
Q 2534 397 2845 478 
Q 3156 559 3463 722 
L 3463 178 
Q 3153 47 2828 -22 
Q 2503 -91 2169 -91 
Q 1331 -91 842 396 
Q 353 884 353 1716 
Q 353 2575 817 3079 
Q 1281 3584 2069 3584 
Q 2775 3584 3186 3129 
Q 3597 2675 3597 1894 
z
M 3022 2063 
Q 3016 2534 2758 2815 
Q 2500 3097 2075 3097 
Q 1594 3097 1305 2825 
Q 1016 2553 972 2059 
L 3022 2063 
z
" transform="scale(0.015625)"/>
       <path id="DejaVuSans-73" d="M 2834 3397 
L 2834 2853 
Q 2591 2978 2328 3040 
Q 2066 3103 1784 3103 
Q 1356 3103 1142 2972 
Q 928 2841 928 2578 
Q 928 2378 1081 2264 
Q 1234 2150 1697 2047 
L 1894 2003 
Q 2506 1872 2764 1633 
Q 3022 1394 3022 966 
Q 3022 478 2636 193 
Q 2250 -91 1575 -91 
Q 1294 -91 989 -36 
Q 684 19 347 128 
L 347 722 
Q 666 556 975 473 
Q 1284 391 1588 391 
Q 1994 391 2212 530 
Q 2431 669 2431 922 
Q 2431 1156 2273 1281 
Q 2116 1406 1581 1522 
L 1381 1569 
Q 847 1681 609 1914 
Q 372 2147 372 2553 
Q 372 3047 722 3315 
Q 1072 3584 1716 3584 
Q 2034 3584 2315 3537 
Q 2597 3491 2834 3397 
z
" transform="scale(0.015625)"/>
       <path id="DejaVuSans-70" d="M 1159 525 
L 1159 -1331 
L 581 -1331 
L 581 3500 
L 1159 3500 
L 1159 2969 
Q 1341 3281 1617 3432 
Q 1894 3584 2278 3584 
Q 2916 3584 3314 3078 
Q 3713 2572 3713 1747 
Q 3713 922 3314 415 
Q 2916 -91 2278 -91 
Q 1894 -91 1617 61 
Q 1341 213 1159 525 
z
M 3116 1747 
Q 3116 2381 2855 2742 
Q 2594 3103 2138 3103 
Q 1681 3103 1420 2742 
Q 1159 2381 1159 1747 
Q 1159 1113 1420 752 
Q 1681 391 2138 391 
Q 2594 391 2855 752 
Q 3116 1113 3116 1747 
z
" transform="scale(0.015625)"/>
      </defs>
      <use xlink:href="#DejaVuSans-74"/>
      <use xlink:href="#DejaVuSans-69" x="39.208984"/>
      <use xlink:href="#DejaVuSans-6d" x="66.992188"/>
      <use xlink:href="#DejaVuSans-65" x="164.404297"/>
      <use xlink:href="#DejaVuSans-73" x="225.927734"/>
      <use xlink:href="#DejaVuSans-74" x="278.027344"/>
      <use xlink:href="#DejaVuSans-65" x="317.236328"/>
      <use xlink:href="#DejaVuSans-70" x="378.759766"/>
      <use xlink:href="#DejaVuSans-73" x="442.236328"/>
     </g>
    </g>
   </g>
   <g id="matplotlib.axis_2">
    <g id="ytick_1">
     <g id="line2d_7">
      <defs>
       <path id="m1ab883a542" d="M 0 0 
L -3.5 0 
" style="stroke: #000000; stroke-width: 0.8"/>
      </defs>
      <g>
       <use xlink:href="#m1ab883a542" x="57.6" y="306.281925" style="stroke: #000000; stroke-width: 0.8"/>
      </g>
     </g>
     <g id="text_8">
      <!-- 0 -->
      <g transform="translate(44.2375 310.081143) scale(0.1 -0.1)">
       <use xlink:href="#DejaVuSans-30"/>
      </g>
     </g>
    </g>
    <g id="ytick_2">
     <g id="line2d_8">
      <g>
       <use xlink:href="#m1ab883a542" x="57.6" y="249.817407" style="stroke: #000000; stroke-width: 0.8"/>
      </g>
     </g>
     <g id="text_9">
      <!-- 50 -->
      <g transform="translate(37.875 253.616625) scale(0.1 -0.1)">
       <use xlink:href="#DejaVuSans-35"/>
       <use xlink:href="#DejaVuSans-30" x="63.623047"/>
      </g>
     </g>
    </g>
    <g id="ytick_3">
     <g id="line2d_9">
      <g>
       <use xlink:href="#m1ab883a542" x="57.6" y="193.352888" style="stroke: #000000; stroke-width: 0.8"/>
      </g>
     </g>
     <g id="text_10">
      <!-- 100 -->
      <g transform="translate(31.5125 197.152107) scale(0.1 -0.1)">
       <use xlink:href="#DejaVuSans-31"/>
       <use xlink:href="#DejaVuSans-30" x="63.623047"/>
       <use xlink:href="#DejaVuSans-30" x="127.246094"/>
      </g>
     </g>
    </g>
    <g id="ytick_4">
     <g id="line2d_10">
      <g>
       <use xlink:href="#m1ab883a542" x="57.6" y="136.88837" style="stroke: #000000; stroke-width: 0.8"/>
      </g>
     </g>
     <g id="text_11">
      <!-- 150 -->
      <g transform="translate(31.5125 140.687589) scale(0.1 -0.1)">
       <use xlink:href="#DejaVuSans-31"/>
       <use xlink:href="#DejaVuSans-35" x="63.623047"/>
       <use xlink:href="#DejaVuSans-30" x="127.246094"/>
      </g>
     </g>
    </g>
    <g id="ytick_5">
     <g id="line2d_11">
      <g>
       <use xlink:href="#m1ab883a542" x="57.6" y="80.423852" style="stroke: #000000; stroke-width: 0.8"/>
      </g>
     </g>
     <g id="text_12">
      <!-- 200 -->
      <g transform="translate(31.5125 84.223071) scale(0.1 -0.1)">
       <use xlink:href="#DejaVuSans-32"/>
       <use xlink:href="#DejaVuSans-30" x="63.623047"/>
       <use xlink:href="#DejaVuSans-30" x="127.246094"/>
      </g>
     </g>
    </g>
    <g id="text_13">
     <!-- mean episode rewards -->
     <g transform="translate(25.432812 231.360031) rotate(-90) scale(0.1 -0.1)">
      <defs>
       <path id="DejaVuSans-61" d="M 2194 1759 
Q 1497 1759 1228 1600 
Q 959 1441 959 1056 
Q 959 750 1161 570 
Q 1363 391 1709 391 
Q 2188 391 2477 730 
Q 2766 1069 2766 1631 
L 2766 1759 
L 2194 1759 
z
M 3341 1997 
L 3341 0 
L 2766 0 
L 2766 531 
Q 2569 213 2275 61 
Q 1981 -91 1556 -91 
Q 1019 -91 701 211 
Q 384 513 384 1019 
Q 384 1609 779 1909 
Q 1175 2209 1959 2209 
L 2766 2209 
L 2766 2266 
Q 2766 2663 2505 2880 
Q 2244 3097 1772 3097 
Q 1472 3097 1187 3025 
Q 903 2953 641 2809 
L 641 3341 
Q 956 3463 1253 3523 
Q 1550 3584 1831 3584 
Q 2591 3584 2966 3190 
Q 3341 2797 3341 1997 
z
" transform="scale(0.015625)"/>
       <path id="DejaVuSans-6e" d="M 3513 2113 
L 3513 0 
L 2938 0 
L 2938 2094 
Q 2938 2591 2744 2837 
Q 2550 3084 2163 3084 
Q 1697 3084 1428 2787 
Q 1159 2491 1159 1978 
L 1159 0 
L 581 0 
L 581 3500 
L 1159 3500 
L 1159 2956 
Q 1366 3272 1645 3428 
Q 1925 3584 2291 3584 
Q 2894 3584 3203 3211 
Q 3513 2838 3513 2113 
z
" transform="scale(0.015625)"/>
       <path id="DejaVuSans-20" transform="scale(0.015625)"/>
       <path id="DejaVuSans-6f" d="M 1959 3097 
Q 1497 3097 1228 2736 
Q 959 2375 959 1747 
Q 959 1119 1226 758 
Q 1494 397 1959 397 
Q 2419 397 2687 759 
Q 2956 1122 2956 1747 
Q 2956 2369 2687 2733 
Q 2419 3097 1959 3097 
z
M 1959 3584 
Q 2709 3584 3137 3096 
Q 3566 2609 3566 1747 
Q 3566 888 3137 398 
Q 2709 -91 1959 -91 
Q 1206 -91 779 398 
Q 353 888 353 1747 
Q 353 2609 779 3096 
Q 1206 3584 1959 3584 
z
" transform="scale(0.015625)"/>
       <path id="DejaVuSans-64" d="M 2906 2969 
L 2906 4863 
L 3481 4863 
L 3481 0 
L 2906 0 
L 2906 525 
Q 2725 213 2448 61 
Q 2172 -91 1784 -91 
Q 1150 -91 751 415 
Q 353 922 353 1747 
Q 353 2572 751 3078 
Q 1150 3584 1784 3584 
Q 2172 3584 2448 3432 
Q 2725 3281 2906 2969 
z
M 947 1747 
Q 947 1113 1208 752 
Q 1469 391 1925 391 
Q 2381 391 2643 752 
Q 2906 1113 2906 1747 
Q 2906 2381 2643 2742 
Q 2381 3103 1925 3103 
Q 1469 3103 1208 2742 
Q 947 2381 947 1747 
z
" transform="scale(0.015625)"/>
       <path id="DejaVuSans-72" d="M 2631 2963 
Q 2534 3019 2420 3045 
Q 2306 3072 2169 3072 
Q 1681 3072 1420 2755 
Q 1159 2438 1159 1844 
L 1159 0 
L 581 0 
L 581 3500 
L 1159 3500 
L 1159 2956 
Q 1341 3275 1631 3429 
Q 1922 3584 2338 3584 
Q 2397 3584 2469 3576 
Q 2541 3569 2628 3553 
L 2631 2963 
z
" transform="scale(0.015625)"/>
       <path id="DejaVuSans-77" d="M 269 3500 
L 844 3500 
L 1563 769 
L 2278 3500 
L 2956 3500 
L 3675 769 
L 4391 3500 
L 4966 3500 
L 4050 0 
L 3372 0 
L 2619 2869 
L 1863 0 
L 1184 0 
L 269 3500 
z
" transform="scale(0.015625)"/>
      </defs>
      <use xlink:href="#DejaVuSans-6d"/>
      <use xlink:href="#DejaVuSans-65" x="97.412109"/>
      <use xlink:href="#DejaVuSans-61" x="158.935547"/>
      <use xlink:href="#DejaVuSans-6e" x="220.214844"/>
      <use xlink:href="#DejaVuSans-20" x="283.59375"/>
      <use xlink:href="#DejaVuSans-65" x="315.380859"/>
      <use xlink:href="#DejaVuSans-70" x="376.904297"/>
      <use xlink:href="#DejaVuSans-69" x="440.380859"/>
      <use xlink:href="#DejaVuSans-73" x="468.164062"/>
      <use xlink:href="#DejaVuSans-6f" x="520.263672"/>
      <use xlink:href="#DejaVuSans-64" x="581.445312"/>
      <use xlink:href="#DejaVuSans-65" x="644.921875"/>
      <use xlink:href="#DejaVuSans-20" x="706.445312"/>
      <use xlink:href="#DejaVuSans-72" x="738.232422"/>
      <use xlink:href="#DejaVuSans-65" x="777.095703"/>
      <use xlink:href="#DejaVuSans-77" x="838.619141"/>
      <use xlink:href="#DejaVuSans-61" x="920.40625"/>
      <use xlink:href="#DejaVuSans-72" x="981.685547"/>
      <use xlink:href="#DejaVuSans-64" x="1021.048828"/>
      <use xlink:href="#DejaVuSans-73" x="1084.525391"/>
     </g>
    </g>
   </g>
   <g id="line2d_12">
    <path d="M 73.832727 293.725693 
L 74.092753 290.869719 
L 74.235766 290.542011 
L 74.352778 289.251005 
L 74.586801 289.877237 
L 74.794821 288.60524 
L 74.98984 288.274798 
L 75.158856 288.464729 
L 75.40588 286.356805 
L 75.50989 286.527194 
L 75.639903 286.953919 
L 75.756914 286.349015 
L 76.614998 290.715881 
L 76.836019 289.547285 
L 76.95303 289.535782 
L 77.382072 287.375179 
L 77.538087 285.758624 
L 77.746108 285.997852 
L 77.902123 284.156675 
L 78.08414 283.98332 
L 78.136145 282.543874 
L 78.305162 282.948606 
L 78.409172 282.188897 
L 78.708201 284.719066 
L 78.825212 284.79506 
L 78.968226 286.031748 
L 79.11124 285.561955 
L 79.202249 287.624604 
L 79.371265 288.274475 
L 79.592287 289.961253 
L 79.7223 290.604642 
L 79.865313 290.195442 
L 79.943321 290.908847 
L 80.125339 290.951294 
L 80.606385 289.186538 
L 80.762401 288.181411 
L 80.879412 288.948248 
L 81.074431 289.276044 
L 81.204444 286.601695 
L 81.399463 286.252347 
L 81.542476 283.984577 
L 81.828504 283.104323 
L 81.984519 283.207455 
L 82.153536 284.049697 
L 82.283548 283.294483 
L 82.582577 278.541517 
L 82.738593 280.578974 
L 82.881607 278.173356 
L 82.972615 279.867258 
L 83.42766 282.47115 
L 83.570673 281.967793 
L 83.791695 280.708116 
L 84.025718 283.209202 
L 84.194734 282.503659 
L 84.324747 284.050916 
L 84.441758 283.91461 
L 84.818795 282.973834 
L 85.065819 279.100324 
L 85.338845 281.787208 
L 85.455857 282.921089 
L 85.585869 282.965178 
L 85.767887 281.482117 
L 86.066916 282.056544 
L 86.20993 281.754059 
L 86.378946 281.804401 
L 86.547963 282.273772 
L 86.677975 281.811626 
L 86.846992 281.691243 
L 86.990006 280.788606 
L 87.107017 281.152905 
L 87.263032 283.330393 
L 87.874092 280.400516 
L 88.160119 283.753222 
L 88.277131 284.232474 
L 88.459148 283.732925 
L 88.563159 284.17257 
L 88.68017 283.846002 
L 88.914193 284.475732 
L 89.239224 282.975977 
L 89.343234 283.416508 
L 89.60326 283.485795 
L 89.681267 282.905117 
L 89.954294 284.536247 
L 90.240322 284.421198 
L 90.604357 288.079012 
L 90.721368 287.973233 
L 90.981394 288.465476 
L 91.215416 287.049883 
L 91.475442 288.759235 
L 91.644458 288.654753 
L 91.800473 288.199063 
L 91.917485 287.121752 
L 92.047497 288.109729 
L 92.138506 287.006049 
L 92.28152 287.061404 
L 92.502541 288.305758 
L 92.632554 287.934531 
L 92.762567 286.959883 
L 93.035593 287.763812 
L 93.191608 289.529562 
L 93.269616 288.023869 
L 93.477636 289.643098 
L 93.646653 289.691249 
L 93.672655 289.415977 
L 93.815669 289.282001 
L 93.867674 290.376628 
L 94.049692 290.209574 
L 94.140701 290.666435 
L 94.231709 290.478894 
L 94.348721 291.827143 
L 94.517737 292.102958 
L 95.115795 289.414467 
L 95.336817 287.685774 
L 95.492832 288.324994 
L 95.648847 287.807677 
L 95.895871 283.640908 
L 96.116893 284.290034 
L 96.246905 285.34824 
L 96.324913 286.991416 
L 96.467927 286.92474 
L 96.571937 287.602879 
L 96.701949 286.46706 
L 97.052983 290.712286 
L 97.208999 290.499984 
L 97.833059 287.847307 
L 97.963072 288.817488 
L 98.067082 287.595803 
L 98.210096 288.20058 
L 98.327107 287.212994 
L 98.522126 287.780509 
L 98.639138 288.226531 
L 98.782152 288.262191 
L 99.042177 289.706851 
L 99.107183 289.333643 
L 99.367208 289.217294 
L 99.536225 290.523594 
L 100.069277 287.562314 
L 100.173287 287.674565 
L 100.316301 287.348182 
L 100.498318 288.384966 
L 100.589327 288.536526 
L 100.71934 287.955714 
L 100.849352 288.044308 
L 100.953362 288.916348 
L 101.096376 289.078681 
L 101.200386 289.658222 
L 101.304397 289.121772 
L 101.655431 289.8035 
L 101.785443 289.322822 
L 101.876452 289.358275 
L 102.084472 290.27158 
L 102.201484 290.080749 
L 102.344498 290.84095 
L 102.461509 290.772337 
L 102.799542 289.574667 
L 103.020563 290.200202 
L 103.111572 290.439522 
L 103.436604 289.234165 
L 103.865645 291.383899 
L 104.086667 290.442946 
L 104.190677 290.34433 
L 104.476705 291.821294 
L 104.606717 291.797931 
L 104.684725 292.286521 
L 104.775734 291.785291 
L 105.022758 292.524726 
L 105.321787 291.316606 
L 105.425797 291.48126 
L 105.633817 290.639965 
L 105.737827 290.609203 
L 105.841837 291.213896 
L 106.036856 290.427943 
L 106.127865 291.336817 
L 106.257878 291.392007 
L 106.309883 292.356389 
L 106.803931 293.008975 
L 106.985949 293.50028 
L 107.050955 293.327754 
L 107.180968 293.606649 
L 107.401989 293.227876 
L 107.479997 293.610026 
L 107.610009 293.392941 
L 107.792027 291.995392 
L 107.896037 292.182571 
L 107.961043 291.745213 
L 108.078055 292.187665 
L 108.156062 291.971105 
L 108.260072 292.251316 
L 108.364083 291.705604 
L 108.897134 293.887416 
L 109.092153 294.117865 
L 109.235167 293.707776 
L 109.313175 293.995127 
L 109.495192 293.237528 
L 109.625205 293.495667 
L 109.820224 292.823375 
L 109.88523 293.166122 
L 110.327273 292.296672 
L 110.483288 292.899637 
L 110.561296 292.609426 
L 110.795319 293.128152 
L 110.847324 292.988195 
L 110.938333 293.052689 
L 111.042343 293.27587 
L 111.22436 294.250659 
L 111.302368 294.287393 
L 111.419379 294.556496 
L 111.588396 294.024863 
L 111.692406 294.117307 
L 111.783415 294.215179 
L 112.303465 292.779064 
L 112.381473 290.794716 
L 112.485483 290.892665 
L 112.589493 290.976807 
L 112.680502 290.412855 
L 112.784512 290.545994 
L 113.005534 290.14455 
L 113.122545 290.685766 
L 113.200552 289.912636 
L 113.304563 290.436138 
L 113.460578 292.118364 
L 113.99363 293.587504 
L 114.240654 294.945142 
L 114.357665 294.875477 
L 114.435673 294.811391 
L 114.61769 295.488 
L 114.786707 295.124933 
L 114.955723 295.466016 
L 115.137741 294.742897 
L 115.241751 294.918402 
L 115.410767 294.199329 
L 115.488775 294.081861 
L 115.670793 294.625309 
L 115.7488 293.968485 
L 115.839809 294.115316 
L 115.995824 294.067948 
L 116.138838 293.936375 
L 116.190843 294.0035 
L 116.307854 294.058263 
L 116.476871 293.263514 
L 116.56788 293.243878 
L 116.749897 293.813455 
L 116.840906 293.751663 
L 117.113933 293.243686 
L 117.204942 293.244381 
L 117.373958 294.422497 
L 117.451966 294.173395 
L 117.542974 294.565305 
L 117.711991 294.195489 
L 117.881007 294.598338 
L 118.050024 294.832183 
L 118.232041 294.83145 
L 118.32305 294.815809 
L 118.479065 294.014765 
L 118.843101 294.760231 
L 118.999116 294.185162 
L 119.181134 294.475587 
L 119.298145 294.12862 
L 119.363151 295.020186 
L 119.753189 293.857959 
L 119.805194 292.831674 
L 119.987212 293.29023 
L 120.078221 292.696738 
L 120.247237 293.4012 
L 120.325245 293.099617 
L 120.624274 293.867527 
L 120.715283 294.872269 
L 120.806292 294.648483 
L 120.8973 293.733172 
L 121.014312 294.015953 
L 121.287338 292.140702 
L 121.40435 292.322365 
L 121.781386 290.181649 
L 121.898398 290.801023 
L 122.002408 290.644717 
L 122.171424 291.093335 
L 122.275434 291.777242 
L 122.392446 291.286817 
L 122.470453 291.413829 
L 122.587465 291.446082 
L 122.769482 292.333613 
L 122.990504 290.905046 
L 123.133518 291.148803 
L 123.328537 290.747182 
L 123.523556 291.625483 
L 123.627566 291.138251 
L 123.822585 289.753348 
L 123.939596 290.295964 
L 124.017604 290.003518 
L 124.329634 290.9003 
L 124.420643 290.719745 
L 124.563657 289.505668 
L 124.693669 289.359082 
L 124.784678 289.813154 
L 125.0057 288.732682 
L 125.122711 288.698449 
L 125.291727 287.651992 
L 125.395737 287.526925 
L 125.551753 288.116428 
L 125.681765 288.095781 
L 125.967793 287.172668 
L 126.032799 287.559896 
L 126.201816 286.680269 
L 126.370832 286.683094 
L 126.643859 285.211131 
L 126.903884 281.507442 
L 126.994893 281.672379 
L 127.566948 285.185619 
L 127.722964 284.033285 
L 127.969988 285.197719 
L 128.139004 285.987452 
L 128.932081 280.013538 
L 129.088096 281.992393 
L 129.361123 281.060519 
L 129.465133 281.221339 
L 129.569143 280.934851 
L 129.855171 283.395945 
L 130.05019 283.144433 
L 130.245209 283.318648 
L 130.67425 278.982515 
L 130.817264 279.114521 
L 130.986281 277.708377 
L 131.142296 277.654596 
L 131.753355 275.130948 
L 132.01338 275.753963 
L 132.091388 275.164102 
L 132.31241 275.042237 
L 132.533431 275.641979 
L 132.767454 272.718285 
L 132.949471 268.897977 
L 133.118488 268.994397 
L 133.54753 263.968799 
L 133.703545 262.754387 
L 133.872561 262.970931 
L 134.2756 259.79406 
L 134.613633 255.366243 
L 134.717643 258.032564 
L 134.977668 259.123875 
L 135.497719 254.011558 
L 135.601729 254.163643 
L 135.796748 254.294504 
L 135.978766 254.210522 
L 136.22579 255.3336 
L 136.407807 255.480215 
L 136.64183 255.194285 
L 136.875853 253.56888 
L 137.239888 254.520139 
L 137.382902 256.351398 
L 137.681931 255.916201 
L 137.941957 251.314503 
L 138.475008 252.44169 
L 138.774037 252.379903 
L 138.995059 252.141638 
L 139.281087 250.221437 
L 139.567114 247.445427 
L 139.697127 247.371756 
L 139.957152 246.438667 
L 140.178174 248.16439 
L 140.503205 247.381027 
L 140.672222 245.668282 
L 141.127266 244.87567 
L 142.154366 249.924888 
L 142.362386 248.486922 
L 142.635413 249.747964 
L 142.804429 248.851242 
L 143.02545 249.7385 
L 143.246472 248.920821 
L 143.493496 249.911657 
L 143.662512 249.493724 
L 143.909536 249.356934 
L 144.117557 249.429987 
L 144.364581 248.860511 
L 144.585602 250.6277 
L 144.832626 249.856426 
L 145.027645 249.990048 
L 145.222664 249.618033 
L 145.482689 250.882515 
L 145.651706 250.103247 
L 145.924732 250.314638 
L 146.171756 249.470814 
L 146.379776 250.727325 
L 146.665804 250.691533 
L 146.769814 249.930885 
L 147.094846 250.694528 
L 147.471883 250.605493 
L 147.718907 249.46589 
L 147.900924 249.965844 
L 148.381971 249.832364 
L 148.772009 248.532566 
L 148.954027 249.385997 
L 149.162047 249.583541 
L 149.396069 249.965119 
L 149.578087 251.092108 
L 149.838112 251.629115 
L 149.994128 251.387786 
L 150.202148 250.85091 
L 150.410168 251.451567 
L 150.683195 251.177631 
L 150.904216 252.328344 
L 151.15124 252.360388 
L 151.502274 253.891961 
L 151.736297 255.272417 
L 151.86631 255.181483 
L 152.256347 256.52351 
L 152.464368 256.854796 
L 152.776398 257.78487 
L 153.010421 258.202116 
L 153.192438 257.390284 
L 153.400459 257.490485 
L 153.647483 255.411017 
L 153.803498 255.254881 
L 154.011518 255.576314 
L 154.206537 256.264003 
L 154.453561 256.031253 
L 154.674582 254.042597 
L 154.869601 254.96031 
L 155.012615 254.541016 
L 155.376651 254.897115 
L 155.935705 255.944007 
L 156.117723 256.062469 
L 156.325743 255.981174 
L 156.546764 256.938281 
L 156.754784 256.83975 
L 156.897798 257.006588 
L 157.105819 257.001821 
L 157.482855 256.062254 
L 157.625869 255.793427 
L 157.950901 254.252184 
L 158.301935 256.398571 
L 158.522956 255.386575 
L 158.66597 256.038808 
L 159.004003 255.852436 
L 159.173019 256.34477 
L 159.355037 257.326277 
L 159.537055 257.141493 
L 159.719073 257.783209 
L 159.927093 256.599569 
L 160.10911 256.274009 
L 160.330132 256.948556 
L 160.51215 256.197469 
L 160.746172 256.291249 
L 160.889186 256.145323 
L 161.110208 256.574751 
L 161.214218 256.056654 
L 161.448241 256.023864 
L 161.539249 256.267567 
L 161.786273 255.927549 
L 161.994294 256.229386 
L 162.16331 255.98207 
L 162.332326 256.346132 
L 162.514344 257.209883 
L 162.722364 257.558714 
L 162.839376 256.414194 
L 163.164407 256.870545 
L 163.372428 256.778921 
L 163.541444 257.337417 
L 163.697459 258.246543 
L 163.892478 257.509535 
L 164.009489 257.983743 
L 164.21751 258.059616 
L 164.542541 259.3894 
L 164.711558 258.831661 
L 165.062592 258.991973 
L 165.400625 257.563323 
L 165.634647 257.655934 
L 165.97268 256.943475 
L 166.115694 256.273481 
L 166.336716 257.233516 
L 166.492731 257.327382 
L 166.674748 256.738549 
L 166.99978 257.575613 
L 167.168796 257.326339 
L 167.324812 257.987411 
L 167.532832 257.801502 
L 167.844862 258.043545 
L 168.000877 257.009099 
L 168.520928 257.717858 
L 168.637939 257.666577 
L 168.832958 258.051658 
L 168.988973 257.746193 
L 169.15799 258.031435 
L 169.327006 258.051797 
L 169.47002 258.326482 
L 169.834055 257.907422 
L 170.042076 258.086771 
L 170.198091 257.660912 
L 170.406111 257.666813 
L 170.549125 257.510505 
L 170.718141 257.101839 
L 171.01717 258.21798 
L 171.225191 258.276257 
L 171.329201 258.562073 
L 171.511218 258.657912 
L 171.62823 258.564461 
L 171.810247 258.798088 
L 172.135279 258.741857 
L 172.265292 259.114096 
L 172.629327 258.318997 
L 172.928356 258.699685 
L 173.07137 258.773549 
L 173.422404 258.568293 
L 173.578419 258.814842 
L 173.799441 258.676794 
L 174.254485 258.02591 
L 174.540513 257.726851 
L 174.891547 257.997471 
L 175.008558 257.977374 
L 175.190576 257.685828 
L 175.307587 258.161283 
L 175.788634 258.615098 
L 176.399693 258.493164 
L 176.56871 258.312802 
L 176.763729 258.444304 
L 176.867739 258.34829 
L 177.062758 258.435244 
L 177.361787 258.055143 
L 177.660816 258.12417 
L 177.985847 257.791549 
L 178.193868 257.751226 
L 178.284876 257.911129 
L 178.596907 257.938544 
L 178.895936 258.347924 
L 179.077954 258.323724 
L 179.845028 258.971797 
L 179.988042 258.665487 
L 180.651106 258.612982 
L 180.807122 257.964871 
L 180.950135 258.011235 
L 181.119152 257.802392 
L 181.431182 257.916738 
L 181.561195 259.15961 
L 181.860224 258.860966 
L 182.146252 258.902097 
L 182.445281 259.49763 
L 182.939329 259.69206 
L 183.069341 258.820553 
L 183.823415 259.404447 
L 184.122444 259.157487 
L 184.278459 259.280888 
L 184.577488 259.000836 
L 184.733503 259.218364 
L 184.876517 259.04807 
L 185.032532 259.056991 
L 185.188547 259.222226 
L 185.786605 259.001731 
L 186.085634 259.025533 
L 186.24165 258.829905 
L 186.358661 258.968708 
L 186.826706 258.480917 
L 187.723794 259.240006 
L 188.035824 258.987492 
L 188.191839 259.04137 
L 188.321852 259.279959 
L 188.633882 259.155396 
L 188.776896 259.099504 
L 188.932911 258.916732 
L 189.075925 258.92251 
L 189.400957 258.60736 
L 189.504967 258.953124 
L 189.686984 258.944394 
L 189.803996 258.783539 
L 190.116026 258.958238 
L 190.298044 258.844048 
L 190.402054 258.989313 
L 190.727085 258.850479 
L 191.195131 259.025169 
L 191.481159 258.85649 
L 191.780188 259.103636 
L 192.209229 258.980398 
L 192.52126 258.839255 
L 192.690276 258.783759 
L 192.976304 259.104804 
L 193.119318 258.799282 
L 193.327338 258.641913 
L 193.418347 258.390373 
L 193.613366 258.351808 
L 194.029406 258.83516 
L 194.198423 258.812199 
L 194.315434 258.655327 
L 194.497452 258.658918 
L 195.238524 259.344171 
L 195.51155 258.98621 
L 195.966595 258.757686 
L 196.564653 258.526803 
L 196.759672 258.481185 
L 196.863682 258.673683 
L 197.175712 258.492847 
L 197.474741 257.957898 
L 197.786771 257.896441 
L 198.098802 257.68038 
L 198.38483 257.374647 
L 198.553846 257.457035 
L 198.982888 258.184878 
L 199.151904 258.26608 
L 199.281917 258.11636 
L 199.450933 258.143021 
L 199.567944 258.335851 
L 200.192005 258.406985 
L 200.34802 258.301357 
L 200.647049 258.577478 
L 200.790063 258.345277 
L 200.946078 258.47392 
L 201.102094 258.040175 
L 201.310114 257.985711 
L 201.414124 257.623243 
L 201.739155 257.334735 
L 201.895171 257.518846 
L 202.207201 256.908274 
L 202.350215 257.115104 
L 202.50623 256.878091 
L 202.662245 257.327948 
L 202.844263 257.239774 
L 203.026281 257.465978 
L 203.156293 256.781094 
L 203.338311 256.453538 
L 203.455322 256.536436 
L 203.624339 256.491844 
L 203.74135 256.843988 
L 203.94937 256.966095 
L 204.547428 256.636927 
L 204.66444 257.299077 
L 204.859459 257.663183 
L 205.171489 257.531986 
L 205.314503 256.944606 
L 205.782548 256.581568 
L 206.237593 256.649594 
L 206.393608 256.552974 
L 206.549623 256.256909 
L 206.705638 256.237919 
L 207.017668 256.901317 
L 207.3427 257.154219 
L 207.65473 256.500662 
L 207.836748 256.413452 
L 208.005764 255.073659 
L 208.499812 254.919756 
L 208.941855 254.279344 
L 209.175878 254.71986 
L 209.292889 254.476059 
L 209.461906 253.727572 
L 209.617921 255.039449 
L 209.773936 254.413016 
L 209.91695 254.820079 
L 210.111969 254.645936 
L 210.423999 254.833208 
L 210.554012 255.121002 
L 210.749031 254.476438 
L 210.918047 254.459933 
L 211.087064 255.050644 
L 211.217076 255.060253 
L 211.386093 255.25016 
L 211.86714 254.64896 
L 212.192171 254.610611 
L 212.348186 255.226864 
L 213.011251 253.544039 
L 213.349284 253.78794 
L 213.557304 253.295033 
L 213.687316 252.677408 
L 214.077354 252.563577 
L 214.220368 252.916576 
L 214.389385 252.976066 
L 214.571402 253.427286 
L 214.688414 252.72578 
L 215.013445 252.63486 
L 215.182462 253.017119 
L 215.585501 252.603699 
L 215.897531 251.439067 
L 216.066548 251.769396 
L 216.235564 251.832893 
L 216.365577 253.095504 
L 216.534593 253.378303 
L 216.703609 253.065453 
L 216.924631 252.017666 
L 217.275665 251.80704 
L 217.418679 252.192154 
L 217.626699 252.094223 
L 217.769713 251.620251 
L 217.93873 251.541649 
L 218.367771 249.639666 
L 218.523786 248.980975 
L 218.679802 249.013288 
L 218.913824 249.20325 
L 219.17385 248.526662 
L 219.238856 248.008416 
L 219.498881 248.135086 
L 219.836914 246.838558 
L 219.927923 246.987853 
L 220.187948 248.139164 
L 220.317961 248.085445 
L 220.538982 249.032802 
L 220.642992 248.83454 
L 221.319058 250.647182 
L 221.592084 251.250948 
L 221.969121 249.911659 
L 223.282249 245.660446 
L 223.529273 245.537212 
L 223.776297 244.460422 
L 223.932312 242.587926 
L 224.140332 243.063298 
L 224.270345 242.966151 
L 224.712388 244.521796 
L 224.894405 244.964359 
L 225.050421 244.284317 
L 225.284443 243.955664 
L 225.45346 244.059437 
L 225.596474 244.438461 
L 225.804494 247.195671 
L 225.97351 246.699202 
L 226.337546 247.226197 
L 226.506562 246.827736 
L 226.675578 247.098083 
L 226.857596 248.589797 
L 227.130623 248.235474 
L 227.260635 247.151721 
L 227.494658 247.927332 
L 227.663674 246.76354 
L 227.845692 247.400803 
L 228.118719 246.336475 
L 228.274734 246.23428 
L 228.703776 242.95627 
L 228.9508 242.841258 
L 229.340837 241.636748 
L 229.47085 241.654849 
L 229.769879 241.859321 
L 229.977899 239.56588 
L 230.224923 239.755997 
L 230.471947 238.689999 
L 230.627962 239.080054 
L 230.861985 238.860135 
L 231.265024 237.42073 
L 231.551052 238.383164 
L 231.73307 237.594912 
L 231.967093 235.30502 
L 232.201115 236.961093 
L 232.422137 235.307885 
L 233.098202 235.556397 
L 233.306223 235.265438 
L 233.514243 235.850397 
L 233.969287 233.695092 
L 234.216311 235.200934 
L 234.41133 235.040049 
L 234.61935 236.672542 
L 234.892377 236.15185 
L 235.152402 236.120597 
L 235.555441 235.206103 
L 235.75046 235.470641 
L 236.205504 237.303251 
L 236.530536 238.179866 
L 236.686551 235.41513 
L 236.933575 233.458146 
L 237.349616 234.031219 
L 237.583638 234.148402 
L 237.765656 235.260501 
L 238.129691 235.632805 
L 238.337712 233.255286 
L 238.818758 231.891036 
L 239.052781 233.125717 
L 239.299805 233.822405 
L 239.66384 232.014963 
L 239.936867 231.855982 
L 240.456918 230.118302 
L 241.015972 225.04285 
L 241.328002 223.556795 
L 241.666035 223.268441 
L 242.095077 220.024689 
L 242.329099 220.655921 
L 242.602126 222.303219 
L 242.862151 223.047918 
L 243.031168 222.658979 
L 243.26519 224.899553 
L 243.564219 229.041787 
L 243.811243 229.544197 
L 244.071269 228.118732 
L 244.253286 230.497142 
L 244.591319 231.141419 
L 244.838343 231.033247 
L 245.059365 230.682803 
L 245.254384 229.075187 
L 245.52741 229.298197 
L 245.826439 229.311513 
L 246.164472 228.841141 
L 246.385494 227.304675 
L 246.996553 226.219181 
L 247.37359 222.578319 
L 247.607612 222.562397 
L 247.828634 220.666121 
L 248.075658 221.669654 
L 248.660715 218.737709 
L 248.985746 217.127951 
L 249.33678 217.256824 
L 249.570803 215.962625 
L 249.94784 215.683163 
L 250.15586 218.842373 
L 250.545898 215.569547 
L 250.935936 215.911934 
L 251.690009 211.421317 
L 252.015041 214.238526 
L 252.353073 214.402314 
L 252.925129 215.488014 
L 253.237159 213.558221 
L 253.536188 216.389093 
L 253.848219 215.81136 
L 254.186252 215.800383 
L 254.537286 215.021476 
L 254.88832 215.896579 
L 255.395369 211.701947 
L 255.590388 206.316582 
L 256.01943 205.560756 
L 256.474474 203.614869 
L 256.786504 201.58903 
L 257.111536 197.743122 
L 257.475571 196.888525 
L 257.735596 195.361622 
L 258.047627 196.430689 
L 258.424663 197.27553 
L 258.853705 196.904347 
L 259.139733 197.127797 
L 259.542772 198.757001 
L 259.815799 200.366546 
L 260.153831 200.314411 
L 260.556871 204.300911 
L 260.95991 203.787096 
L 261.310944 201.761142 
L 261.596972 201.317355 
L 262.065017 200.03626 
L 262.50706 196.842343 
L 262.871095 201.219601 
L 263.118119 197.5723 
L 263.729179 193.222476 
L 264.262231 192.704711 
L 264.704274 185.997755 
L 265.198322 182.430268 
L 265.575358 176.868552 
L 266.225421 175.944092 
L 266.810478 168.866499 
L 267.421538 168.768338 
L 267.863581 160.003639 
L 269.345725 152.885148 
L 269.631752 145.737356 
L 270.320819 144.635467 
L 270.710857 142.304395 
L 271.542938 145.137112 
L 272.049987 138.473848 
L 272.557037 135.713476 
L 273.194098 133.955958 
L 273.792157 136.562541 
L 274.403216 136.304725 
L 275.105284 138.476194 
L 275.820354 137.606021 
L 276.496419 136.53991 
L 276.938462 132.540425 
L 277.523519 130.291421 
L 278.186584 131.407453 
L 278.836647 133.967903 
L 280.175777 128.604112 
L 281.462902 118.095963 
L 282.307984 117.254303 
L 282.77603 115.10247 
L 283.244075 117.621403 
L 284.024151 117.612567 
L 285.259271 117.058639 
L 286.455387 109.400632 
L 287.157455 111.482903 
L 287.989536 109.953671 
L 288.457582 107.403174 
L 289.757708 103.89543 
L 290.459776 98.807448 
L 290.940823 94.223413 
L 291.486876 93.68926 
L 292.110937 98.808726 
L 292.800003 97.437908 
L 293.28105 95.117192 
L 294.139134 92.953174 
L 294.41216 92.821351 
L 295.205237 91.818928 
L 295.621278 92.786113 
L 296.297343 92.693949 
L 296.843396 91.76906 
L 297.467457 89.958071 
L 298.104519 86.44787 
L 298.819588 85.041339 
L 299.482653 82.882601 
L 300.002703 83.739657 
L 300.678769 85.523078 
L 301.224822 85.25585 
L 301.783876 82.999398 
L 302.407937 82.870818 
L 303.695062 78.578431 
L 304.371128 75.154619 
L 304.930182 75.532076 
L 305.684255 75.059744 
L 306.204306 72.914788 
L 306.97138 71.886637 
L 307.439426 69.334244 
L 308.687547 64.333666 
L 309.558632 62.830737 
L 309.987674 59.644329 
L 310.858758 58.210537 
L 311.2878 57.142118 
L 312.132882 58.002793 
L 312.587926 58.713944 
L 313.394005 56.397594 
L 313.836047 55.572152 
L 314.642126 55.764965 
L 315.162176 54.216771 
L 316.410298 54.925199 
L 317.15137 56.004741 
L 317.723425 56.147785 
L 318.438495 55.533652 
L 319.049554 54.416764 
L 319.72562 54.422031 
L 320.323678 54.074853 
L 320.96074 54.170862 
L 322.260866 54.137193 
L 322.81992 54.464722 
L 324.783111 53.568 
L 325.407172 54.001884 
L 325.992229 54.199408 
L 326.707298 54.204741 
L 327.24035 54.029904 
L 327.968421 54.238306 
L 328.514474 54.587814 
L 329.255546 54.501031 
L 329.775596 54.888138 
L 330.503667 54.900341 
L 331.036719 54.692165 
L 332.375849 54.881528 
L 332.986908 55.905502 
L 333.597968 55.933353 
L 334.326038 56.093664 
L 335.600162 55.978311 
L 336.172218 56.226029 
L 336.900289 56.346377 
L 337.43334 56.626912 
L 338.746468 56.278656 
L 339.448536 55.600644 
L 340.059596 55.830154 
L 340.72266 55.602249 
L 341.294716 55.614781 
L 341.996784 56.101449 
L 342.503833 55.979648 
L 343.257906 55.935244 
L 343.790958 56.266241 
L 345.026078 56.724086 
L 346.274199 57.90014 
L 347.080278 58.072098 
L 347.548323 58.36666 
L 348.302396 58.225531 
L 348.822447 58.398176 
L 349.563519 58.480073 
L 350.161577 58.067278 
L 351.396697 58.528102 
L 352.65782 57.960596 
L 353.28188 58.014874 
L 353.879938 57.828546 
L 354.543003 57.879222 
L 355.115058 58.204113 
L 356.350178 59.516444 
L 357.026244 59.239451 
L 357.650305 59.445653 
L 358.911427 59.042717 
L 359.587493 59.327608 
L 361.472676 59.073287 
L 362.096737 58.787629 
L 362.759801 58.339204 
L 363.383862 58.313837 
L 364.020924 58.150427 
L 365.906107 58.369092 
L 366.569171 58.341369 
L 367.167229 58.194293 
L 367.830294 58.345532 
L 368.402349 58.322656 
L 369.039411 58.697918 
L 369.676473 58.928045 
L 370.911593 59.767131 
L 371.60066 59.913726 
L 372.133712 59.818255 
L 372.783775 60.053973 
L 373.394835 59.665337 
L 374.031896 60.050169 
L 374.642956 60.161727 
L 375.30602 59.960849 
L 375.956083 59.97969 
L 376.528139 59.839581 
L 377.165201 59.447916 
L 377.789262 59.377765 
L 378.452326 59.756232 
L 379.037383 59.587118 
L 379.700447 59.716685 
L 380.272503 59.412195 
L 380.974571 59.330815 
L 381.546627 59.073633 
L 382.209691 59.275527 
L 382.794748 58.999346 
L 383.444811 58.816733 
L 384.081873 58.915481 
L 384.718935 58.734946 
L 385.342996 58.880611 
L 385.941054 59.284306 
L 387.176174 59.188565 
L 387.865241 59.451579 
L 388.411294 59.434644 
L 389.100361 59.580315 
L 389.659415 60.157394 
L 390.335481 59.958156 
L 390.933539 60.341617 
L 391.583602 60.48689 
L 392.18166 60.13774 
L 394.690904 59.320452 
L 395.392972 58.577244 
L 395.978029 58.323523 
L 396.641093 58.296027 
L 397.850211 57.344464 
L 398.487273 57.128476 
L 398.487273 57.128476 
" clip-path="url(#pe958817331)" style="fill: none; stroke: #1f77b4; stroke-width: 1.5; stroke-linecap: square"/>
   </g>
   <g id="patch_3">
    <path d="M 57.6 307.584 
L 57.6 41.472 
" style="fill: none; stroke: #000000; stroke-width: 0.8; stroke-linejoin: miter; stroke-linecap: square"/>
   </g>
   <g id="patch_4">
    <path d="M 414.72 307.584 
L 414.72 41.472 
" style="fill: none; stroke: #000000; stroke-width: 0.8; stroke-linejoin: miter; stroke-linecap: square"/>
   </g>
   <g id="patch_5">
    <path d="M 57.6 307.584 
L 414.72 307.584 
" style="fill: none; stroke: #000000; stroke-width: 0.8; stroke-linejoin: miter; stroke-linecap: square"/>
   </g>
   <g id="patch_6">
    <path d="M 57.6 41.472 
L 414.72 41.472 
" style="fill: none; stroke: #000000; stroke-width: 0.8; stroke-linejoin: miter; stroke-linecap: square"/>
   </g>
   <g id="text_14">
    <!-- learning curve -->
    <g transform="translate(192.96375 35.472) scale(0.12 -0.12)">
     <defs>
      <path id="DejaVuSans-6c" d="M 603 4863 
L 1178 4863 
L 1178 0 
L 603 0 
L 603 4863 
z
" transform="scale(0.015625)"/>
      <path id="DejaVuSans-67" d="M 2906 1791 
Q 2906 2416 2648 2759 
Q 2391 3103 1925 3103 
Q 1463 3103 1205 2759 
Q 947 2416 947 1791 
Q 947 1169 1205 825 
Q 1463 481 1925 481 
Q 2391 481 2648 825 
Q 2906 1169 2906 1791 
z
M 3481 434 
Q 3481 -459 3084 -895 
Q 2688 -1331 1869 -1331 
Q 1566 -1331 1297 -1286 
Q 1028 -1241 775 -1147 
L 775 -588 
Q 1028 -725 1275 -790 
Q 1522 -856 1778 -856 
Q 2344 -856 2625 -561 
Q 2906 -266 2906 331 
L 2906 616 
Q 2728 306 2450 153 
Q 2172 0 1784 0 
Q 1141 0 747 490 
Q 353 981 353 1791 
Q 353 2603 747 3093 
Q 1141 3584 1784 3584 
Q 2172 3584 2450 3431 
Q 2728 3278 2906 2969 
L 2906 3500 
L 3481 3500 
L 3481 434 
z
" transform="scale(0.015625)"/>
      <path id="DejaVuSans-63" d="M 3122 3366 
L 3122 2828 
Q 2878 2963 2633 3030 
Q 2388 3097 2138 3097 
Q 1578 3097 1268 2742 
Q 959 2388 959 1747 
Q 959 1106 1268 751 
Q 1578 397 2138 397 
Q 2388 397 2633 464 
Q 2878 531 3122 666 
L 3122 134 
Q 2881 22 2623 -34 
Q 2366 -91 2075 -91 
Q 1284 -91 818 406 
Q 353 903 353 1747 
Q 353 2603 823 3093 
Q 1294 3584 2113 3584 
Q 2378 3584 2631 3529 
Q 2884 3475 3122 3366 
z
" transform="scale(0.015625)"/>
      <path id="DejaVuSans-75" d="M 544 1381 
L 544 3500 
L 1119 3500 
L 1119 1403 
Q 1119 906 1312 657 
Q 1506 409 1894 409 
Q 2359 409 2629 706 
Q 2900 1003 2900 1516 
L 2900 3500 
L 3475 3500 
L 3475 0 
L 2900 0 
L 2900 538 
Q 2691 219 2414 64 
Q 2138 -91 1772 -91 
Q 1169 -91 856 284 
Q 544 659 544 1381 
z
M 1991 3584 
L 1991 3584 
z
" transform="scale(0.015625)"/>
      <path id="DejaVuSans-76" d="M 191 3500 
L 800 3500 
L 1894 563 
L 2988 3500 
L 3597 3500 
L 2284 0 
L 1503 0 
L 191 3500 
z
" transform="scale(0.015625)"/>
     </defs>
     <use xlink:href="#DejaVuSans-6c"/>
     <use xlink:href="#DejaVuSans-65" x="27.783203"/>
     <use xlink:href="#DejaVuSans-61" x="89.306641"/>
     <use xlink:href="#DejaVuSans-72" x="150.585938"/>
     <use xlink:href="#DejaVuSans-6e" x="189.949219"/>
     <use xlink:href="#DejaVuSans-69" x="253.328125"/>
     <use xlink:href="#DejaVuSans-6e" x="281.111328"/>
     <use xlink:href="#DejaVuSans-67" x="344.490234"/>
     <use xlink:href="#DejaVuSans-20" x="407.966797"/>
     <use xlink:href="#DejaVuSans-63" x="439.753906"/>
     <use xlink:href="#DejaVuSans-75" x="494.734375"/>
     <use xlink:href="#DejaVuSans-72" x="558.113281"/>
     <use xlink:href="#DejaVuSans-76" x="599.226562"/>
     <use xlink:href="#DejaVuSans-65" x="658.40625"/>
    </g>
   </g>
  </g>
 </g>
 <defs>
  <clipPath id="pe958817331">
   <rect x="57.6" y="41.472" width="357.12" height="266.112"/>
  </clipPath>
 </defs>
</svg>
