<?xml version="1.0" encoding="utf-8" standalone="no"?>
<!DOCTYPE svg PUBLIC "-//W3C//DTD SVG 1.1//EN"
  "http://www.w3.org/Graphics/SVG/1.1/DTD/svg11.dtd">
<svg xmlns:xlink="http://www.w3.org/1999/xlink" width="460.8pt" height="345.6pt" viewBox="0 0 460.8 345.6" xmlns="http://www.w3.org/2000/svg" version="1.1">
 <metadata>
  <rdf:RDF xmlns:dc="http://purl.org/dc/elements/1.1/" xmlns:cc="http://creativecommons.org/ns#" xmlns:rdf="http://www.w3.org/1999/02/22-rdf-syntax-ns#">
   <cc:Work>
    <dc:type rdf:resource="http://purl.org/dc/dcmitype/StillImage"/>
    <dc:date>2023-08-19T13:14:42.006158</dc:date>
    <dc:format>image/svg+xml</dc:format>
    <dc:creator>
     <cc:Agent>
      <dc:title>Matplotlib v3.7.1, https://matplotlib.org/</dc:title>
     </cc:Agent>
    </dc:creator>
   </cc:Work>
  </rdf:RDF>
 </metadata>
 <defs>
  <style type="text/css">*{stroke-linejoin: round; stroke-linecap: butt}</style>
 </defs>
 <g id="figure_1">
  <g id="patch_1">
   <path d="M 0 345.6 
L 460.8 345.6 
L 460.8 0 
L 0 0 
z
" style="fill: #ffffff"/>
  </g>
  <g id="axes_1">
   <g id="patch_2">
    <path d="M 57.6 307.584 
L 414.72 307.584 
L 414.72 41.472 
L 57.6 41.472 
z
" style="fill: #ffffff"/>
   </g>
   <g id="matplotlib.axis_1">
    <g id="xtick_1">
     <g id="line2d_1">
      <defs>
       <path id="mf942d9580b" d="M 0 0 
L 0 3.5 
" style="stroke: #000000; stroke-width: 0.8"/>
      </defs>
      <g>
       <use xlink:href="#mf942d9580b" x="73.600831" y="307.584" style="stroke: #000000; stroke-width: 0.8"/>
      </g>
     </g>
     <g id="text_1">
      <!-- 0 -->
      <g transform="translate(70.419581 322.182437) scale(0.1 -0.1)">
       <defs>
        <path id="DejaVuSans-30" d="M 2034 4250 
Q 1547 4250 1301 3770 
Q 1056 3291 1056 2328 
Q 1056 1369 1301 889 
Q 1547 409 2034 409 
Q 2525 409 2770 889 
Q 3016 1369 3016 2328 
Q 3016 3291 2770 3770 
Q 2525 4250 2034 4250 
z
M 2034 4750 
Q 2819 4750 3233 4129 
Q 3647 3509 3647 2328 
Q 3647 1150 3233 529 
Q 2819 -91 2034 -91 
Q 1250 -91 836 529 
Q 422 1150 422 2328 
Q 422 3509 836 4129 
Q 1250 4750 2034 4750 
z
" transform="scale(0.015625)"/>
       </defs>
       <use xlink:href="#DejaVuSans-30"/>
      </g>
     </g>
    </g>
    <g id="xtick_2">
     <g id="line2d_2">
      <g>
       <use xlink:href="#mf942d9580b" x="119.980052" y="307.584" style="stroke: #000000; stroke-width: 0.8"/>
      </g>
     </g>
     <g id="text_2">
      <!-- 2000 -->
      <g transform="translate(107.255052 322.182437) scale(0.1 -0.1)">
       <defs>
        <path id="DejaVuSans-32" d="M 1228 531 
L 3431 531 
L 3431 0 
L 469 0 
L 469 531 
Q 828 903 1448 1529 
Q 2069 2156 2228 2338 
Q 2531 2678 2651 2914 
Q 2772 3150 2772 3378 
Q 2772 3750 2511 3984 
Q 2250 4219 1831 4219 
Q 1534 4219 1204 4116 
Q 875 4013 500 3803 
L 500 4441 
Q 881 4594 1212 4672 
Q 1544 4750 1819 4750 
Q 2544 4750 2975 4387 
Q 3406 4025 3406 3419 
Q 3406 3131 3298 2873 
Q 3191 2616 2906 2266 
Q 2828 2175 2409 1742 
Q 1991 1309 1228 531 
z
" transform="scale(0.015625)"/>
       </defs>
       <use xlink:href="#DejaVuSans-32"/>
       <use xlink:href="#DejaVuSans-30" x="63.623047"/>
       <use xlink:href="#DejaVuSans-30" x="127.246094"/>
       <use xlink:href="#DejaVuSans-30" x="190.869141"/>
      </g>
     </g>
    </g>
    <g id="xtick_3">
     <g id="line2d_3">
      <g>
       <use xlink:href="#mf942d9580b" x="166.359273" y="307.584" style="stroke: #000000; stroke-width: 0.8"/>
      </g>
     </g>
     <g id="text_3">
      <!-- 4000 -->
      <g transform="translate(153.634273 322.182437) scale(0.1 -0.1)">
       <defs>
        <path id="DejaVuSans-34" d="M 2419 4116 
L 825 1625 
L 2419 1625 
L 2419 4116 
z
M 2253 4666 
L 3047 4666 
L 3047 1625 
L 3713 1625 
L 3713 1100 
L 3047 1100 
L 3047 0 
L 2419 0 
L 2419 1100 
L 313 1100 
L 313 1709 
L 2253 4666 
z
" transform="scale(0.015625)"/>
       </defs>
       <use xlink:href="#DejaVuSans-34"/>
       <use xlink:href="#DejaVuSans-30" x="63.623047"/>
       <use xlink:href="#DejaVuSans-30" x="127.246094"/>
       <use xlink:href="#DejaVuSans-30" x="190.869141"/>
      </g>
     </g>
    </g>
    <g id="xtick_4">
     <g id="line2d_4">
      <g>
       <use xlink:href="#mf942d9580b" x="212.738494" y="307.584" style="stroke: #000000; stroke-width: 0.8"/>
      </g>
     </g>
     <g id="text_4">
      <!-- 6000 -->
      <g transform="translate(200.013494 322.182437) scale(0.1 -0.1)">
       <defs>
        <path id="DejaVuSans-36" d="M 2113 2584 
Q 1688 2584 1439 2293 
Q 1191 2003 1191 1497 
Q 1191 994 1439 701 
Q 1688 409 2113 409 
Q 2538 409 2786 701 
Q 3034 994 3034 1497 
Q 3034 2003 2786 2293 
Q 2538 2584 2113 2584 
z
M 3366 4563 
L 3366 3988 
Q 3128 4100 2886 4159 
Q 2644 4219 2406 4219 
Q 1781 4219 1451 3797 
Q 1122 3375 1075 2522 
Q 1259 2794 1537 2939 
Q 1816 3084 2150 3084 
Q 2853 3084 3261 2657 
Q 3669 2231 3669 1497 
Q 3669 778 3244 343 
Q 2819 -91 2113 -91 
Q 1303 -91 875 529 
Q 447 1150 447 2328 
Q 447 3434 972 4092 
Q 1497 4750 2381 4750 
Q 2619 4750 2861 4703 
Q 3103 4656 3366 4563 
z
" transform="scale(0.015625)"/>
       </defs>
       <use xlink:href="#DejaVuSans-36"/>
       <use xlink:href="#DejaVuSans-30" x="63.623047"/>
       <use xlink:href="#DejaVuSans-30" x="127.246094"/>
       <use xlink:href="#DejaVuSans-30" x="190.869141"/>
      </g>
     </g>
    </g>
    <g id="xtick_5">
     <g id="line2d_5">
      <g>
       <use xlink:href="#mf942d9580b" x="259.117714" y="307.584" style="stroke: #000000; stroke-width: 0.8"/>
      </g>
     </g>
     <g id="text_5">
      <!-- 8000 -->
      <g transform="translate(246.392714 322.182437) scale(0.1 -0.1)">
       <defs>
        <path id="DejaVuSans-38" d="M 2034 2216 
Q 1584 2216 1326 1975 
Q 1069 1734 1069 1313 
Q 1069 891 1326 650 
Q 1584 409 2034 409 
Q 2484 409 2743 651 
Q 3003 894 3003 1313 
Q 3003 1734 2745 1975 
Q 2488 2216 2034 2216 
z
M 1403 2484 
Q 997 2584 770 2862 
Q 544 3141 544 3541 
Q 544 4100 942 4425 
Q 1341 4750 2034 4750 
Q 2731 4750 3128 4425 
Q 3525 4100 3525 3541 
Q 3525 3141 3298 2862 
Q 3072 2584 2669 2484 
Q 3125 2378 3379 2068 
Q 3634 1759 3634 1313 
Q 3634 634 3220 271 
Q 2806 -91 2034 -91 
Q 1263 -91 848 271 
Q 434 634 434 1313 
Q 434 1759 690 2068 
Q 947 2378 1403 2484 
z
M 1172 3481 
Q 1172 3119 1398 2916 
Q 1625 2713 2034 2713 
Q 2441 2713 2670 2916 
Q 2900 3119 2900 3481 
Q 2900 3844 2670 4047 
Q 2441 4250 2034 4250 
Q 1625 4250 1398 4047 
Q 1172 3844 1172 3481 
z
" transform="scale(0.015625)"/>
       </defs>
       <use xlink:href="#DejaVuSans-38"/>
       <use xlink:href="#DejaVuSans-30" x="63.623047"/>
       <use xlink:href="#DejaVuSans-30" x="127.246094"/>
       <use xlink:href="#DejaVuSans-30" x="190.869141"/>
      </g>
     </g>
    </g>
    <g id="xtick_6">
     <g id="line2d_6">
      <g>
       <use xlink:href="#mf942d9580b" x="305.496935" y="307.584" style="stroke: #000000; stroke-width: 0.8"/>
      </g>
     </g>
     <g id="text_6">
      <!-- 10000 -->
      <g transform="translate(289.590685 322.182437) scale(0.1 -0.1)">
       <defs>
        <path id="DejaVuSans-31" d="M 794 531 
L 1825 531 
L 1825 4091 
L 703 3866 
L 703 4441 
L 1819 4666 
L 2450 4666 
L 2450 531 
L 3481 531 
L 3481 0 
L 794 0 
L 794 531 
z
" transform="scale(0.015625)"/>
       </defs>
       <use xlink:href="#DejaVuSans-31"/>
       <use xlink:href="#DejaVuSans-30" x="63.623047"/>
       <use xlink:href="#DejaVuSans-30" x="127.246094"/>
       <use xlink:href="#DejaVuSans-30" x="190.869141"/>
       <use xlink:href="#DejaVuSans-30" x="254.492188"/>
      </g>
     </g>
    </g>
    <g id="xtick_7">
     <g id="line2d_7">
      <g>
       <use xlink:href="#mf942d9580b" x="351.876156" y="307.584" style="stroke: #000000; stroke-width: 0.8"/>
      </g>
     </g>
     <g id="text_7">
      <!-- 12000 -->
      <g transform="translate(335.969906 322.182437) scale(0.1 -0.1)">
       <use xlink:href="#DejaVuSans-31"/>
       <use xlink:href="#DejaVuSans-32" x="63.623047"/>
       <use xlink:href="#DejaVuSans-30" x="127.246094"/>
       <use xlink:href="#DejaVuSans-30" x="190.869141"/>
       <use xlink:href="#DejaVuSans-30" x="254.492188"/>
      </g>
     </g>
    </g>
    <g id="xtick_8">
     <g id="line2d_8">
      <g>
       <use xlink:href="#mf942d9580b" x="398.255377" y="307.584" style="stroke: #000000; stroke-width: 0.8"/>
      </g>
     </g>
     <g id="text_8">
      <!-- 14000 -->
      <g transform="translate(382.349127 322.182437) scale(0.1 -0.1)">
       <use xlink:href="#DejaVuSans-31"/>
       <use xlink:href="#DejaVuSans-34" x="63.623047"/>
       <use xlink:href="#DejaVuSans-30" x="127.246094"/>
       <use xlink:href="#DejaVuSans-30" x="190.869141"/>
       <use xlink:href="#DejaVuSans-30" x="254.492188"/>
      </g>
     </g>
    </g>
    <g id="text_9">
     <!-- episodes -->
     <g transform="translate(214.000625 335.860562) scale(0.1 -0.1)">
      <defs>
       <path id="DejaVuSans-65" d="M 3597 1894 
L 3597 1613 
L 953 1613 
Q 991 1019 1311 708 
Q 1631 397 2203 397 
Q 2534 397 2845 478 
Q 3156 559 3463 722 
L 3463 178 
Q 3153 47 2828 -22 
Q 2503 -91 2169 -91 
Q 1331 -91 842 396 
Q 353 884 353 1716 
Q 353 2575 817 3079 
Q 1281 3584 2069 3584 
Q 2775 3584 3186 3129 
Q 3597 2675 3597 1894 
z
M 3022 2063 
Q 3016 2534 2758 2815 
Q 2500 3097 2075 3097 
Q 1594 3097 1305 2825 
Q 1016 2553 972 2059 
L 3022 2063 
z
" transform="scale(0.015625)"/>
       <path id="DejaVuSans-70" d="M 1159 525 
L 1159 -1331 
L 581 -1331 
L 581 3500 
L 1159 3500 
L 1159 2969 
Q 1341 3281 1617 3432 
Q 1894 3584 2278 3584 
Q 2916 3584 3314 3078 
Q 3713 2572 3713 1747 
Q 3713 922 3314 415 
Q 2916 -91 2278 -91 
Q 1894 -91 1617 61 
Q 1341 213 1159 525 
z
M 3116 1747 
Q 3116 2381 2855 2742 
Q 2594 3103 2138 3103 
Q 1681 3103 1420 2742 
Q 1159 2381 1159 1747 
Q 1159 1113 1420 752 
Q 1681 391 2138 391 
Q 2594 391 2855 752 
Q 3116 1113 3116 1747 
z
" transform="scale(0.015625)"/>
       <path id="DejaVuSans-69" d="M 603 3500 
L 1178 3500 
L 1178 0 
L 603 0 
L 603 3500 
z
M 603 4863 
L 1178 4863 
L 1178 4134 
L 603 4134 
L 603 4863 
z
" transform="scale(0.015625)"/>
       <path id="DejaVuSans-73" d="M 2834 3397 
L 2834 2853 
Q 2591 2978 2328 3040 
Q 2066 3103 1784 3103 
Q 1356 3103 1142 2972 
Q 928 2841 928 2578 
Q 928 2378 1081 2264 
Q 1234 2150 1697 2047 
L 1894 2003 
Q 2506 1872 2764 1633 
Q 3022 1394 3022 966 
Q 3022 478 2636 193 
Q 2250 -91 1575 -91 
Q 1294 -91 989 -36 
Q 684 19 347 128 
L 347 722 
Q 666 556 975 473 
Q 1284 391 1588 391 
Q 1994 391 2212 530 
Q 2431 669 2431 922 
Q 2431 1156 2273 1281 
Q 2116 1406 1581 1522 
L 1381 1569 
Q 847 1681 609 1914 
Q 372 2147 372 2553 
Q 372 3047 722 3315 
Q 1072 3584 1716 3584 
Q 2034 3584 2315 3537 
Q 2597 3491 2834 3397 
z
" transform="scale(0.015625)"/>
       <path id="DejaVuSans-6f" d="M 1959 3097 
Q 1497 3097 1228 2736 
Q 959 2375 959 1747 
Q 959 1119 1226 758 
Q 1494 397 1959 397 
Q 2419 397 2687 759 
Q 2956 1122 2956 1747 
Q 2956 2369 2687 2733 
Q 2419 3097 1959 3097 
z
M 1959 3584 
Q 2709 3584 3137 3096 
Q 3566 2609 3566 1747 
Q 3566 888 3137 398 
Q 2709 -91 1959 -91 
Q 1206 -91 779 398 
Q 353 888 353 1747 
Q 353 2609 779 3096 
Q 1206 3584 1959 3584 
z
" transform="scale(0.015625)"/>
       <path id="DejaVuSans-64" d="M 2906 2969 
L 2906 4863 
L 3481 4863 
L 3481 0 
L 2906 0 
L 2906 525 
Q 2725 213 2448 61 
Q 2172 -91 1784 -91 
Q 1150 -91 751 415 
Q 353 922 353 1747 
Q 353 2572 751 3078 
Q 1150 3584 1784 3584 
Q 2172 3584 2448 3432 
Q 2725 3281 2906 2969 
z
M 947 1747 
Q 947 1113 1208 752 
Q 1469 391 1925 391 
Q 2381 391 2643 752 
Q 2906 1113 2906 1747 
Q 2906 2381 2643 2742 
Q 2381 3103 1925 3103 
Q 1469 3103 1208 2742 
Q 947 2381 947 1747 
z
" transform="scale(0.015625)"/>
      </defs>
      <use xlink:href="#DejaVuSans-65"/>
      <use xlink:href="#DejaVuSans-70" x="61.523438"/>
      <use xlink:href="#DejaVuSans-69" x="125"/>
      <use xlink:href="#DejaVuSans-73" x="152.783203"/>
      <use xlink:href="#DejaVuSans-6f" x="204.882812"/>
      <use xlink:href="#DejaVuSans-64" x="266.064453"/>
      <use xlink:href="#DejaVuSans-65" x="329.541016"/>
      <use xlink:href="#DejaVuSans-73" x="391.064453"/>
     </g>
    </g>
   </g>
   <g id="matplotlib.axis_2">
    <g id="ytick_1">
     <g id="line2d_9">
      <defs>
       <path id="m4ee2a41122" d="M 0 0 
L -3.5 0 
" style="stroke: #000000; stroke-width: 0.8"/>
      </defs>
      <g>
       <use xlink:href="#m4ee2a41122" x="57.6" y="306.281925" style="stroke: #000000; stroke-width: 0.8"/>
      </g>
     </g>
     <g id="text_10">
      <!-- 0 -->
      <g transform="translate(44.2375 310.081143) scale(0.1 -0.1)">
       <use xlink:href="#DejaVuSans-30"/>
      </g>
     </g>
    </g>
    <g id="ytick_2">
     <g id="line2d_10">
      <g>
       <use xlink:href="#m4ee2a41122" x="57.6" y="249.817407" style="stroke: #000000; stroke-width: 0.8"/>
      </g>
     </g>
     <g id="text_11">
      <!-- 50 -->
      <g transform="translate(37.875 253.616625) scale(0.1 -0.1)">
       <defs>
        <path id="DejaVuSans-35" d="M 691 4666 
L 3169 4666 
L 3169 4134 
L 1269 4134 
L 1269 2991 
Q 1406 3038 1543 3061 
Q 1681 3084 1819 3084 
Q 2600 3084 3056 2656 
Q 3513 2228 3513 1497 
Q 3513 744 3044 326 
Q 2575 -91 1722 -91 
Q 1428 -91 1123 -41 
Q 819 9 494 109 
L 494 744 
Q 775 591 1075 516 
Q 1375 441 1709 441 
Q 2250 441 2565 725 
Q 2881 1009 2881 1497 
Q 2881 1984 2565 2268 
Q 2250 2553 1709 2553 
Q 1456 2553 1204 2497 
Q 953 2441 691 2322 
L 691 4666 
z
" transform="scale(0.015625)"/>
       </defs>
       <use xlink:href="#DejaVuSans-35"/>
       <use xlink:href="#DejaVuSans-30" x="63.623047"/>
      </g>
     </g>
    </g>
    <g id="ytick_3">
     <g id="line2d_11">
      <g>
       <use xlink:href="#m4ee2a41122" x="57.6" y="193.352888" style="stroke: #000000; stroke-width: 0.8"/>
      </g>
     </g>
     <g id="text_12">
      <!-- 100 -->
      <g transform="translate(31.5125 197.152107) scale(0.1 -0.1)">
       <use xlink:href="#DejaVuSans-31"/>
       <use xlink:href="#DejaVuSans-30" x="63.623047"/>
       <use xlink:href="#DejaVuSans-30" x="127.246094"/>
      </g>
     </g>
    </g>
    <g id="ytick_4">
     <g id="line2d_12">
      <g>
       <use xlink:href="#m4ee2a41122" x="57.6" y="136.88837" style="stroke: #000000; stroke-width: 0.8"/>
      </g>
     </g>
     <g id="text_13">
      <!-- 150 -->
      <g transform="translate(31.5125 140.687589) scale(0.1 -0.1)">
       <use xlink:href="#DejaVuSans-31"/>
       <use xlink:href="#DejaVuSans-35" x="63.623047"/>
       <use xlink:href="#DejaVuSans-30" x="127.246094"/>
      </g>
     </g>
    </g>
    <g id="ytick_5">
     <g id="line2d_13">
      <g>
       <use xlink:href="#m4ee2a41122" x="57.6" y="80.423852" style="stroke: #000000; stroke-width: 0.8"/>
      </g>
     </g>
     <g id="text_14">
      <!-- 200 -->
      <g transform="translate(31.5125 84.223071) scale(0.1 -0.1)">
       <use xlink:href="#DejaVuSans-32"/>
       <use xlink:href="#DejaVuSans-30" x="63.623047"/>
       <use xlink:href="#DejaVuSans-30" x="127.246094"/>
      </g>
     </g>
    </g>
    <g id="text_15">
     <!-- mean episode rewards -->
     <g transform="translate(25.432812 231.360031) rotate(-90) scale(0.1 -0.1)">
      <defs>
       <path id="DejaVuSans-6d" d="M 3328 2828 
Q 3544 3216 3844 3400 
Q 4144 3584 4550 3584 
Q 5097 3584 5394 3201 
Q 5691 2819 5691 2113 
L 5691 0 
L 5113 0 
L 5113 2094 
Q 5113 2597 4934 2840 
Q 4756 3084 4391 3084 
Q 3944 3084 3684 2787 
Q 3425 2491 3425 1978 
L 3425 0 
L 2847 0 
L 2847 2094 
Q 2847 2600 2669 2842 
Q 2491 3084 2119 3084 
Q 1678 3084 1418 2786 
Q 1159 2488 1159 1978 
L 1159 0 
L 581 0 
L 581 3500 
L 1159 3500 
L 1159 2956 
Q 1356 3278 1631 3431 
Q 1906 3584 2284 3584 
Q 2666 3584 2933 3390 
Q 3200 3197 3328 2828 
z
" transform="scale(0.015625)"/>
       <path id="DejaVuSans-61" d="M 2194 1759 
Q 1497 1759 1228 1600 
Q 959 1441 959 1056 
Q 959 750 1161 570 
Q 1363 391 1709 391 
Q 2188 391 2477 730 
Q 2766 1069 2766 1631 
L 2766 1759 
L 2194 1759 
z
M 3341 1997 
L 3341 0 
L 2766 0 
L 2766 531 
Q 2569 213 2275 61 
Q 1981 -91 1556 -91 
Q 1019 -91 701 211 
Q 384 513 384 1019 
Q 384 1609 779 1909 
Q 1175 2209 1959 2209 
L 2766 2209 
L 2766 2266 
Q 2766 2663 2505 2880 
Q 2244 3097 1772 3097 
Q 1472 3097 1187 3025 
Q 903 2953 641 2809 
L 641 3341 
Q 956 3463 1253 3523 
Q 1550 3584 1831 3584 
Q 2591 3584 2966 3190 
Q 3341 2797 3341 1997 
z
" transform="scale(0.015625)"/>
       <path id="DejaVuSans-6e" d="M 3513 2113 
L 3513 0 
L 2938 0 
L 2938 2094 
Q 2938 2591 2744 2837 
Q 2550 3084 2163 3084 
Q 1697 3084 1428 2787 
Q 1159 2491 1159 1978 
L 1159 0 
L 581 0 
L 581 3500 
L 1159 3500 
L 1159 2956 
Q 1366 3272 1645 3428 
Q 1925 3584 2291 3584 
Q 2894 3584 3203 3211 
Q 3513 2838 3513 2113 
z
" transform="scale(0.015625)"/>
       <path id="DejaVuSans-20" transform="scale(0.015625)"/>
       <path id="DejaVuSans-72" d="M 2631 2963 
Q 2534 3019 2420 3045 
Q 2306 3072 2169 3072 
Q 1681 3072 1420 2755 
Q 1159 2438 1159 1844 
L 1159 0 
L 581 0 
L 581 3500 
L 1159 3500 
L 1159 2956 
Q 1341 3275 1631 3429 
Q 1922 3584 2338 3584 
Q 2397 3584 2469 3576 
Q 2541 3569 2628 3553 
L 2631 2963 
z
" transform="scale(0.015625)"/>
       <path id="DejaVuSans-77" d="M 269 3500 
L 844 3500 
L 1563 769 
L 2278 3500 
L 2956 3500 
L 3675 769 
L 4391 3500 
L 4966 3500 
L 4050 0 
L 3372 0 
L 2619 2869 
L 1863 0 
L 1184 0 
L 269 3500 
z
" transform="scale(0.015625)"/>
      </defs>
      <use xlink:href="#DejaVuSans-6d"/>
      <use xlink:href="#DejaVuSans-65" x="97.412109"/>
      <use xlink:href="#DejaVuSans-61" x="158.935547"/>
      <use xlink:href="#DejaVuSans-6e" x="220.214844"/>
      <use xlink:href="#DejaVuSans-20" x="283.59375"/>
      <use xlink:href="#DejaVuSans-65" x="315.380859"/>
      <use xlink:href="#DejaVuSans-70" x="376.904297"/>
      <use xlink:href="#DejaVuSans-69" x="440.380859"/>
      <use xlink:href="#DejaVuSans-73" x="468.164062"/>
      <use xlink:href="#DejaVuSans-6f" x="520.263672"/>
      <use xlink:href="#DejaVuSans-64" x="581.445312"/>
      <use xlink:href="#DejaVuSans-65" x="644.921875"/>
      <use xlink:href="#DejaVuSans-20" x="706.445312"/>
      <use xlink:href="#DejaVuSans-72" x="738.232422"/>
      <use xlink:href="#DejaVuSans-65" x="777.095703"/>
      <use xlink:href="#DejaVuSans-77" x="838.619141"/>
      <use xlink:href="#DejaVuSans-61" x="920.40625"/>
      <use xlink:href="#DejaVuSans-72" x="981.685547"/>
      <use xlink:href="#DejaVuSans-64" x="1021.048828"/>
      <use xlink:href="#DejaVuSans-73" x="1084.525391"/>
     </g>
    </g>
   </g>
   <g id="line2d_14">
    <path d="M 73.832727 293.725693 
L 74.064623 291.434495 
L 74.528416 290.542011 
L 74.760312 289.251005 
L 74.992208 289.877237 
L 75.456 288.60524 
L 75.687896 288.274798 
L 75.919792 288.464729 
L 76.383584 286.356805 
L 76.615481 286.527194 
L 76.847377 286.953919 
L 77.079273 286.349015 
L 77.311169 286.971503 
L 77.543065 288.054167 
L 77.774961 288.392909 
L 78.006857 288.316635 
L 78.470649 289.907055 
L 78.702545 290.715881 
L 78.934442 289.547285 
L 79.166338 289.535782 
L 79.398234 288.870845 
L 79.63013 287.853155 
L 79.862026 287.375179 
L 80.093922 285.758624 
L 80.325818 285.997852 
L 80.557714 284.156675 
L 80.78961 283.98332 
L 81.021506 282.543874 
L 81.253403 282.948606 
L 81.485299 282.188897 
L 81.949091 284.719066 
L 82.180987 284.79506 
L 82.412883 286.031748 
L 82.644779 285.561955 
L 82.876675 287.624604 
L 83.108571 288.274475 
L 83.572364 289.961253 
L 83.80426 290.604642 
L 84.036156 290.195442 
L 84.268052 290.908847 
L 84.499948 290.951294 
L 84.96374 289.885705 
L 85.427532 288.181411 
L 85.659429 288.948248 
L 85.891325 289.276044 
L 86.123221 286.601695 
L 86.355117 286.252347 
L 86.587013 283.984577 
L 87.050805 283.104323 
L 87.282701 283.207455 
L 87.514597 284.049697 
L 87.746494 283.294483 
L 88.210286 278.541517 
L 88.442182 280.578974 
L 88.674078 278.173356 
L 88.905974 279.867258 
L 89.601662 282.47115 
L 89.833558 281.967793 
L 90.065455 280.708116 
L 90.529247 283.209202 
L 90.761143 282.503659 
L 90.993039 284.050916 
L 91.224935 283.91461 
L 91.688727 282.973834 
L 91.920623 281.668967 
L 92.152519 279.100324 
L 92.384416 281.420044 
L 92.616312 281.787208 
L 92.848208 282.921089 
L 93.080104 282.965178 
L 93.312 281.482117 
L 93.775792 282.056544 
L 94.007688 281.754059 
L 94.239584 281.804401 
L 94.471481 282.273772 
L 94.703377 281.811626 
L 94.935273 281.691243 
L 95.167169 280.788606 
L 95.399065 281.152905 
L 95.630961 283.330393 
L 95.862857 282.653444 
L 96.094753 281.537938 
L 96.326649 281.393119 
L 96.558545 280.400516 
L 96.790442 283.141158 
L 97.254234 284.232474 
L 97.48613 283.732925 
L 97.718026 284.17257 
L 97.949922 283.846002 
L 98.181818 284.475732 
L 98.413714 283.191849 
L 98.64561 282.975977 
L 98.877506 283.416508 
L 99.341299 283.485795 
L 99.573195 282.905117 
L 99.805091 284.368451 
L 100.036987 284.536247 
L 100.500779 284.421198 
L 100.732675 286.301454 
L 101.196468 288.079012 
L 101.428364 287.973233 
L 101.892156 288.465476 
L 102.124052 287.337125 
L 102.355948 287.049883 
L 102.81974 288.759235 
L 103.051636 288.654753 
L 103.283532 288.199063 
L 103.515429 287.121752 
L 103.747325 288.109729 
L 103.979221 287.006049 
L 104.211117 287.061404 
L 104.443013 288.061467 
L 104.674909 288.305758 
L 104.906805 287.934531 
L 105.138701 286.959883 
L 105.602494 287.763812 
L 105.83439 289.529562 
L 106.066286 288.023869 
L 106.298182 289.24852 
L 106.530078 289.643098 
L 106.761974 289.691249 
L 107.225766 289.282001 
L 107.457662 290.376628 
L 107.689558 290.209574 
L 107.921455 290.666435 
L 108.153351 290.478894 
L 108.385247 291.827143 
L 108.617143 292.102958 
L 109.312831 290.595277 
L 109.776623 288.730311 
L 110.008519 287.685774 
L 110.240416 288.324994 
L 110.472312 287.807677 
L 110.704208 286.194185 
L 110.936104 283.640908 
L 111.399896 284.290034 
L 111.631792 285.34824 
L 111.863688 286.991416 
L 112.095584 286.92474 
L 112.327481 287.602879 
L 112.559377 286.46706 
L 113.023169 288.179629 
L 113.255065 290.712286 
L 113.486961 290.499984 
L 113.718857 290.060778 
L 113.950753 289.290011 
L 114.182649 288.914378 
L 114.646442 287.847307 
L 114.878338 288.817488 
L 115.110234 287.595803 
L 115.34213 288.20058 
L 115.574026 287.212994 
L 115.805922 287.710455 
L 116.037818 287.780509 
L 116.269714 288.226531 
L 116.50161 288.262191 
L 116.965403 289.706851 
L 117.197299 289.333643 
L 117.661091 289.217294 
L 117.892987 290.523594 
L 118.356779 288.422018 
L 118.588675 288.453741 
L 118.820571 287.562314 
L 119.052468 287.674565 
L 119.284364 287.348182 
L 119.980052 288.536526 
L 120.211948 287.955714 
L 120.443844 288.044308 
L 120.67574 288.916348 
L 120.907636 289.078681 
L 121.139532 289.658222 
L 121.371429 289.121772 
L 121.603325 289.449712 
L 121.835221 289.563282 
L 122.067117 289.8035 
L 122.299013 289.322822 
L 122.530909 289.358275 
L 122.994701 290.27158 
L 123.226597 290.080749 
L 123.458494 290.84095 
L 123.69039 290.772337 
L 124.386078 289.574667 
L 124.617974 290.155524 
L 124.84987 290.200202 
L 125.081766 290.439522 
L 125.777455 289.234165 
L 126.009351 289.929181 
L 126.241247 290.089153 
L 126.473143 290.549981 
L 126.705039 291.383899 
L 126.936935 290.544801 
L 127.400727 290.34433 
L 127.632623 290.914244 
L 127.864519 291.141687 
L 128.096416 291.821294 
L 128.328312 291.797931 
L 128.560208 292.286521 
L 128.792104 291.785291 
L 129.024 292.524565 
L 129.255896 292.524726 
L 129.487792 292.095347 
L 129.719688 291.995827 
L 129.951584 291.316606 
L 130.183481 291.48126 
L 130.415377 290.888754 
L 130.647273 290.639965 
L 130.879169 290.609203 
L 131.111065 291.213896 
L 131.574857 290.427943 
L 131.806753 291.336817 
L 132.038649 291.392007 
L 132.270545 292.356389 
L 132.734338 292.534725 
L 133.19813 292.761611 
L 133.430026 293.008975 
L 133.661922 293.461904 
L 133.893818 293.50028 
L 134.125714 293.327754 
L 134.35761 293.606649 
L 134.821403 293.227876 
L 135.053299 293.610026 
L 135.285195 293.392941 
L 135.517091 292.163757 
L 135.748987 291.995392 
L 135.980883 292.182571 
L 136.212779 291.745213 
L 136.444675 292.187665 
L 136.676571 291.971105 
L 136.908468 292.251316 
L 137.140364 291.705604 
L 138.067948 293.720697 
L 138.299844 293.603359 
L 138.53174 293.887416 
L 138.995532 294.117865 
L 139.227429 293.707776 
L 139.459325 293.995127 
L 139.691221 293.427336 
L 139.923117 293.237528 
L 140.155013 293.495667 
L 140.386909 292.900888 
L 140.618805 292.823375 
L 140.850701 293.166122 
L 141.314494 292.693872 
L 141.54639 292.565953 
L 141.778286 292.296672 
L 142.242078 292.899637 
L 142.473974 292.609426 
L 142.937766 293.128152 
L 143.169662 292.988195 
L 143.401558 293.052689 
L 143.633455 293.27587 
L 144.097247 294.250659 
L 144.329143 294.287393 
L 144.561039 294.556496 
L 145.024831 294.024863 
L 145.488623 294.215179 
L 145.720519 293.951867 
L 145.952416 293.496685 
L 146.184312 293.504024 
L 146.416208 293.288849 
L 146.648104 292.779064 
L 146.88 290.794716 
L 147.343792 290.976807 
L 147.575688 290.412855 
L 147.807584 290.545994 
L 148.271377 290.14455 
L 148.503273 290.685766 
L 148.735169 289.912636 
L 148.967065 290.436138 
L 149.198961 292.040755 
L 149.430857 292.118364 
L 149.894649 292.653796 
L 150.126545 292.624275 
L 150.358442 292.789051 
L 150.590338 293.515765 
L 150.822234 293.587504 
L 151.05413 294.08737 
L 151.286026 294.012075 
L 151.517922 294.945142 
L 151.981714 294.811391 
L 152.445506 295.488 
L 152.677403 295.392242 
L 152.909299 295.124933 
L 153.141195 295.412484 
L 153.373091 295.466016 
L 153.604987 294.942925 
L 153.836883 294.742897 
L 154.068779 294.918402 
L 154.532571 294.199329 
L 154.764468 294.081861 
L 154.996364 294.525092 
L 155.22826 294.625309 
L 155.460156 293.968485 
L 155.923948 294.15738 
L 156.619636 294.0035 
L 156.851532 294.058263 
L 157.083429 293.513202 
L 157.315325 293.263514 
L 157.547221 293.243878 
L 157.779117 293.685876 
L 158.011013 293.813455 
L 158.242909 293.751663 
L 158.474805 293.46152 
L 158.706701 293.461104 
L 158.938597 293.243686 
L 159.170494 293.244381 
L 159.40239 294.079509 
L 159.634286 294.422497 
L 159.866182 294.173395 
L 160.098078 294.565305 
L 160.329974 294.244962 
L 160.56187 294.195489 
L 160.793766 294.534874 
L 161.025662 294.598338 
L 161.257558 294.830199 
L 162.185143 294.815809 
L 162.648935 294.014765 
L 163.344623 294.689418 
L 163.576519 294.760231 
L 164.040312 294.185162 
L 164.504104 294.475587 
L 164.736 294.12862 
L 164.967896 295.020186 
L 165.895481 293.857959 
L 166.127377 292.831674 
L 166.591169 293.29023 
L 166.823065 292.696738 
L 167.054961 293.308089 
L 167.286857 293.4012 
L 167.518753 293.099617 
L 168.214442 293.867527 
L 168.446338 294.872269 
L 168.678234 294.648483 
L 168.91013 293.733172 
L 169.142026 294.015953 
L 169.605818 292.724746 
L 169.837714 292.140702 
L 170.06961 292.322365 
L 170.997195 290.181649 
L 171.229091 290.801023 
L 171.460987 290.644717 
L 171.924779 291.093335 
L 172.156675 291.777242 
L 172.388571 291.286817 
L 172.852364 291.446082 
L 173.316156 292.333613 
L 173.548052 291.217854 
L 173.779948 290.905046 
L 174.011844 291.148803 
L 174.475636 290.747182 
L 174.707532 290.945638 
L 174.939429 291.625483 
L 175.171325 291.138251 
L 175.403221 290.085349 
L 175.635117 289.753348 
L 175.867013 290.295964 
L 176.098909 290.003518 
L 176.794597 290.9003 
L 177.026494 290.719745 
L 177.25839 289.505668 
L 177.490286 289.359082 
L 177.722182 289.813154 
L 178.185974 288.732682 
L 178.41787 288.698449 
L 178.649766 287.713542 
L 179.113558 287.526925 
L 179.345455 288.116428 
L 179.577351 288.095781 
L 180.041143 287.172668 
L 180.273039 287.559896 
L 180.504935 286.680269 
L 180.736831 286.683094 
L 180.968727 286.12763 
L 181.200623 285.211131 
L 181.664416 281.507442 
L 181.896312 281.672379 
L 182.128208 282.548746 
L 182.592 283.270405 
L 182.823896 284.954337 
L 183.055792 285.185619 
L 183.287688 284.033285 
L 183.519584 284.844649 
L 183.751481 285.197719 
L 183.983377 285.987452 
L 184.215273 285.334249 
L 184.447169 283.300896 
L 184.679065 282.955258 
L 184.910961 282.832614 
L 185.142857 280.545761 
L 185.374753 280.013538 
L 185.606649 281.992393 
L 186.070442 281.060519 
L 186.302338 281.221339 
L 186.534234 280.934851 
L 186.998026 283.395945 
L 187.229922 283.144433 
L 187.461818 283.318648 
L 187.92561 279.586608 
L 188.157506 278.982515 
L 188.389403 279.114521 
L 188.621299 277.708377 
L 188.853195 277.654596 
L 189.548883 275.93395 
L 189.780779 275.130948 
L 190.012675 275.753963 
L 190.244571 275.164102 
L 190.476468 275.042237 
L 190.708364 275.641979 
L 191.172156 268.897977 
L 191.404052 268.994397 
L 191.867844 263.968799 
L 192.09974 262.754387 
L 192.331636 262.970931 
L 192.795429 259.79406 
L 193.027325 255.366243 
L 193.259221 258.032564 
L 193.491117 259.123875 
L 193.954909 254.011558 
L 194.418701 254.294504 
L 194.650597 254.210522 
L 194.882494 255.3336 
L 195.11439 255.480215 
L 195.346286 255.194285 
L 195.578182 253.56888 
L 195.810078 253.932175 
L 196.041974 254.520139 
L 196.27387 256.351398 
L 196.505766 255.916201 
L 196.737662 251.314503 
L 196.969558 251.516354 
L 197.433351 252.44169 
L 197.665247 252.379903 
L 197.897143 252.141638 
L 198.360935 247.445427 
L 198.592831 247.371756 
L 198.824727 246.438667 
L 199.056623 248.16439 
L 199.288519 247.381027 
L 199.520416 245.668282 
L 199.984208 244.87567 
L 200.911792 249.924888 
L 201.143688 248.486922 
L 201.375584 249.747964 
L 201.607481 248.851242 
L 201.839377 249.7385 
L 202.071273 248.920821 
L 202.303169 249.911657 
L 202.535065 249.493724 
L 202.766961 249.356934 
L 202.998857 249.429987 
L 203.230753 248.860511 
L 203.462649 250.6277 
L 203.694545 249.856426 
L 203.926442 249.990048 
L 204.158338 249.618033 
L 204.390234 250.882515 
L 204.62213 250.103247 
L 204.854026 250.314638 
L 205.085922 249.470814 
L 205.317818 250.727325 
L 205.549714 250.691533 
L 205.78161 249.930885 
L 206.013506 250.694528 
L 206.477299 250.605493 
L 206.709195 249.46589 
L 206.941091 249.965844 
L 207.404883 249.832364 
L 207.868675 248.532566 
L 208.100571 249.385997 
L 208.332468 249.583541 
L 208.564364 249.965119 
L 208.79626 251.092108 
L 209.028156 251.629115 
L 209.260052 251.387786 
L 209.491948 250.85091 
L 209.723844 251.451567 
L 209.95574 251.177631 
L 210.187636 252.328344 
L 210.419532 252.360388 
L 210.651429 252.884535 
L 211.115221 255.272417 
L 211.347117 255.181483 
L 211.579013 256.395896 
L 211.810909 256.52351 
L 212.042805 256.854796 
L 212.506597 257.78487 
L 212.738494 258.202116 
L 212.97039 257.390284 
L 213.202286 257.490485 
L 213.434182 255.411017 
L 213.666078 255.254881 
L 213.897974 255.576314 
L 214.12987 256.264003 
L 214.361766 256.031253 
L 214.593662 254.042597 
L 214.825558 254.96031 
L 215.057455 254.541016 
L 215.521247 254.897115 
L 216.448831 256.062469 
L 216.680727 255.981174 
L 216.912623 256.938281 
L 217.144519 256.83975 
L 217.376416 257.006588 
L 217.608312 257.001821 
L 218.535896 254.938282 
L 218.767792 254.252184 
L 218.999688 256.09635 
L 219.231584 256.398571 
L 219.463481 255.386575 
L 219.695377 256.038808 
L 220.159169 255.852436 
L 220.391065 256.34477 
L 220.622961 257.326277 
L 220.854857 257.141493 
L 221.086753 257.783209 
L 221.318649 256.599569 
L 221.550545 256.274009 
L 221.782442 256.948556 
L 222.014338 256.197469 
L 222.246234 256.291249 
L 222.47813 256.145323 
L 222.710026 256.574751 
L 222.941922 256.056654 
L 223.173818 256.023864 
L 223.405714 256.267567 
L 223.63761 255.927549 
L 223.869506 256.229386 
L 224.101403 255.98207 
L 224.333299 256.346132 
L 224.565195 257.209883 
L 224.797091 257.558714 
L 225.028987 256.414194 
L 225.260883 256.739205 
L 225.492779 256.870545 
L 225.724675 256.778921 
L 225.956571 257.337417 
L 226.188468 258.246543 
L 226.420364 257.509535 
L 226.65226 257.983743 
L 226.884156 258.059616 
L 227.116052 258.433648 
L 227.347948 259.3894 
L 227.579844 258.831661 
L 228.043636 258.991973 
L 228.507429 257.563323 
L 228.739325 257.655934 
L 228.971221 257.472966 
L 229.435013 256.273481 
L 229.666909 257.233516 
L 229.898805 257.327382 
L 230.130701 256.738549 
L 230.594494 257.575613 
L 230.82639 257.326339 
L 231.058286 257.987411 
L 231.290182 257.801502 
L 231.753974 258.043545 
L 231.98587 257.009099 
L 232.217766 257.37756 
L 232.681558 257.717858 
L 232.913455 257.666577 
L 233.145351 258.051658 
L 233.377247 257.746193 
L 233.609143 258.031435 
L 233.841039 258.051797 
L 234.072935 258.326482 
L 234.536727 257.907422 
L 234.768623 258.086771 
L 235.000519 257.660912 
L 235.232416 257.666813 
L 235.464312 257.510505 
L 235.696208 257.101839 
L 236.16 258.21798 
L 236.391896 258.276257 
L 236.623792 258.562073 
L 236.855688 258.657912 
L 237.087584 258.564461 
L 237.319481 258.798088 
L 237.783273 258.741857 
L 238.015169 259.114096 
L 238.478961 258.318997 
L 238.942753 258.699685 
L 239.174649 258.773549 
L 239.638442 258.568293 
L 239.870338 258.814842 
L 240.33413 258.41183 
L 241.261714 257.726851 
L 241.49361 257.955324 
L 241.957403 257.977374 
L 242.189299 257.685828 
L 242.421195 258.161283 
L 242.653091 258.377604 
L 242.884987 258.43229 
L 243.116883 258.615098 
L 244.044468 258.493164 
L 244.276364 258.312802 
L 244.50826 258.444304 
L 244.740156 258.34829 
L 244.972052 258.435244 
L 245.203948 258.129585 
L 245.435844 258.055143 
L 245.899636 258.12417 
L 246.363429 257.791549 
L 246.595325 257.751226 
L 246.827221 257.911129 
L 247.059117 257.861529 
L 247.291013 257.938544 
L 247.522909 258.241027 
L 247.754805 258.347924 
L 247.986701 258.323724 
L 248.450494 258.569938 
L 248.68239 258.870144 
L 248.914286 258.985998 
L 249.146182 258.971797 
L 249.378078 258.665487 
L 250.305662 258.612982 
L 250.537558 257.964871 
L 250.769455 258.011235 
L 251.001351 257.802392 
L 251.465143 257.916738 
L 251.697039 259.15961 
L 252.160831 258.860966 
L 252.624623 258.902097 
L 252.856519 259.37635 
L 253.552208 259.638926 
L 253.784104 259.69206 
L 254.016 258.820553 
L 255.175481 259.404447 
L 255.639273 259.157487 
L 255.871169 259.280888 
L 256.334961 259.000836 
L 256.566857 259.218364 
L 256.798753 259.04807 
L 257.030649 259.056991 
L 257.262545 259.222226 
L 258.19013 259.001731 
L 258.653922 259.025533 
L 258.885818 258.829905 
L 259.117714 258.968708 
L 259.813403 258.480917 
L 260.509091 258.805441 
L 260.740987 258.833592 
L 261.204779 259.240006 
L 261.668571 258.987492 
L 261.900468 259.04137 
L 262.132364 259.279959 
L 262.36426 259.143944 
L 262.828052 259.099504 
L 263.059948 258.916732 
L 263.291844 258.92251 
L 263.755636 258.60736 
L 263.987532 258.953124 
L 264.219429 258.944394 
L 264.451325 258.783539 
L 264.683221 258.968156 
L 266.306494 258.901413 
L 266.53839 259.025169 
L 267.002182 258.85649 
L 267.465974 259.103636 
L 268.161662 258.980398 
L 268.393558 258.828752 
L 268.857351 258.783759 
L 269.089247 259.031086 
L 269.321143 259.104804 
L 269.784935 258.641913 
L 270.016831 258.390373 
L 270.248727 258.351808 
L 271.176312 258.812199 
L 271.408208 258.655327 
L 271.640104 258.658918 
L 272.799584 259.344171 
L 273.263377 258.98621 
L 273.959065 258.757686 
L 274.886649 258.526803 
L 275.118545 258.481185 
L 275.350442 258.673683 
L 275.814234 258.492847 
L 276.278026 257.957898 
L 276.741818 257.896441 
L 277.20561 257.68038 
L 277.669403 257.374647 
L 277.901299 257.457035 
L 278.596987 258.184878 
L 278.828883 258.26608 
L 279.060779 258.11636 
L 279.292675 258.143021 
L 279.524571 258.335851 
L 280.452156 258.406985 
L 280.684052 258.301357 
L 281.147844 258.577478 
L 281.37974 258.345277 
L 281.611636 258.47392 
L 281.843532 258.040175 
L 282.075429 257.985711 
L 282.307325 257.623243 
L 282.771117 257.334735 
L 283.003013 257.518846 
L 283.466805 256.908274 
L 283.698701 257.115104 
L 283.930597 256.878091 
L 284.162494 257.327948 
L 284.39439 257.239774 
L 284.626286 257.465978 
L 284.858182 256.781094 
L 285.090078 256.453538 
L 285.321974 256.536436 
L 285.55387 256.491844 
L 285.785766 256.843988 
L 286.017662 256.966095 
L 286.249558 256.891573 
L 286.481455 256.690419 
L 286.945247 256.636927 
L 287.409039 257.663183 
L 287.872831 257.531986 
L 288.104727 256.944606 
L 288.336623 256.758623 
L 289.728 256.552974 
L 289.959896 256.256909 
L 290.191792 256.237919 
L 290.655584 256.901317 
L 291.119377 257.154219 
L 291.351273 256.682475 
L 291.815065 256.413452 
L 292.046961 255.073659 
L 292.742649 254.919756 
L 293.206442 254.587892 
L 293.438338 254.279344 
L 293.670234 254.71986 
L 293.90213 254.476059 
L 294.134026 253.727572 
L 294.365922 255.039449 
L 294.597818 254.413016 
L 294.829714 254.820079 
L 295.06161 254.645936 
L 295.525403 254.833208 
L 295.757299 255.121002 
L 295.989195 254.476438 
L 296.221091 254.459933 
L 296.452987 255.050644 
L 296.684883 255.060253 
L 296.916779 255.25016 
L 297.148675 255.026956 
L 297.380571 254.972582 
L 297.612468 254.64896 
L 298.07626 254.610611 
L 298.308156 255.226864 
L 299.003844 253.766572 
L 299.23574 253.544039 
L 299.699532 253.78794 
L 300.163325 252.677408 
L 300.627117 252.563577 
L 300.859013 252.916576 
L 301.090909 252.976066 
L 301.322805 253.427286 
L 301.554701 252.72578 
L 302.018494 252.63486 
L 302.25039 253.017119 
L 302.714182 252.603699 
L 303.177974 251.439067 
L 303.40987 251.769396 
L 303.641766 251.832893 
L 303.873662 253.095504 
L 304.105558 253.378303 
L 304.337455 253.065453 
L 304.569351 252.017666 
L 305.033143 251.80704 
L 305.265039 252.192154 
L 305.496935 252.094223 
L 305.728831 251.620251 
L 305.960727 251.541649 
L 306.656416 248.980975 
L 306.888312 249.013288 
L 307.120208 249.20325 
L 307.584 248.008416 
L 307.815896 248.135086 
L 308.047792 247.680297 
L 308.279688 246.838558 
L 308.511584 246.987853 
L 308.743481 248.139164 
L 308.975377 248.085445 
L 309.207273 249.032802 
L 309.439169 248.83454 
L 309.902961 250.081413 
L 310.366753 250.647182 
L 310.598649 251.250948 
L 310.830545 250.769926 
L 311.062442 249.911659 
L 311.526234 249.095616 
L 311.75813 247.850858 
L 311.990026 247.481728 
L 312.453818 245.781098 
L 312.91761 245.537212 
L 313.149506 244.460422 
L 313.381403 242.587926 
L 313.613299 243.063298 
L 313.845195 242.966151 
L 314.308987 244.521796 
L 314.540883 244.964359 
L 314.772779 244.284317 
L 315.004675 243.955664 
L 315.236571 244.059437 
L 315.468468 244.438461 
L 315.700364 247.195671 
L 315.93226 246.699202 
L 316.396052 247.226197 
L 316.627948 246.827736 
L 316.859844 247.098083 
L 317.09174 248.589797 
L 317.323636 248.235474 
L 317.555532 247.151721 
L 317.787429 247.927332 
L 318.019325 246.76354 
L 318.251221 247.400803 
L 318.483117 246.336475 
L 318.715013 246.23428 
L 319.178805 242.95627 
L 319.410701 242.841258 
L 319.642597 242.437153 
L 319.874494 241.636748 
L 320.10639 241.654849 
L 320.338286 241.859321 
L 320.570182 239.56588 
L 320.802078 239.755997 
L 321.033974 238.689999 
L 321.26587 239.080054 
L 321.497766 238.860135 
L 321.961558 237.42073 
L 322.193455 238.383164 
L 322.425351 237.594912 
L 322.657247 235.30502 
L 322.889143 236.961093 
L 323.121039 235.307885 
L 323.352935 235.41097 
L 323.584831 235.389034 
L 323.816727 235.556397 
L 324.048623 235.265438 
L 324.280519 235.850397 
L 324.744312 233.695092 
L 324.976208 235.200934 
L 325.208104 235.040049 
L 325.44 236.672542 
L 325.671896 236.15185 
L 325.903792 236.120597 
L 326.367584 235.206103 
L 326.599481 235.470641 
L 327.063273 237.303251 
L 327.295169 238.179866 
L 327.758961 233.458146 
L 327.990857 233.997911 
L 328.454649 234.148402 
L 328.686545 235.260501 
L 328.918442 235.632805 
L 329.150338 233.255286 
L 329.61413 231.891036 
L 330.077922 233.822405 
L 330.309818 232.014963 
L 330.541714 231.855982 
L 331.005506 230.118302 
L 331.237403 226.424749 
L 331.701195 223.556795 
L 331.933091 223.268441 
L 332.164987 220.891563 
L 332.396883 220.024689 
L 332.628779 220.655921 
L 332.860675 222.303219 
L 333.092571 223.047918 
L 333.324468 222.658979 
L 333.556364 224.899553 
L 333.78826 229.041787 
L 334.020156 229.544197 
L 334.252052 228.118732 
L 334.483948 230.497142 
L 334.715844 231.141419 
L 334.94774 231.033247 
L 335.179636 230.682803 
L 335.411532 229.075187 
L 335.643429 229.298197 
L 335.875325 229.311513 
L 336.107221 228.841141 
L 336.339117 227.304675 
L 336.802909 226.219181 
L 337.034805 222.578319 
L 337.266701 222.562397 
L 337.498597 220.666121 
L 337.730494 221.669654 
L 337.96239 219.601543 
L 338.194286 218.737709 
L 338.426182 217.127951 
L 338.658078 217.256824 
L 338.889974 215.962625 
L 339.12187 215.683163 
L 339.353766 218.842373 
L 339.585662 215.569547 
L 339.817558 215.911934 
L 340.513247 211.421317 
L 340.745143 214.238526 
L 340.977039 214.402314 
L 341.440831 215.488014 
L 341.672727 213.558221 
L 341.904623 216.389093 
L 342.136519 215.81136 
L 342.368416 215.800383 
L 342.600312 215.021476 
L 342.832208 215.896579 
L 343.296 206.316582 
L 343.527896 205.560756 
L 343.991688 201.58903 
L 344.223584 197.743122 
L 344.455481 196.888525 
L 344.687377 195.361622 
L 345.151169 197.27553 
L 345.383065 196.904347 
L 345.614961 197.127797 
L 346.078753 200.366546 
L 346.310649 200.314411 
L 346.542545 204.300911 
L 346.774442 203.787096 
L 347.006338 201.761142 
L 347.238234 201.317355 
L 347.47013 200.03626 
L 347.702026 196.842343 
L 347.933922 201.219601 
L 348.397714 193.222476 
L 348.62961 192.704711 
L 349.093403 182.430268 
L 349.325299 176.868552 
L 349.557195 175.944092 
L 349.789091 168.866499 
L 350.020987 168.768338 
L 350.252883 160.003639 
L 350.716675 152.885148 
L 350.948571 145.737356 
L 351.180468 144.635467 
L 351.412364 142.304395 
L 351.64426 145.137112 
L 351.876156 138.473848 
L 352.339948 133.955958 
L 352.571844 136.562541 
L 352.80374 136.304725 
L 353.035636 138.476194 
L 353.499429 136.53991 
L 353.963221 130.291421 
L 354.195117 131.407453 
L 354.427013 133.967903 
L 355.122701 123.300672 
L 355.354597 118.095963 
L 355.586494 117.254303 
L 355.81839 115.10247 
L 356.050286 117.621403 
L 356.282182 117.612567 
L 356.514078 117.455295 
L 356.745974 117.058639 
L 357.209766 109.400632 
L 357.441662 111.482903 
L 357.673558 109.953671 
L 358.137351 105.672779 
L 358.369247 103.89543 
L 358.833039 94.223413 
L 359.064935 93.68926 
L 359.296831 98.808726 
L 359.528727 97.437908 
L 359.992519 92.953174 
L 360.224416 92.821351 
L 360.456312 91.818928 
L 360.688208 92.786113 
L 360.920104 92.693949 
L 361.152 91.76906 
L 361.383896 89.958071 
L 361.615792 86.44787 
L 361.847688 85.041339 
L 362.079584 82.882601 
L 362.311481 83.739657 
L 362.543377 85.523078 
L 362.775273 85.25585 
L 363.007169 82.999398 
L 363.239065 82.870818 
L 363.702857 78.578431 
L 363.934753 75.154619 
L 364.166649 75.532076 
L 364.398545 75.059744 
L 364.630442 72.914788 
L 364.862338 71.886637 
L 366.021818 59.644329 
L 366.48561 57.142118 
L 366.949403 58.713944 
L 367.181299 56.397594 
L 367.413195 55.572152 
L 367.645091 55.764965 
L 367.876987 54.216771 
L 368.340779 54.925199 
L 368.572675 56.004741 
L 368.804571 56.147785 
L 369.036468 55.533652 
L 369.268364 54.416764 
L 369.50026 54.422031 
L 369.732156 54.074853 
L 369.964052 54.170862 
L 370.427844 54.137193 
L 370.65974 54.464722 
L 371.355429 53.568 
L 371.587325 54.001884 
L 371.819221 54.199408 
L 372.051117 54.204741 
L 372.283013 54.029904 
L 372.746805 54.587814 
L 372.978701 54.501031 
L 373.210597 54.888138 
L 373.442494 54.900341 
L 373.67439 54.692165 
L 374.138182 54.881528 
L 374.370078 55.905502 
L 374.601974 55.933353 
L 374.83387 56.093664 
L 375.297662 55.978311 
L 375.993351 56.626912 
L 376.457143 56.278656 
L 376.689039 55.600644 
L 376.920935 55.830154 
L 377.152831 55.602249 
L 377.384727 55.614781 
L 377.616623 56.101449 
L 378.080416 55.935244 
L 378.544208 56.50651 
L 378.776104 56.724086 
L 379.239896 57.90014 
L 379.703688 58.36666 
L 379.935584 58.225531 
L 380.399377 58.480073 
L 380.631273 58.067278 
L 381.095065 58.528102 
L 381.558857 57.960596 
L 381.790753 58.014874 
L 382.022649 57.828546 
L 382.254545 57.879222 
L 382.486442 58.204113 
L 382.950234 59.516444 
L 383.18213 59.239451 
L 383.414026 59.445653 
L 383.877818 59.042717 
L 384.109714 59.327608 
L 384.805403 59.073287 
L 385.501091 58.313837 
L 385.732987 58.150427 
L 386.428675 58.369092 
L 386.660571 58.341369 
L 386.892468 58.194293 
L 387.124364 58.345532 
L 387.35626 58.322656 
L 388.283844 59.767131 
L 388.51574 59.913726 
L 388.747636 59.818255 
L 388.979532 60.053973 
L 389.211429 59.665337 
L 389.443325 60.050169 
L 389.675221 60.161727 
L 389.907117 59.960849 
L 390.139013 59.97969 
L 390.370909 59.839581 
L 390.602805 59.447916 
L 390.834701 59.377765 
L 391.066597 59.756232 
L 391.298494 59.587118 
L 391.53039 59.716685 
L 391.762286 59.412195 
L 391.994182 59.330815 
L 392.226078 59.073633 
L 392.457974 59.275527 
L 392.921766 58.816733 
L 393.153662 58.915481 
L 393.385558 58.734946 
L 393.617455 58.880611 
L 393.849351 59.284306 
L 394.313143 59.188565 
L 394.545039 59.451579 
L 394.776935 59.434644 
L 395.008831 59.580315 
L 395.240727 60.157394 
L 395.472623 59.958156 
L 395.704519 60.341617 
L 395.936416 60.48689 
L 396.400208 59.914653 
L 396.632104 59.829853 
L 396.864 59.437529 
L 397.095896 59.320452 
L 397.327792 58.577244 
L 397.559688 58.323523 
L 397.791584 58.296027 
L 398.255377 57.344464 
L 398.487273 57.128476 
L 398.487273 57.128476 
" clip-path="url(#p78c6b5c963)" style="fill: none; stroke: #1f77b4; stroke-width: 1.5; stroke-linecap: square"/>
   </g>
   <g id="patch_3">
    <path d="M 57.6 307.584 
L 57.6 41.472 
" style="fill: none; stroke: #000000; stroke-width: 0.8; stroke-linejoin: miter; stroke-linecap: square"/>
   </g>
   <g id="patch_4">
    <path d="M 414.72 307.584 
L 414.72 41.472 
" style="fill: none; stroke: #000000; stroke-width: 0.8; stroke-linejoin: miter; stroke-linecap: square"/>
   </g>
   <g id="patch_5">
    <path d="M 57.6 307.584 
L 414.72 307.584 
" style="fill: none; stroke: #000000; stroke-width: 0.8; stroke-linejoin: miter; stroke-linecap: square"/>
   </g>
   <g id="patch_6">
    <path d="M 57.6 41.472 
L 414.72 41.472 
" style="fill: none; stroke: #000000; stroke-width: 0.8; stroke-linejoin: miter; stroke-linecap: square"/>
   </g>
   <g id="text_16">
    <!-- episode learning curve -->
    <g transform="translate(167.59125 35.472) scale(0.12 -0.12)">
     <defs>
      <path id="DejaVuSans-6c" d="M 603 4863 
L 1178 4863 
L 1178 0 
L 603 0 
L 603 4863 
z
" transform="scale(0.015625)"/>
      <path id="DejaVuSans-67" d="M 2906 1791 
Q 2906 2416 2648 2759 
Q 2391 3103 1925 3103 
Q 1463 3103 1205 2759 
Q 947 2416 947 1791 
Q 947 1169 1205 825 
Q 1463 481 1925 481 
Q 2391 481 2648 825 
Q 2906 1169 2906 1791 
z
M 3481 434 
Q 3481 -459 3084 -895 
Q 2688 -1331 1869 -1331 
Q 1566 -1331 1297 -1286 
Q 1028 -1241 775 -1147 
L 775 -588 
Q 1028 -725 1275 -790 
Q 1522 -856 1778 -856 
Q 2344 -856 2625 -561 
Q 2906 -266 2906 331 
L 2906 616 
Q 2728 306 2450 153 
Q 2172 0 1784 0 
Q 1141 0 747 490 
Q 353 981 353 1791 
Q 353 2603 747 3093 
Q 1141 3584 1784 3584 
Q 2172 3584 2450 3431 
Q 2728 3278 2906 2969 
L 2906 3500 
L 3481 3500 
L 3481 434 
z
" transform="scale(0.015625)"/>
      <path id="DejaVuSans-63" d="M 3122 3366 
L 3122 2828 
Q 2878 2963 2633 3030 
Q 2388 3097 2138 3097 
Q 1578 3097 1268 2742 
Q 959 2388 959 1747 
Q 959 1106 1268 751 
Q 1578 397 2138 397 
Q 2388 397 2633 464 
Q 2878 531 3122 666 
L 3122 134 
Q 2881 22 2623 -34 
Q 2366 -91 2075 -91 
Q 1284 -91 818 406 
Q 353 903 353 1747 
Q 353 2603 823 3093 
Q 1294 3584 2113 3584 
Q 2378 3584 2631 3529 
Q 2884 3475 3122 3366 
z
" transform="scale(0.015625)"/>
      <path id="DejaVuSans-75" d="M 544 1381 
L 544 3500 
L 1119 3500 
L 1119 1403 
Q 1119 906 1312 657 
Q 1506 409 1894 409 
Q 2359 409 2629 706 
Q 2900 1003 2900 1516 
L 2900 3500 
L 3475 3500 
L 3475 0 
L 2900 0 
L 2900 538 
Q 2691 219 2414 64 
Q 2138 -91 1772 -91 
Q 1169 -91 856 284 
Q 544 659 544 1381 
z
M 1991 3584 
L 1991 3584 
z
" transform="scale(0.015625)"/>
      <path id="DejaVuSans-76" d="M 191 3500 
L 800 3500 
L 1894 563 
L 2988 3500 
L 3597 3500 
L 2284 0 
L 1503 0 
L 191 3500 
z
" transform="scale(0.015625)"/>
     </defs>
     <use xlink:href="#DejaVuSans-65"/>
     <use xlink:href="#DejaVuSans-70" x="61.523438"/>
     <use xlink:href="#DejaVuSans-69" x="125"/>
     <use xlink:href="#DejaVuSans-73" x="152.783203"/>
     <use xlink:href="#DejaVuSans-6f" x="204.882812"/>
     <use xlink:href="#DejaVuSans-64" x="266.064453"/>
     <use xlink:href="#DejaVuSans-65" x="329.541016"/>
     <use xlink:href="#DejaVuSans-20" x="391.064453"/>
     <use xlink:href="#DejaVuSans-6c" x="422.851562"/>
     <use xlink:href="#DejaVuSans-65" x="450.634766"/>
     <use xlink:href="#DejaVuSans-61" x="512.158203"/>
     <use xlink:href="#DejaVuSans-72" x="573.4375"/>
     <use xlink:href="#DejaVuSans-6e" x="612.800781"/>
     <use xlink:href="#DejaVuSans-69" x="676.179688"/>
     <use xlink:href="#DejaVuSans-6e" x="703.962891"/>
     <use xlink:href="#DejaVuSans-67" x="767.341797"/>
     <use xlink:href="#DejaVuSans-20" x="830.818359"/>
     <use xlink:href="#DejaVuSans-63" x="862.605469"/>
     <use xlink:href="#DejaVuSans-75" x="917.585938"/>
     <use xlink:href="#DejaVuSans-72" x="980.964844"/>
     <use xlink:href="#DejaVuSans-76" x="1022.078125"/>
     <use xlink:href="#DejaVuSans-65" x="1081.257812"/>
    </g>
   </g>
  </g>
 </g>
 <defs>
  <clipPath id="p78c6b5c963">
   <rect x="57.6" y="41.472" width="357.12" height="266.112"/>
  </clipPath>
 </defs>
</svg>
