<?xml version="1.0" encoding="utf-8" standalone="no"?>
<!DOCTYPE svg PUBLIC "-//W3C//DTD SVG 1.1//EN"
  "http://www.w3.org/Graphics/SVG/1.1/DTD/svg11.dtd">
<svg xmlns:xlink="http://www.w3.org/1999/xlink" width="460.8pt" height="345.6pt" viewBox="0 0 460.8 345.6" xmlns="http://www.w3.org/2000/svg" version="1.1">
 <metadata>
  <rdf:RDF xmlns:dc="http://purl.org/dc/elements/1.1/" xmlns:cc="http://creativecommons.org/ns#" xmlns:rdf="http://www.w3.org/1999/02/22-rdf-syntax-ns#">
   <cc:Work>
    <dc:type rdf:resource="http://purl.org/dc/dcmitype/StillImage"/>
    <dc:date>2023-08-19T13:24:00.775225</dc:date>
    <dc:format>image/svg+xml</dc:format>
    <dc:creator>
     <cc:Agent>
      <dc:title>Matplotlib v3.7.1, https://matplotlib.org/</dc:title>
     </cc:Agent>
    </dc:creator>
   </cc:Work>
  </rdf:RDF>
 </metadata>
 <defs>
  <style type="text/css">*{stroke-linejoin: round; stroke-linecap: butt}</style>
 </defs>
 <g id="figure_1">
  <g id="patch_1">
   <path d="M 0 345.6 
L 460.8 345.6 
L 460.8 0 
L 0 0 
z
" style="fill: #ffffff"/>
  </g>
  <g id="axes_1">
   <g id="patch_2">
    <path d="M 57.6 307.584 
L 414.72 307.584 
L 414.72 41.472 
L 57.6 41.472 
z
" style="fill: #ffffff"/>
   </g>
   <g id="matplotlib.axis_1">
    <g id="xtick_1">
     <g id="line2d_1">
      <defs>
       <path id="m8224779915" d="M 0 0 
L 0 3.5 
" style="stroke: #000000; stroke-width: 0.8"/>
      </defs>
      <g>
       <use xlink:href="#m8224779915" x="67.135401" y="307.584" style="stroke: #000000; stroke-width: 0.8"/>
      </g>
     </g>
     <g id="text_1">
      <!-- 0 -->
      <g transform="translate(63.954151 322.182437) scale(0.1 -0.1)">
       <defs>
        <path id="DejaVuSans-30" d="M 2034 4250 
Q 1547 4250 1301 3770 
Q 1056 3291 1056 2328 
Q 1056 1369 1301 889 
Q 1547 409 2034 409 
Q 2525 409 2770 889 
Q 3016 1369 3016 2328 
Q 3016 3291 2770 3770 
Q 2525 4250 2034 4250 
z
M 2034 4750 
Q 2819 4750 3233 4129 
Q 3647 3509 3647 2328 
Q 3647 1150 3233 529 
Q 2819 -91 2034 -91 
Q 1250 -91 836 529 
Q 422 1150 422 2328 
Q 422 3509 836 4129 
Q 1250 4750 2034 4750 
z
" transform="scale(0.015625)"/>
       </defs>
       <use xlink:href="#DejaVuSans-30"/>
      </g>
     </g>
    </g>
    <g id="xtick_2">
     <g id="line2d_2">
      <g>
       <use xlink:href="#m8224779915" x="133.445561" y="307.584" style="stroke: #000000; stroke-width: 0.8"/>
      </g>
     </g>
     <g id="text_2">
      <!-- 100000 -->
      <g transform="translate(114.358061 322.182437) scale(0.1 -0.1)">
       <defs>
        <path id="DejaVuSans-31" d="M 794 531 
L 1825 531 
L 1825 4091 
L 703 3866 
L 703 4441 
L 1819 4666 
L 2450 4666 
L 2450 531 
L 3481 531 
L 3481 0 
L 794 0 
L 794 531 
z
" transform="scale(0.015625)"/>
       </defs>
       <use xlink:href="#DejaVuSans-31"/>
       <use xlink:href="#DejaVuSans-30" x="63.623047"/>
       <use xlink:href="#DejaVuSans-30" x="127.246094"/>
       <use xlink:href="#DejaVuSans-30" x="190.869141"/>
       <use xlink:href="#DejaVuSans-30" x="254.492188"/>
       <use xlink:href="#DejaVuSans-30" x="318.115234"/>
      </g>
     </g>
    </g>
    <g id="xtick_3">
     <g id="line2d_3">
      <g>
       <use xlink:href="#m8224779915" x="199.755722" y="307.584" style="stroke: #000000; stroke-width: 0.8"/>
      </g>
     </g>
     <g id="text_3">
      <!-- 200000 -->
      <g transform="translate(180.668222 322.182437) scale(0.1 -0.1)">
       <defs>
        <path id="DejaVuSans-32" d="M 1228 531 
L 3431 531 
L 3431 0 
L 469 0 
L 469 531 
Q 828 903 1448 1529 
Q 2069 2156 2228 2338 
Q 2531 2678 2651 2914 
Q 2772 3150 2772 3378 
Q 2772 3750 2511 3984 
Q 2250 4219 1831 4219 
Q 1534 4219 1204 4116 
Q 875 4013 500 3803 
L 500 4441 
Q 881 4594 1212 4672 
Q 1544 4750 1819 4750 
Q 2544 4750 2975 4387 
Q 3406 4025 3406 3419 
Q 3406 3131 3298 2873 
Q 3191 2616 2906 2266 
Q 2828 2175 2409 1742 
Q 1991 1309 1228 531 
z
" transform="scale(0.015625)"/>
       </defs>
       <use xlink:href="#DejaVuSans-32"/>
       <use xlink:href="#DejaVuSans-30" x="63.623047"/>
       <use xlink:href="#DejaVuSans-30" x="127.246094"/>
       <use xlink:href="#DejaVuSans-30" x="190.869141"/>
       <use xlink:href="#DejaVuSans-30" x="254.492188"/>
       <use xlink:href="#DejaVuSans-30" x="318.115234"/>
      </g>
     </g>
    </g>
    <g id="xtick_4">
     <g id="line2d_4">
      <g>
       <use xlink:href="#m8224779915" x="266.065882" y="307.584" style="stroke: #000000; stroke-width: 0.8"/>
      </g>
     </g>
     <g id="text_4">
      <!-- 300000 -->
      <g transform="translate(246.978382 322.182437) scale(0.1 -0.1)">
       <defs>
        <path id="DejaVuSans-33" d="M 2597 2516 
Q 3050 2419 3304 2112 
Q 3559 1806 3559 1356 
Q 3559 666 3084 287 
Q 2609 -91 1734 -91 
Q 1441 -91 1130 -33 
Q 819 25 488 141 
L 488 750 
Q 750 597 1062 519 
Q 1375 441 1716 441 
Q 2309 441 2620 675 
Q 2931 909 2931 1356 
Q 2931 1769 2642 2001 
Q 2353 2234 1838 2234 
L 1294 2234 
L 1294 2753 
L 1863 2753 
Q 2328 2753 2575 2939 
Q 2822 3125 2822 3475 
Q 2822 3834 2567 4026 
Q 2313 4219 1838 4219 
Q 1578 4219 1281 4162 
Q 984 4106 628 3988 
L 628 4550 
Q 988 4650 1302 4700 
Q 1616 4750 1894 4750 
Q 2613 4750 3031 4423 
Q 3450 4097 3450 3541 
Q 3450 3153 3228 2886 
Q 3006 2619 2597 2516 
z
" transform="scale(0.015625)"/>
       </defs>
       <use xlink:href="#DejaVuSans-33"/>
       <use xlink:href="#DejaVuSans-30" x="63.623047"/>
       <use xlink:href="#DejaVuSans-30" x="127.246094"/>
       <use xlink:href="#DejaVuSans-30" x="190.869141"/>
       <use xlink:href="#DejaVuSans-30" x="254.492188"/>
       <use xlink:href="#DejaVuSans-30" x="318.115234"/>
      </g>
     </g>
    </g>
    <g id="xtick_5">
     <g id="line2d_5">
      <g>
       <use xlink:href="#m8224779915" x="332.376043" y="307.584" style="stroke: #000000; stroke-width: 0.8"/>
      </g>
     </g>
     <g id="text_5">
      <!-- 400000 -->
      <g transform="translate(313.288543 322.182437) scale(0.1 -0.1)">
       <defs>
        <path id="DejaVuSans-34" d="M 2419 4116 
L 825 1625 
L 2419 1625 
L 2419 4116 
z
M 2253 4666 
L 3047 4666 
L 3047 1625 
L 3713 1625 
L 3713 1100 
L 3047 1100 
L 3047 0 
L 2419 0 
L 2419 1100 
L 313 1100 
L 313 1709 
L 2253 4666 
z
" transform="scale(0.015625)"/>
       </defs>
       <use xlink:href="#DejaVuSans-34"/>
       <use xlink:href="#DejaVuSans-30" x="63.623047"/>
       <use xlink:href="#DejaVuSans-30" x="127.246094"/>
       <use xlink:href="#DejaVuSans-30" x="190.869141"/>
       <use xlink:href="#DejaVuSans-30" x="254.492188"/>
       <use xlink:href="#DejaVuSans-30" x="318.115234"/>
      </g>
     </g>
    </g>
    <g id="xtick_6">
     <g id="line2d_6">
      <g>
       <use xlink:href="#m8224779915" x="398.686203" y="307.584" style="stroke: #000000; stroke-width: 0.8"/>
      </g>
     </g>
     <g id="text_6">
      <!-- 500000 -->
      <g transform="translate(379.598703 322.182437) scale(0.1 -0.1)">
       <defs>
        <path id="DejaVuSans-35" d="M 691 4666 
L 3169 4666 
L 3169 4134 
L 1269 4134 
L 1269 2991 
Q 1406 3038 1543 3061 
Q 1681 3084 1819 3084 
Q 2600 3084 3056 2656 
Q 3513 2228 3513 1497 
Q 3513 744 3044 326 
Q 2575 -91 1722 -91 
Q 1428 -91 1123 -41 
Q 819 9 494 109 
L 494 744 
Q 775 591 1075 516 
Q 1375 441 1709 441 
Q 2250 441 2565 725 
Q 2881 1009 2881 1497 
Q 2881 1984 2565 2268 
Q 2250 2553 1709 2553 
Q 1456 2553 1204 2497 
Q 953 2441 691 2322 
L 691 4666 
z
" transform="scale(0.015625)"/>
       </defs>
       <use xlink:href="#DejaVuSans-35"/>
       <use xlink:href="#DejaVuSans-30" x="63.623047"/>
       <use xlink:href="#DejaVuSans-30" x="127.246094"/>
       <use xlink:href="#DejaVuSans-30" x="190.869141"/>
       <use xlink:href="#DejaVuSans-30" x="254.492188"/>
       <use xlink:href="#DejaVuSans-30" x="318.115234"/>
      </g>
     </g>
    </g>
    <g id="text_7">
     <!-- timesteps -->
     <g transform="translate(211.443594 335.860562) scale(0.1 -0.1)">
      <defs>
       <path id="DejaVuSans-74" d="M 1172 4494 
L 1172 3500 
L 2356 3500 
L 2356 3053 
L 1172 3053 
L 1172 1153 
Q 1172 725 1289 603 
Q 1406 481 1766 481 
L 2356 481 
L 2356 0 
L 1766 0 
Q 1100 0 847 248 
Q 594 497 594 1153 
L 594 3053 
L 172 3053 
L 172 3500 
L 594 3500 
L 594 4494 
L 1172 4494 
z
" transform="scale(0.015625)"/>
       <path id="DejaVuSans-69" d="M 603 3500 
L 1178 3500 
L 1178 0 
L 603 0 
L 603 3500 
z
M 603 4863 
L 1178 4863 
L 1178 4134 
L 603 4134 
L 603 4863 
z
" transform="scale(0.015625)"/>
       <path id="DejaVuSans-6d" d="M 3328 2828 
Q 3544 3216 3844 3400 
Q 4144 3584 4550 3584 
Q 5097 3584 5394 3201 
Q 5691 2819 5691 2113 
L 5691 0 
L 5113 0 
L 5113 2094 
Q 5113 2597 4934 2840 
Q 4756 3084 4391 3084 
Q 3944 3084 3684 2787 
Q 3425 2491 3425 1978 
L 3425 0 
L 2847 0 
L 2847 2094 
Q 2847 2600 2669 2842 
Q 2491 3084 2119 3084 
Q 1678 3084 1418 2786 
Q 1159 2488 1159 1978 
L 1159 0 
L 581 0 
L 581 3500 
L 1159 3500 
L 1159 2956 
Q 1356 3278 1631 3431 
Q 1906 3584 2284 3584 
Q 2666 3584 2933 3390 
Q 3200 3197 3328 2828 
z
" transform="scale(0.015625)"/>
       <path id="DejaVuSans-65" d="M 3597 1894 
L 3597 1613 
L 953 1613 
Q 991 1019 1311 708 
Q 1631 397 2203 397 
Q 2534 397 2845 478 
Q 3156 559 3463 722 
L 3463 178 
Q 3153 47 2828 -22 
Q 2503 -91 2169 -91 
Q 1331 -91 842 396 
Q 353 884 353 1716 
Q 353 2575 817 3079 
Q 1281 3584 2069 3584 
Q 2775 3584 3186 3129 
Q 3597 2675 3597 1894 
z
M 3022 2063 
Q 3016 2534 2758 2815 
Q 2500 3097 2075 3097 
Q 1594 3097 1305 2825 
Q 1016 2553 972 2059 
L 3022 2063 
z
" transform="scale(0.015625)"/>
       <path id="DejaVuSans-73" d="M 2834 3397 
L 2834 2853 
Q 2591 2978 2328 3040 
Q 2066 3103 1784 3103 
Q 1356 3103 1142 2972 
Q 928 2841 928 2578 
Q 928 2378 1081 2264 
Q 1234 2150 1697 2047 
L 1894 2003 
Q 2506 1872 2764 1633 
Q 3022 1394 3022 966 
Q 3022 478 2636 193 
Q 2250 -91 1575 -91 
Q 1294 -91 989 -36 
Q 684 19 347 128 
L 347 722 
Q 666 556 975 473 
Q 1284 391 1588 391 
Q 1994 391 2212 530 
Q 2431 669 2431 922 
Q 2431 1156 2273 1281 
Q 2116 1406 1581 1522 
L 1381 1569 
Q 847 1681 609 1914 
Q 372 2147 372 2553 
Q 372 3047 722 3315 
Q 1072 3584 1716 3584 
Q 2034 3584 2315 3537 
Q 2597 3491 2834 3397 
z
" transform="scale(0.015625)"/>
       <path id="DejaVuSans-70" d="M 1159 525 
L 1159 -1331 
L 581 -1331 
L 581 3500 
L 1159 3500 
L 1159 2969 
Q 1341 3281 1617 3432 
Q 1894 3584 2278 3584 
Q 2916 3584 3314 3078 
Q 3713 2572 3713 1747 
Q 3713 922 3314 415 
Q 2916 -91 2278 -91 
Q 1894 -91 1617 61 
Q 1341 213 1159 525 
z
M 3116 1747 
Q 3116 2381 2855 2742 
Q 2594 3103 2138 3103 
Q 1681 3103 1420 2742 
Q 1159 2381 1159 1747 
Q 1159 1113 1420 752 
Q 1681 391 2138 391 
Q 2594 391 2855 752 
Q 3116 1113 3116 1747 
z
" transform="scale(0.015625)"/>
      </defs>
      <use xlink:href="#DejaVuSans-74"/>
      <use xlink:href="#DejaVuSans-69" x="39.208984"/>
      <use xlink:href="#DejaVuSans-6d" x="66.992188"/>
      <use xlink:href="#DejaVuSans-65" x="164.404297"/>
      <use xlink:href="#DejaVuSans-73" x="225.927734"/>
      <use xlink:href="#DejaVuSans-74" x="278.027344"/>
      <use xlink:href="#DejaVuSans-65" x="317.236328"/>
      <use xlink:href="#DejaVuSans-70" x="378.759766"/>
      <use xlink:href="#DejaVuSans-73" x="442.236328"/>
     </g>
    </g>
   </g>
   <g id="matplotlib.axis_2">
    <g id="ytick_1">
     <g id="line2d_7">
      <defs>
       <path id="m6ba2767be6" d="M 0 0 
L -3.5 0 
" style="stroke: #000000; stroke-width: 0.8"/>
      </defs>
      <g>
       <use xlink:href="#m6ba2767be6" x="57.6" y="290.472335" style="stroke: #000000; stroke-width: 0.8"/>
      </g>
     </g>
     <g id="text_8">
      <!-- −100 -->
      <g transform="translate(23.132812 294.271554) scale(0.1 -0.1)">
       <defs>
        <path id="DejaVuSans-2212" d="M 678 2272 
L 4684 2272 
L 4684 1741 
L 678 1741 
L 678 2272 
z
" transform="scale(0.015625)"/>
       </defs>
       <use xlink:href="#DejaVuSans-2212"/>
       <use xlink:href="#DejaVuSans-31" x="83.789062"/>
       <use xlink:href="#DejaVuSans-30" x="147.412109"/>
       <use xlink:href="#DejaVuSans-30" x="211.035156"/>
      </g>
     </g>
    </g>
    <g id="ytick_2">
     <g id="line2d_8">
      <g>
       <use xlink:href="#m6ba2767be6" x="57.6" y="259.720018" style="stroke: #000000; stroke-width: 0.8"/>
      </g>
     </g>
     <g id="text_9">
      <!-- −50 -->
      <g transform="translate(29.495313 263.519237) scale(0.1 -0.1)">
       <use xlink:href="#DejaVuSans-2212"/>
       <use xlink:href="#DejaVuSans-35" x="83.789062"/>
       <use xlink:href="#DejaVuSans-30" x="147.412109"/>
      </g>
     </g>
    </g>
    <g id="ytick_3">
     <g id="line2d_9">
      <g>
       <use xlink:href="#m6ba2767be6" x="57.6" y="228.967701" style="stroke: #000000; stroke-width: 0.8"/>
      </g>
     </g>
     <g id="text_10">
      <!-- 0 -->
      <g transform="translate(44.2375 232.766919) scale(0.1 -0.1)">
       <use xlink:href="#DejaVuSans-30"/>
      </g>
     </g>
    </g>
    <g id="ytick_4">
     <g id="line2d_10">
      <g>
       <use xlink:href="#m6ba2767be6" x="57.6" y="198.215383" style="stroke: #000000; stroke-width: 0.8"/>
      </g>
     </g>
     <g id="text_11">
      <!-- 50 -->
      <g transform="translate(37.875 202.014602) scale(0.1 -0.1)">
       <use xlink:href="#DejaVuSans-35"/>
       <use xlink:href="#DejaVuSans-30" x="63.623047"/>
      </g>
     </g>
    </g>
    <g id="ytick_5">
     <g id="line2d_11">
      <g>
       <use xlink:href="#m6ba2767be6" x="57.6" y="167.463066" style="stroke: #000000; stroke-width: 0.8"/>
      </g>
     </g>
     <g id="text_12">
      <!-- 100 -->
      <g transform="translate(31.5125 171.262285) scale(0.1 -0.1)">
       <use xlink:href="#DejaVuSans-31"/>
       <use xlink:href="#DejaVuSans-30" x="63.623047"/>
       <use xlink:href="#DejaVuSans-30" x="127.246094"/>
      </g>
     </g>
    </g>
    <g id="ytick_6">
     <g id="line2d_12">
      <g>
       <use xlink:href="#m6ba2767be6" x="57.6" y="136.710749" style="stroke: #000000; stroke-width: 0.8"/>
      </g>
     </g>
     <g id="text_13">
      <!-- 150 -->
      <g transform="translate(31.5125 140.509968) scale(0.1 -0.1)">
       <use xlink:href="#DejaVuSans-31"/>
       <use xlink:href="#DejaVuSans-35" x="63.623047"/>
       <use xlink:href="#DejaVuSans-30" x="127.246094"/>
      </g>
     </g>
    </g>
    <g id="ytick_7">
     <g id="line2d_13">
      <g>
       <use xlink:href="#m6ba2767be6" x="57.6" y="105.958432" style="stroke: #000000; stroke-width: 0.8"/>
      </g>
     </g>
     <g id="text_14">
      <!-- 200 -->
      <g transform="translate(31.5125 109.75765) scale(0.1 -0.1)">
       <use xlink:href="#DejaVuSans-32"/>
       <use xlink:href="#DejaVuSans-30" x="63.623047"/>
       <use xlink:href="#DejaVuSans-30" x="127.246094"/>
      </g>
     </g>
    </g>
    <g id="ytick_8">
     <g id="line2d_14">
      <g>
       <use xlink:href="#m6ba2767be6" x="57.6" y="75.206114" style="stroke: #000000; stroke-width: 0.8"/>
      </g>
     </g>
     <g id="text_15">
      <!-- 250 -->
      <g transform="translate(31.5125 79.005333) scale(0.1 -0.1)">
       <use xlink:href="#DejaVuSans-32"/>
       <use xlink:href="#DejaVuSans-35" x="63.623047"/>
       <use xlink:href="#DejaVuSans-30" x="127.246094"/>
      </g>
     </g>
    </g>
    <g id="ytick_9">
     <g id="line2d_15">
      <g>
       <use xlink:href="#m6ba2767be6" x="57.6" y="44.453797" style="stroke: #000000; stroke-width: 0.8"/>
      </g>
     </g>
     <g id="text_16">
      <!-- 300 -->
      <g transform="translate(31.5125 48.253016) scale(0.1 -0.1)">
       <use xlink:href="#DejaVuSans-33"/>
       <use xlink:href="#DejaVuSans-30" x="63.623047"/>
       <use xlink:href="#DejaVuSans-30" x="127.246094"/>
      </g>
     </g>
    </g>
    <g id="text_17">
     <!-- SAC losses -->
     <g transform="translate(17.053125 201.548313) rotate(-90) scale(0.1 -0.1)">
      <defs>
       <path id="DejaVuSans-53" d="M 3425 4513 
L 3425 3897 
Q 3066 4069 2747 4153 
Q 2428 4238 2131 4238 
Q 1616 4238 1336 4038 
Q 1056 3838 1056 3469 
Q 1056 3159 1242 3001 
Q 1428 2844 1947 2747 
L 2328 2669 
Q 3034 2534 3370 2195 
Q 3706 1856 3706 1288 
Q 3706 609 3251 259 
Q 2797 -91 1919 -91 
Q 1588 -91 1214 -16 
Q 841 59 441 206 
L 441 856 
Q 825 641 1194 531 
Q 1563 422 1919 422 
Q 2459 422 2753 634 
Q 3047 847 3047 1241 
Q 3047 1584 2836 1778 
Q 2625 1972 2144 2069 
L 1759 2144 
Q 1053 2284 737 2584 
Q 422 2884 422 3419 
Q 422 4038 858 4394 
Q 1294 4750 2059 4750 
Q 2388 4750 2728 4690 
Q 3069 4631 3425 4513 
z
" transform="scale(0.015625)"/>
       <path id="DejaVuSans-41" d="M 2188 4044 
L 1331 1722 
L 3047 1722 
L 2188 4044 
z
M 1831 4666 
L 2547 4666 
L 4325 0 
L 3669 0 
L 3244 1197 
L 1141 1197 
L 716 0 
L 50 0 
L 1831 4666 
z
" transform="scale(0.015625)"/>
       <path id="DejaVuSans-43" d="M 4122 4306 
L 4122 3641 
Q 3803 3938 3442 4084 
Q 3081 4231 2675 4231 
Q 1875 4231 1450 3742 
Q 1025 3253 1025 2328 
Q 1025 1406 1450 917 
Q 1875 428 2675 428 
Q 3081 428 3442 575 
Q 3803 722 4122 1019 
L 4122 359 
Q 3791 134 3420 21 
Q 3050 -91 2638 -91 
Q 1578 -91 968 557 
Q 359 1206 359 2328 
Q 359 3453 968 4101 
Q 1578 4750 2638 4750 
Q 3056 4750 3426 4639 
Q 3797 4528 4122 4306 
z
" transform="scale(0.015625)"/>
       <path id="DejaVuSans-20" transform="scale(0.015625)"/>
       <path id="DejaVuSans-6c" d="M 603 4863 
L 1178 4863 
L 1178 0 
L 603 0 
L 603 4863 
z
" transform="scale(0.015625)"/>
       <path id="DejaVuSans-6f" d="M 1959 3097 
Q 1497 3097 1228 2736 
Q 959 2375 959 1747 
Q 959 1119 1226 758 
Q 1494 397 1959 397 
Q 2419 397 2687 759 
Q 2956 1122 2956 1747 
Q 2956 2369 2687 2733 
Q 2419 3097 1959 3097 
z
M 1959 3584 
Q 2709 3584 3137 3096 
Q 3566 2609 3566 1747 
Q 3566 888 3137 398 
Q 2709 -91 1959 -91 
Q 1206 -91 779 398 
Q 353 888 353 1747 
Q 353 2609 779 3096 
Q 1206 3584 1959 3584 
z
" transform="scale(0.015625)"/>
      </defs>
      <use xlink:href="#DejaVuSans-53"/>
      <use xlink:href="#DejaVuSans-41" x="65.351562"/>
      <use xlink:href="#DejaVuSans-43" x="132.009766"/>
      <use xlink:href="#DejaVuSans-20" x="201.833984"/>
      <use xlink:href="#DejaVuSans-6c" x="233.621094"/>
      <use xlink:href="#DejaVuSans-6f" x="261.404297"/>
      <use xlink:href="#DejaVuSans-73" x="322.585938"/>
      <use xlink:href="#DejaVuSans-73" x="374.685547"/>
      <use xlink:href="#DejaVuSans-65" x="426.785156"/>
      <use xlink:href="#DejaVuSans-73" x="488.308594"/>
     </g>
    </g>
   </g>
   <g id="line2d_16">
    <path d="M 73.832727 230.18471 
L 74.336684 230.22447 
L 75.331337 230.394981 
L 79.349733 231.025295 
L 79.641497 231.124343 
L 80.264813 231.214473 
L 81.882781 231.59716 
L 82.240856 231.681838 
L 82.718289 231.844263 
L 82.970267 231.790515 
L 83.11615 231.756099 
L 83.540535 232.010951 
L 84.482139 232.162871 
L 84.707594 232.289039 
L 85.01262 232.266885 
L 86.060321 232.547474 
L 86.139893 232.469728 
L 86.391872 232.593258 
L 86.51123 232.541335 
L 86.630588 232.673662 
L 86.869305 232.623576 
L 87.16107 232.927995 
L 87.346738 232.739656 
L 87.42631 232.885165 
L 87.718075 232.955179 
L 88.07615 233.048011 
L 88.248556 232.872537 
L 88.381176 233.090571 
L 88.527059 232.981189 
L 88.792299 233.201816 
L 88.951444 233.169856 
L 89.296257 233.396951 
L 89.375829 233.330007 
L 89.77369 233.421551 
L 90.065455 233.384974 
L 90.290909 233.595172 
L 90.476578 233.523657 
L 90.874439 233.726499 
L 91.232513 233.614371 
L 91.683422 234.054152 
L 91.816043 233.816889 
L 91.908877 234.021065 
L 92.359786 234.029149 
L 92.532193 233.976214 
L 92.704599 234.186016 
L 92.823957 234.139949 
L 92.96984 234.268976 
L 93.10246 234.116478 
L 93.367701 234.402625 
L 93.593155 234.291983 
L 93.765561 234.412955 
L 93.911444 234.261913 
L 94.01754 234.490998 
L 94.163422 234.393293 
L 94.534759 234.786565 
L 94.73369 234.370496 
L 94.853048 234.516076 
L 95.012193 234.428147 
L 95.264171 234.920438 
L 95.357005 234.740845 
L 95.51615 234.738916 
L 95.64877 234.949406 
L 95.754866 234.81624 
L 95.847701 234.894538 
L 95.967059 234.708812 
L 96.285348 235.125815 
L 96.338396 234.981641 
L 96.484278 235.018136 
L 96.696471 235.303332 
L 96.815829 235.076249 
L 96.948449 235.078295 
L 97.08107 235.329515 
L 97.200428 235.118046 
L 97.545241 235.456761 
L 97.691123 235.472857 
L 97.744171 235.320929 
L 97.876791 235.333957 
L 98.009412 235.484279 
L 98.208342 235.322517 
L 98.314439 235.69078 
L 98.380749 235.425134 
L 98.473583 235.500428 
L 98.606203 235.877739 
L 98.699037 235.576594 
L 98.858182 235.508899 
L 98.91123 235.676975 
L 99.123422 235.503602 
L 99.322353 235.80413 
L 99.454973 235.765873 
L 99.574332 236.010463 
L 99.667166 235.5936 
L 99.773262 235.928545 
L 99.866096 235.598082 
L 100.091551 235.972744 
L 100.197647 235.749211 
L 100.317005 235.87572 
L 100.40984 236.242406 
L 100.60877 235.968178 
L 100.940321 236.212068 
L 101.019893 236.10044 
L 101.152513 236.366067 
L 101.245348 236.305552 
L 101.39123 236.22257 
L 101.484064 236.346477 
L 101.576898 236.259573 
L 101.696257 236.416738 
L 101.762567 236.263405 
L 102.10738 236.460043 
L 102.200214 236.506021 
L 102.30631 236.394848 
L 102.399144 236.637209 
L 102.598075 236.327618 
L 102.677647 236.472337 
L 103.035722 236.513685 
L 103.234652 236.823717 
L 103.354011 236.737733 
L 103.539679 236.946028 
L 103.73861 236.782651 
L 103.857968 237.002586 
L 103.911016 236.879838 
L 104.030374 236.935033 
L 104.136471 236.731785 
L 104.202781 236.802728 
L 104.481283 237.203573 
L 104.693476 236.94265 
L 105.064813 237.20888 
L 105.117861 237.04055 
L 105.316791 237.339884 
L 105.422888 237.186331 
L 105.489198 237.168388 
L 105.794225 237.479367 
L 106.099251 237.280723 
L 106.377754 237.448819 
L 106.457326 237.36389 
L 106.576684 237.414435 
L 106.642995 237.639636 
L 106.749091 237.46244 
L 106.855187 237.597248 
L 106.934759 237.377348 
L 107.107166 237.914754 
L 107.306096 237.466658 
L 107.544813 237.814725 
L 107.611123 237.662813 
L 107.703957 237.416734 
L 107.863102 237.658324 
L 108.04877 237.736682 
L 108.141604 237.819118 
L 108.260963 237.695249 
L 108.327273 237.918394 
L 108.406845 237.871475 
L 108.605775 237.882856 
L 108.69861 238.103139 
L 108.857754 237.842958 
L 108.937326 238.100338 
L 109.043422 238.030537 
L 109.242353 238.197111 
L 109.414759 238.135978 
L 109.534118 238.445114 
L 109.61369 238.172857 
L 109.706524 238.228651 
L 109.81262 238.141121 
L 109.892193 238.232667 
L 110.011551 238.086842 
L 110.077861 238.281667 
L 110.183957 238.10327 
L 110.382888 238.449179 
L 110.449198 238.456647 
L 110.568556 238.178835 
L 110.648128 238.261711 
L 110.900107 238.423001 
L 111.006203 238.321173 
L 111.165348 238.541278 
L 111.44385 238.43478 
L 111.616257 238.649502 
L 111.695829 238.626287 
L 111.775401 238.821014 
L 111.868235 238.622244 
L 111.947807 238.864302 
L 112.014118 238.457378 
L 112.22631 238.629663 
L 112.478289 238.895175 
L 112.571123 238.66084 
L 112.677219 238.727725 
L 112.783316 238.984491 
L 112.849626 238.74577 
L 112.94246 238.777389 
L 113.048556 238.712474 
L 113.220963 238.915179 
L 113.393369 238.751344 
L 113.632086 238.987645 
L 113.764706 238.937154 
L 113.844278 239.184552 
L 113.937112 238.948776 
L 114.029947 239.24355 
L 114.109519 239.168765 
L 114.215615 239.162003 
L 114.374759 239.21636 
L 114.64 239.179133 
L 114.785882 239.348642 
L 114.83893 239.133248 
L 114.971551 239.313301 
L 115.064385 239.208825 
L 115.223529 239.416746 
L 115.409198 239.315136 
L 115.502032 239.350667 
L 115.594866 239.203712 
L 115.674439 239.533421 
L 115.780535 239.414871 
L 115.860107 239.558994 
L 115.952941 239.346218 
L 116.112086 239.572947 
L 116.218182 239.343483 
L 116.417112 239.567861 
L 116.509947 239.510409 
L 116.616043 239.737283 
L 116.748663 239.475775 
L 116.814973 239.607929 
L 116.974118 239.394489 
L 117.173048 239.747818 
L 117.385241 239.60328 
L 117.464813 239.717606 
L 117.570909 239.632947 
L 117.663743 239.828495 
L 117.822888 239.594455 
L 118.326845 239.937202 
L 118.61861 239.631347 
L 118.88385 240.047282 
L 118.976684 239.919133 
L 119.082781 240.185889 
L 119.175615 239.881868 
L 119.308235 240.312829 
L 119.387807 239.993657 
L 119.586738 240.17993 
L 119.692834 240.196653 
L 119.878503 239.738439 
L 120.064171 240.374202 
L 120.183529 240.211873 
L 120.342674 240.018968 
L 120.44877 240.202166 
L 120.528342 239.956378 
L 120.806845 240.53159 
L 120.912941 240.103715 
L 121.125134 240.625246 
L 121.350588 240.275259 
L 121.549519 240.37961 
L 121.668877 240.351607 
L 121.894332 240.688726 
L 122.000428 240.424067 
L 122.172834 240.519565 
L 122.371765 240.382083 
L 122.597219 240.663785 
L 122.703316 240.532735 
L 122.79615 240.874184 
L 122.92877 240.435722 
L 122.981818 240.797725 
L 123.101176 240.596052 
L 123.286845 240.950735 
L 123.565348 240.526382 
L 123.671444 240.848024 
L 123.883636 240.554292 
L 124.109091 241.021659 
L 124.374332 240.87023 
L 124.414118 240.99096 
L 124.666096 240.816192 
L 124.75893 240.976174 
L 124.971123 240.635992 
L 125.117005 240.681413 
L 125.20984 241.147669 
L 125.448556 240.880582 
L 125.594439 241.141274 
L 125.727059 241.005077 
L 125.780107 241.320849 
L 125.925989 241.350582 
L 126.071872 241.010472 
L 126.204492 241.126454 
L 126.416684 240.883735 
L 126.562567 241.588799 
L 126.681925 241.106022 
L 126.867594 241.297744 
L 127.026738 241.16372 
L 127.146096 241.447351 
L 127.411337 241.26298 
L 127.570481 241.407873 
L 127.676578 241.221367 
L 128.154011 241.794828 
L 128.405989 241.434195 
L 128.565134 241.678604 
L 128.657968 241.387607 
L 129.069091 241.594548 
L 129.493476 241.663791 
L 129.573048 241.931117 
L 129.771979 241.940021 
L 129.864813 241.595948 
L 129.997433 242.104095 
L 130.103529 241.745129 
L 130.978824 241.987137 
L 131.124706 242.44602 
L 131.230802 242.28148 
L 131.403209 242.50914 
L 131.535829 241.997055 
L 131.668449 242.022589 
L 131.814332 242.379699 
L 132.119358 242.025132 
L 132.251979 242.619252 
L 132.557005 242.347596 
L 132.71615 242.405061 
L 132.84877 242.573857 
L 133.007914 242.214269 
L 133.087487 242.576538 
L 133.312941 242.690244 
L 133.657754 242.328953 
L 133.76385 242.732591 
L 133.936257 242.509553 
L 134.188235 242.747138 
L 134.373904 242.569458 
L 134.493262 242.670738 
L 134.639144 242.944673 
L 134.970695 242.390554 
L 135.116578 242.765378 
L 135.288984 242.715603 
L 135.607273 243.270318 
L 135.806203 243.10326 
L 135.965348 243.187001 
L 136.164278 242.659 
L 136.24385 243.197782 
L 136.482567 243.646639 
L 136.774332 242.949819 
L 136.933476 243.834101 
L 137.079358 243.43772 
L 137.265027 243.693846 
L 137.437433 243.38889 
L 137.60984 243.847732 
L 137.74246 243.05454 
L 137.901604 243.645844 
L 138.047487 243.55928 
L 138.246417 243.777103 
L 138.564706 243.227903 
L 138.737112 243.738295 
L 138.936043 243.838104 
L 139.108449 243.593725 
L 139.44 243.841594 
L 139.758289 243.838183 
L 139.970481 244.148632 
L 140.15615 243.664119 
L 140.461176 244.428252 
L 140.699893 243.720341 
L 140.845775 244.773158 
L 141.018182 244.080635 
L 141.177326 243.966669 
L 141.323209 244.362391 
L 141.495615 244.089816 
L 141.681283 244.004391 
L 141.866952 244.128931 
L 142.039358 244.731389 
L 142.211765 244.289764 
L 142.423957 244.601283 
L 142.994225 244.562956 
L 143.378824 244.864027 
L 143.48492 244.519842 
L 144.068449 245.089595 
L 144.187807 244.38788 
L 144.346952 244.985404 
L 144.678503 244.763238 
L 144.917219 244.913023 
L 145.076364 245.30638 
L 145.275294 244.966231 
L 145.474225 245.424681 
L 145.646631 245.377519 
L 145.792513 245.809139 
L 145.978182 245.616057 
L 146.150588 245.193155 
L 146.654545 245.544023 
L 146.81369 246.043003 
L 147.039144 245.487948 
L 147.357433 245.915125 
L 147.543102 245.484343 
L 147.874652 245.882904 
L 148.020535 245.435965 
L 148.232727 246.10053 
L 148.44492 246.314732 
L 148.604064 245.963777 
L 148.816257 246.456167 
L 149.001925 246.110752 
L 149.22738 246.620263 
L 149.439572 246.515111 
L 149.638503 246.276301 
L 149.850695 246.35184 
L 150.036364 246.188177 
L 150.20877 247.039761 
L 150.566845 246.450033 
L 150.752513 246.687037 
L 151.256471 246.423194 
L 151.508449 246.863139 
L 151.667594 246.633738 
L 152.105241 247.172309 
L 152.237861 246.633468 
L 152.476578 247.042134 
L 152.914225 246.871818 
L 153.073369 247.483662 
L 153.285561 247.217666 
L 153.457968 247.544313 
L 153.683422 247.523242 
L 153.895615 247.64781 
L 154.12107 247.210259 
L 154.25369 247.773516 
L 154.465882 247.768623 
L 154.744385 247.562439 
L 154.890267 248.182421 
L 155.16877 247.256498 
L 155.354439 247.792796 
L 155.606417 247.704295 
L 155.778824 247.867271 
L 155.937968 247.4316 
L 156.375615 248.602128 
L 156.60107 247.825805 
L 156.853048 248.655676 
L 156.99893 247.669789 
L 157.44984 248.08265 
L 157.834439 248.037497 
L 158.033369 248.577258 
L 158.232299 248.525172 
L 158.471016 248.049339 
L 159.041283 249.176759 
L 159.240214 249.05476 
L 159.399358 249.210265 
L 159.598289 248.90113 
L 159.770695 249.480415 
L 160.009412 248.33366 
L 160.394011 249.235414 
L 160.672513 249.145702 
L 160.84492 248.882262 
L 161.096898 249.098193 
L 161.322353 249.464864 
L 161.813048 249.75503 
L 161.95893 249.495572 
L 162.144599 249.811966 
L 162.303743 249.306654 
L 162.54246 249.178497 
L 162.781176 249.459313 
L 163.019893 249.444333 
L 163.285134 250.277863 
L 163.550374 249.718725 
L 164.001283 249.808498 
L 164.279786 250.222368 
L 164.545027 250.858859 
L 164.704171 249.978132 
L 165.15508 250.935686 
L 165.380535 249.991397 
L 165.552941 250.736175 
L 165.778396 250.233264 
L 166.176257 250.580037 
L 166.414973 250.705928 
L 166.58738 250.461382 
L 166.826096 250.385182 
L 167.011765 251.166274 
L 167.263743 250.179329 
L 167.489198 251.21874 
L 167.688128 251.205855 
L 167.966631 251.550878 
L 168.152299 252.335858 
L 168.35123 251.223367 
L 168.536898 251.797054 
L 168.722567 250.862059 
L 169.00107 251.28831 
L 169.2 251.846205 
L 169.425455 251.292463 
L 169.597861 251.713602 
L 169.810053 251.873349 
L 169.955936 251.735185 
L 170.194652 252.392695 
L 170.420107 251.181177 
L 170.619037 251.217961 
L 170.76492 252.531758 
L 170.96385 252.570829 
L 171.096471 252.751622 
L 171.282139 251.291346 
L 171.428021 252.528431 
L 171.626952 252.309688 
L 171.81262 252.602698 
L 172.011551 251.7594 
L 172.210481 252.104765 
L 172.356364 251.962697 
L 172.555294 252.994065 
L 172.727701 252.575989 
L 172.900107 252.501618 
L 173.125561 253.235986 
L 173.324492 252.835569 
L 173.51016 253.176427 
L 173.669305 252.955822 
L 173.881497 253.289538 
L 174.02738 252.921694 
L 174.199786 253.458614 
L 174.385455 253.536984 
L 174.557861 253.064292 
L 174.743529 252.889546 
L 175.07508 253.793576 
L 175.300535 253.187647 
L 175.433155 252.35661 
L 175.618824 253.476654 
L 175.764706 253.339274 
L 175.950374 253.441001 
L 176.096257 253.061008 
L 176.268663 253.695227 
L 176.427807 253.147109 
L 176.746096 253.53674 
L 176.918503 253.140648 
L 177.090909 253.937183 
L 177.236791 253.48953 
L 177.42246 254.176826 
L 177.568342 253.889642 
L 177.767273 253.795195 
L 177.899893 254.603839 
L 178.231444 254.007739 
L 178.562995 254.014435 
L 178.735401 254.089654 
L 178.868021 253.843607 
L 179.080214 254.491477 
L 179.385241 253.416168 
L 179.531123 254.00729 
L 179.716791 254.012623 
L 179.849412 254.930791 
L 180.061604 254.297766 
L 180.393155 254.851998 
L 180.499251 254.870456 
L 180.711444 253.090593 
L 180.830802 255.080346 
L 181.042995 254.523376 
L 181.162353 254.931282 
L 181.40107 254.828712 
L 181.507166 254.633958 
L 181.719358 254.961799 
L 181.838717 254.292259 
L 182.024385 255.866246 
L 182.143743 255.502484 
L 182.475294 255.226813 
L 182.674225 254.411815 
L 182.793583 254.529208 
L 183.125134 256.024095 
L 183.337326 253.806433 
L 183.456684 254.205034 
L 183.668877 255.306388 
L 183.774973 254.90586 
L 184.000428 255.643689 
L 184.093262 254.935723 
L 184.424813 255.592133 
L 184.637005 255.025937 
L 184.769626 255.792622 
L 184.955294 255.018279 
L 185.101176 255.984704 
L 185.300107 256.224771 
L 185.406203 256.770708 
L 185.737754 254.502065 
L 185.949947 256.261086 
L 186.082567 255.594958 
L 186.281497 257.054492 
L 186.400856 255.6917 
L 186.613048 256.132058 
L 187.27615 255.252908 
L 187.355722 255.965829 
L 187.594439 256.181315 
L 187.687273 256.628978 
L 187.952513 255.706 
L 188.018824 255.965977 
L 188.337112 255.679558 
L 188.575829 256.615764 
L 188.681925 257.578233 
L 188.90738 257.286122 
L 189.000214 256.681838 
L 189.225668 257.613206 
L 189.331765 256.692959 
L 189.543957 257.053582 
L 189.676578 256.751696 
L 189.875508 257.396812 
L 190.008128 256.645837 
L 190.339679 257.491761 
L 190.525348 256.175651 
L 190.711016 256.367715 
L 190.830374 257.26513 
L 191.175187 257.386399 
L 191.360856 257.336596 
L 191.480214 257.716033 
L 191.705668 255.969273 
L 192.023957 257.670176 
L 192.130053 257.003086 
L 192.474866 257.86189 
L 192.793155 256.868848 
L 192.978824 257.836692 
L 193.111444 257.334808 
L 193.297112 257.275951 
L 193.628663 256.803376 
L 193.774545 257.756128 
L 193.946952 258.097586 
L 194.092834 257.267524 
L 194.291765 256.958177 
L 194.424385 257.006425 
L 194.623316 258.164951 
L 194.755936 257.435311 
L 194.954866 257.546784 
L 195.074225 257.912573 
L 195.273155 257.428127 
L 196.055615 258.362927 
L 196.254545 257.360424 
L 196.400428 257.706289 
L 196.572834 257.743261 
L 196.731979 257.410713 
L 196.904385 257.405526 
L 197.249198 257.905422 
L 197.39508 258.962911 
L 197.726631 257.939358 
L 197.899037 258.075818 
L 198.11123 257.658204 
L 198.24385 258.043173 
L 198.429519 259.391149 
L 198.588663 257.687508 
L 198.76107 259.401292 
L 198.89369 258.730797 
L 199.09262 258.577266 
L 199.225241 257.706648 
L 199.570053 259.448901 
L 199.901604 258.657225 
L 200.113797 259.080707 
L 200.233155 258.011494 
L 200.445348 258.08625 
L 200.551444 259.176818 
L 200.79016 259.561505 
L 200.869733 258.27351 
L 201.095187 258.906904 
L 201.227807 258.613149 
L 201.44 259.013408 
L 201.57262 258.404608 
L 201.784813 259.715326 
L 201.904171 258.564985 
L 202.116364 259.221874 
L 202.434652 258.030808 
L 202.593797 259.009462 
L 202.779465 258.245661 
L 202.93861 258.704911 
L 203.13754 258.873654 
L 203.482353 259.473323 
L 203.641497 259.338181 
L 203.840428 259.96429 
L 203.973048 258.633685 
L 204.211765 259.969238 
L 204.317861 258.913711 
L 204.543316 259.206495 
L 204.675936 258.362362 
L 204.888128 258.754783 
L 205.047273 259.318393 
L 205.232941 258.855625 
L 205.392086 260.035288 
L 205.604278 260.015913 
L 205.776684 259.300897 
L 206.121497 259.903121 
L 206.320428 259.256842 
L 206.453048 259.669868 
L 206.665241 259.033224 
L 206.811123 259.651936 
L 207.010053 258.740985 
L 207.169198 259.137047 
L 207.540535 259.161454 
L 207.726203 259.944161 
L 207.89861 259.98935 
L 208.057754 259.224202 
L 208.243422 259.437196 
L 208.402567 259.409975 
L 208.614759 259.707234 
L 208.773904 259.566984 
L 208.986096 259.126815 
L 209.118717 259.684618 
L 209.357433 260.171017 
L 209.715508 259.378545 
L 209.86139 259.526547 
L 210.060321 258.908725 
L 210.206203 259.121067 
L 210.57754 260.411767 
L 210.789733 259.377182 
L 210.948877 259.616381 
L 211.16107 259.18906 
L 211.333476 260.991235 
L 211.55893 260.632855 
L 211.704813 260.873422 
L 212.062888 259.400693 
L 212.328128 259.577819 
L 212.394439 260.110966 
L 212.659679 260.822064 
L 212.845348 259.627511 
L 213.031016 260.596327 
L 213.176898 260.486757 
L 213.614545 260.580202 
L 213.826738 260.077839 
L 213.97262 259.169298 
L 214.343957 261.014815 
L 214.55615 260.90031 
L 214.728556 260.230653 
L 214.980535 259.801286 
L 215.139679 260.394236 
L 215.378396 258.922969 
L 215.53754 260.200936 
L 215.736471 259.858398 
L 216.174118 261.142566 
L 216.359786 260.797475 
L 216.558717 260.121709 
L 216.717861 260.521183 
L 216.96984 260.09782 
L 217.115722 259.359513 
L 217.566631 261.029887 
L 218.01754 260.833677 
L 218.256257 261.173836 
L 218.680642 260.512603 
L 218.879572 260.861391 
L 219.091765 260.295906 
L 219.277433 260.522738 
L 219.476364 259.512364 
L 219.675294 261.747343 
L 219.900749 260.453117 
L 220.099679 260.460805 
L 220.311872 261.104374 
L 220.537326 261.251496 
L 221.041283 260.722016 
L 221.21369 261.372073 
L 221.465668 260.782558 
L 221.704385 261.064207 
L 222.168556 260.776664 
L 222.380749 260.975806 
L 222.645989 260.566371 
L 222.818396 261.252749 
L 223.149947 261.789765 
L 223.295829 261.23442 
L 223.746738 261.231844 
L 224.038503 260.950397 
L 224.224171 261.420175 
L 224.502674 260.755478 
L 224.728128 261.202784 
L 224.980107 261.424544 
L 225.271872 261.305166 
L 225.404492 262.137425 
L 225.709519 260.511146 
L 225.921711 261.04288 
L 226.120642 261.196179 
L 226.412406 260.585741 
L 226.717433 261.815688 
L 226.929626 261.204126 
L 227.181604 261.948665 
L 227.380535 261.641374 
L 227.73861 261.76516 
L 227.964064 261.387516 
L 228.176257 262.995222 
L 228.428235 260.780383 
L 228.759786 262.262222 
L 229.011765 261.45892 
L 229.515722 261.411515 
L 229.727914 260.752369 
L 230.046203 262.200536 
L 230.311444 261.454312 
L 230.536898 262.104808 
L 230.802139 262.374726 
L 231.06738 262.336614 
L 231.319358 261.183099 
L 231.624385 261.950021 
L 231.902888 261.352318 
L 232.18139 263.198689 
L 232.486417 261.709597 
L 232.738396 262.59219 
L 233.109733 262.426153 
L 233.374973 261.802646 
L 233.719786 262.181198 
L 233.945241 261.959516 
L 234.303316 262.083809 
L 234.52877 262.724328 
L 235.032727 262.354154 
L 235.271444 261.726079 
L 235.563209 263.105954 
L 235.987594 263.045314 
L 236.186524 262.142096 
L 236.531337 261.82512 
L 236.743529 263.023755 
L 237.048556 262.144428 
L 238.056471 262.344861 
L 238.454332 262.312148 
L 238.759358 262.672791 
L 239.130695 262.902284 
L 239.435722 261.85815 
L 239.992727 263.36817 
L 240.417112 262.407425 
L 240.642567 263.112226 
L 241.080214 262.610579 
L 241.531123 263.140561 
L 241.796364 263.921095 
L 242.565561 262.90257 
L 242.976684 263.467448 
L 243.414332 263.563631 
L 243.759144 262.274198 
L 244.130481 263.159816 
L 244.422246 262.979374 
L 244.859893 262.436312 
L 245.191444 263.913527 
L 245.801497 263.429164 
L 246.172834 263.148832 
L 246.570695 263.733799 
L 246.902246 262.640592 
L 247.180749 264.386312 
L 247.552086 263.970859 
L 247.936684 263.255237 
L 248.321283 263.706234 
L 248.652834 263.715637 
L 249.037433 264.952335 
L 249.488342 264.63214 
L 249.766845 264.659736 
L 250.151444 264.15007 
L 250.589091 264.312303 
L 250.920642 263.757827 
L 251.411337 265.264269 
L 251.769412 264.045194 
L 252.100963 266.17472 
L 252.657968 264.636271 
L 253.122139 264.853298 
L 253.546524 264.33779 
L 254.222888 265.540676 
L 254.488128 264.393881 
L 254.912513 265.970904 
L 255.522567 264.861072 
L 256.039786 266.17312 
L 256.994652 265.892332 
L 257.684278 265.940206 
L 258.851337 266.982043 
L 259.315508 266.582584 
L 260.084706 265.520579 
L 260.535615 266.647579 
L 261.238503 266.238403 
L 261.795508 266.793616 
L 262.445348 267.026082 
L 263.015615 266.38755 
L 263.652193 267.535919 
L 264.275508 266.811413 
L 264.832513 267.647191 
L 265.376257 267.720824 
L 265.893476 268.642882 
L 266.477005 267.26381 
L 266.927914 268.227743 
L 267.591016 268.420555 
L 268.254118 268.284547 
L 269.500749 268.51507 
L 270.044492 268.291424 
L 270.654545 268.166542 
L 272.219465 269.680525 
L 272.962139 269.184816 
L 273.346738 269.95589 
L 274.00984 269.433379 
L 275.19016 270.305974 
L 275.64107 269.473912 
L 276.595936 269.954356 
L 277.192727 269.806803 
L 277.617112 270.581448 
L 278.691337 270.068345 
L 279.778824 271.202195 
L 280.362353 269.824868 
L 280.720428 271.557736 
L 281.357005 271.743848 
L 281.768128 272.039705 
L 282.378182 272.29511 
L 282.974973 272.095362 
L 283.372834 271.588922 
L 284.115508 272.609676 
L 284.500107 272.341128 
L 285.11016 272.150944 
L 285.494759 272.53273 
L 286.197647 272.956663 
L 286.661818 273.913205 
L 287.232086 272.800639 
L 287.736043 272.292787 
L 288.346096 272.296048 
L 289.486631 273.451076 
L 289.844706 273.620646 
L 290.534332 272.173862 
L 291.170909 273.629421 
L 291.727914 273.701675 
L 292.165561 272.998303 
L 292.987807 274.34977 
L 294.194652 273.630322 
L 294.619037 274.14199 
L 295.388235 273.779565 
L 295.74631 274.063138 
L 296.46246 275.518557 
L 296.860321 275.513784 
L 297.602995 275.010263 
L 298.053904 275.812927 
L 298.756791 275.741292 
L 299.207701 275.433225 
L 299.963636 276.068111 
L 301.143957 275.165883 
L 301.913155 277.098367 
L 302.350802 276.041533 
L 303.106738 277.087973 
L 303.451551 276.134462 
L 304.287059 277.086781 
L 304.645134 276.068514 
L 305.241925 275.866894 
L 305.825455 276.974651 
L 306.342674 277.285918 
L 306.926203 276.816384 
L 308.040214 277.130524 
L 308.544171 276.952606 
L 309.101176 277.369697 
L 309.764278 277.211309 
L 310.705882 278.17947 
L 311.34246 277.10267 
L 311.660749 278.667136 
L 312.403422 278.695365 
L 312.814545 278.874748 
L 313.411337 279.256824 
L 313.835722 278.545808 
L 314.485561 278.046243 
L 315.254759 278.489551 
L 315.758717 279.807762 
L 316.355508 279.795022 
L 316.939037 279.249006 
L 317.615401 279.67415 
L 318.19893 278.647648 
L 319.007914 279.862598 
L 319.339465 279.768459 
L 320.135187 280.185508 
L 320.559572 280.074602 
L 321.302246 280.035556 
L 321.885775 279.843941 
L 322.495829 280.141056 
L 323.888342 281.088111 
L 324.471872 280.232212 
L 325.002353 281.229395 
L 325.745027 281.200044 
L 326.593797 282.115791 
L 327.084492 281.018306 
L 327.747594 280.978524 
L 328.543316 282.164076 
L 329.126845 282.020413 
L 329.962353 282.453346 
L 330.373476 281.421752 
L 331.24877 281.594898 
L 331.726203 281.808366 
L 332.429091 281.879349 
L 333.118717 283.152415 
L 333.927701 282.811308 
L 334.232727 281.865924 
L 335.267166 283.007123 
L 335.757861 282.494644 
L 336.500535 283.209972 
L 337.309519 282.016443 
L 338.145027 283.652543 
L 338.529626 283.580637 
L 339.391658 283.613934 
L 340.359786 284.44296 
L 340.784171 284.184524 
L 342.587807 283.595127 
L 343.502888 285.049034 
L 343.953797 285.188437 
L 344.855615 284.292066 
L 345.505455 284.861431 
L 346.287914 285.34103 
L 347.11016 284.708068 
L 347.706952 284.686934 
L 348.60877 284.855331 
L 349.25861 285.81567 
L 350.505241 286.518028 
L 351.327487 286.178235 
L 352.017112 286.405781 
L 352.560856 285.040837 
L 353.223957 285.9928 
L 353.834011 286.248594 
L 354.616471 286.741458 
L 355.359144 287.53553 
L 356.128342 287.407258 
L 356.857754 287.730327 
L 357.428021 287.191256 
L 358.939893 288.27433 
L 359.695829 287.10568 
L 360.504813 288.020521 
L 360.915936 287.810272 
L 361.870802 288.532925 
L 362.348235 288.52981 
L 363.037861 287.759256 
L 363.807059 289.447809 
L 364.655829 288.690732 
L 365.080214 288.560254 
L 365.915722 288.873136 
L 366.777754 289.324632 
L 367.361283 290.068528 
L 367.984599 288.797142 
L 368.674225 289.276572 
L 369.324064 289.579582 
L 370.026952 289.651709 
L 371.207273 290.546448 
L 372.056043 291.525749 
L 372.586524 291.468407 
L 373.262888 291.22403 
L 374.018824 291.732014 
L 374.814545 291.009088 
L 375.318503 290.064286 
L 376.260107 290.336982 
L 376.80385 291.603587 
L 377.440428 290.601734 
L 378.315722 292.054454 
L 379.204278 291.419653 
L 379.615401 291.723169 
L 380.570267 292.159818 
L 381.299679 291.34722 
L 382.108663 292.680044 
L 382.599358 292.379119 
L 383.275722 292.274975 
L 384.164278 293.005394 
L 384.615187 292.698425 
L 385.517005 292.61306 
L 387.055401 293.871767 
L 387.678717 293.450955 
L 388.487701 294.178906 
L 388.951872 294.898884 
L 389.628235 293.993447 
L 390.211765 294.011949 
L 390.90139 293.511041 
L 391.789947 292.64968 
L 392.545882 294.269657 
L 393.04984 293.997947 
L 393.739465 293.815139 
L 394.362781 294.678025 
L 395.025882 295.308749 
L 395.72877 293.370691 
L 396.564278 295.134285 
L 397.280428 292.981693 
L 397.797647 294.22225 
L 398.487273 295.488 
L 398.487273 295.488 
" clip-path="url(#p9d5d95c2fb)" style="fill: none; stroke: #1f77b4; stroke-width: 1.5; stroke-linecap: square"/>
   </g>
   <g id="line2d_17">
    <path d="M 73.832727 224.241346 
L 73.952086 224.052205 
L 74.17754 224.371225 
L 74.336684 224.312312 
L 74.469305 224.750712 
L 74.721283 224.586651 
L 74.999786 224.832307 
L 75.079358 224.877127 
L 75.238503 224.685834 
L 75.517005 225.023223 
L 75.861818 225.03359 
L 76.511658 225.336285 
L 76.644278 225.262458 
L 76.79016 225.365196 
L 76.896257 225.264439 
L 77.37369 225.710515 
L 77.57262 225.65891 
L 77.771551 225.631445 
L 77.930695 225.488417 
L 78.036791 225.757224 
L 78.15615 225.68316 
L 78.474439 225.82577 
L 78.633583 225.691234 
L 78.766203 225.898459 
L 78.925348 225.86475 
L 79.031444 225.61348 
L 79.190588 225.800961 
L 79.349733 225.72724 
L 79.429305 226.030084 
L 79.641497 225.857104 
L 79.933262 226.069955 
L 80.105668 225.884484 
L 80.410695 226.069593 
L 80.874866 225.95319 
L 81.034011 225.972665 
L 81.166631 225.8098 
L 81.339037 226.071693 
L 81.445134 225.956088 
L 81.697112 226.317257 
L 81.975615 226.036751 
L 82.161283 225.888211 
L 82.240856 226.207063 
L 82.572406 226.034996 
L 82.718289 226.045387 
L 82.824385 226.266189 
L 82.970267 226.267987 
L 83.11615 225.894411 
L 83.262032 226.22646 
L 83.686417 225.965938 
L 83.819037 225.745744 
L 84.137326 225.863216 
L 84.482139 226.347435 
L 84.853476 225.295541 
L 85.264599 226.2055 
L 85.582888 225.635961 
L 85.688984 225.930592 
L 85.86139 225.795282 
L 86.060321 225.906903 
L 86.139893 225.7228 
L 86.259251 225.091724 
L 86.51123 225.83822 
L 86.630588 224.904585 
L 86.776471 225.024324 
L 86.869305 225.446555 
L 87.001925 225.140209 
L 87.16107 225.225283 
L 87.42631 224.936358 
L 87.625241 224.697591 
L 87.718075 225.456996 
L 87.877219 225.66768 
L 88.07615 224.972393 
L 88.248556 225.620546 
L 88.381176 225.158169 
L 88.527059 225.513118 
L 88.672941 225.096532 
L 88.792299 225.210781 
L 89.296257 224.337071 
L 89.375829 225.124175 
L 89.561497 223.945247 
L 89.77369 224.94212 
L 89.932834 225.446584 
L 90.065455 223.894067 
L 90.171551 224.765368 
L 90.290909 223.336746 
L 90.476578 224.782753 
L 90.648984 224.597143 
L 90.728556 223.754838 
L 90.874439 224.762591 
L 91.007059 223.512849 
L 91.126417 224.893779 
L 91.232513 223.893806 
L 91.391658 223.794665 
L 91.683422 224.128943 
L 91.816043 223.81352 
L 91.908877 224.03362 
L 92.068021 222.83746 
L 92.280214 222.781138 
L 92.532193 223.401564 
L 92.704599 224.864622 
L 92.96984 221.7869 
L 93.10246 225.045537 
L 93.221818 222.789587 
L 93.487059 222.651316 
L 93.593155 224.035384 
L 93.765561 223.274132 
L 93.911444 223.773108 
L 94.163422 222.550091 
L 94.282781 221.842717 
L 94.640856 224.234542 
L 94.73369 223.092434 
L 94.853048 224.23987 
L 95.264171 220.566652 
L 95.357005 222.074283 
L 95.64877 222.136502 
L 95.754866 223.345898 
L 95.847701 222.123409 
L 95.967059 223.828212 
L 96.099679 223.655039 
L 96.338396 221.604219 
L 96.484278 222.796316 
L 96.56385 222.646979 
L 96.696471 221.246017 
L 96.815829 224.117594 
L 96.948449 221.509242 
L 97.200428 223.565079 
L 97.41262 220.035146 
L 97.545241 220.448594 
L 97.691123 220.13656 
L 97.744171 223.447277 
L 98.009412 222.480451 
L 98.102246 220.768722 
L 98.208342 221.780946 
L 98.473583 218.892957 
L 98.699037 221.257364 
L 98.858182 221.728569 
L 98.91123 222.815116 
L 99.123422 221.214133 
L 99.189733 219.639038 
L 99.322353 220.093774 
L 99.454973 221.970388 
L 99.574332 220.383081 
L 99.667166 221.480085 
L 99.773262 219.526421 
L 99.866096 222.619018 
L 99.985455 221.205924 
L 100.091551 218.254399 
L 100.197647 219.329467 
L 100.317005 223.094846 
L 100.40984 217.709078 
L 100.515936 222.399395 
L 100.60877 220.350416 
L 100.714866 220.911237 
L 100.820963 220.311046 
L 100.940321 220.962239 
L 101.019893 220.783466 
L 101.152513 219.210524 
L 101.245348 219.941661 
L 101.39123 217.854273 
L 101.484064 222.361789 
L 101.576898 221.49759 
L 101.921711 220.111059 
L 102.10738 217.330126 
L 102.30631 222.125757 
L 102.491979 218.110844 
L 102.598075 222.016196 
L 102.677647 220.487849 
L 102.916364 219.584043 
L 103.035722 223.034714 
L 103.128556 221.06225 
L 103.234652 215.382974 
L 103.354011 222.280967 
L 103.433583 218.444698 
L 103.539679 218.750361 
L 103.632513 220.08218 
L 103.73861 217.048903 
L 103.857968 217.328363 
L 103.911016 218.955053 
L 104.030374 218.16094 
L 104.136471 222.358695 
L 104.202781 218.604453 
L 104.308877 219.094868 
L 104.414973 221.234169 
L 104.481283 218.134637 
L 104.58738 221.532398 
L 104.693476 221.310474 
L 104.932193 214.91413 
L 105.316791 220.763211 
L 105.422888 221.536777 
L 105.489198 219.034877 
L 105.714652 222.390818 
L 105.900321 217.992076 
L 105.953369 221.417709 
L 106.099251 219.81119 
L 106.245134 213.282693 
L 106.457326 221.25227 
L 106.576684 218.215281 
L 106.642995 218.250408 
L 106.749091 219.917362 
L 106.855187 218.116973 
L 106.934759 220.302126 
L 107.040856 215.667722 
L 107.107166 217.885859 
L 107.213262 215.027933 
L 107.306096 218.530504 
L 107.544813 216.819651 
L 107.611123 215.689574 
L 107.703957 220.740883 
L 107.757005 217.601516 
L 107.863102 217.68471 
L 107.942674 217.52522 
L 108.04877 216.94271 
L 108.141604 214.749322 
L 108.260963 214.700558 
L 108.327273 214.98785 
L 108.406845 213.783242 
L 108.605775 219.655989 
L 108.69861 216.382661 
L 108.778182 217.000347 
L 108.937326 215.303956 
L 109.149519 219.879136 
L 109.242353 216.627221 
L 109.361711 216.54348 
L 109.414759 215.892875 
L 109.534118 211.70492 
L 109.61369 218.308556 
L 109.892193 213.969438 
L 110.011551 217.747289 
L 110.077861 214.773039 
L 110.183957 219.266871 
L 110.263529 214.054015 
L 110.449198 221.169675 
L 110.568556 216.251287 
L 110.648128 218.840231 
L 110.727701 218.291147 
L 110.820535 217.221156 
L 110.900107 212.628263 
L 111.24492 219.366283 
L 111.364278 218.058342 
L 111.51016 214.547148 
L 111.616257 219.00752 
L 111.695829 213.433374 
L 111.775401 215.157664 
L 111.868235 215.475884 
L 111.947807 211.83835 
L 112.014118 218.212038 
L 112.146738 214.629545 
L 112.22631 217.991243 
L 112.332406 212.528692 
L 112.411979 218.288136 
L 112.478289 212.832523 
L 112.677219 216.686609 
L 112.783316 215.284779 
L 112.849626 216.983797 
L 112.94246 215.738605 
L 113.220963 218.086619 
L 113.287273 215.401521 
L 113.393369 216.508412 
L 113.472941 214.087456 
L 113.632086 218.002328 
L 113.764706 216.819037 
L 113.844278 216.880506 
L 113.937112 218.526569 
L 114.029947 214.350776 
L 114.109519 217.774718 
L 114.215615 211.132292 
L 114.295187 215.209224 
L 114.374759 214.060675 
L 114.454332 211.122328 
L 114.64 217.36885 
L 114.785882 212.23008 
L 114.83893 214.113888 
L 114.971551 211.181057 
L 115.143957 218.855662 
L 115.223529 210.779304 
L 115.409198 213.863872 
L 115.502032 210.375033 
L 115.594866 218.788255 
L 115.674439 213.101256 
L 115.860107 214.736236 
L 115.952941 214.417609 
L 116.218182 211.510019 
L 116.417112 217.49781 
L 116.748663 213.854321 
L 116.814973 214.651881 
L 117.080214 221.645437 
L 117.173048 213.583053 
L 117.31893 213.858959 
L 117.464813 216.836808 
L 117.570909 213.855062 
L 117.663743 214.532319 
L 117.756578 217.737119 
L 117.822888 217.639867 
L 117.942246 213.688682 
L 118.03508 216.001942 
L 118.127914 212.677649 
L 118.234011 216.470603 
L 118.326845 211.011304 
L 118.446203 213.84251 
L 118.512513 212.845438 
L 118.711444 216.123896 
L 118.804278 215.274656 
L 118.88385 216.810198 
L 118.976684 214.322229 
L 119.082781 216.231697 
L 119.308235 209.25349 
L 119.387807 210.821594 
L 119.480642 212.117431 
L 119.586738 211.36833 
L 119.692834 202.76157 
L 119.759144 211.066286 
L 119.878503 210.93885 
L 119.958075 214.41171 
L 120.064171 213.453541 
L 120.183529 215.008856 
L 120.44877 211.313454 
L 120.528342 214.976171 
L 120.727273 211.820867 
L 120.806845 212.961614 
L 120.912941 218.153191 
L 121.072086 216.217457 
L 121.125134 211.760069 
L 121.257754 219.051324 
L 121.456684 209.319313 
L 121.549519 210.014861 
L 121.668877 214.096646 
L 121.788235 213.353638 
L 121.894332 216.237673 
L 122.000428 211.372742 
L 122.08 215.978372 
L 122.172834 213.521051 
L 122.265668 218.744479 
L 122.477861 213.19384 
L 122.597219 218.660764 
L 122.79615 210.373792 
L 122.92877 216.161873 
L 122.981818 212.097636 
L 123.101176 216.096116 
L 123.286845 209.750053 
L 123.445989 219.782572 
L 123.671444 211.512576 
L 123.883636 214.566104 
L 123.949947 214.466937 
L 124.241711 208.489673 
L 124.374332 216.225816 
L 124.414118 210.089808 
L 124.586524 215.559761 
L 124.666096 208.587402 
L 124.851765 218.723835 
L 124.971123 212.753238 
L 125.117005 215.554822 
L 125.20984 214.684909 
L 125.34246 215.310143 
L 125.448556 217.913114 
L 125.594439 214.603782 
L 125.727059 216.827133 
L 125.780107 209.556368 
L 125.925989 212.216852 
L 126.071872 218.193217 
L 126.204492 209.958343 
L 126.297326 214.269326 
L 126.416684 211.091573 
L 126.562567 202.235495 
L 126.681925 216.259546 
L 126.774759 213.49287 
L 126.867594 217.764901 
L 127.026738 211.793269 
L 127.146096 216.000456 
L 127.291979 208.357543 
L 127.411337 218.037237 
L 127.570481 206.842667 
L 127.676578 212.579789 
L 127.795936 212.96971 
L 127.88877 204.675064 
L 128.034652 206.913631 
L 128.154011 214.496109 
L 128.313155 210.151007 
L 128.565134 215.171397 
L 128.657968 212.457846 
L 128.764064 214.391379 
L 128.923209 215.225259 
L 129.069091 218.694146 
L 129.294545 208.94123 
L 129.573048 219.016315 
L 129.771979 212.880803 
L 129.864813 217.707193 
L 129.997433 211.864985 
L 130.103529 212.607987 
L 130.275936 209.064611 
L 130.382032 218.375803 
L 130.527914 210.837362 
L 130.634011 215.534681 
L 130.753369 214.189732 
L 130.885989 207.269305 
L 130.978824 215.586151 
L 131.124706 209.852189 
L 131.230802 215.503513 
L 131.403209 207.028346 
L 131.535829 216.997318 
L 131.668449 213.035285 
L 131.814332 213.308614 
L 131.93369 209.162659 
L 132.119358 214.004488 
L 132.251979 213.934464 
L 132.424385 218.016162 
L 132.557005 211.160878 
L 132.71615 216.875209 
L 132.84877 216.317458 
L 133.312941 206.896649 
L 133.657754 217.727456 
L 133.76385 206.568615 
L 133.936257 215.310438 
L 134.082139 213.716434 
L 134.188235 209.812523 
L 134.493262 217.559605 
L 134.639144 212.169544 
L 134.798289 216.563869 
L 134.970695 209.008874 
L 135.116578 209.484029 
L 135.288984 211.519974 
L 135.46139 209.032406 
L 135.607273 208.926529 
L 135.806203 215.812344 
L 135.965348 210.918528 
L 136.24385 214.846303 
L 136.628449 208.642569 
L 136.774332 213.312724 
L 136.933476 213.972356 
L 137.079358 206.469975 
L 137.265027 217.698494 
L 137.437433 208.231526 
L 137.60984 214.984938 
L 137.74246 212.648004 
L 137.901604 216.796341 
L 138.047487 217.484195 
L 138.246417 213.666625 
L 138.45861 218.984199 
L 138.564706 204.787624 
L 138.737112 215.813291 
L 138.936043 205.064137 
L 139.108449 212.708296 
L 139.294118 204.57611 
L 139.44 215.39709 
L 139.625668 210.429272 
L 139.758289 212.059913 
L 139.970481 217.846933 
L 140.315294 206.256045 
L 140.461176 208.294397 
L 140.699893 216.772372 
L 140.845775 210.518635 
L 141.018182 211.211575 
L 141.323209 208.667603 
L 141.495615 208.164774 
L 141.866952 217.115856 
L 142.039358 210.461486 
L 142.211765 211.17906 
L 142.423957 217.859794 
L 142.755508 200.636741 
L 142.994225 202.782175 
L 143.166631 213.39475 
L 143.378824 212.095309 
L 143.48492 209.42857 
L 143.736898 198.861137 
L 143.842995 215.96844 
L 144.068449 209.65249 
L 144.187807 213.138353 
L 144.346952 213.164111 
L 144.53262 195.285814 
L 144.678503 211.120484 
L 144.917219 194.094073 
L 145.275294 211.841378 
L 145.474225 203.031714 
L 145.646631 210.153706 
L 145.792513 210.553025 
L 145.978182 211.90702 
L 146.150588 211.782294 
L 146.322995 207.175238 
L 146.521925 213.802703 
L 146.654545 208.653997 
L 146.81369 208.211365 
L 147.039144 212.018109 
L 147.171765 202.996145 
L 147.357433 214.79673 
L 147.543102 212.465675 
L 147.715508 212.516571 
L 147.874652 211.92867 
L 148.232727 214.8573 
L 148.44492 213.116192 
L 148.604064 208.41374 
L 148.816257 218.859943 
L 149.001925 212.675929 
L 149.22738 211.044361 
L 149.439572 203.785604 
L 149.638503 206.487713 
L 149.850695 217.835689 
L 150.036364 209.416094 
L 150.20877 219.649412 
L 150.420963 210.506743 
L 150.566845 212.053889 
L 150.752513 211.432633 
L 150.911658 208.872568 
L 151.097326 196.323081 
L 151.256471 213.232558 
L 151.508449 210.805857 
L 151.667594 205.508299 
L 151.866524 217.253839 
L 152.105241 195.140813 
L 152.237861 216.758311 
L 152.675508 208.68626 
L 152.914225 212.3282 
L 153.073369 210.553165 
L 153.285561 209.603637 
L 153.683422 215.532552 
L 153.895615 212.284406 
L 154.12107 213.952418 
L 154.25369 214.079541 
L 154.465882 212.895025 
L 154.744385 213.312888 
L 154.890267 209.96971 
L 155.16877 210.114384 
L 155.606417 207.529576 
L 155.778824 208.668537 
L 155.937968 214.792809 
L 156.189947 208.061995 
L 156.375615 208.313843 
L 156.60107 210.832876 
L 156.99893 206.371338 
L 157.237647 207.094826 
L 157.44984 215.066204 
L 157.64877 207.38224 
L 157.834439 210.843163 
L 158.033369 210.209041 
L 158.232299 211.424911 
L 158.471016 203.12857 
L 158.855615 213.992253 
L 159.041283 213.757448 
L 159.240214 204.21011 
L 159.399358 213.764964 
L 159.598289 210.32952 
L 159.770695 213.592123 
L 160.181818 204.795772 
L 160.394011 182.517014 
L 160.672513 206.895377 
L 160.84492 204.644685 
L 161.096898 211.957975 
L 161.322353 206.391781 
L 161.56107 212.687564 
L 161.813048 210.439397 
L 162.303743 194.252241 
L 162.54246 206.033316 
L 162.781176 202.315186 
L 163.019893 200.92477 
L 163.285134 212.898238 
L 163.550374 213.735114 
L 163.789091 206.895846 
L 164.001283 208.756996 
L 164.279786 207.941118 
L 164.545027 203.962762 
L 164.969412 212.790822 
L 165.15508 198.757012 
L 165.380535 211.729686 
L 165.552941 192.132479 
L 165.778396 212.614611 
L 165.93754 212.420202 
L 166.176257 207.074398 
L 166.58738 215.230091 
L 166.826096 212.627753 
L 167.011765 204.092668 
L 167.263743 204.977548 
L 167.489198 211.396757 
L 167.688128 204.843532 
L 167.966631 211.307609 
L 168.152299 190.059504 
L 168.35123 198.760344 
L 168.536898 211.925882 
L 168.722567 199.553092 
L 169.00107 214.344654 
L 169.2 194.010742 
L 169.425455 212.085107 
L 169.597861 191.926789 
L 169.810053 206.9421 
L 169.955936 202.677555 
L 170.194652 205.781666 
L 170.420107 203.638168 
L 170.619037 195.569673 
L 170.76492 208.986728 
L 170.96385 195.473028 
L 171.096471 194.643514 
L 171.282139 207.105274 
L 171.428021 202.211932 
L 171.626952 199.371228 
L 171.81262 204.61418 
L 172.011551 199.657161 
L 172.210481 202.776276 
L 172.356364 193.512272 
L 172.555294 205.667349 
L 172.727701 203.846282 
L 172.900107 188.901527 
L 173.881497 217.038919 
L 174.02738 205.901375 
L 174.199786 206.332318 
L 174.385455 207.145962 
L 174.557861 213.534122 
L 174.743529 210.467474 
L 174.968984 194.058781 
L 175.07508 205.342792 
L 175.300535 196.18762 
L 175.433155 202.56889 
L 175.618824 197.208838 
L 175.764706 207.804723 
L 175.950374 206.593215 
L 176.268663 194.135366 
L 176.427807 195.309464 
L 176.613476 191.297041 
L 176.746096 202.541186 
L 176.918503 179.890388 
L 177.090909 206.658907 
L 177.236791 197.952234 
L 177.42246 205.383917 
L 177.568342 183.316642 
L 177.767273 207.672047 
L 177.899893 203.475317 
L 178.072299 183.433376 
L 178.231444 207.47195 
L 178.417112 184.98795 
L 178.735401 219.612213 
L 178.868021 211.992061 
L 179.080214 187.95107 
L 179.199572 205.660343 
L 179.385241 193.023063 
L 179.531123 207.370605 
L 179.849412 192.179551 
L 180.061604 199.913302 
L 180.180963 177.371543 
L 180.393155 173.26316 
L 180.499251 193.697797 
L 180.711444 200.641028 
L 180.830802 196.585993 
L 181.042995 199.237245 
L 181.162353 193.636289 
L 181.40107 201.914357 
L 181.507166 184.998175 
L 182.024385 203.343146 
L 182.143743 193.801837 
L 182.355936 193.280724 
L 182.475294 203.05191 
L 182.674225 204.585335 
L 182.793583 195.659121 
L 183.005775 188.222532 
L 183.125134 196.159015 
L 183.337326 197.851338 
L 183.456684 189.314085 
L 183.668877 192.142265 
L 183.774973 197.958783 
L 184.000428 185.099738 
L 184.318717 206.654519 
L 184.424813 191.596224 
L 184.769626 195.705346 
L 184.955294 190.718037 
L 185.101176 195.993567 
L 185.300107 186.805972 
L 185.406203 209.380055 
L 185.631658 180.157496 
L 185.949947 193.576024 
L 186.082567 209.740903 
L 186.281497 192.756589 
L 186.400856 201.689087 
L 186.613048 195.726455 
L 186.732406 202.819515 
L 187.050695 208.021277 
L 187.27615 203.153435 
L 187.355722 180.376712 
L 187.594439 182.35079 
L 187.952513 206.251458 
L 188.018824 196.855095 
L 188.270802 183.086206 
L 188.337112 209.944906 
L 188.575829 188.481658 
L 188.681925 163.34161 
L 188.90738 215.047223 
L 189.000214 197.847253 
L 189.225668 199.2192 
L 189.331765 203.967675 
L 189.875508 171.405431 
L 190.008128 207.060799 
L 190.193797 190.358827 
L 190.339679 188.164449 
L 190.525348 200.602939 
L 191.042567 210.237928 
L 191.360856 189.559561 
L 191.480214 190.524404 
L 191.705668 188.993142 
L 191.811765 172.363231 
L 192.023957 171.690834 
L 192.130053 192.066792 
L 192.342246 200.673654 
L 192.474866 172.921396 
L 192.687059 213.074103 
L 192.978824 170.645473 
L 193.111444 185.894988 
L 193.297112 184.639593 
L 193.456257 185.140994 
L 193.628663 192.70108 
L 193.774545 192.934235 
L 193.946952 193.714051 
L 194.092834 192.147521 
L 194.291765 168.555657 
L 194.424385 193.147755 
L 194.623316 194.594863 
L 194.755936 190.215792 
L 194.954866 191.886124 
L 195.074225 198.335805 
L 195.405775 173.373352 
L 195.591444 204.516298 
L 195.737326 183.540199 
L 195.922995 190.07047 
L 196.055615 182.879636 
L 196.254545 185.075426 
L 196.400428 174.637226 
L 196.731979 213.77171 
L 196.904385 157.530198 
L 197.050267 191.686236 
L 197.249198 208.707674 
L 197.39508 207.407753 
L 197.580749 209.327064 
L 197.899037 187.427343 
L 198.11123 186.035812 
L 198.24385 198.613187 
L 198.429519 174.8911 
L 198.76107 192.283841 
L 198.89369 196.128741 
L 199.09262 182.263632 
L 199.225241 200.034397 
L 199.437433 188.10737 
L 199.570053 173.554752 
L 199.768984 194.226151 
L 199.901604 177.427866 
L 200.113797 184.264954 
L 200.233155 201.561383 
L 200.445348 183.894736 
L 200.551444 184.307881 
L 200.79016 174.490573 
L 200.869733 207.378543 
L 201.095187 199.94304 
L 201.227807 200.662688 
L 201.44 180.190587 
L 201.57262 189.389005 
L 201.904171 179.056098 
L 202.434652 205.016091 
L 202.593797 195.469176 
L 202.779465 170.986683 
L 203.13754 204.010081 
L 203.296684 183.110231 
L 203.641497 190.486274 
L 203.840428 189.610879 
L 203.973048 166.407682 
L 204.211765 173.067992 
L 204.543316 203.225488 
L 204.675936 176.612195 
L 204.888128 192.942764 
L 205.047273 193.4305 
L 205.232941 204.498563 
L 205.604278 176.987557 
L 205.776684 188.908209 
L 205.975615 183.530213 
L 206.121497 196.693431 
L 206.320428 196.370413 
L 206.453048 213.251252 
L 206.665241 174.838972 
L 206.811123 181.774019 
L 207.010053 183.461784 
L 207.169198 175.793431 
L 207.540535 193.30051 
L 207.726203 185.515703 
L 208.057754 181.863537 
L 208.243422 210.27072 
L 208.402567 165.360519 
L 208.773904 210.208607 
L 208.986096 181.228998 
L 209.118717 191.729414 
L 209.357433 185.880164 
L 209.516578 185.144813 
L 209.715508 205.718224 
L 209.86139 179.863463 
L 210.060321 205.853399 
L 210.206203 172.031139 
L 210.405134 207.291019 
L 210.789733 185.335026 
L 210.948877 192.660103 
L 211.16107 182.344201 
L 211.333476 189.075738 
L 211.55893 205.741825 
L 211.704813 164.870019 
L 212.062888 200.438991 
L 212.328128 185.658306 
L 212.394439 170.718938 
L 212.659679 187.113898 
L 212.845348 190.240944 
L 213.031016 214.172805 
L 213.176898 189.735874 
L 213.442139 187.63053 
L 213.614545 198.15433 
L 213.826738 203.724873 
L 213.97262 171.450582 
L 214.343957 198.762636 
L 214.55615 179.457324 
L 214.728556 205.859218 
L 215.139679 184.16089 
L 215.378396 192.679061 
L 215.53754 163.692538 
L 215.736471 163.919886 
L 216.174118 207.458286 
L 216.359786 195.396727 
L 216.558717 193.976781 
L 216.96984 169.837718 
L 217.115722 196.479085 
L 217.394225 171.87596 
L 217.566631 182.998969 
L 217.845134 185.788568 
L 218.01754 196.762095 
L 218.256257 187.735049 
L 218.468449 196.442034 
L 218.680642 180.450271 
L 218.879572 187.580575 
L 219.091765 184.624817 
L 219.277433 165.946913 
L 219.476364 194.444705 
L 219.675294 188.674826 
L 220.099679 208.282652 
L 220.311872 178.149576 
L 220.537326 181.179437 
L 220.749519 189.975247 
L 221.041283 174.922629 
L 221.21369 160.038734 
L 221.704385 187.933117 
L 221.903316 178.863722 
L 222.168556 211.918812 
L 222.380749 152.773917 
L 222.645989 171.977757 
L 222.818396 194.470274 
L 223.149947 178.776978 
L 223.587594 186.894687 
L 223.746738 208.260673 
L 224.224171 188.38344 
L 224.502674 188.333841 
L 224.728128 195.501591 
L 224.980107 197.043688 
L 225.271872 187.899116 
L 225.404492 171.92111 
L 225.709519 187.207644 
L 225.921711 179.242345 
L 226.120642 183.273777 
L 226.412406 200.097152 
L 226.717433 185.028591 
L 226.929626 204.443967 
L 227.181604 201.76082 
L 227.380535 207.841024 
L 227.964064 179.282212 
L 228.176257 184.79045 
L 228.428235 186.289124 
L 229.011765 194.842567 
L 229.210695 181.313659 
L 229.727914 196.72014 
L 230.046203 171.780216 
L 230.311444 193.192075 
L 230.802139 170.72814 
L 231.06738 196.551764 
L 231.319358 206.639325 
L 231.902888 176.936212 
L 232.18139 189.543508 
L 232.486417 166.343799 
L 233.109733 179.066473 
L 233.374973 162.896106 
L 233.945241 198.684988 
L 234.303316 175.572545 
L 234.52877 176.359653 
L 235.032727 179.530211 
L 235.271444 161.358147 
L 235.563209 184.231727 
L 235.987594 207.449351 
L 236.186524 183.857881 
L 236.531337 171.64451 
L 236.743529 171.091141 
L 237.048556 144.095875 
L 237.459679 187.278021 
L 237.72492 144.027488 
L 238.056471 200.486234 
L 238.454332 163.403888 
L 238.759358 183.299665 
L 239.130695 174.607954 
L 239.435722 199.018216 
L 239.727487 194.32315 
L 239.992727 214.000457 
L 240.417112 197.196565 
L 240.642567 209.887024 
L 241.080214 182.287939 
L 241.531123 175.550837 
L 241.796364 182.253675 
L 242.234011 184.367249 
L 242.565561 195.400793 
L 242.976684 205.295964 
L 243.759144 168.388883 
L 244.130481 184.565176 
L 244.422246 188.617128 
L 244.859893 196.658984 
L 245.191444 171.69196 
L 245.522995 194.111489 
L 245.801497 163.02 
L 246.172834 184.336636 
L 246.570695 178.871892 
L 246.902246 178.912148 
L 247.180749 162.841885 
L 247.552086 186.054582 
L 247.936684 195.31945 
L 248.321283 198.634106 
L 248.652834 175.914046 
L 249.037433 182.020396 
L 249.488342 204.865703 
L 249.766845 147.566604 
L 250.151444 168.087206 
L 250.589091 171.277572 
L 250.920642 187.050199 
L 251.411337 188.475126 
L 251.769412 173.995616 
L 252.100963 176.795627 
L 252.657968 200.43099 
L 253.122139 198.866149 
L 254.222888 173.342523 
L 254.488128 182.247209 
L 254.912513 171.758227 
L 255.522567 179.063286 
L 256.039786 171.703156 
L 256.610053 191.950145 
L 256.994652 186.506336 
L 257.684278 194.317728 
L 258.228021 198.188529 
L 258.851337 185.541202 
L 259.315508 181.811385 
L 260.084706 187.458539 
L 260.535615 198.407621 
L 261.238503 197.804258 
L 261.795508 191.421975 
L 262.445348 177.046939 
L 263.015615 153.932028 
L 263.652193 141.578489 
L 264.275508 157.935497 
L 265.893476 179.114748 
L 266.927914 140.998505 
L 267.591016 190.750835 
L 268.254118 179.481157 
L 268.850909 143.646556 
L 269.500749 179.417842 
L 270.044492 193.919512 
L 270.654545 159.233419 
L 271.118717 188.013602 
L 271.781818 167.04605 
L 272.219465 173.586356 
L 272.962139 187.319807 
L 273.346738 185.797061 
L 274.00984 158.032959 
L 275.19016 193.208508 
L 275.64107 201.549978 
L 276.595936 160.578838 
L 277.192727 148.681817 
L 277.617112 116.792458 
L 278.147594 152.690471 
L 278.691337 179.897746 
L 279.447273 180.279701 
L 279.778824 162.531194 
L 280.362353 146.167762 
L 280.720428 177.353501 
L 281.357005 153.463085 
L 281.768128 166.46973 
L 282.378182 151.252528 
L 282.974973 182.052675 
L 283.372834 148.238466 
L 284.500107 184.856144 
L 285.11016 195.424429 
L 285.494759 165.198424 
L 286.197647 163.956347 
L 286.661818 209.607304 
L 287.232086 159.886676 
L 287.736043 161.561058 
L 288.346096 191.160496 
L 288.863316 171.082991 
L 289.486631 141.175485 
L 289.844706 195.572048 
L 290.534332 174.721643 
L 291.170909 196.696763 
L 291.727914 118.125436 
L 292.165561 145.187063 
L 292.987807 148.806204 
L 293.571337 152.462889 
L 294.194652 173.523946 
L 294.619037 204.669058 
L 295.388235 150.750222 
L 295.74631 170.982418 
L 296.46246 181.693192 
L 296.860321 194.398809 
L 297.602995 188.252939 
L 298.053904 127.828896 
L 298.756791 144.165793 
L 299.207701 177.353153 
L 299.963636 173.610733 
L 300.480856 165.826266 
L 301.143957 177.079425 
L 301.913155 180.639845 
L 302.350802 155.809807 
L 303.106738 185.744717 
L 303.451551 161.435122 
L 304.287059 180.201398 
L 304.645134 167.804178 
L 305.241925 106.358865 
L 305.825455 167.082618 
L 306.342674 184.753286 
L 307.509733 153.279982 
L 308.040214 181.953073 
L 308.544171 161.798917 
L 309.101176 161.006163 
L 309.764278 135.486118 
L 310.095829 130.873655 
L 310.705882 133.423757 
L 311.34246 132.706416 
L 311.660749 139.073219 
L 312.403422 203.494737 
L 312.814545 117.374141 
L 313.411337 171.178416 
L 313.835722 144.112637 
L 314.485561 160.34454 
L 315.254759 109.777226 
L 315.758717 92.118594 
L 316.355508 161.800906 
L 316.939037 148.328655 
L 317.615401 128.426506 
L 318.19893 143.304694 
L 319.007914 107.03007 
L 319.339465 153.006652 
L 320.135187 114.407905 
L 320.559572 158.611869 
L 321.302246 117.955402 
L 321.885775 157.281044 
L 322.495829 160.724829 
L 323.291551 143.667616 
L 323.888342 171.898437 
L 324.471872 155.422428 
L 325.002353 128.473036 
L 325.745027 198.188529 
L 326.593797 178.957223 
L 327.084492 92.227665 
L 327.747594 132.291793 
L 328.543316 114.864638 
L 329.126845 170.319584 
L 329.962353 141.583529 
L 330.373476 157.478483 
L 331.24877 146.536766 
L 331.726203 131.362719 
L 332.429091 182.676191 
L 333.118717 147.42691 
L 333.927701 187.881195 
L 334.232727 104.084378 
L 335.267166 142.264279 
L 335.757861 167.576754 
L 336.500535 151.378186 
L 337.309519 150.812875 
L 338.145027 137.108104 
L 338.529626 97.066706 
L 339.391658 145.055074 
L 340.784171 182.270061 
L 341.831872 165.121069 
L 342.587807 180.930747 
L 343.502888 158.356493 
L 343.953797 170.8096 
L 344.855615 150.730194 
L 345.505455 107.18142 
L 346.287914 169.457988 
L 347.11016 117.736988 
L 347.706952 132.641247 
L 348.60877 83.152765 
L 349.25861 163.862029 
L 349.881925 200.795512 
L 350.505241 173.731769 
L 351.327487 130.842882 
L 352.017112 146.88196 
L 352.560856 116.658986 
L 353.223957 95.279228 
L 354.616471 148.704669 
L 355.359144 199.210137 
L 356.128342 148.268864 
L 356.857754 143.266901 
L 357.428021 162.381797 
L 358.276791 157.906587 
L 358.939893 106.853184 
L 359.695829 149.872784 
L 360.504813 133.777322 
L 360.915936 167.612098 
L 361.870802 114.73324 
L 362.348235 155.071566 
L 363.037861 75.846443 
L 363.807059 119.877365 
L 364.655829 188.274435 
L 365.080214 125.089164 
L 365.915722 107.446317 
L 366.777754 197.473393 
L 367.361283 137.068134 
L 367.984599 152.192628 
L 369.324064 70.623261 
L 370.026952 128.930848 
L 370.676791 141.479141 
L 371.207273 86.319903 
L 372.056043 172.311962 
L 372.586524 154.595547 
L 373.262888 114.905922 
L 374.018824 86.228204 
L 374.814545 116.588928 
L 375.318503 152.274168 
L 376.260107 169.830313 
L 376.80385 84.147016 
L 377.440428 112.480648 
L 378.315722 113.523513 
L 379.204278 147.340795 
L 379.615401 173.428165 
L 380.570267 107.90962 
L 381.299679 124.247689 
L 382.108663 94.756247 
L 382.599358 131.979915 
L 383.275722 121.886476 
L 384.164278 131.278866 
L 384.615187 162.544159 
L 385.517005 194.173487 
L 386.047487 121.492556 
L 387.055401 100.625071 
L 387.678717 140.464919 
L 388.487701 168.388273 
L 388.951872 121.344773 
L 389.628235 102.190766 
L 390.211765 68.561594 
L 390.90139 157.683092 
L 391.789947 145.447361 
L 392.545882 157.475489 
L 393.04984 97.03872 
L 393.739465 216.037389 
L 394.362781 169.704678 
L 395.025882 146.12675 
L 395.72877 53.568 
L 396.564278 208.990778 
L 397.280428 54.290259 
L 397.797647 95.73505 
L 398.487273 115.884031 
L 398.487273 115.884031 
" clip-path="url(#p9d5d95c2fb)" style="fill: none; stroke: #ff7f0e; stroke-width: 1.5; stroke-linecap: square"/>
   </g>
   <g id="patch_3">
    <path d="M 57.6 307.584 
L 57.6 41.472 
" style="fill: none; stroke: #000000; stroke-width: 0.8; stroke-linejoin: miter; stroke-linecap: square"/>
   </g>
   <g id="patch_4">
    <path d="M 414.72 307.584 
L 414.72 41.472 
" style="fill: none; stroke: #000000; stroke-width: 0.8; stroke-linejoin: miter; stroke-linecap: square"/>
   </g>
   <g id="patch_5">
    <path d="M 57.6 307.584 
L 414.72 307.584 
" style="fill: none; stroke: #000000; stroke-width: 0.8; stroke-linejoin: miter; stroke-linecap: square"/>
   </g>
   <g id="patch_6">
    <path d="M 57.6 41.472 
L 414.72 41.472 
" style="fill: none; stroke: #000000; stroke-width: 0.8; stroke-linejoin: miter; stroke-linecap: square"/>
   </g>
   <g id="text_18">
    <!-- actor and critic loss -->
    <g transform="translate(177.345 35.472) scale(0.12 -0.12)">
     <defs>
      <path id="DejaVuSans-61" d="M 2194 1759 
Q 1497 1759 1228 1600 
Q 959 1441 959 1056 
Q 959 750 1161 570 
Q 1363 391 1709 391 
Q 2188 391 2477 730 
Q 2766 1069 2766 1631 
L 2766 1759 
L 2194 1759 
z
M 3341 1997 
L 3341 0 
L 2766 0 
L 2766 531 
Q 2569 213 2275 61 
Q 1981 -91 1556 -91 
Q 1019 -91 701 211 
Q 384 513 384 1019 
Q 384 1609 779 1909 
Q 1175 2209 1959 2209 
L 2766 2209 
L 2766 2266 
Q 2766 2663 2505 2880 
Q 2244 3097 1772 3097 
Q 1472 3097 1187 3025 
Q 903 2953 641 2809 
L 641 3341 
Q 956 3463 1253 3523 
Q 1550 3584 1831 3584 
Q 2591 3584 2966 3190 
Q 3341 2797 3341 1997 
z
" transform="scale(0.015625)"/>
      <path id="DejaVuSans-63" d="M 3122 3366 
L 3122 2828 
Q 2878 2963 2633 3030 
Q 2388 3097 2138 3097 
Q 1578 3097 1268 2742 
Q 959 2388 959 1747 
Q 959 1106 1268 751 
Q 1578 397 2138 397 
Q 2388 397 2633 464 
Q 2878 531 3122 666 
L 3122 134 
Q 2881 22 2623 -34 
Q 2366 -91 2075 -91 
Q 1284 -91 818 406 
Q 353 903 353 1747 
Q 353 2603 823 3093 
Q 1294 3584 2113 3584 
Q 2378 3584 2631 3529 
Q 2884 3475 3122 3366 
z
" transform="scale(0.015625)"/>
      <path id="DejaVuSans-72" d="M 2631 2963 
Q 2534 3019 2420 3045 
Q 2306 3072 2169 3072 
Q 1681 3072 1420 2755 
Q 1159 2438 1159 1844 
L 1159 0 
L 581 0 
L 581 3500 
L 1159 3500 
L 1159 2956 
Q 1341 3275 1631 3429 
Q 1922 3584 2338 3584 
Q 2397 3584 2469 3576 
Q 2541 3569 2628 3553 
L 2631 2963 
z
" transform="scale(0.015625)"/>
      <path id="DejaVuSans-6e" d="M 3513 2113 
L 3513 0 
L 2938 0 
L 2938 2094 
Q 2938 2591 2744 2837 
Q 2550 3084 2163 3084 
Q 1697 3084 1428 2787 
Q 1159 2491 1159 1978 
L 1159 0 
L 581 0 
L 581 3500 
L 1159 3500 
L 1159 2956 
Q 1366 3272 1645 3428 
Q 1925 3584 2291 3584 
Q 2894 3584 3203 3211 
Q 3513 2838 3513 2113 
z
" transform="scale(0.015625)"/>
      <path id="DejaVuSans-64" d="M 2906 2969 
L 2906 4863 
L 3481 4863 
L 3481 0 
L 2906 0 
L 2906 525 
Q 2725 213 2448 61 
Q 2172 -91 1784 -91 
Q 1150 -91 751 415 
Q 353 922 353 1747 
Q 353 2572 751 3078 
Q 1150 3584 1784 3584 
Q 2172 3584 2448 3432 
Q 2725 3281 2906 2969 
z
M 947 1747 
Q 947 1113 1208 752 
Q 1469 391 1925 391 
Q 2381 391 2643 752 
Q 2906 1113 2906 1747 
Q 2906 2381 2643 2742 
Q 2381 3103 1925 3103 
Q 1469 3103 1208 2742 
Q 947 2381 947 1747 
z
" transform="scale(0.015625)"/>
     </defs>
     <use xlink:href="#DejaVuSans-61"/>
     <use xlink:href="#DejaVuSans-63" x="61.279297"/>
     <use xlink:href="#DejaVuSans-74" x="116.259766"/>
     <use xlink:href="#DejaVuSans-6f" x="155.46875"/>
     <use xlink:href="#DejaVuSans-72" x="216.650391"/>
     <use xlink:href="#DejaVuSans-20" x="257.763672"/>
     <use xlink:href="#DejaVuSans-61" x="289.550781"/>
     <use xlink:href="#DejaVuSans-6e" x="350.830078"/>
     <use xlink:href="#DejaVuSans-64" x="414.208984"/>
     <use xlink:href="#DejaVuSans-20" x="477.685547"/>
     <use xlink:href="#DejaVuSans-63" x="509.472656"/>
     <use xlink:href="#DejaVuSans-72" x="564.453125"/>
     <use xlink:href="#DejaVuSans-69" x="605.566406"/>
     <use xlink:href="#DejaVuSans-74" x="633.349609"/>
     <use xlink:href="#DejaVuSans-69" x="672.558594"/>
     <use xlink:href="#DejaVuSans-63" x="700.341797"/>
     <use xlink:href="#DejaVuSans-20" x="755.322266"/>
     <use xlink:href="#DejaVuSans-6c" x="787.109375"/>
     <use xlink:href="#DejaVuSans-6f" x="814.892578"/>
     <use xlink:href="#DejaVuSans-73" x="876.074219"/>
     <use xlink:href="#DejaVuSans-73" x="928.173828"/>
    </g>
   </g>
   <g id="legend_1">
    <g id="patch_7">
     <path d="M 64.6 78.82825 
L 144.870313 78.82825 
Q 146.870313 78.82825 146.870313 76.82825 
L 146.870313 48.472 
Q 146.870313 46.472 144.870313 46.472 
L 64.6 46.472 
Q 62.6 46.472 62.6 48.472 
L 62.6 76.82825 
Q 62.6 78.82825 64.6 78.82825 
z
" style="fill: #ffffff; opacity: 0.8; stroke: #cccccc; stroke-linejoin: miter"/>
    </g>
    <g id="line2d_18">
     <path d="M 66.6 54.570437 
L 76.6 54.570437 
L 86.6 54.570437 
" style="fill: none; stroke: #1f77b4; stroke-width: 1.5; stroke-linecap: square"/>
    </g>
    <g id="text_19">
     <!-- actor loss -->
     <g transform="translate(94.6 58.070437) scale(0.1 -0.1)">
      <use xlink:href="#DejaVuSans-61"/>
      <use xlink:href="#DejaVuSans-63" x="61.279297"/>
      <use xlink:href="#DejaVuSans-74" x="116.259766"/>
      <use xlink:href="#DejaVuSans-6f" x="155.46875"/>
      <use xlink:href="#DejaVuSans-72" x="216.650391"/>
      <use xlink:href="#DejaVuSans-20" x="257.763672"/>
      <use xlink:href="#DejaVuSans-6c" x="289.550781"/>
      <use xlink:href="#DejaVuSans-6f" x="317.333984"/>
      <use xlink:href="#DejaVuSans-73" x="378.515625"/>
      <use xlink:href="#DejaVuSans-73" x="430.615234"/>
     </g>
    </g>
    <g id="line2d_19">
     <path d="M 66.6 69.248562 
L 76.6 69.248562 
L 86.6 69.248562 
" style="fill: none; stroke: #ff7f0e; stroke-width: 1.5; stroke-linecap: square"/>
    </g>
    <g id="text_20">
     <!-- critic loss -->
     <g transform="translate(94.6 72.748562) scale(0.1 -0.1)">
      <use xlink:href="#DejaVuSans-63"/>
      <use xlink:href="#DejaVuSans-72" x="54.980469"/>
      <use xlink:href="#DejaVuSans-69" x="96.09375"/>
      <use xlink:href="#DejaVuSans-74" x="123.876953"/>
      <use xlink:href="#DejaVuSans-69" x="163.085938"/>
      <use xlink:href="#DejaVuSans-63" x="190.869141"/>
      <use xlink:href="#DejaVuSans-20" x="245.849609"/>
      <use xlink:href="#DejaVuSans-6c" x="277.636719"/>
      <use xlink:href="#DejaVuSans-6f" x="305.419922"/>
      <use xlink:href="#DejaVuSans-73" x="366.601562"/>
      <use xlink:href="#DejaVuSans-73" x="418.701172"/>
     </g>
    </g>
   </g>
  </g>
 </g>
 <defs>
  <clipPath id="p9d5d95c2fb">
   <rect x="57.6" y="41.472" width="357.12" height="266.112"/>
  </clipPath>
 </defs>
</svg>
