<?xml version="1.0" encoding="utf-8" standalone="no"?>
<!DOCTYPE svg PUBLIC "-//W3C//DTD SVG 1.1//EN"
  "http://www.w3.org/Graphics/SVG/1.1/DTD/svg11.dtd">
<svg xmlns:xlink="http://www.w3.org/1999/xlink" width="460.8pt" height="345.6pt" viewBox="0 0 460.8 345.6" xmlns="http://www.w3.org/2000/svg" version="1.1">
 <metadata>
  <rdf:RDF xmlns:dc="http://purl.org/dc/elements/1.1/" xmlns:cc="http://creativecommons.org/ns#" xmlns:rdf="http://www.w3.org/1999/02/22-rdf-syntax-ns#">
   <cc:Work>
    <dc:type rdf:resource="http://purl.org/dc/dcmitype/StillImage"/>
    <dc:date>2023-08-18T16:51:10.320555</dc:date>
    <dc:format>image/svg+xml</dc:format>
    <dc:creator>
     <cc:Agent>
      <dc:title>Matplotlib v3.7.1, https://matplotlib.org/</dc:title>
     </cc:Agent>
    </dc:creator>
   </cc:Work>
  </rdf:RDF>
 </metadata>
 <defs>
  <style type="text/css">*{stroke-linejoin: round; stroke-linecap: butt}</style>
 </defs>
 <g id="figure_1">
  <g id="patch_1">
   <path d="M 0 345.6 
L 460.8 345.6 
L 460.8 0 
L 0 0 
z
" style="fill: #ffffff"/>
  </g>
  <g id="axes_1">
   <g id="patch_2">
    <path d="M 57.6 307.584 
L 414.72 307.584 
L 414.72 41.472 
L 57.6 41.472 
z
" style="fill: #ffffff"/>
   </g>
   <g id="matplotlib.axis_1">
    <g id="xtick_1">
     <g id="line2d_1">
      <defs>
       <path id="m58d84fef58" d="M 0 0 
L 0 3.5 
" style="stroke: #000000; stroke-width: 0.8"/>
      </defs>
      <g>
       <use xlink:href="#m58d84fef58" x="73.760036" y="307.584" style="stroke: #000000; stroke-width: 0.8"/>
      </g>
     </g>
     <g id="text_1">
      <!-- 0 -->
      <g transform="translate(70.578786 322.182437) scale(0.1 -0.1)">
       <defs>
        <path id="DejaVuSans-30" d="M 2034 4250 
Q 1547 4250 1301 3770 
Q 1056 3291 1056 2328 
Q 1056 1369 1301 889 
Q 1547 409 2034 409 
Q 2525 409 2770 889 
Q 3016 1369 3016 2328 
Q 3016 3291 2770 3770 
Q 2525 4250 2034 4250 
z
M 2034 4750 
Q 2819 4750 3233 4129 
Q 3647 3509 3647 2328 
Q 3647 1150 3233 529 
Q 2819 -91 2034 -91 
Q 1250 -91 836 529 
Q 422 1150 422 2328 
Q 422 3509 836 4129 
Q 1250 4750 2034 4750 
z
" transform="scale(0.015625)"/>
       </defs>
       <use xlink:href="#DejaVuSans-30"/>
      </g>
     </g>
    </g>
    <g id="xtick_2">
     <g id="line2d_2">
      <g>
       <use xlink:href="#m58d84fef58" x="139.843439" y="307.584" style="stroke: #000000; stroke-width: 0.8"/>
      </g>
     </g>
     <g id="text_2">
      <!-- 10000 -->
      <g transform="translate(123.937189 322.182437) scale(0.1 -0.1)">
       <defs>
        <path id="DejaVuSans-31" d="M 794 531 
L 1825 531 
L 1825 4091 
L 703 3866 
L 703 4441 
L 1819 4666 
L 2450 4666 
L 2450 531 
L 3481 531 
L 3481 0 
L 794 0 
L 794 531 
z
" transform="scale(0.015625)"/>
       </defs>
       <use xlink:href="#DejaVuSans-31"/>
       <use xlink:href="#DejaVuSans-30" x="63.623047"/>
       <use xlink:href="#DejaVuSans-30" x="127.246094"/>
       <use xlink:href="#DejaVuSans-30" x="190.869141"/>
       <use xlink:href="#DejaVuSans-30" x="254.492188"/>
      </g>
     </g>
    </g>
    <g id="xtick_3">
     <g id="line2d_3">
      <g>
       <use xlink:href="#m58d84fef58" x="205.926843" y="307.584" style="stroke: #000000; stroke-width: 0.8"/>
      </g>
     </g>
     <g id="text_3">
      <!-- 20000 -->
      <g transform="translate(190.020593 322.182437) scale(0.1 -0.1)">
       <defs>
        <path id="DejaVuSans-32" d="M 1228 531 
L 3431 531 
L 3431 0 
L 469 0 
L 469 531 
Q 828 903 1448 1529 
Q 2069 2156 2228 2338 
Q 2531 2678 2651 2914 
Q 2772 3150 2772 3378 
Q 2772 3750 2511 3984 
Q 2250 4219 1831 4219 
Q 1534 4219 1204 4116 
Q 875 4013 500 3803 
L 500 4441 
Q 881 4594 1212 4672 
Q 1544 4750 1819 4750 
Q 2544 4750 2975 4387 
Q 3406 4025 3406 3419 
Q 3406 3131 3298 2873 
Q 3191 2616 2906 2266 
Q 2828 2175 2409 1742 
Q 1991 1309 1228 531 
z
" transform="scale(0.015625)"/>
       </defs>
       <use xlink:href="#DejaVuSans-32"/>
       <use xlink:href="#DejaVuSans-30" x="63.623047"/>
       <use xlink:href="#DejaVuSans-30" x="127.246094"/>
       <use xlink:href="#DejaVuSans-30" x="190.869141"/>
       <use xlink:href="#DejaVuSans-30" x="254.492188"/>
      </g>
     </g>
    </g>
    <g id="xtick_4">
     <g id="line2d_4">
      <g>
       <use xlink:href="#m58d84fef58" x="272.010246" y="307.584" style="stroke: #000000; stroke-width: 0.8"/>
      </g>
     </g>
     <g id="text_4">
      <!-- 30000 -->
      <g transform="translate(256.103996 322.182437) scale(0.1 -0.1)">
       <defs>
        <path id="DejaVuSans-33" d="M 2597 2516 
Q 3050 2419 3304 2112 
Q 3559 1806 3559 1356 
Q 3559 666 3084 287 
Q 2609 -91 1734 -91 
Q 1441 -91 1130 -33 
Q 819 25 488 141 
L 488 750 
Q 750 597 1062 519 
Q 1375 441 1716 441 
Q 2309 441 2620 675 
Q 2931 909 2931 1356 
Q 2931 1769 2642 2001 
Q 2353 2234 1838 2234 
L 1294 2234 
L 1294 2753 
L 1863 2753 
Q 2328 2753 2575 2939 
Q 2822 3125 2822 3475 
Q 2822 3834 2567 4026 
Q 2313 4219 1838 4219 
Q 1578 4219 1281 4162 
Q 984 4106 628 3988 
L 628 4550 
Q 988 4650 1302 4700 
Q 1616 4750 1894 4750 
Q 2613 4750 3031 4423 
Q 3450 4097 3450 3541 
Q 3450 3153 3228 2886 
Q 3006 2619 2597 2516 
z
" transform="scale(0.015625)"/>
       </defs>
       <use xlink:href="#DejaVuSans-33"/>
       <use xlink:href="#DejaVuSans-30" x="63.623047"/>
       <use xlink:href="#DejaVuSans-30" x="127.246094"/>
       <use xlink:href="#DejaVuSans-30" x="190.869141"/>
       <use xlink:href="#DejaVuSans-30" x="254.492188"/>
      </g>
     </g>
    </g>
    <g id="xtick_5">
     <g id="line2d_5">
      <g>
       <use xlink:href="#m58d84fef58" x="338.09365" y="307.584" style="stroke: #000000; stroke-width: 0.8"/>
      </g>
     </g>
     <g id="text_5">
      <!-- 40000 -->
      <g transform="translate(322.1874 322.182437) scale(0.1 -0.1)">
       <defs>
        <path id="DejaVuSans-34" d="M 2419 4116 
L 825 1625 
L 2419 1625 
L 2419 4116 
z
M 2253 4666 
L 3047 4666 
L 3047 1625 
L 3713 1625 
L 3713 1100 
L 3047 1100 
L 3047 0 
L 2419 0 
L 2419 1100 
L 313 1100 
L 313 1709 
L 2253 4666 
z
" transform="scale(0.015625)"/>
       </defs>
       <use xlink:href="#DejaVuSans-34"/>
       <use xlink:href="#DejaVuSans-30" x="63.623047"/>
       <use xlink:href="#DejaVuSans-30" x="127.246094"/>
       <use xlink:href="#DejaVuSans-30" x="190.869141"/>
       <use xlink:href="#DejaVuSans-30" x="254.492188"/>
      </g>
     </g>
    </g>
    <g id="xtick_6">
     <g id="line2d_6">
      <g>
       <use xlink:href="#m58d84fef58" x="404.177054" y="307.584" style="stroke: #000000; stroke-width: 0.8"/>
      </g>
     </g>
     <g id="text_6">
      <!-- 50000 -->
      <g transform="translate(388.270804 322.182437) scale(0.1 -0.1)">
       <defs>
        <path id="DejaVuSans-35" d="M 691 4666 
L 3169 4666 
L 3169 4134 
L 1269 4134 
L 1269 2991 
Q 1406 3038 1543 3061 
Q 1681 3084 1819 3084 
Q 2600 3084 3056 2656 
Q 3513 2228 3513 1497 
Q 3513 744 3044 326 
Q 2575 -91 1722 -91 
Q 1428 -91 1123 -41 
Q 819 9 494 109 
L 494 744 
Q 775 591 1075 516 
Q 1375 441 1709 441 
Q 2250 441 2565 725 
Q 2881 1009 2881 1497 
Q 2881 1984 2565 2268 
Q 2250 2553 1709 2553 
Q 1456 2553 1204 2497 
Q 953 2441 691 2322 
L 691 4666 
z
" transform="scale(0.015625)"/>
       </defs>
       <use xlink:href="#DejaVuSans-35"/>
       <use xlink:href="#DejaVuSans-30" x="63.623047"/>
       <use xlink:href="#DejaVuSans-30" x="127.246094"/>
       <use xlink:href="#DejaVuSans-30" x="190.869141"/>
       <use xlink:href="#DejaVuSans-30" x="254.492188"/>
      </g>
     </g>
    </g>
    <g id="text_7">
     <!-- timesteps -->
     <g transform="translate(211.443594 335.860562) scale(0.1 -0.1)">
      <defs>
       <path id="DejaVuSans-74" d="M 1172 4494 
L 1172 3500 
L 2356 3500 
L 2356 3053 
L 1172 3053 
L 1172 1153 
Q 1172 725 1289 603 
Q 1406 481 1766 481 
L 2356 481 
L 2356 0 
L 1766 0 
Q 1100 0 847 248 
Q 594 497 594 1153 
L 594 3053 
L 172 3053 
L 172 3500 
L 594 3500 
L 594 4494 
L 1172 4494 
z
" transform="scale(0.015625)"/>
       <path id="DejaVuSans-69" d="M 603 3500 
L 1178 3500 
L 1178 0 
L 603 0 
L 603 3500 
z
M 603 4863 
L 1178 4863 
L 1178 4134 
L 603 4134 
L 603 4863 
z
" transform="scale(0.015625)"/>
       <path id="DejaVuSans-6d" d="M 3328 2828 
Q 3544 3216 3844 3400 
Q 4144 3584 4550 3584 
Q 5097 3584 5394 3201 
Q 5691 2819 5691 2113 
L 5691 0 
L 5113 0 
L 5113 2094 
Q 5113 2597 4934 2840 
Q 4756 3084 4391 3084 
Q 3944 3084 3684 2787 
Q 3425 2491 3425 1978 
L 3425 0 
L 2847 0 
L 2847 2094 
Q 2847 2600 2669 2842 
Q 2491 3084 2119 3084 
Q 1678 3084 1418 2786 
Q 1159 2488 1159 1978 
L 1159 0 
L 581 0 
L 581 3500 
L 1159 3500 
L 1159 2956 
Q 1356 3278 1631 3431 
Q 1906 3584 2284 3584 
Q 2666 3584 2933 3390 
Q 3200 3197 3328 2828 
z
" transform="scale(0.015625)"/>
       <path id="DejaVuSans-65" d="M 3597 1894 
L 3597 1613 
L 953 1613 
Q 991 1019 1311 708 
Q 1631 397 2203 397 
Q 2534 397 2845 478 
Q 3156 559 3463 722 
L 3463 178 
Q 3153 47 2828 -22 
Q 2503 -91 2169 -91 
Q 1331 -91 842 396 
Q 353 884 353 1716 
Q 353 2575 817 3079 
Q 1281 3584 2069 3584 
Q 2775 3584 3186 3129 
Q 3597 2675 3597 1894 
z
M 3022 2063 
Q 3016 2534 2758 2815 
Q 2500 3097 2075 3097 
Q 1594 3097 1305 2825 
Q 1016 2553 972 2059 
L 3022 2063 
z
" transform="scale(0.015625)"/>
       <path id="DejaVuSans-73" d="M 2834 3397 
L 2834 2853 
Q 2591 2978 2328 3040 
Q 2066 3103 1784 3103 
Q 1356 3103 1142 2972 
Q 928 2841 928 2578 
Q 928 2378 1081 2264 
Q 1234 2150 1697 2047 
L 1894 2003 
Q 2506 1872 2764 1633 
Q 3022 1394 3022 966 
Q 3022 478 2636 193 
Q 2250 -91 1575 -91 
Q 1294 -91 989 -36 
Q 684 19 347 128 
L 347 722 
Q 666 556 975 473 
Q 1284 391 1588 391 
Q 1994 391 2212 530 
Q 2431 669 2431 922 
Q 2431 1156 2273 1281 
Q 2116 1406 1581 1522 
L 1381 1569 
Q 847 1681 609 1914 
Q 372 2147 372 2553 
Q 372 3047 722 3315 
Q 1072 3584 1716 3584 
Q 2034 3584 2315 3537 
Q 2597 3491 2834 3397 
z
" transform="scale(0.015625)"/>
       <path id="DejaVuSans-70" d="M 1159 525 
L 1159 -1331 
L 581 -1331 
L 581 3500 
L 1159 3500 
L 1159 2969 
Q 1341 3281 1617 3432 
Q 1894 3584 2278 3584 
Q 2916 3584 3314 3078 
Q 3713 2572 3713 1747 
Q 3713 922 3314 415 
Q 2916 -91 2278 -91 
Q 1894 -91 1617 61 
Q 1341 213 1159 525 
z
M 3116 1747 
Q 3116 2381 2855 2742 
Q 2594 3103 2138 3103 
Q 1681 3103 1420 2742 
Q 1159 2381 1159 1747 
Q 1159 1113 1420 752 
Q 1681 391 2138 391 
Q 2594 391 2855 752 
Q 3116 1113 3116 1747 
z
" transform="scale(0.015625)"/>
      </defs>
      <use xlink:href="#DejaVuSans-74"/>
      <use xlink:href="#DejaVuSans-69" x="39.208984"/>
      <use xlink:href="#DejaVuSans-6d" x="66.992188"/>
      <use xlink:href="#DejaVuSans-65" x="164.404297"/>
      <use xlink:href="#DejaVuSans-73" x="225.927734"/>
      <use xlink:href="#DejaVuSans-74" x="278.027344"/>
      <use xlink:href="#DejaVuSans-65" x="317.236328"/>
      <use xlink:href="#DejaVuSans-70" x="378.759766"/>
      <use xlink:href="#DejaVuSans-73" x="442.236328"/>
     </g>
    </g>
   </g>
   <g id="matplotlib.axis_2">
    <g id="ytick_1">
     <g id="line2d_7">
      <defs>
       <path id="m9262067c43" d="M 0 0 
L -3.5 0 
" style="stroke: #000000; stroke-width: 0.8"/>
      </defs>
      <g>
       <use xlink:href="#m9262067c43" x="57.6" y="297.670178" style="stroke: #000000; stroke-width: 0.8"/>
      </g>
     </g>
     <g id="text_8">
      <!-- 0 -->
      <g transform="translate(44.2375 301.469397) scale(0.1 -0.1)">
       <use xlink:href="#DejaVuSans-30"/>
      </g>
     </g>
    </g>
    <g id="ytick_2">
     <g id="line2d_8">
      <g>
       <use xlink:href="#m9262067c43" x="57.6" y="260.564366" style="stroke: #000000; stroke-width: 0.8"/>
      </g>
     </g>
     <g id="text_9">
      <!-- 50 -->
      <g transform="translate(37.875 264.363585) scale(0.1 -0.1)">
       <use xlink:href="#DejaVuSans-35"/>
       <use xlink:href="#DejaVuSans-30" x="63.623047"/>
      </g>
     </g>
    </g>
    <g id="ytick_3">
     <g id="line2d_9">
      <g>
       <use xlink:href="#m9262067c43" x="57.6" y="223.458554" style="stroke: #000000; stroke-width: 0.8"/>
      </g>
     </g>
     <g id="text_10">
      <!-- 100 -->
      <g transform="translate(31.5125 227.257773) scale(0.1 -0.1)">
       <use xlink:href="#DejaVuSans-31"/>
       <use xlink:href="#DejaVuSans-30" x="63.623047"/>
       <use xlink:href="#DejaVuSans-30" x="127.246094"/>
      </g>
     </g>
    </g>
    <g id="ytick_4">
     <g id="line2d_10">
      <g>
       <use xlink:href="#m9262067c43" x="57.6" y="186.352743" style="stroke: #000000; stroke-width: 0.8"/>
      </g>
     </g>
     <g id="text_11">
      <!-- 150 -->
      <g transform="translate(31.5125 190.151961) scale(0.1 -0.1)">
       <use xlink:href="#DejaVuSans-31"/>
       <use xlink:href="#DejaVuSans-35" x="63.623047"/>
       <use xlink:href="#DejaVuSans-30" x="127.246094"/>
      </g>
     </g>
    </g>
    <g id="ytick_5">
     <g id="line2d_11">
      <g>
       <use xlink:href="#m9262067c43" x="57.6" y="149.246931" style="stroke: #000000; stroke-width: 0.8"/>
      </g>
     </g>
     <g id="text_12">
      <!-- 200 -->
      <g transform="translate(31.5125 153.04615) scale(0.1 -0.1)">
       <use xlink:href="#DejaVuSans-32"/>
       <use xlink:href="#DejaVuSans-30" x="63.623047"/>
       <use xlink:href="#DejaVuSans-30" x="127.246094"/>
      </g>
     </g>
    </g>
    <g id="ytick_6">
     <g id="line2d_12">
      <g>
       <use xlink:href="#m9262067c43" x="57.6" y="112.141119" style="stroke: #000000; stroke-width: 0.8"/>
      </g>
     </g>
     <g id="text_13">
      <!-- 250 -->
      <g transform="translate(31.5125 115.940338) scale(0.1 -0.1)">
       <use xlink:href="#DejaVuSans-32"/>
       <use xlink:href="#DejaVuSans-35" x="63.623047"/>
       <use xlink:href="#DejaVuSans-30" x="127.246094"/>
      </g>
     </g>
    </g>
    <g id="ytick_7">
     <g id="line2d_13">
      <g>
       <use xlink:href="#m9262067c43" x="57.6" y="75.035308" style="stroke: #000000; stroke-width: 0.8"/>
      </g>
     </g>
     <g id="text_14">
      <!-- 300 -->
      <g transform="translate(31.5125 78.834526) scale(0.1 -0.1)">
       <use xlink:href="#DejaVuSans-33"/>
       <use xlink:href="#DejaVuSans-30" x="63.623047"/>
       <use xlink:href="#DejaVuSans-30" x="127.246094"/>
      </g>
     </g>
    </g>
    <g id="text_15">
     <!-- rewards -->
     <g transform="translate(25.432812 194.447531) rotate(-90) scale(0.1 -0.1)">
      <defs>
       <path id="DejaVuSans-72" d="M 2631 2963 
Q 2534 3019 2420 3045 
Q 2306 3072 2169 3072 
Q 1681 3072 1420 2755 
Q 1159 2438 1159 1844 
L 1159 0 
L 581 0 
L 581 3500 
L 1159 3500 
L 1159 2956 
Q 1341 3275 1631 3429 
Q 1922 3584 2338 3584 
Q 2397 3584 2469 3576 
Q 2541 3569 2628 3553 
L 2631 2963 
z
" transform="scale(0.015625)"/>
       <path id="DejaVuSans-77" d="M 269 3500 
L 844 3500 
L 1563 769 
L 2278 3500 
L 2956 3500 
L 3675 769 
L 4391 3500 
L 4966 3500 
L 4050 0 
L 3372 0 
L 2619 2869 
L 1863 0 
L 1184 0 
L 269 3500 
z
" transform="scale(0.015625)"/>
       <path id="DejaVuSans-61" d="M 2194 1759 
Q 1497 1759 1228 1600 
Q 959 1441 959 1056 
Q 959 750 1161 570 
Q 1363 391 1709 391 
Q 2188 391 2477 730 
Q 2766 1069 2766 1631 
L 2766 1759 
L 2194 1759 
z
M 3341 1997 
L 3341 0 
L 2766 0 
L 2766 531 
Q 2569 213 2275 61 
Q 1981 -91 1556 -91 
Q 1019 -91 701 211 
Q 384 513 384 1019 
Q 384 1609 779 1909 
Q 1175 2209 1959 2209 
L 2766 2209 
L 2766 2266 
Q 2766 2663 2505 2880 
Q 2244 3097 1772 3097 
Q 1472 3097 1187 3025 
Q 903 2953 641 2809 
L 641 3341 
Q 956 3463 1253 3523 
Q 1550 3584 1831 3584 
Q 2591 3584 2966 3190 
Q 3341 2797 3341 1997 
z
" transform="scale(0.015625)"/>
       <path id="DejaVuSans-64" d="M 2906 2969 
L 2906 4863 
L 3481 4863 
L 3481 0 
L 2906 0 
L 2906 525 
Q 2725 213 2448 61 
Q 2172 -91 1784 -91 
Q 1150 -91 751 415 
Q 353 922 353 1747 
Q 353 2572 751 3078 
Q 1150 3584 1784 3584 
Q 2172 3584 2448 3432 
Q 2725 3281 2906 2969 
z
M 947 1747 
Q 947 1113 1208 752 
Q 1469 391 1925 391 
Q 2381 391 2643 752 
Q 2906 1113 2906 1747 
Q 2906 2381 2643 2742 
Q 2381 3103 1925 3103 
Q 1469 3103 1208 2742 
Q 947 2381 947 1747 
z
" transform="scale(0.015625)"/>
      </defs>
      <use xlink:href="#DejaVuSans-72"/>
      <use xlink:href="#DejaVuSans-65" x="38.863281"/>
      <use xlink:href="#DejaVuSans-77" x="100.386719"/>
      <use xlink:href="#DejaVuSans-61" x="182.173828"/>
      <use xlink:href="#DejaVuSans-72" x="243.453125"/>
      <use xlink:href="#DejaVuSans-64" x="282.816406"/>
      <use xlink:href="#DejaVuSans-73" x="346.292969"/>
     </g>
    </g>
   </g>
   <g id="line2d_14">
    <path d="M 73.832727 292.932667 
L 73.905419 292.356609 
L 73.984719 290.732826 
L 74.064019 292.383667 
L 74.156536 288.916935 
L 74.249053 294.476623 
L 74.354786 287.398205 
L 74.46052 290.653254 
L 74.566253 285.443603 
L 74.685203 288.852331 
L 74.810762 285.64545 
L 74.93632 290.160954 
L 75.068487 288.683817 
L 75.200654 284.752101 
L 75.339429 293.184806 
L 75.484812 288.807772 
L 75.544287 292.362743 
L 75.854879 287.186545 
L 76.020088 279.581185 
L 76.099388 292.764331 
L 76.17208 292.618275 
L 76.244772 292.755748 
L 76.396763 284.83345 
L 76.456238 292.794696 
L 76.561972 288.839633 
L 76.641272 292.894313 
L 76.892389 273.22786 
L 77.044381 289.738037 
L 77.473923 287.199051 
L 77.60609 292.077671 
L 77.711823 289.721986 
L 77.877032 274.004699 
L 77.969548 291.814982 
L 78.544474 235.382218 
L 78.676641 287.682801 
L 78.868283 279.190332 
L 79.059925 277.19318 
L 79.205308 292.178808 
L 79.330866 290.789893 
L 79.542333 277.020484 
L 79.621633 292.766515 
L 79.998309 271.092183 
L 80.123867 290.550265 
L 80.256034 286.00512 
L 80.434459 290.353888 
L 80.520368 290.187942 
L 80.678968 280.701197 
L 80.850785 280.518931 
L 80.916868 291.806721 
L 80.996168 291.676596 
L 81.128335 293.099823 
L 81.247285 283.242528 
L 81.366235 289.970377 
L 81.564485 293.457805 
L 81.723086 287.63606 
L 81.808994 289.170505 
L 81.980811 276.0186 
L 82.377311 291.844566 
L 82.562345 292.360199 
L 82.681295 282.659607 
L 82.872937 291.098779 
L 83.236396 261.545233 
L 83.315696 290.166194 
L 83.546988 272.391906 
L 83.679154 285.881973 
L 83.917055 261.618127 
L 83.996355 289.618708 
L 84.168172 273.953855 
L 84.37303 290.990934 
L 84.485372 290.235709 
L 84.65058 282.243722 
L 84.848831 291.664308 
L 84.954564 289.879367 
L 85.132989 293.179029 
L 85.536098 282.495155 
L 85.780607 285.751377 
L 85.88634 291.22263 
L 85.978857 290.976223 
L 86.170499 278.838295 
L 86.249799 289.822731 
L 86.533957 282.92651 
L 86.646299 291.290023 
L 86.818116 285.704028 
L 86.884199 292.101875 
L 87.036191 287.114309 
L 87.095666 292.817216 
L 87.214617 288.214929 
L 87.379825 293.387464 
L 87.531817 280.284472 
L 87.650767 288.409789 
L 87.835801 288.848429 
L 87.987792 292.482935 
L 88.126567 288.519246 
L 88.304993 289.92428 
L 88.404118 287.487594 
L 88.503243 292.551401 
L 88.602368 287.989565 
L 88.688276 289.340123 
L 88.820443 282.740441 
L 88.939393 284.326843 
L 89.11121 273.859566 
L 89.415194 291.123988 
L 89.739003 286.090369 
L 89.844736 286.713492 
L 89.937253 290.91004 
L 90.115678 292.131481 
L 90.393228 287.341659 
L 90.485745 292.710797 
L 90.62452 282.628357 
L 90.750079 290.82821 
L 91.073887 289.72034 
L 91.285354 290.706419 
L 91.377871 292.160662 
L 91.503429 291.807532 
L 91.681855 288.873351 
L 92.065138 279.194722 
L 92.124613 294.503932 
L 92.29643 280.883641 
L 92.37573 292.591925 
L 92.772231 244.819532 
L 93.062998 263.294701 
L 93.181948 287.817427 
L 93.347156 279.824104 
L 93.45289 291.356861 
L 93.697398 285.056974 
L 93.796524 290.460579 
L 93.948515 283.845508 
L 94.140157 286.435379 
L 94.272324 291.269112 
L 94.417708 282.936828 
L 94.662216 281.429976 
L 94.76795 289.874826 
L 94.933158 282.40869 
L 95.038892 292.509906 
L 95.250358 278.548567 
L 95.448609 274.791762 
L 95.5213 292.002179 
L 95.812067 261.01661 
L 96.083009 293.687571 
L 96.340735 276.225441 
L 96.413426 292.479215 
L 96.657935 267.817429 
L 96.750452 292.323797 
L 97.028002 287.879479 
L 97.133735 286.525263 
L 97.279119 292.614599 
L 97.523627 266.818011 
L 97.682228 292.95831 
L 97.946561 283.930502 
L 98.03247 290.677821 
L 98.237328 271.531023 
L 98.34967 289.977362 
L 98.475228 286.195093 
L 98.607395 290.458553 
L 98.851904 290.068667 
L 98.944421 288.787235 
L 99.089804 289.634041 
L 99.149279 292.336119 
L 99.367354 282.11488 
L 99.651513 263.489806 
L 99.790288 291.397659 
L 99.988538 271.43915 
L 100.067839 289.965296 
L 100.206614 281.296204 
L 100.279305 290.746984 
L 100.371822 290.06749 
L 100.576681 290.099639 
L 100.781539 291.88778 
L 100.893881 288.152896 
L 100.986398 290.532772 
L 101.263948 283.181169 
L 101.33664 291.725466 
L 101.600973 282.3914 
L 101.706707 290.448868 
L 101.792615 290.425217 
L 101.951216 280.364133 
L 102.017299 292.121703 
L 102.149466 285.336851 
L 102.228766 290.412227 
L 102.440233 286.111009 
L 102.526141 291.052146 
L 102.618658 290.554583 
L 102.750825 282.345992 
L 103.054808 291.451482 
L 103.563651 187.370503 
L 103.761901 290.417014 
L 103.960151 287.887304 
L 104.046059 294.693621 
L 104.191443 287.775746 
L 104.28396 288.114328 
L 104.449168 287.256794 
L 104.574727 292.403938 
L 104.660635 292.263979 
L 104.733327 293.293874 
L 104.898535 286.907852 
L 104.95801 292.934832 
L 105.255386 292.193235 
L 105.413986 281.461203 
L 105.552761 280.046147 
L 105.731186 292.865739 
L 106.160728 202.916421 
L 106.246637 291.498649 
L 106.55062 271.711805 
L 106.649746 287.571746 
L 106.900862 280.88321 
L 107.059463 293.816764 
L 107.343621 283.859217 
L 107.528655 294.634315 
L 107.700472 290.444625 
L 107.878897 276.26767 
L 107.958197 293.033866 
L 108.050714 289.146479 
L 108.209314 279.588442 
L 108.619031 290.664892 
L 108.704939 289.833036 
L 108.86354 288.996567 
L 109.008923 281.329194 
L 109.154307 292.27757 
L 109.273257 292.563949 
L 109.398815 281.935152 
L 109.491332 291.169931 
L 109.649932 287.375877 
L 109.762274 292.244155 
L 110.125733 280.383263 
L 110.218249 288.795129 
L 110.323983 287.476699 
L 110.409891 288.99027 
L 110.561883 281.288142 
L 110.707267 279.648654 
L 110.806392 293.183658 
L 110.958383 278.904709 
L 111.196284 271.48923 
L 111.473834 288.403628 
L 111.553134 293.355528 
L 111.724951 271.888926 
L 111.936418 291.556051 
L 112.015718 289.438434 
L 112.154493 281.034846 
L 112.28666 293.437989 
L 112.40561 284.168045 
L 112.835152 225.361815 
L 112.980536 293.167042 
L 113.073052 288.766158 
L 113.132527 292.86794 
L 113.218436 290.869052 
L 113.271303 294.438278 
L 113.509203 289.879991 
L 113.740495 270.308818 
L 113.905703 289.69053 
L 114.242729 250.121722 
L 114.480629 291.324905 
L 114.678879 275.591385 
L 114.844088 292.747962 
L 114.923388 291.588853 
L 115.101813 282.109235 
L 115.306671 294.045948 
L 115.399188 289.248221 
L 115.458663 293.53642 
L 115.802297 282.547296 
L 115.94768 282.136503 
L 116.020372 291.680094 
L 116.119497 288.99876 
L 116.185581 293.668642 
L 116.496173 281.318581 
L 116.86624 264.418398 
L 116.925715 292.450523 
L 117.051273 285.34359 
L 117.18344 286.040439 
L 117.394907 292.038324 
L 117.50064 285.866112 
L 117.573332 293.853994 
L 117.665849 289.256048 
L 117.804624 293.503551 
L 117.877316 292.531471 
L 117.963224 292.402904 
L 118.082174 289.245641 
L 118.174691 291.168426 
L 118.253991 291.10528 
L 118.326683 291.340291 
L 118.452241 288.823923 
L 118.683533 291.967423 
L 118.961084 243.696101 
L 119.106467 292.253155 
L 119.172551 292.190602 
L 119.344367 275.330809 
L 119.443492 292.118731 
L 119.555834 287.739915 
L 119.747476 291.441518 
L 119.826776 291.209493 
L 120.025026 284.991728 
L 120.124152 286.714803 
L 120.461177 257.635679 
L 120.553694 287.474119 
L 120.943586 227.944506 
L 121.267394 267.940406 
L 121.736587 222.330694 
L 121.84232 289.621634 
L 122.007529 281.848096 
L 122.172737 292.680935 
L 122.285079 291.23241 
L 122.370987 292.663769 
L 122.437071 292.371281 
L 122.602279 290.646016 
L 122.668363 292.677792 
L 123.091296 257.032687 
L 123.461363 235.721558 
L 123.758739 291.586542 
L 123.838039 289.275926 
L 124.075939 259.976675 
L 124.208106 288.309768 
L 124.452614 256.426022 
L 124.743381 250.971588 
L 125.014323 289.056058 
L 125.120057 288.147356 
L 125.318307 290.897251 
L 125.787499 256.235617 
L 125.853583 291.961978 
L 126.032008 292.816852 
L 126.448333 274.475127 
L 126.547458 290.16306 
L 126.970392 201.728404 
L 127.095951 292.816839 
L 127.181859 290.106044 
L 127.472626 253.965135 
L 127.545318 291.132896 
L 127.796435 271.339741 
L 127.862518 293.675572 
L 127.93521 290.930057 
L 128.120243 287.383997 
L 128.344927 291.002701 
L 128.437444 288.255342 
L 128.516744 288.658478 
L 128.609261 293.02055 
L 128.767861 284.549067 
L 128.833944 293.992511 
L 128.919853 292.0448 
L 129.065236 283.107292 
L 129.204011 287.2431 
L 129.349395 282.584409 
L 129.435303 294.531493 
L 130.023445 254.241762 
L 130.254737 291.230423 
L 130.538896 260.351391 
L 130.631413 290.890281 
L 131.259205 228.942897 
L 131.510322 290.236477 
L 131.67553 282.121482 
L 131.754831 290.050235 
L 131.853956 287.890433 
L 132.012556 280.295068 
L 132.164548 286.696296 
L 132.31654 281.260689 
L 132.382623 293.48121 
L 132.481748 289.649457 
L 132.613915 294.228833 
L 132.679998 293.019816 
L 132.759298 291.86343 
L 132.95094 278.41637 
L 133.036849 290.981915 
L 133.182232 281.956075 
L 133.321007 289.046983 
L 133.598558 254.609864 
L 133.743941 292.561196 
L 133.995058 283.765038 
L 134.1074 289.947594 
L 134.259392 281.162992 
L 134.371733 290.42795 
L 134.54355 290.488422 
L 134.669109 289.792221 
L 134.7418 292.466062 
L 134.827709 290.769589 
L 135.025959 274.79217 
L 135.111867 291.817345 
L 135.237426 291.702124 
L 135.316726 293.417971 
L 135.435676 285.979836 
L 135.528193 288.874396 
L 135.627318 288.564098 
L 135.785918 285.002575 
L 135.918085 285.555019 
L 136.043643 284.284672 
L 136.122944 290.612879 
L 136.222069 287.855112 
L 136.420319 277.155437 
L 136.605352 275.181132 
L 136.803603 289.81208 
L 136.988636 274.188569 
L 137.206711 292.512841 
L 137.484262 282.643305 
L 137.60982 288.810854 
L 137.741987 284.551871 
L 137.827895 292.710442 
L 137.986496 278.795147 
L 138.098837 287.482684 
L 138.316913 282.415 
L 138.435863 286.404346 
L 138.620896 274.007212 
L 138.852188 290.405753 
L 138.96453 287.596333 
L 139.142955 286.620319 
L 139.209039 291.7251 
L 139.506414 276.976374 
L 139.638581 292.098544 
L 139.717881 291.871468 
L 139.896306 289.975601 
L 140.008648 283.813283 
L 140.094556 292.049281 
L 140.206898 288.06836 
L 140.31924 289.97321 
L 140.55714 288.036331 
L 140.67609 288.925926 
L 140.87434 282.976581 
L 141.118849 292.388012 
L 141.211366 291.82238 
L 141.323707 291.275496 
L 141.396399 292.588357 
L 141.495524 288.851007 
L 141.621083 291.880384 
L 141.733425 283.968038 
L 142.083667 293.775544 
L 142.1894 288.923314 
L 142.248875 293.683416 
L 142.5066 288.308307 
L 142.704851 280.942321 
L 142.823801 289.449404 
L 142.916317 288.44133 
L 143.134393 291.568373 
L 143.326035 270.078412 
L 143.497851 292.164898 
L 143.696102 285.519132 
L 143.808443 292.706442 
L 143.993477 270.259732 
L 144.304069 286.644876 
L 144.528752 282.671844 
L 144.746828 291.159598 
L 144.85917 292.535815 
L 145.024378 290.73764 
L 145.163153 284.006412 
L 145.553045 234.449333 
L 145.625737 291.394898 
L 145.975979 253.83962 
L 146.068496 291.431065 
L 146.504646 238.236322 
L 146.564121 293.148027 
L 146.656638 290.334334 
L 146.868105 287.638134 
L 147.00688 293.353983 
L 147.145655 281.496018 
L 147.238172 293.109298 
L 147.456247 288.797505 
L 147.654497 291.985549 
L 147.760231 285.275165 
L 147.832923 295.488 
L 148.00474 291.383267 
L 148.183165 274.543922 
L 148.473932 272.904197 
L 148.625924 280.526662 
L 148.83739 268.667547 
L 149.009207 282.038282 
L 149.147982 283.856785 
L 149.247108 290.987009 
L 149.372666 289.488959 
L 149.511441 281.18666 
L 149.709691 278.946464 
L 149.815425 286.998906 
L 150.251575 225.947508 
L 150.456434 289.070027 
L 150.568776 289.266923 
L 150.687726 287.836562 
L 150.747201 293.098183 
L 150.912409 275.839934 
L 150.978493 291.974406 
L 151.104051 289.47318 
L 151.282476 295.161724 
L 151.394818 288.99875 
L 151.70541 246.527413 
L 152.134952 253.663004 
L 152.280336 281.149873 
L 152.577711 288.623872 
L 152.709878 280.993918 
L 152.868478 279.097487 
L 153.086553 285.989313 
L 153.813471 155.701279 
L 153.945638 283.507857 
L 154.170321 289.324449 
L 154.302488 289.33507 
L 154.837763 234.010906 
L 155.00958 276.448491 
L 155.465556 289.16586 
L 155.921531 279.493644 
L 156.12639 290.795229 
L 156.331248 285.985388 
L 156.503065 284.7781 
L 156.72114 278.338268 
L 156.853307 290.220012 
L 157.005299 292.900164 
L 157.124249 285.412597 
L 157.514141 231.442412 
L 157.765258 290.702959 
L 157.870992 292.592408 
L 158.379834 234.702996 
L 158.716859 238.161194 
L 158.967976 249.1564 
L 159.053885 292.467426 
L 159.338043 249.598144 
L 159.721327 294.669686 
L 159.946011 291.586408 
L 160.230169 248.34074 
L 160.692753 208.871659 
L 161.168554 254.792916 
L 161.30072 281.389941 
L 161.432887 282.135611 
L 161.802954 225.293437 
L 162.305188 207.013904 
L 162.569522 250.581504 
L 163.170881 199.947251 
L 163.461648 245.939489 
L 164.043182 253.309966 
L 164.433074 232.182153 
L 164.915483 222.77557 
L 165.272333 224.129517 
L 165.748133 223.841954 
L 165.972817 254.459124 
L 166.983893 150.567119 
L 167.519169 196.80876 
L 167.770286 286.725883 
L 168.008186 290.697917 
L 168.556678 217.621031 
L 168.999437 228.057527 
L 169.18447 261.164122 
L 169.435587 251.23451 
L 169.607404 285.249801 
L 169.845304 290.364344 
L 170.089813 291.087855 
L 170.975331 209.690747 
L 171.530431 228.575386 
L 171.669206 280.113252 
L 172.09214 232.406532 
L 172.283782 294.975858 
L 172.984266 199.51013 
L 173.512933 255.104728 
L 174.028384 214.230465 
L 174.649568 211.882669 
L 174.96016 281.231197 
L 175.303794 224.070897 
L 175.51526 255.509484 
L 176.169486 241.894332 
L 176.387561 255.059581 
L 176.59242 257.571664 
L 177.088045 218.679975 
L 177.471329 227.884484 
L 177.729054 248.257845 
L 178.403105 203.943465 
L 179.004464 256.836353 
L 179.275406 242.382437 
L 179.942849 196.812715 
L 180.207182 247.586968 
L 180.821758 264.831034 
L 181.138958 228.245683 
L 181.502417 220.413792 
L 181.779967 245.938943 
L 182.136818 239.840399 
L 182.341676 256.690258 
L 182.546535 258.227035 
L 183.028943 249.094099 
L 183.471702 226.253283 
L 183.769078 238.285732 
L 184.192011 229.195684 
L 184.529037 246.751164 
L 184.707462 262.53939 
L 185.183262 181.246026 
L 185.460813 244.032418 
L 185.678888 250.554052 
L 185.87053 261.016469 
L 186.333114 187.235616 
L 186.557797 252.018957 
L 186.822131 248.952013 
L 187.198806 234.862046 
L 187.443315 256.141521 
L 187.912507 244.428321 
L 188.064499 266.988814 
L 188.712116 244.592489 
L 189.009491 238.673369 
L 189.300258 235.94328 
L 189.795884 253.411125 
L 190.159343 233.696738 
L 190.430285 243.450268 
L 190.701227 242.975677 
L 190.899477 259.204347 
L 191.401711 207.854495 
L 191.626394 255.871446 
L 191.857686 252.658123 
L 192.214537 233.03686 
L 192.452437 252.180177 
L 192.822504 218.315615 
L 193.093446 244.104703 
L 193.397429 252.116674 
L 193.959138 162.517602 
L 194.124347 264.764269 
L 194.771964 232.892826 
L 195.300632 167.743815 
L 195.479057 262.395158 
L 195.968074 193.028991 
L 196.166324 256.726282 
L 196.331533 265.006926 
L 196.7809 223.756796 
L 196.97915 258.543324 
L 197.197225 252.285807 
L 197.481384 239.208576 
L 197.666417 261.296002 
L 197.937359 242.134488 
L 198.406551 244.568451 
L 199.014519 149.765581 
L 199.192944 261.076768 
L 199.424236 250.691834 
L 199.668745 245.466093 
L 199.853778 261.217703 
L 200.137937 238.299261 
L 200.474962 225.698862 
L 200.659996 260.264529 
L 200.917721 252.873211 
L 201.129188 256.896133 
L 201.327438 257.285026 
L 201.59838 242.661257 
L 201.803238 254.78818 
L 202.285647 246.25776 
L 202.708581 259.200095 
L 202.926656 255.428662 
L 203.237248 230.524221 
L 203.660182 263.99598 
L 204.003816 225.070265 
L 204.281366 239.552057 
L 204.572133 239.327448 
L 205.001675 198.714514 
L 206.660369 53.568 
L 207.083302 206.710463 
L 207.618578 170.940443 
L 207.935778 229.100263 
L 208.40497 191.628091 
L 208.966679 159.545649 
L 209.217796 244.940026 
L 209.501955 237.360183 
L 210.037231 160.675833 
L 210.314781 240.525714 
L 210.764148 198.341096 
L 211.306032 159.759972 
L 211.854524 159.021767 
L 212.3898 162.514797 
L 212.931684 158.693299 
L 213.460351 166.609616 
L 214.002235 159.029092 
L 214.530902 164.637702 
L 215.066178 160.828026 
L 215.634495 150.529872 
L 216.176379 168.692625 
L 216.440712 240.891792 
L 216.989205 166.192005 
L 217.161021 262.934225 
L 217.696297 165.023506 
L 218.224964 171.797342 
L 218.773456 160.928709 
L 219.341774 152.253392 
L 219.870441 168.443185 
L 220.399108 164.215304 
L 220.954209 161.759226 
L 221.509309 161.644539 
L 222.06441 166.113845 
L 222.619511 165.402519 
L 223.148178 177.115199 
L 223.676845 166.088027 
L 224.212121 166.381705 
L 224.754005 162.194692 
L 225.295888 173.299542 
L 225.850989 168.344469 
L 226.340006 187.89273 
L 226.829023 188.12266 
L 227.377516 168.454317 
L 227.939225 166.211152 
L 228.507542 164.732819 
L 229.069251 163.795563 
L 229.617743 166.191767 
L 230.159627 173.527846 
L 230.708119 167.545098 
L 231.791887 174.033294 
L 232.346988 166.819783 
L 232.875655 177.086175 
L 233.33163 198.25766 
L 233.893339 161.161882 
L 234.455048 166.242669 
L 235.029974 160.032722 
L 235.591683 165.156998 
L 236.166608 148.303827 
L 236.748142 162.622315 
L 237.296635 168.820855 
L 237.845127 167.700653 
L 238.380402 163.825537 
L 238.915678 173.707179 
L 239.457562 166.361445 
L 240.006054 161.192924 
L 240.554546 168.695645 
L 241.083214 166.935613 
L 241.631706 168.458428 
L 242.160373 166.81113 
L 242.708865 166.81211 
L 243.263966 167.601773 
L 243.819066 164.241152 
L 243.96445 267.770883 
L 244.493117 176.011308 
L 245.035001 173.577123 
L 245.59671 165.636063 
L 246.125377 166.916511 
L 246.693695 167.155376 
L 247.262012 166.980845 
L 247.810504 171.727932 
L 248.352388 172.738272 
L 248.907489 169.83495 
L 249.429547 178.366377 
L 249.991256 168.462042 
L 250.53314 173.343178 
L 251.075024 173.570919 
L 251.636733 169.443654 
L 252.172009 175.071982 
L 252.720501 171.57919 
L 253.262385 166.191678 
L 253.817485 166.498759 
L 254.359369 165.709756 
L 254.894645 166.683301 
L 255.462962 165.096352 
L 255.786771 226.423305 
L 256.282396 187.013827 
L 256.74498 193.706506 
L 257.293472 172.72999 
L 257.841965 167.567243 
L 258.364024 179.313102 
L 258.905908 169.170934 
L 259.427966 178.243794 
L 259.976459 172.002218 
L 260.544776 168.275006 
L 261.106485 168.564128 
L 261.64176 175.587486 
L 262.124169 190.443258 
L 262.659445 174.613696 
L 263.207937 167.941136 
L 263.696954 186.508513 
L 264.225622 176.825254 
L 264.410655 258.954038 
L 264.655164 244.23579 
L 265.210264 167.25594 
L 265.765365 167.775228 
L 266.320465 168.914822 
L 266.849133 176.804824 
L 267.397625 172.061061 
L 267.952725 169.972442 
L 268.217059 240.822991 
L 268.679643 195.400809 
L 269.115793 202.147284 
L 269.44621 224.962349 
L 269.994703 173.920574 
L 270.424245 202.681534 
L 270.807529 215.567704 
L 271.349412 168.487259 
L 271.87808 176.361431 
L 272.419964 172.602205 
L 272.961847 172.231584 
L 273.497123 168.860143 
L 274.02579 175.234728 
L 274.580891 165.952754 
L 275.129383 170.939642 
L 275.684484 165.736494 
L 276.219759 175.645735 
L 276.755035 174.689881 
L 277.283702 175.890507 
L 277.852019 167.613529 
L 278.975437 168.436187 
L 279.543754 165.2062 
L 280.112072 166.704919 
L 280.673781 168.787326 
L 281.209056 167.902872 
L 281.770765 165.549889 
L 282.306041 175.772006 
L 282.841316 174.848999 
L 283.363375 179.332241 
L 283.898651 175.440666 
L 284.453751 169.14982 
L 285.01546 169.195119 
L 285.577169 168.236543 
L 286.138878 168.657003 
L 286.654329 180.435279 
L 287.216038 167.754078 
L 287.76453 166.547516 
L 288.326239 167.631035 
L 288.861514 174.59895 
L 289.390182 176.372118 
L 289.918849 176.8758 
L 290.440908 178.73794 
L 290.976183 175.676377 
L 291.518067 174.092404 
L 292.059951 174.080893 
L 292.258201 254.905411 
L 292.826519 168.053937 
L 293.361794 175.16183 
L 293.903678 173.634414 
L 294.438954 175.431827 
L 295.549155 168.389263 
L 296.110864 167.129424 
L 296.679181 167.184296 
L 297.247498 167.649781 
L 297.815816 167.733106 
L 298.344483 178.201679 
L 299.441467 170.044494 
L 299.95031 182.795742 
L 300.46576 180.236414 
L 301.020861 171.764385 
L 301.575961 170.457555 
L 302.111237 175.060361 
L 302.666337 170.616383 
L 303.234655 167.797922 
L 303.796364 168.937902 
L 304.338248 175.203908 
L 304.860306 179.540754 
L 305.388974 177.843883 
L 305.917641 177.363912 
L 306.4397 179.710476 
L 306.974975 175.424614 
L 307.503643 177.401181 
L 308.058743 169.563855 
L 308.62706 166.676199 
L 309.175553 170.507552 
L 309.710828 175.561222 
L 310.21967 182.935854 
L 310.715296 186.362108 
L 311.25718 174.56249 
L 311.77263 180.597386 
L 312.294689 179.382334 
L 312.829965 175.809201 
L 313.371849 173.97204 
L 313.920341 171.63755 
L 314.488658 166.527813 
L 315.010717 178.447364 
L 315.565818 170.327633 
L 316.107702 173.931105 
L 316.642977 175.425304 
L 317.178253 175.525222 
L 317.713528 175.771842 
L 318.262021 172.303006 
L 318.843555 163.14538 
L 319.405264 169.325524 
L 319.947147 173.932389 
L 320.469206 179.528323 
L 320.958224 187.922779 
L 321.493499 176.052437 
L 321.817308 227.056141 
L 322.312933 186.382895 
L 322.881251 168.190554 
L 323.462785 162.620593 
L 324.004668 174.54016 
L 324.546552 174.19814 
L 325.108261 168.507222 
L 325.676579 166.298387 
L 326.211854 175.302699 
L 326.773563 168.598799 
L 327.335272 168.185092 
L 327.863939 177.291192 
L 328.412431 172.135592 
L 328.97414 168.095251 
L 329.509416 175.196747 
L 330.0513 173.732782 
L 330.6064 171.183798 
L 331.168109 169.975135 
L 331.703385 178.224203 
L 332.251877 172.560349 
L 332.793761 175.052316 
L 333.309212 183.382838 
L 333.844487 179.096568 
L 334.399588 167.825336 
L 334.558188 263.540616 
L 334.74983 255.520385 
L 334.915038 262.29038 
L 335.397447 190.205439 
L 335.906289 182.774488 
L 336.474607 167.303547 
L 336.996666 179.153785 
L 337.525333 178.158592 
L 338.073825 172.544483 
L 338.642142 167.965403 
L 339.17081 178.01828 
L 339.72591 171.04356 
L 340.247969 179.276516 
L 340.770028 180.708748 
L 341.311912 174.503929 
L 341.847187 175.960956 
L 342.362638 182.075816 
L 342.91113 173.409204 
L 343.446406 175.810677 
L 344.021331 165.366831 
L 344.609474 161.110386 
L 345.197616 160.322474 
L 345.77915 162.079976 
L 346.373901 158.258382 
L 346.948826 163.118249 
L 347.457668 182.251059 
L 347.992944 176.348994 
L 348.508395 180.829958 
L 349.050278 174.073168 
L 349.598771 172.594227 
L 350.140655 174.075521 
L 350.682539 174.129443 
L 351.231031 171.782099 
L 351.772915 173.637709 
L 352.328015 170.696532 
L 352.856683 176.601833 
L 353.418391 168.376016 
L 353.947059 177.633307 
L 354.528593 163.27675 
L 355.090302 169.432122 
L 355.645402 171.105059 
L 356.193894 171.782834 
L 356.742387 171.889246 
L 357.304096 168.629181 
L 357.879021 166.771316 
L 358.427513 172.305284 
L 358.949572 179.121302 
L 360.006907 176.801492 
L 360.562007 171.972541 
L 360.938683 214.918567 
L 361.30875 216.683137 
L 361.870459 168.84818 
L 362.432168 169.768864 
L 362.974052 173.801717 
L 363.390377 207.108665 
L 363.958694 165.89527 
L 364.520403 166.50005 
L 365.115154 157.99968 
L 365.551304 201.261027 
L 366.079972 177.864699 
L 366.621855 173.269753 
L 367.163739 173.268402 
L 367.71884 169.89049 
L 368.273941 170.177369 
L 368.829041 171.689127 
L 369.397358 167.430523 
L 370.553818 163.97632 
L 371.135352 163.460038 
L 371.677236 172.040667 
L 372.245553 167.191316 
L 372.81387 167.106856 
L 373.375579 167.941136 
L 373.924072 172.239146 
L 374.485781 168.447682 
L 374.657597 260.751942 
L 374.855848 254.630768 
L 375.424165 163.565485 
L 375.972657 171.03225 
L 376.547583 159.611564 
L 376.99695 194.421164 
L 377.657784 133.915307 
L 378.146801 185.46414 
L 378.721727 163.531244 
L 379.250394 176.647117 
L 379.798886 170.965259 
L 380.353987 170.063722 
L 380.942129 161.09737 
L 381.490621 171.119738 
L 382.045722 170.490914 
L 382.620648 166.516636 
L 383.155923 174.35961 
L 384.867483 161.644576 
L 385.429192 165.389859 
L 385.997509 163.572832 
L 387.041627 182.415185 
L 387.62977 159.953954 
L 388.217912 159.613256 
L 389.486713 133.329228 
L 390.147547 128.871506 
L 390.788556 137.762044 
L 391.422957 141.35169 
L 392.063966 140.268111 
L 392.625675 167.711636 
L 393.207209 158.34279 
L 393.782134 161.807152 
L 394.363668 160.060418 
L 394.931986 163.919511 
L 395.51352 159.186472 
L 396.06862 169.389754 
L 396.630329 166.536443 
L 397.073088 200.850236 
L 397.535672 195.310672 
L 397.965214 203.063174 
L 398.487273 180.84509 
L 398.487273 180.84509 
" clip-path="url(#pfc9c4cd292)" style="fill: none; stroke: #1f77b4; stroke-width: 1.5; stroke-linecap: square"/>
   </g>
   <g id="patch_3">
    <path d="M 57.6 307.584 
L 57.6 41.472 
" style="fill: none; stroke: #000000; stroke-width: 0.8; stroke-linejoin: miter; stroke-linecap: square"/>
   </g>
   <g id="patch_4">
    <path d="M 414.72 307.584 
L 414.72 41.472 
" style="fill: none; stroke: #000000; stroke-width: 0.8; stroke-linejoin: miter; stroke-linecap: square"/>
   </g>
   <g id="patch_5">
    <path d="M 57.6 307.584 
L 414.72 307.584 
" style="fill: none; stroke: #000000; stroke-width: 0.8; stroke-linejoin: miter; stroke-linecap: square"/>
   </g>
   <g id="patch_6">
    <path d="M 57.6 41.472 
L 414.72 41.472 
" style="fill: none; stroke: #000000; stroke-width: 0.8; stroke-linejoin: miter; stroke-linecap: square"/>
   </g>
   <g id="text_16">
    <!-- learning curve -->
    <g transform="translate(192.96375 35.472) scale(0.12 -0.12)">
     <defs>
      <path id="DejaVuSans-6c" d="M 603 4863 
L 1178 4863 
L 1178 0 
L 603 0 
L 603 4863 
z
" transform="scale(0.015625)"/>
      <path id="DejaVuSans-6e" d="M 3513 2113 
L 3513 0 
L 2938 0 
L 2938 2094 
Q 2938 2591 2744 2837 
Q 2550 3084 2163 3084 
Q 1697 3084 1428 2787 
Q 1159 2491 1159 1978 
L 1159 0 
L 581 0 
L 581 3500 
L 1159 3500 
L 1159 2956 
Q 1366 3272 1645 3428 
Q 1925 3584 2291 3584 
Q 2894 3584 3203 3211 
Q 3513 2838 3513 2113 
z
" transform="scale(0.015625)"/>
      <path id="DejaVuSans-67" d="M 2906 1791 
Q 2906 2416 2648 2759 
Q 2391 3103 1925 3103 
Q 1463 3103 1205 2759 
Q 947 2416 947 1791 
Q 947 1169 1205 825 
Q 1463 481 1925 481 
Q 2391 481 2648 825 
Q 2906 1169 2906 1791 
z
M 3481 434 
Q 3481 -459 3084 -895 
Q 2688 -1331 1869 -1331 
Q 1566 -1331 1297 -1286 
Q 1028 -1241 775 -1147 
L 775 -588 
Q 1028 -725 1275 -790 
Q 1522 -856 1778 -856 
Q 2344 -856 2625 -561 
Q 2906 -266 2906 331 
L 2906 616 
Q 2728 306 2450 153 
Q 2172 0 1784 0 
Q 1141 0 747 490 
Q 353 981 353 1791 
Q 353 2603 747 3093 
Q 1141 3584 1784 3584 
Q 2172 3584 2450 3431 
Q 2728 3278 2906 2969 
L 2906 3500 
L 3481 3500 
L 3481 434 
z
" transform="scale(0.015625)"/>
      <path id="DejaVuSans-20" transform="scale(0.015625)"/>
      <path id="DejaVuSans-63" d="M 3122 3366 
L 3122 2828 
Q 2878 2963 2633 3030 
Q 2388 3097 2138 3097 
Q 1578 3097 1268 2742 
Q 959 2388 959 1747 
Q 959 1106 1268 751 
Q 1578 397 2138 397 
Q 2388 397 2633 464 
Q 2878 531 3122 666 
L 3122 134 
Q 2881 22 2623 -34 
Q 2366 -91 2075 -91 
Q 1284 -91 818 406 
Q 353 903 353 1747 
Q 353 2603 823 3093 
Q 1294 3584 2113 3584 
Q 2378 3584 2631 3529 
Q 2884 3475 3122 3366 
z
" transform="scale(0.015625)"/>
      <path id="DejaVuSans-75" d="M 544 1381 
L 544 3500 
L 1119 3500 
L 1119 1403 
Q 1119 906 1312 657 
Q 1506 409 1894 409 
Q 2359 409 2629 706 
Q 2900 1003 2900 1516 
L 2900 3500 
L 3475 3500 
L 3475 0 
L 2900 0 
L 2900 538 
Q 2691 219 2414 64 
Q 2138 -91 1772 -91 
Q 1169 -91 856 284 
Q 544 659 544 1381 
z
M 1991 3584 
L 1991 3584 
z
" transform="scale(0.015625)"/>
      <path id="DejaVuSans-76" d="M 191 3500 
L 800 3500 
L 1894 563 
L 2988 3500 
L 3597 3500 
L 2284 0 
L 1503 0 
L 191 3500 
z
" transform="scale(0.015625)"/>
     </defs>
     <use xlink:href="#DejaVuSans-6c"/>
     <use xlink:href="#DejaVuSans-65" x="27.783203"/>
     <use xlink:href="#DejaVuSans-61" x="89.306641"/>
     <use xlink:href="#DejaVuSans-72" x="150.585938"/>
     <use xlink:href="#DejaVuSans-6e" x="189.949219"/>
     <use xlink:href="#DejaVuSans-69" x="253.328125"/>
     <use xlink:href="#DejaVuSans-6e" x="281.111328"/>
     <use xlink:href="#DejaVuSans-67" x="344.490234"/>
     <use xlink:href="#DejaVuSans-20" x="407.966797"/>
     <use xlink:href="#DejaVuSans-63" x="439.753906"/>
     <use xlink:href="#DejaVuSans-75" x="494.734375"/>
     <use xlink:href="#DejaVuSans-72" x="558.113281"/>
     <use xlink:href="#DejaVuSans-76" x="599.226562"/>
     <use xlink:href="#DejaVuSans-65" x="658.40625"/>
    </g>
   </g>
  </g>
 </g>
 <defs>
  <clipPath id="pfc9c4cd292">
   <rect x="57.6" y="41.472" width="357.12" height="266.112"/>
  </clipPath>
 </defs>
</svg>
