<?xml version="1.0" encoding="utf-8" standalone="no"?>
<!DOCTYPE svg PUBLIC "-//W3C//DTD SVG 1.1//EN"
  "http://www.w3.org/Graphics/SVG/1.1/DTD/svg11.dtd">
<svg xmlns:xlink="http://www.w3.org/1999/xlink" width="460.8pt" height="345.6pt" viewBox="0 0 460.8 345.6" xmlns="http://www.w3.org/2000/svg" version="1.1">
 <metadata>
  <rdf:RDF xmlns:dc="http://purl.org/dc/elements/1.1/" xmlns:cc="http://creativecommons.org/ns#" xmlns:rdf="http://www.w3.org/1999/02/22-rdf-syntax-ns#">
   <cc:Work>
    <dc:type rdf:resource="http://purl.org/dc/dcmitype/StillImage"/>
    <dc:date>2023-08-18T16:40:35.770425</dc:date>
    <dc:format>image/svg+xml</dc:format>
    <dc:creator>
     <cc:Agent>
      <dc:title>Matplotlib v3.7.1, https://matplotlib.org/</dc:title>
     </cc:Agent>
    </dc:creator>
   </cc:Work>
  </rdf:RDF>
 </metadata>
 <defs>
  <style type="text/css">*{stroke-linejoin: round; stroke-linecap: butt}</style>
 </defs>
 <g id="figure_1">
  <g id="patch_1">
   <path d="M 0 345.6 
L 460.8 345.6 
L 460.8 0 
L 0 0 
z
" style="fill: #ffffff"/>
  </g>
  <g id="axes_1">
   <g id="patch_2">
    <path d="M 57.6 307.584 
L 414.72 307.584 
L 414.72 41.472 
L 57.6 41.472 
z
" style="fill: #ffffff"/>
   </g>
   <g id="matplotlib.axis_1">
    <g id="xtick_1">
     <g id="line2d_1">
      <defs>
       <path id="m371427bdb0" d="M 0 0 
L 0 3.5 
" style="stroke: #000000; stroke-width: 0.8"/>
      </defs>
      <g>
       <use xlink:href="#m371427bdb0" x="73.773252" y="307.584" style="stroke: #000000; stroke-width: 0.8"/>
      </g>
     </g>
     <g id="text_1">
      <!-- 0 -->
      <g transform="translate(70.592002 322.182437) scale(0.1 -0.1)">
       <defs>
        <path id="DejaVuSans-30" d="M 2034 4250 
Q 1547 4250 1301 3770 
Q 1056 3291 1056 2328 
Q 1056 1369 1301 889 
Q 1547 409 2034 409 
Q 2525 409 2770 889 
Q 3016 1369 3016 2328 
Q 3016 3291 2770 3770 
Q 2525 4250 2034 4250 
z
M 2034 4750 
Q 2819 4750 3233 4129 
Q 3647 3509 3647 2328 
Q 3647 1150 3233 529 
Q 2819 -91 2034 -91 
Q 1250 -91 836 529 
Q 422 1150 422 2328 
Q 422 3509 836 4129 
Q 1250 4750 2034 4750 
z
" transform="scale(0.015625)"/>
       </defs>
       <use xlink:href="#DejaVuSans-30"/>
      </g>
     </g>
    </g>
    <g id="xtick_2">
     <g id="line2d_2">
      <g>
       <use xlink:href="#m371427bdb0" x="139.856656" y="307.584" style="stroke: #000000; stroke-width: 0.8"/>
      </g>
     </g>
     <g id="text_2">
      <!-- 10000 -->
      <g transform="translate(123.950406 322.182437) scale(0.1 -0.1)">
       <defs>
        <path id="DejaVuSans-31" d="M 794 531 
L 1825 531 
L 1825 4091 
L 703 3866 
L 703 4441 
L 1819 4666 
L 2450 4666 
L 2450 531 
L 3481 531 
L 3481 0 
L 794 0 
L 794 531 
z
" transform="scale(0.015625)"/>
       </defs>
       <use xlink:href="#DejaVuSans-31"/>
       <use xlink:href="#DejaVuSans-30" x="63.623047"/>
       <use xlink:href="#DejaVuSans-30" x="127.246094"/>
       <use xlink:href="#DejaVuSans-30" x="190.869141"/>
       <use xlink:href="#DejaVuSans-30" x="254.492188"/>
      </g>
     </g>
    </g>
    <g id="xtick_3">
     <g id="line2d_3">
      <g>
       <use xlink:href="#m371427bdb0" x="205.94006" y="307.584" style="stroke: #000000; stroke-width: 0.8"/>
      </g>
     </g>
     <g id="text_3">
      <!-- 20000 -->
      <g transform="translate(190.03381 322.182437) scale(0.1 -0.1)">
       <defs>
        <path id="DejaVuSans-32" d="M 1228 531 
L 3431 531 
L 3431 0 
L 469 0 
L 469 531 
Q 828 903 1448 1529 
Q 2069 2156 2228 2338 
Q 2531 2678 2651 2914 
Q 2772 3150 2772 3378 
Q 2772 3750 2511 3984 
Q 2250 4219 1831 4219 
Q 1534 4219 1204 4116 
Q 875 4013 500 3803 
L 500 4441 
Q 881 4594 1212 4672 
Q 1544 4750 1819 4750 
Q 2544 4750 2975 4387 
Q 3406 4025 3406 3419 
Q 3406 3131 3298 2873 
Q 3191 2616 2906 2266 
Q 2828 2175 2409 1742 
Q 1991 1309 1228 531 
z
" transform="scale(0.015625)"/>
       </defs>
       <use xlink:href="#DejaVuSans-32"/>
       <use xlink:href="#DejaVuSans-30" x="63.623047"/>
       <use xlink:href="#DejaVuSans-30" x="127.246094"/>
       <use xlink:href="#DejaVuSans-30" x="190.869141"/>
       <use xlink:href="#DejaVuSans-30" x="254.492188"/>
      </g>
     </g>
    </g>
    <g id="xtick_4">
     <g id="line2d_4">
      <g>
       <use xlink:href="#m371427bdb0" x="272.023463" y="307.584" style="stroke: #000000; stroke-width: 0.8"/>
      </g>
     </g>
     <g id="text_4">
      <!-- 30000 -->
      <g transform="translate(256.117213 322.182437) scale(0.1 -0.1)">
       <defs>
        <path id="DejaVuSans-33" d="M 2597 2516 
Q 3050 2419 3304 2112 
Q 3559 1806 3559 1356 
Q 3559 666 3084 287 
Q 2609 -91 1734 -91 
Q 1441 -91 1130 -33 
Q 819 25 488 141 
L 488 750 
Q 750 597 1062 519 
Q 1375 441 1716 441 
Q 2309 441 2620 675 
Q 2931 909 2931 1356 
Q 2931 1769 2642 2001 
Q 2353 2234 1838 2234 
L 1294 2234 
L 1294 2753 
L 1863 2753 
Q 2328 2753 2575 2939 
Q 2822 3125 2822 3475 
Q 2822 3834 2567 4026 
Q 2313 4219 1838 4219 
Q 1578 4219 1281 4162 
Q 984 4106 628 3988 
L 628 4550 
Q 988 4650 1302 4700 
Q 1616 4750 1894 4750 
Q 2613 4750 3031 4423 
Q 3450 4097 3450 3541 
Q 3450 3153 3228 2886 
Q 3006 2619 2597 2516 
z
" transform="scale(0.015625)"/>
       </defs>
       <use xlink:href="#DejaVuSans-33"/>
       <use xlink:href="#DejaVuSans-30" x="63.623047"/>
       <use xlink:href="#DejaVuSans-30" x="127.246094"/>
       <use xlink:href="#DejaVuSans-30" x="190.869141"/>
       <use xlink:href="#DejaVuSans-30" x="254.492188"/>
      </g>
     </g>
    </g>
    <g id="xtick_5">
     <g id="line2d_5">
      <g>
       <use xlink:href="#m371427bdb0" x="338.106867" y="307.584" style="stroke: #000000; stroke-width: 0.8"/>
      </g>
     </g>
     <g id="text_5">
      <!-- 40000 -->
      <g transform="translate(322.200617 322.182437) scale(0.1 -0.1)">
       <defs>
        <path id="DejaVuSans-34" d="M 2419 4116 
L 825 1625 
L 2419 1625 
L 2419 4116 
z
M 2253 4666 
L 3047 4666 
L 3047 1625 
L 3713 1625 
L 3713 1100 
L 3047 1100 
L 3047 0 
L 2419 0 
L 2419 1100 
L 313 1100 
L 313 1709 
L 2253 4666 
z
" transform="scale(0.015625)"/>
       </defs>
       <use xlink:href="#DejaVuSans-34"/>
       <use xlink:href="#DejaVuSans-30" x="63.623047"/>
       <use xlink:href="#DejaVuSans-30" x="127.246094"/>
       <use xlink:href="#DejaVuSans-30" x="190.869141"/>
       <use xlink:href="#DejaVuSans-30" x="254.492188"/>
      </g>
     </g>
    </g>
    <g id="xtick_6">
     <g id="line2d_6">
      <g>
       <use xlink:href="#m371427bdb0" x="404.19027" y="307.584" style="stroke: #000000; stroke-width: 0.8"/>
      </g>
     </g>
     <g id="text_6">
      <!-- 50000 -->
      <g transform="translate(388.28402 322.182437) scale(0.1 -0.1)">
       <defs>
        <path id="DejaVuSans-35" d="M 691 4666 
L 3169 4666 
L 3169 4134 
L 1269 4134 
L 1269 2991 
Q 1406 3038 1543 3061 
Q 1681 3084 1819 3084 
Q 2600 3084 3056 2656 
Q 3513 2228 3513 1497 
Q 3513 744 3044 326 
Q 2575 -91 1722 -91 
Q 1428 -91 1123 -41 
Q 819 9 494 109 
L 494 744 
Q 775 591 1075 516 
Q 1375 441 1709 441 
Q 2250 441 2565 725 
Q 2881 1009 2881 1497 
Q 2881 1984 2565 2268 
Q 2250 2553 1709 2553 
Q 1456 2553 1204 2497 
Q 953 2441 691 2322 
L 691 4666 
z
" transform="scale(0.015625)"/>
       </defs>
       <use xlink:href="#DejaVuSans-35"/>
       <use xlink:href="#DejaVuSans-30" x="63.623047"/>
       <use xlink:href="#DejaVuSans-30" x="127.246094"/>
       <use xlink:href="#DejaVuSans-30" x="190.869141"/>
       <use xlink:href="#DejaVuSans-30" x="254.492188"/>
      </g>
     </g>
    </g>
    <g id="text_7">
     <!-- timesteps -->
     <g transform="translate(211.443594 335.860562) scale(0.1 -0.1)">
      <defs>
       <path id="DejaVuSans-74" d="M 1172 4494 
L 1172 3500 
L 2356 3500 
L 2356 3053 
L 1172 3053 
L 1172 1153 
Q 1172 725 1289 603 
Q 1406 481 1766 481 
L 2356 481 
L 2356 0 
L 1766 0 
Q 1100 0 847 248 
Q 594 497 594 1153 
L 594 3053 
L 172 3053 
L 172 3500 
L 594 3500 
L 594 4494 
L 1172 4494 
z
" transform="scale(0.015625)"/>
       <path id="DejaVuSans-69" d="M 603 3500 
L 1178 3500 
L 1178 0 
L 603 0 
L 603 3500 
z
M 603 4863 
L 1178 4863 
L 1178 4134 
L 603 4134 
L 603 4863 
z
" transform="scale(0.015625)"/>
       <path id="DejaVuSans-6d" d="M 3328 2828 
Q 3544 3216 3844 3400 
Q 4144 3584 4550 3584 
Q 5097 3584 5394 3201 
Q 5691 2819 5691 2113 
L 5691 0 
L 5113 0 
L 5113 2094 
Q 5113 2597 4934 2840 
Q 4756 3084 4391 3084 
Q 3944 3084 3684 2787 
Q 3425 2491 3425 1978 
L 3425 0 
L 2847 0 
L 2847 2094 
Q 2847 2600 2669 2842 
Q 2491 3084 2119 3084 
Q 1678 3084 1418 2786 
Q 1159 2488 1159 1978 
L 1159 0 
L 581 0 
L 581 3500 
L 1159 3500 
L 1159 2956 
Q 1356 3278 1631 3431 
Q 1906 3584 2284 3584 
Q 2666 3584 2933 3390 
Q 3200 3197 3328 2828 
z
" transform="scale(0.015625)"/>
       <path id="DejaVuSans-65" d="M 3597 1894 
L 3597 1613 
L 953 1613 
Q 991 1019 1311 708 
Q 1631 397 2203 397 
Q 2534 397 2845 478 
Q 3156 559 3463 722 
L 3463 178 
Q 3153 47 2828 -22 
Q 2503 -91 2169 -91 
Q 1331 -91 842 396 
Q 353 884 353 1716 
Q 353 2575 817 3079 
Q 1281 3584 2069 3584 
Q 2775 3584 3186 3129 
Q 3597 2675 3597 1894 
z
M 3022 2063 
Q 3016 2534 2758 2815 
Q 2500 3097 2075 3097 
Q 1594 3097 1305 2825 
Q 1016 2553 972 2059 
L 3022 2063 
z
" transform="scale(0.015625)"/>
       <path id="DejaVuSans-73" d="M 2834 3397 
L 2834 2853 
Q 2591 2978 2328 3040 
Q 2066 3103 1784 3103 
Q 1356 3103 1142 2972 
Q 928 2841 928 2578 
Q 928 2378 1081 2264 
Q 1234 2150 1697 2047 
L 1894 2003 
Q 2506 1872 2764 1633 
Q 3022 1394 3022 966 
Q 3022 478 2636 193 
Q 2250 -91 1575 -91 
Q 1294 -91 989 -36 
Q 684 19 347 128 
L 347 722 
Q 666 556 975 473 
Q 1284 391 1588 391 
Q 1994 391 2212 530 
Q 2431 669 2431 922 
Q 2431 1156 2273 1281 
Q 2116 1406 1581 1522 
L 1381 1569 
Q 847 1681 609 1914 
Q 372 2147 372 2553 
Q 372 3047 722 3315 
Q 1072 3584 1716 3584 
Q 2034 3584 2315 3537 
Q 2597 3491 2834 3397 
z
" transform="scale(0.015625)"/>
       <path id="DejaVuSans-70" d="M 1159 525 
L 1159 -1331 
L 581 -1331 
L 581 3500 
L 1159 3500 
L 1159 2969 
Q 1341 3281 1617 3432 
Q 1894 3584 2278 3584 
Q 2916 3584 3314 3078 
Q 3713 2572 3713 1747 
Q 3713 922 3314 415 
Q 2916 -91 2278 -91 
Q 1894 -91 1617 61 
Q 1341 213 1159 525 
z
M 3116 1747 
Q 3116 2381 2855 2742 
Q 2594 3103 2138 3103 
Q 1681 3103 1420 2742 
Q 1159 2381 1159 1747 
Q 1159 1113 1420 752 
Q 1681 391 2138 391 
Q 2594 391 2855 752 
Q 3116 1113 3116 1747 
z
" transform="scale(0.015625)"/>
      </defs>
      <use xlink:href="#DejaVuSans-74"/>
      <use xlink:href="#DejaVuSans-69" x="39.208984"/>
      <use xlink:href="#DejaVuSans-6d" x="66.992188"/>
      <use xlink:href="#DejaVuSans-65" x="164.404297"/>
      <use xlink:href="#DejaVuSans-73" x="225.927734"/>
      <use xlink:href="#DejaVuSans-74" x="278.027344"/>
      <use xlink:href="#DejaVuSans-65" x="317.236328"/>
      <use xlink:href="#DejaVuSans-70" x="378.759766"/>
      <use xlink:href="#DejaVuSans-73" x="442.236328"/>
     </g>
    </g>
   </g>
   <g id="matplotlib.axis_2">
    <g id="ytick_1">
     <g id="line2d_7">
      <defs>
       <path id="m8247ffd7eb" d="M 0 0 
L -3.5 0 
" style="stroke: #000000; stroke-width: 0.8"/>
      </defs>
      <g>
       <use xlink:href="#m8247ffd7eb" x="57.6" y="296.502439" style="stroke: #000000; stroke-width: 0.8"/>
      </g>
     </g>
     <g id="text_8">
      <!-- 0 -->
      <g transform="translate(44.2375 300.301658) scale(0.1 -0.1)">
       <use xlink:href="#DejaVuSans-30"/>
      </g>
     </g>
    </g>
    <g id="ytick_2">
     <g id="line2d_8">
      <g>
       <use xlink:href="#m8247ffd7eb" x="57.6" y="258.56145" style="stroke: #000000; stroke-width: 0.8"/>
      </g>
     </g>
     <g id="text_9">
      <!-- 50 -->
      <g transform="translate(37.875 262.360669) scale(0.1 -0.1)">
       <use xlink:href="#DejaVuSans-35"/>
       <use xlink:href="#DejaVuSans-30" x="63.623047"/>
      </g>
     </g>
    </g>
    <g id="ytick_3">
     <g id="line2d_9">
      <g>
       <use xlink:href="#m8247ffd7eb" x="57.6" y="220.620461" style="stroke: #000000; stroke-width: 0.8"/>
      </g>
     </g>
     <g id="text_10">
      <!-- 100 -->
      <g transform="translate(31.5125 224.41968) scale(0.1 -0.1)">
       <use xlink:href="#DejaVuSans-31"/>
       <use xlink:href="#DejaVuSans-30" x="63.623047"/>
       <use xlink:href="#DejaVuSans-30" x="127.246094"/>
      </g>
     </g>
    </g>
    <g id="ytick_4">
     <g id="line2d_10">
      <g>
       <use xlink:href="#m8247ffd7eb" x="57.6" y="182.679472" style="stroke: #000000; stroke-width: 0.8"/>
      </g>
     </g>
     <g id="text_11">
      <!-- 150 -->
      <g transform="translate(31.5125 186.47869) scale(0.1 -0.1)">
       <use xlink:href="#DejaVuSans-31"/>
       <use xlink:href="#DejaVuSans-35" x="63.623047"/>
       <use xlink:href="#DejaVuSans-30" x="127.246094"/>
      </g>
     </g>
    </g>
    <g id="ytick_5">
     <g id="line2d_11">
      <g>
       <use xlink:href="#m8247ffd7eb" x="57.6" y="144.738482" style="stroke: #000000; stroke-width: 0.8"/>
      </g>
     </g>
     <g id="text_12">
      <!-- 200 -->
      <g transform="translate(31.5125 148.537701) scale(0.1 -0.1)">
       <use xlink:href="#DejaVuSans-32"/>
       <use xlink:href="#DejaVuSans-30" x="63.623047"/>
       <use xlink:href="#DejaVuSans-30" x="127.246094"/>
      </g>
     </g>
    </g>
    <g id="ytick_6">
     <g id="line2d_12">
      <g>
       <use xlink:href="#m8247ffd7eb" x="57.6" y="106.797493" style="stroke: #000000; stroke-width: 0.8"/>
      </g>
     </g>
     <g id="text_13">
      <!-- 250 -->
      <g transform="translate(31.5125 110.596712) scale(0.1 -0.1)">
       <use xlink:href="#DejaVuSans-32"/>
       <use xlink:href="#DejaVuSans-35" x="63.623047"/>
       <use xlink:href="#DejaVuSans-30" x="127.246094"/>
      </g>
     </g>
    </g>
    <g id="ytick_7">
     <g id="line2d_13">
      <g>
       <use xlink:href="#m8247ffd7eb" x="57.6" y="68.856504" style="stroke: #000000; stroke-width: 0.8"/>
      </g>
     </g>
     <g id="text_14">
      <!-- 300 -->
      <g transform="translate(31.5125 72.655722) scale(0.1 -0.1)">
       <use xlink:href="#DejaVuSans-33"/>
       <use xlink:href="#DejaVuSans-30" x="63.623047"/>
       <use xlink:href="#DejaVuSans-30" x="127.246094"/>
      </g>
     </g>
    </g>
    <g id="text_15">
     <!-- rewards -->
     <g transform="translate(25.432812 194.447531) rotate(-90) scale(0.1 -0.1)">
      <defs>
       <path id="DejaVuSans-72" d="M 2631 2963 
Q 2534 3019 2420 3045 
Q 2306 3072 2169 3072 
Q 1681 3072 1420 2755 
Q 1159 2438 1159 1844 
L 1159 0 
L 581 0 
L 581 3500 
L 1159 3500 
L 1159 2956 
Q 1341 3275 1631 3429 
Q 1922 3584 2338 3584 
Q 2397 3584 2469 3576 
Q 2541 3569 2628 3553 
L 2631 2963 
z
" transform="scale(0.015625)"/>
       <path id="DejaVuSans-77" d="M 269 3500 
L 844 3500 
L 1563 769 
L 2278 3500 
L 2956 3500 
L 3675 769 
L 4391 3500 
L 4966 3500 
L 4050 0 
L 3372 0 
L 2619 2869 
L 1863 0 
L 1184 0 
L 269 3500 
z
" transform="scale(0.015625)"/>
       <path id="DejaVuSans-61" d="M 2194 1759 
Q 1497 1759 1228 1600 
Q 959 1441 959 1056 
Q 959 750 1161 570 
Q 1363 391 1709 391 
Q 2188 391 2477 730 
Q 2766 1069 2766 1631 
L 2766 1759 
L 2194 1759 
z
M 3341 1997 
L 3341 0 
L 2766 0 
L 2766 531 
Q 2569 213 2275 61 
Q 1981 -91 1556 -91 
Q 1019 -91 701 211 
Q 384 513 384 1019 
Q 384 1609 779 1909 
Q 1175 2209 1959 2209 
L 2766 2209 
L 2766 2266 
Q 2766 2663 2505 2880 
Q 2244 3097 1772 3097 
Q 1472 3097 1187 3025 
Q 903 2953 641 2809 
L 641 3341 
Q 956 3463 1253 3523 
Q 1550 3584 1831 3584 
Q 2591 3584 2966 3190 
Q 3341 2797 3341 1997 
z
" transform="scale(0.015625)"/>
       <path id="DejaVuSans-64" d="M 2906 2969 
L 2906 4863 
L 3481 4863 
L 3481 0 
L 2906 0 
L 2906 525 
Q 2725 213 2448 61 
Q 2172 -91 1784 -91 
Q 1150 -91 751 415 
Q 353 922 353 1747 
Q 353 2572 751 3078 
Q 1150 3584 1784 3584 
Q 2172 3584 2448 3432 
Q 2725 3281 2906 2969 
z
M 947 1747 
Q 947 1113 1208 752 
Q 1469 391 1925 391 
Q 2381 391 2643 752 
Q 2906 1113 2906 1747 
Q 2906 2381 2643 2742 
Q 2381 3103 1925 3103 
Q 1469 3103 1208 2742 
Q 947 2381 947 1747 
z
" transform="scale(0.015625)"/>
      </defs>
      <use xlink:href="#DejaVuSans-72"/>
      <use xlink:href="#DejaVuSans-65" x="38.863281"/>
      <use xlink:href="#DejaVuSans-77" x="100.386719"/>
      <use xlink:href="#DejaVuSans-61" x="182.173828"/>
      <use xlink:href="#DejaVuSans-72" x="243.453125"/>
      <use xlink:href="#DejaVuSans-64" x="282.816406"/>
      <use xlink:href="#DejaVuSans-73" x="346.292969"/>
     </g>
    </g>
   </g>
   <g id="line2d_14">
    <path d="M 73.832727 292.7662 
L 73.905419 290.046789 
L 73.978111 291.103405 
L 74.057411 292.287946 
L 74.216011 288.424792 
L 74.38122 290.411096 
L 74.473736 288.963147 
L 74.566253 292.229894 
L 74.764503 287.417887 
L 74.870237 287.200065 
L 74.995795 288.217004 
L 75.05527 291.842728 
L 75.207262 289.085905 
L 75.379079 291.316001 
L 75.478204 287.236835 
L 75.583937 288.097562 
L 75.782188 267.156162 
L 76.198513 283.621637 
L 76.40998 281.553282 
L 76.535538 290.454741 
L 76.614839 289.140751 
L 76.713964 285.764192 
L 76.832914 290.855489 
L 76.971689 283.673181 
L 77.236023 290.895598 
L 77.302106 291.1085 
L 77.467314 282.567167 
L 77.540006 291.250056 
L 77.771298 257.484761 
L 77.877032 289.618428 
L 78.015807 288.031921 
L 78.174407 292.494154 
L 78.405699 288.05844 
L 78.650207 264.218334 
L 78.987233 259.494677 
L 79.258175 286.196864 
L 79.429992 269.976622 
L 79.588592 295.488 
L 79.6745 291.397176 
L 79.846317 292.281496 
L 80.031351 287.020475 
L 80.123867 290.621131 
L 80.388201 284.346692 
L 80.520368 291.861943 
L 80.982952 274.394354 
L 81.075468 291.115136 
L 81.174593 290.267188 
L 81.234068 291.463145 
L 81.498402 257.935204 
L 81.571094 290.654912 
L 81.808994 263.736988 
L 82.053503 288.696497 
L 82.132803 289.252668 
L 82.238536 285.93357 
L 82.317836 293.275038 
L 82.443395 285.172544 
L 82.575562 284.06463 
L 82.707728 280.407052 
L 82.813462 288.588355 
L 83.104229 240.417295 
L 83.262829 292.123345 
L 83.494121 280.380007 
L 83.613071 292.700296 
L 83.811321 288.844878 
L 83.890621 289.557862 
L 84.102088 288.67638 
L 84.201213 287.088963 
L 84.386247 286.680111 
L 84.591105 280.13583 
L 84.736489 280.137934 
L 84.822397 287.68194 
L 85.053689 281.628026 
L 85.192464 281.056 
L 85.291589 290.996576 
L 85.390715 289.578952 
L 85.542706 275.496478 
L 85.773998 279.154896 
L 85.998682 290.278592 
L 86.375357 247.25672 
L 86.428224 292.893539 
L 86.500916 289.967946 
L 86.606649 287.961183 
L 86.699166 288.339058 
L 86.910633 285.01402 
L 87.00315 290.31533 
L 87.08245 289.967874 
L 87.208008 285.692523 
L 87.32035 290.478901 
L 87.564859 286.953939 
L 87.703634 289.3376 
L 87.829192 287.754802 
L 87.901884 290.226893 
L 88.027442 287.019265 
L 88.133176 290.905977 
L 88.437159 252.162775 
L 88.496635 291.328719 
L 88.879918 267.656247 
L 89.203727 290.117354 
L 89.382152 289.632669 
L 89.501102 286.510733 
L 89.593619 289.373727 
L 89.824911 282.888924 
L 89.930644 291.437483 
L 90.023161 290.723148 
L 90.095853 290.543612 
L 90.274278 287.629084 
L 90.802945 243.374788 
L 91.021021 287.207697 
L 91.100321 289.827182 
L 91.192837 287.629294 
L 91.298571 289.661979 
L 91.523254 287.038926 
L 91.714896 272.017171 
L 91.78098 292.62152 
L 91.873496 288.804543 
L 91.952797 289.07009 
L 92.09818 280.445199 
L 92.355905 288.234618 
L 92.521114 276.004122 
L 92.686322 277.439209 
L 92.818489 290.368441 
L 92.944048 284.600446 
L 93.155515 268.972589 
L 93.228206 289.903801 
L 93.419848 285.903076 
L 93.552015 280.351018 
L 93.710615 281.399888 
L 93.988165 295.197666 
L 94.173199 289.845975 
L 94.371449 269.08298 
L 94.450749 289.109976 
L 94.556483 286.441957 
L 94.781166 274.11086 
L 94.939766 277.966679 
L 95.1248 278.207051 
L 95.223925 289.900018 
L 95.349484 282.638506 
L 95.422175 289.781787 
L 95.514692 286.616273 
L 95.633642 289.837324 
L 95.719551 289.194459 
L 96.142484 252.437706 
L 96.254826 284.376631 
L 96.578635 258.608677 
L 96.750452 290.044238 
L 97.140344 284.305352 
L 97.358419 290.300517 
L 97.490586 288.758192 
L 98.171245 127.236706 
L 98.27037 290.752355 
L 98.409145 284.393287 
L 98.495054 292.425837 
L 98.884946 280.6079 
L 99.063371 292.297543 
L 99.155888 287.914883 
L 99.255013 289.558564 
L 99.407004 280.133988 
L 99.486305 288.687307 
L 99.58543 288.206933 
L 99.717596 288.438141 
L 99.922455 281.931527 
L 100.087664 289.426054 
L 100.351997 248.426868 
L 100.424689 293.030817 
L 100.503989 291.659385 
L 100.669197 290.321956 
L 100.913706 263.157621 
L 100.993006 292.356006 
L 101.158215 281.123975 
L 101.224298 291.383943 
L 101.442373 279.740721 
L 101.607582 279.46087 
L 101.719924 290.423057 
L 102.215549 209.240129 
L 102.413799 289.631402 
L 102.539358 283.245654 
L 102.704566 291.893795 
L 102.8896 279.337683 
L 103.200192 280.016958 
L 103.299317 286.558068 
L 103.4447 285.670598 
L 103.537217 287.775014 
L 103.682601 288.035335 
L 103.827984 281.986036 
L 103.946934 285.153029 
L 104.250918 255.196703 
L 104.673852 278.063123 
L 104.806019 287.664006 
L 105.030702 286.38103 
L 105.248777 268.228537 
L 105.354511 288.078708 
L 105.572586 264.810216 
L 105.665103 289.140849 
L 105.856745 291.60384 
L 106.015345 274.597495 
L 106.101253 287.285673 
L 106.246637 282.247746 
L 106.292895 293.492235 
L 106.385412 289.158019 
L 106.517579 285.686269 
L 106.623312 292.518735 
L 106.729046 288.18224 
L 106.847996 292.208831 
L 107.125546 252.646643 
L 107.35023 288.202088 
L 107.449355 293.340247 
L 107.693863 255.656298 
L 107.958197 291.538769 
L 108.06393 284.748801 
L 108.176272 287.500194 
L 108.308439 287.06687 
L 108.579381 283.799142 
L 108.671898 288.746438 
L 108.810673 280.476454 
L 108.936231 282.772586 
L 109.160915 287.562489 
L 109.405423 256.056034 
L 109.550807 280.878469 
L 109.682974 281.873326 
L 109.887832 277.34082 
L 110.072866 279.879736 
L 110.185208 285.617972 
L 110.627966 225.565097 
L 110.779958 290.064673 
L 110.925342 287.035174 
L 111.077334 290.395861 
L 111.222717 281.636335 
L 111.302017 289.1246 
L 111.394534 288.889101 
L 111.625826 276.241416 
L 111.698518 290.369938 
L 111.923201 286.659934 
L 112.002501 288.699464 
L 112.273443 281.360768 
L 112.385785 283.22454 
L 112.888019 229.534863 
L 113.145744 286.265199 
L 113.297736 291.884054 
L 113.410078 289.856861 
L 113.548853 289.428372 
L 113.628153 290.737165 
L 113.806578 283.352615 
L 113.872662 290.155145 
L 113.951962 290.05713 
L 114.242729 279.157072 
L 114.401329 290.022108 
L 114.824263 219.458708 
L 114.989471 290.024682 
L 115.405797 274.009143 
L 115.518138 291.019165 
L 115.617263 287.501171 
L 115.703172 290.551303 
L 115.86838 286.801408 
L 116.026981 287.585967 
L 116.145931 291.618646 
L 116.271489 281.8417 
L 116.370614 290.133815 
L 116.515998 288.76078 
L 116.628339 292.215824 
L 116.70764 290.833494 
L 117.038057 279.034446 
L 117.190048 281.209128 
L 117.355257 289.319023 
L 117.513857 276.496323 
L 117.712107 289.697683 
L 117.798016 289.358296 
L 117.950008 275.772913 
L 118.187908 289.066744 
L 118.333291 282.108419 
L 118.425808 288.753677 
L 118.670317 267.706293 
L 118.822308 286.140128 
L 118.93465 284.597659 
L 119.033775 291.83462 
L 119.205592 281.801639 
L 119.311326 285.856392 
L 119.430276 281.898448 
L 119.502968 290.180148 
L 119.615309 283.257263 
L 119.701218 287.267946 
L 119.826776 281.10963 
L 119.939118 283.338175 
L 120.104327 290.654713 
L 120.183627 289.517145 
L 120.28936 288.908891 
L 120.500827 289.607397 
L 120.68586 279.167148 
L 120.903936 287.081692 
L 121.088969 287.189968 
L 121.174878 288.143864 
L 121.346694 285.96887 
L 121.657286 257.043654 
L 121.80267 281.177869 
L 122.060395 289.11986 
L 122.245429 291.193926 
L 122.489937 258.886959 
L 122.813746 291.642522 
L 122.879829 292.394062 
L 123.005388 283.759095 
L 123.223463 290.465708 
L 123.467972 289.91747 
L 123.639789 275.987655 
L 123.871081 280.196162 
L 124.016464 287.02818 
L 124.247756 281.652995 
L 124.340273 289.232897 
L 124.485656 290.580154 
L 124.644256 288.871072 
L 125.007715 253.187135 
L 125.113449 292.021461 
L 125.239007 291.417233 
L 125.318307 292.701171 
L 125.463691 282.42015 
L 125.675157 290.522812 
L 125.886624 289.415757 
L 126.058441 274.305962 
L 126.230258 289.99179 
L 126.388858 284.553065 
L 126.5012 293.113903 
L 126.613542 285.017716 
L 126.7391 291.413721 
L 126.884484 286.046805 
L 126.950567 290.571317 
L 127.168642 278.947924 
L 127.406543 279.235393 
L 127.525493 293.207363 
L 127.710526 287.26883 
L 127.822868 288.102029 
L 127.981468 281.347885 
L 128.087202 289.379519 
L 128.179718 288.268128 
L 128.318494 279.071758 
L 128.384577 290.802942 
L 128.496919 289.927972 
L 128.629086 286.196364 
L 128.754644 285.908959 
L 129.237053 254.819545 
L 129.336178 292.548866 
L 129.501387 282.064667 
L 129.626945 292.394914 
L 129.930929 281.93375 
L 130.102745 291.315631 
L 130.175437 291.295136 
L 130.281171 288.229031 
L 130.367079 291.781537 
L 130.479421 286.127912 
L 130.618196 287.260605 
L 130.737146 291.118507 
L 130.849488 285.602235 
L 130.935396 287.767823 
L 131.054346 285.001684 
L 131.173297 289.722545 
L 131.31868 289.710075 
L 131.457455 292.212215 
L 131.728397 284.057578 
L 132.058814 247.881479 
L 132.521398 215.411709 
L 132.660173 292.016834 
L 132.739473 290.650061 
L 132.884857 290.224347 
L 132.977374 285.922634 
L 133.122757 294.732636 
L 133.287966 279.94486 
L 133.373874 289.012892 
L 133.519257 289.015667 
L 133.658033 289.14626 
L 133.743941 292.11482 
L 133.836458 286.849418 
L 133.942191 287.163322 
L 134.074358 292.445261 
L 134.266 284.124085 
L 134.517117 266.564926 
L 134.603025 287.336251 
L 134.70215 285.895835 
L 134.860751 273.841294 
L 134.973092 287.416309 
L 135.072217 287.360534 
L 135.263859 272.584732 
L 135.77931 290.021969 
L 136.01721 258.601715 
L 136.103119 288.600745 
L 136.479794 272.975159 
L 136.559094 291.514619 
L 136.717694 279.124636 
L 136.929161 272.602826 
L 136.982028 292.253561 
L 137.048111 290.727033 
L 137.21332 292.70673 
L 137.279403 290.205309 
L 137.431395 279.261538 
L 137.642862 290.429289 
L 137.788245 288.099768 
L 137.946845 291.870508 
L 138.211179 279.968081 
L 138.435863 279.590252 
L 138.521771 291.736753 
L 138.700196 276.27311 
L 138.825755 286.935097 
L 139.024005 287.185556 
L 139.222255 288.521871 
L 139.394072 278.613453 
L 139.506414 288.545671 
L 139.612147 287.071426 
L 139.797181 280.783336 
L 140.114381 261.784211 
L 140.253156 285.882372 
L 140.51749 281.02546 
L 140.656265 281.814211 
L 140.748782 290.618219 
L 141.330316 270.227566 
L 141.416224 290.887149 
L 141.594649 294.20248 
L 141.700383 288.120892 
L 141.773075 289.184927 
L 141.931675 289.014306 
L 141.997758 291.677407 
L 142.196008 287.934229 
L 142.295133 287.963058 
L 142.678417 261.315917 
L 142.757717 288.604776 
L 142.989009 291.162463 
L 143.187259 279.928284 
L 143.312818 281.748526 
L 143.524285 291.693181 
L 143.656452 282.801991 
L 143.748968 288.783499 
L 143.98026 271.807511 
L 144.046344 292.180487 
L 144.204944 280.707057 
L 144.330502 286.68731 
L 144.522144 283.660087 
L 144.826128 287.936531 
L 145.077245 265.819196 
L 145.288712 290.93455 
L 145.45392 287.165888 
L 145.566262 291.787123 
L 145.718254 277.4898 
L 145.777729 292.323559 
L 145.843812 290.157497 
L 145.995804 275.150801 
L 146.147796 292.249633 
L 146.511255 241.922406 
L 146.61038 289.91526 
L 146.696288 289.551051 
L 146.762372 290.226918 
L 146.881322 287.596216 
L 146.960622 288.386864 
L 147.119222 292.23493 
L 147.24478 288.514862 
L 147.337297 292.215784 
L 147.429814 291.707502 
L 147.509114 289.999161 
L 147.826314 239.47824 
L 148.136906 290.741908 
L 148.222815 287.942759 
L 148.354982 288.957106 
L 148.645749 279.477885 
L 148.71844 294.236086 
L 148.896865 275.765348 
L 149.068682 290.430998 
L 149.260324 272.026487 
L 149.399099 281.451385 
L 149.670041 267.226733 
L 149.736125 293.397456 
L 149.802208 291.463509 
L 150.046717 284.497793 
L 150.15245 289.477081 
L 150.31105 286.983859 
L 150.436609 282.423904 
L 150.535734 290.169266 
L 150.634859 286.764541 
L 150.760417 288.015608 
L 150.859543 285.921179 
L 151.249435 248.186503 
L 151.355168 286.580362 
L 151.500552 282.830772 
L 151.612893 288.030624 
L 151.698802 287.926692 
L 151.837577 290.763608 
L 151.936702 288.787104 
L 152.016002 289.489237 
L 152.075477 291.63575 
L 152.201036 281.046634 
L 152.372853 292.919558 
L 152.511628 279.662107 
L 152.736311 286.5579 
L 152.868478 283.206893 
L 152.94117 292.494172 
L 153.066728 288.564036 
L 153.21872 276.775945 
L 153.304629 286.883757 
L 153.450012 276.445558 
L 153.555745 289.488754 
L 153.800254 264.859434 
L 154.024938 278.0122 
L 154.203363 280.89313 
L 154.421438 288.623623 
L 154.553605 281.965358 
L 154.857588 233.543389 
L 155.188006 288.183656 
L 155.300347 288.562968 
L 155.472164 283.766287 
L 155.637373 283.177737 
L 155.776148 278.79 
L 155.974398 278.797932 
L 156.060306 288.305396 
L 156.24534 285.575229 
L 156.509674 291.897926 
L 156.635232 281.187992 
L 156.72114 290.081834 
L 156.840091 280.916797 
L 156.925999 288.267995 
L 157.249808 270.513074 
L 157.4018 284.715805 
L 157.5604 284.711604 
L 157.659525 288.590849 
L 157.818125 283.08779 
L 157.950292 287.476103 
L 158.095675 287.111028 
L 158.1948 291.202276 
L 158.2741 290.062423 
L 158.373226 285.922321 
L 158.538434 290.194341 
L 158.690426 279.935098 
L 158.829201 278.983994 
L 158.981193 278.990666 
L 159.060493 289.826866 
L 159.27196 267.891598 
L 159.483427 291.274979 
L 159.688285 256.226313 
L 159.833669 280.85476 
L 159.979052 280.148436 
L 160.216953 289.924986 
L 160.481286 284.863738 
L 160.553978 291.212933 
L 160.699361 290.866039 
L 160.996737 265.347999 
L 161.056212 292.073099 
L 161.161945 287.27972 
L 161.452712 240.275009 
L 161.670787 273.323079 
L 161.915296 283.799673 
L 162.186238 255.284087 
L 162.291971 286.879714 
L 162.410922 284.883052 
L 162.787597 226.318347 
L 163.177489 258.57832 
L 163.342698 284.91982 
L 163.547556 290.36838 
L 163.792065 283.723422 
L 163.93084 292.796087 
L 164.181957 273.874688 
L 164.274474 286.304703 
L 164.56524 235.807503 
L 164.743666 288.918177 
L 164.869224 290.117583 
L 165.173208 256.023706 
L 165.463975 248.329266 
L 165.6424 289.607629 
L 165.827433 271.373982 
L 165.992642 287.844066 
L 166.1182 289.100148 
L 166.237151 287.588637 
L 166.362709 289.572978 
L 166.508093 284.23356 
L 166.931026 241.604434 
L 167.03676 292.841478 
L 167.15571 285.097132 
L 167.43326 287.865855 
L 167.558819 288.44211 
L 167.657944 287.161652 
L 168.094094 205.174388 
L 168.55007 285.819535 
L 168.82762 237.122644 
L 168.94657 286.168441 
L 169.14482 286.20782 
L 169.26377 284.988222 
L 169.528104 249.761417 
L 169.98408 287.444209 
L 170.413622 216.684114 
L 170.598655 268.037481 
L 170.995156 289.307126 
L 171.431306 251.576594 
L 171.755115 238.258639 
L 171.860848 292.118182 
L 172.019448 280.442239 
L 172.283782 289.351394 
L 172.501857 274.221757 
L 172.898358 266.550282 
L 173.056958 294.664793 
L 173.427025 236.134167 
L 173.6451 270.723594 
L 174.041601 276.039183 
L 174.709043 227.229811 
L 174.973377 276.114433 
L 175.31701 224.545244 
L 175.43596 282.703914 
L 176.070361 157.104445 
L 176.242178 274.103058 
L 176.460253 251.38299 
L 176.744412 289.288132 
L 176.83032 288.528167 
L 176.962487 282.49389 
L 177.583671 209.314873 
L 177.887655 234.489304 
L 178.14538 279.448105 
L 178.34363 266.572288 
L 178.720306 221.508546 
L 178.819431 288.831684 
L 178.964814 287.60164 
L 179.480265 189.081945 
L 179.559565 292.02129 
L 180.05519 243.347751 
L 180.154315 283.76686 
L 180.260049 283.442858 
L 180.339349 291.182149 
L 180.603683 258.406307 
L 180.716024 285.788304 
L 180.881233 279.479274 
L 181.099308 251.465988 
L 181.482592 217.988343 
L 181.5685 288.929252 
L 181.7271 274.100682 
L 181.865876 290.059087 
L 181.984826 285.59877 
L 182.150034 274.093174 
L 182.262376 288.001302 
L 182.394543 278.290155 
L 182.830693 225.196129 
L 183.00251 289.542559 
L 183.286669 237.440589 
L 183.511352 290.514264 
L 183.683169 292.712959 
L 183.947503 244.868964 
L 184.07967 292.409305 
L 184.509212 278.141764 
L 184.773545 281.906707 
L 185.249346 216.706392 
L 185.361688 287.326788 
L 185.698713 236.535537 
L 185.811055 289.477826 
L 186.06878 246.631923 
L 186.34633 280.383668 
L 186.696572 253.610593 
L 187.26489 173.50965 
L 187.833207 207.530463 
L 188.104149 291.505328 
L 188.388308 285.509796 
L 189.05575 203.299527 
L 189.379559 226.861215 
L 189.848751 285.57261 
L 190.205601 246.040893 
L 190.602102 269.74747 
L 190.800352 268.035605 
L 191.038252 275.004208 
L 191.738736 160.780524 
L 191.936986 283.454182 
L 192.293837 217.130732 
L 192.459045 292.028539 
L 192.75642 235.824197 
L 193.212396 210.551537 
L 193.370996 289.234251 
L 193.582463 292.799011 
L 193.780713 283.060489 
L 193.860013 290.839621 
L 194.03183 281.615454 
L 194.130955 285.653791 
L 194.619972 211.21149 
L 195.221331 155.543446 
L 195.313848 290.836514 
L 195.82269 210.800972 
L 196.060591 250.198529 
L 196.364574 239.01448 
L 196.516566 285.266553 
L 196.688383 276.716241 
L 196.89985 253.16055 
L 197.4153 219.591038 
L 197.613551 290.607687 
L 198.25456 146.14733 
L 198.49246 290.94909 
L 198.895569 219.185013 
L 199.199552 231.365531 
L 199.358153 290.311995 
L 199.972728 202.965342 
L 200.408879 191.284708 
L 200.712862 280.605115 
L 200.884679 291.106454 
L 201.010238 285.615404 
L 201.274571 240.673321 
L 201.347263 289.697971 
L 201.545513 280.37529 
L 201.803238 245.903054 
L 201.922189 287.958877 
L 202.014705 286.682081 
L 202.450856 192.847012 
L 203.052215 259.23873 
L 203.382632 228.121485 
L 203.514799 283.913187 
L 203.772524 244.100523 
L 203.924516 288.738503 
L 204.109549 286.612919 
L 204.327624 288.998772 
L 204.849683 214.579856 
L 205.14045 268.50739 
L 205.543559 205.831837 
L 205.781459 285.545238 
L 205.986318 288.647799 
L 206.171351 288.58091 
L 206.435685 241.508106 
L 206.719844 265.24965 
L 206.977569 245.086321 
L 207.321203 278.432751 
L 207.830045 217.657406 
L 208.200112 230.014103 
L 208.841121 134.326086 
L 209.118671 287.548342 
L 209.376397 274.966134 
L 209.627513 286.918854 
L 209.87863 246.804038 
L 210.162789 236.266938 
L 210.684848 172.22899 
L 211.246557 291.68869 
L 211.451415 254.679133 
L 211.656274 290.44463 
L 212.660742 158.867046 
L 213.143151 209.236419 
L 213.268709 277.730949 
L 213.572693 242.652915 
L 214.643244 220.179765 
L 215.198344 150.567182 
L 215.49572 238.342624 
L 215.89222 270.445833 
L 216.500187 264.92962 
L 217.161021 174.511042 
L 217.696297 184.930169 
L 218.079581 206.803005 
L 218.324089 246.014119 
L 219.103874 115.62945 
L 219.493766 273.202029 
L 219.982783 240.728855 
L 220.617183 209.595435 
L 220.848475 289.574195 
L 221.311059 183.333089 
L 221.879376 211.272378 
L 222.229619 218.906568 
L 224.007262 137.732921 
L 224.621838 250.333591 
L 225.124072 187.74259 
L 225.599872 223.490177 
L 226.082281 201.006259 
L 226.320181 278.018514 
L 227.066924 223.864028 
L 227.767408 132.393729 
L 228.263033 206.14891 
L 228.626492 209.352867 
L 228.811526 267.26052 
L 229.399668 228.970616 
L 229.723476 231.858506 
L 229.94816 252.174148 
L 230.417352 222.320027 
L 230.932803 167.309144 
L 232.168562 167.960841 
L 232.604713 217.2637 
L 233.285372 182.375367 
L 233.635614 275.810482 
L 233.899948 244.953281 
L 234.501307 200.131287 
L 235.102666 239.794418 
L 235.644549 187.50486 
L 236.364859 233.887412 
L 236.953001 189.108345 
L 237.541143 240.896672 
L 238.261452 135.04959 
L 238.505961 246.771075 
L 238.717428 254.692484 
L 238.922286 254.42974 
L 240.336471 130.921133 
L 240.534721 257.238 
L 240.759405 251.969753 
L 240.918005 264.518182 
L 241.876214 170.104143 
L 242.45114 176.743285 
L 242.781557 279.132499 
L 243.178057 211.335754 
L 243.581166 226.385587 
L 244.883009 53.568 
L 245.457935 150.096949 
L 246.079119 134.092764 
L 246.654044 159.483717 
L 247.255403 145.324579 
L 248.081446 175.983631 
L 248.643155 165.930695 
L 249.125564 207.884285 
L 250.09699 129.706915 
L 250.632265 156.45214 
L 251.213799 142.185721 
L 251.775508 148.879559 
L 252.396692 184.46505 
L 252.720501 230.125491 
L 253.070743 228.078218 
L 253.427593 228.863429 
L 253.982694 158.724047 
L 254.736045 121.64236 
L 254.927687 258.228508 
L 255.31097 240.065374 
L 255.945371 147.169832 
L 256.70533 130.258402 
L 257.346339 139.40215 
L 257.597456 243.60861 
L 257.86179 240.657226 
L 258.410282 155.839682 
L 258.925733 176.557147 
L 259.606392 160.607802 
L 259.936809 231.691672 
L 260.478693 158.548145 
L 261.436902 117.291159 
L 261.992002 258.51735 
L 262.500845 166.723844 
L 263.663913 82.728306 
L 263.895205 248.074773 
L 264.661772 126.194649 
L 265.494423 114.814174 
L 265.719106 251.036265 
L 266.161865 216.08498 
L 266.743399 140.87873 
L 267.324933 150.144481 
L 267.998984 144.22813 
L 268.184017 259.511986 
L 269.188485 148.270462 
L 269.750194 151.11445 
L 270.371378 132.123604 
L 271.012387 165.686408 
L 271.732696 126.991357 
L 272.31423 155.069032 
L 272.882547 150.493189 
L 273.54999 131.129861 
L 273.90684 272.684515 
L 274.461941 149.669308 
L 275.050083 148.125588 
L 275.611792 145.687599 
L 276.153676 160.813988 
L 276.510526 233.366228 
L 277.09206 141.238236 
L 277.303527 253.512235 
L 277.620727 226.870594 
L 278.592153 109.09309 
L 279.219946 127.758084 
L 280.363189 151.397604 
L 280.944723 141.292507 
L 281.579123 133.71796 
L 282.173874 138.873769 
L 282.775233 136.30071 
L 283.125475 222.564132 
L 284.017601 120.900743 
L 285.226927 154.885451 
L 285.93402 132.01416 
L 286.56842 139.465095 
L 287.130129 158.038658 
L 287.903305 132.020473 
L 288.498056 142.199767 
L 289.099415 135.407488 
L 289.727207 139.981069 
L 290.394649 132.008946 
L 291.062092 129.318156 
L 291.703101 117.294847 
L 292.34411 132.248157 
L 292.905819 158.605838 
L 293.560044 136.754848 
L 294.128362 153.575197 
L 294.736329 132.914879 
L 295.298038 154.580747 
L 295.932439 145.707283 
L 296.732048 122.793019 
L 297.333407 153.104926 
L 297.888507 164.06478 
L 298.978884 155.677606 
L 299.553809 142.966896 
L 300.10891 152.337387 
L 300.66401 163.591648 
L 301.205894 157.143365 
L 301.78082 154.340937 
L 302.349137 152.856518 
L 302.950496 146.335305 
L 303.538638 146.097711 
L 304.120172 152.412222 
L 304.695098 149.134697 
L 305.263415 157.713967 
L 305.825124 148.668827 
L 306.419875 149.145844 
L 307.014625 152.006018 
L 307.602768 140.52937 
L 308.237168 143.415571 
L 308.792269 152.420364 
L 309.30772 176.266094 
L 309.955337 142.951302 
L 310.530262 143.083147 
L 311.673505 151.729739 
L 312.321123 134.253513 
L 312.882832 158.444422 
L 313.464366 149.385555 
L 314.032683 143.526252 
L 314.607608 159.493194 
L 315.182534 146.564832 
L 315.783893 145.349105 
L 316.47116 131.438306 
L 317.19147 137.505609 
L 317.806045 150.201947 
L 318.354537 148.966831 
L 318.922855 153.481452 
L 319.477955 158.979238 
L 320.019839 155.415684 
L 320.561723 157.301245 
L 321.13004 152.506763 
L 321.698358 145.598233 
L 322.227025 158.821457 
L 322.788734 152.269784 
L 323.350443 163.935348 
L 323.951802 153.07002 
L 324.513511 152.789378 
L 325.742662 132.390489 
L 326.304371 160.651965 
L 326.839646 156.141874 
L 327.38153 154.68689 
L 327.949848 143.460281 
L 328.524773 144.483344 
L 329.093091 146.050383 
L 329.674625 143.631235 
L 330.229725 153.917993 
L 330.784826 156.372313 
L 331.28706 179.978377 
L 331.848768 154.929197 
L 332.95897 162.142242 
L 333.547112 144.676965 
L 334.141863 139.34187 
L 334.703572 149.898343 
L 335.285105 150.995885 
L 335.840206 154.700064 
L 336.42174 155.288506 
L 337.023099 142.494144 
L 337.598025 154.943136 
L 338.17295 154.649109 
L 338.747876 159.614143 
L 339.283151 159.788868 
L 339.825035 157.525203 
L 340.386744 150.896039 
L 341.060795 153.751918 
L 341.615896 163.203527 
L 342.170996 158.920862 
L 342.719488 158.485246 
L 343.301022 156.940585 
L 343.889165 158.829143 
L 344.444265 165.764931 
L 344.999366 158.281958 
L 345.574291 159.038836 
L 346.129392 155.929162 
L 346.710926 143.821297 
L 347.305677 152.127338 
L 347.847561 158.028414 
L 348.409269 160.530539 
L 348.957762 153.654486 
L 349.532687 155.233157 
L 350.087788 157.327136 
L 350.629672 168.273923 
L 351.164947 157.999693 
L 351.746481 158.715897 
L 352.301582 149.52684 
L 352.863291 161.7887 
L 353.398566 157.681095 
L 353.94045 155.946751 
L 355.070477 165.738843 
L 355.671836 157.011193 
L 356.233544 152.395133 
L 356.76882 160.69474 
L 357.317312 157.781115 
L 357.879021 160.520871 
L 358.447338 146.139339 
L 359.022264 149.16999 
L 359.570756 163.295731 
L 360.132465 160.573511 
L 360.700783 145.368758 
L 361.2691 152.198819 
L 361.883675 134.642203 
L 362.478426 136.519553 
L 363.026918 154.925441 
L 363.575411 154.437163 
L 364.13712 152.946606 
L 364.751695 133.007075 
L 365.306796 159.145199 
L 365.855288 161.701041 
L 367.52059 158.699059 
L 368.095515 155.928517 
L 368.644008 161.443763 
L 369.205717 156.512497 
L 369.774034 161.688035 
L 370.355568 158.058228 
L 370.90406 152.889193 
L 371.445944 156.560029 
L 371.974611 171.979172 
L 372.529712 165.577662 
L 373.058379 171.605703 
L 373.606871 155.26074 
L 374.155364 163.429997 
L 374.710464 166.013816 
L 375.24574 161.309376 
L 376.355941 159.965613 
L 376.904433 156.951049 
L 377.485967 146.738898 
L 378.093934 147.38841 
L 378.642427 161.108547 
L 379.197527 156.538494 
L 379.765844 155.578967 
L 380.327553 160.216038 
L 380.895871 153.335394 
L 381.477405 162.605729 
L 382.594214 156.976606 
L 383.162531 155.315155 
L 383.671374 178.064838 
L 384.246299 150.109363 
L 384.821225 159.305181 
L 385.415975 149.82451 
L 385.977684 162.472662 
L 386.559218 157.428696 
L 387.140752 144.571496 
L 387.70907 158.726111 
L 388.257562 164.239301 
L 388.779621 174.432421 
L 389.361155 156.681441 
L 389.909647 157.837836 
L 390.444923 170.78982 
L 391.01324 162.387758 
L 391.548515 170.128501 
L 392.130049 156.484975 
L 392.704975 159.809918 
L 393.266684 153.769037 
L 393.835001 159.159245 
L 394.390102 155.891836 
L 395.024502 131.423221 
L 395.599428 160.744412 
L 396.174354 149.034677 
L 396.716238 157.848065 
L 397.317596 146.425339 
L 397.892522 157.299522 
L 398.487273 153.776527 
L 398.487273 153.776527 
" clip-path="url(#p451906f065)" style="fill: none; stroke: #1f77b4; stroke-width: 1.5; stroke-linecap: square"/>
   </g>
   <g id="patch_3">
    <path d="M 57.6 307.584 
L 57.6 41.472 
" style="fill: none; stroke: #000000; stroke-width: 0.8; stroke-linejoin: miter; stroke-linecap: square"/>
   </g>
   <g id="patch_4">
    <path d="M 414.72 307.584 
L 414.72 41.472 
" style="fill: none; stroke: #000000; stroke-width: 0.8; stroke-linejoin: miter; stroke-linecap: square"/>
   </g>
   <g id="patch_5">
    <path d="M 57.6 307.584 
L 414.72 307.584 
" style="fill: none; stroke: #000000; stroke-width: 0.8; stroke-linejoin: miter; stroke-linecap: square"/>
   </g>
   <g id="patch_6">
    <path d="M 57.6 41.472 
L 414.72 41.472 
" style="fill: none; stroke: #000000; stroke-width: 0.8; stroke-linejoin: miter; stroke-linecap: square"/>
   </g>
   <g id="text_16">
    <!-- learning curve -->
    <g transform="translate(192.96375 35.472) scale(0.12 -0.12)">
     <defs>
      <path id="DejaVuSans-6c" d="M 603 4863 
L 1178 4863 
L 1178 0 
L 603 0 
L 603 4863 
z
" transform="scale(0.015625)"/>
      <path id="DejaVuSans-6e" d="M 3513 2113 
L 3513 0 
L 2938 0 
L 2938 2094 
Q 2938 2591 2744 2837 
Q 2550 3084 2163 3084 
Q 1697 3084 1428 2787 
Q 1159 2491 1159 1978 
L 1159 0 
L 581 0 
L 581 3500 
L 1159 3500 
L 1159 2956 
Q 1366 3272 1645 3428 
Q 1925 3584 2291 3584 
Q 2894 3584 3203 3211 
Q 3513 2838 3513 2113 
z
" transform="scale(0.015625)"/>
      <path id="DejaVuSans-67" d="M 2906 1791 
Q 2906 2416 2648 2759 
Q 2391 3103 1925 3103 
Q 1463 3103 1205 2759 
Q 947 2416 947 1791 
Q 947 1169 1205 825 
Q 1463 481 1925 481 
Q 2391 481 2648 825 
Q 2906 1169 2906 1791 
z
M 3481 434 
Q 3481 -459 3084 -895 
Q 2688 -1331 1869 -1331 
Q 1566 -1331 1297 -1286 
Q 1028 -1241 775 -1147 
L 775 -588 
Q 1028 -725 1275 -790 
Q 1522 -856 1778 -856 
Q 2344 -856 2625 -561 
Q 2906 -266 2906 331 
L 2906 616 
Q 2728 306 2450 153 
Q 2172 0 1784 0 
Q 1141 0 747 490 
Q 353 981 353 1791 
Q 353 2603 747 3093 
Q 1141 3584 1784 3584 
Q 2172 3584 2450 3431 
Q 2728 3278 2906 2969 
L 2906 3500 
L 3481 3500 
L 3481 434 
z
" transform="scale(0.015625)"/>
      <path id="DejaVuSans-20" transform="scale(0.015625)"/>
      <path id="DejaVuSans-63" d="M 3122 3366 
L 3122 2828 
Q 2878 2963 2633 3030 
Q 2388 3097 2138 3097 
Q 1578 3097 1268 2742 
Q 959 2388 959 1747 
Q 959 1106 1268 751 
Q 1578 397 2138 397 
Q 2388 397 2633 464 
Q 2878 531 3122 666 
L 3122 134 
Q 2881 22 2623 -34 
Q 2366 -91 2075 -91 
Q 1284 -91 818 406 
Q 353 903 353 1747 
Q 353 2603 823 3093 
Q 1294 3584 2113 3584 
Q 2378 3584 2631 3529 
Q 2884 3475 3122 3366 
z
" transform="scale(0.015625)"/>
      <path id="DejaVuSans-75" d="M 544 1381 
L 544 3500 
L 1119 3500 
L 1119 1403 
Q 1119 906 1312 657 
Q 1506 409 1894 409 
Q 2359 409 2629 706 
Q 2900 1003 2900 1516 
L 2900 3500 
L 3475 3500 
L 3475 0 
L 2900 0 
L 2900 538 
Q 2691 219 2414 64 
Q 2138 -91 1772 -91 
Q 1169 -91 856 284 
Q 544 659 544 1381 
z
M 1991 3584 
L 1991 3584 
z
" transform="scale(0.015625)"/>
      <path id="DejaVuSans-76" d="M 191 3500 
L 800 3500 
L 1894 563 
L 2988 3500 
L 3597 3500 
L 2284 0 
L 1503 0 
L 191 3500 
z
" transform="scale(0.015625)"/>
     </defs>
     <use xlink:href="#DejaVuSans-6c"/>
     <use xlink:href="#DejaVuSans-65" x="27.783203"/>
     <use xlink:href="#DejaVuSans-61" x="89.306641"/>
     <use xlink:href="#DejaVuSans-72" x="150.585938"/>
     <use xlink:href="#DejaVuSans-6e" x="189.949219"/>
     <use xlink:href="#DejaVuSans-69" x="253.328125"/>
     <use xlink:href="#DejaVuSans-6e" x="281.111328"/>
     <use xlink:href="#DejaVuSans-67" x="344.490234"/>
     <use xlink:href="#DejaVuSans-20" x="407.966797"/>
     <use xlink:href="#DejaVuSans-63" x="439.753906"/>
     <use xlink:href="#DejaVuSans-75" x="494.734375"/>
     <use xlink:href="#DejaVuSans-72" x="558.113281"/>
     <use xlink:href="#DejaVuSans-76" x="599.226562"/>
     <use xlink:href="#DejaVuSans-65" x="658.40625"/>
    </g>
   </g>
  </g>
 </g>
 <defs>
  <clipPath id="p451906f065">
   <rect x="57.6" y="41.472" width="357.12" height="266.112"/>
  </clipPath>
 </defs>
</svg>
