<?xml version="1.0" encoding="utf-8" standalone="no"?>
<!DOCTYPE svg PUBLIC "-//W3C//DTD SVG 1.1//EN"
  "http://www.w3.org/Graphics/SVG/1.1/DTD/svg11.dtd">
<svg xmlns:xlink="http://www.w3.org/1999/xlink" width="460.8pt" height="345.6pt" viewBox="0 0 460.8 345.6" xmlns="http://www.w3.org/2000/svg" version="1.1">
 <metadata>
  <rdf:RDF xmlns:dc="http://purl.org/dc/elements/1.1/" xmlns:cc="http://creativecommons.org/ns#" xmlns:rdf="http://www.w3.org/1999/02/22-rdf-syntax-ns#">
   <cc:Work>
    <dc:type rdf:resource="http://purl.org/dc/dcmitype/StillImage"/>
    <dc:date>2023-08-18T16:41:41.213543</dc:date>
    <dc:format>image/svg+xml</dc:format>
    <dc:creator>
     <cc:Agent>
      <dc:title>Matplotlib v3.7.1, https://matplotlib.org/</dc:title>
     </cc:Agent>
    </dc:creator>
   </cc:Work>
  </rdf:RDF>
 </metadata>
 <defs>
  <style type="text/css">*{stroke-linejoin: round; stroke-linecap: butt}</style>
 </defs>
 <g id="figure_1">
  <g id="patch_1">
   <path d="M 0 345.6 
L 460.8 345.6 
L 460.8 0 
L 0 0 
z
" style="fill: #ffffff"/>
  </g>
  <g id="axes_1">
   <g id="patch_2">
    <path d="M 57.6 307.584 
L 414.72 307.584 
L 414.72 41.472 
L 57.6 41.472 
z
" style="fill: #ffffff"/>
   </g>
   <g id="matplotlib.axis_1">
    <g id="xtick_1">
     <g id="line2d_1">
      <defs>
       <path id="m7d988ba9de" d="M 0 0 
L 0 3.5 
" style="stroke: #000000; stroke-width: 0.8"/>
      </defs>
      <g>
       <use xlink:href="#m7d988ba9de" x="73.760261" y="307.584" style="stroke: #000000; stroke-width: 0.8"/>
      </g>
     </g>
     <g id="text_1">
      <!-- 0 -->
      <g transform="translate(70.579011 322.182437) scale(0.1 -0.1)">
       <defs>
        <path id="DejaVuSans-30" d="M 2034 4250 
Q 1547 4250 1301 3770 
Q 1056 3291 1056 2328 
Q 1056 1369 1301 889 
Q 1547 409 2034 409 
Q 2525 409 2770 889 
Q 3016 1369 3016 2328 
Q 3016 3291 2770 3770 
Q 2525 4250 2034 4250 
z
M 2034 4750 
Q 2819 4750 3233 4129 
Q 3647 3509 3647 2328 
Q 3647 1150 3233 529 
Q 2819 -91 2034 -91 
Q 1250 -91 836 529 
Q 422 1150 422 2328 
Q 422 3509 836 4129 
Q 1250 4750 2034 4750 
z
" transform="scale(0.015625)"/>
       </defs>
       <use xlink:href="#DejaVuSans-30"/>
      </g>
     </g>
    </g>
    <g id="xtick_2">
     <g id="line2d_2">
      <g>
       <use xlink:href="#m7d988ba9de" x="139.638499" y="307.584" style="stroke: #000000; stroke-width: 0.8"/>
      </g>
     </g>
     <g id="text_2">
      <!-- 10000 -->
      <g transform="translate(123.732249 322.182437) scale(0.1 -0.1)">
       <defs>
        <path id="DejaVuSans-31" d="M 794 531 
L 1825 531 
L 1825 4091 
L 703 3866 
L 703 4441 
L 1819 4666 
L 2450 4666 
L 2450 531 
L 3481 531 
L 3481 0 
L 794 0 
L 794 531 
z
" transform="scale(0.015625)"/>
       </defs>
       <use xlink:href="#DejaVuSans-31"/>
       <use xlink:href="#DejaVuSans-30" x="63.623047"/>
       <use xlink:href="#DejaVuSans-30" x="127.246094"/>
       <use xlink:href="#DejaVuSans-30" x="190.869141"/>
       <use xlink:href="#DejaVuSans-30" x="254.492188"/>
      </g>
     </g>
    </g>
    <g id="xtick_3">
     <g id="line2d_3">
      <g>
       <use xlink:href="#m7d988ba9de" x="205.516738" y="307.584" style="stroke: #000000; stroke-width: 0.8"/>
      </g>
     </g>
     <g id="text_3">
      <!-- 20000 -->
      <g transform="translate(189.610488 322.182437) scale(0.1 -0.1)">
       <defs>
        <path id="DejaVuSans-32" d="M 1228 531 
L 3431 531 
L 3431 0 
L 469 0 
L 469 531 
Q 828 903 1448 1529 
Q 2069 2156 2228 2338 
Q 2531 2678 2651 2914 
Q 2772 3150 2772 3378 
Q 2772 3750 2511 3984 
Q 2250 4219 1831 4219 
Q 1534 4219 1204 4116 
Q 875 4013 500 3803 
L 500 4441 
Q 881 4594 1212 4672 
Q 1544 4750 1819 4750 
Q 2544 4750 2975 4387 
Q 3406 4025 3406 3419 
Q 3406 3131 3298 2873 
Q 3191 2616 2906 2266 
Q 2828 2175 2409 1742 
Q 1991 1309 1228 531 
z
" transform="scale(0.015625)"/>
       </defs>
       <use xlink:href="#DejaVuSans-32"/>
       <use xlink:href="#DejaVuSans-30" x="63.623047"/>
       <use xlink:href="#DejaVuSans-30" x="127.246094"/>
       <use xlink:href="#DejaVuSans-30" x="190.869141"/>
       <use xlink:href="#DejaVuSans-30" x="254.492188"/>
      </g>
     </g>
    </g>
    <g id="xtick_4">
     <g id="line2d_4">
      <g>
       <use xlink:href="#m7d988ba9de" x="271.394976" y="307.584" style="stroke: #000000; stroke-width: 0.8"/>
      </g>
     </g>
     <g id="text_4">
      <!-- 30000 -->
      <g transform="translate(255.488726 322.182437) scale(0.1 -0.1)">
       <defs>
        <path id="DejaVuSans-33" d="M 2597 2516 
Q 3050 2419 3304 2112 
Q 3559 1806 3559 1356 
Q 3559 666 3084 287 
Q 2609 -91 1734 -91 
Q 1441 -91 1130 -33 
Q 819 25 488 141 
L 488 750 
Q 750 597 1062 519 
Q 1375 441 1716 441 
Q 2309 441 2620 675 
Q 2931 909 2931 1356 
Q 2931 1769 2642 2001 
Q 2353 2234 1838 2234 
L 1294 2234 
L 1294 2753 
L 1863 2753 
Q 2328 2753 2575 2939 
Q 2822 3125 2822 3475 
Q 2822 3834 2567 4026 
Q 2313 4219 1838 4219 
Q 1578 4219 1281 4162 
Q 984 4106 628 3988 
L 628 4550 
Q 988 4650 1302 4700 
Q 1616 4750 1894 4750 
Q 2613 4750 3031 4423 
Q 3450 4097 3450 3541 
Q 3450 3153 3228 2886 
Q 3006 2619 2597 2516 
z
" transform="scale(0.015625)"/>
       </defs>
       <use xlink:href="#DejaVuSans-33"/>
       <use xlink:href="#DejaVuSans-30" x="63.623047"/>
       <use xlink:href="#DejaVuSans-30" x="127.246094"/>
       <use xlink:href="#DejaVuSans-30" x="190.869141"/>
       <use xlink:href="#DejaVuSans-30" x="254.492188"/>
      </g>
     </g>
    </g>
    <g id="xtick_5">
     <g id="line2d_5">
      <g>
       <use xlink:href="#m7d988ba9de" x="337.273214" y="307.584" style="stroke: #000000; stroke-width: 0.8"/>
      </g>
     </g>
     <g id="text_5">
      <!-- 40000 -->
      <g transform="translate(321.366964 322.182437) scale(0.1 -0.1)">
       <defs>
        <path id="DejaVuSans-34" d="M 2419 4116 
L 825 1625 
L 2419 1625 
L 2419 4116 
z
M 2253 4666 
L 3047 4666 
L 3047 1625 
L 3713 1625 
L 3713 1100 
L 3047 1100 
L 3047 0 
L 2419 0 
L 2419 1100 
L 313 1100 
L 313 1709 
L 2253 4666 
z
" transform="scale(0.015625)"/>
       </defs>
       <use xlink:href="#DejaVuSans-34"/>
       <use xlink:href="#DejaVuSans-30" x="63.623047"/>
       <use xlink:href="#DejaVuSans-30" x="127.246094"/>
       <use xlink:href="#DejaVuSans-30" x="190.869141"/>
       <use xlink:href="#DejaVuSans-30" x="254.492188"/>
      </g>
     </g>
    </g>
    <g id="xtick_6">
     <g id="line2d_6">
      <g>
       <use xlink:href="#m7d988ba9de" x="403.151452" y="307.584" style="stroke: #000000; stroke-width: 0.8"/>
      </g>
     </g>
     <g id="text_6">
      <!-- 50000 -->
      <g transform="translate(387.245202 322.182437) scale(0.1 -0.1)">
       <defs>
        <path id="DejaVuSans-35" d="M 691 4666 
L 3169 4666 
L 3169 4134 
L 1269 4134 
L 1269 2991 
Q 1406 3038 1543 3061 
Q 1681 3084 1819 3084 
Q 2600 3084 3056 2656 
Q 3513 2228 3513 1497 
Q 3513 744 3044 326 
Q 2575 -91 1722 -91 
Q 1428 -91 1123 -41 
Q 819 9 494 109 
L 494 744 
Q 775 591 1075 516 
Q 1375 441 1709 441 
Q 2250 441 2565 725 
Q 2881 1009 2881 1497 
Q 2881 1984 2565 2268 
Q 2250 2553 1709 2553 
Q 1456 2553 1204 2497 
Q 953 2441 691 2322 
L 691 4666 
z
" transform="scale(0.015625)"/>
       </defs>
       <use xlink:href="#DejaVuSans-35"/>
       <use xlink:href="#DejaVuSans-30" x="63.623047"/>
       <use xlink:href="#DejaVuSans-30" x="127.246094"/>
       <use xlink:href="#DejaVuSans-30" x="190.869141"/>
       <use xlink:href="#DejaVuSans-30" x="254.492188"/>
      </g>
     </g>
    </g>
    <g id="text_7">
     <!-- timesteps -->
     <g transform="translate(211.443594 335.860562) scale(0.1 -0.1)">
      <defs>
       <path id="DejaVuSans-74" d="M 1172 4494 
L 1172 3500 
L 2356 3500 
L 2356 3053 
L 1172 3053 
L 1172 1153 
Q 1172 725 1289 603 
Q 1406 481 1766 481 
L 2356 481 
L 2356 0 
L 1766 0 
Q 1100 0 847 248 
Q 594 497 594 1153 
L 594 3053 
L 172 3053 
L 172 3500 
L 594 3500 
L 594 4494 
L 1172 4494 
z
" transform="scale(0.015625)"/>
       <path id="DejaVuSans-69" d="M 603 3500 
L 1178 3500 
L 1178 0 
L 603 0 
L 603 3500 
z
M 603 4863 
L 1178 4863 
L 1178 4134 
L 603 4134 
L 603 4863 
z
" transform="scale(0.015625)"/>
       <path id="DejaVuSans-6d" d="M 3328 2828 
Q 3544 3216 3844 3400 
Q 4144 3584 4550 3584 
Q 5097 3584 5394 3201 
Q 5691 2819 5691 2113 
L 5691 0 
L 5113 0 
L 5113 2094 
Q 5113 2597 4934 2840 
Q 4756 3084 4391 3084 
Q 3944 3084 3684 2787 
Q 3425 2491 3425 1978 
L 3425 0 
L 2847 0 
L 2847 2094 
Q 2847 2600 2669 2842 
Q 2491 3084 2119 3084 
Q 1678 3084 1418 2786 
Q 1159 2488 1159 1978 
L 1159 0 
L 581 0 
L 581 3500 
L 1159 3500 
L 1159 2956 
Q 1356 3278 1631 3431 
Q 1906 3584 2284 3584 
Q 2666 3584 2933 3390 
Q 3200 3197 3328 2828 
z
" transform="scale(0.015625)"/>
       <path id="DejaVuSans-65" d="M 3597 1894 
L 3597 1613 
L 953 1613 
Q 991 1019 1311 708 
Q 1631 397 2203 397 
Q 2534 397 2845 478 
Q 3156 559 3463 722 
L 3463 178 
Q 3153 47 2828 -22 
Q 2503 -91 2169 -91 
Q 1331 -91 842 396 
Q 353 884 353 1716 
Q 353 2575 817 3079 
Q 1281 3584 2069 3584 
Q 2775 3584 3186 3129 
Q 3597 2675 3597 1894 
z
M 3022 2063 
Q 3016 2534 2758 2815 
Q 2500 3097 2075 3097 
Q 1594 3097 1305 2825 
Q 1016 2553 972 2059 
L 3022 2063 
z
" transform="scale(0.015625)"/>
       <path id="DejaVuSans-73" d="M 2834 3397 
L 2834 2853 
Q 2591 2978 2328 3040 
Q 2066 3103 1784 3103 
Q 1356 3103 1142 2972 
Q 928 2841 928 2578 
Q 928 2378 1081 2264 
Q 1234 2150 1697 2047 
L 1894 2003 
Q 2506 1872 2764 1633 
Q 3022 1394 3022 966 
Q 3022 478 2636 193 
Q 2250 -91 1575 -91 
Q 1294 -91 989 -36 
Q 684 19 347 128 
L 347 722 
Q 666 556 975 473 
Q 1284 391 1588 391 
Q 1994 391 2212 530 
Q 2431 669 2431 922 
Q 2431 1156 2273 1281 
Q 2116 1406 1581 1522 
L 1381 1569 
Q 847 1681 609 1914 
Q 372 2147 372 2553 
Q 372 3047 722 3315 
Q 1072 3584 1716 3584 
Q 2034 3584 2315 3537 
Q 2597 3491 2834 3397 
z
" transform="scale(0.015625)"/>
       <path id="DejaVuSans-70" d="M 1159 525 
L 1159 -1331 
L 581 -1331 
L 581 3500 
L 1159 3500 
L 1159 2969 
Q 1341 3281 1617 3432 
Q 1894 3584 2278 3584 
Q 2916 3584 3314 3078 
Q 3713 2572 3713 1747 
Q 3713 922 3314 415 
Q 2916 -91 2278 -91 
Q 1894 -91 1617 61 
Q 1341 213 1159 525 
z
M 3116 1747 
Q 3116 2381 2855 2742 
Q 2594 3103 2138 3103 
Q 1681 3103 1420 2742 
Q 1159 2381 1159 1747 
Q 1159 1113 1420 752 
Q 1681 391 2138 391 
Q 2594 391 2855 752 
Q 3116 1113 3116 1747 
z
" transform="scale(0.015625)"/>
      </defs>
      <use xlink:href="#DejaVuSans-74"/>
      <use xlink:href="#DejaVuSans-69" x="39.208984"/>
      <use xlink:href="#DejaVuSans-6d" x="66.992188"/>
      <use xlink:href="#DejaVuSans-65" x="164.404297"/>
      <use xlink:href="#DejaVuSans-73" x="225.927734"/>
      <use xlink:href="#DejaVuSans-74" x="278.027344"/>
      <use xlink:href="#DejaVuSans-65" x="317.236328"/>
      <use xlink:href="#DejaVuSans-70" x="378.759766"/>
      <use xlink:href="#DejaVuSans-73" x="442.236328"/>
     </g>
    </g>
   </g>
   <g id="matplotlib.axis_2">
    <g id="ytick_1">
     <g id="line2d_7">
      <defs>
       <path id="mcc55d4e989" d="M 0 0 
L -3.5 0 
" style="stroke: #000000; stroke-width: 0.8"/>
      </defs>
      <g>
       <use xlink:href="#mcc55d4e989" x="57.6" y="298.785606" style="stroke: #000000; stroke-width: 0.8"/>
      </g>
     </g>
     <g id="text_8">
      <!-- 0 -->
      <g transform="translate(44.2375 302.584825) scale(0.1 -0.1)">
       <use xlink:href="#DejaVuSans-30"/>
      </g>
     </g>
    </g>
    <g id="ytick_2">
     <g id="line2d_8">
      <g>
       <use xlink:href="#mcc55d4e989" x="57.6" y="261.203699" style="stroke: #000000; stroke-width: 0.8"/>
      </g>
     </g>
     <g id="text_9">
      <!-- 50 -->
      <g transform="translate(37.875 265.002918) scale(0.1 -0.1)">
       <use xlink:href="#DejaVuSans-35"/>
       <use xlink:href="#DejaVuSans-30" x="63.623047"/>
      </g>
     </g>
    </g>
    <g id="ytick_3">
     <g id="line2d_9">
      <g>
       <use xlink:href="#mcc55d4e989" x="57.6" y="223.621792" style="stroke: #000000; stroke-width: 0.8"/>
      </g>
     </g>
     <g id="text_10">
      <!-- 100 -->
      <g transform="translate(31.5125 227.421011) scale(0.1 -0.1)">
       <use xlink:href="#DejaVuSans-31"/>
       <use xlink:href="#DejaVuSans-30" x="63.623047"/>
       <use xlink:href="#DejaVuSans-30" x="127.246094"/>
      </g>
     </g>
    </g>
    <g id="ytick_4">
     <g id="line2d_10">
      <g>
       <use xlink:href="#mcc55d4e989" x="57.6" y="186.039885" style="stroke: #000000; stroke-width: 0.8"/>
      </g>
     </g>
     <g id="text_11">
      <!-- 150 -->
      <g transform="translate(31.5125 189.839104) scale(0.1 -0.1)">
       <use xlink:href="#DejaVuSans-31"/>
       <use xlink:href="#DejaVuSans-35" x="63.623047"/>
       <use xlink:href="#DejaVuSans-30" x="127.246094"/>
      </g>
     </g>
    </g>
    <g id="ytick_5">
     <g id="line2d_11">
      <g>
       <use xlink:href="#mcc55d4e989" x="57.6" y="148.457978" style="stroke: #000000; stroke-width: 0.8"/>
      </g>
     </g>
     <g id="text_12">
      <!-- 200 -->
      <g transform="translate(31.5125 152.257197) scale(0.1 -0.1)">
       <use xlink:href="#DejaVuSans-32"/>
       <use xlink:href="#DejaVuSans-30" x="63.623047"/>
       <use xlink:href="#DejaVuSans-30" x="127.246094"/>
      </g>
     </g>
    </g>
    <g id="ytick_6">
     <g id="line2d_12">
      <g>
       <use xlink:href="#mcc55d4e989" x="57.6" y="110.876071" style="stroke: #000000; stroke-width: 0.8"/>
      </g>
     </g>
     <g id="text_13">
      <!-- 250 -->
      <g transform="translate(31.5125 114.67529) scale(0.1 -0.1)">
       <use xlink:href="#DejaVuSans-32"/>
       <use xlink:href="#DejaVuSans-35" x="63.623047"/>
       <use xlink:href="#DejaVuSans-30" x="127.246094"/>
      </g>
     </g>
    </g>
    <g id="ytick_7">
     <g id="line2d_13">
      <g>
       <use xlink:href="#mcc55d4e989" x="57.6" y="73.294164" style="stroke: #000000; stroke-width: 0.8"/>
      </g>
     </g>
     <g id="text_14">
      <!-- 300 -->
      <g transform="translate(31.5125 77.093383) scale(0.1 -0.1)">
       <use xlink:href="#DejaVuSans-33"/>
       <use xlink:href="#DejaVuSans-30" x="63.623047"/>
       <use xlink:href="#DejaVuSans-30" x="127.246094"/>
      </g>
     </g>
    </g>
    <g id="text_15">
     <!-- rewards -->
     <g transform="translate(25.432812 194.447531) rotate(-90) scale(0.1 -0.1)">
      <defs>
       <path id="DejaVuSans-72" d="M 2631 2963 
Q 2534 3019 2420 3045 
Q 2306 3072 2169 3072 
Q 1681 3072 1420 2755 
Q 1159 2438 1159 1844 
L 1159 0 
L 581 0 
L 581 3500 
L 1159 3500 
L 1159 2956 
Q 1341 3275 1631 3429 
Q 1922 3584 2338 3584 
Q 2397 3584 2469 3576 
Q 2541 3569 2628 3553 
L 2631 2963 
z
" transform="scale(0.015625)"/>
       <path id="DejaVuSans-77" d="M 269 3500 
L 844 3500 
L 1563 769 
L 2278 3500 
L 2956 3500 
L 3675 769 
L 4391 3500 
L 4966 3500 
L 4050 0 
L 3372 0 
L 2619 2869 
L 1863 0 
L 1184 0 
L 269 3500 
z
" transform="scale(0.015625)"/>
       <path id="DejaVuSans-61" d="M 2194 1759 
Q 1497 1759 1228 1600 
Q 959 1441 959 1056 
Q 959 750 1161 570 
Q 1363 391 1709 391 
Q 2188 391 2477 730 
Q 2766 1069 2766 1631 
L 2766 1759 
L 2194 1759 
z
M 3341 1997 
L 3341 0 
L 2766 0 
L 2766 531 
Q 2569 213 2275 61 
Q 1981 -91 1556 -91 
Q 1019 -91 701 211 
Q 384 513 384 1019 
Q 384 1609 779 1909 
Q 1175 2209 1959 2209 
L 2766 2209 
L 2766 2266 
Q 2766 2663 2505 2880 
Q 2244 3097 1772 3097 
Q 1472 3097 1187 3025 
Q 903 2953 641 2809 
L 641 3341 
Q 956 3463 1253 3523 
Q 1550 3584 1831 3584 
Q 2591 3584 2966 3190 
Q 3341 2797 3341 1997 
z
" transform="scale(0.015625)"/>
       <path id="DejaVuSans-64" d="M 2906 2969 
L 2906 4863 
L 3481 4863 
L 3481 0 
L 2906 0 
L 2906 525 
Q 2725 213 2448 61 
Q 2172 -91 1784 -91 
Q 1150 -91 751 415 
Q 353 922 353 1747 
Q 353 2572 751 3078 
Q 1150 3584 1784 3584 
Q 2172 3584 2448 3432 
Q 2725 3281 2906 2969 
z
M 947 1747 
Q 947 1113 1208 752 
Q 1469 391 1925 391 
Q 2381 391 2643 752 
Q 2906 1113 2906 1747 
Q 2906 2381 2643 2742 
Q 2381 3103 1925 3103 
Q 1469 3103 1208 2742 
Q 947 2381 947 1747 
z
" transform="scale(0.015625)"/>
      </defs>
      <use xlink:href="#DejaVuSans-72"/>
      <use xlink:href="#DejaVuSans-65" x="38.863281"/>
      <use xlink:href="#DejaVuSans-77" x="100.386719"/>
      <use xlink:href="#DejaVuSans-61" x="182.173828"/>
      <use xlink:href="#DejaVuSans-72" x="243.453125"/>
      <use xlink:href="#DejaVuSans-64" x="282.816406"/>
      <use xlink:href="#DejaVuSans-73" x="346.292969"/>
     </g>
    </g>
   </g>
   <g id="line2d_14">
    <path d="M 73.832727 291.913594 
L 73.911781 294.284037 
L 74.267524 289.324474 
L 74.359753 293.390537 
L 74.5508 289.219452 
L 74.649617 288.442806 
L 74.748435 292.771324 
L 74.965833 287.41935 
L 75.084414 286.781453 
L 75.222758 293.60895 
L 75.394042 286.047934 
L 75.45992 292.886887 
L 75.545561 292.047169 
L 75.723433 281.778715 
L 75.802487 291.53937 
L 76.118702 288.37321 
L 76.224107 286.950947 
L 76.309749 291.703463 
L 76.513972 276.563979 
L 76.79066 285.912954 
L 77.021234 290.776464 
L 77.159578 281.796752 
L 77.409916 255.149483 
L 77.640489 293.738201 
L 77.739307 290.076659 
L 78.035759 290.796967 
L 78.325623 250.289771 
L 78.549609 291.987677 
L 78.694541 289.624594 
L 78.846061 289.871713 
L 78.997581 279.61969 
L 79.267682 290.438449 
L 79.346736 293.529172 
L 79.544371 291.193402 
L 79.669539 293.728532 
L 79.860586 270.15138 
L 79.959403 289.035536 
L 80.124099 289.071085 
L 80.249268 285.747562 
L 80.3942 293.252842 
L 80.749942 272.083165 
L 81.033219 288.525682 
L 81.1518 289.094433 
L 81.250617 288.788329 
L 81.415312 289.950621 
L 81.560245 290.179749 
L 81.692001 284.279215 
L 81.823758 286.387389 
L 82.107034 276.725115 
L 82.337608 291.011912 
L 82.620884 273.531119 
L 82.713114 289.707397 
L 82.838282 289.314685 
L 83.009566 289.566069 
L 83.108383 292.948842 
L 83.187437 291.232334 
L 83.253315 294.460111 
L 83.444362 292.649914 
L 83.549767 287.893487 
L 83.628821 294.38587 
L 83.767166 279.269305 
L 83.90551 293.356895 
L 84.281016 286.386768 
L 84.412772 288.687591 
L 84.564292 279.945822 
L 84.66311 292.651845 
L 84.808042 283.346783 
L 84.887096 291.517806 
L 85.005676 286.102445 
L 85.183548 289.65008 
L 85.282365 288.810587 
L 85.361419 291.41752 
L 85.611756 260.353912 
L 85.78304 287.827215 
L 86.039965 271.223261 
L 86.184897 286.956641 
L 86.310066 284.445234 
L 86.402295 290.754005 
L 86.520876 286.044761 
L 86.59993 292.612817 
L 86.698747 290.177162 
L 87.219185 268.4288 
L 87.443171 292.04619 
L 87.574928 286.492863 
L 87.700096 293.464607 
L 88.016312 281.302625 
L 88.141481 293.550081 
L 88.431345 282.57781 
L 88.530162 288.412868 
L 88.661919 281.287003 
L 88.754148 291.571971 
L 88.846378 290.281723 
L 89.030837 275.855266 
L 89.399755 267.290352 
L 89.643504 294.718409 
L 89.847727 284.80532 
L 89.986071 287.262921 
L 90.32205 254.654927 
L 90.466982 288.990568 
L 90.756847 254.311976 
L 90.914954 285.734574 
L 91.07965 286.764711 
L 91.297048 292.239248 
L 91.797723 265.495696 
L 92.113938 266.562387 
L 92.318161 273.642286 
L 92.390627 292.493055 
L 92.594849 278.530377 
L 92.680491 292.596807 
L 92.752957 291.632461 
L 92.917653 286.728292 
L 93.088936 277.367269 
L 93.207517 286.870015 
L 93.523733 267.71964 
L 93.767482 290.553311 
L 93.938766 278.685273 
L 94.386738 263.506924 
L 94.525082 289.19987 
L 94.623899 287.573063 
L 94.722717 289.475894 
L 94.795183 293.677911 
L 94.940115 286.956639 
L 95.091635 293.072401 
L 95.19704 292.010314 
L 95.302445 289.168851 
L 95.460553 288.355206 
L 95.625248 284.493391 
L 95.730654 291.276771 
L 95.86241 288.025197 
L 96.027106 288.019896 
L 96.132511 287.238585 
L 96.336733 281.798139 
L 96.475078 284.299612 
L 96.712239 292.274011 
L 96.909874 287.963341 
L 97.298556 251.442483 
L 97.502778 290.680071 
L 97.641123 291.005745 
L 97.73994 289.228308 
L 97.917811 281.427569 
L 98.049568 282.35101 
L 98.108858 294.766982 
L 98.214263 287.030636 
L 98.326256 288.594699 
L 98.49754 286.025181 
L 98.853282 245.106902 
L 99.149734 291.355053 
L 99.268315 290.297483 
L 99.709699 229.356285 
L 100.058854 257.987179 
L 100.157671 288.793941 
L 100.289428 281.042151 
L 100.394833 289.955961 
L 100.533177 283.419854 
L 100.678109 286.384569 
L 101.198547 221.729817 
L 101.323716 289.337993 
L 101.448885 292.409733 
L 101.626756 288.918316 
L 101.751925 290.601354 
L 101.969323 264.375507 
L 102.061552 291.252217 
L 102.173545 289.800231 
L 102.31189 281.71535 
L 102.450234 286.859093 
L 102.568815 284.875684 
L 102.838916 293.556466 
L 102.937733 292.936729 
L 103.102428 281.907251 
L 103.313239 292.260795 
L 103.471347 283.271339 
L 103.655806 290.218276 
L 103.800738 291.452269 
L 103.866616 292.972896 
L 103.958846 290.474506 
L 104.182832 256.568129 
L 104.314588 284.910621 
L 104.472696 291.200239 
L 104.604452 288.52897 
L 104.696682 289.302403 
L 104.835026 287.603319 
L 104.947019 289.132688 
L 105.039249 289.007804 
L 105.335701 257.587134 
L 105.744146 290.542053 
L 105.902254 287.93128 
L 106.099888 271.83897 
L 106.271172 291.470928 
L 106.462219 285.633662 
L 106.686205 265.945431 
L 106.79161 287.006653 
L 106.916778 284.069949 
L 107.134177 292.308077 
L 107.24617 286.847633 
L 107.318636 291.71021 
L 107.621676 268.850992 
L 107.713905 292.221885 
L 107.832486 287.170616 
L 107.918128 291.926416 
L 108.161877 286.554556 
L 108.287046 290.544511 
L 108.372688 290.388703 
L 108.464917 290.567595 
L 108.688903 285.495135 
L 108.767957 292.522601 
L 108.899713 289.234466 
L 108.978767 292.336878 
L 109.097348 285.473211 
L 109.275219 284.597599 
L 109.380625 289.3117 
L 109.492618 285.63311 
L 109.716604 271.899369 
L 109.973529 286.41136 
L 110.177751 292.079877 
L 110.329271 279.943087 
L 110.60596 293.568201 
L 110.902412 258.327714 
L 111.020993 290.723904 
L 111.132986 288.304907 
L 111.251567 292.698706 
L 111.376735 289.981796 
L 111.831295 244.314676 
L 112.094808 288.040589 
L 112.147511 293.978267 
L 112.325382 279.163112 
L 112.6943 292.316195 
L 112.918286 276.568314 
L 113.030279 286.884459 
L 113.241089 280.301123 
L 113.596832 262.173403 
L 113.768115 292.792531 
L 113.998689 289.079832 
L 114.156797 283.637076 
L 114.249026 292.790876 
L 114.532303 287.36563 
L 114.710174 271.291585 
L 114.907809 273.285609 
L 115.138383 291.47136 
L 115.322842 280.354885 
L 115.421659 293.423329 
L 115.54024 289.335052 
L 115.75105 291.183485 
L 115.928921 284.635031 
L 116.106793 273.872049 
L 116.311015 290.823702 
L 116.390069 292.628616 
L 116.607467 273.921977 
L 116.758987 292.941694 
L 116.956622 289.470973 
L 117.062027 290.295863 
L 117.134493 293.468858 
L 117.286013 286.166059 
L 117.523175 288.300993 
L 117.582465 295.488 
L 117.714222 289.700458 
L 117.806451 290.510217 
L 117.911856 289.932435 
L 118.333477 251.699453 
L 118.419119 290.656142 
L 118.610166 275.550803 
L 118.788037 294.924156 
L 118.926381 285.913774 
L 119.058138 287.089606 
L 119.222833 289.61134 
L 119.407292 285.080122 
L 119.591751 276.714338 
L 119.815738 292.923462 
L 119.96067 283.830176 
L 120.178068 289.033225 
L 120.349351 288.045721 
L 120.428405 291.62858 
L 120.520635 289.393952 
L 120.672155 279.311941 
L 120.830262 282.328523 
L 120.922492 292.313133 
L 121.159654 286.204585 
L 121.44293 263.234304 
L 121.640565 291.668926 
L 121.884314 289.283618 
L 121.976544 289.969844 
L 122.04901 292.66688 
L 122.114888 292.390083 
L 122.253232 287.609702 
L 122.358637 292.350059 
L 122.77367 263.012707 
L 122.931778 292.901733 
L 123.182115 280.12378 
L 123.294108 292.634558 
L 123.445628 281.167382 
L 123.537858 291.86201 
L 123.695966 277.572195 
L 123.854074 292.380194 
L 123.959479 289.97656 
L 124.157113 289.813883 
L 124.321809 278.422189 
L 124.427214 289.439104 
L 124.611673 277.646488 
L 124.763193 293.371821 
L 124.974004 280.115142 
L 125.270456 291.386643 
L 125.415388 286.221596 
L 125.566908 286.00418 
L 125.698664 286.05848 
L 125.843596 289.396551 
L 125.962177 288.435636 
L 126.087346 284.381844 
L 126.31792 281.158542 
L 126.52873 290.625507 
L 126.858121 277.710569 
L 126.970114 291.051311 
L 127.101871 290.412011 
L 127.161161 293.652935 
L 127.306093 286.056377 
L 127.510316 289.207367 
L 127.694775 284.762606 
L 127.787004 289.070007 
L 127.925349 285.800321 
L 128.129571 270.644244 
L 128.656597 292.585009 
L 128.755414 292.813228 
L 128.933286 280.184536 
L 129.084806 293.992551 
L 129.150684 292.519901 
L 129.348319 290.848809 
L 129.842405 202.840441 
L 129.974162 284.965507 
L 130.178384 292.860363 
L 130.349668 284.429084 
L 130.514363 293.681128 
L 130.711998 286.699094 
L 130.823991 287.000372 
L 130.975511 289.438993 
L 131.074328 288.058544 
L 131.31149 282.282723 
L 131.594766 269.852338 
L 131.67382 291.086022 
L 131.831928 290.395846 
L 131.904394 293.761264 
L 132.009799 287.693321 
L 132.115205 291.881596 
L 132.358954 283.625128 
L 132.457771 291.555361 
L 132.58294 288.567498 
L 132.741048 279.722322 
L 132.932095 290.663722 
L 133.103378 282.306966 
L 133.287837 293.7756 
L 133.630404 286.426312 
L 133.821451 289.752551 
L 133.953207 289.746785 
L 134.025673 291.981379 
L 134.170606 280.534299 
L 134.348477 281.538654 
L 134.572463 293.355856 
L 134.717395 280.969849 
L 134.882091 291.889864 
L 135.013847 289.251489 
L 135.12584 291.340651 
L 135.448643 275.155582 
L 135.540873 290.571714 
L 135.646278 289.460043 
L 135.73192 291.860033 
L 135.870264 291.742384 
L 136.054723 287.286689 
L 136.252358 272.462735 
L 136.364351 286.539384 
L 136.535634 275.749491 
L 136.634452 290.452317 
L 136.75962 290.814202 
L 136.917728 286.254137 
L 136.996782 292.634956 
L 137.194417 272.154748 
L 137.319585 284.597125 
L 137.477693 281.402187 
L 137.734618 278.6178 
L 137.919077 290.780727 
L 138.011307 292.818183 
L 138.202354 291.024339 
L 138.399988 270.2898 
L 138.498806 292.767769 
L 138.630562 282.706522 
L 138.689853 293.204116 
L 138.762319 291.950514 
L 138.894075 289.503606 
L 138.986305 291.041975 
L 139.071947 290.849856 
L 139.309108 278.921697 
L 139.592385 288.56165 
L 139.836134 270.93165 
L 140.205052 290.756771 
L 140.343397 284.005702 
L 140.475153 291.260411 
L 140.587146 287.688822 
L 140.718902 290.90287 
L 140.824308 290.766344 
L 140.962652 286.094343 
L 141.12076 286.511197 
L 141.344746 273.359154 
L 141.430387 289.483754 
L 141.57532 279.059201 
L 141.812481 290.197671 
L 141.950826 286.92681 
L 142.062819 288.018308 
L 142.201163 294.003568 
L 142.286805 289.565886 
L 142.365858 292.243858 
L 142.444912 290.911874 
L 142.649135 284.305133 
L 142.761128 292.577255 
L 143.235451 256.44722 
L 143.36062 290.024198 
L 143.518728 278.01808 
L 143.624133 292.698586 
L 143.782241 282.422041 
L 143.927173 292.815498 
L 144.078693 285.692866 
L 144.296091 286.567146 
L 144.408084 292.986722 
L 144.737475 277.70548 
L 144.9944 289.842395 
L 145.106393 289.381178 
L 145.29744 290.508518 
L 145.50825 288.289789 
L 145.712473 292.137262 
L 145.890344 286.611654 
L 145.96281 291.792962 
L 146.048452 290.220709 
L 146.147269 292.237331 
L 146.397607 275.193817 
L 146.582066 293.14042 
L 146.654532 292.51124 
L 146.792876 292.812318 
L 146.911457 287.85821 
L 147.030038 289.010795 
L 147.32649 244.864642 
L 147.458246 286.448495 
L 147.662469 277.689478 
L 147.89963 285.469686 
L 147.972096 293.245977 
L 148.136792 279.205081 
L 148.2949 292.120684 
L 148.59794 275.454554 
L 148.683581 294.437307 
L 148.881216 273.325234 
L 148.953682 293.883715 
L 149.157905 276.33437 
L 149.269898 288.837871 
L 149.408242 283.001975 
L 149.47412 293.440301 
L 149.612465 285.709569 
L 149.71787 290.833256 
L 149.895741 280.450039 
L 150.159254 291.902749 
L 150.277835 288.991661 
L 150.778509 256.79862 
L 150.976144 293.013992 
L 151.160603 282.521595 
L 151.252833 289.226273 
L 151.522934 293.11795 
L 151.648102 289.669479 
L 151.786446 281.585725 
L 152.102662 251.805011 
L 152.293709 290.89747 
L 152.432053 284.968629 
L 152.642864 289.621291 
L 152.787796 281.248997 
L 152.886613 291.385474 
L 153.393875 272.664129 
L 153.453166 293.448323 
L 153.716679 285.171572 
L 153.947253 282.972339 
L 154.006543 293.615262 
L 154.131712 289.725008 
L 154.204178 291.723996 
L 154.50063 283.261439 
L 154.632386 284.075632 
L 155.225291 270.518958 
L 155.541506 267.925723 
L 155.739141 280.693281 
L 156.094883 227.171618 
L 156.160761 292.871343 
L 156.272755 285.683862 
L 156.345221 292.469298 
L 156.430862 291.952188 
L 156.52968 289.231808 
L 156.700963 290.618729 
L 156.89201 289.374958 
L 156.977652 291.323343 
L 157.234577 288.034753 
L 157.333394 289.091727 
L 157.465151 288.098152 
L 157.563968 288.688624 
L 157.913123 263.245613 
L 158.025116 286.541189 
L 158.156872 285.871416 
L 158.328156 279.624234 
L 158.499439 293.534057 
L 158.710249 272.008061 
L 158.815654 290.512303 
L 159.013289 277.733545 
L 159.171397 287.138366 
L 159.303153 286.452238 
L 159.520552 291.366397 
L 159.711599 279.966019 
L 159.975111 276.118279 
L 160.047578 293.334648 
L 160.304503 250.226343 
L 160.416496 291.549175 
L 161.002812 268.638366 
L 161.272913 293.514097 
L 161.799939 271.7849 
L 161.964634 289.474004 
L 162.096391 282.67303 
L 162.300613 280.38305 
L 162.570714 268.295538 
L 162.715646 281.477254 
L 163.242672 203.030375 
L 163.486422 284.383239 
L 163.730171 270.669582 
L 163.894867 288.906589 
L 164.132028 290.637192 
L 164.375778 287.553623 
L 164.547061 287.95776 
L 164.777635 272.155728 
L 165.166317 290.558687 
L 165.344188 275.25537 
L 165.594525 290.831973 
L 165.772396 280.136138 
L 165.858038 290.599663 
L 166.273071 242.248606 
L 166.582699 290.295072 
L 166.81986 292.918309 
L 166.958205 290.811978 
L 167.109725 285.001671 
L 167.333711 267.761715 
L 167.445704 286.338167 
L 167.570872 288.451697 
L 167.82121 250.011416 
L 168.400938 194.834803 
L 168.519519 286.647007 
L 168.769856 260.095705 
L 168.888437 289.684272 
L 169.09266 289.219098 
L 169.224416 293.817047 
L 169.342997 289.127754 
L 169.659212 249.004432 
L 169.804145 291.794992 
L 169.935901 292.951392 
L 170.159887 255.98035 
L 170.377285 269.628716 
L 170.746203 232.951726 
L 171.220527 228.395604 
L 171.398398 282.296507 
L 171.589445 288.045392 
L 171.648735 293.441055 
L 171.852958 275.763872 
L 172.103295 288.900815 
L 172.564443 265.92808 
L 172.795017 270.167972 
L 172.959712 294.613781 
L 173.354982 266.726025 
L 173.473562 283.089365 
L 174.23775 132.041585 
L 174.356331 286.910958 
L 174.804303 211.015633 
L 175.436734 171.945009 
L 175.851767 235.880153 
L 176.016462 281.300143 
L 176.299739 274.195396 
L 176.444671 280.625766 
L 176.886055 210.292106 
L 176.984873 288.571786 
L 177.162744 275.584541 
L 177.498723 284.955357 
L 177.735884 285.919499 
L 177.814938 291.058538 
L 177.953283 290.39519 
L 178.058688 287.128576 
L 178.671355 255.288991 
L 178.96122 287.730918 
L 179.073213 287.015918 
L 179.316962 293.583561 
L 179.409192 291.503891 
L 179.494833 292.682451 
L 179.916454 239.903943 
L 180.035035 291.216762 
L 180.212906 282.896035 
L 180.568649 233.333551 
L 181.042972 282.033198 
L 181.299897 284.830112 
L 181.451417 291.984039 
L 181.56341 288.235186 
L 181.642464 293.788631 
L 182.209017 275.213358 
L 182.413239 290.888304 
L 182.571347 292.127963 
L 182.966617 249.347427 
L 183.184015 291.71959 
L 183.625399 220.9367 
L 183.809858 279.873725 
L 184.040432 283.484968 
L 184.672863 241.755618 
L 185.140598 273.247047 
L 185.555631 224.606198 
L 185.674212 285.070926 
L 185.825732 281.951328 
L 185.924549 290.749155 
L 186.04313 287.544335 
L 186.207826 274.445455 
L 186.293468 291.827438 
L 186.556981 273.828506 
L 187.136709 247.114603 
L 187.637384 247.671153 
L 187.841606 260.886147 
L 188.085356 260.449793 
L 188.157822 293.132888 
L 188.335693 283.606674 
L 188.948361 217.860824 
L 189.231637 246.180354 
L 189.508326 292.468299 
L 189.673021 276.072031 
L 189.791602 284.9325 
L 190.061703 283.828248 
L 190.180284 291.211318 
L 190.305452 287.77595 
L 190.628256 245.906285 
L 190.990586 290.659721 
L 191.214572 280.371314 
L 191.497848 281.211236 
L 191.807476 242.419289 
L 192.163219 273.579478 
L 192.604603 233.395373 
L 193.013048 211.146628 
L 193.243622 292.243922 
L 193.988046 178.421506 
L 194.422842 222.79729 
L 194.482133 294.324361 
L 194.712706 269.372144 
L 194.818112 292.314216 
L 195.042098 257.408152 
L 195.371489 243.151245 
L 195.588887 290.017388 
L 196.241082 228.219732 
L 196.583648 275.74692 
L 196.801047 268.559455 
L 197.150201 278.55904 
L 197.314897 293.049566 
L 197.571822 249.21825 
L 197.828747 291.862415 
L 198.112024 241.955536 
L 198.322834 287.685226 
L 198.625874 240.042395 
L 199.106785 215.400645 
L 199.311007 290.362199 
L 199.581108 245.599473 
L 199.673338 289.129918 
L 200.305769 209.188062 
L 200.430938 290.318599 
L 200.529755 288.273345 
L 201.366409 194.433421 
L 201.643097 275.505936 
L 201.972488 239.634657 
L 202.11742 290.871011 
L 202.81573 227.359621 
L 203.158297 278.965587 
L 203.579917 231.222289 
L 204.370456 163.538387 
L 204.930421 292.834322 
L 205.121468 290.311375 
L 205.246637 288.403038 
L 205.622143 259.325375 
L 205.865892 251.136527 
L 206.109642 277.301877 
L 206.32704 258.380497 
L 206.518087 262.013173 
L 206.722309 290.591364 
L 207.08464 224.868309 
L 207.282274 281.095246 
L 207.624841 279.973804 
L 207.848827 292.95274 
L 208.421968 219.872977 
L 208.981933 212.862457 
L 209.120277 287.315219 
L 209.410141 245.529443 
L 209.937167 293.743619 
L 210.134802 261.500335 
L 210.332437 261.860811 
L 210.622301 285.372007 
L 210.872638 272.951969 
L 211.103212 275.671128 
L 211.333786 265.571198 
L 212.295608 213.031917 
L 212.526182 253.416395 
L 212.934627 232.84573 
L 213.580234 163.62097 
L 213.764693 269.549012 
L 213.962328 287.023017 
L 214.113848 281.851133 
L 214.403712 251.75982 
L 214.568407 287.415285 
L 214.86486 245.399034 
L 215.372122 212.345581 
L 215.905736 196.753232 
L 216.169249 278.323154 
L 216.380059 292.486098 
L 216.643572 249.245189 
L 216.959787 246.740024 
L 217.598806 179.502738 
L 218.218062 285.364725 
L 218.356406 286.701871 
L 218.725324 237.400334 
L 219.25235 254.261099 
L 219.634444 274.685575 
L 220.042889 219.855905 
L 220.359105 236.588384 
L 220.681908 244.866964 
L 221.077177 287.743086 
L 221.413156 237.177503 
L 221.610791 268.76358 
L 222.137817 216.971839 
L 222.559438 207.238253 
L 223.0667 221.76838 
L 223.376328 286.870913 
L 223.679368 246.239816 
L 224.292035 213.615437 
L 224.687305 214.103923 
L 225.128689 226.32212 
L 225.379026 251.571733 
L 225.807235 224.633219 
L 226.492369 213.875759 
L 226.88105 233.407234 
L 227.210441 229.075423 
L 227.434427 289.462988 
L 227.968041 207.157459 
L 228.383074 219.598198 
L 228.679526 243.041607 
L 228.923276 252.038261 
L 230.128847 165.941442 
L 230.451651 235.199755 
L 231.24219 165.258571 
L 231.439824 294.80063 
L 232.092019 196.659239 
L 232.691511 253.113912 
L 233.363469 196.20292 
L 233.897083 187.892335 
L 234.226474 242.757154 
L 234.66127 261.651768 
L 234.924783 249.937173 
L 235.188296 249.058625 
L 235.399106 258.916385 
L 235.939308 215.595116 
L 236.268699 238.239839 
L 236.59809 282.13505 
L 237.533561 154.220029 
L 237.849777 257.285638 
L 238.119878 246.138751 
L 238.501971 225.313391 
L 238.917004 271.562413 
L 239.114639 261.254427 
L 239.457206 279.893678 
L 239.89859 199.338153 
L 240.208218 285.102065 
L 240.478319 246.168223 
L 240.932878 231.042246 
L 241.552134 185.861296 
L 241.868349 237.091869 
L 242.395375 230.607246 
L 242.790645 241.343119 
L 243.133212 227.234515 
L 243.673413 223.605324 
L 243.969865 284.19796 
L 244.31902 279.29351 
L 244.852634 218.819685 
L 245.182025 285.716099 
L 245.49824 235.449329 
L 245.761753 250.72435 
L 245.926449 290.151506 
L 247.033203 153.980436 
L 247.283541 251.073329 
L 247.810566 174.120543 
L 248.100431 242.213986 
L 248.429822 282.120203 
L 248.746037 233.005186 
L 249.240124 227.062919 
L 249.589279 242.172635 
L 249.846204 247.444722 
L 250.379818 181.227124 
L 250.590628 259.06045 
L 250.794851 260.49606 
L 250.972722 283.129421 
L 251.308701 239.466635 
L 251.64468 231.644312 
L 252.046537 213.156103 
L 252.382516 253.663216 
L 253.087413 187.136247 
L 253.647378 256.910909 
L 253.97677 232.909976 
L 255.116463 202.073289 
L 255.551259 224.274808 
L 256.236393 175.442998 
L 256.835885 258.39012 
L 257.942639 171.107474 
L 258.344497 209.576201 
L 259.167975 158.629431 
L 259.892635 186.241993 
L 260.373546 188.461333 
L 260.959863 204.842399 
L 261.183849 256.356242 
L 261.539591 229.068869 
L 261.796516 248.731271 
L 262.218137 207.931549 
L 262.593643 231.044369 
L 262.811041 256.93161 
L 263.259013 197.511462 
L 263.766276 223.193881 
L 264.128606 233.430955 
L 264.346004 258.009846 
L 264.767625 221.784751 
L 265.182658 207.522372 
L 265.505461 240.873804 
L 266.012724 177.585369 
L 266.987722 202.103768 
L 267.343464 224.339982 
L 268.02201 161.962713 
L 268.733495 179.966408 
L 268.93113 260.811606 
L 269.418629 191.778567 
L 269.662378 290.217347 
L 270.004945 236.051925 
L 270.479268 198.337083 
L 270.940416 198.352755 
L 271.32251 228.89409 
L 271.704603 217.536056 
L 272.251393 161.337155 
L 272.732304 209.405559 
L 273.232979 200.853831 
L 273.812707 153.87517 
L 274.128923 237.124573 
L 274.695475 182.047559 
L 275.130272 218.551125 
L 275.512366 218.551392 
L 275.973513 198.155052 
L 276.223851 249.91547 
L 276.474188 249.381495 
L 276.777228 238.513713 
L 277.363544 147.650163 
L 279.287189 53.568 
L 279.511175 256.174464 
L 280.150194 172.768662 
L 280.538875 216.422978 
L 280.907793 231.223319 
L 281.724683 206.090265 
L 282.100189 216.98252 
L 282.903904 127.244412 
L 283.819611 118.72978 
L 284.544272 125.323443 
L 285.150352 138.745453 
L 285.776195 143.955373 
L 286.03312 249.091922 
L 286.922476 113.988206 
L 287.357273 203.55606 
L 288.081933 128.630005 
L 288.608959 178.275253 
L 289.1821 152.043923 
L 289.755241 175.15872 
L 290.328381 154.863957 
L 291.046454 140.86378 
L 291.63277 155.537102 
L 292.252026 137.914494 
L 292.838342 152.841509 
L 294.030738 142.598981 
L 294.761987 146.99151 
L 295.38783 141.17132 
L 295.895092 182.413314 
L 296.744922 142.728346 
L 297.337826 147.230966 
L 297.891203 156.809046 
L 298.517046 145.743813 
L 299.162653 137.197935 
L 299.735794 152.156173 
L 300.302347 154.600102 
L 300.908426 141.713785 
L 301.580384 135.152081 
L 302.146937 155.828083 
L 302.753017 148.98768 
L 303.359097 152.605164 
L 303.958589 145.221484 
L 304.564669 142.95277 
L 305.118046 158.696928 
L 305.697774 160.769954 
L 306.290678 146.021107 
L 307.443548 151.824806 
L 308.069391 146.930341 
L 308.695234 134.670116 
L 309.321077 137.013378 
L 309.900806 148.787587 
L 310.506886 142.550147 
L 311.139317 133.863601 
L 311.738809 149.471412 
L 312.351476 142.745716 
L 312.931205 164.145042 
L 313.497758 156.360205 
L 314.090662 146.431494 
L 314.644039 163.680199 
L 315.256707 142.330135 
L 315.88255 144.256614 
L 316.541332 150.521992 
L 317.134236 145.300271 
L 317.713965 150.271779 
L 318.300281 148.548641 
L 318.886598 158.796693 
L 319.499265 138.353594 
L 320.072406 154.901013 
L 320.685073 148.788413 
L 321.488788 123.874413 
L 322.681184 151.645811 
L 323.260913 153.465076 
L 323.860405 147.522813 
L 324.473072 140.184577 
L 325.079152 151.855533 
L 325.645705 152.129994 
L 326.258372 149.878416 
L 326.890803 153.143224 
L 327.490295 146.511814 
L 328.043673 160.576219 
L 328.636577 145.966568 
L 329.32171 132.36052 
L 329.888263 155.020937 
L 330.448228 160.185968 
L 331.172889 140.455948 
L 331.726266 160.128288 
L 332.312582 148.029364 
L 332.898899 149.614764 
L 333.504979 141.241042 
L 334.078119 151.884757 
L 334.690787 139.504968 
L 335.263928 153.139631 
L 335.837068 153.238246 
L 336.410209 152.515652 
L 337.016289 158.419604 
L 337.602605 149.305097 
L 338.208685 142.082689 
L 338.801589 147.044493 
L 339.37473 162.905267 
L 339.967634 154.241909 
L 340.600065 137.137068 
L 341.212732 139.149188 
L 341.799049 148.282629 
L 342.385365 148.378335 
L 342.978269 156.216883 
L 343.55141 158.973215 
L 344.117963 160.447456 
L 344.691103 152.172115 
L 345.303771 140.311153 
L 345.890087 149.24362 
L 346.45664 154.878434 
L 347.042957 150.617788 
L 347.629273 149.743813 
L 348.195826 161.672107 
L 348.775554 156.397592 
L 349.39481 151.885365 
L 349.981126 148.779935 
L 350.567442 160.872485 
L 351.127407 162.229041 
L 351.700548 160.808084 
L 352.24075 163.974736 
L 353.387031 159.717412 
L 353.946996 160.951625 
L 354.572839 140.97966 
L 355.152568 156.592289 
L 355.758647 141.144118 
L 356.364727 144.153459 
L 356.918104 160.224114 
L 357.491245 155.122919 
L 358.038034 161.21212 
L 358.611175 162.725724 
L 359.177728 157.423458 
L 359.744281 161.881168 
L 360.297658 159.713947 
L 360.864211 163.958057 
L 361.470291 141.837655 
L 362.023668 161.412477 
L 362.570457 163.302704 
L 363.163361 149.973619 
L 363.756266 145.848088 
L 364.34917 146.754714 
L 364.92231 156.17089 
L 365.502039 147.882118 
L 366.048828 161.901507 
L 366.621969 155.95944 
L 367.208285 148.214387 
L 367.761662 159.492597 
L 368.341391 149.083063 
L 368.914532 152.732574 
L 369.49426 155.544129 
L 370.093752 145.774968 
L 370.660305 156.489187 
L 371.200506 163.187868 
L 371.786823 150.07739 
L 372.373139 151.783421 
L 372.94628 157.909091 
L 373.512833 160.258223 
L 374.099149 147.009 
L 374.67229 158.22293 
L 375.238842 154.971847 
L 375.818571 150.918278 
L 376.385124 154.170203 
L 376.97144 148.770141 
L 377.537993 161.662163 
L 378.104546 163.393118 
L 378.664511 158.771821 
L 379.224476 155.606891 
L 379.771265 161.037665 
L 380.344406 151.610912 
L 380.976837 136.228901 
L 381.563153 147.698012 
L 382.182409 135.205921 
L 382.775313 150.372709 
L 383.341866 157.303511 
L 383.908419 161.641095 
L 384.481559 153.370016 
L 385.107403 146.48114 
L 385.687131 151.794785 
L 386.240508 159.778829 
L 386.813649 161.628347 
L 387.406553 144.890343 
L 387.979694 152.57234 
L 388.6253 138.776007 
L 389.257732 135.954433 
L 389.804521 162.049189 
L 390.390837 154.377564 
L 390.944214 159.937011 
L 391.510767 163.133322 
L 392.090496 151.880472 
L 392.663636 155.35174 
L 393.256541 145.685531 
L 393.823093 158.451902 
L 394.402822 149.875305 
L 394.98255 152.864472 
L 395.562279 151.032076 
L 396.148595 148.106121 
L 397.308052 161.132033 
L 397.894369 149.889481 
L 398.487273 148.673398 
L 398.487273 148.673398 
" clip-path="url(#p65d42f1a63)" style="fill: none; stroke: #1f77b4; stroke-width: 1.5; stroke-linecap: square"/>
   </g>
   <g id="patch_3">
    <path d="M 57.6 307.584 
L 57.6 41.472 
" style="fill: none; stroke: #000000; stroke-width: 0.8; stroke-linejoin: miter; stroke-linecap: square"/>
   </g>
   <g id="patch_4">
    <path d="M 414.72 307.584 
L 414.72 41.472 
" style="fill: none; stroke: #000000; stroke-width: 0.8; stroke-linejoin: miter; stroke-linecap: square"/>
   </g>
   <g id="patch_5">
    <path d="M 57.6 307.584 
L 414.72 307.584 
" style="fill: none; stroke: #000000; stroke-width: 0.8; stroke-linejoin: miter; stroke-linecap: square"/>
   </g>
   <g id="patch_6">
    <path d="M 57.6 41.472 
L 414.72 41.472 
" style="fill: none; stroke: #000000; stroke-width: 0.8; stroke-linejoin: miter; stroke-linecap: square"/>
   </g>
   <g id="text_16">
    <!-- learning curve -->
    <g transform="translate(192.96375 35.472) scale(0.12 -0.12)">
     <defs>
      <path id="DejaVuSans-6c" d="M 603 4863 
L 1178 4863 
L 1178 0 
L 603 0 
L 603 4863 
z
" transform="scale(0.015625)"/>
      <path id="DejaVuSans-6e" d="M 3513 2113 
L 3513 0 
L 2938 0 
L 2938 2094 
Q 2938 2591 2744 2837 
Q 2550 3084 2163 3084 
Q 1697 3084 1428 2787 
Q 1159 2491 1159 1978 
L 1159 0 
L 581 0 
L 581 3500 
L 1159 3500 
L 1159 2956 
Q 1366 3272 1645 3428 
Q 1925 3584 2291 3584 
Q 2894 3584 3203 3211 
Q 3513 2838 3513 2113 
z
" transform="scale(0.015625)"/>
      <path id="DejaVuSans-67" d="M 2906 1791 
Q 2906 2416 2648 2759 
Q 2391 3103 1925 3103 
Q 1463 3103 1205 2759 
Q 947 2416 947 1791 
Q 947 1169 1205 825 
Q 1463 481 1925 481 
Q 2391 481 2648 825 
Q 2906 1169 2906 1791 
z
M 3481 434 
Q 3481 -459 3084 -895 
Q 2688 -1331 1869 -1331 
Q 1566 -1331 1297 -1286 
Q 1028 -1241 775 -1147 
L 775 -588 
Q 1028 -725 1275 -790 
Q 1522 -856 1778 -856 
Q 2344 -856 2625 -561 
Q 2906 -266 2906 331 
L 2906 616 
Q 2728 306 2450 153 
Q 2172 0 1784 0 
Q 1141 0 747 490 
Q 353 981 353 1791 
Q 353 2603 747 3093 
Q 1141 3584 1784 3584 
Q 2172 3584 2450 3431 
Q 2728 3278 2906 2969 
L 2906 3500 
L 3481 3500 
L 3481 434 
z
" transform="scale(0.015625)"/>
      <path id="DejaVuSans-20" transform="scale(0.015625)"/>
      <path id="DejaVuSans-63" d="M 3122 3366 
L 3122 2828 
Q 2878 2963 2633 3030 
Q 2388 3097 2138 3097 
Q 1578 3097 1268 2742 
Q 959 2388 959 1747 
Q 959 1106 1268 751 
Q 1578 397 2138 397 
Q 2388 397 2633 464 
Q 2878 531 3122 666 
L 3122 134 
Q 2881 22 2623 -34 
Q 2366 -91 2075 -91 
Q 1284 -91 818 406 
Q 353 903 353 1747 
Q 353 2603 823 3093 
Q 1294 3584 2113 3584 
Q 2378 3584 2631 3529 
Q 2884 3475 3122 3366 
z
" transform="scale(0.015625)"/>
      <path id="DejaVuSans-75" d="M 544 1381 
L 544 3500 
L 1119 3500 
L 1119 1403 
Q 1119 906 1312 657 
Q 1506 409 1894 409 
Q 2359 409 2629 706 
Q 2900 1003 2900 1516 
L 2900 3500 
L 3475 3500 
L 3475 0 
L 2900 0 
L 2900 538 
Q 2691 219 2414 64 
Q 2138 -91 1772 -91 
Q 1169 -91 856 284 
Q 544 659 544 1381 
z
M 1991 3584 
L 1991 3584 
z
" transform="scale(0.015625)"/>
      <path id="DejaVuSans-76" d="M 191 3500 
L 800 3500 
L 1894 563 
L 2988 3500 
L 3597 3500 
L 2284 0 
L 1503 0 
L 191 3500 
z
" transform="scale(0.015625)"/>
     </defs>
     <use xlink:href="#DejaVuSans-6c"/>
     <use xlink:href="#DejaVuSans-65" x="27.783203"/>
     <use xlink:href="#DejaVuSans-61" x="89.306641"/>
     <use xlink:href="#DejaVuSans-72" x="150.585938"/>
     <use xlink:href="#DejaVuSans-6e" x="189.949219"/>
     <use xlink:href="#DejaVuSans-69" x="253.328125"/>
     <use xlink:href="#DejaVuSans-6e" x="281.111328"/>
     <use xlink:href="#DejaVuSans-67" x="344.490234"/>
     <use xlink:href="#DejaVuSans-20" x="407.966797"/>
     <use xlink:href="#DejaVuSans-63" x="439.753906"/>
     <use xlink:href="#DejaVuSans-75" x="494.734375"/>
     <use xlink:href="#DejaVuSans-72" x="558.113281"/>
     <use xlink:href="#DejaVuSans-76" x="599.226562"/>
     <use xlink:href="#DejaVuSans-65" x="658.40625"/>
    </g>
   </g>
  </g>
 </g>
 <defs>
  <clipPath id="p65d42f1a63">
   <rect x="57.6" y="41.472" width="357.12" height="266.112"/>
  </clipPath>
 </defs>
</svg>
