<?xml version="1.0" encoding="utf-8" standalone="no"?>
<!DOCTYPE svg PUBLIC "-//W3C//DTD SVG 1.1//EN"
  "http://www.w3.org/Graphics/SVG/1.1/DTD/svg11.dtd">
<svg xmlns:xlink="http://www.w3.org/1999/xlink" width="460.8pt" height="345.6pt" viewBox="0 0 460.8 345.6" xmlns="http://www.w3.org/2000/svg" version="1.1">
 <metadata>
  <rdf:RDF xmlns:dc="http://purl.org/dc/elements/1.1/" xmlns:cc="http://creativecommons.org/ns#" xmlns:rdf="http://www.w3.org/1999/02/22-rdf-syntax-ns#">
   <cc:Work>
    <dc:type rdf:resource="http://purl.org/dc/dcmitype/StillImage"/>
    <dc:date>2023-08-18T15:54:33.675873</dc:date>
    <dc:format>image/svg+xml</dc:format>
    <dc:creator>
     <cc:Agent>
      <dc:title>Matplotlib v3.7.1, https://matplotlib.org/</dc:title>
     </cc:Agent>
    </dc:creator>
   </cc:Work>
  </rdf:RDF>
 </metadata>
 <defs>
  <style type="text/css">*{stroke-linejoin: round; stroke-linecap: butt}</style>
 </defs>
 <g id="figure_1">
  <g id="patch_1">
   <path d="M 0 345.6 
L 460.8 345.6 
L 460.8 0 
L 0 0 
z
" style="fill: #ffffff"/>
  </g>
  <g id="axes_1">
   <g id="patch_2">
    <path d="M 57.6 307.584 
L 414.72 307.584 
L 414.72 41.472 
L 57.6 41.472 
z
" style="fill: #ffffff"/>
   </g>
   <g id="matplotlib.axis_1">
    <g id="xtick_1">
     <g id="line2d_1">
      <defs>
       <path id="mffcfebd6f3" d="M 0 0 
L 0 3.5 
" style="stroke: #000000; stroke-width: 0.8"/>
      </defs>
      <g>
       <use xlink:href="#mffcfebd6f3" x="73.774279" y="307.584" style="stroke: #000000; stroke-width: 0.8"/>
      </g>
     </g>
     <g id="text_1">
      <!-- 0 -->
      <g transform="translate(70.593029 322.182437) scale(0.1 -0.1)">
       <defs>
        <path id="DejaVuSans-30" d="M 2034 4250 
Q 1547 4250 1301 3770 
Q 1056 3291 1056 2328 
Q 1056 1369 1301 889 
Q 1547 409 2034 409 
Q 2525 409 2770 889 
Q 3016 1369 3016 2328 
Q 3016 3291 2770 3770 
Q 2525 4250 2034 4250 
z
M 2034 4750 
Q 2819 4750 3233 4129 
Q 3647 3509 3647 2328 
Q 3647 1150 3233 529 
Q 2819 -91 2034 -91 
Q 1250 -91 836 529 
Q 422 1150 422 2328 
Q 422 3509 836 4129 
Q 1250 4750 2034 4750 
z
" transform="scale(0.015625)"/>
       </defs>
       <use xlink:href="#DejaVuSans-30"/>
      </g>
     </g>
    </g>
    <g id="xtick_2">
     <g id="line2d_2">
      <g>
       <use xlink:href="#mffcfebd6f3" x="138.716878" y="307.584" style="stroke: #000000; stroke-width: 0.8"/>
      </g>
     </g>
     <g id="text_2">
      <!-- 10000 -->
      <g transform="translate(122.810628 322.182437) scale(0.1 -0.1)">
       <defs>
        <path id="DejaVuSans-31" d="M 794 531 
L 1825 531 
L 1825 4091 
L 703 3866 
L 703 4441 
L 1819 4666 
L 2450 4666 
L 2450 531 
L 3481 531 
L 3481 0 
L 794 0 
L 794 531 
z
" transform="scale(0.015625)"/>
       </defs>
       <use xlink:href="#DejaVuSans-31"/>
       <use xlink:href="#DejaVuSans-30" x="63.623047"/>
       <use xlink:href="#DejaVuSans-30" x="127.246094"/>
       <use xlink:href="#DejaVuSans-30" x="190.869141"/>
       <use xlink:href="#DejaVuSans-30" x="254.492188"/>
      </g>
     </g>
    </g>
    <g id="xtick_3">
     <g id="line2d_3">
      <g>
       <use xlink:href="#mffcfebd6f3" x="203.659476" y="307.584" style="stroke: #000000; stroke-width: 0.8"/>
      </g>
     </g>
     <g id="text_3">
      <!-- 20000 -->
      <g transform="translate(187.753226 322.182437) scale(0.1 -0.1)">
       <defs>
        <path id="DejaVuSans-32" d="M 1228 531 
L 3431 531 
L 3431 0 
L 469 0 
L 469 531 
Q 828 903 1448 1529 
Q 2069 2156 2228 2338 
Q 2531 2678 2651 2914 
Q 2772 3150 2772 3378 
Q 2772 3750 2511 3984 
Q 2250 4219 1831 4219 
Q 1534 4219 1204 4116 
Q 875 4013 500 3803 
L 500 4441 
Q 881 4594 1212 4672 
Q 1544 4750 1819 4750 
Q 2544 4750 2975 4387 
Q 3406 4025 3406 3419 
Q 3406 3131 3298 2873 
Q 3191 2616 2906 2266 
Q 2828 2175 2409 1742 
Q 1991 1309 1228 531 
z
" transform="scale(0.015625)"/>
       </defs>
       <use xlink:href="#DejaVuSans-32"/>
       <use xlink:href="#DejaVuSans-30" x="63.623047"/>
       <use xlink:href="#DejaVuSans-30" x="127.246094"/>
       <use xlink:href="#DejaVuSans-30" x="190.869141"/>
       <use xlink:href="#DejaVuSans-30" x="254.492188"/>
      </g>
     </g>
    </g>
    <g id="xtick_4">
     <g id="line2d_4">
      <g>
       <use xlink:href="#mffcfebd6f3" x="268.602075" y="307.584" style="stroke: #000000; stroke-width: 0.8"/>
      </g>
     </g>
     <g id="text_4">
      <!-- 30000 -->
      <g transform="translate(252.695825 322.182437) scale(0.1 -0.1)">
       <defs>
        <path id="DejaVuSans-33" d="M 2597 2516 
Q 3050 2419 3304 2112 
Q 3559 1806 3559 1356 
Q 3559 666 3084 287 
Q 2609 -91 1734 -91 
Q 1441 -91 1130 -33 
Q 819 25 488 141 
L 488 750 
Q 750 597 1062 519 
Q 1375 441 1716 441 
Q 2309 441 2620 675 
Q 2931 909 2931 1356 
Q 2931 1769 2642 2001 
Q 2353 2234 1838 2234 
L 1294 2234 
L 1294 2753 
L 1863 2753 
Q 2328 2753 2575 2939 
Q 2822 3125 2822 3475 
Q 2822 3834 2567 4026 
Q 2313 4219 1838 4219 
Q 1578 4219 1281 4162 
Q 984 4106 628 3988 
L 628 4550 
Q 988 4650 1302 4700 
Q 1616 4750 1894 4750 
Q 2613 4750 3031 4423 
Q 3450 4097 3450 3541 
Q 3450 3153 3228 2886 
Q 3006 2619 2597 2516 
z
" transform="scale(0.015625)"/>
       </defs>
       <use xlink:href="#DejaVuSans-33"/>
       <use xlink:href="#DejaVuSans-30" x="63.623047"/>
       <use xlink:href="#DejaVuSans-30" x="127.246094"/>
       <use xlink:href="#DejaVuSans-30" x="190.869141"/>
       <use xlink:href="#DejaVuSans-30" x="254.492188"/>
      </g>
     </g>
    </g>
    <g id="xtick_5">
     <g id="line2d_5">
      <g>
       <use xlink:href="#mffcfebd6f3" x="333.544674" y="307.584" style="stroke: #000000; stroke-width: 0.8"/>
      </g>
     </g>
     <g id="text_5">
      <!-- 40000 -->
      <g transform="translate(317.638424 322.182437) scale(0.1 -0.1)">
       <defs>
        <path id="DejaVuSans-34" d="M 2419 4116 
L 825 1625 
L 2419 1625 
L 2419 4116 
z
M 2253 4666 
L 3047 4666 
L 3047 1625 
L 3713 1625 
L 3713 1100 
L 3047 1100 
L 3047 0 
L 2419 0 
L 2419 1100 
L 313 1100 
L 313 1709 
L 2253 4666 
z
" transform="scale(0.015625)"/>
       </defs>
       <use xlink:href="#DejaVuSans-34"/>
       <use xlink:href="#DejaVuSans-30" x="63.623047"/>
       <use xlink:href="#DejaVuSans-30" x="127.246094"/>
       <use xlink:href="#DejaVuSans-30" x="190.869141"/>
       <use xlink:href="#DejaVuSans-30" x="254.492188"/>
      </g>
     </g>
    </g>
    <g id="xtick_6">
     <g id="line2d_6">
      <g>
       <use xlink:href="#mffcfebd6f3" x="398.487273" y="307.584" style="stroke: #000000; stroke-width: 0.8"/>
      </g>
     </g>
     <g id="text_6">
      <!-- 50000 -->
      <g transform="translate(382.581023 322.182437) scale(0.1 -0.1)">
       <defs>
        <path id="DejaVuSans-35" d="M 691 4666 
L 3169 4666 
L 3169 4134 
L 1269 4134 
L 1269 2991 
Q 1406 3038 1543 3061 
Q 1681 3084 1819 3084 
Q 2600 3084 3056 2656 
Q 3513 2228 3513 1497 
Q 3513 744 3044 326 
Q 2575 -91 1722 -91 
Q 1428 -91 1123 -41 
Q 819 9 494 109 
L 494 744 
Q 775 591 1075 516 
Q 1375 441 1709 441 
Q 2250 441 2565 725 
Q 2881 1009 2881 1497 
Q 2881 1984 2565 2268 
Q 2250 2553 1709 2553 
Q 1456 2553 1204 2497 
Q 953 2441 691 2322 
L 691 4666 
z
" transform="scale(0.015625)"/>
       </defs>
       <use xlink:href="#DejaVuSans-35"/>
       <use xlink:href="#DejaVuSans-30" x="63.623047"/>
       <use xlink:href="#DejaVuSans-30" x="127.246094"/>
       <use xlink:href="#DejaVuSans-30" x="190.869141"/>
       <use xlink:href="#DejaVuSans-30" x="254.492188"/>
      </g>
     </g>
    </g>
    <g id="text_7">
     <!-- timesteps -->
     <g transform="translate(211.443594 335.860562) scale(0.1 -0.1)">
      <defs>
       <path id="DejaVuSans-74" d="M 1172 4494 
L 1172 3500 
L 2356 3500 
L 2356 3053 
L 1172 3053 
L 1172 1153 
Q 1172 725 1289 603 
Q 1406 481 1766 481 
L 2356 481 
L 2356 0 
L 1766 0 
Q 1100 0 847 248 
Q 594 497 594 1153 
L 594 3053 
L 172 3053 
L 172 3500 
L 594 3500 
L 594 4494 
L 1172 4494 
z
" transform="scale(0.015625)"/>
       <path id="DejaVuSans-69" d="M 603 3500 
L 1178 3500 
L 1178 0 
L 603 0 
L 603 3500 
z
M 603 4863 
L 1178 4863 
L 1178 4134 
L 603 4134 
L 603 4863 
z
" transform="scale(0.015625)"/>
       <path id="DejaVuSans-6d" d="M 3328 2828 
Q 3544 3216 3844 3400 
Q 4144 3584 4550 3584 
Q 5097 3584 5394 3201 
Q 5691 2819 5691 2113 
L 5691 0 
L 5113 0 
L 5113 2094 
Q 5113 2597 4934 2840 
Q 4756 3084 4391 3084 
Q 3944 3084 3684 2787 
Q 3425 2491 3425 1978 
L 3425 0 
L 2847 0 
L 2847 2094 
Q 2847 2600 2669 2842 
Q 2491 3084 2119 3084 
Q 1678 3084 1418 2786 
Q 1159 2488 1159 1978 
L 1159 0 
L 581 0 
L 581 3500 
L 1159 3500 
L 1159 2956 
Q 1356 3278 1631 3431 
Q 1906 3584 2284 3584 
Q 2666 3584 2933 3390 
Q 3200 3197 3328 2828 
z
" transform="scale(0.015625)"/>
       <path id="DejaVuSans-65" d="M 3597 1894 
L 3597 1613 
L 953 1613 
Q 991 1019 1311 708 
Q 1631 397 2203 397 
Q 2534 397 2845 478 
Q 3156 559 3463 722 
L 3463 178 
Q 3153 47 2828 -22 
Q 2503 -91 2169 -91 
Q 1331 -91 842 396 
Q 353 884 353 1716 
Q 353 2575 817 3079 
Q 1281 3584 2069 3584 
Q 2775 3584 3186 3129 
Q 3597 2675 3597 1894 
z
M 3022 2063 
Q 3016 2534 2758 2815 
Q 2500 3097 2075 3097 
Q 1594 3097 1305 2825 
Q 1016 2553 972 2059 
L 3022 2063 
z
" transform="scale(0.015625)"/>
       <path id="DejaVuSans-73" d="M 2834 3397 
L 2834 2853 
Q 2591 2978 2328 3040 
Q 2066 3103 1784 3103 
Q 1356 3103 1142 2972 
Q 928 2841 928 2578 
Q 928 2378 1081 2264 
Q 1234 2150 1697 2047 
L 1894 2003 
Q 2506 1872 2764 1633 
Q 3022 1394 3022 966 
Q 3022 478 2636 193 
Q 2250 -91 1575 -91 
Q 1294 -91 989 -36 
Q 684 19 347 128 
L 347 722 
Q 666 556 975 473 
Q 1284 391 1588 391 
Q 1994 391 2212 530 
Q 2431 669 2431 922 
Q 2431 1156 2273 1281 
Q 2116 1406 1581 1522 
L 1381 1569 
Q 847 1681 609 1914 
Q 372 2147 372 2553 
Q 372 3047 722 3315 
Q 1072 3584 1716 3584 
Q 2034 3584 2315 3537 
Q 2597 3491 2834 3397 
z
" transform="scale(0.015625)"/>
       <path id="DejaVuSans-70" d="M 1159 525 
L 1159 -1331 
L 581 -1331 
L 581 3500 
L 1159 3500 
L 1159 2969 
Q 1341 3281 1617 3432 
Q 1894 3584 2278 3584 
Q 2916 3584 3314 3078 
Q 3713 2572 3713 1747 
Q 3713 922 3314 415 
Q 2916 -91 2278 -91 
Q 1894 -91 1617 61 
Q 1341 213 1159 525 
z
M 3116 1747 
Q 3116 2381 2855 2742 
Q 2594 3103 2138 3103 
Q 1681 3103 1420 2742 
Q 1159 2381 1159 1747 
Q 1159 1113 1420 752 
Q 1681 391 2138 391 
Q 2594 391 2855 752 
Q 3116 1113 3116 1747 
z
" transform="scale(0.015625)"/>
      </defs>
      <use xlink:href="#DejaVuSans-74"/>
      <use xlink:href="#DejaVuSans-69" x="39.208984"/>
      <use xlink:href="#DejaVuSans-6d" x="66.992188"/>
      <use xlink:href="#DejaVuSans-65" x="164.404297"/>
      <use xlink:href="#DejaVuSans-73" x="225.927734"/>
      <use xlink:href="#DejaVuSans-74" x="278.027344"/>
      <use xlink:href="#DejaVuSans-65" x="317.236328"/>
      <use xlink:href="#DejaVuSans-70" x="378.759766"/>
      <use xlink:href="#DejaVuSans-73" x="442.236328"/>
     </g>
    </g>
   </g>
   <g id="matplotlib.axis_2">
    <g id="ytick_1">
     <g id="line2d_7">
      <defs>
       <path id="mae35ac0bb5" d="M 0 0 
L -3.5 0 
" style="stroke: #000000; stroke-width: 0.8"/>
      </defs>
      <g>
       <use xlink:href="#mae35ac0bb5" x="57.6" y="295.187361" style="stroke: #000000; stroke-width: 0.8"/>
      </g>
     </g>
     <g id="text_8">
      <!-- 0 -->
      <g transform="translate(44.2375 298.98658) scale(0.1 -0.1)">
       <use xlink:href="#DejaVuSans-30"/>
      </g>
     </g>
    </g>
    <g id="ytick_2">
     <g id="line2d_8">
      <g>
       <use xlink:href="#mae35ac0bb5" x="57.6" y="253.096395" style="stroke: #000000; stroke-width: 0.8"/>
      </g>
     </g>
     <g id="text_9">
      <!-- 50 -->
      <g transform="translate(37.875 256.895614) scale(0.1 -0.1)">
       <use xlink:href="#DejaVuSans-35"/>
       <use xlink:href="#DejaVuSans-30" x="63.623047"/>
      </g>
     </g>
    </g>
    <g id="ytick_3">
     <g id="line2d_9">
      <g>
       <use xlink:href="#mae35ac0bb5" x="57.6" y="211.005429" style="stroke: #000000; stroke-width: 0.8"/>
      </g>
     </g>
     <g id="text_10">
      <!-- 100 -->
      <g transform="translate(31.5125 214.804648) scale(0.1 -0.1)">
       <use xlink:href="#DejaVuSans-31"/>
       <use xlink:href="#DejaVuSans-30" x="63.623047"/>
       <use xlink:href="#DejaVuSans-30" x="127.246094"/>
      </g>
     </g>
    </g>
    <g id="ytick_4">
     <g id="line2d_10">
      <g>
       <use xlink:href="#mae35ac0bb5" x="57.6" y="168.914463" style="stroke: #000000; stroke-width: 0.8"/>
      </g>
     </g>
     <g id="text_11">
      <!-- 150 -->
      <g transform="translate(31.5125 172.713681) scale(0.1 -0.1)">
       <use xlink:href="#DejaVuSans-31"/>
       <use xlink:href="#DejaVuSans-35" x="63.623047"/>
       <use xlink:href="#DejaVuSans-30" x="127.246094"/>
      </g>
     </g>
    </g>
    <g id="ytick_5">
     <g id="line2d_11">
      <g>
       <use xlink:href="#mae35ac0bb5" x="57.6" y="126.823496" style="stroke: #000000; stroke-width: 0.8"/>
      </g>
     </g>
     <g id="text_12">
      <!-- 200 -->
      <g transform="translate(31.5125 130.622715) scale(0.1 -0.1)">
       <use xlink:href="#DejaVuSans-32"/>
       <use xlink:href="#DejaVuSans-30" x="63.623047"/>
       <use xlink:href="#DejaVuSans-30" x="127.246094"/>
      </g>
     </g>
    </g>
    <g id="ytick_6">
     <g id="line2d_12">
      <g>
       <use xlink:href="#mae35ac0bb5" x="57.6" y="84.73253" style="stroke: #000000; stroke-width: 0.8"/>
      </g>
     </g>
     <g id="text_13">
      <!-- 250 -->
      <g transform="translate(31.5125 88.531749) scale(0.1 -0.1)">
       <use xlink:href="#DejaVuSans-32"/>
       <use xlink:href="#DejaVuSans-35" x="63.623047"/>
       <use xlink:href="#DejaVuSans-30" x="127.246094"/>
      </g>
     </g>
    </g>
    <g id="ytick_7">
     <g id="line2d_13">
      <g>
       <use xlink:href="#mae35ac0bb5" x="57.6" y="42.641564" style="stroke: #000000; stroke-width: 0.8"/>
      </g>
     </g>
     <g id="text_14">
      <!-- 300 -->
      <g transform="translate(31.5125 46.440783) scale(0.1 -0.1)">
       <use xlink:href="#DejaVuSans-33"/>
       <use xlink:href="#DejaVuSans-30" x="63.623047"/>
       <use xlink:href="#DejaVuSans-30" x="127.246094"/>
      </g>
     </g>
    </g>
    <g id="text_15">
     <!-- mean episode rewards -->
     <g transform="translate(25.432812 231.360031) rotate(-90) scale(0.1 -0.1)">
      <defs>
       <path id="DejaVuSans-61" d="M 2194 1759 
Q 1497 1759 1228 1600 
Q 959 1441 959 1056 
Q 959 750 1161 570 
Q 1363 391 1709 391 
Q 2188 391 2477 730 
Q 2766 1069 2766 1631 
L 2766 1759 
L 2194 1759 
z
M 3341 1997 
L 3341 0 
L 2766 0 
L 2766 531 
Q 2569 213 2275 61 
Q 1981 -91 1556 -91 
Q 1019 -91 701 211 
Q 384 513 384 1019 
Q 384 1609 779 1909 
Q 1175 2209 1959 2209 
L 2766 2209 
L 2766 2266 
Q 2766 2663 2505 2880 
Q 2244 3097 1772 3097 
Q 1472 3097 1187 3025 
Q 903 2953 641 2809 
L 641 3341 
Q 956 3463 1253 3523 
Q 1550 3584 1831 3584 
Q 2591 3584 2966 3190 
Q 3341 2797 3341 1997 
z
" transform="scale(0.015625)"/>
       <path id="DejaVuSans-6e" d="M 3513 2113 
L 3513 0 
L 2938 0 
L 2938 2094 
Q 2938 2591 2744 2837 
Q 2550 3084 2163 3084 
Q 1697 3084 1428 2787 
Q 1159 2491 1159 1978 
L 1159 0 
L 581 0 
L 581 3500 
L 1159 3500 
L 1159 2956 
Q 1366 3272 1645 3428 
Q 1925 3584 2291 3584 
Q 2894 3584 3203 3211 
Q 3513 2838 3513 2113 
z
" transform="scale(0.015625)"/>
       <path id="DejaVuSans-20" transform="scale(0.015625)"/>
       <path id="DejaVuSans-6f" d="M 1959 3097 
Q 1497 3097 1228 2736 
Q 959 2375 959 1747 
Q 959 1119 1226 758 
Q 1494 397 1959 397 
Q 2419 397 2687 759 
Q 2956 1122 2956 1747 
Q 2956 2369 2687 2733 
Q 2419 3097 1959 3097 
z
M 1959 3584 
Q 2709 3584 3137 3096 
Q 3566 2609 3566 1747 
Q 3566 888 3137 398 
Q 2709 -91 1959 -91 
Q 1206 -91 779 398 
Q 353 888 353 1747 
Q 353 2609 779 3096 
Q 1206 3584 1959 3584 
z
" transform="scale(0.015625)"/>
       <path id="DejaVuSans-64" d="M 2906 2969 
L 2906 4863 
L 3481 4863 
L 3481 0 
L 2906 0 
L 2906 525 
Q 2725 213 2448 61 
Q 2172 -91 1784 -91 
Q 1150 -91 751 415 
Q 353 922 353 1747 
Q 353 2572 751 3078 
Q 1150 3584 1784 3584 
Q 2172 3584 2448 3432 
Q 2725 3281 2906 2969 
z
M 947 1747 
Q 947 1113 1208 752 
Q 1469 391 1925 391 
Q 2381 391 2643 752 
Q 2906 1113 2906 1747 
Q 2906 2381 2643 2742 
Q 2381 3103 1925 3103 
Q 1469 3103 1208 2742 
Q 947 2381 947 1747 
z
" transform="scale(0.015625)"/>
       <path id="DejaVuSans-72" d="M 2631 2963 
Q 2534 3019 2420 3045 
Q 2306 3072 2169 3072 
Q 1681 3072 1420 2755 
Q 1159 2438 1159 1844 
L 1159 0 
L 581 0 
L 581 3500 
L 1159 3500 
L 1159 2956 
Q 1341 3275 1631 3429 
Q 1922 3584 2338 3584 
Q 2397 3584 2469 3576 
Q 2541 3569 2628 3553 
L 2631 2963 
z
" transform="scale(0.015625)"/>
       <path id="DejaVuSans-77" d="M 269 3500 
L 844 3500 
L 1563 769 
L 2278 3500 
L 2956 3500 
L 3675 769 
L 4391 3500 
L 4966 3500 
L 4050 0 
L 3372 0 
L 2619 2869 
L 1863 0 
L 1184 0 
L 269 3500 
z
" transform="scale(0.015625)"/>
      </defs>
      <use xlink:href="#DejaVuSans-6d"/>
      <use xlink:href="#DejaVuSans-65" x="97.412109"/>
      <use xlink:href="#DejaVuSans-61" x="158.935547"/>
      <use xlink:href="#DejaVuSans-6e" x="220.214844"/>
      <use xlink:href="#DejaVuSans-20" x="283.59375"/>
      <use xlink:href="#DejaVuSans-65" x="315.380859"/>
      <use xlink:href="#DejaVuSans-70" x="376.904297"/>
      <use xlink:href="#DejaVuSans-69" x="440.380859"/>
      <use xlink:href="#DejaVuSans-73" x="468.164062"/>
      <use xlink:href="#DejaVuSans-6f" x="520.263672"/>
      <use xlink:href="#DejaVuSans-64" x="581.445312"/>
      <use xlink:href="#DejaVuSans-65" x="644.921875"/>
      <use xlink:href="#DejaVuSans-20" x="706.445312"/>
      <use xlink:href="#DejaVuSans-72" x="738.232422"/>
      <use xlink:href="#DejaVuSans-65" x="777.095703"/>
      <use xlink:href="#DejaVuSans-77" x="838.619141"/>
      <use xlink:href="#DejaVuSans-61" x="920.40625"/>
      <use xlink:href="#DejaVuSans-72" x="981.685547"/>
      <use xlink:href="#DejaVuSans-64" x="1021.048828"/>
      <use xlink:href="#DejaVuSans-73" x="1084.525391"/>
     </g>
    </g>
   </g>
   <g id="line2d_14">
    <path d="M 73.832727 290.354157 
L 73.904164 287.347773 
L 73.982095 287.757494 
L 74.066521 285.269079 
L 74.332785 289.502374 
L 74.540602 283.514998 
L 74.64451 292.460913 
L 74.982211 281.342307 
L 75.112096 285.835143 
L 75.248476 279.257901 
L 75.534223 284.396042 
L 75.690086 275.912312 
L 75.781005 288.328109 
L 76.099224 281.161894 
L 76.281063 286.162902 
L 76.404454 281.40204 
L 76.508362 291.067051 
L 76.61227 290.369538 
L 76.833075 286.910097 
L 77.079857 252.585971 
L 77.203248 289.420803 
L 77.320145 280.772616 
L 77.573421 253.470469 
L 77.657846 286.676795 
L 77.748766 285.887421 
L 78.06049 273.983811 
L 78.24233 275.462884 
L 78.534571 288.953956 
L 78.612503 289.166 
L 78.742388 277.648521 
L 78.995664 236.030453 
L 79.067101 288.368476 
L 79.222963 276.139208 
L 79.437274 268.768257 
L 79.515205 287.102843 
L 79.64509 286.250304 
L 79.736009 287.622913 
L 79.885377 273.183728 
L 79.956814 288.212386 
L 80.164631 272.931096 
L 80.320493 272.95165 
L 80.417907 289.675217 
L 80.502332 285.894504 
L 80.736126 270.80296 
L 80.924459 291.696438 
L 81.151758 275.02225 
L 81.340092 288.473798 
L 81.39854 290.255675 
L 81.664805 285.111949 
L 81.846644 274.5958 
L 82.158368 237.671189 
L 82.2363 287.103871 
L 82.40515 282.939666 
L 82.625955 249.282827 
L 82.723369 287.082413 
L 82.840266 281.952567 
L 83.002622 283.919027 
L 83.210439 271.887944 
L 83.372795 285.732341 
L 83.483197 285.08958 
L 83.54814 289.332604 
L 83.918313 270.11977 
L 84.197566 289.426579 
L 84.262509 288.433529 
L 84.457336 283.163844 
L 84.522279 289.361382 
L 84.762567 287.49485 
L 84.898946 275.226657 
L 84.957394 290.292861 
L 85.165211 279.47158 
L 85.282107 287.29702 
L 85.405498 284.337721 
L 85.463947 290.637064 
L 85.691246 287.550826 
L 85.795154 283.743188 
L 85.918545 285.339351 
L 86.00297 288.166503 
L 86.106878 287.978421 
L 86.191304 288.658439 
L 86.392626 265.226195 
L 86.600442 276.5042 
L 86.736822 274.690714 
L 86.970615 286.978645 
L 87.106994 284.305517 
L 87.19142 286.252363 
L 87.503144 276.994303 
L 87.860329 234.90718 
L 87.977225 288.434623 
L 88.275961 258.836671 
L 88.366881 287.666687 
L 88.451306 287.371281 
L 88.613663 269.666343 
L 88.801996 271.757425 
L 88.879927 289.544236 
L 89.03579 282.475236 
L 89.230617 286.775323 
L 89.321537 285.506251 
L 89.496882 276.09319 
L 89.698204 286.155694 
L 89.815101 282.725728 
L 89.886538 289.423619 
L 90.211251 256.8458 
L 90.490504 271.654715 
L 90.78924 267.52091 
L 90.860677 289.144819 
L 91.00355 290.265948 
L 91.211367 267.896945 
L 91.282804 289.164612 
L 91.367229 289.152 
L 91.529585 280.870501 
L 91.730907 277.23596 
L 91.977689 289.133613 
L 92.243954 277.969101 
L 92.614127 257.617921 
L 92.815449 259.415618 
L 92.951828 284.297949 
L 93.263553 225.278139 
L 93.601254 286.204845 
L 93.828553 273.317035 
L 94.03637 288.215023 
L 94.231198 275.924272 
L 94.490968 282.862161 
L 94.822175 252.054092 
L 94.913095 288.230146 
L 95.04298 276.764287 
L 95.107923 290.682855 
L 95.270279 288.858375 
L 95.478095 281.955962 
L 95.685912 287.270983 
L 95.796314 280.449572 
L 95.965165 285.46928 
L 96.09505 279.131979 
L 96.322349 255.631803 
L 96.393786 290.67576 
L 96.497694 286.451171 
L 96.575625 290.087339 
L 96.809419 278.527552 
L 96.965281 277.000708 
L 97.062695 288.069017 
L 97.179592 280.493262 
L 97.49781 287.122996 
L 97.764075 264.588236 
L 97.89396 287.67369 
L 98.017351 280.55774 
L 98.088788 286.892652 
L 98.264133 269.558025 
L 98.432984 289.771927 
L 98.59534 287.24072 
L 98.660283 289.209994 
L 98.809651 275.695752 
L 99.199306 266.36812 
L 99.60195 200.946976 
L 99.796778 286.290483 
L 99.874709 288.781165 
L 100.095514 279.228605 
L 100.225399 277.479149 
L 100.582584 288.207887 
L 100.679998 287.755131 
L 100.933274 281.106159 
L 101.043676 289.897347 
L 101.115113 286.974658 
L 101.316435 276.886439 
L 101.478792 278.692627 
L 102.076263 166.538445 
L 102.232126 277.051884 
L 102.524367 247.91357 
L 102.914023 290.623858 
L 103.017931 280.409156 
L 103.160805 290.707653 
L 103.29069 286.874375 
L 103.511495 267.679985 
L 103.621897 279.366314 
L 103.868679 271.905815 
L 103.94661 289.889698 
L 104.08299 278.819062 
L 104.160921 288.162771 
L 104.232358 287.766227 
L 104.47914 255.101272 
L 104.732416 239.937017 
L 104.901267 282.755751 
L 105.057129 285.627954 
L 105.187014 290.5983 
L 105.48575 277.735762 
L 105.628624 280.70352 
L 105.719543 288.145056 
L 105.803969 286.224334 
L 105.959831 280.790692 
L 106.057245 287.816481 
L 106.27805 283.352651 
L 106.4469 289.398827 
L 106.641728 263.044635 
L 106.771613 291.382573 
L 106.895004 286.999745 
L 106.966441 287.57974 
L 107.232706 258.092728 
L 107.661327 290.403198 
L 107.856155 275.741077 
L 108.122419 272.987422 
L 108.304259 290.325414 
L 108.388684 286.910018 
L 108.531558 286.355429 
L 108.674432 289.10414 
L 108.862765 283.183454 
L 109.08357 264.292946 
L 109.161501 289.742485 
L 109.369317 257.785274 
L 109.570639 286.814876 
L 109.83041 257.579815 
L 110.343456 175.804249 
L 110.434376 291.166762 
L 110.53179 285.756221 
L 110.752595 288.961819 
L 110.830526 287.81886 
L 111.272135 196.18105 
L 111.32409 291.59085 
L 111.460469 285.823922 
L 111.661791 289.009532 
L 111.830642 289.706614 
L 111.992998 287.985455 
L 112.057941 288.796906 
L 112.135872 287.969784 
L 112.259263 278.989223 
L 112.428114 280.632203 
L 112.648919 272.905485 
L 112.973632 290.394681 
L 113.064551 288.382324 
L 113.161965 283.28347 
L 113.363287 288.238119 
L 113.480184 279.08098 
L 113.590586 288.699927 
L 113.713977 285.338115 
L 113.934782 272.194057 
L 114.149093 289.519623 
L 114.285472 274.861221 
L 114.447829 288.898272 
L 114.727082 277.813629 
L 114.805013 286.989846 
L 115.019323 280.783787 
L 115.129726 288.197954 
L 115.415473 281.629555 
L 115.62329 286.230889 
L 115.79214 269.417388 
L 116.025934 288.680367 
L 116.214267 284.038663 
L 116.363635 283.803155 
L 116.506509 289.495145 
L 116.785762 279.753527 
L 117.006567 284.437405 
L 117.123464 286.498954 
L 117.539096 255.034502 
L 117.720936 288.734109 
L 117.77289 290.402835 
L 117.961223 285.230405 
L 118.065131 286.242734 
L 118.38335 268.919913 
L 118.47427 287.781251 
L 118.695074 271.439763 
L 119.17565 249.282293 
L 119.493868 289.543461 
L 119.662719 274.210303 
L 119.812087 292.636456 
L 120.078352 271.568291 
L 120.162777 287.025067 
L 120.338122 271.989276 
L 120.416053 288.776122 
L 120.740766 273.871515 
L 120.805709 291.477734 
L 120.935594 282.970618 
L 121.169388 279.973403 
L 121.448641 247.312541 
L 121.623986 285.308085 
L 121.727894 284.173667 
L 121.786342 290.590566 
L 121.89025 286.714953 
L 121.994159 287.670923 
L 122.163009 277.747795 
L 122.370826 290.8111 
L 122.539676 286.056422 
L 122.676056 283.138077 
L 122.766975 288.145425 
L 122.903355 276.548669 
L 123.085194 285.185888 
L 123.228068 278.120994 
L 123.578758 211.522996 
L 123.663183 291.244288 
L 123.819046 286.845308 
L 123.896977 287.345127 
L 124.046345 285.17523 
L 124.247667 291.247517 
L 124.332092 286.663377 
L 124.507437 289.012974 
L 124.591862 287.260342 
L 124.728242 280.110768 
L 124.858127 285.16708 
L 124.96853 279.788163 
L 125.039966 289.066624 
L 125.156863 283.084389 
L 125.247783 290.659129 
L 125.617956 258.86074 
L 125.806289 290.39426 
L 126.059565 284.278903 
L 126.286864 290.420186 
L 126.442727 282.278376 
L 126.624566 289.49135 
L 126.851865 287.717963 
L 127.066175 269.574301 
L 127.163589 284.385932 
L 127.397383 260.132268 
L 127.644165 288.760383 
L 127.916924 269.937331 
L 128.137728 269.05023 
L 128.38451 287.378554 
L 128.507901 294.759464 
L 128.936522 269.294417 
L 129.150833 286.849426 
L 129.241753 287.173826 
L 129.352155 290.346799 
L 129.501523 282.094519 
L 129.702845 290.701683 
L 129.871696 283.667146 
L 129.995087 289.433295 
L 130.13796 283.898826 
L 130.267846 286.700626 
L 130.352271 285.629655 
L 130.436696 289.316943 
L 130.508133 288.573273 
L 130.709455 269.212564 
L 130.800375 286.966976 
L 131.008191 287.144915 
L 131.112099 286.577861 
L 131.209513 282.36301 
L 131.534226 289.496308 
L 131.605663 288.686706 
L 131.729054 283.809625 
L 131.93687 267.600148 
L 132.014802 291.787679 
L 132.07325 289.821338 
L 132.281066 285.737109 
L 133.073366 187.344834 
L 133.196757 286.018429 
L 133.326642 276.111935 
L 133.488998 289.358445 
L 133.657849 286.475621 
L 133.748769 286.261084 
L 133.950091 265.318058 
L 134.079976 286.793418 
L 134.170896 283.974214 
L 134.489115 268.297298 
L 134.625494 285.99447 
L 134.885264 254.662718 
L 135.119058 288.690632 
L 135.196989 288.574342 
L 135.547679 269.388347 
L 135.71653 290.966006 
L 135.807449 285.071774 
L 135.950323 284.262045 
L 136.06722 282.50449 
L 136.164634 285.257053 
L 136.320496 277.350186 
L 136.81406 161.779034 
L 137.015382 289.18897 
L 137.11929 282.738025 
L 137.463486 248.658983 
L 137.606359 284.243882 
L 137.840153 273.184462 
L 137.931072 287.849625 
L 138.190843 278.30367 
L 138.288257 286.950438 
L 138.398659 283.768297 
L 138.548027 288.97774 
L 138.742855 268.535367 
L 138.983142 279.243616 
L 139.333832 221.95646 
L 139.4832 286.267657 
L 139.600097 285.547404 
L 139.781936 271.946227 
L 139.872856 286.824512 
L 139.976764 286.679706 
L 140.074178 286.955706 
L 140.145615 289.747835 
L 140.281994 280.350936 
L 140.353431 291.716069 
L 140.418374 289.550566 
L 140.496305 286.175755 
L 140.593719 287.65351 
L 140.801535 283.370568 
L 140.944409 284.275938 
L 141.002857 290.744057 
L 141.217168 274.332915 
L 141.509409 287.835053 
L 141.600329 291.042941 
L 141.730214 280.794285 
L 141.801651 289.305231 
L 141.98349 281.269337 
L 142.171824 287.306319 
L 142.444583 266.246985 
L 142.619928 268.849875 
L 142.717342 285.067542 
L 142.957629 268.505625 
L 143.145963 288.744354 
L 143.275848 288.39972 
L 143.366768 289.986999 
L 143.483664 282.179956 
L 143.749929 289.265493 
L 143.938263 271.846525 
L 144.100619 290.489195 
L 144.256481 272.402879 
L 144.418838 290.773587 
L 144.503263 288.336339 
L 144.678608 267.61494 
L 144.750045 287.811267 
L 144.931884 282.017101 
L 145.27608 240.57818 
L 145.431942 288.271368 
L 145.646253 289.811495 
L 145.730678 290.700444 
L 145.828092 285.49232 
L 146.146311 260.651205 
L 146.217748 291.431782 
L 146.308667 287.655544 
L 146.399587 289.293759 
L 146.685335 237.740323 
L 146.893151 288.590961 
L 146.964588 288.31574 
L 147.055507 285.525465 
L 147.12045 292.415182 
L 147.269818 274.634439 
L 147.451657 275.526701 
L 147.620508 287.023317 
L 148.068612 261.593557 
L 148.250451 290.804999 
L 148.3089 289.879656 
L 148.581658 275.627135 
L 148.821946 289.739868 
L 148.990797 270.936707 
L 149.140165 273.200459 
L 149.283039 282.37034 
L 149.425912 280.89125 
L 149.646717 287.199705 
L 149.990913 255.243198 
L 150.159764 288.529533 
L 150.270166 284.204841 
L 150.41304 283.836036 
L 150.568902 291.566937 
L 150.698787 277.574569 
L 150.835167 287.474214 
L 150.971546 277.906117 
L 151.036489 289.208702 
L 151.120914 286.759697 
L 151.380684 245.630791 
L 151.445627 290.663719 
L 151.543041 282.521443 
L 151.633961 286.76929 
L 151.783329 273.43423 
L 151.919708 276.551418 
L 152.172984 285.563451 
L 152.309364 281.125271 
L 152.497697 281.074846 
L 152.6081 281.231336 
L 152.673042 288.841809 
L 152.763962 287.147521 
L 152.861376 287.664666 
L 153.114652 275.095885 
L 153.251031 284.661407 
L 153.367928 284.930424 
L 153.419882 291.351859 
L 153.510802 284.481799 
L 153.588733 287.066626 
L 153.757584 283.831773 
L 153.880975 278.089931 
L 153.984883 284.103147 
L 154.121262 276.981256 
L 154.342067 287.723436 
L 154.458964 282.869938 
L 154.523906 289.166404 
L 154.608332 287.636708 
L 154.835631 286.422698 
L 155.212298 203.202984 
L 155.394137 284.913563 
L 155.511034 281.612315 
L 155.660402 284.364906 
L 155.946149 280.68365 
L 156.02408 288.22834 
L 156.127988 286.636722 
L 156.225402 287.265558 
L 156.342299 282.082216 
L 156.530633 288.442642 
L 156.615058 287.175521 
L 156.712472 288.225657 
L 156.809886 283.70013 
L 156.933277 284.581879 
L 157.082645 283.234209 
L 157.478794 237.175925 
L 157.556726 286.039877 
L 157.686611 280.549725 
L 157.900921 284.203164 
L 157.985347 288.344077 
L 158.121726 282.616933 
L 158.199657 287.940428 
L 158.297071 283.283903 
L 158.375002 290.534044 
L 158.537359 272.20503 
L 158.673738 285.536267 
L 158.940003 284.903406 
L 159.030923 289.843647 
L 159.232245 276.302942 
L 159.310176 288.429617 
L 159.394601 287.623889 
L 159.589429 274.45451 
L 159.732303 286.782264 
L 159.901153 273.366566 
L 160.024544 285.038256 
L 160.134947 285.006192 
L 160.245349 282.312376 
L 160.349257 287.848828 
L 160.511614 277.054022 
L 160.680465 289.090913 
L 160.992189 255.90787 
L 161.063626 287.145684 
L 161.258454 276.037467 
L 161.362362 286.768702 
L 161.46627 284.466474 
L 161.628627 272.735032 
L 161.810466 288.293013 
L 161.881903 286.778115 
L 162.070236 262.350069 
L 162.135179 290.780529 
L 162.330007 271.481584 
L 162.732651 289.078138 
L 162.875524 279.307959 
L 162.992421 288.111962 
L 163.291157 256.469681 
L 163.408054 279.615459 
L 163.57041 286.638404 
L 163.739261 280.946509 
L 163.849663 287.148826 
L 164.070468 269.990914 
L 164.141905 288.201012 
L 164.297767 287.079744 
L 164.473112 284.975047 
L 164.602998 287.5067 
L 164.75886 280.815645 
L 164.856274 286.732977 
L 164.986159 280.452832 
L 165.051101 288.105543 
L 165.142021 287.539203 
L 165.297883 274.295821 
L 165.41478 285.968015 
L 165.5057 285.299647 
L 165.622596 286.752356 
L 165.739493 280.908478 
L 165.849895 282.612987 
L 165.914838 290.549755 
L 166.005758 284.502134 
L 166.109666 291.191695 
L 166.408402 267.533799 
L 166.499321 287.296041 
L 166.635701 286.579817 
L 166.77208 277.815782 
L 166.947425 287.892951 
L 167.148747 276.358635 
L 167.239667 287.660352 
L 167.408518 286.930207 
L 167.837139 205.14081 
L 168.05145 287.220348 
L 168.17484 278.362574 
L 168.57099 289.022072 
L 168.804784 282.803916 
L 169.0126 286.212779 
L 169.168462 286.585774 
L 169.246393 286.236402 
L 169.324324 287.471313 
L 169.889325 275.648354 
L 169.986739 289.337952 
L 170.136107 269.728102 
L 170.350418 260.792909 
L 170.46082 287.916295 
L 170.603694 276.965607 
L 170.753062 287.475767 
L 170.934901 271.078228 
L 171.012832 287.625733 
L 171.136223 283.291225 
L 171.331051 287.357508 
L 171.577833 238.115374 
L 171.935017 220.352797 
L 172.012948 284.887938 
L 172.513006 198.131932 
L 172.584443 287.60763 
L 172.727317 293.508437 
L 172.896167 282.95881 
L 173.00657 284.826661 
L 173.214386 272.441912 
L 173.792375 199.096619 
L 173.954732 289.03852 
L 174.039157 284.440146 
L 174.233985 268.682478 
L 174.331399 283.256152 
L 174.461284 277.805223 
L 174.532721 289.6717 
L 174.6691 282.38495 
L 174.773009 282.473891 
L 175.01979 270.150849 
L 175.214618 289.224126 
L 175.402952 280.625102 
L 175.59778 264.838845 
L 175.773125 271.236228 
L 175.94847 267.758741 
L 176.156286 290.050242 
L 176.351114 267.195025 
L 176.429045 291.602338 
L 176.662838 278.327114 
L 176.786229 280.988311 
L 176.86416 289.662214 
L 176.948586 288.597548 
L 177.039505 287.245735 
L 177.221344 279.229315 
L 177.344735 283.972392 
L 177.500598 284.138283 
L 177.636977 276.738074 
L 177.721403 289.144287 
L 177.838299 283.443546 
L 177.948702 285.077244 
L 178.188989 252.716066 
L 178.273415 285.533131 
L 178.422783 274.372494 
L 178.721519 283.922067 
L 178.922841 266.391157 
L 179.01376 285.161745 
L 179.117668 282.404405 
L 179.442381 227.816986 
L 179.50083 290.557267 
L 179.578761 286.93786 
L 179.643703 289.674841 
L 179.916462 284.198241 
L 179.974911 290.862626 
L 180.059336 285.795508 
L 180.130773 288.548654 
L 180.319106 272.796573 
L 180.403532 286.46878 
L 180.585371 272.298477 
L 180.676291 288.123119 
L 180.81267 274.058525 
L 180.942555 275.762929 
L 181.013992 290.083254 
L 181.098418 284.996963 
L 181.176349 286.575087 
L 181.260774 286.409355 
L 181.410142 276.192066 
L 181.591981 278.519905 
L 181.871235 288.394936 
L 182.131005 248.570836 
L 182.208936 290.208071 
L 182.267384 289.331417 
L 182.338821 290.192789 
L 182.786925 223.269284 
L 183.033707 284.739833 
L 183.319455 252.047929 
L 183.429857 277.198922 
L 183.598708 276.76471 
L 183.728593 282.671695 
L 183.923421 276.164465 
L 183.994858 287.567672 
L 184.092271 286.11688 
L 184.261122 274.589485 
L 184.475433 280.414311 
L 184.605318 279.449734 
L 184.748192 274.179017 
L 184.8521 282.379474 
L 184.988479 272.901916 
L 185.079399 288.105078 
L 185.29371 270.686119 
L 185.456066 289.320049 
L 185.605434 275.75869 
L 185.683365 288.789559 
L 185.800262 281.012752 
L 185.878193 289.853426 
L 185.975607 288.449644 
L 186.274343 279.663482 
L 186.51463 290.724107 
L 186.657504 274.656688 
L 187.0017 266.695848 
L 187.170551 278.56659 
L 187.508252 220.879709 
L 187.625149 277.93138 
L 187.910896 250.76477 
L 188.209632 249.701241 
L 188.287563 287.035075 
L 188.391471 286.610722 
L 188.891529 183.923781 
L 189.01492 278.453652 
L 189.144806 289.638836 
L 189.274691 277.434229 
L 189.566933 284.832811 
L 189.651358 286.464548 
L 189.80722 273.784101 
L 189.885151 289.047257 
L 189.989059 282.689309 
L 190.469635 221.421394 
L 190.670957 263.030865 
L 191.047624 234.961911 
L 191.151532 283.834946 
L 191.450268 245.780158 
L 191.534693 287.569123 
L 191.612624 287.479234 
L 191.710038 288.556654 
L 192.080211 265.225839 
L 192.326993 277.891996 
L 192.39843 289.041769 
L 192.61274 285.230152 
L 192.79458 285.937606 
L 192.891994 287.324392 
L 193.047856 270.930628 
L 193.632339 175.183062 
L 193.697282 288.839893 
L 193.788201 287.991415 
L 193.989523 283.104211 
L 194.184351 287.345399 
L 194.372685 253.865672 
L 194.463604 289.941567 
L 194.645444 274.721878 
L 195.177973 161.750749 
L 195.346824 283.30396 
L 195.457226 281.296953 
L 195.613088 288.910374 
L 195.729985 288.212872 
L 195.85987 291.918153 
L 196.113146 260.465416 
L 196.411882 288.518457 
L 196.574239 267.312976 
L 196.717113 270.926034 
L 197.04832 220.880946 
L 197.178205 282.998366 
L 197.567861 206.202959 
L 197.938034 206.631597 
L 198.10039 266.713452 
L 198.40562 289.511089 
L 198.671885 263.08132 
L 198.821253 289.227353 
L 198.951138 277.345552 
L 199.081023 283.866758 
L 199.301828 284.404627 
L 199.366771 288.69681 
L 199.697978 216.479435 
L 199.788898 283.620233 
L 199.918783 290.453285 
L 200.20453 284.148779 
L 200.405852 275.935738 
L 200.659128 252.551051 
L 200.776025 283.715408 
L 200.983841 279.608762 
L 201.08775 282.174162 
L 201.328037 249.333655 
L 201.431945 282.539125 
L 201.639762 288.644242 
L 201.932003 229.072 
L 202.09436 291.632224 
L 202.172291 289.502568 
L 202.438556 258.502887 
L 202.548958 284.532317 
L 202.776257 245.414806 
L 203.042522 288.611285 
L 203.152924 280.646791 
L 203.321775 284.537605 
L 203.438672 289.906063 
L 203.620511 273.577715 
L 203.854304 290.239387 
L 204.101086 239.412075 
L 204.464765 265.691679 
L 204.54919 284.189894 
L 204.763501 290.423173 
L 205.192122 277.140483 
L 205.360973 275.87428 
L 205.529823 257.304538 
L 205.627237 282.214834 
L 205.835054 247.4867 
L 205.95195 286.945723 
L 206.354594 248.531445 
L 206.503962 275.351417 
L 207.00402 169.551257 
L 207.068963 290.022978 
L 207.309251 261.303932 
L 207.504078 286.171577 
L 207.640458 287.017652 
L 207.79632 291.879236 
L 207.991148 265.033807 
L 208.289884 288.897244 
L 208.354826 288.054391 
L 208.471723 277.727816 
L 208.608102 290.193054 
L 208.854884 240.258638 
L 209.088678 254.949098 
L 209.374425 227.471811 
L 209.556264 277.76544 
L 209.744598 276.444031 
L 210.114771 238.584183 
L 210.452472 290.197372 
L 210.614829 293.603518 
L 211.017473 279.721263 
L 211.08891 287.408346 
L 211.407128 228.222495 
L 211.660405 236.555762 
L 211.731841 288.749058 
L 211.816267 285.212589 
L 211.939658 278.087977 
L 212.166957 243.459862 
L 212.498164 252.776683 
L 212.686498 289.009612 
L 213.069659 261.793318 
L 213.219027 287.461319 
L 213.550234 217.470942 
L 213.699602 285.072757 
L 214.251614 193.991292 
L 214.459431 290.659069 
L 214.660753 280.136081 
L 214.751672 285.965332 
L 214.914029 278.734601 
L 215.089374 292.131792 
L 215.329661 280.717233 
L 215.414087 285.243702 
L 215.60242 252.81823 
L 215.914145 280.747564 
L 216.375237 260.580981 
L 216.719433 238.845059 
L 217.219491 223.506429 
L 217.362365 275.742197 
L 217.589664 241.021255 
L 217.836446 238.571704 
L 218.070239 291.429344 
L 218.336504 248.317547 
L 218.693688 284.615723 
L 219.03139 218.951362 
L 219.167769 279.163233 
L 219.297654 275.866541 
L 219.401562 286.481022 
L 219.544436 275.661728 
L 219.661333 291.581273 
L 220.031506 236.88109 
L 220.226333 273.412449 
L 220.486104 249.80668 
L 220.849782 243.174317 
L 221.077081 290.296682 
L 221.603116 211.922414 
L 221.856393 263.706332 
L 222.148634 231.70726 
L 222.304497 284.160421 
L 222.499324 272.177739 
L 222.707141 277.454212 
L 222.927946 286.849705 
L 223.265647 210.177727 
L 223.382544 282.72668 
L 223.759211 206.719424 
L 223.960533 250.521628 
L 224.20082 269.293024 
L 224.402142 248.13801 
L 224.622947 288.851865 
L 224.908695 231.26855 
L 225.155477 239.01381 
L 225.38927 263.703958 
L 225.636052 273.614383 
L 225.720477 290.366968 
L 225.811397 286.461493 
L 226.259501 212.67836 
L 226.402375 288.592305 
L 226.603697 249.935636 
L 226.733582 287.05155 
L 226.999846 282.721103 
L 227.415479 250.088522 
L 227.655767 242.523664 
L 227.941514 246.488736 
L 228.175307 240.622131 
L 228.318181 292.804815 
L 228.629906 221.822184 
L 228.805251 291.837695 
L 228.902665 283.340176 
L 229.149446 239.065388 
L 229.448182 241.903439 
L 229.655999 248.085713 
L 230.357379 230.00168 
L 230.617149 232.379937 
L 230.83146 288.118598 
L 231.000311 275.503437 
L 231.22761 271.504902 
L 231.428932 282.354028 
L 231.623759 251.357076 
L 231.916001 228.66413 
L 231.993932 285.641224 
L 232.610887 147.905759 
L 233.247324 248.869944 
L 233.572037 249.424948 
L 233.669451 286.197581 
L 233.935716 231.147884 
L 234.052613 293.253934 
L 234.227958 255.933177 
L 234.513705 283.858739 
L 234.890372 199.643276 
L 235.156637 236.141821 
L 235.364453 246.693961 
L 236.000891 217.135427 
L 236.150259 295.488 
L 236.306121 258.958932 
L 236.436006 286.443526 
L 236.650317 248.977369 
L 236.864627 287.789608 
L 237.124398 233.406443 
L 237.520547 194.80406 
L 237.67641 274.916906 
L 238.07256 219.130964 
L 238.19595 287.472104 
L 238.384284 252.549022 
L 238.468709 288.002474 
L 238.696008 241.708867 
L 238.884342 253.733193 
L 239.325952 181.814233 
L 239.527274 291.591474 
L 239.942906 210.743594 
L 240.111757 256.472407 
L 240.371528 233.192608 
L 240.494918 292.596553 
L 240.819631 225.687633 
L 241.001471 253.972258 
L 241.27423 232.157251 
L 241.540494 240.07739 
L 241.735322 288.258618 
L 242.287334 215.805209 
L 242.67699 236.9841 
L 242.819864 292.93381 
L 242.93676 290.497138 
L 243.105611 257.265701 
L 243.254979 289.082987 
L 243.345899 287.747444 
L 243.599175 252.463936 
L 243.703083 284.705692 
L 244.164175 247.530887 
L 244.657739 287.27878 
L 244.839578 253.445632 
L 245.027912 254.406965 
L 245.125326 290.632998 
L 245.352625 290.158035 
L 245.547453 250.845892 
L 245.78774 257.611036 
L 245.96958 255.38943 
L 246.144925 293.210434 
L 246.346247 251.52519 
L 246.554063 249.608115 
L 246.826822 287.235604 
L 247.054121 290.809838 
L 247.274926 244.382117 
L 247.534696 286.924632 
L 247.716535 252.769352 
L 247.969812 280.707383 
L 248.158145 252.188584 
L 248.339984 254.256027 
L 248.742629 223.332354 
L 248.982916 240.195623 
L 249.255675 246.172389 
L 249.573894 261.184031 
L 249.703779 276.337932 
L 250.002515 246.588673 
L 250.275274 230.73266 
L 250.340216 288.269484 
L 250.535044 251.848895 
L 250.755849 280.649949 
L 251.151999 251.400028 
L 251.405275 276.841229 
L 251.658551 239.331184 
L 251.88585 243.460955 
L 252.139126 238.547934 
L 252.294989 259.110403 
L 252.67815 200.310157 
L 252.859989 289.431731 
L 253.041829 276.476513 
L 253.11976 289.429702 
L 253.295105 288.109669 
L 253.808151 225.062402 
L 253.892577 289.311319 
L 254.113381 283.679951 
L 254.399129 245.46312 
L 254.847233 227.365813 
L 254.983612 292.578866 
L 255.282348 226.625159 
L 255.509647 240.77509 
L 256.146085 197.66716 
L 256.360395 244.860487 
L 256.600683 239.800701 
L 256.860453 278.893233 
L 257.217638 229.524953 
L 257.438442 261.682388 
L 258.07488 204.188742 
L 258.263213 251.817784 
L 258.600915 224.258216 
L 258.977582 267.551488 
L 259.789365 206.074666 
L 259.938733 273.593941 
L 260.192009 237.101449 
L 260.640113 219.890908 
L 260.815458 254.775872 
L 261.01678 251.657383 
L 261.328504 219.270226 
L 261.542815 245.149163 
L 261.783102 243.874722 
L 262.101321 217.660145 
L 262.413046 286.886727 
L 262.594885 253.353552 
L 262.861149 232.342661 
L 263.315748 216.877413 
L 263.491093 255.185035 
L 263.815806 243.931298 
L 264.030116 288.239248 
L 264.575634 200.850217 
L 265.322474 230.067232 
L 265.536785 247.453566 
L 265.751095 291.433365 
L 265.978394 244.761159 
L 266.751211 141.701011 
L 267.342189 135.659956 
L 267.627936 229.528342 
L 267.985121 209.689093 
L 268.1215 290.895512 
L 269.141099 199.447814 
L 269.368398 241.942687 
L 269.725582 208.37721 
L 269.939893 290.060941 
L 270.18018 250.583228 
L 270.71271 193.694694 
L 271.310182 240.358663 
L 272.011562 233.841504 
L 272.225872 246.855797 
L 272.615528 218.405139 
L 273.739035 198.07764 
L 274.005299 235.88289 
L 274.368978 228.708839 
L 274.752139 193.638641 
L 275.128806 272.619342 
L 275.447025 217.66459 
L 276.076968 192.133153 
L 276.317256 242.182553 
L 276.596509 243.727857 
L 276.921222 217.605486 
L 277.142027 246.848659 
L 277.310878 290.744596 
L 277.700533 227.636496 
L 277.901855 250.308893 
L 278.479844 186.087585 
L 278.811052 217.018839 
L 279.00588 251.418464 
L 279.35657 221.764259 
L 279.538409 254.711375 
L 279.739731 249.265244 
L 279.960536 246.780827 
L 280.161858 249.362825 
L 280.441111 283.47978 
L 280.655422 289.07134 
L 281.0191 242.360076 
L 281.493181 237.203048 
L 281.889331 222.950269 
L 282.149101 234.722927 
L 282.675136 209.740292 
L 282.895941 242.727749 
L 283.233643 267.095415 
L 283.954506 192.442311 
L 284.142839 253.074478 
L 284.487035 227.474483 
L 285.05853 199.974254 
L 285.27284 246.398283 
L 285.727439 218.434139 
L 285.896289 257.63083 
L 286.214508 241.888973 
L 286.363876 260.770799 
L 286.636635 228.685453 
L 287.721176 204.283207 
L 288.221234 202.643949 
L 288.935603 245.679651 
L 289.214856 241.950937 
L 289.520086 218.317906 
L 289.805834 231.409597 
L 290.124052 227.083946 
L 290.422788 240.107649 
L 290.728019 225.257578 
L 290.968306 264.518213 
L 291.195605 242.441406 
L 291.409916 287.404538 
L 291.793077 207.285572 
L 292.065836 237.79989 
L 292.786699 193.565407 
L 293.384171 197.497129 
L 293.695895 225.141933 
L 294.105034 204.826286 
L 294.364804 234.227217 
L 295.033713 257.83178 
L 295.241529 247.558083 
L 295.839001 228.828773 
L 296.033829 251.871922 
L 296.352048 242.24134 
L 296.533887 255.068357 
L 296.748198 251.327716 
L 296.981991 244.339471 
L 297.222278 248.851622 
L 297.611934 244.141601 
L 297.962624 229.098248 
L 298.17044 248.308784 
L 298.378257 248.663459 
L 298.70297 226.130725 
L 298.936763 251.077325 
L 299.190039 236.216453 
L 299.540729 234.10123 
L 299.716074 255.986187 
L 299.891419 293.591521 
L 300.099236 248.03633 
L 300.326535 241.004982 
L 300.599294 242.057206 
L 300.839581 241.17756 
L 301.047398 291.782757 
L 301.378605 223.628484 
L 301.566938 252.760623 
L 301.787743 244.529015 
L 301.943605 258.15707 
L 302.502112 197.80481 
L 302.852802 235.979509 
L 303.106078 238.462284 
L 303.807458 184.81563 
L 304.073723 232.372184 
L 304.307516 241.466405 
L 304.593263 230.269303 
L 305.450506 182.255582 
L 305.684299 244.247138 
L 305.892115 243.933231 
L 306.307748 187.860991 
L 306.50907 249.055561 
L 306.781829 286.282176 
L 307.106542 220.390842 
L 307.30137 249.247218 
L 307.541657 239.088244 
L 307.749474 249.239763 
L 308.327463 237.839595 
L 308.535279 248.309341 
L 309.028843 157.750213 
L 309.463958 262.909825 
L 309.678269 245.754552 
L 309.853614 291.602435 
L 310.048442 250.055272 
L 310.275741 288.361445 
L 310.496546 244.599722 
L 310.691373 251.778876 
L 310.89919 247.956546 
L 311.107006 247.609011 
L 311.490167 265.345543 
L 311.918789 239.134249 
L 312.405858 182.992923 
L 312.659134 240.34428 
L 312.834479 254.190259 
L 313.152698 232.418055 
L 313.457928 278.714675 
L 313.633273 254.591178 
L 313.867067 242.349065 
L 314.061894 251.269462 
L 314.282699 245.042265 
L 314.613906 227.140319 
L 314.782757 256.539709 
L 315.159424 195.161354 
L 315.562068 257.442978 
L 315.782873 244.305465 
L 316.023161 237.641897 
L 316.328391 224.054091 
L 316.568679 243.770039 
L 316.95184 213.856275 
L 317.146668 248.486463 
L 317.341496 249.842894 
L 317.516841 255.218689 
L 317.718163 250.747616 
L 317.906496 290.851924 
L 318.09483 251.475758 
L 318.348106 238.547063 
L 318.601382 233.441093 
L 318.867647 232.957754 
L 319.120923 235.167765 
L 319.374199 233.57506 
L 319.595004 244.616048 
L 319.809314 244.311782 
L 320.15351 232.786405 
L 320.335349 253.10155 
L 320.59512 229.576174 
L 320.822419 243.733801 
L 321.049718 241.454758 
L 321.309488 237.018783 
L 321.484833 253.734907 
L 321.835523 208.895636 
L 322.010868 255.108263 
L 322.270639 232.884734 
L 322.569375 245.844863 
L 322.965525 251.557573 
L 323.192824 245.740473 
L 323.582479 219.600359 
L 323.816273 245.431964 
L 324.14748 219.780768 
L 324.348802 249.537015 
L 324.58909 239.344805 
L 324.855354 245.467077 
L 325.037194 253.762994 
L 325.543746 215.77591 
L 325.822999 231.153512 
L 326.024321 249.81468 
L 326.771161 189.871647 
L 327.30369 215.190466 
L 327.732311 183.040654 
L 327.972599 234.949549 
L 328.336278 238.557148 
L 328.563577 239.60284 
L 328.907772 211.762704 
L 329.128577 241.517271 
L 329.394842 229.246214 
L 330.453406 142.96917 
L 330.836568 202.540216 
L 331.213235 204.203276 
L 331.421051 248.48698 
L 331.680821 237.787204 
L 332.038006 206.579109 
L 332.466627 190.39089 
L 332.706914 240.234137 
L 332.927719 247.304311 
L 333.14203 245.644616 
L 333.349846 246.593538 
L 333.694042 208.367125 
L 334.122663 252.509481 
L 334.349962 243.928309 
L 334.564273 243.938563 
L 334.752606 252.650691 
L 334.960423 249.040907 
L 335.38255 186.032337 
L 335.570883 252.401355 
L 335.73324 256.610233 
L 336.155366 204.711988 
L 336.356688 250.626068 
L 336.69439 221.900057 
L 337.012609 234.791758 
L 337.30485 226.680694 
L 337.545138 238.141719 
L 337.921805 219.25309 
L 338.201058 230.926856 
L 338.395886 289.941268 
L 338.577725 254.262211 
L 339.077783 228.341444 
L 339.324565 237.633226 
L 339.603818 225.42246 
L 339.993474 228.236868 
L 340.24675 234.31158 
L 340.435084 254.824982 
L 340.863705 183.446967 
L 341.116981 233.610589 
L 341.409223 225.697968 
L 341.610545 248.856258 
L 341.941752 219.789548 
L 342.214511 230.828557 
L 342.695086 228.85689 
L 343.175661 190.033108 
L 343.383478 248.412853 
L 343.565317 254.140319 
L 343.773133 247.871457 
L 344.714801 111.16367 
L 345.24733 138.490919 
L 345.409687 256.793396 
L 345.630492 245.056527 
L 345.987676 205.676936 
L 346.442274 180.188848 
L 346.611125 257.182401 
L 346.78647 254.965665 
L 347.007275 243.624067 
L 347.318999 220.912072 
L 347.500838 254.140448 
L 348.013885 206.004113 
L 348.364575 208.20675 
L 348.611357 240.004286 
L 348.98153 197.757302 
L 349.293254 220.239615 
L 349.566013 229.94287 
L 349.884232 217.962493 
L 350.046588 257.741074 
L 350.838888 155.092471 
L 351.014233 256.308391 
L 351.261015 236.309874 
L 351.488314 241.463801 
L 352.248142 150.844634 
L 352.507913 228.926887 
L 352.83912 212.088421 
L 352.956017 278.733376 
L 353.319695 205.698389 
L 353.663891 212.250181 
L 353.852225 251.565766 
L 354.339294 157.532535 
L 354.865329 145.503164 
L 355.053663 251.819219 
L 355.287456 241.02772 
L 355.469295 254.004679 
L 355.806997 212.121446 
L 356.099239 223.370012 
L 356.320043 240.971621 
L 356.904527 137.336153 
L 357.144814 236.072999 
L 357.326654 252.656783 
L 357.787746 220.587501 
L 358.073494 226.435792 
L 358.482632 190.805065 
L 358.72292 243.050652 
L 359.385334 123.440149 
L 359.612633 243.333025 
L 359.865909 234.65872 
L 360.138668 230.902485 
L 360.327002 252.027692 
L 360.508841 253.048779 
L 360.963439 176.73275 
L 361.281658 215.369681 
L 361.632348 207.081411 
L 362.073958 175.508964 
L 362.281774 249.389171 
L 362.450625 256.999213 
L 362.697407 250.070922 
L 362.963671 229.489576 
L 363.152005 251.706117 
L 363.470223 218.342979 
L 363.7235 245.498715 
L 363.98327 243.240829 
L 364.528788 131.434814 
L 364.866489 211.782597 
L 365.483444 140.421993 
L 365.762697 225.638404 
L 366.152353 254.991359 
L 366.490054 228.014885 
L 366.83425 211.567276 
L 367.068043 240.051437 
L 367.483676 181.572841 
L 367.912297 202.185684 
L 368.366895 170.037652 
L 368.639654 232.051875 
L 368.847471 248.293311 
L 369.321552 171.066355 
L 369.743679 187.656227 
L 370.211265 171.757244 
L 370.685346 163.090841 
L 371.282818 124.584779 
L 371.912761 131.086991 
L 372.445291 147.895 
L 372.990808 143.135455 
L 373.653223 118.226189 
L 374.211729 130.318772 
L 374.666328 172.641096 
L 374.828684 257.993895 
L 375.205351 225.775726 
L 376.075582 94.544372 
L 376.549663 164.107615 
L 377.1861 108.603277 
L 377.770584 135.698023 
L 377.9784 246.008748 
L 378.407021 186.334415 
L 378.946045 138.770933 
L 379.368172 184.507937 
L 379.562999 251.340766 
L 380.011103 183.75365 
L 380.244897 237.089105 
L 380.641047 202.546626 
L 381.082656 180.206231 
L 381.504783 186.608907 
L 381.706105 249.741424 
L 382.316566 126.599194 
L 382.97898 121.92117 
L 383.530992 137.41089 
L 384.070016 138.314137 
L 384.414212 210.024945 
L 385.005189 125.655337 
L 385.47927 169.727197 
L 386.044271 138.4543 
L 386.680708 111.746765 
L 387.031398 207.346323 
L 387.563928 139.268448 
L 387.791227 240.791519 
L 388.336745 143.19051 
L 388.901745 138.926653 
L 389.414792 160.96454 
L 389.810942 200.629198 
L 390.401919 120.482955 
L 390.96692 136.884433 
L 391.27215 224.529496 
L 391.791691 138.514288 
L 392.246289 182.413692 
L 392.759336 167.036583 
L 393.252899 163.167421 
L 393.252899 163.167421 
" clip-path="url(#pf853f9a0e9)" style="fill: none; stroke: #1f77b4; stroke-width: 1.5; stroke-linecap: square"/>
   </g>
   <g id="line2d_15">
    <path d="M 138.716878 260.874648 
L 203.659476 225.868682 
L 268.602075 251.588994 
L 333.544674 241.425742 
L 398.487273 144.442335 
" clip-path="url(#pf853f9a0e9)" style="fill: none; stroke: #ff7f0e; stroke-width: 1.5; stroke-linecap: square"/>
   </g>
   <g id="line2d_16">
    <path d="M 73.832727 289.981046 
L 73.962612 288.745141 
L 74.040544 286.092583 
L 74.215889 287.466701 
L 74.306808 287.983356 
L 74.417211 281.930559 
L 74.527613 287.616485 
L 74.64451 286.119295 
L 74.774395 279.621966 
L 74.90428 280.768874 
L 75.034165 279.200829 
L 75.118591 287.22043 
L 75.261464 289.31679 
L 75.404338 278.507218 
L 75.482269 286.217235 
L 75.644626 288.580334 
L 75.761522 286.189305 
L 75.95635 268.824732 
L 76.164167 271.513001 
L 76.339512 289.43416 
L 76.44342 286.069743 
L 76.586293 271.93435 
L 76.813593 260.467197 
L 76.898018 287.551145 
L 76.995432 286.370397 
L 77.066869 288.347018 
L 77.170777 282.252483 
L 77.268191 283.454294 
L 77.398076 281.848672 
L 77.579915 268.095505 
L 77.657846 287.727008 
L 77.781237 284.911405 
L 78.073479 237.533126 
L 78.534571 286.137118 
L 78.670951 281.028284 
L 78.94371 289.155877 
L 79.190492 278.478107 
L 79.333365 285.580084 
L 79.463251 278.754978 
L 79.547676 288.887678 
L 79.710032 277.661463 
L 79.898366 280.653208 
L 80.073711 288.085637 
L 80.184113 286.655473 
L 80.352964 279.327527 
L 80.489344 281.086652 
L 80.827045 223.619418 
L 81.021873 278.018519 
L 81.327103 267.635272 
L 81.528425 274.588463 
L 81.723253 288.528167 
L 81.970035 279.983849 
L 82.067449 285.724221 
L 82.19084 281.350184 
L 82.333713 281.654366 
L 82.40515 288.309823 
L 82.567507 271.958022 
L 82.651932 287.352656 
L 82.762335 284.564029 
L 82.820783 288.94821 
L 82.963657 271.83135 
L 83.067565 286.458082 
L 83.301358 281.754167 
L 83.379289 289.694609 
L 83.450726 288.327959 
L 83.535152 287.643111 
L 83.678025 284.044239 
L 83.762451 287.115287 
L 83.98975 272.22011 
L 84.054692 289.202468 
L 84.126129 288.504202 
L 84.256014 283.200536 
L 84.515785 280.592586 
L 84.626187 282.061938 
L 84.866475 271.56476 
L 84.931417 288.736662 
L 85.04182 282.356562 
L 85.178199 281.217897 
L 85.450958 236.256335 
L 85.574349 286.712637 
L 85.684752 281.618673 
L 85.795154 288.124687 
L 86.061419 278.340562 
L 86.340672 257.81897 
L 86.574465 286.985618 
L 86.658891 286.620768 
L 86.717339 290.594513 
L 86.808259 287.22393 
L 87.048546 261.308658 
L 87.282339 270.596448 
L 87.464179 290.152799 
L 87.58757 280.889133 
L 87.659007 288.949645 
L 88.191536 256.867488 
L 88.295444 285.019605 
L 88.477283 277.853078 
L 88.691594 285.675054 
L 88.951364 261.219847 
L 88.996824 291.148033 
L 89.217629 261.833074 
L 89.431939 267.15579 
L 89.522859 285.762167 
L 89.672227 278.339498 
L 89.912515 274.291263 
L 90.341136 234.414657 
L 90.581423 287.382898 
L 90.685332 287.88798 
L 90.899642 278.334011 
L 91.126941 287.384375 
L 91.380217 265.237422 
L 91.484126 282.756935 
L 91.620505 285.328114 
L 91.789356 280.786247 
L 91.854298 290.00638 
L 92.120563 286.118178 
L 92.256943 275.216074 
L 92.458265 288.029587 
L 92.614127 278.949838 
L 92.782978 289.799053 
L 92.880391 285.120938 
L 92.951828 288.514714 
L 93.127173 274.495211 
L 93.315507 285.016441 
L 93.575277 242.532388 
L 93.763611 290.389415 
L 93.94545 273.602896 
L 94.08183 289.786869 
L 94.458497 280.795125 
L 94.666313 286.661377 
L 94.789704 285.505985 
L 94.880624 285.576493 
L 95.257291 224.120578 
L 95.458613 285.360916 
L 95.750854 245.578698 
L 95.841774 285.175579 
L 95.997636 286.041264 
L 96.237924 267.942266 
L 96.601602 222.994569 
L 96.712005 283.907292 
L 96.926315 278.19296 
L 97.095166 288.336784 
L 97.225051 286.584859 
L 97.296488 288.539636 
L 97.387408 285.951832 
L 97.478327 289.336199 
L 97.58873 284.235773 
L 98.251144 218.353097 
L 98.355053 282.815818 
L 98.497926 276.51488 
L 98.90057 212.604258 
L 99.010973 283.233415 
L 99.205801 287.387288 
L 99.335686 282.736578 
L 99.4331 285.796561 
L 99.530514 284.397709 
L 99.816261 273.764331 
L 100.17994 235.789992 
L 100.400744 289.07496 
L 100.491664 284.853173 
L 100.550112 290.257194 
L 100.673503 283.691231 
L 100.939768 288.537349 
L 101.115113 288.159361 
L 101.329424 276.576096 
L 101.387872 289.054392 
L 101.478792 287.213846 
L 101.602183 287.038169 
L 101.745056 289.481606 
L 101.848964 285.751582 
L 102.076263 286.545635 
L 102.141206 288.471875 
L 102.277586 278.209154 
L 102.342528 289.749823 
L 102.504885 289.436449 
L 102.719195 282.817843 
L 102.816609 283.428588 
L 103.004943 286.691797 
L 103.108851 287.683637 
L 103.355633 270.027953 
L 103.466035 284.4141 
L 103.569943 281.691841 
L 103.725805 273.207817 
L 103.99207 241.11122 
L 104.134944 281.513759 
L 104.258335 280.903987 
L 104.472645 267.545037 
L 104.966209 290.938601 
L 105.024657 289.776319 
L 105.433796 238.587084 
L 105.609141 269.101019 
L 105.855923 266.619682 
L 106.050751 290.231584 
L 106.213107 277.890754 
L 106.407935 285.473967 
L 106.901499 230.798992 
L 107.057361 285.044615 
L 107.336614 282.729352 
L 107.485982 284.87309 
L 107.687304 284.0837 
L 107.810695 282.589513 
L 108.057477 269.685652 
L 108.154891 286.149018 
L 108.29127 279.347045 
L 108.362707 287.326825 
L 108.486098 281.742056 
L 108.583512 285.460403 
L 108.693914 285.341382 
L 108.856271 280.213706 
L 109.03811 288.253259 
L 109.155007 288.226722 
L 109.330352 273.355156 
L 109.564145 285.758925 
L 110.057709 190.659653 
L 110.148628 286.602976 
L 110.427882 264.189857 
L 110.492824 288.385 
L 110.603227 282.788761 
L 110.674664 287.893182 
L 110.765583 285.298613 
L 110.999377 275.194763 
L 111.09679 284.311878 
L 111.252653 278.680334 
L 111.408515 280.072608 
L 111.49294 287.502731 
L 111.58386 286.230212 
L 111.661791 287.705752 
L 111.785182 279.342705 
L 112.005987 288.454921 
L 112.090412 288.018527 
L 112.246274 284.505505 
L 112.356677 285.717474 
L 112.473574 284.825854 
L 112.629436 287.672608 
L 112.804781 272.864188 
L 112.999609 276.382137 
L 113.084034 285.643355 
L 113.187942 282.279668 
L 113.369781 288.964951 
L 113.590586 283.809262 
L 113.889322 286.808 
L 114.058173 282.23331 
L 114.278978 261.075169 
L 114.506277 255.605492 
L 114.590702 288.289977 
L 114.69461 287.96401 
L 114.869955 270.978866 
L 114.960875 287.864127 
L 115.038806 287.513829 
L 115.168691 276.974218 
L 115.279094 282.101198 
L 115.538864 272.600526 
L 115.746681 285.853682 
L 115.844094 286.042637 
L 115.967485 283.665056 
L 116.266221 252.166421 
L 116.344152 287.028843 
L 116.448061 285.239491 
L 116.577946 284.069156 
L 116.766279 279.7971 
L 116.896165 279.932973 
L 117.052027 285.749978 
L 117.370245 271.5428 
L 117.435188 289.863155 
L 117.759901 268.731799 
L 117.837832 286.762194 
L 117.980706 274.68818 
L 118.201511 284.672288 
L 118.350879 284.449034 
L 118.487258 280.852334 
L 118.552201 288.383315 
L 118.727546 273.176236 
L 118.935362 286.289993 
L 119.071742 276.773974 
L 119.169155 283.23925 
L 119.318523 278.466141 
L 119.617259 289.573965 
L 119.734156 279.85013 
L 119.896513 288.63387 
L 120.169271 274.263085 
L 120.331628 272.229213 
L 120.468007 286.939723 
L 120.558927 285.997322 
L 120.799215 289.103183 
L 121.149905 282.219642 
L 121.312261 284.734216 
L 121.461629 289.152774 
L 121.649963 287.036559 
L 121.89025 263.720753 
L 121.961687 287.803376 
L 122.124044 273.07708 
L 122.208469 289.585437 
L 122.312377 282.54409 
L 122.500711 287.179577 
L 122.611113 282.223317 
L 122.676056 290.799501 
L 122.98778 254.258527 
L 123.182608 289.756397 
L 123.42939 267.782514 
L 123.611229 286.70828 
L 123.682666 289.08574 
L 123.773586 285.909504 
L 123.909965 290.066418 
L 124.124276 287.422541 
L 124.364563 267.629194 
L 124.669794 278.491635 
L 124.767207 288.409176 
L 124.988012 259.770909 
L 125.403645 224.210384 
L 125.591978 289.804108 
L 125.799795 283.111923 
L 125.923186 281.818076 
L 125.988128 288.89783 
L 126.702497 182.152888 
L 126.877842 282.542134 
L 127.098647 262.682082 
L 127.254509 281.311824 
L 127.481808 266.949228 
L 127.624682 289.147177 
L 128.157211 273.566167 
L 128.228648 289.533191 
L 128.38451 277.941304 
L 128.624798 289.66161 
L 128.683246 289.838101 
L 128.813131 283.792402 
L 129.072902 261.123134 
L 129.144339 289.425489 
L 129.319684 276.884378 
L 129.475546 286.047334 
L 129.657385 270.222686 
L 129.865201 284.719639 
L 129.995087 277.701574 
L 130.073018 287.148907 
L 130.163937 285.773983 
L 130.261351 287.727074 
L 130.358765 285.091888 
L 130.423708 289.173255 
L 130.774398 277.673209 
L 131.105605 244.156596 
L 131.339398 285.074467 
L 131.436812 289.086043 
L 131.748537 282.632062 
L 131.813479 289.833326 
L 132.358997 241.998343 
L 132.657733 285.454555 
L 132.86555 263.175548 
L 132.949975 287.27346 
L 133.040895 286.741618 
L 133.177274 275.80474 
L 133.307159 289.410879 
L 133.677332 268.220592 
L 133.768252 286.681207 
L 133.885148 286.11996 
L 133.976068 286.361291 
L 134.144919 287.732427 
L 134.430666 273.329794 
L 134.560551 281.272223 
L 134.755379 279.383758 
L 134.87877 281.469195 
L 134.963195 285.546173 
L 135.171012 272.762615 
L 135.391817 288.244877 
L 135.58015 284.463201 
L 135.690553 284.646421 
L 135.88538 265.792692 
L 136.02176 285.701632 
L 136.119174 285.573491 
L 136.203599 289.223947 
L 136.307507 288.005439 
L 136.411415 285.355417 
L 136.476358 290.174112 
L 136.612737 278.112732 
L 136.690669 288.590058 
L 136.7686 287.895251 
L 136.827048 289.399338 
L 136.930956 283.646826 
L 137.067336 286.155282 
L 137.275152 275.093532 
L 137.372566 285.066354 
L 137.51544 281.233207 
L 137.716762 281.995607 
L 137.957049 286.280777 
L 138.288257 233.928994 
L 138.52205 285.189922 
L 138.73636 281.786283 
L 138.833774 286.474423 
L 138.911705 286.250777 
L 139.087051 281.645393 
L 139.541649 214.711542 
L 139.742971 288.53274 
L 139.92481 278.075153 
L 139.996247 287.013616 
L 140.074178 286.834944 
L 140.639179 236.370018 
L 140.775558 286.240288 
L 140.872972 285.610358 
L 141.080788 274.089599 
L 141.152225 287.51463 
L 141.360041 280.141717 
L 141.437973 286.250567 
L 141.574352 279.681547 
L 141.691249 288.003149 
L 141.827628 277.036977 
L 141.957513 285.673558 
L 142.080904 280.401933 
L 142.464066 247.256105 
L 142.710848 260.367857 
L 142.795273 285.594022 
L 142.957629 270.922433 
L 143.022572 288.293142 
L 143.26286 282.181284 
L 143.457687 280.642292 
L 143.581078 286.149859 
L 143.899297 263.488043 
L 144.074642 267.566343 
L 144.275964 288.905081 
L 144.457803 278.880986 
L 144.886425 282.556258 
L 144.951367 288.230835 
L 145.113724 270.780822 
L 145.211138 287.526954 
L 145.282574 287.414003 
L 145.341023 289.650497 
L 145.41246 287.230927 
L 145.490391 288.281547 
L 145.561828 288.138921 
L 145.67223 284.154676 
L 145.808609 288.715724 
L 146.029414 270.928937 
L 146.120334 288.301789 
L 146.243725 278.857273 
L 146.32815 289.382104 
L 146.41907 288.666549 
L 146.561944 276.181777 
L 146.795737 281.257635 
L 147.062002 283.108436 
L 147.191887 291.633572 
L 147.347749 274.502133 
L 147.633497 286.10502 
L 147.828324 270.636964 
L 147.919244 285.169794 
L 148.036141 282.947595 
L 148.204991 275.697456 
L 148.425796 288.149515 
L 148.555681 278.066741 
L 148.646601 287.55738 
L 148.925854 276.720428 
L 149.023268 285.46537 
L 149.328498 252.433659 
L 149.568786 286.204825 
L 149.737637 287.606859 
L 149.906487 267.014943 
L 150.055855 282.088229 
L 150.523442 201.681114 
L 150.666316 288.403637 
L 150.828672 289.639332 
L 150.97804 286.156026 
L 151.088443 282.469601 
L 151.224822 283.05497 
L 151.289765 289.369473 
L 151.41965 279.593808 
L 151.549535 278.992134 
L 151.620972 289.629112 
L 151.796317 286.535675 
L 152.095053 280.526467 
L 152.315858 264.956355 
L 152.56264 283.825555 
L 152.744479 284.000821 
L 152.861376 283.571635 
L 153.082181 276.873265 
L 153.296491 286.696677 
L 153.387411 286.934804 
L 153.484825 286.427833 
L 153.640687 278.426426 
L 153.777066 278.92745 
L 153.87448 283.09424 
L 154.023848 274.822933 
L 154.134251 285.82169 
L 154.27063 285.708029 
L 154.36155 286.533801 
L 154.484941 285.630568 
L 154.588849 287.821803 
L 154.679768 286.856319 
L 154.751205 287.777052 
L 155.186321 255.391834 
L 155.335689 282.7236 
L 155.465574 284.210175 
L 155.62793 281.716001 
L 155.757816 283.437411 
L 156.076034 274.190415 
L 156.179942 286.15649 
L 156.270862 284.866741 
L 156.42023 283.008165 
L 156.602069 286.628105 
L 156.718966 282.898033 
L 156.81638 287.232171 
L 157.050173 280.362009 
L 157.374886 276.119918 
L 157.452817 288.728792 
L 157.641151 270.232442 
L 157.881439 281.933853 
L 158.024312 283.601165 
L 158.108738 289.311177 
L 158.2646 277.78806 
L 158.394485 282.510901 
L 158.550347 276.97047 
L 159.128336 141.027809 
L 159.388107 285.637909 
L 159.492015 286.585843 
L 159.647877 275.021955 
L 159.719314 289.653402 
L 159.888165 282.194443 
L 159.97259 286.522607 
L 160.102475 281.097804 
L 160.219372 282.404991 
L 160.342763 288.528575 
L 160.557074 286.296502 
L 160.699947 290.55893 
L 160.829833 276.804356 
L 160.914258 285.265267 
L 161.550695 242.326672 
L 161.674086 281.521336 
L 161.797477 279.232796 
L 161.946845 290.052463 
L 162.239087 251.254065 
L 162.492363 288.958707 
L 162.667708 278.605553 
L 162.856042 282.279774 
L 163.018398 281.980594 
L 163.193743 287.409231 
L 163.31064 283.807652 
L 163.518456 288.575861 
L 163.641847 286.345965 
L 163.75225 280.815118 
L 164.05748 286.520467 
L 164.174376 284.834819 
L 164.278285 286.076694 
L 164.343227 288.492609 
L 164.518572 277.045563 
L 164.674434 289.378537 
L 164.778343 287.476089 
L 164.843285 288.976828 
L 164.97317 282.636906 
L 165.051101 287.894467 
L 165.142021 287.535446 
L 165.239435 286.614085 
L 165.395297 274.75292 
L 165.512194 285.367113 
L 165.791447 279.883882 
L 165.90185 287.642916 
L 166.168114 282.095343 
L 166.265528 282.858386 
L 166.473344 262.738274 
L 166.551276 288.570822 
L 166.648689 288.456277 
L 166.752598 288.497159 
L 166.882483 283.758699 
L 167.064322 269.773268 
L 167.252656 286.721578 
L 167.369552 279.819496 
L 167.512426 288.053722 
L 167.570874 289.636314 
L 167.843633 281.192757 
L 168.05145 284.98739 
L 168.155358 284.044553 
L 168.376163 265.169802 
L 168.499553 284.096803 
L 168.843749 275.186143 
L 168.934669 286.929723 
L 169.038577 285.947514 
L 169.200934 288.721781 
L 169.40875 259.210131 
L 169.467198 289.14361 
L 169.571106 281.51538 
L 169.662026 283.129284 
L 169.830877 279.65581 
L 169.889325 289.183573 
L 170.097141 276.054522 
L 170.265992 276.069089 
L 170.480303 274.504368 
L 170.577717 285.627907 
L 170.779039 265.939469 
L 170.954384 269.580764 
L 171.032315 289.092222 
L 171.181683 286.07857 
L 171.266108 286.479975 
L 171.370016 289.160327 
L 171.493407 285.953206 
L 171.688235 285.230051 
L 171.77266 284.205856 
L 171.935017 274.76723 
L 172.116856 277.699993 
L 172.311684 271.296355 
L 172.415592 284.034205 
L 172.616914 273.04424 
L 172.779271 274.208286 
L 173.40272 196.618038 
L 173.565076 287.452427 
L 173.779387 284.560302 
L 174.006686 291.586005 
L 174.396341 203.249941 
L 174.578181 288.932801 
L 174.708066 277.454263 
L 174.85094 281.402472 
L 175.013296 268.632969 
L 175.292549 286.567362 
L 175.4614 272.565294 
L 175.669216 268.57115 
L 175.877033 286.026067 
L 176.07186 267.289772 
L 176.156286 288.069143 
L 176.396573 268.353774 
L 176.578413 273.032158 
L 176.727781 290.656983 
L 176.799218 289.36955 
L 176.974563 268.527289 
L 177.182379 288.844572 
L 177.273299 286.772129 
L 177.468126 266.522218 
L 177.65646 289.718812 
L 177.877265 283.466073 
L 178.124047 258.484207 
L 178.208472 286.169056 
L 178.292897 285.210576 
L 178.377323 285.113422 
L 178.598128 282.50871 
L 178.792955 268.071157 
L 178.929335 275.548526 
L 178.987783 290.400588 
L 179.338473 222.303452 
L 179.45537 279.927689 
L 179.676175 287.331616 
L 179.929451 248.351422 
L 180.026865 284.632729 
L 180.150256 277.276705 
L 180.221693 287.958115 
L 180.332095 280.328105 
L 180.41652 286.22767 
L 180.617842 272.935824 
L 180.747728 279.560301 
L 181.052958 272.970147 
L 181.234797 287.594419 
L 181.351694 278.66507 
L 181.449108 287.394605 
L 181.553016 285.220123 
L 181.786809 274.612124 
L 181.95566 277.910474 
L 182.04658 288.12493 
L 182.169971 283.082892 
L 182.241407 289.714789 
L 182.35181 283.459981 
L 182.631063 253.735499 
L 182.708994 289.363326 
L 182.851868 289.06882 
L 182.936293 284.180337 
L 183.027213 284.547859 
L 183.254512 288.392576 
L 183.514282 277.524833 
L 183.624685 284.35091 
L 183.75457 277.100287 
L 183.916926 277.006425 
L 184.066294 274.210727 
L 184.137731 287.418791 
L 184.228651 286.117315 
L 184.345548 281.409875 
L 184.566352 278.710202 
L 184.670261 283.998959 
L 184.89756 281.302466 
L 184.949514 290.669613 
L 185.040433 287.561459 
L 185.20279 283.50659 
L 185.345664 274.744453 
L 185.423595 288.401611 
L 185.50802 288.010545 
L 185.585951 287.740525 
L 185.962618 271.088124 
L 186.021067 291.740098 
L 186.105492 288.810747 
L 186.358768 265.892293 
L 186.443194 285.764225 
L 186.644516 277.802796 
L 186.709458 289.721878 
L 187.086125 238.669102 
L 187.332907 286.540608 
L 187.508252 273.326799 
L 187.696586 278.871754 
L 187.852448 290.933539 
L 188.131701 276.714515 
L 188.365494 285.330611 
L 188.456414 284.924855 
L 188.988943 156.304009 
L 189.183771 285.443773 
L 189.339633 285.869134 
L 189.683829 253.465685 
L 189.735783 290.625219 
L 189.995554 274.313358 
L 190.300784 226.838308 
L 190.476129 285.317383 
L 190.64498 282.563625 
L 191.002164 244.730462 
L 191.456762 211.394686 
L 191.859406 287.862159 
L 191.950326 287.136453 
L 192.04774 285.312489 
L 192.112682 288.657102 
L 192.275039 287.759926 
L 192.39843 280.275921 
L 192.567281 289.140386 
L 192.697166 284.070365 
L 193.073833 222.015761 
L 193.197224 278.082962 
L 193.385557 275.134021 
L 193.463488 286.319866 
L 193.619351 285.691107 
L 193.677799 289.003941 
L 193.775213 287.743971 
L 193.989523 282.304483 
L 194.158374 282.782441 
L 194.288259 282.148611 
L 194.359696 286.871886 
L 194.561018 271.968218 
L 195.119525 135.420997 
L 195.216939 286.937057 
L 195.418261 285.193012 
L 195.50918 285.770792 
L 195.768951 256.819284 
L 196.074181 272.46775 
L 196.463837 218.802233 
L 196.593722 282.238973 
L 196.846998 271.510143 
L 196.937917 286.650116 
L 197.223665 231.757774 
L 197.411998 292.135867 
L 197.639298 279.229663 
L 197.905562 274.906396 
L 198.074413 266.95345 
L 198.275735 288.451197 
L 198.600448 223.277757 
L 198.89269 291.952659 
L 199.068035 266.942463 
L 199.204414 275.971351 
L 199.444702 279.383276 
L 199.522633 286.935105 
L 199.659012 281.634672 
L 199.749932 287.186472 
L 199.957748 269.728582 
L 200.074645 283.261036 
L 200.652634 214.351666 
L 200.86045 279.063868 
L 201.003324 282.917087 
L 201.548842 163.397179 
L 201.782635 281.578304 
L 201.906026 282.852021 
L 202.49051 170.779934 
L 202.685337 286.724249 
L 202.763269 288.976829 
L 202.834705 287.948645 
L 203.107464 283.981119 
L 203.211373 284.243645 
L 203.412695 285.857915 
L 203.685453 236.585271 
L 203.873787 290.525151 
L 203.958212 287.301327 
L 204.094592 288.223751 
L 204.386834 275.88714 
L 204.516719 289.304158 
L 204.718041 282.812297 
L 204.802466 284.001312 
L 205.010283 290.106437 
L 205.244076 281.389595 
L 205.367467 284.558507 
L 205.464881 284.118432 
L 205.562295 285.462969 
L 205.731145 259.056911 
L 205.841548 283.429189 
L 206.036376 253.255061 
L 206.270169 287.84437 
L 206.335112 289.607242 
L 206.555916 268.742067 
L 206.65333 291.746681 
L 206.78971 286.255222 
L 206.978043 284.775402 
L 207.387182 209.283075 
L 207.737872 290.870438 
L 207.84178 287.476168 
L 208.075573 284.328968 
L 208.14701 287.068881 
L 208.517183 264.237967 
L 208.737988 290.572592 
L 208.89385 279.72094 
L 208.997758 287.66741 
L 209.179597 280.150229 
L 209.406896 283.0644 
L 209.660173 274.133425 
L 209.984886 220.809989 
L 210.420001 197.641774 
L 210.614829 268.674934 
L 210.803162 289.33812 
L 210.933048 279.268194 
L 211.036956 285.090783 
L 211.153852 278.624553 
L 211.277243 280.56875 
L 211.407128 286.479929 
L 211.796784 253.178142 
L 211.861727 288.392409 
L 211.991612 275.653891 
L 212.134486 288.374311 
L 212.459199 225.434229 
L 212.660521 289.022853 
L 213.316441 175.547696 
L 213.673625 223.350381 
L 213.777533 282.311268 
L 213.89443 283.378846 
L 214.089258 276.317869 
L 214.167189 287.914032 
L 214.420465 284.443813 
L 215.024431 162.069748 
L 215.225753 251.932728 
L 215.641386 257.804998 
L 215.927133 230.456207 
L 216.329777 257.501137 
L 216.479145 290.374487 
L 216.784376 228.495859 
L 216.88179 283.203797 
L 217.0961 268.013296 
L 217.271445 289.120849 
L 217.635124 278.451092 
L 217.875411 240.872303 
L 218.265067 225.733252 
L 218.602768 288.951075 
L 218.758631 281.136306 
L 219.044378 288.825718 
L 219.349608 262.232295 
L 219.615873 276.341421 
L 219.940586 261.884252 
L 220.219839 233.58985 
L 220.369207 273.794066 
L 220.557541 264.888634 
L 220.64846 287.461914 
L 220.882254 281.242377 
L 221.213461 247.806579 
L 221.48622 240.171017 
L 221.603116 286.37848 
L 221.797944 273.765387 
L 222.070703 285.30812 
L 222.27852 274.018149 
L 222.694152 197.330116 
L 223.038348 217.236348 
L 223.363061 290.507221 
L 223.518923 282.915442 
L 223.720245 266.740902 
L 223.863119 277.618701 
L 224.259269 236.54935 
L 224.395648 289.776443 
L 224.661913 237.729846 
L 224.889212 290.401185 
L 225.38927 154.758421 
L 225.519155 289.001754 
L 226.265995 210.24474 
L 226.642662 212.776235 
L 226.889444 283.514543 
L 227.064789 286.969814 
L 227.201169 285.308985 
L 227.383008 270.331527 
L 227.525881 276.088035 
L 227.694732 269.259086 
L 227.909043 273.572894 
L 227.999962 283.52916 
L 228.298698 250.115324 
L 228.422089 291.841037 
L 228.798756 211.538587 
L 229.065021 290.308505 
L 229.324791 285.174693 
L 229.811861 210.440484 
L 230.032666 287.704599 
L 230.156057 282.786408 
L 230.311919 283.639289 
L 230.513241 288.314302 
L 230.662609 286.508388 
L 230.83146 288.395641 
L 231.078242 277.868171 
L 231.305541 246.072661 
L 231.383472 285.647045 
L 231.610771 244.325965 
L 232.312151 184.531861 
L 232.896634 144.751335 
L 233.266807 206.317228 
L 233.429164 283.854349 
L 233.662957 278.254272 
L 234.000659 222.93499 
L 234.260429 288.228336 
L 234.682556 207.677296 
L 234.968303 238.751567 
L 235.182614 283.979624 
L 235.357959 284.406761 
L 235.663189 243.912231 
L 236.020373 215.048115 
L 236.169741 289.843483 
L 236.325604 261.59577 
L 236.513937 289.85037 
L 236.695776 256.030851 
L 236.832156 288.038576 
L 237.033478 287.421913 
L 237.124398 283.480252 
L 237.449111 235.696907 
L 237.58549 290.427728 
L 237.825778 247.876854 
L 238.092042 266.809771 
L 238.267387 290.986488 
L 238.390778 286.721743 
L 238.520663 277.234015 
L 239.072676 199.055117 
L 239.325952 284.154003 
L 239.520779 288.959236 
L 239.793538 236.11998 
L 240.124746 228.578736 
L 240.423482 229.133798 
L 240.618309 290.623732 
L 240.806643 254.528089 
L 241.209287 226.36454 
L 241.475552 236.109727 
L 241.598943 288.964417 
L 241.826242 245.218162 
L 242.14446 237.016737 
L 242.300323 292.9554 
L 242.397737 288.126322 
L 242.683484 230.016824 
L 243.008197 221.477072 
L 243.267967 268.322661 
L 243.495267 285.551582 
L 243.670612 279.1155 
L 243.936876 233.171795 
L 244.03429 291.183871 
L 244.157681 279.193109 
L 244.482394 221.822327 
L 244.631762 276.171234 
L 244.943486 233.759452 
L 245.183774 240.284617 
L 245.904637 121.340416 
L 246.079982 288.456554 
L 246.32027 287.991662 
L 246.508603 290.240291 
L 246.761879 286.386714 
L 246.97619 272.499693 
L 247.23596 236.683023 
L 247.658087 254.391655 
L 247.956823 238.008413 
L 248.093203 274.164781 
L 248.463375 233.497718 
L 248.768606 288.379706 
L 248.904985 278.731722 
L 249.255675 239.750267 
L 249.3401 288.53858 
L 249.625848 230.736507 
L 249.924584 229.986982 
L 250.04148 283.683521 
L 250.320734 264.954574 
L 250.489584 288.676827 
L 250.664929 285.431008 
L 250.918206 238.936031 
L 251.074068 285.645699 
L 251.307861 244.729183 
L 251.67154 205.813247 
L 252.100161 216.895992 
L 252.191081 286.8342 
L 252.333954 287.304269 
L 252.918438 199.037199 
L 253.33407 209.165776 
L 253.554875 283.933701 
L 254.145853 271.156227 
L 254.275738 285.255795 
L 254.970624 183.021612 
L 255.2239 242.726675 
L 255.431716 249.489858 
L 255.7889 274.862547 
L 256.035682 239.245984 
L 256.334418 231.044977 
L 256.451315 284.631583 
L 257.126718 180.969736 
L 257.386488 273.971337 
L 257.652753 236.819103 
L 258.081374 194.57352 
L 258.652869 191.979529 
L 259.023042 223.682546 
L 259.17241 290.202574 
L 259.490629 223.584912 
L 260.458273 264.570426 
L 260.679078 249.012584 
L 261.107699 206.271248 
L 261.23109 285.630033 
L 261.360975 283.754525 
L 262.062356 251.331908 
L 262.568908 219.215188 
L 262.750747 256.051088 
L 263.237817 245.76905 
L 263.965174 204.198688 
L 264.517186 254.379479 
L 264.770462 238.557527 
L 265.030232 284.99886 
L 265.536785 240.925035 
L 265.88098 242.683078 
L 266.023854 284.340189 
L 266.32259 237.359206 
L 266.614832 240.99539 
L 266.972016 216.446734 
L 267.231786 239.193715 
L 267.413626 288.743126 
L 267.67989 244.039381 
L 267.796787 290.88922 
L 267.965638 276.617433 
L 268.186443 246.233396 
L 268.660524 198.38399 
L 269.225524 205.539622 
L 270.128226 167.748114 
L 270.407479 237.479266 
L 270.901043 223.895164 
L 271.121848 247.58142 
L 271.505009 268.871495 
L 271.777768 240.829404 
L 272.264838 211.302271 
L 272.738919 168.47425 
L 273.290931 193.688785 
L 273.700069 219.788029 
L 273.829954 289.910798 
L 273.946851 288.781458 
L 274.349495 215.514634 
L 274.52484 290.036723 
L 274.758634 244.965519 
L 275.063864 226.844197 
L 275.570416 252.088662 
L 275.771738 288.418911 
L 276.025014 241.827193 
L 276.609498 187.822104 
L 276.914728 243.333662 
L 277.155015 243.215684 
L 277.395303 244.089269 
L 277.661568 238.926135 
L 278.148637 252.959308 
L 278.356454 250.60374 
L 278.570764 250.034117 
L 279.031857 219.683803 
L 279.486455 214.217753 
L 280.441111 214.881477 
L 280.75933 277.93645 
L 281.058066 280.35002 
L 281.246399 287.572755 
L 281.486687 243.263449 
L 281.772434 234.388173 
L 282.051687 236.203619 
L 282.843987 164.876786 
L 283.084275 246.442727 
L 283.480425 231.886724 
L 283.681747 249.965021 
L 284.896173 105.17969 
L 285.175426 243.027425 
L 285.376748 252.455821 
L 285.792381 247.573505 
L 286.026174 243.228486 
L 286.253474 245.606072 
L 286.578187 232.535211 
L 286.844451 234.747251 
L 287.110716 238.179197 
L 287.831579 172.672167 
L 288.071866 244.118825 
L 288.318648 242.333356 
L 288.526465 290.26772 
L 289.409684 169.549952 
L 290.039627 279.690267 
L 291.072214 153.342219 
L 291.883997 224.74057 
L 292.202216 234.997288 
L 292.851642 192.053382 
L 293.124401 235.681073 
L 293.436125 224.558198 
L 293.832275 227.102286 
L 294.05308 247.505884 
L 294.338827 231.225399 
L 294.605092 236.651291 
L 295.163598 176.999834 
L 295.416874 245.195691 
L 295.85199 225.00379 
L 296.053312 252.440056 
L 296.267622 249.998561 
L 296.981991 227.593529 
L 297.527509 193.776758 
L 298.014578 248.363771 
L 298.378257 228.49383 
L 298.553602 257.12174 
L 298.832855 234.74183 
L 299.190039 229.641844 
L 299.482281 229.978799 
L 299.839465 217.43626 
L 300.040787 287.064012 
L 300.436937 227.408152 
L 300.664236 282.996714 
L 300.904524 243.894247 
L 301.826709 152.851801 
L 302.041019 246.235871 
L 302.320272 285.074843 
L 302.56056 243.121412 
L 303.125561 189.79335 
L 303.417802 232.117306 
L 303.710044 237.925052 
L 303.930849 246.059604 
L 304.35947 212.168091 
L 304.853034 163.592936 
L 305.437517 233.339691 
L 305.703782 235.953607 
L 305.885621 255.720215 
L 306.093437 250.538256 
L 306.405162 223.630783 
L 306.612978 250.852088 
L 306.885737 234.230753 
L 307.074071 255.059589 
L 307.470221 267.801406 
L 307.983267 158.902099 
L 308.256026 284.354449 
L 308.859992 238.609198 
L 309.041831 256.509745 
L 309.470453 227.689202 
L 310.028959 178.388297 
L 310.561488 250.536995 
L 310.782293 247.171454 
L 311.048558 234.384562 
L 311.236891 254.296379 
L 311.620053 235.208088 
L 312.074651 200.927618 
L 312.269479 253.073868 
L 313.126721 124.340003 
L 313.438445 241.869337 
L 313.698216 242.845073 
L 314.074883 242.058692 
L 314.334653 236.170666 
L 314.477527 280.238538 
L 314.698332 246.483753 
L 315.023045 235.980929 
L 315.451666 187.764675 
L 316.003678 197.015449 
L 316.393334 218.062148 
L 316.60115 251.073953 
L 316.828449 246.933385 
L 317.049254 247.988353 
L 317.360978 241.135675 
L 317.906496 189.796697 
L 318.510462 198.204859 
L 319.133911 199.14257 
L 319.530061 290.323328 
L 319.906728 221.324156 
L 320.19897 230.841529 
L 320.393798 290.000439 
L 320.614603 247.979089 
L 321.101672 236.194675 
L 321.829029 253.128309 
L 322.205696 231.80514 
L 322.471961 237.621289 
L 322.946042 170.390231 
L 323.316215 207.181246 
L 324.296848 140.182302 
L 324.54363 246.562007 
L 325.472309 154.536845 
L 325.751562 232.819779 
L 326.076275 219.707635 
L 326.34254 236.917096 
L 326.550356 289.500578 
L 326.784149 243.359481 
L 326.959494 257.050544 
L 327.336162 215.400517 
L 327.738806 198.433855 
L 328.044036 225.12795 
L 328.550588 161.550109 
L 328.901278 210.897525 
L 329.355876 189.142775 
L 329.98582 252.172858 
L 330.50536 182.792343 
L 330.791108 246.49491 
L 330.998924 250.468115 
L 331.245706 243.106528 
L 331.60289 208.956171 
L 331.817201 247.410141 
L 333.466743 120.347212 
L 333.655076 252.608533 
L 333.901858 241.483945 
L 334.161629 241.128039 
L 334.356456 252.084618 
L 334.577261 247.817199 
L 335.252664 173.071628 
L 335.557895 281.983671 
L 335.804676 242.29468 
L 336.363183 180.302679 
L 336.778815 201.36568 
L 337.142494 226.961298 
L 337.44123 229.00047 
L 337.662035 246.455575 
L 337.902322 243.518133 
L 338.291978 255.349215 
L 338.668645 235.4292 
L 339.032324 230.191603 
L 339.467439 197.790734 
L 339.694738 246.911754 
L 340.227267 231.211576 
L 340.655889 183.634945 
L 340.980602 231.152194 
L 341.422211 223.658361 
L 341.630028 249.243453 
L 342.04566 192.686957 
L 342.240488 253.637601 
L 342.467787 246.130736 
L 343.454915 99.439156 
L 343.870547 203.363789 
L 344.143306 234.175689 
L 345.325261 53.568 
L 345.760377 194.589051 
L 346.117561 212.356734 
L 346.351354 248.942205 
L 346.630608 233.120006 
L 346.909861 234.537857 
L 347.163137 238.209906 
L 347.715149 222.928099 
L 348.026873 231.699368 
L 348.358081 219.380496 
L 349.15038 252.412362 
L 349.50107 218.088631 
L 350.027106 246.07655 
L 350.42975 201.099362 
L 350.68952 236.228129 
L 351.111647 186.282416 
L 351.34544 243.380403 
L 352.248142 167.741547 
L 352.527396 233.157189 
L 352.826132 231.387912 
L 353.300213 169.530708 
L 353.735328 211.660191 
L 354.176938 183.975191 
L 354.761421 125.970439 
L 355.073145 223.957543 
L 355.287456 249.553666 
L 355.482284 253.031488 
L 355.742054 234.447967 
L 356.034296 228.834152 
L 356.34602 227.478579 
L 356.703205 212.126219 
L 357.320159 112.930935 
L 357.742286 221.794072 
L 358.287804 147.590868 
L 358.904759 241.438692 
L 359.138552 245.523958 
L 360.632232 98.366914 
L 360.956945 220.711618 
L 361.353095 200.712012 
L 361.547923 253.32835 
L 361.762233 247.541044 
L 361.957061 253.364143 
L 362.177866 246.567893 
L 362.781832 153.865713 
L 363.14551 219.274932 
L 363.742982 144.628783 
L 363.976776 243.467072 
L 364.249535 283.061349 
L 364.782064 157.402297 
L 365.197697 195.843009 
L 365.82764 206.151381 
L 366.04195 249.406609 
L 366.542008 236.928927 
L 367.055055 172.680636 
L 367.568101 161.55809 
L 367.93178 208.86507 
L 368.366895 187.641648 
L 368.600689 244.294431 
L 369.009827 192.451638 
L 369.444943 198.172929 
L 369.938506 167.291519 
L 370.295691 213.10796 
L 371.204887 82.898349 
L 371.601037 203.052863 
L 372.081612 173.802655 
L 372.399831 221.807368 
L 373.010291 118.231754 
L 373.432418 204.057423 
L 374.02989 119.466122 
L 374.452017 188.179944 
L 374.887132 190.168532 
L 375.439144 139.020272 
L 375.939202 160.065468 
L 376.569146 116.210285 
L 377.114663 144.014693 
L 377.660181 139.197348 
L 377.842021 256.017249 
L 378.63432 174.248769 
L 379.036964 227.085331 
L 379.322712 231.661689 
L 379.543517 244.875551 
L 379.926678 204.024415 
L 380.543633 125.544419 
L 380.87484 220.74852 
L 381.433346 149.999885 
L 381.790531 209.180255 
L 382.115244 217.818971 
L 382.706221 120.511855 
L 383.011451 225.417642 
L 383.277716 235.270661 
L 383.68036 193.61997 
L 384.576568 80.114899 
L 385.778006 135.078688 
L 386.083236 226.959353 
L 386.654731 131.719644 
L 387.219732 132.72768 
L 387.836687 112.4165 
L 388.076974 241.854592 
L 388.317262 240.688273 
L 388.791343 209.211066 
L 389.369332 128.061341 
L 389.862896 161.810543 
L 390.272034 201.995358 
L 390.499333 246.541239 
L 390.726632 245.827585 
L 391.36307 115.228791 
L 391.967036 118.724184 
L 392.181346 249.57065 
L 392.869738 113.044977 
L 393.558129 113.685879 
L 393.558129 113.685879 
" clip-path="url(#pf853f9a0e9)" style="fill: none; stroke: #2ca02c; stroke-width: 1.5; stroke-linecap: square"/>
   </g>
   <g id="patch_3">
    <path d="M 57.6 307.584 
L 57.6 41.472 
" style="fill: none; stroke: #000000; stroke-width: 0.8; stroke-linejoin: miter; stroke-linecap: square"/>
   </g>
   <g id="patch_4">
    <path d="M 414.72 307.584 
L 414.72 41.472 
" style="fill: none; stroke: #000000; stroke-width: 0.8; stroke-linejoin: miter; stroke-linecap: square"/>
   </g>
   <g id="patch_5">
    <path d="M 57.6 307.584 
L 414.72 307.584 
" style="fill: none; stroke: #000000; stroke-width: 0.8; stroke-linejoin: miter; stroke-linecap: square"/>
   </g>
   <g id="patch_6">
    <path d="M 57.6 41.472 
L 414.72 41.472 
" style="fill: none; stroke: #000000; stroke-width: 0.8; stroke-linejoin: miter; stroke-linecap: square"/>
   </g>
   <g id="text_16">
    <!-- learning curve -->
    <g transform="translate(192.96375 35.472) scale(0.12 -0.12)">
     <defs>
      <path id="DejaVuSans-6c" d="M 603 4863 
L 1178 4863 
L 1178 0 
L 603 0 
L 603 4863 
z
" transform="scale(0.015625)"/>
      <path id="DejaVuSans-67" d="M 2906 1791 
Q 2906 2416 2648 2759 
Q 2391 3103 1925 3103 
Q 1463 3103 1205 2759 
Q 947 2416 947 1791 
Q 947 1169 1205 825 
Q 1463 481 1925 481 
Q 2391 481 2648 825 
Q 2906 1169 2906 1791 
z
M 3481 434 
Q 3481 -459 3084 -895 
Q 2688 -1331 1869 -1331 
Q 1566 -1331 1297 -1286 
Q 1028 -1241 775 -1147 
L 775 -588 
Q 1028 -725 1275 -790 
Q 1522 -856 1778 -856 
Q 2344 -856 2625 -561 
Q 2906 -266 2906 331 
L 2906 616 
Q 2728 306 2450 153 
Q 2172 0 1784 0 
Q 1141 0 747 490 
Q 353 981 353 1791 
Q 353 2603 747 3093 
Q 1141 3584 1784 3584 
Q 2172 3584 2450 3431 
Q 2728 3278 2906 2969 
L 2906 3500 
L 3481 3500 
L 3481 434 
z
" transform="scale(0.015625)"/>
      <path id="DejaVuSans-63" d="M 3122 3366 
L 3122 2828 
Q 2878 2963 2633 3030 
Q 2388 3097 2138 3097 
Q 1578 3097 1268 2742 
Q 959 2388 959 1747 
Q 959 1106 1268 751 
Q 1578 397 2138 397 
Q 2388 397 2633 464 
Q 2878 531 3122 666 
L 3122 134 
Q 2881 22 2623 -34 
Q 2366 -91 2075 -91 
Q 1284 -91 818 406 
Q 353 903 353 1747 
Q 353 2603 823 3093 
Q 1294 3584 2113 3584 
Q 2378 3584 2631 3529 
Q 2884 3475 3122 3366 
z
" transform="scale(0.015625)"/>
      <path id="DejaVuSans-75" d="M 544 1381 
L 544 3500 
L 1119 3500 
L 1119 1403 
Q 1119 906 1312 657 
Q 1506 409 1894 409 
Q 2359 409 2629 706 
Q 2900 1003 2900 1516 
L 2900 3500 
L 3475 3500 
L 3475 0 
L 2900 0 
L 2900 538 
Q 2691 219 2414 64 
Q 2138 -91 1772 -91 
Q 1169 -91 856 284 
Q 544 659 544 1381 
z
M 1991 3584 
L 1991 3584 
z
" transform="scale(0.015625)"/>
      <path id="DejaVuSans-76" d="M 191 3500 
L 800 3500 
L 1894 563 
L 2988 3500 
L 3597 3500 
L 2284 0 
L 1503 0 
L 191 3500 
z
" transform="scale(0.015625)"/>
     </defs>
     <use xlink:href="#DejaVuSans-6c"/>
     <use xlink:href="#DejaVuSans-65" x="27.783203"/>
     <use xlink:href="#DejaVuSans-61" x="89.306641"/>
     <use xlink:href="#DejaVuSans-72" x="150.585938"/>
     <use xlink:href="#DejaVuSans-6e" x="189.949219"/>
     <use xlink:href="#DejaVuSans-69" x="253.328125"/>
     <use xlink:href="#DejaVuSans-6e" x="281.111328"/>
     <use xlink:href="#DejaVuSans-67" x="344.490234"/>
     <use xlink:href="#DejaVuSans-20" x="407.966797"/>
     <use xlink:href="#DejaVuSans-63" x="439.753906"/>
     <use xlink:href="#DejaVuSans-75" x="494.734375"/>
     <use xlink:href="#DejaVuSans-72" x="558.113281"/>
     <use xlink:href="#DejaVuSans-76" x="599.226562"/>
     <use xlink:href="#DejaVuSans-65" x="658.40625"/>
    </g>
   </g>
   <g id="legend_1">
    <g id="patch_7">
     <path d="M 64.6 93.506375 
L 166.614062 93.506375 
Q 168.614062 93.506375 168.614062 91.506375 
L 168.614062 48.472 
Q 168.614062 46.472 166.614062 46.472 
L 64.6 46.472 
Q 62.6 46.472 62.6 48.472 
L 62.6 91.506375 
Q 62.6 93.506375 64.6 93.506375 
z
" style="fill: #ffffff; opacity: 0.8; stroke: #cccccc; stroke-linejoin: miter"/>
    </g>
    <g id="line2d_17">
     <path d="M 66.6 54.570438 
L 76.6 54.570438 
L 86.6 54.570438 
" style="fill: none; stroke: #1f77b4; stroke-width: 1.5; stroke-linecap: square"/>
    </g>
    <g id="text_17">
     <!-- source-source -->
     <g transform="translate(94.6 58.070438) scale(0.1 -0.1)">
      <defs>
       <path id="DejaVuSans-2d" d="M 313 2009 
L 1997 2009 
L 1997 1497 
L 313 1497 
L 313 2009 
z
" transform="scale(0.015625)"/>
      </defs>
      <use xlink:href="#DejaVuSans-73"/>
      <use xlink:href="#DejaVuSans-6f" x="52.099609"/>
      <use xlink:href="#DejaVuSans-75" x="113.28125"/>
      <use xlink:href="#DejaVuSans-72" x="176.660156"/>
      <use xlink:href="#DejaVuSans-63" x="215.523438"/>
      <use xlink:href="#DejaVuSans-65" x="270.503906"/>
      <use xlink:href="#DejaVuSans-2d" x="332.027344"/>
      <use xlink:href="#DejaVuSans-73" x="368.111328"/>
      <use xlink:href="#DejaVuSans-6f" x="420.210938"/>
      <use xlink:href="#DejaVuSans-75" x="481.392578"/>
      <use xlink:href="#DejaVuSans-72" x="544.771484"/>
      <use xlink:href="#DejaVuSans-63" x="583.634766"/>
      <use xlink:href="#DejaVuSans-65" x="638.615234"/>
     </g>
    </g>
    <g id="line2d_18">
     <path d="M 66.6 69.248563 
L 76.6 69.248563 
L 86.6 69.248563 
" style="fill: none; stroke: #ff7f0e; stroke-width: 1.5; stroke-linecap: square"/>
    </g>
    <g id="text_18">
     <!-- source-target -->
     <g transform="translate(94.6 72.748563) scale(0.1 -0.1)">
      <use xlink:href="#DejaVuSans-73"/>
      <use xlink:href="#DejaVuSans-6f" x="52.099609"/>
      <use xlink:href="#DejaVuSans-75" x="113.28125"/>
      <use xlink:href="#DejaVuSans-72" x="176.660156"/>
      <use xlink:href="#DejaVuSans-63" x="215.523438"/>
      <use xlink:href="#DejaVuSans-65" x="270.503906"/>
      <use xlink:href="#DejaVuSans-2d" x="332.027344"/>
      <use xlink:href="#DejaVuSans-74" x="368.111328"/>
      <use xlink:href="#DejaVuSans-61" x="407.320312"/>
      <use xlink:href="#DejaVuSans-72" x="468.599609"/>
      <use xlink:href="#DejaVuSans-67" x="507.962891"/>
      <use xlink:href="#DejaVuSans-65" x="571.439453"/>
      <use xlink:href="#DejaVuSans-74" x="632.962891"/>
     </g>
    </g>
    <g id="line2d_19">
     <path d="M 66.6 83.926688 
L 76.6 83.926688 
L 86.6 83.926688 
" style="fill: none; stroke: #2ca02c; stroke-width: 1.5; stroke-linecap: square"/>
    </g>
    <g id="text_19">
     <!-- target-target -->
     <g transform="translate(94.6 87.426688) scale(0.1 -0.1)">
      <use xlink:href="#DejaVuSans-74"/>
      <use xlink:href="#DejaVuSans-61" x="39.208984"/>
      <use xlink:href="#DejaVuSans-72" x="100.488281"/>
      <use xlink:href="#DejaVuSans-67" x="139.851562"/>
      <use xlink:href="#DejaVuSans-65" x="203.328125"/>
      <use xlink:href="#DejaVuSans-74" x="264.851562"/>
      <use xlink:href="#DejaVuSans-2d" x="304.060547"/>
      <use xlink:href="#DejaVuSans-74" x="340.144531"/>
      <use xlink:href="#DejaVuSans-61" x="379.353516"/>
      <use xlink:href="#DejaVuSans-72" x="440.632812"/>
      <use xlink:href="#DejaVuSans-67" x="479.996094"/>
      <use xlink:href="#DejaVuSans-65" x="543.472656"/>
      <use xlink:href="#DejaVuSans-74" x="604.996094"/>
     </g>
    </g>
   </g>
  </g>
 </g>
 <defs>
  <clipPath id="pf853f9a0e9">
   <rect x="57.6" y="41.472" width="357.12" height="266.112"/>
  </clipPath>
 </defs>
</svg>
