<?xml version="1.0" encoding="utf-8" standalone="no"?>
<!DOCTYPE svg PUBLIC "-//W3C//DTD SVG 1.1//EN"
  "http://www.w3.org/Graphics/SVG/1.1/DTD/svg11.dtd">
<svg xmlns:xlink="http://www.w3.org/1999/xlink" width="460.8pt" height="345.6pt" viewBox="0 0 460.8 345.6" xmlns="http://www.w3.org/2000/svg" version="1.1">
 <metadata>
  <rdf:RDF xmlns:dc="http://purl.org/dc/elements/1.1/" xmlns:cc="http://creativecommons.org/ns#" xmlns:rdf="http://www.w3.org/1999/02/22-rdf-syntax-ns#">
   <cc:Work>
    <dc:type rdf:resource="http://purl.org/dc/dcmitype/StillImage"/>
    <dc:date>2023-08-18T16:01:19.787687</dc:date>
    <dc:format>image/svg+xml</dc:format>
    <dc:creator>
     <cc:Agent>
      <dc:title>Matplotlib v3.7.1, https://matplotlib.org/</dc:title>
     </cc:Agent>
    </dc:creator>
   </cc:Work>
  </rdf:RDF>
 </metadata>
 <defs>
  <style type="text/css">*{stroke-linejoin: round; stroke-linecap: butt}</style>
 </defs>
 <g id="figure_1">
  <g id="patch_1">
   <path d="M 0 345.6 
L 460.8 345.6 
L 460.8 0 
L 0 0 
z
" style="fill: #ffffff"/>
  </g>
  <g id="axes_1">
   <g id="patch_2">
    <path d="M 57.6 307.584 
L 414.72 307.584 
L 414.72 41.472 
L 57.6 41.472 
z
" style="fill: #ffffff"/>
   </g>
   <g id="matplotlib.axis_1">
    <g id="xtick_1">
     <g id="line2d_1">
      <defs>
       <path id="m754548655d" d="M 0 0 
L 0 3.5 
" style="stroke: #000000; stroke-width: 0.8"/>
      </defs>
      <g>
       <use xlink:href="#m754548655d" x="73.780774" y="307.584" style="stroke: #000000; stroke-width: 0.8"/>
      </g>
     </g>
     <g id="text_1">
      <!-- 0 -->
      <g transform="translate(70.599524 322.182437) scale(0.1 -0.1)">
       <defs>
        <path id="DejaVuSans-30" d="M 2034 4250 
Q 1547 4250 1301 3770 
Q 1056 3291 1056 2328 
Q 1056 1369 1301 889 
Q 1547 409 2034 409 
Q 2525 409 2770 889 
Q 3016 1369 3016 2328 
Q 3016 3291 2770 3770 
Q 2525 4250 2034 4250 
z
M 2034 4750 
Q 2819 4750 3233 4129 
Q 3647 3509 3647 2328 
Q 3647 1150 3233 529 
Q 2819 -91 2034 -91 
Q 1250 -91 836 529 
Q 422 1150 422 2328 
Q 422 3509 836 4129 
Q 1250 4750 2034 4750 
z
" transform="scale(0.015625)"/>
       </defs>
       <use xlink:href="#DejaVuSans-30"/>
      </g>
     </g>
    </g>
    <g id="xtick_2">
     <g id="line2d_2">
      <g>
       <use xlink:href="#m754548655d" x="138.722074" y="307.584" style="stroke: #000000; stroke-width: 0.8"/>
      </g>
     </g>
     <g id="text_2">
      <!-- 10000 -->
      <g transform="translate(122.815824 322.182437) scale(0.1 -0.1)">
       <defs>
        <path id="DejaVuSans-31" d="M 794 531 
L 1825 531 
L 1825 4091 
L 703 3866 
L 703 4441 
L 1819 4666 
L 2450 4666 
L 2450 531 
L 3481 531 
L 3481 0 
L 794 0 
L 794 531 
z
" transform="scale(0.015625)"/>
       </defs>
       <use xlink:href="#DejaVuSans-31"/>
       <use xlink:href="#DejaVuSans-30" x="63.623047"/>
       <use xlink:href="#DejaVuSans-30" x="127.246094"/>
       <use xlink:href="#DejaVuSans-30" x="190.869141"/>
       <use xlink:href="#DejaVuSans-30" x="254.492188"/>
      </g>
     </g>
    </g>
    <g id="xtick_3">
     <g id="line2d_3">
      <g>
       <use xlink:href="#m754548655d" x="203.663374" y="307.584" style="stroke: #000000; stroke-width: 0.8"/>
      </g>
     </g>
     <g id="text_3">
      <!-- 20000 -->
      <g transform="translate(187.757124 322.182437) scale(0.1 -0.1)">
       <defs>
        <path id="DejaVuSans-32" d="M 1228 531 
L 3431 531 
L 3431 0 
L 469 0 
L 469 531 
Q 828 903 1448 1529 
Q 2069 2156 2228 2338 
Q 2531 2678 2651 2914 
Q 2772 3150 2772 3378 
Q 2772 3750 2511 3984 
Q 2250 4219 1831 4219 
Q 1534 4219 1204 4116 
Q 875 4013 500 3803 
L 500 4441 
Q 881 4594 1212 4672 
Q 1544 4750 1819 4750 
Q 2544 4750 2975 4387 
Q 3406 4025 3406 3419 
Q 3406 3131 3298 2873 
Q 3191 2616 2906 2266 
Q 2828 2175 2409 1742 
Q 1991 1309 1228 531 
z
" transform="scale(0.015625)"/>
       </defs>
       <use xlink:href="#DejaVuSans-32"/>
       <use xlink:href="#DejaVuSans-30" x="63.623047"/>
       <use xlink:href="#DejaVuSans-30" x="127.246094"/>
       <use xlink:href="#DejaVuSans-30" x="190.869141"/>
       <use xlink:href="#DejaVuSans-30" x="254.492188"/>
      </g>
     </g>
    </g>
    <g id="xtick_4">
     <g id="line2d_4">
      <g>
       <use xlink:href="#m754548655d" x="268.604673" y="307.584" style="stroke: #000000; stroke-width: 0.8"/>
      </g>
     </g>
     <g id="text_4">
      <!-- 30000 -->
      <g transform="translate(252.698423 322.182437) scale(0.1 -0.1)">
       <defs>
        <path id="DejaVuSans-33" d="M 2597 2516 
Q 3050 2419 3304 2112 
Q 3559 1806 3559 1356 
Q 3559 666 3084 287 
Q 2609 -91 1734 -91 
Q 1441 -91 1130 -33 
Q 819 25 488 141 
L 488 750 
Q 750 597 1062 519 
Q 1375 441 1716 441 
Q 2309 441 2620 675 
Q 2931 909 2931 1356 
Q 2931 1769 2642 2001 
Q 2353 2234 1838 2234 
L 1294 2234 
L 1294 2753 
L 1863 2753 
Q 2328 2753 2575 2939 
Q 2822 3125 2822 3475 
Q 2822 3834 2567 4026 
Q 2313 4219 1838 4219 
Q 1578 4219 1281 4162 
Q 984 4106 628 3988 
L 628 4550 
Q 988 4650 1302 4700 
Q 1616 4750 1894 4750 
Q 2613 4750 3031 4423 
Q 3450 4097 3450 3541 
Q 3450 3153 3228 2886 
Q 3006 2619 2597 2516 
z
" transform="scale(0.015625)"/>
       </defs>
       <use xlink:href="#DejaVuSans-33"/>
       <use xlink:href="#DejaVuSans-30" x="63.623047"/>
       <use xlink:href="#DejaVuSans-30" x="127.246094"/>
       <use xlink:href="#DejaVuSans-30" x="190.869141"/>
       <use xlink:href="#DejaVuSans-30" x="254.492188"/>
      </g>
     </g>
    </g>
    <g id="xtick_5">
     <g id="line2d_5">
      <g>
       <use xlink:href="#m754548655d" x="333.545973" y="307.584" style="stroke: #000000; stroke-width: 0.8"/>
      </g>
     </g>
     <g id="text_5">
      <!-- 40000 -->
      <g transform="translate(317.639723 322.182437) scale(0.1 -0.1)">
       <defs>
        <path id="DejaVuSans-34" d="M 2419 4116 
L 825 1625 
L 2419 1625 
L 2419 4116 
z
M 2253 4666 
L 3047 4666 
L 3047 1625 
L 3713 1625 
L 3713 1100 
L 3047 1100 
L 3047 0 
L 2419 0 
L 2419 1100 
L 313 1100 
L 313 1709 
L 2253 4666 
z
" transform="scale(0.015625)"/>
       </defs>
       <use xlink:href="#DejaVuSans-34"/>
       <use xlink:href="#DejaVuSans-30" x="63.623047"/>
       <use xlink:href="#DejaVuSans-30" x="127.246094"/>
       <use xlink:href="#DejaVuSans-30" x="190.869141"/>
       <use xlink:href="#DejaVuSans-30" x="254.492188"/>
      </g>
     </g>
    </g>
    <g id="xtick_6">
     <g id="line2d_6">
      <g>
       <use xlink:href="#m754548655d" x="398.487273" y="307.584" style="stroke: #000000; stroke-width: 0.8"/>
      </g>
     </g>
     <g id="text_6">
      <!-- 50000 -->
      <g transform="translate(382.581023 322.182437) scale(0.1 -0.1)">
       <defs>
        <path id="DejaVuSans-35" d="M 691 4666 
L 3169 4666 
L 3169 4134 
L 1269 4134 
L 1269 2991 
Q 1406 3038 1543 3061 
Q 1681 3084 1819 3084 
Q 2600 3084 3056 2656 
Q 3513 2228 3513 1497 
Q 3513 744 3044 326 
Q 2575 -91 1722 -91 
Q 1428 -91 1123 -41 
Q 819 9 494 109 
L 494 744 
Q 775 591 1075 516 
Q 1375 441 1709 441 
Q 2250 441 2565 725 
Q 2881 1009 2881 1497 
Q 2881 1984 2565 2268 
Q 2250 2553 1709 2553 
Q 1456 2553 1204 2497 
Q 953 2441 691 2322 
L 691 4666 
z
" transform="scale(0.015625)"/>
       </defs>
       <use xlink:href="#DejaVuSans-35"/>
       <use xlink:href="#DejaVuSans-30" x="63.623047"/>
       <use xlink:href="#DejaVuSans-30" x="127.246094"/>
       <use xlink:href="#DejaVuSans-30" x="190.869141"/>
       <use xlink:href="#DejaVuSans-30" x="254.492188"/>
      </g>
     </g>
    </g>
    <g id="text_7">
     <!-- timesteps -->
     <g transform="translate(211.443594 335.860562) scale(0.1 -0.1)">
      <defs>
       <path id="DejaVuSans-74" d="M 1172 4494 
L 1172 3500 
L 2356 3500 
L 2356 3053 
L 1172 3053 
L 1172 1153 
Q 1172 725 1289 603 
Q 1406 481 1766 481 
L 2356 481 
L 2356 0 
L 1766 0 
Q 1100 0 847 248 
Q 594 497 594 1153 
L 594 3053 
L 172 3053 
L 172 3500 
L 594 3500 
L 594 4494 
L 1172 4494 
z
" transform="scale(0.015625)"/>
       <path id="DejaVuSans-69" d="M 603 3500 
L 1178 3500 
L 1178 0 
L 603 0 
L 603 3500 
z
M 603 4863 
L 1178 4863 
L 1178 4134 
L 603 4134 
L 603 4863 
z
" transform="scale(0.015625)"/>
       <path id="DejaVuSans-6d" d="M 3328 2828 
Q 3544 3216 3844 3400 
Q 4144 3584 4550 3584 
Q 5097 3584 5394 3201 
Q 5691 2819 5691 2113 
L 5691 0 
L 5113 0 
L 5113 2094 
Q 5113 2597 4934 2840 
Q 4756 3084 4391 3084 
Q 3944 3084 3684 2787 
Q 3425 2491 3425 1978 
L 3425 0 
L 2847 0 
L 2847 2094 
Q 2847 2600 2669 2842 
Q 2491 3084 2119 3084 
Q 1678 3084 1418 2786 
Q 1159 2488 1159 1978 
L 1159 0 
L 581 0 
L 581 3500 
L 1159 3500 
L 1159 2956 
Q 1356 3278 1631 3431 
Q 1906 3584 2284 3584 
Q 2666 3584 2933 3390 
Q 3200 3197 3328 2828 
z
" transform="scale(0.015625)"/>
       <path id="DejaVuSans-65" d="M 3597 1894 
L 3597 1613 
L 953 1613 
Q 991 1019 1311 708 
Q 1631 397 2203 397 
Q 2534 397 2845 478 
Q 3156 559 3463 722 
L 3463 178 
Q 3153 47 2828 -22 
Q 2503 -91 2169 -91 
Q 1331 -91 842 396 
Q 353 884 353 1716 
Q 353 2575 817 3079 
Q 1281 3584 2069 3584 
Q 2775 3584 3186 3129 
Q 3597 2675 3597 1894 
z
M 3022 2063 
Q 3016 2534 2758 2815 
Q 2500 3097 2075 3097 
Q 1594 3097 1305 2825 
Q 1016 2553 972 2059 
L 3022 2063 
z
" transform="scale(0.015625)"/>
       <path id="DejaVuSans-73" d="M 2834 3397 
L 2834 2853 
Q 2591 2978 2328 3040 
Q 2066 3103 1784 3103 
Q 1356 3103 1142 2972 
Q 928 2841 928 2578 
Q 928 2378 1081 2264 
Q 1234 2150 1697 2047 
L 1894 2003 
Q 2506 1872 2764 1633 
Q 3022 1394 3022 966 
Q 3022 478 2636 193 
Q 2250 -91 1575 -91 
Q 1294 -91 989 -36 
Q 684 19 347 128 
L 347 722 
Q 666 556 975 473 
Q 1284 391 1588 391 
Q 1994 391 2212 530 
Q 2431 669 2431 922 
Q 2431 1156 2273 1281 
Q 2116 1406 1581 1522 
L 1381 1569 
Q 847 1681 609 1914 
Q 372 2147 372 2553 
Q 372 3047 722 3315 
Q 1072 3584 1716 3584 
Q 2034 3584 2315 3537 
Q 2597 3491 2834 3397 
z
" transform="scale(0.015625)"/>
       <path id="DejaVuSans-70" d="M 1159 525 
L 1159 -1331 
L 581 -1331 
L 581 3500 
L 1159 3500 
L 1159 2969 
Q 1341 3281 1617 3432 
Q 1894 3584 2278 3584 
Q 2916 3584 3314 3078 
Q 3713 2572 3713 1747 
Q 3713 922 3314 415 
Q 2916 -91 2278 -91 
Q 1894 -91 1617 61 
Q 1341 213 1159 525 
z
M 3116 1747 
Q 3116 2381 2855 2742 
Q 2594 3103 2138 3103 
Q 1681 3103 1420 2742 
Q 1159 2381 1159 1747 
Q 1159 1113 1420 752 
Q 1681 391 2138 391 
Q 2594 391 2855 752 
Q 3116 1113 3116 1747 
z
" transform="scale(0.015625)"/>
      </defs>
      <use xlink:href="#DejaVuSans-74"/>
      <use xlink:href="#DejaVuSans-69" x="39.208984"/>
      <use xlink:href="#DejaVuSans-6d" x="66.992188"/>
      <use xlink:href="#DejaVuSans-65" x="164.404297"/>
      <use xlink:href="#DejaVuSans-73" x="225.927734"/>
      <use xlink:href="#DejaVuSans-74" x="278.027344"/>
      <use xlink:href="#DejaVuSans-65" x="317.236328"/>
      <use xlink:href="#DejaVuSans-70" x="378.759766"/>
      <use xlink:href="#DejaVuSans-73" x="442.236328"/>
     </g>
    </g>
   </g>
   <g id="matplotlib.axis_2">
    <g id="ytick_1">
     <g id="line2d_7">
      <defs>
       <path id="m3f564446d6" d="M 0 0 
L -3.5 0 
" style="stroke: #000000; stroke-width: 0.8"/>
      </defs>
      <g>
       <use xlink:href="#m3f564446d6" x="57.6" y="296.894552" style="stroke: #000000; stroke-width: 0.8"/>
      </g>
     </g>
     <g id="text_8">
      <!-- 0 -->
      <g transform="translate(44.2375 300.693771) scale(0.1 -0.1)">
       <use xlink:href="#DejaVuSans-30"/>
      </g>
     </g>
    </g>
    <g id="ytick_2">
     <g id="line2d_8">
      <g>
       <use xlink:href="#m3f564446d6" x="57.6" y="261.171846" style="stroke: #000000; stroke-width: 0.8"/>
      </g>
     </g>
     <g id="text_9">
      <!-- 50 -->
      <g transform="translate(37.875 264.971064) scale(0.1 -0.1)">
       <use xlink:href="#DejaVuSans-35"/>
       <use xlink:href="#DejaVuSans-30" x="63.623047"/>
      </g>
     </g>
    </g>
    <g id="ytick_3">
     <g id="line2d_9">
      <g>
       <use xlink:href="#m3f564446d6" x="57.6" y="225.449139" style="stroke: #000000; stroke-width: 0.8"/>
      </g>
     </g>
     <g id="text_10">
      <!-- 100 -->
      <g transform="translate(31.5125 229.248358) scale(0.1 -0.1)">
       <use xlink:href="#DejaVuSans-31"/>
       <use xlink:href="#DejaVuSans-30" x="63.623047"/>
       <use xlink:href="#DejaVuSans-30" x="127.246094"/>
      </g>
     </g>
    </g>
    <g id="ytick_4">
     <g id="line2d_10">
      <g>
       <use xlink:href="#m3f564446d6" x="57.6" y="189.726432" style="stroke: #000000; stroke-width: 0.8"/>
      </g>
     </g>
     <g id="text_11">
      <!-- 150 -->
      <g transform="translate(31.5125 193.525651) scale(0.1 -0.1)">
       <use xlink:href="#DejaVuSans-31"/>
       <use xlink:href="#DejaVuSans-35" x="63.623047"/>
       <use xlink:href="#DejaVuSans-30" x="127.246094"/>
      </g>
     </g>
    </g>
    <g id="ytick_5">
     <g id="line2d_11">
      <g>
       <use xlink:href="#m3f564446d6" x="57.6" y="154.003726" style="stroke: #000000; stroke-width: 0.8"/>
      </g>
     </g>
     <g id="text_12">
      <!-- 200 -->
      <g transform="translate(31.5125 157.802944) scale(0.1 -0.1)">
       <use xlink:href="#DejaVuSans-32"/>
       <use xlink:href="#DejaVuSans-30" x="63.623047"/>
       <use xlink:href="#DejaVuSans-30" x="127.246094"/>
      </g>
     </g>
    </g>
    <g id="ytick_6">
     <g id="line2d_12">
      <g>
       <use xlink:href="#m3f564446d6" x="57.6" y="118.281019" style="stroke: #000000; stroke-width: 0.8"/>
      </g>
     </g>
     <g id="text_13">
      <!-- 250 -->
      <g transform="translate(31.5125 122.080238) scale(0.1 -0.1)">
       <use xlink:href="#DejaVuSans-32"/>
       <use xlink:href="#DejaVuSans-35" x="63.623047"/>
       <use xlink:href="#DejaVuSans-30" x="127.246094"/>
      </g>
     </g>
    </g>
    <g id="ytick_7">
     <g id="line2d_13">
      <g>
       <use xlink:href="#m3f564446d6" x="57.6" y="82.558312" style="stroke: #000000; stroke-width: 0.8"/>
      </g>
     </g>
     <g id="text_14">
      <!-- 300 -->
      <g transform="translate(31.5125 86.357531) scale(0.1 -0.1)">
       <use xlink:href="#DejaVuSans-33"/>
       <use xlink:href="#DejaVuSans-30" x="63.623047"/>
       <use xlink:href="#DejaVuSans-30" x="127.246094"/>
      </g>
     </g>
    </g>
    <g id="ytick_8">
     <g id="line2d_14">
      <g>
       <use xlink:href="#m3f564446d6" x="57.6" y="46.835606" style="stroke: #000000; stroke-width: 0.8"/>
      </g>
     </g>
     <g id="text_15">
      <!-- 350 -->
      <g transform="translate(31.5125 50.634825) scale(0.1 -0.1)">
       <use xlink:href="#DejaVuSans-33"/>
       <use xlink:href="#DejaVuSans-35" x="63.623047"/>
       <use xlink:href="#DejaVuSans-30" x="127.246094"/>
      </g>
     </g>
    </g>
    <g id="text_16">
     <!-- mean episode rewards -->
     <g transform="translate(25.432812 231.360031) rotate(-90) scale(0.1 -0.1)">
      <defs>
       <path id="DejaVuSans-61" d="M 2194 1759 
Q 1497 1759 1228 1600 
Q 959 1441 959 1056 
Q 959 750 1161 570 
Q 1363 391 1709 391 
Q 2188 391 2477 730 
Q 2766 1069 2766 1631 
L 2766 1759 
L 2194 1759 
z
M 3341 1997 
L 3341 0 
L 2766 0 
L 2766 531 
Q 2569 213 2275 61 
Q 1981 -91 1556 -91 
Q 1019 -91 701 211 
Q 384 513 384 1019 
Q 384 1609 779 1909 
Q 1175 2209 1959 2209 
L 2766 2209 
L 2766 2266 
Q 2766 2663 2505 2880 
Q 2244 3097 1772 3097 
Q 1472 3097 1187 3025 
Q 903 2953 641 2809 
L 641 3341 
Q 956 3463 1253 3523 
Q 1550 3584 1831 3584 
Q 2591 3584 2966 3190 
Q 3341 2797 3341 1997 
z
" transform="scale(0.015625)"/>
       <path id="DejaVuSans-6e" d="M 3513 2113 
L 3513 0 
L 2938 0 
L 2938 2094 
Q 2938 2591 2744 2837 
Q 2550 3084 2163 3084 
Q 1697 3084 1428 2787 
Q 1159 2491 1159 1978 
L 1159 0 
L 581 0 
L 581 3500 
L 1159 3500 
L 1159 2956 
Q 1366 3272 1645 3428 
Q 1925 3584 2291 3584 
Q 2894 3584 3203 3211 
Q 3513 2838 3513 2113 
z
" transform="scale(0.015625)"/>
       <path id="DejaVuSans-20" transform="scale(0.015625)"/>
       <path id="DejaVuSans-6f" d="M 1959 3097 
Q 1497 3097 1228 2736 
Q 959 2375 959 1747 
Q 959 1119 1226 758 
Q 1494 397 1959 397 
Q 2419 397 2687 759 
Q 2956 1122 2956 1747 
Q 2956 2369 2687 2733 
Q 2419 3097 1959 3097 
z
M 1959 3584 
Q 2709 3584 3137 3096 
Q 3566 2609 3566 1747 
Q 3566 888 3137 398 
Q 2709 -91 1959 -91 
Q 1206 -91 779 398 
Q 353 888 353 1747 
Q 353 2609 779 3096 
Q 1206 3584 1959 3584 
z
" transform="scale(0.015625)"/>
       <path id="DejaVuSans-64" d="M 2906 2969 
L 2906 4863 
L 3481 4863 
L 3481 0 
L 2906 0 
L 2906 525 
Q 2725 213 2448 61 
Q 2172 -91 1784 -91 
Q 1150 -91 751 415 
Q 353 922 353 1747 
Q 353 2572 751 3078 
Q 1150 3584 1784 3584 
Q 2172 3584 2448 3432 
Q 2725 3281 2906 2969 
z
M 947 1747 
Q 947 1113 1208 752 
Q 1469 391 1925 391 
Q 2381 391 2643 752 
Q 2906 1113 2906 1747 
Q 2906 2381 2643 2742 
Q 2381 3103 1925 3103 
Q 1469 3103 1208 2742 
Q 947 2381 947 1747 
z
" transform="scale(0.015625)"/>
       <path id="DejaVuSans-72" d="M 2631 2963 
Q 2534 3019 2420 3045 
Q 2306 3072 2169 3072 
Q 1681 3072 1420 2755 
Q 1159 2438 1159 1844 
L 1159 0 
L 581 0 
L 581 3500 
L 1159 3500 
L 1159 2956 
Q 1341 3275 1631 3429 
Q 1922 3584 2338 3584 
Q 2397 3584 2469 3576 
Q 2541 3569 2628 3553 
L 2631 2963 
z
" transform="scale(0.015625)"/>
       <path id="DejaVuSans-77" d="M 269 3500 
L 844 3500 
L 1563 769 
L 2278 3500 
L 2956 3500 
L 3675 769 
L 4391 3500 
L 4966 3500 
L 4050 0 
L 3372 0 
L 2619 2869 
L 1863 0 
L 1184 0 
L 269 3500 
z
" transform="scale(0.015625)"/>
      </defs>
      <use xlink:href="#DejaVuSans-6d"/>
      <use xlink:href="#DejaVuSans-65" x="97.412109"/>
      <use xlink:href="#DejaVuSans-61" x="158.935547"/>
      <use xlink:href="#DejaVuSans-6e" x="220.214844"/>
      <use xlink:href="#DejaVuSans-20" x="283.59375"/>
      <use xlink:href="#DejaVuSans-65" x="315.380859"/>
      <use xlink:href="#DejaVuSans-70" x="376.904297"/>
      <use xlink:href="#DejaVuSans-69" x="440.380859"/>
      <use xlink:href="#DejaVuSans-73" x="468.164062"/>
      <use xlink:href="#DejaVuSans-6f" x="520.263672"/>
      <use xlink:href="#DejaVuSans-64" x="581.445312"/>
      <use xlink:href="#DejaVuSans-65" x="644.921875"/>
      <use xlink:href="#DejaVuSans-20" x="706.445312"/>
      <use xlink:href="#DejaVuSans-72" x="738.232422"/>
      <use xlink:href="#DejaVuSans-65" x="777.095703"/>
      <use xlink:href="#DejaVuSans-77" x="838.619141"/>
      <use xlink:href="#DejaVuSans-61" x="920.40625"/>
      <use xlink:href="#DejaVuSans-72" x="981.685547"/>
      <use xlink:href="#DejaVuSans-64" x="1021.048828"/>
      <use xlink:href="#DejaVuSans-73" x="1084.525391"/>
     </g>
    </g>
   </g>
   <g id="line2d_15">
    <path d="M 73.832727 292.886428 
L 74.163928 287.045339 
L 74.254846 288.626628 
L 74.345764 287.960191 
L 74.436681 292.236452 
L 74.547082 287.505423 
L 74.722423 293.338819 
L 74.962706 286.381953 
L 75.092588 280.274669 
L 75.228965 289.719985 
L 75.365342 288.937563 
L 75.501719 281.911438 
L 75.586142 291.082264 
L 75.761484 279.988183 
L 75.871884 288.960075 
L 75.982284 288.936727 
L 76.209579 287.392539 
L 76.410897 271.765081 
L 76.742097 287.072126 
L 76.846004 286.53294 
L 76.956404 285.190667 
L 77.047322 290.790895 
L 77.164216 289.266578 
L 77.28111 289.297816 
L 77.385016 287.206149 
L 77.625299 275.416032 
L 77.865582 292.299099 
L 77.943512 291.036301 
L 78.118853 277.091098 
L 78.281206 292.449096 
L 78.489018 284.075057 
L 78.748784 291.647518 
L 78.878666 287.788881 
L 78.976078 288.816868 
L 79.099467 283.2237 
L 79.274808 292.869654 
L 79.716409 270.192715 
L 79.982668 245.950657 
L 80.119045 289.038599 
L 80.287892 281.147135 
L 80.34634 291.918052 
L 80.528175 288.635296 
L 80.606105 289.725399 
L 80.833399 271.984707 
L 81.034717 289.60388 
L 81.08667 293.393206 
L 81.534765 260.48047 
L 81.606201 292.91401 
L 81.703613 289.448039 
L 81.846484 289.316376 
L 81.917919 291.367087 
L 82.080272 279.275203 
L 82.262108 290.561721 
L 82.379002 287.122799 
L 82.593309 262.064632 
L 82.87905 290.61465 
L 83.073874 289.473357 
L 83.249216 277.354741 
L 83.515475 292.207491 
L 83.697311 280.426522 
L 83.931099 292.70244 
L 84.281782 283.618828 
L 84.470112 290.056695 
L 84.554536 288.874717 
L 84.729877 280.179614 
L 84.853266 288.355684 
L 85.139008 257.17919 
L 85.359808 291.145407 
L 85.45722 286.246447 
L 85.619573 286.42496 
L 85.742962 282.670006 
L 85.833879 287.239311 
L 85.996233 289.537867 
L 86.132609 288.331372 
L 86.268986 292.742954 
L 86.340422 291.500948 
L 86.46381 292.238841 
L 86.548234 290.993858 
L 86.807999 285.878773 
L 87.009317 291.450295 
L 87.184658 273.875556 
L 87.489883 290.410149 
L 87.821083 276.749923 
L 88.022401 258.357565 
L 88.223719 291.992031 
L 88.282166 291.816517 
L 88.418543 289.966588 
L 88.613367 275.447151 
L 88.762732 277.969909 
L 88.944568 290.945035 
L 89.132897 292.326828 
L 89.210827 291.079298 
L 89.37318 277.302112 
L 89.509557 290.386098 
L 90.04857 185.815639 
L 90.126499 291.818616 
L 90.451206 238.848976 
L 90.522641 291.052254 
L 90.912289 247.61859 
L 91.048666 283.179343 
L 91.230501 277.720324 
L 91.392855 281.7963 
L 91.490267 288.346649 
L 91.607161 284.398353 
L 91.737044 295.488 
L 91.834456 289.84794 
L 91.970832 289.786921 
L 92.055256 290.765955 
L 92.587775 269.597013 
L 93.029375 292.467981 
L 93.237188 268.2123 
L 93.464482 289.022679 
L 93.626835 276.139627 
L 93.860624 286.092791 
L 93.984013 288.142378 
L 94.081425 287.48658 
L 94.15286 292.888147 
L 94.224295 291.064086 
L 94.399637 286.216984 
L 94.464578 291.684056 
L 94.568484 291.447401 
L 94.977614 270.059531 
L 95.042556 292.821293 
L 95.295827 269.880806 
L 95.393239 291.799628 
L 95.594557 285.144572 
L 95.685475 290.518509 
L 95.919263 285.432209 
L 96.003687 292.295894 
L 96.114087 291.1363 
L 96.237476 293.381503 
L 96.445288 264.803563 
L 96.549194 293.307225 
L 96.666088 285.439366 
L 96.750512 289.235129 
L 97.153148 270.588125 
L 97.36096 290.743358 
L 97.607737 266.071674 
L 97.95842 251.010314 
L 98.062326 285.812256 
L 98.244162 290.033216 
L 98.322091 289.514455 
L 98.425997 288.560879 
L 98.620821 283.420297 
L 99.010469 294.689278 
L 99.205293 283.152481 
L 99.484541 277.842464 
L 99.620917 285.498107 
L 99.8612 281.283452 
L 100.004071 282.008034 
L 100.211883 279.621948 
L 100.543084 253.867877 
L 100.731414 292.854057 
L 100.828826 287.963325 
L 100.978191 293.631065 
L 101.335368 285.408662 
L 101.523697 292.086951 
L 101.588639 291.39212 
L 101.744498 282.62056 
L 101.854898 288.233134 
L 102.004263 285.804915 
L 102.309487 276.639542 
L 102.510805 291.96627 
L 102.854994 282.776249 
L 103.017347 289.044392 
L 103.296595 262.308678 
L 103.439466 291.331515 
L 103.55636 288.901925 
L 103.712219 292.732375 
L 104.179797 265.713305 
L 104.595421 249.554964 
L 104.660362 292.439278 
L 104.946104 282.629415 
L 105.121445 292.206568 
L 105.42667 286.755113 
L 105.595517 272.682057 
L 105.894247 295.119195 
L 105.9462 294.203802 
L 106.115047 291.044582 
L 106.309871 292.28981 
L 106.446248 290.66897 
L 106.660554 265.015101 
L 107.037214 292.145159 
L 107.186579 283.716848 
L 107.309967 285.904544 
L 107.537262 281.093827 
L 107.699615 290.252808 
L 107.887945 279.474651 
L 108.056792 291.077223 
L 108.212651 281.339337 
L 108.433452 292.627735 
L 108.537358 292.316957 
L 108.621782 290.364241 
L 108.751664 282.246021 
L 108.927006 290.449971 
L 109.017923 290.6474 
L 109.180277 292.531328 
L 109.446536 290.108354 
L 109.537454 290.548869 
L 109.764748 284.543876 
L 110.108937 229.634554 
L 110.232326 285.065421 
L 110.381691 287.486039 
L 110.563526 280.238956 
L 110.719386 286.014475 
L 110.816797 285.908696 
L 110.979151 284.883654 
L 111.115527 282.683727 
L 111.199951 289.254065 
L 111.375293 291.592545 
L 111.62207 259.238477 
L 111.706493 288.638771 
L 111.849364 289.675147 
L 112.044188 275.127587 
L 112.122118 289.856643 
L 112.252 289.059315 
L 112.349412 294.086869 
L 112.602683 288.010993 
L 112.719578 287.366657 
L 112.907907 291.588631 
L 113.011813 289.582001 
L 113.14819 281.000384 
L 113.297555 280.515348 
L 113.375485 291.979596 
L 113.472897 291.02495 
L 113.544332 291.11159 
L 113.765132 287.023244 
L 113.895015 288.521588 
L 114.057368 276.933901 
L 114.187251 283.943906 
L 114.349604 273.1901 
L 114.550922 280.124461 
L 114.648334 289.99986 
L 114.732758 288.61921 
L 114.83017 287.536593 
L 114.895111 291.533378 
L 115.16137 277.50618 
L 115.323724 284.171019 
L 115.499065 282.245111 
L 115.674407 270.842711 
L 115.901701 292.124384 
L 116.128996 273.934894 
L 116.239396 290.486575 
L 116.32382 290.387895 
L 116.395255 290.713658 
L 116.479679 291.88621 
L 116.635538 289.038855 
L 116.830362 279.813526 
L 116.940762 287.975162 
L 117.083633 287.279663 
L 117.168057 290.936755 
L 117.33041 289.645855 
L 117.62914 260.237763 
L 117.713563 289.545831 
L 117.862928 286.64308 
L 117.934364 291.976125 
L 118.083729 290.397116 
L 118.272059 276.836595 
L 118.337 291.897985 
L 118.551306 284.9462 
L 118.609753 294.230852 
L 118.778601 282.330642 
L 118.914978 285.309148 
L 119.174743 248.840946 
L 119.525426 292.230941 
L 119.629332 291.738277 
L 119.921568 285.62251 
L 120.038462 286.204709 
L 120.168345 281.534583 
L 120.330698 265.021589 
L 120.545004 269.414251 
L 120.746322 266.489509 
L 120.941146 289.697547 
L 121.032064 292.032215 
L 121.304817 286.042828 
L 121.551594 283.530317 
L 121.62303 291.888625 
L 121.713948 288.860007 
L 121.915266 290.661519 
L 121.986701 291.368075 
L 122.090607 287.836278 
L 122.226984 290.064445 
L 122.421808 287.99552 
L 122.532208 291.92625 
L 122.675079 280.625206 
L 122.915362 286.83933 
L 123.097197 286.947129 
L 123.298515 286.567342 
L 123.382939 291.545889 
L 123.649198 275.978728 
L 123.818046 291.706869 
L 123.947928 289.04196 
L 124.032352 289.248906 
L 124.103787 290.950156 
L 124.201199 290.574905 
L 124.389529 290.583027 
L 124.986989 210.454833 
L 125.116872 292.113168 
L 125.259743 280.587208 
L 125.337672 290.87002 
L 125.461061 290.655101 
L 125.551978 293.062071 
L 125.61692 292.545688 
L 125.792261 287.10251 
L 125.883179 287.672962 
L 125.980591 291.528766 
L 126.181909 284.867193 
L 126.298803 288.233186 
L 126.519604 290.342935 
L 126.668969 282.318929 
L 126.818334 284.100831 
L 126.961205 277.99124 
L 127.058617 289.995271 
L 127.227464 272.338039 
L 127.285911 293.559939 
L 127.662571 286.712492 
L 127.922336 261.91169 
L 128.130148 277.824025 
L 128.188595 293.878454 
L 128.253536 292.985059 
L 128.324972 291.272793 
L 128.571749 289.550961 
L 128.708126 286.955624 
L 129.006855 294.692422 
L 129.383515 280.256657 
L 129.506904 290.525617 
L 129.617304 284.892113 
L 129.922528 256.903809 
L 130.013446 292.768571 
L 130.123846 286.022789 
L 130.344646 283.01807 
L 130.442058 291.153127 
L 130.565447 281.662371 
L 130.734294 281.909359 
L 130.8382 290.220563 
L 131.078483 278.127112 
L 131.13693 292.204121 
L 131.208366 291.079172 
L 131.649966 220.203095 
L 131.851284 290.451456 
L 132.085073 287.167673 
L 132.318862 274.638836 
L 132.403285 288.968291 
L 132.507192 287.78709 
L 132.909828 237.687374 
L 133.111146 292.578953 
L 133.195569 291.271078 
L 133.267005 293.542033 
L 133.383899 286.365229 
L 133.481311 289.959094 
L 133.611194 283.925903 
L 133.74757 291.797926 
L 133.922912 290.521083 
L 134.273595 284.215425 
L 134.513878 289.993552 
L 134.708702 279.674257 
L 134.83209 290.083547 
L 134.94249 287.628914 
L 135.215244 267.446482 
L 135.35162 290.183142 
L 135.462021 286.056126 
L 135.552939 289.369806 
L 135.767245 281.095919 
L 136.059481 294.232706 
L 136.286775 269.103792 
L 136.371199 290.548204 
L 136.721882 236.278799 
L 136.793317 293.126631 
L 137.027106 289.025458 
L 137.131012 291.117067 
L 137.293365 289.76927 
L 137.377789 289.528313 
L 137.52066 283.37691 
L 137.624566 287.858043 
L 138.248002 167.931102 
L 138.319438 291.262108 
L 138.514262 274.236197 
L 138.728568 290.38548 
L 138.812992 289.715996 
L 139.079251 279.456752 
L 139.280569 291.631781 
L 139.397463 287.618566 
L 139.507864 289.440315 
L 139.839064 259.168685 
L 139.949464 286.322055 
L 140.085841 284.151057 
L 140.306642 291.086442 
L 140.553419 287.826763 
L 140.722266 288.802993 
L 140.787207 292.112961 
L 140.852149 291.927984 
L 140.988525 286.087082 
L 141.150879 291.067646 
L 141.365185 284.201731 
L 141.495067 290.854956 
L 141.748338 259.646072 
L 141.871727 289.105705 
L 141.962645 287.791297 
L 142.066551 291.658531 
L 142.22241 276.04282 
L 142.319822 288.283546 
L 142.44321 288.962892 
L 142.508152 291.44929 
L 142.722458 284.412267 
L 142.865329 289.477362 
L 143.196529 285.22772 
L 143.430318 292.39891 
L 143.488765 291.973303 
L 143.761519 286.385887 
L 144.183637 250.267761 
L 144.391449 291.793058 
L 144.781097 242.710365 
L 144.94345 291.403959 
L 145.014886 290.078442 
L 145.144768 292.685086 
L 145.229192 292.561333 
L 145.346087 288.047462 
L 145.443498 291.367258 
L 145.982511 245.416553 
L 146.2163 283.753364 
L 146.566983 290.453848 
L 146.638418 294.582563 
L 146.807266 290.480219 
L 146.989101 272.791951 
L 147.054043 292.390241 
L 147.190419 290.053547 
L 147.326796 281.561383 
L 147.41122 291.315124 
L 147.567079 281.68285 
L 147.683973 289.280405 
L 147.774891 288.748168 
L 148.028162 259.973631 
L 148.255457 287.286514 
L 148.807458 229.269568 
L 149.119176 287.451523 
L 149.365953 254.531026 
L 149.430894 292.111042 
L 149.80106 251.171581 
L 149.995884 290.86603 
L 150.080307 290.69373 
L 150.632308 206.62313 
L 150.749203 285.808885 
L 150.898568 276.605574 
L 151.080403 294.443864 
L 151.353157 279.740994 
L 151.444075 288.096977 
L 151.567463 281.886591 
L 151.89217 238.817312 
L 152.074005 285.493615 
L 152.210382 282.734016 
L 152.353253 284.097136 
L 152.554571 283.957687 
L 153.028642 194.467407 
L 153.152031 290.616834 
L 153.301396 281.940686 
L 153.593632 238.896873 
L 153.820926 283.169086 
L 153.989773 276.639408 
L 154.158621 282.037198 
L 154.307986 276.612395 
L 154.372927 291.253379 
L 154.567751 278.070874 
L 154.697634 291.364284 
L 154.872975 271.543305 
L 155.139234 274.977744 
L 155.470435 261.058144 
L 155.626294 287.009363 
L 155.743189 284.119078 
L 155.963989 262.352424 
L 156.113354 287.620435 
L 156.269213 282.970356 
L 156.483519 282.698073 
L 156.541967 292.006414 
L 156.691332 283.787407 
L 156.905638 287.96141 
L 157.210862 234.828729 
L 157.529074 232.18577 
L 157.71091 273.064742 
L 157.957687 249.870346 
L 158.061593 291.829277 
L 158.146017 290.373506 
L 158.431758 247.082749 
L 158.912324 224.009575 
L 159.191572 291.217531 
L 159.31496 292.275864 
L 159.587714 265.261074 
L 159.892938 269.907133 
L 160.165691 252.940098 
L 160.522868 255.492968 
L 160.613786 286.628898 
L 161.061881 213.421389 
L 161.133316 291.699445 
L 161.21774 289.763459 
L 161.711294 248.661368 
L 161.860659 290.449101 
L 162.230824 272.587309 
L 162.458119 291.443464 
L 163.114026 228.865466 
L 163.568615 269.326678 
L 163.893322 242.028297 
L 164.101134 277.327422 
L 164.6921 250.069146 
L 164.958359 280.75672 
L 165.276571 239.902074 
L 165.419442 288.602297 
L 165.802596 221.713833 
L 166.088338 246.727751 
L 166.315632 252.873898 
L 166.464997 282.552323 
L 166.679303 256.285254 
L 166.802692 281.911968 
L 167.029986 286.623516 
L 167.276763 251.043158 
L 168.218412 188.261587 
L 168.53013 234.727912 
L 168.952249 238.696537 
L 169.302932 283.844593 
L 169.452297 276.222411 
L 169.906886 226.004477 
L 170.225098 235.272736 
L 170.426416 258.649927 
L 170.705664 241.420022 
L 171.121288 249.945646 
L 171.536913 231.269968 
L 172.251267 255.486397 
L 172.549997 236.71348 
L 172.764303 254.623238 
L 173.140963 236.745109 
L 173.452681 243.108916 
L 173.666987 292.125592 
L 174.264447 216.318519 
L 174.517718 288.641764 
L 174.835931 237.484848 
L 175.186614 220.683415 
L 175.660685 227.673703 
L 176.342569 259.933979 
L 176.868593 209.228622 
L 177.173817 233.705321 
L 178.031043 252.78765 
L 178.264831 253.16882 
L 178.557067 249.287523 
L 178.862291 236.468508 
L 179.037633 262.503998 
L 179.888364 225.62488 
L 180.226059 227.457227 
L 180.583236 226.665076 
L 180.817024 251.2201 
L 181.206672 242.315429 
L 181.492414 242.016351 
L 181.959991 250.405436 
L 182.180792 252.673544 
L 182.388604 257.008614 
L 182.700322 246.53686 
L 182.940605 249.203131 
L 183.31077 223.560419 
L 183.810818 217.02326 
L 184.336843 164.382965 
L 184.622585 243.548091 
L 184.91482 247.114075 
L 185.129127 256.300746 
L 185.414868 239.37823 
L 185.707104 254.753768 
L 186.018823 249.030115 
L 186.401976 217.106144 
L 186.609788 257.587615 
L 186.830589 255.879853 
L 187.200754 241.748295 
L 187.408566 254.676381 
L 187.765743 234.474502 
L 188.044991 242.545812 
L 188.226827 261.847651 
L 188.791816 240.715195 
L 189.025605 252.009924 
L 189.337323 231.931403 
L 190.162077 126.861084 
L 190.441325 248.376879 
L 190.837467 228.977363 
L 191.058267 255.464064 
L 191.259585 258.76999 
L 191.545327 251.454314 
L 191.746645 258.9165 
L 192.090834 242.484116 
L 192.279164 260.152503 
L 192.49347 256.061322 
L 192.824671 267.548349 
L 193.000012 262.589601 
L 193.16886 263.698613 
L 193.350695 261.250798 
L 193.526037 262.958695 
L 193.974132 250.802801 
L 194.28585 233.702727 
L 194.513145 252.449332 
L 195.435311 176.936353 
L 195.623641 260.841548 
L 195.935359 267.529098 
L 196.123689 259.692865 
L 196.305524 261.451889 
L 196.506842 257.860799 
L 196.760113 247.165825 
L 197.065338 250.286872 
L 197.299126 249.395191 
L 197.474468 263.814343 
L 197.727739 248.35646 
L 197.955033 250.897888 
L 198.149857 258.313942 
L 198.357669 256.43833 
L 198.571976 253.137602 
L 198.864212 235.03597 
L 199.156447 236.264688 
L 199.36426 257.460824 
L 199.565578 257.694201 
L 199.831837 244.853992 
L 201.331981 53.568 
L 201.858005 172.982264 
L 202.422995 164.809187 
L 202.663278 247.697312 
L 202.845113 261.112434 
L 203.013961 263.072494 
L 203.208785 257.806051 
L 203.410103 257.572694 
L 203.949115 161.712929 
L 204.481634 163.756739 
L 205.007659 168.534065 
L 205.533683 167.146109 
L 206.059708 175.112237 
L 206.228555 264.664747 
L 206.423379 258.694458 
L 207.001356 154.657351 
L 207.566346 151.845953 
L 207.806629 246.823063 
L 207.975476 263.977173 
L 208.196276 251.808733 
L 208.663854 191.712229 
L 208.923619 244.800968 
L 209.280796 221.185948 
L 209.793832 173.614063 
L 210.319857 169.243482 
L 210.508187 258.832273 
L 211.053694 159.992637 
L 211.268 251.877071 
L 211.514777 245.64152 
L 211.774542 247.300919 
L 212.242119 194.284492 
L 212.456426 252.104744 
L 212.956474 180.242982 
L 213.183768 249.639427 
L 213.670828 176.619042 
L 213.820193 267.56571 
L 214.06697 246.619912 
L 214.300759 249.409162 
L 214.528053 250.109616 
L 214.787818 243.103747 
L 215.132007 224.089969 
L 215.29436 263.695912 
L 215.456714 264.458899 
L 215.716479 242.304216 
L 215.898314 261.779322 
L 216.437327 166.603717 
L 216.599681 264.017452 
L 217.138693 170.02676 
L 217.671212 166.533908 
L 218.158272 189.493677 
L 218.651826 187.698326 
L 219.158368 183.824162 
L 219.638933 191.285714 
L 220.138981 183.913512 
L 220.652018 182.79114 
L 221.165054 180.228679 
L 221.67809 180.566845 
L 222.204115 170.496163 
L 222.723645 180.737613 
L 223.256164 171.003104 
L 223.801671 165.480531 
L 224.321201 169.930416 
L 224.847226 171.077843 
L 225.366756 178.582327 
L 225.905769 172.575932 
L 226.438287 169.010892 
L 226.938335 184.477502 
L 227.483842 173.764648 
L 228.035843 171.408221 
L 228.561868 178.615849 
L 229.087892 178.350451 
L 229.594435 183.593272 
L 230.100977 183.259865 
L 230.63999 174.010906 
L 231.140038 186.237853 
L 231.627097 188.779209 
L 232.127145 185.904424 
L 232.620699 188.241382 
L 233.120747 184.798471 
L 233.620795 187.114295 
L 234.133831 183.118482 
L 234.627385 187.674591 
L 235.172892 172.186469 
L 235.698917 175.928994 
L 236.224941 176.431498 
L 236.705507 190.634982 
L 237.231531 170.990373 
L 237.783532 169.84048 
L 238.303063 173.105693 
L 238.790123 187.847982 
L 239.283677 186.894908 
L 239.738266 198.03862 
L 240.231819 186.878547 
L 240.744856 177.96068 
L 241.225421 191.845453 
L 241.751446 169.829871 
L 242.238506 189.464528 
L 242.725565 189.344328 
L 243.219119 187.966196 
L 243.699685 190.939304 
L 244.738746 176.390946 
L 245.271264 176.832107 
L 245.810277 175.123526 
L 246.362278 171.337597 
L 246.914279 173.155347 
L 247.420821 183.995931 
L 247.940352 180.693696 
L 248.4404 186.925722 
L 248.979413 171.056388 
L 249.524919 173.979899 
L 250.04445 180.644356 
L 250.576969 176.902638 
L 251.135464 171.242754 
L 251.654994 169.478152 
L 252.200501 172.168508 
L 252.73302 171.4081 
L 253.278527 171.221127 
L 253.817539 171.479967 
L 254.36954 171.003976 
L 254.915047 172.447573 
L 255.45406 176.148153 
L 255.986579 177.618399 
L 256.525592 176.154161 
L 257.084087 171.479995 
L 257.642582 171.710528 
L 258.188089 174.360967 
L 258.707619 181.118717 
L 259.266114 171.254406 
L 259.805127 175.998953 
L 260.337646 178.05283 
L 260.850682 182.152976 
L 261.389695 175.814353 
L 261.928708 176.852333 
L 262.474215 174.446037 
L 263.026216 172.679207 
L 263.578217 173.654858 
L 264.130218 169.95595 
L 264.675725 174.632103 
L 265.221232 174.787154 
L 265.779727 171.384587 
L 266.338222 171.101542 
L 266.883729 174.270389 
L 267.442224 170.270789 
L 267.981237 175.281327 
L 268.533238 173.227836 
L 269.091733 170.479967 
L 269.624252 176.98485 
L 270.169759 174.45131 
L 270.728254 172.727854 
L 271.254278 179.123969 
L 271.799785 174.043078 
L 272.312822 181.530522 
L 272.858328 174.402756 
L 273.397341 176.113516 
L 273.942848 174.220577 
L 274.468873 178.954457 
L 275.01438 174.548111 
L 276.079417 178.606697 
L 276.61843 175.511817 
L 277.157442 176.073271 
L 277.657491 185.97324 
L 278.190009 175.217176 
L 278.638104 200.193857 
L 279.157635 179.84441 
L 279.670671 182.645842 
L 280.177213 184.178174 
L 280.709732 177.03094 
L 281.248744 175.354094 
L 281.794251 172.470779 
L 282.333264 177.640626 
L 282.839806 185.816403 
L 283.346348 185.676178 
L 283.859385 183.713986 
L 284.891951 182.073007 
L 285.404988 183.568309 
L 285.931012 179.581226 
L 286.470025 176.561007 
L 286.989555 181.27554 
L 287.509086 180.218348 
L 288.028616 180.363068 
L 288.535158 184.416309 
L 289.593701 176.79777 
L 290.12622 177.944862 
L 290.64575 181.205652 
L 291.171775 180.009985 
L 291.6978 179.097741 
L 292.249801 173.979277 
L 293.30185 181.319651 
L 293.814886 181.513132 
L 294.321428 183.681929 
L 294.847453 179.014557 
L 295.379971 177.996839 
L 295.893007 182.10082 
L 296.412538 181.500079 
L 296.958045 175.297031 
L 297.503552 175.084266 
L 298.023082 182.783824 
L 298.542612 181.897865 
L 299.081625 177.404506 
L 299.620638 176.75201 
L 300.12718 183.657952 
L 300.633722 185.259708 
L 301.159747 179.373899 
L 301.685771 179.408993 
L 302.21829 178.33151 
L 302.763797 176.257057 
L 303.289821 180.405735 
L 303.82234 178.293466 
L 304.315894 187.847111 
L 304.82893 182.880719 
L 305.354955 180.008541 
L 305.91345 172.685194 
L 306.413498 186.191163 
L 306.907052 187.880869 
L 307.420088 183.125469 
L 307.965595 175.3491 
L 308.49162 178.581905 
L 309.043621 173.918042 
L 309.589128 173.156155 
L 310.121646 173.773979 
L 310.673647 173.057974 
L 311.225648 172.553356 
L 311.745179 180.742214 
L 312.271203 178.857206 
L 312.803722 177.625265 
L 313.329746 180.10062 
L 313.868759 176.344278 
L 314.401278 178.035391 
L 314.920808 181.271889 
L 315.433845 182.367748 
L 315.959869 180.170708 
L 316.51187 173.616156 
L 317.070365 172.330189 
L 317.59639 179.13585 
L 318.148391 173.559936 
L 318.68091 177.618149 
L 319.213428 177.423761 
L 319.71997 183.948656 
L 320.258983 176.180925 
L 320.772019 182.107086 
L 321.317526 175.534873 
L 321.830563 182.614713 
L 322.376069 175.536001 
L 322.921576 175.343649 
L 323.454095 178.417967 
L 323.947649 188.191263 
L 324.434709 189.319801 
L 324.902286 194.46207 
L 325.434805 177.817454 
L 325.960829 180.773179 
L 326.467371 184.582341 
L 326.99989 178.583384 
L 327.525915 181.27289 
L 328.045445 182.557407 
L 328.584458 177.943083 
L 329.136459 174.233616 
L 329.668977 177.335869 
L 330.214484 173.869944 
L 330.759991 174.566301 
L 331.286016 179.443615 
L 331.831523 174.395318 
L 332.351053 181.237338 
L 332.890066 175.818668 
L 333.390114 188.760976 
L 333.90315 187.677335 
L 334.409692 188.6522 
L 334.90974 186.858042 
L 335.429271 184.247691 
L 335.942307 182.869316 
L 336.468332 178.992166 
L 336.987862 181.081716 
L 337.526875 175.875674 
L 338.046405 179.863429 
L 338.591912 174.679907 
L 339.143913 173.181003 
L 339.669938 178.943948 
L 340.189468 181.205002 
L 340.728481 175.699426 
L 341.260999 177.802357 
L 341.78053 181.115874 
L 342.293566 182.669312 
L 343.378086 173.67607 
L 343.897616 180.120911 
L 344.436629 175.873724 
L 344.943171 184.867816 
L 345.482184 176.134064 
L 346.021197 176.761233 
L 346.540727 182.62513 
L 347.073246 178.981778 
L 347.625247 173.920071 
L 348.157765 177.125219 
L 348.68379 179.032626 
L 349.216309 177.423618 
L 349.76831 172.841173 
L 350.313817 170.006905 
L 350.813865 186.531022 
L 351.313913 185.965389 
L 351.833443 181.769128 
L 352.359468 179.904496 
L 352.872504 182.657302 
L 353.405022 178.353501 
L 353.924553 181.63366 
L 354.450577 179.320658 
L 354.937637 189.774429 
L 355.463662 179.580641 
L 355.950721 189.32238 
L 356.509217 172.49522 
L 357.041735 177.635253 
L 357.587242 176.151089 
L 358.119761 179.217076 
L 358.645785 179.541417 
L 359.197786 174.488697 
L 359.736799 176.957372 
L 360.249835 184.243933 
L 360.762872 183.194685 
L 361.26292 186.406121 
L 361.762968 186.537473 
L 362.282498 181.829049 
L 362.834499 174.058582 
L 363.367018 177.383708 
L 363.925513 170.80768 
L 364.484008 171.123276 
L 364.997044 182.500029 
L 366.153 154.190327 
L 366.756954 155.968646 
L 367.386884 146.828663 
L 368.049286 132.515667 
L 368.555828 183.894579 
L 369.09484 176.393496 
L 369.633853 176.740071 
L 370.166372 177.710857 
L 370.718373 173.958394 
L 371.231409 182.653594 
L 371.757434 179.858806 
L 372.289952 177.814174 
L 372.815977 179.822933 
L 373.361484 175.936139 
L 373.868026 184.640319 
L 374.407039 176.415687 
L 374.965534 171.31845 
L 375.524029 170.693589 
L 376.069536 173.439264 
L 376.602055 177.870959 
L 377.154056 174.173387 
L 377.673586 181.032183 
L 378.225587 174.66784 
L 378.771094 174.633875 
L 379.310107 167.163635 
L 379.836131 178.879411 
L 380.355662 181.198293 
L 380.875192 180.841709 
L 381.401217 179.836851 
L 381.966206 170.455661 
L 382.524701 172.481417 
L 383.050726 180.083059 
L 383.570256 180.901623 
L 384.109269 176.170673 
L 385.213271 170.363225 
L 385.739296 178.951549 
L 386.245838 183.654815 
L 387.330357 173.004819 
L 387.86937 175.8333 
L 388.388901 181.059818 
L 388.940902 173.715187 
L 389.499397 171.369126 
L 390.051398 171.329696 
L 390.564434 182.953279 
L 391.07747 182.471029 
L 391.609989 178.270603 
L 392.129519 181.516818 
L 392.675026 175.728718 
L 393.214039 176.08711 
L 393.772534 173.126026 
L 394.311547 175.90436 
L 394.421947 274.262335 
L 394.421947 274.262335 
" clip-path="url(#p142cf75b92)" style="fill: none; stroke: #1f77b4; stroke-width: 1.5; stroke-linecap: square"/>
   </g>
   <g id="line2d_16">
    <path d="M 138.722074 267.856272 
L 203.663374 265.25651 
L 268.604673 173.541392 
L 333.545973 172.568759 
L 398.487273 164.883901 
" clip-path="url(#p142cf75b92)" style="fill: none; stroke: #ff7f0e; stroke-width: 1.5; stroke-linecap: square"/>
   </g>
   <g id="line2d_17">
    <path d="M 73.85221 290.227448 
L 74.014563 290.767471 
L 74.105481 290.606033 
L 74.196399 288.222856 
L 74.293811 288.788484 
L 74.508117 292.233411 
L 74.728917 289.35061 
L 74.9692 283.544254 
L 75.105577 288.782747 
L 75.254942 286.24831 
L 75.332871 291.181722 
L 75.495225 283.4184 
L 75.664072 281.409236 
L 75.742001 289.81461 
L 76.047226 273.097395 
L 76.125155 289.779413 
L 76.313485 271.826571 
L 76.488826 292.693234 
L 76.68365 283.20337 
L 76.858992 290.202937 
L 76.988874 286.411889 
L 77.216169 274.480801 
L 77.28111 291.260178 
L 77.352546 290.988646 
L 77.488922 287.905186 
L 77.566852 290.78735 
L 77.755182 278.026886 
L 77.8461 290.893815 
L 78.027935 279.932004 
L 78.248736 289.563935 
L 78.391607 282.384669 
L 78.716313 290.539296 
L 78.813725 290.12039 
L 78.898149 290.52106 
L 79.054008 283.721481 
L 79.144926 289.417001 
L 79.313773 289.783877 
L 79.541068 283.648896 
L 79.625491 290.347586 
L 79.85928 273.170251 
L 79.930715 290.482809 
L 80.099563 286.591295 
L 80.248928 291.120143 
L 80.45674 281.366548 
L 80.619093 287.888297 
L 80.885352 254.755249 
L 80.963282 289.345911 
L 81.203565 277.865471 
L 81.35293 284.070933 
L 81.443848 292.504844 
L 81.65166 283.619253 
L 81.775048 284.319026 
L 81.904931 288.35064 
L 82.06079 282.569943 
L 82.119237 292.90478 
L 82.184178 292.866627 
L 82.28159 289.739533 
L 82.346532 291.055406 
L 82.450438 288.790725 
L 82.495897 293.684399 
L 82.684226 271.090216 
L 82.943992 291.908971 
L 83.06738 284.603555 
L 83.151804 289.548922 
L 83.729781 276.855504 
L 83.801217 290.451993 
L 83.88564 289.018562 
L 84.0415 289.433375 
L 84.229829 276.352904 
L 84.4831 279.218063 
L 84.554536 291.3308 
L 84.632465 290.527746 
L 84.944184 261.260709 
L 85.015619 291.378855 
L 85.15849 288.175985 
L 85.431243 274.967336 
L 85.509173 291.319906 
L 85.665032 284.079808 
L 85.853362 289.942046 
L 86.009221 288.865263 
L 86.249504 279.57065 
L 86.346916 289.78134 
L 86.476798 283.698051 
L 86.639152 291.97693 
L 86.788517 292.595031 
L 87.035294 289.034616 
L 87.236612 274.953053 
L 87.340518 290.444049 
L 87.457412 284.221352 
L 87.645742 288.801712 
L 87.827577 272.786716 
L 88.080848 275.374331 
L 88.204237 289.453378 
L 88.314637 285.559865 
L 88.425037 286.874009 
L 88.691297 277.541269 
L 88.834168 287.857518 
L 88.983532 276.168738 
L 89.093933 287.511913 
L 89.574498 222.826835 
L 89.678404 287.949343 
L 89.905699 272.218982 
L 89.97064 291.74328 
L 90.249888 278.664244 
L 90.353794 288.630255 
L 90.477182 283.776847 
L 90.613559 285.517303 
L 90.691489 289.357694 
L 91.16556 239.807631 
L 91.470784 291.052702 
L 91.555208 288.240279 
L 91.659114 289.541825 
L 91.834456 285.966015 
L 91.990315 292.355076 
L 92.152668 282.537573 
L 92.373468 289.501402 
L 92.535822 279.14048 
L 92.633234 287.988603 
L 93.022881 290.010376 
L 93.133282 289.414647 
L 93.315117 278.033237 
L 93.406035 289.631293 
L 93.678788 285.690624 
L 93.782695 289.758051 
L 93.886601 288.263125 
L 93.958036 290.920582 
L 94.087919 286.528169 
L 94.159354 291.486078 
L 94.393143 289.128923 
L 94.536014 287.092741 
L 94.652908 287.109086 
L 94.841238 288.387301 
L 95.010085 281.407988 
L 95.113991 288.519757 
L 95.341286 287.178437 
L 95.588063 290.382988 
L 95.672486 289.266873 
L 95.912769 281.58895 
L 96.062134 289.112665 
L 96.205005 287.570199 
L 96.302417 291.317816 
L 96.393335 288.806861 
L 96.562182 291.930628 
L 96.776488 283.365426 
L 96.938842 283.884705 
L 97.114183 287.751633 
L 97.263548 280.224825 
L 97.451878 290.205211 
L 97.542796 290.54162 
L 97.692161 282.600294 
L 97.835032 291.318859 
L 98.205197 233.182998 
L 98.315597 285.080777 
L 98.568868 250.459642 
L 98.672774 286.638734 
L 99.023457 275.422952 
L 99.094893 292.147308 
L 99.172822 290.728206 
L 99.244258 291.031579 
L 99.380635 280.648617 
L 99.757294 290.00215 
L 99.848212 288.743417 
L 99.900165 293.242074 
L 100.082001 270.358354 
L 100.166424 290.452286 
L 100.380731 277.699904 
L 100.465154 293.656269 
L 100.692449 267.27958 
L 100.770378 290.150489 
L 100.939226 274.965366 
L 101.075602 282.387227 
L 101.224967 277.797222 
L 101.439274 275.464774 
L 101.614615 292.884582 
L 101.913345 264.959872 
L 102.082193 289.13898 
L 102.192593 290.503108 
L 102.302993 287.722326 
L 102.517299 278.040998 
L 102.6277 288.072175 
L 102.757582 284.778385 
L 103.127748 241.306463 
L 103.432972 290.831077 
L 103.725208 284.125804 
L 103.907043 288.989937 
L 103.997961 288.483864 
L 104.186291 273.533221 
L 104.348644 291.342024 
L 104.478527 288.571302 
L 104.549962 290.62403 
L 104.67335 285.267144 
L 104.770762 289.712922 
L 104.913633 285.689919 
L 105.101963 289.622428 
L 105.192881 288.307445 
L 105.283799 290.379794 
L 105.446152 277.210028 
L 105.686435 289.464486 
L 105.783847 289.846555 
L 105.9462 282.681419 
L 106.017635 291.79557 
L 106.212459 267.552821 
L 106.478719 288.805531 
L 106.569636 288.588996 
L 106.65406 288.659597 
L 106.757966 289.403673 
L 106.887849 280.526366 
L 107.082673 291.671503 
L 107.167096 291.039199 
L 107.43985 285.750899 
L 107.667144 269.362405 
L 107.777545 288.422076 
L 108.06978 250.433478 
L 108.199663 288.584547 
L 108.290581 286.912317 
L 108.589311 264.879598 
L 108.654252 291.716762 
L 108.829594 271.862087 
L 108.888041 292.749698 
L 109.245218 264.126766 
L 109.440042 291.453168 
L 109.582913 289.884993 
L 109.673831 290.298056 
L 109.790725 281.453144 
L 109.933596 283.08483 
L 110.005031 290.915707 
L 110.108937 290.101689 
L 110.323244 269.170508 
L 110.602491 283.45902 
L 110.719386 287.213104 
L 110.979151 276.95214 
L 111.070069 290.123597 
L 111.154492 289.795837 
L 111.310351 287.452514 
L 111.628564 243.689206 
L 111.719482 290.374916 
L 111.810399 288.985438 
L 111.914305 285.522628 
L 111.992235 289.21295 
L 112.21953 262.459473 
L 112.3624 280.974892 
L 112.537742 274.94469 
L 112.771531 289.202347 
L 112.992331 266.65963 
L 113.141696 285.612325 
L 113.278073 286.065384 
L 113.381979 285.723869 
L 113.479391 287.323995 
L 113.628756 282.828517 
L 113.804097 281.704231 
L 113.895015 292.481877 
L 114.018404 289.291551 
L 114.200239 279.404191 
L 114.323628 292.254643 
L 114.505463 281.726041 
L 114.576899 290.864955 
L 115.063958 257.111683 
L 115.148382 288.730631 
L 115.362688 262.531798 
L 115.64843 289.9413 
L 115.765324 291.383159 
L 116.031584 271.676175 
L 116.193937 291.222202 
L 116.427726 288.23153 
L 116.551114 284.733076 
L 116.609561 292.29409 
L 116.765421 285.812198 
L 116.869327 289.147483 
L 116.979727 286.419736 
L 117.077139 290.887267 
L 117.278457 273.712892 
L 117.856434 289.798996 
L 118.031776 285.70327 
L 118.213611 290.686472 
L 118.486365 284.322686 
L 118.843542 255.709225 
L 118.992907 286.307161 
L 119.161754 278.569704 
L 119.34359 291.078836 
L 119.45399 288.240225 
L 119.525426 290.274537 
L 119.616344 286.616158 
L 119.72025 287.955008 
L 119.967027 260.327356 
L 120.220298 289.269636 
L 120.570981 230.427037 
L 120.733334 288.706546 
L 120.967123 289.795783 
L 121.064535 289.701012 
L 121.252864 285.708618 
L 121.408723 289.337097 
L 121.486653 289.673607 
L 121.752912 280.764995 
L 121.856818 286.900579 
L 122.038654 280.919411 
L 122.304913 278.094556 
L 122.655596 290.139863 
L 122.720538 291.951338 
L 123.11668 229.645417 
L 123.207597 290.021838 
L 123.441386 280.175729 
L 123.512822 291.91786 
L 123.610233 286.351946 
L 123.668681 291.560461 
L 123.753104 291.162747 
L 123.818046 291.207597 
L 123.973905 287.311505 
L 124.04534 290.328087 
L 124.318094 270.886483 
L 124.467459 289.424344 
L 124.577859 286.04272 
L 124.688259 290.751426 
L 124.986989 282.496274 
L 125.168825 291.710753 
L 125.266237 288.268477 
L 125.376637 290.623201 
L 125.474049 289.815516 
L 125.681861 277.886423 
L 125.811744 290.17536 
L 125.928638 282.462514 
L 126.032544 284.780434 
L 126.116968 291.906741 
L 126.363745 277.277028 
L 126.565063 288.86365 
L 126.630004 292.378618 
L 126.727416 287.493596 
L 127.026146 242.180262 
L 127.279417 288.249891 
L 127.363841 289.331828 
L 127.558665 288.358908 
L 127.649582 290.39699 
L 127.772971 284.636961 
L 127.987277 289.267897 
L 128.084689 287.52532 
L 128.234054 281.708292 
L 128.480831 292.872963 
L 128.584737 286.438951 
L 128.682149 291.066536 
L 128.928926 262.559578 
L 129.04582 285.338651 
L 129.195185 285.504875 
L 129.513398 251.614855 
L 129.604315 286.763435 
L 129.779657 286.17695 
L 129.877069 290.432655 
L 129.954998 289.785424 
L 130.078387 291.893523 
L 130.266717 279.589809 
L 130.422576 277.767373 
L 130.507 291.990939 
L 130.630388 286.079766 
L 130.805729 291.98581 
L 131.02653 279.189931 
L 131.162907 287.805619 
L 131.292789 282.156467 
L 131.370719 289.996712 
L 131.487613 283.955064 
L 131.662955 291.302119 
L 131.786343 285.767702 
L 131.870767 289.630302 
L 132.208462 258.298859 
L 132.33185 288.203944 
L 132.721498 249.5253 
L 132.779945 292.082492 
L 133.013734 282.622691 
L 133.176087 289.023163 
L 133.403381 270.136149 
L 133.468323 292.848836 
L 133.539758 291.550285 
L 133.598205 293.475687 
L 133.708606 289.171233 
L 133.786535 290.79659 
L 133.883947 286.635777 
L 133.974865 290.622649 
L 134.085265 282.960107 
L 134.23463 280.322749 
L 134.325548 289.430343 
L 134.403478 289.319531 
L 134.507384 286.071139 
L 134.64376 288.032172 
L 134.923008 255.001805 
L 135.111338 284.430434 
L 135.293173 287.870688 
L 135.585409 252.004949 
L 135.676327 291.249675 
L 135.845174 290.077702 
L 136.007528 283.114767 
L 136.085457 288.653983 
L 136.286775 279.797465 
L 136.475105 281.512148 
L 136.689411 293.092457 
L 136.955671 279.188445 
L 137.053083 288.064418 
L 137.189459 281.415955 
L 137.338824 292.083562 
L 137.507672 284.832542 
L 137.70899 289.722914 
L 137.806402 289.441082 
L 137.890825 289.819674 
L 138.033696 289.634409 
L 138.176567 288.542406 
L 138.345414 290.027474 
L 138.442826 287.572114 
L 138.514262 291.391135 
L 138.592191 289.651766 
L 138.676615 289.317566 
L 138.800003 288.224508 
L 138.962357 278.57172 
L 139.20264 288.215018 
L 139.364993 282.271929 
L 139.468899 287.450652 
L 139.787111 288.582942 
L 139.891017 288.329518 
L 139.949464 292.232632 
L 140.040382 288.887935 
L 140.124806 291.705296 
L 140.222218 286.299627 
L 140.436524 291.566323 
L 140.579395 287.508577 
L 140.709278 288.111162 
L 140.858643 290.783657 
L 140.943066 289.672272 
L 141.040478 292.298832 
L 141.13789 290.724145 
L 141.202832 292.33086 
L 141.410644 284.127387 
L 141.598974 291.712664 
L 141.891209 264.098192 
L 142.170457 288.334629 
L 142.267869 287.040378 
L 142.391257 282.441061 
L 142.495163 290.057072 
L 142.579587 288.694822 
L 142.644528 291.468738 
L 142.871823 270.573394 
L 142.982223 291.235885 
L 143.073141 287.705656 
L 143.391353 283.757409 
L 143.462789 290.454395 
L 143.742036 270.36996 
L 143.949849 276.828167 
L 144.164155 290.437098 
L 144.333002 285.889094 
L 144.443402 290.562889 
L 144.566791 285.391464 
L 144.80058 264.436802 
L 145.125286 256.132052 
L 145.346087 268.857397 
L 145.488957 291.774411 
L 145.553899 291.50682 
L 145.657805 286.517905 
L 145.787687 291.852913 
L 145.891593 289.918045 
L 146.13837 272.590264 
L 146.242276 288.277166 
L 146.352677 286.51222 
L 146.456583 290.289466 
L 146.638418 271.030464 
L 146.716348 291.639836 
L 146.989101 285.460832 
L 147.144961 290.330072 
L 147.33329 287.481627 
L 147.619032 275.638504 
L 147.703456 292.862551 
L 147.852821 283.1299 
L 147.976209 283.867533 
L 148.352869 269.457836 
L 148.521716 280.304454 
L 148.807458 262.321556 
L 148.885387 290.400673 
L 148.976305 288.294591 
L 149.190611 267.567082 
L 149.411412 287.910159 
L 149.580259 274.831759 
L 149.677671 288.659894 
L 149.885483 283.180619 
L 150.002378 289.43255 
L 150.203696 278.530904 
L 150.275131 291.379914 
L 150.418002 279.104589 
L 150.554379 287.888582 
L 150.710238 285.74986 
L 151.073909 271.882204 
L 151.262239 290.033863 
L 151.346663 288.392453 
L 151.489533 281.084932 
L 151.807746 245.530294 
L 151.963605 281.303831 
L 152.132452 273.972899 
L 152.184405 292.437747 
L 152.5221 275.766334 
L 152.671465 276.611367 
L 152.892266 284.106583 
L 153.080595 284.16589 
L 153.372831 241.077098 
L 153.665067 292.757638 
L 153.82742 277.968231 
L 153.996268 285.413446 
L 154.132644 282.182039 
L 154.275515 283.152975 
L 154.359939 288.349266 
L 154.489821 283.955195 
L 154.580739 287.716803 
L 154.749587 276.746768 
L 155.054811 280.8279 
L 155.230152 289.655499 
L 155.405494 286.009508 
L 155.639283 284.761095 
L 155.821118 271.606219 
L 155.938012 287.591683 
L 156.119848 279.895255 
L 156.334154 281.562406 
L 156.503002 278.29095 
L 156.613402 289.002267 
L 156.89265 245.651716 
L 157.210862 261.223229 
L 157.314768 285.909344 
L 157.542063 287.184192 
L 157.652463 291.529159 
L 157.736886 290.681362 
L 158.243429 218.363919 
L 158.431758 291.983116 
L 158.646065 279.099063 
L 158.944795 242.111217 
L 159.022724 289.996003 
L 159.418866 230.615507 
L 159.555243 281.699372 
L 159.944891 248.851848 
L 160.392986 237.503198 
L 160.821598 246.425262 
L 160.957975 282.370673 
L 161.412564 223.878311 
L 161.639859 283.010233 
L 162.023012 272.742722 
L 162.269789 289.125504 
L 162.685414 223.269968 
L 163.191956 229.59901 
L 163.510168 241.254425 
L 164.003722 205.693739 
L 164.373887 280.803265 
L 164.672617 246.610334 
L 164.893418 286.787778 
L 165.159677 288.379051 
L 165.497372 268.860451 
L 165.88702 222.087697 
L 166.036385 284.618658 
L 166.549421 217.277445 
L 167.120904 286.90236 
L 167.406646 284.63298 
L 167.659917 284.099382 
L 167.965141 238.134461 
L 168.205424 281.20239 
L 168.556107 232.546326 
L 168.737943 263.719078 
L 169.023684 246.367713 
L 169.439309 236.629235 
L 169.660109 255.24367 
L 170.017286 244.393083 
L 170.439405 214.68304 
L 170.530323 289.710149 
L 170.861523 233.768514 
L 171.121288 251.843709 
L 171.394042 286.495271 
L 171.764207 242.180007 
L 172.056443 246.784854 
L 172.368161 237.733453 
L 172.907174 212.744887 
L 173.173433 249.258559 
L 173.446187 245.802858 
L 173.666987 257.28603 
L 174.244965 198.633118 
L 174.732025 225.541444 
L 174.907366 263.986818 
L 175.647697 200.190828 
L 176.173721 220.398113 
L 176.433487 249.185913 
L 176.78417 242.558744 
L 176.940029 275.787715 
L 177.310194 239.722975 
L 177.751795 226.891708 
L 178.037537 244.714166 
L 178.355749 241.915356 
L 178.647985 241.030215 
L 178.881774 259.335366 
L 179.277916 216.048537 
L 179.446763 289.366459 
L 179.680552 254.066506 
L 180.011752 244.460713 
L 180.518294 220.695604 
L 180.739095 256.508963 
L 181.083284 251.851591 
L 181.414484 240.538796 
L 181.752179 232.806602 
L 182.063897 241.951633 
L 182.434063 235.508093 
L 182.895146 224.537353 
L 183.265311 222.816654 
L 183.628983 225.673085 
L 184.362819 259.366831 
L 184.921315 199.930566 
L 185.220045 252.727729 
L 185.460327 252.680227 
L 185.629175 265.47537 
L 185.856469 254.127273 
L 186.473412 204.994496 
L 187.213742 241.305727 
L 187.408566 261.75461 
L 187.811202 212.734044 
L 188.019015 259.05338 
L 188.564521 227.861393 
L 188.79831 253.772923 
L 189.051581 251.653566 
L 189.830877 186.853155 
L 190.395866 260.74448 
L 191.084244 222.197937 
L 191.369986 242.133908 
L 191.89601 216.443595 
L 192.220717 238.691064 
L 192.49347 246.941191 
L 192.707776 258.583287 
L 192.974036 246.181948 
L 193.259777 249.890329 
L 193.526037 251.237511 
L 193.818273 243.599167 
L 194.006602 261.617676 
L 194.201426 261.652019 
L 194.461191 249.661718 
L 194.675498 260.442739 
L 194.909286 259.477903 
L 195.279452 245.598024 
L 195.630135 245.57826 
L 196.052253 260.088683 
L 196.422419 262.817281 
L 196.760113 251.491106 
L 196.987408 255.75384 
L 197.299126 245.02575 
L 197.721245 260.605036 
L 197.916069 260.134608 
L 198.136869 257.39289 
L 198.630423 216.09797 
L 198.831741 259.799098 
L 199.06553 252.485637 
L 199.299318 253.603953 
L 199.526613 255.537256 
L 200.091602 174.144802 
L 200.650097 162.290551 
L 201.208593 173.681722 
L 201.78657 165.548783 
L 202.351559 168.906181 
L 202.890572 170.156455 
L 203.449067 164.716787 
L 204.014057 166.213047 
L 204.358246 225.949728 
L 204.923235 159.319264 
L 205.644083 151.290465 
L 205.851895 259.096316 
L 206.364932 180.631896 
L 206.962392 147.553141 
L 207.566346 144.747587 
L 208.131335 158.080658 
L 208.475524 228.311907 
L 209.034019 160.121053 
L 209.306773 244.709944 
L 209.521079 257.203693 
L 210.066586 187.692053 
L 210.235433 264.515314 
L 210.397786 266.125692 
L 210.59261 259.701385 
L 211.183576 151.002604 
L 211.657648 202.715173 
L 212.125225 201.971826 
L 212.404473 242.796743 
L 212.670732 252.632261 
L 212.969462 237.67525 
L 213.333133 227.186098 
L 213.592898 247.09577 
L 213.917605 234.717419 
L 214.209841 240.820341 
L 214.521559 236.239314 
L 215.047583 179.882705 
L 215.508667 202.797992 
L 215.982738 198.667304 
L 216.19055 258.30697 
L 216.697092 190.742615 
L 217.190646 193.33414 
L 217.749142 164.703762 
L 218.327119 164.350665 
L 218.853144 184.992802 
L 219.411639 166.745887 
L 219.96364 174.786196 
L 220.457194 194.55202 
L 221.48976 183.495342 
L 222.041761 167.256343 
L 222.561292 185.555635 
L 223.080822 183.94189 
L 223.6588 160.706063 
L 224.223789 164.53738 
L 224.801767 166.998046 
L 225.288826 196.200537 
L 225.808357 186.443458 
L 226.295417 196.40022 
L 226.782476 196.19415 
L 227.263042 197.235159 
L 227.756596 194.342728 
L 228.224173 203.279313 
L 228.776174 176.863629 
L 229.269728 194.06334 
L 229.802247 182.074807 
L 230.276318 199.920878 
L 231.328367 178.514618 
L 231.854392 185.573032 
L 232.399899 181.126205 
L 232.945406 178.979063 
L 233.503901 175.523177 
L 234.023431 184.246526 
L 234.536468 188.242604 
L 235.556046 190.984707 
L 236.075576 183.114388 
L 236.601601 180.481046 
L 237.017225 215.583871 
L 237.225037 256.649241 
L 237.614685 219.726161 
L 238.504381 205.459162 
L 238.971958 204.163921 
L 239.569418 164.047415 
L 240.127913 164.39839 
L 240.705891 162.678085 
L 241.790411 184.11911 
L 242.368388 169.866894 
L 242.939872 170.701876 
L 243.504861 173.833807 
L 244.089333 169.085145 
L 244.660816 170.99223 
L 245.2323 171.679007 
L 245.797289 173.21399 
L 246.381761 170.033254 
L 246.953244 172.808666 
L 247.531222 170.279777 
L 248.089717 174.229565 
L 248.6612 172.051552 
L 249.843132 164.173109 
L 250.388639 178.078737 
L 250.550992 265.522204 
L 250.771792 253.277125 
L 250.960122 260.668759 
L 251.135464 263.142713 
L 251.739418 164.605189 
L 252.349866 160.245254 
L 252.908361 177.208081 
L 253.447374 182.340263 
L 254.012363 174.30514 
L 254.551376 181.750981 
L 255.135848 168.048415 
L 255.687849 176.829063 
L 256.233356 181.040642 
L 256.791851 174.675256 
L 257.343852 176.971568 
L 257.882865 182.156019 
L 258.447854 176.518533 
L 258.986867 181.159263 
L 259.55835 171.631753 
L 260.116845 170.641262 
L 260.688329 170.427333 
L 261.266306 168.953528 
L 261.818308 175.955157 
L 262.383297 172.698561 
L 262.857368 198.808445 
L 263.389887 182.010185 
L 263.96137 167.786253 
L 264.454924 193.164764 
L 264.928996 198.12394 
L 265.409561 196.4085 
L 265.890127 196.889106 
L 266.390175 191.062862 
L 267.344812 200.136272 
L 267.831872 195.036455 
L 268.318932 195.033412 
L 268.656626 229.572075 
L 269.137192 197.229158 
L 269.611263 199.04883 
L 270.15677 178.975927 
L 270.695783 182.826341 
L 271.299737 163.060175 
L 271.890703 160.538338 
L 272.501151 160.504208 
L 272.695975 258.276134 
L 272.903787 255.814135 
L 273.507741 165.888942 
L 274.098707 167.288586 
L 274.702661 166.536487 
L 275.930052 163.572124 
L 276.546994 163.51286 
L 277.170431 160.734784 
L 277.787373 163.3468 
L 278.391327 163.268467 
L 279.021258 160.279919 
L 279.644694 160.225207 
L 280.268131 160.744886 
L 280.885073 163.20956 
L 281.502015 162.685722 
L 282.131946 159.78346 
L 282.644982 189.299203 
L 283.14503 194.664761 
L 283.651572 190.140487 
L 283.93082 241.449704 
L 284.547762 152.266309 
L 285.171199 150.098105 
L 286.392095 166.422096 
L 286.996049 166.960837 
L 287.600003 166.634775 
L 288.229934 162.196978 
L 288.853371 161.975226 
L 289.450831 168.678599 
L 290.093749 159.3194 
L 290.730174 160.573717 
L 291.366599 159.85299 
L 291.951071 173.751674 
L 292.587495 159.35463 
L 293.230414 157.095319 
L 293.879827 157.627344 
L 294.535734 157.780816 
L 295.191641 155.46487 
L 295.808584 164.380493 
L 296.412538 162.326216 
L 297.016492 164.81741 
L 297.600964 169.893829 
L 298.191929 167.550276 
L 298.769907 164.610769 
L 299.386849 162.842359 
L 299.977815 167.711321 
L 300.594758 162.83938 
L 301.198712 163.283685 
L 301.802666 166.126355 
L 302.419608 162.812895 
L 303.017068 166.728568 
L 303.60154 167.535108 
L 304.224976 161.718287 
L 304.82893 164.836479 
L 305.413402 162.816917 
L 306.036838 161.862121 
L 306.627804 165.82687 
L 307.231758 161.420888 
L 307.848701 163.842481 
L 308.160419 233.87181 
L 308.563055 215.022331 
L 308.952703 219.306827 
L 309.556657 167.393025 
L 309.959293 215.169916 
L 310.3944 210.163629 
L 310.842495 206.827171 
L 311.251625 214.191417 
L 311.881555 162.297288 
L 312.466027 169.929787 
L 313.037511 173.930209 
L 313.6025 173.737478 
L 314.173983 171.723403 
L 314.732479 176.429755 
L 315.31695 170.634339 
L 315.907916 168.755846 
L 316.492388 170.626394 
L 317.063871 167.549683 
L 317.648343 169.155326 
L 318.265285 163.521026 
L 318.830275 166.428833 
L 319.447217 158.50503 
L 320.070653 161.532279 
L 321.349997 157.064061 
L 321.973433 161.700633 
L 322.616352 157.32543 
L 323.252777 159.440664 
L 323.863225 165.511503 
L 324.486662 161.217419 
L 325.09711 163.74758 
L 325.720546 160.119603 
L 326.324501 163.906903 
L 326.934949 164.587213 
L 327.538903 165.591743 
L 328.155845 163.954857 
L 328.766293 163.787289 
L 329.370247 165.394146 
L 329.967707 168.230929 
L 330.565167 168.703977 
L 331.149639 170.20786 
L 331.721123 169.026889 
L 332.286112 170.571588 
L 332.857595 170.203623 
L 333.409596 171.945141 
L 333.98108 169.402884 
L 334.552563 171.06389 
L 335.130541 170.765498 
L 335.734495 160.785874 
L 336.29299 168.339705 
L 336.870968 166.889849 
L 337.455439 168.918499 
L 338.039911 160.032447 
L 338.617889 164.978863 
L 339.189372 167.377393 
L 339.786832 162.813417 
L 340.390786 165.026853 
L 341.007728 163.006298 
L 341.585706 165.320929 
L 342.157189 168.434392 
L 342.741661 164.048544 
L 343.326133 165.979877 
L 343.897616 166.659459 
L 344.462606 167.130513 
L 345.047077 164.863729 
L 345.612067 167.107336 
L 346.190044 159.801428 
L 346.761528 167.155933 
L 347.397952 134.806236 
L 347.995412 161.903066 
L 348.599366 159.657873 
L 349.190332 162.858299 
L 349.794286 150.482138 
L 350.404734 157.600602 
L 351.008689 158.000468 
L 352.19062 164.313942 
L 352.801068 153.067927 
L 353.379046 168.399176 
L 354.515519 171.951478 
L 355.087002 164.161727 
L 355.651991 171.421817 
L 356.223475 165.217055 
L 356.820935 153.331339 
L 357.405407 165.947077 
L 358.061314 128.858084 
L 358.79515 98.223648 
L 359.522493 96.483624 
L 360.165412 136.458804 
L 360.814825 135.851175 
L 361.438261 145.826655 
L 362.061698 143.739185 
L 363.328053 137.746 
L 364.587914 138.118974 
L 365.302269 106.020393 
L 366.003635 112.058338 
L 366.698507 120.592035 
L 367.419355 101.09804 
L 368.068768 129.544188 
L 368.737663 119.621871 
L 369.406559 123.080436 
L 370.06896 127.797955 
L 370.731361 114.194856 
L 371.367786 140.298531 
L 371.945764 172.157112 
L 372.517247 168.969718 
L 373.082236 173.567687 
L 373.640731 176.231701 
L 374.212215 171.503451 
L 374.777204 170.078229 
L 375.361676 170.226028 
L 375.926665 171.412322 
L 376.498149 167.341613 
L 377.063138 168.801821 
L 377.634621 170.979885 
L 378.238575 158.660538 
L 378.946436 110.739098 
L 379.667284 104.214489 
L 380.232273 170.014035 
L 380.790769 173.437935 
L 381.34277 169.787761 
L 381.901265 170.912083 
L 382.479242 167.276747 
L 383.024749 174.098141 
L 383.609221 168.579219 
L 384.154728 172.038613 
L 384.713223 166.945055 
L 385.271718 173.422782 
L 385.830213 173.489348 
L 386.382214 175.134578 
L 386.947204 171.424468 
L 387.512193 172.040006 
L 388.064194 171.932895 
L 388.629183 168.882262 
L 389.863068 156.449109 
L 390.681329 65.133548 
L 391.493095 63.276181 
L 391.493095 63.276181 
" clip-path="url(#p142cf75b92)" style="fill: none; stroke: #2ca02c; stroke-width: 1.5; stroke-linecap: square"/>
   </g>
   <g id="patch_3">
    <path d="M 57.6 307.584 
L 57.6 41.472 
" style="fill: none; stroke: #000000; stroke-width: 0.8; stroke-linejoin: miter; stroke-linecap: square"/>
   </g>
   <g id="patch_4">
    <path d="M 414.72 307.584 
L 414.72 41.472 
" style="fill: none; stroke: #000000; stroke-width: 0.8; stroke-linejoin: miter; stroke-linecap: square"/>
   </g>
   <g id="patch_5">
    <path d="M 57.6 307.584 
L 414.72 307.584 
" style="fill: none; stroke: #000000; stroke-width: 0.8; stroke-linejoin: miter; stroke-linecap: square"/>
   </g>
   <g id="patch_6">
    <path d="M 57.6 41.472 
L 414.72 41.472 
" style="fill: none; stroke: #000000; stroke-width: 0.8; stroke-linejoin: miter; stroke-linecap: square"/>
   </g>
   <g id="text_17">
    <!-- learning curve -->
    <g transform="translate(192.96375 35.472) scale(0.12 -0.12)">
     <defs>
      <path id="DejaVuSans-6c" d="M 603 4863 
L 1178 4863 
L 1178 0 
L 603 0 
L 603 4863 
z
" transform="scale(0.015625)"/>
      <path id="DejaVuSans-67" d="M 2906 1791 
Q 2906 2416 2648 2759 
Q 2391 3103 1925 3103 
Q 1463 3103 1205 2759 
Q 947 2416 947 1791 
Q 947 1169 1205 825 
Q 1463 481 1925 481 
Q 2391 481 2648 825 
Q 2906 1169 2906 1791 
z
M 3481 434 
Q 3481 -459 3084 -895 
Q 2688 -1331 1869 -1331 
Q 1566 -1331 1297 -1286 
Q 1028 -1241 775 -1147 
L 775 -588 
Q 1028 -725 1275 -790 
Q 1522 -856 1778 -856 
Q 2344 -856 2625 -561 
Q 2906 -266 2906 331 
L 2906 616 
Q 2728 306 2450 153 
Q 2172 0 1784 0 
Q 1141 0 747 490 
Q 353 981 353 1791 
Q 353 2603 747 3093 
Q 1141 3584 1784 3584 
Q 2172 3584 2450 3431 
Q 2728 3278 2906 2969 
L 2906 3500 
L 3481 3500 
L 3481 434 
z
" transform="scale(0.015625)"/>
      <path id="DejaVuSans-63" d="M 3122 3366 
L 3122 2828 
Q 2878 2963 2633 3030 
Q 2388 3097 2138 3097 
Q 1578 3097 1268 2742 
Q 959 2388 959 1747 
Q 959 1106 1268 751 
Q 1578 397 2138 397 
Q 2388 397 2633 464 
Q 2878 531 3122 666 
L 3122 134 
Q 2881 22 2623 -34 
Q 2366 -91 2075 -91 
Q 1284 -91 818 406 
Q 353 903 353 1747 
Q 353 2603 823 3093 
Q 1294 3584 2113 3584 
Q 2378 3584 2631 3529 
Q 2884 3475 3122 3366 
z
" transform="scale(0.015625)"/>
      <path id="DejaVuSans-75" d="M 544 1381 
L 544 3500 
L 1119 3500 
L 1119 1403 
Q 1119 906 1312 657 
Q 1506 409 1894 409 
Q 2359 409 2629 706 
Q 2900 1003 2900 1516 
L 2900 3500 
L 3475 3500 
L 3475 0 
L 2900 0 
L 2900 538 
Q 2691 219 2414 64 
Q 2138 -91 1772 -91 
Q 1169 -91 856 284 
Q 544 659 544 1381 
z
M 1991 3584 
L 1991 3584 
z
" transform="scale(0.015625)"/>
      <path id="DejaVuSans-76" d="M 191 3500 
L 800 3500 
L 1894 563 
L 2988 3500 
L 3597 3500 
L 2284 0 
L 1503 0 
L 191 3500 
z
" transform="scale(0.015625)"/>
     </defs>
     <use xlink:href="#DejaVuSans-6c"/>
     <use xlink:href="#DejaVuSans-65" x="27.783203"/>
     <use xlink:href="#DejaVuSans-61" x="89.306641"/>
     <use xlink:href="#DejaVuSans-72" x="150.585938"/>
     <use xlink:href="#DejaVuSans-6e" x="189.949219"/>
     <use xlink:href="#DejaVuSans-69" x="253.328125"/>
     <use xlink:href="#DejaVuSans-6e" x="281.111328"/>
     <use xlink:href="#DejaVuSans-67" x="344.490234"/>
     <use xlink:href="#DejaVuSans-20" x="407.966797"/>
     <use xlink:href="#DejaVuSans-63" x="439.753906"/>
     <use xlink:href="#DejaVuSans-75" x="494.734375"/>
     <use xlink:href="#DejaVuSans-72" x="558.113281"/>
     <use xlink:href="#DejaVuSans-76" x="599.226562"/>
     <use xlink:href="#DejaVuSans-65" x="658.40625"/>
    </g>
   </g>
   <g id="legend_1">
    <g id="patch_7">
     <path d="M 64.6 93.506375 
L 166.614062 93.506375 
Q 168.614062 93.506375 168.614062 91.506375 
L 168.614062 48.472 
Q 168.614062 46.472 166.614062 46.472 
L 64.6 46.472 
Q 62.6 46.472 62.6 48.472 
L 62.6 91.506375 
Q 62.6 93.506375 64.6 93.506375 
z
" style="fill: #ffffff; opacity: 0.8; stroke: #cccccc; stroke-linejoin: miter"/>
    </g>
    <g id="line2d_18">
     <path d="M 66.6 54.570438 
L 76.6 54.570438 
L 86.6 54.570438 
" style="fill: none; stroke: #1f77b4; stroke-width: 1.5; stroke-linecap: square"/>
    </g>
    <g id="text_18">
     <!-- source-source -->
     <g transform="translate(94.6 58.070438) scale(0.1 -0.1)">
      <defs>
       <path id="DejaVuSans-2d" d="M 313 2009 
L 1997 2009 
L 1997 1497 
L 313 1497 
L 313 2009 
z
" transform="scale(0.015625)"/>
      </defs>
      <use xlink:href="#DejaVuSans-73"/>
      <use xlink:href="#DejaVuSans-6f" x="52.099609"/>
      <use xlink:href="#DejaVuSans-75" x="113.28125"/>
      <use xlink:href="#DejaVuSans-72" x="176.660156"/>
      <use xlink:href="#DejaVuSans-63" x="215.523438"/>
      <use xlink:href="#DejaVuSans-65" x="270.503906"/>
      <use xlink:href="#DejaVuSans-2d" x="332.027344"/>
      <use xlink:href="#DejaVuSans-73" x="368.111328"/>
      <use xlink:href="#DejaVuSans-6f" x="420.210938"/>
      <use xlink:href="#DejaVuSans-75" x="481.392578"/>
      <use xlink:href="#DejaVuSans-72" x="544.771484"/>
      <use xlink:href="#DejaVuSans-63" x="583.634766"/>
      <use xlink:href="#DejaVuSans-65" x="638.615234"/>
     </g>
    </g>
    <g id="line2d_19">
     <path d="M 66.6 69.248563 
L 76.6 69.248563 
L 86.6 69.248563 
" style="fill: none; stroke: #ff7f0e; stroke-width: 1.5; stroke-linecap: square"/>
    </g>
    <g id="text_19">
     <!-- source-target -->
     <g transform="translate(94.6 72.748563) scale(0.1 -0.1)">
      <use xlink:href="#DejaVuSans-73"/>
      <use xlink:href="#DejaVuSans-6f" x="52.099609"/>
      <use xlink:href="#DejaVuSans-75" x="113.28125"/>
      <use xlink:href="#DejaVuSans-72" x="176.660156"/>
      <use xlink:href="#DejaVuSans-63" x="215.523438"/>
      <use xlink:href="#DejaVuSans-65" x="270.503906"/>
      <use xlink:href="#DejaVuSans-2d" x="332.027344"/>
      <use xlink:href="#DejaVuSans-74" x="368.111328"/>
      <use xlink:href="#DejaVuSans-61" x="407.320312"/>
      <use xlink:href="#DejaVuSans-72" x="468.599609"/>
      <use xlink:href="#DejaVuSans-67" x="507.962891"/>
      <use xlink:href="#DejaVuSans-65" x="571.439453"/>
      <use xlink:href="#DejaVuSans-74" x="632.962891"/>
     </g>
    </g>
    <g id="line2d_20">
     <path d="M 66.6 83.926688 
L 76.6 83.926688 
L 86.6 83.926688 
" style="fill: none; stroke: #2ca02c; stroke-width: 1.5; stroke-linecap: square"/>
    </g>
    <g id="text_20">
     <!-- target-target -->
     <g transform="translate(94.6 87.426688) scale(0.1 -0.1)">
      <use xlink:href="#DejaVuSans-74"/>
      <use xlink:href="#DejaVuSans-61" x="39.208984"/>
      <use xlink:href="#DejaVuSans-72" x="100.488281"/>
      <use xlink:href="#DejaVuSans-67" x="139.851562"/>
      <use xlink:href="#DejaVuSans-65" x="203.328125"/>
      <use xlink:href="#DejaVuSans-74" x="264.851562"/>
      <use xlink:href="#DejaVuSans-2d" x="304.060547"/>
      <use xlink:href="#DejaVuSans-74" x="340.144531"/>
      <use xlink:href="#DejaVuSans-61" x="379.353516"/>
      <use xlink:href="#DejaVuSans-72" x="440.632812"/>
      <use xlink:href="#DejaVuSans-67" x="479.996094"/>
      <use xlink:href="#DejaVuSans-65" x="543.472656"/>
      <use xlink:href="#DejaVuSans-74" x="604.996094"/>
     </g>
    </g>
   </g>
  </g>
 </g>
 <defs>
  <clipPath id="p142cf75b92">
   <rect x="57.6" y="41.472" width="357.12" height="266.112"/>
  </clipPath>
 </defs>
</svg>
