<?xml version="1.0" encoding="utf-8" standalone="no"?>
<!DOCTYPE svg PUBLIC "-//W3C//DTD SVG 1.1//EN"
  "http://www.w3.org/Graphics/SVG/1.1/DTD/svg11.dtd">
<svg xmlns:xlink="http://www.w3.org/1999/xlink" width="460.8pt" height="345.6pt" viewBox="0 0 460.8 345.6" xmlns="http://www.w3.org/2000/svg" version="1.1">
 <metadata>
  <rdf:RDF xmlns:dc="http://purl.org/dc/elements/1.1/" xmlns:cc="http://creativecommons.org/ns#" xmlns:rdf="http://www.w3.org/1999/02/22-rdf-syntax-ns#">
   <cc:Work>
    <dc:type rdf:resource="http://purl.org/dc/dcmitype/StillImage"/>
    <dc:date>2023-08-18T16:00:06.798131</dc:date>
    <dc:format>image/svg+xml</dc:format>
    <dc:creator>
     <cc:Agent>
      <dc:title>Matplotlib v3.7.1, https://matplotlib.org/</dc:title>
     </cc:Agent>
    </dc:creator>
   </cc:Work>
  </rdf:RDF>
 </metadata>
 <defs>
  <style type="text/css">*{stroke-linejoin: round; stroke-linecap: butt}</style>
 </defs>
 <g id="figure_1">
  <g id="patch_1">
   <path d="M 0 345.6 
L 460.8 345.6 
L 460.8 0 
L 0 0 
z
" style="fill: #ffffff"/>
  </g>
  <g id="axes_1">
   <g id="patch_2">
    <path d="M 57.6 307.584 
L 414.72 307.584 
L 414.72 41.472 
L 57.6 41.472 
z
" style="fill: #ffffff"/>
   </g>
   <g id="matplotlib.axis_1">
    <g id="xtick_1">
     <g id="line2d_1">
      <defs>
       <path id="m9cdf176b31" d="M 0 0 
L 0 3.5 
" style="stroke: #000000; stroke-width: 0.8"/>
      </defs>
      <g>
       <use xlink:href="#m9cdf176b31" x="73.780115" y="307.584" style="stroke: #000000; stroke-width: 0.8"/>
      </g>
     </g>
     <g id="text_1">
      <!-- 0 -->
      <g transform="translate(70.598865 322.182437) scale(0.1 -0.1)">
       <defs>
        <path id="DejaVuSans-30" d="M 2034 4250 
Q 1547 4250 1301 3770 
Q 1056 3291 1056 2328 
Q 1056 1369 1301 889 
Q 1547 409 2034 409 
Q 2525 409 2770 889 
Q 3016 1369 3016 2328 
Q 3016 3291 2770 3770 
Q 2525 4250 2034 4250 
z
M 2034 4750 
Q 2819 4750 3233 4129 
Q 3647 3509 3647 2328 
Q 3647 1150 3233 529 
Q 2819 -91 2034 -91 
Q 1250 -91 836 529 
Q 422 1150 422 2328 
Q 422 3509 836 4129 
Q 1250 4750 2034 4750 
z
" transform="scale(0.015625)"/>
       </defs>
       <use xlink:href="#DejaVuSans-30"/>
      </g>
     </g>
    </g>
    <g id="xtick_2">
     <g id="line2d_2">
      <g>
       <use xlink:href="#m9cdf176b31" x="139.544922" y="307.584" style="stroke: #000000; stroke-width: 0.8"/>
      </g>
     </g>
     <g id="text_2">
      <!-- 10000 -->
      <g transform="translate(123.638672 322.182437) scale(0.1 -0.1)">
       <defs>
        <path id="DejaVuSans-31" d="M 794 531 
L 1825 531 
L 1825 4091 
L 703 3866 
L 703 4441 
L 1819 4666 
L 2450 4666 
L 2450 531 
L 3481 531 
L 3481 0 
L 794 0 
L 794 531 
z
" transform="scale(0.015625)"/>
       </defs>
       <use xlink:href="#DejaVuSans-31"/>
       <use xlink:href="#DejaVuSans-30" x="63.623047"/>
       <use xlink:href="#DejaVuSans-30" x="127.246094"/>
       <use xlink:href="#DejaVuSans-30" x="190.869141"/>
       <use xlink:href="#DejaVuSans-30" x="254.492188"/>
      </g>
     </g>
    </g>
    <g id="xtick_3">
     <g id="line2d_3">
      <g>
       <use xlink:href="#m9cdf176b31" x="205.309729" y="307.584" style="stroke: #000000; stroke-width: 0.8"/>
      </g>
     </g>
     <g id="text_3">
      <!-- 20000 -->
      <g transform="translate(189.403479 322.182437) scale(0.1 -0.1)">
       <defs>
        <path id="DejaVuSans-32" d="M 1228 531 
L 3431 531 
L 3431 0 
L 469 0 
L 469 531 
Q 828 903 1448 1529 
Q 2069 2156 2228 2338 
Q 2531 2678 2651 2914 
Q 2772 3150 2772 3378 
Q 2772 3750 2511 3984 
Q 2250 4219 1831 4219 
Q 1534 4219 1204 4116 
Q 875 4013 500 3803 
L 500 4441 
Q 881 4594 1212 4672 
Q 1544 4750 1819 4750 
Q 2544 4750 2975 4387 
Q 3406 4025 3406 3419 
Q 3406 3131 3298 2873 
Q 3191 2616 2906 2266 
Q 2828 2175 2409 1742 
Q 1991 1309 1228 531 
z
" transform="scale(0.015625)"/>
       </defs>
       <use xlink:href="#DejaVuSans-32"/>
       <use xlink:href="#DejaVuSans-30" x="63.623047"/>
       <use xlink:href="#DejaVuSans-30" x="127.246094"/>
       <use xlink:href="#DejaVuSans-30" x="190.869141"/>
       <use xlink:href="#DejaVuSans-30" x="254.492188"/>
      </g>
     </g>
    </g>
    <g id="xtick_4">
     <g id="line2d_4">
      <g>
       <use xlink:href="#m9cdf176b31" x="271.074536" y="307.584" style="stroke: #000000; stroke-width: 0.8"/>
      </g>
     </g>
     <g id="text_4">
      <!-- 30000 -->
      <g transform="translate(255.168286 322.182437) scale(0.1 -0.1)">
       <defs>
        <path id="DejaVuSans-33" d="M 2597 2516 
Q 3050 2419 3304 2112 
Q 3559 1806 3559 1356 
Q 3559 666 3084 287 
Q 2609 -91 1734 -91 
Q 1441 -91 1130 -33 
Q 819 25 488 141 
L 488 750 
Q 750 597 1062 519 
Q 1375 441 1716 441 
Q 2309 441 2620 675 
Q 2931 909 2931 1356 
Q 2931 1769 2642 2001 
Q 2353 2234 1838 2234 
L 1294 2234 
L 1294 2753 
L 1863 2753 
Q 2328 2753 2575 2939 
Q 2822 3125 2822 3475 
Q 2822 3834 2567 4026 
Q 2313 4219 1838 4219 
Q 1578 4219 1281 4162 
Q 984 4106 628 3988 
L 628 4550 
Q 988 4650 1302 4700 
Q 1616 4750 1894 4750 
Q 2613 4750 3031 4423 
Q 3450 4097 3450 3541 
Q 3450 3153 3228 2886 
Q 3006 2619 2597 2516 
z
" transform="scale(0.015625)"/>
       </defs>
       <use xlink:href="#DejaVuSans-33"/>
       <use xlink:href="#DejaVuSans-30" x="63.623047"/>
       <use xlink:href="#DejaVuSans-30" x="127.246094"/>
       <use xlink:href="#DejaVuSans-30" x="190.869141"/>
       <use xlink:href="#DejaVuSans-30" x="254.492188"/>
      </g>
     </g>
    </g>
    <g id="xtick_5">
     <g id="line2d_5">
      <g>
       <use xlink:href="#m9cdf176b31" x="336.839343" y="307.584" style="stroke: #000000; stroke-width: 0.8"/>
      </g>
     </g>
     <g id="text_5">
      <!-- 40000 -->
      <g transform="translate(320.933093 322.182437) scale(0.1 -0.1)">
       <defs>
        <path id="DejaVuSans-34" d="M 2419 4116 
L 825 1625 
L 2419 1625 
L 2419 4116 
z
M 2253 4666 
L 3047 4666 
L 3047 1625 
L 3713 1625 
L 3713 1100 
L 3047 1100 
L 3047 0 
L 2419 0 
L 2419 1100 
L 313 1100 
L 313 1709 
L 2253 4666 
z
" transform="scale(0.015625)"/>
       </defs>
       <use xlink:href="#DejaVuSans-34"/>
       <use xlink:href="#DejaVuSans-30" x="63.623047"/>
       <use xlink:href="#DejaVuSans-30" x="127.246094"/>
       <use xlink:href="#DejaVuSans-30" x="190.869141"/>
       <use xlink:href="#DejaVuSans-30" x="254.492188"/>
      </g>
     </g>
    </g>
    <g id="xtick_6">
     <g id="line2d_6">
      <g>
       <use xlink:href="#m9cdf176b31" x="402.60415" y="307.584" style="stroke: #000000; stroke-width: 0.8"/>
      </g>
     </g>
     <g id="text_6">
      <!-- 50000 -->
      <g transform="translate(386.6979 322.182437) scale(0.1 -0.1)">
       <defs>
        <path id="DejaVuSans-35" d="M 691 4666 
L 3169 4666 
L 3169 4134 
L 1269 4134 
L 1269 2991 
Q 1406 3038 1543 3061 
Q 1681 3084 1819 3084 
Q 2600 3084 3056 2656 
Q 3513 2228 3513 1497 
Q 3513 744 3044 326 
Q 2575 -91 1722 -91 
Q 1428 -91 1123 -41 
Q 819 9 494 109 
L 494 744 
Q 775 591 1075 516 
Q 1375 441 1709 441 
Q 2250 441 2565 725 
Q 2881 1009 2881 1497 
Q 2881 1984 2565 2268 
Q 2250 2553 1709 2553 
Q 1456 2553 1204 2497 
Q 953 2441 691 2322 
L 691 4666 
z
" transform="scale(0.015625)"/>
       </defs>
       <use xlink:href="#DejaVuSans-35"/>
       <use xlink:href="#DejaVuSans-30" x="63.623047"/>
       <use xlink:href="#DejaVuSans-30" x="127.246094"/>
       <use xlink:href="#DejaVuSans-30" x="190.869141"/>
       <use xlink:href="#DejaVuSans-30" x="254.492188"/>
      </g>
     </g>
    </g>
    <g id="text_7">
     <!-- timesteps -->
     <g transform="translate(211.443594 335.860562) scale(0.1 -0.1)">
      <defs>
       <path id="DejaVuSans-74" d="M 1172 4494 
L 1172 3500 
L 2356 3500 
L 2356 3053 
L 1172 3053 
L 1172 1153 
Q 1172 725 1289 603 
Q 1406 481 1766 481 
L 2356 481 
L 2356 0 
L 1766 0 
Q 1100 0 847 248 
Q 594 497 594 1153 
L 594 3053 
L 172 3053 
L 172 3500 
L 594 3500 
L 594 4494 
L 1172 4494 
z
" transform="scale(0.015625)"/>
       <path id="DejaVuSans-69" d="M 603 3500 
L 1178 3500 
L 1178 0 
L 603 0 
L 603 3500 
z
M 603 4863 
L 1178 4863 
L 1178 4134 
L 603 4134 
L 603 4863 
z
" transform="scale(0.015625)"/>
       <path id="DejaVuSans-6d" d="M 3328 2828 
Q 3544 3216 3844 3400 
Q 4144 3584 4550 3584 
Q 5097 3584 5394 3201 
Q 5691 2819 5691 2113 
L 5691 0 
L 5113 0 
L 5113 2094 
Q 5113 2597 4934 2840 
Q 4756 3084 4391 3084 
Q 3944 3084 3684 2787 
Q 3425 2491 3425 1978 
L 3425 0 
L 2847 0 
L 2847 2094 
Q 2847 2600 2669 2842 
Q 2491 3084 2119 3084 
Q 1678 3084 1418 2786 
Q 1159 2488 1159 1978 
L 1159 0 
L 581 0 
L 581 3500 
L 1159 3500 
L 1159 2956 
Q 1356 3278 1631 3431 
Q 1906 3584 2284 3584 
Q 2666 3584 2933 3390 
Q 3200 3197 3328 2828 
z
" transform="scale(0.015625)"/>
       <path id="DejaVuSans-65" d="M 3597 1894 
L 3597 1613 
L 953 1613 
Q 991 1019 1311 708 
Q 1631 397 2203 397 
Q 2534 397 2845 478 
Q 3156 559 3463 722 
L 3463 178 
Q 3153 47 2828 -22 
Q 2503 -91 2169 -91 
Q 1331 -91 842 396 
Q 353 884 353 1716 
Q 353 2575 817 3079 
Q 1281 3584 2069 3584 
Q 2775 3584 3186 3129 
Q 3597 2675 3597 1894 
z
M 3022 2063 
Q 3016 2534 2758 2815 
Q 2500 3097 2075 3097 
Q 1594 3097 1305 2825 
Q 1016 2553 972 2059 
L 3022 2063 
z
" transform="scale(0.015625)"/>
       <path id="DejaVuSans-73" d="M 2834 3397 
L 2834 2853 
Q 2591 2978 2328 3040 
Q 2066 3103 1784 3103 
Q 1356 3103 1142 2972 
Q 928 2841 928 2578 
Q 928 2378 1081 2264 
Q 1234 2150 1697 2047 
L 1894 2003 
Q 2506 1872 2764 1633 
Q 3022 1394 3022 966 
Q 3022 478 2636 193 
Q 2250 -91 1575 -91 
Q 1294 -91 989 -36 
Q 684 19 347 128 
L 347 722 
Q 666 556 975 473 
Q 1284 391 1588 391 
Q 1994 391 2212 530 
Q 2431 669 2431 922 
Q 2431 1156 2273 1281 
Q 2116 1406 1581 1522 
L 1381 1569 
Q 847 1681 609 1914 
Q 372 2147 372 2553 
Q 372 3047 722 3315 
Q 1072 3584 1716 3584 
Q 2034 3584 2315 3537 
Q 2597 3491 2834 3397 
z
" transform="scale(0.015625)"/>
       <path id="DejaVuSans-70" d="M 1159 525 
L 1159 -1331 
L 581 -1331 
L 581 3500 
L 1159 3500 
L 1159 2969 
Q 1341 3281 1617 3432 
Q 1894 3584 2278 3584 
Q 2916 3584 3314 3078 
Q 3713 2572 3713 1747 
Q 3713 922 3314 415 
Q 2916 -91 2278 -91 
Q 1894 -91 1617 61 
Q 1341 213 1159 525 
z
M 3116 1747 
Q 3116 2381 2855 2742 
Q 2594 3103 2138 3103 
Q 1681 3103 1420 2742 
Q 1159 2381 1159 1747 
Q 1159 1113 1420 752 
Q 1681 391 2138 391 
Q 2594 391 2855 752 
Q 3116 1113 3116 1747 
z
" transform="scale(0.015625)"/>
      </defs>
      <use xlink:href="#DejaVuSans-74"/>
      <use xlink:href="#DejaVuSans-69" x="39.208984"/>
      <use xlink:href="#DejaVuSans-6d" x="66.992188"/>
      <use xlink:href="#DejaVuSans-65" x="164.404297"/>
      <use xlink:href="#DejaVuSans-73" x="225.927734"/>
      <use xlink:href="#DejaVuSans-74" x="278.027344"/>
      <use xlink:href="#DejaVuSans-65" x="317.236328"/>
      <use xlink:href="#DejaVuSans-70" x="378.759766"/>
      <use xlink:href="#DejaVuSans-73" x="442.236328"/>
     </g>
    </g>
   </g>
   <g id="matplotlib.axis_2">
    <g id="ytick_1">
     <g id="line2d_7">
      <defs>
       <path id="mbbb5335ec2" d="M 0 0 
L -3.5 0 
" style="stroke: #000000; stroke-width: 0.8"/>
      </defs>
      <g>
       <use xlink:href="#mbbb5335ec2" x="57.6" y="296.894552" style="stroke: #000000; stroke-width: 0.8"/>
      </g>
     </g>
     <g id="text_8">
      <!-- 0 -->
      <g transform="translate(44.2375 300.693771) scale(0.1 -0.1)">
       <use xlink:href="#DejaVuSans-30"/>
      </g>
     </g>
    </g>
    <g id="ytick_2">
     <g id="line2d_8">
      <g>
       <use xlink:href="#mbbb5335ec2" x="57.6" y="261.171846" style="stroke: #000000; stroke-width: 0.8"/>
      </g>
     </g>
     <g id="text_9">
      <!-- 50 -->
      <g transform="translate(37.875 264.971064) scale(0.1 -0.1)">
       <use xlink:href="#DejaVuSans-35"/>
       <use xlink:href="#DejaVuSans-30" x="63.623047"/>
      </g>
     </g>
    </g>
    <g id="ytick_3">
     <g id="line2d_9">
      <g>
       <use xlink:href="#mbbb5335ec2" x="57.6" y="225.449139" style="stroke: #000000; stroke-width: 0.8"/>
      </g>
     </g>
     <g id="text_10">
      <!-- 100 -->
      <g transform="translate(31.5125 229.248358) scale(0.1 -0.1)">
       <use xlink:href="#DejaVuSans-31"/>
       <use xlink:href="#DejaVuSans-30" x="63.623047"/>
       <use xlink:href="#DejaVuSans-30" x="127.246094"/>
      </g>
     </g>
    </g>
    <g id="ytick_4">
     <g id="line2d_10">
      <g>
       <use xlink:href="#mbbb5335ec2" x="57.6" y="189.726432" style="stroke: #000000; stroke-width: 0.8"/>
      </g>
     </g>
     <g id="text_11">
      <!-- 150 -->
      <g transform="translate(31.5125 193.525651) scale(0.1 -0.1)">
       <use xlink:href="#DejaVuSans-31"/>
       <use xlink:href="#DejaVuSans-35" x="63.623047"/>
       <use xlink:href="#DejaVuSans-30" x="127.246094"/>
      </g>
     </g>
    </g>
    <g id="ytick_5">
     <g id="line2d_11">
      <g>
       <use xlink:href="#mbbb5335ec2" x="57.6" y="154.003726" style="stroke: #000000; stroke-width: 0.8"/>
      </g>
     </g>
     <g id="text_12">
      <!-- 200 -->
      <g transform="translate(31.5125 157.802944) scale(0.1 -0.1)">
       <use xlink:href="#DejaVuSans-32"/>
       <use xlink:href="#DejaVuSans-30" x="63.623047"/>
       <use xlink:href="#DejaVuSans-30" x="127.246094"/>
      </g>
     </g>
    </g>
    <g id="ytick_6">
     <g id="line2d_12">
      <g>
       <use xlink:href="#mbbb5335ec2" x="57.6" y="118.281019" style="stroke: #000000; stroke-width: 0.8"/>
      </g>
     </g>
     <g id="text_13">
      <!-- 250 -->
      <g transform="translate(31.5125 122.080238) scale(0.1 -0.1)">
       <use xlink:href="#DejaVuSans-32"/>
       <use xlink:href="#DejaVuSans-35" x="63.623047"/>
       <use xlink:href="#DejaVuSans-30" x="127.246094"/>
      </g>
     </g>
    </g>
    <g id="ytick_7">
     <g id="line2d_13">
      <g>
       <use xlink:href="#mbbb5335ec2" x="57.6" y="82.558312" style="stroke: #000000; stroke-width: 0.8"/>
      </g>
     </g>
     <g id="text_14">
      <!-- 300 -->
      <g transform="translate(31.5125 86.357531) scale(0.1 -0.1)">
       <use xlink:href="#DejaVuSans-33"/>
       <use xlink:href="#DejaVuSans-30" x="63.623047"/>
       <use xlink:href="#DejaVuSans-30" x="127.246094"/>
      </g>
     </g>
    </g>
    <g id="ytick_8">
     <g id="line2d_14">
      <g>
       <use xlink:href="#mbbb5335ec2" x="57.6" y="46.835606" style="stroke: #000000; stroke-width: 0.8"/>
      </g>
     </g>
     <g id="text_15">
      <!-- 350 -->
      <g transform="translate(31.5125 50.634825) scale(0.1 -0.1)">
       <use xlink:href="#DejaVuSans-33"/>
       <use xlink:href="#DejaVuSans-35" x="63.623047"/>
       <use xlink:href="#DejaVuSans-30" x="127.246094"/>
      </g>
     </g>
    </g>
    <g id="text_16">
     <!-- rewards -->
     <g transform="translate(25.432812 194.447531) rotate(-90) scale(0.1 -0.1)">
      <defs>
       <path id="DejaVuSans-72" d="M 2631 2963 
Q 2534 3019 2420 3045 
Q 2306 3072 2169 3072 
Q 1681 3072 1420 2755 
Q 1159 2438 1159 1844 
L 1159 0 
L 581 0 
L 581 3500 
L 1159 3500 
L 1159 2956 
Q 1341 3275 1631 3429 
Q 1922 3584 2338 3584 
Q 2397 3584 2469 3576 
Q 2541 3569 2628 3553 
L 2631 2963 
z
" transform="scale(0.015625)"/>
       <path id="DejaVuSans-77" d="M 269 3500 
L 844 3500 
L 1563 769 
L 2278 3500 
L 2956 3500 
L 3675 769 
L 4391 3500 
L 4966 3500 
L 4050 0 
L 3372 0 
L 2619 2869 
L 1863 0 
L 1184 0 
L 269 3500 
z
" transform="scale(0.015625)"/>
       <path id="DejaVuSans-61" d="M 2194 1759 
Q 1497 1759 1228 1600 
Q 959 1441 959 1056 
Q 959 750 1161 570 
Q 1363 391 1709 391 
Q 2188 391 2477 730 
Q 2766 1069 2766 1631 
L 2766 1759 
L 2194 1759 
z
M 3341 1997 
L 3341 0 
L 2766 0 
L 2766 531 
Q 2569 213 2275 61 
Q 1981 -91 1556 -91 
Q 1019 -91 701 211 
Q 384 513 384 1019 
Q 384 1609 779 1909 
Q 1175 2209 1959 2209 
L 2766 2209 
L 2766 2266 
Q 2766 2663 2505 2880 
Q 2244 3097 1772 3097 
Q 1472 3097 1187 3025 
Q 903 2953 641 2809 
L 641 3341 
Q 956 3463 1253 3523 
Q 1550 3584 1831 3584 
Q 2591 3584 2966 3190 
Q 3341 2797 3341 1997 
z
" transform="scale(0.015625)"/>
       <path id="DejaVuSans-64" d="M 2906 2969 
L 2906 4863 
L 3481 4863 
L 3481 0 
L 2906 0 
L 2906 525 
Q 2725 213 2448 61 
Q 2172 -91 1784 -91 
Q 1150 -91 751 415 
Q 353 922 353 1747 
Q 353 2572 751 3078 
Q 1150 3584 1784 3584 
Q 2172 3584 2448 3432 
Q 2725 3281 2906 2969 
z
M 947 1747 
Q 947 1113 1208 752 
Q 1469 391 1925 391 
Q 2381 391 2643 752 
Q 2906 1113 2906 1747 
Q 2906 2381 2643 2742 
Q 2381 3103 1925 3103 
Q 1469 3103 1208 2742 
Q 947 2381 947 1747 
z
" transform="scale(0.015625)"/>
      </defs>
      <use xlink:href="#DejaVuSans-72"/>
      <use xlink:href="#DejaVuSans-65" x="38.863281"/>
      <use xlink:href="#DejaVuSans-77" x="100.386719"/>
      <use xlink:href="#DejaVuSans-61" x="182.173828"/>
      <use xlink:href="#DejaVuSans-72" x="243.453125"/>
      <use xlink:href="#DejaVuSans-64" x="282.816406"/>
      <use xlink:href="#DejaVuSans-73" x="346.292969"/>
     </g>
    </g>
   </g>
   <g id="line2d_15">
    <path d="M 73.832727 292.886428 
L 74.168128 287.045339 
L 74.260199 288.626628 
L 74.352269 287.960191 
L 74.44434 292.236452 
L 74.55614 287.505423 
L 74.733705 293.338819 
L 74.977035 286.381953 
L 75.108565 280.274669 
L 75.246671 289.719985 
L 75.384777 288.937563 
L 75.522883 281.911438 
L 75.608377 291.082264 
L 75.785942 279.988183 
L 75.897742 288.960075 
L 76.009542 288.936727 
L 76.239719 287.392539 
L 76.44359 271.765081 
L 76.778991 287.072126 
L 76.884214 286.53294 
L 76.996014 285.190667 
L 77.088085 290.790895 
L 77.206462 289.266578 
L 77.324839 289.297816 
L 77.430062 287.206149 
L 77.673392 275.416032 
L 77.916722 292.299099 
L 77.99564 291.036301 
L 78.173205 277.091098 
L 78.337617 292.449096 
L 78.548064 284.075057 
L 78.811123 291.647518 
L 78.942653 287.788881 
L 79.0413 288.816868 
L 79.166253 283.2237 
L 79.343818 292.869654 
L 79.791019 270.192715 
L 80.060654 245.950657 
L 80.198761 289.038599 
L 80.369749 281.147135 
L 80.428937 291.918052 
L 80.613079 288.635296 
L 80.691997 289.725399 
L 80.922173 271.984707 
L 81.126044 289.60388 
L 81.178656 293.393206 
L 81.632433 260.48047 
L 81.704775 292.91401 
L 81.803422 289.448039 
L 81.948104 289.316376 
L 82.020446 291.367087 
L 82.184858 279.275203 
L 82.368999 290.561721 
L 82.487376 287.122799 
L 82.7044 262.064632 
L 82.993765 290.61465 
L 83.191059 289.473357 
L 83.368624 277.354741 
L 83.63826 292.207491 
L 83.822401 280.426522 
L 84.059155 292.70244 
L 84.414285 283.618828 
L 84.605003 290.056695 
L 84.690497 288.874717 
L 84.868062 280.179614 
L 84.993015 288.355684 
L 85.28238 257.17919 
L 85.50598 291.145407 
L 85.604628 286.246447 
L 85.76904 286.42496 
L 85.893993 282.670006 
L 85.986064 287.239311 
L 86.150476 289.537867 
L 86.288582 288.331372 
L 86.426688 292.742954 
L 86.499029 291.500948 
L 86.623982 292.238841 
L 86.709476 290.993858 
L 86.972536 285.878773 
L 87.176407 291.450295 
L 87.353972 273.875556 
L 87.663066 290.410149 
L 87.998467 276.749923 
L 88.202338 258.357565 
L 88.406208 291.992031 
L 88.465397 291.816517 
L 88.603503 289.966588 
L 88.800797 275.447151 
L 88.952056 277.969909 
L 89.136198 290.945035 
L 89.326916 292.326828 
L 89.405834 291.079298 
L 89.570246 277.302112 
L 89.708352 290.386098 
L 90.2542 185.815639 
L 90.333117 291.818616 
L 90.661941 238.848976 
L 90.734283 291.052254 
L 91.128871 247.61859 
L 91.266978 283.179343 
L 91.451119 277.720324 
L 91.615531 281.7963 
L 91.714178 288.346649 
L 91.832555 284.398353 
L 91.964085 295.488 
L 92.062732 289.84794 
L 92.200838 289.786921 
L 92.286332 290.765955 
L 92.825603 269.597013 
L 93.272804 292.467981 
L 93.483252 268.2123 
L 93.713428 289.022679 
L 93.87784 276.139627 
L 94.114594 286.092791 
L 94.239547 288.142378 
L 94.338194 287.48658 
L 94.410535 292.888147 
L 94.482877 291.064086 
L 94.660442 286.216984 
L 94.726206 291.684056 
L 94.83143 291.447401 
L 95.245748 270.059531 
L 95.311513 292.821293 
L 95.567996 269.880806 
L 95.666643 291.799628 
L 95.870514 285.144572 
L 95.962585 290.518509 
L 96.199338 285.432209 
L 96.284832 292.295894 
L 96.396633 291.1363 
L 96.521586 293.381503 
L 96.732033 264.803563 
L 96.837257 293.307225 
L 96.955633 285.439366 
L 97.041128 289.235129 
L 97.448869 270.588125 
L 97.659317 290.743358 
L 97.909223 266.071674 
L 98.264353 251.010314 
L 98.369577 285.812256 
L 98.553718 290.033216 
L 98.632636 289.514455 
L 98.73786 288.560879 
L 98.935154 283.420297 
L 99.329743 294.689278 
L 99.527037 283.152481 
L 99.809826 277.842464 
L 99.947932 285.498107 
L 100.191262 281.283452 
L 100.335944 282.008034 
L 100.546392 279.621948 
L 100.881792 253.867877 
L 101.07251 292.854057 
L 101.171157 287.963325 
L 101.322417 293.631065 
L 101.684123 285.408662 
L 101.874841 292.086951 
L 101.940606 291.39212 
L 102.098441 282.62056 
L 102.210241 288.233134 
L 102.3615 285.804915 
L 102.670595 276.639542 
L 102.874466 291.96627 
L 103.223019 282.776249 
L 103.387431 289.044392 
L 103.67022 262.308678 
L 103.814903 291.331515 
L 103.933279 288.901925 
L 104.091115 292.732375 
L 104.564622 265.713305 
L 104.985516 249.554964 
L 105.051281 292.439278 
L 105.340646 282.629415 
L 105.518211 292.206568 
L 105.827306 286.755113 
L 105.998294 272.682057 
L 106.300812 295.119195 
L 106.353424 294.203802 
L 106.524413 291.044582 
L 106.721707 292.28981 
L 106.859813 290.66897 
L 107.076837 265.015101 
L 107.458273 292.145159 
L 107.609532 283.716848 
L 107.734485 285.904544 
L 107.964662 281.093827 
L 108.129074 290.252808 
L 108.319792 279.474651 
L 108.49078 291.077223 
L 108.648616 281.339337 
L 108.872216 292.627735 
L 108.97744 292.316957 
L 109.062934 290.364241 
L 109.194464 282.246021 
L 109.372029 290.449971 
L 109.4641 290.6474 
L 109.628512 292.531328 
L 109.898147 290.108354 
L 109.990218 290.548869 
L 110.220395 284.543876 
L 110.568948 229.634554 
L 110.693902 285.065421 
L 110.845161 287.486039 
L 111.029302 280.238956 
L 111.187138 286.014475 
L 111.285785 285.908696 
L 111.450197 284.883654 
L 111.588303 282.683727 
L 111.673797 289.254065 
L 111.851362 291.592545 
L 112.101268 259.238477 
L 112.186763 288.638771 
L 112.331445 289.675147 
L 112.52874 275.127587 
L 112.607657 289.856643 
L 112.739187 289.059315 
L 112.837834 294.086869 
L 113.094317 288.010993 
L 113.212694 287.366657 
L 113.403412 291.588631 
L 113.508635 289.582001 
L 113.646741 281.000384 
L 113.798 280.515348 
L 113.876918 291.979596 
L 113.975565 291.02495 
L 114.047907 291.11159 
L 114.271507 287.023244 
L 114.403037 288.521588 
L 114.567449 276.933901 
L 114.698978 283.943906 
L 114.86339 273.1901 
L 115.067261 280.124461 
L 115.165908 289.99986 
L 115.251403 288.61921 
L 115.35005 287.536593 
L 115.415815 291.533378 
L 115.68545 277.50618 
L 115.849862 284.171019 
L 116.027427 282.245111 
L 116.204992 270.842711 
L 116.435169 292.124384 
L 116.665346 273.934894 
L 116.777146 290.486575 
L 116.86264 290.387895 
L 116.934982 290.713658 
L 117.020476 291.88621 
L 117.178311 289.038855 
L 117.375606 279.813526 
L 117.487406 287.975162 
L 117.632089 287.279663 
L 117.717583 290.936755 
L 117.881995 289.645855 
L 118.184513 260.237763 
L 118.270007 289.545831 
L 118.421266 286.64308 
L 118.493608 291.976125 
L 118.644867 290.397116 
L 118.835585 276.836595 
L 118.901349 291.897985 
L 119.118373 284.9462 
L 119.177562 294.230852 
L 119.34855 282.330642 
L 119.486656 285.309148 
L 119.749715 248.840946 
L 120.104845 292.230941 
L 120.210069 291.738277 
L 120.506011 285.62251 
L 120.624387 286.204709 
L 120.755917 281.534583 
L 120.920329 265.021589 
L 121.137353 269.414251 
L 121.341224 266.489509 
L 121.538518 289.697547 
L 121.630589 292.032215 
L 121.906801 286.042828 
L 122.156707 283.530317 
L 122.229049 291.888625 
L 122.321119 288.860007 
L 122.52499 290.661519 
L 122.597332 291.368075 
L 122.702555 287.836278 
L 122.840661 290.064445 
L 123.037956 287.99552 
L 123.149756 291.92625 
L 123.294438 280.625206 
L 123.537768 286.83933 
L 123.72191 286.947129 
L 123.925781 286.567342 
L 124.011275 291.545889 
L 124.280911 275.978728 
L 124.451899 291.706869 
L 124.583429 289.04196 
L 124.668923 289.248906 
L 124.741264 290.950156 
L 124.839911 290.574905 
L 125.030629 290.583027 
L 125.635666 210.454833 
L 125.767195 292.113168 
L 125.911878 280.587208 
L 125.990796 290.87002 
L 126.115749 290.655101 
L 126.207819 293.062071 
L 126.273584 292.545688 
L 126.451149 287.10251 
L 126.54322 287.672962 
L 126.641867 291.528766 
L 126.845738 284.867193 
L 126.964115 288.233186 
L 127.187715 290.342935 
L 127.338974 282.318929 
L 127.490233 284.100831 
L 127.634916 277.99124 
L 127.733563 289.995271 
L 127.904551 272.338039 
L 127.96374 293.559939 
L 128.345176 286.712492 
L 128.608235 261.91169 
L 128.818682 277.824025 
L 128.877871 293.878454 
L 128.943635 292.985059 
L 129.015977 291.272793 
L 129.265883 289.550961 
L 129.403989 286.955624 
L 129.706507 294.692422 
L 129.910378 283.771421 
L 130.087943 280.256657 
L 130.212896 290.525617 
L 130.324696 284.892113 
L 130.633791 256.903809 
L 130.725862 292.768571 
L 130.837662 286.022789 
L 131.061262 283.01807 
L 131.159909 291.153127 
L 131.284863 281.662371 
L 131.455851 281.909359 
L 131.561075 290.220563 
L 131.804405 278.127112 
L 131.863593 292.204121 
L 131.935934 291.079172 
L 132.383135 220.203095 
L 132.587006 290.451456 
L 132.823759 287.167673 
L 133.060512 274.638836 
L 133.146007 288.968291 
L 133.25123 287.78709 
L 133.658972 237.687374 
L 133.862843 292.578953 
L 133.948337 291.271078 
L 134.020678 293.542033 
L 134.139055 286.365229 
L 134.237702 289.959094 
L 134.369232 283.925903 
L 134.507338 291.797926 
L 134.684903 290.521083 
L 135.040033 284.215425 
L 135.283363 289.993552 
L 135.480657 279.674257 
L 135.60561 290.083547 
L 135.717411 287.628914 
L 135.993623 267.446482 
L 136.131729 290.183142 
L 136.243529 286.056126 
L 136.3356 289.369806 
L 136.552624 281.095919 
L 136.848565 294.232706 
L 137.078742 269.103792 
L 137.164236 290.548204 
L 137.519366 236.278799 
L 137.591708 293.126631 
L 137.828461 289.025458 
L 137.933685 291.117067 
L 138.098097 289.76927 
L 138.183591 289.528313 
L 138.328273 283.37691 
L 138.433497 287.858043 
L 139.064839 167.931102 
L 139.13718 291.262108 
L 139.334475 274.236197 
L 139.551499 290.38548 
L 139.636993 289.715996 
L 139.906629 279.456752 
L 140.1105 291.631781 
L 140.228876 287.618566 
L 140.340676 289.440315 
L 140.676077 259.168685 
L 140.787877 286.322055 
L 140.925983 284.151057 
L 141.149584 291.086442 
L 141.39949 287.826763 
L 141.570478 288.802993 
L 141.636243 292.112961 
L 141.702008 291.927984 
L 141.840114 286.087082 
L 142.004526 291.067646 
L 142.22155 284.201731 
L 142.35308 290.854956 
L 142.609562 259.646072 
L 142.734515 289.105705 
L 142.826586 287.791297 
L 142.93181 291.658531 
L 143.089645 276.04282 
L 143.188293 288.283546 
L 143.313246 288.962892 
L 143.379011 291.44929 
L 143.596034 284.412267 
L 143.740717 289.477362 
L 144.076117 285.22772 
L 144.312871 292.39891 
L 144.372059 291.973303 
L 144.648271 286.385887 
L 145.075743 250.267761 
L 145.28619 291.793058 
L 145.680779 242.710365 
L 145.845191 291.403959 
L 145.917532 290.078442 
L 146.049062 292.685086 
L 146.134556 292.561333 
L 146.252933 288.047462 
L 146.35158 291.367258 
L 146.897428 245.416553 
L 147.134181 283.753364 
L 147.489311 290.453848 
L 147.561652 294.582563 
L 147.732641 290.480219 
L 147.916782 272.791951 
L 147.982547 292.390241 
L 148.120653 290.053547 
L 148.258759 281.561383 
L 148.344253 291.315124 
L 148.502089 281.68285 
L 148.620466 289.280405 
L 148.712536 288.748168 
L 148.969019 259.973631 
L 149.199196 287.286514 
L 149.758197 229.269568 
L 150.073868 287.451523 
L 150.323774 254.531026 
L 150.389539 292.111042 
L 150.764398 251.171581 
L 150.961693 290.86603 
L 151.047187 290.69373 
L 151.606188 206.62313 
L 151.724564 285.808885 
L 151.875824 276.605574 
L 152.059965 294.443864 
L 152.336177 279.740994 
L 152.428248 288.096977 
L 152.553201 281.886591 
L 152.882025 238.817312 
L 153.066167 285.493615 
L 153.204273 282.734016 
L 153.348955 284.097136 
L 153.552826 283.957687 
L 154.032909 194.467407 
L 154.157862 290.616834 
L 154.309121 281.940686 
L 154.605063 238.896873 
L 154.83524 283.169086 
L 155.006228 276.639408 
L 155.177217 282.037198 
L 155.328476 276.612395 
L 155.394241 291.253379 
L 155.591535 278.070874 
L 155.723065 291.364284 
L 155.90063 271.543305 
L 156.170265 274.977744 
L 156.505666 261.058144 
L 156.663501 287.009363 
L 156.781878 284.119078 
L 157.005478 262.352424 
L 157.156738 287.620435 
L 157.314573 282.970356 
L 157.531597 282.698073 
L 157.590785 292.006414 
L 157.742044 283.787407 
L 157.959068 287.96141 
L 158.268163 234.828729 
L 158.59041 232.18577 
L 158.774552 273.064742 
L 159.024458 249.870346 
L 159.129682 291.829277 
L 159.215176 290.373506 
L 159.504541 247.082749 
L 159.991201 224.009575 
L 160.273989 291.217531 
L 160.398943 292.275864 
L 160.675155 265.261074 
L 160.984249 269.907133 
L 161.260461 252.940098 
L 161.622168 255.492968 
L 161.714239 286.628898 
L 162.168016 213.421389 
L 162.240357 291.699445 
L 162.325851 289.763459 
L 162.825664 248.661368 
L 162.976923 290.449101 
L 163.351782 272.587309 
L 163.581959 291.443464 
L 164.246184 228.865466 
L 164.706537 269.326678 
L 165.035361 242.028297 
L 165.245809 277.327422 
L 165.844269 250.069146 
L 166.113904 280.75672 
L 166.436152 239.902074 
L 166.580834 288.602297 
L 166.968847 221.713833 
L 167.258212 246.727751 
L 167.488389 252.873898 
L 167.639648 282.552323 
L 167.856672 256.285254 
L 167.981625 281.911968 
L 168.211802 286.623516 
L 168.461708 251.043158 
L 169.415298 188.261587 
L 169.730969 234.727912 
L 170.15844 238.696537 
L 170.51357 283.844593 
L 170.664829 276.222411 
L 171.125183 226.004477 
L 171.44743 235.272736 
L 171.651301 258.649927 
L 171.93409 241.420022 
L 172.354984 249.945646 
L 172.775879 231.269968 
L 173.499292 255.486397 
L 173.80181 236.71348 
L 174.018834 254.623238 
L 174.40027 236.745109 
L 174.715941 243.108916 
L 174.932965 292.125592 
L 175.538001 216.318519 
L 175.794484 288.641764 
L 176.116731 237.484848 
L 176.471861 220.683415 
L 176.951944 227.673703 
L 177.642475 259.933979 
L 178.17517 209.228622 
L 178.484264 233.705321 
L 179.35236 252.78765 
L 179.589113 253.16882 
L 179.885055 249.287523 
L 180.194149 236.468508 
L 180.371714 262.503998 
L 181.233233 225.62488 
L 181.57521 227.457227 
L 181.936917 226.665076 
L 182.17367 251.2201 
L 182.568259 242.315429 
L 182.857624 242.016351 
L 183.331131 250.405436 
L 183.554731 252.673544 
L 183.765178 257.008614 
L 184.080849 246.53686 
L 184.324179 249.203131 
L 184.699039 223.560419 
L 185.205428 217.02326 
L 185.738123 164.382965 
L 186.027488 243.548091 
L 186.323429 247.114075 
L 186.540453 256.300746 
L 186.829818 239.37823 
L 187.12576 254.753768 
L 187.441431 249.030115 
L 187.829443 217.106144 
L 188.039891 257.587615 
L 188.263491 255.879853 
L 188.638351 241.748295 
L 188.848798 254.676381 
L 189.210504 234.474502 
L 189.493293 242.545812 
L 189.677435 261.847651 
L 190.249588 240.715195 
L 190.486342 252.009924 
L 190.802013 231.931403 
L 191.637226 126.861084 
L 191.920014 248.376879 
L 192.32118 228.977363 
L 192.54478 255.464064 
L 192.748651 258.76999 
L 193.038016 251.454314 
L 193.241887 258.9165 
L 193.590441 242.484116 
L 193.781158 260.152503 
L 193.998182 256.061322 
L 194.333583 267.548349 
L 194.511148 262.589601 
L 194.682136 263.698613 
L 194.866278 261.250798 
L 195.043843 262.958695 
L 195.49762 250.802801 
L 195.813291 233.702727 
L 196.043468 252.449332 
L 196.977328 176.936353 
L 197.168046 260.841548 
L 197.483717 267.529098 
L 197.674435 259.692865 
L 197.858576 261.451889 
L 198.062447 257.860799 
L 198.31893 247.165825 
L 198.628025 250.286872 
L 198.864778 249.395191 
L 199.042343 263.814343 
L 199.298826 248.35646 
L 199.529003 250.897888 
L 199.726297 258.313942 
L 199.936744 256.43833 
L 200.153768 253.137602 
L 200.44971 235.03597 
L 200.745652 236.264688 
L 200.956099 257.460824 
L 201.15997 257.694201 
L 201.429606 244.853992 
L 202.948773 53.568 
L 203.481467 172.982264 
L 204.053621 164.809187 
L 204.296951 247.697312 
L 204.481093 261.112434 
L 204.652081 263.072494 
L 204.849375 257.806051 
L 205.053246 257.572694 
L 205.599094 161.712929 
L 206.138366 163.756739 
L 206.671061 168.534065 
L 207.203756 167.146109 
L 207.73645 175.112237 
L 207.907439 264.664747 
L 208.104733 258.694458 
L 208.69004 154.657351 
L 209.262194 151.845953 
L 209.505524 246.823063 
L 209.676512 263.977173 
L 209.900113 251.808733 
L 210.373619 191.712229 
L 210.636678 244.800968 
L 210.998385 221.185948 
L 211.517927 173.614063 
L 212.050622 169.243482 
L 212.24134 258.832273 
L 212.793764 159.992637 
L 213.010788 251.877071 
L 213.260694 245.64152 
L 213.523753 247.300919 
L 213.99726 194.284492 
L 214.214284 252.104744 
L 214.720673 180.242982 
L 214.95085 249.639427 
L 215.444086 176.619042 
L 215.595345 267.56571 
L 215.845251 246.619912 
L 216.082004 249.409162 
L 216.312181 250.109616 
L 216.575241 243.103747 
L 216.923794 224.089969 
L 217.088206 263.695912 
L 217.252618 264.458899 
L 217.515677 242.304216 
L 217.699819 261.779322 
L 218.245667 166.603717 
L 218.410079 264.017452 
L 218.955927 170.02676 
L 219.495198 166.533908 
L 219.988434 189.493677 
L 220.488247 187.698326 
L 221.001212 183.824162 
L 221.487872 191.285714 
L 221.994261 183.913512 
L 222.513803 182.79114 
L 223.033345 180.228679 
L 223.552887 180.566845 
L 224.085581 170.496163 
L 224.6117 180.737613 
L 225.150971 171.003104 
L 225.703396 165.480531 
L 226.229514 169.930416 
L 226.762209 171.077843 
L 227.288328 178.582327 
L 227.834175 172.575932 
L 228.373447 169.010892 
L 228.879836 184.477502 
L 229.43226 173.764648 
L 229.991261 171.408221 
L 230.523956 178.615849 
L 231.056651 178.350451 
L 231.569616 183.593272 
L 232.082582 183.259865 
L 232.62843 174.010906 
L 233.134819 186.237853 
L 233.628055 188.779209 
L 234.134444 185.904424 
L 234.634256 188.241382 
L 235.140645 184.798471 
L 235.647035 187.114295 
L 236.166576 183.118482 
L 236.666389 187.674591 
L 237.218813 172.186469 
L 237.751508 175.928994 
L 238.284203 176.431498 
L 238.770863 190.634982 
L 239.303558 170.990373 
L 239.862559 169.84048 
L 240.388677 173.105693 
L 240.881913 187.847982 
L 241.381726 186.894908 
L 241.842079 198.03862 
L 242.341892 186.878547 
L 242.861434 177.96068 
L 243.348093 191.845453 
L 243.880788 169.829871 
L 244.374024 189.464528 
L 244.86726 189.344328 
L 245.367073 187.966196 
L 245.853733 190.939304 
L 246.905969 176.390946 
L 247.445241 176.832107 
L 247.991089 175.123526 
L 248.55009 171.337597 
L 249.10909 173.155347 
L 249.622056 183.995931 
L 250.148174 180.693696 
L 250.654563 186.925722 
L 251.200411 171.056388 
L 251.752836 173.979899 
L 252.278954 180.644356 
L 252.818226 176.902638 
L 253.383803 171.242754 
L 253.909921 169.478152 
L 254.462346 172.168508 
L 255.001617 171.4081 
L 255.554042 171.221127 
L 256.099889 171.479967 
L 256.65889 171.003976 
L 257.211315 172.447573 
L 257.757163 176.148153 
L 258.296434 177.618399 
L 258.842282 176.154161 
L 259.407859 171.479995 
L 259.973437 171.710528 
L 260.525861 174.360967 
L 261.051979 181.118717 
L 261.617557 171.254406 
L 262.163405 175.998953 
L 262.702676 178.05283 
L 263.222218 182.152976 
L 263.768066 175.814353 
L 264.313914 176.852333 
L 264.866338 174.446037 
L 265.425339 172.679207 
L 265.98434 173.654858 
L 266.543341 169.95595 
L 267.095765 174.632103 
L 267.64819 174.787154 
L 268.213767 171.384587 
L 268.779344 171.101542 
L 269.331769 174.270389 
L 269.897346 170.270789 
L 270.443194 175.281327 
L 271.002195 173.227836 
L 271.567772 170.479967 
L 272.107043 176.98485 
L 272.659468 174.45131 
L 273.225045 172.727854 
L 273.75774 179.123969 
L 274.310164 174.043078 
L 274.829706 181.530522 
L 275.382131 174.402756 
L 275.927979 176.113516 
L 276.480403 174.220577 
L 277.013098 178.954457 
L 277.565522 174.548111 
L 278.644065 178.606697 
L 279.189913 175.511817 
L 279.735761 176.073271 
L 280.24215 185.97324 
L 280.781421 175.217176 
L 281.235199 200.193857 
L 281.761317 179.84441 
L 282.280859 182.645842 
L 282.793825 184.178174 
L 283.333096 177.03094 
L 283.878944 175.354094 
L 284.431368 172.470779 
L 284.977216 177.640626 
L 285.490182 185.816403 
L 286.003147 185.676178 
L 286.522689 183.713986 
L 287.56835 182.073007 
L 288.087891 183.568309 
L 288.620586 179.581226 
L 289.166434 176.561007 
L 289.692553 181.27554 
L 290.218671 180.218348 
L 290.74479 180.363068 
L 291.257755 184.416309 
L 292.329722 176.79777 
L 292.868993 177.944862 
L 293.395111 181.205652 
L 293.927806 180.009985 
L 294.460501 179.097741 
L 295.019502 173.979277 
L 296.084892 181.319651 
L 296.604434 181.513132 
L 297.117399 183.681929 
L 297.650094 179.014557 
L 298.189366 177.996839 
L 298.708908 182.10082 
L 299.235026 181.500079 
L 299.787451 175.297031 
L 300.339875 175.084266 
L 300.865993 182.783824 
L 301.392112 181.897865 
L 301.93796 177.404506 
L 302.483808 176.75201 
L 302.996773 183.657952 
L 303.509739 185.259708 
L 304.042434 179.373899 
L 304.575129 179.408993 
L 305.1144 178.33151 
L 305.666824 176.257057 
L 306.199519 180.405735 
L 306.738791 178.293466 
L 307.238603 187.847111 
L 307.758145 182.880719 
L 308.29084 180.008541 
L 308.856417 172.685194 
L 309.362806 186.191163 
L 309.862619 187.880869 
L 310.382161 183.125469 
L 310.934585 175.3491 
L 311.46728 178.581905 
L 312.026281 173.918042 
L 312.578706 173.156155 
L 313.117977 173.773979 
L 313.676978 173.057974 
L 314.235979 172.553356 
L 314.762097 180.742214 
L 315.294792 178.857206 
L 315.834063 177.625265 
L 316.366758 180.10062 
L 316.912606 176.344278 
L 317.451878 178.035391 
L 317.977996 181.271889 
L 318.497538 182.367748 
L 319.030233 180.170708 
L 319.589234 173.616156 
L 320.154811 172.330189 
L 320.687506 179.13585 
L 321.246507 173.559936 
L 321.785779 177.618149 
L 322.32505 177.423761 
L 322.838015 183.948656 
L 323.383863 176.180925 
L 323.903405 182.107086 
L 324.45583 175.534873 
L 324.975372 182.614713 
L 325.527796 175.536001 
L 326.08022 175.343649 
L 326.619492 178.417967 
L 327.119304 188.191263 
L 327.61254 189.319801 
L 328.086047 194.46207 
L 328.625318 177.817454 
L 329.158013 180.773179 
L 329.670979 184.582341 
L 330.21025 178.583384 
L 330.742945 181.27289 
L 331.269064 182.557407 
L 331.814912 177.943083 
L 332.373912 174.233616 
L 332.913184 177.335869 
L 333.465608 173.869944 
L 334.018033 174.566301 
L 334.550728 179.443615 
L 335.103152 174.395318 
L 335.62927 181.237338 
L 336.175118 175.818668 
L 336.681507 188.760976 
L 337.201049 187.677335 
L 337.714015 188.6522 
L 338.220404 186.858042 
L 338.746522 184.247691 
L 339.266064 182.869316 
L 339.798759 178.992166 
L 340.324878 181.081716 
L 340.870725 175.875674 
L 341.396844 179.863429 
L 341.949268 174.679907 
L 342.508269 173.181003 
L 343.040964 178.943948 
L 343.567083 181.205002 
L 344.11293 175.699426 
L 344.652202 177.802357 
L 345.17832 181.115874 
L 345.697862 182.669312 
L 346.796135 173.67607 
L 347.322253 180.120911 
L 347.868101 175.873724 
L 348.381066 184.867816 
L 348.926914 176.134064 
L 349.472762 176.761233 
L 349.998881 182.62513 
L 350.538152 178.981778 
L 351.097153 173.920071 
L 351.636424 177.125219 
L 352.169119 179.032626 
L 352.708391 177.423618 
L 353.267392 172.841173 
L 353.819816 170.006905 
L 354.326205 186.531022 
L 354.832594 185.965389 
L 355.358712 181.769128 
L 355.891407 179.904496 
L 356.410949 182.657302 
L 356.950221 178.353501 
L 357.476339 181.63366 
L 358.009034 179.320658 
L 358.50227 189.774429 
L 359.034965 179.580641 
L 359.528201 189.32238 
L 360.093778 172.49522 
L 360.63305 177.635253 
L 361.185474 176.151089 
L 361.724746 179.217076 
L 362.257441 179.541417 
L 362.816441 174.488697 
L 363.362289 176.957372 
L 363.881831 184.243933 
L 364.401373 183.194685 
L 364.907762 186.406121 
L 365.414151 186.537473 
L 365.94027 181.829049 
L 366.499271 174.058582 
L 367.038542 177.383708 
L 367.604119 170.80768 
L 368.169697 171.123276 
L 368.689239 182.500029 
L 369.859852 154.190327 
L 370.471465 155.968646 
L 371.109384 146.828663 
L 371.780185 132.515667 
L 372.29315 183.894579 
L 372.838998 176.393496 
L 373.384846 176.740071 
L 373.924117 177.710857 
L 374.483118 173.958394 
L 375.00266 182.653594 
L 375.535355 179.858806 
L 376.074627 177.814174 
L 376.607321 179.822933 
L 377.159746 175.936139 
L 377.672711 184.640319 
L 378.218559 176.415687 
L 378.784137 171.31845 
L 379.349714 170.693589 
L 379.902138 173.439264 
L 380.44141 177.870959 
L 381.000411 174.173387 
L 381.526529 181.032183 
L 382.08553 174.66784 
L 382.637954 174.633875 
L 383.183802 167.163635 
L 383.716497 178.879411 
L 384.242616 181.198293 
L 384.768734 180.841709 
L 385.301429 179.836851 
L 385.873583 170.455661 
L 386.43916 172.481417 
L 386.971855 180.083059 
L 387.497974 180.901623 
L 388.043821 176.170673 
L 389.161823 170.363225 
L 389.694518 178.951549 
L 390.207484 183.654815 
L 391.305756 173.004819 
L 391.851604 175.8333 
L 392.377722 181.059818 
L 392.936723 173.715187 
L 393.5023 171.369126 
L 394.061301 171.329696 
L 394.580843 182.953279 
L 395.100385 182.471029 
L 395.639657 178.270603 
L 396.165775 181.516818 
L 396.718199 175.728718 
L 397.264047 176.08711 
L 397.829625 173.126026 
L 398.375473 175.90436 
L 398.487273 274.262335 
L 398.487273 274.262335 
" clip-path="url(#pabe649488d)" style="fill: none; stroke: #1f77b4; stroke-width: 1.5; stroke-linecap: square"/>
   </g>
   <g id="patch_3">
    <path d="M 57.6 307.584 
L 57.6 41.472 
" style="fill: none; stroke: #000000; stroke-width: 0.8; stroke-linejoin: miter; stroke-linecap: square"/>
   </g>
   <g id="patch_4">
    <path d="M 414.72 307.584 
L 414.72 41.472 
" style="fill: none; stroke: #000000; stroke-width: 0.8; stroke-linejoin: miter; stroke-linecap: square"/>
   </g>
   <g id="patch_5">
    <path d="M 57.6 307.584 
L 414.72 307.584 
" style="fill: none; stroke: #000000; stroke-width: 0.8; stroke-linejoin: miter; stroke-linecap: square"/>
   </g>
   <g id="patch_6">
    <path d="M 57.6 41.472 
L 414.72 41.472 
" style="fill: none; stroke: #000000; stroke-width: 0.8; stroke-linejoin: miter; stroke-linecap: square"/>
   </g>
   <g id="text_17">
    <!-- learning curve -->
    <g transform="translate(192.96375 35.472) scale(0.12 -0.12)">
     <defs>
      <path id="DejaVuSans-6c" d="M 603 4863 
L 1178 4863 
L 1178 0 
L 603 0 
L 603 4863 
z
" transform="scale(0.015625)"/>
      <path id="DejaVuSans-6e" d="M 3513 2113 
L 3513 0 
L 2938 0 
L 2938 2094 
Q 2938 2591 2744 2837 
Q 2550 3084 2163 3084 
Q 1697 3084 1428 2787 
Q 1159 2491 1159 1978 
L 1159 0 
L 581 0 
L 581 3500 
L 1159 3500 
L 1159 2956 
Q 1366 3272 1645 3428 
Q 1925 3584 2291 3584 
Q 2894 3584 3203 3211 
Q 3513 2838 3513 2113 
z
" transform="scale(0.015625)"/>
      <path id="DejaVuSans-67" d="M 2906 1791 
Q 2906 2416 2648 2759 
Q 2391 3103 1925 3103 
Q 1463 3103 1205 2759 
Q 947 2416 947 1791 
Q 947 1169 1205 825 
Q 1463 481 1925 481 
Q 2391 481 2648 825 
Q 2906 1169 2906 1791 
z
M 3481 434 
Q 3481 -459 3084 -895 
Q 2688 -1331 1869 -1331 
Q 1566 -1331 1297 -1286 
Q 1028 -1241 775 -1147 
L 775 -588 
Q 1028 -725 1275 -790 
Q 1522 -856 1778 -856 
Q 2344 -856 2625 -561 
Q 2906 -266 2906 331 
L 2906 616 
Q 2728 306 2450 153 
Q 2172 0 1784 0 
Q 1141 0 747 490 
Q 353 981 353 1791 
Q 353 2603 747 3093 
Q 1141 3584 1784 3584 
Q 2172 3584 2450 3431 
Q 2728 3278 2906 2969 
L 2906 3500 
L 3481 3500 
L 3481 434 
z
" transform="scale(0.015625)"/>
      <path id="DejaVuSans-20" transform="scale(0.015625)"/>
      <path id="DejaVuSans-63" d="M 3122 3366 
L 3122 2828 
Q 2878 2963 2633 3030 
Q 2388 3097 2138 3097 
Q 1578 3097 1268 2742 
Q 959 2388 959 1747 
Q 959 1106 1268 751 
Q 1578 397 2138 397 
Q 2388 397 2633 464 
Q 2878 531 3122 666 
L 3122 134 
Q 2881 22 2623 -34 
Q 2366 -91 2075 -91 
Q 1284 -91 818 406 
Q 353 903 353 1747 
Q 353 2603 823 3093 
Q 1294 3584 2113 3584 
Q 2378 3584 2631 3529 
Q 2884 3475 3122 3366 
z
" transform="scale(0.015625)"/>
      <path id="DejaVuSans-75" d="M 544 1381 
L 544 3500 
L 1119 3500 
L 1119 1403 
Q 1119 906 1312 657 
Q 1506 409 1894 409 
Q 2359 409 2629 706 
Q 2900 1003 2900 1516 
L 2900 3500 
L 3475 3500 
L 3475 0 
L 2900 0 
L 2900 538 
Q 2691 219 2414 64 
Q 2138 -91 1772 -91 
Q 1169 -91 856 284 
Q 544 659 544 1381 
z
M 1991 3584 
L 1991 3584 
z
" transform="scale(0.015625)"/>
      <path id="DejaVuSans-76" d="M 191 3500 
L 800 3500 
L 1894 563 
L 2988 3500 
L 3597 3500 
L 2284 0 
L 1503 0 
L 191 3500 
z
" transform="scale(0.015625)"/>
     </defs>
     <use xlink:href="#DejaVuSans-6c"/>
     <use xlink:href="#DejaVuSans-65" x="27.783203"/>
     <use xlink:href="#DejaVuSans-61" x="89.306641"/>
     <use xlink:href="#DejaVuSans-72" x="150.585938"/>
     <use xlink:href="#DejaVuSans-6e" x="189.949219"/>
     <use xlink:href="#DejaVuSans-69" x="253.328125"/>
     <use xlink:href="#DejaVuSans-6e" x="281.111328"/>
     <use xlink:href="#DejaVuSans-67" x="344.490234"/>
     <use xlink:href="#DejaVuSans-20" x="407.966797"/>
     <use xlink:href="#DejaVuSans-63" x="439.753906"/>
     <use xlink:href="#DejaVuSans-75" x="494.734375"/>
     <use xlink:href="#DejaVuSans-72" x="558.113281"/>
     <use xlink:href="#DejaVuSans-76" x="599.226562"/>
     <use xlink:href="#DejaVuSans-65" x="658.40625"/>
    </g>
   </g>
  </g>
 </g>
 <defs>
  <clipPath id="pabe649488d">
   <rect x="57.6" y="41.472" width="357.12" height="266.112"/>
  </clipPath>
 </defs>
</svg>
