<?xml version="1.0" encoding="utf-8" standalone="no"?>
<!DOCTYPE svg PUBLIC "-//W3C//DTD SVG 1.1//EN"
  "http://www.w3.org/Graphics/SVG/1.1/DTD/svg11.dtd">
<svg xmlns:xlink="http://www.w3.org/1999/xlink" width="460.8pt" height="345.6pt" viewBox="0 0 460.8 345.6" xmlns="http://www.w3.org/2000/svg" version="1.1">
 <metadata>
  <rdf:RDF xmlns:dc="http://purl.org/dc/elements/1.1/" xmlns:cc="http://creativecommons.org/ns#" xmlns:rdf="http://www.w3.org/1999/02/22-rdf-syntax-ns#">
   <cc:Work>
    <dc:type rdf:resource="http://purl.org/dc/dcmitype/StillImage"/>
    <dc:date>2023-08-18T21:41:09.378838</dc:date>
    <dc:format>image/svg+xml</dc:format>
    <dc:creator>
     <cc:Agent>
      <dc:title>Matplotlib v3.7.1, https://matplotlib.org/</dc:title>
     </cc:Agent>
    </dc:creator>
   </cc:Work>
  </rdf:RDF>
 </metadata>
 <defs>
  <style type="text/css">*{stroke-linejoin: round; stroke-linecap: butt}</style>
 </defs>
 <g id="figure_1">
  <g id="patch_1">
   <path d="M 0 345.6 
L 460.8 345.6 
L 460.8 0 
L 0 0 
z
" style="fill: #ffffff"/>
  </g>
  <g id="axes_1">
   <g id="patch_2">
    <path d="M 57.6 307.584 
L 414.72 307.584 
L 414.72 41.472 
L 57.6 41.472 
z
" style="fill: #ffffff"/>
   </g>
   <g id="matplotlib.axis_1">
    <g id="xtick_1">
     <g id="line2d_1">
      <defs>
       <path id="m0b3066c254" d="M 0 0 
L 0 3.5 
" style="stroke: #000000; stroke-width: 0.8"/>
      </defs>
      <g>
       <use xlink:href="#m0b3066c254" x="72.834252" y="307.584" style="stroke: #000000; stroke-width: 0.8"/>
      </g>
     </g>
     <g id="text_1">
      <!-- 0 -->
      <g transform="translate(69.653002 322.182437) scale(0.1 -0.1)">
       <defs>
        <path id="DejaVuSans-30" d="M 2034 4250 
Q 1547 4250 1301 3770 
Q 1056 3291 1056 2328 
Q 1056 1369 1301 889 
Q 1547 409 2034 409 
Q 2525 409 2770 889 
Q 3016 1369 3016 2328 
Q 3016 3291 2770 3770 
Q 2525 4250 2034 4250 
z
M 2034 4750 
Q 2819 4750 3233 4129 
Q 3647 3509 3647 2328 
Q 3647 1150 3233 529 
Q 2819 -91 2034 -91 
Q 1250 -91 836 529 
Q 422 1150 422 2328 
Q 422 3509 836 4129 
Q 1250 4750 2034 4750 
z
" transform="scale(0.015625)"/>
       </defs>
       <use xlink:href="#DejaVuSans-30"/>
      </g>
     </g>
    </g>
    <g id="xtick_2">
     <g id="line2d_2">
      <g>
       <use xlink:href="#m0b3066c254" x="138.094071" y="307.584" style="stroke: #000000; stroke-width: 0.8"/>
      </g>
     </g>
     <g id="text_2">
      <!-- 10000 -->
      <g transform="translate(122.187821 322.182437) scale(0.1 -0.1)">
       <defs>
        <path id="DejaVuSans-31" d="M 794 531 
L 1825 531 
L 1825 4091 
L 703 3866 
L 703 4441 
L 1819 4666 
L 2450 4666 
L 2450 531 
L 3481 531 
L 3481 0 
L 794 0 
L 794 531 
z
" transform="scale(0.015625)"/>
       </defs>
       <use xlink:href="#DejaVuSans-31"/>
       <use xlink:href="#DejaVuSans-30" x="63.623047"/>
       <use xlink:href="#DejaVuSans-30" x="127.246094"/>
       <use xlink:href="#DejaVuSans-30" x="190.869141"/>
       <use xlink:href="#DejaVuSans-30" x="254.492188"/>
      </g>
     </g>
    </g>
    <g id="xtick_3">
     <g id="line2d_3">
      <g>
       <use xlink:href="#m0b3066c254" x="203.353889" y="307.584" style="stroke: #000000; stroke-width: 0.8"/>
      </g>
     </g>
     <g id="text_3">
      <!-- 20000 -->
      <g transform="translate(187.447639 322.182437) scale(0.1 -0.1)">
       <defs>
        <path id="DejaVuSans-32" d="M 1228 531 
L 3431 531 
L 3431 0 
L 469 0 
L 469 531 
Q 828 903 1448 1529 
Q 2069 2156 2228 2338 
Q 2531 2678 2651 2914 
Q 2772 3150 2772 3378 
Q 2772 3750 2511 3984 
Q 2250 4219 1831 4219 
Q 1534 4219 1204 4116 
Q 875 4013 500 3803 
L 500 4441 
Q 881 4594 1212 4672 
Q 1544 4750 1819 4750 
Q 2544 4750 2975 4387 
Q 3406 4025 3406 3419 
Q 3406 3131 3298 2873 
Q 3191 2616 2906 2266 
Q 2828 2175 2409 1742 
Q 1991 1309 1228 531 
z
" transform="scale(0.015625)"/>
       </defs>
       <use xlink:href="#DejaVuSans-32"/>
       <use xlink:href="#DejaVuSans-30" x="63.623047"/>
       <use xlink:href="#DejaVuSans-30" x="127.246094"/>
       <use xlink:href="#DejaVuSans-30" x="190.869141"/>
       <use xlink:href="#DejaVuSans-30" x="254.492188"/>
      </g>
     </g>
    </g>
    <g id="xtick_4">
     <g id="line2d_4">
      <g>
       <use xlink:href="#m0b3066c254" x="268.613708" y="307.584" style="stroke: #000000; stroke-width: 0.8"/>
      </g>
     </g>
     <g id="text_4">
      <!-- 30000 -->
      <g transform="translate(252.707458 322.182437) scale(0.1 -0.1)">
       <defs>
        <path id="DejaVuSans-33" d="M 2597 2516 
Q 3050 2419 3304 2112 
Q 3559 1806 3559 1356 
Q 3559 666 3084 287 
Q 2609 -91 1734 -91 
Q 1441 -91 1130 -33 
Q 819 25 488 141 
L 488 750 
Q 750 597 1062 519 
Q 1375 441 1716 441 
Q 2309 441 2620 675 
Q 2931 909 2931 1356 
Q 2931 1769 2642 2001 
Q 2353 2234 1838 2234 
L 1294 2234 
L 1294 2753 
L 1863 2753 
Q 2328 2753 2575 2939 
Q 2822 3125 2822 3475 
Q 2822 3834 2567 4026 
Q 2313 4219 1838 4219 
Q 1578 4219 1281 4162 
Q 984 4106 628 3988 
L 628 4550 
Q 988 4650 1302 4700 
Q 1616 4750 1894 4750 
Q 2613 4750 3031 4423 
Q 3450 4097 3450 3541 
Q 3450 3153 3228 2886 
Q 3006 2619 2597 2516 
z
" transform="scale(0.015625)"/>
       </defs>
       <use xlink:href="#DejaVuSans-33"/>
       <use xlink:href="#DejaVuSans-30" x="63.623047"/>
       <use xlink:href="#DejaVuSans-30" x="127.246094"/>
       <use xlink:href="#DejaVuSans-30" x="190.869141"/>
       <use xlink:href="#DejaVuSans-30" x="254.492188"/>
      </g>
     </g>
    </g>
    <g id="xtick_5">
     <g id="line2d_5">
      <g>
       <use xlink:href="#m0b3066c254" x="333.873526" y="307.584" style="stroke: #000000; stroke-width: 0.8"/>
      </g>
     </g>
     <g id="text_5">
      <!-- 40000 -->
      <g transform="translate(317.967276 322.182437) scale(0.1 -0.1)">
       <defs>
        <path id="DejaVuSans-34" d="M 2419 4116 
L 825 1625 
L 2419 1625 
L 2419 4116 
z
M 2253 4666 
L 3047 4666 
L 3047 1625 
L 3713 1625 
L 3713 1100 
L 3047 1100 
L 3047 0 
L 2419 0 
L 2419 1100 
L 313 1100 
L 313 1709 
L 2253 4666 
z
" transform="scale(0.015625)"/>
       </defs>
       <use xlink:href="#DejaVuSans-34"/>
       <use xlink:href="#DejaVuSans-30" x="63.623047"/>
       <use xlink:href="#DejaVuSans-30" x="127.246094"/>
       <use xlink:href="#DejaVuSans-30" x="190.869141"/>
       <use xlink:href="#DejaVuSans-30" x="254.492188"/>
      </g>
     </g>
    </g>
    <g id="xtick_6">
     <g id="line2d_6">
      <g>
       <use xlink:href="#m0b3066c254" x="399.133345" y="307.584" style="stroke: #000000; stroke-width: 0.8"/>
      </g>
     </g>
     <g id="text_6">
      <!-- 50000 -->
      <g transform="translate(383.227095 322.182437) scale(0.1 -0.1)">
       <defs>
        <path id="DejaVuSans-35" d="M 691 4666 
L 3169 4666 
L 3169 4134 
L 1269 4134 
L 1269 2991 
Q 1406 3038 1543 3061 
Q 1681 3084 1819 3084 
Q 2600 3084 3056 2656 
Q 3513 2228 3513 1497 
Q 3513 744 3044 326 
Q 2575 -91 1722 -91 
Q 1428 -91 1123 -41 
Q 819 9 494 109 
L 494 744 
Q 775 591 1075 516 
Q 1375 441 1709 441 
Q 2250 441 2565 725 
Q 2881 1009 2881 1497 
Q 2881 1984 2565 2268 
Q 2250 2553 1709 2553 
Q 1456 2553 1204 2497 
Q 953 2441 691 2322 
L 691 4666 
z
" transform="scale(0.015625)"/>
       </defs>
       <use xlink:href="#DejaVuSans-35"/>
       <use xlink:href="#DejaVuSans-30" x="63.623047"/>
       <use xlink:href="#DejaVuSans-30" x="127.246094"/>
       <use xlink:href="#DejaVuSans-30" x="190.869141"/>
       <use xlink:href="#DejaVuSans-30" x="254.492188"/>
      </g>
     </g>
    </g>
    <g id="text_7">
     <!-- timesteps -->
     <g transform="translate(211.443594 335.860562) scale(0.1 -0.1)">
      <defs>
       <path id="DejaVuSans-74" d="M 1172 4494 
L 1172 3500 
L 2356 3500 
L 2356 3053 
L 1172 3053 
L 1172 1153 
Q 1172 725 1289 603 
Q 1406 481 1766 481 
L 2356 481 
L 2356 0 
L 1766 0 
Q 1100 0 847 248 
Q 594 497 594 1153 
L 594 3053 
L 172 3053 
L 172 3500 
L 594 3500 
L 594 4494 
L 1172 4494 
z
" transform="scale(0.015625)"/>
       <path id="DejaVuSans-69" d="M 603 3500 
L 1178 3500 
L 1178 0 
L 603 0 
L 603 3500 
z
M 603 4863 
L 1178 4863 
L 1178 4134 
L 603 4134 
L 603 4863 
z
" transform="scale(0.015625)"/>
       <path id="DejaVuSans-6d" d="M 3328 2828 
Q 3544 3216 3844 3400 
Q 4144 3584 4550 3584 
Q 5097 3584 5394 3201 
Q 5691 2819 5691 2113 
L 5691 0 
L 5113 0 
L 5113 2094 
Q 5113 2597 4934 2840 
Q 4756 3084 4391 3084 
Q 3944 3084 3684 2787 
Q 3425 2491 3425 1978 
L 3425 0 
L 2847 0 
L 2847 2094 
Q 2847 2600 2669 2842 
Q 2491 3084 2119 3084 
Q 1678 3084 1418 2786 
Q 1159 2488 1159 1978 
L 1159 0 
L 581 0 
L 581 3500 
L 1159 3500 
L 1159 2956 
Q 1356 3278 1631 3431 
Q 1906 3584 2284 3584 
Q 2666 3584 2933 3390 
Q 3200 3197 3328 2828 
z
" transform="scale(0.015625)"/>
       <path id="DejaVuSans-65" d="M 3597 1894 
L 3597 1613 
L 953 1613 
Q 991 1019 1311 708 
Q 1631 397 2203 397 
Q 2534 397 2845 478 
Q 3156 559 3463 722 
L 3463 178 
Q 3153 47 2828 -22 
Q 2503 -91 2169 -91 
Q 1331 -91 842 396 
Q 353 884 353 1716 
Q 353 2575 817 3079 
Q 1281 3584 2069 3584 
Q 2775 3584 3186 3129 
Q 3597 2675 3597 1894 
z
M 3022 2063 
Q 3016 2534 2758 2815 
Q 2500 3097 2075 3097 
Q 1594 3097 1305 2825 
Q 1016 2553 972 2059 
L 3022 2063 
z
" transform="scale(0.015625)"/>
       <path id="DejaVuSans-73" d="M 2834 3397 
L 2834 2853 
Q 2591 2978 2328 3040 
Q 2066 3103 1784 3103 
Q 1356 3103 1142 2972 
Q 928 2841 928 2578 
Q 928 2378 1081 2264 
Q 1234 2150 1697 2047 
L 1894 2003 
Q 2506 1872 2764 1633 
Q 3022 1394 3022 966 
Q 3022 478 2636 193 
Q 2250 -91 1575 -91 
Q 1294 -91 989 -36 
Q 684 19 347 128 
L 347 722 
Q 666 556 975 473 
Q 1284 391 1588 391 
Q 1994 391 2212 530 
Q 2431 669 2431 922 
Q 2431 1156 2273 1281 
Q 2116 1406 1581 1522 
L 1381 1569 
Q 847 1681 609 1914 
Q 372 2147 372 2553 
Q 372 3047 722 3315 
Q 1072 3584 1716 3584 
Q 2034 3584 2315 3537 
Q 2597 3491 2834 3397 
z
" transform="scale(0.015625)"/>
       <path id="DejaVuSans-70" d="M 1159 525 
L 1159 -1331 
L 581 -1331 
L 581 3500 
L 1159 3500 
L 1159 2969 
Q 1341 3281 1617 3432 
Q 1894 3584 2278 3584 
Q 2916 3584 3314 3078 
Q 3713 2572 3713 1747 
Q 3713 922 3314 415 
Q 2916 -91 2278 -91 
Q 1894 -91 1617 61 
Q 1341 213 1159 525 
z
M 3116 1747 
Q 3116 2381 2855 2742 
Q 2594 3103 2138 3103 
Q 1681 3103 1420 2742 
Q 1159 2381 1159 1747 
Q 1159 1113 1420 752 
Q 1681 391 2138 391 
Q 2594 391 2855 752 
Q 3116 1113 3116 1747 
z
" transform="scale(0.015625)"/>
      </defs>
      <use xlink:href="#DejaVuSans-74"/>
      <use xlink:href="#DejaVuSans-69" x="39.208984"/>
      <use xlink:href="#DejaVuSans-6d" x="66.992188"/>
      <use xlink:href="#DejaVuSans-65" x="164.404297"/>
      <use xlink:href="#DejaVuSans-73" x="225.927734"/>
      <use xlink:href="#DejaVuSans-74" x="278.027344"/>
      <use xlink:href="#DejaVuSans-65" x="317.236328"/>
      <use xlink:href="#DejaVuSans-70" x="378.759766"/>
      <use xlink:href="#DejaVuSans-73" x="442.236328"/>
     </g>
    </g>
   </g>
   <g id="matplotlib.axis_2">
    <g id="ytick_1">
     <g id="line2d_7">
      <defs>
       <path id="mf85d81f7e6" d="M 0 0 
L -3.5 0 
" style="stroke: #000000; stroke-width: 0.8"/>
      </defs>
      <g>
       <use xlink:href="#mf85d81f7e6" x="57.6" y="299.615309" style="stroke: #000000; stroke-width: 0.8"/>
      </g>
     </g>
     <g id="text_8">
      <!-- 0 -->
      <g transform="translate(44.2375 303.414528) scale(0.1 -0.1)">
       <use xlink:href="#DejaVuSans-30"/>
      </g>
     </g>
    </g>
    <g id="ytick_2">
     <g id="line2d_8">
      <g>
       <use xlink:href="#mf85d81f7e6" x="57.6" y="259.958499" style="stroke: #000000; stroke-width: 0.8"/>
      </g>
     </g>
     <g id="text_9">
      <!-- 100 -->
      <g transform="translate(31.5125 263.757718) scale(0.1 -0.1)">
       <use xlink:href="#DejaVuSans-31"/>
       <use xlink:href="#DejaVuSans-30" x="63.623047"/>
       <use xlink:href="#DejaVuSans-30" x="127.246094"/>
      </g>
     </g>
    </g>
    <g id="ytick_3">
     <g id="line2d_9">
      <g>
       <use xlink:href="#mf85d81f7e6" x="57.6" y="220.301689" style="stroke: #000000; stroke-width: 0.8"/>
      </g>
     </g>
     <g id="text_10">
      <!-- 200 -->
      <g transform="translate(31.5125 224.100908) scale(0.1 -0.1)">
       <use xlink:href="#DejaVuSans-32"/>
       <use xlink:href="#DejaVuSans-30" x="63.623047"/>
       <use xlink:href="#DejaVuSans-30" x="127.246094"/>
      </g>
     </g>
    </g>
    <g id="ytick_4">
     <g id="line2d_10">
      <g>
       <use xlink:href="#mf85d81f7e6" x="57.6" y="180.644879" style="stroke: #000000; stroke-width: 0.8"/>
      </g>
     </g>
     <g id="text_11">
      <!-- 300 -->
      <g transform="translate(31.5125 184.444098) scale(0.1 -0.1)">
       <use xlink:href="#DejaVuSans-33"/>
       <use xlink:href="#DejaVuSans-30" x="63.623047"/>
       <use xlink:href="#DejaVuSans-30" x="127.246094"/>
      </g>
     </g>
    </g>
    <g id="ytick_5">
     <g id="line2d_11">
      <g>
       <use xlink:href="#mf85d81f7e6" x="57.6" y="140.988069" style="stroke: #000000; stroke-width: 0.8"/>
      </g>
     </g>
     <g id="text_12">
      <!-- 400 -->
      <g transform="translate(31.5125 144.787288) scale(0.1 -0.1)">
       <use xlink:href="#DejaVuSans-34"/>
       <use xlink:href="#DejaVuSans-30" x="63.623047"/>
       <use xlink:href="#DejaVuSans-30" x="127.246094"/>
      </g>
     </g>
    </g>
    <g id="ytick_6">
     <g id="line2d_12">
      <g>
       <use xlink:href="#mf85d81f7e6" x="57.6" y="101.331259" style="stroke: #000000; stroke-width: 0.8"/>
      </g>
     </g>
     <g id="text_13">
      <!-- 500 -->
      <g transform="translate(31.5125 105.130478) scale(0.1 -0.1)">
       <use xlink:href="#DejaVuSans-35"/>
       <use xlink:href="#DejaVuSans-30" x="63.623047"/>
       <use xlink:href="#DejaVuSans-30" x="127.246094"/>
      </g>
     </g>
    </g>
    <g id="ytick_7">
     <g id="line2d_13">
      <g>
       <use xlink:href="#mf85d81f7e6" x="57.6" y="61.674449" style="stroke: #000000; stroke-width: 0.8"/>
      </g>
     </g>
     <g id="text_14">
      <!-- 600 -->
      <g transform="translate(31.5125 65.473668) scale(0.1 -0.1)">
       <defs>
        <path id="DejaVuSans-36" d="M 2113 2584 
Q 1688 2584 1439 2293 
Q 1191 2003 1191 1497 
Q 1191 994 1439 701 
Q 1688 409 2113 409 
Q 2538 409 2786 701 
Q 3034 994 3034 1497 
Q 3034 2003 2786 2293 
Q 2538 2584 2113 2584 
z
M 3366 4563 
L 3366 3988 
Q 3128 4100 2886 4159 
Q 2644 4219 2406 4219 
Q 1781 4219 1451 3797 
Q 1122 3375 1075 2522 
Q 1259 2794 1537 2939 
Q 1816 3084 2150 3084 
Q 2853 3084 3261 2657 
Q 3669 2231 3669 1497 
Q 3669 778 3244 343 
Q 2819 -91 2113 -91 
Q 1303 -91 875 529 
Q 447 1150 447 2328 
Q 447 3434 972 4092 
Q 1497 4750 2381 4750 
Q 2619 4750 2861 4703 
Q 3103 4656 3366 4563 
z
" transform="scale(0.015625)"/>
       </defs>
       <use xlink:href="#DejaVuSans-36"/>
       <use xlink:href="#DejaVuSans-30" x="63.623047"/>
       <use xlink:href="#DejaVuSans-30" x="127.246094"/>
      </g>
     </g>
    </g>
    <g id="text_15">
     <!-- mean episode rewards -->
     <g transform="translate(25.432812 231.360031) rotate(-90) scale(0.1 -0.1)">
      <defs>
       <path id="DejaVuSans-61" d="M 2194 1759 
Q 1497 1759 1228 1600 
Q 959 1441 959 1056 
Q 959 750 1161 570 
Q 1363 391 1709 391 
Q 2188 391 2477 730 
Q 2766 1069 2766 1631 
L 2766 1759 
L 2194 1759 
z
M 3341 1997 
L 3341 0 
L 2766 0 
L 2766 531 
Q 2569 213 2275 61 
Q 1981 -91 1556 -91 
Q 1019 -91 701 211 
Q 384 513 384 1019 
Q 384 1609 779 1909 
Q 1175 2209 1959 2209 
L 2766 2209 
L 2766 2266 
Q 2766 2663 2505 2880 
Q 2244 3097 1772 3097 
Q 1472 3097 1187 3025 
Q 903 2953 641 2809 
L 641 3341 
Q 956 3463 1253 3523 
Q 1550 3584 1831 3584 
Q 2591 3584 2966 3190 
Q 3341 2797 3341 1997 
z
" transform="scale(0.015625)"/>
       <path id="DejaVuSans-6e" d="M 3513 2113 
L 3513 0 
L 2938 0 
L 2938 2094 
Q 2938 2591 2744 2837 
Q 2550 3084 2163 3084 
Q 1697 3084 1428 2787 
Q 1159 2491 1159 1978 
L 1159 0 
L 581 0 
L 581 3500 
L 1159 3500 
L 1159 2956 
Q 1366 3272 1645 3428 
Q 1925 3584 2291 3584 
Q 2894 3584 3203 3211 
Q 3513 2838 3513 2113 
z
" transform="scale(0.015625)"/>
       <path id="DejaVuSans-20" transform="scale(0.015625)"/>
       <path id="DejaVuSans-6f" d="M 1959 3097 
Q 1497 3097 1228 2736 
Q 959 2375 959 1747 
Q 959 1119 1226 758 
Q 1494 397 1959 397 
Q 2419 397 2687 759 
Q 2956 1122 2956 1747 
Q 2956 2369 2687 2733 
Q 2419 3097 1959 3097 
z
M 1959 3584 
Q 2709 3584 3137 3096 
Q 3566 2609 3566 1747 
Q 3566 888 3137 398 
Q 2709 -91 1959 -91 
Q 1206 -91 779 398 
Q 353 888 353 1747 
Q 353 2609 779 3096 
Q 1206 3584 1959 3584 
z
" transform="scale(0.015625)"/>
       <path id="DejaVuSans-64" d="M 2906 2969 
L 2906 4863 
L 3481 4863 
L 3481 0 
L 2906 0 
L 2906 525 
Q 2725 213 2448 61 
Q 2172 -91 1784 -91 
Q 1150 -91 751 415 
Q 353 922 353 1747 
Q 353 2572 751 3078 
Q 1150 3584 1784 3584 
Q 2172 3584 2448 3432 
Q 2725 3281 2906 2969 
z
M 947 1747 
Q 947 1113 1208 752 
Q 1469 391 1925 391 
Q 2381 391 2643 752 
Q 2906 1113 2906 1747 
Q 2906 2381 2643 2742 
Q 2381 3103 1925 3103 
Q 1469 3103 1208 2742 
Q 947 2381 947 1747 
z
" transform="scale(0.015625)"/>
       <path id="DejaVuSans-72" d="M 2631 2963 
Q 2534 3019 2420 3045 
Q 2306 3072 2169 3072 
Q 1681 3072 1420 2755 
Q 1159 2438 1159 1844 
L 1159 0 
L 581 0 
L 581 3500 
L 1159 3500 
L 1159 2956 
Q 1341 3275 1631 3429 
Q 1922 3584 2338 3584 
Q 2397 3584 2469 3576 
Q 2541 3569 2628 3553 
L 2631 2963 
z
" transform="scale(0.015625)"/>
       <path id="DejaVuSans-77" d="M 269 3500 
L 844 3500 
L 1563 769 
L 2278 3500 
L 2956 3500 
L 3675 769 
L 4391 3500 
L 4966 3500 
L 4050 0 
L 3372 0 
L 2619 2869 
L 1863 0 
L 1184 0 
L 269 3500 
z
" transform="scale(0.015625)"/>
      </defs>
      <use xlink:href="#DejaVuSans-6d"/>
      <use xlink:href="#DejaVuSans-65" x="97.412109"/>
      <use xlink:href="#DejaVuSans-61" x="158.935547"/>
      <use xlink:href="#DejaVuSans-6e" x="220.214844"/>
      <use xlink:href="#DejaVuSans-20" x="283.59375"/>
      <use xlink:href="#DejaVuSans-65" x="315.380859"/>
      <use xlink:href="#DejaVuSans-70" x="376.904297"/>
      <use xlink:href="#DejaVuSans-69" x="440.380859"/>
      <use xlink:href="#DejaVuSans-73" x="468.164062"/>
      <use xlink:href="#DejaVuSans-6f" x="520.263672"/>
      <use xlink:href="#DejaVuSans-64" x="581.445312"/>
      <use xlink:href="#DejaVuSans-65" x="644.921875"/>
      <use xlink:href="#DejaVuSans-20" x="706.445312"/>
      <use xlink:href="#DejaVuSans-72" x="738.232422"/>
      <use xlink:href="#DejaVuSans-65" x="777.095703"/>
      <use xlink:href="#DejaVuSans-77" x="838.619141"/>
      <use xlink:href="#DejaVuSans-61" x="920.40625"/>
      <use xlink:href="#DejaVuSans-72" x="981.685547"/>
      <use xlink:href="#DejaVuSans-64" x="1021.048828"/>
      <use xlink:href="#DejaVuSans-73" x="1084.525391"/>
     </g>
    </g>
   </g>
   <g id="line2d_14">
    <path d="M 74.178604 291.363974 
L 75.255391 292.897441 
L 77.095718 290.708386 
L 79.066565 290.492581 
L 80.358709 291.272547 
L 81.42897 291.834978 
L 82.688485 292.098118 
L 84.045889 292.012803 
L 85.853586 291.882061 
L 87.439399 291.81323 
L 88.70544 292.067904 
L 90.473981 291.643924 
L 91.648658 292.456752 
L 93.364991 292.496513 
L 94.278628 292.660443 
L 96.575774 291.941613 
L 97.659087 292.078337 
L 98.722822 292.440117 
L 100.060648 292.812688 
L 101.711722 292.902783 
L 102.886399 292.985674 
L 104.3939 293.145342 
L 106.058026 292.776894 
L 107.937508 292.584479 
L 109.216601 292.411486 
L 110.782837 292.750098 
L 111.937935 292.737851 
L 113.177872 292.640893 
L 114.111087 292.735957 
L 115.32492 292.880616 
L 116.62359 292.826536 
L 118.013624 293.070341 
L 119.534178 293.10621 
L 120.715381 293.665149 
L 122.092363 293.435392 
L 123.521553 293.597805 
L 124.487398 293.695028 
L 125.805647 293.783511 
L 127.397986 293.344449 
L 128.866332 293.261924 
L 130.954646 292.694394 
L 132.018382 292.712142 
L 133.036435 293.043146 
L 134.054488 293.269472 
L 135.255269 293.586487 
L 136.397315 293.834097 
L 137.545888 293.681226 
L 139.549365 292.901049 
L 141.676835 292.513497 
L 144.417747 291.26871 
L 146.891094 290.117964 
L 149.573273 287.888828 
L 151.622431 286.220874 
L 153.632433 284.420178 
L 155.877371 282.406191 
L 158.722699 279.559514 
L 164.707025 273.111324 
L 171.748559 266.952222 
L 178.972821 259.512171 
L 186.764843 251.760549 
L 194.047839 244.432838 
L 201.559244 238.163917 
L 208.222272 232.119176 
L 214.944033 226.229756 
L 221.881152 219.728363 
L 228.863952 213.835286 
L 236.049058 210.961048 
L 243.488678 207.892037 
L 250.673784 206.791077 
L 257.963305 206.441516 
L 265.690068 204.938408 
L 273.782285 203.039424 
L 283.603888 199.829872 
L 288.589738 205.102917 
L 290.410487 213.944242 
L 292.3226 223.011196 
L 294.280394 232.705835 
L 296.427442 242.959367 
L 298.8029 252.450068 
L 308.631029 258.926718 
L 317.643409 257.985209 
L 325.663841 257.302313 
L 333.325344 257.867565 
L 340.973795 250.051596 
L 348.459096 240.116372 
L 356.270696 230.097778 
L 365.191713 218.621502 
L 374.367244 206.643302 
L 383.340469 194.785172 
L 391.328271 187.478983 
L 398.487273 189.711103 
" clip-path="url(#pe948142f75)" style="fill: none; stroke: #1f77b4; stroke-width: 1.5; stroke-linecap: square"/>
   </g>
   <g id="line2d_15">
    <path d="M 74.18513 294.489684 
L 75.601268 294.507856 
L 77.278446 293.523535 
L 79.033935 292.352411 
L 80.561015 292.290956 
L 82.218614 291.964175 
L 83.824005 291.94235 
L 84.998682 292.297954 
L 86.186411 292.499017 
L 87.524237 292.50456 
L 89.083947 292.285243 
L 90.637131 292.190284 
L 91.805281 292.589756 
L 93.502037 292.682526 
L 94.859441 292.810276 
L 95.81876 293.326085 
L 97.071749 293.541874 
L 98.252951 293.545326 
L 99.499414 293.65381 
L 101.202695 293.446031 
L 103.199646 293.259484 
L 104.517894 293.27232 
L 105.979714 293.053496 
L 107.859197 292.964946 
L 109.692998 292.60055 
L 110.945986 292.315186 
L 112.205501 292.193963 
L 114.685374 290.65817 
L 116.05583 290.426402 
L 117.674273 290.451048 
L 118.985996 290.593962 
L 120.3434 290.54718 
L 122.027103 290.250347 
L 123.227884 290.787004 
L 124.480872 291.145632 
L 125.968796 291.176788 
L 127.267467 291.344306 
L 128.553085 292.809916 
L 129.68208 292.964258 
L 131.307049 292.898696 
L 132.644876 293.115775 
L 133.832604 293.196184 
L 134.79845 293.709211 
L 136.03186 293.652197 
L 137.226115 293.794792 
L 138.700987 293.700494 
L 140.397742 293.510037 
L 142.681836 292.213399 
L 145.592424 290.061781 
L 148.222394 288.557854 
L 151.008989 286.171801 
L 154.082726 283.292755 
L 159.166466 277.909623 
L 165.568454 271.119982 
L 172.316319 263.676649 
L 179.20123 256.088187 
L 186.249291 248.003602 
L 193.245143 240.380553 
L 202.335836 231.212008 
L 210.649937 224.481585 
L 219.799363 220.706335 
L 224.889629 221.307371 
L 241.302474 208.794662 
L 250.340959 204.381607 
L 258.935677 200.921725 
L 267.778382 197.686733 
L 277.293264 194.720893 
L 286.109865 193.752307 
L 294.358706 196.067671 
L 301.857059 196.413457 
L 309.022587 194.502831 
L 316.566622 187.80211 
L 324.352119 196.229907 
L 331.987518 198.099193 
L 340.353826 198.450341 
L 349.516305 198.211047 
L 358.613524 198.225085 
L 367.873892 196.624989 
L 377.284358 194.154102 
L 385.924758 191.021604 
L 394.623891 187.717612 
" clip-path="url(#pe948142f75)" style="fill: none; stroke: #ff7f0e; stroke-width: 1.5; stroke-linecap: square"/>
   </g>
   <g id="line2d_16">
    <path d="M 74.067663 293.015982 
L 75.438119 292.986348 
L 76.971725 292.991399 
L 78.237765 293.557692 
L 80.66543 290.97408 
L 82.199036 291.198848 
L 83.52381 291.309239 
L 85.08352 291.426725 
L 86.329983 291.593649 
L 87.667809 291.646343 
L 88.901219 291.878198 
L 90.108526 292.108256 
L 91.59645 292.132903 
L 92.823334 292.137145 
L 94.148109 293.518004 
L 95.518565 293.69451 
L 97.019541 293.776047 
L 98.755452 293.635699 
L 99.923603 293.673949 
L 101.261429 293.896727 
L 102.475262 293.805153 
L 103.786984 293.55574 
L 105.627311 293.001953 
L 107.095657 292.871868 
L 108.838094 292.516072 
L 110.234654 292.389599 
L 111.317967 292.656581 
L 112.96904 292.701375 
L 114.776737 292.138683 
L 116.18635 291.90016 
L 117.302292 292.063196 
L 118.97947 291.899879 
L 120.199828 292.532404 
L 121.955317 291.852135 
L 123.351878 291.97995 
L 124.741912 292.049331 
L 126.25594 291.525571 
L 127.698182 291.81532 
L 128.905488 292.416616 
L 130.080165 292.735929 
L 131.979226 291.809 
L 134.074066 291.12057 
L 135.294424 291.189438 
L 136.299426 291.97408 
L 137.72209 292.000715 
L 139.340533 291.74214 
L 140.841509 291.910989 
L 143.295278 290.401791 
L 147.008562 287.899002 
L 149.455805 285.967971 
L 151.707269 284.821152 
L 155.263929 281.962939 
L 161.261306 274.362077 
L 167.226054 266.457784 
L 173.993497 257.102249 
L 180.89146 247.590191 
L 187.848156 237.767289 
L 195.307354 228.550817 
L 202.760025 220.524648 
L 210.480261 211.726914 
L 218.252706 202.870829 
L 226.129566 195.846177 
L 234.221783 192.130085 
L 242.57504 190.018375 
L 248.905243 191.210989 
L 255.209341 192.432113 
L 262.172564 192.929023 
L 271.087055 192.446453 
L 280.960865 190.643969 
L 289.222758 190.030561 
L 297.621697 188.613879 
L 305.759597 187.962379 
L 314.308633 187.28177 
L 322.518318 185.389793 
L 330.480016 182.30199 
L 338.572233 179.016573 
L 346.79497 176.512228 
L 355.487578 174.688173 
L 364.193238 173.876324 
L 372.468183 172.792337 
L 382.759656 169.124099 
L 391.210803 169.405485 
" clip-path="url(#pe948142f75)" style="fill: none; stroke: #2ca02c; stroke-width: 1.5; stroke-linecap: square"/>
   </g>
   <g id="line2d_17">
    <path d="M 74.021981 293.123544 
L 75.797048 291.58687 
L 77.630849 290.673601 
L 78.798999 291.59589 
L 80.606696 290.316096 
L 82.185984 290.385035 
L 83.954525 290.597008 
L 85.305403 291.129587 
L 86.277775 291.632467 
L 87.667809 291.753083 
L 89.018687 291.722468 
L 90.382617 292.199716 
L 92.222944 292.168201 
L 93.808758 291.865607 
L 95.094376 292.7087 
L 96.673664 292.862793 
L 98.135484 293.06295 
L 99.623408 292.630903 
L 100.954708 292.235061 
L 102.220748 292.282408 
L 103.408477 292.436844 
L 104.915979 292.09724 
L 106.077604 292.665297 
L 107.278384 293.057464 
L 108.955562 292.89179 
L 110.704525 292.683465 
L 112.061929 292.680083 
L 113.608587 292.624803 
L 115.109563 292.533022 
L 117.099987 291.859184 
L 118.228982 291.774683 
L 119.325347 292.064907 
L 120.643595 292.011825 
L 121.955317 292.028139 
L 123.208306 292.115481 
L 124.520028 292.586114 
L 125.779543 292.614055 
L 127.071687 293.061648 
L 128.18763 293.495752 
L 129.479775 294.123273 
L 130.961172 293.906822 
L 132.383836 293.76839 
L 133.649877 293.876318 
L 134.804976 293.763069 
L 135.927445 293.977026 
L 137.226115 293.787988 
L 138.785825 293.61959 
L 140.280275 293.286709 
L 142.414271 292.403384 
L 145.357488 290.258824 
L 149.827786 286.27496 
L 154.389447 281.209602 
L 159.845168 274.422199 
L 165.340045 267.851311 
L 171.285214 260.438565 
L 177.90256 252.189467 
L 185.270393 243.017067 
L 193.649754 232.990904 
L 201.676712 223.641321 
L 209.879871 215.522559 
L 217.802413 209.89799 
L 226.501547 204.933872 
L 234.724284 202.317098 
L 243.828029 198.355113 
L 252.722942 194.777732 
L 262.459707 192.432435 
L 273.149265 189.754882 
L 284.582785 186.640199 
L 293.386335 185.866035 
L 301.72654 185.75119 
L 309.479406 185.557197 
L 316.462207 186.541622 
L 326.016244 185.804181 
L 333.227454 186.984466 
L 340.262463 188.883048 
L 348.772343 189.448877 
L 357.223489 191.262942 
L 365.876941 193.985959 
L 377.212572 191.876168 
L 385.148166 192.095648 
L 393.246909 192.266658 
" clip-path="url(#pe948142f75)" style="fill: none; stroke: #d62728; stroke-width: 1.5; stroke-linecap: square"/>
   </g>
   <g id="line2d_18">
    <path d="M 74.256916 294.292687 
L 75.836204 292.555139 
L 77.448121 292.615787 
L 78.825103 292.868665 
L 79.99978 293.164799 
L 81.448548 293.047755 
L 82.655855 293.286563 
L 84.567967 292.550396 
L 85.984105 292.857811 
L 87.478555 292.792099 
L 89.651707 292.057148 
L 91.035215 292.185801 
L 92.869016 291.458006 
L 94.448304 291.380922 
L 95.923176 291.187355 
L 97.274054 291.463778 
L 98.429153 291.419032 
L 99.688667 292.124801 
L 101.059124 291.911715 
L 102.279482 292.198321 
L 103.604257 292.882523 
L 105.177018 292.821983 
L 106.625786 293.54026 
L 107.846145 293.696993 
L 109.347121 293.590494 
L 110.743681 293.392645 
L 111.970565 293.385181 
L 113.079982 293.436678 
L 114.483068 293.394176 
L 115.729531 293.444812 
L 116.975993 293.516105 
L 118.268138 293.607357 
L 119.44934 293.841045 
L 120.91116 293.809447 
L 122.190253 294.018218 
L 123.482397 294.085023 
L 125.498926 293.275574 
L 127.026005 293.20037 
L 128.396462 293.335589 
L 130.367308 292.404544 
L 132.096693 291.775066 
L 133.33663 291.931311 
L 134.563514 291.738424 
L 136.606147 290.9909 
L 138.100597 290.965763 
L 139.412319 290.76145 
L 142.225017 290.421417 
L 144.809306 288.441134 
L 148.450804 285.632683 
L 152.947205 281.168025 
L 158.761855 274.730726 
L 164.772284 267.503643 
L 170.991545 259.852693 
L 177.713306 251.840609 
L 184.265392 243.080456 
L 190.967576 234.166486 
L 198.263623 225.617398 
L 206.375419 216.771817 
L 214.239227 208.993828 
L 220.419332 206.123589 
L 226.762586 204.745885 
L 233.151522 203.471414 
L 239.91244 202.162264 
L 247.221539 201.242996 
L 254.909146 199.938943 
L 262.916526 198.795834 
L 270.264781 198.710529 
L 276.966965 200.37212 
L 284.178175 201.082515 
L 291.330651 199.456529 
L 299.670855 196.601122 
L 308.20684 193.482983 
L 317.088701 190.012977 
L 325.579003 186.815904 
L 334.323819 183.49761 
L 343.603765 179.013974 
L 352.857608 175.655862 
L 361.595897 172.723775 
L 369.831686 170.897769 
L 378.191469 168.773284 
L 387.895604 164.07323 
L 397.730259 159.270283 
" clip-path="url(#pe948142f75)" style="fill: none; stroke: #9467bd; stroke-width: 1.5; stroke-linecap: square"/>
   </g>
   <g id="line2d_19">
    <path d="M 74.008929 295.182732 
L 75.366333 294.076943 
L 76.671529 294.465507 
L 77.865784 294.395999 
L 79.073091 294.40532 
L 80.554489 293.600017 
L 81.853159 293.588504 
L 83.066992 293.551092 
L 84.561441 293.31813 
L 86.062417 293.240414 
L 87.334984 293.179282 
L 88.881641 292.667786 
L 90.323883 292.469898 
L 92.281678 291.438257 
L 94.063271 290.918042 
L 95.074798 291.42577 
L 96.399573 291.375746 
L 97.743925 291.353261 
L 98.931653 291.557287 
L 100.047596 291.754018 
L 101.450682 291.573662 
L 102.436106 292.340243 
L 104.165491 291.834821 
L 105.542473 292.757079 
L 107.304488 292.663659 
L 108.7141 292.522411 
L 110.051927 292.614543 
L 111.396279 292.613165 
L 112.675371 292.668982 
L 113.739106 292.697415 
L 115.605537 292.127827 
L 117.093461 291.860333 
L 118.738008 292.209689 
L 120.265088 292.299578 
L 121.381031 292.991625 
L 122.790643 292.983715 
L 123.984898 293.054879 
L 125.081263 293.30014 
L 126.686654 293.07787 
L 127.939643 292.944225 
L 129.890911 292.982247 
L 131.039484 293.17335 
L 132.449096 293.240264 
L 133.538935 293.237838 
L 135.216113 292.606607 
L 136.397315 292.773157 
L 138.439948 292.178164 
L 139.523261 292.108378 
L 141.722517 291.440098 
L 144.574371 289.242426 
L 147.184763 287.772649 
L 149.508013 285.709456 
L 154.617857 280.067817 
L 160.700072 273.010615 
L 167.121638 265.766912 
L 174.097913 256.95773 
L 181.739837 247.542125 
L 190.334555 235.650051 
L 201.637556 221.499484 
L 211.609256 211.830748 
L 219.629688 203.78477 
L 227.969893 194.525622 
L 236.434091 188.014975 
L 243.860659 185.258339 
L 251.554791 182.037733 
L 259.281554 180.199802 
L 266.381822 181.390608 
L 274.695923 182.233373 
L 282.403107 187.357306 
L 290.899936 188.842577 
L 300.597545 185.929231 
L 309.936225 182.767249 
L 318.589677 180.568348 
L 327.399752 175.794071 
L 336.829796 171.250925 
L 346.214158 166.51965 
L 354.717512 162.667752 
L 364.924148 157.353843 
L 377.251728 147.49513 
L 389.553204 141.411112 
" clip-path="url(#pe948142f75)" style="fill: none; stroke: #8c564b; stroke-width: 1.5; stroke-linecap: square"/>
   </g>
   <g id="line2d_20">
    <path d="M 74.080715 294.492634 
L 75.477275 293.553908 
L 76.867309 293.362103 
L 78.133349 293.750683 
L 79.516857 293.559196 
L 81.115723 293.194992 
L 82.655855 292.794562 
L 84.326506 292.420228 
L 85.481605 292.697829 
L 86.825957 292.702218 
L 88.261673 292.731188 
L 89.606025 292.728426 
L 91.335411 292.122778 
L 92.784179 291.914258 
L 94.030641 291.935749 
L 95.466357 292.053104 
L 96.751976 292.459727 
L 98.533569 292.548844 
L 100.308636 292.025851 
L 101.405001 292.302115 
L 102.853769 291.857169 
L 104.217699 292.183272 
L 105.411953 292.93076 
L 106.68452 293.093102 
L 108.087606 293.079083 
L 109.588582 293.116744 
L 110.893778 292.880207 
L 112.185923 293.302874 
L 113.23008 293.853292 
L 114.587484 293.731404 
L 115.807843 294.237849 
L 116.858526 294.198006 
L 118.555281 293.705354 
L 119.834373 293.582311 
L 121.113466 293.712817 
L 122.288143 293.818736 
L 123.456293 294.108321 
L 124.559184 294.120519 
L 126.588765 293.610166 
L 127.887435 293.502179 
L 129.107794 293.385086 
L 130.236788 293.353464 
L 132.051011 293.447213 
L 133.27137 293.504366 
L 135.209587 292.984692 
L 136.540887 293.033769 
L 138.178908 292.77749 
L 139.471053 292.600269 
L 141.853036 291.86971 
L 144.430799 290.185244 
L 147.152133 287.917763 
L 152.529542 281.149918 
L 157.822114 275.070203 
L 163.277835 268.307144 
L 169.033751 261.907954 
L 174.783141 254.704282 
L 180.865356 247.080224 
L 187.665429 237.756228 
L 195.105048 228.867256 
L 203.634506 218.592111 
L 211.504841 211.254163 
L 220.850047 204.779819 
L 230.032103 197.53169 
L 237.941593 193.530316 
L 249.355535 182.070521 
L 259.85584 173.988128 
L 270.192995 167.054993 
L 279.557779 162.920996 
L 288.126394 159.382354 
L 296.309975 158.536906 
L 305.642129 152.356508 
L 316.690616 145.841861 
L 328.646215 137.789434 
L 339.420611 128.994159 
L 352.909815 121.862231 
L 371.162987 105.937145 
L 381.989591 102.198632 
L 396.033504 89.085062 
" clip-path="url(#pe948142f75)" style="fill: none; stroke: #e377c2; stroke-width: 1.5; stroke-linecap: square"/>
   </g>
   <g id="line2d_21">
    <path d="M 74.041559 293.021199 
L 75.398963 293.094483 
L 77.036984 291.707932 
L 78.818577 290.981234 
L 79.927994 291.67316 
L 81.507282 291.652792 
L 83.243193 291.809411 
L 84.574493 291.988997 
L 86.401768 291.807167 
L 87.713491 292.066431 
L 89.136155 292.021828 
L 90.826384 291.405291 
L 92.22947 291.823357 
L 93.65866 292.144403 
L 95.662137 291.301756 
L 97.430678 291.277139 
L 99.133959 291.099146 
L 100.719773 291.013242 
L 102.011917 291.357362 
L 103.395425 291.231062 
L 104.746303 291.413238 
L 106.0515 291.891694 
L 107.806989 291.648619 
L 109.321017 291.610249 
L 110.600109 292.515616 
L 112.048877 292.530236 
L 113.967516 292.326395 
L 115.755635 292.032241 
L 117.295766 291.802511 
L 118.659697 291.829277 
L 119.801743 291.929143 
L 120.917686 292.183784 
L 122.56876 292.143698 
L 123.756488 292.484479 
L 125.453244 292.011593 
L 126.902012 292.144928 
L 128.096266 292.67376 
L 129.297047 293.14994 
L 130.34773 293.493762 
L 131.698608 293.436991 
L 133.36926 293.073698 
L 135.007281 292.728002 
L 136.371211 293.078094 
L 137.617674 292.979638 
L 138.975078 293.253787 
L 140.887191 293.057847 
L 144.189338 290.523779 
L 146.845412 288.105288 
L 151.322236 282.701814 
L 156.771431 276.091105 
L 162.546925 269.319832 
L 168.59651 261.676136 
L 175.194277 252.906874 
L 183.149449 242.714979 
L 191.874687 231.654122 
L 201.304731 220.963929 
L 212.046497 210.58445 
L 221.959463 200.182167 
L 232.016002 192.571298 
L 242.320527 186.750133 
L 256.553693 180.391331 
L 268.835591 174.419154 
L 277.750082 171.936055 
L 285.87493 170.320581 
L 294.35218 169.582001 
L 302.372612 170.701451 
L 315.672563 169.671171 
L 327.856571 169.704941 
L 337.756486 170.274509 
L 346.729711 171.050227 
L 353.3079 175.992491 
L 377.258254 171.026351 
L 388.195799 169.227745 
L 396.594738 169.17804 
" clip-path="url(#pe948142f75)" style="fill: none; stroke: #7f7f7f; stroke-width: 1.5; stroke-linecap: square"/>
   </g>
   <g id="line2d_22">
    <path d="M 74.531007 291.268916 
L 76.058087 291.820221 
L 77.70916 291.180759 
L 79.138351 291.74221 
L 80.391339 292.029549 
L 81.546438 292.536292 
L 83.02131 292.762423 
L 84.378714 293.137571 
L 86.029787 292.96599 
L 87.439399 293.142217 
L 88.601024 293.526764 
L 90.369565 293.156755 
L 91.792229 293.397386 
L 93.117004 293.532957 
L 94.689765 293.495443 
L 96.438728 292.853843 
L 97.900548 292.681881 
L 99.094803 292.495722 
L 100.158538 292.819059 
L 101.659514 292.562185 
L 103.043022 292.297601 
L 104.876823 292.065818 
L 106.573578 291.520351 
L 108.583581 290.570243 
L 109.830043 290.742103 
L 111.409331 291.032747 
L 112.681897 290.920198 
L 114.058879 290.84436 
L 115.213978 290.770017 
L 116.75411 290.815324 
L 118.202878 290.738657 
L 119.664698 291.209538 
L 120.917686 291.812506 
L 122.34035 292.621067 
L 123.90006 292.591858 
L 125.055159 292.843517 
L 126.667076 292.752242 
L 128.38341 292.416417 
L 129.669028 292.530585 
L 131.228738 292.176895 
L 132.794973 292.225883 
L 134.498255 292.285124 
L 136.025334 292.233475 
L 137.415369 292.098541 
L 139.125176 291.622866 
L 142.492582 289.506569 
L 145.461904 287.779686 
L 149.410123 283.840922 
L 155.276981 275.995618 
L 161.907378 267.316689 
L 168.851023 257.786244 
L 176.760513 245.31957 
L 185.642374 231.28252 
L 193.604072 219.434328 
L 201.487458 208.299104 
L 208.998864 199.739192 
L 216.712574 191.038568 
L 225.209402 183.939723 
L 233.177626 180.793365 
L 240.734713 179.372495 
L 249.473003 175.129141 
L 258.008987 174.345072 
L 266.420978 174.784201 
L 274.695923 174.152926 
L 283.558206 171.897702 
L 293.353705 166.415589 
L 305.12005 155.957599 
L 317.206169 147.839531 
L 336.014048 128.130341 
L 348.406888 120.409943 
L 365.557168 106.037572 
L 377.055948 104.311388 
L 383.470988 109.278754 
L 392.907558 105.382626 
" clip-path="url(#pe948142f75)" style="fill: none; stroke: #bcbd22; stroke-width: 1.5; stroke-linecap: square"/>
   </g>
   <g id="line2d_23">
    <path d="M 74.465748 293.814136 
L 75.986301 293.744345 
L 77.441595 293.468532 
L 78.675006 293.640579 
L 79.914942 293.840699 
L 81.481178 293.372574 
L 83.132251 293.148951 
L 84.470078 293.225019 
L 85.703488 293.436574 
L 86.995633 293.56421 
L 88.437875 293.439115 
L 89.867065 293.368377 
L 91.263625 293.449249 
L 93.214893 293.089158 
L 94.245999 293.186546 
L 95.564247 293.350466 
L 97.019541 293.313582 
L 98.500939 293.20386 
L 99.486362 293.196254 
L 100.811136 292.997126 
L 102.762405 292.586792 
L 104.58968 292.304978 
L 105.751305 292.310297 
L 107.650365 292.038832 
L 108.864198 291.944298 
L 110.900304 291.330049 
L 112.662319 291.212197 
L 114.143717 291.279019 
L 115.246608 291.239937 
L 116.453915 291.370399 
L 117.693851 291.850811 
L 118.966418 292.124873 
L 120.493498 292.124921 
L 121.844376 292.727888 
L 123.397559 292.207202 
L 125.19873 292.725953 
L 126.321199 293.099067 
L 127.750389 293.03522 
L 129.388411 292.661759 
L 130.439094 292.857779 
L 132.142375 292.412624 
L 134.00228 291.675773 
L 135.659879 291.442853 
L 137.291375 291.128543 
L 138.361636 291.638428 
L 140.750145 290.49336 
L 143.510636 288.608325 
L 145.50106 287.201833 
L 150.467332 281.948538 
L 156.099255 275.117482 
L 162.429457 267.907677 
L 170.985019 258.750188 
L 179.697205 248.155178 
L 188.937995 236.356975 
L 196.795277 225.847685 
L 202.642557 219.528458 
L 208.822662 213.220066 
L 216.973613 205.268524 
L 225.483494 199.6537 
L 234.03253 195.649869 
L 242.80345 192.010427 
L 251.469953 190.07806 
L 261.050095 187.494967 
L 269.847118 187.364955 
L 277.919758 186.276829 
L 286.853827 181.323307 
L 297.158352 176.536118 
L 306.529662 173.442156 
L 315.907498 171.095868 
L 326.616635 166.841279 
L 337.299667 162.970795 
L 347.75429 160.691885 
L 358.065341 159.467696 
L 369.590225 154.072782 
L 379.437932 149.057255 
L 391.400056 140.914976 
" clip-path="url(#pe948142f75)" style="fill: none; stroke: #17becf; stroke-width: 1.5; stroke-linecap: square"/>
   </g>
   <g id="line2d_24">
    <path d="M 74.289546 292.987501 
L 75.829678 291.467457 
L 76.965199 292.326754 
L 78.048512 292.924988 
L 79.575591 292.792822 
L 81.011307 293.121468 
L 82.616699 293.090383 
L 84.065467 292.964856 
L 85.462027 292.996243 
L 87.1131 292.638959 
L 88.424823 292.712803 
L 89.579921 293.143163 
L 91.354989 292.596474 
L 92.731971 292.523081 
L 94.069797 292.517936 
L 95.590351 292.276691 
L 96.804183 292.339709 
L 98.585776 292.218406 
L 99.949707 292.235901 
L 101.189643 292.728776 
L 102.344742 292.703227 
L 103.871822 292.461921 
L 105.568577 292.456993 
L 106.925981 292.462665 
L 108.224652 292.648446 
L 109.373224 292.916786 
L 110.861148 292.721983 
L 112.277286 293.157912 
L 114.195925 292.699153 
L 115.899206 292.266505 
L 117.171773 292.287893 
L 118.614015 292.520417 
L 120.043205 292.838789 
L 121.100414 293.063998 
L 122.510026 292.982414 
L 124.187203 292.517984 
L 125.498926 292.681735 
L 126.75844 292.532596 
L 127.972273 293.197956 
L 129.244839 293.582337 
L 131.019906 293.329146 
L 132.742766 293.108482 
L 134.419943 293.199513 
L 135.757769 292.854919 
L 136.99118 292.979426 
L 138.531311 293.172639 
L 139.660306 293.337492 
L 142.583946 291.569284 
L 145.331385 289.392466 
L 147.360965 287.735387 
L 151.400548 283.646637 
L 158.618284 274.227651 
L 167.846022 261.064826 
L 175.1747 250.509712 
L 181.159025 242.558799 
L 188.924943 232.116646 
L 197.898168 220.20575 
L 206.042594 211.793849 
L 216.321015 199.452692 
L 224.067356 190.496151 
L 231.115416 184.810274 
L 237.393411 185.124749 
L 245.603096 186.512846 
L 252.80778 186.890504 
L 260.802107 182.739659 
L 271.263256 176.812551 
L 279.433786 176.243989 
L 286.729833 175.622781 
L 297.517281 172.069778 
L 308.396093 164.481199 
L 321.030394 151.208394 
L 336.673173 133.882198 
L 347.52588 133.017525 
L 360.806253 127.130553 
L 378.067475 110.860534 
L 393.729832 98.293679 
" clip-path="url(#pe948142f75)" style="fill: none; stroke: #1f77b4; stroke-width: 1.5; stroke-linecap: square"/>
   </g>
   <g id="line2d_25">
    <path d="M 74.276494 294.367837 
L 75.301073 295.085797 
L 76.756367 293.108978 
L 78.087667 293.419553 
L 79.46465 293.143407 
L 81.050463 293.024705 
L 82.218614 293.321184 
L 83.758746 293.14975 
L 84.835533 293.416521 
L 86.010209 293.521382 
L 87.504659 293.126946 
L 88.822908 293.023223 
L 90.336935 293.138783 
L 91.655184 292.996814 
L 93.15616 292.945017 
L 94.533142 292.945488 
L 96.282105 292.045957 
L 97.678665 292.109215 
L 99.251427 291.82209 
L 100.478311 291.724846 
L 101.940131 291.945574 
L 103.395425 291.753548 
L 104.446108 292.230454 
L 105.894876 292.25522 
L 107.532898 292.066366 
L 108.772834 292.199812 
L 110.293388 292.713058 
L 111.546376 292.784212 
L 113.008196 292.773979 
L 114.261185 292.698126 
L 115.546803 292.799333 
L 116.714954 292.93941 
L 118.065832 292.647602 
L 119.04473 292.942867 
L 120.552231 293.046368 
L 121.942266 293.018132 
L 122.947267 293.418848 
L 124.422139 293.357914 
L 125.485874 293.575619 
L 126.85633 293.573007 
L 127.815649 293.738918 
L 129.088216 293.777895 
L 130.51088 293.739976 
L 131.920492 293.629952 
L 133.33663 293.891384 
L 135.026859 293.471296 
L 136.371211 293.238285 
L 138.302902 293.042328 
L 140.365112 292.2429 
L 143.719467 290.313468 
L 147.230445 286.455047 
L 152.594802 279.841875 
L 158.677017 272.205174 
L 164.804914 264.562055 
L 170.906707 255.997786 
L 177.628469 246.098919 
L 185.152926 235.062984 
L 192.520759 224.470635 
L 200.188788 213.679257 
L 207.902499 204.179779 
L 215.263806 197.564541 
L 221.920308 195.124447 
L 229.000998 193.441122 
L 236.995326 189.415041 
L 245.159329 186.363696 
L 253.512586 184.091414 
L 260.423601 184.787105 
L 267.902376 184.401987 
L 276.418782 182.801698 
L 285.868404 179.494957 
L 297.928418 171.805598 
L 310.889018 161.594966 
L 319.699094 158.074514 
L 328.704949 155.907247 
L 339.727332 150.695804 
L 351.748191 147.618473 
L 364.911096 139.273755 
L 376.53387 131.602121 
L 386.192323 128.327996 
L 394.630417 128.681116 
" clip-path="url(#pe948142f75)" style="fill: none; stroke: #ff7f0e; stroke-width: 1.5; stroke-linecap: square"/>
   </g>
   <g id="line2d_26">
    <path d="M 74.243864 293.621488 
L 75.633898 293.21401 
L 76.984777 292.71063 
L 78.413967 292.193355 
L 79.490754 292.635219 
L 80.932996 292.223575 
L 82.35566 292.18706 
L 83.549914 292.534265 
L 85.14878 291.949428 
L 86.427872 292.127011 
L 87.713491 292.19981 
L 89.730019 291.417284 
L 90.956904 291.614603 
L 92.059795 291.987586 
L 93.449829 291.910142 
L 95.264052 291.925413 
L 96.601878 292.077226 
L 98.259477 291.706589 
L 99.806135 292.152555 
L 101.50289 291.948974 
L 102.89945 291.733997 
L 104.198121 292.502228 
L 105.646889 292.529399 
L 106.952085 292.40156 
L 108.028872 292.499606 
L 109.347121 293.017919 
L 110.567479 292.955933 
L 111.879202 293.206469 
L 112.897255 293.556831 
L 114.59401 293.457529 
L 115.873102 293.673906 
L 117.067357 293.829111 
L 118.405183 293.792968 
L 119.729958 293.785749 
L 121.07431 293.685609 
L 122.307721 293.483956 
L 123.658599 293.551085 
L 124.918113 293.56938 
L 126.236362 293.347177 
L 127.45672 293.670412 
L 129.160001 293.157921 
L 130.837179 292.977679 
L 132.227213 292.755123 
L 133.643351 292.526149 
L 135.209587 292.433362 
L 136.442997 292.577854 
L 137.748194 292.642034 
L 139.758196 292.137684 
L 144.404695 288.213556 
L 149.677688 281.71561 
L 155.192143 275.277564 
L 161.039423 268.28873 
L 167.049852 261.016464 
L 173.066807 253.648177 
L 179.116393 245.704072 
L 185.355231 237.373911 
L 191.457024 228.95699 
L 197.695863 220.910141 
L 204.306683 215.962788 
L 211.158964 213.845168 
L 218.579005 211.120278 
L 225.95989 208.195439 
L 233.556133 205.40203 
L 241.478675 202.399859 
L 249.512159 199.665655 
L 258.061195 196.609025 
L 267.341141 194.173359 
L 289.39896 184.14943 
L 312.292104 175.602457 
L 332.209401 167.214787 
L 344.96117 162.958879 
L 352.342055 162.746743 
L 359.95135 162.458988 
L 367.397495 162.626895 
L 375.00679 162.725157 
L 382.668293 163.251138 
L 390.401581 163.20885 
L 398.206656 170.73217 
" clip-path="url(#pe948142f75)" style="fill: none; stroke: #2ca02c; stroke-width: 1.5; stroke-linecap: square"/>
   </g>
   <g id="line2d_27">
    <path d="M 74.126396 295.017114 
L 75.157502 295.137637 
L 76.567114 294.630068 
L 78.263869 293.467728 
L 79.471176 293.537232 
L 81.148353 292.544859 
L 82.616699 292.495016 
L 84.744169 291.558691 
L 86.264723 291.722118 
L 87.739595 291.732857 
L 88.809856 291.774595 
L 90.16726 291.665951 
L 91.759599 291.620708 
L 93.351939 291.632435 
L 94.800707 291.617073 
L 96.288631 291.843855 
L 97.548145 292.105819 
L 98.827238 292.976356 
L 100.13896 293.009774 
L 101.320163 293.228194 
L 102.592729 293.133889 
L 104.132861 292.779663 
L 105.588155 292.74807 
L 107.389326 292.547438 
L 109.183971 292.201584 
L 111.043876 292.355461 
L 112.322968 292.332331 
L 113.804366 292.197836 
L 115.122614 292.138513 
L 116.649694 292.168963 
L 117.935313 292.195254 
L 119.468918 292.189706 
L 121.198304 292.002243 
L 122.359928 292.637605 
L 124.03058 292.301447 
L 125.590289 292.318968 
L 126.784544 292.066875 
L 128.748865 291.468406 
L 130.47825 291.042546 
L 131.998804 290.811885 
L 133.630299 290.236999 
L 134.791924 290.615986 
L 136.769296 290.192348 
L 138.146278 290.140668 
L 141.1156 289.308207 
L 144.228494 287.131225 
L 149.749474 280.579099 
L 155.192143 274.440251 
L 162.142314 265.204751 
L 170.195375 252.693729 
L 178.254963 241.908782 
L 184.174029 233.788701 
L 192.644753 222.385647 
L 202.746973 207.217225 
L 211.922503 192.796139 
L 220.37365 180.719377 
L 229.992947 170.52806 
L 240.336628 160.093812 
L 253.479956 147.271695 
L 265.415977 138.82015 
L 275.851022 131.570267 
L 285.97282 121.169424 
L 295.265818 116.868641 
L 306.027162 112.590791 
L 317.31711 108.939507 
L 328.352546 103.774034 
L 343.003375 92.934859 
L 357.745568 85.628732 
L 369.746849 87.405807 
L 383.523196 82.564789 
L 396.836199 78.495061 
" clip-path="url(#pe948142f75)" style="fill: none; stroke: #d62728; stroke-width: 1.5; stroke-linecap: square"/>
   </g>
   <g id="line2d_28">
    <path d="M 74.139448 293.603523 
L 75.509905 293.869811 
L 76.802049 293.65609 
L 78.022408 293.467042 
L 79.438546 293.381108 
L 80.737216 293.30722 
L 82.655855 292.422343 
L 83.732642 292.662796 
L 85.488131 292.267386 
L 87.152256 292.169445 
L 88.54229 292.213656 
L 89.97148 292.093264 
L 91.211417 292.165859 
L 92.510087 292.132123 
L 94.037167 291.936949 
L 96.118955 291.457459 
L 97.743925 292.020223 
L 99.153537 291.784649 
L 100.745876 291.849738 
L 102.142437 292.003964 
L 103.264905 292.084722 
L 104.576628 292.057756 
L 106.188545 291.794503 
L 107.226176 291.882997 
L 108.596633 292.182526 
L 109.921407 292.639655 
L 111.311441 292.6775 
L 112.740631 292.684293 
L 113.843522 293.254567 
L 115.298816 293.095426 
L 116.499597 292.962949 
L 117.55028 293.279581 
L 119.116515 293.416415 
L 120.500024 293.396819 
L 121.850902 293.373657 
L 123.208306 293.547239 
L 124.846327 293.263129 
L 126.353829 293.020344 
L 127.443668 292.945721 
L 129.153475 293.175471 
L 130.367308 293.13782 
L 131.613771 293.000381 
L 132.951597 293.006103 
L 134.537411 292.884149 
L 135.823029 292.946958 
L 137.552414 292.184727 
L 139.203488 291.829856 
L 141.252646 291.153919 
L 145.814307 286.293075 
L 150.904573 280.417019 
L 156.836691 273.278624 
L 163.323516 265.413431 
L 169.542777 257.238735 
L 175.683726 249.313956 
L 182.907988 238.79434 
L 189.642801 230.806335 
L 196.01216 223.467293 
L 201.989959 217.136083 
L 208.346265 213.364442 
L 214.839617 209.873785 
L 221.652742 206.630086 
L 228.446289 204.972454 
L 236.453669 201.792292 
L 243.364684 200.357428 
L 250.954401 199.160812 
L 259.607853 193.836415 
L 269.905852 183.48131 
L 281.071807 172.561124 
L 288.093764 170.848362 
L 297.158352 164.835634 
L 305.909694 160.136608 
L 316.351265 150.86401 
L 329.77521 138.123496 
L 346.409938 115.948839 
L 363.534114 97.904983 
L 381.036797 81.009567 
L 395.296068 73.480443 
" clip-path="url(#pe948142f75)" style="fill: none; stroke: #9467bd; stroke-width: 1.5; stroke-linecap: square"/>
   </g>
   <g id="line2d_29">
    <path d="M 73.832727 295.488 
L 75.67958 290.761001 
L 77.07614 291.273603 
L 78.427019 291.867325 
L 80.16293 291.599492 
L 81.637802 292.11241 
L 83.119199 292.197036 
L 84.587545 292.260669 
L 86.121151 292.254202 
L 87.680861 292.219771 
L 89.096999 292.11756 
L 90.206416 293.063955 
L 91.511612 293.108446 
L 93.136582 292.969336 
L 94.343888 293.367176 
L 95.577299 293.38932 
L 97.463308 293.237468 
L 98.64451 293.451715 
L 99.949707 293.523981 
L 101.992339 292.841202 
L 103.140912 292.878938 
L 104.543998 292.709432 
L 105.666467 292.946263 
L 107.108709 292.975334 
L 108.896828 292.449414 
L 110.554427 292.092179 
L 111.931409 292.375578 
L 113.138716 292.333921 
L 114.130665 292.674127 
L 115.272712 293.650583 
L 116.78674 293.577873 
L 118.111514 293.401141 
L 119.416711 293.222055 
L 120.532653 293.507742 
L 121.753012 294.092308 
L 122.855903 294.40888 
L 124.676652 293.68058 
L 125.812173 293.676096 
L 127.149999 293.266707 
L 128.337728 293.215424 
L 129.68208 293.092787 
L 130.908965 293.387601 
L 132.246791 293.367915 
L 133.728189 293.068423 
L 135.000755 292.938831 
L 136.638777 292.483993 
L 138.074493 292.985948 
L 140.032287 292.403585 
L 143.236544 289.564338 
L 147.158659 285.404951 
L 152.542594 279.255006 
L 157.978737 272.325392 
L 163.760757 265.232466 
L 170.475993 256.784666 
L 178.405061 246.109908 
L 184.989776 237.994859 
L 192.103096 228.882207 
L 199.627554 218.902817 
L 206.101328 212.331159 
L 213.743252 204.354515 
L 221.965989 197.614988 
L 228.531127 195.167344 
L 235.670551 191.531367 
L 243.527834 187.318326 
L 250.621576 186.963275 
L 259.118404 181.692026 
L 268.620234 175.741934 
L 278.122063 171.627944 
L 290.880358 158.081527 
L 301.139201 150.867417 
L 312.455254 143.122116 
L 325.115659 129.369106 
L 338.996422 115.341218 
L 357.843458 92.179751 
L 373.558022 73.946439 
L 392.130966 53.568 
" clip-path="url(#pe948142f75)" style="fill: none; stroke: #8c564b; stroke-width: 1.5; stroke-linecap: square"/>
   </g>
   <g id="line2d_30">
    <path d="M 74.25039 294.353469 
L 76.123347 291.905906 
L 77.624323 292.180639 
L 78.909941 292.336488 
L 80.019358 292.716306 
L 81.239717 292.937663 
L 83.425921 291.566975 
L 85.605599 290.754952 
L 87.171834 290.84156 
L 88.450927 291.028382 
L 89.756123 290.777136 
L 91.374567 291.147732 
L 92.673237 291.164387 
L 94.213369 291.015868 
L 95.355415 291.032283 
L 96.843339 290.68703 
L 98.468309 291.401276 
L 99.995389 291.91601 
L 101.744352 291.663348 
L 103.108282 291.889629 
L 104.648414 291.811152 
L 105.82309 291.937095 
L 107.200073 292.075294 
L 108.387801 292.453517 
L 109.921407 292.285547 
L 111.409331 292.357355 
L 113.13219 292.217308 
L 114.261185 292.585878 
L 115.527225 293.073426 
L 116.878104 292.842247 
L 118.026676 293.196907 
L 119.403659 293.013149 
L 120.715381 292.950644 
L 122.066259 292.821178 
L 123.808696 292.337821 
L 124.865905 292.696707 
L 126.12542 293.301371 
L 127.613344 293.153361 
L 128.866332 293.064137 
L 130.24984 293.186758 
L 131.528933 293.194341 
L 133.134324 293.060478 
L 134.628774 293.052472 
L 135.751243 293.144899 
L 137.062965 293.58899 
L 138.439948 293.439406 
L 140.391216 292.550836 
L 143.393168 289.77898 
L 148.868467 283.488268 
L 154.80711 276.354366 
L 160.530396 269.73037 
L 167.115112 261.966789 
L 174.717881 254.35968 
L 179.671101 249.824397 
L 186.294973 243.583427 
L 195.986056 232.894778 
L 204.234897 223.267183 
L 211.909451 216.501185 
L 218.474589 214.611526 
L 224.197875 214.854176 
L 229.84285 214.6754 
L 235.944643 215.143932 
L 243.560463 212.548175 
L 252.866514 204.671868 
L 260.058146 201.59357 
L 267.236726 202.82734 
L 275.270209 202.808813 
L 283.153595 201.471521 
L 292.061561 195.957265 
L 300.786798 188.926883 
L 308.657132 183.165643 
L 316.246849 178.61919 
L 318.883346 186.924789 
L 320.4039 199.833264 
L 322.655364 209.653377 
L 324.848093 219.506861 
L 327.210499 230.186576 
L 329.957937 241.262718 
L 347.806498 245.665496 
L 380.436407 240.49811 
L 394.845775 239.946506 
" clip-path="url(#pe948142f75)" style="fill: none; stroke: #e377c2; stroke-width: 1.5; stroke-linecap: square"/>
   </g>
   <g id="line2d_31">
    <path d="M 74.31565 292.992094 
L 75.653476 292.221466 
L 77.004354 293.045671 
L 78.133349 293.27143 
L 79.327604 293.767112 
L 80.613222 293.773817 
L 82.101146 293.655738 
L 83.360661 293.73394 
L 84.802903 293.74802 
L 86.192937 293.522488 
L 87.87664 293.139258 
L 89.716967 292.623179 
L 90.911222 292.635065 
L 91.942327 292.759827 
L 93.391095 292.560011 
L 94.663661 292.554544 
L 95.707818 292.738689 
L 97.019541 292.690099 
L 98.474835 292.505168 
L 100.021492 292.740525 
L 101.346267 293.158365 
L 102.853769 293.759782 
L 104.041497 293.762118 
L 105.38585 293.664816 
L 107.258806 293.537316 
L 108.511795 293.477061 
L 110.149816 292.937265 
L 111.317967 293.10741 
L 112.812417 292.830013 
L 114.150243 292.911859 
L 116.15372 292.31283 
L 117.850475 292.23091 
L 119.299243 292.032431 
L 121.413661 291.396248 
L 122.542656 291.631017 
L 123.80217 291.711249 
L 124.989899 292.280347 
L 126.79107 291.773167 
L 127.985325 292.265905 
L 129.094742 292.238385 
L 130.44562 292.624611 
L 131.731238 292.760078 
L 132.958123 292.959614 
L 134.472151 293.23138 
L 135.731665 293.187559 
L 136.906342 293.126721 
L 138.48563 292.50641 
L 141.024236 291.264566 
L 143.158233 289.33556 
L 148.868467 282.441121 
L 156.353768 271.854508 
L 163.780335 261.292309 
L 174.574309 244.633216 
L 182.438117 233.407784 
L 190.151828 221.150693 
L 197.904694 209.068021 
L 205.827236 197.714275 
L 213.540947 186.954338 
L 219.381701 181.007876 
L 225.555279 179.665723 
L 228.955316 187.303971 
L 239.690556 182.866191 
L 251.783201 179.897475 
L 261.970258 174.194359 
L 268.287409 177.307168 
L 273.951961 181.93925 
L 280.771612 183.714366 
L 289.620843 181.663936 
L 299.266245 172.385826 
L 310.980382 159.255909 
L 314.824185 159.318705 
L 317.878345 174.388675 
L 321.741726 193.407529 
L 333.638591 197.808455 
L 346.729711 183.974445 
L 359.148654 168.016621 
L 373.218671 153.041015 
L 395.726782 135.610586 
" clip-path="url(#pe948142f75)" style="fill: none; stroke: #7f7f7f; stroke-width: 1.5; stroke-linecap: square"/>
   </g>
   <g id="patch_3">
    <path d="M 57.6 307.584 
L 57.6 41.472 
" style="fill: none; stroke: #000000; stroke-width: 0.8; stroke-linejoin: miter; stroke-linecap: square"/>
   </g>
   <g id="patch_4">
    <path d="M 414.72 307.584 
L 414.72 41.472 
" style="fill: none; stroke: #000000; stroke-width: 0.8; stroke-linejoin: miter; stroke-linecap: square"/>
   </g>
   <g id="patch_5">
    <path d="M 57.6 307.584 
L 414.72 307.584 
" style="fill: none; stroke: #000000; stroke-width: 0.8; stroke-linejoin: miter; stroke-linecap: square"/>
   </g>
   <g id="patch_6">
    <path d="M 57.6 41.472 
L 414.72 41.472 
" style="fill: none; stroke: #000000; stroke-width: 0.8; stroke-linejoin: miter; stroke-linecap: square"/>
   </g>
   <g id="text_16">
    <!-- source lr comparison -->
    <g transform="translate(173.2575 35.472) scale(0.12 -0.12)">
     <defs>
      <path id="DejaVuSans-75" d="M 544 1381 
L 544 3500 
L 1119 3500 
L 1119 1403 
Q 1119 906 1312 657 
Q 1506 409 1894 409 
Q 2359 409 2629 706 
Q 2900 1003 2900 1516 
L 2900 3500 
L 3475 3500 
L 3475 0 
L 2900 0 
L 2900 538 
Q 2691 219 2414 64 
Q 2138 -91 1772 -91 
Q 1169 -91 856 284 
Q 544 659 544 1381 
z
M 1991 3584 
L 1991 3584 
z
" transform="scale(0.015625)"/>
      <path id="DejaVuSans-63" d="M 3122 3366 
L 3122 2828 
Q 2878 2963 2633 3030 
Q 2388 3097 2138 3097 
Q 1578 3097 1268 2742 
Q 959 2388 959 1747 
Q 959 1106 1268 751 
Q 1578 397 2138 397 
Q 2388 397 2633 464 
Q 2878 531 3122 666 
L 3122 134 
Q 2881 22 2623 -34 
Q 2366 -91 2075 -91 
Q 1284 -91 818 406 
Q 353 903 353 1747 
Q 353 2603 823 3093 
Q 1294 3584 2113 3584 
Q 2378 3584 2631 3529 
Q 2884 3475 3122 3366 
z
" transform="scale(0.015625)"/>
      <path id="DejaVuSans-6c" d="M 603 4863 
L 1178 4863 
L 1178 0 
L 603 0 
L 603 4863 
z
" transform="scale(0.015625)"/>
     </defs>
     <use xlink:href="#DejaVuSans-73"/>
     <use xlink:href="#DejaVuSans-6f" x="52.099609"/>
     <use xlink:href="#DejaVuSans-75" x="113.28125"/>
     <use xlink:href="#DejaVuSans-72" x="176.660156"/>
     <use xlink:href="#DejaVuSans-63" x="215.523438"/>
     <use xlink:href="#DejaVuSans-65" x="270.503906"/>
     <use xlink:href="#DejaVuSans-20" x="332.027344"/>
     <use xlink:href="#DejaVuSans-6c" x="363.814453"/>
     <use xlink:href="#DejaVuSans-72" x="391.597656"/>
     <use xlink:href="#DejaVuSans-20" x="432.710938"/>
     <use xlink:href="#DejaVuSans-63" x="464.498047"/>
     <use xlink:href="#DejaVuSans-6f" x="519.478516"/>
     <use xlink:href="#DejaVuSans-6d" x="580.660156"/>
     <use xlink:href="#DejaVuSans-70" x="678.072266"/>
     <use xlink:href="#DejaVuSans-61" x="741.548828"/>
     <use xlink:href="#DejaVuSans-72" x="802.828125"/>
     <use xlink:href="#DejaVuSans-69" x="843.941406"/>
     <use xlink:href="#DejaVuSans-73" x="871.724609"/>
     <use xlink:href="#DejaVuSans-6f" x="923.824219"/>
     <use xlink:href="#DejaVuSans-6e" x="985.005859"/>
    </g>
   </g>
   <g id="legend_1">
    <g id="patch_7">
     <path d="M 64.6 181.575125 
L 260.625 181.575125 
Q 262.625 181.575125 262.625 179.575125 
L 262.625 48.472 
Q 262.625 46.472 260.625 46.472 
L 64.6 46.472 
Q 62.6 46.472 62.6 48.472 
L 62.6 179.575125 
Q 62.6 181.575125 64.6 181.575125 
z
" style="fill: #ffffff; opacity: 0.8; stroke: #cccccc; stroke-linejoin: miter"/>
    </g>
    <g id="line2d_32">
     <path d="M 66.6 54.570438 
L 76.6 54.570438 
L 86.6 54.570438 
" style="fill: none; stroke: #1f77b4; stroke-width: 1.5; stroke-linecap: square"/>
    </g>
    <g id="text_17">
     <!-- lr: 1.00e-04 -->
     <g transform="translate(94.6 58.070438) scale(0.1 -0.1)">
      <defs>
       <path id="DejaVuSans-3a" d="M 750 794 
L 1409 794 
L 1409 0 
L 750 0 
L 750 794 
z
M 750 3309 
L 1409 3309 
L 1409 2516 
L 750 2516 
L 750 3309 
z
" transform="scale(0.015625)"/>
       <path id="DejaVuSans-2e" d="M 684 794 
L 1344 794 
L 1344 0 
L 684 0 
L 684 794 
z
" transform="scale(0.015625)"/>
       <path id="DejaVuSans-2d" d="M 313 2009 
L 1997 2009 
L 1997 1497 
L 313 1497 
L 313 2009 
z
" transform="scale(0.015625)"/>
      </defs>
      <use xlink:href="#DejaVuSans-6c"/>
      <use xlink:href="#DejaVuSans-72" x="27.783203"/>
      <use xlink:href="#DejaVuSans-3a" x="67.146484"/>
      <use xlink:href="#DejaVuSans-20" x="100.837891"/>
      <use xlink:href="#DejaVuSans-31" x="132.625"/>
      <use xlink:href="#DejaVuSans-2e" x="196.248047"/>
      <use xlink:href="#DejaVuSans-30" x="228.035156"/>
      <use xlink:href="#DejaVuSans-30" x="291.658203"/>
      <use xlink:href="#DejaVuSans-65" x="355.28125"/>
      <use xlink:href="#DejaVuSans-2d" x="416.804688"/>
      <use xlink:href="#DejaVuSans-30" x="452.888672"/>
      <use xlink:href="#DejaVuSans-34" x="516.511719"/>
     </g>
    </g>
    <g id="line2d_33">
     <path d="M 66.6 69.248563 
L 76.6 69.248563 
L 86.6 69.248563 
" style="fill: none; stroke: #ff7f0e; stroke-width: 1.5; stroke-linecap: square"/>
    </g>
    <g id="text_18">
     <!-- lr: 1.27e-04 -->
     <g transform="translate(94.6 72.748563) scale(0.1 -0.1)">
      <defs>
       <path id="DejaVuSans-37" d="M 525 4666 
L 3525 4666 
L 3525 4397 
L 1831 0 
L 1172 0 
L 2766 4134 
L 525 4134 
L 525 4666 
z
" transform="scale(0.015625)"/>
      </defs>
      <use xlink:href="#DejaVuSans-6c"/>
      <use xlink:href="#DejaVuSans-72" x="27.783203"/>
      <use xlink:href="#DejaVuSans-3a" x="67.146484"/>
      <use xlink:href="#DejaVuSans-20" x="100.837891"/>
      <use xlink:href="#DejaVuSans-31" x="132.625"/>
      <use xlink:href="#DejaVuSans-2e" x="196.248047"/>
      <use xlink:href="#DejaVuSans-32" x="228.035156"/>
      <use xlink:href="#DejaVuSans-37" x="291.658203"/>
      <use xlink:href="#DejaVuSans-65" x="355.28125"/>
      <use xlink:href="#DejaVuSans-2d" x="416.804688"/>
      <use xlink:href="#DejaVuSans-30" x="452.888672"/>
      <use xlink:href="#DejaVuSans-34" x="516.511719"/>
     </g>
    </g>
    <g id="line2d_34">
     <path d="M 66.6 83.926688 
L 76.6 83.926688 
L 86.6 83.926688 
" style="fill: none; stroke: #2ca02c; stroke-width: 1.5; stroke-linecap: square"/>
    </g>
    <g id="text_19">
     <!-- lr: 1.62e-04 -->
     <g transform="translate(94.6 87.426688) scale(0.1 -0.1)">
      <use xlink:href="#DejaVuSans-6c"/>
      <use xlink:href="#DejaVuSans-72" x="27.783203"/>
      <use xlink:href="#DejaVuSans-3a" x="67.146484"/>
      <use xlink:href="#DejaVuSans-20" x="100.837891"/>
      <use xlink:href="#DejaVuSans-31" x="132.625"/>
      <use xlink:href="#DejaVuSans-2e" x="196.248047"/>
      <use xlink:href="#DejaVuSans-36" x="228.035156"/>
      <use xlink:href="#DejaVuSans-32" x="291.658203"/>
      <use xlink:href="#DejaVuSans-65" x="355.28125"/>
      <use xlink:href="#DejaVuSans-2d" x="416.804688"/>
      <use xlink:href="#DejaVuSans-30" x="452.888672"/>
      <use xlink:href="#DejaVuSans-34" x="516.511719"/>
     </g>
    </g>
    <g id="line2d_35">
     <path d="M 66.6 98.604813 
L 76.6 98.604813 
L 86.6 98.604813 
" style="fill: none; stroke: #d62728; stroke-width: 1.5; stroke-linecap: square"/>
    </g>
    <g id="text_20">
     <!-- lr: 2.07e-04 -->
     <g transform="translate(94.6 102.104813) scale(0.1 -0.1)">
      <use xlink:href="#DejaVuSans-6c"/>
      <use xlink:href="#DejaVuSans-72" x="27.783203"/>
      <use xlink:href="#DejaVuSans-3a" x="67.146484"/>
      <use xlink:href="#DejaVuSans-20" x="100.837891"/>
      <use xlink:href="#DejaVuSans-32" x="132.625"/>
      <use xlink:href="#DejaVuSans-2e" x="196.248047"/>
      <use xlink:href="#DejaVuSans-30" x="228.035156"/>
      <use xlink:href="#DejaVuSans-37" x="291.658203"/>
      <use xlink:href="#DejaVuSans-65" x="355.28125"/>
      <use xlink:href="#DejaVuSans-2d" x="416.804688"/>
      <use xlink:href="#DejaVuSans-30" x="452.888672"/>
      <use xlink:href="#DejaVuSans-34" x="516.511719"/>
     </g>
    </g>
    <g id="line2d_36">
     <path d="M 66.6 113.282938 
L 76.6 113.282938 
L 86.6 113.282938 
" style="fill: none; stroke: #9467bd; stroke-width: 1.5; stroke-linecap: square"/>
    </g>
    <g id="text_21">
     <!-- lr: 2.64e-04 -->
     <g transform="translate(94.6 116.782938) scale(0.1 -0.1)">
      <use xlink:href="#DejaVuSans-6c"/>
      <use xlink:href="#DejaVuSans-72" x="27.783203"/>
      <use xlink:href="#DejaVuSans-3a" x="67.146484"/>
      <use xlink:href="#DejaVuSans-20" x="100.837891"/>
      <use xlink:href="#DejaVuSans-32" x="132.625"/>
      <use xlink:href="#DejaVuSans-2e" x="196.248047"/>
      <use xlink:href="#DejaVuSans-36" x="228.035156"/>
      <use xlink:href="#DejaVuSans-34" x="291.658203"/>
      <use xlink:href="#DejaVuSans-65" x="355.28125"/>
      <use xlink:href="#DejaVuSans-2d" x="416.804688"/>
      <use xlink:href="#DejaVuSans-30" x="452.888672"/>
      <use xlink:href="#DejaVuSans-34" x="516.511719"/>
     </g>
    </g>
    <g id="line2d_37">
     <path d="M 66.6 127.961063 
L 76.6 127.961063 
L 86.6 127.961063 
" style="fill: none; stroke: #8c564b; stroke-width: 1.5; stroke-linecap: square"/>
    </g>
    <g id="text_22">
     <!-- lr: 3.36e-04 -->
     <g transform="translate(94.6 131.461063) scale(0.1 -0.1)">
      <use xlink:href="#DejaVuSans-6c"/>
      <use xlink:href="#DejaVuSans-72" x="27.783203"/>
      <use xlink:href="#DejaVuSans-3a" x="67.146484"/>
      <use xlink:href="#DejaVuSans-20" x="100.837891"/>
      <use xlink:href="#DejaVuSans-33" x="132.625"/>
      <use xlink:href="#DejaVuSans-2e" x="196.248047"/>
      <use xlink:href="#DejaVuSans-33" x="228.035156"/>
      <use xlink:href="#DejaVuSans-36" x="291.658203"/>
      <use xlink:href="#DejaVuSans-65" x="355.28125"/>
      <use xlink:href="#DejaVuSans-2d" x="416.804688"/>
      <use xlink:href="#DejaVuSans-30" x="452.888672"/>
      <use xlink:href="#DejaVuSans-34" x="516.511719"/>
     </g>
    </g>
    <g id="line2d_38">
     <path d="M 66.6 142.639188 
L 76.6 142.639188 
L 86.6 142.639188 
" style="fill: none; stroke: #e377c2; stroke-width: 1.5; stroke-linecap: square"/>
    </g>
    <g id="text_23">
     <!-- lr: 4.28e-04 -->
     <g transform="translate(94.6 146.139188) scale(0.1 -0.1)">
      <defs>
       <path id="DejaVuSans-38" d="M 2034 2216 
Q 1584 2216 1326 1975 
Q 1069 1734 1069 1313 
Q 1069 891 1326 650 
Q 1584 409 2034 409 
Q 2484 409 2743 651 
Q 3003 894 3003 1313 
Q 3003 1734 2745 1975 
Q 2488 2216 2034 2216 
z
M 1403 2484 
Q 997 2584 770 2862 
Q 544 3141 544 3541 
Q 544 4100 942 4425 
Q 1341 4750 2034 4750 
Q 2731 4750 3128 4425 
Q 3525 4100 3525 3541 
Q 3525 3141 3298 2862 
Q 3072 2584 2669 2484 
Q 3125 2378 3379 2068 
Q 3634 1759 3634 1313 
Q 3634 634 3220 271 
Q 2806 -91 2034 -91 
Q 1263 -91 848 271 
Q 434 634 434 1313 
Q 434 1759 690 2068 
Q 947 2378 1403 2484 
z
M 1172 3481 
Q 1172 3119 1398 2916 
Q 1625 2713 2034 2713 
Q 2441 2713 2670 2916 
Q 2900 3119 2900 3481 
Q 2900 3844 2670 4047 
Q 2441 4250 2034 4250 
Q 1625 4250 1398 4047 
Q 1172 3844 1172 3481 
z
" transform="scale(0.015625)"/>
      </defs>
      <use xlink:href="#DejaVuSans-6c"/>
      <use xlink:href="#DejaVuSans-72" x="27.783203"/>
      <use xlink:href="#DejaVuSans-3a" x="67.146484"/>
      <use xlink:href="#DejaVuSans-20" x="100.837891"/>
      <use xlink:href="#DejaVuSans-34" x="132.625"/>
      <use xlink:href="#DejaVuSans-2e" x="196.248047"/>
      <use xlink:href="#DejaVuSans-32" x="228.035156"/>
      <use xlink:href="#DejaVuSans-38" x="291.658203"/>
      <use xlink:href="#DejaVuSans-65" x="355.28125"/>
      <use xlink:href="#DejaVuSans-2d" x="416.804688"/>
      <use xlink:href="#DejaVuSans-30" x="452.888672"/>
      <use xlink:href="#DejaVuSans-34" x="516.511719"/>
     </g>
    </g>
    <g id="line2d_39">
     <path d="M 66.6 157.317313 
L 76.6 157.317313 
L 86.6 157.317313 
" style="fill: none; stroke: #7f7f7f; stroke-width: 1.5; stroke-linecap: square"/>
    </g>
    <g id="text_24">
     <!-- lr: 5.46e-04 -->
     <g transform="translate(94.6 160.817313) scale(0.1 -0.1)">
      <use xlink:href="#DejaVuSans-6c"/>
      <use xlink:href="#DejaVuSans-72" x="27.783203"/>
      <use xlink:href="#DejaVuSans-3a" x="67.146484"/>
      <use xlink:href="#DejaVuSans-20" x="100.837891"/>
      <use xlink:href="#DejaVuSans-35" x="132.625"/>
      <use xlink:href="#DejaVuSans-2e" x="196.248047"/>
      <use xlink:href="#DejaVuSans-34" x="228.035156"/>
      <use xlink:href="#DejaVuSans-36" x="291.658203"/>
      <use xlink:href="#DejaVuSans-65" x="355.28125"/>
      <use xlink:href="#DejaVuSans-2d" x="416.804688"/>
      <use xlink:href="#DejaVuSans-30" x="452.888672"/>
      <use xlink:href="#DejaVuSans-34" x="516.511719"/>
     </g>
    </g>
    <g id="line2d_40">
     <path d="M 66.6 171.995438 
L 76.6 171.995438 
L 86.6 171.995438 
" style="fill: none; stroke: #bcbd22; stroke-width: 1.5; stroke-linecap: square"/>
    </g>
    <g id="text_25">
     <!-- lr: 6.95e-04 -->
     <g transform="translate(94.6 175.495438) scale(0.1 -0.1)">
      <defs>
       <path id="DejaVuSans-39" d="M 703 97 
L 703 672 
Q 941 559 1184 500 
Q 1428 441 1663 441 
Q 2288 441 2617 861 
Q 2947 1281 2994 2138 
Q 2813 1869 2534 1725 
Q 2256 1581 1919 1581 
Q 1219 1581 811 2004 
Q 403 2428 403 3163 
Q 403 3881 828 4315 
Q 1253 4750 1959 4750 
Q 2769 4750 3195 4129 
Q 3622 3509 3622 2328 
Q 3622 1225 3098 567 
Q 2575 -91 1691 -91 
Q 1453 -91 1209 -44 
Q 966 3 703 97 
z
M 1959 2075 
Q 2384 2075 2632 2365 
Q 2881 2656 2881 3163 
Q 2881 3666 2632 3958 
Q 2384 4250 1959 4250 
Q 1534 4250 1286 3958 
Q 1038 3666 1038 3163 
Q 1038 2656 1286 2365 
Q 1534 2075 1959 2075 
z
" transform="scale(0.015625)"/>
      </defs>
      <use xlink:href="#DejaVuSans-6c"/>
      <use xlink:href="#DejaVuSans-72" x="27.783203"/>
      <use xlink:href="#DejaVuSans-3a" x="67.146484"/>
      <use xlink:href="#DejaVuSans-20" x="100.837891"/>
      <use xlink:href="#DejaVuSans-36" x="132.625"/>
      <use xlink:href="#DejaVuSans-2e" x="196.248047"/>
      <use xlink:href="#DejaVuSans-39" x="228.035156"/>
      <use xlink:href="#DejaVuSans-35" x="291.658203"/>
      <use xlink:href="#DejaVuSans-65" x="355.28125"/>
      <use xlink:href="#DejaVuSans-2d" x="416.804688"/>
      <use xlink:href="#DejaVuSans-30" x="452.888672"/>
      <use xlink:href="#DejaVuSans-34" x="516.511719"/>
     </g>
    </g>
    <g id="line2d_41">
     <path d="M 172.6125 54.570438 
L 182.6125 54.570438 
L 192.6125 54.570438 
" style="fill: none; stroke: #17becf; stroke-width: 1.5; stroke-linecap: square"/>
    </g>
    <g id="text_26">
     <!-- lr: 8.86e-04 -->
     <g transform="translate(200.6125 58.070438) scale(0.1 -0.1)">
      <use xlink:href="#DejaVuSans-6c"/>
      <use xlink:href="#DejaVuSans-72" x="27.783203"/>
      <use xlink:href="#DejaVuSans-3a" x="67.146484"/>
      <use xlink:href="#DejaVuSans-20" x="100.837891"/>
      <use xlink:href="#DejaVuSans-38" x="132.625"/>
      <use xlink:href="#DejaVuSans-2e" x="196.248047"/>
      <use xlink:href="#DejaVuSans-38" x="228.035156"/>
      <use xlink:href="#DejaVuSans-36" x="291.658203"/>
      <use xlink:href="#DejaVuSans-65" x="355.28125"/>
      <use xlink:href="#DejaVuSans-2d" x="416.804688"/>
      <use xlink:href="#DejaVuSans-30" x="452.888672"/>
      <use xlink:href="#DejaVuSans-34" x="516.511719"/>
     </g>
    </g>
    <g id="line2d_42">
     <path d="M 172.6125 69.248563 
L 182.6125 69.248563 
L 192.6125 69.248563 
" style="fill: none; stroke: #1f77b4; stroke-width: 1.5; stroke-linecap: square"/>
    </g>
    <g id="text_27">
     <!-- lr: 1.13e-03 -->
     <g transform="translate(200.6125 72.748563) scale(0.1 -0.1)">
      <use xlink:href="#DejaVuSans-6c"/>
      <use xlink:href="#DejaVuSans-72" x="27.783203"/>
      <use xlink:href="#DejaVuSans-3a" x="67.146484"/>
      <use xlink:href="#DejaVuSans-20" x="100.837891"/>
      <use xlink:href="#DejaVuSans-31" x="132.625"/>
      <use xlink:href="#DejaVuSans-2e" x="196.248047"/>
      <use xlink:href="#DejaVuSans-31" x="228.035156"/>
      <use xlink:href="#DejaVuSans-33" x="291.658203"/>
      <use xlink:href="#DejaVuSans-65" x="355.28125"/>
      <use xlink:href="#DejaVuSans-2d" x="416.804688"/>
      <use xlink:href="#DejaVuSans-30" x="452.888672"/>
      <use xlink:href="#DejaVuSans-33" x="516.511719"/>
     </g>
    </g>
    <g id="line2d_43">
     <path d="M 172.6125 83.926688 
L 182.6125 83.926688 
L 192.6125 83.926688 
" style="fill: none; stroke: #ff7f0e; stroke-width: 1.5; stroke-linecap: square"/>
    </g>
    <g id="text_28">
     <!-- lr: 1.44e-03 -->
     <g transform="translate(200.6125 87.426688) scale(0.1 -0.1)">
      <use xlink:href="#DejaVuSans-6c"/>
      <use xlink:href="#DejaVuSans-72" x="27.783203"/>
      <use xlink:href="#DejaVuSans-3a" x="67.146484"/>
      <use xlink:href="#DejaVuSans-20" x="100.837891"/>
      <use xlink:href="#DejaVuSans-31" x="132.625"/>
      <use xlink:href="#DejaVuSans-2e" x="196.248047"/>
      <use xlink:href="#DejaVuSans-34" x="228.035156"/>
      <use xlink:href="#DejaVuSans-34" x="291.658203"/>
      <use xlink:href="#DejaVuSans-65" x="355.28125"/>
      <use xlink:href="#DejaVuSans-2d" x="416.804688"/>
      <use xlink:href="#DejaVuSans-30" x="452.888672"/>
      <use xlink:href="#DejaVuSans-33" x="516.511719"/>
     </g>
    </g>
    <g id="line2d_44">
     <path d="M 172.6125 98.604813 
L 182.6125 98.604813 
L 192.6125 98.604813 
" style="fill: none; stroke: #2ca02c; stroke-width: 1.5; stroke-linecap: square"/>
    </g>
    <g id="text_29">
     <!-- lr: 1.83e-03 -->
     <g transform="translate(200.6125 102.104813) scale(0.1 -0.1)">
      <use xlink:href="#DejaVuSans-6c"/>
      <use xlink:href="#DejaVuSans-72" x="27.783203"/>
      <use xlink:href="#DejaVuSans-3a" x="67.146484"/>
      <use xlink:href="#DejaVuSans-20" x="100.837891"/>
      <use xlink:href="#DejaVuSans-31" x="132.625"/>
      <use xlink:href="#DejaVuSans-2e" x="196.248047"/>
      <use xlink:href="#DejaVuSans-38" x="228.035156"/>
      <use xlink:href="#DejaVuSans-33" x="291.658203"/>
      <use xlink:href="#DejaVuSans-65" x="355.28125"/>
      <use xlink:href="#DejaVuSans-2d" x="416.804688"/>
      <use xlink:href="#DejaVuSans-30" x="452.888672"/>
      <use xlink:href="#DejaVuSans-33" x="516.511719"/>
     </g>
    </g>
    <g id="line2d_45">
     <path d="M 172.6125 113.282938 
L 182.6125 113.282938 
L 192.6125 113.282938 
" style="fill: none; stroke: #d62728; stroke-width: 1.5; stroke-linecap: square"/>
    </g>
    <g id="text_30">
     <!-- lr: 2.34e-03 -->
     <g transform="translate(200.6125 116.782938) scale(0.1 -0.1)">
      <use xlink:href="#DejaVuSans-6c"/>
      <use xlink:href="#DejaVuSans-72" x="27.783203"/>
      <use xlink:href="#DejaVuSans-3a" x="67.146484"/>
      <use xlink:href="#DejaVuSans-20" x="100.837891"/>
      <use xlink:href="#DejaVuSans-32" x="132.625"/>
      <use xlink:href="#DejaVuSans-2e" x="196.248047"/>
      <use xlink:href="#DejaVuSans-33" x="228.035156"/>
      <use xlink:href="#DejaVuSans-34" x="291.658203"/>
      <use xlink:href="#DejaVuSans-65" x="355.28125"/>
      <use xlink:href="#DejaVuSans-2d" x="416.804688"/>
      <use xlink:href="#DejaVuSans-30" x="452.888672"/>
      <use xlink:href="#DejaVuSans-33" x="516.511719"/>
     </g>
    </g>
    <g id="line2d_46">
     <path d="M 172.6125 127.961063 
L 182.6125 127.961063 
L 192.6125 127.961063 
" style="fill: none; stroke: #9467bd; stroke-width: 1.5; stroke-linecap: square"/>
    </g>
    <g id="text_31">
     <!-- lr: 2.98e-03 -->
     <g transform="translate(200.6125 131.461063) scale(0.1 -0.1)">
      <use xlink:href="#DejaVuSans-6c"/>
      <use xlink:href="#DejaVuSans-72" x="27.783203"/>
      <use xlink:href="#DejaVuSans-3a" x="67.146484"/>
      <use xlink:href="#DejaVuSans-20" x="100.837891"/>
      <use xlink:href="#DejaVuSans-32" x="132.625"/>
      <use xlink:href="#DejaVuSans-2e" x="196.248047"/>
      <use xlink:href="#DejaVuSans-39" x="228.035156"/>
      <use xlink:href="#DejaVuSans-38" x="291.658203"/>
      <use xlink:href="#DejaVuSans-65" x="355.28125"/>
      <use xlink:href="#DejaVuSans-2d" x="416.804688"/>
      <use xlink:href="#DejaVuSans-30" x="452.888672"/>
      <use xlink:href="#DejaVuSans-33" x="516.511719"/>
     </g>
    </g>
    <g id="line2d_47">
     <path d="M 172.6125 142.639188 
L 182.6125 142.639188 
L 192.6125 142.639188 
" style="fill: none; stroke: #8c564b; stroke-width: 1.5; stroke-linecap: square"/>
    </g>
    <g id="text_32">
     <!-- lr: 3.79e-03 -->
     <g transform="translate(200.6125 146.139188) scale(0.1 -0.1)">
      <use xlink:href="#DejaVuSans-6c"/>
      <use xlink:href="#DejaVuSans-72" x="27.783203"/>
      <use xlink:href="#DejaVuSans-3a" x="67.146484"/>
      <use xlink:href="#DejaVuSans-20" x="100.837891"/>
      <use xlink:href="#DejaVuSans-33" x="132.625"/>
      <use xlink:href="#DejaVuSans-2e" x="196.248047"/>
      <use xlink:href="#DejaVuSans-37" x="228.035156"/>
      <use xlink:href="#DejaVuSans-39" x="291.658203"/>
      <use xlink:href="#DejaVuSans-65" x="355.28125"/>
      <use xlink:href="#DejaVuSans-2d" x="416.804688"/>
      <use xlink:href="#DejaVuSans-30" x="452.888672"/>
      <use xlink:href="#DejaVuSans-33" x="516.511719"/>
     </g>
    </g>
    <g id="line2d_48">
     <path d="M 172.6125 157.317313 
L 182.6125 157.317313 
L 192.6125 157.317313 
" style="fill: none; stroke: #e377c2; stroke-width: 1.5; stroke-linecap: square"/>
    </g>
    <g id="text_33">
     <!-- lr: 4.83e-03 -->
     <g transform="translate(200.6125 160.817313) scale(0.1 -0.1)">
      <use xlink:href="#DejaVuSans-6c"/>
      <use xlink:href="#DejaVuSans-72" x="27.783203"/>
      <use xlink:href="#DejaVuSans-3a" x="67.146484"/>
      <use xlink:href="#DejaVuSans-20" x="100.837891"/>
      <use xlink:href="#DejaVuSans-34" x="132.625"/>
      <use xlink:href="#DejaVuSans-2e" x="196.248047"/>
      <use xlink:href="#DejaVuSans-38" x="228.035156"/>
      <use xlink:href="#DejaVuSans-33" x="291.658203"/>
      <use xlink:href="#DejaVuSans-65" x="355.28125"/>
      <use xlink:href="#DejaVuSans-2d" x="416.804688"/>
      <use xlink:href="#DejaVuSans-30" x="452.888672"/>
      <use xlink:href="#DejaVuSans-33" x="516.511719"/>
     </g>
    </g>
    <g id="line2d_49">
     <path d="M 172.6125 171.995438 
L 182.6125 171.995438 
L 192.6125 171.995438 
" style="fill: none; stroke: #7f7f7f; stroke-width: 1.5; stroke-linecap: square"/>
    </g>
    <g id="text_34">
     <!-- lr: 6.16e-03 -->
     <g transform="translate(200.6125 175.495438) scale(0.1 -0.1)">
      <use xlink:href="#DejaVuSans-6c"/>
      <use xlink:href="#DejaVuSans-72" x="27.783203"/>
      <use xlink:href="#DejaVuSans-3a" x="67.146484"/>
      <use xlink:href="#DejaVuSans-20" x="100.837891"/>
      <use xlink:href="#DejaVuSans-36" x="132.625"/>
      <use xlink:href="#DejaVuSans-2e" x="196.248047"/>
      <use xlink:href="#DejaVuSans-31" x="228.035156"/>
      <use xlink:href="#DejaVuSans-36" x="291.658203"/>
      <use xlink:href="#DejaVuSans-65" x="355.28125"/>
      <use xlink:href="#DejaVuSans-2d" x="416.804688"/>
      <use xlink:href="#DejaVuSans-30" x="452.888672"/>
      <use xlink:href="#DejaVuSans-33" x="516.511719"/>
     </g>
    </g>
   </g>
  </g>
 </g>
 <defs>
  <clipPath id="pe948142f75">
   <rect x="57.6" y="41.472" width="357.12" height="266.112"/>
  </clipPath>
 </defs>
</svg>
