<?xml version="1.0" encoding="utf-8" standalone="no"?>
<!DOCTYPE svg PUBLIC "-//W3C//DTD SVG 1.1//EN"
  "http://www.w3.org/Graphics/SVG/1.1/DTD/svg11.dtd">
<svg xmlns:xlink="http://www.w3.org/1999/xlink" width="460.8pt" height="345.6pt" viewBox="0 0 460.8 345.6" xmlns="http://www.w3.org/2000/svg" version="1.1">
 <metadata>
  <rdf:RDF xmlns:dc="http://purl.org/dc/elements/1.1/" xmlns:cc="http://creativecommons.org/ns#" xmlns:rdf="http://www.w3.org/1999/02/22-rdf-syntax-ns#">
   <cc:Work>
    <dc:type rdf:resource="http://purl.org/dc/dcmitype/StillImage"/>
    <dc:date>2023-08-18T19:19:40.468247</dc:date>
    <dc:format>image/svg+xml</dc:format>
    <dc:creator>
     <cc:Agent>
      <dc:title>Matplotlib v3.7.1, https://matplotlib.org/</dc:title>
     </cc:Agent>
    </dc:creator>
   </cc:Work>
  </rdf:RDF>
 </metadata>
 <defs>
  <style type="text/css">*{stroke-linejoin: round; stroke-linecap: butt}</style>
 </defs>
 <g id="figure_1">
  <g id="patch_1">
   <path d="M 0 345.6 
L 460.8 345.6 
L 460.8 0 
L 0 0 
z
" style="fill: #ffffff"/>
  </g>
  <g id="axes_1">
   <g id="patch_2">
    <path d="M 57.6 307.584 
L 414.72 307.584 
L 414.72 41.472 
L 57.6 41.472 
z
" style="fill: #ffffff"/>
   </g>
   <g id="matplotlib.axis_1">
    <g id="xtick_1">
     <g id="line2d_1">
      <defs>
       <path id="m09c903c5ef" d="M 0 0 
L 0 3.5 
" style="stroke: #000000; stroke-width: 0.8"/>
      </defs>
      <g>
       <use xlink:href="#m09c903c5ef" x="73.71581" y="307.584" style="stroke: #000000; stroke-width: 0.8"/>
      </g>
     </g>
     <g id="text_1">
      <!-- 0 -->
      <g transform="translate(70.53456 322.182437) scale(0.1 -0.1)">
       <defs>
        <path id="DejaVuSans-30" d="M 2034 4250 
Q 1547 4250 1301 3770 
Q 1056 3291 1056 2328 
Q 1056 1369 1301 889 
Q 1547 409 2034 409 
Q 2525 409 2770 889 
Q 3016 1369 3016 2328 
Q 3016 3291 2770 3770 
Q 2525 4250 2034 4250 
z
M 2034 4750 
Q 2819 4750 3233 4129 
Q 3647 3509 3647 2328 
Q 3647 1150 3233 529 
Q 2819 -91 2034 -91 
Q 1250 -91 836 529 
Q 422 1150 422 2328 
Q 422 3509 836 4129 
Q 1250 4750 2034 4750 
z
" transform="scale(0.015625)"/>
       </defs>
       <use xlink:href="#DejaVuSans-30"/>
      </g>
     </g>
    </g>
    <g id="xtick_2">
     <g id="line2d_2">
      <g>
       <use xlink:href="#m09c903c5ef" x="138.670102" y="307.584" style="stroke: #000000; stroke-width: 0.8"/>
      </g>
     </g>
     <g id="text_2">
      <!-- 10000 -->
      <g transform="translate(122.763852 322.182437) scale(0.1 -0.1)">
       <defs>
        <path id="DejaVuSans-31" d="M 794 531 
L 1825 531 
L 1825 4091 
L 703 3866 
L 703 4441 
L 1819 4666 
L 2450 4666 
L 2450 531 
L 3481 531 
L 3481 0 
L 794 0 
L 794 531 
z
" transform="scale(0.015625)"/>
       </defs>
       <use xlink:href="#DejaVuSans-31"/>
       <use xlink:href="#DejaVuSans-30" x="63.623047"/>
       <use xlink:href="#DejaVuSans-30" x="127.246094"/>
       <use xlink:href="#DejaVuSans-30" x="190.869141"/>
       <use xlink:href="#DejaVuSans-30" x="254.492188"/>
      </g>
     </g>
    </g>
    <g id="xtick_3">
     <g id="line2d_3">
      <g>
       <use xlink:href="#m09c903c5ef" x="203.624395" y="307.584" style="stroke: #000000; stroke-width: 0.8"/>
      </g>
     </g>
     <g id="text_3">
      <!-- 20000 -->
      <g transform="translate(187.718145 322.182437) scale(0.1 -0.1)">
       <defs>
        <path id="DejaVuSans-32" d="M 1228 531 
L 3431 531 
L 3431 0 
L 469 0 
L 469 531 
Q 828 903 1448 1529 
Q 2069 2156 2228 2338 
Q 2531 2678 2651 2914 
Q 2772 3150 2772 3378 
Q 2772 3750 2511 3984 
Q 2250 4219 1831 4219 
Q 1534 4219 1204 4116 
Q 875 4013 500 3803 
L 500 4441 
Q 881 4594 1212 4672 
Q 1544 4750 1819 4750 
Q 2544 4750 2975 4387 
Q 3406 4025 3406 3419 
Q 3406 3131 3298 2873 
Q 3191 2616 2906 2266 
Q 2828 2175 2409 1742 
Q 1991 1309 1228 531 
z
" transform="scale(0.015625)"/>
       </defs>
       <use xlink:href="#DejaVuSans-32"/>
       <use xlink:href="#DejaVuSans-30" x="63.623047"/>
       <use xlink:href="#DejaVuSans-30" x="127.246094"/>
       <use xlink:href="#DejaVuSans-30" x="190.869141"/>
       <use xlink:href="#DejaVuSans-30" x="254.492188"/>
      </g>
     </g>
    </g>
    <g id="xtick_4">
     <g id="line2d_4">
      <g>
       <use xlink:href="#m09c903c5ef" x="268.578687" y="307.584" style="stroke: #000000; stroke-width: 0.8"/>
      </g>
     </g>
     <g id="text_4">
      <!-- 30000 -->
      <g transform="translate(252.672437 322.182437) scale(0.1 -0.1)">
       <defs>
        <path id="DejaVuSans-33" d="M 2597 2516 
Q 3050 2419 3304 2112 
Q 3559 1806 3559 1356 
Q 3559 666 3084 287 
Q 2609 -91 1734 -91 
Q 1441 -91 1130 -33 
Q 819 25 488 141 
L 488 750 
Q 750 597 1062 519 
Q 1375 441 1716 441 
Q 2309 441 2620 675 
Q 2931 909 2931 1356 
Q 2931 1769 2642 2001 
Q 2353 2234 1838 2234 
L 1294 2234 
L 1294 2753 
L 1863 2753 
Q 2328 2753 2575 2939 
Q 2822 3125 2822 3475 
Q 2822 3834 2567 4026 
Q 2313 4219 1838 4219 
Q 1578 4219 1281 4162 
Q 984 4106 628 3988 
L 628 4550 
Q 988 4650 1302 4700 
Q 1616 4750 1894 4750 
Q 2613 4750 3031 4423 
Q 3450 4097 3450 3541 
Q 3450 3153 3228 2886 
Q 3006 2619 2597 2516 
z
" transform="scale(0.015625)"/>
       </defs>
       <use xlink:href="#DejaVuSans-33"/>
       <use xlink:href="#DejaVuSans-30" x="63.623047"/>
       <use xlink:href="#DejaVuSans-30" x="127.246094"/>
       <use xlink:href="#DejaVuSans-30" x="190.869141"/>
       <use xlink:href="#DejaVuSans-30" x="254.492188"/>
      </g>
     </g>
    </g>
    <g id="xtick_5">
     <g id="line2d_5">
      <g>
       <use xlink:href="#m09c903c5ef" x="333.53298" y="307.584" style="stroke: #000000; stroke-width: 0.8"/>
      </g>
     </g>
     <g id="text_5">
      <!-- 40000 -->
      <g transform="translate(317.62673 322.182437) scale(0.1 -0.1)">
       <defs>
        <path id="DejaVuSans-34" d="M 2419 4116 
L 825 1625 
L 2419 1625 
L 2419 4116 
z
M 2253 4666 
L 3047 4666 
L 3047 1625 
L 3713 1625 
L 3713 1100 
L 3047 1100 
L 3047 0 
L 2419 0 
L 2419 1100 
L 313 1100 
L 313 1709 
L 2253 4666 
z
" transform="scale(0.015625)"/>
       </defs>
       <use xlink:href="#DejaVuSans-34"/>
       <use xlink:href="#DejaVuSans-30" x="63.623047"/>
       <use xlink:href="#DejaVuSans-30" x="127.246094"/>
       <use xlink:href="#DejaVuSans-30" x="190.869141"/>
       <use xlink:href="#DejaVuSans-30" x="254.492188"/>
      </g>
     </g>
    </g>
    <g id="xtick_6">
     <g id="line2d_6">
      <g>
       <use xlink:href="#m09c903c5ef" x="398.487273" y="307.584" style="stroke: #000000; stroke-width: 0.8"/>
      </g>
     </g>
     <g id="text_6">
      <!-- 50000 -->
      <g transform="translate(382.581023 322.182437) scale(0.1 -0.1)">
       <defs>
        <path id="DejaVuSans-35" d="M 691 4666 
L 3169 4666 
L 3169 4134 
L 1269 4134 
L 1269 2991 
Q 1406 3038 1543 3061 
Q 1681 3084 1819 3084 
Q 2600 3084 3056 2656 
Q 3513 2228 3513 1497 
Q 3513 744 3044 326 
Q 2575 -91 1722 -91 
Q 1428 -91 1123 -41 
Q 819 9 494 109 
L 494 744 
Q 775 591 1075 516 
Q 1375 441 1709 441 
Q 2250 441 2565 725 
Q 2881 1009 2881 1497 
Q 2881 1984 2565 2268 
Q 2250 2553 1709 2553 
Q 1456 2553 1204 2497 
Q 953 2441 691 2322 
L 691 4666 
z
" transform="scale(0.015625)"/>
       </defs>
       <use xlink:href="#DejaVuSans-35"/>
       <use xlink:href="#DejaVuSans-30" x="63.623047"/>
       <use xlink:href="#DejaVuSans-30" x="127.246094"/>
       <use xlink:href="#DejaVuSans-30" x="190.869141"/>
       <use xlink:href="#DejaVuSans-30" x="254.492188"/>
      </g>
     </g>
    </g>
    <g id="text_7">
     <!-- timesteps -->
     <g transform="translate(211.443594 335.860562) scale(0.1 -0.1)">
      <defs>
       <path id="DejaVuSans-74" d="M 1172 4494 
L 1172 3500 
L 2356 3500 
L 2356 3053 
L 1172 3053 
L 1172 1153 
Q 1172 725 1289 603 
Q 1406 481 1766 481 
L 2356 481 
L 2356 0 
L 1766 0 
Q 1100 0 847 248 
Q 594 497 594 1153 
L 594 3053 
L 172 3053 
L 172 3500 
L 594 3500 
L 594 4494 
L 1172 4494 
z
" transform="scale(0.015625)"/>
       <path id="DejaVuSans-69" d="M 603 3500 
L 1178 3500 
L 1178 0 
L 603 0 
L 603 3500 
z
M 603 4863 
L 1178 4863 
L 1178 4134 
L 603 4134 
L 603 4863 
z
" transform="scale(0.015625)"/>
       <path id="DejaVuSans-6d" d="M 3328 2828 
Q 3544 3216 3844 3400 
Q 4144 3584 4550 3584 
Q 5097 3584 5394 3201 
Q 5691 2819 5691 2113 
L 5691 0 
L 5113 0 
L 5113 2094 
Q 5113 2597 4934 2840 
Q 4756 3084 4391 3084 
Q 3944 3084 3684 2787 
Q 3425 2491 3425 1978 
L 3425 0 
L 2847 0 
L 2847 2094 
Q 2847 2600 2669 2842 
Q 2491 3084 2119 3084 
Q 1678 3084 1418 2786 
Q 1159 2488 1159 1978 
L 1159 0 
L 581 0 
L 581 3500 
L 1159 3500 
L 1159 2956 
Q 1356 3278 1631 3431 
Q 1906 3584 2284 3584 
Q 2666 3584 2933 3390 
Q 3200 3197 3328 2828 
z
" transform="scale(0.015625)"/>
       <path id="DejaVuSans-65" d="M 3597 1894 
L 3597 1613 
L 953 1613 
Q 991 1019 1311 708 
Q 1631 397 2203 397 
Q 2534 397 2845 478 
Q 3156 559 3463 722 
L 3463 178 
Q 3153 47 2828 -22 
Q 2503 -91 2169 -91 
Q 1331 -91 842 396 
Q 353 884 353 1716 
Q 353 2575 817 3079 
Q 1281 3584 2069 3584 
Q 2775 3584 3186 3129 
Q 3597 2675 3597 1894 
z
M 3022 2063 
Q 3016 2534 2758 2815 
Q 2500 3097 2075 3097 
Q 1594 3097 1305 2825 
Q 1016 2553 972 2059 
L 3022 2063 
z
" transform="scale(0.015625)"/>
       <path id="DejaVuSans-73" d="M 2834 3397 
L 2834 2853 
Q 2591 2978 2328 3040 
Q 2066 3103 1784 3103 
Q 1356 3103 1142 2972 
Q 928 2841 928 2578 
Q 928 2378 1081 2264 
Q 1234 2150 1697 2047 
L 1894 2003 
Q 2506 1872 2764 1633 
Q 3022 1394 3022 966 
Q 3022 478 2636 193 
Q 2250 -91 1575 -91 
Q 1294 -91 989 -36 
Q 684 19 347 128 
L 347 722 
Q 666 556 975 473 
Q 1284 391 1588 391 
Q 1994 391 2212 530 
Q 2431 669 2431 922 
Q 2431 1156 2273 1281 
Q 2116 1406 1581 1522 
L 1381 1569 
Q 847 1681 609 1914 
Q 372 2147 372 2553 
Q 372 3047 722 3315 
Q 1072 3584 1716 3584 
Q 2034 3584 2315 3537 
Q 2597 3491 2834 3397 
z
" transform="scale(0.015625)"/>
       <path id="DejaVuSans-70" d="M 1159 525 
L 1159 -1331 
L 581 -1331 
L 581 3500 
L 1159 3500 
L 1159 2969 
Q 1341 3281 1617 3432 
Q 1894 3584 2278 3584 
Q 2916 3584 3314 3078 
Q 3713 2572 3713 1747 
Q 3713 922 3314 415 
Q 2916 -91 2278 -91 
Q 1894 -91 1617 61 
Q 1341 213 1159 525 
z
M 3116 1747 
Q 3116 2381 2855 2742 
Q 2594 3103 2138 3103 
Q 1681 3103 1420 2742 
Q 1159 2381 1159 1747 
Q 1159 1113 1420 752 
Q 1681 391 2138 391 
Q 2594 391 2855 752 
Q 3116 1113 3116 1747 
z
" transform="scale(0.015625)"/>
      </defs>
      <use xlink:href="#DejaVuSans-74"/>
      <use xlink:href="#DejaVuSans-69" x="39.208984"/>
      <use xlink:href="#DejaVuSans-6d" x="66.992188"/>
      <use xlink:href="#DejaVuSans-65" x="164.404297"/>
      <use xlink:href="#DejaVuSans-73" x="225.927734"/>
      <use xlink:href="#DejaVuSans-74" x="278.027344"/>
      <use xlink:href="#DejaVuSans-65" x="317.236328"/>
      <use xlink:href="#DejaVuSans-70" x="378.759766"/>
      <use xlink:href="#DejaVuSans-73" x="442.236328"/>
     </g>
    </g>
   </g>
   <g id="matplotlib.axis_2">
    <g id="ytick_1">
     <g id="line2d_7">
      <defs>
       <path id="md468b30cf8" d="M 0 0 
L -3.5 0 
" style="stroke: #000000; stroke-width: 0.8"/>
      </defs>
      <g>
       <use xlink:href="#md468b30cf8" x="57.6" y="295.951531" style="stroke: #000000; stroke-width: 0.8"/>
      </g>
     </g>
     <g id="text_8">
      <!-- 0 -->
      <g transform="translate(44.2375 299.750749) scale(0.1 -0.1)">
       <use xlink:href="#DejaVuSans-30"/>
      </g>
     </g>
    </g>
    <g id="ytick_2">
     <g id="line2d_8">
      <g>
       <use xlink:href="#md468b30cf8" x="57.6" y="259.518559" style="stroke: #000000; stroke-width: 0.8"/>
      </g>
     </g>
     <g id="text_9">
      <!-- 200 -->
      <g transform="translate(31.5125 263.317777) scale(0.1 -0.1)">
       <use xlink:href="#DejaVuSans-32"/>
       <use xlink:href="#DejaVuSans-30" x="63.623047"/>
       <use xlink:href="#DejaVuSans-30" x="127.246094"/>
      </g>
     </g>
    </g>
    <g id="ytick_3">
     <g id="line2d_9">
      <g>
       <use xlink:href="#md468b30cf8" x="57.6" y="223.085587" style="stroke: #000000; stroke-width: 0.8"/>
      </g>
     </g>
     <g id="text_10">
      <!-- 400 -->
      <g transform="translate(31.5125 226.884805) scale(0.1 -0.1)">
       <use xlink:href="#DejaVuSans-34"/>
       <use xlink:href="#DejaVuSans-30" x="63.623047"/>
       <use xlink:href="#DejaVuSans-30" x="127.246094"/>
      </g>
     </g>
    </g>
    <g id="ytick_4">
     <g id="line2d_10">
      <g>
       <use xlink:href="#md468b30cf8" x="57.6" y="186.652615" style="stroke: #000000; stroke-width: 0.8"/>
      </g>
     </g>
     <g id="text_11">
      <!-- 600 -->
      <g transform="translate(31.5125 190.451833) scale(0.1 -0.1)">
       <defs>
        <path id="DejaVuSans-36" d="M 2113 2584 
Q 1688 2584 1439 2293 
Q 1191 2003 1191 1497 
Q 1191 994 1439 701 
Q 1688 409 2113 409 
Q 2538 409 2786 701 
Q 3034 994 3034 1497 
Q 3034 2003 2786 2293 
Q 2538 2584 2113 2584 
z
M 3366 4563 
L 3366 3988 
Q 3128 4100 2886 4159 
Q 2644 4219 2406 4219 
Q 1781 4219 1451 3797 
Q 1122 3375 1075 2522 
Q 1259 2794 1537 2939 
Q 1816 3084 2150 3084 
Q 2853 3084 3261 2657 
Q 3669 2231 3669 1497 
Q 3669 778 3244 343 
Q 2819 -91 2113 -91 
Q 1303 -91 875 529 
Q 447 1150 447 2328 
Q 447 3434 972 4092 
Q 1497 4750 2381 4750 
Q 2619 4750 2861 4703 
Q 3103 4656 3366 4563 
z
" transform="scale(0.015625)"/>
       </defs>
       <use xlink:href="#DejaVuSans-36"/>
       <use xlink:href="#DejaVuSans-30" x="63.623047"/>
       <use xlink:href="#DejaVuSans-30" x="127.246094"/>
      </g>
     </g>
    </g>
    <g id="ytick_5">
     <g id="line2d_11">
      <g>
       <use xlink:href="#md468b30cf8" x="57.6" y="150.219643" style="stroke: #000000; stroke-width: 0.8"/>
      </g>
     </g>
     <g id="text_12">
      <!-- 800 -->
      <g transform="translate(31.5125 154.018861) scale(0.1 -0.1)">
       <defs>
        <path id="DejaVuSans-38" d="M 2034 2216 
Q 1584 2216 1326 1975 
Q 1069 1734 1069 1313 
Q 1069 891 1326 650 
Q 1584 409 2034 409 
Q 2484 409 2743 651 
Q 3003 894 3003 1313 
Q 3003 1734 2745 1975 
Q 2488 2216 2034 2216 
z
M 1403 2484 
Q 997 2584 770 2862 
Q 544 3141 544 3541 
Q 544 4100 942 4425 
Q 1341 4750 2034 4750 
Q 2731 4750 3128 4425 
Q 3525 4100 3525 3541 
Q 3525 3141 3298 2862 
Q 3072 2584 2669 2484 
Q 3125 2378 3379 2068 
Q 3634 1759 3634 1313 
Q 3634 634 3220 271 
Q 2806 -91 2034 -91 
Q 1263 -91 848 271 
Q 434 634 434 1313 
Q 434 1759 690 2068 
Q 947 2378 1403 2484 
z
M 1172 3481 
Q 1172 3119 1398 2916 
Q 1625 2713 2034 2713 
Q 2441 2713 2670 2916 
Q 2900 3119 2900 3481 
Q 2900 3844 2670 4047 
Q 2441 4250 2034 4250 
Q 1625 4250 1398 4047 
Q 1172 3844 1172 3481 
z
" transform="scale(0.015625)"/>
       </defs>
       <use xlink:href="#DejaVuSans-38"/>
       <use xlink:href="#DejaVuSans-30" x="63.623047"/>
       <use xlink:href="#DejaVuSans-30" x="127.246094"/>
      </g>
     </g>
    </g>
    <g id="ytick_6">
     <g id="line2d_12">
      <g>
       <use xlink:href="#md468b30cf8" x="57.6" y="113.786671" style="stroke: #000000; stroke-width: 0.8"/>
      </g>
     </g>
     <g id="text_13">
      <!-- 1000 -->
      <g transform="translate(25.15 117.585889) scale(0.1 -0.1)">
       <use xlink:href="#DejaVuSans-31"/>
       <use xlink:href="#DejaVuSans-30" x="63.623047"/>
       <use xlink:href="#DejaVuSans-30" x="127.246094"/>
       <use xlink:href="#DejaVuSans-30" x="190.869141"/>
      </g>
     </g>
    </g>
    <g id="ytick_7">
     <g id="line2d_13">
      <g>
       <use xlink:href="#md468b30cf8" x="57.6" y="77.353699" style="stroke: #000000; stroke-width: 0.8"/>
      </g>
     </g>
     <g id="text_14">
      <!-- 1200 -->
      <g transform="translate(25.15 81.152917) scale(0.1 -0.1)">
       <use xlink:href="#DejaVuSans-31"/>
       <use xlink:href="#DejaVuSans-32" x="63.623047"/>
       <use xlink:href="#DejaVuSans-30" x="127.246094"/>
       <use xlink:href="#DejaVuSans-30" x="190.869141"/>
      </g>
     </g>
    </g>
    <g id="text_15">
     <!-- mean episode rewards -->
     <g transform="translate(19.070312 231.360031) rotate(-90) scale(0.1 -0.1)">
      <defs>
       <path id="DejaVuSans-61" d="M 2194 1759 
Q 1497 1759 1228 1600 
Q 959 1441 959 1056 
Q 959 750 1161 570 
Q 1363 391 1709 391 
Q 2188 391 2477 730 
Q 2766 1069 2766 1631 
L 2766 1759 
L 2194 1759 
z
M 3341 1997 
L 3341 0 
L 2766 0 
L 2766 531 
Q 2569 213 2275 61 
Q 1981 -91 1556 -91 
Q 1019 -91 701 211 
Q 384 513 384 1019 
Q 384 1609 779 1909 
Q 1175 2209 1959 2209 
L 2766 2209 
L 2766 2266 
Q 2766 2663 2505 2880 
Q 2244 3097 1772 3097 
Q 1472 3097 1187 3025 
Q 903 2953 641 2809 
L 641 3341 
Q 956 3463 1253 3523 
Q 1550 3584 1831 3584 
Q 2591 3584 2966 3190 
Q 3341 2797 3341 1997 
z
" transform="scale(0.015625)"/>
       <path id="DejaVuSans-6e" d="M 3513 2113 
L 3513 0 
L 2938 0 
L 2938 2094 
Q 2938 2591 2744 2837 
Q 2550 3084 2163 3084 
Q 1697 3084 1428 2787 
Q 1159 2491 1159 1978 
L 1159 0 
L 581 0 
L 581 3500 
L 1159 3500 
L 1159 2956 
Q 1366 3272 1645 3428 
Q 1925 3584 2291 3584 
Q 2894 3584 3203 3211 
Q 3513 2838 3513 2113 
z
" transform="scale(0.015625)"/>
       <path id="DejaVuSans-20" transform="scale(0.015625)"/>
       <path id="DejaVuSans-6f" d="M 1959 3097 
Q 1497 3097 1228 2736 
Q 959 2375 959 1747 
Q 959 1119 1226 758 
Q 1494 397 1959 397 
Q 2419 397 2687 759 
Q 2956 1122 2956 1747 
Q 2956 2369 2687 2733 
Q 2419 3097 1959 3097 
z
M 1959 3584 
Q 2709 3584 3137 3096 
Q 3566 2609 3566 1747 
Q 3566 888 3137 398 
Q 2709 -91 1959 -91 
Q 1206 -91 779 398 
Q 353 888 353 1747 
Q 353 2609 779 3096 
Q 1206 3584 1959 3584 
z
" transform="scale(0.015625)"/>
       <path id="DejaVuSans-64" d="M 2906 2969 
L 2906 4863 
L 3481 4863 
L 3481 0 
L 2906 0 
L 2906 525 
Q 2725 213 2448 61 
Q 2172 -91 1784 -91 
Q 1150 -91 751 415 
Q 353 922 353 1747 
Q 353 2572 751 3078 
Q 1150 3584 1784 3584 
Q 2172 3584 2448 3432 
Q 2725 3281 2906 2969 
z
M 947 1747 
Q 947 1113 1208 752 
Q 1469 391 1925 391 
Q 2381 391 2643 752 
Q 2906 1113 2906 1747 
Q 2906 2381 2643 2742 
Q 2381 3103 1925 3103 
Q 1469 3103 1208 2742 
Q 947 2381 947 1747 
z
" transform="scale(0.015625)"/>
       <path id="DejaVuSans-72" d="M 2631 2963 
Q 2534 3019 2420 3045 
Q 2306 3072 2169 3072 
Q 1681 3072 1420 2755 
Q 1159 2438 1159 1844 
L 1159 0 
L 581 0 
L 581 3500 
L 1159 3500 
L 1159 2956 
Q 1341 3275 1631 3429 
Q 1922 3584 2338 3584 
Q 2397 3584 2469 3576 
Q 2541 3569 2628 3553 
L 2631 2963 
z
" transform="scale(0.015625)"/>
       <path id="DejaVuSans-77" d="M 269 3500 
L 844 3500 
L 1563 769 
L 2278 3500 
L 2956 3500 
L 3675 769 
L 4391 3500 
L 4966 3500 
L 4050 0 
L 3372 0 
L 2619 2869 
L 1863 0 
L 1184 0 
L 269 3500 
z
" transform="scale(0.015625)"/>
      </defs>
      <use xlink:href="#DejaVuSans-6d"/>
      <use xlink:href="#DejaVuSans-65" x="97.412109"/>
      <use xlink:href="#DejaVuSans-61" x="158.935547"/>
      <use xlink:href="#DejaVuSans-6e" x="220.214844"/>
      <use xlink:href="#DejaVuSans-20" x="283.59375"/>
      <use xlink:href="#DejaVuSans-65" x="315.380859"/>
      <use xlink:href="#DejaVuSans-70" x="376.904297"/>
      <use xlink:href="#DejaVuSans-69" x="440.380859"/>
      <use xlink:href="#DejaVuSans-73" x="468.164062"/>
      <use xlink:href="#DejaVuSans-6f" x="520.263672"/>
      <use xlink:href="#DejaVuSans-64" x="581.445312"/>
      <use xlink:href="#DejaVuSans-65" x="644.921875"/>
      <use xlink:href="#DejaVuSans-20" x="706.445312"/>
      <use xlink:href="#DejaVuSans-72" x="738.232422"/>
      <use xlink:href="#DejaVuSans-65" x="777.095703"/>
      <use xlink:href="#DejaVuSans-77" x="838.619141"/>
      <use xlink:href="#DejaVuSans-61" x="920.40625"/>
      <use xlink:href="#DejaVuSans-72" x="981.685547"/>
      <use xlink:href="#DejaVuSans-64" x="1021.048828"/>
      <use xlink:href="#DejaVuSans-73" x="1084.525391"/>
     </g>
    </g>
   </g>
   <g id="line2d_14">
    <path d="M 73.936654 288.328038 
L 74.034086 294.716116 
L 74.112031 294.420538 
L 74.215958 293.605773 
L 74.384839 294.69059 
L 74.534234 293.742624 
L 74.618674 294.531081 
L 74.865501 293.552241 
L 74.956437 293.91343 
L 75.021391 294.782125 
L 75.209758 293.957766 
L 75.378639 293.985209 
L 75.547521 291.212959 
L 75.768365 293.995197 
L 75.995705 290.232584 
L 76.236036 288.870428 
L 76.495853 294.713425 
L 76.749175 290.2067 
L 76.820625 294.695732 
L 76.98301 292.825182 
L 77.21035 287.739561 
L 77.437691 290.863129 
L 77.554608 294.521685 
L 77.639049 293.964158 
L 77.729985 294.937906 
L 78.061252 293.355586 
L 78.178169 294.215835 
L 78.295087 294.163917 
L 78.392519 294.760113 
L 78.509436 293.865662 
L 78.574391 295.343286 
L 78.769254 290.890989 
L 78.990098 294.318392 
L 79.145988 292.87523 
L 79.210943 294.959043 
L 79.360338 291.69872 
L 79.464264 293.332614 
L 79.659127 293.581063 
L 79.743568 294.432898 
L 80.035862 284.555468 
L 80.165771 294.889807 
L 80.263202 294.023083 
L 80.367129 293.830027 
L 80.685405 280.76813 
L 80.8348 294.335723 
L 81.075131 290.564989 
L 81.192049 295.488 
L 81.263498 294.373842 
L 81.44537 293.091738 
L 81.523316 294.607828 
L 81.750656 290.630113 
L 81.958509 294.294463 
L 82.120895 294.518265 
L 82.302767 293.563899 
L 82.640529 287.29078 
L 82.72497 294.229661 
L 83.147173 278.71633 
L 83.283577 293.147168 
L 83.491431 293.676358 
L 83.978588 275.416457 
L 84.069524 294.629631 
L 84.134478 294.493835 
L 84.212423 294.212744 
L 84.335836 294.242558 
L 84.556681 288.685645 
L 84.647617 293.384977 
L 84.816498 293.887659 
L 84.946407 292.309792 
L 85.15426 293.164538 
L 85.251692 294.306775 
L 85.342628 294.120546 
L 85.550482 293.070719 
L 85.738849 294.949411 
L 85.836281 294.52833 
L 85.953198 293.369884 
L 86.057125 294.644145 
L 86.20652 290.986342 
L 86.303951 293.978394 
L 86.440355 294.121058 
L 86.830081 282.451084 
L 86.921017 295.296507 
L 87.011953 294.341756 
L 87.089898 295.136706 
L 87.245789 292.868711 
L 87.356211 292.918991 
L 87.460138 293.471698 
L 87.525092 294.645215 
L 87.64201 292.689503 
L 87.947295 295.173483 
L 88.057717 292.974963 
L 88.142158 294.634056 
L 88.401975 291.622282 
L 88.486416 294.37069 
L 88.603333 292.999956 
L 88.798196 293.984965 
L 89.071004 293.076017 
L 89.174931 294.307997 
L 89.272363 293.467751 
L 89.337317 294.912253 
L 89.408767 294.550616 
L 89.804988 290.382496 
L 89.876438 294.715509 
L 90.064805 289.255497 
L 90.29864 289.168588 
L 90.493503 294.689612 
L 90.616916 292.03908 
L 90.727339 294.708077 
L 90.792293 294.70206 
L 90.961174 290.735711 
L 91.026129 294.746343 
L 91.156037 294.228811 
L 91.851048 260.610009 
L 92.130352 294.594175 
L 92.201801 294.598263 
L 92.396664 290.26662 
L 92.513582 294.227144 
L 92.675968 293.692254 
L 92.831858 292.219428 
L 92.981253 294.576538 
L 93.351492 289.79465 
L 93.572337 292.136873 
L 93.734723 294.734164 
L 93.832154 294.583899 
L 94.091971 286.980791 
L 94.332302 294.563204 
L 94.436229 293.640732 
L 94.618101 294.432481 
L 94.812964 289.861705 
L 95.072781 294.173315 
L 95.397552 291.038642 
L 95.559938 290.795597 
L 95.74181 294.64207 
L 95.930178 294.311782 
L 96.241958 291.811515 
L 96.352381 293.799393 
L 96.501775 294.148728 
L 96.683647 294.157072 
L 96.768088 294.34224 
L 96.872015 294.265156 
L 96.995428 293.83219 
L 97.086364 294.630236 
L 97.170805 294.439661 
L 97.339686 290.923404 
L 97.722916 291.807309 
L 98.112642 283.394229 
L 98.352973 294.548703 
L 98.495872 291.836724 
L 98.580313 294.35193 
L 98.716717 294.452464 
L 98.872607 293.788019 
L 99.29481 290.4378 
L 99.444205 291.310726 
L 99.639068 294.711776 
L 99.801453 294.381878 
L 100.256134 273.585641 
L 100.327583 294.621636 
L 100.438006 293.201627 
L 100.561419 293.330161 
L 100.964135 290.232896 
L 101.061567 294.233857 
L 101.288907 294.256882 
L 101.405824 294.01828 
L 101.48377 294.340851 
L 101.594192 292.962574 
L 101.743587 293.197542 
L 101.828027 294.101038 
L 101.925459 293.675691 
L 101.983918 294.648899 
L 102.048872 294.629493 
L 102.152799 294.800247 
L 102.230744 294.51146 
L 102.334671 294.845261 
L 102.542525 293.521858 
L 102.678929 292.87356 
L 102.854305 290.565933 
L 102.997205 293.614515 
L 103.127113 292.813729 
L 103.211554 294.180572 
L 103.594784 276.134747 
L 103.783152 294.952959 
L 103.919556 294.609457 
L 104.049464 294.72879 
L 104.179373 294.540478 
L 104.315777 293.265261 
L 104.471667 293.980422 
L 104.718493 293.931026 
L 104.815925 294.451776 
L 104.952329 293.404818 
L 105.030274 294.795596 
L 105.12121 293.909057 
L 105.212146 294.244498 
L 105.322568 294.168888 
L 105.549908 290.353247 
L 105.725285 294.692533 
L 105.894166 292.083152 
L 106.024075 292.540886 
L 106.140992 294.466102 
L 106.387819 291.358681 
L 106.504736 293.357378 
L 106.738572 290.717656 
L 106.803526 294.594557 
L 106.907453 294.259664 
L 107.043857 293.913513 
L 107.160775 294.891074 
L 107.342647 293.902069 
L 107.407601 294.459864 
L 107.485546 294.29425 
L 107.62195 291.999739 
L 107.686905 295.055455 
L 107.959713 289.028811 
L 108.083126 292.158837 
L 108.232521 292.008091 
L 108.407897 292.140665 
L 108.472852 294.733525 
L 108.635237 294.561562 
L 108.804118 292.540245 
L 109.018468 288.562797 
L 109.187349 293.683916 
L 109.408193 293.755515 
L 109.557588 292.511557 
L 109.681001 293.23271 
L 109.745956 294.558207 
L 109.992782 290.481254 
L 110.083718 294.774643 
L 110.168159 294.582303 
L 110.298067 292.636244 
L 110.395499 294.446533 
L 110.525407 292.938635 
L 110.609848 293.856013 
L 111.025555 284.904712 
L 111.116491 294.656766 
L 111.291868 290.604605 
L 111.376308 294.40748 
L 111.499722 294.407881 
L 111.746548 293.981368 
L 112.019356 294.205968 
L 112.240201 291.840194 
L 112.337632 294.844883 
L 112.720862 292.785616 
L 112.883248 294.712329 
L 112.987175 293.005722 
L 113.104093 293.040335 
L 113.195029 294.830042 
L 113.298955 293.885669 
L 113.370405 294.268464 
L 113.513305 293.53146 
L 113.714663 294.755159 
L 113.779617 294.793731 
L 114.11738 288.367208 
L 114.299252 294.536338 
L 114.474628 294.35 
L 114.611032 293.342308 
L 114.688977 294.219374 
L 115.078703 293.026857 
L 115.150153 294.523527 
L 115.273566 294.763662 
L 115.351511 294.192592 
L 115.429456 295.064994 
L 115.585347 293.832921 
L 115.663292 294.633562 
L 115.773714 294.457678 
L 116.001054 293.304861 
L 116.124467 294.522025 
L 116.358303 293.184283 
L 116.488211 293.486814 
L 116.585643 294.771335 
L 116.657092 294.361337 
L 116.949387 291.95801 
L 117.15724 294.413859 
L 117.267663 293.658677 
L 117.332617 294.757265 
L 117.423553 293.807629 
L 117.533975 294.751513 
L 117.624911 294.350327 
L 117.741829 292.908369 
L 117.91071 293.261951 
L 118.014637 292.83552 
L 118.079591 294.549468 
L 118.384877 291.945198 
L 118.696657 281.419948 
L 119.131851 284.279024 
L 119.300732 294.499862 
L 119.41765 294.700116 
L 119.547558 291.935896 
L 119.638494 294.331345 
L 119.781394 291.936162 
L 119.917798 292.331239 
L 120.080184 291.335604 
L 120.236074 291.94614 
L 120.39846 294.09067 
L 120.71024 290.56739 
L 120.911599 293.937308 
L 121.060993 292.069263 
L 121.262352 294.850408 
L 121.333801 294.447923 
L 121.671564 294.302244 
L 121.768995 294.277015 
L 121.911895 291.939306 
L 122.223675 294.430922 
L 122.37307 293.048334 
L 122.52896 290.429708 
L 122.717328 293.781223 
L 122.860227 294.451856 
L 122.938173 294.435827 
L 123.081072 293.124832 
L 123.139531 294.786707 
L 123.262944 292.799157 
L 123.347385 294.171828 
L 123.464302 293.805631 
L 123.633183 294.447171 
L 123.756597 294.54166 
L 123.867019 294.259822 
L 124.100854 291.948889 
L 124.19179 294.131749 
L 124.289222 293.602527 
L 124.360672 294.325498 
L 124.63348 291.55193 
L 124.71792 294.433589 
L 124.815352 294.187492 
L 124.919278 293.240088 
L 125.01671 295.117163 
L 125.198582 294.611995 
L 125.438913 291.226221 
L 125.620785 293.355013 
L 125.945556 290.969697 
L 126.114437 293.269267 
L 126.250841 292.638931 
L 126.530145 293.251527 
L 126.666549 292.304463 
L 126.932862 288.496102 
L 127.21866 288.808719 
L 127.283615 294.539565 
L 127.43301 293.972068 
L 127.653854 288.178057 
L 127.790258 293.671692 
L 127.907176 293.864119 
L 127.97213 294.827387 
L 128.069562 294.089178 
L 128.329379 288.664201 
L 128.511251 295.187953 
L 128.576205 294.578499 
L 128.634664 294.891226 
L 128.803545 293.59584 
L 128.946445 293.760034 
L 129.121821 291.016731 
L 129.277711 291.113308 
L 129.621969 294.92191 
L 129.725896 294.592614 
L 129.875291 291.196843 
L 129.946741 294.772652 
L 130.193567 293.257242 
L 130.414412 294.773138 
L 130.531329 293.237549 
L 130.68722 295.395664 
L 131.36924 288.113967 
L 131.492653 294.249804 
L 131.694011 289.251628 
L 131.901865 293.814007 
L 132.239627 285.179672 
L 132.486454 294.331013 
L 132.655335 294.832743 
L 132.81772 294.261027 
L 132.96062 291.208224 
L 133.03207 294.396222 
L 133.447777 287.467594 
L 133.597172 294.858987 
L 133.792035 292.478165 
L 133.86998 294.807091 
L 134.019375 291.533375 
L 134.116806 294.437329 
L 134.285687 292.628115 
L 134.766349 280.090983 
L 134.922239 294.021219 
L 135.091121 293.243615 
L 135.292479 289.330608 
L 135.37692 293.93847 
L 135.701691 287.188006 
L 135.799122 294.232884 
L 135.903049 293.399488 
L 136.006976 293.995198 
L 136.175857 293.753738 
L 136.247307 294.663339 
L 136.37072 293.755732 
L 136.663015 290.549892 
L 136.864373 294.935887 
L 136.942318 294.553357 
L 137.12419 291.695625 
L 137.396998 294.531683 
L 137.604852 289.827814 
L 137.708779 294.435088 
L 137.916632 290.29369 
L 138.17645 294.350782 
L 138.611643 290.897244 
L 138.85847 294.205109 
L 138.936415 294.403528 
L 139.072819 292.289692 
L 139.157259 294.493451 
L 139.326141 290.87866 
L 139.378104 294.897394 
L 139.618435 292.898321 
L 139.793811 293.856334 
L 140.040638 289.051522 
L 140.326437 294.84808 
L 140.540786 285.585028 
L 140.657704 292.763006 
L 140.813594 293.725579 
L 140.97598 293.284937 
L 141.521596 274.634514 
L 142.171139 269.576556 
L 142.411469 291.745004 
L 142.833672 287.059157 
L 143.015544 287.403017 
L 143.158444 292.586736 
L 143.463729 283.923343 
L 143.743032 282.041247 
L 144.119767 277.885202 
L 144.327621 285.8911 
L 144.528979 286.024739 
L 144.697861 287.607272 
L 144.977164 282.273863 
L 145.399367 281.276709 
L 145.613716 285.587938 
L 145.808579 286.332276 
L 146.016433 285.878764 
L 146.27625 283.345303 
L 146.639994 276.035425 
L 146.88682 282.997607 
L 147.101169 285.790481 
L 147.360987 282.113451 
L 147.685758 281.245704 
L 148.237869 261.686841 
L 148.802972 260.0382 
L 149.335597 262.573457 
L 149.796773 269.913175 
L 150.329398 263.491044 
L 150.881509 260.717308 
L 151.407639 264.093041 
L 151.933769 264.61954 
L 152.472889 261.522848 
L 153.037992 259.391357 
L 153.564121 262.173168 
L 154.109738 261.626593 
L 155.155502 266.545241 
L 155.675136 263.213832 
L 156.214257 263.767279 
L 156.740386 264.984423 
L 157.273012 262.144255 
L 157.799141 262.232671 
L 158.305785 266.950969 
L 158.851401 260.210178 
L 159.403512 260.128605 
L 159.923147 263.220936 
L 160.455772 262.029801 
L 160.988397 262.217432 
L 161.540509 263.751846 
L 162.09262 262.812279 
L 162.644732 260.816067 
L 163.196843 261.918601 
L 163.735964 265.013831 
L 164.327048 262.358166 
L 164.89215 259.010206 
L 165.476739 260.33628 
L 166.093805 258.191625 
L 166.665402 263.354244 
L 167.828084 259.728253 
L 168.386691 263.219746 
L 168.906325 265.617726 
L 169.464932 263.3428 
L 170.017044 261.927998 
L 170.627614 258.142966 
L 171.192717 262.068448 
L 171.777305 262.050746 
L 172.914005 259.467613 
L 173.511585 257.063682 
L 174.050705 264.678347 
L 174.609312 259.725801 
L 175.187406 259.14179 
L 175.765499 260.639143 
L 176.350087 258.881605 
L 176.928181 257.633839 
L 177.493283 261.219475 
L 178.103853 255.119813 
L 178.688442 256.030157 
L 179.324994 258.812365 
L 179.948555 259.581407 
L 180.611089 253.599725 
L 181.241146 254.759331 
L 181.877698 252.870069 
L 182.51425 252.010787 
L 183.306692 236.05747 
L 183.943244 252.559243 
L 184.644751 249.19809 
L 185.326771 249.747432 
L 185.963323 253.071141 
L 186.67782 252.716036 
L 187.424794 244.979084 
L 188.009383 258.846259 
L 188.697898 247.995988 
L 189.340946 255.606577 
L 190.126893 241.415632 
L 190.789427 256.734654 
L 191.536401 245.650104 
L 192.250898 251.692117 
L 192.9589 248.217509 
L 193.666902 248.814791 
L 194.569766 240.023263 
L 195.414172 237.730572 
L 196.174137 241.623374 
L 197.025039 238.441473 
L 197.752527 245.560961 
L 198.622914 235.925184 
L 199.486806 241.667825 
L 200.279249 240.463379 
L 201.045709 241.927824 
L 201.987547 238.244185 
L 203.17621 209.737445 
L 203.903698 247.111867 
L 204.592214 259.973326 
L 205.313206 243.229313 
L 206.242053 237.415613 
L 206.911082 256.210676 
L 207.79446 237.677327 
L 208.534939 257.002288 
L 209.45729 243.737007 
L 210.50955 230.860461 
L 211.165588 260.516698 
L 211.737186 266.909885 
L 212.497151 243.769159 
L 213.30908 235.016515 
L 214.069045 243.273317 
L 214.893965 242.703207 
L 215.920242 231.175465 
L 217.5441 200.544898 
L 218.557387 218.039691 
L 219.174452 259.326587 
L 220.181244 222.409672 
L 221.038641 234.387212 
L 222.16235 219.586306 
L 223.065215 231.818296 
L 224.007052 225.600399 
L 224.903421 227.015219 
L 225.780304 230.529378 
L 226.793591 231.707882 
L 227.404161 256.46152 
L 228.242072 235.016414 
L 229.1969 223.98802 
L 230.17771 223.278283 
L 231.190997 222.287861 
L 232.158816 226.804789 
L 232.788872 253.711312 
L 233.854123 224.79858 
L 234.438711 259.875402 
L 235.042786 259.633612 
L 236.030091 233.484181 
L 236.809543 244.037262 
L 237.426609 256.083802 
L 238.05017 257.598353 
L 238.992007 222.745973 
L 240.057258 218.825429 
L 241.122508 222.033758 
L 242.655429 165.797536 
L 243.831102 208.314987 
L 244.922334 219.129267 
L 246.351329 180.891229 
L 247.332138 220.163532 
L 248.293462 223.906857 
L 249.410676 208.477687 
L 250.76822 196.57466 
L 251.859453 217.995385 
L 252.768813 232.999519 
L 254.015935 204.961034 
L 255.14614 215.519852 
L 256.243867 230.691978 
L 257.159723 224.239673 
L 257.971651 242.483503 
L 258.932975 229.051413 
L 259.861821 239.211551 
L 260.771181 230.076205 
L 261.674046 230.385294 
L 262.726306 226.085186 
L 263.986419 212.878805 
L 264.895779 230.936019 
L 266.155892 215.830014 
L 267.045766 233.895052 
L 268.260411 209.046274 
L 269.234726 229.291933 
L 270.150581 239.376234 
L 271.202841 231.043033 
L 272.060238 241.745879 
L 273.015066 231.018657 
L 274.106298 225.641677 
L 274.976685 232.098502 
L 275.821091 232.921876 
L 276.71746 226.59491 
L 277.743738 222.439308 
L 278.601135 228.056198 
L 279.471522 240.599078 
L 280.354901 225.89313 
L 281.225288 235.556948 
L 282.030721 240.442658 
L 282.894614 229.24203 
L 283.739019 228.576315 
L 285.512272 225.612175 
L 286.356677 235.507813 
L 287.123138 236.064179 
L 288.000021 227.296328 
L 288.798959 233.631503 
L 289.656355 228.016892 
L 290.734597 222.934013 
L 291.617975 224.157264 
L 292.533831 229.856477 
L 292.689721 291.224032 
L 293.58609 224.919098 
L 294.417505 228.458592 
L 295.281397 228.514354 
L 296.145289 230.155366 
L 297.015677 227.769563 
L 297.938028 221.009409 
L 298.821406 226.847742 
L 299.704784 227.439069 
L 300.568677 226.510914 
L 301.471541 223.810954 
L 302.374406 221.556809 
L 303.257784 224.191693 
L 304.48542 191.314142 
L 305.433753 219.183684 
L 306.576949 206.098712 
L 307.642199 205.292471 
L 308.551559 221.984147 
L 309.922095 178.179985 
L 310.785987 224.009583 
L 312.143532 173.920907 
L 313.488085 178.607823 
L 314.358473 226.145125 
L 315.209374 226.068518 
L 316.430515 191.085992 
L 317.71661 181.673645 
L 319.100136 180.662092 
L 319.977019 222.942996 
L 321.529427 164.522181 
L 322.393319 225.026207 
L 323.692405 175.525372 
L 324.829105 198.669264 
L 325.680006 227.775733 
L 327.388304 144.02342 
L 328.330141 214.289922 
L 329.220015 222.85247 
L 330.096898 224.773808 
L 330.999763 220.138628 
L 332.039031 204.580035 
L 333.0783 202.950106 
L 334.13056 201.520572 
L 335.150342 208.465974 
L 336.137647 213.026439 
L 336.995044 229.646287 
L 339.054095 106.346976 
L 340.060887 206.046766 
L 341.145623 201.789903 
L 342.522654 175.428096 
L 343.951649 165.860607 
L 345.387138 165.278792 
L 346.471875 202.646955 
L 347.796943 173.067899 
L 349.297387 161.768576 
L 350.940731 147.179257 
L 352.480147 163.611959 
L 354.084518 153.948767 
L 355.3901 222.692766 
L 357.468637 153.247041 
L 360.612425 53.568 
L 363.385973 59.610211 
L 364.879922 158.498683 
L 366.263448 173.787334 
L 367.614497 184.397008 
L 368.497876 231.919384 
L 370.647863 110.535345 
L 371.479278 233.509963 
L 372.531537 206.637074 
L 373.25253 247.080149 
L 374.38923 200.053279 
L 375.460976 207.517307 
L 377.045861 156.715107 
L 378.455369 182.258771 
L 379.44917 216.071217 
L 380.598861 202.371222 
L 381.42378 233.857093 
L 382.956701 156.97881 
L 384.398687 175.54903 
L 385.496414 202.503188 
L 386.977372 159.632391 
L 388.640202 145.286608 
L 389.724939 199.442729 
L 391.166924 161.639518 
L 392.69335 156.944838 
L 393.979445 182.629421 
L 395.401944 169.17642 
L 396.642571 185.327048 
L 397.896189 192.754674 
L 397.896189 192.754674 
" clip-path="url(#p81992d98eb)" style="fill: none; stroke: #1f77b4; stroke-width: 1.5; stroke-linecap: square"/>
   </g>
   <g id="line2d_15">
    <path d="M 76.963524 288.688047 
L 80.211239 288.647241 
L 83.458953 288.677665 
L 86.706668 288.713187 
L 89.954383 288.650817 
L 93.202097 288.699547 
L 96.449812 288.715814 
L 99.697527 288.68256 
L 102.945241 288.680391 
L 106.192956 288.673615 
L 109.44067 288.64343 
L 112.688385 288.688489 
L 115.9361 288.710807 
L 119.183814 288.676385 
L 122.431529 288.673872 
L 125.679244 288.676996 
L 128.926958 288.710711 
L 132.174673 288.685467 
L 135.422388 288.719199 
L 138.670102 288.690455 
L 141.917817 281.58078 
L 145.165531 286.928033 
L 148.413246 262.925791 
L 151.660961 263.025138 
L 154.908675 262.959174 
L 158.15639 262.161519 
L 161.404105 262.526199 
L 164.651819 261.531136 
L 167.899534 263.304581 
L 171.147249 261.400251 
L 174.394963 262.463507 
L 177.642678 254.85324 
L 180.890392 256.523654 
L 184.138107 254.350956 
L 187.385822 251.692345 
L 190.633536 248.963968 
L 193.881251 241.245115 
L 197.128966 240.244657 
L 200.37668 243.192041 
L 203.624395 239.482194 
L 206.872109 248.831207 
L 210.119824 254.717625 
L 213.367539 244.473151 
L 216.615253 255.045699 
L 219.862968 203.940148 
L 223.110683 219.220926 
L 226.358397 232.617909 
L 229.606112 245.275849 
L 232.853827 223.124924 
L 236.101541 255.902788 
L 239.349256 212.284124 
L 242.59697 133.304795 
L 245.844685 226.980295 
L 249.0924 229.738099 
L 252.340114 231.363985 
L 255.587829 227.613836 
L 258.835544 224.765113 
L 262.083258 233.572187 
L 265.330973 230.450263 
L 268.578687 227.168241 
L 271.826402 229.864256 
L 275.074117 244.612691 
L 278.321831 243.486002 
L 281.569546 246.38565 
L 284.817261 224.806059 
L 288.064975 229.323887 
L 291.31269 227.581249 
L 294.560405 227.914792 
L 297.808119 224.960602 
L 301.055834 226.1127 
L 304.303548 210.258509 
L 307.551263 206.153417 
L 310.798978 197.691694 
L 314.046692 225.290797 
L 317.294407 234.78636 
L 320.542122 210.353854 
L 323.789836 176.443477 
L 327.037551 227.238728 
L 330.285265 225.255728 
L 333.53298 233.653064 
L 336.780695 205.703671 
L 340.028409 166.80288 
L 343.276124 203.166611 
L 346.523839 205.463626 
L 349.771553 222.314314 
L 353.019268 173.094399 
L 356.266983 109.116232 
L 359.514697 221.585019 
L 362.762412 215.02541 
L 366.010126 228.981014 
L 369.257841 239.972045 
L 372.505556 214.337916 
L 375.75327 230.686761 
L 379.000985 221.453361 
L 382.2487 188.587896 
L 385.496414 178.633424 
L 388.744129 184.449274 
L 391.991843 171.724952 
L 395.239558 158.403891 
L 398.487273 169.436403 
" clip-path="url(#p81992d98eb)" style="fill: none; stroke: #ff7f0e; stroke-width: 1.5; stroke-linecap: square"/>
   </g>
   <g id="line2d_16">
    <path d="M 73.832727 292.940906 
L 74.293903 270.323033 
L 74.475775 295.054972 
L 74.579702 293.182864 
L 74.677133 293.465937 
L 74.826528 291.70906 
L 74.917464 294.183655 
L 75.014895 294.066687 
L 75.092841 294.584697 
L 75.261722 293.84438 
L 75.670934 293.584015 
L 75.787851 293.802807 
L 75.930751 293.587674 
L 76.093137 294.156238 
L 76.365945 291.239053 
L 76.554312 294.813197 
L 76.658239 293.29857 
L 76.749175 294.152748 
L 76.872588 292.737171 
L 77.171378 293.878792 
L 77.320773 293.692324 
L 77.385727 294.667037 
L 77.794939 286.262368 
L 77.866389 294.553692 
L 78.100224 291.459114 
L 78.282096 293.507889 
L 78.424996 293.538011 
L 78.48995 294.559764 
L 78.567895 294.501511 
L 78.951126 293.638979 
L 79.048557 293.103007 
L 79.457769 285.02979 
L 79.548705 293.714434 
L 79.763054 292.713669 
L 80.113807 294.858834 
L 80.30867 293.144835 
L 80.549001 294.334591 
L 80.620451 294.183283 
L 80.711387 294.961309 
L 80.828305 292.593628 
L 80.919241 294.178327 
L 81.341444 279.324467 
L 81.510325 294.283466 
L 81.653224 293.213545 
L 81.724674 294.52891 
L 81.828601 293.530477 
L 82.003977 294.970949 
L 82.166363 292.488355 
L 82.296272 293.786693 
L 82.393703 293.496053 
L 82.549593 294.958125 
L 82.634034 294.267305 
L 83.043246 284.337308 
L 83.153668 293.165375 
L 83.296568 292.555068 
L 83.387504 293.668703 
L 83.543394 292.777657 
L 83.699284 292.867165 
L 83.952606 285.356224 
L 84.030551 294.5282 
L 84.147469 294.039003 
L 84.582663 289.718023 
L 84.764535 294.248591 
L 85.024352 291.125389 
L 85.180242 294.903846 
L 85.290664 293.978251 
L 85.446555 294.063436 
L 85.5245 294.670511 
L 85.816794 293.470319 
L 85.914226 293.692148 
L 86.011657 294.6342 
L 86.187034 293.608999 
L 86.290961 294.238766 
L 86.440355 291.57505 
L 86.674191 291.573987 
L 86.869054 293.797969 
L 87.04443 294.090587 
L 87.141862 294.017901 
L 87.310743 295.226331 
L 87.41467 293.096561 
L 87.518597 294.052711 
L 87.609533 293.686425 
L 87.758928 294.581341 
L 87.934304 294.19412 
L 88.038231 294.041261 
L 88.122672 294.335815 
L 88.434452 291.451554 
L 88.674783 292.240952 
L 88.739737 294.355253 
L 88.817683 294.060457 
L 88.908619 294.725196 
L 89.045023 292.402564 
L 89.278858 291.956872 
L 89.363299 294.228467 
L 89.46073 293.244551 
L 89.538675 294.102193 
L 89.798492 293.338904 
L 90.116768 285.7514 
L 90.28565 291.40609 
L 90.487008 289.65238 
L 90.551962 294.635174 
L 90.857247 290.305859 
L 90.935193 294.259395 
L 91.019633 293.72006 
L 91.097578 294.226697 
L 91.292441 291.096788 
L 91.688662 294.511648 
L 91.818571 293.794281 
L 91.967966 293.851222 
L 92.052406 294.027429 
L 92.253765 289.522406 
L 92.325214 294.532409 
L 92.390169 294.472236 
L 92.481105 294.00104 
L 92.585032 294.292452 
L 92.799381 294.126355 
L 92.922794 293.168993 
L 93.104666 289.400477 
L 93.195602 293.809449 
L 93.572337 281.933123 
L 93.806172 287.23223 
L 93.910099 294.043381 
L 94.033512 292.745054 
L 94.189403 293.078547 
L 94.390761 294.099031 
L 94.663569 294.416513 
L 94.916891 293.675902 
L 95.014322 293.973767 
L 95.079276 294.647618 
L 95.228671 293.694165 
L 95.365075 294.156887 
L 95.559938 291.735937 
L 95.618397 294.724421 
L 95.858728 287.2736 
L 96.053591 293.895606 
L 96.482289 280.294834 
L 96.703134 292.955791 
L 96.852529 293.227893 
L 97.131832 292.003888 
L 97.521558 293.878265 
L 97.683944 292.387819 
L 97.846329 294.161723 
L 98.138624 284.35629 
L 98.301009 292.598268 
L 98.443909 293.625883 
L 98.560826 292.375205 
L 98.68424 293.756444 
L 98.879103 292.005381 
L 98.970039 293.949136 
L 99.119433 293.317638 
L 99.424719 286.318549 
L 99.541636 292.75589 
L 99.684536 292.78304 
L 99.755985 294.350507 
L 100.054775 285.882009 
L 100.217161 294.195714 
L 100.340574 295.045852 
L 100.535437 291.414653 
L 100.671841 292.348975 
L 100.81474 291.424165 
L 101.02909 289.168131 
L 101.262925 292.938902 
L 101.386338 292.691412 
L 101.444797 294.68991 
L 101.685128 292.785916 
L 101.951441 284.585255 
L 102.133313 289.983794 
L 102.464579 291.803812 
L 102.600983 293.591344 
L 102.698415 292.968448 
L 102.964728 290.226671 
L 103.049168 294.74912 
L 103.334967 292.520151 
L 103.419408 293.750294 
L 103.692216 291.579555 
L 103.770161 294.20997 
L 103.893574 294.048354 
L 104.003996 294.296122 
L 104.166382 294.011514 
L 104.276804 294.124938 
L 104.426199 294.536316 
L 104.621062 289.887582 
L 104.848402 294.056077 
L 104.96532 293.87485 
L 105.088733 292.378006 
L 105.186164 294.479057 
L 105.329064 292.512999 
L 105.465468 293.026246 
L 105.562899 293.88608 
L 105.855194 292.4755 
L 106.017579 292.875124 
L 106.17347 292.370133 
L 106.264406 293.684133 
L 106.40081 293.544658 
L 106.491746 293.680291 
L 106.569691 294.528796 
L 106.777544 291.234815 
L 106.868481 293.904568 
L 107.030866 293.521482 
L 107.186757 291.739636 
L 107.323161 293.944465 
L 107.427087 293.787266 
L 107.544005 293.355234 
L 107.738868 294.393407 
L 107.816813 294.222043 
L 108.037658 292.154353 
L 108.21953 294.586592 
L 108.368925 294.016321 
L 108.537806 291.776226 
L 108.641733 293.504413 
L 108.771641 291.997569 
L 108.843091 294.485812 
L 108.992486 293.075597 
L 109.148376 293.235463 
L 109.330248 291.022501 
L 109.648524 293.190419 
L 109.726469 294.374594 
L 109.992782 292.333778 
L 110.096709 293.963731 
L 110.382508 288.494488 
L 110.798215 291.617529 
L 110.941115 291.299956 
L 111.17495 294.142809 
L 111.493226 291.839282 
L 111.694584 293.005481 
L 112.129778 273.86542 
L 112.292164 291.681385 
L 112.428568 293.161562 
L 112.545486 292.482967 
L 112.616935 294.26005 
L 112.76633 291.350511 
L 112.980679 294.670131 
L 113.052129 294.395239 
L 113.175542 293.168232 
L 113.285965 294.410108 
L 113.396387 294.215161 
L 113.513305 292.494236 
L 113.617232 294.17149 
L 113.708168 293.620662 
L 113.929012 294.581123 
L 114.136866 293.331688 
L 114.565564 276.056987 
L 114.88384 293.859181 
L 115.085199 293.665137 
L 115.176135 294.188435 
L 115.260575 294.029492 
L 115.422961 291.426961 
L 115.650301 293.766601 
L 115.877641 290.857033 
L 116.130963 294.412858 
L 116.332321 291.725699 
L 116.442743 293.08383 
L 116.676579 285.032794 
L 116.780506 293.537975 
L 116.962378 294.091772 
L 117.215699 293.893517 
L 117.702857 290.150524 
L 118.196509 267.235974 
L 118.274454 294.306509 
L 118.378381 293.865575 
L 118.456326 294.300788 
L 118.579739 293.247324 
L 118.768107 290.371344 
L 118.943484 295.434912 
L 119.300732 291.779901 
L 119.450127 292.991596 
L 119.57354 293.000622 
L 119.742421 294.452752 
L 119.885321 293.786016 
L 120.02822 294.225747 
L 120.132147 293.396724 
L 120.333505 293.326966 
L 120.4829 293.44758 
L 120.593323 292.928641 
L 120.684259 294.654753 
L 120.755708 294.229077 
L 120.814167 294.55779 
L 120.892112 293.849842 
L 120.996039 294.59122 
L 121.067489 294.301314 
L 121.190902 293.689492 
L 121.39226 293.406288 
L 121.476701 294.23244 
L 121.859931 293.731508 
L 122.087271 293.137706 
L 122.171712 294.449579 
L 122.509474 289.286875 
L 122.606906 293.381586 
L 122.730319 293.240999 
L 122.814759 293.964901 
L 123.003127 288.868895 
L 123.100558 294.216261 
L 123.191494 293.969268 
L 123.529257 290.335216 
L 123.724119 289.627024 
L 123.925478 287.938743 
L 124.315204 275.877852 
L 124.386653 294.451093 
L 124.639975 288.65133 
L 124.808856 294.402587 
L 125.159609 288.393103 
L 125.263536 293.424164 
L 125.451904 292.448087 
L 125.679244 294.011126 
L 125.835134 291.922875 
L 125.952052 292.53227 
L 126.302805 288.943312 
L 126.465191 294.014413 
L 127.023798 293.680607 
L 127.153706 292.829912 
L 127.257633 293.598808 
L 127.569414 286.419009 
L 127.666845 293.349242 
L 127.81624 293.910966 
L 127.946148 292.007079 
L 128.335874 282.711222 
L 128.420315 294.041677 
L 128.660646 284.266038 
L 128.823031 294.332208 
L 129.167289 293.068473 
L 129.271216 293.41921 
L 129.537529 292.519388 
L 129.79085 289.369248 
L 129.8623 294.71161 
L 129.940245 294.267998 
L 130.063658 294.106077 
L 130.200062 292.129634 
L 130.265017 294.656976 
L 130.492357 288.91705 
L 130.70021 294.074488 
L 130.77166 294.670087 
L 131.024982 294.00593 
L 131.161386 292.781835 
L 131.219845 294.914496 
L 131.349753 293.334186 
L 131.577093 288.369271 
L 131.674525 293.853644 
L 132.012287 280.369344 
L 132.233132 294.28614 
L 132.43449 288.746976 
L 132.596876 290.754188 
L 132.954124 279.723343 
L 133.090528 292.296917 
L 133.233428 294.001665 
L 133.408804 291.197319 
L 133.759558 288.802871 
L 133.856989 294.534728 
L 133.960916 293.771493 
L 134.038861 294.413662 
L 134.149283 294.285771 
L 134.48055 292.575567 
L 134.805322 292.321576 
L 134.915744 294.028684 
L 135.071634 291.207861 
L 135.285984 292.914024 
L 135.467856 290.948971 
L 135.630241 292.143317 
L 135.825104 292.48027 
L 135.935526 294.010165 
L 136.039453 293.760852 
L 136.188848 292.576318 
L 136.253802 294.724467 
L 136.344739 294.288615 
L 136.617547 290.455311 
L 136.688996 294.439751 
L 136.974795 292.543993 
L 137.215126 292.574504 
L 137.306062 294.385025 
L 137.384007 294.379954 
L 137.598356 293.881464 
L 137.682797 294.779313 
L 137.988082 292.101576 
L 138.293367 286.874576 
L 138.618139 294.238816 
L 138.702579 294.879348 
L 138.916928 287.843531 
L 138.975387 294.876469 
L 139.222214 292.500097 
L 139.404086 292.835427 
L 139.62493 291.626491 
L 139.99517 281.735637 
L 140.138069 292.977746 
L 140.254987 292.729605 
L 140.495318 292.568333 
L 140.644713 293.953661 
L 140.839576 292.366172 
L 141.027943 294.627869 
L 141.229301 291.624796 
L 141.424164 293.630503 
L 141.839872 283.37389 
L 141.96978 292.449859 
L 142.190625 290.800818 
L 142.320533 292.780751 
L 142.541378 285.67573 
L 143.151948 278.857873 
L 143.587142 284.348921 
L 143.710555 294.151663 
L 144.028831 292.691859 
L 144.61342 266.154021 
L 144.938191 281.743439 
L 145.418853 285.251707 
L 145.659184 284.677105 
L 146.386672 258.409183 
L 146.633498 283.84954 
L 146.828361 286.78922 
L 147.049206 285.483446 
L 147.328509 282.377102 
L 147.503886 287.828821 
L 147.71174 286.084096 
L 147.926089 285.959958 
L 148.16642 284.203595 
L 148.70554 263.472385 
L 149.264147 260.533609 
L 149.536955 283.154574 
L 150.102058 264.158053 
L 150.316407 286.120514 
L 150.51127 286.643096 
L 151.056886 263.037752 
L 151.589511 263.107425 
L 152.193586 256.767046 
L 152.765184 259.830114 
L 153.323791 263.704549 
L 153.875902 261.602612 
L 154.415023 262.490777 
L 154.967134 261.416907 
L 155.538732 259.224457 
L 156.103834 259.801954 
L 156.64945 262.468749 
L 157.182076 263.897501 
L 157.740683 262.362277 
L 158.273308 262.93583 
L 158.812428 263.763475 
L 159.390522 260.141518 
L 159.942633 261.317523 
L 160.507735 261.113564 
L 161.085829 259.844038 
L 161.683408 261.915702 
L 162.267997 260.729462 
L 162.84609 260.72737 
L 163.450165 257.635571 
L 164.034753 259.940236 
L 164.619342 258.891441 
L 165.229912 257.067972 
L 165.808006 259.889171 
L 166.39909 258.11179 
L 167.003165 256.88422 
L 167.633221 254.591954 
L 168.237296 256.734667 
L 168.873848 253.819289 
L 169.490914 255.667002 
L 170.146952 250.01475 
L 170.796495 252.807489 
L 171.523983 242.611222 
L 172.199508 250.236952 
L 172.881528 248.806101 
L 173.58953 247.791793 
L 174.252064 254.232609 
L 174.979552 245.11295 
L 175.687554 246.882886 
L 176.382564 247.801241 
L 177.629687 259.238312 
L 178.370166 246.721556 
L 179.013213 254.651167 
L 179.877105 242.882258 
L 180.961842 269.740638 
L 181.598394 258.248453 
L 182.501259 247.057162 
L 183.384637 249.586744 
L 184.48886 226.619937 
L 185.710001 223.713562 
L 186.651838 233.37828 
L 188.548503 237.514446 
L 189.366928 240.476134 
L 190.23082 236.005596 
L 191.159666 232.487986 
L 191.984586 241.327148 
L 192.867964 237.270777 
L 193.731856 239.772036 
L 194.498317 236.057511 
L 195.310245 240.479087 
L 196.109183 239.370676 
L 196.940598 234.090506 
L 197.739536 237.594886 
L 198.48651 244.055575 
L 199.259466 241.272291 
L 200.090881 237.091325 
L 200.811874 244.024842 
L 201.500389 249.343508 
L 202.201896 245.652603 
L 203.656872 244.549717 
L 204.338892 249.636428 
L 205.027408 248.481684 
L 205.696437 249.835352 
L 206.378457 250.016513 
L 207.060477 248.552923 
L 207.729506 250.779548 
L 208.398535 250.647069 
L 209.087051 249.302495 
L 209.75608 250.413005 
L 210.444596 249.768015 
L 211.126616 250.024802 
L 211.789149 251.563651 
L 212.438692 252.338182 
L 213.094731 251.893092 
L 213.731283 253.629282 
L 214.380826 252.305202 
L 215.004387 254.623147 
L 215.614957 255.212136 
L 216.238518 254.876833 
L 216.927034 249.407087 
L 217.557091 255.052456 
L 218.213129 252.111019 
L 218.862672 252.376605 
L 219.466747 255.660323 
L 220.103299 253.247447 
L 220.759337 251.70323 
L 221.376403 254.707142 
L 222.038937 250.90276 
L 222.733948 250.170046 
L 223.3705 252.798973 
L 224.046024 249.665802 
L 224.747531 248.966682 
L 225.598432 229.843686 
L 226.306434 245.618259 
L 226.988454 249.662206 
L 227.806878 229.993482 
L 228.527871 248.657606 
L 229.183909 250.052358 
L 230.015324 235.786685 
L 230.840243 230.550499 
L 231.678154 233.960047 
L 232.470596 238.310514 
L 233.256543 234.03878 
L 234.087958 230.807904 
L 234.666051 260.644111 
L 235.445503 234.802236 
L 236.263927 233.582628 
L 236.868002 256.82944 
L 237.692921 240.338836 
L 238.361951 247.347588 
L 239.225843 236.918452 
L 239.985808 240.065469 
L 240.784746 241.630017 
L 241.583683 234.087862 
L 242.28519 243.115267 
L 243.129596 238.648167 
L 243.824607 245.231872 
L 244.571581 241.805063 
L 245.461455 232.793673 
L 246.364319 235.2893 
L 247.280175 228.651304 
L 248.19603 235.390792 
L 249.053427 240.701489 
L 249.871851 237.60643 
L 250.592844 242.139651 
L 251.443745 241.309806 
L 252.216701 245.020636 
L 253.067602 238.516998 
L 253.886026 239.979342 
L 254.658983 239.038659 
L 255.490397 234.678924 
L 256.347794 236.192064 
L 257.400054 228.990554 
L 258.302918 226.152624 
L 259.205783 225.368277 
L 260.134629 226.558512 
L 260.985531 234.20762 
L 261.849423 234.979123 
L 262.901682 233.139673 
L 263.921465 236.905046 
L 264.785357 233.320178 
L 265.759671 232.560853 
L 267.5654 228.882417 
L 269.390616 237.975895 
L 270.377921 235.308209 
L 271.280786 238.041636 
L 272.547395 228.418004 
L 273.76204 229.447241 
L 274.905236 230.83588 
L 275.873055 236.160069 
L 277.035736 221.407414 
L 277.932106 237.681726 
L 278.828475 234.346457 
L 279.65989 244.824278 
L 280.861544 228.021285 
L 281.725436 237.526781 
L 282.732228 236.026644 
L 284.498985 241.258262 
L 285.603208 231.048801 
L 286.525559 236.954018 
L 287.382955 239.448661 
L 288.428719 236.160162 
L 289.409529 234.624075 
L 290.312394 236.357552 
L 291.306194 234.008981 
L 292.228545 233.675822 
L 293.196364 231.937454 
L 293.988807 241.971647 
L 294.781249 243.376555 
L 295.664627 232.510521 
L 296.560997 233.776675 
L 297.424889 235.581818 
L 299.048746 241.140743 
L 299.880161 237.572108 
L 300.763539 236.762689 
L 301.659909 237.081165 
L 302.757636 231.466445 
L 303.920318 229.816284 
L 304.69977 241.108671 
L 306.330122 237.871411 
L 307.551263 228.192868 
L 308.311228 245.647175 
L 309.467415 228.783771 
L 312.150027 186.663095 
L 312.974946 240.150412 
L 314.871612 231.718944 
L 315.722513 239.636743 
L 316.566919 237.083564 
L 317.26193 250.722696 
L 318.424612 229.915365 
L 319.301495 236.953704 
L 320.801939 221.888068 
L 321.997098 219.680639 
L 323.107816 227.21661 
L 323.932736 238.56516 
L 324.699196 241.457439 
L 325.576079 239.581541 
L 326.680302 222.432771 
L 327.609149 235.15905 
L 328.421077 238.049175 
L 329.453851 210.32275 
L 330.298256 237.308903 
L 331.25958 228.054442 
L 332.129967 228.826999 
L 332.961382 237.10542 
L 333.662889 245.941594 
L 334.409863 244.234161 
L 335.312728 227.717974 
L 336.196106 228.823502 
L 336.995044 235.002591 
L 338.001835 222.833689 
L 338.683855 262.978761 
L 339.554243 223.773608 
L 341.853625 207.986783 
L 342.470691 265.361216 
L 343.308601 227.428226 
L 344.12053 234.82263 
L 345.10134 221.567227 
L 345.685928 263.442994 
L 346.264021 261.298711 
L 346.790151 266.37657 
L 347.348758 262.475002 
L 348.251623 231.175811 
L 348.81023 263.173366 
L 349.752067 230.745866 
L 350.654932 223.38873 
L 351.53831 227.552227 
L 352.428184 237.180172 
L 353.460957 212.51653 
L 354.006573 264.533789 
L 355.052337 214.879026 
L 356.591754 203.059404 
L 357.429664 229.10365 
L 358.313043 229.933914 
L 359.163944 238.099055 
L 360.00835 227.743408 
L 360.800792 236.013404 
L 361.638703 230.456007 
L 362.431145 237.562128 
L 363.256064 233.212815 
L 364.184911 226.691759 
L 365.185207 224.917264 
L 366.049099 231.092954 
L 366.887009 236.279684 
L 367.72492 234.188175 
L 368.56283 234.209228 
L 369.420227 230.336577 
L 370.251642 234.970735 
L 371.096048 232.207831 
L 371.869004 239.284666 
L 372.700419 230.71199 
L 373.038181 287.968176 
L 373.272016 291.335119 
L 373.668238 286.936662 
L 374.675029 232.60053 
L 374.980314 289.316116 
L 375.363545 288.710143 
L 376.181969 235.552707 
L 377.013384 235.197191 
L 377.825312 236.47908 
L 378.591773 240.570166 
L 379.507628 234.292509 
L 380.378016 236.082412 
L 381.150972 239.312647 
L 382.1058 233.858123 
L 382.878756 238.639941 
L 383.716667 235.657584 
L 384.502614 236.37854 
L 385.308047 239.216252 
L 386.171939 237.120324 
L 386.977372 231.978311 
L 387.789301 238.869093 
L 388.659688 231.609595 
L 389.432644 238.206507 
L 390.41995 230.551417 
L 391.231878 237.066672 
L 392.030816 237.476657 
L 392.784286 242.940119 
L 393.60271 232.216534 
L 394.499079 226.618097 
L 395.291522 239.238225 
L 395.986532 246.734471 
L 396.876406 232.788904 
L 397.558426 248.145293 
L 398.266428 248.268775 
L 398.266428 248.268775 
" clip-path="url(#p81992d98eb)" style="fill: none; stroke: #2ca02c; stroke-width: 1.5; stroke-linecap: square"/>
   </g>
   <g id="patch_3">
    <path d="M 57.6 307.584 
L 57.6 41.472 
" style="fill: none; stroke: #000000; stroke-width: 0.8; stroke-linejoin: miter; stroke-linecap: square"/>
   </g>
   <g id="patch_4">
    <path d="M 414.72 307.584 
L 414.72 41.472 
" style="fill: none; stroke: #000000; stroke-width: 0.8; stroke-linejoin: miter; stroke-linecap: square"/>
   </g>
   <g id="patch_5">
    <path d="M 57.6 307.584 
L 414.72 307.584 
" style="fill: none; stroke: #000000; stroke-width: 0.8; stroke-linejoin: miter; stroke-linecap: square"/>
   </g>
   <g id="patch_6">
    <path d="M 57.6 41.472 
L 414.72 41.472 
" style="fill: none; stroke: #000000; stroke-width: 0.8; stroke-linejoin: miter; stroke-linecap: square"/>
   </g>
   <g id="text_16">
    <!-- learning curve -->
    <g transform="translate(192.96375 35.472) scale(0.12 -0.12)">
     <defs>
      <path id="DejaVuSans-6c" d="M 603 4863 
L 1178 4863 
L 1178 0 
L 603 0 
L 603 4863 
z
" transform="scale(0.015625)"/>
      <path id="DejaVuSans-67" d="M 2906 1791 
Q 2906 2416 2648 2759 
Q 2391 3103 1925 3103 
Q 1463 3103 1205 2759 
Q 947 2416 947 1791 
Q 947 1169 1205 825 
Q 1463 481 1925 481 
Q 2391 481 2648 825 
Q 2906 1169 2906 1791 
z
M 3481 434 
Q 3481 -459 3084 -895 
Q 2688 -1331 1869 -1331 
Q 1566 -1331 1297 -1286 
Q 1028 -1241 775 -1147 
L 775 -588 
Q 1028 -725 1275 -790 
Q 1522 -856 1778 -856 
Q 2344 -856 2625 -561 
Q 2906 -266 2906 331 
L 2906 616 
Q 2728 306 2450 153 
Q 2172 0 1784 0 
Q 1141 0 747 490 
Q 353 981 353 1791 
Q 353 2603 747 3093 
Q 1141 3584 1784 3584 
Q 2172 3584 2450 3431 
Q 2728 3278 2906 2969 
L 2906 3500 
L 3481 3500 
L 3481 434 
z
" transform="scale(0.015625)"/>
      <path id="DejaVuSans-63" d="M 3122 3366 
L 3122 2828 
Q 2878 2963 2633 3030 
Q 2388 3097 2138 3097 
Q 1578 3097 1268 2742 
Q 959 2388 959 1747 
Q 959 1106 1268 751 
Q 1578 397 2138 397 
Q 2388 397 2633 464 
Q 2878 531 3122 666 
L 3122 134 
Q 2881 22 2623 -34 
Q 2366 -91 2075 -91 
Q 1284 -91 818 406 
Q 353 903 353 1747 
Q 353 2603 823 3093 
Q 1294 3584 2113 3584 
Q 2378 3584 2631 3529 
Q 2884 3475 3122 3366 
z
" transform="scale(0.015625)"/>
      <path id="DejaVuSans-75" d="M 544 1381 
L 544 3500 
L 1119 3500 
L 1119 1403 
Q 1119 906 1312 657 
Q 1506 409 1894 409 
Q 2359 409 2629 706 
Q 2900 1003 2900 1516 
L 2900 3500 
L 3475 3500 
L 3475 0 
L 2900 0 
L 2900 538 
Q 2691 219 2414 64 
Q 2138 -91 1772 -91 
Q 1169 -91 856 284 
Q 544 659 544 1381 
z
M 1991 3584 
L 1991 3584 
z
" transform="scale(0.015625)"/>
      <path id="DejaVuSans-76" d="M 191 3500 
L 800 3500 
L 1894 563 
L 2988 3500 
L 3597 3500 
L 2284 0 
L 1503 0 
L 191 3500 
z
" transform="scale(0.015625)"/>
     </defs>
     <use xlink:href="#DejaVuSans-6c"/>
     <use xlink:href="#DejaVuSans-65" x="27.783203"/>
     <use xlink:href="#DejaVuSans-61" x="89.306641"/>
     <use xlink:href="#DejaVuSans-72" x="150.585938"/>
     <use xlink:href="#DejaVuSans-6e" x="189.949219"/>
     <use xlink:href="#DejaVuSans-69" x="253.328125"/>
     <use xlink:href="#DejaVuSans-6e" x="281.111328"/>
     <use xlink:href="#DejaVuSans-67" x="344.490234"/>
     <use xlink:href="#DejaVuSans-20" x="407.966797"/>
     <use xlink:href="#DejaVuSans-63" x="439.753906"/>
     <use xlink:href="#DejaVuSans-75" x="494.734375"/>
     <use xlink:href="#DejaVuSans-72" x="558.113281"/>
     <use xlink:href="#DejaVuSans-76" x="599.226562"/>
     <use xlink:href="#DejaVuSans-65" x="658.40625"/>
    </g>
   </g>
   <g id="legend_1">
    <g id="patch_7">
     <path d="M 64.6 93.506375 
L 166.614062 93.506375 
Q 168.614062 93.506375 168.614062 91.506375 
L 168.614062 48.472 
Q 168.614062 46.472 166.614062 46.472 
L 64.6 46.472 
Q 62.6 46.472 62.6 48.472 
L 62.6 91.506375 
Q 62.6 93.506375 64.6 93.506375 
z
" style="fill: #ffffff; opacity: 0.8; stroke: #cccccc; stroke-linejoin: miter"/>
    </g>
    <g id="line2d_17">
     <path d="M 66.6 54.570438 
L 76.6 54.570438 
L 86.6 54.570438 
" style="fill: none; stroke: #1f77b4; stroke-width: 1.5; stroke-linecap: square"/>
    </g>
    <g id="text_17">
     <!-- source-source -->
     <g transform="translate(94.6 58.070438) scale(0.1 -0.1)">
      <defs>
       <path id="DejaVuSans-2d" d="M 313 2009 
L 1997 2009 
L 1997 1497 
L 313 1497 
L 313 2009 
z
" transform="scale(0.015625)"/>
      </defs>
      <use xlink:href="#DejaVuSans-73"/>
      <use xlink:href="#DejaVuSans-6f" x="52.099609"/>
      <use xlink:href="#DejaVuSans-75" x="113.28125"/>
      <use xlink:href="#DejaVuSans-72" x="176.660156"/>
      <use xlink:href="#DejaVuSans-63" x="215.523438"/>
      <use xlink:href="#DejaVuSans-65" x="270.503906"/>
      <use xlink:href="#DejaVuSans-2d" x="332.027344"/>
      <use xlink:href="#DejaVuSans-73" x="368.111328"/>
      <use xlink:href="#DejaVuSans-6f" x="420.210938"/>
      <use xlink:href="#DejaVuSans-75" x="481.392578"/>
      <use xlink:href="#DejaVuSans-72" x="544.771484"/>
      <use xlink:href="#DejaVuSans-63" x="583.634766"/>
      <use xlink:href="#DejaVuSans-65" x="638.615234"/>
     </g>
    </g>
    <g id="line2d_18">
     <path d="M 66.6 69.248563 
L 76.6 69.248563 
L 86.6 69.248563 
" style="fill: none; stroke: #ff7f0e; stroke-width: 1.5; stroke-linecap: square"/>
    </g>
    <g id="text_18">
     <!-- source-target -->
     <g transform="translate(94.6 72.748563) scale(0.1 -0.1)">
      <use xlink:href="#DejaVuSans-73"/>
      <use xlink:href="#DejaVuSans-6f" x="52.099609"/>
      <use xlink:href="#DejaVuSans-75" x="113.28125"/>
      <use xlink:href="#DejaVuSans-72" x="176.660156"/>
      <use xlink:href="#DejaVuSans-63" x="215.523438"/>
      <use xlink:href="#DejaVuSans-65" x="270.503906"/>
      <use xlink:href="#DejaVuSans-2d" x="332.027344"/>
      <use xlink:href="#DejaVuSans-74" x="368.111328"/>
      <use xlink:href="#DejaVuSans-61" x="407.320312"/>
      <use xlink:href="#DejaVuSans-72" x="468.599609"/>
      <use xlink:href="#DejaVuSans-67" x="507.962891"/>
      <use xlink:href="#DejaVuSans-65" x="571.439453"/>
      <use xlink:href="#DejaVuSans-74" x="632.962891"/>
     </g>
    </g>
    <g id="line2d_19">
     <path d="M 66.6 83.926688 
L 76.6 83.926688 
L 86.6 83.926688 
" style="fill: none; stroke: #2ca02c; stroke-width: 1.5; stroke-linecap: square"/>
    </g>
    <g id="text_19">
     <!-- target-target -->
     <g transform="translate(94.6 87.426688) scale(0.1 -0.1)">
      <use xlink:href="#DejaVuSans-74"/>
      <use xlink:href="#DejaVuSans-61" x="39.208984"/>
      <use xlink:href="#DejaVuSans-72" x="100.488281"/>
      <use xlink:href="#DejaVuSans-67" x="139.851562"/>
      <use xlink:href="#DejaVuSans-65" x="203.328125"/>
      <use xlink:href="#DejaVuSans-74" x="264.851562"/>
      <use xlink:href="#DejaVuSans-2d" x="304.060547"/>
      <use xlink:href="#DejaVuSans-74" x="340.144531"/>
      <use xlink:href="#DejaVuSans-61" x="379.353516"/>
      <use xlink:href="#DejaVuSans-72" x="440.632812"/>
      <use xlink:href="#DejaVuSans-67" x="479.996094"/>
      <use xlink:href="#DejaVuSans-65" x="543.472656"/>
      <use xlink:href="#DejaVuSans-74" x="604.996094"/>
     </g>
    </g>
   </g>
  </g>
 </g>
 <defs>
  <clipPath id="p81992d98eb">
   <rect x="57.6" y="41.472" width="357.12" height="266.112"/>
  </clipPath>
 </defs>
</svg>
