<?xml version="1.0" encoding="utf-8" standalone="no"?>
<!DOCTYPE svg PUBLIC "-//W3C//DTD SVG 1.1//EN"
  "http://www.w3.org/Graphics/SVG/1.1/DTD/svg11.dtd">
<svg xmlns:xlink="http://www.w3.org/1999/xlink" width="460.8pt" height="345.6pt" viewBox="0 0 460.8 345.6" xmlns="http://www.w3.org/2000/svg" version="1.1">
 <metadata>
  <rdf:RDF xmlns:dc="http://purl.org/dc/elements/1.1/" xmlns:cc="http://creativecommons.org/ns#" xmlns:rdf="http://www.w3.org/1999/02/22-rdf-syntax-ns#">
   <cc:Work>
    <dc:type rdf:resource="http://purl.org/dc/dcmitype/StillImage"/>
    <dc:date>2023-08-19T14:22:54.405036</dc:date>
    <dc:format>image/svg+xml</dc:format>
    <dc:creator>
     <cc:Agent>
      <dc:title>Matplotlib v3.7.1, https://matplotlib.org/</dc:title>
     </cc:Agent>
    </dc:creator>
   </cc:Work>
  </rdf:RDF>
 </metadata>
 <defs>
  <style type="text/css">*{stroke-linejoin: round; stroke-linecap: butt}</style>
 </defs>
 <g id="figure_1">
  <g id="patch_1">
   <path d="M 0 345.6 
L 460.8 345.6 
L 460.8 0 
L 0 0 
z
" style="fill: #ffffff"/>
  </g>
  <g id="axes_1">
   <g id="patch_2">
    <path d="M 57.6 307.584 
L 414.72 307.584 
L 414.72 41.472 
L 57.6 41.472 
z
" style="fill: #ffffff"/>
   </g>
   <g id="matplotlib.axis_1">
    <g id="xtick_1">
     <g id="line2d_1">
      <defs>
       <path id="m1aa510b0fb" d="M 0 0 
L 0 3.5 
" style="stroke: #000000; stroke-width: 0.8"/>
      </defs>
      <g>
       <use xlink:href="#m1aa510b0fb" x="73.611812" y="307.584" style="stroke: #000000; stroke-width: 0.8"/>
      </g>
     </g>
     <g id="text_1">
      <!-- 0 -->
      <g transform="translate(70.430562 322.182437) scale(0.1 -0.1)">
       <defs>
        <path id="DejaVuSans-30" d="M 2034 4250 
Q 1547 4250 1301 3770 
Q 1056 3291 1056 2328 
Q 1056 1369 1301 889 
Q 1547 409 2034 409 
Q 2525 409 2770 889 
Q 3016 1369 3016 2328 
Q 3016 3291 2770 3770 
Q 2525 4250 2034 4250 
z
M 2034 4750 
Q 2819 4750 3233 4129 
Q 3647 3509 3647 2328 
Q 3647 1150 3233 529 
Q 2819 -91 2034 -91 
Q 1250 -91 836 529 
Q 422 1150 422 2328 
Q 422 3509 836 4129 
Q 1250 4750 2034 4750 
z
" transform="scale(0.015625)"/>
       </defs>
       <use xlink:href="#DejaVuSans-30"/>
      </g>
     </g>
    </g>
    <g id="xtick_2">
     <g id="line2d_2">
      <g>
       <use xlink:href="#m1aa510b0fb" x="138.586904" y="307.584" style="stroke: #000000; stroke-width: 0.8"/>
      </g>
     </g>
     <g id="text_2">
      <!-- 100000 -->
      <g transform="translate(119.499404 322.182437) scale(0.1 -0.1)">
       <defs>
        <path id="DejaVuSans-31" d="M 794 531 
L 1825 531 
L 1825 4091 
L 703 3866 
L 703 4441 
L 1819 4666 
L 2450 4666 
L 2450 531 
L 3481 531 
L 3481 0 
L 794 0 
L 794 531 
z
" transform="scale(0.015625)"/>
       </defs>
       <use xlink:href="#DejaVuSans-31"/>
       <use xlink:href="#DejaVuSans-30" x="63.623047"/>
       <use xlink:href="#DejaVuSans-30" x="127.246094"/>
       <use xlink:href="#DejaVuSans-30" x="190.869141"/>
       <use xlink:href="#DejaVuSans-30" x="254.492188"/>
       <use xlink:href="#DejaVuSans-30" x="318.115234"/>
      </g>
     </g>
    </g>
    <g id="xtick_3">
     <g id="line2d_3">
      <g>
       <use xlink:href="#m1aa510b0fb" x="203.561996" y="307.584" style="stroke: #000000; stroke-width: 0.8"/>
      </g>
     </g>
     <g id="text_3">
      <!-- 200000 -->
      <g transform="translate(184.474496 322.182437) scale(0.1 -0.1)">
       <defs>
        <path id="DejaVuSans-32" d="M 1228 531 
L 3431 531 
L 3431 0 
L 469 0 
L 469 531 
Q 828 903 1448 1529 
Q 2069 2156 2228 2338 
Q 2531 2678 2651 2914 
Q 2772 3150 2772 3378 
Q 2772 3750 2511 3984 
Q 2250 4219 1831 4219 
Q 1534 4219 1204 4116 
Q 875 4013 500 3803 
L 500 4441 
Q 881 4594 1212 4672 
Q 1544 4750 1819 4750 
Q 2544 4750 2975 4387 
Q 3406 4025 3406 3419 
Q 3406 3131 3298 2873 
Q 3191 2616 2906 2266 
Q 2828 2175 2409 1742 
Q 1991 1309 1228 531 
z
" transform="scale(0.015625)"/>
       </defs>
       <use xlink:href="#DejaVuSans-32"/>
       <use xlink:href="#DejaVuSans-30" x="63.623047"/>
       <use xlink:href="#DejaVuSans-30" x="127.246094"/>
       <use xlink:href="#DejaVuSans-30" x="190.869141"/>
       <use xlink:href="#DejaVuSans-30" x="254.492188"/>
       <use xlink:href="#DejaVuSans-30" x="318.115234"/>
      </g>
     </g>
    </g>
    <g id="xtick_4">
     <g id="line2d_4">
      <g>
       <use xlink:href="#m1aa510b0fb" x="268.537088" y="307.584" style="stroke: #000000; stroke-width: 0.8"/>
      </g>
     </g>
     <g id="text_4">
      <!-- 300000 -->
      <g transform="translate(249.449588 322.182437) scale(0.1 -0.1)">
       <defs>
        <path id="DejaVuSans-33" d="M 2597 2516 
Q 3050 2419 3304 2112 
Q 3559 1806 3559 1356 
Q 3559 666 3084 287 
Q 2609 -91 1734 -91 
Q 1441 -91 1130 -33 
Q 819 25 488 141 
L 488 750 
Q 750 597 1062 519 
Q 1375 441 1716 441 
Q 2309 441 2620 675 
Q 2931 909 2931 1356 
Q 2931 1769 2642 2001 
Q 2353 2234 1838 2234 
L 1294 2234 
L 1294 2753 
L 1863 2753 
Q 2328 2753 2575 2939 
Q 2822 3125 2822 3475 
Q 2822 3834 2567 4026 
Q 2313 4219 1838 4219 
Q 1578 4219 1281 4162 
Q 984 4106 628 3988 
L 628 4550 
Q 988 4650 1302 4700 
Q 1616 4750 1894 4750 
Q 2613 4750 3031 4423 
Q 3450 4097 3450 3541 
Q 3450 3153 3228 2886 
Q 3006 2619 2597 2516 
z
" transform="scale(0.015625)"/>
       </defs>
       <use xlink:href="#DejaVuSans-33"/>
       <use xlink:href="#DejaVuSans-30" x="63.623047"/>
       <use xlink:href="#DejaVuSans-30" x="127.246094"/>
       <use xlink:href="#DejaVuSans-30" x="190.869141"/>
       <use xlink:href="#DejaVuSans-30" x="254.492188"/>
       <use xlink:href="#DejaVuSans-30" x="318.115234"/>
      </g>
     </g>
    </g>
    <g id="xtick_5">
     <g id="line2d_5">
      <g>
       <use xlink:href="#m1aa510b0fb" x="333.512181" y="307.584" style="stroke: #000000; stroke-width: 0.8"/>
      </g>
     </g>
     <g id="text_5">
      <!-- 400000 -->
      <g transform="translate(314.424681 322.182437) scale(0.1 -0.1)">
       <defs>
        <path id="DejaVuSans-34" d="M 2419 4116 
L 825 1625 
L 2419 1625 
L 2419 4116 
z
M 2253 4666 
L 3047 4666 
L 3047 1625 
L 3713 1625 
L 3713 1100 
L 3047 1100 
L 3047 0 
L 2419 0 
L 2419 1100 
L 313 1100 
L 313 1709 
L 2253 4666 
z
" transform="scale(0.015625)"/>
       </defs>
       <use xlink:href="#DejaVuSans-34"/>
       <use xlink:href="#DejaVuSans-30" x="63.623047"/>
       <use xlink:href="#DejaVuSans-30" x="127.246094"/>
       <use xlink:href="#DejaVuSans-30" x="190.869141"/>
       <use xlink:href="#DejaVuSans-30" x="254.492188"/>
       <use xlink:href="#DejaVuSans-30" x="318.115234"/>
      </g>
     </g>
    </g>
    <g id="xtick_6">
     <g id="line2d_6">
      <g>
       <use xlink:href="#m1aa510b0fb" x="398.487273" y="307.584" style="stroke: #000000; stroke-width: 0.8"/>
      </g>
     </g>
     <g id="text_6">
      <!-- 500000 -->
      <g transform="translate(379.399773 322.182437) scale(0.1 -0.1)">
       <defs>
        <path id="DejaVuSans-35" d="M 691 4666 
L 3169 4666 
L 3169 4134 
L 1269 4134 
L 1269 2991 
Q 1406 3038 1543 3061 
Q 1681 3084 1819 3084 
Q 2600 3084 3056 2656 
Q 3513 2228 3513 1497 
Q 3513 744 3044 326 
Q 2575 -91 1722 -91 
Q 1428 -91 1123 -41 
Q 819 9 494 109 
L 494 744 
Q 775 591 1075 516 
Q 1375 441 1709 441 
Q 2250 441 2565 725 
Q 2881 1009 2881 1497 
Q 2881 1984 2565 2268 
Q 2250 2553 1709 2553 
Q 1456 2553 1204 2497 
Q 953 2441 691 2322 
L 691 4666 
z
" transform="scale(0.015625)"/>
       </defs>
       <use xlink:href="#DejaVuSans-35"/>
       <use xlink:href="#DejaVuSans-30" x="63.623047"/>
       <use xlink:href="#DejaVuSans-30" x="127.246094"/>
       <use xlink:href="#DejaVuSans-30" x="190.869141"/>
       <use xlink:href="#DejaVuSans-30" x="254.492188"/>
       <use xlink:href="#DejaVuSans-30" x="318.115234"/>
      </g>
     </g>
    </g>
    <g id="text_7">
     <!-- timesteps -->
     <g transform="translate(211.443594 335.860562) scale(0.1 -0.1)">
      <defs>
       <path id="DejaVuSans-74" d="M 1172 4494 
L 1172 3500 
L 2356 3500 
L 2356 3053 
L 1172 3053 
L 1172 1153 
Q 1172 725 1289 603 
Q 1406 481 1766 481 
L 2356 481 
L 2356 0 
L 1766 0 
Q 1100 0 847 248 
Q 594 497 594 1153 
L 594 3053 
L 172 3053 
L 172 3500 
L 594 3500 
L 594 4494 
L 1172 4494 
z
" transform="scale(0.015625)"/>
       <path id="DejaVuSans-69" d="M 603 3500 
L 1178 3500 
L 1178 0 
L 603 0 
L 603 3500 
z
M 603 4863 
L 1178 4863 
L 1178 4134 
L 603 4134 
L 603 4863 
z
" transform="scale(0.015625)"/>
       <path id="DejaVuSans-6d" d="M 3328 2828 
Q 3544 3216 3844 3400 
Q 4144 3584 4550 3584 
Q 5097 3584 5394 3201 
Q 5691 2819 5691 2113 
L 5691 0 
L 5113 0 
L 5113 2094 
Q 5113 2597 4934 2840 
Q 4756 3084 4391 3084 
Q 3944 3084 3684 2787 
Q 3425 2491 3425 1978 
L 3425 0 
L 2847 0 
L 2847 2094 
Q 2847 2600 2669 2842 
Q 2491 3084 2119 3084 
Q 1678 3084 1418 2786 
Q 1159 2488 1159 1978 
L 1159 0 
L 581 0 
L 581 3500 
L 1159 3500 
L 1159 2956 
Q 1356 3278 1631 3431 
Q 1906 3584 2284 3584 
Q 2666 3584 2933 3390 
Q 3200 3197 3328 2828 
z
" transform="scale(0.015625)"/>
       <path id="DejaVuSans-65" d="M 3597 1894 
L 3597 1613 
L 953 1613 
Q 991 1019 1311 708 
Q 1631 397 2203 397 
Q 2534 397 2845 478 
Q 3156 559 3463 722 
L 3463 178 
Q 3153 47 2828 -22 
Q 2503 -91 2169 -91 
Q 1331 -91 842 396 
Q 353 884 353 1716 
Q 353 2575 817 3079 
Q 1281 3584 2069 3584 
Q 2775 3584 3186 3129 
Q 3597 2675 3597 1894 
z
M 3022 2063 
Q 3016 2534 2758 2815 
Q 2500 3097 2075 3097 
Q 1594 3097 1305 2825 
Q 1016 2553 972 2059 
L 3022 2063 
z
" transform="scale(0.015625)"/>
       <path id="DejaVuSans-73" d="M 2834 3397 
L 2834 2853 
Q 2591 2978 2328 3040 
Q 2066 3103 1784 3103 
Q 1356 3103 1142 2972 
Q 928 2841 928 2578 
Q 928 2378 1081 2264 
Q 1234 2150 1697 2047 
L 1894 2003 
Q 2506 1872 2764 1633 
Q 3022 1394 3022 966 
Q 3022 478 2636 193 
Q 2250 -91 1575 -91 
Q 1294 -91 989 -36 
Q 684 19 347 128 
L 347 722 
Q 666 556 975 473 
Q 1284 391 1588 391 
Q 1994 391 2212 530 
Q 2431 669 2431 922 
Q 2431 1156 2273 1281 
Q 2116 1406 1581 1522 
L 1381 1569 
Q 847 1681 609 1914 
Q 372 2147 372 2553 
Q 372 3047 722 3315 
Q 1072 3584 1716 3584 
Q 2034 3584 2315 3537 
Q 2597 3491 2834 3397 
z
" transform="scale(0.015625)"/>
       <path id="DejaVuSans-70" d="M 1159 525 
L 1159 -1331 
L 581 -1331 
L 581 3500 
L 1159 3500 
L 1159 2969 
Q 1341 3281 1617 3432 
Q 1894 3584 2278 3584 
Q 2916 3584 3314 3078 
Q 3713 2572 3713 1747 
Q 3713 922 3314 415 
Q 2916 -91 2278 -91 
Q 1894 -91 1617 61 
Q 1341 213 1159 525 
z
M 3116 1747 
Q 3116 2381 2855 2742 
Q 2594 3103 2138 3103 
Q 1681 3103 1420 2742 
Q 1159 2381 1159 1747 
Q 1159 1113 1420 752 
Q 1681 391 2138 391 
Q 2594 391 2855 752 
Q 3116 1113 3116 1747 
z
" transform="scale(0.015625)"/>
      </defs>
      <use xlink:href="#DejaVuSans-74"/>
      <use xlink:href="#DejaVuSans-69" x="39.208984"/>
      <use xlink:href="#DejaVuSans-6d" x="66.992188"/>
      <use xlink:href="#DejaVuSans-65" x="164.404297"/>
      <use xlink:href="#DejaVuSans-73" x="225.927734"/>
      <use xlink:href="#DejaVuSans-74" x="278.027344"/>
      <use xlink:href="#DejaVuSans-65" x="317.236328"/>
      <use xlink:href="#DejaVuSans-70" x="378.759766"/>
      <use xlink:href="#DejaVuSans-73" x="442.236328"/>
     </g>
    </g>
   </g>
   <g id="matplotlib.axis_2">
    <g id="ytick_1">
     <g id="line2d_7">
      <defs>
       <path id="md459ec2371" d="M 0 0 
L -3.5 0 
" style="stroke: #000000; stroke-width: 0.8"/>
      </defs>
      <g>
       <use xlink:href="#md459ec2371" x="57.6" y="300.529079" style="stroke: #000000; stroke-width: 0.8"/>
      </g>
     </g>
     <g id="text_8">
      <!-- 0 -->
      <g transform="translate(44.2375 304.328298) scale(0.1 -0.1)">
       <use xlink:href="#DejaVuSans-30"/>
      </g>
     </g>
    </g>
    <g id="ytick_2">
     <g id="line2d_8">
      <g>
       <use xlink:href="#md459ec2371" x="57.6" y="248.739193" style="stroke: #000000; stroke-width: 0.8"/>
      </g>
     </g>
     <g id="text_9">
      <!-- 100 -->
      <g transform="translate(31.5125 252.538412) scale(0.1 -0.1)">
       <use xlink:href="#DejaVuSans-31"/>
       <use xlink:href="#DejaVuSans-30" x="63.623047"/>
       <use xlink:href="#DejaVuSans-30" x="127.246094"/>
      </g>
     </g>
    </g>
    <g id="ytick_3">
     <g id="line2d_9">
      <g>
       <use xlink:href="#md459ec2371" x="57.6" y="196.949307" style="stroke: #000000; stroke-width: 0.8"/>
      </g>
     </g>
     <g id="text_10">
      <!-- 200 -->
      <g transform="translate(31.5125 200.748526) scale(0.1 -0.1)">
       <use xlink:href="#DejaVuSans-32"/>
       <use xlink:href="#DejaVuSans-30" x="63.623047"/>
       <use xlink:href="#DejaVuSans-30" x="127.246094"/>
      </g>
     </g>
    </g>
    <g id="ytick_4">
     <g id="line2d_10">
      <g>
       <use xlink:href="#md459ec2371" x="57.6" y="145.159421" style="stroke: #000000; stroke-width: 0.8"/>
      </g>
     </g>
     <g id="text_11">
      <!-- 300 -->
      <g transform="translate(31.5125 148.95864) scale(0.1 -0.1)">
       <use xlink:href="#DejaVuSans-33"/>
       <use xlink:href="#DejaVuSans-30" x="63.623047"/>
       <use xlink:href="#DejaVuSans-30" x="127.246094"/>
      </g>
     </g>
    </g>
    <g id="ytick_5">
     <g id="line2d_11">
      <g>
       <use xlink:href="#md459ec2371" x="57.6" y="93.369535" style="stroke: #000000; stroke-width: 0.8"/>
      </g>
     </g>
     <g id="text_12">
      <!-- 400 -->
      <g transform="translate(31.5125 97.168754) scale(0.1 -0.1)">
       <use xlink:href="#DejaVuSans-34"/>
       <use xlink:href="#DejaVuSans-30" x="63.623047"/>
       <use xlink:href="#DejaVuSans-30" x="127.246094"/>
      </g>
     </g>
    </g>
    <g id="ytick_6">
     <g id="line2d_12">
      <g>
       <use xlink:href="#md459ec2371" x="57.6" y="41.579649" style="stroke: #000000; stroke-width: 0.8"/>
      </g>
     </g>
     <g id="text_13">
      <!-- 500 -->
      <g transform="translate(31.5125 45.378868) scale(0.1 -0.1)">
       <use xlink:href="#DejaVuSans-35"/>
       <use xlink:href="#DejaVuSans-30" x="63.623047"/>
       <use xlink:href="#DejaVuSans-30" x="127.246094"/>
      </g>
     </g>
    </g>
    <g id="text_14">
     <!-- mean episode rewards -->
     <g transform="translate(25.432812 231.360031) rotate(-90) scale(0.1 -0.1)">
      <defs>
       <path id="DejaVuSans-61" d="M 2194 1759 
Q 1497 1759 1228 1600 
Q 959 1441 959 1056 
Q 959 750 1161 570 
Q 1363 391 1709 391 
Q 2188 391 2477 730 
Q 2766 1069 2766 1631 
L 2766 1759 
L 2194 1759 
z
M 3341 1997 
L 3341 0 
L 2766 0 
L 2766 531 
Q 2569 213 2275 61 
Q 1981 -91 1556 -91 
Q 1019 -91 701 211 
Q 384 513 384 1019 
Q 384 1609 779 1909 
Q 1175 2209 1959 2209 
L 2766 2209 
L 2766 2266 
Q 2766 2663 2505 2880 
Q 2244 3097 1772 3097 
Q 1472 3097 1187 3025 
Q 903 2953 641 2809 
L 641 3341 
Q 956 3463 1253 3523 
Q 1550 3584 1831 3584 
Q 2591 3584 2966 3190 
Q 3341 2797 3341 1997 
z
" transform="scale(0.015625)"/>
       <path id="DejaVuSans-6e" d="M 3513 2113 
L 3513 0 
L 2938 0 
L 2938 2094 
Q 2938 2591 2744 2837 
Q 2550 3084 2163 3084 
Q 1697 3084 1428 2787 
Q 1159 2491 1159 1978 
L 1159 0 
L 581 0 
L 581 3500 
L 1159 3500 
L 1159 2956 
Q 1366 3272 1645 3428 
Q 1925 3584 2291 3584 
Q 2894 3584 3203 3211 
Q 3513 2838 3513 2113 
z
" transform="scale(0.015625)"/>
       <path id="DejaVuSans-20" transform="scale(0.015625)"/>
       <path id="DejaVuSans-6f" d="M 1959 3097 
Q 1497 3097 1228 2736 
Q 959 2375 959 1747 
Q 959 1119 1226 758 
Q 1494 397 1959 397 
Q 2419 397 2687 759 
Q 2956 1122 2956 1747 
Q 2956 2369 2687 2733 
Q 2419 3097 1959 3097 
z
M 1959 3584 
Q 2709 3584 3137 3096 
Q 3566 2609 3566 1747 
Q 3566 888 3137 398 
Q 2709 -91 1959 -91 
Q 1206 -91 779 398 
Q 353 888 353 1747 
Q 353 2609 779 3096 
Q 1206 3584 1959 3584 
z
" transform="scale(0.015625)"/>
       <path id="DejaVuSans-64" d="M 2906 2969 
L 2906 4863 
L 3481 4863 
L 3481 0 
L 2906 0 
L 2906 525 
Q 2725 213 2448 61 
Q 2172 -91 1784 -91 
Q 1150 -91 751 415 
Q 353 922 353 1747 
Q 353 2572 751 3078 
Q 1150 3584 1784 3584 
Q 2172 3584 2448 3432 
Q 2725 3281 2906 2969 
z
M 947 1747 
Q 947 1113 1208 752 
Q 1469 391 1925 391 
Q 2381 391 2643 752 
Q 2906 1113 2906 1747 
Q 2906 2381 2643 2742 
Q 2381 3103 1925 3103 
Q 1469 3103 1208 2742 
Q 947 2381 947 1747 
z
" transform="scale(0.015625)"/>
       <path id="DejaVuSans-72" d="M 2631 2963 
Q 2534 3019 2420 3045 
Q 2306 3072 2169 3072 
Q 1681 3072 1420 2755 
Q 1159 2438 1159 1844 
L 1159 0 
L 581 0 
L 581 3500 
L 1159 3500 
L 1159 2956 
Q 1341 3275 1631 3429 
Q 1922 3584 2338 3584 
Q 2397 3584 2469 3576 
Q 2541 3569 2628 3553 
L 2631 2963 
z
" transform="scale(0.015625)"/>
       <path id="DejaVuSans-77" d="M 269 3500 
L 844 3500 
L 1563 769 
L 2278 3500 
L 2956 3500 
L 3675 769 
L 4391 3500 
L 4966 3500 
L 4050 0 
L 3372 0 
L 2619 2869 
L 1863 0 
L 1184 0 
L 269 3500 
z
" transform="scale(0.015625)"/>
      </defs>
      <use xlink:href="#DejaVuSans-6d"/>
      <use xlink:href="#DejaVuSans-65" x="97.412109"/>
      <use xlink:href="#DejaVuSans-61" x="158.935547"/>
      <use xlink:href="#DejaVuSans-6e" x="220.214844"/>
      <use xlink:href="#DejaVuSans-20" x="283.59375"/>
      <use xlink:href="#DejaVuSans-65" x="315.380859"/>
      <use xlink:href="#DejaVuSans-70" x="376.904297"/>
      <use xlink:href="#DejaVuSans-69" x="440.380859"/>
      <use xlink:href="#DejaVuSans-73" x="468.164062"/>
      <use xlink:href="#DejaVuSans-6f" x="520.263672"/>
      <use xlink:href="#DejaVuSans-64" x="581.445312"/>
      <use xlink:href="#DejaVuSans-65" x="644.921875"/>
      <use xlink:href="#DejaVuSans-20" x="706.445312"/>
      <use xlink:href="#DejaVuSans-72" x="738.232422"/>
      <use xlink:href="#DejaVuSans-65" x="777.095703"/>
      <use xlink:href="#DejaVuSans-77" x="838.619141"/>
      <use xlink:href="#DejaVuSans-61" x="920.40625"/>
      <use xlink:href="#DejaVuSans-72" x="981.685547"/>
      <use xlink:href="#DejaVuSans-64" x="1021.048828"/>
      <use xlink:href="#DejaVuSans-73" x="1084.525391"/>
     </g>
    </g>
   </g>
   <g id="line2d_13">
    <path d="M 73.832727 294.794731 
L 74.209583 293.940017 
L 74.482478 294.191532 
L 74.573443 294.050058 
L 74.742379 293.4386 
L 74.898319 293.318216 
L 74.976289 293.498027 
L 75.366139 292.932984 
L 75.535075 293.011331 
L 76.028885 291.360218 
L 76.132846 291.498202 
L 76.314776 291.400446 
L 76.483711 291.023357 
L 76.600666 291.164484 
L 77.120467 289.197904 
L 77.276407 289.544818 
L 77.471332 289.082028 
L 77.640268 289.752939 
L 78.030118 289.734726 
L 78.186058 289.243352 
L 78.471949 290.295921 
L 78.705859 290.50888 
L 78.952765 290.843095 
L 79.056725 291.639513 
L 79.212665 291.250414 
L 79.914396 292.472843 
L 80.044346 292.479841 
L 80.252266 292.186774 
L 80.356227 292.339863 
L 80.434197 292.250811 
L 80.590137 292.256438 
L 80.811052 291.869022 
L 80.953997 292.47581 
L 81.096943 292.187631 
L 81.369838 290.885566 
L 81.577758 290.512326 
L 81.941619 289.36694 
L 82.071569 287.94288 
L 82.279489 287.02976 
L 82.890255 279.877244 
L 83.708941 275.127057 
L 83.890872 274.94908 
L 84.020822 274.484531 
L 84.163767 276.135522 
L 84.475647 276.242779 
L 84.514632 275.558518 
L 84.852503 275.270023 
L 84.904483 274.506716 
L 85.489259 272.587027 
L 85.814134 270.706582 
L 87.230591 258.146164 
L 88.036282 255.539156 
L 88.075267 251.012077 
L 89.049894 245.765605 
L 89.140859 241.08875 
L 89.63467 239.000026 
L 89.959545 239.337302 
L 90.531326 236.91833 
L 90.804221 234.96955 
L 91.466967 233.092881 
L 91.856818 229.454701 
L 92.532559 226.944092 
L 92.935404 226.256661 
L 93.54617 226.041132 
L 94.052976 225.665313 
L 95.144557 220.163413 
L 95.989234 218.246735 
L 96.067204 221.002024 
L 97.080815 223.945999 
L 97.14579 223.417614 
L 98.224377 223.324372 
L 98.770168 225.084449 
L 98.991083 229.100338 
L 99.796774 230.023141 
L 100.082665 229.976449 
L 100.862366 229.732846 
L 101.044296 225.444174 
L 101.616077 222.219009 
L 102.122882 222.74076 
L 102.707658 222.004539 
L 103.227459 221.619825 
L 103.77325 219.870116 
L 104.280055 216.007275 
L 104.838841 214.710415 
L 105.371637 214.467636 
L 105.852453 214.041898 
L 106.437229 213.902038 
L 107.022004 212.77815 
L 107.52881 212.156572 
L 108.048611 212.446779 
L 108.594402 212.596164 
L 109.114202 213.504962 
L 109.646998 213.466814 
L 110.205784 213.875354 
L 110.751575 213.981895 
L 110.985485 215.881522 
L 111.817166 216.065145 
L 112.025086 216.606145 
L 113.064688 217.851005 
L 113.896369 217.883416 
L 114.143274 216.887673 
L 115.013941 217.150094 
L 115.247851 217.520141 
L 116.079532 216.829641 
L 116.482378 213.756334 
L 117.145124 213.465605 
L 117.534974 213.797899 
L 118.30168 212.939911 
L 118.574576 211.725732 
L 119.159352 213.984469 
L 119.471232 214.042419 
L 120.211948 214.502339 
L 120.575809 213.653935 
L 121.30353 213.937379 
L 121.6414 215.388222 
L 122.213181 215.845622 
L 122.719987 218.578546 
L 123.148822 217.723258 
L 123.928523 217.666549 
L 124.396344 213.514073 
L 125.020105 212.764075 
L 125.617876 209.547902 
L 126.176662 207.733572 
L 126.683467 208.844086 
L 127.853019 207.512223 
L 128.515765 203.390047 
L 129.022571 203.443767 
L 129.360441 206.151051 
L 130.270092 207.032769 
L 130.568978 206.849215 
L 131.439644 208.714695 
L 131.673554 210.06777 
L 132.479245 212.673013 
L 133.077016 209.7243 
L 133.661792 206.151198 
L 134.506468 203.757514 
L 134.818349 199.702663 
L 135.83196 195.857332 
L 136.312776 189.973543 
L 137.131462 188.792256 
L 137.742228 186.772072 
L 138.534924 182.736405 
L 139.236655 176.664507 
L 139.938386 173.824231 
L 140.250266 173.285634 
L 141.614743 171.74739 
L 142.61536 169.722639 
L 142.810285 175.939528 
L 143.940852 174.943815 
L 144.200752 173.207658 
L 145.071418 176.81921 
L 145.643199 175.259779 
L 146.279955 179.197184 
L 147.085646 179.914236 
L 147.761387 178.58622 
L 148.593068 175.787213 
L 149.268809 174.229497 
L 150.139475 169.218603 
L 150.737246 167.009574 
L 151.451972 166.461766 
L 152.244668 163.740883 
L 152.374619 166.245612 
L 153.64813 166.29431 
L 153.882041 163.812474 
L 155.259513 162.28053 
L 155.623373 159.933778 
L 156.273124 161.027704 
L 156.948865 163.0234 
L 157.754556 161.784075 
L 158.586237 161.340961 
L 159.521879 154.93847 
L 161.055291 139.167672 
L 162.575708 138.008056 
L 163.407389 140.819571 
L 163.97917 141.3749 
L 164.849836 140.236401 
L 165.499587 140.77472 
L 166.500204 138.463974 
L 167.007009 141.812787 
L 167.5528 146.247771 
L 168.358491 150.722201 
L 169.125197 151.072282 
L 169.722968 160.438302 
L 170.515664 156.484428 
L 171.308361 154.442687 
L 172.179027 151.388662 
L 173.036698 151.315129 
L 173.803404 150.290464 
L 174.3362 152.311472 
L 175.284836 152.641463 
L 176.051542 153.77396 
L 176.259463 152.754727 
L 177.195104 145.112093 
L 177.83186 148.776538 
L 178.715521 148.618326 
L 178.767501 156.86638 
L 179.001411 168.361495 
L 180.313908 170.870834 
L 180.989649 164.076885 
L 182.198186 160.408982 
L 182.873927 152.645898 
L 183.783578 148.68623 
L 183.991499 152.492566 
L 184.90115 159.076594 
L 184.940135 164.728307 
L 186.083696 163.195955 
L 187.006343 148.544461 
L 187.877009 140.406488 
L 189.371436 144.623926 
L 190.411038 146.734282 
L 190.982818 148.448833 
L 191.593584 149.764299 
L 191.931455 147.680511 
L 192.815116 143.840113 
L 193.334917 140.022742 
L 194.504468 140.606038 
L 195.41412 139.665349 
L 196.583671 134.561245 
L 197.428348 129.602619 
L 197.857183 132.625861 
L 199.286635 133.125523 
L 199.819431 121.486613 
L 200.560147 119.254236 
L 201.339848 118.086701 
L 201.950614 111.719081 
L 202.470415 119.793409 
L 203.523011 128.567265 
L 204.393677 132.712803 
L 204.900483 138.495394 
L 205.706174 143.496715 
L 206.00506 146.467408 
L 207.226591 148.621365 
L 207.642432 146.486364 
L 208.915944 143.68726 
L 209.435745 144.439044 
L 210.540321 137.807404 
L 210.969157 140.114312 
L 211.930788 142.459691 
L 212.541554 140.511827 
L 212.99638 137.530748 
L 213.906031 137.028644 
L 214.828677 137.184848 
L 215.582388 136.808496 
L 216.634985 133.095961 
L 217.375701 134.079063 
L 218.311342 134.578047 
L 218.662208 132.097035 
L 219.636834 132.379855 
L 220.104655 136.968916 
L 221.053291 135.883135 
L 221.923957 132.598059 
L 222.794624 131.101195 
L 223.457369 131.937989 
L 224.289051 138.10964 
L 225.198702 135.968517 
L 225.861448 132.076323 
L 226.875059 128.095273 
L 227.511815 127.552015 
L 228.304511 123.841753 
L 228.915277 122.245367 
L 229.617008 127.188903 
L 230.591635 131.061225 
L 231.605246 136.160234 
L 231.891136 148.052126 
L 232.878758 158.939812 
L 233.723434 159.616343 
L 234.165265 159.805587 
L 235.204866 162.621198 
L 235.737662 160.009458 
L 236.647313 160.266797 
L 237.180109 162.198339 
L 238.479611 165.619959 
L 239.051392 153.869098 
L 239.896068 149.154498 
L 240.779729 155.432134 
L 240.909679 158.74392 
L 242.209181 159.706852 
L 242.677002 159.44896 
L 244.028484 152.218376 
L 244.301379 152.032745 
L 245.18504 148.930263 
L 245.509916 153.364438 
L 245.795806 160.612175 
L 246.614492 169.133048 
L 247.316223 173.84524 
L 247.978969 168.323736 
L 248.056939 173.913428 
L 248.901616 208.304506 
L 250.577973 207.965113 
L 250.811883 194.979737 
L 252.241335 188.636025 
L 252.709156 175.505691 
L 253.618807 170.210179 
L 254.112618 175.84022 
L 254.658409 171.382346 
L 255.54207 169.486613 
L 256.438726 151.788253 
L 257.231422 141.460874 
L 257.985133 140.400886 
L 258.82981 142.884964 
L 259.128695 150.747985 
L 260.233272 157.472418 
L 260.532157 157.674685 
L 261.272873 153.868969 
L 261.857649 160.433538 
L 262.117549 156.365118 
L 263.404056 161.619987 
L 263.806902 163.835595 
L 265.067418 162.747193 
L 265.444274 163.564228 
L 266.509866 155.437598 
L 267.003676 156.019261 
L 267.094641 160.301347 
L 268.108253 169.697272 
L 268.770999 167.352608 
L 270.096491 161.518487 
L 270.720252 157.030666 
L 271.746858 156.753655 
L 272.188689 155.183719 
L 273.241285 159.81913 
L 273.761086 158.242738 
L 274.930637 150.303585 
L 275.333483 146.099449 
L 276.191154 134.644894 
L 276.710955 135.194607 
L 277.919492 137.764228 
L 278.543253 139.550919 
L 279.517879 139.933201 
L 279.90773 146.769173 
L 280.622456 142.797273 
L 281.636067 138.260341 
L 282.129878 140.965549 
L 282.727649 142.139522 
L 283.74126 143.531819 
L 284.326036 140.178222 
L 285.079747 150.364309 
L 285.703508 150.496951 
L 286.587169 152.384477 
L 287.249915 147.491116 
L 287.964641 145.775526 
L 288.796322 148.287633 
L 289.381098 147.019147 
L 291.135425 135.987783 
L 292.395942 133.2433 
L 292.954728 125.041488 
L 294.02032 120.422842 
L 294.631085 115.91603 
L 295.150886 124.353754 
L 295.839622 122.782655 
L 296.918209 119.973776 
L 297.554965 115.71079 
L 298.581571 116.81855 
L 299.257312 115.111542 
L 300.387879 116.875852 
L 300.959659 117.195848 
L 301.71337 123.737541 
L 302.726982 123.290432 
L 303.480693 112.26975 
L 304.468314 113.02919 
L 305.066085 115.077203 
L 305.767816 118.13052 
L 306.651477 120.861815 
L 307.379199 122.330343 
L 308.457785 122.256463 
L 309.107536 121.3895 
L 310.290083 116.979439 
L 310.770898 116.283534 
L 311.550599 121.789114 
L 312.408271 123.451325 
L 313.226957 124.716596 
L 313.720768 125.164545 
L 314.799354 122.55968 
L 315.527075 121.419795 
L 317.060487 123.555498 
L 318.243034 126.000068 
L 319.373601 124.530555 
L 320.517162 124.373369 
L 320.530157 124.182604 
L 322.21951 122.838743 
L 322.29748 121.565191 
L 323.791907 124.965808 
L 324.090792 124.430493 
L 325.312324 126.574524 
L 325.832125 123.822482 
L 327.014671 130.282598 
L 327.638432 128.373404 
L 328.301178 130.760444 
L 328.885954 134.960797 
L 329.171844 147.974993 
L 329.47073 156.259517 
L 330.575306 160.22514 
L 331.082112 160.049708 
L 332.277654 158.141363 
L 332.524559 162.3605 
L 333.343245 166.791888 
L 333.980001 175.405888 
L 334.629752 179.219118 
L 334.876658 177.872652 
L 336.098189 170.410562 
L 336.66997 159.803 
L 337.202766 158.998307 
L 338.125412 164.813042 
L 339.009073 163.818296 
L 339.528874 166.182816 
L 339.645829 168.895371 
L 339.9837 172.491885 
L 340.828376 177.971933 
L 341.673052 173.547952 
L 342.166863 168.590866 
L 342.205848 182.497274 
L 342.829609 188.907865 
L 343.68728 188.116329 
L 344.622921 189.809874 
L 345.220692 188.975529 
L 346.286284 178.80482 
L 347.975636 170.818569 
L 348.326502 177.201676 
L 348.794322 175.854314 
L 349.366103 173.605169 
L 349.807934 178.722601 
L 350.301744 187.183301 
L 351.198401 186.074731 
L 351.835157 182.927822 
L 352.692828 180.295777 
L 353.381564 176.789527 
L 354.27822 179.869571 
L 354.992946 175.111738 
L 355.928587 163.491907 
L 356.799254 155.363129 
L 357.462 146.586941 
L 358.293681 139.835788 
L 358.748506 143.256749 
L 358.956427 157.77389 
L 359.671153 153.10089 
L 360.671769 150.564923 
L 360.918674 150.699006 
L 361.828326 163.043247 
L 362.517062 159.758917 
L 362.984882 164.589361 
L 363.491688 176.870499 
L 364.284384 178.127539 
L 365.233021 171.522683 
L 366.090692 156.603179 
L 366.402572 159.60941 
L 366.740443 168.300771 
L 368.221875 169.046162 
L 368.49477 155.285376 
L 369.144521 160.750206 
L 369.976202 162.239992 
L 370.664938 152.805374 
L 371.665555 149.161591 
L 372.211345 149.222693 
L 372.406271 157.677122 
L 373.458867 157.789833 
L 373.991663 150.825717 
L 374.732379 151.833968 
L 375.499085 157.13258 
L 376.044876 154.882592 
L 376.915542 156.89352 
L 377.734228 157.15135 
L 377.981134 161.106794 
L 379.319621 161.803434 
L 379.878406 154.691569 
L 381.021968 145.332506 
L 381.424814 143.744979 
L 382.542385 145.359305 
L 382.880256 145.079109 
L 383.971837 149.678865 
L 384.270723 146.598638 
L 385.492254 148.078196 
L 385.635199 144.216427 
L 386.479876 150.727433 
L 387.051657 156.999437 
L 387.766383 163.374099 
L 388.377148 171.087884 
L 389.026899 172.218255 
L 389.57269 175.981714 
L 390.300411 174.27744 
L 390.820212 178.668836 
L 392.158699 183.71415 
L 392.88642 184.037082 
L 394.237902 187.98148 
L 394.783692 185.531256 
L 396.005224 185.372974 
L 396.810915 187.571996 
L 397.499651 183.672226 
L 398.123412 182.299159 
L 398.123412 182.299159 
" clip-path="url(#pdc6e162979)" style="fill: none; stroke: #1f77b4; stroke-width: 1.5; stroke-linecap: square"/>
   </g>
   <g id="line2d_14">
    <path d="M 80.109321 292.648141 
L 86.60683 261.616048 
L 93.10434 211.343419 
L 99.601849 210.866708 
L 106.099358 210.465607 
L 112.596867 265.945927 
L 119.094376 288.458948 
L 125.591886 291.278043 
L 132.089395 203.197579 
L 138.586904 210.523289 
L 145.084413 213.666996 
L 151.581923 169.273669 
L 158.079432 157.845804 
L 164.576941 141.146969 
L 171.07445 160.979723 
L 177.571959 86.687974 
L 184.069469 109.536061 
L 190.566978 96.937021 
L 197.064487 81.472682 
L 203.561996 168.666267 
L 210.059505 147.45428 
L 216.557015 104.922243 
L 223.054524 115.864853 
L 229.552033 160.889997 
L 236.049542 113.816308 
L 242.547052 95.727398 
L 249.044561 97.729304 
L 255.54207 105.431897 
L 262.039579 149.195891 
L 268.537088 99.606814 
L 275.034598 118.489588 
L 281.532107 78.560043 
L 288.029616 118.620257 
L 294.527125 91.086927 
L 301.024634 106.039473 
L 307.522144 103.260877 
L 314.019653 116.996244 
L 320.517162 236.201535 
L 327.014671 128.302691 
L 333.512181 117.83047 
L 340.00969 275.709061 
L 346.507199 214.029761 
L 353.004708 133.739557 
L 359.502217 53.568 
L 365.999727 184.593647 
L 372.497236 232.906273 
L 378.994745 163.670008 
L 385.492254 291.427255 
L 391.989764 200.927823 
L 398.487273 224.149752 
" clip-path="url(#pdc6e162979)" style="fill: none; stroke: #ff7f0e; stroke-width: 1.5; stroke-linecap: square"/>
   </g>
   <g id="line2d_15">
    <path d="M 73.871712 295.488 
L 74.118618 293.494416 
L 74.235573 292.898692 
L 74.365523 293.053132 
L 74.807354 292.362067 
L 75.249184 291.423814 
L 75.379134 291.432632 
L 75.49609 290.757438 
L 75.65203 290.674993 
L 75.924925 290.851564 
L 76.054875 290.580223 
L 76.587671 291.674602 
L 76.730616 291.572561 
L 76.964527 291.937854 
L 77.354377 291.471171 
L 77.510317 291.916329 
L 77.679253 291.311715 
L 77.978138 291.325598 
L 78.108088 291.540054 
L 78.251034 292.06897 
L 78.497939 291.687731 
L 78.783829 292.22592 
L 78.952765 291.972682 
L 79.238655 292.282868 
L 79.53754 291.541382 
L 79.836426 291.546987 
L 80.395212 290.322488 
L 80.486177 290.747384 
L 80.616127 290.578538 
L 80.876027 291.247615 
L 81.018972 291.379203 
L 81.161918 291.168516 
L 81.343848 289.755554 
L 81.525778 290.236114 
L 81.694713 289.669596 
L 81.889639 289.655879 
L 82.72132 281.805514 
L 83.124165 277.53726 
L 83.306096 273.703389 
L 84.345697 264.443284 
L 84.930473 264.984638 
L 85.242353 264.182593 
L 85.476264 264.738768 
L 85.814134 265.19333 
L 86.307945 265.302482 
L 86.866731 261.718538 
L 87.074651 256.418355 
L 87.386531 254.862461 
L 87.438512 253.948706 
L 88.270193 251.849531 
L 88.478113 246.537437 
L 89.387764 242.487127 
L 89.621675 237.331306 
L 90.479346 233.185912 
L 90.739246 227.463964 
L 91.492957 226.508512 
L 91.869813 225.138406 
L 92.636519 221.080052 
L 92.870429 221.770764 
L 92.987384 219.130208 
L 94.091961 218.628524 
L 95.079582 219.346632 
L 95.209533 219.147762 
L 96.210149 219.326831 
L 96.327104 219.077137 
L 97.444676 218.880282 
L 98.562247 211.682208 
L 99.302963 213.043449 
L 99.666824 213.069614 
L 100.420535 212.389458 
L 100.784395 212.430305 
L 101.473131 214.656741 
L 101.862982 215.346352 
L 102.395778 230.55814 
L 103.253449 231.317093 
L 103.604314 229.548396 
L 104.358026 230.079313 
L 105.449607 232.256221 
L 105.839458 230.578293 
L 106.047378 230.443703 
L 106.944034 228.339316 
L 107.086979 221.741502 
L 108.217546 216.485563 
L 109.114202 217.235889 
L 109.348113 216.398669 
L 109.452073 220.380597 
L 110.218779 224.925253 
L 110.387714 224.937933 
L 111.28437 224.162159 
L 111.518281 223.776718 
L 112.414937 222.875322 
L 112.544887 222.145359 
L 113.532509 223.613304 
L 114.117284 226.710512 
L 114.585105 222.894909 
L 115.104906 219.796636 
L 115.676687 218.400302 
L 116.196487 220.377102 
L 116.664308 223.253287 
L 116.781263 225.087662 
L 117.275074 228.812856 
L 117.405024 231.129198 
L 118.37965 232.156023 
L 118.457621 229.282628 
L 119.484227 228.687293 
L 119.562197 227.436205 
L 120.601799 227.802335 
L 120.679769 225.976093 
L 121.706375 223.164462 
L 121.79734 221.327523 
L 122.823947 216.624284 
L 122.836942 214.289227 
L 123.954513 212.82445 
L 124.98112 212.485182 
L 125.124065 212.655973 
L 126.475547 210.881516 
L 126.657477 206.486067 
L 127.489158 203.691172 
L 127.788044 203.985317 
L 128.63272 203.25497 
L 128.97059 201.238743 
L 130.192122 200.973166 
L 131.114769 196.176624 
L 131.634569 200.798219 
L 132.31031 204.839175 
L 132.804121 205.762513 
L 133.700777 202.865197 
L 133.973673 200.965479 
L 134.935304 204.356232 
L 135.818965 204.524896 
L 136.052876 208.481456 
L 137.066487 207.345594 
L 137.274407 202.500629 
L 138.236039 201.919982 
L 138.417969 203.638549 
L 139.366605 206.281923 
L 139.56153 208.210532 
L 140.705092 204.544775 
L 140.926007 200.841833 
L 141.900634 201.298575 
L 142.186524 199.417642 
L 143.148156 198.996565 
L 143.447041 197.940645 
L 144.434662 197.264543 
L 144.837508 193.327545 
L 145.812134 189.889889 
L 146.279955 186.792386 
L 147.332552 184.219096 
L 148.476113 177.231754 
L 148.943934 177.446137 
L 149.52871 180.531556 
L 149.97054 183.487202 
L 150.568311 185.165165 
L 151.153087 185.60051 
L 151.828828 187.405434 
L 152.361624 189.73384 
L 153.115335 191.975324 
L 153.674121 194.07503 
L 154.401842 196.157648 
L 154.739712 196.228702 
L 155.480428 195.553177 
L 156.598 197.328116 
L 156.766935 198.42589 
L 157.884506 197.031975 
L 158.196387 193.238284 
L 159.093043 193.097439 
L 159.443909 194.27218 
L 160.35356 194.113132 
L 160.743411 191.713137 
L 161.367171 190.790665 
L 162.068902 187.686406 
L 162.523728 185.01859 
L 163.225459 188.303066 
L 163.69328 189.657346 
L 164.589936 190.391414 
L 164.966792 189.811959 
L 166.058373 186.828376 
L 166.266293 183.764238 
L 167.34488 184.729043 
L 167.747725 182.247432 
L 168.657377 183.717567 
L 168.995247 182.432084 
L 169.489058 179.021552 
L 170.138809 179.410351 
L 170.619625 183.148333 
L 171.542271 181.776948 
L 171.841156 183.113517 
L 172.776798 186.668879 
L 173.088678 186.212665 
L 173.517514 191.620732 
L 174.375185 190.978324 
L 174.998946 188.846394 
L 175.531742 191.4993 
L 175.960577 192.504574 
L 177.000179 186.658043 
L 177.338049 187.628698 
L 178.03978 188.850348 
L 178.728516 189.323366 
L 179.469232 189.979621 
L 180.118983 180.903612 
L 180.534824 182.459558 
L 181.028634 182.255849 
L 181.808335 179.532023 
L 182.549051 173.408628 
L 183.432713 172.878266 
L 184.108454 171.605201 
L 185.070085 167.455648 
L 185.602881 161.551097 
L 186.512532 158.448284 
L 187.071318 158.495086 
L 188.019954 152.826706 
L 188.65671 150.718496 
L 189.514381 146.435661 
L 190.229107 145.386207 
L 190.943833 143.914349 
L 191.710539 144.497423 
L 192.25633 146.808513 
L 192.646181 153.977533 
L 193.802737 152.522124 
L 193.984668 151.015877 
L 194.959294 154.620662 
L 195.076249 158.243152 
L 196.453721 160.387589 
L 196.687632 160.390958 
L 198.143074 159.500308 
L 198.415969 157.953508 
L 199.35161 164.125614 
L 199.767451 155.008783 
L 200.326237 159.981564 
L 201.456803 163.702041 
L 201.859649 161.214665 
L 203.081181 158.098917 
L 203.263111 156.59077 
L 204.094792 161.961515 
L 204.653578 164.464786 
L 205.784144 163.556797 
L 206.23897 159.726785 
L 207.317557 160.692565 
L 207.733397 156.021319 
L 208.954929 151.930358 
L 209.39676 147.436258 
L 210.436361 144.693587 
L 210.943167 143.993585 
L 211.839823 138.307111 
L 212.645514 134.069374 
L 213.529175 133.025514 
L 214.178926 133.432202 
L 214.893652 134.286055 
L 215.530408 137.022317 
L 215.959244 141.905938 
L 216.453055 150.545656 
L 217.219761 154.851705 
L 218.090427 154.101819 
L 218.896118 150.23856 
L 219.272974 155.030248 
L 220.260595 160.618768 
L 221.040296 156.67015 
L 221.975937 154.695389 
L 222.664673 147.930114 
L 223.457369 146.874575 
L 224.263061 139.607714 
L 225.029767 136.391043 
L 225.744493 137.776988 
L 226.576174 140.844827 
L 228.161566 133.208141 
L 228.772332 135.136347 
L 229.707973 135.577452 
L 230.357724 136.965555 
L 231.293366 136.382086 
L 231.930122 138.075208 
L 232.709823 141.121153 
L 233.502519 141.323202 
L 234.30821 139.539373 
L 235.022936 139.822935 
L 235.607712 145.437788 
L 236.296448 149.731861 
L 237.024169 149.850406 
L 238.388646 156.292788 
L 239.246317 154.27135 
L 240.065003 150.747041 
L 240.740744 153.614278 
L 241.74136 152.359654 
L 242.157201 154.040194 
L 243.482693 147.297706 
L 243.859548 139.225082 
L 244.63925 143.870243 
L 245.548901 146.780152 
L 246.263627 140.585528 
L 247.238253 140.453261 
L 247.693079 143.84379 
L 248.927606 140.222241 
L 249.356441 141.80161 
L 249.629337 138.943293 
L 250.863863 143.706703 
L 251.032799 146.058073 
L 252.111385 150.230417 
L 252.540221 145.449446 
L 253.813733 148.760996 
L 254.125613 149.225416 
L 255.009274 149.568265 
L 255.49009 152.458499 
L 256.074866 157.167896 
L 257.101472 157.523241 
L 257.790208 153.837136 
L 258.80382 153.571132 
L 259.34961 143.542905 
L 260.428197 140.871956 
L 261.025968 138.653058 
L 262.104554 138.277886 
L 262.312475 135.463331 
L 263.780912 133.471 
L 264.001827 127.205888 
L 265.314324 128.444304 
L 265.626204 128.058924 
L 266.769766 129.02056 
L 267.250582 133.115471 
L 267.770382 140.348484 
L 268.835974 144.859327 
L 269.225824 145.595809 
L 270.408371 145.263223 
L 270.629286 143.565546 
L 271.928788 147.5254 
L 272.344629 146.009955 
L 273.15032 147.378389 
L 274.033981 144.084485 
L 274.917642 139.108284 
L 275.580388 137.824433 
L 276.243134 134.394746 
L 277.711571 132.113889 
L 278.673203 133.706512 
L 279.322954 131.390845 
L 280.37555 133.359249 
L 281.064286 130.362515 
L 282.766634 133.079941 
L 283.182474 134.71107 
L 283.832225 131.898104 
L 284.767866 139.274202 
L 285.560563 136.893529 
L 286.171328 136.445327 
L 287.18494 137.037388 
L 287.899666 133.415097 
L 288.874292 136.308862 
L 289.640998 133.85041 
L 290.537655 134.983713 
L 291.07045 129.773978 
L 291.824161 133.111945 
L 292.785793 126.155507 
L 293.227623 126.768769 
L 294.56611 122.369949 
L 294.683066 120.076953 
L 296.489373 118.050693 
L 296.879224 108.343206 
L 297.56796 117.743497 
L 298.620556 116.767273 
L 299.413252 115.493203 
L 300.374884 112.134561 
L 300.530824 119.398154 
L 302.194186 119.801988 
L 302.402106 118.7315 
L 303.558663 118.037629 
L 304.195419 122.789421 
L 304.68923 130.270224 
L 305.780811 126.084 
L 306.417567 127.841539 
L 307.457169 127.905596 
L 307.522144 134.276662 
L 308.899616 130.981886 
L 309.289466 133.682376 
L 310.303078 136.242886 
L 310.913844 138.869189 
L 311.745525 141.047074 
L 312.25233 144.557059 
L 315.046259 126.834457 
L 316.488706 122.505211 
L 317.177442 114.489718 
L 317.853183 108.488762 
L 319.13969 109.875274 
L 320.088327 104.593652 
L 320.855033 97.039876 
L 321.816664 93.968195 
L 322.53139 100.177518 
L 323.103171 110.225579 
L 324.454653 112.15024 
L 324.909478 107.813035 
L 325.702174 112.109034 
L 326.546851 123.560393 
L 327.027666 120.710719 
L 328.301178 125.398583 
L 328.626054 129.822778 
L 330.016521 129.678072 
L 330.367386 125.974583 
L 332.108719 118.544197 
L 333.681116 116.479771 
L 333.889036 115.371181 
L 335.266508 106.084769 
L 335.422448 108.637332 
L 336.66997 106.670979 
L 337.098806 108.242392 
L 338.294347 108.62856 
L 338.931103 120.371195 
L 340.152635 123.570082 
L 340.607461 126.674942 
L 341.660057 135.148487 
L 342.660674 134.237292 
L 343.934185 139.249107 
L 344.298046 136.382154 
L 345.519578 139.58146 
L 345.701508 134.563899 
L 347.23492 130.915296 
L 347.44284 127.826093 
L 348.911277 127.858313 
L 349.197168 124.58443 
L 349.638998 145.150532 
L 350.327734 152.162518 
L 351.276371 159.109422 
L 351.666221 163.074462 
L 353.381564 161.704025 
L 354.46015 161.46421 
L 354.927971 164.940189 
L 356.006557 166.630696 
L 356.721283 155.896749 
L 357.319054 141.637737 
L 357.69591 139.591695 
L 358.254696 140.422487 
L 358.566576 143.391711 
L 359.099372 156.51768 
L 359.385262 168.140901 
L 360.567809 173.183789 
L 360.970655 171.457451 
L 361.360505 179.476801 
L 362.621022 182.220028 
L 363.114833 180.425077 
L 363.647628 177.968905 
L 364.89515 167.87761 
L 365.609876 153.291852 
L 366.597497 143.947729 
L 367.039328 133.372877 
L 368.39081 129.552285 
L 368.780661 124.275014 
L 370.496003 150.239936 
L 371.75652 151.944337 
L 372.237335 159.715889 
L 373.172977 159.494269 
L 373.549832 164.152134 
L 374.316538 170.196357 
L 375.213195 178.690997 
L 375.421115 172.575932 
L 376.694627 159.615094 
L 377.513313 154.156928 
L 378.435959 140.598614 
L 379.046725 142.925207 
L 380.125312 139.400859 
L 380.749073 136.642858 
L 381.346843 135.729475 
L 382.074564 133.986981 
L 383.867877 122.853405 
L 385.518244 117.848526 
L 386.570841 118.584903 
L 387.038661 117.834337 
L 388.494104 116.47121 
L 388.948929 113.569371 
L 390.183456 104.702148 
L 390.781227 97.497139 
L 391.872808 97.412318 
L 392.483574 98.917752 
L 393.536171 101.918244 
L 394.237902 102.02389 
L 395.277503 101.103238 
L 395.901264 101.126487 
L 397.018836 103.73245 
L 397.551631 107.02008 
L 397.551631 107.02008 
" clip-path="url(#pdc6e162979)" style="fill: none; stroke: #2ca02c; stroke-width: 1.5; stroke-linecap: square"/>
   </g>
   <g id="patch_3">
    <path d="M 57.6 307.584 
L 57.6 41.472 
" style="fill: none; stroke: #000000; stroke-width: 0.8; stroke-linejoin: miter; stroke-linecap: square"/>
   </g>
   <g id="patch_4">
    <path d="M 414.72 307.584 
L 414.72 41.472 
" style="fill: none; stroke: #000000; stroke-width: 0.8; stroke-linejoin: miter; stroke-linecap: square"/>
   </g>
   <g id="patch_5">
    <path d="M 57.6 307.584 
L 414.72 307.584 
" style="fill: none; stroke: #000000; stroke-width: 0.8; stroke-linejoin: miter; stroke-linecap: square"/>
   </g>
   <g id="patch_6">
    <path d="M 57.6 41.472 
L 414.72 41.472 
" style="fill: none; stroke: #000000; stroke-width: 0.8; stroke-linejoin: miter; stroke-linecap: square"/>
   </g>
   <g id="text_15">
    <!-- learning curve -->
    <g transform="translate(192.96375 35.472) scale(0.12 -0.12)">
     <defs>
      <path id="DejaVuSans-6c" d="M 603 4863 
L 1178 4863 
L 1178 0 
L 603 0 
L 603 4863 
z
" transform="scale(0.015625)"/>
      <path id="DejaVuSans-67" d="M 2906 1791 
Q 2906 2416 2648 2759 
Q 2391 3103 1925 3103 
Q 1463 3103 1205 2759 
Q 947 2416 947 1791 
Q 947 1169 1205 825 
Q 1463 481 1925 481 
Q 2391 481 2648 825 
Q 2906 1169 2906 1791 
z
M 3481 434 
Q 3481 -459 3084 -895 
Q 2688 -1331 1869 -1331 
Q 1566 -1331 1297 -1286 
Q 1028 -1241 775 -1147 
L 775 -588 
Q 1028 -725 1275 -790 
Q 1522 -856 1778 -856 
Q 2344 -856 2625 -561 
Q 2906 -266 2906 331 
L 2906 616 
Q 2728 306 2450 153 
Q 2172 0 1784 0 
Q 1141 0 747 490 
Q 353 981 353 1791 
Q 353 2603 747 3093 
Q 1141 3584 1784 3584 
Q 2172 3584 2450 3431 
Q 2728 3278 2906 2969 
L 2906 3500 
L 3481 3500 
L 3481 434 
z
" transform="scale(0.015625)"/>
      <path id="DejaVuSans-63" d="M 3122 3366 
L 3122 2828 
Q 2878 2963 2633 3030 
Q 2388 3097 2138 3097 
Q 1578 3097 1268 2742 
Q 959 2388 959 1747 
Q 959 1106 1268 751 
Q 1578 397 2138 397 
Q 2388 397 2633 464 
Q 2878 531 3122 666 
L 3122 134 
Q 2881 22 2623 -34 
Q 2366 -91 2075 -91 
Q 1284 -91 818 406 
Q 353 903 353 1747 
Q 353 2603 823 3093 
Q 1294 3584 2113 3584 
Q 2378 3584 2631 3529 
Q 2884 3475 3122 3366 
z
" transform="scale(0.015625)"/>
      <path id="DejaVuSans-75" d="M 544 1381 
L 544 3500 
L 1119 3500 
L 1119 1403 
Q 1119 906 1312 657 
Q 1506 409 1894 409 
Q 2359 409 2629 706 
Q 2900 1003 2900 1516 
L 2900 3500 
L 3475 3500 
L 3475 0 
L 2900 0 
L 2900 538 
Q 2691 219 2414 64 
Q 2138 -91 1772 -91 
Q 1169 -91 856 284 
Q 544 659 544 1381 
z
M 1991 3584 
L 1991 3584 
z
" transform="scale(0.015625)"/>
      <path id="DejaVuSans-76" d="M 191 3500 
L 800 3500 
L 1894 563 
L 2988 3500 
L 3597 3500 
L 2284 0 
L 1503 0 
L 191 3500 
z
" transform="scale(0.015625)"/>
     </defs>
     <use xlink:href="#DejaVuSans-6c"/>
     <use xlink:href="#DejaVuSans-65" x="27.783203"/>
     <use xlink:href="#DejaVuSans-61" x="89.306641"/>
     <use xlink:href="#DejaVuSans-72" x="150.585938"/>
     <use xlink:href="#DejaVuSans-6e" x="189.949219"/>
     <use xlink:href="#DejaVuSans-69" x="253.328125"/>
     <use xlink:href="#DejaVuSans-6e" x="281.111328"/>
     <use xlink:href="#DejaVuSans-67" x="344.490234"/>
     <use xlink:href="#DejaVuSans-20" x="407.966797"/>
     <use xlink:href="#DejaVuSans-63" x="439.753906"/>
     <use xlink:href="#DejaVuSans-75" x="494.734375"/>
     <use xlink:href="#DejaVuSans-72" x="558.113281"/>
     <use xlink:href="#DejaVuSans-76" x="599.226562"/>
     <use xlink:href="#DejaVuSans-65" x="658.40625"/>
    </g>
   </g>
   <g id="legend_1">
    <g id="patch_7">
     <path d="M 64.6 93.506375 
L 166.614062 93.506375 
Q 168.614062 93.506375 168.614062 91.506375 
L 168.614062 48.472 
Q 168.614062 46.472 166.614062 46.472 
L 64.6 46.472 
Q 62.6 46.472 62.6 48.472 
L 62.6 91.506375 
Q 62.6 93.506375 64.6 93.506375 
z
" style="fill: #ffffff; opacity: 0.8; stroke: #cccccc; stroke-linejoin: miter"/>
    </g>
    <g id="line2d_16">
     <path d="M 66.6 54.570438 
L 76.6 54.570438 
L 86.6 54.570438 
" style="fill: none; stroke: #1f77b4; stroke-width: 1.5; stroke-linecap: square"/>
    </g>
    <g id="text_16">
     <!-- source-source -->
     <g transform="translate(94.6 58.070438) scale(0.1 -0.1)">
      <defs>
       <path id="DejaVuSans-2d" d="M 313 2009 
L 1997 2009 
L 1997 1497 
L 313 1497 
L 313 2009 
z
" transform="scale(0.015625)"/>
      </defs>
      <use xlink:href="#DejaVuSans-73"/>
      <use xlink:href="#DejaVuSans-6f" x="52.099609"/>
      <use xlink:href="#DejaVuSans-75" x="113.28125"/>
      <use xlink:href="#DejaVuSans-72" x="176.660156"/>
      <use xlink:href="#DejaVuSans-63" x="215.523438"/>
      <use xlink:href="#DejaVuSans-65" x="270.503906"/>
      <use xlink:href="#DejaVuSans-2d" x="332.027344"/>
      <use xlink:href="#DejaVuSans-73" x="368.111328"/>
      <use xlink:href="#DejaVuSans-6f" x="420.210938"/>
      <use xlink:href="#DejaVuSans-75" x="481.392578"/>
      <use xlink:href="#DejaVuSans-72" x="544.771484"/>
      <use xlink:href="#DejaVuSans-63" x="583.634766"/>
      <use xlink:href="#DejaVuSans-65" x="638.615234"/>
     </g>
    </g>
    <g id="line2d_17">
     <path d="M 66.6 69.248563 
L 76.6 69.248563 
L 86.6 69.248563 
" style="fill: none; stroke: #ff7f0e; stroke-width: 1.5; stroke-linecap: square"/>
    </g>
    <g id="text_17">
     <!-- source-target -->
     <g transform="translate(94.6 72.748563) scale(0.1 -0.1)">
      <use xlink:href="#DejaVuSans-73"/>
      <use xlink:href="#DejaVuSans-6f" x="52.099609"/>
      <use xlink:href="#DejaVuSans-75" x="113.28125"/>
      <use xlink:href="#DejaVuSans-72" x="176.660156"/>
      <use xlink:href="#DejaVuSans-63" x="215.523438"/>
      <use xlink:href="#DejaVuSans-65" x="270.503906"/>
      <use xlink:href="#DejaVuSans-2d" x="332.027344"/>
      <use xlink:href="#DejaVuSans-74" x="368.111328"/>
      <use xlink:href="#DejaVuSans-61" x="407.320312"/>
      <use xlink:href="#DejaVuSans-72" x="468.599609"/>
      <use xlink:href="#DejaVuSans-67" x="507.962891"/>
      <use xlink:href="#DejaVuSans-65" x="571.439453"/>
      <use xlink:href="#DejaVuSans-74" x="632.962891"/>
     </g>
    </g>
    <g id="line2d_18">
     <path d="M 66.6 83.926688 
L 76.6 83.926688 
L 86.6 83.926688 
" style="fill: none; stroke: #2ca02c; stroke-width: 1.5; stroke-linecap: square"/>
    </g>
    <g id="text_18">
     <!-- target-target -->
     <g transform="translate(94.6 87.426688) scale(0.1 -0.1)">
      <use xlink:href="#DejaVuSans-74"/>
      <use xlink:href="#DejaVuSans-61" x="39.208984"/>
      <use xlink:href="#DejaVuSans-72" x="100.488281"/>
      <use xlink:href="#DejaVuSans-67" x="139.851562"/>
      <use xlink:href="#DejaVuSans-65" x="203.328125"/>
      <use xlink:href="#DejaVuSans-74" x="264.851562"/>
      <use xlink:href="#DejaVuSans-2d" x="304.060547"/>
      <use xlink:href="#DejaVuSans-74" x="340.144531"/>
      <use xlink:href="#DejaVuSans-61" x="379.353516"/>
      <use xlink:href="#DejaVuSans-72" x="440.632812"/>
      <use xlink:href="#DejaVuSans-67" x="479.996094"/>
      <use xlink:href="#DejaVuSans-65" x="543.472656"/>
      <use xlink:href="#DejaVuSans-74" x="604.996094"/>
     </g>
    </g>
   </g>
  </g>
 </g>
 <defs>
  <clipPath id="pdc6e162979">
   <rect x="57.6" y="41.472" width="357.12" height="266.112"/>
  </clipPath>
 </defs>
</svg>
