<?xml version="1.0" encoding="utf-8" standalone="no"?>
<!DOCTYPE svg PUBLIC "-//W3C//DTD SVG 1.1//EN"
  "http://www.w3.org/Graphics/SVG/1.1/DTD/svg11.dtd">
<svg xmlns:xlink="http://www.w3.org/1999/xlink" width="460.8pt" height="345.6pt" viewBox="0 0 460.8 345.6" xmlns="http://www.w3.org/2000/svg" version="1.1">
 <metadata>
  <rdf:RDF xmlns:dc="http://purl.org/dc/elements/1.1/" xmlns:cc="http://creativecommons.org/ns#" xmlns:rdf="http://www.w3.org/1999/02/22-rdf-syntax-ns#">
   <cc:Work>
    <dc:type rdf:resource="http://purl.org/dc/dcmitype/StillImage"/>
    <dc:date>2023-08-19T14:13:43.247393</dc:date>
    <dc:format>image/svg+xml</dc:format>
    <dc:creator>
     <cc:Agent>
      <dc:title>Matplotlib v3.7.1, https://matplotlib.org/</dc:title>
     </cc:Agent>
    </dc:creator>
   </cc:Work>
  </rdf:RDF>
 </metadata>
 <defs>
  <style type="text/css">*{stroke-linejoin: round; stroke-linecap: butt}</style>
 </defs>
 <g id="figure_1">
  <g id="patch_1">
   <path d="M 0 345.6 
L 460.8 345.6 
L 460.8 0 
L 0 0 
z
" style="fill: #ffffff"/>
  </g>
  <g id="axes_1">
   <g id="patch_2">
    <path d="M 57.6 307.584 
L 414.72 307.584 
L 414.72 41.472 
L 57.6 41.472 
z
" style="fill: #ffffff"/>
   </g>
   <g id="matplotlib.axis_1">
    <g id="xtick_1">
     <g id="line2d_1">
      <defs>
       <path id="m34c806a2db" d="M 0 0 
L 0 3.5 
" style="stroke: #000000; stroke-width: 0.8"/>
      </defs>
      <g>
       <use xlink:href="#m34c806a2db" x="73.228156" y="307.584" style="stroke: #000000; stroke-width: 0.8"/>
      </g>
     </g>
     <g id="text_1">
      <!-- 0 -->
      <g transform="translate(70.046906 322.182437) scale(0.1 -0.1)">
       <defs>
        <path id="DejaVuSans-30" d="M 2034 4250 
Q 1547 4250 1301 3770 
Q 1056 3291 1056 2328 
Q 1056 1369 1301 889 
Q 1547 409 2034 409 
Q 2525 409 2770 889 
Q 3016 1369 3016 2328 
Q 3016 3291 2770 3770 
Q 2525 4250 2034 4250 
z
M 2034 4750 
Q 2819 4750 3233 4129 
Q 3647 3509 3647 2328 
Q 3647 1150 3233 529 
Q 2819 -91 2034 -91 
Q 1250 -91 836 529 
Q 422 1150 422 2328 
Q 422 3509 836 4129 
Q 1250 4750 2034 4750 
z
" transform="scale(0.015625)"/>
       </defs>
       <use xlink:href="#DejaVuSans-30"/>
      </g>
     </g>
    </g>
    <g id="xtick_2">
     <g id="line2d_2">
      <g>
       <use xlink:href="#m34c806a2db" x="133.685241" y="307.584" style="stroke: #000000; stroke-width: 0.8"/>
      </g>
     </g>
     <g id="text_2">
      <!-- 1000 -->
      <g transform="translate(120.960241 322.182437) scale(0.1 -0.1)">
       <defs>
        <path id="DejaVuSans-31" d="M 794 531 
L 1825 531 
L 1825 4091 
L 703 3866 
L 703 4441 
L 1819 4666 
L 2450 4666 
L 2450 531 
L 3481 531 
L 3481 0 
L 794 0 
L 794 531 
z
" transform="scale(0.015625)"/>
       </defs>
       <use xlink:href="#DejaVuSans-31"/>
       <use xlink:href="#DejaVuSans-30" x="63.623047"/>
       <use xlink:href="#DejaVuSans-30" x="127.246094"/>
       <use xlink:href="#DejaVuSans-30" x="190.869141"/>
      </g>
     </g>
    </g>
    <g id="xtick_3">
     <g id="line2d_3">
      <g>
       <use xlink:href="#m34c806a2db" x="194.142326" y="307.584" style="stroke: #000000; stroke-width: 0.8"/>
      </g>
     </g>
     <g id="text_3">
      <!-- 2000 -->
      <g transform="translate(181.417326 322.182437) scale(0.1 -0.1)">
       <defs>
        <path id="DejaVuSans-32" d="M 1228 531 
L 3431 531 
L 3431 0 
L 469 0 
L 469 531 
Q 828 903 1448 1529 
Q 2069 2156 2228 2338 
Q 2531 2678 2651 2914 
Q 2772 3150 2772 3378 
Q 2772 3750 2511 3984 
Q 2250 4219 1831 4219 
Q 1534 4219 1204 4116 
Q 875 4013 500 3803 
L 500 4441 
Q 881 4594 1212 4672 
Q 1544 4750 1819 4750 
Q 2544 4750 2975 4387 
Q 3406 4025 3406 3419 
Q 3406 3131 3298 2873 
Q 3191 2616 2906 2266 
Q 2828 2175 2409 1742 
Q 1991 1309 1228 531 
z
" transform="scale(0.015625)"/>
       </defs>
       <use xlink:href="#DejaVuSans-32"/>
       <use xlink:href="#DejaVuSans-30" x="63.623047"/>
       <use xlink:href="#DejaVuSans-30" x="127.246094"/>
       <use xlink:href="#DejaVuSans-30" x="190.869141"/>
      </g>
     </g>
    </g>
    <g id="xtick_4">
     <g id="line2d_4">
      <g>
       <use xlink:href="#m34c806a2db" x="254.599411" y="307.584" style="stroke: #000000; stroke-width: 0.8"/>
      </g>
     </g>
     <g id="text_4">
      <!-- 3000 -->
      <g transform="translate(241.874411 322.182437) scale(0.1 -0.1)">
       <defs>
        <path id="DejaVuSans-33" d="M 2597 2516 
Q 3050 2419 3304 2112 
Q 3559 1806 3559 1356 
Q 3559 666 3084 287 
Q 2609 -91 1734 -91 
Q 1441 -91 1130 -33 
Q 819 25 488 141 
L 488 750 
Q 750 597 1062 519 
Q 1375 441 1716 441 
Q 2309 441 2620 675 
Q 2931 909 2931 1356 
Q 2931 1769 2642 2001 
Q 2353 2234 1838 2234 
L 1294 2234 
L 1294 2753 
L 1863 2753 
Q 2328 2753 2575 2939 
Q 2822 3125 2822 3475 
Q 2822 3834 2567 4026 
Q 2313 4219 1838 4219 
Q 1578 4219 1281 4162 
Q 984 4106 628 3988 
L 628 4550 
Q 988 4650 1302 4700 
Q 1616 4750 1894 4750 
Q 2613 4750 3031 4423 
Q 3450 4097 3450 3541 
Q 3450 3153 3228 2886 
Q 3006 2619 2597 2516 
z
" transform="scale(0.015625)"/>
       </defs>
       <use xlink:href="#DejaVuSans-33"/>
       <use xlink:href="#DejaVuSans-30" x="63.623047"/>
       <use xlink:href="#DejaVuSans-30" x="127.246094"/>
       <use xlink:href="#DejaVuSans-30" x="190.869141"/>
      </g>
     </g>
    </g>
    <g id="xtick_5">
     <g id="line2d_5">
      <g>
       <use xlink:href="#m34c806a2db" x="315.056496" y="307.584" style="stroke: #000000; stroke-width: 0.8"/>
      </g>
     </g>
     <g id="text_5">
      <!-- 4000 -->
      <g transform="translate(302.331496 322.182437) scale(0.1 -0.1)">
       <defs>
        <path id="DejaVuSans-34" d="M 2419 4116 
L 825 1625 
L 2419 1625 
L 2419 4116 
z
M 2253 4666 
L 3047 4666 
L 3047 1625 
L 3713 1625 
L 3713 1100 
L 3047 1100 
L 3047 0 
L 2419 0 
L 2419 1100 
L 313 1100 
L 313 1709 
L 2253 4666 
z
" transform="scale(0.015625)"/>
       </defs>
       <use xlink:href="#DejaVuSans-34"/>
       <use xlink:href="#DejaVuSans-30" x="63.623047"/>
       <use xlink:href="#DejaVuSans-30" x="127.246094"/>
       <use xlink:href="#DejaVuSans-30" x="190.869141"/>
      </g>
     </g>
    </g>
    <g id="xtick_6">
     <g id="line2d_6">
      <g>
       <use xlink:href="#m34c806a2db" x="375.51358" y="307.584" style="stroke: #000000; stroke-width: 0.8"/>
      </g>
     </g>
     <g id="text_6">
      <!-- 5000 -->
      <g transform="translate(362.78858 322.182437) scale(0.1 -0.1)">
       <defs>
        <path id="DejaVuSans-35" d="M 691 4666 
L 3169 4666 
L 3169 4134 
L 1269 4134 
L 1269 2991 
Q 1406 3038 1543 3061 
Q 1681 3084 1819 3084 
Q 2600 3084 3056 2656 
Q 3513 2228 3513 1497 
Q 3513 744 3044 326 
Q 2575 -91 1722 -91 
Q 1428 -91 1123 -41 
Q 819 9 494 109 
L 494 744 
Q 775 591 1075 516 
Q 1375 441 1709 441 
Q 2250 441 2565 725 
Q 2881 1009 2881 1497 
Q 2881 1984 2565 2268 
Q 2250 2553 1709 2553 
Q 1456 2553 1204 2497 
Q 953 2441 691 2322 
L 691 4666 
z
" transform="scale(0.015625)"/>
       </defs>
       <use xlink:href="#DejaVuSans-35"/>
       <use xlink:href="#DejaVuSans-30" x="63.623047"/>
       <use xlink:href="#DejaVuSans-30" x="127.246094"/>
       <use xlink:href="#DejaVuSans-30" x="190.869141"/>
      </g>
     </g>
    </g>
    <g id="text_7">
     <!-- episodes -->
     <g transform="translate(214.000625 335.860562) scale(0.1 -0.1)">
      <defs>
       <path id="DejaVuSans-65" d="M 3597 1894 
L 3597 1613 
L 953 1613 
Q 991 1019 1311 708 
Q 1631 397 2203 397 
Q 2534 397 2845 478 
Q 3156 559 3463 722 
L 3463 178 
Q 3153 47 2828 -22 
Q 2503 -91 2169 -91 
Q 1331 -91 842 396 
Q 353 884 353 1716 
Q 353 2575 817 3079 
Q 1281 3584 2069 3584 
Q 2775 3584 3186 3129 
Q 3597 2675 3597 1894 
z
M 3022 2063 
Q 3016 2534 2758 2815 
Q 2500 3097 2075 3097 
Q 1594 3097 1305 2825 
Q 1016 2553 972 2059 
L 3022 2063 
z
" transform="scale(0.015625)"/>
       <path id="DejaVuSans-70" d="M 1159 525 
L 1159 -1331 
L 581 -1331 
L 581 3500 
L 1159 3500 
L 1159 2969 
Q 1341 3281 1617 3432 
Q 1894 3584 2278 3584 
Q 2916 3584 3314 3078 
Q 3713 2572 3713 1747 
Q 3713 922 3314 415 
Q 2916 -91 2278 -91 
Q 1894 -91 1617 61 
Q 1341 213 1159 525 
z
M 3116 1747 
Q 3116 2381 2855 2742 
Q 2594 3103 2138 3103 
Q 1681 3103 1420 2742 
Q 1159 2381 1159 1747 
Q 1159 1113 1420 752 
Q 1681 391 2138 391 
Q 2594 391 2855 752 
Q 3116 1113 3116 1747 
z
" transform="scale(0.015625)"/>
       <path id="DejaVuSans-69" d="M 603 3500 
L 1178 3500 
L 1178 0 
L 603 0 
L 603 3500 
z
M 603 4863 
L 1178 4863 
L 1178 4134 
L 603 4134 
L 603 4863 
z
" transform="scale(0.015625)"/>
       <path id="DejaVuSans-73" d="M 2834 3397 
L 2834 2853 
Q 2591 2978 2328 3040 
Q 2066 3103 1784 3103 
Q 1356 3103 1142 2972 
Q 928 2841 928 2578 
Q 928 2378 1081 2264 
Q 1234 2150 1697 2047 
L 1894 2003 
Q 2506 1872 2764 1633 
Q 3022 1394 3022 966 
Q 3022 478 2636 193 
Q 2250 -91 1575 -91 
Q 1294 -91 989 -36 
Q 684 19 347 128 
L 347 722 
Q 666 556 975 473 
Q 1284 391 1588 391 
Q 1994 391 2212 530 
Q 2431 669 2431 922 
Q 2431 1156 2273 1281 
Q 2116 1406 1581 1522 
L 1381 1569 
Q 847 1681 609 1914 
Q 372 2147 372 2553 
Q 372 3047 722 3315 
Q 1072 3584 1716 3584 
Q 2034 3584 2315 3537 
Q 2597 3491 2834 3397 
z
" transform="scale(0.015625)"/>
       <path id="DejaVuSans-6f" d="M 1959 3097 
Q 1497 3097 1228 2736 
Q 959 2375 959 1747 
Q 959 1119 1226 758 
Q 1494 397 1959 397 
Q 2419 397 2687 759 
Q 2956 1122 2956 1747 
Q 2956 2369 2687 2733 
Q 2419 3097 1959 3097 
z
M 1959 3584 
Q 2709 3584 3137 3096 
Q 3566 2609 3566 1747 
Q 3566 888 3137 398 
Q 2709 -91 1959 -91 
Q 1206 -91 779 398 
Q 353 888 353 1747 
Q 353 2609 779 3096 
Q 1206 3584 1959 3584 
z
" transform="scale(0.015625)"/>
       <path id="DejaVuSans-64" d="M 2906 2969 
L 2906 4863 
L 3481 4863 
L 3481 0 
L 2906 0 
L 2906 525 
Q 2725 213 2448 61 
Q 2172 -91 1784 -91 
Q 1150 -91 751 415 
Q 353 922 353 1747 
Q 353 2572 751 3078 
Q 1150 3584 1784 3584 
Q 2172 3584 2448 3432 
Q 2725 3281 2906 2969 
z
M 947 1747 
Q 947 1113 1208 752 
Q 1469 391 1925 391 
Q 2381 391 2643 752 
Q 2906 1113 2906 1747 
Q 2906 2381 2643 2742 
Q 2381 3103 1925 3103 
Q 1469 3103 1208 2742 
Q 947 2381 947 1747 
z
" transform="scale(0.015625)"/>
      </defs>
      <use xlink:href="#DejaVuSans-65"/>
      <use xlink:href="#DejaVuSans-70" x="61.523438"/>
      <use xlink:href="#DejaVuSans-69" x="125"/>
      <use xlink:href="#DejaVuSans-73" x="152.783203"/>
      <use xlink:href="#DejaVuSans-6f" x="204.882812"/>
      <use xlink:href="#DejaVuSans-64" x="266.064453"/>
      <use xlink:href="#DejaVuSans-65" x="329.541016"/>
      <use xlink:href="#DejaVuSans-73" x="391.064453"/>
     </g>
    </g>
   </g>
   <g id="matplotlib.axis_2">
    <g id="ytick_1">
     <g id="line2d_7">
      <defs>
       <path id="md7dea983fe" d="M 0 0 
L -3.5 0 
" style="stroke: #000000; stroke-width: 0.8"/>
      </defs>
      <g>
       <use xlink:href="#md7dea983fe" x="57.6" y="303.065488" style="stroke: #000000; stroke-width: 0.8"/>
      </g>
     </g>
     <g id="text_8">
      <!-- 0 -->
      <g transform="translate(44.2375 306.864707) scale(0.1 -0.1)">
       <use xlink:href="#DejaVuSans-30"/>
      </g>
     </g>
    </g>
    <g id="ytick_2">
     <g id="line2d_8">
      <g>
       <use xlink:href="#md7dea983fe" x="57.6" y="268.847368" style="stroke: #000000; stroke-width: 0.8"/>
      </g>
     </g>
     <g id="text_9">
      <!-- 50 -->
      <g transform="translate(37.875 272.646586) scale(0.1 -0.1)">
       <use xlink:href="#DejaVuSans-35"/>
       <use xlink:href="#DejaVuSans-30" x="63.623047"/>
      </g>
     </g>
    </g>
    <g id="ytick_3">
     <g id="line2d_9">
      <g>
       <use xlink:href="#md7dea983fe" x="57.6" y="234.629247" style="stroke: #000000; stroke-width: 0.8"/>
      </g>
     </g>
     <g id="text_10">
      <!-- 100 -->
      <g transform="translate(31.5125 238.428466) scale(0.1 -0.1)">
       <use xlink:href="#DejaVuSans-31"/>
       <use xlink:href="#DejaVuSans-30" x="63.623047"/>
       <use xlink:href="#DejaVuSans-30" x="127.246094"/>
      </g>
     </g>
    </g>
    <g id="ytick_4">
     <g id="line2d_10">
      <g>
       <use xlink:href="#md7dea983fe" x="57.6" y="200.411127" style="stroke: #000000; stroke-width: 0.8"/>
      </g>
     </g>
     <g id="text_11">
      <!-- 150 -->
      <g transform="translate(31.5125 204.210346) scale(0.1 -0.1)">
       <use xlink:href="#DejaVuSans-31"/>
       <use xlink:href="#DejaVuSans-35" x="63.623047"/>
       <use xlink:href="#DejaVuSans-30" x="127.246094"/>
      </g>
     </g>
    </g>
    <g id="ytick_5">
     <g id="line2d_11">
      <g>
       <use xlink:href="#md7dea983fe" x="57.6" y="166.193007" style="stroke: #000000; stroke-width: 0.8"/>
      </g>
     </g>
     <g id="text_12">
      <!-- 200 -->
      <g transform="translate(31.5125 169.992226) scale(0.1 -0.1)">
       <use xlink:href="#DejaVuSans-32"/>
       <use xlink:href="#DejaVuSans-30" x="63.623047"/>
       <use xlink:href="#DejaVuSans-30" x="127.246094"/>
      </g>
     </g>
    </g>
    <g id="ytick_6">
     <g id="line2d_12">
      <g>
       <use xlink:href="#md7dea983fe" x="57.6" y="131.974886" style="stroke: #000000; stroke-width: 0.8"/>
      </g>
     </g>
     <g id="text_13">
      <!-- 250 -->
      <g transform="translate(31.5125 135.774105) scale(0.1 -0.1)">
       <use xlink:href="#DejaVuSans-32"/>
       <use xlink:href="#DejaVuSans-35" x="63.623047"/>
       <use xlink:href="#DejaVuSans-30" x="127.246094"/>
      </g>
     </g>
    </g>
    <g id="ytick_7">
     <g id="line2d_13">
      <g>
       <use xlink:href="#md7dea983fe" x="57.6" y="97.756766" style="stroke: #000000; stroke-width: 0.8"/>
      </g>
     </g>
     <g id="text_14">
      <!-- 300 -->
      <g transform="translate(31.5125 101.555985) scale(0.1 -0.1)">
       <use xlink:href="#DejaVuSans-33"/>
       <use xlink:href="#DejaVuSans-30" x="63.623047"/>
       <use xlink:href="#DejaVuSans-30" x="127.246094"/>
      </g>
     </g>
    </g>
    <g id="ytick_8">
     <g id="line2d_14">
      <g>
       <use xlink:href="#md7dea983fe" x="57.6" y="63.538646" style="stroke: #000000; stroke-width: 0.8"/>
      </g>
     </g>
     <g id="text_15">
      <!-- 350 -->
      <g transform="translate(31.5125 67.337865) scale(0.1 -0.1)">
       <use xlink:href="#DejaVuSans-33"/>
       <use xlink:href="#DejaVuSans-35" x="63.623047"/>
       <use xlink:href="#DejaVuSans-30" x="127.246094"/>
      </g>
     </g>
    </g>
    <g id="text_16">
     <!-- mean episode rewards -->
     <g transform="translate(25.432812 231.360031) rotate(-90) scale(0.1 -0.1)">
      <defs>
       <path id="DejaVuSans-6d" d="M 3328 2828 
Q 3544 3216 3844 3400 
Q 4144 3584 4550 3584 
Q 5097 3584 5394 3201 
Q 5691 2819 5691 2113 
L 5691 0 
L 5113 0 
L 5113 2094 
Q 5113 2597 4934 2840 
Q 4756 3084 4391 3084 
Q 3944 3084 3684 2787 
Q 3425 2491 3425 1978 
L 3425 0 
L 2847 0 
L 2847 2094 
Q 2847 2600 2669 2842 
Q 2491 3084 2119 3084 
Q 1678 3084 1418 2786 
Q 1159 2488 1159 1978 
L 1159 0 
L 581 0 
L 581 3500 
L 1159 3500 
L 1159 2956 
Q 1356 3278 1631 3431 
Q 1906 3584 2284 3584 
Q 2666 3584 2933 3390 
Q 3200 3197 3328 2828 
z
" transform="scale(0.015625)"/>
       <path id="DejaVuSans-61" d="M 2194 1759 
Q 1497 1759 1228 1600 
Q 959 1441 959 1056 
Q 959 750 1161 570 
Q 1363 391 1709 391 
Q 2188 391 2477 730 
Q 2766 1069 2766 1631 
L 2766 1759 
L 2194 1759 
z
M 3341 1997 
L 3341 0 
L 2766 0 
L 2766 531 
Q 2569 213 2275 61 
Q 1981 -91 1556 -91 
Q 1019 -91 701 211 
Q 384 513 384 1019 
Q 384 1609 779 1909 
Q 1175 2209 1959 2209 
L 2766 2209 
L 2766 2266 
Q 2766 2663 2505 2880 
Q 2244 3097 1772 3097 
Q 1472 3097 1187 3025 
Q 903 2953 641 2809 
L 641 3341 
Q 956 3463 1253 3523 
Q 1550 3584 1831 3584 
Q 2591 3584 2966 3190 
Q 3341 2797 3341 1997 
z
" transform="scale(0.015625)"/>
       <path id="DejaVuSans-6e" d="M 3513 2113 
L 3513 0 
L 2938 0 
L 2938 2094 
Q 2938 2591 2744 2837 
Q 2550 3084 2163 3084 
Q 1697 3084 1428 2787 
Q 1159 2491 1159 1978 
L 1159 0 
L 581 0 
L 581 3500 
L 1159 3500 
L 1159 2956 
Q 1366 3272 1645 3428 
Q 1925 3584 2291 3584 
Q 2894 3584 3203 3211 
Q 3513 2838 3513 2113 
z
" transform="scale(0.015625)"/>
       <path id="DejaVuSans-20" transform="scale(0.015625)"/>
       <path id="DejaVuSans-72" d="M 2631 2963 
Q 2534 3019 2420 3045 
Q 2306 3072 2169 3072 
Q 1681 3072 1420 2755 
Q 1159 2438 1159 1844 
L 1159 0 
L 581 0 
L 581 3500 
L 1159 3500 
L 1159 2956 
Q 1341 3275 1631 3429 
Q 1922 3584 2338 3584 
Q 2397 3584 2469 3576 
Q 2541 3569 2628 3553 
L 2631 2963 
z
" transform="scale(0.015625)"/>
       <path id="DejaVuSans-77" d="M 269 3500 
L 844 3500 
L 1563 769 
L 2278 3500 
L 2956 3500 
L 3675 769 
L 4391 3500 
L 4966 3500 
L 4050 0 
L 3372 0 
L 2619 2869 
L 1863 0 
L 1184 0 
L 269 3500 
z
" transform="scale(0.015625)"/>
      </defs>
      <use xlink:href="#DejaVuSans-6d"/>
      <use xlink:href="#DejaVuSans-65" x="97.412109"/>
      <use xlink:href="#DejaVuSans-61" x="158.935547"/>
      <use xlink:href="#DejaVuSans-6e" x="220.214844"/>
      <use xlink:href="#DejaVuSans-20" x="283.59375"/>
      <use xlink:href="#DejaVuSans-65" x="315.380859"/>
      <use xlink:href="#DejaVuSans-70" x="376.904297"/>
      <use xlink:href="#DejaVuSans-69" x="440.380859"/>
      <use xlink:href="#DejaVuSans-73" x="468.164062"/>
      <use xlink:href="#DejaVuSans-6f" x="520.263672"/>
      <use xlink:href="#DejaVuSans-64" x="581.445312"/>
      <use xlink:href="#DejaVuSans-65" x="644.921875"/>
      <use xlink:href="#DejaVuSans-20" x="706.445312"/>
      <use xlink:href="#DejaVuSans-72" x="738.232422"/>
      <use xlink:href="#DejaVuSans-65" x="777.095703"/>
      <use xlink:href="#DejaVuSans-77" x="838.619141"/>
      <use xlink:href="#DejaVuSans-61" x="920.40625"/>
      <use xlink:href="#DejaVuSans-72" x="981.685547"/>
      <use xlink:href="#DejaVuSans-64" x="1021.048828"/>
      <use xlink:href="#DejaVuSans-73" x="1084.525391"/>
     </g>
    </g>
   </g>
   <g id="line2d_15">
    <path d="M 73.832727 295.488 
L 74.437298 294.935114 
L 75.041869 294.843575 
L 75.64644 294.358563 
L 76.251011 294.634273 
L 76.855582 294.69092 
L 77.460152 294.503974 
L 78.064723 293.695981 
L 78.669294 293.536903 
L 79.273865 293.774508 
L 79.878436 293.47738 
L 80.483007 292.989264 
L 81.692148 293.131378 
L 82.296719 292.476777 
L 82.90129 292.014186 
L 83.505861 290.949562 
L 84.110432 291.131898 
L 84.715003 291.002721 
L 85.319573 290.504427 
L 85.924144 290.690916 
L 86.528715 289.743378 
L 87.133286 289.07487 
L 87.737857 288.092236 
L 88.342428 288.550655 
L 89.551569 287.939115 
L 90.15614 288.82567 
L 91.365282 288.801603 
L 91.969853 288.152292 
L 92.574424 288.96034 
L 93.178994 289.543178 
L 94.388136 289.824587 
L 94.992707 290.266226 
L 95.597278 291.318628 
L 96.201849 290.804465 
L 96.80642 290.991082 
L 97.41099 291.552454 
L 98.015561 291.481416 
L 98.620132 291.856834 
L 99.224703 292.419808 
L 99.829274 292.429056 
L 100.433845 292.041791 
L 101.038415 292.244086 
L 101.642986 292.126411 
L 102.247557 292.133847 
L 103.456699 291.621907 
L 104.06127 292.423729 
L 104.665841 292.042923 
L 105.270411 290.322348 
L 105.874982 289.829141 
L 106.479553 288.890922 
L 107.084124 288.315604 
L 107.688695 286.433821 
L 108.293266 285.227204 
L 108.897836 281.302451 
L 110.106978 275.77572 
L 110.711549 274.046553 
L 111.31612 273.875786 
L 111.920691 272.223491 
L 113.129832 269.498724 
L 113.734403 269.263542 
L 114.338974 268.649676 
L 114.943545 270.831331 
L 115.548116 270.973062 
L 116.152687 270.068865 
L 116.757257 269.687642 
L 117.361828 268.678992 
L 118.57097 263.657416 
L 119.175541 259.837701 
L 119.780112 256.754592 
L 120.989253 249.455232 
L 121.593824 247.059816 
L 122.198395 243.614861 
L 123.407537 230.699886 
L 124.012108 224.519792 
L 124.616679 221.759707 
L 125.221249 222.205391 
L 125.82582 219.008911 
L 127.034962 213.953883 
L 127.639533 209.146316 
L 128.244104 205.828745 
L 128.848674 204.920359 
L 129.453245 204.635555 
L 130.057816 204.138938 
L 131.266958 196.868612 
L 131.871529 195.35702 
L 132.4761 194.335875 
L 133.685241 201.867002 
L 134.289812 201.168782 
L 135.498954 201.04557 
L 136.103525 203.371373 
L 136.708095 208.678053 
L 137.312666 209.897464 
L 137.917237 209.835764 
L 138.521808 209.513862 
L 139.126379 203.846721 
L 139.73095 199.584921 
L 140.335521 200.274373 
L 140.940091 199.301516 
L 141.544662 198.793147 
L 142.149233 196.481044 
L 142.753804 191.376605 
L 143.358375 189.662907 
L 143.962946 189.342094 
L 144.567517 188.779515 
L 145.172087 188.594701 
L 145.776658 187.109572 
L 146.381229 186.288205 
L 146.9858 186.67169 
L 147.590371 186.869091 
L 148.194942 188.069996 
L 148.799512 188.019587 
L 149.404083 188.55944 
L 150.008654 188.700225 
L 150.613225 191.210433 
L 151.217796 191.453075 
L 151.822367 192.167965 
L 152.426938 193.485058 
L 153.031508 193.812948 
L 153.636079 193.855776 
L 154.24065 192.539982 
L 154.845221 192.88675 
L 155.449792 193.375738 
L 156.054363 192.463297 
L 156.658933 188.402164 
L 157.263504 188.017988 
L 157.868075 188.45709 
L 158.472646 187.323326 
L 159.077217 185.718885 
L 159.681788 188.703626 
L 160.286359 188.780203 
L 160.890929 189.387951 
L 161.4955 188.266853 
L 162.100071 188.641401 
L 162.704642 190.558575 
L 163.309213 191.162993 
L 163.913784 194.774336 
L 164.518354 193.644141 
L 165.122925 193.569204 
L 165.727496 188.082036 
L 166.332067 187.090973 
L 166.936638 182.841054 
L 167.541209 180.443561 
L 168.14578 181.911017 
L 168.75035 180.825763 
L 169.354921 180.151065 
L 169.959492 174.703935 
L 170.564063 174.774922 
L 171.168634 178.352384 
L 171.773205 179.517505 
L 172.377776 179.274952 
L 172.982346 181.740036 
L 173.586917 183.528019 
L 174.191488 186.970642 
L 174.796059 183.07415 
L 175.40063 178.352579 
L 176.005201 175.189515 
L 177.214342 164.750048 
L 177.818913 156.975086 
L 178.423484 155.414109 
L 179.028055 152.744595 
L 179.632626 147.41178 
L 180.237197 139.388247 
L 180.841767 135.635047 
L 181.446338 134.923333 
L 182.050909 132.982424 
L 182.65548 132.890666 
L 183.260051 130.215117 
L 183.864622 138.430244 
L 184.469192 137.114488 
L 185.073763 134.820295 
L 185.678334 139.592675 
L 186.282905 137.53201 
L 186.887476 142.734979 
L 187.492047 143.682507 
L 188.096618 141.927639 
L 188.701188 138.228973 
L 189.305759 136.170573 
L 189.91033 129.549073 
L 190.514901 126.630016 
L 191.119472 125.906131 
L 191.724043 122.3107 
L 192.328614 125.620501 
L 192.933184 125.684852 
L 193.537755 122.405301 
L 194.142326 120.380958 
L 194.746897 117.279911 
L 195.351468 118.725448 
L 195.956039 121.362603 
L 196.560609 119.724933 
L 197.16518 119.139392 
L 197.769751 110.679006 
L 198.978893 89.839144 
L 200.188035 88.306803 
L 200.792605 92.021998 
L 201.397176 92.755821 
L 202.001747 91.251384 
L 202.606318 91.96273 
L 203.210889 88.909262 
L 203.81546 93.334454 
L 205.024601 105.10754 
L 205.629172 105.570145 
L 206.233743 117.9466 
L 206.838314 112.721867 
L 207.442885 110.023869 
L 208.047456 105.988216 
L 208.652026 105.891047 
L 209.256597 104.537035 
L 209.861168 107.207636 
L 210.465739 107.643693 
L 211.07031 109.140198 
L 211.674881 107.793363 
L 212.279451 97.694226 
L 212.884022 102.5365 
L 213.488593 102.327436 
L 214.093164 113.226587 
L 214.697735 128.416473 
L 215.302306 131.732366 
L 215.906877 122.754699 
L 216.511447 117.907856 
L 217.116018 107.649554 
L 217.720589 102.417165 
L 218.32516 107.446938 
L 219.534302 123.615502 
L 220.138873 121.59062 
L 220.743443 102.229829 
L 221.348014 91.476141 
L 223.161727 99.83782 
L 223.766298 102.103465 
L 224.370868 103.841748 
L 224.975439 101.088187 
L 226.184581 90.969051 
L 226.789152 91.739831 
L 227.393723 90.496784 
L 228.602864 77.199683 
L 229.207435 81.194657 
L 229.812006 81.854922 
L 230.416577 66.475022 
L 231.021148 63.525112 
L 231.625719 61.982307 
L 232.230289 53.568 
L 233.439431 75.831544 
L 234.044002 81.309544 
L 235.253144 95.559632 
L 235.857715 99.485167 
L 236.462285 102.331452 
L 237.066856 99.510217 
L 237.671427 95.811422 
L 238.275998 96.804845 
L 238.880569 88.041657 
L 240.089711 94.189286 
L 240.694281 91.615338 
L 241.298852 87.676078 
L 241.903423 87.012588 
L 242.507994 87.218998 
L 243.112565 86.721679 
L 243.717136 81.815858 
L 244.321706 83.114949 
L 244.926277 83.774317 
L 245.530848 80.495856 
L 246.135419 80.86958 
L 246.73999 86.933662 
L 247.344561 85.498887 
L 247.949132 81.15792 
L 248.553702 79.179932 
L 249.158273 80.28569 
L 249.762844 88.441038 
L 250.367415 85.611713 
L 251.576557 75.207843 
L 252.181127 74.489971 
L 252.785698 69.587153 
L 253.390269 67.477655 
L 253.99484 74.010147 
L 254.599411 79.127115 
L 255.203982 83.138016 
L 255.808553 85.865051 
L 257.017694 115.966463 
L 257.622265 116.860446 
L 258.226836 117.110516 
L 258.831407 120.831124 
L 259.435978 117.379916 
L 260.040549 117.719969 
L 261.24969 122.918506 
L 261.854261 124.793749 
L 262.458832 109.265916 
L 263.063403 103.035945 
L 263.667974 111.331344 
L 264.272544 115.707608 
L 264.877115 116.980047 
L 265.481686 116.639262 
L 266.086257 107.084617 
L 266.690828 106.839321 
L 267.295399 102.739636 
L 267.89997 108.599048 
L 269.713682 135.662809 
L 270.318253 128.366577 
L 270.922824 135.752914 
L 271.527395 150.900441 
L 272.131965 168.971911 
L 272.736536 181.198004 
L 273.341107 180.749523 
L 273.945678 163.590376 
L 274.550249 155.207662 
L 275.15482 137.856963 
L 275.759391 130.859363 
L 276.363961 138.299017 
L 276.968532 132.408289 
L 277.573103 129.903227 
L 278.177674 106.516244 
L 278.782245 92.869429 
L 279.386816 91.468738 
L 279.991386 94.751251 
L 281.200528 114.027419 
L 281.805099 114.294698 
L 282.40967 109.265745 
L 283.014241 117.940304 
L 283.618812 112.56421 
L 284.223382 119.508103 
L 284.827953 122.435854 
L 285.432524 120.997616 
L 286.037095 122.077264 
L 286.641666 111.338565 
L 287.246237 112.107186 
L 287.850808 117.765625 
L 288.455378 124.685484 
L 289.059949 130.181597 
L 289.66452 127.083309 
L 290.269091 119.373979 
L 290.873662 113.443679 
L 291.478233 113.07763 
L 292.082803 111.003084 
L 292.687374 117.128413 
L 293.291945 115.045335 
L 293.896516 104.554373 
L 294.501087 98.998938 
L 295.105658 83.862649 
L 295.710229 84.589053 
L 296.314799 87.984603 
L 296.91937 90.345574 
L 297.523941 90.85073 
L 298.128512 99.883926 
L 299.337654 88.640177 
L 299.942224 92.214896 
L 301.151366 95.606019 
L 301.755937 91.174505 
L 302.360508 104.634614 
L 302.965079 104.80989 
L 303.56965 107.304107 
L 304.17422 100.837916 
L 304.778791 98.5709 
L 305.383362 101.890451 
L 305.987933 100.214247 
L 306.592504 89.523989 
L 307.801646 82.010554 
L 308.406216 71.172508 
L 309.615358 59.113937 
L 310.219929 70.263722 
L 310.8245 68.187638 
L 311.429071 64.475927 
L 312.033641 58.842729 
L 312.638212 60.306546 
L 313.242783 58.05087 
L 313.847354 60.382266 
L 314.451925 60.805116 
L 315.056496 69.449445 
L 315.661067 68.858626 
L 316.265637 54.295666 
L 316.870208 55.299206 
L 317.474779 58.005493 
L 318.683921 65.649401 
L 319.288492 67.589944 
L 319.893062 67.492318 
L 320.497633 66.346695 
L 321.102204 60.519148 
L 321.706775 59.599564 
L 322.311346 66.874753 
L 322.915917 69.071234 
L 323.520488 70.743189 
L 324.125058 71.335119 
L 324.729629 67.892994 
L 325.3342 66.386727 
L 325.938771 68.026428 
L 326.543342 69.20889 
L 327.147913 72.439195 
L 327.752483 71.286316 
L 328.357054 70.497351 
L 329.566196 70.03756 
L 330.775338 66.578856 
L 331.379909 71.072503 
L 331.984479 70.365126 
L 332.58905 73.198294 
L 333.193621 69.561688 
L 333.798192 78.098221 
L 334.402763 75.575372 
L 335.007334 78.729656 
L 335.611905 84.280091 
L 336.216475 101.477321 
L 336.821046 112.424666 
L 337.425617 117.664923 
L 338.030188 117.433103 
L 338.634759 114.911376 
L 339.8439 126.342362 
L 340.448471 137.725082 
L 341.053042 142.763964 
L 341.657613 140.984715 
L 342.262184 131.124153 
L 342.866755 117.107099 
L 343.471326 116.04376 
L 344.075896 123.727473 
L 344.680467 122.412995 
L 345.889609 129.121948 
L 346.49418 133.874457 
L 347.098751 141.115907 
L 348.307892 128.719569 
L 348.912463 147.095787 
L 349.517034 155.566877 
L 350.121605 154.520925 
L 350.726176 156.758811 
L 351.330747 155.656289 
L 351.935317 145.350104 
L 352.539888 142.216502 
L 353.144459 134.635858 
L 353.74903 131.663302 
L 354.353601 140.098074 
L 354.958172 138.31764 
L 355.562743 135.345574 
L 356.167313 142.107856 
L 356.771884 153.288001 
L 357.376455 151.823114 
L 359.190168 139.553451 
L 359.794738 143.623486 
L 360.399309 137.336386 
L 361.00388 121.981697 
L 362.817593 90.722007 
L 363.422164 95.242536 
L 364.026734 114.425789 
L 364.631305 108.250789 
L 365.235876 104.89971 
L 365.840447 105.07689 
L 366.445018 121.388828 
L 367.049589 117.048847 
L 367.654159 123.431897 
L 368.25873 139.660449 
L 368.863301 141.321528 
L 369.467872 132.593733 
L 370.072443 112.878788 
L 370.677014 116.851285 
L 371.281585 128.336231 
L 371.886155 129.321207 
L 372.490726 111.137416 
L 373.095297 118.358756 
L 373.699868 120.327391 
L 374.304439 107.860289 
L 374.90901 103.045318 
L 375.51358 103.126059 
L 376.118151 114.297919 
L 376.722722 114.446858 
L 377.327293 105.244329 
L 377.931864 106.576652 
L 378.536435 113.578349 
L 379.141006 110.605168 
L 379.745576 113.26245 
L 380.350147 113.603153 
L 380.954718 118.82996 
L 381.559289 119.750514 
L 382.16386 110.352747 
L 382.768431 97.985485 
L 383.373002 95.887692 
L 383.977572 98.020897 
L 384.582143 97.65064 
L 385.186714 103.728854 
L 385.791285 99.658577 
L 386.395856 101.613696 
L 387.000427 96.510675 
L 389.41871 132.019181 
L 390.023281 133.512876 
L 390.627852 138.48599 
L 391.232423 136.233927 
L 391.836993 142.036809 
L 392.441564 145.863099 
L 393.046135 148.703794 
L 393.650706 149.130522 
L 394.255277 151.429167 
L 394.859848 154.342733 
L 395.464418 151.104954 
L 396.67356 150.895798 
L 397.278131 153.801631 
L 397.882702 148.648394 
L 398.487273 146.833994 
L 398.487273 146.833994 
" clip-path="url(#p00677b5afb)" style="fill: none; stroke: #1f77b4; stroke-width: 1.5; stroke-linecap: square"/>
   </g>
   <g id="patch_3">
    <path d="M 57.6 307.584 
L 57.6 41.472 
" style="fill: none; stroke: #000000; stroke-width: 0.8; stroke-linejoin: miter; stroke-linecap: square"/>
   </g>
   <g id="patch_4">
    <path d="M 414.72 307.584 
L 414.72 41.472 
" style="fill: none; stroke: #000000; stroke-width: 0.8; stroke-linejoin: miter; stroke-linecap: square"/>
   </g>
   <g id="patch_5">
    <path d="M 57.6 307.584 
L 414.72 307.584 
" style="fill: none; stroke: #000000; stroke-width: 0.8; stroke-linejoin: miter; stroke-linecap: square"/>
   </g>
   <g id="patch_6">
    <path d="M 57.6 41.472 
L 414.72 41.472 
" style="fill: none; stroke: #000000; stroke-width: 0.8; stroke-linejoin: miter; stroke-linecap: square"/>
   </g>
   <g id="text_17">
    <!-- episode learning curve -->
    <g transform="translate(167.59125 35.472) scale(0.12 -0.12)">
     <defs>
      <path id="DejaVuSans-6c" d="M 603 4863 
L 1178 4863 
L 1178 0 
L 603 0 
L 603 4863 
z
" transform="scale(0.015625)"/>
      <path id="DejaVuSans-67" d="M 2906 1791 
Q 2906 2416 2648 2759 
Q 2391 3103 1925 3103 
Q 1463 3103 1205 2759 
Q 947 2416 947 1791 
Q 947 1169 1205 825 
Q 1463 481 1925 481 
Q 2391 481 2648 825 
Q 2906 1169 2906 1791 
z
M 3481 434 
Q 3481 -459 3084 -895 
Q 2688 -1331 1869 -1331 
Q 1566 -1331 1297 -1286 
Q 1028 -1241 775 -1147 
L 775 -588 
Q 1028 -725 1275 -790 
Q 1522 -856 1778 -856 
Q 2344 -856 2625 -561 
Q 2906 -266 2906 331 
L 2906 616 
Q 2728 306 2450 153 
Q 2172 0 1784 0 
Q 1141 0 747 490 
Q 353 981 353 1791 
Q 353 2603 747 3093 
Q 1141 3584 1784 3584 
Q 2172 3584 2450 3431 
Q 2728 3278 2906 2969 
L 2906 3500 
L 3481 3500 
L 3481 434 
z
" transform="scale(0.015625)"/>
      <path id="DejaVuSans-63" d="M 3122 3366 
L 3122 2828 
Q 2878 2963 2633 3030 
Q 2388 3097 2138 3097 
Q 1578 3097 1268 2742 
Q 959 2388 959 1747 
Q 959 1106 1268 751 
Q 1578 397 2138 397 
Q 2388 397 2633 464 
Q 2878 531 3122 666 
L 3122 134 
Q 2881 22 2623 -34 
Q 2366 -91 2075 -91 
Q 1284 -91 818 406 
Q 353 903 353 1747 
Q 353 2603 823 3093 
Q 1294 3584 2113 3584 
Q 2378 3584 2631 3529 
Q 2884 3475 3122 3366 
z
" transform="scale(0.015625)"/>
      <path id="DejaVuSans-75" d="M 544 1381 
L 544 3500 
L 1119 3500 
L 1119 1403 
Q 1119 906 1312 657 
Q 1506 409 1894 409 
Q 2359 409 2629 706 
Q 2900 1003 2900 1516 
L 2900 3500 
L 3475 3500 
L 3475 0 
L 2900 0 
L 2900 538 
Q 2691 219 2414 64 
Q 2138 -91 1772 -91 
Q 1169 -91 856 284 
Q 544 659 544 1381 
z
M 1991 3584 
L 1991 3584 
z
" transform="scale(0.015625)"/>
      <path id="DejaVuSans-76" d="M 191 3500 
L 800 3500 
L 1894 563 
L 2988 3500 
L 3597 3500 
L 2284 0 
L 1503 0 
L 191 3500 
z
" transform="scale(0.015625)"/>
     </defs>
     <use xlink:href="#DejaVuSans-65"/>
     <use xlink:href="#DejaVuSans-70" x="61.523438"/>
     <use xlink:href="#DejaVuSans-69" x="125"/>
     <use xlink:href="#DejaVuSans-73" x="152.783203"/>
     <use xlink:href="#DejaVuSans-6f" x="204.882812"/>
     <use xlink:href="#DejaVuSans-64" x="266.064453"/>
     <use xlink:href="#DejaVuSans-65" x="329.541016"/>
     <use xlink:href="#DejaVuSans-20" x="391.064453"/>
     <use xlink:href="#DejaVuSans-6c" x="422.851562"/>
     <use xlink:href="#DejaVuSans-65" x="450.634766"/>
     <use xlink:href="#DejaVuSans-61" x="512.158203"/>
     <use xlink:href="#DejaVuSans-72" x="573.4375"/>
     <use xlink:href="#DejaVuSans-6e" x="612.800781"/>
     <use xlink:href="#DejaVuSans-69" x="676.179688"/>
     <use xlink:href="#DejaVuSans-6e" x="703.962891"/>
     <use xlink:href="#DejaVuSans-67" x="767.341797"/>
     <use xlink:href="#DejaVuSans-20" x="830.818359"/>
     <use xlink:href="#DejaVuSans-63" x="862.605469"/>
     <use xlink:href="#DejaVuSans-75" x="917.585938"/>
     <use xlink:href="#DejaVuSans-72" x="980.964844"/>
     <use xlink:href="#DejaVuSans-76" x="1022.078125"/>
     <use xlink:href="#DejaVuSans-65" x="1081.257812"/>
    </g>
   </g>
  </g>
 </g>
 <defs>
  <clipPath id="p00677b5afb">
   <rect x="57.6" y="41.472" width="357.12" height="266.112"/>
  </clipPath>
 </defs>
</svg>
