<?xml version="1.0" encoding="utf-8" standalone="no"?>
<!DOCTYPE svg PUBLIC "-//W3C//DTD SVG 1.1//EN"
  "http://www.w3.org/Graphics/SVG/1.1/DTD/svg11.dtd">
<svg xmlns:xlink="http://www.w3.org/1999/xlink" width="460.8pt" height="345.6pt" viewBox="0 0 460.8 345.6" xmlns="http://www.w3.org/2000/svg" version="1.1">
 <metadata>
  <rdf:RDF xmlns:dc="http://purl.org/dc/elements/1.1/" xmlns:cc="http://creativecommons.org/ns#" xmlns:rdf="http://www.w3.org/1999/02/22-rdf-syntax-ns#">
   <cc:Work>
    <dc:type rdf:resource="http://purl.org/dc/dcmitype/StillImage"/>
    <dc:date>2023-08-19T14:13:43.341508</dc:date>
    <dc:format>image/svg+xml</dc:format>
    <dc:creator>
     <cc:Agent>
      <dc:title>Matplotlib v3.7.1, https://matplotlib.org/</dc:title>
     </cc:Agent>
    </dc:creator>
   </cc:Work>
  </rdf:RDF>
 </metadata>
 <defs>
  <style type="text/css">*{stroke-linejoin: round; stroke-linecap: butt}</style>
 </defs>
 <g id="figure_1">
  <g id="patch_1">
   <path d="M 0 345.6 
L 460.8 345.6 
L 460.8 0 
L 0 0 
z
" style="fill: #ffffff"/>
  </g>
  <g id="axes_1">
   <g id="patch_2">
    <path d="M 57.6 307.584 
L 414.72 307.584 
L 414.72 41.472 
L 57.6 41.472 
z
" style="fill: #ffffff"/>
   </g>
   <g id="matplotlib.axis_1">
    <g id="xtick_1">
     <g id="line2d_1">
      <defs>
       <path id="mab3b489fd4" d="M 0 0 
L 0 3.5 
" style="stroke: #000000; stroke-width: 0.8"/>
      </defs>
      <g>
       <use xlink:href="#mab3b489fd4" x="73.228156" y="307.584" style="stroke: #000000; stroke-width: 0.8"/>
      </g>
     </g>
     <g id="text_1">
      <!-- 0 -->
      <g transform="translate(70.046906 322.182437) scale(0.1 -0.1)">
       <defs>
        <path id="DejaVuSans-30" d="M 2034 4250 
Q 1547 4250 1301 3770 
Q 1056 3291 1056 2328 
Q 1056 1369 1301 889 
Q 1547 409 2034 409 
Q 2525 409 2770 889 
Q 3016 1369 3016 2328 
Q 3016 3291 2770 3770 
Q 2525 4250 2034 4250 
z
M 2034 4750 
Q 2819 4750 3233 4129 
Q 3647 3509 3647 2328 
Q 3647 1150 3233 529 
Q 2819 -91 2034 -91 
Q 1250 -91 836 529 
Q 422 1150 422 2328 
Q 422 3509 836 4129 
Q 1250 4750 2034 4750 
z
" transform="scale(0.015625)"/>
       </defs>
       <use xlink:href="#DejaVuSans-30"/>
      </g>
     </g>
    </g>
    <g id="xtick_2">
     <g id="line2d_2">
      <g>
       <use xlink:href="#mab3b489fd4" x="133.685241" y="307.584" style="stroke: #000000; stroke-width: 0.8"/>
      </g>
     </g>
     <g id="text_2">
      <!-- 1000 -->
      <g transform="translate(120.960241 322.182437) scale(0.1 -0.1)">
       <defs>
        <path id="DejaVuSans-31" d="M 794 531 
L 1825 531 
L 1825 4091 
L 703 3866 
L 703 4441 
L 1819 4666 
L 2450 4666 
L 2450 531 
L 3481 531 
L 3481 0 
L 794 0 
L 794 531 
z
" transform="scale(0.015625)"/>
       </defs>
       <use xlink:href="#DejaVuSans-31"/>
       <use xlink:href="#DejaVuSans-30" x="63.623047"/>
       <use xlink:href="#DejaVuSans-30" x="127.246094"/>
       <use xlink:href="#DejaVuSans-30" x="190.869141"/>
      </g>
     </g>
    </g>
    <g id="xtick_3">
     <g id="line2d_3">
      <g>
       <use xlink:href="#mab3b489fd4" x="194.142326" y="307.584" style="stroke: #000000; stroke-width: 0.8"/>
      </g>
     </g>
     <g id="text_3">
      <!-- 2000 -->
      <g transform="translate(181.417326 322.182437) scale(0.1 -0.1)">
       <defs>
        <path id="DejaVuSans-32" d="M 1228 531 
L 3431 531 
L 3431 0 
L 469 0 
L 469 531 
Q 828 903 1448 1529 
Q 2069 2156 2228 2338 
Q 2531 2678 2651 2914 
Q 2772 3150 2772 3378 
Q 2772 3750 2511 3984 
Q 2250 4219 1831 4219 
Q 1534 4219 1204 4116 
Q 875 4013 500 3803 
L 500 4441 
Q 881 4594 1212 4672 
Q 1544 4750 1819 4750 
Q 2544 4750 2975 4387 
Q 3406 4025 3406 3419 
Q 3406 3131 3298 2873 
Q 3191 2616 2906 2266 
Q 2828 2175 2409 1742 
Q 1991 1309 1228 531 
z
" transform="scale(0.015625)"/>
       </defs>
       <use xlink:href="#DejaVuSans-32"/>
       <use xlink:href="#DejaVuSans-30" x="63.623047"/>
       <use xlink:href="#DejaVuSans-30" x="127.246094"/>
       <use xlink:href="#DejaVuSans-30" x="190.869141"/>
      </g>
     </g>
    </g>
    <g id="xtick_4">
     <g id="line2d_4">
      <g>
       <use xlink:href="#mab3b489fd4" x="254.599411" y="307.584" style="stroke: #000000; stroke-width: 0.8"/>
      </g>
     </g>
     <g id="text_4">
      <!-- 3000 -->
      <g transform="translate(241.874411 322.182437) scale(0.1 -0.1)">
       <defs>
        <path id="DejaVuSans-33" d="M 2597 2516 
Q 3050 2419 3304 2112 
Q 3559 1806 3559 1356 
Q 3559 666 3084 287 
Q 2609 -91 1734 -91 
Q 1441 -91 1130 -33 
Q 819 25 488 141 
L 488 750 
Q 750 597 1062 519 
Q 1375 441 1716 441 
Q 2309 441 2620 675 
Q 2931 909 2931 1356 
Q 2931 1769 2642 2001 
Q 2353 2234 1838 2234 
L 1294 2234 
L 1294 2753 
L 1863 2753 
Q 2328 2753 2575 2939 
Q 2822 3125 2822 3475 
Q 2822 3834 2567 4026 
Q 2313 4219 1838 4219 
Q 1578 4219 1281 4162 
Q 984 4106 628 3988 
L 628 4550 
Q 988 4650 1302 4700 
Q 1616 4750 1894 4750 
Q 2613 4750 3031 4423 
Q 3450 4097 3450 3541 
Q 3450 3153 3228 2886 
Q 3006 2619 2597 2516 
z
" transform="scale(0.015625)"/>
       </defs>
       <use xlink:href="#DejaVuSans-33"/>
       <use xlink:href="#DejaVuSans-30" x="63.623047"/>
       <use xlink:href="#DejaVuSans-30" x="127.246094"/>
       <use xlink:href="#DejaVuSans-30" x="190.869141"/>
      </g>
     </g>
    </g>
    <g id="xtick_5">
     <g id="line2d_5">
      <g>
       <use xlink:href="#mab3b489fd4" x="315.056496" y="307.584" style="stroke: #000000; stroke-width: 0.8"/>
      </g>
     </g>
     <g id="text_5">
      <!-- 4000 -->
      <g transform="translate(302.331496 322.182437) scale(0.1 -0.1)">
       <defs>
        <path id="DejaVuSans-34" d="M 2419 4116 
L 825 1625 
L 2419 1625 
L 2419 4116 
z
M 2253 4666 
L 3047 4666 
L 3047 1625 
L 3713 1625 
L 3713 1100 
L 3047 1100 
L 3047 0 
L 2419 0 
L 2419 1100 
L 313 1100 
L 313 1709 
L 2253 4666 
z
" transform="scale(0.015625)"/>
       </defs>
       <use xlink:href="#DejaVuSans-34"/>
       <use xlink:href="#DejaVuSans-30" x="63.623047"/>
       <use xlink:href="#DejaVuSans-30" x="127.246094"/>
       <use xlink:href="#DejaVuSans-30" x="190.869141"/>
      </g>
     </g>
    </g>
    <g id="xtick_6">
     <g id="line2d_6">
      <g>
       <use xlink:href="#mab3b489fd4" x="375.51358" y="307.584" style="stroke: #000000; stroke-width: 0.8"/>
      </g>
     </g>
     <g id="text_6">
      <!-- 5000 -->
      <g transform="translate(362.78858 322.182437) scale(0.1 -0.1)">
       <defs>
        <path id="DejaVuSans-35" d="M 691 4666 
L 3169 4666 
L 3169 4134 
L 1269 4134 
L 1269 2991 
Q 1406 3038 1543 3061 
Q 1681 3084 1819 3084 
Q 2600 3084 3056 2656 
Q 3513 2228 3513 1497 
Q 3513 744 3044 326 
Q 2575 -91 1722 -91 
Q 1428 -91 1123 -41 
Q 819 9 494 109 
L 494 744 
Q 775 591 1075 516 
Q 1375 441 1709 441 
Q 2250 441 2565 725 
Q 2881 1009 2881 1497 
Q 2881 1984 2565 2268 
Q 2250 2553 1709 2553 
Q 1456 2553 1204 2497 
Q 953 2441 691 2322 
L 691 4666 
z
" transform="scale(0.015625)"/>
       </defs>
       <use xlink:href="#DejaVuSans-35"/>
       <use xlink:href="#DejaVuSans-30" x="63.623047"/>
       <use xlink:href="#DejaVuSans-30" x="127.246094"/>
       <use xlink:href="#DejaVuSans-30" x="190.869141"/>
      </g>
     </g>
    </g>
    <g id="text_7">
     <!-- episodes -->
     <g transform="translate(214.000625 335.860562) scale(0.1 -0.1)">
      <defs>
       <path id="DejaVuSans-65" d="M 3597 1894 
L 3597 1613 
L 953 1613 
Q 991 1019 1311 708 
Q 1631 397 2203 397 
Q 2534 397 2845 478 
Q 3156 559 3463 722 
L 3463 178 
Q 3153 47 2828 -22 
Q 2503 -91 2169 -91 
Q 1331 -91 842 396 
Q 353 884 353 1716 
Q 353 2575 817 3079 
Q 1281 3584 2069 3584 
Q 2775 3584 3186 3129 
Q 3597 2675 3597 1894 
z
M 3022 2063 
Q 3016 2534 2758 2815 
Q 2500 3097 2075 3097 
Q 1594 3097 1305 2825 
Q 1016 2553 972 2059 
L 3022 2063 
z
" transform="scale(0.015625)"/>
       <path id="DejaVuSans-70" d="M 1159 525 
L 1159 -1331 
L 581 -1331 
L 581 3500 
L 1159 3500 
L 1159 2969 
Q 1341 3281 1617 3432 
Q 1894 3584 2278 3584 
Q 2916 3584 3314 3078 
Q 3713 2572 3713 1747 
Q 3713 922 3314 415 
Q 2916 -91 2278 -91 
Q 1894 -91 1617 61 
Q 1341 213 1159 525 
z
M 3116 1747 
Q 3116 2381 2855 2742 
Q 2594 3103 2138 3103 
Q 1681 3103 1420 2742 
Q 1159 2381 1159 1747 
Q 1159 1113 1420 752 
Q 1681 391 2138 391 
Q 2594 391 2855 752 
Q 3116 1113 3116 1747 
z
" transform="scale(0.015625)"/>
       <path id="DejaVuSans-69" d="M 603 3500 
L 1178 3500 
L 1178 0 
L 603 0 
L 603 3500 
z
M 603 4863 
L 1178 4863 
L 1178 4134 
L 603 4134 
L 603 4863 
z
" transform="scale(0.015625)"/>
       <path id="DejaVuSans-73" d="M 2834 3397 
L 2834 2853 
Q 2591 2978 2328 3040 
Q 2066 3103 1784 3103 
Q 1356 3103 1142 2972 
Q 928 2841 928 2578 
Q 928 2378 1081 2264 
Q 1234 2150 1697 2047 
L 1894 2003 
Q 2506 1872 2764 1633 
Q 3022 1394 3022 966 
Q 3022 478 2636 193 
Q 2250 -91 1575 -91 
Q 1294 -91 989 -36 
Q 684 19 347 128 
L 347 722 
Q 666 556 975 473 
Q 1284 391 1588 391 
Q 1994 391 2212 530 
Q 2431 669 2431 922 
Q 2431 1156 2273 1281 
Q 2116 1406 1581 1522 
L 1381 1569 
Q 847 1681 609 1914 
Q 372 2147 372 2553 
Q 372 3047 722 3315 
Q 1072 3584 1716 3584 
Q 2034 3584 2315 3537 
Q 2597 3491 2834 3397 
z
" transform="scale(0.015625)"/>
       <path id="DejaVuSans-6f" d="M 1959 3097 
Q 1497 3097 1228 2736 
Q 959 2375 959 1747 
Q 959 1119 1226 758 
Q 1494 397 1959 397 
Q 2419 397 2687 759 
Q 2956 1122 2956 1747 
Q 2956 2369 2687 2733 
Q 2419 3097 1959 3097 
z
M 1959 3584 
Q 2709 3584 3137 3096 
Q 3566 2609 3566 1747 
Q 3566 888 3137 398 
Q 2709 -91 1959 -91 
Q 1206 -91 779 398 
Q 353 888 353 1747 
Q 353 2609 779 3096 
Q 1206 3584 1959 3584 
z
" transform="scale(0.015625)"/>
       <path id="DejaVuSans-64" d="M 2906 2969 
L 2906 4863 
L 3481 4863 
L 3481 0 
L 2906 0 
L 2906 525 
Q 2725 213 2448 61 
Q 2172 -91 1784 -91 
Q 1150 -91 751 415 
Q 353 922 353 1747 
Q 353 2572 751 3078 
Q 1150 3584 1784 3584 
Q 2172 3584 2448 3432 
Q 2725 3281 2906 2969 
z
M 947 1747 
Q 947 1113 1208 752 
Q 1469 391 1925 391 
Q 2381 391 2643 752 
Q 2906 1113 2906 1747 
Q 2906 2381 2643 2742 
Q 2381 3103 1925 3103 
Q 1469 3103 1208 2742 
Q 947 2381 947 1747 
z
" transform="scale(0.015625)"/>
      </defs>
      <use xlink:href="#DejaVuSans-65"/>
      <use xlink:href="#DejaVuSans-70" x="61.523438"/>
      <use xlink:href="#DejaVuSans-69" x="125"/>
      <use xlink:href="#DejaVuSans-73" x="152.783203"/>
      <use xlink:href="#DejaVuSans-6f" x="204.882812"/>
      <use xlink:href="#DejaVuSans-64" x="266.064453"/>
      <use xlink:href="#DejaVuSans-65" x="329.541016"/>
      <use xlink:href="#DejaVuSans-73" x="391.064453"/>
     </g>
    </g>
   </g>
   <g id="matplotlib.axis_2">
    <g id="ytick_1">
     <g id="line2d_7">
      <defs>
       <path id="mdaefcad783" d="M 0 0 
L -3.5 0 
" style="stroke: #000000; stroke-width: 0.8"/>
      </defs>
      <g>
       <use xlink:href="#mdaefcad783" x="57.6" y="285.452428" style="stroke: #000000; stroke-width: 0.8"/>
      </g>
     </g>
     <g id="text_8">
      <!-- 20 -->
      <g transform="translate(37.875 289.251647) scale(0.1 -0.1)">
       <use xlink:href="#DejaVuSans-32"/>
       <use xlink:href="#DejaVuSans-30" x="63.623047"/>
      </g>
     </g>
    </g>
    <g id="ytick_2">
     <g id="line2d_8">
      <g>
       <use xlink:href="#mdaefcad783" x="57.6" y="243.637546" style="stroke: #000000; stroke-width: 0.8"/>
      </g>
     </g>
     <g id="text_9">
      <!-- 40 -->
      <g transform="translate(37.875 247.436765) scale(0.1 -0.1)">
       <use xlink:href="#DejaVuSans-34"/>
       <use xlink:href="#DejaVuSans-30" x="63.623047"/>
      </g>
     </g>
    </g>
    <g id="ytick_3">
     <g id="line2d_9">
      <g>
       <use xlink:href="#mdaefcad783" x="57.6" y="201.822664" style="stroke: #000000; stroke-width: 0.8"/>
      </g>
     </g>
     <g id="text_10">
      <!-- 60 -->
      <g transform="translate(37.875 205.621883) scale(0.1 -0.1)">
       <defs>
        <path id="DejaVuSans-36" d="M 2113 2584 
Q 1688 2584 1439 2293 
Q 1191 2003 1191 1497 
Q 1191 994 1439 701 
Q 1688 409 2113 409 
Q 2538 409 2786 701 
Q 3034 994 3034 1497 
Q 3034 2003 2786 2293 
Q 2538 2584 2113 2584 
z
M 3366 4563 
L 3366 3988 
Q 3128 4100 2886 4159 
Q 2644 4219 2406 4219 
Q 1781 4219 1451 3797 
Q 1122 3375 1075 2522 
Q 1259 2794 1537 2939 
Q 1816 3084 2150 3084 
Q 2853 3084 3261 2657 
Q 3669 2231 3669 1497 
Q 3669 778 3244 343 
Q 2819 -91 2113 -91 
Q 1303 -91 875 529 
Q 447 1150 447 2328 
Q 447 3434 972 4092 
Q 1497 4750 2381 4750 
Q 2619 4750 2861 4703 
Q 3103 4656 3366 4563 
z
" transform="scale(0.015625)"/>
       </defs>
       <use xlink:href="#DejaVuSans-36"/>
       <use xlink:href="#DejaVuSans-30" x="63.623047"/>
      </g>
     </g>
    </g>
    <g id="ytick_4">
     <g id="line2d_10">
      <g>
       <use xlink:href="#mdaefcad783" x="57.6" y="160.007782" style="stroke: #000000; stroke-width: 0.8"/>
      </g>
     </g>
     <g id="text_11">
      <!-- 80 -->
      <g transform="translate(37.875 163.807001) scale(0.1 -0.1)">
       <defs>
        <path id="DejaVuSans-38" d="M 2034 2216 
Q 1584 2216 1326 1975 
Q 1069 1734 1069 1313 
Q 1069 891 1326 650 
Q 1584 409 2034 409 
Q 2484 409 2743 651 
Q 3003 894 3003 1313 
Q 3003 1734 2745 1975 
Q 2488 2216 2034 2216 
z
M 1403 2484 
Q 997 2584 770 2862 
Q 544 3141 544 3541 
Q 544 4100 942 4425 
Q 1341 4750 2034 4750 
Q 2731 4750 3128 4425 
Q 3525 4100 3525 3541 
Q 3525 3141 3298 2862 
Q 3072 2584 2669 2484 
Q 3125 2378 3379 2068 
Q 3634 1759 3634 1313 
Q 3634 634 3220 271 
Q 2806 -91 2034 -91 
Q 1263 -91 848 271 
Q 434 634 434 1313 
Q 434 1759 690 2068 
Q 947 2378 1403 2484 
z
M 1172 3481 
Q 1172 3119 1398 2916 
Q 1625 2713 2034 2713 
Q 2441 2713 2670 2916 
Q 2900 3119 2900 3481 
Q 2900 3844 2670 4047 
Q 2441 4250 2034 4250 
Q 1625 4250 1398 4047 
Q 1172 3844 1172 3481 
z
" transform="scale(0.015625)"/>
       </defs>
       <use xlink:href="#DejaVuSans-38"/>
       <use xlink:href="#DejaVuSans-30" x="63.623047"/>
      </g>
     </g>
    </g>
    <g id="ytick_5">
     <g id="line2d_11">
      <g>
       <use xlink:href="#mdaefcad783" x="57.6" y="118.1929" style="stroke: #000000; stroke-width: 0.8"/>
      </g>
     </g>
     <g id="text_12">
      <!-- 100 -->
      <g transform="translate(31.5125 121.992119) scale(0.1 -0.1)">
       <use xlink:href="#DejaVuSans-31"/>
       <use xlink:href="#DejaVuSans-30" x="63.623047"/>
       <use xlink:href="#DejaVuSans-30" x="127.246094"/>
      </g>
     </g>
    </g>
    <g id="ytick_6">
     <g id="line2d_12">
      <g>
       <use xlink:href="#mdaefcad783" x="57.6" y="76.378018" style="stroke: #000000; stroke-width: 0.8"/>
      </g>
     </g>
     <g id="text_13">
      <!-- 120 -->
      <g transform="translate(31.5125 80.177237) scale(0.1 -0.1)">
       <use xlink:href="#DejaVuSans-31"/>
       <use xlink:href="#DejaVuSans-32" x="63.623047"/>
       <use xlink:href="#DejaVuSans-30" x="127.246094"/>
      </g>
     </g>
    </g>
    <g id="text_14">
     <!-- mean episode length -->
     <g transform="translate(25.432812 227.378) rotate(-90) scale(0.1 -0.1)">
      <defs>
       <path id="DejaVuSans-6d" d="M 3328 2828 
Q 3544 3216 3844 3400 
Q 4144 3584 4550 3584 
Q 5097 3584 5394 3201 
Q 5691 2819 5691 2113 
L 5691 0 
L 5113 0 
L 5113 2094 
Q 5113 2597 4934 2840 
Q 4756 3084 4391 3084 
Q 3944 3084 3684 2787 
Q 3425 2491 3425 1978 
L 3425 0 
L 2847 0 
L 2847 2094 
Q 2847 2600 2669 2842 
Q 2491 3084 2119 3084 
Q 1678 3084 1418 2786 
Q 1159 2488 1159 1978 
L 1159 0 
L 581 0 
L 581 3500 
L 1159 3500 
L 1159 2956 
Q 1356 3278 1631 3431 
Q 1906 3584 2284 3584 
Q 2666 3584 2933 3390 
Q 3200 3197 3328 2828 
z
" transform="scale(0.015625)"/>
       <path id="DejaVuSans-61" d="M 2194 1759 
Q 1497 1759 1228 1600 
Q 959 1441 959 1056 
Q 959 750 1161 570 
Q 1363 391 1709 391 
Q 2188 391 2477 730 
Q 2766 1069 2766 1631 
L 2766 1759 
L 2194 1759 
z
M 3341 1997 
L 3341 0 
L 2766 0 
L 2766 531 
Q 2569 213 2275 61 
Q 1981 -91 1556 -91 
Q 1019 -91 701 211 
Q 384 513 384 1019 
Q 384 1609 779 1909 
Q 1175 2209 1959 2209 
L 2766 2209 
L 2766 2266 
Q 2766 2663 2505 2880 
Q 2244 3097 1772 3097 
Q 1472 3097 1187 3025 
Q 903 2953 641 2809 
L 641 3341 
Q 956 3463 1253 3523 
Q 1550 3584 1831 3584 
Q 2591 3584 2966 3190 
Q 3341 2797 3341 1997 
z
" transform="scale(0.015625)"/>
       <path id="DejaVuSans-6e" d="M 3513 2113 
L 3513 0 
L 2938 0 
L 2938 2094 
Q 2938 2591 2744 2837 
Q 2550 3084 2163 3084 
Q 1697 3084 1428 2787 
Q 1159 2491 1159 1978 
L 1159 0 
L 581 0 
L 581 3500 
L 1159 3500 
L 1159 2956 
Q 1366 3272 1645 3428 
Q 1925 3584 2291 3584 
Q 2894 3584 3203 3211 
Q 3513 2838 3513 2113 
z
" transform="scale(0.015625)"/>
       <path id="DejaVuSans-20" transform="scale(0.015625)"/>
       <path id="DejaVuSans-6c" d="M 603 4863 
L 1178 4863 
L 1178 0 
L 603 0 
L 603 4863 
z
" transform="scale(0.015625)"/>
       <path id="DejaVuSans-67" d="M 2906 1791 
Q 2906 2416 2648 2759 
Q 2391 3103 1925 3103 
Q 1463 3103 1205 2759 
Q 947 2416 947 1791 
Q 947 1169 1205 825 
Q 1463 481 1925 481 
Q 2391 481 2648 825 
Q 2906 1169 2906 1791 
z
M 3481 434 
Q 3481 -459 3084 -895 
Q 2688 -1331 1869 -1331 
Q 1566 -1331 1297 -1286 
Q 1028 -1241 775 -1147 
L 775 -588 
Q 1028 -725 1275 -790 
Q 1522 -856 1778 -856 
Q 2344 -856 2625 -561 
Q 2906 -266 2906 331 
L 2906 616 
Q 2728 306 2450 153 
Q 2172 0 1784 0 
Q 1141 0 747 490 
Q 353 981 353 1791 
Q 353 2603 747 3093 
Q 1141 3584 1784 3584 
Q 2172 3584 2450 3431 
Q 2728 3278 2906 2969 
L 2906 3500 
L 3481 3500 
L 3481 434 
z
" transform="scale(0.015625)"/>
       <path id="DejaVuSans-74" d="M 1172 4494 
L 1172 3500 
L 2356 3500 
L 2356 3053 
L 1172 3053 
L 1172 1153 
Q 1172 725 1289 603 
Q 1406 481 1766 481 
L 2356 481 
L 2356 0 
L 1766 0 
Q 1100 0 847 248 
Q 594 497 594 1153 
L 594 3053 
L 172 3053 
L 172 3500 
L 594 3500 
L 594 4494 
L 1172 4494 
z
" transform="scale(0.015625)"/>
       <path id="DejaVuSans-68" d="M 3513 2113 
L 3513 0 
L 2938 0 
L 2938 2094 
Q 2938 2591 2744 2837 
Q 2550 3084 2163 3084 
Q 1697 3084 1428 2787 
Q 1159 2491 1159 1978 
L 1159 0 
L 581 0 
L 581 4863 
L 1159 4863 
L 1159 2956 
Q 1366 3272 1645 3428 
Q 1925 3584 2291 3584 
Q 2894 3584 3203 3211 
Q 3513 2838 3513 2113 
z
" transform="scale(0.015625)"/>
      </defs>
      <use xlink:href="#DejaVuSans-6d"/>
      <use xlink:href="#DejaVuSans-65" x="97.412109"/>
      <use xlink:href="#DejaVuSans-61" x="158.935547"/>
      <use xlink:href="#DejaVuSans-6e" x="220.214844"/>
      <use xlink:href="#DejaVuSans-20" x="283.59375"/>
      <use xlink:href="#DejaVuSans-65" x="315.380859"/>
      <use xlink:href="#DejaVuSans-70" x="376.904297"/>
      <use xlink:href="#DejaVuSans-69" x="440.380859"/>
      <use xlink:href="#DejaVuSans-73" x="468.164062"/>
      <use xlink:href="#DejaVuSans-6f" x="520.263672"/>
      <use xlink:href="#DejaVuSans-64" x="581.445312"/>
      <use xlink:href="#DejaVuSans-65" x="644.921875"/>
      <use xlink:href="#DejaVuSans-20" x="706.445312"/>
      <use xlink:href="#DejaVuSans-6c" x="738.232422"/>
      <use xlink:href="#DejaVuSans-65" x="766.015625"/>
      <use xlink:href="#DejaVuSans-6e" x="827.539062"/>
      <use xlink:href="#DejaVuSans-67" x="890.917969"/>
      <use xlink:href="#DejaVuSans-74" x="954.394531"/>
      <use xlink:href="#DejaVuSans-68" x="993.603516"/>
     </g>
    </g>
   </g>
   <g id="line2d_13">
    <path d="M 73.832727 295.488 
L 74.437298 291.724661 
L 75.041869 291.376203 
L 75.64644 291.306512 
L 76.251011 291.933735 
L 76.855582 291.445895 
L 78.064723 288.369145 
L 78.669294 287.84185 
L 79.273865 288.400377 
L 79.878436 287.355005 
L 80.483007 286.790505 
L 81.087577 286.414171 
L 81.692148 286.435078 
L 82.90129 282.755368 
L 83.505861 281.500922 
L 84.110432 282.274497 
L 84.715003 282.483572 
L 85.319573 280.769162 
L 85.924144 281.082773 
L 86.528715 278.992029 
L 87.133286 277.423971 
L 87.737857 275.333227 
L 88.342428 276.817655 
L 88.946998 277.549416 
L 89.551569 276.566766 
L 90.15614 278.699325 
L 90.760711 277.821212 
L 91.365282 278.218454 
L 91.969853 276.04408 
L 92.574424 276.504044 
L 93.178994 277.173082 
L 93.783565 277.59123 
L 94.388136 278.260269 
L 94.992707 277.84212 
L 95.597278 278.615695 
L 96.201849 277.59123 
L 96.80642 278.57388 
L 97.41099 280.183753 
L 98.015561 280.162846 
L 99.224703 282.650831 
L 99.829274 282.420849 
L 100.433845 280.915514 
L 101.038415 281.877256 
L 101.642986 281.4382 
L 102.247557 281.689089 
L 103.456699 281.208218 
L 104.06127 284.13526 
L 104.665841 284.281612 
L 105.270411 281.730904 
L 106.479553 281.103681 
L 107.084124 280.434642 
L 107.688695 278.74114 
L 108.293266 278.427528 
L 108.897836 272.991593 
L 109.502407 270.378163 
L 110.106978 265.611267 
L 110.711549 264.482265 
L 111.31612 265.883064 
L 111.920691 265.590359 
L 112.525262 265.172211 
L 113.129832 263.687782 
L 113.734403 265.130396 
L 114.338974 265.360377 
L 114.943545 269.604588 
L 115.548116 270.73359 
L 116.152687 271.026294 
L 116.757257 270.963572 
L 117.361828 269.83457 
L 117.966399 265.924878 
L 118.57097 263.165096 
L 120.384683 246.669125 
L 120.989253 241.48408 
L 121.593824 237.80437 
L 122.198395 232.472973 
L 124.012108 204.561539 
L 124.616679 201.44633 
L 125.221249 202.282628 
L 126.430391 193.794207 
L 127.034962 190.198127 
L 127.639533 183.424116 
L 128.244104 178.887201 
L 128.848674 177.779107 
L 130.057816 176.60829 
L 131.266958 165.945495 
L 131.871529 163.833844 
L 132.4761 162.64212 
L 133.685241 173.597619 
L 134.289812 172.698599 
L 134.894383 172.44771 
L 135.498954 172.426802 
L 136.103525 175.7929 
L 136.708095 183.570468 
L 137.312666 185.368508 
L 137.917237 185.473045 
L 138.521808 184.971267 
L 139.126379 176.712828 
L 139.73095 170.545132 
L 140.335521 171.506875 
L 140.940091 170.356966 
L 141.544662 169.813372 
L 142.149233 166.489089 
L 142.753804 159.087855 
L 143.358375 156.767129 
L 143.962946 156.286258 
L 144.567517 155.575405 
L 145.172087 155.408145 
L 145.776658 153.526475 
L 146.381229 152.460196 
L 146.9858 153.045604 
L 147.590371 153.275586 
L 148.194942 154.739107 
L 148.799512 154.843644 
L 149.404083 155.44996 
L 150.008654 155.53359 
L 150.613225 159.066947 
L 151.217796 159.255114 
L 151.822367 160.02869 
L 152.426938 161.701285 
L 153.031508 161.722192 
L 153.636079 161.868544 
L 154.24065 160.133227 
L 154.845221 160.551376 
L 155.449792 161.387673 
L 156.054363 160.781358 
L 156.658933 155.61722 
L 157.263504 155.638127 
L 157.868075 156.307165 
L 159.077217 153.672828 
L 159.681788 157.937946 
L 160.286359 158.377002 
L 160.890929 159.12967 
L 161.4955 157.394352 
L 162.100071 157.770686 
L 162.704642 160.070505 
L 163.309213 160.697728 
L 163.913784 165.820051 
L 164.518354 163.562047 
L 165.122925 163.436603 
L 165.727496 156.474425 
L 166.332067 155.554497 
L 166.936638 151.017583 
L 167.541209 148.696857 
L 168.14578 150.390359 
L 168.75035 148.655042 
L 169.354921 147.756022 
L 169.959492 139.623027 
L 170.564063 140.710214 
L 171.168634 143.156385 
L 171.773205 143.469996 
L 172.377776 141.295623 
L 172.982346 143.323644 
L 173.586917 144.787165 
L 174.191488 149.470432 
L 174.796059 146.773372 
L 175.40063 142.090105 
L 176.005201 140.33388 
L 177.818913 127.01584 
L 178.423484 126.534969 
L 179.028055 123.252501 
L 179.632626 118.924661 
L 180.237197 109.934461 
L 180.841767 107.070142 
L 181.446338 107.174679 
L 182.050909 105.522991 
L 182.65548 105.920232 
L 183.260051 104.352174 
L 183.864622 111.105278 
L 184.469192 111.126185 
L 185.073763 110.854388 
L 185.678334 116.980269 
L 186.282905 114.826802 
L 186.887476 119.572791 
L 187.492047 120.283644 
L 188.096618 119.698236 
L 188.701188 116.687564 
L 189.305759 114.345931 
L 189.91033 108.680015 
L 190.514901 105.962047 
L 191.119472 104.87486 
L 191.724043 100.337946 
L 192.328614 105.439361 
L 192.933184 105.711158 
L 194.746897 97.473626 
L 195.956039 102.198708 
L 196.560609 101.320595 
L 197.16518 100.944261 
L 197.769751 93.835731 
L 198.374322 83.570178 
L 198.978893 76.106221 
L 199.583464 75.70898 
L 200.188035 75.562628 
L 200.792605 78.845096 
L 201.397176 79.785931 
L 202.001747 80.12045 
L 202.606318 80.245895 
L 203.210889 77.695187 
L 204.42003 85.033699 
L 205.024601 88.817946 
L 205.629172 88.692501 
L 206.233743 101.174243 
L 206.838314 96.741866 
L 207.442885 93.396675 
L 208.047456 89.236094 
L 208.652026 88.94339 
L 209.256597 88.023463 
L 209.861168 90.762338 
L 210.465739 90.887782 
L 211.07031 93.563935 
L 211.674881 94.25388 
L 212.279451 84.364661 
L 212.884022 88.399797 
L 213.488593 89.445169 
L 214.093164 98.978962 
L 214.697735 115.49584 
L 215.302306 119.405532 
L 215.906877 112.673336 
L 216.511447 110.248073 
L 217.116018 100.756094 
L 217.720589 94.922918 
L 218.32516 98.414461 
L 218.929731 106.484733 
L 219.534302 112.255187 
L 220.138873 110.18535 
L 220.743443 91.515005 
L 221.348014 83.402918 
L 221.952585 85.744552 
L 222.557156 87.14535 
L 223.161727 89.675151 
L 223.766298 91.075949 
L 224.370868 93.60575 
L 224.975439 91.243209 
L 226.184581 82.232102 
L 226.789152 82.023027 
L 227.393723 80.789488 
L 228.602864 70.523935 
L 229.207435 73.367347 
L 229.812006 74.287274 
L 230.416577 61.345568 
L 231.021148 59.192102 
L 231.625719 58.648508 
L 232.230289 53.568 
L 233.439431 70.816639 
L 234.044002 75.374461 
L 235.253144 88.169815 
L 235.857715 93.43849 
L 236.462285 95.529234 
L 237.671427 88.420704 
L 238.275998 87.877111 
L 238.880569 79.932283 
L 240.089711 85.263681 
L 240.694281 82.65025 
L 241.298852 79.158708 
L 241.903423 76.837982 
L 242.507994 77.486113 
L 243.112565 78.573299 
L 243.717136 74.956312 
L 244.321706 76.545278 
L 244.926277 77.799724 
L 245.530848 75.688073 
L 246.135419 75.562628 
L 246.73999 80.538599 
L 247.344561 80.03682 
L 247.949132 77.005241 
L 248.553702 74.72633 
L 249.158273 75.207201 
L 249.762844 80.099543 
L 250.367415 77.799724 
L 251.576557 69.771267 
L 252.181127 70.753917 
L 253.390269 64.878926 
L 253.99484 71.046621 
L 254.599411 75.667165 
L 255.203982 78.385132 
L 255.808553 83.256566 
L 257.017694 111.293445 
L 257.622265 111.126185 
L 258.226836 109.516312 
L 258.831407 111.962483 
L 259.435978 108.575477 
L 260.040549 107.73918 
L 260.645119 109.913554 
L 261.24969 113.676893 
L 261.854261 114.617728 
L 262.458832 100.066149 
L 263.063403 92.957619 
L 263.667974 100.128871 
L 264.272544 104.352174 
L 264.877115 105.836603 
L 265.481686 104.95849 
L 266.086257 96.470069 
L 266.690828 95.696494 
L 267.295399 90.866875 
L 267.89997 95.278345 
L 269.713682 119.949125 
L 270.318253 113.676893 
L 270.922824 120.597256 
L 272.736536 166.196385 
L 273.341107 165.736421 
L 273.945678 150.515804 
L 274.550249 142.487347 
L 275.15482 126.848581 
L 275.759391 118.694679 
L 276.363961 124.757837 
L 276.968532 119.447347 
L 277.573103 115.851267 
L 278.177674 93.292138 
L 278.782245 80.099543 
L 279.386816 78.991448 
L 279.991386 81.91849 
L 280.595957 92.079506 
L 281.200528 99.898889 
L 281.805099 100.045241 
L 282.40967 95.299252 
L 283.014241 102.637764 
L 283.618812 98.01722 
L 284.223382 104.122192 
L 284.827953 107.718272 
L 285.432524 106.192029 
L 286.037095 106.58927 
L 286.641666 96.574606 
L 287.246237 99.250759 
L 289.059949 119.426439 
L 289.66452 116.980269 
L 290.269091 110.624407 
L 290.873662 105.543898 
L 291.478233 105.585713 
L 292.082803 104.644878 
L 292.687374 109.45359 
L 293.291945 106.693808 
L 293.896516 95.926475 
L 294.501087 90.804152 
L 295.105658 75.437183 
L 295.710229 75.123572 
L 296.314799 77.925169 
L 296.91937 79.179615 
L 297.523941 79.995005 
L 298.128512 87.835296 
L 299.337654 80.747673 
L 299.942224 85.075514 
L 300.546795 85.410033 
L 301.151366 87.647129 
L 301.755937 84.490105 
L 302.360508 96.658236 
L 302.965079 96.930033 
L 303.56965 99.836167 
L 304.17422 94.33751 
L 304.778791 92.393118 
L 305.383362 94.546584 
L 305.987933 92.414025 
L 306.592504 83.925604 
L 307.197075 80.810396 
L 307.801646 78.698744 
L 308.406216 69.562192 
L 309.615358 61.303753 
L 310.219929 72.92829 
L 310.8245 72.301067 
L 311.429071 70.23123 
L 312.033641 66.237909 
L 312.638212 68.098672 
L 313.242783 66.71878 
L 313.847354 68.60045 
L 314.451925 69.436748 
L 315.056496 76.064407 
L 315.661067 74.684515 
L 316.265637 60.885604 
L 316.870208 60.321103 
L 317.474779 61.011049 
L 318.07935 63.582664 
L 319.288492 69.311303 
L 319.893062 68.934969 
L 320.497633 67.032392 
L 321.102204 61.512828 
L 321.706775 60.300196 
L 322.311346 66.028835 
L 323.520488 69.081321 
L 324.125058 69.813082 
L 324.729629 67.116022 
L 325.3342 65.276167 
L 325.938771 67.366911 
L 326.543342 68.035949 
L 327.147913 70.335768 
L 328.357054 68.725895 
L 328.961625 68.558635 
L 329.566196 67.994134 
L 330.775338 63.352682 
L 331.379909 65.25526 
L 331.984479 63.018163 
L 332.58905 66.007927 
L 333.193621 63.227238 
L 333.798192 69.332211 
L 334.402763 67.074207 
L 335.007334 69.436748 
L 335.611905 74.538163 
L 336.216475 90.678708 
L 336.821046 100.442483 
L 337.425617 105.251194 
L 338.030188 106.610178 
L 338.634759 104.435804 
L 339.23933 109.704479 
L 339.8439 116.102156 
L 340.448471 124.862374 
L 341.053042 130.340123 
L 341.657613 128.855695 
L 342.262184 119.00829 
L 342.866755 106.087492 
L 343.471326 105.606621 
L 344.075896 110.038998 
L 344.680467 107.969162 
L 345.285038 109.704479 
L 345.889609 113.718708 
L 347.098751 127.663971 
L 347.703321 122.60437 
L 348.307892 118.548327 
L 348.912463 136.298744 
L 349.517034 145.414388 
L 350.121605 145.330759 
L 350.726176 147.735114 
L 351.330747 147.254243 
L 351.935317 137.302301 
L 352.539888 131.699107 
L 353.144459 122.228036 
L 353.74903 119.489162 
L 354.353601 125.970468 
L 354.958172 124.088799 
L 355.562743 120.910868 
L 356.167313 128.291194 
L 356.771884 138.995804 
L 357.376455 137.239579 
L 357.981026 132.765387 
L 358.585597 131.218236 
L 359.190168 127.204007 
L 359.794738 130.77918 
L 360.399309 124.757837 
L 361.00388 109.474497 
L 362.817593 78.280595 
L 363.422164 82.963862 
L 364.026734 103.787673 
L 364.631305 98.477183 
L 365.235876 96.407347 
L 365.840447 97.285459 
L 366.445018 114.115949 
L 367.049589 110.18535 
L 367.654159 115.830359 
L 368.25873 132.765387 
L 368.863301 135.002483 
L 369.467872 127.036748 
L 370.072443 107.801902 
L 370.677014 111.33526 
L 371.281585 123.252501 
L 371.886155 122.980704 
L 372.490726 106.045677 
L 373.095297 114.053227 
L 373.699868 115.830359 
L 374.304439 102.198708 
L 374.90901 96.031013 
L 375.51358 95.717401 
L 376.118151 104.853953 
L 376.722722 103.641321 
L 377.327293 93.459397 
L 377.931864 94.630214 
L 378.536435 99.104407 
L 379.141006 94.42114 
L 379.745576 95.989198 
L 380.350147 96.553699 
L 380.954718 101.717837 
L 381.559289 102.721394 
L 382.16386 94.42114 
L 382.768431 83.611993 
L 383.373002 82.357546 
L 383.977572 84.908254 
L 384.582143 83.653808 
L 385.186714 89.716966 
L 385.791285 85.932719 
L 386.395856 87.584407 
L 387.000427 82.127564 
L 387.604997 90.344189 
L 388.814139 101.320595 
L 389.41871 109.202701 
L 390.023281 109.599942 
L 390.627852 113.467819 
L 391.232423 110.080813 
L 391.836993 114.826802 
L 392.441564 117.084806 
L 393.046135 118.715586 
L 393.650706 118.067456 
L 394.255277 120.116385 
L 394.859848 122.813445 
L 395.464418 119.593699 
L 396.068989 119.551884 
L 396.67356 119.844588 
L 397.278131 122.646185 
L 397.882702 118.652864 
L 398.487273 117.419325 
L 398.487273 117.419325 
" clip-path="url(#pbc7a10fb10)" style="fill: none; stroke: #1f77b4; stroke-width: 1.5; stroke-linecap: square"/>
   </g>
   <g id="patch_3">
    <path d="M 57.6 307.584 
L 57.6 41.472 
" style="fill: none; stroke: #000000; stroke-width: 0.8; stroke-linejoin: miter; stroke-linecap: square"/>
   </g>
   <g id="patch_4">
    <path d="M 414.72 307.584 
L 414.72 41.472 
" style="fill: none; stroke: #000000; stroke-width: 0.8; stroke-linejoin: miter; stroke-linecap: square"/>
   </g>
   <g id="patch_5">
    <path d="M 57.6 307.584 
L 414.72 307.584 
" style="fill: none; stroke: #000000; stroke-width: 0.8; stroke-linejoin: miter; stroke-linecap: square"/>
   </g>
   <g id="patch_6">
    <path d="M 57.6 41.472 
L 414.72 41.472 
" style="fill: none; stroke: #000000; stroke-width: 0.8; stroke-linejoin: miter; stroke-linecap: square"/>
   </g>
   <g id="text_15">
    <!-- episodes length -->
    <g transform="translate(188.536875 35.472) scale(0.12 -0.12)">
     <use xlink:href="#DejaVuSans-65"/>
     <use xlink:href="#DejaVuSans-70" x="61.523438"/>
     <use xlink:href="#DejaVuSans-69" x="125"/>
     <use xlink:href="#DejaVuSans-73" x="152.783203"/>
     <use xlink:href="#DejaVuSans-6f" x="204.882812"/>
     <use xlink:href="#DejaVuSans-64" x="266.064453"/>
     <use xlink:href="#DejaVuSans-65" x="329.541016"/>
     <use xlink:href="#DejaVuSans-73" x="391.064453"/>
     <use xlink:href="#DejaVuSans-20" x="443.164062"/>
     <use xlink:href="#DejaVuSans-6c" x="474.951172"/>
     <use xlink:href="#DejaVuSans-65" x="502.734375"/>
     <use xlink:href="#DejaVuSans-6e" x="564.257812"/>
     <use xlink:href="#DejaVuSans-67" x="627.636719"/>
     <use xlink:href="#DejaVuSans-74" x="691.113281"/>
     <use xlink:href="#DejaVuSans-68" x="730.322266"/>
    </g>
   </g>
  </g>
 </g>
 <defs>
  <clipPath id="pbc7a10fb10">
   <rect x="57.6" y="41.472" width="357.12" height="266.112"/>
  </clipPath>
 </defs>
</svg>
