<?xml version="1.0" encoding="utf-8" standalone="no"?>
<!DOCTYPE svg PUBLIC "-//W3C//DTD SVG 1.1//EN"
  "http://www.w3.org/Graphics/SVG/1.1/DTD/svg11.dtd">
<svg xmlns:xlink="http://www.w3.org/1999/xlink" width="460.8pt" height="345.6pt" viewBox="0 0 460.8 345.6" xmlns="http://www.w3.org/2000/svg" version="1.1">
 <metadata>
  <rdf:RDF xmlns:dc="http://purl.org/dc/elements/1.1/" xmlns:cc="http://creativecommons.org/ns#" xmlns:rdf="http://www.w3.org/1999/02/22-rdf-syntax-ns#">
   <cc:Work>
    <dc:type rdf:resource="http://purl.org/dc/dcmitype/StillImage"/>
    <dc:date>2023-08-19T14:13:43.597464</dc:date>
    <dc:format>image/svg+xml</dc:format>
    <dc:creator>
     <cc:Agent>
      <dc:title>Matplotlib v3.7.1, https://matplotlib.org/</dc:title>
     </cc:Agent>
    </dc:creator>
   </cc:Work>
  </rdf:RDF>
 </metadata>
 <defs>
  <style type="text/css">*{stroke-linejoin: round; stroke-linecap: butt}</style>
 </defs>
 <g id="figure_1">
  <g id="patch_1">
   <path d="M 0 345.6 
L 460.8 345.6 
L 460.8 0 
L 0 0 
z
" style="fill: #ffffff"/>
  </g>
  <g id="axes_1">
   <g id="patch_2">
    <path d="M 57.6 307.584 
L 414.72 307.584 
L 414.72 41.472 
L 57.6 41.472 
z
" style="fill: #ffffff"/>
   </g>
   <g id="matplotlib.axis_1">
    <g id="xtick_1">
     <g id="line2d_1">
      <defs>
       <path id="m1380690cc2" d="M 0 0 
L 0 3.5 
" style="stroke: #000000; stroke-width: 0.8"/>
      </defs>
      <g>
       <use xlink:href="#m1380690cc2" x="67.050565" y="307.584" style="stroke: #000000; stroke-width: 0.8"/>
      </g>
     </g>
     <g id="text_1">
      <!-- 0 -->
      <g transform="translate(63.869315 322.182437) scale(0.1 -0.1)">
       <defs>
        <path id="DejaVuSans-30" d="M 2034 4250 
Q 1547 4250 1301 3770 
Q 1056 3291 1056 2328 
Q 1056 1369 1301 889 
Q 1547 409 2034 409 
Q 2525 409 2770 889 
Q 3016 1369 3016 2328 
Q 3016 3291 2770 3770 
Q 2525 4250 2034 4250 
z
M 2034 4750 
Q 2819 4750 3233 4129 
Q 3647 3509 3647 2328 
Q 3647 1150 3233 529 
Q 2819 -91 2034 -91 
Q 1250 -91 836 529 
Q 422 1150 422 2328 
Q 422 3509 836 4129 
Q 1250 4750 2034 4750 
z
" transform="scale(0.015625)"/>
       </defs>
       <use xlink:href="#DejaVuSans-30"/>
      </g>
     </g>
    </g>
    <g id="xtick_2">
     <g id="line2d_2">
      <g>
       <use xlink:href="#m1380690cc2" x="133.412232" y="307.584" style="stroke: #000000; stroke-width: 0.8"/>
      </g>
     </g>
     <g id="text_2">
      <!-- 100000 -->
      <g transform="translate(114.324732 322.182437) scale(0.1 -0.1)">
       <defs>
        <path id="DejaVuSans-31" d="M 794 531 
L 1825 531 
L 1825 4091 
L 703 3866 
L 703 4441 
L 1819 4666 
L 2450 4666 
L 2450 531 
L 3481 531 
L 3481 0 
L 794 0 
L 794 531 
z
" transform="scale(0.015625)"/>
       </defs>
       <use xlink:href="#DejaVuSans-31"/>
       <use xlink:href="#DejaVuSans-30" x="63.623047"/>
       <use xlink:href="#DejaVuSans-30" x="127.246094"/>
       <use xlink:href="#DejaVuSans-30" x="190.869141"/>
       <use xlink:href="#DejaVuSans-30" x="254.492188"/>
       <use xlink:href="#DejaVuSans-30" x="318.115234"/>
      </g>
     </g>
    </g>
    <g id="xtick_3">
     <g id="line2d_3">
      <g>
       <use xlink:href="#m1380690cc2" x="199.773898" y="307.584" style="stroke: #000000; stroke-width: 0.8"/>
      </g>
     </g>
     <g id="text_3">
      <!-- 200000 -->
      <g transform="translate(180.686398 322.182437) scale(0.1 -0.1)">
       <defs>
        <path id="DejaVuSans-32" d="M 1228 531 
L 3431 531 
L 3431 0 
L 469 0 
L 469 531 
Q 828 903 1448 1529 
Q 2069 2156 2228 2338 
Q 2531 2678 2651 2914 
Q 2772 3150 2772 3378 
Q 2772 3750 2511 3984 
Q 2250 4219 1831 4219 
Q 1534 4219 1204 4116 
Q 875 4013 500 3803 
L 500 4441 
Q 881 4594 1212 4672 
Q 1544 4750 1819 4750 
Q 2544 4750 2975 4387 
Q 3406 4025 3406 3419 
Q 3406 3131 3298 2873 
Q 3191 2616 2906 2266 
Q 2828 2175 2409 1742 
Q 1991 1309 1228 531 
z
" transform="scale(0.015625)"/>
       </defs>
       <use xlink:href="#DejaVuSans-32"/>
       <use xlink:href="#DejaVuSans-30" x="63.623047"/>
       <use xlink:href="#DejaVuSans-30" x="127.246094"/>
       <use xlink:href="#DejaVuSans-30" x="190.869141"/>
       <use xlink:href="#DejaVuSans-30" x="254.492188"/>
       <use xlink:href="#DejaVuSans-30" x="318.115234"/>
      </g>
     </g>
    </g>
    <g id="xtick_4">
     <g id="line2d_4">
      <g>
       <use xlink:href="#m1380690cc2" x="266.135565" y="307.584" style="stroke: #000000; stroke-width: 0.8"/>
      </g>
     </g>
     <g id="text_4">
      <!-- 300000 -->
      <g transform="translate(247.048065 322.182437) scale(0.1 -0.1)">
       <defs>
        <path id="DejaVuSans-33" d="M 2597 2516 
Q 3050 2419 3304 2112 
Q 3559 1806 3559 1356 
Q 3559 666 3084 287 
Q 2609 -91 1734 -91 
Q 1441 -91 1130 -33 
Q 819 25 488 141 
L 488 750 
Q 750 597 1062 519 
Q 1375 441 1716 441 
Q 2309 441 2620 675 
Q 2931 909 2931 1356 
Q 2931 1769 2642 2001 
Q 2353 2234 1838 2234 
L 1294 2234 
L 1294 2753 
L 1863 2753 
Q 2328 2753 2575 2939 
Q 2822 3125 2822 3475 
Q 2822 3834 2567 4026 
Q 2313 4219 1838 4219 
Q 1578 4219 1281 4162 
Q 984 4106 628 3988 
L 628 4550 
Q 988 4650 1302 4700 
Q 1616 4750 1894 4750 
Q 2613 4750 3031 4423 
Q 3450 4097 3450 3541 
Q 3450 3153 3228 2886 
Q 3006 2619 2597 2516 
z
" transform="scale(0.015625)"/>
       </defs>
       <use xlink:href="#DejaVuSans-33"/>
       <use xlink:href="#DejaVuSans-30" x="63.623047"/>
       <use xlink:href="#DejaVuSans-30" x="127.246094"/>
       <use xlink:href="#DejaVuSans-30" x="190.869141"/>
       <use xlink:href="#DejaVuSans-30" x="254.492188"/>
       <use xlink:href="#DejaVuSans-30" x="318.115234"/>
      </g>
     </g>
    </g>
    <g id="xtick_5">
     <g id="line2d_5">
      <g>
       <use xlink:href="#m1380690cc2" x="332.497231" y="307.584" style="stroke: #000000; stroke-width: 0.8"/>
      </g>
     </g>
     <g id="text_5">
      <!-- 400000 -->
      <g transform="translate(313.409731 322.182437) scale(0.1 -0.1)">
       <defs>
        <path id="DejaVuSans-34" d="M 2419 4116 
L 825 1625 
L 2419 1625 
L 2419 4116 
z
M 2253 4666 
L 3047 4666 
L 3047 1625 
L 3713 1625 
L 3713 1100 
L 3047 1100 
L 3047 0 
L 2419 0 
L 2419 1100 
L 313 1100 
L 313 1709 
L 2253 4666 
z
" transform="scale(0.015625)"/>
       </defs>
       <use xlink:href="#DejaVuSans-34"/>
       <use xlink:href="#DejaVuSans-30" x="63.623047"/>
       <use xlink:href="#DejaVuSans-30" x="127.246094"/>
       <use xlink:href="#DejaVuSans-30" x="190.869141"/>
       <use xlink:href="#DejaVuSans-30" x="254.492188"/>
       <use xlink:href="#DejaVuSans-30" x="318.115234"/>
      </g>
     </g>
    </g>
    <g id="xtick_6">
     <g id="line2d_6">
      <g>
       <use xlink:href="#m1380690cc2" x="398.858898" y="307.584" style="stroke: #000000; stroke-width: 0.8"/>
      </g>
     </g>
     <g id="text_6">
      <!-- 500000 -->
      <g transform="translate(379.771398 322.182437) scale(0.1 -0.1)">
       <defs>
        <path id="DejaVuSans-35" d="M 691 4666 
L 3169 4666 
L 3169 4134 
L 1269 4134 
L 1269 2991 
Q 1406 3038 1543 3061 
Q 1681 3084 1819 3084 
Q 2600 3084 3056 2656 
Q 3513 2228 3513 1497 
Q 3513 744 3044 326 
Q 2575 -91 1722 -91 
Q 1428 -91 1123 -41 
Q 819 9 494 109 
L 494 744 
Q 775 591 1075 516 
Q 1375 441 1709 441 
Q 2250 441 2565 725 
Q 2881 1009 2881 1497 
Q 2881 1984 2565 2268 
Q 2250 2553 1709 2553 
Q 1456 2553 1204 2497 
Q 953 2441 691 2322 
L 691 4666 
z
" transform="scale(0.015625)"/>
       </defs>
       <use xlink:href="#DejaVuSans-35"/>
       <use xlink:href="#DejaVuSans-30" x="63.623047"/>
       <use xlink:href="#DejaVuSans-30" x="127.246094"/>
       <use xlink:href="#DejaVuSans-30" x="190.869141"/>
       <use xlink:href="#DejaVuSans-30" x="254.492188"/>
       <use xlink:href="#DejaVuSans-30" x="318.115234"/>
      </g>
     </g>
    </g>
    <g id="text_7">
     <!-- timesteps -->
     <g transform="translate(211.443594 335.860562) scale(0.1 -0.1)">
      <defs>
       <path id="DejaVuSans-74" d="M 1172 4494 
L 1172 3500 
L 2356 3500 
L 2356 3053 
L 1172 3053 
L 1172 1153 
Q 1172 725 1289 603 
Q 1406 481 1766 481 
L 2356 481 
L 2356 0 
L 1766 0 
Q 1100 0 847 248 
Q 594 497 594 1153 
L 594 3053 
L 172 3053 
L 172 3500 
L 594 3500 
L 594 4494 
L 1172 4494 
z
" transform="scale(0.015625)"/>
       <path id="DejaVuSans-69" d="M 603 3500 
L 1178 3500 
L 1178 0 
L 603 0 
L 603 3500 
z
M 603 4863 
L 1178 4863 
L 1178 4134 
L 603 4134 
L 603 4863 
z
" transform="scale(0.015625)"/>
       <path id="DejaVuSans-6d" d="M 3328 2828 
Q 3544 3216 3844 3400 
Q 4144 3584 4550 3584 
Q 5097 3584 5394 3201 
Q 5691 2819 5691 2113 
L 5691 0 
L 5113 0 
L 5113 2094 
Q 5113 2597 4934 2840 
Q 4756 3084 4391 3084 
Q 3944 3084 3684 2787 
Q 3425 2491 3425 1978 
L 3425 0 
L 2847 0 
L 2847 2094 
Q 2847 2600 2669 2842 
Q 2491 3084 2119 3084 
Q 1678 3084 1418 2786 
Q 1159 2488 1159 1978 
L 1159 0 
L 581 0 
L 581 3500 
L 1159 3500 
L 1159 2956 
Q 1356 3278 1631 3431 
Q 1906 3584 2284 3584 
Q 2666 3584 2933 3390 
Q 3200 3197 3328 2828 
z
" transform="scale(0.015625)"/>
       <path id="DejaVuSans-65" d="M 3597 1894 
L 3597 1613 
L 953 1613 
Q 991 1019 1311 708 
Q 1631 397 2203 397 
Q 2534 397 2845 478 
Q 3156 559 3463 722 
L 3463 178 
Q 3153 47 2828 -22 
Q 2503 -91 2169 -91 
Q 1331 -91 842 396 
Q 353 884 353 1716 
Q 353 2575 817 3079 
Q 1281 3584 2069 3584 
Q 2775 3584 3186 3129 
Q 3597 2675 3597 1894 
z
M 3022 2063 
Q 3016 2534 2758 2815 
Q 2500 3097 2075 3097 
Q 1594 3097 1305 2825 
Q 1016 2553 972 2059 
L 3022 2063 
z
" transform="scale(0.015625)"/>
       <path id="DejaVuSans-73" d="M 2834 3397 
L 2834 2853 
Q 2591 2978 2328 3040 
Q 2066 3103 1784 3103 
Q 1356 3103 1142 2972 
Q 928 2841 928 2578 
Q 928 2378 1081 2264 
Q 1234 2150 1697 2047 
L 1894 2003 
Q 2506 1872 2764 1633 
Q 3022 1394 3022 966 
Q 3022 478 2636 193 
Q 2250 -91 1575 -91 
Q 1294 -91 989 -36 
Q 684 19 347 128 
L 347 722 
Q 666 556 975 473 
Q 1284 391 1588 391 
Q 1994 391 2212 530 
Q 2431 669 2431 922 
Q 2431 1156 2273 1281 
Q 2116 1406 1581 1522 
L 1381 1569 
Q 847 1681 609 1914 
Q 372 2147 372 2553 
Q 372 3047 722 3315 
Q 1072 3584 1716 3584 
Q 2034 3584 2315 3537 
Q 2597 3491 2834 3397 
z
" transform="scale(0.015625)"/>
       <path id="DejaVuSans-70" d="M 1159 525 
L 1159 -1331 
L 581 -1331 
L 581 3500 
L 1159 3500 
L 1159 2969 
Q 1341 3281 1617 3432 
Q 1894 3584 2278 3584 
Q 2916 3584 3314 3078 
Q 3713 2572 3713 1747 
Q 3713 922 3314 415 
Q 2916 -91 2278 -91 
Q 1894 -91 1617 61 
Q 1341 213 1159 525 
z
M 3116 1747 
Q 3116 2381 2855 2742 
Q 2594 3103 2138 3103 
Q 1681 3103 1420 2742 
Q 1159 2381 1159 1747 
Q 1159 1113 1420 752 
Q 1681 391 2138 391 
Q 2594 391 2855 752 
Q 3116 1113 3116 1747 
z
" transform="scale(0.015625)"/>
      </defs>
      <use xlink:href="#DejaVuSans-74"/>
      <use xlink:href="#DejaVuSans-69" x="39.208984"/>
      <use xlink:href="#DejaVuSans-6d" x="66.992188"/>
      <use xlink:href="#DejaVuSans-65" x="164.404297"/>
      <use xlink:href="#DejaVuSans-73" x="225.927734"/>
      <use xlink:href="#DejaVuSans-74" x="278.027344"/>
      <use xlink:href="#DejaVuSans-65" x="317.236328"/>
      <use xlink:href="#DejaVuSans-70" x="378.759766"/>
      <use xlink:href="#DejaVuSans-73" x="442.236328"/>
     </g>
    </g>
   </g>
   <g id="matplotlib.axis_2">
    <g id="ytick_1">
     <g id="line2d_7">
      <defs>
       <path id="maaf39a6818" d="M 0 0 
L -3.5 0 
" style="stroke: #000000; stroke-width: 0.8"/>
      </defs>
      <g>
       <use xlink:href="#maaf39a6818" x="57.6" y="272.261081" style="stroke: #000000; stroke-width: 0.8"/>
      </g>
     </g>
     <g id="text_8">
      <!-- −100 -->
      <g transform="translate(23.132812 276.0603) scale(0.1 -0.1)">
       <defs>
        <path id="DejaVuSans-2212" d="M 678 2272 
L 4684 2272 
L 4684 1741 
L 678 1741 
L 678 2272 
z
" transform="scale(0.015625)"/>
       </defs>
       <use xlink:href="#DejaVuSans-2212"/>
       <use xlink:href="#DejaVuSans-31" x="83.789062"/>
       <use xlink:href="#DejaVuSans-30" x="147.412109"/>
       <use xlink:href="#DejaVuSans-30" x="211.035156"/>
      </g>
     </g>
    </g>
    <g id="ytick_2">
     <g id="line2d_8">
      <g>
       <use xlink:href="#maaf39a6818" x="57.6" y="231.780888" style="stroke: #000000; stroke-width: 0.8"/>
      </g>
     </g>
     <g id="text_9">
      <!-- −50 -->
      <g transform="translate(29.495313 235.580107) scale(0.1 -0.1)">
       <use xlink:href="#DejaVuSans-2212"/>
       <use xlink:href="#DejaVuSans-35" x="83.789062"/>
       <use xlink:href="#DejaVuSans-30" x="147.412109"/>
      </g>
     </g>
    </g>
    <g id="ytick_3">
     <g id="line2d_9">
      <g>
       <use xlink:href="#maaf39a6818" x="57.6" y="191.300695" style="stroke: #000000; stroke-width: 0.8"/>
      </g>
     </g>
     <g id="text_10">
      <!-- 0 -->
      <g transform="translate(44.2375 195.099914) scale(0.1 -0.1)">
       <use xlink:href="#DejaVuSans-30"/>
      </g>
     </g>
    </g>
    <g id="ytick_4">
     <g id="line2d_10">
      <g>
       <use xlink:href="#maaf39a6818" x="57.6" y="150.820502" style="stroke: #000000; stroke-width: 0.8"/>
      </g>
     </g>
     <g id="text_11">
      <!-- 50 -->
      <g transform="translate(37.875 154.619721) scale(0.1 -0.1)">
       <use xlink:href="#DejaVuSans-35"/>
       <use xlink:href="#DejaVuSans-30" x="63.623047"/>
      </g>
     </g>
    </g>
    <g id="ytick_5">
     <g id="line2d_11">
      <g>
       <use xlink:href="#maaf39a6818" x="57.6" y="110.340309" style="stroke: #000000; stroke-width: 0.8"/>
      </g>
     </g>
     <g id="text_12">
      <!-- 100 -->
      <g transform="translate(31.5125 114.139528) scale(0.1 -0.1)">
       <use xlink:href="#DejaVuSans-31"/>
       <use xlink:href="#DejaVuSans-30" x="63.623047"/>
       <use xlink:href="#DejaVuSans-30" x="127.246094"/>
      </g>
     </g>
    </g>
    <g id="ytick_6">
     <g id="line2d_12">
      <g>
       <use xlink:href="#maaf39a6818" x="57.6" y="69.860116" style="stroke: #000000; stroke-width: 0.8"/>
      </g>
     </g>
     <g id="text_13">
      <!-- 150 -->
      <g transform="translate(31.5125 73.659335) scale(0.1 -0.1)">
       <use xlink:href="#DejaVuSans-31"/>
       <use xlink:href="#DejaVuSans-35" x="63.623047"/>
       <use xlink:href="#DejaVuSans-30" x="127.246094"/>
      </g>
     </g>
    </g>
    <g id="text_14">
     <!-- SAC losses -->
     <g transform="translate(17.053125 201.548313) rotate(-90) scale(0.1 -0.1)">
      <defs>
       <path id="DejaVuSans-53" d="M 3425 4513 
L 3425 3897 
Q 3066 4069 2747 4153 
Q 2428 4238 2131 4238 
Q 1616 4238 1336 4038 
Q 1056 3838 1056 3469 
Q 1056 3159 1242 3001 
Q 1428 2844 1947 2747 
L 2328 2669 
Q 3034 2534 3370 2195 
Q 3706 1856 3706 1288 
Q 3706 609 3251 259 
Q 2797 -91 1919 -91 
Q 1588 -91 1214 -16 
Q 841 59 441 206 
L 441 856 
Q 825 641 1194 531 
Q 1563 422 1919 422 
Q 2459 422 2753 634 
Q 3047 847 3047 1241 
Q 3047 1584 2836 1778 
Q 2625 1972 2144 2069 
L 1759 2144 
Q 1053 2284 737 2584 
Q 422 2884 422 3419 
Q 422 4038 858 4394 
Q 1294 4750 2059 4750 
Q 2388 4750 2728 4690 
Q 3069 4631 3425 4513 
z
" transform="scale(0.015625)"/>
       <path id="DejaVuSans-41" d="M 2188 4044 
L 1331 1722 
L 3047 1722 
L 2188 4044 
z
M 1831 4666 
L 2547 4666 
L 4325 0 
L 3669 0 
L 3244 1197 
L 1141 1197 
L 716 0 
L 50 0 
L 1831 4666 
z
" transform="scale(0.015625)"/>
       <path id="DejaVuSans-43" d="M 4122 4306 
L 4122 3641 
Q 3803 3938 3442 4084 
Q 3081 4231 2675 4231 
Q 1875 4231 1450 3742 
Q 1025 3253 1025 2328 
Q 1025 1406 1450 917 
Q 1875 428 2675 428 
Q 3081 428 3442 575 
Q 3803 722 4122 1019 
L 4122 359 
Q 3791 134 3420 21 
Q 3050 -91 2638 -91 
Q 1578 -91 968 557 
Q 359 1206 359 2328 
Q 359 3453 968 4101 
Q 1578 4750 2638 4750 
Q 3056 4750 3426 4639 
Q 3797 4528 4122 4306 
z
" transform="scale(0.015625)"/>
       <path id="DejaVuSans-20" transform="scale(0.015625)"/>
       <path id="DejaVuSans-6c" d="M 603 4863 
L 1178 4863 
L 1178 0 
L 603 0 
L 603 4863 
z
" transform="scale(0.015625)"/>
       <path id="DejaVuSans-6f" d="M 1959 3097 
Q 1497 3097 1228 2736 
Q 959 2375 959 1747 
Q 959 1119 1226 758 
Q 1494 397 1959 397 
Q 2419 397 2687 759 
Q 2956 1122 2956 1747 
Q 2956 2369 2687 2733 
Q 2419 3097 1959 3097 
z
M 1959 3584 
Q 2709 3584 3137 3096 
Q 3566 2609 3566 1747 
Q 3566 888 3137 398 
Q 2709 -91 1959 -91 
Q 1206 -91 779 398 
Q 353 888 353 1747 
Q 353 2609 779 3096 
Q 1206 3584 1959 3584 
z
" transform="scale(0.015625)"/>
      </defs>
      <use xlink:href="#DejaVuSans-53"/>
      <use xlink:href="#DejaVuSans-41" x="65.351562"/>
      <use xlink:href="#DejaVuSans-43" x="132.009766"/>
      <use xlink:href="#DejaVuSans-20" x="201.833984"/>
      <use xlink:href="#DejaVuSans-6c" x="233.621094"/>
      <use xlink:href="#DejaVuSans-6f" x="261.404297"/>
      <use xlink:href="#DejaVuSans-73" x="322.585938"/>
      <use xlink:href="#DejaVuSans-73" x="374.685547"/>
      <use xlink:href="#DejaVuSans-65" x="426.785156"/>
      <use xlink:href="#DejaVuSans-73" x="488.308594"/>
     </g>
    </g>
   </g>
   <g id="line2d_13">
    <path d="M 73.832727 193.03719 
L 74.01854 194.118825 
L 74.549433 193.047438 
L 75.186505 192.419556 
L 75.903211 192.368046 
L 76.527011 192.524432 
L 76.858819 192.729115 
L 77.2039 192.729694 
L 77.548981 192.974005 
L 77.681704 193.077504 
L 77.8277 193.034411 
L 79.181478 193.413761 
L 79.513286 193.71696 
L 79.858367 193.683058 
L 80.110541 193.878262 
L 80.38926 193.908845 
L 80.95997 194.271316 
L 81.822672 194.770417 
L 83.415352 195.402273 
L 84.331143 195.882128 
L 84.609862 195.848164 
L 85.684921 196.360495 
L 86.375082 197.020403 
L 86.786525 197.146683 
L 87.410324 197.676778 
L 87.927945 197.634451 
L 88.538473 198.196697 
L 89.042821 198.08918 
L 89.586987 198.1031 
L 89.905523 198.775795 
L 89.985157 198.668756 
L 91.086761 198.880612 
L 92.015824 199.898374 
L 92.188364 199.777872 
L 92.971432 200.247495 
L 93.794317 200.923429 
L 94.086308 200.793424 
L 95.068461 200.877293 
L 95.652443 201.91225 
L 96.170064 201.778386 
L 97.298213 202.311455 
L 97.855651 202.841384 
L 98.373272 202.725923 
L 98.943982 203.151316 
L 99.488148 203.867034 
L 99.979224 203.699959 
L 100.576479 204.767687 
L 101.691355 204.600898 
L 102.222248 205.028721 
L 102.779686 205.150382 
L 103.31058 205.411922 
L 103.854745 205.906524 
L 104.425456 206.214146 
L 105.221796 207.132011 
L 107.079922 207.656714 
L 107.345369 207.99669 
L 108.194798 207.943211 
L 109.336219 208.937279 
L 109.575121 209.39749 
L 110.42455 209.574181 
L 110.835993 209.830513 
L 111.512882 209.597911 
L 111.911052 210.300551 
L 112.694119 210.113599 
L 112.972838 210.653193 
L 113.570093 210.393665 
L 113.888629 210.695501 
L 114.645152 211.156117 
L 115.016778 211.23368 
L 115.760028 211.744138 
L 116.105109 211.647876 
L 116.689092 212.439266 
L 117.6447 213.088381 
L 118.44104 213.086906 
L 119.555916 214.049917 
L 120.166443 213.589515 
L 120.737153 214.465053 
L 121.254774 214.203225 
L 121.931663 215.066171 
L 122.449284 214.613231 
L 123.126173 215.437175 
L 123.643794 215.535805 
L 123.988875 216.110879 
L 124.917938 216.464692 
L 125.223202 216.323852 
L 126.35135 216.821983 
L 127.174235 217.53797 
L 127.784762 217.243958 
L 128.382017 217.467925 
L 129.244719 218.330446 
L 129.563255 218.409299 
L 130.598497 218.905109 
L 131.089573 219.867135 
L 131.92573 219.821748 
L 132.54953 220.075808 
L 133.359142 220.100262 
L 134.075848 220.668891 
L 134.792554 221.823737 
L 135.11109 221.801 
L 136.371962 222.280174 
L 136.504685 222.491747 
L 137.72574 222.436972 
L 138.880433 223.245464 
L 139.14588 223.95514 
L 140.035126 223.70661 
L 140.619109 224.813169 
L 141.269453 223.894446 
L 142.782499 224.679436 
L 143.631928 225.493397 
L 144.32209 225.918515 
L 145.211336 226.091384 
L 145.821863 226.957728 
L 146.551842 226.366391 
L 147.361454 228.65347 
L 147.494177 227.708727 
L 148.794866 229.528776 
L 149.033768 227.967157 
L 150.440635 229.328098 
L 150.812261 227.95325 
L 152.166039 229.738923 
L 152.988923 231.90086 
L 153.838353 230.474467 
L 154.793961 231.196422 
L 155.590301 232.91074 
L 156.360096 232.929814 
L 157.090074 232.207964 
L 157.912959 232.455393 
L 158.762388 233.706051 
L 159.346371 233.532918 
L 160.235617 234.272916 
L 160.899234 233.108894 
L 161.921204 235.660639 
L 162.438825 235.471086 
L 162.996263 235.642671 
L 163.819147 235.248061 
L 164.602215 236.027547 
L 165.212742 236.451487 
L 166.022355 236.547771 
L 166.831967 237.050793 
L 167.721213 236.74435 
L 168.597187 237.102326 
L 169.380255 237.936155 
L 169.924421 239.147108 
L 170.893301 238.279511 
L 171.676369 238.778237 
L 171.888726 240.84078 
L 172.844334 240.061959 
L 173.494678 240.542871 
L 174.397197 240.276762 
L 174.450286 237.576642 
L 174.689188 241.616711 
L 176.029694 241.191421 
L 176.719855 240.824949 
L 177.954182 242.178901 
L 178.644344 242.416321 
L 179.573407 243.395657 
L 179.785764 244.905888 
L 180.714828 243.495462 
L 180.754645 241.366462 
L 181.92261 245.618979 
L 182.864946 245.550108 
L 183.754192 245.007385 
L 184.590349 246.013806 
L 185.28051 245.229718 
L 186.342297 245.595965 
L 186.92628 246.581409 
L 187.550079 243.478908 
L 187.89516 246.918476 
L 188.797679 246.898958 
L 189.328572 247.801041 
L 190.523082 246.135093 
L 191.452145 249.196031 
L 192.646655 245.756363 
L 193.509357 248.559334 
L 193.947344 247.608529 
L 195.407301 249.044168 
L 195.951466 246.679311 
L 196.707989 251.621186 
L 197.504329 247.699179 
L 198.128129 253.547009 
L 198.659022 250.680893 
L 199.734081 252.967003 
L 200.623328 251.740694 
L 201.140949 252.465318 
L 201.963833 250.045284 
L 202.269097 251.597788 
L 203.516696 252.516357 
L 203.941411 251.930803 
L 205.2421 253.962349 
L 205.772993 252.067039 
L 206.901141 253.372021 
L 207.339128 256.104014 
L 208.321281 254.05652 
L 208.945081 256.440019 
L 209.409612 253.992566 
L 210.338676 255.564064 
L 211.281011 253.429119 
L 212.050807 253.105122 
L 213.125866 255.645418 
L 213.882389 256.328627 
L 214.837997 258.160983 
L 215.19635 255.876517 
L 216.191775 258.761144 
L 216.669579 256.562943 
L 218.527705 257.528183 
L 219.416952 260.152008 
L 220.093841 260.303445 
L 220.94327 255.897357 
L 221.872333 258.408098 
L 222.549222 258.027626 
L 223.584464 262.090142 
L 224.234809 258.598577 
L 225.044421 258.607762 
L 225.668221 261.29186 
L 226.384927 260.077628 
L 227.93779 262.533852 
L 228.415594 260.871042 
L 228.707585 260.556001 
L 229.716282 263.018334 
L 230.578984 261.352053 
L 231.030243 265.173069 
L 232.09203 261.503168 
L 233.565259 265.230643 
L 234.109425 263.145835 
L 234.945582 266.044843 
L 235.436658 266.775476 
L 236.020641 265.488814 
L 236.883342 265.314197 
L 237.785861 262.901161 
L 237.918584 268.230073 
L 239.723621 265.590435 
L 241.103944 267.342011 
L 241.382663 263.648478 
L 242.61699 267.124008 
L 242.908981 267.305222 
L 243.745138 268.082015 
L 244.461844 265.393327 
L 245.138733 268.015565 
L 245.218367 270.837665 
L 245.536903 266.793352 
L 245.988163 268.68676 
L 246.081069 267.850064 
L 247.7932 264.614972 
L 248.032102 267.842566 
L 249.492059 267.706905 
L 249.969863 266.81368 
L 250.898926 266.216718 
L 251.403275 269.759075 
L 251.960713 269.006019 
L 252.863231 268.337635 
L 253.779022 271.21763 
L 254.588635 268.834941 
L 255.35843 270.492692 
L 256.221132 273.076837 
L 256.526395 267.113822 
L 257.654544 272.775614 
L 257.959807 273.041055 
L 258.71633 269.334915 
L 259.313585 271.417282 
L 259.579032 274.361337 
L 260.892993 270.338951 
L 261.304435 268.371373 
L 262.591852 271.853796 
L 262.976749 274.989362 
L 264.065081 272.241056 
L 264.662336 274.723908 
L 265.233046 272.160375 
L 265.697578 272.158299 
L 266.374467 273.837416 
L 268.365317 274.939361 
L 269.86509 273.182244 
L 270.940149 273.235197 
L 271.471043 276.098571 
L 272.665553 275.286885 
L 273.076995 274.529611 
L 273.952969 278.001095 
L 274.483862 277.267898 
L 275.718189 278.762014 
L 276.355261 274.724198 
L 277.350686 278.602739 
L 277.748856 276.206868 
L 278.478835 282.275642 
L 279.514077 277.22988 
L 280.018425 276.720833 
L 280.628953 273.735622 
L 281.664195 277.442603 
L 282.26145 276.041102 
L 283.031245 278.052604 
L 283.668317 275.85586 
L 284.570836 277.476315 
L 285.977703 275.627097 
L 286.827132 278.172439 
L 287.424387 276.59784 
L 288.698531 280.459111 
L 289.216152 279.968939 
L 290.503569 280.284518 
L 291.074279 277.748564 
L 292.16261 278.570601 
L 292.78641 278.494472 
L 293.317303 282.74976 
L 294.020737 279.882051 
L 295.122341 281.62501 
L 295.772685 280.405138 
L 296.821199 279.340383 
L 297.511361 280.97885 
L 298.666054 278.586605 
L 299.250036 282.999722 
L 300.019832 277.27531 
L 301.055074 285.120615 
L 301.824869 280.52031 
L 302.833566 280.907743 
L 303.444094 283.552532 
L 304.1608 279.013014 
L 305.063318 280.801329 
L 305.806569 281.077061 
L 306.908173 281.191492 
L 307.571789 284.063495 
L 308.779572 284.74543 
L 309.270648 284.337034 
L 310.066988 283.501148 
L 310.942962 285.755119 
L 311.779119 284.149445 
L 312.283468 288.116894 
L 313.385071 284.040931 
L 314.128322 282.043728 
L 315.030841 284.356892 
L 315.694457 281.198732 
L 316.90224 284.660067 
L 317.579129 285.940176 
L 318.056933 280.366817 
L 319.224898 283.111893 
L 319.23817 284.261362 
L 320.963574 285.837777 
L 321.043208 289.898366 
L 322.569526 287.940794 
L 322.87479 284.662661 
L 324.122389 281.479516 
L 324.653282 286.037627 
L 325.861065 288.859714 
L 326.498137 288.700514 
L 327.175026 282.638034 
L 327.772281 283.469294 
L 328.064272 282.672161 
L 328.369536 285.517442 
L 329.497684 285.281699 
L 330.015305 284.839738 
L 331.23636 287.243342 
L 331.488534 287.434161 
L 332.324691 289.035555 
L 332.975035 286.115207 
L 333.638652 289.102079 
L 333.890826 289.470413 
L 335.138426 282.342425 
L 335.722408 288.052983 
L 336.266574 284.801559 
L 337.20891 285.642776 
L 338.111428 283.53877 
L 338.642322 286.894464 
L 338.761773 284.232473 
L 339.106853 287.999782 
L 339.969555 289.022584 
L 340.832257 285.00362 
L 341.336605 286.131607 
L 341.376422 288.398654 
L 342.013494 288.769669 
L 342.889468 283.362905 
L 343.845076 287.560217 
L 344.455604 287.363196 
L 345.225399 283.9866 
L 345.543935 290.064843 
L 346.791534 285.000779 
L 347.269338 291.588261 
L 347.627691 286.148654 
L 348.105495 286.425887 
L 348.689478 287.477288 
L 349.140737 287.377749 
L 349.645086 287.514929 
L 350.560877 288.171929 
L 351.211221 287.933042 
L 352.790629 291.367675 
L 353.70642 283.665987 
L 354.436398 289.104636 
L 355.392006 292.269949 
L 356.281253 288.359957 
L 356.958142 289.620367 
L 357.807571 286.642167 
L 358.272103 290.326355 
L 358.48446 288.665701 
L 359.214438 291.196232 
L 360.236408 293.676385 
L 360.488582 288.541011 
L 361.417646 291.957237 
L 362.121079 290.142818 
L 362.598883 291.783163 
L 363.116504 291.299187 
L 363.926117 290.713838 
L 364.894997 293.866735 
L 365.770971 292.263952 
L 366.089507 285.234928 
L 366.434588 288.123911 
L 367.947634 291.610954 
L 368.226353 288.631161 
L 368.889969 290.452535 
L 369.739399 289.272583 
L 370.442832 288.642186 
L 371.464802 287.198023 
L 372.02224 290.380761 
L 372.221325 285.447608 
L 373.296384 285.165335 
L 373.84055 285.62141 
L 374.597073 292.14188 
L 375.38014 286.830955 
L 375.937578 290.866583 
L 376.826825 293.266685 
L 377.662982 294.89766 
L 377.915156 289.073419 
L 379.282206 291.731507 
L 379.852917 289.085748 
L 381.020882 293.219056 
L 381.432324 292.884126 
L 382.573745 292.126531 
L 382.918826 292.054756 
L 384.033702 291.690005 
L 384.338965 286.961032 
L 385.586565 288.646405 
L 385.73256 288.050864 
L 386.595262 287.250754 
L 387.179245 290.211776 
L 387.909223 286.857682 
L 388.533023 286.687104 
L 389.196639 292.521647 
L 389.754077 295.488 
L 390.497328 288.614823 
L 391.028221 291.251965 
L 391.798017 289.593813 
L 392.395272 290.589579 
L 393.138522 292.471554 
L 393.722505 288.221603 
L 394.518845 290.672231 
L 395.076283 287.348057 
L 395.806261 292.260085 
L 396.323882 293.704094 
L 397.146767 292.688106 
L 397.850201 290.678828 
L 398.487273 290.296009 
L 398.487273 290.296009 
" clip-path="url(#p6268b1470a)" style="fill: none; stroke: #1f77b4; stroke-width: 1.5; stroke-linecap: square"/>
   </g>
   <g id="line2d_14">
    <path d="M 73.832727 183.885197 
L 74.177808 190.620712 
L 74.403438 191.130506 
L 74.974148 191.275427 
L 78.146236 191.249336 
L 78.584223 191.239449 
L 82.911003 191.12771 
L 83.415352 190.985213 
L 83.74716 191.120124 
L 84.331143 191.000267 
L 84.609862 190.818278 
L 85.684921 191.013175 
L 86.375082 190.93875 
L 86.786525 191.115281 
L 87.410324 190.975651 
L 87.927945 190.680507 
L 88.538473 190.558711 
L 89.042821 190.687247 
L 89.586987 189.772677 
L 89.905523 190.709174 
L 89.985157 190.594072 
L 91.020399 190.008095 
L 91.086761 190.631627 
L 92.188364 190.770038 
L 92.745802 190.40076 
L 92.971432 190.497964 
L 93.794317 190.711905 
L 94.086308 189.59593 
L 94.882648 190.586788 
L 95.068461 189.30304 
L 95.652443 190.066693 
L 96.170064 190.450796 
L 96.767319 189.663482 
L 97.298213 189.943251 
L 97.855651 189.980667 
L 98.373272 187.74426 
L 98.943982 189.972723 
L 99.488148 189.954748 
L 99.979224 188.641282 
L 100.576479 190.428278 
L 101.173734 190.186058 
L 101.691355 189.577787 
L 102.779686 189.811277 
L 103.31058 188.410036 
L 103.854745 190.303322 
L 104.425456 190.005094 
L 104.982894 189.187865 
L 105.221796 190.000132 
L 106.071225 187.684543 
L 106.283582 189.947346 
L 107.079922 189.506594 
L 107.345369 189.145623 
L 108.194798 189.953172 
L 108.446973 188.74513 
L 109.336219 189.297761 
L 109.575121 188.186412 
L 110.42455 187.150509 
L 110.835993 190.58868 
L 111.512882 188.179991 
L 111.911052 190.152023 
L 112.694119 188.170886 
L 112.972838 188.421875 
L 113.570093 186.554147 
L 113.888629 189.626986 
L 114.645152 190.085849 
L 115.016778 188.378856 
L 115.760028 189.615096 
L 116.105109 189.615625 
L 116.689092 188.718633 
L 117.6447 189.174272 
L 118.44104 188.883777 
L 118.918844 189.007557 
L 119.555916 187.129495 
L 120.166443 186.44763 
L 120.737153 188.263056 
L 121.254774 188.191419 
L 121.931663 186.261184 
L 122.449284 186.753892 
L 123.126173 187.662586 
L 123.643794 185.561544 
L 123.988875 188.089967 
L 124.917938 185.664659 
L 125.223202 186.813482 
L 126.112448 188.914148 
L 126.35135 187.787086 
L 127.174235 188.020714 
L 127.784762 189.586489 
L 128.382017 185.66256 
L 129.244719 189.58012 
L 129.563255 189.804823 
L 130.598497 185.720638 
L 131.089573 189.083941 
L 131.92573 185.511847 
L 132.54953 187.140206 
L 133.359142 188.52831 
L 134.075848 188.725838 
L 134.792554 189.540874 
L 135.11109 185.12083 
L 136.371962 186.646997 
L 136.504685 187.491758 
L 137.526655 188.393584 
L 137.72574 184.382546 
L 138.880433 188.796272 
L 139.14588 188.018096 
L 140.035126 186.665949 
L 140.619109 187.46399 
L 141.269453 181.557566 
L 142.092338 184.604553 
L 142.782499 184.042904 
L 143.631928 181.302143 
L 144.32209 189.008327 
L 145.211336 182.990327 
L 145.821863 184.915601 
L 146.551842 183.434672 
L 147.361454 180.565757 
L 147.494177 186.921926 
L 148.794866 188.173285 
L 149.033768 183.295153 
L 150.440635 185.542036 
L 150.812261 185.073313 
L 151.475877 175.123504 
L 152.166039 185.710619 
L 152.988923 186.106626 
L 153.838353 187.740218 
L 154.793961 181.345658 
L 155.590301 185.342475 
L 156.360096 182.489048 
L 157.090074 187.902916 
L 157.912959 183.144538 
L 158.762388 183.300982 
L 159.346371 187.888247 
L 160.235617 176.49318 
L 160.899234 187.417275 
L 161.921204 177.880715 
L 162.438825 182.062359 
L 162.996263 188.260489 
L 163.819147 170.437457 
L 164.602215 187.852646 
L 165.212742 183.538899 
L 166.022355 169.293153 
L 166.831967 185.464599 
L 167.721213 183.598142 
L 168.597187 186.52203 
L 169.380255 176.6997 
L 169.924421 179.617895 
L 170.893301 181.104127 
L 171.676369 177.891004 
L 171.888726 186.845512 
L 172.844334 180.917472 
L 173.494678 185.842203 
L 174.397197 186.981558 
L 174.450286 179.63675 
L 174.689188 184.508054 
L 176.029694 179.780375 
L 176.719855 175.985187 
L 177.954182 177.282889 
L 178.644344 181.344083 
L 179.573407 172.570687 
L 179.785764 179.956747 
L 180.714828 179.65035 
L 180.754645 166.46728 
L 181.92261 185.496889 
L 182.864946 184.445964 
L 183.754192 183.007146 
L 184.590349 166.282787 
L 185.28051 186.235097 
L 186.342297 182.929703 
L 186.92628 173.306395 
L 187.550079 169.58817 
L 187.89516 183.829869 
L 188.797679 181.198735 
L 189.328572 182.988414 
L 190.523082 163.08195 
L 191.452145 177.777111 
L 192.646655 176.79313 
L 193.509357 181.163096 
L 193.947344 173.976359 
L 195.407301 180.554307 
L 195.951466 150.826154 
L 196.707989 175.814529 
L 197.504329 182.611333 
L 198.128129 180.17933 
L 198.659022 176.818495 
L 199.734081 179.131434 
L 200.623328 182.558966 
L 201.140949 169.084135 
L 201.963833 177.792111 
L 202.269097 169.417664 
L 203.516696 171.218328 
L 203.941411 182.023712 
L 205.2421 176.107062 
L 205.772993 134.01242 
L 206.901141 173.661125 
L 207.339128 178.804143 
L 208.321281 171.795933 
L 208.945081 173.70784 
L 209.409612 176.596192 
L 210.338676 171.584711 
L 211.281011 174.210739 
L 212.050807 180.433554 
L 213.125866 179.328559 
L 213.882389 181.479393 
L 214.837997 182.752585 
L 215.19635 177.721025 
L 216.191775 171.359543 
L 216.669579 145.322578 
L 217.638459 169.102065 
L 218.527705 183.605292 
L 219.416952 178.528095 
L 220.093841 180.603279 
L 220.94327 176.911001 
L 221.872333 171.581802 
L 222.549222 175.265975 
L 223.584464 160.688328 
L 224.234809 162.492762 
L 225.044421 163.673501 
L 225.668221 179.565643 
L 227.380352 175.590868 
L 227.93779 176.775821 
L 228.415594 140.415645 
L 228.707585 178.474993 
L 229.716282 119.105788 
L 230.578984 174.357646 
L 231.030243 179.571556 
L 232.09203 125.027412 
L 232.636196 176.805554 
L 233.565259 160.800208 
L 234.109425 169.748487 
L 234.945582 175.574808 
L 236.020641 104.478612 
L 236.883342 173.522166 
L 237.785861 164.183809 
L 237.918584 164.565176 
L 239.245817 148.886989 
L 239.723621 168.201386 
L 241.103944 173.247648 
L 241.382663 170.483063 
L 242.285182 174.307127 
L 242.61699 139.91582 
L 242.908981 128.838126 
L 243.745138 135.044141 
L 244.461844 164.460732 
L 245.138733 170.514327 
L 245.218367 177.143872 
L 245.536903 142.174723 
L 245.988163 130.785105 
L 246.081069 157.054956 
L 247.7932 160.341581 
L 248.032102 178.458236 
L 249.492059 167.025829 
L 249.969863 164.583147 
L 250.898926 156.634409 
L 251.403275 169.21987 
L 251.960713 175.450454 
L 252.863231 167.641858 
L 253.779022 176.805751 
L 254.588635 172.321959 
L 255.35843 170.449605 
L 256.221132 177.795792 
L 256.526395 108.502604 
L 257.654544 136.642218 
L 257.959807 173.992422 
L 258.71633 131.090318 
L 259.313585 172.225995 
L 259.579032 175.270163 
L 260.892993 153.102198 
L 261.304435 180.543294 
L 262.591852 178.297624 
L 262.976749 154.10247 
L 264.065081 172.288779 
L 264.569429 177.323833 
L 264.662336 137.798612 
L 265.233046 121.678766 
L 265.697578 133.927644 
L 266.374467 145.334274 
L 267.728245 177.381602 
L 268.365317 163.439209 
L 269.413831 124.050294 
L 269.86509 176.93399 
L 270.940149 173.160333 
L 271.471043 164.374328 
L 272.665553 166.116905 
L 273.076995 139.592159 
L 273.952969 123.883323 
L 274.483862 168.552533 
L 275.718189 170.094701 
L 276.355261 156.664469 
L 277.350686 180.174742 
L 277.748856 163.692667 
L 278.478835 172.546008 
L 279.514077 110.625121 
L 280.018425 145.726799 
L 280.628953 171.326321 
L 281.664195 158.217986 
L 282.26145 172.708139 
L 283.031245 169.628779 
L 283.668317 169.318522 
L 284.570836 148.160978 
L 285.247725 144.009933 
L 285.977703 167.911459 
L 286.827132 106.605478 
L 287.424387 173.502638 
L 288.698531 173.340661 
L 289.216152 162.547275 
L 290.503569 172.702985 
L 291.074279 173.717905 
L 292.16261 122.989196 
L 292.78641 163.688788 
L 293.317303 102.33502 
L 294.020737 170.990918 
L 295.122341 122.792626 
L 295.772685 68.847716 
L 296.821199 119.200577 
L 297.511361 94.153427 
L 298.666054 154.782244 
L 299.250036 143.636392 
L 300.019832 143.581499 
L 301.055074 144.279797 
L 301.824869 175.829418 
L 302.833566 66.706928 
L 303.444094 128.95874 
L 304.1608 160.795501 
L 305.063318 108.347579 
L 305.806569 175.848142 
L 306.908173 171.18262 
L 307.571789 131.07844 
L 308.779572 170.522455 
L 309.270648 165.774496 
L 310.066988 172.051294 
L 310.942962 144.582698 
L 311.779119 71.306831 
L 312.283468 131.339743 
L 313.385071 103.426841 
L 314.128322 168.199611 
L 315.030841 119.668191 
L 315.694457 169.687255 
L 316.90224 156.979426 
L 317.579129 172.229685 
L 318.056933 159.596086 
L 319.224898 168.072948 
L 319.23817 61.11344 
L 320.963574 172.709897 
L 321.043208 169.42651 
L 322.569526 175.935833 
L 322.87479 93.103379 
L 324.122389 132.217378 
L 324.653282 86.938859 
L 325.861065 82.930322 
L 326.498137 167.361466 
L 327.175026 139.924273 
L 327.772281 154.434791 
L 328.064272 155.823416 
L 328.369536 154.248527 
L 329.497684 155.705649 
L 330.015305 146.127815 
L 331.23636 163.634439 
L 331.488534 164.13894 
L 332.324691 129.773328 
L 332.975035 167.242415 
L 333.638652 155.842113 
L 333.890826 169.132305 
L 335.138426 150.529279 
L 335.722408 105.89755 
L 336.266574 174.237166 
L 337.20891 171.397152 
L 338.111428 165.965016 
L 338.642322 78.478699 
L 338.761773 150.800795 
L 339.106853 158.312973 
L 339.969555 156.693926 
L 340.832257 155.544058 
L 341.336605 103.304393 
L 341.376422 172.323017 
L 342.013494 164.633831 
L 342.889468 161.028165 
L 343.845076 128.619245 
L 344.455604 162.195538 
L 345.225399 127.860161 
L 345.543935 165.067929 
L 346.791534 159.572645 
L 347.269338 178.596928 
L 347.627691 165.577256 
L 348.105495 143.846106 
L 348.689478 151.721973 
L 349.140737 152.650771 
L 349.645086 157.149133 
L 350.560877 167.829543 
L 351.211221 172.605174 
L 352.087195 139.434867 
L 352.790629 162.809844 
L 353.70642 144.273151 
L 354.436398 83.575821 
L 355.392006 126.385218 
L 356.281253 173.85011 
L 356.958142 143.763319 
L 357.807571 139.910974 
L 358.272103 147.446235 
L 358.48446 116.764069 
L 359.214438 159.848152 
L 360.236408 171.024058 
L 360.488582 165.444086 
L 361.417646 172.037427 
L 362.121079 114.667871 
L 362.598883 174.738721 
L 363.116504 128.462002 
L 363.926117 152.012971 
L 365.770971 174.401107 
L 366.434588 162.180383 
L 367.947634 156.050802 
L 368.226353 159.25241 
L 368.889969 173.11288 
L 369.739399 170.118707 
L 370.442832 170.61347 
L 371.464802 153.29412 
L 372.02224 175.685144 
L 372.221325 135.864672 
L 373.296384 142.189501 
L 373.84055 166.840741 
L 374.597073 134.930884 
L 375.38014 155.880106 
L 375.937578 161.197338 
L 376.826825 53.568 
L 377.915156 171.204973 
L 379.282206 172.007988 
L 379.852917 101.05931 
L 381.020882 169.242455 
L 381.432324 151.438987 
L 382.573745 130.421977 
L 382.918826 165.104301 
L 384.338965 143.779221 
L 385.586565 132.142713 
L 385.73256 123.706272 
L 386.595262 144.187927 
L 387.179245 154.393264 
L 387.909223 170.410819 
L 388.533023 174.207618 
L 389.196639 110.404078 
L 389.754077 167.046547 
L 391.028221 144.150665 
L 391.798017 125.499665 
L 392.395272 178.021869 
L 393.138522 98.346619 
L 393.722505 151.734105 
L 394.518845 96.193811 
L 395.076283 147.488502 
L 395.806261 163.042394 
L 396.323882 143.214796 
L 397.146767 170.39005 
L 397.850201 178.421722 
L 398.487273 148.803185 
L 398.487273 148.803185 
" clip-path="url(#p6268b1470a)" style="fill: none; stroke: #ff7f0e; stroke-width: 1.5; stroke-linecap: square"/>
   </g>
   <g id="patch_3">
    <path d="M 57.6 307.584 
L 57.6 41.472 
" style="fill: none; stroke: #000000; stroke-width: 0.8; stroke-linejoin: miter; stroke-linecap: square"/>
   </g>
   <g id="patch_4">
    <path d="M 414.72 307.584 
L 414.72 41.472 
" style="fill: none; stroke: #000000; stroke-width: 0.8; stroke-linejoin: miter; stroke-linecap: square"/>
   </g>
   <g id="patch_5">
    <path d="M 57.6 307.584 
L 414.72 307.584 
" style="fill: none; stroke: #000000; stroke-width: 0.8; stroke-linejoin: miter; stroke-linecap: square"/>
   </g>
   <g id="patch_6">
    <path d="M 57.6 41.472 
L 414.72 41.472 
" style="fill: none; stroke: #000000; stroke-width: 0.8; stroke-linejoin: miter; stroke-linecap: square"/>
   </g>
   <g id="text_15">
    <!-- actor and critic loss -->
    <g transform="translate(177.345 35.472) scale(0.12 -0.12)">
     <defs>
      <path id="DejaVuSans-61" d="M 2194 1759 
Q 1497 1759 1228 1600 
Q 959 1441 959 1056 
Q 959 750 1161 570 
Q 1363 391 1709 391 
Q 2188 391 2477 730 
Q 2766 1069 2766 1631 
L 2766 1759 
L 2194 1759 
z
M 3341 1997 
L 3341 0 
L 2766 0 
L 2766 531 
Q 2569 213 2275 61 
Q 1981 -91 1556 -91 
Q 1019 -91 701 211 
Q 384 513 384 1019 
Q 384 1609 779 1909 
Q 1175 2209 1959 2209 
L 2766 2209 
L 2766 2266 
Q 2766 2663 2505 2880 
Q 2244 3097 1772 3097 
Q 1472 3097 1187 3025 
Q 903 2953 641 2809 
L 641 3341 
Q 956 3463 1253 3523 
Q 1550 3584 1831 3584 
Q 2591 3584 2966 3190 
Q 3341 2797 3341 1997 
z
" transform="scale(0.015625)"/>
      <path id="DejaVuSans-63" d="M 3122 3366 
L 3122 2828 
Q 2878 2963 2633 3030 
Q 2388 3097 2138 3097 
Q 1578 3097 1268 2742 
Q 959 2388 959 1747 
Q 959 1106 1268 751 
Q 1578 397 2138 397 
Q 2388 397 2633 464 
Q 2878 531 3122 666 
L 3122 134 
Q 2881 22 2623 -34 
Q 2366 -91 2075 -91 
Q 1284 -91 818 406 
Q 353 903 353 1747 
Q 353 2603 823 3093 
Q 1294 3584 2113 3584 
Q 2378 3584 2631 3529 
Q 2884 3475 3122 3366 
z
" transform="scale(0.015625)"/>
      <path id="DejaVuSans-72" d="M 2631 2963 
Q 2534 3019 2420 3045 
Q 2306 3072 2169 3072 
Q 1681 3072 1420 2755 
Q 1159 2438 1159 1844 
L 1159 0 
L 581 0 
L 581 3500 
L 1159 3500 
L 1159 2956 
Q 1341 3275 1631 3429 
Q 1922 3584 2338 3584 
Q 2397 3584 2469 3576 
Q 2541 3569 2628 3553 
L 2631 2963 
z
" transform="scale(0.015625)"/>
      <path id="DejaVuSans-6e" d="M 3513 2113 
L 3513 0 
L 2938 0 
L 2938 2094 
Q 2938 2591 2744 2837 
Q 2550 3084 2163 3084 
Q 1697 3084 1428 2787 
Q 1159 2491 1159 1978 
L 1159 0 
L 581 0 
L 581 3500 
L 1159 3500 
L 1159 2956 
Q 1366 3272 1645 3428 
Q 1925 3584 2291 3584 
Q 2894 3584 3203 3211 
Q 3513 2838 3513 2113 
z
" transform="scale(0.015625)"/>
      <path id="DejaVuSans-64" d="M 2906 2969 
L 2906 4863 
L 3481 4863 
L 3481 0 
L 2906 0 
L 2906 525 
Q 2725 213 2448 61 
Q 2172 -91 1784 -91 
Q 1150 -91 751 415 
Q 353 922 353 1747 
Q 353 2572 751 3078 
Q 1150 3584 1784 3584 
Q 2172 3584 2448 3432 
Q 2725 3281 2906 2969 
z
M 947 1747 
Q 947 1113 1208 752 
Q 1469 391 1925 391 
Q 2381 391 2643 752 
Q 2906 1113 2906 1747 
Q 2906 2381 2643 2742 
Q 2381 3103 1925 3103 
Q 1469 3103 1208 2742 
Q 947 2381 947 1747 
z
" transform="scale(0.015625)"/>
     </defs>
     <use xlink:href="#DejaVuSans-61"/>
     <use xlink:href="#DejaVuSans-63" x="61.279297"/>
     <use xlink:href="#DejaVuSans-74" x="116.259766"/>
     <use xlink:href="#DejaVuSans-6f" x="155.46875"/>
     <use xlink:href="#DejaVuSans-72" x="216.650391"/>
     <use xlink:href="#DejaVuSans-20" x="257.763672"/>
     <use xlink:href="#DejaVuSans-61" x="289.550781"/>
     <use xlink:href="#DejaVuSans-6e" x="350.830078"/>
     <use xlink:href="#DejaVuSans-64" x="414.208984"/>
     <use xlink:href="#DejaVuSans-20" x="477.685547"/>
     <use xlink:href="#DejaVuSans-63" x="509.472656"/>
     <use xlink:href="#DejaVuSans-72" x="564.453125"/>
     <use xlink:href="#DejaVuSans-69" x="605.566406"/>
     <use xlink:href="#DejaVuSans-74" x="633.349609"/>
     <use xlink:href="#DejaVuSans-69" x="672.558594"/>
     <use xlink:href="#DejaVuSans-63" x="700.341797"/>
     <use xlink:href="#DejaVuSans-20" x="755.322266"/>
     <use xlink:href="#DejaVuSans-6c" x="787.109375"/>
     <use xlink:href="#DejaVuSans-6f" x="814.892578"/>
     <use xlink:href="#DejaVuSans-73" x="876.074219"/>
     <use xlink:href="#DejaVuSans-73" x="928.173828"/>
    </g>
   </g>
   <g id="legend_1">
    <g id="patch_7">
     <path d="M 64.6 78.82825 
L 144.870313 78.82825 
Q 146.870313 78.82825 146.870313 76.82825 
L 146.870313 48.472 
Q 146.870313 46.472 144.870313 46.472 
L 64.6 46.472 
Q 62.6 46.472 62.6 48.472 
L 62.6 76.82825 
Q 62.6 78.82825 64.6 78.82825 
z
" style="fill: #ffffff; opacity: 0.8; stroke: #cccccc; stroke-linejoin: miter"/>
    </g>
    <g id="line2d_15">
     <path d="M 66.6 54.570437 
L 76.6 54.570437 
L 86.6 54.570437 
" style="fill: none; stroke: #1f77b4; stroke-width: 1.5; stroke-linecap: square"/>
    </g>
    <g id="text_16">
     <!-- actor loss -->
     <g transform="translate(94.6 58.070437) scale(0.1 -0.1)">
      <use xlink:href="#DejaVuSans-61"/>
      <use xlink:href="#DejaVuSans-63" x="61.279297"/>
      <use xlink:href="#DejaVuSans-74" x="116.259766"/>
      <use xlink:href="#DejaVuSans-6f" x="155.46875"/>
      <use xlink:href="#DejaVuSans-72" x="216.650391"/>
      <use xlink:href="#DejaVuSans-20" x="257.763672"/>
      <use xlink:href="#DejaVuSans-6c" x="289.550781"/>
      <use xlink:href="#DejaVuSans-6f" x="317.333984"/>
      <use xlink:href="#DejaVuSans-73" x="378.515625"/>
      <use xlink:href="#DejaVuSans-73" x="430.615234"/>
     </g>
    </g>
    <g id="line2d_16">
     <path d="M 66.6 69.248562 
L 76.6 69.248562 
L 86.6 69.248562 
" style="fill: none; stroke: #ff7f0e; stroke-width: 1.5; stroke-linecap: square"/>
    </g>
    <g id="text_17">
     <!-- critic loss -->
     <g transform="translate(94.6 72.748562) scale(0.1 -0.1)">
      <use xlink:href="#DejaVuSans-63"/>
      <use xlink:href="#DejaVuSans-72" x="54.980469"/>
      <use xlink:href="#DejaVuSans-69" x="96.09375"/>
      <use xlink:href="#DejaVuSans-74" x="123.876953"/>
      <use xlink:href="#DejaVuSans-69" x="163.085938"/>
      <use xlink:href="#DejaVuSans-63" x="190.869141"/>
      <use xlink:href="#DejaVuSans-20" x="245.849609"/>
      <use xlink:href="#DejaVuSans-6c" x="277.636719"/>
      <use xlink:href="#DejaVuSans-6f" x="305.419922"/>
      <use xlink:href="#DejaVuSans-73" x="366.601562"/>
      <use xlink:href="#DejaVuSans-73" x="418.701172"/>
     </g>
    </g>
   </g>
  </g>
 </g>
 <defs>
  <clipPath id="p6268b1470a">
   <rect x="57.6" y="41.472" width="357.12" height="266.112"/>
  </clipPath>
 </defs>
</svg>
