<?xml version="1.0" encoding="utf-8" standalone="no"?>
<!DOCTYPE svg PUBLIC "-//W3C//DTD SVG 1.1//EN"
  "http://www.w3.org/Graphics/SVG/1.1/DTD/svg11.dtd">
<svg xmlns:xlink="http://www.w3.org/1999/xlink" width="460.8pt" height="345.6pt" viewBox="0 0 460.8 345.6" xmlns="http://www.w3.org/2000/svg" version="1.1">
 <metadata>
  <rdf:RDF xmlns:dc="http://purl.org/dc/elements/1.1/" xmlns:cc="http://creativecommons.org/ns#" xmlns:rdf="http://www.w3.org/1999/02/22-rdf-syntax-ns#">
   <cc:Work>
    <dc:type rdf:resource="http://purl.org/dc/dcmitype/StillImage"/>
    <dc:date>2023-08-19T14:22:53.689699</dc:date>
    <dc:format>image/svg+xml</dc:format>
    <dc:creator>
     <cc:Agent>
      <dc:title>Matplotlib v3.7.1, https://matplotlib.org/</dc:title>
     </cc:Agent>
    </dc:creator>
   </cc:Work>
  </rdf:RDF>
 </metadata>
 <defs>
  <style type="text/css">*{stroke-linejoin: round; stroke-linecap: butt}</style>
 </defs>
 <g id="figure_1">
  <g id="patch_1">
   <path d="M 0 345.6 
L 460.8 345.6 
L 460.8 0 
L 0 0 
z
" style="fill: #ffffff"/>
  </g>
  <g id="axes_1">
   <g id="patch_2">
    <path d="M 57.6 307.584 
L 414.72 307.584 
L 414.72 41.472 
L 57.6 41.472 
z
" style="fill: #ffffff"/>
   </g>
   <g id="matplotlib.axis_1">
    <g id="xtick_1">
     <g id="line2d_1">
      <defs>
       <path id="mc057a8a7f0" d="M 0 0 
L 0 3.5 
" style="stroke: #000000; stroke-width: 0.8"/>
      </defs>
      <g>
       <use xlink:href="#mc057a8a7f0" x="67.038343" y="307.584" style="stroke: #000000; stroke-width: 0.8"/>
      </g>
     </g>
     <g id="text_1">
      <!-- 0 -->
      <g transform="translate(63.857093 322.182437) scale(0.1 -0.1)">
       <defs>
        <path id="DejaVuSans-30" d="M 2034 4250 
Q 1547 4250 1301 3770 
Q 1056 3291 1056 2328 
Q 1056 1369 1301 889 
Q 1547 409 2034 409 
Q 2525 409 2770 889 
Q 3016 1369 3016 2328 
Q 3016 3291 2770 3770 
Q 2525 4250 2034 4250 
z
M 2034 4750 
Q 2819 4750 3233 4129 
Q 3647 3509 3647 2328 
Q 3647 1150 3233 529 
Q 2819 -91 2034 -91 
Q 1250 -91 836 529 
Q 422 1150 422 2328 
Q 422 3509 836 4129 
Q 1250 4750 2034 4750 
z
" transform="scale(0.015625)"/>
       </defs>
       <use xlink:href="#DejaVuSans-30"/>
      </g>
     </g>
    </g>
    <g id="xtick_2">
     <g id="line2d_2">
      <g>
       <use xlink:href="#mc057a8a7f0" x="133.519595" y="307.584" style="stroke: #000000; stroke-width: 0.8"/>
      </g>
     </g>
     <g id="text_2">
      <!-- 100000 -->
      <g transform="translate(114.432095 322.182437) scale(0.1 -0.1)">
       <defs>
        <path id="DejaVuSans-31" d="M 794 531 
L 1825 531 
L 1825 4091 
L 703 3866 
L 703 4441 
L 1819 4666 
L 2450 4666 
L 2450 531 
L 3481 531 
L 3481 0 
L 794 0 
L 794 531 
z
" transform="scale(0.015625)"/>
       </defs>
       <use xlink:href="#DejaVuSans-31"/>
       <use xlink:href="#DejaVuSans-30" x="63.623047"/>
       <use xlink:href="#DejaVuSans-30" x="127.246094"/>
       <use xlink:href="#DejaVuSans-30" x="190.869141"/>
       <use xlink:href="#DejaVuSans-30" x="254.492188"/>
       <use xlink:href="#DejaVuSans-30" x="318.115234"/>
      </g>
     </g>
    </g>
    <g id="xtick_3">
     <g id="line2d_3">
      <g>
       <use xlink:href="#mc057a8a7f0" x="200.000847" y="307.584" style="stroke: #000000; stroke-width: 0.8"/>
      </g>
     </g>
     <g id="text_3">
      <!-- 200000 -->
      <g transform="translate(180.913347 322.182437) scale(0.1 -0.1)">
       <defs>
        <path id="DejaVuSans-32" d="M 1228 531 
L 3431 531 
L 3431 0 
L 469 0 
L 469 531 
Q 828 903 1448 1529 
Q 2069 2156 2228 2338 
Q 2531 2678 2651 2914 
Q 2772 3150 2772 3378 
Q 2772 3750 2511 3984 
Q 2250 4219 1831 4219 
Q 1534 4219 1204 4116 
Q 875 4013 500 3803 
L 500 4441 
Q 881 4594 1212 4672 
Q 1544 4750 1819 4750 
Q 2544 4750 2975 4387 
Q 3406 4025 3406 3419 
Q 3406 3131 3298 2873 
Q 3191 2616 2906 2266 
Q 2828 2175 2409 1742 
Q 1991 1309 1228 531 
z
" transform="scale(0.015625)"/>
       </defs>
       <use xlink:href="#DejaVuSans-32"/>
       <use xlink:href="#DejaVuSans-30" x="63.623047"/>
       <use xlink:href="#DejaVuSans-30" x="127.246094"/>
       <use xlink:href="#DejaVuSans-30" x="190.869141"/>
       <use xlink:href="#DejaVuSans-30" x="254.492188"/>
       <use xlink:href="#DejaVuSans-30" x="318.115234"/>
      </g>
     </g>
    </g>
    <g id="xtick_4">
     <g id="line2d_4">
      <g>
       <use xlink:href="#mc057a8a7f0" x="266.482099" y="307.584" style="stroke: #000000; stroke-width: 0.8"/>
      </g>
     </g>
     <g id="text_4">
      <!-- 300000 -->
      <g transform="translate(247.394599 322.182437) scale(0.1 -0.1)">
       <defs>
        <path id="DejaVuSans-33" d="M 2597 2516 
Q 3050 2419 3304 2112 
Q 3559 1806 3559 1356 
Q 3559 666 3084 287 
Q 2609 -91 1734 -91 
Q 1441 -91 1130 -33 
Q 819 25 488 141 
L 488 750 
Q 750 597 1062 519 
Q 1375 441 1716 441 
Q 2309 441 2620 675 
Q 2931 909 2931 1356 
Q 2931 1769 2642 2001 
Q 2353 2234 1838 2234 
L 1294 2234 
L 1294 2753 
L 1863 2753 
Q 2328 2753 2575 2939 
Q 2822 3125 2822 3475 
Q 2822 3834 2567 4026 
Q 2313 4219 1838 4219 
Q 1578 4219 1281 4162 
Q 984 4106 628 3988 
L 628 4550 
Q 988 4650 1302 4700 
Q 1616 4750 1894 4750 
Q 2613 4750 3031 4423 
Q 3450 4097 3450 3541 
Q 3450 3153 3228 2886 
Q 3006 2619 2597 2516 
z
" transform="scale(0.015625)"/>
       </defs>
       <use xlink:href="#DejaVuSans-33"/>
       <use xlink:href="#DejaVuSans-30" x="63.623047"/>
       <use xlink:href="#DejaVuSans-30" x="127.246094"/>
       <use xlink:href="#DejaVuSans-30" x="190.869141"/>
       <use xlink:href="#DejaVuSans-30" x="254.492188"/>
       <use xlink:href="#DejaVuSans-30" x="318.115234"/>
      </g>
     </g>
    </g>
    <g id="xtick_5">
     <g id="line2d_5">
      <g>
       <use xlink:href="#mc057a8a7f0" x="332.963351" y="307.584" style="stroke: #000000; stroke-width: 0.8"/>
      </g>
     </g>
     <g id="text_5">
      <!-- 400000 -->
      <g transform="translate(313.875851 322.182437) scale(0.1 -0.1)">
       <defs>
        <path id="DejaVuSans-34" d="M 2419 4116 
L 825 1625 
L 2419 1625 
L 2419 4116 
z
M 2253 4666 
L 3047 4666 
L 3047 1625 
L 3713 1625 
L 3713 1100 
L 3047 1100 
L 3047 0 
L 2419 0 
L 2419 1100 
L 313 1100 
L 313 1709 
L 2253 4666 
z
" transform="scale(0.015625)"/>
       </defs>
       <use xlink:href="#DejaVuSans-34"/>
       <use xlink:href="#DejaVuSans-30" x="63.623047"/>
       <use xlink:href="#DejaVuSans-30" x="127.246094"/>
       <use xlink:href="#DejaVuSans-30" x="190.869141"/>
       <use xlink:href="#DejaVuSans-30" x="254.492188"/>
       <use xlink:href="#DejaVuSans-30" x="318.115234"/>
      </g>
     </g>
    </g>
    <g id="xtick_6">
     <g id="line2d_6">
      <g>
       <use xlink:href="#mc057a8a7f0" x="399.444603" y="307.584" style="stroke: #000000; stroke-width: 0.8"/>
      </g>
     </g>
     <g id="text_6">
      <!-- 500000 -->
      <g transform="translate(380.357103 322.182437) scale(0.1 -0.1)">
       <defs>
        <path id="DejaVuSans-35" d="M 691 4666 
L 3169 4666 
L 3169 4134 
L 1269 4134 
L 1269 2991 
Q 1406 3038 1543 3061 
Q 1681 3084 1819 3084 
Q 2600 3084 3056 2656 
Q 3513 2228 3513 1497 
Q 3513 744 3044 326 
Q 2575 -91 1722 -91 
Q 1428 -91 1123 -41 
Q 819 9 494 109 
L 494 744 
Q 775 591 1075 516 
Q 1375 441 1709 441 
Q 2250 441 2565 725 
Q 2881 1009 2881 1497 
Q 2881 1984 2565 2268 
Q 2250 2553 1709 2553 
Q 1456 2553 1204 2497 
Q 953 2441 691 2322 
L 691 4666 
z
" transform="scale(0.015625)"/>
       </defs>
       <use xlink:href="#DejaVuSans-35"/>
       <use xlink:href="#DejaVuSans-30" x="63.623047"/>
       <use xlink:href="#DejaVuSans-30" x="127.246094"/>
       <use xlink:href="#DejaVuSans-30" x="190.869141"/>
       <use xlink:href="#DejaVuSans-30" x="254.492188"/>
       <use xlink:href="#DejaVuSans-30" x="318.115234"/>
      </g>
     </g>
    </g>
    <g id="text_7">
     <!-- timesteps -->
     <g transform="translate(211.443594 335.860562) scale(0.1 -0.1)">
      <defs>
       <path id="DejaVuSans-74" d="M 1172 4494 
L 1172 3500 
L 2356 3500 
L 2356 3053 
L 1172 3053 
L 1172 1153 
Q 1172 725 1289 603 
Q 1406 481 1766 481 
L 2356 481 
L 2356 0 
L 1766 0 
Q 1100 0 847 248 
Q 594 497 594 1153 
L 594 3053 
L 172 3053 
L 172 3500 
L 594 3500 
L 594 4494 
L 1172 4494 
z
" transform="scale(0.015625)"/>
       <path id="DejaVuSans-69" d="M 603 3500 
L 1178 3500 
L 1178 0 
L 603 0 
L 603 3500 
z
M 603 4863 
L 1178 4863 
L 1178 4134 
L 603 4134 
L 603 4863 
z
" transform="scale(0.015625)"/>
       <path id="DejaVuSans-6d" d="M 3328 2828 
Q 3544 3216 3844 3400 
Q 4144 3584 4550 3584 
Q 5097 3584 5394 3201 
Q 5691 2819 5691 2113 
L 5691 0 
L 5113 0 
L 5113 2094 
Q 5113 2597 4934 2840 
Q 4756 3084 4391 3084 
Q 3944 3084 3684 2787 
Q 3425 2491 3425 1978 
L 3425 0 
L 2847 0 
L 2847 2094 
Q 2847 2600 2669 2842 
Q 2491 3084 2119 3084 
Q 1678 3084 1418 2786 
Q 1159 2488 1159 1978 
L 1159 0 
L 581 0 
L 581 3500 
L 1159 3500 
L 1159 2956 
Q 1356 3278 1631 3431 
Q 1906 3584 2284 3584 
Q 2666 3584 2933 3390 
Q 3200 3197 3328 2828 
z
" transform="scale(0.015625)"/>
       <path id="DejaVuSans-65" d="M 3597 1894 
L 3597 1613 
L 953 1613 
Q 991 1019 1311 708 
Q 1631 397 2203 397 
Q 2534 397 2845 478 
Q 3156 559 3463 722 
L 3463 178 
Q 3153 47 2828 -22 
Q 2503 -91 2169 -91 
Q 1331 -91 842 396 
Q 353 884 353 1716 
Q 353 2575 817 3079 
Q 1281 3584 2069 3584 
Q 2775 3584 3186 3129 
Q 3597 2675 3597 1894 
z
M 3022 2063 
Q 3016 2534 2758 2815 
Q 2500 3097 2075 3097 
Q 1594 3097 1305 2825 
Q 1016 2553 972 2059 
L 3022 2063 
z
" transform="scale(0.015625)"/>
       <path id="DejaVuSans-73" d="M 2834 3397 
L 2834 2853 
Q 2591 2978 2328 3040 
Q 2066 3103 1784 3103 
Q 1356 3103 1142 2972 
Q 928 2841 928 2578 
Q 928 2378 1081 2264 
Q 1234 2150 1697 2047 
L 1894 2003 
Q 2506 1872 2764 1633 
Q 3022 1394 3022 966 
Q 3022 478 2636 193 
Q 2250 -91 1575 -91 
Q 1294 -91 989 -36 
Q 684 19 347 128 
L 347 722 
Q 666 556 975 473 
Q 1284 391 1588 391 
Q 1994 391 2212 530 
Q 2431 669 2431 922 
Q 2431 1156 2273 1281 
Q 2116 1406 1581 1522 
L 1381 1569 
Q 847 1681 609 1914 
Q 372 2147 372 2553 
Q 372 3047 722 3315 
Q 1072 3584 1716 3584 
Q 2034 3584 2315 3537 
Q 2597 3491 2834 3397 
z
" transform="scale(0.015625)"/>
       <path id="DejaVuSans-70" d="M 1159 525 
L 1159 -1331 
L 581 -1331 
L 581 3500 
L 1159 3500 
L 1159 2969 
Q 1341 3281 1617 3432 
Q 1894 3584 2278 3584 
Q 2916 3584 3314 3078 
Q 3713 2572 3713 1747 
Q 3713 922 3314 415 
Q 2916 -91 2278 -91 
Q 1894 -91 1617 61 
Q 1341 213 1159 525 
z
M 3116 1747 
Q 3116 2381 2855 2742 
Q 2594 3103 2138 3103 
Q 1681 3103 1420 2742 
Q 1159 2381 1159 1747 
Q 1159 1113 1420 752 
Q 1681 391 2138 391 
Q 2594 391 2855 752 
Q 3116 1113 3116 1747 
z
" transform="scale(0.015625)"/>
      </defs>
      <use xlink:href="#DejaVuSans-74"/>
      <use xlink:href="#DejaVuSans-69" x="39.208984"/>
      <use xlink:href="#DejaVuSans-6d" x="66.992188"/>
      <use xlink:href="#DejaVuSans-65" x="164.404297"/>
      <use xlink:href="#DejaVuSans-73" x="225.927734"/>
      <use xlink:href="#DejaVuSans-74" x="278.027344"/>
      <use xlink:href="#DejaVuSans-65" x="317.236328"/>
      <use xlink:href="#DejaVuSans-70" x="378.759766"/>
      <use xlink:href="#DejaVuSans-73" x="442.236328"/>
     </g>
    </g>
   </g>
   <g id="matplotlib.axis_2">
    <g id="ytick_1">
     <g id="line2d_7">
      <defs>
       <path id="mc00c862be5" d="M 0 0 
L -3.5 0 
" style="stroke: #000000; stroke-width: 0.8"/>
      </defs>
      <g>
       <use xlink:href="#mc00c862be5" x="57.6" y="271.326724" style="stroke: #000000; stroke-width: 0.8"/>
      </g>
     </g>
     <g id="text_8">
      <!-- −100 -->
      <g transform="translate(23.132812 275.125943) scale(0.1 -0.1)">
       <defs>
        <path id="DejaVuSans-2212" d="M 678 2272 
L 4684 2272 
L 4684 1741 
L 678 1741 
L 678 2272 
z
" transform="scale(0.015625)"/>
       </defs>
       <use xlink:href="#DejaVuSans-2212"/>
       <use xlink:href="#DejaVuSans-31" x="83.789062"/>
       <use xlink:href="#DejaVuSans-30" x="147.412109"/>
       <use xlink:href="#DejaVuSans-30" x="211.035156"/>
      </g>
     </g>
    </g>
    <g id="ytick_2">
     <g id="line2d_8">
      <g>
       <use xlink:href="#mc00c862be5" x="57.6" y="221.868388" style="stroke: #000000; stroke-width: 0.8"/>
      </g>
     </g>
     <g id="text_9">
      <!-- −50 -->
      <g transform="translate(29.495313 225.667607) scale(0.1 -0.1)">
       <use xlink:href="#DejaVuSans-2212"/>
       <use xlink:href="#DejaVuSans-35" x="83.789062"/>
       <use xlink:href="#DejaVuSans-30" x="147.412109"/>
      </g>
     </g>
    </g>
    <g id="ytick_3">
     <g id="line2d_9">
      <g>
       <use xlink:href="#mc00c862be5" x="57.6" y="172.410052" style="stroke: #000000; stroke-width: 0.8"/>
      </g>
     </g>
     <g id="text_10">
      <!-- 0 -->
      <g transform="translate(44.2375 176.209271) scale(0.1 -0.1)">
       <use xlink:href="#DejaVuSans-30"/>
      </g>
     </g>
    </g>
    <g id="ytick_4">
     <g id="line2d_10">
      <g>
       <use xlink:href="#mc00c862be5" x="57.6" y="122.951716" style="stroke: #000000; stroke-width: 0.8"/>
      </g>
     </g>
     <g id="text_11">
      <!-- 50 -->
      <g transform="translate(37.875 126.750934) scale(0.1 -0.1)">
       <use xlink:href="#DejaVuSans-35"/>
       <use xlink:href="#DejaVuSans-30" x="63.623047"/>
      </g>
     </g>
    </g>
    <g id="ytick_5">
     <g id="line2d_11">
      <g>
       <use xlink:href="#mc00c862be5" x="57.6" y="73.493379" style="stroke: #000000; stroke-width: 0.8"/>
      </g>
     </g>
     <g id="text_12">
      <!-- 100 -->
      <g transform="translate(31.5125 77.292598) scale(0.1 -0.1)">
       <use xlink:href="#DejaVuSans-31"/>
       <use xlink:href="#DejaVuSans-30" x="63.623047"/>
       <use xlink:href="#DejaVuSans-30" x="127.246094"/>
      </g>
     </g>
    </g>
    <g id="text_13">
     <!-- SAC losses -->
     <g transform="translate(17.053125 201.548313) rotate(-90) scale(0.1 -0.1)">
      <defs>
       <path id="DejaVuSans-53" d="M 3425 4513 
L 3425 3897 
Q 3066 4069 2747 4153 
Q 2428 4238 2131 4238 
Q 1616 4238 1336 4038 
Q 1056 3838 1056 3469 
Q 1056 3159 1242 3001 
Q 1428 2844 1947 2747 
L 2328 2669 
Q 3034 2534 3370 2195 
Q 3706 1856 3706 1288 
Q 3706 609 3251 259 
Q 2797 -91 1919 -91 
Q 1588 -91 1214 -16 
Q 841 59 441 206 
L 441 856 
Q 825 641 1194 531 
Q 1563 422 1919 422 
Q 2459 422 2753 634 
Q 3047 847 3047 1241 
Q 3047 1584 2836 1778 
Q 2625 1972 2144 2069 
L 1759 2144 
Q 1053 2284 737 2584 
Q 422 2884 422 3419 
Q 422 4038 858 4394 
Q 1294 4750 2059 4750 
Q 2388 4750 2728 4690 
Q 3069 4631 3425 4513 
z
" transform="scale(0.015625)"/>
       <path id="DejaVuSans-41" d="M 2188 4044 
L 1331 1722 
L 3047 1722 
L 2188 4044 
z
M 1831 4666 
L 2547 4666 
L 4325 0 
L 3669 0 
L 3244 1197 
L 1141 1197 
L 716 0 
L 50 0 
L 1831 4666 
z
" transform="scale(0.015625)"/>
       <path id="DejaVuSans-43" d="M 4122 4306 
L 4122 3641 
Q 3803 3938 3442 4084 
Q 3081 4231 2675 4231 
Q 1875 4231 1450 3742 
Q 1025 3253 1025 2328 
Q 1025 1406 1450 917 
Q 1875 428 2675 428 
Q 3081 428 3442 575 
Q 3803 722 4122 1019 
L 4122 359 
Q 3791 134 3420 21 
Q 3050 -91 2638 -91 
Q 1578 -91 968 557 
Q 359 1206 359 2328 
Q 359 3453 968 4101 
Q 1578 4750 2638 4750 
Q 3056 4750 3426 4639 
Q 3797 4528 4122 4306 
z
" transform="scale(0.015625)"/>
       <path id="DejaVuSans-20" transform="scale(0.015625)"/>
       <path id="DejaVuSans-6c" d="M 603 4863 
L 1178 4863 
L 1178 0 
L 603 0 
L 603 4863 
z
" transform="scale(0.015625)"/>
       <path id="DejaVuSans-6f" d="M 1959 3097 
Q 1497 3097 1228 2736 
Q 959 2375 959 1747 
Q 959 1119 1226 758 
Q 1494 397 1959 397 
Q 2419 397 2687 759 
Q 2956 1122 2956 1747 
Q 2956 2369 2687 2733 
Q 2419 3097 1959 3097 
z
M 1959 3584 
Q 2709 3584 3137 3096 
Q 3566 2609 3566 1747 
Q 3566 888 3137 398 
Q 2709 -91 1959 -91 
Q 1206 -91 779 398 
Q 353 888 353 1747 
Q 353 2609 779 3096 
Q 1206 3584 1959 3584 
z
" transform="scale(0.015625)"/>
      </defs>
      <use xlink:href="#DejaVuSans-53"/>
      <use xlink:href="#DejaVuSans-41" x="65.351562"/>
      <use xlink:href="#DejaVuSans-43" x="132.009766"/>
      <use xlink:href="#DejaVuSans-20" x="201.833984"/>
      <use xlink:href="#DejaVuSans-6c" x="233.621094"/>
      <use xlink:href="#DejaVuSans-6f" x="261.404297"/>
      <use xlink:href="#DejaVuSans-73" x="322.585938"/>
      <use xlink:href="#DejaVuSans-73" x="374.685547"/>
      <use xlink:href="#DejaVuSans-65" x="426.785156"/>
      <use xlink:href="#DejaVuSans-73" x="488.308594"/>
     </g>
    </g>
   </g>
   <g id="line2d_12">
    <path d="M 73.832727 174.543169 
L 73.978986 176.244661 
L 74.07206 175.415827 
L 74.205022 175.398418 
L 74.470947 174.508344 
L 74.949612 173.770719 
L 75.508055 173.618841 
L 76.359015 173.939677 
L 77.701936 174.506112 
L 78.021046 174.723489 
L 78.313564 174.907077 
L 78.938487 174.895178 
L 79.523522 175.436943 
L 80.813259 176.017776 
L 81.132369 176.442689 
L 81.185554 176.096692 
L 82.249254 177.017838 
L 84.296876 177.991986 
L 84.562801 178.382544 
L 85.333984 178.673686 
L 85.719575 178.619519 
L 86.743386 179.009122 
L 86.863053 179.65782 
L 87.993234 180.121131 
L 89.003749 181.570711 
L 89.136711 180.844054 
L 91.290704 182.016543 
L 91.423667 181.864163 
L 92.420885 183.410406 
L 92.567144 182.922304 
L 93.32503 183.856693 
L 93.697325 183.534023 
L 94.468508 184.554743 
L 94.840803 184.518499 
L 95.545504 184.943208 
L 95.944392 184.963074 
L 96.064058 184.836291 
L 96.223613 185.102643 
L 96.489538 186.149745 
L 97.36709 186.342555 
L 97.726089 186.896959 
L 98.497272 186.9947 
L 98.85627 186.695923 
L 99.614157 187.65447 
L 100.013044 187.12303 
L 100.225784 188.180141 
L 101.143226 188.283958 
L 101.289484 188.462212 
L 102.167037 189.344868 
L 102.446258 189.032135 
L 103.363699 189.431884 
L 103.603032 189.918311 
L 103.709402 188.99819 
L 104.493881 189.776772 
L 104.666732 191.129279 
L 105.584173 191.652741 
L 105.823506 191.625958 
L 106.740947 192.240682 
L 106.873909 192.834486 
L 107.817943 192.795941 
L 107.884424 192.029158 
L 108.482756 193.067575 
L 108.961421 193.165803 
L 109.493271 193.125934 
L 110.078306 194.958668 
L 110.610156 193.13062 
L 111.208487 194.978587 
L 111.713745 194.803516 
L 111.846707 195.298852 
L 112.923703 195.894053 
L 114.053885 196.730317 
L 115.117585 197.033354 
L 115.197362 196.385395 
L 116.247766 197.603458 
L 116.34084 196.847389 
L 117.391244 197.111482 
L 117.40454 197.460115 
L 118.508129 198.497637 
L 118.548017 198.27858 
L 119.598421 199.653106 
L 119.74468 198.566064 
L 121.12749 199.604222 
L 121.313637 201.754799 
L 122.164597 200.50985 
L 123.334667 202.515395 
L 123.68037 200.651116 
L 124.930217 203.6581 
L 125.821066 203.850588 
L 125.874251 202.05074 
L 126.406101 204.113233 
L 127.602764 203.637043 
L 128.520205 206.153763 
L 128.799426 205.271726 
L 129.597201 205.353186 
L 129.783349 205.056599 
L 130.687494 204.665251 
L 130.926826 206.47367 
L 131.963934 206.496948 
L 132.176674 206.230008 
L 133.160596 206.436842 
L 133.346744 208.098336 
L 134.31737 207.306811 
L 134.516814 207.644203 
L 135.686884 208.344639 
L 135.91292 208.70723 
L 136.910139 209.823635 
L 137.202657 209.821088 
L 138.186579 209.470217 
L 138.492393 209.487726 
L 139.502908 210.502227 
L 139.915092 210.140172 
L 140.91231 212.739025 
L 141.390975 212.314521 
L 142.467972 213.344734 
L 142.906748 213.122875 
L 143.638042 213.320411 
L 144.116707 213.770257 
L 144.715038 213.84048 
L 145.167111 214.580072 
L 145.778738 213.900518 
L 146.377069 215.785743 
L 147.068474 215.753609 
L 147.613621 213.220975 
L 148.384803 217.402527 
L 148.956542 216.422096 
L 149.701132 216.100691 
L 150.046834 214.674561 
L 150.751536 216.657135 
L 150.804721 215.232046 
L 151.948198 217.670863 
L 152.121049 215.580932 
L 153.583637 218.440367 
L 154.501078 218.964507 
L 154.860077 218.622609 
L 155.790815 218.471984 
L 156.189702 220.029066 
L 156.827922 218.534863 
L 157.54592 219.688658 
L 158.011288 221.079263 
L 159.207951 218.779506 
L 160.510983 220.944169 
L 161.627869 221.551421 
L 161.840609 221.376084 
L 162.944197 222.999407 
L 163.356381 224.032383 
L 164.287119 223.509035 
L 164.632821 223.684587 
L 165.138079 221.002901 
L 165.802891 222.597739 
L 166.294852 224.314454 
L 167.238886 224.15621 
L 167.5447 224.583178 
L 168.50203 224.021044 
L 168.82114 225.694285 
L 169.259916 223.820281 
L 170.137469 225.825678 
L 170.775689 225.15335 
L 171.320835 223.317672 
L 171.759611 224.978786 
L 172.823311 227.728525 
L 173.169014 224.710605 
L 173.887011 227.99777 
L 174.591713 227.79511 
L 175.349599 228.303734 
L 176.014411 226.385295 
L 176.439891 225.79397 
L 176.945149 227.912582 
L 177.742924 229.549275 
L 178.50081 231.989684 
L 179.404955 229.825697 
L 180.09636 230.025636 
L 181.080283 229.166575 
L 181.625429 231.700893 
L 182.556167 231.543019 
L 183.127905 230.074928 
L 184.098532 230.953459 
L 184.750048 233.462763 
L 185.6276 233.795336 
L 186.358894 233.546679 
L 187.090188 232.675173 
L 187.874667 232.989891 
L 188.433109 234.913632 
L 188.831997 233.475838 
L 190.015363 232.871974 
L 190.201511 234.085305 
L 191.198729 234.568402 
L 191.318396 235.746124 
L 192.727798 233.961746 
L 192.967131 234.572315 
L 194.456311 237.084834 
L 194.735532 236.161293 
L 195.692862 236.740347 
L 196.118342 237.372176 
L 196.690081 238.745676 
L 197.846855 239.171078 
L 198.259038 238.825294 
L 199.508886 234.752618 
L 199.695033 235.600506 
L 200.545993 237.456835 
L 201.117732 239.527269 
L 202.274506 239.224079 
L 202.739875 238.786541 
L 203.843463 241.636569 
L 204.268943 238.668865 
L 205.518791 242.657039 
L 205.970864 241.860903 
L 207.034564 241.108885 
L 207.553117 241.443946 
L 208.470559 245.085679 
L 209.294926 244.376225 
L 210.199071 243.213687 
L 210.863884 240.662752 
L 211.595177 241.559999 
L 212.246694 244.638829 
L 212.68547 243.288355 
L 213.190727 245.34734 
L 213.975206 243.897648 
L 214.866055 245.677404 
L 215.690423 246.598522 
L 216.076014 242.07197 
L 217.884304 245.937473 
L 218.841634 244.308637 
L 219.546335 244.402103 
L 220.357406 246.143801 
L 221.181774 246.121976 
L 221.966253 246.431234 
L 222.697546 246.594583 
L 223.548507 247.639052 
L 224.253208 250.24292 
L 225.170649 247.353612 
L 225.795573 247.502486 
L 227.417715 250.555989 
L 228.375045 249.258953 
L 229.026562 249.922742 
L 229.824337 249.536666 
L 230.635408 248.293657 
L 232.191069 257.561012 
L 232.789401 253.319652 
L 233.494102 253.302717 
L 234.238692 249.192594 
L 234.930097 253.96271 
L 235.634798 250.757329 
L 236.512351 252.70986 
L 237.350014 253.177124 
L 238.041419 257.056391 
L 239.065231 251.508448 
L 239.490711 253.012899 
L 240.846928 253.846558 
L 241.23252 256.25009 
L 242.030295 254.427604 
L 242.961032 256.144081 
L 243.692326 253.390787 
L 244.689545 253.998511 
L 245.154913 259.769793 
L 246.856833 255.009835 
L 247.136055 261.348337 
L 248.399198 258.263508 
L 248.57205 255.601319 
L 249.675639 260.792897 
L 250.114415 257.250841 
L 251.417447 259.13075 
L 251.736557 260.128527 
L 252.640702 262.3505 
L 253.132664 259.76943 
L 253.730995 261.141534 
L 254.781399 262.443959 
L 255.4861 258.787101 
L 256.523207 263.997252 
L 257.08165 263.824462 
L 258.185239 262.041227 
L 258.796866 262.032042 
L 259.900455 261.438098 
L 260.113195 260.37123 
L 261.615671 264.478976 
L 261.841708 261.626616 
L 263.184629 264.964352 
L 263.503739 265.01616 
L 264.673809 260.845596 
L 265.16577 260.86441 
L 265.69762 264.104053 
L 266.787913 262.255297 
L 267.1868 265.639182 
L 268.396759 261.551647 
L 268.622795 263.091062 
L 269.95242 263.08113 
L 270.3779 263.97431 
L 271.202268 267.475727 
L 272.106413 268.212802 
L 273.010558 266.001539 
L 273.688667 267.763514 
L 274.366775 264.861339 
L 275.403883 267.00878 
L 275.869252 267.658977 
L 276.853174 264.497163 
L 277.517987 271.107461 
L 278.594983 270.03891 
L 279.299684 265.185728 
L 280.243718 268.921924 
L 281.041493 268.090236 
L 281.466973 266.775895 
L 282.131786 270.045574 
L 283.089116 266.169763 
L 283.900187 268.030745 
L 284.525111 265.521603 
L 285.562218 266.601837 
L 286.293512 271.362934 
L 287.290731 272.43928 
L 288.07521 268.232861 
L 289.537797 273.427375 
L 290.30898 268.768854 
L 291.292902 270.081904 
L 291.744975 271.745101 
L 293.114488 271.522796 
L 293.234155 272.374069 
L 295.082334 270.271131 
L 295.481221 275.803709 
L 296.185922 275.388744 
L 297.262919 273.324528 
L 298.07399 274.092047 
L 299.057912 273.431526 
L 299.217467 273.901069 
L 300.919387 275.543271 
L 301.132127 277.554636 
L 302.315494 273.993034 
L 302.96701 273.652736 
L 303.472268 272.702647 
L 304.589153 275.178476 
L 305.240669 278.173673 
L 306.304369 276.674852 
L 306.37085 274.33392 
L 307.780253 273.807165 
L 308.17914 272.754772 
L 309.216248 273.672554 
L 309.841171 272.067754 
L 310.692131 276.821923 
L 311.210685 275.907069 
L 312.659977 281.996763 
L 313.723677 278.425568 
L 314.069379 276.336064 
L 315.545263 274.283146 
L 316.249964 279.363161 
L 316.941369 278.528664 
L 318.257698 278.808716 
L 319.228324 276.890938 
L 320.012803 280.219988 
L 320.996726 281.387084 
L 321.728019 277.944267 
L 322.313054 281.564221 
L 323.695864 286.020143 
L 324.161233 282.410158 
L 324.972304 280.080335 
L 325.836561 283.765961 
L 326.328522 282.131751 
L 327.631554 282.895768 
L 327.963961 278.709628 
L 329.38666 280.427297 
L 329.745658 280.54329 
L 331.141765 282.527291 
L 331.527356 282.779194 
L 333.136202 279.841201 
L 333.348942 281.900315 
L 334.758345 283.23836 
L 334.9179 282.943607 
L 336.19434 280.825184 
L 336.633116 283.405408 
L 337.856371 279.090331 
L 338.202074 288.228614 
L 338.507887 281.868936 
L 339.757735 285.669023 
L 340.223104 282.409592 
L 341.3001 277.352399 
L 341.951616 281.682079 
L 342.323911 282.618561 
L 343.626944 284.505677 
L 343.999239 281.501855 
L 345.249086 282.042873 
L 345.435234 285.32465 
L 347.004191 287.074121 
L 347.216931 281.786616 
L 348.719408 284.942724 
L 349.011925 284.949788 
L 349.184776 286.511496 
L 349.463998 286.253073 
L 350.168699 283.075253 
L 351.139325 281.118631 
L 351.538213 283.416003 
L 353.040689 285.42644 
L 353.293318 278.875762 
L 354.396906 286.132001 
L 354.875571 287.103266 
L 355.97916 285.643243 
L 356.710454 288.227988 
L 357.322082 285.577677 
L 357.707673 283.357984 
L 358.279412 283.255544 
L 358.598522 284.401774 
L 359.143668 284.148656 
L 359.436185 283.031708 
L 360.646144 281.577956 
L 361.058328 279.968334 
L 361.457215 286.039266 
L 362.746952 284.52056 
L 363.252209 283.361863 
L 363.797355 288.028135 
L 365.073796 284.610139 
L 365.805089 288.324284 
L 366.815604 287.092844 
L 367.267677 285.055722 
L 368.650487 285.474528 
L 369.049374 283.90461 
L 369.381781 290.0212 
L 369.873742 285.191224 
L 370.378999 291.698667 
L 370.804479 285.791492 
L 372.094216 284.127435 
L 372.586177 295.488 
L 373.543507 281.102723 
L 373.929098 288.478758 
L 374.713577 290.20211 
L 375.631018 286.258424 
L 375.843758 287.844009 
L 377.146791 287.37427 
L 377.984455 285.892029 
L 378.928488 289.377794 
L 379.553412 283.318122 
L 380.657001 286.021592 
L 381.295221 288.744381 
L 381.906849 285.432267 
L 382.651439 282.112409 
L 383.595472 283.536721 
L 384.486321 283.998929 
L 385.48354 282.087837 
L 386.174945 286.439319 
L 387.251941 280.873958 
L 387.730606 286.814966 
L 389.219786 284.932989 
L 389.685155 287.152086 
L 390.948299 282.989461 
L 391.559926 283.223063 
L 392.676811 281.928442 
L 393.301735 284.972157 
L 394.378731 282.782952 
L 395.096729 283.499727 
L 396.160429 283.834349 
L 396.798649 285.520096 
L 397.942126 285.071789 
L 398.487273 285.654639 
L 398.487273 285.654639 
" clip-path="url(#p2aeccce025)" style="fill: none; stroke: #1f77b4; stroke-width: 1.5; stroke-linecap: square"/>
   </g>
   <g id="line2d_13">
    <path d="M 73.832727 164.010896 
L 74.205022 172.00251 
L 74.763465 172.371467 
L 76.771199 172.386942 
L 80.813259 172.292547 
L 82.249254 172.211315 
L 83.419324 171.912873 
L 84.296876 171.769495 
L 84.562801 172.093126 
L 85.333984 172.270626 
L 85.719575 171.865616 
L 86.504054 171.800556 
L 86.743386 171.569873 
L 86.863053 172.075099 
L 87.873568 172.097286 
L 87.993234 171.835757 
L 89.003749 171.575203 
L 89.136711 170.661563 
L 90.160523 171.624413 
L 90.280189 171.249821 
L 91.290704 170.428511 
L 91.423667 170.918675 
L 92.420885 171.146037 
L 92.567144 170.96233 
L 93.32503 171.475669 
L 93.697325 171.591571 
L 94.468508 171.143543 
L 94.840803 171.462821 
L 95.545504 171.205968 
L 95.944392 170.685333 
L 96.064058 170.117954 
L 96.489538 171.383453 
L 97.36709 171.8069 
L 97.726089 171.525617 
L 98.85627 171.525826 
L 99.614157 171.139818 
L 100.013044 170.079541 
L 100.225784 170.887293 
L 101.143226 171.124622 
L 101.289484 171.730871 
L 102.167037 171.142005 
L 102.446258 170.584175 
L 103.363699 169.694336 
L 103.603032 170.49719 
L 103.709402 171.412116 
L 104.493881 170.216601 
L 104.666732 170.747077 
L 105.584173 171.197296 
L 105.823506 170.04668 
L 106.740947 170.654955 
L 106.873909 171.627361 
L 107.817943 169.672243 
L 107.884424 170.620972 
L 108.482756 167.241348 
L 108.961421 169.999818 
L 109.493271 170.230072 
L 110.078306 169.190674 
L 110.610156 170.665865 
L 111.088821 168.242708 
L 111.208487 171.371509 
L 111.713745 168.878086 
L 111.846707 171.160939 
L 112.843926 171.706438 
L 112.923703 171.517852 
L 113.974107 170.477786 
L 114.053885 171.50023 
L 115.117585 169.725643 
L 115.197362 168.608103 
L 116.247766 169.286116 
L 116.34084 171.210872 
L 117.391244 168.192245 
L 117.40454 170.154424 
L 118.508129 171.316193 
L 118.548017 169.93368 
L 119.598421 167.960521 
L 119.74468 166.903826 
L 121.12749 167.16829 
L 121.313637 170.859002 
L 122.164597 170.179461 
L 122.470411 167.598451 
L 123.334667 169.799754 
L 123.68037 169.027266 
L 124.478145 169.725768 
L 124.930217 167.027574 
L 125.821066 167.288344 
L 125.874251 166.459643 
L 126.406101 169.691583 
L 127.097506 169.344953 
L 127.602764 170.486376 
L 128.520205 169.474539 
L 128.799426 167.862189 
L 129.597201 169.880395 
L 129.783349 167.790826 
L 130.687494 165.842331 
L 130.926826 162.747403 
L 131.963934 167.793429 
L 132.176674 161.253479 
L 133.160596 160.848473 
L 133.346744 167.009131 
L 134.31737 171.075928 
L 134.516814 169.935978 
L 135.686884 165.624466 
L 135.91292 163.428386 
L 136.910139 168.74762 
L 137.202657 169.600354 
L 138.492393 166.986369 
L 139.502908 154.827657 
L 139.915092 165.997037 
L 140.91231 166.019095 
L 141.390975 168.915473 
L 142.467972 166.839299 
L 142.906748 160.43881 
L 143.638042 162.301104 
L 144.116707 165.521769 
L 144.715038 165.432504 
L 145.167111 164.378371 
L 145.778738 164.315004 
L 146.377069 166.616756 
L 147.068474 164.74677 
L 147.613621 161.7737 
L 148.956542 168.895017 
L 149.701132 167.732325 
L 150.046834 161.076251 
L 150.751536 167.491759 
L 150.804721 158.937116 
L 151.948198 167.35544 
L 152.121049 158.47314 
L 153.264527 165.118225 
L 153.583637 158.163997 
L 154.501078 156.170102 
L 154.860077 164.247977 
L 155.790815 161.538384 
L 156.189702 161.343114 
L 156.827922 164.341413 
L 157.54592 169.140768 
L 158.011288 168.285991 
L 158.729286 166.392453 
L 159.207951 155.518878 
L 160.125392 163.064718 
L 160.510983 158.235894 
L 161.840609 165.818747 
L 162.944197 169.445779 
L 163.356381 164.839164 
L 164.287119 165.295296 
L 164.632821 163.838946 
L 165.138079 154.622631 
L 165.802891 168.530955 
L 166.294852 167.934547 
L 167.5447 165.387598 
L 168.50203 164.296586 
L 168.82114 157.828189 
L 169.259916 162.370929 
L 170.137469 165.6024 
L 170.775689 153.411141 
L 171.320835 164.476939 
L 171.759611 161.787015 
L 172.823311 162.974795 
L 173.169014 166.553488 
L 173.887011 166.686128 
L 174.591713 168.589359 
L 175.349599 163.130624 
L 176.014411 161.831614 
L 176.439891 161.847896 
L 176.945149 154.923395 
L 178.50081 164.916389 
L 179.404955 159.558561 
L 180.09636 154.595691 
L 181.080283 145.900835 
L 181.625429 166.178916 
L 182.556167 164.336343 
L 183.127905 166.069617 
L 184.098532 164.957051 
L 184.750048 150.132519 
L 185.6276 163.158026 
L 186.358894 161.165763 
L 187.090188 133.540355 
L 187.874667 148.691142 
L 188.433109 135.376342 
L 188.831997 159.729537 
L 190.015363 166.58042 
L 190.201511 159.227638 
L 191.198729 145.94031 
L 191.318396 133.121039 
L 192.727798 159.16125 
L 192.967131 165.715884 
L 194.735532 159.423986 
L 195.692862 160.271182 
L 196.118342 158.494411 
L 196.690081 162.147446 
L 197.846855 164.929555 
L 198.259038 156.488107 
L 199.508886 140.993016 
L 199.695033 162.294816 
L 200.545993 164.312576 
L 201.117732 140.145095 
L 202.274506 143.378044 
L 202.739875 150.836762 
L 203.843463 164.996416 
L 204.268943 145.852542 
L 205.518791 158.960533 
L 205.970864 159.662492 
L 207.034564 161.805436 
L 207.553117 156.036602 
L 209.294926 157.613264 
L 210.199071 160.109076 
L 210.863884 102.171056 
L 211.595177 162.962276 
L 212.246694 162.073001 
L 212.68547 158.072496 
L 213.190727 139.556037 
L 213.975206 162.109642 
L 214.866055 156.75405 
L 215.690423 163.21792 
L 216.076014 164.141531 
L 217.086529 162.909918 
L 217.884304 157.45777 
L 218.841634 155.435291 
L 219.546335 151.795985 
L 220.357406 161.36291 
L 221.181774 161.698371 
L 221.966253 159.436021 
L 222.697546 152.707875 
L 223.548507 128.072094 
L 224.253208 159.966061 
L 225.170649 130.687901 
L 225.795573 157.646539 
L 226.752903 164.931537 
L 227.417715 162.082536 
L 228.375045 154.317761 
L 229.026562 155.965725 
L 229.824337 136.911674 
L 230.635408 145.115621 
L 231.459775 150.924893 
L 232.191069 157.484925 
L 232.789401 137.543102 
L 233.494102 161.952531 
L 234.238692 154.517976 
L 234.930097 158.279069 
L 235.634798 163.911162 
L 236.512351 142.838176 
L 237.350014 156.642391 
L 238.041419 154.851335 
L 239.065231 154.24979 
L 239.490711 146.043508 
L 240.846928 153.346616 
L 241.23252 164.585215 
L 242.030295 150.483163 
L 242.961032 159.557127 
L 243.692326 162.267787 
L 244.689545 146.472678 
L 245.154913 152.741205 
L 246.418057 152.434002 
L 246.856833 153.868821 
L 247.136055 145.118647 
L 248.399198 155.850292 
L 248.57205 153.061436 
L 249.675639 143.852666 
L 250.114415 148.283748 
L 251.417447 156.504641 
L 251.736557 127.191125 
L 252.640702 156.052622 
L 253.132664 159.545634 
L 253.730995 157.78225 
L 254.781399 163.514617 
L 255.4861 147.274809 
L 256.523207 159.97661 
L 257.08165 141.139835 
L 258.185239 135.354584 
L 258.796866 163.632088 
L 259.900455 154.615722 
L 260.113195 134.225591 
L 261.615671 152.074792 
L 261.841708 137.038534 
L 263.184629 161.101402 
L 263.503739 135.651103 
L 264.673809 163.2994 
L 265.16577 124.247574 
L 265.69762 160.457431 
L 266.787913 164.093515 
L 267.1868 156.667896 
L 268.396759 153.075924 
L 268.622795 157.633689 
L 269.95242 112.713472 
L 270.3779 117.657913 
L 271.202268 152.940801 
L 272.106413 151.963442 
L 273.010558 155.944417 
L 273.688667 151.77729 
L 274.366775 152.426849 
L 275.403883 163.803018 
L 275.869252 142.762207 
L 276.853174 158.61445 
L 277.517987 159.093229 
L 278.594983 152.13613 
L 279.299684 129.502394 
L 280.243718 159.40203 
L 281.041493 133.767187 
L 281.466973 156.037962 
L 282.131786 160.040543 
L 283.089116 148.690745 
L 283.900187 112.666855 
L 284.525111 104.929625 
L 285.562218 155.282224 
L 286.293512 155.007639 
L 287.290731 141.660481 
L 288.07521 159.066222 
L 288.992651 141.326609 
L 289.537797 150.969064 
L 290.30898 151.270677 
L 291.292902 143.621168 
L 291.744975 160.245677 
L 293.114488 150.440973 
L 293.234155 146.212103 
L 295.082334 161.820108 
L 295.481221 152.492921 
L 296.185922 160.294627 
L 297.262919 154.690835 
L 298.07399 161.318317 
L 299.057912 135.532763 
L 299.217467 161.6665 
L 300.919387 158.689867 
L 301.132127 104.025917 
L 302.315494 136.552411 
L 302.96701 158.230733 
L 303.472268 124.120453 
L 305.240669 159.903896 
L 306.304369 101.357283 
L 306.37085 157.848664 
L 307.780253 128.177409 
L 308.17914 156.801007 
L 309.216248 149.392557 
L 309.841171 155.621812 
L 310.692131 162.294086 
L 311.210685 158.314437 
L 312.659977 149.159677 
L 313.723677 154.685031 
L 314.069379 158.776965 
L 315.545263 145.838441 
L 316.249964 158.128938 
L 316.941369 156.176543 
L 318.257698 154.618469 
L 319.228324 160.705215 
L 320.012803 147.090998 
L 320.996726 153.826878 
L 321.728019 152.677201 
L 322.313054 144.941023 
L 323.695864 162.865287 
L 324.161233 103.495578 
L 324.972304 145.60815 
L 325.836561 99.807009 
L 326.328522 157.707766 
L 327.631554 91.082679 
L 327.963961 158.042999 
L 329.38666 113.04503 
L 329.745658 147.855591 
L 331.141765 154.372494 
L 331.527356 142.693662 
L 333.136202 152.9661 
L 333.348942 158.387132 
L 334.758345 135.576447 
L 334.9179 82.281411 
L 336.19434 111.150352 
L 336.633116 96.876925 
L 337.856371 133.160776 
L 338.202074 154.66701 
L 338.507887 138.190175 
L 339.757735 134.45982 
L 340.223104 141.405189 
L 341.3001 114.057758 
L 341.951616 134.666729 
L 342.323911 114.563239 
L 343.626944 147.28095 
L 343.999239 151.898691 
L 345.249086 140.92912 
L 345.435234 110.573744 
L 347.004191 156.939191 
L 347.216931 64.032556 
L 348.719408 110.860486 
L 349.011925 140.754362 
L 349.184776 138.143362 
L 349.463998 153.157789 
L 350.168699 151.590051 
L 351.139325 132.294636 
L 351.538213 144.667741 
L 353.040689 147.379199 
L 353.293318 117.087889 
L 354.396906 152.828653 
L 354.875571 157.52668 
L 355.97916 140.508089 
L 356.710454 140.92093 
L 357.322082 125.788959 
L 357.707673 155.517412 
L 358.279412 140.637229 
L 358.598522 153.971398 
L 359.436185 146.778095 
L 360.646144 150.215423 
L 361.058328 151.778565 
L 361.457215 159.71904 
L 362.746952 118.62619 
L 363.252209 53.568 
L 363.797355 150.49477 
L 365.073796 133.256499 
L 365.805089 146.938052 
L 366.815604 109.643389 
L 367.267677 80.683162 
L 368.650487 155.781192 
L 369.049374 142.655028 
L 369.381781 85.827701 
L 369.873742 159.632793 
L 370.378999 150.106743 
L 370.804479 148.931566 
L 372.094216 162.543881 
L 372.586177 153.923876 
L 373.543507 160.388488 
L 373.929098 156.329949 
L 374.713577 125.036198 
L 375.631018 134.694542 
L 375.843758 157.37879 
L 377.146791 160.569285 
L 377.984455 158.107762 
L 378.928488 91.491985 
L 379.553412 164.354333 
L 380.657001 109.886813 
L 381.295221 157.489198 
L 381.906849 111.951485 
L 382.651439 140.719873 
L 383.595472 162.514747 
L 384.486321 152.572354 
L 385.48354 156.519418 
L 386.174945 111.144753 
L 387.251941 100.702317 
L 387.730606 107.473096 
L 389.219786 114.494107 
L 389.685155 100.312143 
L 390.948299 157.853767 
L 391.559926 157.067157 
L 392.676811 141.9452 
L 393.301735 125.865838 
L 395.096729 159.560974 
L 396.160429 165.480885 
L 396.798649 155.695044 
L 397.942126 135.088082 
L 398.487273 129.091097 
L 398.487273 129.091097 
" clip-path="url(#p2aeccce025)" style="fill: none; stroke: #ff7f0e; stroke-width: 1.5; stroke-linecap: square"/>
   </g>
   <g id="patch_3">
    <path d="M 57.6 307.584 
L 57.6 41.472 
" style="fill: none; stroke: #000000; stroke-width: 0.8; stroke-linejoin: miter; stroke-linecap: square"/>
   </g>
   <g id="patch_4">
    <path d="M 414.72 307.584 
L 414.72 41.472 
" style="fill: none; stroke: #000000; stroke-width: 0.8; stroke-linejoin: miter; stroke-linecap: square"/>
   </g>
   <g id="patch_5">
    <path d="M 57.6 307.584 
L 414.72 307.584 
" style="fill: none; stroke: #000000; stroke-width: 0.8; stroke-linejoin: miter; stroke-linecap: square"/>
   </g>
   <g id="patch_6">
    <path d="M 57.6 41.472 
L 414.72 41.472 
" style="fill: none; stroke: #000000; stroke-width: 0.8; stroke-linejoin: miter; stroke-linecap: square"/>
   </g>
   <g id="text_14">
    <!-- actor and critic loss -->
    <g transform="translate(177.345 35.472) scale(0.12 -0.12)">
     <defs>
      <path id="DejaVuSans-61" d="M 2194 1759 
Q 1497 1759 1228 1600 
Q 959 1441 959 1056 
Q 959 750 1161 570 
Q 1363 391 1709 391 
Q 2188 391 2477 730 
Q 2766 1069 2766 1631 
L 2766 1759 
L 2194 1759 
z
M 3341 1997 
L 3341 0 
L 2766 0 
L 2766 531 
Q 2569 213 2275 61 
Q 1981 -91 1556 -91 
Q 1019 -91 701 211 
Q 384 513 384 1019 
Q 384 1609 779 1909 
Q 1175 2209 1959 2209 
L 2766 2209 
L 2766 2266 
Q 2766 2663 2505 2880 
Q 2244 3097 1772 3097 
Q 1472 3097 1187 3025 
Q 903 2953 641 2809 
L 641 3341 
Q 956 3463 1253 3523 
Q 1550 3584 1831 3584 
Q 2591 3584 2966 3190 
Q 3341 2797 3341 1997 
z
" transform="scale(0.015625)"/>
      <path id="DejaVuSans-63" d="M 3122 3366 
L 3122 2828 
Q 2878 2963 2633 3030 
Q 2388 3097 2138 3097 
Q 1578 3097 1268 2742 
Q 959 2388 959 1747 
Q 959 1106 1268 751 
Q 1578 397 2138 397 
Q 2388 397 2633 464 
Q 2878 531 3122 666 
L 3122 134 
Q 2881 22 2623 -34 
Q 2366 -91 2075 -91 
Q 1284 -91 818 406 
Q 353 903 353 1747 
Q 353 2603 823 3093 
Q 1294 3584 2113 3584 
Q 2378 3584 2631 3529 
Q 2884 3475 3122 3366 
z
" transform="scale(0.015625)"/>
      <path id="DejaVuSans-72" d="M 2631 2963 
Q 2534 3019 2420 3045 
Q 2306 3072 2169 3072 
Q 1681 3072 1420 2755 
Q 1159 2438 1159 1844 
L 1159 0 
L 581 0 
L 581 3500 
L 1159 3500 
L 1159 2956 
Q 1341 3275 1631 3429 
Q 1922 3584 2338 3584 
Q 2397 3584 2469 3576 
Q 2541 3569 2628 3553 
L 2631 2963 
z
" transform="scale(0.015625)"/>
      <path id="DejaVuSans-6e" d="M 3513 2113 
L 3513 0 
L 2938 0 
L 2938 2094 
Q 2938 2591 2744 2837 
Q 2550 3084 2163 3084 
Q 1697 3084 1428 2787 
Q 1159 2491 1159 1978 
L 1159 0 
L 581 0 
L 581 3500 
L 1159 3500 
L 1159 2956 
Q 1366 3272 1645 3428 
Q 1925 3584 2291 3584 
Q 2894 3584 3203 3211 
Q 3513 2838 3513 2113 
z
" transform="scale(0.015625)"/>
      <path id="DejaVuSans-64" d="M 2906 2969 
L 2906 4863 
L 3481 4863 
L 3481 0 
L 2906 0 
L 2906 525 
Q 2725 213 2448 61 
Q 2172 -91 1784 -91 
Q 1150 -91 751 415 
Q 353 922 353 1747 
Q 353 2572 751 3078 
Q 1150 3584 1784 3584 
Q 2172 3584 2448 3432 
Q 2725 3281 2906 2969 
z
M 947 1747 
Q 947 1113 1208 752 
Q 1469 391 1925 391 
Q 2381 391 2643 752 
Q 2906 1113 2906 1747 
Q 2906 2381 2643 2742 
Q 2381 3103 1925 3103 
Q 1469 3103 1208 2742 
Q 947 2381 947 1747 
z
" transform="scale(0.015625)"/>
     </defs>
     <use xlink:href="#DejaVuSans-61"/>
     <use xlink:href="#DejaVuSans-63" x="61.279297"/>
     <use xlink:href="#DejaVuSans-74" x="116.259766"/>
     <use xlink:href="#DejaVuSans-6f" x="155.46875"/>
     <use xlink:href="#DejaVuSans-72" x="216.650391"/>
     <use xlink:href="#DejaVuSans-20" x="257.763672"/>
     <use xlink:href="#DejaVuSans-61" x="289.550781"/>
     <use xlink:href="#DejaVuSans-6e" x="350.830078"/>
     <use xlink:href="#DejaVuSans-64" x="414.208984"/>
     <use xlink:href="#DejaVuSans-20" x="477.685547"/>
     <use xlink:href="#DejaVuSans-63" x="509.472656"/>
     <use xlink:href="#DejaVuSans-72" x="564.453125"/>
     <use xlink:href="#DejaVuSans-69" x="605.566406"/>
     <use xlink:href="#DejaVuSans-74" x="633.349609"/>
     <use xlink:href="#DejaVuSans-69" x="672.558594"/>
     <use xlink:href="#DejaVuSans-63" x="700.341797"/>
     <use xlink:href="#DejaVuSans-20" x="755.322266"/>
     <use xlink:href="#DejaVuSans-6c" x="787.109375"/>
     <use xlink:href="#DejaVuSans-6f" x="814.892578"/>
     <use xlink:href="#DejaVuSans-73" x="876.074219"/>
     <use xlink:href="#DejaVuSans-73" x="928.173828"/>
    </g>
   </g>
   <g id="legend_1">
    <g id="patch_7">
     <path d="M 64.6 78.82825 
L 144.870313 78.82825 
Q 146.870313 78.82825 146.870313 76.82825 
L 146.870313 48.472 
Q 146.870313 46.472 144.870313 46.472 
L 64.6 46.472 
Q 62.6 46.472 62.6 48.472 
L 62.6 76.82825 
Q 62.6 78.82825 64.6 78.82825 
z
" style="fill: #ffffff; opacity: 0.8; stroke: #cccccc; stroke-linejoin: miter"/>
    </g>
    <g id="line2d_14">
     <path d="M 66.6 54.570437 
L 76.6 54.570437 
L 86.6 54.570437 
" style="fill: none; stroke: #1f77b4; stroke-width: 1.5; stroke-linecap: square"/>
    </g>
    <g id="text_15">
     <!-- actor loss -->
     <g transform="translate(94.6 58.070437) scale(0.1 -0.1)">
      <use xlink:href="#DejaVuSans-61"/>
      <use xlink:href="#DejaVuSans-63" x="61.279297"/>
      <use xlink:href="#DejaVuSans-74" x="116.259766"/>
      <use xlink:href="#DejaVuSans-6f" x="155.46875"/>
      <use xlink:href="#DejaVuSans-72" x="216.650391"/>
      <use xlink:href="#DejaVuSans-20" x="257.763672"/>
      <use xlink:href="#DejaVuSans-6c" x="289.550781"/>
      <use xlink:href="#DejaVuSans-6f" x="317.333984"/>
      <use xlink:href="#DejaVuSans-73" x="378.515625"/>
      <use xlink:href="#DejaVuSans-73" x="430.615234"/>
     </g>
    </g>
    <g id="line2d_15">
     <path d="M 66.6 69.248562 
L 76.6 69.248562 
L 86.6 69.248562 
" style="fill: none; stroke: #ff7f0e; stroke-width: 1.5; stroke-linecap: square"/>
    </g>
    <g id="text_16">
     <!-- critic loss -->
     <g transform="translate(94.6 72.748562) scale(0.1 -0.1)">
      <use xlink:href="#DejaVuSans-63"/>
      <use xlink:href="#DejaVuSans-72" x="54.980469"/>
      <use xlink:href="#DejaVuSans-69" x="96.09375"/>
      <use xlink:href="#DejaVuSans-74" x="123.876953"/>
      <use xlink:href="#DejaVuSans-69" x="163.085938"/>
      <use xlink:href="#DejaVuSans-63" x="190.869141"/>
      <use xlink:href="#DejaVuSans-20" x="245.849609"/>
      <use xlink:href="#DejaVuSans-6c" x="277.636719"/>
      <use xlink:href="#DejaVuSans-6f" x="305.419922"/>
      <use xlink:href="#DejaVuSans-73" x="366.601562"/>
      <use xlink:href="#DejaVuSans-73" x="418.701172"/>
     </g>
    </g>
   </g>
  </g>
 </g>
 <defs>
  <clipPath id="p2aeccce025">
   <rect x="57.6" y="41.472" width="357.12" height="266.112"/>
  </clipPath>
 </defs>
</svg>
