<?xml version="1.0" encoding="utf-8" standalone="no"?>
<!DOCTYPE svg PUBLIC "-//W3C//DTD SVG 1.1//EN"
  "http://www.w3.org/Graphics/SVG/1.1/DTD/svg11.dtd">
<svg xmlns:xlink="http://www.w3.org/1999/xlink" width="460.8pt" height="345.6pt" viewBox="0 0 460.8 345.6" xmlns="http://www.w3.org/2000/svg" version="1.1">
 <metadata>
  <rdf:RDF xmlns:dc="http://purl.org/dc/elements/1.1/" xmlns:cc="http://creativecommons.org/ns#" xmlns:rdf="http://www.w3.org/1999/02/22-rdf-syntax-ns#">
   <cc:Work>
    <dc:type rdf:resource="http://purl.org/dc/dcmitype/StillImage"/>
    <dc:date>2023-08-18T20:43:47.837317</dc:date>
    <dc:format>image/svg+xml</dc:format>
    <dc:creator>
     <cc:Agent>
      <dc:title>Matplotlib v3.7.1, https://matplotlib.org/</dc:title>
     </cc:Agent>
    </dc:creator>
   </cc:Work>
  </rdf:RDF>
 </metadata>
 <defs>
  <style type="text/css">*{stroke-linejoin: round; stroke-linecap: butt}</style>
 </defs>
 <g id="figure_1">
  <g id="patch_1">
   <path d="M 0 345.6 
L 460.8 345.6 
L 460.8 0 
L 0 0 
z
" style="fill: #ffffff"/>
  </g>
  <g id="axes_1">
   <g id="patch_2">
    <path d="M 57.6 307.584 
L 414.72 307.584 
L 414.72 41.472 
L 57.6 41.472 
z
" style="fill: #ffffff"/>
   </g>
   <g id="matplotlib.axis_1">
    <g id="xtick_1">
     <g id="line2d_1">
      <defs>
       <path id="m07bf095433" d="M 0 0 
L 0 3.5 
" style="stroke: #000000; stroke-width: 0.8"/>
      </defs>
      <g>
       <use xlink:href="#m07bf095433" x="73.735257" y="307.584" style="stroke: #000000; stroke-width: 0.8"/>
      </g>
     </g>
     <g id="text_1">
      <!-- 0 -->
      <g transform="translate(70.554007 322.182437) scale(0.1 -0.1)">
       <defs>
        <path id="DejaVuSans-30" d="M 2034 4250 
Q 1547 4250 1301 3770 
Q 1056 3291 1056 2328 
Q 1056 1369 1301 889 
Q 1547 409 2034 409 
Q 2525 409 2770 889 
Q 3016 1369 3016 2328 
Q 3016 3291 2770 3770 
Q 2525 4250 2034 4250 
z
M 2034 4750 
Q 2819 4750 3233 4129 
Q 3647 3509 3647 2328 
Q 3647 1150 3233 529 
Q 2819 -91 2034 -91 
Q 1250 -91 836 529 
Q 422 1150 422 2328 
Q 422 3509 836 4129 
Q 1250 4750 2034 4750 
z
" transform="scale(0.015625)"/>
       </defs>
       <use xlink:href="#DejaVuSans-30"/>
      </g>
     </g>
    </g>
    <g id="xtick_2">
     <g id="line2d_2">
      <g>
       <use xlink:href="#m07bf095433" x="138.715551" y="307.584" style="stroke: #000000; stroke-width: 0.8"/>
      </g>
     </g>
     <g id="text_2">
      <!-- 10000 -->
      <g transform="translate(122.809301 322.182437) scale(0.1 -0.1)">
       <defs>
        <path id="DejaVuSans-31" d="M 794 531 
L 1825 531 
L 1825 4091 
L 703 3866 
L 703 4441 
L 1819 4666 
L 2450 4666 
L 2450 531 
L 3481 531 
L 3481 0 
L 794 0 
L 794 531 
z
" transform="scale(0.015625)"/>
       </defs>
       <use xlink:href="#DejaVuSans-31"/>
       <use xlink:href="#DejaVuSans-30" x="63.623047"/>
       <use xlink:href="#DejaVuSans-30" x="127.246094"/>
       <use xlink:href="#DejaVuSans-30" x="190.869141"/>
       <use xlink:href="#DejaVuSans-30" x="254.492188"/>
      </g>
     </g>
    </g>
    <g id="xtick_3">
     <g id="line2d_3">
      <g>
       <use xlink:href="#m07bf095433" x="203.695845" y="307.584" style="stroke: #000000; stroke-width: 0.8"/>
      </g>
     </g>
     <g id="text_3">
      <!-- 20000 -->
      <g transform="translate(187.789595 322.182437) scale(0.1 -0.1)">
       <defs>
        <path id="DejaVuSans-32" d="M 1228 531 
L 3431 531 
L 3431 0 
L 469 0 
L 469 531 
Q 828 903 1448 1529 
Q 2069 2156 2228 2338 
Q 2531 2678 2651 2914 
Q 2772 3150 2772 3378 
Q 2772 3750 2511 3984 
Q 2250 4219 1831 4219 
Q 1534 4219 1204 4116 
Q 875 4013 500 3803 
L 500 4441 
Q 881 4594 1212 4672 
Q 1544 4750 1819 4750 
Q 2544 4750 2975 4387 
Q 3406 4025 3406 3419 
Q 3406 3131 3298 2873 
Q 3191 2616 2906 2266 
Q 2828 2175 2409 1742 
Q 1991 1309 1228 531 
z
" transform="scale(0.015625)"/>
       </defs>
       <use xlink:href="#DejaVuSans-32"/>
       <use xlink:href="#DejaVuSans-30" x="63.623047"/>
       <use xlink:href="#DejaVuSans-30" x="127.246094"/>
       <use xlink:href="#DejaVuSans-30" x="190.869141"/>
       <use xlink:href="#DejaVuSans-30" x="254.492188"/>
      </g>
     </g>
    </g>
    <g id="xtick_4">
     <g id="line2d_4">
      <g>
       <use xlink:href="#m07bf095433" x="268.676139" y="307.584" style="stroke: #000000; stroke-width: 0.8"/>
      </g>
     </g>
     <g id="text_4">
      <!-- 30000 -->
      <g transform="translate(252.769889 322.182437) scale(0.1 -0.1)">
       <defs>
        <path id="DejaVuSans-33" d="M 2597 2516 
Q 3050 2419 3304 2112 
Q 3559 1806 3559 1356 
Q 3559 666 3084 287 
Q 2609 -91 1734 -91 
Q 1441 -91 1130 -33 
Q 819 25 488 141 
L 488 750 
Q 750 597 1062 519 
Q 1375 441 1716 441 
Q 2309 441 2620 675 
Q 2931 909 2931 1356 
Q 2931 1769 2642 2001 
Q 2353 2234 1838 2234 
L 1294 2234 
L 1294 2753 
L 1863 2753 
Q 2328 2753 2575 2939 
Q 2822 3125 2822 3475 
Q 2822 3834 2567 4026 
Q 2313 4219 1838 4219 
Q 1578 4219 1281 4162 
Q 984 4106 628 3988 
L 628 4550 
Q 988 4650 1302 4700 
Q 1616 4750 1894 4750 
Q 2613 4750 3031 4423 
Q 3450 4097 3450 3541 
Q 3450 3153 3228 2886 
Q 3006 2619 2597 2516 
z
" transform="scale(0.015625)"/>
       </defs>
       <use xlink:href="#DejaVuSans-33"/>
       <use xlink:href="#DejaVuSans-30" x="63.623047"/>
       <use xlink:href="#DejaVuSans-30" x="127.246094"/>
       <use xlink:href="#DejaVuSans-30" x="190.869141"/>
       <use xlink:href="#DejaVuSans-30" x="254.492188"/>
      </g>
     </g>
    </g>
    <g id="xtick_5">
     <g id="line2d_5">
      <g>
       <use xlink:href="#m07bf095433" x="333.656433" y="307.584" style="stroke: #000000; stroke-width: 0.8"/>
      </g>
     </g>
     <g id="text_5">
      <!-- 40000 -->
      <g transform="translate(317.750183 322.182437) scale(0.1 -0.1)">
       <defs>
        <path id="DejaVuSans-34" d="M 2419 4116 
L 825 1625 
L 2419 1625 
L 2419 4116 
z
M 2253 4666 
L 3047 4666 
L 3047 1625 
L 3713 1625 
L 3713 1100 
L 3047 1100 
L 3047 0 
L 2419 0 
L 2419 1100 
L 313 1100 
L 313 1709 
L 2253 4666 
z
" transform="scale(0.015625)"/>
       </defs>
       <use xlink:href="#DejaVuSans-34"/>
       <use xlink:href="#DejaVuSans-30" x="63.623047"/>
       <use xlink:href="#DejaVuSans-30" x="127.246094"/>
       <use xlink:href="#DejaVuSans-30" x="190.869141"/>
       <use xlink:href="#DejaVuSans-30" x="254.492188"/>
      </g>
     </g>
    </g>
    <g id="xtick_6">
     <g id="line2d_6">
      <g>
       <use xlink:href="#m07bf095433" x="398.636727" y="307.584" style="stroke: #000000; stroke-width: 0.8"/>
      </g>
     </g>
     <g id="text_6">
      <!-- 50000 -->
      <g transform="translate(382.730477 322.182437) scale(0.1 -0.1)">
       <defs>
        <path id="DejaVuSans-35" d="M 691 4666 
L 3169 4666 
L 3169 4134 
L 1269 4134 
L 1269 2991 
Q 1406 3038 1543 3061 
Q 1681 3084 1819 3084 
Q 2600 3084 3056 2656 
Q 3513 2228 3513 1497 
Q 3513 744 3044 326 
Q 2575 -91 1722 -91 
Q 1428 -91 1123 -41 
Q 819 9 494 109 
L 494 744 
Q 775 591 1075 516 
Q 1375 441 1709 441 
Q 2250 441 2565 725 
Q 2881 1009 2881 1497 
Q 2881 1984 2565 2268 
Q 2250 2553 1709 2553 
Q 1456 2553 1204 2497 
Q 953 2441 691 2322 
L 691 4666 
z
" transform="scale(0.015625)"/>
       </defs>
       <use xlink:href="#DejaVuSans-35"/>
       <use xlink:href="#DejaVuSans-30" x="63.623047"/>
       <use xlink:href="#DejaVuSans-30" x="127.246094"/>
       <use xlink:href="#DejaVuSans-30" x="190.869141"/>
       <use xlink:href="#DejaVuSans-30" x="254.492188"/>
      </g>
     </g>
    </g>
    <g id="text_7">
     <!-- timesteps -->
     <g transform="translate(211.443594 335.860562) scale(0.1 -0.1)">
      <defs>
       <path id="DejaVuSans-74" d="M 1172 4494 
L 1172 3500 
L 2356 3500 
L 2356 3053 
L 1172 3053 
L 1172 1153 
Q 1172 725 1289 603 
Q 1406 481 1766 481 
L 2356 481 
L 2356 0 
L 1766 0 
Q 1100 0 847 248 
Q 594 497 594 1153 
L 594 3053 
L 172 3053 
L 172 3500 
L 594 3500 
L 594 4494 
L 1172 4494 
z
" transform="scale(0.015625)"/>
       <path id="DejaVuSans-69" d="M 603 3500 
L 1178 3500 
L 1178 0 
L 603 0 
L 603 3500 
z
M 603 4863 
L 1178 4863 
L 1178 4134 
L 603 4134 
L 603 4863 
z
" transform="scale(0.015625)"/>
       <path id="DejaVuSans-6d" d="M 3328 2828 
Q 3544 3216 3844 3400 
Q 4144 3584 4550 3584 
Q 5097 3584 5394 3201 
Q 5691 2819 5691 2113 
L 5691 0 
L 5113 0 
L 5113 2094 
Q 5113 2597 4934 2840 
Q 4756 3084 4391 3084 
Q 3944 3084 3684 2787 
Q 3425 2491 3425 1978 
L 3425 0 
L 2847 0 
L 2847 2094 
Q 2847 2600 2669 2842 
Q 2491 3084 2119 3084 
Q 1678 3084 1418 2786 
Q 1159 2488 1159 1978 
L 1159 0 
L 581 0 
L 581 3500 
L 1159 3500 
L 1159 2956 
Q 1356 3278 1631 3431 
Q 1906 3584 2284 3584 
Q 2666 3584 2933 3390 
Q 3200 3197 3328 2828 
z
" transform="scale(0.015625)"/>
       <path id="DejaVuSans-65" d="M 3597 1894 
L 3597 1613 
L 953 1613 
Q 991 1019 1311 708 
Q 1631 397 2203 397 
Q 2534 397 2845 478 
Q 3156 559 3463 722 
L 3463 178 
Q 3153 47 2828 -22 
Q 2503 -91 2169 -91 
Q 1331 -91 842 396 
Q 353 884 353 1716 
Q 353 2575 817 3079 
Q 1281 3584 2069 3584 
Q 2775 3584 3186 3129 
Q 3597 2675 3597 1894 
z
M 3022 2063 
Q 3016 2534 2758 2815 
Q 2500 3097 2075 3097 
Q 1594 3097 1305 2825 
Q 1016 2553 972 2059 
L 3022 2063 
z
" transform="scale(0.015625)"/>
       <path id="DejaVuSans-73" d="M 2834 3397 
L 2834 2853 
Q 2591 2978 2328 3040 
Q 2066 3103 1784 3103 
Q 1356 3103 1142 2972 
Q 928 2841 928 2578 
Q 928 2378 1081 2264 
Q 1234 2150 1697 2047 
L 1894 2003 
Q 2506 1872 2764 1633 
Q 3022 1394 3022 966 
Q 3022 478 2636 193 
Q 2250 -91 1575 -91 
Q 1294 -91 989 -36 
Q 684 19 347 128 
L 347 722 
Q 666 556 975 473 
Q 1284 391 1588 391 
Q 1994 391 2212 530 
Q 2431 669 2431 922 
Q 2431 1156 2273 1281 
Q 2116 1406 1581 1522 
L 1381 1569 
Q 847 1681 609 1914 
Q 372 2147 372 2553 
Q 372 3047 722 3315 
Q 1072 3584 1716 3584 
Q 2034 3584 2315 3537 
Q 2597 3491 2834 3397 
z
" transform="scale(0.015625)"/>
       <path id="DejaVuSans-70" d="M 1159 525 
L 1159 -1331 
L 581 -1331 
L 581 3500 
L 1159 3500 
L 1159 2969 
Q 1341 3281 1617 3432 
Q 1894 3584 2278 3584 
Q 2916 3584 3314 3078 
Q 3713 2572 3713 1747 
Q 3713 922 3314 415 
Q 2916 -91 2278 -91 
Q 1894 -91 1617 61 
Q 1341 213 1159 525 
z
M 3116 1747 
Q 3116 2381 2855 2742 
Q 2594 3103 2138 3103 
Q 1681 3103 1420 2742 
Q 1159 2381 1159 1747 
Q 1159 1113 1420 752 
Q 1681 391 2138 391 
Q 2594 391 2855 752 
Q 3116 1113 3116 1747 
z
" transform="scale(0.015625)"/>
      </defs>
      <use xlink:href="#DejaVuSans-74"/>
      <use xlink:href="#DejaVuSans-69" x="39.208984"/>
      <use xlink:href="#DejaVuSans-6d" x="66.992188"/>
      <use xlink:href="#DejaVuSans-65" x="164.404297"/>
      <use xlink:href="#DejaVuSans-73" x="225.927734"/>
      <use xlink:href="#DejaVuSans-74" x="278.027344"/>
      <use xlink:href="#DejaVuSans-65" x="317.236328"/>
      <use xlink:href="#DejaVuSans-70" x="378.759766"/>
      <use xlink:href="#DejaVuSans-73" x="442.236328"/>
     </g>
    </g>
   </g>
   <g id="matplotlib.axis_2">
    <g id="ytick_1">
     <g id="line2d_7">
      <defs>
       <path id="m8d2017c372" d="M 0 0 
L -3.5 0 
" style="stroke: #000000; stroke-width: 0.8"/>
      </defs>
      <g>
       <use xlink:href="#m8d2017c372" x="57.6" y="296.728078" style="stroke: #000000; stroke-width: 0.8"/>
      </g>
     </g>
     <g id="text_8">
      <!-- 0 -->
      <g transform="translate(44.2375 300.527297) scale(0.1 -0.1)">
       <use xlink:href="#DejaVuSans-30"/>
      </g>
     </g>
    </g>
    <g id="ytick_2">
     <g id="line2d_8">
      <g>
       <use xlink:href="#m8d2017c372" x="57.6" y="258.740458" style="stroke: #000000; stroke-width: 0.8"/>
      </g>
     </g>
     <g id="text_9">
      <!-- 100 -->
      <g transform="translate(31.5125 262.539677) scale(0.1 -0.1)">
       <use xlink:href="#DejaVuSans-31"/>
       <use xlink:href="#DejaVuSans-30" x="63.623047"/>
       <use xlink:href="#DejaVuSans-30" x="127.246094"/>
      </g>
     </g>
    </g>
    <g id="ytick_3">
     <g id="line2d_9">
      <g>
       <use xlink:href="#m8d2017c372" x="57.6" y="220.752838" style="stroke: #000000; stroke-width: 0.8"/>
      </g>
     </g>
     <g id="text_10">
      <!-- 200 -->
      <g transform="translate(31.5125 224.552057) scale(0.1 -0.1)">
       <use xlink:href="#DejaVuSans-32"/>
       <use xlink:href="#DejaVuSans-30" x="63.623047"/>
       <use xlink:href="#DejaVuSans-30" x="127.246094"/>
      </g>
     </g>
    </g>
    <g id="ytick_4">
     <g id="line2d_10">
      <g>
       <use xlink:href="#m8d2017c372" x="57.6" y="182.765218" style="stroke: #000000; stroke-width: 0.8"/>
      </g>
     </g>
     <g id="text_11">
      <!-- 300 -->
      <g transform="translate(31.5125 186.564437) scale(0.1 -0.1)">
       <use xlink:href="#DejaVuSans-33"/>
       <use xlink:href="#DejaVuSans-30" x="63.623047"/>
       <use xlink:href="#DejaVuSans-30" x="127.246094"/>
      </g>
     </g>
    </g>
    <g id="ytick_5">
     <g id="line2d_11">
      <g>
       <use xlink:href="#m8d2017c372" x="57.6" y="144.777598" style="stroke: #000000; stroke-width: 0.8"/>
      </g>
     </g>
     <g id="text_12">
      <!-- 400 -->
      <g transform="translate(31.5125 148.576817) scale(0.1 -0.1)">
       <use xlink:href="#DejaVuSans-34"/>
       <use xlink:href="#DejaVuSans-30" x="63.623047"/>
       <use xlink:href="#DejaVuSans-30" x="127.246094"/>
      </g>
     </g>
    </g>
    <g id="ytick_6">
     <g id="line2d_12">
      <g>
       <use xlink:href="#m8d2017c372" x="57.6" y="106.789978" style="stroke: #000000; stroke-width: 0.8"/>
      </g>
     </g>
     <g id="text_13">
      <!-- 500 -->
      <g transform="translate(31.5125 110.589196) scale(0.1 -0.1)">
       <use xlink:href="#DejaVuSans-35"/>
       <use xlink:href="#DejaVuSans-30" x="63.623047"/>
       <use xlink:href="#DejaVuSans-30" x="127.246094"/>
      </g>
     </g>
    </g>
    <g id="ytick_7">
     <g id="line2d_13">
      <g>
       <use xlink:href="#m8d2017c372" x="57.6" y="68.802358" style="stroke: #000000; stroke-width: 0.8"/>
      </g>
     </g>
     <g id="text_14">
      <!-- 600 -->
      <g transform="translate(31.5125 72.601576) scale(0.1 -0.1)">
       <defs>
        <path id="DejaVuSans-36" d="M 2113 2584 
Q 1688 2584 1439 2293 
Q 1191 2003 1191 1497 
Q 1191 994 1439 701 
Q 1688 409 2113 409 
Q 2538 409 2786 701 
Q 3034 994 3034 1497 
Q 3034 2003 2786 2293 
Q 2538 2584 2113 2584 
z
M 3366 4563 
L 3366 3988 
Q 3128 4100 2886 4159 
Q 2644 4219 2406 4219 
Q 1781 4219 1451 3797 
Q 1122 3375 1075 2522 
Q 1259 2794 1537 2939 
Q 1816 3084 2150 3084 
Q 2853 3084 3261 2657 
Q 3669 2231 3669 1497 
Q 3669 778 3244 343 
Q 2819 -91 2113 -91 
Q 1303 -91 875 529 
Q 447 1150 447 2328 
Q 447 3434 972 4092 
Q 1497 4750 2381 4750 
Q 2619 4750 2861 4703 
Q 3103 4656 3366 4563 
z
" transform="scale(0.015625)"/>
       </defs>
       <use xlink:href="#DejaVuSans-36"/>
       <use xlink:href="#DejaVuSans-30" x="63.623047"/>
       <use xlink:href="#DejaVuSans-30" x="127.246094"/>
      </g>
     </g>
    </g>
    <g id="text_15">
     <!-- rewards -->
     <g transform="translate(25.432812 194.447531) rotate(-90) scale(0.1 -0.1)">
      <defs>
       <path id="DejaVuSans-72" d="M 2631 2963 
Q 2534 3019 2420 3045 
Q 2306 3072 2169 3072 
Q 1681 3072 1420 2755 
Q 1159 2438 1159 1844 
L 1159 0 
L 581 0 
L 581 3500 
L 1159 3500 
L 1159 2956 
Q 1341 3275 1631 3429 
Q 1922 3584 2338 3584 
Q 2397 3584 2469 3576 
Q 2541 3569 2628 3553 
L 2631 2963 
z
" transform="scale(0.015625)"/>
       <path id="DejaVuSans-77" d="M 269 3500 
L 844 3500 
L 1563 769 
L 2278 3500 
L 2956 3500 
L 3675 769 
L 4391 3500 
L 4966 3500 
L 4050 0 
L 3372 0 
L 2619 2869 
L 1863 0 
L 1184 0 
L 269 3500 
z
" transform="scale(0.015625)"/>
       <path id="DejaVuSans-61" d="M 2194 1759 
Q 1497 1759 1228 1600 
Q 959 1441 959 1056 
Q 959 750 1161 570 
Q 1363 391 1709 391 
Q 2188 391 2477 730 
Q 2766 1069 2766 1631 
L 2766 1759 
L 2194 1759 
z
M 3341 1997 
L 3341 0 
L 2766 0 
L 2766 531 
Q 2569 213 2275 61 
Q 1981 -91 1556 -91 
Q 1019 -91 701 211 
Q 384 513 384 1019 
Q 384 1609 779 1909 
Q 1175 2209 1959 2209 
L 2766 2209 
L 2766 2266 
Q 2766 2663 2505 2880 
Q 2244 3097 1772 3097 
Q 1472 3097 1187 3025 
Q 903 2953 641 2809 
L 641 3341 
Q 956 3463 1253 3523 
Q 1550 3584 1831 3584 
Q 2591 3584 2966 3190 
Q 3341 2797 3341 1997 
z
" transform="scale(0.015625)"/>
       <path id="DejaVuSans-64" d="M 2906 2969 
L 2906 4863 
L 3481 4863 
L 3481 0 
L 2906 0 
L 2906 525 
Q 2725 213 2448 61 
Q 2172 -91 1784 -91 
Q 1150 -91 751 415 
Q 353 922 353 1747 
Q 353 2572 751 3078 
Q 1150 3584 1784 3584 
Q 2172 3584 2448 3432 
Q 2725 3281 2906 2969 
z
M 947 1747 
Q 947 1113 1208 752 
Q 1469 391 1925 391 
Q 2381 391 2643 752 
Q 2906 1113 2906 1747 
Q 2906 2381 2643 2742 
Q 2381 3103 1925 3103 
Q 1469 3103 1208 2742 
Q 947 2381 947 1747 
z
" transform="scale(0.015625)"/>
      </defs>
      <use xlink:href="#DejaVuSans-72"/>
      <use xlink:href="#DejaVuSans-65" x="38.863281"/>
      <use xlink:href="#DejaVuSans-77" x="100.386719"/>
      <use xlink:href="#DejaVuSans-61" x="182.173828"/>
      <use xlink:href="#DejaVuSans-72" x="243.453125"/>
      <use xlink:href="#DejaVuSans-64" x="282.816406"/>
      <use xlink:href="#DejaVuSans-73" x="346.292969"/>
     </g>
    </g>
   </g>
   <g id="line2d_14">
    <path d="M 73.832727 291.768996 
L 74.170625 293.707529 
L 74.424048 276.112333 
L 74.612491 292.410178 
L 74.755447 293.241204 
L 74.872412 292.571388 
L 75.021867 290.343439 
L 75.216808 293.808921 
L 75.444239 274.119367 
L 75.528713 292.84481 
L 75.619685 292.838857 
L 75.827622 287.715994 
L 76.042057 292.921592 
L 76.275986 286.74027 
L 76.399449 295.14759 
L 76.678864 292.656089 
L 76.782833 293.822772 
L 76.906295 292.356467 
L 77.029758 289.121997 
L 77.237695 293.635571 
L 77.478122 276.737987 
L 77.712051 278.323809 
L 77.868004 288.378895 
L 78.056446 285.741051 
L 78.166913 293.088603 
L 78.420336 289.45845 
L 78.712747 270.43934 
L 78.940178 292.735713 
L 79.018155 292.898901 
L 79.089633 293.466114 
L 79.291072 281.925534 
L 79.401538 294.213602 
L 79.531499 293.279233 
L 79.66146 288.365945 
L 79.771926 290.310912 
L 79.82391 294.915319 
L 79.895389 293.787363 
L 79.979863 293.866814 
L 80.038345 294.309698 
L 80.109824 292.91337 
L 80.64916 266.531048 
L 80.71414 294.364166 
L 80.922077 284.280904 
L 81.01305 293.101139 
L 81.162504 290.237894 
L 81.246979 293.237255 
L 81.376939 287.9613 
L 81.5069 290.185952 
L 81.727833 282.321002 
L 81.883786 294.619295 
L 82.00075 292.365505 
L 82.065731 294.365545 
L 82.351644 280.014483 
L 82.410126 294.058274 
L 82.520593 290.825474 
L 82.748024 278.860106 
L 82.877984 290.175513 
L 83.020941 288.371408 
L 83.358838 292.415689 
L 83.495297 293.857768 
L 83.599265 293.654795 
L 83.768214 292.346453 
L 83.878681 290.288988 
L 84.060626 290.452704 
L 84.171092 292.296449 
L 84.294555 292.471977 
L 84.405021 291.095335 
L 84.489496 292.480099 
L 84.872879 254.8559 
L 84.97035 293.536757 
L 85.243267 269.608454 
L 85.451204 293.037829 
L 85.717623 278.130851 
L 85.808595 292.417754 
L 85.919062 290.127145 
L 86.049023 294.60756 
L 86.217971 290.444455 
L 86.380422 292.511257 
L 86.659837 273.8614 
L 86.731316 294.957537 
L 86.828786 291.629503 
L 86.91326 293.111771 
L 87.075711 291.806718 
L 87.173182 294.903704 
L 87.270652 293.025491 
L 87.355126 293.372613 
L 87.615048 288.925122 
L 87.855475 294.890461 
L 88.050416 287.781515 
L 88.219364 294.240564 
L 88.362321 288.70016 
L 88.440297 293.769209 
L 88.804187 282.51428 
L 89.38901 230.620456 
L 89.661927 292.109144 
L 89.876362 285.594571 
L 89.960836 292.791304 
L 90.149279 286.835814 
L 90.357216 285.239859 
L 90.474181 295.304217 
L 90.831572 285.195092 
L 90.929043 293.269961 
L 91.175968 289.226558 
L 91.305928 290.930914 
L 91.370909 294.432468 
L 91.507367 288.334237 
L 91.637328 289.325495 
L 91.702308 294.159981 
L 91.780285 293.730736 
L 91.877755 291.068638 
L 92.066198 289.939779 
L 92.254641 283.785077 
L 92.358609 294.142679 
L 92.462578 291.827105 
L 92.52106 294.520327 
L 92.625028 290.008802 
L 92.800475 293.845686 
L 92.878451 294.262169 
L 93.027906 286.21998 
L 93.203353 288.615417 
L 93.3788 295.488 
L 93.664713 283.977796 
L 93.90514 288.00569 
L 93.97012 295.274345 
L 94.262532 292.304686 
L 94.444477 292.279846 
L 94.522453 292.394107 
L 94.66541 293.47936 
L 95.211244 253.151638 
L 95.28922 294.025654 
L 95.458169 292.258772 
L 95.581632 289.542237 
L 95.711592 290.940183 
L 95.965015 287.326372 
L 96.068984 292.823524 
L 96.302913 285.45638 
L 96.44587 294.292492 
L 96.504352 294.831398 
L 96.965712 287.884977 
L 97.141159 290.650262 
L 97.310108 288.437451 
L 97.40108 292.190238 
L 97.648005 277.906301 
L 97.758472 292.059419 
L 98.187342 269.254086 
L 98.382282 294.283683 
L 98.668196 290.915891 
L 98.765666 294.568505 
L 99.051579 291.894049 
L 99.51294 268.150161 
L 99.759865 283.60325 
L 99.818347 294.905769 
L 99.896323 293.349651 
L 99.993794 292.751211 
L 100.130252 290.269702 
L 100.201731 293.94819 
L 100.331691 290.125855 
L 100.591612 292.838559 
L 100.728071 292.425122 
L 100.910016 292.400112 
L 101.078965 287.788065 
L 101.364878 293.812183 
L 101.546823 289.64367 
L 101.728768 288.555589 
L 101.956199 294.774374 
L 102.2811 266.255431 
L 102.450049 292.349853 
L 102.593005 290.469296 
L 102.664484 293.447456 
L 102.781448 289.604666 
L 102.911409 289.508668 
L 103.158334 281.464648 
L 103.392263 291.725142 
L 103.56771 284.829185 
L 103.671678 292.254435 
L 103.782145 290.276851 
L 103.983584 282.032515 
L 104.055062 293.294658 
L 104.178525 293.054195 
L 104.321481 287.039058 
L 104.5879 281.236058 
L 104.665877 294.152827 
L 104.737355 293.938115 
L 104.964786 292.675249 
L 105.179221 291.500702 
L 105.328676 289.810304 
L 105.575601 294.200448 
L 105.699064 291.257354 
L 105.919997 294.057107 
L 106.134431 283.110133 
L 106.296882 293.215844 
L 106.407349 290.657501 
L 106.576297 293.135891 
L 106.927191 284.642026 
L 107.057152 292.716319 
L 107.232598 284.786091 
L 107.304077 293.926479 
L 107.440535 290.925793 
L 107.544504 293.260244 
L 107.706955 289.882212 
L 107.856409 293.451204 
L 107.960378 290.607613 
L 108.038354 293.805488 
L 108.174813 293.75091 
L 108.239793 294.897081 
L 108.363256 292.206416 
L 108.616679 279.277287 
L 108.779129 294.519746 
L 108.97407 292.672386 
L 109.058545 293.764056 
L 109.376948 292.853375 
L 109.441928 293.703184 
L 109.669359 293.796451 
L 109.753834 292.592943 
L 109.909787 287.516141 
L 110.091731 294.874228 
L 110.143716 294.599042 
L 110.221692 294.106893 
L 110.507605 267.768006 
L 110.65706 293.664766 
L 110.871495 293.187552 
L 110.975463 292.419691 
L 111.046942 293.296539 
L 111.21589 287.353207 
L 111.306863 292.61793 
L 111.443322 290.227687 
L 111.553788 293.608679 
L 111.651258 293.435558 
L 111.794215 291.031022 
L 111.859195 294.676228 
L 111.97616 290.298297 
L 112.093124 293.757335 
L 112.457014 283.222099 
L 112.703939 292.683668 
L 112.807908 291.291805 
L 112.905378 292.202744 
L 112.989853 294.665955 
L 113.061331 293.614837 
L 113.145805 292.462092 
L 113.23028 295.000506 
L 113.386232 288.748371 
L 113.522691 290.470063 
L 113.626659 294.171982 
L 113.763118 293.290762 
L 113.880083 290.403035 
L 114.159498 270.757294 
L 114.276462 294.184529 
L 114.503893 286.12576 
L 114.64685 292.372092 
L 114.932763 279.428545 
L 115.095214 294.53882 
L 115.205681 290.186226 
L 115.316147 290.558908 
L 115.4721 291.54435 
L 115.563072 293.482539 
L 115.777507 290.299022 
L 115.855483 293.229322 
L 115.959452 290.598063 
L 116.050424 292.168368 
L 116.303848 293.446303 
L 116.375326 293.313687 
L 116.589761 287.829635 
L 116.804196 293.818684 
L 116.927658 289.497141 
L 117.148591 294.757586 
L 117.213572 294.459559 
L 117.343532 289.881268 
L 117.538473 288.002764 
L 117.655438 291.719039 
L 117.7789 289.526484 
L 117.876371 291.270919 
L 117.999833 290.553665 
L 118.116798 292.713431 
L 118.331233 286.086655 
L 118.506679 287.735321 
L 118.714616 293.154064 
L 118.799091 293.219737 
L 118.987534 288.043751 
L 119.110996 295.372065 
L 119.169478 293.809369 
L 119.409906 284.264672 
L 119.533368 289.969418 
L 119.754301 290.015134 
L 119.95574 294.923604 
L 120.092199 288.090335 
L 120.261147 285.353897 
L 120.547061 293.196016 
L 120.683519 287.962467 
L 120.78099 294.547588 
L 121.092895 289.289076 
L 121.190366 293.568984 
L 121.365812 287.903549 
L 121.456785 293.681234 
L 121.593243 288.61369 
L 121.76869 288.453693 
L 121.840169 295.140815 
L 122.022113 288.896849 
L 122.113086 294.193463 
L 122.249544 291.256012 
L 122.392501 294.241443 
L 122.801877 287.927783 
L 122.996818 280.846993 
L 123.12028 292.854073 
L 123.3867 289.207546 
L 123.48417 294.678251 
L 123.861056 276.937174 
L 124.017008 293.934712 
L 124.088487 294.395196 
L 124.211949 290.536879 
L 124.34191 291.995885 
L 124.458874 291.950132 
L 124.543349 294.466064 
L 124.640819 292.653206 
L 124.829262 283.628778 
L 125.011207 293.225838 
L 125.212646 282.783128 
L 125.271128 294.774455 
L 125.355602 293.036362 
L 125.531049 292.350704 
L 125.59603 294.111369 
L 125.674006 293.663994 
L 125.862449 289.566888 
L 126.0249 294.288412 
L 126.083382 294.117289 
L 126.473264 266.112048 
L 126.55124 292.98914 
L 126.674702 291.893797 
L 126.824157 294.219541 
L 126.908632 293.436458 
L 127.058086 290.839783 
L 127.123066 294.264538 
L 127.246529 289.224173 
L 127.37649 288.720383 
L 127.486956 292.145504 
L 127.649407 290.003812 
L 127.93532 293.369888 
L 128.461661 281.937488 
L 128.702088 294.079154 
L 129.065977 257.811361 
L 129.28691 293.597466 
L 129.494847 281.410327 
L 129.572824 293.941377 
L 129.74827 289.768492 
L 129.819749 294.884823 
L 129.897725 293.02198 
L 130.027686 290.195923 
L 130.313599 294.352942 
L 130.683987 270.711195 
L 130.891924 290.349651 
L 131.119355 286.834937 
L 131.288303 293.670418 
L 131.411766 292.563292 
L 131.489742 292.801162 
L 131.678185 292.706911 
L 131.873126 280.577875 
L 132.120051 291.060131 
L 132.22402 292.744058 
L 132.412462 282.961882 
L 132.529427 291.431536 
L 132.730866 283.643025 
L 132.945301 293.391807 
L 133.250708 290.311301 
L 133.328685 292.522123 
L 133.751056 244.686713 
L 133.933001 294.530932 
L 133.997982 293.780162 
L 134.082456 293.961493 
L 134.283895 293.322335 
L 134.394361 290.729847 
L 134.459342 294.55881 
L 134.556812 292.742978 
L 134.751753 292.265304 
L 134.86222 293.567899 
L 135.128639 292.211825 
L 135.544513 281.236431 
L 135.78494 280.989903 
L 135.843422 294.162524 
L 136.025367 292.474083 
L 136.109841 292.494381 
L 136.324276 292.766306 
L 136.441241 290.469891 
L 136.519217 293.247971 
L 136.688166 291.916365 
L 136.850617 292.317005 
L 136.935091 295.11048 
L 137.07155 288.949023 
L 137.240498 288.795828 
L 137.454933 290.086643 
L 137.604388 286.587712 
L 137.656372 295.059268 
L 137.825321 292.656508 
L 138.007266 292.669705 
L 138.189211 291.500669 
L 138.260689 294.122668 
L 138.527108 289.793236 
L 138.696057 294.061921 
L 138.780531 293.505308 
L 139.209401 285.993721 
L 139.384848 294.389354 
L 140.015157 262.639165 
L 140.249086 272.916269 
L 140.372548 289.599568 
L 141.392739 228.282297 
L 141.633166 271.8575 
L 141.821609 277.273621 
L 142.055538 273.236735 
L 142.276471 274.848235 
L 143.316156 215.526975 
L 143.628061 267.720064 
L 143.86199 273.483565 
L 144.427319 226.555397 
L 144.999145 219.346802 
L 145.570972 217.971975 
L 146.129803 221.686826 
L 146.630151 232.510885 
L 147.175985 223.251252 
L 147.669835 232.105065 
L 148.18318 229.062754 
L 148.748508 229.144385 
L 149.229363 241.327157 
L 149.703719 237.03907 
L 150.249553 226.265441 
L 150.801886 221.79979 
L 151.334724 225.456661 
L 151.828574 239.467747 
L 152.419895 216.912292 
L 152.991722 218.820481 
L 153.537556 224.65551 
L 154.096387 221.254832 
L 154.629225 226.227136 
L 155.194554 225.993658 
L 155.740388 230.586675 
L 156.299219 229.085047 
L 156.858049 224.026093 
L 157.436374 226.289691 
L 157.988706 225.608209 
L 158.593023 218.82902 
L 159.177846 220.580738 
L 159.75617 223.71483 
L 160.366985 218.961686 
L 160.984298 219.119485 
L 161.562622 222.609578 
L 162.134449 223.652801 
L 162.706276 219.433126 
L 163.330086 219.822599 
L 163.888917 223.539558 
L 164.532222 217.893589 
L 165.195021 216.822412 
L 165.805836 215.540751 
L 166.371164 219.89872 
L 166.975481 217.193584 
L 167.547307 217.80529 
L 168.119134 218.675193 
L 168.716953 214.005632 
L 169.334266 219.395441 
L 169.906092 219.19264 
L 170.536401 216.519189 
L 171.10173 221.56341 
L 171.712544 217.098905 
L 172.362347 218.603898 
L 172.960166 214.175734 
L 173.538491 217.132672 
L 174.136309 218.356481 
L 174.734128 215.179037 
L 175.357939 214.197195 
L 175.962256 212.806803 
L 176.579568 210.817413 
L 177.775206 214.156388 
L 178.379522 213.279233 
L 178.977341 212.615701 
L 179.562164 215.792468 
L 180.250955 207.698955 
L 180.874766 209.946722 
L 181.505075 208.393673 
L 182.14838 206.370442 
L 182.759194 211.88181 
L 183.376507 210.096653 
L 183.987322 210.899698 
L 184.591639 222.474849 
L 185.221947 208.828867 
L 185.77428 227.850391 
L 186.391593 209.752869 
L 186.976415 213.330509 
L 187.593728 209.481276 
L 188.211041 209.031939 
L 188.80886 211.42148 
L 189.413176 211.510586 
L 189.978505 217.861648 
L 190.602316 209.345945 
L 191.232625 207.512008 
L 191.849937 209.696217 
L 192.460752 210.410538 
L 193.136547 204.199796 
L 193.747362 210.327119 
L 194.371173 209.194622 
L 194.97549 211.48057 
L 195.5993 208.052573 
L 196.203617 210.801736 
L 196.82093 210.34697 
L 197.451239 208.35058 
L 198.062054 210.688379 
L 198.705358 205.769752 
L 199.335667 206.393157 
L 199.978972 206.139737 
L 200.635273 204.412972 
L 201.220096 215.496014 
L 201.876397 205.005604 
L 203.260477 200.147174 
L 203.936272 202.561732 
L 204.644557 205.635874 
L 205.307356 204.454604 
L 205.970155 206.930546 
L 206.665445 200.83229 
L 207.360734 206.355017 
L 208.069019 209.30583 
L 208.738316 212.988148 
L 209.466095 207.121858 
L 210.102902 222.087213 
L 210.785195 209.484427 
L 211.467488 207.956091 
L 212.208264 196.559948 
L 212.832074 219.869344 
L 213.60534 202.095616 
L 214.404598 192.057824 
L 215.145373 194.788022 
L 215.925136 197.009865 
L 216.691904 194.473601 
L 217.419683 196.65383 
L 218.101976 203.564557 
L 218.855748 193.082502 
L 219.583527 196.259613 
L 220.3308 194.890538 
L 221.05858 195.600404 
L 222.527134 194.190827 
L 223.254914 195.761077 
L 223.995689 194.126781 
L 224.742962 193.156537 
L 225.470742 195.536446 
L 226.205019 194.191092 
L 226.939296 195.616034 
L 227.706064 191.666052 
L 228.433843 195.947349 
L 229.941386 190.921054 
L 230.708153 190.825717 
L 231.507411 188.618542 
L 232.261182 191.802157 
L 233.047444 189.231743 
L 233.768725 196.059131 
L 234.613469 186.31735 
L 235.380236 192.273812 
L 236.134008 192.041893 
L 236.907273 189.966899 
L 237.726025 186.35932 
L 238.486295 190.605539 
L 239.272556 187.461096 
L 240.078312 186.023674 
L 240.858075 189.357403 
L 241.657333 188.375021 
L 242.45659 187.06706 
L 243.203864 193.197443 
L 244.029114 185.614754 
L 244.841367 186.742715 
L 245.621131 189.193149 
L 246.433384 186.341281 
L 247.258634 184.393085 
L 248.057892 189.576 
L 248.844153 190.84152 
L 249.656407 184.989252 
L 250.475159 185.560258 
L 251.280914 185.784976 
L 252.132156 183.557288 
L 252.983398 182.688248 
L 253.86713 181.49423 
L 254.809344 178.372449 
L 255.634594 184.108984 
L 256.498832 182.458802 
L 257.29809 186.169225 
L 258.168826 181.450232 
L 260.267689 166.392987 
L 261.235895 176.285462 
L 262.262584 171.603548 
L 263.172308 178.902814 
L 264.179503 173.406118 
L 265.004753 182.783869 
L 266.213386 163.520158 
L 266.720232 246.294231 
L 267.409023 242.263551 
L 269.442907 113.668923 
L 271.658735 103.932939 
L 273.315732 138.279264 
L 274.550358 158.994949 
L 276.213853 133.657041 
L 279.235437 53.568 
L 281.26932 112.835843 
L 284.518335 91.920793 
L 286.123348 135.647344 
L 289.372363 91.146557 
L 292.621378 86.915425 
L 294.882692 98.868246 
L 298.131706 86.521627 
L 301.302745 90.148137 
L 303.193671 156.906034 
L 304.343823 162.834896 
L 307.592837 83.331173 
L 308.320617 234.468065 
L 310.399986 106.875577 
L 312.16745 128.62817 
L 313.512542 152.516398 
L 315.260512 126.824097 
L 316.839533 136.808154 
L 318.658981 119.301512 
L 321.907996 94.647136 
L 322.973673 166.352465 
L 326.222688 82.20566 
L 326.982957 188.999987 
L 330.231972 91.387816 
L 331.999436 125.010288 
L 332.694725 196.623466 
L 333.441998 189.452887 
L 335.67732 98.258646 
L 337.288832 133.177184 
L 339.316217 109.243029 
L 340.88874 136.52892 
L 342.545738 132.034765 
L 343.319003 190.236376 
L 344.007794 197.933099 
L 344.696585 198.989384 
L 345.456855 193.622681 
L 346.217124 189.124967 
L 346.866927 201.796844 
L 347.666185 187.280165 
L 348.393964 192.795616 
L 349.134739 193.414365 
L 349.856021 193.414341 
L 350.5838 192.98092 
L 351.285587 194.788474 
L 352.045857 189.112275 
L 352.786632 191.948903 
L 353.579391 188.279867 
L 354.339661 188.805959 
L 355.086934 190.782057 
L 355.8602 187.889407 
L 356.620469 191.992076 
L 357.387237 187.167296 
L 358.128012 190.653789 
L 358.875285 189.39481 
L 359.622559 189.540821 
L 360.369832 189.330584 
L 361.149596 186.607536 
L 361.857881 194.35587 
L 362.592158 192.869632 
L 363.371922 185.162765 
L 364.106199 192.267075 
L 364.82748 191.525196 
L 365.542264 194.074728 
L 366.296035 187.907529 
L 367.03681 190.765093 
L 367.76459 191.503298 
L 368.518361 188.33519 
L 369.278631 187.57474 
L 370.0389 187.23537 
L 370.779675 190.716642 
L 371.526949 189.025916 
L 372.28072 191.231655 
L 373.04099 188.771319 
L 373.833749 187.149625 
L 374.613513 185.825074 
L 375.367284 189.279196 
L 376.127554 188.515913 
L 376.887823 190.062265 
L 377.635096 188.833055 
L 378.41486 186.056025 
L 379.149137 190.938389 
L 379.922403 185.303417 
L 380.676174 190.149051 
L 381.468934 186.353702 
L 382.242199 186.537935 
L 383.015465 189.39506 
L 383.78873 187.234594 
L 384.568494 187.108882 
L 385.354755 184.346165 
L 386.115025 188.15692 
L 386.881792 186.964625 
L 387.635564 189.411508 
L 388.415327 184.573098 
L 389.182095 187.08227 
L 389.942364 187.30578 
L 390.696135 188.097321 
L 391.436911 188.647228 
L 392.223172 184.236527 
L 392.98994 186.191115 
L 393.769703 185.073618 
L 394.568961 183.156392 
L 395.348725 186.195076 
L 396.12199 186.181781 
L 396.91475 183.483327 
L 397.714007 183.054995 
L 398.487273 187.202656 
L 398.487273 187.202656 
" clip-path="url(#pa781fbe69b)" style="fill: none; stroke: #1f77b4; stroke-width: 1.5; stroke-linecap: square"/>
   </g>
   <g id="patch_3">
    <path d="M 57.6 307.584 
L 57.6 41.472 
" style="fill: none; stroke: #000000; stroke-width: 0.8; stroke-linejoin: miter; stroke-linecap: square"/>
   </g>
   <g id="patch_4">
    <path d="M 414.72 307.584 
L 414.72 41.472 
" style="fill: none; stroke: #000000; stroke-width: 0.8; stroke-linejoin: miter; stroke-linecap: square"/>
   </g>
   <g id="patch_5">
    <path d="M 57.6 307.584 
L 414.72 307.584 
" style="fill: none; stroke: #000000; stroke-width: 0.8; stroke-linejoin: miter; stroke-linecap: square"/>
   </g>
   <g id="patch_6">
    <path d="M 57.6 41.472 
L 414.72 41.472 
" style="fill: none; stroke: #000000; stroke-width: 0.8; stroke-linejoin: miter; stroke-linecap: square"/>
   </g>
   <g id="text_16">
    <!-- learning curve -->
    <g transform="translate(192.96375 35.472) scale(0.12 -0.12)">
     <defs>
      <path id="DejaVuSans-6c" d="M 603 4863 
L 1178 4863 
L 1178 0 
L 603 0 
L 603 4863 
z
" transform="scale(0.015625)"/>
      <path id="DejaVuSans-6e" d="M 3513 2113 
L 3513 0 
L 2938 0 
L 2938 2094 
Q 2938 2591 2744 2837 
Q 2550 3084 2163 3084 
Q 1697 3084 1428 2787 
Q 1159 2491 1159 1978 
L 1159 0 
L 581 0 
L 581 3500 
L 1159 3500 
L 1159 2956 
Q 1366 3272 1645 3428 
Q 1925 3584 2291 3584 
Q 2894 3584 3203 3211 
Q 3513 2838 3513 2113 
z
" transform="scale(0.015625)"/>
      <path id="DejaVuSans-67" d="M 2906 1791 
Q 2906 2416 2648 2759 
Q 2391 3103 1925 3103 
Q 1463 3103 1205 2759 
Q 947 2416 947 1791 
Q 947 1169 1205 825 
Q 1463 481 1925 481 
Q 2391 481 2648 825 
Q 2906 1169 2906 1791 
z
M 3481 434 
Q 3481 -459 3084 -895 
Q 2688 -1331 1869 -1331 
Q 1566 -1331 1297 -1286 
Q 1028 -1241 775 -1147 
L 775 -588 
Q 1028 -725 1275 -790 
Q 1522 -856 1778 -856 
Q 2344 -856 2625 -561 
Q 2906 -266 2906 331 
L 2906 616 
Q 2728 306 2450 153 
Q 2172 0 1784 0 
Q 1141 0 747 490 
Q 353 981 353 1791 
Q 353 2603 747 3093 
Q 1141 3584 1784 3584 
Q 2172 3584 2450 3431 
Q 2728 3278 2906 2969 
L 2906 3500 
L 3481 3500 
L 3481 434 
z
" transform="scale(0.015625)"/>
      <path id="DejaVuSans-20" transform="scale(0.015625)"/>
      <path id="DejaVuSans-63" d="M 3122 3366 
L 3122 2828 
Q 2878 2963 2633 3030 
Q 2388 3097 2138 3097 
Q 1578 3097 1268 2742 
Q 959 2388 959 1747 
Q 959 1106 1268 751 
Q 1578 397 2138 397 
Q 2388 397 2633 464 
Q 2878 531 3122 666 
L 3122 134 
Q 2881 22 2623 -34 
Q 2366 -91 2075 -91 
Q 1284 -91 818 406 
Q 353 903 353 1747 
Q 353 2603 823 3093 
Q 1294 3584 2113 3584 
Q 2378 3584 2631 3529 
Q 2884 3475 3122 3366 
z
" transform="scale(0.015625)"/>
      <path id="DejaVuSans-75" d="M 544 1381 
L 544 3500 
L 1119 3500 
L 1119 1403 
Q 1119 906 1312 657 
Q 1506 409 1894 409 
Q 2359 409 2629 706 
Q 2900 1003 2900 1516 
L 2900 3500 
L 3475 3500 
L 3475 0 
L 2900 0 
L 2900 538 
Q 2691 219 2414 64 
Q 2138 -91 1772 -91 
Q 1169 -91 856 284 
Q 544 659 544 1381 
z
M 1991 3584 
L 1991 3584 
z
" transform="scale(0.015625)"/>
      <path id="DejaVuSans-76" d="M 191 3500 
L 800 3500 
L 1894 563 
L 2988 3500 
L 3597 3500 
L 2284 0 
L 1503 0 
L 191 3500 
z
" transform="scale(0.015625)"/>
     </defs>
     <use xlink:href="#DejaVuSans-6c"/>
     <use xlink:href="#DejaVuSans-65" x="27.783203"/>
     <use xlink:href="#DejaVuSans-61" x="89.306641"/>
     <use xlink:href="#DejaVuSans-72" x="150.585938"/>
     <use xlink:href="#DejaVuSans-6e" x="189.949219"/>
     <use xlink:href="#DejaVuSans-69" x="253.328125"/>
     <use xlink:href="#DejaVuSans-6e" x="281.111328"/>
     <use xlink:href="#DejaVuSans-67" x="344.490234"/>
     <use xlink:href="#DejaVuSans-20" x="407.966797"/>
     <use xlink:href="#DejaVuSans-63" x="439.753906"/>
     <use xlink:href="#DejaVuSans-75" x="494.734375"/>
     <use xlink:href="#DejaVuSans-72" x="558.113281"/>
     <use xlink:href="#DejaVuSans-76" x="599.226562"/>
     <use xlink:href="#DejaVuSans-65" x="658.40625"/>
    </g>
   </g>
  </g>
 </g>
 <defs>
  <clipPath id="pa781fbe69b">
   <rect x="57.6" y="41.472" width="357.12" height="266.112"/>
  </clipPath>
 </defs>
</svg>
