<?xml version="1.0" encoding="utf-8" standalone="no"?>
<!DOCTYPE svg PUBLIC "-//W3C//DTD SVG 1.1//EN"
  "http://www.w3.org/Graphics/SVG/1.1/DTD/svg11.dtd">
<svg xmlns:xlink="http://www.w3.org/1999/xlink" width="460.8pt" height="345.6pt" viewBox="0 0 460.8 345.6" xmlns="http://www.w3.org/2000/svg" version="1.1">
 <metadata>
  <rdf:RDF xmlns:dc="http://purl.org/dc/elements/1.1/" xmlns:cc="http://creativecommons.org/ns#" xmlns:rdf="http://www.w3.org/1999/02/22-rdf-syntax-ns#">
   <cc:Work>
    <dc:type rdf:resource="http://purl.org/dc/dcmitype/StillImage"/>
    <dc:date>2023-08-18T17:55:13.873149</dc:date>
    <dc:format>image/svg+xml</dc:format>
    <dc:creator>
     <cc:Agent>
      <dc:title>Matplotlib v3.7.1, https://matplotlib.org/</dc:title>
     </cc:Agent>
    </dc:creator>
   </cc:Work>
  </rdf:RDF>
 </metadata>
 <defs>
  <style type="text/css">*{stroke-linejoin: round; stroke-linecap: butt}</style>
 </defs>
 <g id="figure_1">
  <g id="patch_1">
   <path d="M 0 345.6 
L 460.8 345.6 
L 460.8 0 
L 0 0 
z
" style="fill: #ffffff"/>
  </g>
  <g id="axes_1">
   <g id="patch_2">
    <path d="M 57.6 307.584 
L 414.72 307.584 
L 414.72 41.472 
L 57.6 41.472 
z
" style="fill: #ffffff"/>
   </g>
   <g id="matplotlib.axis_1">
    <g id="xtick_1">
     <g id="line2d_1">
      <defs>
       <path id="mf363456b72" d="M 0 0 
L 0 3.5 
" style="stroke: #000000; stroke-width: 0.8"/>
      </defs>
      <g>
       <use xlink:href="#mf363456b72" x="73.72219" y="307.584" style="stroke: #000000; stroke-width: 0.8"/>
      </g>
     </g>
     <g id="text_1">
      <!-- 0 -->
      <g transform="translate(70.54094 322.182437) scale(0.1 -0.1)">
       <defs>
        <path id="DejaVuSans-30" d="M 2034 4250 
Q 1547 4250 1301 3770 
Q 1056 3291 1056 2328 
Q 1056 1369 1301 889 
Q 1547 409 2034 409 
Q 2525 409 2770 889 
Q 3016 1369 3016 2328 
Q 3016 3291 2770 3770 
Q 2525 4250 2034 4250 
z
M 2034 4750 
Q 2819 4750 3233 4129 
Q 3647 3509 3647 2328 
Q 3647 1150 3233 529 
Q 2819 -91 2034 -91 
Q 1250 -91 836 529 
Q 422 1150 422 2328 
Q 422 3509 836 4129 
Q 1250 4750 2034 4750 
z
" transform="scale(0.015625)"/>
       </defs>
       <use xlink:href="#DejaVuSans-30"/>
      </g>
     </g>
    </g>
    <g id="xtick_2">
     <g id="line2d_2">
      <g>
       <use xlink:href="#mf363456b72" x="138.74413" y="307.584" style="stroke: #000000; stroke-width: 0.8"/>
      </g>
     </g>
     <g id="text_2">
      <!-- 10000 -->
      <g transform="translate(122.83788 322.182437) scale(0.1 -0.1)">
       <defs>
        <path id="DejaVuSans-31" d="M 794 531 
L 1825 531 
L 1825 4091 
L 703 3866 
L 703 4441 
L 1819 4666 
L 2450 4666 
L 2450 531 
L 3481 531 
L 3481 0 
L 794 0 
L 794 531 
z
" transform="scale(0.015625)"/>
       </defs>
       <use xlink:href="#DejaVuSans-31"/>
       <use xlink:href="#DejaVuSans-30" x="63.623047"/>
       <use xlink:href="#DejaVuSans-30" x="127.246094"/>
       <use xlink:href="#DejaVuSans-30" x="190.869141"/>
       <use xlink:href="#DejaVuSans-30" x="254.492188"/>
      </g>
     </g>
    </g>
    <g id="xtick_3">
     <g id="line2d_3">
      <g>
       <use xlink:href="#mf363456b72" x="203.76607" y="307.584" style="stroke: #000000; stroke-width: 0.8"/>
      </g>
     </g>
     <g id="text_3">
      <!-- 20000 -->
      <g transform="translate(187.85982 322.182437) scale(0.1 -0.1)">
       <defs>
        <path id="DejaVuSans-32" d="M 1228 531 
L 3431 531 
L 3431 0 
L 469 0 
L 469 531 
Q 828 903 1448 1529 
Q 2069 2156 2228 2338 
Q 2531 2678 2651 2914 
Q 2772 3150 2772 3378 
Q 2772 3750 2511 3984 
Q 2250 4219 1831 4219 
Q 1534 4219 1204 4116 
Q 875 4013 500 3803 
L 500 4441 
Q 881 4594 1212 4672 
Q 1544 4750 1819 4750 
Q 2544 4750 2975 4387 
Q 3406 4025 3406 3419 
Q 3406 3131 3298 2873 
Q 3191 2616 2906 2266 
Q 2828 2175 2409 1742 
Q 1991 1309 1228 531 
z
" transform="scale(0.015625)"/>
       </defs>
       <use xlink:href="#DejaVuSans-32"/>
       <use xlink:href="#DejaVuSans-30" x="63.623047"/>
       <use xlink:href="#DejaVuSans-30" x="127.246094"/>
       <use xlink:href="#DejaVuSans-30" x="190.869141"/>
       <use xlink:href="#DejaVuSans-30" x="254.492188"/>
      </g>
     </g>
    </g>
    <g id="xtick_4">
     <g id="line2d_4">
      <g>
       <use xlink:href="#mf363456b72" x="268.788009" y="307.584" style="stroke: #000000; stroke-width: 0.8"/>
      </g>
     </g>
     <g id="text_4">
      <!-- 30000 -->
      <g transform="translate(252.881759 322.182437) scale(0.1 -0.1)">
       <defs>
        <path id="DejaVuSans-33" d="M 2597 2516 
Q 3050 2419 3304 2112 
Q 3559 1806 3559 1356 
Q 3559 666 3084 287 
Q 2609 -91 1734 -91 
Q 1441 -91 1130 -33 
Q 819 25 488 141 
L 488 750 
Q 750 597 1062 519 
Q 1375 441 1716 441 
Q 2309 441 2620 675 
Q 2931 909 2931 1356 
Q 2931 1769 2642 2001 
Q 2353 2234 1838 2234 
L 1294 2234 
L 1294 2753 
L 1863 2753 
Q 2328 2753 2575 2939 
Q 2822 3125 2822 3475 
Q 2822 3834 2567 4026 
Q 2313 4219 1838 4219 
Q 1578 4219 1281 4162 
Q 984 4106 628 3988 
L 628 4550 
Q 988 4650 1302 4700 
Q 1616 4750 1894 4750 
Q 2613 4750 3031 4423 
Q 3450 4097 3450 3541 
Q 3450 3153 3228 2886 
Q 3006 2619 2597 2516 
z
" transform="scale(0.015625)"/>
       </defs>
       <use xlink:href="#DejaVuSans-33"/>
       <use xlink:href="#DejaVuSans-30" x="63.623047"/>
       <use xlink:href="#DejaVuSans-30" x="127.246094"/>
       <use xlink:href="#DejaVuSans-30" x="190.869141"/>
       <use xlink:href="#DejaVuSans-30" x="254.492188"/>
      </g>
     </g>
    </g>
    <g id="xtick_5">
     <g id="line2d_5">
      <g>
       <use xlink:href="#mf363456b72" x="333.809949" y="307.584" style="stroke: #000000; stroke-width: 0.8"/>
      </g>
     </g>
     <g id="text_5">
      <!-- 40000 -->
      <g transform="translate(317.903699 322.182437) scale(0.1 -0.1)">
       <defs>
        <path id="DejaVuSans-34" d="M 2419 4116 
L 825 1625 
L 2419 1625 
L 2419 4116 
z
M 2253 4666 
L 3047 4666 
L 3047 1625 
L 3713 1625 
L 3713 1100 
L 3047 1100 
L 3047 0 
L 2419 0 
L 2419 1100 
L 313 1100 
L 313 1709 
L 2253 4666 
z
" transform="scale(0.015625)"/>
       </defs>
       <use xlink:href="#DejaVuSans-34"/>
       <use xlink:href="#DejaVuSans-30" x="63.623047"/>
       <use xlink:href="#DejaVuSans-30" x="127.246094"/>
       <use xlink:href="#DejaVuSans-30" x="190.869141"/>
       <use xlink:href="#DejaVuSans-30" x="254.492188"/>
      </g>
     </g>
    </g>
    <g id="xtick_6">
     <g id="line2d_6">
      <g>
       <use xlink:href="#mf363456b72" x="398.831889" y="307.584" style="stroke: #000000; stroke-width: 0.8"/>
      </g>
     </g>
     <g id="text_6">
      <!-- 50000 -->
      <g transform="translate(382.925639 322.182437) scale(0.1 -0.1)">
       <defs>
        <path id="DejaVuSans-35" d="M 691 4666 
L 3169 4666 
L 3169 4134 
L 1269 4134 
L 1269 2991 
Q 1406 3038 1543 3061 
Q 1681 3084 1819 3084 
Q 2600 3084 3056 2656 
Q 3513 2228 3513 1497 
Q 3513 744 3044 326 
Q 2575 -91 1722 -91 
Q 1428 -91 1123 -41 
Q 819 9 494 109 
L 494 744 
Q 775 591 1075 516 
Q 1375 441 1709 441 
Q 2250 441 2565 725 
Q 2881 1009 2881 1497 
Q 2881 1984 2565 2268 
Q 2250 2553 1709 2553 
Q 1456 2553 1204 2497 
Q 953 2441 691 2322 
L 691 4666 
z
" transform="scale(0.015625)"/>
       </defs>
       <use xlink:href="#DejaVuSans-35"/>
       <use xlink:href="#DejaVuSans-30" x="63.623047"/>
       <use xlink:href="#DejaVuSans-30" x="127.246094"/>
       <use xlink:href="#DejaVuSans-30" x="190.869141"/>
       <use xlink:href="#DejaVuSans-30" x="254.492188"/>
      </g>
     </g>
    </g>
    <g id="text_7">
     <!-- timesteps -->
     <g transform="translate(211.443594 335.860562) scale(0.1 -0.1)">
      <defs>
       <path id="DejaVuSans-74" d="M 1172 4494 
L 1172 3500 
L 2356 3500 
L 2356 3053 
L 1172 3053 
L 1172 1153 
Q 1172 725 1289 603 
Q 1406 481 1766 481 
L 2356 481 
L 2356 0 
L 1766 0 
Q 1100 0 847 248 
Q 594 497 594 1153 
L 594 3053 
L 172 3053 
L 172 3500 
L 594 3500 
L 594 4494 
L 1172 4494 
z
" transform="scale(0.015625)"/>
       <path id="DejaVuSans-69" d="M 603 3500 
L 1178 3500 
L 1178 0 
L 603 0 
L 603 3500 
z
M 603 4863 
L 1178 4863 
L 1178 4134 
L 603 4134 
L 603 4863 
z
" transform="scale(0.015625)"/>
       <path id="DejaVuSans-6d" d="M 3328 2828 
Q 3544 3216 3844 3400 
Q 4144 3584 4550 3584 
Q 5097 3584 5394 3201 
Q 5691 2819 5691 2113 
L 5691 0 
L 5113 0 
L 5113 2094 
Q 5113 2597 4934 2840 
Q 4756 3084 4391 3084 
Q 3944 3084 3684 2787 
Q 3425 2491 3425 1978 
L 3425 0 
L 2847 0 
L 2847 2094 
Q 2847 2600 2669 2842 
Q 2491 3084 2119 3084 
Q 1678 3084 1418 2786 
Q 1159 2488 1159 1978 
L 1159 0 
L 581 0 
L 581 3500 
L 1159 3500 
L 1159 2956 
Q 1356 3278 1631 3431 
Q 1906 3584 2284 3584 
Q 2666 3584 2933 3390 
Q 3200 3197 3328 2828 
z
" transform="scale(0.015625)"/>
       <path id="DejaVuSans-65" d="M 3597 1894 
L 3597 1613 
L 953 1613 
Q 991 1019 1311 708 
Q 1631 397 2203 397 
Q 2534 397 2845 478 
Q 3156 559 3463 722 
L 3463 178 
Q 3153 47 2828 -22 
Q 2503 -91 2169 -91 
Q 1331 -91 842 396 
Q 353 884 353 1716 
Q 353 2575 817 3079 
Q 1281 3584 2069 3584 
Q 2775 3584 3186 3129 
Q 3597 2675 3597 1894 
z
M 3022 2063 
Q 3016 2534 2758 2815 
Q 2500 3097 2075 3097 
Q 1594 3097 1305 2825 
Q 1016 2553 972 2059 
L 3022 2063 
z
" transform="scale(0.015625)"/>
       <path id="DejaVuSans-73" d="M 2834 3397 
L 2834 2853 
Q 2591 2978 2328 3040 
Q 2066 3103 1784 3103 
Q 1356 3103 1142 2972 
Q 928 2841 928 2578 
Q 928 2378 1081 2264 
Q 1234 2150 1697 2047 
L 1894 2003 
Q 2506 1872 2764 1633 
Q 3022 1394 3022 966 
Q 3022 478 2636 193 
Q 2250 -91 1575 -91 
Q 1294 -91 989 -36 
Q 684 19 347 128 
L 347 722 
Q 666 556 975 473 
Q 1284 391 1588 391 
Q 1994 391 2212 530 
Q 2431 669 2431 922 
Q 2431 1156 2273 1281 
Q 2116 1406 1581 1522 
L 1381 1569 
Q 847 1681 609 1914 
Q 372 2147 372 2553 
Q 372 3047 722 3315 
Q 1072 3584 1716 3584 
Q 2034 3584 2315 3537 
Q 2597 3491 2834 3397 
z
" transform="scale(0.015625)"/>
       <path id="DejaVuSans-70" d="M 1159 525 
L 1159 -1331 
L 581 -1331 
L 581 3500 
L 1159 3500 
L 1159 2969 
Q 1341 3281 1617 3432 
Q 1894 3584 2278 3584 
Q 2916 3584 3314 3078 
Q 3713 2572 3713 1747 
Q 3713 922 3314 415 
Q 2916 -91 2278 -91 
Q 1894 -91 1617 61 
Q 1341 213 1159 525 
z
M 3116 1747 
Q 3116 2381 2855 2742 
Q 2594 3103 2138 3103 
Q 1681 3103 1420 2742 
Q 1159 2381 1159 1747 
Q 1159 1113 1420 752 
Q 1681 391 2138 391 
Q 2594 391 2855 752 
Q 3116 1113 3116 1747 
z
" transform="scale(0.015625)"/>
      </defs>
      <use xlink:href="#DejaVuSans-74"/>
      <use xlink:href="#DejaVuSans-69" x="39.208984"/>
      <use xlink:href="#DejaVuSans-6d" x="66.992188"/>
      <use xlink:href="#DejaVuSans-65" x="164.404297"/>
      <use xlink:href="#DejaVuSans-73" x="225.927734"/>
      <use xlink:href="#DejaVuSans-74" x="278.027344"/>
      <use xlink:href="#DejaVuSans-65" x="317.236328"/>
      <use xlink:href="#DejaVuSans-70" x="378.759766"/>
      <use xlink:href="#DejaVuSans-73" x="442.236328"/>
     </g>
    </g>
   </g>
   <g id="matplotlib.axis_2">
    <g id="ytick_1">
     <g id="line2d_7">
      <defs>
       <path id="m776f59f4f7" d="M 0 0 
L -3.5 0 
" style="stroke: #000000; stroke-width: 0.8"/>
      </defs>
      <g>
       <use xlink:href="#m776f59f4f7" x="57.6" y="297.121698" style="stroke: #000000; stroke-width: 0.8"/>
      </g>
     </g>
     <g id="text_8">
      <!-- 0 -->
      <g transform="translate(44.2375 300.920917) scale(0.1 -0.1)">
       <use xlink:href="#DejaVuSans-30"/>
      </g>
     </g>
    </g>
    <g id="ytick_2">
     <g id="line2d_8">
      <g>
       <use xlink:href="#m776f59f4f7" x="57.6" y="238.819691" style="stroke: #000000; stroke-width: 0.8"/>
      </g>
     </g>
     <g id="text_9">
      <!-- 100 -->
      <g transform="translate(31.5125 242.61891) scale(0.1 -0.1)">
       <use xlink:href="#DejaVuSans-31"/>
       <use xlink:href="#DejaVuSans-30" x="63.623047"/>
       <use xlink:href="#DejaVuSans-30" x="127.246094"/>
      </g>
     </g>
    </g>
    <g id="ytick_3">
     <g id="line2d_9">
      <g>
       <use xlink:href="#m776f59f4f7" x="57.6" y="180.517684" style="stroke: #000000; stroke-width: 0.8"/>
      </g>
     </g>
     <g id="text_10">
      <!-- 200 -->
      <g transform="translate(31.5125 184.316903) scale(0.1 -0.1)">
       <use xlink:href="#DejaVuSans-32"/>
       <use xlink:href="#DejaVuSans-30" x="63.623047"/>
       <use xlink:href="#DejaVuSans-30" x="127.246094"/>
      </g>
     </g>
    </g>
    <g id="ytick_4">
     <g id="line2d_10">
      <g>
       <use xlink:href="#m776f59f4f7" x="57.6" y="122.215677" style="stroke: #000000; stroke-width: 0.8"/>
      </g>
     </g>
     <g id="text_11">
      <!-- 300 -->
      <g transform="translate(31.5125 126.014896) scale(0.1 -0.1)">
       <use xlink:href="#DejaVuSans-33"/>
       <use xlink:href="#DejaVuSans-30" x="63.623047"/>
       <use xlink:href="#DejaVuSans-30" x="127.246094"/>
      </g>
     </g>
    </g>
    <g id="ytick_5">
     <g id="line2d_11">
      <g>
       <use xlink:href="#m776f59f4f7" x="57.6" y="63.91367" style="stroke: #000000; stroke-width: 0.8"/>
      </g>
     </g>
     <g id="text_12">
      <!-- 400 -->
      <g transform="translate(31.5125 67.712889) scale(0.1 -0.1)">
       <use xlink:href="#DejaVuSans-34"/>
       <use xlink:href="#DejaVuSans-30" x="63.623047"/>
       <use xlink:href="#DejaVuSans-30" x="127.246094"/>
      </g>
     </g>
    </g>
    <g id="text_13">
     <!-- rewards -->
     <g transform="translate(25.432812 194.447531) rotate(-90) scale(0.1 -0.1)">
      <defs>
       <path id="DejaVuSans-72" d="M 2631 2963 
Q 2534 3019 2420 3045 
Q 2306 3072 2169 3072 
Q 1681 3072 1420 2755 
Q 1159 2438 1159 1844 
L 1159 0 
L 581 0 
L 581 3500 
L 1159 3500 
L 1159 2956 
Q 1341 3275 1631 3429 
Q 1922 3584 2338 3584 
Q 2397 3584 2469 3576 
Q 2541 3569 2628 3553 
L 2631 2963 
z
" transform="scale(0.015625)"/>
       <path id="DejaVuSans-77" d="M 269 3500 
L 844 3500 
L 1563 769 
L 2278 3500 
L 2956 3500 
L 3675 769 
L 4391 3500 
L 4966 3500 
L 4050 0 
L 3372 0 
L 2619 2869 
L 1863 0 
L 1184 0 
L 269 3500 
z
" transform="scale(0.015625)"/>
       <path id="DejaVuSans-61" d="M 2194 1759 
Q 1497 1759 1228 1600 
Q 959 1441 959 1056 
Q 959 750 1161 570 
Q 1363 391 1709 391 
Q 2188 391 2477 730 
Q 2766 1069 2766 1631 
L 2766 1759 
L 2194 1759 
z
M 3341 1997 
L 3341 0 
L 2766 0 
L 2766 531 
Q 2569 213 2275 61 
Q 1981 -91 1556 -91 
Q 1019 -91 701 211 
Q 384 513 384 1019 
Q 384 1609 779 1909 
Q 1175 2209 1959 2209 
L 2766 2209 
L 2766 2266 
Q 2766 2663 2505 2880 
Q 2244 3097 1772 3097 
Q 1472 3097 1187 3025 
Q 903 2953 641 2809 
L 641 3341 
Q 956 3463 1253 3523 
Q 1550 3584 1831 3584 
Q 2591 3584 2966 3190 
Q 3341 2797 3341 1997 
z
" transform="scale(0.015625)"/>
       <path id="DejaVuSans-64" d="M 2906 2969 
L 2906 4863 
L 3481 4863 
L 3481 0 
L 2906 0 
L 2906 525 
Q 2725 213 2448 61 
Q 2172 -91 1784 -91 
Q 1150 -91 751 415 
Q 353 922 353 1747 
Q 353 2572 751 3078 
Q 1150 3584 1784 3584 
Q 2172 3584 2448 3432 
Q 2725 3281 2906 2969 
z
M 947 1747 
Q 947 1113 1208 752 
Q 1469 391 1925 391 
Q 2381 391 2643 752 
Q 2906 1113 2906 1747 
Q 2906 2381 2643 2742 
Q 2381 3103 1925 3103 
Q 1469 3103 1208 2742 
Q 947 2381 947 1747 
z
" transform="scale(0.015625)"/>
      </defs>
      <use xlink:href="#DejaVuSans-72"/>
      <use xlink:href="#DejaVuSans-65" x="38.863281"/>
      <use xlink:href="#DejaVuSans-77" x="100.386719"/>
      <use xlink:href="#DejaVuSans-61" x="182.173828"/>
      <use xlink:href="#DejaVuSans-72" x="243.453125"/>
      <use xlink:href="#DejaVuSans-64" x="282.816406"/>
      <use xlink:href="#DejaVuSans-73" x="346.292969"/>
     </g>
    </g>
   </g>
   <g id="line2d_12">
    <path d="M 73.832727 287.405373 
L 73.936762 291.526097 
L 74.0473 290.517791 
L 74.183846 286.452827 
L 74.25537 292.93123 
L 74.482947 278.461134 
L 74.554471 292.140498 
L 74.756039 286.772376 
L 75.003122 294.705248 
L 75.120162 290.069861 
L 75.354241 268.628848 
L 75.503791 285.868521 
L 75.666346 282.089309 
L 76.082486 292.397081 
L 76.258046 284.023116 
L 76.323068 292.548099 
L 76.414098 291.43204 
L 76.59616 290.243469 
L 76.739208 283.666927 
L 76.849745 292.02013 
L 76.999296 289.250477 
L 77.181357 281.645785 
L 77.252881 292.317856 
L 77.519471 273.464662 
L 77.584493 294.535434 
L 77.81207 280.256593 
L 77.929109 292.048552 
L 78.07866 286.58957 
L 78.195699 288.015849 
L 78.410272 278.686298 
L 78.592333 292.655563 
L 78.728879 289.54426 
L 78.897936 291.707423 
L 78.975963 291.47054 
L 79.14502 285.728847 
L 79.431116 254.189401 
L 79.567662 290.629436 
L 79.873265 287.458012 
L 79.951292 292.178836 
L 80.126851 293.364437 
L 80.341423 289.27364 
L 80.41945 293.069854 
L 80.536489 289.517509 
L 80.89411 270.14411 
L 81.076171 294.058025 
L 81.147696 291.90622 
L 81.414285 268.465755 
L 81.622356 292.205862 
L 81.713386 291.113392 
L 81.810919 291.412511 
L 81.869439 293.570038 
L 82.077509 289.800652 
L 82.324593 278.439798 
L 82.487147 293.970223 
L 82.6432 288.776201 
L 82.734231 292.086262 
L 82.864275 285.992062 
L 83.013825 292.603197 
L 83.17638 280.543106 
L 83.260909 292.091955 
L 83.390952 289.213887 
L 83.553507 281.516404 
L 83.670547 288.629604 
L 83.982652 268.53125 
L 84.086687 289.297036 
L 84.294757 292.108262 
L 84.398792 291.785788 
L 84.730404 252.024725 
L 84.827937 292.61387 
L 85.075021 284.07808 
L 85.153047 291.230493 
L 85.244078 289.787094 
L 85.335108 291.225317 
L 85.452148 287.975828 
L 85.614703 293.177477 
L 85.712236 289.023924 
L 86.121874 233.274678 
L 86.251918 290.482976 
L 86.336446 290.171022 
L 86.459988 287.784841 
L 86.752587 290.21028 
L 86.882631 286.895983 
L 87.097203 292.790057 
L 87.240251 286.702978 
L 87.402806 289.946322 
L 87.552357 286.556649 
L 87.734418 288.101007 
L 87.896973 288.491811 
L 88.014012 289.617236 
L 88.111545 292.640034 
L 88.287104 287.259003 
L 88.456162 289.285444 
L 88.644725 279.33878 
L 88.722751 290.917339 
L 88.950328 281.423666 
L 89.353464 230.046984 
L 89.639561 289.451585 
L 89.782609 285.833033 
L 89.964671 291.838023 
L 90.159736 279.468205 
L 90.374309 290.199895 
L 90.725427 275.743304 
L 90.816458 292.694041 
L 90.894484 292.07805 
L 90.998519 293.876626 
L 91.141568 293.490773 
L 91.453673 286.321953 
L 91.752774 286.227264 
L 91.824298 292.206683 
L 92.077884 270.302325 
L 92.292456 293.536217 
L 92.500526 272.710616 
L 92.591557 290.880601 
L 92.728103 288.952316 
L 92.871151 292.544846 
L 93.085724 291.178444 
L 93.267785 283.60264 
L 93.417336 282.849068 
L 93.48886 292.225083 
L 93.612401 291.881676 
L 93.794463 277.874846 
L 93.852983 293.369156 
L 93.931009 291.862224 
L 94.015537 291.069551 
L 94.17159 286.877069 
L 94.600735 237.133448 
L 94.737281 285.733168 
L 94.893334 285.195863 
L 94.984364 292.841407 
L 95.192434 286.099158 
L 95.270461 292.249474 
L 95.485033 269.957967 
L 95.543553 293.11316 
L 95.77113 273.207036 
L 96.109244 275.564133 
L 96.213279 288.873016 
L 96.434354 290.318669 
L 96.948027 269.742082 
L 97.058564 291.437832 
L 97.331656 270.553096 
L 97.539727 274.550516 
L 97.676273 292.799909 
L 97.754299 291.471884 
L 97.884343 287.320204 
L 98.098915 285.986735 
L 98.619091 231.76768 
L 98.684113 293.301145 
L 98.833663 282.187909 
L 98.996218 291.993232 
L 99.093751 287.762513 
L 99.197786 289.984242 
L 99.425363 278.883348 
L 99.522896 291.187427 
L 99.620429 291.150353 
L 99.691953 292.525123 
L 99.958543 264.183769 
L 100.303159 283.470829 
L 100.517731 292.737528 
L 100.621766 287.935226 
L 100.712797 289.432128 
L 100.894859 289.360587 
L 101.148444 273.137903 
L 101.441043 267.179219 
L 101.707633 291.897241 
L 101.93521 283.503889 
L 102.039245 289.94058 
L 102.2018 288.251212 
L 102.266822 293.421143 
L 102.416372 283.911422 
L 102.572425 292.669335 
L 102.656953 292.012497 
L 102.73498 292.9591 
L 103.027578 274.681481 
L 103.099102 291.893466 
L 103.196635 291.097018 
L 103.378697 284.682063 
L 103.456723 293.29392 
L 103.74282 279.901015 
L 103.83385 292.916466 
L 104.002907 283.543205 
L 104.204475 282.719978 
L 104.282502 291.583287 
L 104.373532 290.974908 
L 104.497074 287.462026 
L 104.581603 293.183551 
L 104.685638 287.464425 
L 104.75066 292.135256 
L 105.127787 268.107535 
L 105.303346 276.576479 
L 105.43339 289.554156 
L 105.556932 288.387981 
L 105.882041 276.823731 
L 106.070605 282.149235 
L 106.142129 292.482743 
L 106.272173 285.713774 
L 106.460737 292.447151 
L 106.603785 289.957547 
L 106.876877 269.736527 
L 106.941899 292.484316 
L 107.013423 291.758409 
L 107.130463 291.868257 
L 107.241 290.804884 
L 107.462075 290.729851 
L 107.572612 288.483195 
L 107.702656 288.364974 
L 107.858708 288.539483 
L 107.962743 292.01206 
L 108.09929 285.442306 
L 108.261844 292.950634 
L 108.359377 291.853526 
L 108.710496 267.671455 
L 108.970584 290.247191 
L 109.081121 291.484313 
L 109.399728 277.037623 
L 109.458248 293.482789 
L 109.529772 291.709724 
L 109.620803 289.917918 
L 109.692327 291.729241 
L 109.796362 288.83587 
L 109.887393 289.42104 
L 109.971921 292.101284 
L 110.049948 291.939594 
L 110.440079 279.702837 
L 110.505101 293.808479 
L 110.58963 290.681879 
L 110.921242 285.479078 
L 111.239849 291.698702 
L 111.408906 286.115723 
L 111.493435 290.478769 
L 111.584466 288.974857 
L 111.870562 280.02834 
L 112.085134 278.930822 
L 112.182667 293.890206 
L 112.364729 275.566485 
L 112.45576 290.345466 
L 112.709345 261.667694 
L 112.917415 287.166663 
L 113.086472 285.404366 
L 113.268534 278.915375 
L 113.398578 293.159298 
L 113.483106 289.847162 
L 113.736692 287.963289 
L 114.100815 292.369855 
L 114.152832 293.871672 
L 114.425924 286.923705 
L 114.56247 287.228541 
L 114.770541 283.899042 
L 115.017624 290.97376 
L 115.147668 290.387525 
L 115.381747 283.630366 
L 115.589817 290.820052 
L 115.752372 278.511408 
L 115.95394 286.634611 
L 116.136001 284.164101 
L 116.207525 293.171792 
L 116.285552 291.403534 
L 116.519631 288.80552 
L 116.662679 288.323028 
L 116.851243 278.348053 
L 117.007295 282.615536 
L 117.202361 283.481235 
L 117.429938 292.797349 
L 117.572986 282.005811 
L 117.677021 291.139416 
L 117.82007 290.390561 
L 118.034642 286.91297 
L 118.171188 293.079006 
L 118.418271 292.594065 
L 118.782394 284.437949 
L 118.957953 291.495733 
L 119.296068 244.592696 
L 119.478129 278.237288 
L 120.206375 178.359624 
L 120.466463 291.84278 
L 120.642022 280.549927 
L 120.817581 291.281684 
L 120.921616 292.002538 
L 121.298743 269.05694 
L 121.383272 291.80034 
L 121.532822 285.475889 
L 121.623853 293.021443 
L 121.766901 285.654909 
L 122.026989 292.128031 
L 122.11802 290.716923 
L 122.215553 291.047726 
L 122.540662 283.067935 
L 122.839763 293.61468 
L 123.119358 283.579559 
L 123.255904 285.331031 
L 123.398952 284.613099 
L 123.483481 291.544755 
L 123.581013 289.390482 
L 123.789084 288.759667 
L 123.880114 291.219828 
L 124.062176 275.452551 
L 124.263744 292.533697 
L 124.413294 289.010273 
L 124.491321 291.020914 
L 124.712395 279.016726 
L 124.777417 292.326011 
L 124.939972 286.76646 
L 125.154544 292.194626 
L 125.284588 290.482856 
L 125.34961 293.174734 
L 125.668218 252.582811 
L 126.123371 285.408474 
L 126.285926 285.116073 
L 126.461485 281.869755 
L 126.721573 292.63377 
L 126.903635 280.212285 
L 127.020674 289.461175 
L 127.235246 291.320624 
L 127.339282 289.685634 
L 127.488832 282.56521 
L 127.670893 291.880358 
L 127.761924 291.381071 
L 127.865959 292.401567 
L 128.01551 289.868959 
L 128.158558 291.984587 
L 128.262593 288.451672 
L 128.360126 293.025119 
L 128.503174 291.546916 
L 128.594205 292.509182 
L 128.685236 291.65009 
L 128.828284 291.606209 
L 128.925817 291.435019 
L 129.11438 290.203609 
L 129.205411 290.679416 
L 129.452495 288.301678 
L 129.576036 289.123149 
L 129.803613 280.467182 
L 130.109216 282.592424 
L 130.187243 291.220894 
L 130.343295 285.964181 
L 130.453832 288.088707 
L 130.50585 293.774469 
L 130.596881 292.339476 
L 130.902484 287.720028 
L 131.026026 289.078196 
L 131.149567 292.307133 
L 131.299118 285.685827 
L 131.390148 292.933617 
L 131.500686 287.904264 
L 131.585214 292.064226 
L 131.72176 288.802231 
L 131.949337 279.28992 
L 132.007857 293.595559 
L 132.079381 292.062507 
L 132.157407 291.275369 
L 132.319962 284.903223 
L 132.495521 289.621081 
L 132.619063 289.675595 
L 132.684085 292.957721 
L 132.827133 283.07933 
L 132.885653 294.334844 
L 133.11323 280.181358 
L 133.204261 290.358006 
L 133.366815 284.118947 
L 133.535872 292.85167 
L 133.613899 292.186444 
L 133.685423 293.746504 
L 133.79596 286.737979 
L 133.886991 290.24353 
L 134.472188 277.019448 
L 134.53721 292.345539 
L 134.751783 278.780924 
L 134.836311 291.19658 
L 135.037879 292.153563 
L 135.122408 290.540975 
L 135.226443 291.139664 
L 135.499535 273.848938 
L 135.590566 292.084172 
L 135.707605 289.499159 
L 135.837649 290.955741 
L 136.266794 272.367143 
L 136.481366 292.809806 
L 136.676432 286.464667 
L 136.747956 291.294254 
L 136.930018 279.434759 
L 137.008044 291.353567 
L 137.216114 276.409938 
L 137.307145 292.630152 
L 137.430687 288.185779 
L 137.521717 289.602264 
L 138.080906 282.384793 
L 138.236959 283.577419 
L 138.406016 286.970762 
L 138.490544 292.349963 
L 138.776641 273.689969 
L 138.83516 293.362307 
L 138.919689 290.59764 
L 139.056235 285.524915 
L 139.316323 291.841212 
L 139.433362 289.882976 
L 139.576411 295.030037 
L 139.725961 284.258912 
L 139.797485 292.410455 
L 139.934031 283.729624 
L 140.07708 293.31358 
L 140.395687 263.544487 
L 140.55174 287.952628 
L 140.675281 286.259674 
L 140.805325 292.507733 
L 140.90936 288.750735 
L 141.143439 290.748904 
L 141.579086 252.587758 
L 141.644108 293.066205 
L 142.021236 238.510111 
L 142.593429 207.940161 
L 142.736477 286.619611 
L 143.068089 258.887093 
L 143.165622 290.845093 
L 143.620775 218.80802 
L 143.932881 294.888334 
L 144.25799 257.021599 
L 144.479065 263.920869 
L 144.693637 265.076546 
L 144.90821 265.4171 
L 145.584438 243.449239 
L 145.922552 258.077599 
L 147.125458 231.588938 
L 147.5481 243.331782 
L 147.769175 264.096502 
L 148.029263 256.76567 
L 148.445403 229.956116 
L 148.666478 264.473133 
L 148.900557 260.129233 
L 149.232169 243.973723 
L 149.544274 248.649924 
L 149.784855 265.319582 
L 149.992925 264.956971 
L 150.200996 265.709189 
L 150.571621 235.698258 
L 150.779691 264.761336 
L 150.948748 271.213843 
L 151.273858 244.409437 
L 151.468923 268.098649 
L 151.709505 259.804912 
L 151.898068 268.680386 
L 152.119143 264.53593 
L 152.320711 264.700493 
L 153.139987 210.874452 
L 153.439088 258.80699 
L 153.666665 262.96579 
L 154.160832 257.576841 
L 154.45343 251.318544 
L 154.668003 263.817482 
L 154.902082 261.043008 
L 155.461271 195.70959 
L 155.740865 252.508249 
L 155.935931 266.981177 
L 156.117992 269.351407 
L 156.599154 217.637702 
L 157.288387 180.858714 
L 157.932104 195.348171 
L 158.497795 201.984933 
L 159.043979 206.840271 
L 159.486129 227.954962 
L 160.318409 174.34167 
L 161.20921 173.821991 
L 161.924451 184.773705 
L 162.535658 201.821079 
L 163.023322 219.34997 
L 163.777577 180.99998 
L 164.505822 182.93005 
L 165.143037 194.749219 
L 165.884287 181.056971 
L 166.606031 181.89852 
L 167.295264 185.468776 
L 167.945483 194.442745 
L 168.537183 197.02995 
L 169.232917 179.106706 
L 169.92215 180.795677 
L 170.715418 169.520687 
L 171.489179 168.687184 
L 172.184913 187.757592 
L 172.958675 166.773177 
L 173.68692 170.58053 
L 174.42817 172.624375 
L 175.052381 198.554133 
L 175.728609 187.068273 
L 176.196767 220.457712 
L 176.879497 181.156399 
L 177.588237 166.780286 
L 178.30998 167.390377 
L 179.16827 158.963392 
L 179.890013 185.301647 
L 180.611757 168.934177 
L 181.398522 164.615885 
L 182.048742 198.367318 
L 182.763983 166.360627 
L 183.505233 178.364852 
L 184.305003 160.980647 
L 185.06576 168.280729 
L 185.728983 171.046873 
L 186.580771 159.970658 
L 187.309017 166.80215 
L 187.959236 189.056372 
L 188.719993 169.370839 
L 189.415727 175.526154 
L 190.143973 176.043686 
L 190.885223 170.401617 
L 191.678491 160.343755 
L 192.465256 163.542613 
L 193.076463 189.448599 
L 193.674665 193.818523 
L 194.422417 163.095312 
L 195.228689 169.370014 
L 195.839895 191.828615 
L 196.587647 165.395762 
L 197.341902 170.005801 
L 198.011628 187.724304 
L 198.746376 179.114529 
L 199.403097 180.266562 
L 200.027308 199.409981 
L 200.755554 169.876903 
L 201.477297 170.900231 
L 202.205543 173.54678 
L 202.894776 182.106532 
L 203.655532 169.385296 
L 204.318756 174.916797 
L 205.060006 168.477346 
L 205.742737 182.647831 
L 206.451476 164.909733 
L 207.153713 179.261324 
L 207.881958 164.792513 
L 208.629711 167.834337 
L 209.331948 168.141876 
L 210.066696 158.588551 
L 210.690906 175.724709 
L 211.334623 178.693432 
L 212.056367 161.659737 
L 212.700084 177.266382 
L 213.415325 158.051753 
L 214.11106 167.018109 
L 214.787288 174.085527 
L 215.528538 158.469176 
L 216.250282 157.352746 
L 216.972026 155.100854 
L 217.693769 155.341018 
L 218.40901 159.888475 
L 219.130754 160.832092 
L 219.930524 139.566242 
L 220.723791 140.257926 
L 221.510557 143.820061 
L 222.297322 146.716861 
L 223.051577 151.688667 
L 223.753814 160.46572 
L 225.268825 147.240132 
L 225.971062 160.171511 
L 226.673299 162.182538 
L 227.382038 161.981348 
L 228.077773 162.91618 
L 228.812521 155.330123 
L 229.501753 163.550257 
L 230.243003 151.638568 
L 230.997258 156.469267 
L 231.836041 139.86182 
L 232.577291 154.460899 
L 233.539616 125.743511 
L 234.254857 160.586191 
L 234.983103 150.636021 
L 235.704846 156.549084 
L 236.452599 149.170731 
L 237.180844 151.986902 
L 238.02613 135.657958 
L 238.786886 146.31318 
L 239.541141 147.209687 
L 240.451448 125.704734 
L 241.485297 117.230448 
L 242.246054 146.993781 
L 243.312413 113.940527 
L 244.053663 149.235522 
L 244.794914 151.621558 
L 245.874278 109.327021 
L 246.908127 110.57021 
L 248.286592 79.270436 
L 249.177392 124.73734 
L 250.542853 80.584698 
L 251.752261 103.154685 
L 252.818621 107.965703 
L 253.683413 128.105506 
L 254.509191 132.032121 
L 255.282952 142.938432 
L 256.037207 146.593067 
L 256.810968 151.078373 
L 257.578227 152.932198 
L 258.618578 111.153239 
L 259.385837 148.160222 
L 260.192109 135.619819 
L 260.972372 138.900706 
L 261.830662 128.858645 
L 262.662943 143.848422 
L 263.391188 154.933815 
L 264.158447 146.392688 
L 264.932208 157.115956 
L 265.73848 147.315274 
L 266.577263 142.470427 
L 268.222319 141.207463 
L 269.041595 137.859492 
L 269.860871 144.840252 
L 270.660641 146.341763 
L 271.4279 152.757139 
L 272.253679 143.278322 
L 273.092462 138.722881 
L 273.911738 140.899887 
L 274.71801 144.219426 
L 275.524282 145.682693 
L 276.350061 140.121139 
L 277.149831 143.577306 
L 277.982112 132.775192 
L 278.755873 147.723867 
L 279.536136 147.250619 
L 280.34891 141.47398 
L 281.194196 128.752152 
L 282.045983 133.927459 
L 282.910775 130.927518 
L 283.736553 128.613183 
L 284.607847 130.531773 
L 285.44663 131.129547 
L 286.278911 134.863963 
L 287.16321 128.602717 
L 288.073517 118.987296 
L 289.022837 112.71589 
L 289.926642 104.998514 
L 290.843451 109.595762 
L 291.792772 100.321523 
L 292.748594 101.833782 
L 293.619888 111.860631 
L 295.473013 100.803441 
L 296.435338 93.825373 
L 297.30013 113.949636 
L 298.223442 107.163391 
L 299.172762 108.430685 
L 300.109078 105.889352 
L 300.980372 113.227787 
L 301.949199 104.042209 
L 302.911523 104.300124 
L 303.990888 92.769713 
L 304.829671 130.861323 
L 305.674956 121.239429 
L 306.494232 125.09062 
L 307.372028 119.080877 
L 308.197807 125.313483 
L 309.023586 122.118994 
L 309.862369 120.383351 
L 310.681645 126.409897 
L 311.481415 125.339956 
L 312.320198 119.694603 
L 313.087457 134.649445 
L 313.906733 123.459729 
L 314.713005 125.849463 
L 315.499771 132.754099 
L 317.151328 118.719349 
L 317.9576 126.524131 
L 318.763872 130.583346 
L 319.537633 135.356043 
L 320.330901 129.709984 
L 321.124169 133.325314 
L 321.930441 129.568729 
L 322.730211 135.213587 
L 323.568994 122.808292 
L 324.381768 128.730529 
L 325.201044 128.714583 
L 326.000814 135.782351 
L 326.794082 135.864547 
L 327.567843 141.032877 
L 328.374115 130.562812 
L 329.193391 134.222869 
L 329.980157 135.59585 
L 330.76042 133.188482 
L 331.56019 135.648794 
L 332.405475 129.59299 
L 333.192241 137.532492 
L 333.985508 132.417966 
L 334.798283 129.326359 
L 335.604555 134.513966 
L 336.371814 142.572871 
L 337.165081 135.38619 
L 338.003864 131.002289 
L 338.836145 129.249954 
L 339.661924 129.615798 
L 340.487702 126.522772 
L 341.267966 140.165919 
L 342.067736 132.07377 
L 342.952034 121.561406 
L 343.751804 128.937299 
L 344.57108 124.796022 
L 345.396859 128.751161 
L 346.209633 130.465243 
L 347.02891 126.307894 
L 347.867693 124.137153 
L 348.654458 132.678194 
L 349.473735 122.308112 
L 350.306015 123.961023 
L 351.092781 137.365482 
L 351.834031 153.476037 
L 352.594788 140.500412 
L 353.362047 142.765321 
L 354.14231 138.674965 
L 354.909569 137.022719 
L 355.761356 144.221067 
L 356.4831 140.339034 
L 357.191839 148.421084 
L 357.991609 128.490959 
L 358.758868 138.704318 
L 358.979942 292.941588 
L 359.98128 102.359045 
L 360.735534 139.202413 
L 360.904592 295.488 
L 362.341576 53.568 
L 362.523638 294.747684 
L 362.712201 294.152581 
L 362.894263 294.587349 
L 363.082827 294.072841 
L 363.264888 294.686984 
L 363.459954 293.93191 
L 363.850085 293.953505 
L 364.032147 294.651054 
L 364.22071 293.969223 
L 364.402772 294.546903 
L 364.584833 294.580155 
L 365.007476 292.921524 
L 365.417114 294.060674 
L 365.618682 293.981033 
L 365.839757 293.150901 
L 366.060831 293.248075 
L 366.262399 293.525567 
L 366.489976 292.490329 
L 366.919121 293.179884 
L 367.159702 292.416307 
L 367.387279 292.78189 
L 367.62786 292.140864 
L 368.817762 73.377633 
L 369.045338 292.310891 
L 370.079187 99.251615 
L 370.956983 118.744877 
L 371.77626 119.021771 
L 372.589034 119.11521 
L 373.460328 113.713582 
L 374.292609 114.285863 
L 375.150899 119.113891 
L 376.01569 108.785213 
L 376.906491 111.361573 
L 377.758278 108.617072 
L 378.610066 108.400759 
L 379.409836 120.277486 
L 380.268125 107.053612 
L 381.100406 110.079893 
L 381.952193 108.390344 
L 382.816985 107.824568 
L 383.66227 112.08097 
L 384.540067 108.316748 
L 385.398356 107.038209 
L 386.282655 104.672846 
L 387.147446 106.650418 
L 387.999234 117.249825 
L 388.838017 118.557468 
L 389.689804 110.313472 
L 390.5676 109.805168 
L 391.432392 109.953158 
L 392.336197 102.736514 
L 393.226998 110.32078 
L 394.104794 109.024464 
L 394.995595 107.202144 
L 395.886395 107.912077 
L 396.744685 111.106103 
L 397.602974 113.018327 
L 398.487273 107.085235 
L 398.487273 107.085235 
" clip-path="url(#p46d7bde04a)" style="fill: none; stroke: #1f77b4; stroke-width: 1.5; stroke-linecap: square"/>
   </g>
   <g id="patch_3">
    <path d="M 57.6 307.584 
L 57.6 41.472 
" style="fill: none; stroke: #000000; stroke-width: 0.8; stroke-linejoin: miter; stroke-linecap: square"/>
   </g>
   <g id="patch_4">
    <path d="M 414.72 307.584 
L 414.72 41.472 
" style="fill: none; stroke: #000000; stroke-width: 0.8; stroke-linejoin: miter; stroke-linecap: square"/>
   </g>
   <g id="patch_5">
    <path d="M 57.6 307.584 
L 414.72 307.584 
" style="fill: none; stroke: #000000; stroke-width: 0.8; stroke-linejoin: miter; stroke-linecap: square"/>
   </g>
   <g id="patch_6">
    <path d="M 57.6 41.472 
L 414.72 41.472 
" style="fill: none; stroke: #000000; stroke-width: 0.8; stroke-linejoin: miter; stroke-linecap: square"/>
   </g>
   <g id="text_14">
    <!-- learning curve -->
    <g transform="translate(192.96375 35.472) scale(0.12 -0.12)">
     <defs>
      <path id="DejaVuSans-6c" d="M 603 4863 
L 1178 4863 
L 1178 0 
L 603 0 
L 603 4863 
z
" transform="scale(0.015625)"/>
      <path id="DejaVuSans-6e" d="M 3513 2113 
L 3513 0 
L 2938 0 
L 2938 2094 
Q 2938 2591 2744 2837 
Q 2550 3084 2163 3084 
Q 1697 3084 1428 2787 
Q 1159 2491 1159 1978 
L 1159 0 
L 581 0 
L 581 3500 
L 1159 3500 
L 1159 2956 
Q 1366 3272 1645 3428 
Q 1925 3584 2291 3584 
Q 2894 3584 3203 3211 
Q 3513 2838 3513 2113 
z
" transform="scale(0.015625)"/>
      <path id="DejaVuSans-67" d="M 2906 1791 
Q 2906 2416 2648 2759 
Q 2391 3103 1925 3103 
Q 1463 3103 1205 2759 
Q 947 2416 947 1791 
Q 947 1169 1205 825 
Q 1463 481 1925 481 
Q 2391 481 2648 825 
Q 2906 1169 2906 1791 
z
M 3481 434 
Q 3481 -459 3084 -895 
Q 2688 -1331 1869 -1331 
Q 1566 -1331 1297 -1286 
Q 1028 -1241 775 -1147 
L 775 -588 
Q 1028 -725 1275 -790 
Q 1522 -856 1778 -856 
Q 2344 -856 2625 -561 
Q 2906 -266 2906 331 
L 2906 616 
Q 2728 306 2450 153 
Q 2172 0 1784 0 
Q 1141 0 747 490 
Q 353 981 353 1791 
Q 353 2603 747 3093 
Q 1141 3584 1784 3584 
Q 2172 3584 2450 3431 
Q 2728 3278 2906 2969 
L 2906 3500 
L 3481 3500 
L 3481 434 
z
" transform="scale(0.015625)"/>
      <path id="DejaVuSans-20" transform="scale(0.015625)"/>
      <path id="DejaVuSans-63" d="M 3122 3366 
L 3122 2828 
Q 2878 2963 2633 3030 
Q 2388 3097 2138 3097 
Q 1578 3097 1268 2742 
Q 959 2388 959 1747 
Q 959 1106 1268 751 
Q 1578 397 2138 397 
Q 2388 397 2633 464 
Q 2878 531 3122 666 
L 3122 134 
Q 2881 22 2623 -34 
Q 2366 -91 2075 -91 
Q 1284 -91 818 406 
Q 353 903 353 1747 
Q 353 2603 823 3093 
Q 1294 3584 2113 3584 
Q 2378 3584 2631 3529 
Q 2884 3475 3122 3366 
z
" transform="scale(0.015625)"/>
      <path id="DejaVuSans-75" d="M 544 1381 
L 544 3500 
L 1119 3500 
L 1119 1403 
Q 1119 906 1312 657 
Q 1506 409 1894 409 
Q 2359 409 2629 706 
Q 2900 1003 2900 1516 
L 2900 3500 
L 3475 3500 
L 3475 0 
L 2900 0 
L 2900 538 
Q 2691 219 2414 64 
Q 2138 -91 1772 -91 
Q 1169 -91 856 284 
Q 544 659 544 1381 
z
M 1991 3584 
L 1991 3584 
z
" transform="scale(0.015625)"/>
      <path id="DejaVuSans-76" d="M 191 3500 
L 800 3500 
L 1894 563 
L 2988 3500 
L 3597 3500 
L 2284 0 
L 1503 0 
L 191 3500 
z
" transform="scale(0.015625)"/>
     </defs>
     <use xlink:href="#DejaVuSans-6c"/>
     <use xlink:href="#DejaVuSans-65" x="27.783203"/>
     <use xlink:href="#DejaVuSans-61" x="89.306641"/>
     <use xlink:href="#DejaVuSans-72" x="150.585938"/>
     <use xlink:href="#DejaVuSans-6e" x="189.949219"/>
     <use xlink:href="#DejaVuSans-69" x="253.328125"/>
     <use xlink:href="#DejaVuSans-6e" x="281.111328"/>
     <use xlink:href="#DejaVuSans-67" x="344.490234"/>
     <use xlink:href="#DejaVuSans-20" x="407.966797"/>
     <use xlink:href="#DejaVuSans-63" x="439.753906"/>
     <use xlink:href="#DejaVuSans-75" x="494.734375"/>
     <use xlink:href="#DejaVuSans-72" x="558.113281"/>
     <use xlink:href="#DejaVuSans-76" x="599.226562"/>
     <use xlink:href="#DejaVuSans-65" x="658.40625"/>
    </g>
   </g>
  </g>
 </g>
 <defs>
  <clipPath id="p46d7bde04a">
   <rect x="57.6" y="41.472" width="357.12" height="266.112"/>
  </clipPath>
 </defs>
</svg>
