<?xml version="1.0" encoding="utf-8" standalone="no"?>
<!DOCTYPE svg PUBLIC "-//W3C//DTD SVG 1.1//EN"
  "http://www.w3.org/Graphics/SVG/1.1/DTD/svg11.dtd">
<svg xmlns:xlink="http://www.w3.org/1999/xlink" width="460.8pt" height="345.6pt" viewBox="0 0 460.8 345.6" xmlns="http://www.w3.org/2000/svg" version="1.1">
 <metadata>
  <rdf:RDF xmlns:dc="http://purl.org/dc/elements/1.1/" xmlns:cc="http://creativecommons.org/ns#" xmlns:rdf="http://www.w3.org/1999/02/22-rdf-syntax-ns#">
   <cc:Work>
    <dc:type rdf:resource="http://purl.org/dc/dcmitype/StillImage"/>
    <dc:date>2023-08-18T16:35:14.363130</dc:date>
    <dc:format>image/svg+xml</dc:format>
    <dc:creator>
     <cc:Agent>
      <dc:title>Matplotlib v3.7.1, https://matplotlib.org/</dc:title>
     </cc:Agent>
    </dc:creator>
   </cc:Work>
  </rdf:RDF>
 </metadata>
 <defs>
  <style type="text/css">*{stroke-linejoin: round; stroke-linecap: butt}</style>
 </defs>
 <g id="figure_1">
  <g id="patch_1">
   <path d="M 0 345.6 
L 460.8 345.6 
L 460.8 0 
L 0 0 
z
" style="fill: #ffffff"/>
  </g>
  <g id="axes_1">
   <g id="patch_2">
    <path d="M 57.6 307.584 
L 414.72 307.584 
L 414.72 41.472 
L 57.6 41.472 
z
" style="fill: #ffffff"/>
   </g>
   <g id="matplotlib.axis_1">
    <g id="xtick_1">
     <g id="line2d_1">
      <defs>
       <path id="m28b63c0194" d="M 0 0 
L 0 3.5 
" style="stroke: #000000; stroke-width: 0.8"/>
      </defs>
      <g>
       <use xlink:href="#m28b63c0194" x="73.774279" y="307.584" style="stroke: #000000; stroke-width: 0.8"/>
      </g>
     </g>
     <g id="text_1">
      <!-- 0 -->
      <g transform="translate(70.593029 322.182437) scale(0.1 -0.1)">
       <defs>
        <path id="DejaVuSans-30" d="M 2034 4250 
Q 1547 4250 1301 3770 
Q 1056 3291 1056 2328 
Q 1056 1369 1301 889 
Q 1547 409 2034 409 
Q 2525 409 2770 889 
Q 3016 1369 3016 2328 
Q 3016 3291 2770 3770 
Q 2525 4250 2034 4250 
z
M 2034 4750 
Q 2819 4750 3233 4129 
Q 3647 3509 3647 2328 
Q 3647 1150 3233 529 
Q 2819 -91 2034 -91 
Q 1250 -91 836 529 
Q 422 1150 422 2328 
Q 422 3509 836 4129 
Q 1250 4750 2034 4750 
z
" transform="scale(0.015625)"/>
       </defs>
       <use xlink:href="#DejaVuSans-30"/>
      </g>
     </g>
    </g>
    <g id="xtick_2">
     <g id="line2d_2">
      <g>
       <use xlink:href="#m28b63c0194" x="138.716878" y="307.584" style="stroke: #000000; stroke-width: 0.8"/>
      </g>
     </g>
     <g id="text_2">
      <!-- 10000 -->
      <g transform="translate(122.810628 322.182437) scale(0.1 -0.1)">
       <defs>
        <path id="DejaVuSans-31" d="M 794 531 
L 1825 531 
L 1825 4091 
L 703 3866 
L 703 4441 
L 1819 4666 
L 2450 4666 
L 2450 531 
L 3481 531 
L 3481 0 
L 794 0 
L 794 531 
z
" transform="scale(0.015625)"/>
       </defs>
       <use xlink:href="#DejaVuSans-31"/>
       <use xlink:href="#DejaVuSans-30" x="63.623047"/>
       <use xlink:href="#DejaVuSans-30" x="127.246094"/>
       <use xlink:href="#DejaVuSans-30" x="190.869141"/>
       <use xlink:href="#DejaVuSans-30" x="254.492188"/>
      </g>
     </g>
    </g>
    <g id="xtick_3">
     <g id="line2d_3">
      <g>
       <use xlink:href="#m28b63c0194" x="203.659476" y="307.584" style="stroke: #000000; stroke-width: 0.8"/>
      </g>
     </g>
     <g id="text_3">
      <!-- 20000 -->
      <g transform="translate(187.753226 322.182437) scale(0.1 -0.1)">
       <defs>
        <path id="DejaVuSans-32" d="M 1228 531 
L 3431 531 
L 3431 0 
L 469 0 
L 469 531 
Q 828 903 1448 1529 
Q 2069 2156 2228 2338 
Q 2531 2678 2651 2914 
Q 2772 3150 2772 3378 
Q 2772 3750 2511 3984 
Q 2250 4219 1831 4219 
Q 1534 4219 1204 4116 
Q 875 4013 500 3803 
L 500 4441 
Q 881 4594 1212 4672 
Q 1544 4750 1819 4750 
Q 2544 4750 2975 4387 
Q 3406 4025 3406 3419 
Q 3406 3131 3298 2873 
Q 3191 2616 2906 2266 
Q 2828 2175 2409 1742 
Q 1991 1309 1228 531 
z
" transform="scale(0.015625)"/>
       </defs>
       <use xlink:href="#DejaVuSans-32"/>
       <use xlink:href="#DejaVuSans-30" x="63.623047"/>
       <use xlink:href="#DejaVuSans-30" x="127.246094"/>
       <use xlink:href="#DejaVuSans-30" x="190.869141"/>
       <use xlink:href="#DejaVuSans-30" x="254.492188"/>
      </g>
     </g>
    </g>
    <g id="xtick_4">
     <g id="line2d_4">
      <g>
       <use xlink:href="#m28b63c0194" x="268.602075" y="307.584" style="stroke: #000000; stroke-width: 0.8"/>
      </g>
     </g>
     <g id="text_4">
      <!-- 30000 -->
      <g transform="translate(252.695825 322.182437) scale(0.1 -0.1)">
       <defs>
        <path id="DejaVuSans-33" d="M 2597 2516 
Q 3050 2419 3304 2112 
Q 3559 1806 3559 1356 
Q 3559 666 3084 287 
Q 2609 -91 1734 -91 
Q 1441 -91 1130 -33 
Q 819 25 488 141 
L 488 750 
Q 750 597 1062 519 
Q 1375 441 1716 441 
Q 2309 441 2620 675 
Q 2931 909 2931 1356 
Q 2931 1769 2642 2001 
Q 2353 2234 1838 2234 
L 1294 2234 
L 1294 2753 
L 1863 2753 
Q 2328 2753 2575 2939 
Q 2822 3125 2822 3475 
Q 2822 3834 2567 4026 
Q 2313 4219 1838 4219 
Q 1578 4219 1281 4162 
Q 984 4106 628 3988 
L 628 4550 
Q 988 4650 1302 4700 
Q 1616 4750 1894 4750 
Q 2613 4750 3031 4423 
Q 3450 4097 3450 3541 
Q 3450 3153 3228 2886 
Q 3006 2619 2597 2516 
z
" transform="scale(0.015625)"/>
       </defs>
       <use xlink:href="#DejaVuSans-33"/>
       <use xlink:href="#DejaVuSans-30" x="63.623047"/>
       <use xlink:href="#DejaVuSans-30" x="127.246094"/>
       <use xlink:href="#DejaVuSans-30" x="190.869141"/>
       <use xlink:href="#DejaVuSans-30" x="254.492188"/>
      </g>
     </g>
    </g>
    <g id="xtick_5">
     <g id="line2d_5">
      <g>
       <use xlink:href="#m28b63c0194" x="333.544674" y="307.584" style="stroke: #000000; stroke-width: 0.8"/>
      </g>
     </g>
     <g id="text_5">
      <!-- 40000 -->
      <g transform="translate(317.638424 322.182437) scale(0.1 -0.1)">
       <defs>
        <path id="DejaVuSans-34" d="M 2419 4116 
L 825 1625 
L 2419 1625 
L 2419 4116 
z
M 2253 4666 
L 3047 4666 
L 3047 1625 
L 3713 1625 
L 3713 1100 
L 3047 1100 
L 3047 0 
L 2419 0 
L 2419 1100 
L 313 1100 
L 313 1709 
L 2253 4666 
z
" transform="scale(0.015625)"/>
       </defs>
       <use xlink:href="#DejaVuSans-34"/>
       <use xlink:href="#DejaVuSans-30" x="63.623047"/>
       <use xlink:href="#DejaVuSans-30" x="127.246094"/>
       <use xlink:href="#DejaVuSans-30" x="190.869141"/>
       <use xlink:href="#DejaVuSans-30" x="254.492188"/>
      </g>
     </g>
    </g>
    <g id="xtick_6">
     <g id="line2d_6">
      <g>
       <use xlink:href="#m28b63c0194" x="398.487273" y="307.584" style="stroke: #000000; stroke-width: 0.8"/>
      </g>
     </g>
     <g id="text_6">
      <!-- 50000 -->
      <g transform="translate(382.581023 322.182437) scale(0.1 -0.1)">
       <defs>
        <path id="DejaVuSans-35" d="M 691 4666 
L 3169 4666 
L 3169 4134 
L 1269 4134 
L 1269 2991 
Q 1406 3038 1543 3061 
Q 1681 3084 1819 3084 
Q 2600 3084 3056 2656 
Q 3513 2228 3513 1497 
Q 3513 744 3044 326 
Q 2575 -91 1722 -91 
Q 1428 -91 1123 -41 
Q 819 9 494 109 
L 494 744 
Q 775 591 1075 516 
Q 1375 441 1709 441 
Q 2250 441 2565 725 
Q 2881 1009 2881 1497 
Q 2881 1984 2565 2268 
Q 2250 2553 1709 2553 
Q 1456 2553 1204 2497 
Q 953 2441 691 2322 
L 691 4666 
z
" transform="scale(0.015625)"/>
       </defs>
       <use xlink:href="#DejaVuSans-35"/>
       <use xlink:href="#DejaVuSans-30" x="63.623047"/>
       <use xlink:href="#DejaVuSans-30" x="127.246094"/>
       <use xlink:href="#DejaVuSans-30" x="190.869141"/>
       <use xlink:href="#DejaVuSans-30" x="254.492188"/>
      </g>
     </g>
    </g>
    <g id="text_7">
     <!-- timesteps -->
     <g transform="translate(211.443594 335.860562) scale(0.1 -0.1)">
      <defs>
       <path id="DejaVuSans-74" d="M 1172 4494 
L 1172 3500 
L 2356 3500 
L 2356 3053 
L 1172 3053 
L 1172 1153 
Q 1172 725 1289 603 
Q 1406 481 1766 481 
L 2356 481 
L 2356 0 
L 1766 0 
Q 1100 0 847 248 
Q 594 497 594 1153 
L 594 3053 
L 172 3053 
L 172 3500 
L 594 3500 
L 594 4494 
L 1172 4494 
z
" transform="scale(0.015625)"/>
       <path id="DejaVuSans-69" d="M 603 3500 
L 1178 3500 
L 1178 0 
L 603 0 
L 603 3500 
z
M 603 4863 
L 1178 4863 
L 1178 4134 
L 603 4134 
L 603 4863 
z
" transform="scale(0.015625)"/>
       <path id="DejaVuSans-6d" d="M 3328 2828 
Q 3544 3216 3844 3400 
Q 4144 3584 4550 3584 
Q 5097 3584 5394 3201 
Q 5691 2819 5691 2113 
L 5691 0 
L 5113 0 
L 5113 2094 
Q 5113 2597 4934 2840 
Q 4756 3084 4391 3084 
Q 3944 3084 3684 2787 
Q 3425 2491 3425 1978 
L 3425 0 
L 2847 0 
L 2847 2094 
Q 2847 2600 2669 2842 
Q 2491 3084 2119 3084 
Q 1678 3084 1418 2786 
Q 1159 2488 1159 1978 
L 1159 0 
L 581 0 
L 581 3500 
L 1159 3500 
L 1159 2956 
Q 1356 3278 1631 3431 
Q 1906 3584 2284 3584 
Q 2666 3584 2933 3390 
Q 3200 3197 3328 2828 
z
" transform="scale(0.015625)"/>
       <path id="DejaVuSans-65" d="M 3597 1894 
L 3597 1613 
L 953 1613 
Q 991 1019 1311 708 
Q 1631 397 2203 397 
Q 2534 397 2845 478 
Q 3156 559 3463 722 
L 3463 178 
Q 3153 47 2828 -22 
Q 2503 -91 2169 -91 
Q 1331 -91 842 396 
Q 353 884 353 1716 
Q 353 2575 817 3079 
Q 1281 3584 2069 3584 
Q 2775 3584 3186 3129 
Q 3597 2675 3597 1894 
z
M 3022 2063 
Q 3016 2534 2758 2815 
Q 2500 3097 2075 3097 
Q 1594 3097 1305 2825 
Q 1016 2553 972 2059 
L 3022 2063 
z
" transform="scale(0.015625)"/>
       <path id="DejaVuSans-73" d="M 2834 3397 
L 2834 2853 
Q 2591 2978 2328 3040 
Q 2066 3103 1784 3103 
Q 1356 3103 1142 2972 
Q 928 2841 928 2578 
Q 928 2378 1081 2264 
Q 1234 2150 1697 2047 
L 1894 2003 
Q 2506 1872 2764 1633 
Q 3022 1394 3022 966 
Q 3022 478 2636 193 
Q 2250 -91 1575 -91 
Q 1294 -91 989 -36 
Q 684 19 347 128 
L 347 722 
Q 666 556 975 473 
Q 1284 391 1588 391 
Q 1994 391 2212 530 
Q 2431 669 2431 922 
Q 2431 1156 2273 1281 
Q 2116 1406 1581 1522 
L 1381 1569 
Q 847 1681 609 1914 
Q 372 2147 372 2553 
Q 372 3047 722 3315 
Q 1072 3584 1716 3584 
Q 2034 3584 2315 3537 
Q 2597 3491 2834 3397 
z
" transform="scale(0.015625)"/>
       <path id="DejaVuSans-70" d="M 1159 525 
L 1159 -1331 
L 581 -1331 
L 581 3500 
L 1159 3500 
L 1159 2969 
Q 1341 3281 1617 3432 
Q 1894 3584 2278 3584 
Q 2916 3584 3314 3078 
Q 3713 2572 3713 1747 
Q 3713 922 3314 415 
Q 2916 -91 2278 -91 
Q 1894 -91 1617 61 
Q 1341 213 1159 525 
z
M 3116 1747 
Q 3116 2381 2855 2742 
Q 2594 3103 2138 3103 
Q 1681 3103 1420 2742 
Q 1159 2381 1159 1747 
Q 1159 1113 1420 752 
Q 1681 391 2138 391 
Q 2594 391 2855 752 
Q 3116 1113 3116 1747 
z
" transform="scale(0.015625)"/>
      </defs>
      <use xlink:href="#DejaVuSans-74"/>
      <use xlink:href="#DejaVuSans-69" x="39.208984"/>
      <use xlink:href="#DejaVuSans-6d" x="66.992188"/>
      <use xlink:href="#DejaVuSans-65" x="164.404297"/>
      <use xlink:href="#DejaVuSans-73" x="225.927734"/>
      <use xlink:href="#DejaVuSans-74" x="278.027344"/>
      <use xlink:href="#DejaVuSans-65" x="317.236328"/>
      <use xlink:href="#DejaVuSans-70" x="378.759766"/>
      <use xlink:href="#DejaVuSans-73" x="442.236328"/>
     </g>
    </g>
   </g>
   <g id="matplotlib.axis_2">
    <g id="ytick_1">
     <g id="line2d_7">
      <defs>
       <path id="m36cb91a3da" d="M 0 0 
L -3.5 0 
" style="stroke: #000000; stroke-width: 0.8"/>
      </defs>
      <g>
       <use xlink:href="#m36cb91a3da" x="57.6" y="296.311412" style="stroke: #000000; stroke-width: 0.8"/>
      </g>
     </g>
     <g id="text_8">
      <!-- 0 -->
      <g transform="translate(44.2375 300.110631) scale(0.1 -0.1)">
       <use xlink:href="#DejaVuSans-30"/>
      </g>
     </g>
    </g>
    <g id="ytick_2">
     <g id="line2d_8">
      <g>
       <use xlink:href="#m36cb91a3da" x="57.6" y="259.808654" style="stroke: #000000; stroke-width: 0.8"/>
      </g>
     </g>
     <g id="text_9">
      <!-- 50 -->
      <g transform="translate(37.875 263.607873) scale(0.1 -0.1)">
       <use xlink:href="#DejaVuSans-35"/>
       <use xlink:href="#DejaVuSans-30" x="63.623047"/>
      </g>
     </g>
    </g>
    <g id="ytick_3">
     <g id="line2d_9">
      <g>
       <use xlink:href="#m36cb91a3da" x="57.6" y="223.305897" style="stroke: #000000; stroke-width: 0.8"/>
      </g>
     </g>
     <g id="text_10">
      <!-- 100 -->
      <g transform="translate(31.5125 227.105115) scale(0.1 -0.1)">
       <use xlink:href="#DejaVuSans-31"/>
       <use xlink:href="#DejaVuSans-30" x="63.623047"/>
       <use xlink:href="#DejaVuSans-30" x="127.246094"/>
      </g>
     </g>
    </g>
    <g id="ytick_4">
     <g id="line2d_10">
      <g>
       <use xlink:href="#m36cb91a3da" x="57.6" y="186.803139" style="stroke: #000000; stroke-width: 0.8"/>
      </g>
     </g>
     <g id="text_11">
      <!-- 150 -->
      <g transform="translate(31.5125 190.602358) scale(0.1 -0.1)">
       <use xlink:href="#DejaVuSans-31"/>
       <use xlink:href="#DejaVuSans-35" x="63.623047"/>
       <use xlink:href="#DejaVuSans-30" x="127.246094"/>
      </g>
     </g>
    </g>
    <g id="ytick_5">
     <g id="line2d_11">
      <g>
       <use xlink:href="#m36cb91a3da" x="57.6" y="150.300381" style="stroke: #000000; stroke-width: 0.8"/>
      </g>
     </g>
     <g id="text_12">
      <!-- 200 -->
      <g transform="translate(31.5125 154.0996) scale(0.1 -0.1)">
       <use xlink:href="#DejaVuSans-32"/>
       <use xlink:href="#DejaVuSans-30" x="63.623047"/>
       <use xlink:href="#DejaVuSans-30" x="127.246094"/>
      </g>
     </g>
    </g>
    <g id="ytick_6">
     <g id="line2d_12">
      <g>
       <use xlink:href="#m36cb91a3da" x="57.6" y="113.797623" style="stroke: #000000; stroke-width: 0.8"/>
      </g>
     </g>
     <g id="text_13">
      <!-- 250 -->
      <g transform="translate(31.5125 117.596842) scale(0.1 -0.1)">
       <use xlink:href="#DejaVuSans-32"/>
       <use xlink:href="#DejaVuSans-35" x="63.623047"/>
       <use xlink:href="#DejaVuSans-30" x="127.246094"/>
      </g>
     </g>
    </g>
    <g id="ytick_7">
     <g id="line2d_13">
      <g>
       <use xlink:href="#m36cb91a3da" x="57.6" y="77.294866" style="stroke: #000000; stroke-width: 0.8"/>
      </g>
     </g>
     <g id="text_14">
      <!-- 300 -->
      <g transform="translate(31.5125 81.094084) scale(0.1 -0.1)">
       <use xlink:href="#DejaVuSans-33"/>
       <use xlink:href="#DejaVuSans-30" x="63.623047"/>
       <use xlink:href="#DejaVuSans-30" x="127.246094"/>
      </g>
     </g>
    </g>
    <g id="text_15">
     <!-- mean episode rewards -->
     <g transform="translate(25.432812 231.360031) rotate(-90) scale(0.1 -0.1)">
      <defs>
       <path id="DejaVuSans-61" d="M 2194 1759 
Q 1497 1759 1228 1600 
Q 959 1441 959 1056 
Q 959 750 1161 570 
Q 1363 391 1709 391 
Q 2188 391 2477 730 
Q 2766 1069 2766 1631 
L 2766 1759 
L 2194 1759 
z
M 3341 1997 
L 3341 0 
L 2766 0 
L 2766 531 
Q 2569 213 2275 61 
Q 1981 -91 1556 -91 
Q 1019 -91 701 211 
Q 384 513 384 1019 
Q 384 1609 779 1909 
Q 1175 2209 1959 2209 
L 2766 2209 
L 2766 2266 
Q 2766 2663 2505 2880 
Q 2244 3097 1772 3097 
Q 1472 3097 1187 3025 
Q 903 2953 641 2809 
L 641 3341 
Q 956 3463 1253 3523 
Q 1550 3584 1831 3584 
Q 2591 3584 2966 3190 
Q 3341 2797 3341 1997 
z
" transform="scale(0.015625)"/>
       <path id="DejaVuSans-6e" d="M 3513 2113 
L 3513 0 
L 2938 0 
L 2938 2094 
Q 2938 2591 2744 2837 
Q 2550 3084 2163 3084 
Q 1697 3084 1428 2787 
Q 1159 2491 1159 1978 
L 1159 0 
L 581 0 
L 581 3500 
L 1159 3500 
L 1159 2956 
Q 1366 3272 1645 3428 
Q 1925 3584 2291 3584 
Q 2894 3584 3203 3211 
Q 3513 2838 3513 2113 
z
" transform="scale(0.015625)"/>
       <path id="DejaVuSans-20" transform="scale(0.015625)"/>
       <path id="DejaVuSans-6f" d="M 1959 3097 
Q 1497 3097 1228 2736 
Q 959 2375 959 1747 
Q 959 1119 1226 758 
Q 1494 397 1959 397 
Q 2419 397 2687 759 
Q 2956 1122 2956 1747 
Q 2956 2369 2687 2733 
Q 2419 3097 1959 3097 
z
M 1959 3584 
Q 2709 3584 3137 3096 
Q 3566 2609 3566 1747 
Q 3566 888 3137 398 
Q 2709 -91 1959 -91 
Q 1206 -91 779 398 
Q 353 888 353 1747 
Q 353 2609 779 3096 
Q 1206 3584 1959 3584 
z
" transform="scale(0.015625)"/>
       <path id="DejaVuSans-64" d="M 2906 2969 
L 2906 4863 
L 3481 4863 
L 3481 0 
L 2906 0 
L 2906 525 
Q 2725 213 2448 61 
Q 2172 -91 1784 -91 
Q 1150 -91 751 415 
Q 353 922 353 1747 
Q 353 2572 751 3078 
Q 1150 3584 1784 3584 
Q 2172 3584 2448 3432 
Q 2725 3281 2906 2969 
z
M 947 1747 
Q 947 1113 1208 752 
Q 1469 391 1925 391 
Q 2381 391 2643 752 
Q 2906 1113 2906 1747 
Q 2906 2381 2643 2742 
Q 2381 3103 1925 3103 
Q 1469 3103 1208 2742 
Q 947 2381 947 1747 
z
" transform="scale(0.015625)"/>
       <path id="DejaVuSans-72" d="M 2631 2963 
Q 2534 3019 2420 3045 
Q 2306 3072 2169 3072 
Q 1681 3072 1420 2755 
Q 1159 2438 1159 1844 
L 1159 0 
L 581 0 
L 581 3500 
L 1159 3500 
L 1159 2956 
Q 1341 3275 1631 3429 
Q 1922 3584 2338 3584 
Q 2397 3584 2469 3576 
Q 2541 3569 2628 3553 
L 2631 2963 
z
" transform="scale(0.015625)"/>
       <path id="DejaVuSans-77" d="M 269 3500 
L 844 3500 
L 1563 769 
L 2278 3500 
L 2956 3500 
L 3675 769 
L 4391 3500 
L 4966 3500 
L 4050 0 
L 3372 0 
L 2619 2869 
L 1863 0 
L 1184 0 
L 269 3500 
z
" transform="scale(0.015625)"/>
      </defs>
      <use xlink:href="#DejaVuSans-6d"/>
      <use xlink:href="#DejaVuSans-65" x="97.412109"/>
      <use xlink:href="#DejaVuSans-61" x="158.935547"/>
      <use xlink:href="#DejaVuSans-6e" x="220.214844"/>
      <use xlink:href="#DejaVuSans-20" x="283.59375"/>
      <use xlink:href="#DejaVuSans-65" x="315.380859"/>
      <use xlink:href="#DejaVuSans-70" x="376.904297"/>
      <use xlink:href="#DejaVuSans-69" x="440.380859"/>
      <use xlink:href="#DejaVuSans-73" x="468.164062"/>
      <use xlink:href="#DejaVuSans-6f" x="520.263672"/>
      <use xlink:href="#DejaVuSans-64" x="581.445312"/>
      <use xlink:href="#DejaVuSans-65" x="644.921875"/>
      <use xlink:href="#DejaVuSans-20" x="706.445312"/>
      <use xlink:href="#DejaVuSans-72" x="738.232422"/>
      <use xlink:href="#DejaVuSans-65" x="777.095703"/>
      <use xlink:href="#DejaVuSans-77" x="838.619141"/>
      <use xlink:href="#DejaVuSans-61" x="920.40625"/>
      <use xlink:href="#DejaVuSans-72" x="981.685547"/>
      <use xlink:href="#DejaVuSans-64" x="1021.048828"/>
      <use xlink:href="#DejaVuSans-73" x="1084.525391"/>
     </g>
    </g>
   </g>
   <g id="line2d_14">
    <path d="M 73.832727 292.912231 
L 73.910658 289.300645 
L 74.079509 292.091647 
L 74.170429 291.096455 
L 74.267843 288.718222 
L 74.371751 290.00546 
L 74.495142 283.22024 
L 74.878303 288.308751 
L 75.014683 281.371904 
L 75.164051 281.502621 
L 75.430315 285.672719 
L 75.592672 284.227386 
L 75.65112 292.086412 
L 75.845948 289.409183 
L 75.949856 291.423707 
L 76.060258 287.574635 
L 76.222615 290.932047 
L 76.436925 264.361928 
L 76.547328 287.284336 
L 76.677213 284.227863 
L 76.735661 291.032575 
L 76.956466 284.574001 
L 77.183765 283.778836 
L 77.274685 291.248063 
L 77.346122 290.085912 
L 77.45003 287.02648 
L 77.625375 273.383972 
L 77.820203 268.052164 
L 77.878651 292.233038 
L 78.021525 280.166994 
L 78.118939 287.353019 
L 78.203364 287.295612 
L 78.307272 284.832266 
L 78.508594 291.181288 
L 78.612503 291.095847 
L 78.846296 281.753987 
L 78.911238 291.076214 
L 79.080089 277.607131 
L 79.196986 287.623897 
L 79.398308 281.506883 
L 79.748998 225.682185 
L 79.982791 288.150047 
L 80.0867 284.720888 
L 80.164631 290.726613 
L 80.294516 282.204819 
L 80.463367 290.897796 
L 80.677677 287.66008 
L 80.74262 290.781599 
L 80.898482 287.291067 
L 81.028367 290.081862 
L 81.444 266.229497 
L 81.573885 294.560495 
L 81.775207 264.611724 
L 82.034977 290.76263 
L 82.14538 290.528547 
L 82.216817 291.908691 
L 82.431127 281.689466 
L 82.736358 291.635973 
L 82.963657 285.740778 
L 83.126013 289.521453 
L 83.476703 281.654954 
L 83.574117 291.102208 
L 83.645554 290.257666 
L 83.762451 289.367958 
L 83.80791 292.904516 
L 84.262509 273.69137 
L 84.320957 291.401265 
L 84.515785 287.259424 
L 84.619693 285.930261 
L 84.957394 266.311867 
L 85.054808 289.70098 
L 85.217165 286.973998 
L 85.295096 290.316239 
L 85.411993 285.264789 
L 85.515901 292.520747 
L 86.100384 259.605662 
L 86.262741 283.559754 
L 86.600442 244.9767 
L 86.736822 280.211024 
L 86.996592 285.186277 
L 87.282339 262.48072 
L 87.379753 290.001001 
L 87.49665 283.079133 
L 87.58757 292.997031 
L 87.659007 291.398038 
L 87.873317 278.098785 
L 87.944754 291.466094 
L 88.035674 288.64552 
L 88.126593 288.517231 
L 88.24349 289.034117 
L 88.308433 291.455689 
L 88.392858 288.444523 
L 88.483778 289.607814 
L 88.607168 289.102893 
L 88.801996 289.398439 
L 88.951364 282.355841 
L 89.061767 289.506537 
L 89.185158 290.172508 
L 89.373491 284.560766 
L 89.457917 291.237846 
L 89.756652 263.11335 
L 89.828089 290.595563 
L 89.99694 273.735817 
L 90.172285 291.59219 
L 90.289182 284.191866 
L 90.39309 284.699406 
L 90.633378 260.64232 
L 90.795734 287.382554 
L 90.984068 289.291029 
L 91.3997 245.731307 
L 91.588034 292.560185 
L 91.743896 288.174919 
L 91.977689 267.579721 
L 92.042632 291.540239 
L 92.354356 266.85588 
L 92.445276 293.561261 
L 92.555678 282.812118 
L 92.63361 292.055395 
L 93.016771 214.223312 
L 93.296024 283.962487 
L 93.497346 272.417804 
L 93.672691 280.758907 
L 93.893496 263.420462 
L 93.99091 288.6505 
L 94.094818 285.616092 
L 94.153266 293.438363 
L 94.393554 288.356291 
L 94.542922 290.699741 
L 94.633842 287.687027 
L 94.78321 290.929004 
L 94.978037 273.608814 
L 95.244302 272.921422 
L 95.322233 290.364157 
L 95.445624 287.927102 
L 95.523555 289.642347 
L 95.633958 284.099607 
L 95.705395 290.218967 
L 95.919705 269.986823 
L 96.14051 292.411108 
L 96.224935 290.18589 
L 96.367809 290.472386 
L 96.58212 265.384363 
L 96.79643 272.183917 
L 96.913327 292.399053 
L 97.231546 281.396755 
L 97.354937 285.300188 
L 97.491316 281.538711 
L 97.738098 288.315011 
L 97.913443 288.480198 
L 98.095282 286.887513 
L 98.19919 287.386037 
L 98.277121 290.854764 
L 98.458961 291.092893 
L 98.54988 288.960249 
L 98.673271 289.471562 
L 98.816145 284.509326 
L 98.881088 290.650248 
L 99.127869 273.247418 
L 99.25126 280.479727 
L 99.309709 292.841908 
L 99.562985 253.846717 
L 99.73833 288.695948 
L 99.933158 292.888617 
L 100.102008 286.265994 
L 100.166951 291.798805 
L 100.309825 285.796834 
L 100.537124 291.27428 
L 100.621549 290.039716 
L 100.751434 293.375874 
L 101.043676 281.78588 
L 101.212527 291.672299 
L 101.381378 275.40116 
L 101.452815 290.948546 
L 101.608677 281.596742 
L 101.93339 250.077906 
L 102.108735 291.647172 
L 102.413965 271.783999 
L 102.63477 293.378328 
L 102.823103 287.730766 
L 102.991954 292.269487 
L 103.173793 276.882866 
L 103.368621 293.571611 
L 103.621897 282.565873 
L 103.881668 282.517174 
L 103.979082 290.322005 
L 104.141438 288.504193 
L 104.258335 290.812536 
L 104.381726 284.877067 
L 104.453163 289.205312 
L 104.680462 279.263398 
L 104.810347 288.550526 
L 104.901267 286.483505 
L 104.99868 286.790481 
L 105.174025 275.306348 
L 105.251957 291.277734 
L 105.570175 266.218426 
L 105.868911 289.266102 
L 105.998796 286.028114 
L 106.200118 283.917064 
L 106.304027 284.880287 
L 106.401441 289.836332 
L 106.739142 250.285148 
L 106.882016 289.355691 
L 107.024889 292.314928 
L 107.388568 237.921608 
L 107.466499 291.129618 
L 107.531442 290.763551 
L 107.797706 280.340363 
L 107.89512 286.159701 
L 108.154891 272.782687 
L 108.29127 278.758389 
L 108.68742 286.639728 
L 108.758857 292.991481 
L 109.057593 256.923883 
L 109.148512 288.611529 
L 109.362823 283.375309 
L 109.447248 290.424144 
L 109.564145 287.787254 
L 110.265525 230.630124 
L 110.356445 291.87455 
L 110.466847 286.932764 
L 110.518801 294.056182 
L 110.720123 287.130087 
L 110.798054 289.597063 
L 110.901963 289.341942 
L 111.005871 290.772159 
L 111.129262 285.152215 
L 111.265641 288.486306 
L 111.356561 287.137989 
L 111.440986 290.816118 
L 111.525412 289.744816 
L 111.609837 290.579891 
L 111.67478 292.596267 
L 111.908573 280.45808 
L 112.005987 290.014688 
L 112.090412 288.879459 
L 112.174838 291.887149 
L 112.28524 289.389047 
L 112.428114 278.051191 
L 112.63593 281.635442 
L 112.72685 291.465717 
L 112.921677 287.678596 
L 113.03208 286.963609 
L 113.148977 289.534939 
L 113.402253 267.449759 
L 113.590586 290.359805 
L 113.739954 276.896787 
L 113.837368 292.6669 
L 114.071161 266.409838 
L 114.304955 289.72949 
L 114.408863 288.112652 
L 114.577714 279.430639 
L 114.733576 290.133785 
L 114.843978 288.495183 
L 114.928404 291.920947 
L 115.058289 287.573531 
L 115.129726 293.405597 
L 115.207657 290.444306 
L 115.279094 291.617138 
L 115.376508 289.415513 
L 115.701221 271.95861 
L 115.785646 288.241971 
L 115.980474 290.850523 
L 116.097371 290.761592 
L 116.214267 291.837249 
L 116.435072 288.893802 
L 116.636394 276.526027 
L 116.707831 291.191957 
L 116.811739 286.457382 
L 116.909153 291.841656 
L 116.987084 288.69739 
L 117.065015 289.651157 
L 117.149441 292.21685 
L 117.298809 285.440377 
L 117.37674 290.645417 
L 117.467659 290.259645 
L 117.707947 287.518054 
L 117.915763 278.466827 
L 118.285936 268.694769 
L 118.461281 293.327579 
L 118.617143 288.689965 
L 118.68858 291.934558 
L 118.766511 289.025191 
L 118.844442 289.186041 
L 119.071742 285.329844 
L 119.38996 245.367689 
L 119.584788 272.718589 
L 119.967949 288.870722 
L 120.240708 270.926107 
L 120.416053 290.983618 
L 120.493984 288.040872 
L 120.708295 281.136795 
L 120.831686 287.16042 
L 121.084962 271.867399 
L 121.18887 287.209106 
L 121.377204 274.551941 
L 121.656457 271.710838 
L 121.747377 292.542149 
L 121.883756 290.047663 
L 122.013641 291.191522 
L 122.111055 285.829499 
L 122.318872 289.674907 
L 122.708527 242.715571 
L 122.981286 270.860039 
L 123.221574 261.474443 
L 123.312493 289.487665 
L 123.448873 290.191903 
L 123.728126 257.854602 
L 123.819046 287.284831 
L 123.981402 282.083922 
L 124.293127 280.272143 
L 124.371058 288.262381 
L 124.858127 254.667153 
L 125.046461 290.31395 
L 125.163357 287.247925 
L 125.234794 290.567837 
L 125.410139 280.298896 
L 125.57899 290.908841 
L 125.695887 282.003247 
L 125.780312 288.296435 
L 125.994623 282.467621 
L 126.098531 287.843034 
L 126.228416 288.26618 
L 126.384278 288.264157 
L 126.520658 278.882378 
L 126.683014 276.220655 
L 126.942785 289.456732 
L 127.07267 284.27673 
L 127.196061 290.30761 
L 127.488302 251.513253 
L 127.650659 286.973723 
L 127.77405 288.425354 
L 127.916924 281.096241 
L 128.053303 289.880285 
L 128.222154 289.214963 
L 128.326062 285.123066 
L 128.391004 290.801389 
L 128.533878 286.085095 
L 128.598821 293.465827 
L 128.91704 265.710378 
L 129.137844 293.182941 
L 129.202787 291.196039 
L 129.332672 281.29114 
L 129.430086 292.101123 
L 129.546983 282.430586 
L 129.683362 288.286284 
L 129.774282 286.842224 
L 129.884684 291.296659 
L 129.96911 289.214378 
L 130.040546 290.579076 
L 130.13796 286.604809 
L 130.209397 291.513847 
L 130.300317 291.315136 
L 130.475662 289.151944 
L 131.034168 192.571582 
L 131.144571 292.637807 
L 131.228996 288.063612 
L 131.391353 270.978279 
L 131.456295 291.495671 
L 131.553709 287.737197 
L 131.742043 287.448494 
L 131.832962 291.652649 
L 132.021296 285.870779 
L 132.11871 292.632035 
L 132.352503 286.611816 
L 132.534342 271.09688 
L 132.677216 288.205393 
L 132.800607 284.216009 
L 133.255205 229.224877 
L 133.47601 288.359539 
L 133.638366 282.58355 
L 133.722792 289.628163 
L 133.87216 290.110172 
L 133.963079 291.039778 
L 134.203367 273.259726 
L 134.326758 286.48421 
L 134.489115 279.891117 
L 134.716414 282.72384 
L 134.800839 293.643355 
L 134.898253 289.442038 
L 134.976184 290.613953 
L 135.034632 291.44952 
L 135.145035 286.762729 
L 135.372334 257.016082 
L 135.482736 285.214783 
L 135.755495 276.871216 
L 136.008771 261.738504 
L 136.210093 289.71846 
L 136.339979 290.238798 
L 136.430898 289.031641 
L 136.593255 282.890763 
L 136.716646 284.316366 
L 136.833542 283.169991 
L 136.98291 290.390229 
L 137.054347 290.788799 
L 137.249175 270.621098 
L 137.385554 283.80853 
L 137.632336 267.99293 
L 137.755727 285.728352 
L 137.918084 277.266427 
L 138.073946 291.343001 
L 138.320728 287.458611 
L 138.502567 289.631716 
L 138.561015 291.791085 
L 138.677912 290.269 
L 138.820786 281.746904 
L 139.061073 289.743651 
L 139.190959 289.247256 
L 139.411763 262.820701 
L 139.554637 288.120636 
L 139.749465 286.719617 
L 139.840385 291.36094 
L 140.054695 282.346193 
L 140.145615 292.977195 
L 140.463834 289.519981 
L 140.632684 291.598079 
L 141.041823 266.76907 
L 141.152225 284.490116 
L 141.392513 273.561033 
L 141.600329 286.997382 
L 141.840617 268.87537 
L 142.054927 275.319378 
L 142.249755 276.817549 
L 142.490043 290.24916 
L 142.632916 277.344326 
L 142.717342 289.156996 
L 142.879698 287.333958 
L 142.944641 290.599486 
L 143.055043 285.364643 
L 143.26286 289.991555 
L 143.405733 287.992369 
L 143.691481 280.076466 
L 143.82786 280.893276 
L 144.035677 290.743218 
L 144.165562 280.350405 
L 144.275964 289.933706 
L 144.555217 269.662461 
L 144.717574 292.509459 
L 144.782516 290.248316 
L 144.886425 291.097982 
L 145.133206 287.921105 
L 145.263092 291.35836 
L 145.367 287.40311 
L 145.457919 289.308736 
L 145.568322 289.164284 
L 145.834587 291.378273 
L 146.152805 235.349638 
L 146.522978 293.979634 
L 146.691829 278.270194 
L 146.854185 288.705846 
L 147.042519 272.958276 
L 147.230852 274.53595 
L 147.341255 286.625261 
L 147.614014 269.123216 
L 147.672462 293.805825 
L 147.815336 286.238293 
L 147.984187 291.332025 
L 148.133555 279.035865 
L 148.302405 293.200915 
L 148.8739 241.568766 
L 149.016774 285.980188 
L 149.153153 279.937053 
L 149.322004 280.714311 
L 149.419418 291.31406 
L 149.724648 263.637303 
L 149.802579 290.436295 
L 149.88051 289.134549 
L 149.977924 290.656219 
L 150.101315 290.660184 
L 150.179246 290.236522 
L 150.302637 283.8727 
L 150.549419 283.010548 
L 150.614362 291.071662 
L 150.861144 283.435809 
L 150.932581 292.71791 
L 151.029994 287.651852 
L 151.140397 288.160144 
L 151.270282 281.664992 
L 151.530052 288.33755 
L 151.705397 279.705672 
L 151.854765 282.461426 
L 151.958674 287.836153 
L 152.07557 283.502332 
L 152.159996 289.14287 
L 152.289881 283.263492 
L 153.036721 160.266473 
L 153.166606 284.873544 
L 153.322468 280.553996 
L 153.497813 289.018647 
L 153.634193 283.313217 
L 153.809538 285.665983 
L 154.01086 289.655317 
L 154.108274 285.674533 
L 154.290113 271.367125 
L 154.36155 291.300063 
L 154.523906 289.78759 
L 154.647297 282.962759 
L 155.010976 218.002484 
L 155.121378 289.835528 
L 155.205804 289.705415 
L 155.407126 285.214155 
L 155.67339 285.069927 
L 155.777298 290.742428 
L 155.933161 286.182099 
L 156.056552 286.186604 
L 156.134483 290.01762 
L 156.231897 288.216395 
L 156.407242 289.325718 
L 156.55661 289.285364 
L 156.654023 286.824014 
L 156.790403 287.512502 
L 156.894311 285.470424 
L 157.030691 285.828882 
L 157.141093 281.750718 
L 157.238507 292.117928 
L 157.556726 286.227464 
L 157.634657 289.092645 
L 157.816496 273.520909 
L 157.978852 287.866812 
L 158.420462 239.139793 
L 158.719198 287.436113 
L 158.823106 284.738302 
L 158.914026 291.048049 
L 159.024428 289.239968 
L 159.102359 290.802597 
L 159.186785 289.748086 
L 159.284199 290.799055 
L 159.446555 278.093981 
L 159.556958 287.926406 
L 159.790751 286.650467 
L 159.888165 289.699259 
L 160.141441 281.466268 
L 160.433683 263.713055 
L 160.498625 291.423775 
L 160.712936 285.148864 
L 160.836327 286.370401 
L 160.907764 289.417128 
L 161.044143 279.261638 
L 161.336385 282.409658 
L 161.433799 289.429887 
L 161.518224 288.215736 
L 161.706558 271.628374 
L 161.836443 281.969552 
L 162.063742 285.183797 
L 162.278053 272.807775 
L 162.531329 269.484689 
L 162.726156 287.720602 
L 162.91449 274.768306 
L 163.115812 292.053829 
L 163.213226 290.720917 
L 163.271674 291.070698 
L 163.460008 286.420251 
L 163.609376 288.607012 
L 163.745755 278.708845 
L 163.973054 273.81174 
L 164.076963 288.614471 
L 164.492595 223.222181 
L 164.7134 290.814702 
L 164.869262 284.202595 
L 165.012136 288.423399 
L 165.226447 279.855751 
L 165.427769 290.640785 
L 165.700527 288.671524 
L 165.81093 290.674259 
L 165.927827 284.115807 
L 166.031735 285.578008 
L 166.213574 274.759698 
L 166.349953 281.474944 
L 166.460356 292.51482 
L 166.707138 282.380519 
L 166.856506 285.571944 
L 166.999379 278.110963 
L 167.12277 280.889796 
L 167.220184 286.681642 
L 167.428001 279.611897 
L 167.56438 291.421777 
L 167.759208 287.159796 
L 167.850127 288.135446 
L 167.967024 283.476293 
L 168.2203 251.123011 
L 168.31122 287.002173 
L 168.486565 289.335195 
L 168.655416 287.731512 
L 168.856738 292.177201 
L 169.187945 286.352235 
L 169.304842 289.171243 
L 169.62306 252.220957 
L 169.811394 290.816545 
L 170.012716 256.638251 
L 170.194555 280.304746 
L 170.3699 271.651122 
L 170.493291 282.809064 
L 170.72059 268.814705 
L 171.032315 234.971061 
L 171.149212 288.552746 
L 171.298579 284.704638 
L 171.447947 285.577228 
L 171.642775 288.094379 
L 171.707718 290.645863 
L 171.896051 287.049687 
L 172.071396 287.239176 
L 172.246741 284.144544 
L 172.844213 217.951706 
L 173.05203 272.753843 
L 173.26634 265.103576 
L 173.422202 294.905605 
L 173.766398 259.304624 
L 173.954732 259.478141 
L 174.039157 287.705521 
L 174.630135 268.047779 
L 174.785997 277.090237 
L 175.006802 270.114945 
L 175.247089 257.474945 
L 175.513354 289.163105 
L 175.59778 289.059092 
L 175.76663 285.489953 
L 175.851056 290.273094 
L 176.136803 268.806825 
L 176.325137 270.248728 
L 176.442033 289.98691 
L 176.578413 285.760479 
L 176.890137 237.5446 
L 177.084965 292.864383 
L 177.357724 271.935422 
L 177.539563 290.674028 
L 177.727897 290.017922 
L 177.864276 278.710314 
L 177.935713 291.386071 
L 178.227955 235.1088 
L 178.66307 230.350863 
L 178.728013 292.417515 
L 179.306002 186.838831 
L 179.370945 291.912606 
L 179.539795 274.76082 
L 179.916462 223.365608 
L 180.11129 287.664637 
L 180.241175 279.50373 
L 180.423015 289.741957 
L 180.526923 288.41904 
L 180.611348 292.869526 
L 180.734739 283.758071 
L 180.825659 287.245243 
L 180.936061 282.238405 
L 181.085429 284.451225 
L 181.260774 291.613075 
L 181.371177 288.598152 
L 181.494567 288.704291 
L 181.65043 289.577646 
L 181.715372 290.751967 
L 181.799798 290.23647 
L 181.95566 284.03306 
L 182.182959 283.130217 
L 182.254396 290.616511 
L 182.455718 281.831852 
L 182.631063 268.79845 
L 183.059684 267.893081 
L 183.306466 286.199228 
L 183.585719 241.709331 
L 183.683133 288.775057 
L 183.851984 272.426241 
L 183.949398 290.182733 
L 184.36503 225.513306 
L 184.436467 291.607775 
L 184.858594 211.741034 
L 185.124859 277.249907 
L 185.475549 243.670026 
L 185.969113 215.762609 
L 186.053538 290.684671 
L 186.625033 212.559813 
L 186.917274 291.843469 
L 187.125091 284.892341 
L 187.21601 288.449241 
L 187.35239 278.89896 
L 187.521241 274.945886 
L 187.677103 285.333672 
L 187.904402 283.00281 
L 188.475897 206.082267 
L 188.774633 273.75845 
L 188.995438 252.784414 
L 189.183771 291.91915 
L 189.333139 275.872268 
L 189.398082 290.229408 
L 189.612392 294.385321 
L 189.80722 291.153046 
L 189.930611 286.936401 
L 190.105956 271.723439 
L 190.164404 292.213924 
L 190.274807 289.411602 
L 190.482623 268.491583 
L 190.625497 282.614536 
L 190.963198 238.210907 
L 191.34636 257.097744 
L 191.437279 290.022447 
L 191.547682 286.916364 
L 191.749004 268.559106 
L 191.943832 294.995822 
L 192.26205 285.578381 
L 192.541304 261.914124 
L 192.729637 291.503484 
L 192.898488 279.025733 
L 192.956936 291.169468 
L 193.431017 244.166591 
L 193.528431 291.994979 
L 193.931075 260.81825 
L 194.099926 285.023509 
L 194.470099 227.262883 
L 195.035099 292.806818 
L 195.177973 290.303553 
L 195.307858 294.26355 
L 195.619583 250.938053 
L 195.976767 243.589209 
L 196.333951 286.342341 
L 196.65217 231.082137 
L 196.782055 292.316963 
L 196.983377 257.200656 
L 197.158722 294.011779 
L 197.541884 210.143426 
L 197.821137 239.321467 
L 197.964011 294.963811 
L 198.431597 206.437476 
L 198.684873 246.236104 
L 199.107 211.158129 
L 199.366771 290.246726 
L 199.542116 289.585739 
L 199.659012 285.76226 
L 200.237001 152.809274 
L 200.678611 229.389943 
L 200.802002 284.83396 
L 200.983841 283.329009 
L 201.094244 284.033731 
L 201.308554 290.817107 
L 201.451428 288.820009 
L 201.646256 268.822428 
L 201.95798 291.818254 
L 202.081371 280.243033 
L 202.509992 265.388322 
L 202.685337 295.488 
L 203.042522 247.890905 
L 203.282809 291.270027 
L 203.432177 291.61054 
L 203.523097 286.660833 
L 203.717925 288.270983 
L 203.912753 257.960713 
L 204.101086 279.222015 
L 204.282925 260.154197 
L 204.834937 175.906752 
L 205.153156 286.195858 
L 205.477869 231.770178 
L 206.146778 288.607496 
L 206.341606 276.874493 
L 206.452008 289.39888 
L 207.036492 242.89908 
L 207.263791 250.048397 
L 207.458618 287.44498 
L 207.640458 272.709716 
L 207.802814 292.998307 
L 207.991148 271.034508 
L 208.263907 271.959448 
L 208.471723 292.216667 
L 208.744482 244.073045 
L 208.906838 270.083738 
L 209.160115 245.048224 
L 209.829023 206.944849 
L 209.984886 266.011469 
L 210.186208 276.815363 
L 210.413507 262.657724 
L 210.588852 294.41699 
L 210.666783 289.820548 
L 210.978507 243.46257 
L 211.056438 288.623181 
L 211.186324 279.339227 
L 211.34868 280.910212 
L 211.48506 280.28545 
L 211.660405 283.042592 
L 211.900692 253.720632 
L 212.14098 249.748044 
L 212.433222 265.280878 
L 212.628049 258.233071 
L 212.70598 288.930446 
L 213.004716 238.370037 
L 213.329429 226.136726 
L 213.517763 281.557907 
L 213.816499 274.493412 
L 214.063281 275.92488 
L 214.141212 290.17022 
L 214.329545 291.346077 
L 214.459431 286.432893 
L 214.771155 293.632117 
L 214.933512 293.228218 
L 215.147822 255.711084 
L 215.29719 294.878415 
L 215.440064 284.96679 
L 215.60242 288.114988 
L 215.719317 286.380127 
L 216.08949 243.589267 
L 216.336272 291.032447 
L 216.537594 255.054361 
L 217.128571 234.708278 
L 217.394836 280.475862 
L 217.758515 241.539747 
L 218.031274 240.912535 
L 218.297538 249.226804 
L 218.778113 293.610868 
L 219.219723 236.221039 
L 219.395068 276.413212 
L 219.615873 264.334339 
L 219.836678 277.940522 
L 220.109437 263.356576 
L 220.29777 291.349128 
L 220.408173 290.032863 
L 220.771851 219.224417 
L 221.012139 249.33628 
L 221.375817 221.531921 
L 221.74599 223.252829 
L 222.031738 238.71547 
L 222.551278 211.636454 
L 222.914957 226.639818 
L 223.109785 257.116983 
L 223.343578 249.200836 
L 223.551394 287.195216 
L 224.194326 235.062563 
L 224.622947 251.087299 
L 224.941166 233.754935 
L 225.512661 191.230624 
L 225.882834 233.495561 
L 226.09065 273.106413 
L 226.480306 224.159302 
L 226.636168 285.504768 
L 227.266111 259.178514 
L 227.675249 220.357525 
L 228.064905 245.332427 
L 228.227262 291.756001 
L 228.584446 249.15136 
L 228.649388 291.887974 
L 229.188412 193.62254 
L 229.402723 287.944406 
L 229.714447 234.982486 
L 229.94824 249.821091 
L 230.396344 198.031591 
L 230.760023 266.281508 
L 231.188644 228.200143 
L 231.435426 248.462086 
L 231.610771 279.104209 
L 231.88353 282.320063 
L 232.18876 232.594761 
L 232.610887 286.034003 
L 232.825198 254.718089 
L 233.136922 233.05736 
L 233.364221 284.653528 
L 233.552555 288.677101 
L 233.831808 239.463105 
L 234.12405 239.753521 
L 234.481234 223.3325 
L 234.721521 286.136449 
L 234.987786 272.164595 
L 235.598247 196.882105 
L 235.721637 285.796945 
L 235.948937 290.115714 
L 236.117787 263.042988 
L 236.27365 288.035502 
L 237.423134 234.962183 
L 237.786812 265.363023 
L 238.28687 218.414994 
L 238.546641 286.681501 
L 238.793422 248.156492 
L 239.12463 228.343295 
L 239.351929 252.086151 
L 240.053309 230.574555 
L 240.313079 245.20485 
L 240.689746 292.892481 
L 240.884574 289.504059 
L 241.131356 245.968787 
L 241.404115 237.871161 
L 241.722334 279.647302 
L 241.936644 276.777096 
L 242.300323 220.680969 
L 243.118599 189.992728 
L 243.33291 255.178626 
L 243.748543 205.812851 
L 244.255095 226.014467 
L 244.742164 263.176504 
L 244.975958 291.853816 
L 245.216245 285.021247 
L 245.495499 283.748539 
L 245.826706 235.183441 
L 246.18389 277.065134 
L 246.378718 257.58249 
L 246.567051 288.697449 
L 247.028144 210.119129 
L 247.222972 258.908478 
L 247.560673 243.669559 
L 248.430904 153.761835 
L 248.781594 244.042193 
L 249.418032 223.514517 
L 249.502457 288.588221 
L 249.814181 231.676848 
L 250.340216 231.664196 
L 250.580504 249.697741 
L 250.885734 231.641133 
L 251.054585 284.320777 
L 251.437746 249.330063 
L 251.639068 274.04204 
L 251.911827 242.67353 
L 252.346943 224.757034 
L 252.528782 261.064707 
L 253.28861 253.239472 
L 253.587346 281.56828 
L 253.977002 223.597064 
L 254.983612 208.231229 
L 255.210911 285.893883 
L 255.477176 240.017293 
L 256.652637 110.642142 
L 256.97735 283.894643 
L 257.32804 245.37937 
L 257.509879 261.029533 
L 257.81511 235.990999 
L 258.1658 238.39472 
L 258.42557 244.295544 
L 258.802237 233.11452 
L 259.023042 252.466942 
L 259.237352 253.530716 
L 259.575054 266.71233 
L 259.880284 242.076607 
L 260.146549 243.213252 
L 260.640113 221.552275 
L 260.932354 286.660814 
L 261.731148 197.801887 
L 261.945459 255.714902 
L 262.185746 254.699013 
L 262.387069 292.532217 
L 262.744253 214.916344 
L 263.205345 221.049493 
L 264.179484 251.776438 
L 264.497703 246.712527 
L 264.744485 247.718021 
L 265.205577 234.887346 
L 265.48483 247.936563 
L 266.004371 189.876138 
L 266.251153 252.99049 
L 266.504429 243.960902 
L 266.946039 223.407951 
L 267.186327 290.75895 
L 267.459085 241.976626 
L 267.712362 289.223769 
L 268.043569 244.175392 
L 268.264374 286.817256 
L 269.17357 183.698397 
L 269.699605 179.115169 
L 270.491905 197.227158 
L 270.660756 262.640969 
L 271.037423 233.017536 
L 272.031044 177.70149 
L 272.647999 251.197997 
L 273.284437 190.631008 
L 273.544207 247.005078 
L 273.745529 257.209804 
L 274.206621 228.577705 
L 274.628748 266.495664 
L 275.037887 209.232893 
L 275.537945 204.278849 
L 276.012026 242.722268 
L 276.232831 289.828979 
L 276.531567 280.196421 
L 276.849785 236.046488 
L 277.37582 226.616755 
L 277.596625 254.332973 
L 277.797947 257.17717 
L 278.304499 247.988269 
L 278.798063 176.83874 
L 279.187719 211.960917 
L 279.61634 201.894379 
L 279.993007 235.464133 
L 280.590479 187.39728 
L 281.207434 149.247488 
L 281.629561 228.855406 
L 281.980251 234.781816 
L 282.389389 221.121236 
L 282.668642 242.995218 
L 282.960884 239.500068 
L 283.175194 253.704711 
L 283.454448 239.686385 
L 283.694735 289.83138 
L 283.961 241.677705 
L 284.26623 240.390523 
L 284.454564 259.15369 
L 284.746805 238.039205 
L 285.019564 249.802752 
L 285.461174 241.844742 
L 285.694967 251.069164 
L 285.902784 253.009614 
L 286.285945 231.928702 
L 286.526232 250.057356 
L 286.792497 242.687467 
L 287.234107 254.610378 
L 287.649739 238.26864 
L 287.86405 290.958498 
L 288.162786 284.966865 
L 288.435545 239.827709 
L 288.669338 250.933345 
L 288.877155 254.74366 
L 289.22135 227.023199 
L 290.299397 106.685024 
L 290.747501 227.660581 
L 291.403422 210.32883 
L 291.7671 223.45639 
L 291.961928 258.01062 
L 292.669802 221.141721 
L 292.968538 236.499553 
L 293.273768 233.351528 
L 293.546527 241.732515 
L 294.169976 167.844643 
L 294.44923 253.081742 
L 294.734977 237.63329 
L 295.176587 201.280527 
L 295.358426 260.738813 
L 295.605208 248.454654 
L 295.832507 251.920806 
L 296.209174 212.760381 
L 296.891071 159.375273 
L 297.137853 246.311066 
L 297.352164 251.47677 
L 297.86521 226.570949 
L 298.222395 218.479444 
L 298.573085 222.94587 
L 298.852338 239.083257 
L 299.112108 244.611169 
L 299.300442 259.749115 
L 299.930385 213.567738 
L 300.190155 246.778937 
L 300.475903 249.625849 
L 301.183777 146.671686 
L 301.55395 226.802109 
L 302.086479 254.293898 
L 302.398204 232.965337 
L 302.631997 253.374442 
L 302.878779 243.90889 
L 303.119066 247.391434 
L 303.3074 256.898881 
L 303.736021 196.499264 
L 304.158148 220.536425 
L 304.385447 271.189649 
L 304.80108 206.677284 
L 305.021885 253.324126 
L 305.346598 238.681099 
L 305.697288 234.688062 
L 305.996024 241.595173 
L 306.470105 184.162412 
L 306.749358 238.909219 
L 306.983151 251.854625 
L 307.444244 200.167601 
L 307.678037 250.364816 
L 308.009244 237.236597 
L 308.606716 205.935563 
L 308.821027 254.223678 
L 309.05482 249.260255 
L 309.275625 253.232215 
L 309.795166 173.928499 
L 310.334189 197.039673 
L 310.912178 156.903511 
L 311.451202 188.457984 
L 312.035685 258.738046 
L 312.30195 243.67956 
L 312.477295 261.830668 
L 313.022813 180.14221 
L 313.568331 157.45947 
L 315.036033 257.5638 
L 315.490632 221.217201 
L 316.036149 159.76989 
L 316.451782 205.600336 
L 316.685575 246.618229 
L 317.237587 159.536703 
L 317.601266 230.660282 
L 317.893508 234.389762 
L 318.315635 260.938546 
L 318.49098 261.313794 
L 318.757244 243.61917 
L 319.004026 248.09369 
L 319.7119 140.629567 
L 319.945694 247.512902 
L 320.380809 196.476435 
L 321.614719 228.605119 
L 321.919949 232.082382 
L 322.575869 136.595749 
L 322.764203 258.81791 
L 323.00449 246.585895 
L 323.179835 261.83897 
L 323.608456 199.373228 
L 323.881215 240.756609 
L 324.569607 129.469783 
L 324.84886 240.47602 
L 325.147596 231.908185 
L 325.654148 171.019186 
L 326.134723 192.437339 
L 326.673747 170.192077 
L 326.933517 242.975422 
L 327.537484 143.894432 
L 328.128461 153.761193 
L 328.35576 250.660613 
L 328.719439 230.538936 
L 329.303922 151.161795 
L 329.84944 181.167456 
L 330.284556 195.939969 
L 330.778119 176.98267 
L 331.401568 142.889511 
L 332.076971 130.109779 
L 332.79134 126.203348 
L 333.349846 165.593182 
L 333.88887 161.561496 
L 334.304502 230.566521 
L 335.168239 190.976426 
L 335.765711 144.784887 
L 336.044964 238.90243 
L 336.616459 165.779463 
L 337.200942 155.495519 
L 337.623069 211.261082 
L 338.194564 154.961564 
L 338.837496 148.473659 
L 339.467439 143.785259 
L 340.051922 167.172292 
L 340.55198 202.658455 
L 341.233878 140.864301 
L 341.792384 170.810426 
L 342.961351 144.350862 
L 343.565317 144.378028 
L 344.071869 170.051797 
L 344.747272 139.222013 
L 345.344744 157.329111 
L 345.559055 254.193453 
L 345.708423 266.330088 
L 346.253941 178.51959 
L 346.864401 151.179017 
L 347.44239 146.497086 
L 348.111299 244.169347 
L 348.767219 138.251719 
L 349.384174 136.946417 
L 350.007623 137.417426 
L 350.631072 156.151452 
L 351.105153 194.494949 
L 351.689636 160.899322 
L 352.241648 159.124937 
L 352.969005 132.116255 
L 353.534006 163.969613 
L 354.137972 134.027736 
L 354.612053 186.545918 
L 355.183548 151.890025 
L 355.742054 163.847584 
L 356.294066 162.04342 
L 356.92401 147.229608 
L 357.547458 141.745449 
L 358.112459 156.016589 
L 358.644988 174.425499 
L 359.229472 157.180341 
L 359.826944 152.731333 
L 360.047749 251.14429 
L 360.632232 144.165582 
L 361.229704 153.20235 
L 361.703785 184.977636 
L 362.145394 198.279693 
L 362.690912 162.697594 
L 363.320855 153.121511 
L 363.89235 161.612571 
L 364.489822 142.856469 
L 365.100283 157.884026 
L 365.652295 154.39199 
L 366.210801 154.018209 
L 366.814767 156.309509 
L 367.431722 141.452229 
L 367.996723 157.281366 
L 368.535746 163.686169 
L 369.172184 128.708511 
L 369.717701 167.550161 
L 370.315173 140.202579 
L 370.87368 154.554989 
L 371.451669 146.635424 
L 372.010175 154.846975 
L 372.562187 156.462558 
L 373.107705 158.495842 
L 373.72466 149.506249 
L 374.413051 142.084997 
L 375.517076 165.550832 
L 376.062593 156.530336 
L 376.6211 166.94047 
L 377.173112 153.400852 
L 377.803055 130.138703 
L 378.387538 171.453634 
L 378.959033 151.435223 
L 379.47208 176.953162 
L 380.063057 159.777672 
L 380.602081 164.847643 
L 381.322944 139.6083 
L 381.894439 167.511409 
L 382.53737 150.248146 
L 383.160819 128.413028 
L 383.712832 157.413841 
L 384.329786 151.088016 
L 384.888293 153.965871 
L 385.472776 145.124246 
L 386.063754 158.580097 
L 386.635248 152.898005 
L 387.271686 137.979686 
L 387.901629 136.87712 
L 388.46663 163.933212 
L 389.03163 161.327025 
L 389.583642 167.710707 
L 390.181114 150.71387 
L 390.746115 156.935882 
L 391.330598 157.492067 
L 391.889105 159.394437 
L 392.441117 158.949089 
L 393.006117 157.947928 
L 393.558129 163.997471 
L 394.116636 156.331075 
L 394.116636 156.331075 
" clip-path="url(#p84a69cd956)" style="fill: none; stroke: #1f77b4; stroke-width: 1.5; stroke-linecap: square"/>
   </g>
   <g id="line2d_15">
    <path d="M 138.716878 266.44942 
L 203.659476 230.324821 
L 268.602075 255.757349 
L 333.544674 159.472389 
L 398.487273 161.83991 
" clip-path="url(#p84a69cd956)" style="fill: none; stroke: #ff7f0e; stroke-width: 1.5; stroke-linecap: square"/>
   </g>
   <g id="line2d_16">
    <path d="M 73.845716 289.954015 
L 73.936635 289.333656 
L 74.027555 287.817463 
L 74.332785 289.412642 
L 74.443188 283.167701 
L 74.676981 288.421065 
L 74.930257 283.202293 
L 75.066637 282.867804 
L 75.203016 280.947208 
L 75.34589 285.626559 
L 75.495258 279.226161 
L 75.579683 290.188498 
L 75.943362 283.4155 
L 76.151178 286.45177 
L 76.268075 284.671755 
L 76.475891 285.31908 
L 76.651236 290.35989 
L 76.885029 290.704869 
L 77.118823 281.533712 
L 77.268191 285.469864 
L 77.326639 291.228526 
L 77.463019 290.193009 
L 77.631869 272.925524 
L 77.813709 276.813302 
L 77.904628 291.818832 
L 78.066985 287.494496 
L 78.216353 286.83645 
L 78.385203 284.089928 
L 78.469629 290.28765 
L 78.554054 289.038315 
L 78.644974 290.645229 
L 78.735893 285.533165 
L 78.904744 287.15825 
L 79.047618 281.266225 
L 79.106066 292.305235 
L 79.502216 269.253206 
L 79.671067 281.838241 
L 79.826929 276.548699 
L 79.891872 290.874993 
L 80.112677 288.530327 
L 80.476355 270.686834 
L 80.580263 286.954964 
L 80.690666 286.382818 
L 80.976413 274.122634 
L 81.242678 288.285443 
L 81.437506 285.862863 
L 81.619345 269.644208 
L 81.690782 290.681279 
L 81.79469 285.883167 
L 81.989518 288.512547 
L 82.112909 282.536388 
L 82.301242 291.119693 
L 82.580495 250.743216 
L 82.723369 288.184354 
L 83.359807 244.034078 
L 83.658542 290.771646 
L 83.775439 288.931435 
L 83.859865 289.519945 
L 84.054692 273.833984 
L 84.145612 289.519776 
L 84.275497 283.415044 
L 84.353428 289.831188 
L 84.55475 280.623301 
L 84.827509 289.809484 
L 84.944406 283.652937 
L 85.152222 289.282572 
L 85.262625 288.288483 
L 85.39251 285.421211 
L 85.548372 274.317522 
L 85.736706 282.266652 
L 86.100384 231.500036 
L 86.249752 284.470279 
L 86.554982 238.935983 
L 86.645902 291.051267 
L 86.743316 287.164869 
L 86.892684 284.746611 
L 87.074523 284.606701 
L 87.340788 256.321506 
L 87.58757 284.994185 
L 87.98372 211.858909 
L 88.120099 287.468864 
L 88.236996 285.712175 
L 88.347398 286.600616 
L 88.490272 284.940341 
L 88.626651 286.364675 
L 88.743548 283.751296 
L 88.996824 291.185324 
L 89.354008 256.583736 
L 89.438434 290.77783 
L 89.55533 284.523839 
L 89.613779 292.084828 
L 89.750158 287.156449 
L 89.938492 285.095248 
L 90.120331 290.814333 
L 90.341136 290.64768 
L 90.432056 286.93219 
L 91.282804 200.596502 
L 91.471137 279.188053 
L 91.614011 279.030923 
L 91.70493 289.37845 
L 91.782862 289.10468 
L 91.880275 287.430314 
L 92.068609 275.115174 
L 92.153034 290.235429 
L 92.341368 277.200917 
L 92.464759 287.157318 
L 92.607633 283.490722 
L 92.789472 284.336022 
L 92.971311 289.981419 
L 93.127173 283.611346 
L 93.360967 288.808823 
L 93.523323 283.960172 
L 93.633726 287.199422 
L 93.783094 285.559025 
L 94.016887 291.431896 
L 94.335106 285.799393 
L 94.445508 286.974028 
L 94.562405 291.117452 
L 94.822175 279.547191 
L 94.945566 286.384274 
L 95.263785 239.671414 
L 95.562521 285.06945 
L 95.633958 290.162045 
L 95.776831 285.430754 
L 96.075567 263.323744 
L 96.296372 287.036904 
L 96.432752 279.662167 
L 96.608097 281.208739 
L 96.712005 288.203318 
L 96.848384 284.697135 
L 97.244534 261.559436 
L 97.367925 289.871524 
L 97.595224 262.8662 
L 97.692638 284.831357 
L 97.809535 286.058777 
L 97.945914 278.589474 
L 98.043328 286.537006 
L 98.225167 287.122318 
L 98.29011 290.764689 
L 98.478444 277.996016 
L 98.601834 288.742102 
L 98.73172 285.950855 
L 98.842122 287.25413 
L 99.010973 287.567681 
L 99.153847 279.987769 
L 99.264249 290.317817 
L 99.472065 287.288587 
L 99.543502 292.239555 
L 100.011089 254.521093 
L 100.147468 287.747059 
L 100.264365 288.165834 
L 100.381262 289.886368 
L 100.582584 269.788234 
L 100.868331 285.186772 
L 101.09563 271.73299 
L 101.173561 288.013693 
L 101.303447 288.594907 
L 101.374883 290.625917 
L 101.589194 290.881601 
L 101.816493 284.694156 
L 101.991838 287.587839 
L 102.264597 250.670532 
L 102.446436 290.766641 
L 102.58931 281.917966 
L 102.881552 290.549019 
L 103.212759 263.582893 
L 103.401092 289.220327 
L 103.492012 286.588145 
L 103.59592 291.694067 
L 103.660863 290.570579 
L 103.738794 290.383389 
L 103.868679 282.151118 
L 103.94661 289.863504 
L 104.199886 284.017453 
L 104.329772 292.51695 
L 104.498622 281.731054 
L 104.589542 287.052544 
L 104.862301 269.704888 
L 105.13506 287.287274 
L 105.22598 287.885008 
L 105.297416 290.427179 
L 105.388336 289.720793 
L 105.524715 289.34554 
L 105.609141 289.727052 
L 105.739026 287.365981 
L 106.070233 261.775803 
L 106.355981 289.810835 
L 106.58328 269.934505 
L 106.778108 289.859929 
L 106.869027 290.044764 
L 107.011901 282.150413 
L 107.115809 287.316376 
L 107.226212 282.963127 
L 107.310637 289.27624 
L 107.58989 288.423615 
L 107.687304 289.182053 
L 107.856155 274.680859 
L 107.934086 288.1653 
L 108.174373 274.171927 
L 108.278282 289.088381 
L 108.460121 274.174198 
L 108.557535 291.013469 
L 108.700409 277.512309 
L 108.810811 288.975838 
L 109.064087 257.9553 
L 109.304375 288.835039 
L 109.473225 288.234391 
L 109.557651 289.287642 
L 109.771961 267.028097 
L 109.869375 289.582762 
L 109.992766 282.9015 
L 110.083686 290.492859 
L 110.194088 285.887416 
L 110.291502 288.775699 
L 110.499319 285.2879 
L 110.629204 287.913452 
L 110.914951 267.185349 
L 111.070813 291.988748 
L 111.27863 287.474528 
L 111.369549 286.433457 
L 111.460469 287.114396 
L 111.58386 284.621124 
L 111.726734 288.387022 
L 111.863113 283.301912 
L 111.960527 286.936369 
L 112.213803 265.641459 
L 112.337194 285.69401 
L 112.460585 284.521407 
L 112.557999 286.251555 
L 112.622942 291.873164 
L 112.759321 291.287888 
L 112.94116 276.885758 
L 113.051563 284.414935 
L 113.259379 277.787722 
L 113.38277 286.867239 
L 113.545126 280.54631 
L 113.915299 248.968781 
L 114.142598 284.530876 
L 114.278978 280.593457 
L 114.460817 288.062165 
L 114.759553 276.571102 
L 114.967369 287.916745 
L 115.051795 290.934195 
L 115.162197 284.383486 
L 115.285588 286.668729 
L 115.415473 280.126453 
L 115.62329 288.395472 
L 115.746681 288.675587 
L 116.019439 269.133651 
L 116.214267 274.930744 
L 116.389612 290.339175 
L 116.53898 281.522942 
L 116.649383 289.653148 
L 116.88967 281.566863 
L 117.103981 290.884956 
L 117.233866 281.32001 
L 117.37674 281.33217 
L 117.54559 280.693963 
L 117.617027 288.828239 
L 117.909269 258.071587 
L 118.208005 287.460496 
L 118.370362 280.059276 
L 118.435304 291.036283 
L 118.64312 273.286064 
L 118.948351 287.22532 
L 119.338006 270.560526 
L 119.48088 286.465603 
L 119.656225 277.549551 
L 119.825076 277.639992 
L 120.032892 290.424426 
L 120.18226 278.79187 
L 120.240708 291.78723 
L 120.500479 264.614585 
L 120.552433 291.902159 
L 120.636858 288.770181 
L 120.909617 285.506467 
L 120.97456 290.267436 
L 121.045997 289.925725 
L 121.195365 290.186654 
L 121.32525 282.081676 
L 121.656457 288.787591 
L 121.805825 279.064902 
L 121.961687 276.54735 
L 122.052607 287.675974 
L 122.2864 273.709007 
L 122.435768 278.429375 
L 122.533182 289.710901 
L 122.624102 289.363193 
L 122.734504 286.401262 
L 123.150137 263.329489 
L 123.208585 290.767775 
L 123.29301 288.356491 
L 123.442378 283.746886 
L 123.650195 288.571081 
L 123.767091 286.071746 
L 123.942436 270.870202 
L 124.072322 288.564473 
L 124.267149 274.906325 
L 124.345081 291.42385 
L 124.436 288.502857 
L 124.611345 280.515667 
L 124.708759 289.955553 
L 124.825656 281.977594 
L 124.884104 291.913073 
L 125.143875 286.685257 
L 125.260771 289.543799 
L 125.390656 289.678711 
L 125.559507 282.734992 
L 125.643933 289.989739 
L 125.910197 281.091814 
L 126.007611 288.170403 
L 126.18945 290.302802 
L 126.410255 286.253342 
L 126.507669 287.082718 
L 126.760945 279.617332 
L 126.929796 278.116701 
L 126.988244 292.143522 
L 127.11813 289.563022 
L 127.267498 280.014622 
L 127.741579 218.423404 
L 127.916924 285.044086 
L 128.092269 285.451715 
L 128.371522 263.264093 
L 128.449453 290.406277 
L 128.572844 288.450644 
L 128.968994 269.004266 
L 129.053419 289.535784 
L 129.17681 288.791344 
L 129.332672 281.687588 
L 129.417098 288.524882 
L 129.605431 283.257639 
L 129.826236 289.951736 
L 130.092501 279.299767 
L 130.222386 284.75412 
L 130.378248 277.941501 
L 130.462673 287.682197 
L 130.631524 280.730686 
L 130.702961 289.610179 
L 130.845835 286.311757 
L 131.086122 267.673042 
L 131.378364 290.591189 
L 131.488766 284.594266 
L 131.566698 290.558633 
L 131.774514 265.845066 
L 131.910893 288.409664 
L 132.008307 286.429873 
L 132.079744 292.057587 
L 132.255089 287.706335 
L 132.521354 283.906541 
L 132.631756 290.641103 
L 132.846067 266.806364 
L 133.066872 271.285119 
L 133.443539 216.736703 
L 133.508481 290.525654 
L 133.599401 288.343166 
L 133.729286 285.276894 
L 133.807217 290.947872 
L 134.060493 285.241238 
L 134.170896 285.915197 
L 134.580034 276.878681 
L 134.78785 270.138906 
L 134.891759 285.464829 
L 135.060609 284.800397 
L 135.307391 273.299253 
L 135.398311 292.297102 
L 135.521702 281.853244 
L 135.62561 286.769581 
L 135.872392 282.132524 
L 136.002277 282.425318 
L 136.119174 289.458586 
L 136.223082 288.951638 
L 136.365956 285.586673 
L 136.775094 290.584278 
L 136.891991 285.828587 
L 137.327106 239.576888 
L 137.528428 290.16978 
L 137.632336 285.713996 
L 137.72975 289.239643 
L 137.827164 286.982017 
L 138.054463 274.279209 
L 138.294751 272.118206 
L 138.359693 290.770865 
L 138.548027 287.746519 
L 138.645441 290.308141 
L 138.853257 283.935758 
L 139.158487 256.632754 
L 139.242913 290.198662 
L 139.366304 289.162408 
L 139.541649 279.035628 
L 139.755959 278.725808 
L 139.944293 290.80759 
L 140.035212 291.430337 
L 140.119638 287.549584 
L 140.353431 286.139433 
L 140.496305 286.285675 
L 140.684638 291.003494 
L 141.002857 282.990955 
L 141.074294 290.338567 
L 141.243145 279.621088 
L 141.32757 288.557361 
L 141.424984 284.747422 
L 141.762686 265.658837 
L 142.009467 289.952051 
L 142.139353 287.410865 
L 142.295215 276.440453 
L 142.457571 292.055049 
L 142.548491 288.074268 
L 142.788779 269.011757 
L 142.91217 289.128501 
L 143.223894 279.935215 
L 143.438205 274.497476 
L 143.7824 287.093842 
L 143.847343 291.402692 
L 143.931768 289.729786 
L 144.042171 290.847232 
L 144.211022 271.992311 
L 144.275964 290.740839 
L 144.496769 283.704008 
L 144.555217 291.518992 
L 144.646137 290.343343 
L 144.724068 289.05768 
L 145.055275 258.881667 
L 145.133206 290.190757 
L 145.379988 276.73309 
L 145.444931 290.052603 
L 145.685219 260.386972 
L 145.789127 289.985664 
L 145.906023 286.421851 
L 146.133322 275.190438 
L 146.211254 290.482879 
L 146.302173 288.005864 
L 146.393093 290.100006 
L 146.542461 278.428056 
L 146.639875 290.343656 
L 146.971082 285.824106 
L 147.133438 277.71593 
L 147.295795 287.941753 
L 147.575048 280.540913 
L 147.659474 292.402713 
L 147.795853 281.248819 
L 147.860796 289.88564 
L 147.977692 285.680196 
L 148.159532 273.10639 
L 148.3089 286.321855 
L 148.594647 267.085355 
L 148.731026 281.375868 
L 148.854417 282.344111 
L 148.945337 289.840032 
L 149.237579 273.03521 
L 149.322004 289.591042 
L 149.471372 286.164236 
L 149.57528 288.015373 
L 149.71166 281.224892 
L 149.822062 289.014132 
L 149.919476 285.714142 
L 150.068844 284.548057 
L 150.542925 217.28234 
L 150.744247 287.481686 
L 150.854649 285.507565 
L 150.919592 290.329544 
L 151.062466 285.786901 
L 151.133903 291.499299 
L 151.263788 282.939297 
L 151.387179 287.894816 
L 151.51057 282.295772 
L 151.789823 290.375214 
L 151.900225 284.855056 
L 151.965168 290.121287 
L 152.478214 269.458407 
L 152.556145 289.15097 
L 152.783445 276.555316 
L 152.971778 283.374032 
L 153.199077 279.494085 
L 153.387411 288.464976 
L 153.536779 284.441885 
L 153.640687 288.010636 
L 153.757584 285.490667 
L 153.822526 291.831511 
L 154.05632 281.015623 
L 154.22517 280.473846 
L 154.342067 282.855101 
L 154.413504 289.298877 
L 154.5304 283.707819 
L 154.744711 289.506602 
L 154.874596 286.850317 
L 155.036953 287.34821 
L 155.166838 284.333503 
L 155.420114 289.559507 
L 155.537011 287.910808 
L 155.679884 288.364221 
L 155.790287 287.608197 
L 156.004597 285.48556 
L 156.16046 288.120193 
L 156.283851 281.336935 
L 156.400747 285.644135 
L 156.868334 188.709174 
L 156.972242 284.983216 
L 157.374886 243.413555 
L 157.465806 292.347807 
L 157.641151 277.942494 
L 157.803507 281.092073 
L 157.861956 291.212141 
L 158.082761 278.216031 
L 158.232129 278.578872 
L 158.394485 290.61017 
L 158.517876 279.81867 
L 158.66075 285.974781 
L 158.810118 281.425231 
L 159.232245 291.24404 
L 159.381613 283.036967 
L 159.479027 286.953023 
L 159.693337 265.983319 
L 159.816728 283.002163 
L 160.011556 283.774691 
L 160.32328 274.265221 
L 160.381729 291.808436 
L 160.518108 282.018738 
L 160.609028 288.5735 
L 160.745407 288.637239 
L 160.829833 287.664715 
L 161.16104 261.61464 
L 161.342879 289.27521 
L 161.51173 283.958442 
L 161.576672 291.354899 
L 161.81696 289.758327 
L 162.018282 274.043693 
L 162.083225 289.774118 
L 162.420926 271.790661 
L 162.537823 285.224224 
L 162.680697 283.99161 
L 162.745639 290.353192 
L 162.91449 282.898271 
L 163.141789 262.351753 
L 163.278169 279.795101 
L 163.609376 255.943093 
L 163.901617 288.793695 
L 164.297767 227.273805 
L 164.40817 290.019304 
L 164.726388 235.33138 
L 164.927711 289.8348 
L 165.122538 287.946085 
L 165.278401 287.907581 
L 165.46024 282.762364 
L 165.771964 290.020552 
L 165.966792 285.715251 
L 166.16162 272.734894 
L 166.265528 291.089809 
L 166.51231 285.255761 
L 166.629207 290.884033 
L 166.992885 282.441219 
L 167.096793 286.365495 
L 167.440989 268.424196 
L 167.544897 286.217578 
L 167.713748 289.940735 
L 167.804668 287.537628 
L 167.999495 267.630892 
L 168.064438 290.870703 
L 168.525531 265.176307 
L 168.804784 260.604261 
L 168.92168 291.338901 
L 169.032083 285.862236 
L 169.356796 231.649646 
L 169.45421 287.605071 
L 169.636049 284.660145 
L 169.739957 292.637296 
L 169.811394 289.601953 
L 169.882831 290.847889 
L 169.980245 286.195994 
L 170.214038 251.420862 
L 170.486797 287.528319 
L 170.798521 239.285088 
L 170.954384 282.825563 
L 171.20766 254.362616 
L 171.344039 285.218156 
L 171.538867 287.692114 
L 171.948005 247.362163 
L 172.162316 279.764377 
L 172.35065 272.377528 
L 172.5195 281.218595 
L 172.642891 281.064356 
L 172.980593 271.269582 
L 173.129961 290.913742 
L 173.194903 290.593699 
L 173.363754 292.319449 
L 173.526111 275.495214 
L 173.733927 287.907415 
L 174.208008 204.706515 
L 174.552204 268.958197 
L 174.766514 264.971528 
L 175.006802 249.680095 
L 175.149676 282.7704 
L 175.318526 283.971934 
L 175.448412 288.512615 
L 175.578297 281.475844 
L 176.013412 233.288846 
L 176.286171 250.497618 
L 176.643355 225.685468 
L 176.734275 290.947669 
L 176.812206 288.84977 
L 177.020022 277.425142 
L 177.30577 269.374465 
L 177.403184 287.567201 
L 177.546057 284.665845 
L 177.623989 290.508236 
L 177.818816 288.780319 
L 177.896748 288.947016 
L 178.033127 279.344207 
L 178.117552 288.032527 
L 178.44876 237.256331 
L 178.513702 291.077733 
L 178.896864 218.104465 
L 179.124163 290.609616 
L 179.221577 288.035643 
L 179.533301 242.362731 
L 179.734623 288.375857 
L 180.241175 216.092915 
L 180.539911 288.966538 
L 180.663302 282.880373 
L 180.825659 290.283636 
L 180.94905 279.953771 
L 181.046464 291.086565 
L 181.293245 275.540206 
L 181.377671 290.194806 
L 181.455602 290.06213 
L 181.780315 269.355443 
L 182.027097 289.516397 
L 182.254396 271.037287 
L 182.358304 284.770317 
L 182.592097 259.89886 
L 182.670029 288.524309 
L 183.033707 278.413882 
L 183.306466 283.561124 
L 183.384397 289.761266 
L 183.61819 252.924271 
L 183.70911 290.560977 
L 184.19618 213.521099 
L 184.598824 289.859602 
L 184.748192 283.249924 
L 184.943019 259.353754 
L 185.11187 290.644894 
L 185.663882 248.119544 
L 186.196412 172.686836 
L 186.462676 287.959908 
L 186.527619 291.809455 
L 186.69647 272.207026 
L 186.86532 281.699352 
L 187.021183 280.362047 
L 187.319919 243.571165 
L 187.430321 283.797312 
L 188.066758 235.018861 
L 188.553828 257.007 
L 188.768139 261.013583 
L 189.079863 270.593233 
L 189.287679 260.466 
L 189.950094 183.90455 
L 190.073485 286.923497 
L 190.300784 282.257653 
L 190.456646 276.094334 
L 190.742394 287.470488 
L 190.969693 269.053622 
L 191.593142 166.806359 
L 192.190614 287.794597 
L 192.301016 286.711299 
L 192.417913 289.770493 
L 192.521821 287.476173 
L 192.833545 260.263134 
L 192.904982 290.086552 
L 193.151764 274.683401 
L 193.294638 286.547097 
L 193.482971 272.865046 
L 193.677799 279.295956 
L 193.75573 289.434073 
L 193.937569 287.352908 
L 194.177857 289.060406 
L 194.288259 290.643031 
L 194.729869 244.686212 
L 194.983145 289.726848 
L 195.34033 268.063215 
L 195.710502 232.440675 
L 195.840388 289.35238 
L 196.191078 278.862224 
L 196.470331 248.559519 
L 196.613204 279.969088 
L 196.834009 288.884659 
L 197.106768 270.491891 
L 197.236653 283.754587 
L 197.379527 286.232446 
L 197.756194 228.281047 
L 197.918551 290.3029 
L 198.269241 225.418513 
L 198.457574 288.41302 
L 198.639414 288.434494 
L 198.931655 240.890078 
L 199.042058 281.226764 
L 199.308322 288.670139 
L 199.41223 288.887872 
L 199.983725 173.144741 
L 200.055162 290.413981 
L 200.34091 241.378507 
L 200.490278 291.462198 
L 201.146198 165.276791 
L 201.295566 288.196011 
L 201.43844 285.792581 
L 201.782635 234.499847 
L 202.159302 289.70309 
L 202.79574 136.695183 
L 203.263327 287.569181 
L 203.730913 194.150107 
L 204.347868 160.527695 
L 204.50373 290.59199 
L 204.659592 288.991491 
L 204.744018 286.763348 
L 205.029765 285.263084 
L 205.237582 256.908148 
L 205.516835 289.340675 
L 205.653214 282.772383 
L 205.899996 252.972653 
L 206.023387 282.201613 
L 206.367583 228.378185 
L 206.536434 286.03701 
L 206.757238 289.471621 
L 207.09494 249.259511 
L 207.192354 290.773493 
L 207.335228 280.189942 
L 207.549538 276.78082 
L 207.789826 282.698645 
L 207.874251 287.763763 
L 208.224941 226.141372 
L 208.478217 287.89257 
L 208.861379 223.362271 
L 209.452356 267.133371 
L 209.692644 261.159845 
L 210.134254 292.343316 
L 210.231667 284.884374 
L 210.303104 289.3765 
L 210.445978 280.038701 
L 210.731725 278.819167 
L 211.277243 257.363948 
L 211.69937 224.350189 
L 211.926669 275.913437 
L 212.296842 234.381819 
L 212.439716 281.550947 
L 212.576095 284.403606 
L 213.316441 251.112169 
L 213.686614 235.594229 
L 213.84897 290.639786 
L 214.050292 258.151549 
L 214.284086 259.707241 
L 214.355522 290.602553 
L 214.569833 280.495121 
L 214.784144 290.031784 
L 214.881558 287.003081 
L 215.056903 291.344001 
L 215.316673 247.838787 
L 215.563455 283.697323 
L 215.985582 223.059179 
L 216.290812 286.786066 
L 216.537594 289.69127 
L 216.65449 283.609837 
L 216.920755 277.387626 
L 217.440296 187.665509 
L 217.693572 247.840856 
L 217.920871 252.345765 
L 218.083228 277.026234 
L 218.245584 281.905904 
L 218.511849 277.295408 
L 218.778113 245.874143 
L 218.875527 290.102216 
L 219.239206 261.478387 
L 219.447022 288.168306 
L 219.817195 269.59454 
L 220.031506 269.299901 
L 220.219839 288.438286 
L 220.356219 290.39209 
L 220.577023 288.163918 
L 220.8303 247.846426 
L 221.116047 248.381137 
L 221.752484 212.573151 
L 222.174611 287.731116 
L 222.408405 252.599998 
L 222.681164 247.669648 
L 223.064325 254.408206 
L 223.408521 240.568525 
L 223.908579 193.021654 
L 224.233292 291.214713 
L 224.726855 218.644921 
L 225.259385 210.390473 
L 225.610075 224.819399 
L 225.73996 283.577805 
L 226.019213 259.331305 
L 226.363409 259.709603 
L 226.499788 282.299307 
L 227.220651 202.850262 
L 227.415479 285.830628 
L 227.681744 245.583325 
L 228.103871 216.368409 
L 228.597434 250.804572 
L 229.311803 156.443737 
L 229.578068 279.95478 
L 229.922263 225.102416 
L 230.208011 277.183845 
L 230.987322 205.120047 
L 231.97445 154.592185 
L 232.266691 237.473938 
L 232.955083 185.865171 
L 233.071979 286.545969 
L 233.299279 283.996531 
L 233.513589 256.584134 
L 233.740888 283.251351 
L 234.253935 218.391005 
L 234.669567 212.971667 
L 234.981292 278.211604 
L 235.163131 261.705086 
L 235.403419 261.639886 
L 235.754109 234.249467 
L 235.883994 288.279524 
L 236.124282 251.163633 
L 236.637328 202.062635 
L 236.773708 275.992834 
L 236.936064 278.626231 
L 237.091926 290.266276 
L 237.319225 289.196518 
L 237.702387 212.921249 
L 238.221928 215.324561 
L 238.747963 207.64506 
L 239.202561 289.397448 
L 239.572734 226.034741 
L 239.877964 244.218312 
L 240.280608 242.582382 
L 240.468941 260.999575 
L 241.235264 200.395992 
L 241.462563 287.988331 
L 241.741816 246.168907 
L 241.936644 288.393035 
L 242.183426 260.948606 
L 242.436702 246.833099 
L 242.702967 245.970714 
L 242.845841 281.177785 
L 243.170554 233.827364 
L 243.488772 245.103621 
L 243.878428 216.683661 
L 244.164175 259.904793 
L 244.547337 220.266312 
L 244.696705 277.782078 
L 245.170786 188.077202 
L 245.917625 289.301666 
L 246.541074 198.968486 
L 246.742396 259.187342 
L 247.125558 229.703691 
L 247.528202 208.170451 
L 247.969812 204.879575 
L 248.521824 252.810934 
L 248.664697 288.611825 
L 248.846537 262.312557 
L 249.281652 270.282569 
L 249.671308 221.277387 
L 249.749239 288.585848 
L 250.099929 224.531309 
L 250.398665 241.352772 
L 250.645447 287.699067 
L 250.801309 282.279168 
L 250.989642 260.629039 
L 251.087056 288.912746 
L 251.405275 265.351765 
L 252.217058 158.472531 
L 252.743093 195.227749 
L 252.970392 286.391479 
L 253.256139 239.251411 
L 254.347175 194.264514 
L 254.743325 272.540867 
L 255.197923 237.580471 
L 255.652521 191.656728 
L 255.775912 279.927684 
L 256.23051 234.495277 
L 256.53574 235.098255 
L 257.483902 188.019374 
L 257.737178 247.169991 
L 258.126834 235.235859 
L 258.620398 254.066201 
L 259.107467 180.653811 
L 259.730916 199.605503 
L 259.984192 255.324561 
L 260.497239 220.941193 
L 260.750515 248.384683 
L 260.977814 253.017223 
L 261.653217 138.743564 
L 262.133792 255.931687 
L 262.335114 258.923809 
L 262.835172 212.001003 
L 263.296265 265.189932 
L 263.737875 214.291895 
L 264.12753 211.830714 
L 264.56914 223.651322 
L 264.945807 237.785723 
L 265.238049 241.5538 
L 265.380922 288.411873 
L 265.673164 240.40511 
L 266.010866 236.593674 
L 266.484946 199.065831 
L 266.959027 291.335036 
L 268.420236 118.999047 
L 268.738455 234.055433 
L 269.011214 243.268839 
L 269.790525 149.535721 
L 270.128226 244.255085 
L 270.673744 178.202848 
L 270.940009 243.99374 
L 271.498515 161.089808 
L 271.985585 181.275723 
L 272.206389 255.40566 
L 272.823344 179.319949 
L 272.946735 287.174235 
L 273.193517 250.453096 
L 273.803977 198.122549 
L 274.076736 246.311592 
L 274.713174 169.530691 
L 275.102829 234.206752 
L 275.628864 171.121233 
L 275.9276 238.049879 
L 276.395187 210.07011 
L 276.622486 285.761434 
L 276.869268 250.332502 
L 277.414786 196.338418 
L 277.914844 202.799772 
L 278.278522 235.153852 
L 278.56427 239.277719 
L 278.785075 255.038014 
L 279.090305 237.176616 
L 279.531915 201.491374 
L 279.863122 245.572707 
L 280.460594 189.489713 
L 280.876226 225.639949 
L 281.15548 281.473021 
L 281.642549 226.296173 
L 281.902319 248.58848 
L 282.194561 240.321876 
L 282.805022 200.220333 
L 283.506402 245.731899 
L 283.733701 253.308391 
L 284.019448 241.047971 
L 284.318184 237.720346 
L 284.792265 259.109393 
L 285.357266 176.0796 
L 285.727439 226.756933 
L 286.240485 254.984437 
L 286.493761 248.152857 
L 286.779509 243.484825 
L 286.954854 263.268714 
L 287.474394 197.468931 
L 288.669338 78.177736 
L 289.117442 217.775532 
L 289.669454 200.624601 
L 290.078593 215.349062 
L 290.85141 183.628173 
L 291.403422 287.435497 
L 292.007388 184.496727 
L 293.436125 53.568 
L 293.708884 240.296492 
L 294.105034 225.4555 
L 294.299862 259.980625 
L 294.721988 228.104035 
L 294.96877 248.941199 
L 295.31946 240.043601 
L 295.559748 252.419146 
L 296.235151 163.680233 
L 296.657278 201.478897 
L 296.910554 245.157747 
L 297.196301 239.700928 
L 297.501532 237.424251 
L 297.930153 199.209389 
L 298.378257 194.915789 
L 298.728947 233.858588 
L 299.014694 239.702829 
L 299.436821 213.91918 
L 299.858948 264.9984 
L 300.826593 147.95064 
L 301.196766 218.795309 
L 301.716306 194.761507 
L 301.9501 253.236895 
L 302.904756 167.077202 
L 303.222975 233.519857 
L 303.541193 232.63322 
L 304.651712 147.484996 
L 305.01539 220.123637 
L 305.690793 141.048764 
L 306.034989 244.269912 
L 306.606484 178.438773 
L 307.171485 150.653399 
L 307.541657 217.520742 
L 307.859876 233.260545 
L 308.61321 256.051072 
L 309.152234 164.217101 
L 309.334073 262.40499 
L 309.697752 236.899334 
L 309.964016 243.84966 
L 310.158844 260.630952 
L 310.444592 246.580369 
L 311.282351 159.800611 
L 311.938271 150.092914 
L 312.490283 159.407286 
L 313.107238 147.214073 
L 313.315054 257.141332 
L 313.925515 138.283388 
L 314.516493 146.627634 
L 315.289309 149.735807 
L 315.516609 253.728591 
L 315.769885 248.347292 
L 316.328391 189.024375 
L 316.86092 168.220293 
L 317.185633 229.410851 
L 317.510346 232.129752 
L 318.081841 151.285992 
L 318.380577 238.237364 
L 319.478107 88.405392 
L 319.75736 242.769525 
L 320.147016 215.395391 
L 320.387303 249.64141 
L 321.049718 174.493569 
L 321.238052 260.847479 
L 321.705638 186.08997 
L 322.186213 183.986966 
L 322.907076 187.672452 
L 323.361674 261.363918 
L 323.939664 150.693078 
L 324.965757 246.65547 
L 325.426849 255.66005 
L 325.68662 252.106558 
L 326.225643 164.171575 
L 326.543862 239.533621 
L 327.193288 135.163877 
L 327.505012 240.589836 
L 328.00507 175.109531 
L 328.251852 246.881857 
L 328.583059 242.440511 
L 329.070129 188.78107 
L 329.323405 247.701149 
L 329.687084 227.27268 
L 330.297544 142.3229 
L 330.862545 156.99552 
L 331.453522 145.006525 
L 331.888638 197.425376 
L 332.466627 149.065485 
L 333.038122 156.193817 
L 333.635594 150.455459 
L 333.927835 238.853348 
L 334.486342 155.804544 
L 335.064331 149.856581 
L 335.408527 241.596545 
L 335.655308 249.219993 
L 335.915079 247.542341 
L 336.473585 160.708566 
L 336.902206 220.544857 
L 337.908817 105.29708 
L 338.460829 160.660857 
L 339.480427 113.163103 
L 339.675255 258.848864 
L 340.24675 159.868907 
L 340.805257 162.522877 
L 341.415717 141.118769 
L 342.0002 147.706021 
L 342.649626 135.310691 
L 343.136696 182.404892 
L 343.688708 177.981474 
L 344.104341 203.893493 
L 344.695318 148.344264 
L 345.273307 159.87312 
L 345.896756 138.035352 
L 346.364343 194.772246 
L 347.48785 154.001469 
L 347.864517 226.605191 
L 348.442506 155.094785 
L 349.799806 64.683075 
L 350.358313 156.233452 
L 350.910325 162.509575 
L 351.52728 145.379481 
L 352.098774 152.833205 
L 352.702741 139.165916 
L 353.267741 167.460612 
L 353.819753 161.199864 
L 354.358777 169.576392 
L 354.910789 160.745718 
L 355.488778 153.283007 
L 356.066767 156.347939 
L 356.722687 134.309414 
L 357.261711 166.382394 
L 358.216367 121.282273 
L 358.833322 141.5117 
L 359.054127 254.997129 
L 359.645104 147.08048 
L 360.242576 143.551474 
L 360.846542 156.950088 
L 361.047865 258.430758 
L 361.612865 156.276452 
L 362.171372 170.790839 
L 362.749361 151.183105 
L 363.379304 151.962717 
L 364.035224 148.337613 
L 364.600225 155.729239 
L 365.204191 159.175099 
L 365.795169 154.649889 
L 366.4381 133.292009 
L 367.659021 140.790434 
L 368.061665 213.481508 
L 368.672126 159.907644 
L 369.263103 152.739729 
L 369.932012 155.716485 
L 370.510001 153.228231 
L 371.159427 142.066439 
L 371.730922 153.149429 
L 372.347877 156.703147 
L 372.912877 163.028287 
L 373.516844 149.526413 
L 374.094833 156.492307 
L 374.523454 228.329537 
L 375.088454 168.189419 
L 375.400179 233.962577 
L 375.900237 184.783609 
L 376.465237 169.831116 
L 377.01725 171.190457 
L 377.595239 159.020795 
L 378.166734 151.779582 
L 378.757711 148.505431 
L 379.329206 167.098147 
L 379.744839 212.519996 
L 380.381276 149.037174 
L 381.030702 164.355622 
L 381.602197 151.441056 
L 382.238635 145.026762 
L 382.842601 156.343252 
L 383.063406 253.87015 
L 383.667372 150.341775 
L 384.284326 147.943194 
L 385.024672 133.887186 
L 385.576684 171.183419 
L 386.154673 165.760591 
L 386.726168 162.328814 
L 387.297663 162.08783 
L 387.882146 150.805893 
L 388.427664 174.155284 
L 389.07709 154.1329 
L 389.635597 160.553582 
L 390.226574 152.954942 
L 390.869506 142.725227 
L 391.434507 165.832246 
L 392.213818 129.016171 
L 392.785313 156.990293 
L 393.369796 151.70016 
L 393.369796 151.70016 
" clip-path="url(#p84a69cd956)" style="fill: none; stroke: #2ca02c; stroke-width: 1.5; stroke-linecap: square"/>
   </g>
   <g id="patch_3">
    <path d="M 57.6 307.584 
L 57.6 41.472 
" style="fill: none; stroke: #000000; stroke-width: 0.8; stroke-linejoin: miter; stroke-linecap: square"/>
   </g>
   <g id="patch_4">
    <path d="M 414.72 307.584 
L 414.72 41.472 
" style="fill: none; stroke: #000000; stroke-width: 0.8; stroke-linejoin: miter; stroke-linecap: square"/>
   </g>
   <g id="patch_5">
    <path d="M 57.6 307.584 
L 414.72 307.584 
" style="fill: none; stroke: #000000; stroke-width: 0.8; stroke-linejoin: miter; stroke-linecap: square"/>
   </g>
   <g id="patch_6">
    <path d="M 57.6 41.472 
L 414.72 41.472 
" style="fill: none; stroke: #000000; stroke-width: 0.8; stroke-linejoin: miter; stroke-linecap: square"/>
   </g>
   <g id="text_16">
    <!-- learning curve -->
    <g transform="translate(192.96375 35.472) scale(0.12 -0.12)">
     <defs>
      <path id="DejaVuSans-6c" d="M 603 4863 
L 1178 4863 
L 1178 0 
L 603 0 
L 603 4863 
z
" transform="scale(0.015625)"/>
      <path id="DejaVuSans-67" d="M 2906 1791 
Q 2906 2416 2648 2759 
Q 2391 3103 1925 3103 
Q 1463 3103 1205 2759 
Q 947 2416 947 1791 
Q 947 1169 1205 825 
Q 1463 481 1925 481 
Q 2391 481 2648 825 
Q 2906 1169 2906 1791 
z
M 3481 434 
Q 3481 -459 3084 -895 
Q 2688 -1331 1869 -1331 
Q 1566 -1331 1297 -1286 
Q 1028 -1241 775 -1147 
L 775 -588 
Q 1028 -725 1275 -790 
Q 1522 -856 1778 -856 
Q 2344 -856 2625 -561 
Q 2906 -266 2906 331 
L 2906 616 
Q 2728 306 2450 153 
Q 2172 0 1784 0 
Q 1141 0 747 490 
Q 353 981 353 1791 
Q 353 2603 747 3093 
Q 1141 3584 1784 3584 
Q 2172 3584 2450 3431 
Q 2728 3278 2906 2969 
L 2906 3500 
L 3481 3500 
L 3481 434 
z
" transform="scale(0.015625)"/>
      <path id="DejaVuSans-63" d="M 3122 3366 
L 3122 2828 
Q 2878 2963 2633 3030 
Q 2388 3097 2138 3097 
Q 1578 3097 1268 2742 
Q 959 2388 959 1747 
Q 959 1106 1268 751 
Q 1578 397 2138 397 
Q 2388 397 2633 464 
Q 2878 531 3122 666 
L 3122 134 
Q 2881 22 2623 -34 
Q 2366 -91 2075 -91 
Q 1284 -91 818 406 
Q 353 903 353 1747 
Q 353 2603 823 3093 
Q 1294 3584 2113 3584 
Q 2378 3584 2631 3529 
Q 2884 3475 3122 3366 
z
" transform="scale(0.015625)"/>
      <path id="DejaVuSans-75" d="M 544 1381 
L 544 3500 
L 1119 3500 
L 1119 1403 
Q 1119 906 1312 657 
Q 1506 409 1894 409 
Q 2359 409 2629 706 
Q 2900 1003 2900 1516 
L 2900 3500 
L 3475 3500 
L 3475 0 
L 2900 0 
L 2900 538 
Q 2691 219 2414 64 
Q 2138 -91 1772 -91 
Q 1169 -91 856 284 
Q 544 659 544 1381 
z
M 1991 3584 
L 1991 3584 
z
" transform="scale(0.015625)"/>
      <path id="DejaVuSans-76" d="M 191 3500 
L 800 3500 
L 1894 563 
L 2988 3500 
L 3597 3500 
L 2284 0 
L 1503 0 
L 191 3500 
z
" transform="scale(0.015625)"/>
     </defs>
     <use xlink:href="#DejaVuSans-6c"/>
     <use xlink:href="#DejaVuSans-65" x="27.783203"/>
     <use xlink:href="#DejaVuSans-61" x="89.306641"/>
     <use xlink:href="#DejaVuSans-72" x="150.585938"/>
     <use xlink:href="#DejaVuSans-6e" x="189.949219"/>
     <use xlink:href="#DejaVuSans-69" x="253.328125"/>
     <use xlink:href="#DejaVuSans-6e" x="281.111328"/>
     <use xlink:href="#DejaVuSans-67" x="344.490234"/>
     <use xlink:href="#DejaVuSans-20" x="407.966797"/>
     <use xlink:href="#DejaVuSans-63" x="439.753906"/>
     <use xlink:href="#DejaVuSans-75" x="494.734375"/>
     <use xlink:href="#DejaVuSans-72" x="558.113281"/>
     <use xlink:href="#DejaVuSans-76" x="599.226562"/>
     <use xlink:href="#DejaVuSans-65" x="658.40625"/>
    </g>
   </g>
   <g id="legend_1">
    <g id="patch_7">
     <path d="M 64.6 93.506375 
L 166.614062 93.506375 
Q 168.614062 93.506375 168.614062 91.506375 
L 168.614062 48.472 
Q 168.614062 46.472 166.614062 46.472 
L 64.6 46.472 
Q 62.6 46.472 62.6 48.472 
L 62.6 91.506375 
Q 62.6 93.506375 64.6 93.506375 
z
" style="fill: #ffffff; opacity: 0.8; stroke: #cccccc; stroke-linejoin: miter"/>
    </g>
    <g id="line2d_17">
     <path d="M 66.6 54.570438 
L 76.6 54.570438 
L 86.6 54.570438 
" style="fill: none; stroke: #1f77b4; stroke-width: 1.5; stroke-linecap: square"/>
    </g>
    <g id="text_17">
     <!-- source-source -->
     <g transform="translate(94.6 58.070438) scale(0.1 -0.1)">
      <defs>
       <path id="DejaVuSans-2d" d="M 313 2009 
L 1997 2009 
L 1997 1497 
L 313 1497 
L 313 2009 
z
" transform="scale(0.015625)"/>
      </defs>
      <use xlink:href="#DejaVuSans-73"/>
      <use xlink:href="#DejaVuSans-6f" x="52.099609"/>
      <use xlink:href="#DejaVuSans-75" x="113.28125"/>
      <use xlink:href="#DejaVuSans-72" x="176.660156"/>
      <use xlink:href="#DejaVuSans-63" x="215.523438"/>
      <use xlink:href="#DejaVuSans-65" x="270.503906"/>
      <use xlink:href="#DejaVuSans-2d" x="332.027344"/>
      <use xlink:href="#DejaVuSans-73" x="368.111328"/>
      <use xlink:href="#DejaVuSans-6f" x="420.210938"/>
      <use xlink:href="#DejaVuSans-75" x="481.392578"/>
      <use xlink:href="#DejaVuSans-72" x="544.771484"/>
      <use xlink:href="#DejaVuSans-63" x="583.634766"/>
      <use xlink:href="#DejaVuSans-65" x="638.615234"/>
     </g>
    </g>
    <g id="line2d_18">
     <path d="M 66.6 69.248563 
L 76.6 69.248563 
L 86.6 69.248563 
" style="fill: none; stroke: #ff7f0e; stroke-width: 1.5; stroke-linecap: square"/>
    </g>
    <g id="text_18">
     <!-- source-target -->
     <g transform="translate(94.6 72.748563) scale(0.1 -0.1)">
      <use xlink:href="#DejaVuSans-73"/>
      <use xlink:href="#DejaVuSans-6f" x="52.099609"/>
      <use xlink:href="#DejaVuSans-75" x="113.28125"/>
      <use xlink:href="#DejaVuSans-72" x="176.660156"/>
      <use xlink:href="#DejaVuSans-63" x="215.523438"/>
      <use xlink:href="#DejaVuSans-65" x="270.503906"/>
      <use xlink:href="#DejaVuSans-2d" x="332.027344"/>
      <use xlink:href="#DejaVuSans-74" x="368.111328"/>
      <use xlink:href="#DejaVuSans-61" x="407.320312"/>
      <use xlink:href="#DejaVuSans-72" x="468.599609"/>
      <use xlink:href="#DejaVuSans-67" x="507.962891"/>
      <use xlink:href="#DejaVuSans-65" x="571.439453"/>
      <use xlink:href="#DejaVuSans-74" x="632.962891"/>
     </g>
    </g>
    <g id="line2d_19">
     <path d="M 66.6 83.926688 
L 76.6 83.926688 
L 86.6 83.926688 
" style="fill: none; stroke: #2ca02c; stroke-width: 1.5; stroke-linecap: square"/>
    </g>
    <g id="text_19">
     <!-- target-target -->
     <g transform="translate(94.6 87.426688) scale(0.1 -0.1)">
      <use xlink:href="#DejaVuSans-74"/>
      <use xlink:href="#DejaVuSans-61" x="39.208984"/>
      <use xlink:href="#DejaVuSans-72" x="100.488281"/>
      <use xlink:href="#DejaVuSans-67" x="139.851562"/>
      <use xlink:href="#DejaVuSans-65" x="203.328125"/>
      <use xlink:href="#DejaVuSans-74" x="264.851562"/>
      <use xlink:href="#DejaVuSans-2d" x="304.060547"/>
      <use xlink:href="#DejaVuSans-74" x="340.144531"/>
      <use xlink:href="#DejaVuSans-61" x="379.353516"/>
      <use xlink:href="#DejaVuSans-72" x="440.632812"/>
      <use xlink:href="#DejaVuSans-67" x="479.996094"/>
      <use xlink:href="#DejaVuSans-65" x="543.472656"/>
      <use xlink:href="#DejaVuSans-74" x="604.996094"/>
     </g>
    </g>
   </g>
  </g>
 </g>
 <defs>
  <clipPath id="p84a69cd956">
   <rect x="57.6" y="41.472" width="357.12" height="266.112"/>
  </clipPath>
 </defs>
</svg>
