<?xml version="1.0" encoding="utf-8" standalone="no"?>
<!DOCTYPE svg PUBLIC "-//W3C//DTD SVG 1.1//EN"
  "http://www.w3.org/Graphics/SVG/1.1/DTD/svg11.dtd">
<svg xmlns:xlink="http://www.w3.org/1999/xlink" width="460.8pt" height="345.6pt" viewBox="0 0 460.8 345.6" xmlns="http://www.w3.org/2000/svg" version="1.1">
 <metadata>
  <rdf:RDF xmlns:dc="http://purl.org/dc/elements/1.1/" xmlns:cc="http://creativecommons.org/ns#" xmlns:rdf="http://www.w3.org/1999/02/22-rdf-syntax-ns#">
   <cc:Work>
    <dc:type rdf:resource="http://purl.org/dc/dcmitype/StillImage"/>
    <dc:date>2023-08-18T16:34:06.231226</dc:date>
    <dc:format>image/svg+xml</dc:format>
    <dc:creator>
     <cc:Agent>
      <dc:title>Matplotlib v3.7.1, https://matplotlib.org/</dc:title>
     </cc:Agent>
    </dc:creator>
   </cc:Work>
  </rdf:RDF>
 </metadata>
 <defs>
  <style type="text/css">*{stroke-linejoin: round; stroke-linecap: butt}</style>
 </defs>
 <g id="figure_1">
  <g id="patch_1">
   <path d="M 0 345.6 
L 460.8 345.6 
L 460.8 0 
L 0 0 
z
" style="fill: #ffffff"/>
  </g>
  <g id="axes_1">
   <g id="patch_2">
    <path d="M 57.6 307.584 
L 414.72 307.584 
L 414.72 41.472 
L 57.6 41.472 
z
" style="fill: #ffffff"/>
   </g>
   <g id="matplotlib.axis_1">
    <g id="xtick_1">
     <g id="line2d_1">
      <defs>
       <path id="m808ea4d839" d="M 0 0 
L 0 3.5 
" style="stroke: #000000; stroke-width: 0.8"/>
      </defs>
      <g>
       <use xlink:href="#m808ea4d839" x="73.773481" y="307.584" style="stroke: #000000; stroke-width: 0.8"/>
      </g>
     </g>
     <g id="text_1">
      <!-- 0 -->
      <g transform="translate(70.592231 322.182437) scale(0.1 -0.1)">
       <defs>
        <path id="DejaVuSans-30" d="M 2034 4250 
Q 1547 4250 1301 3770 
Q 1056 3291 1056 2328 
Q 1056 1369 1301 889 
Q 1547 409 2034 409 
Q 2525 409 2770 889 
Q 3016 1369 3016 2328 
Q 3016 3291 2770 3770 
Q 2525 4250 2034 4250 
z
M 2034 4750 
Q 2819 4750 3233 4129 
Q 3647 3509 3647 2328 
Q 3647 1150 3233 529 
Q 2819 -91 2034 -91 
Q 1250 -91 836 529 
Q 422 1150 422 2328 
Q 422 3509 836 4129 
Q 1250 4750 2034 4750 
z
" transform="scale(0.015625)"/>
       </defs>
       <use xlink:href="#DejaVuSans-30"/>
      </g>
     </g>
    </g>
    <g id="xtick_2">
     <g id="line2d_2">
      <g>
       <use xlink:href="#m808ea4d839" x="139.602295" y="307.584" style="stroke: #000000; stroke-width: 0.8"/>
      </g>
     </g>
     <g id="text_2">
      <!-- 10000 -->
      <g transform="translate(123.696045 322.182437) scale(0.1 -0.1)">
       <defs>
        <path id="DejaVuSans-31" d="M 794 531 
L 1825 531 
L 1825 4091 
L 703 3866 
L 703 4441 
L 1819 4666 
L 2450 4666 
L 2450 531 
L 3481 531 
L 3481 0 
L 794 0 
L 794 531 
z
" transform="scale(0.015625)"/>
       </defs>
       <use xlink:href="#DejaVuSans-31"/>
       <use xlink:href="#DejaVuSans-30" x="63.623047"/>
       <use xlink:href="#DejaVuSans-30" x="127.246094"/>
       <use xlink:href="#DejaVuSans-30" x="190.869141"/>
       <use xlink:href="#DejaVuSans-30" x="254.492188"/>
      </g>
     </g>
    </g>
    <g id="xtick_3">
     <g id="line2d_3">
      <g>
       <use xlink:href="#m808ea4d839" x="205.43111" y="307.584" style="stroke: #000000; stroke-width: 0.8"/>
      </g>
     </g>
     <g id="text_3">
      <!-- 20000 -->
      <g transform="translate(189.52486 322.182437) scale(0.1 -0.1)">
       <defs>
        <path id="DejaVuSans-32" d="M 1228 531 
L 3431 531 
L 3431 0 
L 469 0 
L 469 531 
Q 828 903 1448 1529 
Q 2069 2156 2228 2338 
Q 2531 2678 2651 2914 
Q 2772 3150 2772 3378 
Q 2772 3750 2511 3984 
Q 2250 4219 1831 4219 
Q 1534 4219 1204 4116 
Q 875 4013 500 3803 
L 500 4441 
Q 881 4594 1212 4672 
Q 1544 4750 1819 4750 
Q 2544 4750 2975 4387 
Q 3406 4025 3406 3419 
Q 3406 3131 3298 2873 
Q 3191 2616 2906 2266 
Q 2828 2175 2409 1742 
Q 1991 1309 1228 531 
z
" transform="scale(0.015625)"/>
       </defs>
       <use xlink:href="#DejaVuSans-32"/>
       <use xlink:href="#DejaVuSans-30" x="63.623047"/>
       <use xlink:href="#DejaVuSans-30" x="127.246094"/>
       <use xlink:href="#DejaVuSans-30" x="190.869141"/>
       <use xlink:href="#DejaVuSans-30" x="254.492188"/>
      </g>
     </g>
    </g>
    <g id="xtick_4">
     <g id="line2d_4">
      <g>
       <use xlink:href="#m808ea4d839" x="271.259924" y="307.584" style="stroke: #000000; stroke-width: 0.8"/>
      </g>
     </g>
     <g id="text_4">
      <!-- 30000 -->
      <g transform="translate(255.353674 322.182437) scale(0.1 -0.1)">
       <defs>
        <path id="DejaVuSans-33" d="M 2597 2516 
Q 3050 2419 3304 2112 
Q 3559 1806 3559 1356 
Q 3559 666 3084 287 
Q 2609 -91 1734 -91 
Q 1441 -91 1130 -33 
Q 819 25 488 141 
L 488 750 
Q 750 597 1062 519 
Q 1375 441 1716 441 
Q 2309 441 2620 675 
Q 2931 909 2931 1356 
Q 2931 1769 2642 2001 
Q 2353 2234 1838 2234 
L 1294 2234 
L 1294 2753 
L 1863 2753 
Q 2328 2753 2575 2939 
Q 2822 3125 2822 3475 
Q 2822 3834 2567 4026 
Q 2313 4219 1838 4219 
Q 1578 4219 1281 4162 
Q 984 4106 628 3988 
L 628 4550 
Q 988 4650 1302 4700 
Q 1616 4750 1894 4750 
Q 2613 4750 3031 4423 
Q 3450 4097 3450 3541 
Q 3450 3153 3228 2886 
Q 3006 2619 2597 2516 
z
" transform="scale(0.015625)"/>
       </defs>
       <use xlink:href="#DejaVuSans-33"/>
       <use xlink:href="#DejaVuSans-30" x="63.623047"/>
       <use xlink:href="#DejaVuSans-30" x="127.246094"/>
       <use xlink:href="#DejaVuSans-30" x="190.869141"/>
       <use xlink:href="#DejaVuSans-30" x="254.492188"/>
      </g>
     </g>
    </g>
    <g id="xtick_5">
     <g id="line2d_5">
      <g>
       <use xlink:href="#m808ea4d839" x="337.088738" y="307.584" style="stroke: #000000; stroke-width: 0.8"/>
      </g>
     </g>
     <g id="text_5">
      <!-- 40000 -->
      <g transform="translate(321.182488 322.182437) scale(0.1 -0.1)">
       <defs>
        <path id="DejaVuSans-34" d="M 2419 4116 
L 825 1625 
L 2419 1625 
L 2419 4116 
z
M 2253 4666 
L 3047 4666 
L 3047 1625 
L 3713 1625 
L 3713 1100 
L 3047 1100 
L 3047 0 
L 2419 0 
L 2419 1100 
L 313 1100 
L 313 1709 
L 2253 4666 
z
" transform="scale(0.015625)"/>
       </defs>
       <use xlink:href="#DejaVuSans-34"/>
       <use xlink:href="#DejaVuSans-30" x="63.623047"/>
       <use xlink:href="#DejaVuSans-30" x="127.246094"/>
       <use xlink:href="#DejaVuSans-30" x="190.869141"/>
       <use xlink:href="#DejaVuSans-30" x="254.492188"/>
      </g>
     </g>
    </g>
    <g id="xtick_6">
     <g id="line2d_6">
      <g>
       <use xlink:href="#m808ea4d839" x="402.917552" y="307.584" style="stroke: #000000; stroke-width: 0.8"/>
      </g>
     </g>
     <g id="text_6">
      <!-- 50000 -->
      <g transform="translate(387.011302 322.182437) scale(0.1 -0.1)">
       <defs>
        <path id="DejaVuSans-35" d="M 691 4666 
L 3169 4666 
L 3169 4134 
L 1269 4134 
L 1269 2991 
Q 1406 3038 1543 3061 
Q 1681 3084 1819 3084 
Q 2600 3084 3056 2656 
Q 3513 2228 3513 1497 
Q 3513 744 3044 326 
Q 2575 -91 1722 -91 
Q 1428 -91 1123 -41 
Q 819 9 494 109 
L 494 744 
Q 775 591 1075 516 
Q 1375 441 1709 441 
Q 2250 441 2565 725 
Q 2881 1009 2881 1497 
Q 2881 1984 2565 2268 
Q 2250 2553 1709 2553 
Q 1456 2553 1204 2497 
Q 953 2441 691 2322 
L 691 4666 
z
" transform="scale(0.015625)"/>
       </defs>
       <use xlink:href="#DejaVuSans-35"/>
       <use xlink:href="#DejaVuSans-30" x="63.623047"/>
       <use xlink:href="#DejaVuSans-30" x="127.246094"/>
       <use xlink:href="#DejaVuSans-30" x="190.869141"/>
       <use xlink:href="#DejaVuSans-30" x="254.492188"/>
      </g>
     </g>
    </g>
    <g id="text_7">
     <!-- timesteps -->
     <g transform="translate(211.443594 335.860562) scale(0.1 -0.1)">
      <defs>
       <path id="DejaVuSans-74" d="M 1172 4494 
L 1172 3500 
L 2356 3500 
L 2356 3053 
L 1172 3053 
L 1172 1153 
Q 1172 725 1289 603 
Q 1406 481 1766 481 
L 2356 481 
L 2356 0 
L 1766 0 
Q 1100 0 847 248 
Q 594 497 594 1153 
L 594 3053 
L 172 3053 
L 172 3500 
L 594 3500 
L 594 4494 
L 1172 4494 
z
" transform="scale(0.015625)"/>
       <path id="DejaVuSans-69" d="M 603 3500 
L 1178 3500 
L 1178 0 
L 603 0 
L 603 3500 
z
M 603 4863 
L 1178 4863 
L 1178 4134 
L 603 4134 
L 603 4863 
z
" transform="scale(0.015625)"/>
       <path id="DejaVuSans-6d" d="M 3328 2828 
Q 3544 3216 3844 3400 
Q 4144 3584 4550 3584 
Q 5097 3584 5394 3201 
Q 5691 2819 5691 2113 
L 5691 0 
L 5113 0 
L 5113 2094 
Q 5113 2597 4934 2840 
Q 4756 3084 4391 3084 
Q 3944 3084 3684 2787 
Q 3425 2491 3425 1978 
L 3425 0 
L 2847 0 
L 2847 2094 
Q 2847 2600 2669 2842 
Q 2491 3084 2119 3084 
Q 1678 3084 1418 2786 
Q 1159 2488 1159 1978 
L 1159 0 
L 581 0 
L 581 3500 
L 1159 3500 
L 1159 2956 
Q 1356 3278 1631 3431 
Q 1906 3584 2284 3584 
Q 2666 3584 2933 3390 
Q 3200 3197 3328 2828 
z
" transform="scale(0.015625)"/>
       <path id="DejaVuSans-65" d="M 3597 1894 
L 3597 1613 
L 953 1613 
Q 991 1019 1311 708 
Q 1631 397 2203 397 
Q 2534 397 2845 478 
Q 3156 559 3463 722 
L 3463 178 
Q 3153 47 2828 -22 
Q 2503 -91 2169 -91 
Q 1331 -91 842 396 
Q 353 884 353 1716 
Q 353 2575 817 3079 
Q 1281 3584 2069 3584 
Q 2775 3584 3186 3129 
Q 3597 2675 3597 1894 
z
M 3022 2063 
Q 3016 2534 2758 2815 
Q 2500 3097 2075 3097 
Q 1594 3097 1305 2825 
Q 1016 2553 972 2059 
L 3022 2063 
z
" transform="scale(0.015625)"/>
       <path id="DejaVuSans-73" d="M 2834 3397 
L 2834 2853 
Q 2591 2978 2328 3040 
Q 2066 3103 1784 3103 
Q 1356 3103 1142 2972 
Q 928 2841 928 2578 
Q 928 2378 1081 2264 
Q 1234 2150 1697 2047 
L 1894 2003 
Q 2506 1872 2764 1633 
Q 3022 1394 3022 966 
Q 3022 478 2636 193 
Q 2250 -91 1575 -91 
Q 1294 -91 989 -36 
Q 684 19 347 128 
L 347 722 
Q 666 556 975 473 
Q 1284 391 1588 391 
Q 1994 391 2212 530 
Q 2431 669 2431 922 
Q 2431 1156 2273 1281 
Q 2116 1406 1581 1522 
L 1381 1569 
Q 847 1681 609 1914 
Q 372 2147 372 2553 
Q 372 3047 722 3315 
Q 1072 3584 1716 3584 
Q 2034 3584 2315 3537 
Q 2597 3491 2834 3397 
z
" transform="scale(0.015625)"/>
       <path id="DejaVuSans-70" d="M 1159 525 
L 1159 -1331 
L 581 -1331 
L 581 3500 
L 1159 3500 
L 1159 2969 
Q 1341 3281 1617 3432 
Q 1894 3584 2278 3584 
Q 2916 3584 3314 3078 
Q 3713 2572 3713 1747 
Q 3713 922 3314 415 
Q 2916 -91 2278 -91 
Q 1894 -91 1617 61 
Q 1341 213 1159 525 
z
M 3116 1747 
Q 3116 2381 2855 2742 
Q 2594 3103 2138 3103 
Q 1681 3103 1420 2742 
Q 1159 2381 1159 1747 
Q 1159 1113 1420 752 
Q 1681 391 2138 391 
Q 2594 391 2855 752 
Q 3116 1113 3116 1747 
z
" transform="scale(0.015625)"/>
      </defs>
      <use xlink:href="#DejaVuSans-74"/>
      <use xlink:href="#DejaVuSans-69" x="39.208984"/>
      <use xlink:href="#DejaVuSans-6d" x="66.992188"/>
      <use xlink:href="#DejaVuSans-65" x="164.404297"/>
      <use xlink:href="#DejaVuSans-73" x="225.927734"/>
      <use xlink:href="#DejaVuSans-74" x="278.027344"/>
      <use xlink:href="#DejaVuSans-65" x="317.236328"/>
      <use xlink:href="#DejaVuSans-70" x="378.759766"/>
      <use xlink:href="#DejaVuSans-73" x="442.236328"/>
     </g>
    </g>
   </g>
   <g id="matplotlib.axis_2">
    <g id="ytick_1">
     <g id="line2d_7">
      <defs>
       <path id="mf4c430d98e" d="M 0 0 
L -3.5 0 
" style="stroke: #000000; stroke-width: 0.8"/>
      </defs>
      <g>
       <use xlink:href="#mf4c430d98e" x="57.6" y="296.543067" style="stroke: #000000; stroke-width: 0.8"/>
      </g>
     </g>
     <g id="text_8">
      <!-- 0 -->
      <g transform="translate(44.2375 300.342286) scale(0.1 -0.1)">
       <use xlink:href="#DejaVuSans-30"/>
      </g>
     </g>
    </g>
    <g id="ytick_2">
     <g id="line2d_8">
      <g>
       <use xlink:href="#mf4c430d98e" x="57.6" y="249.770779" style="stroke: #000000; stroke-width: 0.8"/>
      </g>
     </g>
     <g id="text_9">
      <!-- 50 -->
      <g transform="translate(37.875 253.569998) scale(0.1 -0.1)">
       <use xlink:href="#DejaVuSans-35"/>
       <use xlink:href="#DejaVuSans-30" x="63.623047"/>
      </g>
     </g>
    </g>
    <g id="ytick_3">
     <g id="line2d_9">
      <g>
       <use xlink:href="#mf4c430d98e" x="57.6" y="202.998491" style="stroke: #000000; stroke-width: 0.8"/>
      </g>
     </g>
     <g id="text_10">
      <!-- 100 -->
      <g transform="translate(31.5125 206.79771) scale(0.1 -0.1)">
       <use xlink:href="#DejaVuSans-31"/>
       <use xlink:href="#DejaVuSans-30" x="63.623047"/>
       <use xlink:href="#DejaVuSans-30" x="127.246094"/>
      </g>
     </g>
    </g>
    <g id="ytick_4">
     <g id="line2d_10">
      <g>
       <use xlink:href="#mf4c430d98e" x="57.6" y="156.226203" style="stroke: #000000; stroke-width: 0.8"/>
      </g>
     </g>
     <g id="text_11">
      <!-- 150 -->
      <g transform="translate(31.5125 160.025422) scale(0.1 -0.1)">
       <use xlink:href="#DejaVuSans-31"/>
       <use xlink:href="#DejaVuSans-35" x="63.623047"/>
       <use xlink:href="#DejaVuSans-30" x="127.246094"/>
      </g>
     </g>
    </g>
    <g id="ytick_5">
     <g id="line2d_11">
      <g>
       <use xlink:href="#mf4c430d98e" x="57.6" y="109.453915" style="stroke: #000000; stroke-width: 0.8"/>
      </g>
     </g>
     <g id="text_12">
      <!-- 200 -->
      <g transform="translate(31.5125 113.253134) scale(0.1 -0.1)">
       <use xlink:href="#DejaVuSans-32"/>
       <use xlink:href="#DejaVuSans-30" x="63.623047"/>
       <use xlink:href="#DejaVuSans-30" x="127.246094"/>
      </g>
     </g>
    </g>
    <g id="ytick_6">
     <g id="line2d_12">
      <g>
       <use xlink:href="#mf4c430d98e" x="57.6" y="62.681627" style="stroke: #000000; stroke-width: 0.8"/>
      </g>
     </g>
     <g id="text_13">
      <!-- 250 -->
      <g transform="translate(31.5125 66.480846) scale(0.1 -0.1)">
       <use xlink:href="#DejaVuSans-32"/>
       <use xlink:href="#DejaVuSans-35" x="63.623047"/>
       <use xlink:href="#DejaVuSans-30" x="127.246094"/>
      </g>
     </g>
    </g>
    <g id="text_14">
     <!-- rewards -->
     <g transform="translate(25.432812 194.447531) rotate(-90) scale(0.1 -0.1)">
      <defs>
       <path id="DejaVuSans-72" d="M 2631 2963 
Q 2534 3019 2420 3045 
Q 2306 3072 2169 3072 
Q 1681 3072 1420 2755 
Q 1159 2438 1159 1844 
L 1159 0 
L 581 0 
L 581 3500 
L 1159 3500 
L 1159 2956 
Q 1341 3275 1631 3429 
Q 1922 3584 2338 3584 
Q 2397 3584 2469 3576 
Q 2541 3569 2628 3553 
L 2631 2963 
z
" transform="scale(0.015625)"/>
       <path id="DejaVuSans-77" d="M 269 3500 
L 844 3500 
L 1563 769 
L 2278 3500 
L 2956 3500 
L 3675 769 
L 4391 3500 
L 4966 3500 
L 4050 0 
L 3372 0 
L 2619 2869 
L 1863 0 
L 1184 0 
L 269 3500 
z
" transform="scale(0.015625)"/>
       <path id="DejaVuSans-61" d="M 2194 1759 
Q 1497 1759 1228 1600 
Q 959 1441 959 1056 
Q 959 750 1161 570 
Q 1363 391 1709 391 
Q 2188 391 2477 730 
Q 2766 1069 2766 1631 
L 2766 1759 
L 2194 1759 
z
M 3341 1997 
L 3341 0 
L 2766 0 
L 2766 531 
Q 2569 213 2275 61 
Q 1981 -91 1556 -91 
Q 1019 -91 701 211 
Q 384 513 384 1019 
Q 384 1609 779 1909 
Q 1175 2209 1959 2209 
L 2766 2209 
L 2766 2266 
Q 2766 2663 2505 2880 
Q 2244 3097 1772 3097 
Q 1472 3097 1187 3025 
Q 903 2953 641 2809 
L 641 3341 
Q 956 3463 1253 3523 
Q 1550 3584 1831 3584 
Q 2591 3584 2966 3190 
Q 3341 2797 3341 1997 
z
" transform="scale(0.015625)"/>
       <path id="DejaVuSans-64" d="M 2906 2969 
L 2906 4863 
L 3481 4863 
L 3481 0 
L 2906 0 
L 2906 525 
Q 2725 213 2448 61 
Q 2172 -91 1784 -91 
Q 1150 -91 751 415 
Q 353 922 353 1747 
Q 353 2572 751 3078 
Q 1150 3584 1784 3584 
Q 2172 3584 2448 3432 
Q 2725 3281 2906 2969 
z
M 947 1747 
Q 947 1113 1208 752 
Q 1469 391 1925 391 
Q 2381 391 2643 752 
Q 2906 1113 2906 1747 
Q 2906 2381 2643 2742 
Q 2381 3103 1925 3103 
Q 1469 3103 1208 2742 
Q 947 2381 947 1747 
z
" transform="scale(0.015625)"/>
      </defs>
      <use xlink:href="#DejaVuSans-72"/>
      <use xlink:href="#DejaVuSans-65" x="38.863281"/>
      <use xlink:href="#DejaVuSans-77" x="100.386719"/>
      <use xlink:href="#DejaVuSans-61" x="182.173828"/>
      <use xlink:href="#DejaVuSans-72" x="243.453125"/>
      <use xlink:href="#DejaVuSans-64" x="282.816406"/>
      <use xlink:href="#DejaVuSans-73" x="346.292969"/>
     </g>
    </g>
   </g>
   <g id="line2d_13">
    <path d="M 73.832727 292.187576 
L 73.911722 287.55992 
L 74.082877 291.136132 
L 74.175037 289.860957 
L 74.27378 286.813641 
L 74.379106 288.463025 
L 74.504181 279.768881 
L 74.892571 286.288972 
L 75.030812 277.400542 
L 75.182218 277.568034 
L 75.452116 282.91133 
L 75.616688 281.059373 
L 75.675934 291.129424 
L 75.873421 287.698995 
L 75.978747 290.280276 
L 76.090656 285.348323 
L 76.255228 289.650294 
L 76.472463 255.605052 
L 76.584372 284.976352 
L 76.716029 281.059984 
L 76.775275 289.779105 
L 76.999093 281.503504 
L 77.229494 280.48463 
L 77.321654 290.055217 
L 77.394066 288.566112 
L 77.499392 284.645952 
L 77.67713 267.165318 
L 77.874616 260.333483 
L 77.933862 291.317301 
L 78.078686 275.856648 
L 78.177429 285.064359 
L 78.263006 284.9908 
L 78.368333 281.834427 
L 78.572402 289.969656 
L 78.677728 289.860177 
L 78.914712 277.890118 
L 78.980541 289.835021 
L 79.151695 272.576604 
L 79.270187 285.411444 
L 79.474257 277.573495 
L 79.829732 206.043315 
L 80.066716 286.085619 
L 80.172042 281.691714 
L 80.251037 289.387065 
L 80.382694 278.467786 
L 80.553849 289.606408 
L 80.771084 285.457806 
L 80.836913 289.45752 
L 80.994902 284.984976 
L 81.12656 288.560923 
L 81.547864 257.998034 
L 81.679522 294.299555 
L 81.883591 255.925124 
L 82.146906 289.433214 
L 82.258815 289.133275 
L 82.331227 290.901703 
L 82.548462 277.807445 
L 82.857858 290.55226 
L 83.088259 282.998537 
L 83.252831 287.84285 
L 83.608306 277.763224 
L 83.707049 289.868327 
L 83.779461 288.786186 
L 83.897953 287.646172 
L 83.944033 292.17769 
L 84.404835 267.559199 
L 84.464081 290.251521 
L 84.661567 284.944431 
L 84.766893 283.241328 
L 85.109203 258.103578 
L 85.207946 288.072885 
L 85.372518 284.578705 
L 85.451513 288.861238 
L 85.570005 282.388634 
L 85.675331 291.685953 
L 86.26779 249.510679 
L 86.432362 280.203912 
L 86.774672 230.766067 
L 86.912913 275.913065 
L 87.176228 282.288035 
L 87.465875 253.194593 
L 87.564618 288.457313 
L 87.68311 279.588075 
L 87.77527 292.296233 
L 87.847682 290.247385 
L 88.064917 273.206577 
L 88.137329 290.334589 
L 88.229489 286.720486 
L 88.321649 286.556104 
L 88.440141 287.218409 
L 88.50597 290.321256 
L 88.591547 286.462941 
L 88.683708 287.953508 
L 88.808782 287.306534 
L 89.006269 287.685228 
L 89.157675 278.661296 
L 89.269584 287.823737 
L 89.394659 288.67707 
L 89.585562 281.486544 
L 89.67114 290.042126 
L 89.973952 254.005204 
L 90.046364 289.219146 
L 90.217519 267.616151 
L 90.395257 290.496159 
L 90.513749 281.01386 
L 90.619075 281.664189 
L 90.862641 250.838985 
L 91.027214 285.102203 
L 91.218117 287.5476 
L 91.639421 231.732972 
L 91.830325 291.736486 
L 91.988314 286.117488 
L 92.225298 259.728125 
L 92.291127 290.429592 
L 92.607105 258.800641 
L 92.699265 293.019201 
L 92.811174 279.24594 
L 92.890169 291.08968 
L 93.278559 191.360652 
L 93.561623 280.719948 
L 93.765692 265.927334 
L 93.94343 276.615087 
L 94.167248 254.398718 
L 94.265991 286.726867 
L 94.371317 282.838772 
L 94.430563 292.861727 
L 94.67413 286.349886 
L 94.825536 289.352632 
L 94.917696 285.492335 
L 95.069103 289.646396 
L 95.266589 267.453417 
L 95.536487 266.572637 
L 95.615482 288.922637 
L 95.740557 285.799951 
L 95.819551 287.997756 
L 95.93146 280.895645 
L 96.003872 288.736599 
L 96.221107 262.81243 
L 96.444925 291.545468 
L 96.530502 288.694217 
L 96.675326 289.061314 
L 96.892561 256.915134 
L 97.109796 265.627646 
L 97.228288 291.530021 
L 97.550849 277.432385 
L 97.675924 282.433992 
L 97.814164 277.614277 
L 98.064314 286.296992 
L 98.242052 286.508653 
L 98.426372 284.467889 
L 98.531698 285.106665 
L 98.610693 289.55127 
L 98.795014 289.856393 
L 98.887174 287.123759 
L 99.012249 287.778923 
L 99.157072 281.420632 
L 99.222901 289.289216 
L 99.47305 266.990348 
L 99.598125 276.257363 
L 99.657371 292.097468 
L 99.914103 242.131536 
L 100.091841 286.7851 
L 100.289328 292.157318 
L 100.460483 283.671514 
L 100.526311 290.760902 
L 100.671135 283.070362 
L 100.901536 290.08881 
L 100.987113 288.506919 
L 101.118771 292.781658 
L 101.415 277.930984 
L 101.586155 290.598806 
L 101.75731 269.750014 
L 101.829722 289.671436 
L 101.987711 277.688634 
L 102.316855 237.302424 
L 102.494593 290.56661 
L 102.803988 265.115217 
L 102.961978 289.055712 
L 103.027806 292.784802 
L 103.21871 285.548379 
L 103.389865 291.364004 
L 103.574185 271.648577 
L 103.771672 293.032463 
L 104.028404 278.930417 
L 104.29172 278.868017 
L 104.390463 288.868625 
L 104.555035 286.539399 
L 104.673527 289.497161 
L 104.798601 281.891832 
L 104.871013 287.437768 
L 105.101414 274.698838 
L 105.233072 286.598767 
L 105.325232 283.950219 
L 105.423975 284.343558 
L 105.601713 269.628528 
L 105.680708 290.093236 
L 106.003269 257.983849 
L 106.306081 287.515659 
L 106.437739 283.36671 
L 106.641808 280.661746 
L 106.747134 281.895958 
L 106.845878 288.246315 
L 107.188187 237.56797 
L 107.333011 287.630453 
L 107.477834 291.42223 
L 107.846476 221.726125 
L 107.92547 289.903449 
L 107.991299 289.434395 
L 108.261197 276.078791 
L 108.35994 283.535317 
L 108.623256 266.394871 
L 108.761496 274.051752 
L 109.163052 284.150392 
L 109.235464 292.289121 
L 109.538276 246.074419 
L 109.630436 286.676932 
L 109.847671 279.967576 
L 109.933249 288.9995 
L 110.051741 285.62076 
L 110.762692 212.383285 
L 110.854852 290.857957 
L 110.966761 284.525871 
L 111.019424 293.65336 
L 111.223494 284.778708 
L 111.302488 287.939732 
L 111.407814 287.612836 
L 111.51314 289.445425 
L 111.638215 282.24439 
L 111.776456 286.516479 
L 111.868616 284.788832 
L 111.954194 289.50175 
L 112.039771 288.129053 
L 112.125348 289.199064 
L 112.191177 291.782719 
L 112.428161 276.229627 
L 112.526904 288.474849 
L 112.612482 287.02024 
L 112.698059 290.874101 
L 112.809968 287.673193 
L 112.954792 273.145593 
L 113.165444 277.738222 
L 113.257604 290.334105 
L 113.45509 285.481532 
L 113.566999 284.565393 
L 113.685491 287.86013 
L 113.942224 259.5616 
L 114.133127 288.91706 
L 114.284534 271.666415 
L 114.383277 291.873223 
L 114.62026 258.229112 
L 114.857244 288.109416 
L 114.96257 286.037704 
L 115.133725 274.913129 
L 115.291714 288.627453 
L 115.403623 286.527854 
L 115.489201 290.917408 
L 115.620858 285.346908 
L 115.69327 292.819742 
L 115.772265 289.025335 
L 115.844676 290.528126 
L 115.94342 287.707105 
L 116.272564 265.338951 
L 116.358141 286.203404 
L 116.555628 289.545835 
L 116.674119 289.431885 
L 116.792611 290.810163 
L 117.016429 287.038618 
L 117.220499 271.191346 
L 117.29291 289.983326 
L 117.398236 283.916747 
L 117.49698 290.815809 
L 117.575974 286.786949 
L 117.654969 288.009044 
L 117.740546 291.296559 
L 117.891953 282.613621 
L 117.970947 289.283025 
L 118.063107 288.788722 
L 118.306674 285.275823 
L 118.517326 273.678163 
L 118.892551 261.156875 
L 119.070288 292.719776 
L 119.228277 286.777435 
L 119.300689 290.934848 
L 119.379684 287.206972 
L 119.458678 287.413075 
L 119.689079 282.471991 
L 120.01164 231.267054 
L 120.209127 266.31274 
L 120.597517 287.009045 
L 120.873998 264.015969 
L 121.051736 289.716375 
L 121.13073 285.945729 
L 121.347965 277.099288 
L 121.47304 284.817574 
L 121.729772 265.222079 
L 121.835099 284.879958 
L 122.026002 268.661879 
L 122.309066 265.021473 
L 122.401226 291.713375 
L 122.539467 288.517102 
L 122.671124 289.98277 
L 122.769868 283.112218 
L 122.98052 288.039476 
L 123.375493 227.8688 
L 123.651974 263.931314 
L 123.89554 251.905214 
L 123.987701 287.799557 
L 124.125941 288.701921 
L 124.409005 247.266982 
L 124.501165 284.976987 
L 124.665738 278.312876 
L 124.981716 275.991378 
L 125.06071 286.229556 
L 125.554427 243.18279 
L 125.74533 288.858305 
L 125.863822 284.929697 
L 125.936234 289.183619 
L 126.113971 276.025659 
L 126.285126 289.62056 
L 126.403618 278.209504 
L 126.489196 286.273191 
L 126.706431 278.804524 
L 126.811757 285.692231 
L 126.943415 286.234424 
L 127.101404 286.231832 
L 127.239644 274.210623 
L 127.404216 270.800062 
L 127.667531 287.759921 
L 127.799189 281.122598 
L 127.924264 288.850181 
L 128.220493 239.141585 
L 128.385066 284.578353 
L 128.51014 286.438379 
L 128.654964 277.047325 
L 128.793204 288.302634 
L 128.964359 287.450134 
L 129.069685 282.20704 
L 129.135514 289.482878 
L 129.280337 283.439722 
L 129.346166 292.896917 
L 129.668727 257.332869 
L 129.892545 292.534446 
L 129.958374 289.988557 
L 130.090032 277.297057 
L 130.188775 291.148274 
L 130.307267 278.757069 
L 130.445507 286.260184 
L 130.537668 284.409858 
L 130.649577 290.117485 
L 130.735154 287.449383 
L 130.807566 289.198021 
L 130.906309 284.10565 
L 130.978721 290.395776 
L 131.070881 290.14116 
L 131.248619 287.369385 
L 131.814747 163.617516 
L 131.926656 291.835946 
L 132.012233 285.974867 
L 132.176805 264.082819 
L 132.242634 290.372486 
L 132.341377 285.556619 
L 132.532281 285.186694 
L 132.624441 290.573627 
L 132.815345 283.165111 
L 132.914088 291.82855 
L 133.151072 284.114628 
L 133.335392 264.234786 
L 133.480216 286.156535 
L 133.60529 281.044796 
L 134.066092 210.582693 
L 134.28991 286.354048 
L 134.454482 278.953067 
L 134.54006 287.979581 
L 134.691466 288.597196 
L 134.783626 289.788334 
L 135.027193 267.006119 
L 135.152268 283.951122 
L 135.31684 275.503156 
L 135.547241 279.132826 
L 135.632818 293.12439 
L 135.731561 287.741093 
L 135.810556 289.242709 
L 135.869802 290.313351 
L 135.981711 284.307998 
L 136.212112 246.192556 
L 136.324021 282.32456 
L 136.600502 271.63365 
L 136.857234 252.243565 
L 137.061303 288.095282 
L 137.192961 288.76201 
L 137.285121 287.215236 
L 137.449693 279.34671 
L 137.574768 281.173387 
L 137.69326 279.704494 
L 137.844666 288.956044 
L 137.917078 289.466746 
L 138.114564 263.62515 
L 138.252805 280.522677 
L 138.502954 260.257585 
L 138.628029 282.982614 
L 138.792601 272.140047 
L 138.95059 290.176864 
L 139.20074 285.199656 
L 139.38506 287.984134 
L 139.444306 290.751011 
L 139.562798 288.800709 
L 139.707622 277.881043 
L 139.951188 288.127561 
L 140.082846 287.491512 
L 140.306664 253.630223 
L 140.451487 286.047933 
L 140.648974 284.252757 
L 140.741134 290.19985 
L 140.958369 278.648933 
L 141.050529 292.270816 
L 141.373091 287.840964 
L 141.544245 290.503705 
L 141.958967 258.689409 
L 142.070876 281.396018 
L 142.314443 267.392194 
L 142.525095 284.608668 
L 142.768661 261.388286 
L 142.985897 269.645224 
L 143.183383 271.564884 
L 143.42695 288.775287 
L 143.571773 272.239862 
L 143.65735 287.375859 
L 143.821922 285.039935 
L 143.887751 289.224172 
L 143.99966 282.516581 
L 144.078655 287.274265 
L 144.210312 288.445209 
L 144.355136 285.883581 
L 144.644783 275.740651 
L 144.783023 276.787258 
L 144.993675 289.408341 
L 145.125333 276.091659 
L 145.237242 288.371084 
L 145.520306 262.396813 
L 145.684878 291.671488 
L 145.750707 288.774206 
L 145.856033 289.862914 
L 146.106182 285.792267 
L 146.23784 290.196545 
L 146.343166 285.128542 
L 146.435326 287.570288 
L 146.547235 287.385196 
L 146.817133 290.22206 
L 147.139695 218.430568 
L 147.514919 293.555277 
L 147.686074 273.42621 
L 147.850646 286.797783 
L 148.041549 266.61986 
L 148.232453 268.641389 
L 148.344362 284.131855 
L 148.620843 261.70586 
L 148.680089 293.332569 
L 148.824912 283.63602 
L 148.996067 290.162801 
L 149.147474 274.407292 
L 149.318628 292.557476 
L 149.897922 226.399359 
L 150.042745 283.305301 
L 150.180986 275.562016 
L 150.352141 276.557945 
L 150.450884 290.139782 
L 150.760279 254.676564 
L 150.839274 289.015069 
L 150.918269 287.347096 
L 151.017012 289.296867 
L 151.142087 289.301947 
L 151.221081 288.759093 
L 151.346156 280.604901 
L 151.596305 279.500195 
L 151.662134 289.829188 
L 151.912284 280.045097 
L 151.984695 291.938585 
L 152.083439 285.447263 
L 152.195348 286.098556 
L 152.327005 277.776086 
L 152.59032 286.325873 
L 152.768058 275.26554 
L 152.919465 278.796585 
L 153.024791 285.683415 
L 153.143283 280.130335 
L 153.22886 287.357758 
L 153.360518 279.824301 
L 154.117549 122.223826 
L 154.249207 281.887319 
L 154.407196 276.352528 
L 154.584934 287.198586 
L 154.723174 279.888016 
L 154.900912 282.902698 
L 155.104981 288.014374 
L 155.203724 282.913654 
L 155.388045 264.581061 
L 155.460457 290.121846 
L 155.625029 288.18386 
L 155.750104 279.438961 
L 156.118745 196.203039 
L 156.230654 288.245285 
L 156.316231 288.078567 
L 156.520301 282.323755 
L 156.790199 282.138951 
L 156.895525 289.407329 
L 157.053514 283.564016 
L 157.178589 283.569789 
L 157.257583 288.478607 
L 157.356327 286.170632 
L 157.534064 287.592048 
L 157.685471 287.540341 
L 157.784214 284.386525 
L 157.922454 285.268709 
L 158.027781 282.652122 
L 158.166021 283.111427 
L 158.27793 277.88593 
L 158.376673 291.169806 
L 158.699234 283.622144 
L 158.778229 287.293403 
L 158.96255 267.340782 
L 159.127122 285.7227 
L 159.574758 223.287028 
L 159.87757 285.17083 
L 159.982896 281.714027 
L 160.075057 289.798932 
L 160.186966 287.482173 
L 160.26596 289.484426 
L 160.351538 288.133243 
L 160.450281 289.479888 
L 160.614853 273.200422 
L 160.726762 285.799059 
L 160.963746 284.164153 
L 161.062489 288.07068 
L 161.319221 277.521453 
L 161.615451 254.773627 
L 161.68128 290.280363 
L 161.898515 282.240096 
L 162.02359 283.805295 
L 162.096001 287.709175 
L 162.234242 274.696583 
L 162.530471 278.730253 
L 162.629215 287.725523 
L 162.714792 286.169789 
L 162.905696 264.915809 
L 163.037353 278.166329 
L 163.267754 282.284857 
L 163.484989 266.427018 
L 163.741722 262.169028 
L 163.939208 285.535356 
L 164.130112 268.939115 
L 164.334181 291.087674 
L 164.432924 289.379766 
L 164.49217 289.827953 
L 164.683074 283.86917 
L 164.83448 286.671144 
L 164.97272 273.988269 
L 165.203121 267.713433 
L 165.308447 286.680702 
L 165.729752 202.891224 
L 165.95357 289.499936 
L 166.111559 281.027607 
L 166.256382 286.435874 
L 166.473617 275.457841 
L 166.677687 289.27709 
L 166.954168 286.753805 
L 167.066077 289.319981 
L 167.184569 280.916403 
L 167.289895 282.789973 
L 167.474215 268.928085 
L 167.612456 277.532571 
L 167.724365 291.678358 
L 167.974514 278.692916 
L 168.125921 282.782203 
L 168.270744 273.222181 
L 168.395819 276.7828 
L 168.494562 284.204099 
L 168.705214 275.145382 
L 168.843455 290.277804 
L 169.040941 284.816775 
L 169.133101 286.066909 
L 169.251593 280.096971 
L 169.508326 238.641554 
L 169.600486 284.614806 
L 169.778224 287.604191 
L 169.949379 285.549335 
L 170.153448 291.245755 
L 170.489175 283.782017 
L 170.607667 287.394113 
L 170.930228 240.048392 
L 171.121132 289.502298 
L 171.325201 245.708428 
L 171.509522 276.033154 
L 171.687259 264.944956 
L 171.812334 279.242026 
L 172.042735 261.310554 
L 172.358713 217.945483 
L 172.477205 286.601611 
L 172.628611 281.670893 
L 172.780018 282.788973 
L 172.977504 286.014289 
L 173.043333 289.283597 
L 173.234237 284.675688 
L 173.411974 284.918487 
L 173.589712 280.953224 
L 174.195337 196.137975 
L 174.405989 266.357913 
L 174.623225 256.555352 
L 174.781214 294.741757 
L 175.130106 249.124947 
L 175.32101 249.347281 
L 175.406587 285.516032 
L 176.00563 260.327865 
L 176.163619 271.914288 
L 176.387437 262.976598 
L 176.631003 246.780515 
L 176.900902 287.383686 
L 176.986479 287.25041 
L 177.157634 282.677145 
L 177.243211 288.805954 
L 177.532858 261.300457 
L 177.723762 263.148018 
L 177.842254 288.439257 
L 177.980494 283.02378 
L 178.296472 221.243051 
L 178.493959 292.126265 
L 178.77044 265.309241 
L 178.954761 289.319686 
L 179.145664 288.478993 
L 179.283905 273.990151 
L 179.356316 290.232051 
L 179.652546 218.121974 
L 180.093599 212.025459 
L 180.159428 291.553678 
L 180.745304 156.271937 
L 180.811133 290.906719 
L 180.982288 268.929523 
L 181.364095 203.075001 
L 181.561582 285.463646 
L 181.693239 275.006784 
L 181.87756 288.125389 
L 181.982886 286.430289 
L 182.068463 292.132856 
L 182.193538 280.458022 
L 182.285699 284.92626 
L 182.397608 278.51082 
L 182.549014 281.346186 
L 182.726752 290.52292 
L 182.838661 286.659791 
L 182.963735 286.795792 
L 183.121724 287.914853 
L 183.187553 289.419551 
L 183.273131 288.759027 
L 183.43112 280.810376 
L 183.661521 279.653531 
L 183.733932 289.245987 
L 183.938002 277.98989 
L 184.11574 261.289726 
L 184.55021 260.129644 
L 184.800359 283.585964 
L 185.083423 226.57947 
L 185.182166 286.886466 
L 185.353321 265.938144 
L 185.452064 288.690171 
L 185.873369 205.826924 
L 185.945781 290.516129 
L 186.373668 188.18002 
L 186.643566 272.11888 
L 186.999042 229.091778 
L 187.499341 193.333007 
L 187.584918 289.333323 
L 188.164212 189.229151 
L 188.460441 290.818132 
L 188.671093 281.911404 
L 188.763254 286.468986 
L 188.901494 274.23187 
L 189.072649 269.166655 
L 189.230638 282.476897 
L 189.461039 279.49028 
L 190.040333 180.92924 
L 190.343145 267.645151 
L 190.566963 240.770369 
L 190.757867 290.915105 
L 190.909273 270.353662 
L 190.975102 288.749978 
L 191.192337 294.075099 
L 191.389824 289.933468 
L 191.514898 284.530531 
L 191.692636 265.037619 
L 191.751882 291.29281 
L 191.863791 287.702094 
L 192.074443 260.896526 
L 192.219267 278.99277 
L 192.561576 222.096814 
L 192.949966 246.297193 
L 193.042127 288.484791 
L 193.154036 284.504857 
L 193.358105 260.983046 
L 193.555592 294.857355 
L 193.878153 282.790451 
L 194.161217 252.468593 
L 194.35212 290.382497 
L 194.523275 274.394309 
L 194.582521 289.954511 
L 195.063071 229.728045 
L 195.161815 291.012267 
L 195.569953 251.064411 
L 195.741108 282.079473 
L 196.116332 208.068719 
L 196.689043 292.052506 
L 196.833866 288.844983 
L 196.965524 293.919068 
L 197.281502 238.404561 
L 197.643561 228.988224 
L 198.005619 283.76934 
L 198.328181 212.962467 
L 198.459838 291.424838 
L 198.663907 246.429058 
L 198.841645 293.596466 
L 199.230035 186.132947 
L 199.513099 223.519814 
L 199.657923 294.816338 
L 200.13189 181.384381 
L 200.388622 232.379786 
L 200.81651 187.433123 
L 201.079825 288.772169 
L 201.257563 287.925222 
L 201.376055 283.026062 
L 201.961931 112.668649 
L 202.409567 210.794197 
L 202.534642 281.836598 
L 202.718962 279.90825 
L 202.830871 280.811236 
L 203.048106 289.503018 
L 203.19293 286.944065 
L 203.390416 261.32045 
L 203.706395 290.785823 
L 203.831469 275.954079 
L 204.26594 256.920207 
L 204.443677 295.488 
L 204.805736 234.500142 
L 205.049302 290.083361 
L 205.200709 290.519672 
L 205.292869 284.177435 
L 205.490356 286.240578 
L 205.687842 247.402946 
L 205.878746 274.645811 
L 206.063066 250.213535 
L 206.622611 142.264273 
L 206.945172 283.581646 
L 207.274316 213.844077 
L 207.952353 286.671764 
L 208.14984 271.637848 
L 208.261749 287.685793 
L 208.854208 228.103938 
L 209.084609 237.264613 
L 209.282095 285.182191 
L 209.466416 266.301371 
L 209.630988 292.297868 
L 209.821891 264.154867 
L 210.098372 265.340025 
L 210.309025 291.296324 
L 210.585506 229.608181 
L 210.750078 262.936611 
L 211.00681 230.857712 
L 211.684847 182.034497 
L 211.842836 257.718668 
L 212.046905 271.562083 
L 212.277306 253.421394 
L 212.455044 294.115677 
L 212.534039 288.226091 
L 212.850017 228.825957 
L 212.929011 286.691862 
L 213.060669 274.796 
L 213.225241 276.80896 
L 213.363482 276.008429 
L 213.541219 279.541254 
L 213.784786 241.969978 
L 214.028353 236.879759 
L 214.324582 256.782535 
L 214.522069 247.751928 
L 214.601063 287.085571 
L 214.903876 222.300713 
L 215.23302 206.625735 
L 215.423924 277.638874 
L 215.726736 268.586883 
L 215.976886 270.421076 
L 216.05588 288.674139 
L 216.246784 290.180806 
L 216.378441 283.885368 
L 216.69442 293.10999 
L 216.858992 292.59246 
L 217.076227 244.520416 
L 217.227633 294.706917 
L 217.372456 282.006798 
L 217.537028 286.040696 
L 217.65552 283.817757 
L 218.030745 228.988299 
L 218.280894 289.77894 
L 218.484963 243.678934 
L 219.084006 217.60877 
L 219.353904 276.252412 
L 219.722545 226.362175 
L 219.999026 225.558506 
L 220.268924 236.211876 
L 220.756057 293.082764 
L 221.203693 219.547125 
L 221.381431 271.046792 
L 221.605249 255.569701 
L 221.829067 273.003789 
L 222.105548 254.316859 
L 222.296452 290.184715 
L 222.408361 288.498137 
L 222.777002 197.768746 
L 223.020569 236.352151 
L 223.38921 200.725433 
L 223.764434 202.930494 
L 224.054081 222.743328 
L 224.580712 188.046017 
L 224.949353 207.270363 
L 225.146839 246.321844 
L 225.383823 236.178603 
L 225.594475 284.862159 
L 226.246181 218.062728 
L 226.680651 238.595795 
L 227.003212 216.387218 
L 227.582506 161.899298 
L 227.95773 216.054873 
L 228.168382 266.809672 
L 228.563355 204.09199 
L 228.721344 282.696129 
L 229.359884 248.963359 
L 229.774605 199.220637 
L 230.169578 231.221872 
L 230.33415 290.706056 
L 230.696208 236.115208 
L 230.762037 290.875158 
L 231.308416 164.964146 
L 231.525651 285.822124 
L 231.84163 217.960123 
L 232.078614 236.973357 
L 232.532832 170.613621 
L 232.901474 258.064678 
L 233.335944 209.269663 
L 233.586093 235.232016 
L 233.763831 274.494863 
L 234.040312 278.615452 
L 234.349708 214.900645 
L 234.777595 283.374255 
L 234.99483 243.248056 
L 235.310808 215.49339 
L 235.541209 281.605404 
L 235.732113 286.760952 
L 236.015177 223.7013 
L 236.311406 224.07342 
L 236.673465 203.032579 
L 236.917031 283.505523 
L 237.18693 265.602887 
L 237.80572 169.140743 
L 237.930795 283.070505 
L 238.161196 288.604297 
L 238.332351 253.915047 
L 238.49034 285.938848 
L 239.65551 217.934108 
L 240.024151 256.887791 
L 240.531033 196.731603 
L 240.794349 284.203918 
L 241.044498 234.840448 
L 241.380225 209.453089 
L 241.610626 239.87566 
L 242.321577 212.312083 
L 242.584892 231.058403 
L 242.966699 292.162269 
L 243.164186 287.820562 
L 243.414335 232.037263 
L 243.690816 221.661485 
L 244.013378 275.190748 
L 244.230613 271.51305 
L 244.599254 199.635077 
L 245.428697 160.313138 
L 245.645932 243.838158 
L 246.067237 180.584027 
L 246.580701 206.469079 
L 247.074417 254.086125 
L 247.311401 290.831391 
L 247.554968 282.076575 
L 247.838032 280.445809 
L 248.173759 218.217614 
L 248.535817 271.882124 
L 248.733303 246.918315 
L 248.924207 286.787025 
L 249.391592 186.101815 
L 249.589078 248.617351 
L 249.931388 229.091179 
L 250.813494 113.8892 
L 251.16897 229.568649 
L 251.814092 203.265804 
L 251.899669 286.647066 
L 252.215648 213.72449 
L 252.748861 213.708279 
L 252.992428 236.815304 
L 253.301823 213.678728 
L 253.472978 281.179039 
L 253.861368 236.344186 
L 254.065437 268.008524 
L 254.341918 227.814932 
L 254.782972 204.857886 
L 254.967292 251.380204 
L 255.737489 241.353451 
L 256.040302 277.652165 
L 256.435275 203.371575 
L 257.455621 183.68278 
L 257.686022 283.194715 
L 257.95592 224.4114 
L 259.147422 58.638397 
L 259.476566 280.633017 
L 259.832042 231.282021 
L 260.016362 251.335135 
L 260.325758 219.252366 
L 260.681233 222.33234 
L 260.944549 229.893277 
L 261.326356 215.566631 
L 261.550174 240.363581 
L 261.767409 241.726632 
L 262.109719 258.616705 
L 262.419114 227.050074 
L 262.689012 228.506497 
L 263.189311 200.751513 
L 263.485541 284.177411 
L 264.295235 170.319292 
L 264.51247 244.525308 
L 264.756037 243.223613 
L 264.960106 291.70065 
L 265.322165 192.248657 
L 265.789549 200.107281 
L 266.776981 239.478813 
L 267.099543 232.990243 
L 267.349692 234.278619 
L 267.817077 217.838216 
L 268.100141 234.558644 
L 268.626771 160.163747 
L 268.876921 241.034422 
L 269.133653 229.464488 
L 269.581289 203.129257 
L 269.824856 289.4285 
L 270.101337 226.921965 
L 270.358069 287.461417 
L 270.693796 229.739321 
L 270.917614 284.377866 
L 271.839217 152.247986 
L 272.372431 146.375333 
L 273.175542 169.582872 
L 273.346697 253.399925 
L 273.728504 215.442361 
L 274.735685 144.563935 
L 275.361059 238.737636 
L 276.006181 161.130989 
L 276.269496 233.3651 
L 276.473566 246.440779 
L 276.94095 209.753448 
L 277.368838 258.339084 
L 277.783559 184.966249 
L 278.290441 178.618455 
L 278.770991 227.877382 
L 278.994809 288.236894 
L 279.297622 275.894354 
L 279.620183 219.323466 
L 280.153396 207.240813 
L 280.377214 242.754594 
L 280.581284 246.398965 
L 281.094749 234.624896 
L 281.595048 143.458463 
L 281.99002 188.461763 
L 282.424491 175.563149 
L 282.806298 218.577274 
L 283.411923 156.987497 
L 284.037297 108.104806 
L 284.465184 210.109277 
L 284.820659 217.702997 
L 285.235381 200.199207 
L 285.518445 228.227122 
L 285.814674 223.748661 
L 286.03191 241.949578 
L 286.314973 223.987396 
L 286.55854 288.23997 
L 286.828438 226.538946 
L 287.137834 224.889634 
L 287.328737 248.93155 
L 287.624967 221.876806 
L 287.901448 236.949859 
L 288.349084 226.752976 
L 288.586068 238.572558 
L 288.79672 241.058926 
L 289.18511 214.0472 
L 289.428676 237.276092 
L 289.698575 227.832789 
L 290.14621 243.110042 
L 290.567515 222.170789 
L 290.78475 289.684187 
L 291.087562 282.006894 
L 291.364044 224.16848 
L 291.601027 238.398528 
L 291.811679 243.280821 
L 292.160572 207.761603 
L 293.25333 53.568 
L 293.707549 208.578304 
L 294.37242 186.370513 
L 294.741062 203.191324 
L 294.938548 247.466893 
L 295.656082 200.225456 
L 295.958895 219.903994 
L 296.26829 215.870318 
L 296.544771 226.609176 
L 297.176728 131.934005 
L 297.459792 241.151346 
L 297.749438 221.356693 
L 298.197074 174.776598 
L 298.381395 250.962625 
L 298.631545 235.222493 
L 298.861945 239.663798 
L 299.243753 189.486146 
L 299.934955 121.081899 
L 300.185105 232.475837 
L 300.40234 239.094838 
L 300.922387 207.182119 
L 301.284446 196.814184 
L 301.639921 202.537176 
L 301.922985 223.214587 
L 302.186301 230.297698 
L 302.377204 249.69449 
L 303.015744 190.52064 
L 303.279059 233.075336 
L 303.568706 236.723187 
L 304.28624 104.804338 
L 304.661464 207.478313 
L 305.20126 242.704525 
L 305.517239 215.375477 
L 305.754222 241.526393 
L 306.004372 229.397843 
L 306.247938 233.860151 
L 306.438842 246.042382 
L 306.873312 168.650195 
L 307.301199 199.449868 
L 307.5316 264.353655 
L 307.952905 181.691656 
L 308.176723 241.461922 
L 308.505867 222.699288 
L 308.861342 217.582867 
L 309.164155 226.433194 
L 309.644705 152.842546 
L 309.927769 222.991586 
L 310.164753 239.578998 
L 310.632137 173.350567 
L 310.869121 237.670052 
L 311.204848 220.848396 
L 311.810473 180.741262 
L 312.027708 242.61455 
L 312.264692 236.254739 
L 312.48851 241.344153 
L 313.01514 139.729468 
L 313.56152 169.34264 
L 314.147396 117.914741 
L 314.693775 158.346615 
L 315.286235 248.39897 
L 315.556133 229.103995 
L 315.733871 252.361657 
L 316.286833 147.691318 
L 316.839795 118.627111 
L 318.327526 246.894368 
L 318.788327 200.322172 
L 319.34129 121.587535 
L 319.762594 180.311724 
L 319.999578 232.869417 
L 320.559123 121.288745 
L 320.927764 212.421929 
L 321.223994 217.200644 
L 321.651881 251.21855 
L 321.829619 251.699369 
L 322.099517 229.026615 
L 322.349666 234.759977 
L 323.0672 97.062355 
L 323.304184 234.015792 
L 323.745237 168.620944 
L 324.995985 209.788574 
L 325.30538 214.244116 
L 325.970251 91.893681 
L 326.161155 248.501303 
L 326.404721 232.827986 
L 326.582459 252.372295 
L 327.016929 172.332708 
L 327.29341 225.358713 
L 327.991196 82.762925 
L 328.27426 224.999184 
L 328.577072 214.02091 
L 329.090537 136.00166 
L 329.57767 163.445506 
L 330.124049 134.941856 
L 330.387365 228.201757 
L 330.999572 101.245743 
L 331.598615 113.888377 
L 331.829016 238.049067 
L 332.197657 212.266443 
L 332.790116 110.557676 
L 333.343078 149.005002 
L 333.784131 167.93355 
L 334.28443 143.642886 
L 334.916387 99.958102 
L 335.601007 83.582975 
L 336.325124 78.577526 
L 336.891251 129.049128 
L 337.437631 123.883185 
L 337.858935 212.301789 
L 338.734458 161.573585 
L 339.340083 102.386716 
L 339.623147 222.982887 
L 340.202441 129.287816 
L 340.7949 116.110631 
L 341.222787 187.565039 
L 341.802081 115.426456 
L 342.453786 107.113271 
L 343.092326 101.105857 
L 343.684785 131.072497 
L 344.191667 176.542186 
L 344.882869 97.363129 
L 345.448997 135.734169 
L 346.633916 101.830584 
L 347.246124 101.865392 
L 347.759589 134.76211 
L 348.444208 95.258806 
L 349.049833 118.460078 
L 349.267068 242.575822 
L 349.418475 258.126925 
L 349.971437 145.612196 
L 350.590228 110.579743 
L 351.176104 104.580617 
L 351.854141 229.731576 
L 352.519012 94.015533 
L 353.144386 92.343003 
L 353.776342 92.946525 
L 354.408299 116.951101 
L 354.888849 166.081994 
L 355.481308 123.034717 
L 356.040853 120.761134 
L 356.778136 86.153944 
L 357.350847 126.96879 
L 357.963055 88.603194 
L 358.443605 155.896618 
L 359.022899 111.490783 
L 359.589026 126.81243 
L 360.148571 124.500691 
L 360.787111 105.519224 
L 361.419067 98.492175 
L 361.991778 116.778296 
L 362.531574 140.366291 
L 363.124034 118.269453 
L 363.729659 112.568781 
L 363.953477 238.66882 
L 364.545936 101.593177 
L 365.151561 113.172312 
L 365.632112 153.887121 
L 366.079748 170.931523 
L 366.63271 125.338907 
L 367.271249 113.06873 
L 367.850543 123.948628 
L 368.456168 99.915764 
L 369.074959 119.171111 
L 369.634504 114.69664 
L 370.200631 114.217701 
L 370.812839 117.153625 
L 371.438213 98.116462 
L 372.010924 118.3989 
L 372.557303 126.605603 
L 373.202425 81.78748 
L 373.755387 131.556674 
L 374.361012 96.515241 
L 374.92714 114.905497 
L 375.513017 104.757875 
L 376.079144 115.279628 
L 376.638689 117.349732 
L 377.191651 119.955052 
L 377.817025 108.436365 
L 378.514811 98.92725 
L 379.6339 128.994863 
L 380.186862 117.436579 
L 380.75299 130.775456 
L 381.312535 113.42666 
L 381.951075 83.620037 
L 382.543534 136.558334 
L 383.122828 110.908028 
L 383.642875 143.605075 
L 384.241917 121.597507 
L 384.788297 128.093841 
L 385.518996 95.753769 
L 386.09829 131.507021 
L 386.749995 109.386984 
L 387.381952 81.408868 
L 387.941497 118.568646 
L 388.56687 110.46314 
L 389.132998 114.150639 
L 389.725458 102.821549 
L 390.3245 120.063011 
L 390.903793 112.782343 
L 391.548916 93.666968 
L 392.187455 92.254211 
L 392.760166 126.922149 
L 393.332877 123.582748 
L 393.892422 131.762388 
L 394.498047 109.983733 
L 395.070757 117.956219 
L 395.663217 118.668879 
L 396.229344 121.106454 
L 396.788889 120.535814 
L 397.3616 119.25299 
L 397.921145 127.004487 
L 398.487273 117.181258 
L 398.487273 117.181258 
" clip-path="url(#p1483be2f98)" style="fill: none; stroke: #1f77b4; stroke-width: 1.5; stroke-linecap: square"/>
   </g>
   <g id="patch_3">
    <path d="M 57.6 307.584 
L 57.6 41.472 
" style="fill: none; stroke: #000000; stroke-width: 0.8; stroke-linejoin: miter; stroke-linecap: square"/>
   </g>
   <g id="patch_4">
    <path d="M 414.72 307.584 
L 414.72 41.472 
" style="fill: none; stroke: #000000; stroke-width: 0.8; stroke-linejoin: miter; stroke-linecap: square"/>
   </g>
   <g id="patch_5">
    <path d="M 57.6 307.584 
L 414.72 307.584 
" style="fill: none; stroke: #000000; stroke-width: 0.8; stroke-linejoin: miter; stroke-linecap: square"/>
   </g>
   <g id="patch_6">
    <path d="M 57.6 41.472 
L 414.72 41.472 
" style="fill: none; stroke: #000000; stroke-width: 0.8; stroke-linejoin: miter; stroke-linecap: square"/>
   </g>
   <g id="text_15">
    <!-- learning curve -->
    <g transform="translate(192.96375 35.472) scale(0.12 -0.12)">
     <defs>
      <path id="DejaVuSans-6c" d="M 603 4863 
L 1178 4863 
L 1178 0 
L 603 0 
L 603 4863 
z
" transform="scale(0.015625)"/>
      <path id="DejaVuSans-6e" d="M 3513 2113 
L 3513 0 
L 2938 0 
L 2938 2094 
Q 2938 2591 2744 2837 
Q 2550 3084 2163 3084 
Q 1697 3084 1428 2787 
Q 1159 2491 1159 1978 
L 1159 0 
L 581 0 
L 581 3500 
L 1159 3500 
L 1159 2956 
Q 1366 3272 1645 3428 
Q 1925 3584 2291 3584 
Q 2894 3584 3203 3211 
Q 3513 2838 3513 2113 
z
" transform="scale(0.015625)"/>
      <path id="DejaVuSans-67" d="M 2906 1791 
Q 2906 2416 2648 2759 
Q 2391 3103 1925 3103 
Q 1463 3103 1205 2759 
Q 947 2416 947 1791 
Q 947 1169 1205 825 
Q 1463 481 1925 481 
Q 2391 481 2648 825 
Q 2906 1169 2906 1791 
z
M 3481 434 
Q 3481 -459 3084 -895 
Q 2688 -1331 1869 -1331 
Q 1566 -1331 1297 -1286 
Q 1028 -1241 775 -1147 
L 775 -588 
Q 1028 -725 1275 -790 
Q 1522 -856 1778 -856 
Q 2344 -856 2625 -561 
Q 2906 -266 2906 331 
L 2906 616 
Q 2728 306 2450 153 
Q 2172 0 1784 0 
Q 1141 0 747 490 
Q 353 981 353 1791 
Q 353 2603 747 3093 
Q 1141 3584 1784 3584 
Q 2172 3584 2450 3431 
Q 2728 3278 2906 2969 
L 2906 3500 
L 3481 3500 
L 3481 434 
z
" transform="scale(0.015625)"/>
      <path id="DejaVuSans-20" transform="scale(0.015625)"/>
      <path id="DejaVuSans-63" d="M 3122 3366 
L 3122 2828 
Q 2878 2963 2633 3030 
Q 2388 3097 2138 3097 
Q 1578 3097 1268 2742 
Q 959 2388 959 1747 
Q 959 1106 1268 751 
Q 1578 397 2138 397 
Q 2388 397 2633 464 
Q 2878 531 3122 666 
L 3122 134 
Q 2881 22 2623 -34 
Q 2366 -91 2075 -91 
Q 1284 -91 818 406 
Q 353 903 353 1747 
Q 353 2603 823 3093 
Q 1294 3584 2113 3584 
Q 2378 3584 2631 3529 
Q 2884 3475 3122 3366 
z
" transform="scale(0.015625)"/>
      <path id="DejaVuSans-75" d="M 544 1381 
L 544 3500 
L 1119 3500 
L 1119 1403 
Q 1119 906 1312 657 
Q 1506 409 1894 409 
Q 2359 409 2629 706 
Q 2900 1003 2900 1516 
L 2900 3500 
L 3475 3500 
L 3475 0 
L 2900 0 
L 2900 538 
Q 2691 219 2414 64 
Q 2138 -91 1772 -91 
Q 1169 -91 856 284 
Q 544 659 544 1381 
z
M 1991 3584 
L 1991 3584 
z
" transform="scale(0.015625)"/>
      <path id="DejaVuSans-76" d="M 191 3500 
L 800 3500 
L 1894 563 
L 2988 3500 
L 3597 3500 
L 2284 0 
L 1503 0 
L 191 3500 
z
" transform="scale(0.015625)"/>
     </defs>
     <use xlink:href="#DejaVuSans-6c"/>
     <use xlink:href="#DejaVuSans-65" x="27.783203"/>
     <use xlink:href="#DejaVuSans-61" x="89.306641"/>
     <use xlink:href="#DejaVuSans-72" x="150.585938"/>
     <use xlink:href="#DejaVuSans-6e" x="189.949219"/>
     <use xlink:href="#DejaVuSans-69" x="253.328125"/>
     <use xlink:href="#DejaVuSans-6e" x="281.111328"/>
     <use xlink:href="#DejaVuSans-67" x="344.490234"/>
     <use xlink:href="#DejaVuSans-20" x="407.966797"/>
     <use xlink:href="#DejaVuSans-63" x="439.753906"/>
     <use xlink:href="#DejaVuSans-75" x="494.734375"/>
     <use xlink:href="#DejaVuSans-72" x="558.113281"/>
     <use xlink:href="#DejaVuSans-76" x="599.226562"/>
     <use xlink:href="#DejaVuSans-65" x="658.40625"/>
    </g>
   </g>
  </g>
 </g>
 <defs>
  <clipPath id="p1483be2f98">
   <rect x="57.6" y="41.472" width="357.12" height="266.112"/>
  </clipPath>
 </defs>
</svg>
