<?xml version="1.0" encoding="utf-8" standalone="no"?>
<!DOCTYPE svg PUBLIC "-//W3C//DTD SVG 1.1//EN"
  "http://www.w3.org/Graphics/SVG/1.1/DTD/svg11.dtd">
<svg xmlns:xlink="http://www.w3.org/1999/xlink" width="460.8pt" height="345.6pt" viewBox="0 0 460.8 345.6" xmlns="http://www.w3.org/2000/svg" version="1.1">
 <metadata>
  <rdf:RDF xmlns:dc="http://purl.org/dc/elements/1.1/" xmlns:cc="http://creativecommons.org/ns#" xmlns:rdf="http://www.w3.org/1999/02/22-rdf-syntax-ns#">
   <cc:Work>
    <dc:type rdf:resource="http://purl.org/dc/dcmitype/StillImage"/>
    <dc:date>2023-08-18T16:35:10.891774</dc:date>
    <dc:format>image/svg+xml</dc:format>
    <dc:creator>
     <cc:Agent>
      <dc:title>Matplotlib v3.7.1, https://matplotlib.org/</dc:title>
     </cc:Agent>
    </dc:creator>
   </cc:Work>
  </rdf:RDF>
 </metadata>
 <defs>
  <style type="text/css">*{stroke-linejoin: round; stroke-linecap: butt}</style>
 </defs>
 <g id="figure_1">
  <g id="patch_1">
   <path d="M 0 345.6 
L 460.8 345.6 
L 460.8 0 
L 0 0 
z
" style="fill: #ffffff"/>
  </g>
  <g id="axes_1">
   <g id="patch_2">
    <path d="M 57.6 307.584 
L 414.72 307.584 
L 414.72 41.472 
L 57.6 41.472 
z
" style="fill: #ffffff"/>
   </g>
   <g id="matplotlib.axis_1">
    <g id="xtick_1">
     <g id="line2d_1">
      <defs>
       <path id="mb3131be971" d="M 0 0 
L 0 3.5 
" style="stroke: #000000; stroke-width: 0.8"/>
      </defs>
      <g>
       <use xlink:href="#mb3131be971" x="73.760143" y="307.584" style="stroke: #000000; stroke-width: 0.8"/>
      </g>
     </g>
     <g id="text_1">
      <!-- 0 -->
      <g transform="translate(70.578893 322.182437) scale(0.1 -0.1)">
       <defs>
        <path id="DejaVuSans-30" d="M 2034 4250 
Q 1547 4250 1301 3770 
Q 1056 3291 1056 2328 
Q 1056 1369 1301 889 
Q 1547 409 2034 409 
Q 2525 409 2770 889 
Q 3016 1369 3016 2328 
Q 3016 3291 2770 3770 
Q 2525 4250 2034 4250 
z
M 2034 4750 
Q 2819 4750 3233 4129 
Q 3647 3509 3647 2328 
Q 3647 1150 3233 529 
Q 2819 -91 2034 -91 
Q 1250 -91 836 529 
Q 422 1150 422 2328 
Q 422 3509 836 4129 
Q 1250 4750 2034 4750 
z
" transform="scale(0.015625)"/>
       </defs>
       <use xlink:href="#DejaVuSans-30"/>
      </g>
     </g>
    </g>
    <g id="xtick_2">
     <g id="line2d_2">
      <g>
       <use xlink:href="#mb3131be971" x="139.745498" y="307.584" style="stroke: #000000; stroke-width: 0.8"/>
      </g>
     </g>
     <g id="text_2">
      <!-- 10000 -->
      <g transform="translate(123.839248 322.182437) scale(0.1 -0.1)">
       <defs>
        <path id="DejaVuSans-31" d="M 794 531 
L 1825 531 
L 1825 4091 
L 703 3866 
L 703 4441 
L 1819 4666 
L 2450 4666 
L 2450 531 
L 3481 531 
L 3481 0 
L 794 0 
L 794 531 
z
" transform="scale(0.015625)"/>
       </defs>
       <use xlink:href="#DejaVuSans-31"/>
       <use xlink:href="#DejaVuSans-30" x="63.623047"/>
       <use xlink:href="#DejaVuSans-30" x="127.246094"/>
       <use xlink:href="#DejaVuSans-30" x="190.869141"/>
       <use xlink:href="#DejaVuSans-30" x="254.492188"/>
      </g>
     </g>
    </g>
    <g id="xtick_3">
     <g id="line2d_3">
      <g>
       <use xlink:href="#mb3131be971" x="205.730854" y="307.584" style="stroke: #000000; stroke-width: 0.8"/>
      </g>
     </g>
     <g id="text_3">
      <!-- 20000 -->
      <g transform="translate(189.824604 322.182437) scale(0.1 -0.1)">
       <defs>
        <path id="DejaVuSans-32" d="M 1228 531 
L 3431 531 
L 3431 0 
L 469 0 
L 469 531 
Q 828 903 1448 1529 
Q 2069 2156 2228 2338 
Q 2531 2678 2651 2914 
Q 2772 3150 2772 3378 
Q 2772 3750 2511 3984 
Q 2250 4219 1831 4219 
Q 1534 4219 1204 4116 
Q 875 4013 500 3803 
L 500 4441 
Q 881 4594 1212 4672 
Q 1544 4750 1819 4750 
Q 2544 4750 2975 4387 
Q 3406 4025 3406 3419 
Q 3406 3131 3298 2873 
Q 3191 2616 2906 2266 
Q 2828 2175 2409 1742 
Q 1991 1309 1228 531 
z
" transform="scale(0.015625)"/>
       </defs>
       <use xlink:href="#DejaVuSans-32"/>
       <use xlink:href="#DejaVuSans-30" x="63.623047"/>
       <use xlink:href="#DejaVuSans-30" x="127.246094"/>
       <use xlink:href="#DejaVuSans-30" x="190.869141"/>
       <use xlink:href="#DejaVuSans-30" x="254.492188"/>
      </g>
     </g>
    </g>
    <g id="xtick_4">
     <g id="line2d_4">
      <g>
       <use xlink:href="#mb3131be971" x="271.716209" y="307.584" style="stroke: #000000; stroke-width: 0.8"/>
      </g>
     </g>
     <g id="text_4">
      <!-- 30000 -->
      <g transform="translate(255.809959 322.182437) scale(0.1 -0.1)">
       <defs>
        <path id="DejaVuSans-33" d="M 2597 2516 
Q 3050 2419 3304 2112 
Q 3559 1806 3559 1356 
Q 3559 666 3084 287 
Q 2609 -91 1734 -91 
Q 1441 -91 1130 -33 
Q 819 25 488 141 
L 488 750 
Q 750 597 1062 519 
Q 1375 441 1716 441 
Q 2309 441 2620 675 
Q 2931 909 2931 1356 
Q 2931 1769 2642 2001 
Q 2353 2234 1838 2234 
L 1294 2234 
L 1294 2753 
L 1863 2753 
Q 2328 2753 2575 2939 
Q 2822 3125 2822 3475 
Q 2822 3834 2567 4026 
Q 2313 4219 1838 4219 
Q 1578 4219 1281 4162 
Q 984 4106 628 3988 
L 628 4550 
Q 988 4650 1302 4700 
Q 1616 4750 1894 4750 
Q 2613 4750 3031 4423 
Q 3450 4097 3450 3541 
Q 3450 3153 3228 2886 
Q 3006 2619 2597 2516 
z
" transform="scale(0.015625)"/>
       </defs>
       <use xlink:href="#DejaVuSans-33"/>
       <use xlink:href="#DejaVuSans-30" x="63.623047"/>
       <use xlink:href="#DejaVuSans-30" x="127.246094"/>
       <use xlink:href="#DejaVuSans-30" x="190.869141"/>
       <use xlink:href="#DejaVuSans-30" x="254.492188"/>
      </g>
     </g>
    </g>
    <g id="xtick_5">
     <g id="line2d_5">
      <g>
       <use xlink:href="#mb3131be971" x="337.701564" y="307.584" style="stroke: #000000; stroke-width: 0.8"/>
      </g>
     </g>
     <g id="text_5">
      <!-- 40000 -->
      <g transform="translate(321.795314 322.182437) scale(0.1 -0.1)">
       <defs>
        <path id="DejaVuSans-34" d="M 2419 4116 
L 825 1625 
L 2419 1625 
L 2419 4116 
z
M 2253 4666 
L 3047 4666 
L 3047 1625 
L 3713 1625 
L 3713 1100 
L 3047 1100 
L 3047 0 
L 2419 0 
L 2419 1100 
L 313 1100 
L 313 1709 
L 2253 4666 
z
" transform="scale(0.015625)"/>
       </defs>
       <use xlink:href="#DejaVuSans-34"/>
       <use xlink:href="#DejaVuSans-30" x="63.623047"/>
       <use xlink:href="#DejaVuSans-30" x="127.246094"/>
       <use xlink:href="#DejaVuSans-30" x="190.869141"/>
       <use xlink:href="#DejaVuSans-30" x="254.492188"/>
      </g>
     </g>
    </g>
    <g id="xtick_6">
     <g id="line2d_6">
      <g>
       <use xlink:href="#mb3131be971" x="403.686919" y="307.584" style="stroke: #000000; stroke-width: 0.8"/>
      </g>
     </g>
     <g id="text_6">
      <!-- 50000 -->
      <g transform="translate(387.780669 322.182437) scale(0.1 -0.1)">
       <defs>
        <path id="DejaVuSans-35" d="M 691 4666 
L 3169 4666 
L 3169 4134 
L 1269 4134 
L 1269 2991 
Q 1406 3038 1543 3061 
Q 1681 3084 1819 3084 
Q 2600 3084 3056 2656 
Q 3513 2228 3513 1497 
Q 3513 744 3044 326 
Q 2575 -91 1722 -91 
Q 1428 -91 1123 -41 
Q 819 9 494 109 
L 494 744 
Q 775 591 1075 516 
Q 1375 441 1709 441 
Q 2250 441 2565 725 
Q 2881 1009 2881 1497 
Q 2881 1984 2565 2268 
Q 2250 2553 1709 2553 
Q 1456 2553 1204 2497 
Q 953 2441 691 2322 
L 691 4666 
z
" transform="scale(0.015625)"/>
       </defs>
       <use xlink:href="#DejaVuSans-35"/>
       <use xlink:href="#DejaVuSans-30" x="63.623047"/>
       <use xlink:href="#DejaVuSans-30" x="127.246094"/>
       <use xlink:href="#DejaVuSans-30" x="190.869141"/>
       <use xlink:href="#DejaVuSans-30" x="254.492188"/>
      </g>
     </g>
    </g>
    <g id="text_7">
     <!-- timesteps -->
     <g transform="translate(211.443594 335.860562) scale(0.1 -0.1)">
      <defs>
       <path id="DejaVuSans-74" d="M 1172 4494 
L 1172 3500 
L 2356 3500 
L 2356 3053 
L 1172 3053 
L 1172 1153 
Q 1172 725 1289 603 
Q 1406 481 1766 481 
L 2356 481 
L 2356 0 
L 1766 0 
Q 1100 0 847 248 
Q 594 497 594 1153 
L 594 3053 
L 172 3053 
L 172 3500 
L 594 3500 
L 594 4494 
L 1172 4494 
z
" transform="scale(0.015625)"/>
       <path id="DejaVuSans-69" d="M 603 3500 
L 1178 3500 
L 1178 0 
L 603 0 
L 603 3500 
z
M 603 4863 
L 1178 4863 
L 1178 4134 
L 603 4134 
L 603 4863 
z
" transform="scale(0.015625)"/>
       <path id="DejaVuSans-6d" d="M 3328 2828 
Q 3544 3216 3844 3400 
Q 4144 3584 4550 3584 
Q 5097 3584 5394 3201 
Q 5691 2819 5691 2113 
L 5691 0 
L 5113 0 
L 5113 2094 
Q 5113 2597 4934 2840 
Q 4756 3084 4391 3084 
Q 3944 3084 3684 2787 
Q 3425 2491 3425 1978 
L 3425 0 
L 2847 0 
L 2847 2094 
Q 2847 2600 2669 2842 
Q 2491 3084 2119 3084 
Q 1678 3084 1418 2786 
Q 1159 2488 1159 1978 
L 1159 0 
L 581 0 
L 581 3500 
L 1159 3500 
L 1159 2956 
Q 1356 3278 1631 3431 
Q 1906 3584 2284 3584 
Q 2666 3584 2933 3390 
Q 3200 3197 3328 2828 
z
" transform="scale(0.015625)"/>
       <path id="DejaVuSans-65" d="M 3597 1894 
L 3597 1613 
L 953 1613 
Q 991 1019 1311 708 
Q 1631 397 2203 397 
Q 2534 397 2845 478 
Q 3156 559 3463 722 
L 3463 178 
Q 3153 47 2828 -22 
Q 2503 -91 2169 -91 
Q 1331 -91 842 396 
Q 353 884 353 1716 
Q 353 2575 817 3079 
Q 1281 3584 2069 3584 
Q 2775 3584 3186 3129 
Q 3597 2675 3597 1894 
z
M 3022 2063 
Q 3016 2534 2758 2815 
Q 2500 3097 2075 3097 
Q 1594 3097 1305 2825 
Q 1016 2553 972 2059 
L 3022 2063 
z
" transform="scale(0.015625)"/>
       <path id="DejaVuSans-73" d="M 2834 3397 
L 2834 2853 
Q 2591 2978 2328 3040 
Q 2066 3103 1784 3103 
Q 1356 3103 1142 2972 
Q 928 2841 928 2578 
Q 928 2378 1081 2264 
Q 1234 2150 1697 2047 
L 1894 2003 
Q 2506 1872 2764 1633 
Q 3022 1394 3022 966 
Q 3022 478 2636 193 
Q 2250 -91 1575 -91 
Q 1294 -91 989 -36 
Q 684 19 347 128 
L 347 722 
Q 666 556 975 473 
Q 1284 391 1588 391 
Q 1994 391 2212 530 
Q 2431 669 2431 922 
Q 2431 1156 2273 1281 
Q 2116 1406 1581 1522 
L 1381 1569 
Q 847 1681 609 1914 
Q 372 2147 372 2553 
Q 372 3047 722 3315 
Q 1072 3584 1716 3584 
Q 2034 3584 2315 3537 
Q 2597 3491 2834 3397 
z
" transform="scale(0.015625)"/>
       <path id="DejaVuSans-70" d="M 1159 525 
L 1159 -1331 
L 581 -1331 
L 581 3500 
L 1159 3500 
L 1159 2969 
Q 1341 3281 1617 3432 
Q 1894 3584 2278 3584 
Q 2916 3584 3314 3078 
Q 3713 2572 3713 1747 
Q 3713 922 3314 415 
Q 2916 -91 2278 -91 
Q 1894 -91 1617 61 
Q 1341 213 1159 525 
z
M 3116 1747 
Q 3116 2381 2855 2742 
Q 2594 3103 2138 3103 
Q 1681 3103 1420 2742 
Q 1159 2381 1159 1747 
Q 1159 1113 1420 752 
Q 1681 391 2138 391 
Q 2594 391 2855 752 
Q 3116 1113 3116 1747 
z
" transform="scale(0.015625)"/>
      </defs>
      <use xlink:href="#DejaVuSans-74"/>
      <use xlink:href="#DejaVuSans-69" x="39.208984"/>
      <use xlink:href="#DejaVuSans-6d" x="66.992188"/>
      <use xlink:href="#DejaVuSans-65" x="164.404297"/>
      <use xlink:href="#DejaVuSans-73" x="225.927734"/>
      <use xlink:href="#DejaVuSans-74" x="278.027344"/>
      <use xlink:href="#DejaVuSans-65" x="317.236328"/>
      <use xlink:href="#DejaVuSans-70" x="378.759766"/>
      <use xlink:href="#DejaVuSans-73" x="442.236328"/>
     </g>
    </g>
   </g>
   <g id="matplotlib.axis_2">
    <g id="ytick_1">
     <g id="line2d_7">
      <defs>
       <path id="meaf1fb91ef" d="M 0 0 
L -3.5 0 
" style="stroke: #000000; stroke-width: 0.8"/>
      </defs>
      <g>
       <use xlink:href="#meaf1fb91ef" x="57.6" y="299.205927" style="stroke: #000000; stroke-width: 0.8"/>
      </g>
     </g>
     <g id="text_8">
      <!-- 0 -->
      <g transform="translate(44.2375 303.005146) scale(0.1 -0.1)">
       <use xlink:href="#DejaVuSans-30"/>
      </g>
     </g>
    </g>
    <g id="ytick_2">
     <g id="line2d_8">
      <g>
       <use xlink:href="#meaf1fb91ef" x="57.6" y="262.267904" style="stroke: #000000; stroke-width: 0.8"/>
      </g>
     </g>
     <g id="text_9">
      <!-- 50 -->
      <g transform="translate(37.875 266.067123) scale(0.1 -0.1)">
       <use xlink:href="#DejaVuSans-35"/>
       <use xlink:href="#DejaVuSans-30" x="63.623047"/>
      </g>
     </g>
    </g>
    <g id="ytick_3">
     <g id="line2d_9">
      <g>
       <use xlink:href="#meaf1fb91ef" x="57.6" y="225.329881" style="stroke: #000000; stroke-width: 0.8"/>
      </g>
     </g>
     <g id="text_10">
      <!-- 100 -->
      <g transform="translate(31.5125 229.1291) scale(0.1 -0.1)">
       <use xlink:href="#DejaVuSans-31"/>
       <use xlink:href="#DejaVuSans-30" x="63.623047"/>
       <use xlink:href="#DejaVuSans-30" x="127.246094"/>
      </g>
     </g>
    </g>
    <g id="ytick_4">
     <g id="line2d_10">
      <g>
       <use xlink:href="#meaf1fb91ef" x="57.6" y="188.391858" style="stroke: #000000; stroke-width: 0.8"/>
      </g>
     </g>
     <g id="text_11">
      <!-- 150 -->
      <g transform="translate(31.5125 192.191077) scale(0.1 -0.1)">
       <use xlink:href="#DejaVuSans-31"/>
       <use xlink:href="#DejaVuSans-35" x="63.623047"/>
       <use xlink:href="#DejaVuSans-30" x="127.246094"/>
      </g>
     </g>
    </g>
    <g id="ytick_5">
     <g id="line2d_11">
      <g>
       <use xlink:href="#meaf1fb91ef" x="57.6" y="151.453835" style="stroke: #000000; stroke-width: 0.8"/>
      </g>
     </g>
     <g id="text_12">
      <!-- 200 -->
      <g transform="translate(31.5125 155.253054) scale(0.1 -0.1)">
       <use xlink:href="#DejaVuSans-32"/>
       <use xlink:href="#DejaVuSans-30" x="63.623047"/>
       <use xlink:href="#DejaVuSans-30" x="127.246094"/>
      </g>
     </g>
    </g>
    <g id="ytick_6">
     <g id="line2d_12">
      <g>
       <use xlink:href="#meaf1fb91ef" x="57.6" y="114.515812" style="stroke: #000000; stroke-width: 0.8"/>
      </g>
     </g>
     <g id="text_13">
      <!-- 250 -->
      <g transform="translate(31.5125 118.315031) scale(0.1 -0.1)">
       <use xlink:href="#DejaVuSans-32"/>
       <use xlink:href="#DejaVuSans-35" x="63.623047"/>
       <use xlink:href="#DejaVuSans-30" x="127.246094"/>
      </g>
     </g>
    </g>
    <g id="ytick_7">
     <g id="line2d_13">
      <g>
       <use xlink:href="#meaf1fb91ef" x="57.6" y="77.577789" style="stroke: #000000; stroke-width: 0.8"/>
      </g>
     </g>
     <g id="text_14">
      <!-- 300 -->
      <g transform="translate(31.5125 81.377008) scale(0.1 -0.1)">
       <use xlink:href="#DejaVuSans-33"/>
       <use xlink:href="#DejaVuSans-30" x="63.623047"/>
       <use xlink:href="#DejaVuSans-30" x="127.246094"/>
      </g>
     </g>
    </g>
    <g id="text_15">
     <!-- rewards -->
     <g transform="translate(25.432812 194.447531) rotate(-90) scale(0.1 -0.1)">
      <defs>
       <path id="DejaVuSans-72" d="M 2631 2963 
Q 2534 3019 2420 3045 
Q 2306 3072 2169 3072 
Q 1681 3072 1420 2755 
Q 1159 2438 1159 1844 
L 1159 0 
L 581 0 
L 581 3500 
L 1159 3500 
L 1159 2956 
Q 1341 3275 1631 3429 
Q 1922 3584 2338 3584 
Q 2397 3584 2469 3576 
Q 2541 3569 2628 3553 
L 2631 2963 
z
" transform="scale(0.015625)"/>
       <path id="DejaVuSans-77" d="M 269 3500 
L 844 3500 
L 1563 769 
L 2278 3500 
L 2956 3500 
L 3675 769 
L 4391 3500 
L 4966 3500 
L 4050 0 
L 3372 0 
L 2619 2869 
L 1863 0 
L 1184 0 
L 269 3500 
z
" transform="scale(0.015625)"/>
       <path id="DejaVuSans-61" d="M 2194 1759 
Q 1497 1759 1228 1600 
Q 959 1441 959 1056 
Q 959 750 1161 570 
Q 1363 391 1709 391 
Q 2188 391 2477 730 
Q 2766 1069 2766 1631 
L 2766 1759 
L 2194 1759 
z
M 3341 1997 
L 3341 0 
L 2766 0 
L 2766 531 
Q 2569 213 2275 61 
Q 1981 -91 1556 -91 
Q 1019 -91 701 211 
Q 384 513 384 1019 
Q 384 1609 779 1909 
Q 1175 2209 1959 2209 
L 2766 2209 
L 2766 2266 
Q 2766 2663 2505 2880 
Q 2244 3097 1772 3097 
Q 1472 3097 1187 3025 
Q 903 2953 641 2809 
L 641 3341 
Q 956 3463 1253 3523 
Q 1550 3584 1831 3584 
Q 2591 3584 2966 3190 
Q 3341 2797 3341 1997 
z
" transform="scale(0.015625)"/>
       <path id="DejaVuSans-64" d="M 2906 2969 
L 2906 4863 
L 3481 4863 
L 3481 0 
L 2906 0 
L 2906 525 
Q 2725 213 2448 61 
Q 2172 -91 1784 -91 
Q 1150 -91 751 415 
Q 353 922 353 1747 
Q 353 2572 751 3078 
Q 1150 3584 1784 3584 
Q 2172 3584 2448 3432 
Q 2725 3281 2906 2969 
z
M 947 1747 
Q 947 1113 1208 752 
Q 1469 391 1925 391 
Q 2381 391 2643 752 
Q 2906 1113 2906 1747 
Q 2906 2381 2643 2742 
Q 2381 3103 1925 3103 
Q 1469 3103 1208 2742 
Q 947 2381 947 1747 
z
" transform="scale(0.015625)"/>
      </defs>
      <use xlink:href="#DejaVuSans-72"/>
      <use xlink:href="#DejaVuSans-65" x="38.863281"/>
      <use xlink:href="#DejaVuSans-77" x="100.386719"/>
      <use xlink:href="#DejaVuSans-61" x="182.173828"/>
      <use xlink:href="#DejaVuSans-72" x="243.453125"/>
      <use xlink:href="#DejaVuSans-64" x="282.816406"/>
      <use xlink:href="#DejaVuSans-73" x="346.292969"/>
     </g>
    </g>
   </g>
   <g id="line2d_14">
    <path d="M 73.832727 292.772724 
L 73.925107 292.144967 
L 74.017486 290.610695 
L 74.327617 292.224895 
L 74.439793 285.905489 
L 74.67734 291.221494 
L 74.934683 285.940493 
L 75.073252 285.602015 
L 75.211821 283.658518 
L 75.356989 288.393666 
L 75.508755 281.916949 
L 75.594536 293.010002 
L 75.964054 286.156242 
L 76.175207 289.228718 
L 76.293981 287.427477 
L 76.505134 288.08252 
L 76.683295 293.183438 
L 76.920842 293.532531 
L 77.158389 284.252015 
L 77.310155 288.235103 
L 77.369542 294.062432 
L 77.508112 293.014567 
L 77.679673 275.541182 
L 77.864432 279.475318 
L 77.956812 294.659777 
L 78.121775 290.283877 
L 78.273542 289.617984 
L 78.445104 286.838712 
L 78.530885 293.110336 
L 78.616666 291.846104 
L 78.709045 293.47218 
L 78.801425 288.299158 
L 78.972986 289.943621 
L 79.118154 283.981339 
L 79.177541 295.151979 
L 79.580052 271.825074 
L 79.751614 284.560175 
L 79.909978 279.20756 
L 79.975964 293.704684 
L 80.200314 291.332059 
L 80.569832 273.275797 
L 80.675409 289.737911 
L 80.787584 289.158943 
L 81.077919 276.752566 
L 81.348459 291.084255 
L 81.546415 288.632788 
L 81.731174 272.220739 
L 81.803758 293.508659 
L 81.909335 288.653334 
L 82.107291 291.314068 
L 82.232663 285.266647 
L 82.424021 293.952302 
L 82.707758 253.094368 
L 82.852925 290.981961 
L 83.499582 246.305229 
L 83.803114 293.600104 
L 83.921888 291.73795 
L 84.007669 292.333478 
L 84.205625 276.460474 
L 84.298005 292.333307 
L 84.429975 286.155781 
L 84.509158 292.648432 
L 84.713712 283.330748 
L 84.990851 292.626469 
L 85.109624 286.39651 
L 85.320778 292.093275 
L 85.432953 291.087332 
L 85.564923 288.185869 
L 85.723288 276.949778 
L 85.914646 284.993695 
L 86.284164 233.621729 
L 86.43593 287.223598 
L 86.746061 241.146344 
L 86.838441 293.883059 
L 86.937419 289.95032 
L 87.089185 287.503225 
L 87.273944 287.361647 
L 87.544484 258.739175 
L 87.795228 287.753752 
L 88.197739 213.746398 
L 88.336308 290.257939 
L 88.455082 288.480303 
L 88.567257 289.379338 
L 88.712425 287.699265 
L 88.850994 289.140583 
L 88.969768 286.496043 
L 89.227111 294.018715 
L 89.59003 259.004532 
L 89.675811 293.606362 
L 89.794585 287.277797 
L 89.853971 294.928944 
L 89.992541 289.941799 
L 90.183898 287.856019 
L 90.368657 293.6433 
L 90.593007 293.47466 
L 90.685387 289.714866 
L 91.549795 202.349695 
L 91.741153 281.878386 
L 91.88632 281.719382 
L 91.9787 292.190296 
L 92.057882 291.91326 
L 92.15686 290.21893 
L 92.348218 277.756941 
L 92.433999 293.057493 
L 92.625356 279.867555 
L 92.750729 289.942678 
L 92.895896 286.232361 
L 93.080655 287.087741 
L 93.265414 292.800454 
L 93.423779 286.354424 
L 93.661326 291.613876 
L 93.82629 286.707409 
L 93.938465 289.985284 
L 94.090231 288.325327 
L 94.327779 294.268227 
L 94.525735 292.545543 
L 94.651107 288.568561 
L 94.763282 289.757202 
L 94.882056 293.950033 
L 95.145997 282.241806 
L 95.271369 289.160416 
L 95.594697 241.890544 
L 95.89823 287.829914 
L 95.970814 292.983234 
L 96.115982 288.195526 
L 96.419514 265.824908 
L 96.643865 289.820828 
L 96.782434 282.358154 
L 96.960594 283.923167 
L 97.066171 291.001151 
L 97.20474 287.453159 
L 97.607251 264.039563 
L 97.732623 292.689249 
L 97.963572 265.361909 
L 98.06255 287.588982 
L 98.181323 288.831038 
L 98.319893 281.272669 
L 98.418871 289.314969 
L 98.60363 289.907261 
L 98.669615 293.593064 
L 98.860972 280.672135 
L 98.986345 291.54636 
L 99.118315 288.72183 
L 99.23049 290.040644 
L 99.402052 290.357934 
L 99.54722 282.687639 
L 99.659395 293.140863 
L 99.870548 290.075512 
L 99.943132 295.085517 
L 100.418227 256.917293 
L 100.556796 290.539451 
L 100.67557 290.96322 
L 100.794343 292.70427 
L 100.998898 272.366482 
L 101.289234 287.948636 
L 101.520182 274.334428 
L 101.599365 290.809265 
L 101.731335 291.397409 
L 101.803919 293.452637 
L 102.021671 293.71137 
L 102.25262 287.450145 
L 102.43078 290.378333 
L 102.707919 253.020817 
L 102.892678 293.59504 
L 103.037845 284.640851 
L 103.33478 293.374823 
L 103.671305 266.087148 
L 103.862662 292.030287 
L 103.955042 289.366718 
L 104.060618 294.533524 
L 104.126604 293.39664 
L 104.205786 293.207217 
L 104.337757 284.876783 
L 104.416939 292.681133 
L 104.674282 286.765373 
L 104.806253 295.366219 
L 104.977815 284.451711 
L 105.070194 289.836655 
L 105.347333 272.282142 
L 105.624471 290.074184 
L 105.716851 290.679045 
L 105.789435 293.25153 
L 106.020383 292.156993 
L 106.106164 292.543054 
L 106.238135 290.15383 
L 106.57466 264.258509 
L 106.864996 292.627836 
L 107.095945 272.514497 
L 107.293901 292.677516 
L 107.38628 292.864554 
L 107.531448 284.87607 
L 107.637025 290.103633 
L 107.7492 285.698475 
L 107.834981 292.086867 
L 108.118718 291.224075 
L 108.217696 291.991557 
L 108.389258 277.317448 
L 108.46844 290.96268 
L 108.712586 276.802447 
L 108.818163 291.896767 
L 109.002922 276.804745 
L 109.1019 293.844811 
L 109.247067 280.182661 
L 109.359242 291.782883 
L 109.616585 260.39245 
L 109.860731 291.640405 
L 110.032293 291.032595 
L 110.118074 292.098404 
L 110.335826 269.573433 
L 110.434804 292.397043 
L 110.560176 285.636113 
L 110.652555 293.317993 
L 110.764731 288.657634 
L 110.863709 291.580357 
L 111.074862 288.050969 
L 111.206832 290.707828 
L 111.497168 269.73256 
L 111.655533 294.831719 
L 111.866686 290.263671 
L 111.959065 289.210186 
L 112.051445 289.899245 
L 112.176817 287.376242 
L 112.321985 291.187045 
L 112.460554 286.041299 
L 112.559532 289.719095 
L 112.816875 268.17026 
L 112.942247 288.461921 
L 113.067619 287.275337 
L 113.166597 289.026115 
L 113.232583 294.714757 
L 113.371152 294.122502 
L 113.555911 279.548638 
L 113.668086 287.167594 
L 113.879239 280.461357 
L 114.004611 289.64914 
L 114.169575 283.25284 
L 114.545691 251.298774 
L 114.77664 287.284918 
L 114.915209 283.300549 
L 115.099968 290.858315 
L 115.403501 279.23023 
L 115.614654 290.711161 
L 115.700435 293.764591 
L 115.81261 287.135771 
L 115.937982 289.448263 
L 116.069953 282.827976 
L 116.281106 291.195596 
L 116.406478 291.479051 
L 116.683617 271.704094 
L 116.881573 277.570313 
L 117.059733 293.162476 
L 117.2115 284.241117 
L 117.323675 292.468269 
L 117.567821 284.285562 
L 117.785572 293.714765 
L 117.917543 284.035765 
L 118.062711 284.04807 
L 118.234273 283.402253 
L 118.306857 291.633524 
L 118.603791 260.510124 
L 118.907323 290.249471 
L 119.072287 282.759998 
L 119.138272 293.867897 
L 119.349425 275.906021 
L 119.659556 290.011491 
L 120.055468 273.147983 
L 120.200636 289.242715 
L 120.378797 280.220346 
L 120.550359 280.311865 
L 120.761512 293.248744 
L 120.913278 281.477479 
L 120.972665 294.627798 
L 121.236606 267.131142 
L 121.289395 294.744097 
L 121.375176 291.574773 
L 121.652314 288.272142 
L 121.718299 293.089882 
L 121.790883 292.744096 
L 121.94265 293.008137 
L 122.07462 284.806514 
L 122.411146 291.59239 
L 122.562912 281.753767 
L 122.721277 279.206195 
L 122.813656 290.467519 
L 123.051204 276.334007 
L 123.20297 281.110662 
L 123.301948 292.52671 
L 123.394327 292.174857 
L 123.506503 289.177606 
L 123.928809 265.830722 
L 123.988196 293.596187 
L 124.073977 291.15615 
L 124.225743 286.49158 
L 124.436896 291.373299 
L 124.55567 288.844162 
L 124.73383 273.461352 
L 124.865801 291.366612 
L 125.063757 277.545602 
L 125.142939 294.260085 
L 125.235319 291.304261 
L 125.413479 283.221831 
L 125.512457 292.774279 
L 125.631231 284.70119 
L 125.690618 294.755142 
L 125.954559 289.464988 
L 126.073333 292.357616 
L 126.205304 292.494136 
L 126.376866 285.46762 
L 126.462646 292.808873 
L 126.733186 283.804848 
L 126.832164 290.967843 
L 127.016923 293.125669 
L 127.241274 289.027923 
L 127.340252 289.867189 
L 127.597595 282.312784 
L 127.769157 280.794259 
L 127.828543 294.988339 
L 127.960514 292.377068 
L 128.11228 282.714812 
L 128.593973 220.389169 
L 128.772134 287.804248 
L 128.950294 288.216737 
L 129.234031 265.764546 
L 129.313214 293.230378 
L 129.438586 291.251426 
L 129.841097 271.573165 
L 129.926878 292.349505 
L 130.05225 291.596188 
L 130.210615 284.407726 
L 130.296396 291.32655 
L 130.487753 285.996499 
L 130.712103 292.770417 
L 130.982643 281.991432 
L 131.114614 287.510824 
L 131.272979 280.61697 
L 131.35876 290.473816 
L 131.530322 283.439414 
L 131.602906 292.424787 
L 131.748073 289.087034 
L 131.992219 270.226068 
L 132.289153 293.417495 
L 132.401328 287.349063 
L 132.480511 293.384551 
L 132.691664 268.376296 
L 132.830233 291.209958 
L 132.929211 289.206559 
L 133.001795 294.901379 
L 133.179956 290.498242 
L 133.450496 286.653139 
L 133.562671 293.468005 
L 133.780422 269.349056 
L 134.004773 273.881216 
L 134.387488 218.682356 
L 134.453473 293.351179 
L 134.545852 291.142666 
L 134.677823 288.039832 
L 134.757006 293.778431 
L 135.014348 288.00375 
L 135.126524 288.685746 
L 135.542231 279.541477 
L 135.753384 272.721335 
L 135.858961 288.230007 
L 136.030523 287.557652 
L 136.281267 275.919367 
L 136.373647 295.14375 
L 136.499019 284.575358 
L 136.604596 289.550318 
L 136.85534 284.857968 
L 136.987311 285.154253 
L 137.106084 292.271387 
L 137.211661 291.758394 
L 137.356829 288.353304 
L 137.772536 293.410502 
L 137.89131 288.598103 
L 138.333412 241.794891 
L 138.537966 292.991061 
L 138.643543 288.482145 
L 138.742521 292.049833 
L 138.841499 289.765287 
L 139.072448 276.911008 
L 139.316594 274.724237 
L 139.382579 293.599314 
L 139.573937 290.538905 
L 139.672915 293.131072 
L 139.884068 286.682704 
L 140.194199 259.054134 
L 140.27998 293.020288 
L 140.405352 291.971677 
L 140.583512 281.724144 
L 140.801264 281.410629 
L 140.992622 293.636477 
L 141.085001 294.266649 
L 141.170782 290.339622 
L 141.408329 288.912656 
L 141.553497 289.060641 
L 141.744855 293.834717 
L 142.068183 285.726635 
L 142.140767 293.161861 
L 142.312329 282.316585 
L 142.39811 291.359416 
L 142.497088 287.504046 
L 142.840212 268.187846 
L 143.090956 292.770736 
L 143.222927 290.199249 
L 143.381292 279.098024 
L 143.546255 294.898811 
L 143.638634 290.870562 
L 143.88278 271.580746 
L 144.008152 291.937366 
L 144.324882 282.634457 
L 144.542634 277.131878 
L 144.892356 289.878446 
L 144.958341 294.238675 
L 145.044122 292.545821 
L 145.156298 293.676591 
L 145.327859 274.596841 
L 145.393845 293.56893 
L 145.618195 286.44819 
L 145.677582 294.356361 
L 145.769961 293.166693 
L 145.849144 291.8657 
L 146.185669 261.329863 
L 146.264852 293.012289 
L 146.515596 279.39415 
L 146.581581 292.872487 
L 146.825727 262.853118 
L 146.931304 292.80475 
L 147.050077 289.198442 
L 147.281026 277.833102 
L 147.360208 293.307893 
L 147.452588 290.801343 
L 147.544967 292.920455 
L 147.696734 281.109327 
L 147.795712 293.16701 
L 148.132237 288.593569 
L 148.2972 280.38871 
L 148.462164 290.736467 
L 148.745901 283.247378 
L 148.831682 295.25062 
L 148.970251 283.963725 
L 149.036236 292.703533 
L 149.15501 288.447943 
L 149.339769 275.724204 
L 149.491535 289.097253 
L 149.781871 269.631374 
L 149.92044 284.09229 
L 150.045812 285.072077 
L 150.138192 292.657381 
L 150.435126 275.652175 
L 150.520907 292.405422 
L 150.672673 288.937755 
L 150.77825 290.810964 
L 150.916819 283.939513 
L 151.028994 291.821633 
L 151.127972 288.482294 
L 151.279739 287.302304 
L 151.761432 219.234499 
L 151.965986 290.270914 
L 152.078161 288.273254 
L 152.144147 293.15273 
L 152.289314 288.55592 
L 152.361898 294.336433 
L 152.493869 285.674361 
L 152.619241 290.688971 
L 152.744613 285.023162 
L 153.02835 293.198945 
L 153.140526 287.612963 
L 153.206511 292.94199 
L 153.727795 272.032722 
L 153.806978 291.960103 
L 154.037926 279.214257 
L 154.229284 286.114279 
L 154.460233 282.188067 
L 154.65159 291.265929 
L 154.803356 287.194866 
L 154.908933 290.806171 
L 155.027707 288.256153 
L 155.093692 294.672607 
L 155.331239 283.727748 
L 155.502801 283.179511 
L 155.621575 285.589161 
L 155.694159 292.109774 
L 155.812932 286.452047 
L 156.030684 292.319976 
L 156.162655 289.632016 
L 156.327618 290.135846 
L 156.459589 287.085191 
L 156.716932 292.373511 
L 156.835705 290.705153 
L 156.980873 291.163973 
L 157.093048 290.398933 
L 157.3108 288.250986 
L 157.469165 290.917035 
L 157.594537 284.052892 
L 157.713311 288.411452 
L 158.188405 190.320621 
L 158.293982 287.742652 
L 158.703091 245.677306 
L 158.79547 295.195059 
L 158.973631 280.617975 
L 159.138594 283.805111 
L 159.197981 294.045851 
L 159.422331 280.894774 
L 159.574098 281.261941 
L 159.739061 293.436703 
L 159.864433 282.516522 
L 160.009601 288.74604 
L 160.161367 284.142241 
L 160.590272 294.078131 
L 160.742038 285.773195 
L 160.841016 289.735948 
L 161.058768 268.516197 
L 161.18414 285.737977 
L 161.382096 286.519716 
L 161.698826 276.896854 
L 161.758213 294.649257 
L 161.896782 284.742825 
L 161.989162 291.375747 
L 162.127731 291.440246 
L 162.213512 290.456125 
L 162.550037 264.095425 
L 162.734796 292.085824 
L 162.906358 286.705658 
L 162.972343 294.190312 
L 163.216489 292.574702 
L 163.421044 276.672684 
L 163.487029 292.590681 
L 163.830153 274.392787 
L 163.948927 287.986533 
L 164.094094 286.739222 
L 164.16008 293.176661 
L 164.331642 285.632845 
L 164.56259 264.841327 
L 164.70116 282.492672 
L 165.037685 258.356249 
L 165.334619 291.598567 
L 165.73713 229.345103 
L 165.849305 292.838791 
L 166.172633 237.498758 
L 166.377188 292.652087 
L 166.575144 290.740851 
L 166.733509 290.701887 
L 166.918268 285.495318 
L 167.234997 292.840053 
L 167.432953 288.483415 
L 167.630909 275.348279 
L 167.736486 293.922061 
L 167.98723 288.018447 
L 168.106004 293.713832 
L 168.475522 285.170344 
L 168.581099 289.141413 
L 168.930821 270.986179 
L 169.036398 288.991733 
L 169.207959 292.759286 
L 169.300339 290.327523 
L 169.498295 270.183415 
L 169.56428 293.700342 
L 170.032776 267.699562 
L 170.316513 263.072998 
L 170.435287 294.174123 
L 170.547462 288.632154 
L 170.877389 233.773123 
L 170.976367 290.395771 
L 171.161126 287.415728 
L 171.266703 295.488 
L 171.510848 288.969891 
L 171.748396 253.780095 
L 172.025534 290.318103 
L 172.342264 241.499612 
L 172.500629 285.559271 
L 172.757972 256.756926 
L 172.896541 287.980393 
L 173.094497 290.483851 
L 173.510205 249.672999 
L 173.727956 282.461582 
L 173.919314 274.986652 
L 174.090876 283.933141 
L 174.216248 283.777063 
L 174.559372 273.865494 
L 174.711138 293.743894 
L 174.777123 293.420035 
L 174.948685 295.166364 
L 175.113649 278.141513 
L 175.324802 290.701719 
L 175.806495 206.508717 
L 176.156217 271.526547 
L 176.373969 267.492341 
L 176.618115 252.018571 
L 176.763283 285.50345 
L 176.934845 286.719312 
L 177.066815 291.314136 
L 177.198786 284.193457 
L 177.640888 235.431869 
L 177.918026 252.845842 
L 178.280946 227.737827 
L 178.373325 293.778226 
L 178.452508 291.655311 
L 178.663661 280.094454 
L 178.953996 271.947779 
L 179.052974 290.357448 
L 179.198142 287.421497 
L 179.277325 293.333553 
L 179.475281 291.585032 
L 179.554463 291.753717 
L 179.693032 282.036403 
L 179.778813 290.828324 
L 180.115339 239.446663 
L 180.181324 293.909841 
L 180.570638 220.066427 
L 180.801586 293.436142 
L 180.900564 290.831476 
L 181.217294 244.613952 
L 181.421849 291.175748 
L 181.936534 218.030891 
L 182.240067 291.773472 
L 182.365439 285.614735 
L 182.530403 293.106275 
L 182.655775 282.653235 
L 182.754753 293.918778 
L 183.005497 278.187042 
L 183.091278 293.016386 
L 183.170461 292.882127 
L 183.500387 271.928531 
L 183.751132 292.329888 
L 183.98208 273.630429 
L 184.087657 287.527214 
L 184.325204 262.359185 
L 184.404387 291.325969 
L 184.773905 281.094984 
L 185.051043 286.303603 
L 185.130226 292.577676 
L 185.367773 255.30143 
L 185.460152 293.386923 
L 185.955043 215.428408 
L 186.364152 292.677185 
L 186.515918 285.988691 
L 186.713874 261.80758 
L 186.885436 293.47184 
L 187.446312 250.439411 
L 187.987392 174.10723 
L 188.257931 290.754839 
L 188.323917 294.650288 
L 188.495479 274.814116 
L 188.667041 284.41963 
L 188.825406 283.06638 
L 189.128938 245.836797 
L 189.241113 286.542607 
L 189.88777 237.182513 
L 190.38266 259.432842 
L 190.600412 263.487201 
L 190.917141 273.181081 
L 191.128294 262.933089 
L 191.801345 185.458706 
L 191.926717 289.706069 
L 192.157666 284.984589 
L 192.316031 278.747777 
L 192.606366 290.259582 
L 192.837315 271.623111 
L 193.470775 168.156633 
L 194.07784 290.587556 
L 194.190015 289.491341 
L 194.308789 292.587013 
L 194.414365 290.265335 
L 194.731095 262.727803 
L 194.803679 292.90684 
L 195.054423 277.32002 
L 195.199591 289.325181 
L 195.390948 275.479983 
L 195.588904 281.987576 
L 195.668087 292.246582 
L 195.852846 290.140601 
L 196.096992 291.868459 
L 196.209167 293.469955 
L 196.657867 246.965139 
L 196.91521 292.542848 
L 197.27813 270.620894 
L 197.654246 234.573584 
L 197.786217 292.163914 
L 198.142538 281.548672 
L 198.426275 250.884632 
L 198.571442 282.668734 
L 198.795793 291.690616 
L 199.072931 273.07853 
L 199.204902 286.499372 
L 199.35007 289.006778 
L 199.732785 230.364356 
L 199.897748 293.125768 
L 200.254069 227.467688 
L 200.445427 291.213353 
L 200.630186 291.235084 
L 200.92712 243.123739 
L 201.039295 283.941407 
L 201.309835 291.473538 
L 201.415411 291.693867 
L 201.996082 174.570595 
L 202.068666 293.238174 
L 202.359002 243.617992 
L 202.510768 294.298891 
L 203.17722 166.608826 
L 203.328987 290.993757 
L 203.474154 288.561668 
L 203.823877 236.65731 
L 204.206592 292.518806 
L 204.853248 137.686406 
L 205.328343 290.359452 
L 205.803437 195.826433 
L 206.430298 161.803101 
L 206.588663 293.418306 
L 206.747028 291.798723 
L 206.832809 289.54401 
L 207.123145 288.025857 
L 207.334298 259.332812 
L 207.618035 292.15207 
L 207.756604 285.505456 
L 208.007348 255.350389 
L 208.13272 284.92788 
L 208.482443 230.462652 
L 208.654005 288.809011 
L 208.878355 292.284577 
L 209.221479 251.592971 
L 209.320457 293.601973 
L 209.465625 282.892222 
L 209.683376 279.442449 
L 209.927522 285.430839 
L 210.013303 290.556354 
L 210.369624 228.199168 
L 210.626967 290.686698 
L 211.01628 225.386928 
L 211.616747 269.679962 
L 211.860893 263.635207 
L 212.309593 295.190515 
L 212.408571 287.642631 
L 212.481155 292.188322 
L 212.626323 282.739177 
L 212.916659 281.505102 
L 213.470936 259.794047 
L 213.89984 226.386626 
L 214.130789 278.564724 
L 214.506906 236.537875 
L 214.652074 284.269456 
L 214.790643 287.15613 
L 215.542876 253.46772 
L 215.918992 237.764742 
L 216.083956 293.466672 
L 216.28851 260.591039 
L 216.526058 262.165282 
L 216.598641 293.428995 
L 216.816393 283.20104 
L 217.034145 292.85142 
L 217.133123 289.786602 
L 217.311283 294.179284 
L 217.575225 250.155306 
L 217.825969 286.441425 
L 218.254874 225.080221 
L 218.565005 289.566999 
L 218.815749 292.506845 
L 218.934523 286.352896 
L 219.205063 280.056491 
L 219.732946 189.264511 
L 219.990289 250.1574 
L 220.221237 254.716027 
L 220.386201 279.69079 
L 220.551164 284.628645 
L 220.821704 279.963173 
L 221.092244 248.167235 
L 221.191222 292.922692 
L 221.56074 263.957547 
L 221.771893 290.965721 
L 222.14801 272.170478 
L 222.365762 271.872326 
L 222.557119 291.23892 
L 222.695688 293.216022 
L 222.920039 290.961281 
L 223.177381 250.163036 
L 223.467717 250.704124 
L 224.114373 214.469157 
L 224.543278 290.523318 
L 224.780826 254.97329 
L 225.057964 249.98415 
L 225.447278 256.80306 
L 225.797 242.798352 
L 226.305087 194.684524 
L 226.635014 294.048454 
L 227.136503 220.613328 
L 227.677583 212.260451 
L 228.033904 226.861431 
L 228.165874 286.320482 
L 228.449611 261.784863 
L 228.799334 262.167671 
L 228.937903 285.02674 
L 229.67034 204.63033 
L 229.868296 288.600169 
L 230.138836 247.87295 
L 230.567741 218.309669 
L 231.06923 253.156456 
L 231.795069 157.670445 
L 232.065609 282.654256 
L 232.415331 227.147823 
L 232.705667 279.85028 
L 233.497491 206.927181 
L 234.500468 155.796816 
L 234.797402 239.666865 
L 235.496847 187.442706 
L 235.615621 289.324039 
L 235.84657 286.744202 
L 236.064321 259.004934 
L 236.29527 285.990136 
L 236.816554 220.356383 
L 237.238861 214.872424 
L 237.55559 280.890293 
L 237.740349 264.18695 
L 237.984495 264.120972 
L 238.340816 236.403945 
L 238.472787 291.078266 
L 238.716933 253.519798 
L 239.238217 203.833311 
L 239.376786 278.645067 
L 239.541749 281.309865 
L 239.700114 293.088708 
L 239.931063 292.006194 
L 240.320377 214.821405 
L 240.848259 217.253375 
L 241.382741 209.482302 
L 241.844638 292.20952 
L 242.220755 228.091264 
L 242.530886 246.49166 
L 242.939995 244.836223 
L 243.131353 263.473026 
L 243.90998 202.146795 
L 244.140929 290.7836 
L 244.424666 248.465514 
L 244.622622 291.19313 
L 244.873366 263.421449 
L 245.130709 249.137626 
L 245.401249 248.264958 
L 245.546417 283.891844 
L 245.876344 235.976808 
L 246.199672 247.387525 
L 246.595584 218.628681 
L 246.885919 262.365189 
L 247.275233 222.254052 
L 247.426999 280.455646 
L 247.908692 189.681113 
L 248.667524 292.112596 
L 249.300983 200.702267 
L 249.505538 261.639184 
L 249.894852 231.803964 
L 250.303961 210.013958 
L 250.752661 206.68384 
L 251.313537 255.186742 
L 251.458705 291.414529 
L 251.643464 264.801664 
L 252.085565 272.866712 
L 252.481478 223.277183 
L 252.56066 291.388242 
L 252.916981 226.569905 
L 253.220514 243.591951 
L 253.471258 290.490888 
L 253.629623 285.00636 
L 253.82098 263.098071 
L 253.919958 291.719038 
L 254.243287 267.877111 
L 255.068103 159.723431 
L 255.602585 196.916925 
L 255.833534 289.167707 
L 256.123869 241.465533 
L 257.232423 195.942204 
L 257.634934 275.151938 
L 258.096831 239.774668 
L 258.558729 193.303322 
L 258.684101 282.626837 
L 259.145998 236.652685 
L 259.45613 237.262854 
L 260.419516 189.622596 
L 260.676859 249.478535 
L 261.072771 237.402099 
L 261.57426 256.456977 
L 262.06915 182.169205 
L 262.702609 201.34688 
L 262.959952 257.730341 
L 263.481236 222.936981 
L 263.738579 250.707711 
L 263.969528 255.39549 
L 264.655776 139.759213 
L 265.144067 258.344707 
L 265.348622 261.372508 
L 265.856709 213.890186 
L 266.325205 267.713349 
L 266.773905 216.208395 
L 267.169818 213.717867 
L 267.618518 225.679426 
L 268.001233 239.982367 
L 268.298167 243.795376 
L 268.443335 291.212193 
L 268.740269 242.632988 
L 269.083393 238.776105 
L 269.565086 200.800773 
L 270.046779 294.170212 
L 271.53145 119.779259 
L 271.854778 236.207597 
L 272.131916 245.530865 
L 272.923741 150.680057 
L 273.266864 246.528871 
L 273.821141 179.689016 
L 274.091681 246.26441 
L 274.659155 162.371917 
L 275.154046 182.798533 
L 275.378396 257.812407 
L 276.005257 180.819438 
L 276.130629 289.959797 
L 276.381373 252.800789 
L 277.001636 199.846243 
L 277.278774 248.6099 
L 277.92543 170.91345 
L 278.321343 236.36072 
L 278.855824 172.522958 
L 279.159357 240.249673 
L 279.634451 211.936268 
L 279.8654 288.53015 
L 280.116144 252.678756 
L 280.670421 198.040838 
L 281.178508 204.579237 
L 281.548026 237.319114 
L 281.838362 241.492154 
L 282.062712 257.440378 
L 282.372843 239.365997 
L 282.821544 203.255238 
L 283.158069 247.862204 
L 283.765134 191.110467 
L 284.187441 227.691765 
L 284.471178 284.190601 
L 284.966068 228.355814 
L 285.230009 250.913939 
L 285.526943 242.548762 
L 286.147206 201.969042 
L 286.859848 248.023295 
L 287.090796 255.690131 
L 287.381132 243.283516 
L 287.684665 239.916211 
L 288.166358 261.560305 
L 288.74043 177.540449 
L 289.116547 228.822068 
L 289.637831 257.386163 
L 289.895174 250.473121 
L 290.185509 245.749427 
L 290.36367 265.769222 
L 290.891553 199.184831 
L 292.105683 78.471187 
L 292.560982 219.733571 
L 293.121858 202.37813 
L 293.537565 217.278168 
L 294.322791 185.179033 
L 294.883667 290.224174 
L 295.497331 186.057944 
L 296.949008 53.568 
L 297.226147 242.523076 
L 297.628658 227.505117 
L 297.826614 262.441925 
L 298.255518 230.185234 
L 298.506263 251.270864 
L 298.862584 242.267169 
L 299.106729 254.790282 
L 299.792977 164.993231 
L 300.221882 203.242613 
L 300.479225 247.442297 
L 300.76956 241.92041 
L 301.079692 239.616585 
L 301.515195 200.946043 
L 301.970494 196.601245 
L 302.326815 236.008405 
L 302.61715 241.922333 
L 303.046055 215.831236 
L 303.47496 267.519534 
L 304.458142 149.076075 
L 304.834258 220.765509 
L 305.362141 196.445123 
L 305.599688 255.617782 
L 306.569673 168.430706 
L 306.893001 235.665635 
L 307.21633 234.768425 
L 308.344679 148.604879 
L 308.714197 222.109676 
L 309.400445 142.0919 
L 309.750167 246.543875 
L 310.330838 179.927754 
L 310.904911 151.811063 
L 311.281027 219.475744 
L 311.604356 235.403231 
L 312.369786 258.465516 
L 312.917464 165.536501 
L 313.102223 264.895199 
L 313.471741 239.085409 
L 313.742281 246.118612 
L 313.940237 263.100007 
L 314.230573 248.881882 
L 315.081784 161.067347 
L 315.748236 151.243894 
L 316.309112 160.669332 
L 316.935972 148.330725 
L 317.147126 259.568776 
L 317.767388 139.29355 
L 318.367855 147.737294 
L 319.15308 150.882529 
L 319.384029 256.115342 
L 319.641372 250.669875 
L 320.208846 190.639581 
L 320.749926 169.587427 
L 321.079853 231.507633 
L 321.409779 234.258954 
L 321.990451 152.451199 
L 322.293983 240.439394 
L 323.409136 88.8208 
L 323.692873 245.025597 
L 324.088785 217.32505 
L 324.332931 251.979424 
L 325.005981 175.935507 
L 325.197339 263.319116 
L 325.672433 187.670185 
L 326.160725 185.542104 
L 326.893162 189.271537 
L 327.35506 263.841713 
L 327.94233 151.851214 
L 328.984898 248.957879 
L 329.453394 258.069831 
L 329.717336 254.473967 
L 330.265014 165.490432 
L 330.588342 241.751108 
L 331.248196 136.136841 
L 331.564926 242.819917 
L 332.073013 176.558814 
L 332.323757 249.186965 
L 332.660283 244.69266 
L 333.155173 190.393374 
L 333.412516 250.016027 
L 333.782034 229.343966 
L 334.402296 143.38123 
L 334.976368 158.228808 
L 335.576835 146.096854 
L 336.018937 199.140756 
L 336.606207 150.204214 
L 337.186878 157.417545 
L 337.793943 151.610762 
L 338.090877 241.062723 
L 338.658351 157.023631 
L 339.245621 151.004743 
L 339.595343 243.838631 
L 339.846088 251.552982 
L 340.110029 249.855325 
L 340.677503 161.986129 
L 341.113006 222.535919 
L 342.13578 105.913907 
L 342.696655 161.937851 
L 343.732625 113.873726 
L 343.930581 261.296669 
L 344.511252 161.136458 
L 345.078726 163.822074 
L 345.698989 142.16274 
L 346.292857 148.828539 
L 346.95271 136.285406 
L 347.447601 183.941166 
L 348.008476 179.465002 
L 348.430782 205.686001 
L 349.031249 149.474393 
L 349.618519 161.140721 
L 350.251978 139.042556 
L 350.727073 196.45599 
L 351.868619 155.199055 
L 352.251334 228.668517 
L 352.838604 156.305408 
L 354.217698 64.815613 
L 354.785172 157.457653 
L 355.346048 163.808614 
L 355.972908 146.474257 
L 356.55358 154.016861 
L 357.167243 140.1866 
L 357.741316 168.818688 
L 358.302191 162.483285 
L 358.84987 170.959697 
L 359.410745 162.023724 
L 359.998015 154.472026 
L 360.585285 157.573505 
L 361.251737 135.272188 
L 361.799415 167.727612 
L 362.7694 122.08971 
L 363.396261 142.560356 
L 363.620611 257.399005 
L 364.221078 148.195539 
L 364.828143 144.624453 
L 365.441807 158.182835 
L 365.646362 260.873578 
L 366.220434 157.501166 
L 366.787908 172.188625 
L 367.375178 152.347085 
L 368.015236 153.135993 
L 368.681688 149.467663 
L 369.25576 156.947428 
L 369.869424 160.434377 
L 370.469891 155.855207 
L 371.123146 134.242652 
L 372.363671 141.83049 
L 372.77278 215.388345 
L 373.393042 161.175657 
L 373.993509 153.92227 
L 374.673158 156.934522 
L 375.260428 154.416597 
L 375.920281 143.12171 
L 376.500952 154.336855 
L 377.127813 157.932949 
L 377.701886 164.33351 
L 378.31555 150.670638 
L 378.902819 157.719595 
L 379.338323 230.413425 
L 379.912395 169.556185 
L 380.229125 236.113634 
L 380.737212 186.348247 
L 381.311285 171.217458 
L 381.87216 172.593008 
L 382.45943 160.278233 
L 383.040101 152.950675 
L 383.640568 149.637482 
L 384.221239 168.451901 
L 384.643545 214.415368 
L 385.290202 150.175565 
L 385.950055 165.676673 
L 386.530726 152.608111 
L 387.177383 146.117332 
L 387.791047 157.568762 
L 388.015397 256.258588 
L 388.629061 151.495723 
L 389.255922 149.06854 
L 390.008155 134.844926 
L 390.56903 172.585886 
L 391.1563 167.098395 
L 391.736971 163.625697 
L 392.317642 163.381839 
L 392.91151 151.965375 
L 393.465787 175.593188 
L 394.125641 155.332054 
L 394.693115 161.829297 
L 395.293582 154.140049 
L 395.946837 143.788353 
L 396.520909 167.170905 
L 397.312733 129.915828 
L 397.893405 158.223518 
L 398.487273 152.870305 
L 398.487273 152.870305 
" clip-path="url(#pa939f0fefd)" style="fill: none; stroke: #1f77b4; stroke-width: 1.5; stroke-linecap: square"/>
   </g>
   <g id="patch_3">
    <path d="M 57.6 307.584 
L 57.6 41.472 
" style="fill: none; stroke: #000000; stroke-width: 0.8; stroke-linejoin: miter; stroke-linecap: square"/>
   </g>
   <g id="patch_4">
    <path d="M 414.72 307.584 
L 414.72 41.472 
" style="fill: none; stroke: #000000; stroke-width: 0.8; stroke-linejoin: miter; stroke-linecap: square"/>
   </g>
   <g id="patch_5">
    <path d="M 57.6 307.584 
L 414.72 307.584 
" style="fill: none; stroke: #000000; stroke-width: 0.8; stroke-linejoin: miter; stroke-linecap: square"/>
   </g>
   <g id="patch_6">
    <path d="M 57.6 41.472 
L 414.72 41.472 
" style="fill: none; stroke: #000000; stroke-width: 0.8; stroke-linejoin: miter; stroke-linecap: square"/>
   </g>
   <g id="text_16">
    <!-- learning curve -->
    <g transform="translate(192.96375 35.472) scale(0.12 -0.12)">
     <defs>
      <path id="DejaVuSans-6c" d="M 603 4863 
L 1178 4863 
L 1178 0 
L 603 0 
L 603 4863 
z
" transform="scale(0.015625)"/>
      <path id="DejaVuSans-6e" d="M 3513 2113 
L 3513 0 
L 2938 0 
L 2938 2094 
Q 2938 2591 2744 2837 
Q 2550 3084 2163 3084 
Q 1697 3084 1428 2787 
Q 1159 2491 1159 1978 
L 1159 0 
L 581 0 
L 581 3500 
L 1159 3500 
L 1159 2956 
Q 1366 3272 1645 3428 
Q 1925 3584 2291 3584 
Q 2894 3584 3203 3211 
Q 3513 2838 3513 2113 
z
" transform="scale(0.015625)"/>
      <path id="DejaVuSans-67" d="M 2906 1791 
Q 2906 2416 2648 2759 
Q 2391 3103 1925 3103 
Q 1463 3103 1205 2759 
Q 947 2416 947 1791 
Q 947 1169 1205 825 
Q 1463 481 1925 481 
Q 2391 481 2648 825 
Q 2906 1169 2906 1791 
z
M 3481 434 
Q 3481 -459 3084 -895 
Q 2688 -1331 1869 -1331 
Q 1566 -1331 1297 -1286 
Q 1028 -1241 775 -1147 
L 775 -588 
Q 1028 -725 1275 -790 
Q 1522 -856 1778 -856 
Q 2344 -856 2625 -561 
Q 2906 -266 2906 331 
L 2906 616 
Q 2728 306 2450 153 
Q 2172 0 1784 0 
Q 1141 0 747 490 
Q 353 981 353 1791 
Q 353 2603 747 3093 
Q 1141 3584 1784 3584 
Q 2172 3584 2450 3431 
Q 2728 3278 2906 2969 
L 2906 3500 
L 3481 3500 
L 3481 434 
z
" transform="scale(0.015625)"/>
      <path id="DejaVuSans-20" transform="scale(0.015625)"/>
      <path id="DejaVuSans-63" d="M 3122 3366 
L 3122 2828 
Q 2878 2963 2633 3030 
Q 2388 3097 2138 3097 
Q 1578 3097 1268 2742 
Q 959 2388 959 1747 
Q 959 1106 1268 751 
Q 1578 397 2138 397 
Q 2388 397 2633 464 
Q 2878 531 3122 666 
L 3122 134 
Q 2881 22 2623 -34 
Q 2366 -91 2075 -91 
Q 1284 -91 818 406 
Q 353 903 353 1747 
Q 353 2603 823 3093 
Q 1294 3584 2113 3584 
Q 2378 3584 2631 3529 
Q 2884 3475 3122 3366 
z
" transform="scale(0.015625)"/>
      <path id="DejaVuSans-75" d="M 544 1381 
L 544 3500 
L 1119 3500 
L 1119 1403 
Q 1119 906 1312 657 
Q 1506 409 1894 409 
Q 2359 409 2629 706 
Q 2900 1003 2900 1516 
L 2900 3500 
L 3475 3500 
L 3475 0 
L 2900 0 
L 2900 538 
Q 2691 219 2414 64 
Q 2138 -91 1772 -91 
Q 1169 -91 856 284 
Q 544 659 544 1381 
z
M 1991 3584 
L 1991 3584 
z
" transform="scale(0.015625)"/>
      <path id="DejaVuSans-76" d="M 191 3500 
L 800 3500 
L 1894 563 
L 2988 3500 
L 3597 3500 
L 2284 0 
L 1503 0 
L 191 3500 
z
" transform="scale(0.015625)"/>
     </defs>
     <use xlink:href="#DejaVuSans-6c"/>
     <use xlink:href="#DejaVuSans-65" x="27.783203"/>
     <use xlink:href="#DejaVuSans-61" x="89.306641"/>
     <use xlink:href="#DejaVuSans-72" x="150.585938"/>
     <use xlink:href="#DejaVuSans-6e" x="189.949219"/>
     <use xlink:href="#DejaVuSans-69" x="253.328125"/>
     <use xlink:href="#DejaVuSans-6e" x="281.111328"/>
     <use xlink:href="#DejaVuSans-67" x="344.490234"/>
     <use xlink:href="#DejaVuSans-20" x="407.966797"/>
     <use xlink:href="#DejaVuSans-63" x="439.753906"/>
     <use xlink:href="#DejaVuSans-75" x="494.734375"/>
     <use xlink:href="#DejaVuSans-72" x="558.113281"/>
     <use xlink:href="#DejaVuSans-76" x="599.226562"/>
     <use xlink:href="#DejaVuSans-65" x="658.40625"/>
    </g>
   </g>
  </g>
 </g>
 <defs>
  <clipPath id="pa939f0fefd">
   <rect x="57.6" y="41.472" width="357.12" height="266.112"/>
  </clipPath>
 </defs>
</svg>
